<?xml version="1.0" encoding="UTF-8"?>
<!DOCTYPE svg PUBLIC "-//W3C//DTD SVG 1.1//EN" "http://www.w3.org/Graphics/SVG/1.1/DTD/svg11.dtd">
<svg width="240mm" height="160mm" viewBox="0 0 24000 16000" version="1.1" xmlns="http://www.w3.org/2000/svg" xmlns:xlink="http://www.w3.org/1999/xlink" stroke-width="28.222" stroke-linejoin="round" xml:space="preserve">
 <path fill="rgb(255,255,255)" stroke="none" d="M 12000,16000 L 0,16000 0,0 24000,0 24000,16000 12000,16000 Z"/>
 <path fill="none" stroke="rgb(179,179,179)" stroke-linejoin="round" d="M 11929,13454 L 1235,13454 1235,1210 22622,1210 22622,13454 11929,13454 Z"/>
 <path fill="none" stroke="rgb(179,179,179)" stroke-linejoin="round" d="M 22621,13453 L 1235,13453"/>
 <path fill="none" stroke="rgb(179,179,179)" stroke-linejoin="round" d="M 22621,11820 L 1235,11820"/>
 <path fill="none" stroke="rgb(179,179,179)" stroke-linejoin="round" d="M 22621,10187 L 1235,10187"/>
 <path fill="none" stroke="rgb(179,179,179)" stroke-linejoin="round" d="M 22621,8555 L 1235,8555"/>
 <path fill="none" stroke="rgb(179,179,179)" stroke-linejoin="round" d="M 22621,6923 L 1235,6923"/>
 <path fill="none" stroke="rgb(179,179,179)" stroke-linejoin="round" d="M 22621,5290 L 1235,5290"/>
 <path fill="none" stroke="rgb(179,179,179)" stroke-linejoin="round" d="M 22621,3658 L 1235,3658"/>
 <path fill="none" stroke="rgb(179,179,179)" stroke-linejoin="round" d="M 22621,2025 L 1235,2025"/>
 <path fill="none" stroke="rgb(179,179,179)" stroke-linejoin="round" d="M 1235,13603 L 1235,13453"/>
 <path fill="none" stroke="rgb(179,179,179)" stroke-linejoin="round" d="M 1235,13603 L 1235,13453"/>
 <path fill="none" stroke="rgb(179,179,179)" stroke-linejoin="round" d="M 2360,13603 L 2360,13453"/>
 <path fill="none" stroke="rgb(179,179,179)" stroke-linejoin="round" d="M 2360,13603 L 2360,13453"/>
 <path fill="none" stroke="rgb(179,179,179)" stroke-linejoin="round" d="M 3486,13603 L 3486,13453"/>
 <path fill="none" stroke="rgb(179,179,179)" stroke-linejoin="round" d="M 3486,13603 L 3486,13453"/>
 <path fill="none" stroke="rgb(179,179,179)" stroke-linejoin="round" d="M 4612,13603 L 4612,13453"/>
 <path fill="none" stroke="rgb(179,179,179)" stroke-linejoin="round" d="M 4612,13603 L 4612,13453"/>
 <path fill="none" stroke="rgb(179,179,179)" stroke-linejoin="round" d="M 5737,13603 L 5737,13453"/>
 <path fill="none" stroke="rgb(179,179,179)" stroke-linejoin="round" d="M 5737,13603 L 5737,13453"/>
 <path fill="none" stroke="rgb(179,179,179)" stroke-linejoin="round" d="M 6863,13603 L 6863,13453"/>
 <path fill="none" stroke="rgb(179,179,179)" stroke-linejoin="round" d="M 6863,13603 L 6863,13453"/>
 <path fill="none" stroke="rgb(179,179,179)" stroke-linejoin="round" d="M 7989,13603 L 7989,13453"/>
 <path fill="none" stroke="rgb(179,179,179)" stroke-linejoin="round" d="M 7989,13603 L 7989,13453"/>
 <path fill="none" stroke="rgb(179,179,179)" stroke-linejoin="round" d="M 9114,13603 L 9114,13453"/>
 <path fill="none" stroke="rgb(179,179,179)" stroke-linejoin="round" d="M 9114,13603 L 9114,13453"/>
 <path fill="none" stroke="rgb(179,179,179)" stroke-linejoin="round" d="M 10240,13603 L 10240,13453"/>
 <path fill="none" stroke="rgb(179,179,179)" stroke-linejoin="round" d="M 10240,13603 L 10240,13453"/>
 <path fill="none" stroke="rgb(179,179,179)" stroke-linejoin="round" d="M 11366,13603 L 11366,13453"/>
 <path fill="none" stroke="rgb(179,179,179)" stroke-linejoin="round" d="M 11366,13603 L 11366,13453"/>
 <path fill="none" stroke="rgb(179,179,179)" stroke-linejoin="round" d="M 12490,13603 L 12490,13453"/>
 <path fill="none" stroke="rgb(179,179,179)" stroke-linejoin="round" d="M 12490,13603 L 12490,13453"/>
 <path fill="none" stroke="rgb(179,179,179)" stroke-linejoin="round" d="M 13616,13603 L 13616,13453"/>
 <path fill="none" stroke="rgb(179,179,179)" stroke-linejoin="round" d="M 13616,13603 L 13616,13453"/>
 <path fill="none" stroke="rgb(179,179,179)" stroke-linejoin="round" d="M 14742,13603 L 14742,13453"/>
 <path fill="none" stroke="rgb(179,179,179)" stroke-linejoin="round" d="M 14742,13603 L 14742,13453"/>
 <path fill="none" stroke="rgb(179,179,179)" stroke-linejoin="round" d="M 15867,13603 L 15867,13453"/>
 <path fill="none" stroke="rgb(179,179,179)" stroke-linejoin="round" d="M 15867,13603 L 15867,13453"/>
 <path fill="none" stroke="rgb(179,179,179)" stroke-linejoin="round" d="M 16993,13603 L 16993,13453"/>
 <path fill="none" stroke="rgb(179,179,179)" stroke-linejoin="round" d="M 16993,13603 L 16993,13453"/>
 <path fill="none" stroke="rgb(179,179,179)" stroke-linejoin="round" d="M 18119,13603 L 18119,13453"/>
 <path fill="none" stroke="rgb(179,179,179)" stroke-linejoin="round" d="M 18119,13603 L 18119,13453"/>
 <path fill="none" stroke="rgb(179,179,179)" stroke-linejoin="round" d="M 19244,13603 L 19244,13453"/>
 <path fill="none" stroke="rgb(179,179,179)" stroke-linejoin="round" d="M 19244,13603 L 19244,13453"/>
 <path fill="none" stroke="rgb(179,179,179)" stroke-linejoin="round" d="M 20370,13603 L 20370,13453"/>
 <path fill="none" stroke="rgb(179,179,179)" stroke-linejoin="round" d="M 20370,13603 L 20370,13453"/>
 <path fill="none" stroke="rgb(179,179,179)" stroke-linejoin="round" d="M 21496,13603 L 21496,13453"/>
 <path fill="none" stroke="rgb(179,179,179)" stroke-linejoin="round" d="M 21496,13603 L 21496,13453"/>
 <path fill="none" stroke="rgb(179,179,179)" stroke-linejoin="round" d="M 22621,13603 L 22621,13453"/>
 <path fill="none" stroke="rgb(179,179,179)" stroke-linejoin="round" d="M 22621,13603 L 22621,13453"/>
 <path fill="none" stroke="rgb(179,179,179)" stroke-linejoin="round" d="M 1235,13453 L 22621,13453"/>
 <path fill="none" stroke="rgb(179,179,179)" stroke-linejoin="round" d="M 1085,13453 L 1235,13453"/>
 <path fill="none" stroke="rgb(179,179,179)" stroke-linejoin="round" d="M 1085,13453 L 1235,13453"/>
 <path fill="none" stroke="rgb(179,179,179)" stroke-linejoin="round" d="M 1085,11820 L 1235,11820"/>
 <path fill="none" stroke="rgb(179,179,179)" stroke-linejoin="round" d="M 1085,11820 L 1235,11820"/>
 <path fill="none" stroke="rgb(179,179,179)" stroke-linejoin="round" d="M 1085,10187 L 1235,10187"/>
 <path fill="none" stroke="rgb(179,179,179)" stroke-linejoin="round" d="M 1085,10187 L 1235,10187"/>
 <path fill="none" stroke="rgb(179,179,179)" stroke-linejoin="round" d="M 1085,8555 L 1235,8555"/>
 <path fill="none" stroke="rgb(179,179,179)" stroke-linejoin="round" d="M 1085,8555 L 1235,8555"/>
 <path fill="none" stroke="rgb(179,179,179)" stroke-linejoin="round" d="M 1085,6923 L 1235,6923"/>
 <path fill="none" stroke="rgb(179,179,179)" stroke-linejoin="round" d="M 1085,6923 L 1235,6923"/>
 <path fill="none" stroke="rgb(179,179,179)" stroke-linejoin="round" d="M 1085,5290 L 1235,5290"/>
 <path fill="none" stroke="rgb(179,179,179)" stroke-linejoin="round" d="M 1085,5290 L 1235,5290"/>
 <path fill="none" stroke="rgb(179,179,179)" stroke-linejoin="round" d="M 1085,3658 L 1235,3658"/>
 <path fill="none" stroke="rgb(179,179,179)" stroke-linejoin="round" d="M 1085,3658 L 1235,3658"/>
 <path fill="none" stroke="rgb(179,179,179)" stroke-linejoin="round" d="M 1085,2025 L 1235,2025"/>
 <path fill="none" stroke="rgb(179,179,179)" stroke-linejoin="round" d="M 1085,2025 L 1235,2025"/>
 <path fill="none" stroke="rgb(179,179,179)" stroke-linejoin="round" d="M 1235,13453 L 1235,1209"/>
 <path fill="none" stroke="rgb(179,179,179)" stroke-linejoin="round" d="M 22771,13453 L 22621,13453"/>
 <path fill="none" stroke="rgb(179,179,179)" stroke-linejoin="round" d="M 22771,13453 L 22621,13453"/>
 <path fill="none" stroke="rgb(179,179,179)" stroke-linejoin="round" d="M 22771,11820 L 22621,11820"/>
 <path fill="none" stroke="rgb(179,179,179)" stroke-linejoin="round" d="M 22771,11820 L 22621,11820"/>
 <path fill="none" stroke="rgb(179,179,179)" stroke-linejoin="round" d="M 22771,10187 L 22621,10187"/>
 <path fill="none" stroke="rgb(179,179,179)" stroke-linejoin="round" d="M 22771,10187 L 22621,10187"/>
 <path fill="none" stroke="rgb(179,179,179)" stroke-linejoin="round" d="M 22771,8555 L 22621,8555"/>
 <path fill="none" stroke="rgb(179,179,179)" stroke-linejoin="round" d="M 22771,8555 L 22621,8555"/>
 <path fill="none" stroke="rgb(179,179,179)" stroke-linejoin="round" d="M 22771,6923 L 22621,6923"/>
 <path fill="none" stroke="rgb(179,179,179)" stroke-linejoin="round" d="M 22771,6923 L 22621,6923"/>
 <path fill="none" stroke="rgb(179,179,179)" stroke-linejoin="round" d="M 22771,5290 L 22621,5290"/>
 <path fill="none" stroke="rgb(179,179,179)" stroke-linejoin="round" d="M 22771,5290 L 22621,5290"/>
 <path fill="none" stroke="rgb(179,179,179)" stroke-linejoin="round" d="M 22771,3658 L 22621,3658"/>
 <path fill="none" stroke="rgb(179,179,179)" stroke-linejoin="round" d="M 22771,3658 L 22621,3658"/>
 <path fill="none" stroke="rgb(179,179,179)" stroke-linejoin="round" d="M 22771,2025 L 22621,2025"/>
 <path fill="none" stroke="rgb(179,179,179)" stroke-linejoin="round" d="M 22771,2025 L 22621,2025"/>
 <path fill="none" stroke="rgb(179,179,179)" stroke-linejoin="round" d="M 22621,13453 L 22621,1209"/>
 <path fill="rgb(0,0,0)" stroke="none" d="M 21637,13453 L 21918,13453 21918,13152 21637,13152 21637,13453 Z"/>
 <path fill="rgb(0,0,0)" stroke="none" d="M 20511,13453 L 20792,13453 20792,11944 20511,11944 20511,13453 Z"/>
 <path fill="rgb(0,0,0)" stroke="none" d="M 19385,13453 L 19667,13453 19667,12555 19385,12555 19385,13453 Z"/>
 <path fill="rgb(0,0,0)" stroke="none" d="M 18259,13453 L 18541,13453 18541,13364 18259,13364 18259,13453 Z"/>
 <path fill="rgb(0,0,0)" stroke="none" d="M 16008,13453 L 16290,13453 16290,1675 16008,1675 16008,13453 Z"/>
 <path fill="rgb(0,0,0)" stroke="none" d="M 14882,13453 L 15164,13453 15164,12946 14882,12946 14882,13453 Z"/>
 <path fill="rgb(0,0,0)" stroke="none" d="M 13757,13453 L 14038,13453 14038,12701 13757,12701 13757,13453 Z"/>
 <path fill="rgb(0,0,0)" stroke="none" d="M 12631,13453 L 12912,13453 12912,11510 12631,11510 12631,13453 Z"/>
 <path fill="rgb(0,0,0)" stroke="none" d="M 11506,13453 L 11788,13453 11788,13435 11506,13435 11506,13453 Z"/>
 <path fill="rgb(0,0,0)" stroke="none" d="M 10381,13453 L 10662,13453 10662,7831 10381,7831 10381,13453 Z"/>
 <path fill="rgb(0,0,0)" stroke="none" d="M 9255,13453 L 9536,13453 9536,8721 9255,8721 9255,13453 Z"/>
 <path fill="rgb(0,0,0)" stroke="none" d="M 8129,13453 L 8411,13453 8411,7824 8129,7824 8129,13453 Z"/>
 <path fill="rgb(0,0,0)" stroke="none" d="M 7004,13453 L 7285,13453 7285,13273 7004,13273 7004,13453 Z"/>
 <path fill="rgb(0,0,0)" stroke="none" d="M 5878,13453 L 6159,13453 6159,13319 5878,13319 5878,13453 Z"/>
 <path fill="rgb(0,0,0)" stroke="none" d="M 4752,13453 L 5034,13453 5034,13351 4752,13351 4752,13453 Z"/>
 <path fill="rgb(0,0,0)" stroke="none" d="M 3627,13453 L 3908,13453 3908,13230 3627,13230 3627,13453 Z"/>
 <path fill="rgb(0,0,0)" stroke="none" d="M 2501,13453 L 2782,13453 2782,12385 2501,12385 2501,13453 Z"/>
 <path fill="rgb(0,0,0)" stroke="none" d="M 1375,13453 L 1657,13453 1657,12473 1375,12473 1375,13453 Z"/>
 <path fill="rgb(255,191,0)" stroke="none" d="M 21918,13453 L 22199,13453 22199,13144 21918,13144 21918,13453 Z"/>
 <path fill="rgb(255,191,0)" stroke="none" d="M 20792,13453 L 21074,13453 21074,12303 20792,12303 20792,13453 Z"/>
 <path fill="rgb(255,191,0)" stroke="none" d="M 19667,13453 L 19948,13453 19948,13069 19667,13069 19667,13453 Z"/>
 <path fill="rgb(255,191,0)" stroke="none" d="M 18541,13453 L 18822,13453 18822,13381 18541,13381 18541,13453 Z"/>
 <path fill="rgb(255,191,0)" stroke="none" d="M 16290,13453 L 16571,13453 16571,4368 16290,4368 16290,13453 Z"/>
 <path fill="rgb(255,191,0)" stroke="none" d="M 15164,13453 L 15445,13453 15445,13134 15164,13134 15164,13453 Z"/>
 <path fill="rgb(255,191,0)" stroke="none" d="M 14038,13453 L 14320,13453 14320,12958 14038,12958 14038,13453 Z"/>
 <path fill="rgb(255,191,0)" stroke="none" d="M 12912,13453 L 13194,13453 13194,12084 12912,12084 12912,13453 Z"/>
 <path fill="rgb(255,191,0)" stroke="none" d="M 11788,13453 L 12068,13453 12068,13453 11788,13453 Z"/>
 <path fill="rgb(255,191,0)" stroke="none" d="M 10662,13453 L 10944,13453 10944,7989 10662,7989 10662,13453 Z"/>
 <path fill="rgb(255,191,0)" stroke="none" d="M 9536,13453 L 9818,13453 9818,11306 9536,11306 9536,13453 Z"/>
 <path fill="rgb(255,191,0)" stroke="none" d="M 8411,13453 L 8692,13453 8692,10597 8411,10597 8411,13453 Z"/>
 <path fill="rgb(255,191,0)" stroke="none" d="M 7285,13453 L 7566,13453 7566,13301 7285,13301 7285,13453 Z"/>
 <path fill="rgb(255,191,0)" stroke="none" d="M 6159,13453 L 6441,13453 6441,13377 6159,13377 6159,13453 Z"/>
 <path fill="rgb(255,191,0)" stroke="none" d="M 5034,13453 L 5315,13453 5315,13418 5034,13418 5034,13453 Z"/>
 <path fill="rgb(255,191,0)" stroke="none" d="M 3908,13453 L 4189,13453 4189,13366 3908,13366 3908,13453 Z"/>
 <path fill="rgb(255,191,0)" stroke="none" d="M 2782,13453 L 3064,13453 3064,12701 2782,12701 2782,13453 Z"/>
 <path fill="rgb(255,191,0)" stroke="none" d="M 1657,13453 L 1938,13453 1938,12806 1657,12806 1657,13453 Z"/>
 <path fill="rgb(255,0,0)" stroke="none" d="M 22199,13453 L 22481,13453 22481,13088 22199,13088 22199,13453 Z"/>
 <path fill="rgb(255,0,0)" stroke="none" d="M 21074,13453 L 21355,13453 21355,12096 21074,12096 21074,13453 Z"/>
 <path fill="rgb(255,0,0)" stroke="none" d="M 19948,13453 L 20229,13453 20229,13062 19948,13062 19948,13453 Z"/>
 <path fill="rgb(255,0,0)" stroke="none" d="M 18822,13453 L 19104,13453 19104,13288 18822,13288 18822,13453 Z"/>
 <path fill="rgb(255,0,0)" stroke="none" d="M 17697,13453 L 17978,13453 17978,13449 17697,13449 17697,13453 Z"/>
 <path fill="rgb(255,0,0)" stroke="none" d="M 16571,13453 L 16852,13453 16852,2967 16571,2967 16571,13453 Z"/>
 <path fill="rgb(255,0,0)" stroke="none" d="M 15445,13453 L 15727,13453 15727,12989 15445,12989 15445,13453 Z"/>
 <path fill="rgb(255,0,0)" stroke="none" d="M 14320,13453 L 14601,13453 14601,12928 14320,12928 14320,13453 Z"/>
 <path fill="rgb(255,0,0)" stroke="none" d="M 13194,13453 L 13475,13453 13475,12022 13194,12022 13194,13453 Z"/>
 <path fill="rgb(255,0,0)" stroke="none" d="M 12068,13453 L 12350,13453 12350,13446 12068,13446 12068,13453 Z"/>
 <path fill="rgb(255,0,0)" stroke="none" d="M 10944,13453 L 11225,13453 11225,7677 10944,7677 10944,13453 Z"/>
 <path fill="rgb(255,0,0)" stroke="none" d="M 9818,13453 L 10099,13453 10099,11390 9818,11390 9818,13453 Z"/>
 <path fill="rgb(255,0,0)" stroke="none" d="M 8692,13453 L 8974,13453 8974,10798 8692,10798 8692,13453 Z"/>
 <path fill="rgb(255,0,0)" stroke="none" d="M 7566,13453 L 7848,13453 7848,13261 7566,13261 7566,13453 Z"/>
 <path fill="rgb(255,0,0)" stroke="none" d="M 6441,13453 L 6722,13453 6722,13296 6441,13296 6441,13453 Z"/>
 <path fill="rgb(255,0,0)" stroke="none" d="M 5315,13453 L 5597,13453 5597,13261 5315,13261 5315,13453 Z"/>
 <path fill="rgb(255,0,0)" stroke="none" d="M 4189,13453 L 4471,13453 4471,13209 4189,13209 4189,13453 Z"/>
 <path fill="rgb(255,0,0)" stroke="none" d="M 3064,13453 L 3345,13453 3345,12695 3064,12695 3064,13453 Z"/>
 <path fill="rgb(255,0,0)" stroke="none" d="M 1938,13453 L 2219,13453 2219,12122 1938,12122 1938,13453 Z"/>
 <text class="TextShape" transform="rotate(-44.9 682 15180)"><tspan class="TextParagraph" font-family="Liberation Sans, sans-serif" font-size="388px" font-weight="400"><tspan class="TextPosition" x="682" y="15180"><tspan fill="rgb(0,0,0)" stroke="none">Andalucía</tspan></tspan></tspan></text>
 <text class="TextShape" transform="rotate(-44.9 2145 14844)"><tspan class="TextParagraph" font-family="Liberation Sans, sans-serif" font-size="388px" font-weight="400"><tspan class="TextPosition" x="2145" y="14844"><tspan fill="rgb(0,0,0)" stroke="none">Aragón</tspan></tspan></tspan></text>
 <text class="TextShape" transform="rotate(-44.9 3065 15050)"><tspan class="TextParagraph" font-family="Liberation Sans, sans-serif" font-size="388px" font-weight="400"><tspan class="TextPosition" x="3065" y="15050"><tspan fill="rgb(0,0,0)" stroke="none">Asturias </tspan></tspan></tspan></text>
 <text class="TextShape" transform="rotate(-44.9 4190 15050)"><tspan class="TextParagraph" font-family="Liberation Sans, sans-serif" font-size="388px" font-weight="400"><tspan class="TextPosition" x="4190" y="15050"><tspan fill="rgb(0,0,0)" stroke="none">Baleares</tspan></tspan></tspan></text>
 <text class="TextShape" transform="rotate(-44.9 5297 15068)"><tspan class="TextParagraph" font-family="Liberation Sans, sans-serif" font-size="388px" font-weight="400"><tspan class="TextPosition" x="5297" y="15068"><tspan fill="rgb(0,0,0)" stroke="none">Canarias</tspan></tspan></tspan></text>
 <text class="TextShape" transform="rotate(-44.9 6348 15144)"><tspan class="TextParagraph" font-family="Liberation Sans, sans-serif" font-size="388px" font-weight="400"><tspan class="TextPosition" x="6348" y="15144"><tspan fill="rgb(0,0,0)" stroke="none">Cantabria</tspan></tspan></tspan></text>
 <text class="TextShape" transform="rotate(-44.9 6950 15667)"><tspan class="TextParagraph" font-family="Liberation Sans, sans-serif" font-size="388px" font-weight="400"><tspan class="TextPosition" x="6950" y="15667"><tspan fill="rgb(0,0,0)" stroke="none">C–La Mancha</tspan></tspan></tspan></text>
 <text class="TextShape" transform="rotate(-44.9 7982 15760)"><tspan class="TextParagraph" font-family="Liberation Sans, sans-serif" font-size="388px" font-weight="400"><tspan class="TextPosition" x="7982" y="15760"><tspan fill="rgb(0,0,0)" stroke="none">Castilla y León</tspan></tspan></tspan></text>
 <text class="TextShape" transform="rotate(-44.9 9819 15050)"><tspan class="TextParagraph" font-family="Liberation Sans, sans-serif" font-size="388px" font-weight="400"><tspan class="TextPosition" x="9819" y="15050"><tspan fill="rgb(0,0,0)" stroke="none">Cataluña</tspan></tspan></tspan></text>
 <text class="TextShape" transform="rotate(-44.9 11299 14694)"><tspan class="TextParagraph" font-family="Liberation Sans, sans-serif" font-size="388px" font-weight="400"><tspan class="TextPosition" x="11299" y="14694"><tspan fill="rgb(0,0,0)" stroke="none">Ceuta</tspan></tspan></tspan></text>
 <text class="TextShape" transform="rotate(-44.9 11453 15667)"><tspan class="TextParagraph" font-family="Liberation Sans, sans-serif" font-size="388px" font-weight="400"><tspan class="TextPosition" x="11453" y="15667"><tspan fill="rgb(0,0,0)" stroke="none">C. Valenciana</tspan></tspan></tspan></text>
 <text class="TextShape" transform="rotate(-44.9 12708 15536)"><tspan class="TextParagraph" font-family="Liberation Sans, sans-serif" font-size="388px" font-weight="400"><tspan class="TextPosition" x="12708" y="15536"><tspan fill="rgb(0,0,0)" stroke="none">Extremadura</tspan></tspan></tspan></text>
 <text class="TextShape" transform="rotate(-44.9 14564 14806)"><tspan class="TextParagraph" font-family="Liberation Sans, sans-serif" font-size="388px" font-weight="400"><tspan class="TextPosition" x="14564" y="14806"><tspan fill="rgb(0,0,0)" stroke="none">Galicia</tspan></tspan></tspan></text>
 <text class="TextShape" transform="rotate(-44.9 15708 14788)"><tspan class="TextParagraph" font-family="Liberation Sans, sans-serif" font-size="388px" font-weight="400"><tspan class="TextPosition" x="15708" y="14788"><tspan fill="rgb(0,0,0)" stroke="none">Madrid</tspan></tspan></tspan></text>
 <text class="TextShape" transform="rotate(-44.9 16909 14712)"><tspan class="TextParagraph" font-family="Liberation Sans, sans-serif" font-size="388px" font-weight="400"><tspan class="TextPosition" x="16909" y="14712"><tspan fill="rgb(0,0,0)" stroke="none">Melilla</tspan></tspan></tspan></text>
 <text class="TextShape" transform="rotate(-44.9 17960 14788)"><tspan class="TextParagraph" font-family="Liberation Sans, sans-serif" font-size="388px" font-weight="400"><tspan class="TextPosition" x="17960" y="14788"><tspan fill="rgb(0,0,0)" stroke="none">Murcia</tspan></tspan></tspan></text>
 <text class="TextShape" transform="rotate(-44.9 18917 14956)"><tspan class="TextParagraph" font-family="Liberation Sans, sans-serif" font-size="388px" font-weight="400"><tspan class="TextPosition" x="18917" y="14956"><tspan fill="rgb(0,0,0)" stroke="none">Navarra</tspan></tspan></tspan></text>
 <text class="TextShape" transform="rotate(-44.9 19612 15386)"><tspan class="TextParagraph" font-family="Liberation Sans, sans-serif" font-size="388px" font-weight="400"><tspan class="TextPosition" x="19612" y="15386"><tspan fill="rgb(0,0,0)" stroke="none">País Vasco</tspan></tspan></tspan></text>
 <text class="TextShape" transform="rotate(-44.9 21169 14956)"><tspan class="TextParagraph" font-family="Liberation Sans, sans-serif" font-size="388px" font-weight="400"><tspan class="TextPosition" x="21169" y="14956"><tspan fill="rgb(0,0,0)" stroke="none">La Rioja</tspan></tspan></tspan></text>
 <text class="TextShape"><tspan class="TextParagraph" font-family="Liberation Sans, sans-serif" font-size="353px" font-weight="400"><tspan class="TextPosition" x="800" y="13574"><tspan fill="rgb(0,0,0)" stroke="none">0</tspan></tspan></tspan></text>
 <text class="TextShape"><tspan class="TextParagraph" font-family="Liberation Sans, sans-serif" font-size="353px" font-weight="400"><tspan class="TextPosition" x="244" y="11941"><tspan fill="rgb(0,0,0)" stroke="none">1000</tspan></tspan></tspan></text>
 <text class="TextShape"><tspan class="TextParagraph" font-family="Liberation Sans, sans-serif" font-size="353px" font-weight="400"><tspan class="TextPosition" x="244" y="10308"><tspan fill="rgb(0,0,0)" stroke="none">2000</tspan></tspan></tspan></text>
 <text class="TextShape"><tspan class="TextParagraph" font-family="Liberation Sans, sans-serif" font-size="353px" font-weight="400"><tspan class="TextPosition" x="244" y="8676"><tspan fill="rgb(0,0,0)" stroke="none">3000</tspan></tspan></tspan></text>
 <text class="TextShape"><tspan class="TextParagraph" font-family="Liberation Sans, sans-serif" font-size="353px" font-weight="400"><tspan class="TextPosition" x="244" y="7043"><tspan fill="rgb(0,0,0)" stroke="none">4000</tspan></tspan></tspan></text>
 <text class="TextShape"><tspan class="TextParagraph" font-family="Liberation Sans, sans-serif" font-size="353px" font-weight="400"><tspan class="TextPosition" x="244" y="5410"><tspan fill="rgb(0,0,0)" stroke="none">5000</tspan></tspan></tspan></text>
 <text class="TextShape"><tspan class="TextParagraph" font-family="Liberation Sans, sans-serif" font-size="353px" font-weight="400"><tspan class="TextPosition" x="244" y="3778"><tspan fill="rgb(0,0,0)" stroke="none">6000</tspan></tspan></tspan></text>
 <text class="TextShape"><tspan class="TextParagraph" font-family="Liberation Sans, sans-serif" font-size="353px" font-weight="400"><tspan class="TextPosition" x="244" y="2145"><tspan fill="rgb(0,0,0)" stroke="none">7000</tspan></tspan></tspan></text>
 <text class="TextShape"><tspan class="TextParagraph" font-family="Liberation Sans, sans-serif" font-size="353px" font-weight="400"><tspan class="TextPosition" x="22871" y="13574"><tspan fill="rgb(0,0,0)" stroke="none">0</tspan></tspan></tspan></text>
 <text class="TextShape"><tspan class="TextParagraph" font-family="Liberation Sans, sans-serif" font-size="353px" font-weight="400"><tspan class="TextPosition" x="22871" y="11941"><tspan fill="rgb(0,0,0)" stroke="none">1000</tspan></tspan></tspan></text>
 <text class="TextShape"><tspan class="TextParagraph" font-family="Liberation Sans, sans-serif" font-size="353px" font-weight="400"><tspan class="TextPosition" x="22871" y="10308"><tspan fill="rgb(0,0,0)" stroke="none">2000</tspan></tspan></tspan></text>
 <text class="TextShape"><tspan class="TextParagraph" font-family="Liberation Sans, sans-serif" font-size="353px" font-weight="400"><tspan class="TextPosition" x="22871" y="8676"><tspan fill="rgb(0,0,0)" stroke="none">3000</tspan></tspan></tspan></text>
 <text class="TextShape"><tspan class="TextParagraph" font-family="Liberation Sans, sans-serif" font-size="353px" font-weight="400"><tspan class="TextPosition" x="22871" y="7043"><tspan fill="rgb(0,0,0)" stroke="none">4000</tspan></tspan></tspan></text>
 <text class="TextShape"><tspan class="TextParagraph" font-family="Liberation Sans, sans-serif" font-size="353px" font-weight="400"><tspan class="TextPosition" x="22871" y="5410"><tspan fill="rgb(0,0,0)" stroke="none">5000</tspan></tspan></tspan></text>
 <text class="TextShape"><tspan class="TextParagraph" font-family="Liberation Sans, sans-serif" font-size="353px" font-weight="400"><tspan class="TextPosition" x="22871" y="3778"><tspan fill="rgb(0,0,0)" stroke="none">6000</tspan></tspan></tspan></text>
 <text class="TextShape"><tspan class="TextParagraph" font-family="Liberation Sans, sans-serif" font-size="353px" font-weight="400"><tspan class="TextPosition" x="22871" y="2145"><tspan fill="rgb(0,0,0)" stroke="none">7000</tspan></tspan></tspan></text>
 <text class="TextShape"><tspan class="TextParagraph" font-family="Liberation Sans, sans-serif" font-size="459px" font-weight="400"><tspan class="TextPosition" x="6536" y="626"><tspan fill="rgb(0,0,0)" stroke="none">Muertes MoMo / Covid-19 por CCAA (MoMo 16/04/20)</tspan></tspan></tspan></text>
 <path fill="rgb(0,0,0)" stroke="none" d="M 2977,3894 L 2872,3894 2872,3683 3083,3683 3083,3894 2977,3894 Z"/>
 <path fill="rgb(255,191,0)" stroke="none" d="M 2977,4781 L 2872,4781 2872,4570 3083,4570 3083,4781 2977,4781 Z"/>
 <path fill="rgb(255,0,0)" stroke="none" d="M 2977,5668 L 2872,5668 2872,5457 3083,5457 3083,5668 2977,5668 Z"/>
 <text class="TextShape"><tspan class="TextParagraph" font-family="Liberation Sans, sans-serif" font-size="353px" font-weight="400"><tspan class="TextPosition" x="3183" y="3908"><tspan fill="rgb(0,0,0)" stroke="none">MoMo (parcial)</tspan></tspan></tspan></text>
 <text class="TextShape"><tspan class="TextParagraph" font-family="Liberation Sans, sans-serif" font-size="353px" font-weight="400"><tspan class="TextPosition" x="3183" y="4795"><tspan fill="rgb(0,0,0)" stroke="none">Covid-19 (parcial)</tspan></tspan></tspan></text>
 <text class="TextShape"><tspan class="TextParagraph" font-family="Liberation Sans, sans-serif" font-size="353px" font-weight="400"><tspan class="TextPosition" x="3183" y="5682"><tspan fill="rgb(0,0,0)" stroke="none">Covid-19 (total)</tspan></tspan></tspan></text>
</svg>