<?xml version="1.0" encoding="UTF-8"?>
<!DOCTYPE svg PUBLIC "-//W3C//DTD SVG 1.1//EN" "http://www.w3.org/Graphics/SVG/1.1/DTD/svg11.dtd">
<svg width="160mm" height="120mm" viewBox="0 0 16000 12000" version="1.1" xmlns="http://www.w3.org/2000/svg" stroke-width="28.222" stroke-linejoin="round" xml:space="preserve">
 <path fill="rgb(255,255,255)" stroke="none" d="M 8001,12002 L 0,12002 0,0 16002,0 16002,12002 8001,12002 Z"/>
 <path fill="none" stroke="rgb(179,179,179)" stroke-linejoin="round" d="M 8004,10702 L 1321,10702 1321,1095 14688,1095 14688,10702 8004,10702 Z"/>
 <path fill="none" stroke="rgb(0,0,0)" stroke-linejoin="round" d="M 14688,10701 L 1321,10701"/>
 <path fill="none" stroke="rgb(0,0,0)" stroke-linejoin="round" d="M 14688,9740 L 1321,9740"/>
 <path fill="none" stroke="rgb(0,0,0)" stroke-linejoin="round" d="M 14688,8779 L 1321,8779"/>
 <path fill="none" stroke="rgb(0,0,0)" stroke-linejoin="round" d="M 14688,7818 L 1321,7818"/>
 <path fill="none" stroke="rgb(0,0,0)" stroke-linejoin="round" d="M 14688,6857 L 1321,6857"/>
 <path fill="none" stroke="rgb(0,0,0)" stroke-linejoin="round" d="M 14688,5898 L 1321,5898"/>
 <path fill="none" stroke="rgb(0,0,0)" stroke-linejoin="round" d="M 14688,4937 L 1321,4937"/>
 <path fill="none" stroke="rgb(0,0,0)" stroke-linejoin="round" d="M 14688,3976 L 1321,3976"/>
 <path fill="none" stroke="rgb(0,0,0)" stroke-linejoin="round" d="M 14688,3015 L 1321,3015"/>
 <path fill="none" stroke="rgb(0,0,0)" stroke-linejoin="round" d="M 14688,2054 L 1321,2054"/>
 <path fill="none" stroke="rgb(0,0,0)" stroke-linejoin="round" d="M 14688,1094 L 1321,1094"/>
 <path fill="none" stroke="rgb(0,0,0)" stroke-linejoin="round" d="M 1321,10851 L 1321,10701"/>
 <path fill="none" stroke="rgb(0,0,0)" stroke-linejoin="round" d="M 1321,10851 L 1321,10701"/>
 <path fill="none" stroke="rgb(0,0,0)" stroke-linejoin="round" d="M 1457,10851 L 1457,10701"/>
 <path fill="none" stroke="rgb(0,0,0)" stroke-linejoin="round" d="M 1457,10851 L 1457,10701"/>
 <path fill="none" stroke="rgb(0,0,0)" stroke-linejoin="round" d="M 1593,10851 L 1593,10701"/>
 <path fill="none" stroke="rgb(0,0,0)" stroke-linejoin="round" d="M 1593,10851 L 1593,10701"/>
 <path fill="none" stroke="rgb(0,0,0)" stroke-linejoin="round" d="M 1730,10851 L 1730,10701"/>
 <path fill="none" stroke="rgb(0,0,0)" stroke-linejoin="round" d="M 1730,10851 L 1730,10701"/>
 <path fill="none" stroke="rgb(0,0,0)" stroke-linejoin="round" d="M 1866,10851 L 1866,10701"/>
 <path fill="none" stroke="rgb(0,0,0)" stroke-linejoin="round" d="M 1866,10851 L 1866,10701"/>
 <path fill="none" stroke="rgb(0,0,0)" stroke-linejoin="round" d="M 2003,10851 L 2003,10701"/>
 <path fill="none" stroke="rgb(0,0,0)" stroke-linejoin="round" d="M 2003,10851 L 2003,10701"/>
 <path fill="none" stroke="rgb(0,0,0)" stroke-linejoin="round" d="M 2139,10851 L 2139,10701"/>
 <path fill="none" stroke="rgb(0,0,0)" stroke-linejoin="round" d="M 2139,10851 L 2139,10701"/>
 <path fill="none" stroke="rgb(0,0,0)" stroke-linejoin="round" d="M 2275,10851 L 2275,10701"/>
 <path fill="none" stroke="rgb(0,0,0)" stroke-linejoin="round" d="M 2275,10851 L 2275,10701"/>
 <path fill="none" stroke="rgb(0,0,0)" stroke-linejoin="round" d="M 2412,10851 L 2412,10701"/>
 <path fill="none" stroke="rgb(0,0,0)" stroke-linejoin="round" d="M 2412,10851 L 2412,10701"/>
 <path fill="none" stroke="rgb(0,0,0)" stroke-linejoin="round" d="M 2548,10851 L 2548,10701"/>
 <path fill="none" stroke="rgb(0,0,0)" stroke-linejoin="round" d="M 2548,10851 L 2548,10701"/>
 <path fill="none" stroke="rgb(0,0,0)" stroke-linejoin="round" d="M 2685,10851 L 2685,10701"/>
 <path fill="none" stroke="rgb(0,0,0)" stroke-linejoin="round" d="M 2685,10851 L 2685,10701"/>
 <path fill="none" stroke="rgb(0,0,0)" stroke-linejoin="round" d="M 2821,10851 L 2821,10701"/>
 <path fill="none" stroke="rgb(0,0,0)" stroke-linejoin="round" d="M 2821,10851 L 2821,10701"/>
 <path fill="none" stroke="rgb(0,0,0)" stroke-linejoin="round" d="M 2957,10851 L 2957,10701"/>
 <path fill="none" stroke="rgb(0,0,0)" stroke-linejoin="round" d="M 2957,10851 L 2957,10701"/>
 <path fill="none" stroke="rgb(0,0,0)" stroke-linejoin="round" d="M 3094,10851 L 3094,10701"/>
 <path fill="none" stroke="rgb(0,0,0)" stroke-linejoin="round" d="M 3094,10851 L 3094,10701"/>
 <path fill="none" stroke="rgb(0,0,0)" stroke-linejoin="round" d="M 3230,10851 L 3230,10701"/>
 <path fill="none" stroke="rgb(0,0,0)" stroke-linejoin="round" d="M 3230,10851 L 3230,10701"/>
 <path fill="none" stroke="rgb(0,0,0)" stroke-linejoin="round" d="M 3367,10851 L 3367,10701"/>
 <path fill="none" stroke="rgb(0,0,0)" stroke-linejoin="round" d="M 3367,10851 L 3367,10701"/>
 <path fill="none" stroke="rgb(0,0,0)" stroke-linejoin="round" d="M 3503,10851 L 3503,10701"/>
 <path fill="none" stroke="rgb(0,0,0)" stroke-linejoin="round" d="M 3503,10851 L 3503,10701"/>
 <path fill="none" stroke="rgb(0,0,0)" stroke-linejoin="round" d="M 3639,10851 L 3639,10701"/>
 <path fill="none" stroke="rgb(0,0,0)" stroke-linejoin="round" d="M 3639,10851 L 3639,10701"/>
 <path fill="none" stroke="rgb(0,0,0)" stroke-linejoin="round" d="M 3776,10851 L 3776,10701"/>
 <path fill="none" stroke="rgb(0,0,0)" stroke-linejoin="round" d="M 3776,10851 L 3776,10701"/>
 <path fill="none" stroke="rgb(0,0,0)" stroke-linejoin="round" d="M 3912,10851 L 3912,10701"/>
 <path fill="none" stroke="rgb(0,0,0)" stroke-linejoin="round" d="M 3912,10851 L 3912,10701"/>
 <path fill="none" stroke="rgb(0,0,0)" stroke-linejoin="round" d="M 4049,10851 L 4049,10701"/>
 <path fill="none" stroke="rgb(0,0,0)" stroke-linejoin="round" d="M 4049,10851 L 4049,10701"/>
 <path fill="none" stroke="rgb(0,0,0)" stroke-linejoin="round" d="M 4185,10851 L 4185,10701"/>
 <path fill="none" stroke="rgb(0,0,0)" stroke-linejoin="round" d="M 4185,10851 L 4185,10701"/>
 <path fill="none" stroke="rgb(0,0,0)" stroke-linejoin="round" d="M 4321,10851 L 4321,10701"/>
 <path fill="none" stroke="rgb(0,0,0)" stroke-linejoin="round" d="M 4321,10851 L 4321,10701"/>
 <path fill="none" stroke="rgb(0,0,0)" stroke-linejoin="round" d="M 4458,10851 L 4458,10701"/>
 <path fill="none" stroke="rgb(0,0,0)" stroke-linejoin="round" d="M 4458,10851 L 4458,10701"/>
 <path fill="none" stroke="rgb(0,0,0)" stroke-linejoin="round" d="M 4594,10851 L 4594,10701"/>
 <path fill="none" stroke="rgb(0,0,0)" stroke-linejoin="round" d="M 4594,10851 L 4594,10701"/>
 <path fill="none" stroke="rgb(0,0,0)" stroke-linejoin="round" d="M 4731,10851 L 4731,10701"/>
 <path fill="none" stroke="rgb(0,0,0)" stroke-linejoin="round" d="M 4731,10851 L 4731,10701"/>
 <path fill="none" stroke="rgb(0,0,0)" stroke-linejoin="round" d="M 4867,10851 L 4867,10701"/>
 <path fill="none" stroke="rgb(0,0,0)" stroke-linejoin="round" d="M 4867,10851 L 4867,10701"/>
 <path fill="none" stroke="rgb(0,0,0)" stroke-linejoin="round" d="M 5004,10851 L 5004,10701"/>
 <path fill="none" stroke="rgb(0,0,0)" stroke-linejoin="round" d="M 5004,10851 L 5004,10701"/>
 <path fill="none" stroke="rgb(0,0,0)" stroke-linejoin="round" d="M 5140,10851 L 5140,10701"/>
 <path fill="none" stroke="rgb(0,0,0)" stroke-linejoin="round" d="M 5140,10851 L 5140,10701"/>
 <path fill="none" stroke="rgb(0,0,0)" stroke-linejoin="round" d="M 5276,10851 L 5276,10701"/>
 <path fill="none" stroke="rgb(0,0,0)" stroke-linejoin="round" d="M 5276,10851 L 5276,10701"/>
 <path fill="none" stroke="rgb(0,0,0)" stroke-linejoin="round" d="M 5413,10851 L 5413,10701"/>
 <path fill="none" stroke="rgb(0,0,0)" stroke-linejoin="round" d="M 5413,10851 L 5413,10701"/>
 <path fill="none" stroke="rgb(0,0,0)" stroke-linejoin="round" d="M 5549,10851 L 5549,10701"/>
 <path fill="none" stroke="rgb(0,0,0)" stroke-linejoin="round" d="M 5549,10851 L 5549,10701"/>
 <path fill="none" stroke="rgb(0,0,0)" stroke-linejoin="round" d="M 5686,10851 L 5686,10701"/>
 <path fill="none" stroke="rgb(0,0,0)" stroke-linejoin="round" d="M 5686,10851 L 5686,10701"/>
 <path fill="none" stroke="rgb(0,0,0)" stroke-linejoin="round" d="M 5822,10851 L 5822,10701"/>
 <path fill="none" stroke="rgb(0,0,0)" stroke-linejoin="round" d="M 5822,10851 L 5822,10701"/>
 <path fill="none" stroke="rgb(0,0,0)" stroke-linejoin="round" d="M 5958,10851 L 5958,10701"/>
 <path fill="none" stroke="rgb(0,0,0)" stroke-linejoin="round" d="M 5958,10851 L 5958,10701"/>
 <path fill="none" stroke="rgb(0,0,0)" stroke-linejoin="round" d="M 6095,10851 L 6095,10701"/>
 <path fill="none" stroke="rgb(0,0,0)" stroke-linejoin="round" d="M 6095,10851 L 6095,10701"/>
 <path fill="none" stroke="rgb(0,0,0)" stroke-linejoin="round" d="M 6231,10851 L 6231,10701"/>
 <path fill="none" stroke="rgb(0,0,0)" stroke-linejoin="round" d="M 6231,10851 L 6231,10701"/>
 <path fill="none" stroke="rgb(0,0,0)" stroke-linejoin="round" d="M 6368,10851 L 6368,10701"/>
 <path fill="none" stroke="rgb(0,0,0)" stroke-linejoin="round" d="M 6368,10851 L 6368,10701"/>
 <path fill="none" stroke="rgb(0,0,0)" stroke-linejoin="round" d="M 6504,10851 L 6504,10701"/>
 <path fill="none" stroke="rgb(0,0,0)" stroke-linejoin="round" d="M 6504,10851 L 6504,10701"/>
 <path fill="none" stroke="rgb(0,0,0)" stroke-linejoin="round" d="M 6640,10851 L 6640,10701"/>
 <path fill="none" stroke="rgb(0,0,0)" stroke-linejoin="round" d="M 6640,10851 L 6640,10701"/>
 <path fill="none" stroke="rgb(0,0,0)" stroke-linejoin="round" d="M 6777,10851 L 6777,10701"/>
 <path fill="none" stroke="rgb(0,0,0)" stroke-linejoin="round" d="M 6777,10851 L 6777,10701"/>
 <path fill="none" stroke="rgb(0,0,0)" stroke-linejoin="round" d="M 6913,10851 L 6913,10701"/>
 <path fill="none" stroke="rgb(0,0,0)" stroke-linejoin="round" d="M 6913,10851 L 6913,10701"/>
 <path fill="none" stroke="rgb(0,0,0)" stroke-linejoin="round" d="M 7050,10851 L 7050,10701"/>
 <path fill="none" stroke="rgb(0,0,0)" stroke-linejoin="round" d="M 7050,10851 L 7050,10701"/>
 <path fill="none" stroke="rgb(0,0,0)" stroke-linejoin="round" d="M 7186,10851 L 7186,10701"/>
 <path fill="none" stroke="rgb(0,0,0)" stroke-linejoin="round" d="M 7186,10851 L 7186,10701"/>
 <path fill="none" stroke="rgb(0,0,0)" stroke-linejoin="round" d="M 7322,10851 L 7322,10701"/>
 <path fill="none" stroke="rgb(0,0,0)" stroke-linejoin="round" d="M 7322,10851 L 7322,10701"/>
 <path fill="none" stroke="rgb(0,0,0)" stroke-linejoin="round" d="M 7459,10851 L 7459,10701"/>
 <path fill="none" stroke="rgb(0,0,0)" stroke-linejoin="round" d="M 7459,10851 L 7459,10701"/>
 <path fill="none" stroke="rgb(0,0,0)" stroke-linejoin="round" d="M 7595,10851 L 7595,10701"/>
 <path fill="none" stroke="rgb(0,0,0)" stroke-linejoin="round" d="M 7595,10851 L 7595,10701"/>
 <path fill="none" stroke="rgb(0,0,0)" stroke-linejoin="round" d="M 7732,10851 L 7732,10701"/>
 <path fill="none" stroke="rgb(0,0,0)" stroke-linejoin="round" d="M 7732,10851 L 7732,10701"/>
 <path fill="none" stroke="rgb(0,0,0)" stroke-linejoin="round" d="M 7868,10851 L 7868,10701"/>
 <path fill="none" stroke="rgb(0,0,0)" stroke-linejoin="round" d="M 7868,10851 L 7868,10701"/>
 <path fill="none" stroke="rgb(0,0,0)" stroke-linejoin="round" d="M 8003,10851 L 8003,10701"/>
 <path fill="none" stroke="rgb(0,0,0)" stroke-linejoin="round" d="M 8003,10851 L 8003,10701"/>
 <path fill="none" stroke="rgb(0,0,0)" stroke-linejoin="round" d="M 8140,10851 L 8140,10701"/>
 <path fill="none" stroke="rgb(0,0,0)" stroke-linejoin="round" d="M 8140,10851 L 8140,10701"/>
 <path fill="none" stroke="rgb(0,0,0)" stroke-linejoin="round" d="M 8276,10851 L 8276,10701"/>
 <path fill="none" stroke="rgb(0,0,0)" stroke-linejoin="round" d="M 8276,10851 L 8276,10701"/>
 <path fill="none" stroke="rgb(0,0,0)" stroke-linejoin="round" d="M 8413,10851 L 8413,10701"/>
 <path fill="none" stroke="rgb(0,0,0)" stroke-linejoin="round" d="M 8413,10851 L 8413,10701"/>
 <path fill="none" stroke="rgb(0,0,0)" stroke-linejoin="round" d="M 8549,10851 L 8549,10701"/>
 <path fill="none" stroke="rgb(0,0,0)" stroke-linejoin="round" d="M 8549,10851 L 8549,10701"/>
 <path fill="none" stroke="rgb(0,0,0)" stroke-linejoin="round" d="M 8686,10851 L 8686,10701"/>
 <path fill="none" stroke="rgb(0,0,0)" stroke-linejoin="round" d="M 8686,10851 L 8686,10701"/>
 <path fill="none" stroke="rgb(0,0,0)" stroke-linejoin="round" d="M 8822,10851 L 8822,10701"/>
 <path fill="none" stroke="rgb(0,0,0)" stroke-linejoin="round" d="M 8822,10851 L 8822,10701"/>
 <path fill="none" stroke="rgb(0,0,0)" stroke-linejoin="round" d="M 8958,10851 L 8958,10701"/>
 <path fill="none" stroke="rgb(0,0,0)" stroke-linejoin="round" d="M 8958,10851 L 8958,10701"/>
 <path fill="none" stroke="rgb(0,0,0)" stroke-linejoin="round" d="M 9095,10851 L 9095,10701"/>
 <path fill="none" stroke="rgb(0,0,0)" stroke-linejoin="round" d="M 9095,10851 L 9095,10701"/>
 <path fill="none" stroke="rgb(0,0,0)" stroke-linejoin="round" d="M 9231,10851 L 9231,10701"/>
 <path fill="none" stroke="rgb(0,0,0)" stroke-linejoin="round" d="M 9231,10851 L 9231,10701"/>
 <path fill="none" stroke="rgb(0,0,0)" stroke-linejoin="round" d="M 9368,10851 L 9368,10701"/>
 <path fill="none" stroke="rgb(0,0,0)" stroke-linejoin="round" d="M 9368,10851 L 9368,10701"/>
 <path fill="none" stroke="rgb(0,0,0)" stroke-linejoin="round" d="M 9504,10851 L 9504,10701"/>
 <path fill="none" stroke="rgb(0,0,0)" stroke-linejoin="round" d="M 9504,10851 L 9504,10701"/>
 <path fill="none" stroke="rgb(0,0,0)" stroke-linejoin="round" d="M 9640,10851 L 9640,10701"/>
 <path fill="none" stroke="rgb(0,0,0)" stroke-linejoin="round" d="M 9640,10851 L 9640,10701"/>
 <path fill="none" stroke="rgb(0,0,0)" stroke-linejoin="round" d="M 9777,10851 L 9777,10701"/>
 <path fill="none" stroke="rgb(0,0,0)" stroke-linejoin="round" d="M 9777,10851 L 9777,10701"/>
 <path fill="none" stroke="rgb(0,0,0)" stroke-linejoin="round" d="M 9913,10851 L 9913,10701"/>
 <path fill="none" stroke="rgb(0,0,0)" stroke-linejoin="round" d="M 9913,10851 L 9913,10701"/>
 <path fill="none" stroke="rgb(0,0,0)" stroke-linejoin="round" d="M 10050,10851 L 10050,10701"/>
 <path fill="none" stroke="rgb(0,0,0)" stroke-linejoin="round" d="M 10050,10851 L 10050,10701"/>
 <path fill="none" stroke="rgb(0,0,0)" stroke-linejoin="round" d="M 10186,10851 L 10186,10701"/>
 <path fill="none" stroke="rgb(0,0,0)" stroke-linejoin="round" d="M 10186,10851 L 10186,10701"/>
 <path fill="none" stroke="rgb(0,0,0)" stroke-linejoin="round" d="M 10322,10851 L 10322,10701"/>
 <path fill="none" stroke="rgb(0,0,0)" stroke-linejoin="round" d="M 10322,10851 L 10322,10701"/>
 <path fill="none" stroke="rgb(0,0,0)" stroke-linejoin="round" d="M 10459,10851 L 10459,10701"/>
 <path fill="none" stroke="rgb(0,0,0)" stroke-linejoin="round" d="M 10459,10851 L 10459,10701"/>
 <path fill="none" stroke="rgb(0,0,0)" stroke-linejoin="round" d="M 10595,10851 L 10595,10701"/>
 <path fill="none" stroke="rgb(0,0,0)" stroke-linejoin="round" d="M 10595,10851 L 10595,10701"/>
 <path fill="none" stroke="rgb(0,0,0)" stroke-linejoin="round" d="M 10732,10851 L 10732,10701"/>
 <path fill="none" stroke="rgb(0,0,0)" stroke-linejoin="round" d="M 10732,10851 L 10732,10701"/>
 <path fill="none" stroke="rgb(0,0,0)" stroke-linejoin="round" d="M 10868,10851 L 10868,10701"/>
 <path fill="none" stroke="rgb(0,0,0)" stroke-linejoin="round" d="M 10868,10851 L 10868,10701"/>
 <path fill="none" stroke="rgb(0,0,0)" stroke-linejoin="round" d="M 11004,10851 L 11004,10701"/>
 <path fill="none" stroke="rgb(0,0,0)" stroke-linejoin="round" d="M 11004,10851 L 11004,10701"/>
 <path fill="none" stroke="rgb(0,0,0)" stroke-linejoin="round" d="M 11141,10851 L 11141,10701"/>
 <path fill="none" stroke="rgb(0,0,0)" stroke-linejoin="round" d="M 11141,10851 L 11141,10701"/>
 <path fill="none" stroke="rgb(0,0,0)" stroke-linejoin="round" d="M 11277,10851 L 11277,10701"/>
 <path fill="none" stroke="rgb(0,0,0)" stroke-linejoin="round" d="M 11277,10851 L 11277,10701"/>
 <path fill="none" stroke="rgb(0,0,0)" stroke-linejoin="round" d="M 11414,10851 L 11414,10701"/>
 <path fill="none" stroke="rgb(0,0,0)" stroke-linejoin="round" d="M 11414,10851 L 11414,10701"/>
 <path fill="none" stroke="rgb(0,0,0)" stroke-linejoin="round" d="M 11550,10851 L 11550,10701"/>
 <path fill="none" stroke="rgb(0,0,0)" stroke-linejoin="round" d="M 11550,10851 L 11550,10701"/>
 <path fill="none" stroke="rgb(0,0,0)" stroke-linejoin="round" d="M 11687,10851 L 11687,10701"/>
 <path fill="none" stroke="rgb(0,0,0)" stroke-linejoin="round" d="M 11687,10851 L 11687,10701"/>
 <path fill="none" stroke="rgb(0,0,0)" stroke-linejoin="round" d="M 11823,10851 L 11823,10701"/>
 <path fill="none" stroke="rgb(0,0,0)" stroke-linejoin="round" d="M 11823,10851 L 11823,10701"/>
 <path fill="none" stroke="rgb(0,0,0)" stroke-linejoin="round" d="M 11959,10851 L 11959,10701"/>
 <path fill="none" stroke="rgb(0,0,0)" stroke-linejoin="round" d="M 11959,10851 L 11959,10701"/>
 <path fill="none" stroke="rgb(0,0,0)" stroke-linejoin="round" d="M 12096,10851 L 12096,10701"/>
 <path fill="none" stroke="rgb(0,0,0)" stroke-linejoin="round" d="M 12096,10851 L 12096,10701"/>
 <path fill="none" stroke="rgb(0,0,0)" stroke-linejoin="round" d="M 12232,10851 L 12232,10701"/>
 <path fill="none" stroke="rgb(0,0,0)" stroke-linejoin="round" d="M 12232,10851 L 12232,10701"/>
 <path fill="none" stroke="rgb(0,0,0)" stroke-linejoin="round" d="M 12369,10851 L 12369,10701"/>
 <path fill="none" stroke="rgb(0,0,0)" stroke-linejoin="round" d="M 12369,10851 L 12369,10701"/>
 <path fill="none" stroke="rgb(0,0,0)" stroke-linejoin="round" d="M 12505,10851 L 12505,10701"/>
 <path fill="none" stroke="rgb(0,0,0)" stroke-linejoin="round" d="M 12505,10851 L 12505,10701"/>
 <path fill="none" stroke="rgb(0,0,0)" stroke-linejoin="round" d="M 12641,10851 L 12641,10701"/>
 <path fill="none" stroke="rgb(0,0,0)" stroke-linejoin="round" d="M 12641,10851 L 12641,10701"/>
 <path fill="none" stroke="rgb(0,0,0)" stroke-linejoin="round" d="M 12778,10851 L 12778,10701"/>
 <path fill="none" stroke="rgb(0,0,0)" stroke-linejoin="round" d="M 12778,10851 L 12778,10701"/>
 <path fill="none" stroke="rgb(0,0,0)" stroke-linejoin="round" d="M 12914,10851 L 12914,10701"/>
 <path fill="none" stroke="rgb(0,0,0)" stroke-linejoin="round" d="M 12914,10851 L 12914,10701"/>
 <path fill="none" stroke="rgb(0,0,0)" stroke-linejoin="round" d="M 13051,10851 L 13051,10701"/>
 <path fill="none" stroke="rgb(0,0,0)" stroke-linejoin="round" d="M 13051,10851 L 13051,10701"/>
 <path fill="none" stroke="rgb(0,0,0)" stroke-linejoin="round" d="M 13187,10851 L 13187,10701"/>
 <path fill="none" stroke="rgb(0,0,0)" stroke-linejoin="round" d="M 13187,10851 L 13187,10701"/>
 <path fill="none" stroke="rgb(0,0,0)" stroke-linejoin="round" d="M 13323,10851 L 13323,10701"/>
 <path fill="none" stroke="rgb(0,0,0)" stroke-linejoin="round" d="M 13323,10851 L 13323,10701"/>
 <path fill="none" stroke="rgb(0,0,0)" stroke-linejoin="round" d="M 13460,10851 L 13460,10701"/>
 <path fill="none" stroke="rgb(0,0,0)" stroke-linejoin="round" d="M 13460,10851 L 13460,10701"/>
 <path fill="none" stroke="rgb(0,0,0)" stroke-linejoin="round" d="M 13596,10851 L 13596,10701"/>
 <path fill="none" stroke="rgb(0,0,0)" stroke-linejoin="round" d="M 13596,10851 L 13596,10701"/>
 <path fill="none" stroke="rgb(0,0,0)" stroke-linejoin="round" d="M 13733,10851 L 13733,10701"/>
 <path fill="none" stroke="rgb(0,0,0)" stroke-linejoin="round" d="M 13733,10851 L 13733,10701"/>
 <path fill="none" stroke="rgb(0,0,0)" stroke-linejoin="round" d="M 13869,10851 L 13869,10701"/>
 <path fill="none" stroke="rgb(0,0,0)" stroke-linejoin="round" d="M 13869,10851 L 13869,10701"/>
 <path fill="none" stroke="rgb(0,0,0)" stroke-linejoin="round" d="M 14005,10851 L 14005,10701"/>
 <path fill="none" stroke="rgb(0,0,0)" stroke-linejoin="round" d="M 14005,10851 L 14005,10701"/>
 <path fill="none" stroke="rgb(0,0,0)" stroke-linejoin="round" d="M 14142,10851 L 14142,10701"/>
 <path fill="none" stroke="rgb(0,0,0)" stroke-linejoin="round" d="M 14142,10851 L 14142,10701"/>
 <path fill="none" stroke="rgb(0,0,0)" stroke-linejoin="round" d="M 14278,10851 L 14278,10701"/>
 <path fill="none" stroke="rgb(0,0,0)" stroke-linejoin="round" d="M 14278,10851 L 14278,10701"/>
 <path fill="none" stroke="rgb(0,0,0)" stroke-linejoin="round" d="M 14415,10851 L 14415,10701"/>
 <path fill="none" stroke="rgb(0,0,0)" stroke-linejoin="round" d="M 14415,10851 L 14415,10701"/>
 <path fill="none" stroke="rgb(0,0,0)" stroke-linejoin="round" d="M 14551,10851 L 14551,10701"/>
 <path fill="none" stroke="rgb(0,0,0)" stroke-linejoin="round" d="M 14551,10851 L 14551,10701"/>
 <path fill="none" stroke="rgb(0,0,0)" stroke-linejoin="round" d="M 14687,10851 L 14687,10701"/>
 <path fill="none" stroke="rgb(0,0,0)" stroke-linejoin="round" d="M 14687,10851 L 14687,10701"/>
 <path fill="none" stroke="rgb(0,0,0)" stroke-linejoin="round" d="M 1321,10701 L 14688,10701"/>
 <path fill="none" stroke="rgb(0,0,0)" stroke-linejoin="round" d="M 1171,10701 L 1321,10701"/>
 <path fill="none" stroke="rgb(0,0,0)" stroke-linejoin="round" d="M 1171,10701 L 1321,10701"/>
 <path fill="none" stroke="rgb(0,0,0)" stroke-linejoin="round" d="M 1171,9740 L 1321,9740"/>
 <path fill="none" stroke="rgb(0,0,0)" stroke-linejoin="round" d="M 1171,9740 L 1321,9740"/>
 <path fill="none" stroke="rgb(0,0,0)" stroke-linejoin="round" d="M 1171,8779 L 1321,8779"/>
 <path fill="none" stroke="rgb(0,0,0)" stroke-linejoin="round" d="M 1171,8779 L 1321,8779"/>
 <path fill="none" stroke="rgb(0,0,0)" stroke-linejoin="round" d="M 1171,7818 L 1321,7818"/>
 <path fill="none" stroke="rgb(0,0,0)" stroke-linejoin="round" d="M 1171,7818 L 1321,7818"/>
 <path fill="none" stroke="rgb(0,0,0)" stroke-linejoin="round" d="M 1171,6857 L 1321,6857"/>
 <path fill="none" stroke="rgb(0,0,0)" stroke-linejoin="round" d="M 1171,6857 L 1321,6857"/>
 <path fill="none" stroke="rgb(0,0,0)" stroke-linejoin="round" d="M 1171,5898 L 1321,5898"/>
 <path fill="none" stroke="rgb(0,0,0)" stroke-linejoin="round" d="M 1171,5898 L 1321,5898"/>
 <path fill="none" stroke="rgb(0,0,0)" stroke-linejoin="round" d="M 1171,4937 L 1321,4937"/>
 <path fill="none" stroke="rgb(0,0,0)" stroke-linejoin="round" d="M 1171,4937 L 1321,4937"/>
 <path fill="none" stroke="rgb(0,0,0)" stroke-linejoin="round" d="M 1171,3976 L 1321,3976"/>
 <path fill="none" stroke="rgb(0,0,0)" stroke-linejoin="round" d="M 1171,3976 L 1321,3976"/>
 <path fill="none" stroke="rgb(0,0,0)" stroke-linejoin="round" d="M 1171,3015 L 1321,3015"/>
 <path fill="none" stroke="rgb(0,0,0)" stroke-linejoin="round" d="M 1171,3015 L 1321,3015"/>
 <path fill="none" stroke="rgb(0,0,0)" stroke-linejoin="round" d="M 1171,2054 L 1321,2054"/>
 <path fill="none" stroke="rgb(0,0,0)" stroke-linejoin="round" d="M 1171,2054 L 1321,2054"/>
 <path fill="none" stroke="rgb(0,0,0)" stroke-linejoin="round" d="M 1171,1094 L 1321,1094"/>
 <path fill="none" stroke="rgb(0,0,0)" stroke-linejoin="round" d="M 1171,1094 L 1321,1094"/>
 <path fill="none" stroke="rgb(0,0,0)" stroke-linejoin="round" d="M 1321,10701 L 1321,1094"/>
 <path fill="none" stroke="rgb(0,0,0)" stroke-linejoin="round" d="M 14838,10701 L 14688,10701"/>
 <path fill="none" stroke="rgb(0,0,0)" stroke-linejoin="round" d="M 14838,10701 L 14688,10701"/>
 <path fill="none" stroke="rgb(0,0,0)" stroke-linejoin="round" d="M 14838,9740 L 14688,9740"/>
 <path fill="none" stroke="rgb(0,0,0)" stroke-linejoin="round" d="M 14838,9740 L 14688,9740"/>
 <path fill="none" stroke="rgb(0,0,0)" stroke-linejoin="round" d="M 14838,8779 L 14688,8779"/>
 <path fill="none" stroke="rgb(0,0,0)" stroke-linejoin="round" d="M 14838,8779 L 14688,8779"/>
 <path fill="none" stroke="rgb(0,0,0)" stroke-linejoin="round" d="M 14838,7818 L 14688,7818"/>
 <path fill="none" stroke="rgb(0,0,0)" stroke-linejoin="round" d="M 14838,7818 L 14688,7818"/>
 <path fill="none" stroke="rgb(0,0,0)" stroke-linejoin="round" d="M 14838,6857 L 14688,6857"/>
 <path fill="none" stroke="rgb(0,0,0)" stroke-linejoin="round" d="M 14838,6857 L 14688,6857"/>
 <path fill="none" stroke="rgb(0,0,0)" stroke-linejoin="round" d="M 14838,5898 L 14688,5898"/>
 <path fill="none" stroke="rgb(0,0,0)" stroke-linejoin="round" d="M 14838,5898 L 14688,5898"/>
 <path fill="none" stroke="rgb(0,0,0)" stroke-linejoin="round" d="M 14838,4937 L 14688,4937"/>
 <path fill="none" stroke="rgb(0,0,0)" stroke-linejoin="round" d="M 14838,4937 L 14688,4937"/>
 <path fill="none" stroke="rgb(0,0,0)" stroke-linejoin="round" d="M 14838,3976 L 14688,3976"/>
 <path fill="none" stroke="rgb(0,0,0)" stroke-linejoin="round" d="M 14838,3976 L 14688,3976"/>
 <path fill="none" stroke="rgb(0,0,0)" stroke-linejoin="round" d="M 14838,3015 L 14688,3015"/>
 <path fill="none" stroke="rgb(0,0,0)" stroke-linejoin="round" d="M 14838,3015 L 14688,3015"/>
 <path fill="none" stroke="rgb(0,0,0)" stroke-linejoin="round" d="M 14838,2054 L 14688,2054"/>
 <path fill="none" stroke="rgb(0,0,0)" stroke-linejoin="round" d="M 14838,2054 L 14688,2054"/>
 <path fill="none" stroke="rgb(0,0,0)" stroke-linejoin="round" d="M 14838,1094 L 14688,1094"/>
 <path fill="none" stroke="rgb(0,0,0)" stroke-linejoin="round" d="M 14838,1094 L 14688,1094"/>
 <path fill="none" stroke="rgb(0,0,0)" stroke-linejoin="round" d="M 14688,10701 L 14688,1094"/>
 <path fill="rgb(0,71,255)" stroke="none" d="M 1321,1203 L 1457,1212 1593,1222 1730,1251 1866,1267 2003,1272 2139,1290 2275,1300 2412,1313 2548,1313 2685,1348 2821,1360 2957,1384 3094,1384 3230,1401 3367,1450 3503,1486 3639,1496 3776,1497 3912,1549 4049,1582 4185,1610 4321,1657 4458,1747 4594,1704 4731,1654 4867,1774 5004,1863 5140,1974 5276,1815 5413,1813 5549,1820 5686,1866 5822,1906 5958,1982 6095,2003 6231,1979 6368,2115 6504,2125 6640,2172 6777,2270 6913,2423 7050,2290 7186,2192 7322,2220 7459,2248 7595,2347 7732,2454 7868,2236 8004,2336 8140,2421 8276,2438 8413,2630 8549,2760 8686,2642 8822,2733 8958,2858 9095,2858 9231,2795 9368,2881 9504,2797 9640,2680 9777,2765 9913,2832 10050,2759 10186,3112 10322,2935 10459,2956 10595,3288 10732,2961 10868,3055 11004,3149 11141,3031 11277,3340 11414,3444 11550,3271 11687,3496 11823,3658 11959,3655 12096,3963 12232,4204 12369,4176 12505,3778 12641,3804 12778,3905 12914,4252 13051,3945 13187,3971 13323,4190 13460,4125 13596,4260 13733,4686 13869,4616 14005,4248 14142,4441 14278,4173 14415,4525 14551,4745 14688,4296 14688,10701 1321,10701 1321,1203 Z"/>
 <path fill="none" stroke="rgb(0,0,0)" stroke-width="20" stroke-linejoin="round" d="M 1321,1203 L 1457,1212 1593,1222 1730,1251 1866,1267 2003,1272 2139,1290 2275,1300 2412,1313 2548,1313 2685,1348 2821,1360 2957,1384 3094,1384 3230,1401 3367,1450 3503,1486 3639,1496 3776,1497 3912,1549 4049,1582 4185,1610 4321,1657 4458,1747 4594,1704 4731,1654 4867,1774 5004,1863 5140,1974 5276,1815 5413,1813 5549,1820 5686,1866 5822,1906 5958,1982 6095,2003 6231,1979 6368,2115 6504,2125 6640,2172 6777,2270 6913,2423 7050,2290 7186,2192 7322,2220 7459,2248 7595,2347 7732,2454 7868,2236 8004,2336 8140,2421 8276,2438 8413,2630 8549,2760 8686,2642 8822,2733 8958,2858 9095,2858 9231,2795 9368,2881 9504,2797 9640,2680 9777,2765 9913,2832 10050,2759 10186,3112 10322,2935 10459,2956 10595,3288 10732,2961 10868,3055 11004,3149 11141,3031 11277,3340 11414,3444 11550,3271 11687,3496 11823,3658 11959,3655 12096,3963 12232,4204 12369,4176 12505,3778 12641,3804 12778,3905 12914,4252 13051,3945 13187,3971 13323,4190 13460,4125 13596,4260 13733,4686 13869,4616 14005,4248 14142,4441 14278,4173 14415,4525 14551,4745 14688,4296 14688,10701 1321,10701 1321,1203 Z"/>
 <path fill="rgb(174,207,0)" stroke="none" d="M 1321,1110 L 1457,1110 1593,1108 1730,1113 1866,1114 2003,1114 2139,1116 2275,1117 2412,1118 2548,1118 2685,1117 2821,1113 2957,1115 3094,1111 3230,1118 3367,1119 3503,1122 3639,1123 3776,1120 3912,1123 4049,1121 4185,1128 4321,1129 4458,1135 4594,1129 4731,1124 4867,1127 5004,1126 5140,1131 5276,1119 5413,1121 5549,1118 5686,1120 5822,1120 5958,1119 6095,1121 6231,1120 6368,1126 6504,1124 6640,1131 6777,1138 6913,1159 7050,1138 7186,1141 7322,1147 7459,1152 7595,1153 7732,1165 7868,1152 8004,1158 8140,1156 8276,1157 8413,1172 8549,1187 8686,1167 8822,1175 8958,1131 9095,1131 9231,1132 9368,1136 9504,1130 9640,1126 9777,1127 9913,1133 10050,1183 10186,1178 10322,1172 10459,1170 10595,1164 10732,1152 10868,1144 11004,1130 11141,1122 11277,1128 11414,1134 11550,1133 11687,1147 11823,1162 11959,1167 12096,1171 12232,1186 12369,1168 12505,1163 12641,1143 12778,1150 12914,1161 13051,1161 13187,1152 13323,1175 13460,1165 13596,1170 13733,1167 13869,1159 14005,1159 14142,1140 14278,1120 14415,1120 14551,1123 14688,1134 14688,4296 14551,4745 14415,4525 14278,4173 14142,4441 14005,4248 13869,4616 13733,4686 13596,4260 13460,4125 13323,4190 13187,3971 13051,3945 12914,4252 12778,3905 12641,3804 12505,3778 12369,4176 12232,4204 12096,3963 11959,3655 11823,3658 11687,3496 11550,3271 11414,3444 11277,3340 11141,3031 11004,3149 10868,3055 10732,2961 10595,3288 10459,2956 10322,2935 10186,3112 10050,2759 9913,2832 9777,2765 9640,2680 9504,2797 9368,2881 9231,2795 9095,2858 8958,2858 8822,2733 8686,2642 8549,2760 8413,2630 8276,2438 8140,2421 8004,2336 7868,2236 7732,2454 7595,2347 7459,2248 7322,2220 7186,2192 7050,2290 6913,2423 6777,2270 6640,2172 6504,2125 6368,2115 6231,1979 6095,2003 5958,1982 5822,1906 5686,1866 5549,1820 5413,1813 5276,1815 5140,1974 5004,1863 4867,1774 4731,1654 4594,1704 4458,1747 4321,1657 4185,1610 4049,1582 3912,1549 3776,1497 3639,1496 3503,1486 3367,1450 3230,1401 3094,1384 2957,1384 2821,1360 2685,1348 2548,1313 2412,1313 2275,1300 2139,1290 2003,1272 1866,1267 1730,1251 1593,1222 1457,1212 1321,1203 1321,1110 Z"/>
 <path fill="none" stroke="rgb(0,0,0)" stroke-width="20" stroke-linejoin="round" d="M 1321,1110 L 1457,1110 1593,1108 1730,1113 1866,1114 2003,1114 2139,1116 2275,1117 2412,1118 2548,1118 2685,1117 2821,1113 2957,1115 3094,1111 3230,1118 3367,1119 3503,1122 3639,1123 3776,1120 3912,1123 4049,1121 4185,1128 4321,1129 4458,1135 4594,1129 4731,1124 4867,1127 5004,1126 5140,1131 5276,1119 5413,1121 5549,1118 5686,1120 5822,1120 5958,1119 6095,1121 6231,1120 6368,1126 6504,1124 6640,1131 6777,1138 6913,1159 7050,1138 7186,1141 7322,1147 7459,1152 7595,1153 7732,1165 7868,1152 8004,1158 8140,1156 8276,1157 8413,1172 8549,1187 8686,1167 8822,1175 8958,1131 9095,1131 9231,1132 9368,1136 9504,1130 9640,1126 9777,1127 9913,1133 10050,1183 10186,1178 10322,1172 10459,1170 10595,1164 10732,1152 10868,1144 11004,1130 11141,1122 11277,1128 11414,1134 11550,1133 11687,1147 11823,1162 11959,1167 12096,1171 12232,1186 12369,1168 12505,1163 12641,1143 12778,1150 12914,1161 13051,1161 13187,1152 13323,1175 13460,1165 13596,1170 13733,1167 13869,1159 14005,1159 14142,1140 14278,1120 14415,1120 14551,1123 14688,1134 14688,4296 14551,4745 14415,4525 14278,4173 14142,4441 14005,4248 13869,4616 13733,4686 13596,4260 13460,4125 13323,4190 13187,3971 13051,3945 12914,4252 12778,3905 12641,3804 12505,3778 12369,4176 12232,4204 12096,3963 11959,3655 11823,3658 11687,3496 11550,3271 11414,3444 11277,3340 11141,3031 11004,3149 10868,3055 10732,2961 10595,3288 10459,2956 10322,2935 10186,3112 10050,2759 9913,2832 9777,2765 9640,2680 9504,2797 9368,2881 9231,2795 9095,2858 8958,2858 8822,2733 8686,2642 8549,2760 8413,2630 8276,2438 8140,2421 8004,2336 7868,2236 7732,2454 7595,2347 7459,2248 7322,2220 7186,2192 7050,2290 6913,2423 6777,2270 6640,2172 6504,2125 6368,2115 6231,1979 6095,2003 5958,1982 5822,1906 5686,1866 5549,1820 5413,1813 5276,1815 5140,1974 5004,1863 4867,1774 4731,1654 4594,1704 4458,1747 4321,1657 4185,1610 4049,1582 3912,1549 3776,1497 3639,1496 3503,1486 3367,1450 3230,1401 3094,1384 2957,1384 2821,1360 2685,1348 2548,1313 2412,1313 2275,1300 2139,1290 2003,1272 1866,1267 1730,1251 1593,1222 1457,1212 1321,1203 1321,1110 Z"/>
 <text class="TextShape"><tspan class="TextParagraph" font-family="Arial, sans-serif" font-size="388px" font-weight="400"><tspan class="TextPosition" x="1442" y="11295"><tspan fill="rgb(0,0,0)" stroke="none">2010</tspan></tspan></tspan></text>
 <text class="TextShape"><tspan class="TextParagraph" font-family="Arial, sans-serif" font-size="388px" font-weight="400"><tspan class="TextPosition" x="3079" y="11295"><tspan fill="rgb(0,0,0)" stroke="none">2011</tspan></tspan></tspan></text>
 <text class="TextShape"><tspan class="TextParagraph" font-family="Arial, sans-serif" font-size="388px" font-weight="400"><tspan class="TextPosition" x="4716" y="11295"><tspan fill="rgb(0,0,0)" stroke="none">2012</tspan></tspan></tspan></text>
 <text class="TextShape"><tspan class="TextParagraph" font-family="Arial, sans-serif" font-size="388px" font-weight="400"><tspan class="TextPosition" x="6353" y="11295"><tspan fill="rgb(0,0,0)" stroke="none">2013</tspan></tspan></tspan></text>
 <text class="TextShape"><tspan class="TextParagraph" font-family="Arial, sans-serif" font-size="388px" font-weight="400"><tspan class="TextPosition" x="7990" y="11295"><tspan fill="rgb(0,0,0)" stroke="none">2014</tspan></tspan></tspan></text>
 <text class="TextShape"><tspan class="TextParagraph" font-family="Arial, sans-serif" font-size="388px" font-weight="400"><tspan class="TextPosition" x="9763" y="11295"><tspan fill="rgb(0,0,0)" stroke="none">2015</tspan></tspan></tspan></text>
 <text class="TextShape"><tspan class="TextParagraph" font-family="Arial, sans-serif" font-size="388px" font-weight="400"><tspan class="TextPosition" x="11400" y="11295"><tspan fill="rgb(0,0,0)" stroke="none">2016</tspan></tspan></tspan></text>
 <text class="TextShape"><tspan class="TextParagraph" font-family="Arial, sans-serif" font-size="388px" font-weight="400"><tspan class="TextPosition" x="13037" y="11295"><tspan fill="rgb(0,0,0)" stroke="none">2017</tspan></tspan></tspan></text>
 <text class="TextShape"><tspan class="TextParagraph" font-family="Arial, sans-serif" font-size="388px" font-weight="400"><tspan class="TextPosition" x="515" y="10835"><tspan fill="rgb(0,0,0)" stroke="none">0%</tspan></tspan></tspan></text>
 <text class="TextShape"><tspan class="TextParagraph" font-family="Arial, sans-serif" font-size="388px" font-weight="400"><tspan class="TextPosition" x="304" y="9874"><tspan fill="rgb(0,0,0)" stroke="none">10%</tspan></tspan></tspan></text>
 <text class="TextShape"><tspan class="TextParagraph" font-family="Arial, sans-serif" font-size="388px" font-weight="400"><tspan class="TextPosition" x="304" y="8913"><tspan fill="rgb(0,0,0)" stroke="none">20%</tspan></tspan></tspan></text>
 <text class="TextShape"><tspan class="TextParagraph" font-family="Arial, sans-serif" font-size="388px" font-weight="400"><tspan class="TextPosition" x="304" y="7952"><tspan fill="rgb(0,0,0)" stroke="none">30%</tspan></tspan></tspan></text>
 <text class="TextShape"><tspan class="TextParagraph" font-family="Arial, sans-serif" font-size="388px" font-weight="400"><tspan class="TextPosition" x="304" y="6991"><tspan fill="rgb(0,0,0)" stroke="none">40%</tspan></tspan></tspan></text>
 <text class="TextShape"><tspan class="TextParagraph" font-family="Arial, sans-serif" font-size="388px" font-weight="400"><tspan class="TextPosition" x="304" y="6031"><tspan fill="rgb(0,0,0)" stroke="none">50%</tspan></tspan></tspan></text>
 <text class="TextShape"><tspan class="TextParagraph" font-family="Arial, sans-serif" font-size="388px" font-weight="400"><tspan class="TextPosition" x="304" y="5070"><tspan fill="rgb(0,0,0)" stroke="none">60%</tspan></tspan></tspan></text>
 <text class="TextShape"><tspan class="TextParagraph" font-family="Arial, sans-serif" font-size="388px" font-weight="400"><tspan class="TextPosition" x="304" y="4109"><tspan fill="rgb(0,0,0)" stroke="none">70%</tspan></tspan></tspan></text>
 <text class="TextShape"><tspan class="TextParagraph" font-family="Arial, sans-serif" font-size="388px" font-weight="400"><tspan class="TextPosition" x="304" y="3148"><tspan fill="rgb(0,0,0)" stroke="none">80%</tspan></tspan></tspan></text>
 <text class="TextShape"><tspan class="TextParagraph" font-family="Arial, sans-serif" font-size="388px" font-weight="400"><tspan class="TextPosition" x="304" y="2187"><tspan fill="rgb(0,0,0)" stroke="none">90%</tspan></tspan></tspan></text>
 <text class="TextShape"><tspan class="TextParagraph" font-family="Arial, sans-serif" font-size="388px" font-weight="400"><tspan class="TextPosition" x="92" y="1227"><tspan fill="rgb(0,0,0)" stroke="none">100%</tspan></tspan></tspan></text>
 <text class="TextShape"><tspan class="TextParagraph" font-family="Arial, sans-serif" font-size="388px" font-weight="400"><tspan class="TextPosition" x="14938" y="10835"><tspan fill="rgb(0,0,0)" stroke="none">0%</tspan></tspan></tspan></text>
 <text class="TextShape"><tspan class="TextParagraph" font-family="Arial, sans-serif" font-size="388px" font-weight="400"><tspan class="TextPosition" x="14938" y="9874"><tspan fill="rgb(0,0,0)" stroke="none">10%</tspan></tspan></tspan></text>
 <text class="TextShape"><tspan class="TextParagraph" font-family="Arial, sans-serif" font-size="388px" font-weight="400"><tspan class="TextPosition" x="14938" y="8913"><tspan fill="rgb(0,0,0)" stroke="none">20%</tspan></tspan></tspan></text>
 <text class="TextShape"><tspan class="TextParagraph" font-family="Arial, sans-serif" font-size="388px" font-weight="400"><tspan class="TextPosition" x="14938" y="7952"><tspan fill="rgb(0,0,0)" stroke="none">30%</tspan></tspan></tspan></text>
 <text class="TextShape"><tspan class="TextParagraph" font-family="Arial, sans-serif" font-size="388px" font-weight="400"><tspan class="TextPosition" x="14938" y="6991"><tspan fill="rgb(0,0,0)" stroke="none">40%</tspan></tspan></tspan></text>
 <text class="TextShape"><tspan class="TextParagraph" font-family="Arial, sans-serif" font-size="388px" font-weight="400"><tspan class="TextPosition" x="14938" y="6031"><tspan fill="rgb(0,0,0)" stroke="none">50%</tspan></tspan></tspan></text>
 <text class="TextShape"><tspan class="TextParagraph" font-family="Arial, sans-serif" font-size="388px" font-weight="400"><tspan class="TextPosition" x="14938" y="5070"><tspan fill="rgb(0,0,0)" stroke="none">60%</tspan></tspan></tspan></text>
 <text class="TextShape"><tspan class="TextParagraph" font-family="Arial, sans-serif" font-size="388px" font-weight="400"><tspan class="TextPosition" x="14938" y="4109"><tspan fill="rgb(0,0,0)" stroke="none">70%</tspan></tspan></tspan></text>
 <text class="TextShape"><tspan class="TextParagraph" font-family="Arial, sans-serif" font-size="388px" font-weight="400"><tspan class="TextPosition" x="14938" y="3148"><tspan fill="rgb(0,0,0)" stroke="none">80%</tspan></tspan></tspan></text>
 <text class="TextShape"><tspan class="TextParagraph" font-family="Arial, sans-serif" font-size="388px" font-weight="400"><tspan class="TextPosition" x="14938" y="2187"><tspan fill="rgb(0,0,0)" stroke="none">90%</tspan></tspan></tspan></text>
 <text class="TextShape"><tspan class="TextParagraph" font-family="Arial, sans-serif" font-size="388px" font-weight="400"><tspan class="TextPosition" x="14938" y="1227"><tspan fill="rgb(0,0,0)" stroke="none">100%</tspan></tspan></tspan></text>
 <text class="TextShape"><tspan class="TextParagraph" font-family="Arial, sans-serif" font-size="564px" font-weight="400"><tspan class="TextPosition" x="1776" y="674"><tspan fill="rgb(0,0,0)" stroke="none">Tipo de dispositivo con el que se accede a la web</tspan></tspan></tspan></text>
 <path fill="rgb(0,71,255)" stroke="none" d="M 8509,11713 L 8393,11713 8393,11481 8625,11481 8625,11713 8509,11713 Z"/>
 <path fill="none" stroke="rgb(0,0,0)" stroke-linejoin="round" d="M 8509,11713 L 8393,11713 8393,11481 8625,11481 8625,11713 8509,11713 Z"/>
 <path fill="rgb(174,207,0)" stroke="none" d="M 5748,11713 L 5632,11713 5632,11481 5864,11481 5864,11713 5748,11713 Z"/>
 <path fill="none" stroke="rgb(0,0,0)" stroke-linejoin="round" d="M 5748,11713 L 5632,11713 5632,11481 5864,11481 5864,11713 5748,11713 Z"/>
 <text class="TextShape"><tspan class="TextParagraph" font-family="Arial, sans-serif" font-size="388px" font-weight="400"><tspan class="TextPosition" x="5964" y="11729"><tspan fill="rgb(0,0,0)" stroke="none">Móvil / Tablet</tspan></tspan></tspan></text>
 <text class="TextShape"><tspan class="TextParagraph" font-family="Arial, sans-serif" font-size="388px" font-weight="400"><tspan class="TextPosition" x="8725" y="11729"><tspan fill="rgb(0,0,0)" stroke="none">Escritorio</tspan></tspan></tspan></text>
</svg>
