<?xml version="1.0" encoding="UTF-8"?>
<!DOCTYPE svg PUBLIC "-//W3C//DTD SVG 1.1//EN" "http://www.w3.org/Graphics/SVG/1.1/DTD/svg11.dtd">
<svg width="160mm" height="120mm" viewBox="0 0 16000 12000" version="1.1" xmlns="http://www.w3.org/2000/svg" stroke-width="28.222" stroke-linejoin="round" xml:space="preserve">
 <path fill="rgb(255,255,255)" stroke="none" d="M 8001,12002 L 0,12002 0,0 16002,0 16002,12002 8001,12002 Z"/>
 <path fill="none" stroke="rgb(179,179,179)" stroke-linejoin="round" d="M 8004,10702 L 1321,10702 1321,1095 14688,1095 14688,10702 8004,10702 Z"/>
 <path fill="none" stroke="rgb(0,0,0)" stroke-linejoin="round" d="M 14687,10701 L 1321,10701"/>
 <path fill="none" stroke="rgb(0,0,0)" stroke-linejoin="round" d="M 14687,9740 L 1321,9740"/>
 <path fill="none" stroke="rgb(0,0,0)" stroke-linejoin="round" d="M 14687,8779 L 1321,8779"/>
 <path fill="none" stroke="rgb(0,0,0)" stroke-linejoin="round" d="M 14687,7818 L 1321,7818"/>
 <path fill="none" stroke="rgb(0,0,0)" stroke-linejoin="round" d="M 14687,6857 L 1321,6857"/>
 <path fill="none" stroke="rgb(0,0,0)" stroke-linejoin="round" d="M 14687,5898 L 1321,5898"/>
 <path fill="none" stroke="rgb(0,0,0)" stroke-linejoin="round" d="M 14687,4937 L 1321,4937"/>
 <path fill="none" stroke="rgb(0,0,0)" stroke-linejoin="round" d="M 14687,3976 L 1321,3976"/>
 <path fill="none" stroke="rgb(0,0,0)" stroke-linejoin="round" d="M 14687,3015 L 1321,3015"/>
 <path fill="none" stroke="rgb(0,0,0)" stroke-linejoin="round" d="M 14687,2054 L 1321,2054"/>
 <path fill="none" stroke="rgb(0,0,0)" stroke-linejoin="round" d="M 14687,1094 L 1321,1094"/>
 <path fill="none" stroke="rgb(0,0,0)" stroke-linejoin="round" d="M 1321,10851 L 1321,10701"/>
 <path fill="none" stroke="rgb(0,0,0)" stroke-linejoin="round" d="M 1321,10851 L 1321,10701"/>
 <path fill="none" stroke="rgb(0,0,0)" stroke-linejoin="round" d="M 1471,10851 L 1471,10701"/>
 <path fill="none" stroke="rgb(0,0,0)" stroke-linejoin="round" d="M 1471,10851 L 1471,10701"/>
 <path fill="none" stroke="rgb(0,0,0)" stroke-linejoin="round" d="M 1621,10851 L 1621,10701"/>
 <path fill="none" stroke="rgb(0,0,0)" stroke-linejoin="round" d="M 1621,10851 L 1621,10701"/>
 <path fill="none" stroke="rgb(0,0,0)" stroke-linejoin="round" d="M 1771,10851 L 1771,10701"/>
 <path fill="none" stroke="rgb(0,0,0)" stroke-linejoin="round" d="M 1771,10851 L 1771,10701"/>
 <path fill="none" stroke="rgb(0,0,0)" stroke-linejoin="round" d="M 1921,10851 L 1921,10701"/>
 <path fill="none" stroke="rgb(0,0,0)" stroke-linejoin="round" d="M 1921,10851 L 1921,10701"/>
 <path fill="none" stroke="rgb(0,0,0)" stroke-linejoin="round" d="M 2072,10851 L 2072,10701"/>
 <path fill="none" stroke="rgb(0,0,0)" stroke-linejoin="round" d="M 2072,10851 L 2072,10701"/>
 <path fill="none" stroke="rgb(0,0,0)" stroke-linejoin="round" d="M 2222,10851 L 2222,10701"/>
 <path fill="none" stroke="rgb(0,0,0)" stroke-linejoin="round" d="M 2222,10851 L 2222,10701"/>
 <path fill="none" stroke="rgb(0,0,0)" stroke-linejoin="round" d="M 2372,10851 L 2372,10701"/>
 <path fill="none" stroke="rgb(0,0,0)" stroke-linejoin="round" d="M 2372,10851 L 2372,10701"/>
 <path fill="none" stroke="rgb(0,0,0)" stroke-linejoin="round" d="M 2522,10851 L 2522,10701"/>
 <path fill="none" stroke="rgb(0,0,0)" stroke-linejoin="round" d="M 2522,10851 L 2522,10701"/>
 <path fill="none" stroke="rgb(0,0,0)" stroke-linejoin="round" d="M 2672,10851 L 2672,10701"/>
 <path fill="none" stroke="rgb(0,0,0)" stroke-linejoin="round" d="M 2672,10851 L 2672,10701"/>
 <path fill="none" stroke="rgb(0,0,0)" stroke-linejoin="round" d="M 2823,10851 L 2823,10701"/>
 <path fill="none" stroke="rgb(0,0,0)" stroke-linejoin="round" d="M 2823,10851 L 2823,10701"/>
 <path fill="none" stroke="rgb(0,0,0)" stroke-linejoin="round" d="M 2973,10851 L 2973,10701"/>
 <path fill="none" stroke="rgb(0,0,0)" stroke-linejoin="round" d="M 2973,10851 L 2973,10701"/>
 <path fill="none" stroke="rgb(0,0,0)" stroke-linejoin="round" d="M 3123,10851 L 3123,10701"/>
 <path fill="none" stroke="rgb(0,0,0)" stroke-linejoin="round" d="M 3123,10851 L 3123,10701"/>
 <path fill="none" stroke="rgb(0,0,0)" stroke-linejoin="round" d="M 3273,10851 L 3273,10701"/>
 <path fill="none" stroke="rgb(0,0,0)" stroke-linejoin="round" d="M 3273,10851 L 3273,10701"/>
 <path fill="none" stroke="rgb(0,0,0)" stroke-linejoin="round" d="M 3423,10851 L 3423,10701"/>
 <path fill="none" stroke="rgb(0,0,0)" stroke-linejoin="round" d="M 3423,10851 L 3423,10701"/>
 <path fill="none" stroke="rgb(0,0,0)" stroke-linejoin="round" d="M 3574,10851 L 3574,10701"/>
 <path fill="none" stroke="rgb(0,0,0)" stroke-linejoin="round" d="M 3574,10851 L 3574,10701"/>
 <path fill="none" stroke="rgb(0,0,0)" stroke-linejoin="round" d="M 3724,10851 L 3724,10701"/>
 <path fill="none" stroke="rgb(0,0,0)" stroke-linejoin="round" d="M 3724,10851 L 3724,10701"/>
 <path fill="none" stroke="rgb(0,0,0)" stroke-linejoin="round" d="M 3874,10851 L 3874,10701"/>
 <path fill="none" stroke="rgb(0,0,0)" stroke-linejoin="round" d="M 3874,10851 L 3874,10701"/>
 <path fill="none" stroke="rgb(0,0,0)" stroke-linejoin="round" d="M 4024,10851 L 4024,10701"/>
 <path fill="none" stroke="rgb(0,0,0)" stroke-linejoin="round" d="M 4024,10851 L 4024,10701"/>
 <path fill="none" stroke="rgb(0,0,0)" stroke-linejoin="round" d="M 4174,10851 L 4174,10701"/>
 <path fill="none" stroke="rgb(0,0,0)" stroke-linejoin="round" d="M 4174,10851 L 4174,10701"/>
 <path fill="none" stroke="rgb(0,0,0)" stroke-linejoin="round" d="M 4325,10851 L 4325,10701"/>
 <path fill="none" stroke="rgb(0,0,0)" stroke-linejoin="round" d="M 4325,10851 L 4325,10701"/>
 <path fill="none" stroke="rgb(0,0,0)" stroke-linejoin="round" d="M 4475,10851 L 4475,10701"/>
 <path fill="none" stroke="rgb(0,0,0)" stroke-linejoin="round" d="M 4475,10851 L 4475,10701"/>
 <path fill="none" stroke="rgb(0,0,0)" stroke-linejoin="round" d="M 4625,10851 L 4625,10701"/>
 <path fill="none" stroke="rgb(0,0,0)" stroke-linejoin="round" d="M 4625,10851 L 4625,10701"/>
 <path fill="none" stroke="rgb(0,0,0)" stroke-linejoin="round" d="M 4775,10851 L 4775,10701"/>
 <path fill="none" stroke="rgb(0,0,0)" stroke-linejoin="round" d="M 4775,10851 L 4775,10701"/>
 <path fill="none" stroke="rgb(0,0,0)" stroke-linejoin="round" d="M 4925,10851 L 4925,10701"/>
 <path fill="none" stroke="rgb(0,0,0)" stroke-linejoin="round" d="M 4925,10851 L 4925,10701"/>
 <path fill="none" stroke="rgb(0,0,0)" stroke-linejoin="round" d="M 5076,10851 L 5076,10701"/>
 <path fill="none" stroke="rgb(0,0,0)" stroke-linejoin="round" d="M 5076,10851 L 5076,10701"/>
 <path fill="none" stroke="rgb(0,0,0)" stroke-linejoin="round" d="M 5226,10851 L 5226,10701"/>
 <path fill="none" stroke="rgb(0,0,0)" stroke-linejoin="round" d="M 5226,10851 L 5226,10701"/>
 <path fill="none" stroke="rgb(0,0,0)" stroke-linejoin="round" d="M 5376,10851 L 5376,10701"/>
 <path fill="none" stroke="rgb(0,0,0)" stroke-linejoin="round" d="M 5376,10851 L 5376,10701"/>
 <path fill="none" stroke="rgb(0,0,0)" stroke-linejoin="round" d="M 5526,10851 L 5526,10701"/>
 <path fill="none" stroke="rgb(0,0,0)" stroke-linejoin="round" d="M 5526,10851 L 5526,10701"/>
 <path fill="none" stroke="rgb(0,0,0)" stroke-linejoin="round" d="M 5676,10851 L 5676,10701"/>
 <path fill="none" stroke="rgb(0,0,0)" stroke-linejoin="round" d="M 5676,10851 L 5676,10701"/>
 <path fill="none" stroke="rgb(0,0,0)" stroke-linejoin="round" d="M 5827,10851 L 5827,10701"/>
 <path fill="none" stroke="rgb(0,0,0)" stroke-linejoin="round" d="M 5827,10851 L 5827,10701"/>
 <path fill="none" stroke="rgb(0,0,0)" stroke-linejoin="round" d="M 5977,10851 L 5977,10701"/>
 <path fill="none" stroke="rgb(0,0,0)" stroke-linejoin="round" d="M 5977,10851 L 5977,10701"/>
 <path fill="none" stroke="rgb(0,0,0)" stroke-linejoin="round" d="M 6127,10851 L 6127,10701"/>
 <path fill="none" stroke="rgb(0,0,0)" stroke-linejoin="round" d="M 6127,10851 L 6127,10701"/>
 <path fill="none" stroke="rgb(0,0,0)" stroke-linejoin="round" d="M 6277,10851 L 6277,10701"/>
 <path fill="none" stroke="rgb(0,0,0)" stroke-linejoin="round" d="M 6277,10851 L 6277,10701"/>
 <path fill="none" stroke="rgb(0,0,0)" stroke-linejoin="round" d="M 6427,10851 L 6427,10701"/>
 <path fill="none" stroke="rgb(0,0,0)" stroke-linejoin="round" d="M 6427,10851 L 6427,10701"/>
 <path fill="none" stroke="rgb(0,0,0)" stroke-linejoin="round" d="M 6578,10851 L 6578,10701"/>
 <path fill="none" stroke="rgb(0,0,0)" stroke-linejoin="round" d="M 6578,10851 L 6578,10701"/>
 <path fill="none" stroke="rgb(0,0,0)" stroke-linejoin="round" d="M 6728,10851 L 6728,10701"/>
 <path fill="none" stroke="rgb(0,0,0)" stroke-linejoin="round" d="M 6728,10851 L 6728,10701"/>
 <path fill="none" stroke="rgb(0,0,0)" stroke-linejoin="round" d="M 6878,10851 L 6878,10701"/>
 <path fill="none" stroke="rgb(0,0,0)" stroke-linejoin="round" d="M 6878,10851 L 6878,10701"/>
 <path fill="none" stroke="rgb(0,0,0)" stroke-linejoin="round" d="M 7028,10851 L 7028,10701"/>
 <path fill="none" stroke="rgb(0,0,0)" stroke-linejoin="round" d="M 7028,10851 L 7028,10701"/>
 <path fill="none" stroke="rgb(0,0,0)" stroke-linejoin="round" d="M 7178,10851 L 7178,10701"/>
 <path fill="none" stroke="rgb(0,0,0)" stroke-linejoin="round" d="M 7178,10851 L 7178,10701"/>
 <path fill="none" stroke="rgb(0,0,0)" stroke-linejoin="round" d="M 7329,10851 L 7329,10701"/>
 <path fill="none" stroke="rgb(0,0,0)" stroke-linejoin="round" d="M 7329,10851 L 7329,10701"/>
 <path fill="none" stroke="rgb(0,0,0)" stroke-linejoin="round" d="M 7479,10851 L 7479,10701"/>
 <path fill="none" stroke="rgb(0,0,0)" stroke-linejoin="round" d="M 7479,10851 L 7479,10701"/>
 <path fill="none" stroke="rgb(0,0,0)" stroke-linejoin="round" d="M 7629,10851 L 7629,10701"/>
 <path fill="none" stroke="rgb(0,0,0)" stroke-linejoin="round" d="M 7629,10851 L 7629,10701"/>
 <path fill="none" stroke="rgb(0,0,0)" stroke-linejoin="round" d="M 7779,10851 L 7779,10701"/>
 <path fill="none" stroke="rgb(0,0,0)" stroke-linejoin="round" d="M 7779,10851 L 7779,10701"/>
 <path fill="none" stroke="rgb(0,0,0)" stroke-linejoin="round" d="M 7929,10851 L 7929,10701"/>
 <path fill="none" stroke="rgb(0,0,0)" stroke-linejoin="round" d="M 7929,10851 L 7929,10701"/>
 <path fill="none" stroke="rgb(0,0,0)" stroke-linejoin="round" d="M 8079,10851 L 8079,10701"/>
 <path fill="none" stroke="rgb(0,0,0)" stroke-linejoin="round" d="M 8079,10851 L 8079,10701"/>
 <path fill="none" stroke="rgb(0,0,0)" stroke-linejoin="round" d="M 8229,10851 L 8229,10701"/>
 <path fill="none" stroke="rgb(0,0,0)" stroke-linejoin="round" d="M 8229,10851 L 8229,10701"/>
 <path fill="none" stroke="rgb(0,0,0)" stroke-linejoin="round" d="M 8379,10851 L 8379,10701"/>
 <path fill="none" stroke="rgb(0,0,0)" stroke-linejoin="round" d="M 8379,10851 L 8379,10701"/>
 <path fill="none" stroke="rgb(0,0,0)" stroke-linejoin="round" d="M 8529,10851 L 8529,10701"/>
 <path fill="none" stroke="rgb(0,0,0)" stroke-linejoin="round" d="M 8529,10851 L 8529,10701"/>
 <path fill="none" stroke="rgb(0,0,0)" stroke-linejoin="round" d="M 8679,10851 L 8679,10701"/>
 <path fill="none" stroke="rgb(0,0,0)" stroke-linejoin="round" d="M 8679,10851 L 8679,10701"/>
 <path fill="none" stroke="rgb(0,0,0)" stroke-linejoin="round" d="M 8830,10851 L 8830,10701"/>
 <path fill="none" stroke="rgb(0,0,0)" stroke-linejoin="round" d="M 8830,10851 L 8830,10701"/>
 <path fill="none" stroke="rgb(0,0,0)" stroke-linejoin="round" d="M 8980,10851 L 8980,10701"/>
 <path fill="none" stroke="rgb(0,0,0)" stroke-linejoin="round" d="M 8980,10851 L 8980,10701"/>
 <path fill="none" stroke="rgb(0,0,0)" stroke-linejoin="round" d="M 9130,10851 L 9130,10701"/>
 <path fill="none" stroke="rgb(0,0,0)" stroke-linejoin="round" d="M 9130,10851 L 9130,10701"/>
 <path fill="none" stroke="rgb(0,0,0)" stroke-linejoin="round" d="M 9280,10851 L 9280,10701"/>
 <path fill="none" stroke="rgb(0,0,0)" stroke-linejoin="round" d="M 9280,10851 L 9280,10701"/>
 <path fill="none" stroke="rgb(0,0,0)" stroke-linejoin="round" d="M 9430,10851 L 9430,10701"/>
 <path fill="none" stroke="rgb(0,0,0)" stroke-linejoin="round" d="M 9430,10851 L 9430,10701"/>
 <path fill="none" stroke="rgb(0,0,0)" stroke-linejoin="round" d="M 9581,10851 L 9581,10701"/>
 <path fill="none" stroke="rgb(0,0,0)" stroke-linejoin="round" d="M 9581,10851 L 9581,10701"/>
 <path fill="none" stroke="rgb(0,0,0)" stroke-linejoin="round" d="M 9731,10851 L 9731,10701"/>
 <path fill="none" stroke="rgb(0,0,0)" stroke-linejoin="round" d="M 9731,10851 L 9731,10701"/>
 <path fill="none" stroke="rgb(0,0,0)" stroke-linejoin="round" d="M 9881,10851 L 9881,10701"/>
 <path fill="none" stroke="rgb(0,0,0)" stroke-linejoin="round" d="M 9881,10851 L 9881,10701"/>
 <path fill="none" stroke="rgb(0,0,0)" stroke-linejoin="round" d="M 10031,10851 L 10031,10701"/>
 <path fill="none" stroke="rgb(0,0,0)" stroke-linejoin="round" d="M 10031,10851 L 10031,10701"/>
 <path fill="none" stroke="rgb(0,0,0)" stroke-linejoin="round" d="M 10181,10851 L 10181,10701"/>
 <path fill="none" stroke="rgb(0,0,0)" stroke-linejoin="round" d="M 10181,10851 L 10181,10701"/>
 <path fill="none" stroke="rgb(0,0,0)" stroke-linejoin="round" d="M 10332,10851 L 10332,10701"/>
 <path fill="none" stroke="rgb(0,0,0)" stroke-linejoin="round" d="M 10332,10851 L 10332,10701"/>
 <path fill="none" stroke="rgb(0,0,0)" stroke-linejoin="round" d="M 10482,10851 L 10482,10701"/>
 <path fill="none" stroke="rgb(0,0,0)" stroke-linejoin="round" d="M 10482,10851 L 10482,10701"/>
 <path fill="none" stroke="rgb(0,0,0)" stroke-linejoin="round" d="M 10632,10851 L 10632,10701"/>
 <path fill="none" stroke="rgb(0,0,0)" stroke-linejoin="round" d="M 10632,10851 L 10632,10701"/>
 <path fill="none" stroke="rgb(0,0,0)" stroke-linejoin="round" d="M 10782,10851 L 10782,10701"/>
 <path fill="none" stroke="rgb(0,0,0)" stroke-linejoin="round" d="M 10782,10851 L 10782,10701"/>
 <path fill="none" stroke="rgb(0,0,0)" stroke-linejoin="round" d="M 10932,10851 L 10932,10701"/>
 <path fill="none" stroke="rgb(0,0,0)" stroke-linejoin="round" d="M 10932,10851 L 10932,10701"/>
 <path fill="none" stroke="rgb(0,0,0)" stroke-linejoin="round" d="M 11083,10851 L 11083,10701"/>
 <path fill="none" stroke="rgb(0,0,0)" stroke-linejoin="round" d="M 11083,10851 L 11083,10701"/>
 <path fill="none" stroke="rgb(0,0,0)" stroke-linejoin="round" d="M 11233,10851 L 11233,10701"/>
 <path fill="none" stroke="rgb(0,0,0)" stroke-linejoin="round" d="M 11233,10851 L 11233,10701"/>
 <path fill="none" stroke="rgb(0,0,0)" stroke-linejoin="round" d="M 11383,10851 L 11383,10701"/>
 <path fill="none" stroke="rgb(0,0,0)" stroke-linejoin="round" d="M 11383,10851 L 11383,10701"/>
 <path fill="none" stroke="rgb(0,0,0)" stroke-linejoin="round" d="M 11533,10851 L 11533,10701"/>
 <path fill="none" stroke="rgb(0,0,0)" stroke-linejoin="round" d="M 11533,10851 L 11533,10701"/>
 <path fill="none" stroke="rgb(0,0,0)" stroke-linejoin="round" d="M 11683,10851 L 11683,10701"/>
 <path fill="none" stroke="rgb(0,0,0)" stroke-linejoin="round" d="M 11683,10851 L 11683,10701"/>
 <path fill="none" stroke="rgb(0,0,0)" stroke-linejoin="round" d="M 11834,10851 L 11834,10701"/>
 <path fill="none" stroke="rgb(0,0,0)" stroke-linejoin="round" d="M 11834,10851 L 11834,10701"/>
 <path fill="none" stroke="rgb(0,0,0)" stroke-linejoin="round" d="M 11984,10851 L 11984,10701"/>
 <path fill="none" stroke="rgb(0,0,0)" stroke-linejoin="round" d="M 11984,10851 L 11984,10701"/>
 <path fill="none" stroke="rgb(0,0,0)" stroke-linejoin="round" d="M 12134,10851 L 12134,10701"/>
 <path fill="none" stroke="rgb(0,0,0)" stroke-linejoin="round" d="M 12134,10851 L 12134,10701"/>
 <path fill="none" stroke="rgb(0,0,0)" stroke-linejoin="round" d="M 12284,10851 L 12284,10701"/>
 <path fill="none" stroke="rgb(0,0,0)" stroke-linejoin="round" d="M 12284,10851 L 12284,10701"/>
 <path fill="none" stroke="rgb(0,0,0)" stroke-linejoin="round" d="M 12434,10851 L 12434,10701"/>
 <path fill="none" stroke="rgb(0,0,0)" stroke-linejoin="round" d="M 12434,10851 L 12434,10701"/>
 <path fill="none" stroke="rgb(0,0,0)" stroke-linejoin="round" d="M 12585,10851 L 12585,10701"/>
 <path fill="none" stroke="rgb(0,0,0)" stroke-linejoin="round" d="M 12585,10851 L 12585,10701"/>
 <path fill="none" stroke="rgb(0,0,0)" stroke-linejoin="round" d="M 12735,10851 L 12735,10701"/>
 <path fill="none" stroke="rgb(0,0,0)" stroke-linejoin="round" d="M 12735,10851 L 12735,10701"/>
 <path fill="none" stroke="rgb(0,0,0)" stroke-linejoin="round" d="M 12885,10851 L 12885,10701"/>
 <path fill="none" stroke="rgb(0,0,0)" stroke-linejoin="round" d="M 12885,10851 L 12885,10701"/>
 <path fill="none" stroke="rgb(0,0,0)" stroke-linejoin="round" d="M 13035,10851 L 13035,10701"/>
 <path fill="none" stroke="rgb(0,0,0)" stroke-linejoin="round" d="M 13035,10851 L 13035,10701"/>
 <path fill="none" stroke="rgb(0,0,0)" stroke-linejoin="round" d="M 13185,10851 L 13185,10701"/>
 <path fill="none" stroke="rgb(0,0,0)" stroke-linejoin="round" d="M 13185,10851 L 13185,10701"/>
 <path fill="none" stroke="rgb(0,0,0)" stroke-linejoin="round" d="M 13336,10851 L 13336,10701"/>
 <path fill="none" stroke="rgb(0,0,0)" stroke-linejoin="round" d="M 13336,10851 L 13336,10701"/>
 <path fill="none" stroke="rgb(0,0,0)" stroke-linejoin="round" d="M 13486,10851 L 13486,10701"/>
 <path fill="none" stroke="rgb(0,0,0)" stroke-linejoin="round" d="M 13486,10851 L 13486,10701"/>
 <path fill="none" stroke="rgb(0,0,0)" stroke-linejoin="round" d="M 13636,10851 L 13636,10701"/>
 <path fill="none" stroke="rgb(0,0,0)" stroke-linejoin="round" d="M 13636,10851 L 13636,10701"/>
 <path fill="none" stroke="rgb(0,0,0)" stroke-linejoin="round" d="M 13786,10851 L 13786,10701"/>
 <path fill="none" stroke="rgb(0,0,0)" stroke-linejoin="round" d="M 13786,10851 L 13786,10701"/>
 <path fill="none" stroke="rgb(0,0,0)" stroke-linejoin="round" d="M 13936,10851 L 13936,10701"/>
 <path fill="none" stroke="rgb(0,0,0)" stroke-linejoin="round" d="M 13936,10851 L 13936,10701"/>
 <path fill="none" stroke="rgb(0,0,0)" stroke-linejoin="round" d="M 14087,10851 L 14087,10701"/>
 <path fill="none" stroke="rgb(0,0,0)" stroke-linejoin="round" d="M 14087,10851 L 14087,10701"/>
 <path fill="none" stroke="rgb(0,0,0)" stroke-linejoin="round" d="M 14237,10851 L 14237,10701"/>
 <path fill="none" stroke="rgb(0,0,0)" stroke-linejoin="round" d="M 14237,10851 L 14237,10701"/>
 <path fill="none" stroke="rgb(0,0,0)" stroke-linejoin="round" d="M 14387,10851 L 14387,10701"/>
 <path fill="none" stroke="rgb(0,0,0)" stroke-linejoin="round" d="M 14387,10851 L 14387,10701"/>
 <path fill="none" stroke="rgb(0,0,0)" stroke-linejoin="round" d="M 14537,10851 L 14537,10701"/>
 <path fill="none" stroke="rgb(0,0,0)" stroke-linejoin="round" d="M 14537,10851 L 14537,10701"/>
 <path fill="none" stroke="rgb(0,0,0)" stroke-linejoin="round" d="M 14687,10851 L 14687,10701"/>
 <path fill="none" stroke="rgb(0,0,0)" stroke-linejoin="round" d="M 14687,10851 L 14687,10701"/>
 <path fill="none" stroke="rgb(0,0,0)" stroke-linejoin="round" d="M 1321,10701 L 14687,10701"/>
 <path fill="none" stroke="rgb(0,0,0)" stroke-linejoin="round" d="M 1171,10701 L 1321,10701"/>
 <path fill="none" stroke="rgb(0,0,0)" stroke-linejoin="round" d="M 1171,10701 L 1321,10701"/>
 <path fill="none" stroke="rgb(0,0,0)" stroke-linejoin="round" d="M 1171,9740 L 1321,9740"/>
 <path fill="none" stroke="rgb(0,0,0)" stroke-linejoin="round" d="M 1171,9740 L 1321,9740"/>
 <path fill="none" stroke="rgb(0,0,0)" stroke-linejoin="round" d="M 1171,8779 L 1321,8779"/>
 <path fill="none" stroke="rgb(0,0,0)" stroke-linejoin="round" d="M 1171,8779 L 1321,8779"/>
 <path fill="none" stroke="rgb(0,0,0)" stroke-linejoin="round" d="M 1171,7818 L 1321,7818"/>
 <path fill="none" stroke="rgb(0,0,0)" stroke-linejoin="round" d="M 1171,7818 L 1321,7818"/>
 <path fill="none" stroke="rgb(0,0,0)" stroke-linejoin="round" d="M 1171,6857 L 1321,6857"/>
 <path fill="none" stroke="rgb(0,0,0)" stroke-linejoin="round" d="M 1171,6857 L 1321,6857"/>
 <path fill="none" stroke="rgb(0,0,0)" stroke-linejoin="round" d="M 1171,5898 L 1321,5898"/>
 <path fill="none" stroke="rgb(0,0,0)" stroke-linejoin="round" d="M 1171,5898 L 1321,5898"/>
 <path fill="none" stroke="rgb(0,0,0)" stroke-linejoin="round" d="M 1171,4937 L 1321,4937"/>
 <path fill="none" stroke="rgb(0,0,0)" stroke-linejoin="round" d="M 1171,4937 L 1321,4937"/>
 <path fill="none" stroke="rgb(0,0,0)" stroke-linejoin="round" d="M 1171,3976 L 1321,3976"/>
 <path fill="none" stroke="rgb(0,0,0)" stroke-linejoin="round" d="M 1171,3976 L 1321,3976"/>
 <path fill="none" stroke="rgb(0,0,0)" stroke-linejoin="round" d="M 1171,3015 L 1321,3015"/>
 <path fill="none" stroke="rgb(0,0,0)" stroke-linejoin="round" d="M 1171,3015 L 1321,3015"/>
 <path fill="none" stroke="rgb(0,0,0)" stroke-linejoin="round" d="M 1171,2054 L 1321,2054"/>
 <path fill="none" stroke="rgb(0,0,0)" stroke-linejoin="round" d="M 1171,2054 L 1321,2054"/>
 <path fill="none" stroke="rgb(0,0,0)" stroke-linejoin="round" d="M 1171,1094 L 1321,1094"/>
 <path fill="none" stroke="rgb(0,0,0)" stroke-linejoin="round" d="M 1171,1094 L 1321,1094"/>
 <path fill="none" stroke="rgb(0,0,0)" stroke-linejoin="round" d="M 1321,10701 L 1321,1094"/>
 <path fill="none" stroke="rgb(0,0,0)" stroke-linejoin="round" d="M 14837,10701 L 14687,10701"/>
 <path fill="none" stroke="rgb(0,0,0)" stroke-linejoin="round" d="M 14837,10701 L 14687,10701"/>
 <path fill="none" stroke="rgb(0,0,0)" stroke-linejoin="round" d="M 14837,9740 L 14687,9740"/>
 <path fill="none" stroke="rgb(0,0,0)" stroke-linejoin="round" d="M 14837,9740 L 14687,9740"/>
 <path fill="none" stroke="rgb(0,0,0)" stroke-linejoin="round" d="M 14837,8779 L 14687,8779"/>
 <path fill="none" stroke="rgb(0,0,0)" stroke-linejoin="round" d="M 14837,8779 L 14687,8779"/>
 <path fill="none" stroke="rgb(0,0,0)" stroke-linejoin="round" d="M 14837,7818 L 14687,7818"/>
 <path fill="none" stroke="rgb(0,0,0)" stroke-linejoin="round" d="M 14837,7818 L 14687,7818"/>
 <path fill="none" stroke="rgb(0,0,0)" stroke-linejoin="round" d="M 14837,6857 L 14687,6857"/>
 <path fill="none" stroke="rgb(0,0,0)" stroke-linejoin="round" d="M 14837,6857 L 14687,6857"/>
 <path fill="none" stroke="rgb(0,0,0)" stroke-linejoin="round" d="M 14837,5898 L 14687,5898"/>
 <path fill="none" stroke="rgb(0,0,0)" stroke-linejoin="round" d="M 14837,5898 L 14687,5898"/>
 <path fill="none" stroke="rgb(0,0,0)" stroke-linejoin="round" d="M 14837,4937 L 14687,4937"/>
 <path fill="none" stroke="rgb(0,0,0)" stroke-linejoin="round" d="M 14837,4937 L 14687,4937"/>
 <path fill="none" stroke="rgb(0,0,0)" stroke-linejoin="round" d="M 14837,3976 L 14687,3976"/>
 <path fill="none" stroke="rgb(0,0,0)" stroke-linejoin="round" d="M 14837,3976 L 14687,3976"/>
 <path fill="none" stroke="rgb(0,0,0)" stroke-linejoin="round" d="M 14837,3015 L 14687,3015"/>
 <path fill="none" stroke="rgb(0,0,0)" stroke-linejoin="round" d="M 14837,3015 L 14687,3015"/>
 <path fill="none" stroke="rgb(0,0,0)" stroke-linejoin="round" d="M 14837,2054 L 14687,2054"/>
 <path fill="none" stroke="rgb(0,0,0)" stroke-linejoin="round" d="M 14837,2054 L 14687,2054"/>
 <path fill="none" stroke="rgb(0,0,0)" stroke-linejoin="round" d="M 14837,1094 L 14687,1094"/>
 <path fill="none" stroke="rgb(0,0,0)" stroke-linejoin="round" d="M 14837,1094 L 14687,1094"/>
 <path fill="none" stroke="rgb(0,0,0)" stroke-linejoin="round" d="M 14687,10701 L 14687,1094"/>
 <path fill="rgb(0,71,255)" stroke="none" d="M 1321,1203 L 1471,1212 1621,1222 1771,1251 1921,1267 2072,1272 2222,1290 2372,1300 2522,1313 2672,1313 2823,1348 2973,1360 3123,1384 3273,1384 3423,1401 3574,1450 3724,1486 3874,1496 4024,1497 4174,1549 4325,1582 4475,1610 4625,1657 4775,1747 4925,1704 5076,1654 5226,1774 5376,1863 5526,1974 5676,1815 5827,1813 5977,1820 6127,1866 6277,1906 6427,1982 6578,2003 6728,1979 6878,2115 7028,2125 7178,2172 7329,2270 7479,2423 7629,2290 7779,2192 7929,2220 8079,2248 8229,2347 8379,2454 8529,2236 8679,2336 8830,2421 8980,2438 9130,2630 9280,2760 9430,2642 9581,2733 9731,2858 9881,2858 10031,2795 10181,2881 10332,2797 10482,2680 10632,2765 10782,2832 10932,2759 11083,3112 11233,2935 11383,2956 11533,3288 11683,2961 11834,3055 11984,3149 12134,3031 12284,3340 12434,3444 12585,3271 12735,3496 12885,3658 13035,3655 13185,3963 13336,4204 13486,4176 13636,3778 13786,3804 13936,3905 14087,4252 14237,3945 14387,3971 14537,4190 14687,4125 14687,10701 1321,10701 1321,1203 Z"/>
 <path fill="none" stroke="rgb(0,0,0)" stroke-width="20" stroke-linejoin="round" d="M 1321,1203 L 1471,1212 1621,1222 1771,1251 1921,1267 2072,1272 2222,1290 2372,1300 2522,1313 2672,1313 2823,1348 2973,1360 3123,1384 3273,1384 3423,1401 3574,1450 3724,1486 3874,1496 4024,1497 4174,1549 4325,1582 4475,1610 4625,1657 4775,1747 4925,1704 5076,1654 5226,1774 5376,1863 5526,1974 5676,1815 5827,1813 5977,1820 6127,1866 6277,1906 6427,1982 6578,2003 6728,1979 6878,2115 7028,2125 7178,2172 7329,2270 7479,2423 7629,2290 7779,2192 7929,2220 8079,2248 8229,2347 8379,2454 8529,2236 8679,2336 8830,2421 8980,2438 9130,2630 9280,2760 9430,2642 9581,2733 9731,2858 9881,2858 10031,2795 10181,2881 10332,2797 10482,2680 10632,2765 10782,2832 10932,2759 11083,3112 11233,2935 11383,2956 11533,3288 11683,2961 11834,3055 11984,3149 12134,3031 12284,3340 12434,3444 12585,3271 12735,3496 12885,3658 13035,3655 13185,3963 13336,4204 13486,4176 13636,3778 13786,3804 13936,3905 14087,4252 14237,3945 14387,3971 14537,4190 14687,4125 14687,10701 1321,10701 1321,1203 Z"/>
 <path fill="rgb(174,207,0)" stroke="none" d="M 1321,1110 L 1471,1110 1621,1108 1771,1113 1921,1114 2072,1114 2222,1116 2372,1117 2522,1118 2672,1118 2823,1117 2973,1113 3123,1115 3273,1111 3423,1118 3574,1119 3724,1122 3874,1123 4024,1120 4174,1123 4325,1121 4475,1128 4625,1129 4775,1135 4925,1129 5076,1124 5226,1127 5376,1126 5526,1131 5676,1119 5827,1121 5977,1118 6127,1120 6277,1120 6427,1119 6578,1121 6728,1120 6878,1126 7028,1124 7178,1131 7329,1138 7479,1159 7629,1138 7779,1141 7929,1147 8079,1152 8229,1153 8379,1165 8529,1152 8679,1158 8830,1156 8980,1157 9130,1172 9280,1187 9430,1167 9581,1175 9731,1131 9881,1131 10031,1132 10181,1136 10332,1130 10482,1126 10632,1127 10782,1133 10932,1183 11083,1178 11233,1172 11383,1170 11533,1164 11683,1152 11834,1144 11984,1130 12134,1122 12284,1128 12434,1134 12585,1133 12735,1147 12885,1162 13035,1167 13185,1171 13336,1186 13486,1168 13636,1163 13786,1143 13936,1150 14087,1161 14237,1161 14387,1152 14537,1175 14687,1165 14687,4125 14537,4190 14387,3971 14237,3945 14087,4252 13936,3905 13786,3804 13636,3778 13486,4176 13336,4204 13185,3963 13035,3655 12885,3658 12735,3496 12585,3271 12434,3444 12284,3340 12134,3031 11984,3149 11834,3055 11683,2961 11533,3288 11383,2956 11233,2935 11083,3112 10932,2759 10782,2832 10632,2765 10482,2680 10332,2797 10181,2881 10031,2795 9881,2858 9731,2858 9581,2733 9430,2642 9280,2760 9130,2630 8980,2438 8830,2421 8679,2336 8529,2236 8379,2454 8229,2347 8079,2248 7929,2220 7779,2192 7629,2290 7479,2423 7329,2270 7178,2172 7028,2125 6878,2115 6728,1979 6578,2003 6427,1982 6277,1906 6127,1866 5977,1820 5827,1813 5676,1815 5526,1974 5376,1863 5226,1774 5076,1654 4925,1704 4775,1747 4625,1657 4475,1610 4325,1582 4174,1549 4024,1497 3874,1496 3724,1486 3574,1450 3423,1401 3273,1384 3123,1384 2973,1360 2823,1348 2672,1313 2522,1313 2372,1300 2222,1290 2072,1272 1921,1267 1771,1251 1621,1222 1471,1212 1321,1203 1321,1110 Z"/>
 <path fill="none" stroke="rgb(0,0,0)" stroke-width="20" stroke-linejoin="round" d="M 1321,1110 L 1471,1110 1621,1108 1771,1113 1921,1114 2072,1114 2222,1116 2372,1117 2522,1118 2672,1118 2823,1117 2973,1113 3123,1115 3273,1111 3423,1118 3574,1119 3724,1122 3874,1123 4024,1120 4174,1123 4325,1121 4475,1128 4625,1129 4775,1135 4925,1129 5076,1124 5226,1127 5376,1126 5526,1131 5676,1119 5827,1121 5977,1118 6127,1120 6277,1120 6427,1119 6578,1121 6728,1120 6878,1126 7028,1124 7178,1131 7329,1138 7479,1159 7629,1138 7779,1141 7929,1147 8079,1152 8229,1153 8379,1165 8529,1152 8679,1158 8830,1156 8980,1157 9130,1172 9280,1187 9430,1167 9581,1175 9731,1131 9881,1131 10031,1132 10181,1136 10332,1130 10482,1126 10632,1127 10782,1133 10932,1183 11083,1178 11233,1172 11383,1170 11533,1164 11683,1152 11834,1144 11984,1130 12134,1122 12284,1128 12434,1134 12585,1133 12735,1147 12885,1162 13035,1167 13185,1171 13336,1186 13486,1168 13636,1163 13786,1143 13936,1150 14087,1161 14237,1161 14387,1152 14537,1175 14687,1165 14687,4125 14537,4190 14387,3971 14237,3945 14087,4252 13936,3905 13786,3804 13636,3778 13486,4176 13336,4204 13185,3963 13035,3655 12885,3658 12735,3496 12585,3271 12434,3444 12284,3340 12134,3031 11984,3149 11834,3055 11683,2961 11533,3288 11383,2956 11233,2935 11083,3112 10932,2759 10782,2832 10632,2765 10482,2680 10332,2797 10181,2881 10031,2795 9881,2858 9731,2858 9581,2733 9430,2642 9280,2760 9130,2630 8980,2438 8830,2421 8679,2336 8529,2236 8379,2454 8229,2347 8079,2248 7929,2220 7779,2192 7629,2290 7479,2423 7329,2270 7178,2172 7028,2125 6878,2115 6728,1979 6578,2003 6427,1982 6277,1906 6127,1866 5977,1820 5827,1813 5676,1815 5526,1974 5376,1863 5226,1774 5076,1654 4925,1704 4775,1747 4625,1657 4475,1610 4325,1582 4174,1549 4024,1497 3874,1496 3724,1486 3574,1450 3423,1401 3273,1384 3123,1384 2973,1360 2823,1348 2672,1313 2522,1313 2372,1300 2222,1290 2072,1272 1921,1267 1771,1251 1621,1222 1471,1212 1321,1203 1321,1110 Z"/>
 <text class="TextShape"><tspan class="TextParagraph" font-family="Arial, sans-serif" font-size="388px" font-weight="400"><tspan class="TextPosition" x="1497" y="11295"><tspan fill="rgb(0,0,0)" stroke="none">2010</tspan></tspan></tspan></text>
 <text class="TextShape"><tspan class="TextParagraph" font-family="Arial, sans-serif" font-size="388px" font-weight="400"><tspan class="TextPosition" x="3314" y="11295"><tspan fill="rgb(0,0,0)" stroke="none">2011</tspan></tspan></tspan></text>
 <text class="TextShape"><tspan class="TextParagraph" font-family="Arial, sans-serif" font-size="388px" font-weight="400"><tspan class="TextPosition" x="5102" y="11295"><tspan fill="rgb(0,0,0)" stroke="none">2012</tspan></tspan></tspan></text>
 <text class="TextShape"><tspan class="TextParagraph" font-family="Arial, sans-serif" font-size="388px" font-weight="400"><tspan class="TextPosition" x="6905" y="11295"><tspan fill="rgb(0,0,0)" stroke="none">2013</tspan></tspan></tspan></text>
 <text class="TextShape"><tspan class="TextParagraph" font-family="Arial, sans-serif" font-size="388px" font-weight="400"><tspan class="TextPosition" x="8707" y="11295"><tspan fill="rgb(0,0,0)" stroke="none">2014</tspan></tspan></tspan></text>
 <text class="TextShape"><tspan class="TextParagraph" font-family="Arial, sans-serif" font-size="388px" font-weight="400"><tspan class="TextPosition" x="10660" y="11295"><tspan fill="rgb(0,0,0)" stroke="none">2015</tspan></tspan></tspan></text>
 <text class="TextShape"><tspan class="TextParagraph" font-family="Arial, sans-serif" font-size="388px" font-weight="400"><tspan class="TextPosition" x="12462" y="11295"><tspan fill="rgb(0,0,0)" stroke="none">2016</tspan></tspan></tspan></text>
 <text class="TextShape"><tspan class="TextParagraph" font-family="Arial, sans-serif" font-size="388px" font-weight="400"><tspan class="TextPosition" x="14264" y="11295"><tspan fill="rgb(0,0,0)" stroke="none">2017</tspan></tspan></tspan></text>
 <text class="TextShape"><tspan class="TextParagraph" font-family="Arial, sans-serif" font-size="388px" font-weight="400"><tspan class="TextPosition" x="515" y="10835"><tspan fill="rgb(0,0,0)" stroke="none">0%</tspan></tspan></tspan></text>
 <text class="TextShape"><tspan class="TextParagraph" font-family="Arial, sans-serif" font-size="388px" font-weight="400"><tspan class="TextPosition" x="304" y="9874"><tspan fill="rgb(0,0,0)" stroke="none">10%</tspan></tspan></tspan></text>
 <text class="TextShape"><tspan class="TextParagraph" font-family="Arial, sans-serif" font-size="388px" font-weight="400"><tspan class="TextPosition" x="304" y="8913"><tspan fill="rgb(0,0,0)" stroke="none">20%</tspan></tspan></tspan></text>
 <text class="TextShape"><tspan class="TextParagraph" font-family="Arial, sans-serif" font-size="388px" font-weight="400"><tspan class="TextPosition" x="304" y="7952"><tspan fill="rgb(0,0,0)" stroke="none">30%</tspan></tspan></tspan></text>
 <text class="TextShape"><tspan class="TextParagraph" font-family="Arial, sans-serif" font-size="388px" font-weight="400"><tspan class="TextPosition" x="304" y="6991"><tspan fill="rgb(0,0,0)" stroke="none">40%</tspan></tspan></tspan></text>
 <text class="TextShape"><tspan class="TextParagraph" font-family="Arial, sans-serif" font-size="388px" font-weight="400"><tspan class="TextPosition" x="304" y="6031"><tspan fill="rgb(0,0,0)" stroke="none">50%</tspan></tspan></tspan></text>
 <text class="TextShape"><tspan class="TextParagraph" font-family="Arial, sans-serif" font-size="388px" font-weight="400"><tspan class="TextPosition" x="304" y="5070"><tspan fill="rgb(0,0,0)" stroke="none">60%</tspan></tspan></tspan></text>
 <text class="TextShape"><tspan class="TextParagraph" font-family="Arial, sans-serif" font-size="388px" font-weight="400"><tspan class="TextPosition" x="304" y="4109"><tspan fill="rgb(0,0,0)" stroke="none">70%</tspan></tspan></tspan></text>
 <text class="TextShape"><tspan class="TextParagraph" font-family="Arial, sans-serif" font-size="388px" font-weight="400"><tspan class="TextPosition" x="304" y="3148"><tspan fill="rgb(0,0,0)" stroke="none">80%</tspan></tspan></tspan></text>
 <text class="TextShape"><tspan class="TextParagraph" font-family="Arial, sans-serif" font-size="388px" font-weight="400"><tspan class="TextPosition" x="304" y="2187"><tspan fill="rgb(0,0,0)" stroke="none">90%</tspan></tspan></tspan></text>
 <text class="TextShape"><tspan class="TextParagraph" font-family="Arial, sans-serif" font-size="388px" font-weight="400"><tspan class="TextPosition" x="92" y="1227"><tspan fill="rgb(0,0,0)" stroke="none">100%</tspan></tspan></tspan></text>
 <text class="TextShape"><tspan class="TextParagraph" font-family="Arial, sans-serif" font-size="388px" font-weight="400"><tspan class="TextPosition" x="14937" y="10835"><tspan fill="rgb(0,0,0)" stroke="none">0%</tspan></tspan></tspan></text>
 <text class="TextShape"><tspan class="TextParagraph" font-family="Arial, sans-serif" font-size="388px" font-weight="400"><tspan class="TextPosition" x="14937" y="9874"><tspan fill="rgb(0,0,0)" stroke="none">10%</tspan></tspan></tspan></text>
 <text class="TextShape"><tspan class="TextParagraph" font-family="Arial, sans-serif" font-size="388px" font-weight="400"><tspan class="TextPosition" x="14937" y="8913"><tspan fill="rgb(0,0,0)" stroke="none">20%</tspan></tspan></tspan></text>
 <text class="TextShape"><tspan class="TextParagraph" font-family="Arial, sans-serif" font-size="388px" font-weight="400"><tspan class="TextPosition" x="14937" y="7952"><tspan fill="rgb(0,0,0)" stroke="none">30%</tspan></tspan></tspan></text>
 <text class="TextShape"><tspan class="TextParagraph" font-family="Arial, sans-serif" font-size="388px" font-weight="400"><tspan class="TextPosition" x="14937" y="6991"><tspan fill="rgb(0,0,0)" stroke="none">40%</tspan></tspan></tspan></text>
 <text class="TextShape"><tspan class="TextParagraph" font-family="Arial, sans-serif" font-size="388px" font-weight="400"><tspan class="TextPosition" x="14937" y="6031"><tspan fill="rgb(0,0,0)" stroke="none">50%</tspan></tspan></tspan></text>
 <text class="TextShape"><tspan class="TextParagraph" font-family="Arial, sans-serif" font-size="388px" font-weight="400"><tspan class="TextPosition" x="14937" y="5070"><tspan fill="rgb(0,0,0)" stroke="none">60%</tspan></tspan></tspan></text>
 <text class="TextShape"><tspan class="TextParagraph" font-family="Arial, sans-serif" font-size="388px" font-weight="400"><tspan class="TextPosition" x="14937" y="4109"><tspan fill="rgb(0,0,0)" stroke="none">70%</tspan></tspan></tspan></text>
 <text class="TextShape"><tspan class="TextParagraph" font-family="Arial, sans-serif" font-size="388px" font-weight="400"><tspan class="TextPosition" x="14937" y="3148"><tspan fill="rgb(0,0,0)" stroke="none">80%</tspan></tspan></tspan></text>
 <text class="TextShape"><tspan class="TextParagraph" font-family="Arial, sans-serif" font-size="388px" font-weight="400"><tspan class="TextPosition" x="14937" y="2187"><tspan fill="rgb(0,0,0)" stroke="none">90%</tspan></tspan></tspan></text>
 <text class="TextShape"><tspan class="TextParagraph" font-family="Arial, sans-serif" font-size="388px" font-weight="400"><tspan class="TextPosition" x="14937" y="1227"><tspan fill="rgb(0,0,0)" stroke="none">100%</tspan></tspan></tspan></text>
 <text class="TextShape"><tspan class="TextParagraph" font-family="Arial, sans-serif" font-size="564px" font-weight="400"><tspan class="TextPosition" x="1771" y="674"><tspan fill="rgb(0,0,0)" stroke="none">Tipo de dispositivo con el que se accede a la web</tspan></tspan></tspan></text>
 <path fill="rgb(0,71,255)" stroke="none" d="M 8501,11713 L 8385,11713 8385,11481 8617,11481 8617,11713 8501,11713 Z"/>
 <path fill="none" stroke="rgb(0,0,0)" stroke-linejoin="round" d="M 8501,11713 L 8385,11713 8385,11481 8617,11481 8617,11713 8501,11713 Z"/>
 <path fill="rgb(174,207,0)" stroke="none" d="M 5757,11713 L 5641,11713 5641,11481 5873,11481 5873,11713 5757,11713 Z"/>
 <path fill="none" stroke="rgb(0,0,0)" stroke-linejoin="round" d="M 5757,11713 L 5641,11713 5641,11481 5873,11481 5873,11713 5757,11713 Z"/>
 <text class="TextShape"><tspan class="TextParagraph" font-family="Arial, sans-serif" font-size="388px" font-weight="400"><tspan class="TextPosition" x="5973" y="11729"><tspan fill="rgb(0,0,0)" stroke="none">Móvil / Tablet</tspan></tspan></tspan></text>
 <text class="TextShape"><tspan class="TextParagraph" font-family="Arial, sans-serif" font-size="388px" font-weight="400"><tspan class="TextPosition" x="8717" y="11729"><tspan fill="rgb(0,0,0)" stroke="none">Escritorio</tspan></tspan></tspan></text>
</svg>
