<?xml version="1.0" encoding="UTF-8"?>
<!DOCTYPE svg PUBLIC "-//W3C//DTD SVG 1.1//EN" "http://www.w3.org/Graphics/SVG/1.1/DTD/svg11.dtd">
<svg width="160mm" height="120mm" viewBox="0 0 16000 12000" version="1.1" xmlns="http://www.w3.org/2000/svg" stroke-width="28.222" stroke-linejoin="round" xml:space="preserve">
 <path fill="rgb(255,255,255)" stroke="none" d="M 8000,12002 L 0,12002 0,0 16000,0 16000,12002 8000,12002 Z"/>
 <path fill="none" stroke="rgb(179,179,179)" stroke-linejoin="round" d="M 8025,10551 L 1363,10551 1363,1093 14688,1093 14688,10551 8025,10551 Z"/>
 <path fill="none" stroke="rgb(0,0,0)" stroke-linejoin="round" d="M 14688,10550 L 1363,10550"/>
 <path fill="none" stroke="rgb(0,0,0)" stroke-linejoin="round" d="M 14688,9604 L 1363,9604"/>
 <path fill="none" stroke="rgb(0,0,0)" stroke-linejoin="round" d="M 14688,8658 L 1363,8658"/>
 <path fill="none" stroke="rgb(0,0,0)" stroke-linejoin="round" d="M 14688,7712 L 1363,7712"/>
 <path fill="none" stroke="rgb(0,0,0)" stroke-linejoin="round" d="M 14688,6766 L 1363,6766"/>
 <path fill="none" stroke="rgb(0,0,0)" stroke-linejoin="round" d="M 14688,5821 L 1363,5821"/>
 <path fill="none" stroke="rgb(0,0,0)" stroke-linejoin="round" d="M 14688,4875 L 1363,4875"/>
 <path fill="none" stroke="rgb(0,0,0)" stroke-linejoin="round" d="M 14688,3929 L 1363,3929"/>
 <path fill="none" stroke="rgb(0,0,0)" stroke-linejoin="round" d="M 14688,2983 L 1363,2983"/>
 <path fill="none" stroke="rgb(0,0,0)" stroke-linejoin="round" d="M 14688,2037 L 1363,2037"/>
 <path fill="none" stroke="rgb(0,0,0)" stroke-linejoin="round" d="M 14688,1092 L 1363,1092"/>
 <path fill="none" stroke="rgb(0,0,0)" stroke-linejoin="round" d="M 1363,10700 L 1363,10550"/>
 <path fill="none" stroke="rgb(0,0,0)" stroke-linejoin="round" d="M 1363,10700 L 1363,10550"/>
 <path fill="none" stroke="rgb(0,0,0)" stroke-linejoin="round" d="M 1484,10700 L 1484,10550"/>
 <path fill="none" stroke="rgb(0,0,0)" stroke-linejoin="round" d="M 1484,10700 L 1484,10550"/>
 <path fill="none" stroke="rgb(0,0,0)" stroke-linejoin="round" d="M 1605,10700 L 1605,10550"/>
 <path fill="none" stroke="rgb(0,0,0)" stroke-linejoin="round" d="M 1605,10700 L 1605,10550"/>
 <path fill="none" stroke="rgb(0,0,0)" stroke-linejoin="round" d="M 1726,10700 L 1726,10550"/>
 <path fill="none" stroke="rgb(0,0,0)" stroke-linejoin="round" d="M 1726,10700 L 1726,10550"/>
 <path fill="none" stroke="rgb(0,0,0)" stroke-linejoin="round" d="M 1847,10700 L 1847,10550"/>
 <path fill="none" stroke="rgb(0,0,0)" stroke-linejoin="round" d="M 1847,10700 L 1847,10550"/>
 <path fill="none" stroke="rgb(0,0,0)" stroke-linejoin="round" d="M 1968,10700 L 1968,10550"/>
 <path fill="none" stroke="rgb(0,0,0)" stroke-linejoin="round" d="M 1968,10700 L 1968,10550"/>
 <path fill="none" stroke="rgb(0,0,0)" stroke-linejoin="round" d="M 2089,10700 L 2089,10550"/>
 <path fill="none" stroke="rgb(0,0,0)" stroke-linejoin="round" d="M 2089,10700 L 2089,10550"/>
 <path fill="none" stroke="rgb(0,0,0)" stroke-linejoin="round" d="M 2211,10700 L 2211,10550"/>
 <path fill="none" stroke="rgb(0,0,0)" stroke-linejoin="round" d="M 2211,10700 L 2211,10550"/>
 <path fill="none" stroke="rgb(0,0,0)" stroke-linejoin="round" d="M 2332,10700 L 2332,10550"/>
 <path fill="none" stroke="rgb(0,0,0)" stroke-linejoin="round" d="M 2332,10700 L 2332,10550"/>
 <path fill="none" stroke="rgb(0,0,0)" stroke-linejoin="round" d="M 2453,10700 L 2453,10550"/>
 <path fill="none" stroke="rgb(0,0,0)" stroke-linejoin="round" d="M 2453,10700 L 2453,10550"/>
 <path fill="none" stroke="rgb(0,0,0)" stroke-linejoin="round" d="M 2574,10700 L 2574,10550"/>
 <path fill="none" stroke="rgb(0,0,0)" stroke-linejoin="round" d="M 2574,10700 L 2574,10550"/>
 <path fill="none" stroke="rgb(0,0,0)" stroke-linejoin="round" d="M 2695,10700 L 2695,10550"/>
 <path fill="none" stroke="rgb(0,0,0)" stroke-linejoin="round" d="M 2695,10700 L 2695,10550"/>
 <path fill="none" stroke="rgb(0,0,0)" stroke-linejoin="round" d="M 2816,10700 L 2816,10550"/>
 <path fill="none" stroke="rgb(0,0,0)" stroke-linejoin="round" d="M 2816,10700 L 2816,10550"/>
 <path fill="none" stroke="rgb(0,0,0)" stroke-linejoin="round" d="M 2937,10700 L 2937,10550"/>
 <path fill="none" stroke="rgb(0,0,0)" stroke-linejoin="round" d="M 2937,10700 L 2937,10550"/>
 <path fill="none" stroke="rgb(0,0,0)" stroke-linejoin="round" d="M 3059,10700 L 3059,10550"/>
 <path fill="none" stroke="rgb(0,0,0)" stroke-linejoin="round" d="M 3059,10700 L 3059,10550"/>
 <path fill="none" stroke="rgb(0,0,0)" stroke-linejoin="round" d="M 3180,10700 L 3180,10550"/>
 <path fill="none" stroke="rgb(0,0,0)" stroke-linejoin="round" d="M 3180,10700 L 3180,10550"/>
 <path fill="none" stroke="rgb(0,0,0)" stroke-linejoin="round" d="M 3301,10700 L 3301,10550"/>
 <path fill="none" stroke="rgb(0,0,0)" stroke-linejoin="round" d="M 3301,10700 L 3301,10550"/>
 <path fill="none" stroke="rgb(0,0,0)" stroke-linejoin="round" d="M 3422,10700 L 3422,10550"/>
 <path fill="none" stroke="rgb(0,0,0)" stroke-linejoin="round" d="M 3422,10700 L 3422,10550"/>
 <path fill="none" stroke="rgb(0,0,0)" stroke-linejoin="round" d="M 3543,10700 L 3543,10550"/>
 <path fill="none" stroke="rgb(0,0,0)" stroke-linejoin="round" d="M 3543,10700 L 3543,10550"/>
 <path fill="none" stroke="rgb(0,0,0)" stroke-linejoin="round" d="M 3664,10700 L 3664,10550"/>
 <path fill="none" stroke="rgb(0,0,0)" stroke-linejoin="round" d="M 3664,10700 L 3664,10550"/>
 <path fill="none" stroke="rgb(0,0,0)" stroke-linejoin="round" d="M 3785,10700 L 3785,10550"/>
 <path fill="none" stroke="rgb(0,0,0)" stroke-linejoin="round" d="M 3785,10700 L 3785,10550"/>
 <path fill="none" stroke="rgb(0,0,0)" stroke-linejoin="round" d="M 3907,10700 L 3907,10550"/>
 <path fill="none" stroke="rgb(0,0,0)" stroke-linejoin="round" d="M 3907,10700 L 3907,10550"/>
 <path fill="none" stroke="rgb(0,0,0)" stroke-linejoin="round" d="M 4028,10700 L 4028,10550"/>
 <path fill="none" stroke="rgb(0,0,0)" stroke-linejoin="round" d="M 4028,10700 L 4028,10550"/>
 <path fill="none" stroke="rgb(0,0,0)" stroke-linejoin="round" d="M 4149,10700 L 4149,10550"/>
 <path fill="none" stroke="rgb(0,0,0)" stroke-linejoin="round" d="M 4149,10700 L 4149,10550"/>
 <path fill="none" stroke="rgb(0,0,0)" stroke-linejoin="round" d="M 4270,10700 L 4270,10550"/>
 <path fill="none" stroke="rgb(0,0,0)" stroke-linejoin="round" d="M 4270,10700 L 4270,10550"/>
 <path fill="none" stroke="rgb(0,0,0)" stroke-linejoin="round" d="M 4391,10700 L 4391,10550"/>
 <path fill="none" stroke="rgb(0,0,0)" stroke-linejoin="round" d="M 4391,10700 L 4391,10550"/>
 <path fill="none" stroke="rgb(0,0,0)" stroke-linejoin="round" d="M 4512,10700 L 4512,10550"/>
 <path fill="none" stroke="rgb(0,0,0)" stroke-linejoin="round" d="M 4512,10700 L 4512,10550"/>
 <path fill="none" stroke="rgb(0,0,0)" stroke-linejoin="round" d="M 4633,10700 L 4633,10550"/>
 <path fill="none" stroke="rgb(0,0,0)" stroke-linejoin="round" d="M 4633,10700 L 4633,10550"/>
 <path fill="none" stroke="rgb(0,0,0)" stroke-linejoin="round" d="M 4755,10700 L 4755,10550"/>
 <path fill="none" stroke="rgb(0,0,0)" stroke-linejoin="round" d="M 4755,10700 L 4755,10550"/>
 <path fill="none" stroke="rgb(0,0,0)" stroke-linejoin="round" d="M 4876,10700 L 4876,10550"/>
 <path fill="none" stroke="rgb(0,0,0)" stroke-linejoin="round" d="M 4876,10700 L 4876,10550"/>
 <path fill="none" stroke="rgb(0,0,0)" stroke-linejoin="round" d="M 4997,10700 L 4997,10550"/>
 <path fill="none" stroke="rgb(0,0,0)" stroke-linejoin="round" d="M 4997,10700 L 4997,10550"/>
 <path fill="none" stroke="rgb(0,0,0)" stroke-linejoin="round" d="M 5118,10700 L 5118,10550"/>
 <path fill="none" stroke="rgb(0,0,0)" stroke-linejoin="round" d="M 5118,10700 L 5118,10550"/>
 <path fill="none" stroke="rgb(0,0,0)" stroke-linejoin="round" d="M 5239,10700 L 5239,10550"/>
 <path fill="none" stroke="rgb(0,0,0)" stroke-linejoin="round" d="M 5239,10700 L 5239,10550"/>
 <path fill="none" stroke="rgb(0,0,0)" stroke-linejoin="round" d="M 5360,10700 L 5360,10550"/>
 <path fill="none" stroke="rgb(0,0,0)" stroke-linejoin="round" d="M 5360,10700 L 5360,10550"/>
 <path fill="none" stroke="rgb(0,0,0)" stroke-linejoin="round" d="M 5481,10700 L 5481,10550"/>
 <path fill="none" stroke="rgb(0,0,0)" stroke-linejoin="round" d="M 5481,10700 L 5481,10550"/>
 <path fill="none" stroke="rgb(0,0,0)" stroke-linejoin="round" d="M 5603,10700 L 5603,10550"/>
 <path fill="none" stroke="rgb(0,0,0)" stroke-linejoin="round" d="M 5603,10700 L 5603,10550"/>
 <path fill="none" stroke="rgb(0,0,0)" stroke-linejoin="round" d="M 5724,10700 L 5724,10550"/>
 <path fill="none" stroke="rgb(0,0,0)" stroke-linejoin="round" d="M 5724,10700 L 5724,10550"/>
 <path fill="none" stroke="rgb(0,0,0)" stroke-linejoin="round" d="M 5845,10700 L 5845,10550"/>
 <path fill="none" stroke="rgb(0,0,0)" stroke-linejoin="round" d="M 5845,10700 L 5845,10550"/>
 <path fill="none" stroke="rgb(0,0,0)" stroke-linejoin="round" d="M 5966,10700 L 5966,10550"/>
 <path fill="none" stroke="rgb(0,0,0)" stroke-linejoin="round" d="M 5966,10700 L 5966,10550"/>
 <path fill="none" stroke="rgb(0,0,0)" stroke-linejoin="round" d="M 6087,10700 L 6087,10550"/>
 <path fill="none" stroke="rgb(0,0,0)" stroke-linejoin="round" d="M 6087,10700 L 6087,10550"/>
 <path fill="none" stroke="rgb(0,0,0)" stroke-linejoin="round" d="M 6208,10700 L 6208,10550"/>
 <path fill="none" stroke="rgb(0,0,0)" stroke-linejoin="round" d="M 6208,10700 L 6208,10550"/>
 <path fill="none" stroke="rgb(0,0,0)" stroke-linejoin="round" d="M 6329,10700 L 6329,10550"/>
 <path fill="none" stroke="rgb(0,0,0)" stroke-linejoin="round" d="M 6329,10700 L 6329,10550"/>
 <path fill="none" stroke="rgb(0,0,0)" stroke-linejoin="round" d="M 6451,10700 L 6451,10550"/>
 <path fill="none" stroke="rgb(0,0,0)" stroke-linejoin="round" d="M 6451,10700 L 6451,10550"/>
 <path fill="none" stroke="rgb(0,0,0)" stroke-linejoin="round" d="M 6572,10700 L 6572,10550"/>
 <path fill="none" stroke="rgb(0,0,0)" stroke-linejoin="round" d="M 6572,10700 L 6572,10550"/>
 <path fill="none" stroke="rgb(0,0,0)" stroke-linejoin="round" d="M 6693,10700 L 6693,10550"/>
 <path fill="none" stroke="rgb(0,0,0)" stroke-linejoin="round" d="M 6693,10700 L 6693,10550"/>
 <path fill="none" stroke="rgb(0,0,0)" stroke-linejoin="round" d="M 6814,10700 L 6814,10550"/>
 <path fill="none" stroke="rgb(0,0,0)" stroke-linejoin="round" d="M 6814,10700 L 6814,10550"/>
 <path fill="none" stroke="rgb(0,0,0)" stroke-linejoin="round" d="M 6935,10700 L 6935,10550"/>
 <path fill="none" stroke="rgb(0,0,0)" stroke-linejoin="round" d="M 6935,10700 L 6935,10550"/>
 <path fill="none" stroke="rgb(0,0,0)" stroke-linejoin="round" d="M 7056,10700 L 7056,10550"/>
 <path fill="none" stroke="rgb(0,0,0)" stroke-linejoin="round" d="M 7056,10700 L 7056,10550"/>
 <path fill="none" stroke="rgb(0,0,0)" stroke-linejoin="round" d="M 7177,10700 L 7177,10550"/>
 <path fill="none" stroke="rgb(0,0,0)" stroke-linejoin="round" d="M 7177,10700 L 7177,10550"/>
 <path fill="none" stroke="rgb(0,0,0)" stroke-linejoin="round" d="M 7299,10700 L 7299,10550"/>
 <path fill="none" stroke="rgb(0,0,0)" stroke-linejoin="round" d="M 7299,10700 L 7299,10550"/>
 <path fill="none" stroke="rgb(0,0,0)" stroke-linejoin="round" d="M 7420,10700 L 7420,10550"/>
 <path fill="none" stroke="rgb(0,0,0)" stroke-linejoin="round" d="M 7420,10700 L 7420,10550"/>
 <path fill="none" stroke="rgb(0,0,0)" stroke-linejoin="round" d="M 7541,10700 L 7541,10550"/>
 <path fill="none" stroke="rgb(0,0,0)" stroke-linejoin="round" d="M 7541,10700 L 7541,10550"/>
 <path fill="none" stroke="rgb(0,0,0)" stroke-linejoin="round" d="M 7662,10700 L 7662,10550"/>
 <path fill="none" stroke="rgb(0,0,0)" stroke-linejoin="round" d="M 7662,10700 L 7662,10550"/>
 <path fill="none" stroke="rgb(0,0,0)" stroke-linejoin="round" d="M 7783,10700 L 7783,10550"/>
 <path fill="none" stroke="rgb(0,0,0)" stroke-linejoin="round" d="M 7783,10700 L 7783,10550"/>
 <path fill="none" stroke="rgb(0,0,0)" stroke-linejoin="round" d="M 7904,10700 L 7904,10550"/>
 <path fill="none" stroke="rgb(0,0,0)" stroke-linejoin="round" d="M 7904,10700 L 7904,10550"/>
 <path fill="none" stroke="rgb(0,0,0)" stroke-linejoin="round" d="M 8025,10700 L 8025,10550"/>
 <path fill="none" stroke="rgb(0,0,0)" stroke-linejoin="round" d="M 8025,10700 L 8025,10550"/>
 <path fill="none" stroke="rgb(0,0,0)" stroke-linejoin="round" d="M 8146,10700 L 8146,10550"/>
 <path fill="none" stroke="rgb(0,0,0)" stroke-linejoin="round" d="M 8146,10700 L 8146,10550"/>
 <path fill="none" stroke="rgb(0,0,0)" stroke-linejoin="round" d="M 8267,10700 L 8267,10550"/>
 <path fill="none" stroke="rgb(0,0,0)" stroke-linejoin="round" d="M 8267,10700 L 8267,10550"/>
 <path fill="none" stroke="rgb(0,0,0)" stroke-linejoin="round" d="M 8388,10700 L 8388,10550"/>
 <path fill="none" stroke="rgb(0,0,0)" stroke-linejoin="round" d="M 8388,10700 L 8388,10550"/>
 <path fill="none" stroke="rgb(0,0,0)" stroke-linejoin="round" d="M 8509,10700 L 8509,10550"/>
 <path fill="none" stroke="rgb(0,0,0)" stroke-linejoin="round" d="M 8509,10700 L 8509,10550"/>
 <path fill="none" stroke="rgb(0,0,0)" stroke-linejoin="round" d="M 8630,10700 L 8630,10550"/>
 <path fill="none" stroke="rgb(0,0,0)" stroke-linejoin="round" d="M 8630,10700 L 8630,10550"/>
 <path fill="none" stroke="rgb(0,0,0)" stroke-linejoin="round" d="M 8751,10700 L 8751,10550"/>
 <path fill="none" stroke="rgb(0,0,0)" stroke-linejoin="round" d="M 8751,10700 L 8751,10550"/>
 <path fill="none" stroke="rgb(0,0,0)" stroke-linejoin="round" d="M 8873,10700 L 8873,10550"/>
 <path fill="none" stroke="rgb(0,0,0)" stroke-linejoin="round" d="M 8873,10700 L 8873,10550"/>
 <path fill="none" stroke="rgb(0,0,0)" stroke-linejoin="round" d="M 8994,10700 L 8994,10550"/>
 <path fill="none" stroke="rgb(0,0,0)" stroke-linejoin="round" d="M 8994,10700 L 8994,10550"/>
 <path fill="none" stroke="rgb(0,0,0)" stroke-linejoin="round" d="M 9115,10700 L 9115,10550"/>
 <path fill="none" stroke="rgb(0,0,0)" stroke-linejoin="round" d="M 9115,10700 L 9115,10550"/>
 <path fill="none" stroke="rgb(0,0,0)" stroke-linejoin="round" d="M 9236,10700 L 9236,10550"/>
 <path fill="none" stroke="rgb(0,0,0)" stroke-linejoin="round" d="M 9236,10700 L 9236,10550"/>
 <path fill="none" stroke="rgb(0,0,0)" stroke-linejoin="round" d="M 9357,10700 L 9357,10550"/>
 <path fill="none" stroke="rgb(0,0,0)" stroke-linejoin="round" d="M 9357,10700 L 9357,10550"/>
 <path fill="none" stroke="rgb(0,0,0)" stroke-linejoin="round" d="M 9478,10700 L 9478,10550"/>
 <path fill="none" stroke="rgb(0,0,0)" stroke-linejoin="round" d="M 9478,10700 L 9478,10550"/>
 <path fill="none" stroke="rgb(0,0,0)" stroke-linejoin="round" d="M 9599,10700 L 9599,10550"/>
 <path fill="none" stroke="rgb(0,0,0)" stroke-linejoin="round" d="M 9599,10700 L 9599,10550"/>
 <path fill="none" stroke="rgb(0,0,0)" stroke-linejoin="round" d="M 9721,10700 L 9721,10550"/>
 <path fill="none" stroke="rgb(0,0,0)" stroke-linejoin="round" d="M 9721,10700 L 9721,10550"/>
 <path fill="none" stroke="rgb(0,0,0)" stroke-linejoin="round" d="M 9842,10700 L 9842,10550"/>
 <path fill="none" stroke="rgb(0,0,0)" stroke-linejoin="round" d="M 9842,10700 L 9842,10550"/>
 <path fill="none" stroke="rgb(0,0,0)" stroke-linejoin="round" d="M 9963,10700 L 9963,10550"/>
 <path fill="none" stroke="rgb(0,0,0)" stroke-linejoin="round" d="M 9963,10700 L 9963,10550"/>
 <path fill="none" stroke="rgb(0,0,0)" stroke-linejoin="round" d="M 10084,10700 L 10084,10550"/>
 <path fill="none" stroke="rgb(0,0,0)" stroke-linejoin="round" d="M 10084,10700 L 10084,10550"/>
 <path fill="none" stroke="rgb(0,0,0)" stroke-linejoin="round" d="M 10205,10700 L 10205,10550"/>
 <path fill="none" stroke="rgb(0,0,0)" stroke-linejoin="round" d="M 10205,10700 L 10205,10550"/>
 <path fill="none" stroke="rgb(0,0,0)" stroke-linejoin="round" d="M 10326,10700 L 10326,10550"/>
 <path fill="none" stroke="rgb(0,0,0)" stroke-linejoin="round" d="M 10326,10700 L 10326,10550"/>
 <path fill="none" stroke="rgb(0,0,0)" stroke-linejoin="round" d="M 10447,10700 L 10447,10550"/>
 <path fill="none" stroke="rgb(0,0,0)" stroke-linejoin="round" d="M 10447,10700 L 10447,10550"/>
 <path fill="none" stroke="rgb(0,0,0)" stroke-linejoin="round" d="M 10569,10700 L 10569,10550"/>
 <path fill="none" stroke="rgb(0,0,0)" stroke-linejoin="round" d="M 10569,10700 L 10569,10550"/>
 <path fill="none" stroke="rgb(0,0,0)" stroke-linejoin="round" d="M 10690,10700 L 10690,10550"/>
 <path fill="none" stroke="rgb(0,0,0)" stroke-linejoin="round" d="M 10690,10700 L 10690,10550"/>
 <path fill="none" stroke="rgb(0,0,0)" stroke-linejoin="round" d="M 10811,10700 L 10811,10550"/>
 <path fill="none" stroke="rgb(0,0,0)" stroke-linejoin="round" d="M 10811,10700 L 10811,10550"/>
 <path fill="none" stroke="rgb(0,0,0)" stroke-linejoin="round" d="M 10932,10700 L 10932,10550"/>
 <path fill="none" stroke="rgb(0,0,0)" stroke-linejoin="round" d="M 10932,10700 L 10932,10550"/>
 <path fill="none" stroke="rgb(0,0,0)" stroke-linejoin="round" d="M 11053,10700 L 11053,10550"/>
 <path fill="none" stroke="rgb(0,0,0)" stroke-linejoin="round" d="M 11053,10700 L 11053,10550"/>
 <path fill="none" stroke="rgb(0,0,0)" stroke-linejoin="round" d="M 11174,10700 L 11174,10550"/>
 <path fill="none" stroke="rgb(0,0,0)" stroke-linejoin="round" d="M 11174,10700 L 11174,10550"/>
 <path fill="none" stroke="rgb(0,0,0)" stroke-linejoin="round" d="M 11295,10700 L 11295,10550"/>
 <path fill="none" stroke="rgb(0,0,0)" stroke-linejoin="round" d="M 11295,10700 L 11295,10550"/>
 <path fill="none" stroke="rgb(0,0,0)" stroke-linejoin="round" d="M 11417,10700 L 11417,10550"/>
 <path fill="none" stroke="rgb(0,0,0)" stroke-linejoin="round" d="M 11417,10700 L 11417,10550"/>
 <path fill="none" stroke="rgb(0,0,0)" stroke-linejoin="round" d="M 11538,10700 L 11538,10550"/>
 <path fill="none" stroke="rgb(0,0,0)" stroke-linejoin="round" d="M 11538,10700 L 11538,10550"/>
 <path fill="none" stroke="rgb(0,0,0)" stroke-linejoin="round" d="M 11659,10700 L 11659,10550"/>
 <path fill="none" stroke="rgb(0,0,0)" stroke-linejoin="round" d="M 11659,10700 L 11659,10550"/>
 <path fill="none" stroke="rgb(0,0,0)" stroke-linejoin="round" d="M 11780,10700 L 11780,10550"/>
 <path fill="none" stroke="rgb(0,0,0)" stroke-linejoin="round" d="M 11780,10700 L 11780,10550"/>
 <path fill="none" stroke="rgb(0,0,0)" stroke-linejoin="round" d="M 11901,10700 L 11901,10550"/>
 <path fill="none" stroke="rgb(0,0,0)" stroke-linejoin="round" d="M 11901,10700 L 11901,10550"/>
 <path fill="none" stroke="rgb(0,0,0)" stroke-linejoin="round" d="M 12022,10700 L 12022,10550"/>
 <path fill="none" stroke="rgb(0,0,0)" stroke-linejoin="round" d="M 12022,10700 L 12022,10550"/>
 <path fill="none" stroke="rgb(0,0,0)" stroke-linejoin="round" d="M 12143,10700 L 12143,10550"/>
 <path fill="none" stroke="rgb(0,0,0)" stroke-linejoin="round" d="M 12143,10700 L 12143,10550"/>
 <path fill="none" stroke="rgb(0,0,0)" stroke-linejoin="round" d="M 12265,10700 L 12265,10550"/>
 <path fill="none" stroke="rgb(0,0,0)" stroke-linejoin="round" d="M 12265,10700 L 12265,10550"/>
 <path fill="none" stroke="rgb(0,0,0)" stroke-linejoin="round" d="M 12386,10700 L 12386,10550"/>
 <path fill="none" stroke="rgb(0,0,0)" stroke-linejoin="round" d="M 12386,10700 L 12386,10550"/>
 <path fill="none" stroke="rgb(0,0,0)" stroke-linejoin="round" d="M 12507,10700 L 12507,10550"/>
 <path fill="none" stroke="rgb(0,0,0)" stroke-linejoin="round" d="M 12507,10700 L 12507,10550"/>
 <path fill="none" stroke="rgb(0,0,0)" stroke-linejoin="round" d="M 12628,10700 L 12628,10550"/>
 <path fill="none" stroke="rgb(0,0,0)" stroke-linejoin="round" d="M 12628,10700 L 12628,10550"/>
 <path fill="none" stroke="rgb(0,0,0)" stroke-linejoin="round" d="M 12749,10700 L 12749,10550"/>
 <path fill="none" stroke="rgb(0,0,0)" stroke-linejoin="round" d="M 12749,10700 L 12749,10550"/>
 <path fill="none" stroke="rgb(0,0,0)" stroke-linejoin="round" d="M 12870,10700 L 12870,10550"/>
 <path fill="none" stroke="rgb(0,0,0)" stroke-linejoin="round" d="M 12870,10700 L 12870,10550"/>
 <path fill="none" stroke="rgb(0,0,0)" stroke-linejoin="round" d="M 12991,10700 L 12991,10550"/>
 <path fill="none" stroke="rgb(0,0,0)" stroke-linejoin="round" d="M 12991,10700 L 12991,10550"/>
 <path fill="none" stroke="rgb(0,0,0)" stroke-linejoin="round" d="M 13113,10700 L 13113,10550"/>
 <path fill="none" stroke="rgb(0,0,0)" stroke-linejoin="round" d="M 13113,10700 L 13113,10550"/>
 <path fill="none" stroke="rgb(0,0,0)" stroke-linejoin="round" d="M 13234,10700 L 13234,10550"/>
 <path fill="none" stroke="rgb(0,0,0)" stroke-linejoin="round" d="M 13234,10700 L 13234,10550"/>
 <path fill="none" stroke="rgb(0,0,0)" stroke-linejoin="round" d="M 13355,10700 L 13355,10550"/>
 <path fill="none" stroke="rgb(0,0,0)" stroke-linejoin="round" d="M 13355,10700 L 13355,10550"/>
 <path fill="none" stroke="rgb(0,0,0)" stroke-linejoin="round" d="M 13476,10700 L 13476,10550"/>
 <path fill="none" stroke="rgb(0,0,0)" stroke-linejoin="round" d="M 13476,10700 L 13476,10550"/>
 <path fill="none" stroke="rgb(0,0,0)" stroke-linejoin="round" d="M 13597,10700 L 13597,10550"/>
 <path fill="none" stroke="rgb(0,0,0)" stroke-linejoin="round" d="M 13597,10700 L 13597,10550"/>
 <path fill="none" stroke="rgb(0,0,0)" stroke-linejoin="round" d="M 13718,10700 L 13718,10550"/>
 <path fill="none" stroke="rgb(0,0,0)" stroke-linejoin="round" d="M 13718,10700 L 13718,10550"/>
 <path fill="none" stroke="rgb(0,0,0)" stroke-linejoin="round" d="M 13839,10700 L 13839,10550"/>
 <path fill="none" stroke="rgb(0,0,0)" stroke-linejoin="round" d="M 13839,10700 L 13839,10550"/>
 <path fill="none" stroke="rgb(0,0,0)" stroke-linejoin="round" d="M 13961,10700 L 13961,10550"/>
 <path fill="none" stroke="rgb(0,0,0)" stroke-linejoin="round" d="M 13961,10700 L 13961,10550"/>
 <path fill="none" stroke="rgb(0,0,0)" stroke-linejoin="round" d="M 14082,10700 L 14082,10550"/>
 <path fill="none" stroke="rgb(0,0,0)" stroke-linejoin="round" d="M 14082,10700 L 14082,10550"/>
 <path fill="none" stroke="rgb(0,0,0)" stroke-linejoin="round" d="M 14203,10700 L 14203,10550"/>
 <path fill="none" stroke="rgb(0,0,0)" stroke-linejoin="round" d="M 14203,10700 L 14203,10550"/>
 <path fill="none" stroke="rgb(0,0,0)" stroke-linejoin="round" d="M 14324,10700 L 14324,10550"/>
 <path fill="none" stroke="rgb(0,0,0)" stroke-linejoin="round" d="M 14324,10700 L 14324,10550"/>
 <path fill="none" stroke="rgb(0,0,0)" stroke-linejoin="round" d="M 14445,10700 L 14445,10550"/>
 <path fill="none" stroke="rgb(0,0,0)" stroke-linejoin="round" d="M 14445,10700 L 14445,10550"/>
 <path fill="none" stroke="rgb(0,0,0)" stroke-linejoin="round" d="M 14566,10700 L 14566,10550"/>
 <path fill="none" stroke="rgb(0,0,0)" stroke-linejoin="round" d="M 14566,10700 L 14566,10550"/>
 <path fill="none" stroke="rgb(0,0,0)" stroke-linejoin="round" d="M 14688,10700 L 14688,10550"/>
 <path fill="none" stroke="rgb(0,0,0)" stroke-linejoin="round" d="M 14688,10700 L 14688,10550"/>
 <path fill="none" stroke="rgb(0,0,0)" stroke-linejoin="round" d="M 1363,10550 L 14688,10550"/>
 <path fill="none" stroke="rgb(0,0,0)" stroke-linejoin="round" d="M 1213,10550 L 1363,10550"/>
 <path fill="none" stroke="rgb(0,0,0)" stroke-linejoin="round" d="M 1213,10550 L 1363,10550"/>
 <path fill="none" stroke="rgb(0,0,0)" stroke-linejoin="round" d="M 1213,9604 L 1363,9604"/>
 <path fill="none" stroke="rgb(0,0,0)" stroke-linejoin="round" d="M 1213,9604 L 1363,9604"/>
 <path fill="none" stroke="rgb(0,0,0)" stroke-linejoin="round" d="M 1213,8658 L 1363,8658"/>
 <path fill="none" stroke="rgb(0,0,0)" stroke-linejoin="round" d="M 1213,8658 L 1363,8658"/>
 <path fill="none" stroke="rgb(0,0,0)" stroke-linejoin="round" d="M 1213,7712 L 1363,7712"/>
 <path fill="none" stroke="rgb(0,0,0)" stroke-linejoin="round" d="M 1213,7712 L 1363,7712"/>
 <path fill="none" stroke="rgb(0,0,0)" stroke-linejoin="round" d="M 1213,6766 L 1363,6766"/>
 <path fill="none" stroke="rgb(0,0,0)" stroke-linejoin="round" d="M 1213,6766 L 1363,6766"/>
 <path fill="none" stroke="rgb(0,0,0)" stroke-linejoin="round" d="M 1213,5821 L 1363,5821"/>
 <path fill="none" stroke="rgb(0,0,0)" stroke-linejoin="round" d="M 1213,5821 L 1363,5821"/>
 <path fill="none" stroke="rgb(0,0,0)" stroke-linejoin="round" d="M 1213,4875 L 1363,4875"/>
 <path fill="none" stroke="rgb(0,0,0)" stroke-linejoin="round" d="M 1213,4875 L 1363,4875"/>
 <path fill="none" stroke="rgb(0,0,0)" stroke-linejoin="round" d="M 1213,3929 L 1363,3929"/>
 <path fill="none" stroke="rgb(0,0,0)" stroke-linejoin="round" d="M 1213,3929 L 1363,3929"/>
 <path fill="none" stroke="rgb(0,0,0)" stroke-linejoin="round" d="M 1213,2983 L 1363,2983"/>
 <path fill="none" stroke="rgb(0,0,0)" stroke-linejoin="round" d="M 1213,2983 L 1363,2983"/>
 <path fill="none" stroke="rgb(0,0,0)" stroke-linejoin="round" d="M 1213,2037 L 1363,2037"/>
 <path fill="none" stroke="rgb(0,0,0)" stroke-linejoin="round" d="M 1213,2037 L 1363,2037"/>
 <path fill="none" stroke="rgb(0,0,0)" stroke-linejoin="round" d="M 1213,1092 L 1363,1092"/>
 <path fill="none" stroke="rgb(0,0,0)" stroke-linejoin="round" d="M 1213,1092 L 1363,1092"/>
 <path fill="none" stroke="rgb(0,0,0)" stroke-linejoin="round" d="M 1363,10550 L 1363,1092"/>
 <path fill="none" stroke="rgb(0,0,0)" stroke-linejoin="round" d="M 14838,10550 L 14688,10550"/>
 <path fill="none" stroke="rgb(0,0,0)" stroke-linejoin="round" d="M 14838,10550 L 14688,10550"/>
 <path fill="none" stroke="rgb(0,0,0)" stroke-linejoin="round" d="M 14838,9604 L 14688,9604"/>
 <path fill="none" stroke="rgb(0,0,0)" stroke-linejoin="round" d="M 14838,9604 L 14688,9604"/>
 <path fill="none" stroke="rgb(0,0,0)" stroke-linejoin="round" d="M 14838,8658 L 14688,8658"/>
 <path fill="none" stroke="rgb(0,0,0)" stroke-linejoin="round" d="M 14838,8658 L 14688,8658"/>
 <path fill="none" stroke="rgb(0,0,0)" stroke-linejoin="round" d="M 14838,7712 L 14688,7712"/>
 <path fill="none" stroke="rgb(0,0,0)" stroke-linejoin="round" d="M 14838,7712 L 14688,7712"/>
 <path fill="none" stroke="rgb(0,0,0)" stroke-linejoin="round" d="M 14838,6766 L 14688,6766"/>
 <path fill="none" stroke="rgb(0,0,0)" stroke-linejoin="round" d="M 14838,6766 L 14688,6766"/>
 <path fill="none" stroke="rgb(0,0,0)" stroke-linejoin="round" d="M 14838,5821 L 14688,5821"/>
 <path fill="none" stroke="rgb(0,0,0)" stroke-linejoin="round" d="M 14838,5821 L 14688,5821"/>
 <path fill="none" stroke="rgb(0,0,0)" stroke-linejoin="round" d="M 14838,4875 L 14688,4875"/>
 <path fill="none" stroke="rgb(0,0,0)" stroke-linejoin="round" d="M 14838,4875 L 14688,4875"/>
 <path fill="none" stroke="rgb(0,0,0)" stroke-linejoin="round" d="M 14838,3929 L 14688,3929"/>
 <path fill="none" stroke="rgb(0,0,0)" stroke-linejoin="round" d="M 14838,3929 L 14688,3929"/>
 <path fill="none" stroke="rgb(0,0,0)" stroke-linejoin="round" d="M 14838,2983 L 14688,2983"/>
 <path fill="none" stroke="rgb(0,0,0)" stroke-linejoin="round" d="M 14838,2983 L 14688,2983"/>
 <path fill="none" stroke="rgb(0,0,0)" stroke-linejoin="round" d="M 14838,2037 L 14688,2037"/>
 <path fill="none" stroke="rgb(0,0,0)" stroke-linejoin="round" d="M 14838,2037 L 14688,2037"/>
 <path fill="none" stroke="rgb(0,0,0)" stroke-linejoin="round" d="M 14838,1092 L 14688,1092"/>
 <path fill="none" stroke="rgb(0,0,0)" stroke-linejoin="round" d="M 14838,1092 L 14688,1092"/>
 <path fill="none" stroke="rgb(0,0,0)" stroke-linejoin="round" d="M 14688,10550 L 14688,1092"/>
 <path fill="rgb(0,71,255)" stroke="none" d="M 1363,1500 L 1484,1524 1605,1540 1726,1544 1847,1553 1968,1526 2089,1566 2211,1561 2332,1547 2453,1552 2574,1575 2695,1573 2816,1620 2937,1668 3059,1691 3180,1685 3301,1706 3422,1712 3543,1738 3664,1717 3785,1751 3907,1748 4028,1775 4149,1800 4270,1799 4391,1827 4512,1845 4633,1838 4755,1888 4876,1900 4997,1915 5118,1899 5239,1913 5360,1910 5481,1934 5603,1935 5724,1962 5845,2012 5966,2070 6087,2070 6208,2079 6329,2143 6451,2163 6572,2201 6693,2267 6814,2362 6935,2361 7056,2368 7177,2446 7299,2525 7420,2641 7541,2509 7662,2458 7783,2463 7904,2502 8025,2564 8146,2652 8267,2692 8388,2674 8509,2801 8630,2829 8751,2846 8873,2939 8994,3084 9115,2941 9236,2861 9357,2896 9478,2935 9599,3020 9721,3146 9842,2982 9963,3084 10084,3143 10205,3170 10326,3340 10447,3449 10569,3336 10690,3427 10811,3525 10932,3426 11053,3492 11174,3424 11295,3287 11417,3399 11538,3463 11659,3399 11780,3710 11901,3550 12022,3594 12143,3901 12265,3611 12386,3712 12507,3810 12628,3691 12749,3989 12870,4090 12991,3865 13113,4073 13234,4267 13355,4276 13476,4550 13597,4843 13718,4789 13839,4430 13961,4453 14082,4493 14203,4782 14324,4472 14445,4524 14566,4671 14688,4632 14688,10550 1363,10550 1363,1500 Z"/>
 <path fill="none" stroke="rgb(0,0,0)" stroke-width="20" stroke-linejoin="round" d="M 1363,1500 L 1484,1524 1605,1540 1726,1544 1847,1553 1968,1526 2089,1566 2211,1561 2332,1547 2453,1552 2574,1575 2695,1573 2816,1620 2937,1668 3059,1691 3180,1685 3301,1706 3422,1712 3543,1738 3664,1717 3785,1751 3907,1748 4028,1775 4149,1800 4270,1799 4391,1827 4512,1845 4633,1838 4755,1888 4876,1900 4997,1915 5118,1899 5239,1913 5360,1910 5481,1934 5603,1935 5724,1962 5845,2012 5966,2070 6087,2070 6208,2079 6329,2143 6451,2163 6572,2201 6693,2267 6814,2362 6935,2361 7056,2368 7177,2446 7299,2525 7420,2641 7541,2509 7662,2458 7783,2463 7904,2502 8025,2564 8146,2652 8267,2692 8388,2674 8509,2801 8630,2829 8751,2846 8873,2939 8994,3084 9115,2941 9236,2861 9357,2896 9478,2935 9599,3020 9721,3146 9842,2982 9963,3084 10084,3143 10205,3170 10326,3340 10447,3449 10569,3336 10690,3427 10811,3525 10932,3426 11053,3492 11174,3424 11295,3287 11417,3399 11538,3463 11659,3399 11780,3710 11901,3550 12022,3594 12143,3901 12265,3611 12386,3712 12507,3810 12628,3691 12749,3989 12870,4090 12991,3865 13113,4073 13234,4267 13355,4276 13476,4550 13597,4843 13718,4789 13839,4430 13961,4453 14082,4493 14203,4782 14324,4472 14445,4524 14566,4671 14688,4632 14688,10550 1363,10550 1363,1500 Z"/>
 <path fill="rgb(102,102,102)" stroke="none" d="M 1363,1176 L 1484,1184 1605,1187 1726,1193 1847,1196 1968,1199 2089,1212 2211,1212 2332,1213 2453,1216 2574,1221 2695,1214 2816,1230 2937,1247 3059,1246 3180,1255 3301,1263 3422,1273 3543,1291 3664,1273 3785,1292 3907,1287 4028,1292 4149,1302 4270,1316 4391,1344 4512,1359 4633,1365 4755,1384 4876,1397 4997,1418 5118,1411 5239,1434 5360,1437 5481,1461 5603,1467 5724,1488 5845,1538 5966,1575 6087,1581 6208,1584 6329,1635 6451,1662 6572,1697 6693,1741 6814,1831 6935,1790 7056,1750 7177,1879 7299,1972 7420,2093 7541,1904 7662,1886 7783,1892 7904,1942 8025,1983 8146,2054 8267,2082 8388,2059 8509,2196 8630,2213 8751,2253 8873,2351 8994,2499 9115,2366 9236,2274 9357,2306 9478,2335 9599,2429 9721,2555 9842,2354 9963,2448 10084,2527 10205,2556 10326,2731 10447,2849 10569,2735 10690,2829 10811,2955 10932,2903 11053,2981 11174,2899 11295,2783 11417,2848 11538,2900 11659,2836 11780,3179 11901,3022 12022,3039 12143,3364 12265,3051 12386,3145 12507,3240 12628,3123 12749,3430 12870,3518 12991,3354 13113,3575 13234,3735 13355,3737 13476,4035 13597,4254 13718,4241 13839,3872 13961,3919 14082,4000 14203,4343 14324,4044 14445,4078 14566,4282 14688,4223 14688,4632 14566,4671 14445,4524 14324,4472 14203,4782 14082,4493 13961,4453 13839,4430 13718,4789 13597,4843 13476,4550 13355,4276 13234,4267 13113,4073 12991,3865 12870,4090 12749,3989 12628,3691 12507,3810 12386,3712 12265,3611 12143,3901 12022,3594 11901,3550 11780,3710 11659,3399 11538,3463 11417,3399 11295,3287 11174,3424 11053,3492 10932,3426 10811,3525 10690,3427 10569,3336 10447,3449 10326,3340 10205,3170 10084,3143 9963,3084 9842,2982 9721,3146 9599,3020 9478,2935 9357,2896 9236,2861 9115,2941 8994,3084 8873,2939 8751,2846 8630,2829 8509,2801 8388,2674 8267,2692 8146,2652 8025,2564 7904,2502 7783,2463 7662,2458 7541,2509 7420,2641 7299,2525 7177,2446 7056,2368 6935,2361 6814,2362 6693,2267 6572,2201 6451,2163 6329,2143 6208,2079 6087,2070 5966,2070 5845,2012 5724,1962 5603,1935 5481,1934 5360,1910 5239,1913 5118,1899 4997,1915 4876,1900 4755,1888 4633,1838 4512,1845 4391,1827 4270,1799 4149,1800 4028,1775 3907,1748 3785,1751 3664,1717 3543,1738 3422,1712 3301,1706 3180,1685 3059,1691 2937,1668 2816,1620 2695,1573 2574,1575 2453,1552 2332,1547 2211,1561 2089,1566 1968,1526 1847,1553 1726,1544 1605,1540 1484,1524 1363,1500 1363,1176 Z"/>
 <path fill="none" stroke="rgb(0,0,0)" stroke-width="20" stroke-linejoin="round" d="M 1363,1176 L 1484,1184 1605,1187 1726,1193 1847,1196 1968,1199 2089,1212 2211,1212 2332,1213 2453,1216 2574,1221 2695,1214 2816,1230 2937,1247 3059,1246 3180,1255 3301,1263 3422,1273 3543,1291 3664,1273 3785,1292 3907,1287 4028,1292 4149,1302 4270,1316 4391,1344 4512,1359 4633,1365 4755,1384 4876,1397 4997,1418 5118,1411 5239,1434 5360,1437 5481,1461 5603,1467 5724,1488 5845,1538 5966,1575 6087,1581 6208,1584 6329,1635 6451,1662 6572,1697 6693,1741 6814,1831 6935,1790 7056,1750 7177,1879 7299,1972 7420,2093 7541,1904 7662,1886 7783,1892 7904,1942 8025,1983 8146,2054 8267,2082 8388,2059 8509,2196 8630,2213 8751,2253 8873,2351 8994,2499 9115,2366 9236,2274 9357,2306 9478,2335 9599,2429 9721,2555 9842,2354 9963,2448 10084,2527 10205,2556 10326,2731 10447,2849 10569,2735 10690,2829 10811,2955 10932,2903 11053,2981 11174,2899 11295,2783 11417,2848 11538,2900 11659,2836 11780,3179 11901,3022 12022,3039 12143,3364 12265,3051 12386,3145 12507,3240 12628,3123 12749,3430 12870,3518 12991,3354 13113,3575 13234,3735 13355,3737 13476,4035 13597,4254 13718,4241 13839,3872 13961,3919 14082,4000 14203,4343 14324,4044 14445,4078 14566,4282 14688,4223 14688,4632 14566,4671 14445,4524 14324,4472 14203,4782 14082,4493 13961,4453 13839,4430 13718,4789 13597,4843 13476,4550 13355,4276 13234,4267 13113,4073 12991,3865 12870,4090 12749,3989 12628,3691 12507,3810 12386,3712 12265,3611 12143,3901 12022,3594 11901,3550 11780,3710 11659,3399 11538,3463 11417,3399 11295,3287 11174,3424 11053,3492 10932,3426 10811,3525 10690,3427 10569,3336 10447,3449 10326,3340 10205,3170 10084,3143 9963,3084 9842,2982 9721,3146 9599,3020 9478,2935 9357,2896 9236,2861 9115,2941 8994,3084 8873,2939 8751,2846 8630,2829 8509,2801 8388,2674 8267,2692 8146,2652 8025,2564 7904,2502 7783,2463 7662,2458 7541,2509 7420,2641 7299,2525 7177,2446 7056,2368 6935,2361 6814,2362 6693,2267 6572,2201 6451,2163 6329,2143 6208,2079 6087,2070 5966,2070 5845,2012 5724,1962 5603,1935 5481,1934 5360,1910 5239,1913 5118,1899 4997,1915 4876,1900 4755,1888 4633,1838 4512,1845 4391,1827 4270,1799 4149,1800 4028,1775 3907,1748 3785,1751 3664,1717 3543,1738 3422,1712 3301,1706 3180,1685 3059,1691 2937,1668 2816,1620 2695,1573 2574,1575 2453,1552 2332,1547 2211,1561 2089,1566 1968,1526 1847,1553 1726,1544 1605,1540 1484,1524 1363,1500 1363,1176 Z"/>
 <path fill="rgb(220,35,0)" stroke="none" d="M 1363,1114 L 1484,1119 1605,1119 1726,1123 1847,1127 1968,1127 2089,1127 2211,1129 2332,1134 2453,1139 2574,1140 2695,1141 2816,1144 2937,1154 3059,1161 3180,1162 3301,1167 3422,1173 3543,1180 3664,1179 3785,1193 3907,1198 4028,1202 4149,1212 4270,1221 4391,1249 4512,1263 4633,1272 4755,1286 4876,1298 4997,1311 5118,1310 5239,1346 5360,1356 5481,1381 5603,1386 5724,1400 5845,1447 5966,1485 6087,1494 6208,1494 6329,1546 6451,1576 6572,1607 6693,1655 6814,1736 6935,1692 7056,1644 7177,1764 7299,1849 7420,1959 7541,1802 7662,1800 7783,1807 7904,1852 8025,1892 8146,1967 8267,1988 8388,1964 8509,2097 8630,2108 8751,2153 8873,2251 8994,2401 9115,2270 9236,2173 9357,2201 9478,2229 9599,2326 9721,2432 9842,2217 9963,2315 10084,2400 10205,2416 10326,2605 10447,2733 10569,2617 10690,2706 10811,2830 10932,2767 11053,2851 11174,2769 11295,2654 11417,2738 11538,2803 11659,2731 11780,3079 11901,2905 12022,2925 12143,3252 12265,2931 12386,3024 12507,3115 12628,3000 12749,3304 12870,3406 12991,3235 13113,3457 13234,3616 13355,3614 13476,3917 13597,4154 13718,4126 13839,3735 13961,3761 14082,3860 14203,4201 14324,3899 14445,3925 14566,4141 14688,4076 14688,4223 14566,4282 14445,4078 14324,4044 14203,4343 14082,4000 13961,3919 13839,3872 13718,4241 13597,4254 13476,4035 13355,3737 13234,3735 13113,3575 12991,3354 12870,3518 12749,3430 12628,3123 12507,3240 12386,3145 12265,3051 12143,3364 12022,3039 11901,3022 11780,3179 11659,2836 11538,2900 11417,2848 11295,2783 11174,2899 11053,2981 10932,2903 10811,2955 10690,2829 10569,2735 10447,2849 10326,2731 10205,2556 10084,2527 9963,2448 9842,2354 9721,2555 9599,2429 9478,2335 9357,2306 9236,2274 9115,2366 8994,2499 8873,2351 8751,2253 8630,2213 8509,2196 8388,2059 8267,2082 8146,2054 8025,1983 7904,1942 7783,1892 7662,1886 7541,1904 7420,2093 7299,1972 7177,1879 7056,1750 6935,1790 6814,1831 6693,1741 6572,1697 6451,1662 6329,1635 6208,1584 6087,1581 5966,1575 5845,1538 5724,1488 5603,1467 5481,1461 5360,1437 5239,1434 5118,1411 4997,1418 4876,1397 4755,1384 4633,1365 4512,1359 4391,1344 4270,1316 4149,1302 4028,1292 3907,1287 3785,1292 3664,1273 3543,1291 3422,1273 3301,1263 3180,1255 3059,1246 2937,1247 2816,1230 2695,1214 2574,1221 2453,1216 2332,1213 2211,1212 2089,1212 1968,1199 1847,1196 1726,1193 1605,1187 1484,1184 1363,1176 1363,1114 Z"/>
 <path fill="none" stroke="rgb(0,0,0)" stroke-width="20" stroke-linejoin="round" d="M 1363,1114 L 1484,1119 1605,1119 1726,1123 1847,1127 1968,1127 2089,1127 2211,1129 2332,1134 2453,1139 2574,1140 2695,1141 2816,1144 2937,1154 3059,1161 3180,1162 3301,1167 3422,1173 3543,1180 3664,1179 3785,1193 3907,1198 4028,1202 4149,1212 4270,1221 4391,1249 4512,1263 4633,1272 4755,1286 4876,1298 4997,1311 5118,1310 5239,1346 5360,1356 5481,1381 5603,1386 5724,1400 5845,1447 5966,1485 6087,1494 6208,1494 6329,1546 6451,1576 6572,1607 6693,1655 6814,1736 6935,1692 7056,1644 7177,1764 7299,1849 7420,1959 7541,1802 7662,1800 7783,1807 7904,1852 8025,1892 8146,1967 8267,1988 8388,1964 8509,2097 8630,2108 8751,2153 8873,2251 8994,2401 9115,2270 9236,2173 9357,2201 9478,2229 9599,2326 9721,2432 9842,2217 9963,2315 10084,2400 10205,2416 10326,2605 10447,2733 10569,2617 10690,2706 10811,2830 10932,2767 11053,2851 11174,2769 11295,2654 11417,2738 11538,2803 11659,2731 11780,3079 11901,2905 12022,2925 12143,3252 12265,2931 12386,3024 12507,3115 12628,3000 12749,3304 12870,3406 12991,3235 13113,3457 13234,3616 13355,3614 13476,3917 13597,4154 13718,4126 13839,3735 13961,3761 14082,3860 14203,4201 14324,3899 14445,3925 14566,4141 14688,4076 14688,4223 14566,4282 14445,4078 14324,4044 14203,4343 14082,4000 13961,3919 13839,3872 13718,4241 13597,4254 13476,4035 13355,3737 13234,3735 13113,3575 12991,3354 12870,3518 12749,3430 12628,3123 12507,3240 12386,3145 12265,3051 12143,3364 12022,3039 11901,3022 11780,3179 11659,2836 11538,2900 11417,2848 11295,2783 11174,2899 11053,2981 10932,2903 10811,2955 10690,2829 10569,2735 10447,2849 10326,2731 10205,2556 10084,2527 9963,2448 9842,2354 9721,2555 9599,2429 9478,2335 9357,2306 9236,2274 9115,2366 8994,2499 8873,2351 8751,2253 8630,2213 8509,2196 8388,2059 8267,2082 8146,2054 8025,1983 7904,1942 7783,1892 7662,1886 7541,1904 7420,2093 7299,1972 7177,1879 7056,1750 6935,1790 6814,1831 6693,1741 6572,1697 6451,1662 6329,1635 6208,1584 6087,1581 5966,1575 5845,1538 5724,1488 5603,1467 5481,1461 5360,1437 5239,1434 5118,1411 4997,1418 4876,1397 4755,1384 4633,1365 4512,1359 4391,1344 4270,1316 4149,1302 4028,1292 3907,1287 3785,1292 3664,1273 3543,1291 3422,1273 3301,1263 3180,1255 3059,1246 2937,1247 2816,1230 2695,1214 2574,1221 2453,1216 2332,1213 2211,1212 2089,1212 1968,1199 1847,1196 1726,1193 1605,1187 1484,1184 1363,1176 1363,1114 Z"/>
 <path fill="rgb(174,207,0)" stroke="none" d="M 1363,1114 L 1484,1119 1605,1119 1726,1123 1847,1127 1968,1127 2089,1127 2211,1129 2332,1134 2453,1139 2574,1140 2695,1141 2816,1144 2937,1154 3059,1161 3180,1161 3301,1166 3422,1171 3543,1179 3664,1177 3785,1191 3907,1196 4028,1200 4149,1210 4270,1219 4391,1247 4512,1261 4633,1268 4755,1283 4876,1292 4997,1306 5118,1300 5239,1332 5360,1340 5481,1361 5603,1363 5724,1373 5845,1411 5966,1441 6087,1445 6208,1442 6329,1485 6451,1505 6572,1541 6693,1583 6814,1641 6935,1600 7056,1546 7177,1659 7299,1750 7420,1814 7541,1676 7662,1677 7783,1678 7904,1711 8025,1744 8146,1815 8267,1809 8388,1781 8509,1835 8630,1835 8751,1905 8873,1981 8994,2086 9115,1992 9236,1907 9357,1946 9478,1966 9599,2033 9721,2079 9842,1908 9963,1966 10084,1984 10205,1975 10326,2115 10447,2180 10569,2091 10690,2133 10811,2129 10932,2056 11053,2090 11174,2001 11295,1938 11417,2033 11538,2077 11659,2024 11780,2180 11901,2096 12022,2095 12143,2160 12265,2017 12386,2068 12507,2105 12628,2023 12749,2209 12870,2214 12991,2038 13113,2137 13234,2178 13355,2157 13476,2244 13597,2322 13718,2032 13839,2049 13961,2035 14082,2049 14203,2099 14324,2024 14445,2022 14566,2188 14688,2214 14688,4076 14566,4141 14445,3925 14324,3899 14203,4201 14082,3860 13961,3761 13839,3735 13718,4126 13597,4154 13476,3917 13355,3614 13234,3616 13113,3457 12991,3235 12870,3406 12749,3304 12628,3000 12507,3115 12386,3024 12265,2931 12143,3252 12022,2925 11901,2905 11780,3079 11659,2731 11538,2803 11417,2738 11295,2654 11174,2769 11053,2851 10932,2767 10811,2830 10690,2706 10569,2617 10447,2733 10326,2605 10205,2416 10084,2400 9963,2315 9842,2217 9721,2432 9599,2326 9478,2229 9357,2201 9236,2173 9115,2270 8994,2401 8873,2251 8751,2153 8630,2108 8509,2097 8388,1964 8267,1988 8146,1967 8025,1892 7904,1852 7783,1807 7662,1800 7541,1802 7420,1959 7299,1849 7177,1764 7056,1644 6935,1692 6814,1736 6693,1655 6572,1607 6451,1576 6329,1546 6208,1494 6087,1494 5966,1485 5845,1447 5724,1400 5603,1386 5481,1381 5360,1356 5239,1346 5118,1310 4997,1311 4876,1298 4755,1286 4633,1272 4512,1263 4391,1249 4270,1221 4149,1212 4028,1202 3907,1198 3785,1193 3664,1179 3543,1180 3422,1173 3301,1167 3180,1162 3059,1161 2937,1154 2816,1144 2695,1141 2574,1140 2453,1139 2332,1134 2211,1129 2089,1127 1968,1127 1847,1127 1726,1123 1605,1119 1484,1119 1363,1114 Z"/>
 <path fill="none" stroke="rgb(0,0,0)" stroke-width="20" stroke-linejoin="round" d="M 1363,1114 L 1484,1119 1605,1119 1726,1123 1847,1127 1968,1127 2089,1127 2211,1129 2332,1134 2453,1139 2574,1140 2695,1141 2816,1144 2937,1154 3059,1161 3180,1161 3301,1166 3422,1171 3543,1179 3664,1177 3785,1191 3907,1196 4028,1200 4149,1210 4270,1219 4391,1247 4512,1261 4633,1268 4755,1283 4876,1292 4997,1306 5118,1300 5239,1332 5360,1340 5481,1361 5603,1363 5724,1373 5845,1411 5966,1441 6087,1445 6208,1442 6329,1485 6451,1505 6572,1541 6693,1583 6814,1641 6935,1600 7056,1546 7177,1659 7299,1750 7420,1814 7541,1676 7662,1677 7783,1678 7904,1711 8025,1744 8146,1815 8267,1809 8388,1781 8509,1835 8630,1835 8751,1905 8873,1981 8994,2086 9115,1992 9236,1907 9357,1946 9478,1966 9599,2033 9721,2079 9842,1908 9963,1966 10084,1984 10205,1975 10326,2115 10447,2180 10569,2091 10690,2133 10811,2129 10932,2056 11053,2090 11174,2001 11295,1938 11417,2033 11538,2077 11659,2024 11780,2180 11901,2096 12022,2095 12143,2160 12265,2017 12386,2068 12507,2105 12628,2023 12749,2209 12870,2214 12991,2038 13113,2137 13234,2178 13355,2157 13476,2244 13597,2322 13718,2032 13839,2049 13961,2035 14082,2049 14203,2099 14324,2024 14445,2022 14566,2188 14688,2214 14688,4076 14566,4141 14445,3925 14324,3899 14203,4201 14082,3860 13961,3761 13839,3735 13718,4126 13597,4154 13476,3917 13355,3614 13234,3616 13113,3457 12991,3235 12870,3406 12749,3304 12628,3000 12507,3115 12386,3024 12265,2931 12143,3252 12022,2925 11901,2905 11780,3079 11659,2731 11538,2803 11417,2738 11295,2654 11174,2769 11053,2851 10932,2767 10811,2830 10690,2706 10569,2617 10447,2733 10326,2605 10205,2416 10084,2400 9963,2315 9842,2217 9721,2432 9599,2326 9478,2229 9357,2201 9236,2173 9115,2270 8994,2401 8873,2251 8751,2153 8630,2108 8509,2097 8388,1964 8267,1988 8146,1967 8025,1892 7904,1852 7783,1807 7662,1800 7541,1802 7420,1959 7299,1849 7177,1764 7056,1644 6935,1692 6814,1736 6693,1655 6572,1607 6451,1576 6329,1546 6208,1494 6087,1494 5966,1485 5845,1447 5724,1400 5603,1386 5481,1381 5360,1356 5239,1346 5118,1310 4997,1311 4876,1298 4755,1286 4633,1272 4512,1263 4391,1249 4270,1221 4149,1212 4028,1202 3907,1198 3785,1193 3664,1179 3543,1180 3422,1173 3301,1167 3180,1162 3059,1161 2937,1154 2816,1144 2695,1141 2574,1140 2453,1139 2332,1134 2211,1129 2089,1127 1968,1127 1847,1127 1726,1123 1605,1119 1484,1119 1363,1114 Z"/>
 <path fill="rgb(204,204,204)" stroke="none" d="M 1363,1114 L 1484,1119 1605,1119 1726,1123 1847,1127 1968,1127 2089,1127 2211,1129 2332,1134 2453,1139 2574,1140 2695,1141 2816,1144 2937,1154 3059,1161 3180,1161 3301,1166 3422,1171 3543,1179 3664,1177 3785,1191 3907,1196 4028,1200 4149,1210 4270,1219 4391,1247 4512,1261 4633,1268 4755,1283 4876,1289 4997,1299 5118,1284 5239,1310 5360,1315 5481,1333 5603,1331 5724,1336 5845,1362 5966,1377 6087,1383 6208,1376 6329,1407 6451,1418 6572,1443 6693,1465 6814,1505 6935,1464 7056,1396 7177,1502 7299,1595 7420,1615 7541,1470 7662,1475 7783,1445 7904,1466 8025,1460 8146,1526 8267,1476 8388,1470 8509,1513 8630,1466 8751,1531 8873,1568 8994,1668 9115,1563 9236,1548 9357,1581 9478,1596 9599,1621 9721,1682 9842,1581 9963,1589 10084,1578 10205,1581 10326,1651 10447,1717 10569,1662 10690,1699 10811,1685 10932,1661 11053,1702 11174,1615 11295,1590 11417,1686 11538,1673 11659,1698 11780,1786 11901,1750 12022,1757 12143,1792 12265,1705 12386,1732 12507,1735 12628,1689 12749,1810 12870,1830 12991,1725 13113,1770 13234,1817 13355,1823 13476,1890 13597,1968 13718,1751 13839,1766 13961,1742 14082,1832 14203,1886 14324,1821 14445,1822 14566,1949 14688,1948 14688,2214 14566,2188 14445,2022 14324,2024 14203,2099 14082,2049 13961,2035 13839,2049 13718,2032 13597,2322 13476,2244 13355,2157 13234,2178 13113,2137 12991,2038 12870,2214 12749,2209 12628,2023 12507,2105 12386,2068 12265,2017 12143,2160 12022,2095 11901,2096 11780,2180 11659,2024 11538,2077 11417,2033 11295,1938 11174,2001 11053,2090 10932,2056 10811,2129 10690,2133 10569,2091 10447,2180 10326,2115 10205,1975 10084,1984 9963,1966 9842,1908 9721,2079 9599,2033 9478,1966 9357,1946 9236,1907 9115,1992 8994,2086 8873,1981 8751,1905 8630,1835 8509,1835 8388,1781 8267,1809 8146,1815 8025,1744 7904,1711 7783,1678 7662,1677 7541,1676 7420,1814 7299,1750 7177,1659 7056,1546 6935,1600 6814,1641 6693,1583 6572,1541 6451,1505 6329,1485 6208,1442 6087,1445 5966,1441 5845,1411 5724,1373 5603,1363 5481,1361 5360,1340 5239,1332 5118,1300 4997,1306 4876,1292 4755,1283 4633,1268 4512,1261 4391,1247 4270,1219 4149,1210 4028,1200 3907,1196 3785,1191 3664,1177 3543,1179 3422,1171 3301,1166 3180,1161 3059,1161 2937,1154 2816,1144 2695,1141 2574,1140 2453,1139 2332,1134 2211,1129 2089,1127 1968,1127 1847,1127 1726,1123 1605,1119 1484,1119 1363,1114 Z"/>
 <path fill="none" stroke="rgb(0,0,0)" stroke-width="20" stroke-linejoin="round" d="M 1363,1114 L 1484,1119 1605,1119 1726,1123 1847,1127 1968,1127 2089,1127 2211,1129 2332,1134 2453,1139 2574,1140 2695,1141 2816,1144 2937,1154 3059,1161 3180,1161 3301,1166 3422,1171 3543,1179 3664,1177 3785,1191 3907,1196 4028,1200 4149,1210 4270,1219 4391,1247 4512,1261 4633,1268 4755,1283 4876,1289 4997,1299 5118,1284 5239,1310 5360,1315 5481,1333 5603,1331 5724,1336 5845,1362 5966,1377 6087,1383 6208,1376 6329,1407 6451,1418 6572,1443 6693,1465 6814,1505 6935,1464 7056,1396 7177,1502 7299,1595 7420,1615 7541,1470 7662,1475 7783,1445 7904,1466 8025,1460 8146,1526 8267,1476 8388,1470 8509,1513 8630,1466 8751,1531 8873,1568 8994,1668 9115,1563 9236,1548 9357,1581 9478,1596 9599,1621 9721,1682 9842,1581 9963,1589 10084,1578 10205,1581 10326,1651 10447,1717 10569,1662 10690,1699 10811,1685 10932,1661 11053,1702 11174,1615 11295,1590 11417,1686 11538,1673 11659,1698 11780,1786 11901,1750 12022,1757 12143,1792 12265,1705 12386,1732 12507,1735 12628,1689 12749,1810 12870,1830 12991,1725 13113,1770 13234,1817 13355,1823 13476,1890 13597,1968 13718,1751 13839,1766 13961,1742 14082,1832 14203,1886 14324,1821 14445,1822 14566,1949 14688,1948 14688,2214 14566,2188 14445,2022 14324,2024 14203,2099 14082,2049 13961,2035 13839,2049 13718,2032 13597,2322 13476,2244 13355,2157 13234,2178 13113,2137 12991,2038 12870,2214 12749,2209 12628,2023 12507,2105 12386,2068 12265,2017 12143,2160 12022,2095 11901,2096 11780,2180 11659,2024 11538,2077 11417,2033 11295,1938 11174,2001 11053,2090 10932,2056 10811,2129 10690,2133 10569,2091 10447,2180 10326,2115 10205,1975 10084,1984 9963,1966 9842,1908 9721,2079 9599,2033 9478,1966 9357,1946 9236,1907 9115,1992 8994,2086 8873,1981 8751,1905 8630,1835 8509,1835 8388,1781 8267,1809 8146,1815 8025,1744 7904,1711 7783,1678 7662,1677 7541,1676 7420,1814 7299,1750 7177,1659 7056,1546 6935,1600 6814,1641 6693,1583 6572,1541 6451,1505 6329,1485 6208,1442 6087,1445 5966,1441 5845,1411 5724,1373 5603,1363 5481,1361 5360,1340 5239,1332 5118,1300 4997,1306 4876,1292 4755,1283 4633,1268 4512,1261 4391,1247 4270,1219 4149,1210 4028,1200 3907,1196 3785,1191 3664,1177 3543,1179 3422,1171 3301,1166 3180,1161 3059,1161 2937,1154 2816,1144 2695,1141 2574,1140 2453,1139 2332,1134 2211,1129 2089,1127 1968,1127 1847,1127 1726,1123 1605,1119 1484,1119 1363,1114 Z"/>
 <path fill="rgb(153,153,153)" stroke="none" d="M 1363,1110 L 1484,1114 1605,1114 1726,1117 1847,1122 1968,1122 2089,1121 2211,1124 2332,1126 2453,1126 2574,1126 2695,1127 2816,1129 2937,1137 3059,1142 3180,1144 3301,1147 3422,1150 3543,1156 3664,1151 3785,1162 3907,1165 4028,1167 4149,1175 4270,1185 4391,1206 4512,1216 4633,1221 4755,1234 4876,1239 4997,1242 5118,1228 5239,1244 5360,1246 5481,1262 5603,1256 5724,1256 5845,1266 5966,1265 6087,1288 6208,1280 6329,1291 6451,1295 6572,1310 6693,1317 6814,1340 6935,1308 7056,1240 7177,1332 7299,1435 7420,1388 7541,1278 7662,1285 7783,1256 7904,1266 8025,1252 8146,1320 8267,1252 8388,1256 8509,1266 8630,1244 8751,1300 8873,1318 8994,1414 9115,1305 9236,1305 9357,1327 9478,1353 9599,1357 9721,1392 9842,1342 9963,1331 10084,1304 10205,1299 10326,1342 10447,1369 10569,1325 10690,1357 10811,1315 10932,1316 11053,1338 11174,1246 11295,1273 11417,1361 11538,1322 11659,1359 11780,1375 11901,1362 12022,1361 12143,1353 12265,1326 12386,1304 12507,1284 12628,1261 12749,1329 12870,1303 12991,1307 13113,1321 13234,1372 13355,1369 13476,1375 13597,1474 13718,1351 13839,1350 13961,1308 14082,1314 14203,1340 14324,1319 14445,1311 14566,1314 14688,1282 14688,1948 14566,1949 14445,1822 14324,1821 14203,1886 14082,1832 13961,1742 13839,1766 13718,1751 13597,1968 13476,1890 13355,1823 13234,1817 13113,1770 12991,1725 12870,1830 12749,1810 12628,1689 12507,1735 12386,1732 12265,1705 12143,1792 12022,1757 11901,1750 11780,1786 11659,1698 11538,1673 11417,1686 11295,1590 11174,1615 11053,1702 10932,1661 10811,1685 10690,1699 10569,1662 10447,1717 10326,1651 10205,1581 10084,1578 9963,1589 9842,1581 9721,1682 9599,1621 9478,1596 9357,1581 9236,1548 9115,1563 8994,1668 8873,1568 8751,1531 8630,1466 8509,1513 8388,1470 8267,1476 8146,1526 8025,1460 7904,1466 7783,1445 7662,1475 7541,1470 7420,1615 7299,1595 7177,1502 7056,1396 6935,1464 6814,1505 6693,1465 6572,1443 6451,1418 6329,1407 6208,1376 6087,1383 5966,1377 5845,1362 5724,1336 5603,1331 5481,1333 5360,1315 5239,1310 5118,1284 4997,1299 4876,1289 4755,1283 4633,1268 4512,1261 4391,1247 4270,1219 4149,1210 4028,1200 3907,1196 3785,1191 3664,1177 3543,1179 3422,1171 3301,1166 3180,1161 3059,1161 2937,1154 2816,1144 2695,1141 2574,1140 2453,1139 2332,1134 2211,1129 2089,1127 1968,1127 1847,1127 1726,1123 1605,1119 1484,1119 1363,1114 1363,1110 Z"/>
 <path fill="none" stroke="rgb(0,0,0)" stroke-width="20" stroke-linejoin="round" d="M 1363,1110 L 1484,1114 1605,1114 1726,1117 1847,1122 1968,1122 2089,1121 2211,1124 2332,1126 2453,1126 2574,1126 2695,1127 2816,1129 2937,1137 3059,1142 3180,1144 3301,1147 3422,1150 3543,1156 3664,1151 3785,1162 3907,1165 4028,1167 4149,1175 4270,1185 4391,1206 4512,1216 4633,1221 4755,1234 4876,1239 4997,1242 5118,1228 5239,1244 5360,1246 5481,1262 5603,1256 5724,1256 5845,1266 5966,1265 6087,1288 6208,1280 6329,1291 6451,1295 6572,1310 6693,1317 6814,1340 6935,1308 7056,1240 7177,1332 7299,1435 7420,1388 7541,1278 7662,1285 7783,1256 7904,1266 8025,1252 8146,1320 8267,1252 8388,1256 8509,1266 8630,1244 8751,1300 8873,1318 8994,1414 9115,1305 9236,1305 9357,1327 9478,1353 9599,1357 9721,1392 9842,1342 9963,1331 10084,1304 10205,1299 10326,1342 10447,1369 10569,1325 10690,1357 10811,1315 10932,1316 11053,1338 11174,1246 11295,1273 11417,1361 11538,1322 11659,1359 11780,1375 11901,1362 12022,1361 12143,1353 12265,1326 12386,1304 12507,1284 12628,1261 12749,1329 12870,1303 12991,1307 13113,1321 13234,1372 13355,1369 13476,1375 13597,1474 13718,1351 13839,1350 13961,1308 14082,1314 14203,1340 14324,1319 14445,1311 14566,1314 14688,1282 14688,1948 14566,1949 14445,1822 14324,1821 14203,1886 14082,1832 13961,1742 13839,1766 13718,1751 13597,1968 13476,1890 13355,1823 13234,1817 13113,1770 12991,1725 12870,1830 12749,1810 12628,1689 12507,1735 12386,1732 12265,1705 12143,1792 12022,1757 11901,1750 11780,1786 11659,1698 11538,1673 11417,1686 11295,1590 11174,1615 11053,1702 10932,1661 10811,1685 10690,1699 10569,1662 10447,1717 10326,1651 10205,1581 10084,1578 9963,1589 9842,1581 9721,1682 9599,1621 9478,1596 9357,1581 9236,1548 9115,1563 8994,1668 8873,1568 8751,1531 8630,1466 8509,1513 8388,1470 8267,1476 8146,1526 8025,1460 7904,1466 7783,1445 7662,1475 7541,1470 7420,1615 7299,1595 7177,1502 7056,1396 6935,1464 6814,1505 6693,1465 6572,1443 6451,1418 6329,1407 6208,1376 6087,1383 5966,1377 5845,1362 5724,1336 5603,1331 5481,1333 5360,1315 5239,1310 5118,1284 4997,1299 4876,1289 4755,1283 4633,1268 4512,1261 4391,1247 4270,1219 4149,1210 4028,1200 3907,1196 3785,1191 3664,1177 3543,1179 3422,1171 3301,1166 3180,1161 3059,1161 2937,1154 2816,1144 2695,1141 2574,1140 2453,1139 2332,1134 2211,1129 2089,1127 1968,1127 1847,1127 1726,1123 1605,1119 1484,1119 1363,1114 1363,1110 Z"/>
 <path fill="rgb(255,255,255)" stroke="none" d="M 1363,1092 L 1484,1092 1605,1092 1726,1092 1847,1092 1968,1092 2089,1092 2332,1092 2453,1092 2574,1092 2695,1092 2816,1092 2937,1092 3059,1092 3180,1092 3301,1092 3422,1092 3543,1092 3664,1092 3785,1092 3907,1092 4028,1092 4149,1092 4270,1092 4391,1092 4512,1092 4633,1092 4755,1092 4876,1092 4997,1092 5037,1092 5199,1092 5239,1092 5360,1092 5481,1092 5603,1092 5724,1092 6087,1092 6208,1092 6329,1092 6451,1092 6572,1092 6693,1092 6814,1092 7016,1092 7056,1092 7177,1092 7541,1092 7662,1092 7702,1092 7864,1092 7904,1092 8025,1092 8146,1092 8509,1092 8751,1092 8873,1092 8994,1092 9115,1092 9236,1092 9357,1092 9478,1092 9721,1092 9842,1092 10084,1092 10205,1092 10326,1092 10447,1092 10569,1092 10690,1092 10811,1092 10932,1092 11053,1092 11174,1092 11295,1092 11417,1092 11538,1092 11740,1092 11780,1092 11901,1092 12022,1092 12240,1092 12265,1092 12386,1092 12507,1092 12628,1092 12749,1092 12773,1092 12940,1092 12991,1092 13064,1092 13234,1092 13355,1092 13476,1092 13597,1092 13718,1092 13759,1092 13920,1092 13961,1092 14001,1092 14284,1092 14324,1092 14348,1092 14499,1092 14566,1092 14688,1092 14688,1282 14566,1314 14445,1311 14324,1319 14203,1340 14082,1314 13961,1308 13839,1350 13718,1351 13597,1474 13476,1375 13355,1369 13234,1372 13113,1321 12991,1307 12870,1303 12749,1329 12628,1261 12507,1284 12386,1304 12265,1326 12143,1353 12022,1361 11901,1362 11780,1375 11659,1359 11538,1322 11417,1361 11295,1273 11174,1246 11053,1338 10932,1316 10811,1315 10690,1357 10569,1325 10447,1369 10326,1342 10205,1299 10084,1304 9963,1331 9842,1342 9721,1392 9599,1357 9478,1353 9357,1327 9236,1305 9115,1305 8994,1414 8873,1318 8751,1300 8630,1244 8509,1266 8388,1256 8267,1252 8146,1320 8025,1252 7904,1266 7783,1256 7662,1285 7541,1278 7420,1388 7299,1435 7177,1332 7056,1240 6935,1308 6814,1340 6693,1317 6572,1310 6451,1295 6329,1291 6208,1280 6087,1288 5966,1265 5845,1266 5724,1256 5603,1256 5481,1262 5360,1246 5239,1244 5118,1228 4997,1242 4876,1239 4755,1234 4633,1221 4512,1216 4391,1206 4270,1185 4149,1175 4028,1167 3907,1165 3785,1162 3664,1151 3543,1156 3422,1150 3301,1147 3180,1144 3059,1142 2937,1137 2816,1129 2695,1127 2574,1126 2453,1126 2332,1126 2211,1124 2089,1121 1968,1122 1847,1122 1726,1117 1605,1114 1484,1114 1363,1110 1363,1092 Z"/>
 <path fill="none" stroke="rgb(0,0,0)" stroke-width="20" stroke-linejoin="round" d="M 1363,1092 L 1484,1092 1605,1092 1726,1092 1847,1092 1968,1092 2089,1092 2332,1092 2453,1092 2574,1092 2695,1092 2816,1092 2937,1092 3059,1092 3180,1092 3301,1092 3422,1092 3543,1092 3664,1092 3785,1092 3907,1092 4028,1092 4149,1092 4270,1092 4391,1092 4512,1092 4633,1092 4755,1092 4876,1092 4997,1092 5037,1092 5199,1092 5239,1092 5360,1092 5481,1092 5603,1092 5724,1092 6087,1092 6208,1092 6329,1092 6451,1092 6572,1092 6693,1092 6814,1092 7016,1092 7056,1092 7177,1092 7541,1092 7662,1092 7702,1092 7864,1092 7904,1092 8025,1092 8146,1092 8509,1092 8751,1092 8873,1092 8994,1092 9115,1092 9236,1092 9357,1092 9478,1092 9721,1092 9842,1092 10084,1092 10205,1092 10326,1092 10447,1092 10569,1092 10690,1092 10811,1092 10932,1092 11053,1092 11174,1092 11295,1092 11417,1092 11538,1092 11740,1092 11780,1092 11901,1092 12022,1092 12240,1092 12265,1092 12386,1092 12507,1092 12628,1092 12749,1092 12773,1092 12940,1092 12991,1092 13064,1092 13234,1092 13355,1092 13476,1092 13597,1092 13718,1092 13759,1092 13920,1092 13961,1092 14001,1092 14284,1092 14324,1092 14348,1092 14499,1092 14566,1092 14688,1092 14688,1282 14566,1314 14445,1311 14324,1319 14203,1340 14082,1314 13961,1308 13839,1350 13718,1351 13597,1474 13476,1375 13355,1369 13234,1372 13113,1321 12991,1307 12870,1303 12749,1329 12628,1261 12507,1284 12386,1304 12265,1326 12143,1353 12022,1361 11901,1362 11780,1375 11659,1359 11538,1322 11417,1361 11295,1273 11174,1246 11053,1338 10932,1316 10811,1315 10690,1357 10569,1325 10447,1369 10326,1342 10205,1299 10084,1304 9963,1331 9842,1342 9721,1392 9599,1357 9478,1353 9357,1327 9236,1305 9115,1305 8994,1414 8873,1318 8751,1300 8630,1244 8509,1266 8388,1256 8267,1252 8146,1320 8025,1252 7904,1266 7783,1256 7662,1285 7541,1278 7420,1388 7299,1435 7177,1332 7056,1240 6935,1308 6814,1340 6693,1317 6572,1310 6451,1295 6329,1291 6208,1280 6087,1288 5966,1265 5845,1266 5724,1256 5603,1256 5481,1262 5360,1246 5239,1244 5118,1228 4997,1242 4876,1239 4755,1234 4633,1221 4512,1216 4391,1206 4270,1185 4149,1175 4028,1167 3907,1165 3785,1162 3664,1151 3543,1156 3422,1150 3301,1147 3180,1144 3059,1142 2937,1137 2816,1129 2695,1127 2574,1126 2453,1126 2332,1126 2211,1124 2089,1121 1968,1122 1847,1122 1726,1117 1605,1114 1484,1114 1363,1110 1363,1092 Z"/>
 <text class="TextShape"><tspan class="TextParagraph" font-family="Arial, sans-serif" font-size="388px" font-weight="400"><tspan class="TextPosition" x="1181" y="11144"><tspan fill="rgb(0,0,0)" stroke="none">2008</tspan></tspan></tspan></text>
 <text class="TextShape"><tspan class="TextParagraph" font-family="Arial, sans-serif" font-size="388px" font-weight="400"><tspan class="TextPosition" x="2635" y="11144"><tspan fill="rgb(0,0,0)" stroke="none">2009</tspan></tspan></tspan></text>
 <text class="TextShape"><tspan class="TextParagraph" font-family="Arial, sans-serif" font-size="388px" font-weight="400"><tspan class="TextPosition" x="4088" y="11144"><tspan fill="rgb(0,0,0)" stroke="none">2010</tspan></tspan></tspan></text>
 <text class="TextShape"><tspan class="TextParagraph" font-family="Arial, sans-serif" font-size="388px" font-weight="400"><tspan class="TextPosition" x="5556" y="11144"><tspan fill="rgb(0,0,0)" stroke="none">2011</tspan></tspan></tspan></text>
 <text class="TextShape"><tspan class="TextParagraph" font-family="Arial, sans-serif" font-size="388px" font-weight="400"><tspan class="TextPosition" x="6996" y="11144"><tspan fill="rgb(0,0,0)" stroke="none">2012</tspan></tspan></tspan></text>
 <text class="TextShape"><tspan class="TextParagraph" font-family="Arial, sans-serif" font-size="388px" font-weight="400"><tspan class="TextPosition" x="8450" y="11144"><tspan fill="rgb(0,0,0)" stroke="none">2013</tspan></tspan></tspan></text>
 <text class="TextShape"><tspan class="TextParagraph" font-family="Arial, sans-serif" font-size="388px" font-weight="400"><tspan class="TextPosition" x="9903" y="11144"><tspan fill="rgb(0,0,0)" stroke="none">2014</tspan></tspan></tspan></text>
 <text class="TextShape"><tspan class="TextParagraph" font-family="Arial, sans-serif" font-size="388px" font-weight="400"><tspan class="TextPosition" x="11357" y="11144"><tspan fill="rgb(0,0,0)" stroke="none">2015</tspan></tspan></tspan></text>
 <text class="TextShape"><tspan class="TextParagraph" font-family="Arial, sans-serif" font-size="388px" font-weight="400"><tspan class="TextPosition" x="12811" y="11144"><tspan fill="rgb(0,0,0)" stroke="none">2016</tspan></tspan></tspan></text>
 <text class="TextShape"><tspan class="TextParagraph" font-family="Arial, sans-serif" font-size="388px" font-weight="400"><tspan class="TextPosition" x="14265" y="11144"><tspan fill="rgb(0,0,0)" stroke="none">2017</tspan></tspan></tspan></text>
 <text class="TextShape"><tspan class="TextParagraph" font-family="Arial, sans-serif" font-size="388px" font-weight="400"><tspan class="TextPosition" x="557" y="10684"><tspan fill="rgb(0,0,0)" stroke="none">0%</tspan></tspan></tspan></text>
 <text class="TextShape"><tspan class="TextParagraph" font-family="Arial, sans-serif" font-size="388px" font-weight="400"><tspan class="TextPosition" x="346" y="9738"><tspan fill="rgb(0,0,0)" stroke="none">10%</tspan></tspan></tspan></text>
 <text class="TextShape"><tspan class="TextParagraph" font-family="Arial, sans-serif" font-size="388px" font-weight="400"><tspan class="TextPosition" x="346" y="8792"><tspan fill="rgb(0,0,0)" stroke="none">20%</tspan></tspan></tspan></text>
 <text class="TextShape"><tspan class="TextParagraph" font-family="Arial, sans-serif" font-size="388px" font-weight="400"><tspan class="TextPosition" x="346" y="7846"><tspan fill="rgb(0,0,0)" stroke="none">30%</tspan></tspan></tspan></text>
 <text class="TextShape"><tspan class="TextParagraph" font-family="Arial, sans-serif" font-size="388px" font-weight="400"><tspan class="TextPosition" x="346" y="6900"><tspan fill="rgb(0,0,0)" stroke="none">40%</tspan></tspan></tspan></text>
 <text class="TextShape"><tspan class="TextParagraph" font-family="Arial, sans-serif" font-size="388px" font-weight="400"><tspan class="TextPosition" x="346" y="5954"><tspan fill="rgb(0,0,0)" stroke="none">50%</tspan></tspan></tspan></text>
 <text class="TextShape"><tspan class="TextParagraph" font-family="Arial, sans-serif" font-size="388px" font-weight="400"><tspan class="TextPosition" x="346" y="5008"><tspan fill="rgb(0,0,0)" stroke="none">60%</tspan></tspan></tspan></text>
 <text class="TextShape"><tspan class="TextParagraph" font-family="Arial, sans-serif" font-size="388px" font-weight="400"><tspan class="TextPosition" x="346" y="4062"><tspan fill="rgb(0,0,0)" stroke="none">70%</tspan></tspan></tspan></text>
 <text class="TextShape"><tspan class="TextParagraph" font-family="Arial, sans-serif" font-size="388px" font-weight="400"><tspan class="TextPosition" x="346" y="3116"><tspan fill="rgb(0,0,0)" stroke="none">80%</tspan></tspan></tspan></text>
 <text class="TextShape"><tspan class="TextParagraph" font-family="Arial, sans-serif" font-size="388px" font-weight="400"><tspan class="TextPosition" x="346" y="2170"><tspan fill="rgb(0,0,0)" stroke="none">90%</tspan></tspan></tspan></text>
 <text class="TextShape"><tspan class="TextParagraph" font-family="Arial, sans-serif" font-size="388px" font-weight="400"><tspan class="TextPosition" x="134" y="1225"><tspan fill="rgb(0,0,0)" stroke="none">100%</tspan></tspan></tspan></text>
 <text class="TextShape"><tspan class="TextParagraph" font-family="Arial, sans-serif" font-size="388px" font-weight="400"><tspan class="TextPosition" x="14938" y="10684"><tspan fill="rgb(0,0,0)" stroke="none">0%</tspan></tspan></tspan></text>
 <text class="TextShape"><tspan class="TextParagraph" font-family="Arial, sans-serif" font-size="388px" font-weight="400"><tspan class="TextPosition" x="14938" y="9738"><tspan fill="rgb(0,0,0)" stroke="none">10%</tspan></tspan></tspan></text>
 <text class="TextShape"><tspan class="TextParagraph" font-family="Arial, sans-serif" font-size="388px" font-weight="400"><tspan class="TextPosition" x="14938" y="8792"><tspan fill="rgb(0,0,0)" stroke="none">20%</tspan></tspan></tspan></text>
 <text class="TextShape"><tspan class="TextParagraph" font-family="Arial, sans-serif" font-size="388px" font-weight="400"><tspan class="TextPosition" x="14938" y="7846"><tspan fill="rgb(0,0,0)" stroke="none">30%</tspan></tspan></tspan></text>
 <text class="TextShape"><tspan class="TextParagraph" font-family="Arial, sans-serif" font-size="388px" font-weight="400"><tspan class="TextPosition" x="14938" y="6900"><tspan fill="rgb(0,0,0)" stroke="none">40%</tspan></tspan></tspan></text>
 <text class="TextShape"><tspan class="TextParagraph" font-family="Arial, sans-serif" font-size="388px" font-weight="400"><tspan class="TextPosition" x="14938" y="5954"><tspan fill="rgb(0,0,0)" stroke="none">50%</tspan></tspan></tspan></text>
 <text class="TextShape"><tspan class="TextParagraph" font-family="Arial, sans-serif" font-size="388px" font-weight="400"><tspan class="TextPosition" x="14938" y="5008"><tspan fill="rgb(0,0,0)" stroke="none">60%</tspan></tspan></tspan></text>
 <text class="TextShape"><tspan class="TextParagraph" font-family="Arial, sans-serif" font-size="388px" font-weight="400"><tspan class="TextPosition" x="14938" y="4062"><tspan fill="rgb(0,0,0)" stroke="none">70%</tspan></tspan></tspan></text>
 <text class="TextShape"><tspan class="TextParagraph" font-family="Arial, sans-serif" font-size="388px" font-weight="400"><tspan class="TextPosition" x="14938" y="3116"><tspan fill="rgb(0,0,0)" stroke="none">80%</tspan></tspan></tspan></text>
 <text class="TextShape"><tspan class="TextParagraph" font-family="Arial, sans-serif" font-size="388px" font-weight="400"><tspan class="TextPosition" x="14938" y="2170"><tspan fill="rgb(0,0,0)" stroke="none">90%</tspan></tspan></tspan></text>
 <text class="TextShape"><tspan class="TextParagraph" font-family="Arial, sans-serif" font-size="388px" font-weight="400"><tspan class="TextPosition" x="14938" y="1225"><tspan fill="rgb(0,0,0)" stroke="none">100%</tspan></tspan></tspan></text>
 <text class="TextShape"><tspan class="TextParagraph" font-family="Arial, sans-serif" font-size="564px" font-weight="400"><tspan class="TextPosition" x="1418" y="673"><tspan fill="rgb(0,0,0)" stroke="none">Sistemas operativos con los que se accede a la web</tspan></tspan></tspan></text>
 <path fill="rgb(0,71,255)" stroke="none" d="M 2421,11621 L 2305,11621 2305,11389 2537,11389 2537,11621 2421,11621 Z"/>
 <path fill="none" stroke="rgb(0,0,0)" stroke-linejoin="round" d="M 2421,11621 L 2305,11621 2305,11389 2537,11389 2537,11621 2421,11621 Z"/>
 <path fill="rgb(102,102,102)" stroke="none" d="M 4599,11621 L 4483,11621 4483,11389 4715,11389 4715,11621 4599,11621 Z"/>
 <path fill="none" stroke="rgb(0,0,0)" stroke-linejoin="round" d="M 4599,11621 L 4483,11621 4483,11389 4715,11389 4715,11621 4599,11621 Z"/>
 <path fill="rgb(220,35,0)" stroke="none" d="M 5930,11621 L 5814,11621 5814,11389 6046,11389 6046,11621 5930,11621 Z"/>
 <path fill="none" stroke="rgb(0,0,0)" stroke-linejoin="round" d="M 5930,11621 L 5814,11621 5814,11389 6046,11389 6046,11621 5930,11621 Z"/>
 <path fill="rgb(174,207,0)" stroke="none" d="M 7446,11621 L 7330,11621 7330,11389 7562,11389 7562,11621 7446,11621 Z"/>
 <path fill="none" stroke="rgb(0,0,0)" stroke-linejoin="round" d="M 7446,11621 L 7330,11621 7330,11389 7562,11389 7562,11621 7446,11621 Z"/>
 <path fill="rgb(204,204,204)" stroke="none" d="M 9358,11621 L 9242,11621 9242,11389 9474,11389 9474,11621 9358,11621 Z"/>
 <path fill="none" stroke="rgb(0,0,0)" stroke-linejoin="round" d="M 9358,11621 L 9242,11621 9242,11389 9474,11389 9474,11621 9358,11621 Z"/>
 <path fill="rgb(153,153,153)" stroke="none" d="M 10715,11621 L 10599,11621 10599,11389 10831,11389 10831,11621 10715,11621 Z"/>
 <path fill="none" stroke="rgb(0,0,0)" stroke-linejoin="round" d="M 10715,11621 L 10599,11621 10599,11389 10831,11389 10831,11621 10715,11621 Z"/>
 <path fill="rgb(255,255,255)" stroke="none" d="M 12496,11621 L 12380,11621 12380,11389 12612,11389 12612,11621 12496,11621 Z"/>
 <path fill="none" stroke="rgb(0,0,0)" stroke-linejoin="round" d="M 12496,11621 L 12380,11621 12380,11389 12612,11389 12612,11621 12496,11621 Z"/>
 <text class="TextShape"><tspan class="TextParagraph" font-family="Arial, sans-serif" font-size="388px" font-weight="400"><tspan class="TextPosition" x="2637" y="11637"><tspan fill="rgb(0,0,0)" stroke="none">Windows</tspan></tspan></tspan></text>
 <text class="TextShape"><tspan class="TextParagraph" font-family="Arial, sans-serif" font-size="388px" font-weight="400"><tspan class="TextPosition" x="4815" y="11637"><tspan fill="rgb(0,0,0)" stroke="none">Mac</tspan></tspan></tspan></text>
 <text class="TextShape"><tspan class="TextParagraph" font-family="Arial, sans-serif" font-size="388px" font-weight="400"><tspan class="TextPosition" x="6146" y="11637"><tspan fill="rgb(0,0,0)" stroke="none">Linux</tspan></tspan></tspan></text>
 <text class="TextShape"><tspan class="TextParagraph" font-family="Arial, sans-serif" font-size="388px" font-weight="400"><tspan class="TextPosition" x="7662" y="11637"><tspan fill="rgb(0,0,0)" stroke="none">Android</tspan></tspan></tspan></text>
 <text class="TextShape"><tspan class="TextParagraph" font-family="Arial, sans-serif" font-size="388px" font-weight="400"><tspan class="TextPosition" x="9574" y="11637"><tspan fill="rgb(0,0,0)" stroke="none">iPad</tspan></tspan></tspan></text>
 <text class="TextShape"><tspan class="TextParagraph" font-family="Arial, sans-serif" font-size="388px" font-weight="400"><tspan class="TextPosition" x="10931" y="11637"><tspan fill="rgb(0,0,0)" stroke="none">iPhone</tspan></tspan></tspan></text>
 <text class="TextShape"><tspan class="TextParagraph" font-family="Arial, sans-serif" font-size="388px" font-weight="400"><tspan class="TextPosition" x="12712" y="11637"><tspan fill="rgb(0,0,0)" stroke="none">Otros</tspan></tspan></tspan></text>
</svg>
