<?xml version="1.0" encoding="UTF-8"?>
<!DOCTYPE svg PUBLIC "-//W3C//DTD SVG 1.1//EN" "http://www.w3.org/Graphics/SVG/1.1/DTD/svg11.dtd">
<svg width="160mm" height="120mm" viewBox="0 0 16000 12000" version="1.1" xmlns="http://www.w3.org/2000/svg" stroke-width="28.222" stroke-linejoin="round" xml:space="preserve">
 <path fill="rgb(255,255,255)" stroke="none" d="M 8000,12000 L 0,12000 0,0 16000,0 16000,12000 8000,12000 Z"/>
 <path fill="none" stroke="rgb(179,179,179)" stroke-linejoin="round" d="M 7963,10568 L 1287,10568 1287,781 14638,781 14638,10568 7963,10568 Z"/>
 <path fill="none" stroke="rgb(179,179,179)" stroke-linejoin="round" d="M 14638,10567 L 1287,10567"/>
 <path fill="none" stroke="rgb(179,179,179)" stroke-linejoin="round" d="M 14638,9588 L 1287,9588"/>
 <path fill="none" stroke="rgb(179,179,179)" stroke-linejoin="round" d="M 14638,8609 L 1287,8609"/>
 <path fill="none" stroke="rgb(179,179,179)" stroke-linejoin="round" d="M 14638,7630 L 1287,7630"/>
 <path fill="none" stroke="rgb(179,179,179)" stroke-linejoin="round" d="M 14638,6651 L 1287,6651"/>
 <path fill="none" stroke="rgb(179,179,179)" stroke-linejoin="round" d="M 14638,5674 L 1287,5674"/>
 <path fill="none" stroke="rgb(179,179,179)" stroke-linejoin="round" d="M 14638,4695 L 1287,4695"/>
 <path fill="none" stroke="rgb(179,179,179)" stroke-linejoin="round" d="M 14638,3716 L 1287,3716"/>
 <path fill="none" stroke="rgb(179,179,179)" stroke-linejoin="round" d="M 14638,2737 L 1287,2737"/>
 <path fill="none" stroke="rgb(179,179,179)" stroke-linejoin="round" d="M 14638,1758 L 1287,1758"/>
 <path fill="none" stroke="rgb(179,179,179)" stroke-linejoin="round" d="M 14638,780 L 1287,780"/>
 <path fill="none" stroke="rgb(179,179,179)" stroke-linejoin="round" d="M 1287,10717 L 1287,10567"/>
 <path fill="none" stroke="rgb(179,179,179)" stroke-linejoin="round" d="M 1287,10717 L 1287,10567"/>
 <path fill="none" stroke="rgb(179,179,179)" stroke-linejoin="round" d="M 1492,10717 L 1492,10567"/>
 <path fill="none" stroke="rgb(179,179,179)" stroke-linejoin="round" d="M 1492,10717 L 1492,10567"/>
 <path fill="none" stroke="rgb(179,179,179)" stroke-linejoin="round" d="M 1697,10717 L 1697,10567"/>
 <path fill="none" stroke="rgb(179,179,179)" stroke-linejoin="round" d="M 1697,10717 L 1697,10567"/>
 <path fill="none" stroke="rgb(179,179,179)" stroke-linejoin="round" d="M 1903,10717 L 1903,10567"/>
 <path fill="none" stroke="rgb(179,179,179)" stroke-linejoin="round" d="M 1903,10717 L 1903,10567"/>
 <path fill="none" stroke="rgb(179,179,179)" stroke-linejoin="round" d="M 2108,10717 L 2108,10567"/>
 <path fill="none" stroke="rgb(179,179,179)" stroke-linejoin="round" d="M 2108,10717 L 2108,10567"/>
 <path fill="none" stroke="rgb(179,179,179)" stroke-linejoin="round" d="M 2314,10717 L 2314,10567"/>
 <path fill="none" stroke="rgb(179,179,179)" stroke-linejoin="round" d="M 2314,10717 L 2314,10567"/>
 <path fill="none" stroke="rgb(179,179,179)" stroke-linejoin="round" d="M 2519,10717 L 2519,10567"/>
 <path fill="none" stroke="rgb(179,179,179)" stroke-linejoin="round" d="M 2519,10717 L 2519,10567"/>
 <path fill="none" stroke="rgb(179,179,179)" stroke-linejoin="round" d="M 2724,10717 L 2724,10567"/>
 <path fill="none" stroke="rgb(179,179,179)" stroke-linejoin="round" d="M 2724,10717 L 2724,10567"/>
 <path fill="none" stroke="rgb(179,179,179)" stroke-linejoin="round" d="M 2930,10717 L 2930,10567"/>
 <path fill="none" stroke="rgb(179,179,179)" stroke-linejoin="round" d="M 2930,10717 L 2930,10567"/>
 <path fill="none" stroke="rgb(179,179,179)" stroke-linejoin="round" d="M 3135,10717 L 3135,10567"/>
 <path fill="none" stroke="rgb(179,179,179)" stroke-linejoin="round" d="M 3135,10717 L 3135,10567"/>
 <path fill="none" stroke="rgb(179,179,179)" stroke-linejoin="round" d="M 3341,10717 L 3341,10567"/>
 <path fill="none" stroke="rgb(179,179,179)" stroke-linejoin="round" d="M 3341,10717 L 3341,10567"/>
 <path fill="none" stroke="rgb(179,179,179)" stroke-linejoin="round" d="M 3546,10717 L 3546,10567"/>
 <path fill="none" stroke="rgb(179,179,179)" stroke-linejoin="round" d="M 3546,10717 L 3546,10567"/>
 <path fill="none" stroke="rgb(179,179,179)" stroke-linejoin="round" d="M 3751,10717 L 3751,10567"/>
 <path fill="none" stroke="rgb(179,179,179)" stroke-linejoin="round" d="M 3751,10717 L 3751,10567"/>
 <path fill="none" stroke="rgb(179,179,179)" stroke-linejoin="round" d="M 3957,10717 L 3957,10567"/>
 <path fill="none" stroke="rgb(179,179,179)" stroke-linejoin="round" d="M 3957,10717 L 3957,10567"/>
 <path fill="none" stroke="rgb(179,179,179)" stroke-linejoin="round" d="M 4162,10717 L 4162,10567"/>
 <path fill="none" stroke="rgb(179,179,179)" stroke-linejoin="round" d="M 4162,10717 L 4162,10567"/>
 <path fill="none" stroke="rgb(179,179,179)" stroke-linejoin="round" d="M 4368,10717 L 4368,10567"/>
 <path fill="none" stroke="rgb(179,179,179)" stroke-linejoin="round" d="M 4368,10717 L 4368,10567"/>
 <path fill="none" stroke="rgb(179,179,179)" stroke-linejoin="round" d="M 4573,10717 L 4573,10567"/>
 <path fill="none" stroke="rgb(179,179,179)" stroke-linejoin="round" d="M 4573,10717 L 4573,10567"/>
 <path fill="none" stroke="rgb(179,179,179)" stroke-linejoin="round" d="M 4779,10717 L 4779,10567"/>
 <path fill="none" stroke="rgb(179,179,179)" stroke-linejoin="round" d="M 4779,10717 L 4779,10567"/>
 <path fill="none" stroke="rgb(179,179,179)" stroke-linejoin="round" d="M 4984,10717 L 4984,10567"/>
 <path fill="none" stroke="rgb(179,179,179)" stroke-linejoin="round" d="M 4984,10717 L 4984,10567"/>
 <path fill="none" stroke="rgb(179,179,179)" stroke-linejoin="round" d="M 5189,10717 L 5189,10567"/>
 <path fill="none" stroke="rgb(179,179,179)" stroke-linejoin="round" d="M 5189,10717 L 5189,10567"/>
 <path fill="none" stroke="rgb(179,179,179)" stroke-linejoin="round" d="M 5395,10717 L 5395,10567"/>
 <path fill="none" stroke="rgb(179,179,179)" stroke-linejoin="round" d="M 5395,10717 L 5395,10567"/>
 <path fill="none" stroke="rgb(179,179,179)" stroke-linejoin="round" d="M 5600,10717 L 5600,10567"/>
 <path fill="none" stroke="rgb(179,179,179)" stroke-linejoin="round" d="M 5600,10717 L 5600,10567"/>
 <path fill="none" stroke="rgb(179,179,179)" stroke-linejoin="round" d="M 5806,10717 L 5806,10567"/>
 <path fill="none" stroke="rgb(179,179,179)" stroke-linejoin="round" d="M 5806,10717 L 5806,10567"/>
 <path fill="none" stroke="rgb(179,179,179)" stroke-linejoin="round" d="M 6011,10717 L 6011,10567"/>
 <path fill="none" stroke="rgb(179,179,179)" stroke-linejoin="round" d="M 6011,10717 L 6011,10567"/>
 <path fill="none" stroke="rgb(179,179,179)" stroke-linejoin="round" d="M 6216,10717 L 6216,10567"/>
 <path fill="none" stroke="rgb(179,179,179)" stroke-linejoin="round" d="M 6216,10717 L 6216,10567"/>
 <path fill="none" stroke="rgb(179,179,179)" stroke-linejoin="round" d="M 6422,10717 L 6422,10567"/>
 <path fill="none" stroke="rgb(179,179,179)" stroke-linejoin="round" d="M 6422,10717 L 6422,10567"/>
 <path fill="none" stroke="rgb(179,179,179)" stroke-linejoin="round" d="M 6627,10717 L 6627,10567"/>
 <path fill="none" stroke="rgb(179,179,179)" stroke-linejoin="round" d="M 6627,10717 L 6627,10567"/>
 <path fill="none" stroke="rgb(179,179,179)" stroke-linejoin="round" d="M 6833,10717 L 6833,10567"/>
 <path fill="none" stroke="rgb(179,179,179)" stroke-linejoin="round" d="M 6833,10717 L 6833,10567"/>
 <path fill="none" stroke="rgb(179,179,179)" stroke-linejoin="round" d="M 7038,10717 L 7038,10567"/>
 <path fill="none" stroke="rgb(179,179,179)" stroke-linejoin="round" d="M 7038,10717 L 7038,10567"/>
 <path fill="none" stroke="rgb(179,179,179)" stroke-linejoin="round" d="M 7244,10717 L 7244,10567"/>
 <path fill="none" stroke="rgb(179,179,179)" stroke-linejoin="round" d="M 7244,10717 L 7244,10567"/>
 <path fill="none" stroke="rgb(179,179,179)" stroke-linejoin="round" d="M 7449,10717 L 7449,10567"/>
 <path fill="none" stroke="rgb(179,179,179)" stroke-linejoin="round" d="M 7449,10717 L 7449,10567"/>
 <path fill="none" stroke="rgb(179,179,179)" stroke-linejoin="round" d="M 7654,10717 L 7654,10567"/>
 <path fill="none" stroke="rgb(179,179,179)" stroke-linejoin="round" d="M 7654,10717 L 7654,10567"/>
 <path fill="none" stroke="rgb(179,179,179)" stroke-linejoin="round" d="M 7860,10717 L 7860,10567"/>
 <path fill="none" stroke="rgb(179,179,179)" stroke-linejoin="round" d="M 7860,10717 L 7860,10567"/>
 <path fill="none" stroke="rgb(179,179,179)" stroke-linejoin="round" d="M 8064,10717 L 8064,10567"/>
 <path fill="none" stroke="rgb(179,179,179)" stroke-linejoin="round" d="M 8064,10717 L 8064,10567"/>
 <path fill="none" stroke="rgb(179,179,179)" stroke-linejoin="round" d="M 8270,10717 L 8270,10567"/>
 <path fill="none" stroke="rgb(179,179,179)" stroke-linejoin="round" d="M 8270,10717 L 8270,10567"/>
 <path fill="none" stroke="rgb(179,179,179)" stroke-linejoin="round" d="M 8475,10717 L 8475,10567"/>
 <path fill="none" stroke="rgb(179,179,179)" stroke-linejoin="round" d="M 8475,10717 L 8475,10567"/>
 <path fill="none" stroke="rgb(179,179,179)" stroke-linejoin="round" d="M 8680,10717 L 8680,10567"/>
 <path fill="none" stroke="rgb(179,179,179)" stroke-linejoin="round" d="M 8680,10717 L 8680,10567"/>
 <path fill="none" stroke="rgb(179,179,179)" stroke-linejoin="round" d="M 8886,10717 L 8886,10567"/>
 <path fill="none" stroke="rgb(179,179,179)" stroke-linejoin="round" d="M 8886,10717 L 8886,10567"/>
 <path fill="none" stroke="rgb(179,179,179)" stroke-linejoin="round" d="M 9091,10717 L 9091,10567"/>
 <path fill="none" stroke="rgb(179,179,179)" stroke-linejoin="round" d="M 9091,10717 L 9091,10567"/>
 <path fill="none" stroke="rgb(179,179,179)" stroke-linejoin="round" d="M 9297,10717 L 9297,10567"/>
 <path fill="none" stroke="rgb(179,179,179)" stroke-linejoin="round" d="M 9297,10717 L 9297,10567"/>
 <path fill="none" stroke="rgb(179,179,179)" stroke-linejoin="round" d="M 9502,10717 L 9502,10567"/>
 <path fill="none" stroke="rgb(179,179,179)" stroke-linejoin="round" d="M 9502,10717 L 9502,10567"/>
 <path fill="none" stroke="rgb(179,179,179)" stroke-linejoin="round" d="M 9708,10717 L 9708,10567"/>
 <path fill="none" stroke="rgb(179,179,179)" stroke-linejoin="round" d="M 9708,10717 L 9708,10567"/>
 <path fill="none" stroke="rgb(179,179,179)" stroke-linejoin="round" d="M 9913,10717 L 9913,10567"/>
 <path fill="none" stroke="rgb(179,179,179)" stroke-linejoin="round" d="M 9913,10717 L 9913,10567"/>
 <path fill="none" stroke="rgb(179,179,179)" stroke-linejoin="round" d="M 10118,10717 L 10118,10567"/>
 <path fill="none" stroke="rgb(179,179,179)" stroke-linejoin="round" d="M 10118,10717 L 10118,10567"/>
 <path fill="none" stroke="rgb(179,179,179)" stroke-linejoin="round" d="M 10324,10717 L 10324,10567"/>
 <path fill="none" stroke="rgb(179,179,179)" stroke-linejoin="round" d="M 10324,10717 L 10324,10567"/>
 <path fill="none" stroke="rgb(179,179,179)" stroke-linejoin="round" d="M 10529,10717 L 10529,10567"/>
 <path fill="none" stroke="rgb(179,179,179)" stroke-linejoin="round" d="M 10529,10717 L 10529,10567"/>
 <path fill="none" stroke="rgb(179,179,179)" stroke-linejoin="round" d="M 10735,10717 L 10735,10567"/>
 <path fill="none" stroke="rgb(179,179,179)" stroke-linejoin="round" d="M 10735,10717 L 10735,10567"/>
 <path fill="none" stroke="rgb(179,179,179)" stroke-linejoin="round" d="M 10940,10717 L 10940,10567"/>
 <path fill="none" stroke="rgb(179,179,179)" stroke-linejoin="round" d="M 10940,10717 L 10940,10567"/>
 <path fill="none" stroke="rgb(179,179,179)" stroke-linejoin="round" d="M 11145,10717 L 11145,10567"/>
 <path fill="none" stroke="rgb(179,179,179)" stroke-linejoin="round" d="M 11145,10717 L 11145,10567"/>
 <path fill="none" stroke="rgb(179,179,179)" stroke-linejoin="round" d="M 11351,10717 L 11351,10567"/>
 <path fill="none" stroke="rgb(179,179,179)" stroke-linejoin="round" d="M 11351,10717 L 11351,10567"/>
 <path fill="none" stroke="rgb(179,179,179)" stroke-linejoin="round" d="M 11556,10717 L 11556,10567"/>
 <path fill="none" stroke="rgb(179,179,179)" stroke-linejoin="round" d="M 11556,10717 L 11556,10567"/>
 <path fill="none" stroke="rgb(179,179,179)" stroke-linejoin="round" d="M 11762,10717 L 11762,10567"/>
 <path fill="none" stroke="rgb(179,179,179)" stroke-linejoin="round" d="M 11762,10717 L 11762,10567"/>
 <path fill="none" stroke="rgb(179,179,179)" stroke-linejoin="round" d="M 11967,10717 L 11967,10567"/>
 <path fill="none" stroke="rgb(179,179,179)" stroke-linejoin="round" d="M 11967,10717 L 11967,10567"/>
 <path fill="none" stroke="rgb(179,179,179)" stroke-linejoin="round" d="M 12173,10717 L 12173,10567"/>
 <path fill="none" stroke="rgb(179,179,179)" stroke-linejoin="round" d="M 12173,10717 L 12173,10567"/>
 <path fill="none" stroke="rgb(179,179,179)" stroke-linejoin="round" d="M 12378,10717 L 12378,10567"/>
 <path fill="none" stroke="rgb(179,179,179)" stroke-linejoin="round" d="M 12378,10717 L 12378,10567"/>
 <path fill="none" stroke="rgb(179,179,179)" stroke-linejoin="round" d="M 12583,10717 L 12583,10567"/>
 <path fill="none" stroke="rgb(179,179,179)" stroke-linejoin="round" d="M 12583,10717 L 12583,10567"/>
 <path fill="none" stroke="rgb(179,179,179)" stroke-linejoin="round" d="M 12789,10717 L 12789,10567"/>
 <path fill="none" stroke="rgb(179,179,179)" stroke-linejoin="round" d="M 12789,10717 L 12789,10567"/>
 <path fill="none" stroke="rgb(179,179,179)" stroke-linejoin="round" d="M 12994,10717 L 12994,10567"/>
 <path fill="none" stroke="rgb(179,179,179)" stroke-linejoin="round" d="M 12994,10717 L 12994,10567"/>
 <path fill="none" stroke="rgb(179,179,179)" stroke-linejoin="round" d="M 13200,10717 L 13200,10567"/>
 <path fill="none" stroke="rgb(179,179,179)" stroke-linejoin="round" d="M 13200,10717 L 13200,10567"/>
 <path fill="none" stroke="rgb(179,179,179)" stroke-linejoin="round" d="M 13405,10717 L 13405,10567"/>
 <path fill="none" stroke="rgb(179,179,179)" stroke-linejoin="round" d="M 13405,10717 L 13405,10567"/>
 <path fill="none" stroke="rgb(179,179,179)" stroke-linejoin="round" d="M 13610,10717 L 13610,10567"/>
 <path fill="none" stroke="rgb(179,179,179)" stroke-linejoin="round" d="M 13610,10717 L 13610,10567"/>
 <path fill="none" stroke="rgb(179,179,179)" stroke-linejoin="round" d="M 13816,10717 L 13816,10567"/>
 <path fill="none" stroke="rgb(179,179,179)" stroke-linejoin="round" d="M 13816,10717 L 13816,10567"/>
 <path fill="none" stroke="rgb(179,179,179)" stroke-linejoin="round" d="M 14021,10717 L 14021,10567"/>
 <path fill="none" stroke="rgb(179,179,179)" stroke-linejoin="round" d="M 14021,10717 L 14021,10567"/>
 <path fill="none" stroke="rgb(179,179,179)" stroke-linejoin="round" d="M 14227,10717 L 14227,10567"/>
 <path fill="none" stroke="rgb(179,179,179)" stroke-linejoin="round" d="M 14227,10717 L 14227,10567"/>
 <path fill="none" stroke="rgb(179,179,179)" stroke-linejoin="round" d="M 14432,10717 L 14432,10567"/>
 <path fill="none" stroke="rgb(179,179,179)" stroke-linejoin="round" d="M 14432,10717 L 14432,10567"/>
 <path fill="none" stroke="rgb(179,179,179)" stroke-linejoin="round" d="M 14638,10717 L 14638,10567"/>
 <path fill="none" stroke="rgb(179,179,179)" stroke-linejoin="round" d="M 14638,10717 L 14638,10567"/>
 <path fill="none" stroke="rgb(179,179,179)" stroke-linejoin="round" d="M 1287,10567 L 14638,10567"/>
 <path fill="none" stroke="rgb(179,179,179)" stroke-linejoin="round" d="M 1137,10567 L 1287,10567"/>
 <path fill="none" stroke="rgb(179,179,179)" stroke-linejoin="round" d="M 1137,10567 L 1287,10567"/>
 <path fill="none" stroke="rgb(179,179,179)" stroke-linejoin="round" d="M 1137,9588 L 1287,9588"/>
 <path fill="none" stroke="rgb(179,179,179)" stroke-linejoin="round" d="M 1137,9588 L 1287,9588"/>
 <path fill="none" stroke="rgb(179,179,179)" stroke-linejoin="round" d="M 1137,8609 L 1287,8609"/>
 <path fill="none" stroke="rgb(179,179,179)" stroke-linejoin="round" d="M 1137,8609 L 1287,8609"/>
 <path fill="none" stroke="rgb(179,179,179)" stroke-linejoin="round" d="M 1137,7630 L 1287,7630"/>
 <path fill="none" stroke="rgb(179,179,179)" stroke-linejoin="round" d="M 1137,7630 L 1287,7630"/>
 <path fill="none" stroke="rgb(179,179,179)" stroke-linejoin="round" d="M 1137,6651 L 1287,6651"/>
 <path fill="none" stroke="rgb(179,179,179)" stroke-linejoin="round" d="M 1137,6651 L 1287,6651"/>
 <path fill="none" stroke="rgb(179,179,179)" stroke-linejoin="round" d="M 1137,5674 L 1287,5674"/>
 <path fill="none" stroke="rgb(179,179,179)" stroke-linejoin="round" d="M 1137,5674 L 1287,5674"/>
 <path fill="none" stroke="rgb(179,179,179)" stroke-linejoin="round" d="M 1137,4695 L 1287,4695"/>
 <path fill="none" stroke="rgb(179,179,179)" stroke-linejoin="round" d="M 1137,4695 L 1287,4695"/>
 <path fill="none" stroke="rgb(179,179,179)" stroke-linejoin="round" d="M 1137,3716 L 1287,3716"/>
 <path fill="none" stroke="rgb(179,179,179)" stroke-linejoin="round" d="M 1137,3716 L 1287,3716"/>
 <path fill="none" stroke="rgb(179,179,179)" stroke-linejoin="round" d="M 1137,2737 L 1287,2737"/>
 <path fill="none" stroke="rgb(179,179,179)" stroke-linejoin="round" d="M 1137,2737 L 1287,2737"/>
 <path fill="none" stroke="rgb(179,179,179)" stroke-linejoin="round" d="M 1137,1758 L 1287,1758"/>
 <path fill="none" stroke="rgb(179,179,179)" stroke-linejoin="round" d="M 1137,1758 L 1287,1758"/>
 <path fill="none" stroke="rgb(179,179,179)" stroke-linejoin="round" d="M 1137,780 L 1287,780"/>
 <path fill="none" stroke="rgb(179,179,179)" stroke-linejoin="round" d="M 1137,780 L 1287,780"/>
 <path fill="none" stroke="rgb(179,179,179)" stroke-linejoin="round" d="M 1287,10567 L 1287,780"/>
 <path fill="none" stroke="rgb(179,179,179)" stroke-linejoin="round" d="M 14788,10567 L 14638,10567"/>
 <path fill="none" stroke="rgb(179,179,179)" stroke-linejoin="round" d="M 14788,10567 L 14638,10567"/>
 <path fill="none" stroke="rgb(179,179,179)" stroke-linejoin="round" d="M 14788,9588 L 14638,9588"/>
 <path fill="none" stroke="rgb(179,179,179)" stroke-linejoin="round" d="M 14788,9588 L 14638,9588"/>
 <path fill="none" stroke="rgb(179,179,179)" stroke-linejoin="round" d="M 14788,8609 L 14638,8609"/>
 <path fill="none" stroke="rgb(179,179,179)" stroke-linejoin="round" d="M 14788,8609 L 14638,8609"/>
 <path fill="none" stroke="rgb(179,179,179)" stroke-linejoin="round" d="M 14788,7630 L 14638,7630"/>
 <path fill="none" stroke="rgb(179,179,179)" stroke-linejoin="round" d="M 14788,7630 L 14638,7630"/>
 <path fill="none" stroke="rgb(179,179,179)" stroke-linejoin="round" d="M 14788,6651 L 14638,6651"/>
 <path fill="none" stroke="rgb(179,179,179)" stroke-linejoin="round" d="M 14788,6651 L 14638,6651"/>
 <path fill="none" stroke="rgb(179,179,179)" stroke-linejoin="round" d="M 14788,5674 L 14638,5674"/>
 <path fill="none" stroke="rgb(179,179,179)" stroke-linejoin="round" d="M 14788,5674 L 14638,5674"/>
 <path fill="none" stroke="rgb(179,179,179)" stroke-linejoin="round" d="M 14788,4695 L 14638,4695"/>
 <path fill="none" stroke="rgb(179,179,179)" stroke-linejoin="round" d="M 14788,4695 L 14638,4695"/>
 <path fill="none" stroke="rgb(179,179,179)" stroke-linejoin="round" d="M 14788,3716 L 14638,3716"/>
 <path fill="none" stroke="rgb(179,179,179)" stroke-linejoin="round" d="M 14788,3716 L 14638,3716"/>
 <path fill="none" stroke="rgb(179,179,179)" stroke-linejoin="round" d="M 14788,2737 L 14638,2737"/>
 <path fill="none" stroke="rgb(179,179,179)" stroke-linejoin="round" d="M 14788,2737 L 14638,2737"/>
 <path fill="none" stroke="rgb(179,179,179)" stroke-linejoin="round" d="M 14788,1758 L 14638,1758"/>
 <path fill="none" stroke="rgb(179,179,179)" stroke-linejoin="round" d="M 14788,1758 L 14638,1758"/>
 <path fill="none" stroke="rgb(179,179,179)" stroke-linejoin="round" d="M 14788,780 L 14638,780"/>
 <path fill="none" stroke="rgb(179,179,179)" stroke-linejoin="round" d="M 14788,780 L 14638,780"/>
 <path fill="none" stroke="rgb(179,179,179)" stroke-linejoin="round" d="M 14638,10567 L 14638,780"/>
 <path fill="rgb(0,71,255)" stroke="none" d="M 1287,2055 L 1492,2057 1697,2047 1903,2084 2108,2098 2314,2118 2519,2186 2724,2242 2930,2253 3135,2307 3341,2333 3546,2490 3751,2521 3957,2545 4162,2563 4368,2692 4573,2645 4779,2729 4984,2906 5189,2885 5395,2860 5600,2820 5806,3047 6011,3308 6216,3338 6422,3344 6627,3385 6833,3516 7038,3589 7244,3672 7449,3799 7654,3839 7860,3759 8064,3678 8270,3615 8475,3891 8680,4927 8886,4982 9091,5113 9297,5050 9502,4959 9708,5076 9913,5550 10118,5680 10324,5720 10529,5467 10735,5486 10940,6036 11145,6272 11351,6206 11556,6222 11762,6315 11967,6330 12173,6648 12378,6777 12583,6721 12789,6481 12994,6344 13200,6371 13405,6634 13610,6616 13816,6462 14021,6430 14227,6510 14432,6422 14638,6489 14638,10567 1287,10567 1287,2055 Z"/>
 <path fill="none" stroke="rgb(0,0,0)" stroke-linejoin="round" d="M 1287,2055 L 1492,2057 1697,2047 1903,2084 2108,2098 2314,2118 2519,2186 2724,2242 2930,2253 3135,2307 3341,2333 3546,2490 3751,2521 3957,2545 4162,2563 4368,2692 4573,2645 4779,2729 4984,2906 5189,2885 5395,2860 5600,2820 5806,3047 6011,3308 6216,3338 6422,3344 6627,3385 6833,3516 7038,3589 7244,3672 7449,3799 7654,3839 7860,3759 8064,3678 8270,3615 8475,3891 8680,4927 8886,4982 9091,5113 9297,5050 9502,4959 9708,5076 9913,5550 10118,5680 10324,5720 10529,5467 10735,5486 10940,6036 11145,6272 11351,6206 11556,6222 11762,6315 11967,6330 12173,6648 12378,6777 12583,6721 12789,6481 12994,6344 13200,6371 13405,6634 13610,6616 13816,6462 14021,6430 14227,6510 14432,6422 14638,6489 14638,10567 1287,10567 1287,2055 Z"/>
 <path fill="rgb(102,102,102)" stroke="none" d="M 1287,1370 L 1492,1364 1697,1369 1903,1410 2108,1432 2314,1470 2519,1502 2724,1559 2930,1541 3135,1588 3341,1600 3546,1742 3751,1781 3957,1798 4162,1806 4368,1892 4573,1872 4779,1985 4984,2158 5189,2130 5395,2063 5600,1988 5806,2238 6011,2469 6216,2515 6422,2514 6627,2562 6833,2660 7038,2786 7244,2942 7449,3060 7654,3078 7860,2932 8064,2842 8270,2768 8475,3032 8680,4242 8886,4299 9091,4456 9297,4375 9502,4274 9708,4428 9913,4954 10118,5082 10324,5081 10529,4809 10735,4856 10940,5446 11145,5717 11351,5634 11556,5657 11762,5763 11967,5800 12173,6168 12378,6297 12583,6246 12789,5949 12994,5790 13200,5829 13405,6115 13610,6100 13816,5917 14021,5873 14227,5955 14432,5862 14638,5961 14638,6489 14432,6422 14227,6510 14021,6430 13816,6462 13610,6616 13405,6634 13200,6371 12994,6344 12789,6481 12583,6721 12378,6777 12173,6648 11967,6330 11762,6315 11556,6222 11351,6206 11145,6272 10940,6036 10735,5486 10529,5467 10324,5720 10118,5680 9913,5550 9708,5076 9502,4959 9297,5050 9091,5113 8886,4982 8680,4927 8475,3891 8270,3615 8064,3678 7860,3759 7654,3839 7449,3799 7244,3672 7038,3589 6833,3516 6627,3385 6422,3344 6216,3338 6011,3308 5806,3047 5600,2820 5395,2860 5189,2885 4984,2906 4779,2729 4573,2645 4368,2692 4162,2563 3957,2545 3751,2521 3546,2490 3341,2333 3135,2307 2930,2253 2724,2242 2519,2186 2314,2118 2108,2098 1903,2084 1697,2047 1492,2057 1287,2055 1287,1370 Z"/>
 <path fill="none" stroke="rgb(0,0,0)" stroke-linejoin="round" d="M 1287,1370 L 1492,1364 1697,1369 1903,1410 2108,1432 2314,1470 2519,1502 2724,1559 2930,1541 3135,1588 3341,1600 3546,1742 3751,1781 3957,1798 4162,1806 4368,1892 4573,1872 4779,1985 4984,2158 5189,2130 5395,2063 5600,1988 5806,2238 6011,2469 6216,2515 6422,2514 6627,2562 6833,2660 7038,2786 7244,2942 7449,3060 7654,3078 7860,2932 8064,2842 8270,2768 8475,3032 8680,4242 8886,4299 9091,4456 9297,4375 9502,4274 9708,4428 9913,4954 10118,5082 10324,5081 10529,4809 10735,4856 10940,5446 11145,5717 11351,5634 11556,5657 11762,5763 11967,5800 12173,6168 12378,6297 12583,6246 12789,5949 12994,5790 13200,5829 13405,6115 13610,6100 13816,5917 14021,5873 14227,5955 14432,5862 14638,5961 14638,6489 14432,6422 14227,6510 14021,6430 13816,6462 13610,6616 13405,6634 13200,6371 12994,6344 12789,6481 12583,6721 12378,6777 12173,6648 11967,6330 11762,6315 11556,6222 11351,6206 11145,6272 10940,6036 10735,5486 10529,5467 10324,5720 10118,5680 9913,5550 9708,5076 9502,4959 9297,5050 9091,5113 8886,4982 8680,4927 8475,3891 8270,3615 8064,3678 7860,3759 7654,3839 7449,3799 7244,3672 7038,3589 6833,3516 6627,3385 6422,3344 6216,3338 6011,3308 5806,3047 5600,2820 5395,2860 5189,2885 4984,2906 4779,2729 4573,2645 4368,2692 4162,2563 3957,2545 3751,2521 3546,2490 3341,2333 3135,2307 2930,2253 2724,2242 2519,2186 2314,2118 2108,2098 1903,2084 1697,2047 1492,2057 1287,2055 1287,1370 Z"/>
 <path fill="rgb(220,35,0)" stroke="none" d="M 1287,1220 L 1492,1213 1697,1216 1903,1255 2108,1276 2314,1311 2519,1352 2724,1409 2930,1395 3135,1437 3341,1451 3546,1596 3751,1637 3957,1654 4162,1657 4368,1740 4573,1719 4779,1831 4984,1999 5189,1984 5395,1917 5600,1833 5806,2085 6011,2315 6216,2363 6422,2363 6627,2406 6833,2503 7038,2628 7244,2792 7449,2910 7654,2926 7860,2777 8064,2681 8270,2601 8475,2867 8680,4101 8886,4160 9091,4323 9297,4246 9502,4139 9708,4270 9913,4751 10118,4829 10324,4844 10529,4682 10735,4732 10940,5323 11145,5592 11351,5502 11556,5523 11762,5632 11967,5676 12173,6048 12378,6178 12583,6133 12789,5835 12994,5668 13200,5703 13405,5997 13610,5984 13816,5791 14021,5739 14227,5817 14432,5731 14638,5829 14638,5961 14432,5862 14227,5955 14021,5873 13816,5917 13610,6100 13405,6115 13200,5829 12994,5790 12789,5949 12583,6246 12378,6297 12173,6168 11967,5800 11762,5763 11556,5657 11351,5634 11145,5717 10940,5446 10735,4856 10529,4809 10324,5081 10118,5082 9913,4954 9708,4428 9502,4274 9297,4375 9091,4456 8886,4299 8680,4242 8475,3032 8270,2768 8064,2842 7860,2932 7654,3078 7449,3060 7244,2942 7038,2786 6833,2660 6627,2562 6422,2514 6216,2515 6011,2469 5806,2238 5600,1988 5395,2063 5189,2130 4984,2158 4779,1985 4573,1872 4368,1892 4162,1806 3957,1798 3751,1781 3546,1742 3341,1600 3135,1588 2930,1541 2724,1559 2519,1502 2314,1470 2108,1432 1903,1410 1697,1369 1492,1364 1287,1370 1287,1220 Z"/>
 <path fill="none" stroke="rgb(0,0,0)" stroke-linejoin="round" d="M 1287,1220 L 1492,1213 1697,1216 1903,1255 2108,1276 2314,1311 2519,1352 2724,1409 2930,1395 3135,1437 3341,1451 3546,1596 3751,1637 3957,1654 4162,1657 4368,1740 4573,1719 4779,1831 4984,1999 5189,1984 5395,1917 5600,1833 5806,2085 6011,2315 6216,2363 6422,2363 6627,2406 6833,2503 7038,2628 7244,2792 7449,2910 7654,2926 7860,2777 8064,2681 8270,2601 8475,2867 8680,4101 8886,4160 9091,4323 9297,4246 9502,4139 9708,4270 9913,4751 10118,4829 10324,4844 10529,4682 10735,4732 10940,5323 11145,5592 11351,5502 11556,5523 11762,5632 11967,5676 12173,6048 12378,6178 12583,6133 12789,5835 12994,5668 13200,5703 13405,5997 13610,5984 13816,5791 14021,5739 14227,5817 14432,5731 14638,5829 14638,5961 14432,5862 14227,5955 14021,5873 13816,5917 13610,6100 13405,6115 13200,5829 12994,5790 12789,5949 12583,6246 12378,6297 12173,6168 11967,5800 11762,5763 11556,5657 11351,5634 11145,5717 10940,5446 10735,4856 10529,4809 10324,5081 10118,5082 9913,4954 9708,4428 9502,4274 9297,4375 9091,4456 8886,4299 8680,4242 8475,3032 8270,2768 8064,2842 7860,2932 7654,3078 7449,3060 7244,2942 7038,2786 6833,2660 6627,2562 6422,2514 6216,2515 6011,2469 5806,2238 5600,1988 5395,2063 5189,2130 4984,2158 4779,1985 4573,1872 4368,1892 4162,1806 3957,1798 3751,1781 3546,1742 3341,1600 3135,1588 2930,1541 2724,1559 2519,1502 2314,1470 2108,1432 1903,1410 1697,1369 1492,1364 1287,1370 1287,1220 Z"/>
 <path fill="rgb(153,153,153)" stroke="none" d="M 1287,1080 L 1492,1079 1697,1080 1903,1106 2108,1119 2314,1137 2519,1179 2724,1228 2930,1215 3135,1249 3341,1255 3546,1336 3751,1355 3957,1369 4162,1388 4368,1457 4573,1431 4779,1511 4984,1631 5189,1630 5395,1568 5600,1418 5806,1668 6011,1787 6216,1845 6422,1870 6627,1903 6833,1948 7038,2005 7244,2107 7449,2204 7654,2233 7860,2151 8064,2096 8270,2066 8475,2247 8680,2612 8886,2641 9091,2743 9297,2644 9502,2680 9708,2750 9913,2829 10118,2910 10324,2935 10529,2973 10735,2963 10940,3195 11145,3318 11351,3316 11556,3328 11762,3297 11967,3278 12173,3372 12378,3428 12583,3487 12789,3434 12994,3448 13200,3487 13405,3577 13610,3617 13816,3599 14021,3613 14227,3640 14432,3530 14638,3562 14638,5829 14432,5731 14227,5817 14021,5739 13816,5791 13610,5984 13405,5997 13200,5703 12994,5668 12789,5835 12583,6133 12378,6178 12173,6048 11967,5676 11762,5632 11556,5523 11351,5502 11145,5592 10940,5323 10735,4732 10529,4682 10324,4844 10118,4829 9913,4751 9708,4270 9502,4139 9297,4246 9091,4323 8886,4160 8680,4101 8475,2867 8270,2601 8064,2681 7860,2777 7654,2926 7449,2910 7244,2792 7038,2628 6833,2503 6627,2406 6422,2363 6216,2363 6011,2315 5806,2085 5600,1833 5395,1917 5189,1984 4984,1999 4779,1831 4573,1719 4368,1740 4162,1657 3957,1654 3751,1637 3546,1596 3341,1451 3135,1437 2930,1395 2724,1409 2519,1352 2314,1311 2108,1276 1903,1255 1697,1216 1492,1213 1287,1220 1287,1080 Z"/>
 <path fill="none" stroke="rgb(0,0,0)" stroke-linejoin="round" d="M 1287,1080 L 1492,1079 1697,1080 1903,1106 2108,1119 2314,1137 2519,1179 2724,1228 2930,1215 3135,1249 3341,1255 3546,1336 3751,1355 3957,1369 4162,1388 4368,1457 4573,1431 4779,1511 4984,1631 5189,1630 5395,1568 5600,1418 5806,1668 6011,1787 6216,1845 6422,1870 6627,1903 6833,1948 7038,2005 7244,2107 7449,2204 7654,2233 7860,2151 8064,2096 8270,2066 8475,2247 8680,2612 8886,2641 9091,2743 9297,2644 9502,2680 9708,2750 9913,2829 10118,2910 10324,2935 10529,2973 10735,2963 10940,3195 11145,3318 11351,3316 11556,3328 11762,3297 11967,3278 12173,3372 12378,3428 12583,3487 12789,3434 12994,3448 13200,3487 13405,3577 13610,3617 13816,3599 14021,3613 14227,3640 14432,3530 14638,3562 14638,5829 14432,5731 14227,5817 14021,5739 13816,5791 13610,5984 13405,5997 13200,5703 12994,5668 12789,5835 12583,6133 12378,6178 12173,6048 11967,5676 11762,5632 11556,5523 11351,5502 11145,5592 10940,5323 10735,4732 10529,4682 10324,4844 10118,4829 9913,4751 9708,4270 9502,4139 9297,4246 9091,4323 8886,4160 8680,4101 8475,2867 8270,2601 8064,2681 7860,2777 7654,2926 7449,2910 7244,2792 7038,2628 6833,2503 6627,2406 6422,2363 6216,2363 6011,2315 5806,2085 5600,1833 5395,1917 5189,1984 4984,1999 4779,1831 4573,1719 4368,1740 4162,1657 3957,1654 3751,1637 3546,1596 3341,1451 3135,1437 2930,1395 2724,1409 2519,1352 2314,1311 2108,1276 1903,1255 1697,1216 1492,1213 1287,1220 1287,1080 Z"/>
 <path fill="rgb(204,204,204)" stroke="none" d="M 1287,1080 L 1492,1079 1697,1080 1903,1103 2108,1109 2314,1118 2519,1133 2724,1183 2930,1172 3135,1204 3341,1206 3546,1272 3751,1278 3957,1301 4162,1316 4368,1369 4573,1334 4779,1400 4984,1495 5189,1488 5395,1426 5600,1269 5806,1514 6011,1591 6216,1624 6422,1656 6627,1676 6833,1678 7038,1735 7244,1815 7449,1866 7654,1879 7860,1809 8064,1755 8270,1666 8475,1771 8680,1799 8886,1836 9091,1857 9297,1819 9502,1844 9708,1892 9913,1976 10118,2020 10324,2043 10529,2161 10735,2110 10940,2241 11145,2292 11351,2303 11556,2340 11762,2312 11967,2277 12173,2367 12378,2433 12583,2495 12789,2495 12994,2590 13200,2630 13405,2712 13610,2737 13816,2786 14021,2845 14227,2887 14432,2784 14638,2850 14638,3562 14432,3530 14227,3640 14021,3613 13816,3599 13610,3617 13405,3577 13200,3487 12994,3448 12789,3434 12583,3487 12378,3428 12173,3372 11967,3278 11762,3297 11556,3328 11351,3316 11145,3318 10940,3195 10735,2963 10529,2973 10324,2935 10118,2910 9913,2829 9708,2750 9502,2680 9297,2644 9091,2743 8886,2641 8680,2612 8475,2247 8270,2066 8064,2096 7860,2151 7654,2233 7449,2204 7244,2107 7038,2005 6833,1948 6627,1903 6422,1870 6216,1845 6011,1787 5806,1668 5600,1418 5395,1568 5189,1630 4984,1631 4779,1511 4573,1431 4368,1457 4162,1388 3957,1369 3751,1355 3546,1336 3341,1255 3135,1249 2930,1215 2724,1228 2519,1179 2314,1137 2108,1119 1903,1106 1697,1080 1492,1079 1287,1080 Z"/>
 <path fill="none" stroke="rgb(0,0,0)" stroke-linejoin="round" d="M 1287,1080 L 1492,1079 1697,1080 1903,1103 2108,1109 2314,1118 2519,1133 2724,1183 2930,1172 3135,1204 3341,1206 3546,1272 3751,1278 3957,1301 4162,1316 4368,1369 4573,1334 4779,1400 4984,1495 5189,1488 5395,1426 5600,1269 5806,1514 6011,1591 6216,1624 6422,1656 6627,1676 6833,1678 7038,1735 7244,1815 7449,1866 7654,1879 7860,1809 8064,1755 8270,1666 8475,1771 8680,1799 8886,1836 9091,1857 9297,1819 9502,1844 9708,1892 9913,1976 10118,2020 10324,2043 10529,2161 10735,2110 10940,2241 11145,2292 11351,2303 11556,2340 11762,2312 11967,2277 12173,2367 12378,2433 12583,2495 12789,2495 12994,2590 13200,2630 13405,2712 13610,2737 13816,2786 14021,2845 14227,2887 14432,2784 14638,2850 14638,3562 14432,3530 14227,3640 14021,3613 13816,3599 13610,3617 13405,3577 13200,3487 12994,3448 12789,3434 12583,3487 12378,3428 12173,3372 11967,3278 11762,3297 11556,3328 11351,3316 11145,3318 10940,3195 10735,2963 10529,2973 10324,2935 10118,2910 9913,2829 9708,2750 9502,2680 9297,2644 9091,2743 8886,2641 8680,2612 8475,2247 8270,2066 8064,2096 7860,2151 7654,2233 7449,2204 7244,2107 7038,2005 6833,1948 6627,1903 6422,1870 6216,1845 6011,1787 5806,1668 5600,1418 5395,1568 5189,1630 4984,1631 4779,1511 4573,1431 4368,1457 4162,1388 3957,1369 3751,1355 3546,1336 3341,1255 3135,1249 2930,1215 2724,1228 2519,1179 2314,1137 2108,1119 1903,1106 1697,1080 1492,1079 1287,1080 Z"/>
 <path fill="rgb(174,207,0)" stroke="none" d="M 1287,1070 L 1492,1068 1697,1067 1903,1086 2108,1090 2314,1093 2519,1102 2724,1146 2930,1131 3135,1157 3341,1154 3546,1195 3751,1189 3957,1204 4162,1218 4368,1259 4573,1218 4779,1263 4984,1327 5189,1316 5395,1246 5600,1040 5806,1283 6011,1310 6216,1308 6422,1327 6627,1337 6833,1319 7038,1322 7244,1352 7449,1373 7654,1364 7860,1309 8064,1286 8270,1238 8475,1265 8680,1231 8886,1245 9091,1251 9297,1200 9502,1252 9708,1289 9913,1225 10118,1214 10324,1211 10529,1354 10735,1279 10940,1270 11145,1221 11351,1224 11556,1239 11762,1234 11967,1202 12173,1204 12378,1234 12583,1267 12789,1260 12994,1286 13200,1295 13405,1335 13610,1334 13816,1394 14021,1446 14227,1484 14432,1322 14638,1380 14638,2850 14432,2784 14227,2887 14021,2845 13816,2786 13610,2737 13405,2712 13200,2630 12994,2590 12789,2495 12583,2495 12378,2433 12173,2367 11967,2277 11762,2312 11556,2340 11351,2303 11145,2292 10940,2241 10735,2110 10529,2161 10324,2043 10118,2020 9913,1976 9708,1892 9502,1844 9297,1819 9091,1857 8886,1836 8680,1799 8475,1771 8270,1666 8064,1755 7860,1809 7654,1879 7449,1866 7244,1815 7038,1735 6833,1678 6627,1676 6422,1656 6216,1624 6011,1591 5806,1514 5600,1269 5395,1426 5189,1488 4984,1495 4779,1400 4573,1334 4368,1369 4162,1316 3957,1301 3751,1278 3546,1272 3341,1206 3135,1204 2930,1172 2724,1183 2519,1133 2314,1118 2108,1109 1903,1103 1697,1080 1492,1079 1287,1080 1287,1070 Z"/>
 <path fill="none" stroke="rgb(0,0,0)" stroke-linejoin="round" d="M 1287,1070 L 1492,1068 1697,1067 1903,1086 2108,1090 2314,1093 2519,1102 2724,1146 2930,1131 3135,1157 3341,1154 3546,1195 3751,1189 3957,1204 4162,1218 4368,1259 4573,1218 4779,1263 4984,1327 5189,1316 5395,1246 5600,1040 5806,1283 6011,1310 6216,1308 6422,1327 6627,1337 6833,1319 7038,1322 7244,1352 7449,1373 7654,1364 7860,1309 8064,1286 8270,1238 8475,1265 8680,1231 8886,1245 9091,1251 9297,1200 9502,1252 9708,1289 9913,1225 10118,1214 10324,1211 10529,1354 10735,1279 10940,1270 11145,1221 11351,1224 11556,1239 11762,1234 11967,1202 12173,1204 12378,1234 12583,1267 12789,1260 12994,1286 13200,1295 13405,1335 13610,1334 13816,1394 14021,1446 14227,1484 14432,1322 14638,1380 14638,2850 14432,2784 14227,2887 14021,2845 13816,2786 13610,2737 13405,2712 13200,2630 12994,2590 12789,2495 12583,2495 12378,2433 12173,2367 11967,2277 11762,2312 11556,2340 11351,2303 11145,2292 10940,2241 10735,2110 10529,2161 10324,2043 10118,2020 9913,1976 9708,1892 9502,1844 9297,1819 9091,1857 8886,1836 8680,1799 8475,1771 8270,1666 8064,1755 7860,1809 7654,1879 7449,1866 7244,1815 7038,1735 6833,1678 6627,1676 6422,1656 6216,1624 6011,1591 5806,1514 5600,1269 5395,1426 5189,1488 4984,1495 4779,1400 4573,1334 4368,1369 4162,1316 3957,1301 3751,1278 3546,1272 3341,1206 3135,1204 2930,1172 2724,1183 2519,1133 2314,1118 2108,1109 1903,1103 1697,1080 1492,1079 1287,1080 1287,1070 Z"/>
 <path fill="rgb(255,255,255)" stroke="none" d="M 1287,780 L 1492,780 1697,780 1903,780 2108,780 2314,780 2519,780 2724,780 2930,780 3135,780 3341,780 3546,780 3751,780 3957,780 4162,780 4368,780 4573,780 4779,780 4984,780 5189,780 5395,780 5600,780 5806,780 6011,780 6216,780 6422,780 6627,780 6833,780 7038,780 7244,780 7449,780 7654,780 7860,780 8064,780 8270,780 8475,780 8680,780 8886,780 9091,780 9297,780 9502,780 9708,780 9913,780 10118,780 10324,780 10529,780 10735,780 10940,780 11145,780 11351,780 11556,780 11762,780 11967,780 12173,780 12378,780 12583,780 12789,780 12994,780 13200,780 13405,780 13610,780 13816,780 14021,780 14227,780 14432,780 14638,780 14638,1380 14432,1322 14227,1484 14021,1446 13816,1394 13610,1334 13405,1335 13200,1295 12994,1286 12789,1260 12583,1267 12378,1234 12173,1204 11967,1202 11762,1234 11556,1239 11351,1224 11145,1221 10940,1270 10735,1279 10529,1354 10324,1211 10118,1214 9913,1225 9708,1289 9502,1252 9297,1200 9091,1251 8886,1245 8680,1231 8475,1265 8270,1238 8064,1286 7860,1309 7654,1364 7449,1373 7244,1352 7038,1322 6833,1319 6627,1337 6422,1327 6216,1308 6011,1310 5806,1283 5600,1040 5395,1246 5189,1316 4984,1327 4779,1263 4573,1218 4368,1259 4162,1218 3957,1204 3751,1189 3546,1195 3341,1154 3135,1157 2930,1131 2724,1146 2519,1102 2314,1093 2108,1090 1903,1086 1697,1067 1492,1068 1287,1070 1287,780 Z"/>
 <path fill="none" stroke="rgb(0,0,0)" stroke-linejoin="round" d="M 1287,780 L 1492,780 1697,780 1903,780 2108,780 2314,780 2519,780 2724,780 2930,780 3135,780 3341,780 3546,780 3751,780 3957,780 4162,780 4368,780 4573,780 4779,780 4984,780 5189,780 5395,780 5600,780 5806,780 6011,780 6216,780 6422,780 6627,780 6833,780 7038,780 7244,780 7449,780 7654,780 7860,780 8064,780 8270,780 8475,780 8680,780 8886,780 9091,780 9297,780 9502,780 9708,780 9913,780 10118,780 10324,780 10529,780 10735,780 10940,780 11145,780 11351,780 11556,780 11762,780 11967,780 12173,780 12378,780 12583,780 12789,780 12994,780 13200,780 13405,780 13610,780 13816,780 14021,780 14227,780 14432,780 14638,780 14638,1380 14432,1322 14227,1484 14021,1446 13816,1394 13610,1334 13405,1335 13200,1295 12994,1286 12789,1260 12583,1267 12378,1234 12173,1204 11967,1202 11762,1234 11556,1239 11351,1224 11145,1221 10940,1270 10735,1279 10529,1354 10324,1211 10118,1214 9913,1225 9708,1289 9502,1252 9297,1200 9091,1251 8886,1245 8680,1231 8475,1265 8270,1238 8064,1286 7860,1309 7654,1364 7449,1373 7244,1352 7038,1322 6833,1319 6627,1337 6422,1327 6216,1308 6011,1310 5806,1283 5600,1040 5395,1246 5189,1316 4984,1327 4779,1263 4573,1218 4368,1259 4162,1218 3957,1204 3751,1189 3546,1195 3341,1154 3135,1157 2930,1131 2724,1146 2519,1102 2314,1093 2108,1090 1903,1086 1697,1067 1492,1068 1287,1070 1287,780 Z"/>
 <text class="TextShape"><tspan class="TextParagraph" font-family="Arial" font-size="388px" font-weight="400"><tspan class="TextPosition" x="863" y="11187"><tspan fill="rgb(0,0,0)" stroke="none">2010</tspan></tspan></tspan></text>
 <text class="TextShape"><tspan class="TextParagraph" font-family="Arial" font-size="388px" font-weight="400"><tspan class="TextPosition" x="3327" y="11187"><tspan fill="rgb(0,0,0)" stroke="none">2011</tspan></tspan></tspan></text>
 <text class="TextShape"><tspan class="TextParagraph" font-family="Arial" font-size="388px" font-weight="400"><tspan class="TextPosition" x="5792" y="11187"><tspan fill="rgb(0,0,0)" stroke="none">2012</tspan></tspan></tspan></text>
 <text class="TextShape"><tspan class="TextParagraph" font-family="Arial" font-size="388px" font-weight="400"><tspan class="TextPosition" x="8257" y="11187"><tspan fill="rgb(0,0,0)" stroke="none">2013</tspan></tspan></tspan></text>
 <text class="TextShape"><tspan class="TextParagraph" font-family="Arial" font-size="388px" font-weight="400"><tspan class="TextPosition" x="10722" y="11187"><tspan fill="rgb(0,0,0)" stroke="none">2014</tspan></tspan></tspan></text>
 <text class="TextShape"><tspan class="TextParagraph" font-family="Arial" font-size="388px" font-weight="400"><tspan class="TextPosition" x="13187" y="11187"><tspan fill="rgb(0,0,0)" stroke="none">2015</tspan></tspan></tspan></text>
 <text class="TextShape"><tspan class="TextParagraph" font-family="Arial" font-size="388px" font-weight="400"><tspan class="TextPosition" x="481" y="10713"><tspan fill="rgb(0,0,0)" stroke="none">0%</tspan></tspan></tspan></text>
 <text class="TextShape"><tspan class="TextParagraph" font-family="Arial" font-size="388px" font-weight="400"><tspan class="TextPosition" x="270" y="9734"><tspan fill="rgb(0,0,0)" stroke="none">10%</tspan></tspan></tspan></text>
 <text class="TextShape"><tspan class="TextParagraph" font-family="Arial" font-size="388px" font-weight="400"><tspan class="TextPosition" x="270" y="8755"><tspan fill="rgb(0,0,0)" stroke="none">20%</tspan></tspan></tspan></text>
 <text class="TextShape"><tspan class="TextParagraph" font-family="Arial" font-size="388px" font-weight="400"><tspan class="TextPosition" x="270" y="7776"><tspan fill="rgb(0,0,0)" stroke="none">30%</tspan></tspan></tspan></text>
 <text class="TextShape"><tspan class="TextParagraph" font-family="Arial" font-size="388px" font-weight="400"><tspan class="TextPosition" x="270" y="6797"><tspan fill="rgb(0,0,0)" stroke="none">40%</tspan></tspan></tspan></text>
 <text class="TextShape"><tspan class="TextParagraph" font-family="Arial" font-size="388px" font-weight="400"><tspan class="TextPosition" x="270" y="5819"><tspan fill="rgb(0,0,0)" stroke="none">50%</tspan></tspan></tspan></text>
 <text class="TextShape"><tspan class="TextParagraph" font-family="Arial" font-size="388px" font-weight="400"><tspan class="TextPosition" x="270" y="4840"><tspan fill="rgb(0,0,0)" stroke="none">60%</tspan></tspan></tspan></text>
 <text class="TextShape"><tspan class="TextParagraph" font-family="Arial" font-size="388px" font-weight="400"><tspan class="TextPosition" x="270" y="3861"><tspan fill="rgb(0,0,0)" stroke="none">70%</tspan></tspan></tspan></text>
 <text class="TextShape"><tspan class="TextParagraph" font-family="Arial" font-size="388px" font-weight="400"><tspan class="TextPosition" x="270" y="2882"><tspan fill="rgb(0,0,0)" stroke="none">80%</tspan></tspan></tspan></text>
 <text class="TextShape"><tspan class="TextParagraph" font-family="Arial" font-size="388px" font-weight="400"><tspan class="TextPosition" x="270" y="1903"><tspan fill="rgb(0,0,0)" stroke="none">90%</tspan></tspan></tspan></text>
 <text class="TextShape"><tspan class="TextParagraph" font-family="Arial" font-size="388px" font-weight="400"><tspan class="TextPosition" x="58" y="925"><tspan fill="rgb(0,0,0)" stroke="none">100%</tspan></tspan></tspan></text>
 <text class="TextShape"><tspan class="TextParagraph" font-family="Arial" font-size="388px" font-weight="400"><tspan class="TextPosition" x="14888" y="10713"><tspan fill="rgb(0,0,0)" stroke="none">0%</tspan></tspan></tspan></text>
 <text class="TextShape"><tspan class="TextParagraph" font-family="Arial" font-size="388px" font-weight="400"><tspan class="TextPosition" x="14888" y="9734"><tspan fill="rgb(0,0,0)" stroke="none">10%</tspan></tspan></tspan></text>
 <text class="TextShape"><tspan class="TextParagraph" font-family="Arial" font-size="388px" font-weight="400"><tspan class="TextPosition" x="14888" y="8755"><tspan fill="rgb(0,0,0)" stroke="none">20%</tspan></tspan></tspan></text>
 <text class="TextShape"><tspan class="TextParagraph" font-family="Arial" font-size="388px" font-weight="400"><tspan class="TextPosition" x="14888" y="7776"><tspan fill="rgb(0,0,0)" stroke="none">30%</tspan></tspan></tspan></text>
 <text class="TextShape"><tspan class="TextParagraph" font-family="Arial" font-size="388px" font-weight="400"><tspan class="TextPosition" x="14888" y="6797"><tspan fill="rgb(0,0,0)" stroke="none">40%</tspan></tspan></tspan></text>
 <text class="TextShape"><tspan class="TextParagraph" font-family="Arial" font-size="388px" font-weight="400"><tspan class="TextPosition" x="14888" y="5819"><tspan fill="rgb(0,0,0)" stroke="none">50%</tspan></tspan></tspan></text>
 <text class="TextShape"><tspan class="TextParagraph" font-family="Arial" font-size="388px" font-weight="400"><tspan class="TextPosition" x="14888" y="4840"><tspan fill="rgb(0,0,0)" stroke="none">60%</tspan></tspan></tspan></text>
 <text class="TextShape"><tspan class="TextParagraph" font-family="Arial" font-size="388px" font-weight="400"><tspan class="TextPosition" x="14888" y="3861"><tspan fill="rgb(0,0,0)" stroke="none">70%</tspan></tspan></tspan></text>
 <text class="TextShape"><tspan class="TextParagraph" font-family="Arial" font-size="388px" font-weight="400"><tspan class="TextPosition" x="14888" y="2882"><tspan fill="rgb(0,0,0)" stroke="none">80%</tspan></tspan></tspan></text>
 <text class="TextShape"><tspan class="TextParagraph" font-family="Arial" font-size="388px" font-weight="400"><tspan class="TextPosition" x="14888" y="1903"><tspan fill="rgb(0,0,0)" stroke="none">90%</tspan></tspan></tspan></text>
 <text class="TextShape"><tspan class="TextParagraph" font-family="Arial" font-size="388px" font-weight="400"><tspan class="TextPosition" x="14888" y="925"><tspan fill="rgb(0,0,0)" stroke="none">100%</tspan></tspan></tspan></text>
 <text class="TextShape"><tspan class="TextParagraph" font-family="Arial" font-size="459px" font-weight="400"><tspan class="TextPosition" x="2619" y="538"><tspan fill="rgb(0,0,0)" stroke="none">Sistemas operativos con los que se accede a Wikimedia</tspan></tspan></tspan></text>
 <path fill="rgb(0,71,255)" stroke="none" d="M 2422,11605 L 2306,11605 2306,11373 2538,11373 2538,11605 2422,11605 Z"/>
 <path fill="none" stroke="rgb(0,0,0)" stroke-linejoin="round" d="M 2422,11605 L 2306,11605 2306,11373 2538,11373 2538,11605 2422,11605 Z"/>
 <path fill="rgb(102,102,102)" stroke="none" d="M 4626,11605 L 4510,11605 4510,11373 4742,11373 4742,11605 4626,11605 Z"/>
 <path fill="none" stroke="rgb(0,0,0)" stroke-linejoin="round" d="M 4626,11605 L 4510,11605 4510,11373 4742,11373 4742,11605 4626,11605 Z"/>
 <path fill="rgb(220,35,0)" stroke="none" d="M 5930,11605 L 5814,11605 5814,11373 6046,11373 6046,11605 5930,11605 Z"/>
 <path fill="none" stroke="rgb(0,0,0)" stroke-linejoin="round" d="M 5930,11605 L 5814,11605 5814,11373 6046,11373 6046,11605 5930,11605 Z"/>
 <path fill="rgb(153,153,153)" stroke="none" d="M 7420,11605 L 7304,11605 7304,11373 7536,11373 7536,11605 7420,11605 Z"/>
 <path fill="none" stroke="rgb(0,0,0)" stroke-linejoin="round" d="M 7420,11605 L 7304,11605 7304,11373 7536,11373 7536,11605 7420,11605 Z"/>
 <path fill="rgb(204,204,204)" stroke="none" d="M 9200,11605 L 9084,11605 9084,11373 9316,11373 9316,11605 9200,11605 Z"/>
 <path fill="none" stroke="rgb(0,0,0)" stroke-linejoin="round" d="M 9200,11605 L 9084,11605 9084,11373 9316,11373 9316,11605 9200,11605 Z"/>
 <path fill="rgb(174,207,0)" stroke="none" d="M 10557,11605 L 10441,11605 10441,11373 10673,11373 10673,11605 10557,11605 Z"/>
 <path fill="none" stroke="rgb(0,0,0)" stroke-linejoin="round" d="M 10557,11605 L 10441,11605 10441,11373 10673,11373 10673,11605 10557,11605 Z"/>
 <path fill="rgb(255,255,255)" stroke="none" d="M 12443,11605 L 12327,11605 12327,11373 12559,11373 12559,11605 12443,11605 Z"/>
 <path fill="none" stroke="rgb(0,0,0)" stroke-linejoin="round" d="M 12443,11605 L 12327,11605 12327,11373 12559,11373 12559,11605 12443,11605 Z"/>
 <text class="TextShape"><tspan class="TextParagraph" font-family="Arial" font-size="388px" font-weight="400"><tspan class="TextPosition" x="2638" y="11634"><tspan fill="rgb(0,0,0)" stroke="none">Windows</tspan></tspan></tspan></text>
 <text class="TextShape"><tspan class="TextParagraph" font-family="Arial" font-size="388px" font-weight="400"><tspan class="TextPosition" x="4842" y="11634"><tspan fill="rgb(0,0,0)" stroke="none">Mac</tspan></tspan></tspan></text>
 <text class="TextShape"><tspan class="TextParagraph" font-family="Arial" font-size="388px" font-weight="400"><tspan class="TextPosition" x="6146" y="11634"><tspan fill="rgb(0,0,0)" stroke="none">Linux</tspan></tspan></tspan></text>
 <text class="TextShape"><tspan class="TextParagraph" font-family="Arial" font-size="388px" font-weight="400"><tspan class="TextPosition" x="7636" y="11634"><tspan fill="rgb(0,0,0)" stroke="none">iPhone</tspan></tspan></tspan></text>
 <text class="TextShape"><tspan class="TextParagraph" font-family="Arial" font-size="388px" font-weight="400"><tspan class="TextPosition" x="9416" y="11634"><tspan fill="rgb(0,0,0)" stroke="none">iPad</tspan></tspan></tspan></text>
 <text class="TextShape"><tspan class="TextParagraph" font-family="Arial" font-size="388px" font-weight="400"><tspan class="TextPosition" x="10773" y="11634"><tspan fill="rgb(0,0,0)" stroke="none">Android</tspan></tspan></tspan></text>
 <text class="TextShape"><tspan class="TextParagraph" font-family="Arial" font-size="388px" font-weight="400"><tspan class="TextPosition" x="12659" y="11634"><tspan fill="rgb(0,0,0)" stroke="none">Resto</tspan></tspan></tspan></text>
</svg>
