<?xml version="1.0" encoding="UTF-8"?>
<!DOCTYPE svg PUBLIC "-//W3C//DTD SVG 1.1//EN" "http://www.w3.org/Graphics/SVG/1.1/DTD/svg11.dtd">
<svg width="160mm" height="120mm" viewBox="0 0 16000 12000" version="1.1" xmlns="http://www.w3.org/2000/svg" stroke-width="28.222" stroke-linejoin="round" xml:space="preserve">
 <path fill="rgb(255,255,255)" stroke="none" d="M 8000,12000 L 0,12000 0,0 16000,0 16000,12000 8000,12000 Z"/>
 <path fill="none" stroke="rgb(179,179,179)" stroke-linejoin="round" d="M 7977,10561 L 1405,10561 1405,847 14549,847 14549,10561 7977,10561 Z"/>
 <path fill="none" stroke="rgb(179,179,179)" stroke-linejoin="round" d="M 14549,10560 L 1405,10560"/>
 <path fill="none" stroke="rgb(179,179,179)" stroke-linejoin="round" d="M 14549,9588 L 1405,9588"/>
 <path fill="none" stroke="rgb(179,179,179)" stroke-linejoin="round" d="M 14549,8617 L 1405,8617"/>
 <path fill="none" stroke="rgb(179,179,179)" stroke-linejoin="round" d="M 14549,7645 L 1405,7645"/>
 <path fill="none" stroke="rgb(179,179,179)" stroke-linejoin="round" d="M 14549,6674 L 1405,6674"/>
 <path fill="none" stroke="rgb(179,179,179)" stroke-linejoin="round" d="M 14549,5703 L 1405,5703"/>
 <path fill="none" stroke="rgb(179,179,179)" stroke-linejoin="round" d="M 14549,4731 L 1405,4731"/>
 <path fill="none" stroke="rgb(179,179,179)" stroke-linejoin="round" d="M 14549,3760 L 1405,3760"/>
 <path fill="none" stroke="rgb(179,179,179)" stroke-linejoin="round" d="M 14549,2789 L 1405,2789"/>
 <path fill="none" stroke="rgb(179,179,179)" stroke-linejoin="round" d="M 14549,1817 L 1405,1817"/>
 <path fill="none" stroke="rgb(179,179,179)" stroke-linejoin="round" d="M 14549,846 L 1405,846"/>
 <path fill="none" stroke="rgb(179,179,179)" stroke-linejoin="round" d="M 1405,10710 L 1405,10560"/>
 <path fill="none" stroke="rgb(179,179,179)" stroke-linejoin="round" d="M 1405,10710 L 1405,10560"/>
 <path fill="none" stroke="rgb(179,179,179)" stroke-linejoin="round" d="M 1607,10710 L 1607,10560"/>
 <path fill="none" stroke="rgb(179,179,179)" stroke-linejoin="round" d="M 1607,10710 L 1607,10560"/>
 <path fill="none" stroke="rgb(179,179,179)" stroke-linejoin="round" d="M 1809,10710 L 1809,10560"/>
 <path fill="none" stroke="rgb(179,179,179)" stroke-linejoin="round" d="M 1809,10710 L 1809,10560"/>
 <path fill="none" stroke="rgb(179,179,179)" stroke-linejoin="round" d="M 2011,10710 L 2011,10560"/>
 <path fill="none" stroke="rgb(179,179,179)" stroke-linejoin="round" d="M 2011,10710 L 2011,10560"/>
 <path fill="none" stroke="rgb(179,179,179)" stroke-linejoin="round" d="M 2213,10710 L 2213,10560"/>
 <path fill="none" stroke="rgb(179,179,179)" stroke-linejoin="round" d="M 2213,10710 L 2213,10560"/>
 <path fill="none" stroke="rgb(179,179,179)" stroke-linejoin="round" d="M 2416,10710 L 2416,10560"/>
 <path fill="none" stroke="rgb(179,179,179)" stroke-linejoin="round" d="M 2416,10710 L 2416,10560"/>
 <path fill="none" stroke="rgb(179,179,179)" stroke-linejoin="round" d="M 2618,10710 L 2618,10560"/>
 <path fill="none" stroke="rgb(179,179,179)" stroke-linejoin="round" d="M 2618,10710 L 2618,10560"/>
 <path fill="none" stroke="rgb(179,179,179)" stroke-linejoin="round" d="M 2820,10710 L 2820,10560"/>
 <path fill="none" stroke="rgb(179,179,179)" stroke-linejoin="round" d="M 2820,10710 L 2820,10560"/>
 <path fill="none" stroke="rgb(179,179,179)" stroke-linejoin="round" d="M 3022,10710 L 3022,10560"/>
 <path fill="none" stroke="rgb(179,179,179)" stroke-linejoin="round" d="M 3022,10710 L 3022,10560"/>
 <path fill="none" stroke="rgb(179,179,179)" stroke-linejoin="round" d="M 3225,10710 L 3225,10560"/>
 <path fill="none" stroke="rgb(179,179,179)" stroke-linejoin="round" d="M 3225,10710 L 3225,10560"/>
 <path fill="none" stroke="rgb(179,179,179)" stroke-linejoin="round" d="M 3427,10710 L 3427,10560"/>
 <path fill="none" stroke="rgb(179,179,179)" stroke-linejoin="round" d="M 3427,10710 L 3427,10560"/>
 <path fill="none" stroke="rgb(179,179,179)" stroke-linejoin="round" d="M 3629,10710 L 3629,10560"/>
 <path fill="none" stroke="rgb(179,179,179)" stroke-linejoin="round" d="M 3629,10710 L 3629,10560"/>
 <path fill="none" stroke="rgb(179,179,179)" stroke-linejoin="round" d="M 3831,10710 L 3831,10560"/>
 <path fill="none" stroke="rgb(179,179,179)" stroke-linejoin="round" d="M 3831,10710 L 3831,10560"/>
 <path fill="none" stroke="rgb(179,179,179)" stroke-linejoin="round" d="M 4034,10710 L 4034,10560"/>
 <path fill="none" stroke="rgb(179,179,179)" stroke-linejoin="round" d="M 4034,10710 L 4034,10560"/>
 <path fill="none" stroke="rgb(179,179,179)" stroke-linejoin="round" d="M 4236,10710 L 4236,10560"/>
 <path fill="none" stroke="rgb(179,179,179)" stroke-linejoin="round" d="M 4236,10710 L 4236,10560"/>
 <path fill="none" stroke="rgb(179,179,179)" stroke-linejoin="round" d="M 4438,10710 L 4438,10560"/>
 <path fill="none" stroke="rgb(179,179,179)" stroke-linejoin="round" d="M 4438,10710 L 4438,10560"/>
 <path fill="none" stroke="rgb(179,179,179)" stroke-linejoin="round" d="M 4640,10710 L 4640,10560"/>
 <path fill="none" stroke="rgb(179,179,179)" stroke-linejoin="round" d="M 4640,10710 L 4640,10560"/>
 <path fill="none" stroke="rgb(179,179,179)" stroke-linejoin="round" d="M 4842,10710 L 4842,10560"/>
 <path fill="none" stroke="rgb(179,179,179)" stroke-linejoin="round" d="M 4842,10710 L 4842,10560"/>
 <path fill="none" stroke="rgb(179,179,179)" stroke-linejoin="round" d="M 5045,10710 L 5045,10560"/>
 <path fill="none" stroke="rgb(179,179,179)" stroke-linejoin="round" d="M 5045,10710 L 5045,10560"/>
 <path fill="none" stroke="rgb(179,179,179)" stroke-linejoin="round" d="M 5247,10710 L 5247,10560"/>
 <path fill="none" stroke="rgb(179,179,179)" stroke-linejoin="round" d="M 5247,10710 L 5247,10560"/>
 <path fill="none" stroke="rgb(179,179,179)" stroke-linejoin="round" d="M 5449,10710 L 5449,10560"/>
 <path fill="none" stroke="rgb(179,179,179)" stroke-linejoin="round" d="M 5449,10710 L 5449,10560"/>
 <path fill="none" stroke="rgb(179,179,179)" stroke-linejoin="round" d="M 5651,10710 L 5651,10560"/>
 <path fill="none" stroke="rgb(179,179,179)" stroke-linejoin="round" d="M 5651,10710 L 5651,10560"/>
 <path fill="none" stroke="rgb(179,179,179)" stroke-linejoin="round" d="M 5854,10710 L 5854,10560"/>
 <path fill="none" stroke="rgb(179,179,179)" stroke-linejoin="round" d="M 5854,10710 L 5854,10560"/>
 <path fill="none" stroke="rgb(179,179,179)" stroke-linejoin="round" d="M 6056,10710 L 6056,10560"/>
 <path fill="none" stroke="rgb(179,179,179)" stroke-linejoin="round" d="M 6056,10710 L 6056,10560"/>
 <path fill="none" stroke="rgb(179,179,179)" stroke-linejoin="round" d="M 6258,10710 L 6258,10560"/>
 <path fill="none" stroke="rgb(179,179,179)" stroke-linejoin="round" d="M 6258,10710 L 6258,10560"/>
 <path fill="none" stroke="rgb(179,179,179)" stroke-linejoin="round" d="M 6460,10710 L 6460,10560"/>
 <path fill="none" stroke="rgb(179,179,179)" stroke-linejoin="round" d="M 6460,10710 L 6460,10560"/>
 <path fill="none" stroke="rgb(179,179,179)" stroke-linejoin="round" d="M 6663,10710 L 6663,10560"/>
 <path fill="none" stroke="rgb(179,179,179)" stroke-linejoin="round" d="M 6663,10710 L 6663,10560"/>
 <path fill="none" stroke="rgb(179,179,179)" stroke-linejoin="round" d="M 6865,10710 L 6865,10560"/>
 <path fill="none" stroke="rgb(179,179,179)" stroke-linejoin="round" d="M 6865,10710 L 6865,10560"/>
 <path fill="none" stroke="rgb(179,179,179)" stroke-linejoin="round" d="M 7067,10710 L 7067,10560"/>
 <path fill="none" stroke="rgb(179,179,179)" stroke-linejoin="round" d="M 7067,10710 L 7067,10560"/>
 <path fill="none" stroke="rgb(179,179,179)" stroke-linejoin="round" d="M 7269,10710 L 7269,10560"/>
 <path fill="none" stroke="rgb(179,179,179)" stroke-linejoin="round" d="M 7269,10710 L 7269,10560"/>
 <path fill="none" stroke="rgb(179,179,179)" stroke-linejoin="round" d="M 7471,10710 L 7471,10560"/>
 <path fill="none" stroke="rgb(179,179,179)" stroke-linejoin="round" d="M 7471,10710 L 7471,10560"/>
 <path fill="none" stroke="rgb(179,179,179)" stroke-linejoin="round" d="M 7674,10710 L 7674,10560"/>
 <path fill="none" stroke="rgb(179,179,179)" stroke-linejoin="round" d="M 7674,10710 L 7674,10560"/>
 <path fill="none" stroke="rgb(179,179,179)" stroke-linejoin="round" d="M 7876,10710 L 7876,10560"/>
 <path fill="none" stroke="rgb(179,179,179)" stroke-linejoin="round" d="M 7876,10710 L 7876,10560"/>
 <path fill="none" stroke="rgb(179,179,179)" stroke-linejoin="round" d="M 8077,10710 L 8077,10560"/>
 <path fill="none" stroke="rgb(179,179,179)" stroke-linejoin="round" d="M 8077,10710 L 8077,10560"/>
 <path fill="none" stroke="rgb(179,179,179)" stroke-linejoin="round" d="M 8279,10710 L 8279,10560"/>
 <path fill="none" stroke="rgb(179,179,179)" stroke-linejoin="round" d="M 8279,10710 L 8279,10560"/>
 <path fill="none" stroke="rgb(179,179,179)" stroke-linejoin="round" d="M 8482,10710 L 8482,10560"/>
 <path fill="none" stroke="rgb(179,179,179)" stroke-linejoin="round" d="M 8482,10710 L 8482,10560"/>
 <path fill="none" stroke="rgb(179,179,179)" stroke-linejoin="round" d="M 8684,10710 L 8684,10560"/>
 <path fill="none" stroke="rgb(179,179,179)" stroke-linejoin="round" d="M 8684,10710 L 8684,10560"/>
 <path fill="none" stroke="rgb(179,179,179)" stroke-linejoin="round" d="M 8886,10710 L 8886,10560"/>
 <path fill="none" stroke="rgb(179,179,179)" stroke-linejoin="round" d="M 8886,10710 L 8886,10560"/>
 <path fill="none" stroke="rgb(179,179,179)" stroke-linejoin="round" d="M 9088,10710 L 9088,10560"/>
 <path fill="none" stroke="rgb(179,179,179)" stroke-linejoin="round" d="M 9088,10710 L 9088,10560"/>
 <path fill="none" stroke="rgb(179,179,179)" stroke-linejoin="round" d="M 9291,10710 L 9291,10560"/>
 <path fill="none" stroke="rgb(179,179,179)" stroke-linejoin="round" d="M 9291,10710 L 9291,10560"/>
 <path fill="none" stroke="rgb(179,179,179)" stroke-linejoin="round" d="M 9493,10710 L 9493,10560"/>
 <path fill="none" stroke="rgb(179,179,179)" stroke-linejoin="round" d="M 9493,10710 L 9493,10560"/>
 <path fill="none" stroke="rgb(179,179,179)" stroke-linejoin="round" d="M 9695,10710 L 9695,10560"/>
 <path fill="none" stroke="rgb(179,179,179)" stroke-linejoin="round" d="M 9695,10710 L 9695,10560"/>
 <path fill="none" stroke="rgb(179,179,179)" stroke-linejoin="round" d="M 9897,10710 L 9897,10560"/>
 <path fill="none" stroke="rgb(179,179,179)" stroke-linejoin="round" d="M 9897,10710 L 9897,10560"/>
 <path fill="none" stroke="rgb(179,179,179)" stroke-linejoin="round" d="M 10099,10710 L 10099,10560"/>
 <path fill="none" stroke="rgb(179,179,179)" stroke-linejoin="round" d="M 10099,10710 L 10099,10560"/>
 <path fill="none" stroke="rgb(179,179,179)" stroke-linejoin="round" d="M 10302,10710 L 10302,10560"/>
 <path fill="none" stroke="rgb(179,179,179)" stroke-linejoin="round" d="M 10302,10710 L 10302,10560"/>
 <path fill="none" stroke="rgb(179,179,179)" stroke-linejoin="round" d="M 10504,10710 L 10504,10560"/>
 <path fill="none" stroke="rgb(179,179,179)" stroke-linejoin="round" d="M 10504,10710 L 10504,10560"/>
 <path fill="none" stroke="rgb(179,179,179)" stroke-linejoin="round" d="M 10706,10710 L 10706,10560"/>
 <path fill="none" stroke="rgb(179,179,179)" stroke-linejoin="round" d="M 10706,10710 L 10706,10560"/>
 <path fill="none" stroke="rgb(179,179,179)" stroke-linejoin="round" d="M 10908,10710 L 10908,10560"/>
 <path fill="none" stroke="rgb(179,179,179)" stroke-linejoin="round" d="M 10908,10710 L 10908,10560"/>
 <path fill="none" stroke="rgb(179,179,179)" stroke-linejoin="round" d="M 11111,10710 L 11111,10560"/>
 <path fill="none" stroke="rgb(179,179,179)" stroke-linejoin="round" d="M 11111,10710 L 11111,10560"/>
 <path fill="none" stroke="rgb(179,179,179)" stroke-linejoin="round" d="M 11313,10710 L 11313,10560"/>
 <path fill="none" stroke="rgb(179,179,179)" stroke-linejoin="round" d="M 11313,10710 L 11313,10560"/>
 <path fill="none" stroke="rgb(179,179,179)" stroke-linejoin="round" d="M 11515,10710 L 11515,10560"/>
 <path fill="none" stroke="rgb(179,179,179)" stroke-linejoin="round" d="M 11515,10710 L 11515,10560"/>
 <path fill="none" stroke="rgb(179,179,179)" stroke-linejoin="round" d="M 11717,10710 L 11717,10560"/>
 <path fill="none" stroke="rgb(179,179,179)" stroke-linejoin="round" d="M 11717,10710 L 11717,10560"/>
 <path fill="none" stroke="rgb(179,179,179)" stroke-linejoin="round" d="M 11920,10710 L 11920,10560"/>
 <path fill="none" stroke="rgb(179,179,179)" stroke-linejoin="round" d="M 11920,10710 L 11920,10560"/>
 <path fill="none" stroke="rgb(179,179,179)" stroke-linejoin="round" d="M 12122,10710 L 12122,10560"/>
 <path fill="none" stroke="rgb(179,179,179)" stroke-linejoin="round" d="M 12122,10710 L 12122,10560"/>
 <path fill="none" stroke="rgb(179,179,179)" stroke-linejoin="round" d="M 12324,10710 L 12324,10560"/>
 <path fill="none" stroke="rgb(179,179,179)" stroke-linejoin="round" d="M 12324,10710 L 12324,10560"/>
 <path fill="none" stroke="rgb(179,179,179)" stroke-linejoin="round" d="M 12526,10710 L 12526,10560"/>
 <path fill="none" stroke="rgb(179,179,179)" stroke-linejoin="round" d="M 12526,10710 L 12526,10560"/>
 <path fill="none" stroke="rgb(179,179,179)" stroke-linejoin="round" d="M 12728,10710 L 12728,10560"/>
 <path fill="none" stroke="rgb(179,179,179)" stroke-linejoin="round" d="M 12728,10710 L 12728,10560"/>
 <path fill="none" stroke="rgb(179,179,179)" stroke-linejoin="round" d="M 12931,10710 L 12931,10560"/>
 <path fill="none" stroke="rgb(179,179,179)" stroke-linejoin="round" d="M 12931,10710 L 12931,10560"/>
 <path fill="none" stroke="rgb(179,179,179)" stroke-linejoin="round" d="M 13133,10710 L 13133,10560"/>
 <path fill="none" stroke="rgb(179,179,179)" stroke-linejoin="round" d="M 13133,10710 L 13133,10560"/>
 <path fill="none" stroke="rgb(179,179,179)" stroke-linejoin="round" d="M 13335,10710 L 13335,10560"/>
 <path fill="none" stroke="rgb(179,179,179)" stroke-linejoin="round" d="M 13335,10710 L 13335,10560"/>
 <path fill="none" stroke="rgb(179,179,179)" stroke-linejoin="round" d="M 13537,10710 L 13537,10560"/>
 <path fill="none" stroke="rgb(179,179,179)" stroke-linejoin="round" d="M 13537,10710 L 13537,10560"/>
 <path fill="none" stroke="rgb(179,179,179)" stroke-linejoin="round" d="M 13740,10710 L 13740,10560"/>
 <path fill="none" stroke="rgb(179,179,179)" stroke-linejoin="round" d="M 13740,10710 L 13740,10560"/>
 <path fill="none" stroke="rgb(179,179,179)" stroke-linejoin="round" d="M 13942,10710 L 13942,10560"/>
 <path fill="none" stroke="rgb(179,179,179)" stroke-linejoin="round" d="M 13942,10710 L 13942,10560"/>
 <path fill="none" stroke="rgb(179,179,179)" stroke-linejoin="round" d="M 14144,10710 L 14144,10560"/>
 <path fill="none" stroke="rgb(179,179,179)" stroke-linejoin="round" d="M 14144,10710 L 14144,10560"/>
 <path fill="none" stroke="rgb(179,179,179)" stroke-linejoin="round" d="M 14346,10710 L 14346,10560"/>
 <path fill="none" stroke="rgb(179,179,179)" stroke-linejoin="round" d="M 14346,10710 L 14346,10560"/>
 <path fill="none" stroke="rgb(179,179,179)" stroke-linejoin="round" d="M 14549,10710 L 14549,10560"/>
 <path fill="none" stroke="rgb(179,179,179)" stroke-linejoin="round" d="M 14549,10710 L 14549,10560"/>
 <path fill="none" stroke="rgb(179,179,179)" stroke-linejoin="round" d="M 1405,10560 L 14549,10560"/>
 <path fill="none" stroke="rgb(179,179,179)" stroke-linejoin="round" d="M 1255,10560 L 1405,10560"/>
 <path fill="none" stroke="rgb(179,179,179)" stroke-linejoin="round" d="M 1255,10560 L 1405,10560"/>
 <path fill="none" stroke="rgb(179,179,179)" stroke-linejoin="round" d="M 1255,9588 L 1405,9588"/>
 <path fill="none" stroke="rgb(179,179,179)" stroke-linejoin="round" d="M 1255,9588 L 1405,9588"/>
 <path fill="none" stroke="rgb(179,179,179)" stroke-linejoin="round" d="M 1255,8617 L 1405,8617"/>
 <path fill="none" stroke="rgb(179,179,179)" stroke-linejoin="round" d="M 1255,8617 L 1405,8617"/>
 <path fill="none" stroke="rgb(179,179,179)" stroke-linejoin="round" d="M 1255,7645 L 1405,7645"/>
 <path fill="none" stroke="rgb(179,179,179)" stroke-linejoin="round" d="M 1255,7645 L 1405,7645"/>
 <path fill="none" stroke="rgb(179,179,179)" stroke-linejoin="round" d="M 1255,6674 L 1405,6674"/>
 <path fill="none" stroke="rgb(179,179,179)" stroke-linejoin="round" d="M 1255,6674 L 1405,6674"/>
 <path fill="none" stroke="rgb(179,179,179)" stroke-linejoin="round" d="M 1255,5703 L 1405,5703"/>
 <path fill="none" stroke="rgb(179,179,179)" stroke-linejoin="round" d="M 1255,5703 L 1405,5703"/>
 <path fill="none" stroke="rgb(179,179,179)" stroke-linejoin="round" d="M 1255,4731 L 1405,4731"/>
 <path fill="none" stroke="rgb(179,179,179)" stroke-linejoin="round" d="M 1255,4731 L 1405,4731"/>
 <path fill="none" stroke="rgb(179,179,179)" stroke-linejoin="round" d="M 1255,3760 L 1405,3760"/>
 <path fill="none" stroke="rgb(179,179,179)" stroke-linejoin="round" d="M 1255,3760 L 1405,3760"/>
 <path fill="none" stroke="rgb(179,179,179)" stroke-linejoin="round" d="M 1255,2789 L 1405,2789"/>
 <path fill="none" stroke="rgb(179,179,179)" stroke-linejoin="round" d="M 1255,2789 L 1405,2789"/>
 <path fill="none" stroke="rgb(179,179,179)" stroke-linejoin="round" d="M 1255,1817 L 1405,1817"/>
 <path fill="none" stroke="rgb(179,179,179)" stroke-linejoin="round" d="M 1255,1817 L 1405,1817"/>
 <path fill="none" stroke="rgb(179,179,179)" stroke-linejoin="round" d="M 1255,846 L 1405,846"/>
 <path fill="none" stroke="rgb(179,179,179)" stroke-linejoin="round" d="M 1255,846 L 1405,846"/>
 <path fill="none" stroke="rgb(179,179,179)" stroke-linejoin="round" d="M 1405,10560 L 1405,846"/>
 <path fill="none" stroke="rgb(179,179,179)" stroke-linejoin="round" d="M 14699,10560 L 14549,10560"/>
 <path fill="none" stroke="rgb(179,179,179)" stroke-linejoin="round" d="M 14699,10560 L 14549,10560"/>
 <path fill="none" stroke="rgb(179,179,179)" stroke-linejoin="round" d="M 14699,9588 L 14549,9588"/>
 <path fill="none" stroke="rgb(179,179,179)" stroke-linejoin="round" d="M 14699,9588 L 14549,9588"/>
 <path fill="none" stroke="rgb(179,179,179)" stroke-linejoin="round" d="M 14699,8617 L 14549,8617"/>
 <path fill="none" stroke="rgb(179,179,179)" stroke-linejoin="round" d="M 14699,8617 L 14549,8617"/>
 <path fill="none" stroke="rgb(179,179,179)" stroke-linejoin="round" d="M 14699,7645 L 14549,7645"/>
 <path fill="none" stroke="rgb(179,179,179)" stroke-linejoin="round" d="M 14699,7645 L 14549,7645"/>
 <path fill="none" stroke="rgb(179,179,179)" stroke-linejoin="round" d="M 14699,6674 L 14549,6674"/>
 <path fill="none" stroke="rgb(179,179,179)" stroke-linejoin="round" d="M 14699,6674 L 14549,6674"/>
 <path fill="none" stroke="rgb(179,179,179)" stroke-linejoin="round" d="M 14699,5703 L 14549,5703"/>
 <path fill="none" stroke="rgb(179,179,179)" stroke-linejoin="round" d="M 14699,5703 L 14549,5703"/>
 <path fill="none" stroke="rgb(179,179,179)" stroke-linejoin="round" d="M 14699,4731 L 14549,4731"/>
 <path fill="none" stroke="rgb(179,179,179)" stroke-linejoin="round" d="M 14699,4731 L 14549,4731"/>
 <path fill="none" stroke="rgb(179,179,179)" stroke-linejoin="round" d="M 14699,3760 L 14549,3760"/>
 <path fill="none" stroke="rgb(179,179,179)" stroke-linejoin="round" d="M 14699,3760 L 14549,3760"/>
 <path fill="none" stroke="rgb(179,179,179)" stroke-linejoin="round" d="M 14699,2789 L 14549,2789"/>
 <path fill="none" stroke="rgb(179,179,179)" stroke-linejoin="round" d="M 14699,2789 L 14549,2789"/>
 <path fill="none" stroke="rgb(179,179,179)" stroke-linejoin="round" d="M 14699,1817 L 14549,1817"/>
 <path fill="none" stroke="rgb(179,179,179)" stroke-linejoin="round" d="M 14699,1817 L 14549,1817"/>
 <path fill="none" stroke="rgb(179,179,179)" stroke-linejoin="round" d="M 14699,846 L 14549,846"/>
 <path fill="none" stroke="rgb(179,179,179)" stroke-linejoin="round" d="M 14699,846 L 14549,846"/>
 <path fill="none" stroke="rgb(179,179,179)" stroke-linejoin="round" d="M 14549,10560 L 14549,846"/>
 <path fill="rgb(0,71,255)" stroke="none" d="M 1405,1147 L 1607,1137 1809,1137 2011,1166 2213,1186 2416,1224 2618,1283 2820,1292 3022,1283 3225,1312 3427,1331 3629,1458 3831,1506 4034,1506 4236,1487 4438,1545 4640,1574 4842,1662 5045,1798 5247,1778 5449,1739 5651,1730 5854,1963 6056,2147 6258,2244 6460,2244 6663,2274 6865,2371 7067,2497 7269,2652 7471,2750 7674,2779 7876,2672 8077,2565 8279,2507 8482,2769 8684,3061 8886,3109 9088,3235 9291,3197 9493,3080 9695,3148 9897,3595 10099,3682 10302,3711 10504,3488 10706,3546 10908,4071 11111,4343 11313,4275 11515,4275 11717,4343 11920,4391 12122,4751 12324,4868 12526,4819 12728,4566 12931,4469 13133,4498 13335,4741 13537,4800 13740,4625 13942,4586 14144,4605 14346,4654 14549,4722 14549,10560 1405,10560 1405,1147 Z"/>
 <path fill="none" stroke="rgb(0,0,0)" stroke-linejoin="round" d="M 1405,1147 L 1607,1137 1809,1137 2011,1166 2213,1186 2416,1224 2618,1283 2820,1292 3022,1283 3225,1312 3427,1331 3629,1458 3831,1506 4034,1506 4236,1487 4438,1545 4640,1574 4842,1662 5045,1798 5247,1778 5449,1739 5651,1730 5854,1963 6056,2147 6258,2244 6460,2244 6663,2274 6865,2371 7067,2497 7269,2652 7471,2750 7674,2779 7876,2672 8077,2565 8279,2507 8482,2769 8684,3061 8886,3109 9088,3235 9291,3197 9493,3080 9695,3148 9897,3595 10099,3682 10302,3711 10504,3488 10706,3546 10908,4071 11111,4343 11313,4275 11515,4275 11717,4343 11920,4391 12122,4751 12324,4868 12526,4819 12728,4566 12931,4469 13133,4498 13335,4741 13537,4800 13740,4625 13942,4586 14144,4605 14346,4654 14549,4722 14549,10560 1405,10560 1405,1147 Z"/>
 <path fill="rgb(174,207,0)" stroke="none" d="M 1405,846 L 1607,846 1809,846 2011,846 2213,846 2416,846 2618,846 2820,846 3022,846 3225,846 3427,846 3629,846 3831,846 4034,846 4236,846 4438,846 4640,846 4842,846 5045,846 5247,846 5449,846 5651,846 5854,846 6056,846 6258,846 6460,846 6663,846 6865,846 7067,846 7269,846 7471,846 7674,846 7876,846 8077,846 8279,846 8482,846 8684,846 8886,846 9088,846 9291,846 9493,846 9695,846 9897,846 10099,846 10302,846 10504,846 10706,846 10908,846 11111,846 11313,846 11515,846 11717,846 11920,846 12122,846 12324,846 12526,846 12728,846 12931,846 13133,846 13335,846 13537,846 13740,846 13942,846 14144,846 14346,846 14549,846 14549,4722 14346,4654 14144,4605 13942,4586 13740,4625 13537,4800 13335,4741 13133,4498 12931,4469 12728,4566 12526,4819 12324,4868 12122,4751 11920,4391 11717,4343 11515,4275 11313,4275 11111,4343 10908,4071 10706,3546 10504,3488 10302,3711 10099,3682 9897,3595 9695,3148 9493,3080 9291,3197 9088,3235 8886,3109 8684,3061 8482,2769 8279,2507 8077,2565 7876,2672 7674,2779 7471,2750 7269,2652 7067,2497 6865,2371 6663,2274 6460,2244 6258,2244 6056,2147 5854,1963 5651,1730 5449,1739 5247,1778 5045,1798 4842,1662 4640,1574 4438,1545 4236,1487 4034,1506 3831,1506 3629,1458 3427,1331 3225,1312 3022,1283 2820,1292 2618,1283 2416,1224 2213,1186 2011,1166 1809,1137 1607,1137 1405,1147 1405,846 Z"/>
 <path fill="none" stroke="rgb(0,0,0)" stroke-linejoin="round" d="M 1405,846 L 1607,846 1809,846 2011,846 2213,846 2416,846 2618,846 2820,846 3022,846 3225,846 3427,846 3629,846 3831,846 4034,846 4236,846 4438,846 4640,846 4842,846 5045,846 5247,846 5449,846 5651,846 5854,846 6056,846 6258,846 6460,846 6663,846 6865,846 7067,846 7269,846 7471,846 7674,846 7876,846 8077,846 8279,846 8482,846 8684,846 8886,846 9088,846 9291,846 9493,846 9695,846 9897,846 10099,846 10302,846 10504,846 10706,846 10908,846 11111,846 11313,846 11515,846 11717,846 11920,846 12122,846 12324,846 12526,846 12728,846 12931,846 13133,846 13335,846 13537,846 13740,846 13942,846 14144,846 14346,846 14549,846 14549,4722 14346,4654 14144,4605 13942,4586 13740,4625 13537,4800 13335,4741 13133,4498 12931,4469 12728,4566 12526,4819 12324,4868 12122,4751 11920,4391 11717,4343 11515,4275 11313,4275 11111,4343 10908,4071 10706,3546 10504,3488 10302,3711 10099,3682 9897,3595 9695,3148 9493,3080 9291,3197 9088,3235 8886,3109 8684,3061 8482,2769 8279,2507 8077,2565 7876,2672 7674,2779 7471,2750 7269,2652 7067,2497 6865,2371 6663,2274 6460,2244 6258,2244 6056,2147 5854,1963 5651,1730 5449,1739 5247,1778 5045,1798 4842,1662 4640,1574 4438,1545 4236,1487 4034,1506 3831,1506 3629,1458 3427,1331 3225,1312 3022,1283 2820,1292 2618,1283 2416,1224 2213,1186 2011,1166 1809,1137 1607,1137 1405,1147 1405,846 Z"/>
 <text class="TextShape"><tspan class="TextParagraph" font-family="Arial, sans-serif" font-size="459px" font-weight="400"><tspan class="TextPosition" x="928" y="11207"><tspan fill="rgb(0,0,0)" stroke="none">2010</tspan></tspan></tspan></text>
 <text class="TextShape"><tspan class="TextParagraph" font-family="Arial, sans-serif" font-size="459px" font-weight="400"><tspan class="TextPosition" x="3354" y="11207"><tspan fill="rgb(0,0,0)" stroke="none">2011</tspan></tspan></tspan></text>
 <text class="TextShape"><tspan class="TextParagraph" font-family="Arial, sans-serif" font-size="459px" font-weight="400"><tspan class="TextPosition" x="5781" y="11207"><tspan fill="rgb(0,0,0)" stroke="none">2012</tspan></tspan></tspan></text>
 <text class="TextShape"><tspan class="TextParagraph" font-family="Arial, sans-serif" font-size="459px" font-weight="400"><tspan class="TextPosition" x="8208" y="11207"><tspan fill="rgb(0,0,0)" stroke="none">2013</tspan></tspan></tspan></text>
 <text class="TextShape"><tspan class="TextParagraph" font-family="Arial, sans-serif" font-size="459px" font-weight="400"><tspan class="TextPosition" x="10635" y="11207"><tspan fill="rgb(0,0,0)" stroke="none">2014</tspan></tspan></tspan></text>
 <text class="TextShape"><tspan class="TextParagraph" font-family="Arial, sans-serif" font-size="459px" font-weight="400"><tspan class="TextPosition" x="13061" y="11207"><tspan fill="rgb(0,0,0)" stroke="none">2015</tspan></tspan></tspan></text>
 <text class="TextShape"><tspan class="TextParagraph" font-family="Arial, sans-serif" font-size="459px" font-weight="400"><tspan class="TextPosition" x="520" y="10707"><tspan fill="rgb(0,0,0)" stroke="none">0%</tspan></tspan></tspan></text>
 <text class="TextShape"><tspan class="TextParagraph" font-family="Arial, sans-serif" font-size="459px" font-weight="400"><tspan class="TextPosition" x="282" y="9735"><tspan fill="rgb(0,0,0)" stroke="none">10%</tspan></tspan></tspan></text>
 <text class="TextShape"><tspan class="TextParagraph" font-family="Arial, sans-serif" font-size="459px" font-weight="400"><tspan class="TextPosition" x="282" y="8764"><tspan fill="rgb(0,0,0)" stroke="none">20%</tspan></tspan></tspan></text>
 <text class="TextShape"><tspan class="TextParagraph" font-family="Arial, sans-serif" font-size="459px" font-weight="400"><tspan class="TextPosition" x="282" y="7792"><tspan fill="rgb(0,0,0)" stroke="none">30%</tspan></tspan></tspan></text>
 <text class="TextShape"><tspan class="TextParagraph" font-family="Arial, sans-serif" font-size="459px" font-weight="400"><tspan class="TextPosition" x="282" y="6821"><tspan fill="rgb(0,0,0)" stroke="none">40%</tspan></tspan></tspan></text>
 <text class="TextShape"><tspan class="TextParagraph" font-family="Arial, sans-serif" font-size="459px" font-weight="400"><tspan class="TextPosition" x="282" y="5849"><tspan fill="rgb(0,0,0)" stroke="none">50%</tspan></tspan></tspan></text>
 <text class="TextShape"><tspan class="TextParagraph" font-family="Arial, sans-serif" font-size="459px" font-weight="400"><tspan class="TextPosition" x="282" y="4877"><tspan fill="rgb(0,0,0)" stroke="none">60%</tspan></tspan></tspan></text>
 <text class="TextShape"><tspan class="TextParagraph" font-family="Arial, sans-serif" font-size="459px" font-weight="400"><tspan class="TextPosition" x="282" y="3906"><tspan fill="rgb(0,0,0)" stroke="none">70%</tspan></tspan></tspan></text>
 <text class="TextShape"><tspan class="TextParagraph" font-family="Arial, sans-serif" font-size="459px" font-weight="400"><tspan class="TextPosition" x="282" y="2935"><tspan fill="rgb(0,0,0)" stroke="none">80%</tspan></tspan></tspan></text>
 <text class="TextShape"><tspan class="TextParagraph" font-family="Arial, sans-serif" font-size="459px" font-weight="400"><tspan class="TextPosition" x="282" y="1963"><tspan fill="rgb(0,0,0)" stroke="none">90%</tspan></tspan></tspan></text>
 <text class="TextShape"><tspan class="TextParagraph" font-family="Arial, sans-serif" font-size="459px" font-weight="400"><tspan class="TextPosition" x="44" y="992"><tspan fill="rgb(0,0,0)" stroke="none">100%</tspan></tspan></tspan></text>
 <text class="TextShape"><tspan class="TextParagraph" font-family="Arial, sans-serif" font-size="459px" font-weight="400"><tspan class="TextPosition" x="14799" y="10707"><tspan fill="rgb(0,0,0)" stroke="none">0%</tspan></tspan></tspan></text>
 <text class="TextShape"><tspan class="TextParagraph" font-family="Arial, sans-serif" font-size="459px" font-weight="400"><tspan class="TextPosition" x="14799" y="9735"><tspan fill="rgb(0,0,0)" stroke="none">10%</tspan></tspan></tspan></text>
 <text class="TextShape"><tspan class="TextParagraph" font-family="Arial, sans-serif" font-size="459px" font-weight="400"><tspan class="TextPosition" x="14799" y="8764"><tspan fill="rgb(0,0,0)" stroke="none">20%</tspan></tspan></tspan></text>
 <text class="TextShape"><tspan class="TextParagraph" font-family="Arial, sans-serif" font-size="459px" font-weight="400"><tspan class="TextPosition" x="14799" y="7792"><tspan fill="rgb(0,0,0)" stroke="none">30%</tspan></tspan></tspan></text>
 <text class="TextShape"><tspan class="TextParagraph" font-family="Arial, sans-serif" font-size="459px" font-weight="400"><tspan class="TextPosition" x="14799" y="6821"><tspan fill="rgb(0,0,0)" stroke="none">40%</tspan></tspan></tspan></text>
 <text class="TextShape"><tspan class="TextParagraph" font-family="Arial, sans-serif" font-size="459px" font-weight="400"><tspan class="TextPosition" x="14799" y="5849"><tspan fill="rgb(0,0,0)" stroke="none">50%</tspan></tspan></tspan></text>
 <text class="TextShape"><tspan class="TextParagraph" font-family="Arial, sans-serif" font-size="459px" font-weight="400"><tspan class="TextPosition" x="14799" y="4877"><tspan fill="rgb(0,0,0)" stroke="none">60%</tspan></tspan></tspan></text>
 <text class="TextShape"><tspan class="TextParagraph" font-family="Arial, sans-serif" font-size="459px" font-weight="400"><tspan class="TextPosition" x="14799" y="3906"><tspan fill="rgb(0,0,0)" stroke="none">70%</tspan></tspan></tspan></text>
 <text class="TextShape"><tspan class="TextParagraph" font-family="Arial, sans-serif" font-size="459px" font-weight="400"><tspan class="TextPosition" x="14799" y="2935"><tspan fill="rgb(0,0,0)" stroke="none">80%</tspan></tspan></tspan></text>
 <text class="TextShape"><tspan class="TextParagraph" font-family="Arial, sans-serif" font-size="459px" font-weight="400"><tspan class="TextPosition" x="14799" y="1963"><tspan fill="rgb(0,0,0)" stroke="none">90%</tspan></tspan></tspan></text>
 <text class="TextShape"><tspan class="TextParagraph" font-family="Arial, sans-serif" font-size="459px" font-weight="400"><tspan class="TextPosition" x="14799" y="992"><tspan fill="rgb(0,0,0)" stroke="none">100%</tspan></tspan></tspan></text>
 <text class="TextShape"><tspan class="TextParagraph" font-family="Arial, sans-serif" font-size="564px" font-weight="400"><tspan class="TextPosition" x="1416" y="675"><tspan fill="rgb(0,0,0)" stroke="none">Tipo de dispositivo con el que se accede a Wikimedia</tspan></tspan></tspan></text>
 <path fill="rgb(0,71,255)" stroke="none" d="M 5439,11600 L 5302,11600 5302,11325 5577,11325 5577,11600 5439,11600 Z"/>
 <path fill="none" stroke="rgb(0,0,0)" stroke-linejoin="round" d="M 5439,11600 L 5302,11600 5302,11325 5577,11325 5577,11600 5439,11600 Z"/>
 <path fill="rgb(174,207,0)" stroke="none" d="M 7970,11600 L 7833,11600 7833,11325 8107,11325 8107,11600 7970,11600 Z"/>
 <path fill="none" stroke="rgb(0,0,0)" stroke-linejoin="round" d="M 7970,11600 L 7833,11600 7833,11325 8107,11325 8107,11600 7970,11600 Z"/>
 <text class="TextShape"><tspan class="TextParagraph" font-family="Arial, sans-serif" font-size="459px" font-weight="400"><tspan class="TextPosition" x="5677" y="11608"><tspan fill="rgb(0,0,0)" stroke="none">Escritorio</tspan></tspan></tspan></text>
 <text class="TextShape"><tspan class="TextParagraph" font-family="Arial, sans-serif" font-size="459px" font-weight="400"><tspan class="TextPosition" x="8207" y="11608"><tspan fill="rgb(0,0,0)" stroke="none">Móvil / Tablet</tspan></tspan></tspan></text>
</svg>
