<?xml version="1.0" encoding="UTF-8"?>
<!DOCTYPE svg PUBLIC "-//W3C//DTD SVG 1.1//EN" "http://www.w3.org/Graphics/SVG/1.1/DTD/svg11.dtd">
<svg width="160mm" height="120mm" viewBox="0 0 16000 12000" version="1.1" xmlns="http://www.w3.org/2000/svg" stroke-width="28.222" stroke-linejoin="round" xml:space="preserve">
 <path fill="rgb(255,255,255)" stroke="none" d="M 8001,12002 L 0,12002 0,0 16002,0 16002,12002 8001,12002 Z"/>
 <path fill="none" stroke="rgb(179,179,179)" stroke-linejoin="round" d="M 8004,10702 L 1321,10702 1321,1095 14688,1095 14688,10702 8004,10702 Z"/>
 <path fill="none" stroke="rgb(0,0,0)" stroke-linejoin="round" d="M 14687,10701 L 1321,10701"/>
 <path fill="none" stroke="rgb(0,0,0)" stroke-linejoin="round" d="M 14687,9740 L 1321,9740"/>
 <path fill="none" stroke="rgb(0,0,0)" stroke-linejoin="round" d="M 14687,8779 L 1321,8779"/>
 <path fill="none" stroke="rgb(0,0,0)" stroke-linejoin="round" d="M 14687,7818 L 1321,7818"/>
 <path fill="none" stroke="rgb(0,0,0)" stroke-linejoin="round" d="M 14687,6857 L 1321,6857"/>
 <path fill="none" stroke="rgb(0,0,0)" stroke-linejoin="round" d="M 14687,5898 L 1321,5898"/>
 <path fill="none" stroke="rgb(0,0,0)" stroke-linejoin="round" d="M 14687,4937 L 1321,4937"/>
 <path fill="none" stroke="rgb(0,0,0)" stroke-linejoin="round" d="M 14687,3976 L 1321,3976"/>
 <path fill="none" stroke="rgb(0,0,0)" stroke-linejoin="round" d="M 14687,3015 L 1321,3015"/>
 <path fill="none" stroke="rgb(0,0,0)" stroke-linejoin="round" d="M 14687,2054 L 1321,2054"/>
 <path fill="none" stroke="rgb(0,0,0)" stroke-linejoin="round" d="M 14687,1094 L 1321,1094"/>
 <path fill="none" stroke="rgb(0,0,0)" stroke-linejoin="round" d="M 1321,10851 L 1321,10701"/>
 <path fill="none" stroke="rgb(0,0,0)" stroke-linejoin="round" d="M 1321,10851 L 1321,10701"/>
 <path fill="none" stroke="rgb(0,0,0)" stroke-linejoin="round" d="M 1458,10851 L 1458,10701"/>
 <path fill="none" stroke="rgb(0,0,0)" stroke-linejoin="round" d="M 1458,10851 L 1458,10701"/>
 <path fill="none" stroke="rgb(0,0,0)" stroke-linejoin="round" d="M 1596,10851 L 1596,10701"/>
 <path fill="none" stroke="rgb(0,0,0)" stroke-linejoin="round" d="M 1596,10851 L 1596,10701"/>
 <path fill="none" stroke="rgb(0,0,0)" stroke-linejoin="round" d="M 1734,10851 L 1734,10701"/>
 <path fill="none" stroke="rgb(0,0,0)" stroke-linejoin="round" d="M 1734,10851 L 1734,10701"/>
 <path fill="none" stroke="rgb(0,0,0)" stroke-linejoin="round" d="M 1872,10851 L 1872,10701"/>
 <path fill="none" stroke="rgb(0,0,0)" stroke-linejoin="round" d="M 1872,10851 L 1872,10701"/>
 <path fill="none" stroke="rgb(0,0,0)" stroke-linejoin="round" d="M 2010,10851 L 2010,10701"/>
 <path fill="none" stroke="rgb(0,0,0)" stroke-linejoin="round" d="M 2010,10851 L 2010,10701"/>
 <path fill="none" stroke="rgb(0,0,0)" stroke-linejoin="round" d="M 2147,10851 L 2147,10701"/>
 <path fill="none" stroke="rgb(0,0,0)" stroke-linejoin="round" d="M 2147,10851 L 2147,10701"/>
 <path fill="none" stroke="rgb(0,0,0)" stroke-linejoin="round" d="M 2285,10851 L 2285,10701"/>
 <path fill="none" stroke="rgb(0,0,0)" stroke-linejoin="round" d="M 2285,10851 L 2285,10701"/>
 <path fill="none" stroke="rgb(0,0,0)" stroke-linejoin="round" d="M 2423,10851 L 2423,10701"/>
 <path fill="none" stroke="rgb(0,0,0)" stroke-linejoin="round" d="M 2423,10851 L 2423,10701"/>
 <path fill="none" stroke="rgb(0,0,0)" stroke-linejoin="round" d="M 2561,10851 L 2561,10701"/>
 <path fill="none" stroke="rgb(0,0,0)" stroke-linejoin="round" d="M 2561,10851 L 2561,10701"/>
 <path fill="none" stroke="rgb(0,0,0)" stroke-linejoin="round" d="M 2699,10851 L 2699,10701"/>
 <path fill="none" stroke="rgb(0,0,0)" stroke-linejoin="round" d="M 2699,10851 L 2699,10701"/>
 <path fill="none" stroke="rgb(0,0,0)" stroke-linejoin="round" d="M 2836,10851 L 2836,10701"/>
 <path fill="none" stroke="rgb(0,0,0)" stroke-linejoin="round" d="M 2836,10851 L 2836,10701"/>
 <path fill="none" stroke="rgb(0,0,0)" stroke-linejoin="round" d="M 2974,10851 L 2974,10701"/>
 <path fill="none" stroke="rgb(0,0,0)" stroke-linejoin="round" d="M 2974,10851 L 2974,10701"/>
 <path fill="none" stroke="rgb(0,0,0)" stroke-linejoin="round" d="M 3112,10851 L 3112,10701"/>
 <path fill="none" stroke="rgb(0,0,0)" stroke-linejoin="round" d="M 3112,10851 L 3112,10701"/>
 <path fill="none" stroke="rgb(0,0,0)" stroke-linejoin="round" d="M 3250,10851 L 3250,10701"/>
 <path fill="none" stroke="rgb(0,0,0)" stroke-linejoin="round" d="M 3250,10851 L 3250,10701"/>
 <path fill="none" stroke="rgb(0,0,0)" stroke-linejoin="round" d="M 3388,10851 L 3388,10701"/>
 <path fill="none" stroke="rgb(0,0,0)" stroke-linejoin="round" d="M 3388,10851 L 3388,10701"/>
 <path fill="none" stroke="rgb(0,0,0)" stroke-linejoin="round" d="M 3526,10851 L 3526,10701"/>
 <path fill="none" stroke="rgb(0,0,0)" stroke-linejoin="round" d="M 3526,10851 L 3526,10701"/>
 <path fill="none" stroke="rgb(0,0,0)" stroke-linejoin="round" d="M 3663,10851 L 3663,10701"/>
 <path fill="none" stroke="rgb(0,0,0)" stroke-linejoin="round" d="M 3663,10851 L 3663,10701"/>
 <path fill="none" stroke="rgb(0,0,0)" stroke-linejoin="round" d="M 3801,10851 L 3801,10701"/>
 <path fill="none" stroke="rgb(0,0,0)" stroke-linejoin="round" d="M 3801,10851 L 3801,10701"/>
 <path fill="none" stroke="rgb(0,0,0)" stroke-linejoin="round" d="M 3939,10851 L 3939,10701"/>
 <path fill="none" stroke="rgb(0,0,0)" stroke-linejoin="round" d="M 3939,10851 L 3939,10701"/>
 <path fill="none" stroke="rgb(0,0,0)" stroke-linejoin="round" d="M 4077,10851 L 4077,10701"/>
 <path fill="none" stroke="rgb(0,0,0)" stroke-linejoin="round" d="M 4077,10851 L 4077,10701"/>
 <path fill="none" stroke="rgb(0,0,0)" stroke-linejoin="round" d="M 4215,10851 L 4215,10701"/>
 <path fill="none" stroke="rgb(0,0,0)" stroke-linejoin="round" d="M 4215,10851 L 4215,10701"/>
 <path fill="none" stroke="rgb(0,0,0)" stroke-linejoin="round" d="M 4352,10851 L 4352,10701"/>
 <path fill="none" stroke="rgb(0,0,0)" stroke-linejoin="round" d="M 4352,10851 L 4352,10701"/>
 <path fill="none" stroke="rgb(0,0,0)" stroke-linejoin="round" d="M 4490,10851 L 4490,10701"/>
 <path fill="none" stroke="rgb(0,0,0)" stroke-linejoin="round" d="M 4490,10851 L 4490,10701"/>
 <path fill="none" stroke="rgb(0,0,0)" stroke-linejoin="round" d="M 4628,10851 L 4628,10701"/>
 <path fill="none" stroke="rgb(0,0,0)" stroke-linejoin="round" d="M 4628,10851 L 4628,10701"/>
 <path fill="none" stroke="rgb(0,0,0)" stroke-linejoin="round" d="M 4766,10851 L 4766,10701"/>
 <path fill="none" stroke="rgb(0,0,0)" stroke-linejoin="round" d="M 4766,10851 L 4766,10701"/>
 <path fill="none" stroke="rgb(0,0,0)" stroke-linejoin="round" d="M 4904,10851 L 4904,10701"/>
 <path fill="none" stroke="rgb(0,0,0)" stroke-linejoin="round" d="M 4904,10851 L 4904,10701"/>
 <path fill="none" stroke="rgb(0,0,0)" stroke-linejoin="round" d="M 5041,10851 L 5041,10701"/>
 <path fill="none" stroke="rgb(0,0,0)" stroke-linejoin="round" d="M 5041,10851 L 5041,10701"/>
 <path fill="none" stroke="rgb(0,0,0)" stroke-linejoin="round" d="M 5179,10851 L 5179,10701"/>
 <path fill="none" stroke="rgb(0,0,0)" stroke-linejoin="round" d="M 5179,10851 L 5179,10701"/>
 <path fill="none" stroke="rgb(0,0,0)" stroke-linejoin="round" d="M 5317,10851 L 5317,10701"/>
 <path fill="none" stroke="rgb(0,0,0)" stroke-linejoin="round" d="M 5317,10851 L 5317,10701"/>
 <path fill="none" stroke="rgb(0,0,0)" stroke-linejoin="round" d="M 5455,10851 L 5455,10701"/>
 <path fill="none" stroke="rgb(0,0,0)" stroke-linejoin="round" d="M 5455,10851 L 5455,10701"/>
 <path fill="none" stroke="rgb(0,0,0)" stroke-linejoin="round" d="M 5593,10851 L 5593,10701"/>
 <path fill="none" stroke="rgb(0,0,0)" stroke-linejoin="round" d="M 5593,10851 L 5593,10701"/>
 <path fill="none" stroke="rgb(0,0,0)" stroke-linejoin="round" d="M 5731,10851 L 5731,10701"/>
 <path fill="none" stroke="rgb(0,0,0)" stroke-linejoin="round" d="M 5731,10851 L 5731,10701"/>
 <path fill="none" stroke="rgb(0,0,0)" stroke-linejoin="round" d="M 5868,10851 L 5868,10701"/>
 <path fill="none" stroke="rgb(0,0,0)" stroke-linejoin="round" d="M 5868,10851 L 5868,10701"/>
 <path fill="none" stroke="rgb(0,0,0)" stroke-linejoin="round" d="M 6006,10851 L 6006,10701"/>
 <path fill="none" stroke="rgb(0,0,0)" stroke-linejoin="round" d="M 6006,10851 L 6006,10701"/>
 <path fill="none" stroke="rgb(0,0,0)" stroke-linejoin="round" d="M 6144,10851 L 6144,10701"/>
 <path fill="none" stroke="rgb(0,0,0)" stroke-linejoin="round" d="M 6144,10851 L 6144,10701"/>
 <path fill="none" stroke="rgb(0,0,0)" stroke-linejoin="round" d="M 6282,10851 L 6282,10701"/>
 <path fill="none" stroke="rgb(0,0,0)" stroke-linejoin="round" d="M 6282,10851 L 6282,10701"/>
 <path fill="none" stroke="rgb(0,0,0)" stroke-linejoin="round" d="M 6420,10851 L 6420,10701"/>
 <path fill="none" stroke="rgb(0,0,0)" stroke-linejoin="round" d="M 6420,10851 L 6420,10701"/>
 <path fill="none" stroke="rgb(0,0,0)" stroke-linejoin="round" d="M 6557,10851 L 6557,10701"/>
 <path fill="none" stroke="rgb(0,0,0)" stroke-linejoin="round" d="M 6557,10851 L 6557,10701"/>
 <path fill="none" stroke="rgb(0,0,0)" stroke-linejoin="round" d="M 6695,10851 L 6695,10701"/>
 <path fill="none" stroke="rgb(0,0,0)" stroke-linejoin="round" d="M 6695,10851 L 6695,10701"/>
 <path fill="none" stroke="rgb(0,0,0)" stroke-linejoin="round" d="M 6833,10851 L 6833,10701"/>
 <path fill="none" stroke="rgb(0,0,0)" stroke-linejoin="round" d="M 6833,10851 L 6833,10701"/>
 <path fill="none" stroke="rgb(0,0,0)" stroke-linejoin="round" d="M 6971,10851 L 6971,10701"/>
 <path fill="none" stroke="rgb(0,0,0)" stroke-linejoin="round" d="M 6971,10851 L 6971,10701"/>
 <path fill="none" stroke="rgb(0,0,0)" stroke-linejoin="round" d="M 7109,10851 L 7109,10701"/>
 <path fill="none" stroke="rgb(0,0,0)" stroke-linejoin="round" d="M 7109,10851 L 7109,10701"/>
 <path fill="none" stroke="rgb(0,0,0)" stroke-linejoin="round" d="M 7247,10851 L 7247,10701"/>
 <path fill="none" stroke="rgb(0,0,0)" stroke-linejoin="round" d="M 7247,10851 L 7247,10701"/>
 <path fill="none" stroke="rgb(0,0,0)" stroke-linejoin="round" d="M 7384,10851 L 7384,10701"/>
 <path fill="none" stroke="rgb(0,0,0)" stroke-linejoin="round" d="M 7384,10851 L 7384,10701"/>
 <path fill="none" stroke="rgb(0,0,0)" stroke-linejoin="round" d="M 7522,10851 L 7522,10701"/>
 <path fill="none" stroke="rgb(0,0,0)" stroke-linejoin="round" d="M 7522,10851 L 7522,10701"/>
 <path fill="none" stroke="rgb(0,0,0)" stroke-linejoin="round" d="M 7660,10851 L 7660,10701"/>
 <path fill="none" stroke="rgb(0,0,0)" stroke-linejoin="round" d="M 7660,10851 L 7660,10701"/>
 <path fill="none" stroke="rgb(0,0,0)" stroke-linejoin="round" d="M 7798,10851 L 7798,10701"/>
 <path fill="none" stroke="rgb(0,0,0)" stroke-linejoin="round" d="M 7798,10851 L 7798,10701"/>
 <path fill="none" stroke="rgb(0,0,0)" stroke-linejoin="round" d="M 7936,10851 L 7936,10701"/>
 <path fill="none" stroke="rgb(0,0,0)" stroke-linejoin="round" d="M 7936,10851 L 7936,10701"/>
 <path fill="none" stroke="rgb(0,0,0)" stroke-linejoin="round" d="M 8072,10851 L 8072,10701"/>
 <path fill="none" stroke="rgb(0,0,0)" stroke-linejoin="round" d="M 8072,10851 L 8072,10701"/>
 <path fill="none" stroke="rgb(0,0,0)" stroke-linejoin="round" d="M 8210,10851 L 8210,10701"/>
 <path fill="none" stroke="rgb(0,0,0)" stroke-linejoin="round" d="M 8210,10851 L 8210,10701"/>
 <path fill="none" stroke="rgb(0,0,0)" stroke-linejoin="round" d="M 8348,10851 L 8348,10701"/>
 <path fill="none" stroke="rgb(0,0,0)" stroke-linejoin="round" d="M 8348,10851 L 8348,10701"/>
 <path fill="none" stroke="rgb(0,0,0)" stroke-linejoin="round" d="M 8486,10851 L 8486,10701"/>
 <path fill="none" stroke="rgb(0,0,0)" stroke-linejoin="round" d="M 8486,10851 L 8486,10701"/>
 <path fill="none" stroke="rgb(0,0,0)" stroke-linejoin="round" d="M 8624,10851 L 8624,10701"/>
 <path fill="none" stroke="rgb(0,0,0)" stroke-linejoin="round" d="M 8624,10851 L 8624,10701"/>
 <path fill="none" stroke="rgb(0,0,0)" stroke-linejoin="round" d="M 8761,10851 L 8761,10701"/>
 <path fill="none" stroke="rgb(0,0,0)" stroke-linejoin="round" d="M 8761,10851 L 8761,10701"/>
 <path fill="none" stroke="rgb(0,0,0)" stroke-linejoin="round" d="M 8899,10851 L 8899,10701"/>
 <path fill="none" stroke="rgb(0,0,0)" stroke-linejoin="round" d="M 8899,10851 L 8899,10701"/>
 <path fill="none" stroke="rgb(0,0,0)" stroke-linejoin="round" d="M 9037,10851 L 9037,10701"/>
 <path fill="none" stroke="rgb(0,0,0)" stroke-linejoin="round" d="M 9037,10851 L 9037,10701"/>
 <path fill="none" stroke="rgb(0,0,0)" stroke-linejoin="round" d="M 9175,10851 L 9175,10701"/>
 <path fill="none" stroke="rgb(0,0,0)" stroke-linejoin="round" d="M 9175,10851 L 9175,10701"/>
 <path fill="none" stroke="rgb(0,0,0)" stroke-linejoin="round" d="M 9313,10851 L 9313,10701"/>
 <path fill="none" stroke="rgb(0,0,0)" stroke-linejoin="round" d="M 9313,10851 L 9313,10701"/>
 <path fill="none" stroke="rgb(0,0,0)" stroke-linejoin="round" d="M 9451,10851 L 9451,10701"/>
 <path fill="none" stroke="rgb(0,0,0)" stroke-linejoin="round" d="M 9451,10851 L 9451,10701"/>
 <path fill="none" stroke="rgb(0,0,0)" stroke-linejoin="round" d="M 9588,10851 L 9588,10701"/>
 <path fill="none" stroke="rgb(0,0,0)" stroke-linejoin="round" d="M 9588,10851 L 9588,10701"/>
 <path fill="none" stroke="rgb(0,0,0)" stroke-linejoin="round" d="M 9726,10851 L 9726,10701"/>
 <path fill="none" stroke="rgb(0,0,0)" stroke-linejoin="round" d="M 9726,10851 L 9726,10701"/>
 <path fill="none" stroke="rgb(0,0,0)" stroke-linejoin="round" d="M 9864,10851 L 9864,10701"/>
 <path fill="none" stroke="rgb(0,0,0)" stroke-linejoin="round" d="M 9864,10851 L 9864,10701"/>
 <path fill="none" stroke="rgb(0,0,0)" stroke-linejoin="round" d="M 10002,10851 L 10002,10701"/>
 <path fill="none" stroke="rgb(0,0,0)" stroke-linejoin="round" d="M 10002,10851 L 10002,10701"/>
 <path fill="none" stroke="rgb(0,0,0)" stroke-linejoin="round" d="M 10140,10851 L 10140,10701"/>
 <path fill="none" stroke="rgb(0,0,0)" stroke-linejoin="round" d="M 10140,10851 L 10140,10701"/>
 <path fill="none" stroke="rgb(0,0,0)" stroke-linejoin="round" d="M 10277,10851 L 10277,10701"/>
 <path fill="none" stroke="rgb(0,0,0)" stroke-linejoin="round" d="M 10277,10851 L 10277,10701"/>
 <path fill="none" stroke="rgb(0,0,0)" stroke-linejoin="round" d="M 10415,10851 L 10415,10701"/>
 <path fill="none" stroke="rgb(0,0,0)" stroke-linejoin="round" d="M 10415,10851 L 10415,10701"/>
 <path fill="none" stroke="rgb(0,0,0)" stroke-linejoin="round" d="M 10553,10851 L 10553,10701"/>
 <path fill="none" stroke="rgb(0,0,0)" stroke-linejoin="round" d="M 10553,10851 L 10553,10701"/>
 <path fill="none" stroke="rgb(0,0,0)" stroke-linejoin="round" d="M 10691,10851 L 10691,10701"/>
 <path fill="none" stroke="rgb(0,0,0)" stroke-linejoin="round" d="M 10691,10851 L 10691,10701"/>
 <path fill="none" stroke="rgb(0,0,0)" stroke-linejoin="round" d="M 10829,10851 L 10829,10701"/>
 <path fill="none" stroke="rgb(0,0,0)" stroke-linejoin="round" d="M 10829,10851 L 10829,10701"/>
 <path fill="none" stroke="rgb(0,0,0)" stroke-linejoin="round" d="M 10967,10851 L 10967,10701"/>
 <path fill="none" stroke="rgb(0,0,0)" stroke-linejoin="round" d="M 10967,10851 L 10967,10701"/>
 <path fill="none" stroke="rgb(0,0,0)" stroke-linejoin="round" d="M 11104,10851 L 11104,10701"/>
 <path fill="none" stroke="rgb(0,0,0)" stroke-linejoin="round" d="M 11104,10851 L 11104,10701"/>
 <path fill="none" stroke="rgb(0,0,0)" stroke-linejoin="round" d="M 11242,10851 L 11242,10701"/>
 <path fill="none" stroke="rgb(0,0,0)" stroke-linejoin="round" d="M 11242,10851 L 11242,10701"/>
 <path fill="none" stroke="rgb(0,0,0)" stroke-linejoin="round" d="M 11380,10851 L 11380,10701"/>
 <path fill="none" stroke="rgb(0,0,0)" stroke-linejoin="round" d="M 11380,10851 L 11380,10701"/>
 <path fill="none" stroke="rgb(0,0,0)" stroke-linejoin="round" d="M 11518,10851 L 11518,10701"/>
 <path fill="none" stroke="rgb(0,0,0)" stroke-linejoin="round" d="M 11518,10851 L 11518,10701"/>
 <path fill="none" stroke="rgb(0,0,0)" stroke-linejoin="round" d="M 11656,10851 L 11656,10701"/>
 <path fill="none" stroke="rgb(0,0,0)" stroke-linejoin="round" d="M 11656,10851 L 11656,10701"/>
 <path fill="none" stroke="rgb(0,0,0)" stroke-linejoin="round" d="M 11793,10851 L 11793,10701"/>
 <path fill="none" stroke="rgb(0,0,0)" stroke-linejoin="round" d="M 11793,10851 L 11793,10701"/>
 <path fill="none" stroke="rgb(0,0,0)" stroke-linejoin="round" d="M 11931,10851 L 11931,10701"/>
 <path fill="none" stroke="rgb(0,0,0)" stroke-linejoin="round" d="M 11931,10851 L 11931,10701"/>
 <path fill="none" stroke="rgb(0,0,0)" stroke-linejoin="round" d="M 12069,10851 L 12069,10701"/>
 <path fill="none" stroke="rgb(0,0,0)" stroke-linejoin="round" d="M 12069,10851 L 12069,10701"/>
 <path fill="none" stroke="rgb(0,0,0)" stroke-linejoin="round" d="M 12207,10851 L 12207,10701"/>
 <path fill="none" stroke="rgb(0,0,0)" stroke-linejoin="round" d="M 12207,10851 L 12207,10701"/>
 <path fill="none" stroke="rgb(0,0,0)" stroke-linejoin="round" d="M 12345,10851 L 12345,10701"/>
 <path fill="none" stroke="rgb(0,0,0)" stroke-linejoin="round" d="M 12345,10851 L 12345,10701"/>
 <path fill="none" stroke="rgb(0,0,0)" stroke-linejoin="round" d="M 12482,10851 L 12482,10701"/>
 <path fill="none" stroke="rgb(0,0,0)" stroke-linejoin="round" d="M 12482,10851 L 12482,10701"/>
 <path fill="none" stroke="rgb(0,0,0)" stroke-linejoin="round" d="M 12620,10851 L 12620,10701"/>
 <path fill="none" stroke="rgb(0,0,0)" stroke-linejoin="round" d="M 12620,10851 L 12620,10701"/>
 <path fill="none" stroke="rgb(0,0,0)" stroke-linejoin="round" d="M 12758,10851 L 12758,10701"/>
 <path fill="none" stroke="rgb(0,0,0)" stroke-linejoin="round" d="M 12758,10851 L 12758,10701"/>
 <path fill="none" stroke="rgb(0,0,0)" stroke-linejoin="round" d="M 12896,10851 L 12896,10701"/>
 <path fill="none" stroke="rgb(0,0,0)" stroke-linejoin="round" d="M 12896,10851 L 12896,10701"/>
 <path fill="none" stroke="rgb(0,0,0)" stroke-linejoin="round" d="M 13034,10851 L 13034,10701"/>
 <path fill="none" stroke="rgb(0,0,0)" stroke-linejoin="round" d="M 13034,10851 L 13034,10701"/>
 <path fill="none" stroke="rgb(0,0,0)" stroke-linejoin="round" d="M 13172,10851 L 13172,10701"/>
 <path fill="none" stroke="rgb(0,0,0)" stroke-linejoin="round" d="M 13172,10851 L 13172,10701"/>
 <path fill="none" stroke="rgb(0,0,0)" stroke-linejoin="round" d="M 13309,10851 L 13309,10701"/>
 <path fill="none" stroke="rgb(0,0,0)" stroke-linejoin="round" d="M 13309,10851 L 13309,10701"/>
 <path fill="none" stroke="rgb(0,0,0)" stroke-linejoin="round" d="M 13447,10851 L 13447,10701"/>
 <path fill="none" stroke="rgb(0,0,0)" stroke-linejoin="round" d="M 13447,10851 L 13447,10701"/>
 <path fill="none" stroke="rgb(0,0,0)" stroke-linejoin="round" d="M 13585,10851 L 13585,10701"/>
 <path fill="none" stroke="rgb(0,0,0)" stroke-linejoin="round" d="M 13585,10851 L 13585,10701"/>
 <path fill="none" stroke="rgb(0,0,0)" stroke-linejoin="round" d="M 13723,10851 L 13723,10701"/>
 <path fill="none" stroke="rgb(0,0,0)" stroke-linejoin="round" d="M 13723,10851 L 13723,10701"/>
 <path fill="none" stroke="rgb(0,0,0)" stroke-linejoin="round" d="M 13861,10851 L 13861,10701"/>
 <path fill="none" stroke="rgb(0,0,0)" stroke-linejoin="round" d="M 13861,10851 L 13861,10701"/>
 <path fill="none" stroke="rgb(0,0,0)" stroke-linejoin="round" d="M 13998,10851 L 13998,10701"/>
 <path fill="none" stroke="rgb(0,0,0)" stroke-linejoin="round" d="M 13998,10851 L 13998,10701"/>
 <path fill="none" stroke="rgb(0,0,0)" stroke-linejoin="round" d="M 14136,10851 L 14136,10701"/>
 <path fill="none" stroke="rgb(0,0,0)" stroke-linejoin="round" d="M 14136,10851 L 14136,10701"/>
 <path fill="none" stroke="rgb(0,0,0)" stroke-linejoin="round" d="M 14274,10851 L 14274,10701"/>
 <path fill="none" stroke="rgb(0,0,0)" stroke-linejoin="round" d="M 14274,10851 L 14274,10701"/>
 <path fill="none" stroke="rgb(0,0,0)" stroke-linejoin="round" d="M 14412,10851 L 14412,10701"/>
 <path fill="none" stroke="rgb(0,0,0)" stroke-linejoin="round" d="M 14412,10851 L 14412,10701"/>
 <path fill="none" stroke="rgb(0,0,0)" stroke-linejoin="round" d="M 14550,10851 L 14550,10701"/>
 <path fill="none" stroke="rgb(0,0,0)" stroke-linejoin="round" d="M 14550,10851 L 14550,10701"/>
 <path fill="none" stroke="rgb(0,0,0)" stroke-linejoin="round" d="M 14687,10851 L 14687,10701"/>
 <path fill="none" stroke="rgb(0,0,0)" stroke-linejoin="round" d="M 14687,10851 L 14687,10701"/>
 <path fill="none" stroke="rgb(0,0,0)" stroke-linejoin="round" d="M 1321,10701 L 14687,10701"/>
 <path fill="none" stroke="rgb(0,0,0)" stroke-linejoin="round" d="M 1171,10701 L 1321,10701"/>
 <path fill="none" stroke="rgb(0,0,0)" stroke-linejoin="round" d="M 1171,10701 L 1321,10701"/>
 <path fill="none" stroke="rgb(0,0,0)" stroke-linejoin="round" d="M 1171,9740 L 1321,9740"/>
 <path fill="none" stroke="rgb(0,0,0)" stroke-linejoin="round" d="M 1171,9740 L 1321,9740"/>
 <path fill="none" stroke="rgb(0,0,0)" stroke-linejoin="round" d="M 1171,8779 L 1321,8779"/>
 <path fill="none" stroke="rgb(0,0,0)" stroke-linejoin="round" d="M 1171,8779 L 1321,8779"/>
 <path fill="none" stroke="rgb(0,0,0)" stroke-linejoin="round" d="M 1171,7818 L 1321,7818"/>
 <path fill="none" stroke="rgb(0,0,0)" stroke-linejoin="round" d="M 1171,7818 L 1321,7818"/>
 <path fill="none" stroke="rgb(0,0,0)" stroke-linejoin="round" d="M 1171,6857 L 1321,6857"/>
 <path fill="none" stroke="rgb(0,0,0)" stroke-linejoin="round" d="M 1171,6857 L 1321,6857"/>
 <path fill="none" stroke="rgb(0,0,0)" stroke-linejoin="round" d="M 1171,5898 L 1321,5898"/>
 <path fill="none" stroke="rgb(0,0,0)" stroke-linejoin="round" d="M 1171,5898 L 1321,5898"/>
 <path fill="none" stroke="rgb(0,0,0)" stroke-linejoin="round" d="M 1171,4937 L 1321,4937"/>
 <path fill="none" stroke="rgb(0,0,0)" stroke-linejoin="round" d="M 1171,4937 L 1321,4937"/>
 <path fill="none" stroke="rgb(0,0,0)" stroke-linejoin="round" d="M 1171,3976 L 1321,3976"/>
 <path fill="none" stroke="rgb(0,0,0)" stroke-linejoin="round" d="M 1171,3976 L 1321,3976"/>
 <path fill="none" stroke="rgb(0,0,0)" stroke-linejoin="round" d="M 1171,3015 L 1321,3015"/>
 <path fill="none" stroke="rgb(0,0,0)" stroke-linejoin="round" d="M 1171,3015 L 1321,3015"/>
 <path fill="none" stroke="rgb(0,0,0)" stroke-linejoin="round" d="M 1171,2054 L 1321,2054"/>
 <path fill="none" stroke="rgb(0,0,0)" stroke-linejoin="round" d="M 1171,2054 L 1321,2054"/>
 <path fill="none" stroke="rgb(0,0,0)" stroke-linejoin="round" d="M 1171,1094 L 1321,1094"/>
 <path fill="none" stroke="rgb(0,0,0)" stroke-linejoin="round" d="M 1171,1094 L 1321,1094"/>
 <path fill="none" stroke="rgb(0,0,0)" stroke-linejoin="round" d="M 1321,10701 L 1321,1094"/>
 <path fill="none" stroke="rgb(0,0,0)" stroke-linejoin="round" d="M 14837,10701 L 14687,10701"/>
 <path fill="none" stroke="rgb(0,0,0)" stroke-linejoin="round" d="M 14837,10701 L 14687,10701"/>
 <path fill="none" stroke="rgb(0,0,0)" stroke-linejoin="round" d="M 14837,9740 L 14687,9740"/>
 <path fill="none" stroke="rgb(0,0,0)" stroke-linejoin="round" d="M 14837,9740 L 14687,9740"/>
 <path fill="none" stroke="rgb(0,0,0)" stroke-linejoin="round" d="M 14837,8779 L 14687,8779"/>
 <path fill="none" stroke="rgb(0,0,0)" stroke-linejoin="round" d="M 14837,8779 L 14687,8779"/>
 <path fill="none" stroke="rgb(0,0,0)" stroke-linejoin="round" d="M 14837,7818 L 14687,7818"/>
 <path fill="none" stroke="rgb(0,0,0)" stroke-linejoin="round" d="M 14837,7818 L 14687,7818"/>
 <path fill="none" stroke="rgb(0,0,0)" stroke-linejoin="round" d="M 14837,6857 L 14687,6857"/>
 <path fill="none" stroke="rgb(0,0,0)" stroke-linejoin="round" d="M 14837,6857 L 14687,6857"/>
 <path fill="none" stroke="rgb(0,0,0)" stroke-linejoin="round" d="M 14837,5898 L 14687,5898"/>
 <path fill="none" stroke="rgb(0,0,0)" stroke-linejoin="round" d="M 14837,5898 L 14687,5898"/>
 <path fill="none" stroke="rgb(0,0,0)" stroke-linejoin="round" d="M 14837,4937 L 14687,4937"/>
 <path fill="none" stroke="rgb(0,0,0)" stroke-linejoin="round" d="M 14837,4937 L 14687,4937"/>
 <path fill="none" stroke="rgb(0,0,0)" stroke-linejoin="round" d="M 14837,3976 L 14687,3976"/>
 <path fill="none" stroke="rgb(0,0,0)" stroke-linejoin="round" d="M 14837,3976 L 14687,3976"/>
 <path fill="none" stroke="rgb(0,0,0)" stroke-linejoin="round" d="M 14837,3015 L 14687,3015"/>
 <path fill="none" stroke="rgb(0,0,0)" stroke-linejoin="round" d="M 14837,3015 L 14687,3015"/>
 <path fill="none" stroke="rgb(0,0,0)" stroke-linejoin="round" d="M 14837,2054 L 14687,2054"/>
 <path fill="none" stroke="rgb(0,0,0)" stroke-linejoin="round" d="M 14837,2054 L 14687,2054"/>
 <path fill="none" stroke="rgb(0,0,0)" stroke-linejoin="round" d="M 14837,1094 L 14687,1094"/>
 <path fill="none" stroke="rgb(0,0,0)" stroke-linejoin="round" d="M 14837,1094 L 14687,1094"/>
 <path fill="none" stroke="rgb(0,0,0)" stroke-linejoin="round" d="M 14687,10701 L 14687,1094"/>
 <path fill="rgb(0,71,255)" stroke="none" d="M 1321,1203 L 1458,1212 1596,1222 1734,1251 1872,1267 2010,1272 2147,1290 2285,1300 2423,1313 2561,1313 2699,1348 2836,1360 2974,1384 3112,1384 3250,1401 3388,1450 3526,1486 3663,1496 3801,1497 3939,1549 4077,1582 4215,1610 4352,1657 4490,1747 4628,1704 4766,1654 4904,1774 5041,1863 5179,1974 5317,1815 5455,1813 5593,1820 5731,1866 5868,1906 6006,1982 6144,2003 6282,1979 6420,2115 6557,2125 6695,2172 6833,2270 6971,2423 7109,2290 7247,2192 7384,2220 7522,2248 7660,2347 7798,2454 7936,2236 8072,2336 8210,2421 8348,2438 8486,2630 8624,2760 8761,2642 8899,2733 9037,2858 9175,2858 9313,2795 9451,2881 9588,2797 9726,2680 9864,2765 10002,2832 10140,2759 10277,3112 10415,2935 10553,2956 10691,3288 10829,2961 10967,3055 11104,3149 11242,3031 11380,3340 11518,3444 11656,3271 11793,3496 11931,3658 12069,3655 12207,3963 12345,4204 12482,4176 12620,3778 12758,3804 12896,3905 13034,4252 13172,3945 13309,3971 13447,4190 13585,4125 13723,4260 13861,4686 13998,4616 14136,4248 14274,4441 14412,4173 14550,4525 14687,4745 14687,10701 1321,10701 1321,1203 Z"/>
 <path fill="none" stroke="rgb(0,0,0)" stroke-width="20" stroke-linejoin="round" d="M 1321,1203 L 1458,1212 1596,1222 1734,1251 1872,1267 2010,1272 2147,1290 2285,1300 2423,1313 2561,1313 2699,1348 2836,1360 2974,1384 3112,1384 3250,1401 3388,1450 3526,1486 3663,1496 3801,1497 3939,1549 4077,1582 4215,1610 4352,1657 4490,1747 4628,1704 4766,1654 4904,1774 5041,1863 5179,1974 5317,1815 5455,1813 5593,1820 5731,1866 5868,1906 6006,1982 6144,2003 6282,1979 6420,2115 6557,2125 6695,2172 6833,2270 6971,2423 7109,2290 7247,2192 7384,2220 7522,2248 7660,2347 7798,2454 7936,2236 8072,2336 8210,2421 8348,2438 8486,2630 8624,2760 8761,2642 8899,2733 9037,2858 9175,2858 9313,2795 9451,2881 9588,2797 9726,2680 9864,2765 10002,2832 10140,2759 10277,3112 10415,2935 10553,2956 10691,3288 10829,2961 10967,3055 11104,3149 11242,3031 11380,3340 11518,3444 11656,3271 11793,3496 11931,3658 12069,3655 12207,3963 12345,4204 12482,4176 12620,3778 12758,3804 12896,3905 13034,4252 13172,3945 13309,3971 13447,4190 13585,4125 13723,4260 13861,4686 13998,4616 14136,4248 14274,4441 14412,4173 14550,4525 14687,4745 14687,10701 1321,10701 1321,1203 Z"/>
 <path fill="rgb(174,207,0)" stroke="none" d="M 1321,1110 L 1458,1110 1596,1108 1734,1113 1872,1114 2010,1114 2147,1116 2285,1117 2423,1118 2561,1118 2699,1117 2836,1113 2974,1115 3112,1111 3250,1118 3388,1119 3526,1122 3663,1123 3801,1120 3939,1123 4077,1121 4215,1128 4352,1129 4490,1135 4628,1129 4766,1124 4904,1127 5041,1126 5179,1131 5317,1119 5455,1121 5593,1118 5731,1120 5868,1120 6006,1119 6144,1121 6282,1120 6420,1126 6557,1124 6695,1131 6833,1138 6971,1159 7109,1138 7247,1141 7384,1147 7522,1152 7660,1153 7798,1165 7936,1152 8072,1158 8210,1156 8348,1157 8486,1172 8624,1187 8761,1167 8899,1175 9037,1131 9175,1131 9313,1132 9451,1136 9588,1130 9726,1126 9864,1127 10002,1133 10140,1183 10277,1178 10415,1172 10553,1170 10691,1164 10829,1152 10967,1144 11104,1130 11242,1122 11380,1128 11518,1134 11656,1133 11793,1147 11931,1162 12069,1167 12207,1171 12345,1186 12482,1168 12620,1163 12758,1143 12896,1150 13034,1161 13172,1161 13309,1152 13447,1175 13585,1165 13723,1170 13861,1167 13998,1159 14136,1159 14274,1140 14412,1120 14550,1120 14687,1123 14687,4745 14550,4525 14412,4173 14274,4441 14136,4248 13998,4616 13861,4686 13723,4260 13585,4125 13447,4190 13309,3971 13172,3945 13034,4252 12896,3905 12758,3804 12620,3778 12482,4176 12345,4204 12207,3963 12069,3655 11931,3658 11793,3496 11656,3271 11518,3444 11380,3340 11242,3031 11104,3149 10967,3055 10829,2961 10691,3288 10553,2956 10415,2935 10277,3112 10140,2759 10002,2832 9864,2765 9726,2680 9588,2797 9451,2881 9313,2795 9175,2858 9037,2858 8899,2733 8761,2642 8624,2760 8486,2630 8348,2438 8210,2421 8072,2336 7936,2236 7798,2454 7660,2347 7522,2248 7384,2220 7247,2192 7109,2290 6971,2423 6833,2270 6695,2172 6557,2125 6420,2115 6282,1979 6144,2003 6006,1982 5868,1906 5731,1866 5593,1820 5455,1813 5317,1815 5179,1974 5041,1863 4904,1774 4766,1654 4628,1704 4490,1747 4352,1657 4215,1610 4077,1582 3939,1549 3801,1497 3663,1496 3526,1486 3388,1450 3250,1401 3112,1384 2974,1384 2836,1360 2699,1348 2561,1313 2423,1313 2285,1300 2147,1290 2010,1272 1872,1267 1734,1251 1596,1222 1458,1212 1321,1203 1321,1110 Z"/>
 <path fill="none" stroke="rgb(0,0,0)" stroke-width="20" stroke-linejoin="round" d="M 1321,1110 L 1458,1110 1596,1108 1734,1113 1872,1114 2010,1114 2147,1116 2285,1117 2423,1118 2561,1118 2699,1117 2836,1113 2974,1115 3112,1111 3250,1118 3388,1119 3526,1122 3663,1123 3801,1120 3939,1123 4077,1121 4215,1128 4352,1129 4490,1135 4628,1129 4766,1124 4904,1127 5041,1126 5179,1131 5317,1119 5455,1121 5593,1118 5731,1120 5868,1120 6006,1119 6144,1121 6282,1120 6420,1126 6557,1124 6695,1131 6833,1138 6971,1159 7109,1138 7247,1141 7384,1147 7522,1152 7660,1153 7798,1165 7936,1152 8072,1158 8210,1156 8348,1157 8486,1172 8624,1187 8761,1167 8899,1175 9037,1131 9175,1131 9313,1132 9451,1136 9588,1130 9726,1126 9864,1127 10002,1133 10140,1183 10277,1178 10415,1172 10553,1170 10691,1164 10829,1152 10967,1144 11104,1130 11242,1122 11380,1128 11518,1134 11656,1133 11793,1147 11931,1162 12069,1167 12207,1171 12345,1186 12482,1168 12620,1163 12758,1143 12896,1150 13034,1161 13172,1161 13309,1152 13447,1175 13585,1165 13723,1170 13861,1167 13998,1159 14136,1159 14274,1140 14412,1120 14550,1120 14687,1123 14687,4745 14550,4525 14412,4173 14274,4441 14136,4248 13998,4616 13861,4686 13723,4260 13585,4125 13447,4190 13309,3971 13172,3945 13034,4252 12896,3905 12758,3804 12620,3778 12482,4176 12345,4204 12207,3963 12069,3655 11931,3658 11793,3496 11656,3271 11518,3444 11380,3340 11242,3031 11104,3149 10967,3055 10829,2961 10691,3288 10553,2956 10415,2935 10277,3112 10140,2759 10002,2832 9864,2765 9726,2680 9588,2797 9451,2881 9313,2795 9175,2858 9037,2858 8899,2733 8761,2642 8624,2760 8486,2630 8348,2438 8210,2421 8072,2336 7936,2236 7798,2454 7660,2347 7522,2248 7384,2220 7247,2192 7109,2290 6971,2423 6833,2270 6695,2172 6557,2125 6420,2115 6282,1979 6144,2003 6006,1982 5868,1906 5731,1866 5593,1820 5455,1813 5317,1815 5179,1974 5041,1863 4904,1774 4766,1654 4628,1704 4490,1747 4352,1657 4215,1610 4077,1582 3939,1549 3801,1497 3663,1496 3526,1486 3388,1450 3250,1401 3112,1384 2974,1384 2836,1360 2699,1348 2561,1313 2423,1313 2285,1300 2147,1290 2010,1272 1872,1267 1734,1251 1596,1222 1458,1212 1321,1203 1321,1110 Z"/>
 <text class="TextShape"><tspan class="TextParagraph" font-family="Arial, sans-serif" font-size="388px" font-weight="400"><tspan class="TextPosition" x="1448" y="11295"><tspan fill="rgb(0,0,0)" stroke="none">2010</tspan></tspan></tspan></text>
 <text class="TextShape"><tspan class="TextParagraph" font-family="Arial, sans-serif" font-size="388px" font-weight="400"><tspan class="TextPosition" x="3102" y="11295"><tspan fill="rgb(0,0,0)" stroke="none">2011</tspan></tspan></tspan></text>
 <text class="TextShape"><tspan class="TextParagraph" font-family="Arial, sans-serif" font-size="388px" font-weight="400"><tspan class="TextPosition" x="4755" y="11295"><tspan fill="rgb(0,0,0)" stroke="none">2012</tspan></tspan></tspan></text>
 <text class="TextShape"><tspan class="TextParagraph" font-family="Arial, sans-serif" font-size="388px" font-weight="400"><tspan class="TextPosition" x="6409" y="11295"><tspan fill="rgb(0,0,0)" stroke="none">2013</tspan></tspan></tspan></text>
 <text class="TextShape"><tspan class="TextParagraph" font-family="Arial, sans-serif" font-size="388px" font-weight="400"><tspan class="TextPosition" x="8063" y="11295"><tspan fill="rgb(0,0,0)" stroke="none">2014</tspan></tspan></tspan></text>
 <text class="TextShape"><tspan class="TextParagraph" font-family="Arial, sans-serif" font-size="388px" font-weight="400"><tspan class="TextPosition" x="9854" y="11295"><tspan fill="rgb(0,0,0)" stroke="none">2015</tspan></tspan></tspan></text>
 <text class="TextShape"><tspan class="TextParagraph" font-family="Arial, sans-serif" font-size="388px" font-weight="400"><tspan class="TextPosition" x="11508" y="11295"><tspan fill="rgb(0,0,0)" stroke="none">2016</tspan></tspan></tspan></text>
 <text class="TextShape"><tspan class="TextParagraph" font-family="Arial, sans-serif" font-size="388px" font-weight="400"><tspan class="TextPosition" x="13162" y="11295"><tspan fill="rgb(0,0,0)" stroke="none">2017</tspan></tspan></tspan></text>
 <text class="TextShape"><tspan class="TextParagraph" font-family="Arial, sans-serif" font-size="388px" font-weight="400"><tspan class="TextPosition" x="515" y="10835"><tspan fill="rgb(0,0,0)" stroke="none">0%</tspan></tspan></tspan></text>
 <text class="TextShape"><tspan class="TextParagraph" font-family="Arial, sans-serif" font-size="388px" font-weight="400"><tspan class="TextPosition" x="304" y="9874"><tspan fill="rgb(0,0,0)" stroke="none">10%</tspan></tspan></tspan></text>
 <text class="TextShape"><tspan class="TextParagraph" font-family="Arial, sans-serif" font-size="388px" font-weight="400"><tspan class="TextPosition" x="304" y="8913"><tspan fill="rgb(0,0,0)" stroke="none">20%</tspan></tspan></tspan></text>
 <text class="TextShape"><tspan class="TextParagraph" font-family="Arial, sans-serif" font-size="388px" font-weight="400"><tspan class="TextPosition" x="304" y="7952"><tspan fill="rgb(0,0,0)" stroke="none">30%</tspan></tspan></tspan></text>
 <text class="TextShape"><tspan class="TextParagraph" font-family="Arial, sans-serif" font-size="388px" font-weight="400"><tspan class="TextPosition" x="304" y="6991"><tspan fill="rgb(0,0,0)" stroke="none">40%</tspan></tspan></tspan></text>
 <text class="TextShape"><tspan class="TextParagraph" font-family="Arial, sans-serif" font-size="388px" font-weight="400"><tspan class="TextPosition" x="304" y="6031"><tspan fill="rgb(0,0,0)" stroke="none">50%</tspan></tspan></tspan></text>
 <text class="TextShape"><tspan class="TextParagraph" font-family="Arial, sans-serif" font-size="388px" font-weight="400"><tspan class="TextPosition" x="304" y="5070"><tspan fill="rgb(0,0,0)" stroke="none">60%</tspan></tspan></tspan></text>
 <text class="TextShape"><tspan class="TextParagraph" font-family="Arial, sans-serif" font-size="388px" font-weight="400"><tspan class="TextPosition" x="304" y="4109"><tspan fill="rgb(0,0,0)" stroke="none">70%</tspan></tspan></tspan></text>
 <text class="TextShape"><tspan class="TextParagraph" font-family="Arial, sans-serif" font-size="388px" font-weight="400"><tspan class="TextPosition" x="304" y="3148"><tspan fill="rgb(0,0,0)" stroke="none">80%</tspan></tspan></tspan></text>
 <text class="TextShape"><tspan class="TextParagraph" font-family="Arial, sans-serif" font-size="388px" font-weight="400"><tspan class="TextPosition" x="304" y="2187"><tspan fill="rgb(0,0,0)" stroke="none">90%</tspan></tspan></tspan></text>
 <text class="TextShape"><tspan class="TextParagraph" font-family="Arial, sans-serif" font-size="388px" font-weight="400"><tspan class="TextPosition" x="92" y="1227"><tspan fill="rgb(0,0,0)" stroke="none">100%</tspan></tspan></tspan></text>
 <text class="TextShape"><tspan class="TextParagraph" font-family="Arial, sans-serif" font-size="388px" font-weight="400"><tspan class="TextPosition" x="14937" y="10835"><tspan fill="rgb(0,0,0)" stroke="none">0%</tspan></tspan></tspan></text>
 <text class="TextShape"><tspan class="TextParagraph" font-family="Arial, sans-serif" font-size="388px" font-weight="400"><tspan class="TextPosition" x="14937" y="9874"><tspan fill="rgb(0,0,0)" stroke="none">10%</tspan></tspan></tspan></text>
 <text class="TextShape"><tspan class="TextParagraph" font-family="Arial, sans-serif" font-size="388px" font-weight="400"><tspan class="TextPosition" x="14937" y="8913"><tspan fill="rgb(0,0,0)" stroke="none">20%</tspan></tspan></tspan></text>
 <text class="TextShape"><tspan class="TextParagraph" font-family="Arial, sans-serif" font-size="388px" font-weight="400"><tspan class="TextPosition" x="14937" y="7952"><tspan fill="rgb(0,0,0)" stroke="none">30%</tspan></tspan></tspan></text>
 <text class="TextShape"><tspan class="TextParagraph" font-family="Arial, sans-serif" font-size="388px" font-weight="400"><tspan class="TextPosition" x="14937" y="6991"><tspan fill="rgb(0,0,0)" stroke="none">40%</tspan></tspan></tspan></text>
 <text class="TextShape"><tspan class="TextParagraph" font-family="Arial, sans-serif" font-size="388px" font-weight="400"><tspan class="TextPosition" x="14937" y="6031"><tspan fill="rgb(0,0,0)" stroke="none">50%</tspan></tspan></tspan></text>
 <text class="TextShape"><tspan class="TextParagraph" font-family="Arial, sans-serif" font-size="388px" font-weight="400"><tspan class="TextPosition" x="14937" y="5070"><tspan fill="rgb(0,0,0)" stroke="none">60%</tspan></tspan></tspan></text>
 <text class="TextShape"><tspan class="TextParagraph" font-family="Arial, sans-serif" font-size="388px" font-weight="400"><tspan class="TextPosition" x="14937" y="4109"><tspan fill="rgb(0,0,0)" stroke="none">70%</tspan></tspan></tspan></text>
 <text class="TextShape"><tspan class="TextParagraph" font-family="Arial, sans-serif" font-size="388px" font-weight="400"><tspan class="TextPosition" x="14937" y="3148"><tspan fill="rgb(0,0,0)" stroke="none">80%</tspan></tspan></tspan></text>
 <text class="TextShape"><tspan class="TextParagraph" font-family="Arial, sans-serif" font-size="388px" font-weight="400"><tspan class="TextPosition" x="14937" y="2187"><tspan fill="rgb(0,0,0)" stroke="none">90%</tspan></tspan></tspan></text>
 <text class="TextShape"><tspan class="TextParagraph" font-family="Arial, sans-serif" font-size="388px" font-weight="400"><tspan class="TextPosition" x="14937" y="1227"><tspan fill="rgb(0,0,0)" stroke="none">100%</tspan></tspan></tspan></text>
 <text class="TextShape"><tspan class="TextParagraph" font-family="Arial, sans-serif" font-size="564px" font-weight="400"><tspan class="TextPosition" x="1776" y="674"><tspan fill="rgb(0,0,0)" stroke="none">Tipo de dispositivo con el que se accede a la web</tspan></tspan></tspan></text>
 <path fill="rgb(0,71,255)" stroke="none" d="M 8509,11713 L 8393,11713 8393,11481 8625,11481 8625,11713 8509,11713 Z"/>
 <path fill="none" stroke="rgb(0,0,0)" stroke-linejoin="round" d="M 8509,11713 L 8393,11713 8393,11481 8625,11481 8625,11713 8509,11713 Z"/>
 <path fill="rgb(174,207,0)" stroke="none" d="M 5748,11713 L 5632,11713 5632,11481 5864,11481 5864,11713 5748,11713 Z"/>
 <path fill="none" stroke="rgb(0,0,0)" stroke-linejoin="round" d="M 5748,11713 L 5632,11713 5632,11481 5864,11481 5864,11713 5748,11713 Z"/>
 <text class="TextShape"><tspan class="TextParagraph" font-family="Arial, sans-serif" font-size="388px" font-weight="400"><tspan class="TextPosition" x="5964" y="11729"><tspan fill="rgb(0,0,0)" stroke="none">Móvil / Tablet</tspan></tspan></tspan></text>
 <text class="TextShape"><tspan class="TextParagraph" font-family="Arial, sans-serif" font-size="388px" font-weight="400"><tspan class="TextPosition" x="8725" y="11729"><tspan fill="rgb(0,0,0)" stroke="none">Escritorio</tspan></tspan></tspan></text>
</svg>
