<?xml version="1.0" encoding="UTF-8"?>
<!DOCTYPE svg PUBLIC "-//W3C//DTD SVG 1.1//EN" "http://www.w3.org/Graphics/SVG/1.1/DTD/svg11.dtd">
<svg width="160mm" height="120mm" viewBox="0 0 16000 12000" version="1.1" xmlns="http://www.w3.org/2000/svg" stroke-width="28.222" stroke-linejoin="round" xml:space="preserve">
 <path fill="rgb(255,255,255)" stroke="none" d="M 8000,12002 L 0,12002 0,0 16000,0 16000,12002 8000,12002 Z"/>
 <path fill="none" stroke="rgb(179,179,179)" stroke-linejoin="round" d="M 8025,10551 L 1363,10551 1363,1093 14688,1093 14688,10551 8025,10551 Z"/>
 <path fill="none" stroke="rgb(0,0,0)" stroke-linejoin="round" d="M 14688,10550 L 1363,10550"/>
 <path fill="none" stroke="rgb(0,0,0)" stroke-linejoin="round" d="M 14688,9604 L 1363,9604"/>
 <path fill="none" stroke="rgb(0,0,0)" stroke-linejoin="round" d="M 14688,8658 L 1363,8658"/>
 <path fill="none" stroke="rgb(0,0,0)" stroke-linejoin="round" d="M 14688,7712 L 1363,7712"/>
 <path fill="none" stroke="rgb(0,0,0)" stroke-linejoin="round" d="M 14688,6766 L 1363,6766"/>
 <path fill="none" stroke="rgb(0,0,0)" stroke-linejoin="round" d="M 14688,5821 L 1363,5821"/>
 <path fill="none" stroke="rgb(0,0,0)" stroke-linejoin="round" d="M 14688,4875 L 1363,4875"/>
 <path fill="none" stroke="rgb(0,0,0)" stroke-linejoin="round" d="M 14688,3929 L 1363,3929"/>
 <path fill="none" stroke="rgb(0,0,0)" stroke-linejoin="round" d="M 14688,2983 L 1363,2983"/>
 <path fill="none" stroke="rgb(0,0,0)" stroke-linejoin="round" d="M 14688,2037 L 1363,2037"/>
 <path fill="none" stroke="rgb(0,0,0)" stroke-linejoin="round" d="M 14688,1092 L 1363,1092"/>
 <path fill="none" stroke="rgb(0,0,0)" stroke-linejoin="round" d="M 1363,10700 L 1363,10550"/>
 <path fill="none" stroke="rgb(0,0,0)" stroke-linejoin="round" d="M 1363,10700 L 1363,10550"/>
 <path fill="none" stroke="rgb(0,0,0)" stroke-linejoin="round" d="M 1475,10700 L 1475,10550"/>
 <path fill="none" stroke="rgb(0,0,0)" stroke-linejoin="round" d="M 1475,10700 L 1475,10550"/>
 <path fill="none" stroke="rgb(0,0,0)" stroke-linejoin="round" d="M 1588,10700 L 1588,10550"/>
 <path fill="none" stroke="rgb(0,0,0)" stroke-linejoin="round" d="M 1588,10700 L 1588,10550"/>
 <path fill="none" stroke="rgb(0,0,0)" stroke-linejoin="round" d="M 1701,10700 L 1701,10550"/>
 <path fill="none" stroke="rgb(0,0,0)" stroke-linejoin="round" d="M 1701,10700 L 1701,10550"/>
 <path fill="none" stroke="rgb(0,0,0)" stroke-linejoin="round" d="M 1814,10700 L 1814,10550"/>
 <path fill="none" stroke="rgb(0,0,0)" stroke-linejoin="round" d="M 1814,10700 L 1814,10550"/>
 <path fill="none" stroke="rgb(0,0,0)" stroke-linejoin="round" d="M 1927,10700 L 1927,10550"/>
 <path fill="none" stroke="rgb(0,0,0)" stroke-linejoin="round" d="M 1927,10700 L 1927,10550"/>
 <path fill="none" stroke="rgb(0,0,0)" stroke-linejoin="round" d="M 2040,10700 L 2040,10550"/>
 <path fill="none" stroke="rgb(0,0,0)" stroke-linejoin="round" d="M 2040,10700 L 2040,10550"/>
 <path fill="none" stroke="rgb(0,0,0)" stroke-linejoin="round" d="M 2153,10700 L 2153,10550"/>
 <path fill="none" stroke="rgb(0,0,0)" stroke-linejoin="round" d="M 2153,10700 L 2153,10550"/>
 <path fill="none" stroke="rgb(0,0,0)" stroke-linejoin="round" d="M 2266,10700 L 2266,10550"/>
 <path fill="none" stroke="rgb(0,0,0)" stroke-linejoin="round" d="M 2266,10700 L 2266,10550"/>
 <path fill="none" stroke="rgb(0,0,0)" stroke-linejoin="round" d="M 2379,10700 L 2379,10550"/>
 <path fill="none" stroke="rgb(0,0,0)" stroke-linejoin="round" d="M 2379,10700 L 2379,10550"/>
 <path fill="none" stroke="rgb(0,0,0)" stroke-linejoin="round" d="M 2492,10700 L 2492,10550"/>
 <path fill="none" stroke="rgb(0,0,0)" stroke-linejoin="round" d="M 2492,10700 L 2492,10550"/>
 <path fill="none" stroke="rgb(0,0,0)" stroke-linejoin="round" d="M 2605,10700 L 2605,10550"/>
 <path fill="none" stroke="rgb(0,0,0)" stroke-linejoin="round" d="M 2605,10700 L 2605,10550"/>
 <path fill="none" stroke="rgb(0,0,0)" stroke-linejoin="round" d="M 2718,10700 L 2718,10550"/>
 <path fill="none" stroke="rgb(0,0,0)" stroke-linejoin="round" d="M 2718,10700 L 2718,10550"/>
 <path fill="none" stroke="rgb(0,0,0)" stroke-linejoin="round" d="M 2831,10700 L 2831,10550"/>
 <path fill="none" stroke="rgb(0,0,0)" stroke-linejoin="round" d="M 2831,10700 L 2831,10550"/>
 <path fill="none" stroke="rgb(0,0,0)" stroke-linejoin="round" d="M 2944,10700 L 2944,10550"/>
 <path fill="none" stroke="rgb(0,0,0)" stroke-linejoin="round" d="M 2944,10700 L 2944,10550"/>
 <path fill="none" stroke="rgb(0,0,0)" stroke-linejoin="round" d="M 3056,10700 L 3056,10550"/>
 <path fill="none" stroke="rgb(0,0,0)" stroke-linejoin="round" d="M 3056,10700 L 3056,10550"/>
 <path fill="none" stroke="rgb(0,0,0)" stroke-linejoin="round" d="M 3169,10700 L 3169,10550"/>
 <path fill="none" stroke="rgb(0,0,0)" stroke-linejoin="round" d="M 3169,10700 L 3169,10550"/>
 <path fill="none" stroke="rgb(0,0,0)" stroke-linejoin="round" d="M 3282,10700 L 3282,10550"/>
 <path fill="none" stroke="rgb(0,0,0)" stroke-linejoin="round" d="M 3282,10700 L 3282,10550"/>
 <path fill="none" stroke="rgb(0,0,0)" stroke-linejoin="round" d="M 3395,10700 L 3395,10550"/>
 <path fill="none" stroke="rgb(0,0,0)" stroke-linejoin="round" d="M 3395,10700 L 3395,10550"/>
 <path fill="none" stroke="rgb(0,0,0)" stroke-linejoin="round" d="M 3508,10700 L 3508,10550"/>
 <path fill="none" stroke="rgb(0,0,0)" stroke-linejoin="round" d="M 3508,10700 L 3508,10550"/>
 <path fill="none" stroke="rgb(0,0,0)" stroke-linejoin="round" d="M 3621,10700 L 3621,10550"/>
 <path fill="none" stroke="rgb(0,0,0)" stroke-linejoin="round" d="M 3621,10700 L 3621,10550"/>
 <path fill="none" stroke="rgb(0,0,0)" stroke-linejoin="round" d="M 3734,10700 L 3734,10550"/>
 <path fill="none" stroke="rgb(0,0,0)" stroke-linejoin="round" d="M 3734,10700 L 3734,10550"/>
 <path fill="none" stroke="rgb(0,0,0)" stroke-linejoin="round" d="M 3847,10700 L 3847,10550"/>
 <path fill="none" stroke="rgb(0,0,0)" stroke-linejoin="round" d="M 3847,10700 L 3847,10550"/>
 <path fill="none" stroke="rgb(0,0,0)" stroke-linejoin="round" d="M 3960,10700 L 3960,10550"/>
 <path fill="none" stroke="rgb(0,0,0)" stroke-linejoin="round" d="M 3960,10700 L 3960,10550"/>
 <path fill="none" stroke="rgb(0,0,0)" stroke-linejoin="round" d="M 4073,10700 L 4073,10550"/>
 <path fill="none" stroke="rgb(0,0,0)" stroke-linejoin="round" d="M 4073,10700 L 4073,10550"/>
 <path fill="none" stroke="rgb(0,0,0)" stroke-linejoin="round" d="M 4186,10700 L 4186,10550"/>
 <path fill="none" stroke="rgb(0,0,0)" stroke-linejoin="round" d="M 4186,10700 L 4186,10550"/>
 <path fill="none" stroke="rgb(0,0,0)" stroke-linejoin="round" d="M 4299,10700 L 4299,10550"/>
 <path fill="none" stroke="rgb(0,0,0)" stroke-linejoin="round" d="M 4299,10700 L 4299,10550"/>
 <path fill="none" stroke="rgb(0,0,0)" stroke-linejoin="round" d="M 4412,10700 L 4412,10550"/>
 <path fill="none" stroke="rgb(0,0,0)" stroke-linejoin="round" d="M 4412,10700 L 4412,10550"/>
 <path fill="none" stroke="rgb(0,0,0)" stroke-linejoin="round" d="M 4525,10700 L 4525,10550"/>
 <path fill="none" stroke="rgb(0,0,0)" stroke-linejoin="round" d="M 4525,10700 L 4525,10550"/>
 <path fill="none" stroke="rgb(0,0,0)" stroke-linejoin="round" d="M 4638,10700 L 4638,10550"/>
 <path fill="none" stroke="rgb(0,0,0)" stroke-linejoin="round" d="M 4638,10700 L 4638,10550"/>
 <path fill="none" stroke="rgb(0,0,0)" stroke-linejoin="round" d="M 4750,10700 L 4750,10550"/>
 <path fill="none" stroke="rgb(0,0,0)" stroke-linejoin="round" d="M 4750,10700 L 4750,10550"/>
 <path fill="none" stroke="rgb(0,0,0)" stroke-linejoin="round" d="M 4863,10700 L 4863,10550"/>
 <path fill="none" stroke="rgb(0,0,0)" stroke-linejoin="round" d="M 4863,10700 L 4863,10550"/>
 <path fill="none" stroke="rgb(0,0,0)" stroke-linejoin="round" d="M 4976,10700 L 4976,10550"/>
 <path fill="none" stroke="rgb(0,0,0)" stroke-linejoin="round" d="M 4976,10700 L 4976,10550"/>
 <path fill="none" stroke="rgb(0,0,0)" stroke-linejoin="round" d="M 5089,10700 L 5089,10550"/>
 <path fill="none" stroke="rgb(0,0,0)" stroke-linejoin="round" d="M 5089,10700 L 5089,10550"/>
 <path fill="none" stroke="rgb(0,0,0)" stroke-linejoin="round" d="M 5202,10700 L 5202,10550"/>
 <path fill="none" stroke="rgb(0,0,0)" stroke-linejoin="round" d="M 5202,10700 L 5202,10550"/>
 <path fill="none" stroke="rgb(0,0,0)" stroke-linejoin="round" d="M 5315,10700 L 5315,10550"/>
 <path fill="none" stroke="rgb(0,0,0)" stroke-linejoin="round" d="M 5315,10700 L 5315,10550"/>
 <path fill="none" stroke="rgb(0,0,0)" stroke-linejoin="round" d="M 5428,10700 L 5428,10550"/>
 <path fill="none" stroke="rgb(0,0,0)" stroke-linejoin="round" d="M 5428,10700 L 5428,10550"/>
 <path fill="none" stroke="rgb(0,0,0)" stroke-linejoin="round" d="M 5541,10700 L 5541,10550"/>
 <path fill="none" stroke="rgb(0,0,0)" stroke-linejoin="round" d="M 5541,10700 L 5541,10550"/>
 <path fill="none" stroke="rgb(0,0,0)" stroke-linejoin="round" d="M 5654,10700 L 5654,10550"/>
 <path fill="none" stroke="rgb(0,0,0)" stroke-linejoin="round" d="M 5654,10700 L 5654,10550"/>
 <path fill="none" stroke="rgb(0,0,0)" stroke-linejoin="round" d="M 5767,10700 L 5767,10550"/>
 <path fill="none" stroke="rgb(0,0,0)" stroke-linejoin="round" d="M 5767,10700 L 5767,10550"/>
 <path fill="none" stroke="rgb(0,0,0)" stroke-linejoin="round" d="M 5880,10700 L 5880,10550"/>
 <path fill="none" stroke="rgb(0,0,0)" stroke-linejoin="round" d="M 5880,10700 L 5880,10550"/>
 <path fill="none" stroke="rgb(0,0,0)" stroke-linejoin="round" d="M 5993,10700 L 5993,10550"/>
 <path fill="none" stroke="rgb(0,0,0)" stroke-linejoin="round" d="M 5993,10700 L 5993,10550"/>
 <path fill="none" stroke="rgb(0,0,0)" stroke-linejoin="round" d="M 6106,10700 L 6106,10550"/>
 <path fill="none" stroke="rgb(0,0,0)" stroke-linejoin="round" d="M 6106,10700 L 6106,10550"/>
 <path fill="none" stroke="rgb(0,0,0)" stroke-linejoin="round" d="M 6219,10700 L 6219,10550"/>
 <path fill="none" stroke="rgb(0,0,0)" stroke-linejoin="round" d="M 6219,10700 L 6219,10550"/>
 <path fill="none" stroke="rgb(0,0,0)" stroke-linejoin="round" d="M 6332,10700 L 6332,10550"/>
 <path fill="none" stroke="rgb(0,0,0)" stroke-linejoin="round" d="M 6332,10700 L 6332,10550"/>
 <path fill="none" stroke="rgb(0,0,0)" stroke-linejoin="round" d="M 6444,10700 L 6444,10550"/>
 <path fill="none" stroke="rgb(0,0,0)" stroke-linejoin="round" d="M 6444,10700 L 6444,10550"/>
 <path fill="none" stroke="rgb(0,0,0)" stroke-linejoin="round" d="M 6557,10700 L 6557,10550"/>
 <path fill="none" stroke="rgb(0,0,0)" stroke-linejoin="round" d="M 6557,10700 L 6557,10550"/>
 <path fill="none" stroke="rgb(0,0,0)" stroke-linejoin="round" d="M 6670,10700 L 6670,10550"/>
 <path fill="none" stroke="rgb(0,0,0)" stroke-linejoin="round" d="M 6670,10700 L 6670,10550"/>
 <path fill="none" stroke="rgb(0,0,0)" stroke-linejoin="round" d="M 6783,10700 L 6783,10550"/>
 <path fill="none" stroke="rgb(0,0,0)" stroke-linejoin="round" d="M 6783,10700 L 6783,10550"/>
 <path fill="none" stroke="rgb(0,0,0)" stroke-linejoin="round" d="M 6896,10700 L 6896,10550"/>
 <path fill="none" stroke="rgb(0,0,0)" stroke-linejoin="round" d="M 6896,10700 L 6896,10550"/>
 <path fill="none" stroke="rgb(0,0,0)" stroke-linejoin="round" d="M 7009,10700 L 7009,10550"/>
 <path fill="none" stroke="rgb(0,0,0)" stroke-linejoin="round" d="M 7009,10700 L 7009,10550"/>
 <path fill="none" stroke="rgb(0,0,0)" stroke-linejoin="round" d="M 7122,10700 L 7122,10550"/>
 <path fill="none" stroke="rgb(0,0,0)" stroke-linejoin="round" d="M 7122,10700 L 7122,10550"/>
 <path fill="none" stroke="rgb(0,0,0)" stroke-linejoin="round" d="M 7235,10700 L 7235,10550"/>
 <path fill="none" stroke="rgb(0,0,0)" stroke-linejoin="round" d="M 7235,10700 L 7235,10550"/>
 <path fill="none" stroke="rgb(0,0,0)" stroke-linejoin="round" d="M 7348,10700 L 7348,10550"/>
 <path fill="none" stroke="rgb(0,0,0)" stroke-linejoin="round" d="M 7348,10700 L 7348,10550"/>
 <path fill="none" stroke="rgb(0,0,0)" stroke-linejoin="round" d="M 7461,10700 L 7461,10550"/>
 <path fill="none" stroke="rgb(0,0,0)" stroke-linejoin="round" d="M 7461,10700 L 7461,10550"/>
 <path fill="none" stroke="rgb(0,0,0)" stroke-linejoin="round" d="M 7574,10700 L 7574,10550"/>
 <path fill="none" stroke="rgb(0,0,0)" stroke-linejoin="round" d="M 7574,10700 L 7574,10550"/>
 <path fill="none" stroke="rgb(0,0,0)" stroke-linejoin="round" d="M 7687,10700 L 7687,10550"/>
 <path fill="none" stroke="rgb(0,0,0)" stroke-linejoin="round" d="M 7687,10700 L 7687,10550"/>
 <path fill="none" stroke="rgb(0,0,0)" stroke-linejoin="round" d="M 7800,10700 L 7800,10550"/>
 <path fill="none" stroke="rgb(0,0,0)" stroke-linejoin="round" d="M 7800,10700 L 7800,10550"/>
 <path fill="none" stroke="rgb(0,0,0)" stroke-linejoin="round" d="M 7913,10700 L 7913,10550"/>
 <path fill="none" stroke="rgb(0,0,0)" stroke-linejoin="round" d="M 7913,10700 L 7913,10550"/>
 <path fill="none" stroke="rgb(0,0,0)" stroke-linejoin="round" d="M 8025,10700 L 8025,10550"/>
 <path fill="none" stroke="rgb(0,0,0)" stroke-linejoin="round" d="M 8025,10700 L 8025,10550"/>
 <path fill="none" stroke="rgb(0,0,0)" stroke-linejoin="round" d="M 8137,10700 L 8137,10550"/>
 <path fill="none" stroke="rgb(0,0,0)" stroke-linejoin="round" d="M 8137,10700 L 8137,10550"/>
 <path fill="none" stroke="rgb(0,0,0)" stroke-linejoin="round" d="M 8250,10700 L 8250,10550"/>
 <path fill="none" stroke="rgb(0,0,0)" stroke-linejoin="round" d="M 8250,10700 L 8250,10550"/>
 <path fill="none" stroke="rgb(0,0,0)" stroke-linejoin="round" d="M 8363,10700 L 8363,10550"/>
 <path fill="none" stroke="rgb(0,0,0)" stroke-linejoin="round" d="M 8363,10700 L 8363,10550"/>
 <path fill="none" stroke="rgb(0,0,0)" stroke-linejoin="round" d="M 8476,10700 L 8476,10550"/>
 <path fill="none" stroke="rgb(0,0,0)" stroke-linejoin="round" d="M 8476,10700 L 8476,10550"/>
 <path fill="none" stroke="rgb(0,0,0)" stroke-linejoin="round" d="M 8589,10700 L 8589,10550"/>
 <path fill="none" stroke="rgb(0,0,0)" stroke-linejoin="round" d="M 8589,10700 L 8589,10550"/>
 <path fill="none" stroke="rgb(0,0,0)" stroke-linejoin="round" d="M 8702,10700 L 8702,10550"/>
 <path fill="none" stroke="rgb(0,0,0)" stroke-linejoin="round" d="M 8702,10700 L 8702,10550"/>
 <path fill="none" stroke="rgb(0,0,0)" stroke-linejoin="round" d="M 8815,10700 L 8815,10550"/>
 <path fill="none" stroke="rgb(0,0,0)" stroke-linejoin="round" d="M 8815,10700 L 8815,10550"/>
 <path fill="none" stroke="rgb(0,0,0)" stroke-linejoin="round" d="M 8928,10700 L 8928,10550"/>
 <path fill="none" stroke="rgb(0,0,0)" stroke-linejoin="round" d="M 8928,10700 L 8928,10550"/>
 <path fill="none" stroke="rgb(0,0,0)" stroke-linejoin="round" d="M 9041,10700 L 9041,10550"/>
 <path fill="none" stroke="rgb(0,0,0)" stroke-linejoin="round" d="M 9041,10700 L 9041,10550"/>
 <path fill="none" stroke="rgb(0,0,0)" stroke-linejoin="round" d="M 9154,10700 L 9154,10550"/>
 <path fill="none" stroke="rgb(0,0,0)" stroke-linejoin="round" d="M 9154,10700 L 9154,10550"/>
 <path fill="none" stroke="rgb(0,0,0)" stroke-linejoin="round" d="M 9267,10700 L 9267,10550"/>
 <path fill="none" stroke="rgb(0,0,0)" stroke-linejoin="round" d="M 9267,10700 L 9267,10550"/>
 <path fill="none" stroke="rgb(0,0,0)" stroke-linejoin="round" d="M 9380,10700 L 9380,10550"/>
 <path fill="none" stroke="rgb(0,0,0)" stroke-linejoin="round" d="M 9380,10700 L 9380,10550"/>
 <path fill="none" stroke="rgb(0,0,0)" stroke-linejoin="round" d="M 9493,10700 L 9493,10550"/>
 <path fill="none" stroke="rgb(0,0,0)" stroke-linejoin="round" d="M 9493,10700 L 9493,10550"/>
 <path fill="none" stroke="rgb(0,0,0)" stroke-linejoin="round" d="M 9606,10700 L 9606,10550"/>
 <path fill="none" stroke="rgb(0,0,0)" stroke-linejoin="round" d="M 9606,10700 L 9606,10550"/>
 <path fill="none" stroke="rgb(0,0,0)" stroke-linejoin="round" d="M 9718,10700 L 9718,10550"/>
 <path fill="none" stroke="rgb(0,0,0)" stroke-linejoin="round" d="M 9718,10700 L 9718,10550"/>
 <path fill="none" stroke="rgb(0,0,0)" stroke-linejoin="round" d="M 9831,10700 L 9831,10550"/>
 <path fill="none" stroke="rgb(0,0,0)" stroke-linejoin="round" d="M 9831,10700 L 9831,10550"/>
 <path fill="none" stroke="rgb(0,0,0)" stroke-linejoin="round" d="M 9944,10700 L 9944,10550"/>
 <path fill="none" stroke="rgb(0,0,0)" stroke-linejoin="round" d="M 9944,10700 L 9944,10550"/>
 <path fill="none" stroke="rgb(0,0,0)" stroke-linejoin="round" d="M 10057,10700 L 10057,10550"/>
 <path fill="none" stroke="rgb(0,0,0)" stroke-linejoin="round" d="M 10057,10700 L 10057,10550"/>
 <path fill="none" stroke="rgb(0,0,0)" stroke-linejoin="round" d="M 10170,10700 L 10170,10550"/>
 <path fill="none" stroke="rgb(0,0,0)" stroke-linejoin="round" d="M 10170,10700 L 10170,10550"/>
 <path fill="none" stroke="rgb(0,0,0)" stroke-linejoin="round" d="M 10283,10700 L 10283,10550"/>
 <path fill="none" stroke="rgb(0,0,0)" stroke-linejoin="round" d="M 10283,10700 L 10283,10550"/>
 <path fill="none" stroke="rgb(0,0,0)" stroke-linejoin="round" d="M 10396,10700 L 10396,10550"/>
 <path fill="none" stroke="rgb(0,0,0)" stroke-linejoin="round" d="M 10396,10700 L 10396,10550"/>
 <path fill="none" stroke="rgb(0,0,0)" stroke-linejoin="round" d="M 10509,10700 L 10509,10550"/>
 <path fill="none" stroke="rgb(0,0,0)" stroke-linejoin="round" d="M 10509,10700 L 10509,10550"/>
 <path fill="none" stroke="rgb(0,0,0)" stroke-linejoin="round" d="M 10622,10700 L 10622,10550"/>
 <path fill="none" stroke="rgb(0,0,0)" stroke-linejoin="round" d="M 10622,10700 L 10622,10550"/>
 <path fill="none" stroke="rgb(0,0,0)" stroke-linejoin="round" d="M 10735,10700 L 10735,10550"/>
 <path fill="none" stroke="rgb(0,0,0)" stroke-linejoin="round" d="M 10735,10700 L 10735,10550"/>
 <path fill="none" stroke="rgb(0,0,0)" stroke-linejoin="round" d="M 10848,10700 L 10848,10550"/>
 <path fill="none" stroke="rgb(0,0,0)" stroke-linejoin="round" d="M 10848,10700 L 10848,10550"/>
 <path fill="none" stroke="rgb(0,0,0)" stroke-linejoin="round" d="M 10961,10700 L 10961,10550"/>
 <path fill="none" stroke="rgb(0,0,0)" stroke-linejoin="round" d="M 10961,10700 L 10961,10550"/>
 <path fill="none" stroke="rgb(0,0,0)" stroke-linejoin="round" d="M 11074,10700 L 11074,10550"/>
 <path fill="none" stroke="rgb(0,0,0)" stroke-linejoin="round" d="M 11074,10700 L 11074,10550"/>
 <path fill="none" stroke="rgb(0,0,0)" stroke-linejoin="round" d="M 11187,10700 L 11187,10550"/>
 <path fill="none" stroke="rgb(0,0,0)" stroke-linejoin="round" d="M 11187,10700 L 11187,10550"/>
 <path fill="none" stroke="rgb(0,0,0)" stroke-linejoin="round" d="M 11300,10700 L 11300,10550"/>
 <path fill="none" stroke="rgb(0,0,0)" stroke-linejoin="round" d="M 11300,10700 L 11300,10550"/>
 <path fill="none" stroke="rgb(0,0,0)" stroke-linejoin="round" d="M 11412,10700 L 11412,10550"/>
 <path fill="none" stroke="rgb(0,0,0)" stroke-linejoin="round" d="M 11412,10700 L 11412,10550"/>
 <path fill="none" stroke="rgb(0,0,0)" stroke-linejoin="round" d="M 11525,10700 L 11525,10550"/>
 <path fill="none" stroke="rgb(0,0,0)" stroke-linejoin="round" d="M 11525,10700 L 11525,10550"/>
 <path fill="none" stroke="rgb(0,0,0)" stroke-linejoin="round" d="M 11638,10700 L 11638,10550"/>
 <path fill="none" stroke="rgb(0,0,0)" stroke-linejoin="round" d="M 11638,10700 L 11638,10550"/>
 <path fill="none" stroke="rgb(0,0,0)" stroke-linejoin="round" d="M 11751,10700 L 11751,10550"/>
 <path fill="none" stroke="rgb(0,0,0)" stroke-linejoin="round" d="M 11751,10700 L 11751,10550"/>
 <path fill="none" stroke="rgb(0,0,0)" stroke-linejoin="round" d="M 11864,10700 L 11864,10550"/>
 <path fill="none" stroke="rgb(0,0,0)" stroke-linejoin="round" d="M 11864,10700 L 11864,10550"/>
 <path fill="none" stroke="rgb(0,0,0)" stroke-linejoin="round" d="M 11977,10700 L 11977,10550"/>
 <path fill="none" stroke="rgb(0,0,0)" stroke-linejoin="round" d="M 11977,10700 L 11977,10550"/>
 <path fill="none" stroke="rgb(0,0,0)" stroke-linejoin="round" d="M 12090,10700 L 12090,10550"/>
 <path fill="none" stroke="rgb(0,0,0)" stroke-linejoin="round" d="M 12090,10700 L 12090,10550"/>
 <path fill="none" stroke="rgb(0,0,0)" stroke-linejoin="round" d="M 12203,10700 L 12203,10550"/>
 <path fill="none" stroke="rgb(0,0,0)" stroke-linejoin="round" d="M 12203,10700 L 12203,10550"/>
 <path fill="none" stroke="rgb(0,0,0)" stroke-linejoin="round" d="M 12316,10700 L 12316,10550"/>
 <path fill="none" stroke="rgb(0,0,0)" stroke-linejoin="round" d="M 12316,10700 L 12316,10550"/>
 <path fill="none" stroke="rgb(0,0,0)" stroke-linejoin="round" d="M 12429,10700 L 12429,10550"/>
 <path fill="none" stroke="rgb(0,0,0)" stroke-linejoin="round" d="M 12429,10700 L 12429,10550"/>
 <path fill="none" stroke="rgb(0,0,0)" stroke-linejoin="round" d="M 12542,10700 L 12542,10550"/>
 <path fill="none" stroke="rgb(0,0,0)" stroke-linejoin="round" d="M 12542,10700 L 12542,10550"/>
 <path fill="none" stroke="rgb(0,0,0)" stroke-linejoin="round" d="M 12655,10700 L 12655,10550"/>
 <path fill="none" stroke="rgb(0,0,0)" stroke-linejoin="round" d="M 12655,10700 L 12655,10550"/>
 <path fill="none" stroke="rgb(0,0,0)" stroke-linejoin="round" d="M 12768,10700 L 12768,10550"/>
 <path fill="none" stroke="rgb(0,0,0)" stroke-linejoin="round" d="M 12768,10700 L 12768,10550"/>
 <path fill="none" stroke="rgb(0,0,0)" stroke-linejoin="round" d="M 12881,10700 L 12881,10550"/>
 <path fill="none" stroke="rgb(0,0,0)" stroke-linejoin="round" d="M 12881,10700 L 12881,10550"/>
 <path fill="none" stroke="rgb(0,0,0)" stroke-linejoin="round" d="M 12994,10700 L 12994,10550"/>
 <path fill="none" stroke="rgb(0,0,0)" stroke-linejoin="round" d="M 12994,10700 L 12994,10550"/>
 <path fill="none" stroke="rgb(0,0,0)" stroke-linejoin="round" d="M 13106,10700 L 13106,10550"/>
 <path fill="none" stroke="rgb(0,0,0)" stroke-linejoin="round" d="M 13106,10700 L 13106,10550"/>
 <path fill="none" stroke="rgb(0,0,0)" stroke-linejoin="round" d="M 13219,10700 L 13219,10550"/>
 <path fill="none" stroke="rgb(0,0,0)" stroke-linejoin="round" d="M 13219,10700 L 13219,10550"/>
 <path fill="none" stroke="rgb(0,0,0)" stroke-linejoin="round" d="M 13332,10700 L 13332,10550"/>
 <path fill="none" stroke="rgb(0,0,0)" stroke-linejoin="round" d="M 13332,10700 L 13332,10550"/>
 <path fill="none" stroke="rgb(0,0,0)" stroke-linejoin="round" d="M 13445,10700 L 13445,10550"/>
 <path fill="none" stroke="rgb(0,0,0)" stroke-linejoin="round" d="M 13445,10700 L 13445,10550"/>
 <path fill="none" stroke="rgb(0,0,0)" stroke-linejoin="round" d="M 13558,10700 L 13558,10550"/>
 <path fill="none" stroke="rgb(0,0,0)" stroke-linejoin="round" d="M 13558,10700 L 13558,10550"/>
 <path fill="none" stroke="rgb(0,0,0)" stroke-linejoin="round" d="M 13671,10700 L 13671,10550"/>
 <path fill="none" stroke="rgb(0,0,0)" stroke-linejoin="round" d="M 13671,10700 L 13671,10550"/>
 <path fill="none" stroke="rgb(0,0,0)" stroke-linejoin="round" d="M 13784,10700 L 13784,10550"/>
 <path fill="none" stroke="rgb(0,0,0)" stroke-linejoin="round" d="M 13784,10700 L 13784,10550"/>
 <path fill="none" stroke="rgb(0,0,0)" stroke-linejoin="round" d="M 13897,10700 L 13897,10550"/>
 <path fill="none" stroke="rgb(0,0,0)" stroke-linejoin="round" d="M 13897,10700 L 13897,10550"/>
 <path fill="none" stroke="rgb(0,0,0)" stroke-linejoin="round" d="M 14010,10700 L 14010,10550"/>
 <path fill="none" stroke="rgb(0,0,0)" stroke-linejoin="round" d="M 14010,10700 L 14010,10550"/>
 <path fill="none" stroke="rgb(0,0,0)" stroke-linejoin="round" d="M 14123,10700 L 14123,10550"/>
 <path fill="none" stroke="rgb(0,0,0)" stroke-linejoin="round" d="M 14123,10700 L 14123,10550"/>
 <path fill="none" stroke="rgb(0,0,0)" stroke-linejoin="round" d="M 14236,10700 L 14236,10550"/>
 <path fill="none" stroke="rgb(0,0,0)" stroke-linejoin="round" d="M 14236,10700 L 14236,10550"/>
 <path fill="none" stroke="rgb(0,0,0)" stroke-linejoin="round" d="M 14349,10700 L 14349,10550"/>
 <path fill="none" stroke="rgb(0,0,0)" stroke-linejoin="round" d="M 14349,10700 L 14349,10550"/>
 <path fill="none" stroke="rgb(0,0,0)" stroke-linejoin="round" d="M 14462,10700 L 14462,10550"/>
 <path fill="none" stroke="rgb(0,0,0)" stroke-linejoin="round" d="M 14462,10700 L 14462,10550"/>
 <path fill="none" stroke="rgb(0,0,0)" stroke-linejoin="round" d="M 14575,10700 L 14575,10550"/>
 <path fill="none" stroke="rgb(0,0,0)" stroke-linejoin="round" d="M 14575,10700 L 14575,10550"/>
 <path fill="none" stroke="rgb(0,0,0)" stroke-linejoin="round" d="M 14688,10700 L 14688,10550"/>
 <path fill="none" stroke="rgb(0,0,0)" stroke-linejoin="round" d="M 14688,10700 L 14688,10550"/>
 <path fill="none" stroke="rgb(0,0,0)" stroke-linejoin="round" d="M 1363,10550 L 14688,10550"/>
 <path fill="none" stroke="rgb(0,0,0)" stroke-linejoin="round" d="M 1213,10550 L 1363,10550"/>
 <path fill="none" stroke="rgb(0,0,0)" stroke-linejoin="round" d="M 1213,10550 L 1363,10550"/>
 <path fill="none" stroke="rgb(0,0,0)" stroke-linejoin="round" d="M 1213,9604 L 1363,9604"/>
 <path fill="none" stroke="rgb(0,0,0)" stroke-linejoin="round" d="M 1213,9604 L 1363,9604"/>
 <path fill="none" stroke="rgb(0,0,0)" stroke-linejoin="round" d="M 1213,8658 L 1363,8658"/>
 <path fill="none" stroke="rgb(0,0,0)" stroke-linejoin="round" d="M 1213,8658 L 1363,8658"/>
 <path fill="none" stroke="rgb(0,0,0)" stroke-linejoin="round" d="M 1213,7712 L 1363,7712"/>
 <path fill="none" stroke="rgb(0,0,0)" stroke-linejoin="round" d="M 1213,7712 L 1363,7712"/>
 <path fill="none" stroke="rgb(0,0,0)" stroke-linejoin="round" d="M 1213,6766 L 1363,6766"/>
 <path fill="none" stroke="rgb(0,0,0)" stroke-linejoin="round" d="M 1213,6766 L 1363,6766"/>
 <path fill="none" stroke="rgb(0,0,0)" stroke-linejoin="round" d="M 1213,5821 L 1363,5821"/>
 <path fill="none" stroke="rgb(0,0,0)" stroke-linejoin="round" d="M 1213,5821 L 1363,5821"/>
 <path fill="none" stroke="rgb(0,0,0)" stroke-linejoin="round" d="M 1213,4875 L 1363,4875"/>
 <path fill="none" stroke="rgb(0,0,0)" stroke-linejoin="round" d="M 1213,4875 L 1363,4875"/>
 <path fill="none" stroke="rgb(0,0,0)" stroke-linejoin="round" d="M 1213,3929 L 1363,3929"/>
 <path fill="none" stroke="rgb(0,0,0)" stroke-linejoin="round" d="M 1213,3929 L 1363,3929"/>
 <path fill="none" stroke="rgb(0,0,0)" stroke-linejoin="round" d="M 1213,2983 L 1363,2983"/>
 <path fill="none" stroke="rgb(0,0,0)" stroke-linejoin="round" d="M 1213,2983 L 1363,2983"/>
 <path fill="none" stroke="rgb(0,0,0)" stroke-linejoin="round" d="M 1213,2037 L 1363,2037"/>
 <path fill="none" stroke="rgb(0,0,0)" stroke-linejoin="round" d="M 1213,2037 L 1363,2037"/>
 <path fill="none" stroke="rgb(0,0,0)" stroke-linejoin="round" d="M 1213,1092 L 1363,1092"/>
 <path fill="none" stroke="rgb(0,0,0)" stroke-linejoin="round" d="M 1213,1092 L 1363,1092"/>
 <path fill="none" stroke="rgb(0,0,0)" stroke-linejoin="round" d="M 1363,10550 L 1363,1092"/>
 <path fill="none" stroke="rgb(0,0,0)" stroke-linejoin="round" d="M 14838,10550 L 14688,10550"/>
 <path fill="none" stroke="rgb(0,0,0)" stroke-linejoin="round" d="M 14838,10550 L 14688,10550"/>
 <path fill="none" stroke="rgb(0,0,0)" stroke-linejoin="round" d="M 14838,9604 L 14688,9604"/>
 <path fill="none" stroke="rgb(0,0,0)" stroke-linejoin="round" d="M 14838,9604 L 14688,9604"/>
 <path fill="none" stroke="rgb(0,0,0)" stroke-linejoin="round" d="M 14838,8658 L 14688,8658"/>
 <path fill="none" stroke="rgb(0,0,0)" stroke-linejoin="round" d="M 14838,8658 L 14688,8658"/>
 <path fill="none" stroke="rgb(0,0,0)" stroke-linejoin="round" d="M 14838,7712 L 14688,7712"/>
 <path fill="none" stroke="rgb(0,0,0)" stroke-linejoin="round" d="M 14838,7712 L 14688,7712"/>
 <path fill="none" stroke="rgb(0,0,0)" stroke-linejoin="round" d="M 14838,6766 L 14688,6766"/>
 <path fill="none" stroke="rgb(0,0,0)" stroke-linejoin="round" d="M 14838,6766 L 14688,6766"/>
 <path fill="none" stroke="rgb(0,0,0)" stroke-linejoin="round" d="M 14838,5821 L 14688,5821"/>
 <path fill="none" stroke="rgb(0,0,0)" stroke-linejoin="round" d="M 14838,5821 L 14688,5821"/>
 <path fill="none" stroke="rgb(0,0,0)" stroke-linejoin="round" d="M 14838,4875 L 14688,4875"/>
 <path fill="none" stroke="rgb(0,0,0)" stroke-linejoin="round" d="M 14838,4875 L 14688,4875"/>
 <path fill="none" stroke="rgb(0,0,0)" stroke-linejoin="round" d="M 14838,3929 L 14688,3929"/>
 <path fill="none" stroke="rgb(0,0,0)" stroke-linejoin="round" d="M 14838,3929 L 14688,3929"/>
 <path fill="none" stroke="rgb(0,0,0)" stroke-linejoin="round" d="M 14838,2983 L 14688,2983"/>
 <path fill="none" stroke="rgb(0,0,0)" stroke-linejoin="round" d="M 14838,2983 L 14688,2983"/>
 <path fill="none" stroke="rgb(0,0,0)" stroke-linejoin="round" d="M 14838,2037 L 14688,2037"/>
 <path fill="none" stroke="rgb(0,0,0)" stroke-linejoin="round" d="M 14838,2037 L 14688,2037"/>
 <path fill="none" stroke="rgb(0,0,0)" stroke-linejoin="round" d="M 14838,1092 L 14688,1092"/>
 <path fill="none" stroke="rgb(0,0,0)" stroke-linejoin="round" d="M 14838,1092 L 14688,1092"/>
 <path fill="none" stroke="rgb(0,0,0)" stroke-linejoin="round" d="M 14688,10550 L 14688,1092"/>
 <path fill="rgb(0,71,255)" stroke="none" d="M 1363,1500 L 1475,1524 1588,1540 1701,1544 1814,1553 1927,1526 2040,1566 2153,1561 2266,1547 2379,1552 2492,1575 2605,1573 2718,1620 2831,1668 2944,1691 3056,1685 3169,1706 3282,1712 3395,1738 3508,1717 3621,1751 3734,1748 3847,1775 3960,1800 4073,1799 4186,1827 4299,1845 4412,1838 4525,1888 4638,1900 4750,1915 4863,1899 4976,1913 5089,1910 5202,1934 5315,1935 5428,1962 5541,2012 5654,2070 5767,2070 5880,2079 5993,2143 6106,2163 6219,2201 6332,2267 6444,2362 6557,2361 6670,2368 6783,2446 6896,2525 7009,2641 7122,2509 7235,2458 7348,2463 7461,2502 7574,2564 7687,2652 7800,2692 7913,2674 8025,2801 8137,2829 8250,2846 8363,2939 8476,3084 8589,2941 8702,2861 8815,2896 8928,2935 9041,3020 9154,3146 9267,2982 9380,3084 9493,3143 9606,3170 9718,3340 9831,3449 9944,3336 10057,3427 10170,3525 10283,3426 10396,3492 10509,3424 10622,3287 10735,3399 10848,3463 10961,3399 11074,3710 11187,3550 11300,3594 11412,3901 11525,3611 11638,3712 11751,3810 11864,3691 11977,3989 12090,4090 12203,3865 12316,4073 12429,4267 12542,4276 12655,4550 12768,4843 12881,4789 12994,4430 13106,4453 13219,4493 13332,4782 13445,4472 13558,4524 13671,4671 13784,4632 13897,4732 14010,5127 14123,5059 14236,4728 14349,4910 14462,4673 14575,5036 14688,5338 14688,10550 1363,10550 1363,1500 Z"/>
 <path fill="none" stroke="rgb(0,0,0)" stroke-width="20" stroke-linejoin="round" d="M 1363,1500 L 1475,1524 1588,1540 1701,1544 1814,1553 1927,1526 2040,1566 2153,1561 2266,1547 2379,1552 2492,1575 2605,1573 2718,1620 2831,1668 2944,1691 3056,1685 3169,1706 3282,1712 3395,1738 3508,1717 3621,1751 3734,1748 3847,1775 3960,1800 4073,1799 4186,1827 4299,1845 4412,1838 4525,1888 4638,1900 4750,1915 4863,1899 4976,1913 5089,1910 5202,1934 5315,1935 5428,1962 5541,2012 5654,2070 5767,2070 5880,2079 5993,2143 6106,2163 6219,2201 6332,2267 6444,2362 6557,2361 6670,2368 6783,2446 6896,2525 7009,2641 7122,2509 7235,2458 7348,2463 7461,2502 7574,2564 7687,2652 7800,2692 7913,2674 8025,2801 8137,2829 8250,2846 8363,2939 8476,3084 8589,2941 8702,2861 8815,2896 8928,2935 9041,3020 9154,3146 9267,2982 9380,3084 9493,3143 9606,3170 9718,3340 9831,3449 9944,3336 10057,3427 10170,3525 10283,3426 10396,3492 10509,3424 10622,3287 10735,3399 10848,3463 10961,3399 11074,3710 11187,3550 11300,3594 11412,3901 11525,3611 11638,3712 11751,3810 11864,3691 11977,3989 12090,4090 12203,3865 12316,4073 12429,4267 12542,4276 12655,4550 12768,4843 12881,4789 12994,4430 13106,4453 13219,4493 13332,4782 13445,4472 13558,4524 13671,4671 13784,4632 13897,4732 14010,5127 14123,5059 14236,4728 14349,4910 14462,4673 14575,5036 14688,5338 14688,10550 1363,10550 1363,1500 Z"/>
 <path fill="rgb(102,102,102)" stroke="none" d="M 1363,1176 L 1475,1184 1588,1187 1701,1193 1814,1196 1927,1199 2040,1212 2153,1212 2266,1213 2379,1216 2492,1221 2605,1214 2718,1230 2831,1247 2944,1246 3056,1255 3169,1263 3282,1273 3395,1291 3508,1273 3621,1292 3734,1287 3847,1292 3960,1302 4073,1316 4186,1344 4299,1359 4412,1365 4525,1384 4638,1397 4750,1418 4863,1411 4976,1434 5089,1437 5202,1461 5315,1467 5428,1488 5541,1538 5654,1575 5767,1581 5880,1584 5993,1635 6106,1662 6219,1697 6332,1741 6444,1831 6557,1790 6670,1750 6783,1879 6896,1972 7009,2093 7122,1904 7235,1886 7348,1892 7461,1942 7574,1983 7687,2054 7800,2082 7913,2059 8025,2196 8137,2213 8250,2253 8363,2351 8476,2499 8589,2366 8702,2274 8815,2306 8928,2335 9041,2429 9154,2555 9267,2354 9380,2448 9493,2527 9606,2556 9718,2731 9831,2849 9944,2735 10057,2829 10170,2955 10283,2903 10396,2981 10509,2899 10622,2783 10735,2848 10848,2900 10961,2836 11074,3179 11187,3022 11300,3039 11412,3364 11525,3051 11638,3145 11751,3240 11864,3123 11977,3430 12090,3518 12203,3354 12316,3575 12429,3735 12542,3737 12655,4035 12768,4254 12881,4241 12994,3872 13106,3919 13219,4000 13332,4343 13445,4044 13558,4078 13671,4282 13784,4223 13897,4339 14010,4755 14123,4685 14236,4324 14349,4533 14462,4286 14575,4675 14688,4970 14688,5338 14575,5036 14462,4673 14349,4910 14236,4728 14123,5059 14010,5127 13897,4732 13784,4632 13671,4671 13558,4524 13445,4472 13332,4782 13219,4493 13106,4453 12994,4430 12881,4789 12768,4843 12655,4550 12542,4276 12429,4267 12316,4073 12203,3865 12090,4090 11977,3989 11864,3691 11751,3810 11638,3712 11525,3611 11412,3901 11300,3594 11187,3550 11074,3710 10961,3399 10848,3463 10735,3399 10622,3287 10509,3424 10396,3492 10283,3426 10170,3525 10057,3427 9944,3336 9831,3449 9718,3340 9606,3170 9493,3143 9380,3084 9267,2982 9154,3146 9041,3020 8928,2935 8815,2896 8702,2861 8589,2941 8476,3084 8363,2939 8250,2846 8137,2829 8025,2801 7913,2674 7800,2692 7687,2652 7574,2564 7461,2502 7348,2463 7235,2458 7122,2509 7009,2641 6896,2525 6783,2446 6670,2368 6557,2361 6444,2362 6332,2267 6219,2201 6106,2163 5993,2143 5880,2079 5767,2070 5654,2070 5541,2012 5428,1962 5315,1935 5202,1934 5089,1910 4976,1913 4863,1899 4750,1915 4638,1900 4525,1888 4412,1838 4299,1845 4186,1827 4073,1799 3960,1800 3847,1775 3734,1748 3621,1751 3508,1717 3395,1738 3282,1712 3169,1706 3056,1685 2944,1691 2831,1668 2718,1620 2605,1573 2492,1575 2379,1552 2266,1547 2153,1561 2040,1566 1927,1526 1814,1553 1701,1544 1588,1540 1475,1524 1363,1500 1363,1176 Z"/>
 <path fill="none" stroke="rgb(0,0,0)" stroke-width="20" stroke-linejoin="round" d="M 1363,1176 L 1475,1184 1588,1187 1701,1193 1814,1196 1927,1199 2040,1212 2153,1212 2266,1213 2379,1216 2492,1221 2605,1214 2718,1230 2831,1247 2944,1246 3056,1255 3169,1263 3282,1273 3395,1291 3508,1273 3621,1292 3734,1287 3847,1292 3960,1302 4073,1316 4186,1344 4299,1359 4412,1365 4525,1384 4638,1397 4750,1418 4863,1411 4976,1434 5089,1437 5202,1461 5315,1467 5428,1488 5541,1538 5654,1575 5767,1581 5880,1584 5993,1635 6106,1662 6219,1697 6332,1741 6444,1831 6557,1790 6670,1750 6783,1879 6896,1972 7009,2093 7122,1904 7235,1886 7348,1892 7461,1942 7574,1983 7687,2054 7800,2082 7913,2059 8025,2196 8137,2213 8250,2253 8363,2351 8476,2499 8589,2366 8702,2274 8815,2306 8928,2335 9041,2429 9154,2555 9267,2354 9380,2448 9493,2527 9606,2556 9718,2731 9831,2849 9944,2735 10057,2829 10170,2955 10283,2903 10396,2981 10509,2899 10622,2783 10735,2848 10848,2900 10961,2836 11074,3179 11187,3022 11300,3039 11412,3364 11525,3051 11638,3145 11751,3240 11864,3123 11977,3430 12090,3518 12203,3354 12316,3575 12429,3735 12542,3737 12655,4035 12768,4254 12881,4241 12994,3872 13106,3919 13219,4000 13332,4343 13445,4044 13558,4078 13671,4282 13784,4223 13897,4339 14010,4755 14123,4685 14236,4324 14349,4533 14462,4286 14575,4675 14688,4970 14688,5338 14575,5036 14462,4673 14349,4910 14236,4728 14123,5059 14010,5127 13897,4732 13784,4632 13671,4671 13558,4524 13445,4472 13332,4782 13219,4493 13106,4453 12994,4430 12881,4789 12768,4843 12655,4550 12542,4276 12429,4267 12316,4073 12203,3865 12090,4090 11977,3989 11864,3691 11751,3810 11638,3712 11525,3611 11412,3901 11300,3594 11187,3550 11074,3710 10961,3399 10848,3463 10735,3399 10622,3287 10509,3424 10396,3492 10283,3426 10170,3525 10057,3427 9944,3336 9831,3449 9718,3340 9606,3170 9493,3143 9380,3084 9267,2982 9154,3146 9041,3020 8928,2935 8815,2896 8702,2861 8589,2941 8476,3084 8363,2939 8250,2846 8137,2829 8025,2801 7913,2674 7800,2692 7687,2652 7574,2564 7461,2502 7348,2463 7235,2458 7122,2509 7009,2641 6896,2525 6783,2446 6670,2368 6557,2361 6444,2362 6332,2267 6219,2201 6106,2163 5993,2143 5880,2079 5767,2070 5654,2070 5541,2012 5428,1962 5315,1935 5202,1934 5089,1910 4976,1913 4863,1899 4750,1915 4638,1900 4525,1888 4412,1838 4299,1845 4186,1827 4073,1799 3960,1800 3847,1775 3734,1748 3621,1751 3508,1717 3395,1738 3282,1712 3169,1706 3056,1685 2944,1691 2831,1668 2718,1620 2605,1573 2492,1575 2379,1552 2266,1547 2153,1561 2040,1566 1927,1526 1814,1553 1701,1544 1588,1540 1475,1524 1363,1500 1363,1176 Z"/>
 <path fill="rgb(220,35,0)" stroke="none" d="M 1363,1114 L 1475,1119 1588,1119 1701,1123 1814,1127 1927,1127 2040,1127 2153,1129 2266,1134 2379,1139 2492,1140 2605,1141 2718,1144 2831,1154 2944,1161 3056,1162 3169,1167 3282,1173 3395,1180 3508,1179 3621,1193 3734,1198 3847,1202 3960,1212 4073,1221 4186,1249 4299,1263 4412,1272 4525,1286 4638,1298 4750,1311 4863,1310 4976,1346 5089,1356 5202,1381 5315,1386 5428,1400 5541,1447 5654,1485 5767,1494 5880,1494 5993,1546 6106,1576 6219,1607 6332,1655 6444,1736 6557,1692 6670,1644 6783,1764 6896,1849 7009,1959 7122,1802 7235,1800 7348,1807 7461,1852 7574,1892 7687,1967 7800,1988 7913,1964 8025,2097 8137,2108 8250,2153 8363,2251 8476,2401 8589,2270 8702,2173 8815,2201 8928,2229 9041,2326 9154,2432 9267,2217 9380,2315 9493,2400 9606,2416 9718,2605 9831,2733 9944,2617 10057,2706 10170,2830 10283,2767 10396,2851 10509,2769 10622,2654 10735,2738 10848,2803 10961,2731 11074,3079 11187,2905 11300,2925 11412,3252 11525,2931 11638,3024 11751,3115 11864,3000 11977,3304 12090,3406 12203,3235 12316,3457 12429,3616 12542,3614 12655,3917 12768,4154 12881,4126 12994,3735 13106,3761 13219,3860 13332,4201 13445,3899 13558,3925 13671,4141 13784,4076 13897,4209 14010,4629 14123,4560 14236,4197 14349,4387 14462,4123 14575,4471 14688,4687 14688,4970 14575,4675 14462,4286 14349,4533 14236,4324 14123,4685 14010,4755 13897,4339 13784,4223 13671,4282 13558,4078 13445,4044 13332,4343 13219,4000 13106,3919 12994,3872 12881,4241 12768,4254 12655,4035 12542,3737 12429,3735 12316,3575 12203,3354 12090,3518 11977,3430 11864,3123 11751,3240 11638,3145 11525,3051 11412,3364 11300,3039 11187,3022 11074,3179 10961,2836 10848,2900 10735,2848 10622,2783 10509,2899 10396,2981 10283,2903 10170,2955 10057,2829 9944,2735 9831,2849 9718,2731 9606,2556 9493,2527 9380,2448 9267,2354 9154,2555 9041,2429 8928,2335 8815,2306 8702,2274 8589,2366 8476,2499 8363,2351 8250,2253 8137,2213 8025,2196 7913,2059 7800,2082 7687,2054 7574,1983 7461,1942 7348,1892 7235,1886 7122,1904 7009,2093 6896,1972 6783,1879 6670,1750 6557,1790 6444,1831 6332,1741 6219,1697 6106,1662 5993,1635 5880,1584 5767,1581 5654,1575 5541,1538 5428,1488 5315,1467 5202,1461 5089,1437 4976,1434 4863,1411 4750,1418 4638,1397 4525,1384 4412,1365 4299,1359 4186,1344 4073,1316 3960,1302 3847,1292 3734,1287 3621,1292 3508,1273 3395,1291 3282,1273 3169,1263 3056,1255 2944,1246 2831,1247 2718,1230 2605,1214 2492,1221 2379,1216 2266,1213 2153,1212 2040,1212 1927,1199 1814,1196 1701,1193 1588,1187 1475,1184 1363,1176 1363,1114 Z"/>
 <path fill="none" stroke="rgb(0,0,0)" stroke-width="20" stroke-linejoin="round" d="M 1363,1114 L 1475,1119 1588,1119 1701,1123 1814,1127 1927,1127 2040,1127 2153,1129 2266,1134 2379,1139 2492,1140 2605,1141 2718,1144 2831,1154 2944,1161 3056,1162 3169,1167 3282,1173 3395,1180 3508,1179 3621,1193 3734,1198 3847,1202 3960,1212 4073,1221 4186,1249 4299,1263 4412,1272 4525,1286 4638,1298 4750,1311 4863,1310 4976,1346 5089,1356 5202,1381 5315,1386 5428,1400 5541,1447 5654,1485 5767,1494 5880,1494 5993,1546 6106,1576 6219,1607 6332,1655 6444,1736 6557,1692 6670,1644 6783,1764 6896,1849 7009,1959 7122,1802 7235,1800 7348,1807 7461,1852 7574,1892 7687,1967 7800,1988 7913,1964 8025,2097 8137,2108 8250,2153 8363,2251 8476,2401 8589,2270 8702,2173 8815,2201 8928,2229 9041,2326 9154,2432 9267,2217 9380,2315 9493,2400 9606,2416 9718,2605 9831,2733 9944,2617 10057,2706 10170,2830 10283,2767 10396,2851 10509,2769 10622,2654 10735,2738 10848,2803 10961,2731 11074,3079 11187,2905 11300,2925 11412,3252 11525,2931 11638,3024 11751,3115 11864,3000 11977,3304 12090,3406 12203,3235 12316,3457 12429,3616 12542,3614 12655,3917 12768,4154 12881,4126 12994,3735 13106,3761 13219,3860 13332,4201 13445,3899 13558,3925 13671,4141 13784,4076 13897,4209 14010,4629 14123,4560 14236,4197 14349,4387 14462,4123 14575,4471 14688,4687 14688,4970 14575,4675 14462,4286 14349,4533 14236,4324 14123,4685 14010,4755 13897,4339 13784,4223 13671,4282 13558,4078 13445,4044 13332,4343 13219,4000 13106,3919 12994,3872 12881,4241 12768,4254 12655,4035 12542,3737 12429,3735 12316,3575 12203,3354 12090,3518 11977,3430 11864,3123 11751,3240 11638,3145 11525,3051 11412,3364 11300,3039 11187,3022 11074,3179 10961,2836 10848,2900 10735,2848 10622,2783 10509,2899 10396,2981 10283,2903 10170,2955 10057,2829 9944,2735 9831,2849 9718,2731 9606,2556 9493,2527 9380,2448 9267,2354 9154,2555 9041,2429 8928,2335 8815,2306 8702,2274 8589,2366 8476,2499 8363,2351 8250,2253 8137,2213 8025,2196 7913,2059 7800,2082 7687,2054 7574,1983 7461,1942 7348,1892 7235,1886 7122,1904 7009,2093 6896,1972 6783,1879 6670,1750 6557,1790 6444,1831 6332,1741 6219,1697 6106,1662 5993,1635 5880,1584 5767,1581 5654,1575 5541,1538 5428,1488 5315,1467 5202,1461 5089,1437 4976,1434 4863,1411 4750,1418 4638,1397 4525,1384 4412,1365 4299,1359 4186,1344 4073,1316 3960,1302 3847,1292 3734,1287 3621,1292 3508,1273 3395,1291 3282,1273 3169,1263 3056,1255 2944,1246 2831,1247 2718,1230 2605,1214 2492,1221 2379,1216 2266,1213 2153,1212 2040,1212 1927,1199 1814,1196 1701,1193 1588,1187 1475,1184 1363,1176 1363,1114 Z"/>
 <path fill="rgb(174,207,0)" stroke="none" d="M 1363,1114 L 1475,1119 1588,1119 1701,1123 1814,1127 1927,1127 2040,1127 2153,1129 2266,1134 2379,1139 2492,1140 2605,1141 2718,1144 2831,1154 2944,1161 3056,1161 3169,1166 3282,1171 3395,1179 3508,1177 3621,1191 3734,1196 3847,1200 3960,1210 4073,1219 4186,1247 4299,1261 4412,1268 4525,1283 4638,1292 4750,1306 4863,1300 4976,1332 5089,1340 5202,1361 5315,1363 5428,1373 5541,1411 5654,1441 5767,1445 5880,1442 5993,1485 6106,1505 6219,1541 6332,1583 6444,1641 6557,1600 6670,1546 6783,1659 6896,1750 7009,1814 7122,1676 7235,1677 7348,1678 7461,1711 7574,1744 7687,1815 7800,1809 7913,1781 8025,1835 8137,1835 8250,1905 8363,1981 8476,2086 8589,1992 8702,1907 8815,1946 8928,1966 9041,2033 9154,2079 9267,1908 9380,1966 9493,1984 9606,1975 9718,2115 9831,2180 9944,2091 10057,2133 10170,2129 10283,2056 10396,2090 10509,2001 10622,1938 10735,2033 10848,2077 10961,2024 11074,2180 11187,2096 11300,2095 11412,2160 11525,2017 11638,2068 11751,2105 11864,2023 11977,2209 12090,2214 12203,2038 12316,2137 12429,2178 12542,2157 12655,2244 12768,2322 12881,2032 12994,2049 13106,2035 13219,2049 13332,2099 13445,2024 13558,2022 13671,2188 13784,2214 13897,2183 14010,2451 14123,2345 14236,2265 14349,2303 14462,2191 14575,2303 14688,2352 14688,4687 14575,4471 14462,4123 14349,4387 14236,4197 14123,4560 14010,4629 13897,4209 13784,4076 13671,4141 13558,3925 13445,3899 13332,4201 13219,3860 13106,3761 12994,3735 12881,4126 12768,4154 12655,3917 12542,3614 12429,3616 12316,3457 12203,3235 12090,3406 11977,3304 11864,3000 11751,3115 11638,3024 11525,2931 11412,3252 11300,2925 11187,2905 11074,3079 10961,2731 10848,2803 10735,2738 10622,2654 10509,2769 10396,2851 10283,2767 10170,2830 10057,2706 9944,2617 9831,2733 9718,2605 9606,2416 9493,2400 9380,2315 9267,2217 9154,2432 9041,2326 8928,2229 8815,2201 8702,2173 8589,2270 8476,2401 8363,2251 8250,2153 8137,2108 8025,2097 7913,1964 7800,1988 7687,1967 7574,1892 7461,1852 7348,1807 7235,1800 7122,1802 7009,1959 6896,1849 6783,1764 6670,1644 6557,1692 6444,1736 6332,1655 6219,1607 6106,1576 5993,1546 5880,1494 5767,1494 5654,1485 5541,1447 5428,1400 5315,1386 5202,1381 5089,1356 4976,1346 4863,1310 4750,1311 4638,1298 4525,1286 4412,1272 4299,1263 4186,1249 4073,1221 3960,1212 3847,1202 3734,1198 3621,1193 3508,1179 3395,1180 3282,1173 3169,1167 3056,1162 2944,1161 2831,1154 2718,1144 2605,1141 2492,1140 2379,1139 2266,1134 2153,1129 2040,1127 1927,1127 1814,1127 1701,1123 1588,1119 1475,1119 1363,1114 Z"/>
 <path fill="none" stroke="rgb(0,0,0)" stroke-width="20" stroke-linejoin="round" d="M 1363,1114 L 1475,1119 1588,1119 1701,1123 1814,1127 1927,1127 2040,1127 2153,1129 2266,1134 2379,1139 2492,1140 2605,1141 2718,1144 2831,1154 2944,1161 3056,1161 3169,1166 3282,1171 3395,1179 3508,1177 3621,1191 3734,1196 3847,1200 3960,1210 4073,1219 4186,1247 4299,1261 4412,1268 4525,1283 4638,1292 4750,1306 4863,1300 4976,1332 5089,1340 5202,1361 5315,1363 5428,1373 5541,1411 5654,1441 5767,1445 5880,1442 5993,1485 6106,1505 6219,1541 6332,1583 6444,1641 6557,1600 6670,1546 6783,1659 6896,1750 7009,1814 7122,1676 7235,1677 7348,1678 7461,1711 7574,1744 7687,1815 7800,1809 7913,1781 8025,1835 8137,1835 8250,1905 8363,1981 8476,2086 8589,1992 8702,1907 8815,1946 8928,1966 9041,2033 9154,2079 9267,1908 9380,1966 9493,1984 9606,1975 9718,2115 9831,2180 9944,2091 10057,2133 10170,2129 10283,2056 10396,2090 10509,2001 10622,1938 10735,2033 10848,2077 10961,2024 11074,2180 11187,2096 11300,2095 11412,2160 11525,2017 11638,2068 11751,2105 11864,2023 11977,2209 12090,2214 12203,2038 12316,2137 12429,2178 12542,2157 12655,2244 12768,2322 12881,2032 12994,2049 13106,2035 13219,2049 13332,2099 13445,2024 13558,2022 13671,2188 13784,2214 13897,2183 14010,2451 14123,2345 14236,2265 14349,2303 14462,2191 14575,2303 14688,2352 14688,4687 14575,4471 14462,4123 14349,4387 14236,4197 14123,4560 14010,4629 13897,4209 13784,4076 13671,4141 13558,3925 13445,3899 13332,4201 13219,3860 13106,3761 12994,3735 12881,4126 12768,4154 12655,3917 12542,3614 12429,3616 12316,3457 12203,3235 12090,3406 11977,3304 11864,3000 11751,3115 11638,3024 11525,2931 11412,3252 11300,2925 11187,2905 11074,3079 10961,2731 10848,2803 10735,2738 10622,2654 10509,2769 10396,2851 10283,2767 10170,2830 10057,2706 9944,2617 9831,2733 9718,2605 9606,2416 9493,2400 9380,2315 9267,2217 9154,2432 9041,2326 8928,2229 8815,2201 8702,2173 8589,2270 8476,2401 8363,2251 8250,2153 8137,2108 8025,2097 7913,1964 7800,1988 7687,1967 7574,1892 7461,1852 7348,1807 7235,1800 7122,1802 7009,1959 6896,1849 6783,1764 6670,1644 6557,1692 6444,1736 6332,1655 6219,1607 6106,1576 5993,1546 5880,1494 5767,1494 5654,1485 5541,1447 5428,1400 5315,1386 5202,1381 5089,1356 4976,1346 4863,1310 4750,1311 4638,1298 4525,1286 4412,1272 4299,1263 4186,1249 4073,1221 3960,1212 3847,1202 3734,1198 3621,1193 3508,1179 3395,1180 3282,1173 3169,1167 3056,1162 2944,1161 2831,1154 2718,1144 2605,1141 2492,1140 2379,1139 2266,1134 2153,1129 2040,1127 1927,1127 1814,1127 1701,1123 1588,1119 1475,1119 1363,1114 Z"/>
 <path fill="rgb(204,204,204)" stroke="none" d="M 1363,1114 L 1475,1119 1588,1119 1701,1123 1814,1127 1927,1127 2040,1127 2153,1129 2266,1134 2379,1139 2492,1140 2605,1141 2718,1144 2831,1154 2944,1161 3056,1161 3169,1166 3282,1171 3395,1179 3508,1177 3621,1191 3734,1196 3847,1200 3960,1210 4073,1219 4186,1247 4299,1261 4412,1268 4525,1283 4638,1289 4750,1299 4863,1284 4976,1310 5089,1315 5202,1333 5315,1331 5428,1336 5541,1362 5654,1377 5767,1383 5880,1376 5993,1407 6106,1418 6219,1443 6332,1465 6444,1505 6557,1464 6670,1396 6783,1502 6896,1595 7009,1615 7122,1470 7235,1475 7348,1445 7461,1466 7574,1460 7687,1526 7800,1476 7913,1470 8025,1513 8137,1466 8250,1531 8363,1568 8476,1668 8589,1563 8702,1548 8815,1581 8928,1596 9041,1621 9154,1682 9267,1581 9380,1589 9493,1578 9606,1581 9718,1651 9831,1717 9944,1662 10057,1699 10170,1685 10283,1661 10396,1702 10509,1615 10622,1590 10735,1686 10848,1673 10961,1698 11074,1786 11187,1750 11300,1757 11412,1792 11525,1705 11638,1732 11751,1735 11864,1689 11977,1810 12090,1830 12203,1725 12316,1770 12429,1817 12542,1823 12655,1890 12768,1968 12881,1751 12994,1766 13106,1742 13219,1832 13332,1886 13445,1821 13558,1822 13671,1949 13784,1948 13897,1940 14010,2137 14123,1996 14236,1989 14349,2007 14462,1925 14575,2001 14688,2023 14688,2352 14575,2303 14462,2191 14349,2303 14236,2265 14123,2345 14010,2451 13897,2183 13784,2214 13671,2188 13558,2022 13445,2024 13332,2099 13219,2049 13106,2035 12994,2049 12881,2032 12768,2322 12655,2244 12542,2157 12429,2178 12316,2137 12203,2038 12090,2214 11977,2209 11864,2023 11751,2105 11638,2068 11525,2017 11412,2160 11300,2095 11187,2096 11074,2180 10961,2024 10848,2077 10735,2033 10622,1938 10509,2001 10396,2090 10283,2056 10170,2129 10057,2133 9944,2091 9831,2180 9718,2115 9606,1975 9493,1984 9380,1966 9267,1908 9154,2079 9041,2033 8928,1966 8815,1946 8702,1907 8589,1992 8476,2086 8363,1981 8250,1905 8137,1835 8025,1835 7913,1781 7800,1809 7687,1815 7574,1744 7461,1711 7348,1678 7235,1677 7122,1676 7009,1814 6896,1750 6783,1659 6670,1546 6557,1600 6444,1641 6332,1583 6219,1541 6106,1505 5993,1485 5880,1442 5767,1445 5654,1441 5541,1411 5428,1373 5315,1363 5202,1361 5089,1340 4976,1332 4863,1300 4750,1306 4638,1292 4525,1283 4412,1268 4299,1261 4186,1247 4073,1219 3960,1210 3847,1200 3734,1196 3621,1191 3508,1177 3395,1179 3282,1171 3169,1166 3056,1161 2944,1161 2831,1154 2718,1144 2605,1141 2492,1140 2379,1139 2266,1134 2153,1129 2040,1127 1927,1127 1814,1127 1701,1123 1588,1119 1475,1119 1363,1114 Z"/>
 <path fill="none" stroke="rgb(0,0,0)" stroke-width="20" stroke-linejoin="round" d="M 1363,1114 L 1475,1119 1588,1119 1701,1123 1814,1127 1927,1127 2040,1127 2153,1129 2266,1134 2379,1139 2492,1140 2605,1141 2718,1144 2831,1154 2944,1161 3056,1161 3169,1166 3282,1171 3395,1179 3508,1177 3621,1191 3734,1196 3847,1200 3960,1210 4073,1219 4186,1247 4299,1261 4412,1268 4525,1283 4638,1289 4750,1299 4863,1284 4976,1310 5089,1315 5202,1333 5315,1331 5428,1336 5541,1362 5654,1377 5767,1383 5880,1376 5993,1407 6106,1418 6219,1443 6332,1465 6444,1505 6557,1464 6670,1396 6783,1502 6896,1595 7009,1615 7122,1470 7235,1475 7348,1445 7461,1466 7574,1460 7687,1526 7800,1476 7913,1470 8025,1513 8137,1466 8250,1531 8363,1568 8476,1668 8589,1563 8702,1548 8815,1581 8928,1596 9041,1621 9154,1682 9267,1581 9380,1589 9493,1578 9606,1581 9718,1651 9831,1717 9944,1662 10057,1699 10170,1685 10283,1661 10396,1702 10509,1615 10622,1590 10735,1686 10848,1673 10961,1698 11074,1786 11187,1750 11300,1757 11412,1792 11525,1705 11638,1732 11751,1735 11864,1689 11977,1810 12090,1830 12203,1725 12316,1770 12429,1817 12542,1823 12655,1890 12768,1968 12881,1751 12994,1766 13106,1742 13219,1832 13332,1886 13445,1821 13558,1822 13671,1949 13784,1948 13897,1940 14010,2137 14123,1996 14236,1989 14349,2007 14462,1925 14575,2001 14688,2023 14688,2352 14575,2303 14462,2191 14349,2303 14236,2265 14123,2345 14010,2451 13897,2183 13784,2214 13671,2188 13558,2022 13445,2024 13332,2099 13219,2049 13106,2035 12994,2049 12881,2032 12768,2322 12655,2244 12542,2157 12429,2178 12316,2137 12203,2038 12090,2214 11977,2209 11864,2023 11751,2105 11638,2068 11525,2017 11412,2160 11300,2095 11187,2096 11074,2180 10961,2024 10848,2077 10735,2033 10622,1938 10509,2001 10396,2090 10283,2056 10170,2129 10057,2133 9944,2091 9831,2180 9718,2115 9606,1975 9493,1984 9380,1966 9267,1908 9154,2079 9041,2033 8928,1966 8815,1946 8702,1907 8589,1992 8476,2086 8363,1981 8250,1905 8137,1835 8025,1835 7913,1781 7800,1809 7687,1815 7574,1744 7461,1711 7348,1678 7235,1677 7122,1676 7009,1814 6896,1750 6783,1659 6670,1546 6557,1600 6444,1641 6332,1583 6219,1541 6106,1505 5993,1485 5880,1442 5767,1445 5654,1441 5541,1411 5428,1373 5315,1363 5202,1361 5089,1340 4976,1332 4863,1300 4750,1306 4638,1292 4525,1283 4412,1268 4299,1261 4186,1247 4073,1219 3960,1210 3847,1200 3734,1196 3621,1191 3508,1177 3395,1179 3282,1171 3169,1166 3056,1161 2944,1161 2831,1154 2718,1144 2605,1141 2492,1140 2379,1139 2266,1134 2153,1129 2040,1127 1927,1127 1814,1127 1701,1123 1588,1119 1475,1119 1363,1114 Z"/>
 <path fill="rgb(153,153,153)" stroke="none" d="M 1363,1110 L 1475,1114 1588,1114 1701,1117 1814,1122 1927,1122 2040,1121 2153,1124 2266,1126 2379,1126 2492,1126 2605,1127 2718,1129 2831,1137 2944,1142 3056,1144 3169,1147 3282,1150 3395,1156 3508,1151 3621,1162 3734,1165 3847,1167 3960,1175 4073,1185 4186,1206 4299,1216 4412,1221 4525,1234 4638,1239 4750,1242 4863,1228 4976,1244 5089,1246 5202,1262 5315,1256 5428,1256 5541,1266 5654,1265 5767,1288 5880,1280 5993,1291 6106,1295 6219,1310 6332,1317 6444,1340 6557,1308 6670,1240 6783,1332 6896,1435 7009,1388 7122,1278 7235,1285 7348,1256 7461,1266 7574,1252 7687,1320 7800,1252 7913,1256 8025,1266 8137,1244 8250,1300 8363,1318 8476,1414 8589,1305 8702,1305 8815,1327 8928,1353 9041,1357 9154,1392 9267,1342 9380,1331 9493,1304 9606,1299 9718,1342 9831,1369 9944,1325 10057,1357 10170,1315 10283,1316 10396,1338 10509,1246 10622,1273 10735,1361 10848,1322 10961,1359 11074,1375 11187,1362 11300,1361 11412,1353 11525,1326 11638,1304 11751,1284 11864,1261 11977,1329 12090,1303 12203,1307 12316,1321 12429,1372 12542,1369 12655,1375 12768,1474 12881,1351 12994,1350 13106,1308 13219,1314 13332,1340 13445,1319 13558,1311 13671,1314 13784,1282 13897,1287 14010,1296 14123,1289 14236,1262 14349,1235 14462,1198 14575,1201 14688,1203 14688,2023 14575,2001 14462,1925 14349,2007 14236,1989 14123,1996 14010,2137 13897,1940 13784,1948 13671,1949 13558,1822 13445,1821 13332,1886 13219,1832 13106,1742 12994,1766 12881,1751 12768,1968 12655,1890 12542,1823 12429,1817 12316,1770 12203,1725 12090,1830 11977,1810 11864,1689 11751,1735 11638,1732 11525,1705 11412,1792 11300,1757 11187,1750 11074,1786 10961,1698 10848,1673 10735,1686 10622,1590 10509,1615 10396,1702 10283,1661 10170,1685 10057,1699 9944,1662 9831,1717 9718,1651 9606,1581 9493,1578 9380,1589 9267,1581 9154,1682 9041,1621 8928,1596 8815,1581 8702,1548 8589,1563 8476,1668 8363,1568 8250,1531 8137,1466 8025,1513 7913,1470 7800,1476 7687,1526 7574,1460 7461,1466 7348,1445 7235,1475 7122,1470 7009,1615 6896,1595 6783,1502 6670,1396 6557,1464 6444,1505 6332,1465 6219,1443 6106,1418 5993,1407 5880,1376 5767,1383 5654,1377 5541,1362 5428,1336 5315,1331 5202,1333 5089,1315 4976,1310 4863,1284 4750,1299 4638,1289 4525,1283 4412,1268 4299,1261 4186,1247 4073,1219 3960,1210 3847,1200 3734,1196 3621,1191 3508,1177 3395,1179 3282,1171 3169,1166 3056,1161 2944,1161 2831,1154 2718,1144 2605,1141 2492,1140 2379,1139 2266,1134 2153,1129 2040,1127 1927,1127 1814,1127 1701,1123 1588,1119 1475,1119 1363,1114 1363,1110 Z"/>
 <path fill="none" stroke="rgb(0,0,0)" stroke-width="20" stroke-linejoin="round" d="M 1363,1110 L 1475,1114 1588,1114 1701,1117 1814,1122 1927,1122 2040,1121 2153,1124 2266,1126 2379,1126 2492,1126 2605,1127 2718,1129 2831,1137 2944,1142 3056,1144 3169,1147 3282,1150 3395,1156 3508,1151 3621,1162 3734,1165 3847,1167 3960,1175 4073,1185 4186,1206 4299,1216 4412,1221 4525,1234 4638,1239 4750,1242 4863,1228 4976,1244 5089,1246 5202,1262 5315,1256 5428,1256 5541,1266 5654,1265 5767,1288 5880,1280 5993,1291 6106,1295 6219,1310 6332,1317 6444,1340 6557,1308 6670,1240 6783,1332 6896,1435 7009,1388 7122,1278 7235,1285 7348,1256 7461,1266 7574,1252 7687,1320 7800,1252 7913,1256 8025,1266 8137,1244 8250,1300 8363,1318 8476,1414 8589,1305 8702,1305 8815,1327 8928,1353 9041,1357 9154,1392 9267,1342 9380,1331 9493,1304 9606,1299 9718,1342 9831,1369 9944,1325 10057,1357 10170,1315 10283,1316 10396,1338 10509,1246 10622,1273 10735,1361 10848,1322 10961,1359 11074,1375 11187,1362 11300,1361 11412,1353 11525,1326 11638,1304 11751,1284 11864,1261 11977,1329 12090,1303 12203,1307 12316,1321 12429,1372 12542,1369 12655,1375 12768,1474 12881,1351 12994,1350 13106,1308 13219,1314 13332,1340 13445,1319 13558,1311 13671,1314 13784,1282 13897,1287 14010,1296 14123,1289 14236,1262 14349,1235 14462,1198 14575,1201 14688,1203 14688,2023 14575,2001 14462,1925 14349,2007 14236,1989 14123,1996 14010,2137 13897,1940 13784,1948 13671,1949 13558,1822 13445,1821 13332,1886 13219,1832 13106,1742 12994,1766 12881,1751 12768,1968 12655,1890 12542,1823 12429,1817 12316,1770 12203,1725 12090,1830 11977,1810 11864,1689 11751,1735 11638,1732 11525,1705 11412,1792 11300,1757 11187,1750 11074,1786 10961,1698 10848,1673 10735,1686 10622,1590 10509,1615 10396,1702 10283,1661 10170,1685 10057,1699 9944,1662 9831,1717 9718,1651 9606,1581 9493,1578 9380,1589 9267,1581 9154,1682 9041,1621 8928,1596 8815,1581 8702,1548 8589,1563 8476,1668 8363,1568 8250,1531 8137,1466 8025,1513 7913,1470 7800,1476 7687,1526 7574,1460 7461,1466 7348,1445 7235,1475 7122,1470 7009,1615 6896,1595 6783,1502 6670,1396 6557,1464 6444,1505 6332,1465 6219,1443 6106,1418 5993,1407 5880,1376 5767,1383 5654,1377 5541,1362 5428,1336 5315,1331 5202,1333 5089,1315 4976,1310 4863,1284 4750,1299 4638,1289 4525,1283 4412,1268 4299,1261 4186,1247 4073,1219 3960,1210 3847,1200 3734,1196 3621,1191 3508,1177 3395,1179 3282,1171 3169,1166 3056,1161 2944,1161 2831,1154 2718,1144 2605,1141 2492,1140 2379,1139 2266,1134 2153,1129 2040,1127 1927,1127 1814,1127 1701,1123 1588,1119 1475,1119 1363,1114 1363,1110 Z"/>
 <path fill="rgb(255,255,255)" stroke="none" d="M 1363,1092 L 1475,1092 1588,1092 1701,1092 1814,1092 1927,1092 2040,1092 2266,1092 2379,1092 2492,1092 2605,1092 2718,1092 2831,1092 2944,1092 3056,1092 3169,1092 3282,1092 3395,1092 3508,1092 3621,1092 3734,1092 3847,1092 3960,1092 4073,1092 4186,1092 4299,1092 4412,1092 4525,1092 4638,1092 4750,1092 4863,1092 4976,1092 5089,1092 5202,1092 5315,1092 5428,1092 5541,1092 5654,1092 5767,1092 5880,1092 5993,1092 6106,1092 6219,1092 6332,1092 6444,1092 6557,1092 6670,1092 6783,1092 6896,1092 7009,1092 7122,1092 7235,1092 7348,1092 7461,1092 7574,1092 7687,1092 7800,1092 7913,1092 8025,1092 8137,1092 8250,1092 8363,1092 8476,1092 8589,1092 8702,1092 8815,1092 8928,1092 9041,1092 9154,1092 9267,1092 9380,1092 9493,1092 9606,1092 9718,1092 9831,1092 9944,1092 10057,1092 10170,1092 10283,1092 10396,1092 10509,1092 10622,1092 10735,1092 10848,1092 10961,1092 11074,1092 11187,1092 11300,1092 11412,1092 11525,1092 11638,1092 11751,1092 11864,1092 11977,1092 12090,1092 12203,1092 12316,1092 12429,1092 12542,1092 12655,1092 12768,1092 12881,1092 12994,1092 13106,1092 13219,1092 13332,1092 13445,1092 13558,1092 13671,1092 13784,1092 13897,1092 14010,1092 14123,1092 14236,1092 14349,1092 14462,1092 14575,1092 14688,1092 14688,1203 14575,1201 14462,1198 14349,1235 14236,1262 14123,1289 14010,1296 13897,1287 13784,1282 13671,1314 13558,1311 13445,1319 13332,1340 13219,1314 13106,1308 12994,1350 12881,1351 12768,1474 12655,1375 12542,1369 12429,1372 12316,1321 12203,1307 12090,1303 11977,1329 11864,1261 11751,1284 11638,1304 11525,1326 11412,1353 11300,1361 11187,1362 11074,1375 10961,1359 10848,1322 10735,1361 10622,1273 10509,1246 10396,1338 10283,1316 10170,1315 10057,1357 9944,1325 9831,1369 9718,1342 9606,1299 9493,1304 9380,1331 9267,1342 9154,1392 9041,1357 8928,1353 8815,1327 8702,1305 8589,1305 8476,1414 8363,1318 8250,1300 8137,1244 8025,1266 7913,1256 7800,1252 7687,1320 7574,1252 7461,1266 7348,1256 7235,1285 7122,1278 7009,1388 6896,1435 6783,1332 6670,1240 6557,1308 6444,1340 6332,1317 6219,1310 6106,1295 5993,1291 5880,1280 5767,1288 5654,1265 5541,1266 5428,1256 5315,1256 5202,1262 5089,1246 4976,1244 4863,1228 4750,1242 4638,1239 4525,1234 4412,1221 4299,1216 4186,1206 4073,1185 3960,1175 3847,1167 3734,1165 3621,1162 3508,1151 3395,1156 3282,1150 3169,1147 3056,1144 2944,1142 2831,1137 2718,1129 2605,1127 2492,1126 2379,1126 2266,1126 2153,1124 2040,1121 1927,1122 1814,1122 1701,1117 1588,1114 1475,1114 1363,1110 1363,1092 Z"/>
 <path fill="none" stroke="rgb(0,0,0)" stroke-width="20" stroke-linejoin="round" d="M 1363,1092 L 1475,1092 1588,1092 1701,1092 1814,1092 1927,1092 2040,1092 2266,1092 2379,1092 2492,1092 2605,1092 2718,1092 2831,1092 2944,1092 3056,1092 3169,1092 3282,1092 3395,1092 3508,1092 3621,1092 3734,1092 3847,1092 3960,1092 4073,1092 4186,1092 4299,1092 4412,1092 4525,1092 4638,1092 4750,1092 4863,1092 4976,1092 5089,1092 5202,1092 5315,1092 5428,1092 5541,1092 5654,1092 5767,1092 5880,1092 5993,1092 6106,1092 6219,1092 6332,1092 6444,1092 6557,1092 6670,1092 6783,1092 6896,1092 7009,1092 7122,1092 7235,1092 7348,1092 7461,1092 7574,1092 7687,1092 7800,1092 7913,1092 8025,1092 8137,1092 8250,1092 8363,1092 8476,1092 8589,1092 8702,1092 8815,1092 8928,1092 9041,1092 9154,1092 9267,1092 9380,1092 9493,1092 9606,1092 9718,1092 9831,1092 9944,1092 10057,1092 10170,1092 10283,1092 10396,1092 10509,1092 10622,1092 10735,1092 10848,1092 10961,1092 11074,1092 11187,1092 11300,1092 11412,1092 11525,1092 11638,1092 11751,1092 11864,1092 11977,1092 12090,1092 12203,1092 12316,1092 12429,1092 12542,1092 12655,1092 12768,1092 12881,1092 12994,1092 13106,1092 13219,1092 13332,1092 13445,1092 13558,1092 13671,1092 13784,1092 13897,1092 14010,1092 14123,1092 14236,1092 14349,1092 14462,1092 14575,1092 14688,1092 14688,1203 14575,1201 14462,1198 14349,1235 14236,1262 14123,1289 14010,1296 13897,1287 13784,1282 13671,1314 13558,1311 13445,1319 13332,1340 13219,1314 13106,1308 12994,1350 12881,1351 12768,1474 12655,1375 12542,1369 12429,1372 12316,1321 12203,1307 12090,1303 11977,1329 11864,1261 11751,1284 11638,1304 11525,1326 11412,1353 11300,1361 11187,1362 11074,1375 10961,1359 10848,1322 10735,1361 10622,1273 10509,1246 10396,1338 10283,1316 10170,1315 10057,1357 9944,1325 9831,1369 9718,1342 9606,1299 9493,1304 9380,1331 9267,1342 9154,1392 9041,1357 8928,1353 8815,1327 8702,1305 8589,1305 8476,1414 8363,1318 8250,1300 8137,1244 8025,1266 7913,1256 7800,1252 7687,1320 7574,1252 7461,1266 7348,1256 7235,1285 7122,1278 7009,1388 6896,1435 6783,1332 6670,1240 6557,1308 6444,1340 6332,1317 6219,1310 6106,1295 5993,1291 5880,1280 5767,1288 5654,1265 5541,1266 5428,1256 5315,1256 5202,1262 5089,1246 4976,1244 4863,1228 4750,1242 4638,1239 4525,1234 4412,1221 4299,1216 4186,1206 4073,1185 3960,1175 3847,1167 3734,1165 3621,1162 3508,1151 3395,1156 3282,1150 3169,1147 3056,1144 2944,1142 2831,1137 2718,1129 2605,1127 2492,1126 2379,1126 2266,1126 2153,1124 2040,1121 1927,1122 1814,1122 1701,1117 1588,1114 1475,1114 1363,1110 1363,1092 Z"/>
 <text class="TextShape"><tspan class="TextParagraph" font-family="Arial, sans-serif" font-size="388px" font-weight="400"><tspan class="TextPosition" x="1164" y="11144"><tspan fill="rgb(0,0,0)" stroke="none">2008</tspan></tspan></tspan></text>
 <text class="TextShape"><tspan class="TextParagraph" font-family="Arial, sans-serif" font-size="388px" font-weight="400"><tspan class="TextPosition" x="2520" y="11144"><tspan fill="rgb(0,0,0)" stroke="none">2009</tspan></tspan></tspan></text>
 <text class="TextShape"><tspan class="TextParagraph" font-family="Arial, sans-serif" font-size="388px" font-weight="400"><tspan class="TextPosition" x="3875" y="11144"><tspan fill="rgb(0,0,0)" stroke="none">2010</tspan></tspan></tspan></text>
 <text class="TextShape"><tspan class="TextParagraph" font-family="Arial, sans-serif" font-size="388px" font-weight="400"><tspan class="TextPosition" x="5230" y="11144"><tspan fill="rgb(0,0,0)" stroke="none">2011</tspan></tspan></tspan></text>
 <text class="TextShape"><tspan class="TextParagraph" font-family="Arial, sans-serif" font-size="388px" font-weight="400"><tspan class="TextPosition" x="6585" y="11144"><tspan fill="rgb(0,0,0)" stroke="none">2012</tspan></tspan></tspan></text>
 <text class="TextShape"><tspan class="TextParagraph" font-family="Arial, sans-serif" font-size="388px" font-weight="400"><tspan class="TextPosition" x="7940" y="11144"><tspan fill="rgb(0,0,0)" stroke="none">2013</tspan></tspan></tspan></text>
 <text class="TextShape"><tspan class="TextParagraph" font-family="Arial, sans-serif" font-size="388px" font-weight="400"><tspan class="TextPosition" x="9295" y="11144"><tspan fill="rgb(0,0,0)" stroke="none">2014</tspan></tspan></tspan></text>
 <text class="TextShape"><tspan class="TextParagraph" font-family="Arial, sans-serif" font-size="388px" font-weight="400"><tspan class="TextPosition" x="10651" y="11144"><tspan fill="rgb(0,0,0)" stroke="none">2015</tspan></tspan></tspan></text>
 <text class="TextShape"><tspan class="TextParagraph" font-family="Arial, sans-serif" font-size="388px" font-weight="400"><tspan class="TextPosition" x="12006" y="11144"><tspan fill="rgb(0,0,0)" stroke="none">2016</tspan></tspan></tspan></text>
 <text class="TextShape"><tspan class="TextParagraph" font-family="Arial, sans-serif" font-size="388px" font-weight="400"><tspan class="TextPosition" x="13361" y="11144"><tspan fill="rgb(0,0,0)" stroke="none">2017</tspan></tspan></tspan></text>
 <text class="TextShape"><tspan class="TextParagraph" font-family="Arial, sans-serif" font-size="388px" font-weight="400"><tspan class="TextPosition" x="557" y="10684"><tspan fill="rgb(0,0,0)" stroke="none">0%</tspan></tspan></tspan></text>
 <text class="TextShape"><tspan class="TextParagraph" font-family="Arial, sans-serif" font-size="388px" font-weight="400"><tspan class="TextPosition" x="346" y="9738"><tspan fill="rgb(0,0,0)" stroke="none">10%</tspan></tspan></tspan></text>
 <text class="TextShape"><tspan class="TextParagraph" font-family="Arial, sans-serif" font-size="388px" font-weight="400"><tspan class="TextPosition" x="346" y="8792"><tspan fill="rgb(0,0,0)" stroke="none">20%</tspan></tspan></tspan></text>
 <text class="TextShape"><tspan class="TextParagraph" font-family="Arial, sans-serif" font-size="388px" font-weight="400"><tspan class="TextPosition" x="346" y="7846"><tspan fill="rgb(0,0,0)" stroke="none">30%</tspan></tspan></tspan></text>
 <text class="TextShape"><tspan class="TextParagraph" font-family="Arial, sans-serif" font-size="388px" font-weight="400"><tspan class="TextPosition" x="346" y="6900"><tspan fill="rgb(0,0,0)" stroke="none">40%</tspan></tspan></tspan></text>
 <text class="TextShape"><tspan class="TextParagraph" font-family="Arial, sans-serif" font-size="388px" font-weight="400"><tspan class="TextPosition" x="346" y="5954"><tspan fill="rgb(0,0,0)" stroke="none">50%</tspan></tspan></tspan></text>
 <text class="TextShape"><tspan class="TextParagraph" font-family="Arial, sans-serif" font-size="388px" font-weight="400"><tspan class="TextPosition" x="346" y="5008"><tspan fill="rgb(0,0,0)" stroke="none">60%</tspan></tspan></tspan></text>
 <text class="TextShape"><tspan class="TextParagraph" font-family="Arial, sans-serif" font-size="388px" font-weight="400"><tspan class="TextPosition" x="346" y="4062"><tspan fill="rgb(0,0,0)" stroke="none">70%</tspan></tspan></tspan></text>
 <text class="TextShape"><tspan class="TextParagraph" font-family="Arial, sans-serif" font-size="388px" font-weight="400"><tspan class="TextPosition" x="346" y="3116"><tspan fill="rgb(0,0,0)" stroke="none">80%</tspan></tspan></tspan></text>
 <text class="TextShape"><tspan class="TextParagraph" font-family="Arial, sans-serif" font-size="388px" font-weight="400"><tspan class="TextPosition" x="346" y="2170"><tspan fill="rgb(0,0,0)" stroke="none">90%</tspan></tspan></tspan></text>
 <text class="TextShape"><tspan class="TextParagraph" font-family="Arial, sans-serif" font-size="388px" font-weight="400"><tspan class="TextPosition" x="134" y="1225"><tspan fill="rgb(0,0,0)" stroke="none">100%</tspan></tspan></tspan></text>
 <text class="TextShape"><tspan class="TextParagraph" font-family="Arial, sans-serif" font-size="388px" font-weight="400"><tspan class="TextPosition" x="14938" y="10684"><tspan fill="rgb(0,0,0)" stroke="none">0%</tspan></tspan></tspan></text>
 <text class="TextShape"><tspan class="TextParagraph" font-family="Arial, sans-serif" font-size="388px" font-weight="400"><tspan class="TextPosition" x="14938" y="9738"><tspan fill="rgb(0,0,0)" stroke="none">10%</tspan></tspan></tspan></text>
 <text class="TextShape"><tspan class="TextParagraph" font-family="Arial, sans-serif" font-size="388px" font-weight="400"><tspan class="TextPosition" x="14938" y="8792"><tspan fill="rgb(0,0,0)" stroke="none">20%</tspan></tspan></tspan></text>
 <text class="TextShape"><tspan class="TextParagraph" font-family="Arial, sans-serif" font-size="388px" font-weight="400"><tspan class="TextPosition" x="14938" y="7846"><tspan fill="rgb(0,0,0)" stroke="none">30%</tspan></tspan></tspan></text>
 <text class="TextShape"><tspan class="TextParagraph" font-family="Arial, sans-serif" font-size="388px" font-weight="400"><tspan class="TextPosition" x="14938" y="6900"><tspan fill="rgb(0,0,0)" stroke="none">40%</tspan></tspan></tspan></text>
 <text class="TextShape"><tspan class="TextParagraph" font-family="Arial, sans-serif" font-size="388px" font-weight="400"><tspan class="TextPosition" x="14938" y="5954"><tspan fill="rgb(0,0,0)" stroke="none">50%</tspan></tspan></tspan></text>
 <text class="TextShape"><tspan class="TextParagraph" font-family="Arial, sans-serif" font-size="388px" font-weight="400"><tspan class="TextPosition" x="14938" y="5008"><tspan fill="rgb(0,0,0)" stroke="none">60%</tspan></tspan></tspan></text>
 <text class="TextShape"><tspan class="TextParagraph" font-family="Arial, sans-serif" font-size="388px" font-weight="400"><tspan class="TextPosition" x="14938" y="4062"><tspan fill="rgb(0,0,0)" stroke="none">70%</tspan></tspan></tspan></text>
 <text class="TextShape"><tspan class="TextParagraph" font-family="Arial, sans-serif" font-size="388px" font-weight="400"><tspan class="TextPosition" x="14938" y="3116"><tspan fill="rgb(0,0,0)" stroke="none">80%</tspan></tspan></tspan></text>
 <text class="TextShape"><tspan class="TextParagraph" font-family="Arial, sans-serif" font-size="388px" font-weight="400"><tspan class="TextPosition" x="14938" y="2170"><tspan fill="rgb(0,0,0)" stroke="none">90%</tspan></tspan></tspan></text>
 <text class="TextShape"><tspan class="TextParagraph" font-family="Arial, sans-serif" font-size="388px" font-weight="400"><tspan class="TextPosition" x="14938" y="1225"><tspan fill="rgb(0,0,0)" stroke="none">100%</tspan></tspan></tspan></text>
 <text class="TextShape"><tspan class="TextParagraph" font-family="Arial, sans-serif" font-size="564px" font-weight="400"><tspan class="TextPosition" x="1426" y="673"><tspan fill="rgb(0,0,0)" stroke="none">Sistemas operativos con los que se accede a la web</tspan></tspan></tspan></text>
 <path fill="rgb(0,71,255)" stroke="none" d="M 2421,11805 L 2305,11805 2305,11573 2537,11573 2537,11805 2421,11805 Z"/>
 <path fill="none" stroke="rgb(0,0,0)" stroke-linejoin="round" d="M 2421,11805 L 2305,11805 2305,11573 2537,11573 2537,11805 2421,11805 Z"/>
 <path fill="rgb(102,102,102)" stroke="none" d="M 4599,11805 L 4483,11805 4483,11573 4715,11573 4715,11805 4599,11805 Z"/>
 <path fill="none" stroke="rgb(0,0,0)" stroke-linejoin="round" d="M 4599,11805 L 4483,11805 4483,11573 4715,11573 4715,11805 4599,11805 Z"/>
 <path fill="rgb(220,35,0)" stroke="none" d="M 5930,11805 L 5814,11805 5814,11573 6046,11573 6046,11805 5930,11805 Z"/>
 <path fill="none" stroke="rgb(0,0,0)" stroke-linejoin="round" d="M 5930,11805 L 5814,11805 5814,11573 6046,11573 6046,11805 5930,11805 Z"/>
 <path fill="rgb(174,207,0)" stroke="none" d="M 7446,11805 L 7330,11805 7330,11573 7562,11573 7562,11805 7446,11805 Z"/>
 <path fill="none" stroke="rgb(0,0,0)" stroke-linejoin="round" d="M 7446,11805 L 7330,11805 7330,11573 7562,11573 7562,11805 7446,11805 Z"/>
 <path fill="rgb(204,204,204)" stroke="none" d="M 9358,11805 L 9242,11805 9242,11573 9474,11573 9474,11805 9358,11805 Z"/>
 <path fill="none" stroke="rgb(0,0,0)" stroke-linejoin="round" d="M 9358,11805 L 9242,11805 9242,11573 9474,11573 9474,11805 9358,11805 Z"/>
 <path fill="rgb(153,153,153)" stroke="none" d="M 10715,11805 L 10599,11805 10599,11573 10831,11573 10831,11805 10715,11805 Z"/>
 <path fill="none" stroke="rgb(0,0,0)" stroke-linejoin="round" d="M 10715,11805 L 10599,11805 10599,11573 10831,11573 10831,11805 10715,11805 Z"/>
 <path fill="rgb(255,255,255)" stroke="none" d="M 12496,11805 L 12380,11805 12380,11573 12612,11573 12612,11805 12496,11805 Z"/>
 <path fill="none" stroke="rgb(0,0,0)" stroke-linejoin="round" d="M 12496,11805 L 12380,11805 12380,11573 12612,11573 12612,11805 12496,11805 Z"/>
 <text class="TextShape"><tspan class="TextParagraph" font-family="Arial, sans-serif" font-size="388px" font-weight="400"><tspan class="TextPosition" x="2637" y="11821"><tspan fill="rgb(0,0,0)" stroke="none">Windows</tspan></tspan></tspan></text>
 <text class="TextShape"><tspan class="TextParagraph" font-family="Arial, sans-serif" font-size="388px" font-weight="400"><tspan class="TextPosition" x="4815" y="11821"><tspan fill="rgb(0,0,0)" stroke="none">Mac</tspan></tspan></tspan></text>
 <text class="TextShape"><tspan class="TextParagraph" font-family="Arial, sans-serif" font-size="388px" font-weight="400"><tspan class="TextPosition" x="6146" y="11821"><tspan fill="rgb(0,0,0)" stroke="none">Linux</tspan></tspan></tspan></text>
 <text class="TextShape"><tspan class="TextParagraph" font-family="Arial, sans-serif" font-size="388px" font-weight="400"><tspan class="TextPosition" x="7662" y="11821"><tspan fill="rgb(0,0,0)" stroke="none">Android</tspan></tspan></tspan></text>
 <text class="TextShape"><tspan class="TextParagraph" font-family="Arial, sans-serif" font-size="388px" font-weight="400"><tspan class="TextPosition" x="9574" y="11821"><tspan fill="rgb(0,0,0)" stroke="none">iPad</tspan></tspan></tspan></text>
 <text class="TextShape"><tspan class="TextParagraph" font-family="Arial, sans-serif" font-size="388px" font-weight="400"><tspan class="TextPosition" x="10931" y="11821"><tspan fill="rgb(0,0,0)" stroke="none">iPhone</tspan></tspan></tspan></text>
 <text class="TextShape"><tspan class="TextParagraph" font-family="Arial, sans-serif" font-size="388px" font-weight="400"><tspan class="TextPosition" x="12712" y="11821"><tspan fill="rgb(0,0,0)" stroke="none">Otros</tspan></tspan></tspan></text>
</svg>
