<?xml version="1.0" encoding="UTF-8"?>
<!DOCTYPE svg PUBLIC "-//W3C//DTD SVG 1.1//EN" "http://www.w3.org/Graphics/SVG/1.1/DTD/svg11.dtd">
<svg width="160mm" height="120mm" viewBox="0 0 16000 12000" version="1.1" xmlns="http://www.w3.org/2000/svg" stroke-width="28.222" stroke-linejoin="round" xml:space="preserve">
 <path fill="rgb(255,255,255)" stroke="none" d="M 8000,12002 L 0,12002 0,0 16000,0 16000,12002 8000,12002 Z"/>
 <path fill="none" stroke="rgb(179,179,179)" stroke-linejoin="round" d="M 8025,10551 L 1363,10551 1363,1093 14688,1093 14688,10551 8025,10551 Z"/>
 <path fill="none" stroke="rgb(0,0,0)" stroke-linejoin="round" d="M 14688,10550 L 1363,10550"/>
 <path fill="none" stroke="rgb(0,0,0)" stroke-linejoin="round" d="M 14688,9604 L 1363,9604"/>
 <path fill="none" stroke="rgb(0,0,0)" stroke-linejoin="round" d="M 14688,8658 L 1363,8658"/>
 <path fill="none" stroke="rgb(0,0,0)" stroke-linejoin="round" d="M 14688,7712 L 1363,7712"/>
 <path fill="none" stroke="rgb(0,0,0)" stroke-linejoin="round" d="M 14688,6766 L 1363,6766"/>
 <path fill="none" stroke="rgb(0,0,0)" stroke-linejoin="round" d="M 14688,5821 L 1363,5821"/>
 <path fill="none" stroke="rgb(0,0,0)" stroke-linejoin="round" d="M 14688,4875 L 1363,4875"/>
 <path fill="none" stroke="rgb(0,0,0)" stroke-linejoin="round" d="M 14688,3929 L 1363,3929"/>
 <path fill="none" stroke="rgb(0,0,0)" stroke-linejoin="round" d="M 14688,2983 L 1363,2983"/>
 <path fill="none" stroke="rgb(0,0,0)" stroke-linejoin="round" d="M 14688,2037 L 1363,2037"/>
 <path fill="none" stroke="rgb(0,0,0)" stroke-linejoin="round" d="M 14688,1092 L 1363,1092"/>
 <path fill="none" stroke="rgb(0,0,0)" stroke-linejoin="round" d="M 1363,10700 L 1363,10550"/>
 <path fill="none" stroke="rgb(0,0,0)" stroke-linejoin="round" d="M 1363,10700 L 1363,10550"/>
 <path fill="none" stroke="rgb(0,0,0)" stroke-linejoin="round" d="M 1474,10700 L 1474,10550"/>
 <path fill="none" stroke="rgb(0,0,0)" stroke-linejoin="round" d="M 1474,10700 L 1474,10550"/>
 <path fill="none" stroke="rgb(0,0,0)" stroke-linejoin="round" d="M 1586,10700 L 1586,10550"/>
 <path fill="none" stroke="rgb(0,0,0)" stroke-linejoin="round" d="M 1586,10700 L 1586,10550"/>
 <path fill="none" stroke="rgb(0,0,0)" stroke-linejoin="round" d="M 1698,10700 L 1698,10550"/>
 <path fill="none" stroke="rgb(0,0,0)" stroke-linejoin="round" d="M 1698,10700 L 1698,10550"/>
 <path fill="none" stroke="rgb(0,0,0)" stroke-linejoin="round" d="M 1810,10700 L 1810,10550"/>
 <path fill="none" stroke="rgb(0,0,0)" stroke-linejoin="round" d="M 1810,10700 L 1810,10550"/>
 <path fill="none" stroke="rgb(0,0,0)" stroke-linejoin="round" d="M 1922,10700 L 1922,10550"/>
 <path fill="none" stroke="rgb(0,0,0)" stroke-linejoin="round" d="M 1922,10700 L 1922,10550"/>
 <path fill="none" stroke="rgb(0,0,0)" stroke-linejoin="round" d="M 2034,10700 L 2034,10550"/>
 <path fill="none" stroke="rgb(0,0,0)" stroke-linejoin="round" d="M 2034,10700 L 2034,10550"/>
 <path fill="none" stroke="rgb(0,0,0)" stroke-linejoin="round" d="M 2146,10700 L 2146,10550"/>
 <path fill="none" stroke="rgb(0,0,0)" stroke-linejoin="round" d="M 2146,10700 L 2146,10550"/>
 <path fill="none" stroke="rgb(0,0,0)" stroke-linejoin="round" d="M 2258,10700 L 2258,10550"/>
 <path fill="none" stroke="rgb(0,0,0)" stroke-linejoin="round" d="M 2258,10700 L 2258,10550"/>
 <path fill="none" stroke="rgb(0,0,0)" stroke-linejoin="round" d="M 2370,10700 L 2370,10550"/>
 <path fill="none" stroke="rgb(0,0,0)" stroke-linejoin="round" d="M 2370,10700 L 2370,10550"/>
 <path fill="none" stroke="rgb(0,0,0)" stroke-linejoin="round" d="M 2482,10700 L 2482,10550"/>
 <path fill="none" stroke="rgb(0,0,0)" stroke-linejoin="round" d="M 2482,10700 L 2482,10550"/>
 <path fill="none" stroke="rgb(0,0,0)" stroke-linejoin="round" d="M 2594,10700 L 2594,10550"/>
 <path fill="none" stroke="rgb(0,0,0)" stroke-linejoin="round" d="M 2594,10700 L 2594,10550"/>
 <path fill="none" stroke="rgb(0,0,0)" stroke-linejoin="round" d="M 2706,10700 L 2706,10550"/>
 <path fill="none" stroke="rgb(0,0,0)" stroke-linejoin="round" d="M 2706,10700 L 2706,10550"/>
 <path fill="none" stroke="rgb(0,0,0)" stroke-linejoin="round" d="M 2818,10700 L 2818,10550"/>
 <path fill="none" stroke="rgb(0,0,0)" stroke-linejoin="round" d="M 2818,10700 L 2818,10550"/>
 <path fill="none" stroke="rgb(0,0,0)" stroke-linejoin="round" d="M 2930,10700 L 2930,10550"/>
 <path fill="none" stroke="rgb(0,0,0)" stroke-linejoin="round" d="M 2930,10700 L 2930,10550"/>
 <path fill="none" stroke="rgb(0,0,0)" stroke-linejoin="round" d="M 3042,10700 L 3042,10550"/>
 <path fill="none" stroke="rgb(0,0,0)" stroke-linejoin="round" d="M 3042,10700 L 3042,10550"/>
 <path fill="none" stroke="rgb(0,0,0)" stroke-linejoin="round" d="M 3154,10700 L 3154,10550"/>
 <path fill="none" stroke="rgb(0,0,0)" stroke-linejoin="round" d="M 3154,10700 L 3154,10550"/>
 <path fill="none" stroke="rgb(0,0,0)" stroke-linejoin="round" d="M 3266,10700 L 3266,10550"/>
 <path fill="none" stroke="rgb(0,0,0)" stroke-linejoin="round" d="M 3266,10700 L 3266,10550"/>
 <path fill="none" stroke="rgb(0,0,0)" stroke-linejoin="round" d="M 3378,10700 L 3378,10550"/>
 <path fill="none" stroke="rgb(0,0,0)" stroke-linejoin="round" d="M 3378,10700 L 3378,10550"/>
 <path fill="none" stroke="rgb(0,0,0)" stroke-linejoin="round" d="M 3490,10700 L 3490,10550"/>
 <path fill="none" stroke="rgb(0,0,0)" stroke-linejoin="round" d="M 3490,10700 L 3490,10550"/>
 <path fill="none" stroke="rgb(0,0,0)" stroke-linejoin="round" d="M 3602,10700 L 3602,10550"/>
 <path fill="none" stroke="rgb(0,0,0)" stroke-linejoin="round" d="M 3602,10700 L 3602,10550"/>
 <path fill="none" stroke="rgb(0,0,0)" stroke-linejoin="round" d="M 3714,10700 L 3714,10550"/>
 <path fill="none" stroke="rgb(0,0,0)" stroke-linejoin="round" d="M 3714,10700 L 3714,10550"/>
 <path fill="none" stroke="rgb(0,0,0)" stroke-linejoin="round" d="M 3826,10700 L 3826,10550"/>
 <path fill="none" stroke="rgb(0,0,0)" stroke-linejoin="round" d="M 3826,10700 L 3826,10550"/>
 <path fill="none" stroke="rgb(0,0,0)" stroke-linejoin="round" d="M 3938,10700 L 3938,10550"/>
 <path fill="none" stroke="rgb(0,0,0)" stroke-linejoin="round" d="M 3938,10700 L 3938,10550"/>
 <path fill="none" stroke="rgb(0,0,0)" stroke-linejoin="round" d="M 4050,10700 L 4050,10550"/>
 <path fill="none" stroke="rgb(0,0,0)" stroke-linejoin="round" d="M 4050,10700 L 4050,10550"/>
 <path fill="none" stroke="rgb(0,0,0)" stroke-linejoin="round" d="M 4162,10700 L 4162,10550"/>
 <path fill="none" stroke="rgb(0,0,0)" stroke-linejoin="round" d="M 4162,10700 L 4162,10550"/>
 <path fill="none" stroke="rgb(0,0,0)" stroke-linejoin="round" d="M 4274,10700 L 4274,10550"/>
 <path fill="none" stroke="rgb(0,0,0)" stroke-linejoin="round" d="M 4274,10700 L 4274,10550"/>
 <path fill="none" stroke="rgb(0,0,0)" stroke-linejoin="round" d="M 4386,10700 L 4386,10550"/>
 <path fill="none" stroke="rgb(0,0,0)" stroke-linejoin="round" d="M 4386,10700 L 4386,10550"/>
 <path fill="none" stroke="rgb(0,0,0)" stroke-linejoin="round" d="M 4498,10700 L 4498,10550"/>
 <path fill="none" stroke="rgb(0,0,0)" stroke-linejoin="round" d="M 4498,10700 L 4498,10550"/>
 <path fill="none" stroke="rgb(0,0,0)" stroke-linejoin="round" d="M 4610,10700 L 4610,10550"/>
 <path fill="none" stroke="rgb(0,0,0)" stroke-linejoin="round" d="M 4610,10700 L 4610,10550"/>
 <path fill="none" stroke="rgb(0,0,0)" stroke-linejoin="round" d="M 4722,10700 L 4722,10550"/>
 <path fill="none" stroke="rgb(0,0,0)" stroke-linejoin="round" d="M 4722,10700 L 4722,10550"/>
 <path fill="none" stroke="rgb(0,0,0)" stroke-linejoin="round" d="M 4834,10700 L 4834,10550"/>
 <path fill="none" stroke="rgb(0,0,0)" stroke-linejoin="round" d="M 4834,10700 L 4834,10550"/>
 <path fill="none" stroke="rgb(0,0,0)" stroke-linejoin="round" d="M 4946,10700 L 4946,10550"/>
 <path fill="none" stroke="rgb(0,0,0)" stroke-linejoin="round" d="M 4946,10700 L 4946,10550"/>
 <path fill="none" stroke="rgb(0,0,0)" stroke-linejoin="round" d="M 5058,10700 L 5058,10550"/>
 <path fill="none" stroke="rgb(0,0,0)" stroke-linejoin="round" d="M 5058,10700 L 5058,10550"/>
 <path fill="none" stroke="rgb(0,0,0)" stroke-linejoin="round" d="M 5170,10700 L 5170,10550"/>
 <path fill="none" stroke="rgb(0,0,0)" stroke-linejoin="round" d="M 5170,10700 L 5170,10550"/>
 <path fill="none" stroke="rgb(0,0,0)" stroke-linejoin="round" d="M 5282,10700 L 5282,10550"/>
 <path fill="none" stroke="rgb(0,0,0)" stroke-linejoin="round" d="M 5282,10700 L 5282,10550"/>
 <path fill="none" stroke="rgb(0,0,0)" stroke-linejoin="round" d="M 5394,10700 L 5394,10550"/>
 <path fill="none" stroke="rgb(0,0,0)" stroke-linejoin="round" d="M 5394,10700 L 5394,10550"/>
 <path fill="none" stroke="rgb(0,0,0)" stroke-linejoin="round" d="M 5506,10700 L 5506,10550"/>
 <path fill="none" stroke="rgb(0,0,0)" stroke-linejoin="round" d="M 5506,10700 L 5506,10550"/>
 <path fill="none" stroke="rgb(0,0,0)" stroke-linejoin="round" d="M 5618,10700 L 5618,10550"/>
 <path fill="none" stroke="rgb(0,0,0)" stroke-linejoin="round" d="M 5618,10700 L 5618,10550"/>
 <path fill="none" stroke="rgb(0,0,0)" stroke-linejoin="round" d="M 5730,10700 L 5730,10550"/>
 <path fill="none" stroke="rgb(0,0,0)" stroke-linejoin="round" d="M 5730,10700 L 5730,10550"/>
 <path fill="none" stroke="rgb(0,0,0)" stroke-linejoin="round" d="M 5842,10700 L 5842,10550"/>
 <path fill="none" stroke="rgb(0,0,0)" stroke-linejoin="round" d="M 5842,10700 L 5842,10550"/>
 <path fill="none" stroke="rgb(0,0,0)" stroke-linejoin="round" d="M 5954,10700 L 5954,10550"/>
 <path fill="none" stroke="rgb(0,0,0)" stroke-linejoin="round" d="M 5954,10700 L 5954,10550"/>
 <path fill="none" stroke="rgb(0,0,0)" stroke-linejoin="round" d="M 6066,10700 L 6066,10550"/>
 <path fill="none" stroke="rgb(0,0,0)" stroke-linejoin="round" d="M 6066,10700 L 6066,10550"/>
 <path fill="none" stroke="rgb(0,0,0)" stroke-linejoin="round" d="M 6178,10700 L 6178,10550"/>
 <path fill="none" stroke="rgb(0,0,0)" stroke-linejoin="round" d="M 6178,10700 L 6178,10550"/>
 <path fill="none" stroke="rgb(0,0,0)" stroke-linejoin="round" d="M 6290,10700 L 6290,10550"/>
 <path fill="none" stroke="rgb(0,0,0)" stroke-linejoin="round" d="M 6290,10700 L 6290,10550"/>
 <path fill="none" stroke="rgb(0,0,0)" stroke-linejoin="round" d="M 6402,10700 L 6402,10550"/>
 <path fill="none" stroke="rgb(0,0,0)" stroke-linejoin="round" d="M 6402,10700 L 6402,10550"/>
 <path fill="none" stroke="rgb(0,0,0)" stroke-linejoin="round" d="M 6514,10700 L 6514,10550"/>
 <path fill="none" stroke="rgb(0,0,0)" stroke-linejoin="round" d="M 6514,10700 L 6514,10550"/>
 <path fill="none" stroke="rgb(0,0,0)" stroke-linejoin="round" d="M 6626,10700 L 6626,10550"/>
 <path fill="none" stroke="rgb(0,0,0)" stroke-linejoin="round" d="M 6626,10700 L 6626,10550"/>
 <path fill="none" stroke="rgb(0,0,0)" stroke-linejoin="round" d="M 6738,10700 L 6738,10550"/>
 <path fill="none" stroke="rgb(0,0,0)" stroke-linejoin="round" d="M 6738,10700 L 6738,10550"/>
 <path fill="none" stroke="rgb(0,0,0)" stroke-linejoin="round" d="M 6850,10700 L 6850,10550"/>
 <path fill="none" stroke="rgb(0,0,0)" stroke-linejoin="round" d="M 6850,10700 L 6850,10550"/>
 <path fill="none" stroke="rgb(0,0,0)" stroke-linejoin="round" d="M 6962,10700 L 6962,10550"/>
 <path fill="none" stroke="rgb(0,0,0)" stroke-linejoin="round" d="M 6962,10700 L 6962,10550"/>
 <path fill="none" stroke="rgb(0,0,0)" stroke-linejoin="round" d="M 7074,10700 L 7074,10550"/>
 <path fill="none" stroke="rgb(0,0,0)" stroke-linejoin="round" d="M 7074,10700 L 7074,10550"/>
 <path fill="none" stroke="rgb(0,0,0)" stroke-linejoin="round" d="M 7186,10700 L 7186,10550"/>
 <path fill="none" stroke="rgb(0,0,0)" stroke-linejoin="round" d="M 7186,10700 L 7186,10550"/>
 <path fill="none" stroke="rgb(0,0,0)" stroke-linejoin="round" d="M 7298,10700 L 7298,10550"/>
 <path fill="none" stroke="rgb(0,0,0)" stroke-linejoin="round" d="M 7298,10700 L 7298,10550"/>
 <path fill="none" stroke="rgb(0,0,0)" stroke-linejoin="round" d="M 7410,10700 L 7410,10550"/>
 <path fill="none" stroke="rgb(0,0,0)" stroke-linejoin="round" d="M 7410,10700 L 7410,10550"/>
 <path fill="none" stroke="rgb(0,0,0)" stroke-linejoin="round" d="M 7522,10700 L 7522,10550"/>
 <path fill="none" stroke="rgb(0,0,0)" stroke-linejoin="round" d="M 7522,10700 L 7522,10550"/>
 <path fill="none" stroke="rgb(0,0,0)" stroke-linejoin="round" d="M 7634,10700 L 7634,10550"/>
 <path fill="none" stroke="rgb(0,0,0)" stroke-linejoin="round" d="M 7634,10700 L 7634,10550"/>
 <path fill="none" stroke="rgb(0,0,0)" stroke-linejoin="round" d="M 7746,10700 L 7746,10550"/>
 <path fill="none" stroke="rgb(0,0,0)" stroke-linejoin="round" d="M 7746,10700 L 7746,10550"/>
 <path fill="none" stroke="rgb(0,0,0)" stroke-linejoin="round" d="M 7858,10700 L 7858,10550"/>
 <path fill="none" stroke="rgb(0,0,0)" stroke-linejoin="round" d="M 7858,10700 L 7858,10550"/>
 <path fill="none" stroke="rgb(0,0,0)" stroke-linejoin="round" d="M 7970,10700 L 7970,10550"/>
 <path fill="none" stroke="rgb(0,0,0)" stroke-linejoin="round" d="M 7970,10700 L 7970,10550"/>
 <path fill="none" stroke="rgb(0,0,0)" stroke-linejoin="round" d="M 8080,10700 L 8080,10550"/>
 <path fill="none" stroke="rgb(0,0,0)" stroke-linejoin="round" d="M 8080,10700 L 8080,10550"/>
 <path fill="none" stroke="rgb(0,0,0)" stroke-linejoin="round" d="M 8192,10700 L 8192,10550"/>
 <path fill="none" stroke="rgb(0,0,0)" stroke-linejoin="round" d="M 8192,10700 L 8192,10550"/>
 <path fill="none" stroke="rgb(0,0,0)" stroke-linejoin="round" d="M 8304,10700 L 8304,10550"/>
 <path fill="none" stroke="rgb(0,0,0)" stroke-linejoin="round" d="M 8304,10700 L 8304,10550"/>
 <path fill="none" stroke="rgb(0,0,0)" stroke-linejoin="round" d="M 8416,10700 L 8416,10550"/>
 <path fill="none" stroke="rgb(0,0,0)" stroke-linejoin="round" d="M 8416,10700 L 8416,10550"/>
 <path fill="none" stroke="rgb(0,0,0)" stroke-linejoin="round" d="M 8528,10700 L 8528,10550"/>
 <path fill="none" stroke="rgb(0,0,0)" stroke-linejoin="round" d="M 8528,10700 L 8528,10550"/>
 <path fill="none" stroke="rgb(0,0,0)" stroke-linejoin="round" d="M 8640,10700 L 8640,10550"/>
 <path fill="none" stroke="rgb(0,0,0)" stroke-linejoin="round" d="M 8640,10700 L 8640,10550"/>
 <path fill="none" stroke="rgb(0,0,0)" stroke-linejoin="round" d="M 8752,10700 L 8752,10550"/>
 <path fill="none" stroke="rgb(0,0,0)" stroke-linejoin="round" d="M 8752,10700 L 8752,10550"/>
 <path fill="none" stroke="rgb(0,0,0)" stroke-linejoin="round" d="M 8864,10700 L 8864,10550"/>
 <path fill="none" stroke="rgb(0,0,0)" stroke-linejoin="round" d="M 8864,10700 L 8864,10550"/>
 <path fill="none" stroke="rgb(0,0,0)" stroke-linejoin="round" d="M 8976,10700 L 8976,10550"/>
 <path fill="none" stroke="rgb(0,0,0)" stroke-linejoin="round" d="M 8976,10700 L 8976,10550"/>
 <path fill="none" stroke="rgb(0,0,0)" stroke-linejoin="round" d="M 9088,10700 L 9088,10550"/>
 <path fill="none" stroke="rgb(0,0,0)" stroke-linejoin="round" d="M 9088,10700 L 9088,10550"/>
 <path fill="none" stroke="rgb(0,0,0)" stroke-linejoin="round" d="M 9200,10700 L 9200,10550"/>
 <path fill="none" stroke="rgb(0,0,0)" stroke-linejoin="round" d="M 9200,10700 L 9200,10550"/>
 <path fill="none" stroke="rgb(0,0,0)" stroke-linejoin="round" d="M 9312,10700 L 9312,10550"/>
 <path fill="none" stroke="rgb(0,0,0)" stroke-linejoin="round" d="M 9312,10700 L 9312,10550"/>
 <path fill="none" stroke="rgb(0,0,0)" stroke-linejoin="round" d="M 9424,10700 L 9424,10550"/>
 <path fill="none" stroke="rgb(0,0,0)" stroke-linejoin="round" d="M 9424,10700 L 9424,10550"/>
 <path fill="none" stroke="rgb(0,0,0)" stroke-linejoin="round" d="M 9536,10700 L 9536,10550"/>
 <path fill="none" stroke="rgb(0,0,0)" stroke-linejoin="round" d="M 9536,10700 L 9536,10550"/>
 <path fill="none" stroke="rgb(0,0,0)" stroke-linejoin="round" d="M 9648,10700 L 9648,10550"/>
 <path fill="none" stroke="rgb(0,0,0)" stroke-linejoin="round" d="M 9648,10700 L 9648,10550"/>
 <path fill="none" stroke="rgb(0,0,0)" stroke-linejoin="round" d="M 9760,10700 L 9760,10550"/>
 <path fill="none" stroke="rgb(0,0,0)" stroke-linejoin="round" d="M 9760,10700 L 9760,10550"/>
 <path fill="none" stroke="rgb(0,0,0)" stroke-linejoin="round" d="M 9872,10700 L 9872,10550"/>
 <path fill="none" stroke="rgb(0,0,0)" stroke-linejoin="round" d="M 9872,10700 L 9872,10550"/>
 <path fill="none" stroke="rgb(0,0,0)" stroke-linejoin="round" d="M 9984,10700 L 9984,10550"/>
 <path fill="none" stroke="rgb(0,0,0)" stroke-linejoin="round" d="M 9984,10700 L 9984,10550"/>
 <path fill="none" stroke="rgb(0,0,0)" stroke-linejoin="round" d="M 10096,10700 L 10096,10550"/>
 <path fill="none" stroke="rgb(0,0,0)" stroke-linejoin="round" d="M 10096,10700 L 10096,10550"/>
 <path fill="none" stroke="rgb(0,0,0)" stroke-linejoin="round" d="M 10208,10700 L 10208,10550"/>
 <path fill="none" stroke="rgb(0,0,0)" stroke-linejoin="round" d="M 10208,10700 L 10208,10550"/>
 <path fill="none" stroke="rgb(0,0,0)" stroke-linejoin="round" d="M 10320,10700 L 10320,10550"/>
 <path fill="none" stroke="rgb(0,0,0)" stroke-linejoin="round" d="M 10320,10700 L 10320,10550"/>
 <path fill="none" stroke="rgb(0,0,0)" stroke-linejoin="round" d="M 10432,10700 L 10432,10550"/>
 <path fill="none" stroke="rgb(0,0,0)" stroke-linejoin="round" d="M 10432,10700 L 10432,10550"/>
 <path fill="none" stroke="rgb(0,0,0)" stroke-linejoin="round" d="M 10544,10700 L 10544,10550"/>
 <path fill="none" stroke="rgb(0,0,0)" stroke-linejoin="round" d="M 10544,10700 L 10544,10550"/>
 <path fill="none" stroke="rgb(0,0,0)" stroke-linejoin="round" d="M 10656,10700 L 10656,10550"/>
 <path fill="none" stroke="rgb(0,0,0)" stroke-linejoin="round" d="M 10656,10700 L 10656,10550"/>
 <path fill="none" stroke="rgb(0,0,0)" stroke-linejoin="round" d="M 10768,10700 L 10768,10550"/>
 <path fill="none" stroke="rgb(0,0,0)" stroke-linejoin="round" d="M 10768,10700 L 10768,10550"/>
 <path fill="none" stroke="rgb(0,0,0)" stroke-linejoin="round" d="M 10880,10700 L 10880,10550"/>
 <path fill="none" stroke="rgb(0,0,0)" stroke-linejoin="round" d="M 10880,10700 L 10880,10550"/>
 <path fill="none" stroke="rgb(0,0,0)" stroke-linejoin="round" d="M 10992,10700 L 10992,10550"/>
 <path fill="none" stroke="rgb(0,0,0)" stroke-linejoin="round" d="M 10992,10700 L 10992,10550"/>
 <path fill="none" stroke="rgb(0,0,0)" stroke-linejoin="round" d="M 11104,10700 L 11104,10550"/>
 <path fill="none" stroke="rgb(0,0,0)" stroke-linejoin="round" d="M 11104,10700 L 11104,10550"/>
 <path fill="none" stroke="rgb(0,0,0)" stroke-linejoin="round" d="M 11216,10700 L 11216,10550"/>
 <path fill="none" stroke="rgb(0,0,0)" stroke-linejoin="round" d="M 11216,10700 L 11216,10550"/>
 <path fill="none" stroke="rgb(0,0,0)" stroke-linejoin="round" d="M 11328,10700 L 11328,10550"/>
 <path fill="none" stroke="rgb(0,0,0)" stroke-linejoin="round" d="M 11328,10700 L 11328,10550"/>
 <path fill="none" stroke="rgb(0,0,0)" stroke-linejoin="round" d="M 11440,10700 L 11440,10550"/>
 <path fill="none" stroke="rgb(0,0,0)" stroke-linejoin="round" d="M 11440,10700 L 11440,10550"/>
 <path fill="none" stroke="rgb(0,0,0)" stroke-linejoin="round" d="M 11552,10700 L 11552,10550"/>
 <path fill="none" stroke="rgb(0,0,0)" stroke-linejoin="round" d="M 11552,10700 L 11552,10550"/>
 <path fill="none" stroke="rgb(0,0,0)" stroke-linejoin="round" d="M 11664,10700 L 11664,10550"/>
 <path fill="none" stroke="rgb(0,0,0)" stroke-linejoin="round" d="M 11664,10700 L 11664,10550"/>
 <path fill="none" stroke="rgb(0,0,0)" stroke-linejoin="round" d="M 11776,10700 L 11776,10550"/>
 <path fill="none" stroke="rgb(0,0,0)" stroke-linejoin="round" d="M 11776,10700 L 11776,10550"/>
 <path fill="none" stroke="rgb(0,0,0)" stroke-linejoin="round" d="M 11888,10700 L 11888,10550"/>
 <path fill="none" stroke="rgb(0,0,0)" stroke-linejoin="round" d="M 11888,10700 L 11888,10550"/>
 <path fill="none" stroke="rgb(0,0,0)" stroke-linejoin="round" d="M 12000,10700 L 12000,10550"/>
 <path fill="none" stroke="rgb(0,0,0)" stroke-linejoin="round" d="M 12000,10700 L 12000,10550"/>
 <path fill="none" stroke="rgb(0,0,0)" stroke-linejoin="round" d="M 12112,10700 L 12112,10550"/>
 <path fill="none" stroke="rgb(0,0,0)" stroke-linejoin="round" d="M 12112,10700 L 12112,10550"/>
 <path fill="none" stroke="rgb(0,0,0)" stroke-linejoin="round" d="M 12224,10700 L 12224,10550"/>
 <path fill="none" stroke="rgb(0,0,0)" stroke-linejoin="round" d="M 12224,10700 L 12224,10550"/>
 <path fill="none" stroke="rgb(0,0,0)" stroke-linejoin="round" d="M 12336,10700 L 12336,10550"/>
 <path fill="none" stroke="rgb(0,0,0)" stroke-linejoin="round" d="M 12336,10700 L 12336,10550"/>
 <path fill="none" stroke="rgb(0,0,0)" stroke-linejoin="round" d="M 12448,10700 L 12448,10550"/>
 <path fill="none" stroke="rgb(0,0,0)" stroke-linejoin="round" d="M 12448,10700 L 12448,10550"/>
 <path fill="none" stroke="rgb(0,0,0)" stroke-linejoin="round" d="M 12560,10700 L 12560,10550"/>
 <path fill="none" stroke="rgb(0,0,0)" stroke-linejoin="round" d="M 12560,10700 L 12560,10550"/>
 <path fill="none" stroke="rgb(0,0,0)" stroke-linejoin="round" d="M 12672,10700 L 12672,10550"/>
 <path fill="none" stroke="rgb(0,0,0)" stroke-linejoin="round" d="M 12672,10700 L 12672,10550"/>
 <path fill="none" stroke="rgb(0,0,0)" stroke-linejoin="round" d="M 12784,10700 L 12784,10550"/>
 <path fill="none" stroke="rgb(0,0,0)" stroke-linejoin="round" d="M 12784,10700 L 12784,10550"/>
 <path fill="none" stroke="rgb(0,0,0)" stroke-linejoin="round" d="M 12896,10700 L 12896,10550"/>
 <path fill="none" stroke="rgb(0,0,0)" stroke-linejoin="round" d="M 12896,10700 L 12896,10550"/>
 <path fill="none" stroke="rgb(0,0,0)" stroke-linejoin="round" d="M 13008,10700 L 13008,10550"/>
 <path fill="none" stroke="rgb(0,0,0)" stroke-linejoin="round" d="M 13008,10700 L 13008,10550"/>
 <path fill="none" stroke="rgb(0,0,0)" stroke-linejoin="round" d="M 13120,10700 L 13120,10550"/>
 <path fill="none" stroke="rgb(0,0,0)" stroke-linejoin="round" d="M 13120,10700 L 13120,10550"/>
 <path fill="none" stroke="rgb(0,0,0)" stroke-linejoin="round" d="M 13232,10700 L 13232,10550"/>
 <path fill="none" stroke="rgb(0,0,0)" stroke-linejoin="round" d="M 13232,10700 L 13232,10550"/>
 <path fill="none" stroke="rgb(0,0,0)" stroke-linejoin="round" d="M 13344,10700 L 13344,10550"/>
 <path fill="none" stroke="rgb(0,0,0)" stroke-linejoin="round" d="M 13344,10700 L 13344,10550"/>
 <path fill="none" stroke="rgb(0,0,0)" stroke-linejoin="round" d="M 13456,10700 L 13456,10550"/>
 <path fill="none" stroke="rgb(0,0,0)" stroke-linejoin="round" d="M 13456,10700 L 13456,10550"/>
 <path fill="none" stroke="rgb(0,0,0)" stroke-linejoin="round" d="M 13568,10700 L 13568,10550"/>
 <path fill="none" stroke="rgb(0,0,0)" stroke-linejoin="round" d="M 13568,10700 L 13568,10550"/>
 <path fill="none" stroke="rgb(0,0,0)" stroke-linejoin="round" d="M 13680,10700 L 13680,10550"/>
 <path fill="none" stroke="rgb(0,0,0)" stroke-linejoin="round" d="M 13680,10700 L 13680,10550"/>
 <path fill="none" stroke="rgb(0,0,0)" stroke-linejoin="round" d="M 13792,10700 L 13792,10550"/>
 <path fill="none" stroke="rgb(0,0,0)" stroke-linejoin="round" d="M 13792,10700 L 13792,10550"/>
 <path fill="none" stroke="rgb(0,0,0)" stroke-linejoin="round" d="M 13904,10700 L 13904,10550"/>
 <path fill="none" stroke="rgb(0,0,0)" stroke-linejoin="round" d="M 13904,10700 L 13904,10550"/>
 <path fill="none" stroke="rgb(0,0,0)" stroke-linejoin="round" d="M 14016,10700 L 14016,10550"/>
 <path fill="none" stroke="rgb(0,0,0)" stroke-linejoin="round" d="M 14016,10700 L 14016,10550"/>
 <path fill="none" stroke="rgb(0,0,0)" stroke-linejoin="round" d="M 14128,10700 L 14128,10550"/>
 <path fill="none" stroke="rgb(0,0,0)" stroke-linejoin="round" d="M 14128,10700 L 14128,10550"/>
 <path fill="none" stroke="rgb(0,0,0)" stroke-linejoin="round" d="M 14240,10700 L 14240,10550"/>
 <path fill="none" stroke="rgb(0,0,0)" stroke-linejoin="round" d="M 14240,10700 L 14240,10550"/>
 <path fill="none" stroke="rgb(0,0,0)" stroke-linejoin="round" d="M 14352,10700 L 14352,10550"/>
 <path fill="none" stroke="rgb(0,0,0)" stroke-linejoin="round" d="M 14352,10700 L 14352,10550"/>
 <path fill="none" stroke="rgb(0,0,0)" stroke-linejoin="round" d="M 14464,10700 L 14464,10550"/>
 <path fill="none" stroke="rgb(0,0,0)" stroke-linejoin="round" d="M 14464,10700 L 14464,10550"/>
 <path fill="none" stroke="rgb(0,0,0)" stroke-linejoin="round" d="M 14576,10700 L 14576,10550"/>
 <path fill="none" stroke="rgb(0,0,0)" stroke-linejoin="round" d="M 14576,10700 L 14576,10550"/>
 <path fill="none" stroke="rgb(0,0,0)" stroke-linejoin="round" d="M 14688,10700 L 14688,10550"/>
 <path fill="none" stroke="rgb(0,0,0)" stroke-linejoin="round" d="M 14688,10700 L 14688,10550"/>
 <path fill="none" stroke="rgb(0,0,0)" stroke-linejoin="round" d="M 1363,10550 L 14688,10550"/>
 <path fill="none" stroke="rgb(0,0,0)" stroke-linejoin="round" d="M 1213,10550 L 1363,10550"/>
 <path fill="none" stroke="rgb(0,0,0)" stroke-linejoin="round" d="M 1213,10550 L 1363,10550"/>
 <path fill="none" stroke="rgb(0,0,0)" stroke-linejoin="round" d="M 1213,9604 L 1363,9604"/>
 <path fill="none" stroke="rgb(0,0,0)" stroke-linejoin="round" d="M 1213,9604 L 1363,9604"/>
 <path fill="none" stroke="rgb(0,0,0)" stroke-linejoin="round" d="M 1213,8658 L 1363,8658"/>
 <path fill="none" stroke="rgb(0,0,0)" stroke-linejoin="round" d="M 1213,8658 L 1363,8658"/>
 <path fill="none" stroke="rgb(0,0,0)" stroke-linejoin="round" d="M 1213,7712 L 1363,7712"/>
 <path fill="none" stroke="rgb(0,0,0)" stroke-linejoin="round" d="M 1213,7712 L 1363,7712"/>
 <path fill="none" stroke="rgb(0,0,0)" stroke-linejoin="round" d="M 1213,6766 L 1363,6766"/>
 <path fill="none" stroke="rgb(0,0,0)" stroke-linejoin="round" d="M 1213,6766 L 1363,6766"/>
 <path fill="none" stroke="rgb(0,0,0)" stroke-linejoin="round" d="M 1213,5821 L 1363,5821"/>
 <path fill="none" stroke="rgb(0,0,0)" stroke-linejoin="round" d="M 1213,5821 L 1363,5821"/>
 <path fill="none" stroke="rgb(0,0,0)" stroke-linejoin="round" d="M 1213,4875 L 1363,4875"/>
 <path fill="none" stroke="rgb(0,0,0)" stroke-linejoin="round" d="M 1213,4875 L 1363,4875"/>
 <path fill="none" stroke="rgb(0,0,0)" stroke-linejoin="round" d="M 1213,3929 L 1363,3929"/>
 <path fill="none" stroke="rgb(0,0,0)" stroke-linejoin="round" d="M 1213,3929 L 1363,3929"/>
 <path fill="none" stroke="rgb(0,0,0)" stroke-linejoin="round" d="M 1213,2983 L 1363,2983"/>
 <path fill="none" stroke="rgb(0,0,0)" stroke-linejoin="round" d="M 1213,2983 L 1363,2983"/>
 <path fill="none" stroke="rgb(0,0,0)" stroke-linejoin="round" d="M 1213,2037 L 1363,2037"/>
 <path fill="none" stroke="rgb(0,0,0)" stroke-linejoin="round" d="M 1213,2037 L 1363,2037"/>
 <path fill="none" stroke="rgb(0,0,0)" stroke-linejoin="round" d="M 1213,1092 L 1363,1092"/>
 <path fill="none" stroke="rgb(0,0,0)" stroke-linejoin="round" d="M 1213,1092 L 1363,1092"/>
 <path fill="none" stroke="rgb(0,0,0)" stroke-linejoin="round" d="M 1363,10550 L 1363,1092"/>
 <path fill="none" stroke="rgb(0,0,0)" stroke-linejoin="round" d="M 14838,10550 L 14688,10550"/>
 <path fill="none" stroke="rgb(0,0,0)" stroke-linejoin="round" d="M 14838,10550 L 14688,10550"/>
 <path fill="none" stroke="rgb(0,0,0)" stroke-linejoin="round" d="M 14838,9604 L 14688,9604"/>
 <path fill="none" stroke="rgb(0,0,0)" stroke-linejoin="round" d="M 14838,9604 L 14688,9604"/>
 <path fill="none" stroke="rgb(0,0,0)" stroke-linejoin="round" d="M 14838,8658 L 14688,8658"/>
 <path fill="none" stroke="rgb(0,0,0)" stroke-linejoin="round" d="M 14838,8658 L 14688,8658"/>
 <path fill="none" stroke="rgb(0,0,0)" stroke-linejoin="round" d="M 14838,7712 L 14688,7712"/>
 <path fill="none" stroke="rgb(0,0,0)" stroke-linejoin="round" d="M 14838,7712 L 14688,7712"/>
 <path fill="none" stroke="rgb(0,0,0)" stroke-linejoin="round" d="M 14838,6766 L 14688,6766"/>
 <path fill="none" stroke="rgb(0,0,0)" stroke-linejoin="round" d="M 14838,6766 L 14688,6766"/>
 <path fill="none" stroke="rgb(0,0,0)" stroke-linejoin="round" d="M 14838,5821 L 14688,5821"/>
 <path fill="none" stroke="rgb(0,0,0)" stroke-linejoin="round" d="M 14838,5821 L 14688,5821"/>
 <path fill="none" stroke="rgb(0,0,0)" stroke-linejoin="round" d="M 14838,4875 L 14688,4875"/>
 <path fill="none" stroke="rgb(0,0,0)" stroke-linejoin="round" d="M 14838,4875 L 14688,4875"/>
 <path fill="none" stroke="rgb(0,0,0)" stroke-linejoin="round" d="M 14838,3929 L 14688,3929"/>
 <path fill="none" stroke="rgb(0,0,0)" stroke-linejoin="round" d="M 14838,3929 L 14688,3929"/>
 <path fill="none" stroke="rgb(0,0,0)" stroke-linejoin="round" d="M 14838,2983 L 14688,2983"/>
 <path fill="none" stroke="rgb(0,0,0)" stroke-linejoin="round" d="M 14838,2983 L 14688,2983"/>
 <path fill="none" stroke="rgb(0,0,0)" stroke-linejoin="round" d="M 14838,2037 L 14688,2037"/>
 <path fill="none" stroke="rgb(0,0,0)" stroke-linejoin="round" d="M 14838,2037 L 14688,2037"/>
 <path fill="none" stroke="rgb(0,0,0)" stroke-linejoin="round" d="M 14838,1092 L 14688,1092"/>
 <path fill="none" stroke="rgb(0,0,0)" stroke-linejoin="round" d="M 14838,1092 L 14688,1092"/>
 <path fill="none" stroke="rgb(0,0,0)" stroke-linejoin="round" d="M 14688,10550 L 14688,1092"/>
 <path fill="rgb(0,71,255)" stroke="none" d="M 1363,1500 L 1474,1524 1586,1540 1698,1544 1810,1553 1922,1526 2034,1566 2146,1561 2258,1547 2370,1552 2482,1575 2594,1573 2706,1620 2818,1668 2930,1691 3042,1685 3154,1706 3266,1712 3378,1738 3490,1717 3602,1751 3714,1748 3826,1775 3938,1800 4050,1799 4162,1827 4274,1845 4386,1838 4498,1888 4610,1900 4722,1915 4834,1899 4946,1913 5058,1910 5170,1934 5282,1935 5394,1962 5506,2012 5618,2070 5730,2070 5842,2079 5954,2143 6066,2163 6178,2201 6290,2267 6402,2362 6514,2361 6626,2368 6738,2446 6850,2525 6962,2641 7074,2509 7186,2458 7298,2463 7410,2502 7522,2564 7634,2652 7746,2692 7858,2674 7970,2801 8080,2829 8192,2846 8304,2939 8416,3084 8528,2941 8640,2861 8752,2896 8864,2935 8976,3020 9088,3146 9200,2982 9312,3084 9424,3143 9536,3170 9648,3340 9760,3449 9872,3336 9984,3427 10096,3525 10208,3426 10320,3492 10432,3424 10544,3287 10656,3399 10768,3463 10880,3399 10992,3710 11104,3550 11216,3594 11328,3901 11440,3611 11552,3712 11664,3810 11776,3691 11888,3989 12000,4090 12112,3865 12224,4073 12336,4267 12448,4276 12560,4550 12672,4843 12784,4789 12896,4430 13008,4453 13120,4493 13232,4782 13344,4472 13456,4524 13568,4671 13680,4632 13792,4732 13904,5127 14016,5059 14128,4728 14240,4910 14352,4673 14464,5036 14576,5338 14688,4827 14688,10550 1363,10550 1363,1500 Z"/>
 <path fill="none" stroke="rgb(0,0,0)" stroke-width="20" stroke-linejoin="round" d="M 1363,1500 L 1474,1524 1586,1540 1698,1544 1810,1553 1922,1526 2034,1566 2146,1561 2258,1547 2370,1552 2482,1575 2594,1573 2706,1620 2818,1668 2930,1691 3042,1685 3154,1706 3266,1712 3378,1738 3490,1717 3602,1751 3714,1748 3826,1775 3938,1800 4050,1799 4162,1827 4274,1845 4386,1838 4498,1888 4610,1900 4722,1915 4834,1899 4946,1913 5058,1910 5170,1934 5282,1935 5394,1962 5506,2012 5618,2070 5730,2070 5842,2079 5954,2143 6066,2163 6178,2201 6290,2267 6402,2362 6514,2361 6626,2368 6738,2446 6850,2525 6962,2641 7074,2509 7186,2458 7298,2463 7410,2502 7522,2564 7634,2652 7746,2692 7858,2674 7970,2801 8080,2829 8192,2846 8304,2939 8416,3084 8528,2941 8640,2861 8752,2896 8864,2935 8976,3020 9088,3146 9200,2982 9312,3084 9424,3143 9536,3170 9648,3340 9760,3449 9872,3336 9984,3427 10096,3525 10208,3426 10320,3492 10432,3424 10544,3287 10656,3399 10768,3463 10880,3399 10992,3710 11104,3550 11216,3594 11328,3901 11440,3611 11552,3712 11664,3810 11776,3691 11888,3989 12000,4090 12112,3865 12224,4073 12336,4267 12448,4276 12560,4550 12672,4843 12784,4789 12896,4430 13008,4453 13120,4493 13232,4782 13344,4472 13456,4524 13568,4671 13680,4632 13792,4732 13904,5127 14016,5059 14128,4728 14240,4910 14352,4673 14464,5036 14576,5338 14688,4827 14688,10550 1363,10550 1363,1500 Z"/>
 <path fill="rgb(102,102,102)" stroke="none" d="M 1363,1176 L 1474,1184 1586,1187 1698,1193 1810,1196 1922,1199 2034,1212 2146,1212 2258,1213 2370,1216 2482,1221 2594,1214 2706,1230 2818,1247 2930,1246 3042,1255 3154,1263 3266,1273 3378,1291 3490,1273 3602,1292 3714,1287 3826,1292 3938,1302 4050,1316 4162,1344 4274,1359 4386,1365 4498,1384 4610,1397 4722,1418 4834,1411 4946,1434 5058,1437 5170,1461 5282,1467 5394,1488 5506,1538 5618,1575 5730,1581 5842,1584 5954,1635 6066,1662 6178,1697 6290,1741 6402,1831 6514,1790 6626,1750 6738,1879 6850,1972 6962,2093 7074,1904 7186,1886 7298,1892 7410,1942 7522,1983 7634,2054 7746,2082 7858,2059 7970,2196 8080,2213 8192,2253 8304,2351 8416,2499 8528,2366 8640,2274 8752,2306 8864,2335 8976,2429 9088,2555 9200,2354 9312,2448 9424,2527 9536,2556 9648,2731 9760,2849 9872,2735 9984,2829 10096,2955 10208,2903 10320,2981 10432,2899 10544,2783 10656,2848 10768,2900 10880,2836 10992,3179 11104,3022 11216,3039 11328,3364 11440,3051 11552,3145 11664,3240 11776,3123 11888,3430 12000,3518 12112,3354 12224,3575 12336,3735 12448,3737 12560,4035 12672,4254 12784,4241 12896,3872 13008,3919 13120,4000 13232,4343 13344,4044 13456,4078 13568,4282 13680,4223 13792,4339 13904,4755 14016,4685 14128,4324 14240,4533 14352,4286 14464,4675 14576,4970 14688,4433 14688,4827 14576,5338 14464,5036 14352,4673 14240,4910 14128,4728 14016,5059 13904,5127 13792,4732 13680,4632 13568,4671 13456,4524 13344,4472 13232,4782 13120,4493 13008,4453 12896,4430 12784,4789 12672,4843 12560,4550 12448,4276 12336,4267 12224,4073 12112,3865 12000,4090 11888,3989 11776,3691 11664,3810 11552,3712 11440,3611 11328,3901 11216,3594 11104,3550 10992,3710 10880,3399 10768,3463 10656,3399 10544,3287 10432,3424 10320,3492 10208,3426 10096,3525 9984,3427 9872,3336 9760,3449 9648,3340 9536,3170 9424,3143 9312,3084 9200,2982 9088,3146 8976,3020 8864,2935 8752,2896 8640,2861 8528,2941 8416,3084 8304,2939 8192,2846 8080,2829 7970,2801 7858,2674 7746,2692 7634,2652 7522,2564 7410,2502 7298,2463 7186,2458 7074,2509 6962,2641 6850,2525 6738,2446 6626,2368 6514,2361 6402,2362 6290,2267 6178,2201 6066,2163 5954,2143 5842,2079 5730,2070 5618,2070 5506,2012 5394,1962 5282,1935 5170,1934 5058,1910 4946,1913 4834,1899 4722,1915 4610,1900 4498,1888 4386,1838 4274,1845 4162,1827 4050,1799 3938,1800 3826,1775 3714,1748 3602,1751 3490,1717 3378,1738 3266,1712 3154,1706 3042,1685 2930,1691 2818,1668 2706,1620 2594,1573 2482,1575 2370,1552 2258,1547 2146,1561 2034,1566 1922,1526 1810,1553 1698,1544 1586,1540 1474,1524 1363,1500 1363,1176 Z"/>
 <path fill="none" stroke="rgb(0,0,0)" stroke-width="20" stroke-linejoin="round" d="M 1363,1176 L 1474,1184 1586,1187 1698,1193 1810,1196 1922,1199 2034,1212 2146,1212 2258,1213 2370,1216 2482,1221 2594,1214 2706,1230 2818,1247 2930,1246 3042,1255 3154,1263 3266,1273 3378,1291 3490,1273 3602,1292 3714,1287 3826,1292 3938,1302 4050,1316 4162,1344 4274,1359 4386,1365 4498,1384 4610,1397 4722,1418 4834,1411 4946,1434 5058,1437 5170,1461 5282,1467 5394,1488 5506,1538 5618,1575 5730,1581 5842,1584 5954,1635 6066,1662 6178,1697 6290,1741 6402,1831 6514,1790 6626,1750 6738,1879 6850,1972 6962,2093 7074,1904 7186,1886 7298,1892 7410,1942 7522,1983 7634,2054 7746,2082 7858,2059 7970,2196 8080,2213 8192,2253 8304,2351 8416,2499 8528,2366 8640,2274 8752,2306 8864,2335 8976,2429 9088,2555 9200,2354 9312,2448 9424,2527 9536,2556 9648,2731 9760,2849 9872,2735 9984,2829 10096,2955 10208,2903 10320,2981 10432,2899 10544,2783 10656,2848 10768,2900 10880,2836 10992,3179 11104,3022 11216,3039 11328,3364 11440,3051 11552,3145 11664,3240 11776,3123 11888,3430 12000,3518 12112,3354 12224,3575 12336,3735 12448,3737 12560,4035 12672,4254 12784,4241 12896,3872 13008,3919 13120,4000 13232,4343 13344,4044 13456,4078 13568,4282 13680,4223 13792,4339 13904,4755 14016,4685 14128,4324 14240,4533 14352,4286 14464,4675 14576,4970 14688,4433 14688,4827 14576,5338 14464,5036 14352,4673 14240,4910 14128,4728 14016,5059 13904,5127 13792,4732 13680,4632 13568,4671 13456,4524 13344,4472 13232,4782 13120,4493 13008,4453 12896,4430 12784,4789 12672,4843 12560,4550 12448,4276 12336,4267 12224,4073 12112,3865 12000,4090 11888,3989 11776,3691 11664,3810 11552,3712 11440,3611 11328,3901 11216,3594 11104,3550 10992,3710 10880,3399 10768,3463 10656,3399 10544,3287 10432,3424 10320,3492 10208,3426 10096,3525 9984,3427 9872,3336 9760,3449 9648,3340 9536,3170 9424,3143 9312,3084 9200,2982 9088,3146 8976,3020 8864,2935 8752,2896 8640,2861 8528,2941 8416,3084 8304,2939 8192,2846 8080,2829 7970,2801 7858,2674 7746,2692 7634,2652 7522,2564 7410,2502 7298,2463 7186,2458 7074,2509 6962,2641 6850,2525 6738,2446 6626,2368 6514,2361 6402,2362 6290,2267 6178,2201 6066,2163 5954,2143 5842,2079 5730,2070 5618,2070 5506,2012 5394,1962 5282,1935 5170,1934 5058,1910 4946,1913 4834,1899 4722,1915 4610,1900 4498,1888 4386,1838 4274,1845 4162,1827 4050,1799 3938,1800 3826,1775 3714,1748 3602,1751 3490,1717 3378,1738 3266,1712 3154,1706 3042,1685 2930,1691 2818,1668 2706,1620 2594,1573 2482,1575 2370,1552 2258,1547 2146,1561 2034,1566 1922,1526 1810,1553 1698,1544 1586,1540 1474,1524 1363,1500 1363,1176 Z"/>
 <path fill="rgb(220,35,0)" stroke="none" d="M 1363,1114 L 1474,1119 1586,1119 1698,1123 1810,1127 1922,1127 2034,1127 2146,1129 2258,1134 2370,1139 2482,1140 2594,1141 2706,1144 2818,1154 2930,1161 3042,1162 3154,1167 3266,1173 3378,1180 3490,1179 3602,1193 3714,1198 3826,1202 3938,1212 4050,1221 4162,1249 4274,1263 4386,1272 4498,1286 4610,1298 4722,1311 4834,1310 4946,1346 5058,1356 5170,1381 5282,1386 5394,1400 5506,1447 5618,1485 5730,1494 5842,1494 5954,1546 6066,1576 6178,1607 6290,1655 6402,1736 6514,1692 6626,1644 6738,1764 6850,1849 6962,1959 7074,1802 7186,1800 7298,1807 7410,1852 7522,1892 7634,1967 7746,1988 7858,1964 7970,2097 8080,2108 8192,2153 8304,2251 8416,2401 8528,2270 8640,2173 8752,2201 8864,2229 8976,2326 9088,2432 9200,2217 9312,2315 9424,2400 9536,2416 9648,2605 9760,2733 9872,2617 9984,2706 10096,2830 10208,2767 10320,2851 10432,2769 10544,2654 10656,2738 10768,2803 10880,2731 10992,3079 11104,2905 11216,2925 11328,3252 11440,2931 11552,3024 11664,3115 11776,3000 11888,3304 12000,3406 12112,3235 12224,3457 12336,3616 12448,3614 12560,3917 12672,4154 12784,4126 12896,3735 13008,3761 13120,3860 13232,4201 13344,3899 13456,3925 13568,4141 13680,4076 13792,4209 13904,4629 14016,4560 14128,4197 14240,4387 14352,4123 14464,4471 14576,4687 14688,4245 14688,4433 14576,4970 14464,4675 14352,4286 14240,4533 14128,4324 14016,4685 13904,4755 13792,4339 13680,4223 13568,4282 13456,4078 13344,4044 13232,4343 13120,4000 13008,3919 12896,3872 12784,4241 12672,4254 12560,4035 12448,3737 12336,3735 12224,3575 12112,3354 12000,3518 11888,3430 11776,3123 11664,3240 11552,3145 11440,3051 11328,3364 11216,3039 11104,3022 10992,3179 10880,2836 10768,2900 10656,2848 10544,2783 10432,2899 10320,2981 10208,2903 10096,2955 9984,2829 9872,2735 9760,2849 9648,2731 9536,2556 9424,2527 9312,2448 9200,2354 9088,2555 8976,2429 8864,2335 8752,2306 8640,2274 8528,2366 8416,2499 8304,2351 8192,2253 8080,2213 7970,2196 7858,2059 7746,2082 7634,2054 7522,1983 7410,1942 7298,1892 7186,1886 7074,1904 6962,2093 6850,1972 6738,1879 6626,1750 6514,1790 6402,1831 6290,1741 6178,1697 6066,1662 5954,1635 5842,1584 5730,1581 5618,1575 5506,1538 5394,1488 5282,1467 5170,1461 5058,1437 4946,1434 4834,1411 4722,1418 4610,1397 4498,1384 4386,1365 4274,1359 4162,1344 4050,1316 3938,1302 3826,1292 3714,1287 3602,1292 3490,1273 3378,1291 3266,1273 3154,1263 3042,1255 2930,1246 2818,1247 2706,1230 2594,1214 2482,1221 2370,1216 2258,1213 2146,1212 2034,1212 1922,1199 1810,1196 1698,1193 1586,1187 1474,1184 1363,1176 1363,1114 Z"/>
 <path fill="none" stroke="rgb(0,0,0)" stroke-width="20" stroke-linejoin="round" d="M 1363,1114 L 1474,1119 1586,1119 1698,1123 1810,1127 1922,1127 2034,1127 2146,1129 2258,1134 2370,1139 2482,1140 2594,1141 2706,1144 2818,1154 2930,1161 3042,1162 3154,1167 3266,1173 3378,1180 3490,1179 3602,1193 3714,1198 3826,1202 3938,1212 4050,1221 4162,1249 4274,1263 4386,1272 4498,1286 4610,1298 4722,1311 4834,1310 4946,1346 5058,1356 5170,1381 5282,1386 5394,1400 5506,1447 5618,1485 5730,1494 5842,1494 5954,1546 6066,1576 6178,1607 6290,1655 6402,1736 6514,1692 6626,1644 6738,1764 6850,1849 6962,1959 7074,1802 7186,1800 7298,1807 7410,1852 7522,1892 7634,1967 7746,1988 7858,1964 7970,2097 8080,2108 8192,2153 8304,2251 8416,2401 8528,2270 8640,2173 8752,2201 8864,2229 8976,2326 9088,2432 9200,2217 9312,2315 9424,2400 9536,2416 9648,2605 9760,2733 9872,2617 9984,2706 10096,2830 10208,2767 10320,2851 10432,2769 10544,2654 10656,2738 10768,2803 10880,2731 10992,3079 11104,2905 11216,2925 11328,3252 11440,2931 11552,3024 11664,3115 11776,3000 11888,3304 12000,3406 12112,3235 12224,3457 12336,3616 12448,3614 12560,3917 12672,4154 12784,4126 12896,3735 13008,3761 13120,3860 13232,4201 13344,3899 13456,3925 13568,4141 13680,4076 13792,4209 13904,4629 14016,4560 14128,4197 14240,4387 14352,4123 14464,4471 14576,4687 14688,4245 14688,4433 14576,4970 14464,4675 14352,4286 14240,4533 14128,4324 14016,4685 13904,4755 13792,4339 13680,4223 13568,4282 13456,4078 13344,4044 13232,4343 13120,4000 13008,3919 12896,3872 12784,4241 12672,4254 12560,4035 12448,3737 12336,3735 12224,3575 12112,3354 12000,3518 11888,3430 11776,3123 11664,3240 11552,3145 11440,3051 11328,3364 11216,3039 11104,3022 10992,3179 10880,2836 10768,2900 10656,2848 10544,2783 10432,2899 10320,2981 10208,2903 10096,2955 9984,2829 9872,2735 9760,2849 9648,2731 9536,2556 9424,2527 9312,2448 9200,2354 9088,2555 8976,2429 8864,2335 8752,2306 8640,2274 8528,2366 8416,2499 8304,2351 8192,2253 8080,2213 7970,2196 7858,2059 7746,2082 7634,2054 7522,1983 7410,1942 7298,1892 7186,1886 7074,1904 6962,2093 6850,1972 6738,1879 6626,1750 6514,1790 6402,1831 6290,1741 6178,1697 6066,1662 5954,1635 5842,1584 5730,1581 5618,1575 5506,1538 5394,1488 5282,1467 5170,1461 5058,1437 4946,1434 4834,1411 4722,1418 4610,1397 4498,1384 4386,1365 4274,1359 4162,1344 4050,1316 3938,1302 3826,1292 3714,1287 3602,1292 3490,1273 3378,1291 3266,1273 3154,1263 3042,1255 2930,1246 2818,1247 2706,1230 2594,1214 2482,1221 2370,1216 2258,1213 2146,1212 2034,1212 1922,1199 1810,1196 1698,1193 1586,1187 1474,1184 1363,1176 1363,1114 Z"/>
 <path fill="rgb(174,207,0)" stroke="none" d="M 1363,1114 L 1474,1119 1586,1119 1698,1123 1810,1127 1922,1127 2034,1127 2146,1129 2258,1134 2370,1139 2482,1140 2594,1141 2706,1144 2818,1154 2930,1161 3042,1161 3154,1166 3266,1171 3378,1179 3490,1177 3602,1191 3714,1196 3826,1200 3938,1210 4050,1219 4162,1247 4274,1261 4386,1268 4498,1283 4610,1292 4722,1306 4834,1300 4946,1332 5058,1340 5170,1361 5282,1363 5394,1373 5506,1411 5618,1441 5730,1445 5842,1442 5954,1485 6066,1505 6178,1541 6290,1583 6402,1641 6514,1600 6626,1546 6738,1659 6850,1750 6962,1814 7074,1676 7186,1677 7298,1678 7410,1711 7522,1744 7634,1815 7746,1809 7858,1781 7970,1835 8080,1835 8192,1905 8304,1981 8416,2086 8528,1992 8640,1907 8752,1946 8864,1966 8976,2033 9088,2079 9200,1908 9312,1966 9424,1984 9536,1975 9648,2115 9760,2180 9872,2091 9984,2133 10096,2129 10208,2056 10320,2090 10432,2001 10544,1938 10656,2033 10768,2077 10880,2024 10992,2180 11104,2096 11216,2095 11328,2160 11440,2017 11552,2068 11664,2105 11776,2023 11888,2209 12000,2214 12112,2038 12224,2137 12336,2178 12448,2157 12560,2244 12672,2322 12784,2032 12896,2049 13008,2035 13120,2049 13232,2099 13344,2024 13456,2022 13568,2188 13680,2214 13792,2183 13904,2451 14016,2345 14128,2265 14240,2303 14352,2191 14464,2303 14576,2352 14688,2171 14688,4245 14576,4687 14464,4471 14352,4123 14240,4387 14128,4197 14016,4560 13904,4629 13792,4209 13680,4076 13568,4141 13456,3925 13344,3899 13232,4201 13120,3860 13008,3761 12896,3735 12784,4126 12672,4154 12560,3917 12448,3614 12336,3616 12224,3457 12112,3235 12000,3406 11888,3304 11776,3000 11664,3115 11552,3024 11440,2931 11328,3252 11216,2925 11104,2905 10992,3079 10880,2731 10768,2803 10656,2738 10544,2654 10432,2769 10320,2851 10208,2767 10096,2830 9984,2706 9872,2617 9760,2733 9648,2605 9536,2416 9424,2400 9312,2315 9200,2217 9088,2432 8976,2326 8864,2229 8752,2201 8640,2173 8528,2270 8416,2401 8304,2251 8192,2153 8080,2108 7970,2097 7858,1964 7746,1988 7634,1967 7522,1892 7410,1852 7298,1807 7186,1800 7074,1802 6962,1959 6850,1849 6738,1764 6626,1644 6514,1692 6402,1736 6290,1655 6178,1607 6066,1576 5954,1546 5842,1494 5730,1494 5618,1485 5506,1447 5394,1400 5282,1386 5170,1381 5058,1356 4946,1346 4834,1310 4722,1311 4610,1298 4498,1286 4386,1272 4274,1263 4162,1249 4050,1221 3938,1212 3826,1202 3714,1198 3602,1193 3490,1179 3378,1180 3266,1173 3154,1167 3042,1162 2930,1161 2818,1154 2706,1144 2594,1141 2482,1140 2370,1139 2258,1134 2146,1129 2034,1127 1922,1127 1810,1127 1698,1123 1586,1119 1474,1119 1363,1114 Z"/>
 <path fill="none" stroke="rgb(0,0,0)" stroke-width="20" stroke-linejoin="round" d="M 1363,1114 L 1474,1119 1586,1119 1698,1123 1810,1127 1922,1127 2034,1127 2146,1129 2258,1134 2370,1139 2482,1140 2594,1141 2706,1144 2818,1154 2930,1161 3042,1161 3154,1166 3266,1171 3378,1179 3490,1177 3602,1191 3714,1196 3826,1200 3938,1210 4050,1219 4162,1247 4274,1261 4386,1268 4498,1283 4610,1292 4722,1306 4834,1300 4946,1332 5058,1340 5170,1361 5282,1363 5394,1373 5506,1411 5618,1441 5730,1445 5842,1442 5954,1485 6066,1505 6178,1541 6290,1583 6402,1641 6514,1600 6626,1546 6738,1659 6850,1750 6962,1814 7074,1676 7186,1677 7298,1678 7410,1711 7522,1744 7634,1815 7746,1809 7858,1781 7970,1835 8080,1835 8192,1905 8304,1981 8416,2086 8528,1992 8640,1907 8752,1946 8864,1966 8976,2033 9088,2079 9200,1908 9312,1966 9424,1984 9536,1975 9648,2115 9760,2180 9872,2091 9984,2133 10096,2129 10208,2056 10320,2090 10432,2001 10544,1938 10656,2033 10768,2077 10880,2024 10992,2180 11104,2096 11216,2095 11328,2160 11440,2017 11552,2068 11664,2105 11776,2023 11888,2209 12000,2214 12112,2038 12224,2137 12336,2178 12448,2157 12560,2244 12672,2322 12784,2032 12896,2049 13008,2035 13120,2049 13232,2099 13344,2024 13456,2022 13568,2188 13680,2214 13792,2183 13904,2451 14016,2345 14128,2265 14240,2303 14352,2191 14464,2303 14576,2352 14688,2171 14688,4245 14576,4687 14464,4471 14352,4123 14240,4387 14128,4197 14016,4560 13904,4629 13792,4209 13680,4076 13568,4141 13456,3925 13344,3899 13232,4201 13120,3860 13008,3761 12896,3735 12784,4126 12672,4154 12560,3917 12448,3614 12336,3616 12224,3457 12112,3235 12000,3406 11888,3304 11776,3000 11664,3115 11552,3024 11440,2931 11328,3252 11216,2925 11104,2905 10992,3079 10880,2731 10768,2803 10656,2738 10544,2654 10432,2769 10320,2851 10208,2767 10096,2830 9984,2706 9872,2617 9760,2733 9648,2605 9536,2416 9424,2400 9312,2315 9200,2217 9088,2432 8976,2326 8864,2229 8752,2201 8640,2173 8528,2270 8416,2401 8304,2251 8192,2153 8080,2108 7970,2097 7858,1964 7746,1988 7634,1967 7522,1892 7410,1852 7298,1807 7186,1800 7074,1802 6962,1959 6850,1849 6738,1764 6626,1644 6514,1692 6402,1736 6290,1655 6178,1607 6066,1576 5954,1546 5842,1494 5730,1494 5618,1485 5506,1447 5394,1400 5282,1386 5170,1381 5058,1356 4946,1346 4834,1310 4722,1311 4610,1298 4498,1286 4386,1272 4274,1263 4162,1249 4050,1221 3938,1212 3826,1202 3714,1198 3602,1193 3490,1179 3378,1180 3266,1173 3154,1167 3042,1162 2930,1161 2818,1154 2706,1144 2594,1141 2482,1140 2370,1139 2258,1134 2146,1129 2034,1127 1922,1127 1810,1127 1698,1123 1586,1119 1474,1119 1363,1114 Z"/>
 <path fill="rgb(204,204,204)" stroke="none" d="M 1363,1114 L 1474,1119 1586,1119 1698,1123 1810,1127 1922,1127 2034,1127 2146,1129 2258,1134 2370,1139 2482,1140 2594,1141 2706,1144 2818,1154 2930,1161 3042,1161 3154,1166 3266,1171 3378,1179 3490,1177 3602,1191 3714,1196 3826,1200 3938,1210 4050,1219 4162,1247 4274,1261 4386,1268 4498,1283 4610,1289 4722,1299 4834,1284 4946,1310 5058,1315 5170,1333 5282,1331 5394,1336 5506,1362 5618,1377 5730,1383 5842,1376 5954,1407 6066,1418 6178,1443 6290,1465 6402,1505 6514,1464 6626,1396 6738,1502 6850,1595 6962,1615 7074,1470 7186,1475 7298,1445 7410,1466 7522,1460 7634,1526 7746,1476 7858,1470 7970,1513 8080,1466 8192,1531 8304,1568 8416,1668 8528,1563 8640,1548 8752,1581 8864,1596 8976,1621 9088,1682 9200,1581 9312,1589 9424,1578 9536,1581 9648,1651 9760,1717 9872,1662 9984,1699 10096,1685 10208,1661 10320,1702 10432,1615 10544,1590 10656,1686 10768,1673 10880,1698 10992,1786 11104,1750 11216,1757 11328,1792 11440,1705 11552,1732 11664,1735 11776,1689 11888,1810 12000,1830 12112,1725 12224,1770 12336,1817 12448,1823 12560,1890 12672,1968 12784,1751 12896,1766 13008,1742 13120,1832 13232,1886 13344,1821 13456,1822 13568,1949 13680,1948 13792,1940 13904,2137 14016,1996 14128,1989 14240,2007 14352,1925 14464,2001 14576,2023 14688,1866 14688,2171 14576,2352 14464,2303 14352,2191 14240,2303 14128,2265 14016,2345 13904,2451 13792,2183 13680,2214 13568,2188 13456,2022 13344,2024 13232,2099 13120,2049 13008,2035 12896,2049 12784,2032 12672,2322 12560,2244 12448,2157 12336,2178 12224,2137 12112,2038 12000,2214 11888,2209 11776,2023 11664,2105 11552,2068 11440,2017 11328,2160 11216,2095 11104,2096 10992,2180 10880,2024 10768,2077 10656,2033 10544,1938 10432,2001 10320,2090 10208,2056 10096,2129 9984,2133 9872,2091 9760,2180 9648,2115 9536,1975 9424,1984 9312,1966 9200,1908 9088,2079 8976,2033 8864,1966 8752,1946 8640,1907 8528,1992 8416,2086 8304,1981 8192,1905 8080,1835 7970,1835 7858,1781 7746,1809 7634,1815 7522,1744 7410,1711 7298,1678 7186,1677 7074,1676 6962,1814 6850,1750 6738,1659 6626,1546 6514,1600 6402,1641 6290,1583 6178,1541 6066,1505 5954,1485 5842,1442 5730,1445 5618,1441 5506,1411 5394,1373 5282,1363 5170,1361 5058,1340 4946,1332 4834,1300 4722,1306 4610,1292 4498,1283 4386,1268 4274,1261 4162,1247 4050,1219 3938,1210 3826,1200 3714,1196 3602,1191 3490,1177 3378,1179 3266,1171 3154,1166 3042,1161 2930,1161 2818,1154 2706,1144 2594,1141 2482,1140 2370,1139 2258,1134 2146,1129 2034,1127 1922,1127 1810,1127 1698,1123 1586,1119 1474,1119 1363,1114 Z"/>
 <path fill="none" stroke="rgb(0,0,0)" stroke-width="20" stroke-linejoin="round" d="M 1363,1114 L 1474,1119 1586,1119 1698,1123 1810,1127 1922,1127 2034,1127 2146,1129 2258,1134 2370,1139 2482,1140 2594,1141 2706,1144 2818,1154 2930,1161 3042,1161 3154,1166 3266,1171 3378,1179 3490,1177 3602,1191 3714,1196 3826,1200 3938,1210 4050,1219 4162,1247 4274,1261 4386,1268 4498,1283 4610,1289 4722,1299 4834,1284 4946,1310 5058,1315 5170,1333 5282,1331 5394,1336 5506,1362 5618,1377 5730,1383 5842,1376 5954,1407 6066,1418 6178,1443 6290,1465 6402,1505 6514,1464 6626,1396 6738,1502 6850,1595 6962,1615 7074,1470 7186,1475 7298,1445 7410,1466 7522,1460 7634,1526 7746,1476 7858,1470 7970,1513 8080,1466 8192,1531 8304,1568 8416,1668 8528,1563 8640,1548 8752,1581 8864,1596 8976,1621 9088,1682 9200,1581 9312,1589 9424,1578 9536,1581 9648,1651 9760,1717 9872,1662 9984,1699 10096,1685 10208,1661 10320,1702 10432,1615 10544,1590 10656,1686 10768,1673 10880,1698 10992,1786 11104,1750 11216,1757 11328,1792 11440,1705 11552,1732 11664,1735 11776,1689 11888,1810 12000,1830 12112,1725 12224,1770 12336,1817 12448,1823 12560,1890 12672,1968 12784,1751 12896,1766 13008,1742 13120,1832 13232,1886 13344,1821 13456,1822 13568,1949 13680,1948 13792,1940 13904,2137 14016,1996 14128,1989 14240,2007 14352,1925 14464,2001 14576,2023 14688,1866 14688,2171 14576,2352 14464,2303 14352,2191 14240,2303 14128,2265 14016,2345 13904,2451 13792,2183 13680,2214 13568,2188 13456,2022 13344,2024 13232,2099 13120,2049 13008,2035 12896,2049 12784,2032 12672,2322 12560,2244 12448,2157 12336,2178 12224,2137 12112,2038 12000,2214 11888,2209 11776,2023 11664,2105 11552,2068 11440,2017 11328,2160 11216,2095 11104,2096 10992,2180 10880,2024 10768,2077 10656,2033 10544,1938 10432,2001 10320,2090 10208,2056 10096,2129 9984,2133 9872,2091 9760,2180 9648,2115 9536,1975 9424,1984 9312,1966 9200,1908 9088,2079 8976,2033 8864,1966 8752,1946 8640,1907 8528,1992 8416,2086 8304,1981 8192,1905 8080,1835 7970,1835 7858,1781 7746,1809 7634,1815 7522,1744 7410,1711 7298,1678 7186,1677 7074,1676 6962,1814 6850,1750 6738,1659 6626,1546 6514,1600 6402,1641 6290,1583 6178,1541 6066,1505 5954,1485 5842,1442 5730,1445 5618,1441 5506,1411 5394,1373 5282,1363 5170,1361 5058,1340 4946,1332 4834,1300 4722,1306 4610,1292 4498,1283 4386,1268 4274,1261 4162,1247 4050,1219 3938,1210 3826,1200 3714,1196 3602,1191 3490,1177 3378,1179 3266,1171 3154,1166 3042,1161 2930,1161 2818,1154 2706,1144 2594,1141 2482,1140 2370,1139 2258,1134 2146,1129 2034,1127 1922,1127 1810,1127 1698,1123 1586,1119 1474,1119 1363,1114 Z"/>
 <path fill="rgb(153,153,153)" stroke="none" d="M 1363,1110 L 1474,1114 1586,1114 1698,1117 1810,1122 1922,1122 2034,1121 2146,1124 2258,1126 2370,1126 2482,1126 2594,1127 2706,1129 2818,1137 2930,1142 3042,1144 3154,1147 3266,1150 3378,1156 3490,1151 3602,1162 3714,1165 3826,1167 3938,1175 4050,1185 4162,1206 4274,1216 4386,1221 4498,1234 4610,1239 4722,1242 4834,1228 4946,1244 5058,1246 5170,1262 5282,1256 5394,1256 5506,1266 5618,1265 5730,1288 5842,1280 5954,1291 6066,1295 6178,1310 6290,1317 6402,1340 6514,1308 6626,1240 6738,1332 6850,1435 6962,1388 7074,1278 7186,1285 7298,1256 7410,1266 7522,1252 7634,1320 7746,1252 7858,1256 7970,1266 8080,1244 8192,1300 8304,1318 8416,1414 8528,1305 8640,1305 8752,1327 8864,1353 8976,1357 9088,1392 9200,1342 9312,1331 9424,1304 9536,1299 9648,1342 9760,1369 9872,1325 9984,1357 10096,1315 10208,1316 10320,1338 10432,1246 10544,1273 10656,1361 10768,1322 10880,1359 10992,1375 11104,1362 11216,1361 11328,1353 11440,1326 11552,1304 11664,1284 11776,1261 11888,1329 12000,1303 12112,1307 12224,1321 12336,1372 12448,1369 12560,1375 12672,1474 12784,1351 12896,1350 13008,1308 13120,1314 13232,1340 13344,1319 13456,1311 13568,1314 13680,1282 13792,1287 13904,1296 14016,1289 14128,1262 14240,1235 14352,1198 14464,1201 14576,1203 14688,1192 14688,1866 14576,2023 14464,2001 14352,1925 14240,2007 14128,1989 14016,1996 13904,2137 13792,1940 13680,1948 13568,1949 13456,1822 13344,1821 13232,1886 13120,1832 13008,1742 12896,1766 12784,1751 12672,1968 12560,1890 12448,1823 12336,1817 12224,1770 12112,1725 12000,1830 11888,1810 11776,1689 11664,1735 11552,1732 11440,1705 11328,1792 11216,1757 11104,1750 10992,1786 10880,1698 10768,1673 10656,1686 10544,1590 10432,1615 10320,1702 10208,1661 10096,1685 9984,1699 9872,1662 9760,1717 9648,1651 9536,1581 9424,1578 9312,1589 9200,1581 9088,1682 8976,1621 8864,1596 8752,1581 8640,1548 8528,1563 8416,1668 8304,1568 8192,1531 8080,1466 7970,1513 7858,1470 7746,1476 7634,1526 7522,1460 7410,1466 7298,1445 7186,1475 7074,1470 6962,1615 6850,1595 6738,1502 6626,1396 6514,1464 6402,1505 6290,1465 6178,1443 6066,1418 5954,1407 5842,1376 5730,1383 5618,1377 5506,1362 5394,1336 5282,1331 5170,1333 5058,1315 4946,1310 4834,1284 4722,1299 4610,1289 4498,1283 4386,1268 4274,1261 4162,1247 4050,1219 3938,1210 3826,1200 3714,1196 3602,1191 3490,1177 3378,1179 3266,1171 3154,1166 3042,1161 2930,1161 2818,1154 2706,1144 2594,1141 2482,1140 2370,1139 2258,1134 2146,1129 2034,1127 1922,1127 1810,1127 1698,1123 1586,1119 1474,1119 1363,1114 1363,1110 Z"/>
 <path fill="none" stroke="rgb(0,0,0)" stroke-width="20" stroke-linejoin="round" d="M 1363,1110 L 1474,1114 1586,1114 1698,1117 1810,1122 1922,1122 2034,1121 2146,1124 2258,1126 2370,1126 2482,1126 2594,1127 2706,1129 2818,1137 2930,1142 3042,1144 3154,1147 3266,1150 3378,1156 3490,1151 3602,1162 3714,1165 3826,1167 3938,1175 4050,1185 4162,1206 4274,1216 4386,1221 4498,1234 4610,1239 4722,1242 4834,1228 4946,1244 5058,1246 5170,1262 5282,1256 5394,1256 5506,1266 5618,1265 5730,1288 5842,1280 5954,1291 6066,1295 6178,1310 6290,1317 6402,1340 6514,1308 6626,1240 6738,1332 6850,1435 6962,1388 7074,1278 7186,1285 7298,1256 7410,1266 7522,1252 7634,1320 7746,1252 7858,1256 7970,1266 8080,1244 8192,1300 8304,1318 8416,1414 8528,1305 8640,1305 8752,1327 8864,1353 8976,1357 9088,1392 9200,1342 9312,1331 9424,1304 9536,1299 9648,1342 9760,1369 9872,1325 9984,1357 10096,1315 10208,1316 10320,1338 10432,1246 10544,1273 10656,1361 10768,1322 10880,1359 10992,1375 11104,1362 11216,1361 11328,1353 11440,1326 11552,1304 11664,1284 11776,1261 11888,1329 12000,1303 12112,1307 12224,1321 12336,1372 12448,1369 12560,1375 12672,1474 12784,1351 12896,1350 13008,1308 13120,1314 13232,1340 13344,1319 13456,1311 13568,1314 13680,1282 13792,1287 13904,1296 14016,1289 14128,1262 14240,1235 14352,1198 14464,1201 14576,1203 14688,1192 14688,1866 14576,2023 14464,2001 14352,1925 14240,2007 14128,1989 14016,1996 13904,2137 13792,1940 13680,1948 13568,1949 13456,1822 13344,1821 13232,1886 13120,1832 13008,1742 12896,1766 12784,1751 12672,1968 12560,1890 12448,1823 12336,1817 12224,1770 12112,1725 12000,1830 11888,1810 11776,1689 11664,1735 11552,1732 11440,1705 11328,1792 11216,1757 11104,1750 10992,1786 10880,1698 10768,1673 10656,1686 10544,1590 10432,1615 10320,1702 10208,1661 10096,1685 9984,1699 9872,1662 9760,1717 9648,1651 9536,1581 9424,1578 9312,1589 9200,1581 9088,1682 8976,1621 8864,1596 8752,1581 8640,1548 8528,1563 8416,1668 8304,1568 8192,1531 8080,1466 7970,1513 7858,1470 7746,1476 7634,1526 7522,1460 7410,1466 7298,1445 7186,1475 7074,1470 6962,1615 6850,1595 6738,1502 6626,1396 6514,1464 6402,1505 6290,1465 6178,1443 6066,1418 5954,1407 5842,1376 5730,1383 5618,1377 5506,1362 5394,1336 5282,1331 5170,1333 5058,1315 4946,1310 4834,1284 4722,1299 4610,1289 4498,1283 4386,1268 4274,1261 4162,1247 4050,1219 3938,1210 3826,1200 3714,1196 3602,1191 3490,1177 3378,1179 3266,1171 3154,1166 3042,1161 2930,1161 2818,1154 2706,1144 2594,1141 2482,1140 2370,1139 2258,1134 2146,1129 2034,1127 1922,1127 1810,1127 1698,1123 1586,1119 1474,1119 1363,1114 1363,1110 Z"/>
 <path fill="rgb(255,255,255)" stroke="none" d="M 1363,1092 L 1474,1092 1586,1092 1698,1092 1810,1092 1922,1092 2034,1092 2258,1092 2370,1092 2482,1092 2594,1092 2706,1092 2818,1092 2930,1092 3042,1092 3154,1092 3266,1092 3378,1092 3490,1092 3602,1092 3714,1092 3826,1092 3938,1092 4050,1092 4162,1092 4274,1092 4386,1092 4498,1092 4610,1092 4722,1092 4759,1092 4909,1092 4946,1092 5058,1092 5170,1092 5282,1092 5394,1092 5730,1092 5842,1092 5954,1092 6066,1092 6178,1092 6290,1092 6402,1092 6588,1092 6626,1092 6738,1092 7074,1092 7186,1092 7223,1092 7372,1092 7410,1092 7522,1092 7634,1092 7970,1092 8192,1092 8304,1092 8416,1092 8528,1092 8640,1092 8752,1092 8864,1092 9088,1092 9200,1092 9424,1092 9536,1092 9648,1092 9760,1092 9872,1092 9984,1092 10096,1092 10208,1092 10320,1092 10432,1092 10544,1092 10656,1092 10768,1092 10955,1092 10992,1092 11104,1092 11216,1092 11418,1092 11440,1092 11552,1092 11664,1092 11776,1092 11888,1092 11910,1092 12064,1092 12112,1092 12179,1092 12336,1092 12448,1092 12560,1092 12672,1092 12784,1092 12821,1092 12970,1092 13008,1092 13045,1092 13306,1092 13344,1092 13456,1092 13568,1092 13680,1092 13792,1092 13904,1092 14016,1092 14128,1092 14464,1092 14688,1092 14688,1192 14576,1203 14464,1201 14352,1198 14240,1235 14128,1262 14016,1289 13904,1296 13792,1287 13680,1282 13568,1314 13456,1311 13344,1319 13232,1340 13120,1314 13008,1308 12896,1350 12784,1351 12672,1474 12560,1375 12448,1369 12336,1372 12224,1321 12112,1307 12000,1303 11888,1329 11776,1261 11664,1284 11552,1304 11440,1326 11328,1353 11216,1361 11104,1362 10992,1375 10880,1359 10768,1322 10656,1361 10544,1273 10432,1246 10320,1338 10208,1316 10096,1315 9984,1357 9872,1325 9760,1369 9648,1342 9536,1299 9424,1304 9312,1331 9200,1342 9088,1392 8976,1357 8864,1353 8752,1327 8640,1305 8528,1305 8416,1414 8304,1318 8192,1300 8080,1244 7970,1266 7858,1256 7746,1252 7634,1320 7522,1252 7410,1266 7298,1256 7186,1285 7074,1278 6962,1388 6850,1435 6738,1332 6626,1240 6514,1308 6402,1340 6290,1317 6178,1310 6066,1295 5954,1291 5842,1280 5730,1288 5618,1265 5506,1266 5394,1256 5282,1256 5170,1262 5058,1246 4946,1244 4834,1228 4722,1242 4610,1239 4498,1234 4386,1221 4274,1216 4162,1206 4050,1185 3938,1175 3826,1167 3714,1165 3602,1162 3490,1151 3378,1156 3266,1150 3154,1147 3042,1144 2930,1142 2818,1137 2706,1129 2594,1127 2482,1126 2370,1126 2258,1126 2146,1124 2034,1121 1922,1122 1810,1122 1698,1117 1586,1114 1474,1114 1363,1110 1363,1092 Z"/>
 <path fill="none" stroke="rgb(0,0,0)" stroke-width="20" stroke-linejoin="round" d="M 1363,1092 L 1474,1092 1586,1092 1698,1092 1810,1092 1922,1092 2034,1092 2258,1092 2370,1092 2482,1092 2594,1092 2706,1092 2818,1092 2930,1092 3042,1092 3154,1092 3266,1092 3378,1092 3490,1092 3602,1092 3714,1092 3826,1092 3938,1092 4050,1092 4162,1092 4274,1092 4386,1092 4498,1092 4610,1092 4722,1092 4759,1092 4909,1092 4946,1092 5058,1092 5170,1092 5282,1092 5394,1092 5730,1092 5842,1092 5954,1092 6066,1092 6178,1092 6290,1092 6402,1092 6588,1092 6626,1092 6738,1092 7074,1092 7186,1092 7223,1092 7372,1092 7410,1092 7522,1092 7634,1092 7970,1092 8192,1092 8304,1092 8416,1092 8528,1092 8640,1092 8752,1092 8864,1092 9088,1092 9200,1092 9424,1092 9536,1092 9648,1092 9760,1092 9872,1092 9984,1092 10096,1092 10208,1092 10320,1092 10432,1092 10544,1092 10656,1092 10768,1092 10955,1092 10992,1092 11104,1092 11216,1092 11418,1092 11440,1092 11552,1092 11664,1092 11776,1092 11888,1092 11910,1092 12064,1092 12112,1092 12179,1092 12336,1092 12448,1092 12560,1092 12672,1092 12784,1092 12821,1092 12970,1092 13008,1092 13045,1092 13306,1092 13344,1092 13456,1092 13568,1092 13680,1092 13792,1092 13904,1092 14016,1092 14128,1092 14464,1092 14688,1092 14688,1192 14576,1203 14464,1201 14352,1198 14240,1235 14128,1262 14016,1289 13904,1296 13792,1287 13680,1282 13568,1314 13456,1311 13344,1319 13232,1340 13120,1314 13008,1308 12896,1350 12784,1351 12672,1474 12560,1375 12448,1369 12336,1372 12224,1321 12112,1307 12000,1303 11888,1329 11776,1261 11664,1284 11552,1304 11440,1326 11328,1353 11216,1361 11104,1362 10992,1375 10880,1359 10768,1322 10656,1361 10544,1273 10432,1246 10320,1338 10208,1316 10096,1315 9984,1357 9872,1325 9760,1369 9648,1342 9536,1299 9424,1304 9312,1331 9200,1342 9088,1392 8976,1357 8864,1353 8752,1327 8640,1305 8528,1305 8416,1414 8304,1318 8192,1300 8080,1244 7970,1266 7858,1256 7746,1252 7634,1320 7522,1252 7410,1266 7298,1256 7186,1285 7074,1278 6962,1388 6850,1435 6738,1332 6626,1240 6514,1308 6402,1340 6290,1317 6178,1310 6066,1295 5954,1291 5842,1280 5730,1288 5618,1265 5506,1266 5394,1256 5282,1256 5170,1262 5058,1246 4946,1244 4834,1228 4722,1242 4610,1239 4498,1234 4386,1221 4274,1216 4162,1206 4050,1185 3938,1175 3826,1167 3714,1165 3602,1162 3490,1151 3378,1156 3266,1150 3154,1147 3042,1144 2930,1142 2818,1137 2706,1129 2594,1127 2482,1126 2370,1126 2258,1126 2146,1124 2034,1121 1922,1122 1810,1122 1698,1117 1586,1114 1474,1114 1363,1110 1363,1092 Z"/>
 <text class="TextShape"><tspan class="TextParagraph" font-family="Arial, sans-serif" font-size="388px" font-weight="400"><tspan class="TextPosition" x="1162" y="11144"><tspan fill="rgb(0,0,0)" stroke="none">2008</tspan></tspan></tspan></text>
 <text class="TextShape"><tspan class="TextParagraph" font-family="Arial, sans-serif" font-size="388px" font-weight="400"><tspan class="TextPosition" x="2506" y="11144"><tspan fill="rgb(0,0,0)" stroke="none">2009</tspan></tspan></tspan></text>
 <text class="TextShape"><tspan class="TextParagraph" font-family="Arial, sans-serif" font-size="388px" font-weight="400"><tspan class="TextPosition" x="3850" y="11144"><tspan fill="rgb(0,0,0)" stroke="none">2010</tspan></tspan></tspan></text>
 <text class="TextShape"><tspan class="TextParagraph" font-family="Arial, sans-serif" font-size="388px" font-weight="400"><tspan class="TextPosition" x="5194" y="11144"><tspan fill="rgb(0,0,0)" stroke="none">2011</tspan></tspan></tspan></text>
 <text class="TextShape"><tspan class="TextParagraph" font-family="Arial, sans-serif" font-size="388px" font-weight="400"><tspan class="TextPosition" x="6538" y="11144"><tspan fill="rgb(0,0,0)" stroke="none">2012</tspan></tspan></tspan></text>
 <text class="TextShape"><tspan class="TextParagraph" font-family="Arial, sans-serif" font-size="388px" font-weight="400"><tspan class="TextPosition" x="7881" y="11144"><tspan fill="rgb(0,0,0)" stroke="none">2013</tspan></tspan></tspan></text>
 <text class="TextShape"><tspan class="TextParagraph" font-family="Arial, sans-serif" font-size="388px" font-weight="400"><tspan class="TextPosition" x="9225" y="11144"><tspan fill="rgb(0,0,0)" stroke="none">2014</tspan></tspan></tspan></text>
 <text class="TextShape"><tspan class="TextParagraph" font-family="Arial, sans-serif" font-size="388px" font-weight="400"><tspan class="TextPosition" x="10569" y="11144"><tspan fill="rgb(0,0,0)" stroke="none">2015</tspan></tspan></tspan></text>
 <text class="TextShape"><tspan class="TextParagraph" font-family="Arial, sans-serif" font-size="388px" font-weight="400"><tspan class="TextPosition" x="11913" y="11144"><tspan fill="rgb(0,0,0)" stroke="none">2016</tspan></tspan></tspan></text>
 <text class="TextShape"><tspan class="TextParagraph" font-family="Arial, sans-serif" font-size="388px" font-weight="400"><tspan class="TextPosition" x="13257" y="11144"><tspan fill="rgb(0,0,0)" stroke="none">2017</tspan></tspan></tspan></text>
 <text class="TextShape"><tspan class="TextParagraph" font-family="Arial, sans-serif" font-size="388px" font-weight="400"><tspan class="TextPosition" x="557" y="10684"><tspan fill="rgb(0,0,0)" stroke="none">0%</tspan></tspan></tspan></text>
 <text class="TextShape"><tspan class="TextParagraph" font-family="Arial, sans-serif" font-size="388px" font-weight="400"><tspan class="TextPosition" x="346" y="9738"><tspan fill="rgb(0,0,0)" stroke="none">10%</tspan></tspan></tspan></text>
 <text class="TextShape"><tspan class="TextParagraph" font-family="Arial, sans-serif" font-size="388px" font-weight="400"><tspan class="TextPosition" x="346" y="8792"><tspan fill="rgb(0,0,0)" stroke="none">20%</tspan></tspan></tspan></text>
 <text class="TextShape"><tspan class="TextParagraph" font-family="Arial, sans-serif" font-size="388px" font-weight="400"><tspan class="TextPosition" x="346" y="7846"><tspan fill="rgb(0,0,0)" stroke="none">30%</tspan></tspan></tspan></text>
 <text class="TextShape"><tspan class="TextParagraph" font-family="Arial, sans-serif" font-size="388px" font-weight="400"><tspan class="TextPosition" x="346" y="6900"><tspan fill="rgb(0,0,0)" stroke="none">40%</tspan></tspan></tspan></text>
 <text class="TextShape"><tspan class="TextParagraph" font-family="Arial, sans-serif" font-size="388px" font-weight="400"><tspan class="TextPosition" x="346" y="5954"><tspan fill="rgb(0,0,0)" stroke="none">50%</tspan></tspan></tspan></text>
 <text class="TextShape"><tspan class="TextParagraph" font-family="Arial, sans-serif" font-size="388px" font-weight="400"><tspan class="TextPosition" x="346" y="5008"><tspan fill="rgb(0,0,0)" stroke="none">60%</tspan></tspan></tspan></text>
 <text class="TextShape"><tspan class="TextParagraph" font-family="Arial, sans-serif" font-size="388px" font-weight="400"><tspan class="TextPosition" x="346" y="4062"><tspan fill="rgb(0,0,0)" stroke="none">70%</tspan></tspan></tspan></text>
 <text class="TextShape"><tspan class="TextParagraph" font-family="Arial, sans-serif" font-size="388px" font-weight="400"><tspan class="TextPosition" x="346" y="3116"><tspan fill="rgb(0,0,0)" stroke="none">80%</tspan></tspan></tspan></text>
 <text class="TextShape"><tspan class="TextParagraph" font-family="Arial, sans-serif" font-size="388px" font-weight="400"><tspan class="TextPosition" x="346" y="2170"><tspan fill="rgb(0,0,0)" stroke="none">90%</tspan></tspan></tspan></text>
 <text class="TextShape"><tspan class="TextParagraph" font-family="Arial, sans-serif" font-size="388px" font-weight="400"><tspan class="TextPosition" x="134" y="1225"><tspan fill="rgb(0,0,0)" stroke="none">100%</tspan></tspan></tspan></text>
 <text class="TextShape"><tspan class="TextParagraph" font-family="Arial, sans-serif" font-size="388px" font-weight="400"><tspan class="TextPosition" x="14938" y="10684"><tspan fill="rgb(0,0,0)" stroke="none">0%</tspan></tspan></tspan></text>
 <text class="TextShape"><tspan class="TextParagraph" font-family="Arial, sans-serif" font-size="388px" font-weight="400"><tspan class="TextPosition" x="14938" y="9738"><tspan fill="rgb(0,0,0)" stroke="none">10%</tspan></tspan></tspan></text>
 <text class="TextShape"><tspan class="TextParagraph" font-family="Arial, sans-serif" font-size="388px" font-weight="400"><tspan class="TextPosition" x="14938" y="8792"><tspan fill="rgb(0,0,0)" stroke="none">20%</tspan></tspan></tspan></text>
 <text class="TextShape"><tspan class="TextParagraph" font-family="Arial, sans-serif" font-size="388px" font-weight="400"><tspan class="TextPosition" x="14938" y="7846"><tspan fill="rgb(0,0,0)" stroke="none">30%</tspan></tspan></tspan></text>
 <text class="TextShape"><tspan class="TextParagraph" font-family="Arial, sans-serif" font-size="388px" font-weight="400"><tspan class="TextPosition" x="14938" y="6900"><tspan fill="rgb(0,0,0)" stroke="none">40%</tspan></tspan></tspan></text>
 <text class="TextShape"><tspan class="TextParagraph" font-family="Arial, sans-serif" font-size="388px" font-weight="400"><tspan class="TextPosition" x="14938" y="5954"><tspan fill="rgb(0,0,0)" stroke="none">50%</tspan></tspan></tspan></text>
 <text class="TextShape"><tspan class="TextParagraph" font-family="Arial, sans-serif" font-size="388px" font-weight="400"><tspan class="TextPosition" x="14938" y="5008"><tspan fill="rgb(0,0,0)" stroke="none">60%</tspan></tspan></tspan></text>
 <text class="TextShape"><tspan class="TextParagraph" font-family="Arial, sans-serif" font-size="388px" font-weight="400"><tspan class="TextPosition" x="14938" y="4062"><tspan fill="rgb(0,0,0)" stroke="none">70%</tspan></tspan></tspan></text>
 <text class="TextShape"><tspan class="TextParagraph" font-family="Arial, sans-serif" font-size="388px" font-weight="400"><tspan class="TextPosition" x="14938" y="3116"><tspan fill="rgb(0,0,0)" stroke="none">80%</tspan></tspan></tspan></text>
 <text class="TextShape"><tspan class="TextParagraph" font-family="Arial, sans-serif" font-size="388px" font-weight="400"><tspan class="TextPosition" x="14938" y="2170"><tspan fill="rgb(0,0,0)" stroke="none">90%</tspan></tspan></tspan></text>
 <text class="TextShape"><tspan class="TextParagraph" font-family="Arial, sans-serif" font-size="388px" font-weight="400"><tspan class="TextPosition" x="14938" y="1225"><tspan fill="rgb(0,0,0)" stroke="none">100%</tspan></tspan></tspan></text>
 <text class="TextShape"><tspan class="TextParagraph" font-family="Arial, sans-serif" font-size="564px" font-weight="400"><tspan class="TextPosition" x="1427" y="673"><tspan fill="rgb(0,0,0)" stroke="none">Sistemas operativos con los que se accede a la web</tspan></tspan></tspan></text>
 <path fill="rgb(0,71,255)" stroke="none" d="M 2421,11805 L 2305,11805 2305,11573 2537,11573 2537,11805 2421,11805 Z"/>
 <path fill="none" stroke="rgb(0,0,0)" stroke-linejoin="round" d="M 2421,11805 L 2305,11805 2305,11573 2537,11573 2537,11805 2421,11805 Z"/>
 <path fill="rgb(102,102,102)" stroke="none" d="M 4599,11805 L 4483,11805 4483,11573 4715,11573 4715,11805 4599,11805 Z"/>
 <path fill="none" stroke="rgb(0,0,0)" stroke-linejoin="round" d="M 4599,11805 L 4483,11805 4483,11573 4715,11573 4715,11805 4599,11805 Z"/>
 <path fill="rgb(220,35,0)" stroke="none" d="M 5930,11805 L 5814,11805 5814,11573 6046,11573 6046,11805 5930,11805 Z"/>
 <path fill="none" stroke="rgb(0,0,0)" stroke-linejoin="round" d="M 5930,11805 L 5814,11805 5814,11573 6046,11573 6046,11805 5930,11805 Z"/>
 <path fill="rgb(174,207,0)" stroke="none" d="M 7446,11805 L 7330,11805 7330,11573 7562,11573 7562,11805 7446,11805 Z"/>
 <path fill="none" stroke="rgb(0,0,0)" stroke-linejoin="round" d="M 7446,11805 L 7330,11805 7330,11573 7562,11573 7562,11805 7446,11805 Z"/>
 <path fill="rgb(204,204,204)" stroke="none" d="M 9358,11805 L 9242,11805 9242,11573 9474,11573 9474,11805 9358,11805 Z"/>
 <path fill="none" stroke="rgb(0,0,0)" stroke-linejoin="round" d="M 9358,11805 L 9242,11805 9242,11573 9474,11573 9474,11805 9358,11805 Z"/>
 <path fill="rgb(153,153,153)" stroke="none" d="M 10715,11805 L 10599,11805 10599,11573 10831,11573 10831,11805 10715,11805 Z"/>
 <path fill="none" stroke="rgb(0,0,0)" stroke-linejoin="round" d="M 10715,11805 L 10599,11805 10599,11573 10831,11573 10831,11805 10715,11805 Z"/>
 <path fill="rgb(255,255,255)" stroke="none" d="M 12496,11805 L 12380,11805 12380,11573 12612,11573 12612,11805 12496,11805 Z"/>
 <path fill="none" stroke="rgb(0,0,0)" stroke-linejoin="round" d="M 12496,11805 L 12380,11805 12380,11573 12612,11573 12612,11805 12496,11805 Z"/>
 <text class="TextShape"><tspan class="TextParagraph" font-family="Arial, sans-serif" font-size="388px" font-weight="400"><tspan class="TextPosition" x="2637" y="11821"><tspan fill="rgb(0,0,0)" stroke="none">Windows</tspan></tspan></tspan></text>
 <text class="TextShape"><tspan class="TextParagraph" font-family="Arial, sans-serif" font-size="388px" font-weight="400"><tspan class="TextPosition" x="4815" y="11821"><tspan fill="rgb(0,0,0)" stroke="none">Mac</tspan></tspan></tspan></text>
 <text class="TextShape"><tspan class="TextParagraph" font-family="Arial, sans-serif" font-size="388px" font-weight="400"><tspan class="TextPosition" x="6146" y="11821"><tspan fill="rgb(0,0,0)" stroke="none">Linux</tspan></tspan></tspan></text>
 <text class="TextShape"><tspan class="TextParagraph" font-family="Arial, sans-serif" font-size="388px" font-weight="400"><tspan class="TextPosition" x="7662" y="11821"><tspan fill="rgb(0,0,0)" stroke="none">Android</tspan></tspan></tspan></text>
 <text class="TextShape"><tspan class="TextParagraph" font-family="Arial, sans-serif" font-size="388px" font-weight="400"><tspan class="TextPosition" x="9574" y="11821"><tspan fill="rgb(0,0,0)" stroke="none">iPad</tspan></tspan></tspan></text>
 <text class="TextShape"><tspan class="TextParagraph" font-family="Arial, sans-serif" font-size="388px" font-weight="400"><tspan class="TextPosition" x="10931" y="11821"><tspan fill="rgb(0,0,0)" stroke="none">iPhone</tspan></tspan></tspan></text>
 <text class="TextShape"><tspan class="TextParagraph" font-family="Arial, sans-serif" font-size="388px" font-weight="400"><tspan class="TextPosition" x="12712" y="11821"><tspan fill="rgb(0,0,0)" stroke="none">Otros</tspan></tspan></tspan></text>
</svg>
