<?xml version="1.0" encoding="UTF-8"?>
<!DOCTYPE svg PUBLIC "-//W3C//DTD SVG 1.1//EN" "http://www.w3.org/Graphics/SVG/1.1/DTD/svg11.dtd">
<svg width="160mm" height="120mm" viewBox="0 0 16000 12000" version="1.1" baseProfile="tiny" xmlns="http://www.w3.org/2000/svg" stroke-width="28.222" stroke-linejoin="round" xml:space="preserve">
 <path fill="rgb(255,255,255)" stroke="none" d="M 7962,12000 L -38,12000 -38,0 15962,0 15962,12000 7962,12000 Z"/>
 <path fill="none" stroke="rgb(0,0,0)" stroke-linejoin="round" d="M 8537,11096 L 2063,11096 2063,765 15011,765 15011,11096 8537,11096 Z"/>
 <path fill="none" stroke="rgb(0,0,0)" stroke-linejoin="round" d="M 15011,11095 L 2063,11095"/>
 <path fill="none" stroke="rgb(0,0,0)" stroke-linejoin="round" d="M 15011,9803 L 2063,9803"/>
 <path fill="none" stroke="rgb(0,0,0)" stroke-linejoin="round" d="M 15011,8512 L 2063,8512"/>
 <path fill="none" stroke="rgb(0,0,0)" stroke-linejoin="round" d="M 15011,7220 L 2063,7220"/>
 <path fill="none" stroke="rgb(0,0,0)" stroke-linejoin="round" d="M 15011,5930 L 2063,5930"/>
 <path fill="none" stroke="rgb(0,0,0)" stroke-linejoin="round" d="M 15011,4638 L 2063,4638"/>
 <path fill="none" stroke="rgb(0,0,0)" stroke-linejoin="round" d="M 15011,3347 L 2063,3347"/>
 <path fill="none" stroke="rgb(0,0,0)" stroke-linejoin="round" d="M 15011,2055 L 2063,2055"/>
 <path fill="none" stroke="rgb(0,0,0)" stroke-linejoin="round" d="M 15011,764 L 2063,764"/>
 <path fill="none" stroke="rgb(0,0,0)" stroke-linejoin="round" d="M 2063,11245 L 2063,11095"/>
 <path fill="none" stroke="rgb(0,0,0)" stroke-linejoin="round" d="M 2063,11245 L 2063,11095"/>
 <path fill="none" stroke="rgb(0,0,0)" stroke-linejoin="round" d="M 3912,11245 L 3912,11095"/>
 <path fill="none" stroke="rgb(0,0,0)" stroke-linejoin="round" d="M 3912,11245 L 3912,11095"/>
 <path fill="none" stroke="rgb(0,0,0)" stroke-linejoin="round" d="M 5762,11245 L 5762,11095"/>
 <path fill="none" stroke="rgb(0,0,0)" stroke-linejoin="round" d="M 5762,11245 L 5762,11095"/>
 <path fill="none" stroke="rgb(0,0,0)" stroke-linejoin="round" d="M 7612,11245 L 7612,11095"/>
 <path fill="none" stroke="rgb(0,0,0)" stroke-linejoin="round" d="M 7612,11245 L 7612,11095"/>
 <path fill="none" stroke="rgb(0,0,0)" stroke-linejoin="round" d="M 9461,11245 L 9461,11095"/>
 <path fill="none" stroke="rgb(0,0,0)" stroke-linejoin="round" d="M 9461,11245 L 9461,11095"/>
 <path fill="none" stroke="rgb(0,0,0)" stroke-linejoin="round" d="M 11311,11245 L 11311,11095"/>
 <path fill="none" stroke="rgb(0,0,0)" stroke-linejoin="round" d="M 11311,11245 L 11311,11095"/>
 <path fill="none" stroke="rgb(0,0,0)" stroke-linejoin="round" d="M 13161,11245 L 13161,11095"/>
 <path fill="none" stroke="rgb(0,0,0)" stroke-linejoin="round" d="M 13161,11245 L 13161,11095"/>
 <path fill="none" stroke="rgb(0,0,0)" stroke-linejoin="round" d="M 15011,11245 L 15011,11095"/>
 <path fill="none" stroke="rgb(0,0,0)" stroke-linejoin="round" d="M 15011,11245 L 15011,11095"/>
 <path fill="none" stroke="rgb(0,0,0)" stroke-linejoin="round" d="M 2063,11095 L 15011,11095"/>
 <path fill="none" stroke="rgb(0,0,0)" stroke-linejoin="round" d="M 1913,11095 L 2063,11095"/>
 <path fill="none" stroke="rgb(0,0,0)" stroke-linejoin="round" d="M 1913,11095 L 2063,11095"/>
 <path fill="none" stroke="rgb(0,0,0)" stroke-linejoin="round" d="M 1913,9803 L 2063,9803"/>
 <path fill="none" stroke="rgb(0,0,0)" stroke-linejoin="round" d="M 1913,9803 L 2063,9803"/>
 <path fill="none" stroke="rgb(0,0,0)" stroke-linejoin="round" d="M 1913,8512 L 2063,8512"/>
 <path fill="none" stroke="rgb(0,0,0)" stroke-linejoin="round" d="M 1913,8512 L 2063,8512"/>
 <path fill="none" stroke="rgb(0,0,0)" stroke-linejoin="round" d="M 1913,7220 L 2063,7220"/>
 <path fill="none" stroke="rgb(0,0,0)" stroke-linejoin="round" d="M 1913,7220 L 2063,7220"/>
 <path fill="none" stroke="rgb(0,0,0)" stroke-linejoin="round" d="M 1913,5930 L 2063,5930"/>
 <path fill="none" stroke="rgb(0,0,0)" stroke-linejoin="round" d="M 1913,5930 L 2063,5930"/>
 <path fill="none" stroke="rgb(0,0,0)" stroke-linejoin="round" d="M 1913,4638 L 2063,4638"/>
 <path fill="none" stroke="rgb(0,0,0)" stroke-linejoin="round" d="M 1913,4638 L 2063,4638"/>
 <path fill="none" stroke="rgb(0,0,0)" stroke-linejoin="round" d="M 1913,3347 L 2063,3347"/>
 <path fill="none" stroke="rgb(0,0,0)" stroke-linejoin="round" d="M 1913,3347 L 2063,3347"/>
 <path fill="none" stroke="rgb(0,0,0)" stroke-linejoin="round" d="M 1913,2055 L 2063,2055"/>
 <path fill="none" stroke="rgb(0,0,0)" stroke-linejoin="round" d="M 1913,2055 L 2063,2055"/>
 <path fill="none" stroke="rgb(0,0,0)" stroke-linejoin="round" d="M 1913,764 L 2063,764"/>
 <path fill="none" stroke="rgb(0,0,0)" stroke-linejoin="round" d="M 1913,764 L 2063,764"/>
 <path fill="none" stroke="rgb(0,0,0)" stroke-linejoin="round" d="M 2063,11095 L 2063,764"/>
 <path fill="none" stroke="rgb(255,66,14)" stroke-width="100" stroke-linejoin="round" d="M 2432,10192 L 3542,9414 4652,8637 5392,8118 7612,6563 7981,6304 8351,6045 9091,5527 9461,5268 10571,4491 10941,4231 11311,3972 12051,3454 12791,2936 13531,2417 14641,1640"/>
 <path fill="rgb(0,69,134)" stroke="none" d="M 2307,10067 L 2307,10317 2557,10317 2557,10067 2307,10067 Z"/>
 <path fill="none" stroke="rgb(0,69,134)" stroke-linejoin="round" d="M 2307,10067 L 2307,10317 2557,10317 2557,10067 2307,10067 Z"/>
 <path fill="rgb(0,69,134)" stroke="none" d="M 3417,9678 L 3417,9928 3667,9928 3667,9678 3417,9678 Z"/>
 <path fill="none" stroke="rgb(0,69,134)" stroke-linejoin="round" d="M 3417,9678 L 3417,9928 3667,9928 3667,9678 3417,9678 Z"/>
 <path fill="rgb(0,69,134)" stroke="none" d="M 4527,9289 L 4527,9539 4777,9539 4777,9289 4527,9289 Z"/>
 <path fill="none" stroke="rgb(0,69,134)" stroke-linejoin="round" d="M 4527,9289 L 4527,9539 4777,9539 4777,9289 4527,9289 Z"/>
 <path fill="rgb(0,69,134)" stroke="none" d="M 5267,8900 L 5267,9150 5517,9150 5517,8900 5267,8900 Z"/>
 <path fill="none" stroke="rgb(0,69,134)" stroke-linejoin="round" d="M 5267,8900 L 5267,9150 5517,9150 5517,8900 5267,8900 Z"/>
 <path fill="rgb(0,69,134)" stroke="none" d="M 7487,7095 L 7487,7345 7737,7345 7737,7095 7487,7095 Z"/>
 <path fill="none" stroke="rgb(0,69,134)" stroke-linejoin="round" d="M 7487,7095 L 7487,7345 7737,7345 7737,7095 7487,7095 Z"/>
 <path fill="rgb(0,69,134)" stroke="none" d="M 7857,6706 L 7857,6956 8106,6956 8106,6706 7857,6706 Z"/>
 <path fill="none" stroke="rgb(0,69,134)" stroke-linejoin="round" d="M 7857,6706 L 7857,6956 8106,6956 8106,6706 7857,6706 Z"/>
 <path fill="rgb(0,69,134)" stroke="none" d="M 8226,6054 L 8226,6304 8476,6304 8476,6054 8226,6054 Z"/>
 <path fill="none" stroke="rgb(0,69,134)" stroke-linejoin="round" d="M 8226,6054 L 8226,6304 8476,6304 8476,6054 8226,6054 Z"/>
 <path fill="rgb(0,69,134)" stroke="none" d="M 8966,5793 L 8966,6042 9216,6042 9216,5793 8966,5793 Z"/>
 <path fill="none" stroke="rgb(0,69,134)" stroke-linejoin="round" d="M 8966,5793 L 8966,6042 9216,6042 9216,5793 8966,5793 Z"/>
 <path fill="rgb(0,69,134)" stroke="none" d="M 9336,4800 L 9336,5050 9586,5050 9586,4800 9336,4800 Z"/>
 <path fill="none" stroke="rgb(0,69,134)" stroke-linejoin="round" d="M 9336,4800 L 9336,5050 9586,5050 9586,4800 9336,4800 Z"/>
 <path fill="rgb(0,69,134)" stroke="none" d="M 10446,4411 L 10446,4661 10696,4661 10696,4411 10446,4411 Z"/>
 <path fill="none" stroke="rgb(0,69,134)" stroke-linejoin="round" d="M 10446,4411 L 10446,4661 10696,4661 10696,4411 10446,4411 Z"/>
 <path fill="rgb(0,69,134)" stroke="none" d="M 10816,3999 L 10816,4249 11066,4249 11066,3999 10816,3999 Z"/>
 <path fill="none" stroke="rgb(0,69,134)" stroke-linejoin="round" d="M 10816,3999 L 10816,4249 11066,4249 11066,3999 10816,3999 Z"/>
 <path fill="rgb(0,69,134)" stroke="none" d="M 11186,3610 L 11186,3860 11436,3860 11436,3610 11186,3610 Z"/>
 <path fill="none" stroke="rgb(0,69,134)" stroke-linejoin="round" d="M 11186,3610 L 11186,3860 11436,3860 11436,3610 11186,3610 Z"/>
 <path fill="rgb(0,69,134)" stroke="none" d="M 11926,3222 L 11926,3472 12176,3472 12176,3222 11926,3222 Z"/>
 <path fill="none" stroke="rgb(0,69,134)" stroke-linejoin="round" d="M 11926,3222 L 11926,3472 12176,3472 12176,3222 11926,3222 Z"/>
 <path fill="rgb(0,69,134)" stroke="none" d="M 12666,2833 L 12666,3083 12916,3083 12916,2833 12666,2833 Z"/>
 <path fill="none" stroke="rgb(0,69,134)" stroke-linejoin="round" d="M 12666,2833 L 12666,3083 12916,3083 12916,2833 12666,2833 Z"/>
 <path fill="rgb(0,69,134)" stroke="none" d="M 13406,2444 L 13406,2694 13656,2694 13656,2444 13406,2444 Z"/>
 <path fill="none" stroke="rgb(0,69,134)" stroke-linejoin="round" d="M 13406,2444 L 13406,2694 13656,2694 13656,2444 13406,2444 Z"/>
 <path fill="rgb(0,69,134)" stroke="none" d="M 14516,2055 L 14516,2305 14766,2305 14766,2055 14516,2055 Z"/>
 <path fill="none" stroke="rgb(0,69,134)" stroke-linejoin="round" d="M 14516,2055 L 14516,2305 14766,2305 14766,2055 14516,2055 Z"/>
 <text class="TextShape"><tspan class="TextParagraph" font-family="Arial" font-size="388px" font-weight="400"><tspan class="TextPosition" x="1639" y="11715"><tspan fill="rgb(0,0,0)" stroke="none">1980</tspan></tspan></tspan></text>
 <text class="TextShape"><tspan class="TextParagraph" font-family="Arial" font-size="388px" font-weight="400"><tspan class="TextPosition" x="3488" y="11715"><tspan fill="rgb(0,0,0)" stroke="none">1985</tspan></tspan></tspan></text>
 <text class="TextShape"><tspan class="TextParagraph" font-family="Arial" font-size="388px" font-weight="400"><tspan class="TextPosition" x="5338" y="11715"><tspan fill="rgb(0,0,0)" stroke="none">1990</tspan></tspan></tspan></text>
 <text class="TextShape"><tspan class="TextParagraph" font-family="Arial" font-size="388px" font-weight="400"><tspan class="TextPosition" x="7188" y="11715"><tspan fill="rgb(0,0,0)" stroke="none">1995</tspan></tspan></tspan></text>
 <text class="TextShape"><tspan class="TextParagraph" font-family="Arial" font-size="388px" font-weight="400"><tspan class="TextPosition" x="9038" y="11715"><tspan fill="rgb(0,0,0)" stroke="none">2000</tspan></tspan></tspan></text>
 <text class="TextShape"><tspan class="TextParagraph" font-family="Arial" font-size="388px" font-weight="400"><tspan class="TextPosition" x="10888" y="11715"><tspan fill="rgb(0,0,0)" stroke="none">2005</tspan></tspan></tspan></text>
 <text class="TextShape"><tspan class="TextParagraph" font-family="Arial" font-size="388px" font-weight="400"><tspan class="TextPosition" x="12738" y="11715"><tspan fill="rgb(0,0,0)" stroke="none">2010</tspan></tspan></tspan></text>
 <text class="TextShape"><tspan class="TextParagraph" font-family="Arial" font-size="388px" font-weight="400"><tspan class="TextPosition" x="14588" y="11715"><tspan fill="rgb(0,0,0)" stroke="none">2015</tspan></tspan></tspan></text>
 <text class="TextShape"><tspan class="TextParagraph" font-family="Liberation Sans" font-size="318px" font-weight="700"><tspan class="TextPosition" x="1628" y="11202"><tspan fill="rgb(0,0,0)" stroke="none">1</tspan></tspan></tspan></text>
 <text class="TextShape"><tspan class="TextParagraph" font-family="Liberation Sans" font-size="318px" font-weight="700"><tspan class="TextPosition" x="1443" y="9910"><tspan fill="rgb(0,0,0)" stroke="none">10</tspan></tspan></tspan></text>
 <text class="TextShape"><tspan class="TextParagraph" font-family="Liberation Sans" font-size="318px" font-weight="700"><tspan class="TextPosition" x="1257" y="8619"><tspan fill="rgb(0,0,0)" stroke="none">100</tspan></tspan></tspan></text>
 <text class="TextShape"><tspan class="TextParagraph" font-family="Liberation Sans" font-size="318px" font-weight="700"><tspan class="TextPosition" x="993" y="7327"><tspan fill="rgb(0,0,0)" stroke="none">1.000</tspan></tspan></tspan></text>
 <text class="TextShape"><tspan class="TextParagraph" font-family="Liberation Sans" font-size="318px" font-weight="700"><tspan class="TextPosition" x="808" y="6036"><tspan fill="rgb(0,0,0)" stroke="none">10.000</tspan></tspan></tspan></text>
 <text class="TextShape"><tspan class="TextParagraph" font-family="Liberation Sans" font-size="318px" font-weight="700"><tspan class="TextPosition" x="622" y="4744"><tspan fill="rgb(0,0,0)" stroke="none">100.000</tspan></tspan></tspan></text>
 <text class="TextShape"><tspan class="TextParagraph" font-family="Liberation Sans" font-size="318px" font-weight="700"><tspan class="TextPosition" x="358" y="3453"><tspan fill="rgb(0,0,0)" stroke="none">1.000.000</tspan></tspan></tspan></text>
 <text class="TextShape"><tspan class="TextParagraph" font-family="Liberation Sans" font-size="318px" font-weight="700"><tspan class="TextPosition" x="173" y="2161"><tspan fill="rgb(0,0,0)" stroke="none">10.000.000</tspan></tspan></tspan></text>
 <text class="TextShape"><tspan class="TextParagraph" font-family="Liberation Sans" font-size="318px" font-weight="700"><tspan class="TextPosition" x="-13" y="870"><tspan fill="rgb(0,0,0)" stroke="none">100.000.000</tspan></tspan></tspan></text>
 <text class="TextShape"><tspan class="TextParagraph" font-family="Arial" font-size="388px" font-weight="400"><tspan class="TextPosition" x="2658" y="10338"><tspan fill="rgb(0,0,0)" stroke="none">5 MB</tspan></tspan></tspan></text>
 <text class="TextShape"><tspan class="TextParagraph" font-family="Arial" font-size="388px" font-weight="400"><tspan class="TextPosition" x="3768" y="9949"><tspan fill="rgb(0,0,0)" stroke="none">10 MB</tspan></tspan></tspan></text>
 <text class="TextShape"><tspan class="TextParagraph" font-family="Arial" font-size="388px" font-weight="400"><tspan class="TextPosition" x="4878" y="9560"><tspan fill="rgb(0,0,0)" stroke="none">20 MB</tspan></tspan></tspan></text>
 <text class="TextShape"><tspan class="TextParagraph" font-family="Arial" font-size="388px" font-weight="400"><tspan class="TextPosition" x="5618" y="9171"><tspan fill="rgb(0,0,0)" stroke="none">40 MB</tspan></tspan></tspan></text>
 <text class="TextShape"><tspan class="TextParagraph" font-family="Arial" font-size="388px" font-weight="400"><tspan class="TextPosition" x="7838" y="7366"><tspan fill="rgb(0,0,0)" stroke="none">1,0 GB</tspan></tspan></tspan></text>
 <text class="TextShape"><tspan class="TextParagraph" font-family="Arial" font-size="388px" font-weight="400"><tspan class="TextPosition" x="8207" y="6977"><tspan fill="rgb(0,0,0)" stroke="none">2,0 GB</tspan></tspan></tspan></text>
 <text class="TextShape"><tspan class="TextParagraph" font-family="Arial" font-size="388px" font-weight="400"><tspan class="TextPosition" x="8577" y="6325"><tspan fill="rgb(0,0,0)" stroke="none">6,4 GB</tspan></tspan></tspan></text>
 <text class="TextShape"><tspan class="TextParagraph" font-family="Arial" font-size="388px" font-weight="400"><tspan class="TextPosition" x="9317" y="6063"><tspan fill="rgb(0,0,0)" stroke="none">10,2 GB</tspan></tspan></tspan></text>
 <text class="TextShape"><tspan class="TextParagraph" font-family="Arial" font-size="388px" font-weight="400"><tspan class="TextPosition" x="9687" y="5070"><tspan fill="rgb(0,0,0)" stroke="none">60 GB</tspan></tspan></tspan></text>
 <text class="TextShape"><tspan class="TextParagraph" font-family="Arial" font-size="388px" font-weight="400"><tspan class="TextPosition" x="10797" y="4681"><tspan fill="rgb(0,0,0)" stroke="none">120 GB</tspan></tspan></tspan></text>
 <text class="TextShape"><tspan class="TextParagraph" font-family="Arial" font-size="388px" font-weight="400"><tspan class="TextPosition" x="11167" y="4269"><tspan fill="rgb(0,0,0)" stroke="none">250 GB</tspan></tspan></tspan></text>
 <text class="TextShape"><tspan class="TextParagraph" font-family="Arial" font-size="388px" font-weight="400"><tspan class="TextPosition" x="11537" y="3880"><tspan fill="rgb(0,0,0)" stroke="none">500 GB</tspan></tspan></tspan></text>
 <text class="TextShape"><tspan class="TextParagraph" font-family="Arial" font-size="388px" font-weight="400"><tspan class="TextPosition" x="12277" y="3492"><tspan fill="rgb(0,0,0)" stroke="none">1 TB</tspan></tspan></tspan></text>
 <text class="TextShape"><tspan class="TextParagraph" font-family="Arial" font-size="388px" font-weight="400"><tspan class="TextPosition" x="13017" y="3103"><tspan fill="rgb(0,0,0)" stroke="none">2 TB</tspan></tspan></tspan></text>
 <text class="TextShape"><tspan class="TextParagraph" font-family="Arial" font-size="388px" font-weight="400"><tspan class="TextPosition" x="13757" y="2714"><tspan fill="rgb(0,0,0)" stroke="none">4 TB</tspan></tspan></tspan></text>
 <text class="TextShape"><tspan class="TextParagraph" font-family="Arial" font-size="388px" font-weight="400"><tspan class="TextPosition" x="14867" y="2325"><tspan fill="rgb(0,0,0)" stroke="none">8 TB</tspan></tspan></tspan></text>
 <text class="TextShape"><tspan class="TextParagraph" font-family="Arial" font-size="635px" font-weight="400"><tspan class="TextPosition" x="4500" y="747"><tspan fill="rgb(0,0,0)" stroke="none">Capacidad de los discos duros</tspan></tspan></tspan></text>
 <path fill="none" stroke="rgb(0,0,0)" stroke-linejoin="round" d="M 12898,8619 L 11000,8619 11000,7284 14795,7284 14795,8619 12898,8619 Z"/>
 <path fill="rgb(0,69,134)" stroke="none" d="M 11669,7552 L 11669,7763 11880,7763 11880,7552 11669,7552 Z"/>
 <path fill="none" stroke="rgb(0,69,134)" stroke-linejoin="round" d="M 11669,7552 L 11669,7763 11880,7763 11880,7552 11669,7552 Z"/>
 <path fill="none" stroke="rgb(255,66,14)" stroke-width="100" stroke-linejoin="round" d="M 11375,8243 L 12175,8243"/>
 <text class="TextShape"><tspan class="TextParagraph" font-family="Arial" font-size="353px" font-weight="400"><tspan class="TextPosition" x="12275" y="7790"><tspan fill="rgb(0,0,0)" stroke="none">Discos duros</tspan></tspan></tspan></text>
 <text class="TextShape"><tspan class="TextParagraph" font-family="Arial" font-size="353px" font-weight="400"><tspan class="TextPosition" x="12275" y="8376"><tspan fill="rgb(0,0,0)" stroke="none">Ley de Kryder</tspan></tspan></tspan></text>
 <text class="TextShape"><tspan class="TextParagraph" font-family="Arial" font-size="388px" font-weight="400"><tspan class="TextPosition" x="396" y="486"><tspan fill="rgb(0,0,0)" stroke="none">MBytes</tspan></tspan></tspan></text>
</svg>
