<?xml version="1.0" encoding="UTF-8"?>
<!DOCTYPE svg PUBLIC "-//W3C//DTD SVG 1.1//EN" "http://www.w3.org/Graphics/SVG/1.1/DTD/svg11.dtd">
<svg width="160mm" height="120mm" viewBox="0 0 16000 12000" version="1.1" baseProfile="tiny" xmlns="http://www.w3.org/2000/svg" stroke-width="28.222" stroke-linejoin="round" xml:space="preserve">
 <path fill="rgb(255,255,255)" stroke="none" d="M 8012,12000 L 24,12000 24,0 16000,0 16000,12000 8012,12000 Z"/>
 <path fill="none" stroke="rgb(0,0,0)" stroke-linejoin="round" d="M 8439,11103 L 1440,11103 1440,954 15438,954 15438,11103 8439,11103 Z"/>
 <path fill="none" stroke="rgb(0,0,0)" stroke-linejoin="round" d="M 15438,11102 L 1440,11102"/>
 <path fill="none" stroke="rgb(0,0,0)" stroke-linejoin="round" d="M 15438,9410 L 1440,9410"/>
 <path fill="none" stroke="rgb(0,0,0)" stroke-linejoin="round" d="M 15438,7718 L 1440,7718"/>
 <path fill="none" stroke="rgb(0,0,0)" stroke-linejoin="round" d="M 15438,6027 L 1440,6027"/>
 <path fill="none" stroke="rgb(0,0,0)" stroke-linejoin="round" d="M 15438,4336 L 1440,4336"/>
 <path fill="none" stroke="rgb(0,0,0)" stroke-linejoin="round" d="M 15438,2644 L 1440,2644"/>
 <path fill="none" stroke="rgb(0,0,0)" stroke-linejoin="round" d="M 15438,953 L 1440,953"/>
 <path fill="none" stroke="rgb(0,0,0)" stroke-linejoin="round" d="M 1440,11252 L 1440,11102"/>
 <path fill="none" stroke="rgb(0,0,0)" stroke-linejoin="round" d="M 1440,11252 L 1440,11102"/>
 <path fill="none" stroke="rgb(0,0,0)" stroke-linejoin="round" d="M 3189,11252 L 3189,11102"/>
 <path fill="none" stroke="rgb(0,0,0)" stroke-linejoin="round" d="M 3189,11252 L 3189,11102"/>
 <path fill="none" stroke="rgb(0,0,0)" stroke-linejoin="round" d="M 4939,11252 L 4939,11102"/>
 <path fill="none" stroke="rgb(0,0,0)" stroke-linejoin="round" d="M 4939,11252 L 4939,11102"/>
 <path fill="none" stroke="rgb(0,0,0)" stroke-linejoin="round" d="M 6689,11252 L 6689,11102"/>
 <path fill="none" stroke="rgb(0,0,0)" stroke-linejoin="round" d="M 6689,11252 L 6689,11102"/>
 <path fill="none" stroke="rgb(0,0,0)" stroke-linejoin="round" d="M 8439,11252 L 8439,11102"/>
 <path fill="none" stroke="rgb(0,0,0)" stroke-linejoin="round" d="M 8439,11252 L 8439,11102"/>
 <path fill="none" stroke="rgb(0,0,0)" stroke-linejoin="round" d="M 10188,11252 L 10188,11102"/>
 <path fill="none" stroke="rgb(0,0,0)" stroke-linejoin="round" d="M 10188,11252 L 10188,11102"/>
 <path fill="none" stroke="rgb(0,0,0)" stroke-linejoin="round" d="M 11938,11252 L 11938,11102"/>
 <path fill="none" stroke="rgb(0,0,0)" stroke-linejoin="round" d="M 11938,11252 L 11938,11102"/>
 <path fill="none" stroke="rgb(0,0,0)" stroke-linejoin="round" d="M 13688,11252 L 13688,11102"/>
 <path fill="none" stroke="rgb(0,0,0)" stroke-linejoin="round" d="M 13688,11252 L 13688,11102"/>
 <path fill="none" stroke="rgb(0,0,0)" stroke-linejoin="round" d="M 15438,11252 L 15438,11102"/>
 <path fill="none" stroke="rgb(0,0,0)" stroke-linejoin="round" d="M 15438,11252 L 15438,11102"/>
 <path fill="none" stroke="rgb(0,0,0)" stroke-linejoin="round" d="M 1440,11102 L 15438,11102"/>
 <path fill="none" stroke="rgb(0,0,0)" stroke-linejoin="round" d="M 1290,11102 L 1440,11102"/>
 <path fill="none" stroke="rgb(0,0,0)" stroke-linejoin="round" d="M 1290,11102 L 1440,11102"/>
 <path fill="none" stroke="rgb(0,0,0)" stroke-linejoin="round" d="M 1290,9410 L 1440,9410"/>
 <path fill="none" stroke="rgb(0,0,0)" stroke-linejoin="round" d="M 1290,9410 L 1440,9410"/>
 <path fill="none" stroke="rgb(0,0,0)" stroke-linejoin="round" d="M 1290,7718 L 1440,7718"/>
 <path fill="none" stroke="rgb(0,0,0)" stroke-linejoin="round" d="M 1290,7718 L 1440,7718"/>
 <path fill="none" stroke="rgb(0,0,0)" stroke-linejoin="round" d="M 1290,6027 L 1440,6027"/>
 <path fill="none" stroke="rgb(0,0,0)" stroke-linejoin="round" d="M 1290,6027 L 1440,6027"/>
 <path fill="none" stroke="rgb(0,0,0)" stroke-linejoin="round" d="M 1290,4336 L 1440,4336"/>
 <path fill="none" stroke="rgb(0,0,0)" stroke-linejoin="round" d="M 1290,4336 L 1440,4336"/>
 <path fill="none" stroke="rgb(0,0,0)" stroke-linejoin="round" d="M 1290,2644 L 1440,2644"/>
 <path fill="none" stroke="rgb(0,0,0)" stroke-linejoin="round" d="M 1290,2644 L 1440,2644"/>
 <path fill="none" stroke="rgb(0,0,0)" stroke-linejoin="round" d="M 1290,953 L 1440,953"/>
 <path fill="none" stroke="rgb(0,0,0)" stroke-linejoin="round" d="M 1290,953 L 1440,953"/>
 <path fill="none" stroke="rgb(0,0,0)" stroke-linejoin="round" d="M 1440,11102 L 1440,953"/>
 <path fill="rgb(0,69,134)" stroke="none" d="M 3415,10813 L 3415,11063 3664,11063 3664,10813 3415,10813 Z"/>
 <path fill="none" stroke="rgb(0,69,134)" stroke-linejoin="round" d="M 3415,10813 L 3415,11063 3664,11063 3664,10813 3415,10813 Z"/>
 <path fill="rgb(0,69,134)" stroke="none" d="M 4814,9121 L 4814,9371 5064,9371 5064,9121 4814,9121 Z"/>
 <path fill="none" stroke="rgb(0,69,134)" stroke-linejoin="round" d="M 4814,9121 L 4814,9371 5064,9371 5064,9121 4814,9121 Z"/>
 <path fill="rgb(0,69,134)" stroke="none" d="M 6564,7429 L 6564,7679 6813,7679 6813,7429 6564,7429 Z"/>
 <path fill="none" stroke="rgb(0,69,134)" stroke-linejoin="round" d="M 6564,7429 L 6564,7679 6813,7679 6813,7429 6564,7429 Z"/>
 <path fill="rgb(0,69,134)" stroke="none" d="M 7964,5739 L 7964,5989 8213,5989 8213,5739 7964,5739 Z"/>
 <path fill="none" stroke="rgb(0,69,134)" stroke-linejoin="round" d="M 7964,5739 L 7964,5989 8213,5989 8213,5739 7964,5739 Z"/>
 <path fill="rgb(0,69,134)" stroke="none" d="M 10414,4047 L 10414,4297 10663,4297 10663,4047 10414,4047 Z"/>
 <path fill="none" stroke="rgb(0,69,134)" stroke-linejoin="round" d="M 10414,4047 L 10414,4297 10663,4297 10663,4047 10414,4047 Z"/>
 <path fill="rgb(0,69,134)" stroke="none" d="M 13913,2355 L 13913,2605 14163,2605 14163,2355 13913,2355 Z"/>
 <path fill="none" stroke="rgb(0,69,134)" stroke-linejoin="round" d="M 13913,2355 L 13913,2605 14163,2605 14163,2355 13913,2355 Z"/>
 <text class="TextShape"><tspan class="TextParagraph" font-family="Arial" font-size="388px" font-weight="400"><tspan class="TextPosition" x="1017" y="11722"><tspan fill="rgb(0,0,0)" stroke="none">1980</tspan></tspan></tspan></text>
 <text class="TextShape"><tspan class="TextParagraph" font-family="Arial" font-size="388px" font-weight="400"><tspan class="TextPosition" x="2766" y="11722"><tspan fill="rgb(0,0,0)" stroke="none">1985</tspan></tspan></tspan></text>
 <text class="TextShape"><tspan class="TextParagraph" font-family="Arial" font-size="388px" font-weight="400"><tspan class="TextPosition" x="4516" y="11722"><tspan fill="rgb(0,0,0)" stroke="none">1990</tspan></tspan></tspan></text>
 <text class="TextShape"><tspan class="TextParagraph" font-family="Arial" font-size="388px" font-weight="400"><tspan class="TextPosition" x="6266" y="11722"><tspan fill="rgb(0,0,0)" stroke="none">1995</tspan></tspan></tspan></text>
 <text class="TextShape"><tspan class="TextParagraph" font-family="Arial" font-size="388px" font-weight="400"><tspan class="TextPosition" x="8016" y="11722"><tspan fill="rgb(0,0,0)" stroke="none">2000</tspan></tspan></tspan></text>
 <text class="TextShape"><tspan class="TextParagraph" font-family="Arial" font-size="388px" font-weight="400"><tspan class="TextPosition" x="9765" y="11722"><tspan fill="rgb(0,0,0)" stroke="none">2005</tspan></tspan></tspan></text>
 <text class="TextShape"><tspan class="TextParagraph" font-family="Arial" font-size="388px" font-weight="400"><tspan class="TextPosition" x="11516" y="11722"><tspan fill="rgb(0,0,0)" stroke="none">2010</tspan></tspan></tspan></text>
 <text class="TextShape"><tspan class="TextParagraph" font-family="Arial" font-size="388px" font-weight="400"><tspan class="TextPosition" x="13265" y="11722"><tspan fill="rgb(0,0,0)" stroke="none">2015</tspan></tspan></tspan></text>
 <text class="TextShape"><tspan class="TextParagraph" font-family="Arial" font-size="388px" font-weight="400"><tspan class="TextPosition" x="15015" y="11722"><tspan fill="rgb(0,0,0)" stroke="none">2020</tspan></tspan></tspan></text>
 <text class="TextShape"><tspan class="TextParagraph" font-family="Liberation Sans" font-size="318px" font-weight="700"><tspan class="TextPosition" x="741" y="11209"><tspan fill="rgb(0,0,0)" stroke="none">0,1</tspan></tspan></tspan></text>
 <text class="TextShape"><tspan class="TextParagraph" font-family="Liberation Sans" font-size="318px" font-weight="700"><tspan class="TextPosition" x="1005" y="9517"><tspan fill="rgb(0,0,0)" stroke="none">1</tspan></tspan></tspan></text>
 <text class="TextShape"><tspan class="TextParagraph" font-family="Liberation Sans" font-size="318px" font-weight="700"><tspan class="TextPosition" x="821" y="7825"><tspan fill="rgb(0,0,0)" stroke="none">10</tspan></tspan></tspan></text>
 <text class="TextShape"><tspan class="TextParagraph" font-family="Liberation Sans" font-size="318px" font-weight="700"><tspan class="TextPosition" x="635" y="6134"><tspan fill="rgb(0,0,0)" stroke="none">100</tspan></tspan></tspan></text>
 <text class="TextShape"><tspan class="TextParagraph" font-family="Liberation Sans" font-size="318px" font-weight="700"><tspan class="TextPosition" x="371" y="4442"><tspan fill="rgb(0,0,0)" stroke="none">1.000</tspan></tspan></tspan></text>
 <text class="TextShape"><tspan class="TextParagraph" font-family="Liberation Sans" font-size="318px" font-weight="700"><tspan class="TextPosition" x="187" y="2750"><tspan fill="rgb(0,0,0)" stroke="none">10.000</tspan></tspan></tspan></text>
 <text class="TextShape"><tspan class="TextParagraph" font-family="Liberation Sans" font-size="318px" font-weight="700"><tspan class="TextPosition" x="1" y="1059"><tspan fill="rgb(0,0,0)" stroke="none">100.000</tspan></tspan></tspan></text>
 <text class="TextShape"><tspan class="TextParagraph" font-family="Liberation Sans" font-size="353px" font-weight="400"><tspan class="TextPosition" x="2787" y="10634"><tspan fill="rgb(0,0,0)" stroke="none">10BASE5</tspan></tspan></tspan></text>
 <text class="TextShape"><tspan class="TextParagraph" font-family="Liberation Sans" font-size="353px" font-weight="400"><tspan class="TextPosition" x="4134" y="8942"><tspan fill="rgb(0,0,0)" stroke="none">10BASE-T</tspan></tspan></tspan></text>
 <text class="TextShape"><tspan class="TextParagraph" font-family="Liberation Sans" font-size="353px" font-weight="400"><tspan class="TextPosition" x="5699" y="7250"><tspan fill="rgb(0,0,0)" stroke="none">100BASE-TX</tspan></tspan></tspan></text>
 <text class="TextShape"><tspan class="TextParagraph" font-family="Liberation Sans" font-size="353px" font-weight="400"><tspan class="TextPosition" x="7098" y="5560"><tspan fill="rgb(0,0,0)" stroke="none">1000BASE-T</tspan></tspan></tspan></text>
 <text class="TextShape"><tspan class="TextParagraph" font-family="Liberation Sans" font-size="353px" font-weight="400"><tspan class="TextPosition" x="9600" y="3868"><tspan fill="rgb(0,0,0)" stroke="none">10GBASE-T</tspan></tspan></tspan></text>
 <text class="TextShape"><tspan class="TextParagraph" font-family="Liberation Sans" font-size="353px" font-weight="400"><tspan class="TextPosition" x="13100" y="2176"><tspan fill="rgb(0,0,0)" stroke="none">40GBASE-T</tspan></tspan></tspan></text>
 <text class="TextShape"><tspan class="TextParagraph" font-family="Arial" font-size="635px" font-weight="400"><tspan class="TextPosition" x="2724" y="747"><tspan fill="rgb(0,0,0)" stroke="none">Velocidad de Ethernet sobre par trenzado</tspan></tspan></tspan></text>
 <path fill="none" stroke="rgb(0,0,0)" stroke-linejoin="round" d="M 13394,9201 L 11499,9201 11499,7866 15288,7866 15288,9201 13394,9201 Z"/>
 <path fill="rgb(0,69,134)" stroke="none" d="M 12590,8427 L 12590,8638 12801,8638 12801,8427 12590,8427 Z"/>
 <path fill="none" stroke="rgb(0,69,134)" stroke-linejoin="round" d="M 12590,8427 L 12590,8638 12801,8638 12801,8427 12590,8427 Z"/>
 <text class="TextShape"><tspan class="TextParagraph" font-family="Arial" font-size="353px" font-weight="400"><tspan class="TextPosition" x="12901" y="8665"><tspan fill="rgb(0,0,0)" stroke="none">Ethernet</tspan></tspan></tspan></text>
 <text class="TextShape"><tspan class="TextParagraph" font-family="Arial" font-size="388px" font-weight="400"><tspan class="TextPosition" x="248" y="486"><tspan fill="rgb(0,0,0)" stroke="none">MB/s</tspan></tspan></tspan></text>
</svg>
