<?xml version="1.0" encoding="UTF-8"?>
<!DOCTYPE svg PUBLIC "-//W3C//DTD SVG 1.1//EN" "http://www.w3.org/Graphics/SVG/1.1/DTD/svg11.dtd">
<svg width="160mm" height="120mm" viewBox="0 0 16000 12000" version="1.1" baseProfile="tiny" xmlns="http://www.w3.org/2000/svg" stroke-width="28.222" stroke-linejoin="round" xml:space="preserve">
 <path fill="rgb(255,255,255)" stroke="none" d="M 8000,12000 L 0,12000 0,0 16000,0 16000,12000 8000,12000 Z"/>
 <path fill="none" stroke="rgb(0,0,0)" stroke-linejoin="round" d="M 8424,10526 L 1733,10526 1733,374 15115,374 15115,10526 8424,10526 Z"/>
 <path fill="none" stroke="rgb(0,0,0)" stroke-linejoin="round" d="M 15115,10525 L 1733,10525"/>
 <path fill="none" stroke="rgb(0,0,0)" stroke-linejoin="round" d="M 15115,9509 L 1733,9509"/>
 <path fill="none" stroke="rgb(0,0,0)" stroke-linejoin="round" d="M 15115,8494 L 1733,8494"/>
 <path fill="none" stroke="rgb(0,0,0)" stroke-linejoin="round" d="M 15115,7479 L 1733,7479"/>
 <path fill="none" stroke="rgb(0,0,0)" stroke-linejoin="round" d="M 15115,6463 L 1733,6463"/>
 <path fill="none" stroke="rgb(0,0,0)" stroke-linejoin="round" d="M 15115,5449 L 1733,5449"/>
 <path fill="none" stroke="rgb(0,0,0)" stroke-linejoin="round" d="M 15115,4434 L 1733,4434"/>
 <path fill="none" stroke="rgb(0,0,0)" stroke-linejoin="round" d="M 15115,3418 L 1733,3418"/>
 <path fill="none" stroke="rgb(0,0,0)" stroke-linejoin="round" d="M 15115,2403 L 1733,2403"/>
 <path fill="none" stroke="rgb(0,0,0)" stroke-linejoin="round" d="M 15115,1388 L 1733,1388"/>
 <path fill="none" stroke="rgb(0,0,0)" stroke-linejoin="round" d="M 15115,373 L 1733,373"/>
 <path fill="none" stroke="rgb(0,0,0)" stroke-linejoin="round" d="M 1733,10675 L 1733,10525"/>
 <path fill="none" stroke="rgb(0,0,0)" stroke-linejoin="round" d="M 1733,10675 L 1733,10525"/>
 <path fill="none" stroke="rgb(0,0,0)" stroke-linejoin="round" d="M 3405,10675 L 3405,10525"/>
 <path fill="none" stroke="rgb(0,0,0)" stroke-linejoin="round" d="M 3405,10675 L 3405,10525"/>
 <path fill="none" stroke="rgb(0,0,0)" stroke-linejoin="round" d="M 5078,10675 L 5078,10525"/>
 <path fill="none" stroke="rgb(0,0,0)" stroke-linejoin="round" d="M 5078,10675 L 5078,10525"/>
 <path fill="none" stroke="rgb(0,0,0)" stroke-linejoin="round" d="M 6751,10675 L 6751,10525"/>
 <path fill="none" stroke="rgb(0,0,0)" stroke-linejoin="round" d="M 6751,10675 L 6751,10525"/>
 <path fill="none" stroke="rgb(0,0,0)" stroke-linejoin="round" d="M 8423,10675 L 8423,10525"/>
 <path fill="none" stroke="rgb(0,0,0)" stroke-linejoin="round" d="M 8423,10675 L 8423,10525"/>
 <path fill="none" stroke="rgb(0,0,0)" stroke-linejoin="round" d="M 10096,10675 L 10096,10525"/>
 <path fill="none" stroke="rgb(0,0,0)" stroke-linejoin="round" d="M 10096,10675 L 10096,10525"/>
 <path fill="none" stroke="rgb(0,0,0)" stroke-linejoin="round" d="M 11769,10675 L 11769,10525"/>
 <path fill="none" stroke="rgb(0,0,0)" stroke-linejoin="round" d="M 11769,10675 L 11769,10525"/>
 <path fill="none" stroke="rgb(0,0,0)" stroke-linejoin="round" d="M 13442,10675 L 13442,10525"/>
 <path fill="none" stroke="rgb(0,0,0)" stroke-linejoin="round" d="M 13442,10675 L 13442,10525"/>
 <path fill="none" stroke="rgb(0,0,0)" stroke-linejoin="round" d="M 15115,10675 L 15115,10525"/>
 <path fill="none" stroke="rgb(0,0,0)" stroke-linejoin="round" d="M 15115,10675 L 15115,10525"/>
 <path fill="none" stroke="rgb(0,0,0)" stroke-linejoin="round" d="M 1733,10525 L 15115,10525"/>
 <path fill="none" stroke="rgb(0,0,0)" stroke-linejoin="round" d="M 1583,10525 L 1733,10525"/>
 <path fill="none" stroke="rgb(0,0,0)" stroke-linejoin="round" d="M 1583,10525 L 1733,10525"/>
 <path fill="none" stroke="rgb(0,0,0)" stroke-linejoin="round" d="M 1583,9509 L 1733,9509"/>
 <path fill="none" stroke="rgb(0,0,0)" stroke-linejoin="round" d="M 1583,9509 L 1733,9509"/>
 <path fill="none" stroke="rgb(0,0,0)" stroke-linejoin="round" d="M 1583,8494 L 1733,8494"/>
 <path fill="none" stroke="rgb(0,0,0)" stroke-linejoin="round" d="M 1583,8494 L 1733,8494"/>
 <path fill="none" stroke="rgb(0,0,0)" stroke-linejoin="round" d="M 1583,7479 L 1733,7479"/>
 <path fill="none" stroke="rgb(0,0,0)" stroke-linejoin="round" d="M 1583,7479 L 1733,7479"/>
 <path fill="none" stroke="rgb(0,0,0)" stroke-linejoin="round" d="M 1583,6463 L 1733,6463"/>
 <path fill="none" stroke="rgb(0,0,0)" stroke-linejoin="round" d="M 1583,6463 L 1733,6463"/>
 <path fill="none" stroke="rgb(0,0,0)" stroke-linejoin="round" d="M 1583,5449 L 1733,5449"/>
 <path fill="none" stroke="rgb(0,0,0)" stroke-linejoin="round" d="M 1583,5449 L 1733,5449"/>
 <path fill="none" stroke="rgb(0,0,0)" stroke-linejoin="round" d="M 1583,4434 L 1733,4434"/>
 <path fill="none" stroke="rgb(0,0,0)" stroke-linejoin="round" d="M 1583,4434 L 1733,4434"/>
 <path fill="none" stroke="rgb(0,0,0)" stroke-linejoin="round" d="M 1583,3418 L 1733,3418"/>
 <path fill="none" stroke="rgb(0,0,0)" stroke-linejoin="round" d="M 1583,3418 L 1733,3418"/>
 <path fill="none" stroke="rgb(0,0,0)" stroke-linejoin="round" d="M 1583,2403 L 1733,2403"/>
 <path fill="none" stroke="rgb(0,0,0)" stroke-linejoin="round" d="M 1583,2403 L 1733,2403"/>
 <path fill="none" stroke="rgb(0,0,0)" stroke-linejoin="round" d="M 1583,1388 L 1733,1388"/>
 <path fill="none" stroke="rgb(0,0,0)" stroke-linejoin="round" d="M 1583,1388 L 1733,1388"/>
 <path fill="none" stroke="rgb(0,0,0)" stroke-linejoin="round" d="M 1583,373 L 1733,373"/>
 <path fill="none" stroke="rgb(0,0,0)" stroke-linejoin="round" d="M 1583,373 L 1733,373"/>
 <path fill="none" stroke="rgb(0,0,0)" stroke-linejoin="round" d="M 1733,10525 L 1733,373"/>
 <path fill="none" stroke="rgb(255,66,14)" stroke-width="80" stroke-linejoin="round" d="M 1733,10474 L 2569,10461 3405,10444 4242,10423 5078,10397 5915,10363 6751,10321 7588,10269 8423,10202 9259,10118 10096,10013 10932,9880 11769,9712 12605,9501 13442,9235 14278,8900"/>
 <path fill="rgb(255,66,14)" stroke="none" d="M 1608,10474 L 1733,10599 1858,10474 1733,10349 1608,10474 Z"/>
 <path fill="none" stroke="rgb(255,66,14)" stroke-linejoin="round" d="M 1608,10474 L 1733,10599 1858,10474 1733,10349 1608,10474 Z"/>
 <path fill="rgb(255,66,14)" stroke="none" d="M 2444,10461 L 2569,10586 2694,10461 2569,10336 2444,10461 Z"/>
 <path fill="none" stroke="rgb(255,66,14)" stroke-linejoin="round" d="M 2444,10461 L 2569,10586 2694,10461 2569,10336 2444,10461 Z"/>
 <path fill="rgb(255,66,14)" stroke="none" d="M 3280,10444 L 3405,10569 3530,10444 3405,10319 3280,10444 Z"/>
 <path fill="none" stroke="rgb(255,66,14)" stroke-linejoin="round" d="M 3280,10444 L 3405,10569 3530,10444 3405,10319 3280,10444 Z"/>
 <path fill="rgb(255,66,14)" stroke="none" d="M 4117,10423 L 4242,10548 4367,10423 4242,10298 4117,10423 Z"/>
 <path fill="none" stroke="rgb(255,66,14)" stroke-linejoin="round" d="M 4117,10423 L 4242,10548 4367,10423 4242,10298 4117,10423 Z"/>
 <path fill="rgb(255,66,14)" stroke="none" d="M 4953,10397 L 5078,10522 5203,10397 5078,10272 4953,10397 Z"/>
 <path fill="none" stroke="rgb(255,66,14)" stroke-linejoin="round" d="M 4953,10397 L 5078,10522 5203,10397 5078,10272 4953,10397 Z"/>
 <path fill="rgb(255,66,14)" stroke="none" d="M 5790,10363 L 5915,10488 6040,10363 5915,10238 5790,10363 Z"/>
 <path fill="none" stroke="rgb(255,66,14)" stroke-linejoin="round" d="M 5790,10363 L 5915,10488 6040,10363 5915,10238 5790,10363 Z"/>
 <path fill="rgb(255,66,14)" stroke="none" d="M 6626,10321 L 6751,10446 6876,10321 6751,10196 6626,10321 Z"/>
 <path fill="none" stroke="rgb(255,66,14)" stroke-linejoin="round" d="M 6626,10321 L 6751,10446 6876,10321 6751,10196 6626,10321 Z"/>
 <path fill="rgb(255,66,14)" stroke="none" d="M 7463,10269 L 7588,10394 7713,10269 7588,10144 7463,10269 Z"/>
 <path fill="none" stroke="rgb(255,66,14)" stroke-linejoin="round" d="M 7463,10269 L 7588,10394 7713,10269 7588,10144 7463,10269 Z"/>
 <path fill="rgb(255,66,14)" stroke="none" d="M 8298,10202 L 8423,10327 8548,10202 8423,10077 8298,10202 Z"/>
 <path fill="none" stroke="rgb(255,66,14)" stroke-linejoin="round" d="M 8298,10202 L 8423,10327 8548,10202 8423,10077 8298,10202 Z"/>
 <path fill="rgb(255,66,14)" stroke="none" d="M 9134,10118 L 9259,10243 9384,10118 9259,9993 9134,10118 Z"/>
 <path fill="none" stroke="rgb(255,66,14)" stroke-linejoin="round" d="M 9134,10118 L 9259,10243 9384,10118 9259,9993 9134,10118 Z"/>
 <path fill="rgb(255,66,14)" stroke="none" d="M 9971,10013 L 10096,10138 10221,10013 10096,9888 9971,10013 Z"/>
 <path fill="none" stroke="rgb(255,66,14)" stroke-linejoin="round" d="M 9971,10013 L 10096,10138 10221,10013 10096,9888 9971,10013 Z"/>
 <path fill="rgb(255,66,14)" stroke="none" d="M 10807,9880 L 10932,10005 11057,9880 10932,9755 10807,9880 Z"/>
 <path fill="none" stroke="rgb(255,66,14)" stroke-linejoin="round" d="M 10807,9880 L 10932,10005 11057,9880 10932,9755 10807,9880 Z"/>
 <path fill="rgb(255,66,14)" stroke="none" d="M 11644,9712 L 11769,9837 11894,9712 11769,9587 11644,9712 Z"/>
 <path fill="none" stroke="rgb(255,66,14)" stroke-linejoin="round" d="M 11644,9712 L 11769,9837 11894,9712 11769,9587 11644,9712 Z"/>
 <path fill="rgb(255,66,14)" stroke="none" d="M 12480,9501 L 12605,9626 12730,9501 12605,9376 12480,9501 Z"/>
 <path fill="none" stroke="rgb(255,66,14)" stroke-linejoin="round" d="M 12480,9501 L 12605,9626 12730,9501 12605,9376 12480,9501 Z"/>
 <path fill="rgb(255,66,14)" stroke="none" d="M 13317,9235 L 13442,9360 13567,9235 13442,9110 13317,9235 Z"/>
 <path fill="none" stroke="rgb(255,66,14)" stroke-linejoin="round" d="M 13317,9235 L 13442,9360 13567,9235 13442,9110 13317,9235 Z"/>
 <path fill="rgb(255,66,14)" stroke="none" d="M 14153,8900 L 14278,9025 14403,8900 14278,8775 14153,8900 Z"/>
 <path fill="none" stroke="rgb(255,66,14)" stroke-linejoin="round" d="M 14153,8900 L 14278,9025 14403,8900 14278,8775 14153,8900 Z"/>
 <path fill="none" stroke="rgb(0,69,134)" stroke-width="80" stroke-linejoin="round" d="M 1733,10474 L 2569,10453 3405,10423 4242,10381 5078,10321 5915,10237 6751,10118 7588,9950 8423,9712 9259,9376 10096,8900 10932,8227 11769,7276 12605,5931 13442,4028 14278,1336"/>
 <path fill="rgb(0,69,134)" stroke="none" d="M 1608,10349 L 1608,10599 1858,10599 1858,10349 1608,10349 Z"/>
 <path fill="none" stroke="rgb(0,69,134)" stroke-linejoin="round" d="M 1608,10349 L 1608,10599 1858,10599 1858,10349 1608,10349 Z"/>
 <path fill="rgb(0,69,134)" stroke="none" d="M 2444,10328 L 2444,10578 2694,10578 2694,10328 2444,10328 Z"/>
 <path fill="none" stroke="rgb(0,69,134)" stroke-linejoin="round" d="M 2444,10328 L 2444,10578 2694,10578 2694,10328 2444,10328 Z"/>
 <path fill="rgb(0,69,134)" stroke="none" d="M 3280,10298 L 3280,10548 3530,10548 3530,10298 3280,10298 Z"/>
 <path fill="none" stroke="rgb(0,69,134)" stroke-linejoin="round" d="M 3280,10298 L 3280,10548 3530,10548 3530,10298 3280,10298 Z"/>
 <path fill="rgb(0,69,134)" stroke="none" d="M 4117,10256 L 4117,10506 4367,10506 4367,10256 4117,10256 Z"/>
 <path fill="none" stroke="rgb(0,69,134)" stroke-linejoin="round" d="M 4117,10256 L 4117,10506 4367,10506 4367,10256 4117,10256 Z"/>
 <path fill="rgb(0,69,134)" stroke="none" d="M 4953,10196 L 4953,10446 5203,10446 5203,10196 4953,10196 Z"/>
 <path fill="none" stroke="rgb(0,69,134)" stroke-linejoin="round" d="M 4953,10196 L 4953,10446 5203,10446 5203,10196 4953,10196 Z"/>
 <path fill="rgb(0,69,134)" stroke="none" d="M 5790,10112 L 5790,10362 6040,10362 6040,10112 5790,10112 Z"/>
 <path fill="none" stroke="rgb(0,69,134)" stroke-linejoin="round" d="M 5790,10112 L 5790,10362 6040,10362 6040,10112 5790,10112 Z"/>
 <path fill="rgb(0,69,134)" stroke="none" d="M 6626,9993 L 6626,10243 6876,10243 6876,9993 6626,9993 Z"/>
 <path fill="none" stroke="rgb(0,69,134)" stroke-linejoin="round" d="M 6626,9993 L 6626,10243 6876,10243 6876,9993 6626,9993 Z"/>
 <path fill="rgb(0,69,134)" stroke="none" d="M 7463,9825 L 7463,10075 7713,10075 7713,9825 7463,9825 Z"/>
 <path fill="none" stroke="rgb(0,69,134)" stroke-linejoin="round" d="M 7463,9825 L 7463,10075 7713,10075 7713,9825 7463,9825 Z"/>
 <path fill="rgb(0,69,134)" stroke="none" d="M 8298,9587 L 8298,9837 8548,9837 8548,9587 8298,9587 Z"/>
 <path fill="none" stroke="rgb(0,69,134)" stroke-linejoin="round" d="M 8298,9587 L 8298,9837 8548,9837 8548,9587 8298,9587 Z"/>
 <path fill="rgb(0,69,134)" stroke="none" d="M 9134,9251 L 9134,9501 9384,9501 9384,9251 9134,9251 Z"/>
 <path fill="none" stroke="rgb(0,69,134)" stroke-linejoin="round" d="M 9134,9251 L 9134,9501 9384,9501 9384,9251 9134,9251 Z"/>
 <path fill="rgb(0,69,134)" stroke="none" d="M 9971,8775 L 9971,9025 10221,9025 10221,8775 9971,8775 Z"/>
 <path fill="none" stroke="rgb(0,69,134)" stroke-linejoin="round" d="M 9971,8775 L 9971,9025 10221,9025 10221,8775 9971,8775 Z"/>
 <path fill="rgb(0,69,134)" stroke="none" d="M 10807,8102 L 10807,8352 11057,8352 11057,8102 10807,8102 Z"/>
 <path fill="none" stroke="rgb(0,69,134)" stroke-linejoin="round" d="M 10807,8102 L 10807,8352 11057,8352 11057,8102 10807,8102 Z"/>
 <path fill="rgb(0,69,134)" stroke="none" d="M 11644,7151 L 11644,7401 11894,7401 11894,7151 11644,7151 Z"/>
 <path fill="none" stroke="rgb(0,69,134)" stroke-linejoin="round" d="M 11644,7151 L 11644,7401 11894,7401 11894,7151 11644,7151 Z"/>
 <path fill="rgb(0,69,134)" stroke="none" d="M 12480,5806 L 12480,6055 12730,6055 12730,5806 12480,5806 Z"/>
 <path fill="none" stroke="rgb(0,69,134)" stroke-linejoin="round" d="M 12480,5806 L 12480,6055 12730,6055 12730,5806 12480,5806 Z"/>
 <path fill="rgb(0,69,134)" stroke="none" d="M 13317,3903 L 13317,4153 13567,4153 13567,3903 13317,3903 Z"/>
 <path fill="none" stroke="rgb(0,69,134)" stroke-linejoin="round" d="M 13317,3903 L 13317,4153 13567,4153 13567,3903 13317,3903 Z"/>
 <path fill="rgb(0,69,134)" stroke="none" d="M 14153,1211 L 14153,1461 14403,1461 14403,1211 14153,1211 Z"/>
 <path fill="none" stroke="rgb(0,69,134)" stroke-linejoin="round" d="M 14153,1211 L 14153,1461 14403,1461 14403,1211 14153,1211 Z"/>
 <text class="TextShape"><tspan class="TextParagraph" font-family="Arial" font-size="459px" font-weight="400"><tspan class="TextPosition" x="1614" y="11172"><tspan fill="rgb(0,0,0)" stroke="none">0</tspan></tspan></tspan></text>
 <text class="TextShape"><tspan class="TextParagraph" font-family="Arial" font-size="459px" font-weight="400"><tspan class="TextPosition" x="3286" y="11172"><tspan fill="rgb(0,0,0)" stroke="none">2</tspan></tspan></tspan></text>
 <text class="TextShape"><tspan class="TextParagraph" font-family="Arial" font-size="459px" font-weight="400"><tspan class="TextPosition" x="4959" y="11172"><tspan fill="rgb(0,0,0)" stroke="none">4</tspan></tspan></tspan></text>
 <text class="TextShape"><tspan class="TextParagraph" font-family="Arial" font-size="459px" font-weight="400"><tspan class="TextPosition" x="6632" y="11172"><tspan fill="rgb(0,0,0)" stroke="none">6</tspan></tspan></tspan></text>
 <text class="TextShape"><tspan class="TextParagraph" font-family="Arial" font-size="459px" font-weight="400"><tspan class="TextPosition" x="8305" y="11172"><tspan fill="rgb(0,0,0)" stroke="none">8</tspan></tspan></tspan></text>
 <text class="TextShape"><tspan class="TextParagraph" font-family="Arial" font-size="459px" font-weight="400"><tspan class="TextPosition" x="9859" y="11172"><tspan fill="rgb(0,0,0)" stroke="none">10</tspan></tspan></tspan></text>
 <text class="TextShape"><tspan class="TextParagraph" font-family="Arial" font-size="459px" font-weight="400"><tspan class="TextPosition" x="11532" y="11172"><tspan fill="rgb(0,0,0)" stroke="none">12</tspan></tspan></tspan></text>
 <text class="TextShape"><tspan class="TextParagraph" font-family="Arial" font-size="459px" font-weight="400"><tspan class="TextPosition" x="13205" y="11172"><tspan fill="rgb(0,0,0)" stroke="none">14</tspan></tspan></tspan></text>
 <text class="TextShape"><tspan class="TextParagraph" font-family="Arial" font-size="459px" font-weight="400"><tspan class="TextPosition" x="14878" y="11172"><tspan fill="rgb(0,0,0)" stroke="none">16</tspan></tspan></tspan></text>
 <text class="TextShape"><tspan class="TextParagraph" font-family="Arial" font-size="459px" font-weight="400"><tspan class="TextPosition" x="1245" y="10672"><tspan fill="rgb(0,0,0)" stroke="none">0</tspan></tspan></tspan></text>
 <text class="TextShape"><tspan class="TextParagraph" font-family="Arial" font-size="459px" font-weight="400"><tspan class="TextPosition" x="769" y="9656"><tspan fill="rgb(0,0,0)" stroke="none">200</tspan></tspan></tspan></text>
 <text class="TextShape"><tspan class="TextParagraph" font-family="Arial" font-size="459px" font-weight="400"><tspan class="TextPosition" x="769" y="8641"><tspan fill="rgb(0,0,0)" stroke="none">400</tspan></tspan></tspan></text>
 <text class="TextShape"><tspan class="TextParagraph" font-family="Arial" font-size="459px" font-weight="400"><tspan class="TextPosition" x="769" y="7626"><tspan fill="rgb(0,0,0)" stroke="none">600</tspan></tspan></tspan></text>
 <text class="TextShape"><tspan class="TextParagraph" font-family="Arial" font-size="459px" font-weight="400"><tspan class="TextPosition" x="769" y="6610"><tspan fill="rgb(0,0,0)" stroke="none">800</tspan></tspan></tspan></text>
 <text class="TextShape"><tspan class="TextParagraph" font-family="Arial" font-size="459px" font-weight="400"><tspan class="TextPosition" x="398" y="5595"><tspan fill="rgb(0,0,0)" stroke="none">1.000</tspan></tspan></tspan></text>
 <text class="TextShape"><tspan class="TextParagraph" font-family="Arial" font-size="459px" font-weight="400"><tspan class="TextPosition" x="398" y="4580"><tspan fill="rgb(0,0,0)" stroke="none">1.200</tspan></tspan></tspan></text>
 <text class="TextShape"><tspan class="TextParagraph" font-family="Arial" font-size="459px" font-weight="400"><tspan class="TextPosition" x="398" y="3564"><tspan fill="rgb(0,0,0)" stroke="none">1.400</tspan></tspan></tspan></text>
 <text class="TextShape"><tspan class="TextParagraph" font-family="Arial" font-size="459px" font-weight="400"><tspan class="TextPosition" x="398" y="2549"><tspan fill="rgb(0,0,0)" stroke="none">1.600</tspan></tspan></tspan></text>
 <text class="TextShape"><tspan class="TextParagraph" font-family="Arial" font-size="459px" font-weight="400"><tspan class="TextPosition" x="398" y="1534"><tspan fill="rgb(0,0,0)" stroke="none">1.800</tspan></tspan></tspan></text>
 <text class="TextShape"><tspan class="TextParagraph" font-family="Arial" font-size="459px" font-weight="400"><tspan class="TextPosition" x="398" y="519"><tspan fill="rgb(0,0,0)" stroke="none">2.000</tspan></tspan></tspan></text>
 <text class="TextShape"><tspan class="TextParagraph" font-family="Arial" font-size="635px" font-weight="700"><tspan class="TextPosition" x="3727" y="1175"><tspan fill="rgb(0,0,0)" stroke="none">Crecimientos exponenciales</tspan></tspan></tspan></text>
 <path fill="none" stroke="rgb(0,69,134)" stroke-width="80" stroke-linejoin="round" d="M 4812,11502 L 5612,11502"/>
 <path fill="rgb(0,69,134)" stroke="none" d="M 5106,11397 L 5106,11607 5317,11607 5317,11397 5106,11397 Z"/>
 <path fill="none" stroke="rgb(0,69,134)" stroke-linejoin="round" d="M 5106,11397 L 5106,11607 5317,11607 5317,11397 5106,11397 Z"/>
 <path fill="none" stroke="rgb(255,66,14)" stroke-width="80" stroke-linejoin="round" d="M 8115,11502 L 8915,11502"/>
 <path fill="rgb(255,66,14)" stroke="none" d="M 8409,11502 L 8515,11607 8620,11502 8515,11397 8409,11502 Z"/>
 <path fill="none" stroke="rgb(255,66,14)" stroke-linejoin="round" d="M 8409,11502 L 8515,11607 8620,11502 8515,11397 8409,11502 Z"/>
 <text class="TextShape"><tspan class="TextParagraph" font-family="Arial" font-size="353px" font-weight="400"><tspan class="TextPosition" x="5712" y="11635"><tspan fill="rgb(0,0,0)" stroke="none">Exponencial 2</tspan></tspan></tspan></text>
 <text class="TextShape"><tspan class="TextParagraph" font-family="Arial" font-size="353px" font-weight="400"><tspan class="TextPosition" x="9015" y="11635"><tspan fill="rgb(0,0,0)" stroke="none">Exponencial 3</tspan></tspan></tspan></text>
</svg>
