<?xml version="1.0" encoding="UTF-8"?>
<!DOCTYPE svg PUBLIC "-//W3C//DTD SVG 1.1//EN" "http://www.w3.org/Graphics/SVG/1.1/DTD/svg11.dtd">
<svg width="160mm" height="120mm" viewBox="0 0 16000 12000" version="1.1" baseProfile="tiny" xmlns="http://www.w3.org/2000/svg" stroke-width="28.222" stroke-linejoin="round" xml:space="preserve">
 <path fill="rgb(255,255,255)" stroke="none" d="M 8000,12000 L 0,12000 0,0 16000,0 16000,12000 8000,12000 Z"/>
 <path fill="none" stroke="rgb(0,0,0)" stroke-linejoin="round" d="M 8424,10526 L 1733,10526 1733,374 15115,374 15115,10526 8424,10526 Z"/>
 <path fill="none" stroke="rgb(0,0,0)" stroke-linejoin="round" d="M 15115,10525 L 1733,10525"/>
 <path fill="none" stroke="rgb(0,0,0)" stroke-linejoin="round" d="M 15115,7140 L 1733,7140"/>
 <path fill="none" stroke="rgb(0,0,0)" stroke-linejoin="round" d="M 15115,3757 L 1733,3757"/>
 <path fill="none" stroke="rgb(0,0,0)" stroke-linejoin="round" d="M 15115,372 L 1733,372"/>
 <path fill="none" stroke="rgb(0,0,0)" stroke-linejoin="round" d="M 1733,10675 L 1733,10525"/>
 <path fill="none" stroke="rgb(0,0,0)" stroke-linejoin="round" d="M 1733,10675 L 1733,10525"/>
 <path fill="none" stroke="rgb(0,0,0)" stroke-linejoin="round" d="M 3405,10675 L 3405,10525"/>
 <path fill="none" stroke="rgb(0,0,0)" stroke-linejoin="round" d="M 3405,10675 L 3405,10525"/>
 <path fill="none" stroke="rgb(0,0,0)" stroke-linejoin="round" d="M 5078,10675 L 5078,10525"/>
 <path fill="none" stroke="rgb(0,0,0)" stroke-linejoin="round" d="M 5078,10675 L 5078,10525"/>
 <path fill="none" stroke="rgb(0,0,0)" stroke-linejoin="round" d="M 6751,10675 L 6751,10525"/>
 <path fill="none" stroke="rgb(0,0,0)" stroke-linejoin="round" d="M 6751,10675 L 6751,10525"/>
 <path fill="none" stroke="rgb(0,0,0)" stroke-linejoin="round" d="M 8423,10675 L 8423,10525"/>
 <path fill="none" stroke="rgb(0,0,0)" stroke-linejoin="round" d="M 8423,10675 L 8423,10525"/>
 <path fill="none" stroke="rgb(0,0,0)" stroke-linejoin="round" d="M 10096,10675 L 10096,10525"/>
 <path fill="none" stroke="rgb(0,0,0)" stroke-linejoin="round" d="M 10096,10675 L 10096,10525"/>
 <path fill="none" stroke="rgb(0,0,0)" stroke-linejoin="round" d="M 11769,10675 L 11769,10525"/>
 <path fill="none" stroke="rgb(0,0,0)" stroke-linejoin="round" d="M 11769,10675 L 11769,10525"/>
 <path fill="none" stroke="rgb(0,0,0)" stroke-linejoin="round" d="M 13442,10675 L 13442,10525"/>
 <path fill="none" stroke="rgb(0,0,0)" stroke-linejoin="round" d="M 13442,10675 L 13442,10525"/>
 <path fill="none" stroke="rgb(0,0,0)" stroke-linejoin="round" d="M 15115,10675 L 15115,10525"/>
 <path fill="none" stroke="rgb(0,0,0)" stroke-linejoin="round" d="M 15115,10675 L 15115,10525"/>
 <path fill="none" stroke="rgb(0,0,0)" stroke-linejoin="round" d="M 1733,10525 L 15115,10525"/>
 <path fill="none" stroke="rgb(0,0,0)" stroke-linejoin="round" d="M 1583,10525 L 1733,10525"/>
 <path fill="none" stroke="rgb(0,0,0)" stroke-linejoin="round" d="M 1583,10525 L 1733,10525"/>
 <path fill="none" stroke="rgb(0,0,0)" stroke-linejoin="round" d="M 1583,7140 L 1733,7140"/>
 <path fill="none" stroke="rgb(0,0,0)" stroke-linejoin="round" d="M 1583,7140 L 1733,7140"/>
 <path fill="none" stroke="rgb(0,0,0)" stroke-linejoin="round" d="M 1583,3757 L 1733,3757"/>
 <path fill="none" stroke="rgb(0,0,0)" stroke-linejoin="round" d="M 1583,3757 L 1733,3757"/>
 <path fill="none" stroke="rgb(0,0,0)" stroke-linejoin="round" d="M 1583,372 L 1733,372"/>
 <path fill="none" stroke="rgb(0,0,0)" stroke-linejoin="round" d="M 1583,372 L 1733,372"/>
 <path fill="none" stroke="rgb(0,0,0)" stroke-linejoin="round" d="M 1733,10525 L 1733,372"/>
 <path fill="none" stroke="rgb(255,66,14)" stroke-width="80" stroke-linejoin="round" d="M 1733,10525 L 2569,10185 3405,9845 4242,9506 5078,9166 5915,8827 6751,8487 7588,8147 8423,7808 9259,7468 10096,7129 10932,6789 11769,6449 12605,6110 13442,5771 14278,5432"/>
 <path fill="rgb(255,66,14)" stroke="none" d="M 1608,10525 L 1733,10650 1858,10525 1733,10400 1608,10525 Z"/>
 <path fill="none" stroke="rgb(255,66,14)" stroke-linejoin="round" d="M 1608,10525 L 1733,10650 1858,10525 1733,10400 1608,10525 Z"/>
 <path fill="rgb(255,66,14)" stroke="none" d="M 2444,10185 L 2569,10310 2694,10185 2569,10060 2444,10185 Z"/>
 <path fill="none" stroke="rgb(255,66,14)" stroke-linejoin="round" d="M 2444,10185 L 2569,10310 2694,10185 2569,10060 2444,10185 Z"/>
 <path fill="rgb(255,66,14)" stroke="none" d="M 3280,9845 L 3405,9970 3530,9845 3405,9720 3280,9845 Z"/>
 <path fill="none" stroke="rgb(255,66,14)" stroke-linejoin="round" d="M 3280,9845 L 3405,9970 3530,9845 3405,9720 3280,9845 Z"/>
 <path fill="rgb(255,66,14)" stroke="none" d="M 4117,9506 L 4242,9631 4367,9506 4242,9381 4117,9506 Z"/>
 <path fill="none" stroke="rgb(255,66,14)" stroke-linejoin="round" d="M 4117,9506 L 4242,9631 4367,9506 4242,9381 4117,9506 Z"/>
 <path fill="rgb(255,66,14)" stroke="none" d="M 4953,9166 L 5078,9291 5203,9166 5078,9041 4953,9166 Z"/>
 <path fill="none" stroke="rgb(255,66,14)" stroke-linejoin="round" d="M 4953,9166 L 5078,9291 5203,9166 5078,9041 4953,9166 Z"/>
 <path fill="rgb(255,66,14)" stroke="none" d="M 5790,8827 L 5915,8952 6040,8827 5915,8702 5790,8827 Z"/>
 <path fill="none" stroke="rgb(255,66,14)" stroke-linejoin="round" d="M 5790,8827 L 5915,8952 6040,8827 5915,8702 5790,8827 Z"/>
 <path fill="rgb(255,66,14)" stroke="none" d="M 6626,8487 L 6751,8612 6876,8487 6751,8362 6626,8487 Z"/>
 <path fill="none" stroke="rgb(255,66,14)" stroke-linejoin="round" d="M 6626,8487 L 6751,8612 6876,8487 6751,8362 6626,8487 Z"/>
 <path fill="rgb(255,66,14)" stroke="none" d="M 7463,8147 L 7588,8272 7713,8147 7588,8022 7463,8147 Z"/>
 <path fill="none" stroke="rgb(255,66,14)" stroke-linejoin="round" d="M 7463,8147 L 7588,8272 7713,8147 7588,8022 7463,8147 Z"/>
 <path fill="rgb(255,66,14)" stroke="none" d="M 8298,7808 L 8423,7933 8548,7808 8423,7683 8298,7808 Z"/>
 <path fill="none" stroke="rgb(255,66,14)" stroke-linejoin="round" d="M 8298,7808 L 8423,7933 8548,7808 8423,7683 8298,7808 Z"/>
 <path fill="rgb(255,66,14)" stroke="none" d="M 9134,7468 L 9259,7593 9384,7468 9259,7343 9134,7468 Z"/>
 <path fill="none" stroke="rgb(255,66,14)" stroke-linejoin="round" d="M 9134,7468 L 9259,7593 9384,7468 9259,7343 9134,7468 Z"/>
 <path fill="rgb(255,66,14)" stroke="none" d="M 9971,7129 L 10096,7254 10221,7129 10096,7004 9971,7129 Z"/>
 <path fill="none" stroke="rgb(255,66,14)" stroke-linejoin="round" d="M 9971,7129 L 10096,7254 10221,7129 10096,7004 9971,7129 Z"/>
 <path fill="rgb(255,66,14)" stroke="none" d="M 10807,6789 L 10932,6914 11057,6789 10932,6664 10807,6789 Z"/>
 <path fill="none" stroke="rgb(255,66,14)" stroke-linejoin="round" d="M 10807,6789 L 10932,6914 11057,6789 10932,6664 10807,6789 Z"/>
 <path fill="rgb(255,66,14)" stroke="none" d="M 11644,6449 L 11769,6574 11894,6449 11769,6324 11644,6449 Z"/>
 <path fill="none" stroke="rgb(255,66,14)" stroke-linejoin="round" d="M 11644,6449 L 11769,6574 11894,6449 11769,6324 11644,6449 Z"/>
 <path fill="rgb(255,66,14)" stroke="none" d="M 12480,6110 L 12605,6235 12730,6110 12605,5986 12480,6110 Z"/>
 <path fill="none" stroke="rgb(255,66,14)" stroke-linejoin="round" d="M 12480,6110 L 12605,6235 12730,6110 12605,5986 12480,6110 Z"/>
 <path fill="rgb(255,66,14)" stroke="none" d="M 13317,5771 L 13442,5896 13567,5771 13442,5646 13317,5771 Z"/>
 <path fill="none" stroke="rgb(255,66,14)" stroke-linejoin="round" d="M 13317,5771 L 13442,5896 13567,5771 13442,5646 13317,5771 Z"/>
 <path fill="rgb(255,66,14)" stroke="none" d="M 14153,5432 L 14278,5557 14403,5432 14278,5307 14153,5432 Z"/>
 <path fill="none" stroke="rgb(255,66,14)" stroke-linejoin="round" d="M 14153,5432 L 14278,5557 14403,5432 14278,5307 14153,5432 Z"/>
 <path fill="none" stroke="rgb(0,69,134)" stroke-width="80" stroke-linejoin="round" d="M 1733,10525 L 2569,10015 3405,9506 4242,8996 5078,8487 5915,7978 6751,7468 7588,6959 8423,6449 9259,5941 10096,5432 10932,4922 11769,4413 12605,3903 13442,3394 14278,2885"/>
 <path fill="rgb(0,69,134)" stroke="none" d="M 1608,10400 L 1608,10650 1858,10650 1858,10400 1608,10400 Z"/>
 <path fill="none" stroke="rgb(0,69,134)" stroke-linejoin="round" d="M 1608,10400 L 1608,10650 1858,10650 1858,10400 1608,10400 Z"/>
 <path fill="rgb(0,69,134)" stroke="none" d="M 2444,9890 L 2444,10140 2694,10140 2694,9890 2444,9890 Z"/>
 <path fill="none" stroke="rgb(0,69,134)" stroke-linejoin="round" d="M 2444,9890 L 2444,10140 2694,10140 2694,9890 2444,9890 Z"/>
 <path fill="rgb(0,69,134)" stroke="none" d="M 3280,9381 L 3280,9631 3530,9631 3530,9381 3280,9381 Z"/>
 <path fill="none" stroke="rgb(0,69,134)" stroke-linejoin="round" d="M 3280,9381 L 3280,9631 3530,9631 3530,9381 3280,9381 Z"/>
 <path fill="rgb(0,69,134)" stroke="none" d="M 4117,8871 L 4117,9121 4367,9121 4367,8871 4117,8871 Z"/>
 <path fill="none" stroke="rgb(0,69,134)" stroke-linejoin="round" d="M 4117,8871 L 4117,9121 4367,9121 4367,8871 4117,8871 Z"/>
 <path fill="rgb(0,69,134)" stroke="none" d="M 4953,8362 L 4953,8612 5203,8612 5203,8362 4953,8362 Z"/>
 <path fill="none" stroke="rgb(0,69,134)" stroke-linejoin="round" d="M 4953,8362 L 4953,8612 5203,8612 5203,8362 4953,8362 Z"/>
 <path fill="rgb(0,69,134)" stroke="none" d="M 5790,7853 L 5790,8103 6040,8103 6040,7853 5790,7853 Z"/>
 <path fill="none" stroke="rgb(0,69,134)" stroke-linejoin="round" d="M 5790,7853 L 5790,8103 6040,8103 6040,7853 5790,7853 Z"/>
 <path fill="rgb(0,69,134)" stroke="none" d="M 6626,7343 L 6626,7593 6876,7593 6876,7343 6626,7343 Z"/>
 <path fill="none" stroke="rgb(0,69,134)" stroke-linejoin="round" d="M 6626,7343 L 6626,7593 6876,7593 6876,7343 6626,7343 Z"/>
 <path fill="rgb(0,69,134)" stroke="none" d="M 7463,6834 L 7463,7084 7713,7084 7713,6834 7463,6834 Z"/>
 <path fill="none" stroke="rgb(0,69,134)" stroke-linejoin="round" d="M 7463,6834 L 7463,7084 7713,7084 7713,6834 7463,6834 Z"/>
 <path fill="rgb(0,69,134)" stroke="none" d="M 8298,6324 L 8298,6574 8548,6574 8548,6324 8298,6324 Z"/>
 <path fill="none" stroke="rgb(0,69,134)" stroke-linejoin="round" d="M 8298,6324 L 8298,6574 8548,6574 8548,6324 8298,6324 Z"/>
 <path fill="rgb(0,69,134)" stroke="none" d="M 9134,5816 L 9134,6065 9384,6065 9384,5816 9134,5816 Z"/>
 <path fill="none" stroke="rgb(0,69,134)" stroke-linejoin="round" d="M 9134,5816 L 9134,6065 9384,6065 9384,5816 9134,5816 Z"/>
 <path fill="rgb(0,69,134)" stroke="none" d="M 9971,5307 L 9971,5557 10221,5557 10221,5307 9971,5307 Z"/>
 <path fill="none" stroke="rgb(0,69,134)" stroke-linejoin="round" d="M 9971,5307 L 9971,5557 10221,5557 10221,5307 9971,5307 Z"/>
 <path fill="rgb(0,69,134)" stroke="none" d="M 10807,4797 L 10807,5047 11057,5047 11057,4797 10807,4797 Z"/>
 <path fill="none" stroke="rgb(0,69,134)" stroke-linejoin="round" d="M 10807,4797 L 10807,5047 11057,5047 11057,4797 10807,4797 Z"/>
 <path fill="rgb(0,69,134)" stroke="none" d="M 11644,4288 L 11644,4538 11894,4538 11894,4288 11644,4288 Z"/>
 <path fill="none" stroke="rgb(0,69,134)" stroke-linejoin="round" d="M 11644,4288 L 11644,4538 11894,4538 11894,4288 11644,4288 Z"/>
 <path fill="rgb(0,69,134)" stroke="none" d="M 12480,3778 L 12480,4028 12730,4028 12730,3778 12480,3778 Z"/>
 <path fill="none" stroke="rgb(0,69,134)" stroke-linejoin="round" d="M 12480,3778 L 12480,4028 12730,4028 12730,3778 12480,3778 Z"/>
 <path fill="rgb(0,69,134)" stroke="none" d="M 13317,3269 L 13317,3519 13567,3519 13567,3269 13317,3269 Z"/>
 <path fill="none" stroke="rgb(0,69,134)" stroke-linejoin="round" d="M 13317,3269 L 13317,3519 13567,3519 13567,3269 13317,3269 Z"/>
 <path fill="rgb(0,69,134)" stroke="none" d="M 14153,2760 L 14153,3010 14403,3010 14403,2760 14153,2760 Z"/>
 <path fill="none" stroke="rgb(0,69,134)" stroke-linejoin="round" d="M 14153,2760 L 14153,3010 14403,3010 14403,2760 14153,2760 Z"/>
 <text class="TextShape"><tspan class="TextParagraph" font-family="Arial" font-size="459px" font-weight="400"><tspan class="TextPosition" x="1614" y="11172"><tspan fill="rgb(0,0,0)" stroke="none">0</tspan></tspan></tspan></text>
 <text class="TextShape"><tspan class="TextParagraph" font-family="Arial" font-size="459px" font-weight="400"><tspan class="TextPosition" x="3286" y="11172"><tspan fill="rgb(0,0,0)" stroke="none">2</tspan></tspan></tspan></text>
 <text class="TextShape"><tspan class="TextParagraph" font-family="Arial" font-size="459px" font-weight="400"><tspan class="TextPosition" x="4959" y="11172"><tspan fill="rgb(0,0,0)" stroke="none">4</tspan></tspan></tspan></text>
 <text class="TextShape"><tspan class="TextParagraph" font-family="Arial" font-size="459px" font-weight="400"><tspan class="TextPosition" x="6632" y="11172"><tspan fill="rgb(0,0,0)" stroke="none">6</tspan></tspan></tspan></text>
 <text class="TextShape"><tspan class="TextParagraph" font-family="Arial" font-size="459px" font-weight="400"><tspan class="TextPosition" x="8305" y="11172"><tspan fill="rgb(0,0,0)" stroke="none">8</tspan></tspan></tspan></text>
 <text class="TextShape"><tspan class="TextParagraph" font-family="Arial" font-size="459px" font-weight="400"><tspan class="TextPosition" x="9859" y="11172"><tspan fill="rgb(0,0,0)" stroke="none">10</tspan></tspan></tspan></text>
 <text class="TextShape"><tspan class="TextParagraph" font-family="Arial" font-size="459px" font-weight="400"><tspan class="TextPosition" x="11532" y="11172"><tspan fill="rgb(0,0,0)" stroke="none">12</tspan></tspan></tspan></text>
 <text class="TextShape"><tspan class="TextParagraph" font-family="Arial" font-size="459px" font-weight="400"><tspan class="TextPosition" x="13205" y="11172"><tspan fill="rgb(0,0,0)" stroke="none">14</tspan></tspan></tspan></text>
 <text class="TextShape"><tspan class="TextParagraph" font-family="Arial" font-size="459px" font-weight="400"><tspan class="TextPosition" x="14878" y="11172"><tspan fill="rgb(0,0,0)" stroke="none">16</tspan></tspan></tspan></text>
 <text class="TextShape"><tspan class="TextParagraph" font-family="Arial" font-size="459px" font-weight="400"><tspan class="TextPosition" x="1007" y="10672"><tspan fill="rgb(0,0,0)" stroke="none">10</tspan></tspan></tspan></text>
 <text class="TextShape"><tspan class="TextParagraph" font-family="Arial" font-size="459px" font-weight="400"><tspan class="TextPosition" x="769" y="7287"><tspan fill="rgb(0,0,0)" stroke="none">100</tspan></tspan></tspan></text>
 <text class="TextShape"><tspan class="TextParagraph" font-family="Arial" font-size="459px" font-weight="400"><tspan class="TextPosition" x="398" y="3903"><tspan fill="rgb(0,0,0)" stroke="none">1.000</tspan></tspan></tspan></text>
 <text class="TextShape"><tspan class="TextParagraph" font-family="Arial" font-size="459px" font-weight="400"><tspan class="TextPosition" x="160" y="518"><tspan fill="rgb(0,0,0)" stroke="none">10.000</tspan></tspan></tspan></text>
 <text class="TextShape"><tspan class="TextParagraph" font-family="Arial" font-size="635px" font-weight="700"><tspan class="TextPosition" x="3727" y="1175"><tspan fill="rgb(0,0,0)" stroke="none">Crecimientos exponenciales</tspan></tspan></tspan></text>
 <path fill="none" stroke="rgb(0,69,134)" stroke-width="80" stroke-linejoin="round" d="M 4812,11502 L 5612,11502"/>
 <path fill="rgb(0,69,134)" stroke="none" d="M 5106,11397 L 5106,11607 5317,11607 5317,11397 5106,11397 Z"/>
 <path fill="none" stroke="rgb(0,69,134)" stroke-linejoin="round" d="M 5106,11397 L 5106,11607 5317,11607 5317,11397 5106,11397 Z"/>
 <path fill="none" stroke="rgb(255,66,14)" stroke-width="80" stroke-linejoin="round" d="M 8115,11502 L 8915,11502"/>
 <path fill="rgb(255,66,14)" stroke="none" d="M 8409,11502 L 8515,11607 8620,11502 8515,11397 8409,11502 Z"/>
 <path fill="none" stroke="rgb(255,66,14)" stroke-linejoin="round" d="M 8409,11502 L 8515,11607 8620,11502 8515,11397 8409,11502 Z"/>
 <text class="TextShape"><tspan class="TextParagraph" font-family="Arial" font-size="353px" font-weight="400"><tspan class="TextPosition" x="5712" y="11635"><tspan fill="rgb(0,0,0)" stroke="none">Exponencial 2</tspan></tspan></tspan></text>
 <text class="TextShape"><tspan class="TextParagraph" font-family="Arial" font-size="353px" font-weight="400"><tspan class="TextPosition" x="9015" y="11635"><tspan fill="rgb(0,0,0)" stroke="none">Exponencial 3</tspan></tspan></tspan></text>
</svg>
