<?xml version="1.0" encoding="UTF-8"?>
<!DOCTYPE svg PUBLIC "-//W3C//DTD SVG 1.1//EN" "http://www.w3.org/Graphics/SVG/1.1/DTD/svg11.dtd">
<svg width="160mm" height="120mm" viewBox="0 0 16000 12000" version="1.1" baseProfile="tiny" xmlns="http://www.w3.org/2000/svg" stroke-width="28.222" stroke-linejoin="round" xml:space="preserve">
 <path fill="rgb(255,255,255)" stroke="none" d="M 8038,12000 L 76,12000 76,0 16000,0 16000,12000 8038,12000 Z"/>
 <path fill="none" stroke="rgb(0,0,0)" stroke-linejoin="round" d="M 8040,10698 L 960,10698 960,375 15120,375 15120,10698 8040,10698 Z"/>
 <path fill="none" stroke="rgb(0,0,0)" stroke-linejoin="round" d="M 15120,10697 L 960,10697"/>
 <path fill="none" stroke="rgb(0,0,0)" stroke-linejoin="round" d="M 15120,9222 L 960,9222"/>
 <path fill="none" stroke="rgb(0,0,0)" stroke-linejoin="round" d="M 15120,7747 L 960,7747"/>
 <path fill="none" stroke="rgb(0,0,0)" stroke-linejoin="round" d="M 15120,6272 L 960,6272"/>
 <path fill="none" stroke="rgb(0,0,0)" stroke-linejoin="round" d="M 15120,4798 L 960,4798"/>
 <path fill="none" stroke="rgb(0,0,0)" stroke-linejoin="round" d="M 15120,3323 L 960,3323"/>
 <path fill="none" stroke="rgb(0,0,0)" stroke-linejoin="round" d="M 15120,1848 L 960,1848"/>
 <path fill="none" stroke="rgb(0,0,0)" stroke-linejoin="round" d="M 15120,374 L 960,374"/>
 <path fill="none" stroke="rgb(0,0,0)" stroke-linejoin="round" d="M 960,10847 L 960,10697"/>
 <path fill="none" stroke="rgb(0,0,0)" stroke-linejoin="round" d="M 960,10847 L 960,10697"/>
 <path fill="none" stroke="rgb(0,0,0)" stroke-linejoin="round" d="M 2730,10847 L 2730,10697"/>
 <path fill="none" stroke="rgb(0,0,0)" stroke-linejoin="round" d="M 2730,10847 L 2730,10697"/>
 <path fill="none" stroke="rgb(0,0,0)" stroke-linejoin="round" d="M 4500,10847 L 4500,10697"/>
 <path fill="none" stroke="rgb(0,0,0)" stroke-linejoin="round" d="M 4500,10847 L 4500,10697"/>
 <path fill="none" stroke="rgb(0,0,0)" stroke-linejoin="round" d="M 6270,10847 L 6270,10697"/>
 <path fill="none" stroke="rgb(0,0,0)" stroke-linejoin="round" d="M 6270,10847 L 6270,10697"/>
 <path fill="none" stroke="rgb(0,0,0)" stroke-linejoin="round" d="M 8040,10847 L 8040,10697"/>
 <path fill="none" stroke="rgb(0,0,0)" stroke-linejoin="round" d="M 8040,10847 L 8040,10697"/>
 <path fill="none" stroke="rgb(0,0,0)" stroke-linejoin="round" d="M 9810,10847 L 9810,10697"/>
 <path fill="none" stroke="rgb(0,0,0)" stroke-linejoin="round" d="M 9810,10847 L 9810,10697"/>
 <path fill="none" stroke="rgb(0,0,0)" stroke-linejoin="round" d="M 11580,10847 L 11580,10697"/>
 <path fill="none" stroke="rgb(0,0,0)" stroke-linejoin="round" d="M 11580,10847 L 11580,10697"/>
 <path fill="none" stroke="rgb(0,0,0)" stroke-linejoin="round" d="M 13350,10847 L 13350,10697"/>
 <path fill="none" stroke="rgb(0,0,0)" stroke-linejoin="round" d="M 13350,10847 L 13350,10697"/>
 <path fill="none" stroke="rgb(0,0,0)" stroke-linejoin="round" d="M 15120,10847 L 15120,10697"/>
 <path fill="none" stroke="rgb(0,0,0)" stroke-linejoin="round" d="M 15120,10847 L 15120,10697"/>
 <path fill="none" stroke="rgb(0,0,0)" stroke-linejoin="round" d="M 960,10697 L 15120,10697"/>
 <path fill="none" stroke="rgb(0,0,0)" stroke-linejoin="round" d="M 811,10697 L 960,10697"/>
 <path fill="none" stroke="rgb(0,0,0)" stroke-linejoin="round" d="M 811,10697 L 960,10697"/>
 <path fill="none" stroke="rgb(0,0,0)" stroke-linejoin="round" d="M 811,9222 L 960,9222"/>
 <path fill="none" stroke="rgb(0,0,0)" stroke-linejoin="round" d="M 811,9222 L 960,9222"/>
 <path fill="none" stroke="rgb(0,0,0)" stroke-linejoin="round" d="M 811,7747 L 960,7747"/>
 <path fill="none" stroke="rgb(0,0,0)" stroke-linejoin="round" d="M 811,7747 L 960,7747"/>
 <path fill="none" stroke="rgb(0,0,0)" stroke-linejoin="round" d="M 811,6272 L 960,6272"/>
 <path fill="none" stroke="rgb(0,0,0)" stroke-linejoin="round" d="M 811,6272 L 960,6272"/>
 <path fill="none" stroke="rgb(0,0,0)" stroke-linejoin="round" d="M 811,4798 L 960,4798"/>
 <path fill="none" stroke="rgb(0,0,0)" stroke-linejoin="round" d="M 811,4798 L 960,4798"/>
 <path fill="none" stroke="rgb(0,0,0)" stroke-linejoin="round" d="M 811,3323 L 960,3323"/>
 <path fill="none" stroke="rgb(0,0,0)" stroke-linejoin="round" d="M 811,3323 L 960,3323"/>
 <path fill="none" stroke="rgb(0,0,0)" stroke-linejoin="round" d="M 811,1848 L 960,1848"/>
 <path fill="none" stroke="rgb(0,0,0)" stroke-linejoin="round" d="M 811,1848 L 960,1848"/>
 <path fill="none" stroke="rgb(0,0,0)" stroke-linejoin="round" d="M 811,374 L 960,374"/>
 <path fill="none" stroke="rgb(0,0,0)" stroke-linejoin="round" d="M 811,374 L 960,374"/>
 <path fill="none" stroke="rgb(0,0,0)" stroke-linejoin="round" d="M 960,10697 L 960,374"/>
 <path fill="none" stroke="rgb(255,66,14)" stroke-width="80" stroke-linejoin="round" d="M 960,10402 L 1845,10325 2730,10228 3615,10107 4500,9953 5385,9760 6270,9517 7155,9210 8040,8824 8925,8337 9810,7723 10695,6951 11580,5978 12465,4751 13350,3206 14234,1258"/>
 <path fill="rgb(255,66,14)" stroke="none" d="M 836,10402 L 960,10527 1085,10402 960,10277 836,10402 Z"/>
 <path fill="none" stroke="rgb(255,66,14)" stroke-linejoin="round" d="M 836,10402 L 960,10527 1085,10402 960,10277 836,10402 Z"/>
 <path fill="rgb(255,66,14)" stroke="none" d="M 1721,10325 L 1845,10450 1970,10325 1845,10200 1721,10325 Z"/>
 <path fill="none" stroke="rgb(255,66,14)" stroke-linejoin="round" d="M 1721,10325 L 1845,10450 1970,10325 1845,10200 1721,10325 Z"/>
 <path fill="rgb(255,66,14)" stroke="none" d="M 2605,10228 L 2730,10353 2854,10228 2730,10103 2605,10228 Z"/>
 <path fill="none" stroke="rgb(255,66,14)" stroke-linejoin="round" d="M 2605,10228 L 2730,10353 2854,10228 2730,10103 2605,10228 Z"/>
 <path fill="rgb(255,66,14)" stroke="none" d="M 3490,10107 L 3615,10232 3739,10107 3615,9982 3490,10107 Z"/>
 <path fill="none" stroke="rgb(255,66,14)" stroke-linejoin="round" d="M 3490,10107 L 3615,10232 3739,10107 3615,9982 3490,10107 Z"/>
 <path fill="rgb(255,66,14)" stroke="none" d="M 4376,9953 L 4500,10078 4625,9953 4500,9828 4376,9953 Z"/>
 <path fill="none" stroke="rgb(255,66,14)" stroke-linejoin="round" d="M 4376,9953 L 4500,10078 4625,9953 4500,9828 4376,9953 Z"/>
 <path fill="rgb(255,66,14)" stroke="none" d="M 5261,9760 L 5385,9885 5509,9760 5385,9635 5261,9760 Z"/>
 <path fill="none" stroke="rgb(255,66,14)" stroke-linejoin="round" d="M 5261,9760 L 5385,9885 5509,9760 5385,9635 5261,9760 Z"/>
 <path fill="rgb(255,66,14)" stroke="none" d="M 6145,9517 L 6270,9642 6394,9517 6270,9392 6145,9517 Z"/>
 <path fill="none" stroke="rgb(255,66,14)" stroke-linejoin="round" d="M 6145,9517 L 6270,9642 6394,9517 6270,9392 6145,9517 Z"/>
 <path fill="rgb(255,66,14)" stroke="none" d="M 7030,9210 L 7155,9335 7279,9210 7155,9085 7030,9210 Z"/>
 <path fill="none" stroke="rgb(255,66,14)" stroke-linejoin="round" d="M 7030,9210 L 7155,9335 7279,9210 7155,9085 7030,9210 Z"/>
 <path fill="rgb(255,66,14)" stroke="none" d="M 7916,8824 L 8040,8949 8165,8824 8040,8699 7916,8824 Z"/>
 <path fill="none" stroke="rgb(255,66,14)" stroke-linejoin="round" d="M 7916,8824 L 8040,8949 8165,8824 8040,8699 7916,8824 Z"/>
 <path fill="rgb(255,66,14)" stroke="none" d="M 8801,8337 L 8925,8462 9049,8337 8925,8212 8801,8337 Z"/>
 <path fill="none" stroke="rgb(255,66,14)" stroke-linejoin="round" d="M 8801,8337 L 8925,8462 9049,8337 8925,8212 8801,8337 Z"/>
 <path fill="rgb(255,66,14)" stroke="none" d="M 9685,7723 L 9810,7848 9934,7723 9810,7598 9685,7723 Z"/>
 <path fill="none" stroke="rgb(255,66,14)" stroke-linejoin="round" d="M 9685,7723 L 9810,7848 9934,7723 9810,7598 9685,7723 Z"/>
 <path fill="rgb(255,66,14)" stroke="none" d="M 10570,6951 L 10695,7076 10819,6951 10695,6826 10570,6951 Z"/>
 <path fill="none" stroke="rgb(255,66,14)" stroke-linejoin="round" d="M 10570,6951 L 10695,7076 10819,6951 10695,6826 10570,6951 Z"/>
 <path fill="rgb(255,66,14)" stroke="none" d="M 11456,5978 L 11580,6102 11705,5978 11580,5853 11456,5978 Z"/>
 <path fill="none" stroke="rgb(255,66,14)" stroke-linejoin="round" d="M 11456,5978 L 11580,6102 11705,5978 11580,5853 11456,5978 Z"/>
 <path fill="rgb(255,66,14)" stroke="none" d="M 12341,4751 L 12465,4876 12589,4751 12465,4626 12341,4751 Z"/>
 <path fill="none" stroke="rgb(255,66,14)" stroke-linejoin="round" d="M 12341,4751 L 12465,4876 12589,4751 12465,4626 12341,4751 Z"/>
 <path fill="rgb(255,66,14)" stroke="none" d="M 13225,3206 L 13350,3331 13474,3206 13350,3081 13225,3206 Z"/>
 <path fill="none" stroke="rgb(255,66,14)" stroke-linejoin="round" d="M 13225,3206 L 13350,3331 13474,3206 13350,3081 13225,3206 Z"/>
 <path fill="rgb(255,66,14)" stroke="none" d="M 14110,1258 L 14234,1383 14359,1258 14234,1133 14110,1258 Z"/>
 <path fill="none" stroke="rgb(255,66,14)" stroke-linejoin="round" d="M 14110,1258 L 14234,1383 14359,1258 14234,1133 14110,1258 Z"/>
 <path fill="none" stroke="rgb(0,69,134)" stroke-width="80" stroke-linejoin="round" d="M 960,10402 L 1845,10107 2730,9812 3615,9517 4500,9222 5385,8927 6270,8632 7155,8337 8040,8042 8925,7747 9810,7452 10695,7157 11580,6862 12465,6567 13350,6272 14234,5978"/>
 <path fill="rgb(0,69,134)" stroke="none" d="M 836,10277 L 836,10527 1085,10527 1085,10277 836,10277 Z"/>
 <path fill="none" stroke="rgb(0,69,134)" stroke-linejoin="round" d="M 836,10277 L 836,10527 1085,10527 1085,10277 836,10277 Z"/>
 <path fill="rgb(0,69,134)" stroke="none" d="M 1721,9982 L 1721,10232 1970,10232 1970,9982 1721,9982 Z"/>
 <path fill="none" stroke="rgb(0,69,134)" stroke-linejoin="round" d="M 1721,9982 L 1721,10232 1970,10232 1970,9982 1721,9982 Z"/>
 <path fill="rgb(0,69,134)" stroke="none" d="M 2605,9687 L 2605,9937 2854,9937 2854,9687 2605,9687 Z"/>
 <path fill="none" stroke="rgb(0,69,134)" stroke-linejoin="round" d="M 2605,9687 L 2605,9937 2854,9937 2854,9687 2605,9687 Z"/>
 <path fill="rgb(0,69,134)" stroke="none" d="M 3490,9392 L 3490,9642 3739,9642 3739,9392 3490,9392 Z"/>
 <path fill="none" stroke="rgb(0,69,134)" stroke-linejoin="round" d="M 3490,9392 L 3490,9642 3739,9642 3739,9392 3490,9392 Z"/>
 <path fill="rgb(0,69,134)" stroke="none" d="M 4376,9097 L 4376,9347 4625,9347 4625,9097 4376,9097 Z"/>
 <path fill="none" stroke="rgb(0,69,134)" stroke-linejoin="round" d="M 4376,9097 L 4376,9347 4625,9347 4625,9097 4376,9097 Z"/>
 <path fill="rgb(0,69,134)" stroke="none" d="M 5261,8802 L 5261,9052 5509,9052 5509,8802 5261,8802 Z"/>
 <path fill="none" stroke="rgb(0,69,134)" stroke-linejoin="round" d="M 5261,8802 L 5261,9052 5509,9052 5509,8802 5261,8802 Z"/>
 <path fill="rgb(0,69,134)" stroke="none" d="M 6145,8507 L 6145,8757 6394,8757 6394,8507 6145,8507 Z"/>
 <path fill="none" stroke="rgb(0,69,134)" stroke-linejoin="round" d="M 6145,8507 L 6145,8757 6394,8757 6394,8507 6145,8507 Z"/>
 <path fill="rgb(0,69,134)" stroke="none" d="M 7030,8212 L 7030,8462 7279,8462 7279,8212 7030,8212 Z"/>
 <path fill="none" stroke="rgb(0,69,134)" stroke-linejoin="round" d="M 7030,8212 L 7030,8462 7279,8462 7279,8212 7030,8212 Z"/>
 <path fill="rgb(0,69,134)" stroke="none" d="M 7916,7917 L 7916,8167 8165,8167 8165,7917 7916,7917 Z"/>
 <path fill="none" stroke="rgb(0,69,134)" stroke-linejoin="round" d="M 7916,7917 L 7916,8167 8165,8167 8165,7917 7916,7917 Z"/>
 <path fill="rgb(0,69,134)" stroke="none" d="M 8801,7622 L 8801,7872 9049,7872 9049,7622 8801,7622 Z"/>
 <path fill="none" stroke="rgb(0,69,134)" stroke-linejoin="round" d="M 8801,7622 L 8801,7872 9049,7872 9049,7622 8801,7622 Z"/>
 <path fill="rgb(0,69,134)" stroke="none" d="M 9685,7327 L 9685,7577 9934,7577 9934,7327 9685,7327 Z"/>
 <path fill="none" stroke="rgb(0,69,134)" stroke-linejoin="round" d="M 9685,7327 L 9685,7577 9934,7577 9934,7327 9685,7327 Z"/>
 <path fill="rgb(0,69,134)" stroke="none" d="M 10570,7032 L 10570,7282 10819,7282 10819,7032 10570,7032 Z"/>
 <path fill="none" stroke="rgb(0,69,134)" stroke-linejoin="round" d="M 10570,7032 L 10570,7282 10819,7282 10819,7032 10570,7032 Z"/>
 <path fill="rgb(0,69,134)" stroke="none" d="M 11456,6737 L 11456,6987 11705,6987 11705,6737 11456,6737 Z"/>
 <path fill="none" stroke="rgb(0,69,134)" stroke-linejoin="round" d="M 11456,6737 L 11456,6987 11705,6987 11705,6737 11456,6737 Z"/>
 <path fill="rgb(0,69,134)" stroke="none" d="M 12341,6442 L 12341,6692 12589,6692 12589,6442 12341,6442 Z"/>
 <path fill="none" stroke="rgb(0,69,134)" stroke-linejoin="round" d="M 12341,6442 L 12341,6692 12589,6692 12589,6442 12341,6442 Z"/>
 <path fill="rgb(0,69,134)" stroke="none" d="M 13225,6147 L 13225,6397 13474,6397 13474,6147 13225,6147 Z"/>
 <path fill="none" stroke="rgb(0,69,134)" stroke-linejoin="round" d="M 13225,6147 L 13225,6397 13474,6397 13474,6147 13225,6147 Z"/>
 <path fill="rgb(0,69,134)" stroke="none" d="M 14110,5853 L 14110,6102 14359,6102 14359,5853 14110,5853 Z"/>
 <path fill="none" stroke="rgb(0,69,134)" stroke-linejoin="round" d="M 14110,5853 L 14110,6102 14359,6102 14359,5853 14110,5853 Z"/>
 <text class="TextShape"><tspan class="TextParagraph" font-family="Arial" font-size="459px" font-weight="400"><tspan class="TextPosition" x="842" y="11344"><tspan fill="rgb(0,0,0)" stroke="none">0</tspan></tspan></tspan></text>
 <text class="TextShape"><tspan class="TextParagraph" font-family="Arial" font-size="459px" font-weight="400"><tspan class="TextPosition" x="2612" y="11344"><tspan fill="rgb(0,0,0)" stroke="none">2</tspan></tspan></tspan></text>
 <text class="TextShape"><tspan class="TextParagraph" font-family="Arial" font-size="459px" font-weight="400"><tspan class="TextPosition" x="4382" y="11344"><tspan fill="rgb(0,0,0)" stroke="none">4</tspan></tspan></tspan></text>
 <text class="TextShape"><tspan class="TextParagraph" font-family="Arial" font-size="459px" font-weight="400"><tspan class="TextPosition" x="6152" y="11344"><tspan fill="rgb(0,0,0)" stroke="none">6</tspan></tspan></tspan></text>
 <text class="TextShape"><tspan class="TextParagraph" font-family="Arial" font-size="459px" font-weight="400"><tspan class="TextPosition" x="7922" y="11344"><tspan fill="rgb(0,0,0)" stroke="none">8</tspan></tspan></tspan></text>
 <text class="TextShape"><tspan class="TextParagraph" font-family="Arial" font-size="459px" font-weight="400"><tspan class="TextPosition" x="9573" y="11344"><tspan fill="rgb(0,0,0)" stroke="none">10</tspan></tspan></tspan></text>
 <text class="TextShape"><tspan class="TextParagraph" font-family="Arial" font-size="459px" font-weight="400"><tspan class="TextPosition" x="11344" y="11344"><tspan fill="rgb(0,0,0)" stroke="none">12</tspan></tspan></tspan></text>
 <text class="TextShape"><tspan class="TextParagraph" font-family="Arial" font-size="459px" font-weight="400"><tspan class="TextPosition" x="13113" y="11344"><tspan fill="rgb(0,0,0)" stroke="none">14</tspan></tspan></tspan></text>
 <text class="TextShape"><tspan class="TextParagraph" font-family="Arial" font-size="459px" font-weight="400"><tspan class="TextPosition" x="14884" y="11344"><tspan fill="rgb(0,0,0)" stroke="none">16</tspan></tspan></tspan></text>
 <text class="TextShape"><tspan class="TextParagraph" font-family="Arial" font-size="459px" font-weight="400"><tspan class="TextPosition" x="475" y="10844"><tspan fill="rgb(0,0,0)" stroke="none">0</tspan></tspan></tspan></text>
 <text class="TextShape"><tspan class="TextParagraph" font-family="Arial" font-size="459px" font-weight="400"><tspan class="TextPosition" x="238" y="9369"><tspan fill="rgb(0,0,0)" stroke="none">20</tspan></tspan></tspan></text>
 <text class="TextShape"><tspan class="TextParagraph" font-family="Arial" font-size="459px" font-weight="400"><tspan class="TextPosition" x="238" y="7894"><tspan fill="rgb(0,0,0)" stroke="none">40</tspan></tspan></tspan></text>
 <text class="TextShape"><tspan class="TextParagraph" font-family="Arial" font-size="459px" font-weight="400"><tspan class="TextPosition" x="238" y="6419"><tspan fill="rgb(0,0,0)" stroke="none">60</tspan></tspan></tspan></text>
 <text class="TextShape"><tspan class="TextParagraph" font-family="Arial" font-size="459px" font-weight="400"><tspan class="TextPosition" x="238" y="4944"><tspan fill="rgb(0,0,0)" stroke="none">80</tspan></tspan></tspan></text>
 <text class="TextShape"><tspan class="TextParagraph" font-family="Arial" font-size="459px" font-weight="400"><tspan class="TextPosition" x="1" y="3469"><tspan fill="rgb(0,0,0)" stroke="none">100</tspan></tspan></tspan></text>
 <text class="TextShape"><tspan class="TextParagraph" font-family="Arial" font-size="459px" font-weight="400"><tspan class="TextPosition" x="1" y="1994"><tspan fill="rgb(0,0,0)" stroke="none">120</tspan></tspan></tspan></text>
 <text class="TextShape"><tspan class="TextParagraph" font-family="Arial" font-size="459px" font-weight="400"><tspan class="TextPosition" x="1" y="520"><tspan fill="rgb(0,0,0)" stroke="none">140</tspan></tspan></tspan></text>
 <text class="TextShape"><tspan class="TextParagraph" font-family="Arial" font-size="635px" font-weight="700"><tspan class="TextPosition" x="2988" y="1068"><tspan fill="rgb(0,0,0)" stroke="none">Crecimiento lineal y exponencial</tspan></tspan></tspan></text>
 <path fill="none" stroke="rgb(0,69,134)" stroke-width="80" stroke-linejoin="round" d="M 5641,11515 L 6437,11515"/>
 <path fill="rgb(0,69,134)" stroke="none" d="M 5933,11410 L 5933,11620 6143,11620 6143,11410 5933,11410 Z"/>
 <path fill="none" stroke="rgb(0,69,134)" stroke-linejoin="round" d="M 5933,11410 L 5933,11620 6143,11620 6143,11410 5933,11410 Z"/>
 <path fill="none" stroke="rgb(255,66,14)" stroke-width="80" stroke-linejoin="round" d="M 7665,11515 L 8461,11515"/>
 <path fill="rgb(255,66,14)" stroke="none" d="M 7958,11515 L 8063,11620 8168,11515 8063,11410 7958,11515 Z"/>
 <path fill="none" stroke="rgb(255,66,14)" stroke-linejoin="round" d="M 7958,11515 L 8063,11620 8168,11515 8063,11410 7958,11515 Z"/>
 <text class="TextShape"><tspan class="TextParagraph" font-family="Liberation Sans" font-size="353px" font-weight="400"><tspan class="TextPosition" x="6537" y="11635"><tspan fill="rgb(0,0,0)" stroke="none">Lineal</tspan></tspan></tspan></text>
 <text class="TextShape"><tspan class="TextParagraph" font-family="Liberation Sans" font-size="353px" font-weight="400"><tspan class="TextPosition" x="8561" y="11635"><tspan fill="rgb(0,0,0)" stroke="none">Exponencial</tspan></tspan></tspan></text>
</svg>
