<?xml version="1.0" encoding="UTF-8"?>
<!DOCTYPE svg PUBLIC "-//W3C//DTD SVG 1.1//EN" "http://www.w3.org/Graphics/SVG/1.1/DTD/svg11.dtd">
<svg width="160mm" height="120mm" viewBox="0 0 16000 12000" version="1.1" baseProfile="tiny" xmlns="http://www.w3.org/2000/svg" stroke-width="28.222" stroke-linejoin="round" xml:space="preserve">
 <path fill="rgb(255,255,255)" stroke="none" d="M 8000,12000 L 0,12000 0,0 16000,0 16000,12000 8000,12000 Z"/>
 <path fill="none" stroke="rgb(0,0,0)" stroke-linejoin="round" d="M 8403,11170 L 1310,11170 1310,900 15497,900 15497,11170 8403,11170 Z"/>
 <path fill="none" stroke="rgb(0,0,0)" stroke-linejoin="round" d="M 15496,11169 L 1309,11169"/>
 <path fill="none" stroke="rgb(0,0,0)" stroke-linejoin="round" d="M 15496,8601 L 1309,8601"/>
 <path fill="none" stroke="rgb(0,0,0)" stroke-linejoin="round" d="M 15496,6033 L 1309,6033"/>
 <path fill="none" stroke="rgb(0,0,0)" stroke-linejoin="round" d="M 15496,3466 L 1309,3466"/>
 <path fill="none" stroke="rgb(0,0,0)" stroke-linejoin="round" d="M 15496,899 L 1309,899"/>
 <path fill="none" stroke="rgb(0,0,0)" stroke-linejoin="round" d="M 1309,11319 L 1309,11169"/>
 <path fill="none" stroke="rgb(0,0,0)" stroke-linejoin="round" d="M 1309,11319 L 1309,11169"/>
 <path fill="none" stroke="rgb(0,0,0)" stroke-linejoin="round" d="M 2728,11319 L 2728,11169"/>
 <path fill="none" stroke="rgb(0,0,0)" stroke-linejoin="round" d="M 2728,11319 L 2728,11169"/>
 <path fill="none" stroke="rgb(0,0,0)" stroke-linejoin="round" d="M 4147,11319 L 4147,11169"/>
 <path fill="none" stroke="rgb(0,0,0)" stroke-linejoin="round" d="M 4147,11319 L 4147,11169"/>
 <path fill="none" stroke="rgb(0,0,0)" stroke-linejoin="round" d="M 5566,11319 L 5566,11169"/>
 <path fill="none" stroke="rgb(0,0,0)" stroke-linejoin="round" d="M 5566,11319 L 5566,11169"/>
 <path fill="none" stroke="rgb(0,0,0)" stroke-linejoin="round" d="M 6985,11319 L 6985,11169"/>
 <path fill="none" stroke="rgb(0,0,0)" stroke-linejoin="round" d="M 6985,11319 L 6985,11169"/>
 <path fill="none" stroke="rgb(0,0,0)" stroke-linejoin="round" d="M 8402,11319 L 8402,11169"/>
 <path fill="none" stroke="rgb(0,0,0)" stroke-linejoin="round" d="M 8402,11319 L 8402,11169"/>
 <path fill="none" stroke="rgb(0,0,0)" stroke-linejoin="round" d="M 9821,11319 L 9821,11169"/>
 <path fill="none" stroke="rgb(0,0,0)" stroke-linejoin="round" d="M 9821,11319 L 9821,11169"/>
 <path fill="none" stroke="rgb(0,0,0)" stroke-linejoin="round" d="M 11240,11319 L 11240,11169"/>
 <path fill="none" stroke="rgb(0,0,0)" stroke-linejoin="round" d="M 11240,11319 L 11240,11169"/>
 <path fill="none" stroke="rgb(0,0,0)" stroke-linejoin="round" d="M 12659,11319 L 12659,11169"/>
 <path fill="none" stroke="rgb(0,0,0)" stroke-linejoin="round" d="M 12659,11319 L 12659,11169"/>
 <path fill="none" stroke="rgb(0,0,0)" stroke-linejoin="round" d="M 14078,11319 L 14078,11169"/>
 <path fill="none" stroke="rgb(0,0,0)" stroke-linejoin="round" d="M 14078,11319 L 14078,11169"/>
 <path fill="none" stroke="rgb(0,0,0)" stroke-linejoin="round" d="M 15496,11319 L 15496,11169"/>
 <path fill="none" stroke="rgb(0,0,0)" stroke-linejoin="round" d="M 15496,11319 L 15496,11169"/>
 <path fill="none" stroke="rgb(0,0,0)" stroke-linejoin="round" d="M 1309,11169 L 15496,11169"/>
 <path fill="none" stroke="rgb(0,0,0)" stroke-linejoin="round" d="M 1159,11169 L 1309,11169"/>
 <path fill="none" stroke="rgb(0,0,0)" stroke-linejoin="round" d="M 1159,11169 L 1309,11169"/>
 <path fill="none" stroke="rgb(0,0,0)" stroke-linejoin="round" d="M 1159,8601 L 1309,8601"/>
 <path fill="none" stroke="rgb(0,0,0)" stroke-linejoin="round" d="M 1159,8601 L 1309,8601"/>
 <path fill="none" stroke="rgb(0,0,0)" stroke-linejoin="round" d="M 1159,6033 L 1309,6033"/>
 <path fill="none" stroke="rgb(0,0,0)" stroke-linejoin="round" d="M 1159,6033 L 1309,6033"/>
 <path fill="none" stroke="rgb(0,0,0)" stroke-linejoin="round" d="M 1159,3466 L 1309,3466"/>
 <path fill="none" stroke="rgb(0,0,0)" stroke-linejoin="round" d="M 1159,3466 L 1309,3466"/>
 <path fill="none" stroke="rgb(0,0,0)" stroke-linejoin="round" d="M 1159,899 L 1309,899"/>
 <path fill="none" stroke="rgb(0,0,0)" stroke-linejoin="round" d="M 1159,899 L 1309,899"/>
 <path fill="none" stroke="rgb(0,0,0)" stroke-linejoin="round" d="M 1309,11169 L 1309,899"/>
 <path fill="rgb(0,69,134)" stroke="none" d="M 1752,774 L 1752,1024 2002,1024 2002,774 1752,774 Z"/>
 <path fill="none" stroke="rgb(0,69,134)" stroke-linejoin="round" d="M 1752,774 L 1752,1024 2002,1024 2002,774 1752,774 Z"/>
 <path fill="rgb(0,69,134)" stroke="none" d="M 2320,1343 L 2320,1593 2570,1593 2570,1343 2320,1343 Z"/>
 <path fill="none" stroke="rgb(0,69,134)" stroke-linejoin="round" d="M 2320,1343 L 2320,1593 2570,1593 2570,1343 2320,1343 Z"/>
 <path fill="rgb(0,69,134)" stroke="none" d="M 3738,2116 L 3738,2366 3988,2366 3988,2116 3738,2116 Z"/>
 <path fill="none" stroke="rgb(0,69,134)" stroke-linejoin="round" d="M 3738,2116 L 3738,2366 3988,2366 3988,2116 3738,2116 Z"/>
 <path fill="rgb(0,69,134)" stroke="none" d="M 4590,2889 L 4590,3139 4840,3139 4840,2889 4590,2889 Z"/>
 <path fill="none" stroke="rgb(0,69,134)" stroke-linejoin="round" d="M 4590,2889 L 4590,3139 4840,3139 4840,2889 4590,2889 Z"/>
 <path fill="rgb(0,69,134)" stroke="none" d="M 5441,2889 L 5441,3139 5691,3139 5691,2889 5441,2889 Z"/>
 <path fill="none" stroke="rgb(0,69,134)" stroke-linejoin="round" d="M 5441,2889 L 5441,3139 5691,3139 5691,2889 5441,2889 Z"/>
 <path fill="rgb(0,69,134)" stroke="none" d="M 6576,3341 L 6576,3591 6826,3591 6826,3341 6576,3341 Z"/>
 <path fill="none" stroke="rgb(0,69,134)" stroke-linejoin="round" d="M 6576,3341 L 6576,3591 6826,3591 6826,3341 6576,3341 Z"/>
 <path fill="rgb(0,69,134)" stroke="none" d="M 7711,3590 L 7711,3840 7961,3840 7961,3590 7711,3590 Z"/>
 <path fill="none" stroke="rgb(0,69,134)" stroke-linejoin="round" d="M 7711,3590 L 7711,3840 7961,3840 7961,3590 7711,3590 Z"/>
 <path fill="rgb(0,69,134)" stroke="none" d="M 8845,4512 L 8845,4762 9095,4762 9095,4512 8845,4512 Z"/>
 <path fill="none" stroke="rgb(0,69,134)" stroke-linejoin="round" d="M 8845,4512 L 8845,4762 9095,4762 9095,4512 8845,4512 Z"/>
 <path fill="rgb(0,69,134)" stroke="none" d="M 9413,4887 L 9413,5137 9663,5137 9663,4887 9413,4887 Z"/>
 <path fill="none" stroke="rgb(0,69,134)" stroke-linejoin="round" d="M 9413,4887 L 9413,5137 9663,5137 9663,4887 9413,4887 Z"/>
 <path fill="rgb(0,69,134)" stroke="none" d="M 9696,5254 L 9696,5504 9946,5504 9946,5254 9696,5254 Z"/>
 <path fill="none" stroke="rgb(0,69,134)" stroke-linejoin="round" d="M 9696,5254 L 9696,5504 9946,5504 9946,5254 9696,5254 Z"/>
 <path fill="rgb(0,69,134)" stroke="none" d="M 10548,5616 L 10548,5866 10798,5866 10798,5616 10548,5616 Z"/>
 <path fill="none" stroke="rgb(0,69,134)" stroke-linejoin="round" d="M 10548,5616 L 10548,5866 10798,5866 10798,5616 10548,5616 Z"/>
 <path fill="rgb(0,69,134)" stroke="none" d="M 11399,6025 L 11399,6275 11649,6275 11649,6025 11399,6025 Z"/>
 <path fill="none" stroke="rgb(0,69,134)" stroke-linejoin="round" d="M 11399,6025 L 11399,6275 11649,6275 11649,6025 11399,6025 Z"/>
 <path fill="rgb(0,69,134)" stroke="none" d="M 11966,6798 L 11966,7048 12216,7048 12216,6798 11966,6798 Z"/>
 <path fill="none" stroke="rgb(0,69,134)" stroke-linejoin="round" d="M 11966,6798 L 11966,7048 12216,7048 12216,6798 11966,6798 Z"/>
 <path fill="rgb(0,69,134)" stroke="none" d="M 12534,7179 L 12534,7429 12784,7429 12784,7179 12534,7179 Z"/>
 <path fill="none" stroke="rgb(0,69,134)" stroke-linejoin="round" d="M 12534,7179 L 12534,7429 12784,7429 12784,7179 12534,7179 Z"/>
 <path fill="rgb(0,69,134)" stroke="none" d="M 13101,7596 L 13101,7846 13351,7846 13351,7596 13101,7596 Z"/>
 <path fill="none" stroke="rgb(0,69,134)" stroke-linejoin="round" d="M 13101,7596 L 13101,7846 13351,7846 13351,7596 13101,7596 Z"/>
 <path fill="rgb(0,69,134)" stroke="none" d="M 13953,8101 L 13953,8351 14203,8351 14203,8101 13953,8101 Z"/>
 <path fill="none" stroke="rgb(0,69,134)" stroke-linejoin="round" d="M 13953,8101 L 13953,8351 14203,8351 14203,8101 13953,8101 Z"/>
 <path fill="rgb(255,66,14)" stroke="none" d="M 1468,899 L 1593,1024 1718,899 1593,774 1468,899 Z"/>
 <path fill="none" stroke="rgb(255,66,14)" stroke-linejoin="round" d="M 1468,899 L 1593,1024 1718,899 1593,774 1468,899 Z"/>
 <path fill="rgb(255,66,14)" stroke="none" d="M 2603,2241 L 2728,2366 2853,2241 2728,2116 2603,2241 Z"/>
 <path fill="none" stroke="rgb(255,66,14)" stroke-linejoin="round" d="M 2603,2241 L 2728,2366 2853,2241 2728,2116 2603,2241 Z"/>
 <path fill="rgb(255,66,14)" stroke="none" d="M 4306,3014 L 4431,3139 4556,3014 4431,2889 4306,3014 Z"/>
 <path fill="none" stroke="rgb(255,66,14)" stroke-linejoin="round" d="M 4306,3014 L 4431,3139 4556,3014 4431,2889 4306,3014 Z"/>
 <path fill="rgb(255,66,14)" stroke="none" d="M 5441,3466 L 5566,3591 5691,3466 5566,3341 5441,3466 Z"/>
 <path fill="none" stroke="rgb(255,66,14)" stroke-linejoin="round" d="M 5441,3466 L 5566,3591 5691,3466 5566,3341 5441,3466 Z"/>
 <path fill="rgb(255,66,14)" stroke="none" d="M 6576,3715 L 6701,3840 6826,3715 6701,3590 6576,3715 Z"/>
 <path fill="none" stroke="rgb(255,66,14)" stroke-linejoin="round" d="M 6576,3715 L 6701,3840 6826,3715 6701,3590 6576,3715 Z"/>
 <path fill="rgb(255,66,14)" stroke="none" d="M 7995,4036 L 8119,4161 8244,4036 8119,3911 7995,4036 Z"/>
 <path fill="none" stroke="rgb(255,66,14)" stroke-linejoin="round" d="M 7995,4036 L 8119,4161 8244,4036 8119,3911 7995,4036 Z"/>
 <path fill="rgb(255,66,14)" stroke="none" d="M 8277,4637 L 8402,4762 8527,4637 8402,4512 8277,4637 Z"/>
 <path fill="none" stroke="rgb(255,66,14)" stroke-linejoin="round" d="M 8277,4637 L 8402,4762 8527,4637 8402,4512 8277,4637 Z"/>
 <path fill="rgb(255,66,14)" stroke="none" d="M 8845,5012 L 8970,5137 9095,5012 8970,4887 8845,5012 Z"/>
 <path fill="none" stroke="rgb(255,66,14)" stroke-linejoin="round" d="M 8845,5012 L 8970,5137 9095,5012 8970,4887 8845,5012 Z"/>
 <path fill="rgb(255,66,14)" stroke="none" d="M 9413,5379 L 9538,5504 9663,5379 9538,5254 9413,5379 Z"/>
 <path fill="none" stroke="rgb(255,66,14)" stroke-linejoin="round" d="M 9413,5379 L 9538,5504 9663,5379 9538,5254 9413,5379 Z"/>
 <path fill="rgb(255,66,14)" stroke="none" d="M 9696,5741 L 9821,5866 9946,5741 9821,5616 9696,5741 Z"/>
 <path fill="none" stroke="rgb(255,66,14)" stroke-linejoin="round" d="M 9696,5741 L 9821,5866 9946,5741 9821,5616 9696,5741 Z"/>
 <path fill="rgb(255,66,14)" stroke="none" d="M 10831,6150 L 10956,6275 11081,6150 10956,6025 10831,6150 Z"/>
 <path fill="none" stroke="rgb(255,66,14)" stroke-linejoin="round" d="M 10831,6150 L 10956,6275 11081,6150 10956,6025 10831,6150 Z"/>
 <path fill="rgb(255,66,14)" stroke="none" d="M 11115,6513 L 11240,6638 11365,6513 11240,6388 11115,6513 Z"/>
 <path fill="none" stroke="rgb(255,66,14)" stroke-linejoin="round" d="M 11115,6513 L 11240,6638 11365,6513 11240,6388 11115,6513 Z"/>
 <path fill="rgb(255,66,14)" stroke="none" d="M 11399,6923 L 11524,7048 11649,6923 11524,6798 11399,6923 Z"/>
 <path fill="none" stroke="rgb(255,66,14)" stroke-linejoin="round" d="M 11399,6923 L 11524,7048 11649,6923 11524,6798 11399,6923 Z"/>
 <path fill="rgb(255,66,14)" stroke="none" d="M 11683,7304 L 11808,7429 11933,7304 11808,7179 11683,7304 Z"/>
 <path fill="none" stroke="rgb(255,66,14)" stroke-linejoin="round" d="M 11683,7304 L 11808,7429 11933,7304 11808,7179 11683,7304 Z"/>
 <path fill="rgb(255,66,14)" stroke="none" d="M 12250,7721 L 12375,7846 12500,7721 12375,7596 12250,7721 Z"/>
 <path fill="none" stroke="rgb(255,66,14)" stroke-linejoin="round" d="M 12250,7721 L 12375,7846 12500,7721 12375,7596 12250,7721 Z"/>
 <path fill="rgb(255,66,14)" stroke="none" d="M 13669,8226 L 13794,8351 13919,8226 13794,8101 13669,8226 Z"/>
 <path fill="none" stroke="rgb(255,66,14)" stroke-linejoin="round" d="M 13669,8226 L 13794,8351 13919,8226 13794,8101 13669,8226 Z"/>
 <path fill="rgb(255,66,14)" stroke="none" d="M 14236,8601 L 14361,8726 14486,8601 14361,8476 14236,8601 Z"/>
 <path fill="none" stroke="rgb(255,66,14)" stroke-linejoin="round" d="M 14236,8601 L 14361,8726 14486,8601 14361,8476 14236,8601 Z"/>
 <path fill="rgb(255,66,14)" stroke="none" d="M 14804,8998 L 14929,9123 15054,8998 14929,8873 14804,8998 Z"/>
 <path fill="none" stroke="rgb(255,66,14)" stroke-linejoin="round" d="M 14804,8998 L 14929,9123 15054,8998 14929,8873 14804,8998 Z"/>
 <path fill="rgb(255,66,14)" stroke="none" d="M 15371,9374 L 15496,9499 15621,9374 15496,9249 15371,9374 Z"/>
 <path fill="none" stroke="rgb(255,66,14)" stroke-linejoin="round" d="M 15371,9374 L 15496,9499 15621,9374 15496,9249 15371,9374 Z"/>
 <text class="TextShape"><tspan class="TextParagraph" font-family="Arial" font-size="353px" font-weight="400"><tspan class="TextPosition" x="938" y="11763"><tspan fill="rgb(0,0,0)" stroke="none">1970</tspan></tspan></tspan></text>
 <text class="TextShape"><tspan class="TextParagraph" font-family="Arial" font-size="353px" font-weight="400"><tspan class="TextPosition" x="2357" y="11763"><tspan fill="rgb(0,0,0)" stroke="none">1975</tspan></tspan></tspan></text>
 <text class="TextShape"><tspan class="TextParagraph" font-family="Arial" font-size="353px" font-weight="400"><tspan class="TextPosition" x="3776" y="11763"><tspan fill="rgb(0,0,0)" stroke="none">1980</tspan></tspan></tspan></text>
 <text class="TextShape"><tspan class="TextParagraph" font-family="Arial" font-size="353px" font-weight="400"><tspan class="TextPosition" x="5195" y="11763"><tspan fill="rgb(0,0,0)" stroke="none">1985</tspan></tspan></tspan></text>
 <text class="TextShape"><tspan class="TextParagraph" font-family="Arial" font-size="353px" font-weight="400"><tspan class="TextPosition" x="6614" y="11763"><tspan fill="rgb(0,0,0)" stroke="none">1990</tspan></tspan></tspan></text>
 <text class="TextShape"><tspan class="TextParagraph" font-family="Arial" font-size="353px" font-weight="400"><tspan class="TextPosition" x="8032" y="11763"><tspan fill="rgb(0,0,0)" stroke="none">1995</tspan></tspan></tspan></text>
 <text class="TextShape"><tspan class="TextParagraph" font-family="Arial" font-size="353px" font-weight="400"><tspan class="TextPosition" x="9451" y="11763"><tspan fill="rgb(0,0,0)" stroke="none">2000</tspan></tspan></tspan></text>
 <text class="TextShape"><tspan class="TextParagraph" font-family="Arial" font-size="353px" font-weight="400"><tspan class="TextPosition" x="10870" y="11763"><tspan fill="rgb(0,0,0)" stroke="none">2005</tspan></tspan></tspan></text>
 <text class="TextShape"><tspan class="TextParagraph" font-family="Arial" font-size="353px" font-weight="400"><tspan class="TextPosition" x="12289" y="11763"><tspan fill="rgb(0,0,0)" stroke="none">2010</tspan></tspan></tspan></text>
 <text class="TextShape"><tspan class="TextParagraph" font-family="Arial" font-size="353px" font-weight="400"><tspan class="TextPosition" x="13708" y="11763"><tspan fill="rgb(0,0,0)" stroke="none">2015</tspan></tspan></tspan></text>
 <text class="TextShape"><tspan class="TextParagraph" font-family="Arial" font-size="353px" font-weight="400"><tspan class="TextPosition" x="15126" y="11763"><tspan fill="rgb(0,0,0)" stroke="none">2020</tspan></tspan></tspan></text>
 <text class="TextShape"><tspan class="TextParagraph" font-family="Arial" font-size="353px" font-weight="400"><tspan class="TextPosition" x="874" y="11303"><tspan fill="rgb(0,0,0)" stroke="none">1</tspan></tspan></tspan></text>
 <text class="TextShape"><tspan class="TextParagraph" font-family="Arial" font-size="353px" font-weight="400"><tspan class="TextPosition" x="689" y="8735"><tspan fill="rgb(0,0,0)" stroke="none">10</tspan></tspan></tspan></text>
 <text class="TextShape"><tspan class="TextParagraph" font-family="Arial" font-size="353px" font-weight="400"><tspan class="TextPosition" x="503" y="6167"><tspan fill="rgb(0,0,0)" stroke="none">100</tspan></tspan></tspan></text>
 <text class="TextShape"><tspan class="TextParagraph" font-family="Arial" font-size="353px" font-weight="400"><tspan class="TextPosition" x="212" y="3599"><tspan fill="rgb(0,0,0)" stroke="none">1.000</tspan></tspan></tspan></text>
 <text class="TextShape"><tspan class="TextParagraph" font-family="Arial" font-size="353px" font-weight="400"><tspan class="TextPosition" x="27" y="1032"><tspan fill="rgb(0,0,0)" stroke="none">10.000</tspan></tspan></tspan></text>
 <text class="TextShape"><tspan class="TextParagraph" font-family="Arial" font-size="353px" font-weight="400"><tspan class="TextPosition" x="2103" y="1032"><tspan fill="rgb(0,0,0)" stroke="none">8008</tspan></tspan></tspan></text>
 <text class="TextShape"><tspan class="TextParagraph" font-family="Arial" font-size="353px" font-weight="400"><tspan class="TextPosition" x="2671" y="1601"><tspan fill="rgb(0,0,0)" stroke="none">8080</tspan></tspan></tspan></text>
 <text class="TextShape"><tspan class="TextParagraph" font-family="Arial" font-size="353px" font-weight="400"><tspan class="TextPosition" x="4089" y="2374"><tspan fill="rgb(0,0,0)" stroke="none">8088</tspan></tspan></tspan></text>
 <text class="TextShape"><tspan class="TextParagraph" font-family="Arial" font-size="353px" font-weight="400"><tspan class="TextPosition" x="4941" y="3147"><tspan fill="rgb(0,0,0)" stroke="none">80286</tspan></tspan></tspan></text>
 <text class="TextShape"><tspan class="TextParagraph" font-family="Arial" font-size="353px" font-weight="400"><tspan class="TextPosition" x="5792" y="3147"><tspan fill="rgb(0,0,0)" stroke="none">80386</tspan></tspan></tspan></text>
 <text class="TextShape"><tspan class="TextParagraph" font-family="Arial" font-size="353px" font-weight="400"><tspan class="TextPosition" x="6927" y="3599"><tspan fill="rgb(0,0,0)" stroke="none">80486</tspan></tspan></tspan></text>
 <text class="TextShape"><tspan class="TextParagraph" font-family="Arial" font-size="353px" font-weight="400"><tspan class="TextPosition" x="8061" y="3848"><tspan fill="rgb(0,0,0)" stroke="none">Pentium</tspan></tspan></tspan></text>
 <text class="TextShape"><tspan class="TextParagraph" font-family="Arial" font-size="353px" font-weight="400"><tspan class="TextPosition" x="9196" y="4770"><tspan fill="rgb(0,0,0)" stroke="none">Pentium II</tspan></tspan></tspan></text>
 <text class="TextShape"><tspan class="TextParagraph" font-family="Arial" font-size="353px" font-weight="400"><tspan class="TextPosition" x="9764" y="5145"><tspan fill="rgb(0,0,0)" stroke="none">Pentium III</tspan></tspan></tspan></text>
 <text class="TextShape"><tspan class="TextParagraph" font-family="Arial" font-size="353px" font-weight="400"><tspan class="TextPosition" x="10047" y="5512"><tspan fill="rgb(0,0,0)" stroke="none">Pentium 4</tspan></tspan></tspan></text>
 <text class="TextShape"><tspan class="TextParagraph" font-family="Arial" font-size="353px" font-weight="400"><tspan class="TextPosition" x="10899" y="5874"><tspan fill="rgb(0,0,0)" stroke="none">Pentium M</tspan></tspan></tspan></text>
 <text class="TextShape"><tspan class="TextParagraph" font-family="Arial" font-size="353px" font-weight="400"><tspan class="TextPosition" x="11750" y="6284"><tspan fill="rgb(0,0,0)" stroke="none">Core Duo</tspan></tspan></tspan></text>
 <text class="TextShape"><tspan class="TextParagraph" font-family="Arial" font-size="353px" font-weight="400"><tspan class="TextPosition" x="12317" y="7057"><tspan fill="rgb(0,0,0)" stroke="none">Nehalem</tspan></tspan></tspan></text>
 <text class="TextShape"><tspan class="TextParagraph" font-family="Arial" font-size="353px" font-weight="400"><tspan class="TextPosition" x="12885" y="7438"><tspan fill="rgb(0,0,0)" stroke="none">Westmere</tspan></tspan></tspan></text>
 <text class="TextShape"><tspan class="TextParagraph" font-family="Arial" font-size="353px" font-weight="400"><tspan class="TextPosition" x="13452" y="7855"><tspan fill="rgb(0,0,0)" stroke="none">Ivy Bridge</tspan></tspan></tspan></text>
 <text class="TextShape"><tspan class="TextParagraph" font-family="Arial" font-size="353px" font-weight="400"><tspan class="TextPosition" x="14304" y="8360"><tspan fill="rgb(0,0,0)" stroke="none">Broadwell</tspan></tspan></tspan></text>
 <text class="TextShape"><tspan class="TextParagraph" font-family="Arial" font-size="459px" font-weight="700"><tspan class="TextPosition" x="3598" y="664"><tspan fill="rgb(0,0,0)" stroke="none">Tecnología de fabricación microprocesadores Intel</tspan></tspan></tspan></text>
 <path fill="none" stroke="rgb(0,0,0)" stroke-linejoin="round" d="M 3377,7857 L 2003,7857 2003,6331 4752,6331 4752,7857 3377,7857 Z"/>
 <path fill="rgb(255,66,14)" stroke="none" d="M 2348,6768 L 2453,6874 2559,6768 2453,6663 2348,6768 Z"/>
 <path fill="none" stroke="rgb(255,66,14)" stroke-linejoin="round" d="M 2348,6768 L 2453,6874 2559,6768 2453,6663 2348,6768 Z"/>
 <path fill="rgb(0,69,134)" stroke="none" d="M 2348,7313 L 2348,7524 2559,7524 2559,7313 2348,7313 Z"/>
 <path fill="none" stroke="rgb(0,69,134)" stroke-linejoin="round" d="M 2348,7313 L 2348,7524 2559,7524 2559,7313 2348,7313 Z"/>
 <text class="TextShape"><tspan class="TextParagraph" font-family="Arial" font-size="353px" font-weight="400"><tspan class="TextPosition" x="2659" y="6901"><tspan fill="rgb(0,0,0)" stroke="none">Tecnología</tspan></tspan></tspan></text>
 <text class="TextShape"><tspan class="TextParagraph" font-family="Arial" font-size="353px" font-weight="400"><tspan class="TextPosition" x="2659" y="7551"><tspan fill="rgb(0,0,0)" stroke="none">Procesador</tspan></tspan></tspan></text>
 <text class="TextShape"><tspan class="TextParagraph" font-family="Arial" font-size="353px" font-weight="400"><tspan class="TextPosition" x="137" y="502"><tspan fill="rgb(0,0,0)" stroke="none">nanómetros</tspan></tspan></tspan></text>
</svg>
