<?xml version="1.0" encoding="UTF-8"?>
<!DOCTYPE svg PUBLIC "-//W3C//DTD SVG 1.1//EN" "http://www.w3.org/Graphics/SVG/1.1/DTD/svg11.dtd">
<svg width="160mm" height="118mm" viewBox="0 0 16000 11800" version="1.1" baseProfile="tiny" xmlns="http://www.w3.org/2000/svg" stroke-width="28.222" stroke-linejoin="round" xml:space="preserve">
 <path fill="rgb(255,255,255)" stroke="none" d="M 8003,11841 L 7,11841 7,0 16000,0 16000,11841 8003,11841 Z"/>
 <path fill="none" stroke="rgb(0,0,0)" stroke-linejoin="round" d="M 8339,11039 L 1282,11039 1282,980 15396,980 15396,11039 8339,11039 Z"/>
 <path fill="none" stroke="rgb(0,0,0)" stroke-linejoin="round" d="M 15396,11038 L 1282,11038"/>
 <path fill="none" stroke="rgb(0,0,0)" stroke-linejoin="round" d="M 15396,9600 L 1282,9600"/>
 <path fill="none" stroke="rgb(0,0,0)" stroke-linejoin="round" d="M 15396,8163 L 1282,8163"/>
 <path fill="none" stroke="rgb(0,0,0)" stroke-linejoin="round" d="M 15396,6726 L 1282,6726"/>
 <path fill="none" stroke="rgb(0,0,0)" stroke-linejoin="round" d="M 15396,5290 L 1282,5290"/>
 <path fill="none" stroke="rgb(0,0,0)" stroke-linejoin="round" d="M 15396,3853 L 1282,3853"/>
 <path fill="none" stroke="rgb(0,0,0)" stroke-linejoin="round" d="M 15396,2416 L 1282,2416"/>
 <path fill="none" stroke="rgb(0,0,0)" stroke-linejoin="round" d="M 15396,979 L 1282,979"/>
 <path fill="none" stroke="rgb(0,0,0)" stroke-linejoin="round" d="M 1282,11188 L 1282,11038"/>
 <path fill="none" stroke="rgb(0,0,0)" stroke-linejoin="round" d="M 1282,11188 L 1282,11038"/>
 <path fill="none" stroke="rgb(0,0,0)" stroke-linejoin="round" d="M 2694,11188 L 2694,11038"/>
 <path fill="none" stroke="rgb(0,0,0)" stroke-linejoin="round" d="M 2694,11188 L 2694,11038"/>
 <path fill="none" stroke="rgb(0,0,0)" stroke-linejoin="round" d="M 4105,11188 L 4105,11038"/>
 <path fill="none" stroke="rgb(0,0,0)" stroke-linejoin="round" d="M 4105,11188 L 4105,11038"/>
 <path fill="none" stroke="rgb(0,0,0)" stroke-linejoin="round" d="M 5516,11188 L 5516,11038"/>
 <path fill="none" stroke="rgb(0,0,0)" stroke-linejoin="round" d="M 5516,11188 L 5516,11038"/>
 <path fill="none" stroke="rgb(0,0,0)" stroke-linejoin="round" d="M 6928,11188 L 6928,11038"/>
 <path fill="none" stroke="rgb(0,0,0)" stroke-linejoin="round" d="M 6928,11188 L 6928,11038"/>
 <path fill="none" stroke="rgb(0,0,0)" stroke-linejoin="round" d="M 8339,11188 L 8339,11038"/>
 <path fill="none" stroke="rgb(0,0,0)" stroke-linejoin="round" d="M 8339,11188 L 8339,11038"/>
 <path fill="none" stroke="rgb(0,0,0)" stroke-linejoin="round" d="M 9750,11188 L 9750,11038"/>
 <path fill="none" stroke="rgb(0,0,0)" stroke-linejoin="round" d="M 9750,11188 L 9750,11038"/>
 <path fill="none" stroke="rgb(0,0,0)" stroke-linejoin="round" d="M 11161,11188 L 11161,11038"/>
 <path fill="none" stroke="rgb(0,0,0)" stroke-linejoin="round" d="M 11161,11188 L 11161,11038"/>
 <path fill="none" stroke="rgb(0,0,0)" stroke-linejoin="round" d="M 12573,11188 L 12573,11038"/>
 <path fill="none" stroke="rgb(0,0,0)" stroke-linejoin="round" d="M 12573,11188 L 12573,11038"/>
 <path fill="none" stroke="rgb(0,0,0)" stroke-linejoin="round" d="M 13984,11188 L 13984,11038"/>
 <path fill="none" stroke="rgb(0,0,0)" stroke-linejoin="round" d="M 13984,11188 L 13984,11038"/>
 <path fill="none" stroke="rgb(0,0,0)" stroke-linejoin="round" d="M 15396,11188 L 15396,11038"/>
 <path fill="none" stroke="rgb(0,0,0)" stroke-linejoin="round" d="M 15396,11188 L 15396,11038"/>
 <path fill="none" stroke="rgb(0,0,0)" stroke-linejoin="round" d="M 1282,11038 L 15396,11038"/>
 <path fill="none" stroke="rgb(0,0,0)" stroke-linejoin="round" d="M 1132,11038 L 1282,11038"/>
 <path fill="none" stroke="rgb(0,0,0)" stroke-linejoin="round" d="M 1132,11038 L 1282,11038"/>
 <path fill="none" stroke="rgb(0,0,0)" stroke-linejoin="round" d="M 1132,9600 L 1282,9600"/>
 <path fill="none" stroke="rgb(0,0,0)" stroke-linejoin="round" d="M 1132,9600 L 1282,9600"/>
 <path fill="none" stroke="rgb(0,0,0)" stroke-linejoin="round" d="M 1132,8163 L 1282,8163"/>
 <path fill="none" stroke="rgb(0,0,0)" stroke-linejoin="round" d="M 1132,8163 L 1282,8163"/>
 <path fill="none" stroke="rgb(0,0,0)" stroke-linejoin="round" d="M 1132,6726 L 1282,6726"/>
 <path fill="none" stroke="rgb(0,0,0)" stroke-linejoin="round" d="M 1132,6726 L 1282,6726"/>
 <path fill="none" stroke="rgb(0,0,0)" stroke-linejoin="round" d="M 1132,5290 L 1282,5290"/>
 <path fill="none" stroke="rgb(0,0,0)" stroke-linejoin="round" d="M 1132,5290 L 1282,5290"/>
 <path fill="none" stroke="rgb(0,0,0)" stroke-linejoin="round" d="M 1132,3853 L 1282,3853"/>
 <path fill="none" stroke="rgb(0,0,0)" stroke-linejoin="round" d="M 1132,3853 L 1282,3853"/>
 <path fill="none" stroke="rgb(0,0,0)" stroke-linejoin="round" d="M 1132,2416 L 1282,2416"/>
 <path fill="none" stroke="rgb(0,0,0)" stroke-linejoin="round" d="M 1132,2416 L 1282,2416"/>
 <path fill="none" stroke="rgb(0,0,0)" stroke-linejoin="round" d="M 1132,979 L 1282,979"/>
 <path fill="none" stroke="rgb(0,0,0)" stroke-linejoin="round" d="M 1132,979 L 1282,979"/>
 <path fill="none" stroke="rgb(0,0,0)" stroke-linejoin="round" d="M 1282,11038 L 1282,979"/>
 <path fill="none" stroke="rgb(255,66,14)" stroke-width="100" stroke-linejoin="round" d="M 1846,10256 L 2411,9823 3822,8741 4670,8092 5516,7444 6645,6578 7774,5714 8904,4849 9468,4416 9750,4200 10597,3551 11444,2902 12008,2469 12573,2037 13137,1604"/>
 <path fill="rgb(255,66,14)" stroke="none" d="M 1821,10231 L 1846,10281 1871,10231 1821,10231 Z"/>
 <path fill="none" stroke="rgb(255,66,14)" stroke-linejoin="round" d="M 1821,10231 L 1846,10281 1871,10231 1821,10231 Z"/>
 <path fill="rgb(255,66,14)" stroke="none" d="M 2386,9798 L 2411,9848 2436,9798 2386,9798 Z"/>
 <path fill="none" stroke="rgb(255,66,14)" stroke-linejoin="round" d="M 2386,9798 L 2411,9848 2436,9798 2386,9798 Z"/>
 <path fill="rgb(255,66,14)" stroke="none" d="M 3797,8716 L 3822,8766 3847,8716 3797,8716 Z"/>
 <path fill="none" stroke="rgb(255,66,14)" stroke-linejoin="round" d="M 3797,8716 L 3822,8766 3847,8716 3797,8716 Z"/>
 <path fill="rgb(255,66,14)" stroke="none" d="M 4645,8067 L 4670,8117 4695,8067 4645,8067 Z"/>
 <path fill="none" stroke="rgb(255,66,14)" stroke-linejoin="round" d="M 4645,8067 L 4670,8117 4695,8067 4645,8067 Z"/>
 <path fill="rgb(255,66,14)" stroke="none" d="M 5491,7419 L 5516,7469 5541,7419 5491,7419 Z"/>
 <path fill="none" stroke="rgb(255,66,14)" stroke-linejoin="round" d="M 5491,7419 L 5516,7469 5541,7419 5491,7419 Z"/>
 <path fill="rgb(255,66,14)" stroke="none" d="M 6620,6553 L 6645,6603 6670,6553 6620,6553 Z"/>
 <path fill="none" stroke="rgb(255,66,14)" stroke-linejoin="round" d="M 6620,6553 L 6645,6603 6670,6553 6620,6553 Z"/>
 <path fill="rgb(255,66,14)" stroke="none" d="M 7749,5689 L 7774,5739 7799,5689 7749,5689 Z"/>
 <path fill="none" stroke="rgb(255,66,14)" stroke-linejoin="round" d="M 7749,5689 L 7774,5739 7799,5689 7749,5689 Z"/>
 <path fill="rgb(255,66,14)" stroke="none" d="M 8879,4824 L 8904,4874 8929,4824 8879,4824 Z"/>
 <path fill="none" stroke="rgb(255,66,14)" stroke-linejoin="round" d="M 8879,4824 L 8904,4874 8929,4824 8879,4824 Z"/>
 <path fill="rgb(255,66,14)" stroke="none" d="M 9443,4391 L 9468,4441 9493,4391 9443,4391 Z"/>
 <path fill="none" stroke="rgb(255,66,14)" stroke-linejoin="round" d="M 9443,4391 L 9468,4441 9493,4391 9443,4391 Z"/>
 <path fill="rgb(255,66,14)" stroke="none" d="M 9725,4175 L 9750,4225 9775,4175 9725,4175 Z"/>
 <path fill="none" stroke="rgb(255,66,14)" stroke-linejoin="round" d="M 9725,4175 L 9750,4225 9775,4175 9725,4175 Z"/>
 <path fill="rgb(255,66,14)" stroke="none" d="M 10572,3526 L 10597,3576 10622,3526 10572,3526 Z"/>
 <path fill="none" stroke="rgb(255,66,14)" stroke-linejoin="round" d="M 10572,3526 L 10597,3576 10622,3526 10572,3526 Z"/>
 <path fill="rgb(255,66,14)" stroke="none" d="M 11419,2877 L 11444,2927 11469,2877 11419,2877 Z"/>
 <path fill="none" stroke="rgb(255,66,14)" stroke-linejoin="round" d="M 11419,2877 L 11444,2927 11469,2877 11419,2877 Z"/>
 <path fill="rgb(255,66,14)" stroke="none" d="M 11983,2444 L 12008,2494 12033,2444 11983,2444 Z"/>
 <path fill="none" stroke="rgb(255,66,14)" stroke-linejoin="round" d="M 11983,2444 L 12008,2494 12033,2444 11983,2444 Z"/>
 <path fill="rgb(255,66,14)" stroke="none" d="M 12548,2012 L 12573,2062 12598,2012 12548,2012 Z"/>
 <path fill="none" stroke="rgb(255,66,14)" stroke-linejoin="round" d="M 12548,2012 L 12573,2062 12598,2012 12548,2012 Z"/>
 <path fill="rgb(255,66,14)" stroke="none" d="M 13112,1579 L 13137,1629 13162,1579 13112,1579 Z"/>
 <path fill="none" stroke="rgb(255,66,14)" stroke-linejoin="round" d="M 13112,1579 L 13137,1629 13162,1579 13112,1579 Z"/>
 <path fill="rgb(0,69,134)" stroke="none" d="M 1721,10131 L 1721,10381 1971,10381 1971,10131 1721,10131 Z"/>
 <path fill="none" stroke="rgb(0,69,134)" stroke-linejoin="round" d="M 1721,10131 L 1721,10381 1971,10381 1971,10131 1721,10131 Z"/>
 <path fill="rgb(0,69,134)" stroke="none" d="M 2286,9794 L 2286,10044 2536,10044 2536,9794 2286,9794 Z"/>
 <path fill="none" stroke="rgb(0,69,134)" stroke-linejoin="round" d="M 2286,9794 L 2286,10044 2536,10044 2536,9794 2286,9794 Z"/>
 <path fill="rgb(0,69,134)" stroke="none" d="M 3697,8811 L 3697,9061 3947,9061 3947,8811 3697,8811 Z"/>
 <path fill="none" stroke="rgb(0,69,134)" stroke-linejoin="round" d="M 3697,8811 L 3697,9061 3947,9061 3947,8811 3697,8811 Z"/>
 <path fill="rgb(0,69,134)" stroke="none" d="M 4545,7856 L 4545,8106 4795,8106 4795,7856 4545,7856 Z"/>
 <path fill="none" stroke="rgb(0,69,134)" stroke-linejoin="round" d="M 4545,7856 L 4545,8106 4795,8106 4795,7856 4545,7856 Z"/>
 <path fill="rgb(0,69,134)" stroke="none" d="M 5391,7407 L 5391,7657 5641,7657 5641,7407 5391,7407 Z"/>
 <path fill="none" stroke="rgb(0,69,134)" stroke-linejoin="round" d="M 5391,7407 L 5391,7657 5641,7657 5641,7407 5391,7407 Z"/>
 <path fill="rgb(0,69,134)" stroke="none" d="M 6520,6498 L 6520,6748 6770,6748 6770,6498 6520,6498 Z"/>
 <path fill="none" stroke="rgb(0,69,134)" stroke-linejoin="round" d="M 6520,6498 L 6520,6748 6770,6748 6770,6498 6520,6498 Z"/>
 <path fill="rgb(0,69,134)" stroke="none" d="M 7649,5896 L 7649,6145 7899,6145 7899,5896 7649,5896 Z"/>
 <path fill="none" stroke="rgb(0,69,134)" stroke-linejoin="round" d="M 7649,5896 L 7649,6145 7899,6145 7899,5896 7649,5896 Z"/>
 <path fill="rgb(0,69,134)" stroke="none" d="M 8779,5344 L 8779,5594 9028,5594 9028,5344 8779,5344 Z"/>
 <path fill="none" stroke="rgb(0,69,134)" stroke-linejoin="round" d="M 8779,5344 L 8779,5594 9028,5594 9028,5344 8779,5344 Z"/>
 <path fill="rgb(0,69,134)" stroke="none" d="M 9343,5197 L 9343,5447 9593,5447 9593,5197 9343,5197 Z"/>
 <path fill="none" stroke="rgb(0,69,134)" stroke-linejoin="round" d="M 9343,5197 L 9343,5447 9593,5447 9593,5197 9343,5197 Z"/>
 <path fill="rgb(0,69,134)" stroke="none" d="M 9625,4269 L 9625,4519 9875,4519 9875,4269 9625,4269 Z"/>
 <path fill="none" stroke="rgb(0,69,134)" stroke-linejoin="round" d="M 9625,4269 L 9625,4519 9875,4519 9875,4269 9625,4269 Z"/>
 <path fill="rgb(0,69,134)" stroke="none" d="M 10472,3891 L 10472,4141 10722,4141 10722,3891 10472,3891 Z"/>
 <path fill="none" stroke="rgb(0,69,134)" stroke-linejoin="round" d="M 10472,3891 L 10472,4141 10722,4141 10722,3891 10472,3891 Z"/>
 <path fill="rgb(0,69,134)" stroke="none" d="M 11319,3471 L 11319,3721 11569,3721 11569,3471 11319,3471 Z"/>
 <path fill="none" stroke="rgb(0,69,134)" stroke-linejoin="round" d="M 11319,3471 L 11319,3721 11569,3721 11569,3471 11319,3471 Z"/>
 <path fill="rgb(0,69,134)" stroke="none" d="M 11883,2487 L 11883,2737 12133,2737 12133,2487 11883,2487 Z"/>
 <path fill="none" stroke="rgb(0,69,134)" stroke-linejoin="round" d="M 11883,2487 L 11883,2737 12133,2737 12133,2487 11883,2487 Z"/>
 <path fill="rgb(0,69,134)" stroke="none" d="M 12448,2193 L 12448,2443 12698,2443 12698,2193 12448,2193 Z"/>
 <path fill="none" stroke="rgb(0,69,134)" stroke-linejoin="round" d="M 12448,2193 L 12448,2443 12698,2443 12698,2193 12448,2193 Z"/>
 <path fill="rgb(0,69,134)" stroke="none" d="M 13012,2081 L 13012,2331 13262,2331 13262,2081 13012,2081 Z"/>
 <path fill="none" stroke="rgb(0,69,134)" stroke-linejoin="round" d="M 13012,2081 L 13012,2331 13262,2331 13262,2081 13012,2081 Z"/>
 <path fill="rgb(0,69,134)" stroke="none" d="M 13859,1997 L 13859,2247 14109,2247 14109,1997 13859,1997 Z"/>
 <path fill="none" stroke="rgb(0,69,134)" stroke-linejoin="round" d="M 13859,1997 L 13859,2247 14109,2247 14109,1997 13859,1997 Z"/>
 <text class="TextShape"><tspan class="TextParagraph" font-family="Arial" font-size="347px" font-weight="400"><tspan class="TextPosition" x="912" y="11632"><tspan fill="rgb(0,0,0)" stroke="none">1970</tspan></tspan></tspan></text>
 <text class="TextShape"><tspan class="TextParagraph" font-family="Arial" font-size="347px" font-weight="400"><tspan class="TextPosition" x="2323" y="11632"><tspan fill="rgb(0,0,0)" stroke="none">1975</tspan></tspan></tspan></text>
 <text class="TextShape"><tspan class="TextParagraph" font-family="Arial" font-size="347px" font-weight="400"><tspan class="TextPosition" x="3735" y="11632"><tspan fill="rgb(0,0,0)" stroke="none">1980</tspan></tspan></tspan></text>
 <text class="TextShape"><tspan class="TextParagraph" font-family="Arial" font-size="347px" font-weight="400"><tspan class="TextPosition" x="5146" y="11632"><tspan fill="rgb(0,0,0)" stroke="none">1985</tspan></tspan></tspan></text>
 <text class="TextShape"><tspan class="TextParagraph" font-family="Arial" font-size="347px" font-weight="400"><tspan class="TextPosition" x="6557" y="11632"><tspan fill="rgb(0,0,0)" stroke="none">1990</tspan></tspan></tspan></text>
 <text class="TextShape"><tspan class="TextParagraph" font-family="Arial" font-size="347px" font-weight="400"><tspan class="TextPosition" x="7969" y="11632"><tspan fill="rgb(0,0,0)" stroke="none">1995</tspan></tspan></tspan></text>
 <text class="TextShape"><tspan class="TextParagraph" font-family="Arial" font-size="347px" font-weight="400"><tspan class="TextPosition" x="9380" y="11632"><tspan fill="rgb(0,0,0)" stroke="none">2000</tspan></tspan></tspan></text>
 <text class="TextShape"><tspan class="TextParagraph" font-family="Arial" font-size="347px" font-weight="400"><tspan class="TextPosition" x="10791" y="11632"><tspan fill="rgb(0,0,0)" stroke="none">2005</tspan></tspan></tspan></text>
 <text class="TextShape"><tspan class="TextParagraph" font-family="Arial" font-size="347px" font-weight="400"><tspan class="TextPosition" x="12202" y="11632"><tspan fill="rgb(0,0,0)" stroke="none">2010</tspan></tspan></tspan></text>
 <text class="TextShape"><tspan class="TextParagraph" font-family="Arial" font-size="347px" font-weight="400"><tspan class="TextPosition" x="13614" y="11632"><tspan fill="rgb(0,0,0)" stroke="none">2015</tspan></tspan></tspan></text>
 <text class="TextShape"><tspan class="TextParagraph" font-family="Arial" font-size="347px" font-weight="400"><tspan class="TextPosition" x="15026" y="11632"><tspan fill="rgb(0,0,0)" stroke="none">2020</tspan></tspan></tspan></text>
 <text class="TextShape"><tspan class="TextParagraph" font-family="Arial" font-size="347px" font-weight="400"><tspan class="TextPosition" x="186" y="11172"><tspan fill="rgb(0,0,0)" stroke="none">0,001</tspan></tspan></tspan></text>
 <text class="TextShape"><tspan class="TextParagraph" font-family="Arial" font-size="347px" font-weight="400"><tspan class="TextPosition" x="372" y="9734"><tspan fill="rgb(0,0,0)" stroke="none">0,01</tspan></tspan></tspan></text>
 <text class="TextShape"><tspan class="TextParagraph" font-family="Arial" font-size="347px" font-weight="400"><tspan class="TextPosition" x="557" y="8297"><tspan fill="rgb(0,0,0)" stroke="none">0,1</tspan></tspan></tspan></text>
 <text class="TextShape"><tspan class="TextParagraph" font-family="Arial" font-size="347px" font-weight="400"><tspan class="TextPosition" x="848" y="6860"><tspan fill="rgb(0,0,0)" stroke="none">1</tspan></tspan></tspan></text>
 <text class="TextShape"><tspan class="TextParagraph" font-family="Arial" font-size="347px" font-weight="400"><tspan class="TextPosition" x="663" y="5423"><tspan fill="rgb(0,0,0)" stroke="none">10</tspan></tspan></tspan></text>
 <text class="TextShape"><tspan class="TextParagraph" font-family="Arial" font-size="347px" font-weight="400"><tspan class="TextPosition" x="477" y="3986"><tspan fill="rgb(0,0,0)" stroke="none">100</tspan></tspan></tspan></text>
 <text class="TextShape"><tspan class="TextParagraph" font-family="Arial" font-size="347px" font-weight="400"><tspan class="TextPosition" x="186" y="2549"><tspan fill="rgb(0,0,0)" stroke="none">1.000</tspan></tspan></tspan></text>
 <text class="TextShape"><tspan class="TextParagraph" font-family="Arial" font-size="347px" font-weight="400"><tspan class="TextPosition" x="1" y="1112"><tspan fill="rgb(0,0,0)" stroke="none">10.000</tspan></tspan></tspan></text>
 <text class="TextShape"><tspan class="TextParagraph" font-family="Arial" font-size="318px" font-weight="400"><tspan class="TextPosition" x="2072" y="10377"><tspan fill="rgb(0,0,0)" stroke="none">8008</tspan></tspan></tspan></text>
 <text class="TextShape"><tspan class="TextParagraph" font-family="Arial" font-size="318px" font-weight="400"><tspan class="TextPosition" x="2637" y="10040"><tspan fill="rgb(0,0,0)" stroke="none">8080</tspan></tspan></tspan></text>
 <text class="TextShape"><tspan class="TextParagraph" font-family="Arial" font-size="318px" font-weight="400"><tspan class="TextPosition" x="4048" y="9057"><tspan fill="rgb(0,0,0)" stroke="none">8088</tspan></tspan></tspan></text>
 <text class="TextShape"><tspan class="TextParagraph" font-family="Arial" font-size="318px" font-weight="400"><tspan class="TextPosition" x="4896" y="8102"><tspan fill="rgb(0,0,0)" stroke="none">80286</tspan></tspan></tspan></text>
 <text class="TextShape"><tspan class="TextParagraph" font-family="Arial" font-size="318px" font-weight="400"><tspan class="TextPosition" x="5742" y="7653"><tspan fill="rgb(0,0,0)" stroke="none">80386</tspan></tspan></tspan></text>
 <text class="TextShape"><tspan class="TextParagraph" font-family="Arial" font-size="318px" font-weight="400"><tspan class="TextPosition" x="6871" y="6744"><tspan fill="rgb(0,0,0)" stroke="none">80486</tspan></tspan></tspan></text>
 <text class="TextShape"><tspan class="TextParagraph" font-family="Arial" font-size="318px" font-weight="400"><tspan class="TextPosition" x="8000" y="6141"><tspan fill="rgb(0,0,0)" stroke="none">Pentium</tspan></tspan></tspan></text>
 <text class="TextShape"><tspan class="TextParagraph" font-family="Arial" font-size="318px" font-weight="400"><tspan class="TextPosition" x="9129" y="5589"><tspan fill="rgb(0,0,0)" stroke="none">Pentium II</tspan></tspan></tspan></text>
 <text class="TextShape"><tspan class="TextParagraph" font-family="Arial" font-size="318px" font-weight="400"><tspan class="TextPosition" x="9694" y="5442"><tspan fill="rgb(0,0,0)" stroke="none">Pentium III</tspan></tspan></tspan></text>
 <text class="TextShape"><tspan class="TextParagraph" font-family="Arial" font-size="318px" font-weight="400"><tspan class="TextPosition" x="9976" y="4514"><tspan fill="rgb(0,0,0)" stroke="none">Pentium 4</tspan></tspan></tspan></text>
 <text class="TextShape"><tspan class="TextParagraph" font-family="Arial" font-size="318px" font-weight="400"><tspan class="TextPosition" x="10823" y="4136"><tspan fill="rgb(0,0,0)" stroke="none">Pentium M</tspan></tspan></tspan></text>
 <text class="TextShape"><tspan class="TextParagraph" font-family="Arial" font-size="318px" font-weight="400"><tspan class="TextPosition" x="11670" y="3716"><tspan fill="rgb(0,0,0)" stroke="none">Core Duo</tspan></tspan></tspan></text>
 <text class="TextShape"><tspan class="TextParagraph" font-family="Arial" font-size="318px" font-weight="400"><tspan class="TextPosition" x="12234" y="2732"><tspan fill="rgb(0,0,0)" stroke="none">Nehalem</tspan></tspan></tspan></text>
 <text class="TextShape"><tspan class="TextParagraph" font-family="Arial" font-size="318px" font-weight="400"><tspan class="TextPosition" x="12799" y="2438"><tspan fill="rgb(0,0,0)" stroke="none">Westmere</tspan></tspan></tspan></text>
 <text class="TextShape"><tspan class="TextParagraph" font-family="Arial" font-size="318px" font-weight="400"><tspan class="TextPosition" x="13363" y="2326"><tspan fill="rgb(0,0,0)" stroke="none">Ivy Bridge</tspan></tspan></tspan></text>
 <text class="TextShape"><tspan class="TextParagraph" font-family="Arial" font-size="318px" font-weight="400"><tspan class="TextPosition" x="14210" y="2242"><tspan fill="rgb(0,0,0)" stroke="none">Broadwell</tspan></tspan></tspan></text>
 <text class="TextShape"><tspan class="TextParagraph" font-family="Arial" font-size="423px" font-weight="700"><tspan class="TextPosition" x="4050" y="619"><tspan fill="rgb(0,0,0)" stroke="none">Millones de transistores en los microprocesadores Intel </tspan></tspan></tspan></text>
 <path fill="none" stroke="rgb(0,0,0)" stroke-linejoin="round" d="M 13294,9522 L 11299,9522 11299,8212 15288,8212 15288,9522 13294,9522 Z"/>
 <path fill="rgb(0,69,134)" stroke="none" d="M 11867,8472 L 11867,8683 12078,8683 12078,8472 11867,8472 Z"/>
 <path fill="none" stroke="rgb(0,69,134)" stroke-linejoin="round" d="M 11867,8472 L 11867,8683 12078,8683 12078,8472 11867,8472 Z"/>
 <path fill="none" stroke="rgb(255,66,14)" stroke-width="100" stroke-linejoin="round" d="M 11573,9155 L 12373,9155"/>
 <path fill="rgb(255,66,14)" stroke="none" d="M 11867,9050 L 11973,9261 12078,9050 11867,9050 Z"/>
 <path fill="none" stroke="rgb(255,66,14)" stroke-linejoin="round" d="M 11867,9050 L 11973,9261 12078,9050 11867,9050 Z"/>
 <text class="TextShape"><tspan class="TextParagraph" font-family="Arial" font-size="353px" font-weight="400"><tspan class="TextPosition" x="12473" y="8710"><tspan fill="rgb(0,0,0)" stroke="none">Microprocesador</tspan></tspan></tspan></text>
 <text class="TextShape"><tspan class="TextParagraph" font-family="Arial" font-size="353px" font-weight="400"><tspan class="TextPosition" x="12473" y="9288"><tspan fill="rgb(0,0,0)" stroke="none">Ley de Moore</tspan></tspan></tspan></text>
 <text class="TextShape"><tspan class="TextParagraph" font-family="Arial" font-size="346px" font-weight="400"><tspan class="TextPosition" x="97" y="448"><tspan fill="rgb(0,0,0)" stroke="none">Millones de transistores</tspan></tspan></tspan></text>
</svg>
