<?xml version="1.0" encoding="UTF-8"?>
<!DOCTYPE svg PUBLIC "-//W3C//DTD SVG 1.1//EN" "http://www.w3.org/Graphics/SVG/1.1/DTD/svg11.dtd">
<svg width="160mm" height="120mm" viewBox="0 0 16000 12000" version="1.1" xmlns="http://www.w3.org/2000/svg" stroke-width="28.222" stroke-linejoin="round" xml:space="preserve">
 <path fill="rgb(255,255,255)" stroke="none" d="M 8000,12000 L 0,12000 0,0 16000,0 16000,12000 8000,12000 Z"/>
 <path fill="none" stroke="rgb(0,0,0)" stroke-linejoin="round" d="M 7911,10408 L 1237,10408 1237,1060 14585,1060 14585,10408 7911,10408 Z"/>
 <path fill="none" stroke="rgb(0,0,0)" stroke-linejoin="round" d="M 14585,10407 L 1237,10407"/>
 <path fill="none" stroke="rgb(0,0,0)" stroke-linejoin="round" d="M 14585,8848 L 1237,8848"/>
 <path fill="none" stroke="rgb(0,0,0)" stroke-linejoin="round" d="M 14585,7290 L 1237,7290"/>
 <path fill="none" stroke="rgb(0,0,0)" stroke-linejoin="round" d="M 14585,5733 L 1237,5733"/>
 <path fill="none" stroke="rgb(0,0,0)" stroke-linejoin="round" d="M 14585,4175 L 1237,4175"/>
 <path fill="none" stroke="rgb(0,0,0)" stroke-linejoin="round" d="M 14585,2617 L 1237,2617"/>
 <path fill="none" stroke="rgb(0,0,0)" stroke-linejoin="round" d="M 14585,1059 L 1237,1059"/>
 <path fill="none" stroke="rgb(0,0,0)" stroke-linejoin="round" d="M 1237,10557 L 1237,10407"/>
 <path fill="none" stroke="rgb(0,0,0)" stroke-linejoin="round" d="M 1237,10557 L 1237,10407"/>
 <path fill="none" stroke="rgb(0,0,0)" stroke-linejoin="round" d="M 3461,10557 L 3461,10407"/>
 <path fill="none" stroke="rgb(0,0,0)" stroke-linejoin="round" d="M 3461,10557 L 3461,10407"/>
 <path fill="none" stroke="rgb(0,0,0)" stroke-linejoin="round" d="M 5686,10557 L 5686,10407"/>
 <path fill="none" stroke="rgb(0,0,0)" stroke-linejoin="round" d="M 5686,10557 L 5686,10407"/>
 <path fill="none" stroke="rgb(0,0,0)" stroke-linejoin="round" d="M 7911,10557 L 7911,10407"/>
 <path fill="none" stroke="rgb(0,0,0)" stroke-linejoin="round" d="M 7911,10557 L 7911,10407"/>
 <path fill="none" stroke="rgb(0,0,0)" stroke-linejoin="round" d="M 10135,10557 L 10135,10407"/>
 <path fill="none" stroke="rgb(0,0,0)" stroke-linejoin="round" d="M 10135,10557 L 10135,10407"/>
 <path fill="none" stroke="rgb(0,0,0)" stroke-linejoin="round" d="M 12360,10557 L 12360,10407"/>
 <path fill="none" stroke="rgb(0,0,0)" stroke-linejoin="round" d="M 12360,10557 L 12360,10407"/>
 <path fill="none" stroke="rgb(0,0,0)" stroke-linejoin="round" d="M 14585,10557 L 14585,10407"/>
 <path fill="none" stroke="rgb(0,0,0)" stroke-linejoin="round" d="M 14585,10557 L 14585,10407"/>
 <path fill="none" stroke="rgb(0,0,0)" stroke-linejoin="round" d="M 1237,10407 L 14585,10407"/>
 <path fill="none" stroke="rgb(0,0,0)" stroke-linejoin="round" d="M 1087,10407 L 1237,10407"/>
 <path fill="none" stroke="rgb(0,0,0)" stroke-linejoin="round" d="M 1087,10407 L 1237,10407"/>
 <path fill="none" stroke="rgb(0,0,0)" stroke-linejoin="round" d="M 1087,8848 L 1237,8848"/>
 <path fill="none" stroke="rgb(0,0,0)" stroke-linejoin="round" d="M 1087,8848 L 1237,8848"/>
 <path fill="none" stroke="rgb(0,0,0)" stroke-linejoin="round" d="M 1087,7290 L 1237,7290"/>
 <path fill="none" stroke="rgb(0,0,0)" stroke-linejoin="round" d="M 1087,7290 L 1237,7290"/>
 <path fill="none" stroke="rgb(0,0,0)" stroke-linejoin="round" d="M 1087,5733 L 1237,5733"/>
 <path fill="none" stroke="rgb(0,0,0)" stroke-linejoin="round" d="M 1087,5733 L 1237,5733"/>
 <path fill="none" stroke="rgb(0,0,0)" stroke-linejoin="round" d="M 1087,4175 L 1237,4175"/>
 <path fill="none" stroke="rgb(0,0,0)" stroke-linejoin="round" d="M 1087,4175 L 1237,4175"/>
 <path fill="none" stroke="rgb(0,0,0)" stroke-linejoin="round" d="M 1087,2617 L 1237,2617"/>
 <path fill="none" stroke="rgb(0,0,0)" stroke-linejoin="round" d="M 1087,2617 L 1237,2617"/>
 <path fill="none" stroke="rgb(0,0,0)" stroke-linejoin="round" d="M 1087,1059 L 1237,1059"/>
 <path fill="none" stroke="rgb(0,0,0)" stroke-linejoin="round" d="M 1087,1059 L 1237,1059"/>
 <path fill="none" stroke="rgb(0,0,0)" stroke-linejoin="round" d="M 1237,10407 L 1237,1059"/>
 <path fill="none" stroke="rgb(179,179,179)" stroke-linejoin="round" d="M 14735,10407 L 14585,10407"/>
 <path fill="none" stroke="rgb(179,179,179)" stroke-linejoin="round" d="M 14735,10407 L 14585,10407"/>
 <path fill="none" stroke="rgb(179,179,179)" stroke-linejoin="round" d="M 14735,8848 L 14585,8848"/>
 <path fill="none" stroke="rgb(179,179,179)" stroke-linejoin="round" d="M 14735,8848 L 14585,8848"/>
 <path fill="none" stroke="rgb(179,179,179)" stroke-linejoin="round" d="M 14735,7290 L 14585,7290"/>
 <path fill="none" stroke="rgb(179,179,179)" stroke-linejoin="round" d="M 14735,7290 L 14585,7290"/>
 <path fill="none" stroke="rgb(179,179,179)" stroke-linejoin="round" d="M 14735,5733 L 14585,5733"/>
 <path fill="none" stroke="rgb(179,179,179)" stroke-linejoin="round" d="M 14735,5733 L 14585,5733"/>
 <path fill="none" stroke="rgb(179,179,179)" stroke-linejoin="round" d="M 14735,4175 L 14585,4175"/>
 <path fill="none" stroke="rgb(179,179,179)" stroke-linejoin="round" d="M 14735,4175 L 14585,4175"/>
 <path fill="none" stroke="rgb(179,179,179)" stroke-linejoin="round" d="M 14735,2617 L 14585,2617"/>
 <path fill="none" stroke="rgb(179,179,179)" stroke-linejoin="round" d="M 14735,2617 L 14585,2617"/>
 <path fill="none" stroke="rgb(179,179,179)" stroke-linejoin="round" d="M 14735,1059 L 14585,1059"/>
 <path fill="none" stroke="rgb(179,179,179)" stroke-linejoin="round" d="M 14735,1059 L 14585,1059"/>
 <path fill="none" stroke="rgb(179,179,179)" stroke-linejoin="round" d="M 14585,10407 L 14585,1059"/>
 <path fill="rgb(174,207,0)" stroke="none" d="M 1237,4966 L 3461,4776 5686,4552 7911,4433 10135,4352 12360,4228 14585,4106 14585,10407 1237,10407 1237,4966 Z"/>
 <path fill="none" stroke="rgb(0,0,0)" stroke-width="20" stroke-linejoin="round" d="M 1237,4966 L 3461,4776 5686,4552 7911,4433 10135,4352 12360,4228 14585,4106 14585,10407 1237,10407 1237,4966 Z"/>
 <path fill="rgb(204,204,204)" stroke="none" d="M 1237,4593 L 3461,4167 5686,3844 7911,3826 10135,3767 12360,3642 14585,3502 14585,4106 12360,4228 10135,4352 7911,4433 5686,4552 3461,4776 1237,4966 1237,4593 Z"/>
 <path fill="none" stroke="rgb(0,0,0)" stroke-width="20" stroke-linejoin="round" d="M 1237,4593 L 3461,4167 5686,3844 7911,3826 10135,3767 12360,3642 14585,3502 14585,4106 12360,4228 10135,4352 7911,4433 5686,4552 3461,4776 1237,4966 1237,4593 Z"/>
 <path fill="rgb(0,0,128)" stroke="none" d="M 1237,3530 L 3461,3245 5686,2866 7911,2925 10135,2882 12360,2720 14585,2548 14585,3502 12360,3642 10135,3767 7911,3826 5686,3844 3461,4167 1237,4593 1237,3530 Z"/>
 <path fill="none" stroke="rgb(0,0,0)" stroke-width="20" stroke-linejoin="round" d="M 1237,3530 L 3461,3245 5686,2866 7911,2925 10135,2882 12360,2720 14585,2548 14585,3502 12360,3642 10135,3767 7911,3826 5686,3844 3461,4167 1237,4593 1237,3530 Z"/>
 <path fill="rgb(153,102,204)" stroke="none" d="M 1237,3501 L 3461,3179 5686,2866 7911,2925 10135,2882 12360,2720 14585,2548 14585,2548 12360,2720 10135,2882 7911,2925 5686,2866 3461,3245 1237,3530 1237,3501 Z"/>
 <path fill="none" stroke="rgb(0,0,0)" stroke-width="20" stroke-linejoin="round" d="M 1237,3501 L 3461,3179 5686,2866 7911,2925 10135,2882 12360,2720 14585,2548 14585,2548 12360,2720 10135,2882 7911,2925 5686,2866 3461,3245 1237,3530 1237,3501 Z"/>
 <text class="TextShape"><tspan class="TextParagraph" font-family="Arial, sans-serif" font-size="459px" font-weight="400"><tspan class="TextPosition" x="760" y="11054"><tspan fill="rgb(0,0,0)" stroke="none">2012</tspan></tspan></tspan></text>
 <text class="TextShape"><tspan class="TextParagraph" font-family="Arial, sans-serif" font-size="459px" font-weight="400"><tspan class="TextPosition" x="2984" y="11054"><tspan fill="rgb(0,0,0)" stroke="none">2013</tspan></tspan></tspan></text>
 <text class="TextShape"><tspan class="TextParagraph" font-family="Arial, sans-serif" font-size="459px" font-weight="400"><tspan class="TextPosition" x="5209" y="11054"><tspan fill="rgb(0,0,0)" stroke="none">2014</tspan></tspan></tspan></text>
 <text class="TextShape"><tspan class="TextParagraph" font-family="Arial, sans-serif" font-size="459px" font-weight="400"><tspan class="TextPosition" x="7434" y="11054"><tspan fill="rgb(0,0,0)" stroke="none">2015</tspan></tspan></tspan></text>
 <text class="TextShape"><tspan class="TextParagraph" font-family="Arial, sans-serif" font-size="459px" font-weight="400"><tspan class="TextPosition" x="9659" y="11054"><tspan fill="rgb(0,0,0)" stroke="none">2016</tspan></tspan></tspan></text>
 <text class="TextShape"><tspan class="TextParagraph" font-family="Arial, sans-serif" font-size="459px" font-weight="400"><tspan class="TextPosition" x="11884" y="11054"><tspan fill="rgb(0,0,0)" stroke="none">2017</tspan></tspan></tspan></text>
 <text class="TextShape"><tspan class="TextParagraph" font-family="Arial, sans-serif" font-size="459px" font-weight="400"><tspan class="TextPosition" x="14109" y="11054"><tspan fill="rgb(0,0,0)" stroke="none">2018</tspan></tspan></tspan></text>
 <text class="TextShape"><tspan class="TextParagraph" font-family="Arial, sans-serif" font-size="388px" font-weight="400"><tspan class="TextPosition" x="775" y="10553"><tspan fill="rgb(0,0,0)" stroke="none">0</tspan></tspan></tspan></text>
 <text class="TextShape"><tspan class="TextParagraph" font-family="Arial, sans-serif" font-size="388px" font-weight="400"><tspan class="TextPosition" x="352" y="8994"><tspan fill="rgb(0,0,0)" stroke="none">500</tspan></tspan></tspan></text>
 <text class="TextShape"><tspan class="TextParagraph" font-family="Arial, sans-serif" font-size="388px" font-weight="400"><tspan class="TextPosition" x="34" y="7436"><tspan fill="rgb(0,0,0)" stroke="none">1.000</tspan></tspan></tspan></text>
 <text class="TextShape"><tspan class="TextParagraph" font-family="Arial, sans-serif" font-size="388px" font-weight="400"><tspan class="TextPosition" x="34" y="5878"><tspan fill="rgb(0,0,0)" stroke="none">1.500</tspan></tspan></tspan></text>
 <text class="TextShape"><tspan class="TextParagraph" font-family="Arial, sans-serif" font-size="388px" font-weight="400"><tspan class="TextPosition" x="34" y="4320"><tspan fill="rgb(0,0,0)" stroke="none">2.000</tspan></tspan></tspan></text>
 <text class="TextShape"><tspan class="TextParagraph" font-family="Arial, sans-serif" font-size="388px" font-weight="400"><tspan class="TextPosition" x="34" y="2762"><tspan fill="rgb(0,0,0)" stroke="none">2.500</tspan></tspan></tspan></text>
 <text class="TextShape"><tspan class="TextParagraph" font-family="Arial, sans-serif" font-size="388px" font-weight="400"><tspan class="TextPosition" x="34" y="1204"><tspan fill="rgb(0,0,0)" stroke="none">3.000</tspan></tspan></tspan></text>
 <text class="TextShape"><tspan class="TextParagraph" font-family="Arial, sans-serif" font-size="388px" font-weight="400"><tspan class="TextPosition" x="14835" y="10553"><tspan fill="rgb(0,0,0)" stroke="none">0</tspan></tspan></tspan></text>
 <text class="TextShape"><tspan class="TextParagraph" font-family="Arial, sans-serif" font-size="388px" font-weight="400"><tspan class="TextPosition" x="14835" y="8994"><tspan fill="rgb(0,0,0)" stroke="none">500</tspan></tspan></tspan></text>
 <text class="TextShape"><tspan class="TextParagraph" font-family="Arial, sans-serif" font-size="388px" font-weight="400"><tspan class="TextPosition" x="14835" y="7436"><tspan fill="rgb(0,0,0)" stroke="none">1.000</tspan></tspan></tspan></text>
 <text class="TextShape"><tspan class="TextParagraph" font-family="Arial, sans-serif" font-size="388px" font-weight="400"><tspan class="TextPosition" x="14835" y="5878"><tspan fill="rgb(0,0,0)" stroke="none">1.500</tspan></tspan></tspan></text>
 <text class="TextShape"><tspan class="TextParagraph" font-family="Arial, sans-serif" font-size="388px" font-weight="400"><tspan class="TextPosition" x="14835" y="4320"><tspan fill="rgb(0,0,0)" stroke="none">2.000</tspan></tspan></tspan></text>
 <text class="TextShape"><tspan class="TextParagraph" font-family="Arial, sans-serif" font-size="388px" font-weight="400"><tspan class="TextPosition" x="14835" y="2762"><tspan fill="rgb(0,0,0)" stroke="none">2.500</tspan></tspan></tspan></text>
 <text class="TextShape"><tspan class="TextParagraph" font-family="Arial, sans-serif" font-size="388px" font-weight="400"><tspan class="TextPosition" x="14835" y="1204"><tspan fill="rgb(0,0,0)" stroke="none">3.000</tspan></tspan></tspan></text>
 <text class="TextShape"><tspan class="TextParagraph" font-family="Arial, sans-serif" font-size="529px" font-weight="700"><tspan class="TextPosition" x="1110" y="740"><tspan fill="rgb(0,0,0)" stroke="none">Ventas anuales de dispositivos (millones de unidades)</tspan></tspan></tspan></text>
 <path fill="rgb(174,207,0)" stroke="none" d="M 9909,11625 L 9771,11625 9771,11350 10046,11350 10046,11625 9909,11625 Z"/>
 <path fill="none" stroke="rgb(0,0,0)" stroke-linejoin="round" d="M 9909,11625 L 9771,11625 9771,11350 10046,11350 10046,11625 9909,11625 Z"/>
 <path fill="rgb(204,204,204)" stroke="none" d="M 7154,11625 L 7017,11625 7017,11350 7292,11350 7292,11625 7154,11625 Z"/>
 <path fill="none" stroke="rgb(0,0,0)" stroke-linejoin="round" d="M 7154,11625 L 7017,11625 7017,11350 7292,11350 7292,11625 7154,11625 Z"/>
 <path fill="rgb(0,0,128)" stroke="none" d="M 4928,11625 L 4791,11625 4791,11350 5066,11350 5066,11625 4928,11625 Z"/>
 <path fill="none" stroke="rgb(0,0,0)" stroke-linejoin="round" d="M 4928,11625 L 4791,11625 4791,11350 5066,11350 5066,11625 4928,11625 Z"/>
 <path fill="rgb(153,102,204)" stroke="none" d="M 2490,11625 L 2353,11625 2353,11350 2628,11350 2628,11625 2490,11625 Z"/>
 <path fill="none" stroke="rgb(0,0,0)" stroke-linejoin="round" d="M 2490,11625 L 2353,11625 2353,11350 2628,11350 2628,11625 2490,11625 Z"/>
 <text class="TextShape"><tspan class="TextParagraph" font-family="Arial, sans-serif" font-size="459px" font-weight="400"><tspan class="TextPosition" x="2728" y="11633"><tspan fill="rgb(0,0,0)" stroke="none">Otros</tspan></tspan></tspan></text>
 <text class="TextShape"><tspan class="TextParagraph" font-family="Arial, sans-serif" font-size="459px" font-weight="400"><tspan class="TextPosition" x="5166" y="11633"><tspan fill="rgb(0,0,0)" stroke="none">PCs</tspan></tspan></tspan></text>
 <text class="TextShape"><tspan class="TextParagraph" font-family="Arial, sans-serif" font-size="459px" font-weight="400"><tspan class="TextPosition" x="7392" y="11633"><tspan fill="rgb(0,0,0)" stroke="none">Tablets</tspan></tspan></tspan></text>
 <text class="TextShape"><tspan class="TextParagraph" font-family="Arial, sans-serif" font-size="459px" font-weight="400"><tspan class="TextPosition" x="10146" y="11633"><tspan fill="rgb(0,0,0)" stroke="none">Teléfonos móviles</tspan></tspan></tspan></text>
</svg>
