<?xml version="1.0" encoding="UTF-8"?>
<!DOCTYPE svg PUBLIC "-//W3C//DTD SVG 1.1//EN" "http://www.w3.org/Graphics/SVG/1.1/DTD/svg11.dtd">
<svg width="160mm" height="120mm" viewBox="0 0 16000 12000" version="1.1" xmlns="http://www.w3.org/2000/svg" stroke-width="28.222" stroke-linejoin="round" xml:space="preserve">
 <path fill="rgb(255,255,255)" stroke="none" d="M 8000,12000 L 0,12000 0,0 16000,0 16000,12000 8000,12000 Z"/>
 <path fill="none" stroke="rgb(179,179,179)" stroke-linejoin="round" d="M 8030,10514 L 1349,10514 1349,950 14712,950 14712,10514 8030,10514 Z"/>
 <path fill="none" stroke="rgb(179,179,179)" stroke-linejoin="round" d="M 14712,10513 L 1349,10513"/>
 <path fill="none" stroke="rgb(179,179,179)" stroke-linejoin="round" d="M 14712,9556 L 1349,9556"/>
 <path fill="none" stroke="rgb(179,179,179)" stroke-linejoin="round" d="M 14712,8600 L 1349,8600"/>
 <path fill="none" stroke="rgb(179,179,179)" stroke-linejoin="round" d="M 14712,7643 L 1349,7643"/>
 <path fill="none" stroke="rgb(179,179,179)" stroke-linejoin="round" d="M 14712,6687 L 1349,6687"/>
 <path fill="none" stroke="rgb(179,179,179)" stroke-linejoin="round" d="M 14712,5731 L 1349,5731"/>
 <path fill="none" stroke="rgb(179,179,179)" stroke-linejoin="round" d="M 14712,4774 L 1349,4774"/>
 <path fill="none" stroke="rgb(179,179,179)" stroke-linejoin="round" d="M 14712,3818 L 1349,3818"/>
 <path fill="none" stroke="rgb(179,179,179)" stroke-linejoin="round" d="M 14712,2862 L 1349,2862"/>
 <path fill="none" stroke="rgb(179,179,179)" stroke-linejoin="round" d="M 14712,1905 L 1349,1905"/>
 <path fill="none" stroke="rgb(179,179,179)" stroke-linejoin="round" d="M 14712,949 L 1349,949"/>
 <path fill="none" stroke="rgb(0,0,0)" stroke-linejoin="round" d="M 1349,10663 L 1349,10513"/>
 <path fill="none" stroke="rgb(0,0,0)" stroke-linejoin="round" d="M 1349,10663 L 1349,10513"/>
 <path fill="none" stroke="rgb(0,0,0)" stroke-linejoin="round" d="M 2833,10663 L 2833,10513"/>
 <path fill="none" stroke="rgb(0,0,0)" stroke-linejoin="round" d="M 2833,10663 L 2833,10513"/>
 <path fill="none" stroke="rgb(0,0,0)" stroke-linejoin="round" d="M 4318,10663 L 4318,10513"/>
 <path fill="none" stroke="rgb(0,0,0)" stroke-linejoin="round" d="M 4318,10663 L 4318,10513"/>
 <path fill="none" stroke="rgb(0,0,0)" stroke-linejoin="round" d="M 5803,10663 L 5803,10513"/>
 <path fill="none" stroke="rgb(0,0,0)" stroke-linejoin="round" d="M 5803,10663 L 5803,10513"/>
 <path fill="none" stroke="rgb(0,0,0)" stroke-linejoin="round" d="M 7288,10663 L 7288,10513"/>
 <path fill="none" stroke="rgb(0,0,0)" stroke-linejoin="round" d="M 7288,10663 L 7288,10513"/>
 <path fill="none" stroke="rgb(0,0,0)" stroke-linejoin="round" d="M 8772,10663 L 8772,10513"/>
 <path fill="none" stroke="rgb(0,0,0)" stroke-linejoin="round" d="M 8772,10663 L 8772,10513"/>
 <path fill="none" stroke="rgb(0,0,0)" stroke-linejoin="round" d="M 10257,10663 L 10257,10513"/>
 <path fill="none" stroke="rgb(0,0,0)" stroke-linejoin="round" d="M 10257,10663 L 10257,10513"/>
 <path fill="none" stroke="rgb(0,0,0)" stroke-linejoin="round" d="M 11742,10663 L 11742,10513"/>
 <path fill="none" stroke="rgb(0,0,0)" stroke-linejoin="round" d="M 11742,10663 L 11742,10513"/>
 <path fill="none" stroke="rgb(0,0,0)" stroke-linejoin="round" d="M 13227,10663 L 13227,10513"/>
 <path fill="none" stroke="rgb(0,0,0)" stroke-linejoin="round" d="M 13227,10663 L 13227,10513"/>
 <path fill="none" stroke="rgb(0,0,0)" stroke-linejoin="round" d="M 14712,10663 L 14712,10513"/>
 <path fill="none" stroke="rgb(0,0,0)" stroke-linejoin="round" d="M 14712,10663 L 14712,10513"/>
 <path fill="none" stroke="rgb(0,0,0)" stroke-linejoin="round" d="M 1349,10513 L 14712,10513"/>
 <path fill="none" stroke="rgb(0,0,0)" stroke-linejoin="round" d="M 1199,10513 L 1349,10513"/>
 <path fill="none" stroke="rgb(0,0,0)" stroke-linejoin="round" d="M 1199,10513 L 1349,10513"/>
 <path fill="none" stroke="rgb(0,0,0)" stroke-linejoin="round" d="M 1199,9556 L 1349,9556"/>
 <path fill="none" stroke="rgb(0,0,0)" stroke-linejoin="round" d="M 1199,9556 L 1349,9556"/>
 <path fill="none" stroke="rgb(0,0,0)" stroke-linejoin="round" d="M 1199,8600 L 1349,8600"/>
 <path fill="none" stroke="rgb(0,0,0)" stroke-linejoin="round" d="M 1199,8600 L 1349,8600"/>
 <path fill="none" stroke="rgb(0,0,0)" stroke-linejoin="round" d="M 1199,7643 L 1349,7643"/>
 <path fill="none" stroke="rgb(0,0,0)" stroke-linejoin="round" d="M 1199,7643 L 1349,7643"/>
 <path fill="none" stroke="rgb(0,0,0)" stroke-linejoin="round" d="M 1199,6687 L 1349,6687"/>
 <path fill="none" stroke="rgb(0,0,0)" stroke-linejoin="round" d="M 1199,6687 L 1349,6687"/>
 <path fill="none" stroke="rgb(0,0,0)" stroke-linejoin="round" d="M 1199,5731 L 1349,5731"/>
 <path fill="none" stroke="rgb(0,0,0)" stroke-linejoin="round" d="M 1199,5731 L 1349,5731"/>
 <path fill="none" stroke="rgb(0,0,0)" stroke-linejoin="round" d="M 1199,4774 L 1349,4774"/>
 <path fill="none" stroke="rgb(0,0,0)" stroke-linejoin="round" d="M 1199,4774 L 1349,4774"/>
 <path fill="none" stroke="rgb(0,0,0)" stroke-linejoin="round" d="M 1199,3818 L 1349,3818"/>
 <path fill="none" stroke="rgb(0,0,0)" stroke-linejoin="round" d="M 1199,3818 L 1349,3818"/>
 <path fill="none" stroke="rgb(0,0,0)" stroke-linejoin="round" d="M 1199,2862 L 1349,2862"/>
 <path fill="none" stroke="rgb(0,0,0)" stroke-linejoin="round" d="M 1199,2862 L 1349,2862"/>
 <path fill="none" stroke="rgb(0,0,0)" stroke-linejoin="round" d="M 1199,1905 L 1349,1905"/>
 <path fill="none" stroke="rgb(0,0,0)" stroke-linejoin="round" d="M 1199,1905 L 1349,1905"/>
 <path fill="none" stroke="rgb(0,0,0)" stroke-linejoin="round" d="M 1199,949 L 1349,949"/>
 <path fill="none" stroke="rgb(0,0,0)" stroke-linejoin="round" d="M 1199,949 L 1349,949"/>
 <path fill="none" stroke="rgb(0,0,0)" stroke-linejoin="round" d="M 1349,10513 L 1349,949"/>
 <path fill="none" stroke="rgb(0,0,0)" stroke-linejoin="round" d="M 14862,10513 L 14712,10513"/>
 <path fill="none" stroke="rgb(0,0,0)" stroke-linejoin="round" d="M 14862,10513 L 14712,10513"/>
 <path fill="none" stroke="rgb(0,0,0)" stroke-linejoin="round" d="M 14862,9556 L 14712,9556"/>
 <path fill="none" stroke="rgb(0,0,0)" stroke-linejoin="round" d="M 14862,9556 L 14712,9556"/>
 <path fill="none" stroke="rgb(0,0,0)" stroke-linejoin="round" d="M 14862,8600 L 14712,8600"/>
 <path fill="none" stroke="rgb(0,0,0)" stroke-linejoin="round" d="M 14862,8600 L 14712,8600"/>
 <path fill="none" stroke="rgb(0,0,0)" stroke-linejoin="round" d="M 14862,7643 L 14712,7643"/>
 <path fill="none" stroke="rgb(0,0,0)" stroke-linejoin="round" d="M 14862,7643 L 14712,7643"/>
 <path fill="none" stroke="rgb(0,0,0)" stroke-linejoin="round" d="M 14862,6687 L 14712,6687"/>
 <path fill="none" stroke="rgb(0,0,0)" stroke-linejoin="round" d="M 14862,6687 L 14712,6687"/>
 <path fill="none" stroke="rgb(0,0,0)" stroke-linejoin="round" d="M 14862,5731 L 14712,5731"/>
 <path fill="none" stroke="rgb(0,0,0)" stroke-linejoin="round" d="M 14862,5731 L 14712,5731"/>
 <path fill="none" stroke="rgb(0,0,0)" stroke-linejoin="round" d="M 14862,4774 L 14712,4774"/>
 <path fill="none" stroke="rgb(0,0,0)" stroke-linejoin="round" d="M 14862,4774 L 14712,4774"/>
 <path fill="none" stroke="rgb(0,0,0)" stroke-linejoin="round" d="M 14862,3818 L 14712,3818"/>
 <path fill="none" stroke="rgb(0,0,0)" stroke-linejoin="round" d="M 14862,3818 L 14712,3818"/>
 <path fill="none" stroke="rgb(0,0,0)" stroke-linejoin="round" d="M 14862,2862 L 14712,2862"/>
 <path fill="none" stroke="rgb(0,0,0)" stroke-linejoin="round" d="M 14862,2862 L 14712,2862"/>
 <path fill="none" stroke="rgb(0,0,0)" stroke-linejoin="round" d="M 14862,1905 L 14712,1905"/>
 <path fill="none" stroke="rgb(0,0,0)" stroke-linejoin="round" d="M 14862,1905 L 14712,1905"/>
 <path fill="none" stroke="rgb(0,0,0)" stroke-linejoin="round" d="M 14862,949 L 14712,949"/>
 <path fill="none" stroke="rgb(0,0,0)" stroke-linejoin="round" d="M 14862,949 L 14712,949"/>
 <path fill="none" stroke="rgb(0,0,0)" stroke-linejoin="round" d="M 14712,10513 L 14712,949"/>
 <path fill="rgb(174,207,0)" stroke="none" d="M 1349,10513 L 2833,10513 4318,10178 5803,8093 7288,5492 8772,3569 10257,2670 11742,2547 13227,2414 14712,2117 14712,10513 1349,10513 Z"/>
 <path fill="none" stroke="rgb(0,0,0)" stroke-width="20" stroke-linejoin="round" d="M 1349,10513 L 2833,10513 4318,10178 5803,8093 7288,5492 8772,3569 10257,2670 11742,2547 13227,2414 14712,2117 14712,10513 1349,10513 Z"/>
 <path fill="rgb(204,204,204)" stroke="none" d="M 1349,10187 L 2833,9279 4318,8542 5803,6505 7288,4057 8772,2202 10257,1513 11742,1351 13227,1165 14712,1016 14712,2117 13227,2414 11742,2547 10257,2670 8772,3569 7288,5492 5803,8093 4318,10178 2833,10513 1349,10513 1349,10187 Z"/>
 <path fill="none" stroke="rgb(0,0,0)" stroke-width="20" stroke-linejoin="round" d="M 1349,10187 L 2833,9279 4318,8542 5803,6505 7288,4057 8772,2202 10257,1513 11742,1351 13227,1165 14712,1016 14712,2117 13227,2414 11742,2547 10257,2670 8772,3569 7288,5492 5803,8093 4318,10178 2833,10513 1349,10513 1349,10187 Z"/>
 <path fill="rgb(0,71,255)" stroke="none" d="M 1349,8963 L 2833,8217 4318,7786 5803,6247 7288,3914 8772,1982 10257,1168 11742,1068 13227,1006 14712,978 14712,1016 13227,1165 11742,1351 10257,1513 8772,2202 7288,4057 5803,6505 4318,8542 2833,9279 1349,10187 1349,8963 Z"/>
 <path fill="none" stroke="rgb(0,0,0)" stroke-width="20" stroke-linejoin="round" d="M 1349,8963 L 2833,8217 4318,7786 5803,6247 7288,3914 8772,1982 10257,1168 11742,1068 13227,1006 14712,978 14712,1016 13227,1165 11742,1351 10257,1513 8772,2202 7288,4057 5803,6505 4318,8542 2833,9279 1349,10187 1349,8963 Z"/>
 <path fill="rgb(0,0,0)" stroke="none" d="M 1349,8035 L 2833,6696 4318,5808 5803,4774 7288,2862 8772,1484 10257,996 11742,992 13227,979 14712,968 14712,978 13227,1006 11742,1068 10257,1168 8772,1982 7288,3914 5803,6247 4318,7786 2833,8217 1349,8963 1349,8035 Z"/>
 <path fill="none" stroke="rgb(0,0,0)" stroke-width="20" stroke-linejoin="round" d="M 1349,8035 L 2833,6696 4318,5808 5803,4774 7288,2862 8772,1484 10257,996 11742,992 13227,979 14712,968 14712,978 13227,1006 11742,1068 10257,1168 8772,1982 7288,3914 5803,6247 4318,7786 2833,8217 1349,8963 1349,8035 Z"/>
 <path fill="rgb(255,149,14)" stroke="none" d="M 1349,2001 L 2833,1934 4318,1542 5803,1302 7288,1245 8772,1235 10257,996 11742,992 13227,979 14712,968 14712,968 13227,979 11742,992 10257,996 8772,1484 7288,2862 5803,4774 4318,5808 2833,6696 1349,8035 1349,2001 Z"/>
 <path fill="none" stroke="rgb(0,0,0)" stroke-width="20" stroke-linejoin="round" d="M 1349,2001 L 2833,1934 4318,1542 5803,1302 7288,1245 8772,1235 10257,996 11742,992 13227,979 14712,968 14712,968 13227,979 11742,992 10257,996 8772,1484 7288,2862 5803,4774 4318,5808 2833,6696 1349,8035 1349,2001 Z"/>
 <path fill="rgb(153,102,204)" stroke="none" d="M 2833,949 L 4318,949 5803,958 7288,949 8772,949 10257,949 11742,951 13227,949 14712,949 14712,968 13227,979 11742,992 10257,996 8772,1235 7288,1245 5803,1302 4318,1542 2833,1934 1349,2001 1349,949 2833,949 Z"/>
 <path fill="none" stroke="rgb(0,0,0)" stroke-width="20" stroke-linejoin="round" d="M 2833,949 L 4318,949 5803,958 7288,949 8772,949 10257,949 11742,951 13227,949 14712,949 14712,968 13227,979 11742,992 10257,996 8772,1235 7288,1245 5803,1302 4318,1542 2833,1934 1349,2001 1349,949 2833,949 Z"/>
 <text class="TextShape"><tspan class="TextParagraph" font-family="Arial, sans-serif" font-size="388px" font-weight="400"><tspan class="TextPosition" x="925" y="11107"><tspan fill="rgb(0,0,0)" stroke="none">2007</tspan></tspan></tspan></text>
 <text class="TextShape"><tspan class="TextParagraph" font-family="Arial, sans-serif" font-size="388px" font-weight="400"><tspan class="TextPosition" x="2409" y="11107"><tspan fill="rgb(0,0,0)" stroke="none">2008</tspan></tspan></tspan></text>
 <text class="TextShape"><tspan class="TextParagraph" font-family="Arial, sans-serif" font-size="388px" font-weight="400"><tspan class="TextPosition" x="3894" y="11107"><tspan fill="rgb(0,0,0)" stroke="none">2009</tspan></tspan></tspan></text>
 <text class="TextShape"><tspan class="TextParagraph" font-family="Arial, sans-serif" font-size="388px" font-weight="400"><tspan class="TextPosition" x="5379" y="11107"><tspan fill="rgb(0,0,0)" stroke="none">2010</tspan></tspan></tspan></text>
 <text class="TextShape"><tspan class="TextParagraph" font-family="Arial, sans-serif" font-size="388px" font-weight="400"><tspan class="TextPosition" x="6878" y="11107"><tspan fill="rgb(0,0,0)" stroke="none">2011</tspan></tspan></tspan></text>
 <text class="TextShape"><tspan class="TextParagraph" font-family="Arial, sans-serif" font-size="388px" font-weight="400"><tspan class="TextPosition" x="8349" y="11107"><tspan fill="rgb(0,0,0)" stroke="none">2012</tspan></tspan></tspan></text>
 <text class="TextShape"><tspan class="TextParagraph" font-family="Arial, sans-serif" font-size="388px" font-weight="400"><tspan class="TextPosition" x="9834" y="11107"><tspan fill="rgb(0,0,0)" stroke="none">2013</tspan></tspan></tspan></text>
 <text class="TextShape"><tspan class="TextParagraph" font-family="Arial, sans-serif" font-size="388px" font-weight="400"><tspan class="TextPosition" x="11319" y="11107"><tspan fill="rgb(0,0,0)" stroke="none">2014</tspan></tspan></tspan></text>
 <text class="TextShape"><tspan class="TextParagraph" font-family="Arial, sans-serif" font-size="388px" font-weight="400"><tspan class="TextPosition" x="12804" y="11107"><tspan fill="rgb(0,0,0)" stroke="none">2015</tspan></tspan></tspan></text>
 <text class="TextShape"><tspan class="TextParagraph" font-family="Arial, sans-serif" font-size="388px" font-weight="400"><tspan class="TextPosition" x="14289" y="11107"><tspan fill="rgb(0,0,0)" stroke="none">2016</tspan></tspan></tspan></text>
 <text class="TextShape"><tspan class="TextParagraph" font-family="Arial, sans-serif" font-size="388px" font-weight="400"><tspan class="TextPosition" x="543" y="10647"><tspan fill="rgb(0,0,0)" stroke="none">0%</tspan></tspan></tspan></text>
 <text class="TextShape"><tspan class="TextParagraph" font-family="Arial, sans-serif" font-size="388px" font-weight="400"><tspan class="TextPosition" x="332" y="9690"><tspan fill="rgb(0,0,0)" stroke="none">10%</tspan></tspan></tspan></text>
 <text class="TextShape"><tspan class="TextParagraph" font-family="Arial, sans-serif" font-size="388px" font-weight="400"><tspan class="TextPosition" x="332" y="8734"><tspan fill="rgb(0,0,0)" stroke="none">20%</tspan></tspan></tspan></text>
 <text class="TextShape"><tspan class="TextParagraph" font-family="Arial, sans-serif" font-size="388px" font-weight="400"><tspan class="TextPosition" x="332" y="7777"><tspan fill="rgb(0,0,0)" stroke="none">30%</tspan></tspan></tspan></text>
 <text class="TextShape"><tspan class="TextParagraph" font-family="Arial, sans-serif" font-size="388px" font-weight="400"><tspan class="TextPosition" x="332" y="6821"><tspan fill="rgb(0,0,0)" stroke="none">40%</tspan></tspan></tspan></text>
 <text class="TextShape"><tspan class="TextParagraph" font-family="Arial, sans-serif" font-size="388px" font-weight="400"><tspan class="TextPosition" x="332" y="5864"><tspan fill="rgb(0,0,0)" stroke="none">50%</tspan></tspan></tspan></text>
 <text class="TextShape"><tspan class="TextParagraph" font-family="Arial, sans-serif" font-size="388px" font-weight="400"><tspan class="TextPosition" x="332" y="4907"><tspan fill="rgb(0,0,0)" stroke="none">60%</tspan></tspan></tspan></text>
 <text class="TextShape"><tspan class="TextParagraph" font-family="Arial, sans-serif" font-size="388px" font-weight="400"><tspan class="TextPosition" x="332" y="3951"><tspan fill="rgb(0,0,0)" stroke="none">70%</tspan></tspan></tspan></text>
 <text class="TextShape"><tspan class="TextParagraph" font-family="Arial, sans-serif" font-size="388px" font-weight="400"><tspan class="TextPosition" x="332" y="2995"><tspan fill="rgb(0,0,0)" stroke="none">80%</tspan></tspan></tspan></text>
 <text class="TextShape"><tspan class="TextParagraph" font-family="Arial, sans-serif" font-size="388px" font-weight="400"><tspan class="TextPosition" x="332" y="2038"><tspan fill="rgb(0,0,0)" stroke="none">90%</tspan></tspan></tspan></text>
 <text class="TextShape"><tspan class="TextParagraph" font-family="Arial, sans-serif" font-size="388px" font-weight="400"><tspan class="TextPosition" x="120" y="1082"><tspan fill="rgb(0,0,0)" stroke="none">100%</tspan></tspan></tspan></text>
 <text class="TextShape"><tspan class="TextParagraph" font-family="Arial, sans-serif" font-size="388px" font-weight="400"><tspan class="TextPosition" x="14962" y="10647"><tspan fill="rgb(0,0,0)" stroke="none">0%</tspan></tspan></tspan></text>
 <text class="TextShape"><tspan class="TextParagraph" font-family="Arial, sans-serif" font-size="388px" font-weight="400"><tspan class="TextPosition" x="14962" y="9690"><tspan fill="rgb(0,0,0)" stroke="none">10%</tspan></tspan></tspan></text>
 <text class="TextShape"><tspan class="TextParagraph" font-family="Arial, sans-serif" font-size="388px" font-weight="400"><tspan class="TextPosition" x="14962" y="8734"><tspan fill="rgb(0,0,0)" stroke="none">20%</tspan></tspan></tspan></text>
 <text class="TextShape"><tspan class="TextParagraph" font-family="Arial, sans-serif" font-size="388px" font-weight="400"><tspan class="TextPosition" x="14962" y="7777"><tspan fill="rgb(0,0,0)" stroke="none">30%</tspan></tspan></tspan></text>
 <text class="TextShape"><tspan class="TextParagraph" font-family="Arial, sans-serif" font-size="388px" font-weight="400"><tspan class="TextPosition" x="14962" y="6821"><tspan fill="rgb(0,0,0)" stroke="none">40%</tspan></tspan></tspan></text>
 <text class="TextShape"><tspan class="TextParagraph" font-family="Arial, sans-serif" font-size="388px" font-weight="400"><tspan class="TextPosition" x="14962" y="5864"><tspan fill="rgb(0,0,0)" stroke="none">50%</tspan></tspan></tspan></text>
 <text class="TextShape"><tspan class="TextParagraph" font-family="Arial, sans-serif" font-size="388px" font-weight="400"><tspan class="TextPosition" x="14962" y="4907"><tspan fill="rgb(0,0,0)" stroke="none">60%</tspan></tspan></tspan></text>
 <text class="TextShape"><tspan class="TextParagraph" font-family="Arial, sans-serif" font-size="388px" font-weight="400"><tspan class="TextPosition" x="14962" y="3951"><tspan fill="rgb(0,0,0)" stroke="none">70%</tspan></tspan></tspan></text>
 <text class="TextShape"><tspan class="TextParagraph" font-family="Arial, sans-serif" font-size="388px" font-weight="400"><tspan class="TextPosition" x="14962" y="2995"><tspan fill="rgb(0,0,0)" stroke="none">80%</tspan></tspan></tspan></text>
 <text class="TextShape"><tspan class="TextParagraph" font-family="Arial, sans-serif" font-size="388px" font-weight="400"><tspan class="TextPosition" x="14962" y="2038"><tspan fill="rgb(0,0,0)" stroke="none">90%</tspan></tspan></tspan></text>
 <text class="TextShape"><tspan class="TextParagraph" font-family="Arial, sans-serif" font-size="388px" font-weight="400"><tspan class="TextPosition" x="14962" y="1082"><tspan fill="rgb(0,0,0)" stroke="none">100%</tspan></tspan></tspan></text>
 <text class="TextShape"><tspan class="TextParagraph" font-family="Arial, sans-serif" font-size="529px" font-weight="700"><tspan class="TextPosition" x="1262" y="637"><tspan fill="rgb(0,0,0)" stroke="none">Ventas de smartphones en el 3º trimestre de cada año</tspan></tspan></tspan></text>
 <path fill="rgb(174,207,0)" stroke="none" d="M 12861,11633 L 12745,11633 12745,11401 12977,11401 12977,11633 12861,11633 Z"/>
 <path fill="none" stroke="rgb(0,0,0)" stroke-linejoin="round" d="M 12861,11633 L 12745,11633 12745,11401 12977,11401 12977,11633 12861,11633 Z"/>
 <path fill="rgb(204,204,204)" stroke="none" d="M 11226,11633 L 11110,11633 11110,11401 11342,11401 11342,11633 11226,11633 Z"/>
 <path fill="none" stroke="rgb(0,0,0)" stroke-linejoin="round" d="M 11226,11633 L 11110,11633 11110,11401 11342,11401 11342,11633 11226,11633 Z"/>
 <path fill="rgb(0,71,255)" stroke="none" d="M 8664,11633 L 8548,11633 8548,11401 8780,11401 8780,11633 8664,11633 Z"/>
 <path fill="none" stroke="rgb(0,0,0)" stroke-linejoin="round" d="M 8664,11633 L 8548,11633 8548,11401 8780,11401 8780,11633 8664,11633 Z"/>
 <path fill="rgb(0,0,0)" stroke="none" d="M 5760,11633 L 5644,11633 5644,11401 5876,11401 5876,11633 5760,11633 Z"/>
 <path fill="none" stroke="rgb(0,0,0)" stroke-linejoin="round" d="M 5760,11633 L 5644,11633 5644,11401 5876,11401 5876,11633 5760,11633 Z"/>
 <path fill="rgb(255,149,14)" stroke="none" d="M 3278,11633 L 3162,11633 3162,11401 3394,11401 3394,11633 3278,11633 Z"/>
 <path fill="none" stroke="rgb(0,0,0)" stroke-linejoin="round" d="M 3278,11633 L 3162,11633 3162,11401 3394,11401 3394,11633 3278,11633 Z"/>
 <path fill="rgb(153,102,204)" stroke="none" d="M 1325,11633 L 1209,11633 1209,11401 1441,11401 1441,11633 1325,11633 Z"/>
 <path fill="none" stroke="rgb(0,0,0)" stroke-linejoin="round" d="M 1325,11633 L 1209,11633 1209,11401 1441,11401 1441,11633 1325,11633 Z"/>
 <text class="TextShape"><tspan class="TextParagraph" font-family="Liberation Sans, sans-serif" font-size="388px" font-weight="400"><tspan class="TextPosition" x="1541" y="11649"><tspan fill="rgb(0,0,0)" stroke="none">Otros</tspan></tspan></tspan></text>
 <text class="TextShape"><tspan class="TextParagraph" font-family="Liberation Sans, sans-serif" font-size="388px" font-weight="400"><tspan class="TextPosition" x="3494" y="11649"><tspan fill="rgb(0,0,0)" stroke="none">Symbian</tspan></tspan></tspan></text>
 <text class="TextShape"><tspan class="TextParagraph" font-family="Liberation Sans, sans-serif" font-size="388px" font-weight="400"><tspan class="TextPosition" x="5976" y="11649"><tspan fill="rgb(0,0,0)" stroke="none">BlackBerry</tspan></tspan></tspan></text>
 <text class="TextShape"><tspan class="TextParagraph" font-family="Liberation Sans, sans-serif" font-size="388px" font-weight="400"><tspan class="TextPosition" x="8880" y="11649"><tspan fill="rgb(0,0,0)" stroke="none">Windows</tspan></tspan></tspan></text>
 <text class="TextShape"><tspan class="TextParagraph" font-family="Liberation Sans, sans-serif" font-size="388px" font-weight="400"><tspan class="TextPosition" x="11442" y="11649"><tspan fill="rgb(0,0,0)" stroke="none">iOS</tspan></tspan></tspan></text>
 <text class="TextShape"><tspan class="TextParagraph" font-family="Liberation Sans, sans-serif" font-size="388px" font-weight="400"><tspan class="TextPosition" x="13077" y="11649"><tspan fill="rgb(0,0,0)" stroke="none">Android</tspan></tspan></tspan></text>
</svg>
