<?xml version="1.0" encoding="UTF-8"?>
<!DOCTYPE svg PUBLIC "-//W3C//DTD SVG 1.1//EN" "http://www.w3.org/Graphics/SVG/1.1/DTD/svg11.dtd">
<svg width="173mm" height="120mm" viewBox="0 0 17300 12000" version="1.1" xmlns="http://www.w3.org/2000/svg" stroke-width="28.222" stroke-linejoin="round" xml:space="preserve">
 <path fill="rgb(255,255,255)" stroke="none" d="M 8661,11994 L 0,11994 0,0 17321,0 17321,11994 8661,11994 Z"/>
 <path fill="none" stroke="rgb(179,179,179)" stroke-linejoin="round" d="M 8642,10481 L 1291,10481 1291,940 15993,940 15993,10481 8642,10481 Z"/>
 <path fill="none" stroke="rgb(0,0,0)" stroke-linejoin="round" d="M 15993,10480 L 1291,10480"/>
 <path fill="none" stroke="rgb(0,0,0)" stroke-linejoin="round" d="M 15993,9525 L 1291,9525"/>
 <path fill="none" stroke="rgb(0,0,0)" stroke-linejoin="round" d="M 15993,8571 L 1291,8571"/>
 <path fill="none" stroke="rgb(0,0,0)" stroke-linejoin="round" d="M 15993,7617 L 1291,7617"/>
 <path fill="none" stroke="rgb(0,0,0)" stroke-linejoin="round" d="M 15993,6663 L 1291,6663"/>
 <path fill="none" stroke="rgb(0,0,0)" stroke-linejoin="round" d="M 15993,5710 L 1291,5710"/>
 <path fill="none" stroke="rgb(0,0,0)" stroke-linejoin="round" d="M 15993,4755 L 1291,4755"/>
 <path fill="none" stroke="rgb(0,0,0)" stroke-linejoin="round" d="M 15993,3801 L 1291,3801"/>
 <path fill="none" stroke="rgb(0,0,0)" stroke-linejoin="round" d="M 15993,2847 L 1291,2847"/>
 <path fill="none" stroke="rgb(0,0,0)" stroke-linejoin="round" d="M 15993,1893 L 1291,1893"/>
 <path fill="none" stroke="rgb(0,0,0)" stroke-linejoin="round" d="M 15993,939 L 1291,939"/>
 <path fill="none" stroke="rgb(0,0,0)" stroke-linejoin="round" d="M 1291,10630 L 1291,10480"/>
 <path fill="none" stroke="rgb(0,0,0)" stroke-linejoin="round" d="M 1291,10630 L 1291,10480"/>
 <path fill="none" stroke="rgb(0,0,0)" stroke-linejoin="round" d="M 1501,10630 L 1501,10480"/>
 <path fill="none" stroke="rgb(0,0,0)" stroke-linejoin="round" d="M 1501,10630 L 1501,10480"/>
 <path fill="none" stroke="rgb(0,0,0)" stroke-linejoin="round" d="M 1711,10630 L 1711,10480"/>
 <path fill="none" stroke="rgb(0,0,0)" stroke-linejoin="round" d="M 1711,10630 L 1711,10480"/>
 <path fill="none" stroke="rgb(0,0,0)" stroke-linejoin="round" d="M 1921,10630 L 1921,10480"/>
 <path fill="none" stroke="rgb(0,0,0)" stroke-linejoin="round" d="M 1921,10630 L 1921,10480"/>
 <path fill="none" stroke="rgb(0,0,0)" stroke-linejoin="round" d="M 2131,10630 L 2131,10480"/>
 <path fill="none" stroke="rgb(0,0,0)" stroke-linejoin="round" d="M 2131,10630 L 2131,10480"/>
 <path fill="none" stroke="rgb(0,0,0)" stroke-linejoin="round" d="M 2341,10630 L 2341,10480"/>
 <path fill="none" stroke="rgb(0,0,0)" stroke-linejoin="round" d="M 2341,10630 L 2341,10480"/>
 <path fill="none" stroke="rgb(0,0,0)" stroke-linejoin="round" d="M 2551,10630 L 2551,10480"/>
 <path fill="none" stroke="rgb(0,0,0)" stroke-linejoin="round" d="M 2551,10630 L 2551,10480"/>
 <path fill="none" stroke="rgb(0,0,0)" stroke-linejoin="round" d="M 2761,10630 L 2761,10480"/>
 <path fill="none" stroke="rgb(0,0,0)" stroke-linejoin="round" d="M 2761,10630 L 2761,10480"/>
 <path fill="none" stroke="rgb(0,0,0)" stroke-linejoin="round" d="M 2971,10630 L 2971,10480"/>
 <path fill="none" stroke="rgb(0,0,0)" stroke-linejoin="round" d="M 2971,10630 L 2971,10480"/>
 <path fill="none" stroke="rgb(0,0,0)" stroke-linejoin="round" d="M 3181,10630 L 3181,10480"/>
 <path fill="none" stroke="rgb(0,0,0)" stroke-linejoin="round" d="M 3181,10630 L 3181,10480"/>
 <path fill="none" stroke="rgb(0,0,0)" stroke-linejoin="round" d="M 3391,10630 L 3391,10480"/>
 <path fill="none" stroke="rgb(0,0,0)" stroke-linejoin="round" d="M 3391,10630 L 3391,10480"/>
 <path fill="none" stroke="rgb(0,0,0)" stroke-linejoin="round" d="M 3601,10630 L 3601,10480"/>
 <path fill="none" stroke="rgb(0,0,0)" stroke-linejoin="round" d="M 3601,10630 L 3601,10480"/>
 <path fill="none" stroke="rgb(0,0,0)" stroke-linejoin="round" d="M 3811,10630 L 3811,10480"/>
 <path fill="none" stroke="rgb(0,0,0)" stroke-linejoin="round" d="M 3811,10630 L 3811,10480"/>
 <path fill="none" stroke="rgb(0,0,0)" stroke-linejoin="round" d="M 4021,10630 L 4021,10480"/>
 <path fill="none" stroke="rgb(0,0,0)" stroke-linejoin="round" d="M 4021,10630 L 4021,10480"/>
 <path fill="none" stroke="rgb(0,0,0)" stroke-linejoin="round" d="M 4231,10630 L 4231,10480"/>
 <path fill="none" stroke="rgb(0,0,0)" stroke-linejoin="round" d="M 4231,10630 L 4231,10480"/>
 <path fill="none" stroke="rgb(0,0,0)" stroke-linejoin="round" d="M 4441,10630 L 4441,10480"/>
 <path fill="none" stroke="rgb(0,0,0)" stroke-linejoin="round" d="M 4441,10630 L 4441,10480"/>
 <path fill="none" stroke="rgb(0,0,0)" stroke-linejoin="round" d="M 4651,10630 L 4651,10480"/>
 <path fill="none" stroke="rgb(0,0,0)" stroke-linejoin="round" d="M 4651,10630 L 4651,10480"/>
 <path fill="none" stroke="rgb(0,0,0)" stroke-linejoin="round" d="M 4861,10630 L 4861,10480"/>
 <path fill="none" stroke="rgb(0,0,0)" stroke-linejoin="round" d="M 4861,10630 L 4861,10480"/>
 <path fill="none" stroke="rgb(0,0,0)" stroke-linejoin="round" d="M 5071,10630 L 5071,10480"/>
 <path fill="none" stroke="rgb(0,0,0)" stroke-linejoin="round" d="M 5071,10630 L 5071,10480"/>
 <path fill="none" stroke="rgb(0,0,0)" stroke-linejoin="round" d="M 5281,10630 L 5281,10480"/>
 <path fill="none" stroke="rgb(0,0,0)" stroke-linejoin="round" d="M 5281,10630 L 5281,10480"/>
 <path fill="none" stroke="rgb(0,0,0)" stroke-linejoin="round" d="M 5491,10630 L 5491,10480"/>
 <path fill="none" stroke="rgb(0,0,0)" stroke-linejoin="round" d="M 5491,10630 L 5491,10480"/>
 <path fill="none" stroke="rgb(0,0,0)" stroke-linejoin="round" d="M 5701,10630 L 5701,10480"/>
 <path fill="none" stroke="rgb(0,0,0)" stroke-linejoin="round" d="M 5701,10630 L 5701,10480"/>
 <path fill="none" stroke="rgb(0,0,0)" stroke-linejoin="round" d="M 5911,10630 L 5911,10480"/>
 <path fill="none" stroke="rgb(0,0,0)" stroke-linejoin="round" d="M 5911,10630 L 5911,10480"/>
 <path fill="none" stroke="rgb(0,0,0)" stroke-linejoin="round" d="M 6121,10630 L 6121,10480"/>
 <path fill="none" stroke="rgb(0,0,0)" stroke-linejoin="round" d="M 6121,10630 L 6121,10480"/>
 <path fill="none" stroke="rgb(0,0,0)" stroke-linejoin="round" d="M 6332,10630 L 6332,10480"/>
 <path fill="none" stroke="rgb(0,0,0)" stroke-linejoin="round" d="M 6332,10630 L 6332,10480"/>
 <path fill="none" stroke="rgb(0,0,0)" stroke-linejoin="round" d="M 6542,10630 L 6542,10480"/>
 <path fill="none" stroke="rgb(0,0,0)" stroke-linejoin="round" d="M 6542,10630 L 6542,10480"/>
 <path fill="none" stroke="rgb(0,0,0)" stroke-linejoin="round" d="M 6752,10630 L 6752,10480"/>
 <path fill="none" stroke="rgb(0,0,0)" stroke-linejoin="round" d="M 6752,10630 L 6752,10480"/>
 <path fill="none" stroke="rgb(0,0,0)" stroke-linejoin="round" d="M 6962,10630 L 6962,10480"/>
 <path fill="none" stroke="rgb(0,0,0)" stroke-linejoin="round" d="M 6962,10630 L 6962,10480"/>
 <path fill="none" stroke="rgb(0,0,0)" stroke-linejoin="round" d="M 7172,10630 L 7172,10480"/>
 <path fill="none" stroke="rgb(0,0,0)" stroke-linejoin="round" d="M 7172,10630 L 7172,10480"/>
 <path fill="none" stroke="rgb(0,0,0)" stroke-linejoin="round" d="M 7382,10630 L 7382,10480"/>
 <path fill="none" stroke="rgb(0,0,0)" stroke-linejoin="round" d="M 7382,10630 L 7382,10480"/>
 <path fill="none" stroke="rgb(0,0,0)" stroke-linejoin="round" d="M 7592,10630 L 7592,10480"/>
 <path fill="none" stroke="rgb(0,0,0)" stroke-linejoin="round" d="M 7592,10630 L 7592,10480"/>
 <path fill="none" stroke="rgb(0,0,0)" stroke-linejoin="round" d="M 7802,10630 L 7802,10480"/>
 <path fill="none" stroke="rgb(0,0,0)" stroke-linejoin="round" d="M 7802,10630 L 7802,10480"/>
 <path fill="none" stroke="rgb(0,0,0)" stroke-linejoin="round" d="M 8012,10630 L 8012,10480"/>
 <path fill="none" stroke="rgb(0,0,0)" stroke-linejoin="round" d="M 8012,10630 L 8012,10480"/>
 <path fill="none" stroke="rgb(0,0,0)" stroke-linejoin="round" d="M 8222,10630 L 8222,10480"/>
 <path fill="none" stroke="rgb(0,0,0)" stroke-linejoin="round" d="M 8222,10630 L 8222,10480"/>
 <path fill="none" stroke="rgb(0,0,0)" stroke-linejoin="round" d="M 8432,10630 L 8432,10480"/>
 <path fill="none" stroke="rgb(0,0,0)" stroke-linejoin="round" d="M 8432,10630 L 8432,10480"/>
 <path fill="none" stroke="rgb(0,0,0)" stroke-linejoin="round" d="M 8642,10630 L 8642,10480"/>
 <path fill="none" stroke="rgb(0,0,0)" stroke-linejoin="round" d="M 8642,10630 L 8642,10480"/>
 <path fill="none" stroke="rgb(0,0,0)" stroke-linejoin="round" d="M 8851,10630 L 8851,10480"/>
 <path fill="none" stroke="rgb(0,0,0)" stroke-linejoin="round" d="M 8851,10630 L 8851,10480"/>
 <path fill="none" stroke="rgb(0,0,0)" stroke-linejoin="round" d="M 9061,10630 L 9061,10480"/>
 <path fill="none" stroke="rgb(0,0,0)" stroke-linejoin="round" d="M 9061,10630 L 9061,10480"/>
 <path fill="none" stroke="rgb(0,0,0)" stroke-linejoin="round" d="M 9271,10630 L 9271,10480"/>
 <path fill="none" stroke="rgb(0,0,0)" stroke-linejoin="round" d="M 9271,10630 L 9271,10480"/>
 <path fill="none" stroke="rgb(0,0,0)" stroke-linejoin="round" d="M 9481,10630 L 9481,10480"/>
 <path fill="none" stroke="rgb(0,0,0)" stroke-linejoin="round" d="M 9481,10630 L 9481,10480"/>
 <path fill="none" stroke="rgb(0,0,0)" stroke-linejoin="round" d="M 9691,10630 L 9691,10480"/>
 <path fill="none" stroke="rgb(0,0,0)" stroke-linejoin="round" d="M 9691,10630 L 9691,10480"/>
 <path fill="none" stroke="rgb(0,0,0)" stroke-linejoin="round" d="M 9901,10630 L 9901,10480"/>
 <path fill="none" stroke="rgb(0,0,0)" stroke-linejoin="round" d="M 9901,10630 L 9901,10480"/>
 <path fill="none" stroke="rgb(0,0,0)" stroke-linejoin="round" d="M 10111,10630 L 10111,10480"/>
 <path fill="none" stroke="rgb(0,0,0)" stroke-linejoin="round" d="M 10111,10630 L 10111,10480"/>
 <path fill="none" stroke="rgb(0,0,0)" stroke-linejoin="round" d="M 10321,10630 L 10321,10480"/>
 <path fill="none" stroke="rgb(0,0,0)" stroke-linejoin="round" d="M 10321,10630 L 10321,10480"/>
 <path fill="none" stroke="rgb(0,0,0)" stroke-linejoin="round" d="M 10531,10630 L 10531,10480"/>
 <path fill="none" stroke="rgb(0,0,0)" stroke-linejoin="round" d="M 10531,10630 L 10531,10480"/>
 <path fill="none" stroke="rgb(0,0,0)" stroke-linejoin="round" d="M 10741,10630 L 10741,10480"/>
 <path fill="none" stroke="rgb(0,0,0)" stroke-linejoin="round" d="M 10741,10630 L 10741,10480"/>
 <path fill="none" stroke="rgb(0,0,0)" stroke-linejoin="round" d="M 10951,10630 L 10951,10480"/>
 <path fill="none" stroke="rgb(0,0,0)" stroke-linejoin="round" d="M 10951,10630 L 10951,10480"/>
 <path fill="none" stroke="rgb(0,0,0)" stroke-linejoin="round" d="M 11162,10630 L 11162,10480"/>
 <path fill="none" stroke="rgb(0,0,0)" stroke-linejoin="round" d="M 11162,10630 L 11162,10480"/>
 <path fill="none" stroke="rgb(0,0,0)" stroke-linejoin="round" d="M 11372,10630 L 11372,10480"/>
 <path fill="none" stroke="rgb(0,0,0)" stroke-linejoin="round" d="M 11372,10630 L 11372,10480"/>
 <path fill="none" stroke="rgb(0,0,0)" stroke-linejoin="round" d="M 11582,10630 L 11582,10480"/>
 <path fill="none" stroke="rgb(0,0,0)" stroke-linejoin="round" d="M 11582,10630 L 11582,10480"/>
 <path fill="none" stroke="rgb(0,0,0)" stroke-linejoin="round" d="M 11792,10630 L 11792,10480"/>
 <path fill="none" stroke="rgb(0,0,0)" stroke-linejoin="round" d="M 11792,10630 L 11792,10480"/>
 <path fill="none" stroke="rgb(0,0,0)" stroke-linejoin="round" d="M 12002,10630 L 12002,10480"/>
 <path fill="none" stroke="rgb(0,0,0)" stroke-linejoin="round" d="M 12002,10630 L 12002,10480"/>
 <path fill="none" stroke="rgb(0,0,0)" stroke-linejoin="round" d="M 12212,10630 L 12212,10480"/>
 <path fill="none" stroke="rgb(0,0,0)" stroke-linejoin="round" d="M 12212,10630 L 12212,10480"/>
 <path fill="none" stroke="rgb(0,0,0)" stroke-linejoin="round" d="M 12422,10630 L 12422,10480"/>
 <path fill="none" stroke="rgb(0,0,0)" stroke-linejoin="round" d="M 12422,10630 L 12422,10480"/>
 <path fill="none" stroke="rgb(0,0,0)" stroke-linejoin="round" d="M 12632,10630 L 12632,10480"/>
 <path fill="none" stroke="rgb(0,0,0)" stroke-linejoin="round" d="M 12632,10630 L 12632,10480"/>
 <path fill="none" stroke="rgb(0,0,0)" stroke-linejoin="round" d="M 12842,10630 L 12842,10480"/>
 <path fill="none" stroke="rgb(0,0,0)" stroke-linejoin="round" d="M 12842,10630 L 12842,10480"/>
 <path fill="none" stroke="rgb(0,0,0)" stroke-linejoin="round" d="M 13052,10630 L 13052,10480"/>
 <path fill="none" stroke="rgb(0,0,0)" stroke-linejoin="round" d="M 13052,10630 L 13052,10480"/>
 <path fill="none" stroke="rgb(0,0,0)" stroke-linejoin="round" d="M 13262,10630 L 13262,10480"/>
 <path fill="none" stroke="rgb(0,0,0)" stroke-linejoin="round" d="M 13262,10630 L 13262,10480"/>
 <path fill="none" stroke="rgb(0,0,0)" stroke-linejoin="round" d="M 13472,10630 L 13472,10480"/>
 <path fill="none" stroke="rgb(0,0,0)" stroke-linejoin="round" d="M 13472,10630 L 13472,10480"/>
 <path fill="none" stroke="rgb(0,0,0)" stroke-linejoin="round" d="M 13682,10630 L 13682,10480"/>
 <path fill="none" stroke="rgb(0,0,0)" stroke-linejoin="round" d="M 13682,10630 L 13682,10480"/>
 <path fill="none" stroke="rgb(0,0,0)" stroke-linejoin="round" d="M 13892,10630 L 13892,10480"/>
 <path fill="none" stroke="rgb(0,0,0)" stroke-linejoin="round" d="M 13892,10630 L 13892,10480"/>
 <path fill="none" stroke="rgb(0,0,0)" stroke-linejoin="round" d="M 14102,10630 L 14102,10480"/>
 <path fill="none" stroke="rgb(0,0,0)" stroke-linejoin="round" d="M 14102,10630 L 14102,10480"/>
 <path fill="none" stroke="rgb(0,0,0)" stroke-linejoin="round" d="M 14312,10630 L 14312,10480"/>
 <path fill="none" stroke="rgb(0,0,0)" stroke-linejoin="round" d="M 14312,10630 L 14312,10480"/>
 <path fill="none" stroke="rgb(0,0,0)" stroke-linejoin="round" d="M 14522,10630 L 14522,10480"/>
 <path fill="none" stroke="rgb(0,0,0)" stroke-linejoin="round" d="M 14522,10630 L 14522,10480"/>
 <path fill="none" stroke="rgb(0,0,0)" stroke-linejoin="round" d="M 14732,10630 L 14732,10480"/>
 <path fill="none" stroke="rgb(0,0,0)" stroke-linejoin="round" d="M 14732,10630 L 14732,10480"/>
 <path fill="none" stroke="rgb(0,0,0)" stroke-linejoin="round" d="M 14942,10630 L 14942,10480"/>
 <path fill="none" stroke="rgb(0,0,0)" stroke-linejoin="round" d="M 14942,10630 L 14942,10480"/>
 <path fill="none" stroke="rgb(0,0,0)" stroke-linejoin="round" d="M 15152,10630 L 15152,10480"/>
 <path fill="none" stroke="rgb(0,0,0)" stroke-linejoin="round" d="M 15152,10630 L 15152,10480"/>
 <path fill="none" stroke="rgb(0,0,0)" stroke-linejoin="round" d="M 15362,10630 L 15362,10480"/>
 <path fill="none" stroke="rgb(0,0,0)" stroke-linejoin="round" d="M 15362,10630 L 15362,10480"/>
 <path fill="none" stroke="rgb(0,0,0)" stroke-linejoin="round" d="M 15572,10630 L 15572,10480"/>
 <path fill="none" stroke="rgb(0,0,0)" stroke-linejoin="round" d="M 15572,10630 L 15572,10480"/>
 <path fill="none" stroke="rgb(0,0,0)" stroke-linejoin="round" d="M 15782,10630 L 15782,10480"/>
 <path fill="none" stroke="rgb(0,0,0)" stroke-linejoin="round" d="M 15782,10630 L 15782,10480"/>
 <path fill="none" stroke="rgb(0,0,0)" stroke-linejoin="round" d="M 15993,10630 L 15993,10480"/>
 <path fill="none" stroke="rgb(0,0,0)" stroke-linejoin="round" d="M 15993,10630 L 15993,10480"/>
 <path fill="none" stroke="rgb(0,0,0)" stroke-linejoin="round" d="M 1291,10480 L 15993,10480"/>
 <path fill="none" stroke="rgb(0,0,0)" stroke-width="50" stroke-linejoin="round" d="M 1141,10480 L 1291,10480"/>
 <path fill="none" stroke="rgb(0,0,0)" stroke-width="50" stroke-linejoin="round" d="M 1141,10480 L 1291,10480"/>
 <path fill="none" stroke="rgb(0,0,0)" stroke-width="50" stroke-linejoin="round" d="M 1141,9525 L 1291,9525"/>
 <path fill="none" stroke="rgb(0,0,0)" stroke-width="50" stroke-linejoin="round" d="M 1141,9525 L 1291,9525"/>
 <path fill="none" stroke="rgb(0,0,0)" stroke-width="50" stroke-linejoin="round" d="M 1141,8571 L 1291,8571"/>
 <path fill="none" stroke="rgb(0,0,0)" stroke-width="50" stroke-linejoin="round" d="M 1141,8571 L 1291,8571"/>
 <path fill="none" stroke="rgb(0,0,0)" stroke-width="50" stroke-linejoin="round" d="M 1141,7617 L 1291,7617"/>
 <path fill="none" stroke="rgb(0,0,0)" stroke-width="50" stroke-linejoin="round" d="M 1141,7617 L 1291,7617"/>
 <path fill="none" stroke="rgb(0,0,0)" stroke-width="50" stroke-linejoin="round" d="M 1141,6663 L 1291,6663"/>
 <path fill="none" stroke="rgb(0,0,0)" stroke-width="50" stroke-linejoin="round" d="M 1141,6663 L 1291,6663"/>
 <path fill="none" stroke="rgb(0,0,0)" stroke-width="50" stroke-linejoin="round" d="M 1141,5710 L 1291,5710"/>
 <path fill="none" stroke="rgb(0,0,0)" stroke-width="50" stroke-linejoin="round" d="M 1141,5710 L 1291,5710"/>
 <path fill="none" stroke="rgb(0,0,0)" stroke-width="50" stroke-linejoin="round" d="M 1141,4755 L 1291,4755"/>
 <path fill="none" stroke="rgb(0,0,0)" stroke-width="50" stroke-linejoin="round" d="M 1141,4755 L 1291,4755"/>
 <path fill="none" stroke="rgb(0,0,0)" stroke-width="50" stroke-linejoin="round" d="M 1141,3801 L 1291,3801"/>
 <path fill="none" stroke="rgb(0,0,0)" stroke-width="50" stroke-linejoin="round" d="M 1141,3801 L 1291,3801"/>
 <path fill="none" stroke="rgb(0,0,0)" stroke-width="50" stroke-linejoin="round" d="M 1141,2847 L 1291,2847"/>
 <path fill="none" stroke="rgb(0,0,0)" stroke-width="50" stroke-linejoin="round" d="M 1141,2847 L 1291,2847"/>
 <path fill="none" stroke="rgb(0,0,0)" stroke-width="50" stroke-linejoin="round" d="M 1141,1893 L 1291,1893"/>
 <path fill="none" stroke="rgb(0,0,0)" stroke-width="50" stroke-linejoin="round" d="M 1141,1893 L 1291,1893"/>
 <path fill="none" stroke="rgb(0,0,0)" stroke-width="50" stroke-linejoin="round" d="M 1141,939 L 1291,939"/>
 <path fill="none" stroke="rgb(0,0,0)" stroke-width="50" stroke-linejoin="round" d="M 1141,939 L 1291,939"/>
 <path fill="none" stroke="rgb(0,0,0)" stroke-width="50" stroke-linejoin="round" d="M 1291,10480 L 1291,939"/>
 <path fill="none" stroke="rgb(179,179,179)" stroke-linejoin="round" d="M 16143,10480 L 15993,10480"/>
 <path fill="none" stroke="rgb(179,179,179)" stroke-linejoin="round" d="M 16143,10480 L 15993,10480"/>
 <path fill="none" stroke="rgb(179,179,179)" stroke-linejoin="round" d="M 16143,9525 L 15993,9525"/>
 <path fill="none" stroke="rgb(179,179,179)" stroke-linejoin="round" d="M 16143,9525 L 15993,9525"/>
 <path fill="none" stroke="rgb(179,179,179)" stroke-linejoin="round" d="M 16143,8571 L 15993,8571"/>
 <path fill="none" stroke="rgb(179,179,179)" stroke-linejoin="round" d="M 16143,8571 L 15993,8571"/>
 <path fill="none" stroke="rgb(179,179,179)" stroke-linejoin="round" d="M 16143,7617 L 15993,7617"/>
 <path fill="none" stroke="rgb(179,179,179)" stroke-linejoin="round" d="M 16143,7617 L 15993,7617"/>
 <path fill="none" stroke="rgb(179,179,179)" stroke-linejoin="round" d="M 16143,6663 L 15993,6663"/>
 <path fill="none" stroke="rgb(179,179,179)" stroke-linejoin="round" d="M 16143,6663 L 15993,6663"/>
 <path fill="none" stroke="rgb(179,179,179)" stroke-linejoin="round" d="M 16143,5710 L 15993,5710"/>
 <path fill="none" stroke="rgb(179,179,179)" stroke-linejoin="round" d="M 16143,5710 L 15993,5710"/>
 <path fill="none" stroke="rgb(179,179,179)" stroke-linejoin="round" d="M 16143,4755 L 15993,4755"/>
 <path fill="none" stroke="rgb(179,179,179)" stroke-linejoin="round" d="M 16143,4755 L 15993,4755"/>
 <path fill="none" stroke="rgb(179,179,179)" stroke-linejoin="round" d="M 16143,3801 L 15993,3801"/>
 <path fill="none" stroke="rgb(179,179,179)" stroke-linejoin="round" d="M 16143,3801 L 15993,3801"/>
 <path fill="none" stroke="rgb(179,179,179)" stroke-linejoin="round" d="M 16143,2847 L 15993,2847"/>
 <path fill="none" stroke="rgb(179,179,179)" stroke-linejoin="round" d="M 16143,2847 L 15993,2847"/>
 <path fill="none" stroke="rgb(179,179,179)" stroke-linejoin="round" d="M 16143,1893 L 15993,1893"/>
 <path fill="none" stroke="rgb(179,179,179)" stroke-linejoin="round" d="M 16143,1893 L 15993,1893"/>
 <path fill="none" stroke="rgb(179,179,179)" stroke-linejoin="round" d="M 16143,939 L 15993,939"/>
 <path fill="none" stroke="rgb(179,179,179)" stroke-linejoin="round" d="M 16143,939 L 15993,939"/>
 <path fill="none" stroke="rgb(179,179,179)" stroke-linejoin="round" d="M 15993,10480 L 15993,939"/>
 <path fill="rgb(174,207,0)" stroke="none" d="M 1291,9334 L 1501,9239 1711,9058 1921,8857 2131,8609 2341,8438 2551,8237 2761,7999 2971,7741 3181,7502 3391,7331 3601,7168 3811,7006 4021,6844 4231,6644 4441,6481 4651,6300 4861,6205 5071,6062 5281,6004 5491,5967 5701,5843 5911,5700 6121,5614 6332,5633 6542,5624 6752,5557 6962,5500 7172,5461 7382,5471 7592,5366 7802,5356 8012,5385 8222,5490 8432,5547 8642,5519 8851,5519 9061,5480 9271,5519 9481,5538 9691,5557 9901,5538 10111,5500 10321,5528 10531,5566 10741,5547 10951,5509 11162,5500 11372,5471 11582,5509 11792,5528 12002,5566 12212,5519 12422,5509 12632,5490 12842,5461 13052,5414 13262,5404 13472,5442 13682,5480 13892,5500 14102,5509 14312,5557 14522,5576 14732,5547 14942,5490 15152,5433 15362,5414 15572,5395 15782,5442 15993,5452 15993,10480 1291,10480 1291,9334 Z"/>
 <path fill="none" stroke="rgb(0,0,0)" stroke-width="20" stroke-linejoin="round" d="M 1291,9334 L 1501,9239 1711,9058 1921,8857 2131,8609 2341,8438 2551,8237 2761,7999 2971,7741 3181,7502 3391,7331 3601,7168 3811,7006 4021,6844 4231,6644 4441,6481 4651,6300 4861,6205 5071,6062 5281,6004 5491,5967 5701,5843 5911,5700 6121,5614 6332,5633 6542,5624 6752,5557 6962,5500 7172,5461 7382,5471 7592,5366 7802,5356 8012,5385 8222,5490 8432,5547 8642,5519 8851,5519 9061,5480 9271,5519 9481,5538 9691,5557 9901,5538 10111,5500 10321,5528 10531,5566 10741,5547 10951,5509 11162,5500 11372,5471 11582,5509 11792,5528 12002,5566 12212,5519 12422,5509 12632,5490 12842,5461 13052,5414 13262,5404 13472,5442 13682,5480 13892,5500 14102,5509 14312,5557 14522,5576 14732,5547 14942,5490 15152,5433 15362,5414 15572,5395 15782,5442 15993,5452 15993,10480 1291,10480 1291,9334 Z"/>
 <path fill="rgb(204,204,204)" stroke="none" d="M 1291,6939 L 1501,6911 1711,6739 1921,6586 2131,6300 2341,6119 2551,5891 2761,5614 2971,5356 3181,5147 3391,4927 3601,4736 3811,4526 4021,4307 4231,4106 4441,3897 4651,3696 4861,3591 5071,3381 5281,3267 5491,3143 5701,3028 5911,2818 6121,2685 6332,2637 6542,2580 6752,2465 6962,2313 7172,2189 7382,2198 7592,2093 7802,2017 8012,1921 8222,1883 8432,1835 8642,1797 8851,1778 9061,1740 9271,1711 9481,1683 9691,1673 9901,1664 10111,1626 10321,1597 10531,1578 10741,1578 10951,1568 11162,1549 11372,1521 11582,1511 11792,1511 12002,1521 12212,1511 12422,1530 12632,1492 12842,1473 13052,1444 13262,1463 13472,1463 13682,1416 13892,1387 14102,1358 14312,1349 14522,1358 14732,1339 14942,1330 15152,1301 15362,1301 15572,1301 15782,1282 15993,1263 15993,5452 15782,5442 15572,5395 15362,5414 15152,5433 14942,5490 14732,5547 14522,5576 14312,5557 14102,5509 13892,5500 13682,5480 13472,5442 13262,5404 13052,5414 12842,5461 12632,5490 12422,5509 12212,5519 12002,5566 11792,5528 11582,5509 11372,5471 11162,5500 10951,5509 10741,5547 10531,5566 10321,5528 10111,5500 9901,5538 9691,5557 9481,5538 9271,5519 9061,5480 8851,5519 8642,5519 8432,5547 8222,5490 8012,5385 7802,5356 7592,5366 7382,5471 7172,5461 6962,5500 6752,5557 6542,5624 6332,5633 6121,5614 5911,5700 5701,5843 5491,5967 5281,6004 5071,6062 4861,6205 4651,6300 4441,6481 4231,6644 4021,6844 3811,7006 3601,7168 3391,7331 3181,7502 2971,7741 2761,7999 2551,8237 2341,8438 2131,8609 1921,8857 1711,9058 1501,9239 1291,9334 1291,6939 Z"/>
 <path fill="none" stroke="rgb(0,0,0)" stroke-width="20" stroke-linejoin="round" d="M 1291,6939 L 1501,6911 1711,6739 1921,6586 2131,6300 2341,6119 2551,5891 2761,5614 2971,5356 3181,5147 3391,4927 3601,4736 3811,4526 4021,4307 4231,4106 4441,3897 4651,3696 4861,3591 5071,3381 5281,3267 5491,3143 5701,3028 5911,2818 6121,2685 6332,2637 6542,2580 6752,2465 6962,2313 7172,2189 7382,2198 7592,2093 7802,2017 8012,1921 8222,1883 8432,1835 8642,1797 8851,1778 9061,1740 9271,1711 9481,1683 9691,1673 9901,1664 10111,1626 10321,1597 10531,1578 10741,1578 10951,1568 11162,1549 11372,1521 11582,1511 11792,1511 12002,1521 12212,1511 12422,1530 12632,1492 12842,1473 13052,1444 13262,1463 13472,1463 13682,1416 13892,1387 14102,1358 14312,1349 14522,1358 14732,1339 14942,1330 15152,1301 15362,1301 15572,1301 15782,1282 15993,1263 15993,5452 15782,5442 15572,5395 15362,5414 15152,5433 14942,5490 14732,5547 14522,5576 14312,5557 14102,5509 13892,5500 13682,5480 13472,5442 13262,5404 13052,5414 12842,5461 12632,5490 12422,5509 12212,5519 12002,5566 11792,5528 11582,5509 11372,5471 11162,5500 10951,5509 10741,5547 10531,5566 10321,5528 10111,5500 9901,5538 9691,5557 9481,5538 9271,5519 9061,5480 8851,5519 8642,5519 8432,5547 8222,5490 8012,5385 7802,5356 7592,5366 7382,5471 7172,5461 6962,5500 6752,5557 6542,5624 6332,5633 6121,5614 5911,5700 5701,5843 5491,5967 5281,6004 5071,6062 4861,6205 4651,6300 4441,6481 4231,6644 4021,6844 3811,7006 3601,7168 3391,7331 3181,7502 2971,7741 2761,7999 2551,8237 2341,8438 2131,8609 1921,8857 1711,9058 1501,9239 1291,9334 1291,6939 Z"/>
 <path fill="rgb(0,71,255)" stroke="none" d="M 1291,5605 L 1501,5652 1711,5519 1921,5461 2131,5271 2341,5175 2551,4965 2761,4755 2971,4555 3181,4383 3391,4192 3601,4021 3811,3887 4021,3753 4231,3553 4441,3353 4651,3152 4861,3057 5071,2866 5281,2771 5491,2694 5701,2608 5911,2446 6121,2313 6332,2255 6542,2198 6752,2103 6962,1969 7172,1845 7382,1855 7592,1788 7802,1730 8012,1645 8222,1587 8432,1530 8642,1511 8851,1492 9061,1454 9271,1416 9481,1397 9691,1368 9901,1349 10111,1320 10321,1301 10531,1282 10741,1272 10951,1244 11162,1234 11372,1206 11582,1187 11792,1187 12002,1177 12212,1177 12422,1187 12632,1158 12842,1148 13052,1120 13262,1120 13472,1129 13682,1101 13892,1101 14102,1072 14312,1072 14522,1082 14732,1063 14942,1053 15152,1043 15362,1034 15572,1024 15782,1024 15993,1024 15993,1263 15782,1282 15572,1301 15362,1301 15152,1301 14942,1330 14732,1339 14522,1358 14312,1349 14102,1358 13892,1387 13682,1416 13472,1463 13262,1463 13052,1444 12842,1473 12632,1492 12422,1530 12212,1511 12002,1521 11792,1511 11582,1511 11372,1521 11162,1549 10951,1568 10741,1578 10531,1578 10321,1597 10111,1626 9901,1664 9691,1673 9481,1683 9271,1711 9061,1740 8851,1778 8642,1797 8432,1835 8222,1883 8012,1921 7802,2017 7592,2093 7382,2198 7172,2189 6962,2313 6752,2465 6542,2580 6332,2637 6121,2685 5911,2818 5701,3028 5491,3143 5281,3267 5071,3381 4861,3591 4651,3696 4441,3897 4231,4106 4021,4307 3811,4526 3601,4736 3391,4927 3181,5147 2971,5356 2761,5614 2551,5891 2341,6119 2131,6300 1921,6586 1711,6739 1501,6911 1291,6939 1291,5605 Z"/>
 <path fill="none" stroke="rgb(0,0,0)" stroke-width="20" stroke-linejoin="round" d="M 1291,5605 L 1501,5652 1711,5519 1921,5461 2131,5271 2341,5175 2551,4965 2761,4755 2971,4555 3181,4383 3391,4192 3601,4021 3811,3887 4021,3753 4231,3553 4441,3353 4651,3152 4861,3057 5071,2866 5281,2771 5491,2694 5701,2608 5911,2446 6121,2313 6332,2255 6542,2198 6752,2103 6962,1969 7172,1845 7382,1855 7592,1788 7802,1730 8012,1645 8222,1587 8432,1530 8642,1511 8851,1492 9061,1454 9271,1416 9481,1397 9691,1368 9901,1349 10111,1320 10321,1301 10531,1282 10741,1272 10951,1244 11162,1234 11372,1206 11582,1187 11792,1187 12002,1177 12212,1177 12422,1187 12632,1158 12842,1148 13052,1120 13262,1120 13472,1129 13682,1101 13892,1101 14102,1072 14312,1072 14522,1082 14732,1063 14942,1053 15152,1043 15362,1034 15572,1024 15782,1024 15993,1024 15993,1263 15782,1282 15572,1301 15362,1301 15152,1301 14942,1330 14732,1339 14522,1358 14312,1349 14102,1358 13892,1387 13682,1416 13472,1463 13262,1463 13052,1444 12842,1473 12632,1492 12422,1530 12212,1511 12002,1521 11792,1511 11582,1511 11372,1521 11162,1549 10951,1568 10741,1578 10531,1578 10321,1597 10111,1626 9901,1664 9691,1673 9481,1683 9271,1711 9061,1740 8851,1778 8642,1797 8432,1835 8222,1883 8012,1921 7802,2017 7592,2093 7382,2198 7172,2189 6962,2313 6752,2465 6542,2580 6332,2637 6121,2685 5911,2818 5701,3028 5491,3143 5281,3267 5071,3381 4861,3591 4651,3696 4441,3897 4231,4106 4021,4307 3811,4526 3601,4736 3391,4927 3181,5147 2971,5356 2761,5614 2551,5891 2341,6119 2131,6300 1921,6586 1711,6739 1501,6911 1291,6939 1291,5605 Z"/>
 <path fill="rgb(0,0,0)" stroke="none" d="M 1291,1683 L 1501,1673 1711,1692 1921,1711 2131,1683 2341,1616 2551,1549 2761,1559 2971,1540 3181,1482 3391,1435 3601,1435 3811,1435 4021,1397 4231,1311 4441,1282 4651,1272 4861,1253 5071,1225 5281,1187 5491,1168 5701,1158 5911,1168 6121,1139 6332,1148 6542,1110 6752,1082 6962,1063 7172,1053 7382,1053 7592,1043 7802,1034 8012,1034 8222,1024 8432,1015 8642,1015 8851,1005 9061,996 9271,996 9481,986 9691,986 9901,986 10111,977 10321,967 10531,958 10741,977 10951,967 11162,977 11372,967 11582,967 11792,958 12002,958 12212,958 12422,967 12632,958 12842,958 13052,948 13262,948 13472,958 13682,948 13892,958 14102,948 14312,958 14522,958 14732,948 14942,939 15152,948 15362,939 15572,939 15782,948 15993,948 15993,1024 15782,1024 15572,1024 15362,1034 15152,1043 14942,1053 14732,1063 14522,1082 14312,1072 14102,1072 13892,1101 13682,1101 13472,1129 13262,1120 13052,1120 12842,1148 12632,1158 12422,1187 12212,1177 12002,1177 11792,1187 11582,1187 11372,1206 11162,1234 10951,1244 10741,1272 10531,1282 10321,1301 10111,1320 9901,1349 9691,1368 9481,1397 9271,1416 9061,1454 8851,1492 8642,1511 8432,1530 8222,1587 8012,1645 7802,1730 7592,1788 7382,1855 7172,1845 6962,1969 6752,2103 6542,2198 6332,2255 6121,2313 5911,2446 5701,2608 5491,2694 5281,2771 5071,2866 4861,3057 4651,3152 4441,3353 4231,3553 4021,3753 3811,3887 3601,4021 3391,4192 3181,4383 2971,4555 2761,4755 2551,4965 2341,5175 2131,5271 1921,5461 1711,5519 1501,5652 1291,5605 1291,1683 Z"/>
 <path fill="none" stroke="rgb(0,0,0)" stroke-width="20" stroke-linejoin="round" d="M 1291,1683 L 1501,1673 1711,1692 1921,1711 2131,1683 2341,1616 2551,1549 2761,1559 2971,1540 3181,1482 3391,1435 3601,1435 3811,1435 4021,1397 4231,1311 4441,1282 4651,1272 4861,1253 5071,1225 5281,1187 5491,1168 5701,1158 5911,1168 6121,1139 6332,1148 6542,1110 6752,1082 6962,1063 7172,1053 7382,1053 7592,1043 7802,1034 8012,1034 8222,1024 8432,1015 8642,1015 8851,1005 9061,996 9271,996 9481,986 9691,986 9901,986 10111,977 10321,967 10531,958 10741,977 10951,967 11162,977 11372,967 11582,967 11792,958 12002,958 12212,958 12422,967 12632,958 12842,958 13052,948 13262,948 13472,958 13682,948 13892,958 14102,948 14312,958 14522,958 14732,948 14942,939 15152,948 15362,939 15572,939 15782,948 15993,948 15993,1024 15782,1024 15572,1024 15362,1034 15152,1043 14942,1053 14732,1063 14522,1082 14312,1072 14102,1072 13892,1101 13682,1101 13472,1129 13262,1120 13052,1120 12842,1148 12632,1158 12422,1187 12212,1177 12002,1177 11792,1187 11582,1187 11372,1206 11162,1234 10951,1244 10741,1272 10531,1282 10321,1301 10111,1320 9901,1349 9691,1368 9481,1397 9271,1416 9061,1454 8851,1492 8642,1511 8432,1530 8222,1587 8012,1645 7802,1730 7592,1788 7382,1855 7172,1845 6962,1969 6752,2103 6542,2198 6332,2255 6121,2313 5911,2446 5701,2608 5491,2694 5281,2771 5071,2866 4861,3057 4651,3152 4441,3353 4231,3553 4021,3753 3811,3887 3601,4021 3391,4192 3181,4383 2971,4555 2761,4755 2551,4965 2341,5175 2131,5271 1921,5461 1711,5519 1501,5652 1291,5605 1291,1683 Z"/>
 <path fill="rgb(255,149,14)" stroke="none" d="M 1291,1683 L 1501,1673 1711,1692 1921,1711 2131,1683 2341,1616 2551,1549 2761,1559 2971,1540 3181,1482 3391,1435 3601,1215 3811,1215 4021,1196 4231,1120 4441,1101 4651,1101 4861,1082 5071,1072 5281,1043 5491,1034 5701,1015 5911,1024 6121,1005 6332,1024 6542,1005 6752,996 6962,986 7172,986 7382,996 7592,986 7802,986 8012,977 8222,977 8432,967 8642,967 8851,958 9061,958 9271,967 9481,958 9691,958 9901,958 10111,958 10321,948 10531,939 10741,958 10951,948 11162,958 11372,948 11582,958 11792,948 12002,948 12212,948 12422,948 12632,948 12842,948 13052,939 13262,939 13472,948 13682,939 13892,948 14102,939 14312,948 14522,948 14732,939 15047,939 15152,948 15362,939 15572,939 15782,948 15993,948 15782,948 15572,939 15362,939 15152,948 14942,939 14732,948 14522,958 14312,958 14102,948 13892,958 13682,948 13472,958 13262,948 13052,948 12842,958 12632,958 12422,967 12212,958 12002,958 11792,958 11582,967 11372,967 11162,977 10951,967 10741,977 10531,958 10321,967 10111,977 9901,986 9691,986 9481,986 9271,996 9061,996 8851,1005 8642,1015 8432,1015 8222,1024 8012,1034 7802,1034 7592,1043 7382,1053 7172,1053 6962,1063 6752,1082 6542,1110 6332,1148 6121,1139 5911,1168 5701,1158 5491,1168 5281,1187 5071,1225 4861,1253 4651,1272 4441,1282 4231,1311 4021,1397 3811,1435 3601,1435 3391,1435 3181,1482 2971,1540 2761,1559 2551,1549 2341,1616 2131,1683 1921,1711 1711,1692 1501,1673 1291,1683 Z"/>
 <path fill="none" stroke="rgb(0,0,0)" stroke-width="20" stroke-linejoin="round" d="M 1291,1683 L 1501,1673 1711,1692 1921,1711 2131,1683 2341,1616 2551,1549 2761,1559 2971,1540 3181,1482 3391,1435 3601,1215 3811,1215 4021,1196 4231,1120 4441,1101 4651,1101 4861,1082 5071,1072 5281,1043 5491,1034 5701,1015 5911,1024 6121,1005 6332,1024 6542,1005 6752,996 6962,986 7172,986 7382,996 7592,986 7802,986 8012,977 8222,977 8432,967 8642,967 8851,958 9061,958 9271,967 9481,958 9691,958 9901,958 10111,958 10321,948 10531,939 10741,958 10951,948 11162,958 11372,948 11582,958 11792,948 12002,948 12212,948 12422,948 12632,948 12842,948 13052,939 13262,939 13472,948 13682,939 13892,948 14102,939 14312,948 14522,948 14732,939 15047,939 15152,948 15362,939 15572,939 15782,948 15993,948 15782,948 15572,939 15362,939 15152,948 14942,939 14732,948 14522,958 14312,958 14102,948 13892,958 13682,948 13472,958 13262,948 13052,948 12842,958 12632,958 12422,967 12212,958 12002,958 11792,958 11582,967 11372,967 11162,977 10951,967 10741,977 10531,958 10321,967 10111,977 9901,986 9691,986 9481,986 9271,996 9061,996 8851,1005 8642,1015 8432,1015 8222,1024 8012,1034 7802,1034 7592,1043 7382,1053 7172,1053 6962,1063 6752,1082 6542,1110 6332,1148 6121,1139 5911,1168 5701,1158 5491,1168 5281,1187 5071,1225 4861,1253 4651,1272 4441,1282 4231,1311 4021,1397 3811,1435 3601,1435 3391,1435 3181,1482 2971,1540 2761,1559 2551,1549 2341,1616 2131,1683 1921,1711 1711,1692 1501,1673 1291,1683 Z"/>
 <path fill="rgb(131,202,255)" stroke="none" d="M 1291,1215 L 1501,1215 1711,1244 1921,1244 2131,1244 2341,1215 2551,1177 2761,1187 2971,1187 3181,1177 3391,1168 3601,1215 3811,1215 4021,1196 4231,1120 4441,1101 4651,1101 4861,1082 5071,1072 5281,1043 5491,1034 5701,1015 5911,1024 6121,1005 6332,1024 6542,1005 6752,996 6962,986 7172,986 7382,996 7592,986 7802,986 8012,977 8222,977 8432,967 8642,967 8851,958 9061,958 9271,967 9481,958 9691,958 9901,958 10111,958 10321,948 10531,939 10741,958 10951,948 11162,958 11372,948 11582,958 11792,948 12002,948 12212,948 12422,948 12632,948 12842,948 13052,939 13262,939 13472,948 13682,939 13892,948 14102,939 14312,948 14522,948 14732,939 15047,939 15152,948 15362,939 15572,939 15782,948 15993,948 15782,948 15572,939 15362,939 15152,948 15047,939 14732,939 14522,948 14312,948 14102,939 13892,948 13682,939 13472,948 13262,939 13052,939 12842,948 12632,948 12422,948 12212,948 12002,948 11792,948 11582,958 11372,948 11162,958 10951,948 10741,958 10531,939 10321,948 10111,958 9901,958 9691,958 9481,958 9271,967 9061,958 8851,958 8642,967 8432,967 8222,977 8012,977 7802,986 7592,986 7382,996 7172,986 6962,986 6752,996 6542,1005 6332,1024 6121,1005 5911,1024 5701,1015 5491,1034 5281,1043 5071,1072 4861,1082 4651,1101 4441,1101 4231,1120 4021,1196 3811,1215 3601,1215 3391,1435 3181,1482 2971,1540 2761,1559 2551,1549 2341,1616 2131,1683 1921,1711 1711,1692 1501,1673 1291,1683 1291,1215 Z"/>
 <path fill="none" stroke="rgb(0,0,0)" stroke-width="20" stroke-linejoin="round" d="M 1291,1215 L 1501,1215 1711,1244 1921,1244 2131,1244 2341,1215 2551,1177 2761,1187 2971,1187 3181,1177 3391,1168 3601,1215 3811,1215 4021,1196 4231,1120 4441,1101 4651,1101 4861,1082 5071,1072 5281,1043 5491,1034 5701,1015 5911,1024 6121,1005 6332,1024 6542,1005 6752,996 6962,986 7172,986 7382,996 7592,986 7802,986 8012,977 8222,977 8432,967 8642,967 8851,958 9061,958 9271,967 9481,958 9691,958 9901,958 10111,958 10321,948 10531,939 10741,958 10951,948 11162,958 11372,948 11582,958 11792,948 12002,948 12212,948 12422,948 12632,948 12842,948 13052,939 13262,939 13472,948 13682,939 13892,948 14102,939 14312,948 14522,948 14732,939 15047,939 15152,948 15362,939 15572,939 15782,948 15993,948 15782,948 15572,939 15362,939 15152,948 15047,939 14732,939 14522,948 14312,948 14102,939 13892,948 13682,939 13472,948 13262,939 13052,939 12842,948 12632,948 12422,948 12212,948 12002,948 11792,948 11582,958 11372,948 11162,958 10951,948 10741,958 10531,939 10321,948 10111,958 9901,958 9691,958 9481,958 9271,967 9061,958 8851,958 8642,967 8432,967 8222,977 8012,977 7802,986 7592,986 7382,996 7172,986 6962,986 6752,996 6542,1005 6332,1024 6121,1005 5911,1024 5701,1015 5491,1034 5281,1043 5071,1072 4861,1082 4651,1101 4441,1101 4231,1120 4021,1196 3811,1215 3601,1215 3391,1435 3181,1482 2971,1540 2761,1559 2551,1549 2341,1616 2131,1683 1921,1711 1711,1692 1501,1673 1291,1683 1291,1215 Z"/>
 <text class="TextShape"><tspan class="TextParagraph" font-family="Liberation Sans" font-size="388px" font-weight="400"><tspan class="TextPosition" x="2757" y="11100"><tspan fill="rgb(0,0,0)" stroke="none">2011</tspan></tspan></tspan></text>
 <text class="TextShape"><tspan class="TextParagraph" font-family="Liberation Sans" font-size="388px" font-weight="400"><tspan class="TextPosition" x="5277" y="11100"><tspan fill="rgb(0,0,0)" stroke="none">2012</tspan></tspan></tspan></text>
 <text class="TextShape"><tspan class="TextParagraph" font-family="Liberation Sans" font-size="388px" font-weight="400"><tspan class="TextPosition" x="7798" y="11100"><tspan fill="rgb(0,0,0)" stroke="none">2013</tspan></tspan></tspan></text>
 <text class="TextShape"><tspan class="TextParagraph" font-family="Liberation Sans" font-size="388px" font-weight="400"><tspan class="TextPosition" x="10318" y="11100"><tspan fill="rgb(0,0,0)" stroke="none">2014</tspan></tspan></tspan></text>
 <text class="TextShape"><tspan class="TextParagraph" font-family="Liberation Sans" font-size="388px" font-weight="400"><tspan class="TextPosition" x="12839" y="11100"><tspan fill="rgb(0,0,0)" stroke="none">2015</tspan></tspan></tspan></text>
 <text class="TextShape"><tspan class="TextParagraph" font-family="Liberation Sans" font-size="388px" font-weight="400"><tspan class="TextPosition" x="15359" y="11100"><tspan fill="rgb(0,0,0)" stroke="none">2016</tspan></tspan></tspan></text>
 <text class="TextShape"><tspan class="TextParagraph" font-family="Arial" font-size="388px" font-weight="400"><tspan class="TextPosition" x="485" y="10626"><tspan fill="rgb(0,0,0)" stroke="none">0%</tspan></tspan></tspan></text>
 <text class="TextShape"><tspan class="TextParagraph" font-family="Arial" font-size="388px" font-weight="400"><tspan class="TextPosition" x="274" y="9671"><tspan fill="rgb(0,0,0)" stroke="none">10%</tspan></tspan></tspan></text>
 <text class="TextShape"><tspan class="TextParagraph" font-family="Arial" font-size="388px" font-weight="400"><tspan class="TextPosition" x="274" y="8717"><tspan fill="rgb(0,0,0)" stroke="none">20%</tspan></tspan></tspan></text>
 <text class="TextShape"><tspan class="TextParagraph" font-family="Arial" font-size="388px" font-weight="400"><tspan class="TextPosition" x="274" y="7763"><tspan fill="rgb(0,0,0)" stroke="none">30%</tspan></tspan></tspan></text>
 <text class="TextShape"><tspan class="TextParagraph" font-family="Arial" font-size="388px" font-weight="400"><tspan class="TextPosition" x="274" y="6809"><tspan fill="rgb(0,0,0)" stroke="none">40%</tspan></tspan></tspan></text>
 <text class="TextShape"><tspan class="TextParagraph" font-family="Arial" font-size="388px" font-weight="400"><tspan class="TextPosition" x="274" y="5855"><tspan fill="rgb(0,0,0)" stroke="none">50%</tspan></tspan></tspan></text>
 <text class="TextShape"><tspan class="TextParagraph" font-family="Arial" font-size="388px" font-weight="400"><tspan class="TextPosition" x="274" y="4900"><tspan fill="rgb(0,0,0)" stroke="none">60%</tspan></tspan></tspan></text>
 <text class="TextShape"><tspan class="TextParagraph" font-family="Arial" font-size="388px" font-weight="400"><tspan class="TextPosition" x="274" y="3946"><tspan fill="rgb(0,0,0)" stroke="none">70%</tspan></tspan></tspan></text>
 <text class="TextShape"><tspan class="TextParagraph" font-family="Arial" font-size="388px" font-weight="400"><tspan class="TextPosition" x="274" y="2992"><tspan fill="rgb(0,0,0)" stroke="none">80%</tspan></tspan></tspan></text>
 <text class="TextShape"><tspan class="TextParagraph" font-family="Arial" font-size="388px" font-weight="400"><tspan class="TextPosition" x="274" y="2038"><tspan fill="rgb(0,0,0)" stroke="none">90%</tspan></tspan></tspan></text>
 <text class="TextShape"><tspan class="TextParagraph" font-family="Arial" font-size="388px" font-weight="400"><tspan class="TextPosition" x="62" y="1084"><tspan fill="rgb(0,0,0)" stroke="none">100%</tspan></tspan></tspan></text>
 <text class="TextShape"><tspan class="TextParagraph" font-family="Arial" font-size="388px" font-weight="400"><tspan class="TextPosition" x="16243" y="10626"><tspan fill="rgb(0,0,0)" stroke="none">0%</tspan></tspan></tspan></text>
 <text class="TextShape"><tspan class="TextParagraph" font-family="Arial" font-size="388px" font-weight="400"><tspan class="TextPosition" x="16243" y="9671"><tspan fill="rgb(0,0,0)" stroke="none">10%</tspan></tspan></tspan></text>
 <text class="TextShape"><tspan class="TextParagraph" font-family="Arial" font-size="388px" font-weight="400"><tspan class="TextPosition" x="16243" y="8717"><tspan fill="rgb(0,0,0)" stroke="none">20%</tspan></tspan></tspan></text>
 <text class="TextShape"><tspan class="TextParagraph" font-family="Arial" font-size="388px" font-weight="400"><tspan class="TextPosition" x="16243" y="7763"><tspan fill="rgb(0,0,0)" stroke="none">30%</tspan></tspan></tspan></text>
 <text class="TextShape"><tspan class="TextParagraph" font-family="Arial" font-size="388px" font-weight="400"><tspan class="TextPosition" x="16243" y="6809"><tspan fill="rgb(0,0,0)" stroke="none">40%</tspan></tspan></tspan></text>
 <text class="TextShape"><tspan class="TextParagraph" font-family="Arial" font-size="388px" font-weight="400"><tspan class="TextPosition" x="16243" y="5855"><tspan fill="rgb(0,0,0)" stroke="none">50%</tspan></tspan></tspan></text>
 <text class="TextShape"><tspan class="TextParagraph" font-family="Arial" font-size="388px" font-weight="400"><tspan class="TextPosition" x="16243" y="4900"><tspan fill="rgb(0,0,0)" stroke="none">60%</tspan></tspan></tspan></text>
 <text class="TextShape"><tspan class="TextParagraph" font-family="Arial" font-size="388px" font-weight="400"><tspan class="TextPosition" x="16243" y="3946"><tspan fill="rgb(0,0,0)" stroke="none">70%</tspan></tspan></tspan></text>
 <text class="TextShape"><tspan class="TextParagraph" font-family="Arial" font-size="388px" font-weight="400"><tspan class="TextPosition" x="16243" y="2992"><tspan fill="rgb(0,0,0)" stroke="none">80%</tspan></tspan></tspan></text>
 <text class="TextShape"><tspan class="TextParagraph" font-family="Arial" font-size="388px" font-weight="400"><tspan class="TextPosition" x="16243" y="2038"><tspan fill="rgb(0,0,0)" stroke="none">90%</tspan></tspan></tspan></text>
 <text class="TextShape"><tspan class="TextParagraph" font-family="Arial" font-size="388px" font-weight="400"><tspan class="TextPosition" x="16243" y="1084"><tspan fill="rgb(0,0,0)" stroke="none">100%</tspan></tspan></tspan></text>
 <text class="TextShape"><tspan class="TextParagraph" font-family="Liberation Sans" font-size="529px" font-weight="700"><tspan class="TextPosition" x="2279" y="680"><tspan fill="rgb(0,0,0)" stroke="none">Sistemas operativos de los smartphones en EEUU</tspan></tspan></tspan></text>
 <path fill="rgb(174,207,0)" stroke="none" d="M 3021,11599 L 2905,11599 2905,11367 3137,11367 3137,11599 3021,11599 Z"/>
 <path fill="none" stroke="rgb(0,0,0)" stroke-linejoin="round" d="M 3021,11599 L 2905,11599 2905,11367 3137,11367 3137,11599 3021,11599 Z"/>
 <path fill="rgb(204,204,204)" stroke="none" d="M 5013,11599 L 4897,11599 4897,11367 5129,11367 5129,11599 5013,11599 Z"/>
 <path fill="none" stroke="rgb(0,0,0)" stroke-linejoin="round" d="M 5013,11599 L 4897,11599 4897,11367 5129,11367 5129,11599 5013,11599 Z"/>
 <path fill="rgb(0,71,255)" stroke="none" d="M 6264,11599 L 6148,11599 6148,11367 6380,11367 6380,11599 6264,11599 Z"/>
 <path fill="none" stroke="rgb(0,0,0)" stroke-linejoin="round" d="M 6264,11599 L 6148,11599 6148,11367 6380,11367 6380,11599 6264,11599 Z"/>
 <path fill="rgb(0,0,0)" stroke="none" d="M 8521,11599 L 8405,11599 8405,11367 8637,11367 8637,11599 8521,11599 Z"/>
 <path fill="none" stroke="rgb(0,0,0)" stroke-linejoin="round" d="M 8521,11599 L 8405,11599 8405,11367 8637,11367 8637,11599 8521,11599 Z"/>
 <path fill="rgb(255,149,14)" stroke="none" d="M 11094,11599 L 10978,11599 10978,11367 11210,11367 11210,11599 11094,11599 Z"/>
 <path fill="none" stroke="rgb(0,0,0)" stroke-linejoin="round" d="M 11094,11599 L 10978,11599 10978,11367 11210,11367 11210,11599 11094,11599 Z"/>
 <path fill="rgb(131,202,255)" stroke="none" d="M 13298,11599 L 13182,11599 13182,11367 13414,11367 13414,11599 13298,11599 Z"/>
 <path fill="none" stroke="rgb(0,0,0)" stroke-linejoin="round" d="M 13298,11599 L 13182,11599 13182,11367 13414,11367 13414,11599 13298,11599 Z"/>
 <text class="TextShape"><tspan class="TextParagraph" font-family="Arial" font-size="388px" font-weight="400"><tspan class="TextPosition" x="3237" y="11628"><tspan fill="rgb(0,0,0)" stroke="none">Android </tspan></tspan></tspan></text>
 <text class="TextShape"><tspan class="TextParagraph" font-family="Arial" font-size="388px" font-weight="400"><tspan class="TextPosition" x="5229" y="11628"><tspan fill="rgb(0,0,0)" stroke="none">iOS</tspan></tspan></tspan></text>
 <text class="TextShape"><tspan class="TextParagraph" font-family="Arial" font-size="388px" font-weight="400"><tspan class="TextPosition" x="6480" y="11628"><tspan fill="rgb(0,0,0)" stroke="none">Microsoft </tspan></tspan></tspan></text>
 <text class="TextShape"><tspan class="TextParagraph" font-family="Arial" font-size="388px" font-weight="400"><tspan class="TextPosition" x="8736" y="11628"><tspan fill="rgb(0,0,0)" stroke="none">BlackBerry </tspan></tspan></tspan></text>
 <text class="TextShape"><tspan class="TextParagraph" font-family="Arial" font-size="388px" font-weight="400"><tspan class="TextPosition" x="11310" y="11628"><tspan fill="rgb(0,0,0)" stroke="none">Symbian </tspan></tspan></tspan></text>
 <text class="TextShape"><tspan class="TextParagraph" font-family="Arial" font-size="388px" font-weight="400"><tspan class="TextPosition" x="13514" y="11628"><tspan fill="rgb(0,0,0)" stroke="none">Palm</tspan></tspan></tspan></text>
</svg>
