<?xml version="1.0" encoding="UTF-8"?>
<!DOCTYPE svg PUBLIC "-//W3C//DTD SVG 1.1//EN" "http://www.w3.org/Graphics/SVG/1.1/DTD/svg11.dtd">
<svg width="160mm" height="120mm" viewBox="0 0 16000 12000" version="1.1" xmlns="http://www.w3.org/2000/svg" stroke-width="28.222" stroke-linejoin="round" xml:space="preserve">
 <path fill="rgb(255,255,255)" stroke="none" d="M 8000,12000 L 0,12000 0,0 16000,0 16000,12000 8000,12000 Z"/>
 <path fill="none" stroke="rgb(0,0,0)" stroke-linejoin="round" d="M 8053,10605 L 1040,10605 1040,949 15066,949 15066,10605 8053,10605 Z"/>
 <path fill="none" stroke="rgb(0,0,0)" stroke-linejoin="round" d="M 15066,10604 L 1040,10604"/>
 <path fill="none" stroke="rgb(0,0,0)" stroke-linejoin="round" d="M 15066,9396 L 1040,9396"/>
 <path fill="none" stroke="rgb(0,0,0)" stroke-linejoin="round" d="M 15066,8189 L 1040,8189"/>
 <path fill="none" stroke="rgb(0,0,0)" stroke-linejoin="round" d="M 15066,6982 L 1040,6982"/>
 <path fill="none" stroke="rgb(0,0,0)" stroke-linejoin="round" d="M 15066,5776 L 1040,5776"/>
 <path fill="none" stroke="rgb(0,0,0)" stroke-linejoin="round" d="M 15066,4569 L 1040,4569"/>
 <path fill="none" stroke="rgb(0,0,0)" stroke-linejoin="round" d="M 15066,3362 L 1040,3362"/>
 <path fill="none" stroke="rgb(0,0,0)" stroke-linejoin="round" d="M 15066,2155 L 1040,2155"/>
 <path fill="none" stroke="rgb(0,0,0)" stroke-linejoin="round" d="M 15066,948 L 1040,948"/>
 <path fill="none" stroke="rgb(0,0,0)" stroke-linejoin="round" d="M 1040,10754 L 1040,10604"/>
 <path fill="none" stroke="rgb(0,0,0)" stroke-linejoin="round" d="M 1040,10754 L 1040,10604"/>
 <path fill="none" stroke="rgb(0,0,0)" stroke-linejoin="round" d="M 2598,10754 L 2598,10604"/>
 <path fill="none" stroke="rgb(0,0,0)" stroke-linejoin="round" d="M 2598,10754 L 2598,10604"/>
 <path fill="none" stroke="rgb(0,0,0)" stroke-linejoin="round" d="M 4157,10754 L 4157,10604"/>
 <path fill="none" stroke="rgb(0,0,0)" stroke-linejoin="round" d="M 4157,10754 L 4157,10604"/>
 <path fill="none" stroke="rgb(0,0,0)" stroke-linejoin="round" d="M 5715,10754 L 5715,10604"/>
 <path fill="none" stroke="rgb(0,0,0)" stroke-linejoin="round" d="M 5715,10754 L 5715,10604"/>
 <path fill="none" stroke="rgb(0,0,0)" stroke-linejoin="round" d="M 7274,10754 L 7274,10604"/>
 <path fill="none" stroke="rgb(0,0,0)" stroke-linejoin="round" d="M 7274,10754 L 7274,10604"/>
 <path fill="none" stroke="rgb(0,0,0)" stroke-linejoin="round" d="M 8831,10754 L 8831,10604"/>
 <path fill="none" stroke="rgb(0,0,0)" stroke-linejoin="round" d="M 8831,10754 L 8831,10604"/>
 <path fill="none" stroke="rgb(0,0,0)" stroke-linejoin="round" d="M 10390,10754 L 10390,10604"/>
 <path fill="none" stroke="rgb(0,0,0)" stroke-linejoin="round" d="M 10390,10754 L 10390,10604"/>
 <path fill="none" stroke="rgb(0,0,0)" stroke-linejoin="round" d="M 11948,10754 L 11948,10604"/>
 <path fill="none" stroke="rgb(0,0,0)" stroke-linejoin="round" d="M 11948,10754 L 11948,10604"/>
 <path fill="none" stroke="rgb(0,0,0)" stroke-linejoin="round" d="M 13507,10754 L 13507,10604"/>
 <path fill="none" stroke="rgb(0,0,0)" stroke-linejoin="round" d="M 13507,10754 L 13507,10604"/>
 <path fill="none" stroke="rgb(0,0,0)" stroke-linejoin="round" d="M 15066,10754 L 15066,10604"/>
 <path fill="none" stroke="rgb(0,0,0)" stroke-linejoin="round" d="M 15066,10754 L 15066,10604"/>
 <path fill="none" stroke="rgb(0,0,0)" stroke-linejoin="round" d="M 1040,10604 L 15066,10604"/>
 <path fill="none" stroke="rgb(0,0,0)" stroke-linejoin="round" d="M 890,10604 L 1040,10604"/>
 <path fill="none" stroke="rgb(0,0,0)" stroke-linejoin="round" d="M 890,10604 L 1040,10604"/>
 <path fill="none" stroke="rgb(0,0,0)" stroke-linejoin="round" d="M 890,9396 L 1040,9396"/>
 <path fill="none" stroke="rgb(0,0,0)" stroke-linejoin="round" d="M 890,9396 L 1040,9396"/>
 <path fill="none" stroke="rgb(0,0,0)" stroke-linejoin="round" d="M 890,8189 L 1040,8189"/>
 <path fill="none" stroke="rgb(0,0,0)" stroke-linejoin="round" d="M 890,8189 L 1040,8189"/>
 <path fill="none" stroke="rgb(0,0,0)" stroke-linejoin="round" d="M 890,6982 L 1040,6982"/>
 <path fill="none" stroke="rgb(0,0,0)" stroke-linejoin="round" d="M 890,6982 L 1040,6982"/>
 <path fill="none" stroke="rgb(0,0,0)" stroke-linejoin="round" d="M 890,5776 L 1040,5776"/>
 <path fill="none" stroke="rgb(0,0,0)" stroke-linejoin="round" d="M 890,5776 L 1040,5776"/>
 <path fill="none" stroke="rgb(0,0,0)" stroke-linejoin="round" d="M 890,4569 L 1040,4569"/>
 <path fill="none" stroke="rgb(0,0,0)" stroke-linejoin="round" d="M 890,4569 L 1040,4569"/>
 <path fill="none" stroke="rgb(0,0,0)" stroke-linejoin="round" d="M 890,3362 L 1040,3362"/>
 <path fill="none" stroke="rgb(0,0,0)" stroke-linejoin="round" d="M 890,3362 L 1040,3362"/>
 <path fill="none" stroke="rgb(0,0,0)" stroke-linejoin="round" d="M 890,2155 L 1040,2155"/>
 <path fill="none" stroke="rgb(0,0,0)" stroke-linejoin="round" d="M 890,2155 L 1040,2155"/>
 <path fill="none" stroke="rgb(0,0,0)" stroke-linejoin="round" d="M 890,948 L 1040,948"/>
 <path fill="none" stroke="rgb(0,0,0)" stroke-linejoin="round" d="M 890,948 L 1040,948"/>
 <path fill="none" stroke="rgb(0,0,0)" stroke-linejoin="round" d="M 1040,10604 L 1040,948"/>
 <path fill="none" stroke="rgb(0,0,0)" stroke-linejoin="round" d="M 15216,10604 L 15066,10604"/>
 <path fill="none" stroke="rgb(0,0,0)" stroke-linejoin="round" d="M 15216,10604 L 15066,10604"/>
 <path fill="none" stroke="rgb(0,0,0)" stroke-linejoin="round" d="M 15216,9396 L 15066,9396"/>
 <path fill="none" stroke="rgb(0,0,0)" stroke-linejoin="round" d="M 15216,9396 L 15066,9396"/>
 <path fill="none" stroke="rgb(0,0,0)" stroke-linejoin="round" d="M 15216,8189 L 15066,8189"/>
 <path fill="none" stroke="rgb(0,0,0)" stroke-linejoin="round" d="M 15216,8189 L 15066,8189"/>
 <path fill="none" stroke="rgb(0,0,0)" stroke-linejoin="round" d="M 15216,6982 L 15066,6982"/>
 <path fill="none" stroke="rgb(0,0,0)" stroke-linejoin="round" d="M 15216,6982 L 15066,6982"/>
 <path fill="none" stroke="rgb(0,0,0)" stroke-linejoin="round" d="M 15216,5776 L 15066,5776"/>
 <path fill="none" stroke="rgb(0,0,0)" stroke-linejoin="round" d="M 15216,5776 L 15066,5776"/>
 <path fill="none" stroke="rgb(0,0,0)" stroke-linejoin="round" d="M 15216,4569 L 15066,4569"/>
 <path fill="none" stroke="rgb(0,0,0)" stroke-linejoin="round" d="M 15216,4569 L 15066,4569"/>
 <path fill="none" stroke="rgb(0,0,0)" stroke-linejoin="round" d="M 15216,3362 L 15066,3362"/>
 <path fill="none" stroke="rgb(0,0,0)" stroke-linejoin="round" d="M 15216,3362 L 15066,3362"/>
 <path fill="none" stroke="rgb(0,0,0)" stroke-linejoin="round" d="M 15216,2155 L 15066,2155"/>
 <path fill="none" stroke="rgb(0,0,0)" stroke-linejoin="round" d="M 15216,2155 L 15066,2155"/>
 <path fill="none" stroke="rgb(0,0,0)" stroke-linejoin="round" d="M 15216,948 L 15066,948"/>
 <path fill="none" stroke="rgb(0,0,0)" stroke-linejoin="round" d="M 15216,948 L 15066,948"/>
 <path fill="none" stroke="rgb(0,0,0)" stroke-linejoin="round" d="M 15066,10604 L 15066,948"/>
 <path fill="rgb(174,207,0)" stroke="none" d="M 1040,10604 L 2598,10604 4157,10569 5715,10108 7274,9143 8831,7596 10390,5649 11948,4464 13507,3391 15066,2694 15066,10604 1040,10604 Z"/>
 <path fill="none" stroke="rgb(0,0,0)" stroke-width="20" stroke-linejoin="round" d="M 1040,10604 L 2598,10604 4157,10569 5715,10108 7274,9143 8831,7596 10390,5649 11948,4464 13507,3391 15066,2694 15066,10604 1040,10604 Z"/>
 <path fill="rgb(204,204,204)" stroke="none" d="M 1040,10577 L 2598,10490 4157,10399 5715,9782 7274,8726 8831,7002 10390,4917 11948,3542 13507,2279 15066,1655 15066,2694 13507,3391 11948,4464 10390,5649 8831,7596 7274,9143 5715,10108 4157,10569 2598,10604 1040,10604 1040,10577 Z"/>
 <path fill="none" stroke="rgb(0,0,0)" stroke-width="20" stroke-linejoin="round" d="M 1040,10577 L 2598,10490 4157,10399 5715,9782 7274,8726 8831,7002 10390,4917 11948,3542 13507,2279 15066,1655 15066,2694 13507,3391 11948,4464 10390,5649 8831,7596 7274,9143 5715,10108 4157,10569 2598,10604 1040,10604 1040,10577 Z"/>
 <path fill="rgb(0,71,255)" stroke="none" d="M 1040,10567 L 2598,10392 4157,10320 5715,9729 7274,8684 8831,6906 10390,4702 11948,3324 13507,2137 15066,1620 15066,1655 13507,2279 11948,3542 10390,4917 8831,7002 7274,8726 5715,9782 4157,10399 2598,10490 1040,10577 1040,10567 Z"/>
 <path fill="none" stroke="rgb(0,0,0)" stroke-width="20" stroke-linejoin="round" d="M 1040,10567 L 2598,10392 4157,10320 5715,9729 7274,8684 8831,6906 10390,4702 11948,3324 13507,2137 15066,1620 15066,1655 13507,2279 11948,3542 10390,4917 8831,7002 7274,8726 5715,9782 4157,10399 2598,10490 1040,10577 1040,10567 Z"/>
 <path fill="rgb(0,0,0)" stroke="none" d="M 1040,10490 L 2598,10252 4157,10115 5715,9427 7274,8378 8831,6690 10390,4596 11948,3265 13507,2113 15066,1611 15066,1620 13507,2137 11948,3324 10390,4702 8831,6906 7274,8684 5715,9729 4157,10320 2598,10392 1040,10567 1040,10490 Z"/>
 <path fill="none" stroke="rgb(0,0,0)" stroke-width="20" stroke-linejoin="round" d="M 1040,10490 L 2598,10252 4157,10115 5715,9427 7274,8378 8831,6690 10390,4596 11948,3265 13507,2113 15066,1611 15066,1620 13507,2137 11948,3324 10390,4702 8831,6906 7274,8684 5715,9729 4157,10320 2598,10392 1040,10567 1040,10490 Z"/>
 <path fill="rgb(255,149,14)" stroke="none" d="M 1040,9991 L 2598,9813 4157,9673 5715,8715 7274,7907 8831,6583 10390,4585 11948,3265 13507,2113 15066,1611 15066,1611 13507,2113 11948,3265 10390,4596 8831,6690 7274,8378 5715,9427 4157,10115 2598,10252 1040,10490 1040,9991 Z"/>
 <path fill="none" stroke="rgb(0,0,0)" stroke-width="20" stroke-linejoin="round" d="M 1040,9991 L 2598,9813 4157,9673 5715,8715 7274,7907 8831,6583 10390,4585 11948,3265 13507,2113 15066,1611 15066,1611 13507,2113 11948,3265 10390,4596 8831,6690 7274,8378 5715,9427 4157,10115 2598,10252 1040,10490 1040,9991 Z"/>
 <path fill="rgb(153,102,204)" stroke="none" d="M 1040,9904 L 2598,9722 4157,9611 5715,8645 7274,7823 8831,6459 10390,4551 11948,3234 13507,2086 15066,1592 15066,1611 13507,2113 11948,3265 10390,4585 8831,6583 7274,7907 5715,8715 4157,9673 2598,9813 1040,9991 1040,9904 Z"/>
 <path fill="none" stroke="rgb(0,0,0)" stroke-width="20" stroke-linejoin="round" d="M 1040,9904 L 2598,9722 4157,9611 5715,8645 7274,7823 8831,6459 10390,4551 11948,3234 13507,2086 15066,1592 15066,1611 13507,2113 11948,3265 10390,4585 8831,6583 7274,7907 5715,8715 4157,9673 2598,9813 1040,9991 1040,9904 Z"/>
 <text class="TextShape"><tspan class="TextParagraph" font-family="Arial, sans-serif" font-size="388px" font-weight="400"><tspan class="TextPosition" x="616" y="11198"><tspan fill="rgb(0,0,0)" stroke="none">2007</tspan></tspan></tspan></text>
 <text class="TextShape"><tspan class="TextParagraph" font-family="Arial, sans-serif" font-size="388px" font-weight="400"><tspan class="TextPosition" x="2174" y="11198"><tspan fill="rgb(0,0,0)" stroke="none">2008</tspan></tspan></tspan></text>
 <text class="TextShape"><tspan class="TextParagraph" font-family="Arial, sans-serif" font-size="388px" font-weight="400"><tspan class="TextPosition" x="3733" y="11198"><tspan fill="rgb(0,0,0)" stroke="none">2009</tspan></tspan></tspan></text>
 <text class="TextShape"><tspan class="TextParagraph" font-family="Arial, sans-serif" font-size="388px" font-weight="400"><tspan class="TextPosition" x="5291" y="11198"><tspan fill="rgb(0,0,0)" stroke="none">2010</tspan></tspan></tspan></text>
 <text class="TextShape"><tspan class="TextParagraph" font-family="Arial, sans-serif" font-size="388px" font-weight="400"><tspan class="TextPosition" x="6864" y="11198"><tspan fill="rgb(0,0,0)" stroke="none">2011</tspan></tspan></tspan></text>
 <text class="TextShape"><tspan class="TextParagraph" font-family="Arial, sans-serif" font-size="388px" font-weight="400"><tspan class="TextPosition" x="8408" y="11198"><tspan fill="rgb(0,0,0)" stroke="none">2012</tspan></tspan></tspan></text>
 <text class="TextShape"><tspan class="TextParagraph" font-family="Arial, sans-serif" font-size="388px" font-weight="400"><tspan class="TextPosition" x="9967" y="11198"><tspan fill="rgb(0,0,0)" stroke="none">2013</tspan></tspan></tspan></text>
 <text class="TextShape"><tspan class="TextParagraph" font-family="Arial, sans-serif" font-size="388px" font-weight="400"><tspan class="TextPosition" x="11525" y="11198"><tspan fill="rgb(0,0,0)" stroke="none">2014</tspan></tspan></tspan></text>
 <text class="TextShape"><tspan class="TextParagraph" font-family="Arial, sans-serif" font-size="388px" font-weight="400"><tspan class="TextPosition" x="13084" y="11198"><tspan fill="rgb(0,0,0)" stroke="none">2015</tspan></tspan></tspan></text>
 <text class="TextShape"><tspan class="TextParagraph" font-family="Arial, sans-serif" font-size="388px" font-weight="400"><tspan class="TextPosition" x="14643" y="11198"><tspan fill="rgb(0,0,0)" stroke="none">2016</tspan></tspan></tspan></text>
 <text class="TextShape"><tspan class="TextParagraph" font-family="Arial, sans-serif" font-size="388px" font-weight="400"><tspan class="TextPosition" x="578" y="10738"><tspan fill="rgb(0,0,0)" stroke="none">0</tspan></tspan></tspan></text>
 <text class="TextShape"><tspan class="TextParagraph" font-family="Arial, sans-serif" font-size="388px" font-weight="400"><tspan class="TextPosition" x="367" y="9530"><tspan fill="rgb(0,0,0)" stroke="none">50</tspan></tspan></tspan></text>
 <text class="TextShape"><tspan class="TextParagraph" font-family="Arial, sans-serif" font-size="388px" font-weight="400"><tspan class="TextPosition" x="155" y="8323"><tspan fill="rgb(0,0,0)" stroke="none">100</tspan></tspan></tspan></text>
 <text class="TextShape"><tspan class="TextParagraph" font-family="Arial, sans-serif" font-size="388px" font-weight="400"><tspan class="TextPosition" x="155" y="7116"><tspan fill="rgb(0,0,0)" stroke="none">150</tspan></tspan></tspan></text>
 <text class="TextShape"><tspan class="TextParagraph" font-family="Arial, sans-serif" font-size="388px" font-weight="400"><tspan class="TextPosition" x="155" y="5909"><tspan fill="rgb(0,0,0)" stroke="none">200</tspan></tspan></tspan></text>
 <text class="TextShape"><tspan class="TextParagraph" font-family="Arial, sans-serif" font-size="388px" font-weight="400"><tspan class="TextPosition" x="155" y="4702"><tspan fill="rgb(0,0,0)" stroke="none">250</tspan></tspan></tspan></text>
 <text class="TextShape"><tspan class="TextParagraph" font-family="Arial, sans-serif" font-size="388px" font-weight="400"><tspan class="TextPosition" x="155" y="3495"><tspan fill="rgb(0,0,0)" stroke="none">300</tspan></tspan></tspan></text>
 <text class="TextShape"><tspan class="TextParagraph" font-family="Arial, sans-serif" font-size="388px" font-weight="400"><tspan class="TextPosition" x="155" y="2288"><tspan fill="rgb(0,0,0)" stroke="none">350</tspan></tspan></tspan></text>
 <text class="TextShape"><tspan class="TextParagraph" font-family="Arial, sans-serif" font-size="388px" font-weight="400"><tspan class="TextPosition" x="155" y="1081"><tspan fill="rgb(0,0,0)" stroke="none">400</tspan></tspan></tspan></text>
 <text class="TextShape"><tspan class="TextParagraph" font-family="Arial, sans-serif" font-size="353px" font-weight="400"><tspan class="TextPosition" x="15316" y="10724"><tspan fill="rgb(0,0,0)" stroke="none">0</tspan></tspan></tspan></text>
 <text class="TextShape"><tspan class="TextParagraph" font-family="Arial, sans-serif" font-size="353px" font-weight="400"><tspan class="TextPosition" x="15316" y="9516"><tspan fill="rgb(0,0,0)" stroke="none">50</tspan></tspan></tspan></text>
 <text class="TextShape"><tspan class="TextParagraph" font-family="Arial, sans-serif" font-size="353px" font-weight="400"><tspan class="TextPosition" x="15316" y="8309"><tspan fill="rgb(0,0,0)" stroke="none">100</tspan></tspan></tspan></text>
 <text class="TextShape"><tspan class="TextParagraph" font-family="Arial, sans-serif" font-size="353px" font-weight="400"><tspan class="TextPosition" x="15316" y="7102"><tspan fill="rgb(0,0,0)" stroke="none">150</tspan></tspan></tspan></text>
 <text class="TextShape"><tspan class="TextParagraph" font-family="Arial, sans-serif" font-size="353px" font-weight="400"><tspan class="TextPosition" x="15316" y="5895"><tspan fill="rgb(0,0,0)" stroke="none">200</tspan></tspan></tspan></text>
 <text class="TextShape"><tspan class="TextParagraph" font-family="Arial, sans-serif" font-size="353px" font-weight="400"><tspan class="TextPosition" x="15316" y="4688"><tspan fill="rgb(0,0,0)" stroke="none">250</tspan></tspan></tspan></text>
 <text class="TextShape"><tspan class="TextParagraph" font-family="Arial, sans-serif" font-size="353px" font-weight="400"><tspan class="TextPosition" x="15316" y="3481"><tspan fill="rgb(0,0,0)" stroke="none">300</tspan></tspan></tspan></text>
 <text class="TextShape"><tspan class="TextParagraph" font-family="Arial, sans-serif" font-size="353px" font-weight="400"><tspan class="TextPosition" x="15316" y="2274"><tspan fill="rgb(0,0,0)" stroke="none">350</tspan></tspan></tspan></text>
 <text class="TextShape"><tspan class="TextParagraph" font-family="Arial, sans-serif" font-size="353px" font-weight="400"><tspan class="TextPosition" x="15316" y="1067"><tspan fill="rgb(0,0,0)" stroke="none">400</tspan></tspan></tspan></text>
 <text class="TextShape"><tspan class="TextParagraph" font-family="Arial, sans-serif" font-size="529px" font-weight="700"><tspan class="TextPosition" x="1748" y="637"><tspan fill="rgb(0,0,0)" stroke="none">Ventas de smartphones en el 3º trimestre de cada año</tspan></tspan></tspan></text>
 <path fill="rgb(174,207,0)" stroke="none" d="M 2479,11619 L 2363,11619 2363,11387 2595,11387 2595,11619 2479,11619 Z"/>
 <path fill="none" stroke="rgb(0,0,0)" stroke-linejoin="round" d="M 2479,11619 L 2363,11619 2363,11387 2595,11387 2595,11619 2479,11619 Z"/>
 <path fill="rgb(204,204,204)" stroke="none" d="M 4392,11619 L 4276,11619 4276,11387 4508,11387 4508,11619 4392,11619 Z"/>
 <path fill="none" stroke="rgb(0,0,0)" stroke-linejoin="round" d="M 4392,11619 L 4276,11619 4276,11387 4508,11387 4508,11619 4392,11619 Z"/>
 <path fill="rgb(0,71,255)" stroke="none" d="M 5643,11619 L 5527,11619 5527,11387 5759,11387 5759,11619 5643,11619 Z"/>
 <path fill="none" stroke="rgb(0,0,0)" stroke-linejoin="round" d="M 5643,11619 L 5527,11619 5527,11387 5759,11387 5759,11619 5643,11619 Z"/>
 <path fill="rgb(0,0,0)" stroke="none" d="M 7821,11619 L 7705,11619 7705,11387 7937,11387 7937,11619 7821,11619 Z"/>
 <path fill="none" stroke="rgb(0,0,0)" stroke-linejoin="round" d="M 7821,11619 L 7705,11619 7705,11387 7937,11387 7937,11619 7821,11619 Z"/>
 <path fill="rgb(255,149,14)" stroke="none" d="M 10341,11619 L 10225,11619 10225,11387 10457,11387 10457,11619 10341,11619 Z"/>
 <path fill="none" stroke="rgb(0,0,0)" stroke-linejoin="round" d="M 10341,11619 L 10225,11619 10225,11387 10457,11387 10457,11619 10341,11619 Z"/>
 <path fill="rgb(153,102,204)" stroke="none" d="M 12439,11619 L 12323,11619 12323,11387 12555,11387 12555,11619 12439,11619 Z"/>
 <path fill="none" stroke="rgb(0,0,0)" stroke-linejoin="round" d="M 12439,11619 L 12323,11619 12323,11387 12555,11387 12555,11619 12439,11619 Z"/>
 <text class="TextShape"><tspan class="TextParagraph" font-family="Arial, sans-serif" font-size="388px" font-weight="400"><tspan class="TextPosition" x="2695" y="11635"><tspan fill="rgb(0,0,0)" stroke="none">Android</tspan></tspan></tspan></text>
 <text class="TextShape"><tspan class="TextParagraph" font-family="Arial, sans-serif" font-size="388px" font-weight="400"><tspan class="TextPosition" x="4608" y="11635"><tspan fill="rgb(0,0,0)" stroke="none">iOS</tspan></tspan></tspan></text>
 <text class="TextShape"><tspan class="TextParagraph" font-family="Arial, sans-serif" font-size="388px" font-weight="400"><tspan class="TextPosition" x="5859" y="11635"><tspan fill="rgb(0,0,0)" stroke="none">Windows</tspan></tspan></tspan></text>
 <text class="TextShape"><tspan class="TextParagraph" font-family="Arial, sans-serif" font-size="388px" font-weight="400"><tspan class="TextPosition" x="8036" y="11635"><tspan fill="rgb(0,0,0)" stroke="none">BlackBerry</tspan></tspan></tspan></text>
 <text class="TextShape"><tspan class="TextParagraph" font-family="Arial, sans-serif" font-size="388px" font-weight="400"><tspan class="TextPosition" x="10557" y="11635"><tspan fill="rgb(0,0,0)" stroke="none">Symbian</tspan></tspan></tspan></text>
 <text class="TextShape"><tspan class="TextParagraph" font-family="Arial, sans-serif" font-size="388px" font-weight="400"><tspan class="TextPosition" x="12655" y="11635"><tspan fill="rgb(0,0,0)" stroke="none">Otros</tspan></tspan></tspan></text>
 <text class="TextShape"><tspan class="TextParagraph" font-family="Arial, sans-serif" font-size="353px" font-weight="400"><tspan class="TextPosition" x="228" y="609"><tspan fill="rgb(0,0,0)" stroke="none">Millones</tspan></tspan></tspan></text>
</svg>
