<?xml version="1.0" encoding="UTF-8"?>
<!DOCTYPE svg PUBLIC "-//W3C//DTD SVG 1.1//EN" "http://www.w3.org/Graphics/SVG/1.1/DTD/svg11.dtd">
<svg width="150mm" height="120mm" viewBox="0 0 15000 12000" version="1.1" xmlns="http://www.w3.org/2000/svg" xmlns:xlink="http://www.w3.org/1999/xlink" stroke-width="28.222" stroke-linejoin="round" xml:space="preserve">
 <path fill="rgb(255,255,255)" stroke="none" d="M 7500,12000 L 0,12000 0,0 15000,0 15000,12000 7500,12000 Z"/>
 <path fill="none" stroke="rgb(0,0,0)" stroke-linejoin="round" d="M 8005,11216 L 1306,11216 1306,779 14704,779 14704,11216 8005,11216 Z"/>
 <path fill="none" stroke="rgb(0,0,0)" stroke-linejoin="round" d="M 14703,11215 L 1305,11215"/>
 <path fill="none" stroke="rgb(0,0,0)" stroke-linejoin="round" d="M 14703,10345 L 1305,10345"/>
 <path fill="none" stroke="rgb(0,0,0)" stroke-linejoin="round" d="M 14703,9475 L 1305,9475"/>
 <path fill="none" stroke="rgb(0,0,0)" stroke-linejoin="round" d="M 14703,8605 L 1305,8605"/>
 <path fill="none" stroke="rgb(0,0,0)" stroke-linejoin="round" d="M 14703,7735 L 1305,7735"/>
 <path fill="none" stroke="rgb(0,0,0)" stroke-linejoin="round" d="M 14703,6865 L 1305,6865"/>
 <path fill="none" stroke="rgb(0,0,0)" stroke-linejoin="round" d="M 14703,5996 L 1305,5996"/>
 <path fill="none" stroke="rgb(0,0,0)" stroke-linejoin="round" d="M 14703,5127 L 1305,5127"/>
 <path fill="none" stroke="rgb(0,0,0)" stroke-linejoin="round" d="M 14703,4257 L 1305,4257"/>
 <path fill="none" stroke="rgb(0,0,0)" stroke-linejoin="round" d="M 14703,3387 L 1305,3387"/>
 <path fill="none" stroke="rgb(0,0,0)" stroke-linejoin="round" d="M 14703,2517 L 1305,2517"/>
 <path fill="none" stroke="rgb(0,0,0)" stroke-linejoin="round" d="M 14703,1647 L 1305,1647"/>
 <path fill="none" stroke="rgb(0,0,0)" stroke-linejoin="round" d="M 14703,777 L 1305,777"/>
 <path fill="none" stroke="rgb(0,0,0)" stroke-linejoin="round" d="M 1305,11365 L 1305,11215"/>
 <path fill="none" stroke="rgb(0,0,0)" stroke-linejoin="round" d="M 1305,11365 L 1305,11215"/>
 <path fill="none" stroke="rgb(0,0,0)" stroke-linejoin="round" d="M 4856,11365 L 4856,11215"/>
 <path fill="none" stroke="rgb(0,0,0)" stroke-linejoin="round" d="M 4856,11365 L 4856,11215"/>
 <path fill="none" stroke="rgb(0,0,0)" stroke-linejoin="round" d="M 8405,11365 L 8405,11215"/>
 <path fill="none" stroke="rgb(0,0,0)" stroke-linejoin="round" d="M 8405,11365 L 8405,11215"/>
 <path fill="none" stroke="rgb(0,0,0)" stroke-linejoin="round" d="M 11840,11365 L 11840,11215"/>
 <path fill="none" stroke="rgb(0,0,0)" stroke-linejoin="round" d="M 11840,11365 L 11840,11215"/>
 <path fill="none" stroke="rgb(0,0,0)" stroke-linejoin="round" d="M 1305,11215 L 14703,11215"/>
 <path fill="none" stroke="rgb(0,0,0)" stroke-linejoin="round" d="M 1155,11215 L 1305,11215"/>
 <path fill="none" stroke="rgb(0,0,0)" stroke-linejoin="round" d="M 1155,11215 L 1305,11215"/>
 <path fill="none" stroke="rgb(0,0,0)" stroke-linejoin="round" d="M 1155,10345 L 1305,10345"/>
 <path fill="none" stroke="rgb(0,0,0)" stroke-linejoin="round" d="M 1155,10345 L 1305,10345"/>
 <path fill="none" stroke="rgb(0,0,0)" stroke-linejoin="round" d="M 1155,9475 L 1305,9475"/>
 <path fill="none" stroke="rgb(0,0,0)" stroke-linejoin="round" d="M 1155,9475 L 1305,9475"/>
 <path fill="none" stroke="rgb(0,0,0)" stroke-linejoin="round" d="M 1155,8605 L 1305,8605"/>
 <path fill="none" stroke="rgb(0,0,0)" stroke-linejoin="round" d="M 1155,8605 L 1305,8605"/>
 <path fill="none" stroke="rgb(0,0,0)" stroke-linejoin="round" d="M 1155,7735 L 1305,7735"/>
 <path fill="none" stroke="rgb(0,0,0)" stroke-linejoin="round" d="M 1155,7735 L 1305,7735"/>
 <path fill="none" stroke="rgb(0,0,0)" stroke-linejoin="round" d="M 1155,6865 L 1305,6865"/>
 <path fill="none" stroke="rgb(0,0,0)" stroke-linejoin="round" d="M 1155,6865 L 1305,6865"/>
 <path fill="none" stroke="rgb(0,0,0)" stroke-linejoin="round" d="M 1155,5996 L 1305,5996"/>
 <path fill="none" stroke="rgb(0,0,0)" stroke-linejoin="round" d="M 1155,5996 L 1305,5996"/>
 <path fill="none" stroke="rgb(0,0,0)" stroke-linejoin="round" d="M 1155,5127 L 1305,5127"/>
 <path fill="none" stroke="rgb(0,0,0)" stroke-linejoin="round" d="M 1155,5127 L 1305,5127"/>
 <path fill="none" stroke="rgb(0,0,0)" stroke-linejoin="round" d="M 1155,4257 L 1305,4257"/>
 <path fill="none" stroke="rgb(0,0,0)" stroke-linejoin="round" d="M 1155,4257 L 1305,4257"/>
 <path fill="none" stroke="rgb(0,0,0)" stroke-linejoin="round" d="M 1155,3387 L 1305,3387"/>
 <path fill="none" stroke="rgb(0,0,0)" stroke-linejoin="round" d="M 1155,3387 L 1305,3387"/>
 <path fill="none" stroke="rgb(0,0,0)" stroke-linejoin="round" d="M 1155,2517 L 1305,2517"/>
 <path fill="none" stroke="rgb(0,0,0)" stroke-linejoin="round" d="M 1155,2517 L 1305,2517"/>
 <path fill="none" stroke="rgb(0,0,0)" stroke-linejoin="round" d="M 1155,1647 L 1305,1647"/>
 <path fill="none" stroke="rgb(0,0,0)" stroke-linejoin="round" d="M 1155,1647 L 1305,1647"/>
 <path fill="none" stroke="rgb(0,0,0)" stroke-linejoin="round" d="M 1155,777 L 1305,777"/>
 <path fill="none" stroke="rgb(0,0,0)" stroke-linejoin="round" d="M 1155,777 L 1305,777"/>
 <path fill="none" stroke="rgb(0,0,0)" stroke-linejoin="round" d="M 1305,11215 L 1305,777"/>
 <path fill="none" stroke="rgb(0,69,134)" stroke-width="100" stroke-linejoin="round" d="M 1305,11215 L 1420,11213 1535,11194 1649,11188 1764,11181 1878,11180 1993,11173 2107,11173 2222,11164 2336,11161 2451,11148 2565,11145 2680,11136 2794,11129 2909,11126 3023,11114 3138,11103 3252,11077 3367,11049 3481,11035 3596,11016 3710,11009 3825,11001 3939,10974 4054,10957 4169,10945 4283,10929 4398,10924 4512,10917 4627,10910 4741,11115 4856,11114 4970,11105 5085,11101 5199,11093 5314,11088 5428,11086 5543,11082 5657,11081 5772,11079 5886,11075 6001,11067 6115,11065 6230,11061 6344,11056 6459,11047 6573,11047 6688,11044 6803,11037 6917,11034 7032,11030 7146,11025 7261,11016 7375,11014 7490,11013 7603,11001 7718,10994 7832,10990 7947,10981 8061,10974 8176,10964 8290,10957 8405,10948 8519,10938 8634,10926 8748,10901 8863,10875 8977,10863 9092,10839 9206,10827 9321,10792 9436,10767 9550,10743 9665,10715 9779,10684 9894,10640 10008,10599 10123,10571 10237,10536 10352,10479 10466,10419 10581,10334 10695,10279 10810,10221 10924,10185 11039,10132 11153,10052 11268,9965 11382,9880 11497,9758 11611,9621 11726,9494 11840,9339 11955,9097 12070,8868 12184,8628 12299,8377 12413,8076 12528,7881 12642,7671 12757,7205 12871,6883 12986,6519 13100,6192 13215,5847 13329,5589 13444,5309 13558,4709 13673,4366 13787,4135 13902,3761 14016,3418 14131,3213 14245,2874 14360,2486 14474,2162 14589,1865 14703,1593"/>
 <path fill="none" stroke="rgb(255,66,14)" stroke-width="100" stroke-linejoin="round" d="M 1305,11215 L 1420,11208 1535,11201 1649,11187 1764,11174 1878,11162 1993,11174 2107,11162 2222,11148 2336,11128 2451,11115 2565,11101 2680,11081 2794,11079 2909,11077 3023,11070 3138,11060 3252,11053 3367,11028 3481,11018 3596,11018 3710,11016 3825,11009 3939,10997 4054,10980 4169,10967 4283,10955 4398,10952 4512,10947 4627,10938 4741,10933 4856,10924 4970,10919 5085,10917 5199,10907 5314,10901 5428,10894 5543,10875 5657,10861 5772,10860 5886,10856 6001,10854 6115,10854 6230,10847 6344,10832 6459,10827 6573,10825 6688,10816 6803,10813 6917,10811 7032,10790 7146,10780 7261,10774 7375,10762 7490,10752 7603,10748 7718,10748 7832,10731 7947,10708 8061,10675 8176,10649 8290,10633 8405,10625 8519,10620 8634,10600 8748,10571 8863,10550 8977,10536 9092,10503 9206,10499 9321,10491 9436,10470 9550,10442 9665,10414 9779,10395 9894,10369 10008,10350 10123,10339 10237,10317 10352,10242 10466,10185 10581,10143 10695,10085 10810,10068 10924,10047 11039,9965 11153,9898 11268,9845 11382,9760 11497,9675 11611,9624 11726,9583 11840,9510 11955,9362 12070,9207 12184,9073 12299,8894 12413,8843 12528,8758 12642,8530 12757,8268 12871,8062 12986,7773 13100,7547 13215,7438 13329,7328 13444,7060 13558,6606 13673,6232 13787,5854 13902,5544 14016,5358 14131,5250 14245,4786 14360,4255 14474,3818 14589,3366 14703,2924"/>
 <path fill="none" stroke="rgb(255,211,32)" stroke-width="100" stroke-linejoin="round" d="M 1305,11215 L 1420,11199 1535,11199 1649,11199 1764,11199 1878,11199 1993,11199 2107,11199 2222,11188 2336,11188 2451,11188 2565,11188 2680,11188 2794,11188 2909,11188 3023,11174 3138,11174 3252,11174 3367,11174 3481,11174 3596,11174 3710,11174 3825,11147 3939,11147 4054,11147 4169,11147 4283,11147 4398,11147 4512,11147 4627,11091 4741,11091 4856,11091 4970,11091 5085,11091 5199,11091 5314,11091 5428,11049 5543,11049 5657,11049 5772,11049 5886,11049 6001,11049 6115,11049 6230,11027 6344,11027 6459,11027 6573,11027 6688,11027 6803,11027 6917,11027 7032,11002 7146,11002 7261,11002 7375,11002 7490,11002 7603,11002 7718,11002 7832,10945 7947,10945 8061,10945 8176,10945 8290,10945 8405,10945 8519,10945 8634,10767 8748,10767 8863,10767 8977,10767 9092,10767 9206,10767 9321,10767 9436,10613 9550,10613 9665,10613 9779,10613 9894,10613 10008,10613 10123,10613 10237,10353 10352,10353 10466,10353 10581,10353 10695,10353 10810,10353 10924,10353 11039,10035 11153,10035 11268,10035 11382,10035 11497,10035 11611,10035 11726,10035 11840,9464 11955,9464 12070,9464 12184,9464 12299,9464 12413,9464 12528,9464 12642,8709 12757,8709 12871,8709 12986,8709 13100,8709 13215,8709 13329,8709 13444,7726 13558,7726 13673,7726 13787,7726 13902,7726 14016,7726 14131,7726 14245,6900 14360,6900 14474,6900 14589,6900 14703,6900"/>
 <path fill="none" stroke="rgb(87,157,28)" stroke-width="100" stroke-linejoin="round" d="M 1305,11211 L 1420,11206 1535,11201 1649,11197 1764,11183 1878,11180 1993,11178 2107,11178 2222,11176 2336,11174 2451,11169 2565,11164 2680,11157 2794,11147 2909,11141 3023,11138 3138,11133 3252,11122 3367,11119 3481,11114 3596,11108 3710,11107 3825,11098 3939,11094 4054,11091 4169,11084 4283,11081 4398,11077 4512,11068 4627,11061 4741,11058 4856,11054 4970,11044 5085,11039 5199,11037 5314,11032 5428,11028 5543,11023 5657,11020 5772,11013 5886,11004 6001,11001 6115,10995 6230,10990 6344,10985 6459,10980 6573,10974 6688,10966 6803,10954 6917,10947 7032,10940 7146,10934 7261,10917 7375,10907 7490,10898 7603,10875 7718,10861 7832,10853 7947,10847 8061,10842 8176,10834 8290,10820 8405,10804 8519,10797 8634,10787 8748,10773 8863,10762 8977,10752 9092,10731 9206,10713 9321,10691 9436,10667 9550,10653 9665,10635 9779,10614 9894,10606 10008,10583 10123,10559 10237,10531 10352,10519 10466,10499 10581,10463 10695,10440 10810,10407 10924,10378 11039,10352 11153,10324 11268,10296 11382,10242 11497,10205 11611,10172 11726,10125 11840,10077 11955,10035 12070,9978 12184,9908 12299,9840 12413,9776 12528,9696 12642,9617 12757,9515 12871,9435 12986,9344 13100,9247 13215,9163 13329,9054 13444,8946 13558,8803 13673,8668 13787,8548 13902,8452 14016,8320 14131,8161 14245,8020 14360,7883 14474,7763 14589,7657 14703,7549"/>
 <text class="TextShape"><tspan class="TextParagraph" font-family="Liberation Sans, sans-serif" font-size="353px" font-weight="400"><tspan class="TextPosition" x="881" y="11783"><tspan fill="rgb(0,0,0)" stroke="none">27/07</tspan></tspan></tspan></text>
 <text class="TextShape"><tspan class="TextParagraph" font-family="Liberation Sans, sans-serif" font-size="353px" font-weight="400"><tspan class="TextPosition" x="4432" y="11783"><tspan fill="rgb(0,0,0)" stroke="none">27/08</tspan></tspan></tspan></text>
 <text class="TextShape"><tspan class="TextParagraph" font-family="Liberation Sans, sans-serif" font-size="353px" font-weight="400"><tspan class="TextPosition" x="7982" y="11783"><tspan fill="rgb(0,0,0)" stroke="none">27/09</tspan></tspan></tspan></text>
 <text class="TextShape"><tspan class="TextParagraph" font-family="Liberation Sans, sans-serif" font-size="353px" font-weight="400"><tspan class="TextPosition" x="11417" y="11783"><tspan fill="rgb(0,0,0)" stroke="none">27/10</tspan></tspan></tspan></text>
 <text class="TextShape"><tspan class="TextParagraph" font-family="Liberation Sans, sans-serif" font-size="353px" font-weight="400"><tspan class="TextPosition" x="499" y="10466"><tspan fill="rgb(0,0,0)" stroke="none">500</tspan></tspan></tspan></text>
 <text class="TextShape"><tspan class="TextParagraph" font-family="Liberation Sans, sans-serif" font-size="353px" font-weight="400"><tspan class="TextPosition" x="208" y="9596"><tspan fill="rgb(0,0,0)" stroke="none">1.000</tspan></tspan></tspan></text>
 <text class="TextShape"><tspan class="TextParagraph" font-family="Liberation Sans, sans-serif" font-size="353px" font-weight="400"><tspan class="TextPosition" x="208" y="8726"><tspan fill="rgb(0,0,0)" stroke="none">1.500</tspan></tspan></tspan></text>
 <text class="TextShape"><tspan class="TextParagraph" font-family="Liberation Sans, sans-serif" font-size="353px" font-weight="400"><tspan class="TextPosition" x="208" y="7856"><tspan fill="rgb(0,0,0)" stroke="none">2.000</tspan></tspan></tspan></text>
 <text class="TextShape"><tspan class="TextParagraph" font-family="Liberation Sans, sans-serif" font-size="353px" font-weight="400"><tspan class="TextPosition" x="208" y="6986"><tspan fill="rgb(0,0,0)" stroke="none">2.500</tspan></tspan></tspan></text>
 <text class="TextShape"><tspan class="TextParagraph" font-family="Liberation Sans, sans-serif" font-size="353px" font-weight="400"><tspan class="TextPosition" x="208" y="6116"><tspan fill="rgb(0,0,0)" stroke="none">3.000</tspan></tspan></tspan></text>
 <text class="TextShape"><tspan class="TextParagraph" font-family="Liberation Sans, sans-serif" font-size="353px" font-weight="400"><tspan class="TextPosition" x="208" y="5247"><tspan fill="rgb(0,0,0)" stroke="none">3.500</tspan></tspan></tspan></text>
 <text class="TextShape"><tspan class="TextParagraph" font-family="Liberation Sans, sans-serif" font-size="353px" font-weight="400"><tspan class="TextPosition" x="208" y="4377"><tspan fill="rgb(0,0,0)" stroke="none">4.000</tspan></tspan></tspan></text>
 <text class="TextShape"><tspan class="TextParagraph" font-family="Liberation Sans, sans-serif" font-size="353px" font-weight="400"><tspan class="TextPosition" x="208" y="3507"><tspan fill="rgb(0,0,0)" stroke="none">4.500</tspan></tspan></tspan></text>
 <text class="TextShape"><tspan class="TextParagraph" font-family="Liberation Sans, sans-serif" font-size="353px" font-weight="400"><tspan class="TextPosition" x="208" y="2637"><tspan fill="rgb(0,0,0)" stroke="none">5.000</tspan></tspan></tspan></text>
 <text class="TextShape"><tspan class="TextParagraph" font-family="Liberation Sans, sans-serif" font-size="353px" font-weight="400"><tspan class="TextPosition" x="208" y="1767"><tspan fill="rgb(0,0,0)" stroke="none">5.500</tspan></tspan></tspan></text>
 <text class="TextShape"><tspan class="TextParagraph" font-family="Liberation Sans, sans-serif" font-size="353px" font-weight="400"><tspan class="TextPosition" x="208" y="897"><tspan fill="rgb(0,0,0)" stroke="none">6.000</tspan></tspan></tspan></text>
 <text class="TextShape"><tspan class="TextParagraph" font-family="Liberation Sans, sans-serif" font-size="459px" font-weight="400"><tspan class="TextPosition" x="1877" y="538"><tspan fill="rgb(0,0,0)" stroke="none">Covid-19. Muertes acumuladas en Europa Occidental (2)</tspan></tspan></tspan></text>
 <path fill="none" stroke="rgb(0,69,134)" stroke-width="100" stroke-linejoin="round" d="M 2187,1167 L 2987,1167"/>
 <path fill="none" stroke="rgb(255,66,14)" stroke-width="100" stroke-linejoin="round" d="M 2187,2042 L 2987,2042"/>
 <path fill="none" stroke="rgb(255,211,32)" stroke-width="100" stroke-linejoin="round" d="M 2187,2917 L 2987,2917"/>
 <path fill="none" stroke="rgb(87,157,28)" stroke-width="100" stroke-linejoin="round" d="M 2187,3792 L 2987,3792"/>
 <text class="TextShape"><tspan class="TextParagraph" font-family="Liberation Sans, sans-serif" font-size="353px" font-weight="400"><tspan class="TextPosition" x="3087" y="1287"><tspan fill="rgb(0,0,0)" stroke="none">Bélgica</tspan></tspan></tspan></text>
 <text class="TextShape"><tspan class="TextParagraph" font-family="Liberation Sans, sans-serif" font-size="353px" font-weight="400"><tspan class="TextPosition" x="3087" y="2162"><tspan fill="rgb(0,0,0)" stroke="none">Alemania</tspan></tspan></tspan></text>
 <text class="TextShape"><tspan class="TextParagraph" font-family="Liberation Sans, sans-serif" font-size="353px" font-weight="400"><tspan class="TextPosition" x="3087" y="3037"><tspan fill="rgb(0,0,0)" stroke="none">Holanda</tspan></tspan></tspan></text>
 <text class="TextShape"><tspan class="TextParagraph" font-family="Liberation Sans, sans-serif" font-size="353px" font-weight="400"><tspan class="TextPosition" x="3087" y="3912"><tspan fill="rgb(0,0,0)" stroke="none">Portugal</tspan></tspan></tspan></text>
</svg>