<?xml version="1.0" encoding="UTF-8"?>
<!DOCTYPE svg PUBLIC "-//W3C//DTD SVG 1.1//EN" "http://www.w3.org/Graphics/SVG/1.1/DTD/svg11.dtd">
<svg width="150mm" height="120mm" viewBox="0 0 15000 12000" version="1.1" xmlns="http://www.w3.org/2000/svg" xmlns:xlink="http://www.w3.org/1999/xlink" stroke-width="28.222" stroke-linejoin="round" xml:space="preserve">
 <path fill="rgb(255,255,255)" stroke="none" d="M 7500,12000 L 0,12000 0,0 15000,0 15000,12000 7500,12000 Z"/>
 <path fill="none" stroke="rgb(0,0,0)" stroke-linejoin="round" d="M 7949,11207 L 1213,11207 1213,1028 14686,1028 14686,11207 7949,11207 Z"/>
 <path fill="none" stroke="rgb(0,0,0)" stroke-linejoin="round" d="M 14685,11206 L 1212,11206"/>
 <path fill="none" stroke="rgb(0,0,0)" stroke-linejoin="round" d="M 14685,10008 L 1212,10008"/>
 <path fill="none" stroke="rgb(0,0,0)" stroke-linejoin="round" d="M 14685,8810 L 1212,8810"/>
 <path fill="none" stroke="rgb(0,0,0)" stroke-linejoin="round" d="M 14685,7613 L 1212,7613"/>
 <path fill="none" stroke="rgb(0,0,0)" stroke-linejoin="round" d="M 14685,6415 L 1212,6415"/>
 <path fill="none" stroke="rgb(0,0,0)" stroke-linejoin="round" d="M 14685,5218 L 1212,5218"/>
 <path fill="none" stroke="rgb(0,0,0)" stroke-linejoin="round" d="M 14685,4021 L 1212,4021"/>
 <path fill="none" stroke="rgb(0,0,0)" stroke-linejoin="round" d="M 14685,2823 L 1212,2823"/>
 <path fill="none" stroke="rgb(0,0,0)" stroke-linejoin="round" d="M 14685,1625 L 1212,1625"/>
 <path fill="none" stroke="rgb(0,0,0)" stroke-linejoin="round" d="M 1212,11356 L 1212,11206"/>
 <path fill="none" stroke="rgb(0,0,0)" stroke-linejoin="round" d="M 1212,11356 L 1212,11206"/>
 <path fill="none" stroke="rgb(0,0,0)" stroke-linejoin="round" d="M 3807,11356 L 3807,11206"/>
 <path fill="none" stroke="rgb(0,0,0)" stroke-linejoin="round" d="M 3807,11356 L 3807,11206"/>
 <path fill="none" stroke="rgb(0,0,0)" stroke-linejoin="round" d="M 6401,11356 L 6401,11206"/>
 <path fill="none" stroke="rgb(0,0,0)" stroke-linejoin="round" d="M 6401,11356 L 6401,11206"/>
 <path fill="none" stroke="rgb(0,0,0)" stroke-linejoin="round" d="M 8911,11356 L 8911,11206"/>
 <path fill="none" stroke="rgb(0,0,0)" stroke-linejoin="round" d="M 8911,11356 L 8911,11206"/>
 <path fill="none" stroke="rgb(0,0,0)" stroke-linejoin="round" d="M 11505,11356 L 11505,11206"/>
 <path fill="none" stroke="rgb(0,0,0)" stroke-linejoin="round" d="M 11505,11356 L 11505,11206"/>
 <path fill="none" stroke="rgb(0,0,0)" stroke-linejoin="round" d="M 14016,11356 L 14016,11206"/>
 <path fill="none" stroke="rgb(0,0,0)" stroke-linejoin="round" d="M 14016,11356 L 14016,11206"/>
 <path fill="none" stroke="rgb(0,0,0)" stroke-linejoin="round" d="M 1212,11206 L 14685,11206"/>
 <path fill="none" stroke="rgb(0,0,0)" stroke-linejoin="round" d="M 1062,11206 L 1212,11206"/>
 <path fill="none" stroke="rgb(0,0,0)" stroke-linejoin="round" d="M 1062,11206 L 1212,11206"/>
 <path fill="none" stroke="rgb(0,0,0)" stroke-linejoin="round" d="M 1062,10008 L 1212,10008"/>
 <path fill="none" stroke="rgb(0,0,0)" stroke-linejoin="round" d="M 1062,10008 L 1212,10008"/>
 <path fill="none" stroke="rgb(0,0,0)" stroke-linejoin="round" d="M 1062,8810 L 1212,8810"/>
 <path fill="none" stroke="rgb(0,0,0)" stroke-linejoin="round" d="M 1062,8810 L 1212,8810"/>
 <path fill="none" stroke="rgb(0,0,0)" stroke-linejoin="round" d="M 1062,7613 L 1212,7613"/>
 <path fill="none" stroke="rgb(0,0,0)" stroke-linejoin="round" d="M 1062,7613 L 1212,7613"/>
 <path fill="none" stroke="rgb(0,0,0)" stroke-linejoin="round" d="M 1062,6415 L 1212,6415"/>
 <path fill="none" stroke="rgb(0,0,0)" stroke-linejoin="round" d="M 1062,6415 L 1212,6415"/>
 <path fill="none" stroke="rgb(0,0,0)" stroke-linejoin="round" d="M 1062,5218 L 1212,5218"/>
 <path fill="none" stroke="rgb(0,0,0)" stroke-linejoin="round" d="M 1062,5218 L 1212,5218"/>
 <path fill="none" stroke="rgb(0,0,0)" stroke-linejoin="round" d="M 1062,4021 L 1212,4021"/>
 <path fill="none" stroke="rgb(0,0,0)" stroke-linejoin="round" d="M 1062,4021 L 1212,4021"/>
 <path fill="none" stroke="rgb(0,0,0)" stroke-linejoin="round" d="M 1062,2823 L 1212,2823"/>
 <path fill="none" stroke="rgb(0,0,0)" stroke-linejoin="round" d="M 1062,2823 L 1212,2823"/>
 <path fill="none" stroke="rgb(0,0,0)" stroke-linejoin="round" d="M 1062,1625 L 1212,1625"/>
 <path fill="none" stroke="rgb(0,0,0)" stroke-linejoin="round" d="M 1062,1625 L 1212,1625"/>
 <path fill="none" stroke="rgb(0,0,0)" stroke-linejoin="round" d="M 1212,11206 L 1212,1026"/>
 <path fill="none" stroke="rgb(0,0,0)" stroke-width="100" stroke-linejoin="round" d="M 1212,11206 L 1296,11199 1380,11199 1464,11193 1547,11187 1631,11187 1715,11187 1798,11180 1882,11180 1966,11180 2049,11180 2133,11180 2217,11180 2300,11180 2384,11174 2468,11168 2552,11149 2635,11149 2719,11149 2803,11149 2886,11149 2970,11142 3054,11136 3137,11117 3221,11123 3305,11104 3388,11104 3472,11104 3556,11085 3639,11073 3723,11073 3807,11028 3891,11022 3974,11022 4058,11022 4142,11003 4225,10952 4309,10952 4393,10940 4476,10921 4560,10921 4644,10921 4727,10877 4811,10820 4895,10775 4979,10775 5062,10687 5146,10687 5230,10687 5313,10674 5397,10649 5481,10586 5564,10567 5648,10522 5732,10522 5815,10522 5899,10465 5983,10446 6066,10364 6150,10314 6234,10257 6318,10257 6401,10257 6485,10231 6569,10181 6652,10149 6736,10105 6820,10067 6903,10067 6987,10067 7071,10042 7154,10004 7238,9934 7322,9896 7406,9871 7489,9871 7572,9871 7656,9864 7739,9852 7823,9751 7907,9687 7990,9643 8074,9643 8158,9643 8241,9611 8325,9599 8409,9504 8492,9460 8576,9396 8660,9396 8744,9396 8827,9346 8911,9282 8995,9194 9078,9124 9162,9055 9246,9055 9329,9055 9413,8998 9497,8890 9580,8523 9664,8409 9748,8340 9832,8340 9915,8340 9999,8207 10083,8030 10166,7809 10250,7726 10334,7537 10417,7537 10501,7537 10585,7442 10668,7271 10752,6936 10836,6834 10919,6556 11003,6556 11087,6556 11171,6430 11254,6120 11338,5962 11422,5798 11505,5735 11589,5735 11673,5735 11756,5532 11840,5273 11924,5121 12007,4976 12091,4811 12175,4811 12259,4811 12342,4710 12426,4710 12510,4514 12593,4324 12677,4153 12761,4153 12844,4153 12928,3963 13012,3767 13095,3502 13179,3394 13263,3299 13346,3299 13430,3299 13514,3141 13598,2983 13681,2837 13765,2698 13849,2698 13932,2698 14016,2698 14100,2553 14183,2306 14267,1870 14351,1667 14434,1667 14518,1667 14602,1667 14685,1357"/>
 <path fill="none" stroke="rgb(255,66,14)" stroke-width="100" stroke-linejoin="round" d="M 1212,11206 L 1296,11206 1380,11206 1464,11206 1547,11206 1631,11206 1715,11206 1798,11206 1882,11206 1966,11206 2049,11206 2133,11206 2217,11206 2300,11206 2384,11206 2468,11109 2552,11061 2635,11061 2719,11061 2803,11061 2886,11061 2970,11061 3054,11061 3137,11061 3221,11013 3305,11013 3388,11013 3472,11013 3556,11013 3639,11013 3723,11013 3807,11013 3891,11013 3974,11013 4058,11013 4142,11013 4225,11013 4309,10869 4393,10869 4476,10821 4560,10821 4644,10821 4727,10773 4811,10725 4895,10725 4979,10725 5062,10725 5146,10725 5230,10725 5313,10725 5397,10725 5481,10677 5564,10677 5648,10533 5732,10533 5815,10533 5899,10485 5983,10485 6066,10485 6150,10485 6234,10436 6318,10436 6401,10436 6485,10388 6569,10388 6652,10340 6736,10340 6820,10340 6903,10340 6987,10340 7071,10244 7154,10244 7238,10244 7322,10244 7406,10244 7489,10244 7572,10244 7656,10244 7739,10100 7823,10100 7907,10100 7990,10004 8074,10004 8158,10004 8241,9764 8325,9764 8409,9764 8492,9715 8576,9715 8660,9715 8744,9715 8827,9715 8911,9619 8995,9571 9078,9523 9162,9523 9246,9523 9329,9523 9413,9379 9497,9379 9580,9427 9664,9283 9748,9235 9832,9235 9915,9235 9999,8946 10083,8802 10166,8706 10250,8658 10334,8466 10417,8466 10501,8466 10585,8225 10668,8081 10752,7649 10836,7601 10919,7553 11003,7553 11087,7553 11171,7360 11254,7360 11338,7312 11422,7216 11505,7024 11589,7024 11673,7024 11756,6639 11840,6447 11924,6255 12007,6207 12091,6063 12175,6063 12259,6063 12342,5727 12426,5727 12510,5487 12593,5343 12677,5294 12761,5294 12844,5294 12928,5054 13012,4766 13095,4574 13179,4381 13263,4237 13346,4237 13430,4237 13514,4189 13598,4189 13681,4141 13765,4093 13849,4093 13932,4093 14016,4093 14100,3324 14183,3035 14267,2987 14351,2747 14434,2747 14518,2747 14602,2747 14685,2459"/>
 <path fill="none" stroke="rgb(255,211,32)" stroke-width="100" stroke-linejoin="round" d="M 1212,11206 L 1296,11206 1380,11206 1464,11206 1547,11206 1631,11206 1715,11206 1798,11206 1882,11206 1966,11206 2049,11206 2133,11206 2217,11206 2300,11206 2384,11137 2468,11171 2552,11171 2635,11171 2719,11171 2803,11171 2886,11171 2970,11171 3054,11137 3137,11103 3221,11103 3305,11069 3388,11069 3472,11069 3556,11069 3639,11034 3723,10966 3807,10966 3891,10897 3974,10897 4058,10897 4142,10863 4225,10726 4309,10726 4393,10589 4476,10555 4560,10555 4644,10555 4727,10486 4811,10349 4895,10315 4979,10212 5062,10041 5146,10041 5230,10041 5313,10007 5397,9836 5481,9699 5564,9664 5648,9630 5732,9630 5815,9630 5899,9390 5983,9322 6066,9116 6150,9082 6234,9048 6318,9048 6401,9048 6485,8979 6569,8911 6652,8705 6736,8637 6820,8603 6903,8603 6987,8603 7071,8466 7154,8294 7238,8260 7322,8157 7406,8055 7489,8055 7572,8055 7656,8055 7739,8055 7823,7883 7907,7746 7990,7678 8074,7678 8158,7678 8241,7678 8325,7507 8409,7370 8492,7096 8576,6822 8660,6822 8744,6822 8827,6685 8911,6650 8995,6650 9078,6650 9162,6479 9246,6479 9329,6479 9413,6445 9497,6411 9580,6171 9664,6137 9748,6000 9832,6000 9915,6000 9999,5932 10083,5864 10166,5864 10250,5761 10334,5555 10417,5555 10501,5555 10585,5487 10668,5281 10752,5281 10836,5247 10919,5247 11003,5247 11087,5247 11171,5247 11254,5213 11338,5110 11422,5042 11505,5042 11589,5042 11673,5042 11756,4870 11840,4802 11924,4733 12007,4391 12091,4322 12175,4322 12259,4322 12342,4322 12426,4322 12510,4322 12593,4288 12677,4254 12761,4254 12844,4254 12928,4254 13012,4185 13095,4083 13179,4014 13263,3911 13346,3911 13430,3911 13514,3740 13598,3569 13681,3569 13765,3398 13849,3398 13932,3398 14016,3398 14100,3295 14183,3192 14267,2952 14351,2815 14434,2815 14518,2815 14602,2815 14685,2576"/>
 <path fill="none" stroke="rgb(87,157,28)" stroke-width="100" stroke-linejoin="round" d="M 1212,11206 L 1296,11206 1380,11206 1464,11206 1547,11206 1631,11206 1715,11206 1798,11206 1882,11206 1966,11206 2049,11206 2133,11206 2217,11206 2300,11206 2384,11188 2468,11179 2552,11179 2635,11179 2719,11170 2803,11170 2886,11170 2970,11152 3054,11152 3137,11152 3221,11152 3305,11143 3388,11143 3472,11143 3556,11090 3639,11090 3723,11081 3807,11072 3891,11072 3974,11072 4058,11072 4142,11010 4225,10983 4309,10974 4393,10939 4476,10912 4560,10912 4644,10912 4727,10841 4811,10823 4895,10814 4979,10752 5062,10716 5146,10716 5230,10716 5313,10600 5397,10556 5481,10529 5564,10502 5648,10467 5732,10467 5815,10467 5899,10325 5983,10307 6066,10298 6150,10280 6234,10253 6318,10253 6401,10253 6485,10191 6569,10182 6652,10138 6736,10075 6820,10058 6903,10058 6987,10058 7071,9969 7154,9897 7238,9880 7322,9835 7406,9799 7489,9799 7572,9799 7656,9728 7739,9684 7823,9595 7907,9550 7990,9488 8074,9488 8158,9488 8241,9372 8325,9292 8409,9221 8492,9150 8576,9070 8660,9070 8744,9070 8827,8865 8911,8847 8995,8749 9078,8749 9162,8669 9246,8669 9329,8669 9413,8402 9497,8269 9580,8198 9664,8091 9748,8020 9832,8020 9915,8020 9999,7842 10083,7655 10166,7557 10250,7352 10334,7272 10417,7272 10501,7272 10585,7068 10668,6916 10752,6854 10836,6801 10919,6649 11003,6649 11087,6649 11171,6454 11254,6284 11338,6276 11422,6231 11505,6178 11589,6178 11673,6178 11756,5921 11840,5760 11924,5778 12007,5752 12091,5627 12175,5627 12259,5627 12342,5565 12426,5565 12510,5440 12593,5351 12677,5262 12761,5262 12844,5262 12928,5155 13012,5102 13095,5093 13179,5084 13263,5022 13346,5022 13430,5022 13514,4924 13598,4853 13681,4844 13765,4835 13849,4835 13932,4835 14016,4835 14100,4621 14183,4559 14267,4515 14351,4443 14434,4443 14518,4443 14602,4443 14685,4265"/>
 <path fill="none" stroke="rgb(126,0,33)" stroke-width="100" stroke-linejoin="round" d="M 1212,11206 L 1296,11206 1380,11206 1464,11206 1547,11206 1631,11206 1715,11206 1798,11206 1882,11206 1966,11206 2049,11206 2133,11206 2217,11206 2300,11206 2384,11169 2468,11169 2552,11169 2635,11169 2719,11169 2803,11169 2886,11169 2970,11133 3054,11133 3137,11133 3221,11133 3305,11115 3388,11115 3472,11115 3556,11115 3639,11097 3723,11079 3807,11043 3891,11025 3974,11025 4058,11025 4142,10989 4225,10989 4309,10971 4393,10917 4476,10898 4560,10898 4644,10898 4727,10790 4811,10754 4895,10718 4979,10718 5062,10718 5146,10718 5230,10718 5313,10628 5397,10519 5481,10429 5564,10393 5648,10357 5732,10357 5815,10357 5899,10266 5983,10230 6066,10194 6150,10194 6234,10158 6318,10158 6401,10158 6485,9941 6569,9941 6652,9941 6736,9941 6820,9869 6903,9869 6987,9869 7071,9851 7154,9815 7238,9815 7322,9797 7406,9779 7489,9779 7572,9779 7656,9670 7739,9652 7823,9616 7907,9616 7990,9598 8074,9598 8158,9598 8241,9490 8325,9453 8409,9345 8492,9327 8576,9309 8660,9309 8744,9309 8827,9255 8911,9201 8995,9128 9078,9110 9162,9038 9246,9038 9329,9038 9413,8966 9497,8912 9580,8821 9664,8803 9748,8785 9832,8785 9915,8785 9999,8695 10083,8605 10166,8568 10250,8532 10334,8514 10417,8514 10501,8514 10585,8496 10668,8388 10752,8370 10836,8334 10919,8316 11003,8316 11087,8316 11171,8243 11254,8117 11338,8099 11422,8063 11505,8008 11589,8008 11673,8008 11756,7918 11840,7918 11924,7900 12007,7882 12091,7882 12175,7882 12259,7882 12342,7882 12426,7882 12510,7756 12593,7738 12677,7665 12761,7665 12844,7665 12928,7521 13012,7485 13095,7449 13179,7358 13263,7304 13346,7304 13430,7304 13514,7123 13598,7015 13681,6943 13765,6943 13849,6943 13932,6943 14016,6943 14100,6762 14183,6708 14267,6654 14351,6636 14434,6636 14518,6636 14602,6636 14685,6383"/>
 <text class="TextShape"><tspan class="TextParagraph" font-family="Liberation Sans, sans-serif" font-size="353px" font-weight="400"><tspan class="TextPosition" x="788" y="11774"><tspan fill="rgb(0,0,0)" stroke="none">27/07</tspan></tspan></tspan></text>
 <text class="TextShape"><tspan class="TextParagraph" font-family="Liberation Sans, sans-serif" font-size="353px" font-weight="400"><tspan class="TextPosition" x="3383" y="11774"><tspan fill="rgb(0,0,0)" stroke="none">27/08</tspan></tspan></tspan></text>
 <text class="TextShape"><tspan class="TextParagraph" font-family="Liberation Sans, sans-serif" font-size="353px" font-weight="400"><tspan class="TextPosition" x="5977" y="11774"><tspan fill="rgb(0,0,0)" stroke="none">27/09</tspan></tspan></tspan></text>
 <text class="TextShape"><tspan class="TextParagraph" font-family="Liberation Sans, sans-serif" font-size="353px" font-weight="400"><tspan class="TextPosition" x="8488" y="11774"><tspan fill="rgb(0,0,0)" stroke="none">27/10</tspan></tspan></tspan></text>
 <text class="TextShape"><tspan class="TextParagraph" font-family="Liberation Sans, sans-serif" font-size="353px" font-weight="400"><tspan class="TextPosition" x="11082" y="11774"><tspan fill="rgb(0,0,0)" stroke="none">27/11</tspan></tspan></tspan></text>
 <text class="TextShape"><tspan class="TextParagraph" font-family="Liberation Sans, sans-serif" font-size="353px" font-weight="400"><tspan class="TextPosition" x="13593" y="11774"><tspan fill="rgb(0,0,0)" stroke="none">27/12</tspan></tspan></tspan></text>
 <text class="TextShape"><tspan class="TextParagraph" font-family="Arial, sans-serif" font-size="353px" font-weight="400"><tspan class="TextPosition" x="777" y="11327"><tspan fill="rgb(0,0,0)" stroke="none">0</tspan></tspan></tspan></text>
 <text class="TextShape"><tspan class="TextParagraph" font-family="Arial, sans-serif" font-size="353px" font-weight="400"><tspan class="TextPosition" x="406" y="10129"><tspan fill="rgb(0,0,0)" stroke="none">200</tspan></tspan></tspan></text>
 <text class="TextShape"><tspan class="TextParagraph" font-family="Arial, sans-serif" font-size="353px" font-weight="400"><tspan class="TextPosition" x="406" y="8931"><tspan fill="rgb(0,0,0)" stroke="none">400</tspan></tspan></tspan></text>
 <text class="TextShape"><tspan class="TextParagraph" font-family="Arial, sans-serif" font-size="353px" font-weight="400"><tspan class="TextPosition" x="406" y="7734"><tspan fill="rgb(0,0,0)" stroke="none">600</tspan></tspan></tspan></text>
 <text class="TextShape"><tspan class="TextParagraph" font-family="Arial, sans-serif" font-size="353px" font-weight="400"><tspan class="TextPosition" x="406" y="6536"><tspan fill="rgb(0,0,0)" stroke="none">800</tspan></tspan></tspan></text>
 <text class="TextShape"><tspan class="TextParagraph" font-family="Arial, sans-serif" font-size="353px" font-weight="400"><tspan class="TextPosition" x="115" y="5338"><tspan fill="rgb(0,0,0)" stroke="none">1.000</tspan></tspan></tspan></text>
 <text class="TextShape"><tspan class="TextParagraph" font-family="Arial, sans-serif" font-size="353px" font-weight="400"><tspan class="TextPosition" x="115" y="4141"><tspan fill="rgb(0,0,0)" stroke="none">1.200</tspan></tspan></tspan></text>
 <text class="TextShape"><tspan class="TextParagraph" font-family="Arial, sans-serif" font-size="353px" font-weight="400"><tspan class="TextPosition" x="115" y="2943"><tspan fill="rgb(0,0,0)" stroke="none">1.400</tspan></tspan></tspan></text>
 <text class="TextShape"><tspan class="TextParagraph" font-family="Arial, sans-serif" font-size="353px" font-weight="400"><tspan class="TextPosition" x="115" y="1745"><tspan fill="rgb(0,0,0)" stroke="none">1.600</tspan></tspan></tspan></text>
 <text class="TextShape"><tspan class="TextParagraph" font-family="Arial, sans-serif" font-size="388px" font-weight="400"><tspan class="TextPosition" x="2410" y="665"><tspan fill="rgb(0,0,0)" stroke="none">Muertes acumuladas CCAA por millón de mayores de 65 años (3)</tspan></tspan></tspan></text>
 <path fill="none" stroke="rgb(0,0,0)" stroke-width="100" stroke-linejoin="round" d="M 2000,2210 L 2800,2210"/>
 <path fill="none" stroke="rgb(255,66,14)" stroke-width="100" stroke-linejoin="round" d="M 2000,3401 L 2800,3401"/>
 <path fill="none" stroke="rgb(255,211,32)" stroke-width="100" stroke-linejoin="round" d="M 2000,4592 L 2800,4592"/>
 <path fill="none" stroke="rgb(87,157,28)" stroke-width="100" stroke-linejoin="round" d="M 2000,5783 L 2800,5783"/>
 <path fill="none" stroke="rgb(126,0,33)" stroke-width="100" stroke-linejoin="round" d="M 2000,6973 L 2800,6973"/>
 <text class="TextShape"><tspan class="TextParagraph" font-family="Liberation Sans, sans-serif" font-size="353px" font-weight="400"><tspan class="TextPosition" x="2900" y="2330"><tspan fill="rgb(0,0,0)" stroke="none">Comunidad Valenciana</tspan></tspan></tspan></text>
 <text class="TextShape"><tspan class="TextParagraph" font-family="Liberation Sans, sans-serif" font-size="353px" font-weight="400"><tspan class="TextPosition" x="2900" y="3521"><tspan fill="rgb(0,0,0)" stroke="none">Cantabria</tspan></tspan></tspan></text>
 <text class="TextShape"><tspan class="TextParagraph" font-family="Liberation Sans, sans-serif" font-size="353px" font-weight="400"><tspan class="TextPosition" x="2900" y="4712"><tspan fill="rgb(0,0,0)" stroke="none">Baleares</tspan></tspan></tspan></text>
 <text class="TextShape"><tspan class="TextParagraph" font-family="Liberation Sans, sans-serif" font-size="353px" font-weight="400"><tspan class="TextPosition" x="2900" y="5903"><tspan fill="rgb(0,0,0)" stroke="none">Galicia</tspan></tspan></tspan></text>
 <text class="TextShape"><tspan class="TextParagraph" font-family="Liberation Sans, sans-serif" font-size="353px" font-weight="400"><tspan class="TextPosition" x="2900" y="7093"><tspan fill="rgb(0,0,0)" stroke="none">Canarias</tspan></tspan></tspan></text>
</svg>