<?xml version="1.0" encoding="UTF-8"?>
<!DOCTYPE svg PUBLIC "-//W3C//DTD SVG 1.1//EN" "http://www.w3.org/Graphics/SVG/1.1/DTD/svg11.dtd">
<svg width="150mm" height="120mm" viewBox="0 0 15000 12000" version="1.1" xmlns="http://www.w3.org/2000/svg" xmlns:xlink="http://www.w3.org/1999/xlink" stroke-width="28.222" stroke-linejoin="round" xml:space="preserve">
 <path fill="rgb(255,255,255)" stroke="none" d="M 7548,12000 L 96,12000 96,0 15000,0 15000,12000 7548,12000 Z"/>
 <path fill="none" stroke="rgb(0,0,0)" stroke-linejoin="round" d="M 7892,11128 L 1091,11128 1091,1246 14694,1246 14694,11128 7892,11128 Z"/>
 <path fill="none" stroke="rgb(0,0,0)" stroke-linejoin="round" d="M 14694,11127 L 1091,11127"/>
 <path fill="none" stroke="rgb(0,0,0)" stroke-linejoin="round" d="M 14694,10228 L 1091,10228"/>
 <path fill="none" stroke="rgb(0,0,0)" stroke-linejoin="round" d="M 14694,9330 L 1091,9330"/>
 <path fill="none" stroke="rgb(0,0,0)" stroke-linejoin="round" d="M 14694,8431 L 1091,8431"/>
 <path fill="none" stroke="rgb(0,0,0)" stroke-linejoin="round" d="M 14694,7533 L 1091,7533"/>
 <path fill="none" stroke="rgb(0,0,0)" stroke-linejoin="round" d="M 14694,6634 L 1091,6634"/>
 <path fill="none" stroke="rgb(0,0,0)" stroke-linejoin="round" d="M 14694,5737 L 1091,5737"/>
 <path fill="none" stroke="rgb(0,0,0)" stroke-linejoin="round" d="M 14694,4838 L 1091,4838"/>
 <path fill="none" stroke="rgb(0,0,0)" stroke-linejoin="round" d="M 14694,3940 L 1091,3940"/>
 <path fill="none" stroke="rgb(0,0,0)" stroke-linejoin="round" d="M 14694,3041 L 1091,3041"/>
 <path fill="none" stroke="rgb(0,0,0)" stroke-linejoin="round" d="M 14694,2143 L 1091,2143"/>
 <path fill="none" stroke="rgb(0,0,0)" stroke-linejoin="round" d="M 14694,1245 L 1091,1245"/>
 <path fill="none" stroke="rgb(0,0,0)" stroke-linejoin="round" d="M 1091,11277 L 1091,11127"/>
 <path fill="none" stroke="rgb(0,0,0)" stroke-linejoin="round" d="M 1091,11277 L 1091,11127"/>
 <path fill="none" stroke="rgb(0,0,0)" stroke-linejoin="round" d="M 4169,11277 L 4169,11127"/>
 <path fill="none" stroke="rgb(0,0,0)" stroke-linejoin="round" d="M 4169,11277 L 4169,11127"/>
 <path fill="none" stroke="rgb(0,0,0)" stroke-linejoin="round" d="M 7247,11277 L 7247,11127"/>
 <path fill="none" stroke="rgb(0,0,0)" stroke-linejoin="round" d="M 7247,11277 L 7247,11127"/>
 <path fill="none" stroke="rgb(0,0,0)" stroke-linejoin="round" d="M 10225,11277 L 10225,11127"/>
 <path fill="none" stroke="rgb(0,0,0)" stroke-linejoin="round" d="M 10225,11277 L 10225,11127"/>
 <path fill="none" stroke="rgb(0,0,0)" stroke-linejoin="round" d="M 13303,11277 L 13303,11127"/>
 <path fill="none" stroke="rgb(0,0,0)" stroke-linejoin="round" d="M 13303,11277 L 13303,11127"/>
 <path fill="none" stroke="rgb(0,0,0)" stroke-linejoin="round" d="M 1091,11127 L 14694,11127"/>
 <path fill="none" stroke="rgb(0,0,0)" stroke-linejoin="round" d="M 942,11127 L 1091,11127"/>
 <path fill="none" stroke="rgb(0,0,0)" stroke-linejoin="round" d="M 942,11127 L 1091,11127"/>
 <path fill="none" stroke="rgb(0,0,0)" stroke-linejoin="round" d="M 942,10228 L 1091,10228"/>
 <path fill="none" stroke="rgb(0,0,0)" stroke-linejoin="round" d="M 942,10228 L 1091,10228"/>
 <path fill="none" stroke="rgb(0,0,0)" stroke-linejoin="round" d="M 942,9330 L 1091,9330"/>
 <path fill="none" stroke="rgb(0,0,0)" stroke-linejoin="round" d="M 942,9330 L 1091,9330"/>
 <path fill="none" stroke="rgb(0,0,0)" stroke-linejoin="round" d="M 942,8431 L 1091,8431"/>
 <path fill="none" stroke="rgb(0,0,0)" stroke-linejoin="round" d="M 942,8431 L 1091,8431"/>
 <path fill="none" stroke="rgb(0,0,0)" stroke-linejoin="round" d="M 942,7533 L 1091,7533"/>
 <path fill="none" stroke="rgb(0,0,0)" stroke-linejoin="round" d="M 942,7533 L 1091,7533"/>
 <path fill="none" stroke="rgb(0,0,0)" stroke-linejoin="round" d="M 942,6634 L 1091,6634"/>
 <path fill="none" stroke="rgb(0,0,0)" stroke-linejoin="round" d="M 942,6634 L 1091,6634"/>
 <path fill="none" stroke="rgb(0,0,0)" stroke-linejoin="round" d="M 942,5737 L 1091,5737"/>
 <path fill="none" stroke="rgb(0,0,0)" stroke-linejoin="round" d="M 942,5737 L 1091,5737"/>
 <path fill="none" stroke="rgb(0,0,0)" stroke-linejoin="round" d="M 942,4838 L 1091,4838"/>
 <path fill="none" stroke="rgb(0,0,0)" stroke-linejoin="round" d="M 942,4838 L 1091,4838"/>
 <path fill="none" stroke="rgb(0,0,0)" stroke-linejoin="round" d="M 942,3940 L 1091,3940"/>
 <path fill="none" stroke="rgb(0,0,0)" stroke-linejoin="round" d="M 942,3940 L 1091,3940"/>
 <path fill="none" stroke="rgb(0,0,0)" stroke-linejoin="round" d="M 942,3041 L 1091,3041"/>
 <path fill="none" stroke="rgb(0,0,0)" stroke-linejoin="round" d="M 942,3041 L 1091,3041"/>
 <path fill="none" stroke="rgb(0,0,0)" stroke-linejoin="round" d="M 942,2143 L 1091,2143"/>
 <path fill="none" stroke="rgb(0,0,0)" stroke-linejoin="round" d="M 942,2143 L 1091,2143"/>
 <path fill="none" stroke="rgb(0,0,0)" stroke-linejoin="round" d="M 942,1245 L 1091,1245"/>
 <path fill="none" stroke="rgb(0,0,0)" stroke-linejoin="round" d="M 942,1245 L 1091,1245"/>
 <path fill="none" stroke="rgb(0,0,0)" stroke-linejoin="round" d="M 1091,11127 L 1091,1245"/>
 <path fill="none" stroke="rgb(0,69,134)" stroke-width="99" stroke-linejoin="round" d="M 1091,11124 L 1189,11124 1289,11116 1388,11111 1487,11111 1587,11111 1686,11111 1785,11111 1885,11108 1984,11108 2083,11108 2183,11105 2282,11103 2381,11103 2481,11098 2580,11098 2679,11095 2779,11092 2877,11092 2977,11084 3076,11084 3175,11082 3275,11082 3374,11082 3473,11082 3573,11079 3672,11074 3771,11074 3871,11071 3970,11071 4069,11071 4169,11071 4268,11071 4367,11071 4467,11071 4565,11071 4665,11069 4764,11069 4863,11066 4963,11066 5062,11066 5161,11063 5261,11037 5360,11035 5459,11035 5559,11032 5658,11027 5757,11016 5857,11011 5956,11008 6055,11008 6155,11006 6253,11006 6352,10992 6452,10987 6551,10985 6651,10982 6750,10971 6849,10956 6949,10940 7048,10932 7147,10929 7247,10929 7346,10922 7445,10906 7545,10898 7644,10890 7743,10887 7843,10872 7941,10861 8040,10848 8140,10837 8239,10816 8339,10795 8438,10785 8537,10759 8637,10761 8736,10751 8835,10735 8935,10706 9034,10693 9133,10680 9233,10661 9332,10651 9431,10622 9531,10596 9629,10567 9728,10525 9828,10491 9927,10462 10026,10425 10126,10391 10225,10357 10325,10299 10424,10222 10523,10154 10623,10083 10722,10028 10821,9952 10921,9865 11020,9773 11119,9665 11219,9476 11317,9379 11416,9290 11516,9177 11615,9058 11714,8887 11814,8772 11913,8633 12013,8409 12112,8191 12211,8039 12311,7886 12410,7600 12509,7437 12609,7153 12708,6880 12807,6722 12907,6535 13005,6225 13104,5990 13204,5711 13303,5414 13402,5067 13502,4839 13601,4631 13700,4261 13800,3943 13899,3701 13999,3404 14098,3125 14197,2907 14297,2758 14396,2482 14495,2340 14595,2058 14694,1727"/>
 <path fill="none" stroke="rgb(255,66,14)" stroke-width="99" stroke-linejoin="round" d="M 1091,11121 L 1189,11116 1289,11111 1388,11106 1487,11102 1587,11102 1686,11102 1785,11092 1885,11092 1984,11088 2083,11086 2183,11082 2282,11082 2381,11082 2481,11077 2580,11072 2679,11066 2779,11061 2877,11054 2977,11054 3076,11054 3175,11047 3275,11039 3374,11034 3473,11030 3573,11022 3672,11019 3771,11018 3871,11013 3970,11008 4069,11008 4169,10997 4268,10991 4367,10989 4467,10987 4565,10977 4665,10969 4764,10960 4863,10954 4963,10960 5062,10956 5161,10955 5261,10947 5360,10934 5459,10926 5559,10918 5658,10891 5757,10885 5857,10883 5956,10871 6055,10855 6155,10840 6253,10823 6352,10771 6452,10762 6551,10759 6651,10741 6750,10715 6849,10700 6949,10683 7048,10632 7147,10619 7247,10610 7346,10583 7445,10554 7545,10533 7644,10512 7743,10466 7843,10452 7941,10441 8040,10418 8140,10395 8239,10368 8339,10343 8438,10306 8537,10288 8637,10273 8736,10241 8835,10204 8935,10169 9034,10140 9133,10080 9233,10050 9332,10021 9431,9972 9531,9884 9629,9829 9728,9775 9828,9674 9927,9628 10026,9589 10126,9503 10225,9327 10325,9245 10424,9166 10523,8982 10623,8907 10722,8829 10821,8690 10921,8402 11020,8273 11119,8151 11219,7872 11317,7770 11416,7679 11516,7494 11615,7084 11714,6974 11814,6831 11913,6517 12013,6398 12112,6296 12211,6126 12311,5717 12410,5574 12509,5430 12609,5047 12708,4962 12807,4890 12907,4721 13005,4383 13104,4255 13204,4141 13303,3819 13402,3747 13502,3681 13601,3544 13700,3283 13800,3179 13899,3070 13999,2859 14098,2808 14197,2728 14297,2605 14396,2326 14495,2226 14595,2128 14694,1917"/>
 <path fill="none" stroke="rgb(255,211,32)" stroke-width="99" stroke-linejoin="round" d="M 2785,11127 L 2877,11117 2977,11115 3076,11113 3175,11112 3275,11107 3374,11101 3473,11099 3573,11098 3672,11092 3771,11089 3871,11088 3970,11082 4069,11076 4169,11071 4268,11068 4367,11063 4467,11063 4565,11062 4665,11061 4764,11057 4863,11052 4963,11048 5062,11044 5161,11043 5261,11042 5360,11030 5459,11027 5559,11021 5658,11019 5757,11016 5857,11014 5956,11010 6055,11000 6155,10993 6253,10985 6352,10974 6452,10964 6551,10957 6651,10953 6750,10939 6849,10925 6949,10910 7048,10897 7147,10884 7247,10877 7346,10872 7445,10845 7545,10818 7644,10796 7743,10771 7843,10752 7941,10740 8040,10733 8140,10704 8239,10677 8339,10648 8438,10615 8537,10584 8637,10560 8736,10541 8835,10487 8935,10435 9034,10382 9133,10331 9233,10274 9332,10248 9431,10218 9531,10127 9629,10054 9728,9982 9828,9897 9927,9831 10026,9774 10126,9735 10225,9596 10325,9479 10424,9372 10523,9268 10623,9145 10722,9083 10821,9032 10921,8881 11020,8695 11119,8551 11219,8416 11317,8260 11416,8201 11516,8193 11615,7925 11714,7700 11814,7486 11913,7343 12013,7168 12112,7104 12211,7024 12311,6797 12410,6596 12509,6406 12609,6212 12708,6083 12807,5933 12907,5855 13005,5624 13104,5361 13204,5172 13303,4975 13402,4793 13502,4711 13601,4634 13700,4406 13800,4160 13899,4003 13999,3812 14098,3661 14197,3573 14297,3502 14396,3275 14495,3072 14595,2877 14694,2716"/>
 <path fill="none" stroke="rgb(87,157,28)" stroke-width="99" stroke-linejoin="round" d="M 1091,11122 L 1189,11116 1289,11109 1388,11105 1487,11088 1587,11084 1686,11082 1785,11082 1885,11079 1984,11077 2083,11071 2183,11064 2282,11056 2381,11043 2481,11037 2580,11032 2679,11026 2779,11013 2877,11009 2977,11002 3076,10996 3175,10994 3275,10983 3374,10979 3473,10974 3573,10966 3672,10962 3771,10957 3871,10947 3970,10938 4069,10934 4169,10930 4268,10917 4367,10910 4467,10908 4565,10902 4665,10897 4764,10891 4863,10887 4963,10878 5062,10867 5161,10863 5261,10857 5360,10850 5459,10844 5559,10837 5658,10831 5757,10820 5857,10805 5956,10797 6055,10788 6155,10782 6253,10760 6352,10748 6452,10737 6551,10709 6651,10692 6750,10681 6849,10675 6949,10668 7048,10658 7147,10640 7247,10621 7346,10613 7445,10600 7545,10583 7644,10570 7743,10557 7843,10531 7941,10510 8040,10482 8140,10452 8239,10435 8339,10413 8438,10388 8537,10377 8637,10349 8736,10319 8835,10285 8935,10270 9034,10246 9133,10202 9233,10174 9332,10133 9431,10097 9531,10064 9629,10030 9728,9996 9828,9930 9927,9885 10026,9844 10126,9786 10225,9726 10325,9675 10424,9604 10523,9518 10623,9435 10722,9356 10821,9257 10921,9161 11020,9035 11119,8936 11219,8825 11317,8705 11416,8602 11516,8467 11615,8334 11714,8159 11814,7992 11913,7844 12013,7726 12112,7564 12211,7369 12311,7195 12410,7026 12509,6878 12609,6748 12708,6615 12807,6459 12907,6300 13005,6118 13104,5967 13204,5792 13303,5648 13402,5462 13502,5325 13601,5158 13700,5004 13800,4858 13899,4689 13999,4520 14098,4363 14197,4177 14297,4010 14396,3837 14495,3687 14595,3503 14694,3299"/>
 <path fill="none" stroke="rgb(126,0,33)" stroke-width="79" stroke-linejoin="round" d="M 1091,11127 L 1189,11114 1289,11114 1388,11114 1487,11114 1587,11114 1686,11114 1785,11114 1885,11106 1984,11106 2083,11106 2183,11106 2282,11106 2381,11106 2481,11106 2580,11095 2679,11095 2779,11095 2877,11095 2977,11095 3076,11095 3175,11095 3275,11073 3374,11073 3473,11073 3573,11073 3672,11073 3771,11073 3871,11073 3970,11029 4069,11029 4169,11029 4268,11029 4367,11029 4467,11029 4565,11029 4665,10996 4764,10996 4863,10996 4963,10996 5062,10996 5161,10996 5261,10996 5360,10978 5459,10978 5559,10978 5658,10978 5757,10978 5857,10978 5956,10978 6055,10959 6155,10959 6253,10959 6352,10959 6452,10959 6551,10959 6651,10959 6750,10914 6849,10914 6949,10914 7048,10914 7147,10914 7247,10914 7346,10914 7445,10774 7545,10774 7644,10774 7743,10774 7843,10774 7941,10774 8040,10774 8140,10652 8239,10652 8339,10652 8438,10652 8537,10652 8637,10652 8736,10652 8835,10448 8935,10448 9034,10448 9133,10448 9233,10448 9332,10448 9431,10448 9531,10197 9629,10197 9728,10197 9828,10197 9927,10197 10026,10197 10126,10197 10225,9747 10325,9747 10424,9747 10523,9747 10623,9747 10722,9747 10821,9747 10921,9152 11020,9152 11119,9152 11219,9152 11317,9152 11416,9152 11516,9152 11615,8377 11714,8377 11814,8377 11913,8377 12013,8377 12112,8377 12211,8377 12311,7726 12410,7726 12509,7726 12609,7726 12708,7726 12807,7726 12907,7726 13005,7151 13104,7151 13204,7151 13303,7151 13402,7151 13502,7151 13601,7151 13700,6598 13800,6598 13899,6598 13999,6598 14098,6598 14197,6598 14297,6598 14396,6136 14495,6136 14595,6136 14694,6136"/>
 <text class="TextShape"><tspan class="TextParagraph" font-family="Liberation Sans, sans-serif" font-size="353px" font-weight="400"><tspan class="TextPosition" x="670" y="11695"><tspan fill="rgb(0,0,0)" stroke="none">27/07</tspan></tspan></tspan></text>
 <text class="TextShape"><tspan class="TextParagraph" font-family="Liberation Sans, sans-serif" font-size="353px" font-weight="400"><tspan class="TextPosition" x="3748" y="11695"><tspan fill="rgb(0,0,0)" stroke="none">27/08</tspan></tspan></tspan></text>
 <text class="TextShape"><tspan class="TextParagraph" font-family="Liberation Sans, sans-serif" font-size="353px" font-weight="400"><tspan class="TextPosition" x="6826" y="11695"><tspan fill="rgb(0,0,0)" stroke="none">27/09</tspan></tspan></tspan></text>
 <text class="TextShape"><tspan class="TextParagraph" font-family="Liberation Sans, sans-serif" font-size="353px" font-weight="400"><tspan class="TextPosition" x="9804" y="11695"><tspan fill="rgb(0,0,0)" stroke="none">27/10</tspan></tspan></tspan></text>
 <text class="TextShape"><tspan class="TextParagraph" font-family="Liberation Sans, sans-serif" font-size="353px" font-weight="400"><tspan class="TextPosition" x="12882" y="11695"><tspan fill="rgb(0,0,0)" stroke="none">27/11</tspan></tspan></tspan></text>
 <text class="TextShape"><tspan class="TextParagraph" font-family="Liberation Sans, sans-serif" font-size="353px" font-weight="400"><tspan class="TextPosition" x="290" y="10349"><tspan fill="rgb(0,0,0)" stroke="none">200</tspan></tspan></tspan></text>
 <text class="TextShape"><tspan class="TextParagraph" font-family="Liberation Sans, sans-serif" font-size="353px" font-weight="400"><tspan class="TextPosition" x="290" y="9451"><tspan fill="rgb(0,0,0)" stroke="none">400</tspan></tspan></tspan></text>
 <text class="TextShape"><tspan class="TextParagraph" font-family="Liberation Sans, sans-serif" font-size="353px" font-weight="400"><tspan class="TextPosition" x="290" y="8552"><tspan fill="rgb(0,0,0)" stroke="none">600</tspan></tspan></tspan></text>
 <text class="TextShape"><tspan class="TextParagraph" font-family="Liberation Sans, sans-serif" font-size="353px" font-weight="400"><tspan class="TextPosition" x="290" y="7654"><tspan fill="rgb(0,0,0)" stroke="none">800</tspan></tspan></tspan></text>
 <text class="TextShape"><tspan class="TextParagraph" font-family="Liberation Sans, sans-serif" font-size="353px" font-weight="400"><tspan class="TextPosition" x="1" y="6755"><tspan fill="rgb(0,0,0)" stroke="none">1.000</tspan></tspan></tspan></text>
 <text class="TextShape"><tspan class="TextParagraph" font-family="Liberation Sans, sans-serif" font-size="353px" font-weight="400"><tspan class="TextPosition" x="1" y="5857"><tspan fill="rgb(0,0,0)" stroke="none">1.200</tspan></tspan></tspan></text>
 <text class="TextShape"><tspan class="TextParagraph" font-family="Liberation Sans, sans-serif" font-size="353px" font-weight="400"><tspan class="TextPosition" x="1" y="4958"><tspan fill="rgb(0,0,0)" stroke="none">1.400</tspan></tspan></tspan></text>
 <text class="TextShape"><tspan class="TextParagraph" font-family="Liberation Sans, sans-serif" font-size="353px" font-weight="400"><tspan class="TextPosition" x="1" y="4060"><tspan fill="rgb(0,0,0)" stroke="none">1.600</tspan></tspan></tspan></text>
 <text class="TextShape"><tspan class="TextParagraph" font-family="Liberation Sans, sans-serif" font-size="353px" font-weight="400"><tspan class="TextPosition" x="1" y="3161"><tspan fill="rgb(0,0,0)" stroke="none">1.800</tspan></tspan></tspan></text>
 <text class="TextShape"><tspan class="TextParagraph" font-family="Liberation Sans, sans-serif" font-size="353px" font-weight="400"><tspan class="TextPosition" x="1" y="2263"><tspan fill="rgb(0,0,0)" stroke="none">2.000</tspan></tspan></tspan></text>
 <text class="TextShape"><tspan class="TextParagraph" font-family="Liberation Sans, sans-serif" font-size="353px" font-weight="400"><tspan class="TextPosition" x="1" y="1365"><tspan fill="rgb(0,0,0)" stroke="none">2.200</tspan></tspan></tspan></text>
 <text class="TextShape"><tspan class="TextParagraph" font-family="Liberation Sans, sans-serif" font-size="423px" font-weight="400"><tspan class="TextPosition" x="3177" y="497"><tspan fill="rgb(0,0,0)" stroke="none">Muertes acumuladas por millón de mayores de 65 años</tspan></tspan></tspan><tspan class="TextParagraph" font-family="Liberation Sans, sans-serif" font-size="423px" font-weight="400"><tspan class="TextPosition" x="6003" y="947"><tspan fill="rgb(0,0,0)" stroke="none">en Europa Occidental (2)</tspan></tspan></tspan></text>
 <path fill="none" stroke="rgb(0,69,134)" stroke-width="99" stroke-linejoin="round" d="M 2127,1639 L 2922,1639"/>
 <path fill="none" stroke="rgb(255,66,14)" stroke-width="99" stroke-linejoin="round" d="M 2127,2578 L 2922,2578"/>
 <path fill="none" stroke="rgb(255,211,32)" stroke-width="99" stroke-linejoin="round" d="M 2127,3517 L 2922,3517"/>
 <path fill="none" stroke="rgb(87,157,28)" stroke-width="99" stroke-linejoin="round" d="M 2127,4456 L 2922,4456"/>
 <path fill="none" stroke="rgb(126,0,33)" stroke-width="79" stroke-linejoin="round" d="M 2127,5395 L 2922,5395"/>
 <text class="TextShape"><tspan class="TextParagraph" font-family="Liberation Sans, sans-serif" font-size="353px" font-weight="400"><tspan class="TextPosition" x="3021" y="1759"><tspan fill="rgb(0,0,0)" stroke="none">Austria</tspan></tspan></tspan></text>
 <text class="TextShape"><tspan class="TextParagraph" font-family="Liberation Sans, sans-serif" font-size="353px" font-weight="400"><tspan class="TextPosition" x="3021" y="2698"><tspan fill="rgb(0,0,0)" stroke="none">Francia</tspan></tspan></tspan></text>
 <text class="TextShape"><tspan class="TextParagraph" font-family="Liberation Sans, sans-serif" font-size="353px" font-weight="400"><tspan class="TextPosition" x="3021" y="3637"><tspan fill="rgb(0,0,0)" stroke="none">Reino Unido</tspan></tspan></tspan></text>
 <text class="TextShape"><tspan class="TextParagraph" font-family="Liberation Sans, sans-serif" font-size="353px" font-weight="400"><tspan class="TextPosition" x="3021" y="4576"><tspan fill="rgb(0,0,0)" stroke="none">Portugal</tspan></tspan></tspan></text>
 <text class="TextShape"><tspan class="TextParagraph" font-family="Liberation Sans, sans-serif" font-size="353px" font-weight="400"><tspan class="TextPosition" x="3021" y="5515"><tspan fill="rgb(0,0,0)" stroke="none">Holanda</tspan></tspan></tspan></text>
</svg>