<?xml version="1.0" encoding="UTF-8"?>
<!DOCTYPE svg PUBLIC "-//W3C//DTD SVG 1.1//EN" "http://www.w3.org/Graphics/SVG/1.1/DTD/svg11.dtd">
<svg width="150mm" height="120mm" viewBox="0 0 15000 12000" version="1.1" xmlns="http://www.w3.org/2000/svg" xmlns:xlink="http://www.w3.org/1999/xlink" stroke-width="28.222" stroke-linejoin="round" xml:space="preserve">
 <path fill="rgb(255,255,255)" stroke="none" d="M 7548,12000 L 96,12000 96,0 15000,0 15000,12000 7548,12000 Z"/>
 <path fill="none" stroke="rgb(0,0,0)" stroke-linejoin="round" d="M 7892,11128 L 1091,11128 1091,1246 14694,1246 14694,11128 7892,11128 Z"/>
 <path fill="none" stroke="rgb(0,0,0)" stroke-linejoin="round" d="M 14694,11127 L 1091,11127"/>
 <path fill="none" stroke="rgb(0,0,0)" stroke-linejoin="round" d="M 14694,9479 L 1091,9479"/>
 <path fill="none" stroke="rgb(0,0,0)" stroke-linejoin="round" d="M 14694,7832 L 1091,7832"/>
 <path fill="none" stroke="rgb(0,0,0)" stroke-linejoin="round" d="M 14694,6185 L 1091,6185"/>
 <path fill="none" stroke="rgb(0,0,0)" stroke-linejoin="round" d="M 14694,4539 L 1091,4539"/>
 <path fill="none" stroke="rgb(0,0,0)" stroke-linejoin="round" d="M 14694,2892 L 1091,2892"/>
 <path fill="none" stroke="rgb(0,0,0)" stroke-linejoin="round" d="M 14694,1245 L 1091,1245"/>
 <path fill="none" stroke="rgb(0,0,0)" stroke-linejoin="round" d="M 1091,11277 L 1091,11127"/>
 <path fill="none" stroke="rgb(0,0,0)" stroke-linejoin="round" d="M 1091,11277 L 1091,11127"/>
 <path fill="none" stroke="rgb(0,0,0)" stroke-linejoin="round" d="M 3726,11277 L 3726,11127"/>
 <path fill="none" stroke="rgb(0,0,0)" stroke-linejoin="round" d="M 3726,11277 L 3726,11127"/>
 <path fill="none" stroke="rgb(0,0,0)" stroke-linejoin="round" d="M 6361,11277 L 6361,11127"/>
 <path fill="none" stroke="rgb(0,0,0)" stroke-linejoin="round" d="M 6361,11277 L 6361,11127"/>
 <path fill="none" stroke="rgb(0,0,0)" stroke-linejoin="round" d="M 8912,11277 L 8912,11127"/>
 <path fill="none" stroke="rgb(0,0,0)" stroke-linejoin="round" d="M 8912,11277 L 8912,11127"/>
 <path fill="none" stroke="rgb(0,0,0)" stroke-linejoin="round" d="M 11548,11277 L 11548,11127"/>
 <path fill="none" stroke="rgb(0,0,0)" stroke-linejoin="round" d="M 11548,11277 L 11548,11127"/>
 <path fill="none" stroke="rgb(0,0,0)" stroke-linejoin="round" d="M 14098,11277 L 14098,11127"/>
 <path fill="none" stroke="rgb(0,0,0)" stroke-linejoin="round" d="M 14098,11277 L 14098,11127"/>
 <path fill="none" stroke="rgb(0,0,0)" stroke-linejoin="round" d="M 1091,11127 L 14694,11127"/>
 <path fill="none" stroke="rgb(0,0,0)" stroke-linejoin="round" d="M 942,11127 L 1091,11127"/>
 <path fill="none" stroke="rgb(0,0,0)" stroke-linejoin="round" d="M 942,11127 L 1091,11127"/>
 <path fill="none" stroke="rgb(0,0,0)" stroke-linejoin="round" d="M 942,9479 L 1091,9479"/>
 <path fill="none" stroke="rgb(0,0,0)" stroke-linejoin="round" d="M 942,9479 L 1091,9479"/>
 <path fill="none" stroke="rgb(0,0,0)" stroke-linejoin="round" d="M 942,7832 L 1091,7832"/>
 <path fill="none" stroke="rgb(0,0,0)" stroke-linejoin="round" d="M 942,7832 L 1091,7832"/>
 <path fill="none" stroke="rgb(0,0,0)" stroke-linejoin="round" d="M 942,6185 L 1091,6185"/>
 <path fill="none" stroke="rgb(0,0,0)" stroke-linejoin="round" d="M 942,6185 L 1091,6185"/>
 <path fill="none" stroke="rgb(0,0,0)" stroke-linejoin="round" d="M 942,4539 L 1091,4539"/>
 <path fill="none" stroke="rgb(0,0,0)" stroke-linejoin="round" d="M 942,4539 L 1091,4539"/>
 <path fill="none" stroke="rgb(0,0,0)" stroke-linejoin="round" d="M 942,2892 L 1091,2892"/>
 <path fill="none" stroke="rgb(0,0,0)" stroke-linejoin="round" d="M 942,2892 L 1091,2892"/>
 <path fill="none" stroke="rgb(0,0,0)" stroke-linejoin="round" d="M 942,1245 L 1091,1245"/>
 <path fill="none" stroke="rgb(0,0,0)" stroke-linejoin="round" d="M 942,1245 L 1091,1245"/>
 <path fill="none" stroke="rgb(0,0,0)" stroke-linejoin="round" d="M 1091,11127 L 1091,1245"/>
 <path fill="none" stroke="rgb(0,69,134)" stroke-width="99" stroke-linejoin="round" d="M 2541,11127 L 2621,11119 2705,11118 2791,11117 2876,11116 2961,11113 3046,11108 3131,11106 3216,11106 3300,11101 3386,11099 3471,11098 3556,11094 3641,11089 3726,11086 3811,11083 3896,11080 3981,11080 4066,11079 4151,11078 4236,11076 4321,11072 4406,11069 4492,11066 4576,11065 4662,11064 4746,11056 4831,11053 4916,11049 5001,11048 5087,11045 5171,11044 5257,11041 5341,11034 5427,11028 5511,11022 5596,11015 5682,11007 5766,11002 5852,10999 5936,10989 6022,10979 6106,10968 6192,10958 6277,10948 6361,10944 6447,10940 6531,10920 6617,10901 6701,10884 6787,10866 6872,10852 6957,10843 7042,10838 7126,10817 7212,10797 7296,10776 7382,10751 7467,10729 7552,10711 7637,10697 7722,10657 7807,10619 7892,10581 7977,10543 8062,10501 8147,10482 8232,10460 8317,10393 8402,10340 8488,10287 8572,10225 8657,10177 8742,10135 8827,10106 8912,10004 8997,9918 9083,9840 9167,9764 9253,9673 9337,9628 9422,9590 9507,9480 9592,9343 9678,9238 9762,9139 9848,9024 9932,8981 10018,8976 10102,8779 10187,8613 10273,8457 10357,8352 10443,8224 10527,8177 10613,8118 10697,7951 10783,7804 10868,7665 10952,7523 11038,7428 11122,7317 11208,7260 11293,7091 11378,6898 11463,6759 11548,6614 11633,6481 11717,6421 11803,6365 11888,6197 11973,6017 12058,5903 12143,5763 12228,5652 12313,5588 12398,5535 12483,5369 12568,5220 12653,5077 12738,4959 12823,4815 12908,4774 12993,4710 13079,4569 13163,4399 13248,4251 13333,4115 13418,3966 13503,3875 13588,3816 13674,3623 13758,3416 13844,3257 13928,3098 14013,3040 14098,2943 14183,2844 14269,2717 14353,2444 14439,2175 14523,2005 14609,1881 14694,1755"/>
 <path fill="none" stroke="rgb(255,66,14)" stroke-width="99" stroke-linejoin="round" d="M 1091,11126 L 1175,11125 1261,11123 1345,11122 1431,11121 1515,11121 1601,11121 1686,11111 1770,11101 1856,11100 1940,11100 2026,11099 2110,11099 2196,11099 2281,11071 2366,11069 2451,11069 2535,11059 2621,11055 2705,11055 2791,11055 2876,11043 2961,11034 3046,10985 3131,10978 3216,10969 3300,10969 3386,10969 3471,10956 3556,10935 3641,10917 3726,10907 3811,10902 3896,10902 3981,10902 4066,10869 4151,10847 4236,10830 4321,10815 4406,10743 4492,10743 4576,10743 4662,10705 4746,10675 4831,10662 4916,10634 5001,10616 5087,10616 5171,10616 5257,10576 5341,10516 5427,10423 5511,10360 5596,10325 5682,10325 5766,10325 5852,10260 5936,10166 6022,10116 6106,10083 6192,10039 6277,10039 6361,10039 6447,9969 6531,9890 6617,9822 6701,9751 6787,9707 6872,9707 6957,9707 7042,9653 7126,9552 7212,9522 7296,9473 7382,9380 7467,9380 7552,9380 7637,9304 7722,9273 7807,9192 7892,9137 7977,9051 8062,9051 8147,9051 8232,8967 8317,8882 8402,8821 8488,8761 8572,8671 8657,8671 8742,8671 8827,8563 8912,8459 8997,8394 9083,8327 9167,8234 9253,8234 9337,8234 9422,8087 9507,7994 9592,7364 9678,7221 9762,7086 9848,7086 9932,7086 10018,6887 10102,6727 10187,6592 10273,6454 10357,6334 10443,6334 10527,6334 10613,6146 10697,5978 10783,5842 10868,5744 10952,5616 11038,5616 11122,5616 11208,5417 11293,5209 11378,5065 11463,4934 11548,4820 11633,4820 11717,4820 11803,4664 11888,4493 11973,4387 12058,4288 12143,4205 12228,4205 12313,4205 12398,4052 12483,4052 12568,3907 12653,3781 12738,3672 12823,3672 12908,3672 12993,3521 13079,3370 13163,3294 13248,3224 13333,3166 13418,3166 13503,3166 13588,3036 13674,2935 13758,2866 13844,2817 13928,2817 14013,2817 14098,2817 14183,2702 14269,2577 14353,2481 14439,2424 14523,2424 14609,2424 14694,2424"/>
 <path fill="none" stroke="rgb(255,211,32)" stroke-width="99" stroke-linejoin="round" d="M 1091,11122 L 1175,11119 1261,11115 1345,11111 1431,11108 1515,11108 1601,11108 1686,11101 1770,11101 1856,11099 1940,11097 2026,11094 2110,11094 2196,11094 2281,11090 2366,11087 2451,11082 2535,11078 2621,11074 2705,11074 2791,11074 2876,11068 2961,11063 3046,11058 3131,11055 3216,11050 3300,11048 3386,11047 3471,11044 3556,11040 3641,11040 3726,11032 3811,11027 3896,11025 3981,11024 4066,11017 4151,11011 4236,11005 4321,11000 4406,11005 4492,11002 4576,11001 4662,10995 4746,10985 4831,10979 4916,10973 5001,10954 5087,10949 5171,10948 5257,10939 5341,10927 5427,10916 5511,10904 5596,10866 5682,10860 5766,10857 5852,10844 5936,10824 6022,10814 6106,10801 6192,10764 6277,10754 6361,10748 6447,10728 6531,10707 6617,10691 6701,10676 6787,10642 6872,10632 6957,10624 7042,10607 7126,10590 7212,10571 7296,10552 7382,10525 7467,10512 7552,10500 7637,10477 7722,10450 7807,10425 7892,10403 7977,10359 8062,10337 8147,10316 8232,10280 8317,10215 8402,10175 8488,10135 8572,10062 8657,10028 8742,9999 8827,9936 8912,9807 8997,9747 9083,9689 9167,9554 9253,9499 9337,9442 9422,9339 9507,9129 9592,9034 9678,8944 9762,8740 9848,8665 9932,8598 10018,8463 10102,8162 10187,8081 10273,7976 10357,7746 10443,7659 10527,7584 10613,7459 10697,7159 10783,7054 10868,6948 10952,6667 11038,6605 11122,6552 11208,6429 11293,6181 11378,6087 11463,6003 11548,5768 11633,5715 11717,5666 11803,5566 11888,5375 11973,5299 12058,5219 12143,5064 12228,5027 12313,4968 12398,4878 12483,4673 12568,4600 12653,4528 12738,4373 12823,4325 12908,4288 12993,4197 13079,4002 13163,3930 13248,3867 13333,3716 13418,3670 13503,3637 13588,3551 13674,3353 13758,3285 13844,3213 13928,3174 14013,3138 14098,3095 14183,3006 14269,2767 14353,2692 14439,2630 14523,2597 14609,2559 14694,2530"/>
 <path fill="none" stroke="rgb(87,157,28)" stroke-width="99" stroke-linejoin="round" d="M 1091,11123 L 1175,11119 1261,11114 1345,11111 1431,11098 1515,11095 1601,11094 1686,11094 1770,11092 1856,11090 1940,11086 2026,11081 2110,11075 2196,11065 2281,11061 2366,11057 2451,11053 2535,11043 2621,11040 2705,11035 2791,11031 2876,11029 2961,11021 3046,11018 3131,11015 3216,11009 3300,11006 3386,11002 3471,10995 3556,10988 3641,10985 3726,10982 3811,10973 3896,10968 3981,10966 4066,10962 4151,10958 4236,10954 4321,10951 4406,10944 4492,10937 4576,10933 4662,10929 4746,10924 4831,10919 4916,10915 5001,10910 5087,10902 5171,10891 5257,10885 5341,10878 5427,10874 5511,10858 5596,10849 5682,10841 5766,10820 5852,10808 5936,10800 6022,10795 6106,10790 6192,10783 6277,10770 6361,10756 6447,10750 6531,10740 6617,10728 6701,10718 6787,10709 6872,10690 6957,10674 7042,10654 7126,10632 7212,10619 7296,10604 7382,10585 7467,10577 7552,10557 7637,10535 7722,10509 7807,10498 7892,10481 7977,10448 8062,10428 8147,10398 8232,10371 8317,10348 8402,10323 8488,10297 8572,10249 8657,10216 8742,10186 8827,10144 8912,10100 8997,10062 9083,10010 9167,9947 9253,9886 9337,9828 9422,9756 9507,9685 9592,9592 9678,9520 9762,9439 9848,9351 9932,9275 10018,9176 10102,9079 10187,8950 10273,8828 10357,8719 10443,8633 10527,8514 10613,8371 10697,8244 10783,8120 10868,8011 10952,7915 11038,7818 11122,7703 11208,7587 11293,7454 11378,7342 11463,7214 11548,7108 11633,6972 11717,6871 11803,6749 11888,6636 11973,6529 12058,6405 12143,6281 12228,6166 12313,6030 12398,5908 12483,5781 12568,5671 12653,5536 12738,5387 12823,5249 12908,5095 12993,4953 13079,4822 13163,4693 13248,4556 13333,4438 13418,4303 13503,4192 13588,4102 13674,4003 13758,3864 13844,3754 13928,3652 14013,3529 14098,3430 14183,3339 14269,3223 14353,3099 14439,2980 14523,2876 14609,2761 14694,2647"/>
 <text class="TextShape"><tspan class="TextParagraph" font-family="Liberation Sans, sans-serif" font-size="353px" font-weight="400"><tspan class="TextPosition" x="670" y="11695"><tspan fill="rgb(0,0,0)" stroke="none">27/07</tspan></tspan></tspan></text>
 <text class="TextShape"><tspan class="TextParagraph" font-family="Liberation Sans, sans-serif" font-size="353px" font-weight="400"><tspan class="TextPosition" x="3305" y="11695"><tspan fill="rgb(0,0,0)" stroke="none">27/08</tspan></tspan></tspan></text>
 <text class="TextShape"><tspan class="TextParagraph" font-family="Liberation Sans, sans-serif" font-size="353px" font-weight="400"><tspan class="TextPosition" x="5941" y="11695"><tspan fill="rgb(0,0,0)" stroke="none">27/09</tspan></tspan></tspan></text>
 <text class="TextShape"><tspan class="TextParagraph" font-family="Liberation Sans, sans-serif" font-size="353px" font-weight="400"><tspan class="TextPosition" x="8491" y="11695"><tspan fill="rgb(0,0,0)" stroke="none">27/10</tspan></tspan></tspan></text>
 <text class="TextShape"><tspan class="TextParagraph" font-family="Liberation Sans, sans-serif" font-size="353px" font-weight="400"><tspan class="TextPosition" x="11127" y="11695"><tspan fill="rgb(0,0,0)" stroke="none">27/11</tspan></tspan></tspan></text>
 <text class="TextShape"><tspan class="TextParagraph" font-family="Liberation Sans, sans-serif" font-size="353px" font-weight="400"><tspan class="TextPosition" x="13677" y="11695"><tspan fill="rgb(0,0,0)" stroke="none">27/12</tspan></tspan></tspan></text>
 <text class="TextShape"><tspan class="TextParagraph" font-family="Liberation Sans, sans-serif" font-size="353px" font-weight="400"><tspan class="TextPosition" x="290" y="9600"><tspan fill="rgb(0,0,0)" stroke="none">500</tspan></tspan></tspan></text>
 <text class="TextShape"><tspan class="TextParagraph" font-family="Liberation Sans, sans-serif" font-size="353px" font-weight="400"><tspan class="TextPosition" x="1" y="7953"><tspan fill="rgb(0,0,0)" stroke="none">1.000</tspan></tspan></tspan></text>
 <text class="TextShape"><tspan class="TextParagraph" font-family="Liberation Sans, sans-serif" font-size="353px" font-weight="400"><tspan class="TextPosition" x="1" y="6306"><tspan fill="rgb(0,0,0)" stroke="none">1.500</tspan></tspan></tspan></text>
 <text class="TextShape"><tspan class="TextParagraph" font-family="Liberation Sans, sans-serif" font-size="353px" font-weight="400"><tspan class="TextPosition" x="1" y="4659"><tspan fill="rgb(0,0,0)" stroke="none">2.000</tspan></tspan></tspan></text>
 <text class="TextShape"><tspan class="TextParagraph" font-family="Liberation Sans, sans-serif" font-size="353px" font-weight="400"><tspan class="TextPosition" x="1" y="3012"><tspan fill="rgb(0,0,0)" stroke="none">2.500</tspan></tspan></tspan></text>
 <text class="TextShape"><tspan class="TextParagraph" font-family="Liberation Sans, sans-serif" font-size="353px" font-weight="400"><tspan class="TextPosition" x="1" y="1365"><tspan fill="rgb(0,0,0)" stroke="none">3.000</tspan></tspan></tspan></text>
 <text class="TextShape"><tspan class="TextParagraph" font-family="Liberation Sans, sans-serif" font-size="423px" font-weight="400"><tspan class="TextPosition" x="3222" y="497"><tspan fill="rgb(0,0,0)" stroke="none">Muertes acumuladas por millón de mayores de 65 años</tspan></tspan></tspan><tspan class="TextParagraph" font-family="Liberation Sans, sans-serif" font-size="423px" font-weight="400"><tspan class="TextPosition" x="6049" y="947"><tspan fill="rgb(0,0,0)" stroke="none">en Europa Occidental (2)</tspan></tspan></tspan></text>
 <path fill="none" stroke="rgb(0,69,134)" stroke-width="99" stroke-linejoin="round" d="M 1945,1645 L 2740,1645"/>
 <path fill="none" stroke="rgb(255,66,14)" stroke-width="99" stroke-linejoin="round" d="M 1945,2501 L 2740,2501"/>
 <path fill="none" stroke="rgb(255,211,32)" stroke-width="99" stroke-linejoin="round" d="M 1945,3357 L 2740,3357"/>
 <path fill="none" stroke="rgb(87,157,28)" stroke-width="99" stroke-linejoin="round" d="M 1945,4213 L 2740,4213"/>
 <text class="TextShape"><tspan class="TextParagraph" font-family="Liberation Sans, sans-serif" font-size="353px" font-weight="400"><tspan class="TextPosition" x="2839" y="1765"><tspan fill="rgb(0,0,0)" stroke="none">Reino Unido</tspan></tspan></tspan></text>
 <text class="TextShape"><tspan class="TextParagraph" font-family="Liberation Sans, sans-serif" font-size="353px" font-weight="400"><tspan class="TextPosition" x="2839" y="2621"><tspan fill="rgb(0,0,0)" stroke="none">España</tspan></tspan></tspan></text>
 <text class="TextShape"><tspan class="TextParagraph" font-family="Liberation Sans, sans-serif" font-size="353px" font-weight="400"><tspan class="TextPosition" x="2839" y="3477"><tspan fill="rgb(0,0,0)" stroke="none">Francia</tspan></tspan></tspan></text>
 <text class="TextShape"><tspan class="TextParagraph" font-family="Liberation Sans, sans-serif" font-size="353px" font-weight="400"><tspan class="TextPosition" x="2839" y="4333"><tspan fill="rgb(0,0,0)" stroke="none">Portugal</tspan></tspan></tspan></text>
</svg>