<?xml version="1.0" encoding="UTF-8"?>
<!DOCTYPE svg PUBLIC "-//W3C//DTD SVG 1.1//EN" "http://www.w3.org/Graphics/SVG/1.1/DTD/svg11.dtd">
<svg width="180mm" height="120mm" viewBox="0 0 18000 12000" version="1.1" xmlns="http://www.w3.org/2000/svg" xmlns:xlink="http://www.w3.org/1999/xlink" stroke-width="28.222" stroke-linejoin="round" xml:space="preserve">
 <path fill="rgb(255,255,255)" stroke="none" d="M 9000,12000 L 0,12000 0,0 18000,0 18000,12000 9000,12000 Z"/>
 <path fill="none" stroke="rgb(178,178,178)" stroke-width="50" stroke-linejoin="round" d="M 8240,11248 L 1280,11248 1280,932 15199,932 15199,11248 8240,11248 Z"/>
 <path fill="none" stroke="rgb(0,0,0)" stroke-linejoin="round" d="M 15199,11247 L 1280,11247"/>
 <path fill="none" stroke="rgb(0,0,0)" stroke-linejoin="round" d="M 15199,10215 L 1280,10215"/>
 <path fill="none" stroke="rgb(0,0,0)" stroke-linejoin="round" d="M 15199,9183 L 1280,9183"/>
 <path fill="none" stroke="rgb(0,0,0)" stroke-linejoin="round" d="M 15199,8151 L 1280,8151"/>
 <path fill="none" stroke="rgb(0,0,0)" stroke-linejoin="round" d="M 15199,7120 L 1280,7120"/>
 <path fill="none" stroke="rgb(0,0,0)" stroke-linejoin="round" d="M 15199,6088 L 1280,6088"/>
 <path fill="none" stroke="rgb(0,0,0)" stroke-linejoin="round" d="M 15199,5057 L 1280,5057"/>
 <path fill="none" stroke="rgb(0,0,0)" stroke-linejoin="round" d="M 15199,4026 L 1280,4026"/>
 <path fill="none" stroke="rgb(0,0,0)" stroke-linejoin="round" d="M 15199,2994 L 1280,2994"/>
 <path fill="none" stroke="rgb(0,0,0)" stroke-linejoin="round" d="M 15199,1962 L 1280,1962"/>
 <path fill="none" stroke="rgb(0,0,0)" stroke-linejoin="round" d="M 15199,931 L 1280,931"/>
 <path fill="none" stroke="rgb(179,179,179)" stroke-linejoin="round" d="M 1280,11397 L 1280,11247"/>
 <path fill="none" stroke="rgb(179,179,179)" stroke-linejoin="round" d="M 1280,11397 L 1280,11247"/>
 <path fill="none" stroke="rgb(179,179,179)" stroke-linejoin="round" d="M 2400,11397 L 2400,11247"/>
 <path fill="none" stroke="rgb(179,179,179)" stroke-linejoin="round" d="M 2400,11397 L 2400,11247"/>
 <path fill="none" stroke="rgb(179,179,179)" stroke-linejoin="round" d="M 3520,11397 L 3520,11247"/>
 <path fill="none" stroke="rgb(179,179,179)" stroke-linejoin="round" d="M 3520,11397 L 3520,11247"/>
 <path fill="none" stroke="rgb(179,179,179)" stroke-linejoin="round" d="M 4640,11397 L 4640,11247"/>
 <path fill="none" stroke="rgb(179,179,179)" stroke-linejoin="round" d="M 4640,11397 L 4640,11247"/>
 <path fill="none" stroke="rgb(179,179,179)" stroke-linejoin="round" d="M 5760,11397 L 5760,11247"/>
 <path fill="none" stroke="rgb(179,179,179)" stroke-linejoin="round" d="M 5760,11397 L 5760,11247"/>
 <path fill="none" stroke="rgb(179,179,179)" stroke-linejoin="round" d="M 6880,11397 L 6880,11247"/>
 <path fill="none" stroke="rgb(179,179,179)" stroke-linejoin="round" d="M 6880,11397 L 6880,11247"/>
 <path fill="none" stroke="rgb(179,179,179)" stroke-linejoin="round" d="M 7999,11397 L 7999,11247"/>
 <path fill="none" stroke="rgb(179,179,179)" stroke-linejoin="round" d="M 7999,11397 L 7999,11247"/>
 <path fill="none" stroke="rgb(179,179,179)" stroke-linejoin="round" d="M 9119,11397 L 9119,11247"/>
 <path fill="none" stroke="rgb(179,179,179)" stroke-linejoin="round" d="M 9119,11397 L 9119,11247"/>
 <path fill="none" stroke="rgb(179,179,179)" stroke-linejoin="round" d="M 10239,11397 L 10239,11247"/>
 <path fill="none" stroke="rgb(179,179,179)" stroke-linejoin="round" d="M 10239,11397 L 10239,11247"/>
 <path fill="none" stroke="rgb(179,179,179)" stroke-linejoin="round" d="M 11359,11397 L 11359,11247"/>
 <path fill="none" stroke="rgb(179,179,179)" stroke-linejoin="round" d="M 11359,11397 L 11359,11247"/>
 <path fill="none" stroke="rgb(179,179,179)" stroke-linejoin="round" d="M 12479,11397 L 12479,11247"/>
 <path fill="none" stroke="rgb(179,179,179)" stroke-linejoin="round" d="M 12479,11397 L 12479,11247"/>
 <path fill="none" stroke="rgb(179,179,179)" stroke-linejoin="round" d="M 13599,11397 L 13599,11247"/>
 <path fill="none" stroke="rgb(179,179,179)" stroke-linejoin="round" d="M 13599,11397 L 13599,11247"/>
 <path fill="none" stroke="rgb(179,179,179)" stroke-linejoin="round" d="M 14718,11397 L 14718,11247"/>
 <path fill="none" stroke="rgb(179,179,179)" stroke-linejoin="round" d="M 14718,11397 L 14718,11247"/>
 <path fill="none" stroke="rgb(179,179,179)" stroke-linejoin="round" d="M 1280,11247 L 15199,11247"/>
 <path fill="none" stroke="rgb(0,0,0)" stroke-linejoin="round" d="M 1130,11247 L 1280,11247"/>
 <path fill="none" stroke="rgb(0,0,0)" stroke-linejoin="round" d="M 1130,11247 L 1280,11247"/>
 <path fill="none" stroke="rgb(0,0,0)" stroke-linejoin="round" d="M 1130,10215 L 1280,10215"/>
 <path fill="none" stroke="rgb(0,0,0)" stroke-linejoin="round" d="M 1130,10215 L 1280,10215"/>
 <path fill="none" stroke="rgb(0,0,0)" stroke-linejoin="round" d="M 1130,9183 L 1280,9183"/>
 <path fill="none" stroke="rgb(0,0,0)" stroke-linejoin="round" d="M 1130,9183 L 1280,9183"/>
 <path fill="none" stroke="rgb(0,0,0)" stroke-linejoin="round" d="M 1130,8151 L 1280,8151"/>
 <path fill="none" stroke="rgb(0,0,0)" stroke-linejoin="round" d="M 1130,8151 L 1280,8151"/>
 <path fill="none" stroke="rgb(0,0,0)" stroke-linejoin="round" d="M 1130,7120 L 1280,7120"/>
 <path fill="none" stroke="rgb(0,0,0)" stroke-linejoin="round" d="M 1130,7120 L 1280,7120"/>
 <path fill="none" stroke="rgb(0,0,0)" stroke-linejoin="round" d="M 1130,6088 L 1280,6088"/>
 <path fill="none" stroke="rgb(0,0,0)" stroke-linejoin="round" d="M 1130,6088 L 1280,6088"/>
 <path fill="none" stroke="rgb(0,0,0)" stroke-linejoin="round" d="M 1130,5057 L 1280,5057"/>
 <path fill="none" stroke="rgb(0,0,0)" stroke-linejoin="round" d="M 1130,5057 L 1280,5057"/>
 <path fill="none" stroke="rgb(0,0,0)" stroke-linejoin="round" d="M 1130,4026 L 1280,4026"/>
 <path fill="none" stroke="rgb(0,0,0)" stroke-linejoin="round" d="M 1130,4026 L 1280,4026"/>
 <path fill="none" stroke="rgb(0,0,0)" stroke-linejoin="round" d="M 1130,2994 L 1280,2994"/>
 <path fill="none" stroke="rgb(0,0,0)" stroke-linejoin="round" d="M 1130,2994 L 1280,2994"/>
 <path fill="none" stroke="rgb(0,0,0)" stroke-linejoin="round" d="M 1130,1962 L 1280,1962"/>
 <path fill="none" stroke="rgb(0,0,0)" stroke-linejoin="round" d="M 1130,1962 L 1280,1962"/>
 <path fill="none" stroke="rgb(0,0,0)" stroke-linejoin="round" d="M 1130,931 L 1280,931"/>
 <path fill="none" stroke="rgb(0,0,0)" stroke-linejoin="round" d="M 1130,931 L 1280,931"/>
 <path fill="none" stroke="rgb(0,0,0)" stroke-linejoin="round" d="M 1280,11247 L 1280,931"/>
 <path fill="rgb(255,166,166)" stroke="none" d="M 1280,6088 L 1440,11247 1600,9183 1760,11247 1920,6088 2080,11247 2240,11247 2400,11247 2560,9659 2720,11247 2880,11247 3040,7808 3200,11247 3360,11247 3520,10443 3680,11247 3840,11247 4000,8469 4160,2650 4320,11247 4480,11247 4640,8756 4800,4799 4960,10028 5120,6661 5280,6707 5440,11247 5600,11247 5760,8516 5920,4502 6080,8612 6240,7945 6400,8495 6560,11247 6720,11247 6880,5778 7040,8756 7200,7808 7360,7120 7520,9228 7680,11247 7840,11247 8000,9141 8160,7014 8320,10673 8480,6161 8640,11032 8800,11247 8960,11247 9119,8693 9279,5824 9439,9951 9599,10291 9759,7922 9919,11247 10079,11247 10239,9773 10399,6709 10559,8707 10719,7685 10879,9165 11039,11247 11199,11247 11359,9344 11519,5809 11679,7982 11839,8922 11999,9147 12159,11247 12319,11247 12479,9094 12639,6266 12799,10432 12959,11001 13119,6880 13279,11247 13439,11247 13599,8760 13759,10860 13919,8900 14079,8372 14239,6460 14399,11247 14559,11247 14719,9582 14879,9117 15039,7014 15199,9117 15199,11247 1280,11247 1280,6088 Z"/>
 <path fill="none" stroke="rgb(0,0,0)" stroke-width="50" stroke-linejoin="round" d="M 1280,6088 L 1440,11247 1600,9183 1760,11247 1920,6088 2080,11247 2240,11247 2400,11247 2560,9659 2720,11247 2880,11247 3040,7808 3200,11247 3360,11247 3520,10443 3680,11247 3840,11247 4000,8469 4160,2650 4320,11247 4480,11247 4640,8756 4800,4799 4960,10028 5120,6661 5280,6707 5440,11247 5600,11247 5760,8516 5920,4502 6080,8612 6240,7945 6400,8495 6560,11247 6720,11247 6880,5778 7040,8756 7200,7808 7360,7120 7520,9228 7680,11247 7840,11247 8000,9141 8160,7014 8320,10673 8480,6161 8640,11032 8800,11247 8960,11247 9119,8693 9279,5824 9439,9951 9599,10291 9759,7922 9919,11247 10079,11247 10239,9773 10399,6709 10559,8707 10719,7685 10879,9165 11039,11247 11199,11247 11359,9344 11519,5809 11679,7982 11839,8922 11999,9147 12159,11247 12319,11247 12479,9094 12639,6266 12799,10432 12959,11001 13119,6880 13279,11247 13439,11247 13599,8760 13759,10860 13919,8900 14079,8372 14239,6460 14399,11247 14559,11247 14719,9582 14879,9117 15039,7014 15199,9117 15199,11247 1280,11247 1280,6088 Z"/>
 <path fill="rgb(255,255,215)" stroke="none" d="M 1280,6088 L 1440,8667 1600,9183 1760,11247 1920,6088 2080,11247 2240,11247 2400,11247 2560,8866 2720,11247 2880,931 3040,7808 3200,11247 3360,11247 3520,9773 3680,11247 3840,11247 4000,7675 4160,2650 4320,11247 4480,11247 4640,6266 4800,3510 4960,9947 5120,6661 5280,5057 5440,11247 5600,11247 5760,6695 5920,3510 6080,7734 6240,7532 6400,5745 6560,11247 6720,11247 6880,4162 7040,7511 7200,6334 7360,6346 7520,8835 7680,11247 7840,11247 8000,6930 8160,5957 8320,9240 8480,3837 8640,9527 8800,11247 8960,11247 9119,6650 9279,4436 9439,9218 9599,8699 9759,7234 9919,11247 10079,11247 10239,8053 10399,6195 10559,7755 10719,7685 10879,6450 11039,11247 11199,11247 11359,7270 11519,4539 11679,6700 11839,7902 11999,7138 12159,11247 12319,11247 12479,7758 12639,4369 12799,9346 12959,9036 13119,6281 13279,11247 13439,11247 13599,6591 13759,10860 13919,7286 14079,7488 14239,5113 14399,11247 14559,11247 14719,7538 14879,7271 15039,6617 15199,9050 15199,9117 15039,7014 14879,9117 14719,9582 14559,11247 14399,11247 14239,6460 14079,8372 13919,8900 13759,10860 13599,8760 13439,11247 13279,11247 13119,6880 12959,11001 12799,10432 12639,6266 12479,9094 12319,11247 12159,11247 11999,9147 11839,8922 11679,7982 11519,5809 11359,9344 11199,11247 11039,11247 10879,9165 10719,7685 10559,8707 10399,6709 10239,9773 10079,11247 9919,11247 9759,7922 9599,10291 9439,9951 9279,5824 9119,8693 8960,11247 8800,11247 8640,11032 8480,6161 8320,10673 8160,7014 8000,9141 7840,11247 7680,11247 7520,9228 7360,7120 7200,7808 7040,8756 6880,5778 6720,11247 6560,11247 6400,8495 6240,7945 6080,8612 5920,4502 5760,8516 5600,11247 5440,11247 5280,6707 5120,6661 4960,10028 4800,4799 4640,8756 4480,11247 4320,11247 4160,2650 4000,8469 3840,11247 3680,11247 3520,10443 3360,11247 3200,11247 3040,7808 2880,11247 2720,11247 2560,9659 2400,11247 2240,11247 2080,11247 1920,6088 1760,11247 1600,9183 1440,11247 1280,6088 Z"/>
 <path fill="none" stroke="rgb(0,0,0)" stroke-width="50" stroke-linejoin="round" d="M 1280,6088 L 1440,8667 1600,9183 1760,11247 1920,6088 2080,11247 2240,11247 2400,11247 2560,8866 2720,11247 2880,931 3040,7808 3200,11247 3360,11247 3520,9773 3680,11247 3840,11247 4000,7675 4160,2650 4320,11247 4480,11247 4640,6266 4800,3510 4960,9947 5120,6661 5280,5057 5440,11247 5600,11247 5760,6695 5920,3510 6080,7734 6240,7532 6400,5745 6560,11247 6720,11247 6880,4162 7040,7511 7200,6334 7360,6346 7520,8835 7680,11247 7840,11247 8000,6930 8160,5957 8320,9240 8480,3837 8640,9527 8800,11247 8960,11247 9119,6650 9279,4436 9439,9218 9599,8699 9759,7234 9919,11247 10079,11247 10239,8053 10399,6195 10559,7755 10719,7685 10879,6450 11039,11247 11199,11247 11359,7270 11519,4539 11679,6700 11839,7902 11999,7138 12159,11247 12319,11247 12479,7758 12639,4369 12799,9346 12959,9036 13119,6281 13279,11247 13439,11247 13599,6591 13759,10860 13919,7286 14079,7488 14239,5113 14399,11247 14559,11247 14719,7538 14879,7271 15039,6617 15199,9050 15199,9117 15039,7014 14879,9117 14719,9582 14559,11247 14399,11247 14239,6460 14079,8372 13919,8900 13759,10860 13599,8760 13439,11247 13279,11247 13119,6880 12959,11001 12799,10432 12639,6266 12479,9094 12319,11247 12159,11247 11999,9147 11839,8922 11679,7982 11519,5809 11359,9344 11199,11247 11039,11247 10879,9165 10719,7685 10559,8707 10399,6709 10239,9773 10079,11247 9919,11247 9759,7922 9599,10291 9439,9951 9279,5824 9119,8693 8960,11247 8800,11247 8640,11032 8480,6161 8320,10673 8160,7014 8000,9141 7840,11247 7680,11247 7520,9228 7360,7120 7200,7808 7040,8756 6880,5778 6720,11247 6560,11247 6400,8495 6240,7945 6080,8612 5920,4502 5760,8516 5600,11247 5440,11247 5280,6707 5120,6661 4960,10028 4800,4799 4640,8756 4480,11247 4320,11247 4160,2650 4000,8469 3840,11247 3680,11247 3520,10443 3360,11247 3200,11247 3040,7808 2880,11247 2720,11247 2560,9659 2400,11247 2240,11247 2080,11247 1920,6088 1760,11247 1600,9183 1440,11247 1280,6088 Z"/>
 <path fill="rgb(222,230,239)" stroke="none" d="M 1280,6088 L 1440,8667 1600,9183 1760,11247 1920,6088 2080,11247 2240,11247 2400,2841 2560,8866 2720,11247 2880,931 3040,7808 3200,11247 3360,11247 3520,2538 3680,11247 3840,11247 4000,7278 4160,2650 4320,11247 4480,11247 4640,5911 4800,3080 4960,1824 5120,5516 5280,5057 5440,11247 5600,11247 5760,6695 5920,3510 6080,7734 6240,7532 6400,5745 6560,11247 6720,11247 6880,4162 7040,7511 7200,6334 7360,6346 7520,2332 7680,11247 7840,11247 8000,6930 8160,5957 8320,9240 8480,3837 8640,9527 8800,11247 8960,11247 9119,6650 9279,4436 9439,9218 9599,2968 9759,7234 9919,11247 10079,11247 10239,6027 10399,6195 10559,5772 10719,7685 10879,6450 11039,11247 11199,11247 11359,7270 11519,4539 11679,6700 11839,5012 11999,7138 12159,11247 12319,11247 12479,7758 12639,4369 12799,9346 12959,8954 13119,3799 13279,11247 13439,11247 13599,6009 13759,10344 13919,6797 14079,7046 14239,4788 14399,11247 14559,11247 14719,6587 14879,6656 15039,6485 15199,7985 15199,9050 15039,6617 14879,7271 14719,7538 14559,11247 14399,11247 14239,5113 14079,7488 13919,7286 13759,10860 13599,6591 13439,11247 13279,11247 13119,6281 12959,9036 12799,9346 12639,4369 12479,7758 12319,11247 12159,11247 11999,7138 11839,7902 11679,6700 11519,4539 11359,7270 11199,11247 11039,11247 10879,6450 10719,7685 10559,7755 10399,6195 10239,8053 10079,11247 9919,11247 9759,7234 9599,8699 9439,9218 9279,4436 9119,6650 8960,11247 8800,11247 8640,9527 8480,3837 8320,9240 8160,5957 8000,6930 7840,11247 7680,11247 7520,8835 7360,6346 7200,6334 7040,7511 6880,4162 6720,11247 6560,11247 6400,5745 6240,7532 6080,7734 5920,3510 5760,6695 5600,11247 5440,11247 5280,5057 5120,6661 4960,9947 4800,3510 4640,6266 4480,11247 4320,11247 4160,2650 4000,7675 3840,11247 3680,11247 3520,9773 3360,11247 3200,11247 3040,7808 2880,931 2720,11247 2560,8866 2400,11247 2240,11247 2080,11247 1920,6088 1760,11247 1600,9183 1440,8667 1280,6088 Z"/>
 <path fill="none" stroke="rgb(0,0,0)" stroke-width="50" stroke-linejoin="round" d="M 1280,6088 L 1440,8667 1600,9183 1760,11247 1920,6088 2080,11247 2240,11247 2400,2841 2560,8866 2720,11247 2880,931 3040,7808 3200,11247 3360,11247 3520,2538 3680,11247 3840,11247 4000,7278 4160,2650 4320,11247 4480,11247 4640,5911 4800,3080 4960,1824 5120,5516 5280,5057 5440,11247 5600,11247 5760,6695 5920,3510 6080,7734 6240,7532 6400,5745 6560,11247 6720,11247 6880,4162 7040,7511 7200,6334 7360,6346 7520,2332 7680,11247 7840,11247 8000,6930 8160,5957 8320,9240 8480,3837 8640,9527 8800,11247 8960,11247 9119,6650 9279,4436 9439,9218 9599,2968 9759,7234 9919,11247 10079,11247 10239,6027 10399,6195 10559,5772 10719,7685 10879,6450 11039,11247 11199,11247 11359,7270 11519,4539 11679,6700 11839,5012 11999,7138 12159,11247 12319,11247 12479,7758 12639,4369 12799,9346 12959,8954 13119,3799 13279,11247 13439,11247 13599,6009 13759,10344 13919,6797 14079,7046 14239,4788 14399,11247 14559,11247 14719,6587 14879,6656 15039,6485 15199,7985 15199,9050 15039,6617 14879,7271 14719,7538 14559,11247 14399,11247 14239,5113 14079,7488 13919,7286 13759,10860 13599,6591 13439,11247 13279,11247 13119,6281 12959,9036 12799,9346 12639,4369 12479,7758 12319,11247 12159,11247 11999,7138 11839,7902 11679,6700 11519,4539 11359,7270 11199,11247 11039,11247 10879,6450 10719,7685 10559,7755 10399,6195 10239,8053 10079,11247 9919,11247 9759,7234 9599,8699 9439,9218 9279,4436 9119,6650 8960,11247 8800,11247 8640,9527 8480,3837 8320,9240 8160,5957 8000,6930 7840,11247 7680,11247 7520,8835 7360,6346 7200,6334 7040,7511 6880,4162 6720,11247 6560,11247 6400,5745 6240,7532 6080,7734 5920,3510 5760,6695 5600,11247 5440,11247 5280,5057 5120,6661 4960,9947 4800,3510 4640,6266 4480,11247 4320,11247 4160,2650 4000,7675 3840,11247 3680,11247 3520,9773 3360,11247 3200,11247 3040,7808 2880,931 2720,11247 2560,8866 2400,11247 2240,11247 2080,11247 1920,6088 1760,11247 1600,9183 1440,8667 1280,6088 Z"/>
 <path fill="rgb(221,232,203)" stroke="none" d="M 1280,931 L 1440,8667 1600,7120 1760,11247 1920,6088 2080,11247 2240,11247 2400,2459 2560,8866 2720,931 2880,931 3040,7808 3200,11247 3360,11247 3520,2538 3680,8299 3840,10309 4000,7278 4160,2650 4320,11247 4480,11247 4640,4488 4800,3080 4960,1824 5120,4369 5280,5057 5440,11247 5600,11247 5760,6088 5920,2915 6080,7295 6240,5883 6400,5057 6560,11247 6720,11247 6880,3168 7040,5555 7200,6088 7360,5315 7520,1772 7680,11247 7840,11247 8000,6193 8160,4766 8320,8954 8480,3110 8640,8452 8800,11247 8960,11247 9119,4914 9279,3642 9439,8872 9599,2650 9759,6547 9919,11247 10079,11247 10239,4984 10399,5468 10559,5375 10719,5475 10879,5908 11039,11247 11199,11247 11359,5772 11519,3929 11679,5477 11839,4388 11999,6042 12159,11247 12319,11247 12479,5384 12639,3539 12799,6631 12959,6497 13119,2943 13279,11247 13439,11247 13599,4264 13759,9183 13919,4891 14079,5794 14239,4323 14399,11247 14559,11247 14719,4734 14879,5048 15039,5163 15199,6587 15199,7985 15039,6485 14879,6656 14719,6587 14559,11247 14399,11247 14239,4788 14079,7046 13919,6797 13759,10344 13599,6009 13439,11247 13279,11247 13119,3799 12959,8954 12799,9346 12639,4369 12479,7758 12319,11247 12159,11247 11999,7138 11839,5012 11679,6700 11519,4539 11359,7270 11199,11247 11039,11247 10879,6450 10719,7685 10559,5772 10399,6195 10239,6027 10079,11247 9919,11247 9759,7234 9599,2968 9439,9218 9279,4436 9119,6650 8960,11247 8800,11247 8640,9527 8480,3837 8320,9240 8160,5957 8000,6930 7840,11247 7680,11247 7520,2332 7360,6346 7200,6334 7040,7511 6880,4162 6720,11247 6560,11247 6400,5745 6240,7532 6080,7734 5920,3510 5760,6695 5600,11247 5440,11247 5280,5057 5120,5516 4960,1824 4800,3080 4640,5911 4480,11247 4320,11247 4160,2650 4000,7278 3840,11247 3680,11247 3520,2538 3360,11247 3200,11247 3040,7808 2880,931 2720,11247 2560,8866 2400,2841 2240,11247 2080,11247 1920,6088 1760,11247 1600,9183 1440,8667 1280,6088 1280,931 Z"/>
 <path fill="none" stroke="rgb(0,0,0)" stroke-width="50" stroke-linejoin="round" d="M 1280,931 L 1440,8667 1600,7120 1760,11247 1920,6088 2080,11247 2240,11247 2400,2459 2560,8866 2720,931 2880,931 3040,7808 3200,11247 3360,11247 3520,2538 3680,8299 3840,10309 4000,7278 4160,2650 4320,11247 4480,11247 4640,4488 4800,3080 4960,1824 5120,4369 5280,5057 5440,11247 5600,11247 5760,6088 5920,2915 6080,7295 6240,5883 6400,5057 6560,11247 6720,11247 6880,3168 7040,5555 7200,6088 7360,5315 7520,1772 7680,11247 7840,11247 8000,6193 8160,4766 8320,8954 8480,3110 8640,8452 8800,11247 8960,11247 9119,4914 9279,3642 9439,8872 9599,2650 9759,6547 9919,11247 10079,11247 10239,4984 10399,5468 10559,5375 10719,5475 10879,5908 11039,11247 11199,11247 11359,5772 11519,3929 11679,5477 11839,4388 11999,6042 12159,11247 12319,11247 12479,5384 12639,3539 12799,6631 12959,6497 13119,2943 13279,11247 13439,11247 13599,4264 13759,9183 13919,4891 14079,5794 14239,4323 14399,11247 14559,11247 14719,4734 14879,5048 15039,5163 15199,6587 15199,7985 15039,6485 14879,6656 14719,6587 14559,11247 14399,11247 14239,4788 14079,7046 13919,6797 13759,10344 13599,6009 13439,11247 13279,11247 13119,3799 12959,8954 12799,9346 12639,4369 12479,7758 12319,11247 12159,11247 11999,7138 11839,5012 11679,6700 11519,4539 11359,7270 11199,11247 11039,11247 10879,6450 10719,7685 10559,5772 10399,6195 10239,6027 10079,11247 9919,11247 9759,7234 9599,2968 9439,9218 9279,4436 9119,6650 8960,11247 8800,11247 8640,9527 8480,3837 8320,9240 8160,5957 8000,6930 7840,11247 7680,11247 7520,2332 7360,6346 7200,6334 7040,7511 6880,4162 6720,11247 6560,11247 6400,5745 6240,7532 6080,7734 5920,3510 5760,6695 5600,11247 5440,11247 5280,5057 5120,5516 4960,1824 4800,3080 4640,5911 4480,11247 4320,11247 4160,2650 4000,7278 3840,11247 3680,11247 3520,2538 3360,11247 3200,11247 3040,7808 2880,931 2720,11247 2560,8866 2400,2841 2240,11247 2080,11247 1920,6088 1760,11247 1600,9183 1440,8667 1280,6088 1280,931 Z"/>
 <path fill="rgb(183,179,202)" stroke="none" d="M 1280,931 L 1440,8667 1600,7120 1760,8667 1920,6088 2080,11247 2240,11247 2400,2459 2560,8866 2720,931 2880,931 3040,7808 3200,11247 3360,11247 3520,2538 3680,8299 3840,4682 4000,2121 4160,2650 4320,11247 4480,11247 4640,4488 4800,3080 4960,1824 5120,4369 5280,4645 5440,11247 5600,11247 5760,6088 5920,2716 6080,5101 6240,5470 6400,5057 6560,11247 6720,11247 6880,3168 7040,5555 7200,6088 7360,5057 7520,1772 7680,11247 7840,11247 8000,6193 8160,4502 8320,7521 8480,3110 8640,8452 8800,11247 8960,11247 9119,4914 9279,3047 9439,2441 9599,2650 9759,6088 9919,11247 10079,11247 10239,4861 10399,2343 10559,5295 10719,5106 10879,5003 11039,11247 11199,11247 11359,5196 11519,3319 11679,4136 11839,4048 11999,5587 12159,11247 12319,11247 12479,5235 12639,3144 12799,6631 12959,4042 13119,2900 13279,11247 13439,11247 13599,4264 13759,4412 13919,4842 14079,5721 14239,4091 14399,11247 14559,11247 14719,4401 14879,3107 15039,5163 15199,6454 15199,6587 15039,5163 14879,5048 14719,4734 14559,11247 14399,11247 14239,4323 14079,5794 13919,4891 13759,9183 13599,4264 13439,11247 13279,11247 13119,2943 12959,6497 12799,6631 12639,3539 12479,5384 12319,11247 12159,11247 11999,6042 11839,4388 11679,5477 11519,3929 11359,5772 11199,11247 11039,11247 10879,5908 10719,5475 10559,5375 10399,5468 10239,4984 10079,11247 9919,11247 9759,6547 9599,2650 9439,8872 9279,3642 9119,4914 8960,11247 8800,11247 8640,8452 8480,3110 8320,8954 8160,4766 8000,6193 7840,11247 7680,11247 7520,1772 7360,5315 7200,6088 7040,5555 6880,3168 6720,11247 6560,11247 6400,5057 6240,5883 6080,7295 5920,2915 5760,6088 5600,11247 5440,11247 5280,5057 5120,4369 4960,1824 4800,3080 4640,4488 4480,11247 4320,11247 4160,2650 4000,7278 3840,10309 3680,8299 3520,2538 3360,11247 3200,11247 3040,7808 2880,931 2720,931 2560,8866 2400,2459 2240,11247 2080,11247 1920,6088 1760,11247 1600,7120 1440,8667 1280,931 Z"/>
 <path fill="none" stroke="rgb(0,0,0)" stroke-width="50" stroke-linejoin="round" d="M 1280,931 L 1440,8667 1600,7120 1760,8667 1920,6088 2080,11247 2240,11247 2400,2459 2560,8866 2720,931 2880,931 3040,7808 3200,11247 3360,11247 3520,2538 3680,8299 3840,4682 4000,2121 4160,2650 4320,11247 4480,11247 4640,4488 4800,3080 4960,1824 5120,4369 5280,4645 5440,11247 5600,11247 5760,6088 5920,2716 6080,5101 6240,5470 6400,5057 6560,11247 6720,11247 6880,3168 7040,5555 7200,6088 7360,5057 7520,1772 7680,11247 7840,11247 8000,6193 8160,4502 8320,7521 8480,3110 8640,8452 8800,11247 8960,11247 9119,4914 9279,3047 9439,2441 9599,2650 9759,6088 9919,11247 10079,11247 10239,4861 10399,2343 10559,5295 10719,5106 10879,5003 11039,11247 11199,11247 11359,5196 11519,3319 11679,4136 11839,4048 11999,5587 12159,11247 12319,11247 12479,5235 12639,3144 12799,6631 12959,4042 13119,2900 13279,11247 13439,11247 13599,4264 13759,4412 13919,4842 14079,5721 14239,4091 14399,11247 14559,11247 14719,4401 14879,3107 15039,5163 15199,6454 15199,6587 15039,5163 14879,5048 14719,4734 14559,11247 14399,11247 14239,4323 14079,5794 13919,4891 13759,9183 13599,4264 13439,11247 13279,11247 13119,2943 12959,6497 12799,6631 12639,3539 12479,5384 12319,11247 12159,11247 11999,6042 11839,4388 11679,5477 11519,3929 11359,5772 11199,11247 11039,11247 10879,5908 10719,5475 10559,5375 10399,5468 10239,4984 10079,11247 9919,11247 9759,6547 9599,2650 9439,8872 9279,3642 9119,4914 8960,11247 8800,11247 8640,8452 8480,3110 8320,8954 8160,4766 8000,6193 7840,11247 7680,11247 7520,1772 7360,5315 7200,6088 7040,5555 6880,3168 6720,11247 6560,11247 6400,5057 6240,5883 6080,7295 5920,2915 5760,6088 5600,11247 5440,11247 5280,5057 5120,4369 4960,1824 4800,3080 4640,4488 4480,11247 4320,11247 4160,2650 4000,7278 3840,10309 3680,8299 3520,2538 3360,11247 3200,11247 3040,7808 2880,931 2720,931 2560,8866 2400,2459 2240,11247 2080,11247 1920,6088 1760,11247 1600,7120 1440,8667 1280,931 Z"/>
 <path fill="rgb(114,159,207)" stroke="none" d="M 1280,931 L 1440,8667 1600,7120 1760,8667 1920,6088 2080,11247 2240,11247 2400,1695 2560,7278 2720,931 2880,931 3040,7808 3200,11247 3360,11247 3520,2270 3680,6825 3840,3744 4000,2121 4160,2650 4320,11247 4480,11247 4640,4132 4800,3080 4960,1824 5120,4369 5280,4645 5440,11247 5600,11247 5760,5786 5920,2518 6080,4882 6240,5470 6400,4370 6560,11247 6720,11247 6880,3044 7040,5555 7200,5352 7360,4541 7520,1772 7680,11247 7840,11247 8000,5878 8160,4237 8320,7234 8480,3110 8640,8452 8800,11247 8960,11247 9119,4404 9279,2981 9439,2398 9599,2459 9759,5745 9919,11247 10079,11247 10239,4492 10399,2172 10559,4899 10719,3510 10879,3374 11039,11247 11199,11247 11359,3812 11519,2455 11679,2621 11839,3028 11999,4217 12159,11247 12319,11247 12479,4567 12639,2946 12799,5275 12959,3305 13119,2472 13279,11247 13439,11247 13599,3629 13759,4284 13919,4353 14079,3731 14239,3254 14399,11247 14559,11247 14719,4021 14879,3060 15039,5031 15199,6254 15199,6454 15039,5163 14879,3107 14719,4401 14559,11247 14399,11247 14239,4091 14079,5721 13919,4842 13759,4412 13599,4264 13439,11247 13279,11247 13119,2900 12959,4042 12799,6631 12639,3144 12479,5235 12319,11247 12159,11247 11999,5587 11839,4048 11679,4136 11519,3319 11359,5196 11199,11247 11039,11247 10879,5003 10719,5106 10559,5295 10399,2343 10239,4861 10079,11247 9919,11247 9759,6088 9599,2650 9439,2441 9279,3047 9119,4914 8960,11247 8800,11247 8640,8452 8480,3110 8320,7521 8160,4502 8000,6193 7840,11247 7680,11247 7520,1772 7360,5057 7200,6088 7040,5555 6880,3168 6720,11247 6560,11247 6400,5057 6240,5470 6080,5101 5920,2716 5760,6088 5600,11247 5440,11247 5280,4645 5120,4369 4960,1824 4800,3080 4640,4488 4480,11247 4320,11247 4160,2650 4000,2121 3840,4682 3680,8299 3520,2538 3360,11247 3200,11247 3040,7808 2880,931 2720,931 2560,8866 2400,2459 2240,11247 2080,11247 1920,6088 1760,8667 1600,7120 1440,8667 1280,931 Z"/>
 <path fill="none" stroke="rgb(0,0,0)" stroke-width="50" stroke-linejoin="round" d="M 1280,931 L 1440,8667 1600,7120 1760,8667 1920,6088 2080,11247 2240,11247 2400,1695 2560,7278 2720,931 2880,931 3040,7808 3200,11247 3360,11247 3520,2270 3680,6825 3840,3744 4000,2121 4160,2650 4320,11247 4480,11247 4640,4132 4800,3080 4960,1824 5120,4369 5280,4645 5440,11247 5600,11247 5760,5786 5920,2518 6080,4882 6240,5470 6400,4370 6560,11247 6720,11247 6880,3044 7040,5555 7200,5352 7360,4541 7520,1772 7680,11247 7840,11247 8000,5878 8160,4237 8320,7234 8480,3110 8640,8452 8800,11247 8960,11247 9119,4404 9279,2981 9439,2398 9599,2459 9759,5745 9919,11247 10079,11247 10239,4492 10399,2172 10559,4899 10719,3510 10879,3374 11039,11247 11199,11247 11359,3812 11519,2455 11679,2621 11839,3028 11999,4217 12159,11247 12319,11247 12479,4567 12639,2946 12799,5275 12959,3305 13119,2472 13279,11247 13439,11247 13599,3629 13759,4284 13919,4353 14079,3731 14239,3254 14399,11247 14559,11247 14719,4021 14879,3060 15039,5031 15199,6254 15199,6454 15039,5163 14879,3107 14719,4401 14559,11247 14399,11247 14239,4091 14079,5721 13919,4842 13759,4412 13599,4264 13439,11247 13279,11247 13119,2900 12959,4042 12799,6631 12639,3144 12479,5235 12319,11247 12159,11247 11999,5587 11839,4048 11679,4136 11519,3319 11359,5196 11199,11247 11039,11247 10879,5003 10719,5106 10559,5295 10399,2343 10239,4861 10079,11247 9919,11247 9759,6088 9599,2650 9439,2441 9279,3047 9119,4914 8960,11247 8800,11247 8640,8452 8480,3110 8320,7521 8160,4502 8000,6193 7840,11247 7680,11247 7520,1772 7360,5057 7200,6088 7040,5555 6880,3168 6720,11247 6560,11247 6400,5057 6240,5470 6080,5101 5920,2716 5760,6088 5600,11247 5440,11247 5280,4645 5120,4369 4960,1824 4800,3080 4640,4488 4480,11247 4320,11247 4160,2650 4000,2121 3840,4682 3680,8299 3520,2538 3360,11247 3200,11247 3040,7808 2880,931 2720,931 2560,8866 2400,2459 2240,11247 2080,11247 1920,6088 1760,8667 1600,7120 1440,8667 1280,931 Z"/>
 <path fill="rgb(232,242,161)" stroke="none" d="M 1280,931 L 1440,6088 1600,7120 1760,6088 1920,931 2080,11247 2240,11247 2400,1313 2560,7278 2720,931 2880,931 3040,7808 3200,11247 3360,11247 3520,2136 3680,5352 3840,2337 4000,2121 4160,2650 4320,11247 4480,11247 4640,3777 4800,2650 4960,1580 5120,3796 5280,3407 5440,11247 5600,11247 5760,4875 5920,2121 6080,4882 6240,2581 6400,3682 6560,11247 6720,11247 6880,2671 7040,4132 7200,5352 7360,4026 7520,1603 7680,11247 7840,11247 8000,5142 8160,3047 8320,5229 8480,3110 8640,5444 8800,11247 8960,11247 9119,4199 9279,2716 9439,1967 9599,2268 9759,4943 9919,11247 10079,11247 10239,3940 10399,2044 10559,3867 10719,2527 10879,2559 11039,11247 11199,11247 11359,3582 11519,2049 11679,2329 11839,2631 11999,3670 12159,11247 12319,11247 12479,4271 12639,2709 12799,3781 12959,2814 13119,2300 13279,11247 13439,11247 13599,3576 13759,4026 13919,3571 14079,2994 14239,2929 14399,11247 14559,11247 14719,3783 14879,2966 15039,4039 15199,5789 15199,6254 15039,5031 14879,3060 14719,4021 14559,11247 14399,11247 14239,3254 14079,3731 13919,4353 13759,4284 13599,3629 13439,11247 13279,11247 13119,2472 12959,3305 12799,5275 12639,2946 12479,4567 12319,11247 12159,11247 11999,4217 11839,3028 11679,2621 11519,2455 11359,3812 11199,11247 11039,11247 10879,3374 10719,3510 10559,4899 10399,2172 10239,4492 10079,11247 9919,11247 9759,5745 9599,2459 9439,2398 9279,2981 9119,4404 8960,11247 8800,11247 8640,8452 8480,3110 8320,7234 8160,4237 8000,5878 7840,11247 7680,11247 7520,1772 7360,4541 7200,5352 7040,5555 6880,3044 6720,11247 6560,11247 6400,4370 6240,5470 6080,4882 5920,2518 5760,5786 5600,11247 5440,11247 5280,4645 5120,4369 4960,1824 4800,3080 4640,4132 4480,11247 4320,11247 4160,2650 4000,2121 3840,3744 3680,6825 3520,2270 3360,11247 3200,11247 3040,7808 2880,931 2720,931 2560,7278 2400,1695 2240,11247 2080,11247 1920,6088 1760,8667 1600,7120 1440,8667 1280,931 Z"/>
 <path fill="none" stroke="rgb(0,0,0)" stroke-width="50" stroke-linejoin="round" d="M 1280,931 L 1440,6088 1600,7120 1760,6088 1920,931 2080,11247 2240,11247 2400,1313 2560,7278 2720,931 2880,931 3040,7808 3200,11247 3360,11247 3520,2136 3680,5352 3840,2337 4000,2121 4160,2650 4320,11247 4480,11247 4640,3777 4800,2650 4960,1580 5120,3796 5280,3407 5440,11247 5600,11247 5760,4875 5920,2121 6080,4882 6240,2581 6400,3682 6560,11247 6720,11247 6880,2671 7040,4132 7200,5352 7360,4026 7520,1603 7680,11247 7840,11247 8000,5142 8160,3047 8320,5229 8480,3110 8640,5444 8800,11247 8960,11247 9119,4199 9279,2716 9439,1967 9599,2268 9759,4943 9919,11247 10079,11247 10239,3940 10399,2044 10559,3867 10719,2527 10879,2559 11039,11247 11199,11247 11359,3582 11519,2049 11679,2329 11839,2631 11999,3670 12159,11247 12319,11247 12479,4271 12639,2709 12799,3781 12959,2814 13119,2300 13279,11247 13439,11247 13599,3576 13759,4026 13919,3571 14079,2994 14239,2929 14399,11247 14559,11247 14719,3783 14879,2966 15039,4039 15199,5789 15199,6254 15039,5031 14879,3060 14719,4021 14559,11247 14399,11247 14239,3254 14079,3731 13919,4353 13759,4284 13599,3629 13439,11247 13279,11247 13119,2472 12959,3305 12799,5275 12639,2946 12479,4567 12319,11247 12159,11247 11999,4217 11839,3028 11679,2621 11519,2455 11359,3812 11199,11247 11039,11247 10879,3374 10719,3510 10559,4899 10399,2172 10239,4492 10079,11247 9919,11247 9759,5745 9599,2459 9439,2398 9279,2981 9119,4404 8960,11247 8800,11247 8640,8452 8480,3110 8320,7234 8160,4237 8000,5878 7840,11247 7680,11247 7520,1772 7360,4541 7200,5352 7040,5555 6880,3044 6720,11247 6560,11247 6400,4370 6240,5470 6080,4882 5920,2518 5760,5786 5600,11247 5440,11247 5280,4645 5120,4369 4960,1824 4800,3080 4640,4132 4480,11247 4320,11247 4160,2650 4000,2121 3840,3744 3680,6825 3520,2270 3360,11247 3200,11247 3040,7808 2880,931 2720,931 2560,7278 2400,1695 2240,11247 2080,11247 1920,6088 1760,8667 1600,7120 1440,8667 1280,931 Z"/>
 <path fill="rgb(174,207,0)" stroke="none" d="M 1280,931 L 1440,931 1600,931 1760,931 1920,931 2080,11247 2240,11247 2400,931 2560,931 2720,931 2880,931 3040,931 3200,11247 3360,11247 3520,931 3680,931 3840,931 4000,931 4160,931 4320,11247 4480,11247 4640,931 4800,931 4960,931 5120,931 5280,931 5440,11247 5600,11247 5760,931 5920,931 6080,931 6240,931 6400,931 6560,11247 6720,11247 6880,931 7040,931 7200,931 7520,931 7680,11247 7840,11247 8000,931 8160,931 8320,931 8480,931 8640,931 8800,11247 8960,11247 9119,931 9279,931 9439,931 9599,931 9759,931 9919,11247 10079,11247 10239,931 10399,931 10559,931 10719,931 10879,931 11039,11247 11199,11247 11359,931 11519,931 11679,931 11839,931 11999,931 12159,11247 12319,11247 12479,931 12639,931 12799,931 12959,931 13119,931 13279,11247 13439,11247 13599,931 13759,931 13919,931 14079,931 14239,931 14399,11247 14559,11247 14719,931 14879,931 15039,931 15199,931 15199,5789 15039,4039 14879,2966 14719,3783 14559,11247 14399,11247 14239,2929 14079,2994 13919,3571 13759,4026 13599,3576 13439,11247 13279,11247 13119,2300 12959,2814 12799,3781 12639,2709 12479,4271 12319,11247 12159,11247 11999,3670 11839,2631 11679,2329 11519,2049 11359,3582 11199,11247 11039,11247 10879,2559 10719,2527 10559,3867 10399,2044 10239,3940 10079,11247 9919,11247 9759,4943 9599,2268 9439,1967 9279,2716 9119,4199 8960,11247 8800,11247 8640,5444 8480,3110 8320,5229 8160,3047 8000,5142 7840,11247 7680,11247 7520,1603 7360,4026 7200,5352 7040,4132 6880,2671 6720,11247 6560,11247 6400,3682 6240,2581 6080,4882 5920,2121 5760,4875 5600,11247 5440,11247 5280,3407 5120,3796 4960,1580 4800,2650 4640,3777 4480,11247 4320,11247 4160,2650 4000,2121 3840,2337 3680,5352 3520,2136 3360,11247 3200,11247 3040,7808 2880,931 2720,931 2560,7278 2400,1313 2240,11247 2080,11247 1920,931 1760,6088 1600,7120 1440,6088 1280,931 Z"/>
 <path fill="none" stroke="rgb(0,0,0)" stroke-width="50" stroke-linejoin="round" d="M 1280,931 L 1440,931 1600,931 1760,931 1920,931 2080,11247 2240,11247 2400,931 2560,931 2720,931 2880,931 3040,931 3200,11247 3360,11247 3520,931 3680,931 3840,931 4000,931 4160,931 4320,11247 4480,11247 4640,931 4800,931 4960,931 5120,931 5280,931 5440,11247 5600,11247 5760,931 5920,931 6080,931 6240,931 6400,931 6560,11247 6720,11247 6880,931 7040,931 7200,931 7520,931 7680,11247 7840,11247 8000,931 8160,931 8320,931 8480,931 8640,931 8800,11247 8960,11247 9119,931 9279,931 9439,931 9599,931 9759,931 9919,11247 10079,11247 10239,931 10399,931 10559,931 10719,931 10879,931 11039,11247 11199,11247 11359,931 11519,931 11679,931 11839,931 11999,931 12159,11247 12319,11247 12479,931 12639,931 12799,931 12959,931 13119,931 13279,11247 13439,11247 13599,931 13759,931 13919,931 14079,931 14239,931 14399,11247 14559,11247 14719,931 14879,931 15039,931 15199,931 15199,5789 15039,4039 14879,2966 14719,3783 14559,11247 14399,11247 14239,2929 14079,2994 13919,3571 13759,4026 13599,3576 13439,11247 13279,11247 13119,2300 12959,2814 12799,3781 12639,2709 12479,4271 12319,11247 12159,11247 11999,3670 11839,2631 11679,2329 11519,2049 11359,3582 11199,11247 11039,11247 10879,2559 10719,2527 10559,3867 10399,2044 10239,3940 10079,11247 9919,11247 9759,4943 9599,2268 9439,1967 9279,2716 9119,4199 8960,11247 8800,11247 8640,5444 8480,3110 8320,5229 8160,3047 8000,5142 7840,11247 7680,11247 7520,1603 7360,4026 7200,5352 7040,4132 6880,2671 6720,11247 6560,11247 6400,3682 6240,2581 6080,4882 5920,2121 5760,4875 5600,11247 5440,11247 5280,3407 5120,3796 4960,1580 4800,2650 4640,3777 4480,11247 4320,11247 4160,2650 4000,2121 3840,2337 3680,5352 3520,2136 3360,11247 3200,11247 3040,7808 2880,931 2720,931 2560,7278 2400,1313 2240,11247 2080,11247 1920,931 1760,6088 1600,7120 1440,6088 1280,931 Z"/>
 <text class="TextShape"><tspan class="TextParagraph" font-family="Liberation Sans, sans-serif" font-size="353px" font-weight="400"><tspan class="TextPosition" x="856" y="11815"><tspan fill="rgb(0,0,0)" stroke="none">27/07</tspan></tspan></tspan></text>
 <text class="TextShape"><tspan class="TextParagraph" font-family="Liberation Sans, sans-serif" font-size="353px" font-weight="400"><tspan class="TextPosition" x="1976" y="11815"><tspan fill="rgb(0,0,0)" stroke="none">03/08</tspan></tspan></tspan></text>
 <text class="TextShape"><tspan class="TextParagraph" font-family="Liberation Sans, sans-serif" font-size="353px" font-weight="400"><tspan class="TextPosition" x="3096" y="11815"><tspan fill="rgb(0,0,0)" stroke="none">10/08</tspan></tspan></tspan></text>
 <text class="TextShape"><tspan class="TextParagraph" font-family="Liberation Sans, sans-serif" font-size="353px" font-weight="400"><tspan class="TextPosition" x="4216" y="11815"><tspan fill="rgb(0,0,0)" stroke="none">17/08</tspan></tspan></tspan></text>
 <text class="TextShape"><tspan class="TextParagraph" font-family="Liberation Sans, sans-serif" font-size="353px" font-weight="400"><tspan class="TextPosition" x="5336" y="11815"><tspan fill="rgb(0,0,0)" stroke="none">24/08</tspan></tspan></tspan></text>
 <text class="TextShape"><tspan class="TextParagraph" font-family="Liberation Sans, sans-serif" font-size="353px" font-weight="400"><tspan class="TextPosition" x="6456" y="11815"><tspan fill="rgb(0,0,0)" stroke="none">31/08</tspan></tspan></tspan></text>
 <text class="TextShape"><tspan class="TextParagraph" font-family="Liberation Sans, sans-serif" font-size="353px" font-weight="400"><tspan class="TextPosition" x="7575" y="11815"><tspan fill="rgb(0,0,0)" stroke="none">07/09</tspan></tspan></tspan></text>
 <text class="TextShape"><tspan class="TextParagraph" font-family="Liberation Sans, sans-serif" font-size="353px" font-weight="400"><tspan class="TextPosition" x="8696" y="11815"><tspan fill="rgb(0,0,0)" stroke="none">14/09</tspan></tspan></tspan></text>
 <text class="TextShape"><tspan class="TextParagraph" font-family="Liberation Sans, sans-serif" font-size="353px" font-weight="400"><tspan class="TextPosition" x="9816" y="11815"><tspan fill="rgb(0,0,0)" stroke="none">21/09</tspan></tspan></tspan></text>
 <text class="TextShape"><tspan class="TextParagraph" font-family="Liberation Sans, sans-serif" font-size="353px" font-weight="400"><tspan class="TextPosition" x="10936" y="11815"><tspan fill="rgb(0,0,0)" stroke="none">28/09</tspan></tspan></tspan></text>
 <text class="TextShape"><tspan class="TextParagraph" font-family="Liberation Sans, sans-serif" font-size="353px" font-weight="400"><tspan class="TextPosition" x="12056" y="11815"><tspan fill="rgb(0,0,0)" stroke="none">05/10</tspan></tspan></tspan></text>
 <text class="TextShape"><tspan class="TextParagraph" font-family="Liberation Sans, sans-serif" font-size="353px" font-weight="400"><tspan class="TextPosition" x="13176" y="11815"><tspan fill="rgb(0,0,0)" stroke="none">12/10</tspan></tspan></tspan></text>
 <text class="TextShape"><tspan class="TextParagraph" font-family="Liberation Sans, sans-serif" font-size="353px" font-weight="400"><tspan class="TextPosition" x="14295" y="11815"><tspan fill="rgb(0,0,0)" stroke="none">19/10</tspan></tspan></tspan></text>
 <text class="TextShape"><tspan class="TextParagraph" font-family="Liberation Sans, sans-serif" font-size="353px" font-weight="400"><tspan class="TextPosition" x="527" y="11368"><tspan fill="rgb(0,0,0)" stroke="none">0%</tspan></tspan></tspan></text>
 <text class="TextShape"><tspan class="TextParagraph" font-family="Liberation Sans, sans-serif" font-size="353px" font-weight="400"><tspan class="TextPosition" x="342" y="10336"><tspan fill="rgb(0,0,0)" stroke="none">10%</tspan></tspan></tspan></text>
 <text class="TextShape"><tspan class="TextParagraph" font-family="Liberation Sans, sans-serif" font-size="353px" font-weight="400"><tspan class="TextPosition" x="342" y="9304"><tspan fill="rgb(0,0,0)" stroke="none">20%</tspan></tspan></tspan></text>
 <text class="TextShape"><tspan class="TextParagraph" font-family="Liberation Sans, sans-serif" font-size="353px" font-weight="400"><tspan class="TextPosition" x="342" y="8272"><tspan fill="rgb(0,0,0)" stroke="none">30%</tspan></tspan></tspan></text>
 <text class="TextShape"><tspan class="TextParagraph" font-family="Liberation Sans, sans-serif" font-size="353px" font-weight="400"><tspan class="TextPosition" x="342" y="7241"><tspan fill="rgb(0,0,0)" stroke="none">40%</tspan></tspan></tspan></text>
 <text class="TextShape"><tspan class="TextParagraph" font-family="Liberation Sans, sans-serif" font-size="353px" font-weight="400"><tspan class="TextPosition" x="342" y="6209"><tspan fill="rgb(0,0,0)" stroke="none">50%</tspan></tspan></tspan></text>
 <text class="TextShape"><tspan class="TextParagraph" font-family="Liberation Sans, sans-serif" font-size="353px" font-weight="400"><tspan class="TextPosition" x="342" y="5177"><tspan fill="rgb(0,0,0)" stroke="none">60%</tspan></tspan></tspan></text>
 <text class="TextShape"><tspan class="TextParagraph" font-family="Liberation Sans, sans-serif" font-size="353px" font-weight="400"><tspan class="TextPosition" x="342" y="4146"><tspan fill="rgb(0,0,0)" stroke="none">70%</tspan></tspan></tspan></text>
 <text class="TextShape"><tspan class="TextParagraph" font-family="Liberation Sans, sans-serif" font-size="353px" font-weight="400"><tspan class="TextPosition" x="342" y="3114"><tspan fill="rgb(0,0,0)" stroke="none">80%</tspan></tspan></tspan></text>
 <text class="TextShape"><tspan class="TextParagraph" font-family="Liberation Sans, sans-serif" font-size="353px" font-weight="400"><tspan class="TextPosition" x="342" y="2082"><tspan fill="rgb(0,0,0)" stroke="none">90%</tspan></tspan></tspan></text>
 <text class="TextShape"><tspan class="TextParagraph" font-family="Liberation Sans, sans-serif" font-size="353px" font-weight="400"><tspan class="TextPosition" x="157" y="1051"><tspan fill="rgb(0,0,0)" stroke="none">100%</tspan></tspan></tspan></text>
 <text class="TextShape"><tspan class="TextParagraph" font-family="Liberation Sans, sans-serif" font-size="459px" font-weight="400"><tspan class="TextPosition" x="4599" y="724"><tspan fill="rgb(0,0,0)" stroke="none">Covid-19 (porcentaje de muertes diarias)</tspan></tspan></tspan></text>
 <text class="TextShape"><tspan class="TextParagraph" font-family="Arial, sans-serif" font-size="423px" font-weight="400"><tspan class="TextPosition" x="15325" y="8200"><tspan fill="rgb(0,0,0)" stroke="none">Andalucía</tspan></tspan></tspan></text>
 <text class="TextShape"><tspan class="TextParagraph" font-family="Arial, sans-serif" font-size="423px" font-weight="400"><tspan class="TextPosition" x="15336" y="6755"><tspan fill="rgb(0,0,0)" stroke="none">Cast. LM</tspan></tspan></tspan></text>
 <text class="TextShape"><tspan class="TextParagraph" font-family="Arial, sans-serif" font-size="423px" font-weight="400"><tspan class="TextPosition" x="15302" y="6107"><tspan fill="rgb(0,0,0)" stroke="none">País Vasco</tspan></tspan></tspan></text>
 <text class="TextShape"><tspan class="TextParagraph" font-family="Arial, sans-serif" font-size="423px" font-weight="400"><tspan class="TextPosition" x="15303" y="5335"><tspan fill="rgb(0,0,0)" stroke="none">Cast. León</tspan></tspan></tspan></text>
 <text class="TextShape"><tspan class="TextParagraph" font-family="Arial, sans-serif" font-size="423px" font-weight="400"><tspan class="TextPosition" x="15293" y="4728"><tspan fill="rgb(0,0,0)" stroke="none">C Valenciana</tspan></tspan></tspan></text>
 <text class="TextShape"><tspan class="TextParagraph" font-family="Arial, sans-serif" font-size="423px" font-weight="400"><tspan class="TextPosition" x="15403" y="2073"><tspan fill="rgb(0,0,0)" stroke="none">Resto</tspan></tspan></tspan></text>
 <text class="TextShape"><tspan class="TextParagraph" font-family="Arial, sans-serif" font-size="423px" font-weight="400"><tspan class="TextPosition" x="15380" y="9478"><tspan fill="rgb(0,0,0)" stroke="none">Madrid</tspan></tspan></tspan></text>
 <text class="TextShape"><tspan class="TextParagraph" font-family="Arial, sans-serif" font-size="423px" font-weight="400"><tspan class="TextPosition" x="15336" y="7323"><tspan fill="rgb(0,0,0)" stroke="none">Aragón</tspan></tspan></tspan></text>
</svg>