<?xml version="1.0" encoding="UTF-8"?>
<!DOCTYPE svg PUBLIC "-//W3C//DTD SVG 1.1//EN" "http://www.w3.org/Graphics/SVG/1.1/DTD/svg11.dtd">
<svg width="150mm" height="120mm" viewBox="0 0 15000 12000" version="1.1" xmlns="http://www.w3.org/2000/svg" xmlns:xlink="http://www.w3.org/1999/xlink" stroke-width="28.222" stroke-linejoin="round" xml:space="preserve">
 <path fill="rgb(255,255,255)" stroke="none" d="M 7500,12000 L 0,12000 0,0 15000,0 15000,12000 7500,12000 Z"/>
 <path fill="none" stroke="rgb(0,0,0)" stroke-linejoin="round" d="M 8048,11278 L 1393,11278 1393,779 14704,779 14704,11278 8048,11278 Z"/>
 <path fill="none" stroke="rgb(0,0,0)" stroke-linejoin="round" d="M 14704,11277 L 1393,11277"/>
 <path fill="none" stroke="rgb(0,0,0)" stroke-linejoin="round" d="M 14704,9527 L 1393,9527"/>
 <path fill="none" stroke="rgb(0,0,0)" stroke-linejoin="round" d="M 14704,7777 L 1393,7777"/>
 <path fill="none" stroke="rgb(0,0,0)" stroke-linejoin="round" d="M 14704,6027 L 1393,6027"/>
 <path fill="none" stroke="rgb(0,0,0)" stroke-linejoin="round" d="M 14704,4278 L 1393,4278"/>
 <path fill="none" stroke="rgb(0,0,0)" stroke-linejoin="round" d="M 14704,2528 L 1393,2528"/>
 <path fill="none" stroke="rgb(0,0,0)" stroke-linejoin="round" d="M 14704,778 L 1393,778"/>
 <path fill="none" stroke="rgb(0,0,0)" stroke-linejoin="round" d="M 1393,11427 L 1393,11277"/>
 <path fill="none" stroke="rgb(0,0,0)" stroke-linejoin="round" d="M 1393,11427 L 1393,11277"/>
 <path fill="none" stroke="rgb(0,0,0)" stroke-linejoin="round" d="M 3672,11427 L 3672,11277"/>
 <path fill="none" stroke="rgb(0,0,0)" stroke-linejoin="round" d="M 3672,11427 L 3672,11277"/>
 <path fill="none" stroke="rgb(0,0,0)" stroke-linejoin="round" d="M 5952,11427 L 5952,11277"/>
 <path fill="none" stroke="rgb(0,0,0)" stroke-linejoin="round" d="M 5952,11427 L 5952,11277"/>
 <path fill="none" stroke="rgb(0,0,0)" stroke-linejoin="round" d="M 8158,11427 L 8158,11277"/>
 <path fill="none" stroke="rgb(0,0,0)" stroke-linejoin="round" d="M 8158,11427 L 8158,11277"/>
 <path fill="none" stroke="rgb(0,0,0)" stroke-linejoin="round" d="M 10438,11427 L 10438,11277"/>
 <path fill="none" stroke="rgb(0,0,0)" stroke-linejoin="round" d="M 10438,11427 L 10438,11277"/>
 <path fill="none" stroke="rgb(0,0,0)" stroke-linejoin="round" d="M 12644,11427 L 12644,11277"/>
 <path fill="none" stroke="rgb(0,0,0)" stroke-linejoin="round" d="M 12644,11427 L 12644,11277"/>
 <path fill="none" stroke="rgb(0,0,0)" stroke-linejoin="round" d="M 1393,11277 L 14704,11277"/>
 <path fill="none" stroke="rgb(0,0,0)" stroke-linejoin="round" d="M 1243,11277 L 1393,11277"/>
 <path fill="none" stroke="rgb(0,0,0)" stroke-linejoin="round" d="M 1243,11277 L 1393,11277"/>
 <path fill="none" stroke="rgb(0,0,0)" stroke-linejoin="round" d="M 1243,9527 L 1393,9527"/>
 <path fill="none" stroke="rgb(0,0,0)" stroke-linejoin="round" d="M 1243,9527 L 1393,9527"/>
 <path fill="none" stroke="rgb(0,0,0)" stroke-linejoin="round" d="M 1243,7777 L 1393,7777"/>
 <path fill="none" stroke="rgb(0,0,0)" stroke-linejoin="round" d="M 1243,7777 L 1393,7777"/>
 <path fill="none" stroke="rgb(0,0,0)" stroke-linejoin="round" d="M 1243,6027 L 1393,6027"/>
 <path fill="none" stroke="rgb(0,0,0)" stroke-linejoin="round" d="M 1243,6027 L 1393,6027"/>
 <path fill="none" stroke="rgb(0,0,0)" stroke-linejoin="round" d="M 1243,4277 L 1393,4277"/>
 <path fill="none" stroke="rgb(0,0,0)" stroke-linejoin="round" d="M 1243,4277 L 1393,4277"/>
 <path fill="none" stroke="rgb(0,0,0)" stroke-linejoin="round" d="M 1243,2528 L 1393,2528"/>
 <path fill="none" stroke="rgb(0,0,0)" stroke-linejoin="round" d="M 1243,2528 L 1393,2528"/>
 <path fill="none" stroke="rgb(0,0,0)" stroke-linejoin="round" d="M 1243,778 L 1393,778"/>
 <path fill="none" stroke="rgb(0,0,0)" stroke-linejoin="round" d="M 1243,778 L 1393,778"/>
 <path fill="none" stroke="rgb(0,0,0)" stroke-linejoin="round" d="M 1393,11277 L 1393,778"/>
 <path fill="none" stroke="rgb(0,69,134)" stroke-width="100" stroke-linejoin="round" d="M 2569,11277 L 2643,11277 2716,11272 2790,11271 2863,11270 2937,11270 3011,11267 3084,11265 3158,11264 3231,11263 3305,11260 3378,11259 3452,11258 3525,11256 3599,11253 3672,11251 3746,11249 3820,11247 3893,11247 3967,11246 4040,11246 4114,11244 4187,11242 4261,11240 4334,11238 4408,11238 4481,11237 4555,11232 4629,11230 4702,11228 4776,11227 4849,11225 4923,11224 4996,11223 5070,11218 5143,11214 5217,11211 5290,11206 5364,11201 5438,11198 5511,11196 5585,11190 5658,11183 5732,11176 5805,11170 5879,11164 5952,11161 6026,11159 6100,11146 6173,11134 6247,11124 6320,11112 6394,11104 6467,11098 6541,11095 6614,11081 6688,11069 6761,11055 6835,11040 6909,11026 6982,11015 7056,11006 7129,10981 7203,10957 7276,10933 7350,10909 7423,10883 7497,10871 7569,10857 7643,10815 7717,10781 7790,10748 7864,10709 7937,10679 8011,10652 8084,10634 8158,10570 8231,10516 8305,10467 8378,10419 8452,10362 8526,10334 8599,10310 8673,10240 8746,10154 8820,10088 8893,10026 8967,9954 9040,9926 9114,9923 9187,9799 9261,9695 9335,9597 9408,9531 9482,9450 9555,9421 9629,9383 9702,9279 9776,9186 9849,9098 9923,9009 9996,8950 10070,8880 10144,8844 10217,8737 10291,8616 10364,8529 10438,8438 10511,8354 10585,8316 10658,8281 10732,8175 10806,8062 10879,7989 10953,7901 11026,7832 11100,7791 11173,7758 11247,7653 11320,7560 11394,7470 11467,7396 11541,7305 11615,7279 11688,7239 11762,7150 11835,7043 11909,6950 11982,6864 12056,6771 12129,6714 12203,6676 12276,6555 12350,6425 12424,6325 12497,6225 12571,6188 12644,6127 12718,6065 12791,5986 12865,5814 12938,5645 13012,5538 13085,5460 13159,5381 13233,5310 13306,5157 13380,4975 13453,4771 13527,4539 13600,4358 13674,4260 13747,4167 13821,3950 13894,3676 13968,3457 14042,3233 14115,3007 14189,2889 14262,2785 14336,2503 14409,2184 14483,1959 14556,1713 14630,1478 14704,1371"/>
 <path fill="none" stroke="rgb(255,66,14)" stroke-width="100" stroke-linejoin="round" d="M 1393,11276 L 1466,11274 1540,11273 1613,11272 1687,11271 1760,11270 1834,11268 1907,11266 1981,11265 2054,11264 2128,11263 2202,11262 2275,11260 2349,11259 2422,11259 2496,11258 2569,11256 2643,11255 2716,11254 2790,11227 2863,11226 2937,11225 3011,11224 3084,11223 3158,11222 3231,11221 3305,11220 3378,11219 3452,11218 3525,11217 3599,11215 3672,11214 3746,11213 3820,11212 3893,11212 3967,11211 4040,11209 4114,11208 4187,11207 4261,11205 4334,11202 4408,11201 4481,11198 4555,11197 4629,11194 4702,11193 4776,11191 4849,11190 4923,11188 4996,11186 5070,11184 5143,11182 5217,11180 5290,11178 5364,11174 5438,11172 5511,11169 5585,11166 5658,11163 5732,11159 5805,11155 5879,11152 5952,11149 6026,11146 6100,11142 6173,11139 6247,11135 6320,11131 6394,11126 6467,11123 6541,11120 6614,11115 6688,11110 6761,11106 6835,11101 6909,11096 6982,11091 7056,11084 7129,11077 7203,11070 7276,11055 7350,11046 7423,11037 7497,11025 7569,11012 7643,10997 7717,10975 7790,10951 7864,10935 7937,10908 8011,10886 8084,10861 8158,10823 8231,10787 8305,10749 8378,10714 8452,10662 8526,10626 8599,10585 8673,10523 8746,10462 8820,10387 8893,10309 8967,10234 9040,10176 9114,10114 9187,10012 9261,9903 9335,9792 9408,9696 9482,9601 9555,9505 9629,9417 9702,9289 9776,9157 9849,9043 9923,8921 9996,8800 10070,8701 10144,8591 10217,8442 10291,8315 10364,8171 10438,8027 10511,7907 10585,7812 10658,7694 10732,7557 10806,7437 10879,7264 10953,7121 11026,7005 11100,6907 11173,6814 11247,6703 11320,6616 11394,6461 11467,6328 11541,6214 11615,6129 11688,6043 11762,5896 11835,5777 11909,5658 11982,5540 12056,5443 12129,5381 12203,5309 12276,5199 12350,5102 12424,5014 12497,4933 12571,4888 12644,4834 12718,4756 12791,4641 12865,4541 12938,4443 13012,4363 13085,4299 13159,4238 13233,4177 13306,4064 13380,3968 13453,3895 13527,3787 13600,3702 13674,3639 13747,3561 13821,3453 13894,3364 13968,3273 14042,3189 14115,3106 14189,3040 14262,2976 14336,2869 14409,2782 14483,2686 14556,2603 14630,2518 14704,2466"/>
 <path fill="none" stroke="rgb(255,211,32)" stroke-width="100" stroke-linejoin="round" d="M 1393,11274 L 1466,11271 1540,11268 1613,11266 1687,11264 1760,11264 1834,11264 1907,11259 1981,11258 2054,11257 2128,11256 2202,11253 2275,11253 2349,11253 2422,11251 2496,11248 2569,11245 2643,11242 2716,11239 2790,11239 2863,11239 2937,11235 3011,11231 3084,11228 3158,11226 3231,11222 3305,11221 3378,11220 3452,11218 3525,11215 3599,11215 3672,11209 3746,11206 3820,11205 3893,11204 3967,11199 4040,11194 4114,11190 4187,11187 4261,11190 4334,11188 4408,11187 4481,11183 4555,11176 4629,11172 4702,11168 4776,11154 4849,11151 4923,11150 4996,11144 5070,11135 5143,11127 5217,11118 5290,11092 5364,11087 5438,11085 5511,11076 5585,11062 5658,11055 5732,11046 5805,11019 5879,11013 5952,11008 6026,10994 6100,10979 6173,10968 6247,10957 6320,10933 6394,10925 6467,10920 6541,10908 6614,10896 6688,10882 6761,10869 6835,10850 6909,10840 6982,10832 7056,10816 7129,10797 7203,10779 7276,10763 7350,10732 7423,10717 7497,10702 7569,10676 7643,10630 7717,10602 7790,10573 7864,10521 7937,10497 8011,10477 8084,10432 8158,10340 8231,10298 8305,10257 8378,10161 8452,10122 8526,10082 8599,10009 8673,9860 8746,9792 8820,9729 8893,9584 8967,9531 9040,9483 9114,9387 9187,9174 9261,9116 9335,9042 9408,8879 9482,8817 9555,8764 9629,8676 9702,8462 9776,8388 9849,8313 9923,8114 9996,8069 10070,8032 10144,7945 10217,7769 10291,7702 10364,7643 10438,7475 10511,7438 10585,7403 10658,7332 10732,7197 10806,7142 10879,7086 10953,6976 11026,6949 11100,6908 11173,6844 11247,6699 11320,6647 11394,6596 11467,6486 11541,6452 11615,6426 11688,6361 11762,6223 11835,6172 11909,6127 11982,6020 12056,5988 12129,5965 12203,5904 12276,5763 12350,5715 12424,5664 12497,5636 12571,5611 12644,5581 12718,5517 12791,5347 12865,5294 12938,5251 13012,5227 13085,5200 13159,5180 13233,5113 13306,4962 13380,4912 13453,4864 13527,4761 13600,4731 13674,4705 13747,4651 13821,4521 13894,4481 13968,4431 14042,4320 14115,4286 14189,4262 14262,4191 14336,4076 14409,4022 14483,3961 14556,3848 14630,3808 14704,3778"/>
 <path fill="none" stroke="rgb(87,157,28)" stroke-width="100" stroke-linejoin="round" d="M 1393,11277 L 1466,11276 1540,11275 1613,11274 1687,11272 1760,11271 1834,11272 1907,11271 1981,11270 2054,11268 2128,11267 2202,11265 2275,11263 2349,11263 2422,11263 2496,11262 2569,11261 2643,11260 2716,11258 2790,11257 2863,11257 2937,11257 3011,11256 3084,11255 3158,11253 3231,11252 3305,11250 3378,11250 3452,11250 3525,11249 3599,11248 3672,11247 3746,11247 3820,11247 3893,11246 3967,11245 4040,11244 4114,11242 4187,11241 4261,11241 4334,11240 4408,11240 4481,11240 4555,11240 4629,11238 4702,11237 4776,11237 4849,11236 4923,11236 4996,11236 5070,11234 5143,11233 5217,11232 5290,11231 5364,11230 5438,11230 5511,11230 5585,11228 5658,11226 5732,11222 5805,11220 5879,11218 5952,11217 6026,11217 6100,11215 6173,11212 6247,11210 6320,11208 6394,11205 6467,11205 6541,11204 6614,11202 6688,11199 6761,11196 6835,11194 6909,11191 6982,11190 7056,11188 7129,11186 7203,11179 7276,11173 7350,11169 7423,11163 7497,11161 7569,11159 7643,11151 7717,11144 7790,11139 7864,11130 7937,11122 8011,11117 8084,11112 8158,11105 8231,11090 8305,11075 8378,11061 8452,11043 8526,11038 8599,11029 8673,11006 8746,10980 8820,10959 8893,10930 8967,10908 9040,10897 9114,10886 9187,10859 9261,10813 9335,10775 9408,10737 9482,10706 9555,10687 9629,10676 9702,10630 9776,10576 9849,10532 9923,10487 9996,10442 10070,10418 10144,10403 10217,10359 10291,10287 10364,10219 10438,10145 10511,10078 10585,10051 10658,10029 10732,9961 10806,9876 10879,9792 10953,9716 11026,9632 11100,9587 11173,9561 11247,9487 11320,9384 11394,9307 11467,9202 11541,9116 11615,9059 11688,9027 11762,8939 11835,8776 11909,8650 11982,8508 12056,8385 12129,8314 12203,8274 12276,8146 12350,7978 12424,7837 12497,7765 12571,7723 12644,7661 12718,7600 12791,7451 12865,7253 12938,7085 13012,6988 13085,6929 13159,6875 13233,6822 13306,6657 13380,6478 13453,6291 13527,6083 13600,5895 13674,5813 13747,5753 13821,5597 13894,5412 13968,5194 14042,4999 14115,4828 14189,4750 14262,4712 14336,4539 14409,4338 14483,4161 14556,4011 14630,3857 14704,3796"/>
 <path fill="none" stroke="rgb(126,0,33)" stroke-width="100" stroke-linejoin="round" d="M 1393,11276 L 1466,11276 1540,11275 1613,11275 1687,11274 1760,11274 1834,11274 1907,11270 1981,11265 2054,11265 2128,11265 2202,11264 2275,11264 2349,11264 2422,11251 2496,11250 2569,11251 2643,11246 2716,11244 2790,11244 2863,11244 2937,11239 3011,11235 3084,11213 3158,11210 3231,11205 3305,11205 3378,11205 3452,11200 3525,11190 3599,11182 3672,11178 3746,11175 3820,11175 3893,11175 3967,11161 4040,11151 4114,11143 4187,11136 4261,11104 4334,11104 4408,11104 4481,11087 4555,11073 4629,11067 4702,11055 4776,11046 4849,11046 4923,11046 4996,11029 5070,11001 5143,10960 5217,10931 5290,10915 5364,10915 5438,10915 5511,10886 5585,10844 5658,10821 5732,10806 5805,10787 5879,10787 5952,10787 6026,10755 6100,10720 6173,10689 6247,10657 6320,10637 6394,10637 6467,10637 6541,10613 6614,10567 6688,10554 6761,10532 6835,10490 6909,10490 6982,10490 7056,10455 7129,10441 7203,10405 7276,10380 7350,10341 7423,10341 7497,10341 7569,10304 7643,10265 7717,10238 7790,10211 7864,10171 7937,10171 8011,10171 8084,10122 8158,10075 8231,10046 8305,10015 8378,9973 8452,9973 8526,9973 8599,9907 8673,9865 8746,9581 8820,9517 8893,9456 8967,9456 9040,9456 9114,9367 9187,9295 9261,9234 9335,9171 9408,9118 9482,9118 9555,9118 9629,9033 9702,8957 9776,8895 9849,8851 9923,8794 9996,8794 10070,8794 10144,8704 10217,8610 10291,8546 10364,8487 10438,8435 10511,8435 10585,8435 10658,8365 10732,8288 10806,8240 10879,8195 10953,8158 11026,8158 11100,8158 11173,8089 11247,8089 11320,8024 11394,7967 11467,7918 11541,7918 11615,7918 11688,7850 11762,7782 11835,7748 11909,7716 11982,7690 12056,7690 12129,7690 12203,7632 12276,7586 12350,7555 12424,7533 12497,7533 12571,7533 12644,7533 12718,7481 12791,7425 12865,7382 12938,7356 13012,7356 13085,7356 13159,7356 13233,7313 13306,7252 13380,7252 13453,7209 13527,7174 13600,7174 13674,7174 13747,7104 13821,7033 13894,6998 13968,6963 14042,6922 14115,6922 14189,6922 14262,6843 14336,6772 14409,6691 14483,6620 14556,6550 14630,6550 14704,6550"/>
 <text class="TextShape"><tspan class="TextParagraph" font-family="Liberation Sans, sans-serif" font-size="353px" font-weight="400"><tspan class="TextPosition" x="969" y="11845"><tspan fill="rgb(0,0,0)" stroke="none">27/07</tspan></tspan></tspan></text>
 <text class="TextShape"><tspan class="TextParagraph" font-family="Liberation Sans, sans-serif" font-size="353px" font-weight="400"><tspan class="TextPosition" x="3248" y="11845"><tspan fill="rgb(0,0,0)" stroke="none">27/08</tspan></tspan></tspan></text>
 <text class="TextShape"><tspan class="TextParagraph" font-family="Liberation Sans, sans-serif" font-size="353px" font-weight="400"><tspan class="TextPosition" x="5528" y="11845"><tspan fill="rgb(0,0,0)" stroke="none">27/09</tspan></tspan></tspan></text>
 <text class="TextShape"><tspan class="TextParagraph" font-family="Liberation Sans, sans-serif" font-size="353px" font-weight="400"><tspan class="TextPosition" x="7735" y="11845"><tspan fill="rgb(0,0,0)" stroke="none">27/10</tspan></tspan></tspan></text>
 <text class="TextShape"><tspan class="TextParagraph" font-family="Liberation Sans, sans-serif" font-size="353px" font-weight="400"><tspan class="TextPosition" x="10015" y="11845"><tspan fill="rgb(0,0,0)" stroke="none">27/11</tspan></tspan></tspan></text>
 <text class="TextShape"><tspan class="TextParagraph" font-family="Liberation Sans, sans-serif" font-size="353px" font-weight="400"><tspan class="TextPosition" x="12221" y="11845"><tspan fill="rgb(0,0,0)" stroke="none">27/12</tspan></tspan></tspan></text>
 <text class="TextShape"><tspan class="TextParagraph" font-family="Liberation Sans, sans-serif" font-size="353px" font-weight="400"><tspan class="TextPosition" x="111" y="9648"><tspan fill="rgb(0,0,0)" stroke="none">10.000</tspan></tspan></tspan></text>
 <text class="TextShape"><tspan class="TextParagraph" font-family="Liberation Sans, sans-serif" font-size="353px" font-weight="400"><tspan class="TextPosition" x="111" y="7898"><tspan fill="rgb(0,0,0)" stroke="none">20.000</tspan></tspan></tspan></text>
 <text class="TextShape"><tspan class="TextParagraph" font-family="Liberation Sans, sans-serif" font-size="353px" font-weight="400"><tspan class="TextPosition" x="111" y="6148"><tspan fill="rgb(0,0,0)" stroke="none">30.000</tspan></tspan></tspan></text>
 <text class="TextShape"><tspan class="TextParagraph" font-family="Liberation Sans, sans-serif" font-size="353px" font-weight="400"><tspan class="TextPosition" x="111" y="4397"><tspan fill="rgb(0,0,0)" stroke="none">40.000</tspan></tspan></tspan></text>
 <text class="TextShape"><tspan class="TextParagraph" font-family="Liberation Sans, sans-serif" font-size="353px" font-weight="400"><tspan class="TextPosition" x="111" y="2648"><tspan fill="rgb(0,0,0)" stroke="none">50.000</tspan></tspan></tspan></text>
 <text class="TextShape"><tspan class="TextParagraph" font-family="Liberation Sans, sans-serif" font-size="353px" font-weight="400"><tspan class="TextPosition" x="111" y="898"><tspan fill="rgb(0,0,0)" stroke="none">60.000</tspan></tspan></tspan></text>
 <text class="TextShape"><tspan class="TextParagraph" font-family="Liberation Sans, sans-serif" font-size="459px" font-weight="400"><tspan class="TextPosition" x="1968" y="538"><tspan fill="rgb(0,0,0)" stroke="none">Covid-19. Muertes acumuladas en Europa Occidental (1)</tspan></tspan></tspan></text>
 <path fill="none" stroke="rgb(0,69,134)" stroke-width="100" stroke-linejoin="round" d="M 2036,2005 L 2836,2005"/>
 <path fill="none" stroke="rgb(255,66,14)" stroke-width="100" stroke-linejoin="round" d="M 2036,2907 L 2836,2907"/>
 <path fill="none" stroke="rgb(255,211,32)" stroke-width="100" stroke-linejoin="round" d="M 2036,3809 L 2836,3809"/>
 <path fill="none" stroke="rgb(87,157,28)" stroke-width="100" stroke-linejoin="round" d="M 2036,4711 L 2836,4711"/>
 <path fill="none" stroke="rgb(126,0,33)" stroke-width="100" stroke-linejoin="round" d="M 2036,5613 L 2836,5613"/>
 <text class="TextShape"><tspan class="TextParagraph" font-family="Liberation Sans, sans-serif" font-size="353px" font-weight="400"><tspan class="TextPosition" x="2936" y="2125"><tspan fill="rgb(0,0,0)" stroke="none">Reino Unido</tspan></tspan></tspan></text>
 <text class="TextShape"><tspan class="TextParagraph" font-family="Liberation Sans, sans-serif" font-size="353px" font-weight="400"><tspan class="TextPosition" x="2936" y="3027"><tspan fill="rgb(0,0,0)" stroke="none">Italia</tspan></tspan></tspan></text>
 <text class="TextShape"><tspan class="TextParagraph" font-family="Liberation Sans, sans-serif" font-size="353px" font-weight="400"><tspan class="TextPosition" x="2936" y="3929"><tspan fill="rgb(0,0,0)" stroke="none">Francia</tspan></tspan></tspan></text>
 <text class="TextShape"><tspan class="TextParagraph" font-family="Liberation Sans, sans-serif" font-size="353px" font-weight="400"><tspan class="TextPosition" x="2936" y="4831"><tspan fill="rgb(0,0,0)" stroke="none">Alemania</tspan></tspan></tspan></text>
 <text class="TextShape"><tspan class="TextParagraph" font-family="Liberation Sans, sans-serif" font-size="353px" font-weight="400"><tspan class="TextPosition" x="2936" y="5733"><tspan fill="rgb(0,0,0)" stroke="none">España</tspan></tspan></tspan></text>
</svg>