<?xml version="1.0" encoding="UTF-8"?>
<!DOCTYPE svg PUBLIC "-//W3C//DTD SVG 1.1//EN" "http://www.w3.org/Graphics/SVG/1.1/DTD/svg11.dtd">
<svg width="150mm" height="120mm" viewBox="0 0 15000 12000" version="1.1" xmlns="http://www.w3.org/2000/svg" xmlns:xlink="http://www.w3.org/1999/xlink" stroke-width="28.222" stroke-linejoin="round" xml:space="preserve">
 <path fill="rgb(255,255,255)" stroke="none" d="M 7500,12000 L 0,12000 0,0 15000,0 15000,12000 7500,12000 Z"/>
 <path fill="none" stroke="rgb(0,0,0)" stroke-linejoin="round" d="M 7810,11252 L 933,11252 933,1028 14687,1028 14687,11252 7810,11252 Z"/>
 <path fill="none" stroke="rgb(0,0,0)" stroke-linejoin="round" d="M 14687,11251 L 933,11251"/>
 <path fill="none" stroke="rgb(0,0,0)" stroke-linejoin="round" d="M 14687,9790 L 933,9790"/>
 <path fill="none" stroke="rgb(0,0,0)" stroke-linejoin="round" d="M 14687,8329 L 933,8329"/>
 <path fill="none" stroke="rgb(0,0,0)" stroke-linejoin="round" d="M 14687,6868 L 933,6868"/>
 <path fill="none" stroke="rgb(0,0,0)" stroke-linejoin="round" d="M 14687,5409 L 933,5409"/>
 <path fill="none" stroke="rgb(0,0,0)" stroke-linejoin="round" d="M 14687,3948 L 933,3948"/>
 <path fill="none" stroke="rgb(0,0,0)" stroke-linejoin="round" d="M 14687,2487 L 933,2487"/>
 <path fill="none" stroke="rgb(0,0,0)" stroke-linejoin="round" d="M 14687,1027 L 933,1027"/>
 <path fill="none" stroke="rgb(0,0,0)" stroke-linejoin="round" d="M 933,11401 L 933,11251"/>
 <path fill="none" stroke="rgb(0,0,0)" stroke-linejoin="round" d="M 933,11401 L 933,11251"/>
 <path fill="none" stroke="rgb(0,0,0)" stroke-linejoin="round" d="M 2308,11401 L 2308,11251"/>
 <path fill="none" stroke="rgb(0,0,0)" stroke-linejoin="round" d="M 2308,11401 L 2308,11251"/>
 <path fill="none" stroke="rgb(0,0,0)" stroke-linejoin="round" d="M 3683,11401 L 3683,11251"/>
 <path fill="none" stroke="rgb(0,0,0)" stroke-linejoin="round" d="M 3683,11401 L 3683,11251"/>
 <path fill="none" stroke="rgb(0,0,0)" stroke-linejoin="round" d="M 5059,11401 L 5059,11251"/>
 <path fill="none" stroke="rgb(0,0,0)" stroke-linejoin="round" d="M 5059,11401 L 5059,11251"/>
 <path fill="none" stroke="rgb(0,0,0)" stroke-linejoin="round" d="M 6434,11401 L 6434,11251"/>
 <path fill="none" stroke="rgb(0,0,0)" stroke-linejoin="round" d="M 6434,11401 L 6434,11251"/>
 <path fill="none" stroke="rgb(0,0,0)" stroke-linejoin="round" d="M 7809,11401 L 7809,11251"/>
 <path fill="none" stroke="rgb(0,0,0)" stroke-linejoin="round" d="M 7809,11401 L 7809,11251"/>
 <path fill="none" stroke="rgb(0,0,0)" stroke-linejoin="round" d="M 9185,11401 L 9185,11251"/>
 <path fill="none" stroke="rgb(0,0,0)" stroke-linejoin="round" d="M 9185,11401 L 9185,11251"/>
 <path fill="none" stroke="rgb(0,0,0)" stroke-linejoin="round" d="M 10560,11401 L 10560,11251"/>
 <path fill="none" stroke="rgb(0,0,0)" stroke-linejoin="round" d="M 10560,11401 L 10560,11251"/>
 <path fill="none" stroke="rgb(0,0,0)" stroke-linejoin="round" d="M 11935,11401 L 11935,11251"/>
 <path fill="none" stroke="rgb(0,0,0)" stroke-linejoin="round" d="M 11935,11401 L 11935,11251"/>
 <path fill="none" stroke="rgb(0,0,0)" stroke-linejoin="round" d="M 13311,11401 L 13311,11251"/>
 <path fill="none" stroke="rgb(0,0,0)" stroke-linejoin="round" d="M 13311,11401 L 13311,11251"/>
 <path fill="none" stroke="rgb(0,0,0)" stroke-linejoin="round" d="M 14687,11401 L 14687,11251"/>
 <path fill="none" stroke="rgb(0,0,0)" stroke-linejoin="round" d="M 14687,11401 L 14687,11251"/>
 <path fill="none" stroke="rgb(0,0,0)" stroke-linejoin="round" d="M 933,11251 L 14687,11251"/>
 <path fill="none" stroke="rgb(0,0,0)" stroke-linejoin="round" d="M 783,11251 L 933,11251"/>
 <path fill="none" stroke="rgb(0,0,0)" stroke-linejoin="round" d="M 783,11251 L 933,11251"/>
 <path fill="none" stroke="rgb(0,0,0)" stroke-linejoin="round" d="M 783,9790 L 933,9790"/>
 <path fill="none" stroke="rgb(0,0,0)" stroke-linejoin="round" d="M 783,9790 L 933,9790"/>
 <path fill="none" stroke="rgb(0,0,0)" stroke-linejoin="round" d="M 783,8329 L 933,8329"/>
 <path fill="none" stroke="rgb(0,0,0)" stroke-linejoin="round" d="M 783,8329 L 933,8329"/>
 <path fill="none" stroke="rgb(0,0,0)" stroke-linejoin="round" d="M 783,6868 L 933,6868"/>
 <path fill="none" stroke="rgb(0,0,0)" stroke-linejoin="round" d="M 783,6868 L 933,6868"/>
 <path fill="none" stroke="rgb(0,0,0)" stroke-linejoin="round" d="M 783,5409 L 933,5409"/>
 <path fill="none" stroke="rgb(0,0,0)" stroke-linejoin="round" d="M 783,5409 L 933,5409"/>
 <path fill="none" stroke="rgb(0,0,0)" stroke-linejoin="round" d="M 783,3948 L 933,3948"/>
 <path fill="none" stroke="rgb(0,0,0)" stroke-linejoin="round" d="M 783,3948 L 933,3948"/>
 <path fill="none" stroke="rgb(0,0,0)" stroke-linejoin="round" d="M 783,2487 L 933,2487"/>
 <path fill="none" stroke="rgb(0,0,0)" stroke-linejoin="round" d="M 783,2487 L 933,2487"/>
 <path fill="none" stroke="rgb(0,0,0)" stroke-linejoin="round" d="M 783,1027 L 933,1027"/>
 <path fill="none" stroke="rgb(0,0,0)" stroke-linejoin="round" d="M 783,1027 L 933,1027"/>
 <path fill="none" stroke="rgb(0,0,0)" stroke-linejoin="round" d="M 933,11251 L 933,1027"/>
 <path fill="none" stroke="rgb(0,0,0)" stroke-width="50" stroke-linejoin="round" d="M 5157,11221 L 5354,11221 5550,11221 5747,11221 5943,11221 6140,11221 6336,11221 6533,11221 6729,11192 6926,11104 7122,11017 7319,10900 7514,10608 7711,10520 7907,10462 8104,10403 8300,10286 8497,10053 8693,9819 8890,9644 9086,9410 9283,9235 9479,9206 9676,9030 9872,8913 10069,8738 10265,8446 10462,8271 10658,8037 10855,7716 11051,7511 11248,7161 11444,6898 11641,6693 11837,6401 12034,6343 12230,6167 12427,5788 12623,5526 12820,5409 13016,5350 13213,5087 13409,4737 13606,4503 13802,4269 13999,3977 14195,3860 14392,3627 14588,3481"/>
 <path fill="rgb(0,0,0)" stroke="none" d="M 5057,11221 L 5157,11321 5257,11221 5157,11121 5057,11221 Z"/>
 <path fill="none" stroke="rgb(0,0,0)" stroke-linejoin="round" d="M 5057,11221 L 5157,11321 5257,11221 5157,11121 5057,11221 Z"/>
 <path fill="rgb(0,0,0)" stroke="none" d="M 5254,11221 L 5354,11321 5454,11221 5354,11121 5254,11221 Z"/>
 <path fill="none" stroke="rgb(0,0,0)" stroke-linejoin="round" d="M 5254,11221 L 5354,11321 5454,11221 5354,11121 5254,11221 Z"/>
 <path fill="rgb(0,0,0)" stroke="none" d="M 5450,11221 L 5550,11321 5650,11221 5550,11121 5450,11221 Z"/>
 <path fill="none" stroke="rgb(0,0,0)" stroke-linejoin="round" d="M 5450,11221 L 5550,11321 5650,11221 5550,11121 5450,11221 Z"/>
 <path fill="rgb(0,0,0)" stroke="none" d="M 5647,11221 L 5747,11321 5847,11221 5747,11121 5647,11221 Z"/>
 <path fill="none" stroke="rgb(0,0,0)" stroke-linejoin="round" d="M 5647,11221 L 5747,11321 5847,11221 5747,11121 5647,11221 Z"/>
 <path fill="rgb(0,0,0)" stroke="none" d="M 5843,11221 L 5943,11321 6043,11221 5943,11121 5843,11221 Z"/>
 <path fill="none" stroke="rgb(0,0,0)" stroke-linejoin="round" d="M 5843,11221 L 5943,11321 6043,11221 5943,11121 5843,11221 Z"/>
 <path fill="rgb(0,0,0)" stroke="none" d="M 6040,11221 L 6140,11321 6240,11221 6140,11121 6040,11221 Z"/>
 <path fill="none" stroke="rgb(0,0,0)" stroke-linejoin="round" d="M 6040,11221 L 6140,11321 6240,11221 6140,11121 6040,11221 Z"/>
 <path fill="rgb(0,0,0)" stroke="none" d="M 6236,11221 L 6336,11321 6436,11221 6336,11121 6236,11221 Z"/>
 <path fill="none" stroke="rgb(0,0,0)" stroke-linejoin="round" d="M 6236,11221 L 6336,11321 6436,11221 6336,11121 6236,11221 Z"/>
 <path fill="rgb(0,0,0)" stroke="none" d="M 6433,11221 L 6533,11321 6633,11221 6533,11121 6433,11221 Z"/>
 <path fill="none" stroke="rgb(0,0,0)" stroke-linejoin="round" d="M 6433,11221 L 6533,11321 6633,11221 6533,11121 6433,11221 Z"/>
 <path fill="rgb(0,0,0)" stroke="none" d="M 6629,11192 L 6729,11292 6829,11192 6729,11092 6629,11192 Z"/>
 <path fill="none" stroke="rgb(0,0,0)" stroke-linejoin="round" d="M 6629,11192 L 6729,11292 6829,11192 6729,11092 6629,11192 Z"/>
 <path fill="rgb(0,0,0)" stroke="none" d="M 6826,11104 L 6926,11204 7026,11104 6926,11004 6826,11104 Z"/>
 <path fill="none" stroke="rgb(0,0,0)" stroke-linejoin="round" d="M 6826,11104 L 6926,11204 7026,11104 6926,11004 6826,11104 Z"/>
 <path fill="rgb(0,0,0)" stroke="none" d="M 7022,11017 L 7122,11117 7222,11017 7122,10917 7022,11017 Z"/>
 <path fill="none" stroke="rgb(0,0,0)" stroke-linejoin="round" d="M 7022,11017 L 7122,11117 7222,11017 7122,10917 7022,11017 Z"/>
 <path fill="rgb(0,0,0)" stroke="none" d="M 7219,10900 L 7319,11000 7419,10900 7319,10800 7219,10900 Z"/>
 <path fill="none" stroke="rgb(0,0,0)" stroke-linejoin="round" d="M 7219,10900 L 7319,11000 7419,10900 7319,10800 7219,10900 Z"/>
 <path fill="rgb(0,0,0)" stroke="none" d="M 7415,10608 L 7514,10708 7614,10608 7514,10508 7415,10608 Z"/>
 <path fill="none" stroke="rgb(0,0,0)" stroke-linejoin="round" d="M 7415,10608 L 7514,10708 7614,10608 7514,10508 7415,10608 Z"/>
 <path fill="rgb(0,0,0)" stroke="none" d="M 7611,10520 L 7711,10620 7811,10520 7711,10420 7611,10520 Z"/>
 <path fill="none" stroke="rgb(0,0,0)" stroke-linejoin="round" d="M 7611,10520 L 7711,10620 7811,10520 7711,10420 7611,10520 Z"/>
 <path fill="rgb(0,0,0)" stroke="none" d="M 7807,10462 L 7907,10562 8007,10462 7907,10362 7807,10462 Z"/>
 <path fill="none" stroke="rgb(0,0,0)" stroke-linejoin="round" d="M 7807,10462 L 7907,10562 8007,10462 7907,10362 7807,10462 Z"/>
 <path fill="rgb(0,0,0)" stroke="none" d="M 8004,10403 L 8104,10503 8204,10403 8104,10303 8004,10403 Z"/>
 <path fill="none" stroke="rgb(0,0,0)" stroke-linejoin="round" d="M 8004,10403 L 8104,10503 8204,10403 8104,10303 8004,10403 Z"/>
 <path fill="rgb(0,0,0)" stroke="none" d="M 8200,10286 L 8300,10386 8400,10286 8300,10186 8200,10286 Z"/>
 <path fill="none" stroke="rgb(0,0,0)" stroke-linejoin="round" d="M 8200,10286 L 8300,10386 8400,10286 8300,10186 8200,10286 Z"/>
 <path fill="rgb(0,0,0)" stroke="none" d="M 8397,10053 L 8497,10153 8597,10053 8497,9953 8397,10053 Z"/>
 <path fill="none" stroke="rgb(0,0,0)" stroke-linejoin="round" d="M 8397,10053 L 8497,10153 8597,10053 8497,9953 8397,10053 Z"/>
 <path fill="rgb(0,0,0)" stroke="none" d="M 8593,9819 L 8693,9919 8793,9819 8693,9719 8593,9819 Z"/>
 <path fill="none" stroke="rgb(0,0,0)" stroke-linejoin="round" d="M 8593,9819 L 8693,9919 8793,9819 8693,9719 8593,9819 Z"/>
 <path fill="rgb(0,0,0)" stroke="none" d="M 8790,9644 L 8890,9744 8990,9644 8890,9544 8790,9644 Z"/>
 <path fill="none" stroke="rgb(0,0,0)" stroke-linejoin="round" d="M 8790,9644 L 8890,9744 8990,9644 8890,9544 8790,9644 Z"/>
 <path fill="rgb(0,0,0)" stroke="none" d="M 8986,9410 L 9086,9510 9186,9410 9086,9310 8986,9410 Z"/>
 <path fill="none" stroke="rgb(0,0,0)" stroke-linejoin="round" d="M 8986,9410 L 9086,9510 9186,9410 9086,9310 8986,9410 Z"/>
 <path fill="rgb(0,0,0)" stroke="none" d="M 9183,9235 L 9283,9335 9383,9235 9283,9135 9183,9235 Z"/>
 <path fill="none" stroke="rgb(0,0,0)" stroke-linejoin="round" d="M 9183,9235 L 9283,9335 9383,9235 9283,9135 9183,9235 Z"/>
 <path fill="rgb(0,0,0)" stroke="none" d="M 9379,9206 L 9479,9306 9579,9206 9479,9106 9379,9206 Z"/>
 <path fill="none" stroke="rgb(0,0,0)" stroke-linejoin="round" d="M 9379,9206 L 9479,9306 9579,9206 9479,9106 9379,9206 Z"/>
 <path fill="rgb(0,0,0)" stroke="none" d="M 9576,9030 L 9676,9130 9776,9030 9676,8930 9576,9030 Z"/>
 <path fill="none" stroke="rgb(0,0,0)" stroke-linejoin="round" d="M 9576,9030 L 9676,9130 9776,9030 9676,8930 9576,9030 Z"/>
 <path fill="rgb(0,0,0)" stroke="none" d="M 9772,8913 L 9872,9013 9972,8913 9872,8813 9772,8913 Z"/>
 <path fill="none" stroke="rgb(0,0,0)" stroke-linejoin="round" d="M 9772,8913 L 9872,9013 9972,8913 9872,8813 9772,8913 Z"/>
 <path fill="rgb(0,0,0)" stroke="none" d="M 9969,8738 L 10069,8838 10169,8738 10069,8638 9969,8738 Z"/>
 <path fill="none" stroke="rgb(0,0,0)" stroke-linejoin="round" d="M 9969,8738 L 10069,8838 10169,8738 10069,8638 9969,8738 Z"/>
 <path fill="rgb(0,0,0)" stroke="none" d="M 10165,8446 L 10265,8546 10365,8446 10265,8346 10165,8446 Z"/>
 <path fill="none" stroke="rgb(0,0,0)" stroke-linejoin="round" d="M 10165,8446 L 10265,8546 10365,8446 10265,8346 10165,8446 Z"/>
 <path fill="rgb(0,0,0)" stroke="none" d="M 10362,8271 L 10462,8371 10562,8271 10462,8171 10362,8271 Z"/>
 <path fill="none" stroke="rgb(0,0,0)" stroke-linejoin="round" d="M 10362,8271 L 10462,8371 10562,8271 10462,8171 10362,8271 Z"/>
 <path fill="rgb(0,0,0)" stroke="none" d="M 10558,8037 L 10658,8137 10758,8037 10658,7937 10558,8037 Z"/>
 <path fill="none" stroke="rgb(0,0,0)" stroke-linejoin="round" d="M 10558,8037 L 10658,8137 10758,8037 10658,7937 10558,8037 Z"/>
 <path fill="rgb(0,0,0)" stroke="none" d="M 10755,7716 L 10855,7816 10955,7716 10855,7616 10755,7716 Z"/>
 <path fill="none" stroke="rgb(0,0,0)" stroke-linejoin="round" d="M 10755,7716 L 10855,7816 10955,7716 10855,7616 10755,7716 Z"/>
 <path fill="rgb(0,0,0)" stroke="none" d="M 10951,7511 L 11051,7611 11151,7511 11051,7411 10951,7511 Z"/>
 <path fill="none" stroke="rgb(0,0,0)" stroke-linejoin="round" d="M 10951,7511 L 11051,7611 11151,7511 11051,7411 10951,7511 Z"/>
 <path fill="rgb(0,0,0)" stroke="none" d="M 11148,7161 L 11248,7261 11348,7161 11248,7061 11148,7161 Z"/>
 <path fill="none" stroke="rgb(0,0,0)" stroke-linejoin="round" d="M 11148,7161 L 11248,7261 11348,7161 11248,7061 11148,7161 Z"/>
 <path fill="rgb(0,0,0)" stroke="none" d="M 11344,6898 L 11444,6998 11544,6898 11444,6798 11344,6898 Z"/>
 <path fill="none" stroke="rgb(0,0,0)" stroke-linejoin="round" d="M 11344,6898 L 11444,6998 11544,6898 11444,6798 11344,6898 Z"/>
 <path fill="rgb(0,0,0)" stroke="none" d="M 11541,6693 L 11641,6793 11741,6693 11641,6593 11541,6693 Z"/>
 <path fill="none" stroke="rgb(0,0,0)" stroke-linejoin="round" d="M 11541,6693 L 11641,6793 11741,6693 11641,6593 11541,6693 Z"/>
 <path fill="rgb(0,0,0)" stroke="none" d="M 11737,6401 L 11837,6501 11937,6401 11837,6301 11737,6401 Z"/>
 <path fill="none" stroke="rgb(0,0,0)" stroke-linejoin="round" d="M 11737,6401 L 11837,6501 11937,6401 11837,6301 11737,6401 Z"/>
 <path fill="rgb(0,0,0)" stroke="none" d="M 11934,6343 L 12034,6443 12134,6343 12034,6243 11934,6343 Z"/>
 <path fill="none" stroke="rgb(0,0,0)" stroke-linejoin="round" d="M 11934,6343 L 12034,6443 12134,6343 12034,6243 11934,6343 Z"/>
 <path fill="rgb(0,0,0)" stroke="none" d="M 12130,6167 L 12230,6267 12330,6167 12230,6067 12130,6167 Z"/>
 <path fill="none" stroke="rgb(0,0,0)" stroke-linejoin="round" d="M 12130,6167 L 12230,6267 12330,6167 12230,6067 12130,6167 Z"/>
 <path fill="rgb(0,0,0)" stroke="none" d="M 12327,5788 L 12427,5888 12527,5788 12427,5688 12327,5788 Z"/>
 <path fill="none" stroke="rgb(0,0,0)" stroke-linejoin="round" d="M 12327,5788 L 12427,5888 12527,5788 12427,5688 12327,5788 Z"/>
 <path fill="rgb(0,0,0)" stroke="none" d="M 12523,5526 L 12623,5626 12723,5526 12623,5426 12523,5526 Z"/>
 <path fill="none" stroke="rgb(0,0,0)" stroke-linejoin="round" d="M 12523,5526 L 12623,5626 12723,5526 12623,5426 12523,5526 Z"/>
 <path fill="rgb(0,0,0)" stroke="none" d="M 12720,5409 L 12820,5509 12920,5409 12820,5309 12720,5409 Z"/>
 <path fill="none" stroke="rgb(0,0,0)" stroke-linejoin="round" d="M 12720,5409 L 12820,5509 12920,5409 12820,5309 12720,5409 Z"/>
 <path fill="rgb(0,0,0)" stroke="none" d="M 12916,5350 L 13016,5450 13116,5350 13016,5250 12916,5350 Z"/>
 <path fill="none" stroke="rgb(0,0,0)" stroke-linejoin="round" d="M 12916,5350 L 13016,5450 13116,5350 13016,5250 12916,5350 Z"/>
 <path fill="rgb(0,0,0)" stroke="none" d="M 13113,5087 L 13213,5187 13313,5087 13213,4987 13113,5087 Z"/>
 <path fill="none" stroke="rgb(0,0,0)" stroke-linejoin="round" d="M 13113,5087 L 13213,5187 13313,5087 13213,4987 13113,5087 Z"/>
 <path fill="rgb(0,0,0)" stroke="none" d="M 13309,4737 L 13409,4837 13509,4737 13409,4637 13309,4737 Z"/>
 <path fill="none" stroke="rgb(0,0,0)" stroke-linejoin="round" d="M 13309,4737 L 13409,4837 13509,4737 13409,4637 13309,4737 Z"/>
 <path fill="rgb(0,0,0)" stroke="none" d="M 13506,4503 L 13606,4603 13706,4503 13606,4403 13506,4503 Z"/>
 <path fill="none" stroke="rgb(0,0,0)" stroke-linejoin="round" d="M 13506,4503 L 13606,4603 13706,4503 13606,4403 13506,4503 Z"/>
 <path fill="rgb(0,0,0)" stroke="none" d="M 13702,4269 L 13802,4369 13902,4269 13802,4169 13702,4269 Z"/>
 <path fill="none" stroke="rgb(0,0,0)" stroke-linejoin="round" d="M 13702,4269 L 13802,4369 13902,4269 13802,4169 13702,4269 Z"/>
 <path fill="rgb(0,0,0)" stroke="none" d="M 13899,3977 L 13999,4077 14099,3977 13999,3877 13899,3977 Z"/>
 <path fill="none" stroke="rgb(0,0,0)" stroke-linejoin="round" d="M 13899,3977 L 13999,4077 14099,3977 13999,3877 13899,3977 Z"/>
 <path fill="rgb(0,0,0)" stroke="none" d="M 14095,3860 L 14195,3960 14295,3860 14195,3760 14095,3860 Z"/>
 <path fill="none" stroke="rgb(0,0,0)" stroke-linejoin="round" d="M 14095,3860 L 14195,3960 14295,3860 14195,3760 14095,3860 Z"/>
 <path fill="rgb(0,0,0)" stroke="none" d="M 14292,3627 L 14392,3727 14492,3627 14392,3527 14292,3627 Z"/>
 <path fill="none" stroke="rgb(0,0,0)" stroke-linejoin="round" d="M 14292,3627 L 14392,3727 14492,3627 14392,3527 14292,3627 Z"/>
 <path fill="rgb(0,0,0)" stroke="none" d="M 14488,3481 L 14588,3581 14688,3481 14588,3381 14488,3481 Z"/>
 <path fill="none" stroke="rgb(0,0,0)" stroke-linejoin="round" d="M 14488,3481 L 14588,3581 14688,3481 14588,3381 14488,3481 Z"/>
 <path fill="none" stroke="rgb(255,66,14)" stroke-width="50" stroke-linejoin="round" d="M 5157,11221 L 5354,11221 5550,11221 5747,11221 5943,11221 6140,11221 6336,11221 6533,11192 6729,11192 6926,11134 7122,11134 7319,10958 7514,10958 7711,10871 7907,10754 8104,10608 8300,10491 8497,10403 8693,10170 8890,10024 9086,9907 9283,9556 9479,9235 9676,9176 9872,9059 10069,8884 10265,8797 10462,8650 10658,8650 10855,8417 11051,8271 11248,7979 11444,7832 11641,7803 11837,7599 12034,7423 12230,7336 12427,6927 12623,6722 12820,6664 13016,6547 13213,6459 13409,6343 13606,6226 13802,6167 13999,6138 14195,6021 14392,5964 14588,5847"/>
 <path fill="rgb(255,66,14)" stroke="none" d="M 5057,11221 L 5157,11321 5257,11221 5157,11121 5057,11221 Z"/>
 <path fill="none" stroke="rgb(255,66,14)" stroke-linejoin="round" d="M 5057,11221 L 5157,11321 5257,11221 5157,11121 5057,11221 Z"/>
 <path fill="rgb(255,66,14)" stroke="none" d="M 5254,11221 L 5354,11321 5454,11221 5354,11121 5254,11221 Z"/>
 <path fill="none" stroke="rgb(255,66,14)" stroke-linejoin="round" d="M 5254,11221 L 5354,11321 5454,11221 5354,11121 5254,11221 Z"/>
 <path fill="rgb(255,66,14)" stroke="none" d="M 5450,11221 L 5550,11321 5650,11221 5550,11121 5450,11221 Z"/>
 <path fill="none" stroke="rgb(255,66,14)" stroke-linejoin="round" d="M 5450,11221 L 5550,11321 5650,11221 5550,11121 5450,11221 Z"/>
 <path fill="rgb(255,66,14)" stroke="none" d="M 5647,11221 L 5747,11321 5847,11221 5747,11121 5647,11221 Z"/>
 <path fill="none" stroke="rgb(255,66,14)" stroke-linejoin="round" d="M 5647,11221 L 5747,11321 5847,11221 5747,11121 5647,11221 Z"/>
 <path fill="rgb(255,66,14)" stroke="none" d="M 5843,11221 L 5943,11321 6043,11221 5943,11121 5843,11221 Z"/>
 <path fill="none" stroke="rgb(255,66,14)" stroke-linejoin="round" d="M 5843,11221 L 5943,11321 6043,11221 5943,11121 5843,11221 Z"/>
 <path fill="rgb(255,66,14)" stroke="none" d="M 6040,11221 L 6140,11321 6240,11221 6140,11121 6040,11221 Z"/>
 <path fill="none" stroke="rgb(255,66,14)" stroke-linejoin="round" d="M 6040,11221 L 6140,11321 6240,11221 6140,11121 6040,11221 Z"/>
 <path fill="rgb(255,66,14)" stroke="none" d="M 6236,11221 L 6336,11321 6436,11221 6336,11121 6236,11221 Z"/>
 <path fill="none" stroke="rgb(255,66,14)" stroke-linejoin="round" d="M 6236,11221 L 6336,11321 6436,11221 6336,11121 6236,11221 Z"/>
 <path fill="rgb(255,66,14)" stroke="none" d="M 6433,11192 L 6533,11292 6633,11192 6533,11092 6433,11192 Z"/>
 <path fill="none" stroke="rgb(255,66,14)" stroke-linejoin="round" d="M 6433,11192 L 6533,11292 6633,11192 6533,11092 6433,11192 Z"/>
 <path fill="rgb(255,66,14)" stroke="none" d="M 6629,11192 L 6729,11292 6829,11192 6729,11092 6629,11192 Z"/>
 <path fill="none" stroke="rgb(255,66,14)" stroke-linejoin="round" d="M 6629,11192 L 6729,11292 6829,11192 6729,11092 6629,11192 Z"/>
 <path fill="rgb(255,66,14)" stroke="none" d="M 6826,11134 L 6926,11234 7026,11134 6926,11034 6826,11134 Z"/>
 <path fill="none" stroke="rgb(255,66,14)" stroke-linejoin="round" d="M 6826,11134 L 6926,11234 7026,11134 6926,11034 6826,11134 Z"/>
 <path fill="rgb(255,66,14)" stroke="none" d="M 7022,11134 L 7122,11234 7222,11134 7122,11034 7022,11134 Z"/>
 <path fill="none" stroke="rgb(255,66,14)" stroke-linejoin="round" d="M 7022,11134 L 7122,11234 7222,11134 7122,11034 7022,11134 Z"/>
 <path fill="rgb(255,66,14)" stroke="none" d="M 7219,10958 L 7319,11058 7419,10958 7319,10858 7219,10958 Z"/>
 <path fill="none" stroke="rgb(255,66,14)" stroke-linejoin="round" d="M 7219,10958 L 7319,11058 7419,10958 7319,10858 7219,10958 Z"/>
 <path fill="rgb(255,66,14)" stroke="none" d="M 7415,10958 L 7514,11058 7614,10958 7514,10858 7415,10958 Z"/>
 <path fill="none" stroke="rgb(255,66,14)" stroke-linejoin="round" d="M 7415,10958 L 7514,11058 7614,10958 7514,10858 7415,10958 Z"/>
 <path fill="rgb(255,66,14)" stroke="none" d="M 7611,10871 L 7711,10971 7811,10871 7711,10771 7611,10871 Z"/>
 <path fill="none" stroke="rgb(255,66,14)" stroke-linejoin="round" d="M 7611,10871 L 7711,10971 7811,10871 7711,10771 7611,10871 Z"/>
 <path fill="rgb(255,66,14)" stroke="none" d="M 7807,10754 L 7907,10854 8007,10754 7907,10654 7807,10754 Z"/>
 <path fill="none" stroke="rgb(255,66,14)" stroke-linejoin="round" d="M 7807,10754 L 7907,10854 8007,10754 7907,10654 7807,10754 Z"/>
 <path fill="rgb(255,66,14)" stroke="none" d="M 8004,10608 L 8104,10708 8204,10608 8104,10508 8004,10608 Z"/>
 <path fill="none" stroke="rgb(255,66,14)" stroke-linejoin="round" d="M 8004,10608 L 8104,10708 8204,10608 8104,10508 8004,10608 Z"/>
 <path fill="rgb(255,66,14)" stroke="none" d="M 8200,10491 L 8300,10591 8400,10491 8300,10391 8200,10491 Z"/>
 <path fill="none" stroke="rgb(255,66,14)" stroke-linejoin="round" d="M 8200,10491 L 8300,10591 8400,10491 8300,10391 8200,10491 Z"/>
 <path fill="rgb(255,66,14)" stroke="none" d="M 8397,10403 L 8497,10503 8597,10403 8497,10303 8397,10403 Z"/>
 <path fill="none" stroke="rgb(255,66,14)" stroke-linejoin="round" d="M 8397,10403 L 8497,10503 8597,10403 8497,10303 8397,10403 Z"/>
 <path fill="rgb(255,66,14)" stroke="none" d="M 8593,10170 L 8693,10270 8793,10170 8693,10070 8593,10170 Z"/>
 <path fill="none" stroke="rgb(255,66,14)" stroke-linejoin="round" d="M 8593,10170 L 8693,10270 8793,10170 8693,10070 8593,10170 Z"/>
 <path fill="rgb(255,66,14)" stroke="none" d="M 8790,10024 L 8890,10124 8990,10024 8890,9924 8790,10024 Z"/>
 <path fill="none" stroke="rgb(255,66,14)" stroke-linejoin="round" d="M 8790,10024 L 8890,10124 8990,10024 8890,9924 8790,10024 Z"/>
 <path fill="rgb(255,66,14)" stroke="none" d="M 8986,9907 L 9086,10007 9186,9907 9086,9807 8986,9907 Z"/>
 <path fill="none" stroke="rgb(255,66,14)" stroke-linejoin="round" d="M 8986,9907 L 9086,10007 9186,9907 9086,9807 8986,9907 Z"/>
 <path fill="rgb(255,66,14)" stroke="none" d="M 9183,9556 L 9283,9656 9383,9556 9283,9456 9183,9556 Z"/>
 <path fill="none" stroke="rgb(255,66,14)" stroke-linejoin="round" d="M 9183,9556 L 9283,9656 9383,9556 9283,9456 9183,9556 Z"/>
 <path fill="rgb(255,66,14)" stroke="none" d="M 9379,9235 L 9479,9335 9579,9235 9479,9135 9379,9235 Z"/>
 <path fill="none" stroke="rgb(255,66,14)" stroke-linejoin="round" d="M 9379,9235 L 9479,9335 9579,9235 9479,9135 9379,9235 Z"/>
 <path fill="rgb(255,66,14)" stroke="none" d="M 9576,9176 L 9676,9276 9776,9176 9676,9076 9576,9176 Z"/>
 <path fill="none" stroke="rgb(255,66,14)" stroke-linejoin="round" d="M 9576,9176 L 9676,9276 9776,9176 9676,9076 9576,9176 Z"/>
 <path fill="rgb(255,66,14)" stroke="none" d="M 9772,9059 L 9872,9159 9972,9059 9872,8959 9772,9059 Z"/>
 <path fill="none" stroke="rgb(255,66,14)" stroke-linejoin="round" d="M 9772,9059 L 9872,9159 9972,9059 9872,8959 9772,9059 Z"/>
 <path fill="rgb(255,66,14)" stroke="none" d="M 9969,8884 L 10069,8984 10169,8884 10069,8784 9969,8884 Z"/>
 <path fill="none" stroke="rgb(255,66,14)" stroke-linejoin="round" d="M 9969,8884 L 10069,8984 10169,8884 10069,8784 9969,8884 Z"/>
 <path fill="rgb(255,66,14)" stroke="none" d="M 10165,8797 L 10265,8897 10365,8797 10265,8697 10165,8797 Z"/>
 <path fill="none" stroke="rgb(255,66,14)" stroke-linejoin="round" d="M 10165,8797 L 10265,8897 10365,8797 10265,8697 10165,8797 Z"/>
 <path fill="rgb(255,66,14)" stroke="none" d="M 10362,8650 L 10462,8750 10562,8650 10462,8550 10362,8650 Z"/>
 <path fill="none" stroke="rgb(255,66,14)" stroke-linejoin="round" d="M 10362,8650 L 10462,8750 10562,8650 10462,8550 10362,8650 Z"/>
 <path fill="rgb(255,66,14)" stroke="none" d="M 10558,8650 L 10658,8750 10758,8650 10658,8550 10558,8650 Z"/>
 <path fill="none" stroke="rgb(255,66,14)" stroke-linejoin="round" d="M 10558,8650 L 10658,8750 10758,8650 10658,8550 10558,8650 Z"/>
 <path fill="rgb(255,66,14)" stroke="none" d="M 10755,8417 L 10855,8517 10955,8417 10855,8317 10755,8417 Z"/>
 <path fill="none" stroke="rgb(255,66,14)" stroke-linejoin="round" d="M 10755,8417 L 10855,8517 10955,8417 10855,8317 10755,8417 Z"/>
 <path fill="rgb(255,66,14)" stroke="none" d="M 10951,8271 L 11051,8371 11151,8271 11051,8171 10951,8271 Z"/>
 <path fill="none" stroke="rgb(255,66,14)" stroke-linejoin="round" d="M 10951,8271 L 11051,8371 11151,8271 11051,8171 10951,8271 Z"/>
 <path fill="rgb(255,66,14)" stroke="none" d="M 11148,7979 L 11248,8079 11348,7979 11248,7879 11148,7979 Z"/>
 <path fill="none" stroke="rgb(255,66,14)" stroke-linejoin="round" d="M 11148,7979 L 11248,8079 11348,7979 11248,7879 11148,7979 Z"/>
 <path fill="rgb(255,66,14)" stroke="none" d="M 11344,7832 L 11444,7932 11544,7832 11444,7732 11344,7832 Z"/>
 <path fill="none" stroke="rgb(255,66,14)" stroke-linejoin="round" d="M 11344,7832 L 11444,7932 11544,7832 11444,7732 11344,7832 Z"/>
 <path fill="rgb(255,66,14)" stroke="none" d="M 11541,7803 L 11641,7903 11741,7803 11641,7703 11541,7803 Z"/>
 <path fill="none" stroke="rgb(255,66,14)" stroke-linejoin="round" d="M 11541,7803 L 11641,7903 11741,7803 11641,7703 11541,7803 Z"/>
 <path fill="rgb(255,66,14)" stroke="none" d="M 11737,7599 L 11837,7699 11937,7599 11837,7499 11737,7599 Z"/>
 <path fill="none" stroke="rgb(255,66,14)" stroke-linejoin="round" d="M 11737,7599 L 11837,7699 11937,7599 11837,7499 11737,7599 Z"/>
 <path fill="rgb(255,66,14)" stroke="none" d="M 11934,7423 L 12034,7523 12134,7423 12034,7323 11934,7423 Z"/>
 <path fill="none" stroke="rgb(255,66,14)" stroke-linejoin="round" d="M 11934,7423 L 12034,7523 12134,7423 12034,7323 11934,7423 Z"/>
 <path fill="rgb(255,66,14)" stroke="none" d="M 12130,7336 L 12230,7436 12330,7336 12230,7236 12130,7336 Z"/>
 <path fill="none" stroke="rgb(255,66,14)" stroke-linejoin="round" d="M 12130,7336 L 12230,7436 12330,7336 12230,7236 12130,7336 Z"/>
 <path fill="rgb(255,66,14)" stroke="none" d="M 12327,6927 L 12427,7027 12527,6927 12427,6827 12327,6927 Z"/>
 <path fill="none" stroke="rgb(255,66,14)" stroke-linejoin="round" d="M 12327,6927 L 12427,7027 12527,6927 12427,6827 12327,6927 Z"/>
 <path fill="rgb(255,66,14)" stroke="none" d="M 12523,6722 L 12623,6822 12723,6722 12623,6622 12523,6722 Z"/>
 <path fill="none" stroke="rgb(255,66,14)" stroke-linejoin="round" d="M 12523,6722 L 12623,6822 12723,6722 12623,6622 12523,6722 Z"/>
 <path fill="rgb(255,66,14)" stroke="none" d="M 12720,6664 L 12820,6764 12920,6664 12820,6564 12720,6664 Z"/>
 <path fill="none" stroke="rgb(255,66,14)" stroke-linejoin="round" d="M 12720,6664 L 12820,6764 12920,6664 12820,6564 12720,6664 Z"/>
 <path fill="rgb(255,66,14)" stroke="none" d="M 12916,6547 L 13016,6647 13116,6547 13016,6447 12916,6547 Z"/>
 <path fill="none" stroke="rgb(255,66,14)" stroke-linejoin="round" d="M 12916,6547 L 13016,6647 13116,6547 13016,6447 12916,6547 Z"/>
 <path fill="rgb(255,66,14)" stroke="none" d="M 13113,6459 L 13213,6559 13313,6459 13213,6359 13113,6459 Z"/>
 <path fill="none" stroke="rgb(255,66,14)" stroke-linejoin="round" d="M 13113,6459 L 13213,6559 13313,6459 13213,6359 13113,6459 Z"/>
 <path fill="rgb(255,66,14)" stroke="none" d="M 13309,6343 L 13409,6443 13509,6343 13409,6243 13309,6343 Z"/>
 <path fill="none" stroke="rgb(255,66,14)" stroke-linejoin="round" d="M 13309,6343 L 13409,6443 13509,6343 13409,6243 13309,6343 Z"/>
 <path fill="rgb(255,66,14)" stroke="none" d="M 13506,6226 L 13606,6326 13706,6226 13606,6126 13506,6226 Z"/>
 <path fill="none" stroke="rgb(255,66,14)" stroke-linejoin="round" d="M 13506,6226 L 13606,6326 13706,6226 13606,6126 13506,6226 Z"/>
 <path fill="rgb(255,66,14)" stroke="none" d="M 13702,6167 L 13802,6267 13902,6167 13802,6067 13702,6167 Z"/>
 <path fill="none" stroke="rgb(255,66,14)" stroke-linejoin="round" d="M 13702,6167 L 13802,6267 13902,6167 13802,6067 13702,6167 Z"/>
 <path fill="rgb(255,66,14)" stroke="none" d="M 13899,6138 L 13999,6238 14099,6138 13999,6038 13899,6138 Z"/>
 <path fill="none" stroke="rgb(255,66,14)" stroke-linejoin="round" d="M 13899,6138 L 13999,6238 14099,6138 13999,6038 13899,6138 Z"/>
 <path fill="rgb(255,66,14)" stroke="none" d="M 14095,6021 L 14195,6121 14295,6021 14195,5922 14095,6021 Z"/>
 <path fill="none" stroke="rgb(255,66,14)" stroke-linejoin="round" d="M 14095,6021 L 14195,6121 14295,6021 14195,5922 14095,6021 Z"/>
 <path fill="rgb(255,66,14)" stroke="none" d="M 14292,5964 L 14392,6063 14492,5964 14392,5864 14292,5964 Z"/>
 <path fill="none" stroke="rgb(255,66,14)" stroke-linejoin="round" d="M 14292,5964 L 14392,6063 14492,5964 14392,5864 14292,5964 Z"/>
 <path fill="rgb(255,66,14)" stroke="none" d="M 14488,5847 L 14588,5947 14688,5847 14588,5747 14488,5847 Z"/>
 <path fill="none" stroke="rgb(255,66,14)" stroke-linejoin="round" d="M 14488,5847 L 14588,5947 14688,5847 14588,5747 14488,5847 Z"/>
 <path fill="none" stroke="rgb(255,211,32)" stroke-width="50" stroke-linejoin="round" d="M 5550,11221 L 5747,11221 5943,11221 6140,11192 6336,11163 6533,11163 6729,11134 6926,11046 7122,10988 7319,10929 7514,10783 7711,10637 7907,10549 8104,10462 8300,10199 8497,10111 8693,10082 8890,9644 9086,9439 9283,9264 9479,9118 9676,8972 9872,8913 10069,8767 10265,8650 10462,8592 10658,8563 10855,8504 11051,8475 11248,8475 11444,8446 11641,8271 11837,8212 12034,8125 12230,8008 12427,7891 12623,7774 12820,7774 13016,7745 13213,7716 13409,7716 13606,7511 13802,7453 13999,7423 14195,7423 14392,7365 14588,7336"/>
 <path fill="rgb(255,211,32)" stroke="none" d="M 5450,11121 L 5550,11321 5650,11121 5450,11121 Z"/>
 <path fill="none" stroke="rgb(255,211,32)" stroke-linejoin="round" d="M 5450,11121 L 5550,11321 5650,11121 5450,11121 Z"/>
 <path fill="rgb(255,211,32)" stroke="none" d="M 5647,11121 L 5747,11321 5847,11121 5647,11121 Z"/>
 <path fill="none" stroke="rgb(255,211,32)" stroke-linejoin="round" d="M 5647,11121 L 5747,11321 5847,11121 5647,11121 Z"/>
 <path fill="rgb(255,211,32)" stroke="none" d="M 5843,11121 L 5943,11321 6043,11121 5843,11121 Z"/>
 <path fill="none" stroke="rgb(255,211,32)" stroke-linejoin="round" d="M 5843,11121 L 5943,11321 6043,11121 5843,11121 Z"/>
 <path fill="rgb(255,211,32)" stroke="none" d="M 6040,11092 L 6140,11292 6240,11092 6040,11092 Z"/>
 <path fill="none" stroke="rgb(255,211,32)" stroke-linejoin="round" d="M 6040,11092 L 6140,11292 6240,11092 6040,11092 Z"/>
 <path fill="rgb(255,211,32)" stroke="none" d="M 6236,11063 L 6336,11263 6436,11063 6236,11063 Z"/>
 <path fill="none" stroke="rgb(255,211,32)" stroke-linejoin="round" d="M 6236,11063 L 6336,11263 6436,11063 6236,11063 Z"/>
 <path fill="rgb(255,211,32)" stroke="none" d="M 6433,11063 L 6533,11263 6633,11063 6433,11063 Z"/>
 <path fill="none" stroke="rgb(255,211,32)" stroke-linejoin="round" d="M 6433,11063 L 6533,11263 6633,11063 6433,11063 Z"/>
 <path fill="rgb(255,211,32)" stroke="none" d="M 6629,11034 L 6729,11234 6829,11034 6629,11034 Z"/>
 <path fill="none" stroke="rgb(255,211,32)" stroke-linejoin="round" d="M 6629,11034 L 6729,11234 6829,11034 6629,11034 Z"/>
 <path fill="rgb(255,211,32)" stroke="none" d="M 6826,10946 L 6926,11146 7026,10946 6826,10946 Z"/>
 <path fill="none" stroke="rgb(255,211,32)" stroke-linejoin="round" d="M 6826,10946 L 6926,11146 7026,10946 6826,10946 Z"/>
 <path fill="rgb(255,211,32)" stroke="none" d="M 7022,10888 L 7122,11088 7222,10888 7022,10888 Z"/>
 <path fill="none" stroke="rgb(255,211,32)" stroke-linejoin="round" d="M 7022,10888 L 7122,11088 7222,10888 7022,10888 Z"/>
 <path fill="rgb(255,211,32)" stroke="none" d="M 7219,10829 L 7319,11029 7419,10829 7219,10829 Z"/>
 <path fill="none" stroke="rgb(255,211,32)" stroke-linejoin="round" d="M 7219,10829 L 7319,11029 7419,10829 7219,10829 Z"/>
 <path fill="rgb(255,211,32)" stroke="none" d="M 7415,10683 L 7514,10883 7614,10683 7415,10683 Z"/>
 <path fill="none" stroke="rgb(255,211,32)" stroke-linejoin="round" d="M 7415,10683 L 7514,10883 7614,10683 7415,10683 Z"/>
 <path fill="rgb(255,211,32)" stroke="none" d="M 7611,10537 L 7711,10737 7811,10537 7611,10537 Z"/>
 <path fill="none" stroke="rgb(255,211,32)" stroke-linejoin="round" d="M 7611,10537 L 7711,10737 7811,10537 7611,10537 Z"/>
 <path fill="rgb(255,211,32)" stroke="none" d="M 7807,10449 L 7907,10649 8007,10449 7807,10449 Z"/>
 <path fill="none" stroke="rgb(255,211,32)" stroke-linejoin="round" d="M 7807,10449 L 7907,10649 8007,10449 7807,10449 Z"/>
 <path fill="rgb(255,211,32)" stroke="none" d="M 8004,10362 L 8104,10562 8204,10362 8004,10362 Z"/>
 <path fill="none" stroke="rgb(255,211,32)" stroke-linejoin="round" d="M 8004,10362 L 8104,10562 8204,10362 8004,10362 Z"/>
 <path fill="rgb(255,211,32)" stroke="none" d="M 8200,10099 L 8300,10299 8400,10099 8200,10099 Z"/>
 <path fill="none" stroke="rgb(255,211,32)" stroke-linejoin="round" d="M 8200,10099 L 8300,10299 8400,10099 8200,10099 Z"/>
 <path fill="rgb(255,211,32)" stroke="none" d="M 8397,10011 L 8497,10211 8597,10011 8397,10011 Z"/>
 <path fill="none" stroke="rgb(255,211,32)" stroke-linejoin="round" d="M 8397,10011 L 8497,10211 8597,10011 8397,10011 Z"/>
 <path fill="rgb(255,211,32)" stroke="none" d="M 8593,9982 L 8693,10182 8793,9982 8593,9982 Z"/>
 <path fill="none" stroke="rgb(255,211,32)" stroke-linejoin="round" d="M 8593,9982 L 8693,10182 8793,9982 8593,9982 Z"/>
 <path fill="rgb(255,211,32)" stroke="none" d="M 8790,9544 L 8890,9744 8990,9544 8790,9544 Z"/>
 <path fill="none" stroke="rgb(255,211,32)" stroke-linejoin="round" d="M 8790,9544 L 8890,9744 8990,9544 8790,9544 Z"/>
 <path fill="rgb(255,211,32)" stroke="none" d="M 8986,9339 L 9086,9539 9186,9339 8986,9339 Z"/>
 <path fill="none" stroke="rgb(255,211,32)" stroke-linejoin="round" d="M 8986,9339 L 9086,9539 9186,9339 8986,9339 Z"/>
 <path fill="rgb(255,211,32)" stroke="none" d="M 9183,9164 L 9283,9364 9383,9164 9183,9164 Z"/>
 <path fill="none" stroke="rgb(255,211,32)" stroke-linejoin="round" d="M 9183,9164 L 9283,9364 9383,9164 9183,9164 Z"/>
 <path fill="rgb(255,211,32)" stroke="none" d="M 9379,9018 L 9479,9218 9579,9018 9379,9018 Z"/>
 <path fill="none" stroke="rgb(255,211,32)" stroke-linejoin="round" d="M 9379,9018 L 9479,9218 9579,9018 9379,9018 Z"/>
 <path fill="rgb(255,211,32)" stroke="none" d="M 9576,8872 L 9676,9072 9776,8872 9576,8872 Z"/>
 <path fill="none" stroke="rgb(255,211,32)" stroke-linejoin="round" d="M 9576,8872 L 9676,9072 9776,8872 9576,8872 Z"/>
 <path fill="rgb(255,211,32)" stroke="none" d="M 9772,8813 L 9872,9013 9972,8813 9772,8813 Z"/>
 <path fill="none" stroke="rgb(255,211,32)" stroke-linejoin="round" d="M 9772,8813 L 9872,9013 9972,8813 9772,8813 Z"/>
 <path fill="rgb(255,211,32)" stroke="none" d="M 9969,8667 L 10069,8867 10169,8667 9969,8667 Z"/>
 <path fill="none" stroke="rgb(255,211,32)" stroke-linejoin="round" d="M 9969,8667 L 10069,8867 10169,8667 9969,8667 Z"/>
 <path fill="rgb(255,211,32)" stroke="none" d="M 10165,8550 L 10265,8750 10365,8550 10165,8550 Z"/>
 <path fill="none" stroke="rgb(255,211,32)" stroke-linejoin="round" d="M 10165,8550 L 10265,8750 10365,8550 10165,8550 Z"/>
 <path fill="rgb(255,211,32)" stroke="none" d="M 10362,8492 L 10462,8692 10562,8492 10362,8492 Z"/>
 <path fill="none" stroke="rgb(255,211,32)" stroke-linejoin="round" d="M 10362,8492 L 10462,8692 10562,8492 10362,8492 Z"/>
 <path fill="rgb(255,211,32)" stroke="none" d="M 10558,8463 L 10658,8663 10758,8463 10558,8463 Z"/>
 <path fill="none" stroke="rgb(255,211,32)" stroke-linejoin="round" d="M 10558,8463 L 10658,8663 10758,8463 10558,8463 Z"/>
 <path fill="rgb(255,211,32)" stroke="none" d="M 10755,8404 L 10855,8604 10955,8404 10755,8404 Z"/>
 <path fill="none" stroke="rgb(255,211,32)" stroke-linejoin="round" d="M 10755,8404 L 10855,8604 10955,8404 10755,8404 Z"/>
 <path fill="rgb(255,211,32)" stroke="none" d="M 10951,8375 L 11051,8575 11151,8375 10951,8375 Z"/>
 <path fill="none" stroke="rgb(255,211,32)" stroke-linejoin="round" d="M 10951,8375 L 11051,8575 11151,8375 10951,8375 Z"/>
 <path fill="rgb(255,211,32)" stroke="none" d="M 11148,8375 L 11248,8575 11348,8375 11148,8375 Z"/>
 <path fill="none" stroke="rgb(255,211,32)" stroke-linejoin="round" d="M 11148,8375 L 11248,8575 11348,8375 11148,8375 Z"/>
 <path fill="rgb(255,211,32)" stroke="none" d="M 11344,8346 L 11444,8546 11544,8346 11344,8346 Z"/>
 <path fill="none" stroke="rgb(255,211,32)" stroke-linejoin="round" d="M 11344,8346 L 11444,8546 11544,8346 11344,8346 Z"/>
 <path fill="rgb(255,211,32)" stroke="none" d="M 11541,8171 L 11641,8371 11741,8171 11541,8171 Z"/>
 <path fill="none" stroke="rgb(255,211,32)" stroke-linejoin="round" d="M 11541,8171 L 11641,8371 11741,8171 11541,8171 Z"/>
 <path fill="rgb(255,211,32)" stroke="none" d="M 11737,8112 L 11837,8312 11937,8112 11737,8112 Z"/>
 <path fill="none" stroke="rgb(255,211,32)" stroke-linejoin="round" d="M 11737,8112 L 11837,8312 11937,8112 11737,8112 Z"/>
 <path fill="rgb(255,211,32)" stroke="none" d="M 11934,8025 L 12034,8225 12134,8025 11934,8025 Z"/>
 <path fill="none" stroke="rgb(255,211,32)" stroke-linejoin="round" d="M 11934,8025 L 12034,8225 12134,8025 11934,8025 Z"/>
 <path fill="rgb(255,211,32)" stroke="none" d="M 12130,7908 L 12230,8108 12330,7908 12130,7908 Z"/>
 <path fill="none" stroke="rgb(255,211,32)" stroke-linejoin="round" d="M 12130,7908 L 12230,8108 12330,7908 12130,7908 Z"/>
 <path fill="rgb(255,211,32)" stroke="none" d="M 12327,7791 L 12427,7991 12527,7791 12327,7791 Z"/>
 <path fill="none" stroke="rgb(255,211,32)" stroke-linejoin="round" d="M 12327,7791 L 12427,7991 12527,7791 12327,7791 Z"/>
 <path fill="rgb(255,211,32)" stroke="none" d="M 12523,7674 L 12623,7874 12723,7674 12523,7674 Z"/>
 <path fill="none" stroke="rgb(255,211,32)" stroke-linejoin="round" d="M 12523,7674 L 12623,7874 12723,7674 12523,7674 Z"/>
 <path fill="rgb(255,211,32)" stroke="none" d="M 12720,7674 L 12820,7874 12920,7674 12720,7674 Z"/>
 <path fill="none" stroke="rgb(255,211,32)" stroke-linejoin="round" d="M 12720,7674 L 12820,7874 12920,7674 12720,7674 Z"/>
 <path fill="rgb(255,211,32)" stroke="none" d="M 12916,7645 L 13016,7845 13116,7645 12916,7645 Z"/>
 <path fill="none" stroke="rgb(255,211,32)" stroke-linejoin="round" d="M 12916,7645 L 13016,7845 13116,7645 12916,7645 Z"/>
 <path fill="rgb(255,211,32)" stroke="none" d="M 13113,7616 L 13213,7816 13313,7616 13113,7616 Z"/>
 <path fill="none" stroke="rgb(255,211,32)" stroke-linejoin="round" d="M 13113,7616 L 13213,7816 13313,7616 13113,7616 Z"/>
 <path fill="rgb(255,211,32)" stroke="none" d="M 13309,7616 L 13409,7816 13509,7616 13309,7616 Z"/>
 <path fill="none" stroke="rgb(255,211,32)" stroke-linejoin="round" d="M 13309,7616 L 13409,7816 13509,7616 13309,7616 Z"/>
 <path fill="rgb(255,211,32)" stroke="none" d="M 13506,7411 L 13606,7611 13706,7411 13506,7411 Z"/>
 <path fill="none" stroke="rgb(255,211,32)" stroke-linejoin="round" d="M 13506,7411 L 13606,7611 13706,7411 13506,7411 Z"/>
 <path fill="rgb(255,211,32)" stroke="none" d="M 13702,7353 L 13802,7553 13902,7353 13702,7353 Z"/>
 <path fill="none" stroke="rgb(255,211,32)" stroke-linejoin="round" d="M 13702,7353 L 13802,7553 13902,7353 13702,7353 Z"/>
 <path fill="rgb(255,211,32)" stroke="none" d="M 13899,7323 L 13999,7523 14099,7323 13899,7323 Z"/>
 <path fill="none" stroke="rgb(255,211,32)" stroke-linejoin="round" d="M 13899,7323 L 13999,7523 14099,7323 13899,7323 Z"/>
 <path fill="rgb(255,211,32)" stroke="none" d="M 14095,7323 L 14195,7523 14295,7323 14095,7323 Z"/>
 <path fill="none" stroke="rgb(255,211,32)" stroke-linejoin="round" d="M 14095,7323 L 14195,7523 14295,7323 14095,7323 Z"/>
 <path fill="rgb(255,211,32)" stroke="none" d="M 14292,7265 L 14392,7465 14492,7265 14292,7265 Z"/>
 <path fill="none" stroke="rgb(255,211,32)" stroke-linejoin="round" d="M 14292,7265 L 14392,7465 14492,7265 14292,7265 Z"/>
 <path fill="rgb(255,211,32)" stroke="none" d="M 14488,7236 L 14588,7436 14688,7236 14488,7236 Z"/>
 <path fill="none" stroke="rgb(255,211,32)" stroke-linejoin="round" d="M 14488,7236 L 14588,7436 14688,7236 14488,7236 Z"/>
 <path fill="none" stroke="rgb(87,157,28)" stroke-width="50" stroke-linejoin="round" d="M 6336,11221 L 6533,11221 6729,11221 6926,11192 7122,11104 7319,11075 7514,10988 7711,10842 7907,10754 8104,10637 8300,10608 8497,10491 8693,10462 8890,10170 9086,9673 9283,9498 9479,9381 9676,9264 9872,9264 10069,9001 10265,8767 10462,8563 10658,8388 10855,8271 11051,8125 11248,8037 11444,7832 11641,7745 11837,7394 12034,7248 12230,7044 12427,6898 12623,6781 12820,6635 13016,6430 13213,6372 13409,6196 13606,6050 13802,5935 13999,5905 14195,5818 14392,5759 14588,5672"/>
 <path fill="rgb(87,157,28)" stroke="none" d="M 6236,11321 L 6436,11321 6336,11121 6236,11321 Z"/>
 <path fill="none" stroke="rgb(87,157,28)" stroke-linejoin="round" d="M 6236,11321 L 6436,11321 6336,11121 6236,11321 Z"/>
 <path fill="rgb(87,157,28)" stroke="none" d="M 6433,11321 L 6633,11321 6533,11121 6433,11321 Z"/>
 <path fill="none" stroke="rgb(87,157,28)" stroke-linejoin="round" d="M 6433,11321 L 6633,11321 6533,11121 6433,11321 Z"/>
 <path fill="rgb(87,157,28)" stroke="none" d="M 6629,11321 L 6829,11321 6729,11121 6629,11321 Z"/>
 <path fill="none" stroke="rgb(87,157,28)" stroke-linejoin="round" d="M 6629,11321 L 6829,11321 6729,11121 6629,11321 Z"/>
 <path fill="rgb(87,157,28)" stroke="none" d="M 6826,11292 L 7026,11292 6926,11092 6826,11292 Z"/>
 <path fill="none" stroke="rgb(87,157,28)" stroke-linejoin="round" d="M 6826,11292 L 7026,11292 6926,11092 6826,11292 Z"/>
 <path fill="rgb(87,157,28)" stroke="none" d="M 7022,11204 L 7222,11204 7122,11004 7022,11204 Z"/>
 <path fill="none" stroke="rgb(87,157,28)" stroke-linejoin="round" d="M 7022,11204 L 7222,11204 7122,11004 7022,11204 Z"/>
 <path fill="rgb(87,157,28)" stroke="none" d="M 7219,11175 L 7419,11175 7319,10975 7219,11175 Z"/>
 <path fill="none" stroke="rgb(87,157,28)" stroke-linejoin="round" d="M 7219,11175 L 7419,11175 7319,10975 7219,11175 Z"/>
 <path fill="rgb(87,157,28)" stroke="none" d="M 7415,11088 L 7614,11088 7514,10888 7415,11088 Z"/>
 <path fill="none" stroke="rgb(87,157,28)" stroke-linejoin="round" d="M 7415,11088 L 7614,11088 7514,10888 7415,11088 Z"/>
 <path fill="rgb(87,157,28)" stroke="none" d="M 7611,10942 L 7811,10942 7711,10742 7611,10942 Z"/>
 <path fill="none" stroke="rgb(87,157,28)" stroke-linejoin="round" d="M 7611,10942 L 7811,10942 7711,10742 7611,10942 Z"/>
 <path fill="rgb(87,157,28)" stroke="none" d="M 7807,10854 L 8007,10854 7907,10654 7807,10854 Z"/>
 <path fill="none" stroke="rgb(87,157,28)" stroke-linejoin="round" d="M 7807,10854 L 8007,10854 7907,10654 7807,10854 Z"/>
 <path fill="rgb(87,157,28)" stroke="none" d="M 8004,10737 L 8204,10737 8104,10537 8004,10737 Z"/>
 <path fill="none" stroke="rgb(87,157,28)" stroke-linejoin="round" d="M 8004,10737 L 8204,10737 8104,10537 8004,10737 Z"/>
 <path fill="rgb(87,157,28)" stroke="none" d="M 8200,10708 L 8400,10708 8300,10508 8200,10708 Z"/>
 <path fill="none" stroke="rgb(87,157,28)" stroke-linejoin="round" d="M 8200,10708 L 8400,10708 8300,10508 8200,10708 Z"/>
 <path fill="rgb(87,157,28)" stroke="none" d="M 8397,10591 L 8597,10591 8497,10391 8397,10591 Z"/>
 <path fill="none" stroke="rgb(87,157,28)" stroke-linejoin="round" d="M 8397,10591 L 8597,10591 8497,10391 8397,10591 Z"/>
 <path fill="rgb(87,157,28)" stroke="none" d="M 8593,10562 L 8793,10562 8693,10362 8593,10562 Z"/>
 <path fill="none" stroke="rgb(87,157,28)" stroke-linejoin="round" d="M 8593,10562 L 8793,10562 8693,10362 8593,10562 Z"/>
 <path fill="rgb(87,157,28)" stroke="none" d="M 8790,10270 L 8990,10270 8890,10070 8790,10270 Z"/>
 <path fill="none" stroke="rgb(87,157,28)" stroke-linejoin="round" d="M 8790,10270 L 8990,10270 8890,10070 8790,10270 Z"/>
 <path fill="rgb(87,157,28)" stroke="none" d="M 8986,9773 L 9186,9773 9086,9573 8986,9773 Z"/>
 <path fill="none" stroke="rgb(87,157,28)" stroke-linejoin="round" d="M 8986,9773 L 9186,9773 9086,9573 8986,9773 Z"/>
 <path fill="rgb(87,157,28)" stroke="none" d="M 9183,9598 L 9383,9598 9283,9398 9183,9598 Z"/>
 <path fill="none" stroke="rgb(87,157,28)" stroke-linejoin="round" d="M 9183,9598 L 9383,9598 9283,9398 9183,9598 Z"/>
 <path fill="rgb(87,157,28)" stroke="none" d="M 9379,9481 L 9579,9481 9479,9281 9379,9481 Z"/>
 <path fill="none" stroke="rgb(87,157,28)" stroke-linejoin="round" d="M 9379,9481 L 9579,9481 9479,9281 9379,9481 Z"/>
 <path fill="rgb(87,157,28)" stroke="none" d="M 9576,9364 L 9776,9364 9676,9164 9576,9364 Z"/>
 <path fill="none" stroke="rgb(87,157,28)" stroke-linejoin="round" d="M 9576,9364 L 9776,9364 9676,9164 9576,9364 Z"/>
 <path fill="rgb(87,157,28)" stroke="none" d="M 9772,9364 L 9972,9364 9872,9164 9772,9364 Z"/>
 <path fill="none" stroke="rgb(87,157,28)" stroke-linejoin="round" d="M 9772,9364 L 9972,9364 9872,9164 9772,9364 Z"/>
 <path fill="rgb(87,157,28)" stroke="none" d="M 9969,9101 L 10169,9101 10069,8901 9969,9101 Z"/>
 <path fill="none" stroke="rgb(87,157,28)" stroke-linejoin="round" d="M 9969,9101 L 10169,9101 10069,8901 9969,9101 Z"/>
 <path fill="rgb(87,157,28)" stroke="none" d="M 10165,8867 L 10365,8867 10265,8667 10165,8867 Z"/>
 <path fill="none" stroke="rgb(87,157,28)" stroke-linejoin="round" d="M 10165,8867 L 10365,8867 10265,8667 10165,8867 Z"/>
 <path fill="rgb(87,157,28)" stroke="none" d="M 10362,8663 L 10562,8663 10462,8463 10362,8663 Z"/>
 <path fill="none" stroke="rgb(87,157,28)" stroke-linejoin="round" d="M 10362,8663 L 10562,8663 10462,8463 10362,8663 Z"/>
 <path fill="rgb(87,157,28)" stroke="none" d="M 10558,8488 L 10758,8488 10658,8288 10558,8488 Z"/>
 <path fill="none" stroke="rgb(87,157,28)" stroke-linejoin="round" d="M 10558,8488 L 10758,8488 10658,8288 10558,8488 Z"/>
 <path fill="rgb(87,157,28)" stroke="none" d="M 10755,8371 L 10955,8371 10855,8171 10755,8371 Z"/>
 <path fill="none" stroke="rgb(87,157,28)" stroke-linejoin="round" d="M 10755,8371 L 10955,8371 10855,8171 10755,8371 Z"/>
 <path fill="rgb(87,157,28)" stroke="none" d="M 10951,8225 L 11151,8225 11051,8025 10951,8225 Z"/>
 <path fill="none" stroke="rgb(87,157,28)" stroke-linejoin="round" d="M 10951,8225 L 11151,8225 11051,8025 10951,8225 Z"/>
 <path fill="rgb(87,157,28)" stroke="none" d="M 11148,8137 L 11348,8137 11248,7937 11148,8137 Z"/>
 <path fill="none" stroke="rgb(87,157,28)" stroke-linejoin="round" d="M 11148,8137 L 11348,8137 11248,7937 11148,8137 Z"/>
 <path fill="rgb(87,157,28)" stroke="none" d="M 11344,7932 L 11544,7932 11444,7732 11344,7932 Z"/>
 <path fill="none" stroke="rgb(87,157,28)" stroke-linejoin="round" d="M 11344,7932 L 11544,7932 11444,7732 11344,7932 Z"/>
 <path fill="rgb(87,157,28)" stroke="none" d="M 11541,7845 L 11741,7845 11641,7645 11541,7845 Z"/>
 <path fill="none" stroke="rgb(87,157,28)" stroke-linejoin="round" d="M 11541,7845 L 11741,7845 11641,7645 11541,7845 Z"/>
 <path fill="rgb(87,157,28)" stroke="none" d="M 11737,7494 L 11937,7494 11837,7294 11737,7494 Z"/>
 <path fill="none" stroke="rgb(87,157,28)" stroke-linejoin="round" d="M 11737,7494 L 11937,7494 11837,7294 11737,7494 Z"/>
 <path fill="rgb(87,157,28)" stroke="none" d="M 11934,7348 L 12134,7348 12034,7148 11934,7348 Z"/>
 <path fill="none" stroke="rgb(87,157,28)" stroke-linejoin="round" d="M 11934,7348 L 12134,7348 12034,7148 11934,7348 Z"/>
 <path fill="rgb(87,157,28)" stroke="none" d="M 12130,7144 L 12330,7144 12230,6944 12130,7144 Z"/>
 <path fill="none" stroke="rgb(87,157,28)" stroke-linejoin="round" d="M 12130,7144 L 12330,7144 12230,6944 12130,7144 Z"/>
 <path fill="rgb(87,157,28)" stroke="none" d="M 12327,6998 L 12527,6998 12427,6798 12327,6998 Z"/>
 <path fill="none" stroke="rgb(87,157,28)" stroke-linejoin="round" d="M 12327,6998 L 12527,6998 12427,6798 12327,6998 Z"/>
 <path fill="rgb(87,157,28)" stroke="none" d="M 12523,6881 L 12723,6881 12623,6681 12523,6881 Z"/>
 <path fill="none" stroke="rgb(87,157,28)" stroke-linejoin="round" d="M 12523,6881 L 12723,6881 12623,6681 12523,6881 Z"/>
 <path fill="rgb(87,157,28)" stroke="none" d="M 12720,6735 L 12920,6735 12820,6535 12720,6735 Z"/>
 <path fill="none" stroke="rgb(87,157,28)" stroke-linejoin="round" d="M 12720,6735 L 12920,6735 12820,6535 12720,6735 Z"/>
 <path fill="rgb(87,157,28)" stroke="none" d="M 12916,6530 L 13116,6530 13016,6330 12916,6530 Z"/>
 <path fill="none" stroke="rgb(87,157,28)" stroke-linejoin="round" d="M 12916,6530 L 13116,6530 13016,6330 12916,6530 Z"/>
 <path fill="rgb(87,157,28)" stroke="none" d="M 13113,6472 L 13313,6472 13213,6272 13113,6472 Z"/>
 <path fill="none" stroke="rgb(87,157,28)" stroke-linejoin="round" d="M 13113,6472 L 13313,6472 13213,6272 13113,6472 Z"/>
 <path fill="rgb(87,157,28)" stroke="none" d="M 13309,6296 L 13509,6296 13409,6096 13309,6296 Z"/>
 <path fill="none" stroke="rgb(87,157,28)" stroke-linejoin="round" d="M 13309,6296 L 13509,6296 13409,6096 13309,6296 Z"/>
 <path fill="rgb(87,157,28)" stroke="none" d="M 13506,6150 L 13706,6150 13606,5951 13506,6150 Z"/>
 <path fill="none" stroke="rgb(87,157,28)" stroke-linejoin="round" d="M 13506,6150 L 13706,6150 13606,5951 13506,6150 Z"/>
 <path fill="rgb(87,157,28)" stroke="none" d="M 13702,6034 L 13902,6034 13802,5835 13702,6034 Z"/>
 <path fill="none" stroke="rgb(87,157,28)" stroke-linejoin="round" d="M 13702,6034 L 13902,6034 13802,5835 13702,6034 Z"/>
 <path fill="rgb(87,157,28)" stroke="none" d="M 13899,6004 L 14099,6004 13999,5805 13899,6004 Z"/>
 <path fill="none" stroke="rgb(87,157,28)" stroke-linejoin="round" d="M 13899,6004 L 14099,6004 13999,5805 13899,6004 Z"/>
 <path fill="rgb(87,157,28)" stroke="none" d="M 14095,5918 L 14295,5918 14195,5718 14095,5918 Z"/>
 <path fill="none" stroke="rgb(87,157,28)" stroke-linejoin="round" d="M 14095,5918 L 14295,5918 14195,5718 14095,5918 Z"/>
 <path fill="rgb(87,157,28)" stroke="none" d="M 14292,5859 L 14492,5859 14392,5659 14292,5859 Z"/>
 <path fill="none" stroke="rgb(87,157,28)" stroke-linejoin="round" d="M 14292,5859 L 14492,5859 14392,5659 14292,5859 Z"/>
 <path fill="rgb(87,157,28)" stroke="none" d="M 14488,5772 L 14688,5772 14588,5572 14488,5772 Z"/>
 <path fill="none" stroke="rgb(87,157,28)" stroke-linejoin="round" d="M 14488,5772 L 14688,5772 14588,5572 14488,5772 Z"/>
 <path fill="none" stroke="rgb(126,0,33)" stroke-width="50" stroke-linejoin="round" d="M 6926,11221 L 7122,11221 7319,11192 7514,11163 7711,11104 7907,11017 8104,10812 8300,10754 8497,10666 8693,10520 8890,10257 9086,10170 9283,10024 9479,9907 9676,9761 9872,9527 10069,9264 10265,8972 10462,8767 10658,8680 10855,8621 11051,8504 11248,8417 11444,8300 11641,8154 11837,8066 12034,8008 12230,7979 12427,7891 12623,7862 12820,7832 13016,7745 13213,7657 13409,7628 13606,7599 13802,7570 13999,7540 14195,7511 14392,7453 14588,7453"/>
 <path fill="rgb(126,0,33)" stroke="none" d="M 6826,11121 L 6826,11321 7026,11221 6826,11121 Z"/>
 <path fill="none" stroke="rgb(126,0,33)" stroke-linejoin="round" d="M 6826,11121 L 6826,11321 7026,11221 6826,11121 Z"/>
 <path fill="rgb(126,0,33)" stroke="none" d="M 7022,11121 L 7022,11321 7222,11221 7022,11121 Z"/>
 <path fill="none" stroke="rgb(126,0,33)" stroke-linejoin="round" d="M 7022,11121 L 7022,11321 7222,11221 7022,11121 Z"/>
 <path fill="rgb(126,0,33)" stroke="none" d="M 7219,11092 L 7219,11292 7419,11192 7219,11092 Z"/>
 <path fill="none" stroke="rgb(126,0,33)" stroke-linejoin="round" d="M 7219,11092 L 7219,11292 7419,11192 7219,11092 Z"/>
 <path fill="rgb(126,0,33)" stroke="none" d="M 7415,11063 L 7415,11263 7614,11163 7415,11063 Z"/>
 <path fill="none" stroke="rgb(126,0,33)" stroke-linejoin="round" d="M 7415,11063 L 7415,11263 7614,11163 7415,11063 Z"/>
 <path fill="rgb(126,0,33)" stroke="none" d="M 7611,11004 L 7611,11204 7811,11104 7611,11004 Z"/>
 <path fill="none" stroke="rgb(126,0,33)" stroke-linejoin="round" d="M 7611,11004 L 7611,11204 7811,11104 7611,11004 Z"/>
 <path fill="rgb(126,0,33)" stroke="none" d="M 7807,10917 L 7807,11117 8007,11017 7807,10917 Z"/>
 <path fill="none" stroke="rgb(126,0,33)" stroke-linejoin="round" d="M 7807,10917 L 7807,11117 8007,11017 7807,10917 Z"/>
 <path fill="rgb(126,0,33)" stroke="none" d="M 8004,10712 L 8004,10912 8204,10812 8004,10712 Z"/>
 <path fill="none" stroke="rgb(126,0,33)" stroke-linejoin="round" d="M 8004,10712 L 8004,10912 8204,10812 8004,10712 Z"/>
 <path fill="rgb(126,0,33)" stroke="none" d="M 8200,10654 L 8200,10854 8400,10754 8200,10654 Z"/>
 <path fill="none" stroke="rgb(126,0,33)" stroke-linejoin="round" d="M 8200,10654 L 8200,10854 8400,10754 8200,10654 Z"/>
 <path fill="rgb(126,0,33)" stroke="none" d="M 8397,10566 L 8397,10766 8597,10666 8397,10566 Z"/>
 <path fill="none" stroke="rgb(126,0,33)" stroke-linejoin="round" d="M 8397,10566 L 8397,10766 8597,10666 8397,10566 Z"/>
 <path fill="rgb(126,0,33)" stroke="none" d="M 8593,10420 L 8593,10620 8793,10520 8593,10420 Z"/>
 <path fill="none" stroke="rgb(126,0,33)" stroke-linejoin="round" d="M 8593,10420 L 8593,10620 8793,10520 8593,10420 Z"/>
 <path fill="rgb(126,0,33)" stroke="none" d="M 8790,10157 L 8790,10357 8990,10257 8790,10157 Z"/>
 <path fill="none" stroke="rgb(126,0,33)" stroke-linejoin="round" d="M 8790,10157 L 8790,10357 8990,10257 8790,10157 Z"/>
 <path fill="rgb(126,0,33)" stroke="none" d="M 8986,10070 L 8986,10270 9186,10170 8986,10070 Z"/>
 <path fill="none" stroke="rgb(126,0,33)" stroke-linejoin="round" d="M 8986,10070 L 8986,10270 9186,10170 8986,10070 Z"/>
 <path fill="rgb(126,0,33)" stroke="none" d="M 9183,9924 L 9183,10124 9383,10024 9183,9924 Z"/>
 <path fill="none" stroke="rgb(126,0,33)" stroke-linejoin="round" d="M 9183,9924 L 9183,10124 9383,10024 9183,9924 Z"/>
 <path fill="rgb(126,0,33)" stroke="none" d="M 9379,9807 L 9379,10007 9579,9907 9379,9807 Z"/>
 <path fill="none" stroke="rgb(126,0,33)" stroke-linejoin="round" d="M 9379,9807 L 9379,10007 9579,9907 9379,9807 Z"/>
 <path fill="rgb(126,0,33)" stroke="none" d="M 9576,9661 L 9576,9861 9776,9761 9576,9661 Z"/>
 <path fill="none" stroke="rgb(126,0,33)" stroke-linejoin="round" d="M 9576,9661 L 9576,9861 9776,9761 9576,9661 Z"/>
 <path fill="rgb(126,0,33)" stroke="none" d="M 9772,9427 L 9772,9627 9972,9527 9772,9427 Z"/>
 <path fill="none" stroke="rgb(126,0,33)" stroke-linejoin="round" d="M 9772,9427 L 9772,9627 9972,9527 9772,9427 Z"/>
 <path fill="rgb(126,0,33)" stroke="none" d="M 9969,9164 L 9969,9364 10169,9264 9969,9164 Z"/>
 <path fill="none" stroke="rgb(126,0,33)" stroke-linejoin="round" d="M 9969,9164 L 9969,9364 10169,9264 9969,9164 Z"/>
 <path fill="rgb(126,0,33)" stroke="none" d="M 10165,8872 L 10165,9072 10365,8972 10165,8872 Z"/>
 <path fill="none" stroke="rgb(126,0,33)" stroke-linejoin="round" d="M 10165,8872 L 10165,9072 10365,8972 10165,8872 Z"/>
 <path fill="rgb(126,0,33)" stroke="none" d="M 10362,8667 L 10362,8867 10562,8767 10362,8667 Z"/>
 <path fill="none" stroke="rgb(126,0,33)" stroke-linejoin="round" d="M 10362,8667 L 10362,8867 10562,8767 10362,8667 Z"/>
 <path fill="rgb(126,0,33)" stroke="none" d="M 10558,8580 L 10558,8780 10758,8680 10558,8580 Z"/>
 <path fill="none" stroke="rgb(126,0,33)" stroke-linejoin="round" d="M 10558,8580 L 10558,8780 10758,8680 10558,8580 Z"/>
 <path fill="rgb(126,0,33)" stroke="none" d="M 10755,8521 L 10755,8721 10955,8621 10755,8521 Z"/>
 <path fill="none" stroke="rgb(126,0,33)" stroke-linejoin="round" d="M 10755,8521 L 10755,8721 10955,8621 10755,8521 Z"/>
 <path fill="rgb(126,0,33)" stroke="none" d="M 10951,8404 L 10951,8604 11151,8504 10951,8404 Z"/>
 <path fill="none" stroke="rgb(126,0,33)" stroke-linejoin="round" d="M 10951,8404 L 10951,8604 11151,8504 10951,8404 Z"/>
 <path fill="rgb(126,0,33)" stroke="none" d="M 11148,8317 L 11148,8517 11348,8417 11148,8317 Z"/>
 <path fill="none" stroke="rgb(126,0,33)" stroke-linejoin="round" d="M 11148,8317 L 11148,8517 11348,8417 11148,8317 Z"/>
 <path fill="rgb(126,0,33)" stroke="none" d="M 11344,8200 L 11344,8400 11544,8300 11344,8200 Z"/>
 <path fill="none" stroke="rgb(126,0,33)" stroke-linejoin="round" d="M 11344,8200 L 11344,8400 11544,8300 11344,8200 Z"/>
 <path fill="rgb(126,0,33)" stroke="none" d="M 11541,8054 L 11541,8254 11741,8154 11541,8054 Z"/>
 <path fill="none" stroke="rgb(126,0,33)" stroke-linejoin="round" d="M 11541,8054 L 11541,8254 11741,8154 11541,8054 Z"/>
 <path fill="rgb(126,0,33)" stroke="none" d="M 11737,7966 L 11737,8166 11937,8066 11737,7966 Z"/>
 <path fill="none" stroke="rgb(126,0,33)" stroke-linejoin="round" d="M 11737,7966 L 11737,8166 11937,8066 11737,7966 Z"/>
 <path fill="rgb(126,0,33)" stroke="none" d="M 11934,7908 L 11934,8108 12134,8008 11934,7908 Z"/>
 <path fill="none" stroke="rgb(126,0,33)" stroke-linejoin="round" d="M 11934,7908 L 11934,8108 12134,8008 11934,7908 Z"/>
 <path fill="rgb(126,0,33)" stroke="none" d="M 12130,7879 L 12130,8079 12330,7979 12130,7879 Z"/>
 <path fill="none" stroke="rgb(126,0,33)" stroke-linejoin="round" d="M 12130,7879 L 12130,8079 12330,7979 12130,7879 Z"/>
 <path fill="rgb(126,0,33)" stroke="none" d="M 12327,7791 L 12327,7991 12527,7891 12327,7791 Z"/>
 <path fill="none" stroke="rgb(126,0,33)" stroke-linejoin="round" d="M 12327,7791 L 12327,7991 12527,7891 12327,7791 Z"/>
 <path fill="rgb(126,0,33)" stroke="none" d="M 12523,7762 L 12523,7962 12723,7862 12523,7762 Z"/>
 <path fill="none" stroke="rgb(126,0,33)" stroke-linejoin="round" d="M 12523,7762 L 12523,7962 12723,7862 12523,7762 Z"/>
 <path fill="rgb(126,0,33)" stroke="none" d="M 12720,7732 L 12720,7932 12920,7832 12720,7732 Z"/>
 <path fill="none" stroke="rgb(126,0,33)" stroke-linejoin="round" d="M 12720,7732 L 12720,7932 12920,7832 12720,7732 Z"/>
 <path fill="rgb(126,0,33)" stroke="none" d="M 12916,7645 L 12916,7845 13116,7745 12916,7645 Z"/>
 <path fill="none" stroke="rgb(126,0,33)" stroke-linejoin="round" d="M 12916,7645 L 12916,7845 13116,7745 12916,7645 Z"/>
 <path fill="rgb(126,0,33)" stroke="none" d="M 13113,7557 L 13113,7757 13313,7657 13113,7557 Z"/>
 <path fill="none" stroke="rgb(126,0,33)" stroke-linejoin="round" d="M 13113,7557 L 13113,7757 13313,7657 13113,7557 Z"/>
 <path fill="rgb(126,0,33)" stroke="none" d="M 13309,7528 L 13309,7728 13509,7628 13309,7528 Z"/>
 <path fill="none" stroke="rgb(126,0,33)" stroke-linejoin="round" d="M 13309,7528 L 13309,7728 13509,7628 13309,7528 Z"/>
 <path fill="rgb(126,0,33)" stroke="none" d="M 13506,7499 L 13506,7699 13706,7599 13506,7499 Z"/>
 <path fill="none" stroke="rgb(126,0,33)" stroke-linejoin="round" d="M 13506,7499 L 13506,7699 13706,7599 13506,7499 Z"/>
 <path fill="rgb(126,0,33)" stroke="none" d="M 13702,7470 L 13702,7670 13902,7570 13702,7470 Z"/>
 <path fill="none" stroke="rgb(126,0,33)" stroke-linejoin="round" d="M 13702,7470 L 13702,7670 13902,7570 13702,7470 Z"/>
 <path fill="rgb(126,0,33)" stroke="none" d="M 13899,7440 L 13899,7640 14099,7540 13899,7440 Z"/>
 <path fill="none" stroke="rgb(126,0,33)" stroke-linejoin="round" d="M 13899,7440 L 13899,7640 14099,7540 13899,7440 Z"/>
 <path fill="rgb(126,0,33)" stroke="none" d="M 14095,7411 L 14095,7611 14295,7511 14095,7411 Z"/>
 <path fill="none" stroke="rgb(126,0,33)" stroke-linejoin="round" d="M 14095,7411 L 14095,7611 14295,7511 14095,7411 Z"/>
 <path fill="rgb(126,0,33)" stroke="none" d="M 14292,7353 L 14292,7553 14492,7453 14292,7353 Z"/>
 <path fill="none" stroke="rgb(126,0,33)" stroke-linejoin="round" d="M 14292,7353 L 14292,7553 14492,7453 14292,7353 Z"/>
 <path fill="rgb(126,0,33)" stroke="none" d="M 14488,7353 L 14488,7553 14688,7453 14488,7353 Z"/>
 <path fill="none" stroke="rgb(126,0,33)" stroke-linejoin="round" d="M 14488,7353 L 14488,7553 14688,7453 14488,7353 Z"/>
 <path fill="none" stroke="rgb(131,202,255)" stroke-width="50" stroke-linejoin="round" d="M 4764,11221 L 4961,11192 5157,11192 5354,11192 5550,11163 5747,11163 5943,11134 6140,11104 6336,11104 6533,11104 6729,11046 6926,10812 7122,10725 7319,10608 7514,10374 7711,10170 7907,9994 8104,9644 8300,9352 8497,9264 8693,9176 8890,8767 9086,8621 9283,8300 9479,8066 9676,7511 9872,7336 10069,7131 10265,6576 10462,6080 10658,5935 10855,5526 11051,5204 11248,4854 11444,4737 11641,4415 11837,4065 12034,3743 12230,3597 12427,3305 12623,3159 12820,2925 13016,2663 13213,2546 13409,2400 13606,2283 13802,2166 13999,2049 14195,1903 14392,1728 14588,1611"/>
 <path fill="rgb(131,202,255)" stroke="none" d="M 4664,11221 L 4864,11321 4864,11121 4664,11221 Z"/>
 <path fill="none" stroke="rgb(131,202,255)" stroke-linejoin="round" d="M 4664,11221 L 4864,11321 4864,11121 4664,11221 Z"/>
 <path fill="rgb(131,202,255)" stroke="none" d="M 4861,11192 L 5061,11292 5061,11092 4861,11192 Z"/>
 <path fill="none" stroke="rgb(131,202,255)" stroke-linejoin="round" d="M 4861,11192 L 5061,11292 5061,11092 4861,11192 Z"/>
 <path fill="rgb(131,202,255)" stroke="none" d="M 5057,11192 L 5257,11292 5257,11092 5057,11192 Z"/>
 <path fill="none" stroke="rgb(131,202,255)" stroke-linejoin="round" d="M 5057,11192 L 5257,11292 5257,11092 5057,11192 Z"/>
 <path fill="rgb(131,202,255)" stroke="none" d="M 5254,11192 L 5454,11292 5454,11092 5254,11192 Z"/>
 <path fill="none" stroke="rgb(131,202,255)" stroke-linejoin="round" d="M 5254,11192 L 5454,11292 5454,11092 5254,11192 Z"/>
 <path fill="rgb(131,202,255)" stroke="none" d="M 5450,11163 L 5650,11263 5650,11063 5450,11163 Z"/>
 <path fill="none" stroke="rgb(131,202,255)" stroke-linejoin="round" d="M 5450,11163 L 5650,11263 5650,11063 5450,11163 Z"/>
 <path fill="rgb(131,202,255)" stroke="none" d="M 5647,11163 L 5847,11263 5847,11063 5647,11163 Z"/>
 <path fill="none" stroke="rgb(131,202,255)" stroke-linejoin="round" d="M 5647,11163 L 5847,11263 5847,11063 5647,11163 Z"/>
 <path fill="rgb(131,202,255)" stroke="none" d="M 5843,11134 L 6043,11234 6043,11034 5843,11134 Z"/>
 <path fill="none" stroke="rgb(131,202,255)" stroke-linejoin="round" d="M 5843,11134 L 6043,11234 6043,11034 5843,11134 Z"/>
 <path fill="rgb(131,202,255)" stroke="none" d="M 6040,11104 L 6240,11204 6240,11004 6040,11104 Z"/>
 <path fill="none" stroke="rgb(131,202,255)" stroke-linejoin="round" d="M 6040,11104 L 6240,11204 6240,11004 6040,11104 Z"/>
 <path fill="rgb(131,202,255)" stroke="none" d="M 6236,11104 L 6436,11204 6436,11004 6236,11104 Z"/>
 <path fill="none" stroke="rgb(131,202,255)" stroke-linejoin="round" d="M 6236,11104 L 6436,11204 6436,11004 6236,11104 Z"/>
 <path fill="rgb(131,202,255)" stroke="none" d="M 6433,11104 L 6633,11204 6633,11004 6433,11104 Z"/>
 <path fill="none" stroke="rgb(131,202,255)" stroke-linejoin="round" d="M 6433,11104 L 6633,11204 6633,11004 6433,11104 Z"/>
 <path fill="rgb(131,202,255)" stroke="none" d="M 6629,11046 L 6829,11146 6829,10946 6629,11046 Z"/>
 <path fill="none" stroke="rgb(131,202,255)" stroke-linejoin="round" d="M 6629,11046 L 6829,11146 6829,10946 6629,11046 Z"/>
 <path fill="rgb(131,202,255)" stroke="none" d="M 6826,10812 L 7026,10912 7026,10712 6826,10812 Z"/>
 <path fill="none" stroke="rgb(131,202,255)" stroke-linejoin="round" d="M 6826,10812 L 7026,10912 7026,10712 6826,10812 Z"/>
 <path fill="rgb(131,202,255)" stroke="none" d="M 7022,10725 L 7222,10825 7222,10625 7022,10725 Z"/>
 <path fill="none" stroke="rgb(131,202,255)" stroke-linejoin="round" d="M 7022,10725 L 7222,10825 7222,10625 7022,10725 Z"/>
 <path fill="rgb(131,202,255)" stroke="none" d="M 7219,10608 L 7419,10708 7419,10508 7219,10608 Z"/>
 <path fill="none" stroke="rgb(131,202,255)" stroke-linejoin="round" d="M 7219,10608 L 7419,10708 7419,10508 7219,10608 Z"/>
 <path fill="rgb(131,202,255)" stroke="none" d="M 7415,10374 L 7614,10474 7614,10274 7415,10374 Z"/>
 <path fill="none" stroke="rgb(131,202,255)" stroke-linejoin="round" d="M 7415,10374 L 7614,10474 7614,10274 7415,10374 Z"/>
 <path fill="rgb(131,202,255)" stroke="none" d="M 7611,10170 L 7811,10270 7811,10070 7611,10170 Z"/>
 <path fill="none" stroke="rgb(131,202,255)" stroke-linejoin="round" d="M 7611,10170 L 7811,10270 7811,10070 7611,10170 Z"/>
 <path fill="rgb(131,202,255)" stroke="none" d="M 7807,9994 L 8007,10094 8007,9894 7807,9994 Z"/>
 <path fill="none" stroke="rgb(131,202,255)" stroke-linejoin="round" d="M 7807,9994 L 8007,10094 8007,9894 7807,9994 Z"/>
 <path fill="rgb(131,202,255)" stroke="none" d="M 8004,9644 L 8204,9744 8204,9544 8004,9644 Z"/>
 <path fill="none" stroke="rgb(131,202,255)" stroke-linejoin="round" d="M 8004,9644 L 8204,9744 8204,9544 8004,9644 Z"/>
 <path fill="rgb(131,202,255)" stroke="none" d="M 8200,9352 L 8400,9452 8400,9252 8200,9352 Z"/>
 <path fill="none" stroke="rgb(131,202,255)" stroke-linejoin="round" d="M 8200,9352 L 8400,9452 8400,9252 8200,9352 Z"/>
 <path fill="rgb(131,202,255)" stroke="none" d="M 8397,9264 L 8597,9364 8597,9164 8397,9264 Z"/>
 <path fill="none" stroke="rgb(131,202,255)" stroke-linejoin="round" d="M 8397,9264 L 8597,9364 8597,9164 8397,9264 Z"/>
 <path fill="rgb(131,202,255)" stroke="none" d="M 8593,9176 L 8793,9276 8793,9076 8593,9176 Z"/>
 <path fill="none" stroke="rgb(131,202,255)" stroke-linejoin="round" d="M 8593,9176 L 8793,9276 8793,9076 8593,9176 Z"/>
 <path fill="rgb(131,202,255)" stroke="none" d="M 8790,8767 L 8990,8867 8990,8667 8790,8767 Z"/>
 <path fill="none" stroke="rgb(131,202,255)" stroke-linejoin="round" d="M 8790,8767 L 8990,8867 8990,8667 8790,8767 Z"/>
 <path fill="rgb(131,202,255)" stroke="none" d="M 8986,8621 L 9186,8721 9186,8521 8986,8621 Z"/>
 <path fill="none" stroke="rgb(131,202,255)" stroke-linejoin="round" d="M 8986,8621 L 9186,8721 9186,8521 8986,8621 Z"/>
 <path fill="rgb(131,202,255)" stroke="none" d="M 9183,8300 L 9383,8400 9383,8200 9183,8300 Z"/>
 <path fill="none" stroke="rgb(131,202,255)" stroke-linejoin="round" d="M 9183,8300 L 9383,8400 9383,8200 9183,8300 Z"/>
 <path fill="rgb(131,202,255)" stroke="none" d="M 9379,8066 L 9579,8166 9579,7966 9379,8066 Z"/>
 <path fill="none" stroke="rgb(131,202,255)" stroke-linejoin="round" d="M 9379,8066 L 9579,8166 9579,7966 9379,8066 Z"/>
 <path fill="rgb(131,202,255)" stroke="none" d="M 9576,7511 L 9776,7611 9776,7411 9576,7511 Z"/>
 <path fill="none" stroke="rgb(131,202,255)" stroke-linejoin="round" d="M 9576,7511 L 9776,7611 9776,7411 9576,7511 Z"/>
 <path fill="rgb(131,202,255)" stroke="none" d="M 9772,7336 L 9972,7436 9972,7236 9772,7336 Z"/>
 <path fill="none" stroke="rgb(131,202,255)" stroke-linejoin="round" d="M 9772,7336 L 9972,7436 9972,7236 9772,7336 Z"/>
 <path fill="rgb(131,202,255)" stroke="none" d="M 9969,7131 L 10169,7231 10169,7031 9969,7131 Z"/>
 <path fill="none" stroke="rgb(131,202,255)" stroke-linejoin="round" d="M 9969,7131 L 10169,7231 10169,7031 9969,7131 Z"/>
 <path fill="rgb(131,202,255)" stroke="none" d="M 10165,6576 L 10365,6676 10365,6476 10165,6576 Z"/>
 <path fill="none" stroke="rgb(131,202,255)" stroke-linejoin="round" d="M 10165,6576 L 10365,6676 10365,6476 10165,6576 Z"/>
 <path fill="rgb(131,202,255)" stroke="none" d="M 10362,6080 L 10562,6180 10562,5981 10362,6080 Z"/>
 <path fill="none" stroke="rgb(131,202,255)" stroke-linejoin="round" d="M 10362,6080 L 10562,6180 10562,5981 10362,6080 Z"/>
 <path fill="rgb(131,202,255)" stroke="none" d="M 10558,5935 L 10758,6034 10758,5835 10558,5935 Z"/>
 <path fill="none" stroke="rgb(131,202,255)" stroke-linejoin="round" d="M 10558,5935 L 10758,6034 10758,5835 10558,5935 Z"/>
 <path fill="rgb(131,202,255)" stroke="none" d="M 10755,5526 L 10955,5626 10955,5426 10755,5526 Z"/>
 <path fill="none" stroke="rgb(131,202,255)" stroke-linejoin="round" d="M 10755,5526 L 10955,5626 10955,5426 10755,5526 Z"/>
 <path fill="rgb(131,202,255)" stroke="none" d="M 10951,5204 L 11151,5304 11151,5104 10951,5204 Z"/>
 <path fill="none" stroke="rgb(131,202,255)" stroke-linejoin="round" d="M 10951,5204 L 11151,5304 11151,5104 10951,5204 Z"/>
 <path fill="rgb(131,202,255)" stroke="none" d="M 11148,4854 L 11348,4954 11348,4754 11148,4854 Z"/>
 <path fill="none" stroke="rgb(131,202,255)" stroke-linejoin="round" d="M 11148,4854 L 11348,4954 11348,4754 11148,4854 Z"/>
 <path fill="rgb(131,202,255)" stroke="none" d="M 11344,4737 L 11544,4837 11544,4637 11344,4737 Z"/>
 <path fill="none" stroke="rgb(131,202,255)" stroke-linejoin="round" d="M 11344,4737 L 11544,4837 11544,4637 11344,4737 Z"/>
 <path fill="rgb(131,202,255)" stroke="none" d="M 11541,4415 L 11741,4515 11741,4315 11541,4415 Z"/>
 <path fill="none" stroke="rgb(131,202,255)" stroke-linejoin="round" d="M 11541,4415 L 11741,4515 11741,4315 11541,4415 Z"/>
 <path fill="rgb(131,202,255)" stroke="none" d="M 11737,4065 L 11937,4165 11937,3965 11737,4065 Z"/>
 <path fill="none" stroke="rgb(131,202,255)" stroke-linejoin="round" d="M 11737,4065 L 11937,4165 11937,3965 11737,4065 Z"/>
 <path fill="rgb(131,202,255)" stroke="none" d="M 11934,3743 L 12134,3843 12134,3643 11934,3743 Z"/>
 <path fill="none" stroke="rgb(131,202,255)" stroke-linejoin="round" d="M 11934,3743 L 12134,3843 12134,3643 11934,3743 Z"/>
 <path fill="rgb(131,202,255)" stroke="none" d="M 12130,3597 L 12330,3697 12330,3497 12130,3597 Z"/>
 <path fill="none" stroke="rgb(131,202,255)" stroke-linejoin="round" d="M 12130,3597 L 12330,3697 12330,3497 12130,3597 Z"/>
 <path fill="rgb(131,202,255)" stroke="none" d="M 12327,3305 L 12527,3405 12527,3205 12327,3305 Z"/>
 <path fill="none" stroke="rgb(131,202,255)" stroke-linejoin="round" d="M 12327,3305 L 12527,3405 12527,3205 12327,3305 Z"/>
 <path fill="rgb(131,202,255)" stroke="none" d="M 12523,3159 L 12723,3259 12723,3059 12523,3159 Z"/>
 <path fill="none" stroke="rgb(131,202,255)" stroke-linejoin="round" d="M 12523,3159 L 12723,3259 12723,3059 12523,3159 Z"/>
 <path fill="rgb(131,202,255)" stroke="none" d="M 12720,2925 L 12920,3025 12920,2825 12720,2925 Z"/>
 <path fill="none" stroke="rgb(131,202,255)" stroke-linejoin="round" d="M 12720,2925 L 12920,3025 12920,2825 12720,2925 Z"/>
 <path fill="rgb(131,202,255)" stroke="none" d="M 12916,2663 L 13116,2763 13116,2563 12916,2663 Z"/>
 <path fill="none" stroke="rgb(131,202,255)" stroke-linejoin="round" d="M 12916,2663 L 13116,2763 13116,2563 12916,2663 Z"/>
 <path fill="rgb(131,202,255)" stroke="none" d="M 13113,2546 L 13313,2646 13313,2446 13113,2546 Z"/>
 <path fill="none" stroke="rgb(131,202,255)" stroke-linejoin="round" d="M 13113,2546 L 13313,2646 13313,2446 13113,2546 Z"/>
 <path fill="rgb(131,202,255)" stroke="none" d="M 13309,2400 L 13509,2500 13509,2300 13309,2400 Z"/>
 <path fill="none" stroke="rgb(131,202,255)" stroke-linejoin="round" d="M 13309,2400 L 13509,2500 13509,2300 13309,2400 Z"/>
 <path fill="rgb(131,202,255)" stroke="none" d="M 13506,2283 L 13706,2383 13706,2183 13506,2283 Z"/>
 <path fill="none" stroke="rgb(131,202,255)" stroke-linejoin="round" d="M 13506,2283 L 13706,2383 13706,2183 13506,2283 Z"/>
 <path fill="rgb(131,202,255)" stroke="none" d="M 13702,2166 L 13902,2266 13902,2066 13702,2166 Z"/>
 <path fill="none" stroke="rgb(131,202,255)" stroke-linejoin="round" d="M 13702,2166 L 13902,2266 13902,2066 13702,2166 Z"/>
 <path fill="rgb(131,202,255)" stroke="none" d="M 13899,2049 L 14099,2149 14099,1949 13899,2049 Z"/>
 <path fill="none" stroke="rgb(131,202,255)" stroke-linejoin="round" d="M 13899,2049 L 14099,2149 14099,1949 13899,2049 Z"/>
 <path fill="rgb(131,202,255)" stroke="none" d="M 14095,1903 L 14295,2003 14295,1803 14095,1903 Z"/>
 <path fill="none" stroke="rgb(131,202,255)" stroke-linejoin="round" d="M 14095,1903 L 14295,2003 14295,1803 14095,1903 Z"/>
 <path fill="rgb(131,202,255)" stroke="none" d="M 14292,1728 L 14492,1828 14492,1628 14292,1728 Z"/>
 <path fill="none" stroke="rgb(131,202,255)" stroke-linejoin="round" d="M 14292,1728 L 14492,1828 14492,1628 14292,1728 Z"/>
 <path fill="rgb(131,202,255)" stroke="none" d="M 14488,1611 L 14688,1711 14688,1511 14488,1611 Z"/>
 <path fill="none" stroke="rgb(131,202,255)" stroke-linejoin="round" d="M 14488,1611 L 14688,1711 14688,1511 14488,1611 Z"/>
 <text class="TextShape"><tspan class="TextParagraph" font-family="Liberation Sans, sans-serif" font-size="353px" font-weight="400"><tspan class="TextPosition" x="607" y="11819"><tspan fill="rgb(0,0,0)" stroke="none">20/02</tspan></tspan></tspan></text>
 <text class="TextShape"><tspan class="TextParagraph" font-family="Liberation Sans, sans-serif" font-size="353px" font-weight="400"><tspan class="TextPosition" x="1982" y="11819"><tspan fill="rgb(0,0,0)" stroke="none">27/02</tspan></tspan></tspan></text>
 <text class="TextShape"><tspan class="TextParagraph" font-family="Liberation Sans, sans-serif" font-size="353px" font-weight="400"><tspan class="TextPosition" x="3358" y="11819"><tspan fill="rgb(0,0,0)" stroke="none">05/03</tspan></tspan></tspan></text>
 <text class="TextShape"><tspan class="TextParagraph" font-family="Liberation Sans, sans-serif" font-size="353px" font-weight="400"><tspan class="TextPosition" x="4733" y="11819"><tspan fill="rgb(0,0,0)" stroke="none">12/03</tspan></tspan></tspan></text>
 <text class="TextShape"><tspan class="TextParagraph" font-family="Liberation Sans, sans-serif" font-size="353px" font-weight="400"><tspan class="TextPosition" x="6109" y="11819"><tspan fill="rgb(0,0,0)" stroke="none">19/03</tspan></tspan></tspan></text>
 <text class="TextShape"><tspan class="TextParagraph" font-family="Liberation Sans, sans-serif" font-size="353px" font-weight="400"><tspan class="TextPosition" x="7484" y="11819"><tspan fill="rgb(0,0,0)" stroke="none">26/03</tspan></tspan></tspan></text>
 <text class="TextShape"><tspan class="TextParagraph" font-family="Liberation Sans, sans-serif" font-size="353px" font-weight="400"><tspan class="TextPosition" x="8860" y="11819"><tspan fill="rgb(0,0,0)" stroke="none">02/04</tspan></tspan></tspan></text>
 <text class="TextShape"><tspan class="TextParagraph" font-family="Liberation Sans, sans-serif" font-size="353px" font-weight="400"><tspan class="TextPosition" x="10235" y="11819"><tspan fill="rgb(0,0,0)" stroke="none">09/04</tspan></tspan></tspan></text>
 <text class="TextShape"><tspan class="TextParagraph" font-family="Liberation Sans, sans-serif" font-size="353px" font-weight="400"><tspan class="TextPosition" x="11611" y="11819"><tspan fill="rgb(0,0,0)" stroke="none">16/04</tspan></tspan></tspan></text>
 <text class="TextShape"><tspan class="TextParagraph" font-family="Liberation Sans, sans-serif" font-size="353px" font-weight="400"><tspan class="TextPosition" x="12986" y="11819"><tspan fill="rgb(0,0,0)" stroke="none">23/04</tspan></tspan></tspan></text>
 <text class="TextShape"><tspan class="TextParagraph" font-family="Liberation Sans, sans-serif" font-size="353px" font-weight="400"><tspan class="TextPosition" x="498" y="11372"><tspan fill="rgb(0,0,0)" stroke="none">0</tspan></tspan></tspan></text>
 <text class="TextShape"><tspan class="TextParagraph" font-family="Liberation Sans, sans-serif" font-size="353px" font-weight="400"><tspan class="TextPosition" x="313" y="9911"><tspan fill="rgb(0,0,0)" stroke="none">50</tspan></tspan></tspan></text>
 <text class="TextShape"><tspan class="TextParagraph" font-family="Liberation Sans, sans-serif" font-size="353px" font-weight="400"><tspan class="TextPosition" x="127" y="8450"><tspan fill="rgb(0,0,0)" stroke="none">100</tspan></tspan></tspan></text>
 <text class="TextShape"><tspan class="TextParagraph" font-family="Liberation Sans, sans-serif" font-size="353px" font-weight="400"><tspan class="TextPosition" x="127" y="6989"><tspan fill="rgb(0,0,0)" stroke="none">150</tspan></tspan></tspan></text>
 <text class="TextShape"><tspan class="TextParagraph" font-family="Liberation Sans, sans-serif" font-size="353px" font-weight="400"><tspan class="TextPosition" x="127" y="5529"><tspan fill="rgb(0,0,0)" stroke="none">200</tspan></tspan></tspan></text>
 <text class="TextShape"><tspan class="TextParagraph" font-family="Liberation Sans, sans-serif" font-size="353px" font-weight="400"><tspan class="TextPosition" x="127" y="4068"><tspan fill="rgb(0,0,0)" stroke="none">250</tspan></tspan></tspan></text>
 <text class="TextShape"><tspan class="TextParagraph" font-family="Liberation Sans, sans-serif" font-size="353px" font-weight="400"><tspan class="TextPosition" x="127" y="2607"><tspan fill="rgb(0,0,0)" stroke="none">300</tspan></tspan></tspan></text>
 <text class="TextShape"><tspan class="TextParagraph" font-family="Liberation Sans, sans-serif" font-size="353px" font-weight="400"><tspan class="TextPosition" x="127" y="1147"><tspan fill="rgb(0,0,0)" stroke="none">350</tspan></tspan></tspan></text>
 <text class="TextShape"><tspan class="TextParagraph" font-family="Liberation Sans, sans-serif" font-size="459px" font-weight="400"><tspan class="TextPosition" x="4239" y="717"><tspan fill="rgb(0,0,0)" stroke="none">Covid-19. Muertes acumuladas CCAA (3)</tspan></tspan></tspan></text>
 <path fill="none" stroke="rgb(0,0,0)" stroke-width="50" stroke-linejoin="round" d="M 6754,2854 L 7553,2854"/>
 <path fill="rgb(0,0,0)" stroke="none" d="M 7048,2854 L 7154,2960 7259,2854 7154,2749 7048,2854 Z"/>
 <path fill="none" stroke="rgb(0,0,0)" stroke-linejoin="round" d="M 7048,2854 L 7154,2960 7259,2854 7154,2749 7048,2854 Z"/>
 <path fill="none" stroke="rgb(255,66,14)" stroke-width="50" stroke-linejoin="round" d="M 6754,3566 L 7553,3566"/>
 <path fill="rgb(255,66,14)" stroke="none" d="M 7048,3566 L 7154,3672 7259,3566 7154,3461 7048,3566 Z"/>
 <path fill="none" stroke="rgb(255,66,14)" stroke-linejoin="round" d="M 7048,3566 L 7154,3672 7259,3566 7154,3461 7048,3566 Z"/>
 <path fill="none" stroke="rgb(255,211,32)" stroke-width="50" stroke-linejoin="round" d="M 6754,4278 L 7553,4278"/>
 <path fill="rgb(255,211,32)" stroke="none" d="M 7048,4173 L 7154,4384 7259,4173 7048,4173 Z"/>
 <path fill="none" stroke="rgb(255,211,32)" stroke-linejoin="round" d="M 7048,4173 L 7154,4384 7259,4173 7048,4173 Z"/>
 <path fill="none" stroke="rgb(87,157,28)" stroke-width="50" stroke-linejoin="round" d="M 6754,4990 L 7553,4990"/>
 <path fill="rgb(87,157,28)" stroke="none" d="M 7048,5096 L 7259,5096 7154,4885 7048,5096 Z"/>
 <path fill="none" stroke="rgb(87,157,28)" stroke-linejoin="round" d="M 7048,5096 L 7259,5096 7154,4885 7048,5096 Z"/>
 <path fill="none" stroke="rgb(126,0,33)" stroke-width="50" stroke-linejoin="round" d="M 6754,5702 L 7553,5702"/>
 <path fill="rgb(126,0,33)" stroke="none" d="M 7048,5597 L 7048,5808 7259,5702 7048,5597 Z"/>
 <path fill="none" stroke="rgb(126,0,33)" stroke-linejoin="round" d="M 7048,5597 L 7048,5808 7259,5702 7048,5597 Z"/>
 <path fill="none" stroke="rgb(131,202,255)" stroke-width="50" stroke-linejoin="round" d="M 6754,6413 L 7553,6413"/>
 <path fill="rgb(131,202,255)" stroke="none" d="M 7048,6413 L 7259,6519 7259,6308 7048,6413 Z"/>
 <path fill="none" stroke="rgb(131,202,255)" stroke-linejoin="round" d="M 7048,6413 L 7259,6519 7259,6308 7048,6413 Z"/>
 <text class="TextShape"><tspan class="TextParagraph" font-family="Liberation Sans, sans-serif" font-size="353px" font-weight="400"><tspan class="TextPosition" x="7653" y="2974"><tspan fill="rgb(0,0,0)" stroke="none">Asturias </tspan></tspan></tspan></text>
 <text class="TextShape"><tspan class="TextParagraph" font-family="Liberation Sans, sans-serif" font-size="353px" font-weight="400"><tspan class="TextPosition" x="7653" y="3686"><tspan fill="rgb(0,0,0)" stroke="none">Baleares</tspan></tspan></tspan></text>
 <text class="TextShape"><tspan class="TextParagraph" font-family="Liberation Sans, sans-serif" font-size="353px" font-weight="400"><tspan class="TextPosition" x="7653" y="4398"><tspan fill="rgb(0,0,0)" stroke="none">Canarias</tspan></tspan></tspan></text>
 <text class="TextShape"><tspan class="TextParagraph" font-family="Liberation Sans, sans-serif" font-size="353px" font-weight="400"><tspan class="TextPosition" x="7653" y="5110"><tspan fill="rgb(0,0,0)" stroke="none">Cantabria</tspan></tspan></tspan></text>
 <text class="TextShape"><tspan class="TextParagraph" font-family="Liberation Sans, sans-serif" font-size="353px" font-weight="400"><tspan class="TextPosition" x="7653" y="5822"><tspan fill="rgb(0,0,0)" stroke="none">Murcia</tspan></tspan></tspan></text>
 <text class="TextShape"><tspan class="TextParagraph" font-family="Liberation Sans, sans-serif" font-size="353px" font-weight="400"><tspan class="TextPosition" x="7653" y="6533"><tspan fill="rgb(0,0,0)" stroke="none">La Rioja</tspan></tspan></tspan></text>
</svg>