<?xml version="1.0" encoding="UTF-8"?>
<!DOCTYPE svg PUBLIC "-//W3C//DTD SVG 1.1//EN" "http://www.w3.org/Graphics/SVG/1.1/DTD/svg11.dtd">
<svg width="150mm" height="120mm" viewBox="0 0 15000 12000" version="1.1" xmlns="http://www.w3.org/2000/svg" xmlns:xlink="http://www.w3.org/1999/xlink" stroke-width="28.222" stroke-linejoin="round" xml:space="preserve">
 <path fill="rgb(255,255,255)" stroke="none" d="M 7500,12000 L 0,12000 0,0 15000,0 15000,12000 7500,12000 Z"/>
 <path fill="none" stroke="rgb(0,0,0)" stroke-linejoin="round" d="M 8082,9996 L 1476,9996 1476,1029 14689,1029 14689,9996 8082,9996 Z"/>
 <path fill="none" stroke="rgb(221,221,221)" stroke-linejoin="round" d="M 1476,1027 L 1476,9995"/>
 <path fill="none" stroke="rgb(221,221,221)" stroke-linejoin="round" d="M 1730,1027 L 1730,9995"/>
 <path fill="none" stroke="rgb(221,221,221)" stroke-linejoin="round" d="M 1984,1027 L 1984,9995"/>
 <path fill="none" stroke="rgb(221,221,221)" stroke-linejoin="round" d="M 2238,1027 L 2238,9995"/>
 <path fill="none" stroke="rgb(221,221,221)" stroke-linejoin="round" d="M 2492,1027 L 2492,9995"/>
 <path fill="none" stroke="rgb(221,221,221)" stroke-linejoin="round" d="M 2746,1027 L 2746,9995"/>
 <path fill="none" stroke="rgb(221,221,221)" stroke-linejoin="round" d="M 3000,1027 L 3000,9995"/>
 <path fill="none" stroke="rgb(221,221,221)" stroke-linejoin="round" d="M 3254,1027 L 3254,9995"/>
 <path fill="none" stroke="rgb(221,221,221)" stroke-linejoin="round" d="M 3508,1027 L 3508,9995"/>
 <path fill="none" stroke="rgb(221,221,221)" stroke-linejoin="round" d="M 3763,1027 L 3763,9995"/>
 <path fill="none" stroke="rgb(221,221,221)" stroke-linejoin="round" d="M 4017,1027 L 4017,9995"/>
 <path fill="none" stroke="rgb(221,221,221)" stroke-linejoin="round" d="M 4271,1027 L 4271,9995"/>
 <path fill="none" stroke="rgb(221,221,221)" stroke-linejoin="round" d="M 4525,1027 L 4525,9995"/>
 <path fill="none" stroke="rgb(221,221,221)" stroke-linejoin="round" d="M 4779,1027 L 4779,9995"/>
 <path fill="none" stroke="rgb(221,221,221)" stroke-linejoin="round" d="M 5033,1027 L 5033,9995"/>
 <path fill="none" stroke="rgb(221,221,221)" stroke-linejoin="round" d="M 5287,1027 L 5287,9995"/>
 <path fill="none" stroke="rgb(221,221,221)" stroke-linejoin="round" d="M 5541,1027 L 5541,9995"/>
 <path fill="none" stroke="rgb(221,221,221)" stroke-linejoin="round" d="M 5795,1027 L 5795,9995"/>
 <path fill="none" stroke="rgb(221,221,221)" stroke-linejoin="round" d="M 6050,1027 L 6050,9995"/>
 <path fill="none" stroke="rgb(221,221,221)" stroke-linejoin="round" d="M 6304,1027 L 6304,9995"/>
 <path fill="none" stroke="rgb(221,221,221)" stroke-linejoin="round" d="M 6558,1027 L 6558,9995"/>
 <path fill="none" stroke="rgb(221,221,221)" stroke-linejoin="round" d="M 6812,1027 L 6812,9995"/>
 <path fill="none" stroke="rgb(221,221,221)" stroke-linejoin="round" d="M 7066,1027 L 7066,9995"/>
 <path fill="none" stroke="rgb(221,221,221)" stroke-linejoin="round" d="M 7320,1027 L 7320,9995"/>
 <path fill="none" stroke="rgb(221,221,221)" stroke-linejoin="round" d="M 7573,1027 L 7573,9995"/>
 <path fill="none" stroke="rgb(221,221,221)" stroke-linejoin="round" d="M 7827,1027 L 7827,9995"/>
 <path fill="none" stroke="rgb(221,221,221)" stroke-linejoin="round" d="M 8082,1027 L 8082,9995"/>
 <path fill="none" stroke="rgb(221,221,221)" stroke-linejoin="round" d="M 8336,1027 L 8336,9995"/>
 <path fill="none" stroke="rgb(221,221,221)" stroke-linejoin="round" d="M 8590,1027 L 8590,9995"/>
 <path fill="none" stroke="rgb(221,221,221)" stroke-linejoin="round" d="M 8844,1027 L 8844,9995"/>
 <path fill="none" stroke="rgb(221,221,221)" stroke-linejoin="round" d="M 9098,1027 L 9098,9995"/>
 <path fill="none" stroke="rgb(221,221,221)" stroke-linejoin="round" d="M 9352,1027 L 9352,9995"/>
 <path fill="none" stroke="rgb(221,221,221)" stroke-linejoin="round" d="M 9606,1027 L 9606,9995"/>
 <path fill="none" stroke="rgb(221,221,221)" stroke-linejoin="round" d="M 9860,1027 L 9860,9995"/>
 <path fill="none" stroke="rgb(221,221,221)" stroke-linejoin="round" d="M 10114,1027 L 10114,9995"/>
 <path fill="none" stroke="rgb(221,221,221)" stroke-linejoin="round" d="M 10369,1027 L 10369,9995"/>
 <path fill="none" stroke="rgb(221,221,221)" stroke-linejoin="round" d="M 10623,1027 L 10623,9995"/>
 <path fill="none" stroke="rgb(221,221,221)" stroke-linejoin="round" d="M 10877,1027 L 10877,9995"/>
 <path fill="none" stroke="rgb(221,221,221)" stroke-linejoin="round" d="M 11131,1027 L 11131,9995"/>
 <path fill="none" stroke="rgb(221,221,221)" stroke-linejoin="round" d="M 11385,1027 L 11385,9995"/>
 <path fill="none" stroke="rgb(221,221,221)" stroke-linejoin="round" d="M 11639,1027 L 11639,9995"/>
 <path fill="none" stroke="rgb(221,221,221)" stroke-linejoin="round" d="M 11893,1027 L 11893,9995"/>
 <path fill="none" stroke="rgb(221,221,221)" stroke-linejoin="round" d="M 12147,1027 L 12147,9995"/>
 <path fill="none" stroke="rgb(221,221,221)" stroke-linejoin="round" d="M 12401,1027 L 12401,9995"/>
 <path fill="none" stroke="rgb(221,221,221)" stroke-linejoin="round" d="M 12656,1027 L 12656,9995"/>
 <path fill="none" stroke="rgb(221,221,221)" stroke-linejoin="round" d="M 12910,1027 L 12910,9995"/>
 <path fill="none" stroke="rgb(221,221,221)" stroke-linejoin="round" d="M 13164,1027 L 13164,9995"/>
 <path fill="none" stroke="rgb(221,221,221)" stroke-linejoin="round" d="M 13418,1027 L 13418,9995"/>
 <path fill="none" stroke="rgb(221,221,221)" stroke-linejoin="round" d="M 13672,1027 L 13672,9995"/>
 <path fill="none" stroke="rgb(221,221,221)" stroke-linejoin="round" d="M 13926,1027 L 13926,9995"/>
 <path fill="none" stroke="rgb(221,221,221)" stroke-linejoin="round" d="M 14180,1027 L 14180,9995"/>
 <path fill="none" stroke="rgb(221,221,221)" stroke-linejoin="round" d="M 14434,1027 L 14434,9995"/>
 <path fill="none" stroke="rgb(221,221,221)" stroke-linejoin="round" d="M 14689,1027 L 14689,9995"/>
 <path fill="none" stroke="rgb(0,0,0)" stroke-linejoin="round" d="M 14689,9995 L 1476,9995"/>
 <path fill="none" stroke="rgb(0,0,0)" stroke-linejoin="round" d="M 14689,7278 L 1476,7278"/>
 <path fill="none" stroke="rgb(0,0,0)" stroke-linejoin="round" d="M 14689,4562 L 1476,4562"/>
 <path fill="none" stroke="rgb(0,0,0)" stroke-linejoin="round" d="M 14689,1845 L 1476,1845"/>
 <path fill="none" stroke="rgb(0,0,0)" stroke-linejoin="round" d="M 1476,10145 L 1476,9995"/>
 <path fill="none" stroke="rgb(0,0,0)" stroke-linejoin="round" d="M 1476,10145 L 1476,9995"/>
 <path fill="none" stroke="rgb(0,0,0)" stroke-linejoin="round" d="M 3254,10145 L 3254,9995"/>
 <path fill="none" stroke="rgb(0,0,0)" stroke-linejoin="round" d="M 3254,10145 L 3254,9995"/>
 <path fill="none" stroke="rgb(0,0,0)" stroke-linejoin="round" d="M 5033,10145 L 5033,9995"/>
 <path fill="none" stroke="rgb(0,0,0)" stroke-linejoin="round" d="M 5033,10145 L 5033,9995"/>
 <path fill="none" stroke="rgb(0,0,0)" stroke-linejoin="round" d="M 6812,10145 L 6812,9995"/>
 <path fill="none" stroke="rgb(0,0,0)" stroke-linejoin="round" d="M 6812,10145 L 6812,9995"/>
 <path fill="none" stroke="rgb(0,0,0)" stroke-linejoin="round" d="M 8590,10145 L 8590,9995"/>
 <path fill="none" stroke="rgb(0,0,0)" stroke-linejoin="round" d="M 8590,10145 L 8590,9995"/>
 <path fill="none" stroke="rgb(0,0,0)" stroke-linejoin="round" d="M 10369,10145 L 10369,9995"/>
 <path fill="none" stroke="rgb(0,0,0)" stroke-linejoin="round" d="M 10369,10145 L 10369,9995"/>
 <path fill="none" stroke="rgb(0,0,0)" stroke-linejoin="round" d="M 12147,10145 L 12147,9995"/>
 <path fill="none" stroke="rgb(0,0,0)" stroke-linejoin="round" d="M 12147,10145 L 12147,9995"/>
 <path fill="none" stroke="rgb(0,0,0)" stroke-linejoin="round" d="M 13926,10145 L 13926,9995"/>
 <path fill="none" stroke="rgb(0,0,0)" stroke-linejoin="round" d="M 13926,10145 L 13926,9995"/>
 <path fill="none" stroke="rgb(0,0,0)" stroke-linejoin="round" d="M 1476,9995 L 14689,9995"/>
 <path fill="none" stroke="rgb(0,0,0)" stroke-linejoin="round" d="M 1326,9995 L 1476,9995"/>
 <path fill="none" stroke="rgb(0,0,0)" stroke-linejoin="round" d="M 1326,9995 L 1476,9995"/>
 <path fill="none" stroke="rgb(0,0,0)" stroke-linejoin="round" d="M 1326,7278 L 1476,7278"/>
 <path fill="none" stroke="rgb(0,0,0)" stroke-linejoin="round" d="M 1326,7278 L 1476,7278"/>
 <path fill="none" stroke="rgb(0,0,0)" stroke-linejoin="round" d="M 1326,4562 L 1476,4562"/>
 <path fill="none" stroke="rgb(0,0,0)" stroke-linejoin="round" d="M 1326,4562 L 1476,4562"/>
 <path fill="none" stroke="rgb(0,0,0)" stroke-linejoin="round" d="M 1326,1845 L 1476,1845"/>
 <path fill="none" stroke="rgb(0,0,0)" stroke-linejoin="round" d="M 1326,1845 L 1476,1845"/>
 <path fill="none" stroke="rgb(0,0,0)" stroke-linejoin="round" d="M 1476,9995 L 1476,1027"/>
 <path fill="none" stroke="rgb(0,0,0)" stroke-width="50" stroke-linejoin="round" d="M 2420,9995 L 2619,8713 2873,9052 3127,9531 3381,8450 3635,8713 3890,7895 4144,8450 4398,6938 4652,6460 4906,6417 5160,5968 5414,5758 5668,6121 5923,4580 6177,4952 6431,4304 6685,4122 6939,4165 7193,3835 7447,4256 7700,3379 7954,3442 8209,3455 8463,3078 8717,3204 8971,2750 9225,2473 9479,2706 9733,2800 9987,2550 10241,2649 10496,2686 10750,2237 11004,2338 11258,2530 11512,2445 11766,2409 12020,2576 12274,2523 12529,2514 12783,2653 13037,2960 13291,2733 13545,2794 13799,2922 14053,2783 14307,2863 14561,2765"/>
 <path fill="rgb(0,0,0)" stroke="none" d="M 2519,8713 L 2619,8813 2719,8713 2619,8613 2519,8713 Z"/>
 <path fill="none" stroke="rgb(0,0,0)" stroke-linejoin="round" d="M 2519,8713 L 2619,8813 2719,8713 2619,8613 2519,8713 Z"/>
 <path fill="rgb(0,0,0)" stroke="none" d="M 2773,9052 L 2873,9152 2973,9052 2873,8952 2773,9052 Z"/>
 <path fill="none" stroke="rgb(0,0,0)" stroke-linejoin="round" d="M 2773,9052 L 2873,9152 2973,9052 2873,8952 2773,9052 Z"/>
 <path fill="rgb(0,0,0)" stroke="none" d="M 3027,9531 L 3127,9631 3227,9531 3127,9431 3027,9531 Z"/>
 <path fill="none" stroke="rgb(0,0,0)" stroke-linejoin="round" d="M 3027,9531 L 3127,9631 3227,9531 3127,9431 3027,9531 Z"/>
 <path fill="rgb(0,0,0)" stroke="none" d="M 3281,8450 L 3381,8550 3481,8450 3381,8350 3281,8450 Z"/>
 <path fill="none" stroke="rgb(0,0,0)" stroke-linejoin="round" d="M 3281,8450 L 3381,8550 3481,8450 3381,8350 3281,8450 Z"/>
 <path fill="rgb(0,0,0)" stroke="none" d="M 3535,8713 L 3635,8813 3735,8713 3635,8613 3535,8713 Z"/>
 <path fill="none" stroke="rgb(0,0,0)" stroke-linejoin="round" d="M 3535,8713 L 3635,8813 3735,8713 3635,8613 3535,8713 Z"/>
 <path fill="rgb(0,0,0)" stroke="none" d="M 3790,7895 L 3890,7995 3990,7895 3890,7795 3790,7895 Z"/>
 <path fill="none" stroke="rgb(0,0,0)" stroke-linejoin="round" d="M 3790,7895 L 3890,7995 3990,7895 3890,7795 3790,7895 Z"/>
 <path fill="rgb(0,0,0)" stroke="none" d="M 4044,8450 L 4144,8550 4244,8450 4144,8350 4044,8450 Z"/>
 <path fill="none" stroke="rgb(0,0,0)" stroke-linejoin="round" d="M 4044,8450 L 4144,8550 4244,8450 4144,8350 4044,8450 Z"/>
 <path fill="rgb(0,0,0)" stroke="none" d="M 4298,6938 L 4398,7038 4498,6938 4398,6838 4298,6938 Z"/>
 <path fill="none" stroke="rgb(0,0,0)" stroke-linejoin="round" d="M 4298,6938 L 4398,7038 4498,6938 4398,6838 4298,6938 Z"/>
 <path fill="rgb(0,0,0)" stroke="none" d="M 4552,6460 L 4652,6560 4752,6460 4652,6360 4552,6460 Z"/>
 <path fill="none" stroke="rgb(0,0,0)" stroke-linejoin="round" d="M 4552,6460 L 4652,6560 4752,6460 4652,6360 4552,6460 Z"/>
 <path fill="rgb(0,0,0)" stroke="none" d="M 4806,6417 L 4906,6517 5006,6417 4906,6317 4806,6417 Z"/>
 <path fill="none" stroke="rgb(0,0,0)" stroke-linejoin="round" d="M 4806,6417 L 4906,6517 5006,6417 4906,6317 4806,6417 Z"/>
 <path fill="rgb(0,0,0)" stroke="none" d="M 5060,5968 L 5160,6067 5260,5968 5160,5868 5060,5968 Z"/>
 <path fill="none" stroke="rgb(0,0,0)" stroke-linejoin="round" d="M 5060,5968 L 5160,6067 5260,5968 5160,5868 5060,5968 Z"/>
 <path fill="rgb(0,0,0)" stroke="none" d="M 5314,5758 L 5414,5858 5514,5758 5414,5658 5314,5758 Z"/>
 <path fill="none" stroke="rgb(0,0,0)" stroke-linejoin="round" d="M 5314,5758 L 5414,5858 5514,5758 5414,5658 5314,5758 Z"/>
 <path fill="rgb(0,0,0)" stroke="none" d="M 5568,6121 L 5668,6221 5768,6121 5668,6021 5568,6121 Z"/>
 <path fill="none" stroke="rgb(0,0,0)" stroke-linejoin="round" d="M 5568,6121 L 5668,6221 5768,6121 5668,6021 5568,6121 Z"/>
 <path fill="rgb(0,0,0)" stroke="none" d="M 5823,4580 L 5923,4680 6023,4580 5923,4480 5823,4580 Z"/>
 <path fill="none" stroke="rgb(0,0,0)" stroke-linejoin="round" d="M 5823,4580 L 5923,4680 6023,4580 5923,4480 5823,4580 Z"/>
 <path fill="rgb(0,0,0)" stroke="none" d="M 6077,4952 L 6177,5052 6277,4952 6177,4852 6077,4952 Z"/>
 <path fill="none" stroke="rgb(0,0,0)" stroke-linejoin="round" d="M 6077,4952 L 6177,5052 6277,4952 6177,4852 6077,4952 Z"/>
 <path fill="rgb(0,0,0)" stroke="none" d="M 6331,4304 L 6431,4404 6531,4304 6431,4204 6331,4304 Z"/>
 <path fill="none" stroke="rgb(0,0,0)" stroke-linejoin="round" d="M 6331,4304 L 6431,4404 6531,4304 6431,4204 6331,4304 Z"/>
 <path fill="rgb(0,0,0)" stroke="none" d="M 6585,4122 L 6685,4222 6785,4122 6685,4022 6585,4122 Z"/>
 <path fill="none" stroke="rgb(0,0,0)" stroke-linejoin="round" d="M 6585,4122 L 6685,4222 6785,4122 6685,4022 6585,4122 Z"/>
 <path fill="rgb(0,0,0)" stroke="none" d="M 6839,4165 L 6939,4265 7039,4165 6939,4065 6839,4165 Z"/>
 <path fill="none" stroke="rgb(0,0,0)" stroke-linejoin="round" d="M 6839,4165 L 6939,4265 7039,4165 6939,4065 6839,4165 Z"/>
 <path fill="rgb(0,0,0)" stroke="none" d="M 7093,3835 L 7193,3935 7293,3835 7193,3735 7093,3835 Z"/>
 <path fill="none" stroke="rgb(0,0,0)" stroke-linejoin="round" d="M 7093,3835 L 7193,3935 7293,3835 7193,3735 7093,3835 Z"/>
 <path fill="rgb(0,0,0)" stroke="none" d="M 7347,4256 L 7447,4356 7546,4256 7447,4156 7347,4256 Z"/>
 <path fill="none" stroke="rgb(0,0,0)" stroke-linejoin="round" d="M 7347,4256 L 7447,4356 7546,4256 7447,4156 7347,4256 Z"/>
 <path fill="rgb(0,0,0)" stroke="none" d="M 7600,3379 L 7700,3479 7800,3379 7700,3279 7600,3379 Z"/>
 <path fill="none" stroke="rgb(0,0,0)" stroke-linejoin="round" d="M 7600,3379 L 7700,3479 7800,3379 7700,3279 7600,3379 Z"/>
 <path fill="rgb(0,0,0)" stroke="none" d="M 7854,3442 L 7954,3542 8054,3442 7954,3342 7854,3442 Z"/>
 <path fill="none" stroke="rgb(0,0,0)" stroke-linejoin="round" d="M 7854,3442 L 7954,3542 8054,3442 7954,3342 7854,3442 Z"/>
 <path fill="rgb(0,0,0)" stroke="none" d="M 8109,3455 L 8209,3555 8309,3455 8209,3355 8109,3455 Z"/>
 <path fill="none" stroke="rgb(0,0,0)" stroke-linejoin="round" d="M 8109,3455 L 8209,3555 8309,3455 8209,3355 8109,3455 Z"/>
 <path fill="rgb(0,0,0)" stroke="none" d="M 8363,3078 L 8463,3178 8563,3078 8463,2978 8363,3078 Z"/>
 <path fill="none" stroke="rgb(0,0,0)" stroke-linejoin="round" d="M 8363,3078 L 8463,3178 8563,3078 8463,2978 8363,3078 Z"/>
 <path fill="rgb(0,0,0)" stroke="none" d="M 8617,3204 L 8717,3304 8817,3204 8717,3104 8617,3204 Z"/>
 <path fill="none" stroke="rgb(0,0,0)" stroke-linejoin="round" d="M 8617,3204 L 8717,3304 8817,3204 8717,3104 8617,3204 Z"/>
 <path fill="rgb(0,0,0)" stroke="none" d="M 8871,2750 L 8971,2850 9071,2750 8971,2650 8871,2750 Z"/>
 <path fill="none" stroke="rgb(0,0,0)" stroke-linejoin="round" d="M 8871,2750 L 8971,2850 9071,2750 8971,2650 8871,2750 Z"/>
 <path fill="rgb(0,0,0)" stroke="none" d="M 9125,2473 L 9225,2573 9325,2473 9225,2373 9125,2473 Z"/>
 <path fill="none" stroke="rgb(0,0,0)" stroke-linejoin="round" d="M 9125,2473 L 9225,2573 9325,2473 9225,2373 9125,2473 Z"/>
 <path fill="rgb(0,0,0)" stroke="none" d="M 9379,2706 L 9479,2806 9579,2706 9479,2606 9379,2706 Z"/>
 <path fill="none" stroke="rgb(0,0,0)" stroke-linejoin="round" d="M 9379,2706 L 9479,2806 9579,2706 9479,2606 9379,2706 Z"/>
 <path fill="rgb(0,0,0)" stroke="none" d="M 9633,2800 L 9733,2900 9833,2800 9733,2700 9633,2800 Z"/>
 <path fill="none" stroke="rgb(0,0,0)" stroke-linejoin="round" d="M 9633,2800 L 9733,2900 9833,2800 9733,2700 9633,2800 Z"/>
 <path fill="rgb(0,0,0)" stroke="none" d="M 9887,2550 L 9987,2650 10087,2550 9987,2450 9887,2550 Z"/>
 <path fill="none" stroke="rgb(0,0,0)" stroke-linejoin="round" d="M 9887,2550 L 9987,2650 10087,2550 9987,2450 9887,2550 Z"/>
 <path fill="rgb(0,0,0)" stroke="none" d="M 10141,2649 L 10241,2749 10341,2649 10241,2549 10141,2649 Z"/>
 <path fill="none" stroke="rgb(0,0,0)" stroke-linejoin="round" d="M 10141,2649 L 10241,2749 10341,2649 10241,2549 10141,2649 Z"/>
 <path fill="rgb(0,0,0)" stroke="none" d="M 10396,2686 L 10496,2786 10596,2686 10496,2586 10396,2686 Z"/>
 <path fill="none" stroke="rgb(0,0,0)" stroke-linejoin="round" d="M 10396,2686 L 10496,2786 10596,2686 10496,2586 10396,2686 Z"/>
 <path fill="rgb(0,0,0)" stroke="none" d="M 10650,2237 L 10750,2337 10850,2237 10750,2137 10650,2237 Z"/>
 <path fill="none" stroke="rgb(0,0,0)" stroke-linejoin="round" d="M 10650,2237 L 10750,2337 10850,2237 10750,2137 10650,2237 Z"/>
 <path fill="rgb(0,0,0)" stroke="none" d="M 10904,2338 L 11004,2438 11104,2338 11004,2238 10904,2338 Z"/>
 <path fill="none" stroke="rgb(0,0,0)" stroke-linejoin="round" d="M 10904,2338 L 11004,2438 11104,2338 11004,2238 10904,2338 Z"/>
 <path fill="rgb(0,0,0)" stroke="none" d="M 11158,2530 L 11258,2630 11358,2530 11258,2430 11158,2530 Z"/>
 <path fill="none" stroke="rgb(0,0,0)" stroke-linejoin="round" d="M 11158,2530 L 11258,2630 11358,2530 11258,2430 11158,2530 Z"/>
 <path fill="rgb(0,0,0)" stroke="none" d="M 11412,2445 L 11512,2545 11612,2445 11512,2345 11412,2445 Z"/>
 <path fill="none" stroke="rgb(0,0,0)" stroke-linejoin="round" d="M 11412,2445 L 11512,2545 11612,2445 11512,2345 11412,2445 Z"/>
 <path fill="rgb(0,0,0)" stroke="none" d="M 11666,2409 L 11766,2509 11866,2409 11766,2309 11666,2409 Z"/>
 <path fill="none" stroke="rgb(0,0,0)" stroke-linejoin="round" d="M 11666,2409 L 11766,2509 11866,2409 11766,2309 11666,2409 Z"/>
 <path fill="rgb(0,0,0)" stroke="none" d="M 11920,2576 L 12020,2676 12120,2576 12020,2476 11920,2576 Z"/>
 <path fill="none" stroke="rgb(0,0,0)" stroke-linejoin="round" d="M 11920,2576 L 12020,2676 12120,2576 12020,2476 11920,2576 Z"/>
 <path fill="rgb(0,0,0)" stroke="none" d="M 12174,2523 L 12274,2623 12374,2523 12274,2423 12174,2523 Z"/>
 <path fill="none" stroke="rgb(0,0,0)" stroke-linejoin="round" d="M 12174,2523 L 12274,2623 12374,2523 12274,2423 12174,2523 Z"/>
 <path fill="rgb(0,0,0)" stroke="none" d="M 12429,2514 L 12529,2614 12629,2514 12529,2414 12429,2514 Z"/>
 <path fill="none" stroke="rgb(0,0,0)" stroke-linejoin="round" d="M 12429,2514 L 12529,2614 12629,2514 12529,2414 12429,2514 Z"/>
 <path fill="rgb(0,0,0)" stroke="none" d="M 12683,2653 L 12783,2753 12883,2653 12783,2553 12683,2653 Z"/>
 <path fill="none" stroke="rgb(0,0,0)" stroke-linejoin="round" d="M 12683,2653 L 12783,2753 12883,2653 12783,2553 12683,2653 Z"/>
 <path fill="rgb(0,0,0)" stroke="none" d="M 12937,2960 L 13037,3060 13137,2960 13037,2860 12937,2960 Z"/>
 <path fill="none" stroke="rgb(0,0,0)" stroke-linejoin="round" d="M 12937,2960 L 13037,3060 13137,2960 13037,2860 12937,2960 Z"/>
 <path fill="rgb(0,0,0)" stroke="none" d="M 13191,2733 L 13291,2833 13391,2733 13291,2633 13191,2733 Z"/>
 <path fill="none" stroke="rgb(0,0,0)" stroke-linejoin="round" d="M 13191,2733 L 13291,2833 13391,2733 13291,2633 13191,2733 Z"/>
 <path fill="rgb(0,0,0)" stroke="none" d="M 13445,2794 L 13545,2894 13645,2794 13545,2694 13445,2794 Z"/>
 <path fill="none" stroke="rgb(0,0,0)" stroke-linejoin="round" d="M 13445,2794 L 13545,2894 13645,2794 13545,2694 13445,2794 Z"/>
 <path fill="rgb(0,0,0)" stroke="none" d="M 13699,2922 L 13799,3022 13899,2922 13799,2822 13699,2922 Z"/>
 <path fill="none" stroke="rgb(0,0,0)" stroke-linejoin="round" d="M 13699,2922 L 13799,3022 13899,2922 13799,2822 13699,2922 Z"/>
 <path fill="rgb(0,0,0)" stroke="none" d="M 13953,2783 L 14053,2883 14153,2783 14053,2683 13953,2783 Z"/>
 <path fill="none" stroke="rgb(0,0,0)" stroke-linejoin="round" d="M 13953,2783 L 14053,2883 14153,2783 14053,2683 13953,2783 Z"/>
 <path fill="rgb(0,0,0)" stroke="none" d="M 14207,2863 L 14307,2963 14407,2863 14307,2763 14207,2863 Z"/>
 <path fill="none" stroke="rgb(0,0,0)" stroke-linejoin="round" d="M 14207,2863 L 14307,2963 14407,2863 14307,2763 14207,2863 Z"/>
 <path fill="rgb(0,0,0)" stroke="none" d="M 14461,2765 L 14561,2865 14661,2765 14561,2665 14461,2765 Z"/>
 <path fill="none" stroke="rgb(0,0,0)" stroke-linejoin="round" d="M 14461,2765 L 14561,2865 14661,2765 14561,2665 14461,2765 Z"/>
 <path fill="none" stroke="rgb(255,66,14)" stroke-width="50" stroke-linejoin="round" d="M 4906,9858 L 5160,9040 5414,9040 5668,8562 5923,9040 6177,7744 6431,6384 6685,6926 6939,5599 7193,5698 7447,6448 7700,3932 7954,6266 8209,3719 8463,4346 8717,3807 8971,3418 9225,3039 9479,2808 9733,2620 9987,2517 10241,2051 10496,2208 10750,2019 11004,1926 11258,1917 11512,1955 11766,1902 12020,1881 12274,1769 12529,1792 12783,1959 13037,2174 13291,2241 13545,2059 13799,2037 14053,2159 14307,2302 14561,2503"/>
 <path fill="rgb(255,66,14)" stroke="none" d="M 4806,9858 L 4906,9958 5006,9858 4906,9758 4806,9858 Z"/>
 <path fill="none" stroke="rgb(255,66,14)" stroke-linejoin="round" d="M 4806,9858 L 4906,9958 5006,9858 4906,9758 4806,9858 Z"/>
 <path fill="rgb(255,66,14)" stroke="none" d="M 5060,9040 L 5160,9140 5260,9040 5160,8940 5060,9040 Z"/>
 <path fill="none" stroke="rgb(255,66,14)" stroke-linejoin="round" d="M 5060,9040 L 5160,9140 5260,9040 5160,8940 5060,9040 Z"/>
 <path fill="rgb(255,66,14)" stroke="none" d="M 5314,9040 L 5414,9140 5514,9040 5414,8940 5314,9040 Z"/>
 <path fill="none" stroke="rgb(255,66,14)" stroke-linejoin="round" d="M 5314,9040 L 5414,9140 5514,9040 5414,8940 5314,9040 Z"/>
 <path fill="rgb(255,66,14)" stroke="none" d="M 5568,8562 L 5668,8662 5768,8562 5668,8462 5568,8562 Z"/>
 <path fill="none" stroke="rgb(255,66,14)" stroke-linejoin="round" d="M 5568,8562 L 5668,8662 5768,8562 5668,8462 5568,8562 Z"/>
 <path fill="rgb(255,66,14)" stroke="none" d="M 5823,9040 L 5923,9140 6023,9040 5923,8940 5823,9040 Z"/>
 <path fill="none" stroke="rgb(255,66,14)" stroke-linejoin="round" d="M 5823,9040 L 5923,9140 6023,9040 5923,8940 5823,9040 Z"/>
 <path fill="rgb(255,66,14)" stroke="none" d="M 6077,7744 L 6177,7844 6277,7744 6177,7644 6077,7744 Z"/>
 <path fill="none" stroke="rgb(255,66,14)" stroke-linejoin="round" d="M 6077,7744 L 6177,7844 6277,7744 6177,7644 6077,7744 Z"/>
 <path fill="rgb(255,66,14)" stroke="none" d="M 6331,6384 L 6431,6484 6531,6384 6431,6284 6331,6384 Z"/>
 <path fill="none" stroke="rgb(255,66,14)" stroke-linejoin="round" d="M 6331,6384 L 6431,6484 6531,6384 6431,6284 6331,6384 Z"/>
 <path fill="rgb(255,66,14)" stroke="none" d="M 6585,6926 L 6685,7026 6785,6926 6685,6826 6585,6926 Z"/>
 <path fill="none" stroke="rgb(255,66,14)" stroke-linejoin="round" d="M 6585,6926 L 6685,7026 6785,6926 6685,6826 6585,6926 Z"/>
 <path fill="rgb(255,66,14)" stroke="none" d="M 6839,5599 L 6939,5699 7039,5599 6939,5499 6839,5599 Z"/>
 <path fill="none" stroke="rgb(255,66,14)" stroke-linejoin="round" d="M 6839,5599 L 6939,5699 7039,5599 6939,5499 6839,5599 Z"/>
 <path fill="rgb(255,66,14)" stroke="none" d="M 7093,5698 L 7193,5798 7293,5698 7193,5598 7093,5698 Z"/>
 <path fill="none" stroke="rgb(255,66,14)" stroke-linejoin="round" d="M 7093,5698 L 7193,5798 7293,5698 7193,5598 7093,5698 Z"/>
 <path fill="rgb(255,66,14)" stroke="none" d="M 7347,6448 L 7447,6548 7546,6448 7447,6348 7347,6448 Z"/>
 <path fill="none" stroke="rgb(255,66,14)" stroke-linejoin="round" d="M 7347,6448 L 7447,6548 7546,6448 7447,6348 7347,6448 Z"/>
 <path fill="rgb(255,66,14)" stroke="none" d="M 7600,3932 L 7700,4032 7800,3932 7700,3832 7600,3932 Z"/>
 <path fill="none" stroke="rgb(255,66,14)" stroke-linejoin="round" d="M 7600,3932 L 7700,4032 7800,3932 7700,3832 7600,3932 Z"/>
 <path fill="rgb(255,66,14)" stroke="none" d="M 7854,6266 L 7954,6366 8054,6266 7954,6166 7854,6266 Z"/>
 <path fill="none" stroke="rgb(255,66,14)" stroke-linejoin="round" d="M 7854,6266 L 7954,6366 8054,6266 7954,6166 7854,6266 Z"/>
 <path fill="rgb(255,66,14)" stroke="none" d="M 8109,3719 L 8209,3819 8309,3719 8209,3619 8109,3719 Z"/>
 <path fill="none" stroke="rgb(255,66,14)" stroke-linejoin="round" d="M 8109,3719 L 8209,3819 8309,3719 8209,3619 8109,3719 Z"/>
 <path fill="rgb(255,66,14)" stroke="none" d="M 8363,4346 L 8463,4446 8563,4346 8463,4246 8363,4346 Z"/>
 <path fill="none" stroke="rgb(255,66,14)" stroke-linejoin="round" d="M 8363,4346 L 8463,4446 8563,4346 8463,4246 8363,4346 Z"/>
 <path fill="rgb(255,66,14)" stroke="none" d="M 8617,3807 L 8717,3907 8817,3807 8717,3707 8617,3807 Z"/>
 <path fill="none" stroke="rgb(255,66,14)" stroke-linejoin="round" d="M 8617,3807 L 8717,3907 8817,3807 8717,3707 8617,3807 Z"/>
 <path fill="rgb(255,66,14)" stroke="none" d="M 8871,3418 L 8971,3518 9071,3418 8971,3318 8871,3418 Z"/>
 <path fill="none" stroke="rgb(255,66,14)" stroke-linejoin="round" d="M 8871,3418 L 8971,3518 9071,3418 8971,3318 8871,3418 Z"/>
 <path fill="rgb(255,66,14)" stroke="none" d="M 9125,3039 L 9225,3139 9325,3039 9225,2939 9125,3039 Z"/>
 <path fill="none" stroke="rgb(255,66,14)" stroke-linejoin="round" d="M 9125,3039 L 9225,3139 9325,3039 9225,2939 9125,3039 Z"/>
 <path fill="rgb(255,66,14)" stroke="none" d="M 9379,2808 L 9479,2908 9579,2808 9479,2708 9379,2808 Z"/>
 <path fill="none" stroke="rgb(255,66,14)" stroke-linejoin="round" d="M 9379,2808 L 9479,2908 9579,2808 9479,2708 9379,2808 Z"/>
 <path fill="rgb(255,66,14)" stroke="none" d="M 9633,2620 L 9733,2720 9833,2620 9733,2520 9633,2620 Z"/>
 <path fill="none" stroke="rgb(255,66,14)" stroke-linejoin="round" d="M 9633,2620 L 9733,2720 9833,2620 9733,2520 9633,2620 Z"/>
 <path fill="rgb(255,66,14)" stroke="none" d="M 9887,2517 L 9987,2617 10087,2517 9987,2417 9887,2517 Z"/>
 <path fill="none" stroke="rgb(255,66,14)" stroke-linejoin="round" d="M 9887,2517 L 9987,2617 10087,2517 9987,2417 9887,2517 Z"/>
 <path fill="rgb(255,66,14)" stroke="none" d="M 10141,2051 L 10241,2151 10341,2051 10241,1951 10141,2051 Z"/>
 <path fill="none" stroke="rgb(255,66,14)" stroke-linejoin="round" d="M 10141,2051 L 10241,2151 10341,2051 10241,1951 10141,2051 Z"/>
 <path fill="rgb(255,66,14)" stroke="none" d="M 10396,2208 L 10496,2308 10596,2208 10496,2108 10396,2208 Z"/>
 <path fill="none" stroke="rgb(255,66,14)" stroke-linejoin="round" d="M 10396,2208 L 10496,2308 10596,2208 10496,2108 10396,2208 Z"/>
 <path fill="rgb(255,66,14)" stroke="none" d="M 10650,2019 L 10750,2119 10850,2019 10750,1919 10650,2019 Z"/>
 <path fill="none" stroke="rgb(255,66,14)" stroke-linejoin="round" d="M 10650,2019 L 10750,2119 10850,2019 10750,1919 10650,2019 Z"/>
 <path fill="rgb(255,66,14)" stroke="none" d="M 10904,1926 L 11004,2026 11104,1926 11004,1826 10904,1926 Z"/>
 <path fill="none" stroke="rgb(255,66,14)" stroke-linejoin="round" d="M 10904,1926 L 11004,2026 11104,1926 11004,1826 10904,1926 Z"/>
 <path fill="rgb(255,66,14)" stroke="none" d="M 11158,1917 L 11258,2017 11358,1917 11258,1817 11158,1917 Z"/>
 <path fill="none" stroke="rgb(255,66,14)" stroke-linejoin="round" d="M 11158,1917 L 11258,2017 11358,1917 11258,1817 11158,1917 Z"/>
 <path fill="rgb(255,66,14)" stroke="none" d="M 11412,1955 L 11512,2055 11612,1955 11512,1855 11412,1955 Z"/>
 <path fill="none" stroke="rgb(255,66,14)" stroke-linejoin="round" d="M 11412,1955 L 11512,2055 11612,1955 11512,1855 11412,1955 Z"/>
 <path fill="rgb(255,66,14)" stroke="none" d="M 11666,1902 L 11766,2002 11866,1902 11766,1802 11666,1902 Z"/>
 <path fill="none" stroke="rgb(255,66,14)" stroke-linejoin="round" d="M 11666,1902 L 11766,2002 11866,1902 11766,1802 11666,1902 Z"/>
 <path fill="rgb(255,66,14)" stroke="none" d="M 11920,1881 L 12020,1981 12120,1881 12020,1781 11920,1881 Z"/>
 <path fill="none" stroke="rgb(255,66,14)" stroke-linejoin="round" d="M 11920,1881 L 12020,1981 12120,1881 12020,1781 11920,1881 Z"/>
 <path fill="rgb(255,66,14)" stroke="none" d="M 12174,1769 L 12274,1869 12374,1769 12274,1669 12174,1769 Z"/>
 <path fill="none" stroke="rgb(255,66,14)" stroke-linejoin="round" d="M 12174,1769 L 12274,1869 12374,1769 12274,1669 12174,1769 Z"/>
 <path fill="rgb(255,66,14)" stroke="none" d="M 12429,1792 L 12529,1892 12629,1792 12529,1692 12429,1792 Z"/>
 <path fill="none" stroke="rgb(255,66,14)" stroke-linejoin="round" d="M 12429,1792 L 12529,1892 12629,1792 12529,1692 12429,1792 Z"/>
 <path fill="rgb(255,66,14)" stroke="none" d="M 12683,1959 L 12783,2059 12883,1959 12783,1859 12683,1959 Z"/>
 <path fill="none" stroke="rgb(255,66,14)" stroke-linejoin="round" d="M 12683,1959 L 12783,2059 12883,1959 12783,1859 12683,1959 Z"/>
 <path fill="rgb(255,66,14)" stroke="none" d="M 12937,2174 L 13037,2274 13137,2174 13037,2074 12937,2174 Z"/>
 <path fill="none" stroke="rgb(255,66,14)" stroke-linejoin="round" d="M 12937,2174 L 13037,2274 13137,2174 13037,2074 12937,2174 Z"/>
 <path fill="rgb(255,66,14)" stroke="none" d="M 13191,2241 L 13291,2341 13391,2241 13291,2141 13191,2241 Z"/>
 <path fill="none" stroke="rgb(255,66,14)" stroke-linejoin="round" d="M 13191,2241 L 13291,2341 13391,2241 13291,2141 13191,2241 Z"/>
 <path fill="rgb(255,66,14)" stroke="none" d="M 13445,2059 L 13545,2159 13645,2059 13545,1959 13445,2059 Z"/>
 <path fill="none" stroke="rgb(255,66,14)" stroke-linejoin="round" d="M 13445,2059 L 13545,2159 13645,2059 13545,1959 13445,2059 Z"/>
 <path fill="rgb(255,66,14)" stroke="none" d="M 13699,2037 L 13799,2137 13899,2037 13799,1937 13699,2037 Z"/>
 <path fill="none" stroke="rgb(255,66,14)" stroke-linejoin="round" d="M 13699,2037 L 13799,2137 13899,2037 13799,1937 13699,2037 Z"/>
 <path fill="rgb(255,66,14)" stroke="none" d="M 13953,2159 L 14053,2259 14153,2159 14053,2059 13953,2159 Z"/>
 <path fill="none" stroke="rgb(255,66,14)" stroke-linejoin="round" d="M 13953,2159 L 14053,2259 14153,2159 14053,2059 13953,2159 Z"/>
 <path fill="rgb(255,66,14)" stroke="none" d="M 14207,2302 L 14307,2402 14407,2302 14307,2202 14207,2302 Z"/>
 <path fill="none" stroke="rgb(255,66,14)" stroke-linejoin="round" d="M 14207,2302 L 14307,2402 14407,2302 14307,2202 14207,2302 Z"/>
 <path fill="rgb(255,66,14)" stroke="none" d="M 14461,2503 L 14561,2603 14661,2503 14561,2403 14461,2503 Z"/>
 <path fill="none" stroke="rgb(255,66,14)" stroke-linejoin="round" d="M 14461,2503 L 14561,2603 14661,2503 14561,2403 14461,2503 Z"/>
 <text class="TextShape"><tspan class="TextParagraph" font-family="Liberation Sans, sans-serif" font-size="353px" font-weight="400"><tspan class="TextPosition" x="1179" y="10563"><tspan fill="rgb(0,0,0)" stroke="none">20/02</tspan></tspan></tspan></text>
 <text class="TextShape"><tspan class="TextParagraph" font-family="Liberation Sans, sans-serif" font-size="353px" font-weight="400"><tspan class="TextPosition" x="2957" y="10563"><tspan fill="rgb(0,0,0)" stroke="none">27/02</tspan></tspan></tspan></text>
 <text class="TextShape"><tspan class="TextParagraph" font-family="Liberation Sans, sans-serif" font-size="353px" font-weight="400"><tspan class="TextPosition" x="4736" y="10563"><tspan fill="rgb(0,0,0)" stroke="none">05/03</tspan></tspan></tspan></text>
 <text class="TextShape"><tspan class="TextParagraph" font-family="Liberation Sans, sans-serif" font-size="353px" font-weight="400"><tspan class="TextPosition" x="6515" y="10563"><tspan fill="rgb(0,0,0)" stroke="none">12/03</tspan></tspan></tspan></text>
 <text class="TextShape"><tspan class="TextParagraph" font-family="Liberation Sans, sans-serif" font-size="353px" font-weight="400"><tspan class="TextPosition" x="8294" y="10563"><tspan fill="rgb(0,0,0)" stroke="none">19/03</tspan></tspan></tspan></text>
 <text class="TextShape"><tspan class="TextParagraph" font-family="Liberation Sans, sans-serif" font-size="353px" font-weight="400"><tspan class="TextPosition" x="10073" y="10563"><tspan fill="rgb(0,0,0)" stroke="none">26/03</tspan></tspan></tspan></text>
 <text class="TextShape"><tspan class="TextParagraph" font-family="Liberation Sans, sans-serif" font-size="353px" font-weight="400"><tspan class="TextPosition" x="11851" y="10563"><tspan fill="rgb(0,0,0)" stroke="none">02/04</tspan></tspan></tspan></text>
 <text class="TextShape"><tspan class="TextParagraph" font-family="Liberation Sans, sans-serif" font-size="353px" font-weight="400"><tspan class="TextPosition" x="13630" y="10563"><tspan fill="rgb(0,0,0)" stroke="none">09/04</tspan></tspan></tspan></text>
 <text class="TextShape"><tspan class="TextParagraph" font-family="Liberation Sans, sans-serif" font-size="353px" font-weight="400"><tspan class="TextPosition" x="750" y="10116"><tspan fill="rgb(0,0,0)" stroke="none">0,1</tspan></tspan></tspan></text>
 <text class="TextShape"><tspan class="TextParagraph" font-family="Liberation Sans, sans-serif" font-size="353px" font-weight="400"><tspan class="TextPosition" x="750" y="7399"><tspan fill="rgb(0,0,0)" stroke="none">1,0</tspan></tspan></tspan></text>
 <text class="TextShape"><tspan class="TextParagraph" font-family="Liberation Sans, sans-serif" font-size="353px" font-weight="400"><tspan class="TextPosition" x="565" y="4682"><tspan fill="rgb(0,0,0)" stroke="none">10,0</tspan></tspan></tspan></text>
 <text class="TextShape"><tspan class="TextParagraph" font-family="Liberation Sans, sans-serif" font-size="353px" font-weight="400"><tspan class="TextPosition" x="379" y="1965"><tspan fill="rgb(0,0,0)" stroke="none">100,0</tspan></tspan></tspan></text>
 <text class="TextShape"><tspan class="TextParagraph" font-family="Liberation Sans, sans-serif" font-size="459px" font-weight="400"><tspan class="TextPosition" x="1508" y="657"><tspan fill="rgb(0,0,0)" stroke="none">Covid-19 (muertes diarias por millón de mayores de 65 años)</tspan></tspan></tspan></text>
 <path fill="none" stroke="rgb(0,0,0)" stroke-width="50" stroke-linejoin="round" d="M 5529,11699 L 6329,11699"/>
 <path fill="rgb(0,0,0)" stroke="none" d="M 5823,11699 L 5929,11805 6034,11699 5929,11594 5823,11699 Z"/>
 <path fill="none" stroke="rgb(0,0,0)" stroke-linejoin="round" d="M 5823,11699 L 5929,11805 6034,11699 5929,11594 5823,11699 Z"/>
 <path fill="none" stroke="rgb(255,66,14)" stroke-width="50" stroke-linejoin="round" d="M 7404,11699 L 8203,11699"/>
 <path fill="rgb(255,66,14)" stroke="none" d="M 7697,11699 L 7803,11805 7908,11699 7803,11594 7697,11699 Z"/>
 <path fill="none" stroke="rgb(255,66,14)" stroke-linejoin="round" d="M 7697,11699 L 7803,11805 7908,11699 7803,11594 7697,11699 Z"/>
 <text class="TextShape"><tspan class="TextParagraph" font-family="Liberation Sans, sans-serif" font-size="353px" font-weight="400"><tspan class="TextPosition" x="6429" y="11819"><tspan fill="rgb(0,0,0)" stroke="none">Italia</tspan></tspan></tspan></text>
 <text class="TextShape"><tspan class="TextParagraph" font-family="Liberation Sans, sans-serif" font-size="353px" font-weight="400"><tspan class="TextPosition" x="8303" y="11819"><tspan fill="rgb(0,0,0)" stroke="none">España</tspan></tspan></tspan></text>


 <text x="2100" y="1400" class="Textparagraph" font-family="sans-serif" font-size="320px" font-weight="400"  fill="rgb(0,0,0)" stroke="none">Cierre colegios Lombardía</text>
 <line x1="2100" y1="10000" x2="2100" y2="1400" stroke="blue" stroke-width="30" />
 
 <text x="2350" y="1800" class="Textparagraph" font-family="sans-serif" font-size="320px" font-weight="400"  fill="rgb(0,0,0)" stroke="none">Cancelación Carnaval Venecia</text>
 <line x1="2350" y1="10000" x2="2350" y2="1800" stroke="blue" stroke-width="30" />
 
 <text x="4900" y="2200" class="Textparagraph" font-family="sans-serif" font-size="320px" font-weight="400"  fill="rgb(0,0,0)" stroke="none">Cierre colegios Italia</text>
 <line x1="4900" y1="6250" x2="4900" y2="2200" stroke="blue" stroke-width="30" />
 
 <text x="5900" y="2600" class="Textparagraph" font-family="sans-serif" font-size="320px" font-weight="400"  fill="rgb(0,0,0)" stroke="none">Cuarentena Lombardía</text>
 <line x1="5900" y1="4450" x2="5900" y2="2600" stroke="blue" stroke-width="30" />
 
 <text x="6400" y="2900" class="Textparagraph" font-family="sans-serif" font-size="320px" font-weight="400"  fill="rgb(0,0,0)" stroke="none">Cuarentena Italia</text>
 <line x1="6400" y1="4150" x2="6400" y2="2900" stroke="blue" stroke-width="30" />
 
 <text x="9200" y="1350" class="Textparagraph" font-family="sans-serif" font-size="320px" font-weight="400"  fill="rgb(0,0,0)" stroke="none">Cuarentena reforzada</text>
 <line x1="9200" y1="2350" x2="9200" y2="1350" stroke="blue" stroke-width="30" />
 
 <text x="6200" y="9500" class="Textparagraph" font-family="sans-serif" font-size="320px" font-weight="400"  fill="rgb(0,0,0)" stroke="none">Cierre colegios Madrid</text>
 <line x1="6200" y1="7900" x2="6200" y2="9300" stroke="blue" stroke-width="30" />

 <text x="6450" y="8900" class="Textparagraph" font-family="sans-serif" font-size="320px" font-weight="400"  fill="rgb(0,0,0)" stroke="none">Cancelación Fallas</text>
 <line x1="6450" y1="6500" x2="6450" y2="8700" stroke="blue" stroke-width="30" />
 
 <text x="7150" y="8300" class="Textparagraph" font-family="sans-serif" font-size="320px" font-weight="400"  fill="rgb(0,0,0)" stroke="none">Cierre colegios España </text>
 <line x1="7150" y1="5850" x2="7150" y2="8100" stroke="blue" stroke-width="30" />
 
 <text x="7700" y="7700" class="Textparagraph" font-family="sans-serif" font-size="320px" font-weight="400"  fill="rgb(0,0,0)" stroke="none">Cuarentena España </text>
 <line x1="7700" y1="4300" x2="7700" y2="7500" stroke="blue" stroke-width="30" />
 
 <text x="8300" y="6100" class="Textparagraph" font-family="sans-serif" font-size="320px" font-weight="400"  fill="rgb(0,0,0)" stroke="none">Cuarentena reforzada</text>
 <line x1="11550" y1="2100" x2="11550" y2="5900" stroke="blue" stroke-width="30" />
  
</svg>