<?xml version="1.0" encoding="UTF-8"?>
<!DOCTYPE svg PUBLIC "-//W3C//DTD SVG 1.1//EN" "http://www.w3.org/Graphics/SVG/1.1/DTD/svg11.dtd">
<svg width="150mm" height="120mm" viewBox="0 0 15000 12000" version="1.1" xmlns="http://www.w3.org/2000/svg" xmlns:xlink="http://www.w3.org/1999/xlink" stroke-width="28.222" stroke-linejoin="round" xml:space="preserve">
 <path fill="rgb(255,255,255)" stroke="none" d="M 7507,12000 L 15,12000 15,0 15000,0 15000,12000 7507,12000 Z"/>
 <path fill="none" stroke="rgb(0,0,0)" stroke-linejoin="round" d="M 7755,11165 L 807,11165 807,1251 14703,1251 14703,11165 7755,11165 Z"/>
 <path fill="none" stroke="rgb(0,0,0)" stroke-linejoin="round" d="M 14702,11164 L 806,11164"/>
 <path fill="none" stroke="rgb(0,0,0)" stroke-linejoin="round" d="M 14702,9181 L 806,9181"/>
 <path fill="none" stroke="rgb(0,0,0)" stroke-linejoin="round" d="M 14702,7198 L 806,7198"/>
 <path fill="none" stroke="rgb(0,0,0)" stroke-linejoin="round" d="M 14702,5215 L 806,5215"/>
 <path fill="none" stroke="rgb(0,0,0)" stroke-linejoin="round" d="M 14702,3232 L 806,3232"/>
 <path fill="none" stroke="rgb(0,0,0)" stroke-linejoin="round" d="M 14702,1249 L 806,1249"/>
 <path fill="none" stroke="rgb(0,0,0)" stroke-linejoin="round" d="M 806,11314 L 806,11164"/>
 <path fill="none" stroke="rgb(0,0,0)" stroke-linejoin="round" d="M 806,11314 L 806,11164"/>
 <path fill="none" stroke="rgb(0,0,0)" stroke-linejoin="round" d="M 2217,11314 L 2217,11164"/>
 <path fill="none" stroke="rgb(0,0,0)" stroke-linejoin="round" d="M 2217,11314 L 2217,11164"/>
 <path fill="none" stroke="rgb(0,0,0)" stroke-linejoin="round" d="M 3626,11314 L 3626,11164"/>
 <path fill="none" stroke="rgb(0,0,0)" stroke-linejoin="round" d="M 3626,11314 L 3626,11164"/>
 <path fill="none" stroke="rgb(0,0,0)" stroke-linejoin="round" d="M 5036,11314 L 5036,11164"/>
 <path fill="none" stroke="rgb(0,0,0)" stroke-linejoin="round" d="M 5036,11314 L 5036,11164"/>
 <path fill="none" stroke="rgb(0,0,0)" stroke-linejoin="round" d="M 6446,11314 L 6446,11164"/>
 <path fill="none" stroke="rgb(0,0,0)" stroke-linejoin="round" d="M 6446,11314 L 6446,11164"/>
 <path fill="none" stroke="rgb(0,0,0)" stroke-linejoin="round" d="M 7856,11314 L 7856,11164"/>
 <path fill="none" stroke="rgb(0,0,0)" stroke-linejoin="round" d="M 7856,11314 L 7856,11164"/>
 <path fill="none" stroke="rgb(0,0,0)" stroke-linejoin="round" d="M 9265,11314 L 9265,11164"/>
 <path fill="none" stroke="rgb(0,0,0)" stroke-linejoin="round" d="M 9265,11314 L 9265,11164"/>
 <path fill="none" stroke="rgb(0,0,0)" stroke-linejoin="round" d="M 10675,11314 L 10675,11164"/>
 <path fill="none" stroke="rgb(0,0,0)" stroke-linejoin="round" d="M 10675,11314 L 10675,11164"/>
 <path fill="none" stroke="rgb(0,0,0)" stroke-linejoin="round" d="M 12085,11314 L 12085,11164"/>
 <path fill="none" stroke="rgb(0,0,0)" stroke-linejoin="round" d="M 12085,11314 L 12085,11164"/>
 <path fill="none" stroke="rgb(0,0,0)" stroke-linejoin="round" d="M 13495,11314 L 13495,11164"/>
 <path fill="none" stroke="rgb(0,0,0)" stroke-linejoin="round" d="M 13495,11314 L 13495,11164"/>
 <path fill="none" stroke="rgb(0,0,0)" stroke-linejoin="round" d="M 806,11164 L 14702,11164"/>
 <path fill="none" stroke="rgb(0,0,0)" stroke-linejoin="round" d="M 656,11164 L 806,11164"/>
 <path fill="none" stroke="rgb(0,0,0)" stroke-linejoin="round" d="M 656,11164 L 806,11164"/>
 <path fill="none" stroke="rgb(0,0,0)" stroke-linejoin="round" d="M 656,9181 L 806,9181"/>
 <path fill="none" stroke="rgb(0,0,0)" stroke-linejoin="round" d="M 656,9181 L 806,9181"/>
 <path fill="none" stroke="rgb(0,0,0)" stroke-linejoin="round" d="M 656,7197 L 806,7197"/>
 <path fill="none" stroke="rgb(0,0,0)" stroke-linejoin="round" d="M 656,7197 L 806,7197"/>
 <path fill="none" stroke="rgb(0,0,0)" stroke-linejoin="round" d="M 656,5215 L 806,5215"/>
 <path fill="none" stroke="rgb(0,0,0)" stroke-linejoin="round" d="M 656,5215 L 806,5215"/>
 <path fill="none" stroke="rgb(0,0,0)" stroke-linejoin="round" d="M 656,3232 L 806,3232"/>
 <path fill="none" stroke="rgb(0,0,0)" stroke-linejoin="round" d="M 656,3232 L 806,3232"/>
 <path fill="none" stroke="rgb(0,0,0)" stroke-linejoin="round" d="M 656,1249 L 806,1249"/>
 <path fill="none" stroke="rgb(0,0,0)" stroke-linejoin="round" d="M 656,1249 L 806,1249"/>
 <path fill="none" stroke="rgb(0,0,0)" stroke-linejoin="round" d="M 806,11164 L 806,1249"/>
 <path fill="none" stroke="rgb(0,69,134)" stroke-width="50" stroke-linejoin="round" d="M 4532,11161 L 4734,11161 4935,11160 5137,11158 5338,11155 5539,11155 5741,11150 5943,11150 6143,11150 6345,11150 6546,11141 6748,11129 6950,11112 7150,11103 7352,11069 7553,11038 7755,10999 7957,10947 8157,10885 8359,10805 8560,10735 8762,10662 8963,10521 9164,10357 9366,10202 9567,10043 9769,9887 9970,9684 10171,9583 10373,9392 10575,9112 10776,8841 10977,8548 11178,8359 11380,8217 11582,8078 11782,7891 11984,7577 12185,7230 12387,6900 12589,6633 12789,6430 12991,6309 13192,6095 13394,5787 13595,5550 13796,5299 13998,5102 14199,4948 14401,4827 14602,4647"/>
 <path fill="rgb(0,69,134)" stroke="none" d="M 4432,11061 L 4432,11261 4632,11261 4632,11061 4432,11061 Z"/>
 <path fill="none" stroke="rgb(0,69,134)" stroke-linejoin="round" d="M 4432,11061 L 4432,11261 4632,11261 4632,11061 4432,11061 Z"/>
 <path fill="rgb(0,69,134)" stroke="none" d="M 4634,11061 L 4634,11261 4834,11261 4834,11061 4634,11061 Z"/>
 <path fill="none" stroke="rgb(0,69,134)" stroke-linejoin="round" d="M 4634,11061 L 4634,11261 4834,11261 4834,11061 4634,11061 Z"/>
 <path fill="rgb(0,69,134)" stroke="none" d="M 4835,11060 L 4835,11260 5035,11260 5035,11060 4835,11060 Z"/>
 <path fill="none" stroke="rgb(0,69,134)" stroke-linejoin="round" d="M 4835,11060 L 4835,11260 5035,11260 5035,11060 4835,11060 Z"/>
 <path fill="rgb(0,69,134)" stroke="none" d="M 5037,11058 L 5037,11258 5236,11258 5236,11058 5037,11058 Z"/>
 <path fill="none" stroke="rgb(0,69,134)" stroke-linejoin="round" d="M 5037,11058 L 5037,11258 5236,11258 5236,11058 5037,11058 Z"/>
 <path fill="rgb(0,69,134)" stroke="none" d="M 5238,11055 L 5238,11255 5438,11255 5438,11055 5238,11055 Z"/>
 <path fill="none" stroke="rgb(0,69,134)" stroke-linejoin="round" d="M 5238,11055 L 5238,11255 5438,11255 5438,11055 5238,11055 Z"/>
 <path fill="rgb(0,69,134)" stroke="none" d="M 5439,11055 L 5439,11255 5639,11255 5639,11055 5439,11055 Z"/>
 <path fill="none" stroke="rgb(0,69,134)" stroke-linejoin="round" d="M 5439,11055 L 5439,11255 5639,11255 5639,11055 5439,11055 Z"/>
 <path fill="rgb(0,69,134)" stroke="none" d="M 5641,11050 L 5641,11250 5841,11250 5841,11050 5641,11050 Z"/>
 <path fill="none" stroke="rgb(0,69,134)" stroke-linejoin="round" d="M 5641,11050 L 5641,11250 5841,11250 5841,11050 5641,11050 Z"/>
 <path fill="rgb(0,69,134)" stroke="none" d="M 5843,11050 L 5843,11250 6043,11250 6043,11050 5843,11050 Z"/>
 <path fill="none" stroke="rgb(0,69,134)" stroke-linejoin="round" d="M 5843,11050 L 5843,11250 6043,11250 6043,11050 5843,11050 Z"/>
 <path fill="rgb(0,69,134)" stroke="none" d="M 6044,11050 L 6044,11250 6243,11250 6243,11050 6044,11050 Z"/>
 <path fill="none" stroke="rgb(0,69,134)" stroke-linejoin="round" d="M 6044,11050 L 6044,11250 6243,11250 6243,11050 6044,11050 Z"/>
 <path fill="rgb(0,69,134)" stroke="none" d="M 6245,11050 L 6245,11250 6445,11250 6445,11050 6245,11050 Z"/>
 <path fill="none" stroke="rgb(0,69,134)" stroke-linejoin="round" d="M 6245,11050 L 6245,11250 6445,11250 6445,11050 6245,11050 Z"/>
 <path fill="rgb(0,69,134)" stroke="none" d="M 6446,11041 L 6446,11241 6646,11241 6646,11041 6446,11041 Z"/>
 <path fill="none" stroke="rgb(0,69,134)" stroke-linejoin="round" d="M 6446,11041 L 6446,11241 6646,11241 6646,11041 6446,11041 Z"/>
 <path fill="rgb(0,69,134)" stroke="none" d="M 6648,11029 L 6648,11229 6848,11229 6848,11029 6648,11029 Z"/>
 <path fill="none" stroke="rgb(0,69,134)" stroke-linejoin="round" d="M 6648,11029 L 6648,11229 6848,11229 6848,11029 6648,11029 Z"/>
 <path fill="rgb(0,69,134)" stroke="none" d="M 6850,11012 L 6850,11212 7049,11212 7049,11012 6850,11012 Z"/>
 <path fill="none" stroke="rgb(0,69,134)" stroke-linejoin="round" d="M 6850,11012 L 6850,11212 7049,11212 7049,11012 6850,11012 Z"/>
 <path fill="rgb(0,69,134)" stroke="none" d="M 7050,11003 L 7050,11203 7250,11203 7250,11003 7050,11003 Z"/>
 <path fill="none" stroke="rgb(0,69,134)" stroke-linejoin="round" d="M 7050,11003 L 7050,11203 7250,11203 7250,11003 7050,11003 Z"/>
 <path fill="rgb(0,69,134)" stroke="none" d="M 7252,10969 L 7252,11169 7452,11169 7452,10969 7252,10969 Z"/>
 <path fill="none" stroke="rgb(0,69,134)" stroke-linejoin="round" d="M 7252,10969 L 7252,11169 7452,11169 7452,10969 7252,10969 Z"/>
 <path fill="rgb(0,69,134)" stroke="none" d="M 7453,10938 L 7453,11138 7653,11138 7653,10938 7453,10938 Z"/>
 <path fill="none" stroke="rgb(0,69,134)" stroke-linejoin="round" d="M 7453,10938 L 7453,11138 7653,11138 7653,10938 7453,10938 Z"/>
 <path fill="rgb(0,69,134)" stroke="none" d="M 7655,10899 L 7655,11099 7855,11099 7855,10899 7655,10899 Z"/>
 <path fill="none" stroke="rgb(0,69,134)" stroke-linejoin="round" d="M 7655,10899 L 7655,11099 7855,11099 7855,10899 7655,10899 Z"/>
 <path fill="rgb(0,69,134)" stroke="none" d="M 7857,10847 L 7857,11047 8056,11047 8056,10847 7857,10847 Z"/>
 <path fill="none" stroke="rgb(0,69,134)" stroke-linejoin="round" d="M 7857,10847 L 7857,11047 8056,11047 8056,10847 7857,10847 Z"/>
 <path fill="rgb(0,69,134)" stroke="none" d="M 8057,10785 L 8057,10985 8257,10985 8257,10785 8057,10785 Z"/>
 <path fill="none" stroke="rgb(0,69,134)" stroke-linejoin="round" d="M 8057,10785 L 8057,10985 8257,10985 8257,10785 8057,10785 Z"/>
 <path fill="rgb(0,69,134)" stroke="none" d="M 8259,10705 L 8259,10905 8459,10905 8459,10705 8259,10705 Z"/>
 <path fill="none" stroke="rgb(0,69,134)" stroke-linejoin="round" d="M 8259,10705 L 8259,10905 8459,10905 8459,10705 8259,10705 Z"/>
 <path fill="rgb(0,69,134)" stroke="none" d="M 8460,10635 L 8460,10835 8660,10835 8660,10635 8460,10635 Z"/>
 <path fill="none" stroke="rgb(0,69,134)" stroke-linejoin="round" d="M 8460,10635 L 8460,10835 8660,10835 8660,10635 8460,10635 Z"/>
 <path fill="rgb(0,69,134)" stroke="none" d="M 8662,10562 L 8662,10762 8862,10762 8862,10562 8662,10562 Z"/>
 <path fill="none" stroke="rgb(0,69,134)" stroke-linejoin="round" d="M 8662,10562 L 8662,10762 8862,10762 8862,10562 8662,10562 Z"/>
 <path fill="rgb(0,69,134)" stroke="none" d="M 8864,10421 L 8864,10621 9063,10621 9063,10421 8864,10421 Z"/>
 <path fill="none" stroke="rgb(0,69,134)" stroke-linejoin="round" d="M 8864,10421 L 8864,10621 9063,10621 9063,10421 8864,10421 Z"/>
 <path fill="rgb(0,69,134)" stroke="none" d="M 9064,10257 L 9064,10457 9264,10457 9264,10257 9064,10257 Z"/>
 <path fill="none" stroke="rgb(0,69,134)" stroke-linejoin="round" d="M 9064,10257 L 9064,10457 9264,10457 9264,10257 9064,10257 Z"/>
 <path fill="rgb(0,69,134)" stroke="none" d="M 9266,10102 L 9266,10302 9466,10302 9466,10102 9266,10102 Z"/>
 <path fill="none" stroke="rgb(0,69,134)" stroke-linejoin="round" d="M 9266,10102 L 9266,10302 9466,10302 9466,10102 9266,10102 Z"/>
 <path fill="rgb(0,69,134)" stroke="none" d="M 9467,9943 L 9467,10143 9667,10143 9667,9943 9467,9943 Z"/>
 <path fill="none" stroke="rgb(0,69,134)" stroke-linejoin="round" d="M 9467,9943 L 9467,10143 9667,10143 9667,9943 9467,9943 Z"/>
 <path fill="rgb(0,69,134)" stroke="none" d="M 9669,9787 L 9669,9987 9868,9987 9868,9787 9669,9787 Z"/>
 <path fill="none" stroke="rgb(0,69,134)" stroke-linejoin="round" d="M 9669,9787 L 9669,9987 9868,9987 9868,9787 9669,9787 Z"/>
 <path fill="rgb(0,69,134)" stroke="none" d="M 9870,9584 L 9870,9784 10070,9784 10070,9584 9870,9584 Z"/>
 <path fill="none" stroke="rgb(0,69,134)" stroke-linejoin="round" d="M 9870,9584 L 9870,9784 10070,9784 10070,9584 9870,9584 Z"/>
 <path fill="rgb(0,69,134)" stroke="none" d="M 10071,9483 L 10071,9683 10271,9683 10271,9483 10071,9483 Z"/>
 <path fill="none" stroke="rgb(0,69,134)" stroke-linejoin="round" d="M 10071,9483 L 10071,9683 10271,9683 10271,9483 10071,9483 Z"/>
 <path fill="rgb(0,69,134)" stroke="none" d="M 10273,9292 L 10273,9492 10473,9492 10473,9292 10273,9292 Z"/>
 <path fill="none" stroke="rgb(0,69,134)" stroke-linejoin="round" d="M 10273,9292 L 10273,9492 10473,9492 10473,9292 10273,9292 Z"/>
 <path fill="rgb(0,69,134)" stroke="none" d="M 10475,9012 L 10475,9212 10675,9212 10675,9012 10475,9012 Z"/>
 <path fill="none" stroke="rgb(0,69,134)" stroke-linejoin="round" d="M 10475,9012 L 10475,9212 10675,9212 10675,9012 10475,9012 Z"/>
 <path fill="rgb(0,69,134)" stroke="none" d="M 10676,8741 L 10676,8941 10875,8941 10875,8741 10676,8741 Z"/>
 <path fill="none" stroke="rgb(0,69,134)" stroke-linejoin="round" d="M 10676,8741 L 10676,8941 10875,8941 10875,8741 10676,8741 Z"/>
 <path fill="rgb(0,69,134)" stroke="none" d="M 10877,8448 L 10877,8648 11077,8648 11077,8448 10877,8448 Z"/>
 <path fill="none" stroke="rgb(0,69,134)" stroke-linejoin="round" d="M 10877,8448 L 10877,8648 11077,8648 11077,8448 10877,8448 Z"/>
 <path fill="rgb(0,69,134)" stroke="none" d="M 11078,8259 L 11078,8459 11278,8459 11278,8259 11078,8259 Z"/>
 <path fill="none" stroke="rgb(0,69,134)" stroke-linejoin="round" d="M 11078,8259 L 11078,8459 11278,8459 11278,8259 11078,8259 Z"/>
 <path fill="rgb(0,69,134)" stroke="none" d="M 11280,8117 L 11280,8317 11480,8317 11480,8117 11280,8117 Z"/>
 <path fill="none" stroke="rgb(0,69,134)" stroke-linejoin="round" d="M 11280,8117 L 11280,8317 11480,8317 11480,8117 11280,8117 Z"/>
 <path fill="rgb(0,69,134)" stroke="none" d="M 11482,7978 L 11482,8178 11682,8178 11682,7978 11482,7978 Z"/>
 <path fill="none" stroke="rgb(0,69,134)" stroke-linejoin="round" d="M 11482,7978 L 11482,8178 11682,8178 11682,7978 11482,7978 Z"/>
 <path fill="rgb(0,69,134)" stroke="none" d="M 11683,7791 L 11683,7991 11882,7991 11882,7791 11683,7791 Z"/>
 <path fill="none" stroke="rgb(0,69,134)" stroke-linejoin="round" d="M 11683,7791 L 11683,7991 11882,7991 11882,7791 11683,7791 Z"/>
 <path fill="rgb(0,69,134)" stroke="none" d="M 11884,7477 L 11884,7677 12084,7677 12084,7477 11884,7477 Z"/>
 <path fill="none" stroke="rgb(0,69,134)" stroke-linejoin="round" d="M 11884,7477 L 11884,7677 12084,7677 12084,7477 11884,7477 Z"/>
 <path fill="rgb(0,69,134)" stroke="none" d="M 12085,7130 L 12085,7330 12285,7330 12285,7130 12085,7130 Z"/>
 <path fill="none" stroke="rgb(0,69,134)" stroke-linejoin="round" d="M 12085,7130 L 12085,7330 12285,7330 12285,7130 12085,7130 Z"/>
 <path fill="rgb(0,69,134)" stroke="none" d="M 12287,6800 L 12287,7000 12487,7000 12487,6800 12287,6800 Z"/>
 <path fill="none" stroke="rgb(0,69,134)" stroke-linejoin="round" d="M 12287,6800 L 12287,7000 12487,7000 12487,6800 12287,6800 Z"/>
 <path fill="rgb(0,69,134)" stroke="none" d="M 12489,6533 L 12489,6733 12688,6733 12688,6533 12489,6533 Z"/>
 <path fill="none" stroke="rgb(0,69,134)" stroke-linejoin="round" d="M 12489,6533 L 12489,6733 12688,6733 12688,6533 12489,6533 Z"/>
 <path fill="rgb(0,69,134)" stroke="none" d="M 12689,6330 L 12689,6530 12889,6530 12889,6330 12689,6330 Z"/>
 <path fill="none" stroke="rgb(0,69,134)" stroke-linejoin="round" d="M 12689,6330 L 12689,6530 12889,6530 12889,6330 12689,6330 Z"/>
 <path fill="rgb(0,69,134)" stroke="none" d="M 12891,6209 L 12891,6409 13091,6409 13091,6209 12891,6209 Z"/>
 <path fill="none" stroke="rgb(0,69,134)" stroke-linejoin="round" d="M 12891,6209 L 12891,6409 13091,6409 13091,6209 12891,6209 Z"/>
 <path fill="rgb(0,69,134)" stroke="none" d="M 13092,5996 L 13092,6195 13292,6195 13292,5996 13092,5996 Z"/>
 <path fill="none" stroke="rgb(0,69,134)" stroke-linejoin="round" d="M 13092,5996 L 13092,6195 13292,6195 13292,5996 13092,5996 Z"/>
 <path fill="rgb(0,69,134)" stroke="none" d="M 13294,5687 L 13294,5887 13494,5887 13494,5687 13294,5687 Z"/>
 <path fill="none" stroke="rgb(0,69,134)" stroke-linejoin="round" d="M 13294,5687 L 13294,5887 13494,5887 13494,5687 13294,5687 Z"/>
 <path fill="rgb(0,69,134)" stroke="none" d="M 13496,5450 L 13496,5650 13695,5650 13695,5450 13496,5450 Z"/>
 <path fill="none" stroke="rgb(0,69,134)" stroke-linejoin="round" d="M 13496,5450 L 13496,5650 13695,5650 13695,5450 13496,5450 Z"/>
 <path fill="rgb(0,69,134)" stroke="none" d="M 13696,5199 L 13696,5399 13896,5399 13896,5199 13696,5199 Z"/>
 <path fill="none" stroke="rgb(0,69,134)" stroke-linejoin="round" d="M 13696,5199 L 13696,5399 13896,5399 13896,5199 13696,5199 Z"/>
 <path fill="rgb(0,69,134)" stroke="none" d="M 13898,5002 L 13898,5202 14098,5202 14098,5002 13898,5002 Z"/>
 <path fill="none" stroke="rgb(0,69,134)" stroke-linejoin="round" d="M 13898,5002 L 13898,5202 14098,5202 14098,5002 13898,5002 Z"/>
 <path fill="rgb(0,69,134)" stroke="none" d="M 14099,4848 L 14099,5048 14299,5048 14299,4848 14099,4848 Z"/>
 <path fill="none" stroke="rgb(0,69,134)" stroke-linejoin="round" d="M 14099,4848 L 14099,5048 14299,5048 14299,4848 14099,4848 Z"/>
 <path fill="rgb(0,69,134)" stroke="none" d="M 14301,4727 L 14301,4927 14501,4927 14501,4727 14301,4727 Z"/>
 <path fill="none" stroke="rgb(0,69,134)" stroke-linejoin="round" d="M 14301,4727 L 14301,4927 14501,4927 14501,4727 14301,4727 Z"/>
 <path fill="rgb(0,69,134)" stroke="none" d="M 14503,4547 L 14503,4747 14702,4747 14702,4547 14503,4547 Z"/>
 <path fill="none" stroke="rgb(0,69,134)" stroke-linejoin="round" d="M 14503,4547 L 14503,4747 14702,4747 14702,4547 14503,4547 Z"/>
 <path fill="none" stroke="rgb(255,66,14)" stroke-width="50" stroke-linejoin="round" d="M 5137,11152 L 5338,11152 5539,11152 5741,11152 5943,11129 6143,11129 6345,11117 6546,11094 6748,11094 6950,11071 7150,10978 7352,10920 7553,10839 7755,10804 7957,10595 8157,10491 8359,10375 8560,10166 8762,9911 8963,9679 9164,9470 9366,9331 9567,9215 9769,9006 9970,8797 10171,8611 10373,8345 10575,7997 10776,7741 10977,7463 11178,7254 11380,7103 11582,6895 11782,6709 11984,6605 12185,6407 12387,6164 12589,6025 12789,5921 12991,5712 13192,5469 13394,5248 13595,5109 13796,5016 13998,4947 14199,4877 14401,4796 14602,4564"/>
 <path fill="rgb(255,66,14)" stroke="none" d="M 5037,11152 L 5137,11252 5236,11152 5137,11052 5037,11152 Z"/>
 <path fill="none" stroke="rgb(255,66,14)" stroke-linejoin="round" d="M 5037,11152 L 5137,11252 5236,11152 5137,11052 5037,11152 Z"/>
 <path fill="rgb(255,66,14)" stroke="none" d="M 5238,11152 L 5338,11252 5438,11152 5338,11052 5238,11152 Z"/>
 <path fill="none" stroke="rgb(255,66,14)" stroke-linejoin="round" d="M 5238,11152 L 5338,11252 5438,11152 5338,11052 5238,11152 Z"/>
 <path fill="rgb(255,66,14)" stroke="none" d="M 5439,11152 L 5539,11252 5639,11152 5539,11052 5439,11152 Z"/>
 <path fill="none" stroke="rgb(255,66,14)" stroke-linejoin="round" d="M 5439,11152 L 5539,11252 5639,11152 5539,11052 5439,11152 Z"/>
 <path fill="rgb(255,66,14)" stroke="none" d="M 5641,11152 L 5741,11252 5841,11152 5741,11052 5641,11152 Z"/>
 <path fill="none" stroke="rgb(255,66,14)" stroke-linejoin="round" d="M 5641,11152 L 5741,11252 5841,11152 5741,11052 5641,11152 Z"/>
 <path fill="rgb(255,66,14)" stroke="none" d="M 5843,11129 L 5943,11229 6043,11129 5943,11029 5843,11129 Z"/>
 <path fill="none" stroke="rgb(255,66,14)" stroke-linejoin="round" d="M 5843,11129 L 5943,11229 6043,11129 5943,11029 5843,11129 Z"/>
 <path fill="rgb(255,66,14)" stroke="none" d="M 6044,11129 L 6143,11229 6243,11129 6143,11029 6044,11129 Z"/>
 <path fill="none" stroke="rgb(255,66,14)" stroke-linejoin="round" d="M 6044,11129 L 6143,11229 6243,11129 6143,11029 6044,11129 Z"/>
 <path fill="rgb(255,66,14)" stroke="none" d="M 6245,11117 L 6345,11217 6445,11117 6345,11017 6245,11117 Z"/>
 <path fill="none" stroke="rgb(255,66,14)" stroke-linejoin="round" d="M 6245,11117 L 6345,11217 6445,11117 6345,11017 6245,11117 Z"/>
 <path fill="rgb(255,66,14)" stroke="none" d="M 6446,11094 L 6546,11194 6646,11094 6546,10994 6446,11094 Z"/>
 <path fill="none" stroke="rgb(255,66,14)" stroke-linejoin="round" d="M 6446,11094 L 6546,11194 6646,11094 6546,10994 6446,11094 Z"/>
 <path fill="rgb(255,66,14)" stroke="none" d="M 6648,11094 L 6748,11194 6848,11094 6748,10994 6648,11094 Z"/>
 <path fill="none" stroke="rgb(255,66,14)" stroke-linejoin="round" d="M 6648,11094 L 6748,11194 6848,11094 6748,10994 6648,11094 Z"/>
 <path fill="rgb(255,66,14)" stroke="none" d="M 6850,11071 L 6950,11171 7049,11071 6950,10971 6850,11071 Z"/>
 <path fill="none" stroke="rgb(255,66,14)" stroke-linejoin="round" d="M 6850,11071 L 6950,11171 7049,11071 6950,10971 6850,11071 Z"/>
 <path fill="rgb(255,66,14)" stroke="none" d="M 7050,10978 L 7150,11078 7250,10978 7150,10878 7050,10978 Z"/>
 <path fill="none" stroke="rgb(255,66,14)" stroke-linejoin="round" d="M 7050,10978 L 7150,11078 7250,10978 7150,10878 7050,10978 Z"/>
 <path fill="rgb(255,66,14)" stroke="none" d="M 7252,10920 L 7352,11020 7452,10920 7352,10820 7252,10920 Z"/>
 <path fill="none" stroke="rgb(255,66,14)" stroke-linejoin="round" d="M 7252,10920 L 7352,11020 7452,10920 7352,10820 7252,10920 Z"/>
 <path fill="rgb(255,66,14)" stroke="none" d="M 7453,10839 L 7553,10939 7653,10839 7553,10739 7453,10839 Z"/>
 <path fill="none" stroke="rgb(255,66,14)" stroke-linejoin="round" d="M 7453,10839 L 7553,10939 7653,10839 7553,10739 7453,10839 Z"/>
 <path fill="rgb(255,66,14)" stroke="none" d="M 7655,10804 L 7755,10904 7855,10804 7755,10704 7655,10804 Z"/>
 <path fill="none" stroke="rgb(255,66,14)" stroke-linejoin="round" d="M 7655,10804 L 7755,10904 7855,10804 7755,10704 7655,10804 Z"/>
 <path fill="rgb(255,66,14)" stroke="none" d="M 7857,10595 L 7957,10695 8056,10595 7957,10495 7857,10595 Z"/>
 <path fill="none" stroke="rgb(255,66,14)" stroke-linejoin="round" d="M 7857,10595 L 7957,10695 8056,10595 7957,10495 7857,10595 Z"/>
 <path fill="rgb(255,66,14)" stroke="none" d="M 8057,10491 L 8157,10591 8257,10491 8157,10391 8057,10491 Z"/>
 <path fill="none" stroke="rgb(255,66,14)" stroke-linejoin="round" d="M 8057,10491 L 8157,10591 8257,10491 8157,10391 8057,10491 Z"/>
 <path fill="rgb(255,66,14)" stroke="none" d="M 8259,10375 L 8359,10475 8459,10375 8359,10275 8259,10375 Z"/>
 <path fill="none" stroke="rgb(255,66,14)" stroke-linejoin="round" d="M 8259,10375 L 8359,10475 8459,10375 8359,10275 8259,10375 Z"/>
 <path fill="rgb(255,66,14)" stroke="none" d="M 8460,10166 L 8560,10266 8660,10166 8560,10066 8460,10166 Z"/>
 <path fill="none" stroke="rgb(255,66,14)" stroke-linejoin="round" d="M 8460,10166 L 8560,10266 8660,10166 8560,10066 8460,10166 Z"/>
 <path fill="rgb(255,66,14)" stroke="none" d="M 8662,9911 L 8762,10011 8862,9911 8762,9811 8662,9911 Z"/>
 <path fill="none" stroke="rgb(255,66,14)" stroke-linejoin="round" d="M 8662,9911 L 8762,10011 8862,9911 8762,9811 8662,9911 Z"/>
 <path fill="rgb(255,66,14)" stroke="none" d="M 8864,9679 L 8963,9779 9063,9679 8963,9579 8864,9679 Z"/>
 <path fill="none" stroke="rgb(255,66,14)" stroke-linejoin="round" d="M 8864,9679 L 8963,9779 9063,9679 8963,9579 8864,9679 Z"/>
 <path fill="rgb(255,66,14)" stroke="none" d="M 9064,9470 L 9164,9570 9264,9470 9164,9370 9064,9470 Z"/>
 <path fill="none" stroke="rgb(255,66,14)" stroke-linejoin="round" d="M 9064,9470 L 9164,9570 9264,9470 9164,9370 9064,9470 Z"/>
 <path fill="rgb(255,66,14)" stroke="none" d="M 9266,9331 L 9366,9431 9466,9331 9366,9231 9266,9331 Z"/>
 <path fill="none" stroke="rgb(255,66,14)" stroke-linejoin="round" d="M 9266,9331 L 9366,9431 9466,9331 9366,9231 9266,9331 Z"/>
 <path fill="rgb(255,66,14)" stroke="none" d="M 9467,9215 L 9567,9315 9667,9215 9567,9115 9467,9215 Z"/>
 <path fill="none" stroke="rgb(255,66,14)" stroke-linejoin="round" d="M 9467,9215 L 9567,9315 9667,9215 9567,9115 9467,9215 Z"/>
 <path fill="rgb(255,66,14)" stroke="none" d="M 9669,9006 L 9769,9106 9868,9006 9769,8906 9669,9006 Z"/>
 <path fill="none" stroke="rgb(255,66,14)" stroke-linejoin="round" d="M 9669,9006 L 9769,9106 9868,9006 9769,8906 9669,9006 Z"/>
 <path fill="rgb(255,66,14)" stroke="none" d="M 9870,8797 L 9970,8897 10070,8797 9970,8697 9870,8797 Z"/>
 <path fill="none" stroke="rgb(255,66,14)" stroke-linejoin="round" d="M 9870,8797 L 9970,8897 10070,8797 9970,8697 9870,8797 Z"/>
 <path fill="rgb(255,66,14)" stroke="none" d="M 10071,8611 L 10171,8711 10271,8611 10171,8511 10071,8611 Z"/>
 <path fill="none" stroke="rgb(255,66,14)" stroke-linejoin="round" d="M 10071,8611 L 10171,8711 10271,8611 10171,8511 10071,8611 Z"/>
 <path fill="rgb(255,66,14)" stroke="none" d="M 10273,8345 L 10373,8445 10473,8345 10373,8245 10273,8345 Z"/>
 <path fill="none" stroke="rgb(255,66,14)" stroke-linejoin="round" d="M 10273,8345 L 10373,8445 10473,8345 10373,8245 10273,8345 Z"/>
 <path fill="rgb(255,66,14)" stroke="none" d="M 10475,7997 L 10575,8097 10675,7997 10575,7897 10475,7997 Z"/>
 <path fill="none" stroke="rgb(255,66,14)" stroke-linejoin="round" d="M 10475,7997 L 10575,8097 10675,7997 10575,7897 10475,7997 Z"/>
 <path fill="rgb(255,66,14)" stroke="none" d="M 10676,7741 L 10776,7841 10875,7741 10776,7641 10676,7741 Z"/>
 <path fill="none" stroke="rgb(255,66,14)" stroke-linejoin="round" d="M 10676,7741 L 10776,7841 10875,7741 10776,7641 10676,7741 Z"/>
 <path fill="rgb(255,66,14)" stroke="none" d="M 10877,7463 L 10977,7563 11077,7463 10977,7363 10877,7463 Z"/>
 <path fill="none" stroke="rgb(255,66,14)" stroke-linejoin="round" d="M 10877,7463 L 10977,7563 11077,7463 10977,7363 10877,7463 Z"/>
 <path fill="rgb(255,66,14)" stroke="none" d="M 11078,7254 L 11178,7354 11278,7254 11178,7154 11078,7254 Z"/>
 <path fill="none" stroke="rgb(255,66,14)" stroke-linejoin="round" d="M 11078,7254 L 11178,7354 11278,7254 11178,7154 11078,7254 Z"/>
 <path fill="rgb(255,66,14)" stroke="none" d="M 11280,7103 L 11380,7203 11480,7103 11380,7003 11280,7103 Z"/>
 <path fill="none" stroke="rgb(255,66,14)" stroke-linejoin="round" d="M 11280,7103 L 11380,7203 11480,7103 11380,7003 11280,7103 Z"/>
 <path fill="rgb(255,66,14)" stroke="none" d="M 11482,6895 L 11582,6995 11682,6895 11582,6795 11482,6895 Z"/>
 <path fill="none" stroke="rgb(255,66,14)" stroke-linejoin="round" d="M 11482,6895 L 11582,6995 11682,6895 11582,6795 11482,6895 Z"/>
 <path fill="rgb(255,66,14)" stroke="none" d="M 11683,6709 L 11782,6809 11882,6709 11782,6609 11683,6709 Z"/>
 <path fill="none" stroke="rgb(255,66,14)" stroke-linejoin="round" d="M 11683,6709 L 11782,6809 11882,6709 11782,6609 11683,6709 Z"/>
 <path fill="rgb(255,66,14)" stroke="none" d="M 11884,6605 L 11984,6705 12084,6605 11984,6505 11884,6605 Z"/>
 <path fill="none" stroke="rgb(255,66,14)" stroke-linejoin="round" d="M 11884,6605 L 11984,6705 12084,6605 11984,6505 11884,6605 Z"/>
 <path fill="rgb(255,66,14)" stroke="none" d="M 12085,6407 L 12185,6507 12285,6407 12185,6307 12085,6407 Z"/>
 <path fill="none" stroke="rgb(255,66,14)" stroke-linejoin="round" d="M 12085,6407 L 12185,6507 12285,6407 12185,6307 12085,6407 Z"/>
 <path fill="rgb(255,66,14)" stroke="none" d="M 12287,6164 L 12387,6264 12487,6164 12387,6064 12287,6164 Z"/>
 <path fill="none" stroke="rgb(255,66,14)" stroke-linejoin="round" d="M 12287,6164 L 12387,6264 12487,6164 12387,6064 12287,6164 Z"/>
 <path fill="rgb(255,66,14)" stroke="none" d="M 12489,6025 L 12589,6125 12688,6025 12589,5926 12489,6025 Z"/>
 <path fill="none" stroke="rgb(255,66,14)" stroke-linejoin="round" d="M 12489,6025 L 12589,6125 12688,6025 12589,5926 12489,6025 Z"/>
 <path fill="rgb(255,66,14)" stroke="none" d="M 12689,5921 L 12789,6020 12889,5921 12789,5821 12689,5921 Z"/>
 <path fill="none" stroke="rgb(255,66,14)" stroke-linejoin="round" d="M 12689,5921 L 12789,6020 12889,5921 12789,5821 12689,5921 Z"/>
 <path fill="rgb(255,66,14)" stroke="none" d="M 12891,5712 L 12991,5812 13091,5712 12991,5612 12891,5712 Z"/>
 <path fill="none" stroke="rgb(255,66,14)" stroke-linejoin="round" d="M 12891,5712 L 12991,5812 13091,5712 12991,5612 12891,5712 Z"/>
 <path fill="rgb(255,66,14)" stroke="none" d="M 13092,5469 L 13192,5569 13292,5469 13192,5369 13092,5469 Z"/>
 <path fill="none" stroke="rgb(255,66,14)" stroke-linejoin="round" d="M 13092,5469 L 13192,5569 13292,5469 13192,5369 13092,5469 Z"/>
 <path fill="rgb(255,66,14)" stroke="none" d="M 13294,5248 L 13394,5348 13494,5248 13394,5148 13294,5248 Z"/>
 <path fill="none" stroke="rgb(255,66,14)" stroke-linejoin="round" d="M 13294,5248 L 13394,5348 13494,5248 13394,5148 13294,5248 Z"/>
 <path fill="rgb(255,66,14)" stroke="none" d="M 13496,5109 L 13595,5209 13695,5109 13595,5009 13496,5109 Z"/>
 <path fill="none" stroke="rgb(255,66,14)" stroke-linejoin="round" d="M 13496,5109 L 13595,5209 13695,5109 13595,5009 13496,5109 Z"/>
 <path fill="rgb(255,66,14)" stroke="none" d="M 13696,5016 L 13796,5116 13896,5016 13796,4916 13696,5016 Z"/>
 <path fill="none" stroke="rgb(255,66,14)" stroke-linejoin="round" d="M 13696,5016 L 13796,5116 13896,5016 13796,4916 13696,5016 Z"/>
 <path fill="rgb(255,66,14)" stroke="none" d="M 13898,4947 L 13998,5047 14098,4947 13998,4847 13898,4947 Z"/>
 <path fill="none" stroke="rgb(255,66,14)" stroke-linejoin="round" d="M 13898,4947 L 13998,5047 14098,4947 13998,4847 13898,4947 Z"/>
 <path fill="rgb(255,66,14)" stroke="none" d="M 14099,4877 L 14199,4977 14299,4877 14199,4777 14099,4877 Z"/>
 <path fill="none" stroke="rgb(255,66,14)" stroke-linejoin="round" d="M 14099,4877 L 14199,4977 14299,4877 14199,4777 14099,4877 Z"/>
 <path fill="rgb(255,66,14)" stroke="none" d="M 14301,4796 L 14401,4896 14501,4796 14401,4696 14301,4796 Z"/>
 <path fill="none" stroke="rgb(255,66,14)" stroke-linejoin="round" d="M 14301,4796 L 14401,4896 14501,4796 14401,4696 14301,4796 Z"/>
 <path fill="rgb(255,66,14)" stroke="none" d="M 14503,4564 L 14602,4664 14702,4564 14602,4464 14503,4564 Z"/>
 <path fill="none" stroke="rgb(255,66,14)" stroke-linejoin="round" d="M 14503,4564 L 14602,4664 14702,4564 14602,4464 14503,4564 Z"/>
 <path fill="none" stroke="rgb(255,211,32)" stroke-width="50" stroke-linejoin="round" d="M 5137,11146 L 5338,11146 5539,11128 5741,11093 5943,11076 6143,11058 6345,11005 6546,10917 6748,10847 6950,10794 7150,10742 7352,10742 7553,10601 7755,10566 7957,10443 8157,10250 8359,10021 8560,9898 8762,9810 8963,9582 9164,9336 9366,9002 9567,8720 9769,8334 9970,8017 10171,7877 10373,7595 10575,7332 10776,6998 10977,6822 11178,6594 11380,6365 11582,6154 11782,5909 11984,5733 12185,5522 12387,5259 12589,5083 12789,4925 12991,4767 13192,4661 13394,4415 13595,4239 13796,4081 13998,3817 14199,3747 14401,3659 14602,3536"/>
 <path fill="rgb(255,211,32)" stroke="none" d="M 5037,11046 L 5137,11246 5236,11046 5037,11046 Z"/>
 <path fill="none" stroke="rgb(255,211,32)" stroke-linejoin="round" d="M 5037,11046 L 5137,11246 5236,11046 5037,11046 Z"/>
 <path fill="rgb(255,211,32)" stroke="none" d="M 5238,11046 L 5338,11246 5438,11046 5238,11046 Z"/>
 <path fill="none" stroke="rgb(255,211,32)" stroke-linejoin="round" d="M 5238,11046 L 5338,11246 5438,11046 5238,11046 Z"/>
 <path fill="rgb(255,211,32)" stroke="none" d="M 5439,11028 L 5539,11228 5639,11028 5439,11028 Z"/>
 <path fill="none" stroke="rgb(255,211,32)" stroke-linejoin="round" d="M 5439,11028 L 5539,11228 5639,11028 5439,11028 Z"/>
 <path fill="rgb(255,211,32)" stroke="none" d="M 5641,10993 L 5741,11193 5841,10993 5641,10993 Z"/>
 <path fill="none" stroke="rgb(255,211,32)" stroke-linejoin="round" d="M 5641,10993 L 5741,11193 5841,10993 5641,10993 Z"/>
 <path fill="rgb(255,211,32)" stroke="none" d="M 5843,10976 L 5943,11176 6043,10976 5843,10976 Z"/>
 <path fill="none" stroke="rgb(255,211,32)" stroke-linejoin="round" d="M 5843,10976 L 5943,11176 6043,10976 5843,10976 Z"/>
 <path fill="rgb(255,211,32)" stroke="none" d="M 6044,10958 L 6143,11158 6243,10958 6044,10958 Z"/>
 <path fill="none" stroke="rgb(255,211,32)" stroke-linejoin="round" d="M 6044,10958 L 6143,11158 6243,10958 6044,10958 Z"/>
 <path fill="rgb(255,211,32)" stroke="none" d="M 6245,10905 L 6345,11105 6445,10905 6245,10905 Z"/>
 <path fill="none" stroke="rgb(255,211,32)" stroke-linejoin="round" d="M 6245,10905 L 6345,11105 6445,10905 6245,10905 Z"/>
 <path fill="rgb(255,211,32)" stroke="none" d="M 6446,10817 L 6546,11017 6646,10817 6446,10817 Z"/>
 <path fill="none" stroke="rgb(255,211,32)" stroke-linejoin="round" d="M 6446,10817 L 6546,11017 6646,10817 6446,10817 Z"/>
 <path fill="rgb(255,211,32)" stroke="none" d="M 6648,10747 L 6748,10947 6848,10747 6648,10747 Z"/>
 <path fill="none" stroke="rgb(255,211,32)" stroke-linejoin="round" d="M 6648,10747 L 6748,10947 6848,10747 6648,10747 Z"/>
 <path fill="rgb(255,211,32)" stroke="none" d="M 6850,10694 L 6950,10894 7049,10694 6850,10694 Z"/>
 <path fill="none" stroke="rgb(255,211,32)" stroke-linejoin="round" d="M 6850,10694 L 6950,10894 7049,10694 6850,10694 Z"/>
 <path fill="rgb(255,211,32)" stroke="none" d="M 7050,10642 L 7150,10842 7250,10642 7050,10642 Z"/>
 <path fill="none" stroke="rgb(255,211,32)" stroke-linejoin="round" d="M 7050,10642 L 7150,10842 7250,10642 7050,10642 Z"/>
 <path fill="rgb(255,211,32)" stroke="none" d="M 7252,10642 L 7352,10842 7452,10642 7252,10642 Z"/>
 <path fill="none" stroke="rgb(255,211,32)" stroke-linejoin="round" d="M 7252,10642 L 7352,10842 7452,10642 7252,10642 Z"/>
 <path fill="rgb(255,211,32)" stroke="none" d="M 7453,10501 L 7553,10701 7653,10501 7453,10501 Z"/>
 <path fill="none" stroke="rgb(255,211,32)" stroke-linejoin="round" d="M 7453,10501 L 7553,10701 7653,10501 7453,10501 Z"/>
 <path fill="rgb(255,211,32)" stroke="none" d="M 7655,10466 L 7755,10666 7855,10466 7655,10466 Z"/>
 <path fill="none" stroke="rgb(255,211,32)" stroke-linejoin="round" d="M 7655,10466 L 7755,10666 7855,10466 7655,10466 Z"/>
 <path fill="rgb(255,211,32)" stroke="none" d="M 7857,10343 L 7957,10543 8056,10343 7857,10343 Z"/>
 <path fill="none" stroke="rgb(255,211,32)" stroke-linejoin="round" d="M 7857,10343 L 7957,10543 8056,10343 7857,10343 Z"/>
 <path fill="rgb(255,211,32)" stroke="none" d="M 8057,10150 L 8157,10350 8257,10150 8057,10150 Z"/>
 <path fill="none" stroke="rgb(255,211,32)" stroke-linejoin="round" d="M 8057,10150 L 8157,10350 8257,10150 8057,10150 Z"/>
 <path fill="rgb(255,211,32)" stroke="none" d="M 8259,9921 L 8359,10121 8459,9921 8259,9921 Z"/>
 <path fill="none" stroke="rgb(255,211,32)" stroke-linejoin="round" d="M 8259,9921 L 8359,10121 8459,9921 8259,9921 Z"/>
 <path fill="rgb(255,211,32)" stroke="none" d="M 8460,9798 L 8560,9998 8660,9798 8460,9798 Z"/>
 <path fill="none" stroke="rgb(255,211,32)" stroke-linejoin="round" d="M 8460,9798 L 8560,9998 8660,9798 8460,9798 Z"/>
 <path fill="rgb(255,211,32)" stroke="none" d="M 8662,9710 L 8762,9910 8862,9710 8662,9710 Z"/>
 <path fill="none" stroke="rgb(255,211,32)" stroke-linejoin="round" d="M 8662,9710 L 8762,9910 8862,9710 8662,9710 Z"/>
 <path fill="rgb(255,211,32)" stroke="none" d="M 8864,9482 L 8963,9682 9063,9482 8864,9482 Z"/>
 <path fill="none" stroke="rgb(255,211,32)" stroke-linejoin="round" d="M 8864,9482 L 8963,9682 9063,9482 8864,9482 Z"/>
 <path fill="rgb(255,211,32)" stroke="none" d="M 9064,9236 L 9164,9436 9264,9236 9064,9236 Z"/>
 <path fill="none" stroke="rgb(255,211,32)" stroke-linejoin="round" d="M 9064,9236 L 9164,9436 9264,9236 9064,9236 Z"/>
 <path fill="rgb(255,211,32)" stroke="none" d="M 9266,8902 L 9366,9102 9466,8902 9266,8902 Z"/>
 <path fill="none" stroke="rgb(255,211,32)" stroke-linejoin="round" d="M 9266,8902 L 9366,9102 9466,8902 9266,8902 Z"/>
 <path fill="rgb(255,211,32)" stroke="none" d="M 9467,8620 L 9567,8820 9667,8620 9467,8620 Z"/>
 <path fill="none" stroke="rgb(255,211,32)" stroke-linejoin="round" d="M 9467,8620 L 9567,8820 9667,8620 9467,8620 Z"/>
 <path fill="rgb(255,211,32)" stroke="none" d="M 9669,8234 L 9769,8434 9868,8234 9669,8234 Z"/>
 <path fill="none" stroke="rgb(255,211,32)" stroke-linejoin="round" d="M 9669,8234 L 9769,8434 9868,8234 9669,8234 Z"/>
 <path fill="rgb(255,211,32)" stroke="none" d="M 9870,7917 L 9970,8117 10070,7917 9870,7917 Z"/>
 <path fill="none" stroke="rgb(255,211,32)" stroke-linejoin="round" d="M 9870,7917 L 9970,8117 10070,7917 9870,7917 Z"/>
 <path fill="rgb(255,211,32)" stroke="none" d="M 10071,7777 L 10171,7977 10271,7777 10071,7777 Z"/>
 <path fill="none" stroke="rgb(255,211,32)" stroke-linejoin="round" d="M 10071,7777 L 10171,7977 10271,7777 10071,7777 Z"/>
 <path fill="rgb(255,211,32)" stroke="none" d="M 10273,7495 L 10373,7695 10473,7495 10273,7495 Z"/>
 <path fill="none" stroke="rgb(255,211,32)" stroke-linejoin="round" d="M 10273,7495 L 10373,7695 10473,7495 10273,7495 Z"/>
 <path fill="rgb(255,211,32)" stroke="none" d="M 10475,7232 L 10575,7432 10675,7232 10475,7232 Z"/>
 <path fill="none" stroke="rgb(255,211,32)" stroke-linejoin="round" d="M 10475,7232 L 10575,7432 10675,7232 10475,7232 Z"/>
 <path fill="rgb(255,211,32)" stroke="none" d="M 10676,6898 L 10776,7098 10875,6898 10676,6898 Z"/>
 <path fill="none" stroke="rgb(255,211,32)" stroke-linejoin="round" d="M 10676,6898 L 10776,7098 10875,6898 10676,6898 Z"/>
 <path fill="rgb(255,211,32)" stroke="none" d="M 10877,6722 L 10977,6922 11077,6722 10877,6722 Z"/>
 <path fill="none" stroke="rgb(255,211,32)" stroke-linejoin="round" d="M 10877,6722 L 10977,6922 11077,6722 10877,6722 Z"/>
 <path fill="rgb(255,211,32)" stroke="none" d="M 11078,6494 L 11178,6694 11278,6494 11078,6494 Z"/>
 <path fill="none" stroke="rgb(255,211,32)" stroke-linejoin="round" d="M 11078,6494 L 11178,6694 11278,6494 11078,6494 Z"/>
 <path fill="rgb(255,211,32)" stroke="none" d="M 11280,6265 L 11380,6465 11480,6265 11280,6265 Z"/>
 <path fill="none" stroke="rgb(255,211,32)" stroke-linejoin="round" d="M 11280,6265 L 11380,6465 11480,6265 11280,6265 Z"/>
 <path fill="rgb(255,211,32)" stroke="none" d="M 11482,6054 L 11582,6254 11682,6054 11482,6054 Z"/>
 <path fill="none" stroke="rgb(255,211,32)" stroke-linejoin="round" d="M 11482,6054 L 11582,6254 11682,6054 11482,6054 Z"/>
 <path fill="rgb(255,211,32)" stroke="none" d="M 11683,5809 L 11782,6008 11882,5809 11683,5809 Z"/>
 <path fill="none" stroke="rgb(255,211,32)" stroke-linejoin="round" d="M 11683,5809 L 11782,6008 11882,5809 11683,5809 Z"/>
 <path fill="rgb(255,211,32)" stroke="none" d="M 11884,5633 L 11984,5833 12084,5633 11884,5633 Z"/>
 <path fill="none" stroke="rgb(255,211,32)" stroke-linejoin="round" d="M 11884,5633 L 11984,5833 12084,5633 11884,5633 Z"/>
 <path fill="rgb(255,211,32)" stroke="none" d="M 12085,5422 L 12185,5622 12285,5422 12085,5422 Z"/>
 <path fill="none" stroke="rgb(255,211,32)" stroke-linejoin="round" d="M 12085,5422 L 12185,5622 12285,5422 12085,5422 Z"/>
 <path fill="rgb(255,211,32)" stroke="none" d="M 12287,5159 L 12387,5359 12487,5159 12287,5159 Z"/>
 <path fill="none" stroke="rgb(255,211,32)" stroke-linejoin="round" d="M 12287,5159 L 12387,5359 12487,5159 12287,5159 Z"/>
 <path fill="rgb(255,211,32)" stroke="none" d="M 12489,4983 L 12589,5183 12688,4983 12489,4983 Z"/>
 <path fill="none" stroke="rgb(255,211,32)" stroke-linejoin="round" d="M 12489,4983 L 12589,5183 12688,4983 12489,4983 Z"/>
 <path fill="rgb(255,211,32)" stroke="none" d="M 12689,4825 L 12789,5025 12889,4825 12689,4825 Z"/>
 <path fill="none" stroke="rgb(255,211,32)" stroke-linejoin="round" d="M 12689,4825 L 12789,5025 12889,4825 12689,4825 Z"/>
 <path fill="rgb(255,211,32)" stroke="none" d="M 12891,4667 L 12991,4867 13091,4667 12891,4667 Z"/>
 <path fill="none" stroke="rgb(255,211,32)" stroke-linejoin="round" d="M 12891,4667 L 12991,4867 13091,4667 12891,4667 Z"/>
 <path fill="rgb(255,211,32)" stroke="none" d="M 13092,4561 L 13192,4761 13292,4561 13092,4561 Z"/>
 <path fill="none" stroke="rgb(255,211,32)" stroke-linejoin="round" d="M 13092,4561 L 13192,4761 13292,4561 13092,4561 Z"/>
 <path fill="rgb(255,211,32)" stroke="none" d="M 13294,4315 L 13394,4515 13494,4315 13294,4315 Z"/>
 <path fill="none" stroke="rgb(255,211,32)" stroke-linejoin="round" d="M 13294,4315 L 13394,4515 13494,4315 13294,4315 Z"/>
 <path fill="rgb(255,211,32)" stroke="none" d="M 13496,4139 L 13595,4339 13695,4139 13496,4139 Z"/>
 <path fill="none" stroke="rgb(255,211,32)" stroke-linejoin="round" d="M 13496,4139 L 13595,4339 13695,4139 13496,4139 Z"/>
 <path fill="rgb(255,211,32)" stroke="none" d="M 13696,3981 L 13796,4181 13896,3981 13696,3981 Z"/>
 <path fill="none" stroke="rgb(255,211,32)" stroke-linejoin="round" d="M 13696,3981 L 13796,4181 13896,3981 13696,3981 Z"/>
 <path fill="rgb(255,211,32)" stroke="none" d="M 13898,3717 L 13998,3917 14098,3717 13898,3717 Z"/>
 <path fill="none" stroke="rgb(255,211,32)" stroke-linejoin="round" d="M 13898,3717 L 13998,3917 14098,3717 13898,3717 Z"/>
 <path fill="rgb(255,211,32)" stroke="none" d="M 14099,3647 L 14199,3847 14299,3647 14099,3647 Z"/>
 <path fill="none" stroke="rgb(255,211,32)" stroke-linejoin="round" d="M 14099,3647 L 14199,3847 14299,3647 14099,3647 Z"/>
 <path fill="rgb(255,211,32)" stroke="none" d="M 14301,3559 L 14401,3759 14501,3559 14301,3559 Z"/>
 <path fill="none" stroke="rgb(255,211,32)" stroke-linejoin="round" d="M 14301,3559 L 14401,3759 14501,3559 14301,3559 Z"/>
 <path fill="rgb(255,211,32)" stroke="none" d="M 14503,3436 L 14602,3636 14702,3436 14503,3436 Z"/>
 <path fill="none" stroke="rgb(255,211,32)" stroke-linejoin="round" d="M 14503,3436 L 14602,3636 14702,3436 14503,3436 Z"/>
 <path fill="none" stroke="rgb(87,157,28)" stroke-width="50" stroke-linejoin="round" d="M 5137,11142 L 5338,11142 5539,11098 5741,11098 5943,11098 6143,11098 6345,11032 6546,11032 6748,11011 6950,11011 7150,11011 7352,11011 7553,10945 7755,10901 7957,10858 8157,10814 8359,10727 8560,10683 8762,10574 8963,10552 9164,10465 9366,10246 9567,10202 9769,10071 9970,9897 10171,9875 10373,9656 10575,9416 10776,9241 10977,9154 11178,9023 11380,8914 11582,8674 11782,8390 11984,8324 12185,8193 12387,8171 12589,7931 12789,7800 12991,7800 13192,7603 13394,7472 13595,7232 13796,6992 13998,6948 14199,6948 14401,6948 14602,6904"/>
 <path fill="rgb(87,157,28)" stroke="none" d="M 5037,11242 L 5236,11242 5137,11042 5037,11242 Z"/>
 <path fill="none" stroke="rgb(87,157,28)" stroke-linejoin="round" d="M 5037,11242 L 5236,11242 5137,11042 5037,11242 Z"/>
 <path fill="rgb(87,157,28)" stroke="none" d="M 5238,11242 L 5438,11242 5338,11042 5238,11242 Z"/>
 <path fill="none" stroke="rgb(87,157,28)" stroke-linejoin="round" d="M 5238,11242 L 5438,11242 5338,11042 5238,11242 Z"/>
 <path fill="rgb(87,157,28)" stroke="none" d="M 5439,11198 L 5639,11198 5539,10998 5439,11198 Z"/>
 <path fill="none" stroke="rgb(87,157,28)" stroke-linejoin="round" d="M 5439,11198 L 5639,11198 5539,10998 5439,11198 Z"/>
 <path fill="rgb(87,157,28)" stroke="none" d="M 5641,11198 L 5841,11198 5741,10998 5641,11198 Z"/>
 <path fill="none" stroke="rgb(87,157,28)" stroke-linejoin="round" d="M 5641,11198 L 5841,11198 5741,10998 5641,11198 Z"/>
 <path fill="rgb(87,157,28)" stroke="none" d="M 5843,11198 L 6043,11198 5943,10998 5843,11198 Z"/>
 <path fill="none" stroke="rgb(87,157,28)" stroke-linejoin="round" d="M 5843,11198 L 6043,11198 5943,10998 5843,11198 Z"/>
 <path fill="rgb(87,157,28)" stroke="none" d="M 6044,11198 L 6243,11198 6143,10998 6044,11198 Z"/>
 <path fill="none" stroke="rgb(87,157,28)" stroke-linejoin="round" d="M 6044,11198 L 6243,11198 6143,10998 6044,11198 Z"/>
 <path fill="rgb(87,157,28)" stroke="none" d="M 6245,11132 L 6445,11132 6345,10932 6245,11132 Z"/>
 <path fill="none" stroke="rgb(87,157,28)" stroke-linejoin="round" d="M 6245,11132 L 6445,11132 6345,10932 6245,11132 Z"/>
 <path fill="rgb(87,157,28)" stroke="none" d="M 6446,11132 L 6646,11132 6546,10932 6446,11132 Z"/>
 <path fill="none" stroke="rgb(87,157,28)" stroke-linejoin="round" d="M 6446,11132 L 6646,11132 6546,10932 6446,11132 Z"/>
 <path fill="rgb(87,157,28)" stroke="none" d="M 6648,11111 L 6848,11111 6748,10911 6648,11111 Z"/>
 <path fill="none" stroke="rgb(87,157,28)" stroke-linejoin="round" d="M 6648,11111 L 6848,11111 6748,10911 6648,11111 Z"/>
 <path fill="rgb(87,157,28)" stroke="none" d="M 6850,11111 L 7049,11111 6950,10911 6850,11111 Z"/>
 <path fill="none" stroke="rgb(87,157,28)" stroke-linejoin="round" d="M 6850,11111 L 7049,11111 6950,10911 6850,11111 Z"/>
 <path fill="rgb(87,157,28)" stroke="none" d="M 7050,11111 L 7250,11111 7150,10911 7050,11111 Z"/>
 <path fill="none" stroke="rgb(87,157,28)" stroke-linejoin="round" d="M 7050,11111 L 7250,11111 7150,10911 7050,11111 Z"/>
 <path fill="rgb(87,157,28)" stroke="none" d="M 7252,11111 L 7452,11111 7352,10911 7252,11111 Z"/>
 <path fill="none" stroke="rgb(87,157,28)" stroke-linejoin="round" d="M 7252,11111 L 7452,11111 7352,10911 7252,11111 Z"/>
 <path fill="rgb(87,157,28)" stroke="none" d="M 7453,11045 L 7653,11045 7553,10845 7453,11045 Z"/>
 <path fill="none" stroke="rgb(87,157,28)" stroke-linejoin="round" d="M 7453,11045 L 7653,11045 7553,10845 7453,11045 Z"/>
 <path fill="rgb(87,157,28)" stroke="none" d="M 7655,11001 L 7855,11001 7755,10801 7655,11001 Z"/>
 <path fill="none" stroke="rgb(87,157,28)" stroke-linejoin="round" d="M 7655,11001 L 7855,11001 7755,10801 7655,11001 Z"/>
 <path fill="rgb(87,157,28)" stroke="none" d="M 7857,10958 L 8056,10958 7957,10758 7857,10958 Z"/>
 <path fill="none" stroke="rgb(87,157,28)" stroke-linejoin="round" d="M 7857,10958 L 8056,10958 7957,10758 7857,10958 Z"/>
 <path fill="rgb(87,157,28)" stroke="none" d="M 8057,10914 L 8257,10914 8157,10714 8057,10914 Z"/>
 <path fill="none" stroke="rgb(87,157,28)" stroke-linejoin="round" d="M 8057,10914 L 8257,10914 8157,10714 8057,10914 Z"/>
 <path fill="rgb(87,157,28)" stroke="none" d="M 8259,10827 L 8459,10827 8359,10627 8259,10827 Z"/>
 <path fill="none" stroke="rgb(87,157,28)" stroke-linejoin="round" d="M 8259,10827 L 8459,10827 8359,10627 8259,10827 Z"/>
 <path fill="rgb(87,157,28)" stroke="none" d="M 8460,10783 L 8660,10783 8560,10583 8460,10783 Z"/>
 <path fill="none" stroke="rgb(87,157,28)" stroke-linejoin="round" d="M 8460,10783 L 8660,10783 8560,10583 8460,10783 Z"/>
 <path fill="rgb(87,157,28)" stroke="none" d="M 8662,10674 L 8862,10674 8762,10474 8662,10674 Z"/>
 <path fill="none" stroke="rgb(87,157,28)" stroke-linejoin="round" d="M 8662,10674 L 8862,10674 8762,10474 8662,10674 Z"/>
 <path fill="rgb(87,157,28)" stroke="none" d="M 8864,10652 L 9063,10652 8963,10452 8864,10652 Z"/>
 <path fill="none" stroke="rgb(87,157,28)" stroke-linejoin="round" d="M 8864,10652 L 9063,10652 8963,10452 8864,10652 Z"/>
 <path fill="rgb(87,157,28)" stroke="none" d="M 9064,10565 L 9264,10565 9164,10365 9064,10565 Z"/>
 <path fill="none" stroke="rgb(87,157,28)" stroke-linejoin="round" d="M 9064,10565 L 9264,10565 9164,10365 9064,10565 Z"/>
 <path fill="rgb(87,157,28)" stroke="none" d="M 9266,10346 L 9466,10346 9366,10146 9266,10346 Z"/>
 <path fill="none" stroke="rgb(87,157,28)" stroke-linejoin="round" d="M 9266,10346 L 9466,10346 9366,10146 9266,10346 Z"/>
 <path fill="rgb(87,157,28)" stroke="none" d="M 9467,10302 L 9667,10302 9567,10102 9467,10302 Z"/>
 <path fill="none" stroke="rgb(87,157,28)" stroke-linejoin="round" d="M 9467,10302 L 9667,10302 9567,10102 9467,10302 Z"/>
 <path fill="rgb(87,157,28)" stroke="none" d="M 9669,10171 L 9868,10171 9769,9971 9669,10171 Z"/>
 <path fill="none" stroke="rgb(87,157,28)" stroke-linejoin="round" d="M 9669,10171 L 9868,10171 9769,9971 9669,10171 Z"/>
 <path fill="rgb(87,157,28)" stroke="none" d="M 9870,9997 L 10070,9997 9970,9797 9870,9997 Z"/>
 <path fill="none" stroke="rgb(87,157,28)" stroke-linejoin="round" d="M 9870,9997 L 10070,9997 9970,9797 9870,9997 Z"/>
 <path fill="rgb(87,157,28)" stroke="none" d="M 10071,9975 L 10271,9975 10171,9775 10071,9975 Z"/>
 <path fill="none" stroke="rgb(87,157,28)" stroke-linejoin="round" d="M 10071,9975 L 10271,9975 10171,9775 10071,9975 Z"/>
 <path fill="rgb(87,157,28)" stroke="none" d="M 10273,9756 L 10473,9756 10373,9556 10273,9756 Z"/>
 <path fill="none" stroke="rgb(87,157,28)" stroke-linejoin="round" d="M 10273,9756 L 10473,9756 10373,9556 10273,9756 Z"/>
 <path fill="rgb(87,157,28)" stroke="none" d="M 10475,9516 L 10675,9516 10575,9316 10475,9516 Z"/>
 <path fill="none" stroke="rgb(87,157,28)" stroke-linejoin="round" d="M 10475,9516 L 10675,9516 10575,9316 10475,9516 Z"/>
 <path fill="rgb(87,157,28)" stroke="none" d="M 10676,9341 L 10875,9341 10776,9141 10676,9341 Z"/>
 <path fill="none" stroke="rgb(87,157,28)" stroke-linejoin="round" d="M 10676,9341 L 10875,9341 10776,9141 10676,9341 Z"/>
 <path fill="rgb(87,157,28)" stroke="none" d="M 10877,9254 L 11077,9254 10977,9054 10877,9254 Z"/>
 <path fill="none" stroke="rgb(87,157,28)" stroke-linejoin="round" d="M 10877,9254 L 11077,9254 10977,9054 10877,9254 Z"/>
 <path fill="rgb(87,157,28)" stroke="none" d="M 11078,9123 L 11278,9123 11178,8923 11078,9123 Z"/>
 <path fill="none" stroke="rgb(87,157,28)" stroke-linejoin="round" d="M 11078,9123 L 11278,9123 11178,8923 11078,9123 Z"/>
 <path fill="rgb(87,157,28)" stroke="none" d="M 11280,9014 L 11480,9014 11380,8814 11280,9014 Z"/>
 <path fill="none" stroke="rgb(87,157,28)" stroke-linejoin="round" d="M 11280,9014 L 11480,9014 11380,8814 11280,9014 Z"/>
 <path fill="rgb(87,157,28)" stroke="none" d="M 11482,8774 L 11682,8774 11582,8574 11482,8774 Z"/>
 <path fill="none" stroke="rgb(87,157,28)" stroke-linejoin="round" d="M 11482,8774 L 11682,8774 11582,8574 11482,8774 Z"/>
 <path fill="rgb(87,157,28)" stroke="none" d="M 11683,8490 L 11882,8490 11782,8290 11683,8490 Z"/>
 <path fill="none" stroke="rgb(87,157,28)" stroke-linejoin="round" d="M 11683,8490 L 11882,8490 11782,8290 11683,8490 Z"/>
 <path fill="rgb(87,157,28)" stroke="none" d="M 11884,8424 L 12084,8424 11984,8224 11884,8424 Z"/>
 <path fill="none" stroke="rgb(87,157,28)" stroke-linejoin="round" d="M 11884,8424 L 12084,8424 11984,8224 11884,8424 Z"/>
 <path fill="rgb(87,157,28)" stroke="none" d="M 12085,8293 L 12285,8293 12185,8093 12085,8293 Z"/>
 <path fill="none" stroke="rgb(87,157,28)" stroke-linejoin="round" d="M 12085,8293 L 12285,8293 12185,8093 12085,8293 Z"/>
 <path fill="rgb(87,157,28)" stroke="none" d="M 12287,8271 L 12487,8271 12387,8071 12287,8271 Z"/>
 <path fill="none" stroke="rgb(87,157,28)" stroke-linejoin="round" d="M 12287,8271 L 12487,8271 12387,8071 12287,8271 Z"/>
 <path fill="rgb(87,157,28)" stroke="none" d="M 12489,8031 L 12688,8031 12589,7831 12489,8031 Z"/>
 <path fill="none" stroke="rgb(87,157,28)" stroke-linejoin="round" d="M 12489,8031 L 12688,8031 12589,7831 12489,8031 Z"/>
 <path fill="rgb(87,157,28)" stroke="none" d="M 12689,7900 L 12889,7900 12789,7700 12689,7900 Z"/>
 <path fill="none" stroke="rgb(87,157,28)" stroke-linejoin="round" d="M 12689,7900 L 12889,7900 12789,7700 12689,7900 Z"/>
 <path fill="rgb(87,157,28)" stroke="none" d="M 12891,7900 L 13091,7900 12991,7700 12891,7900 Z"/>
 <path fill="none" stroke="rgb(87,157,28)" stroke-linejoin="round" d="M 12891,7900 L 13091,7900 12991,7700 12891,7900 Z"/>
 <path fill="rgb(87,157,28)" stroke="none" d="M 13092,7703 L 13292,7703 13192,7503 13092,7703 Z"/>
 <path fill="none" stroke="rgb(87,157,28)" stroke-linejoin="round" d="M 13092,7703 L 13292,7703 13192,7503 13092,7703 Z"/>
 <path fill="rgb(87,157,28)" stroke="none" d="M 13294,7572 L 13494,7572 13394,7372 13294,7572 Z"/>
 <path fill="none" stroke="rgb(87,157,28)" stroke-linejoin="round" d="M 13294,7572 L 13494,7572 13394,7372 13294,7572 Z"/>
 <path fill="rgb(87,157,28)" stroke="none" d="M 13496,7332 L 13695,7332 13595,7132 13496,7332 Z"/>
 <path fill="none" stroke="rgb(87,157,28)" stroke-linejoin="round" d="M 13496,7332 L 13695,7332 13595,7132 13496,7332 Z"/>
 <path fill="rgb(87,157,28)" stroke="none" d="M 13696,7092 L 13896,7092 13796,6892 13696,7092 Z"/>
 <path fill="none" stroke="rgb(87,157,28)" stroke-linejoin="round" d="M 13696,7092 L 13896,7092 13796,6892 13696,7092 Z"/>
 <path fill="rgb(87,157,28)" stroke="none" d="M 13898,7048 L 14098,7048 13998,6848 13898,7048 Z"/>
 <path fill="none" stroke="rgb(87,157,28)" stroke-linejoin="round" d="M 13898,7048 L 14098,7048 13998,6848 13898,7048 Z"/>
 <path fill="rgb(87,157,28)" stroke="none" d="M 14099,7048 L 14299,7048 14199,6848 14099,7048 Z"/>
 <path fill="none" stroke="rgb(87,157,28)" stroke-linejoin="round" d="M 14099,7048 L 14299,7048 14199,6848 14099,7048 Z"/>
 <path fill="rgb(87,157,28)" stroke="none" d="M 14301,7048 L 14501,7048 14401,6848 14301,7048 Z"/>
 <path fill="none" stroke="rgb(87,157,28)" stroke-linejoin="round" d="M 14301,7048 L 14501,7048 14401,6848 14301,7048 Z"/>
 <path fill="rgb(87,157,28)" stroke="none" d="M 14503,7004 L 14702,7004 14602,6804 14503,7004 Z"/>
 <path fill="none" stroke="rgb(87,157,28)" stroke-linejoin="round" d="M 14503,7004 L 14702,7004 14602,6804 14503,7004 Z"/>
 <path fill="none" stroke="rgb(126,0,33)" stroke-width="50" stroke-linejoin="round" d="M 5943,11154 L 6143,11154 6345,11145 6546,11135 6748,11107 6950,11050 7150,11031 7352,10946 7553,10852 7755,10757 7957,10596 8157,10445 8359,10218 8560,10039 8762,9840 8963,9651 9164,9396 9366,9188 9567,8838 9769,8649 9970,8375 10171,8224 10373,7903 10575,7572 10776,7298 10977,7052 11178,6721 11380,6400 11582,6107 11782,5805 11984,5503 12185,5219 12387,4955 12589,4671 12789,4416 12991,4217 13192,3962 13394,3745 13595,3414 13796,3093 13998,2847 14199,2630 14401,2393 14602,2204"/>
 <path fill="rgb(126,0,33)" stroke="none" d="M 5843,11054 L 5843,11254 6043,11154 5843,11054 Z"/>
 <path fill="none" stroke="rgb(126,0,33)" stroke-linejoin="round" d="M 5843,11054 L 5843,11254 6043,11154 5843,11054 Z"/>
 <path fill="rgb(126,0,33)" stroke="none" d="M 6044,11054 L 6044,11254 6243,11154 6044,11054 Z"/>
 <path fill="none" stroke="rgb(126,0,33)" stroke-linejoin="round" d="M 6044,11054 L 6044,11254 6243,11154 6044,11054 Z"/>
 <path fill="rgb(126,0,33)" stroke="none" d="M 6245,11045 L 6245,11245 6445,11145 6245,11045 Z"/>
 <path fill="none" stroke="rgb(126,0,33)" stroke-linejoin="round" d="M 6245,11045 L 6245,11245 6445,11145 6245,11045 Z"/>
 <path fill="rgb(126,0,33)" stroke="none" d="M 6446,11035 L 6446,11235 6646,11135 6446,11035 Z"/>
 <path fill="none" stroke="rgb(126,0,33)" stroke-linejoin="round" d="M 6446,11035 L 6446,11235 6646,11135 6446,11035 Z"/>
 <path fill="rgb(126,0,33)" stroke="none" d="M 6648,11007 L 6648,11207 6848,11107 6648,11007 Z"/>
 <path fill="none" stroke="rgb(126,0,33)" stroke-linejoin="round" d="M 6648,11007 L 6648,11207 6848,11107 6648,11007 Z"/>
 <path fill="rgb(126,0,33)" stroke="none" d="M 6850,10950 L 6850,11150 7049,11050 6850,10950 Z"/>
 <path fill="none" stroke="rgb(126,0,33)" stroke-linejoin="round" d="M 6850,10950 L 6850,11150 7049,11050 6850,10950 Z"/>
 <path fill="rgb(126,0,33)" stroke="none" d="M 7050,10931 L 7050,11131 7250,11031 7050,10931 Z"/>
 <path fill="none" stroke="rgb(126,0,33)" stroke-linejoin="round" d="M 7050,10931 L 7050,11131 7250,11031 7050,10931 Z"/>
 <path fill="rgb(126,0,33)" stroke="none" d="M 7252,10846 L 7252,11046 7452,10946 7252,10846 Z"/>
 <path fill="none" stroke="rgb(126,0,33)" stroke-linejoin="round" d="M 7252,10846 L 7252,11046 7452,10946 7252,10846 Z"/>
 <path fill="rgb(126,0,33)" stroke="none" d="M 7453,10752 L 7453,10952 7653,10852 7453,10752 Z"/>
 <path fill="none" stroke="rgb(126,0,33)" stroke-linejoin="round" d="M 7453,10752 L 7453,10952 7653,10852 7453,10752 Z"/>
 <path fill="rgb(126,0,33)" stroke="none" d="M 7655,10657 L 7655,10857 7855,10757 7655,10657 Z"/>
 <path fill="none" stroke="rgb(126,0,33)" stroke-linejoin="round" d="M 7655,10657 L 7655,10857 7855,10757 7655,10657 Z"/>
 <path fill="rgb(126,0,33)" stroke="none" d="M 7857,10496 L 7857,10696 8056,10596 7857,10496 Z"/>
 <path fill="none" stroke="rgb(126,0,33)" stroke-linejoin="round" d="M 7857,10496 L 7857,10696 8056,10596 7857,10496 Z"/>
 <path fill="rgb(126,0,33)" stroke="none" d="M 8057,10345 L 8057,10545 8257,10445 8057,10345 Z"/>
 <path fill="none" stroke="rgb(126,0,33)" stroke-linejoin="round" d="M 8057,10345 L 8057,10545 8257,10445 8057,10345 Z"/>
 <path fill="rgb(126,0,33)" stroke="none" d="M 8259,10118 L 8259,10318 8459,10218 8259,10118 Z"/>
 <path fill="none" stroke="rgb(126,0,33)" stroke-linejoin="round" d="M 8259,10118 L 8259,10318 8459,10218 8259,10118 Z"/>
 <path fill="rgb(126,0,33)" stroke="none" d="M 8460,9939 L 8460,10139 8660,10039 8460,9939 Z"/>
 <path fill="none" stroke="rgb(126,0,33)" stroke-linejoin="round" d="M 8460,9939 L 8460,10139 8660,10039 8460,9939 Z"/>
 <path fill="rgb(126,0,33)" stroke="none" d="M 8662,9740 L 8662,9940 8862,9840 8662,9740 Z"/>
 <path fill="none" stroke="rgb(126,0,33)" stroke-linejoin="round" d="M 8662,9740 L 8662,9940 8862,9840 8662,9740 Z"/>
 <path fill="rgb(126,0,33)" stroke="none" d="M 8864,9551 L 8864,9751 9063,9651 8864,9551 Z"/>
 <path fill="none" stroke="rgb(126,0,33)" stroke-linejoin="round" d="M 8864,9551 L 8864,9751 9063,9651 8864,9551 Z"/>
 <path fill="rgb(126,0,33)" stroke="none" d="M 9064,9296 L 9064,9496 9264,9396 9064,9296 Z"/>
 <path fill="none" stroke="rgb(126,0,33)" stroke-linejoin="round" d="M 9064,9296 L 9064,9496 9264,9396 9064,9296 Z"/>
 <path fill="rgb(126,0,33)" stroke="none" d="M 9266,9088 L 9266,9288 9466,9188 9266,9088 Z"/>
 <path fill="none" stroke="rgb(126,0,33)" stroke-linejoin="round" d="M 9266,9088 L 9266,9288 9466,9188 9266,9088 Z"/>
 <path fill="rgb(126,0,33)" stroke="none" d="M 9467,8738 L 9467,8938 9667,8838 9467,8738 Z"/>
 <path fill="none" stroke="rgb(126,0,33)" stroke-linejoin="round" d="M 9467,8738 L 9467,8938 9667,8838 9467,8738 Z"/>
 <path fill="rgb(126,0,33)" stroke="none" d="M 9669,8549 L 9669,8749 9868,8649 9669,8549 Z"/>
 <path fill="none" stroke="rgb(126,0,33)" stroke-linejoin="round" d="M 9669,8549 L 9669,8749 9868,8649 9669,8549 Z"/>
 <path fill="rgb(126,0,33)" stroke="none" d="M 9870,8275 L 9870,8475 10070,8375 9870,8275 Z"/>
 <path fill="none" stroke="rgb(126,0,33)" stroke-linejoin="round" d="M 9870,8275 L 9870,8475 10070,8375 9870,8275 Z"/>
 <path fill="rgb(126,0,33)" stroke="none" d="M 10071,8124 L 10071,8324 10271,8224 10071,8124 Z"/>
 <path fill="none" stroke="rgb(126,0,33)" stroke-linejoin="round" d="M 10071,8124 L 10071,8324 10271,8224 10071,8124 Z"/>
 <path fill="rgb(126,0,33)" stroke="none" d="M 10273,7803 L 10273,8003 10473,7903 10273,7803 Z"/>
 <path fill="none" stroke="rgb(126,0,33)" stroke-linejoin="round" d="M 10273,7803 L 10273,8003 10473,7903 10273,7803 Z"/>
 <path fill="rgb(126,0,33)" stroke="none" d="M 10475,7472 L 10475,7672 10675,7572 10475,7472 Z"/>
 <path fill="none" stroke="rgb(126,0,33)" stroke-linejoin="round" d="M 10475,7472 L 10475,7672 10675,7572 10475,7472 Z"/>
 <path fill="rgb(126,0,33)" stroke="none" d="M 10676,7198 L 10676,7398 10875,7298 10676,7198 Z"/>
 <path fill="none" stroke="rgb(126,0,33)" stroke-linejoin="round" d="M 10676,7198 L 10676,7398 10875,7298 10676,7198 Z"/>
 <path fill="rgb(126,0,33)" stroke="none" d="M 10877,6952 L 10877,7152 11077,7052 10877,6952 Z"/>
 <path fill="none" stroke="rgb(126,0,33)" stroke-linejoin="round" d="M 10877,6952 L 10877,7152 11077,7052 10877,6952 Z"/>
 <path fill="rgb(126,0,33)" stroke="none" d="M 11078,6621 L 11078,6821 11278,6721 11078,6621 Z"/>
 <path fill="none" stroke="rgb(126,0,33)" stroke-linejoin="round" d="M 11078,6621 L 11078,6821 11278,6721 11078,6621 Z"/>
 <path fill="rgb(126,0,33)" stroke="none" d="M 11280,6300 L 11280,6500 11480,6400 11280,6300 Z"/>
 <path fill="none" stroke="rgb(126,0,33)" stroke-linejoin="round" d="M 11280,6300 L 11280,6500 11480,6400 11280,6300 Z"/>
 <path fill="rgb(126,0,33)" stroke="none" d="M 11482,6007 L 11482,6207 11682,6107 11482,6007 Z"/>
 <path fill="none" stroke="rgb(126,0,33)" stroke-linejoin="round" d="M 11482,6007 L 11482,6207 11682,6107 11482,6007 Z"/>
 <path fill="rgb(126,0,33)" stroke="none" d="M 11683,5705 L 11683,5905 11882,5805 11683,5705 Z"/>
 <path fill="none" stroke="rgb(126,0,33)" stroke-linejoin="round" d="M 11683,5705 L 11683,5905 11882,5805 11683,5705 Z"/>
 <path fill="rgb(126,0,33)" stroke="none" d="M 11884,5403 L 11884,5603 12084,5503 11884,5403 Z"/>
 <path fill="none" stroke="rgb(126,0,33)" stroke-linejoin="round" d="M 11884,5403 L 11884,5603 12084,5503 11884,5403 Z"/>
 <path fill="rgb(126,0,33)" stroke="none" d="M 12085,5119 L 12085,5319 12285,5219 12085,5119 Z"/>
 <path fill="none" stroke="rgb(126,0,33)" stroke-linejoin="round" d="M 12085,5119 L 12085,5319 12285,5219 12085,5119 Z"/>
 <path fill="rgb(126,0,33)" stroke="none" d="M 12287,4855 L 12287,5055 12487,4955 12287,4855 Z"/>
 <path fill="none" stroke="rgb(126,0,33)" stroke-linejoin="round" d="M 12287,4855 L 12287,5055 12487,4955 12287,4855 Z"/>
 <path fill="rgb(126,0,33)" stroke="none" d="M 12489,4571 L 12489,4771 12688,4671 12489,4571 Z"/>
 <path fill="none" stroke="rgb(126,0,33)" stroke-linejoin="round" d="M 12489,4571 L 12489,4771 12688,4671 12489,4571 Z"/>
 <path fill="rgb(126,0,33)" stroke="none" d="M 12689,4316 L 12689,4516 12889,4416 12689,4316 Z"/>
 <path fill="none" stroke="rgb(126,0,33)" stroke-linejoin="round" d="M 12689,4316 L 12689,4516 12889,4416 12689,4316 Z"/>
 <path fill="rgb(126,0,33)" stroke="none" d="M 12891,4117 L 12891,4317 13091,4217 12891,4117 Z"/>
 <path fill="none" stroke="rgb(126,0,33)" stroke-linejoin="round" d="M 12891,4117 L 12891,4317 13091,4217 12891,4117 Z"/>
 <path fill="rgb(126,0,33)" stroke="none" d="M 13092,3862 L 13092,4062 13292,3962 13092,3862 Z"/>
 <path fill="none" stroke="rgb(126,0,33)" stroke-linejoin="round" d="M 13092,3862 L 13092,4062 13292,3962 13092,3862 Z"/>
 <path fill="rgb(126,0,33)" stroke="none" d="M 13294,3645 L 13294,3845 13494,3745 13294,3645 Z"/>
 <path fill="none" stroke="rgb(126,0,33)" stroke-linejoin="round" d="M 13294,3645 L 13294,3845 13494,3745 13294,3645 Z"/>
 <path fill="rgb(126,0,33)" stroke="none" d="M 13496,3314 L 13496,3514 13695,3414 13496,3314 Z"/>
 <path fill="none" stroke="rgb(126,0,33)" stroke-linejoin="round" d="M 13496,3314 L 13496,3514 13695,3414 13496,3314 Z"/>
 <path fill="rgb(126,0,33)" stroke="none" d="M 13696,2993 L 13696,3193 13896,3093 13696,2993 Z"/>
 <path fill="none" stroke="rgb(126,0,33)" stroke-linejoin="round" d="M 13696,2993 L 13696,3193 13896,3093 13696,2993 Z"/>
 <path fill="rgb(126,0,33)" stroke="none" d="M 13898,2747 L 13898,2947 14098,2847 13898,2747 Z"/>
 <path fill="none" stroke="rgb(126,0,33)" stroke-linejoin="round" d="M 13898,2747 L 13898,2947 14098,2847 13898,2747 Z"/>
 <path fill="rgb(126,0,33)" stroke="none" d="M 14099,2530 L 14099,2730 14299,2630 14099,2530 Z"/>
 <path fill="none" stroke="rgb(126,0,33)" stroke-linejoin="round" d="M 14099,2530 L 14099,2730 14299,2630 14099,2530 Z"/>
 <path fill="rgb(126,0,33)" stroke="none" d="M 14301,2293 L 14301,2493 14501,2393 14301,2293 Z"/>
 <path fill="none" stroke="rgb(126,0,33)" stroke-linejoin="round" d="M 14301,2293 L 14301,2493 14501,2393 14301,2293 Z"/>
 <path fill="rgb(126,0,33)" stroke="none" d="M 14503,2104 L 14503,2304 14702,2204 14503,2104 Z"/>
 <path fill="none" stroke="rgb(126,0,33)" stroke-linejoin="round" d="M 14503,2104 L 14503,2304 14702,2204 14503,2104 Z"/>
 <text class="TextShape"><tspan class="TextParagraph" font-family="Liberation Sans, sans-serif" font-size="353px" font-weight="400"><tspan class="TextPosition" x="484" y="11732"><tspan fill="rgb(0,0,0)" stroke="none">20/02</tspan></tspan></tspan></text>
 <text class="TextShape"><tspan class="TextParagraph" font-family="Liberation Sans, sans-serif" font-size="353px" font-weight="400"><tspan class="TextPosition" x="1894" y="11732"><tspan fill="rgb(0,0,0)" stroke="none">27/02</tspan></tspan></tspan></text>
 <text class="TextShape"><tspan class="TextParagraph" font-family="Liberation Sans, sans-serif" font-size="353px" font-weight="400"><tspan class="TextPosition" x="3304" y="11732"><tspan fill="rgb(0,0,0)" stroke="none">05/03</tspan></tspan></tspan></text>
 <text class="TextShape"><tspan class="TextParagraph" font-family="Liberation Sans, sans-serif" font-size="353px" font-weight="400"><tspan class="TextPosition" x="4713" y="11732"><tspan fill="rgb(0,0,0)" stroke="none">12/03</tspan></tspan></tspan></text>
 <text class="TextShape"><tspan class="TextParagraph" font-family="Liberation Sans, sans-serif" font-size="353px" font-weight="400"><tspan class="TextPosition" x="6123" y="11732"><tspan fill="rgb(0,0,0)" stroke="none">19/03</tspan></tspan></tspan></text>
 <text class="TextShape"><tspan class="TextParagraph" font-family="Liberation Sans, sans-serif" font-size="353px" font-weight="400"><tspan class="TextPosition" x="7533" y="11732"><tspan fill="rgb(0,0,0)" stroke="none">26/03</tspan></tspan></tspan></text>
 <text class="TextShape"><tspan class="TextParagraph" font-family="Liberation Sans, sans-serif" font-size="353px" font-weight="400"><tspan class="TextPosition" x="8943" y="11732"><tspan fill="rgb(0,0,0)" stroke="none">02/04</tspan></tspan></tspan></text>
 <text class="TextShape"><tspan class="TextParagraph" font-family="Liberation Sans, sans-serif" font-size="353px" font-weight="400"><tspan class="TextPosition" x="10352" y="11732"><tspan fill="rgb(0,0,0)" stroke="none">09/04</tspan></tspan></tspan></text>
 <text class="TextShape"><tspan class="TextParagraph" font-family="Liberation Sans, sans-serif" font-size="353px" font-weight="400"><tspan class="TextPosition" x="11762" y="11732"><tspan fill="rgb(0,0,0)" stroke="none">16/04</tspan></tspan></tspan></text>
 <text class="TextShape"><tspan class="TextParagraph" font-family="Liberation Sans, sans-serif" font-size="353px" font-weight="400"><tspan class="TextPosition" x="13172" y="11732"><tspan fill="rgb(0,0,0)" stroke="none">23/04</tspan></tspan></tspan></text>
 <text class="TextShape"><tspan class="TextParagraph" font-family="Liberation Sans, sans-serif" font-size="353px" font-weight="400"><tspan class="TextPosition" x="1" y="9302"><tspan fill="rgb(0,0,0)" stroke="none">100</tspan></tspan></tspan></text>
 <text class="TextShape"><tspan class="TextParagraph" font-family="Liberation Sans, sans-serif" font-size="353px" font-weight="400"><tspan class="TextPosition" x="1" y="7318"><tspan fill="rgb(0,0,0)" stroke="none">200</tspan></tspan></tspan></text>
 <text class="TextShape"><tspan class="TextParagraph" font-family="Liberation Sans, sans-serif" font-size="353px" font-weight="400"><tspan class="TextPosition" x="1" y="5335"><tspan fill="rgb(0,0,0)" stroke="none">300</tspan></tspan></tspan></text>
 <text class="TextShape"><tspan class="TextParagraph" font-family="Liberation Sans, sans-serif" font-size="353px" font-weight="400"><tspan class="TextPosition" x="1" y="3352"><tspan fill="rgb(0,0,0)" stroke="none">400</tspan></tspan></tspan></text>
 <text class="TextShape"><tspan class="TextParagraph" font-family="Liberation Sans, sans-serif" font-size="353px" font-weight="400"><tspan class="TextPosition" x="1" y="1369"><tspan fill="rgb(0,0,0)" stroke="none">500</tspan></tspan></tspan></text>
 <text class="TextShape"><tspan class="TextParagraph" font-family="Liberation Sans, sans-serif" font-size="423px" font-weight="400"><tspan class="TextPosition" x="1529" y="497"><tspan fill="rgb(0,0,0)" stroke="none">Covid-19. Muertes acumuladas por milln de mayores de 65 aos</tspan></tspan></tspan><tspan class="TextParagraph" font-family="Liberation Sans, sans-serif" font-size="423px" font-weight="400"><tspan class="TextPosition" x="1529" y="947"><tspan fill="rgb(0,0,0)" stroke="none">en Europa Occidental (3)</tspan></tspan></tspan></text>
 <path fill="none" stroke="rgb(0,69,134)" stroke-width="50" stroke-linejoin="round" d="M 7387,2861 L 8186,2861"/>
 <path fill="rgb(0,69,134)" stroke="none" d="M 7681,2756 L 7681,2967 7892,2967 7892,2756 7681,2756 Z"/>
 <path fill="none" stroke="rgb(0,69,134)" stroke-linejoin="round" d="M 7681,2756 L 7681,2967 7892,2967 7892,2756 7681,2756 Z"/>
 <path fill="none" stroke="rgb(255,66,14)" stroke-width="50" stroke-linejoin="round" d="M 7387,3794 L 8186,3794"/>
 <path fill="rgb(255,66,14)" stroke="none" d="M 7681,3794 L 7787,3900 7892,3794 7787,3689 7681,3794 Z"/>
 <path fill="none" stroke="rgb(255,66,14)" stroke-linejoin="round" d="M 7681,3794 L 7787,3900 7892,3794 7787,3689 7681,3794 Z"/>
 <path fill="none" stroke="rgb(255,211,32)" stroke-width="50" stroke-linejoin="round" d="M 7387,4727 L 8186,4727"/>
 <path fill="rgb(255,211,32)" stroke="none" d="M 7681,4622 L 7787,4833 7892,4622 7681,4622 Z"/>
 <path fill="none" stroke="rgb(255,211,32)" stroke-linejoin="round" d="M 7681,4622 L 7787,4833 7892,4622 7681,4622 Z"/>
 <path fill="none" stroke="rgb(87,157,28)" stroke-width="50" stroke-linejoin="round" d="M 7387,5660 L 8186,5660"/>
 <path fill="rgb(87,157,28)" stroke="none" d="M 7681,5766 L 7892,5766 7787,5555 7681,5766 Z"/>
 <path fill="none" stroke="rgb(87,157,28)" stroke-linejoin="round" d="M 7681,5766 L 7892,5766 7787,5555 7681,5766 Z"/>
 <path fill="none" stroke="rgb(126,0,33)" stroke-width="50" stroke-linejoin="round" d="M 7387,6592 L 8186,6592"/>
 <path fill="rgb(126,0,33)" stroke="none" d="M 7681,6487 L 7681,6698 7892,6592 7681,6487 Z"/>
 <path fill="none" stroke="rgb(126,0,33)" stroke-linejoin="round" d="M 7681,6487 L 7681,6698 7892,6592 7681,6487 Z"/>
 <text class="TextShape"><tspan class="TextParagraph" font-family="Liberation Sans, sans-serif" font-size="353px" font-weight="400"><tspan class="TextPosition" x="8286" y="2981"><tspan fill="rgb(0,0,0)" stroke="none">Alemania</tspan></tspan></tspan></text>
 <text class="TextShape"><tspan class="TextParagraph" font-family="Liberation Sans, sans-serif" font-size="353px" font-weight="400"><tspan class="TextPosition" x="8286" y="3914"><tspan fill="rgb(0,0,0)" stroke="none">Austria</tspan></tspan></tspan></text>
 <text class="TextShape"><tspan class="TextParagraph" font-family="Liberation Sans, sans-serif" font-size="353px" font-weight="400"><tspan class="TextPosition" x="8286" y="4847"><tspan fill="rgb(0,0,0)" stroke="none">Dinamarca</tspan></tspan></tspan></text>
 <text class="TextShape"><tspan class="TextParagraph" font-family="Liberation Sans, sans-serif" font-size="353px" font-weight="400"><tspan class="TextPosition" x="8286" y="5780"><tspan fill="rgb(0,0,0)" stroke="none">Noruega</tspan></tspan></tspan></text>
 <text class="TextShape"><tspan class="TextParagraph" font-family="Liberation Sans, sans-serif" font-size="353px" font-weight="400"><tspan class="TextPosition" x="8286" y="6712"><tspan fill="rgb(0,0,0)" stroke="none">Portugal</tspan></tspan></tspan></text>
</svg>