<?xml version="1.0" encoding="UTF-8"?>
<!DOCTYPE svg PUBLIC "-//W3C//DTD SVG 1.1//EN" "http://www.w3.org/Graphics/SVG/1.1/DTD/svg11.dtd">
<svg width="150mm" height="120mm" viewBox="0 0 15000 12000" version="1.1" xmlns="http://www.w3.org/2000/svg" xmlns:xlink="http://www.w3.org/1999/xlink" stroke-width="28.222" stroke-linejoin="round" xml:space="preserve">
 <path fill="rgb(255,255,255)" stroke="none" d="M 7605,12000 L 209,12000 209,0 15000,0 15000,12000 7605,12000 Z"/>
 <path fill="none" stroke="rgb(0,0,0)" stroke-linejoin="round" d="M 8214,9997 L 1734,9997 1734,1029 14694,1029 14694,9997 8214,9997 Z"/>
 <path fill="none" stroke="rgb(221,221,221)" stroke-linejoin="round" d="M 1734,1028 L 1734,9996"/>
 <path fill="none" stroke="rgb(221,221,221)" stroke-linejoin="round" d="M 1965,1028 L 1965,9996"/>
 <path fill="none" stroke="rgb(221,221,221)" stroke-linejoin="round" d="M 2197,1028 L 2197,9996"/>
 <path fill="none" stroke="rgb(221,221,221)" stroke-linejoin="round" d="M 2429,1028 L 2429,9996"/>
 <path fill="none" stroke="rgb(221,221,221)" stroke-linejoin="round" d="M 2659,1028 L 2659,9996"/>
 <path fill="none" stroke="rgb(221,221,221)" stroke-linejoin="round" d="M 2891,1028 L 2891,9996"/>
 <path fill="none" stroke="rgb(221,221,221)" stroke-linejoin="round" d="M 3123,1028 L 3123,9996"/>
 <path fill="none" stroke="rgb(221,221,221)" stroke-linejoin="round" d="M 3354,1028 L 3354,9996"/>
 <path fill="none" stroke="rgb(221,221,221)" stroke-linejoin="round" d="M 3585,1028 L 3585,9996"/>
 <path fill="none" stroke="rgb(221,221,221)" stroke-linejoin="round" d="M 3817,1028 L 3817,9996"/>
 <path fill="none" stroke="rgb(221,221,221)" stroke-linejoin="round" d="M 4049,1028 L 4049,9996"/>
 <path fill="none" stroke="rgb(221,221,221)" stroke-linejoin="round" d="M 4279,1028 L 4279,9996"/>
 <path fill="none" stroke="rgb(221,221,221)" stroke-linejoin="round" d="M 4511,1028 L 4511,9996"/>
 <path fill="none" stroke="rgb(221,221,221)" stroke-linejoin="round" d="M 4743,1028 L 4743,9996"/>
 <path fill="none" stroke="rgb(221,221,221)" stroke-linejoin="round" d="M 4974,1028 L 4974,9996"/>
 <path fill="none" stroke="rgb(221,221,221)" stroke-linejoin="round" d="M 5205,1028 L 5205,9996"/>
 <path fill="none" stroke="rgb(221,221,221)" stroke-linejoin="round" d="M 5437,1028 L 5437,9996"/>
 <path fill="none" stroke="rgb(221,221,221)" stroke-linejoin="round" d="M 5669,1028 L 5669,9996"/>
 <path fill="none" stroke="rgb(221,221,221)" stroke-linejoin="round" d="M 5899,1028 L 5899,9996"/>
 <path fill="none" stroke="rgb(221,221,221)" stroke-linejoin="round" d="M 6131,1028 L 6131,9996"/>
 <path fill="none" stroke="rgb(221,221,221)" stroke-linejoin="round" d="M 6363,1028 L 6363,9996"/>
 <path fill="none" stroke="rgb(221,221,221)" stroke-linejoin="round" d="M 6594,1028 L 6594,9996"/>
 <path fill="none" stroke="rgb(221,221,221)" stroke-linejoin="round" d="M 6825,1028 L 6825,9996"/>
 <path fill="none" stroke="rgb(221,221,221)" stroke-linejoin="round" d="M 7057,1028 L 7057,9996"/>
 <path fill="none" stroke="rgb(221,221,221)" stroke-linejoin="round" d="M 7289,1028 L 7289,9996"/>
 <path fill="none" stroke="rgb(221,221,221)" stroke-linejoin="round" d="M 7519,1028 L 7519,9996"/>
 <path fill="none" stroke="rgb(221,221,221)" stroke-linejoin="round" d="M 7751,1028 L 7751,9996"/>
 <path fill="none" stroke="rgb(221,221,221)" stroke-linejoin="round" d="M 7983,1028 L 7983,9996"/>
 <path fill="none" stroke="rgb(221,221,221)" stroke-linejoin="round" d="M 8214,1028 L 8214,9996"/>
 <path fill="none" stroke="rgb(221,221,221)" stroke-linejoin="round" d="M 8445,1028 L 8445,9996"/>
 <path fill="none" stroke="rgb(221,221,221)" stroke-linejoin="round" d="M 8677,1028 L 8677,9996"/>
 <path fill="none" stroke="rgb(221,221,221)" stroke-linejoin="round" d="M 8908,1028 L 8908,9996"/>
 <path fill="none" stroke="rgb(221,221,221)" stroke-linejoin="round" d="M 9139,1028 L 9139,9996"/>
 <path fill="none" stroke="rgb(221,221,221)" stroke-linejoin="round" d="M 9371,1028 L 9371,9996"/>
 <path fill="none" stroke="rgb(221,221,221)" stroke-linejoin="round" d="M 9603,1028 L 9603,9996"/>
 <path fill="none" stroke="rgb(221,221,221)" stroke-linejoin="round" d="M 9834,1028 L 9834,9996"/>
 <path fill="none" stroke="rgb(221,221,221)" stroke-linejoin="round" d="M 10065,1028 L 10065,9996"/>
 <path fill="none" stroke="rgb(221,221,221)" stroke-linejoin="round" d="M 10297,1028 L 10297,9996"/>
 <path fill="none" stroke="rgb(221,221,221)" stroke-linejoin="round" d="M 10528,1028 L 10528,9996"/>
 <path fill="none" stroke="rgb(221,221,221)" stroke-linejoin="round" d="M 10759,1028 L 10759,9996"/>
 <path fill="none" stroke="rgb(221,221,221)" stroke-linejoin="round" d="M 10991,1028 L 10991,9996"/>
 <path fill="none" stroke="rgb(221,221,221)" stroke-linejoin="round" d="M 11223,1028 L 11223,9996"/>
 <path fill="none" stroke="rgb(221,221,221)" stroke-linejoin="round" d="M 11454,1028 L 11454,9996"/>
 <path fill="none" stroke="rgb(221,221,221)" stroke-linejoin="round" d="M 11685,1028 L 11685,9996"/>
 <path fill="none" stroke="rgb(221,221,221)" stroke-linejoin="round" d="M 11917,1028 L 11917,9996"/>
 <path fill="none" stroke="rgb(221,221,221)" stroke-linejoin="round" d="M 12148,1028 L 12148,9996"/>
 <path fill="none" stroke="rgb(221,221,221)" stroke-linejoin="round" d="M 12379,1028 L 12379,9996"/>
 <path fill="none" stroke="rgb(221,221,221)" stroke-linejoin="round" d="M 12611,1028 L 12611,9996"/>
 <path fill="none" stroke="rgb(221,221,221)" stroke-linejoin="round" d="M 12843,1028 L 12843,9996"/>
 <path fill="none" stroke="rgb(221,221,221)" stroke-linejoin="round" d="M 13074,1028 L 13074,9996"/>
 <path fill="none" stroke="rgb(221,221,221)" stroke-linejoin="round" d="M 13305,1028 L 13305,9996"/>
 <path fill="none" stroke="rgb(221,221,221)" stroke-linejoin="round" d="M 13537,1028 L 13537,9996"/>
 <path fill="none" stroke="rgb(221,221,221)" stroke-linejoin="round" d="M 13768,1028 L 13768,9996"/>
 <path fill="none" stroke="rgb(221,221,221)" stroke-linejoin="round" d="M 13999,1028 L 13999,9996"/>
 <path fill="none" stroke="rgb(221,221,221)" stroke-linejoin="round" d="M 14231,1028 L 14231,9996"/>
 <path fill="none" stroke="rgb(221,221,221)" stroke-linejoin="round" d="M 14463,1028 L 14463,9996"/>
 <path fill="none" stroke="rgb(221,221,221)" stroke-linejoin="round" d="M 14694,1028 L 14694,9996"/>
 <path fill="none" stroke="rgb(0,0,0)" stroke-linejoin="round" d="M 14694,9996 L 1734,9996"/>
 <path fill="none" stroke="rgb(0,0,0)" stroke-linejoin="round" d="M 14694,8501 L 1734,8501"/>
 <path fill="none" stroke="rgb(0,0,0)" stroke-linejoin="round" d="M 14694,7006 L 1734,7006"/>
 <path fill="none" stroke="rgb(0,0,0)" stroke-linejoin="round" d="M 14694,5512 L 1734,5512"/>
 <path fill="none" stroke="rgb(0,0,0)" stroke-linejoin="round" d="M 14694,4017 L 1734,4017"/>
 <path fill="none" stroke="rgb(0,0,0)" stroke-linejoin="round" d="M 14694,2522 L 1734,2522"/>
 <path fill="none" stroke="rgb(0,0,0)" stroke-linejoin="round" d="M 14694,1028 L 1734,1028"/>
 <path fill="none" stroke="rgb(0,0,0)" stroke-linejoin="round" d="M 1734,10146 L 1734,9996"/>
 <path fill="none" stroke="rgb(0,0,0)" stroke-linejoin="round" d="M 1734,10146 L 1734,9996"/>
 <path fill="none" stroke="rgb(0,0,0)" stroke-linejoin="round" d="M 3354,10146 L 3354,9996"/>
 <path fill="none" stroke="rgb(0,0,0)" stroke-linejoin="round" d="M 3354,10146 L 3354,9996"/>
 <path fill="none" stroke="rgb(0,0,0)" stroke-linejoin="round" d="M 4974,10146 L 4974,9996"/>
 <path fill="none" stroke="rgb(0,0,0)" stroke-linejoin="round" d="M 4974,10146 L 4974,9996"/>
 <path fill="none" stroke="rgb(0,0,0)" stroke-linejoin="round" d="M 6594,10146 L 6594,9996"/>
 <path fill="none" stroke="rgb(0,0,0)" stroke-linejoin="round" d="M 6594,10146 L 6594,9996"/>
 <path fill="none" stroke="rgb(0,0,0)" stroke-linejoin="round" d="M 8214,10146 L 8214,9996"/>
 <path fill="none" stroke="rgb(0,0,0)" stroke-linejoin="round" d="M 8214,10146 L 8214,9996"/>
 <path fill="none" stroke="rgb(0,0,0)" stroke-linejoin="round" d="M 9834,10146 L 9834,9996"/>
 <path fill="none" stroke="rgb(0,0,0)" stroke-linejoin="round" d="M 9834,10146 L 9834,9996"/>
 <path fill="none" stroke="rgb(0,0,0)" stroke-linejoin="round" d="M 11454,10146 L 11454,9996"/>
 <path fill="none" stroke="rgb(0,0,0)" stroke-linejoin="round" d="M 11454,10146 L 11454,9996"/>
 <path fill="none" stroke="rgb(0,0,0)" stroke-linejoin="round" d="M 13074,10146 L 13074,9996"/>
 <path fill="none" stroke="rgb(0,0,0)" stroke-linejoin="round" d="M 13074,10146 L 13074,9996"/>
 <path fill="none" stroke="rgb(0,0,0)" stroke-linejoin="round" d="M 14694,10146 L 14694,9996"/>
 <path fill="none" stroke="rgb(0,0,0)" stroke-linejoin="round" d="M 14694,10146 L 14694,9996"/>
 <path fill="none" stroke="rgb(0,0,0)" stroke-linejoin="round" d="M 1734,9996 L 14694,9996"/>
 <path fill="none" stroke="rgb(0,0,0)" stroke-linejoin="round" d="M 1586,9996 L 1734,9996"/>
 <path fill="none" stroke="rgb(0,0,0)" stroke-linejoin="round" d="M 1586,9996 L 1734,9996"/>
 <path fill="none" stroke="rgb(0,0,0)" stroke-linejoin="round" d="M 1586,8501 L 1734,8501"/>
 <path fill="none" stroke="rgb(0,0,0)" stroke-linejoin="round" d="M 1586,8501 L 1734,8501"/>
 <path fill="none" stroke="rgb(0,0,0)" stroke-linejoin="round" d="M 1586,7006 L 1734,7006"/>
 <path fill="none" stroke="rgb(0,0,0)" stroke-linejoin="round" d="M 1586,7006 L 1734,7006"/>
 <path fill="none" stroke="rgb(0,0,0)" stroke-linejoin="round" d="M 1586,5512 L 1734,5512"/>
 <path fill="none" stroke="rgb(0,0,0)" stroke-linejoin="round" d="M 1586,5512 L 1734,5512"/>
 <path fill="none" stroke="rgb(0,0,0)" stroke-linejoin="round" d="M 1586,4017 L 1734,4017"/>
 <path fill="none" stroke="rgb(0,0,0)" stroke-linejoin="round" d="M 1586,4017 L 1734,4017"/>
 <path fill="none" stroke="rgb(0,0,0)" stroke-linejoin="round" d="M 1586,2522 L 1734,2522"/>
 <path fill="none" stroke="rgb(0,0,0)" stroke-linejoin="round" d="M 1586,2522 L 1734,2522"/>
 <path fill="none" stroke="rgb(0,0,0)" stroke-linejoin="round" d="M 1586,1028 L 1734,1028"/>
 <path fill="none" stroke="rgb(0,0,0)" stroke-linejoin="round" d="M 1586,1028 L 1734,1028"/>
 <path fill="none" stroke="rgb(0,0,0)" stroke-linejoin="round" d="M 1734,9996 L 1734,1028"/>
 <path fill="none" stroke="rgb(0,0,0)" stroke-width="49" stroke-linejoin="round" d="M 1850,8975 L 2081,7743 2312,6851 2544,6435 2776,6166 3006,5944 3238,5730 3470,5484 3701,5281 3932,5126 4164,4862 4396,4743 4626,4609 4858,4472 5090,4328 5321,4208 5552,4054 5784,3907 6016,3766 6246,3700 6478,3567 6710,3441 6941,3340 7172,3223 7404,3121 7636,3041 7866,2964 8098,2883 8330,2793 8561,2704 8792,2620 9024,2556 9256,2505 9486,2454 9718,2407 9950,2355 10181,2309 10412,2280 10644,2230 10876,2203 11106,2178 11338,2149 11570,2122 11801,2097 12032,2072 12264,2050 12496,2032 12726,2017 12958,1999 13190,1980 13421,1962 13652,1950 13884,1924 14116,1911 14346,1899 14578,1889"/>
 <path fill="rgb(0,0,0)" stroke="none" d="M 1751,8975 L 1850,9075 1948,8975 1850,8875 1751,8975 Z"/>
 <path fill="none" stroke="rgb(0,0,0)" stroke-linejoin="round" d="M 1751,8975 L 1850,9075 1948,8975 1850,8875 1751,8975 Z"/>
 <path fill="rgb(0,0,0)" stroke="none" d="M 1983,7743 L 2081,7843 2180,7743 2081,7643 1983,7743 Z"/>
 <path fill="none" stroke="rgb(0,0,0)" stroke-linejoin="round" d="M 1983,7743 L 2081,7843 2180,7743 2081,7643 1983,7743 Z"/>
 <path fill="rgb(0,0,0)" stroke="none" d="M 2214,6851 L 2312,6951 2411,6851 2312,6751 2214,6851 Z"/>
 <path fill="none" stroke="rgb(0,0,0)" stroke-linejoin="round" d="M 2214,6851 L 2312,6951 2411,6851 2312,6751 2214,6851 Z"/>
 <path fill="rgb(0,0,0)" stroke="none" d="M 2445,6435 L 2544,6535 2642,6435 2544,6335 2445,6435 Z"/>
 <path fill="none" stroke="rgb(0,0,0)" stroke-linejoin="round" d="M 2445,6435 L 2544,6535 2642,6435 2544,6335 2445,6435 Z"/>
 <path fill="rgb(0,0,0)" stroke="none" d="M 2677,6166 L 2776,6266 2874,6166 2776,6066 2677,6166 Z"/>
 <path fill="none" stroke="rgb(0,0,0)" stroke-linejoin="round" d="M 2677,6166 L 2776,6266 2874,6166 2776,6066 2677,6166 Z"/>
 <path fill="rgb(0,0,0)" stroke="none" d="M 2908,5944 L 3006,6043 3105,5944 3006,5844 2908,5944 Z"/>
 <path fill="none" stroke="rgb(0,0,0)" stroke-linejoin="round" d="M 2908,5944 L 3006,6043 3105,5944 3006,5844 2908,5944 Z"/>
 <path fill="rgb(0,0,0)" stroke="none" d="M 3139,5730 L 3238,5830 3337,5730 3238,5630 3139,5730 Z"/>
 <path fill="none" stroke="rgb(0,0,0)" stroke-linejoin="round" d="M 3139,5730 L 3238,5830 3337,5730 3238,5630 3139,5730 Z"/>
 <path fill="rgb(0,0,0)" stroke="none" d="M 3371,5484 L 3470,5584 3568,5484 3470,5384 3371,5484 Z"/>
 <path fill="none" stroke="rgb(0,0,0)" stroke-linejoin="round" d="M 3371,5484 L 3470,5584 3568,5484 3470,5384 3371,5484 Z"/>
 <path fill="rgb(0,0,0)" stroke="none" d="M 3603,5281 L 3701,5381 3800,5281 3701,5181 3603,5281 Z"/>
 <path fill="none" stroke="rgb(0,0,0)" stroke-linejoin="round" d="M 3603,5281 L 3701,5381 3800,5281 3701,5181 3603,5281 Z"/>
 <path fill="rgb(0,0,0)" stroke="none" d="M 3834,5126 L 3932,5226 4031,5126 3932,5026 3834,5126 Z"/>
 <path fill="none" stroke="rgb(0,0,0)" stroke-linejoin="round" d="M 3834,5126 L 3932,5226 4031,5126 3932,5026 3834,5126 Z"/>
 <path fill="rgb(0,0,0)" stroke="none" d="M 4065,4862 L 4164,4962 4262,4862 4164,4762 4065,4862 Z"/>
 <path fill="none" stroke="rgb(0,0,0)" stroke-linejoin="round" d="M 4065,4862 L 4164,4962 4262,4862 4164,4762 4065,4862 Z"/>
 <path fill="rgb(0,0,0)" stroke="none" d="M 4297,4743 L 4396,4843 4494,4743 4396,4643 4297,4743 Z"/>
 <path fill="none" stroke="rgb(0,0,0)" stroke-linejoin="round" d="M 4297,4743 L 4396,4843 4494,4743 4396,4643 4297,4743 Z"/>
 <path fill="rgb(0,0,0)" stroke="none" d="M 4528,4609 L 4626,4709 4725,4609 4626,4509 4528,4609 Z"/>
 <path fill="none" stroke="rgb(0,0,0)" stroke-linejoin="round" d="M 4528,4609 L 4626,4709 4725,4609 4626,4509 4528,4609 Z"/>
 <path fill="rgb(0,0,0)" stroke="none" d="M 4759,4472 L 4858,4572 4957,4472 4858,4372 4759,4472 Z"/>
 <path fill="none" stroke="rgb(0,0,0)" stroke-linejoin="round" d="M 4759,4472 L 4858,4572 4957,4472 4858,4372 4759,4472 Z"/>
 <path fill="rgb(0,0,0)" stroke="none" d="M 4991,4328 L 5090,4428 5188,4328 5090,4228 4991,4328 Z"/>
 <path fill="none" stroke="rgb(0,0,0)" stroke-linejoin="round" d="M 4991,4328 L 5090,4428 5188,4328 5090,4228 4991,4328 Z"/>
 <path fill="rgb(0,0,0)" stroke="none" d="M 5223,4208 L 5321,4308 5420,4208 5321,4108 5223,4208 Z"/>
 <path fill="none" stroke="rgb(0,0,0)" stroke-linejoin="round" d="M 5223,4208 L 5321,4308 5420,4208 5321,4108 5223,4208 Z"/>
 <path fill="rgb(0,0,0)" stroke="none" d="M 5454,4054 L 5552,4154 5651,4054 5552,3954 5454,4054 Z"/>
 <path fill="none" stroke="rgb(0,0,0)" stroke-linejoin="round" d="M 5454,4054 L 5552,4154 5651,4054 5552,3954 5454,4054 Z"/>
 <path fill="rgb(0,0,0)" stroke="none" d="M 5685,3907 L 5784,4007 5882,3907 5784,3807 5685,3907 Z"/>
 <path fill="none" stroke="rgb(0,0,0)" stroke-linejoin="round" d="M 5685,3907 L 5784,4007 5882,3907 5784,3807 5685,3907 Z"/>
 <path fill="rgb(0,0,0)" stroke="none" d="M 5917,3766 L 6016,3866 6114,3766 6016,3666 5917,3766 Z"/>
 <path fill="none" stroke="rgb(0,0,0)" stroke-linejoin="round" d="M 5917,3766 L 6016,3866 6114,3766 6016,3666 5917,3766 Z"/>
 <path fill="rgb(0,0,0)" stroke="none" d="M 6148,3700 L 6246,3800 6345,3700 6246,3600 6148,3700 Z"/>
 <path fill="none" stroke="rgb(0,0,0)" stroke-linejoin="round" d="M 6148,3700 L 6246,3800 6345,3700 6246,3600 6148,3700 Z"/>
 <path fill="rgb(0,0,0)" stroke="none" d="M 6379,3567 L 6478,3667 6577,3567 6478,3467 6379,3567 Z"/>
 <path fill="none" stroke="rgb(0,0,0)" stroke-linejoin="round" d="M 6379,3567 L 6478,3667 6577,3567 6478,3467 6379,3567 Z"/>
 <path fill="rgb(0,0,0)" stroke="none" d="M 6611,3441 L 6710,3541 6808,3441 6710,3341 6611,3441 Z"/>
 <path fill="none" stroke="rgb(0,0,0)" stroke-linejoin="round" d="M 6611,3441 L 6710,3541 6808,3441 6710,3341 6611,3441 Z"/>
 <path fill="rgb(0,0,0)" stroke="none" d="M 6843,3340 L 6941,3440 7040,3340 6941,3240 6843,3340 Z"/>
 <path fill="none" stroke="rgb(0,0,0)" stroke-linejoin="round" d="M 6843,3340 L 6941,3440 7040,3340 6941,3240 6843,3340 Z"/>
 <path fill="rgb(0,0,0)" stroke="none" d="M 7074,3223 L 7172,3323 7271,3223 7172,3123 7074,3223 Z"/>
 <path fill="none" stroke="rgb(0,0,0)" stroke-linejoin="round" d="M 7074,3223 L 7172,3323 7271,3223 7172,3123 7074,3223 Z"/>
 <path fill="rgb(0,0,0)" stroke="none" d="M 7305,3121 L 7404,3221 7502,3121 7404,3021 7305,3121 Z"/>
 <path fill="none" stroke="rgb(0,0,0)" stroke-linejoin="round" d="M 7305,3121 L 7404,3221 7502,3121 7404,3021 7305,3121 Z"/>
 <path fill="rgb(0,0,0)" stroke="none" d="M 7537,3041 L 7636,3141 7734,3041 7636,2941 7537,3041 Z"/>
 <path fill="none" stroke="rgb(0,0,0)" stroke-linejoin="round" d="M 7537,3041 L 7636,3141 7734,3041 7636,2941 7537,3041 Z"/>
 <path fill="rgb(0,0,0)" stroke="none" d="M 7768,2964 L 7866,3064 7965,2964 7866,2864 7768,2964 Z"/>
 <path fill="none" stroke="rgb(0,0,0)" stroke-linejoin="round" d="M 7768,2964 L 7866,3064 7965,2964 7866,2864 7768,2964 Z"/>
 <path fill="rgb(0,0,0)" stroke="none" d="M 7999,2883 L 8098,2983 8197,2883 8098,2783 7999,2883 Z"/>
 <path fill="none" stroke="rgb(0,0,0)" stroke-linejoin="round" d="M 7999,2883 L 8098,2983 8197,2883 8098,2783 7999,2883 Z"/>
 <path fill="rgb(0,0,0)" stroke="none" d="M 8231,2793 L 8330,2893 8428,2793 8330,2693 8231,2793 Z"/>
 <path fill="none" stroke="rgb(0,0,0)" stroke-linejoin="round" d="M 8231,2793 L 8330,2893 8428,2793 8330,2693 8231,2793 Z"/>
 <path fill="rgb(0,0,0)" stroke="none" d="M 8463,2704 L 8561,2804 8660,2704 8561,2604 8463,2704 Z"/>
 <path fill="none" stroke="rgb(0,0,0)" stroke-linejoin="round" d="M 8463,2704 L 8561,2804 8660,2704 8561,2604 8463,2704 Z"/>
 <path fill="rgb(0,0,0)" stroke="none" d="M 8694,2620 L 8792,2720 8891,2620 8792,2520 8694,2620 Z"/>
 <path fill="none" stroke="rgb(0,0,0)" stroke-linejoin="round" d="M 8694,2620 L 8792,2720 8891,2620 8792,2520 8694,2620 Z"/>
 <path fill="rgb(0,0,0)" stroke="none" d="M 8925,2556 L 9024,2656 9122,2556 9024,2456 8925,2556 Z"/>
 <path fill="none" stroke="rgb(0,0,0)" stroke-linejoin="round" d="M 8925,2556 L 9024,2656 9122,2556 9024,2456 8925,2556 Z"/>
 <path fill="rgb(0,0,0)" stroke="none" d="M 9157,2505 L 9256,2605 9354,2505 9256,2405 9157,2505 Z"/>
 <path fill="none" stroke="rgb(0,0,0)" stroke-linejoin="round" d="M 9157,2505 L 9256,2605 9354,2505 9256,2405 9157,2505 Z"/>
 <path fill="rgb(0,0,0)" stroke="none" d="M 9388,2454 L 9486,2554 9585,2454 9486,2354 9388,2454 Z"/>
 <path fill="none" stroke="rgb(0,0,0)" stroke-linejoin="round" d="M 9388,2454 L 9486,2554 9585,2454 9486,2354 9388,2454 Z"/>
 <path fill="rgb(0,0,0)" stroke="none" d="M 9619,2407 L 9718,2507 9817,2407 9718,2307 9619,2407 Z"/>
 <path fill="none" stroke="rgb(0,0,0)" stroke-linejoin="round" d="M 9619,2407 L 9718,2507 9817,2407 9718,2307 9619,2407 Z"/>
 <path fill="rgb(0,0,0)" stroke="none" d="M 9851,2355 L 9950,2455 10048,2355 9950,2255 9851,2355 Z"/>
 <path fill="none" stroke="rgb(0,0,0)" stroke-linejoin="round" d="M 9851,2355 L 9950,2455 10048,2355 9950,2255 9851,2355 Z"/>
 <path fill="rgb(0,0,0)" stroke="none" d="M 10083,2309 L 10181,2409 10280,2309 10181,2209 10083,2309 Z"/>
 <path fill="none" stroke="rgb(0,0,0)" stroke-linejoin="round" d="M 10083,2309 L 10181,2409 10280,2309 10181,2209 10083,2309 Z"/>
 <path fill="rgb(0,0,0)" stroke="none" d="M 10314,2280 L 10412,2380 10511,2280 10412,2180 10314,2280 Z"/>
 <path fill="none" stroke="rgb(0,0,0)" stroke-linejoin="round" d="M 10314,2280 L 10412,2380 10511,2280 10412,2180 10314,2280 Z"/>
 <path fill="rgb(0,0,0)" stroke="none" d="M 10545,2230 L 10644,2330 10742,2230 10644,2130 10545,2230 Z"/>
 <path fill="none" stroke="rgb(0,0,0)" stroke-linejoin="round" d="M 10545,2230 L 10644,2330 10742,2230 10644,2130 10545,2230 Z"/>
 <path fill="rgb(0,0,0)" stroke="none" d="M 10777,2203 L 10876,2303 10974,2203 10876,2103 10777,2203 Z"/>
 <path fill="none" stroke="rgb(0,0,0)" stroke-linejoin="round" d="M 10777,2203 L 10876,2303 10974,2203 10876,2103 10777,2203 Z"/>
 <path fill="rgb(0,0,0)" stroke="none" d="M 11008,2178 L 11106,2278 11205,2178 11106,2078 11008,2178 Z"/>
 <path fill="none" stroke="rgb(0,0,0)" stroke-linejoin="round" d="M 11008,2178 L 11106,2278 11205,2178 11106,2078 11008,2178 Z"/>
 <path fill="rgb(0,0,0)" stroke="none" d="M 11239,2149 L 11338,2249 11437,2149 11338,2049 11239,2149 Z"/>
 <path fill="none" stroke="rgb(0,0,0)" stroke-linejoin="round" d="M 11239,2149 L 11338,2249 11437,2149 11338,2049 11239,2149 Z"/>
 <path fill="rgb(0,0,0)" stroke="none" d="M 11471,2122 L 11570,2222 11668,2122 11570,2022 11471,2122 Z"/>
 <path fill="none" stroke="rgb(0,0,0)" stroke-linejoin="round" d="M 11471,2122 L 11570,2222 11668,2122 11570,2022 11471,2122 Z"/>
 <path fill="rgb(0,0,0)" stroke="none" d="M 11703,2097 L 11801,2197 11900,2097 11801,1997 11703,2097 Z"/>
 <path fill="none" stroke="rgb(0,0,0)" stroke-linejoin="round" d="M 11703,2097 L 11801,2197 11900,2097 11801,1997 11703,2097 Z"/>
 <path fill="rgb(0,0,0)" stroke="none" d="M 11934,2072 L 12032,2172 12131,2072 12032,1972 11934,2072 Z"/>
 <path fill="none" stroke="rgb(0,0,0)" stroke-linejoin="round" d="M 11934,2072 L 12032,2172 12131,2072 12032,1972 11934,2072 Z"/>
 <path fill="rgb(0,0,0)" stroke="none" d="M 12165,2050 L 12264,2150 12362,2050 12264,1950 12165,2050 Z"/>
 <path fill="none" stroke="rgb(0,0,0)" stroke-linejoin="round" d="M 12165,2050 L 12264,2150 12362,2050 12264,1950 12165,2050 Z"/>
 <path fill="rgb(0,0,0)" stroke="none" d="M 12397,2032 L 12496,2132 12594,2032 12496,1932 12397,2032 Z"/>
 <path fill="none" stroke="rgb(0,0,0)" stroke-linejoin="round" d="M 12397,2032 L 12496,2132 12594,2032 12496,1932 12397,2032 Z"/>
 <path fill="rgb(0,0,0)" stroke="none" d="M 12628,2017 L 12726,2117 12825,2017 12726,1917 12628,2017 Z"/>
 <path fill="none" stroke="rgb(0,0,0)" stroke-linejoin="round" d="M 12628,2017 L 12726,2117 12825,2017 12726,1917 12628,2017 Z"/>
 <path fill="rgb(0,0,0)" stroke="none" d="M 12859,1999 L 12958,2099 13057,1999 12958,1899 12859,1999 Z"/>
 <path fill="none" stroke="rgb(0,0,0)" stroke-linejoin="round" d="M 12859,1999 L 12958,2099 13057,1999 12958,1899 12859,1999 Z"/>
 <path fill="rgb(0,0,0)" stroke="none" d="M 13091,1980 L 13190,2080 13288,1980 13190,1880 13091,1980 Z"/>
 <path fill="none" stroke="rgb(0,0,0)" stroke-linejoin="round" d="M 13091,1980 L 13190,2080 13288,1980 13190,1880 13091,1980 Z"/>
 <path fill="rgb(0,0,0)" stroke="none" d="M 13323,1962 L 13421,2062 13520,1962 13421,1862 13323,1962 Z"/>
 <path fill="none" stroke="rgb(0,0,0)" stroke-linejoin="round" d="M 13323,1962 L 13421,2062 13520,1962 13421,1862 13323,1962 Z"/>
 <path fill="rgb(0,0,0)" stroke="none" d="M 13554,1950 L 13652,2050 13751,1950 13652,1850 13554,1950 Z"/>
 <path fill="none" stroke="rgb(0,0,0)" stroke-linejoin="round" d="M 13554,1950 L 13652,2050 13751,1950 13652,1850 13554,1950 Z"/>
 <path fill="rgb(0,0,0)" stroke="none" d="M 13785,1924 L 13884,2024 13982,1924 13884,1824 13785,1924 Z"/>
 <path fill="none" stroke="rgb(0,0,0)" stroke-linejoin="round" d="M 13785,1924 L 13884,2024 13982,1924 13884,1824 13785,1924 Z"/>
 <path fill="rgb(0,0,0)" stroke="none" d="M 14017,1911 L 14116,2011 14214,1911 14116,1811 14017,1911 Z"/>
 <path fill="none" stroke="rgb(0,0,0)" stroke-linejoin="round" d="M 14017,1911 L 14116,2011 14214,1911 14116,1811 14017,1911 Z"/>
 <path fill="rgb(0,0,0)" stroke="none" d="M 14248,1899 L 14346,1999 14445,1899 14346,1799 14248,1899 Z"/>
 <path fill="none" stroke="rgb(0,0,0)" stroke-linejoin="round" d="M 14248,1899 L 14346,1999 14445,1899 14346,1799 14248,1899 Z"/>
 <path fill="rgb(0,0,0)" stroke="none" d="M 14479,1889 L 14578,1989 14677,1889 14578,1789 14479,1889 Z"/>
 <path fill="none" stroke="rgb(0,0,0)" stroke-linejoin="round" d="M 14479,1889 L 14578,1989 14677,1889 14578,1789 14479,1889 Z"/>
 <path fill="none" stroke="rgb(255,66,14)" stroke-width="49" stroke-linejoin="round" d="M 3006,8788 L 3238,8007 3470,7702 3701,7252 3932,6854 4164,6625 4396,6427 4626,6249 4858,6068 5090,5953 5321,5672 5552,5566 5784,5274 6016,5019 6246,4704 6478,4528 6710,4316 6941,4085 7172,3882 7404,3688 7636,3578 7866,3451 8098,3318 8330,3173 8561,3074 8792,2930 9024,2842 9256,2746 9486,2629 9718,2510 9950,2403 10181,2317 10412,2239 10644,2183 10876,2132 11106,2066 11338,2015 11570,1965 11801,1922 12032,1885 12264,1854 12496,1833 12726,1808 12958,1780 13190,1755 13421,1735 13652,1716 13884,1699 14116,1686 14346,1674 14578,1655"/>
 <path fill="rgb(255,66,14)" stroke="none" d="M 2908,8788 L 3006,8888 3105,8788 3006,8688 2908,8788 Z"/>
 <path fill="none" stroke="rgb(255,66,14)" stroke-linejoin="round" d="M 2908,8788 L 3006,8888 3105,8788 3006,8688 2908,8788 Z"/>
 <path fill="rgb(255,66,14)" stroke="none" d="M 3139,8007 L 3238,8107 3337,8007 3238,7907 3139,8007 Z"/>
 <path fill="none" stroke="rgb(255,66,14)" stroke-linejoin="round" d="M 3139,8007 L 3238,8107 3337,8007 3238,7907 3139,8007 Z"/>
 <path fill="rgb(255,66,14)" stroke="none" d="M 3371,7702 L 3470,7802 3568,7702 3470,7602 3371,7702 Z"/>
 <path fill="none" stroke="rgb(255,66,14)" stroke-linejoin="round" d="M 3371,7702 L 3470,7802 3568,7702 3470,7602 3371,7702 Z"/>
 <path fill="rgb(255,66,14)" stroke="none" d="M 3603,7252 L 3701,7352 3800,7252 3701,7152 3603,7252 Z"/>
 <path fill="none" stroke="rgb(255,66,14)" stroke-linejoin="round" d="M 3603,7252 L 3701,7352 3800,7252 3701,7152 3603,7252 Z"/>
 <path fill="rgb(255,66,14)" stroke="none" d="M 3834,6854 L 3932,6954 4031,6854 3932,6754 3834,6854 Z"/>
 <path fill="none" stroke="rgb(255,66,14)" stroke-linejoin="round" d="M 3834,6854 L 3932,6954 4031,6854 3932,6754 3834,6854 Z"/>
 <path fill="rgb(255,66,14)" stroke="none" d="M 4065,6625 L 4164,6725 4262,6625 4164,6525 4065,6625 Z"/>
 <path fill="none" stroke="rgb(255,66,14)" stroke-linejoin="round" d="M 4065,6625 L 4164,6725 4262,6625 4164,6525 4065,6625 Z"/>
 <path fill="rgb(255,66,14)" stroke="none" d="M 4297,6427 L 4396,6527 4494,6427 4396,6327 4297,6427 Z"/>
 <path fill="none" stroke="rgb(255,66,14)" stroke-linejoin="round" d="M 4297,6427 L 4396,6527 4494,6427 4396,6327 4297,6427 Z"/>
 <path fill="rgb(255,66,14)" stroke="none" d="M 4528,6249 L 4626,6349 4725,6249 4626,6149 4528,6249 Z"/>
 <path fill="none" stroke="rgb(255,66,14)" stroke-linejoin="round" d="M 4528,6249 L 4626,6349 4725,6249 4626,6149 4528,6249 Z"/>
 <path fill="rgb(255,66,14)" stroke="none" d="M 4759,6068 L 4858,6168 4957,6068 4858,5969 4759,6068 Z"/>
 <path fill="none" stroke="rgb(255,66,14)" stroke-linejoin="round" d="M 4759,6068 L 4858,6168 4957,6068 4858,5969 4759,6068 Z"/>
 <path fill="rgb(255,66,14)" stroke="none" d="M 4991,5953 L 5090,6052 5188,5953 5090,5853 4991,5953 Z"/>
 <path fill="none" stroke="rgb(255,66,14)" stroke-linejoin="round" d="M 4991,5953 L 5090,6052 5188,5953 5090,5853 4991,5953 Z"/>
 <path fill="rgb(255,66,14)" stroke="none" d="M 5223,5672 L 5321,5772 5420,5672 5321,5572 5223,5672 Z"/>
 <path fill="none" stroke="rgb(255,66,14)" stroke-linejoin="round" d="M 5223,5672 L 5321,5772 5420,5672 5321,5572 5223,5672 Z"/>
 <path fill="rgb(255,66,14)" stroke="none" d="M 5454,5566 L 5552,5666 5651,5566 5552,5466 5454,5566 Z"/>
 <path fill="none" stroke="rgb(255,66,14)" stroke-linejoin="round" d="M 5454,5566 L 5552,5666 5651,5566 5552,5466 5454,5566 Z"/>
 <path fill="rgb(255,66,14)" stroke="none" d="M 5685,5274 L 5784,5374 5882,5274 5784,5174 5685,5274 Z"/>
 <path fill="none" stroke="rgb(255,66,14)" stroke-linejoin="round" d="M 5685,5274 L 5784,5374 5882,5274 5784,5174 5685,5274 Z"/>
 <path fill="rgb(255,66,14)" stroke="none" d="M 5917,5019 L 6016,5119 6114,5019 6016,4919 5917,5019 Z"/>
 <path fill="none" stroke="rgb(255,66,14)" stroke-linejoin="round" d="M 5917,5019 L 6016,5119 6114,5019 6016,4919 5917,5019 Z"/>
 <path fill="rgb(255,66,14)" stroke="none" d="M 6148,4704 L 6246,4804 6345,4704 6246,4604 6148,4704 Z"/>
 <path fill="none" stroke="rgb(255,66,14)" stroke-linejoin="round" d="M 6148,4704 L 6246,4804 6345,4704 6246,4604 6148,4704 Z"/>
 <path fill="rgb(255,66,14)" stroke="none" d="M 6379,4528 L 6478,4628 6577,4528 6478,4428 6379,4528 Z"/>
 <path fill="none" stroke="rgb(255,66,14)" stroke-linejoin="round" d="M 6379,4528 L 6478,4628 6577,4528 6478,4428 6379,4528 Z"/>
 <path fill="rgb(255,66,14)" stroke="none" d="M 6611,4316 L 6710,4416 6808,4316 6710,4216 6611,4316 Z"/>
 <path fill="none" stroke="rgb(255,66,14)" stroke-linejoin="round" d="M 6611,4316 L 6710,4416 6808,4316 6710,4216 6611,4316 Z"/>
 <path fill="rgb(255,66,14)" stroke="none" d="M 6843,4085 L 6941,4185 7040,4085 6941,3985 6843,4085 Z"/>
 <path fill="none" stroke="rgb(255,66,14)" stroke-linejoin="round" d="M 6843,4085 L 6941,4185 7040,4085 6941,3985 6843,4085 Z"/>
 <path fill="rgb(255,66,14)" stroke="none" d="M 7074,3882 L 7172,3982 7271,3882 7172,3782 7074,3882 Z"/>
 <path fill="none" stroke="rgb(255,66,14)" stroke-linejoin="round" d="M 7074,3882 L 7172,3982 7271,3882 7172,3782 7074,3882 Z"/>
 <path fill="rgb(255,66,14)" stroke="none" d="M 7305,3688 L 7404,3788 7502,3688 7404,3588 7305,3688 Z"/>
 <path fill="none" stroke="rgb(255,66,14)" stroke-linejoin="round" d="M 7305,3688 L 7404,3788 7502,3688 7404,3588 7305,3688 Z"/>
 <path fill="rgb(255,66,14)" stroke="none" d="M 7537,3578 L 7636,3678 7734,3578 7636,3478 7537,3578 Z"/>
 <path fill="none" stroke="rgb(255,66,14)" stroke-linejoin="round" d="M 7537,3578 L 7636,3678 7734,3578 7636,3478 7537,3578 Z"/>
 <path fill="rgb(255,66,14)" stroke="none" d="M 7768,3451 L 7866,3551 7965,3451 7866,3351 7768,3451 Z"/>
 <path fill="none" stroke="rgb(255,66,14)" stroke-linejoin="round" d="M 7768,3451 L 7866,3551 7965,3451 7866,3351 7768,3451 Z"/>
 <path fill="rgb(255,66,14)" stroke="none" d="M 7999,3318 L 8098,3418 8197,3318 8098,3218 7999,3318 Z"/>
 <path fill="none" stroke="rgb(255,66,14)" stroke-linejoin="round" d="M 7999,3318 L 8098,3418 8197,3318 8098,3218 7999,3318 Z"/>
 <path fill="rgb(255,66,14)" stroke="none" d="M 8231,3173 L 8330,3273 8428,3173 8330,3073 8231,3173 Z"/>
 <path fill="none" stroke="rgb(255,66,14)" stroke-linejoin="round" d="M 8231,3173 L 8330,3273 8428,3173 8330,3073 8231,3173 Z"/>
 <path fill="rgb(255,66,14)" stroke="none" d="M 8463,3074 L 8561,3174 8660,3074 8561,2974 8463,3074 Z"/>
 <path fill="none" stroke="rgb(255,66,14)" stroke-linejoin="round" d="M 8463,3074 L 8561,3174 8660,3074 8561,2974 8463,3074 Z"/>
 <path fill="rgb(255,66,14)" stroke="none" d="M 8694,2930 L 8792,3030 8891,2930 8792,2830 8694,2930 Z"/>
 <path fill="none" stroke="rgb(255,66,14)" stroke-linejoin="round" d="M 8694,2930 L 8792,3030 8891,2930 8792,2830 8694,2930 Z"/>
 <path fill="rgb(255,66,14)" stroke="none" d="M 8925,2842 L 9024,2942 9122,2842 9024,2742 8925,2842 Z"/>
 <path fill="none" stroke="rgb(255,66,14)" stroke-linejoin="round" d="M 8925,2842 L 9024,2942 9122,2842 9024,2742 8925,2842 Z"/>
 <path fill="rgb(255,66,14)" stroke="none" d="M 9157,2746 L 9256,2846 9354,2746 9256,2646 9157,2746 Z"/>
 <path fill="none" stroke="rgb(255,66,14)" stroke-linejoin="round" d="M 9157,2746 L 9256,2846 9354,2746 9256,2646 9157,2746 Z"/>
 <path fill="rgb(255,66,14)" stroke="none" d="M 9388,2629 L 9486,2729 9585,2629 9486,2529 9388,2629 Z"/>
 <path fill="none" stroke="rgb(255,66,14)" stroke-linejoin="round" d="M 9388,2629 L 9486,2729 9585,2629 9486,2529 9388,2629 Z"/>
 <path fill="rgb(255,66,14)" stroke="none" d="M 9619,2510 L 9718,2610 9817,2510 9718,2410 9619,2510 Z"/>
 <path fill="none" stroke="rgb(255,66,14)" stroke-linejoin="round" d="M 9619,2510 L 9718,2610 9817,2510 9718,2410 9619,2510 Z"/>
 <path fill="rgb(255,66,14)" stroke="none" d="M 9851,2403 L 9950,2503 10048,2403 9950,2303 9851,2403 Z"/>
 <path fill="none" stroke="rgb(255,66,14)" stroke-linejoin="round" d="M 9851,2403 L 9950,2503 10048,2403 9950,2303 9851,2403 Z"/>
 <path fill="rgb(255,66,14)" stroke="none" d="M 10083,2317 L 10181,2417 10280,2317 10181,2217 10083,2317 Z"/>
 <path fill="none" stroke="rgb(255,66,14)" stroke-linejoin="round" d="M 10083,2317 L 10181,2417 10280,2317 10181,2217 10083,2317 Z"/>
 <path fill="rgb(255,66,14)" stroke="none" d="M 10314,2239 L 10412,2339 10511,2239 10412,2139 10314,2239 Z"/>
 <path fill="none" stroke="rgb(255,66,14)" stroke-linejoin="round" d="M 10314,2239 L 10412,2339 10511,2239 10412,2139 10314,2239 Z"/>
 <path fill="rgb(255,66,14)" stroke="none" d="M 10545,2183 L 10644,2283 10742,2183 10644,2083 10545,2183 Z"/>
 <path fill="none" stroke="rgb(255,66,14)" stroke-linejoin="round" d="M 10545,2183 L 10644,2283 10742,2183 10644,2083 10545,2183 Z"/>
 <path fill="rgb(255,66,14)" stroke="none" d="M 10777,2132 L 10876,2232 10974,2132 10876,2032 10777,2132 Z"/>
 <path fill="none" stroke="rgb(255,66,14)" stroke-linejoin="round" d="M 10777,2132 L 10876,2232 10974,2132 10876,2032 10777,2132 Z"/>
 <path fill="rgb(255,66,14)" stroke="none" d="M 11008,2066 L 11106,2166 11205,2066 11106,1966 11008,2066 Z"/>
 <path fill="none" stroke="rgb(255,66,14)" stroke-linejoin="round" d="M 11008,2066 L 11106,2166 11205,2066 11106,1966 11008,2066 Z"/>
 <path fill="rgb(255,66,14)" stroke="none" d="M 11239,2015 L 11338,2115 11437,2015 11338,1915 11239,2015 Z"/>
 <path fill="none" stroke="rgb(255,66,14)" stroke-linejoin="round" d="M 11239,2015 L 11338,2115 11437,2015 11338,1915 11239,2015 Z"/>
 <path fill="rgb(255,66,14)" stroke="none" d="M 11471,1965 L 11570,2065 11668,1965 11570,1865 11471,1965 Z"/>
 <path fill="none" stroke="rgb(255,66,14)" stroke-linejoin="round" d="M 11471,1965 L 11570,2065 11668,1965 11570,1865 11471,1965 Z"/>
 <path fill="rgb(255,66,14)" stroke="none" d="M 11703,1922 L 11801,2022 11900,1922 11801,1822 11703,1922 Z"/>
 <path fill="none" stroke="rgb(255,66,14)" stroke-linejoin="round" d="M 11703,1922 L 11801,2022 11900,1922 11801,1822 11703,1922 Z"/>
 <path fill="rgb(255,66,14)" stroke="none" d="M 11934,1885 L 12032,1985 12131,1885 12032,1785 11934,1885 Z"/>
 <path fill="none" stroke="rgb(255,66,14)" stroke-linejoin="round" d="M 11934,1885 L 12032,1985 12131,1885 12032,1785 11934,1885 Z"/>
 <path fill="rgb(255,66,14)" stroke="none" d="M 12165,1854 L 12264,1954 12362,1854 12264,1754 12165,1854 Z"/>
 <path fill="none" stroke="rgb(255,66,14)" stroke-linejoin="round" d="M 12165,1854 L 12264,1954 12362,1854 12264,1754 12165,1854 Z"/>
 <path fill="rgb(255,66,14)" stroke="none" d="M 12397,1833 L 12496,1933 12594,1833 12496,1733 12397,1833 Z"/>
 <path fill="none" stroke="rgb(255,66,14)" stroke-linejoin="round" d="M 12397,1833 L 12496,1933 12594,1833 12496,1733 12397,1833 Z"/>
 <path fill="rgb(255,66,14)" stroke="none" d="M 12628,1808 L 12726,1908 12825,1808 12726,1708 12628,1808 Z"/>
 <path fill="none" stroke="rgb(255,66,14)" stroke-linejoin="round" d="M 12628,1808 L 12726,1908 12825,1808 12726,1708 12628,1808 Z"/>
 <path fill="rgb(255,66,14)" stroke="none" d="M 12859,1780 L 12958,1880 13057,1780 12958,1680 12859,1780 Z"/>
 <path fill="none" stroke="rgb(255,66,14)" stroke-linejoin="round" d="M 12859,1780 L 12958,1880 13057,1780 12958,1680 12859,1780 Z"/>
 <path fill="rgb(255,66,14)" stroke="none" d="M 13091,1755 L 13190,1855 13288,1755 13190,1655 13091,1755 Z"/>
 <path fill="none" stroke="rgb(255,66,14)" stroke-linejoin="round" d="M 13091,1755 L 13190,1855 13288,1755 13190,1655 13091,1755 Z"/>
 <path fill="rgb(255,66,14)" stroke="none" d="M 13323,1735 L 13421,1835 13520,1735 13421,1635 13323,1735 Z"/>
 <path fill="none" stroke="rgb(255,66,14)" stroke-linejoin="round" d="M 13323,1735 L 13421,1835 13520,1735 13421,1635 13323,1735 Z"/>
 <path fill="rgb(255,66,14)" stroke="none" d="M 13554,1716 L 13652,1816 13751,1716 13652,1616 13554,1716 Z"/>
 <path fill="none" stroke="rgb(255,66,14)" stroke-linejoin="round" d="M 13554,1716 L 13652,1816 13751,1716 13652,1616 13554,1716 Z"/>
 <path fill="rgb(255,66,14)" stroke="none" d="M 13785,1699 L 13884,1799 13982,1699 13884,1599 13785,1699 Z"/>
 <path fill="none" stroke="rgb(255,66,14)" stroke-linejoin="round" d="M 13785,1699 L 13884,1799 13982,1699 13884,1599 13785,1699 Z"/>
 <path fill="rgb(255,66,14)" stroke="none" d="M 14017,1686 L 14116,1786 14214,1686 14116,1586 14017,1686 Z"/>
 <path fill="none" stroke="rgb(255,66,14)" stroke-linejoin="round" d="M 14017,1686 L 14116,1786 14214,1686 14116,1586 14017,1686 Z"/>
 <path fill="rgb(255,66,14)" stroke="none" d="M 14248,1674 L 14346,1774 14445,1674 14346,1574 14248,1674 Z"/>
 <path fill="none" stroke="rgb(255,66,14)" stroke-linejoin="round" d="M 14248,1674 L 14346,1774 14445,1674 14346,1574 14248,1674 Z"/>
 <path fill="rgb(255,66,14)" stroke="none" d="M 14479,1655 L 14578,1755 14677,1655 14578,1555 14479,1655 Z"/>
 <path fill="none" stroke="rgb(255,66,14)" stroke-linejoin="round" d="M 14479,1655 L 14578,1755 14677,1655 14578,1555 14479,1655 Z"/>
 <path fill="none" stroke="rgb(255,211,32)" stroke-width="49" stroke-linejoin="round" d="M 3006,8074 L 3238,7863 3470,7378 3701,7114 3932,6749 4164,6579 4396,6329 4626,6262 4858,6069 5090,5814 5321,5573 5552,5290 5784,5178 6016,5032 6246,4880 6478,4720 6710,4570 6941,4413 7172,4279 7404,4161 7636,4027 7866,3928 8098,3820 8330,3699 8561,3610 8792,3521 9024,3455 9256,3315 9486,3240 9718,3160 9950,3066 10181,2986 10412,2901 10644,2858 10876,2791 11106,2689 11338,2631 11570,2607 11801,2552 12032,2510 12264,2493 12496,2458 12726,2426 12958,2394 13190,2361 13421,2329 13652,2307 13884,2296 14116,2278 14346,2243 14578,2227"/>
 <path fill="rgb(255,211,32)" stroke="none" d="M 2908,7974 L 3006,8174 3105,7974 2908,7974 Z"/>
 <path fill="none" stroke="rgb(255,211,32)" stroke-linejoin="round" d="M 2908,7974 L 3006,8174 3105,7974 2908,7974 Z"/>
 <path fill="rgb(255,211,32)" stroke="none" d="M 3139,7763 L 3238,7963 3337,7763 3139,7763 Z"/>
 <path fill="none" stroke="rgb(255,211,32)" stroke-linejoin="round" d="M 3139,7763 L 3238,7963 3337,7763 3139,7763 Z"/>
 <path fill="rgb(255,211,32)" stroke="none" d="M 3371,7278 L 3470,7478 3568,7278 3371,7278 Z"/>
 <path fill="none" stroke="rgb(255,211,32)" stroke-linejoin="round" d="M 3371,7278 L 3470,7478 3568,7278 3371,7278 Z"/>
 <path fill="rgb(255,211,32)" stroke="none" d="M 3603,7014 L 3701,7214 3800,7014 3603,7014 Z"/>
 <path fill="none" stroke="rgb(255,211,32)" stroke-linejoin="round" d="M 3603,7014 L 3701,7214 3800,7014 3603,7014 Z"/>
 <path fill="rgb(255,211,32)" stroke="none" d="M 3834,6649 L 3932,6849 4031,6649 3834,6649 Z"/>
 <path fill="none" stroke="rgb(255,211,32)" stroke-linejoin="round" d="M 3834,6649 L 3932,6849 4031,6649 3834,6649 Z"/>
 <path fill="rgb(255,211,32)" stroke="none" d="M 4065,6479 L 4164,6679 4262,6479 4065,6479 Z"/>
 <path fill="none" stroke="rgb(255,211,32)" stroke-linejoin="round" d="M 4065,6479 L 4164,6679 4262,6479 4065,6479 Z"/>
 <path fill="rgb(255,211,32)" stroke="none" d="M 4297,6229 L 4396,6429 4494,6229 4297,6229 Z"/>
 <path fill="none" stroke="rgb(255,211,32)" stroke-linejoin="round" d="M 4297,6229 L 4396,6429 4494,6229 4297,6229 Z"/>
 <path fill="rgb(255,211,32)" stroke="none" d="M 4528,6162 L 4626,6362 4725,6162 4528,6162 Z"/>
 <path fill="none" stroke="rgb(255,211,32)" stroke-linejoin="round" d="M 4528,6162 L 4626,6362 4725,6162 4528,6162 Z"/>
 <path fill="rgb(255,211,32)" stroke="none" d="M 4759,5970 L 4858,6169 4957,5970 4759,5970 Z"/>
 <path fill="none" stroke="rgb(255,211,32)" stroke-linejoin="round" d="M 4759,5970 L 4858,6169 4957,5970 4759,5970 Z"/>
 <path fill="rgb(255,211,32)" stroke="none" d="M 4991,5714 L 5090,5914 5188,5714 4991,5714 Z"/>
 <path fill="none" stroke="rgb(255,211,32)" stroke-linejoin="round" d="M 4991,5714 L 5090,5914 5188,5714 4991,5714 Z"/>
 <path fill="rgb(255,211,32)" stroke="none" d="M 5223,5473 L 5321,5673 5420,5473 5223,5473 Z"/>
 <path fill="none" stroke="rgb(255,211,32)" stroke-linejoin="round" d="M 5223,5473 L 5321,5673 5420,5473 5223,5473 Z"/>
 <path fill="rgb(255,211,32)" stroke="none" d="M 5454,5190 L 5552,5390 5651,5190 5454,5190 Z"/>
 <path fill="none" stroke="rgb(255,211,32)" stroke-linejoin="round" d="M 5454,5190 L 5552,5390 5651,5190 5454,5190 Z"/>
 <path fill="rgb(255,211,32)" stroke="none" d="M 5685,5078 L 5784,5278 5882,5078 5685,5078 Z"/>
 <path fill="none" stroke="rgb(255,211,32)" stroke-linejoin="round" d="M 5685,5078 L 5784,5278 5882,5078 5685,5078 Z"/>
 <path fill="rgb(255,211,32)" stroke="none" d="M 5917,4932 L 6016,5132 6114,4932 5917,4932 Z"/>
 <path fill="none" stroke="rgb(255,211,32)" stroke-linejoin="round" d="M 5917,4932 L 6016,5132 6114,4932 5917,4932 Z"/>
 <path fill="rgb(255,211,32)" stroke="none" d="M 6148,4780 L 6246,4980 6345,4780 6148,4780 Z"/>
 <path fill="none" stroke="rgb(255,211,32)" stroke-linejoin="round" d="M 6148,4780 L 6246,4980 6345,4780 6148,4780 Z"/>
 <path fill="rgb(255,211,32)" stroke="none" d="M 6379,4620 L 6478,4820 6577,4620 6379,4620 Z"/>
 <path fill="none" stroke="rgb(255,211,32)" stroke-linejoin="round" d="M 6379,4620 L 6478,4820 6577,4620 6379,4620 Z"/>
 <path fill="rgb(255,211,32)" stroke="none" d="M 6611,4470 L 6710,4670 6808,4470 6611,4470 Z"/>
 <path fill="none" stroke="rgb(255,211,32)" stroke-linejoin="round" d="M 6611,4470 L 6710,4670 6808,4470 6611,4470 Z"/>
 <path fill="rgb(255,211,32)" stroke="none" d="M 6843,4313 L 6941,4513 7040,4313 6843,4313 Z"/>
 <path fill="none" stroke="rgb(255,211,32)" stroke-linejoin="round" d="M 6843,4313 L 6941,4513 7040,4313 6843,4313 Z"/>
 <path fill="rgb(255,211,32)" stroke="none" d="M 7074,4179 L 7172,4379 7271,4179 7074,4179 Z"/>
 <path fill="none" stroke="rgb(255,211,32)" stroke-linejoin="round" d="M 7074,4179 L 7172,4379 7271,4179 7074,4179 Z"/>
 <path fill="rgb(255,211,32)" stroke="none" d="M 7305,4061 L 7404,4261 7502,4061 7305,4061 Z"/>
 <path fill="none" stroke="rgb(255,211,32)" stroke-linejoin="round" d="M 7305,4061 L 7404,4261 7502,4061 7305,4061 Z"/>
 <path fill="rgb(255,211,32)" stroke="none" d="M 7537,3927 L 7636,4127 7734,3927 7537,3927 Z"/>
 <path fill="none" stroke="rgb(255,211,32)" stroke-linejoin="round" d="M 7537,3927 L 7636,4127 7734,3927 7537,3927 Z"/>
 <path fill="rgb(255,211,32)" stroke="none" d="M 7768,3828 L 7866,4028 7965,3828 7768,3828 Z"/>
 <path fill="none" stroke="rgb(255,211,32)" stroke-linejoin="round" d="M 7768,3828 L 7866,4028 7965,3828 7768,3828 Z"/>
 <path fill="rgb(255,211,32)" stroke="none" d="M 7999,3720 L 8098,3920 8197,3720 7999,3720 Z"/>
 <path fill="none" stroke="rgb(255,211,32)" stroke-linejoin="round" d="M 7999,3720 L 8098,3920 8197,3720 7999,3720 Z"/>
 <path fill="rgb(255,211,32)" stroke="none" d="M 8231,3599 L 8330,3799 8428,3599 8231,3599 Z"/>
 <path fill="none" stroke="rgb(255,211,32)" stroke-linejoin="round" d="M 8231,3599 L 8330,3799 8428,3599 8231,3599 Z"/>
 <path fill="rgb(255,211,32)" stroke="none" d="M 8463,3510 L 8561,3710 8660,3510 8463,3510 Z"/>
 <path fill="none" stroke="rgb(255,211,32)" stroke-linejoin="round" d="M 8463,3510 L 8561,3710 8660,3510 8463,3510 Z"/>
 <path fill="rgb(255,211,32)" stroke="none" d="M 8694,3421 L 8792,3621 8891,3421 8694,3421 Z"/>
 <path fill="none" stroke="rgb(255,211,32)" stroke-linejoin="round" d="M 8694,3421 L 8792,3621 8891,3421 8694,3421 Z"/>
 <path fill="rgb(255,211,32)" stroke="none" d="M 8925,3355 L 9024,3555 9122,3355 8925,3355 Z"/>
 <path fill="none" stroke="rgb(255,211,32)" stroke-linejoin="round" d="M 8925,3355 L 9024,3555 9122,3355 8925,3355 Z"/>
 <path fill="rgb(255,211,32)" stroke="none" d="M 9157,3215 L 9256,3415 9354,3215 9157,3215 Z"/>
 <path fill="none" stroke="rgb(255,211,32)" stroke-linejoin="round" d="M 9157,3215 L 9256,3415 9354,3215 9157,3215 Z"/>
 <path fill="rgb(255,211,32)" stroke="none" d="M 9388,3140 L 9486,3340 9585,3140 9388,3140 Z"/>
 <path fill="none" stroke="rgb(255,211,32)" stroke-linejoin="round" d="M 9388,3140 L 9486,3340 9585,3140 9388,3140 Z"/>
 <path fill="rgb(255,211,32)" stroke="none" d="M 9619,3060 L 9718,3260 9817,3060 9619,3060 Z"/>
 <path fill="none" stroke="rgb(255,211,32)" stroke-linejoin="round" d="M 9619,3060 L 9718,3260 9817,3060 9619,3060 Z"/>
 <path fill="rgb(255,211,32)" stroke="none" d="M 9851,2966 L 9950,3166 10048,2966 9851,2966 Z"/>
 <path fill="none" stroke="rgb(255,211,32)" stroke-linejoin="round" d="M 9851,2966 L 9950,3166 10048,2966 9851,2966 Z"/>
 <path fill="rgb(255,211,32)" stroke="none" d="M 10083,2886 L 10181,3086 10280,2886 10083,2886 Z"/>
 <path fill="none" stroke="rgb(255,211,32)" stroke-linejoin="round" d="M 10083,2886 L 10181,3086 10280,2886 10083,2886 Z"/>
 <path fill="rgb(255,211,32)" stroke="none" d="M 10314,2801 L 10412,3001 10511,2801 10314,2801 Z"/>
 <path fill="none" stroke="rgb(255,211,32)" stroke-linejoin="round" d="M 10314,2801 L 10412,3001 10511,2801 10314,2801 Z"/>
 <path fill="rgb(255,211,32)" stroke="none" d="M 10545,2758 L 10644,2958 10742,2758 10545,2758 Z"/>
 <path fill="none" stroke="rgb(255,211,32)" stroke-linejoin="round" d="M 10545,2758 L 10644,2958 10742,2758 10545,2758 Z"/>
 <path fill="rgb(255,211,32)" stroke="none" d="M 10777,2691 L 10876,2891 10974,2691 10777,2691 Z"/>
 <path fill="none" stroke="rgb(255,211,32)" stroke-linejoin="round" d="M 10777,2691 L 10876,2891 10974,2691 10777,2691 Z"/>
 <path fill="rgb(255,211,32)" stroke="none" d="M 11008,2589 L 11106,2789 11205,2589 11008,2589 Z"/>
 <path fill="none" stroke="rgb(255,211,32)" stroke-linejoin="round" d="M 11008,2589 L 11106,2789 11205,2589 11008,2589 Z"/>
 <path fill="rgb(255,211,32)" stroke="none" d="M 11239,2531 L 11338,2731 11437,2531 11239,2531 Z"/>
 <path fill="none" stroke="rgb(255,211,32)" stroke-linejoin="round" d="M 11239,2531 L 11338,2731 11437,2531 11239,2531 Z"/>
 <path fill="rgb(255,211,32)" stroke="none" d="M 11471,2507 L 11570,2707 11668,2507 11471,2507 Z"/>
 <path fill="none" stroke="rgb(255,211,32)" stroke-linejoin="round" d="M 11471,2507 L 11570,2707 11668,2507 11471,2507 Z"/>
 <path fill="rgb(255,211,32)" stroke="none" d="M 11703,2452 L 11801,2652 11900,2452 11703,2452 Z"/>
 <path fill="none" stroke="rgb(255,211,32)" stroke-linejoin="round" d="M 11703,2452 L 11801,2652 11900,2452 11703,2452 Z"/>
 <path fill="rgb(255,211,32)" stroke="none" d="M 11934,2410 L 12032,2610 12131,2410 11934,2410 Z"/>
 <path fill="none" stroke="rgb(255,211,32)" stroke-linejoin="round" d="M 11934,2410 L 12032,2610 12131,2410 11934,2410 Z"/>
 <path fill="rgb(255,211,32)" stroke="none" d="M 12165,2393 L 12264,2593 12362,2393 12165,2393 Z"/>
 <path fill="none" stroke="rgb(255,211,32)" stroke-linejoin="round" d="M 12165,2393 L 12264,2593 12362,2393 12165,2393 Z"/>
 <path fill="rgb(255,211,32)" stroke="none" d="M 12397,2358 L 12496,2558 12594,2358 12397,2358 Z"/>
 <path fill="none" stroke="rgb(255,211,32)" stroke-linejoin="round" d="M 12397,2358 L 12496,2558 12594,2358 12397,2358 Z"/>
 <path fill="rgb(255,211,32)" stroke="none" d="M 12628,2326 L 12726,2526 12825,2326 12628,2326 Z"/>
 <path fill="none" stroke="rgb(255,211,32)" stroke-linejoin="round" d="M 12628,2326 L 12726,2526 12825,2326 12628,2326 Z"/>
 <path fill="rgb(255,211,32)" stroke="none" d="M 12859,2294 L 12958,2494 13057,2294 12859,2294 Z"/>
 <path fill="none" stroke="rgb(255,211,32)" stroke-linejoin="round" d="M 12859,2294 L 12958,2494 13057,2294 12859,2294 Z"/>
 <path fill="rgb(255,211,32)" stroke="none" d="M 13091,2261 L 13190,2461 13288,2261 13091,2261 Z"/>
 <path fill="none" stroke="rgb(255,211,32)" stroke-linejoin="round" d="M 13091,2261 L 13190,2461 13288,2261 13091,2261 Z"/>
 <path fill="rgb(255,211,32)" stroke="none" d="M 13323,2229 L 13421,2429 13520,2229 13323,2229 Z"/>
 <path fill="none" stroke="rgb(255,211,32)" stroke-linejoin="round" d="M 13323,2229 L 13421,2429 13520,2229 13323,2229 Z"/>
 <path fill="rgb(255,211,32)" stroke="none" d="M 13554,2207 L 13652,2407 13751,2207 13554,2207 Z"/>
 <path fill="none" stroke="rgb(255,211,32)" stroke-linejoin="round" d="M 13554,2207 L 13652,2407 13751,2207 13554,2207 Z"/>
 <path fill="rgb(255,211,32)" stroke="none" d="M 13785,2196 L 13884,2396 13982,2196 13785,2196 Z"/>
 <path fill="none" stroke="rgb(255,211,32)" stroke-linejoin="round" d="M 13785,2196 L 13884,2396 13982,2196 13785,2196 Z"/>
 <path fill="rgb(255,211,32)" stroke="none" d="M 14017,2178 L 14116,2378 14214,2178 14017,2178 Z"/>
 <path fill="none" stroke="rgb(255,211,32)" stroke-linejoin="round" d="M 14017,2178 L 14116,2378 14214,2178 14017,2178 Z"/>
 <path fill="rgb(255,211,32)" stroke="none" d="M 14248,2143 L 14346,2343 14445,2143 14248,2143 Z"/>
 <path fill="none" stroke="rgb(255,211,32)" stroke-linejoin="round" d="M 14248,2143 L 14346,2343 14445,2143 14248,2143 Z"/>
 <path fill="rgb(255,211,32)" stroke="none" d="M 14479,2127 L 14578,2327 14677,2127 14479,2127 Z"/>
 <path fill="none" stroke="rgb(255,211,32)" stroke-linejoin="round" d="M 14479,2127 L 14578,2327 14677,2127 14479,2127 Z"/>
 <path fill="none" stroke="rgb(87,157,28)" stroke-width="49" stroke-linejoin="round" d="M 3006,7978 L 3238,7878 3470,7739 3701,7277 3932,7134 4164,6763 4396,6597 4626,6455 4858,6296 5090,6053 5321,5778 5552,5617 5784,5479 6016,5302 6246,5080 6478,4932 6710,4715 6941,4526 7172,4382 7404,4228 7636,4206 7866,4093 8098,4005 8330,3814 8561,3660 8792,3545 9024,3473 9256,3345 9486,3221 9718,3130 9950,3035 10181,2940 10412,2850 10644,2799 10876,2743 11106,2692 11338,2638 11570,2581 11801,2529 12032,2481 12264,2437 12496,2412 12726,2386 12958,2361 13190,2330 13421,2299 13652,2276 13884,2260 14116,2247 14346,2236 14578,2223"/>
 <path fill="rgb(87,157,28)" stroke="none" d="M 2908,8078 L 3105,8078 3006,7878 2908,8078 Z"/>
 <path fill="none" stroke="rgb(87,157,28)" stroke-linejoin="round" d="M 2908,8078 L 3105,8078 3006,7878 2908,8078 Z"/>
 <path fill="rgb(87,157,28)" stroke="none" d="M 3139,7978 L 3337,7978 3238,7778 3139,7978 Z"/>
 <path fill="none" stroke="rgb(87,157,28)" stroke-linejoin="round" d="M 3139,7978 L 3337,7978 3238,7778 3139,7978 Z"/>
 <path fill="rgb(87,157,28)" stroke="none" d="M 3371,7839 L 3568,7839 3470,7639 3371,7839 Z"/>
 <path fill="none" stroke="rgb(87,157,28)" stroke-linejoin="round" d="M 3371,7839 L 3568,7839 3470,7639 3371,7839 Z"/>
 <path fill="rgb(87,157,28)" stroke="none" d="M 3603,7377 L 3800,7377 3701,7177 3603,7377 Z"/>
 <path fill="none" stroke="rgb(87,157,28)" stroke-linejoin="round" d="M 3603,7377 L 3800,7377 3701,7177 3603,7377 Z"/>
 <path fill="rgb(87,157,28)" stroke="none" d="M 3834,7234 L 4031,7234 3932,7034 3834,7234 Z"/>
 <path fill="none" stroke="rgb(87,157,28)" stroke-linejoin="round" d="M 3834,7234 L 4031,7234 3932,7034 3834,7234 Z"/>
 <path fill="rgb(87,157,28)" stroke="none" d="M 4065,6863 L 4262,6863 4164,6663 4065,6863 Z"/>
 <path fill="none" stroke="rgb(87,157,28)" stroke-linejoin="round" d="M 4065,6863 L 4262,6863 4164,6663 4065,6863 Z"/>
 <path fill="rgb(87,157,28)" stroke="none" d="M 4297,6697 L 4494,6697 4396,6497 4297,6697 Z"/>
 <path fill="none" stroke="rgb(87,157,28)" stroke-linejoin="round" d="M 4297,6697 L 4494,6697 4396,6497 4297,6697 Z"/>
 <path fill="rgb(87,157,28)" stroke="none" d="M 4528,6555 L 4725,6555 4626,6355 4528,6555 Z"/>
 <path fill="none" stroke="rgb(87,157,28)" stroke-linejoin="round" d="M 4528,6555 L 4725,6555 4626,6355 4528,6555 Z"/>
 <path fill="rgb(87,157,28)" stroke="none" d="M 4759,6396 L 4957,6396 4858,6196 4759,6396 Z"/>
 <path fill="none" stroke="rgb(87,157,28)" stroke-linejoin="round" d="M 4759,6396 L 4957,6396 4858,6196 4759,6396 Z"/>
 <path fill="rgb(87,157,28)" stroke="none" d="M 4991,6153 L 5188,6153 5090,5954 4991,6153 Z"/>
 <path fill="none" stroke="rgb(87,157,28)" stroke-linejoin="round" d="M 4991,6153 L 5188,6153 5090,5954 4991,6153 Z"/>
 <path fill="rgb(87,157,28)" stroke="none" d="M 5223,5878 L 5420,5878 5321,5678 5223,5878 Z"/>
 <path fill="none" stroke="rgb(87,157,28)" stroke-linejoin="round" d="M 5223,5878 L 5420,5878 5321,5678 5223,5878 Z"/>
 <path fill="rgb(87,157,28)" stroke="none" d="M 5454,5717 L 5651,5717 5552,5517 5454,5717 Z"/>
 <path fill="none" stroke="rgb(87,157,28)" stroke-linejoin="round" d="M 5454,5717 L 5651,5717 5552,5517 5454,5717 Z"/>
 <path fill="rgb(87,157,28)" stroke="none" d="M 5685,5579 L 5882,5579 5784,5379 5685,5579 Z"/>
 <path fill="none" stroke="rgb(87,157,28)" stroke-linejoin="round" d="M 5685,5579 L 5882,5579 5784,5379 5685,5579 Z"/>
 <path fill="rgb(87,157,28)" stroke="none" d="M 5917,5402 L 6114,5402 6016,5202 5917,5402 Z"/>
 <path fill="none" stroke="rgb(87,157,28)" stroke-linejoin="round" d="M 5917,5402 L 6114,5402 6016,5202 5917,5402 Z"/>
 <path fill="rgb(87,157,28)" stroke="none" d="M 6148,5180 L 6345,5180 6246,4980 6148,5180 Z"/>
 <path fill="none" stroke="rgb(87,157,28)" stroke-linejoin="round" d="M 6148,5180 L 6345,5180 6246,4980 6148,5180 Z"/>
 <path fill="rgb(87,157,28)" stroke="none" d="M 6379,5032 L 6577,5032 6478,4832 6379,5032 Z"/>
 <path fill="none" stroke="rgb(87,157,28)" stroke-linejoin="round" d="M 6379,5032 L 6577,5032 6478,4832 6379,5032 Z"/>
 <path fill="rgb(87,157,28)" stroke="none" d="M 6611,4815 L 6808,4815 6710,4615 6611,4815 Z"/>
 <path fill="none" stroke="rgb(87,157,28)" stroke-linejoin="round" d="M 6611,4815 L 6808,4815 6710,4615 6611,4815 Z"/>
 <path fill="rgb(87,157,28)" stroke="none" d="M 6843,4626 L 7040,4626 6941,4426 6843,4626 Z"/>
 <path fill="none" stroke="rgb(87,157,28)" stroke-linejoin="round" d="M 6843,4626 L 7040,4626 6941,4426 6843,4626 Z"/>
 <path fill="rgb(87,157,28)" stroke="none" d="M 7074,4482 L 7271,4482 7172,4282 7074,4482 Z"/>
 <path fill="none" stroke="rgb(87,157,28)" stroke-linejoin="round" d="M 7074,4482 L 7271,4482 7172,4282 7074,4482 Z"/>
 <path fill="rgb(87,157,28)" stroke="none" d="M 7305,4328 L 7502,4328 7404,4128 7305,4328 Z"/>
 <path fill="none" stroke="rgb(87,157,28)" stroke-linejoin="round" d="M 7305,4328 L 7502,4328 7404,4128 7305,4328 Z"/>
 <path fill="rgb(87,157,28)" stroke="none" d="M 7537,4306 L 7734,4306 7636,4106 7537,4306 Z"/>
 <path fill="none" stroke="rgb(87,157,28)" stroke-linejoin="round" d="M 7537,4306 L 7734,4306 7636,4106 7537,4306 Z"/>
 <path fill="rgb(87,157,28)" stroke="none" d="M 7768,4193 L 7965,4193 7866,3993 7768,4193 Z"/>
 <path fill="none" stroke="rgb(87,157,28)" stroke-linejoin="round" d="M 7768,4193 L 7965,4193 7866,3993 7768,4193 Z"/>
 <path fill="rgb(87,157,28)" stroke="none" d="M 7999,4105 L 8197,4105 8098,3905 7999,4105 Z"/>
 <path fill="none" stroke="rgb(87,157,28)" stroke-linejoin="round" d="M 7999,4105 L 8197,4105 8098,3905 7999,4105 Z"/>
 <path fill="rgb(87,157,28)" stroke="none" d="M 8231,3914 L 8428,3914 8330,3714 8231,3914 Z"/>
 <path fill="none" stroke="rgb(87,157,28)" stroke-linejoin="round" d="M 8231,3914 L 8428,3914 8330,3714 8231,3914 Z"/>
 <path fill="rgb(87,157,28)" stroke="none" d="M 8463,3760 L 8660,3760 8561,3560 8463,3760 Z"/>
 <path fill="none" stroke="rgb(87,157,28)" stroke-linejoin="round" d="M 8463,3760 L 8660,3760 8561,3560 8463,3760 Z"/>
 <path fill="rgb(87,157,28)" stroke="none" d="M 8694,3645 L 8891,3645 8792,3445 8694,3645 Z"/>
 <path fill="none" stroke="rgb(87,157,28)" stroke-linejoin="round" d="M 8694,3645 L 8891,3645 8792,3445 8694,3645 Z"/>
 <path fill="rgb(87,157,28)" stroke="none" d="M 8925,3573 L 9122,3573 9024,3373 8925,3573 Z"/>
 <path fill="none" stroke="rgb(87,157,28)" stroke-linejoin="round" d="M 8925,3573 L 9122,3573 9024,3373 8925,3573 Z"/>
 <path fill="rgb(87,157,28)" stroke="none" d="M 9157,3445 L 9354,3445 9256,3245 9157,3445 Z"/>
 <path fill="none" stroke="rgb(87,157,28)" stroke-linejoin="round" d="M 9157,3445 L 9354,3445 9256,3245 9157,3445 Z"/>
 <path fill="rgb(87,157,28)" stroke="none" d="M 9388,3321 L 9585,3321 9486,3121 9388,3321 Z"/>
 <path fill="none" stroke="rgb(87,157,28)" stroke-linejoin="round" d="M 9388,3321 L 9585,3321 9486,3121 9388,3321 Z"/>
 <path fill="rgb(87,157,28)" stroke="none" d="M 9619,3230 L 9817,3230 9718,3030 9619,3230 Z"/>
 <path fill="none" stroke="rgb(87,157,28)" stroke-linejoin="round" d="M 9619,3230 L 9817,3230 9718,3030 9619,3230 Z"/>
 <path fill="rgb(87,157,28)" stroke="none" d="M 9851,3135 L 10048,3135 9950,2935 9851,3135 Z"/>
 <path fill="none" stroke="rgb(87,157,28)" stroke-linejoin="round" d="M 9851,3135 L 10048,3135 9950,2935 9851,3135 Z"/>
 <path fill="rgb(87,157,28)" stroke="none" d="M 10083,3040 L 10280,3040 10181,2840 10083,3040 Z"/>
 <path fill="none" stroke="rgb(87,157,28)" stroke-linejoin="round" d="M 10083,3040 L 10280,3040 10181,2840 10083,3040 Z"/>
 <path fill="rgb(87,157,28)" stroke="none" d="M 10314,2950 L 10511,2950 10412,2750 10314,2950 Z"/>
 <path fill="none" stroke="rgb(87,157,28)" stroke-linejoin="round" d="M 10314,2950 L 10511,2950 10412,2750 10314,2950 Z"/>
 <path fill="rgb(87,157,28)" stroke="none" d="M 10545,2899 L 10742,2899 10644,2699 10545,2899 Z"/>
 <path fill="none" stroke="rgb(87,157,28)" stroke-linejoin="round" d="M 10545,2899 L 10742,2899 10644,2699 10545,2899 Z"/>
 <path fill="rgb(87,157,28)" stroke="none" d="M 10777,2843 L 10974,2843 10876,2643 10777,2843 Z"/>
 <path fill="none" stroke="rgb(87,157,28)" stroke-linejoin="round" d="M 10777,2843 L 10974,2843 10876,2643 10777,2843 Z"/>
 <path fill="rgb(87,157,28)" stroke="none" d="M 11008,2792 L 11205,2792 11106,2592 11008,2792 Z"/>
 <path fill="none" stroke="rgb(87,157,28)" stroke-linejoin="round" d="M 11008,2792 L 11205,2792 11106,2592 11008,2792 Z"/>
 <path fill="rgb(87,157,28)" stroke="none" d="M 11239,2738 L 11437,2738 11338,2538 11239,2738 Z"/>
 <path fill="none" stroke="rgb(87,157,28)" stroke-linejoin="round" d="M 11239,2738 L 11437,2738 11338,2538 11239,2738 Z"/>
 <path fill="rgb(87,157,28)" stroke="none" d="M 11471,2681 L 11668,2681 11570,2481 11471,2681 Z"/>
 <path fill="none" stroke="rgb(87,157,28)" stroke-linejoin="round" d="M 11471,2681 L 11668,2681 11570,2481 11471,2681 Z"/>
 <path fill="rgb(87,157,28)" stroke="none" d="M 11703,2629 L 11900,2629 11801,2429 11703,2629 Z"/>
 <path fill="none" stroke="rgb(87,157,28)" stroke-linejoin="round" d="M 11703,2629 L 11900,2629 11801,2429 11703,2629 Z"/>
 <path fill="rgb(87,157,28)" stroke="none" d="M 11934,2581 L 12131,2581 12032,2381 11934,2581 Z"/>
 <path fill="none" stroke="rgb(87,157,28)" stroke-linejoin="round" d="M 11934,2581 L 12131,2581 12032,2381 11934,2581 Z"/>
 <path fill="rgb(87,157,28)" stroke="none" d="M 12165,2537 L 12362,2537 12264,2337 12165,2537 Z"/>
 <path fill="none" stroke="rgb(87,157,28)" stroke-linejoin="round" d="M 12165,2537 L 12362,2537 12264,2337 12165,2537 Z"/>
 <path fill="rgb(87,157,28)" stroke="none" d="M 12397,2512 L 12594,2512 12496,2312 12397,2512 Z"/>
 <path fill="none" stroke="rgb(87,157,28)" stroke-linejoin="round" d="M 12397,2512 L 12594,2512 12496,2312 12397,2512 Z"/>
 <path fill="rgb(87,157,28)" stroke="none" d="M 12628,2486 L 12825,2486 12726,2286 12628,2486 Z"/>
 <path fill="none" stroke="rgb(87,157,28)" stroke-linejoin="round" d="M 12628,2486 L 12825,2486 12726,2286 12628,2486 Z"/>
 <path fill="rgb(87,157,28)" stroke="none" d="M 12859,2461 L 13057,2461 12958,2261 12859,2461 Z"/>
 <path fill="none" stroke="rgb(87,157,28)" stroke-linejoin="round" d="M 12859,2461 L 13057,2461 12958,2261 12859,2461 Z"/>
 <path fill="rgb(87,157,28)" stroke="none" d="M 13091,2430 L 13288,2430 13190,2230 13091,2430 Z"/>
 <path fill="none" stroke="rgb(87,157,28)" stroke-linejoin="round" d="M 13091,2430 L 13288,2430 13190,2230 13091,2430 Z"/>
 <path fill="rgb(87,157,28)" stroke="none" d="M 13323,2399 L 13520,2399 13421,2199 13323,2399 Z"/>
 <path fill="none" stroke="rgb(87,157,28)" stroke-linejoin="round" d="M 13323,2399 L 13520,2399 13421,2199 13323,2399 Z"/>
 <path fill="rgb(87,157,28)" stroke="none" d="M 13554,2376 L 13751,2376 13652,2176 13554,2376 Z"/>
 <path fill="none" stroke="rgb(87,157,28)" stroke-linejoin="round" d="M 13554,2376 L 13751,2376 13652,2176 13554,2376 Z"/>
 <path fill="rgb(87,157,28)" stroke="none" d="M 13785,2360 L 13982,2360 13884,2160 13785,2360 Z"/>
 <path fill="none" stroke="rgb(87,157,28)" stroke-linejoin="round" d="M 13785,2360 L 13982,2360 13884,2160 13785,2360 Z"/>
 <path fill="rgb(87,157,28)" stroke="none" d="M 14017,2347 L 14214,2347 14116,2147 14017,2347 Z"/>
 <path fill="none" stroke="rgb(87,157,28)" stroke-linejoin="round" d="M 14017,2347 L 14214,2347 14116,2147 14017,2347 Z"/>
 <path fill="rgb(87,157,28)" stroke="none" d="M 14248,2336 L 14445,2336 14346,2136 14248,2336 Z"/>
 <path fill="none" stroke="rgb(87,157,28)" stroke-linejoin="round" d="M 14248,2336 L 14445,2336 14346,2136 14248,2336 Z"/>
 <path fill="rgb(87,157,28)" stroke="none" d="M 14479,2323 L 14677,2323 14578,2123 14479,2323 Z"/>
 <path fill="none" stroke="rgb(87,157,28)" stroke-linejoin="round" d="M 14479,2323 L 14677,2323 14578,2123 14479,2323 Z"/>
 <text class="TextShape"><tspan class="TextParagraph" font-family="Liberation Sans, sans-serif" font-size="353px" font-weight="400"><tspan class="TextPosition" x="1432" y="10564"><tspan fill="rgb(0,0,0)" stroke="none">20/02</tspan></tspan></tspan></text>
 <text class="TextShape"><tspan class="TextParagraph" font-family="Liberation Sans, sans-serif" font-size="353px" font-weight="400"><tspan class="TextPosition" x="3052" y="10564"><tspan fill="rgb(0,0,0)" stroke="none">27/02</tspan></tspan></tspan></text>
 <text class="TextShape"><tspan class="TextParagraph" font-family="Liberation Sans, sans-serif" font-size="353px" font-weight="400"><tspan class="TextPosition" x="4672" y="10564"><tspan fill="rgb(0,0,0)" stroke="none">05/03</tspan></tspan></tspan></text>
 <text class="TextShape"><tspan class="TextParagraph" font-family="Liberation Sans, sans-serif" font-size="353px" font-weight="400"><tspan class="TextPosition" x="6292" y="10564"><tspan fill="rgb(0,0,0)" stroke="none">12/03</tspan></tspan></tspan></text>
 <text class="TextShape"><tspan class="TextParagraph" font-family="Liberation Sans, sans-serif" font-size="353px" font-weight="400"><tspan class="TextPosition" x="7912" y="10564"><tspan fill="rgb(0,0,0)" stroke="none">19/03</tspan></tspan></tspan></text>
 <text class="TextShape"><tspan class="TextParagraph" font-family="Liberation Sans, sans-serif" font-size="353px" font-weight="400"><tspan class="TextPosition" x="9532" y="10564"><tspan fill="rgb(0,0,0)" stroke="none">26/03</tspan></tspan></tspan></text>
 <text class="TextShape"><tspan class="TextParagraph" font-family="Liberation Sans, sans-serif" font-size="353px" font-weight="400"><tspan class="TextPosition" x="11152" y="10564"><tspan fill="rgb(0,0,0)" stroke="none">02/04</tspan></tspan></tspan></text>
 <text class="TextShape"><tspan class="TextParagraph" font-family="Liberation Sans, sans-serif" font-size="353px" font-weight="400"><tspan class="TextPosition" x="12772" y="10564"><tspan fill="rgb(0,0,0)" stroke="none">09/04</tspan></tspan></tspan></text>
 <text class="TextShape"><tspan class="TextParagraph" font-family="Liberation Sans, sans-serif" font-size="353px" font-weight="400"><tspan class="TextPosition" x="836" y="10117"><tspan fill="rgb(0,0,0)" stroke="none">0,01</tspan></tspan></tspan></text>
 <text class="TextShape"><tspan class="TextParagraph" font-family="Liberation Sans, sans-serif" font-size="353px" font-weight="400"><tspan class="TextPosition" x="836" y="8622"><tspan fill="rgb(0,0,0)" stroke="none">0,10</tspan></tspan></tspan></text>
 <text class="TextShape"><tspan class="TextParagraph" font-family="Liberation Sans, sans-serif" font-size="353px" font-weight="400"><tspan class="TextPosition" x="836" y="7127"><tspan fill="rgb(0,0,0)" stroke="none">1,00</tspan></tspan></tspan></text>
 <text class="TextShape"><tspan class="TextParagraph" font-family="Liberation Sans, sans-serif" font-size="353px" font-weight="400"><tspan class="TextPosition" x="653" y="5632"><tspan fill="rgb(0,0,0)" stroke="none">10,00</tspan></tspan></tspan></text>
 <text class="TextShape"><tspan class="TextParagraph" font-family="Liberation Sans, sans-serif" font-size="353px" font-weight="400"><tspan class="TextPosition" x="470" y="4137"><tspan fill="rgb(0,0,0)" stroke="none">100,00</tspan></tspan></tspan></text>
 <text class="TextShape"><tspan class="TextParagraph" font-family="Liberation Sans, sans-serif" font-size="353px" font-weight="400"><tspan class="TextPosition" x="183" y="2642"><tspan fill="rgb(0,0,0)" stroke="none">1.000,00</tspan></tspan></tspan></text>
 <text class="TextShape"><tspan class="TextParagraph" font-family="Liberation Sans, sans-serif" font-size="353px" font-weight="400"><tspan class="TextPosition" x="1" y="1148"><tspan fill="rgb(0,0,0)" stroke="none">10.000,00</tspan></tspan></tspan></text>
 <text class="TextShape"><tspan class="TextParagraph" font-family="Liberation Sans, sans-serif" font-size="459px" font-weight="400"><tspan class="TextPosition" x="2816" y="631"><tspan fill="rgb(0,0,0)" stroke="none">Covid-19 (casos acumulados por milln de habitantes)</tspan></tspan></tspan></text>
 <path fill="none" stroke="rgb(0,0,0)" stroke-width="49" stroke-linejoin="round" d="M 3277,11699 L 4066,11699"/>
 <path fill="rgb(0,0,0)" stroke="none" d="M 3567,11699 L 3672,11805 3775,11699 3672,11594 3567,11699 Z"/>
 <path fill="none" stroke="rgb(0,0,0)" stroke-linejoin="round" d="M 3567,11699 L 3672,11805 3775,11699 3672,11594 3567,11699 Z"/>
 <path fill="none" stroke="rgb(255,66,14)" stroke-width="49" stroke-linejoin="round" d="M 5126,11699 L 5915,11699"/>
 <path fill="rgb(255,66,14)" stroke="none" d="M 5416,11699 L 5521,11805 5624,11699 5521,11594 5416,11699 Z"/>
 <path fill="none" stroke="rgb(255,66,14)" stroke-linejoin="round" d="M 5416,11699 L 5521,11805 5624,11699 5521,11594 5416,11699 Z"/>
 <path fill="none" stroke="rgb(255,211,32)" stroke-width="49" stroke-linejoin="round" d="M 7392,11699 L 8181,11699"/>
 <path fill="rgb(255,211,32)" stroke="none" d="M 7682,11594 L 7786,11805 7890,11594 7682,11594 Z"/>
 <path fill="none" stroke="rgb(255,211,32)" stroke-linejoin="round" d="M 7682,11594 L 7786,11805 7890,11594 7682,11594 Z"/>
 <path fill="none" stroke="rgb(87,157,28)" stroke-width="49" stroke-linejoin="round" d="M 9632,11699 L 10421,11699"/>
 <path fill="rgb(87,157,28)" stroke="none" d="M 9922,11805 L 10130,11805 10027,11594 9922,11805 Z"/>
 <path fill="none" stroke="rgb(87,157,28)" stroke-linejoin="round" d="M 9922,11805 L 10130,11805 10027,11594 9922,11805 Z"/>
 <text class="TextShape"><tspan class="TextParagraph" font-family="Liberation Sans, sans-serif" font-size="353px" font-weight="400"><tspan class="TextPosition" x="4165" y="11819"><tspan fill="rgb(0,0,0)" stroke="none">Italia</tspan></tspan></tspan></text>
 <text class="TextShape"><tspan class="TextParagraph" font-family="Liberation Sans, sans-serif" font-size="353px" font-weight="400"><tspan class="TextPosition" x="6014" y="11819"><tspan fill="rgb(0,0,0)" stroke="none">Espaa</tspan></tspan></tspan></text>
 <text class="TextShape"><tspan class="TextParagraph" font-family="Liberation Sans, sans-serif" font-size="353px" font-weight="400"><tspan class="TextPosition" x="8279" y="11819"><tspan fill="rgb(0,0,0)" stroke="none">Francia</tspan></tspan></tspan></text>
 <text class="TextShape"><tspan class="TextParagraph" font-family="Liberation Sans, sans-serif" font-size="353px" font-weight="400"><tspan class="TextPosition" x="10520" y="11819"><tspan fill="rgb(0,0,0)" stroke="none">Alemania</tspan></tspan></tspan></text>
</svg>