<?xml version="1.0" encoding="UTF-8"?>
<!DOCTYPE svg PUBLIC "-//W3C//DTD SVG 1.1//EN" "http://www.w3.org/Graphics/SVG/1.1/DTD/svg11.dtd">
<svg width="150mm" height="120mm" viewBox="0 0 15000 12000" version="1.1" xmlns="http://www.w3.org/2000/svg" xmlns:xlink="http://www.w3.org/1999/xlink" stroke-width="28.222" stroke-linejoin="round" xml:space="preserve">
 <path fill="rgb(255,255,255)" stroke="none" d="M 7500,12000 L 0,12000 0,0 15000,0 15000,12000 7500,12000 Z"/>
 <path fill="none" stroke="rgb(0,0,0)" stroke-linejoin="round" d="M 8268,10814 L 1855,10814 1855,1218 14681,1218 14681,10814 8268,10814 Z"/>
 <path fill="none" stroke="rgb(0,0,0)" stroke-linejoin="round" d="M 14681,10813 L 1855,10813"/>
 <path fill="none" stroke="rgb(0,0,0)" stroke-linejoin="round" d="M 14681,9068 L 1855,9068"/>
 <path fill="none" stroke="rgb(0,0,0)" stroke-linejoin="round" d="M 14681,7323 L 1855,7323"/>
 <path fill="none" stroke="rgb(0,0,0)" stroke-linejoin="round" d="M 14681,5579 L 1855,5579"/>
 <path fill="none" stroke="rgb(0,0,0)" stroke-linejoin="round" d="M 14681,3834 L 1855,3834"/>
 <path fill="none" stroke="rgb(0,0,0)" stroke-linejoin="round" d="M 14681,2089 L 1855,2089"/>
 <path fill="none" stroke="rgb(0,0,0)" stroke-linejoin="round" d="M 1855,10963 L 1855,10813"/>
 <path fill="none" stroke="rgb(0,0,0)" stroke-linejoin="round" d="M 1855,10963 L 1855,10813"/>
 <path fill="none" stroke="rgb(0,0,0)" stroke-linejoin="round" d="M 2939,10963 L 2939,10813"/>
 <path fill="none" stroke="rgb(0,0,0)" stroke-linejoin="round" d="M 2939,10963 L 2939,10813"/>
 <path fill="none" stroke="rgb(0,0,0)" stroke-linejoin="round" d="M 4098,10963 L 4098,10813"/>
 <path fill="none" stroke="rgb(0,0,0)" stroke-linejoin="round" d="M 4098,10963 L 4098,10813"/>
 <path fill="none" stroke="rgb(0,0,0)" stroke-linejoin="round" d="M 5220,10963 L 5220,10813"/>
 <path fill="none" stroke="rgb(0,0,0)" stroke-linejoin="round" d="M 5220,10963 L 5220,10813"/>
 <path fill="none" stroke="rgb(0,0,0)" stroke-linejoin="round" d="M 6379,10963 L 6379,10813"/>
 <path fill="none" stroke="rgb(0,0,0)" stroke-linejoin="round" d="M 6379,10963 L 6379,10813"/>
 <path fill="none" stroke="rgb(0,0,0)" stroke-linejoin="round" d="M 7500,10963 L 7500,10813"/>
 <path fill="none" stroke="rgb(0,0,0)" stroke-linejoin="round" d="M 7500,10963 L 7500,10813"/>
 <path fill="none" stroke="rgb(0,0,0)" stroke-linejoin="round" d="M 8660,10963 L 8660,10813"/>
 <path fill="none" stroke="rgb(0,0,0)" stroke-linejoin="round" d="M 8660,10963 L 8660,10813"/>
 <path fill="none" stroke="rgb(0,0,0)" stroke-linejoin="round" d="M 9819,10963 L 9819,10813"/>
 <path fill="none" stroke="rgb(0,0,0)" stroke-linejoin="round" d="M 9819,10963 L 9819,10813"/>
 <path fill="none" stroke="rgb(0,0,0)" stroke-linejoin="round" d="M 10941,10963 L 10941,10813"/>
 <path fill="none" stroke="rgb(0,0,0)" stroke-linejoin="round" d="M 10941,10963 L 10941,10813"/>
 <path fill="none" stroke="rgb(0,0,0)" stroke-linejoin="round" d="M 12100,10963 L 12100,10813"/>
 <path fill="none" stroke="rgb(0,0,0)" stroke-linejoin="round" d="M 12100,10963 L 12100,10813"/>
 <path fill="none" stroke="rgb(0,0,0)" stroke-linejoin="round" d="M 13222,10963 L 13222,10813"/>
 <path fill="none" stroke="rgb(0,0,0)" stroke-linejoin="round" d="M 13222,10963 L 13222,10813"/>
 <path fill="none" stroke="rgb(0,0,0)" stroke-linejoin="round" d="M 14381,10963 L 14381,10813"/>
 <path fill="none" stroke="rgb(0,0,0)" stroke-linejoin="round" d="M 14381,10963 L 14381,10813"/>
 <path fill="none" stroke="rgb(0,0,0)" stroke-linejoin="round" d="M 1855,10813 L 14681,10813"/>
 <path fill="none" stroke="rgb(0,0,0)" stroke-linejoin="round" d="M 1705,10813 L 1855,10813"/>
 <path fill="none" stroke="rgb(0,0,0)" stroke-linejoin="round" d="M 1705,10813 L 1855,10813"/>
 <path fill="none" stroke="rgb(0,0,0)" stroke-linejoin="round" d="M 1705,9068 L 1855,9068"/>
 <path fill="none" stroke="rgb(0,0,0)" stroke-linejoin="round" d="M 1705,9068 L 1855,9068"/>
 <path fill="none" stroke="rgb(0,0,0)" stroke-linejoin="round" d="M 1705,7323 L 1855,7323"/>
 <path fill="none" stroke="rgb(0,0,0)" stroke-linejoin="round" d="M 1705,7323 L 1855,7323"/>
 <path fill="none" stroke="rgb(0,0,0)" stroke-linejoin="round" d="M 1705,5579 L 1855,5579"/>
 <path fill="none" stroke="rgb(0,0,0)" stroke-linejoin="round" d="M 1705,5579 L 1855,5579"/>
 <path fill="none" stroke="rgb(0,0,0)" stroke-linejoin="round" d="M 1705,3834 L 1855,3834"/>
 <path fill="none" stroke="rgb(0,0,0)" stroke-linejoin="round" d="M 1705,3834 L 1855,3834"/>
 <path fill="none" stroke="rgb(0,0,0)" stroke-linejoin="round" d="M 1705,2089 L 1855,2089"/>
 <path fill="none" stroke="rgb(0,0,0)" stroke-linejoin="round" d="M 1705,2089 L 1855,2089"/>
 <path fill="none" stroke="rgb(0,0,0)" stroke-linejoin="round" d="M 1855,10813 L 1855,1217"/>
 <path fill="none" stroke="rgb(255,0,0)" stroke-width="100" stroke-linejoin="round" d="M 1855,10812 L 1892,10812 1929,10812 1967,10812 2004,10812 2041,10812 2079,10812 2116,10812 2154,10812 2191,10812 2228,10812 2266,10812 2303,10812 2341,10812 2378,10812 2415,10811 2453,10811 2490,10810 2528,10809 2565,10807 2602,10805 2640,10802 2677,10798 2715,10792 2752,10785 2789,10780 2827,10773 2864,10765 2902,10753 2939,10743 2976,10726 3014,10713 3051,10697 3089,10674 3126,10646 3163,10616 3201,10589 3238,10560 3276,10538 3313,10515 3350,10483 3388,10456 3425,10428 3463,10402 3500,10377 3537,10356 3575,10341 3612,10322 3650,10301 3687,10280 3724,10265 3762,10248 3799,10233 3837,10221 3874,10210 3911,10193 3949,10175 3986,10156 4023,10139 4061,10154 4098,10145 4136,10134 4173,10155 4210,10145 4248,10104 4285,10094 4323,10088 4360,10082 4397,10077 4435,10069 4472,10068 4510,10061 4547,10057 4584,10054 4622,10052 4659,10047 4697,10044 4734,10040 4771,10035 4809,10032 4846,10029 4884,10019 4921,10017 4958,10014 4996,10011 5033,10009 5071,10007 5108,10005 5145,10004 5183,10003 5220,10001 5258,9999 5295,9993 5332,9991 5370,9990 5407,9991 5445,9988 5482,9986 5519,9982 5557,9980 5594,9978 5632,9977 5669,9976 5706,9975 5744,9974 5781,9973 5819,9972 5856,9970 5893,9970 5931,9969 5968,9968 6006,9967 6043,9965 6080,9964 6118,9962 6155,9961 6192,9961 6230,9960 6267,9959 6305,9957 6342,9955 6379,9954 6417,9953 6454,9952 6492,9951 6529,9950 6566,9949 6604,9947 6641,9945 6679,9944 6716,9944 6753,9943 6791,9941 6828,9940 6866,9938 6903,9938 6940,9938 6978,9934 7015,9933 7053,9931 7090,9929 7127,9926 7165,9926 7202,9926 7240,9919 7277,9917 7314,9914 7352,9909 7389,9904 7427,9904 7464,9904 7500,9888 7538,9884 7575,9879 7613,9870 7650,9862 7687,9862 7725,9862 7762,9840 7800,9833 7837,9826 7874,9816 7912,9806 7949,9806 7987,9806 8024,9776 8061,9756 8099,9745 8136,9731 8174,9715 8211,9715 8248,9715 8286,9685 8323,9673 8360,9662 8398,9635 8435,9616 8473,9616 8510,9616 8547,9559 8585,9542 8622,9518 8660,9494 8697,9465 8734,9465 8772,9465 8809,9398 8847,9373 8884,9347 8921,9314 8959,9279 8996,9279 9034,9279 9071,9197 9108,9169 9146,9139 9183,9108 9221,9071 9258,9071 9295,9071 9333,8978 9370,8947 9408,8916 9445,8879 9482,8836 9520,8836 9557,8836 9595,8740 9632,8708 9669,8668 9707,8629 9744,8579 9782,8579 9819,8579 9856,8469 9894,8432 9931,8392 9969,8355 10006,8312 10043,8312 10081,8312 10118,8201 10156,8167 10193,8128 10230,8095 10268,8056 10305,8056 10343,8056 10380,7974 10417,7932 10455,7895 10492,7852 10529,7807 10567,7807 10604,7807 10642,7710 10679,7685 10716,7644 10754,7597 10791,7544 10829,7544 10866,7544 10903,7412 10941,7363 10978,7304 11016,7231 11053,7162 11090,7162 11128,7162 11165,6980 11203,6915 11240,6846 11277,6764 11315,6675 11352,6675 11390,6675 11427,6483 11464,6418 11502,6330 11539,6254 11577,6175 11614,6175 11651,6175 11689,5993 11726,5933 11764,5866 11801,5798 11838,5723 11876,5723 11913,5723 11951,5590 11988,5544 12025,5490 12063,5434 12100,5381 12138,5381 12175,5381 12212,5290 12250,5248 12287,5212 12325,5169 12362,5131 12399,5131 12437,5131 12474,5062 12512,5033 12549,5000 12586,4965 12624,4934 12661,4934 12698,4934 12736,4873 12773,4873 12811,4839 12848,4811 12885,4774 12923,4774 12960,4774 12998,4700 13035,4664 13072,4625 13110,4583 13147,4541 13185,4541 13222,4541 13259,4465 13297,4427 13334,4384 13372,4340 13409,4340 13446,4340 13484,4340 13521,4255 13559,4206 13596,4147 13633,4084 13671,4084 13708,4084 13746,4084 13783,3977 13820,3895 13858,3895 13895,3747 13933,3658 13970,3658 14007,3658 14045,3444 14082,3355 14120,3219 14157,3094 14194,2954 14232,2954 14269,2954 14307,2660 14344,2540 14381,2395 14419,2240 14456,2090 14494,2090 14531,2090 14568,1763 14606,1636 14643,1495 14681,1374"/>
 <text class="TextShape"><tspan class="TextParagraph" font-family="Liberation Sans, sans-serif" font-size="353px" font-weight="400"><tspan class="TextPosition" x="1431" y="11381"><tspan fill="rgb(0,0,0)" stroke="none">20/02</tspan></tspan></tspan></text>
 <text class="TextShape"><tspan class="TextParagraph" font-family="Liberation Sans, sans-serif" font-size="353px" font-weight="400"><tspan class="TextPosition" x="2515" y="11381"><tspan fill="rgb(0,0,0)" stroke="none">20/03</tspan></tspan></tspan></text>
 <text class="TextShape"><tspan class="TextParagraph" font-family="Liberation Sans, sans-serif" font-size="353px" font-weight="400"><tspan class="TextPosition" x="3674" y="11381"><tspan fill="rgb(0,0,0)" stroke="none">20/04</tspan></tspan></tspan></text>
 <text class="TextShape"><tspan class="TextParagraph" font-family="Liberation Sans, sans-serif" font-size="353px" font-weight="400"><tspan class="TextPosition" x="4796" y="11381"><tspan fill="rgb(0,0,0)" stroke="none">20/05</tspan></tspan></tspan></text>
 <text class="TextShape"><tspan class="TextParagraph" font-family="Liberation Sans, sans-serif" font-size="353px" font-weight="400"><tspan class="TextPosition" x="5955" y="11381"><tspan fill="rgb(0,0,0)" stroke="none">20/06</tspan></tspan></tspan></text>
 <text class="TextShape"><tspan class="TextParagraph" font-family="Liberation Sans, sans-serif" font-size="353px" font-weight="400"><tspan class="TextPosition" x="7077" y="11381"><tspan fill="rgb(0,0,0)" stroke="none">20/07</tspan></tspan></tspan></text>
 <text class="TextShape"><tspan class="TextParagraph" font-family="Liberation Sans, sans-serif" font-size="353px" font-weight="400"><tspan class="TextPosition" x="8237" y="11381"><tspan fill="rgb(0,0,0)" stroke="none">20/08</tspan></tspan></tspan></text>
 <text class="TextShape"><tspan class="TextParagraph" font-family="Liberation Sans, sans-serif" font-size="353px" font-weight="400"><tspan class="TextPosition" x="9396" y="11381"><tspan fill="rgb(0,0,0)" stroke="none">20/09</tspan></tspan></tspan></text>
 <text class="TextShape"><tspan class="TextParagraph" font-family="Liberation Sans, sans-serif" font-size="353px" font-weight="400"><tspan class="TextPosition" x="10518" y="11381"><tspan fill="rgb(0,0,0)" stroke="none">20/10</tspan></tspan></tspan></text>
 <text class="TextShape"><tspan class="TextParagraph" font-family="Liberation Sans, sans-serif" font-size="353px" font-weight="400"><tspan class="TextPosition" x="11677" y="11381"><tspan fill="rgb(0,0,0)" stroke="none">20/11</tspan></tspan></tspan></text>
 <text class="TextShape"><tspan class="TextParagraph" font-family="Liberation Sans, sans-serif" font-size="353px" font-weight="400"><tspan class="TextPosition" x="12799" y="11381"><tspan fill="rgb(0,0,0)" stroke="none">20/12</tspan></tspan></tspan></text>
 <text class="TextShape"><tspan class="TextParagraph" font-family="Liberation Sans, sans-serif" font-size="353px" font-weight="400"><tspan class="TextPosition" x="13958" y="11381"><tspan fill="rgb(0,0,0)" stroke="none">20/01</tspan></tspan></tspan></text>
 <text class="TextShape"><tspan class="TextParagraph" font-family="Liberation Sans, sans-serif" font-size="353px" font-weight="400"><tspan class="TextPosition" x="1420" y="10934"><tspan fill="rgb(0,0,0)" stroke="none">0</tspan></tspan></tspan></text>
 <text class="TextShape"><tspan class="TextParagraph" font-family="Liberation Sans, sans-serif" font-size="353px" font-weight="400"><tspan class="TextPosition" x="388" y="9189"><tspan fill="rgb(0,0,0)" stroke="none">500.000</tspan></tspan></tspan></text>
 <text class="TextShape"><tspan class="TextParagraph" font-family="Liberation Sans, sans-serif" font-size="353px" font-weight="400"><tspan class="TextPosition" x="97" y="7444"><tspan fill="rgb(0,0,0)" stroke="none">1.000.000</tspan></tspan></tspan></text>
 <text class="TextShape"><tspan class="TextParagraph" font-family="Liberation Sans, sans-serif" font-size="353px" font-weight="400"><tspan class="TextPosition" x="97" y="5699"><tspan fill="rgb(0,0,0)" stroke="none">1.500.000</tspan></tspan></tspan></text>
 <text class="TextShape"><tspan class="TextParagraph" font-family="Liberation Sans, sans-serif" font-size="353px" font-weight="400"><tspan class="TextPosition" x="97" y="3954"><tspan fill="rgb(0,0,0)" stroke="none">2.000.000</tspan></tspan></tspan></text>
 <text class="TextShape"><tspan class="TextParagraph" font-family="Liberation Sans, sans-serif" font-size="353px" font-weight="400"><tspan class="TextPosition" x="97" y="2209"><tspan fill="rgb(0,0,0)" stroke="none">2.500.000</tspan></tspan></tspan></text>
 <text class="TextShape"><tspan class="TextParagraph" font-family="Liberation Sans, sans-serif" font-size="459px" font-weight="400"><tspan class="TextPosition" x="2966" y="724"><tspan fill="rgb(0,0,0)" stroke="none">Covid-19. Nuevos contagios acumulados en España</tspan></tspan></tspan></text>
</svg>