<?xml version="1.0" encoding="UTF-8"?>
<!DOCTYPE svg PUBLIC "-//W3C//DTD SVG 1.1//EN" "http://www.w3.org/Graphics/SVG/1.1/DTD/svg11.dtd">
<svg width="150mm" height="120mm" viewBox="0 0 15000 12000" version="1.1" xmlns="http://www.w3.org/2000/svg" xmlns:xlink="http://www.w3.org/1999/xlink" stroke-width="28.222" stroke-linejoin="round" xml:space="preserve">
 <path fill="rgb(255,255,255)" stroke="none" d="M 7500,12000 L 0,12000 0,0 15000,0 15000,12000 7500,12000 Z"/>
 <path fill="none" stroke="rgb(0,0,0)" stroke-linejoin="round" d="M 8041,11068 L 1396,11068 1396,1028 14687,1028 14687,11068 8041,11068 Z"/>
 <path fill="none" stroke="rgb(0,0,0)" stroke-linejoin="round" d="M 14686,11067 L 1395,11067"/>
 <path fill="none" stroke="rgb(0,0,0)" stroke-linejoin="round" d="M 14686,9632 L 1395,9632"/>
 <path fill="none" stroke="rgb(0,0,0)" stroke-linejoin="round" d="M 14686,8198 L 1395,8198"/>
 <path fill="none" stroke="rgb(0,0,0)" stroke-linejoin="round" d="M 14686,6763 L 1395,6763"/>
 <path fill="none" stroke="rgb(0,0,0)" stroke-linejoin="round" d="M 14686,5330 L 1395,5330"/>
 <path fill="none" stroke="rgb(0,0,0)" stroke-linejoin="round" d="M 14686,3895 L 1395,3895"/>
 <path fill="none" stroke="rgb(0,0,0)" stroke-linejoin="round" d="M 14686,2461 L 1395,2461"/>
 <path fill="none" stroke="rgb(0,0,0)" stroke-linejoin="round" d="M 14686,1027 L 1395,1027"/>
 <path fill="none" stroke="rgb(0,0,0)" stroke-linejoin="round" d="M 1395,11217 L 1395,11067"/>
 <path fill="none" stroke="rgb(0,0,0)" stroke-linejoin="round" d="M 1395,11217 L 1395,11067"/>
 <path fill="none" stroke="rgb(0,0,0)" stroke-linejoin="round" d="M 2423,11217 L 2423,11067"/>
 <path fill="none" stroke="rgb(0,0,0)" stroke-linejoin="round" d="M 2423,11217 L 2423,11067"/>
 <path fill="none" stroke="rgb(0,0,0)" stroke-linejoin="round" d="M 3522,11217 L 3522,11067"/>
 <path fill="none" stroke="rgb(0,0,0)" stroke-linejoin="round" d="M 3522,11217 L 3522,11067"/>
 <path fill="none" stroke="rgb(0,0,0)" stroke-linejoin="round" d="M 4586,11217 L 4586,11067"/>
 <path fill="none" stroke="rgb(0,0,0)" stroke-linejoin="round" d="M 4586,11217 L 4586,11067"/>
 <path fill="none" stroke="rgb(0,0,0)" stroke-linejoin="round" d="M 5684,11217 L 5684,11067"/>
 <path fill="none" stroke="rgb(0,0,0)" stroke-linejoin="round" d="M 5684,11217 L 5684,11067"/>
 <path fill="none" stroke="rgb(0,0,0)" stroke-linejoin="round" d="M 6748,11217 L 6748,11067"/>
 <path fill="none" stroke="rgb(0,0,0)" stroke-linejoin="round" d="M 6748,11217 L 6748,11067"/>
 <path fill="none" stroke="rgb(0,0,0)" stroke-linejoin="round" d="M 7846,11217 L 7846,11067"/>
 <path fill="none" stroke="rgb(0,0,0)" stroke-linejoin="round" d="M 7846,11217 L 7846,11067"/>
 <path fill="none" stroke="rgb(0,0,0)" stroke-linejoin="round" d="M 8944,11217 L 8944,11067"/>
 <path fill="none" stroke="rgb(0,0,0)" stroke-linejoin="round" d="M 8944,11217 L 8944,11067"/>
 <path fill="none" stroke="rgb(0,0,0)" stroke-linejoin="round" d="M 10008,11217 L 10008,11067"/>
 <path fill="none" stroke="rgb(0,0,0)" stroke-linejoin="round" d="M 10008,11217 L 10008,11067"/>
 <path fill="none" stroke="rgb(0,0,0)" stroke-linejoin="round" d="M 11107,11217 L 11107,11067"/>
 <path fill="none" stroke="rgb(0,0,0)" stroke-linejoin="round" d="M 11107,11217 L 11107,11067"/>
 <path fill="none" stroke="rgb(0,0,0)" stroke-linejoin="round" d="M 12170,11217 L 12170,11067"/>
 <path fill="none" stroke="rgb(0,0,0)" stroke-linejoin="round" d="M 12170,11217 L 12170,11067"/>
 <path fill="none" stroke="rgb(0,0,0)" stroke-linejoin="round" d="M 13269,11217 L 13269,11067"/>
 <path fill="none" stroke="rgb(0,0,0)" stroke-linejoin="round" d="M 13269,11217 L 13269,11067"/>
 <path fill="none" stroke="rgb(0,0,0)" stroke-linejoin="round" d="M 14367,11217 L 14367,11067"/>
 <path fill="none" stroke="rgb(0,0,0)" stroke-linejoin="round" d="M 14367,11217 L 14367,11067"/>
 <path fill="none" stroke="rgb(0,0,0)" stroke-linejoin="round" d="M 1395,11067 L 14686,11067"/>
 <path fill="none" stroke="rgb(0,0,0)" stroke-linejoin="round" d="M 1245,11067 L 1395,11067"/>
 <path fill="none" stroke="rgb(0,0,0)" stroke-linejoin="round" d="M 1245,11067 L 1395,11067"/>
 <path fill="none" stroke="rgb(0,0,0)" stroke-linejoin="round" d="M 1245,9632 L 1395,9632"/>
 <path fill="none" stroke="rgb(0,0,0)" stroke-linejoin="round" d="M 1245,9632 L 1395,9632"/>
 <path fill="none" stroke="rgb(0,0,0)" stroke-linejoin="round" d="M 1245,8198 L 1395,8198"/>
 <path fill="none" stroke="rgb(0,0,0)" stroke-linejoin="round" d="M 1245,8198 L 1395,8198"/>
 <path fill="none" stroke="rgb(0,0,0)" stroke-linejoin="round" d="M 1245,6763 L 1395,6763"/>
 <path fill="none" stroke="rgb(0,0,0)" stroke-linejoin="round" d="M 1245,6763 L 1395,6763"/>
 <path fill="none" stroke="rgb(0,0,0)" stroke-linejoin="round" d="M 1245,5330 L 1395,5330"/>
 <path fill="none" stroke="rgb(0,0,0)" stroke-linejoin="round" d="M 1245,5330 L 1395,5330"/>
 <path fill="none" stroke="rgb(0,0,0)" stroke-linejoin="round" d="M 1245,3895 L 1395,3895"/>
 <path fill="none" stroke="rgb(0,0,0)" stroke-linejoin="round" d="M 1245,3895 L 1395,3895"/>
 <path fill="none" stroke="rgb(0,0,0)" stroke-linejoin="round" d="M 1245,2461 L 1395,2461"/>
 <path fill="none" stroke="rgb(0,0,0)" stroke-linejoin="round" d="M 1245,2461 L 1395,2461"/>
 <path fill="none" stroke="rgb(0,0,0)" stroke-linejoin="round" d="M 1245,1027 L 1395,1027"/>
 <path fill="none" stroke="rgb(0,0,0)" stroke-linejoin="round" d="M 1245,1027 L 1395,1027"/>
 <path fill="none" stroke="rgb(0,0,0)" stroke-linejoin="round" d="M 1395,11067 L 1395,1027"/>
 <path fill="none" stroke="rgb(255,0,0)" stroke-width="100" stroke-linejoin="round" d="M 1395,11066 L 1431,11066 1466,11066 1502,11066 1537,11066 1573,11066 1608,11066 1644,11066 1679,11066 1715,11066 1750,11066 1785,11066 1821,11066 1856,11066 1892,11066 1927,11066 1963,11065 1998,11065 2034,11064 2069,11061 2104,11060 2140,11054 2175,11050 2211,11047 2246,11025 2282,11022 2317,10996 2353,10981 2388,10956 2423,10923 2459,10876 2494,10820 2530,10754 2565,10681 2601,10574 2636,10480 2672,10370 2707,10250 2742,10130 2778,10014 2813,9892 2849,9768 2884,9632 2920,9498 2955,9382 2991,9285 3026,9194 3061,9087 3097,8979 3132,8881 3168,8794 3203,8721 3239,8632 3274,8558 3310,8476 3345,8401 3380,8322 3416,8239 3451,8157 3487,8099 3522,8041 3558,7980 3593,7917 3629,7854 3664,7802 3699,7747 3735,7706 3770,7659 3806,7615 3841,7550 3877,7512 3912,7472 3948,7432 3983,7409 4018,7385 4054,7359 4089,7324 4125,7293 4160,7260 4196,7234 4231,7214 4267,7196 4302,7171 4337,7145 4373,7114 4408,7094 4444,7079 4479,7066 4515,7058 4550,7048 4586,7032 4621,7025 4656,6960 4692,6953 4727,6942 4763,7217 4798,7177 4834,7177 4869,7176 4905,7176 4940,7176 4975,7175 5011,7175 5046,7175 5082,7175 5117,7174 5153,7174 5188,7174 5224,7174 5259,7174 5294,7174 5330,7174 5365,7174 5401,7174 5436,7174 5472,7174 5507,7174 5543,7174 5578,7174 5613,7174 5649,7005 5684,7004 5720,7004 5755,7004 5791,7003 5826,7003 5862,7003 5897,7002 5933,7001 5968,7001 6003,7000 6039,6999 6074,6998 6110,6997 6145,6995 6181,6995 6216,6995 6252,6994 6287,6994 6322,6993 6358,6993 6393,6992 6429,6995 6464,6995 6500,6992 6535,6991 6571,6991 6606,6990 6641,6990 6677,6990 6712,6990 6748,6990 6783,6989 6819,6989 6854,6989 6890,6988 6925,6988 6960,6988 6996,6988 7031,6988 7067,6987 7102,6987 7138,6986 7173,6986 7209,6986 7244,6982 7279,6979 7315,6979 7350,6978 7386,6978 7421,6978 7457,6978 7492,6967 7527,6967 7562,6967 7597,6963 7633,6962 7668,6962 7704,6962 7739,6957 7775,6954 7810,6936 7846,6933 7881,6930 7916,6930 7952,6930 7987,6925 8023,6918 8058,6911 8094,6907 8129,6905 8165,6905 8200,6905 8235,6893 8271,6885 8306,6879 8342,6873 8377,6847 8413,6847 8448,6847 8484,6833 8519,6821 8554,6817 8590,6806 8625,6800 8661,6800 8696,6800 8732,6785 8767,6763 8803,6728 8838,6705 8873,6692 8909,6692 8944,6692 8980,6668 9015,6634 9051,6615 9086,6603 9122,6586 9157,6586 9192,6586 9228,6561 9263,6532 9299,6506 9334,6480 9370,6464 9405,6464 9441,6464 9476,6444 9511,6407 9547,6396 9582,6378 9618,6343 9653,6343 9689,6343 9724,6315 9760,6304 9795,6274 9830,6254 9866,6222 9901,6222 9937,6222 9972,6191 10008,6159 10043,6137 10079,6115 10114,6082 10149,6082 10185,6082 10220,6042 10256,6003 10291,5980 10327,5955 10362,5921 10398,5921 10433,5921 10469,5867 10504,5833 10539,5600 10575,5547 10610,5497 10646,5497 10681,5497 10717,5424 10752,5365 10788,5315 10823,5264 10858,5219 10894,5219 10929,5219 10965,5150 11000,5088 11036,5037 11071,5001 11107,4954 11142,4954 11177,4954 11213,4881 11248,4804 11284,4751 11319,4702 11355,4660 11390,4660 11426,4660 11461,4603 11496,4539 11532,4500 11567,4464 11603,4433 11638,4433 11674,4433 11709,4376 11745,4376 11780,4323 11815,4276 11851,4236 11886,4236 11922,4236 11957,4180 11993,4125 12028,4097 12064,4071 12099,4049 12134,4049 12170,4049 12205,4002 12241,3964 12276,3939 12312,3921 12347,3921 12383,3921 12418,3921 12453,3878 12489,3832 12524,3797 12560,3775 12595,3775 12631,3775 12666,3775 12702,3741 12737,3690 12772,3690 12808,3655 12843,3627 12879,3627 12914,3627 12950,3569 12985,3510 13021,3483 13056,3454 13091,3420 13127,3420 13162,3420 13198,3355 13233,3297 13269,3230 13304,3172 13340,3115 13375,3115 13410,3115 13446,3005 13481,2920 13517,2850 13552,2776 13588,2702 13623,2702 13659,2702 13694,2593 13729,2489 13765,2408 13800,2346 13836,2262 13871,2262 13907,2262 13942,2132 13978,2022 14013,1930 14048,1856 14084,1780 14119,1780 14155,1780 14190,1679 14226,1603 14261,1555 14297,1499 14332,1442 14367,1442 14403,1442 14438,1366 14474,1302 14509,1246 14545,1197 14580,1150 14616,1150 14651,1150 14686,1083"/>
 <text class="TextShape"><tspan class="TextParagraph" font-family="Liberation Sans, sans-serif" font-size="353px" font-weight="400"><tspan class="TextPosition" x="971" y="11635"><tspan fill="rgb(0,0,0)" stroke="none">20/02</tspan></tspan></tspan></text>
 <text class="TextShape"><tspan class="TextParagraph" font-family="Liberation Sans, sans-serif" font-size="353px" font-weight="400"><tspan class="TextPosition" x="1999" y="11635"><tspan fill="rgb(0,0,0)" stroke="none">20/03</tspan></tspan></tspan></text>
 <text class="TextShape"><tspan class="TextParagraph" font-family="Liberation Sans, sans-serif" font-size="353px" font-weight="400"><tspan class="TextPosition" x="3098" y="11635"><tspan fill="rgb(0,0,0)" stroke="none">20/04</tspan></tspan></tspan></text>
 <text class="TextShape"><tspan class="TextParagraph" font-family="Liberation Sans, sans-serif" font-size="353px" font-weight="400"><tspan class="TextPosition" x="4162" y="11635"><tspan fill="rgb(0,0,0)" stroke="none">20/05</tspan></tspan></tspan></text>
 <text class="TextShape"><tspan class="TextParagraph" font-family="Liberation Sans, sans-serif" font-size="353px" font-weight="400"><tspan class="TextPosition" x="5260" y="11635"><tspan fill="rgb(0,0,0)" stroke="none">20/06</tspan></tspan></tspan></text>
 <text class="TextShape"><tspan class="TextParagraph" font-family="Liberation Sans, sans-serif" font-size="353px" font-weight="400"><tspan class="TextPosition" x="6324" y="11635"><tspan fill="rgb(0,0,0)" stroke="none">20/07</tspan></tspan></tspan></text>
 <text class="TextShape"><tspan class="TextParagraph" font-family="Liberation Sans, sans-serif" font-size="353px" font-weight="400"><tspan class="TextPosition" x="7423" y="11635"><tspan fill="rgb(0,0,0)" stroke="none">20/08</tspan></tspan></tspan></text>
 <text class="TextShape"><tspan class="TextParagraph" font-family="Liberation Sans, sans-serif" font-size="353px" font-weight="400"><tspan class="TextPosition" x="8521" y="11635"><tspan fill="rgb(0,0,0)" stroke="none">20/09</tspan></tspan></tspan></text>
 <text class="TextShape"><tspan class="TextParagraph" font-family="Liberation Sans, sans-serif" font-size="353px" font-weight="400"><tspan class="TextPosition" x="9585" y="11635"><tspan fill="rgb(0,0,0)" stroke="none">20/10</tspan></tspan></tspan></text>
 <text class="TextShape"><tspan class="TextParagraph" font-family="Liberation Sans, sans-serif" font-size="353px" font-weight="400"><tspan class="TextPosition" x="10684" y="11635"><tspan fill="rgb(0,0,0)" stroke="none">20/11</tspan></tspan></tspan></text>
 <text class="TextShape"><tspan class="TextParagraph" font-family="Liberation Sans, sans-serif" font-size="353px" font-weight="400"><tspan class="TextPosition" x="11747" y="11635"><tspan fill="rgb(0,0,0)" stroke="none">20/12</tspan></tspan></tspan></text>
 <text class="TextShape"><tspan class="TextParagraph" font-family="Liberation Sans, sans-serif" font-size="353px" font-weight="400"><tspan class="TextPosition" x="12846" y="11635"><tspan fill="rgb(0,0,0)" stroke="none">20/01</tspan></tspan></tspan></text>
 <text class="TextShape"><tspan class="TextParagraph" font-family="Liberation Sans, sans-serif" font-size="353px" font-weight="400"><tspan class="TextPosition" x="13944" y="11635"><tspan fill="rgb(0,0,0)" stroke="none">20/02</tspan></tspan></tspan></text>
 <text class="TextShape"><tspan class="TextParagraph" font-family="Liberation Sans, sans-serif" font-size="353px" font-weight="400"><tspan class="TextPosition" x="960" y="11188"><tspan fill="rgb(0,0,0)" stroke="none">0</tspan></tspan></tspan></text>
 <text class="TextShape"><tspan class="TextParagraph" font-family="Liberation Sans, sans-serif" font-size="353px" font-weight="400"><tspan class="TextPosition" x="113" y="9753"><tspan fill="rgb(0,0,0)" stroke="none">10.000</tspan></tspan></tspan></text>
 <text class="TextShape"><tspan class="TextParagraph" font-family="Liberation Sans, sans-serif" font-size="353px" font-weight="400"><tspan class="TextPosition" x="113" y="8319"><tspan fill="rgb(0,0,0)" stroke="none">20.000</tspan></tspan></tspan></text>
 <text class="TextShape"><tspan class="TextParagraph" font-family="Liberation Sans, sans-serif" font-size="353px" font-weight="400"><tspan class="TextPosition" x="113" y="6884"><tspan fill="rgb(0,0,0)" stroke="none">30.000</tspan></tspan></tspan></text>
 <text class="TextShape"><tspan class="TextParagraph" font-family="Liberation Sans, sans-serif" font-size="353px" font-weight="400"><tspan class="TextPosition" x="113" y="5450"><tspan fill="rgb(0,0,0)" stroke="none">40.000</tspan></tspan></tspan></text>
 <text class="TextShape"><tspan class="TextParagraph" font-family="Liberation Sans, sans-serif" font-size="353px" font-weight="400"><tspan class="TextPosition" x="113" y="4015"><tspan fill="rgb(0,0,0)" stroke="none">50.000</tspan></tspan></tspan></text>
 <text class="TextShape"><tspan class="TextParagraph" font-family="Liberation Sans, sans-serif" font-size="353px" font-weight="400"><tspan class="TextPosition" x="113" y="2581"><tspan fill="rgb(0,0,0)" stroke="none">60.000</tspan></tspan></tspan></text>
 <text class="TextShape"><tspan class="TextParagraph" font-family="Liberation Sans, sans-serif" font-size="353px" font-weight="400"><tspan class="TextPosition" x="113" y="1147"><tspan fill="rgb(0,0,0)" stroke="none">70.000</tspan></tspan></tspan></text>
 <text class="TextShape"><tspan class="TextParagraph" font-family="Liberation Sans, sans-serif" font-size="459px" font-weight="400"><tspan class="TextPosition" x="3867" y="724"><tspan fill="rgb(0,0,0)" stroke="none">Covid-19. Muertes acumuladas en España</tspan></tspan></tspan></text>
</svg>