<?xml version="1.0" encoding="UTF-8"?>
<!DOCTYPE svg PUBLIC "-//W3C//DTD SVG 1.1//EN" "http://www.w3.org/Graphics/SVG/1.1/DTD/svg11.dtd">
<svg width="150mm" height="120mm" viewBox="0 0 15000 12000" version="1.1" xmlns="http://www.w3.org/2000/svg" xmlns:xlink="http://www.w3.org/1999/xlink" stroke-width="28.222" stroke-linejoin="round" xml:space="preserve">
 <path fill="rgb(255,255,255)" stroke="none" d="M 7500,12000 L 0,12000 0,0 15000,0 15000,12000 7500,12000 Z"/>
 <path fill="none" stroke="rgb(0,0,0)" stroke-linejoin="round" d="M 8268,10814 L 1855,10814 1855,1218 14681,1218 14681,10814 8268,10814 Z"/>
 <path fill="none" stroke="rgb(0,0,0)" stroke-linejoin="round" d="M 14681,10813 L 1855,10813"/>
 <path fill="none" stroke="rgb(0,0,0)" stroke-linejoin="round" d="M 14681,9853 L 1855,9853"/>
 <path fill="none" stroke="rgb(0,0,0)" stroke-linejoin="round" d="M 14681,8893 L 1855,8893"/>
 <path fill="none" stroke="rgb(0,0,0)" stroke-linejoin="round" d="M 14681,7933 L 1855,7933"/>
 <path fill="none" stroke="rgb(0,0,0)" stroke-linejoin="round" d="M 14681,6974 L 1855,6974"/>
 <path fill="none" stroke="rgb(0,0,0)" stroke-linejoin="round" d="M 14681,6014 L 1855,6014"/>
 <path fill="none" stroke="rgb(0,0,0)" stroke-linejoin="round" d="M 14681,5055 L 1855,5055"/>
 <path fill="none" stroke="rgb(0,0,0)" stroke-linejoin="round" d="M 14681,4096 L 1855,4096"/>
 <path fill="none" stroke="rgb(0,0,0)" stroke-linejoin="round" d="M 14681,3136 L 1855,3136"/>
 <path fill="none" stroke="rgb(0,0,0)" stroke-linejoin="round" d="M 14681,2176 L 1855,2176"/>
 <path fill="none" stroke="rgb(0,0,0)" stroke-linejoin="round" d="M 14681,1217 L 1855,1217"/>
 <path fill="none" stroke="rgb(0,0,0)" stroke-linejoin="round" d="M 1855,10963 L 1855,10813"/>
 <path fill="none" stroke="rgb(0,0,0)" stroke-linejoin="round" d="M 1855,10963 L 1855,10813"/>
 <path fill="none" stroke="rgb(0,0,0)" stroke-linejoin="round" d="M 3017,10963 L 3017,10813"/>
 <path fill="none" stroke="rgb(0,0,0)" stroke-linejoin="round" d="M 3017,10963 L 3017,10813"/>
 <path fill="none" stroke="rgb(0,0,0)" stroke-linejoin="round" d="M 4260,10963 L 4260,10813"/>
 <path fill="none" stroke="rgb(0,0,0)" stroke-linejoin="round" d="M 4260,10963 L 4260,10813"/>
 <path fill="none" stroke="rgb(0,0,0)" stroke-linejoin="round" d="M 5462,10963 L 5462,10813"/>
 <path fill="none" stroke="rgb(0,0,0)" stroke-linejoin="round" d="M 5462,10963 L 5462,10813"/>
 <path fill="none" stroke="rgb(0,0,0)" stroke-linejoin="round" d="M 6705,10963 L 6705,10813"/>
 <path fill="none" stroke="rgb(0,0,0)" stroke-linejoin="round" d="M 6705,10963 L 6705,10813"/>
 <path fill="none" stroke="rgb(0,0,0)" stroke-linejoin="round" d="M 7906,10963 L 7906,10813"/>
 <path fill="none" stroke="rgb(0,0,0)" stroke-linejoin="round" d="M 7906,10963 L 7906,10813"/>
 <path fill="none" stroke="rgb(0,0,0)" stroke-linejoin="round" d="M 9149,10963 L 9149,10813"/>
 <path fill="none" stroke="rgb(0,0,0)" stroke-linejoin="round" d="M 9149,10963 L 9149,10813"/>
 <path fill="none" stroke="rgb(0,0,0)" stroke-linejoin="round" d="M 10391,10963 L 10391,10813"/>
 <path fill="none" stroke="rgb(0,0,0)" stroke-linejoin="round" d="M 10391,10963 L 10391,10813"/>
 <path fill="none" stroke="rgb(0,0,0)" stroke-linejoin="round" d="M 11594,10963 L 11594,10813"/>
 <path fill="none" stroke="rgb(0,0,0)" stroke-linejoin="round" d="M 11594,10963 L 11594,10813"/>
 <path fill="none" stroke="rgb(0,0,0)" stroke-linejoin="round" d="M 12837,10963 L 12837,10813"/>
 <path fill="none" stroke="rgb(0,0,0)" stroke-linejoin="round" d="M 12837,10963 L 12837,10813"/>
 <path fill="none" stroke="rgb(0,0,0)" stroke-linejoin="round" d="M 14039,10963 L 14039,10813"/>
 <path fill="none" stroke="rgb(0,0,0)" stroke-linejoin="round" d="M 14039,10963 L 14039,10813"/>
 <path fill="none" stroke="rgb(0,0,0)" stroke-linejoin="round" d="M 1855,10813 L 14681,10813"/>
 <path fill="none" stroke="rgb(0,0,0)" stroke-linejoin="round" d="M 1705,10813 L 1855,10813"/>
 <path fill="none" stroke="rgb(0,0,0)" stroke-linejoin="round" d="M 1705,10813 L 1855,10813"/>
 <path fill="none" stroke="rgb(0,0,0)" stroke-linejoin="round" d="M 1705,9853 L 1855,9853"/>
 <path fill="none" stroke="rgb(0,0,0)" stroke-linejoin="round" d="M 1705,9853 L 1855,9853"/>
 <path fill="none" stroke="rgb(0,0,0)" stroke-linejoin="round" d="M 1705,8893 L 1855,8893"/>
 <path fill="none" stroke="rgb(0,0,0)" stroke-linejoin="round" d="M 1705,8893 L 1855,8893"/>
 <path fill="none" stroke="rgb(0,0,0)" stroke-linejoin="round" d="M 1705,7933 L 1855,7933"/>
 <path fill="none" stroke="rgb(0,0,0)" stroke-linejoin="round" d="M 1705,7933 L 1855,7933"/>
 <path fill="none" stroke="rgb(0,0,0)" stroke-linejoin="round" d="M 1705,6974 L 1855,6974"/>
 <path fill="none" stroke="rgb(0,0,0)" stroke-linejoin="round" d="M 1705,6974 L 1855,6974"/>
 <path fill="none" stroke="rgb(0,0,0)" stroke-linejoin="round" d="M 1705,6014 L 1855,6014"/>
 <path fill="none" stroke="rgb(0,0,0)" stroke-linejoin="round" d="M 1705,6014 L 1855,6014"/>
 <path fill="none" stroke="rgb(0,0,0)" stroke-linejoin="round" d="M 1705,5055 L 1855,5055"/>
 <path fill="none" stroke="rgb(0,0,0)" stroke-linejoin="round" d="M 1705,5055 L 1855,5055"/>
 <path fill="none" stroke="rgb(0,0,0)" stroke-linejoin="round" d="M 1705,4096 L 1855,4096"/>
 <path fill="none" stroke="rgb(0,0,0)" stroke-linejoin="round" d="M 1705,4096 L 1855,4096"/>
 <path fill="none" stroke="rgb(0,0,0)" stroke-linejoin="round" d="M 1705,3136 L 1855,3136"/>
 <path fill="none" stroke="rgb(0,0,0)" stroke-linejoin="round" d="M 1705,3136 L 1855,3136"/>
 <path fill="none" stroke="rgb(0,0,0)" stroke-linejoin="round" d="M 1705,2176 L 1855,2176"/>
 <path fill="none" stroke="rgb(0,0,0)" stroke-linejoin="round" d="M 1705,2176 L 1855,2176"/>
 <path fill="none" stroke="rgb(0,0,0)" stroke-linejoin="round" d="M 1705,1217 L 1855,1217"/>
 <path fill="none" stroke="rgb(0,0,0)" stroke-linejoin="round" d="M 1705,1217 L 1855,1217"/>
 <path fill="none" stroke="rgb(0,0,0)" stroke-linejoin="round" d="M 1855,10813 L 1855,1217"/>
 <path fill="none" stroke="rgb(255,0,0)" stroke-width="100" stroke-linejoin="round" d="M 1855,10812 L 1895,10812 1935,10812 1975,10812 2015,10812 2055,10812 2095,10812 2135,10812 2175,10812 2215,10812 2255,10812 2295,10812 2336,10812 2376,10812 2416,10811 2456,10811 2496,10810 2536,10809 2576,10808 2616,10805 2656,10802 2696,10798 2736,10792 2776,10785 2817,10775 2857,10768 2897,10759 2937,10747 2977,10730 3017,10717 3057,10693 3097,10675 3137,10654 3177,10622 3217,10584 3257,10543 3298,10505 3338,10466 3378,10434 3418,10404 3458,10359 3498,10322 3538,10284 3578,10248 3618,10214 3658,10185 3698,10165 3738,10138 3779,10109 3819,10081 3859,10059 3899,10036 3939,10016 3979,9999 4019,9985 4059,9960 4099,9935 4139,9910 4179,9887 4219,9908 4260,9895 4300,9879 4340,9908 4380,9894 4420,9838 4460,9824 4500,9816 4540,9807 4580,9801 4620,9791 4660,9788 4700,9780 4741,9773 4781,9769 4821,9766 4861,9760 4901,9755 4941,9750 4981,9743 5021,9740 5061,9736 5101,9721 5141,9718 5182,9715 5222,9711 5262,9708 5302,9705 5342,9702 5382,9701 5422,9699 5462,9697 5502,9694 5542,9686 5582,9683 5622,9681 5663,9683 5703,9679 5743,9676 5783,9671 5823,9668 5863,9665 5903,9664 5943,9663 5983,9661 6023,9659 6063,9658 6103,9656 6144,9655 6184,9653 6224,9653 6264,9651 6304,9650 6344,9648 6384,9645 6424,9644 6464,9642 6504,9641 6544,9640 6584,9638 6625,9636 6665,9634 6705,9632 6745,9631 6785,9630 6825,9628 6865,9627 6905,9625 6945,9623 6985,9620 7025,9619 7065,9618 7106,9616 7146,9615 7186,9612 7226,9610 7266,9610 7306,9610 7346,9604 7386,9603 7426,9601 7466,9598 7505,9594 7545,9594 7586,9594 7626,9584 7666,9581 7706,9577 7746,9570 7786,9564 7826,9564 7866,9564 7906,9542 7946,9535 7986,9529 8026,9516 8067,9505 8107,9505 8147,9505 8187,9475 8227,9466 8267,9456 8307,9443 8347,9428 8387,9428 8427,9428 8467,9387 8508,9359 8548,9345 8588,9326 8628,9304 8668,9304 8708,9304 8748,9263 8788,9245 8828,9230 8868,9194 8908,9168 8948,9168 8989,9168 9029,9089 9069,9065 9109,9033 9149,8999 9189,8960 9229,8960 9269,8960 9309,8867 9349,8833 9389,8798 9429,8752 9470,8705 9510,8705 9550,8705 9590,8591 9630,8553 9670,8511 9710,8468 9750,8418 9790,8418 9830,8418 9870,8291 9910,8248 9951,8205 9991,8153 10031,8095 10071,8095 10111,8095 10151,7963 10191,7918 10231,7864 10271,7810 10311,7741 10351,7741 10391,7741 10432,7590 10472,7539 10512,7484 10552,7433 10592,7374 10632,7374 10672,7374 10712,7222 10752,7174 10792,7122 10832,7076 10872,7022 10913,7022 10953,7022 10993,6909 11033,6852 11073,6801 11113,6742 11153,6680 11193,6680 11233,6680 11273,6547 11313,6513 11353,6455 11394,6391 11434,6318 11474,6318 11514,6318 11554,6137 11594,6070 11634,5990 11674,5889 11714,5794 11754,5794 11794,5794 11835,5543 11875,5455 11915,5360 11955,5247 11995,5124 12035,5124 12075,5124 12115,4860 12155,4770 12195,4650 12235,4545 12275,4437 12316,4437 12356,4437 12396,4186 12436,4102 12476,4011 12516,3917 12556,3814 12596,3814 12636,3814 12676,3631 12716,3568 12756,3494 12797,3416 12837,3344 12877,3344 12917,3344 12957,3219 12997,3161 13037,3112 13077,3053 13117,3001 13157,3001 13197,3001 13237,2905 13278,2865 13318,2820 13358,2772 13398,2730 13438,2730 13478,2730 13518,2645 13558,2645 13598,2598 13638,2560 13678,2509 13718,2509 13759,2509 13799,2407 13839,2358 13879,2304 13919,2246 13959,2189 13999,2189 14039,2189 14079,2084 14119,2033 14159,1973 14199,1913 14240,1913 14280,1913 14320,1913 14360,1795 14400,1728 14440,1647 14480,1561 14520,1561 14560,1561 14600,1561 14640,1414 14681,1300"/>
 <text class="TextShape"><tspan class="TextParagraph" font-family="Liberation Sans, sans-serif" font-size="353px" font-weight="400"><tspan class="TextPosition" x="1431" y="11381"><tspan fill="rgb(0,0,0)" stroke="none">20/02</tspan></tspan></tspan></text>
 <text class="TextShape"><tspan class="TextParagraph" font-family="Liberation Sans, sans-serif" font-size="353px" font-weight="400"><tspan class="TextPosition" x="2593" y="11381"><tspan fill="rgb(0,0,0)" stroke="none">20/03</tspan></tspan></tspan></text>
 <text class="TextShape"><tspan class="TextParagraph" font-family="Liberation Sans, sans-serif" font-size="353px" font-weight="400"><tspan class="TextPosition" x="3836" y="11381"><tspan fill="rgb(0,0,0)" stroke="none">20/04</tspan></tspan></tspan></text>
 <text class="TextShape"><tspan class="TextParagraph" font-family="Liberation Sans, sans-serif" font-size="353px" font-weight="400"><tspan class="TextPosition" x="5038" y="11381"><tspan fill="rgb(0,0,0)" stroke="none">20/05</tspan></tspan></tspan></text>
 <text class="TextShape"><tspan class="TextParagraph" font-family="Liberation Sans, sans-serif" font-size="353px" font-weight="400"><tspan class="TextPosition" x="6281" y="11381"><tspan fill="rgb(0,0,0)" stroke="none">20/06</tspan></tspan></tspan></text>
 <text class="TextShape"><tspan class="TextParagraph" font-family="Liberation Sans, sans-serif" font-size="353px" font-weight="400"><tspan class="TextPosition" x="7483" y="11381"><tspan fill="rgb(0,0,0)" stroke="none">20/07</tspan></tspan></tspan></text>
 <text class="TextShape"><tspan class="TextParagraph" font-family="Liberation Sans, sans-serif" font-size="353px" font-weight="400"><tspan class="TextPosition" x="8726" y="11381"><tspan fill="rgb(0,0,0)" stroke="none">20/08</tspan></tspan></tspan></text>
 <text class="TextShape"><tspan class="TextParagraph" font-family="Liberation Sans, sans-serif" font-size="353px" font-weight="400"><tspan class="TextPosition" x="9968" y="11381"><tspan fill="rgb(0,0,0)" stroke="none">20/09</tspan></tspan></tspan></text>
 <text class="TextShape"><tspan class="TextParagraph" font-family="Liberation Sans, sans-serif" font-size="353px" font-weight="400"><tspan class="TextPosition" x="11171" y="11381"><tspan fill="rgb(0,0,0)" stroke="none">20/10</tspan></tspan></tspan></text>
 <text class="TextShape"><tspan class="TextParagraph" font-family="Liberation Sans, sans-serif" font-size="353px" font-weight="400"><tspan class="TextPosition" x="12414" y="11381"><tspan fill="rgb(0,0,0)" stroke="none">20/11</tspan></tspan></tspan></text>
 <text class="TextShape"><tspan class="TextParagraph" font-family="Liberation Sans, sans-serif" font-size="353px" font-weight="400"><tspan class="TextPosition" x="13616" y="11381"><tspan fill="rgb(0,0,0)" stroke="none">20/12</tspan></tspan></tspan></text>
 <text class="TextShape"><tspan class="TextParagraph" font-family="Liberation Sans, sans-serif" font-size="353px" font-weight="400"><tspan class="TextPosition" x="1420" y="10934"><tspan fill="rgb(0,0,0)" stroke="none">0</tspan></tspan></tspan></text>
 <text class="TextShape"><tspan class="TextParagraph" font-family="Liberation Sans, sans-serif" font-size="353px" font-weight="400"><tspan class="TextPosition" x="388" y="9974"><tspan fill="rgb(0,0,0)" stroke="none">200.000</tspan></tspan></tspan></text>
 <text class="TextShape"><tspan class="TextParagraph" font-family="Liberation Sans, sans-serif" font-size="353px" font-weight="400"><tspan class="TextPosition" x="388" y="9014"><tspan fill="rgb(0,0,0)" stroke="none">400.000</tspan></tspan></tspan></text>
 <text class="TextShape"><tspan class="TextParagraph" font-family="Liberation Sans, sans-serif" font-size="353px" font-weight="400"><tspan class="TextPosition" x="388" y="8054"><tspan fill="rgb(0,0,0)" stroke="none">600.000</tspan></tspan></tspan></text>
 <text class="TextShape"><tspan class="TextParagraph" font-family="Liberation Sans, sans-serif" font-size="353px" font-weight="400"><tspan class="TextPosition" x="388" y="7095"><tspan fill="rgb(0,0,0)" stroke="none">800.000</tspan></tspan></tspan></text>
 <text class="TextShape"><tspan class="TextParagraph" font-family="Liberation Sans, sans-serif" font-size="353px" font-weight="400"><tspan class="TextPosition" x="97" y="6135"><tspan fill="rgb(0,0,0)" stroke="none">1.000.000</tspan></tspan></tspan></text>
 <text class="TextShape"><tspan class="TextParagraph" font-family="Liberation Sans, sans-serif" font-size="353px" font-weight="400"><tspan class="TextPosition" x="97" y="5175"><tspan fill="rgb(0,0,0)" stroke="none">1.200.000</tspan></tspan></tspan></text>
 <text class="TextShape"><tspan class="TextParagraph" font-family="Liberation Sans, sans-serif" font-size="353px" font-weight="400"><tspan class="TextPosition" x="97" y="4216"><tspan fill="rgb(0,0,0)" stroke="none">1.400.000</tspan></tspan></tspan></text>
 <text class="TextShape"><tspan class="TextParagraph" font-family="Liberation Sans, sans-serif" font-size="353px" font-weight="400"><tspan class="TextPosition" x="97" y="3256"><tspan fill="rgb(0,0,0)" stroke="none">1.600.000</tspan></tspan></tspan></text>
 <text class="TextShape"><tspan class="TextParagraph" font-family="Liberation Sans, sans-serif" font-size="353px" font-weight="400"><tspan class="TextPosition" x="97" y="2296"><tspan fill="rgb(0,0,0)" stroke="none">1.800.000</tspan></tspan></tspan></text>
 <text class="TextShape"><tspan class="TextParagraph" font-family="Liberation Sans, sans-serif" font-size="353px" font-weight="400"><tspan class="TextPosition" x="97" y="1337"><tspan fill="rgb(0,0,0)" stroke="none">2.000.000</tspan></tspan></tspan></text>
 <text class="TextShape"><tspan class="TextParagraph" font-family="Liberation Sans, sans-serif" font-size="459px" font-weight="400"><tspan class="TextPosition" x="2966" y="724"><tspan fill="rgb(0,0,0)" stroke="none">Covid-19. Nuevos contagios acumulados en España</tspan></tspan></tspan></text>
</svg>