<?xml version="1.0" encoding="UTF-8"?>
<!DOCTYPE svg PUBLIC "-//W3C//DTD SVG 1.1//EN" "http://www.w3.org/Graphics/SVG/1.1/DTD/svg11.dtd">
<svg width="180mm" height="120mm" viewBox="0 0 18000 12000" version="1.1" xmlns="http://www.w3.org/2000/svg" xmlns:xlink="http://www.w3.org/1999/xlink" stroke-width="28.222" stroke-linejoin="round" xml:space="preserve">
 <path fill="rgb(255,255,255)" stroke="none" d="M 9000,12000 L 0,12000 0,0 18000,0 18000,12000 9000,12000 Z"/>
 <path fill="none" stroke="rgb(178,178,178)" stroke-width="50" stroke-linejoin="round" d="M 8238,10939 L 1279,10939 1279,934 15197,934 15197,10939 8238,10939 Z"/>
 <path fill="none" stroke="rgb(0,0,0)" stroke-linejoin="round" d="M 15197,10938 L 1279,10938"/>
 <path fill="none" stroke="rgb(0,0,0)" stroke-linejoin="round" d="M 15197,9937 L 1279,9937"/>
 <path fill="none" stroke="rgb(0,0,0)" stroke-linejoin="round" d="M 15197,8936 L 1279,8936"/>
 <path fill="none" stroke="rgb(0,0,0)" stroke-linejoin="round" d="M 15197,7936 L 1279,7936"/>
 <path fill="none" stroke="rgb(0,0,0)" stroke-linejoin="round" d="M 15197,6935 L 1279,6935"/>
 <path fill="none" stroke="rgb(0,0,0)" stroke-linejoin="round" d="M 15197,5936 L 1279,5936"/>
 <path fill="none" stroke="rgb(0,0,0)" stroke-linejoin="round" d="M 15197,4935 L 1279,4935"/>
 <path fill="none" stroke="rgb(0,0,0)" stroke-linejoin="round" d="M 15197,3934 L 1279,3934"/>
 <path fill="none" stroke="rgb(0,0,0)" stroke-linejoin="round" d="M 15197,2934 L 1279,2934"/>
 <path fill="none" stroke="rgb(0,0,0)" stroke-linejoin="round" d="M 15197,1933 L 1279,1933"/>
 <path fill="none" stroke="rgb(0,0,0)" stroke-linejoin="round" d="M 15197,933 L 1279,933"/>
 <path fill="none" stroke="rgb(179,179,179)" stroke-linejoin="round" d="M 1279,11088 L 1279,10938"/>
 <path fill="none" stroke="rgb(179,179,179)" stroke-linejoin="round" d="M 1279,11088 L 1279,10938"/>
 <path fill="none" stroke="rgb(179,179,179)" stroke-linejoin="round" d="M 2126,11088 L 2126,10938"/>
 <path fill="none" stroke="rgb(179,179,179)" stroke-linejoin="round" d="M 2126,11088 L 2126,10938"/>
 <path fill="none" stroke="rgb(179,179,179)" stroke-linejoin="round" d="M 2973,11088 L 2973,10938"/>
 <path fill="none" stroke="rgb(179,179,179)" stroke-linejoin="round" d="M 2973,11088 L 2973,10938"/>
 <path fill="none" stroke="rgb(179,179,179)" stroke-linejoin="round" d="M 3820,11088 L 3820,10938"/>
 <path fill="none" stroke="rgb(179,179,179)" stroke-linejoin="round" d="M 3820,11088 L 3820,10938"/>
 <path fill="none" stroke="rgb(179,179,179)" stroke-linejoin="round" d="M 4667,11088 L 4667,10938"/>
 <path fill="none" stroke="rgb(179,179,179)" stroke-linejoin="round" d="M 4667,11088 L 4667,10938"/>
 <path fill="none" stroke="rgb(179,179,179)" stroke-linejoin="round" d="M 5515,11088 L 5515,10938"/>
 <path fill="none" stroke="rgb(179,179,179)" stroke-linejoin="round" d="M 5515,11088 L 5515,10938"/>
 <path fill="none" stroke="rgb(179,179,179)" stroke-linejoin="round" d="M 6362,11088 L 6362,10938"/>
 <path fill="none" stroke="rgb(179,179,179)" stroke-linejoin="round" d="M 6362,11088 L 6362,10938"/>
 <path fill="none" stroke="rgb(179,179,179)" stroke-linejoin="round" d="M 7209,11088 L 7209,10938"/>
 <path fill="none" stroke="rgb(179,179,179)" stroke-linejoin="round" d="M 7209,11088 L 7209,10938"/>
 <path fill="none" stroke="rgb(179,179,179)" stroke-linejoin="round" d="M 8056,11088 L 8056,10938"/>
 <path fill="none" stroke="rgb(179,179,179)" stroke-linejoin="round" d="M 8056,11088 L 8056,10938"/>
 <path fill="none" stroke="rgb(179,179,179)" stroke-linejoin="round" d="M 8904,11088 L 8904,10938"/>
 <path fill="none" stroke="rgb(179,179,179)" stroke-linejoin="round" d="M 8904,11088 L 8904,10938"/>
 <path fill="none" stroke="rgb(179,179,179)" stroke-linejoin="round" d="M 9750,11088 L 9750,10938"/>
 <path fill="none" stroke="rgb(179,179,179)" stroke-linejoin="round" d="M 9750,11088 L 9750,10938"/>
 <path fill="none" stroke="rgb(179,179,179)" stroke-linejoin="round" d="M 10597,11088 L 10597,10938"/>
 <path fill="none" stroke="rgb(179,179,179)" stroke-linejoin="round" d="M 10597,11088 L 10597,10938"/>
 <path fill="none" stroke="rgb(179,179,179)" stroke-linejoin="round" d="M 11444,11088 L 11444,10938"/>
 <path fill="none" stroke="rgb(179,179,179)" stroke-linejoin="round" d="M 11444,11088 L 11444,10938"/>
 <path fill="none" stroke="rgb(179,179,179)" stroke-linejoin="round" d="M 12292,11088 L 12292,10938"/>
 <path fill="none" stroke="rgb(179,179,179)" stroke-linejoin="round" d="M 12292,11088 L 12292,10938"/>
 <path fill="none" stroke="rgb(179,179,179)" stroke-linejoin="round" d="M 13139,11088 L 13139,10938"/>
 <path fill="none" stroke="rgb(179,179,179)" stroke-linejoin="round" d="M 13139,11088 L 13139,10938"/>
 <path fill="none" stroke="rgb(179,179,179)" stroke-linejoin="round" d="M 13986,11088 L 13986,10938"/>
 <path fill="none" stroke="rgb(179,179,179)" stroke-linejoin="round" d="M 13986,11088 L 13986,10938"/>
 <path fill="none" stroke="rgb(179,179,179)" stroke-linejoin="round" d="M 14833,11088 L 14833,10938"/>
 <path fill="none" stroke="rgb(179,179,179)" stroke-linejoin="round" d="M 14833,11088 L 14833,10938"/>
 <path fill="none" stroke="rgb(179,179,179)" stroke-linejoin="round" d="M 1279,10938 L 15197,10938"/>
 <path fill="none" stroke="rgb(0,0,0)" stroke-linejoin="round" d="M 1129,10938 L 1279,10938"/>
 <path fill="none" stroke="rgb(0,0,0)" stroke-linejoin="round" d="M 1129,10938 L 1279,10938"/>
 <path fill="none" stroke="rgb(0,0,0)" stroke-linejoin="round" d="M 1129,9937 L 1279,9937"/>
 <path fill="none" stroke="rgb(0,0,0)" stroke-linejoin="round" d="M 1129,9937 L 1279,9937"/>
 <path fill="none" stroke="rgb(0,0,0)" stroke-linejoin="round" d="M 1129,8936 L 1279,8936"/>
 <path fill="none" stroke="rgb(0,0,0)" stroke-linejoin="round" d="M 1129,8936 L 1279,8936"/>
 <path fill="none" stroke="rgb(0,0,0)" stroke-linejoin="round" d="M 1129,7936 L 1279,7936"/>
 <path fill="none" stroke="rgb(0,0,0)" stroke-linejoin="round" d="M 1129,7936 L 1279,7936"/>
 <path fill="none" stroke="rgb(0,0,0)" stroke-linejoin="round" d="M 1129,6935 L 1279,6935"/>
 <path fill="none" stroke="rgb(0,0,0)" stroke-linejoin="round" d="M 1129,6935 L 1279,6935"/>
 <path fill="none" stroke="rgb(0,0,0)" stroke-linejoin="round" d="M 1129,5936 L 1279,5936"/>
 <path fill="none" stroke="rgb(0,0,0)" stroke-linejoin="round" d="M 1129,5936 L 1279,5936"/>
 <path fill="none" stroke="rgb(0,0,0)" stroke-linejoin="round" d="M 1129,4935 L 1279,4935"/>
 <path fill="none" stroke="rgb(0,0,0)" stroke-linejoin="round" d="M 1129,4935 L 1279,4935"/>
 <path fill="none" stroke="rgb(0,0,0)" stroke-linejoin="round" d="M 1129,3934 L 1279,3934"/>
 <path fill="none" stroke="rgb(0,0,0)" stroke-linejoin="round" d="M 1129,3934 L 1279,3934"/>
 <path fill="none" stroke="rgb(0,0,0)" stroke-linejoin="round" d="M 1129,2934 L 1279,2934"/>
 <path fill="none" stroke="rgb(0,0,0)" stroke-linejoin="round" d="M 1129,2934 L 1279,2934"/>
 <path fill="none" stroke="rgb(0,0,0)" stroke-linejoin="round" d="M 1129,1933 L 1279,1933"/>
 <path fill="none" stroke="rgb(0,0,0)" stroke-linejoin="round" d="M 1129,1933 L 1279,1933"/>
 <path fill="none" stroke="rgb(0,0,0)" stroke-linejoin="round" d="M 1129,933 L 1279,933"/>
 <path fill="none" stroke="rgb(0,0,0)" stroke-linejoin="round" d="M 1129,933 L 1279,933"/>
 <path fill="none" stroke="rgb(0,0,0)" stroke-linejoin="round" d="M 1279,10938 L 1279,933"/>
 <path fill="rgb(255,166,166)" stroke="none" d="M 1279,10938 L 1400,8191 1521,7936 1642,6611 1763,8436 1884,10938 2005,10938 2126,7355 2247,10574 2368,8436 2489,9381 2610,8079 2731,10938 2852,10938 2973,9441 3094,8294 3215,7535 3336,8837 3457,9061 3578,10938 3699,10938 3820,7602 3941,8691 4062,10065 4183,9001 4304,8261 4425,9238 4546,10537 4667,8881 4789,9760 4910,10938 5031,7171 5152,8037 5273,8628 5394,9270 5515,8722 5636,8952 5757,8485 5878,8874 5999,10075 6120,8487 6241,9687 6362,9313 6483,8837 6604,8793 6725,9085 6846,5741 6967,7666 7088,9315 7209,8936 7330,9167 7451,9637 7572,9064 7693,5870 7814,8189 7935,9450 8056,8944 8177,9105 8299,9395 8420,8742 8541,6686 8662,7712 8783,7643 8904,8289 9024,9299 9145,9270 9266,9225 9387,7260 9508,8599 9629,8153 9750,8557 9871,9785 9992,8372 10113,8801 10234,8876 10355,8578 10476,8553 10597,8701 10718,9084 10839,9189 10960,9307 11081,8477 11202,8624 11323,8045 11444,8511 11565,8605 11686,8819 11808,8865 11929,7994 12050,8755 12171,8835 12292,8295 12413,8198 12534,9262 12655,9038 12776,7503 12897,9042 13018,8355 13139,7803 13260,7783 13381,9829 13502,9142 13623,7736 13744,9024 13865,8506 13986,8167 14107,7936 14228,9751 14349,9324 14470,7270 14591,9093 14712,8923 14833,8705 14954,8058 15075,9462 15197,9217 15197,10938 1279,10938 Z"/>
 <path fill="none" stroke="rgb(0,0,0)" stroke-width="50" stroke-linejoin="round" d="M 1279,10938 L 1400,8191 1521,7936 1642,6611 1763,8436 1884,10938 2005,10938 2126,7355 2247,10574 2368,8436 2489,9381 2610,8079 2731,10938 2852,10938 2973,9441 3094,8294 3215,7535 3336,8837 3457,9061 3578,10938 3699,10938 3820,7602 3941,8691 4062,10065 4183,9001 4304,8261 4425,9238 4546,10537 4667,8881 4789,9760 4910,10938 5031,7171 5152,8037 5273,8628 5394,9270 5515,8722 5636,8952 5757,8485 5878,8874 5999,10075 6120,8487 6241,9687 6362,9313 6483,8837 6604,8793 6725,9085 6846,5741 6967,7666 7088,9315 7209,8936 7330,9167 7451,9637 7572,9064 7693,5870 7814,8189 7935,9450 8056,8944 8177,9105 8299,9395 8420,8742 8541,6686 8662,7712 8783,7643 8904,8289 9024,9299 9145,9270 9266,9225 9387,7260 9508,8599 9629,8153 9750,8557 9871,9785 9992,8372 10113,8801 10234,8876 10355,8578 10476,8553 10597,8701 10718,9084 10839,9189 10960,9307 11081,8477 11202,8624 11323,8045 11444,8511 11565,8605 11686,8819 11808,8865 11929,7994 12050,8755 12171,8835 12292,8295 12413,8198 12534,9262 12655,9038 12776,7503 12897,9042 13018,8355 13139,7803 13260,7783 13381,9829 13502,9142 13623,7736 13744,9024 13865,8506 13986,8167 14107,7936 14228,9751 14349,9324 14470,7270 14591,9093 14712,8923 14833,8705 14954,8058 15075,9462 15197,9217 15197,10938 1279,10938 Z"/>
 <path fill="rgb(255,255,215)" stroke="none" d="M 1279,10938 L 1400,7798 1521,6935 1642,6070 1763,7981 1884,10938 2005,10938 2126,4021 2247,5845 2368,8158 2489,9159 2610,7364 2731,10938 2852,10938 2973,2616 3094,7350 3215,7135 3336,5627 3457,7811 3578,10938 3699,10938 3820,3398 3941,6241 4062,3549 4183,6419 4304,5354 4425,9238 4546,10537 4667,4222 4789,5936 4910,8598 5031,4229 5152,5863 5273,8628 5394,9270 5515,2384 5636,4522 5757,4366 5878,4749 5999,2140 6120,8487 6241,9687 6362,2947 6483,4526 6604,5757 6725,3823 6846,2622 6967,7666 7088,9315 7209,2993 7330,3533 7451,2883 7572,2994 7693,2907 7814,8189 7935,9450 8056,2625 8177,3446 8299,4734 8420,5197 8541,3455 8662,7712 8783,7643 8904,2437 9024,5386 9145,4585 9266,4277 9387,4205 9508,8599 9629,8153 9750,3762 9871,5228 9992,5936 10113,5261 10234,4318 10355,8578 10476,8553 10597,4111 10718,7711 10839,5675 10960,6713 11081,5410 11202,8624 11323,8045 11444,4905 11565,6664 11686,6792 11808,6881 11929,5713 12050,8755 12171,8835 12292,5426 12413,6799 12534,8108 12655,7640 12776,5999 12897,9042 13018,8355 13139,4948 13260,6904 13381,5157 13502,7322 13623,6395 13744,9024 13865,8506 13986,5579 14107,6925 14228,8489 14349,7972 14470,6058 14591,9093 14712,8923 14833,6570 14954,7031 15075,8244 15197,8206 15197,9217 15075,9462 14954,8058 14833,8705 14712,8923 14591,9093 14470,7270 14349,9324 14228,9751 14107,7936 13986,8167 13865,8506 13744,9024 13623,7736 13502,9142 13381,9829 13260,7783 13139,7803 13018,8355 12897,9042 12776,7503 12655,9038 12534,9262 12413,8198 12292,8295 12171,8835 12050,8755 11929,7994 11808,8865 11686,8819 11565,8605 11444,8511 11323,8045 11202,8624 11081,8477 10960,9307 10839,9189 10718,9084 10597,8701 10476,8553 10355,8578 10234,8876 10113,8801 9992,8372 9871,9785 9750,8557 9629,8153 9508,8599 9387,7260 9266,9225 9145,9270 9024,9299 8904,8289 8783,7643 8662,7712 8541,6686 8420,8742 8299,9395 8177,9105 8056,8944 7935,9450 7814,8189 7693,5870 7572,9064 7451,9637 7330,9167 7209,8936 7088,9315 6967,7666 6846,5741 6725,9085 6604,8793 6483,8837 6362,9313 6241,9687 6120,8487 5999,10075 5878,8874 5757,8485 5636,8952 5515,8722 5394,9270 5273,8628 5152,8037 5031,7171 4910,10938 4789,9760 4667,8881 4546,10537 4425,9238 4304,8261 4183,9001 4062,10065 3941,8691 3820,7602 3699,10938 3578,10938 3457,9061 3336,8837 3215,7535 3094,8294 2973,9441 2852,10938 2731,10938 2610,8079 2489,9381 2368,8436 2247,10574 2126,7355 2005,10938 1884,10938 1763,8436 1642,6611 1521,7936 1400,8191 1279,10938 Z"/>
 <path fill="none" stroke="rgb(0,0,0)" stroke-width="50" stroke-linejoin="round" d="M 1279,10938 L 1400,7798 1521,6935 1642,6070 1763,7981 1884,10938 2005,10938 2126,4021 2247,5845 2368,8158 2489,9159 2610,7364 2731,10938 2852,10938 2973,2616 3094,7350 3215,7135 3336,5627 3457,7811 3578,10938 3699,10938 3820,3398 3941,6241 4062,3549 4183,6419 4304,5354 4425,9238 4546,10537 4667,4222 4789,5936 4910,8598 5031,4229 5152,5863 5273,8628 5394,9270 5515,2384 5636,4522 5757,4366 5878,4749 5999,2140 6120,8487 6241,9687 6362,2947 6483,4526 6604,5757 6725,3823 6846,2622 6967,7666 7088,9315 7209,2993 7330,3533 7451,2883 7572,2994 7693,2907 7814,8189 7935,9450 8056,2625 8177,3446 8299,4734 8420,5197 8541,3455 8662,7712 8783,7643 8904,2437 9024,5386 9145,4585 9266,4277 9387,4205 9508,8599 9629,8153 9750,3762 9871,5228 9992,5936 10113,5261 10234,4318 10355,8578 10476,8553 10597,4111 10718,7711 10839,5675 10960,6713 11081,5410 11202,8624 11323,8045 11444,4905 11565,6664 11686,6792 11808,6881 11929,5713 12050,8755 12171,8835 12292,5426 12413,6799 12534,8108 12655,7640 12776,5999 12897,9042 13018,8355 13139,4948 13260,6904 13381,5157 13502,7322 13623,6395 13744,9024 13865,8506 13986,5579 14107,6925 14228,8489 14349,7972 14470,6058 14591,9093 14712,8923 14833,6570 14954,7031 15075,8244 15197,8206 15197,9217 15075,9462 14954,8058 14833,8705 14712,8923 14591,9093 14470,7270 14349,9324 14228,9751 14107,7936 13986,8167 13865,8506 13744,9024 13623,7736 13502,9142 13381,9829 13260,7783 13139,7803 13018,8355 12897,9042 12776,7503 12655,9038 12534,9262 12413,8198 12292,8295 12171,8835 12050,8755 11929,7994 11808,8865 11686,8819 11565,8605 11444,8511 11323,8045 11202,8624 11081,8477 10960,9307 10839,9189 10718,9084 10597,8701 10476,8553 10355,8578 10234,8876 10113,8801 9992,8372 9871,9785 9750,8557 9629,8153 9508,8599 9387,7260 9266,9225 9145,9270 9024,9299 8904,8289 8783,7643 8662,7712 8541,6686 8420,8742 8299,9395 8177,9105 8056,8944 7935,9450 7814,8189 7693,5870 7572,9064 7451,9637 7330,9167 7209,8936 7088,9315 6967,7666 6846,5741 6725,9085 6604,8793 6483,8837 6362,9313 6241,9687 6120,8487 5999,10075 5878,8874 5757,8485 5636,8952 5515,8722 5394,9270 5273,8628 5152,8037 5031,7171 4910,10938 4789,9760 4667,8881 4546,10537 4425,9238 4304,8261 4183,9001 4062,10065 3941,8691 3820,7602 3699,10938 3578,10938 3457,9061 3336,8837 3215,7535 3094,8294 2973,9441 2852,10938 2731,10938 2610,8079 2489,9381 2368,8436 2247,10574 2126,7355 2005,10938 1884,10938 1763,8436 1642,6611 1521,7936 1400,8191 1279,10938 Z"/>
 <path fill="rgb(222,230,239)" stroke="none" d="M 1279,10938 L 1400,7798 1521,6935 1642,6070 1763,7981 1884,10938 2005,10938 2126,4021 2247,5845 2368,8158 2489,9159 2610,7364 2731,10938 2852,10938 2973,2616 3094,7350 3215,5135 3336,4885 3457,7498 3578,2252 3699,9270 3820,2818 3941,5731 4062,3190 4183,5774 4304,4074 4425,8672 4546,7736 4667,3674 4789,5641 4910,7951 5031,3640 5152,4558 5273,8244 5394,7602 5515,1925 5636,3911 5757,3777 5878,3718 5999,1666 6120,5221 6241,6768 6362,2167 6483,3973 6604,4506 6725,3082 6846,1972 6967,6512 7088,7422 7209,2169 7330,3208 7451,2544 7572,2506 7693,2578 7814,5551 7935,7422 8056,1986 8177,3117 8299,4017 8420,4226 8541,2888 8662,6307 8783,5569 8904,1913 9024,4923 9145,4083 9266,3624 9387,3583 9508,7131 9629,6587 9750,3210 9871,4739 9992,4941 10113,4643 10234,3789 10355,7311 10476,7205 10597,3193 10718,7007 10839,4952 10960,5176 11081,4650 11202,7403 11323,5697 11444,3692 11565,5873 11686,5143 11808,5142 11929,4814 12050,6349 12171,6515 12292,3976 12413,5642 12534,6700 12655,5887 12776,4745 12897,6517 13018,6030 13139,3193 13260,5601 13381,4143 13502,5206 13623,4671 13744,6350 13865,5526 13986,3779 14107,5499 14228,6236 14349,5558 14470,3895 14591,6258 14712,5282 14833,4347 14954,5305 15075,5632 15197,5589 15197,8206 15075,8244 14954,7031 14833,6570 14712,8923 14591,9093 14470,6058 14349,7972 14228,8489 14107,6925 13986,5579 13865,8506 13744,9024 13623,6395 13502,7322 13381,5157 13260,6904 13139,4948 13018,8355 12897,9042 12776,5999 12655,7640 12534,8108 12413,6799 12292,5426 12171,8835 12050,8755 11929,5713 11808,6881 11686,6792 11565,6664 11444,4905 11323,8045 11202,8624 11081,5410 10960,6713 10839,5675 10718,7711 10597,4111 10476,8553 10355,8578 10234,4318 10113,5261 9992,5936 9871,5228 9750,3762 9629,8153 9508,8599 9387,4205 9266,4277 9145,4585 9024,5386 8904,2437 8783,7643 8662,7712 8541,3455 8420,5197 8299,4734 8177,3446 8056,2625 7935,9450 7814,8189 7693,2907 7572,2994 7451,2883 7330,3533 7209,2993 7088,9315 6967,7666 6846,2622 6725,3823 6604,5757 6483,4526 6362,2947 6241,9687 6120,8487 5999,2140 5878,4749 5757,4366 5636,4522 5515,2384 5394,9270 5273,8628 5152,5863 5031,4229 4910,8598 4789,5936 4667,4222 4546,10537 4425,9238 4304,5354 4183,6419 4062,3549 3941,6241 3820,3398 3699,10938 3578,10938 3457,7811 3336,5627 3215,7135 3094,7350 2973,2616 2852,10938 2731,10938 2610,7364 2489,9159 2368,8158 2247,5845 2126,4021 2005,10938 1884,10938 1763,7981 1642,6070 1521,6935 1400,7798 1279,10938 Z"/>
 <path fill="none" stroke="rgb(0,0,0)" stroke-width="50" stroke-linejoin="round" d="M 1279,10938 L 1400,7798 1521,6935 1642,6070 1763,7981 1884,10938 2005,10938 2126,4021 2247,5845 2368,8158 2489,9159 2610,7364 2731,10938 2852,10938 2973,2616 3094,7350 3215,5135 3336,4885 3457,7498 3578,2252 3699,9270 3820,2818 3941,5731 4062,3190 4183,5774 4304,4074 4425,8672 4546,7736 4667,3674 4789,5641 4910,7951 5031,3640 5152,4558 5273,8244 5394,7602 5515,1925 5636,3911 5757,3777 5878,3718 5999,1666 6120,5221 6241,6768 6362,2167 6483,3973 6604,4506 6725,3082 6846,1972 6967,6512 7088,7422 7209,2169 7330,3208 7451,2544 7572,2506 7693,2578 7814,5551 7935,7422 8056,1986 8177,3117 8299,4017 8420,4226 8541,2888 8662,6307 8783,5569 8904,1913 9024,4923 9145,4083 9266,3624 9387,3583 9508,7131 9629,6587 9750,3210 9871,4739 9992,4941 10113,4643 10234,3789 10355,7311 10476,7205 10597,3193 10718,7007 10839,4952 10960,5176 11081,4650 11202,7403 11323,5697 11444,3692 11565,5873 11686,5143 11808,5142 11929,4814 12050,6349 12171,6515 12292,3976 12413,5642 12534,6700 12655,5887 12776,4745 12897,6517 13018,6030 13139,3193 13260,5601 13381,4143 13502,5206 13623,4671 13744,6350 13865,5526 13986,3779 14107,5499 14228,6236 14349,5558 14470,3895 14591,6258 14712,5282 14833,4347 14954,5305 15075,5632 15197,5589 15197,8206 15075,8244 14954,7031 14833,6570 14712,8923 14591,9093 14470,6058 14349,7972 14228,8489 14107,6925 13986,5579 13865,8506 13744,9024 13623,6395 13502,7322 13381,5157 13260,6904 13139,4948 13018,8355 12897,9042 12776,5999 12655,7640 12534,8108 12413,6799 12292,5426 12171,8835 12050,8755 11929,5713 11808,6881 11686,6792 11565,6664 11444,4905 11323,8045 11202,8624 11081,5410 10960,6713 10839,5675 10718,7711 10597,4111 10476,8553 10355,8578 10234,4318 10113,5261 9992,5936 9871,5228 9750,3762 9629,8153 9508,8599 9387,4205 9266,4277 9145,4585 9024,5386 8904,2437 8783,7643 8662,7712 8541,3455 8420,5197 8299,4734 8177,3446 8056,2625 7935,9450 7814,8189 7693,2907 7572,2994 7451,2883 7330,3533 7209,2993 7088,9315 6967,7666 6846,2622 6725,3823 6604,5757 6483,4526 6362,2947 6241,9687 6120,8487 5999,2140 5878,4749 5757,4366 5636,4522 5515,2384 5394,9270 5273,8628 5152,5863 5031,4229 4910,8598 4789,5936 4667,4222 4546,10537 4425,9238 4304,5354 4183,6419 4062,3549 3941,6241 3820,3398 3699,10938 3578,10938 3457,7811 3336,5627 3215,7135 3094,7350 2973,2616 2852,10938 2731,10938 2610,7364 2489,9159 2368,8158 2247,5845 2126,4021 2005,10938 1884,10938 1763,7981 1642,6070 1521,6935 1400,7798 1279,10938 Z"/>
 <path fill="rgb(221,232,203)" stroke="none" d="M 1279,10938 L 1400,7798 1521,6935 1642,6070 1763,7981 1884,10938 2005,10938 2126,4021 2247,5845 2368,8158 2489,9159 2610,7364 2731,10938 2852,10938 2973,2616 3094,7350 3215,5135 3336,4885 3457,4581 3578,2032 3699,7185 3820,2383 3941,4506 4062,2369 4183,4806 4304,3841 4425,5275 4546,5335 4667,3126 4789,4464 4910,7154 5031,2227 5152,3253 5273,3626 5394,7185 5515,1773 5636,3682 5757,2796 5878,2377 5999,1234 6120,2770 6241,5936 6362,1972 6483,2315 6604,3613 6725,2044 6846,1582 6967,4781 7088,6070 7209,1639 7330,2233 7451,1978 7572,1719 7693,1690 7814,2582 7935,4989 8056,1572 8177,2248 8299,2690 8420,2537 8541,1925 8662,3413 8783,3495 8904,1488 9024,3554 9145,2203 9266,2020 9387,1798 9508,4467 9629,3717 9750,2554 9871,3412 9992,2696 10113,2478 10234,2143 10355,3773 10476,3836 10597,2016 10718,4554 10839,2648 10960,2619 11081,2771 11202,3505 11323,3417 11444,2362 11565,3728 11686,2661 11808,2724 11929,2602 12050,3577 12171,3778 12292,2928 12413,3720 12534,4572 12655,3624 12776,3018 12897,3746 13018,4219 13139,2168 13260,4135 13381,2726 13502,3336 13623,3299 13744,3752 13865,4121 13986,3683 14107,3759 14228,4086 14349,3420 14470,2416 14591,3851 14712,4161 14833,3408 14954,3892 15075,3796 15197,3579 15197,5589 15075,5632 14954,5305 14833,4347 14712,5282 14591,6258 14470,3895 14349,5558 14228,6236 14107,5499 13986,3779 13865,5526 13744,6350 13623,4671 13502,5206 13381,4143 13260,5601 13139,3193 13018,6030 12897,6517 12776,4745 12655,5887 12534,6700 12413,5642 12292,3976 12171,6515 12050,6349 11929,4814 11808,5142 11686,5143 11565,5873 11444,3692 11323,5697 11202,7403 11081,4650 10960,5176 10839,4952 10718,7007 10597,3193 10476,7205 10355,7311 10234,3789 10113,4643 9992,4941 9871,4739 9750,3210 9629,6587 9508,7131 9387,3583 9266,3624 9145,4083 9024,4923 8904,1913 8783,5569 8662,6307 8541,2888 8420,4226 8299,4017 8177,3117 8056,1986 7935,7422 7814,5551 7693,2578 7572,2506 7451,2544 7330,3208 7209,2169 7088,7422 6967,6512 6846,1972 6725,3082 6604,4506 6483,3973 6362,2167 6241,6768 6120,5221 5999,1666 5878,3718 5757,3777 5636,3911 5515,1925 5394,7602 5273,8244 5152,4558 5031,3640 4910,7951 4789,5641 4667,3674 4546,7736 4425,8672 4304,4074 4183,5774 4062,3190 3941,5731 3820,2818 3699,9270 3578,2252 3457,7498 3336,4885 3215,5135 3094,7350 2973,2616 2852,10938 2731,10938 2610,7364 2489,9159 2368,8158 2247,5845 2126,4021 2005,10938 1884,10938 1763,7981 1642,6070 1521,6935 1400,7798 1279,10938 Z"/>
 <path fill="none" stroke="rgb(0,0,0)" stroke-width="50" stroke-linejoin="round" d="M 1279,10938 L 1400,7798 1521,6935 1642,6070 1763,7981 1884,10938 2005,10938 2126,4021 2247,5845 2368,8158 2489,9159 2610,7364 2731,10938 2852,10938 2973,2616 3094,7350 3215,5135 3336,4885 3457,4581 3578,2032 3699,7185 3820,2383 3941,4506 4062,2369 4183,4806 4304,3841 4425,5275 4546,5335 4667,3126 4789,4464 4910,7154 5031,2227 5152,3253 5273,3626 5394,7185 5515,1773 5636,3682 5757,2796 5878,2377 5999,1234 6120,2770 6241,5936 6362,1972 6483,2315 6604,3613 6725,2044 6846,1582 6967,4781 7088,6070 7209,1639 7330,2233 7451,1978 7572,1719 7693,1690 7814,2582 7935,4989 8056,1572 8177,2248 8299,2690 8420,2537 8541,1925 8662,3413 8783,3495 8904,1488 9024,3554 9145,2203 9266,2020 9387,1798 9508,4467 9629,3717 9750,2554 9871,3412 9992,2696 10113,2478 10234,2143 10355,3773 10476,3836 10597,2016 10718,4554 10839,2648 10960,2619 11081,2771 11202,3505 11323,3417 11444,2362 11565,3728 11686,2661 11808,2724 11929,2602 12050,3577 12171,3778 12292,2928 12413,3720 12534,4572 12655,3624 12776,3018 12897,3746 13018,4219 13139,2168 13260,4135 13381,2726 13502,3336 13623,3299 13744,3752 13865,4121 13986,3683 14107,3759 14228,4086 14349,3420 14470,2416 14591,3851 14712,4161 14833,3408 14954,3892 15075,3796 15197,3579 15197,5589 15075,5632 14954,5305 14833,4347 14712,5282 14591,6258 14470,3895 14349,5558 14228,6236 14107,5499 13986,3779 13865,5526 13744,6350 13623,4671 13502,5206 13381,4143 13260,5601 13139,3193 13018,6030 12897,6517 12776,4745 12655,5887 12534,6700 12413,5642 12292,3976 12171,6515 12050,6349 11929,4814 11808,5142 11686,5143 11565,5873 11444,3692 11323,5697 11202,7403 11081,4650 10960,5176 10839,4952 10718,7007 10597,3193 10476,7205 10355,7311 10234,3789 10113,4643 9992,4941 9871,4739 9750,3210 9629,6587 9508,7131 9387,3583 9266,3624 9145,4083 9024,4923 8904,1913 8783,5569 8662,6307 8541,2888 8420,4226 8299,4017 8177,3117 8056,1986 7935,7422 7814,5551 7693,2578 7572,2506 7451,2544 7330,3208 7209,2169 7088,7422 6967,6512 6846,1972 6725,3082 6604,4506 6483,3973 6362,2167 6241,6768 6120,5221 5999,1666 5878,3718 5757,3777 5636,3911 5515,1925 5394,7602 5273,8244 5152,4558 5031,3640 4910,7951 4789,5641 4667,3674 4546,7736 4425,8672 4304,4074 4183,5774 4062,3190 3941,5731 3820,2818 3699,9270 3578,2252 3457,7498 3336,4885 3215,5135 3094,7350 2973,2616 2852,10938 2731,10938 2610,7364 2489,9159 2368,8158 2247,5845 2126,4021 2005,10938 1884,10938 1763,7981 1642,6070 1521,6935 1400,7798 1279,10938 Z"/>
 <path fill="rgb(183,179,202)" stroke="none" d="M 1279,10938 L 1400,7602 1521,4735 1642,5259 1763,7072 1884,10461 2005,9270 2126,4021 2247,4935 2368,7602 2489,7602 2610,6887 2731,9585 2852,8714 2973,2429 3094,6029 3215,3934 3336,3033 3457,2913 3578,1592 3699,2600 3820,1803 3941,3996 4062,1600 4183,3192 4304,3027 4425,3576 4546,4134 4667,2577 4789,4170 4910,1281 5031,2110 5152,2528 5273,2857 5394,5102 5515,1544 5636,3606 5757,2600 5878,2274 5999,1191 6120,2362 6241,3851 6362,1907 6483,2204 6604,3345 6725,1674 6846,1582 6967,4396 7088,4989 7209,1521 7330,2161 7451,1894 7572,1532 7693,1657 7814,2472 7935,4042 8056,1422 8177,2201 8299,2511 8420,2368 8541,1755 8662,3083 8783,2885 8904,1292 9024,3420 9145,1833 9266,1612 9387,1609 9508,3706 9629,3108 9750,1864 9871,3168 9992,2247 10113,2029 10234,1803 10355,2680 10476,2592 10597,1639 10718,4211 10839,2093 10960,1989 11081,2093 11202,2674 11323,2294 11444,2013 11565,3461 11686,2063 11808,2084 11929,2118 12050,2462 12171,2346 12292,2177 12413,3253 12534,3618 12655,2557 12776,2149 12897,2522 13018,2285 13139,1324 13260,3688 13381,1955 13502,2421 13623,2491 13744,2569 13865,2328 13986,2935 14107,3363 14228,2838 14349,2672 14470,1893 14591,2730 14712,2847 14833,2887 14954,3432 15075,3022 15197,2833 15197,3579 15075,3796 14954,3892 14833,3408 14712,4161 14591,3851 14470,2416 14349,3420 14228,4086 14107,3759 13986,3683 13865,4121 13744,3752 13623,3299 13502,3336 13381,2726 13260,4135 13139,2168 13018,4219 12897,3746 12776,3018 12655,3624 12534,4572 12413,3720 12292,2928 12171,3778 12050,3577 11929,2602 11808,2724 11686,2661 11565,3728 11444,2362 11323,3417 11202,3505 11081,2771 10960,2619 10839,2648 10718,4554 10597,2016 10476,3836 10355,3773 10234,2143 10113,2478 9992,2696 9871,3412 9750,2554 9629,3717 9508,4467 9387,1798 9266,2020 9145,2203 9024,3554 8904,1488 8783,3495 8662,3413 8541,1925 8420,2537 8299,2690 8177,2248 8056,1572 7935,4989 7814,2582 7693,1690 7572,1719 7451,1978 7330,2233 7209,1639 7088,6070 6967,4781 6846,1582 6725,2044 6604,3613 6483,2315 6362,1972 6241,5936 6120,2770 5999,1234 5878,2377 5757,2796 5636,3682 5515,1773 5394,7185 5273,3626 5152,3253 5031,2227 4910,7154 4789,4464 4667,3126 4546,5335 4425,5275 4304,3841 4183,4806 4062,2369 3941,4506 3820,2383 3699,7185 3578,2032 3457,4581 3336,4885 3215,5135 3094,7350 2973,2616 2852,10938 2731,10938 2610,7364 2489,9159 2368,8158 2247,5845 2126,4021 2005,10938 1884,10938 1763,7981 1642,6070 1521,6935 1400,7798 1279,10938 Z"/>
 <path fill="none" stroke="rgb(0,0,0)" stroke-width="50" stroke-linejoin="round" d="M 1279,10938 L 1400,7602 1521,4735 1642,5259 1763,7072 1884,10461 2005,9270 2126,4021 2247,4935 2368,7602 2489,7602 2610,6887 2731,9585 2852,8714 2973,2429 3094,6029 3215,3934 3336,3033 3457,2913 3578,1592 3699,2600 3820,1803 3941,3996 4062,1600 4183,3192 4304,3027 4425,3576 4546,4134 4667,2577 4789,4170 4910,1281 5031,2110 5152,2528 5273,2857 5394,5102 5515,1544 5636,3606 5757,2600 5878,2274 5999,1191 6120,2362 6241,3851 6362,1907 6483,2204 6604,3345 6725,1674 6846,1582 6967,4396 7088,4989 7209,1521 7330,2161 7451,1894 7572,1532 7693,1657 7814,2472 7935,4042 8056,1422 8177,2201 8299,2511 8420,2368 8541,1755 8662,3083 8783,2885 8904,1292 9024,3420 9145,1833 9266,1612 9387,1609 9508,3706 9629,3108 9750,1864 9871,3168 9992,2247 10113,2029 10234,1803 10355,2680 10476,2592 10597,1639 10718,4211 10839,2093 10960,1989 11081,2093 11202,2674 11323,2294 11444,2013 11565,3461 11686,2063 11808,2084 11929,2118 12050,2462 12171,2346 12292,2177 12413,3253 12534,3618 12655,2557 12776,2149 12897,2522 13018,2285 13139,1324 13260,3688 13381,1955 13502,2421 13623,2491 13744,2569 13865,2328 13986,2935 14107,3363 14228,2838 14349,2672 14470,1893 14591,2730 14712,2847 14833,2887 14954,3432 15075,3022 15197,2833 15197,3579 15075,3796 14954,3892 14833,3408 14712,4161 14591,3851 14470,2416 14349,3420 14228,4086 14107,3759 13986,3683 13865,4121 13744,3752 13623,3299 13502,3336 13381,2726 13260,4135 13139,2168 13018,4219 12897,3746 12776,3018 12655,3624 12534,4572 12413,3720 12292,2928 12171,3778 12050,3577 11929,2602 11808,2724 11686,2661 11565,3728 11444,2362 11323,3417 11202,3505 11081,2771 10960,2619 10839,2648 10718,4554 10597,2016 10476,3836 10355,3773 10234,2143 10113,2478 9992,2696 9871,3412 9750,2554 9629,3717 9508,4467 9387,1798 9266,2020 9145,2203 9024,3554 8904,1488 8783,3495 8662,3413 8541,1925 8420,2537 8299,2690 8177,2248 8056,1572 7935,4989 7814,2582 7693,1690 7572,1719 7451,1978 7330,2233 7209,1639 7088,6070 6967,4781 6846,1582 6725,2044 6604,3613 6483,2315 6362,1972 6241,5936 6120,2770 5999,1234 5878,2377 5757,2796 5636,3682 5515,1773 5394,7185 5273,3626 5152,3253 5031,2227 4910,7154 4789,4464 4667,3126 4546,5335 4425,5275 4304,3841 4183,4806 4062,2369 3941,4506 3820,2383 3699,7185 3578,2032 3457,4581 3336,4885 3215,5135 3094,7350 2973,2616 2852,10938 2731,10938 2610,7364 2489,9159 2368,8158 2247,5845 2126,4021 2005,10938 1884,10938 1763,7981 1642,6070 1521,6935 1400,7798 1279,10938 Z"/>
 <path fill="rgb(114,159,207)" stroke="none" d="M 1279,10938 L 1400,6817 1521,3934 1642,3096 1763,5481 1884,7126 2005,6351 2126,3156 2247,3479 2368,4268 2489,6046 2610,4983 2731,6340 2852,8158 2973,2335 3094,5275 3215,2734 3336,2538 3457,1454 3578,1262 3699,2600 3820,1658 3941,3587 4062,1240 4183,1578 4304,2212 4425,2254 4546,3334 4667,2166 4789,3802 4910,1132 5031,1521 5152,2093 5273,2472 5394,2600 5515,1314 5636,3300 5757,1521 5878,1448 5999,1148 6120,1954 6241,3434 6362,1907 6483,1983 6604,2541 6725,1451 6846,1517 6967,3434 7088,4448 7209,1462 7330,1727 7451,1724 7572,1420 7693,1426 7814,1812 7935,3772 8056,1422 8177,1966 8299,2044 8420,1566 8541,1329 8662,2338 8783,2275 8904,1194 9024,3207 9145,1383 9266,1286 9387,1392 9508,2673 9629,2934 9750,1692 9871,2958 9992,1734 10113,1579 10234,1595 10355,2025 10476,2021 10597,1498 10718,3988 10839,1370 10960,1377 11081,1762 11202,1816 11323,1954 11444,1813 11565,3042 11686,1556 11808,1700 11929,1634 12050,1681 12171,1821 12292,1930 12413,3033 12534,3034 12655,1838 12776,1663 12897,1647 13018,1961 13139,955 13260,3204 13381,1520 13502,1838 13623,1849 13744,1751 13865,1761 13986,2616 14107,2984 14228,1894 14349,1855 14470,1035 14591,1803 14712,2133 14833,2613 14954,2801 15075,1963 15197,1827 15197,2833 15075,3022 14954,3432 14833,2887 14712,2847 14591,2730 14470,1893 14349,2672 14228,2838 14107,3363 13986,2935 13865,2328 13744,2569 13623,2491 13502,2421 13381,1955 13260,3688 13139,1324 13018,2285 12897,2522 12776,2149 12655,2557 12534,3618 12413,3253 12292,2177 12171,2346 12050,2462 11929,2118 11808,2084 11686,2063 11565,3461 11444,2013 11323,2294 11202,2674 11081,2093 10960,1989 10839,2093 10718,4211 10597,1639 10476,2592 10355,2680 10234,1803 10113,2029 9992,2247 9871,3168 9750,1864 9629,3108 9508,3706 9387,1609 9266,1612 9145,1833 9024,3420 8904,1292 8783,2885 8662,3083 8541,1755 8420,2368 8299,2511 8177,2201 8056,1422 7935,4042 7814,2472 7693,1657 7572,1532 7451,1894 7330,2161 7209,1521 7088,4989 6967,4396 6846,1582 6725,1674 6604,3345 6483,2204 6362,1907 6241,3851 6120,2362 5999,1191 5878,2274 5757,2600 5636,3606 5515,1544 5394,5102 5273,2857 5152,2528 5031,2110 4910,1281 4789,4170 4667,2577 4546,4134 4425,3576 4304,3027 4183,3192 4062,1600 3941,3996 3820,1803 3699,2600 3578,1592 3457,2913 3336,3033 3215,3934 3094,6029 2973,2429 2852,8714 2731,9585 2610,6887 2489,7602 2368,7602 2247,4935 2126,4021 2005,9270 1884,10461 1763,7072 1642,5259 1521,4735 1400,7602 1279,10938 Z"/>
 <path fill="none" stroke="rgb(0,0,0)" stroke-width="50" stroke-linejoin="round" d="M 1279,10938 L 1400,6817 1521,3934 1642,3096 1763,5481 1884,7126 2005,6351 2126,3156 2247,3479 2368,4268 2489,6046 2610,4983 2731,6340 2852,8158 2973,2335 3094,5275 3215,2734 3336,2538 3457,1454 3578,1262 3699,2600 3820,1658 3941,3587 4062,1240 4183,1578 4304,2212 4425,2254 4546,3334 4667,2166 4789,3802 4910,1132 5031,1521 5152,2093 5273,2472 5394,2600 5515,1314 5636,3300 5757,1521 5878,1448 5999,1148 6120,1954 6241,3434 6362,1907 6483,1983 6604,2541 6725,1451 6846,1517 6967,3434 7088,4448 7209,1462 7330,1727 7451,1724 7572,1420 7693,1426 7814,1812 7935,3772 8056,1422 8177,1966 8299,2044 8420,1566 8541,1329 8662,2338 8783,2275 8904,1194 9024,3207 9145,1383 9266,1286 9387,1392 9508,2673 9629,2934 9750,1692 9871,2958 9992,1734 10113,1579 10234,1595 10355,2025 10476,2021 10597,1498 10718,3988 10839,1370 10960,1377 11081,1762 11202,1816 11323,1954 11444,1813 11565,3042 11686,1556 11808,1700 11929,1634 12050,1681 12171,1821 12292,1930 12413,3033 12534,3034 12655,1838 12776,1663 12897,1647 13018,1961 13139,955 13260,3204 13381,1520 13502,1838 13623,1849 13744,1751 13865,1761 13986,2616 14107,2984 14228,1894 14349,1855 14470,1035 14591,1803 14712,2133 14833,2613 14954,2801 15075,1963 15197,1827 15197,2833 15075,3022 14954,3432 14833,2887 14712,2847 14591,2730 14470,1893 14349,2672 14228,2838 14107,3363 13986,2935 13865,2328 13744,2569 13623,2491 13502,2421 13381,1955 13260,3688 13139,1324 13018,2285 12897,2522 12776,2149 12655,2557 12534,3618 12413,3253 12292,2177 12171,2346 12050,2462 11929,2118 11808,2084 11686,2063 11565,3461 11444,2013 11323,2294 11202,2674 11081,2093 10960,1989 10839,2093 10718,4211 10597,1639 10476,2592 10355,2680 10234,1803 10113,2029 9992,2247 9871,3168 9750,1864 9629,3108 9508,3706 9387,1609 9266,1612 9145,1833 9024,3420 8904,1292 8783,2885 8662,3083 8541,1755 8420,2368 8299,2511 8177,2201 8056,1422 7935,4042 7814,2472 7693,1657 7572,1532 7451,1894 7330,2161 7209,1521 7088,4989 6967,4396 6846,1582 6725,1674 6604,3345 6483,2204 6362,1907 6241,3851 6120,2362 5999,1191 5878,2274 5757,2600 5636,3606 5515,1544 5394,5102 5273,2857 5152,2528 5031,2110 4910,1281 4789,4170 4667,2577 4546,4134 4425,3576 4304,3027 4183,3192 4062,1600 3941,3996 3820,1803 3699,2600 3578,1592 3457,2913 3336,3033 3215,3934 3094,6029 2973,2429 2852,8714 2731,9585 2610,6887 2489,7602 2368,7602 2247,4935 2126,4021 2005,9270 1884,10461 1763,7072 1642,5259 1521,4735 1400,7602 1279,10938 Z"/>
 <path fill="rgb(232,242,161)" stroke="none" d="M 1279,10938 L 1400,5053 1521,3934 1642,3096 1763,5481 1884,7126 2005,6351 2126,3156 2247,2388 2368,4268 2489,6046 2610,4983 2731,6340 2852,8158 2973,2335 3094,3764 3215,2734 3336,2538 3457,1454 3578,1262 3699,2600 3820,1658 3941,1954 4062,1240 4183,1578 4304,2212 4425,2254 4546,3334 4667,2166 4789,1448 4910,1132 5031,1521 5152,2093 5273,2472 5394,2600 5515,1314 5636,1467 5757,1521 5878,1448 5999,1148 6120,1954 6241,3434 6362,1907 6483,1264 6604,2541 6725,1451 6846,1517 6967,3434 7088,4448 7209,1462 7330,1221 7451,1724 7572,1420 7693,1426 7814,1812 7935,3772 8056,1422 8177,1191 8299,2044 8420,1566 8541,1329 8662,2338 8783,2275 8904,1194 9024,1241 9145,1383 9266,1286 9387,1392 9508,2673 9629,2934 9750,1692 9871,1404 9992,1734 10113,1579 10234,1595 10355,2025 10476,2021 10597,1498 10718,1430 10839,1370 10960,1377 11081,1762 11202,1816 11323,1954 11444,1813 11565,1413 11686,1556 11808,1700 11929,1634 12050,1681 12171,1821 12292,1930 12413,1315 12534,3034 12655,1838 12776,1663 12897,1647 13018,1961 13139,955 13260,1601 13381,1520 13502,1838 13623,1849 13744,1751 13865,1761 13986,2616 14107,1594 14228,1894 14349,1855 14470,1035 14591,1803 14712,2133 14833,2613 14954,1679 15075,1963 15197,1827 15197,1827 15075,1963 14954,2801 14833,2613 14712,2133 14591,1803 14470,1035 14349,1855 14228,1894 14107,2984 13986,2616 13865,1761 13744,1751 13623,1849 13502,1838 13381,1520 13260,3204 13139,955 13018,1961 12897,1647 12776,1663 12655,1838 12534,3034 12413,3033 12292,1930 12171,1821 12050,1681 11929,1634 11808,1700 11686,1556 11565,3042 11444,1813 11323,1954 11202,1816 11081,1762 10960,1377 10839,1370 10718,3988 10597,1498 10476,2021 10355,2025 10234,1595 10113,1579 9992,1734 9871,2958 9750,1692 9629,2934 9508,2673 9387,1392 9266,1286 9145,1383 9024,3207 8904,1194 8783,2275 8662,2338 8541,1329 8420,1566 8299,2044 8177,1966 8056,1422 7935,3772 7814,1812 7693,1426 7572,1420 7451,1724 7330,1727 7209,1462 7088,4448 6967,3434 6846,1517 6725,1451 6604,2541 6483,1983 6362,1907 6241,3434 6120,1954 5999,1148 5878,1448 5757,1521 5636,3300 5515,1314 5394,2600 5273,2472 5152,2093 5031,1521 4910,1132 4789,3802 4667,2166 4546,3334 4425,2254 4304,2212 4183,1578 4062,1240 3941,3587 3820,1658 3699,2600 3578,1262 3457,1454 3336,2538 3215,2734 3094,5275 2973,2335 2852,8158 2731,6340 2610,4983 2489,6046 2368,4268 2247,3479 2126,3156 2005,6351 1884,7126 1763,5481 1642,3096 1521,3934 1400,6817 1279,10938 Z"/>
 <path fill="none" stroke="rgb(0,0,0)" stroke-width="50" stroke-linejoin="round" d="M 1279,10938 L 1400,5053 1521,3934 1642,3096 1763,5481 1884,7126 2005,6351 2126,3156 2247,2388 2368,4268 2489,6046 2610,4983 2731,6340 2852,8158 2973,2335 3094,3764 3215,2734 3336,2538 3457,1454 3578,1262 3699,2600 3820,1658 3941,1954 4062,1240 4183,1578 4304,2212 4425,2254 4546,3334 4667,2166 4789,1448 4910,1132 5031,1521 5152,2093 5273,2472 5394,2600 5515,1314 5636,1467 5757,1521 5878,1448 5999,1148 6120,1954 6241,3434 6362,1907 6483,1264 6604,2541 6725,1451 6846,1517 6967,3434 7088,4448 7209,1462 7330,1221 7451,1724 7572,1420 7693,1426 7814,1812 7935,3772 8056,1422 8177,1191 8299,2044 8420,1566 8541,1329 8662,2338 8783,2275 8904,1194 9024,1241 9145,1383 9266,1286 9387,1392 9508,2673 9629,2934 9750,1692 9871,1404 9992,1734 10113,1579 10234,1595 10355,2025 10476,2021 10597,1498 10718,1430 10839,1370 10960,1377 11081,1762 11202,1816 11323,1954 11444,1813 11565,1413 11686,1556 11808,1700 11929,1634 12050,1681 12171,1821 12292,1930 12413,1315 12534,3034 12655,1838 12776,1663 12897,1647 13018,1961 13139,955 13260,1601 13381,1520 13502,1838 13623,1849 13744,1751 13865,1761 13986,2616 14107,1594 14228,1894 14349,1855 14470,1035 14591,1803 14712,2133 14833,2613 14954,1679 15075,1963 15197,1827 15197,1827 15075,1963 14954,2801 14833,2613 14712,2133 14591,1803 14470,1035 14349,1855 14228,1894 14107,2984 13986,2616 13865,1761 13744,1751 13623,1849 13502,1838 13381,1520 13260,3204 13139,955 13018,1961 12897,1647 12776,1663 12655,1838 12534,3034 12413,3033 12292,1930 12171,1821 12050,1681 11929,1634 11808,1700 11686,1556 11565,3042 11444,1813 11323,1954 11202,1816 11081,1762 10960,1377 10839,1370 10718,3988 10597,1498 10476,2021 10355,2025 10234,1595 10113,1579 9992,1734 9871,2958 9750,1692 9629,2934 9508,2673 9387,1392 9266,1286 9145,1383 9024,3207 8904,1194 8783,2275 8662,2338 8541,1329 8420,1566 8299,2044 8177,1966 8056,1422 7935,3772 7814,1812 7693,1426 7572,1420 7451,1724 7330,1727 7209,1462 7088,4448 6967,3434 6846,1517 6725,1451 6604,2541 6483,1983 6362,1907 6241,3434 6120,1954 5999,1148 5878,1448 5757,1521 5636,3300 5515,1314 5394,2600 5273,2472 5152,2093 5031,1521 4910,1132 4789,3802 4667,2166 4546,3334 4425,2254 4304,2212 4183,1578 4062,1240 3941,3587 3820,1658 3699,2600 3578,1262 3457,1454 3336,2538 3215,2734 3094,5275 2973,2335 2852,8158 2731,6340 2610,4983 2489,6046 2368,4268 2247,3479 2126,3156 2005,6351 1884,7126 1763,5481 1642,3096 1521,3934 1400,6817 1279,10938 Z"/>
 <path fill="rgb(174,207,0)" stroke="none" d="M 1279,10938 L 1400,933 1521,933 1642,933 1763,933 1884,933 2005,933 2126,933 2247,933 2368,933 2489,933 2610,933 2731,933 2852,933 2973,933 3094,933 3215,933 3336,933 3457,933 3578,933 3699,933 3820,933 3941,933 4062,933 4183,933 4304,933 4425,933 4546,933 4667,933 4789,933 4910,933 5031,933 5152,933 5273,933 5394,933 5515,933 5636,933 5757,933 5878,933 5999,933 6120,933 6241,933 6362,933 6483,933 6604,933 6725,933 6846,933 6967,933 7088,933 7209,933 7330,933 7451,933 7572,933 7693,933 7814,933 7935,933 8056,933 8177,933 8299,933 8420,933 8541,933 8662,933 8783,933 8904,933 9024,933 9145,933 9266,933 9387,933 9508,933 9629,933 9750,933 9871,933 9992,933 10113,933 10234,933 10355,933 10476,933 10597,933 10718,933 10839,933 10960,933 11081,933 11202,933 11323,933 11444,933 11565,933 11686,933 11808,933 11929,933 12050,933 12171,933 12292,933 12413,933 12534,933 12655,933 12776,933 12897,933 13018,933 13139,933 13260,933 13381,933 13502,933 13623,933 13744,933 13865,933 13986,933 14107,933 14228,933 14349,933 14470,933 14591,933 14712,933 14833,933 14954,933 15075,933 15197,933 15197,1827 15075,1963 14954,1679 14833,2613 14712,2133 14591,1803 14470,1035 14349,1855 14228,1894 14107,1594 13986,2616 13865,1761 13744,1751 13623,1849 13502,1838 13381,1520 13260,1601 13139,955 13018,1961 12897,1647 12776,1663 12655,1838 12534,3034 12413,1315 12292,1930 12171,1821 12050,1681 11929,1634 11808,1700 11686,1556 11565,1413 11444,1813 11323,1954 11202,1816 11081,1762 10960,1377 10839,1370 10718,1430 10597,1498 10476,2021 10355,2025 10234,1595 10113,1579 9992,1734 9871,1404 9750,1692 9629,2934 9508,2673 9387,1392 9266,1286 9145,1383 9024,1241 8904,1194 8783,2275 8662,2338 8541,1329 8420,1566 8299,2044 8177,1191 8056,1422 7935,3772 7814,1812 7693,1426 7572,1420 7451,1724 7330,1221 7209,1462 7088,4448 6967,3434 6846,1517 6725,1451 6604,2541 6483,1264 6362,1907 6241,3434 6120,1954 5999,1148 5878,1448 5757,1521 5636,1467 5515,1314 5394,2600 5273,2472 5152,2093 5031,1521 4910,1132 4789,1448 4667,2166 4546,3334 4425,2254 4304,2212 4183,1578 4062,1240 3941,1954 3820,1658 3699,2600 3578,1262 3457,1454 3336,2538 3215,2734 3094,3764 2973,2335 2852,8158 2731,6340 2610,4983 2489,6046 2368,4268 2247,2388 2126,3156 2005,6351 1884,7126 1763,5481 1642,3096 1521,3934 1400,5053 1279,10938 Z"/>
 <path fill="none" stroke="rgb(0,0,0)" stroke-width="50" stroke-linejoin="round" d="M 1279,10938 L 1400,933 1521,933 1642,933 1763,933 1884,933 2005,933 2126,933 2247,933 2368,933 2489,933 2610,933 2731,933 2852,933 2973,933 3094,933 3215,933 3336,933 3457,933 3578,933 3699,933 3820,933 3941,933 4062,933 4183,933 4304,933 4425,933 4546,933 4667,933 4789,933 4910,933 5031,933 5152,933 5273,933 5394,933 5515,933 5636,933 5757,933 5878,933 5999,933 6120,933 6241,933 6362,933 6483,933 6604,933 6725,933 6846,933 6967,933 7088,933 7209,933 7330,933 7451,933 7572,933 7693,933 7814,933 7935,933 8056,933 8177,933 8299,933 8420,933 8541,933 8662,933 8783,933 8904,933 9024,933 9145,933 9266,933 9387,933 9508,933 9629,933 9750,933 9871,933 9992,933 10113,933 10234,933 10355,933 10476,933 10597,933 10718,933 10839,933 10960,933 11081,933 11202,933 11323,933 11444,933 11565,933 11686,933 11808,933 11929,933 12050,933 12171,933 12292,933 12413,933 12534,933 12655,933 12776,933 12897,933 13018,933 13139,933 13260,933 13381,933 13502,933 13623,933 13744,933 13865,933 13986,933 14107,933 14228,933 14349,933 14470,933 14591,933 14712,933 14833,933 14954,933 15075,933 15197,933 15197,1827 15075,1963 14954,1679 14833,2613 14712,2133 14591,1803 14470,1035 14349,1855 14228,1894 14107,1594 13986,2616 13865,1761 13744,1751 13623,1849 13502,1838 13381,1520 13260,1601 13139,955 13018,1961 12897,1647 12776,1663 12655,1838 12534,3034 12413,1315 12292,1930 12171,1821 12050,1681 11929,1634 11808,1700 11686,1556 11565,1413 11444,1813 11323,1954 11202,1816 11081,1762 10960,1377 10839,1370 10718,1430 10597,1498 10476,2021 10355,2025 10234,1595 10113,1579 9992,1734 9871,1404 9750,1692 9629,2934 9508,2673 9387,1392 9266,1286 9145,1383 9024,1241 8904,1194 8783,2275 8662,2338 8541,1329 8420,1566 8299,2044 8177,1191 8056,1422 7935,3772 7814,1812 7693,1426 7572,1420 7451,1724 7330,1221 7209,1462 7088,4448 6967,3434 6846,1517 6725,1451 6604,2541 6483,1264 6362,1907 6241,3434 6120,1954 5999,1148 5878,1448 5757,1521 5636,1467 5515,1314 5394,2600 5273,2472 5152,2093 5031,1521 4910,1132 4789,1448 4667,2166 4546,3334 4425,2254 4304,2212 4183,1578 4062,1240 3941,1954 3820,1658 3699,2600 3578,1262 3457,1454 3336,2538 3215,2734 3094,3764 2973,2335 2852,8158 2731,6340 2610,4983 2489,6046 2368,4268 2247,2388 2126,3156 2005,6351 1884,7126 1763,5481 1642,3096 1521,3934 1400,5053 1279,10938 Z"/>
 <text class="TextShape"><tspan class="TextParagraph" font-family="Liberation Sans, sans-serif" font-size="353px" font-weight="400"><tspan class="TextPosition" x="855" y="11506"><tspan fill="rgb(0,0,0)" stroke="none">27/07</tspan></tspan></tspan></text>
 <text class="TextShape"><tspan class="TextParagraph" font-family="Liberation Sans, sans-serif" font-size="353px" font-weight="400"><tspan class="TextPosition" x="1702" y="11904"><tspan fill="rgb(0,0,0)" stroke="none">03/08</tspan></tspan></tspan></text>
 <text class="TextShape"><tspan class="TextParagraph" font-family="Liberation Sans, sans-serif" font-size="353px" font-weight="400"><tspan class="TextPosition" x="2549" y="11506"><tspan fill="rgb(0,0,0)" stroke="none">10/08</tspan></tspan></tspan></text>
 <text class="TextShape"><tspan class="TextParagraph" font-family="Liberation Sans, sans-serif" font-size="353px" font-weight="400"><tspan class="TextPosition" x="3396" y="11904"><tspan fill="rgb(0,0,0)" stroke="none">17/08</tspan></tspan></tspan></text>
 <text class="TextShape"><tspan class="TextParagraph" font-family="Liberation Sans, sans-serif" font-size="353px" font-weight="400"><tspan class="TextPosition" x="4243" y="11506"><tspan fill="rgb(0,0,0)" stroke="none">24/08</tspan></tspan></tspan></text>
 <text class="TextShape"><tspan class="TextParagraph" font-family="Liberation Sans, sans-serif" font-size="353px" font-weight="400"><tspan class="TextPosition" x="5091" y="11904"><tspan fill="rgb(0,0,0)" stroke="none">31/08</tspan></tspan></tspan></text>
 <text class="TextShape"><tspan class="TextParagraph" font-family="Liberation Sans, sans-serif" font-size="353px" font-weight="400"><tspan class="TextPosition" x="5938" y="11506"><tspan fill="rgb(0,0,0)" stroke="none">07/09</tspan></tspan></tspan></text>
 <text class="TextShape"><tspan class="TextParagraph" font-family="Liberation Sans, sans-serif" font-size="353px" font-weight="400"><tspan class="TextPosition" x="6785" y="11904"><tspan fill="rgb(0,0,0)" stroke="none">14/09</tspan></tspan></tspan></text>
 <text class="TextShape"><tspan class="TextParagraph" font-family="Liberation Sans, sans-serif" font-size="353px" font-weight="400"><tspan class="TextPosition" x="7632" y="11506"><tspan fill="rgb(0,0,0)" stroke="none">21/09</tspan></tspan></tspan></text>
 <text class="TextShape"><tspan class="TextParagraph" font-family="Liberation Sans, sans-serif" font-size="353px" font-weight="400"><tspan class="TextPosition" x="8480" y="11904"><tspan fill="rgb(0,0,0)" stroke="none">28/09</tspan></tspan></tspan></text>
 <text class="TextShape"><tspan class="TextParagraph" font-family="Liberation Sans, sans-serif" font-size="353px" font-weight="400"><tspan class="TextPosition" x="9327" y="11506"><tspan fill="rgb(0,0,0)" stroke="none">05/10</tspan></tspan></tspan></text>
 <text class="TextShape"><tspan class="TextParagraph" font-family="Liberation Sans, sans-serif" font-size="353px" font-weight="400"><tspan class="TextPosition" x="10174" y="11904"><tspan fill="rgb(0,0,0)" stroke="none">12/10</tspan></tspan></tspan></text>
 <text class="TextShape"><tspan class="TextParagraph" font-family="Liberation Sans, sans-serif" font-size="353px" font-weight="400"><tspan class="TextPosition" x="11021" y="11506"><tspan fill="rgb(0,0,0)" stroke="none">19/10</tspan></tspan></tspan></text>
 <text class="TextShape"><tspan class="TextParagraph" font-family="Liberation Sans, sans-serif" font-size="353px" font-weight="400"><tspan class="TextPosition" x="11869" y="11904"><tspan fill="rgb(0,0,0)" stroke="none">26/10</tspan></tspan></tspan></text>
 <text class="TextShape"><tspan class="TextParagraph" font-family="Liberation Sans, sans-serif" font-size="353px" font-weight="400"><tspan class="TextPosition" x="12716" y="11506"><tspan fill="rgb(0,0,0)" stroke="none">02/11</tspan></tspan></tspan></text>
 <text class="TextShape"><tspan class="TextParagraph" font-family="Liberation Sans, sans-serif" font-size="353px" font-weight="400"><tspan class="TextPosition" x="13563" y="11904"><tspan fill="rgb(0,0,0)" stroke="none">09/11</tspan></tspan></tspan></text>
 <text class="TextShape"><tspan class="TextParagraph" font-family="Liberation Sans, sans-serif" font-size="353px" font-weight="400"><tspan class="TextPosition" x="14410" y="11506"><tspan fill="rgb(0,0,0)" stroke="none">16/11</tspan></tspan></tspan></text>
 <text class="TextShape"><tspan class="TextParagraph" font-family="Liberation Sans, sans-serif" font-size="353px" font-weight="400"><tspan class="TextPosition" x="526" y="11059"><tspan fill="rgb(0,0,0)" stroke="none">0%</tspan></tspan></tspan></text>
 <text class="TextShape"><tspan class="TextParagraph" font-family="Liberation Sans, sans-serif" font-size="353px" font-weight="400"><tspan class="TextPosition" x="341" y="10058"><tspan fill="rgb(0,0,0)" stroke="none">10%</tspan></tspan></tspan></text>
 <text class="TextShape"><tspan class="TextParagraph" font-family="Liberation Sans, sans-serif" font-size="353px" font-weight="400"><tspan class="TextPosition" x="341" y="9057"><tspan fill="rgb(0,0,0)" stroke="none">20%</tspan></tspan></tspan></text>
 <text class="TextShape"><tspan class="TextParagraph" font-family="Liberation Sans, sans-serif" font-size="353px" font-weight="400"><tspan class="TextPosition" x="341" y="8057"><tspan fill="rgb(0,0,0)" stroke="none">30%</tspan></tspan></tspan></text>
 <text class="TextShape"><tspan class="TextParagraph" font-family="Liberation Sans, sans-serif" font-size="353px" font-weight="400"><tspan class="TextPosition" x="341" y="7056"><tspan fill="rgb(0,0,0)" stroke="none">40%</tspan></tspan></tspan></text>
 <text class="TextShape"><tspan class="TextParagraph" font-family="Liberation Sans, sans-serif" font-size="353px" font-weight="400"><tspan class="TextPosition" x="341" y="6056"><tspan fill="rgb(0,0,0)" stroke="none">50%</tspan></tspan></tspan></text>
 <text class="TextShape"><tspan class="TextParagraph" font-family="Liberation Sans, sans-serif" font-size="353px" font-weight="400"><tspan class="TextPosition" x="341" y="5055"><tspan fill="rgb(0,0,0)" stroke="none">60%</tspan></tspan></tspan></text>
 <text class="TextShape"><tspan class="TextParagraph" font-family="Liberation Sans, sans-serif" font-size="353px" font-weight="400"><tspan class="TextPosition" x="341" y="4054"><tspan fill="rgb(0,0,0)" stroke="none">70%</tspan></tspan></tspan></text>
 <text class="TextShape"><tspan class="TextParagraph" font-family="Liberation Sans, sans-serif" font-size="353px" font-weight="400"><tspan class="TextPosition" x="341" y="3054"><tspan fill="rgb(0,0,0)" stroke="none">80%</tspan></tspan></tspan></text>
 <text class="TextShape"><tspan class="TextParagraph" font-family="Liberation Sans, sans-serif" font-size="353px" font-weight="400"><tspan class="TextPosition" x="341" y="2053"><tspan fill="rgb(0,0,0)" stroke="none">90%</tspan></tspan></tspan></text>
 <text class="TextShape"><tspan class="TextParagraph" font-family="Liberation Sans, sans-serif" font-size="353px" font-weight="400"><tspan class="TextPosition" x="156" y="1053"><tspan fill="rgb(0,0,0)" stroke="none">100%</tspan></tspan></tspan></text>
 <text class="TextShape"><tspan class="TextParagraph" font-family="Liberation Sans, sans-serif" font-size="459px" font-weight="400"><tspan class="TextPosition" x="4599" y="724"><tspan fill="rgb(0,0,0)" stroke="none">Covid-19 (porcentaje de muertes diarias)</tspan></tspan></tspan></text>
 <text class="TextShape"><tspan class="TextParagraph" font-family="Arial, sans-serif" font-size="423px" font-weight="400"><tspan class="TextPosition" x="15374" y="6833"><tspan fill="rgb(0,0,0)" stroke="none">Italia</tspan></tspan></tspan></text>
 <text class="TextShape"><tspan class="TextParagraph" font-family="Arial, sans-serif" font-size="423px" font-weight="400"><tspan class="TextPosition" x="15398" y="10119"><tspan fill="rgb(0,0,0)" stroke="none">Francia</tspan></tspan></tspan></text>
 <text class="TextShape"><tspan class="TextParagraph" font-family="Arial, sans-serif" font-size="423px" font-weight="400"><tspan class="TextPosition" x="15407" y="3308"><tspan fill="rgb(0,0,0)" stroke="none">Blgica</tspan></tspan></tspan></text>
 <text class="TextShape"><tspan class="TextParagraph" font-family="Arial, sans-serif" font-size="423px" font-weight="400"><tspan class="TextPosition" x="15420" y="8819"><tspan fill="rgb(0,0,0)" stroke="none">Espaa</tspan></tspan></tspan></text>
 <text class="TextShape"><tspan class="TextParagraph" font-family="Arial, sans-serif" font-size="423px" font-weight="400"><tspan class="TextPosition" x="15423" y="2648"><tspan fill="rgb(0,0,0)" stroke="none">Alemania</tspan></tspan></tspan></text>
 <text class="TextShape"><tspan class="TextParagraph" font-family="Arial, sans-serif" font-size="423px" font-weight="400"><tspan class="TextPosition" x="15369" y="1503"><tspan fill="rgb(0,0,0)" stroke="none">Resto</tspan></tspan></tspan></text>
 <text class="TextShape"><tspan class="TextParagraph" font-family="Arial, sans-serif" font-size="423px" font-weight="400"><tspan class="TextPosition" x="15379" y="4629"><tspan fill="rgb(0,0,0)" stroke="none">Reino Unido</tspan></tspan></tspan></text>
 <text class="TextShape"><tspan class="TextParagraph" font-family="Arial, sans-serif" font-size="423px" font-weight="400"><tspan class="TextPosition" x="15402" y="2132"><tspan fill="rgb(0,0,0)" stroke="none">Holanda</tspan></tspan></tspan></text>
</svg>