<?xml version="1.0" encoding="UTF-8"?>
<!DOCTYPE svg PUBLIC "-//W3C//DTD SVG 1.1//EN" "http://www.w3.org/Graphics/SVG/1.1/DTD/svg11.dtd">
<svg width="150mm" height="120mm" viewBox="0 0 15000 12000" version="1.1" xmlns="http://www.w3.org/2000/svg" xmlns:xlink="http://www.w3.org/1999/xlink" stroke-width="28.222" stroke-linejoin="round" xml:space="preserve">
 <path fill="rgb(255,255,255)" stroke="none" d="M 7500,12000 L 0,12000 0,0 15000,0 15000,12000 7500,12000 Z"/>
 <path fill="none" stroke="rgb(0,0,0)" stroke-linejoin="round" d="M 8048,11278 L 1393,11278 1393,779 14704,779 14704,11278 8048,11278 Z"/>
 <path fill="none" stroke="rgb(0,0,0)" stroke-linejoin="round" d="M 14704,11277 L 1393,11277"/>
 <path fill="none" stroke="rgb(0,0,0)" stroke-linejoin="round" d="M 14704,9877 L 1393,9877"/>
 <path fill="none" stroke="rgb(0,0,0)" stroke-linejoin="round" d="M 14704,8477 L 1393,8477"/>
 <path fill="none" stroke="rgb(0,0,0)" stroke-linejoin="round" d="M 14704,7077 L 1393,7077"/>
 <path fill="none" stroke="rgb(0,0,0)" stroke-linejoin="round" d="M 14704,5677 L 1393,5677"/>
 <path fill="none" stroke="rgb(0,0,0)" stroke-linejoin="round" d="M 14704,4277 L 1393,4277"/>
 <path fill="none" stroke="rgb(0,0,0)" stroke-linejoin="round" d="M 14704,2878 L 1393,2878"/>
 <path fill="none" stroke="rgb(0,0,0)" stroke-linejoin="round" d="M 14704,1477 L 1393,1477"/>
 <path fill="none" stroke="rgb(0,0,0)" stroke-linejoin="round" d="M 1393,11427 L 1393,11277"/>
 <path fill="none" stroke="rgb(0,0,0)" stroke-linejoin="round" d="M 1393,11427 L 1393,11277"/>
 <path fill="none" stroke="rgb(0,0,0)" stroke-linejoin="round" d="M 3487,11427 L 3487,11277"/>
 <path fill="none" stroke="rgb(0,0,0)" stroke-linejoin="round" d="M 3487,11427 L 3487,11277"/>
 <path fill="none" stroke="rgb(0,0,0)" stroke-linejoin="round" d="M 5582,11427 L 5582,11277"/>
 <path fill="none" stroke="rgb(0,0,0)" stroke-linejoin="round" d="M 5582,11427 L 5582,11277"/>
 <path fill="none" stroke="rgb(0,0,0)" stroke-linejoin="round" d="M 7608,11427 L 7608,11277"/>
 <path fill="none" stroke="rgb(0,0,0)" stroke-linejoin="round" d="M 7608,11427 L 7608,11277"/>
 <path fill="none" stroke="rgb(0,0,0)" stroke-linejoin="round" d="M 9703,11427 L 9703,11277"/>
 <path fill="none" stroke="rgb(0,0,0)" stroke-linejoin="round" d="M 9703,11427 L 9703,11277"/>
 <path fill="none" stroke="rgb(0,0,0)" stroke-linejoin="round" d="M 11730,11427 L 11730,11277"/>
 <path fill="none" stroke="rgb(0,0,0)" stroke-linejoin="round" d="M 11730,11427 L 11730,11277"/>
 <path fill="none" stroke="rgb(0,0,0)" stroke-linejoin="round" d="M 13825,11427 L 13825,11277"/>
 <path fill="none" stroke="rgb(0,0,0)" stroke-linejoin="round" d="M 13825,11427 L 13825,11277"/>
 <path fill="none" stroke="rgb(0,0,0)" stroke-linejoin="round" d="M 1393,11277 L 14704,11277"/>
 <path fill="none" stroke="rgb(0,0,0)" stroke-linejoin="round" d="M 1243,11277 L 1393,11277"/>
 <path fill="none" stroke="rgb(0,0,0)" stroke-linejoin="round" d="M 1243,11277 L 1393,11277"/>
 <path fill="none" stroke="rgb(0,0,0)" stroke-linejoin="round" d="M 1243,9877 L 1393,9877"/>
 <path fill="none" stroke="rgb(0,0,0)" stroke-linejoin="round" d="M 1243,9877 L 1393,9877"/>
 <path fill="none" stroke="rgb(0,0,0)" stroke-linejoin="round" d="M 1243,8477 L 1393,8477"/>
 <path fill="none" stroke="rgb(0,0,0)" stroke-linejoin="round" d="M 1243,8477 L 1393,8477"/>
 <path fill="none" stroke="rgb(0,0,0)" stroke-linejoin="round" d="M 1243,7076 L 1393,7076"/>
 <path fill="none" stroke="rgb(0,0,0)" stroke-linejoin="round" d="M 1243,7076 L 1393,7076"/>
 <path fill="none" stroke="rgb(0,0,0)" stroke-linejoin="round" d="M 1243,5677 L 1393,5677"/>
 <path fill="none" stroke="rgb(0,0,0)" stroke-linejoin="round" d="M 1243,5677 L 1393,5677"/>
 <path fill="none" stroke="rgb(0,0,0)" stroke-linejoin="round" d="M 1243,4277 L 1393,4277"/>
 <path fill="none" stroke="rgb(0,0,0)" stroke-linejoin="round" d="M 1243,4277 L 1393,4277"/>
 <path fill="none" stroke="rgb(0,0,0)" stroke-linejoin="round" d="M 1243,2877 L 1393,2877"/>
 <path fill="none" stroke="rgb(0,0,0)" stroke-linejoin="round" d="M 1243,2877 L 1393,2877"/>
 <path fill="none" stroke="rgb(0,0,0)" stroke-linejoin="round" d="M 1243,1477 L 1393,1477"/>
 <path fill="none" stroke="rgb(0,0,0)" stroke-linejoin="round" d="M 1243,1477 L 1393,1477"/>
 <path fill="none" stroke="rgb(0,0,0)" stroke-linejoin="round" d="M 1393,11277 L 1393,777"/>
 <path fill="none" stroke="rgb(0,69,134)" stroke-width="100" stroke-linejoin="round" d="M 2474,11277 L 2541,11277 2609,11273 2676,11272 2744,11271 2812,11271 2879,11269 2947,11267 3014,11266 3082,11266 3149,11263 3217,11263 3285,11262 3352,11260 3420,11257 3487,11256 3555,11255 3622,11253 3690,11253 3758,11252 3825,11252 3893,11251 3960,11249 4028,11247 4095,11246 4163,11245 4231,11245 4298,11241 4366,11239 4433,11237 4501,11237 4568,11235 4636,11235 4704,11233 4771,11230 4839,11227 4906,11224 4974,11220 5041,11216 5109,11214 5177,11212 5244,11207 5312,11202 5379,11196 5447,11192 5514,11187 5582,11184 5650,11182 5717,11172 5785,11163 5852,11154 5920,11145 5988,11138 6055,11134 6123,11131 6190,11120 6258,11110 6325,11100 6393,11088 6461,11076 6528,11067 6596,11060 6663,11040 6731,11021 6798,11002 6866,10983 6934,10962 7001,10952 7069,10941 7136,10907 7204,10880 7271,10854 7339,10823 7407,10798 7474,10777 7541,10763 7608,10711 7676,10668 7743,10629 7811,10591 7879,10545 7946,10522 8014,10503 8081,10448 8149,10379 8216,10326 8284,10276 8352,10218 8419,10196 8487,10194 8554,10095 8622,10011 8689,9933 8757,9880 8825,9815 8892,9792 8960,9762 9027,9678 9095,9604 9162,9534 9230,9463 9298,9415 9365,9359 9433,9330 9500,9245 9568,9148 9635,9078 9703,9005 9771,8938 9838,8908 9906,8880 9973,8795 10041,8705 10108,8647 10176,8576 10244,8521 10311,8488 10379,8462 10446,8378 10514,8303 10582,8231 10649,8172 10717,8099 10784,8079 10852,8046 10919,7975 10987,7890 11055,7815 11122,7747 11190,7672 11257,7626 11325,7596 11392,7500 11460,7395 11528,7315 11595,7235 11663,7206 11730,7157 11798,7107 11865,7043 11933,6906 12001,6771 12068,6685 12136,6623 12203,6559 12271,6502 12338,6380 12406,6234 12474,6071 12541,5887 12609,5742 12676,5663 12744,5589 12811,5415 12879,5196 12947,5021 13014,4842 13082,4661 13149,4567 13217,4483 13284,4258 13352,4003 13420,3822 13487,3626 13555,3437 13622,3352 13690,3269 13757,3041 13825,2799 13893,2626 13960,2452 14028,2284 14095,2201 14163,2145 14230,1942 14298,1757 14366,1629 14433,1487 14501,1371 14568,1318 14636,1272 14704,1125"/>
 <path fill="none" stroke="rgb(255,66,14)" stroke-width="100" stroke-linejoin="round" d="M 1393,11276 L 1460,11274 1528,11273 1595,11273 1663,11272 1730,11271 1798,11270 1866,11268 1933,11268 2001,11266 2068,11265 2136,11265 2203,11263 2271,11263 2339,11262 2406,11261 2474,11260 2541,11259 2609,11259 2676,11237 2744,11236 2812,11235 2879,11235 2947,11234 3014,11233 3082,11232 3149,11231 3217,11230 3285,11230 3352,11229 3420,11227 3487,11227 3555,11225 3622,11225 3690,11225 3758,11224 3825,11223 3893,11222 3960,11221 4028,11219 4095,11217 4163,11216 4231,11214 4298,11213 4366,11211 4433,11209 4501,11208 4568,11207 4636,11206 4704,11204 4771,11203 4839,11201 4906,11199 4974,11198 5041,11195 5109,11193 5177,11190 5244,11188 5312,11185 5379,11182 5447,11179 5514,11177 5582,11175 5650,11172 5717,11169 5785,11166 5852,11163 5920,11160 5988,11156 6055,11153 6123,11151 6190,11147 6258,11143 6325,11140 6393,11136 6461,11132 6528,11128 6596,11123 6663,11117 6731,11111 6798,11099 6866,11092 6934,11085 7001,11075 7069,11065 7136,11053 7204,11035 7271,11016 7339,11003 7407,10982 7474,10964 7541,10944 7608,10913 7676,10885 7743,10854 7811,10827 7879,10785 7946,10756 8014,10723 8081,10674 8149,10625 8216,10565 8284,10502 8352,10443 8419,10396 8487,10346 8554,10265 8622,10178 8689,10089 8757,10012 8825,9936 8892,9859 8960,9789 9027,9687 9095,9581 9162,9490 9230,9392 9298,9295 9365,9216 9433,9128 9500,9009 9568,8908 9635,8792 9703,8677 9771,8581 9838,8505 9906,8411 9973,8301 10041,8205 10108,8066 10176,7952 10244,7860 10311,7781 10379,7707 10446,7618 10514,7548 10582,7424 10649,7317 10717,7226 10784,7159 10852,7090 10919,6972 10987,6876 11055,6781 11122,6686 11190,6609 11257,6560 11325,6502 11392,6414 11460,6336 11528,6265 11595,6201 11663,6165 11730,6122 11798,6060 11865,5968 11933,5888 12001,5810 12068,5746 12136,5695 12203,5646 12271,5597 12338,5506 12406,5430 12474,5372 12541,5285 12609,5217 12676,5167 12744,5104 12811,5018 12879,4947 12947,4874 13014,4807 13082,4740 13149,4688 13217,4636 13284,4550 13352,4481 13420,4404 13487,4338 13555,4270 13622,4228 13690,4169 13757,4093 13825,4031 13893,3959 13960,3892 14028,3833 14095,3800 14163,3754 14230,3684 14298,3618 14366,3559 14433,3506 14501,3452 14568,3414 14636,3371 14704,3312"/>
 <path fill="none" stroke="rgb(255,211,32)" stroke-width="100" stroke-linejoin="round" d="M 1393,11277 L 1460,11276 1528,11275 1595,11274 1663,11273 1730,11272 1798,11273 1866,11272 1933,11271 2001,11270 2068,11269 2136,11267 2203,11266 2271,11266 2339,11265 2406,11265 2474,11264 2541,11263 2609,11262 2676,11261 2744,11261 2812,11261 2879,11260 2947,11259 3014,11258 3082,11257 3149,11256 3217,11255 3285,11255 3352,11254 3420,11254 3487,11253 3555,11253 3622,11253 3690,11252 3758,11251 3825,11251 3893,11249 3960,11248 4028,11248 4095,11248 4163,11248 4231,11248 4298,11247 4366,11246 4433,11245 4501,11245 4568,11244 4636,11244 4704,11244 4771,11242 4839,11242 4906,11241 4974,11240 5041,11239 5109,11239 5177,11239 5244,11238 5312,11236 5379,11233 5447,11231 5514,11230 5582,11229 5650,11229 5717,11227 5785,11225 5852,11223 5920,11222 5988,11219 6055,11219 6123,11218 6190,11217 6258,11214 6325,11212 6393,11211 6461,11208 6528,11207 6596,11206 6663,11204 6731,11198 6798,11194 6866,11190 6934,11186 7001,11184 7069,11183 7136,11176 7204,11171 7271,11166 7339,11159 7407,11153 7474,11149 7541,11145 7608,11139 7676,11127 7743,11115 7811,11104 7879,11090 7946,11086 8014,11079 8081,11060 8149,11039 8216,11023 8284,11000 8352,10981 8419,10973 8487,10964 8554,10942 8622,10906 8689,10876 8757,10845 8825,10820 8892,10805 8960,10796 9027,10759 9095,10716 9162,10681 9230,10645 9298,10609 9365,10590 9433,10577 9500,10542 9568,10485 9635,10431 9703,10371 9771,10318 9838,10296 9906,10278 9973,10224 10041,10156 10108,10089 10176,10028 10244,9961 10311,9925 10379,9904 10446,9845 10514,9763 10582,9701 10649,9617 10717,9548 10784,9503 10852,9477 10919,9407 10987,9276 11055,9176 11122,9062 11190,8963 11257,8906 11325,8875 11392,8772 11460,8638 11528,8525 11595,8468 11663,8434 11730,8384 11798,8335 11865,8216 11933,8058 12001,7923 12068,7846 12136,7799 12203,7755 12271,7713 12338,7581 12406,7438 12474,7288 12541,7122 12609,6970 12676,6905 12744,6857 12811,6732 12879,6584 12947,6410 13014,6254 13082,6117 13149,6054 13217,6024 13284,5887 13352,5726 13420,5584 13487,5464 13555,5341 13622,5292 13690,5262 13757,5135 13825,4998 13893,4866 13960,4749 14028,4638 14095,4582 14163,4557 14230,4437 14298,4300 14366,4190 14433,4070 14501,3974 14568,3942 14636,3920 14704,3852"/>
 <path fill="none" stroke="rgb(87,157,28)" stroke-width="100" stroke-linejoin="round" d="M 1393,11274 L 1460,11272 1528,11270 1595,11268 1663,11266 1730,11266 1798,11266 1866,11262 1933,11262 2001,11261 2068,11260 2136,11258 2203,11258 2271,11258 2339,11256 2406,11254 2474,11251 2541,11249 2609,11247 2676,11247 2744,11247 2812,11243 2879,11240 2947,11238 3014,11236 3082,11233 3149,11232 3217,11232 3285,11229 3352,11227 3420,11227 3487,11223 3555,11220 3622,11219 3690,11219 3758,11214 3825,11211 3893,11207 3960,11205 4028,11207 4095,11206 4163,11205 4231,11202 4298,11196 4366,11193 4433,11190 4501,11178 4568,11176 4636,11175 4704,11170 4771,11164 4839,11157 4906,11150 4974,11129 5041,11125 5109,11123 5177,11116 5244,11105 5312,11099 5379,11092 5447,11071 5514,11065 5582,11062 5650,11050 5717,11038 5785,11030 5852,11021 5920,11002 5988,10996 6055,10991 6123,10982 6190,10972 6258,10961 6325,10950 6393,10935 6461,10928 6528,10921 6596,10908 6663,10893 6731,10878 6798,10866 6866,10841 6934,10829 7001,10817 7069,10796 7136,10759 7204,10737 7271,10714 7339,10672 7407,10653 7474,10637 7541,10601 7608,10528 7676,10493 7743,10461 7811,10384 7879,10353 7946,10321 8014,10262 8081,10143 8149,10089 8216,10038 8284,9922 8352,9880 8419,9842 8487,9765 8554,9594 8622,9548 8689,9489 8757,9359 8825,9309 8892,9267 8960,9196 9027,9025 9095,8966 9162,8906 9230,8746 9298,8711 9365,8681 9433,8611 9500,8470 9568,8417 9635,8369 9703,8235 9771,8206 9838,8178 9906,8121 9973,8013 10041,7969 10108,7924 10176,7836 10244,7815 10311,7782 10379,7730 10446,7614 10514,7573 10582,7532 10649,7444 10717,7417 10784,7396 10852,7344 10919,7233 10987,7193 11055,7157 11122,7071 11190,7045 11257,7027 11325,6977 11392,6865 11460,6826 11528,6786 11595,6764 11663,6743 11730,6719 11798,6668 11865,6532 11933,6490 12001,6455 12068,6436 12136,6414 12203,6398 12271,6345 12338,6224 12406,6184 12474,6146 12541,6063 12609,6040 12676,6018 12744,5976 12811,5872 12879,5840 12947,5801 13014,5712 13082,5684 13149,5665 13217,5608 13284,5516 13352,5473 13420,5425 13487,5334 13555,5302 13622,5278 13690,5215 13757,5130 13825,5081 13893,5032 13960,4918 14028,4884 14095,4856 14163,4793 14230,4691 14298,4641 14366,4591 14433,4500 14501,4473 14568,4449 14636,4385 14704,4284"/>
 <path fill="none" stroke="rgb(126,0,33)" stroke-width="100" stroke-linejoin="round" d="M 1393,11276 L 1460,11276 1528,11275 1595,11275 1663,11275 1730,11275 1798,11275 1866,11271 1933,11267 2001,11267 2068,11267 2136,11267 2203,11267 2271,11267 2339,11256 2406,11256 2474,11256 2541,11252 2609,11251 2676,11251 2744,11251 2812,11247 2879,11243 2947,11225 3014,11223 3082,11220 3149,11220 3217,11220 3285,11215 3352,11208 3420,11201 3487,11198 3555,11195 3622,11195 3690,11195 3758,11184 3825,11176 3893,11170 3960,11164 4028,11138 4095,11138 4163,11138 4231,11125 4298,11114 4366,11109 4433,11099 4501,11092 4568,11092 4636,11092 4704,11078 4771,11056 4839,11023 4906,11000 4974,10988 5041,10988 5109,10988 5177,10964 5244,10930 5312,10912 5379,10900 5447,10885 5514,10885 5582,10885 5650,10859 5717,10831 5785,10806 5852,10781 5920,10765 5988,10765 6055,10765 6123,10745 6190,10709 6258,10698 6325,10681 6393,10647 6461,10647 6528,10647 6596,10620 6663,10608 6731,10579 6798,10560 6866,10528 6934,10528 7001,10528 7069,10498 7136,10468 7204,10446 7271,10424 7339,10392 7407,10392 7474,10392 7541,10353 7608,10315 7676,10292 7743,10268 7811,10234 7879,10234 7946,10234 8014,10181 8081,10148 8149,9920 8216,9869 8284,9820 8352,9820 8419,9820 8487,9749 8554,9691 8622,9642 8689,9592 8757,9549 8825,9549 8892,9549 8960,9482 9027,9421 9095,9372 9162,9336 9230,9290 9298,9290 9365,9290 9433,9219 9500,9143 9568,9092 9635,9045 9703,9003 9771,9003 9838,9003 9906,8947 9973,8885 10041,8847 10108,8812 10176,8782 10244,8782 10311,8782 10379,8727 10446,8727 10514,8674 10582,8629 10649,8590 10717,8590 10784,8590 10852,8535 10919,8481 10987,8454 11055,8428 11122,8407 11190,8407 11257,8407 11325,8361 11392,8324 11460,8299 11528,8282 11595,8282 11663,8282 11730,8282 11798,8240 11865,8195 11933,8161 12001,8140 12068,8140 12136,8140 12203,8140 12271,8106 12338,8057 12406,8057 12474,8022 12541,7995 12609,7995 12676,7995 12744,7938 12811,7881 12879,7854 12947,7826 13014,7793 13082,7793 13149,7793 13217,7729 13284,7673 13352,7608 13420,7551 13487,7495 13555,7495 13622,7495 13690,7388 13757,7305 13825,7236 13893,7164 13960,7092 14028,7092 14095,7092 14163,6986 14230,6884 14298,6805 14366,6745 14433,6663 14501,6663 14568,6663 14636,6536 14704,6428"/>
 <text class="TextShape"><tspan class="TextParagraph" font-family="Liberation Sans, sans-serif" font-size="353px" font-weight="400"><tspan class="TextPosition" x="969" y="11845"><tspan fill="rgb(0,0,0)" stroke="none">27/07</tspan></tspan></tspan></text>
 <text class="TextShape"><tspan class="TextParagraph" font-family="Liberation Sans, sans-serif" font-size="353px" font-weight="400"><tspan class="TextPosition" x="3063" y="11845"><tspan fill="rgb(0,0,0)" stroke="none">27/08</tspan></tspan></tspan></text>
 <text class="TextShape"><tspan class="TextParagraph" font-family="Liberation Sans, sans-serif" font-size="353px" font-weight="400"><tspan class="TextPosition" x="5158" y="11845"><tspan fill="rgb(0,0,0)" stroke="none">27/09</tspan></tspan></tspan></text>
 <text class="TextShape"><tspan class="TextParagraph" font-family="Liberation Sans, sans-serif" font-size="353px" font-weight="400"><tspan class="TextPosition" x="7185" y="11845"><tspan fill="rgb(0,0,0)" stroke="none">27/10</tspan></tspan></tspan></text>
 <text class="TextShape"><tspan class="TextParagraph" font-family="Liberation Sans, sans-serif" font-size="353px" font-weight="400"><tspan class="TextPosition" x="9280" y="11845"><tspan fill="rgb(0,0,0)" stroke="none">27/11</tspan></tspan></tspan></text>
 <text class="TextShape"><tspan class="TextParagraph" font-family="Liberation Sans, sans-serif" font-size="353px" font-weight="400"><tspan class="TextPosition" x="11307" y="11845"><tspan fill="rgb(0,0,0)" stroke="none">27/12</tspan></tspan></tspan></text>
 <text class="TextShape"><tspan class="TextParagraph" font-family="Liberation Sans, sans-serif" font-size="353px" font-weight="400"><tspan class="TextPosition" x="13402" y="11845"><tspan fill="rgb(0,0,0)" stroke="none">27/01</tspan></tspan></tspan></text>
 <text class="TextShape"><tspan class="TextParagraph" font-family="Liberation Sans, sans-serif" font-size="353px" font-weight="400"><tspan class="TextPosition" x="111" y="9998"><tspan fill="rgb(0,0,0)" stroke="none">10.000</tspan></tspan></tspan></text>
 <text class="TextShape"><tspan class="TextParagraph" font-family="Liberation Sans, sans-serif" font-size="353px" font-weight="400"><tspan class="TextPosition" x="111" y="8598"><tspan fill="rgb(0,0,0)" stroke="none">20.000</tspan></tspan></tspan></text>
 <text class="TextShape"><tspan class="TextParagraph" font-family="Liberation Sans, sans-serif" font-size="353px" font-weight="400"><tspan class="TextPosition" x="111" y="7197"><tspan fill="rgb(0,0,0)" stroke="none">30.000</tspan></tspan></tspan></text>
 <text class="TextShape"><tspan class="TextParagraph" font-family="Liberation Sans, sans-serif" font-size="353px" font-weight="400"><tspan class="TextPosition" x="111" y="5797"><tspan fill="rgb(0,0,0)" stroke="none">40.000</tspan></tspan></tspan></text>
 <text class="TextShape"><tspan class="TextParagraph" font-family="Liberation Sans, sans-serif" font-size="353px" font-weight="400"><tspan class="TextPosition" x="111" y="4397"><tspan fill="rgb(0,0,0)" stroke="none">50.000</tspan></tspan></tspan></text>
 <text class="TextShape"><tspan class="TextParagraph" font-family="Liberation Sans, sans-serif" font-size="353px" font-weight="400"><tspan class="TextPosition" x="111" y="2997"><tspan fill="rgb(0,0,0)" stroke="none">60.000</tspan></tspan></tspan></text>
 <text class="TextShape"><tspan class="TextParagraph" font-family="Liberation Sans, sans-serif" font-size="353px" font-weight="400"><tspan class="TextPosition" x="111" y="1597"><tspan fill="rgb(0,0,0)" stroke="none">70.000</tspan></tspan></tspan></text>
 <text class="TextShape"><tspan class="TextParagraph" font-family="Liberation Sans, sans-serif" font-size="459px" font-weight="400"><tspan class="TextPosition" x="1968" y="538"><tspan fill="rgb(0,0,0)" stroke="none">Covid-19. Muertes acumuladas en Europa Occidental (1)</tspan></tspan></tspan></text>
 <path fill="none" stroke="rgb(0,69,134)" stroke-width="100" stroke-linejoin="round" d="M 2336,2262 L 3136,2262"/>
 <path fill="none" stroke="rgb(255,66,14)" stroke-width="100" stroke-linejoin="round" d="M 2336,3647 L 3136,3647"/>
 <path fill="none" stroke="rgb(255,211,32)" stroke-width="100" stroke-linejoin="round" d="M 2336,5032 L 3136,5032"/>
 <path fill="none" stroke="rgb(87,157,28)" stroke-width="100" stroke-linejoin="round" d="M 2336,6416 L 3136,6416"/>
 <path fill="none" stroke="rgb(126,0,33)" stroke-width="100" stroke-linejoin="round" d="M 2336,7801 L 3136,7801"/>
 <text class="TextShape"><tspan class="TextParagraph" font-family="Liberation Sans, sans-serif" font-size="353px" font-weight="400"><tspan class="TextPosition" x="3236" y="2382"><tspan fill="rgb(0,0,0)" stroke="none">Reino Unido</tspan></tspan></tspan></text>
 <text class="TextShape"><tspan class="TextParagraph" font-family="Liberation Sans, sans-serif" font-size="353px" font-weight="400"><tspan class="TextPosition" x="3236" y="3767"><tspan fill="rgb(0,0,0)" stroke="none">Italia</tspan></tspan></tspan></text>
 <text class="TextShape"><tspan class="TextParagraph" font-family="Liberation Sans, sans-serif" font-size="353px" font-weight="400"><tspan class="TextPosition" x="3236" y="5152"><tspan fill="rgb(0,0,0)" stroke="none">Alemania</tspan></tspan></tspan></text>
 <text class="TextShape"><tspan class="TextParagraph" font-family="Liberation Sans, sans-serif" font-size="353px" font-weight="400"><tspan class="TextPosition" x="3236" y="6536"><tspan fill="rgb(0,0,0)" stroke="none">Francia</tspan></tspan></tspan></text>
 <text class="TextShape"><tspan class="TextParagraph" font-family="Liberation Sans, sans-serif" font-size="353px" font-weight="400"><tspan class="TextPosition" x="3236" y="7921"><tspan fill="rgb(0,0,0)" stroke="none">España</tspan></tspan></tspan></text>
</svg>