<?xml version="1.0" encoding="UTF-8"?>
<!DOCTYPE svg PUBLIC "-//W3C//DTD SVG 1.1//EN" "http://www.w3.org/Graphics/SVG/1.1/DTD/svg11.dtd">
<svg width="150mm" height="120mm" viewBox="0 0 15000 12000" version="1.1" xmlns="http://www.w3.org/2000/svg" xmlns:xlink="http://www.w3.org/1999/xlink" stroke-width="28.222" stroke-linejoin="round" xml:space="preserve">
 <path fill="rgb(255,255,255)" stroke="none" d="M 7500,12000 L 0,12000 0,0 15000,0 15000,12000 7500,12000 Z"/>
 <path fill="none" stroke="rgb(0,0,0)" stroke-linejoin="round" d="M 8027,11008 L 1371,11008 1371,1027 14683,1027 14683,11008 8027,11008 Z"/>
 <path fill="none" stroke="rgb(0,0,0)" stroke-linejoin="round" d="M 14683,11007 L 1371,11007"/>
 <path fill="none" stroke="rgb(0,0,0)" stroke-linejoin="round" d="M 14683,9581 L 1371,9581"/>
 <path fill="none" stroke="rgb(0,0,0)" stroke-linejoin="round" d="M 14683,8155 L 1371,8155"/>
 <path fill="none" stroke="rgb(0,0,0)" stroke-linejoin="round" d="M 14683,6729 L 1371,6729"/>
 <path fill="none" stroke="rgb(0,0,0)" stroke-linejoin="round" d="M 14683,5304 L 1371,5304"/>
 <path fill="none" stroke="rgb(0,0,0)" stroke-linejoin="round" d="M 14683,3878 L 1371,3878"/>
 <path fill="none" stroke="rgb(0,0,0)" stroke-linejoin="round" d="M 14683,2452 L 1371,2452"/>
 <path fill="none" stroke="rgb(0,0,0)" stroke-linejoin="round" d="M 14683,1026 L 1371,1026"/>
 <path fill="none" stroke="rgb(0,0,0)" stroke-linejoin="round" d="M 1371,11157 L 1371,11007"/>
 <path fill="none" stroke="rgb(0,0,0)" stroke-linejoin="round" d="M 1371,11157 L 1371,11007"/>
 <path fill="none" stroke="rgb(0,0,0)" stroke-linejoin="round" d="M 2499,11157 L 2499,11007"/>
 <path fill="none" stroke="rgb(0,0,0)" stroke-linejoin="round" d="M 2499,11157 L 2499,11007"/>
 <path fill="none" stroke="rgb(0,0,0)" stroke-linejoin="round" d="M 3706,11157 L 3706,11007"/>
 <path fill="none" stroke="rgb(0,0,0)" stroke-linejoin="round" d="M 3706,11157 L 3706,11007"/>
 <path fill="none" stroke="rgb(0,0,0)" stroke-linejoin="round" d="M 4874,11157 L 4874,11007"/>
 <path fill="none" stroke="rgb(0,0,0)" stroke-linejoin="round" d="M 4874,11157 L 4874,11007"/>
 <path fill="none" stroke="rgb(0,0,0)" stroke-linejoin="round" d="M 6081,11157 L 6081,11007"/>
 <path fill="none" stroke="rgb(0,0,0)" stroke-linejoin="round" d="M 6081,11157 L 6081,11007"/>
 <path fill="none" stroke="rgb(0,0,0)" stroke-linejoin="round" d="M 7248,11157 L 7248,11007"/>
 <path fill="none" stroke="rgb(0,0,0)" stroke-linejoin="round" d="M 7248,11157 L 7248,11007"/>
 <path fill="none" stroke="rgb(0,0,0)" stroke-linejoin="round" d="M 8454,11157 L 8454,11007"/>
 <path fill="none" stroke="rgb(0,0,0)" stroke-linejoin="round" d="M 8454,11157 L 8454,11007"/>
 <path fill="none" stroke="rgb(0,0,0)" stroke-linejoin="round" d="M 9661,11157 L 9661,11007"/>
 <path fill="none" stroke="rgb(0,0,0)" stroke-linejoin="round" d="M 9661,11157 L 9661,11007"/>
 <path fill="none" stroke="rgb(0,0,0)" stroke-linejoin="round" d="M 10829,11157 L 10829,11007"/>
 <path fill="none" stroke="rgb(0,0,0)" stroke-linejoin="round" d="M 10829,11157 L 10829,11007"/>
 <path fill="none" stroke="rgb(0,0,0)" stroke-linejoin="round" d="M 12035,11157 L 12035,11007"/>
 <path fill="none" stroke="rgb(0,0,0)" stroke-linejoin="round" d="M 12035,11157 L 12035,11007"/>
 <path fill="none" stroke="rgb(0,0,0)" stroke-linejoin="round" d="M 13203,11157 L 13203,11007"/>
 <path fill="none" stroke="rgb(0,0,0)" stroke-linejoin="round" d="M 13203,11157 L 13203,11007"/>
 <path fill="none" stroke="rgb(0,0,0)" stroke-linejoin="round" d="M 14410,11157 L 14410,11007"/>
 <path fill="none" stroke="rgb(0,0,0)" stroke-linejoin="round" d="M 14410,11157 L 14410,11007"/>
 <path fill="none" stroke="rgb(0,0,0)" stroke-linejoin="round" d="M 1371,11007 L 14683,11007"/>
 <path fill="none" stroke="rgb(0,0,0)" stroke-linejoin="round" d="M 1221,11007 L 1371,11007"/>
 <path fill="none" stroke="rgb(0,0,0)" stroke-linejoin="round" d="M 1221,11007 L 1371,11007"/>
 <path fill="none" stroke="rgb(0,0,0)" stroke-linejoin="round" d="M 1221,9581 L 1371,9581"/>
 <path fill="none" stroke="rgb(0,0,0)" stroke-linejoin="round" d="M 1221,9581 L 1371,9581"/>
 <path fill="none" stroke="rgb(0,0,0)" stroke-linejoin="round" d="M 1221,8155 L 1371,8155"/>
 <path fill="none" stroke="rgb(0,0,0)" stroke-linejoin="round" d="M 1221,8155 L 1371,8155"/>
 <path fill="none" stroke="rgb(0,0,0)" stroke-linejoin="round" d="M 1221,6729 L 1371,6729"/>
 <path fill="none" stroke="rgb(0,0,0)" stroke-linejoin="round" d="M 1221,6729 L 1371,6729"/>
 <path fill="none" stroke="rgb(0,0,0)" stroke-linejoin="round" d="M 1221,5304 L 1371,5304"/>
 <path fill="none" stroke="rgb(0,0,0)" stroke-linejoin="round" d="M 1221,5304 L 1371,5304"/>
 <path fill="none" stroke="rgb(0,0,0)" stroke-linejoin="round" d="M 1221,3878 L 1371,3878"/>
 <path fill="none" stroke="rgb(0,0,0)" stroke-linejoin="round" d="M 1221,3878 L 1371,3878"/>
 <path fill="none" stroke="rgb(0,0,0)" stroke-linejoin="round" d="M 1221,2452 L 1371,2452"/>
 <path fill="none" stroke="rgb(0,0,0)" stroke-linejoin="round" d="M 1221,2452 L 1371,2452"/>
 <path fill="none" stroke="rgb(0,0,0)" stroke-linejoin="round" d="M 1221,1026 L 1371,1026"/>
 <path fill="none" stroke="rgb(0,0,0)" stroke-linejoin="round" d="M 1221,1026 L 1371,1026"/>
 <path fill="none" stroke="rgb(0,0,0)" stroke-linejoin="round" d="M 1371,11007 L 1371,1026"/>
 <path fill="none" stroke="rgb(255,0,0)" stroke-width="50" stroke-linejoin="round" d="M 1371,11006 L 1409,11007 1448,11007 1487,11007 1526,11007 1565,11006 1604,11006 1643,11006 1682,11004 1721,11003 1760,11003 1799,11002 1838,11001 1877,11000 1915,11001 1954,10988 1993,10997 2032,10972 2071,10960 2110,10918 2149,10934 2188,10889 2227,10827 2266,10786 2305,10721 2344,10801 2383,10723 2422,10645 2460,10517 2499,10603 2538,10301 2577,10487 2616,10362 2655,10068 2694,9875 2733,9783 2772,9884 2811,9839 2850,10073 2889,10094 2928,9691 2967,9906 3005,9851 3044,9941 3083,10005 3122,10148 3161,10397 3200,10225 3239,10125 3278,10186 3317,10354 3356,10318 3395,10412 3434,10511 3473,10572 3511,10280 3550,10267 3589,10258 3628,10315 3649,11007"/>
 <path fill="none" stroke="rgb(255,0,0)" stroke-width="50" stroke-linejoin="round" d="M 3692,11007 L 3706,10638 3745,10529 3759,11007"/>
 <path fill="none" stroke="rgb(255,0,0)" stroke-width="50" stroke-linejoin="round" d="M 3810,11007 L 3823,10596 3862,9352 3901,10591 3940,10760 3979,10745 4018,10820 4056,10701 4095,10933 4134,10753 4173,10812 4212,10880 4251,10929 4290,10819 4329,10864 4368,10847 4407,10805 4446,10904 4485,10891 4524,10572 4563,10922 4601,10912 4640,10885 4679,10915 4718,10933 4757,10914 4796,10970 4835,10945 4874,10933 4913,10938 4952,10752 4991,10940 5030,10938 5052,11007"/>
 <path fill="none" stroke="rgb(255,0,0)" stroke-width="50" stroke-linejoin="round" d="M 5080,11007 L 5107,10884 5146,10934 5185,10844 5224,10913 5263,10912 5302,10978 5341,10977 5380,10965 5419,10950 5458,10959 5497,10961 5536,10959 5575,10972 5614,10983 5652,10971 5691,10962 5730,10946 5769,10935 5808,10950 5847,10960 5886,10981 5925,10975 5964,10956 6003,10923 6042,10963 6081,10955 6120,10959 6159,10973 6197,10971 6236,10959 6275,10949 6314,10947 6353,10926 6392,10964 6431,10978 6470,10964 6509,10951 6548,10943 6587,10943 6626,11007 6665,11007 6703,10829 6742,10958 6781,10952 6820,10929 6859,10885 6898,11007 6937,11007 6976,10715 7015,10912 7054,10882 7093,10812 7132,10807 7171,11007 7210,11007 7248,10353 7287,10813 7326,10813 7365,10634 7404,10685 7443,11007 7482,11007 7520,10099 7559,10746 7598,10717 7637,10609 7676,10566 7715,11007 7754,11007 7792,9790 7831,10185 7870,10585 7909,10424 7948,10364 7987,11007 8026,11007 8065,9778 8104,10489 8143,10554 8182,9930 8221,10225 8260,11007 8298,11007 8337,8687 8376,10277 8415,10055 8454,10003 8493,9845 8532,11007 8571,11007 8610,8243 8649,9992 8688,9966 8727,9629 8766,9612 8805,11007 8843,11007 8882,7645 8921,9849 8960,9783 8999,9729 9038,9513 9077,11007 9116,11007 9155,7219 9194,9728 9233,9742 9272,9472 9311,9269 9350,11007 9388,11007 9427,7099 9466,9661 9505,9410 9544,9396 9583,8955 9622,11007 9661,11007 9700,6525 9739,9467 9778,9397 9817,9487 9856,9257 9894,11007 9933,11007 9972,6474 10011,9594 10050,9436 10089,9663 10128,9392 10167,11007 10206,11007 10245,7658 10284,9296 10323,9510 10362,9235 10401,9183 10439,11007 10478,11007 10517,7034 10556,9991 10595,9300 10634,9107 10673,8841 10712,11007 10751,11007 10790,5605 10829,9028 10868,8586 10907,8014 10946,8176 10984,11007 11023,11007 11062,3565 11101,8380 11140,8188 11179,7644 11218,7357 11257,11007 11296,11007 11335,3162 11374,8344 11413,7436 11452,7882 11490,7796 11529,11007 11568,11007 11607,3537 11646,8526 11685,8283 11724,8224 11763,7959 11802,11007 11841,11007 11880,5550 11919,9130 11958,8822 11997,8692 12035,8845 12074,11007 12113,11007 12152,7315 12191,9263 12230,9549 12269,9254 12308,9459 12347,11007 12386,11007 12425,8157 12464,9829 12503,9676 12542,9562 12580,9759 12619,11007 12658,11007 12697,8485 12736,11007 12775,9613 12814,9872 12853,9506 12892,11007 12931,11007 12970,7968 13009,9534 13048,9427 13086,9277 13125,9322 13164,11007 13203,11007 13242,7867 13281,9487 13320,9240 13359,9201 13398,11007 13437,11007 13476,11007 13515,7518 13554,8997 13593,8623 13631,8433 13670,11007 13709,11007 13748,11007 13787,6646 13826,7627 13865,11007 13904,4967 13943,7376 13982,11007 14021,11007 14060,2249 14099,7379 14138,5465 14176,5891 14215,5275 14254,11007 14293,11007 14326,1026"/>
 <path fill="none" stroke="rgb(255,0,0)" stroke-width="50" stroke-linejoin="round" d="M 14343,1026 L 14371,6117 14410,5079 14449,4682 14488,4892 14527,11007 14566,11007 14595,1026"/>
 <path fill="none" stroke="rgb(255,0,0)" stroke-width="50" stroke-linejoin="round" d="M 14621,1026 L 14644,5812 14683,5263"/>
 <path fill="rgb(255,0,0)" stroke="none" d="M 1271,11006 L 1371,11106 1471,11006 1371,10906 1271,11006 Z"/>
 <path fill="none" stroke="rgb(255,0,0)" stroke-linejoin="round" d="M 1271,11006 L 1371,11106 1471,11006 1371,10906 1271,11006 Z"/>
 <path fill="rgb(255,0,0)" stroke="none" d="M 1309,11007 L 1409,11107 1509,11007 1409,10907 1309,11007 Z"/>
 <path fill="none" stroke="rgb(255,0,0)" stroke-linejoin="round" d="M 1309,11007 L 1409,11107 1509,11007 1409,10907 1309,11007 Z"/>
 <path fill="rgb(255,0,0)" stroke="none" d="M 1348,11007 L 1448,11107 1548,11007 1448,10907 1348,11007 Z"/>
 <path fill="none" stroke="rgb(255,0,0)" stroke-linejoin="round" d="M 1348,11007 L 1448,11107 1548,11007 1448,10907 1348,11007 Z"/>
 <path fill="rgb(255,0,0)" stroke="none" d="M 1387,11007 L 1487,11107 1587,11007 1487,10907 1387,11007 Z"/>
 <path fill="none" stroke="rgb(255,0,0)" stroke-linejoin="round" d="M 1387,11007 L 1487,11107 1587,11007 1487,10907 1387,11007 Z"/>
 <path fill="rgb(255,0,0)" stroke="none" d="M 1426,11007 L 1526,11107 1626,11007 1526,10907 1426,11007 Z"/>
 <path fill="none" stroke="rgb(255,0,0)" stroke-linejoin="round" d="M 1426,11007 L 1526,11107 1626,11007 1526,10907 1426,11007 Z"/>
 <path fill="rgb(255,0,0)" stroke="none" d="M 1465,11006 L 1565,11106 1665,11006 1565,10906 1465,11006 Z"/>
 <path fill="none" stroke="rgb(255,0,0)" stroke-linejoin="round" d="M 1465,11006 L 1565,11106 1665,11006 1565,10906 1465,11006 Z"/>
 <path fill="rgb(255,0,0)" stroke="none" d="M 1504,11006 L 1604,11106 1704,11006 1604,10906 1504,11006 Z"/>
 <path fill="none" stroke="rgb(255,0,0)" stroke-linejoin="round" d="M 1504,11006 L 1604,11106 1704,11006 1604,10906 1504,11006 Z"/>
 <path fill="rgb(255,0,0)" stroke="none" d="M 1543,11006 L 1643,11106 1743,11006 1643,10906 1543,11006 Z"/>
 <path fill="none" stroke="rgb(255,0,0)" stroke-linejoin="round" d="M 1543,11006 L 1643,11106 1743,11006 1643,10906 1543,11006 Z"/>
 <path fill="rgb(255,0,0)" stroke="none" d="M 1582,11004 L 1682,11104 1782,11004 1682,10904 1582,11004 Z"/>
 <path fill="none" stroke="rgb(255,0,0)" stroke-linejoin="round" d="M 1582,11004 L 1682,11104 1782,11004 1682,10904 1582,11004 Z"/>
 <path fill="rgb(255,0,0)" stroke="none" d="M 1621,11003 L 1721,11103 1821,11003 1721,10903 1621,11003 Z"/>
 <path fill="none" stroke="rgb(255,0,0)" stroke-linejoin="round" d="M 1621,11003 L 1721,11103 1821,11003 1721,10903 1621,11003 Z"/>
 <path fill="rgb(255,0,0)" stroke="none" d="M 1660,11003 L 1760,11103 1860,11003 1760,10903 1660,11003 Z"/>
 <path fill="none" stroke="rgb(255,0,0)" stroke-linejoin="round" d="M 1660,11003 L 1760,11103 1860,11003 1760,10903 1660,11003 Z"/>
 <path fill="rgb(255,0,0)" stroke="none" d="M 1699,11002 L 1799,11102 1899,11002 1799,10902 1699,11002 Z"/>
 <path fill="none" stroke="rgb(255,0,0)" stroke-linejoin="round" d="M 1699,11002 L 1799,11102 1899,11002 1799,10902 1699,11002 Z"/>
 <path fill="rgb(255,0,0)" stroke="none" d="M 1738,11001 L 1838,11101 1938,11001 1838,10901 1738,11001 Z"/>
 <path fill="none" stroke="rgb(255,0,0)" stroke-linejoin="round" d="M 1738,11001 L 1838,11101 1938,11001 1838,10901 1738,11001 Z"/>
 <path fill="rgb(255,0,0)" stroke="none" d="M 1777,11000 L 1877,11100 1977,11000 1877,10900 1777,11000 Z"/>
 <path fill="none" stroke="rgb(255,0,0)" stroke-linejoin="round" d="M 1777,11000 L 1877,11100 1977,11000 1877,10900 1777,11000 Z"/>
 <path fill="rgb(255,0,0)" stroke="none" d="M 1815,11001 L 1915,11101 2015,11001 1915,10901 1815,11001 Z"/>
 <path fill="none" stroke="rgb(255,0,0)" stroke-linejoin="round" d="M 1815,11001 L 1915,11101 2015,11001 1915,10901 1815,11001 Z"/>
 <path fill="rgb(255,0,0)" stroke="none" d="M 1854,10988 L 1954,11088 2054,10988 1954,10888 1854,10988 Z"/>
 <path fill="none" stroke="rgb(255,0,0)" stroke-linejoin="round" d="M 1854,10988 L 1954,11088 2054,10988 1954,10888 1854,10988 Z"/>
 <path fill="rgb(255,0,0)" stroke="none" d="M 1893,10997 L 1993,11097 2093,10997 1993,10897 1893,10997 Z"/>
 <path fill="none" stroke="rgb(255,0,0)" stroke-linejoin="round" d="M 1893,10997 L 1993,11097 2093,10997 1993,10897 1893,10997 Z"/>
 <path fill="rgb(255,0,0)" stroke="none" d="M 1932,10972 L 2032,11072 2132,10972 2032,10872 1932,10972 Z"/>
 <path fill="none" stroke="rgb(255,0,0)" stroke-linejoin="round" d="M 1932,10972 L 2032,11072 2132,10972 2032,10872 1932,10972 Z"/>
 <path fill="rgb(255,0,0)" stroke="none" d="M 1971,10960 L 2071,11060 2171,10960 2071,10860 1971,10960 Z"/>
 <path fill="none" stroke="rgb(255,0,0)" stroke-linejoin="round" d="M 1971,10960 L 2071,11060 2171,10960 2071,10860 1971,10960 Z"/>
 <path fill="rgb(255,0,0)" stroke="none" d="M 2010,10918 L 2110,11018 2210,10918 2110,10818 2010,10918 Z"/>
 <path fill="none" stroke="rgb(255,0,0)" stroke-linejoin="round" d="M 2010,10918 L 2110,11018 2210,10918 2110,10818 2010,10918 Z"/>
 <path fill="rgb(255,0,0)" stroke="none" d="M 2049,10934 L 2149,11034 2249,10934 2149,10834 2049,10934 Z"/>
 <path fill="none" stroke="rgb(255,0,0)" stroke-linejoin="round" d="M 2049,10934 L 2149,11034 2249,10934 2149,10834 2049,10934 Z"/>
 <path fill="rgb(255,0,0)" stroke="none" d="M 2088,10889 L 2188,10989 2288,10889 2188,10789 2088,10889 Z"/>
 <path fill="none" stroke="rgb(255,0,0)" stroke-linejoin="round" d="M 2088,10889 L 2188,10989 2288,10889 2188,10789 2088,10889 Z"/>
 <path fill="rgb(255,0,0)" stroke="none" d="M 2127,10827 L 2227,10927 2327,10827 2227,10727 2127,10827 Z"/>
 <path fill="none" stroke="rgb(255,0,0)" stroke-linejoin="round" d="M 2127,10827 L 2227,10927 2327,10827 2227,10727 2127,10827 Z"/>
 <path fill="rgb(255,0,0)" stroke="none" d="M 2166,10786 L 2266,10886 2366,10786 2266,10686 2166,10786 Z"/>
 <path fill="none" stroke="rgb(255,0,0)" stroke-linejoin="round" d="M 2166,10786 L 2266,10886 2366,10786 2266,10686 2166,10786 Z"/>
 <path fill="rgb(255,0,0)" stroke="none" d="M 2205,10721 L 2305,10821 2405,10721 2305,10621 2205,10721 Z"/>
 <path fill="none" stroke="rgb(255,0,0)" stroke-linejoin="round" d="M 2205,10721 L 2305,10821 2405,10721 2305,10621 2205,10721 Z"/>
 <path fill="rgb(255,0,0)" stroke="none" d="M 2244,10801 L 2344,10901 2444,10801 2344,10701 2244,10801 Z"/>
 <path fill="none" stroke="rgb(255,0,0)" stroke-linejoin="round" d="M 2244,10801 L 2344,10901 2444,10801 2344,10701 2244,10801 Z"/>
 <path fill="rgb(255,0,0)" stroke="none" d="M 2283,10723 L 2383,10823 2483,10723 2383,10623 2283,10723 Z"/>
 <path fill="none" stroke="rgb(255,0,0)" stroke-linejoin="round" d="M 2283,10723 L 2383,10823 2483,10723 2383,10623 2283,10723 Z"/>
 <path fill="rgb(255,0,0)" stroke="none" d="M 2322,10645 L 2422,10745 2522,10645 2422,10545 2322,10645 Z"/>
 <path fill="none" stroke="rgb(255,0,0)" stroke-linejoin="round" d="M 2322,10645 L 2422,10745 2522,10645 2422,10545 2322,10645 Z"/>
 <path fill="rgb(255,0,0)" stroke="none" d="M 2360,10517 L 2460,10617 2560,10517 2460,10417 2360,10517 Z"/>
 <path fill="none" stroke="rgb(255,0,0)" stroke-linejoin="round" d="M 2360,10517 L 2460,10617 2560,10517 2460,10417 2360,10517 Z"/>
 <path fill="rgb(255,0,0)" stroke="none" d="M 2399,10603 L 2499,10703 2599,10603 2499,10503 2399,10603 Z"/>
 <path fill="none" stroke="rgb(255,0,0)" stroke-linejoin="round" d="M 2399,10603 L 2499,10703 2599,10603 2499,10503 2399,10603 Z"/>
 <path fill="rgb(255,0,0)" stroke="none" d="M 2438,10301 L 2538,10401 2638,10301 2538,10201 2438,10301 Z"/>
 <path fill="none" stroke="rgb(255,0,0)" stroke-linejoin="round" d="M 2438,10301 L 2538,10401 2638,10301 2538,10201 2438,10301 Z"/>
 <path fill="rgb(255,0,0)" stroke="none" d="M 2477,10487 L 2577,10587 2677,10487 2577,10387 2477,10487 Z"/>
 <path fill="none" stroke="rgb(255,0,0)" stroke-linejoin="round" d="M 2477,10487 L 2577,10587 2677,10487 2577,10387 2477,10487 Z"/>
 <path fill="rgb(255,0,0)" stroke="none" d="M 2516,10362 L 2616,10462 2716,10362 2616,10262 2516,10362 Z"/>
 <path fill="none" stroke="rgb(255,0,0)" stroke-linejoin="round" d="M 2516,10362 L 2616,10462 2716,10362 2616,10262 2516,10362 Z"/>
 <path fill="rgb(255,0,0)" stroke="none" d="M 2555,10068 L 2655,10168 2755,10068 2655,9968 2555,10068 Z"/>
 <path fill="none" stroke="rgb(255,0,0)" stroke-linejoin="round" d="M 2555,10068 L 2655,10168 2755,10068 2655,9968 2555,10068 Z"/>
 <path fill="rgb(255,0,0)" stroke="none" d="M 2594,9875 L 2694,9975 2794,9875 2694,9775 2594,9875 Z"/>
 <path fill="none" stroke="rgb(255,0,0)" stroke-linejoin="round" d="M 2594,9875 L 2694,9975 2794,9875 2694,9775 2594,9875 Z"/>
 <path fill="rgb(255,0,0)" stroke="none" d="M 2633,9783 L 2733,9883 2833,9783 2733,9683 2633,9783 Z"/>
 <path fill="none" stroke="rgb(255,0,0)" stroke-linejoin="round" d="M 2633,9783 L 2733,9883 2833,9783 2733,9683 2633,9783 Z"/>
 <path fill="rgb(255,0,0)" stroke="none" d="M 2672,9884 L 2772,9984 2872,9884 2772,9784 2672,9884 Z"/>
 <path fill="none" stroke="rgb(255,0,0)" stroke-linejoin="round" d="M 2672,9884 L 2772,9984 2872,9884 2772,9784 2672,9884 Z"/>
 <path fill="rgb(255,0,0)" stroke="none" d="M 2711,9839 L 2811,9939 2911,9839 2811,9739 2711,9839 Z"/>
 <path fill="none" stroke="rgb(255,0,0)" stroke-linejoin="round" d="M 2711,9839 L 2811,9939 2911,9839 2811,9739 2711,9839 Z"/>
 <path fill="rgb(255,0,0)" stroke="none" d="M 2750,10073 L 2850,10173 2950,10073 2850,9973 2750,10073 Z"/>
 <path fill="none" stroke="rgb(255,0,0)" stroke-linejoin="round" d="M 2750,10073 L 2850,10173 2950,10073 2850,9973 2750,10073 Z"/>
 <path fill="rgb(255,0,0)" stroke="none" d="M 2789,10094 L 2889,10194 2989,10094 2889,9994 2789,10094 Z"/>
 <path fill="none" stroke="rgb(255,0,0)" stroke-linejoin="round" d="M 2789,10094 L 2889,10194 2989,10094 2889,9994 2789,10094 Z"/>
 <path fill="rgb(255,0,0)" stroke="none" d="M 2828,9691 L 2928,9791 3028,9691 2928,9591 2828,9691 Z"/>
 <path fill="none" stroke="rgb(255,0,0)" stroke-linejoin="round" d="M 2828,9691 L 2928,9791 3028,9691 2928,9591 2828,9691 Z"/>
 <path fill="rgb(255,0,0)" stroke="none" d="M 2867,9906 L 2967,10006 3067,9906 2967,9806 2867,9906 Z"/>
 <path fill="none" stroke="rgb(255,0,0)" stroke-linejoin="round" d="M 2867,9906 L 2967,10006 3067,9906 2967,9806 2867,9906 Z"/>
 <path fill="rgb(255,0,0)" stroke="none" d="M 2905,9851 L 3005,9951 3105,9851 3005,9751 2905,9851 Z"/>
 <path fill="none" stroke="rgb(255,0,0)" stroke-linejoin="round" d="M 2905,9851 L 3005,9951 3105,9851 3005,9751 2905,9851 Z"/>
 <path fill="rgb(255,0,0)" stroke="none" d="M 2944,9941 L 3044,10041 3144,9941 3044,9841 2944,9941 Z"/>
 <path fill="none" stroke="rgb(255,0,0)" stroke-linejoin="round" d="M 2944,9941 L 3044,10041 3144,9941 3044,9841 2944,9941 Z"/>
 <path fill="rgb(255,0,0)" stroke="none" d="M 2983,10005 L 3083,10105 3183,10005 3083,9905 2983,10005 Z"/>
 <path fill="none" stroke="rgb(255,0,0)" stroke-linejoin="round" d="M 2983,10005 L 3083,10105 3183,10005 3083,9905 2983,10005 Z"/>
 <path fill="rgb(255,0,0)" stroke="none" d="M 3022,10148 L 3122,10248 3222,10148 3122,10048 3022,10148 Z"/>
 <path fill="none" stroke="rgb(255,0,0)" stroke-linejoin="round" d="M 3022,10148 L 3122,10248 3222,10148 3122,10048 3022,10148 Z"/>
 <path fill="rgb(255,0,0)" stroke="none" d="M 3061,10397 L 3161,10497 3261,10397 3161,10297 3061,10397 Z"/>
 <path fill="none" stroke="rgb(255,0,0)" stroke-linejoin="round" d="M 3061,10397 L 3161,10497 3261,10397 3161,10297 3061,10397 Z"/>
 <path fill="rgb(255,0,0)" stroke="none" d="M 3100,10225 L 3200,10325 3300,10225 3200,10125 3100,10225 Z"/>
 <path fill="none" stroke="rgb(255,0,0)" stroke-linejoin="round" d="M 3100,10225 L 3200,10325 3300,10225 3200,10125 3100,10225 Z"/>
 <path fill="rgb(255,0,0)" stroke="none" d="M 3139,10125 L 3239,10225 3339,10125 3239,10025 3139,10125 Z"/>
 <path fill="none" stroke="rgb(255,0,0)" stroke-linejoin="round" d="M 3139,10125 L 3239,10225 3339,10125 3239,10025 3139,10125 Z"/>
 <path fill="rgb(255,0,0)" stroke="none" d="M 3178,10186 L 3278,10286 3378,10186 3278,10086 3178,10186 Z"/>
 <path fill="none" stroke="rgb(255,0,0)" stroke-linejoin="round" d="M 3178,10186 L 3278,10286 3378,10186 3278,10086 3178,10186 Z"/>
 <path fill="rgb(255,0,0)" stroke="none" d="M 3217,10354 L 3317,10454 3417,10354 3317,10254 3217,10354 Z"/>
 <path fill="none" stroke="rgb(255,0,0)" stroke-linejoin="round" d="M 3217,10354 L 3317,10454 3417,10354 3317,10254 3217,10354 Z"/>
 <path fill="rgb(255,0,0)" stroke="none" d="M 3256,10318 L 3356,10418 3456,10318 3356,10218 3256,10318 Z"/>
 <path fill="none" stroke="rgb(255,0,0)" stroke-linejoin="round" d="M 3256,10318 L 3356,10418 3456,10318 3356,10218 3256,10318 Z"/>
 <path fill="rgb(255,0,0)" stroke="none" d="M 3295,10412 L 3395,10512 3495,10412 3395,10312 3295,10412 Z"/>
 <path fill="none" stroke="rgb(255,0,0)" stroke-linejoin="round" d="M 3295,10412 L 3395,10512 3495,10412 3395,10312 3295,10412 Z"/>
 <path fill="rgb(255,0,0)" stroke="none" d="M 3334,10511 L 3434,10611 3534,10511 3434,10411 3334,10511 Z"/>
 <path fill="none" stroke="rgb(255,0,0)" stroke-linejoin="round" d="M 3334,10511 L 3434,10611 3534,10511 3434,10411 3334,10511 Z"/>
 <path fill="rgb(255,0,0)" stroke="none" d="M 3373,10572 L 3473,10672 3573,10572 3473,10472 3373,10572 Z"/>
 <path fill="none" stroke="rgb(255,0,0)" stroke-linejoin="round" d="M 3373,10572 L 3473,10672 3573,10572 3473,10472 3373,10572 Z"/>
 <path fill="rgb(255,0,0)" stroke="none" d="M 3411,10280 L 3511,10380 3611,10280 3511,10180 3411,10280 Z"/>
 <path fill="none" stroke="rgb(255,0,0)" stroke-linejoin="round" d="M 3411,10280 L 3511,10380 3611,10280 3511,10180 3411,10280 Z"/>
 <path fill="rgb(255,0,0)" stroke="none" d="M 3450,10267 L 3550,10367 3650,10267 3550,10167 3450,10267 Z"/>
 <path fill="none" stroke="rgb(255,0,0)" stroke-linejoin="round" d="M 3450,10267 L 3550,10367 3650,10267 3550,10167 3450,10267 Z"/>
 <path fill="rgb(255,0,0)" stroke="none" d="M 3489,10258 L 3589,10358 3689,10258 3589,10158 3489,10258 Z"/>
 <path fill="none" stroke="rgb(255,0,0)" stroke-linejoin="round" d="M 3489,10258 L 3589,10358 3689,10258 3589,10158 3489,10258 Z"/>
 <path fill="rgb(255,0,0)" stroke="none" d="M 3528,10315 L 3628,10415 3728,10315 3628,10215 3528,10315 Z"/>
 <path fill="none" stroke="rgb(255,0,0)" stroke-linejoin="round" d="M 3528,10315 L 3628,10415 3728,10315 3628,10215 3528,10315 Z"/>
 <path fill="rgb(255,0,0)" stroke="none" d="M 3606,10638 L 3706,10738 3806,10638 3706,10538 3606,10638 Z"/>
 <path fill="none" stroke="rgb(255,0,0)" stroke-linejoin="round" d="M 3606,10638 L 3706,10738 3806,10638 3706,10538 3606,10638 Z"/>
 <path fill="rgb(255,0,0)" stroke="none" d="M 3645,10529 L 3745,10629 3845,10529 3745,10429 3645,10529 Z"/>
 <path fill="none" stroke="rgb(255,0,0)" stroke-linejoin="round" d="M 3645,10529 L 3745,10629 3845,10529 3745,10429 3645,10529 Z"/>
 <path fill="rgb(255,0,0)" stroke="none" d="M 3723,10596 L 3823,10696 3923,10596 3823,10496 3723,10596 Z"/>
 <path fill="none" stroke="rgb(255,0,0)" stroke-linejoin="round" d="M 3723,10596 L 3823,10696 3923,10596 3823,10496 3723,10596 Z"/>
 <path fill="rgb(255,0,0)" stroke="none" d="M 3762,9352 L 3862,9452 3962,9352 3862,9252 3762,9352 Z"/>
 <path fill="none" stroke="rgb(255,0,0)" stroke-linejoin="round" d="M 3762,9352 L 3862,9452 3962,9352 3862,9252 3762,9352 Z"/>
 <path fill="rgb(255,0,0)" stroke="none" d="M 3801,10591 L 3901,10691 4001,10591 3901,10491 3801,10591 Z"/>
 <path fill="none" stroke="rgb(255,0,0)" stroke-linejoin="round" d="M 3801,10591 L 3901,10691 4001,10591 3901,10491 3801,10591 Z"/>
 <path fill="rgb(255,0,0)" stroke="none" d="M 3840,10760 L 3940,10860 4040,10760 3940,10660 3840,10760 Z"/>
 <path fill="none" stroke="rgb(255,0,0)" stroke-linejoin="round" d="M 3840,10760 L 3940,10860 4040,10760 3940,10660 3840,10760 Z"/>
 <path fill="rgb(255,0,0)" stroke="none" d="M 3879,10745 L 3979,10845 4079,10745 3979,10645 3879,10745 Z"/>
 <path fill="none" stroke="rgb(255,0,0)" stroke-linejoin="round" d="M 3879,10745 L 3979,10845 4079,10745 3979,10645 3879,10745 Z"/>
 <path fill="rgb(255,0,0)" stroke="none" d="M 3918,10820 L 4018,10920 4118,10820 4018,10720 3918,10820 Z"/>
 <path fill="none" stroke="rgb(255,0,0)" stroke-linejoin="round" d="M 3918,10820 L 4018,10920 4118,10820 4018,10720 3918,10820 Z"/>
 <path fill="rgb(255,0,0)" stroke="none" d="M 3956,10701 L 4056,10801 4156,10701 4056,10601 3956,10701 Z"/>
 <path fill="none" stroke="rgb(255,0,0)" stroke-linejoin="round" d="M 3956,10701 L 4056,10801 4156,10701 4056,10601 3956,10701 Z"/>
 <path fill="rgb(255,0,0)" stroke="none" d="M 3995,10933 L 4095,11033 4195,10933 4095,10833 3995,10933 Z"/>
 <path fill="none" stroke="rgb(255,0,0)" stroke-linejoin="round" d="M 3995,10933 L 4095,11033 4195,10933 4095,10833 3995,10933 Z"/>
 <path fill="rgb(255,0,0)" stroke="none" d="M 4034,10753 L 4134,10853 4234,10753 4134,10653 4034,10753 Z"/>
 <path fill="none" stroke="rgb(255,0,0)" stroke-linejoin="round" d="M 4034,10753 L 4134,10853 4234,10753 4134,10653 4034,10753 Z"/>
 <path fill="rgb(255,0,0)" stroke="none" d="M 4073,10812 L 4173,10912 4273,10812 4173,10712 4073,10812 Z"/>
 <path fill="none" stroke="rgb(255,0,0)" stroke-linejoin="round" d="M 4073,10812 L 4173,10912 4273,10812 4173,10712 4073,10812 Z"/>
 <path fill="rgb(255,0,0)" stroke="none" d="M 4112,10880 L 4212,10980 4312,10880 4212,10780 4112,10880 Z"/>
 <path fill="none" stroke="rgb(255,0,0)" stroke-linejoin="round" d="M 4112,10880 L 4212,10980 4312,10880 4212,10780 4112,10880 Z"/>
 <path fill="rgb(255,0,0)" stroke="none" d="M 4151,10929 L 4251,11029 4351,10929 4251,10829 4151,10929 Z"/>
 <path fill="none" stroke="rgb(255,0,0)" stroke-linejoin="round" d="M 4151,10929 L 4251,11029 4351,10929 4251,10829 4151,10929 Z"/>
 <path fill="rgb(255,0,0)" stroke="none" d="M 4190,10819 L 4290,10919 4390,10819 4290,10719 4190,10819 Z"/>
 <path fill="none" stroke="rgb(255,0,0)" stroke-linejoin="round" d="M 4190,10819 L 4290,10919 4390,10819 4290,10719 4190,10819 Z"/>
 <path fill="rgb(255,0,0)" stroke="none" d="M 4229,10864 L 4329,10964 4429,10864 4329,10764 4229,10864 Z"/>
 <path fill="none" stroke="rgb(255,0,0)" stroke-linejoin="round" d="M 4229,10864 L 4329,10964 4429,10864 4329,10764 4229,10864 Z"/>
 <path fill="rgb(255,0,0)" stroke="none" d="M 4268,10847 L 4368,10947 4468,10847 4368,10747 4268,10847 Z"/>
 <path fill="none" stroke="rgb(255,0,0)" stroke-linejoin="round" d="M 4268,10847 L 4368,10947 4468,10847 4368,10747 4268,10847 Z"/>
 <path fill="rgb(255,0,0)" stroke="none" d="M 4307,10805 L 4407,10905 4507,10805 4407,10705 4307,10805 Z"/>
 <path fill="none" stroke="rgb(255,0,0)" stroke-linejoin="round" d="M 4307,10805 L 4407,10905 4507,10805 4407,10705 4307,10805 Z"/>
 <path fill="rgb(255,0,0)" stroke="none" d="M 4346,10904 L 4446,11004 4546,10904 4446,10804 4346,10904 Z"/>
 <path fill="none" stroke="rgb(255,0,0)" stroke-linejoin="round" d="M 4346,10904 L 4446,11004 4546,10904 4446,10804 4346,10904 Z"/>
 <path fill="rgb(255,0,0)" stroke="none" d="M 4385,10891 L 4485,10991 4585,10891 4485,10791 4385,10891 Z"/>
 <path fill="none" stroke="rgb(255,0,0)" stroke-linejoin="round" d="M 4385,10891 L 4485,10991 4585,10891 4485,10791 4385,10891 Z"/>
 <path fill="rgb(255,0,0)" stroke="none" d="M 4424,10572 L 4524,10672 4624,10572 4524,10472 4424,10572 Z"/>
 <path fill="none" stroke="rgb(255,0,0)" stroke-linejoin="round" d="M 4424,10572 L 4524,10672 4624,10572 4524,10472 4424,10572 Z"/>
 <path fill="rgb(255,0,0)" stroke="none" d="M 4463,10922 L 4563,11022 4663,10922 4563,10822 4463,10922 Z"/>
 <path fill="none" stroke="rgb(255,0,0)" stroke-linejoin="round" d="M 4463,10922 L 4563,11022 4663,10922 4563,10822 4463,10922 Z"/>
 <path fill="rgb(255,0,0)" stroke="none" d="M 4501,10912 L 4601,11012 4701,10912 4601,10812 4501,10912 Z"/>
 <path fill="none" stroke="rgb(255,0,0)" stroke-linejoin="round" d="M 4501,10912 L 4601,11012 4701,10912 4601,10812 4501,10912 Z"/>
 <path fill="rgb(255,0,0)" stroke="none" d="M 4540,10885 L 4640,10985 4740,10885 4640,10785 4540,10885 Z"/>
 <path fill="none" stroke="rgb(255,0,0)" stroke-linejoin="round" d="M 4540,10885 L 4640,10985 4740,10885 4640,10785 4540,10885 Z"/>
 <path fill="rgb(255,0,0)" stroke="none" d="M 4579,10915 L 4679,11015 4779,10915 4679,10815 4579,10915 Z"/>
 <path fill="none" stroke="rgb(255,0,0)" stroke-linejoin="round" d="M 4579,10915 L 4679,11015 4779,10915 4679,10815 4579,10915 Z"/>
 <path fill="rgb(255,0,0)" stroke="none" d="M 4618,10933 L 4718,11033 4818,10933 4718,10833 4618,10933 Z"/>
 <path fill="none" stroke="rgb(255,0,0)" stroke-linejoin="round" d="M 4618,10933 L 4718,11033 4818,10933 4718,10833 4618,10933 Z"/>
 <path fill="rgb(255,0,0)" stroke="none" d="M 4657,10914 L 4757,11014 4857,10914 4757,10814 4657,10914 Z"/>
 <path fill="none" stroke="rgb(255,0,0)" stroke-linejoin="round" d="M 4657,10914 L 4757,11014 4857,10914 4757,10814 4657,10914 Z"/>
 <path fill="rgb(255,0,0)" stroke="none" d="M 4696,10970 L 4796,11070 4896,10970 4796,10870 4696,10970 Z"/>
 <path fill="none" stroke="rgb(255,0,0)" stroke-linejoin="round" d="M 4696,10970 L 4796,11070 4896,10970 4796,10870 4696,10970 Z"/>
 <path fill="rgb(255,0,0)" stroke="none" d="M 4735,10945 L 4835,11045 4935,10945 4835,10845 4735,10945 Z"/>
 <path fill="none" stroke="rgb(255,0,0)" stroke-linejoin="round" d="M 4735,10945 L 4835,11045 4935,10945 4835,10845 4735,10945 Z"/>
 <path fill="rgb(255,0,0)" stroke="none" d="M 4774,10933 L 4874,11033 4974,10933 4874,10833 4774,10933 Z"/>
 <path fill="none" stroke="rgb(255,0,0)" stroke-linejoin="round" d="M 4774,10933 L 4874,11033 4974,10933 4874,10833 4774,10933 Z"/>
 <path fill="rgb(255,0,0)" stroke="none" d="M 4813,10938 L 4913,11038 5013,10938 4913,10838 4813,10938 Z"/>
 <path fill="none" stroke="rgb(255,0,0)" stroke-linejoin="round" d="M 4813,10938 L 4913,11038 5013,10938 4913,10838 4813,10938 Z"/>
 <path fill="rgb(255,0,0)" stroke="none" d="M 4852,10752 L 4952,10852 5052,10752 4952,10652 4852,10752 Z"/>
 <path fill="none" stroke="rgb(255,0,0)" stroke-linejoin="round" d="M 4852,10752 L 4952,10852 5052,10752 4952,10652 4852,10752 Z"/>
 <path fill="rgb(255,0,0)" stroke="none" d="M 4891,10940 L 4991,11040 5091,10940 4991,10840 4891,10940 Z"/>
 <path fill="none" stroke="rgb(255,0,0)" stroke-linejoin="round" d="M 4891,10940 L 4991,11040 5091,10940 4991,10840 4891,10940 Z"/>
 <path fill="rgb(255,0,0)" stroke="none" d="M 4930,10938 L 5030,11038 5130,10938 5030,10838 4930,10938 Z"/>
 <path fill="none" stroke="rgb(255,0,0)" stroke-linejoin="round" d="M 4930,10938 L 5030,11038 5130,10938 5030,10838 4930,10938 Z"/>
 <path fill="rgb(255,0,0)" stroke="none" d="M 5007,10884 L 5107,10984 5207,10884 5107,10784 5007,10884 Z"/>
 <path fill="none" stroke="rgb(255,0,0)" stroke-linejoin="round" d="M 5007,10884 L 5107,10984 5207,10884 5107,10784 5007,10884 Z"/>
 <path fill="rgb(255,0,0)" stroke="none" d="M 5046,10934 L 5146,11034 5246,10934 5146,10834 5046,10934 Z"/>
 <path fill="none" stroke="rgb(255,0,0)" stroke-linejoin="round" d="M 5046,10934 L 5146,11034 5246,10934 5146,10834 5046,10934 Z"/>
 <path fill="rgb(255,0,0)" stroke="none" d="M 5085,10844 L 5185,10944 5285,10844 5185,10744 5085,10844 Z"/>
 <path fill="none" stroke="rgb(255,0,0)" stroke-linejoin="round" d="M 5085,10844 L 5185,10944 5285,10844 5185,10744 5085,10844 Z"/>
 <path fill="rgb(255,0,0)" stroke="none" d="M 5124,10913 L 5224,11013 5324,10913 5224,10813 5124,10913 Z"/>
 <path fill="none" stroke="rgb(255,0,0)" stroke-linejoin="round" d="M 5124,10913 L 5224,11013 5324,10913 5224,10813 5124,10913 Z"/>
 <path fill="rgb(255,0,0)" stroke="none" d="M 5163,10912 L 5263,11012 5363,10912 5263,10812 5163,10912 Z"/>
 <path fill="none" stroke="rgb(255,0,0)" stroke-linejoin="round" d="M 5163,10912 L 5263,11012 5363,10912 5263,10812 5163,10912 Z"/>
 <path fill="rgb(255,0,0)" stroke="none" d="M 5202,10978 L 5302,11078 5402,10978 5302,10878 5202,10978 Z"/>
 <path fill="none" stroke="rgb(255,0,0)" stroke-linejoin="round" d="M 5202,10978 L 5302,11078 5402,10978 5302,10878 5202,10978 Z"/>
 <path fill="rgb(255,0,0)" stroke="none" d="M 5241,10977 L 5341,11077 5441,10977 5341,10877 5241,10977 Z"/>
 <path fill="none" stroke="rgb(255,0,0)" stroke-linejoin="round" d="M 5241,10977 L 5341,11077 5441,10977 5341,10877 5241,10977 Z"/>
 <path fill="rgb(255,0,0)" stroke="none" d="M 5280,10965 L 5380,11065 5480,10965 5380,10865 5280,10965 Z"/>
 <path fill="none" stroke="rgb(255,0,0)" stroke-linejoin="round" d="M 5280,10965 L 5380,11065 5480,10965 5380,10865 5280,10965 Z"/>
 <path fill="rgb(255,0,0)" stroke="none" d="M 5319,10950 L 5419,11050 5519,10950 5419,10850 5319,10950 Z"/>
 <path fill="none" stroke="rgb(255,0,0)" stroke-linejoin="round" d="M 5319,10950 L 5419,11050 5519,10950 5419,10850 5319,10950 Z"/>
 <path fill="rgb(255,0,0)" stroke="none" d="M 5358,10959 L 5458,11059 5558,10959 5458,10859 5358,10959 Z"/>
 <path fill="none" stroke="rgb(255,0,0)" stroke-linejoin="round" d="M 5358,10959 L 5458,11059 5558,10959 5458,10859 5358,10959 Z"/>
 <path fill="rgb(255,0,0)" stroke="none" d="M 5397,10961 L 5497,11061 5597,10961 5497,10861 5397,10961 Z"/>
 <path fill="none" stroke="rgb(255,0,0)" stroke-linejoin="round" d="M 5397,10961 L 5497,11061 5597,10961 5497,10861 5397,10961 Z"/>
 <path fill="rgb(255,0,0)" stroke="none" d="M 5436,10959 L 5536,11059 5636,10959 5536,10859 5436,10959 Z"/>
 <path fill="none" stroke="rgb(255,0,0)" stroke-linejoin="round" d="M 5436,10959 L 5536,11059 5636,10959 5536,10859 5436,10959 Z"/>
 <path fill="rgb(255,0,0)" stroke="none" d="M 5475,10972 L 5575,11072 5675,10972 5575,10872 5475,10972 Z"/>
 <path fill="none" stroke="rgb(255,0,0)" stroke-linejoin="round" d="M 5475,10972 L 5575,11072 5675,10972 5575,10872 5475,10972 Z"/>
 <path fill="rgb(255,0,0)" stroke="none" d="M 5514,10983 L 5614,11083 5714,10983 5614,10883 5514,10983 Z"/>
 <path fill="none" stroke="rgb(255,0,0)" stroke-linejoin="round" d="M 5514,10983 L 5614,11083 5714,10983 5614,10883 5514,10983 Z"/>
 <path fill="rgb(255,0,0)" stroke="none" d="M 5552,10971 L 5652,11071 5752,10971 5652,10871 5552,10971 Z"/>
 <path fill="none" stroke="rgb(255,0,0)" stroke-linejoin="round" d="M 5552,10971 L 5652,11071 5752,10971 5652,10871 5552,10971 Z"/>
 <path fill="rgb(255,0,0)" stroke="none" d="M 5591,10962 L 5691,11062 5791,10962 5691,10862 5591,10962 Z"/>
 <path fill="none" stroke="rgb(255,0,0)" stroke-linejoin="round" d="M 5591,10962 L 5691,11062 5791,10962 5691,10862 5591,10962 Z"/>
 <path fill="rgb(255,0,0)" stroke="none" d="M 5630,10946 L 5730,11046 5830,10946 5730,10846 5630,10946 Z"/>
 <path fill="none" stroke="rgb(255,0,0)" stroke-linejoin="round" d="M 5630,10946 L 5730,11046 5830,10946 5730,10846 5630,10946 Z"/>
 <path fill="rgb(255,0,0)" stroke="none" d="M 5669,10935 L 5769,11035 5869,10935 5769,10835 5669,10935 Z"/>
 <path fill="none" stroke="rgb(255,0,0)" stroke-linejoin="round" d="M 5669,10935 L 5769,11035 5869,10935 5769,10835 5669,10935 Z"/>
 <path fill="rgb(255,0,0)" stroke="none" d="M 5708,10950 L 5808,11050 5908,10950 5808,10850 5708,10950 Z"/>
 <path fill="none" stroke="rgb(255,0,0)" stroke-linejoin="round" d="M 5708,10950 L 5808,11050 5908,10950 5808,10850 5708,10950 Z"/>
 <path fill="rgb(255,0,0)" stroke="none" d="M 5747,10960 L 5847,11060 5947,10960 5847,10860 5747,10960 Z"/>
 <path fill="none" stroke="rgb(255,0,0)" stroke-linejoin="round" d="M 5747,10960 L 5847,11060 5947,10960 5847,10860 5747,10960 Z"/>
 <path fill="rgb(255,0,0)" stroke="none" d="M 5786,10981 L 5886,11081 5986,10981 5886,10881 5786,10981 Z"/>
 <path fill="none" stroke="rgb(255,0,0)" stroke-linejoin="round" d="M 5786,10981 L 5886,11081 5986,10981 5886,10881 5786,10981 Z"/>
 <path fill="rgb(255,0,0)" stroke="none" d="M 5825,10975 L 5925,11075 6025,10975 5925,10875 5825,10975 Z"/>
 <path fill="none" stroke="rgb(255,0,0)" stroke-linejoin="round" d="M 5825,10975 L 5925,11075 6025,10975 5925,10875 5825,10975 Z"/>
 <path fill="rgb(255,0,0)" stroke="none" d="M 5864,10956 L 5964,11056 6064,10956 5964,10856 5864,10956 Z"/>
 <path fill="none" stroke="rgb(255,0,0)" stroke-linejoin="round" d="M 5864,10956 L 5964,11056 6064,10956 5964,10856 5864,10956 Z"/>
 <path fill="rgb(255,0,0)" stroke="none" d="M 5903,10923 L 6003,11023 6103,10923 6003,10823 5903,10923 Z"/>
 <path fill="none" stroke="rgb(255,0,0)" stroke-linejoin="round" d="M 5903,10923 L 6003,11023 6103,10923 6003,10823 5903,10923 Z"/>
 <path fill="rgb(255,0,0)" stroke="none" d="M 5942,10963 L 6042,11063 6142,10963 6042,10863 5942,10963 Z"/>
 <path fill="none" stroke="rgb(255,0,0)" stroke-linejoin="round" d="M 5942,10963 L 6042,11063 6142,10963 6042,10863 5942,10963 Z"/>
 <path fill="rgb(255,0,0)" stroke="none" d="M 5981,10955 L 6081,11055 6181,10955 6081,10855 5981,10955 Z"/>
 <path fill="none" stroke="rgb(255,0,0)" stroke-linejoin="round" d="M 5981,10955 L 6081,11055 6181,10955 6081,10855 5981,10955 Z"/>
 <path fill="rgb(255,0,0)" stroke="none" d="M 6020,10959 L 6120,11059 6220,10959 6120,10859 6020,10959 Z"/>
 <path fill="none" stroke="rgb(255,0,0)" stroke-linejoin="round" d="M 6020,10959 L 6120,11059 6220,10959 6120,10859 6020,10959 Z"/>
 <path fill="rgb(255,0,0)" stroke="none" d="M 6059,10973 L 6159,11073 6259,10973 6159,10873 6059,10973 Z"/>
 <path fill="none" stroke="rgb(255,0,0)" stroke-linejoin="round" d="M 6059,10973 L 6159,11073 6259,10973 6159,10873 6059,10973 Z"/>
 <path fill="rgb(255,0,0)" stroke="none" d="M 6097,10971 L 6197,11071 6297,10971 6197,10871 6097,10971 Z"/>
 <path fill="none" stroke="rgb(255,0,0)" stroke-linejoin="round" d="M 6097,10971 L 6197,11071 6297,10971 6197,10871 6097,10971 Z"/>
 <path fill="rgb(255,0,0)" stroke="none" d="M 6136,10959 L 6236,11059 6336,10959 6236,10859 6136,10959 Z"/>
 <path fill="none" stroke="rgb(255,0,0)" stroke-linejoin="round" d="M 6136,10959 L 6236,11059 6336,10959 6236,10859 6136,10959 Z"/>
 <path fill="rgb(255,0,0)" stroke="none" d="M 6175,10949 L 6275,11049 6375,10949 6275,10849 6175,10949 Z"/>
 <path fill="none" stroke="rgb(255,0,0)" stroke-linejoin="round" d="M 6175,10949 L 6275,11049 6375,10949 6275,10849 6175,10949 Z"/>
 <path fill="rgb(255,0,0)" stroke="none" d="M 6214,10947 L 6314,11047 6414,10947 6314,10847 6214,10947 Z"/>
 <path fill="none" stroke="rgb(255,0,0)" stroke-linejoin="round" d="M 6214,10947 L 6314,11047 6414,10947 6314,10847 6214,10947 Z"/>
 <path fill="rgb(255,0,0)" stroke="none" d="M 6253,10926 L 6353,11026 6453,10926 6353,10826 6253,10926 Z"/>
 <path fill="none" stroke="rgb(255,0,0)" stroke-linejoin="round" d="M 6253,10926 L 6353,11026 6453,10926 6353,10826 6253,10926 Z"/>
 <path fill="rgb(255,0,0)" stroke="none" d="M 6292,10964 L 6392,11064 6492,10964 6392,10864 6292,10964 Z"/>
 <path fill="none" stroke="rgb(255,0,0)" stroke-linejoin="round" d="M 6292,10964 L 6392,11064 6492,10964 6392,10864 6292,10964 Z"/>
 <path fill="rgb(255,0,0)" stroke="none" d="M 6331,10978 L 6431,11078 6531,10978 6431,10878 6331,10978 Z"/>
 <path fill="none" stroke="rgb(255,0,0)" stroke-linejoin="round" d="M 6331,10978 L 6431,11078 6531,10978 6431,10878 6331,10978 Z"/>
 <path fill="rgb(255,0,0)" stroke="none" d="M 6370,10964 L 6470,11064 6570,10964 6470,10864 6370,10964 Z"/>
 <path fill="none" stroke="rgb(255,0,0)" stroke-linejoin="round" d="M 6370,10964 L 6470,11064 6570,10964 6470,10864 6370,10964 Z"/>
 <path fill="rgb(255,0,0)" stroke="none" d="M 6409,10951 L 6509,11051 6609,10951 6509,10851 6409,10951 Z"/>
 <path fill="none" stroke="rgb(255,0,0)" stroke-linejoin="round" d="M 6409,10951 L 6509,11051 6609,10951 6509,10851 6409,10951 Z"/>
 <path fill="rgb(255,0,0)" stroke="none" d="M 6448,10943 L 6548,11043 6648,10943 6548,10843 6448,10943 Z"/>
 <path fill="none" stroke="rgb(255,0,0)" stroke-linejoin="round" d="M 6448,10943 L 6548,11043 6648,10943 6548,10843 6448,10943 Z"/>
 <path fill="rgb(255,0,0)" stroke="none" d="M 6487,10943 L 6587,11043 6687,10943 6587,10843 6487,10943 Z"/>
 <path fill="none" stroke="rgb(255,0,0)" stroke-linejoin="round" d="M 6487,10943 L 6587,11043 6687,10943 6587,10843 6487,10943 Z"/>
 <path fill="rgb(255,0,0)" stroke="none" d="M 6526,11007 L 6626,11107 6726,11007 6626,10907 6526,11007 Z"/>
 <path fill="none" stroke="rgb(255,0,0)" stroke-linejoin="round" d="M 6526,11007 L 6626,11107 6726,11007 6626,10907 6526,11007 Z"/>
 <path fill="rgb(255,0,0)" stroke="none" d="M 6565,11007 L 6665,11107 6765,11007 6665,10907 6565,11007 Z"/>
 <path fill="none" stroke="rgb(255,0,0)" stroke-linejoin="round" d="M 6565,11007 L 6665,11107 6765,11007 6665,10907 6565,11007 Z"/>
 <path fill="rgb(255,0,0)" stroke="none" d="M 6603,10829 L 6703,10929 6803,10829 6703,10729 6603,10829 Z"/>
 <path fill="none" stroke="rgb(255,0,0)" stroke-linejoin="round" d="M 6603,10829 L 6703,10929 6803,10829 6703,10729 6603,10829 Z"/>
 <path fill="rgb(255,0,0)" stroke="none" d="M 6642,10958 L 6742,11058 6842,10958 6742,10858 6642,10958 Z"/>
 <path fill="none" stroke="rgb(255,0,0)" stroke-linejoin="round" d="M 6642,10958 L 6742,11058 6842,10958 6742,10858 6642,10958 Z"/>
 <path fill="rgb(255,0,0)" stroke="none" d="M 6681,10952 L 6781,11052 6881,10952 6781,10852 6681,10952 Z"/>
 <path fill="none" stroke="rgb(255,0,0)" stroke-linejoin="round" d="M 6681,10952 L 6781,11052 6881,10952 6781,10852 6681,10952 Z"/>
 <path fill="rgb(255,0,0)" stroke="none" d="M 6720,10929 L 6820,11029 6920,10929 6820,10829 6720,10929 Z"/>
 <path fill="none" stroke="rgb(255,0,0)" stroke-linejoin="round" d="M 6720,10929 L 6820,11029 6920,10929 6820,10829 6720,10929 Z"/>
 <path fill="rgb(255,0,0)" stroke="none" d="M 6759,10885 L 6859,10985 6959,10885 6859,10785 6759,10885 Z"/>
 <path fill="none" stroke="rgb(255,0,0)" stroke-linejoin="round" d="M 6759,10885 L 6859,10985 6959,10885 6859,10785 6759,10885 Z"/>
 <path fill="rgb(255,0,0)" stroke="none" d="M 6798,11007 L 6898,11107 6998,11007 6898,10907 6798,11007 Z"/>
 <path fill="none" stroke="rgb(255,0,0)" stroke-linejoin="round" d="M 6798,11007 L 6898,11107 6998,11007 6898,10907 6798,11007 Z"/>
 <path fill="rgb(255,0,0)" stroke="none" d="M 6837,11007 L 6937,11107 7037,11007 6937,10907 6837,11007 Z"/>
 <path fill="none" stroke="rgb(255,0,0)" stroke-linejoin="round" d="M 6837,11007 L 6937,11107 7037,11007 6937,10907 6837,11007 Z"/>
 <path fill="rgb(255,0,0)" stroke="none" d="M 6876,10715 L 6976,10815 7076,10715 6976,10615 6876,10715 Z"/>
 <path fill="none" stroke="rgb(255,0,0)" stroke-linejoin="round" d="M 6876,10715 L 6976,10815 7076,10715 6976,10615 6876,10715 Z"/>
 <path fill="rgb(255,0,0)" stroke="none" d="M 6915,10912 L 7015,11012 7115,10912 7015,10812 6915,10912 Z"/>
 <path fill="none" stroke="rgb(255,0,0)" stroke-linejoin="round" d="M 6915,10912 L 7015,11012 7115,10912 7015,10812 6915,10912 Z"/>
 <path fill="rgb(255,0,0)" stroke="none" d="M 6954,10882 L 7054,10982 7154,10882 7054,10782 6954,10882 Z"/>
 <path fill="none" stroke="rgb(255,0,0)" stroke-linejoin="round" d="M 6954,10882 L 7054,10982 7154,10882 7054,10782 6954,10882 Z"/>
 <path fill="rgb(255,0,0)" stroke="none" d="M 6993,10812 L 7093,10912 7193,10812 7093,10712 6993,10812 Z"/>
 <path fill="none" stroke="rgb(255,0,0)" stroke-linejoin="round" d="M 6993,10812 L 7093,10912 7193,10812 7093,10712 6993,10812 Z"/>
 <path fill="rgb(255,0,0)" stroke="none" d="M 7032,10807 L 7132,10907 7232,10807 7132,10707 7032,10807 Z"/>
 <path fill="none" stroke="rgb(255,0,0)" stroke-linejoin="round" d="M 7032,10807 L 7132,10907 7232,10807 7132,10707 7032,10807 Z"/>
 <path fill="rgb(255,0,0)" stroke="none" d="M 7071,11007 L 7171,11107 7271,11007 7171,10907 7071,11007 Z"/>
 <path fill="none" stroke="rgb(255,0,0)" stroke-linejoin="round" d="M 7071,11007 L 7171,11107 7271,11007 7171,10907 7071,11007 Z"/>
 <path fill="rgb(255,0,0)" stroke="none" d="M 7110,11007 L 7210,11107 7310,11007 7210,10907 7110,11007 Z"/>
 <path fill="none" stroke="rgb(255,0,0)" stroke-linejoin="round" d="M 7110,11007 L 7210,11107 7310,11007 7210,10907 7110,11007 Z"/>
 <path fill="rgb(255,0,0)" stroke="none" d="M 7148,10353 L 7248,10453 7348,10353 7248,10253 7148,10353 Z"/>
 <path fill="none" stroke="rgb(255,0,0)" stroke-linejoin="round" d="M 7148,10353 L 7248,10453 7348,10353 7248,10253 7148,10353 Z"/>
 <path fill="rgb(255,0,0)" stroke="none" d="M 7187,10813 L 7287,10913 7387,10813 7287,10713 7187,10813 Z"/>
 <path fill="none" stroke="rgb(255,0,0)" stroke-linejoin="round" d="M 7187,10813 L 7287,10913 7387,10813 7287,10713 7187,10813 Z"/>
 <path fill="rgb(255,0,0)" stroke="none" d="M 7226,10813 L 7326,10913 7426,10813 7326,10713 7226,10813 Z"/>
 <path fill="none" stroke="rgb(255,0,0)" stroke-linejoin="round" d="M 7226,10813 L 7326,10913 7426,10813 7326,10713 7226,10813 Z"/>
 <path fill="rgb(255,0,0)" stroke="none" d="M 7265,10634 L 7365,10734 7465,10634 7365,10534 7265,10634 Z"/>
 <path fill="none" stroke="rgb(255,0,0)" stroke-linejoin="round" d="M 7265,10634 L 7365,10734 7465,10634 7365,10534 7265,10634 Z"/>
 <path fill="rgb(255,0,0)" stroke="none" d="M 7304,10685 L 7404,10785 7503,10685 7404,10585 7304,10685 Z"/>
 <path fill="none" stroke="rgb(255,0,0)" stroke-linejoin="round" d="M 7304,10685 L 7404,10785 7503,10685 7404,10585 7304,10685 Z"/>
 <path fill="rgb(255,0,0)" stroke="none" d="M 7343,11007 L 7443,11107 7542,11007 7443,10907 7343,11007 Z"/>
 <path fill="none" stroke="rgb(255,0,0)" stroke-linejoin="round" d="M 7343,11007 L 7443,11107 7542,11007 7443,10907 7343,11007 Z"/>
 <path fill="rgb(255,0,0)" stroke="none" d="M 7382,11007 L 7482,11107 7581,11007 7482,10907 7382,11007 Z"/>
 <path fill="none" stroke="rgb(255,0,0)" stroke-linejoin="round" d="M 7382,11007 L 7482,11107 7581,11007 7482,10907 7382,11007 Z"/>
 <path fill="rgb(255,0,0)" stroke="none" d="M 7421,10099 L 7520,10199 7620,10099 7520,9999 7421,10099 Z"/>
 <path fill="none" stroke="rgb(255,0,0)" stroke-linejoin="round" d="M 7421,10099 L 7520,10199 7620,10099 7520,9999 7421,10099 Z"/>
 <path fill="rgb(255,0,0)" stroke="none" d="M 7460,10746 L 7559,10846 7659,10746 7559,10646 7460,10746 Z"/>
 <path fill="none" stroke="rgb(255,0,0)" stroke-linejoin="round" d="M 7460,10746 L 7559,10846 7659,10746 7559,10646 7460,10746 Z"/>
 <path fill="rgb(255,0,0)" stroke="none" d="M 7499,10717 L 7598,10817 7698,10717 7598,10617 7499,10717 Z"/>
 <path fill="none" stroke="rgb(255,0,0)" stroke-linejoin="round" d="M 7499,10717 L 7598,10817 7698,10717 7598,10617 7499,10717 Z"/>
 <path fill="rgb(255,0,0)" stroke="none" d="M 7537,10609 L 7637,10709 7737,10609 7637,10509 7537,10609 Z"/>
 <path fill="none" stroke="rgb(255,0,0)" stroke-linejoin="round" d="M 7537,10609 L 7637,10709 7737,10609 7637,10509 7537,10609 Z"/>
 <path fill="rgb(255,0,0)" stroke="none" d="M 7576,10566 L 7676,10666 7776,10566 7676,10466 7576,10566 Z"/>
 <path fill="none" stroke="rgb(255,0,0)" stroke-linejoin="round" d="M 7576,10566 L 7676,10666 7776,10566 7676,10466 7576,10566 Z"/>
 <path fill="rgb(255,0,0)" stroke="none" d="M 7615,11007 L 7715,11107 7815,11007 7715,10907 7615,11007 Z"/>
 <path fill="none" stroke="rgb(255,0,0)" stroke-linejoin="round" d="M 7615,11007 L 7715,11107 7815,11007 7715,10907 7615,11007 Z"/>
 <path fill="rgb(255,0,0)" stroke="none" d="M 7654,11007 L 7754,11107 7854,11007 7754,10907 7654,11007 Z"/>
 <path fill="none" stroke="rgb(255,0,0)" stroke-linejoin="round" d="M 7654,11007 L 7754,11107 7854,11007 7754,10907 7654,11007 Z"/>
 <path fill="rgb(255,0,0)" stroke="none" d="M 7692,9790 L 7792,9890 7892,9790 7792,9690 7692,9790 Z"/>
 <path fill="none" stroke="rgb(255,0,0)" stroke-linejoin="round" d="M 7692,9790 L 7792,9890 7892,9790 7792,9690 7692,9790 Z"/>
 <path fill="rgb(255,0,0)" stroke="none" d="M 7731,10185 L 7831,10285 7931,10185 7831,10085 7731,10185 Z"/>
 <path fill="none" stroke="rgb(255,0,0)" stroke-linejoin="round" d="M 7731,10185 L 7831,10285 7931,10185 7831,10085 7731,10185 Z"/>
 <path fill="rgb(255,0,0)" stroke="none" d="M 7770,10585 L 7870,10685 7970,10585 7870,10485 7770,10585 Z"/>
 <path fill="none" stroke="rgb(255,0,0)" stroke-linejoin="round" d="M 7770,10585 L 7870,10685 7970,10585 7870,10485 7770,10585 Z"/>
 <path fill="rgb(255,0,0)" stroke="none" d="M 7809,10424 L 7909,10524 8009,10424 7909,10324 7809,10424 Z"/>
 <path fill="none" stroke="rgb(255,0,0)" stroke-linejoin="round" d="M 7809,10424 L 7909,10524 8009,10424 7909,10324 7809,10424 Z"/>
 <path fill="rgb(255,0,0)" stroke="none" d="M 7848,10364 L 7948,10464 8048,10364 7948,10264 7848,10364 Z"/>
 <path fill="none" stroke="rgb(255,0,0)" stroke-linejoin="round" d="M 7848,10364 L 7948,10464 8048,10364 7948,10264 7848,10364 Z"/>
 <path fill="rgb(255,0,0)" stroke="none" d="M 7887,11007 L 7987,11107 8087,11007 7987,10907 7887,11007 Z"/>
 <path fill="none" stroke="rgb(255,0,0)" stroke-linejoin="round" d="M 7887,11007 L 7987,11107 8087,11007 7987,10907 7887,11007 Z"/>
 <path fill="rgb(255,0,0)" stroke="none" d="M 7926,11007 L 8026,11107 8126,11007 8026,10907 7926,11007 Z"/>
 <path fill="none" stroke="rgb(255,0,0)" stroke-linejoin="round" d="M 7926,11007 L 8026,11107 8126,11007 8026,10907 7926,11007 Z"/>
 <path fill="rgb(255,0,0)" stroke="none" d="M 7965,9778 L 8065,9878 8165,9778 8065,9678 7965,9778 Z"/>
 <path fill="none" stroke="rgb(255,0,0)" stroke-linejoin="round" d="M 7965,9778 L 8065,9878 8165,9778 8065,9678 7965,9778 Z"/>
 <path fill="rgb(255,0,0)" stroke="none" d="M 8004,10489 L 8104,10589 8204,10489 8104,10389 8004,10489 Z"/>
 <path fill="none" stroke="rgb(255,0,0)" stroke-linejoin="round" d="M 8004,10489 L 8104,10589 8204,10489 8104,10389 8004,10489 Z"/>
 <path fill="rgb(255,0,0)" stroke="none" d="M 8043,10554 L 8143,10654 8243,10554 8143,10454 8043,10554 Z"/>
 <path fill="none" stroke="rgb(255,0,0)" stroke-linejoin="round" d="M 8043,10554 L 8143,10654 8243,10554 8143,10454 8043,10554 Z"/>
 <path fill="rgb(255,0,0)" stroke="none" d="M 8082,9930 L 8182,10030 8282,9930 8182,9830 8082,9930 Z"/>
 <path fill="none" stroke="rgb(255,0,0)" stroke-linejoin="round" d="M 8082,9930 L 8182,10030 8282,9930 8182,9830 8082,9930 Z"/>
 <path fill="rgb(255,0,0)" stroke="none" d="M 8121,10225 L 8221,10325 8321,10225 8221,10125 8121,10225 Z"/>
 <path fill="none" stroke="rgb(255,0,0)" stroke-linejoin="round" d="M 8121,10225 L 8221,10325 8321,10225 8221,10125 8121,10225 Z"/>
 <path fill="rgb(255,0,0)" stroke="none" d="M 8160,11007 L 8260,11107 8360,11007 8260,10907 8160,11007 Z"/>
 <path fill="none" stroke="rgb(255,0,0)" stroke-linejoin="round" d="M 8160,11007 L 8260,11107 8360,11007 8260,10907 8160,11007 Z"/>
 <path fill="rgb(255,0,0)" stroke="none" d="M 8198,11007 L 8298,11107 8398,11007 8298,10907 8198,11007 Z"/>
 <path fill="none" stroke="rgb(255,0,0)" stroke-linejoin="round" d="M 8198,11007 L 8298,11107 8398,11007 8298,10907 8198,11007 Z"/>
 <path fill="rgb(255,0,0)" stroke="none" d="M 8237,8687 L 8337,8787 8437,8687 8337,8587 8237,8687 Z"/>
 <path fill="none" stroke="rgb(255,0,0)" stroke-linejoin="round" d="M 8237,8687 L 8337,8787 8437,8687 8337,8587 8237,8687 Z"/>
 <path fill="rgb(255,0,0)" stroke="none" d="M 8276,10277 L 8376,10377 8476,10277 8376,10177 8276,10277 Z"/>
 <path fill="none" stroke="rgb(255,0,0)" stroke-linejoin="round" d="M 8276,10277 L 8376,10377 8476,10277 8376,10177 8276,10277 Z"/>
 <path fill="rgb(255,0,0)" stroke="none" d="M 8315,10055 L 8415,10155 8515,10055 8415,9955 8315,10055 Z"/>
 <path fill="none" stroke="rgb(255,0,0)" stroke-linejoin="round" d="M 8315,10055 L 8415,10155 8515,10055 8415,9955 8315,10055 Z"/>
 <path fill="rgb(255,0,0)" stroke="none" d="M 8354,10003 L 8454,10103 8554,10003 8454,9903 8354,10003 Z"/>
 <path fill="none" stroke="rgb(255,0,0)" stroke-linejoin="round" d="M 8354,10003 L 8454,10103 8554,10003 8454,9903 8354,10003 Z"/>
 <path fill="rgb(255,0,0)" stroke="none" d="M 8393,9845 L 8493,9945 8593,9845 8493,9745 8393,9845 Z"/>
 <path fill="none" stroke="rgb(255,0,0)" stroke-linejoin="round" d="M 8393,9845 L 8493,9945 8593,9845 8493,9745 8393,9845 Z"/>
 <path fill="rgb(255,0,0)" stroke="none" d="M 8432,11007 L 8532,11107 8632,11007 8532,10907 8432,11007 Z"/>
 <path fill="none" stroke="rgb(255,0,0)" stroke-linejoin="round" d="M 8432,11007 L 8532,11107 8632,11007 8532,10907 8432,11007 Z"/>
 <path fill="rgb(255,0,0)" stroke="none" d="M 8471,11007 L 8571,11107 8671,11007 8571,10907 8471,11007 Z"/>
 <path fill="none" stroke="rgb(255,0,0)" stroke-linejoin="round" d="M 8471,11007 L 8571,11107 8671,11007 8571,10907 8471,11007 Z"/>
 <path fill="rgb(255,0,0)" stroke="none" d="M 8510,8243 L 8610,8343 8710,8243 8610,8143 8510,8243 Z"/>
 <path fill="none" stroke="rgb(255,0,0)" stroke-linejoin="round" d="M 8510,8243 L 8610,8343 8710,8243 8610,8143 8510,8243 Z"/>
 <path fill="rgb(255,0,0)" stroke="none" d="M 8549,9992 L 8649,10092 8749,9992 8649,9892 8549,9992 Z"/>
 <path fill="none" stroke="rgb(255,0,0)" stroke-linejoin="round" d="M 8549,9992 L 8649,10092 8749,9992 8649,9892 8549,9992 Z"/>
 <path fill="rgb(255,0,0)" stroke="none" d="M 8588,9966 L 8688,10066 8788,9966 8688,9866 8588,9966 Z"/>
 <path fill="none" stroke="rgb(255,0,0)" stroke-linejoin="round" d="M 8588,9966 L 8688,10066 8788,9966 8688,9866 8588,9966 Z"/>
 <path fill="rgb(255,0,0)" stroke="none" d="M 8627,9629 L 8727,9729 8827,9629 8727,9529 8627,9629 Z"/>
 <path fill="none" stroke="rgb(255,0,0)" stroke-linejoin="round" d="M 8627,9629 L 8727,9729 8827,9629 8727,9529 8627,9629 Z"/>
 <path fill="rgb(255,0,0)" stroke="none" d="M 8666,9612 L 8766,9712 8866,9612 8766,9512 8666,9612 Z"/>
 <path fill="none" stroke="rgb(255,0,0)" stroke-linejoin="round" d="M 8666,9612 L 8766,9712 8866,9612 8766,9512 8666,9612 Z"/>
 <path fill="rgb(255,0,0)" stroke="none" d="M 8705,11007 L 8805,11107 8905,11007 8805,10907 8705,11007 Z"/>
 <path fill="none" stroke="rgb(255,0,0)" stroke-linejoin="round" d="M 8705,11007 L 8805,11107 8905,11007 8805,10907 8705,11007 Z"/>
 <path fill="rgb(255,0,0)" stroke="none" d="M 8743,11007 L 8843,11107 8943,11007 8843,10907 8743,11007 Z"/>
 <path fill="none" stroke="rgb(255,0,0)" stroke-linejoin="round" d="M 8743,11007 L 8843,11107 8943,11007 8843,10907 8743,11007 Z"/>
 <path fill="rgb(255,0,0)" stroke="none" d="M 8782,7645 L 8882,7745 8982,7645 8882,7545 8782,7645 Z"/>
 <path fill="none" stroke="rgb(255,0,0)" stroke-linejoin="round" d="M 8782,7645 L 8882,7745 8982,7645 8882,7545 8782,7645 Z"/>
 <path fill="rgb(255,0,0)" stroke="none" d="M 8821,9849 L 8921,9949 9021,9849 8921,9749 8821,9849 Z"/>
 <path fill="none" stroke="rgb(255,0,0)" stroke-linejoin="round" d="M 8821,9849 L 8921,9949 9021,9849 8921,9749 8821,9849 Z"/>
 <path fill="rgb(255,0,0)" stroke="none" d="M 8860,9783 L 8960,9883 9060,9783 8960,9683 8860,9783 Z"/>
 <path fill="none" stroke="rgb(255,0,0)" stroke-linejoin="round" d="M 8860,9783 L 8960,9883 9060,9783 8960,9683 8860,9783 Z"/>
 <path fill="rgb(255,0,0)" stroke="none" d="M 8899,9729 L 8999,9829 9099,9729 8999,9629 8899,9729 Z"/>
 <path fill="none" stroke="rgb(255,0,0)" stroke-linejoin="round" d="M 8899,9729 L 8999,9829 9099,9729 8999,9629 8899,9729 Z"/>
 <path fill="rgb(255,0,0)" stroke="none" d="M 8938,9513 L 9038,9613 9138,9513 9038,9413 8938,9513 Z"/>
 <path fill="none" stroke="rgb(255,0,0)" stroke-linejoin="round" d="M 8938,9513 L 9038,9613 9138,9513 9038,9413 8938,9513 Z"/>
 <path fill="rgb(255,0,0)" stroke="none" d="M 8977,11007 L 9077,11107 9177,11007 9077,10907 8977,11007 Z"/>
 <path fill="none" stroke="rgb(255,0,0)" stroke-linejoin="round" d="M 8977,11007 L 9077,11107 9177,11007 9077,10907 8977,11007 Z"/>
 <path fill="rgb(255,0,0)" stroke="none" d="M 9016,11007 L 9116,11107 9216,11007 9116,10907 9016,11007 Z"/>
 <path fill="none" stroke="rgb(255,0,0)" stroke-linejoin="round" d="M 9016,11007 L 9116,11107 9216,11007 9116,10907 9016,11007 Z"/>
 <path fill="rgb(255,0,0)" stroke="none" d="M 9055,7219 L 9155,7319 9255,7219 9155,7119 9055,7219 Z"/>
 <path fill="none" stroke="rgb(255,0,0)" stroke-linejoin="round" d="M 9055,7219 L 9155,7319 9255,7219 9155,7119 9055,7219 Z"/>
 <path fill="rgb(255,0,0)" stroke="none" d="M 9094,9728 L 9194,9828 9294,9728 9194,9628 9094,9728 Z"/>
 <path fill="none" stroke="rgb(255,0,0)" stroke-linejoin="round" d="M 9094,9728 L 9194,9828 9294,9728 9194,9628 9094,9728 Z"/>
 <path fill="rgb(255,0,0)" stroke="none" d="M 9133,9742 L 9233,9842 9333,9742 9233,9642 9133,9742 Z"/>
 <path fill="none" stroke="rgb(255,0,0)" stroke-linejoin="round" d="M 9133,9742 L 9233,9842 9333,9742 9233,9642 9133,9742 Z"/>
 <path fill="rgb(255,0,0)" stroke="none" d="M 9172,9472 L 9272,9572 9372,9472 9272,9372 9172,9472 Z"/>
 <path fill="none" stroke="rgb(255,0,0)" stroke-linejoin="round" d="M 9172,9472 L 9272,9572 9372,9472 9272,9372 9172,9472 Z"/>
 <path fill="rgb(255,0,0)" stroke="none" d="M 9211,9269 L 9311,9369 9411,9269 9311,9169 9211,9269 Z"/>
 <path fill="none" stroke="rgb(255,0,0)" stroke-linejoin="round" d="M 9211,9269 L 9311,9369 9411,9269 9311,9169 9211,9269 Z"/>
 <path fill="rgb(255,0,0)" stroke="none" d="M 9250,11007 L 9350,11107 9450,11007 9350,10907 9250,11007 Z"/>
 <path fill="none" stroke="rgb(255,0,0)" stroke-linejoin="round" d="M 9250,11007 L 9350,11107 9450,11007 9350,10907 9250,11007 Z"/>
 <path fill="rgb(255,0,0)" stroke="none" d="M 9288,11007 L 9388,11107 9488,11007 9388,10907 9288,11007 Z"/>
 <path fill="none" stroke="rgb(255,0,0)" stroke-linejoin="round" d="M 9288,11007 L 9388,11107 9488,11007 9388,10907 9288,11007 Z"/>
 <path fill="rgb(255,0,0)" stroke="none" d="M 9327,7099 L 9427,7199 9527,7099 9427,6999 9327,7099 Z"/>
 <path fill="none" stroke="rgb(255,0,0)" stroke-linejoin="round" d="M 9327,7099 L 9427,7199 9527,7099 9427,6999 9327,7099 Z"/>
 <path fill="rgb(255,0,0)" stroke="none" d="M 9366,9661 L 9466,9761 9566,9661 9466,9561 9366,9661 Z"/>
 <path fill="none" stroke="rgb(255,0,0)" stroke-linejoin="round" d="M 9366,9661 L 9466,9761 9566,9661 9466,9561 9366,9661 Z"/>
 <path fill="rgb(255,0,0)" stroke="none" d="M 9405,9410 L 9505,9510 9605,9410 9505,9310 9405,9410 Z"/>
 <path fill="none" stroke="rgb(255,0,0)" stroke-linejoin="round" d="M 9405,9410 L 9505,9510 9605,9410 9505,9310 9405,9410 Z"/>
 <path fill="rgb(255,0,0)" stroke="none" d="M 9444,9396 L 9544,9496 9644,9396 9544,9296 9444,9396 Z"/>
 <path fill="none" stroke="rgb(255,0,0)" stroke-linejoin="round" d="M 9444,9396 L 9544,9496 9644,9396 9544,9296 9444,9396 Z"/>
 <path fill="rgb(255,0,0)" stroke="none" d="M 9483,8955 L 9583,9055 9683,8955 9583,8855 9483,8955 Z"/>
 <path fill="none" stroke="rgb(255,0,0)" stroke-linejoin="round" d="M 9483,8955 L 9583,9055 9683,8955 9583,8855 9483,8955 Z"/>
 <path fill="rgb(255,0,0)" stroke="none" d="M 9522,11007 L 9622,11107 9722,11007 9622,10907 9522,11007 Z"/>
 <path fill="none" stroke="rgb(255,0,0)" stroke-linejoin="round" d="M 9522,11007 L 9622,11107 9722,11007 9622,10907 9522,11007 Z"/>
 <path fill="rgb(255,0,0)" stroke="none" d="M 9561,11007 L 9661,11107 9761,11007 9661,10907 9561,11007 Z"/>
 <path fill="none" stroke="rgb(255,0,0)" stroke-linejoin="round" d="M 9561,11007 L 9661,11107 9761,11007 9661,10907 9561,11007 Z"/>
 <path fill="rgb(255,0,0)" stroke="none" d="M 9600,6525 L 9700,6625 9800,6525 9700,6425 9600,6525 Z"/>
 <path fill="none" stroke="rgb(255,0,0)" stroke-linejoin="round" d="M 9600,6525 L 9700,6625 9800,6525 9700,6425 9600,6525 Z"/>
 <path fill="rgb(255,0,0)" stroke="none" d="M 9639,9467 L 9739,9567 9839,9467 9739,9367 9639,9467 Z"/>
 <path fill="none" stroke="rgb(255,0,0)" stroke-linejoin="round" d="M 9639,9467 L 9739,9567 9839,9467 9739,9367 9639,9467 Z"/>
 <path fill="rgb(255,0,0)" stroke="none" d="M 9678,9397 L 9778,9497 9878,9397 9778,9297 9678,9397 Z"/>
 <path fill="none" stroke="rgb(255,0,0)" stroke-linejoin="round" d="M 9678,9397 L 9778,9497 9878,9397 9778,9297 9678,9397 Z"/>
 <path fill="rgb(255,0,0)" stroke="none" d="M 9717,9487 L 9817,9587 9917,9487 9817,9387 9717,9487 Z"/>
 <path fill="none" stroke="rgb(255,0,0)" stroke-linejoin="round" d="M 9717,9487 L 9817,9587 9917,9487 9817,9387 9717,9487 Z"/>
 <path fill="rgb(255,0,0)" stroke="none" d="M 9756,9257 L 9856,9357 9956,9257 9856,9157 9756,9257 Z"/>
 <path fill="none" stroke="rgb(255,0,0)" stroke-linejoin="round" d="M 9756,9257 L 9856,9357 9956,9257 9856,9157 9756,9257 Z"/>
 <path fill="rgb(255,0,0)" stroke="none" d="M 9794,11007 L 9894,11107 9994,11007 9894,10907 9794,11007 Z"/>
 <path fill="none" stroke="rgb(255,0,0)" stroke-linejoin="round" d="M 9794,11007 L 9894,11107 9994,11007 9894,10907 9794,11007 Z"/>
 <path fill="rgb(255,0,0)" stroke="none" d="M 9833,11007 L 9933,11107 10033,11007 9933,10907 9833,11007 Z"/>
 <path fill="none" stroke="rgb(255,0,0)" stroke-linejoin="round" d="M 9833,11007 L 9933,11107 10033,11007 9933,10907 9833,11007 Z"/>
 <path fill="rgb(255,0,0)" stroke="none" d="M 9872,6474 L 9972,6574 10072,6474 9972,6374 9872,6474 Z"/>
 <path fill="none" stroke="rgb(255,0,0)" stroke-linejoin="round" d="M 9872,6474 L 9972,6574 10072,6474 9972,6374 9872,6474 Z"/>
 <path fill="rgb(255,0,0)" stroke="none" d="M 9911,9594 L 10011,9694 10111,9594 10011,9494 9911,9594 Z"/>
 <path fill="none" stroke="rgb(255,0,0)" stroke-linejoin="round" d="M 9911,9594 L 10011,9694 10111,9594 10011,9494 9911,9594 Z"/>
 <path fill="rgb(255,0,0)" stroke="none" d="M 9950,9436 L 10050,9536 10150,9436 10050,9336 9950,9436 Z"/>
 <path fill="none" stroke="rgb(255,0,0)" stroke-linejoin="round" d="M 9950,9436 L 10050,9536 10150,9436 10050,9336 9950,9436 Z"/>
 <path fill="rgb(255,0,0)" stroke="none" d="M 9989,9663 L 10089,9763 10189,9663 10089,9563 9989,9663 Z"/>
 <path fill="none" stroke="rgb(255,0,0)" stroke-linejoin="round" d="M 9989,9663 L 10089,9763 10189,9663 10089,9563 9989,9663 Z"/>
 <path fill="rgb(255,0,0)" stroke="none" d="M 10028,9392 L 10128,9492 10228,9392 10128,9292 10028,9392 Z"/>
 <path fill="none" stroke="rgb(255,0,0)" stroke-linejoin="round" d="M 10028,9392 L 10128,9492 10228,9392 10128,9292 10028,9392 Z"/>
 <path fill="rgb(255,0,0)" stroke="none" d="M 10067,11007 L 10167,11107 10267,11007 10167,10907 10067,11007 Z"/>
 <path fill="none" stroke="rgb(255,0,0)" stroke-linejoin="round" d="M 10067,11007 L 10167,11107 10267,11007 10167,10907 10067,11007 Z"/>
 <path fill="rgb(255,0,0)" stroke="none" d="M 10106,11007 L 10206,11107 10306,11007 10206,10907 10106,11007 Z"/>
 <path fill="none" stroke="rgb(255,0,0)" stroke-linejoin="round" d="M 10106,11007 L 10206,11107 10306,11007 10206,10907 10106,11007 Z"/>
 <path fill="rgb(255,0,0)" stroke="none" d="M 10145,7658 L 10245,7758 10345,7658 10245,7558 10145,7658 Z"/>
 <path fill="none" stroke="rgb(255,0,0)" stroke-linejoin="round" d="M 10145,7658 L 10245,7758 10345,7658 10245,7558 10145,7658 Z"/>
 <path fill="rgb(255,0,0)" stroke="none" d="M 10184,9296 L 10284,9396 10384,9296 10284,9196 10184,9296 Z"/>
 <path fill="none" stroke="rgb(255,0,0)" stroke-linejoin="round" d="M 10184,9296 L 10284,9396 10384,9296 10284,9196 10184,9296 Z"/>
 <path fill="rgb(255,0,0)" stroke="none" d="M 10223,9510 L 10323,9610 10423,9510 10323,9410 10223,9510 Z"/>
 <path fill="none" stroke="rgb(255,0,0)" stroke-linejoin="round" d="M 10223,9510 L 10323,9610 10423,9510 10323,9410 10223,9510 Z"/>
 <path fill="rgb(255,0,0)" stroke="none" d="M 10262,9235 L 10362,9335 10462,9235 10362,9135 10262,9235 Z"/>
 <path fill="none" stroke="rgb(255,0,0)" stroke-linejoin="round" d="M 10262,9235 L 10362,9335 10462,9235 10362,9135 10262,9235 Z"/>
 <path fill="rgb(255,0,0)" stroke="none" d="M 10301,9183 L 10401,9283 10501,9183 10401,9083 10301,9183 Z"/>
 <path fill="none" stroke="rgb(255,0,0)" stroke-linejoin="round" d="M 10301,9183 L 10401,9283 10501,9183 10401,9083 10301,9183 Z"/>
 <path fill="rgb(255,0,0)" stroke="none" d="M 10339,11007 L 10439,11107 10539,11007 10439,10907 10339,11007 Z"/>
 <path fill="none" stroke="rgb(255,0,0)" stroke-linejoin="round" d="M 10339,11007 L 10439,11107 10539,11007 10439,10907 10339,11007 Z"/>
 <path fill="rgb(255,0,0)" stroke="none" d="M 10378,11007 L 10478,11107 10578,11007 10478,10907 10378,11007 Z"/>
 <path fill="none" stroke="rgb(255,0,0)" stroke-linejoin="round" d="M 10378,11007 L 10478,11107 10578,11007 10478,10907 10378,11007 Z"/>
 <path fill="rgb(255,0,0)" stroke="none" d="M 10417,7034 L 10517,7134 10617,7034 10517,6934 10417,7034 Z"/>
 <path fill="none" stroke="rgb(255,0,0)" stroke-linejoin="round" d="M 10417,7034 L 10517,7134 10617,7034 10517,6934 10417,7034 Z"/>
 <path fill="rgb(255,0,0)" stroke="none" d="M 10456,9991 L 10556,10091 10656,9991 10556,9891 10456,9991 Z"/>
 <path fill="none" stroke="rgb(255,0,0)" stroke-linejoin="round" d="M 10456,9991 L 10556,10091 10656,9991 10556,9891 10456,9991 Z"/>
 <path fill="rgb(255,0,0)" stroke="none" d="M 10495,9300 L 10595,9400 10695,9300 10595,9200 10495,9300 Z"/>
 <path fill="none" stroke="rgb(255,0,0)" stroke-linejoin="round" d="M 10495,9300 L 10595,9400 10695,9300 10595,9200 10495,9300 Z"/>
 <path fill="rgb(255,0,0)" stroke="none" d="M 10534,9107 L 10634,9207 10734,9107 10634,9007 10534,9107 Z"/>
 <path fill="none" stroke="rgb(255,0,0)" stroke-linejoin="round" d="M 10534,9107 L 10634,9207 10734,9107 10634,9007 10534,9107 Z"/>
 <path fill="rgb(255,0,0)" stroke="none" d="M 10573,8841 L 10673,8941 10773,8841 10673,8741 10573,8841 Z"/>
 <path fill="none" stroke="rgb(255,0,0)" stroke-linejoin="round" d="M 10573,8841 L 10673,8941 10773,8841 10673,8741 10573,8841 Z"/>
 <path fill="rgb(255,0,0)" stroke="none" d="M 10612,11007 L 10712,11107 10812,11007 10712,10907 10612,11007 Z"/>
 <path fill="none" stroke="rgb(255,0,0)" stroke-linejoin="round" d="M 10612,11007 L 10712,11107 10812,11007 10712,10907 10612,11007 Z"/>
 <path fill="rgb(255,0,0)" stroke="none" d="M 10651,11007 L 10751,11107 10851,11007 10751,10907 10651,11007 Z"/>
 <path fill="none" stroke="rgb(255,0,0)" stroke-linejoin="round" d="M 10651,11007 L 10751,11107 10851,11007 10751,10907 10651,11007 Z"/>
 <path fill="rgb(255,0,0)" stroke="none" d="M 10690,5605 L 10790,5705 10890,5605 10790,5505 10690,5605 Z"/>
 <path fill="none" stroke="rgb(255,0,0)" stroke-linejoin="round" d="M 10690,5605 L 10790,5705 10890,5605 10790,5505 10690,5605 Z"/>
 <path fill="rgb(255,0,0)" stroke="none" d="M 10729,9028 L 10829,9128 10929,9028 10829,8928 10729,9028 Z"/>
 <path fill="none" stroke="rgb(255,0,0)" stroke-linejoin="round" d="M 10729,9028 L 10829,9128 10929,9028 10829,8928 10729,9028 Z"/>
 <path fill="rgb(255,0,0)" stroke="none" d="M 10768,8586 L 10868,8686 10968,8586 10868,8486 10768,8586 Z"/>
 <path fill="none" stroke="rgb(255,0,0)" stroke-linejoin="round" d="M 10768,8586 L 10868,8686 10968,8586 10868,8486 10768,8586 Z"/>
 <path fill="rgb(255,0,0)" stroke="none" d="M 10807,8014 L 10907,8114 11007,8014 10907,7914 10807,8014 Z"/>
 <path fill="none" stroke="rgb(255,0,0)" stroke-linejoin="round" d="M 10807,8014 L 10907,8114 11007,8014 10907,7914 10807,8014 Z"/>
 <path fill="rgb(255,0,0)" stroke="none" d="M 10846,8176 L 10946,8276 11046,8176 10946,8076 10846,8176 Z"/>
 <path fill="none" stroke="rgb(255,0,0)" stroke-linejoin="round" d="M 10846,8176 L 10946,8276 11046,8176 10946,8076 10846,8176 Z"/>
 <path fill="rgb(255,0,0)" stroke="none" d="M 10884,11007 L 10984,11107 11084,11007 10984,10907 10884,11007 Z"/>
 <path fill="none" stroke="rgb(255,0,0)" stroke-linejoin="round" d="M 10884,11007 L 10984,11107 11084,11007 10984,10907 10884,11007 Z"/>
 <path fill="rgb(255,0,0)" stroke="none" d="M 10923,11007 L 11023,11107 11123,11007 11023,10907 10923,11007 Z"/>
 <path fill="none" stroke="rgb(255,0,0)" stroke-linejoin="round" d="M 10923,11007 L 11023,11107 11123,11007 11023,10907 10923,11007 Z"/>
 <path fill="rgb(255,0,0)" stroke="none" d="M 10962,3565 L 11062,3665 11162,3565 11062,3465 10962,3565 Z"/>
 <path fill="none" stroke="rgb(255,0,0)" stroke-linejoin="round" d="M 10962,3565 L 11062,3665 11162,3565 11062,3465 10962,3565 Z"/>
 <path fill="rgb(255,0,0)" stroke="none" d="M 11001,8380 L 11101,8480 11201,8380 11101,8280 11001,8380 Z"/>
 <path fill="none" stroke="rgb(255,0,0)" stroke-linejoin="round" d="M 11001,8380 L 11101,8480 11201,8380 11101,8280 11001,8380 Z"/>
 <path fill="rgb(255,0,0)" stroke="none" d="M 11040,8188 L 11140,8288 11240,8188 11140,8088 11040,8188 Z"/>
 <path fill="none" stroke="rgb(255,0,0)" stroke-linejoin="round" d="M 11040,8188 L 11140,8288 11240,8188 11140,8088 11040,8188 Z"/>
 <path fill="rgb(255,0,0)" stroke="none" d="M 11079,7644 L 11179,7744 11279,7644 11179,7544 11079,7644 Z"/>
 <path fill="none" stroke="rgb(255,0,0)" stroke-linejoin="round" d="M 11079,7644 L 11179,7744 11279,7644 11179,7544 11079,7644 Z"/>
 <path fill="rgb(255,0,0)" stroke="none" d="M 11118,7357 L 11218,7457 11318,7357 11218,7257 11118,7357 Z"/>
 <path fill="none" stroke="rgb(255,0,0)" stroke-linejoin="round" d="M 11118,7357 L 11218,7457 11318,7357 11218,7257 11118,7357 Z"/>
 <path fill="rgb(255,0,0)" stroke="none" d="M 11157,11007 L 11257,11107 11357,11007 11257,10907 11157,11007 Z"/>
 <path fill="none" stroke="rgb(255,0,0)" stroke-linejoin="round" d="M 11157,11007 L 11257,11107 11357,11007 11257,10907 11157,11007 Z"/>
 <path fill="rgb(255,0,0)" stroke="none" d="M 11196,11007 L 11296,11107 11396,11007 11296,10907 11196,11007 Z"/>
 <path fill="none" stroke="rgb(255,0,0)" stroke-linejoin="round" d="M 11196,11007 L 11296,11107 11396,11007 11296,10907 11196,11007 Z"/>
 <path fill="rgb(255,0,0)" stroke="none" d="M 11235,3162 L 11335,3262 11435,3162 11335,3062 11235,3162 Z"/>
 <path fill="none" stroke="rgb(255,0,0)" stroke-linejoin="round" d="M 11235,3162 L 11335,3262 11435,3162 11335,3062 11235,3162 Z"/>
 <path fill="rgb(255,0,0)" stroke="none" d="M 11274,8344 L 11374,8444 11474,8344 11374,8244 11274,8344 Z"/>
 <path fill="none" stroke="rgb(255,0,0)" stroke-linejoin="round" d="M 11274,8344 L 11374,8444 11474,8344 11374,8244 11274,8344 Z"/>
 <path fill="rgb(255,0,0)" stroke="none" d="M 11313,7436 L 11413,7536 11513,7436 11413,7336 11313,7436 Z"/>
 <path fill="none" stroke="rgb(255,0,0)" stroke-linejoin="round" d="M 11313,7436 L 11413,7536 11513,7436 11413,7336 11313,7436 Z"/>
 <path fill="rgb(255,0,0)" stroke="none" d="M 11352,7882 L 11452,7982 11552,7882 11452,7782 11352,7882 Z"/>
 <path fill="none" stroke="rgb(255,0,0)" stroke-linejoin="round" d="M 11352,7882 L 11452,7982 11552,7882 11452,7782 11352,7882 Z"/>
 <path fill="rgb(255,0,0)" stroke="none" d="M 11390,7796 L 11490,7896 11590,7796 11490,7696 11390,7796 Z"/>
 <path fill="none" stroke="rgb(255,0,0)" stroke-linejoin="round" d="M 11390,7796 L 11490,7896 11590,7796 11490,7696 11390,7796 Z"/>
 <path fill="rgb(255,0,0)" stroke="none" d="M 11429,11007 L 11529,11107 11629,11007 11529,10907 11429,11007 Z"/>
 <path fill="none" stroke="rgb(255,0,0)" stroke-linejoin="round" d="M 11429,11007 L 11529,11107 11629,11007 11529,10907 11429,11007 Z"/>
 <path fill="rgb(255,0,0)" stroke="none" d="M 11468,11007 L 11568,11107 11668,11007 11568,10907 11468,11007 Z"/>
 <path fill="none" stroke="rgb(255,0,0)" stroke-linejoin="round" d="M 11468,11007 L 11568,11107 11668,11007 11568,10907 11468,11007 Z"/>
 <path fill="rgb(255,0,0)" stroke="none" d="M 11507,3537 L 11607,3637 11707,3537 11607,3437 11507,3537 Z"/>
 <path fill="none" stroke="rgb(255,0,0)" stroke-linejoin="round" d="M 11507,3537 L 11607,3637 11707,3537 11607,3437 11507,3537 Z"/>
 <path fill="rgb(255,0,0)" stroke="none" d="M 11546,8526 L 11646,8626 11746,8526 11646,8426 11546,8526 Z"/>
 <path fill="none" stroke="rgb(255,0,0)" stroke-linejoin="round" d="M 11546,8526 L 11646,8626 11746,8526 11646,8426 11546,8526 Z"/>
 <path fill="rgb(255,0,0)" stroke="none" d="M 11585,8283 L 11685,8383 11785,8283 11685,8183 11585,8283 Z"/>
 <path fill="none" stroke="rgb(255,0,0)" stroke-linejoin="round" d="M 11585,8283 L 11685,8383 11785,8283 11685,8183 11585,8283 Z"/>
 <path fill="rgb(255,0,0)" stroke="none" d="M 11624,8224 L 11724,8324 11824,8224 11724,8124 11624,8224 Z"/>
 <path fill="none" stroke="rgb(255,0,0)" stroke-linejoin="round" d="M 11624,8224 L 11724,8324 11824,8224 11724,8124 11624,8224 Z"/>
 <path fill="rgb(255,0,0)" stroke="none" d="M 11663,7959 L 11763,8059 11863,7959 11763,7859 11663,7959 Z"/>
 <path fill="none" stroke="rgb(255,0,0)" stroke-linejoin="round" d="M 11663,7959 L 11763,8059 11863,7959 11763,7859 11663,7959 Z"/>
 <path fill="rgb(255,0,0)" stroke="none" d="M 11702,11007 L 11802,11107 11902,11007 11802,10907 11702,11007 Z"/>
 <path fill="none" stroke="rgb(255,0,0)" stroke-linejoin="round" d="M 11702,11007 L 11802,11107 11902,11007 11802,10907 11702,11007 Z"/>
 <path fill="rgb(255,0,0)" stroke="none" d="M 11741,11007 L 11841,11107 11941,11007 11841,10907 11741,11007 Z"/>
 <path fill="none" stroke="rgb(255,0,0)" stroke-linejoin="round" d="M 11741,11007 L 11841,11107 11941,11007 11841,10907 11741,11007 Z"/>
 <path fill="rgb(255,0,0)" stroke="none" d="M 11780,5550 L 11880,5650 11980,5550 11880,5450 11780,5550 Z"/>
 <path fill="none" stroke="rgb(255,0,0)" stroke-linejoin="round" d="M 11780,5550 L 11880,5650 11980,5550 11880,5450 11780,5550 Z"/>
 <path fill="rgb(255,0,0)" stroke="none" d="M 11819,9130 L 11919,9230 12019,9130 11919,9030 11819,9130 Z"/>
 <path fill="none" stroke="rgb(255,0,0)" stroke-linejoin="round" d="M 11819,9130 L 11919,9230 12019,9130 11919,9030 11819,9130 Z"/>
 <path fill="rgb(255,0,0)" stroke="none" d="M 11858,8822 L 11958,8922 12058,8822 11958,8722 11858,8822 Z"/>
 <path fill="none" stroke="rgb(255,0,0)" stroke-linejoin="round" d="M 11858,8822 L 11958,8922 12058,8822 11958,8722 11858,8822 Z"/>
 <path fill="rgb(255,0,0)" stroke="none" d="M 11897,8692 L 11997,8792 12097,8692 11997,8592 11897,8692 Z"/>
 <path fill="none" stroke="rgb(255,0,0)" stroke-linejoin="round" d="M 11897,8692 L 11997,8792 12097,8692 11997,8592 11897,8692 Z"/>
 <path fill="rgb(255,0,0)" stroke="none" d="M 11935,8845 L 12035,8945 12135,8845 12035,8745 11935,8845 Z"/>
 <path fill="none" stroke="rgb(255,0,0)" stroke-linejoin="round" d="M 11935,8845 L 12035,8945 12135,8845 12035,8745 11935,8845 Z"/>
 <path fill="rgb(255,0,0)" stroke="none" d="M 11974,11007 L 12074,11107 12174,11007 12074,10907 11974,11007 Z"/>
 <path fill="none" stroke="rgb(255,0,0)" stroke-linejoin="round" d="M 11974,11007 L 12074,11107 12174,11007 12074,10907 11974,11007 Z"/>
 <path fill="rgb(255,0,0)" stroke="none" d="M 12013,11007 L 12113,11107 12213,11007 12113,10907 12013,11007 Z"/>
 <path fill="none" stroke="rgb(255,0,0)" stroke-linejoin="round" d="M 12013,11007 L 12113,11107 12213,11007 12113,10907 12013,11007 Z"/>
 <path fill="rgb(255,0,0)" stroke="none" d="M 12052,7315 L 12152,7415 12252,7315 12152,7215 12052,7315 Z"/>
 <path fill="none" stroke="rgb(255,0,0)" stroke-linejoin="round" d="M 12052,7315 L 12152,7415 12252,7315 12152,7215 12052,7315 Z"/>
 <path fill="rgb(255,0,0)" stroke="none" d="M 12091,9263 L 12191,9363 12291,9263 12191,9163 12091,9263 Z"/>
 <path fill="none" stroke="rgb(255,0,0)" stroke-linejoin="round" d="M 12091,9263 L 12191,9363 12291,9263 12191,9163 12091,9263 Z"/>
 <path fill="rgb(255,0,0)" stroke="none" d="M 12130,9549 L 12230,9649 12330,9549 12230,9449 12130,9549 Z"/>
 <path fill="none" stroke="rgb(255,0,0)" stroke-linejoin="round" d="M 12130,9549 L 12230,9649 12330,9549 12230,9449 12130,9549 Z"/>
 <path fill="rgb(255,0,0)" stroke="none" d="M 12169,9254 L 12269,9354 12369,9254 12269,9154 12169,9254 Z"/>
 <path fill="none" stroke="rgb(255,0,0)" stroke-linejoin="round" d="M 12169,9254 L 12269,9354 12369,9254 12269,9154 12169,9254 Z"/>
 <path fill="rgb(255,0,0)" stroke="none" d="M 12208,9459 L 12308,9559 12408,9459 12308,9359 12208,9459 Z"/>
 <path fill="none" stroke="rgb(255,0,0)" stroke-linejoin="round" d="M 12208,9459 L 12308,9559 12408,9459 12308,9359 12208,9459 Z"/>
 <path fill="rgb(255,0,0)" stroke="none" d="M 12247,11007 L 12347,11107 12447,11007 12347,10907 12247,11007 Z"/>
 <path fill="none" stroke="rgb(255,0,0)" stroke-linejoin="round" d="M 12247,11007 L 12347,11107 12447,11007 12347,10907 12247,11007 Z"/>
 <path fill="rgb(255,0,0)" stroke="none" d="M 12286,11007 L 12386,11107 12486,11007 12386,10907 12286,11007 Z"/>
 <path fill="none" stroke="rgb(255,0,0)" stroke-linejoin="round" d="M 12286,11007 L 12386,11107 12486,11007 12386,10907 12286,11007 Z"/>
 <path fill="rgb(255,0,0)" stroke="none" d="M 12325,8157 L 12425,8257 12525,8157 12425,8057 12325,8157 Z"/>
 <path fill="none" stroke="rgb(255,0,0)" stroke-linejoin="round" d="M 12325,8157 L 12425,8257 12525,8157 12425,8057 12325,8157 Z"/>
 <path fill="rgb(255,0,0)" stroke="none" d="M 12364,9829 L 12464,9929 12564,9829 12464,9729 12364,9829 Z"/>
 <path fill="none" stroke="rgb(255,0,0)" stroke-linejoin="round" d="M 12364,9829 L 12464,9929 12564,9829 12464,9729 12364,9829 Z"/>
 <path fill="rgb(255,0,0)" stroke="none" d="M 12403,9676 L 12503,9776 12603,9676 12503,9576 12403,9676 Z"/>
 <path fill="none" stroke="rgb(255,0,0)" stroke-linejoin="round" d="M 12403,9676 L 12503,9776 12603,9676 12503,9576 12403,9676 Z"/>
 <path fill="rgb(255,0,0)" stroke="none" d="M 12442,9562 L 12542,9662 12642,9562 12542,9462 12442,9562 Z"/>
 <path fill="none" stroke="rgb(255,0,0)" stroke-linejoin="round" d="M 12442,9562 L 12542,9662 12642,9562 12542,9462 12442,9562 Z"/>
 <path fill="rgb(255,0,0)" stroke="none" d="M 12480,9759 L 12580,9859 12680,9759 12580,9659 12480,9759 Z"/>
 <path fill="none" stroke="rgb(255,0,0)" stroke-linejoin="round" d="M 12480,9759 L 12580,9859 12680,9759 12580,9659 12480,9759 Z"/>
 <path fill="rgb(255,0,0)" stroke="none" d="M 12519,11007 L 12619,11107 12719,11007 12619,10907 12519,11007 Z"/>
 <path fill="none" stroke="rgb(255,0,0)" stroke-linejoin="round" d="M 12519,11007 L 12619,11107 12719,11007 12619,10907 12519,11007 Z"/>
 <path fill="rgb(255,0,0)" stroke="none" d="M 12558,11007 L 12658,11107 12758,11007 12658,10907 12558,11007 Z"/>
 <path fill="none" stroke="rgb(255,0,0)" stroke-linejoin="round" d="M 12558,11007 L 12658,11107 12758,11007 12658,10907 12558,11007 Z"/>
 <path fill="rgb(255,0,0)" stroke="none" d="M 12597,8485 L 12697,8585 12797,8485 12697,8385 12597,8485 Z"/>
 <path fill="none" stroke="rgb(255,0,0)" stroke-linejoin="round" d="M 12597,8485 L 12697,8585 12797,8485 12697,8385 12597,8485 Z"/>
 <path fill="rgb(255,0,0)" stroke="none" d="M 12636,11007 L 12736,11107 12836,11007 12736,10907 12636,11007 Z"/>
 <path fill="none" stroke="rgb(255,0,0)" stroke-linejoin="round" d="M 12636,11007 L 12736,11107 12836,11007 12736,10907 12636,11007 Z"/>
 <path fill="rgb(255,0,0)" stroke="none" d="M 12675,9613 L 12775,9713 12875,9613 12775,9513 12675,9613 Z"/>
 <path fill="none" stroke="rgb(255,0,0)" stroke-linejoin="round" d="M 12675,9613 L 12775,9713 12875,9613 12775,9513 12675,9613 Z"/>
 <path fill="rgb(255,0,0)" stroke="none" d="M 12714,9872 L 12814,9972 12914,9872 12814,9772 12714,9872 Z"/>
 <path fill="none" stroke="rgb(255,0,0)" stroke-linejoin="round" d="M 12714,9872 L 12814,9972 12914,9872 12814,9772 12714,9872 Z"/>
 <path fill="rgb(255,0,0)" stroke="none" d="M 12753,9506 L 12853,9606 12953,9506 12853,9406 12753,9506 Z"/>
 <path fill="none" stroke="rgb(255,0,0)" stroke-linejoin="round" d="M 12753,9506 L 12853,9606 12953,9506 12853,9406 12753,9506 Z"/>
 <path fill="rgb(255,0,0)" stroke="none" d="M 12792,11007 L 12892,11107 12992,11007 12892,10907 12792,11007 Z"/>
 <path fill="none" stroke="rgb(255,0,0)" stroke-linejoin="round" d="M 12792,11007 L 12892,11107 12992,11007 12892,10907 12792,11007 Z"/>
 <path fill="rgb(255,0,0)" stroke="none" d="M 12831,11007 L 12931,11107 13031,11007 12931,10907 12831,11007 Z"/>
 <path fill="none" stroke="rgb(255,0,0)" stroke-linejoin="round" d="M 12831,11007 L 12931,11107 13031,11007 12931,10907 12831,11007 Z"/>
 <path fill="rgb(255,0,0)" stroke="none" d="M 12870,7968 L 12970,8068 13070,7968 12970,7868 12870,7968 Z"/>
 <path fill="none" stroke="rgb(255,0,0)" stroke-linejoin="round" d="M 12870,7968 L 12970,8068 13070,7968 12970,7868 12870,7968 Z"/>
 <path fill="rgb(255,0,0)" stroke="none" d="M 12909,9534 L 13009,9634 13109,9534 13009,9434 12909,9534 Z"/>
 <path fill="none" stroke="rgb(255,0,0)" stroke-linejoin="round" d="M 12909,9534 L 13009,9634 13109,9534 13009,9434 12909,9534 Z"/>
 <path fill="rgb(255,0,0)" stroke="none" d="M 12948,9427 L 13048,9527 13148,9427 13048,9327 12948,9427 Z"/>
 <path fill="none" stroke="rgb(255,0,0)" stroke-linejoin="round" d="M 12948,9427 L 13048,9527 13148,9427 13048,9327 12948,9427 Z"/>
 <path fill="rgb(255,0,0)" stroke="none" d="M 12986,9277 L 13086,9377 13186,9277 13086,9177 12986,9277 Z"/>
 <path fill="none" stroke="rgb(255,0,0)" stroke-linejoin="round" d="M 12986,9277 L 13086,9377 13186,9277 13086,9177 12986,9277 Z"/>
 <path fill="rgb(255,0,0)" stroke="none" d="M 13025,9322 L 13125,9422 13225,9322 13125,9222 13025,9322 Z"/>
 <path fill="none" stroke="rgb(255,0,0)" stroke-linejoin="round" d="M 13025,9322 L 13125,9422 13225,9322 13125,9222 13025,9322 Z"/>
 <path fill="rgb(255,0,0)" stroke="none" d="M 13064,11007 L 13164,11107 13264,11007 13164,10907 13064,11007 Z"/>
 <path fill="none" stroke="rgb(255,0,0)" stroke-linejoin="round" d="M 13064,11007 L 13164,11107 13264,11007 13164,10907 13064,11007 Z"/>
 <path fill="rgb(255,0,0)" stroke="none" d="M 13103,11007 L 13203,11107 13303,11007 13203,10907 13103,11007 Z"/>
 <path fill="none" stroke="rgb(255,0,0)" stroke-linejoin="round" d="M 13103,11007 L 13203,11107 13303,11007 13203,10907 13103,11007 Z"/>
 <path fill="rgb(255,0,0)" stroke="none" d="M 13142,7867 L 13242,7967 13342,7867 13242,7767 13142,7867 Z"/>
 <path fill="none" stroke="rgb(255,0,0)" stroke-linejoin="round" d="M 13142,7867 L 13242,7967 13342,7867 13242,7767 13142,7867 Z"/>
 <path fill="rgb(255,0,0)" stroke="none" d="M 13181,9487 L 13281,9587 13381,9487 13281,9387 13181,9487 Z"/>
 <path fill="none" stroke="rgb(255,0,0)" stroke-linejoin="round" d="M 13181,9487 L 13281,9587 13381,9487 13281,9387 13181,9487 Z"/>
 <path fill="rgb(255,0,0)" stroke="none" d="M 13220,9240 L 13320,9340 13420,9240 13320,9140 13220,9240 Z"/>
 <path fill="none" stroke="rgb(255,0,0)" stroke-linejoin="round" d="M 13220,9240 L 13320,9340 13420,9240 13320,9140 13220,9240 Z"/>
 <path fill="rgb(255,0,0)" stroke="none" d="M 13259,9201 L 13359,9301 13459,9201 13359,9101 13259,9201 Z"/>
 <path fill="none" stroke="rgb(255,0,0)" stroke-linejoin="round" d="M 13259,9201 L 13359,9301 13459,9201 13359,9101 13259,9201 Z"/>
 <path fill="rgb(255,0,0)" stroke="none" d="M 13298,11007 L 13398,11107 13498,11007 13398,10907 13298,11007 Z"/>
 <path fill="none" stroke="rgb(255,0,0)" stroke-linejoin="round" d="M 13298,11007 L 13398,11107 13498,11007 13398,10907 13298,11007 Z"/>
 <path fill="rgb(255,0,0)" stroke="none" d="M 13337,11007 L 13437,11107 13537,11007 13437,10907 13337,11007 Z"/>
 <path fill="none" stroke="rgb(255,0,0)" stroke-linejoin="round" d="M 13337,11007 L 13437,11107 13537,11007 13437,10907 13337,11007 Z"/>
 <path fill="rgb(255,0,0)" stroke="none" d="M 13376,11007 L 13476,11107 13576,11007 13476,10907 13376,11007 Z"/>
 <path fill="none" stroke="rgb(255,0,0)" stroke-linejoin="round" d="M 13376,11007 L 13476,11107 13576,11007 13476,10907 13376,11007 Z"/>
 <path fill="rgb(255,0,0)" stroke="none" d="M 13415,7518 L 13515,7618 13615,7518 13515,7418 13415,7518 Z"/>
 <path fill="none" stroke="rgb(255,0,0)" stroke-linejoin="round" d="M 13415,7518 L 13515,7618 13615,7518 13515,7418 13415,7518 Z"/>
 <path fill="rgb(255,0,0)" stroke="none" d="M 13454,8997 L 13554,9097 13654,8997 13554,8897 13454,8997 Z"/>
 <path fill="none" stroke="rgb(255,0,0)" stroke-linejoin="round" d="M 13454,8997 L 13554,9097 13654,8997 13554,8897 13454,8997 Z"/>
 <path fill="rgb(255,0,0)" stroke="none" d="M 13493,8623 L 13593,8723 13693,8623 13593,8523 13493,8623 Z"/>
 <path fill="none" stroke="rgb(255,0,0)" stroke-linejoin="round" d="M 13493,8623 L 13593,8723 13693,8623 13593,8523 13493,8623 Z"/>
 <path fill="rgb(255,0,0)" stroke="none" d="M 13531,8433 L 13631,8533 13731,8433 13631,8333 13531,8433 Z"/>
 <path fill="none" stroke="rgb(255,0,0)" stroke-linejoin="round" d="M 13531,8433 L 13631,8533 13731,8433 13631,8333 13531,8433 Z"/>
 <path fill="rgb(255,0,0)" stroke="none" d="M 13570,11007 L 13670,11107 13770,11007 13670,10907 13570,11007 Z"/>
 <path fill="none" stroke="rgb(255,0,0)" stroke-linejoin="round" d="M 13570,11007 L 13670,11107 13770,11007 13670,10907 13570,11007 Z"/>
 <path fill="rgb(255,0,0)" stroke="none" d="M 13609,11007 L 13709,11107 13809,11007 13709,10907 13609,11007 Z"/>
 <path fill="none" stroke="rgb(255,0,0)" stroke-linejoin="round" d="M 13609,11007 L 13709,11107 13809,11007 13709,10907 13609,11007 Z"/>
 <path fill="rgb(255,0,0)" stroke="none" d="M 13648,11007 L 13748,11107 13848,11007 13748,10907 13648,11007 Z"/>
 <path fill="none" stroke="rgb(255,0,0)" stroke-linejoin="round" d="M 13648,11007 L 13748,11107 13848,11007 13748,10907 13648,11007 Z"/>
 <path fill="rgb(255,0,0)" stroke="none" d="M 13687,6646 L 13787,6746 13887,6646 13787,6546 13687,6646 Z"/>
 <path fill="none" stroke="rgb(255,0,0)" stroke-linejoin="round" d="M 13687,6646 L 13787,6746 13887,6646 13787,6546 13687,6646 Z"/>
 <path fill="rgb(255,0,0)" stroke="none" d="M 13726,7627 L 13826,7727 13926,7627 13826,7527 13726,7627 Z"/>
 <path fill="none" stroke="rgb(255,0,0)" stroke-linejoin="round" d="M 13726,7627 L 13826,7727 13926,7627 13826,7527 13726,7627 Z"/>
 <path fill="rgb(255,0,0)" stroke="none" d="M 13765,11007 L 13865,11107 13965,11007 13865,10907 13765,11007 Z"/>
 <path fill="none" stroke="rgb(255,0,0)" stroke-linejoin="round" d="M 13765,11007 L 13865,11107 13965,11007 13865,10907 13765,11007 Z"/>
 <path fill="rgb(255,0,0)" stroke="none" d="M 13804,4967 L 13904,5067 14004,4967 13904,4867 13804,4967 Z"/>
 <path fill="none" stroke="rgb(255,0,0)" stroke-linejoin="round" d="M 13804,4967 L 13904,5067 14004,4967 13904,4867 13804,4967 Z"/>
 <path fill="rgb(255,0,0)" stroke="none" d="M 13843,7376 L 13943,7476 14043,7376 13943,7276 13843,7376 Z"/>
 <path fill="none" stroke="rgb(255,0,0)" stroke-linejoin="round" d="M 13843,7376 L 13943,7476 14043,7376 13943,7276 13843,7376 Z"/>
 <path fill="rgb(255,0,0)" stroke="none" d="M 13882,11007 L 13982,11107 14082,11007 13982,10907 13882,11007 Z"/>
 <path fill="none" stroke="rgb(255,0,0)" stroke-linejoin="round" d="M 13882,11007 L 13982,11107 14082,11007 13982,10907 13882,11007 Z"/>
 <path fill="rgb(255,0,0)" stroke="none" d="M 13921,11007 L 14021,11107 14121,11007 14021,10907 13921,11007 Z"/>
 <path fill="none" stroke="rgb(255,0,0)" stroke-linejoin="round" d="M 13921,11007 L 14021,11107 14121,11007 14021,10907 13921,11007 Z"/>
 <path fill="rgb(255,0,0)" stroke="none" d="M 13960,2249 L 14060,2349 14160,2249 14060,2149 13960,2249 Z"/>
 <path fill="none" stroke="rgb(255,0,0)" stroke-linejoin="round" d="M 13960,2249 L 14060,2349 14160,2249 14060,2149 13960,2249 Z"/>
 <path fill="rgb(255,0,0)" stroke="none" d="M 13999,7379 L 14099,7479 14199,7379 14099,7279 13999,7379 Z"/>
 <path fill="none" stroke="rgb(255,0,0)" stroke-linejoin="round" d="M 13999,7379 L 14099,7479 14199,7379 14099,7279 13999,7379 Z"/>
 <path fill="rgb(255,0,0)" stroke="none" d="M 14038,5465 L 14138,5565 14238,5465 14138,5365 14038,5465 Z"/>
 <path fill="none" stroke="rgb(255,0,0)" stroke-linejoin="round" d="M 14038,5465 L 14138,5565 14238,5465 14138,5365 14038,5465 Z"/>
 <path fill="rgb(255,0,0)" stroke="none" d="M 14076,5891 L 14176,5991 14276,5891 14176,5791 14076,5891 Z"/>
 <path fill="none" stroke="rgb(255,0,0)" stroke-linejoin="round" d="M 14076,5891 L 14176,5991 14276,5891 14176,5791 14076,5891 Z"/>
 <path fill="rgb(255,0,0)" stroke="none" d="M 14115,5275 L 14215,5375 14315,5275 14215,5175 14115,5275 Z"/>
 <path fill="none" stroke="rgb(255,0,0)" stroke-linejoin="round" d="M 14115,5275 L 14215,5375 14315,5275 14215,5175 14115,5275 Z"/>
 <path fill="rgb(255,0,0)" stroke="none" d="M 14154,11007 L 14254,11107 14354,11007 14254,10907 14154,11007 Z"/>
 <path fill="none" stroke="rgb(255,0,0)" stroke-linejoin="round" d="M 14154,11007 L 14254,11107 14354,11007 14254,10907 14154,11007 Z"/>
 <path fill="rgb(255,0,0)" stroke="none" d="M 14193,11007 L 14293,11107 14393,11007 14293,10907 14193,11007 Z"/>
 <path fill="none" stroke="rgb(255,0,0)" stroke-linejoin="round" d="M 14193,11007 L 14293,11107 14393,11007 14293,10907 14193,11007 Z"/>
 <path fill="rgb(255,0,0)" stroke="none" d="M 14271,6117 L 14371,6217 14471,6117 14371,6017 14271,6117 Z"/>
 <path fill="none" stroke="rgb(255,0,0)" stroke-linejoin="round" d="M 14271,6117 L 14371,6217 14471,6117 14371,6017 14271,6117 Z"/>
 <path fill="rgb(255,0,0)" stroke="none" d="M 14310,5079 L 14410,5179 14510,5079 14410,4979 14310,5079 Z"/>
 <path fill="none" stroke="rgb(255,0,0)" stroke-linejoin="round" d="M 14310,5079 L 14410,5179 14510,5079 14410,4979 14310,5079 Z"/>
 <path fill="rgb(255,0,0)" stroke="none" d="M 14349,4682 L 14449,4782 14549,4682 14449,4582 14349,4682 Z"/>
 <path fill="none" stroke="rgb(255,0,0)" stroke-linejoin="round" d="M 14349,4682 L 14449,4782 14549,4682 14449,4582 14349,4682 Z"/>
 <path fill="rgb(255,0,0)" stroke="none" d="M 14388,4892 L 14488,4992 14588,4892 14488,4792 14388,4892 Z"/>
 <path fill="none" stroke="rgb(255,0,0)" stroke-linejoin="round" d="M 14388,4892 L 14488,4992 14588,4892 14488,4792 14388,4892 Z"/>
 <path fill="rgb(255,0,0)" stroke="none" d="M 14427,11007 L 14527,11107 14627,11007 14527,10907 14427,11007 Z"/>
 <path fill="none" stroke="rgb(255,0,0)" stroke-linejoin="round" d="M 14427,11007 L 14527,11107 14627,11007 14527,10907 14427,11007 Z"/>
 <path fill="rgb(255,0,0)" stroke="none" d="M 14466,11007 L 14566,11107 14666,11007 14566,10907 14466,11007 Z"/>
 <path fill="none" stroke="rgb(255,0,0)" stroke-linejoin="round" d="M 14466,11007 L 14566,11107 14666,11007 14566,10907 14466,11007 Z"/>
 <path fill="rgb(255,0,0)" stroke="none" d="M 14544,5812 L 14644,5912 14744,5812 14644,5712 14544,5812 Z"/>
 <path fill="none" stroke="rgb(255,0,0)" stroke-linejoin="round" d="M 14544,5812 L 14644,5912 14744,5812 14644,5712 14544,5812 Z"/>
 <path fill="rgb(255,0,0)" stroke="none" d="M 14583,5263 L 14683,5363 14783,5263 14683,5163 14583,5263 Z"/>
 <path fill="none" stroke="rgb(255,0,0)" stroke-linejoin="round" d="M 14583,5263 L 14683,5363 14783,5263 14683,5163 14583,5263 Z"/>
 <text class="TextShape"><tspan class="TextParagraph" font-family="Liberation Sans, sans-serif" font-size="353px" font-weight="400"><tspan class="TextPosition" x="947" y="11575"><tspan fill="rgb(0,0,0)" stroke="none">20/02</tspan></tspan></tspan></text>
 <text class="TextShape"><tspan class="TextParagraph" font-family="Liberation Sans, sans-serif" font-size="353px" font-weight="400"><tspan class="TextPosition" x="2075" y="11575"><tspan fill="rgb(0,0,0)" stroke="none">20/03</tspan></tspan></tspan></text>
 <text class="TextShape"><tspan class="TextParagraph" font-family="Liberation Sans, sans-serif" font-size="353px" font-weight="400"><tspan class="TextPosition" x="3282" y="11575"><tspan fill="rgb(0,0,0)" stroke="none">20/04</tspan></tspan></tspan></text>
 <text class="TextShape"><tspan class="TextParagraph" font-family="Liberation Sans, sans-serif" font-size="353px" font-weight="400"><tspan class="TextPosition" x="4450" y="11575"><tspan fill="rgb(0,0,0)" stroke="none">20/05</tspan></tspan></tspan></text>
 <text class="TextShape"><tspan class="TextParagraph" font-family="Liberation Sans, sans-serif" font-size="353px" font-weight="400"><tspan class="TextPosition" x="5657" y="11575"><tspan fill="rgb(0,0,0)" stroke="none">20/06</tspan></tspan></tspan></text>
 <text class="TextShape"><tspan class="TextParagraph" font-family="Liberation Sans, sans-serif" font-size="353px" font-weight="400"><tspan class="TextPosition" x="6824" y="11575"><tspan fill="rgb(0,0,0)" stroke="none">20/07</tspan></tspan></tspan></text>
 <text class="TextShape"><tspan class="TextParagraph" font-family="Liberation Sans, sans-serif" font-size="353px" font-weight="400"><tspan class="TextPosition" x="8031" y="11575"><tspan fill="rgb(0,0,0)" stroke="none">20/08</tspan></tspan></tspan></text>
 <text class="TextShape"><tspan class="TextParagraph" font-family="Liberation Sans, sans-serif" font-size="353px" font-weight="400"><tspan class="TextPosition" x="9238" y="11575"><tspan fill="rgb(0,0,0)" stroke="none">20/09</tspan></tspan></tspan></text>
 <text class="TextShape"><tspan class="TextParagraph" font-family="Liberation Sans, sans-serif" font-size="353px" font-weight="400"><tspan class="TextPosition" x="10406" y="11575"><tspan fill="rgb(0,0,0)" stroke="none">20/10</tspan></tspan></tspan></text>
 <text class="TextShape"><tspan class="TextParagraph" font-family="Liberation Sans, sans-serif" font-size="353px" font-weight="400"><tspan class="TextPosition" x="11612" y="11575"><tspan fill="rgb(0,0,0)" stroke="none">20/11</tspan></tspan></tspan></text>
 <text class="TextShape"><tspan class="TextParagraph" font-family="Liberation Sans, sans-serif" font-size="353px" font-weight="400"><tspan class="TextPosition" x="12780" y="11575"><tspan fill="rgb(0,0,0)" stroke="none">20/12</tspan></tspan></tspan></text>
 <text class="TextShape"><tspan class="TextParagraph" font-family="Liberation Sans, sans-serif" font-size="353px" font-weight="400"><tspan class="TextPosition" x="13987" y="11575"><tspan fill="rgb(0,0,0)" stroke="none">20/01</tspan></tspan></tspan></text>
 <text class="TextShape"><tspan class="TextParagraph" font-family="Liberation Sans, sans-serif" font-size="353px" font-weight="400"><tspan class="TextPosition" x="936" y="11128"><tspan fill="rgb(0,0,0)" stroke="none">0</tspan></tspan></tspan></text>
 <text class="TextShape"><tspan class="TextParagraph" font-family="Liberation Sans, sans-serif" font-size="353px" font-weight="400"><tspan class="TextPosition" x="89" y="9702"><tspan fill="rgb(0,0,0)" stroke="none">10.000</tspan></tspan></tspan></text>
 <text class="TextShape"><tspan class="TextParagraph" font-family="Liberation Sans, sans-serif" font-size="353px" font-weight="400"><tspan class="TextPosition" x="89" y="8276"><tspan fill="rgb(0,0,0)" stroke="none">20.000</tspan></tspan></tspan></text>
 <text class="TextShape"><tspan class="TextParagraph" font-family="Liberation Sans, sans-serif" font-size="353px" font-weight="400"><tspan class="TextPosition" x="89" y="6850"><tspan fill="rgb(0,0,0)" stroke="none">30.000</tspan></tspan></tspan></text>
 <text class="TextShape"><tspan class="TextParagraph" font-family="Liberation Sans, sans-serif" font-size="353px" font-weight="400"><tspan class="TextPosition" x="89" y="5424"><tspan fill="rgb(0,0,0)" stroke="none">40.000</tspan></tspan></tspan></text>
 <text class="TextShape"><tspan class="TextParagraph" font-family="Liberation Sans, sans-serif" font-size="353px" font-weight="400"><tspan class="TextPosition" x="89" y="3998"><tspan fill="rgb(0,0,0)" stroke="none">50.000</tspan></tspan></tspan></text>
 <text class="TextShape"><tspan class="TextParagraph" font-family="Liberation Sans, sans-serif" font-size="353px" font-weight="400"><tspan class="TextPosition" x="89" y="2572"><tspan fill="rgb(0,0,0)" stroke="none">60.000</tspan></tspan></tspan></text>
 <text class="TextShape"><tspan class="TextParagraph" font-family="Liberation Sans, sans-serif" font-size="353px" font-weight="400"><tspan class="TextPosition" x="89" y="1146"><tspan fill="rgb(0,0,0)" stroke="none">70.000</tspan></tspan></tspan></text>
 <text class="TextShape"><tspan class="TextParagraph" font-family="Liberation Sans, sans-serif" font-size="459px" font-weight="400"><tspan class="TextPosition" x="3128" y="724"><tspan fill="rgb(0,0,0)" stroke="none">Covid-19. Nuevos contagios diarios en Espaa</tspan></tspan></tspan></text>
</svg>