<?xml version="1.0" encoding="UTF-8"?>
<!DOCTYPE svg PUBLIC "-//W3C//DTD SVG 1.1//EN" "http://www.w3.org/Graphics/SVG/1.1/DTD/svg11.dtd">
<svg width="150mm" height="120mm" viewBox="0 0 15000 12000" version="1.1" xmlns="http://www.w3.org/2000/svg" xmlns:xlink="http://www.w3.org/1999/xlink" stroke-width="28.222" stroke-linejoin="round" xml:space="preserve">
 <path fill="rgb(255,255,255)" stroke="none" d="M 7500,12000 L 0,12000 0,0 15000,0 15000,12000 7500,12000 Z"/>
 <path fill="none" stroke="rgb(0,0,0)" stroke-linejoin="round" d="M 7847,11269 L 1009,11269 1009,1027 14686,1027 14686,11269 7847,11269 Z"/>
 <path fill="none" stroke="rgb(0,0,0)" stroke-linejoin="round" d="M 14686,11268 L 1009,11268"/>
 <path fill="none" stroke="rgb(0,0,0)" stroke-linejoin="round" d="M 14686,9804 L 1009,9804"/>
 <path fill="none" stroke="rgb(0,0,0)" stroke-linejoin="round" d="M 14686,8341 L 1009,8341"/>
 <path fill="none" stroke="rgb(0,0,0)" stroke-linejoin="round" d="M 14686,6878 L 1009,6878"/>
 <path fill="none" stroke="rgb(0,0,0)" stroke-linejoin="round" d="M 14686,5415 L 1009,5415"/>
 <path fill="none" stroke="rgb(0,0,0)" stroke-linejoin="round" d="M 14686,3952 L 1009,3952"/>
 <path fill="none" stroke="rgb(0,0,0)" stroke-linejoin="round" d="M 14686,2489 L 1009,2489"/>
 <path fill="none" stroke="rgb(0,0,0)" stroke-linejoin="round" d="M 14686,1026 L 1009,1026"/>
 <path fill="none" stroke="rgb(0,0,0)" stroke-linejoin="round" d="M 1009,11418 L 1009,11268"/>
 <path fill="none" stroke="rgb(0,0,0)" stroke-linejoin="round" d="M 1009,11418 L 1009,11268"/>
 <path fill="none" stroke="rgb(0,0,0)" stroke-linejoin="round" d="M 2482,11418 L 2482,11268"/>
 <path fill="none" stroke="rgb(0,0,0)" stroke-linejoin="round" d="M 2482,11418 L 2482,11268"/>
 <path fill="none" stroke="rgb(0,0,0)" stroke-linejoin="round" d="M 3955,11418 L 3955,11268"/>
 <path fill="none" stroke="rgb(0,0,0)" stroke-linejoin="round" d="M 3955,11418 L 3955,11268"/>
 <path fill="none" stroke="rgb(0,0,0)" stroke-linejoin="round" d="M 5428,11418 L 5428,11268"/>
 <path fill="none" stroke="rgb(0,0,0)" stroke-linejoin="round" d="M 5428,11418 L 5428,11268"/>
 <path fill="none" stroke="rgb(0,0,0)" stroke-linejoin="round" d="M 6901,11418 L 6901,11268"/>
 <path fill="none" stroke="rgb(0,0,0)" stroke-linejoin="round" d="M 6901,11418 L 6901,11268"/>
 <path fill="none" stroke="rgb(0,0,0)" stroke-linejoin="round" d="M 8373,11418 L 8373,11268"/>
 <path fill="none" stroke="rgb(0,0,0)" stroke-linejoin="round" d="M 8373,11418 L 8373,11268"/>
 <path fill="none" stroke="rgb(0,0,0)" stroke-linejoin="round" d="M 9846,11418 L 9846,11268"/>
 <path fill="none" stroke="rgb(0,0,0)" stroke-linejoin="round" d="M 9846,11418 L 9846,11268"/>
 <path fill="none" stroke="rgb(0,0,0)" stroke-linejoin="round" d="M 11319,11418 L 11319,11268"/>
 <path fill="none" stroke="rgb(0,0,0)" stroke-linejoin="round" d="M 11319,11418 L 11319,11268"/>
 <path fill="none" stroke="rgb(0,0,0)" stroke-linejoin="round" d="M 12792,11418 L 12792,11268"/>
 <path fill="none" stroke="rgb(0,0,0)" stroke-linejoin="round" d="M 12792,11418 L 12792,11268"/>
 <path fill="none" stroke="rgb(0,0,0)" stroke-linejoin="round" d="M 14265,11418 L 14265,11268"/>
 <path fill="none" stroke="rgb(0,0,0)" stroke-linejoin="round" d="M 14265,11418 L 14265,11268"/>
 <path fill="none" stroke="rgb(0,0,0)" stroke-linejoin="round" d="M 1009,11268 L 14686,11268"/>
 <path fill="none" stroke="rgb(0,0,0)" stroke-linejoin="round" d="M 859,11268 L 1009,11268"/>
 <path fill="none" stroke="rgb(0,0,0)" stroke-linejoin="round" d="M 859,11268 L 1009,11268"/>
 <path fill="none" stroke="rgb(0,0,0)" stroke-linejoin="round" d="M 859,9804 L 1009,9804"/>
 <path fill="none" stroke="rgb(0,0,0)" stroke-linejoin="round" d="M 859,9804 L 1009,9804"/>
 <path fill="none" stroke="rgb(0,0,0)" stroke-linejoin="round" d="M 859,8341 L 1009,8341"/>
 <path fill="none" stroke="rgb(0,0,0)" stroke-linejoin="round" d="M 859,8341 L 1009,8341"/>
 <path fill="none" stroke="rgb(0,0,0)" stroke-linejoin="round" d="M 859,6878 L 1009,6878"/>
 <path fill="none" stroke="rgb(0,0,0)" stroke-linejoin="round" d="M 859,6878 L 1009,6878"/>
 <path fill="none" stroke="rgb(0,0,0)" stroke-linejoin="round" d="M 859,5415 L 1009,5415"/>
 <path fill="none" stroke="rgb(0,0,0)" stroke-linejoin="round" d="M 859,5415 L 1009,5415"/>
 <path fill="none" stroke="rgb(0,0,0)" stroke-linejoin="round" d="M 859,3952 L 1009,3952"/>
 <path fill="none" stroke="rgb(0,0,0)" stroke-linejoin="round" d="M 859,3952 L 1009,3952"/>
 <path fill="none" stroke="rgb(0,0,0)" stroke-linejoin="round" d="M 859,2489 L 1009,2489"/>
 <path fill="none" stroke="rgb(0,0,0)" stroke-linejoin="round" d="M 859,2489 L 1009,2489"/>
 <path fill="none" stroke="rgb(0,0,0)" stroke-linejoin="round" d="M 859,1026 L 1009,1026"/>
 <path fill="none" stroke="rgb(0,0,0)" stroke-linejoin="round" d="M 859,1026 L 1009,1026"/>
 <path fill="none" stroke="rgb(0,0,0)" stroke-linejoin="round" d="M 1009,11268 L 1009,1026"/>
 <path fill="none" stroke="rgb(0,0,0)" stroke-width="50" stroke-linejoin="round" d="M 4270,11009 L 4481,11268 4691,11268 4901,11268 5112,10750 5322,11009 5533,10750 5743,11009 5954,11268 6164,11268 6374,10233 6585,11009 6795,11009 7006,10750 7216,10750 7427,9974 7636,10750 7847,9199 8057,9974 8267,10492 8478,9199 8688,8681 8899,11268 9109,2217 9320,7906 9530,2993 9740,3252 9951,3252 10161,5062 10372,4286 10582,6354 10793,7647 11003,4028 11213,1700 11424,1959 11634,5062 11845,7130 12055,4803 12266,7647 12476,4028 12686,5579 12897,3769 13107,6354 13318,1183 13528,6613 13739,6613 13949,9716 14159,7906 14370,4803 14580,7647"/>
 <path fill="rgb(0,0,0)" stroke="none" d="M 4170,11009 L 4270,11109 4370,11009 4270,10909 4170,11009 Z"/>
 <path fill="none" stroke="rgb(0,0,0)" stroke-linejoin="round" d="M 4170,11009 L 4270,11109 4370,11009 4270,10909 4170,11009 Z"/>
 <path fill="rgb(0,0,0)" stroke="none" d="M 4381,11268 L 4481,11368 4581,11268 4481,11168 4381,11268 Z"/>
 <path fill="none" stroke="rgb(0,0,0)" stroke-linejoin="round" d="M 4381,11268 L 4481,11368 4581,11268 4481,11168 4381,11268 Z"/>
 <path fill="rgb(0,0,0)" stroke="none" d="M 4591,11268 L 4691,11368 4791,11268 4691,11168 4591,11268 Z"/>
 <path fill="none" stroke="rgb(0,0,0)" stroke-linejoin="round" d="M 4591,11268 L 4691,11368 4791,11268 4691,11168 4591,11268 Z"/>
 <path fill="rgb(0,0,0)" stroke="none" d="M 4801,11268 L 4901,11368 5001,11268 4901,11168 4801,11268 Z"/>
 <path fill="none" stroke="rgb(0,0,0)" stroke-linejoin="round" d="M 4801,11268 L 4901,11368 5001,11268 4901,11168 4801,11268 Z"/>
 <path fill="rgb(0,0,0)" stroke="none" d="M 5012,10750 L 5112,10850 5212,10750 5112,10650 5012,10750 Z"/>
 <path fill="none" stroke="rgb(0,0,0)" stroke-linejoin="round" d="M 5012,10750 L 5112,10850 5212,10750 5112,10650 5012,10750 Z"/>
 <path fill="rgb(0,0,0)" stroke="none" d="M 5222,11009 L 5322,11109 5422,11009 5322,10909 5222,11009 Z"/>
 <path fill="none" stroke="rgb(0,0,0)" stroke-linejoin="round" d="M 5222,11009 L 5322,11109 5422,11009 5322,10909 5222,11009 Z"/>
 <path fill="rgb(0,0,0)" stroke="none" d="M 5433,10750 L 5533,10850 5633,10750 5533,10650 5433,10750 Z"/>
 <path fill="none" stroke="rgb(0,0,0)" stroke-linejoin="round" d="M 5433,10750 L 5533,10850 5633,10750 5533,10650 5433,10750 Z"/>
 <path fill="rgb(0,0,0)" stroke="none" d="M 5643,11009 L 5743,11109 5843,11009 5743,10909 5643,11009 Z"/>
 <path fill="none" stroke="rgb(0,0,0)" stroke-linejoin="round" d="M 5643,11009 L 5743,11109 5843,11009 5743,10909 5643,11009 Z"/>
 <path fill="rgb(0,0,0)" stroke="none" d="M 5854,11268 L 5954,11368 6054,11268 5954,11168 5854,11268 Z"/>
 <path fill="none" stroke="rgb(0,0,0)" stroke-linejoin="round" d="M 5854,11268 L 5954,11368 6054,11268 5954,11168 5854,11268 Z"/>
 <path fill="rgb(0,0,0)" stroke="none" d="M 6064,11268 L 6164,11368 6264,11268 6164,11168 6064,11268 Z"/>
 <path fill="none" stroke="rgb(0,0,0)" stroke-linejoin="round" d="M 6064,11268 L 6164,11368 6264,11268 6164,11168 6064,11268 Z"/>
 <path fill="rgb(0,0,0)" stroke="none" d="M 6274,10233 L 6374,10333 6474,10233 6374,10133 6274,10233 Z"/>
 <path fill="none" stroke="rgb(0,0,0)" stroke-linejoin="round" d="M 6274,10233 L 6374,10333 6474,10233 6374,10133 6274,10233 Z"/>
 <path fill="rgb(0,0,0)" stroke="none" d="M 6485,11009 L 6585,11109 6685,11009 6585,10909 6485,11009 Z"/>
 <path fill="none" stroke="rgb(0,0,0)" stroke-linejoin="round" d="M 6485,11009 L 6585,11109 6685,11009 6585,10909 6485,11009 Z"/>
 <path fill="rgb(0,0,0)" stroke="none" d="M 6695,11009 L 6795,11109 6895,11009 6795,10909 6695,11009 Z"/>
 <path fill="none" stroke="rgb(0,0,0)" stroke-linejoin="round" d="M 6695,11009 L 6795,11109 6895,11009 6795,10909 6695,11009 Z"/>
 <path fill="rgb(0,0,0)" stroke="none" d="M 6906,10750 L 7006,10850 7106,10750 7006,10650 6906,10750 Z"/>
 <path fill="none" stroke="rgb(0,0,0)" stroke-linejoin="round" d="M 6906,10750 L 7006,10850 7106,10750 7006,10650 6906,10750 Z"/>
 <path fill="rgb(0,0,0)" stroke="none" d="M 7116,10750 L 7216,10850 7316,10750 7216,10650 7116,10750 Z"/>
 <path fill="none" stroke="rgb(0,0,0)" stroke-linejoin="round" d="M 7116,10750 L 7216,10850 7316,10750 7216,10650 7116,10750 Z"/>
 <path fill="rgb(0,0,0)" stroke="none" d="M 7327,9974 L 7427,10074 7526,9974 7427,9874 7327,9974 Z"/>
 <path fill="none" stroke="rgb(0,0,0)" stroke-linejoin="round" d="M 7327,9974 L 7427,10074 7526,9974 7427,9874 7327,9974 Z"/>
 <path fill="rgb(0,0,0)" stroke="none" d="M 7536,10750 L 7636,10850 7736,10750 7636,10650 7536,10750 Z"/>
 <path fill="none" stroke="rgb(0,0,0)" stroke-linejoin="round" d="M 7536,10750 L 7636,10850 7736,10750 7636,10650 7536,10750 Z"/>
 <path fill="rgb(0,0,0)" stroke="none" d="M 7747,9199 L 7847,9299 7947,9199 7847,9099 7747,9199 Z"/>
 <path fill="none" stroke="rgb(0,0,0)" stroke-linejoin="round" d="M 7747,9199 L 7847,9299 7947,9199 7847,9099 7747,9199 Z"/>
 <path fill="rgb(0,0,0)" stroke="none" d="M 7957,9974 L 8057,10074 8157,9974 8057,9874 7957,9974 Z"/>
 <path fill="none" stroke="rgb(0,0,0)" stroke-linejoin="round" d="M 7957,9974 L 8057,10074 8157,9974 8057,9874 7957,9974 Z"/>
 <path fill="rgb(0,0,0)" stroke="none" d="M 8167,10492 L 8267,10592 8367,10492 8267,10392 8167,10492 Z"/>
 <path fill="none" stroke="rgb(0,0,0)" stroke-linejoin="round" d="M 8167,10492 L 8267,10592 8367,10492 8267,10392 8167,10492 Z"/>
 <path fill="rgb(0,0,0)" stroke="none" d="M 8378,9199 L 8478,9299 8578,9199 8478,9099 8378,9199 Z"/>
 <path fill="none" stroke="rgb(0,0,0)" stroke-linejoin="round" d="M 8378,9199 L 8478,9299 8578,9199 8478,9099 8378,9199 Z"/>
 <path fill="rgb(0,0,0)" stroke="none" d="M 8588,8681 L 8688,8781 8788,8681 8688,8581 8588,8681 Z"/>
 <path fill="none" stroke="rgb(0,0,0)" stroke-linejoin="round" d="M 8588,8681 L 8688,8781 8788,8681 8688,8581 8588,8681 Z"/>
 <path fill="rgb(0,0,0)" stroke="none" d="M 8799,11268 L 8899,11368 8999,11268 8899,11168 8799,11268 Z"/>
 <path fill="none" stroke="rgb(0,0,0)" stroke-linejoin="round" d="M 8799,11268 L 8899,11368 8999,11268 8899,11168 8799,11268 Z"/>
 <path fill="rgb(0,0,0)" stroke="none" d="M 9009,2217 L 9109,2317 9209,2217 9109,2117 9009,2217 Z"/>
 <path fill="none" stroke="rgb(0,0,0)" stroke-linejoin="round" d="M 9009,2217 L 9109,2317 9209,2217 9109,2117 9009,2217 Z"/>
 <path fill="rgb(0,0,0)" stroke="none" d="M 9220,7906 L 9320,8006 9420,7906 9320,7806 9220,7906 Z"/>
 <path fill="none" stroke="rgb(0,0,0)" stroke-linejoin="round" d="M 9220,7906 L 9320,8006 9420,7906 9320,7806 9220,7906 Z"/>
 <path fill="rgb(0,0,0)" stroke="none" d="M 9430,2993 L 9530,3093 9630,2993 9530,2893 9430,2993 Z"/>
 <path fill="none" stroke="rgb(0,0,0)" stroke-linejoin="round" d="M 9430,2993 L 9530,3093 9630,2993 9530,2893 9430,2993 Z"/>
 <path fill="rgb(0,0,0)" stroke="none" d="M 9640,3252 L 9740,3352 9840,3252 9740,3152 9640,3252 Z"/>
 <path fill="none" stroke="rgb(0,0,0)" stroke-linejoin="round" d="M 9640,3252 L 9740,3352 9840,3252 9740,3152 9640,3252 Z"/>
 <path fill="rgb(0,0,0)" stroke="none" d="M 9851,3252 L 9951,3352 10051,3252 9951,3152 9851,3252 Z"/>
 <path fill="none" stroke="rgb(0,0,0)" stroke-linejoin="round" d="M 9851,3252 L 9951,3352 10051,3252 9951,3152 9851,3252 Z"/>
 <path fill="rgb(0,0,0)" stroke="none" d="M 10061,5062 L 10161,5162 10261,5062 10161,4962 10061,5062 Z"/>
 <path fill="none" stroke="rgb(0,0,0)" stroke-linejoin="round" d="M 10061,5062 L 10161,5162 10261,5062 10161,4962 10061,5062 Z"/>
 <path fill="rgb(0,0,0)" stroke="none" d="M 10272,4286 L 10372,4386 10472,4286 10372,4186 10272,4286 Z"/>
 <path fill="none" stroke="rgb(0,0,0)" stroke-linejoin="round" d="M 10272,4286 L 10372,4386 10472,4286 10372,4186 10272,4286 Z"/>
 <path fill="rgb(0,0,0)" stroke="none" d="M 10482,6354 L 10582,6454 10682,6354 10582,6254 10482,6354 Z"/>
 <path fill="none" stroke="rgb(0,0,0)" stroke-linejoin="round" d="M 10482,6354 L 10582,6454 10682,6354 10582,6254 10482,6354 Z"/>
 <path fill="rgb(0,0,0)" stroke="none" d="M 10693,7647 L 10793,7747 10893,7647 10793,7547 10693,7647 Z"/>
 <path fill="none" stroke="rgb(0,0,0)" stroke-linejoin="round" d="M 10693,7647 L 10793,7747 10893,7647 10793,7547 10693,7647 Z"/>
 <path fill="rgb(0,0,0)" stroke="none" d="M 10903,4028 L 11003,4128 11103,4028 11003,3928 10903,4028 Z"/>
 <path fill="none" stroke="rgb(0,0,0)" stroke-linejoin="round" d="M 10903,4028 L 11003,4128 11103,4028 11003,3928 10903,4028 Z"/>
 <path fill="rgb(0,0,0)" stroke="none" d="M 11113,1700 L 11213,1800 11313,1700 11213,1600 11113,1700 Z"/>
 <path fill="none" stroke="rgb(0,0,0)" stroke-linejoin="round" d="M 11113,1700 L 11213,1800 11313,1700 11213,1600 11113,1700 Z"/>
 <path fill="rgb(0,0,0)" stroke="none" d="M 11324,1959 L 11424,2059 11524,1959 11424,1859 11324,1959 Z"/>
 <path fill="none" stroke="rgb(0,0,0)" stroke-linejoin="round" d="M 11324,1959 L 11424,2059 11524,1959 11424,1859 11324,1959 Z"/>
 <path fill="rgb(0,0,0)" stroke="none" d="M 11534,5062 L 11634,5162 11734,5062 11634,4962 11534,5062 Z"/>
 <path fill="none" stroke="rgb(0,0,0)" stroke-linejoin="round" d="M 11534,5062 L 11634,5162 11734,5062 11634,4962 11534,5062 Z"/>
 <path fill="rgb(0,0,0)" stroke="none" d="M 11745,7130 L 11845,7230 11945,7130 11845,7030 11745,7130 Z"/>
 <path fill="none" stroke="rgb(0,0,0)" stroke-linejoin="round" d="M 11745,7130 L 11845,7230 11945,7130 11845,7030 11745,7130 Z"/>
 <path fill="rgb(0,0,0)" stroke="none" d="M 11955,4803 L 12055,4903 12155,4803 12055,4703 11955,4803 Z"/>
 <path fill="none" stroke="rgb(0,0,0)" stroke-linejoin="round" d="M 11955,4803 L 12055,4903 12155,4803 12055,4703 11955,4803 Z"/>
 <path fill="rgb(0,0,0)" stroke="none" d="M 12166,7647 L 12266,7747 12366,7647 12266,7547 12166,7647 Z"/>
 <path fill="none" stroke="rgb(0,0,0)" stroke-linejoin="round" d="M 12166,7647 L 12266,7747 12366,7647 12266,7547 12166,7647 Z"/>
 <path fill="rgb(0,0,0)" stroke="none" d="M 12376,4028 L 12476,4128 12576,4028 12476,3928 12376,4028 Z"/>
 <path fill="none" stroke="rgb(0,0,0)" stroke-linejoin="round" d="M 12376,4028 L 12476,4128 12576,4028 12476,3928 12376,4028 Z"/>
 <path fill="rgb(0,0,0)" stroke="none" d="M 12586,5579 L 12686,5679 12786,5579 12686,5479 12586,5579 Z"/>
 <path fill="none" stroke="rgb(0,0,0)" stroke-linejoin="round" d="M 12586,5579 L 12686,5679 12786,5579 12686,5479 12586,5579 Z"/>
 <path fill="rgb(0,0,0)" stroke="none" d="M 12797,3769 L 12897,3869 12997,3769 12897,3669 12797,3769 Z"/>
 <path fill="none" stroke="rgb(0,0,0)" stroke-linejoin="round" d="M 12797,3769 L 12897,3869 12997,3769 12897,3669 12797,3769 Z"/>
 <path fill="rgb(0,0,0)" stroke="none" d="M 13007,6354 L 13107,6454 13207,6354 13107,6254 13007,6354 Z"/>
 <path fill="none" stroke="rgb(0,0,0)" stroke-linejoin="round" d="M 13007,6354 L 13107,6454 13207,6354 13107,6254 13007,6354 Z"/>
 <path fill="rgb(0,0,0)" stroke="none" d="M 13218,1183 L 13318,1283 13418,1183 13318,1083 13218,1183 Z"/>
 <path fill="none" stroke="rgb(0,0,0)" stroke-linejoin="round" d="M 13218,1183 L 13318,1283 13418,1183 13318,1083 13218,1183 Z"/>
 <path fill="rgb(0,0,0)" stroke="none" d="M 13428,6613 L 13528,6713 13628,6613 13528,6513 13428,6613 Z"/>
 <path fill="none" stroke="rgb(0,0,0)" stroke-linejoin="round" d="M 13428,6613 L 13528,6713 13628,6613 13528,6513 13428,6613 Z"/>
 <path fill="rgb(0,0,0)" stroke="none" d="M 13639,6613 L 13739,6713 13839,6613 13739,6513 13639,6613 Z"/>
 <path fill="none" stroke="rgb(0,0,0)" stroke-linejoin="round" d="M 13639,6613 L 13739,6713 13839,6613 13739,6513 13639,6613 Z"/>
 <path fill="rgb(0,0,0)" stroke="none" d="M 13849,9716 L 13949,9816 14049,9716 13949,9616 13849,9716 Z"/>
 <path fill="none" stroke="rgb(0,0,0)" stroke-linejoin="round" d="M 13849,9716 L 13949,9816 14049,9716 13949,9616 13849,9716 Z"/>
 <path fill="rgb(0,0,0)" stroke="none" d="M 14059,7906 L 14159,8006 14259,7906 14159,7806 14059,7906 Z"/>
 <path fill="none" stroke="rgb(0,0,0)" stroke-linejoin="round" d="M 14059,7906 L 14159,8006 14259,7906 14159,7806 14059,7906 Z"/>
 <path fill="rgb(0,0,0)" stroke="none" d="M 14270,4803 L 14370,4903 14470,4803 14370,4703 14270,4803 Z"/>
 <path fill="none" stroke="rgb(0,0,0)" stroke-linejoin="round" d="M 14270,4803 L 14370,4903 14470,4803 14370,4703 14270,4803 Z"/>
 <path fill="rgb(0,0,0)" stroke="none" d="M 14480,7647 L 14580,7747 14680,7647 14580,7547 14480,7647 Z"/>
 <path fill="none" stroke="rgb(0,0,0)" stroke-linejoin="round" d="M 14480,7647 L 14580,7747 14680,7647 14580,7547 14480,7647 Z"/>
 <path fill="none" stroke="rgb(255,66,14)" stroke-width="50" stroke-linejoin="round" d="M 6795,10680 L 7006,11268 7216,11268 7427,10680 7636,9506 7847,10680 8057,9506 8267,8331 8478,9506 8688,8918 8899,10680 9109,8918 9320,10680 9530,5396 9740,1285 9951,7744 10161,8918 10372,8918 10582,11268 10793,5983 11003,6569 11213,7157 11424,7744 11634,8918 11845,8331 12055,9506 12266,7157 12476,9506 12686,4221 12897,8331 13107,7157 13318,8331 13528,8918 13739,8331 13949,7157 14159,10093 14370,7744 14580,8331"/>
 <path fill="rgb(255,66,14)" stroke="none" d="M 6695,10680 L 6795,10780 6895,10680 6795,10580 6695,10680 Z"/>
 <path fill="none" stroke="rgb(255,66,14)" stroke-linejoin="round" d="M 6695,10680 L 6795,10780 6895,10680 6795,10580 6695,10680 Z"/>
 <path fill="rgb(255,66,14)" stroke="none" d="M 6906,11268 L 7006,11368 7106,11268 7006,11168 6906,11268 Z"/>
 <path fill="none" stroke="rgb(255,66,14)" stroke-linejoin="round" d="M 6906,11268 L 7006,11368 7106,11268 7006,11168 6906,11268 Z"/>
 <path fill="rgb(255,66,14)" stroke="none" d="M 7116,11268 L 7216,11368 7316,11268 7216,11168 7116,11268 Z"/>
 <path fill="none" stroke="rgb(255,66,14)" stroke-linejoin="round" d="M 7116,11268 L 7216,11368 7316,11268 7216,11168 7116,11268 Z"/>
 <path fill="rgb(255,66,14)" stroke="none" d="M 7327,10680 L 7427,10780 7526,10680 7427,10580 7327,10680 Z"/>
 <path fill="none" stroke="rgb(255,66,14)" stroke-linejoin="round" d="M 7327,10680 L 7427,10780 7526,10680 7427,10580 7327,10680 Z"/>
 <path fill="rgb(255,66,14)" stroke="none" d="M 7536,9506 L 7636,9606 7736,9506 7636,9406 7536,9506 Z"/>
 <path fill="none" stroke="rgb(255,66,14)" stroke-linejoin="round" d="M 7536,9506 L 7636,9606 7736,9506 7636,9406 7536,9506 Z"/>
 <path fill="rgb(255,66,14)" stroke="none" d="M 7747,10680 L 7847,10780 7947,10680 7847,10580 7747,10680 Z"/>
 <path fill="none" stroke="rgb(255,66,14)" stroke-linejoin="round" d="M 7747,10680 L 7847,10780 7947,10680 7847,10580 7747,10680 Z"/>
 <path fill="rgb(255,66,14)" stroke="none" d="M 7957,9506 L 8057,9606 8157,9506 8057,9406 7957,9506 Z"/>
 <path fill="none" stroke="rgb(255,66,14)" stroke-linejoin="round" d="M 7957,9506 L 8057,9606 8157,9506 8057,9406 7957,9506 Z"/>
 <path fill="rgb(255,66,14)" stroke="none" d="M 8167,8331 L 8267,8431 8367,8331 8267,8231 8167,8331 Z"/>
 <path fill="none" stroke="rgb(255,66,14)" stroke-linejoin="round" d="M 8167,8331 L 8267,8431 8367,8331 8267,8231 8167,8331 Z"/>
 <path fill="rgb(255,66,14)" stroke="none" d="M 8378,9506 L 8478,9606 8578,9506 8478,9406 8378,9506 Z"/>
 <path fill="none" stroke="rgb(255,66,14)" stroke-linejoin="round" d="M 8378,9506 L 8478,9606 8578,9506 8478,9406 8378,9506 Z"/>
 <path fill="rgb(255,66,14)" stroke="none" d="M 8588,8918 L 8688,9018 8788,8918 8688,8818 8588,8918 Z"/>
 <path fill="none" stroke="rgb(255,66,14)" stroke-linejoin="round" d="M 8588,8918 L 8688,9018 8788,8918 8688,8818 8588,8918 Z"/>
 <path fill="rgb(255,66,14)" stroke="none" d="M 8799,10680 L 8899,10780 8999,10680 8899,10580 8799,10680 Z"/>
 <path fill="none" stroke="rgb(255,66,14)" stroke-linejoin="round" d="M 8799,10680 L 8899,10780 8999,10680 8899,10580 8799,10680 Z"/>
 <path fill="rgb(255,66,14)" stroke="none" d="M 9009,8918 L 9109,9018 9209,8918 9109,8818 9009,8918 Z"/>
 <path fill="none" stroke="rgb(255,66,14)" stroke-linejoin="round" d="M 9009,8918 L 9109,9018 9209,8918 9109,8818 9009,8918 Z"/>
 <path fill="rgb(255,66,14)" stroke="none" d="M 9220,10680 L 9320,10780 9420,10680 9320,10580 9220,10680 Z"/>
 <path fill="none" stroke="rgb(255,66,14)" stroke-linejoin="round" d="M 9220,10680 L 9320,10780 9420,10680 9320,10580 9220,10680 Z"/>
 <path fill="rgb(255,66,14)" stroke="none" d="M 9430,5396 L 9530,5496 9630,5396 9530,5296 9430,5396 Z"/>
 <path fill="none" stroke="rgb(255,66,14)" stroke-linejoin="round" d="M 9430,5396 L 9530,5496 9630,5396 9530,5296 9430,5396 Z"/>
 <path fill="rgb(255,66,14)" stroke="none" d="M 9640,1285 L 9740,1385 9840,1285 9740,1185 9640,1285 Z"/>
 <path fill="none" stroke="rgb(255,66,14)" stroke-linejoin="round" d="M 9640,1285 L 9740,1385 9840,1285 9740,1185 9640,1285 Z"/>
 <path fill="rgb(255,66,14)" stroke="none" d="M 9851,7744 L 9951,7844 10051,7744 9951,7644 9851,7744 Z"/>
 <path fill="none" stroke="rgb(255,66,14)" stroke-linejoin="round" d="M 9851,7744 L 9951,7844 10051,7744 9951,7644 9851,7744 Z"/>
 <path fill="rgb(255,66,14)" stroke="none" d="M 10061,8918 L 10161,9018 10261,8918 10161,8818 10061,8918 Z"/>
 <path fill="none" stroke="rgb(255,66,14)" stroke-linejoin="round" d="M 10061,8918 L 10161,9018 10261,8918 10161,8818 10061,8918 Z"/>
 <path fill="rgb(255,66,14)" stroke="none" d="M 10272,8918 L 10372,9018 10472,8918 10372,8818 10272,8918 Z"/>
 <path fill="none" stroke="rgb(255,66,14)" stroke-linejoin="round" d="M 10272,8918 L 10372,9018 10472,8918 10372,8818 10272,8918 Z"/>
 <path fill="rgb(255,66,14)" stroke="none" d="M 10482,11268 L 10582,11368 10682,11268 10582,11168 10482,11268 Z"/>
 <path fill="none" stroke="rgb(255,66,14)" stroke-linejoin="round" d="M 10482,11268 L 10582,11368 10682,11268 10582,11168 10482,11268 Z"/>
 <path fill="rgb(255,66,14)" stroke="none" d="M 10693,5983 L 10793,6082 10893,5983 10793,5883 10693,5983 Z"/>
 <path fill="none" stroke="rgb(255,66,14)" stroke-linejoin="round" d="M 10693,5983 L 10793,6082 10893,5983 10793,5883 10693,5983 Z"/>
 <path fill="rgb(255,66,14)" stroke="none" d="M 10903,6569 L 11003,6669 11103,6569 11003,6469 10903,6569 Z"/>
 <path fill="none" stroke="rgb(255,66,14)" stroke-linejoin="round" d="M 10903,6569 L 11003,6669 11103,6569 11003,6469 10903,6569 Z"/>
 <path fill="rgb(255,66,14)" stroke="none" d="M 11113,7157 L 11213,7257 11313,7157 11213,7057 11113,7157 Z"/>
 <path fill="none" stroke="rgb(255,66,14)" stroke-linejoin="round" d="M 11113,7157 L 11213,7257 11313,7157 11213,7057 11113,7157 Z"/>
 <path fill="rgb(255,66,14)" stroke="none" d="M 11324,7744 L 11424,7844 11524,7744 11424,7644 11324,7744 Z"/>
 <path fill="none" stroke="rgb(255,66,14)" stroke-linejoin="round" d="M 11324,7744 L 11424,7844 11524,7744 11424,7644 11324,7744 Z"/>
 <path fill="rgb(255,66,14)" stroke="none" d="M 11534,8918 L 11634,9018 11734,8918 11634,8818 11534,8918 Z"/>
 <path fill="none" stroke="rgb(255,66,14)" stroke-linejoin="round" d="M 11534,8918 L 11634,9018 11734,8918 11634,8818 11534,8918 Z"/>
 <path fill="rgb(255,66,14)" stroke="none" d="M 11745,8331 L 11845,8431 11945,8331 11845,8231 11745,8331 Z"/>
 <path fill="none" stroke="rgb(255,66,14)" stroke-linejoin="round" d="M 11745,8331 L 11845,8431 11945,8331 11845,8231 11745,8331 Z"/>
 <path fill="rgb(255,66,14)" stroke="none" d="M 11955,9506 L 12055,9606 12155,9506 12055,9406 11955,9506 Z"/>
 <path fill="none" stroke="rgb(255,66,14)" stroke-linejoin="round" d="M 11955,9506 L 12055,9606 12155,9506 12055,9406 11955,9506 Z"/>
 <path fill="rgb(255,66,14)" stroke="none" d="M 12166,7157 L 12266,7257 12366,7157 12266,7057 12166,7157 Z"/>
 <path fill="none" stroke="rgb(255,66,14)" stroke-linejoin="round" d="M 12166,7157 L 12266,7257 12366,7157 12266,7057 12166,7157 Z"/>
 <path fill="rgb(255,66,14)" stroke="none" d="M 12376,9506 L 12476,9606 12576,9506 12476,9406 12376,9506 Z"/>
 <path fill="none" stroke="rgb(255,66,14)" stroke-linejoin="round" d="M 12376,9506 L 12476,9606 12576,9506 12476,9406 12376,9506 Z"/>
 <path fill="rgb(255,66,14)" stroke="none" d="M 12586,4221 L 12686,4321 12786,4221 12686,4121 12586,4221 Z"/>
 <path fill="none" stroke="rgb(255,66,14)" stroke-linejoin="round" d="M 12586,4221 L 12686,4321 12786,4221 12686,4121 12586,4221 Z"/>
 <path fill="rgb(255,66,14)" stroke="none" d="M 12797,8331 L 12897,8431 12997,8331 12897,8231 12797,8331 Z"/>
 <path fill="none" stroke="rgb(255,66,14)" stroke-linejoin="round" d="M 12797,8331 L 12897,8431 12997,8331 12897,8231 12797,8331 Z"/>
 <path fill="rgb(255,66,14)" stroke="none" d="M 13007,7157 L 13107,7257 13207,7157 13107,7057 13007,7157 Z"/>
 <path fill="none" stroke="rgb(255,66,14)" stroke-linejoin="round" d="M 13007,7157 L 13107,7257 13207,7157 13107,7057 13007,7157 Z"/>
 <path fill="rgb(255,66,14)" stroke="none" d="M 13218,8331 L 13318,8431 13418,8331 13318,8231 13218,8331 Z"/>
 <path fill="none" stroke="rgb(255,66,14)" stroke-linejoin="round" d="M 13218,8331 L 13318,8431 13418,8331 13318,8231 13218,8331 Z"/>
 <path fill="rgb(255,66,14)" stroke="none" d="M 13428,8918 L 13528,9018 13628,8918 13528,8818 13428,8918 Z"/>
 <path fill="none" stroke="rgb(255,66,14)" stroke-linejoin="round" d="M 13428,8918 L 13528,9018 13628,8918 13528,8818 13428,8918 Z"/>
 <path fill="rgb(255,66,14)" stroke="none" d="M 13639,8331 L 13739,8431 13839,8331 13739,8231 13639,8331 Z"/>
 <path fill="none" stroke="rgb(255,66,14)" stroke-linejoin="round" d="M 13639,8331 L 13739,8431 13839,8331 13739,8231 13639,8331 Z"/>
 <path fill="rgb(255,66,14)" stroke="none" d="M 13849,7157 L 13949,7257 14049,7157 13949,7057 13849,7157 Z"/>
 <path fill="none" stroke="rgb(255,66,14)" stroke-linejoin="round" d="M 13849,7157 L 13949,7257 14049,7157 13949,7057 13849,7157 Z"/>
 <path fill="rgb(255,66,14)" stroke="none" d="M 14059,10093 L 14159,10193 14259,10093 14159,9993 14059,10093 Z"/>
 <path fill="none" stroke="rgb(255,66,14)" stroke-linejoin="round" d="M 14059,10093 L 14159,10193 14259,10093 14159,9993 14059,10093 Z"/>
 <path fill="rgb(255,66,14)" stroke="none" d="M 14270,7744 L 14370,7844 14470,7744 14370,7644 14270,7744 Z"/>
 <path fill="none" stroke="rgb(255,66,14)" stroke-linejoin="round" d="M 14270,7744 L 14370,7844 14470,7744 14370,7644 14270,7744 Z"/>
 <path fill="rgb(255,66,14)" stroke="none" d="M 14480,8331 L 14580,8431 14680,8331 14580,8231 14480,8331 Z"/>
 <path fill="none" stroke="rgb(255,66,14)" stroke-linejoin="round" d="M 14480,8331 L 14580,8431 14680,8331 14580,8231 14480,8331 Z"/>
 <path fill="none" stroke="rgb(255,211,32)" stroke-width="50" stroke-linejoin="round" d="M 3849,11190 L 4060,11268 4270,11268 4481,11268 4691,11268 4901,11268 5112,11268 5322,11268 5533,11268 5743,11268 5954,11036 6164,11190 6374,11268 6585,10649 6795,10572 7006,11113 7216,10572 7427,9954 7636,9799 7847,9335 8057,9644 8267,9103 8478,9413 8688,8872 8899,8485 9109,8717 9320,7944 9530,9026 9740,6939 9951,7558 10161,6012 10372,6630 10582,8021 10793,9413 11003,8562 11213,7248 11424,7944 11634,9026 11845,9567 12055,9722 12266,8331 12476,8872 12686,8331 12897,9181 13107,9181 13318,7944 13528,9490 13739,10185 13949,10495 14159,9954 14370,9876 14580,9490"/>
 <path fill="rgb(255,211,32)" stroke="none" d="M 3749,11090 L 3849,11290 3949,11090 3749,11090 Z"/>
 <path fill="none" stroke="rgb(255,211,32)" stroke-linejoin="round" d="M 3749,11090 L 3849,11290 3949,11090 3749,11090 Z"/>
 <path fill="rgb(255,211,32)" stroke="none" d="M 3960,11168 L 4060,11368 4160,11168 3960,11168 Z"/>
 <path fill="none" stroke="rgb(255,211,32)" stroke-linejoin="round" d="M 3960,11168 L 4060,11368 4160,11168 3960,11168 Z"/>
 <path fill="rgb(255,211,32)" stroke="none" d="M 4170,11168 L 4270,11368 4370,11168 4170,11168 Z"/>
 <path fill="none" stroke="rgb(255,211,32)" stroke-linejoin="round" d="M 4170,11168 L 4270,11368 4370,11168 4170,11168 Z"/>
 <path fill="rgb(255,211,32)" stroke="none" d="M 4381,11168 L 4481,11368 4581,11168 4381,11168 Z"/>
 <path fill="none" stroke="rgb(255,211,32)" stroke-linejoin="round" d="M 4381,11168 L 4481,11368 4581,11168 4381,11168 Z"/>
 <path fill="rgb(255,211,32)" stroke="none" d="M 4591,11168 L 4691,11368 4791,11168 4591,11168 Z"/>
 <path fill="none" stroke="rgb(255,211,32)" stroke-linejoin="round" d="M 4591,11168 L 4691,11368 4791,11168 4591,11168 Z"/>
 <path fill="rgb(255,211,32)" stroke="none" d="M 4801,11168 L 4901,11368 5001,11168 4801,11168 Z"/>
 <path fill="none" stroke="rgb(255,211,32)" stroke-linejoin="round" d="M 4801,11168 L 4901,11368 5001,11168 4801,11168 Z"/>
 <path fill="rgb(255,211,32)" stroke="none" d="M 5012,11168 L 5112,11368 5212,11168 5012,11168 Z"/>
 <path fill="none" stroke="rgb(255,211,32)" stroke-linejoin="round" d="M 5012,11168 L 5112,11368 5212,11168 5012,11168 Z"/>
 <path fill="rgb(255,211,32)" stroke="none" d="M 5222,11168 L 5322,11368 5422,11168 5222,11168 Z"/>
 <path fill="none" stroke="rgb(255,211,32)" stroke-linejoin="round" d="M 5222,11168 L 5322,11368 5422,11168 5222,11168 Z"/>
 <path fill="rgb(255,211,32)" stroke="none" d="M 5433,11168 L 5533,11368 5633,11168 5433,11168 Z"/>
 <path fill="none" stroke="rgb(255,211,32)" stroke-linejoin="round" d="M 5433,11168 L 5533,11368 5633,11168 5433,11168 Z"/>
 <path fill="rgb(255,211,32)" stroke="none" d="M 5643,11168 L 5743,11368 5843,11168 5643,11168 Z"/>
 <path fill="none" stroke="rgb(255,211,32)" stroke-linejoin="round" d="M 5643,11168 L 5743,11368 5843,11168 5643,11168 Z"/>
 <path fill="rgb(255,211,32)" stroke="none" d="M 5854,10936 L 5954,11136 6054,10936 5854,10936 Z"/>
 <path fill="none" stroke="rgb(255,211,32)" stroke-linejoin="round" d="M 5854,10936 L 5954,11136 6054,10936 5854,10936 Z"/>
 <path fill="rgb(255,211,32)" stroke="none" d="M 6064,11090 L 6164,11290 6264,11090 6064,11090 Z"/>
 <path fill="none" stroke="rgb(255,211,32)" stroke-linejoin="round" d="M 6064,11090 L 6164,11290 6264,11090 6064,11090 Z"/>
 <path fill="rgb(255,211,32)" stroke="none" d="M 6274,11168 L 6374,11368 6474,11168 6274,11168 Z"/>
 <path fill="none" stroke="rgb(255,211,32)" stroke-linejoin="round" d="M 6274,11168 L 6374,11368 6474,11168 6274,11168 Z"/>
 <path fill="rgb(255,211,32)" stroke="none" d="M 6485,10549 L 6585,10749 6685,10549 6485,10549 Z"/>
 <path fill="none" stroke="rgb(255,211,32)" stroke-linejoin="round" d="M 6485,10549 L 6585,10749 6685,10549 6485,10549 Z"/>
 <path fill="rgb(255,211,32)" stroke="none" d="M 6695,10472 L 6795,10672 6895,10472 6695,10472 Z"/>
 <path fill="none" stroke="rgb(255,211,32)" stroke-linejoin="round" d="M 6695,10472 L 6795,10672 6895,10472 6695,10472 Z"/>
 <path fill="rgb(255,211,32)" stroke="none" d="M 6906,11013 L 7006,11213 7106,11013 6906,11013 Z"/>
 <path fill="none" stroke="rgb(255,211,32)" stroke-linejoin="round" d="M 6906,11013 L 7006,11213 7106,11013 6906,11013 Z"/>
 <path fill="rgb(255,211,32)" stroke="none" d="M 7116,10472 L 7216,10672 7316,10472 7116,10472 Z"/>
 <path fill="none" stroke="rgb(255,211,32)" stroke-linejoin="round" d="M 7116,10472 L 7216,10672 7316,10472 7116,10472 Z"/>
 <path fill="rgb(255,211,32)" stroke="none" d="M 7327,9854 L 7427,10054 7526,9854 7327,9854 Z"/>
 <path fill="none" stroke="rgb(255,211,32)" stroke-linejoin="round" d="M 7327,9854 L 7427,10054 7526,9854 7327,9854 Z"/>
 <path fill="rgb(255,211,32)" stroke="none" d="M 7536,9699 L 7636,9899 7736,9699 7536,9699 Z"/>
 <path fill="none" stroke="rgb(255,211,32)" stroke-linejoin="round" d="M 7536,9699 L 7636,9899 7736,9699 7536,9699 Z"/>
 <path fill="rgb(255,211,32)" stroke="none" d="M 7747,9235 L 7847,9435 7947,9235 7747,9235 Z"/>
 <path fill="none" stroke="rgb(255,211,32)" stroke-linejoin="round" d="M 7747,9235 L 7847,9435 7947,9235 7747,9235 Z"/>
 <path fill="rgb(255,211,32)" stroke="none" d="M 7957,9544 L 8057,9744 8157,9544 7957,9544 Z"/>
 <path fill="none" stroke="rgb(255,211,32)" stroke-linejoin="round" d="M 7957,9544 L 8057,9744 8157,9544 7957,9544 Z"/>
 <path fill="rgb(255,211,32)" stroke="none" d="M 8167,9003 L 8267,9203 8367,9003 8167,9003 Z"/>
 <path fill="none" stroke="rgb(255,211,32)" stroke-linejoin="round" d="M 8167,9003 L 8267,9203 8367,9003 8167,9003 Z"/>
 <path fill="rgb(255,211,32)" stroke="none" d="M 8378,9313 L 8478,9513 8578,9313 8378,9313 Z"/>
 <path fill="none" stroke="rgb(255,211,32)" stroke-linejoin="round" d="M 8378,9313 L 8478,9513 8578,9313 8378,9313 Z"/>
 <path fill="rgb(255,211,32)" stroke="none" d="M 8588,8772 L 8688,8972 8788,8772 8588,8772 Z"/>
 <path fill="none" stroke="rgb(255,211,32)" stroke-linejoin="round" d="M 8588,8772 L 8688,8972 8788,8772 8588,8772 Z"/>
 <path fill="rgb(255,211,32)" stroke="none" d="M 8799,8385 L 8899,8585 8999,8385 8799,8385 Z"/>
 <path fill="none" stroke="rgb(255,211,32)" stroke-linejoin="round" d="M 8799,8385 L 8899,8585 8999,8385 8799,8385 Z"/>
 <path fill="rgb(255,211,32)" stroke="none" d="M 9009,8617 L 9109,8817 9209,8617 9009,8617 Z"/>
 <path fill="none" stroke="rgb(255,211,32)" stroke-linejoin="round" d="M 9009,8617 L 9109,8817 9209,8617 9009,8617 Z"/>
 <path fill="rgb(255,211,32)" stroke="none" d="M 9220,7844 L 9320,8044 9420,7844 9220,7844 Z"/>
 <path fill="none" stroke="rgb(255,211,32)" stroke-linejoin="round" d="M 9220,7844 L 9320,8044 9420,7844 9220,7844 Z"/>
 <path fill="rgb(255,211,32)" stroke="none" d="M 9430,8926 L 9530,9126 9630,8926 9430,8926 Z"/>
 <path fill="none" stroke="rgb(255,211,32)" stroke-linejoin="round" d="M 9430,8926 L 9530,9126 9630,8926 9430,8926 Z"/>
 <path fill="rgb(255,211,32)" stroke="none" d="M 9640,6839 L 9740,7039 9840,6839 9640,6839 Z"/>
 <path fill="none" stroke="rgb(255,211,32)" stroke-linejoin="round" d="M 9640,6839 L 9740,7039 9840,6839 9640,6839 Z"/>
 <path fill="rgb(255,211,32)" stroke="none" d="M 9851,7458 L 9951,7658 10051,7458 9851,7458 Z"/>
 <path fill="none" stroke="rgb(255,211,32)" stroke-linejoin="round" d="M 9851,7458 L 9951,7658 10051,7458 9851,7458 Z"/>
 <path fill="rgb(255,211,32)" stroke="none" d="M 10061,5913 L 10161,6112 10261,5913 10061,5913 Z"/>
 <path fill="none" stroke="rgb(255,211,32)" stroke-linejoin="round" d="M 10061,5913 L 10161,6112 10261,5913 10061,5913 Z"/>
 <path fill="rgb(255,211,32)" stroke="none" d="M 10272,6530 L 10372,6730 10472,6530 10272,6530 Z"/>
 <path fill="none" stroke="rgb(255,211,32)" stroke-linejoin="round" d="M 10272,6530 L 10372,6730 10472,6530 10272,6530 Z"/>
 <path fill="rgb(255,211,32)" stroke="none" d="M 10482,7921 L 10582,8121 10682,7921 10482,7921 Z"/>
 <path fill="none" stroke="rgb(255,211,32)" stroke-linejoin="round" d="M 10482,7921 L 10582,8121 10682,7921 10482,7921 Z"/>
 <path fill="rgb(255,211,32)" stroke="none" d="M 10693,9313 L 10793,9513 10893,9313 10693,9313 Z"/>
 <path fill="none" stroke="rgb(255,211,32)" stroke-linejoin="round" d="M 10693,9313 L 10793,9513 10893,9313 10693,9313 Z"/>
 <path fill="rgb(255,211,32)" stroke="none" d="M 10903,8462 L 11003,8662 11103,8462 10903,8462 Z"/>
 <path fill="none" stroke="rgb(255,211,32)" stroke-linejoin="round" d="M 10903,8462 L 11003,8662 11103,8462 10903,8462 Z"/>
 <path fill="rgb(255,211,32)" stroke="none" d="M 11113,7148 L 11213,7348 11313,7148 11113,7148 Z"/>
 <path fill="none" stroke="rgb(255,211,32)" stroke-linejoin="round" d="M 11113,7148 L 11213,7348 11313,7148 11113,7148 Z"/>
 <path fill="rgb(255,211,32)" stroke="none" d="M 11324,7844 L 11424,8044 11524,7844 11324,7844 Z"/>
 <path fill="none" stroke="rgb(255,211,32)" stroke-linejoin="round" d="M 11324,7844 L 11424,8044 11524,7844 11324,7844 Z"/>
 <path fill="rgb(255,211,32)" stroke="none" d="M 11534,8926 L 11634,9126 11734,8926 11534,8926 Z"/>
 <path fill="none" stroke="rgb(255,211,32)" stroke-linejoin="round" d="M 11534,8926 L 11634,9126 11734,8926 11534,8926 Z"/>
 <path fill="rgb(255,211,32)" stroke="none" d="M 11745,9467 L 11845,9667 11945,9467 11745,9467 Z"/>
 <path fill="none" stroke="rgb(255,211,32)" stroke-linejoin="round" d="M 11745,9467 L 11845,9667 11945,9467 11745,9467 Z"/>
 <path fill="rgb(255,211,32)" stroke="none" d="M 11955,9622 L 12055,9822 12155,9622 11955,9622 Z"/>
 <path fill="none" stroke="rgb(255,211,32)" stroke-linejoin="round" d="M 11955,9622 L 12055,9822 12155,9622 11955,9622 Z"/>
 <path fill="rgb(255,211,32)" stroke="none" d="M 12166,8231 L 12266,8431 12366,8231 12166,8231 Z"/>
 <path fill="none" stroke="rgb(255,211,32)" stroke-linejoin="round" d="M 12166,8231 L 12266,8431 12366,8231 12166,8231 Z"/>
 <path fill="rgb(255,211,32)" stroke="none" d="M 12376,8772 L 12476,8972 12576,8772 12376,8772 Z"/>
 <path fill="none" stroke="rgb(255,211,32)" stroke-linejoin="round" d="M 12376,8772 L 12476,8972 12576,8772 12376,8772 Z"/>
 <path fill="rgb(255,211,32)" stroke="none" d="M 12586,8231 L 12686,8431 12786,8231 12586,8231 Z"/>
 <path fill="none" stroke="rgb(255,211,32)" stroke-linejoin="round" d="M 12586,8231 L 12686,8431 12786,8231 12586,8231 Z"/>
 <path fill="rgb(255,211,32)" stroke="none" d="M 12797,9081 L 12897,9281 12997,9081 12797,9081 Z"/>
 <path fill="none" stroke="rgb(255,211,32)" stroke-linejoin="round" d="M 12797,9081 L 12897,9281 12997,9081 12797,9081 Z"/>
 <path fill="rgb(255,211,32)" stroke="none" d="M 13007,9081 L 13107,9281 13207,9081 13007,9081 Z"/>
 <path fill="none" stroke="rgb(255,211,32)" stroke-linejoin="round" d="M 13007,9081 L 13107,9281 13207,9081 13007,9081 Z"/>
 <path fill="rgb(255,211,32)" stroke="none" d="M 13218,7844 L 13318,8044 13418,7844 13218,7844 Z"/>
 <path fill="none" stroke="rgb(255,211,32)" stroke-linejoin="round" d="M 13218,7844 L 13318,8044 13418,7844 13218,7844 Z"/>
 <path fill="rgb(255,211,32)" stroke="none" d="M 13428,9390 L 13528,9590 13628,9390 13428,9390 Z"/>
 <path fill="none" stroke="rgb(255,211,32)" stroke-linejoin="round" d="M 13428,9390 L 13528,9590 13628,9390 13428,9390 Z"/>
 <path fill="rgb(255,211,32)" stroke="none" d="M 13639,10085 L 13739,10285 13839,10085 13639,10085 Z"/>
 <path fill="none" stroke="rgb(255,211,32)" stroke-linejoin="round" d="M 13639,10085 L 13739,10285 13839,10085 13639,10085 Z"/>
 <path fill="rgb(255,211,32)" stroke="none" d="M 13849,10395 L 13949,10595 14049,10395 13849,10395 Z"/>
 <path fill="none" stroke="rgb(255,211,32)" stroke-linejoin="round" d="M 13849,10395 L 13949,10595 14049,10395 13849,10395 Z"/>
 <path fill="rgb(255,211,32)" stroke="none" d="M 14059,9854 L 14159,10054 14259,9854 14059,9854 Z"/>
 <path fill="none" stroke="rgb(255,211,32)" stroke-linejoin="round" d="M 14059,9854 L 14159,10054 14259,9854 14059,9854 Z"/>
 <path fill="rgb(255,211,32)" stroke="none" d="M 14270,9776 L 14370,9976 14470,9776 14270,9776 Z"/>
 <path fill="none" stroke="rgb(255,211,32)" stroke-linejoin="round" d="M 14270,9776 L 14370,9976 14470,9776 14270,9776 Z"/>
 <path fill="rgb(255,211,32)" stroke="none" d="M 14480,9390 L 14580,9590 14680,9390 14480,9390 Z"/>
 <path fill="none" stroke="rgb(255,211,32)" stroke-linejoin="round" d="M 14480,9390 L 14580,9590 14680,9390 14480,9390 Z"/>
 <path fill="none" stroke="rgb(87,157,28)" stroke-width="50" stroke-linejoin="round" d="M 5533,10934 L 5743,11268 5954,10934 6164,11268 6374,11268 6585,10934 6795,10266 7006,10600 7216,10600 7427,10600 7636,10600 7847,9932 8057,8597 8267,6928 8478,4927 8688,7596 8899,4927 9109,7262 9320,9265 9530,2256 9740,4927 9951,1589 10161,4927 10372,8597 10582,7930 10793,7930 11003,1255 11213,6928 11424,7262 11634,9599 11845,6261 12055,8263 12266,8263 12476,6928 12686,8597 12897,5594 13107,6928 13318,8597 13528,9932 13739,9599 13949,8597 14159,8931 14370,10266 14580,9932"/>
 <path fill="rgb(87,157,28)" stroke="none" d="M 5433,11034 L 5633,11034 5533,10834 5433,11034 Z"/>
 <path fill="none" stroke="rgb(87,157,28)" stroke-linejoin="round" d="M 5433,11034 L 5633,11034 5533,10834 5433,11034 Z"/>
 <path fill="rgb(87,157,28)" stroke="none" d="M 5643,11368 L 5843,11368 5743,11168 5643,11368 Z"/>
 <path fill="none" stroke="rgb(87,157,28)" stroke-linejoin="round" d="M 5643,11368 L 5843,11368 5743,11168 5643,11368 Z"/>
 <path fill="rgb(87,157,28)" stroke="none" d="M 5854,11034 L 6054,11034 5954,10834 5854,11034 Z"/>
 <path fill="none" stroke="rgb(87,157,28)" stroke-linejoin="round" d="M 5854,11034 L 6054,11034 5954,10834 5854,11034 Z"/>
 <path fill="rgb(87,157,28)" stroke="none" d="M 6064,11368 L 6264,11368 6164,11168 6064,11368 Z"/>
 <path fill="none" stroke="rgb(87,157,28)" stroke-linejoin="round" d="M 6064,11368 L 6264,11368 6164,11168 6064,11368 Z"/>
 <path fill="rgb(87,157,28)" stroke="none" d="M 6274,11368 L 6474,11368 6374,11168 6274,11368 Z"/>
 <path fill="none" stroke="rgb(87,157,28)" stroke-linejoin="round" d="M 6274,11368 L 6474,11368 6374,11168 6274,11368 Z"/>
 <path fill="rgb(87,157,28)" stroke="none" d="M 6485,11034 L 6685,11034 6585,10834 6485,11034 Z"/>
 <path fill="none" stroke="rgb(87,157,28)" stroke-linejoin="round" d="M 6485,11034 L 6685,11034 6585,10834 6485,11034 Z"/>
 <path fill="rgb(87,157,28)" stroke="none" d="M 6695,10366 L 6895,10366 6795,10166 6695,10366 Z"/>
 <path fill="none" stroke="rgb(87,157,28)" stroke-linejoin="round" d="M 6695,10366 L 6895,10366 6795,10166 6695,10366 Z"/>
 <path fill="rgb(87,157,28)" stroke="none" d="M 6906,10700 L 7106,10700 7006,10500 6906,10700 Z"/>
 <path fill="none" stroke="rgb(87,157,28)" stroke-linejoin="round" d="M 6906,10700 L 7106,10700 7006,10500 6906,10700 Z"/>
 <path fill="rgb(87,157,28)" stroke="none" d="M 7116,10700 L 7316,10700 7216,10500 7116,10700 Z"/>
 <path fill="none" stroke="rgb(87,157,28)" stroke-linejoin="round" d="M 7116,10700 L 7316,10700 7216,10500 7116,10700 Z"/>
 <path fill="rgb(87,157,28)" stroke="none" d="M 7327,10700 L 7526,10700 7427,10500 7327,10700 Z"/>
 <path fill="none" stroke="rgb(87,157,28)" stroke-linejoin="round" d="M 7327,10700 L 7526,10700 7427,10500 7327,10700 Z"/>
 <path fill="rgb(87,157,28)" stroke="none" d="M 7536,10700 L 7736,10700 7636,10500 7536,10700 Z"/>
 <path fill="none" stroke="rgb(87,157,28)" stroke-linejoin="round" d="M 7536,10700 L 7736,10700 7636,10500 7536,10700 Z"/>
 <path fill="rgb(87,157,28)" stroke="none" d="M 7747,10032 L 7947,10032 7847,9832 7747,10032 Z"/>
 <path fill="none" stroke="rgb(87,157,28)" stroke-linejoin="round" d="M 7747,10032 L 7947,10032 7847,9832 7747,10032 Z"/>
 <path fill="rgb(87,157,28)" stroke="none" d="M 7957,8697 L 8157,8697 8057,8497 7957,8697 Z"/>
 <path fill="none" stroke="rgb(87,157,28)" stroke-linejoin="round" d="M 7957,8697 L 8157,8697 8057,8497 7957,8697 Z"/>
 <path fill="rgb(87,157,28)" stroke="none" d="M 8167,7028 L 8367,7028 8267,6828 8167,7028 Z"/>
 <path fill="none" stroke="rgb(87,157,28)" stroke-linejoin="round" d="M 8167,7028 L 8367,7028 8267,6828 8167,7028 Z"/>
 <path fill="rgb(87,157,28)" stroke="none" d="M 8378,5027 L 8578,5027 8478,4827 8378,5027 Z"/>
 <path fill="none" stroke="rgb(87,157,28)" stroke-linejoin="round" d="M 8378,5027 L 8578,5027 8478,4827 8378,5027 Z"/>
 <path fill="rgb(87,157,28)" stroke="none" d="M 8588,7696 L 8788,7696 8688,7496 8588,7696 Z"/>
 <path fill="none" stroke="rgb(87,157,28)" stroke-linejoin="round" d="M 8588,7696 L 8788,7696 8688,7496 8588,7696 Z"/>
 <path fill="rgb(87,157,28)" stroke="none" d="M 8799,5027 L 8999,5027 8899,4827 8799,5027 Z"/>
 <path fill="none" stroke="rgb(87,157,28)" stroke-linejoin="round" d="M 8799,5027 L 8999,5027 8899,4827 8799,5027 Z"/>
 <path fill="rgb(87,157,28)" stroke="none" d="M 9009,7362 L 9209,7362 9109,7162 9009,7362 Z"/>
 <path fill="none" stroke="rgb(87,157,28)" stroke-linejoin="round" d="M 9009,7362 L 9209,7362 9109,7162 9009,7362 Z"/>
 <path fill="rgb(87,157,28)" stroke="none" d="M 9220,9365 L 9420,9365 9320,9165 9220,9365 Z"/>
 <path fill="none" stroke="rgb(87,157,28)" stroke-linejoin="round" d="M 9220,9365 L 9420,9365 9320,9165 9220,9365 Z"/>
 <path fill="rgb(87,157,28)" stroke="none" d="M 9430,2356 L 9630,2356 9530,2156 9430,2356 Z"/>
 <path fill="none" stroke="rgb(87,157,28)" stroke-linejoin="round" d="M 9430,2356 L 9630,2356 9530,2156 9430,2356 Z"/>
 <path fill="rgb(87,157,28)" stroke="none" d="M 9640,5027 L 9840,5027 9740,4827 9640,5027 Z"/>
 <path fill="none" stroke="rgb(87,157,28)" stroke-linejoin="round" d="M 9640,5027 L 9840,5027 9740,4827 9640,5027 Z"/>
 <path fill="rgb(87,157,28)" stroke="none" d="M 9851,1689 L 10051,1689 9951,1489 9851,1689 Z"/>
 <path fill="none" stroke="rgb(87,157,28)" stroke-linejoin="round" d="M 9851,1689 L 10051,1689 9951,1489 9851,1689 Z"/>
 <path fill="rgb(87,157,28)" stroke="none" d="M 10061,5027 L 10261,5027 10161,4827 10061,5027 Z"/>
 <path fill="none" stroke="rgb(87,157,28)" stroke-linejoin="round" d="M 10061,5027 L 10261,5027 10161,4827 10061,5027 Z"/>
 <path fill="rgb(87,157,28)" stroke="none" d="M 10272,8697 L 10472,8697 10372,8497 10272,8697 Z"/>
 <path fill="none" stroke="rgb(87,157,28)" stroke-linejoin="round" d="M 10272,8697 L 10472,8697 10372,8497 10272,8697 Z"/>
 <path fill="rgb(87,157,28)" stroke="none" d="M 10482,8030 L 10682,8030 10582,7830 10482,8030 Z"/>
 <path fill="none" stroke="rgb(87,157,28)" stroke-linejoin="round" d="M 10482,8030 L 10682,8030 10582,7830 10482,8030 Z"/>
 <path fill="rgb(87,157,28)" stroke="none" d="M 10693,8030 L 10893,8030 10793,7830 10693,8030 Z"/>
 <path fill="none" stroke="rgb(87,157,28)" stroke-linejoin="round" d="M 10693,8030 L 10893,8030 10793,7830 10693,8030 Z"/>
 <path fill="rgb(87,157,28)" stroke="none" d="M 10903,1355 L 11103,1355 11003,1155 10903,1355 Z"/>
 <path fill="none" stroke="rgb(87,157,28)" stroke-linejoin="round" d="M 10903,1355 L 11103,1355 11003,1155 10903,1355 Z"/>
 <path fill="rgb(87,157,28)" stroke="none" d="M 11113,7028 L 11313,7028 11213,6828 11113,7028 Z"/>
 <path fill="none" stroke="rgb(87,157,28)" stroke-linejoin="round" d="M 11113,7028 L 11313,7028 11213,6828 11113,7028 Z"/>
 <path fill="rgb(87,157,28)" stroke="none" d="M 11324,7362 L 11524,7362 11424,7162 11324,7362 Z"/>
 <path fill="none" stroke="rgb(87,157,28)" stroke-linejoin="round" d="M 11324,7362 L 11524,7362 11424,7162 11324,7362 Z"/>
 <path fill="rgb(87,157,28)" stroke="none" d="M 11534,9699 L 11734,9699 11634,9499 11534,9699 Z"/>
 <path fill="none" stroke="rgb(87,157,28)" stroke-linejoin="round" d="M 11534,9699 L 11734,9699 11634,9499 11534,9699 Z"/>
 <path fill="rgb(87,157,28)" stroke="none" d="M 11745,6361 L 11945,6361 11845,6161 11745,6361 Z"/>
 <path fill="none" stroke="rgb(87,157,28)" stroke-linejoin="round" d="M 11745,6361 L 11945,6361 11845,6161 11745,6361 Z"/>
 <path fill="rgb(87,157,28)" stroke="none" d="M 11955,8363 L 12155,8363 12055,8163 11955,8363 Z"/>
 <path fill="none" stroke="rgb(87,157,28)" stroke-linejoin="round" d="M 11955,8363 L 12155,8363 12055,8163 11955,8363 Z"/>
 <path fill="rgb(87,157,28)" stroke="none" d="M 12166,8363 L 12366,8363 12266,8163 12166,8363 Z"/>
 <path fill="none" stroke="rgb(87,157,28)" stroke-linejoin="round" d="M 12166,8363 L 12366,8363 12266,8163 12166,8363 Z"/>
 <path fill="rgb(87,157,28)" stroke="none" d="M 12376,7028 L 12576,7028 12476,6828 12376,7028 Z"/>
 <path fill="none" stroke="rgb(87,157,28)" stroke-linejoin="round" d="M 12376,7028 L 12576,7028 12476,6828 12376,7028 Z"/>
 <path fill="rgb(87,157,28)" stroke="none" d="M 12586,8697 L 12786,8697 12686,8497 12586,8697 Z"/>
 <path fill="none" stroke="rgb(87,157,28)" stroke-linejoin="round" d="M 12586,8697 L 12786,8697 12686,8497 12586,8697 Z"/>
 <path fill="rgb(87,157,28)" stroke="none" d="M 12797,5694 L 12997,5694 12897,5494 12797,5694 Z"/>
 <path fill="none" stroke="rgb(87,157,28)" stroke-linejoin="round" d="M 12797,5694 L 12997,5694 12897,5494 12797,5694 Z"/>
 <path fill="rgb(87,157,28)" stroke="none" d="M 13007,7028 L 13207,7028 13107,6828 13007,7028 Z"/>
 <path fill="none" stroke="rgb(87,157,28)" stroke-linejoin="round" d="M 13007,7028 L 13207,7028 13107,6828 13007,7028 Z"/>
 <path fill="rgb(87,157,28)" stroke="none" d="M 13218,8697 L 13418,8697 13318,8497 13218,8697 Z"/>
 <path fill="none" stroke="rgb(87,157,28)" stroke-linejoin="round" d="M 13218,8697 L 13418,8697 13318,8497 13218,8697 Z"/>
 <path fill="rgb(87,157,28)" stroke="none" d="M 13428,10032 L 13628,10032 13528,9832 13428,10032 Z"/>
 <path fill="none" stroke="rgb(87,157,28)" stroke-linejoin="round" d="M 13428,10032 L 13628,10032 13528,9832 13428,10032 Z"/>
 <path fill="rgb(87,157,28)" stroke="none" d="M 13639,9699 L 13839,9699 13739,9499 13639,9699 Z"/>
 <path fill="none" stroke="rgb(87,157,28)" stroke-linejoin="round" d="M 13639,9699 L 13839,9699 13739,9499 13639,9699 Z"/>
 <path fill="rgb(87,157,28)" stroke="none" d="M 13849,8697 L 14049,8697 13949,8497 13849,8697 Z"/>
 <path fill="none" stroke="rgb(87,157,28)" stroke-linejoin="round" d="M 13849,8697 L 14049,8697 13949,8497 13849,8697 Z"/>
 <path fill="rgb(87,157,28)" stroke="none" d="M 14059,9031 L 14259,9031 14159,8831 14059,9031 Z"/>
 <path fill="none" stroke="rgb(87,157,28)" stroke-linejoin="round" d="M 14059,9031 L 14259,9031 14159,8831 14059,9031 Z"/>
 <path fill="rgb(87,157,28)" stroke="none" d="M 14270,10366 L 14470,10366 14370,10166 14270,10366 Z"/>
 <path fill="none" stroke="rgb(87,157,28)" stroke-linejoin="round" d="M 14270,10366 L 14470,10366 14370,10166 14270,10366 Z"/>
 <path fill="rgb(87,157,28)" stroke="none" d="M 14480,10032 L 14680,10032 14580,9832 14480,10032 Z"/>
 <path fill="none" stroke="rgb(87,157,28)" stroke-linejoin="round" d="M 14480,10032 L 14680,10032 14580,9832 14480,10032 Z"/>
 <path fill="none" stroke="rgb(126,0,33)" stroke-width="50" stroke-linejoin="round" d="M 4060,11116 L 4270,11268 4481,11116 4691,10814 4901,11268 5112,11116 5322,11268 5533,10512 5743,10814 5954,11268 6164,9907 6374,11268 6585,9303 6795,10663 7006,9303 7216,8547 7427,9152 7636,9454 7847,7791 8057,9303 8267,7943 8478,7489 8688,7187 8899,9152 9109,4619 9320,6431 9530,7036 9740,4619 9951,4770 10161,6431 10372,6280 10582,5525 10793,6280 11003,5525 11213,3863 11424,3107 11634,5223 11845,5828 12055,5374 12266,7187 12476,7036 12686,4770 12897,3107 13107,5828 13318,7036 13528,4921 13739,8396 13949,7943 14159,8094 14370,4770 14580,7338"/>
 <path fill="rgb(126,0,33)" stroke="none" d="M 3960,11016 L 3960,11216 4160,11116 3960,11016 Z"/>
 <path fill="none" stroke="rgb(126,0,33)" stroke-linejoin="round" d="M 3960,11016 L 3960,11216 4160,11116 3960,11016 Z"/>
 <path fill="rgb(126,0,33)" stroke="none" d="M 4170,11168 L 4170,11368 4370,11268 4170,11168 Z"/>
 <path fill="none" stroke="rgb(126,0,33)" stroke-linejoin="round" d="M 4170,11168 L 4170,11368 4370,11268 4170,11168 Z"/>
 <path fill="rgb(126,0,33)" stroke="none" d="M 4381,11016 L 4381,11216 4581,11116 4381,11016 Z"/>
 <path fill="none" stroke="rgb(126,0,33)" stroke-linejoin="round" d="M 4381,11016 L 4381,11216 4581,11116 4381,11016 Z"/>
 <path fill="rgb(126,0,33)" stroke="none" d="M 4591,10714 L 4591,10914 4791,10814 4591,10714 Z"/>
 <path fill="none" stroke="rgb(126,0,33)" stroke-linejoin="round" d="M 4591,10714 L 4591,10914 4791,10814 4591,10714 Z"/>
 <path fill="rgb(126,0,33)" stroke="none" d="M 4801,11168 L 4801,11368 5001,11268 4801,11168 Z"/>
 <path fill="none" stroke="rgb(126,0,33)" stroke-linejoin="round" d="M 4801,11168 L 4801,11368 5001,11268 4801,11168 Z"/>
 <path fill="rgb(126,0,33)" stroke="none" d="M 5012,11016 L 5012,11216 5212,11116 5012,11016 Z"/>
 <path fill="none" stroke="rgb(126,0,33)" stroke-linejoin="round" d="M 5012,11016 L 5012,11216 5212,11116 5012,11016 Z"/>
 <path fill="rgb(126,0,33)" stroke="none" d="M 5222,11168 L 5222,11368 5422,11268 5222,11168 Z"/>
 <path fill="none" stroke="rgb(126,0,33)" stroke-linejoin="round" d="M 5222,11168 L 5222,11368 5422,11268 5222,11168 Z"/>
 <path fill="rgb(126,0,33)" stroke="none" d="M 5433,10412 L 5433,10612 5633,10512 5433,10412 Z"/>
 <path fill="none" stroke="rgb(126,0,33)" stroke-linejoin="round" d="M 5433,10412 L 5433,10612 5633,10512 5433,10412 Z"/>
 <path fill="rgb(126,0,33)" stroke="none" d="M 5643,10714 L 5643,10914 5843,10814 5643,10714 Z"/>
 <path fill="none" stroke="rgb(126,0,33)" stroke-linejoin="round" d="M 5643,10714 L 5643,10914 5843,10814 5643,10714 Z"/>
 <path fill="rgb(126,0,33)" stroke="none" d="M 5854,11168 L 5854,11368 6054,11268 5854,11168 Z"/>
 <path fill="none" stroke="rgb(126,0,33)" stroke-linejoin="round" d="M 5854,11168 L 5854,11368 6054,11268 5854,11168 Z"/>
 <path fill="rgb(126,0,33)" stroke="none" d="M 6064,9807 L 6064,10007 6264,9907 6064,9807 Z"/>
 <path fill="none" stroke="rgb(126,0,33)" stroke-linejoin="round" d="M 6064,9807 L 6064,10007 6264,9907 6064,9807 Z"/>
 <path fill="rgb(126,0,33)" stroke="none" d="M 6274,11168 L 6274,11368 6474,11268 6274,11168 Z"/>
 <path fill="none" stroke="rgb(126,0,33)" stroke-linejoin="round" d="M 6274,11168 L 6274,11368 6474,11268 6274,11168 Z"/>
 <path fill="rgb(126,0,33)" stroke="none" d="M 6485,9203 L 6485,9403 6685,9303 6485,9203 Z"/>
 <path fill="none" stroke="rgb(126,0,33)" stroke-linejoin="round" d="M 6485,9203 L 6485,9403 6685,9303 6485,9203 Z"/>
 <path fill="rgb(126,0,33)" stroke="none" d="M 6695,10563 L 6695,10763 6895,10663 6695,10563 Z"/>
 <path fill="none" stroke="rgb(126,0,33)" stroke-linejoin="round" d="M 6695,10563 L 6695,10763 6895,10663 6695,10563 Z"/>
 <path fill="rgb(126,0,33)" stroke="none" d="M 6906,9203 L 6906,9403 7106,9303 6906,9203 Z"/>
 <path fill="none" stroke="rgb(126,0,33)" stroke-linejoin="round" d="M 6906,9203 L 6906,9403 7106,9303 6906,9203 Z"/>
 <path fill="rgb(126,0,33)" stroke="none" d="M 7116,8447 L 7116,8647 7316,8547 7116,8447 Z"/>
 <path fill="none" stroke="rgb(126,0,33)" stroke-linejoin="round" d="M 7116,8447 L 7116,8647 7316,8547 7116,8447 Z"/>
 <path fill="rgb(126,0,33)" stroke="none" d="M 7327,9052 L 7327,9252 7526,9152 7327,9052 Z"/>
 <path fill="none" stroke="rgb(126,0,33)" stroke-linejoin="round" d="M 7327,9052 L 7327,9252 7526,9152 7327,9052 Z"/>
 <path fill="rgb(126,0,33)" stroke="none" d="M 7536,9354 L 7536,9554 7736,9454 7536,9354 Z"/>
 <path fill="none" stroke="rgb(126,0,33)" stroke-linejoin="round" d="M 7536,9354 L 7536,9554 7736,9454 7536,9354 Z"/>
 <path fill="rgb(126,0,33)" stroke="none" d="M 7747,7691 L 7747,7891 7947,7791 7747,7691 Z"/>
 <path fill="none" stroke="rgb(126,0,33)" stroke-linejoin="round" d="M 7747,7691 L 7747,7891 7947,7791 7747,7691 Z"/>
 <path fill="rgb(126,0,33)" stroke="none" d="M 7957,9203 L 7957,9403 8157,9303 7957,9203 Z"/>
 <path fill="none" stroke="rgb(126,0,33)" stroke-linejoin="round" d="M 7957,9203 L 7957,9403 8157,9303 7957,9203 Z"/>
 <path fill="rgb(126,0,33)" stroke="none" d="M 8167,7843 L 8167,8043 8367,7943 8167,7843 Z"/>
 <path fill="none" stroke="rgb(126,0,33)" stroke-linejoin="round" d="M 8167,7843 L 8167,8043 8367,7943 8167,7843 Z"/>
 <path fill="rgb(126,0,33)" stroke="none" d="M 8378,7389 L 8378,7589 8578,7489 8378,7389 Z"/>
 <path fill="none" stroke="rgb(126,0,33)" stroke-linejoin="round" d="M 8378,7389 L 8378,7589 8578,7489 8378,7389 Z"/>
 <path fill="rgb(126,0,33)" stroke="none" d="M 8588,7087 L 8588,7287 8788,7187 8588,7087 Z"/>
 <path fill="none" stroke="rgb(126,0,33)" stroke-linejoin="round" d="M 8588,7087 L 8588,7287 8788,7187 8588,7087 Z"/>
 <path fill="rgb(126,0,33)" stroke="none" d="M 8799,9052 L 8799,9252 8999,9152 8799,9052 Z"/>
 <path fill="none" stroke="rgb(126,0,33)" stroke-linejoin="round" d="M 8799,9052 L 8799,9252 8999,9152 8799,9052 Z"/>
 <path fill="rgb(126,0,33)" stroke="none" d="M 9009,4519 L 9009,4719 9209,4619 9009,4519 Z"/>
 <path fill="none" stroke="rgb(126,0,33)" stroke-linejoin="round" d="M 9009,4519 L 9009,4719 9209,4619 9009,4519 Z"/>
 <path fill="rgb(126,0,33)" stroke="none" d="M 9220,6331 L 9220,6531 9420,6431 9220,6331 Z"/>
 <path fill="none" stroke="rgb(126,0,33)" stroke-linejoin="round" d="M 9220,6331 L 9220,6531 9420,6431 9220,6331 Z"/>
 <path fill="rgb(126,0,33)" stroke="none" d="M 9430,6936 L 9430,7136 9630,7036 9430,6936 Z"/>
 <path fill="none" stroke="rgb(126,0,33)" stroke-linejoin="round" d="M 9430,6936 L 9430,7136 9630,7036 9430,6936 Z"/>
 <path fill="rgb(126,0,33)" stroke="none" d="M 9640,4519 L 9640,4719 9840,4619 9640,4519 Z"/>
 <path fill="none" stroke="rgb(126,0,33)" stroke-linejoin="round" d="M 9640,4519 L 9640,4719 9840,4619 9640,4519 Z"/>
 <path fill="rgb(126,0,33)" stroke="none" d="M 9851,4670 L 9851,4870 10051,4770 9851,4670 Z"/>
 <path fill="none" stroke="rgb(126,0,33)" stroke-linejoin="round" d="M 9851,4670 L 9851,4870 10051,4770 9851,4670 Z"/>
 <path fill="rgb(126,0,33)" stroke="none" d="M 10061,6331 L 10061,6531 10261,6431 10061,6331 Z"/>
 <path fill="none" stroke="rgb(126,0,33)" stroke-linejoin="round" d="M 10061,6331 L 10061,6531 10261,6431 10061,6331 Z"/>
 <path fill="rgb(126,0,33)" stroke="none" d="M 10272,6180 L 10272,6380 10472,6280 10272,6180 Z"/>
 <path fill="none" stroke="rgb(126,0,33)" stroke-linejoin="round" d="M 10272,6180 L 10272,6380 10472,6280 10272,6180 Z"/>
 <path fill="rgb(126,0,33)" stroke="none" d="M 10482,5425 L 10482,5625 10682,5525 10482,5425 Z"/>
 <path fill="none" stroke="rgb(126,0,33)" stroke-linejoin="round" d="M 10482,5425 L 10482,5625 10682,5525 10482,5425 Z"/>
 <path fill="rgb(126,0,33)" stroke="none" d="M 10693,6180 L 10693,6380 10893,6280 10693,6180 Z"/>
 <path fill="none" stroke="rgb(126,0,33)" stroke-linejoin="round" d="M 10693,6180 L 10693,6380 10893,6280 10693,6180 Z"/>
 <path fill="rgb(126,0,33)" stroke="none" d="M 10903,5425 L 10903,5625 11103,5525 10903,5425 Z"/>
 <path fill="none" stroke="rgb(126,0,33)" stroke-linejoin="round" d="M 10903,5425 L 10903,5625 11103,5525 10903,5425 Z"/>
 <path fill="rgb(126,0,33)" stroke="none" d="M 11113,3763 L 11113,3963 11313,3863 11113,3763 Z"/>
 <path fill="none" stroke="rgb(126,0,33)" stroke-linejoin="round" d="M 11113,3763 L 11113,3963 11313,3863 11113,3763 Z"/>
 <path fill="rgb(126,0,33)" stroke="none" d="M 11324,3007 L 11324,3207 11524,3107 11324,3007 Z"/>
 <path fill="none" stroke="rgb(126,0,33)" stroke-linejoin="round" d="M 11324,3007 L 11324,3207 11524,3107 11324,3007 Z"/>
 <path fill="rgb(126,0,33)" stroke="none" d="M 11534,5123 L 11534,5323 11734,5223 11534,5123 Z"/>
 <path fill="none" stroke="rgb(126,0,33)" stroke-linejoin="round" d="M 11534,5123 L 11534,5323 11734,5223 11534,5123 Z"/>
 <path fill="rgb(126,0,33)" stroke="none" d="M 11745,5728 L 11745,5928 11945,5828 11745,5728 Z"/>
 <path fill="none" stroke="rgb(126,0,33)" stroke-linejoin="round" d="M 11745,5728 L 11745,5928 11945,5828 11745,5728 Z"/>
 <path fill="rgb(126,0,33)" stroke="none" d="M 11955,5274 L 11955,5474 12155,5374 11955,5274 Z"/>
 <path fill="none" stroke="rgb(126,0,33)" stroke-linejoin="round" d="M 11955,5274 L 11955,5474 12155,5374 11955,5274 Z"/>
 <path fill="rgb(126,0,33)" stroke="none" d="M 12166,7087 L 12166,7287 12366,7187 12166,7087 Z"/>
 <path fill="none" stroke="rgb(126,0,33)" stroke-linejoin="round" d="M 12166,7087 L 12166,7287 12366,7187 12166,7087 Z"/>
 <path fill="rgb(126,0,33)" stroke="none" d="M 12376,6936 L 12376,7136 12576,7036 12376,6936 Z"/>
 <path fill="none" stroke="rgb(126,0,33)" stroke-linejoin="round" d="M 12376,6936 L 12376,7136 12576,7036 12376,6936 Z"/>
 <path fill="rgb(126,0,33)" stroke="none" d="M 12586,4670 L 12586,4870 12786,4770 12586,4670 Z"/>
 <path fill="none" stroke="rgb(126,0,33)" stroke-linejoin="round" d="M 12586,4670 L 12586,4870 12786,4770 12586,4670 Z"/>
 <path fill="rgb(126,0,33)" stroke="none" d="M 12797,3007 L 12797,3207 12997,3107 12797,3007 Z"/>
 <path fill="none" stroke="rgb(126,0,33)" stroke-linejoin="round" d="M 12797,3007 L 12797,3207 12997,3107 12797,3007 Z"/>
 <path fill="rgb(126,0,33)" stroke="none" d="M 13007,5728 L 13007,5928 13207,5828 13007,5728 Z"/>
 <path fill="none" stroke="rgb(126,0,33)" stroke-linejoin="round" d="M 13007,5728 L 13007,5928 13207,5828 13007,5728 Z"/>
 <path fill="rgb(126,0,33)" stroke="none" d="M 13218,6936 L 13218,7136 13418,7036 13218,6936 Z"/>
 <path fill="none" stroke="rgb(126,0,33)" stroke-linejoin="round" d="M 13218,6936 L 13218,7136 13418,7036 13218,6936 Z"/>
 <path fill="rgb(126,0,33)" stroke="none" d="M 13428,4821 L 13428,5021 13628,4921 13428,4821 Z"/>
 <path fill="none" stroke="rgb(126,0,33)" stroke-linejoin="round" d="M 13428,4821 L 13428,5021 13628,4921 13428,4821 Z"/>
 <path fill="rgb(126,0,33)" stroke="none" d="M 13639,8296 L 13639,8496 13839,8396 13639,8296 Z"/>
 <path fill="none" stroke="rgb(126,0,33)" stroke-linejoin="round" d="M 13639,8296 L 13639,8496 13839,8396 13639,8296 Z"/>
 <path fill="rgb(126,0,33)" stroke="none" d="M 13849,7843 L 13849,8043 14049,7943 13849,7843 Z"/>
 <path fill="none" stroke="rgb(126,0,33)" stroke-linejoin="round" d="M 13849,7843 L 13849,8043 14049,7943 13849,7843 Z"/>
 <path fill="rgb(126,0,33)" stroke="none" d="M 14059,7994 L 14059,8194 14259,8094 14059,7994 Z"/>
 <path fill="none" stroke="rgb(126,0,33)" stroke-linejoin="round" d="M 14059,7994 L 14059,8194 14259,8094 14059,7994 Z"/>
 <path fill="rgb(126,0,33)" stroke="none" d="M 14270,4670 L 14270,4870 14470,4770 14270,4670 Z"/>
 <path fill="none" stroke="rgb(126,0,33)" stroke-linejoin="round" d="M 14270,4670 L 14270,4870 14470,4770 14270,4670 Z"/>
 <path fill="rgb(126,0,33)" stroke="none" d="M 14480,7238 L 14480,7438 14680,7338 14480,7238 Z"/>
 <path fill="none" stroke="rgb(126,0,33)" stroke-linejoin="round" d="M 14480,7238 L 14480,7438 14680,7338 14480,7238 Z"/>
 <text class="TextShape"><tspan class="TextParagraph" font-family="Liberation Sans, sans-serif" font-size="353px" font-weight="400"><tspan class="TextPosition" x="690" y="11836"><tspan fill="rgb(0,0,0)" stroke="none">20/02</tspan></tspan></tspan></text>
 <text class="TextShape"><tspan class="TextParagraph" font-family="Liberation Sans, sans-serif" font-size="353px" font-weight="400"><tspan class="TextPosition" x="2163" y="11836"><tspan fill="rgb(0,0,0)" stroke="none">27/02</tspan></tspan></tspan></text>
 <text class="TextShape"><tspan class="TextParagraph" font-family="Liberation Sans, sans-serif" font-size="353px" font-weight="400"><tspan class="TextPosition" x="3636" y="11836"><tspan fill="rgb(0,0,0)" stroke="none">05/03</tspan></tspan></tspan></text>
 <text class="TextShape"><tspan class="TextParagraph" font-family="Liberation Sans, sans-serif" font-size="353px" font-weight="400"><tspan class="TextPosition" x="5109" y="11836"><tspan fill="rgb(0,0,0)" stroke="none">12/03</tspan></tspan></tspan></text>
 <text class="TextShape"><tspan class="TextParagraph" font-family="Liberation Sans, sans-serif" font-size="353px" font-weight="400"><tspan class="TextPosition" x="6582" y="11836"><tspan fill="rgb(0,0,0)" stroke="none">19/03</tspan></tspan></tspan></text>
 <text class="TextShape"><tspan class="TextParagraph" font-family="Liberation Sans, sans-serif" font-size="353px" font-weight="400"><tspan class="TextPosition" x="8055" y="11836"><tspan fill="rgb(0,0,0)" stroke="none">26/03</tspan></tspan></tspan></text>
 <text class="TextShape"><tspan class="TextParagraph" font-family="Liberation Sans, sans-serif" font-size="353px" font-weight="400"><tspan class="TextPosition" x="9528" y="11836"><tspan fill="rgb(0,0,0)" stroke="none">02/04</tspan></tspan></tspan></text>
 <text class="TextShape"><tspan class="TextParagraph" font-family="Liberation Sans, sans-serif" font-size="353px" font-weight="400"><tspan class="TextPosition" x="11001" y="11836"><tspan fill="rgb(0,0,0)" stroke="none">09/04</tspan></tspan></tspan></text>
 <text class="TextShape"><tspan class="TextParagraph" font-family="Liberation Sans, sans-serif" font-size="353px" font-weight="400"><tspan class="TextPosition" x="12474" y="11836"><tspan fill="rgb(0,0,0)" stroke="none">16/04</tspan></tspan></tspan></text>
 <text class="TextShape"><tspan class="TextParagraph" font-family="Liberation Sans, sans-serif" font-size="353px" font-weight="400"><tspan class="TextPosition" x="13947" y="11836"><tspan fill="rgb(0,0,0)" stroke="none">23/04</tspan></tspan></tspan></text>
 <text class="TextShape"><tspan class="TextParagraph" font-family="Liberation Sans, sans-serif" font-size="353px" font-weight="400"><tspan class="TextPosition" x="574" y="11389"><tspan fill="rgb(0,0,0)" stroke="none">0</tspan></tspan></tspan></text>
 <text class="TextShape"><tspan class="TextParagraph" font-family="Liberation Sans, sans-serif" font-size="353px" font-weight="400"><tspan class="TextPosition" x="389" y="9925"><tspan fill="rgb(0,0,0)" stroke="none">20</tspan></tspan></tspan></text>
 <text class="TextShape"><tspan class="TextParagraph" font-family="Liberation Sans, sans-serif" font-size="353px" font-weight="400"><tspan class="TextPosition" x="389" y="8462"><tspan fill="rgb(0,0,0)" stroke="none">40</tspan></tspan></tspan></text>
 <text class="TextShape"><tspan class="TextParagraph" font-family="Liberation Sans, sans-serif" font-size="353px" font-weight="400"><tspan class="TextPosition" x="389" y="6999"><tspan fill="rgb(0,0,0)" stroke="none">60</tspan></tspan></tspan></text>
 <text class="TextShape"><tspan class="TextParagraph" font-family="Liberation Sans, sans-serif" font-size="353px" font-weight="400"><tspan class="TextPosition" x="389" y="5535"><tspan fill="rgb(0,0,0)" stroke="none">80</tspan></tspan></tspan></text>
 <text class="TextShape"><tspan class="TextParagraph" font-family="Liberation Sans, sans-serif" font-size="353px" font-weight="400"><tspan class="TextPosition" x="203" y="4072"><tspan fill="rgb(0,0,0)" stroke="none">100</tspan></tspan></tspan></text>
 <text class="TextShape"><tspan class="TextParagraph" font-family="Liberation Sans, sans-serif" font-size="353px" font-weight="400"><tspan class="TextPosition" x="203" y="2609"><tspan fill="rgb(0,0,0)" stroke="none">120</tspan></tspan></tspan></text>
 <text class="TextShape"><tspan class="TextParagraph" font-family="Liberation Sans, sans-serif" font-size="353px" font-weight="400"><tspan class="TextPosition" x="203" y="1146"><tspan fill="rgb(0,0,0)" stroke="none">140</tspan></tspan></tspan></text>
 <text class="TextShape"><tspan class="TextParagraph" font-family="Liberation Sans, sans-serif" font-size="459px" font-weight="400"><tspan class="TextPosition" x="603" y="631"><tspan fill="rgb(0,0,0)" stroke="none">Covid-19. Muertes diarias CCAA por milln de mayores de 65 aos (2)</tspan></tspan></tspan></text>
 <path fill="none" stroke="rgb(0,0,0)" stroke-width="50" stroke-linejoin="round" d="M 3964,2823 L 4764,2823"/>
 <path fill="rgb(0,0,0)" stroke="none" d="M 4258,2823 L 4364,2929 4469,2823 4364,2718 4258,2823 Z"/>
 <path fill="none" stroke="rgb(0,0,0)" stroke-linejoin="round" d="M 4258,2823 L 4364,2929 4469,2823 4364,2718 4258,2823 Z"/>
 <path fill="none" stroke="rgb(255,66,14)" stroke-width="50" stroke-linejoin="round" d="M 3964,3574 L 4764,3574"/>
 <path fill="rgb(255,66,14)" stroke="none" d="M 4258,3574 L 4364,3680 4469,3574 4364,3469 4258,3574 Z"/>
 <path fill="none" stroke="rgb(255,66,14)" stroke-linejoin="round" d="M 4258,3574 L 4364,3680 4469,3574 4364,3469 4258,3574 Z"/>
 <path fill="none" stroke="rgb(255,211,32)" stroke-width="50" stroke-linejoin="round" d="M 3964,4325 L 4764,4325"/>
 <path fill="rgb(255,211,32)" stroke="none" d="M 4258,4220 L 4364,4431 4469,4220 4258,4220 Z"/>
 <path fill="none" stroke="rgb(255,211,32)" stroke-linejoin="round" d="M 4258,4220 L 4364,4431 4469,4220 4258,4220 Z"/>
 <path fill="none" stroke="rgb(87,157,28)" stroke-width="50" stroke-linejoin="round" d="M 3964,5076 L 4764,5076"/>
 <path fill="rgb(87,157,28)" stroke="none" d="M 4258,5182 L 4469,5182 4364,4971 4258,5182 Z"/>
 <path fill="none" stroke="rgb(87,157,28)" stroke-linejoin="round" d="M 4258,5182 L 4469,5182 4364,4971 4258,5182 Z"/>
 <path fill="none" stroke="rgb(126,0,33)" stroke-width="50" stroke-linejoin="round" d="M 3964,5827 L 4764,5827"/>
 <path fill="rgb(126,0,33)" stroke="none" d="M 4258,5722 L 4258,5933 4469,5827 4258,5722 Z"/>
 <path fill="none" stroke="rgb(126,0,33)" stroke-linejoin="round" d="M 4258,5722 L 4258,5933 4469,5827 4258,5722 Z"/>
 <text class="TextShape"><tspan class="TextParagraph" font-family="Liberation Sans, sans-serif" font-size="353px" font-weight="400"><tspan class="TextPosition" x="4864" y="2943"><tspan fill="rgb(0,0,0)" stroke="none">Aragn</tspan></tspan></tspan></text>
 <text class="TextShape"><tspan class="TextParagraph" font-family="Liberation Sans, sans-serif" font-size="353px" font-weight="400"><tspan class="TextPosition" x="4864" y="3694"><tspan fill="rgb(0,0,0)" stroke="none">Cantabria</tspan></tspan></tspan></text>
 <text class="TextShape"><tspan class="TextParagraph" font-family="Liberation Sans, sans-serif" font-size="353px" font-weight="400"><tspan class="TextPosition" x="4864" y="4445"><tspan fill="rgb(0,0,0)" stroke="none">Comunidad Valenciana</tspan></tspan></tspan></text>
 <text class="TextShape"><tspan class="TextParagraph" font-family="Liberation Sans, sans-serif" font-size="353px" font-weight="400"><tspan class="TextPosition" x="4864" y="5196"><tspan fill="rgb(0,0,0)" stroke="none">Extremadura</tspan></tspan></tspan></text>
 <text class="TextShape"><tspan class="TextParagraph" font-family="Liberation Sans, sans-serif" font-size="353px" font-weight="400"><tspan class="TextPosition" x="4864" y="5947"><tspan fill="rgb(0,0,0)" stroke="none">Pas Vasco</tspan></tspan></tspan></text>
</svg>