<?xml version="1.0" encoding="UTF-8"?>
<!DOCTYPE svg PUBLIC "-//W3C//DTD SVG 1.1//EN" "http://www.w3.org/Graphics/SVG/1.1/DTD/svg11.dtd">
<svg width="150mm" height="120mm" viewBox="0 0 15000 12000" version="1.1" xmlns="http://www.w3.org/2000/svg" xmlns:xlink="http://www.w3.org/1999/xlink" stroke-width="28.222" stroke-linejoin="round" xml:space="preserve">
 <path fill="rgb(255,255,255)" stroke="none" d="M 7479,12000 L 0,12000 0,0 14958,0 14958,12000 7479,12000 Z"/>
 <path fill="none" stroke="rgb(0,0,0)" stroke-linejoin="round" d="M 7898,11009 L 1152,11009 1152,1027 14644,1027 14644,11009 7898,11009 Z"/>
 <path fill="none" stroke="rgb(0,0,0)" stroke-linejoin="round" d="M 14644,11008 L 1152,11008"/>
 <path fill="none" stroke="rgb(0,0,0)" stroke-linejoin="round" d="M 14644,10009 L 1152,10009"/>
 <path fill="none" stroke="rgb(0,0,0)" stroke-linejoin="round" d="M 14644,9011 L 1152,9011"/>
 <path fill="none" stroke="rgb(0,0,0)" stroke-linejoin="round" d="M 14644,8013 L 1152,8013"/>
 <path fill="none" stroke="rgb(0,0,0)" stroke-linejoin="round" d="M 14644,7014 L 1152,7014"/>
 <path fill="none" stroke="rgb(0,0,0)" stroke-linejoin="round" d="M 14644,6016 L 1152,6016"/>
 <path fill="none" stroke="rgb(0,0,0)" stroke-linejoin="round" d="M 14644,5019 L 1152,5019"/>
 <path fill="none" stroke="rgb(0,0,0)" stroke-linejoin="round" d="M 14644,4020 L 1152,4020"/>
 <path fill="none" stroke="rgb(0,0,0)" stroke-linejoin="round" d="M 14644,3022 L 1152,3022"/>
 <path fill="none" stroke="rgb(0,0,0)" stroke-linejoin="round" d="M 14644,2024 L 1152,2024"/>
 <path fill="none" stroke="rgb(0,0,0)" stroke-linejoin="round" d="M 14644,1026 L 1152,1026"/>
 <path fill="none" stroke="rgb(0,0,0)" stroke-linejoin="round" d="M 1152,11158 L 1152,11008"/>
 <path fill="none" stroke="rgb(0,0,0)" stroke-linejoin="round" d="M 1152,11158 L 1152,11008"/>
 <path fill="none" stroke="rgb(0,0,0)" stroke-linejoin="round" d="M 2362,11158 L 2362,11008"/>
 <path fill="none" stroke="rgb(0,0,0)" stroke-linejoin="round" d="M 2362,11158 L 2362,11008"/>
 <path fill="none" stroke="rgb(0,0,0)" stroke-linejoin="round" d="M 3573,11158 L 3573,11008"/>
 <path fill="none" stroke="rgb(0,0,0)" stroke-linejoin="round" d="M 3573,11158 L 3573,11008"/>
 <path fill="none" stroke="rgb(0,0,0)" stroke-linejoin="round" d="M 4783,11158 L 4783,11008"/>
 <path fill="none" stroke="rgb(0,0,0)" stroke-linejoin="round" d="M 4783,11158 L 4783,11008"/>
 <path fill="none" stroke="rgb(0,0,0)" stroke-linejoin="round" d="M 5995,11158 L 5995,11008"/>
 <path fill="none" stroke="rgb(0,0,0)" stroke-linejoin="round" d="M 5995,11158 L 5995,11008"/>
 <path fill="none" stroke="rgb(0,0,0)" stroke-linejoin="round" d="M 7205,11158 L 7205,11008"/>
 <path fill="none" stroke="rgb(0,0,0)" stroke-linejoin="round" d="M 7205,11158 L 7205,11008"/>
 <path fill="none" stroke="rgb(0,0,0)" stroke-linejoin="round" d="M 8416,11158 L 8416,11008"/>
 <path fill="none" stroke="rgb(0,0,0)" stroke-linejoin="round" d="M 8416,11158 L 8416,11008"/>
 <path fill="none" stroke="rgb(0,0,0)" stroke-linejoin="round" d="M 9627,11158 L 9627,11008"/>
 <path fill="none" stroke="rgb(0,0,0)" stroke-linejoin="round" d="M 9627,11158 L 9627,11008"/>
 <path fill="none" stroke="rgb(0,0,0)" stroke-linejoin="round" d="M 10838,11158 L 10838,11008"/>
 <path fill="none" stroke="rgb(0,0,0)" stroke-linejoin="round" d="M 10838,11158 L 10838,11008"/>
 <path fill="none" stroke="rgb(0,0,0)" stroke-linejoin="round" d="M 12048,11158 L 12048,11008"/>
 <path fill="none" stroke="rgb(0,0,0)" stroke-linejoin="round" d="M 12048,11158 L 12048,11008"/>
 <path fill="none" stroke="rgb(0,0,0)" stroke-linejoin="round" d="M 13260,11158 L 13260,11008"/>
 <path fill="none" stroke="rgb(0,0,0)" stroke-linejoin="round" d="M 13260,11158 L 13260,11008"/>
 <path fill="none" stroke="rgb(0,0,0)" stroke-linejoin="round" d="M 14470,11158 L 14470,11008"/>
 <path fill="none" stroke="rgb(0,0,0)" stroke-linejoin="round" d="M 14470,11158 L 14470,11008"/>
 <path fill="none" stroke="rgb(0,0,0)" stroke-linejoin="round" d="M 1152,11008 L 14644,11008"/>
 <path fill="none" stroke="rgb(0,0,0)" stroke-linejoin="round" d="M 1002,11008 L 1152,11008"/>
 <path fill="none" stroke="rgb(0,0,0)" stroke-linejoin="round" d="M 1002,11008 L 1152,11008"/>
 <path fill="none" stroke="rgb(0,0,0)" stroke-linejoin="round" d="M 1002,10009 L 1152,10009"/>
 <path fill="none" stroke="rgb(0,0,0)" stroke-linejoin="round" d="M 1002,10009 L 1152,10009"/>
 <path fill="none" stroke="rgb(0,0,0)" stroke-linejoin="round" d="M 1002,9011 L 1152,9011"/>
 <path fill="none" stroke="rgb(0,0,0)" stroke-linejoin="round" d="M 1002,9011 L 1152,9011"/>
 <path fill="none" stroke="rgb(0,0,0)" stroke-linejoin="round" d="M 1002,8013 L 1152,8013"/>
 <path fill="none" stroke="rgb(0,0,0)" stroke-linejoin="round" d="M 1002,8013 L 1152,8013"/>
 <path fill="none" stroke="rgb(0,0,0)" stroke-linejoin="round" d="M 1002,7014 L 1152,7014"/>
 <path fill="none" stroke="rgb(0,0,0)" stroke-linejoin="round" d="M 1002,7014 L 1152,7014"/>
 <path fill="none" stroke="rgb(0,0,0)" stroke-linejoin="round" d="M 1002,6016 L 1152,6016"/>
 <path fill="none" stroke="rgb(0,0,0)" stroke-linejoin="round" d="M 1002,6016 L 1152,6016"/>
 <path fill="none" stroke="rgb(0,0,0)" stroke-linejoin="round" d="M 1002,5019 L 1152,5019"/>
 <path fill="none" stroke="rgb(0,0,0)" stroke-linejoin="round" d="M 1002,5019 L 1152,5019"/>
 <path fill="none" stroke="rgb(0,0,0)" stroke-linejoin="round" d="M 1002,4020 L 1152,4020"/>
 <path fill="none" stroke="rgb(0,0,0)" stroke-linejoin="round" d="M 1002,4020 L 1152,4020"/>
 <path fill="none" stroke="rgb(0,0,0)" stroke-linejoin="round" d="M 1002,3022 L 1152,3022"/>
 <path fill="none" stroke="rgb(0,0,0)" stroke-linejoin="round" d="M 1002,3022 L 1152,3022"/>
 <path fill="none" stroke="rgb(0,0,0)" stroke-linejoin="round" d="M 1002,2024 L 1152,2024"/>
 <path fill="none" stroke="rgb(0,0,0)" stroke-linejoin="round" d="M 1002,2024 L 1152,2024"/>
 <path fill="none" stroke="rgb(0,0,0)" stroke-linejoin="round" d="M 1002,1026 L 1152,1026"/>
 <path fill="none" stroke="rgb(0,0,0)" stroke-linejoin="round" d="M 1002,1026 L 1152,1026"/>
 <path fill="none" stroke="rgb(0,0,0)" stroke-linejoin="round" d="M 1152,11008 L 1152,1026"/>
 <path fill="none" stroke="rgb(255,0,0)" stroke-width="50" stroke-linejoin="round" d="M 1237,10998 L 1411,11008 1583,11008 1757,11008 1929,11008 2103,11008 2275,11008 2449,11008 2621,11008 2795,11008 2967,11008 3140,11008 3313,11008 3486,11008 3659,10988 3832,10988 4005,10978 4178,10988 4351,10948 4524,10818 4697,10888 4870,10638 5043,10668 5216,10828 5389,9490 5562,10798 5735,9191 5908,9939 6081,9320 6254,8661 6426,7773 6600,7074 6772,6395 6946,5977 7118,3541 7292,4470 7464,3332 7638,2703 7810,2643 7984,2902 8156,2533 8330,2383 8502,1525 8676,1704 8848,2932 9022,4280 9194,4649 9368,3591 9540,3451 9713,4190 9886,4969 10059,5917 10232,4829 10405,5847 10578,5348 10751,5787 10924,5508 11097,5168 11270,5368 11443,6914 11616,7024 11789,6715 11962,6665 12135,6615 12308,7344 12481,7234 12654,8132 12827,7703 12999,8003 13173,6485 13345,8332 13519,8202 13691,8252 13865,9370 14037,9370 14211,9161 14383,8572 14557,8881"/>
 <path fill="rgb(255,0,0)" stroke="none" d="M 1138,10998 L 1237,11098 1337,10998 1237,10898 1138,10998 Z"/>
 <path fill="none" stroke="rgb(255,0,0)" stroke-linejoin="round" d="M 1138,10998 L 1237,11098 1337,10998 1237,10898 1138,10998 Z"/>
 <path fill="rgb(255,0,0)" stroke="none" d="M 1311,11008 L 1411,11108 1511,11008 1411,10908 1311,11008 Z"/>
 <path fill="none" stroke="rgb(255,0,0)" stroke-linejoin="round" d="M 1311,11008 L 1411,11108 1511,11008 1411,10908 1311,11008 Z"/>
 <path fill="rgb(255,0,0)" stroke="none" d="M 1484,11008 L 1583,11108 1683,11008 1583,10908 1484,11008 Z"/>
 <path fill="none" stroke="rgb(255,0,0)" stroke-linejoin="round" d="M 1484,11008 L 1583,11108 1683,11008 1583,10908 1484,11008 Z"/>
 <path fill="rgb(255,0,0)" stroke="none" d="M 1657,11008 L 1757,11108 1857,11008 1757,10908 1657,11008 Z"/>
 <path fill="none" stroke="rgb(255,0,0)" stroke-linejoin="round" d="M 1657,11008 L 1757,11108 1857,11008 1757,10908 1657,11008 Z"/>
 <path fill="rgb(255,0,0)" stroke="none" d="M 1830,11008 L 1929,11108 2029,11008 1929,10908 1830,11008 Z"/>
 <path fill="none" stroke="rgb(255,0,0)" stroke-linejoin="round" d="M 1830,11008 L 1929,11108 2029,11008 1929,10908 1830,11008 Z"/>
 <path fill="rgb(255,0,0)" stroke="none" d="M 2003,11008 L 2103,11108 2203,11008 2103,10908 2003,11008 Z"/>
 <path fill="none" stroke="rgb(255,0,0)" stroke-linejoin="round" d="M 2003,11008 L 2103,11108 2203,11008 2103,10908 2003,11008 Z"/>
 <path fill="rgb(255,0,0)" stroke="none" d="M 2176,11008 L 2275,11108 2375,11008 2275,10908 2176,11008 Z"/>
 <path fill="none" stroke="rgb(255,0,0)" stroke-linejoin="round" d="M 2176,11008 L 2275,11108 2375,11008 2275,10908 2176,11008 Z"/>
 <path fill="rgb(255,0,0)" stroke="none" d="M 2349,11008 L 2449,11108 2549,11008 2449,10908 2349,11008 Z"/>
 <path fill="none" stroke="rgb(255,0,0)" stroke-linejoin="round" d="M 2349,11008 L 2449,11108 2549,11008 2449,10908 2349,11008 Z"/>
 <path fill="rgb(255,0,0)" stroke="none" d="M 2522,11008 L 2621,11108 2721,11008 2621,10908 2522,11008 Z"/>
 <path fill="none" stroke="rgb(255,0,0)" stroke-linejoin="round" d="M 2522,11008 L 2621,11108 2721,11008 2621,10908 2522,11008 Z"/>
 <path fill="rgb(255,0,0)" stroke="none" d="M 2695,11008 L 2795,11108 2895,11008 2795,10908 2695,11008 Z"/>
 <path fill="none" stroke="rgb(255,0,0)" stroke-linejoin="round" d="M 2695,11008 L 2795,11108 2895,11008 2795,10908 2695,11008 Z"/>
 <path fill="rgb(255,0,0)" stroke="none" d="M 2868,11008 L 2967,11108 3067,11008 2967,10908 2868,11008 Z"/>
 <path fill="none" stroke="rgb(255,0,0)" stroke-linejoin="round" d="M 2868,11008 L 2967,11108 3067,11008 2967,10908 2868,11008 Z"/>
 <path fill="rgb(255,0,0)" stroke="none" d="M 3040,11008 L 3140,11108 3240,11008 3140,10908 3040,11008 Z"/>
 <path fill="none" stroke="rgb(255,0,0)" stroke-linejoin="round" d="M 3040,11008 L 3140,11108 3240,11008 3140,10908 3040,11008 Z"/>
 <path fill="rgb(255,0,0)" stroke="none" d="M 3214,11008 L 3313,11108 3413,11008 3313,10908 3214,11008 Z"/>
 <path fill="none" stroke="rgb(255,0,0)" stroke-linejoin="round" d="M 3214,11008 L 3313,11108 3413,11008 3313,10908 3214,11008 Z"/>
 <path fill="rgb(255,0,0)" stroke="none" d="M 3386,11008 L 3486,11108 3586,11008 3486,10908 3386,11008 Z"/>
 <path fill="none" stroke="rgb(255,0,0)" stroke-linejoin="round" d="M 3386,11008 L 3486,11108 3586,11008 3486,10908 3386,11008 Z"/>
 <path fill="rgb(255,0,0)" stroke="none" d="M 3560,10988 L 3659,11088 3759,10988 3659,10888 3560,10988 Z"/>
 <path fill="none" stroke="rgb(255,0,0)" stroke-linejoin="round" d="M 3560,10988 L 3659,11088 3759,10988 3659,10888 3560,10988 Z"/>
 <path fill="rgb(255,0,0)" stroke="none" d="M 3732,10988 L 3832,11088 3932,10988 3832,10888 3732,10988 Z"/>
 <path fill="none" stroke="rgb(255,0,0)" stroke-linejoin="round" d="M 3732,10988 L 3832,11088 3932,10988 3832,10888 3732,10988 Z"/>
 <path fill="rgb(255,0,0)" stroke="none" d="M 3906,10978 L 4005,11078 4105,10978 4005,10878 3906,10978 Z"/>
 <path fill="none" stroke="rgb(255,0,0)" stroke-linejoin="round" d="M 3906,10978 L 4005,11078 4105,10978 4005,10878 3906,10978 Z"/>
 <path fill="rgb(255,0,0)" stroke="none" d="M 4078,10988 L 4178,11088 4278,10988 4178,10888 4078,10988 Z"/>
 <path fill="none" stroke="rgb(255,0,0)" stroke-linejoin="round" d="M 4078,10988 L 4178,11088 4278,10988 4178,10888 4078,10988 Z"/>
 <path fill="rgb(255,0,0)" stroke="none" d="M 4252,10948 L 4351,11048 4451,10948 4351,10848 4252,10948 Z"/>
 <path fill="none" stroke="rgb(255,0,0)" stroke-linejoin="round" d="M 4252,10948 L 4351,11048 4451,10948 4351,10848 4252,10948 Z"/>
 <path fill="rgb(255,0,0)" stroke="none" d="M 4424,10818 L 4524,10918 4624,10818 4524,10718 4424,10818 Z"/>
 <path fill="none" stroke="rgb(255,0,0)" stroke-linejoin="round" d="M 4424,10818 L 4524,10918 4624,10818 4524,10718 4424,10818 Z"/>
 <path fill="rgb(255,0,0)" stroke="none" d="M 4598,10888 L 4697,10988 4797,10888 4697,10788 4598,10888 Z"/>
 <path fill="none" stroke="rgb(255,0,0)" stroke-linejoin="round" d="M 4598,10888 L 4697,10988 4797,10888 4697,10788 4598,10888 Z"/>
 <path fill="rgb(255,0,0)" stroke="none" d="M 4770,10638 L 4870,10738 4970,10638 4870,10538 4770,10638 Z"/>
 <path fill="none" stroke="rgb(255,0,0)" stroke-linejoin="round" d="M 4770,10638 L 4870,10738 4970,10638 4870,10538 4770,10638 Z"/>
 <path fill="rgb(255,0,0)" stroke="none" d="M 4944,10668 L 5043,10768 5143,10668 5043,10568 4944,10668 Z"/>
 <path fill="none" stroke="rgb(255,0,0)" stroke-linejoin="round" d="M 4944,10668 L 5043,10768 5143,10668 5043,10568 4944,10668 Z"/>
 <path fill="rgb(255,0,0)" stroke="none" d="M 5116,10828 L 5216,10928 5316,10828 5216,10728 5116,10828 Z"/>
 <path fill="none" stroke="rgb(255,0,0)" stroke-linejoin="round" d="M 5116,10828 L 5216,10928 5316,10828 5216,10728 5116,10828 Z"/>
 <path fill="rgb(255,0,0)" stroke="none" d="M 5290,9490 L 5389,9590 5489,9490 5389,9390 5290,9490 Z"/>
 <path fill="none" stroke="rgb(255,0,0)" stroke-linejoin="round" d="M 5290,9490 L 5389,9590 5489,9490 5389,9390 5290,9490 Z"/>
 <path fill="rgb(255,0,0)" stroke="none" d="M 5462,10798 L 5562,10898 5662,10798 5562,10698 5462,10798 Z"/>
 <path fill="none" stroke="rgb(255,0,0)" stroke-linejoin="round" d="M 5462,10798 L 5562,10898 5662,10798 5562,10698 5462,10798 Z"/>
 <path fill="rgb(255,0,0)" stroke="none" d="M 5636,9191 L 5735,9291 5835,9191 5735,9091 5636,9191 Z"/>
 <path fill="none" stroke="rgb(255,0,0)" stroke-linejoin="round" d="M 5636,9191 L 5735,9291 5835,9191 5735,9091 5636,9191 Z"/>
 <path fill="rgb(255,0,0)" stroke="none" d="M 5808,9939 L 5908,10039 6008,9939 5908,9839 5808,9939 Z"/>
 <path fill="none" stroke="rgb(255,0,0)" stroke-linejoin="round" d="M 5808,9939 L 5908,10039 6008,9939 5908,9839 5808,9939 Z"/>
 <path fill="rgb(255,0,0)" stroke="none" d="M 5982,9320 L 6081,9420 6181,9320 6081,9220 5982,9320 Z"/>
 <path fill="none" stroke="rgb(255,0,0)" stroke-linejoin="round" d="M 5982,9320 L 6081,9420 6181,9320 6081,9220 5982,9320 Z"/>
 <path fill="rgb(255,0,0)" stroke="none" d="M 6154,8661 L 6254,8761 6354,8661 6254,8561 6154,8661 Z"/>
 <path fill="none" stroke="rgb(255,0,0)" stroke-linejoin="round" d="M 6154,8661 L 6254,8761 6354,8661 6254,8561 6154,8661 Z"/>
 <path fill="rgb(255,0,0)" stroke="none" d="M 6327,7773 L 6426,7873 6526,7773 6426,7673 6327,7773 Z"/>
 <path fill="none" stroke="rgb(255,0,0)" stroke-linejoin="round" d="M 6327,7773 L 6426,7873 6526,7773 6426,7673 6327,7773 Z"/>
 <path fill="rgb(255,0,0)" stroke="none" d="M 6500,7074 L 6600,7174 6700,7074 6600,6974 6500,7074 Z"/>
 <path fill="none" stroke="rgb(255,0,0)" stroke-linejoin="round" d="M 6500,7074 L 6600,7174 6700,7074 6600,6974 6500,7074 Z"/>
 <path fill="rgb(255,0,0)" stroke="none" d="M 6673,6395 L 6772,6495 6872,6395 6772,6295 6673,6395 Z"/>
 <path fill="none" stroke="rgb(255,0,0)" stroke-linejoin="round" d="M 6673,6395 L 6772,6495 6872,6395 6772,6295 6673,6395 Z"/>
 <path fill="rgb(255,0,0)" stroke="none" d="M 6846,5977 L 6946,6076 7046,5977 6946,5877 6846,5977 Z"/>
 <path fill="none" stroke="rgb(255,0,0)" stroke-linejoin="round" d="M 6846,5977 L 6946,6076 7046,5977 6946,5877 6846,5977 Z"/>
 <path fill="rgb(255,0,0)" stroke="none" d="M 7019,3541 L 7118,3641 7218,3541 7118,3441 7019,3541 Z"/>
 <path fill="none" stroke="rgb(255,0,0)" stroke-linejoin="round" d="M 7019,3541 L 7118,3641 7218,3541 7118,3441 7019,3541 Z"/>
 <path fill="rgb(255,0,0)" stroke="none" d="M 7192,4470 L 7292,4570 7392,4470 7292,4370 7192,4470 Z"/>
 <path fill="none" stroke="rgb(255,0,0)" stroke-linejoin="round" d="M 7192,4470 L 7292,4570 7392,4470 7292,4370 7192,4470 Z"/>
 <path fill="rgb(255,0,0)" stroke="none" d="M 7365,3332 L 7464,3432 7564,3332 7464,3232 7365,3332 Z"/>
 <path fill="none" stroke="rgb(255,0,0)" stroke-linejoin="round" d="M 7365,3332 L 7464,3432 7564,3332 7464,3232 7365,3332 Z"/>
 <path fill="rgb(255,0,0)" stroke="none" d="M 7538,2703 L 7638,2803 7738,2703 7638,2603 7538,2703 Z"/>
 <path fill="none" stroke="rgb(255,0,0)" stroke-linejoin="round" d="M 7538,2703 L 7638,2803 7738,2703 7638,2603 7538,2703 Z"/>
 <path fill="rgb(255,0,0)" stroke="none" d="M 7711,2643 L 7810,2743 7910,2643 7810,2543 7711,2643 Z"/>
 <path fill="none" stroke="rgb(255,0,0)" stroke-linejoin="round" d="M 7711,2643 L 7810,2743 7910,2643 7810,2543 7711,2643 Z"/>
 <path fill="rgb(255,0,0)" stroke="none" d="M 7884,2902 L 7984,3002 8084,2902 7984,2802 7884,2902 Z"/>
 <path fill="none" stroke="rgb(255,0,0)" stroke-linejoin="round" d="M 7884,2902 L 7984,3002 8084,2902 7984,2802 7884,2902 Z"/>
 <path fill="rgb(255,0,0)" stroke="none" d="M 8057,2533 L 8156,2633 8256,2533 8156,2433 8057,2533 Z"/>
 <path fill="none" stroke="rgb(255,0,0)" stroke-linejoin="round" d="M 8057,2533 L 8156,2633 8256,2533 8156,2433 8057,2533 Z"/>
 <path fill="rgb(255,0,0)" stroke="none" d="M 8230,2383 L 8330,2483 8430,2383 8330,2283 8230,2383 Z"/>
 <path fill="none" stroke="rgb(255,0,0)" stroke-linejoin="round" d="M 8230,2383 L 8330,2483 8430,2383 8330,2283 8230,2383 Z"/>
 <path fill="rgb(255,0,0)" stroke="none" d="M 8403,1525 L 8502,1625 8602,1525 8502,1425 8403,1525 Z"/>
 <path fill="none" stroke="rgb(255,0,0)" stroke-linejoin="round" d="M 8403,1525 L 8502,1625 8602,1525 8502,1425 8403,1525 Z"/>
 <path fill="rgb(255,0,0)" stroke="none" d="M 8576,1704 L 8676,1804 8776,1704 8676,1604 8576,1704 Z"/>
 <path fill="none" stroke="rgb(255,0,0)" stroke-linejoin="round" d="M 8576,1704 L 8676,1804 8776,1704 8676,1604 8576,1704 Z"/>
 <path fill="rgb(255,0,0)" stroke="none" d="M 8749,2932 L 8848,3032 8948,2932 8848,2832 8749,2932 Z"/>
 <path fill="none" stroke="rgb(255,0,0)" stroke-linejoin="round" d="M 8749,2932 L 8848,3032 8948,2932 8848,2832 8749,2932 Z"/>
 <path fill="rgb(255,0,0)" stroke="none" d="M 8922,4280 L 9022,4380 9122,4280 9022,4180 8922,4280 Z"/>
 <path fill="none" stroke="rgb(255,0,0)" stroke-linejoin="round" d="M 8922,4280 L 9022,4380 9122,4280 9022,4180 8922,4280 Z"/>
 <path fill="rgb(255,0,0)" stroke="none" d="M 9095,4649 L 9194,4749 9294,4649 9194,4549 9095,4649 Z"/>
 <path fill="none" stroke="rgb(255,0,0)" stroke-linejoin="round" d="M 9095,4649 L 9194,4749 9294,4649 9194,4549 9095,4649 Z"/>
 <path fill="rgb(255,0,0)" stroke="none" d="M 9268,3591 L 9368,3691 9468,3591 9368,3491 9268,3591 Z"/>
 <path fill="none" stroke="rgb(255,0,0)" stroke-linejoin="round" d="M 9268,3591 L 9368,3691 9468,3591 9368,3491 9268,3591 Z"/>
 <path fill="rgb(255,0,0)" stroke="none" d="M 9441,3451 L 9540,3551 9640,3451 9540,3351 9441,3451 Z"/>
 <path fill="none" stroke="rgb(255,0,0)" stroke-linejoin="round" d="M 9441,3451 L 9540,3551 9640,3451 9540,3351 9441,3451 Z"/>
 <path fill="rgb(255,0,0)" stroke="none" d="M 9613,4190 L 9713,4290 9813,4190 9713,4090 9613,4190 Z"/>
 <path fill="none" stroke="rgb(255,0,0)" stroke-linejoin="round" d="M 9613,4190 L 9713,4290 9813,4190 9713,4090 9613,4190 Z"/>
 <path fill="rgb(255,0,0)" stroke="none" d="M 9787,4969 L 9886,5069 9986,4969 9886,4869 9787,4969 Z"/>
 <path fill="none" stroke="rgb(255,0,0)" stroke-linejoin="round" d="M 9787,4969 L 9886,5069 9986,4969 9886,4869 9787,4969 Z"/>
 <path fill="rgb(255,0,0)" stroke="none" d="M 9959,5917 L 10059,6016 10159,5917 10059,5817 9959,5917 Z"/>
 <path fill="none" stroke="rgb(255,0,0)" stroke-linejoin="round" d="M 9959,5917 L 10059,6016 10159,5917 10059,5817 9959,5917 Z"/>
 <path fill="rgb(255,0,0)" stroke="none" d="M 10133,4829 L 10232,4929 10332,4829 10232,4729 10133,4829 Z"/>
 <path fill="none" stroke="rgb(255,0,0)" stroke-linejoin="round" d="M 10133,4829 L 10232,4929 10332,4829 10232,4729 10133,4829 Z"/>
 <path fill="rgb(255,0,0)" stroke="none" d="M 10305,5847 L 10405,5947 10505,5847 10405,5747 10305,5847 Z"/>
 <path fill="none" stroke="rgb(255,0,0)" stroke-linejoin="round" d="M 10305,5847 L 10405,5947 10505,5847 10405,5747 10305,5847 Z"/>
 <path fill="rgb(255,0,0)" stroke="none" d="M 10479,5348 L 10578,5448 10678,5348 10578,5248 10479,5348 Z"/>
 <path fill="none" stroke="rgb(255,0,0)" stroke-linejoin="round" d="M 10479,5348 L 10578,5448 10678,5348 10578,5248 10479,5348 Z"/>
 <path fill="rgb(255,0,0)" stroke="none" d="M 10651,5787 L 10751,5887 10851,5787 10751,5687 10651,5787 Z"/>
 <path fill="none" stroke="rgb(255,0,0)" stroke-linejoin="round" d="M 10651,5787 L 10751,5887 10851,5787 10751,5687 10651,5787 Z"/>
 <path fill="rgb(255,0,0)" stroke="none" d="M 10825,5508 L 10924,5608 11024,5508 10924,5408 10825,5508 Z"/>
 <path fill="none" stroke="rgb(255,0,0)" stroke-linejoin="round" d="M 10825,5508 L 10924,5608 11024,5508 10924,5408 10825,5508 Z"/>
 <path fill="rgb(255,0,0)" stroke="none" d="M 10997,5168 L 11097,5268 11197,5168 11097,5068 10997,5168 Z"/>
 <path fill="none" stroke="rgb(255,0,0)" stroke-linejoin="round" d="M 10997,5168 L 11097,5268 11197,5168 11097,5068 10997,5168 Z"/>
 <path fill="rgb(255,0,0)" stroke="none" d="M 11171,5368 L 11270,5468 11370,5368 11270,5268 11171,5368 Z"/>
 <path fill="none" stroke="rgb(255,0,0)" stroke-linejoin="round" d="M 11171,5368 L 11270,5468 11370,5368 11270,5268 11171,5368 Z"/>
 <path fill="rgb(255,0,0)" stroke="none" d="M 11343,6914 L 11443,7014 11543,6914 11443,6814 11343,6914 Z"/>
 <path fill="none" stroke="rgb(255,0,0)" stroke-linejoin="round" d="M 11343,6914 L 11443,7014 11543,6914 11443,6814 11343,6914 Z"/>
 <path fill="rgb(255,0,0)" stroke="none" d="M 11517,7024 L 11616,7124 11716,7024 11616,6924 11517,7024 Z"/>
 <path fill="none" stroke="rgb(255,0,0)" stroke-linejoin="round" d="M 11517,7024 L 11616,7124 11716,7024 11616,6924 11517,7024 Z"/>
 <path fill="rgb(255,0,0)" stroke="none" d="M 11689,6715 L 11789,6815 11889,6715 11789,6615 11689,6715 Z"/>
 <path fill="none" stroke="rgb(255,0,0)" stroke-linejoin="round" d="M 11689,6715 L 11789,6815 11889,6715 11789,6615 11689,6715 Z"/>
 <path fill="rgb(255,0,0)" stroke="none" d="M 11863,6665 L 11962,6765 12062,6665 11962,6565 11863,6665 Z"/>
 <path fill="none" stroke="rgb(255,0,0)" stroke-linejoin="round" d="M 11863,6665 L 11962,6765 12062,6665 11962,6565 11863,6665 Z"/>
 <path fill="rgb(255,0,0)" stroke="none" d="M 12035,6615 L 12135,6715 12235,6615 12135,6515 12035,6615 Z"/>
 <path fill="none" stroke="rgb(255,0,0)" stroke-linejoin="round" d="M 12035,6615 L 12135,6715 12235,6615 12135,6515 12035,6615 Z"/>
 <path fill="rgb(255,0,0)" stroke="none" d="M 12209,7344 L 12308,7444 12408,7344 12308,7244 12209,7344 Z"/>
 <path fill="none" stroke="rgb(255,0,0)" stroke-linejoin="round" d="M 12209,7344 L 12308,7444 12408,7344 12308,7244 12209,7344 Z"/>
 <path fill="rgb(255,0,0)" stroke="none" d="M 12381,7234 L 12481,7334 12581,7234 12481,7134 12381,7234 Z"/>
 <path fill="none" stroke="rgb(255,0,0)" stroke-linejoin="round" d="M 12381,7234 L 12481,7334 12581,7234 12481,7134 12381,7234 Z"/>
 <path fill="rgb(255,0,0)" stroke="none" d="M 12555,8132 L 12654,8232 12754,8132 12654,8032 12555,8132 Z"/>
 <path fill="none" stroke="rgb(255,0,0)" stroke-linejoin="round" d="M 12555,8132 L 12654,8232 12754,8132 12654,8032 12555,8132 Z"/>
 <path fill="rgb(255,0,0)" stroke="none" d="M 12727,7703 L 12827,7803 12927,7703 12827,7603 12727,7703 Z"/>
 <path fill="none" stroke="rgb(255,0,0)" stroke-linejoin="round" d="M 12727,7703 L 12827,7803 12927,7703 12827,7603 12727,7703 Z"/>
 <path fill="rgb(255,0,0)" stroke="none" d="M 12900,8003 L 12999,8103 13099,8003 12999,7903 12900,8003 Z"/>
 <path fill="none" stroke="rgb(255,0,0)" stroke-linejoin="round" d="M 12900,8003 L 12999,8103 13099,8003 12999,7903 12900,8003 Z"/>
 <path fill="rgb(255,0,0)" stroke="none" d="M 13073,6485 L 13173,6585 13273,6485 13173,6385 13073,6485 Z"/>
 <path fill="none" stroke="rgb(255,0,0)" stroke-linejoin="round" d="M 13073,6485 L 13173,6585 13273,6485 13173,6385 13073,6485 Z"/>
 <path fill="rgb(255,0,0)" stroke="none" d="M 13246,8332 L 13345,8432 13445,8332 13345,8232 13246,8332 Z"/>
 <path fill="none" stroke="rgb(255,0,0)" stroke-linejoin="round" d="M 13246,8332 L 13345,8432 13445,8332 13345,8232 13246,8332 Z"/>
 <path fill="rgb(255,0,0)" stroke="none" d="M 13419,8202 L 13519,8302 13619,8202 13519,8102 13419,8202 Z"/>
 <path fill="none" stroke="rgb(255,0,0)" stroke-linejoin="round" d="M 13419,8202 L 13519,8302 13619,8202 13519,8102 13419,8202 Z"/>
 <path fill="rgb(255,0,0)" stroke="none" d="M 13592,8252 L 13691,8352 13791,8252 13691,8152 13592,8252 Z"/>
 <path fill="none" stroke="rgb(255,0,0)" stroke-linejoin="round" d="M 13592,8252 L 13691,8352 13791,8252 13691,8152 13592,8252 Z"/>
 <path fill="rgb(255,0,0)" stroke="none" d="M 13765,9370 L 13865,9470 13965,9370 13865,9270 13765,9370 Z"/>
 <path fill="none" stroke="rgb(255,0,0)" stroke-linejoin="round" d="M 13765,9370 L 13865,9470 13965,9370 13865,9270 13765,9370 Z"/>
 <path fill="rgb(255,0,0)" stroke="none" d="M 13938,9370 L 14037,9470 14137,9370 14037,9270 13938,9370 Z"/>
 <path fill="none" stroke="rgb(255,0,0)" stroke-linejoin="round" d="M 13938,9370 L 14037,9470 14137,9370 14037,9270 13938,9370 Z"/>
 <path fill="rgb(255,0,0)" stroke="none" d="M 14111,9161 L 14211,9261 14310,9161 14211,9061 14111,9161 Z"/>
 <path fill="none" stroke="rgb(255,0,0)" stroke-linejoin="round" d="M 14111,9161 L 14211,9261 14310,9161 14211,9061 14111,9161 Z"/>
 <path fill="rgb(255,0,0)" stroke="none" d="M 14284,8572 L 14383,8672 14483,8572 14383,8472 14284,8572 Z"/>
 <path fill="none" stroke="rgb(255,0,0)" stroke-linejoin="round" d="M 14284,8572 L 14383,8672 14483,8572 14383,8472 14284,8572 Z"/>
 <path fill="rgb(255,0,0)" stroke="none" d="M 14457,8881 L 14557,8981 14656,8881 14557,8781 14457,8881 Z"/>
 <path fill="none" stroke="rgb(255,0,0)" stroke-linejoin="round" d="M 14457,8881 L 14557,8981 14656,8881 14557,8781 14457,8881 Z"/>
 <text class="TextShape"><tspan class="TextParagraph" font-family="Liberation Sans, sans-serif" font-size="353px" font-weight="400"><tspan class="TextPosition" x="815" y="11576"><tspan fill="rgb(0,0,0)" stroke="none">20/02</tspan></tspan></tspan></text>
 <text class="TextShape"><tspan class="TextParagraph" font-family="Liberation Sans, sans-serif" font-size="353px" font-weight="400"><tspan class="TextPosition" x="2027" y="11576"><tspan fill="rgb(0,0,0)" stroke="none">27/02</tspan></tspan></tspan></text>
 <text class="TextShape"><tspan class="TextParagraph" font-family="Liberation Sans, sans-serif" font-size="353px" font-weight="400"><tspan class="TextPosition" x="3237" y="11576"><tspan fill="rgb(0,0,0)" stroke="none">05/03</tspan></tspan></tspan></text>
 <text class="TextShape"><tspan class="TextParagraph" font-family="Liberation Sans, sans-serif" font-size="353px" font-weight="400"><tspan class="TextPosition" x="4448" y="11576"><tspan fill="rgb(0,0,0)" stroke="none">12/03</tspan></tspan></tspan></text>
 <text class="TextShape"><tspan class="TextParagraph" font-family="Liberation Sans, sans-serif" font-size="353px" font-weight="400"><tspan class="TextPosition" x="5659" y="11576"><tspan fill="rgb(0,0,0)" stroke="none">19/03</tspan></tspan></tspan></text>
 <text class="TextShape"><tspan class="TextParagraph" font-family="Liberation Sans, sans-serif" font-size="353px" font-weight="400"><tspan class="TextPosition" x="6870" y="11576"><tspan fill="rgb(0,0,0)" stroke="none">26/03</tspan></tspan></tspan></text>
 <text class="TextShape"><tspan class="TextParagraph" font-family="Liberation Sans, sans-serif" font-size="353px" font-weight="400"><tspan class="TextPosition" x="8080" y="11576"><tspan fill="rgb(0,0,0)" stroke="none">02/04</tspan></tspan></tspan></text>
 <text class="TextShape"><tspan class="TextParagraph" font-family="Liberation Sans, sans-serif" font-size="353px" font-weight="400"><tspan class="TextPosition" x="9291" y="11576"><tspan fill="rgb(0,0,0)" stroke="none">09/04</tspan></tspan></tspan></text>
 <text class="TextShape"><tspan class="TextParagraph" font-family="Liberation Sans, sans-serif" font-size="353px" font-weight="400"><tspan class="TextPosition" x="10502" y="11576"><tspan fill="rgb(0,0,0)" stroke="none">16/04</tspan></tspan></tspan></text>
 <text class="TextShape"><tspan class="TextParagraph" font-family="Liberation Sans, sans-serif" font-size="353px" font-weight="400"><tspan class="TextPosition" x="11713" y="11576"><tspan fill="rgb(0,0,0)" stroke="none">23/04</tspan></tspan></tspan></text>
 <text class="TextShape"><tspan class="TextParagraph" font-family="Liberation Sans, sans-serif" font-size="353px" font-weight="400"><tspan class="TextPosition" x="12923" y="11576"><tspan fill="rgb(0,0,0)" stroke="none">30/04</tspan></tspan></tspan></text>
 <text class="TextShape"><tspan class="TextParagraph" font-family="Liberation Sans, sans-serif" font-size="353px" font-weight="400"><tspan class="TextPosition" x="14135" y="11576"><tspan fill="rgb(0,0,0)" stroke="none">07/05</tspan></tspan></tspan></text>
 <text class="TextShape"><tspan class="TextParagraph" font-family="Liberation Sans, sans-serif" font-size="353px" font-weight="400"><tspan class="TextPosition" x="718" y="11129"><tspan fill="rgb(0,0,0)" stroke="none">0</tspan></tspan></tspan></text>
 <text class="TextShape"><tspan class="TextParagraph" font-family="Liberation Sans, sans-serif" font-size="353px" font-weight="400"><tspan class="TextPosition" x="348" y="10130"><tspan fill="rgb(0,0,0)" stroke="none">100</tspan></tspan></tspan></text>
 <text class="TextShape"><tspan class="TextParagraph" font-family="Liberation Sans, sans-serif" font-size="353px" font-weight="400"><tspan class="TextPosition" x="348" y="9132"><tspan fill="rgb(0,0,0)" stroke="none">200</tspan></tspan></tspan></text>
 <text class="TextShape"><tspan class="TextParagraph" font-family="Liberation Sans, sans-serif" font-size="353px" font-weight="400"><tspan class="TextPosition" x="348" y="8134"><tspan fill="rgb(0,0,0)" stroke="none">300</tspan></tspan></tspan></text>
 <text class="TextShape"><tspan class="TextParagraph" font-family="Liberation Sans, sans-serif" font-size="353px" font-weight="400"><tspan class="TextPosition" x="348" y="7135"><tspan fill="rgb(0,0,0)" stroke="none">400</tspan></tspan></tspan></text>
 <text class="TextShape"><tspan class="TextParagraph" font-family="Liberation Sans, sans-serif" font-size="353px" font-weight="400"><tspan class="TextPosition" x="348" y="6137"><tspan fill="rgb(0,0,0)" stroke="none">500</tspan></tspan></tspan></text>
 <text class="TextShape"><tspan class="TextParagraph" font-family="Liberation Sans, sans-serif" font-size="353px" font-weight="400"><tspan class="TextPosition" x="348" y="5139"><tspan fill="rgb(0,0,0)" stroke="none">600</tspan></tspan></tspan></text>
 <text class="TextShape"><tspan class="TextParagraph" font-family="Liberation Sans, sans-serif" font-size="353px" font-weight="400"><tspan class="TextPosition" x="348" y="4140"><tspan fill="rgb(0,0,0)" stroke="none">700</tspan></tspan></tspan></text>
 <text class="TextShape"><tspan class="TextParagraph" font-family="Liberation Sans, sans-serif" font-size="353px" font-weight="400"><tspan class="TextPosition" x="348" y="3142"><tspan fill="rgb(0,0,0)" stroke="none">800</tspan></tspan></tspan></text>
 <text class="TextShape"><tspan class="TextParagraph" font-family="Liberation Sans, sans-serif" font-size="353px" font-weight="400"><tspan class="TextPosition" x="348" y="2144"><tspan fill="rgb(0,0,0)" stroke="none">900</tspan></tspan></tspan></text>
 <text class="TextShape"><tspan class="TextParagraph" font-family="Liberation Sans, sans-serif" font-size="353px" font-weight="400"><tspan class="TextPosition" x="58" y="1146"><tspan fill="rgb(0,0,0)" stroke="none">1.000</tspan></tspan></tspan></text>
 <text class="TextShape"><tspan class="TextParagraph" font-family="Liberation Sans, sans-serif" font-size="459px" font-weight="400"><tspan class="TextPosition" x="4454" y="724"><tspan fill="rgb(0,0,0)" stroke="none">Covid-19. Muertes diarias en España</tspan></tspan></tspan></text>
</svg>