<?xml version="1.0" encoding="UTF-8"?>
<!DOCTYPE svg PUBLIC "-//W3C//DTD SVG 1.1//EN" "http://www.w3.org/Graphics/SVG/1.1/DTD/svg11.dtd">
<svg width="150mm" height="120mm" viewBox="0 0 15000 12000" version="1.1" xmlns="http://www.w3.org/2000/svg" xmlns:xlink="http://www.w3.org/1999/xlink" stroke-width="28.222" stroke-linejoin="round" xml:space="preserve">
 <path fill="rgb(255,255,255)" stroke="none" d="M 7489,12000 L 0,12000 0,0 14978,0 14978,12000 7489,12000 Z"/>
 <path fill="none" stroke="rgb(0,0,0)" stroke-linejoin="round" d="M 8036,11278 L 1391,11278 1391,779 14682,779 14682,11278 8036,11278 Z"/>
 <path fill="none" stroke="rgb(0,0,0)" stroke-linejoin="round" d="M 14682,11277 L 1391,11277"/>
 <path fill="none" stroke="rgb(0,0,0)" stroke-linejoin="round" d="M 14682,10041 L 1391,10041"/>
 <path fill="none" stroke="rgb(0,0,0)" stroke-linejoin="round" d="M 14682,8806 L 1391,8806"/>
 <path fill="none" stroke="rgb(0,0,0)" stroke-linejoin="round" d="M 14682,7571 L 1391,7571"/>
 <path fill="none" stroke="rgb(0,0,0)" stroke-linejoin="round" d="M 14682,6335 L 1391,6335"/>
 <path fill="none" stroke="rgb(0,0,0)" stroke-linejoin="round" d="M 14682,5101 L 1391,5101"/>
 <path fill="none" stroke="rgb(0,0,0)" stroke-linejoin="round" d="M 14682,3866 L 1391,3866"/>
 <path fill="none" stroke="rgb(0,0,0)" stroke-linejoin="round" d="M 14682,2630 L 1391,2630"/>
 <path fill="none" stroke="rgb(0,0,0)" stroke-linejoin="round" d="M 14682,1395 L 1391,1395"/>
 <path fill="none" stroke="rgb(0,0,0)" stroke-linejoin="round" d="M 1391,11427 L 1391,11277"/>
 <path fill="none" stroke="rgb(0,0,0)" stroke-linejoin="round" d="M 1391,11427 L 1391,11277"/>
 <path fill="none" stroke="rgb(0,0,0)" stroke-linejoin="round" d="M 3289,11427 L 3289,11277"/>
 <path fill="none" stroke="rgb(0,0,0)" stroke-linejoin="round" d="M 3289,11427 L 3289,11277"/>
 <path fill="none" stroke="rgb(0,0,0)" stroke-linejoin="round" d="M 5188,11427 L 5188,11277"/>
 <path fill="none" stroke="rgb(0,0,0)" stroke-linejoin="round" d="M 5188,11427 L 5188,11277"/>
 <path fill="none" stroke="rgb(0,0,0)" stroke-linejoin="round" d="M 7025,11427 L 7025,11277"/>
 <path fill="none" stroke="rgb(0,0,0)" stroke-linejoin="round" d="M 7025,11427 L 7025,11277"/>
 <path fill="none" stroke="rgb(0,0,0)" stroke-linejoin="round" d="M 8924,11427 L 8924,11277"/>
 <path fill="none" stroke="rgb(0,0,0)" stroke-linejoin="round" d="M 8924,11427 L 8924,11277"/>
 <path fill="none" stroke="rgb(0,0,0)" stroke-linejoin="round" d="M 10761,11427 L 10761,11277"/>
 <path fill="none" stroke="rgb(0,0,0)" stroke-linejoin="round" d="M 10761,11427 L 10761,11277"/>
 <path fill="none" stroke="rgb(0,0,0)" stroke-linejoin="round" d="M 12660,11427 L 12660,11277"/>
 <path fill="none" stroke="rgb(0,0,0)" stroke-linejoin="round" d="M 12660,11427 L 12660,11277"/>
 <path fill="none" stroke="rgb(0,0,0)" stroke-linejoin="round" d="M 14559,11427 L 14559,11277"/>
 <path fill="none" stroke="rgb(0,0,0)" stroke-linejoin="round" d="M 14559,11427 L 14559,11277"/>
 <path fill="none" stroke="rgb(0,0,0)" stroke-linejoin="round" d="M 1391,11277 L 14682,11277"/>
 <path fill="none" stroke="rgb(0,0,0)" stroke-linejoin="round" d="M 1241,11277 L 1391,11277"/>
 <path fill="none" stroke="rgb(0,0,0)" stroke-linejoin="round" d="M 1241,11277 L 1391,11277"/>
 <path fill="none" stroke="rgb(0,0,0)" stroke-linejoin="round" d="M 1241,10041 L 1391,10041"/>
 <path fill="none" stroke="rgb(0,0,0)" stroke-linejoin="round" d="M 1241,10041 L 1391,10041"/>
 <path fill="none" stroke="rgb(0,0,0)" stroke-linejoin="round" d="M 1241,8806 L 1391,8806"/>
 <path fill="none" stroke="rgb(0,0,0)" stroke-linejoin="round" d="M 1241,8806 L 1391,8806"/>
 <path fill="none" stroke="rgb(0,0,0)" stroke-linejoin="round" d="M 1241,7571 L 1391,7571"/>
 <path fill="none" stroke="rgb(0,0,0)" stroke-linejoin="round" d="M 1241,7571 L 1391,7571"/>
 <path fill="none" stroke="rgb(0,0,0)" stroke-linejoin="round" d="M 1241,6335 L 1391,6335"/>
 <path fill="none" stroke="rgb(0,0,0)" stroke-linejoin="round" d="M 1241,6335 L 1391,6335"/>
 <path fill="none" stroke="rgb(0,0,0)" stroke-linejoin="round" d="M 1241,5101 L 1391,5101"/>
 <path fill="none" stroke="rgb(0,0,0)" stroke-linejoin="round" d="M 1241,5101 L 1391,5101"/>
 <path fill="none" stroke="rgb(0,0,0)" stroke-linejoin="round" d="M 1241,3866 L 1391,3866"/>
 <path fill="none" stroke="rgb(0,0,0)" stroke-linejoin="round" d="M 1241,3866 L 1391,3866"/>
 <path fill="none" stroke="rgb(0,0,0)" stroke-linejoin="round" d="M 1241,2630 L 1391,2630"/>
 <path fill="none" stroke="rgb(0,0,0)" stroke-linejoin="round" d="M 1241,2630 L 1391,2630"/>
 <path fill="none" stroke="rgb(0,0,0)" stroke-linejoin="round" d="M 1241,1395 L 1391,1395"/>
 <path fill="none" stroke="rgb(0,0,0)" stroke-linejoin="round" d="M 1241,1395 L 1391,1395"/>
 <path fill="none" stroke="rgb(0,0,0)" stroke-linejoin="round" d="M 1391,11277 L 1391,778"/>
 <path fill="none" stroke="rgb(0,69,134)" stroke-width="100" stroke-linejoin="round" d="M 2370,11277 L 2431,11277 2493,11273 2554,11273 2615,11272 2677,11272 2738,11270 2799,11268 2861,11267 2921,11267 2982,11265 3044,11264 3105,11264 3167,11262 3228,11260 3289,11258 3351,11257 3412,11256 3473,11256 3534,11255 3595,11255 3656,11254 3718,11252 3779,11251 3840,11249 3902,11249 3963,11249 4024,11245 4086,11244 4147,11242 4207,11241 4269,11240 4330,11240 4391,11238 4453,11235 4514,11233 4575,11230 4637,11227 4698,11223 4760,11221 4820,11220 4881,11215 4943,11211 5004,11206 5065,11202 5127,11197 5188,11195 5249,11193 5311,11185 5372,11176 5432,11169 5494,11161 5555,11154 5616,11150 5678,11148 5739,11139 5800,11130 5862,11120 5923,11110 5984,11100 6046,11092 6106,11086 6167,11068 6229,11051 6290,11034 6351,11017 6413,10999 6474,10990 6536,10980 6597,10951 6658,10927 6719,10904 6780,10876 6841,10855 6903,10836 6964,10823 7025,10778 7087,10740 7148,10705 7209,10671 7271,10631 7332,10611 7392,10594 7454,10545 7515,10484 7576,10438 7638,10394 7699,10343 7760,10323 7822,10321 7883,10234 7944,10160 8005,10091 8066,10044 8128,9987 8189,9966 8250,9940 8312,9866 8373,9801 8434,9739 8496,9676 8557,9634 8617,9585 8679,9559 8740,9484 8801,9398 8863,9337 8924,9273 8985,9213 9047,9187 9108,9162 9169,9087 9231,9007 9291,8956 9352,8894 9414,8845 9475,8816 9536,8793 9598,8719 9659,8653 9721,8589 9782,8537 9843,8473 9904,8455 9965,8426 10026,8364 10088,8288 10149,8222 10210,8162 10272,8096 10333,8056 10394,8029 10456,7944 10517,7852 10577,7781 10639,7711 10700,7685 10761,7642 10823,7598 10884,7541 10945,7420 11007,7301 11068,7225 11129,7170 11190,7114 11251,7064 11312,6956 11374,6827 11435,6684 11497,6520 11558,6392 11619,6323 11681,6257 11742,6104 11803,5912 11864,5757 11925,5599 11986,5439 12048,5356 12109,5282 12170,5084 12232,4859 12293,4699 12354,4526 12416,4360 12476,4285 12537,4211 12599,4010 12660,3797 12721,3644 12783,3490 12844,3342 12905,3269 12967,3219 13028,3040 13089,2877 13150,2764 13211,2638 13273,2536 13334,2490 13395,2449 13457,2319 13518,2195 13579,2112 13641,2018 13702,1941 13762,1909 13824,1881 13885,1782 13946,1691 14008,1635 14069,1569 14130,1514 14192,1488 14253,1466 14314,1397 14375,1344 14436,1304 14497,1261 14559,1225 14620,1207 14682,1195"/>
 <path fill="none" stroke="rgb(255,66,14)" stroke-width="100" stroke-linejoin="round" d="M 1391,11276 L 1452,11275 1513,11274 1575,11273 1635,11272 1696,11272 1758,11271 1819,11269 1880,11269 1942,11267 2003,11267 2064,11266 2126,11265 2187,11264 2247,11264 2309,11263 2370,11262 2431,11261 2493,11261 2554,11241 2615,11241 2677,11240 2738,11240 2799,11239 2861,11238 2921,11237 2982,11237 3044,11236 3105,11235 3167,11235 3228,11233 3289,11233 3351,11231 3412,11231 3473,11231 3534,11230 3595,11229 3656,11228 3718,11227 3779,11226 3840,11224 3902,11223 3963,11221 4024,11220 4086,11218 4147,11217 4207,11216 4269,11215 4330,11214 4391,11213 4453,11212 4514,11210 4575,11208 4637,11207 4698,11204 4760,11202 4820,11200 4881,11199 4943,11196 5004,11193 5065,11191 5127,11189 5188,11187 5249,11185 5311,11182 5372,11179 5432,11176 5494,11173 5555,11170 5616,11168 5678,11166 5739,11162 5800,11159 5862,11156 5923,11152 5984,11149 6046,11146 6106,11141 6167,11136 6229,11130 6290,11120 6351,11113 6413,11108 6474,11099 6536,11090 6597,11079 6658,11063 6719,11047 6780,11035 6841,11017 6903,11001 6964,10983 7025,10956 7087,10931 7148,10904 7209,10879 7271,10843 7332,10817 7392,10788 7454,10745 7515,10701 7576,10648 7638,10593 7699,10541 7760,10500 7822,10456 7883,10384 7944,10307 8005,10229 8066,10161 8128,10094 8189,10026 8250,9964 8312,9874 8373,9781 8434,9700 8496,9614 8557,9528 8617,9459 8679,9381 8740,9275 8801,9186 8863,9085 8924,8983 8985,8898 9047,8831 9108,8748 9169,8651 9231,8567 9291,8444 9352,8343 9414,8262 9475,8192 9536,8127 9598,8048 9659,7987 9721,7877 9782,7783 9843,7703 9904,7643 9965,7582 10026,7478 10088,7394 10149,7310 10210,7226 10272,7158 10333,7115 10394,7063 10456,6986 10517,6917 10577,6855 10639,6798 10700,6766 10761,6728 10823,6673 10884,6592 10945,6521 11007,6452 11068,6395 11129,6350 11190,6308 11251,6265 11312,6184 11374,6117 11435,6066 11497,5990 11558,5930 11619,5886 11681,5830 11742,5754 11803,5692 11864,5627 11925,5568 11986,5510 12048,5463 12109,5418 12170,5342 12232,5281 12293,5213 12354,5155 12416,5094 12476,5057 12537,5005 12599,4939 12660,4883 12721,4820 12783,4761 12844,4709 12905,4680 12967,4639 13028,4578 13089,4519 13150,4467 13211,4420 13273,4373 13334,4339 13395,4301 13457,4249 13518,4208 13579,4159 13641,4120 13702,4082 13762,4055 13824,4023 13885,3981 13946,3936 14008,3893 14069,3850 14130,3819 14192,3790 14253,3756 14314,3712 14375,3673 14436,3635 14497,3604 14559,3569 14620,3546 14682,3515"/>
 <path fill="none" stroke="rgb(255,211,32)" stroke-width="100" stroke-linejoin="round" d="M 1391,11277 L 1452,11276 1513,11276 1575,11275 1635,11274 1696,11273 1758,11274 1819,11273 1880,11272 1942,11270 2003,11269 2064,11268 2126,11267 2187,11267 2247,11267 2309,11266 2370,11266 2431,11265 2493,11263 2554,11263 2615,11263 2677,11262 2738,11262 2799,11261 2861,11260 2921,11259 2982,11258 3044,11258 3105,11257 3167,11257 3228,11256 3289,11256 3351,11256 3412,11255 3473,11255 3534,11254 3595,11254 3656,11252 3718,11251 3779,11251 3840,11251 3902,11251 3963,11251 4024,11250 4086,11249 4147,11249 4207,11249 4269,11248 4330,11248 4391,11248 4453,11246 4514,11246 4575,11245 4637,11244 4698,11244 4760,11243 4820,11243 4881,11242 4943,11241 5004,11238 5065,11236 5127,11235 5188,11235 5249,11234 5311,11233 5372,11231 5432,11229 5494,11228 5555,11226 5616,11226 5678,11225 5739,11224 5800,11222 5862,11220 5923,11218 5984,11216 6046,11215 6106,11214 6167,11213 6229,11207 6290,11203 6351,11200 6413,11196 6474,11195 6536,11194 6597,11188 6658,11183 6719,11179 6780,11173 6841,11167 6903,11164 6964,11161 7025,11155 7087,11145 7148,11134 7209,11124 7271,11112 7332,11108 7392,11102 7454,11086 7515,11067 7576,11053 7638,11032 7699,11016 7760,11008 7822,11001 7883,10982 7944,10949 8005,10923 8066,10896 8128,10874 8189,10861 8250,10853 8312,10820 8373,10782 8434,10751 8496,10719 8557,10688 8617,10671 8679,10660 8740,10629 8801,10578 8863,10530 8924,10478 8985,10431 9047,10411 9108,10396 9169,10348 9231,10288 9291,10228 9352,10175 9414,10115 9475,10084 9536,10066 9598,10014 9659,9941 9721,9886 9782,9812 9843,9751 9904,9712 9965,9688 10026,9627 10088,9511 10149,9423 10210,9322 10272,9236 10333,9185 10394,9157 10456,9067 10517,8948 10577,8849 10639,8798 10700,8768 10761,8724 10823,8681 10884,8576 10945,8437 11007,8318 11068,8249 11129,8208 11190,8169 11251,8132 11312,8015 11374,7889 11435,7757 11497,7611 11558,7477 11619,7419 11681,7377 11742,7267 11803,7136 11864,6982 11925,6845 11986,6724 12048,6669 12109,6642 12170,6520 12232,6378 12293,6253 12354,6147 12416,6038 12476,5996 12537,5970 12599,5858 12660,5737 12721,5620 12783,5517 12844,5419 12905,5369 12967,5348 13028,5241 13089,5121 13150,5024 13211,4918 13273,4833 13334,4805 13395,4785 13457,4726 13518,4625 13579,4543 13641,4474 13702,4406 13762,4379 13824,4365 13885,4300 13946,4231 14008,4165 14069,4102 14130,4041 14192,4023 14253,4016 14314,3965 14375,3912 14436,3865 14497,3816 14559,3771 14620,3751 14682,3744"/>
 <path fill="none" stroke="rgb(87,157,28)" stroke-width="100" stroke-linejoin="round" d="M 1391,11274 L 1452,11273 1513,11271 1575,11269 1635,11267 1696,11267 1758,11267 1819,11264 1880,11264 1942,11263 2003,11262 2064,11260 2126,11260 2187,11260 2247,11258 2309,11256 2370,11254 2431,11252 2493,11250 2554,11250 2615,11250 2677,11247 2738,11245 2799,11242 2861,11241 2921,11238 2982,11237 3044,11237 3105,11235 3167,11233 3228,11233 3289,11229 3351,11227 3412,11226 3473,11225 3534,11222 3595,11219 3656,11215 3718,11213 3779,11215 3840,11214 3902,11214 3963,11211 4024,11206 4086,11203 4147,11200 4207,11190 4269,11188 4330,11187 4391,11183 4453,11177 4514,11171 4575,11165 4637,11146 4698,11143 4760,11141 4820,11135 4881,11125 4943,11120 5004,11114 5065,11095 5127,11090 5188,11087 5249,11077 5311,11066 5372,11059 5432,11051 5494,11034 5555,11029 5616,11025 5678,11016 5739,11008 5800,10998 5862,10989 5923,10975 5984,10969 6046,10963 6106,10951 6167,10938 6229,10925 6290,10914 6351,10892 6413,10881 6474,10871 6536,10853 6597,10820 6658,10800 6719,10780 6780,10743 6841,10726 6903,10712 6964,10680 7025,10616 7087,10586 7148,10557 7209,10489 7271,10462 7332,10433 7392,10382 7454,10276 7515,10229 7576,10184 7638,10082 7699,10044 7760,10011 7822,9943 7883,9792 7944,9752 8005,9699 8066,9584 8128,9540 8189,9503 8250,9441 8312,9290 8373,9238 8434,9185 8496,9044 8557,9013 8617,8986 8679,8925 8740,8800 8801,8753 8863,8711 8924,8593 8985,8567 9047,8542 9108,8492 9169,8397 9231,8358 9291,8318 9352,8241 9414,8222 9475,8193 9536,8148 9598,8045 9659,8008 9721,7972 9782,7895 9843,7871 9904,7852 9965,7807 10026,7709 10088,7673 10149,7641 10210,7566 10272,7543 10333,7527 10394,7483 10456,7384 10517,7350 10577,7314 10639,7295 10700,7276 10761,7255 10823,7210 10884,7091 10945,7053 11007,7022 11068,7006 11129,6986 11190,6972 11251,6925 11312,6818 11374,6783 11435,6749 11497,6676 11558,6656 11619,6637 11681,6599 11742,6507 11803,6479 11864,6444 11925,6365 11986,6342 12048,6324 12109,6274 12170,6193 12232,6155 12293,6112 12354,6032 12416,6004 12476,5983 12537,5928 12599,5853 12660,5810 12721,5767 12783,5666 12844,5636 12905,5612 12967,5556 13028,5466 13089,5422 13150,5378 13211,5297 13273,5274 13334,5253 13395,5196 13457,5107 13518,5070 13579,5026 13641,4946 13702,4921 13762,4901 13824,4850 13885,4765 13946,4739 14008,4706 14069,4635 14130,4612 14192,4593 14253,4552 14314,4498 14375,4467 14436,4432 14497,4365 14559,4343 14620,4327 14682,4281"/>
 <path fill="none" stroke="rgb(126,0,33)" stroke-width="100" stroke-linejoin="round" d="M 1391,11276 L 1452,11276 1513,11275 1575,11275 1635,11275 1696,11275 1758,11275 1819,11272 1880,11268 1942,11268 2003,11268 2064,11268 2126,11268 2187,11268 2247,11259 2309,11258 2370,11258 2431,11255 2493,11254 2554,11254 2615,11254 2677,11250 2738,11247 2799,11231 2861,11229 2921,11226 2982,11226 3044,11226 3105,11222 3167,11216 3228,11210 3289,11207 3351,11205 3412,11205 3473,11205 3534,11195 3595,11188 3656,11182 3718,11177 3779,11155 3840,11155 3902,11155 3963,11143 4024,11133 4086,11129 4147,11120 4207,11114 4269,11114 4330,11114 4391,11102 4453,11082 4514,11053 4575,11033 4637,11022 4698,11022 4760,11022 4820,11001 4881,10971 4943,10955 5004,10945 5065,10931 5127,10931 5188,10931 5249,10909 5311,10883 5372,10862 5432,10839 5494,10825 5555,10825 5616,10825 5678,10808 5739,10776 5800,10766 5862,10751 5923,10721 5984,10721 6046,10721 6106,10697 6167,10687 6229,10661 6290,10644 6351,10616 6413,10616 6474,10616 6536,10590 6597,10563 6658,10543 6719,10524 6780,10496 6841,10496 6903,10496 6964,10461 7025,10428 7087,10408 7148,10386 7209,10357 7271,10357 7332,10357 7392,10310 7454,10280 7515,10080 7576,10035 7638,9992 7699,9992 7760,9992 7822,9928 7883,9878 7944,9835 8005,9791 8066,9753 8128,9753 8189,9753 8250,9693 8312,9639 8373,9596 8434,9565 8496,9524 8557,9524 8617,9524 8679,9461 8740,9394 8801,9349 8863,9307 8924,9271 8985,9271 9047,9271 9108,9221 9169,9167 9231,9133 9291,9102 9352,9075 9414,9075 9475,9075 9536,9027 9598,9027 9659,8980 9721,8940 9782,8906 9843,8906 9904,8906 9965,8858 10026,8810 10088,8786 10149,8763 10210,8745 10272,8745 10333,8745 10394,8704 10456,8672 10517,8650 10577,8634 10639,8634 10700,8634 10761,8634 10823,8597 10884,8558 10945,8527 11007,8509 11068,8509 11129,8509 11190,8509 11251,8479 11312,8436 11374,8436 11435,8405 11497,8381 11558,8381 11619,8381 11681,8331 11742,8281 11803,8257 11864,8232 11925,8203 11986,8203 12048,8203 12109,8147 12170,8097 12232,8039 12293,7990 12354,7940 12416,7940 12476,7940 12537,7845 12599,7772 12660,7712 12721,7648 12783,7585 12844,7585 12905,7585 12967,7490 13028,7401 13089,7331 13150,7278 13211,7206 13273,7206 13334,7206 13395,7093 13457,6999 13518,6919 13579,6856 13641,6791 13702,6791 13762,6791 13824,6704 13885,6638 13946,6597 14008,6549 14069,6500 14130,6500 14192,6500 14253,6434 14314,6379 14375,6331 14436,6288 14497,6248 14559,6248 14620,6248 14682,6190"/>
 <text class="TextShape"><tspan class="TextParagraph" font-family="Liberation Sans, sans-serif" font-size="353px" font-weight="400"><tspan class="TextPosition" x="968" y="11845"><tspan fill="rgb(0,0,0)" stroke="none">27/07</tspan></tspan></tspan></text>
 <text class="TextShape"><tspan class="TextParagraph" font-family="Liberation Sans, sans-serif" font-size="353px" font-weight="400"><tspan class="TextPosition" x="2866" y="11845"><tspan fill="rgb(0,0,0)" stroke="none">27/08</tspan></tspan></tspan></text>
 <text class="TextShape"><tspan class="TextParagraph" font-family="Liberation Sans, sans-serif" font-size="353px" font-weight="400"><tspan class="TextPosition" x="4765" y="11845"><tspan fill="rgb(0,0,0)" stroke="none">27/09</tspan></tspan></tspan></text>
 <text class="TextShape"><tspan class="TextParagraph" font-family="Liberation Sans, sans-serif" font-size="353px" font-weight="400"><tspan class="TextPosition" x="6602" y="11845"><tspan fill="rgb(0,0,0)" stroke="none">27/10</tspan></tspan></tspan></text>
 <text class="TextShape"><tspan class="TextParagraph" font-family="Liberation Sans, sans-serif" font-size="353px" font-weight="400"><tspan class="TextPosition" x="8501" y="11845"><tspan fill="rgb(0,0,0)" stroke="none">27/11</tspan></tspan></tspan></text>
 <text class="TextShape"><tspan class="TextParagraph" font-family="Liberation Sans, sans-serif" font-size="353px" font-weight="400"><tspan class="TextPosition" x="10338" y="11845"><tspan fill="rgb(0,0,0)" stroke="none">27/12</tspan></tspan></tspan></text>
 <text class="TextShape"><tspan class="TextParagraph" font-family="Liberation Sans, sans-serif" font-size="353px" font-weight="400"><tspan class="TextPosition" x="12237" y="11845"><tspan fill="rgb(0,0,0)" stroke="none">27/01</tspan></tspan></tspan></text>
 <text class="TextShape"><tspan class="TextParagraph" font-family="Liberation Sans, sans-serif" font-size="353px" font-weight="400"><tspan class="TextPosition" x="14136" y="11845"><tspan fill="rgb(0,0,0)" stroke="none">27/02</tspan></tspan></tspan></text>
 <text class="TextShape"><tspan class="TextParagraph" font-family="Liberation Sans, sans-serif" font-size="353px" font-weight="400"><tspan class="TextPosition" x="111" y="10162"><tspan fill="rgb(0,0,0)" stroke="none">10.000</tspan></tspan></tspan></text>
 <text class="TextShape"><tspan class="TextParagraph" font-family="Liberation Sans, sans-serif" font-size="353px" font-weight="400"><tspan class="TextPosition" x="111" y="8927"><tspan fill="rgb(0,0,0)" stroke="none">20.000</tspan></tspan></tspan></text>
 <text class="TextShape"><tspan class="TextParagraph" font-family="Liberation Sans, sans-serif" font-size="353px" font-weight="400"><tspan class="TextPosition" x="111" y="7692"><tspan fill="rgb(0,0,0)" stroke="none">30.000</tspan></tspan></tspan></text>
 <text class="TextShape"><tspan class="TextParagraph" font-family="Liberation Sans, sans-serif" font-size="353px" font-weight="400"><tspan class="TextPosition" x="111" y="6456"><tspan fill="rgb(0,0,0)" stroke="none">40.000</tspan></tspan></tspan></text>
 <text class="TextShape"><tspan class="TextParagraph" font-family="Liberation Sans, sans-serif" font-size="353px" font-weight="400"><tspan class="TextPosition" x="111" y="5221"><tspan fill="rgb(0,0,0)" stroke="none">50.000</tspan></tspan></tspan></text>
 <text class="TextShape"><tspan class="TextParagraph" font-family="Liberation Sans, sans-serif" font-size="353px" font-weight="400"><tspan class="TextPosition" x="111" y="3986"><tspan fill="rgb(0,0,0)" stroke="none">60.000</tspan></tspan></tspan></text>
 <text class="TextShape"><tspan class="TextParagraph" font-family="Liberation Sans, sans-serif" font-size="353px" font-weight="400"><tspan class="TextPosition" x="111" y="2750"><tspan fill="rgb(0,0,0)" stroke="none">70.000</tspan></tspan></tspan></text>
 <text class="TextShape"><tspan class="TextParagraph" font-family="Liberation Sans, sans-serif" font-size="353px" font-weight="400"><tspan class="TextPosition" x="111" y="1515"><tspan fill="rgb(0,0,0)" stroke="none">80.000</tspan></tspan></tspan></text>
 <text class="TextShape"><tspan class="TextParagraph" font-family="Liberation Sans, sans-serif" font-size="459px" font-weight="400"><tspan class="TextPosition" x="1965" y="538"><tspan fill="rgb(0,0,0)" stroke="none">Covid-19. Muertes acumuladas en Europa Occidental (1)</tspan></tspan></tspan></text>
 <path fill="none" stroke="rgb(0,69,134)" stroke-width="100" stroke-linejoin="round" d="M 2332,2009 L 3131,2009"/>
 <path fill="none" stroke="rgb(255,66,14)" stroke-width="100" stroke-linejoin="round" d="M 2332,3241 L 3131,3241"/>
 <path fill="none" stroke="rgb(255,211,32)" stroke-width="100" stroke-linejoin="round" d="M 2332,4473 L 3131,4473"/>
 <path fill="none" stroke="rgb(87,157,28)" stroke-width="100" stroke-linejoin="round" d="M 2332,5705 L 3131,5705"/>
 <path fill="none" stroke="rgb(126,0,33)" stroke-width="100" stroke-linejoin="round" d="M 2332,6936 L 3131,6936"/>
 <text class="TextShape"><tspan class="TextParagraph" font-family="Liberation Sans, sans-serif" font-size="353px" font-weight="400"><tspan class="TextPosition" x="3231" y="2129"><tspan fill="rgb(0,0,0)" stroke="none">Reino Unido</tspan></tspan></tspan></text>
 <text class="TextShape"><tspan class="TextParagraph" font-family="Liberation Sans, sans-serif" font-size="353px" font-weight="400"><tspan class="TextPosition" x="3231" y="3361"><tspan fill="rgb(0,0,0)" stroke="none">Italia</tspan></tspan></tspan></text>
 <text class="TextShape"><tspan class="TextParagraph" font-family="Liberation Sans, sans-serif" font-size="353px" font-weight="400"><tspan class="TextPosition" x="3231" y="4593"><tspan fill="rgb(0,0,0)" stroke="none">Alemania</tspan></tspan></tspan></text>
 <text class="TextShape"><tspan class="TextParagraph" font-family="Liberation Sans, sans-serif" font-size="353px" font-weight="400"><tspan class="TextPosition" x="3231" y="5825"><tspan fill="rgb(0,0,0)" stroke="none">Francia</tspan></tspan></tspan></text>
 <text class="TextShape"><tspan class="TextParagraph" font-family="Liberation Sans, sans-serif" font-size="353px" font-weight="400"><tspan class="TextPosition" x="3231" y="7056"><tspan fill="rgb(0,0,0)" stroke="none">España</tspan></tspan></tspan></text>
</svg>