<?xml version="1.0" encoding="UTF-8"?>
<!DOCTYPE svg PUBLIC "-//W3C//DTD SVG 1.1//EN" "http://www.w3.org/Graphics/SVG/1.1/DTD/svg11.dtd">
<svg width="150mm" height="120mm" viewBox="0 0 15000 12000" version="1.1" xmlns="http://www.w3.org/2000/svg" xmlns:xlink="http://www.w3.org/1999/xlink" stroke-width="28.222" stroke-linejoin="round" xml:space="preserve">
 <path fill="rgb(255,255,255)" stroke="none" d="M 7490,12000 L 0,12000 0,0 14981,0 14981,12000 7490,12000 Z"/>
 <path fill="none" stroke="rgb(0,0,0)" stroke-linejoin="round" d="M 8227,9996 L 1784,9996 1784,1029 14670,1029 14670,9996 8227,9996 Z"/>
 <path fill="none" stroke="rgb(221,221,221)" stroke-linejoin="round" d="M 1784,1027 L 1784,9995"/>
 <path fill="none" stroke="rgb(221,221,221)" stroke-linejoin="round" d="M 2076,1027 L 2076,9995"/>
 <path fill="none" stroke="rgb(221,221,221)" stroke-linejoin="round" d="M 2369,1027 L 2369,9995"/>
 <path fill="none" stroke="rgb(221,221,221)" stroke-linejoin="round" d="M 2661,1027 L 2661,9995"/>
 <path fill="none" stroke="rgb(221,221,221)" stroke-linejoin="round" d="M 2955,1027 L 2955,9995"/>
 <path fill="none" stroke="rgb(221,221,221)" stroke-linejoin="round" d="M 3248,1027 L 3248,9995"/>
 <path fill="none" stroke="rgb(221,221,221)" stroke-linejoin="round" d="M 3540,1027 L 3540,9995"/>
 <path fill="none" stroke="rgb(221,221,221)" stroke-linejoin="round" d="M 3833,1027 L 3833,9995"/>
 <path fill="none" stroke="rgb(221,221,221)" stroke-linejoin="round" d="M 4126,1027 L 4126,9995"/>
 <path fill="none" stroke="rgb(221,221,221)" stroke-linejoin="round" d="M 4419,1027 L 4419,9995"/>
 <path fill="none" stroke="rgb(221,221,221)" stroke-linejoin="round" d="M 4712,1027 L 4712,9995"/>
 <path fill="none" stroke="rgb(221,221,221)" stroke-linejoin="round" d="M 5005,1027 L 5005,9995"/>
 <path fill="none" stroke="rgb(221,221,221)" stroke-linejoin="round" d="M 5298,1027 L 5298,9995"/>
 <path fill="none" stroke="rgb(221,221,221)" stroke-linejoin="round" d="M 5590,1027 L 5590,9995"/>
 <path fill="none" stroke="rgb(221,221,221)" stroke-linejoin="round" d="M 5883,1027 L 5883,9995"/>
 <path fill="none" stroke="rgb(221,221,221)" stroke-linejoin="round" d="M 6177,1027 L 6177,9995"/>
 <path fill="none" stroke="rgb(221,221,221)" stroke-linejoin="round" d="M 6469,1027 L 6469,9995"/>
 <path fill="none" stroke="rgb(221,221,221)" stroke-linejoin="round" d="M 6762,1027 L 6762,9995"/>
 <path fill="none" stroke="rgb(221,221,221)" stroke-linejoin="round" d="M 7054,1027 L 7054,9995"/>
 <path fill="none" stroke="rgb(221,221,221)" stroke-linejoin="round" d="M 7348,1027 L 7348,9995"/>
 <path fill="none" stroke="rgb(221,221,221)" stroke-linejoin="round" d="M 7641,1027 L 7641,9995"/>
 <path fill="none" stroke="rgb(221,221,221)" stroke-linejoin="round" d="M 7933,1027 L 7933,9995"/>
 <path fill="none" stroke="rgb(221,221,221)" stroke-linejoin="round" d="M 8227,1027 L 8227,9995"/>
 <path fill="none" stroke="rgb(221,221,221)" stroke-linejoin="round" d="M 8519,1027 L 8519,9995"/>
 <path fill="none" stroke="rgb(221,221,221)" stroke-linejoin="round" d="M 8812,1027 L 8812,9995"/>
 <path fill="none" stroke="rgb(221,221,221)" stroke-linejoin="round" d="M 9105,1027 L 9105,9995"/>
 <path fill="none" stroke="rgb(221,221,221)" stroke-linejoin="round" d="M 9398,1027 L 9398,9995"/>
 <path fill="none" stroke="rgb(221,221,221)" stroke-linejoin="round" d="M 9691,1027 L 9691,9995"/>
 <path fill="none" stroke="rgb(221,221,221)" stroke-linejoin="round" d="M 9983,1027 L 9983,9995"/>
 <path fill="none" stroke="rgb(221,221,221)" stroke-linejoin="round" d="M 10276,1027 L 10276,9995"/>
 <path fill="none" stroke="rgb(221,221,221)" stroke-linejoin="round" d="M 10570,1027 L 10570,9995"/>
 <path fill="none" stroke="rgb(221,221,221)" stroke-linejoin="round" d="M 10862,1027 L 10862,9995"/>
 <path fill="none" stroke="rgb(221,221,221)" stroke-linejoin="round" d="M 11155,1027 L 11155,9995"/>
 <path fill="none" stroke="rgb(221,221,221)" stroke-linejoin="round" d="M 11448,1027 L 11448,9995"/>
 <path fill="none" stroke="rgb(221,221,221)" stroke-linejoin="round" d="M 11741,1027 L 11741,9995"/>
 <path fill="none" stroke="rgb(221,221,221)" stroke-linejoin="round" d="M 12034,1027 L 12034,9995"/>
 <path fill="none" stroke="rgb(221,221,221)" stroke-linejoin="round" d="M 12326,1027 L 12326,9995"/>
 <path fill="none" stroke="rgb(221,221,221)" stroke-linejoin="round" d="M 12620,1027 L 12620,9995"/>
 <path fill="none" stroke="rgb(221,221,221)" stroke-linejoin="round" d="M 12912,1027 L 12912,9995"/>
 <path fill="none" stroke="rgb(221,221,221)" stroke-linejoin="round" d="M 13205,1027 L 13205,9995"/>
 <path fill="none" stroke="rgb(221,221,221)" stroke-linejoin="round" d="M 13498,1027 L 13498,9995"/>
 <path fill="none" stroke="rgb(221,221,221)" stroke-linejoin="round" d="M 13791,1027 L 13791,9995"/>
 <path fill="none" stroke="rgb(221,221,221)" stroke-linejoin="round" d="M 14084,1027 L 14084,9995"/>
 <path fill="none" stroke="rgb(221,221,221)" stroke-linejoin="round" d="M 14376,1027 L 14376,9995"/>
 <path fill="none" stroke="rgb(221,221,221)" stroke-linejoin="round" d="M 14670,1027 L 14670,9995"/>
 <path fill="none" stroke="rgb(0,0,0)" stroke-linejoin="round" d="M 14670,9995 L 1784,9995"/>
 <path fill="none" stroke="rgb(0,0,0)" stroke-linejoin="round" d="M 14670,7909 L 1784,7909"/>
 <path fill="none" stroke="rgb(0,0,0)" stroke-linejoin="round" d="M 14670,5825 L 1784,5825"/>
 <path fill="none" stroke="rgb(0,0,0)" stroke-linejoin="round" d="M 14670,3740 L 1784,3740"/>
 <path fill="none" stroke="rgb(0,0,0)" stroke-linejoin="round" d="M 14670,1655 L 1784,1655"/>
 <path fill="none" stroke="rgb(0,0,0)" stroke-linejoin="round" d="M 1784,10145 L 1784,9995"/>
 <path fill="none" stroke="rgb(0,0,0)" stroke-linejoin="round" d="M 1784,10145 L 1784,9995"/>
 <path fill="none" stroke="rgb(0,0,0)" stroke-linejoin="round" d="M 3833,10145 L 3833,9995"/>
 <path fill="none" stroke="rgb(0,0,0)" stroke-linejoin="round" d="M 3833,10145 L 3833,9995"/>
 <path fill="none" stroke="rgb(0,0,0)" stroke-linejoin="round" d="M 5883,10145 L 5883,9995"/>
 <path fill="none" stroke="rgb(0,0,0)" stroke-linejoin="round" d="M 5883,10145 L 5883,9995"/>
 <path fill="none" stroke="rgb(0,0,0)" stroke-linejoin="round" d="M 7933,10145 L 7933,9995"/>
 <path fill="none" stroke="rgb(0,0,0)" stroke-linejoin="round" d="M 7933,10145 L 7933,9995"/>
 <path fill="none" stroke="rgb(0,0,0)" stroke-linejoin="round" d="M 9983,10145 L 9983,9995"/>
 <path fill="none" stroke="rgb(0,0,0)" stroke-linejoin="round" d="M 9983,10145 L 9983,9995"/>
 <path fill="none" stroke="rgb(0,0,0)" stroke-linejoin="round" d="M 12034,10145 L 12034,9995"/>
 <path fill="none" stroke="rgb(0,0,0)" stroke-linejoin="round" d="M 12034,10145 L 12034,9995"/>
 <path fill="none" stroke="rgb(0,0,0)" stroke-linejoin="round" d="M 14084,10145 L 14084,9995"/>
 <path fill="none" stroke="rgb(0,0,0)" stroke-linejoin="round" d="M 14084,10145 L 14084,9995"/>
 <path fill="none" stroke="rgb(0,0,0)" stroke-linejoin="round" d="M 1784,9995 L 14670,9995"/>
 <path fill="none" stroke="rgb(0,0,0)" stroke-linejoin="round" d="M 1634,9995 L 1784,9995"/>
 <path fill="none" stroke="rgb(0,0,0)" stroke-linejoin="round" d="M 1634,9995 L 1784,9995"/>
 <path fill="none" stroke="rgb(0,0,0)" stroke-linejoin="round" d="M 1634,7909 L 1784,7909"/>
 <path fill="none" stroke="rgb(0,0,0)" stroke-linejoin="round" d="M 1634,7909 L 1784,7909"/>
 <path fill="none" stroke="rgb(0,0,0)" stroke-linejoin="round" d="M 1634,5825 L 1784,5825"/>
 <path fill="none" stroke="rgb(0,0,0)" stroke-linejoin="round" d="M 1634,5825 L 1784,5825"/>
 <path fill="none" stroke="rgb(0,0,0)" stroke-linejoin="round" d="M 1634,3740 L 1784,3740"/>
 <path fill="none" stroke="rgb(0,0,0)" stroke-linejoin="round" d="M 1634,3740 L 1784,3740"/>
 <path fill="none" stroke="rgb(0,0,0)" stroke-linejoin="round" d="M 1634,1655 L 1784,1655"/>
 <path fill="none" stroke="rgb(0,0,0)" stroke-linejoin="round" d="M 1634,1655 L 1784,1655"/>
 <path fill="none" stroke="rgb(0,0,0)" stroke-linejoin="round" d="M 1784,9995 L 1784,1027"/>
 <path fill="none" stroke="rgb(0,0,0)" stroke-width="50" stroke-linejoin="round" d="M 2349,9995 L 2516,9639 2808,9272 3101,8504 3394,8181 3687,8016 3980,7701 4272,7509 4566,7217 4858,7073 5151,6688 5444,6310 5737,6035 6030,5742 6322,5483 6616,5331 6909,4922 7201,4709 7494,4429 7787,4184 8080,3998 8373,3799 8665,3681 8959,3475 9251,3316 9544,3181 9838,3024 10130,2903 10423,2750 10715,2587 11009,2472 11302,2378 11594,2274 11887,2187 12180,2111 12473,2009 12766,1925 13059,1859 13352,1793 13644,1730 13937,1679 14231,1628 14523,1579"/>
 <path fill="rgb(0,0,0)" stroke="none" d="M 2416,9639 L 2516,9739 2615,9639 2516,9539 2416,9639 Z"/>
 <path fill="none" stroke="rgb(0,0,0)" stroke-linejoin="round" d="M 2416,9639 L 2516,9739 2615,9639 2516,9539 2416,9639 Z"/>
 <path fill="rgb(0,0,0)" stroke="none" d="M 2708,9272 L 2808,9372 2908,9272 2808,9172 2708,9272 Z"/>
 <path fill="none" stroke="rgb(0,0,0)" stroke-linejoin="round" d="M 2708,9272 L 2808,9372 2908,9272 2808,9172 2708,9272 Z"/>
 <path fill="rgb(0,0,0)" stroke="none" d="M 3001,8504 L 3101,8604 3201,8504 3101,8404 3001,8504 Z"/>
 <path fill="none" stroke="rgb(0,0,0)" stroke-linejoin="round" d="M 3001,8504 L 3101,8604 3201,8504 3101,8404 3001,8504 Z"/>
 <path fill="rgb(0,0,0)" stroke="none" d="M 3294,8181 L 3394,8281 3494,8181 3394,8081 3294,8181 Z"/>
 <path fill="none" stroke="rgb(0,0,0)" stroke-linejoin="round" d="M 3294,8181 L 3394,8281 3494,8181 3394,8081 3294,8181 Z"/>
 <path fill="rgb(0,0,0)" stroke="none" d="M 3587,8016 L 3687,8116 3787,8016 3687,7916 3587,8016 Z"/>
 <path fill="none" stroke="rgb(0,0,0)" stroke-linejoin="round" d="M 3587,8016 L 3687,8116 3787,8016 3687,7916 3587,8016 Z"/>
 <path fill="rgb(0,0,0)" stroke="none" d="M 3880,7701 L 3980,7801 4079,7701 3980,7601 3880,7701 Z"/>
 <path fill="none" stroke="rgb(0,0,0)" stroke-linejoin="round" d="M 3880,7701 L 3980,7801 4079,7701 3980,7601 3880,7701 Z"/>
 <path fill="rgb(0,0,0)" stroke="none" d="M 4172,7509 L 4272,7609 4372,7509 4272,7409 4172,7509 Z"/>
 <path fill="none" stroke="rgb(0,0,0)" stroke-linejoin="round" d="M 4172,7509 L 4272,7609 4372,7509 4272,7409 4172,7509 Z"/>
 <path fill="rgb(0,0,0)" stroke="none" d="M 4466,7217 L 4566,7317 4666,7217 4566,7117 4466,7217 Z"/>
 <path fill="none" stroke="rgb(0,0,0)" stroke-linejoin="round" d="M 4466,7217 L 4566,7317 4666,7217 4566,7117 4466,7217 Z"/>
 <path fill="rgb(0,0,0)" stroke="none" d="M 4758,7073 L 4858,7173 4958,7073 4858,6973 4758,7073 Z"/>
 <path fill="none" stroke="rgb(0,0,0)" stroke-linejoin="round" d="M 4758,7073 L 4858,7173 4958,7073 4858,6973 4758,7073 Z"/>
 <path fill="rgb(0,0,0)" stroke="none" d="M 5051,6688 L 5151,6788 5251,6688 5151,6588 5051,6688 Z"/>
 <path fill="none" stroke="rgb(0,0,0)" stroke-linejoin="round" d="M 5051,6688 L 5151,6788 5251,6688 5151,6588 5051,6688 Z"/>
 <path fill="rgb(0,0,0)" stroke="none" d="M 5344,6310 L 5444,6410 5543,6310 5444,6210 5344,6310 Z"/>
 <path fill="none" stroke="rgb(0,0,0)" stroke-linejoin="round" d="M 5344,6310 L 5444,6410 5543,6310 5444,6210 5344,6310 Z"/>
 <path fill="rgb(0,0,0)" stroke="none" d="M 5637,6035 L 5737,6135 5837,6035 5737,5936 5637,6035 Z"/>
 <path fill="none" stroke="rgb(0,0,0)" stroke-linejoin="round" d="M 5637,6035 L 5737,6135 5837,6035 5737,5936 5637,6035 Z"/>
 <path fill="rgb(0,0,0)" stroke="none" d="M 5930,5742 L 6030,5842 6130,5742 6030,5642 5930,5742 Z"/>
 <path fill="none" stroke="rgb(0,0,0)" stroke-linejoin="round" d="M 5930,5742 L 6030,5842 6130,5742 6030,5642 5930,5742 Z"/>
 <path fill="rgb(0,0,0)" stroke="none" d="M 6222,5483 L 6322,5583 6422,5483 6322,5383 6222,5483 Z"/>
 <path fill="none" stroke="rgb(0,0,0)" stroke-linejoin="round" d="M 6222,5483 L 6322,5583 6422,5483 6322,5383 6222,5483 Z"/>
 <path fill="rgb(0,0,0)" stroke="none" d="M 6516,5331 L 6616,5431 6716,5331 6616,5231 6516,5331 Z"/>
 <path fill="none" stroke="rgb(0,0,0)" stroke-linejoin="round" d="M 6516,5331 L 6616,5431 6716,5331 6616,5231 6516,5331 Z"/>
 <path fill="rgb(0,0,0)" stroke="none" d="M 6809,4922 L 6909,5022 7008,4922 6909,4822 6809,4922 Z"/>
 <path fill="none" stroke="rgb(0,0,0)" stroke-linejoin="round" d="M 6809,4922 L 6909,5022 7008,4922 6909,4822 6809,4922 Z"/>
 <path fill="rgb(0,0,0)" stroke="none" d="M 7101,4709 L 7201,4809 7301,4709 7201,4609 7101,4709 Z"/>
 <path fill="none" stroke="rgb(0,0,0)" stroke-linejoin="round" d="M 7101,4709 L 7201,4809 7301,4709 7201,4609 7101,4709 Z"/>
 <path fill="rgb(0,0,0)" stroke="none" d="M 7394,4429 L 7494,4529 7594,4429 7494,4329 7394,4429 Z"/>
 <path fill="none" stroke="rgb(0,0,0)" stroke-linejoin="round" d="M 7394,4429 L 7494,4529 7594,4429 7494,4329 7394,4429 Z"/>
 <path fill="rgb(0,0,0)" stroke="none" d="M 7687,4184 L 7787,4284 7887,4184 7787,4084 7687,4184 Z"/>
 <path fill="none" stroke="rgb(0,0,0)" stroke-linejoin="round" d="M 7687,4184 L 7787,4284 7887,4184 7787,4084 7687,4184 Z"/>
 <path fill="rgb(0,0,0)" stroke="none" d="M 7980,3998 L 8080,4098 8180,3998 8080,3898 7980,3998 Z"/>
 <path fill="none" stroke="rgb(0,0,0)" stroke-linejoin="round" d="M 7980,3998 L 8080,4098 8180,3998 8080,3898 7980,3998 Z"/>
 <path fill="rgb(0,0,0)" stroke="none" d="M 8273,3799 L 8373,3899 8472,3799 8373,3699 8273,3799 Z"/>
 <path fill="none" stroke="rgb(0,0,0)" stroke-linejoin="round" d="M 8273,3799 L 8373,3899 8472,3799 8373,3699 8273,3799 Z"/>
 <path fill="rgb(0,0,0)" stroke="none" d="M 8565,3681 L 8665,3781 8765,3681 8665,3581 8565,3681 Z"/>
 <path fill="none" stroke="rgb(0,0,0)" stroke-linejoin="round" d="M 8565,3681 L 8665,3781 8765,3681 8665,3581 8565,3681 Z"/>
 <path fill="rgb(0,0,0)" stroke="none" d="M 8859,3475 L 8959,3575 9059,3475 8959,3375 8859,3475 Z"/>
 <path fill="none" stroke="rgb(0,0,0)" stroke-linejoin="round" d="M 8859,3475 L 8959,3575 9059,3475 8959,3375 8859,3475 Z"/>
 <path fill="rgb(0,0,0)" stroke="none" d="M 9151,3316 L 9251,3416 9351,3316 9251,3216 9151,3316 Z"/>
 <path fill="none" stroke="rgb(0,0,0)" stroke-linejoin="round" d="M 9151,3316 L 9251,3416 9351,3316 9251,3216 9151,3316 Z"/>
 <path fill="rgb(0,0,0)" stroke="none" d="M 9444,3181 L 9544,3281 9644,3181 9544,3081 9444,3181 Z"/>
 <path fill="none" stroke="rgb(0,0,0)" stroke-linejoin="round" d="M 9444,3181 L 9544,3281 9644,3181 9544,3081 9444,3181 Z"/>
 <path fill="rgb(0,0,0)" stroke="none" d="M 9738,3024 L 9838,3124 9937,3024 9838,2924 9738,3024 Z"/>
 <path fill="none" stroke="rgb(0,0,0)" stroke-linejoin="round" d="M 9738,3024 L 9838,3124 9937,3024 9838,2924 9738,3024 Z"/>
 <path fill="rgb(0,0,0)" stroke="none" d="M 10030,2903 L 10130,3003 10230,2903 10130,2803 10030,2903 Z"/>
 <path fill="none" stroke="rgb(0,0,0)" stroke-linejoin="round" d="M 10030,2903 L 10130,3003 10230,2903 10130,2803 10030,2903 Z"/>
 <path fill="rgb(0,0,0)" stroke="none" d="M 10323,2750 L 10423,2850 10523,2750 10423,2650 10323,2750 Z"/>
 <path fill="none" stroke="rgb(0,0,0)" stroke-linejoin="round" d="M 10323,2750 L 10423,2850 10523,2750 10423,2650 10323,2750 Z"/>
 <path fill="rgb(0,0,0)" stroke="none" d="M 10615,2587 L 10715,2687 10815,2587 10715,2487 10615,2587 Z"/>
 <path fill="none" stroke="rgb(0,0,0)" stroke-linejoin="round" d="M 10615,2587 L 10715,2687 10815,2587 10715,2487 10615,2587 Z"/>
 <path fill="rgb(0,0,0)" stroke="none" d="M 10909,2472 L 11009,2572 11109,2472 11009,2372 10909,2472 Z"/>
 <path fill="none" stroke="rgb(0,0,0)" stroke-linejoin="round" d="M 10909,2472 L 11009,2572 11109,2472 11009,2372 10909,2472 Z"/>
 <path fill="rgb(0,0,0)" stroke="none" d="M 11202,2378 L 11302,2478 11401,2378 11302,2278 11202,2378 Z"/>
 <path fill="none" stroke="rgb(0,0,0)" stroke-linejoin="round" d="M 11202,2378 L 11302,2478 11401,2378 11302,2278 11202,2378 Z"/>
 <path fill="rgb(0,0,0)" stroke="none" d="M 11494,2274 L 11594,2374 11694,2274 11594,2174 11494,2274 Z"/>
 <path fill="none" stroke="rgb(0,0,0)" stroke-linejoin="round" d="M 11494,2274 L 11594,2374 11694,2274 11594,2174 11494,2274 Z"/>
 <path fill="rgb(0,0,0)" stroke="none" d="M 11787,2187 L 11887,2287 11987,2187 11887,2087 11787,2187 Z"/>
 <path fill="none" stroke="rgb(0,0,0)" stroke-linejoin="round" d="M 11787,2187 L 11887,2287 11987,2187 11887,2087 11787,2187 Z"/>
 <path fill="rgb(0,0,0)" stroke="none" d="M 12080,2111 L 12180,2211 12280,2111 12180,2011 12080,2111 Z"/>
 <path fill="none" stroke="rgb(0,0,0)" stroke-linejoin="round" d="M 12080,2111 L 12180,2211 12280,2111 12180,2011 12080,2111 Z"/>
 <path fill="rgb(0,0,0)" stroke="none" d="M 12373,2009 L 12473,2109 12573,2009 12473,1909 12373,2009 Z"/>
 <path fill="none" stroke="rgb(0,0,0)" stroke-linejoin="round" d="M 12373,2009 L 12473,2109 12573,2009 12473,1909 12373,2009 Z"/>
 <path fill="rgb(0,0,0)" stroke="none" d="M 12666,1925 L 12766,2025 12865,1925 12766,1825 12666,1925 Z"/>
 <path fill="none" stroke="rgb(0,0,0)" stroke-linejoin="round" d="M 12666,1925 L 12766,2025 12865,1925 12766,1825 12666,1925 Z"/>
 <path fill="rgb(0,0,0)" stroke="none" d="M 12959,1859 L 13059,1959 13159,1859 13059,1759 12959,1859 Z"/>
 <path fill="none" stroke="rgb(0,0,0)" stroke-linejoin="round" d="M 12959,1859 L 13059,1959 13159,1859 13059,1759 12959,1859 Z"/>
 <path fill="rgb(0,0,0)" stroke="none" d="M 13252,1793 L 13352,1893 13452,1793 13352,1693 13252,1793 Z"/>
 <path fill="none" stroke="rgb(0,0,0)" stroke-linejoin="round" d="M 13252,1793 L 13352,1893 13452,1793 13352,1693 13252,1793 Z"/>
 <path fill="rgb(0,0,0)" stroke="none" d="M 13544,1730 L 13644,1830 13744,1730 13644,1630 13544,1730 Z"/>
 <path fill="none" stroke="rgb(0,0,0)" stroke-linejoin="round" d="M 13544,1730 L 13644,1830 13744,1730 13644,1630 13544,1730 Z"/>
 <path fill="rgb(0,0,0)" stroke="none" d="M 13837,1679 L 13937,1779 14037,1679 13937,1579 13837,1679 Z"/>
 <path fill="none" stroke="rgb(0,0,0)" stroke-linejoin="round" d="M 13837,1679 L 13937,1779 14037,1679 13937,1579 13837,1679 Z"/>
 <path fill="rgb(0,0,0)" stroke="none" d="M 14131,1628 L 14231,1728 14330,1628 14231,1528 14131,1628 Z"/>
 <path fill="none" stroke="rgb(0,0,0)" stroke-linejoin="round" d="M 14131,1628 L 14231,1728 14330,1628 14231,1528 14131,1628 Z"/>
 <path fill="rgb(0,0,0)" stroke="none" d="M 14423,1579 L 14523,1679 14623,1579 14523,1479 14423,1579 Z"/>
 <path fill="none" stroke="rgb(0,0,0)" stroke-linejoin="round" d="M 14423,1579 L 14523,1679 14623,1579 14523,1479 14423,1579 Z"/>
 <path fill="none" stroke="rgb(255,66,14)" stroke-width="50" stroke-linejoin="round" d="M 5737,9890 L 6030,8895 6322,8432 6616,8007 6909,7805 7201,7379 7494,6670 7787,6403 8080,5879 8373,5571 8665,5442 8959,4763 9251,4699 9544,4280 9838,4101 10130,3876 10423,3634 10715,3380 11009,3144 11302,2929 11594,2741 11887,2518 12180,2360 12473,2204 12766,2061 13059,1937 13352,1831 13644,1731 13937,1641 14231,1550 14523,1470"/>
 <path fill="rgb(255,66,14)" stroke="none" d="M 5637,9890 L 5737,9990 5837,9890 5737,9790 5637,9890 Z"/>
 <path fill="none" stroke="rgb(255,66,14)" stroke-linejoin="round" d="M 5637,9890 L 5737,9990 5837,9890 5737,9790 5637,9890 Z"/>
 <path fill="rgb(255,66,14)" stroke="none" d="M 5930,8895 L 6030,8995 6130,8895 6030,8795 5930,8895 Z"/>
 <path fill="none" stroke="rgb(255,66,14)" stroke-linejoin="round" d="M 5930,8895 L 6030,8995 6130,8895 6030,8795 5930,8895 Z"/>
 <path fill="rgb(255,66,14)" stroke="none" d="M 6222,8432 L 6322,8532 6422,8432 6322,8332 6222,8432 Z"/>
 <path fill="none" stroke="rgb(255,66,14)" stroke-linejoin="round" d="M 6222,8432 L 6322,8532 6422,8432 6322,8332 6222,8432 Z"/>
 <path fill="rgb(255,66,14)" stroke="none" d="M 6516,8007 L 6616,8107 6716,8007 6616,7907 6516,8007 Z"/>
 <path fill="none" stroke="rgb(255,66,14)" stroke-linejoin="round" d="M 6516,8007 L 6616,8107 6716,8007 6616,7907 6516,8007 Z"/>
 <path fill="rgb(255,66,14)" stroke="none" d="M 6809,7805 L 6909,7905 7008,7805 6909,7705 6809,7805 Z"/>
 <path fill="none" stroke="rgb(255,66,14)" stroke-linejoin="round" d="M 6809,7805 L 6909,7905 7008,7805 6909,7705 6809,7805 Z"/>
 <path fill="rgb(255,66,14)" stroke="none" d="M 7101,7379 L 7201,7479 7301,7379 7201,7279 7101,7379 Z"/>
 <path fill="none" stroke="rgb(255,66,14)" stroke-linejoin="round" d="M 7101,7379 L 7201,7479 7301,7379 7201,7279 7101,7379 Z"/>
 <path fill="rgb(255,66,14)" stroke="none" d="M 7394,6670 L 7494,6770 7594,6670 7494,6570 7394,6670 Z"/>
 <path fill="none" stroke="rgb(255,66,14)" stroke-linejoin="round" d="M 7394,6670 L 7494,6770 7594,6670 7494,6570 7394,6670 Z"/>
 <path fill="rgb(255,66,14)" stroke="none" d="M 7687,6403 L 7787,6503 7887,6403 7787,6303 7687,6403 Z"/>
 <path fill="none" stroke="rgb(255,66,14)" stroke-linejoin="round" d="M 7687,6403 L 7787,6503 7887,6403 7787,6303 7687,6403 Z"/>
 <path fill="rgb(255,66,14)" stroke="none" d="M 7980,5879 L 8080,5979 8180,5879 8080,5779 7980,5879 Z"/>
 <path fill="none" stroke="rgb(255,66,14)" stroke-linejoin="round" d="M 7980,5879 L 8080,5979 8180,5879 8080,5779 7980,5879 Z"/>
 <path fill="rgb(255,66,14)" stroke="none" d="M 8273,5571 L 8373,5671 8472,5571 8373,5471 8273,5571 Z"/>
 <path fill="none" stroke="rgb(255,66,14)" stroke-linejoin="round" d="M 8273,5571 L 8373,5671 8472,5571 8373,5471 8273,5571 Z"/>
 <path fill="rgb(255,66,14)" stroke="none" d="M 8565,5442 L 8665,5542 8765,5442 8665,5342 8565,5442 Z"/>
 <path fill="none" stroke="rgb(255,66,14)" stroke-linejoin="round" d="M 8565,5442 L 8665,5542 8765,5442 8665,5342 8565,5442 Z"/>
 <path fill="rgb(255,66,14)" stroke="none" d="M 8859,4763 L 8959,4863 9059,4763 8959,4663 8859,4763 Z"/>
 <path fill="none" stroke="rgb(255,66,14)" stroke-linejoin="round" d="M 8859,4763 L 8959,4863 9059,4763 8959,4663 8859,4763 Z"/>
 <path fill="rgb(255,66,14)" stroke="none" d="M 9151,4699 L 9251,4799 9351,4699 9251,4599 9151,4699 Z"/>
 <path fill="none" stroke="rgb(255,66,14)" stroke-linejoin="round" d="M 9151,4699 L 9251,4799 9351,4699 9251,4599 9151,4699 Z"/>
 <path fill="rgb(255,66,14)" stroke="none" d="M 9444,4280 L 9544,4380 9644,4280 9544,4180 9444,4280 Z"/>
 <path fill="none" stroke="rgb(255,66,14)" stroke-linejoin="round" d="M 9444,4280 L 9544,4380 9644,4280 9544,4180 9444,4280 Z"/>
 <path fill="rgb(255,66,14)" stroke="none" d="M 9738,4101 L 9838,4201 9937,4101 9838,4001 9738,4101 Z"/>
 <path fill="none" stroke="rgb(255,66,14)" stroke-linejoin="round" d="M 9738,4101 L 9838,4201 9937,4101 9838,4001 9738,4101 Z"/>
 <path fill="rgb(255,66,14)" stroke="none" d="M 10030,3876 L 10130,3976 10230,3876 10130,3776 10030,3876 Z"/>
 <path fill="none" stroke="rgb(255,66,14)" stroke-linejoin="round" d="M 10030,3876 L 10130,3976 10230,3876 10130,3776 10030,3876 Z"/>
 <path fill="rgb(255,66,14)" stroke="none" d="M 10323,3634 L 10423,3734 10523,3634 10423,3534 10323,3634 Z"/>
 <path fill="none" stroke="rgb(255,66,14)" stroke-linejoin="round" d="M 10323,3634 L 10423,3734 10523,3634 10423,3534 10323,3634 Z"/>
 <path fill="rgb(255,66,14)" stroke="none" d="M 10615,3380 L 10715,3480 10815,3380 10715,3280 10615,3380 Z"/>
 <path fill="none" stroke="rgb(255,66,14)" stroke-linejoin="round" d="M 10615,3380 L 10715,3480 10815,3380 10715,3280 10615,3380 Z"/>
 <path fill="rgb(255,66,14)" stroke="none" d="M 10909,3144 L 11009,3244 11109,3144 11009,3044 10909,3144 Z"/>
 <path fill="none" stroke="rgb(255,66,14)" stroke-linejoin="round" d="M 10909,3144 L 11009,3244 11109,3144 11009,3044 10909,3144 Z"/>
 <path fill="rgb(255,66,14)" stroke="none" d="M 11202,2929 L 11302,3029 11401,2929 11302,2829 11202,2929 Z"/>
 <path fill="none" stroke="rgb(255,66,14)" stroke-linejoin="round" d="M 11202,2929 L 11302,3029 11401,2929 11302,2829 11202,2929 Z"/>
 <path fill="rgb(255,66,14)" stroke="none" d="M 11494,2741 L 11594,2841 11694,2741 11594,2641 11494,2741 Z"/>
 <path fill="none" stroke="rgb(255,66,14)" stroke-linejoin="round" d="M 11494,2741 L 11594,2841 11694,2741 11594,2641 11494,2741 Z"/>
 <path fill="rgb(255,66,14)" stroke="none" d="M 11787,2518 L 11887,2618 11987,2518 11887,2418 11787,2518 Z"/>
 <path fill="none" stroke="rgb(255,66,14)" stroke-linejoin="round" d="M 11787,2518 L 11887,2618 11987,2518 11887,2418 11787,2518 Z"/>
 <path fill="rgb(255,66,14)" stroke="none" d="M 12080,2360 L 12180,2460 12280,2360 12180,2260 12080,2360 Z"/>
 <path fill="none" stroke="rgb(255,66,14)" stroke-linejoin="round" d="M 12080,2360 L 12180,2460 12280,2360 12180,2260 12080,2360 Z"/>
 <path fill="rgb(255,66,14)" stroke="none" d="M 12373,2204 L 12473,2304 12573,2204 12473,2104 12373,2204 Z"/>
 <path fill="none" stroke="rgb(255,66,14)" stroke-linejoin="round" d="M 12373,2204 L 12473,2304 12573,2204 12473,2104 12373,2204 Z"/>
 <path fill="rgb(255,66,14)" stroke="none" d="M 12666,2061 L 12766,2161 12865,2061 12766,1961 12666,2061 Z"/>
 <path fill="none" stroke="rgb(255,66,14)" stroke-linejoin="round" d="M 12666,2061 L 12766,2161 12865,2061 12766,1961 12666,2061 Z"/>
 <path fill="rgb(255,66,14)" stroke="none" d="M 12959,1937 L 13059,2037 13159,1937 13059,1837 12959,1937 Z"/>
 <path fill="none" stroke="rgb(255,66,14)" stroke-linejoin="round" d="M 12959,1937 L 13059,2037 13159,1937 13059,1837 12959,1937 Z"/>
 <path fill="rgb(255,66,14)" stroke="none" d="M 13252,1831 L 13352,1931 13452,1831 13352,1731 13252,1831 Z"/>
 <path fill="none" stroke="rgb(255,66,14)" stroke-linejoin="round" d="M 13252,1831 L 13352,1931 13452,1831 13352,1731 13252,1831 Z"/>
 <path fill="rgb(255,66,14)" stroke="none" d="M 13544,1731 L 13644,1831 13744,1731 13644,1631 13544,1731 Z"/>
 <path fill="none" stroke="rgb(255,66,14)" stroke-linejoin="round" d="M 13544,1731 L 13644,1831 13744,1731 13644,1631 13544,1731 Z"/>
 <path fill="rgb(255,66,14)" stroke="none" d="M 13837,1641 L 13937,1741 14037,1641 13937,1541 13837,1641 Z"/>
 <path fill="none" stroke="rgb(255,66,14)" stroke-linejoin="round" d="M 13837,1641 L 13937,1741 14037,1641 13937,1541 13837,1641 Z"/>
 <path fill="rgb(255,66,14)" stroke="none" d="M 14131,1550 L 14231,1650 14330,1550 14231,1450 14131,1550 Z"/>
 <path fill="none" stroke="rgb(255,66,14)" stroke-linejoin="round" d="M 14131,1550 L 14231,1650 14330,1550 14231,1450 14131,1550 Z"/>
 <path fill="rgb(255,66,14)" stroke="none" d="M 14423,1470 L 14523,1570 14623,1470 14523,1370 14423,1470 Z"/>
 <path fill="none" stroke="rgb(255,66,14)" stroke-linejoin="round" d="M 14423,1470 L 14523,1570 14623,1470 14523,1370 14423,1470 Z"/>
 <text class="TextShape"><tspan class="TextParagraph" font-family="Liberation Sans, sans-serif" font-size="353px" font-weight="400"><tspan class="TextPosition" x="1506" y="10563"><tspan fill="rgb(0,0,0)" stroke="none">20/02</tspan></tspan></tspan></text>
 <text class="TextShape"><tspan class="TextParagraph" font-family="Liberation Sans, sans-serif" font-size="353px" font-weight="400"><tspan class="TextPosition" x="3557" y="10563"><tspan fill="rgb(0,0,0)" stroke="none">27/02</tspan></tspan></tspan></text>
 <text class="TextShape"><tspan class="TextParagraph" font-family="Liberation Sans, sans-serif" font-size="353px" font-weight="400"><tspan class="TextPosition" x="5607" y="10563"><tspan fill="rgb(0,0,0)" stroke="none">05/03</tspan></tspan></tspan></text>
 <text class="TextShape"><tspan class="TextParagraph" font-family="Liberation Sans, sans-serif" font-size="353px" font-weight="400"><tspan class="TextPosition" x="7657" y="10563"><tspan fill="rgb(0,0,0)" stroke="none">12/03</tspan></tspan></tspan></text>
 <text class="TextShape"><tspan class="TextParagraph" font-family="Liberation Sans, sans-serif" font-size="353px" font-weight="400"><tspan class="TextPosition" x="9707" y="10563"><tspan fill="rgb(0,0,0)" stroke="none">19/03</tspan></tspan></tspan></text>
 <text class="TextShape"><tspan class="TextParagraph" font-family="Liberation Sans, sans-serif" font-size="353px" font-weight="400"><tspan class="TextPosition" x="11757" y="10563"><tspan fill="rgb(0,0,0)" stroke="none">26/03</tspan></tspan></tspan></text>
 <text class="TextShape"><tspan class="TextParagraph" font-family="Liberation Sans, sans-serif" font-size="353px" font-weight="400"><tspan class="TextPosition" x="13808" y="10563"><tspan fill="rgb(0,0,0)" stroke="none">02/04</tspan></tspan></tspan></text>
 <text class="TextShape"><tspan class="TextParagraph" font-family="Liberation Sans, sans-serif" font-size="353px" font-weight="400"><tspan class="TextPosition" x="1059" y="10116"><tspan fill="rgb(0,0,0)" stroke="none">0,1</tspan></tspan></tspan></text>
 <text class="TextShape"><tspan class="TextParagraph" font-family="Liberation Sans, sans-serif" font-size="353px" font-weight="400"><tspan class="TextPosition" x="1059" y="8030"><tspan fill="rgb(0,0,0)" stroke="none">1,0</tspan></tspan></tspan></text>
 <text class="TextShape"><tspan class="TextParagraph" font-family="Liberation Sans, sans-serif" font-size="353px" font-weight="400"><tspan class="TextPosition" x="874" y="5945"><tspan fill="rgb(0,0,0)" stroke="none">10,0</tspan></tspan></tspan></text>
 <text class="TextShape"><tspan class="TextParagraph" font-family="Liberation Sans, sans-serif" font-size="353px" font-weight="400"><tspan class="TextPosition" x="688" y="3860"><tspan fill="rgb(0,0,0)" stroke="none">100,0</tspan></tspan></tspan></text>
 <text class="TextShape"><tspan class="TextParagraph" font-family="Liberation Sans, sans-serif" font-size="353px" font-weight="400"><tspan class="TextPosition" x="397" y="1775"><tspan fill="rgb(0,0,0)" stroke="none">1.000,0</tspan></tspan></tspan></text>
 <text class="TextShape"><tspan class="TextParagraph" font-family="Liberation Sans, sans-serif" font-size="459px" font-weight="400"><tspan class="TextPosition" x="1474" y="657"><tspan fill="rgb(0,0,0)" stroke="none">Covid-19 (muertes acumuladas por millón de mayores de 65 años)</tspan></tspan></tspan></text>
 <path fill="none" stroke="rgb(0,0,0)" stroke-width="50" stroke-linejoin="round" d="M 5521,11699 L 6320,11699"/>
 <path fill="rgb(0,0,0)" stroke="none" d="M 5815,11699 L 5921,11805 6026,11699 5921,11594 5815,11699 Z"/>
 <path fill="none" stroke="rgb(0,0,0)" stroke-linejoin="round" d="M 5815,11699 L 5921,11805 6026,11699 5921,11594 5815,11699 Z"/>
 <path fill="none" stroke="rgb(255,66,14)" stroke-width="50" stroke-linejoin="round" d="M 7394,11699 L 8193,11699"/>
 <path fill="rgb(255,66,14)" stroke="none" d="M 7687,11699 L 7793,11805 7898,11699 7793,11594 7687,11699 Z"/>
 <path fill="none" stroke="rgb(255,66,14)" stroke-linejoin="round" d="M 7687,11699 L 7793,11805 7898,11699 7793,11594 7687,11699 Z"/>
 <text class="TextShape"><tspan class="TextParagraph" font-family="Liberation Sans, sans-serif" font-size="353px" font-weight="400"><tspan class="TextPosition" x="6420" y="11819"><tspan fill="rgb(0,0,0)" stroke="none">Italia</tspan></tspan></tspan></text>
 <text class="TextShape"><tspan class="TextParagraph" font-family="Liberation Sans, sans-serif" font-size="353px" font-weight="400"><tspan class="TextPosition" x="8293" y="11819"><tspan fill="rgb(0,0,0)" stroke="none">España</tspan></tspan></tspan></text>

 <text x="2500" y="3800" transform="rotate(-30, 2500,3800)" class="Textparagraph" font-family="Liberation Sans, sans-serif" font-size="353px" font-weight="400"  fill="rgb(0,0,0)" stroke="none">
 Cierre colegios Lombardía
 </text>
 <line x1="2500" y1="9500" x2="2500" y2="3800" stroke="blue" stroke-width="30" />
 
 <text x="2800" y="4600" transform="rotate(-30, 2800, 4600)" class="Textparagraph" font-family="Liberation Sans, sans-serif" font-size="353px" font-weight="400"  fill="rgb(0,0,0)" stroke="none">
 Cancelación Carnaval Venecia
 </text>
 <line x1="2800" y1="9100" x2="2800" y2="4500" stroke="blue" stroke-width="30" />
 
 <text x="5600" y="3500" transform="rotate(-30, 5600, 3500)" class="Textparagraph" font-family="Liberation Sans, sans-serif" font-size="353px" font-weight="400"  fill="rgb(0,0,0)" stroke="none">
 Cierre colegios Italia
 </text>
 <line x1="5700" y1="5900" x2="5700" y2="3500" stroke="blue" stroke-width="30" />
 
 <text x="6750" y="3500" transform="rotate(-30, 6750, 3500)" class="Textparagraph" font-family="Liberation Sans, sans-serif" font-size="320px" font-weight="400"  fill="rgb(0,0,0)" stroke="none">
 Cuarentena Lombardía
 </text>
 <line x1="6900" y1="4700" x2="6900" y2="3500" stroke="blue" stroke-width="30" />
 
 <text x="7350" y="3600" transform="rotate(-30, 7350, 3600)" class="Textparagraph" font-family="Liberation Sans, sans-serif" font-size="353px" font-weight="400"  fill="rgb(0,0,0)" stroke="none">
 Cuarentena Italia
 </text>
 <line x1="7500" y1="4200" x2="7500" y2="3500" stroke="blue" stroke-width="30" />
 
 <text x="10500" y="1400" class="Textparagraph" font-family="Liberation Sans, sans-serif" font-size="300px" font-weight="400"  fill="rgb(0,0,0)" stroke="none">
 Cuarentena reforzada
 </text>
 <line x1="10700" y1="2400" x2="10700" y2="1450" stroke="blue" stroke-width="30" />
 
 <text x="7200" y="9100" class="Textparagraph" font-family="Liberation Sans, sans-serif" font-size="353px" font-weight="400"  fill="rgb(0,0,0)" stroke="none">
Cierre colegios Madrid
 </text>
 <line x1="7200" y1="7550" x2="7200" y2="8800" stroke="blue" stroke-width="30" />

 <text x="8100" y="8500" class="Textparagraph" font-family="Liberation Sans, sans-serif" font-size="353px" font-weight="400"  fill="rgb(0,0,0)" stroke="none">
Cancelación Fallas
 </text>
 <line x1="8100" y1="6100" x2="8100" y2="8400" stroke="blue" stroke-width="30" />
 
 <text x="8400" y="7900" class="Textparagraph" font-family="Liberation Sans, sans-serif" font-size="353px" font-weight="400"  fill="rgb(0,0,0)" stroke="none">
Cierre colegios España
 </text>
 <line x1="8400" y1="5700" x2="8400" y2="7800" stroke="blue" stroke-width="30" />
 
 <text x="8950" y="7200" class="Textparagraph" font-family="Liberation Sans, sans-serif" font-size="353px" font-weight="400"  fill="rgb(0,0,0)" stroke="none">
Cuarentena España
 </text>
 <line x1="8950" y1="4900" x2="8950" y2="7000" stroke="blue" stroke-width="30" />
 
 <text x="9700" y="6300" class="Textparagraph" font-family="Liberation Sans, sans-serif" font-size="353px" font-weight="400"  fill="rgb(0,0,0)" stroke="none">
Cuarentena reforzada
 </text>
 <line x1="13350" y1="2100" x2="13350" y2="6000" stroke="blue" stroke-width="30" />

</svg>