<?xml version="1.0" encoding="UTF-8"?>
<!DOCTYPE svg PUBLIC "-//W3C//DTD SVG 1.1//EN" "http://www.w3.org/Graphics/SVG/1.1/DTD/svg11.dtd">
<svg width="150mm" height="120mm" viewBox="0 0 15000 12000" version="1.1" xmlns="http://www.w3.org/2000/svg" xmlns:xlink="http://www.w3.org/1999/xlink" stroke-width="28.222" stroke-linejoin="round" xml:space="preserve">
 <path fill="rgb(255,255,255)" stroke="none" d="M 7500,12000 L 0,12000 0,0 15000,0 15000,12000 7500,12000 Z"/>
 <path fill="none" stroke="rgb(0,0,0)" stroke-linejoin="round" d="M 7920,11009 L 1155,11009 1155,1027 14685,1027 14685,11009 7920,11009 Z"/>
 <path fill="none" stroke="rgb(0,0,0)" stroke-linejoin="round" d="M 14684,11008 L 1154,11008"/>
 <path fill="none" stroke="rgb(0,0,0)" stroke-linejoin="round" d="M 14684,10009 L 1154,10009"/>
 <path fill="none" stroke="rgb(0,0,0)" stroke-linejoin="round" d="M 14684,9011 L 1154,9011"/>
 <path fill="none" stroke="rgb(0,0,0)" stroke-linejoin="round" d="M 14684,8013 L 1154,8013"/>
 <path fill="none" stroke="rgb(0,0,0)" stroke-linejoin="round" d="M 14684,7014 L 1154,7014"/>
 <path fill="none" stroke="rgb(0,0,0)" stroke-linejoin="round" d="M 14684,6016 L 1154,6016"/>
 <path fill="none" stroke="rgb(0,0,0)" stroke-linejoin="round" d="M 14684,5019 L 1154,5019"/>
 <path fill="none" stroke="rgb(0,0,0)" stroke-linejoin="round" d="M 14684,4020 L 1154,4020"/>
 <path fill="none" stroke="rgb(0,0,0)" stroke-linejoin="round" d="M 14684,3022 L 1154,3022"/>
 <path fill="none" stroke="rgb(0,0,0)" stroke-linejoin="round" d="M 14684,2024 L 1154,2024"/>
 <path fill="none" stroke="rgb(0,0,0)" stroke-linejoin="round" d="M 14684,1026 L 1154,1026"/>
 <path fill="none" stroke="rgb(0,0,0)" stroke-linejoin="round" d="M 1154,11158 L 1154,11008"/>
 <path fill="none" stroke="rgb(0,0,0)" stroke-linejoin="round" d="M 1154,11158 L 1154,11008"/>
 <path fill="none" stroke="rgb(0,0,0)" stroke-linejoin="round" d="M 2121,11158 L 2121,11008"/>
 <path fill="none" stroke="rgb(0,0,0)" stroke-linejoin="round" d="M 2121,11158 L 2121,11008"/>
 <path fill="none" stroke="rgb(0,0,0)" stroke-linejoin="round" d="M 3087,11158 L 3087,11008"/>
 <path fill="none" stroke="rgb(0,0,0)" stroke-linejoin="round" d="M 3087,11158 L 3087,11008"/>
 <path fill="none" stroke="rgb(0,0,0)" stroke-linejoin="round" d="M 4054,11158 L 4054,11008"/>
 <path fill="none" stroke="rgb(0,0,0)" stroke-linejoin="round" d="M 4054,11158 L 4054,11008"/>
 <path fill="none" stroke="rgb(0,0,0)" stroke-linejoin="round" d="M 5020,11158 L 5020,11008"/>
 <path fill="none" stroke="rgb(0,0,0)" stroke-linejoin="round" d="M 5020,11158 L 5020,11008"/>
 <path fill="none" stroke="rgb(0,0,0)" stroke-linejoin="round" d="M 5987,11158 L 5987,11008"/>
 <path fill="none" stroke="rgb(0,0,0)" stroke-linejoin="round" d="M 5987,11158 L 5987,11008"/>
 <path fill="none" stroke="rgb(0,0,0)" stroke-linejoin="round" d="M 6953,11158 L 6953,11008"/>
 <path fill="none" stroke="rgb(0,0,0)" stroke-linejoin="round" d="M 6953,11158 L 6953,11008"/>
 <path fill="none" stroke="rgb(0,0,0)" stroke-linejoin="round" d="M 7919,11158 L 7919,11008"/>
 <path fill="none" stroke="rgb(0,0,0)" stroke-linejoin="round" d="M 7919,11158 L 7919,11008"/>
 <path fill="none" stroke="rgb(0,0,0)" stroke-linejoin="round" d="M 8885,11158 L 8885,11008"/>
 <path fill="none" stroke="rgb(0,0,0)" stroke-linejoin="round" d="M 8885,11158 L 8885,11008"/>
 <path fill="none" stroke="rgb(0,0,0)" stroke-linejoin="round" d="M 9852,11158 L 9852,11008"/>
 <path fill="none" stroke="rgb(0,0,0)" stroke-linejoin="round" d="M 9852,11158 L 9852,11008"/>
 <path fill="none" stroke="rgb(0,0,0)" stroke-linejoin="round" d="M 10818,11158 L 10818,11008"/>
 <path fill="none" stroke="rgb(0,0,0)" stroke-linejoin="round" d="M 10818,11158 L 10818,11008"/>
 <path fill="none" stroke="rgb(0,0,0)" stroke-linejoin="round" d="M 11785,11158 L 11785,11008"/>
 <path fill="none" stroke="rgb(0,0,0)" stroke-linejoin="round" d="M 11785,11158 L 11785,11008"/>
 <path fill="none" stroke="rgb(0,0,0)" stroke-linejoin="round" d="M 12751,11158 L 12751,11008"/>
 <path fill="none" stroke="rgb(0,0,0)" stroke-linejoin="round" d="M 12751,11158 L 12751,11008"/>
 <path fill="none" stroke="rgb(0,0,0)" stroke-linejoin="round" d="M 13718,11158 L 13718,11008"/>
 <path fill="none" stroke="rgb(0,0,0)" stroke-linejoin="round" d="M 13718,11158 L 13718,11008"/>
 <path fill="none" stroke="rgb(0,0,0)" stroke-linejoin="round" d="M 14684,11158 L 14684,11008"/>
 <path fill="none" stroke="rgb(0,0,0)" stroke-linejoin="round" d="M 14684,11158 L 14684,11008"/>
 <path fill="none" stroke="rgb(0,0,0)" stroke-linejoin="round" d="M 1154,11008 L 14684,11008"/>
 <path fill="none" stroke="rgb(0,0,0)" stroke-linejoin="round" d="M 1004,11008 L 1154,11008"/>
 <path fill="none" stroke="rgb(0,0,0)" stroke-linejoin="round" d="M 1004,11008 L 1154,11008"/>
 <path fill="none" stroke="rgb(0,0,0)" stroke-linejoin="round" d="M 1004,10009 L 1154,10009"/>
 <path fill="none" stroke="rgb(0,0,0)" stroke-linejoin="round" d="M 1004,10009 L 1154,10009"/>
 <path fill="none" stroke="rgb(0,0,0)" stroke-linejoin="round" d="M 1004,9011 L 1154,9011"/>
 <path fill="none" stroke="rgb(0,0,0)" stroke-linejoin="round" d="M 1004,9011 L 1154,9011"/>
 <path fill="none" stroke="rgb(0,0,0)" stroke-linejoin="round" d="M 1004,8013 L 1154,8013"/>
 <path fill="none" stroke="rgb(0,0,0)" stroke-linejoin="round" d="M 1004,8013 L 1154,8013"/>
 <path fill="none" stroke="rgb(0,0,0)" stroke-linejoin="round" d="M 1004,7014 L 1154,7014"/>
 <path fill="none" stroke="rgb(0,0,0)" stroke-linejoin="round" d="M 1004,7014 L 1154,7014"/>
 <path fill="none" stroke="rgb(0,0,0)" stroke-linejoin="round" d="M 1004,6016 L 1154,6016"/>
 <path fill="none" stroke="rgb(0,0,0)" stroke-linejoin="round" d="M 1004,6016 L 1154,6016"/>
 <path fill="none" stroke="rgb(0,0,0)" stroke-linejoin="round" d="M 1004,5019 L 1154,5019"/>
 <path fill="none" stroke="rgb(0,0,0)" stroke-linejoin="round" d="M 1004,5019 L 1154,5019"/>
 <path fill="none" stroke="rgb(0,0,0)" stroke-linejoin="round" d="M 1004,4020 L 1154,4020"/>
 <path fill="none" stroke="rgb(0,0,0)" stroke-linejoin="round" d="M 1004,4020 L 1154,4020"/>
 <path fill="none" stroke="rgb(0,0,0)" stroke-linejoin="round" d="M 1004,3022 L 1154,3022"/>
 <path fill="none" stroke="rgb(0,0,0)" stroke-linejoin="round" d="M 1004,3022 L 1154,3022"/>
 <path fill="none" stroke="rgb(0,0,0)" stroke-linejoin="round" d="M 1004,2024 L 1154,2024"/>
 <path fill="none" stroke="rgb(0,0,0)" stroke-linejoin="round" d="M 1004,2024 L 1154,2024"/>
 <path fill="none" stroke="rgb(0,0,0)" stroke-linejoin="round" d="M 1004,1026 L 1154,1026"/>
 <path fill="none" stroke="rgb(0,0,0)" stroke-linejoin="round" d="M 1004,1026 L 1154,1026"/>
 <path fill="none" stroke="rgb(0,0,0)" stroke-linejoin="round" d="M 1154,11008 L 1154,1026"/>
 <path fill="none" stroke="rgb(255,0,0)" stroke-width="50" stroke-linejoin="round" d="M 1224,10998 L 1362,11008 1500,11008 1638,11008 1776,11008 1914,11008 2052,11008 2190,11008 2328,11008 2466,11008 2604,11008 2742,11008 2880,11008 3018,11008 3157,10988 3295,10988 3433,10978 3571,10988 3709,10948 3847,10818 3985,10888 4123,10638 4261,10668 4399,10828 4537,9490 4675,10798 4813,9191 4951,9939 5090,9320 5228,8661 5366,7773 5504,7074 5642,6395 5780,5977 5918,3541 6056,4470 6194,3332 6332,2703 6470,2643 6608,2902 6746,2533 6884,2383 7023,1525 7161,1704 7299,2932 7437,4280 7574,4649 7712,3591 7850,3451 7988,4190 8126,4969 8264,5917 8402,4829 8540,5847 8678,5348 8816,5787 8955,5508 9093,5168 9231,5368 9369,6914 9507,7024 9645,6715 9783,6665 9921,6615 10059,7344 10197,7234 10335,8132 10473,7703 10611,8003 10749,6485 10888,8332 11026,8202 11164,8252 11302,9370 11440,9370 11578,9161 11716,8572 11854,8881 11992,8721 12130,9221 12268,9580 12406,9780 12544,9250 12682,9171 12821,8841 12959,9630 13097,9969 13235,10139 13373,10419 13511,10319 13649,9909 13787,10488 13925,6505 14063,10508 14201,10269 14206,11008"/>
 <path fill="none" stroke="rgb(255,0,0)" stroke-width="50" stroke-linejoin="round" d="M 14460,11008 L 14477,8182 14615,10998"/>
 <path fill="rgb(255,0,0)" stroke="none" d="M 1124,10998 L 1224,11098 1324,10998 1224,10898 1124,10998 Z"/>
 <path fill="none" stroke="rgb(255,0,0)" stroke-linejoin="round" d="M 1124,10998 L 1224,11098 1324,10998 1224,10898 1124,10998 Z"/>
 <path fill="rgb(255,0,0)" stroke="none" d="M 1262,11008 L 1362,11108 1462,11008 1362,10908 1262,11008 Z"/>
 <path fill="none" stroke="rgb(255,0,0)" stroke-linejoin="round" d="M 1262,11008 L 1362,11108 1462,11008 1362,10908 1262,11008 Z"/>
 <path fill="rgb(255,0,0)" stroke="none" d="M 1400,11008 L 1500,11108 1600,11008 1500,10908 1400,11008 Z"/>
 <path fill="none" stroke="rgb(255,0,0)" stroke-linejoin="round" d="M 1400,11008 L 1500,11108 1600,11008 1500,10908 1400,11008 Z"/>
 <path fill="rgb(255,0,0)" stroke="none" d="M 1538,11008 L 1638,11108 1738,11008 1638,10908 1538,11008 Z"/>
 <path fill="none" stroke="rgb(255,0,0)" stroke-linejoin="round" d="M 1538,11008 L 1638,11108 1738,11008 1638,10908 1538,11008 Z"/>
 <path fill="rgb(255,0,0)" stroke="none" d="M 1676,11008 L 1776,11108 1876,11008 1776,10908 1676,11008 Z"/>
 <path fill="none" stroke="rgb(255,0,0)" stroke-linejoin="round" d="M 1676,11008 L 1776,11108 1876,11008 1776,10908 1676,11008 Z"/>
 <path fill="rgb(255,0,0)" stroke="none" d="M 1814,11008 L 1914,11108 2014,11008 1914,10908 1814,11008 Z"/>
 <path fill="none" stroke="rgb(255,0,0)" stroke-linejoin="round" d="M 1814,11008 L 1914,11108 2014,11008 1914,10908 1814,11008 Z"/>
 <path fill="rgb(255,0,0)" stroke="none" d="M 1952,11008 L 2052,11108 2152,11008 2052,10908 1952,11008 Z"/>
 <path fill="none" stroke="rgb(255,0,0)" stroke-linejoin="round" d="M 1952,11008 L 2052,11108 2152,11008 2052,10908 1952,11008 Z"/>
 <path fill="rgb(255,0,0)" stroke="none" d="M 2090,11008 L 2190,11108 2290,11008 2190,10908 2090,11008 Z"/>
 <path fill="none" stroke="rgb(255,0,0)" stroke-linejoin="round" d="M 2090,11008 L 2190,11108 2290,11008 2190,10908 2090,11008 Z"/>
 <path fill="rgb(255,0,0)" stroke="none" d="M 2228,11008 L 2328,11108 2428,11008 2328,10908 2228,11008 Z"/>
 <path fill="none" stroke="rgb(255,0,0)" stroke-linejoin="round" d="M 2228,11008 L 2328,11108 2428,11008 2328,10908 2228,11008 Z"/>
 <path fill="rgb(255,0,0)" stroke="none" d="M 2366,11008 L 2466,11108 2566,11008 2466,10908 2366,11008 Z"/>
 <path fill="none" stroke="rgb(255,0,0)" stroke-linejoin="round" d="M 2366,11008 L 2466,11108 2566,11008 2466,10908 2366,11008 Z"/>
 <path fill="rgb(255,0,0)" stroke="none" d="M 2504,11008 L 2604,11108 2704,11008 2604,10908 2504,11008 Z"/>
 <path fill="none" stroke="rgb(255,0,0)" stroke-linejoin="round" d="M 2504,11008 L 2604,11108 2704,11008 2604,10908 2504,11008 Z"/>
 <path fill="rgb(255,0,0)" stroke="none" d="M 2642,11008 L 2742,11108 2842,11008 2742,10908 2642,11008 Z"/>
 <path fill="none" stroke="rgb(255,0,0)" stroke-linejoin="round" d="M 2642,11008 L 2742,11108 2842,11008 2742,10908 2642,11008 Z"/>
 <path fill="rgb(255,0,0)" stroke="none" d="M 2780,11008 L 2880,11108 2980,11008 2880,10908 2780,11008 Z"/>
 <path fill="none" stroke="rgb(255,0,0)" stroke-linejoin="round" d="M 2780,11008 L 2880,11108 2980,11008 2880,10908 2780,11008 Z"/>
 <path fill="rgb(255,0,0)" stroke="none" d="M 2918,11008 L 3018,11108 3118,11008 3018,10908 2918,11008 Z"/>
 <path fill="none" stroke="rgb(255,0,0)" stroke-linejoin="round" d="M 2918,11008 L 3018,11108 3118,11008 3018,10908 2918,11008 Z"/>
 <path fill="rgb(255,0,0)" stroke="none" d="M 3057,10988 L 3157,11088 3257,10988 3157,10888 3057,10988 Z"/>
 <path fill="none" stroke="rgb(255,0,0)" stroke-linejoin="round" d="M 3057,10988 L 3157,11088 3257,10988 3157,10888 3057,10988 Z"/>
 <path fill="rgb(255,0,0)" stroke="none" d="M 3195,10988 L 3295,11088 3395,10988 3295,10888 3195,10988 Z"/>
 <path fill="none" stroke="rgb(255,0,0)" stroke-linejoin="round" d="M 3195,10988 L 3295,11088 3395,10988 3295,10888 3195,10988 Z"/>
 <path fill="rgb(255,0,0)" stroke="none" d="M 3333,10978 L 3433,11078 3533,10978 3433,10878 3333,10978 Z"/>
 <path fill="none" stroke="rgb(255,0,0)" stroke-linejoin="round" d="M 3333,10978 L 3433,11078 3533,10978 3433,10878 3333,10978 Z"/>
 <path fill="rgb(255,0,0)" stroke="none" d="M 3471,10988 L 3571,11088 3671,10988 3571,10888 3471,10988 Z"/>
 <path fill="none" stroke="rgb(255,0,0)" stroke-linejoin="round" d="M 3471,10988 L 3571,11088 3671,10988 3571,10888 3471,10988 Z"/>
 <path fill="rgb(255,0,0)" stroke="none" d="M 3609,10948 L 3709,11048 3809,10948 3709,10848 3609,10948 Z"/>
 <path fill="none" stroke="rgb(255,0,0)" stroke-linejoin="round" d="M 3609,10948 L 3709,11048 3809,10948 3709,10848 3609,10948 Z"/>
 <path fill="rgb(255,0,0)" stroke="none" d="M 3747,10818 L 3847,10918 3947,10818 3847,10718 3747,10818 Z"/>
 <path fill="none" stroke="rgb(255,0,0)" stroke-linejoin="round" d="M 3747,10818 L 3847,10918 3947,10818 3847,10718 3747,10818 Z"/>
 <path fill="rgb(255,0,0)" stroke="none" d="M 3885,10888 L 3985,10988 4085,10888 3985,10788 3885,10888 Z"/>
 <path fill="none" stroke="rgb(255,0,0)" stroke-linejoin="round" d="M 3885,10888 L 3985,10988 4085,10888 3985,10788 3885,10888 Z"/>
 <path fill="rgb(255,0,0)" stroke="none" d="M 4023,10638 L 4123,10738 4223,10638 4123,10538 4023,10638 Z"/>
 <path fill="none" stroke="rgb(255,0,0)" stroke-linejoin="round" d="M 4023,10638 L 4123,10738 4223,10638 4123,10538 4023,10638 Z"/>
 <path fill="rgb(255,0,0)" stroke="none" d="M 4161,10668 L 4261,10768 4361,10668 4261,10568 4161,10668 Z"/>
 <path fill="none" stroke="rgb(255,0,0)" stroke-linejoin="round" d="M 4161,10668 L 4261,10768 4361,10668 4261,10568 4161,10668 Z"/>
 <path fill="rgb(255,0,0)" stroke="none" d="M 4299,10828 L 4399,10928 4499,10828 4399,10728 4299,10828 Z"/>
 <path fill="none" stroke="rgb(255,0,0)" stroke-linejoin="round" d="M 4299,10828 L 4399,10928 4499,10828 4399,10728 4299,10828 Z"/>
 <path fill="rgb(255,0,0)" stroke="none" d="M 4437,9490 L 4537,9590 4637,9490 4537,9390 4437,9490 Z"/>
 <path fill="none" stroke="rgb(255,0,0)" stroke-linejoin="round" d="M 4437,9490 L 4537,9590 4637,9490 4537,9390 4437,9490 Z"/>
 <path fill="rgb(255,0,0)" stroke="none" d="M 4575,10798 L 4675,10898 4775,10798 4675,10698 4575,10798 Z"/>
 <path fill="none" stroke="rgb(255,0,0)" stroke-linejoin="round" d="M 4575,10798 L 4675,10898 4775,10798 4675,10698 4575,10798 Z"/>
 <path fill="rgb(255,0,0)" stroke="none" d="M 4713,9191 L 4813,9291 4913,9191 4813,9091 4713,9191 Z"/>
 <path fill="none" stroke="rgb(255,0,0)" stroke-linejoin="round" d="M 4713,9191 L 4813,9291 4913,9191 4813,9091 4713,9191 Z"/>
 <path fill="rgb(255,0,0)" stroke="none" d="M 4851,9939 L 4951,10039 5051,9939 4951,9839 4851,9939 Z"/>
 <path fill="none" stroke="rgb(255,0,0)" stroke-linejoin="round" d="M 4851,9939 L 4951,10039 5051,9939 4951,9839 4851,9939 Z"/>
 <path fill="rgb(255,0,0)" stroke="none" d="M 4990,9320 L 5090,9420 5190,9320 5090,9220 4990,9320 Z"/>
 <path fill="none" stroke="rgb(255,0,0)" stroke-linejoin="round" d="M 4990,9320 L 5090,9420 5190,9320 5090,9220 4990,9320 Z"/>
 <path fill="rgb(255,0,0)" stroke="none" d="M 5128,8661 L 5228,8761 5328,8661 5228,8561 5128,8661 Z"/>
 <path fill="none" stroke="rgb(255,0,0)" stroke-linejoin="round" d="M 5128,8661 L 5228,8761 5328,8661 5228,8561 5128,8661 Z"/>
 <path fill="rgb(255,0,0)" stroke="none" d="M 5266,7773 L 5366,7873 5466,7773 5366,7673 5266,7773 Z"/>
 <path fill="none" stroke="rgb(255,0,0)" stroke-linejoin="round" d="M 5266,7773 L 5366,7873 5466,7773 5366,7673 5266,7773 Z"/>
 <path fill="rgb(255,0,0)" stroke="none" d="M 5404,7074 L 5504,7174 5604,7074 5504,6974 5404,7074 Z"/>
 <path fill="none" stroke="rgb(255,0,0)" stroke-linejoin="round" d="M 5404,7074 L 5504,7174 5604,7074 5504,6974 5404,7074 Z"/>
 <path fill="rgb(255,0,0)" stroke="none" d="M 5542,6395 L 5642,6495 5742,6395 5642,6295 5542,6395 Z"/>
 <path fill="none" stroke="rgb(255,0,0)" stroke-linejoin="round" d="M 5542,6395 L 5642,6495 5742,6395 5642,6295 5542,6395 Z"/>
 <path fill="rgb(255,0,0)" stroke="none" d="M 5680,5977 L 5780,6076 5880,5977 5780,5877 5680,5977 Z"/>
 <path fill="none" stroke="rgb(255,0,0)" stroke-linejoin="round" d="M 5680,5977 L 5780,6076 5880,5977 5780,5877 5680,5977 Z"/>
 <path fill="rgb(255,0,0)" stroke="none" d="M 5818,3541 L 5918,3641 6018,3541 5918,3441 5818,3541 Z"/>
 <path fill="none" stroke="rgb(255,0,0)" stroke-linejoin="round" d="M 5818,3541 L 5918,3641 6018,3541 5918,3441 5818,3541 Z"/>
 <path fill="rgb(255,0,0)" stroke="none" d="M 5956,4470 L 6056,4570 6156,4470 6056,4370 5956,4470 Z"/>
 <path fill="none" stroke="rgb(255,0,0)" stroke-linejoin="round" d="M 5956,4470 L 6056,4570 6156,4470 6056,4370 5956,4470 Z"/>
 <path fill="rgb(255,0,0)" stroke="none" d="M 6094,3332 L 6194,3432 6294,3332 6194,3232 6094,3332 Z"/>
 <path fill="none" stroke="rgb(255,0,0)" stroke-linejoin="round" d="M 6094,3332 L 6194,3432 6294,3332 6194,3232 6094,3332 Z"/>
 <path fill="rgb(255,0,0)" stroke="none" d="M 6232,2703 L 6332,2803 6432,2703 6332,2603 6232,2703 Z"/>
 <path fill="none" stroke="rgb(255,0,0)" stroke-linejoin="round" d="M 6232,2703 L 6332,2803 6432,2703 6332,2603 6232,2703 Z"/>
 <path fill="rgb(255,0,0)" stroke="none" d="M 6370,2643 L 6470,2743 6570,2643 6470,2543 6370,2643 Z"/>
 <path fill="none" stroke="rgb(255,0,0)" stroke-linejoin="round" d="M 6370,2643 L 6470,2743 6570,2643 6470,2543 6370,2643 Z"/>
 <path fill="rgb(255,0,0)" stroke="none" d="M 6508,2902 L 6608,3002 6708,2902 6608,2802 6508,2902 Z"/>
 <path fill="none" stroke="rgb(255,0,0)" stroke-linejoin="round" d="M 6508,2902 L 6608,3002 6708,2902 6608,2802 6508,2902 Z"/>
 <path fill="rgb(255,0,0)" stroke="none" d="M 6646,2533 L 6746,2633 6846,2533 6746,2433 6646,2533 Z"/>
 <path fill="none" stroke="rgb(255,0,0)" stroke-linejoin="round" d="M 6646,2533 L 6746,2633 6846,2533 6746,2433 6646,2533 Z"/>
 <path fill="rgb(255,0,0)" stroke="none" d="M 6784,2383 L 6884,2483 6984,2383 6884,2283 6784,2383 Z"/>
 <path fill="none" stroke="rgb(255,0,0)" stroke-linejoin="round" d="M 6784,2383 L 6884,2483 6984,2383 6884,2283 6784,2383 Z"/>
 <path fill="rgb(255,0,0)" stroke="none" d="M 6923,1525 L 7023,1625 7123,1525 7023,1425 6923,1525 Z"/>
 <path fill="none" stroke="rgb(255,0,0)" stroke-linejoin="round" d="M 6923,1525 L 7023,1625 7123,1525 7023,1425 6923,1525 Z"/>
 <path fill="rgb(255,0,0)" stroke="none" d="M 7061,1704 L 7161,1804 7261,1704 7161,1604 7061,1704 Z"/>
 <path fill="none" stroke="rgb(255,0,0)" stroke-linejoin="round" d="M 7061,1704 L 7161,1804 7261,1704 7161,1604 7061,1704 Z"/>
 <path fill="rgb(255,0,0)" stroke="none" d="M 7199,2932 L 7299,3032 7399,2932 7299,2832 7199,2932 Z"/>
 <path fill="none" stroke="rgb(255,0,0)" stroke-linejoin="round" d="M 7199,2932 L 7299,3032 7399,2932 7299,2832 7199,2932 Z"/>
 <path fill="rgb(255,0,0)" stroke="none" d="M 7337,4280 L 7437,4380 7536,4280 7437,4180 7337,4280 Z"/>
 <path fill="none" stroke="rgb(255,0,0)" stroke-linejoin="round" d="M 7337,4280 L 7437,4380 7536,4280 7437,4180 7337,4280 Z"/>
 <path fill="rgb(255,0,0)" stroke="none" d="M 7475,4649 L 7574,4749 7674,4649 7574,4549 7475,4649 Z"/>
 <path fill="none" stroke="rgb(255,0,0)" stroke-linejoin="round" d="M 7475,4649 L 7574,4749 7674,4649 7574,4549 7475,4649 Z"/>
 <path fill="rgb(255,0,0)" stroke="none" d="M 7612,3591 L 7712,3691 7812,3591 7712,3491 7612,3591 Z"/>
 <path fill="none" stroke="rgb(255,0,0)" stroke-linejoin="round" d="M 7612,3591 L 7712,3691 7812,3591 7712,3491 7612,3591 Z"/>
 <path fill="rgb(255,0,0)" stroke="none" d="M 7750,3451 L 7850,3551 7950,3451 7850,3351 7750,3451 Z"/>
 <path fill="none" stroke="rgb(255,0,0)" stroke-linejoin="round" d="M 7750,3451 L 7850,3551 7950,3451 7850,3351 7750,3451 Z"/>
 <path fill="rgb(255,0,0)" stroke="none" d="M 7888,4190 L 7988,4290 8088,4190 7988,4090 7888,4190 Z"/>
 <path fill="none" stroke="rgb(255,0,0)" stroke-linejoin="round" d="M 7888,4190 L 7988,4290 8088,4190 7988,4090 7888,4190 Z"/>
 <path fill="rgb(255,0,0)" stroke="none" d="M 8026,4969 L 8126,5069 8226,4969 8126,4869 8026,4969 Z"/>
 <path fill="none" stroke="rgb(255,0,0)" stroke-linejoin="round" d="M 8026,4969 L 8126,5069 8226,4969 8126,4869 8026,4969 Z"/>
 <path fill="rgb(255,0,0)" stroke="none" d="M 8164,5917 L 8264,6016 8364,5917 8264,5817 8164,5917 Z"/>
 <path fill="none" stroke="rgb(255,0,0)" stroke-linejoin="round" d="M 8164,5917 L 8264,6016 8364,5917 8264,5817 8164,5917 Z"/>
 <path fill="rgb(255,0,0)" stroke="none" d="M 8302,4829 L 8402,4929 8502,4829 8402,4729 8302,4829 Z"/>
 <path fill="none" stroke="rgb(255,0,0)" stroke-linejoin="round" d="M 8302,4829 L 8402,4929 8502,4829 8402,4729 8302,4829 Z"/>
 <path fill="rgb(255,0,0)" stroke="none" d="M 8440,5847 L 8540,5947 8640,5847 8540,5747 8440,5847 Z"/>
 <path fill="none" stroke="rgb(255,0,0)" stroke-linejoin="round" d="M 8440,5847 L 8540,5947 8640,5847 8540,5747 8440,5847 Z"/>
 <path fill="rgb(255,0,0)" stroke="none" d="M 8578,5348 L 8678,5448 8778,5348 8678,5248 8578,5348 Z"/>
 <path fill="none" stroke="rgb(255,0,0)" stroke-linejoin="round" d="M 8578,5348 L 8678,5448 8778,5348 8678,5248 8578,5348 Z"/>
 <path fill="rgb(255,0,0)" stroke="none" d="M 8716,5787 L 8816,5887 8916,5787 8816,5687 8716,5787 Z"/>
 <path fill="none" stroke="rgb(255,0,0)" stroke-linejoin="round" d="M 8716,5787 L 8816,5887 8916,5787 8816,5687 8716,5787 Z"/>
 <path fill="rgb(255,0,0)" stroke="none" d="M 8855,5508 L 8955,5608 9055,5508 8955,5408 8855,5508 Z"/>
 <path fill="none" stroke="rgb(255,0,0)" stroke-linejoin="round" d="M 8855,5508 L 8955,5608 9055,5508 8955,5408 8855,5508 Z"/>
 <path fill="rgb(255,0,0)" stroke="none" d="M 8993,5168 L 9093,5268 9193,5168 9093,5068 8993,5168 Z"/>
 <path fill="none" stroke="rgb(255,0,0)" stroke-linejoin="round" d="M 8993,5168 L 9093,5268 9193,5168 9093,5068 8993,5168 Z"/>
 <path fill="rgb(255,0,0)" stroke="none" d="M 9131,5368 L 9231,5468 9331,5368 9231,5268 9131,5368 Z"/>
 <path fill="none" stroke="rgb(255,0,0)" stroke-linejoin="round" d="M 9131,5368 L 9231,5468 9331,5368 9231,5268 9131,5368 Z"/>
 <path fill="rgb(255,0,0)" stroke="none" d="M 9269,6914 L 9369,7014 9469,6914 9369,6814 9269,6914 Z"/>
 <path fill="none" stroke="rgb(255,0,0)" stroke-linejoin="round" d="M 9269,6914 L 9369,7014 9469,6914 9369,6814 9269,6914 Z"/>
 <path fill="rgb(255,0,0)" stroke="none" d="M 9407,7024 L 9507,7124 9607,7024 9507,6924 9407,7024 Z"/>
 <path fill="none" stroke="rgb(255,0,0)" stroke-linejoin="round" d="M 9407,7024 L 9507,7124 9607,7024 9507,6924 9407,7024 Z"/>
 <path fill="rgb(255,0,0)" stroke="none" d="M 9545,6715 L 9645,6815 9745,6715 9645,6615 9545,6715 Z"/>
 <path fill="none" stroke="rgb(255,0,0)" stroke-linejoin="round" d="M 9545,6715 L 9645,6815 9745,6715 9645,6615 9545,6715 Z"/>
 <path fill="rgb(255,0,0)" stroke="none" d="M 9683,6665 L 9783,6765 9883,6665 9783,6565 9683,6665 Z"/>
 <path fill="none" stroke="rgb(255,0,0)" stroke-linejoin="round" d="M 9683,6665 L 9783,6765 9883,6665 9783,6565 9683,6665 Z"/>
 <path fill="rgb(255,0,0)" stroke="none" d="M 9821,6615 L 9921,6715 10021,6615 9921,6515 9821,6615 Z"/>
 <path fill="none" stroke="rgb(255,0,0)" stroke-linejoin="round" d="M 9821,6615 L 9921,6715 10021,6615 9921,6515 9821,6615 Z"/>
 <path fill="rgb(255,0,0)" stroke="none" d="M 9959,7344 L 10059,7444 10159,7344 10059,7244 9959,7344 Z"/>
 <path fill="none" stroke="rgb(255,0,0)" stroke-linejoin="round" d="M 9959,7344 L 10059,7444 10159,7344 10059,7244 9959,7344 Z"/>
 <path fill="rgb(255,0,0)" stroke="none" d="M 10097,7234 L 10197,7334 10297,7234 10197,7134 10097,7234 Z"/>
 <path fill="none" stroke="rgb(255,0,0)" stroke-linejoin="round" d="M 10097,7234 L 10197,7334 10297,7234 10197,7134 10097,7234 Z"/>
 <path fill="rgb(255,0,0)" stroke="none" d="M 10235,8132 L 10335,8232 10435,8132 10335,8032 10235,8132 Z"/>
 <path fill="none" stroke="rgb(255,0,0)" stroke-linejoin="round" d="M 10235,8132 L 10335,8232 10435,8132 10335,8032 10235,8132 Z"/>
 <path fill="rgb(255,0,0)" stroke="none" d="M 10373,7703 L 10473,7803 10573,7703 10473,7603 10373,7703 Z"/>
 <path fill="none" stroke="rgb(255,0,0)" stroke-linejoin="round" d="M 10373,7703 L 10473,7803 10573,7703 10473,7603 10373,7703 Z"/>
 <path fill="rgb(255,0,0)" stroke="none" d="M 10511,8003 L 10611,8103 10711,8003 10611,7903 10511,8003 Z"/>
 <path fill="none" stroke="rgb(255,0,0)" stroke-linejoin="round" d="M 10511,8003 L 10611,8103 10711,8003 10611,7903 10511,8003 Z"/>
 <path fill="rgb(255,0,0)" stroke="none" d="M 10649,6485 L 10749,6585 10849,6485 10749,6385 10649,6485 Z"/>
 <path fill="none" stroke="rgb(255,0,0)" stroke-linejoin="round" d="M 10649,6485 L 10749,6585 10849,6485 10749,6385 10649,6485 Z"/>
 <path fill="rgb(255,0,0)" stroke="none" d="M 10788,8332 L 10888,8432 10988,8332 10888,8232 10788,8332 Z"/>
 <path fill="none" stroke="rgb(255,0,0)" stroke-linejoin="round" d="M 10788,8332 L 10888,8432 10988,8332 10888,8232 10788,8332 Z"/>
 <path fill="rgb(255,0,0)" stroke="none" d="M 10926,8202 L 11026,8302 11126,8202 11026,8102 10926,8202 Z"/>
 <path fill="none" stroke="rgb(255,0,0)" stroke-linejoin="round" d="M 10926,8202 L 11026,8302 11126,8202 11026,8102 10926,8202 Z"/>
 <path fill="rgb(255,0,0)" stroke="none" d="M 11064,8252 L 11164,8352 11264,8252 11164,8152 11064,8252 Z"/>
 <path fill="none" stroke="rgb(255,0,0)" stroke-linejoin="round" d="M 11064,8252 L 11164,8352 11264,8252 11164,8152 11064,8252 Z"/>
 <path fill="rgb(255,0,0)" stroke="none" d="M 11202,9370 L 11302,9470 11402,9370 11302,9270 11202,9370 Z"/>
 <path fill="none" stroke="rgb(255,0,0)" stroke-linejoin="round" d="M 11202,9370 L 11302,9470 11402,9370 11302,9270 11202,9370 Z"/>
 <path fill="rgb(255,0,0)" stroke="none" d="M 11340,9370 L 11440,9470 11540,9370 11440,9270 11340,9370 Z"/>
 <path fill="none" stroke="rgb(255,0,0)" stroke-linejoin="round" d="M 11340,9370 L 11440,9470 11540,9370 11440,9270 11340,9370 Z"/>
 <path fill="rgb(255,0,0)" stroke="none" d="M 11478,9161 L 11578,9261 11678,9161 11578,9061 11478,9161 Z"/>
 <path fill="none" stroke="rgb(255,0,0)" stroke-linejoin="round" d="M 11478,9161 L 11578,9261 11678,9161 11578,9061 11478,9161 Z"/>
 <path fill="rgb(255,0,0)" stroke="none" d="M 11616,8572 L 11716,8672 11816,8572 11716,8472 11616,8572 Z"/>
 <path fill="none" stroke="rgb(255,0,0)" stroke-linejoin="round" d="M 11616,8572 L 11716,8672 11816,8572 11716,8472 11616,8572 Z"/>
 <path fill="rgb(255,0,0)" stroke="none" d="M 11754,8881 L 11854,8981 11954,8881 11854,8781 11754,8881 Z"/>
 <path fill="none" stroke="rgb(255,0,0)" stroke-linejoin="round" d="M 11754,8881 L 11854,8981 11954,8881 11854,8781 11754,8881 Z"/>
 <path fill="rgb(255,0,0)" stroke="none" d="M 11892,8721 L 11992,8821 12092,8721 11992,8621 11892,8721 Z"/>
 <path fill="none" stroke="rgb(255,0,0)" stroke-linejoin="round" d="M 11892,8721 L 11992,8821 12092,8721 11992,8621 11892,8721 Z"/>
 <path fill="rgb(255,0,0)" stroke="none" d="M 12030,9221 L 12130,9321 12230,9221 12130,9121 12030,9221 Z"/>
 <path fill="none" stroke="rgb(255,0,0)" stroke-linejoin="round" d="M 12030,9221 L 12130,9321 12230,9221 12130,9121 12030,9221 Z"/>
 <path fill="rgb(255,0,0)" stroke="none" d="M 12168,9580 L 12268,9680 12368,9580 12268,9480 12168,9580 Z"/>
 <path fill="none" stroke="rgb(255,0,0)" stroke-linejoin="round" d="M 12168,9580 L 12268,9680 12368,9580 12268,9480 12168,9580 Z"/>
 <path fill="rgb(255,0,0)" stroke="none" d="M 12306,9780 L 12406,9880 12506,9780 12406,9680 12306,9780 Z"/>
 <path fill="none" stroke="rgb(255,0,0)" stroke-linejoin="round" d="M 12306,9780 L 12406,9880 12506,9780 12406,9680 12306,9780 Z"/>
 <path fill="rgb(255,0,0)" stroke="none" d="M 12444,9250 L 12544,9350 12644,9250 12544,9150 12444,9250 Z"/>
 <path fill="none" stroke="rgb(255,0,0)" stroke-linejoin="round" d="M 12444,9250 L 12544,9350 12644,9250 12544,9150 12444,9250 Z"/>
 <path fill="rgb(255,0,0)" stroke="none" d="M 12582,9171 L 12682,9271 12782,9171 12682,9071 12582,9171 Z"/>
 <path fill="none" stroke="rgb(255,0,0)" stroke-linejoin="round" d="M 12582,9171 L 12682,9271 12782,9171 12682,9071 12582,9171 Z"/>
 <path fill="rgb(255,0,0)" stroke="none" d="M 12721,8841 L 12821,8941 12921,8841 12821,8741 12721,8841 Z"/>
 <path fill="none" stroke="rgb(255,0,0)" stroke-linejoin="round" d="M 12721,8841 L 12821,8941 12921,8841 12821,8741 12721,8841 Z"/>
 <path fill="rgb(255,0,0)" stroke="none" d="M 12859,9630 L 12959,9730 13059,9630 12959,9530 12859,9630 Z"/>
 <path fill="none" stroke="rgb(255,0,0)" stroke-linejoin="round" d="M 12859,9630 L 12959,9730 13059,9630 12959,9530 12859,9630 Z"/>
 <path fill="rgb(255,0,0)" stroke="none" d="M 12997,9969 L 13097,10069 13197,9969 13097,9869 12997,9969 Z"/>
 <path fill="none" stroke="rgb(255,0,0)" stroke-linejoin="round" d="M 12997,9969 L 13097,10069 13197,9969 13097,9869 12997,9969 Z"/>
 <path fill="rgb(255,0,0)" stroke="none" d="M 13135,10139 L 13235,10239 13335,10139 13235,10039 13135,10139 Z"/>
 <path fill="none" stroke="rgb(255,0,0)" stroke-linejoin="round" d="M 13135,10139 L 13235,10239 13335,10139 13235,10039 13135,10139 Z"/>
 <path fill="rgb(255,0,0)" stroke="none" d="M 13273,10419 L 13373,10519 13473,10419 13373,10319 13273,10419 Z"/>
 <path fill="none" stroke="rgb(255,0,0)" stroke-linejoin="round" d="M 13273,10419 L 13373,10519 13473,10419 13373,10319 13273,10419 Z"/>
 <path fill="rgb(255,0,0)" stroke="none" d="M 13411,10319 L 13511,10419 13611,10319 13511,10219 13411,10319 Z"/>
 <path fill="none" stroke="rgb(255,0,0)" stroke-linejoin="round" d="M 13411,10319 L 13511,10419 13611,10319 13511,10219 13411,10319 Z"/>
 <path fill="rgb(255,0,0)" stroke="none" d="M 13549,9909 L 13649,10009 13749,9909 13649,9809 13549,9909 Z"/>
 <path fill="none" stroke="rgb(255,0,0)" stroke-linejoin="round" d="M 13549,9909 L 13649,10009 13749,9909 13649,9809 13549,9909 Z"/>
 <path fill="rgb(255,0,0)" stroke="none" d="M 13687,10488 L 13787,10588 13887,10488 13787,10388 13687,10488 Z"/>
 <path fill="none" stroke="rgb(255,0,0)" stroke-linejoin="round" d="M 13687,10488 L 13787,10588 13887,10488 13787,10388 13687,10488 Z"/>
 <path fill="rgb(255,0,0)" stroke="none" d="M 13825,6505 L 13925,6605 14025,6505 13925,6405 13825,6505 Z"/>
 <path fill="none" stroke="rgb(255,0,0)" stroke-linejoin="round" d="M 13825,6505 L 13925,6605 14025,6505 13925,6405 13825,6505 Z"/>
 <path fill="rgb(255,0,0)" stroke="none" d="M 13963,10508 L 14063,10608 14163,10508 14063,10408 13963,10508 Z"/>
 <path fill="none" stroke="rgb(255,0,0)" stroke-linejoin="round" d="M 13963,10508 L 14063,10608 14163,10508 14063,10408 13963,10508 Z"/>
 <path fill="rgb(255,0,0)" stroke="none" d="M 14101,10269 L 14201,10369 14301,10269 14201,10169 14101,10269 Z"/>
 <path fill="none" stroke="rgb(255,0,0)" stroke-linejoin="round" d="M 14101,10269 L 14201,10369 14301,10269 14201,10169 14101,10269 Z"/>
 <path fill="rgb(255,0,0)" stroke="none" d="M 14377,8182 L 14477,8282 14577,8182 14477,8082 14377,8182 Z"/>
 <path fill="none" stroke="rgb(255,0,0)" stroke-linejoin="round" d="M 14377,8182 L 14477,8282 14577,8182 14477,8082 14377,8182 Z"/>
 <path fill="rgb(255,0,0)" stroke="none" d="M 14515,10998 L 14615,11098 14715,10998 14615,10898 14515,10998 Z"/>
 <path fill="none" stroke="rgb(255,0,0)" stroke-linejoin="round" d="M 14515,10998 L 14615,11098 14715,10998 14615,10898 14515,10998 Z"/>
 <text class="TextShape"><tspan class="TextParagraph" font-family="Liberation Sans, sans-serif" font-size="353px" font-weight="400"><tspan class="TextPosition" x="800" y="11576"><tspan fill="rgb(0,0,0)" stroke="none">20/02</tspan></tspan></tspan></text>
 <text class="TextShape"><tspan class="TextParagraph" font-family="Liberation Sans, sans-serif" font-size="353px" font-weight="400"><tspan class="TextPosition" x="1766" y="11576"><tspan fill="rgb(0,0,0)" stroke="none">27/02</tspan></tspan></tspan></text>
 <text class="TextShape"><tspan class="TextParagraph" font-family="Liberation Sans, sans-serif" font-size="353px" font-weight="400"><tspan class="TextPosition" x="2733" y="11576"><tspan fill="rgb(0,0,0)" stroke="none">05/03</tspan></tspan></tspan></text>
 <text class="TextShape"><tspan class="TextParagraph" font-family="Liberation Sans, sans-serif" font-size="353px" font-weight="400"><tspan class="TextPosition" x="3699" y="11576"><tspan fill="rgb(0,0,0)" stroke="none">12/03</tspan></tspan></tspan></text>
 <text class="TextShape"><tspan class="TextParagraph" font-family="Liberation Sans, sans-serif" font-size="353px" font-weight="400"><tspan class="TextPosition" x="4666" y="11576"><tspan fill="rgb(0,0,0)" stroke="none">19/03</tspan></tspan></tspan></text>
 <text class="TextShape"><tspan class="TextParagraph" font-family="Liberation Sans, sans-serif" font-size="353px" font-weight="400"><tspan class="TextPosition" x="5632" y="11576"><tspan fill="rgb(0,0,0)" stroke="none">26/03</tspan></tspan></tspan></text>
 <text class="TextShape"><tspan class="TextParagraph" font-family="Liberation Sans, sans-serif" font-size="353px" font-weight="400"><tspan class="TextPosition" x="6599" y="11576"><tspan fill="rgb(0,0,0)" stroke="none">02/04</tspan></tspan></tspan></text>
 <text class="TextShape"><tspan class="TextParagraph" font-family="Liberation Sans, sans-serif" font-size="353px" font-weight="400"><tspan class="TextPosition" x="7565" y="11576"><tspan fill="rgb(0,0,0)" stroke="none">09/04</tspan></tspan></tspan></text>
 <text class="TextShape"><tspan class="TextParagraph" font-family="Liberation Sans, sans-serif" font-size="353px" font-weight="400"><tspan class="TextPosition" x="8532" y="11576"><tspan fill="rgb(0,0,0)" stroke="none">16/04</tspan></tspan></tspan></text>
 <text class="TextShape"><tspan class="TextParagraph" font-family="Liberation Sans, sans-serif" font-size="353px" font-weight="400"><tspan class="TextPosition" x="9498" y="11576"><tspan fill="rgb(0,0,0)" stroke="none">23/04</tspan></tspan></tspan></text>
 <text class="TextShape"><tspan class="TextParagraph" font-family="Liberation Sans, sans-serif" font-size="353px" font-weight="400"><tspan class="TextPosition" x="10465" y="11576"><tspan fill="rgb(0,0,0)" stroke="none">30/04</tspan></tspan></tspan></text>
 <text class="TextShape"><tspan class="TextParagraph" font-family="Liberation Sans, sans-serif" font-size="353px" font-weight="400"><tspan class="TextPosition" x="11431" y="11576"><tspan fill="rgb(0,0,0)" stroke="none">07/05</tspan></tspan></tspan></text>
 <text class="TextShape"><tspan class="TextParagraph" font-family="Liberation Sans, sans-serif" font-size="353px" font-weight="400"><tspan class="TextPosition" x="12398" y="11576"><tspan fill="rgb(0,0,0)" stroke="none">14/05</tspan></tspan></tspan></text>
 <text class="TextShape"><tspan class="TextParagraph" font-family="Liberation Sans, sans-serif" font-size="353px" font-weight="400"><tspan class="TextPosition" x="13364" y="11576"><tspan fill="rgb(0,0,0)" stroke="none">21/05</tspan></tspan></tspan></text>
 <text class="TextShape"><tspan class="TextParagraph" font-family="Liberation Sans, sans-serif" font-size="353px" font-weight="400"><tspan class="TextPosition" x="719" y="11129"><tspan fill="rgb(0,0,0)" stroke="none">0</tspan></tspan></tspan></text>
 <text class="TextShape"><tspan class="TextParagraph" font-family="Liberation Sans, sans-serif" font-size="353px" font-weight="400"><tspan class="TextPosition" x="348" y="10130"><tspan fill="rgb(0,0,0)" stroke="none">100</tspan></tspan></tspan></text>
 <text class="TextShape"><tspan class="TextParagraph" font-family="Liberation Sans, sans-serif" font-size="353px" font-weight="400"><tspan class="TextPosition" x="348" y="9132"><tspan fill="rgb(0,0,0)" stroke="none">200</tspan></tspan></tspan></text>
 <text class="TextShape"><tspan class="TextParagraph" font-family="Liberation Sans, sans-serif" font-size="353px" font-weight="400"><tspan class="TextPosition" x="348" y="8134"><tspan fill="rgb(0,0,0)" stroke="none">300</tspan></tspan></tspan></text>
 <text class="TextShape"><tspan class="TextParagraph" font-family="Liberation Sans, sans-serif" font-size="353px" font-weight="400"><tspan class="TextPosition" x="348" y="7135"><tspan fill="rgb(0,0,0)" stroke="none">400</tspan></tspan></tspan></text>
 <text class="TextShape"><tspan class="TextParagraph" font-family="Liberation Sans, sans-serif" font-size="353px" font-weight="400"><tspan class="TextPosition" x="348" y="6137"><tspan fill="rgb(0,0,0)" stroke="none">500</tspan></tspan></tspan></text>
 <text class="TextShape"><tspan class="TextParagraph" font-family="Liberation Sans, sans-serif" font-size="353px" font-weight="400"><tspan class="TextPosition" x="348" y="5139"><tspan fill="rgb(0,0,0)" stroke="none">600</tspan></tspan></tspan></text>
 <text class="TextShape"><tspan class="TextParagraph" font-family="Liberation Sans, sans-serif" font-size="353px" font-weight="400"><tspan class="TextPosition" x="348" y="4140"><tspan fill="rgb(0,0,0)" stroke="none">700</tspan></tspan></tspan></text>
 <text class="TextShape"><tspan class="TextParagraph" font-family="Liberation Sans, sans-serif" font-size="353px" font-weight="400"><tspan class="TextPosition" x="348" y="3142"><tspan fill="rgb(0,0,0)" stroke="none">800</tspan></tspan></tspan></text>
 <text class="TextShape"><tspan class="TextParagraph" font-family="Liberation Sans, sans-serif" font-size="353px" font-weight="400"><tspan class="TextPosition" x="348" y="2144"><tspan fill="rgb(0,0,0)" stroke="none">900</tspan></tspan></tspan></text>
 <text class="TextShape"><tspan class="TextParagraph" font-family="Liberation Sans, sans-serif" font-size="353px" font-weight="400"><tspan class="TextPosition" x="57" y="1146"><tspan fill="rgb(0,0,0)" stroke="none">1.000</tspan></tspan></tspan></text>
 <text class="TextShape"><tspan class="TextParagraph" font-family="Liberation Sans, sans-serif" font-size="459px" font-weight="400"><tspan class="TextPosition" x="4466" y="724"><tspan fill="rgb(0,0,0)" stroke="none">Covid-19. Muertes diarias en España</tspan></tspan></tspan></text>
</svg>