<?xml version="1.0" encoding="UTF-8"?>
<!DOCTYPE svg PUBLIC "-//W3C//DTD SVG 1.1//EN" "http://www.w3.org/Graphics/SVG/1.1/DTD/svg11.dtd">
<svg width="150mm" height="120mm" viewBox="0 0 15000 12000" version="1.1" xmlns="http://www.w3.org/2000/svg" xmlns:xlink="http://www.w3.org/1999/xlink" stroke-width="28.222" stroke-linejoin="round" xml:space="preserve">
 <path fill="rgb(255,255,255)" stroke="none" d="M 7548,12000 L 96,12000 96,0 15000,0 15000,12000 7548,12000 Z"/>
 <path fill="none" stroke="rgb(0,0,0)" stroke-linejoin="round" d="M 7892,11128 L 1091,11128 1091,1246 14694,1246 14694,11128 7892,11128 Z"/>
 <path fill="none" stroke="rgb(0,0,0)" stroke-linejoin="round" d="M 14694,11127 L 1091,11127"/>
 <path fill="none" stroke="rgb(0,0,0)" stroke-linejoin="round" d="M 14694,8930 L 1091,8930"/>
 <path fill="none" stroke="rgb(0,0,0)" stroke-linejoin="round" d="M 14694,6734 L 1091,6734"/>
 <path fill="none" stroke="rgb(0,0,0)" stroke-linejoin="round" d="M 14694,4539 L 1091,4539"/>
 <path fill="none" stroke="rgb(0,0,0)" stroke-linejoin="round" d="M 14694,2343 L 1091,2343"/>
 <path fill="none" stroke="rgb(0,0,0)" stroke-linejoin="round" d="M 1091,11277 L 1091,11127"/>
 <path fill="none" stroke="rgb(0,0,0)" stroke-linejoin="round" d="M 1091,11277 L 1091,11127"/>
 <path fill="none" stroke="rgb(0,0,0)" stroke-linejoin="round" d="M 3298,11277 L 3298,11127"/>
 <path fill="none" stroke="rgb(0,0,0)" stroke-linejoin="round" d="M 3298,11277 L 3298,11127"/>
 <path fill="none" stroke="rgb(0,0,0)" stroke-linejoin="round" d="M 5506,11277 L 5506,11127"/>
 <path fill="none" stroke="rgb(0,0,0)" stroke-linejoin="round" d="M 5506,11277 L 5506,11127"/>
 <path fill="none" stroke="rgb(0,0,0)" stroke-linejoin="round" d="M 7643,11277 L 7643,11127"/>
 <path fill="none" stroke="rgb(0,0,0)" stroke-linejoin="round" d="M 7643,11277 L 7643,11127"/>
 <path fill="none" stroke="rgb(0,0,0)" stroke-linejoin="round" d="M 9851,11277 L 9851,11127"/>
 <path fill="none" stroke="rgb(0,0,0)" stroke-linejoin="round" d="M 9851,11277 L 9851,11127"/>
 <path fill="none" stroke="rgb(0,0,0)" stroke-linejoin="round" d="M 11987,11277 L 11987,11127"/>
 <path fill="none" stroke="rgb(0,0,0)" stroke-linejoin="round" d="M 11987,11277 L 11987,11127"/>
 <path fill="none" stroke="rgb(0,0,0)" stroke-linejoin="round" d="M 14195,11277 L 14195,11127"/>
 <path fill="none" stroke="rgb(0,0,0)" stroke-linejoin="round" d="M 14195,11277 L 14195,11127"/>
 <path fill="none" stroke="rgb(0,0,0)" stroke-linejoin="round" d="M 1091,11127 L 14694,11127"/>
 <path fill="none" stroke="rgb(0,0,0)" stroke-linejoin="round" d="M 942,11127 L 1091,11127"/>
 <path fill="none" stroke="rgb(0,0,0)" stroke-linejoin="round" d="M 942,11127 L 1091,11127"/>
 <path fill="none" stroke="rgb(0,0,0)" stroke-linejoin="round" d="M 942,8930 L 1091,8930"/>
 <path fill="none" stroke="rgb(0,0,0)" stroke-linejoin="round" d="M 942,8930 L 1091,8930"/>
 <path fill="none" stroke="rgb(0,0,0)" stroke-linejoin="round" d="M 942,6734 L 1091,6734"/>
 <path fill="none" stroke="rgb(0,0,0)" stroke-linejoin="round" d="M 942,6734 L 1091,6734"/>
 <path fill="none" stroke="rgb(0,0,0)" stroke-linejoin="round" d="M 942,4539 L 1091,4539"/>
 <path fill="none" stroke="rgb(0,0,0)" stroke-linejoin="round" d="M 942,4539 L 1091,4539"/>
 <path fill="none" stroke="rgb(0,0,0)" stroke-linejoin="round" d="M 942,2343 L 1091,2343"/>
 <path fill="none" stroke="rgb(0,0,0)" stroke-linejoin="round" d="M 942,2343 L 1091,2343"/>
 <path fill="none" stroke="rgb(0,0,0)" stroke-linejoin="round" d="M 1091,11127 L 1091,1245"/>
 <path fill="none" stroke="rgb(0,69,134)" stroke-width="99" stroke-linejoin="round" d="M 1091,11125 L 1161,11125 1233,11121 1304,11119 1375,11119 1447,11119 1518,11119 1589,11119 1660,11118 1732,11118 1802,11118 1874,11116 1945,11115 2016,11115 2087,11112 2159,11112 2229,11111 2301,11110 2372,11110 2444,11106 2515,11106 2586,11105 2658,11105 2728,11105 2800,11105 2871,11103 2942,11101 3013,11101 3085,11100 3155,11100 3227,11100 3298,11100 3369,11100 3441,11100 3512,11100 3584,11100 3654,11098 3726,11098 3797,11097 3868,11097 3939,11097 4011,11096 4081,11083 4153,11082 4224,11082 4295,11080 4366,11078 4438,11073 4509,11070 4580,11069 4652,11069 4722,11067 4794,11067 4865,11061 4937,11058 5007,11057 5079,11056 5150,11051 5221,11043 5292,11035 5364,11031 5434,11030 5506,11030 5578,11026 5648,11019 5720,11015 5791,11011 5862,11010 5933,11002 6005,10997 6076,10990 6147,10985 6218,10975 6290,10965 6360,10959 6432,10947 6504,10948 6574,10943 6646,10935 6717,10921 6788,10915 6859,10908 6931,10899 7001,10894 7073,10880 7144,10867 7215,10853 7286,10832 7358,10816 7429,10801 7500,10783 7572,10767 7643,10750 7714,10722 7785,10685 7857,10651 7927,10616 7999,10589 8070,10552 8141,10510 8212,10465 8284,10412 8354,10320 8426,10272 8497,10228 8569,10173 8640,10115 8711,10032 8783,9975 8853,9907 8925,9798 8996,9691 9067,9617 9138,9542 9210,9402 9280,9323 9352,9184 9423,9050 9494,8973 9566,8882 9637,8730 9708,8615 9779,8479 9851,8333 9922,8164 9993,8052 10064,7951 10136,7769 10206,7614 10278,7496 10349,7351 10420,7214 10491,7108 10563,7035 10634,6900 10705,6830 10777,6693 10847,6531 10919,6369 10990,6294 11062,6221 11132,6070 11204,5922 11275,5642 11346,5455 11417,5350 11489,5167 11559,5060 11631,4925 11703,4778 11773,4661 11845,4612 11916,4535 11987,4487 12058,4422 12130,4258 12200,4142 12272,4048 12343,3998 12415,3980 12485,3917 12557,3875 12628,3747 12699,3646 12771,3604 12842,3510 12913,3451 12984,3405 13056,3374 13126,3281 13198,3218 13269,3150 13340,3066 13411,2981 13483,2944 13554,2892 13625,2793 13697,2744 13768,2679 13839,2625 13910,2549 13982,2512 14052,2469 14124,2387 14195,2324 14266,2269 14337,2204 14409,2146 14479,2123 14551,2049 14622,1961 14694,1890"/>
 <path fill="none" stroke="rgb(255,66,14)" stroke-width="99" stroke-linejoin="round" d="M 1091,11126 L 1161,11124 1233,11123 1304,11122 1375,11121 1447,11120 1518,11119 1589,11117 1660,11116 1732,11114 1802,11113 1874,11113 1945,11111 2016,11111 2087,11110 2159,11109 2229,11107 2301,11106 2372,11106 2444,11080 2515,11079 2586,11079 2658,11078 2728,11077 2800,11076 2871,11074 2942,11074 3013,11073 3085,11072 3155,11072 3227,11069 3298,11069 3369,11067 3441,11067 3512,11066 3584,11065 3654,11064 3726,11063 3797,11061 3868,11060 3939,11057 4011,11056 4081,11054 4153,11052 4224,11050 4295,11048 4366,11047 4438,11046 4509,11045 4580,11042 4652,11041 4722,11039 4794,11037 4865,11035 4937,11031 5007,11029 5079,11026 5150,11024 5221,11021 5292,11017 5364,11014 5434,11011 5506,11008 5578,11005 5648,11002 5720,10998 5791,10995 5862,10991 5933,10986 6005,10984 6076,10981 6147,10976 6218,10971 6290,10968 6360,10963 6432,10958 6504,10954 6574,10948 6646,10941 6717,10934 6788,10921 6859,10912 6931,10904 7001,10893 7073,10881 7144,10867 7215,10846 7286,10824 7358,10809 7429,10784 7500,10764 7572,10741 7643,10705 7714,10671 7785,10636 7857,10604 7927,10555 7999,10522 8070,10484 8141,10426 8212,10369 8284,10299 8354,10227 8426,10158 8497,10104 8569,10046 8640,9952 8711,9850 8783,9747 8853,9657 8925,9569 8996,9480 9067,9398 9138,9279 9210,9157 9280,9050 9352,8937 9423,8824 9494,8733 9566,8630 9637,8491 9708,8374 9779,8240 9851,8106 9922,7994 9993,7906 10064,7797 10136,7669 10206,7558 10278,7396 10349,7264 10420,7156 10491,7065 10563,6979 10634,6876 10705,6794 10777,6650 10847,6526 10919,6421 10990,6342 11062,6262 11132,6124 11204,6014 11275,5904 11346,5794 11417,5704 11489,5647 11559,5579 11631,5477 11703,5387 11773,5305 11845,5230 11916,5188 11987,5138 12058,5066 12130,4959 12200,4865 12272,4775 12343,4700 12415,4641 12485,4584 12557,4528 12628,4422 12699,4333 12771,4266 12842,4165 12913,4086 12984,4027 13056,3955 13126,3854 13198,3772 13269,3687 13340,3609 13411,3532 13483,3471 13554,3411 13625,3311 13697,3231 13768,3141 13839,3065 13910,2985 13982,2937 14052,2868 14124,2780 14195,2708 14266,2624 14337,2547 14409,2478 14479,2440 14551,2386 14622,2305 14694,2227"/>
 <path fill="none" stroke="rgb(255,211,32)" stroke-width="99" stroke-linejoin="round" d="M 1091,11126 L 1161,11125 1233,11124 1304,11124 1375,11123 1447,11123 1518,11123 1589,11116 1660,11109 1732,11109 1802,11109 1874,11108 1945,11108 2016,11108 2087,11089 2159,11088 2229,11088 2301,11082 2372,11079 2444,11079 2515,11079 2586,11071 2658,11065 2728,11032 2800,11028 2871,11021 2942,11021 3013,11021 3085,11013 3155,10999 3227,10987 3298,10980 3369,10977 3441,10977 3512,10977 3584,10955 3654,10940 3726,10929 3797,10919 3868,10871 3939,10871 4011,10871 4081,10846 4153,10826 4224,10817 4295,10798 4366,10786 4438,10786 4509,10786 4580,10760 4652,10719 4722,10657 4794,10616 4865,10592 4937,10592 5007,10592 5079,10549 5150,10486 5221,10453 5292,10431 5364,10401 5434,10401 5506,10401 5578,10355 5648,10302 5720,10257 5791,10209 5862,10180 5933,10180 6005,10180 6076,10144 6147,10077 6218,10057 6290,10024 6360,9962 6432,9962 6504,9962 6574,9911 6646,9891 6717,9837 6788,9800 6859,9743 6931,9743 7001,9743 7073,9687 7144,9630 7215,9590 7286,9550 7358,9490 7429,9490 7500,9490 7572,9417 7643,9348 7714,9305 7785,9260 7857,9198 7927,9198 7999,9198 8070,9100 8141,9038 8212,8618 8284,8523 8354,8433 8426,8433 8497,8433 8569,8300 8640,8194 8711,8103 8783,8011 8853,7931 8925,7931 8996,7931 9067,7806 9138,7693 9210,7603 9280,7537 9352,7452 9423,7452 9494,7452 9566,7320 9637,7181 9708,7085 9779,6998 9851,6922 9922,6922 9993,6922 10064,6818 10136,6703 10206,6633 10278,6567 10349,6511 10420,6511 10491,6511 10563,6409 10634,6409 10705,6313 10777,6229 10847,6156 10919,6156 10990,6156 11062,6055 11132,5956 11204,5905 11275,5859 11346,5820 11417,5820 11489,5820 11559,5733 11631,5666 11703,5620 11773,5587 11845,5587 11916,5587 11987,5587 12058,5510 12130,5427 12200,5363 12272,5325 12343,5325 12415,5325 12485,5325 12557,5263 12628,5171 12699,5171 12771,5108 12842,5056 12913,5056 12984,5056 13056,4953 13126,4847 13198,4796 13269,4744 13340,4684 13411,4684 13483,4684 13554,4566 13625,4461 13697,4341 13768,4236 13839,4133 13910,4133 13982,4133 14052,3934 14124,3781 14195,3654 14266,3520 14337,3387 14409,3387 14479,3387 14551,3190 14622,3002 14694,2856"/>
 <path fill="none" stroke="rgb(87,157,28)" stroke-width="99" stroke-linejoin="round" d="M 1091,11124 L 1161,11121 1233,11119 1304,11116 1375,11114 1447,11114 1518,11114 1589,11110 1660,11109 1732,11108 1802,11107 1874,11105 1945,11105 2016,11105 2087,11102 2159,11100 2229,11097 2301,11094 2372,11091 2444,11091 2515,11091 2586,11088 2658,11084 2728,11081 2800,11079 2871,11075 2942,11074 3013,11074 3085,11071 3155,11069 3227,11069 3298,11063 3369,11060 3441,11059 3512,11058 3584,11054 3654,11049 3726,11045 3797,11042 3868,11045 3939,11043 4011,11043 4081,11039 4153,11032 4224,11028 4295,11024 4366,11011 4438,11008 4509,11007 4580,11002 4652,10994 4722,10986 4794,10978 4865,10953 4937,10949 5007,10947 5079,10938 5150,10925 5221,10918 5292,10910 5364,10885 5434,10878 5506,10874 5578,10861 5648,10847 5720,10836 5791,10826 5862,10804 5933,10797 6005,10791 6076,10780 6147,10769 6218,10756 6290,10743 6360,10725 6432,10717 6504,10709 6574,10693 6646,10676 6717,10659 6788,10644 6859,10615 6931,10600 7001,10586 7073,10562 7144,10519 7215,10492 7286,10466 7358,10417 7429,10394 7500,10375 7572,10333 7643,10247 7714,10207 7785,10168 7857,10078 7927,10042 7999,10004 8070,9935 8141,9795 8212,9731 8284,9672 8354,9535 8426,9485 8497,9441 8569,9351 8640,9150 8711,9096 8783,9026 8853,8873 8925,8815 8996,8765 9067,8682 9138,8481 9210,8411 9280,8341 9352,8154 9423,8112 9494,8077 9566,7995 9637,7829 9708,7767 9779,7711 9851,7553 9922,7518 9993,7486 10064,7419 10136,7292 10206,7241 10278,7187 10349,7084 10420,7059 10491,7020 10563,6960 10634,6823 10705,6775 10777,6727 10847,6624 10919,6592 10990,6567 11062,6506 11132,6376 11204,6328 11275,6286 11346,6186 11417,6155 11489,6133 11559,6075 11631,5944 11703,5899 11773,5851 11845,5825 11916,5801 11987,5773 12058,5713 12130,5554 12200,5504 12272,5462 12343,5441 12415,5415 12485,5396 12557,5334 12628,5191 12699,5144 12771,5099 12842,5002 12913,4974 12984,4950 13056,4899 13126,4776 13198,4739 13269,4692 13340,4588 13411,4556 13483,4533 13554,4467 13625,4359 13697,4308 13768,4251 13839,4144 13910,4106 13982,4078 14052,4005 14124,3904 14195,3846 14266,3790 14337,3655 14409,3615 14479,3583 14551,3508 14622,3389 14694,3330"/>
 <text class="TextShape"><tspan class="TextParagraph" font-family="Liberation Sans, sans-serif" font-size="353px" font-weight="400"><tspan class="TextPosition" x="670" y="11695"><tspan fill="rgb(0,0,0)" stroke="none">27/07</tspan></tspan></tspan></text>
 <text class="TextShape"><tspan class="TextParagraph" font-family="Liberation Sans, sans-serif" font-size="353px" font-weight="400"><tspan class="TextPosition" x="2878" y="11695"><tspan fill="rgb(0,0,0)" stroke="none">27/08</tspan></tspan></tspan></text>
 <text class="TextShape"><tspan class="TextParagraph" font-family="Liberation Sans, sans-serif" font-size="353px" font-weight="400"><tspan class="TextPosition" x="5085" y="11695"><tspan fill="rgb(0,0,0)" stroke="none">27/09</tspan></tspan></tspan></text>
 <text class="TextShape"><tspan class="TextParagraph" font-family="Liberation Sans, sans-serif" font-size="353px" font-weight="400"><tspan class="TextPosition" x="7222" y="11695"><tspan fill="rgb(0,0,0)" stroke="none">27/10</tspan></tspan></tspan></text>
 <text class="TextShape"><tspan class="TextParagraph" font-family="Liberation Sans, sans-serif" font-size="353px" font-weight="400"><tspan class="TextPosition" x="9430" y="11695"><tspan fill="rgb(0,0,0)" stroke="none">27/11</tspan></tspan></tspan></text>
 <text class="TextShape"><tspan class="TextParagraph" font-family="Liberation Sans, sans-serif" font-size="353px" font-weight="400"><tspan class="TextPosition" x="11566" y="11695"><tspan fill="rgb(0,0,0)" stroke="none">27/12</tspan></tspan></tspan></text>
 <text class="TextShape"><tspan class="TextParagraph" font-family="Liberation Sans, sans-serif" font-size="353px" font-weight="400"><tspan class="TextPosition" x="13775" y="11695"><tspan fill="rgb(0,0,0)" stroke="none">27/01</tspan></tspan></tspan></text>
 <text class="TextShape"><tspan class="TextParagraph" font-family="Liberation Sans, sans-serif" font-size="353px" font-weight="400"><tspan class="TextPosition" x="1" y="9051"><tspan fill="rgb(0,0,0)" stroke="none">1.000</tspan></tspan></tspan></text>
 <text class="TextShape"><tspan class="TextParagraph" font-family="Liberation Sans, sans-serif" font-size="353px" font-weight="400"><tspan class="TextPosition" x="1" y="6855"><tspan fill="rgb(0,0,0)" stroke="none">2.000</tspan></tspan></tspan></text>
 <text class="TextShape"><tspan class="TextParagraph" font-family="Liberation Sans, sans-serif" font-size="353px" font-weight="400"><tspan class="TextPosition" x="1" y="4659"><tspan fill="rgb(0,0,0)" stroke="none">3.000</tspan></tspan></tspan></text>
 <text class="TextShape"><tspan class="TextParagraph" font-family="Liberation Sans, sans-serif" font-size="353px" font-weight="400"><tspan class="TextPosition" x="1" y="2463"><tspan fill="rgb(0,0,0)" stroke="none">4.000</tspan></tspan></tspan></text>
 <text class="TextShape"><tspan class="TextParagraph" font-family="Liberation Sans, sans-serif" font-size="423px" font-weight="400"><tspan class="TextPosition" x="3351" y="497"><tspan fill="rgb(0,0,0)" stroke="none">Muertes acumuladas por millón de mayores de 65 años</tspan></tspan></tspan><tspan class="TextParagraph" font-family="Liberation Sans, sans-serif" font-size="423px" font-weight="400"><tspan class="TextPosition" x="6177" y="947"><tspan fill="rgb(0,0,0)" stroke="none">en Europa Occidental (2)</tspan></tspan></tspan></text>
 <path fill="none" stroke="rgb(0,69,134)" stroke-width="99" stroke-linejoin="round" d="M 1890,1861 L 2684,1861"/>
 <path fill="none" stroke="rgb(255,66,14)" stroke-width="99" stroke-linejoin="round" d="M 1890,2935 L 2684,2935"/>
 <path fill="none" stroke="rgb(255,211,32)" stroke-width="99" stroke-linejoin="round" d="M 1890,4009 L 2684,4009"/>
 <path fill="none" stroke="rgb(87,157,28)" stroke-width="99" stroke-linejoin="round" d="M 1890,5083 L 2684,5083"/>
 <text class="TextShape"><tspan class="TextParagraph" font-family="Liberation Sans, sans-serif" font-size="353px" font-weight="400"><tspan class="TextPosition" x="2784" y="1981"><tspan fill="rgb(0,0,0)" stroke="none">Austria</tspan></tspan></tspan></text>
 <text class="TextShape"><tspan class="TextParagraph" font-family="Liberation Sans, sans-serif" font-size="353px" font-weight="400"><tspan class="TextPosition" x="2784" y="3055"><tspan fill="rgb(0,0,0)" stroke="none">Italia</tspan></tspan></tspan></text>
 <text class="TextShape"><tspan class="TextParagraph" font-family="Liberation Sans, sans-serif" font-size="353px" font-weight="400"><tspan class="TextPosition" x="2784" y="4129"><tspan fill="rgb(0,0,0)" stroke="none">España</tspan></tspan></tspan></text>
 <text class="TextShape"><tspan class="TextParagraph" font-family="Liberation Sans, sans-serif" font-size="353px" font-weight="400"><tspan class="TextPosition" x="2784" y="5203"><tspan fill="rgb(0,0,0)" stroke="none">Francia</tspan></tspan></tspan></text>
</svg>