<?xml version="1.0" encoding="UTF-8"?>
<!DOCTYPE svg PUBLIC "-//W3C//DTD SVG 1.1//EN" "http://www.w3.org/Graphics/SVG/1.1/DTD/svg11.dtd">
<svg width="150mm" height="120mm" viewBox="0 0 15000 12000" version="1.1" xmlns="http://www.w3.org/2000/svg" xmlns:xlink="http://www.w3.org/1999/xlink" stroke-width="28.222" stroke-linejoin="round" xml:space="preserve">
 <path fill="rgb(255,255,255)" stroke="none" d="M 7500,12000 L 0,12000 0,0 15000,0 15000,12000 7500,12000 Z"/>
 <path fill="none" stroke="rgb(0,0,0)" stroke-linejoin="round" d="M 8005,11216 L 1306,11216 1306,779 14704,779 14704,11216 8005,11216 Z"/>
 <path fill="none" stroke="rgb(0,0,0)" stroke-linejoin="round" d="M 14704,11215 L 1306,11215"/>
 <path fill="none" stroke="rgb(0,0,0)" stroke-linejoin="round" d="M 14704,9910 L 1306,9910"/>
 <path fill="none" stroke="rgb(0,0,0)" stroke-linejoin="round" d="M 14704,8605 L 1306,8605"/>
 <path fill="none" stroke="rgb(0,0,0)" stroke-linejoin="round" d="M 14704,7300 L 1306,7300"/>
 <path fill="none" stroke="rgb(0,0,0)" stroke-linejoin="round" d="M 14704,5997 L 1306,5997"/>
 <path fill="none" stroke="rgb(0,0,0)" stroke-linejoin="round" d="M 14704,4692 L 1306,4692"/>
 <path fill="none" stroke="rgb(0,0,0)" stroke-linejoin="round" d="M 14704,3387 L 1306,3387"/>
 <path fill="none" stroke="rgb(0,0,0)" stroke-linejoin="round" d="M 14704,2082 L 1306,2082"/>
 <path fill="none" stroke="rgb(0,0,0)" stroke-linejoin="round" d="M 14704,778 L 1306,778"/>
 <path fill="none" stroke="rgb(0,0,0)" stroke-linejoin="round" d="M 1306,11365 L 1306,11215"/>
 <path fill="none" stroke="rgb(0,0,0)" stroke-linejoin="round" d="M 1306,11365 L 1306,11215"/>
 <path fill="none" stroke="rgb(0,0,0)" stroke-linejoin="round" d="M 4382,11365 L 4382,11215"/>
 <path fill="none" stroke="rgb(0,0,0)" stroke-linejoin="round" d="M 4382,11365 L 4382,11215"/>
 <path fill="none" stroke="rgb(0,0,0)" stroke-linejoin="round" d="M 7459,11365 L 7459,11215"/>
 <path fill="none" stroke="rgb(0,0,0)" stroke-linejoin="round" d="M 7459,11365 L 7459,11215"/>
 <path fill="none" stroke="rgb(0,0,0)" stroke-linejoin="round" d="M 10436,11365 L 10436,11215"/>
 <path fill="none" stroke="rgb(0,0,0)" stroke-linejoin="round" d="M 10436,11365 L 10436,11215"/>
 <path fill="none" stroke="rgb(0,0,0)" stroke-linejoin="round" d="M 13512,11365 L 13512,11215"/>
 <path fill="none" stroke="rgb(0,0,0)" stroke-linejoin="round" d="M 13512,11365 L 13512,11215"/>
 <path fill="none" stroke="rgb(0,0,0)" stroke-linejoin="round" d="M 1306,11215 L 14704,11215"/>
 <path fill="none" stroke="rgb(0,0,0)" stroke-linejoin="round" d="M 1156,11215 L 1306,11215"/>
 <path fill="none" stroke="rgb(0,0,0)" stroke-linejoin="round" d="M 1156,11215 L 1306,11215"/>
 <path fill="none" stroke="rgb(0,0,0)" stroke-linejoin="round" d="M 1156,9910 L 1306,9910"/>
 <path fill="none" stroke="rgb(0,0,0)" stroke-linejoin="round" d="M 1156,9910 L 1306,9910"/>
 <path fill="none" stroke="rgb(0,0,0)" stroke-linejoin="round" d="M 1156,8605 L 1306,8605"/>
 <path fill="none" stroke="rgb(0,0,0)" stroke-linejoin="round" d="M 1156,8605 L 1306,8605"/>
 <path fill="none" stroke="rgb(0,0,0)" stroke-linejoin="round" d="M 1156,7300 L 1306,7300"/>
 <path fill="none" stroke="rgb(0,0,0)" stroke-linejoin="round" d="M 1156,7300 L 1306,7300"/>
 <path fill="none" stroke="rgb(0,0,0)" stroke-linejoin="round" d="M 1156,5997 L 1306,5997"/>
 <path fill="none" stroke="rgb(0,0,0)" stroke-linejoin="round" d="M 1156,5997 L 1306,5997"/>
 <path fill="none" stroke="rgb(0,0,0)" stroke-linejoin="round" d="M 1156,4692 L 1306,4692"/>
 <path fill="none" stroke="rgb(0,0,0)" stroke-linejoin="round" d="M 1156,4692 L 1306,4692"/>
 <path fill="none" stroke="rgb(0,0,0)" stroke-linejoin="round" d="M 1156,3387 L 1306,3387"/>
 <path fill="none" stroke="rgb(0,0,0)" stroke-linejoin="round" d="M 1156,3387 L 1306,3387"/>
 <path fill="none" stroke="rgb(0,0,0)" stroke-linejoin="round" d="M 1156,2082 L 1306,2082"/>
 <path fill="none" stroke="rgb(0,0,0)" stroke-linejoin="round" d="M 1156,2082 L 1306,2082"/>
 <path fill="none" stroke="rgb(0,0,0)" stroke-linejoin="round" d="M 1156,778 L 1306,778"/>
 <path fill="none" stroke="rgb(0,0,0)" stroke-linejoin="round" d="M 1156,778 L 1306,778"/>
 <path fill="none" stroke="rgb(0,0,0)" stroke-linejoin="round" d="M 1306,11215 L 1306,778"/>
 <path fill="none" stroke="rgb(0,69,134)" stroke-width="100" stroke-linejoin="round" d="M 1306,11215 L 1405,11213 1504,11199 1603,11195 1703,11190 1802,11188 1901,11183 2000,11183 2100,11177 2199,11174 2298,11165 2397,11162 2497,11156 2596,11151 2695,11148 2794,11139 2894,11131 2993,11111 3092,11091 3191,11080 3291,11066 3390,11061 3489,11054 3588,11034 3688,11021 3787,11012 3886,11001 3985,10997 4085,10991 4184,10986 4283,11140 4382,11139 4482,11132 4581,11130 4680,11123 4779,11119 4879,11118 4978,11115 5077,11114 5176,11113 5276,11110 5375,11104 5474,11102 5573,11100 5673,11096 5772,11089 5871,11089 5970,11087 6070,11081 6169,11079 6268,11076 6367,11072 6467,11066 6566,11064 6665,11063 6764,11054 6864,11049 6963,11046 7062,11040 7161,11034 7261,11027 7360,11021 7459,11015 7557,11007 7657,10998 7756,10980 7855,10960 7954,10951 8054,10933 8153,10924 8252,10897 8351,10879 8451,10861 8550,10840 8649,10817 8748,10784 8848,10753 8947,10732 9046,10706 9145,10663 9245,10618 9344,10554 9443,10513 9542,10469 9642,10442 9741,10403 9840,10343 9939,10278 10039,10214 10138,10122 10237,10019 10336,9924 10436,9808 10535,9627 10634,9454 10733,9274 10833,9086 10932,8861 11031,8715 11130,8557 11230,8207 11329,7966 11428,7693 11527,7448 11627,7188 11726,6995 11825,6785 11924,6335 12024,6078 12123,5905 12222,5625 12321,5368 12421,5214 12520,4959 12619,4668 12718,4426 12818,4202 12917,3999 13016,3777 13115,3652 13215,3473 13314,3234 13413,3053 13512,2868 13612,2711 13711,2552 13810,2440 13909,2312 14009,2128 14108,1965 14207,1806 14306,1663 14406,1517 14505,1431 14604,1345 14704,1187"/>
 <path fill="none" stroke="rgb(255,66,14)" stroke-width="100" stroke-linejoin="round" d="M 1306,11215 L 1405,11203 1504,11203 1603,11203 1703,11203 1802,11203 1901,11203 2000,11203 2100,11195 2199,11195 2298,11195 2397,11195 2497,11195 2596,11195 2695,11195 2794,11184 2894,11184 2993,11184 3092,11184 3191,11184 3291,11184 3390,11184 3489,11164 3588,11164 3688,11164 3787,11164 3886,11164 3985,11164 4085,11164 4184,11122 4283,11122 4382,11122 4482,11122 4581,11122 4680,11122 4779,11122 4879,11091 4978,11091 5077,11091 5176,11091 5276,11091 5375,11091 5474,11091 5573,11074 5673,11074 5772,11074 5871,11074 5970,11074 6070,11074 6169,11074 6268,11055 6367,11055 6467,11055 6566,11055 6665,11055 6764,11055 6864,11055 6963,11012 7062,11012 7161,11012 7261,11012 7360,11012 7459,11012 7557,11012 7657,10879 7756,10879 7855,10879 7954,10879 8054,10879 8153,10879 8252,10879 8351,10763 8451,10763 8550,10763 8649,10763 8748,10763 8848,10763 8947,10763 9046,10569 9145,10569 9245,10569 9344,10569 9443,10569 9542,10569 9642,10569 9741,10330 9840,10330 9939,10330 10039,10330 10138,10330 10237,10330 10336,10330 10436,9902 10535,9902 10634,9902 10733,9902 10833,9902 10932,9902 11031,9902 11130,9336 11230,9336 11329,9336 11428,9336 11527,9336 11627,9336 11726,9336 11825,8598 11924,8598 12024,8598 12123,8598 12222,8598 12321,8598 12421,8598 12520,7979 12619,7979 12718,7979 12818,7979 12917,7979 13016,7979 13115,7979 13215,7432 13314,7432 13413,7432 13512,7432 13612,7432 13711,7432 13810,7432 13909,6906 14009,6906 14108,6906 14207,6906 14306,6906 14406,6906 14505,6906 14604,6467 14704,6467"/>
 <path fill="none" stroke="rgb(255,211,32)" stroke-width="100" stroke-linejoin="round" d="M 1306,11215 L 1405,11212 1504,11212 1603,11211 1703,11209 1802,11207 1901,11207 2000,11207 2100,11208 2199,11208 2298,11204 2397,11200 2497,11200 2596,11200 2695,11200 2794,11199 2894,11198 2993,11196 3092,11195 3191,11196 3291,11195 3390,11195 3489,11194 3588,11191 3688,11191 3787,11191 3886,11190 3985,11190 4085,11188 4184,11186 4283,11186 4382,11184 4482,11183 4581,11183 4680,11183 4779,11183 4879,11183 4978,11183 5077,11183 5176,11183 5276,11183 5375,11183 5474,11183 5573,11183 5673,11170 5772,11170 5871,11170 5970,11170 6070,11170 6169,11170 6268,11170 6367,11144 6467,11144 6566,11144 6665,11144 6764,11144 6864,11144 6963,11144 7062,11121 7161,11121 7261,11121 7360,11121 7459,11121 7557,11121 7657,11121 7756,11121 7855,11121 7954,11106 8054,11106 8153,11106 8252,11106 8351,11106 8451,11106 8550,11106 8649,11093 8748,11093 8848,11093 8947,11093 9046,11093 9145,11093 9245,11093 9344,11055 9443,11055 9542,11055 9642,11037 9741,11027 9840,11012 9939,10998 10039,10985 10138,10985 10237,10985 10336,10937 10436,10916 10535,10606 10634,10563 10733,10522 10833,10522 10932,10522 11031,10655 11130,10562 11230,10466 11329,10385 11428,10293 11527,10293 11627,10293 11726,10073 11825,9933 11924,9821 12024,9698 12123,9572 12222,9572 12321,9572 12421,9313 12520,9128 12619,9017 12718,8914 12818,8769 12917,8769 13016,8769 13115,8491 13215,8306 13314,8176 13413,8073 13512,7889 13612,7889 13711,7889 13810,7634 13909,7495 14009,7345 14108,7240 14207,7108 14306,7108 14406,7108 14505,6879 14604,6759 14704,6645"/>
 <path fill="none" stroke="rgb(87,157,28)" stroke-width="80" stroke-linejoin="round" d="M 1306,11212 L 1405,11208 1504,11204 1603,11201 1703,11191 1802,11188 1901,11187 2000,11187 2100,11186 2199,11184 2298,11181 2397,11177 2497,11171 2596,11164 2695,11160 2794,11157 2894,11153 2993,11145 3092,11143 3191,11139 3291,11135 3390,11134 3489,11127 3588,11124 3688,11122 3787,11117 3886,11114 3985,11111 4085,11105 4184,11100 4283,11097 4382,11094 4482,11087 4581,11083 4680,11081 4779,11078 4879,11075 4978,11071 5077,11068 5176,11063 5276,11057 5375,11054 5474,11050 5573,11046 5673,11042 5772,11038 5871,11034 5970,11028 6070,11019 6169,11014 6268,11008 6367,11004 6467,10991 6566,10984 6665,10977 6764,10960 6864,10950 6963,10943 7062,10939 7161,10935 7261,10929 7360,10918 7459,10907 7557,10901 7657,10894 7756,10883 7855,10875 7954,10867 8054,10852 8153,10839 8252,10822 8351,10804 8451,10793 8550,10780 8649,10764 8748,10758 8848,10741 8947,10723 9046,10702 9145,10693 9245,10678 9344,10651 9443,10634 9542,10609 9642,10587 9741,10567 9840,10546 9939,10526 10039,10485 10138,10458 10237,10433 10336,10398 10436,10361 10535,10330 10634,10287 10733,10235 10833,10184 10932,10135 11031,10075 11130,10017 11230,9940 11329,9880 11428,9812 11527,9739 11627,9676 11726,9594 11825,9513 11924,9406 12024,9304 12123,9214 12222,9143 12321,9043 12421,8925 12520,8819 12619,8716 12718,8626 12818,8546 12917,8465 13016,8370 13115,8274 13215,8163 13314,8070 13413,7963 13512,7876 13612,7762 13711,7679 13810,7577 13909,7483 14009,7394 14108,7291 14207,7188 14306,7093 14406,6979 14505,6878 14604,6772 14704,6680"/>
 <path fill="none" stroke="rgb(126,0,33)" stroke-width="80" stroke-linejoin="round" d="M 1306,11213 L 1405,11213 1504,11209 1603,11207 1703,11207 1802,11207 1901,11207 2000,11207 2100,11205 2199,11205 2298,11205 2397,11204 2497,11203 2596,11203 2695,11200 2794,11200 2894,11199 2993,11198 3092,11198 3191,11194 3291,11194 3390,11192 3489,11192 3588,11192 3688,11192 3787,11191 3886,11188 3985,11188 4085,11187 4184,11187 4283,11187 4382,11187 4482,11187 4581,11187 4680,11187 4779,11187 4879,11186 4978,11186 5077,11184 5176,11184 5276,11184 5375,11183 5474,11170 5573,11169 5673,11169 5772,11168 5871,11165 5970,11160 6070,11157 6169,11156 6268,11156 6367,11154 6467,11154 6566,11148 6665,11145 6764,11144 6864,11143 6963,11138 7062,11130 7161,11122 7261,11118 7360,11117 7459,11117 7557,11113 7657,11105 7756,11101 7855,11097 7954,11096 8054,11088 8153,11083 8252,11076 8351,11071 8451,11061 8550,11050 8649,11045 8748,11032 8848,11033 8947,11028 9046,11020 9145,11006 9245,10999 9344,10993 9443,10984 9542,10978 9642,10964 9741,10951 9840,10937 9939,10916 10039,10899 10138,10884 10237,10866 10336,10849 10436,10832 10535,10804 10634,10766 10733,10732 10833,10697 10932,10669 11031,10631 11130,10588 11230,10543 11329,10489 11428,10395 11527,10347 11627,10302 11726,10246 11825,10188 11924,10103 12024,10045 12123,9976 12222,9865 12321,9757 12421,9681 12520,9606 12619,9464 12718,9383 12818,9242 12917,9106 13016,9028 13115,8935 13215,8781 13314,8664 13413,8525 13512,8378 13612,8206 13711,8092 13810,7989 13909,7805 14009,7647 14108,7527 14207,7380 14306,7242 14406,7133 14505,7059 14604,6922 14704,6851"/>
 <text class="TextShape"><tspan class="TextParagraph" font-family="Liberation Sans, sans-serif" font-size="353px" font-weight="400"><tspan class="TextPosition" x="882" y="11783"><tspan fill="rgb(0,0,0)" stroke="none">27/07</tspan></tspan></tspan></text>
 <text class="TextShape"><tspan class="TextParagraph" font-family="Liberation Sans, sans-serif" font-size="353px" font-weight="400"><tspan class="TextPosition" x="3958" y="11783"><tspan fill="rgb(0,0,0)" stroke="none">27/08</tspan></tspan></tspan></text>
 <text class="TextShape"><tspan class="TextParagraph" font-family="Liberation Sans, sans-serif" font-size="353px" font-weight="400"><tspan class="TextPosition" x="7035" y="11783"><tspan fill="rgb(0,0,0)" stroke="none">27/09</tspan></tspan></tspan></text>
 <text class="TextShape"><tspan class="TextParagraph" font-family="Liberation Sans, sans-serif" font-size="353px" font-weight="400"><tspan class="TextPosition" x="10013" y="11783"><tspan fill="rgb(0,0,0)" stroke="none">27/10</tspan></tspan></tspan></text>
 <text class="TextShape"><tspan class="TextParagraph" font-family="Liberation Sans, sans-serif" font-size="353px" font-weight="400"><tspan class="TextPosition" x="13089" y="11783"><tspan fill="rgb(0,0,0)" stroke="none">27/11</tspan></tspan></tspan></text>
 <text class="TextShape"><tspan class="TextParagraph" font-family="Liberation Sans, sans-serif" font-size="353px" font-weight="400"><tspan class="TextPosition" x="209" y="10031"><tspan fill="rgb(0,0,0)" stroke="none">1.000</tspan></tspan></tspan></text>
 <text class="TextShape"><tspan class="TextParagraph" font-family="Liberation Sans, sans-serif" font-size="353px" font-weight="400"><tspan class="TextPosition" x="209" y="8726"><tspan fill="rgb(0,0,0)" stroke="none">2.000</tspan></tspan></tspan></text>
 <text class="TextShape"><tspan class="TextParagraph" font-family="Liberation Sans, sans-serif" font-size="353px" font-weight="400"><tspan class="TextPosition" x="209" y="7421"><tspan fill="rgb(0,0,0)" stroke="none">3.000</tspan></tspan></tspan></text>
 <text class="TextShape"><tspan class="TextParagraph" font-family="Liberation Sans, sans-serif" font-size="353px" font-weight="400"><tspan class="TextPosition" x="209" y="6117"><tspan fill="rgb(0,0,0)" stroke="none">4.000</tspan></tspan></tspan></text>
 <text class="TextShape"><tspan class="TextParagraph" font-family="Liberation Sans, sans-serif" font-size="353px" font-weight="400"><tspan class="TextPosition" x="209" y="4812"><tspan fill="rgb(0,0,0)" stroke="none">5.000</tspan></tspan></tspan></text>
 <text class="TextShape"><tspan class="TextParagraph" font-family="Liberation Sans, sans-serif" font-size="353px" font-weight="400"><tspan class="TextPosition" x="209" y="3507"><tspan fill="rgb(0,0,0)" stroke="none">6.000</tspan></tspan></tspan></text>
 <text class="TextShape"><tspan class="TextParagraph" font-family="Liberation Sans, sans-serif" font-size="353px" font-weight="400"><tspan class="TextPosition" x="209" y="2202"><tspan fill="rgb(0,0,0)" stroke="none">7.000</tspan></tspan></tspan></text>
 <text class="TextShape"><tspan class="TextParagraph" font-family="Liberation Sans, sans-serif" font-size="353px" font-weight="400"><tspan class="TextPosition" x="209" y="898"><tspan fill="rgb(0,0,0)" stroke="none">8.000</tspan></tspan></tspan></text>
 <text class="TextShape"><tspan class="TextParagraph" font-family="Liberation Sans, sans-serif" font-size="459px" font-weight="400"><tspan class="TextPosition" x="1877" y="538"><tspan fill="rgb(0,0,0)" stroke="none">Covid-19. Muertes acumuladas en Europa Occidental (2)</tspan></tspan></tspan></text>
 <path fill="none" stroke="rgb(0,69,134)" stroke-width="100" stroke-linejoin="round" d="M 2174,1454 L 2974,1454"/>
 <path fill="none" stroke="rgb(255,66,14)" stroke-width="100" stroke-linejoin="round" d="M 2174,2736 L 2974,2736"/>
 <path fill="none" stroke="rgb(255,211,32)" stroke-width="100" stroke-linejoin="round" d="M 2174,4018 L 2974,4018"/>
 <path fill="none" stroke="rgb(87,157,28)" stroke-width="80" stroke-linejoin="round" d="M 2174,5300 L 2974,5300"/>
 <path fill="none" stroke="rgb(126,0,33)" stroke-width="80" stroke-linejoin="round" d="M 2174,6581 L 2974,6581"/>
 <text class="TextShape"><tspan class="TextParagraph" font-family="Liberation Sans, sans-serif" font-size="353px" font-weight="400"><tspan class="TextPosition" x="3074" y="1574"><tspan fill="rgb(0,0,0)" stroke="none">Bélgica</tspan></tspan></tspan></text>
 <text class="TextShape"><tspan class="TextParagraph" font-family="Liberation Sans, sans-serif" font-size="353px" font-weight="400"><tspan class="TextPosition" x="3074" y="2856"><tspan fill="rgb(0,0,0)" stroke="none">Holanda</tspan></tspan></tspan></text>
 <text class="TextShape"><tspan class="TextParagraph" font-family="Liberation Sans, sans-serif" font-size="353px" font-weight="400"><tspan class="TextPosition" x="3074" y="4138"><tspan fill="rgb(0,0,0)" stroke="none">Suiza</tspan></tspan></tspan></text>
 <text class="TextShape"><tspan class="TextParagraph" font-family="Liberation Sans, sans-serif" font-size="353px" font-weight="400"><tspan class="TextPosition" x="3074" y="5420"><tspan fill="rgb(0,0,0)" stroke="none">Portugal</tspan></tspan></tspan></text>
 <text class="TextShape"><tspan class="TextParagraph" font-family="Liberation Sans, sans-serif" font-size="353px" font-weight="400"><tspan class="TextPosition" x="3074" y="6701"><tspan fill="rgb(0,0,0)" stroke="none">Austria</tspan></tspan></tspan></text>
</svg>