<?xml version="1.0" encoding="UTF-8"?>
<!DOCTYPE svg PUBLIC "-//W3C//DTD SVG 1.1//EN" "http://www.w3.org/Graphics/SVG/1.1/DTD/svg11.dtd">
<svg width="150mm" height="120mm" viewBox="0 0 15000 12000" version="1.1" xmlns="http://www.w3.org/2000/svg" xmlns:xlink="http://www.w3.org/1999/xlink" stroke-width="28.222" stroke-linejoin="round" xml:space="preserve">
 <path fill="rgb(255,255,255)" stroke="none" d="M 7500,12000 L 0,12000 0,0 15000,0 15000,12000 7500,12000 Z"/>
 <path fill="none" stroke="rgb(0,0,0)" stroke-linejoin="round" d="M 7810,11252 L 933,11252 933,1028 14687,1028 14687,11252 7810,11252 Z"/>
 <path fill="none" stroke="rgb(0,0,0)" stroke-linejoin="round" d="M 14686,11251 L 932,11251"/>
 <path fill="none" stroke="rgb(0,0,0)" stroke-linejoin="round" d="M 14686,9206 L 932,9206"/>
 <path fill="none" stroke="rgb(0,0,0)" stroke-linejoin="round" d="M 14686,7161 L 932,7161"/>
 <path fill="none" stroke="rgb(0,0,0)" stroke-linejoin="round" d="M 14686,5117 L 932,5117"/>
 <path fill="none" stroke="rgb(0,0,0)" stroke-linejoin="round" d="M 14686,3072 L 932,3072"/>
 <path fill="none" stroke="rgb(0,0,0)" stroke-linejoin="round" d="M 14686,1027 L 932,1027"/>
 <path fill="none" stroke="rgb(0,0,0)" stroke-linejoin="round" d="M 932,11401 L 932,11251"/>
 <path fill="none" stroke="rgb(0,0,0)" stroke-linejoin="round" d="M 932,11401 L 932,11251"/>
 <path fill="none" stroke="rgb(0,0,0)" stroke-linejoin="round" d="M 1895,11401 L 1895,11251"/>
 <path fill="none" stroke="rgb(0,0,0)" stroke-linejoin="round" d="M 1895,11401 L 1895,11251"/>
 <path fill="none" stroke="rgb(0,0,0)" stroke-linejoin="round" d="M 2858,11401 L 2858,11251"/>
 <path fill="none" stroke="rgb(0,0,0)" stroke-linejoin="round" d="M 2858,11401 L 2858,11251"/>
 <path fill="none" stroke="rgb(0,0,0)" stroke-linejoin="round" d="M 3821,11401 L 3821,11251"/>
 <path fill="none" stroke="rgb(0,0,0)" stroke-linejoin="round" d="M 3821,11401 L 3821,11251"/>
 <path fill="none" stroke="rgb(0,0,0)" stroke-linejoin="round" d="M 4784,11401 L 4784,11251"/>
 <path fill="none" stroke="rgb(0,0,0)" stroke-linejoin="round" d="M 4784,11401 L 4784,11251"/>
 <path fill="none" stroke="rgb(0,0,0)" stroke-linejoin="round" d="M 5747,11401 L 5747,11251"/>
 <path fill="none" stroke="rgb(0,0,0)" stroke-linejoin="round" d="M 5747,11401 L 5747,11251"/>
 <path fill="none" stroke="rgb(0,0,0)" stroke-linejoin="round" d="M 6710,11401 L 6710,11251"/>
 <path fill="none" stroke="rgb(0,0,0)" stroke-linejoin="round" d="M 6710,11401 L 6710,11251"/>
 <path fill="none" stroke="rgb(0,0,0)" stroke-linejoin="round" d="M 7671,11401 L 7671,11251"/>
 <path fill="none" stroke="rgb(0,0,0)" stroke-linejoin="round" d="M 7671,11401 L 7671,11251"/>
 <path fill="none" stroke="rgb(0,0,0)" stroke-linejoin="round" d="M 8634,11401 L 8634,11251"/>
 <path fill="none" stroke="rgb(0,0,0)" stroke-linejoin="round" d="M 8634,11401 L 8634,11251"/>
 <path fill="none" stroke="rgb(0,0,0)" stroke-linejoin="round" d="M 9597,11401 L 9597,11251"/>
 <path fill="none" stroke="rgb(0,0,0)" stroke-linejoin="round" d="M 9597,11401 L 9597,11251"/>
 <path fill="none" stroke="rgb(0,0,0)" stroke-linejoin="round" d="M 10560,11401 L 10560,11251"/>
 <path fill="none" stroke="rgb(0,0,0)" stroke-linejoin="round" d="M 10560,11401 L 10560,11251"/>
 <path fill="none" stroke="rgb(0,0,0)" stroke-linejoin="round" d="M 11523,11401 L 11523,11251"/>
 <path fill="none" stroke="rgb(0,0,0)" stroke-linejoin="round" d="M 11523,11401 L 11523,11251"/>
 <path fill="none" stroke="rgb(0,0,0)" stroke-linejoin="round" d="M 12486,11401 L 12486,11251"/>
 <path fill="none" stroke="rgb(0,0,0)" stroke-linejoin="round" d="M 12486,11401 L 12486,11251"/>
 <path fill="none" stroke="rgb(0,0,0)" stroke-linejoin="round" d="M 13449,11401 L 13449,11251"/>
 <path fill="none" stroke="rgb(0,0,0)" stroke-linejoin="round" d="M 13449,11401 L 13449,11251"/>
 <path fill="none" stroke="rgb(0,0,0)" stroke-linejoin="round" d="M 14411,11401 L 14411,11251"/>
 <path fill="none" stroke="rgb(0,0,0)" stroke-linejoin="round" d="M 14411,11401 L 14411,11251"/>
 <path fill="none" stroke="rgb(0,0,0)" stroke-linejoin="round" d="M 932,11251 L 14686,11251"/>
 <path fill="none" stroke="rgb(0,0,0)" stroke-linejoin="round" d="M 782,11251 L 932,11251"/>
 <path fill="none" stroke="rgb(0,0,0)" stroke-linejoin="round" d="M 782,11251 L 932,11251"/>
 <path fill="none" stroke="rgb(0,0,0)" stroke-linejoin="round" d="M 782,9206 L 932,9206"/>
 <path fill="none" stroke="rgb(0,0,0)" stroke-linejoin="round" d="M 782,9206 L 932,9206"/>
 <path fill="none" stroke="rgb(0,0,0)" stroke-linejoin="round" d="M 782,7161 L 932,7161"/>
 <path fill="none" stroke="rgb(0,0,0)" stroke-linejoin="round" d="M 782,7161 L 932,7161"/>
 <path fill="none" stroke="rgb(0,0,0)" stroke-linejoin="round" d="M 782,5117 L 932,5117"/>
 <path fill="none" stroke="rgb(0,0,0)" stroke-linejoin="round" d="M 782,5117 L 932,5117"/>
 <path fill="none" stroke="rgb(0,0,0)" stroke-linejoin="round" d="M 782,3072 L 932,3072"/>
 <path fill="none" stroke="rgb(0,0,0)" stroke-linejoin="round" d="M 782,3072 L 932,3072"/>
 <path fill="none" stroke="rgb(0,0,0)" stroke-linejoin="round" d="M 782,1027 L 932,1027"/>
 <path fill="none" stroke="rgb(0,0,0)" stroke-linejoin="round" d="M 782,1027 L 932,1027"/>
 <path fill="none" stroke="rgb(0,0,0)" stroke-linejoin="round" d="M 932,11251 L 932,1027"/>
 <path fill="none" stroke="rgb(0,0,0)" stroke-width="100" stroke-linejoin="round" d="M 932,11251 L 1070,11251 1208,11251 1345,11210 1483,11210 1620,11210 1758,11210 1895,11210 2033,11210 2170,11210 2308,11210 2446,11169 2583,11169 2721,11169 2858,11169 2996,11169 3133,11128 3271,11128 3408,11128 3546,11128 3683,11128 3821,11087 3959,11087 4096,11087 4234,11087 4371,11046 4509,11046 4646,11046 4784,10964 4921,10964 5059,10964 5197,10964 5334,10964 5472,10964 5609,10964 5747,10923 5884,10923 6022,10842 6159,10842 6297,10801 6434,10801 6572,10801 6710,10678 6847,10678 6985,10473 7122,10473 7260,10473 7397,10473 7534,10473 7671,10473 7809,10473 7947,10392 8084,10392 8222,10228 8359,10228 8497,10228 8634,10024 8772,9983 8909,9696 9047,9492 9184,9410 9322,9410 9460,9410 9597,9165 9735,9001 9872,8878 10010,8715 10147,8347 10285,8347 10422,8347 10560,7938 10698,7610 10835,7242 10973,7079 11110,7038 11248,7038 11385,7038 11523,6711 11660,6629 11798,6424 11935,6220 12073,6056 12211,6056 12348,6056 12486,5853 12623,5648 12761,5485 12898,5076 13036,4830 13173,4830 13311,4830 13449,4380 13586,3971 13724,3808 13861,3726 13999,3276 14136,3276 14274,3276 14411,2540 14549,2090 14686,1640"/>
 <path fill="none" stroke="rgb(255,66,14)" stroke-width="100" stroke-linejoin="round" d="M 932,11251 L 1070,11251 1208,11251 1345,11251 1483,11251 1620,11251 1758,11251 1895,11251 2033,11251 2170,11251 2308,11251 2446,11251 2583,11251 2721,11251 2858,11251 2996,11251 3133,11210 3271,11210 3408,11210 3546,11210 3683,11210 3821,11128 3959,11128 4096,11087 4234,11087 4371,11087 4509,11087 4646,11087 4784,11046 4921,11005 5059,10964 5197,10964 5334,10923 5472,10923 5609,10923 5747,10923 5884,10923 6022,10882 6159,10882 6297,10882 6434,10882 6572,10882 6710,10760 6847,10678 6985,10596 7122,10473 7260,10392 7397,10392 7534,10392 7671,10228 7809,10024 7947,10024 8084,10024 8222,9410 8359,9410 8497,9410 8634,9410 8772,9328 8909,9246 9047,9124 9184,9083 9322,9083 9460,9083 9597,9042 9735,8674 9872,8592 10010,8510 10147,8388 10285,8388 10422,8388 10560,8183 10698,8183 10835,8142 10973,8060 11110,7856 11248,7856 11385,7856 11523,7651 11660,7529 11798,6956 11935,6915 12073,6792 12211,6792 12348,6792 12486,6629 12623,6261 12761,6097 12898,5894 13036,5730 13173,5730 13311,5730 13449,5526 13586,5076 13724,5035 13861,4789 13999,4339 14136,4339 14274,4339 14411,3562 14549,3358 14686,2622"/>
 <path fill="none" stroke="rgb(255,211,32)" stroke-width="100" stroke-linejoin="round" d="M 932,11251 L 1070,11251 1208,11251 1345,11251 1483,11251 1620,11251 1758,11251 1895,11251 2033,11251 2170,11251 2308,11251 2446,11251 2583,11251 2721,11251 2858,11210 2996,11169 3133,11169 3271,11169 3408,11128 3546,11128 3683,11128 3821,11128 3959,11128 4096,11128 4234,11128 4371,11128 4509,11128 4646,11128 4784,11087 4921,11087 5059,11087 5197,11087 5334,11087 5472,11087 5609,11087 5747,11046 5884,11005 6022,10964 6159,10964 6297,10964 6434,10964 6572,10964 6710,10801 6847,10801 6985,10801 7122,10801 7260,10719 7397,10719 7534,10719 7671,10514 7809,10473 7947,10433 8084,10392 8222,10269 8359,10269 8497,10269 8634,10146 8772,9942 8909,9901 9047,9901 9184,9860 9322,9860 9460,9860 9597,9615 9735,9533 9872,9451 10010,9410 10147,9246 10285,9246 10422,9246 10560,9042 10698,8347 10835,8224 10973,8060 11110,7897 11248,7897 11385,7897 11523,7610 11660,7324 11798,7242 11935,6997 12073,6752 12211,6752 12348,6752 12486,6220 12623,6015 12761,5730 12898,5648 13036,5566 13173,5566 13311,5566 13449,5280 13586,4789 13724,4503 13861,4299 13999,4135 14136,4135 14274,4135 14411,3358 14549,3194 14686,2785"/>
 <path fill="none" stroke="rgb(87,157,28)" stroke-width="100" stroke-linejoin="round" d="M 932,11251 L 1070,11251 1208,11251 1345,11251 1483,11251 1620,11251 1758,11251 1895,11251 2033,11251 2170,11251 2308,11251 2446,11251 2583,11251 2721,11251 2858,11251 2996,11251 3133,11251 3271,11251 3408,11251 3546,11251 3683,11251 3821,11251 3959,11251 4096,11251 4234,11251 4371,11251 4509,11251 4646,11251 4784,11210 4921,11210 5059,11210 5197,11210 5334,11210 5472,11210 5609,11210 5747,11210 5884,11210 6022,11210 6159,11210 6297,11210 6434,11210 6572,11210 6710,11128 6847,11087 6985,11087 7122,11087 7260,11087 7397,11087 7534,11087 7671,11046 7809,11005 7947,11005 8084,10964 8222,10964 8359,10964 8497,10964 8634,10964 8772,10923 8909,10923 9047,10923 9184,10882 9322,10882 9460,10882 9597,10842 9735,10842 9872,10760 10010,10637 10147,10637 10285,10637 10422,10637 10560,10596 10698,10596 10835,10555 10973,10555 11110,10433 11248,10433 11385,10433 11523,10351 11660,10310 11798,10146 11935,10024 12073,9983 12211,9983 12348,9983 12486,9737 12623,9737 12761,9492 12898,9246 13036,8919 13173,8919 13311,8919 13449,8183 13586,7979 13724,7774 13861,7447 13999,7038 14136,7038 14274,7038 14411,5853 14549,5117 14686,4585"/>
 <path fill="none" stroke="rgb(126,0,33)" stroke-width="100" stroke-linejoin="round" d="M 932,11251 L 1070,11251 1208,11251 1345,11251 1483,11251 1620,11251 1758,11251 1895,11251 2033,11251 2170,11251 2308,11251 2446,11251 2583,11251 2721,11251 2858,11169 2996,11210 3133,11210 3271,11210 3408,11210 3546,11210 3683,11210 3821,11210 3959,11169 4096,11128 4234,11128 4371,11087 4509,11087 4646,11087 4784,11087 4921,11046 5059,10964 5197,10964 5334,10882 5472,10882 5609,10882 5747,10842 5884,10678 6022,10678 6159,10514 6297,10473 6434,10473 6572,10473 6710,10392 6847,10228 6985,10187 7122,10064 7260,9860 7397,9860 7534,9860 7671,9819 7809,9615 7947,9451 8084,9410 8222,9369 8359,9369 8497,9369 8634,9083 8772,9001 8909,8756 9047,8715 9184,8674 9322,8674 9460,8674 9597,8592 9735,8510 9872,8265 10010,8183 10147,8142 10285,8142 10422,8142 10560,7979 10698,7774 10835,7733 10973,7610 11110,7488 11248,7488 11385,7488 11523,7488 11660,7488 11798,7283 11935,7120 12073,7038 12211,7038 12348,7038 12486,7038 12623,6833 12761,6670 12898,6343 13036,6015 13173,6015 13311,6015 13449,5853 13586,5812 13724,5812 13861,5812 13999,5607 14136,5607 14274,5607 14411,5566 14549,5526 14686,5239"/>
 <path fill="none" stroke="rgb(131,202,255)" stroke-width="100" stroke-linejoin="round" d="M 932,11251 L 1070,11251 1208,11251 1345,11251 1483,11251 1620,11251 1758,11251 1895,11251 2033,11251 2170,11251 2308,11251 2446,11251 2583,11251 2721,11251 2858,11169 2996,11169 3133,11169 3271,11169 3408,11169 3546,11169 3683,11169 3821,11087 3959,11087 4096,11087 4234,11087 4371,11046 4509,11046 4646,11046 4784,11046 4921,11005 5059,10964 5197,10882 5334,10842 5472,10842 5609,10842 5747,10760 5884,10760 6022,10719 6159,10596 6297,10555 6434,10555 6572,10555 6710,10310 6847,10228 6985,10146 7122,10146 7260,10146 7397,10146 7534,10146 7671,9942 7809,9696 7947,9492 8084,9410 8222,9328 8359,9328 8497,9328 8634,9124 8772,9042 8909,8960 9047,8960 9184,8878 9322,8878 9460,8878 9597,8388 9735,8388 9872,8388 10010,8388 10147,8224 10285,8224 10422,8224 10560,8183 10698,8101 10835,8101 10973,8060 11110,8019 11248,8019 11385,8019 11523,7774 11660,7733 11798,7651 11935,7651 12073,7610 12211,7610 12348,7610 12486,7365 12623,7283 12761,7038 12898,6997 13036,6956 13173,6956 13311,6956 13449,6833 13586,6711 13724,6547 13861,6506 13999,6343 14136,6343 14274,6343 14411,6179 14549,6056 14686,5853"/>
 <path fill="none" stroke="rgb(49,64,4)" stroke-width="80" stroke-linejoin="round" d="M 932,11251 L 1070,11251 1208,11251 1345,11251 1483,11251 1620,11251 1758,11251 1895,11251 2033,11251 2170,11251 2308,11251 2446,11251 2583,11251 2721,11251 2858,11251 2996,11251 3133,11251 3271,11251 3408,11251 3546,11251 3683,11251 3821,11251 3959,11210 4096,11210 4234,11210 4371,11210 4509,11210 4646,11210 4784,11169 4921,11128 5059,11128 5197,11128 5334,11128 5472,11128 5609,11128 5747,11087 5884,11005 6022,10964 6159,10964 6297,10923 6434,10923 6572,10923 6710,10801 6847,10719 6985,10678 7122,10637 7260,10596 7397,10596 7534,10596 7671,10514 7809,10392 7947,10392 8084,10228 8222,10146 8359,10146 8497,10146 8634,9901 8772,9696 8909,9574 9047,9533 9184,9492 9322,9492 9460,9492 9597,9328 9735,9246 9872,9165 10010,9083 10147,9001 10285,9001 10422,9001 10560,8837 10698,8837 10835,8837 10973,8837 11110,8797 11248,8797 11385,8797 11523,8674 11660,8633 11798,8428 11935,8469 12073,8388 12211,8388 12348,8388 12486,8265 12623,8224 12761,8224 12898,8183 13036,8142 13173,8142 13311,8142 13449,7692 13586,7651 13724,7570 13861,7488 13999,7283 14136,7283 14274,7283 14411,6997 14549,6956 14686,6711"/>
 <path fill="none" stroke="rgb(174,207,0)" stroke-width="80" stroke-linejoin="round" d="M 932,11251 L 1070,11251 1208,11251 1345,11251 1483,11251 1620,11251 1758,11251 1895,11251 2033,11251 2170,11251 2308,11251 2446,11251 2583,11251 2721,11251 2858,11251 2996,11169 3133,11128 3271,11128 3408,11128 3546,11128 3683,11128 3821,11128 3959,11128 4096,11128 4234,11087 4371,11087 4509,11087 4646,11087 4784,11087 4921,11087 5059,11087 5197,11087 5334,11087 5472,11087 5609,11087 5747,11087 5884,11087 6022,10964 6159,10964 6297,10923 6434,10923 6572,10923 6710,10882 6847,10842 6985,10842 7122,10842 7260,10842 7397,10842 7534,10842 7671,10842 7809,10842 7947,10801 8084,10801 8222,10678 8359,10678 8497,10678 8634,10637 8772,10637 8909,10637 9047,10637 9184,10596 9322,10596 9460,10596 9597,10555 9735,10555 9872,10514 10010,10514 10147,10514 10285,10514 10422,10514 10560,10433 10698,10433 10835,10433 10973,10433 11110,10433 11248,10433 11385,10433 11523,10433 11660,10310 11798,10310 11935,10310 12073,10228 12211,10228 12348,10228 12486,10024 12623,10024 12761,10024 12898,9983 13036,9983 13173,9983 13311,9983 13449,9983 13586,9901 13724,9860 13861,9819 13999,9819 14136,9819 14274,9819 14411,9696 14549,9696 14686,9737"/>
 <text class="TextShape"><tspan class="TextParagraph" font-family="Liberation Sans, sans-serif" font-size="353px" font-weight="400"><tspan class="TextPosition" x="508" y="11819"><tspan fill="rgb(0,0,0)" stroke="none">27/07</tspan></tspan></tspan></text>
 <text class="TextShape"><tspan class="TextParagraph" font-family="Liberation Sans, sans-serif" font-size="353px" font-weight="400"><tspan class="TextPosition" x="1471" y="11819"><tspan fill="rgb(0,0,0)" stroke="none">03/08</tspan></tspan></tspan></text>
 <text class="TextShape"><tspan class="TextParagraph" font-family="Liberation Sans, sans-serif" font-size="353px" font-weight="400"><tspan class="TextPosition" x="2434" y="11819"><tspan fill="rgb(0,0,0)" stroke="none">10/08</tspan></tspan></tspan></text>
 <text class="TextShape"><tspan class="TextParagraph" font-family="Liberation Sans, sans-serif" font-size="353px" font-weight="400"><tspan class="TextPosition" x="3397" y="11819"><tspan fill="rgb(0,0,0)" stroke="none">17/08</tspan></tspan></tspan></text>
 <text class="TextShape"><tspan class="TextParagraph" font-family="Liberation Sans, sans-serif" font-size="353px" font-weight="400"><tspan class="TextPosition" x="4360" y="11819"><tspan fill="rgb(0,0,0)" stroke="none">24/08</tspan></tspan></tspan></text>
 <text class="TextShape"><tspan class="TextParagraph" font-family="Liberation Sans, sans-serif" font-size="353px" font-weight="400"><tspan class="TextPosition" x="5323" y="11819"><tspan fill="rgb(0,0,0)" stroke="none">31/08</tspan></tspan></tspan></text>
 <text class="TextShape"><tspan class="TextParagraph" font-family="Liberation Sans, sans-serif" font-size="353px" font-weight="400"><tspan class="TextPosition" x="6286" y="11819"><tspan fill="rgb(0,0,0)" stroke="none">07/09</tspan></tspan></tspan></text>
 <text class="TextShape"><tspan class="TextParagraph" font-family="Liberation Sans, sans-serif" font-size="353px" font-weight="400"><tspan class="TextPosition" x="7248" y="11819"><tspan fill="rgb(0,0,0)" stroke="none">14/09</tspan></tspan></tspan></text>
 <text class="TextShape"><tspan class="TextParagraph" font-family="Liberation Sans, sans-serif" font-size="353px" font-weight="400"><tspan class="TextPosition" x="8211" y="11819"><tspan fill="rgb(0,0,0)" stroke="none">21/09</tspan></tspan></tspan></text>
 <text class="TextShape"><tspan class="TextParagraph" font-family="Liberation Sans, sans-serif" font-size="353px" font-weight="400"><tspan class="TextPosition" x="9174" y="11819"><tspan fill="rgb(0,0,0)" stroke="none">28/09</tspan></tspan></tspan></text>
 <text class="TextShape"><tspan class="TextParagraph" font-family="Liberation Sans, sans-serif" font-size="353px" font-weight="400"><tspan class="TextPosition" x="10137" y="11819"><tspan fill="rgb(0,0,0)" stroke="none">05/10</tspan></tspan></tspan></text>
 <text class="TextShape"><tspan class="TextParagraph" font-family="Liberation Sans, sans-serif" font-size="353px" font-weight="400"><tspan class="TextPosition" x="11100" y="11819"><tspan fill="rgb(0,0,0)" stroke="none">12/10</tspan></tspan></tspan></text>
 <text class="TextShape"><tspan class="TextParagraph" font-family="Liberation Sans, sans-serif" font-size="353px" font-weight="400"><tspan class="TextPosition" x="12063" y="11819"><tspan fill="rgb(0,0,0)" stroke="none">19/10</tspan></tspan></tspan></text>
 <text class="TextShape"><tspan class="TextParagraph" font-family="Liberation Sans, sans-serif" font-size="353px" font-weight="400"><tspan class="TextPosition" x="13026" y="11819"><tspan fill="rgb(0,0,0)" stroke="none">26/10</tspan></tspan></tspan></text>
 <text class="TextShape"><tspan class="TextParagraph" font-family="Liberation Sans, sans-serif" font-size="353px" font-weight="400"><tspan class="TextPosition" x="13988" y="11819"><tspan fill="rgb(0,0,0)" stroke="none">02/11</tspan></tspan></tspan></text>
 <text class="TextShape"><tspan class="TextParagraph" font-family="Liberation Sans, sans-serif" font-size="353px" font-weight="400"><tspan class="TextPosition" x="497" y="11372"><tspan fill="rgb(0,0,0)" stroke="none">0</tspan></tspan></tspan></text>
 <text class="TextShape"><tspan class="TextParagraph" font-family="Liberation Sans, sans-serif" font-size="353px" font-weight="400"><tspan class="TextPosition" x="312" y="9327"><tspan fill="rgb(0,0,0)" stroke="none">50</tspan></tspan></tspan></text>
 <text class="TextShape"><tspan class="TextParagraph" font-family="Liberation Sans, sans-serif" font-size="353px" font-weight="400"><tspan class="TextPosition" x="126" y="7282"><tspan fill="rgb(0,0,0)" stroke="none">100</tspan></tspan></tspan></text>
 <text class="TextShape"><tspan class="TextParagraph" font-family="Liberation Sans, sans-serif" font-size="353px" font-weight="400"><tspan class="TextPosition" x="126" y="5237"><tspan fill="rgb(0,0,0)" stroke="none">150</tspan></tspan></tspan></text>
 <text class="TextShape"><tspan class="TextParagraph" font-family="Liberation Sans, sans-serif" font-size="353px" font-weight="400"><tspan class="TextPosition" x="126" y="3192"><tspan fill="rgb(0,0,0)" stroke="none">200</tspan></tspan></tspan></text>
 <text class="TextShape"><tspan class="TextParagraph" font-family="Liberation Sans, sans-serif" font-size="353px" font-weight="400"><tspan class="TextPosition" x="126" y="1147"><tspan fill="rgb(0,0,0)" stroke="none">250</tspan></tspan></tspan></text>
 <text class="TextShape"><tspan class="TextParagraph" font-family="Liberation Sans, sans-serif" font-size="459px" font-weight="400"><tspan class="TextPosition" x="4356" y="724"><tspan fill="rgb(0,0,0)" stroke="none">Covid-19. Muertes acumuladas CCAA (3)</tspan></tspan></tspan></text>
 <path fill="none" stroke="rgb(0,0,0)" stroke-width="100" stroke-linejoin="round" d="M 1561,1348 L 2361,1348"/>
 <path fill="none" stroke="rgb(255,66,14)" stroke-width="100" stroke-linejoin="round" d="M 1561,2043 L 2361,2043"/>
 <path fill="none" stroke="rgb(255,211,32)" stroke-width="100" stroke-linejoin="round" d="M 1561,2738 L 2361,2738"/>
 <path fill="none" stroke="rgb(87,157,28)" stroke-width="100" stroke-linejoin="round" d="M 1561,3433 L 2361,3433"/>
 <path fill="none" stroke="rgb(126,0,33)" stroke-width="100" stroke-linejoin="round" d="M 1561,4128 L 2361,4128"/>
 <path fill="none" stroke="rgb(131,202,255)" stroke-width="100" stroke-linejoin="round" d="M 1561,4823 L 2361,4823"/>
 <path fill="none" stroke="rgb(49,64,4)" stroke-width="80" stroke-linejoin="round" d="M 1561,5518 L 2361,5518"/>
 <path fill="none" stroke="rgb(174,207,0)" stroke-width="80" stroke-linejoin="round" d="M 1561,6212 L 2361,6212"/>
 <text class="TextShape"><tspan class="TextParagraph" font-family="Liberation Sans, sans-serif" font-size="353px" font-weight="400"><tspan class="TextPosition" x="2461" y="1468"><tspan fill="rgb(0,0,0)" stroke="none">Extremadura</tspan></tspan></tspan></text>
 <text class="TextShape"><tspan class="TextParagraph" font-family="Liberation Sans, sans-serif" font-size="353px" font-weight="400"><tspan class="TextPosition" x="2461" y="2163"><tspan fill="rgb(0,0,0)" stroke="none">Murcia</tspan></tspan></tspan></text>
 <text class="TextShape"><tspan class="TextParagraph" font-family="Liberation Sans, sans-serif" font-size="353px" font-weight="400"><tspan class="TextPosition" x="2461" y="2858"><tspan fill="rgb(0,0,0)" stroke="none">Navarra</tspan></tspan></tspan></text>
 <text class="TextShape"><tspan class="TextParagraph" font-family="Liberation Sans, sans-serif" font-size="353px" font-weight="400"><tspan class="TextPosition" x="2461" y="3553"><tspan fill="rgb(0,0,0)" stroke="none">Asturias </tspan></tspan></tspan></text>
 <text class="TextShape"><tspan class="TextParagraph" font-family="Liberation Sans, sans-serif" font-size="353px" font-weight="400"><tspan class="TextPosition" x="2461" y="4248"><tspan fill="rgb(0,0,0)" stroke="none">Baleares</tspan></tspan></tspan></text>
 <text class="TextShape"><tspan class="TextParagraph" font-family="Liberation Sans, sans-serif" font-size="353px" font-weight="400"><tspan class="TextPosition" x="2461" y="4943"><tspan fill="rgb(0,0,0)" stroke="none">Canarias</tspan></tspan></tspan></text>
 <text class="TextShape"><tspan class="TextParagraph" font-family="Liberation Sans, sans-serif" font-size="353px" font-weight="400"><tspan class="TextPosition" x="2461" y="5638"><tspan fill="rgb(0,0,0)" stroke="none">La Rioja</tspan></tspan></tspan></text>
 <text class="TextShape"><tspan class="TextParagraph" font-family="Liberation Sans, sans-serif" font-size="353px" font-weight="400"><tspan class="TextPosition" x="2461" y="6332"><tspan fill="rgb(0,0,0)" stroke="none">Cantabria</tspan></tspan></tspan></text>
</svg>