<?xml version="1.0" encoding="UTF-8"?>
<!DOCTYPE svg PUBLIC "-//W3C//DTD SVG 1.1//EN" "http://www.w3.org/Graphics/SVG/1.1/DTD/svg11.dtd">
<svg width="150mm" height="120mm" viewBox="0 0 15000 12000" version="1.1" xmlns="http://www.w3.org/2000/svg" xmlns:xlink="http://www.w3.org/1999/xlink" stroke-width="28.222" stroke-linejoin="round" xml:space="preserve">
 <path fill="rgb(255,255,255)" stroke="none" d="M 7500,12000 L 0,12000 0,0 15000,0 15000,12000 7500,12000 Z"/>
 <path fill="none" stroke="rgb(0,0,0)" stroke-linejoin="round" d="M 8005,11216 L 1306,11216 1306,779 14704,779 14704,11216 8005,11216 Z"/>
 <path fill="none" stroke="rgb(0,0,0)" stroke-linejoin="round" d="M 14704,11215 L 1306,11215"/>
 <path fill="none" stroke="rgb(0,0,0)" stroke-linejoin="round" d="M 14704,10055 L 1306,10055"/>
 <path fill="none" stroke="rgb(0,0,0)" stroke-linejoin="round" d="M 14704,8895 L 1306,8895"/>
 <path fill="none" stroke="rgb(0,0,0)" stroke-linejoin="round" d="M 14704,7735 L 1306,7735"/>
 <path fill="none" stroke="rgb(0,0,0)" stroke-linejoin="round" d="M 14704,6575 L 1306,6575"/>
 <path fill="none" stroke="rgb(0,0,0)" stroke-linejoin="round" d="M 14704,5417 L 1306,5417"/>
 <path fill="none" stroke="rgb(0,0,0)" stroke-linejoin="round" d="M 14704,4257 L 1306,4257"/>
 <path fill="none" stroke="rgb(0,0,0)" stroke-linejoin="round" d="M 14704,3097 L 1306,3097"/>
 <path fill="none" stroke="rgb(0,0,0)" stroke-linejoin="round" d="M 14704,1937 L 1306,1937"/>
 <path fill="none" stroke="rgb(0,0,0)" stroke-linejoin="round" d="M 14704,778 L 1306,778"/>
 <path fill="none" stroke="rgb(0,0,0)" stroke-linejoin="round" d="M 1306,11365 L 1306,11215"/>
 <path fill="none" stroke="rgb(0,0,0)" stroke-linejoin="round" d="M 1306,11365 L 1306,11215"/>
 <path fill="none" stroke="rgb(0,0,0)" stroke-linejoin="round" d="M 2158,11365 L 2158,11215"/>
 <path fill="none" stroke="rgb(0,0,0)" stroke-linejoin="round" d="M 2158,11365 L 2158,11215"/>
 <path fill="none" stroke="rgb(0,0,0)" stroke-linejoin="round" d="M 3011,11365 L 3011,11215"/>
 <path fill="none" stroke="rgb(0,0,0)" stroke-linejoin="round" d="M 3011,11365 L 3011,11215"/>
 <path fill="none" stroke="rgb(0,0,0)" stroke-linejoin="round" d="M 3863,11365 L 3863,11215"/>
 <path fill="none" stroke="rgb(0,0,0)" stroke-linejoin="round" d="M 3863,11365 L 3863,11215"/>
 <path fill="none" stroke="rgb(0,0,0)" stroke-linejoin="round" d="M 4716,11365 L 4716,11215"/>
 <path fill="none" stroke="rgb(0,0,0)" stroke-linejoin="round" d="M 4716,11365 L 4716,11215"/>
 <path fill="none" stroke="rgb(0,0,0)" stroke-linejoin="round" d="M 5569,11365 L 5569,11215"/>
 <path fill="none" stroke="rgb(0,0,0)" stroke-linejoin="round" d="M 5569,11365 L 5569,11215"/>
 <path fill="none" stroke="rgb(0,0,0)" stroke-linejoin="round" d="M 6421,11365 L 6421,11215"/>
 <path fill="none" stroke="rgb(0,0,0)" stroke-linejoin="round" d="M 6421,11365 L 6421,11215"/>
 <path fill="none" stroke="rgb(0,0,0)" stroke-linejoin="round" d="M 7274,11365 L 7274,11215"/>
 <path fill="none" stroke="rgb(0,0,0)" stroke-linejoin="round" d="M 7274,11365 L 7274,11215"/>
 <path fill="none" stroke="rgb(0,0,0)" stroke-linejoin="round" d="M 8126,11365 L 8126,11215"/>
 <path fill="none" stroke="rgb(0,0,0)" stroke-linejoin="round" d="M 8126,11365 L 8126,11215"/>
 <path fill="none" stroke="rgb(0,0,0)" stroke-linejoin="round" d="M 8978,11365 L 8978,11215"/>
 <path fill="none" stroke="rgb(0,0,0)" stroke-linejoin="round" d="M 8978,11365 L 8978,11215"/>
 <path fill="none" stroke="rgb(0,0,0)" stroke-linejoin="round" d="M 9831,11365 L 9831,11215"/>
 <path fill="none" stroke="rgb(0,0,0)" stroke-linejoin="round" d="M 9831,11365 L 9831,11215"/>
 <path fill="none" stroke="rgb(0,0,0)" stroke-linejoin="round" d="M 10684,11365 L 10684,11215"/>
 <path fill="none" stroke="rgb(0,0,0)" stroke-linejoin="round" d="M 10684,11365 L 10684,11215"/>
 <path fill="none" stroke="rgb(0,0,0)" stroke-linejoin="round" d="M 11536,11365 L 11536,11215"/>
 <path fill="none" stroke="rgb(0,0,0)" stroke-linejoin="round" d="M 11536,11365 L 11536,11215"/>
 <path fill="none" stroke="rgb(0,0,0)" stroke-linejoin="round" d="M 12389,11365 L 12389,11215"/>
 <path fill="none" stroke="rgb(0,0,0)" stroke-linejoin="round" d="M 12389,11365 L 12389,11215"/>
 <path fill="none" stroke="rgb(0,0,0)" stroke-linejoin="round" d="M 13242,11365 L 13242,11215"/>
 <path fill="none" stroke="rgb(0,0,0)" stroke-linejoin="round" d="M 13242,11365 L 13242,11215"/>
 <path fill="none" stroke="rgb(0,0,0)" stroke-linejoin="round" d="M 14094,11365 L 14094,11215"/>
 <path fill="none" stroke="rgb(0,0,0)" stroke-linejoin="round" d="M 14094,11365 L 14094,11215"/>
 <path fill="none" stroke="rgb(0,0,0)" stroke-linejoin="round" d="M 1306,11215 L 14704,11215"/>
 <path fill="none" stroke="rgb(0,0,0)" stroke-linejoin="round" d="M 1156,11215 L 1306,11215"/>
 <path fill="none" stroke="rgb(0,0,0)" stroke-linejoin="round" d="M 1156,11215 L 1306,11215"/>
 <path fill="none" stroke="rgb(0,0,0)" stroke-linejoin="round" d="M 1156,10055 L 1306,10055"/>
 <path fill="none" stroke="rgb(0,0,0)" stroke-linejoin="round" d="M 1156,10055 L 1306,10055"/>
 <path fill="none" stroke="rgb(0,0,0)" stroke-linejoin="round" d="M 1156,8895 L 1306,8895"/>
 <path fill="none" stroke="rgb(0,0,0)" stroke-linejoin="round" d="M 1156,8895 L 1306,8895"/>
 <path fill="none" stroke="rgb(0,0,0)" stroke-linejoin="round" d="M 1156,7735 L 1306,7735"/>
 <path fill="none" stroke="rgb(0,0,0)" stroke-linejoin="round" d="M 1156,7735 L 1306,7735"/>
 <path fill="none" stroke="rgb(0,0,0)" stroke-linejoin="round" d="M 1156,6575 L 1306,6575"/>
 <path fill="none" stroke="rgb(0,0,0)" stroke-linejoin="round" d="M 1156,6575 L 1306,6575"/>
 <path fill="none" stroke="rgb(0,0,0)" stroke-linejoin="round" d="M 1156,5417 L 1306,5417"/>
 <path fill="none" stroke="rgb(0,0,0)" stroke-linejoin="round" d="M 1156,5417 L 1306,5417"/>
 <path fill="none" stroke="rgb(0,0,0)" stroke-linejoin="round" d="M 1156,4257 L 1306,4257"/>
 <path fill="none" stroke="rgb(0,0,0)" stroke-linejoin="round" d="M 1156,4257 L 1306,4257"/>
 <path fill="none" stroke="rgb(0,0,0)" stroke-linejoin="round" d="M 1156,3097 L 1306,3097"/>
 <path fill="none" stroke="rgb(0,0,0)" stroke-linejoin="round" d="M 1156,3097 L 1306,3097"/>
 <path fill="none" stroke="rgb(0,0,0)" stroke-linejoin="round" d="M 1156,1937 L 1306,1937"/>
 <path fill="none" stroke="rgb(0,0,0)" stroke-linejoin="round" d="M 1156,1937 L 1306,1937"/>
 <path fill="none" stroke="rgb(0,0,0)" stroke-linejoin="round" d="M 1156,778 L 1306,778"/>
 <path fill="none" stroke="rgb(0,0,0)" stroke-linejoin="round" d="M 1156,778 L 1306,778"/>
 <path fill="none" stroke="rgb(0,0,0)" stroke-linejoin="round" d="M 1306,11215 L 1306,778"/>
 <path fill="none" stroke="rgb(0,69,134)" stroke-width="100" stroke-linejoin="round" d="M 1306,11215 L 1427,11212 1549,11187 1671,11180 1793,11170 1915,11168 2036,11159 2158,11159 2280,11147 2402,11143 2524,11126 2645,11122 2767,11110 2889,11101 3011,11096 3133,11080 3254,11066 3376,11031 3498,10994 3620,10976 3742,10950 3863,10941 3985,10929 4107,10894 4229,10871 4351,10855 4473,10834 4594,10827 4716,10818 4838,10809 4960,11082 5082,11080 5203,11068 5325,11064 5447,11052 5569,11045 5691,11043 5812,11038 5934,11036 6056,11034 6178,11029 6300,11017 6421,11015 6543,11010 6665,11003 6787,10992 6909,10992 7031,10987 7152,10978 7274,10973 7396,10969 7517,10962 7639,10950 7760,10948 7882,10945 8004,10929 8126,10920 8248,10915 8369,10904 8491,10894 8613,10880 8735,10871 8857,10860 8978,10846 9100,10829 9222,10797 9344,10762 9466,10746 9588,10713 9709,10697 9831,10651 9953,10618 10075,10586 10197,10549 10318,10507 10440,10449 10562,10393 10684,10356 10806,10310 10927,10233 11049,10154 11171,10041 11293,9967 11415,9890 11536,9841 11658,9772 11780,9665 11902,9549 12024,9435 12146,9273 12267,9090 12389,8920 12511,8714 12633,8392 12755,8085 12876,7765 12998,7431 13120,7030 13242,6770 13364,6490 13485,5869 13607,5440 13729,4955 13851,4519 13973,4057 14094,3714 14216,3341 14338,2540 14460,2083 14582,1775 14704,1276"/>
 <path fill="none" stroke="rgb(255,66,14)" stroke-width="100" stroke-linejoin="round" d="M 1306,11215 L 1427,11205 1549,11196 1671,11177 1793,11161 1915,11145 2036,11161 2158,11145 2280,11126 2402,11099 2524,11082 2645,11064 2767,11036 2889,11034 3011,11031 3133,11022 3254,11008 3376,10999 3498,10966 3620,10952 3742,10952 3863,10950 3985,10941 4107,10925 4229,10901 4351,10885 4473,10869 4594,10864 4716,10857 4838,10846 4960,10839 5082,10827 5203,10820 5325,10818 5447,10804 5569,10797 5691,10788 5812,10762 5934,10744 6056,10741 6178,10737 6300,10734 6421,10734 6543,10725 6665,10704 6787,10697 6909,10695 7031,10683 7152,10679 7274,10676 7396,10649 7517,10635 7639,10628 7760,10611 7882,10597 8004,10593 8126,10593 8248,10570 8369,10540 8491,10495 8613,10461 8735,10440 8857,10428 8978,10421 9100,10396 9222,10356 9344,10328 9466,10310 9588,10266 9709,10261 9831,10250 9953,10222 10075,10185 10197,10148 10318,10122 10440,10087 10562,10062 10684,10048 10806,10018 10927,9918 11049,9841 11171,9786 11293,9709 11415,9686 11536,9658 11658,9549 11780,9459 11902,9389 12024,9275 12146,9162 12267,9094 12389,9039 12511,8941 12633,8744 12755,8538 12876,8359 12998,8120 13120,8053 13242,7939 13364,7635 13485,7285 13607,7011 13729,6626 13851,6325 13973,6179 14094,6033 14216,5676 14338,5071 14460,4572 14582,4067 14704,3654"/>
 <path fill="none" stroke="rgb(255,211,32)" stroke-width="100" stroke-linejoin="round" d="M 1306,11215 L 1427,11194 1549,11194 1671,11194 1793,11194 1915,11194 2036,11194 2158,11194 2280,11180 2402,11180 2524,11180 2645,11180 2767,11180 2889,11180 3011,11180 3133,11161 3254,11161 3376,11161 3498,11161 3620,11161 3742,11161 3863,11161 3985,11124 4107,11124 4229,11124 4351,11124 4473,11124 4594,11124 4716,11124 4838,11050 4960,11050 5082,11050 5203,11050 5325,11050 5447,11050 5569,11050 5691,10994 5812,10994 5934,10994 6056,10994 6178,10994 6300,10994 6421,10994 6543,10964 6665,10964 6787,10964 6909,10964 7031,10964 7152,10964 7274,10964 7396,10932 7517,10932 7639,10932 7760,10932 7882,10932 8004,10932 8126,10932 8248,10855 8369,10855 8491,10855 8613,10855 8735,10855 8857,10855 8978,10855 9100,10618 9222,10618 9344,10618 9466,10618 9588,10618 9709,10618 9831,10618 9953,10412 10075,10412 10197,10412 10318,10412 10440,10412 10562,10412 10684,10412 10806,10066 10927,10066 11049,10066 11171,10066 11293,10066 11415,10066 11536,10066 11658,9642 11780,9642 11902,9642 12024,9642 12146,9642 12267,9642 12389,9642 12511,8881 12633,8881 12755,8881 12876,8881 12998,8881 13120,8881 13242,8881 13364,7874 13485,7874 13607,7874 13729,7874 13851,7874 13973,7874 14094,7874 14216,6564 14338,6564 14460,6564 14582,6564 14704,6564"/>
 <path fill="none" stroke="rgb(87,157,28)" stroke-width="100" stroke-linejoin="round" d="M 1306,11210 L 1427,11203 1549,11196 1671,11191 1793,11173 1915,11168 2036,11166 2158,11166 2280,11163 2402,11161 2524,11154 2645,11147 2767,11138 2889,11124 3011,11117 3133,11112 3254,11105 3376,11092 3498,11087 3620,11080 3742,11073 3863,11071 3985,11059 4107,11054 4229,11050 4351,11041 4473,11036 4594,11031 4716,11020 4838,11010 4960,11006 5082,11001 5203,10987 5325,10980 5447,10978 5569,10971 5691,10966 5812,10959 5934,10955 6056,10945 6178,10934 6300,10929 6421,10922 6543,10915 6665,10908 6787,10901 6909,10894 7031,10883 7152,10867 7274,10857 7396,10848 7517,10841 7639,10818 7760,10804 7882,10792 8004,10762 8126,10744 8248,10732 8369,10725 8491,10718 8613,10707 8735,10688 8857,10667 8978,10658 9100,10644 9222,10625 9344,10611 9466,10597 9588,10570 9709,10546 9831,10516 9953,10484 10075,10465 10197,10442 10318,10414 10440,10403 10562,10373 10684,10340 10806,10303 10927,10287 11049,10261 11171,10212 11293,10182 11415,10138 11536,10099 11658,10064 11780,10027 11902,9990 12024,9918 12146,9869 12267,9825 12389,9762 12511,9698 12633,9642 12755,9565 12876,9473 12998,9382 13120,9296 13242,9190 13364,9085 13485,8948 13607,8842 13729,8721 13851,8591 13973,8480 14094,8334 14216,8190 14338,8000 14460,7819 14582,7659 14704,7531"/>
 <text class="TextShape"><tspan class="TextParagraph" font-family="Liberation Sans, sans-serif" font-size="353px" font-weight="400"><tspan class="TextPosition" x="882" y="11783"><tspan fill="rgb(0,0,0)" stroke="none">27/07</tspan></tspan></tspan></text>
 <text class="TextShape"><tspan class="TextParagraph" font-family="Liberation Sans, sans-serif" font-size="353px" font-weight="400"><tspan class="TextPosition" x="1734" y="11783"><tspan fill="rgb(0,0,0)" stroke="none">03/08</tspan></tspan></tspan></text>
 <text class="TextShape"><tspan class="TextParagraph" font-family="Liberation Sans, sans-serif" font-size="353px" font-weight="400"><tspan class="TextPosition" x="2587" y="11783"><tspan fill="rgb(0,0,0)" stroke="none">10/08</tspan></tspan></tspan></text>
 <text class="TextShape"><tspan class="TextParagraph" font-family="Liberation Sans, sans-serif" font-size="353px" font-weight="400"><tspan class="TextPosition" x="3439" y="11783"><tspan fill="rgb(0,0,0)" stroke="none">17/08</tspan></tspan></tspan></text>
 <text class="TextShape"><tspan class="TextParagraph" font-family="Liberation Sans, sans-serif" font-size="353px" font-weight="400"><tspan class="TextPosition" x="4292" y="11783"><tspan fill="rgb(0,0,0)" stroke="none">24/08</tspan></tspan></tspan></text>
 <text class="TextShape"><tspan class="TextParagraph" font-family="Liberation Sans, sans-serif" font-size="353px" font-weight="400"><tspan class="TextPosition" x="5145" y="11783"><tspan fill="rgb(0,0,0)" stroke="none">31/08</tspan></tspan></tspan></text>
 <text class="TextShape"><tspan class="TextParagraph" font-family="Liberation Sans, sans-serif" font-size="353px" font-weight="400"><tspan class="TextPosition" x="5997" y="11783"><tspan fill="rgb(0,0,0)" stroke="none">07/09</tspan></tspan></tspan></text>
 <text class="TextShape"><tspan class="TextParagraph" font-family="Liberation Sans, sans-serif" font-size="353px" font-weight="400"><tspan class="TextPosition" x="6850" y="11783"><tspan fill="rgb(0,0,0)" stroke="none">14/09</tspan></tspan></tspan></text>
 <text class="TextShape"><tspan class="TextParagraph" font-family="Liberation Sans, sans-serif" font-size="353px" font-weight="400"><tspan class="TextPosition" x="7703" y="11783"><tspan fill="rgb(0,0,0)" stroke="none">21/09</tspan></tspan></tspan></text>
 <text class="TextShape"><tspan class="TextParagraph" font-family="Liberation Sans, sans-serif" font-size="353px" font-weight="400"><tspan class="TextPosition" x="8555" y="11783"><tspan fill="rgb(0,0,0)" stroke="none">28/09</tspan></tspan></tspan></text>
 <text class="TextShape"><tspan class="TextParagraph" font-family="Liberation Sans, sans-serif" font-size="353px" font-weight="400"><tspan class="TextPosition" x="9408" y="11783"><tspan fill="rgb(0,0,0)" stroke="none">05/10</tspan></tspan></tspan></text>
 <text class="TextShape"><tspan class="TextParagraph" font-family="Liberation Sans, sans-serif" font-size="353px" font-weight="400"><tspan class="TextPosition" x="10261" y="11783"><tspan fill="rgb(0,0,0)" stroke="none">12/10</tspan></tspan></tspan></text>
 <text class="TextShape"><tspan class="TextParagraph" font-family="Liberation Sans, sans-serif" font-size="353px" font-weight="400"><tspan class="TextPosition" x="11113" y="11783"><tspan fill="rgb(0,0,0)" stroke="none">19/10</tspan></tspan></tspan></text>
 <text class="TextShape"><tspan class="TextParagraph" font-family="Liberation Sans, sans-serif" font-size="353px" font-weight="400"><tspan class="TextPosition" x="11966" y="11783"><tspan fill="rgb(0,0,0)" stroke="none">26/10</tspan></tspan></tspan></text>
 <text class="TextShape"><tspan class="TextParagraph" font-family="Liberation Sans, sans-serif" font-size="353px" font-weight="400"><tspan class="TextPosition" x="12819" y="11783"><tspan fill="rgb(0,0,0)" stroke="none">02/11</tspan></tspan></tspan></text>
 <text class="TextShape"><tspan class="TextParagraph" font-family="Liberation Sans, sans-serif" font-size="353px" font-weight="400"><tspan class="TextPosition" x="13671" y="11783"><tspan fill="rgb(0,0,0)" stroke="none">09/11</tspan></tspan></tspan></text>
 <text class="TextShape"><tspan class="TextParagraph" font-family="Liberation Sans, sans-serif" font-size="353px" font-weight="400"><tspan class="TextPosition" x="500" y="10176"><tspan fill="rgb(0,0,0)" stroke="none">500</tspan></tspan></tspan></text>
 <text class="TextShape"><tspan class="TextParagraph" font-family="Liberation Sans, sans-serif" font-size="353px" font-weight="400"><tspan class="TextPosition" x="209" y="9016"><tspan fill="rgb(0,0,0)" stroke="none">1.000</tspan></tspan></tspan></text>
 <text class="TextShape"><tspan class="TextParagraph" font-family="Liberation Sans, sans-serif" font-size="353px" font-weight="400"><tspan class="TextPosition" x="209" y="7856"><tspan fill="rgb(0,0,0)" stroke="none">1.500</tspan></tspan></tspan></text>
 <text class="TextShape"><tspan class="TextParagraph" font-family="Liberation Sans, sans-serif" font-size="353px" font-weight="400"><tspan class="TextPosition" x="209" y="6696"><tspan fill="rgb(0,0,0)" stroke="none">2.000</tspan></tspan></tspan></text>
 <text class="TextShape"><tspan class="TextParagraph" font-family="Liberation Sans, sans-serif" font-size="353px" font-weight="400"><tspan class="TextPosition" x="209" y="5537"><tspan fill="rgb(0,0,0)" stroke="none">2.500</tspan></tspan></tspan></text>
 <text class="TextShape"><tspan class="TextParagraph" font-family="Liberation Sans, sans-serif" font-size="353px" font-weight="400"><tspan class="TextPosition" x="209" y="4377"><tspan fill="rgb(0,0,0)" stroke="none">3.000</tspan></tspan></tspan></text>
 <text class="TextShape"><tspan class="TextParagraph" font-family="Liberation Sans, sans-serif" font-size="353px" font-weight="400"><tspan class="TextPosition" x="209" y="3217"><tspan fill="rgb(0,0,0)" stroke="none">3.500</tspan></tspan></tspan></text>
 <text class="TextShape"><tspan class="TextParagraph" font-family="Liberation Sans, sans-serif" font-size="353px" font-weight="400"><tspan class="TextPosition" x="209" y="2057"><tspan fill="rgb(0,0,0)" stroke="none">4.000</tspan></tspan></tspan></text>
 <text class="TextShape"><tspan class="TextParagraph" font-family="Liberation Sans, sans-serif" font-size="353px" font-weight="400"><tspan class="TextPosition" x="209" y="898"><tspan fill="rgb(0,0,0)" stroke="none">4.500</tspan></tspan></tspan></text>
 <text class="TextShape"><tspan class="TextParagraph" font-family="Liberation Sans, sans-serif" font-size="459px" font-weight="400"><tspan class="TextPosition" x="1877" y="538"><tspan fill="rgb(0,0,0)" stroke="none">Covid-19. Muertes acumuladas en Europa Occidental (2)</tspan></tspan></tspan></text>
 <path fill="none" stroke="rgb(0,69,134)" stroke-width="100" stroke-linejoin="round" d="M 2187,1295 L 2987,1295"/>
 <path fill="none" stroke="rgb(255,66,14)" stroke-width="100" stroke-linejoin="round" d="M 2187,2498 L 2987,2498"/>
 <path fill="none" stroke="rgb(255,211,32)" stroke-width="100" stroke-linejoin="round" d="M 2187,3701 L 2987,3701"/>
 <path fill="none" stroke="rgb(87,157,28)" stroke-width="100" stroke-linejoin="round" d="M 2187,4904 L 2987,4904"/>
 <text class="TextShape"><tspan class="TextParagraph" font-family="Liberation Sans, sans-serif" font-size="353px" font-weight="400"><tspan class="TextPosition" x="3087" y="1415"><tspan fill="rgb(0,0,0)" stroke="none">Bélgica</tspan></tspan></tspan></text>
 <text class="TextShape"><tspan class="TextParagraph" font-family="Liberation Sans, sans-serif" font-size="353px" font-weight="400"><tspan class="TextPosition" x="3087" y="2618"><tspan fill="rgb(0,0,0)" stroke="none">Alemania</tspan></tspan></tspan></text>
 <text class="TextShape"><tspan class="TextParagraph" font-family="Liberation Sans, sans-serif" font-size="353px" font-weight="400"><tspan class="TextPosition" x="3087" y="3821"><tspan fill="rgb(0,0,0)" stroke="none">Holanda</tspan></tspan></tspan></text>
 <text class="TextShape"><tspan class="TextParagraph" font-family="Liberation Sans, sans-serif" font-size="353px" font-weight="400"><tspan class="TextPosition" x="3087" y="5024"><tspan fill="rgb(0,0,0)" stroke="none">Portugal</tspan></tspan></tspan></text>
</svg>