<?xml version="1.0" encoding="UTF-8"?>
<!DOCTYPE svg PUBLIC "-//W3C//DTD SVG 1.1//EN" "http://www.w3.org/Graphics/SVG/1.1/DTD/svg11.dtd">
<svg width="150mm" height="120mm" viewBox="0 0 15000 12000" version="1.1" xmlns="http://www.w3.org/2000/svg" xmlns:xlink="http://www.w3.org/1999/xlink" stroke-width="28.222" stroke-linejoin="round" xml:space="preserve">
 <path fill="rgb(255,255,255)" stroke="none" d="M 7500,12000 L 0,12000 0,0 15000,0 15000,12000 7500,12000 Z"/>
 <path fill="none" stroke="rgb(0,0,0)" stroke-linejoin="round" d="M 7727,11164 L 773,11164 773,1251 14682,1251 14682,11164 7727,11164 Z"/>
 <path fill="none" stroke="rgb(0,0,0)" stroke-linejoin="round" d="M 14682,11163 L 773,11163"/>
 <path fill="none" stroke="rgb(0,0,0)" stroke-linejoin="round" d="M 14682,8684 L 773,8684"/>
 <path fill="none" stroke="rgb(0,0,0)" stroke-linejoin="round" d="M 14682,6206 L 773,6206"/>
 <path fill="none" stroke="rgb(0,0,0)" stroke-linejoin="round" d="M 14682,3728 L 773,3728"/>
 <path fill="none" stroke="rgb(0,0,0)" stroke-linejoin="round" d="M 14682,1250 L 773,1250"/>
 <path fill="none" stroke="rgb(0,0,0)" stroke-linejoin="round" d="M 773,11313 L 773,11163"/>
 <path fill="none" stroke="rgb(0,0,0)" stroke-linejoin="round" d="M 773,11313 L 773,11163"/>
 <path fill="none" stroke="rgb(0,0,0)" stroke-linejoin="round" d="M 1990,11313 L 1990,11163"/>
 <path fill="none" stroke="rgb(0,0,0)" stroke-linejoin="round" d="M 1990,11313 L 1990,11163"/>
 <path fill="none" stroke="rgb(0,0,0)" stroke-linejoin="round" d="M 3207,11313 L 3207,11163"/>
 <path fill="none" stroke="rgb(0,0,0)" stroke-linejoin="round" d="M 3207,11313 L 3207,11163"/>
 <path fill="none" stroke="rgb(0,0,0)" stroke-linejoin="round" d="M 4424,11313 L 4424,11163"/>
 <path fill="none" stroke="rgb(0,0,0)" stroke-linejoin="round" d="M 4424,11313 L 4424,11163"/>
 <path fill="none" stroke="rgb(0,0,0)" stroke-linejoin="round" d="M 5641,11313 L 5641,11163"/>
 <path fill="none" stroke="rgb(0,0,0)" stroke-linejoin="round" d="M 5641,11313 L 5641,11163"/>
 <path fill="none" stroke="rgb(0,0,0)" stroke-linejoin="round" d="M 6858,11313 L 6858,11163"/>
 <path fill="none" stroke="rgb(0,0,0)" stroke-linejoin="round" d="M 6858,11313 L 6858,11163"/>
 <path fill="none" stroke="rgb(0,0,0)" stroke-linejoin="round" d="M 8074,11313 L 8074,11163"/>
 <path fill="none" stroke="rgb(0,0,0)" stroke-linejoin="round" d="M 8074,11313 L 8074,11163"/>
 <path fill="none" stroke="rgb(0,0,0)" stroke-linejoin="round" d="M 9291,11313 L 9291,11163"/>
 <path fill="none" stroke="rgb(0,0,0)" stroke-linejoin="round" d="M 9291,11313 L 9291,11163"/>
 <path fill="none" stroke="rgb(0,0,0)" stroke-linejoin="round" d="M 10509,11313 L 10509,11163"/>
 <path fill="none" stroke="rgb(0,0,0)" stroke-linejoin="round" d="M 10509,11313 L 10509,11163"/>
 <path fill="none" stroke="rgb(0,0,0)" stroke-linejoin="round" d="M 11726,11313 L 11726,11163"/>
 <path fill="none" stroke="rgb(0,0,0)" stroke-linejoin="round" d="M 11726,11313 L 11726,11163"/>
 <path fill="none" stroke="rgb(0,0,0)" stroke-linejoin="round" d="M 12943,11313 L 12943,11163"/>
 <path fill="none" stroke="rgb(0,0,0)" stroke-linejoin="round" d="M 12943,11313 L 12943,11163"/>
 <path fill="none" stroke="rgb(0,0,0)" stroke-linejoin="round" d="M 14160,11313 L 14160,11163"/>
 <path fill="none" stroke="rgb(0,0,0)" stroke-linejoin="round" d="M 14160,11313 L 14160,11163"/>
 <path fill="none" stroke="rgb(0,0,0)" stroke-linejoin="round" d="M 773,11163 L 14682,11163"/>
 <path fill="none" stroke="rgb(0,0,0)" stroke-linejoin="round" d="M 623,11163 L 773,11163"/>
 <path fill="none" stroke="rgb(0,0,0)" stroke-linejoin="round" d="M 623,11163 L 773,11163"/>
 <path fill="none" stroke="rgb(0,0,0)" stroke-linejoin="round" d="M 623,8684 L 773,8684"/>
 <path fill="none" stroke="rgb(0,0,0)" stroke-linejoin="round" d="M 623,8684 L 773,8684"/>
 <path fill="none" stroke="rgb(0,0,0)" stroke-linejoin="round" d="M 623,6206 L 773,6206"/>
 <path fill="none" stroke="rgb(0,0,0)" stroke-linejoin="round" d="M 623,6206 L 773,6206"/>
 <path fill="none" stroke="rgb(0,0,0)" stroke-linejoin="round" d="M 623,3728 L 773,3728"/>
 <path fill="none" stroke="rgb(0,0,0)" stroke-linejoin="round" d="M 623,3728 L 773,3728"/>
 <path fill="none" stroke="rgb(0,0,0)" stroke-linejoin="round" d="M 623,1250 L 773,1250"/>
 <path fill="none" stroke="rgb(0,0,0)" stroke-linejoin="round" d="M 623,1250 L 773,1250"/>
 <path fill="none" stroke="rgb(0,0,0)" stroke-linejoin="round" d="M 773,11163 L 773,1250"/>
 <path fill="none" stroke="rgb(0,69,134)" stroke-width="50" stroke-linejoin="round" d="M 3989,11107 L 4163,11163 4337,11135 4511,11107 4685,11080 4859,11163 5032,11052 5206,11163 5380,11163 5554,11163 5728,10942 5902,10859 6076,10722 6250,10942 6423,10308 6597,10391 6771,10198 6945,9867 7119,9592 7293,9179 7467,9399 7640,9344 7813,7636 7987,7057 8161,7305 8335,7167 8509,7277 8683,6093 8857,8628 9031,6396 9204,4165 9378,4385 9552,3834 9726,6451 9900,7608 10074,7691 10248,6478 10422,3311 10595,2484 10769,2925 10943,4496 11117,6093 11291,8132 11465,5818 11639,3421 11813,5239 11986,4909 12160,6230 12334,7305 12508,8132 12682,6671 12856,5598 13030,6396 13204,5846 13377,8572 13551,9124 13725,9978 13899,7333 14073,6616 14247,7773 14421,7112 14595,8324"/>
 <path fill="rgb(0,69,134)" stroke="none" d="M 3889,11007 L 3889,11207 4089,11207 4089,11007 3889,11007 Z"/>
 <path fill="none" stroke="rgb(0,69,134)" stroke-linejoin="round" d="M 3889,11007 L 3889,11207 4089,11207 4089,11007 3889,11007 Z"/>
 <path fill="rgb(0,69,134)" stroke="none" d="M 4063,11063 L 4063,11263 4263,11263 4263,11063 4063,11063 Z"/>
 <path fill="none" stroke="rgb(0,69,134)" stroke-linejoin="round" d="M 4063,11063 L 4063,11263 4263,11263 4263,11063 4063,11063 Z"/>
 <path fill="rgb(0,69,134)" stroke="none" d="M 4237,11035 L 4237,11235 4437,11235 4437,11035 4237,11035 Z"/>
 <path fill="none" stroke="rgb(0,69,134)" stroke-linejoin="round" d="M 4237,11035 L 4237,11235 4437,11235 4437,11035 4237,11035 Z"/>
 <path fill="rgb(0,69,134)" stroke="none" d="M 4411,11007 L 4411,11207 4611,11207 4611,11007 4411,11007 Z"/>
 <path fill="none" stroke="rgb(0,69,134)" stroke-linejoin="round" d="M 4411,11007 L 4411,11207 4611,11207 4611,11007 4411,11007 Z"/>
 <path fill="rgb(0,69,134)" stroke="none" d="M 4585,10980 L 4585,11180 4785,11180 4785,10980 4585,10980 Z"/>
 <path fill="none" stroke="rgb(0,69,134)" stroke-linejoin="round" d="M 4585,10980 L 4585,11180 4785,11180 4785,10980 4585,10980 Z"/>
 <path fill="rgb(0,69,134)" stroke="none" d="M 4759,11063 L 4759,11263 4959,11263 4959,11063 4759,11063 Z"/>
 <path fill="none" stroke="rgb(0,69,134)" stroke-linejoin="round" d="M 4759,11063 L 4759,11263 4959,11263 4959,11063 4759,11063 Z"/>
 <path fill="rgb(0,69,134)" stroke="none" d="M 4932,10952 L 4932,11152 5132,11152 5132,10952 4932,10952 Z"/>
 <path fill="none" stroke="rgb(0,69,134)" stroke-linejoin="round" d="M 4932,10952 L 4932,11152 5132,11152 5132,10952 4932,10952 Z"/>
 <path fill="rgb(0,69,134)" stroke="none" d="M 5106,11063 L 5106,11263 5306,11263 5306,11063 5106,11063 Z"/>
 <path fill="none" stroke="rgb(0,69,134)" stroke-linejoin="round" d="M 5106,11063 L 5106,11263 5306,11263 5306,11063 5106,11063 Z"/>
 <path fill="rgb(0,69,134)" stroke="none" d="M 5280,11063 L 5280,11263 5480,11263 5480,11063 5280,11063 Z"/>
 <path fill="none" stroke="rgb(0,69,134)" stroke-linejoin="round" d="M 5280,11063 L 5280,11263 5480,11263 5480,11063 5280,11063 Z"/>
 <path fill="rgb(0,69,134)" stroke="none" d="M 5454,11063 L 5454,11263 5654,11263 5654,11063 5454,11063 Z"/>
 <path fill="none" stroke="rgb(0,69,134)" stroke-linejoin="round" d="M 5454,11063 L 5454,11263 5654,11263 5654,11063 5454,11063 Z"/>
 <path fill="rgb(0,69,134)" stroke="none" d="M 5628,10842 L 5628,11042 5828,11042 5828,10842 5628,10842 Z"/>
 <path fill="none" stroke="rgb(0,69,134)" stroke-linejoin="round" d="M 5628,10842 L 5628,11042 5828,11042 5828,10842 5628,10842 Z"/>
 <path fill="rgb(0,69,134)" stroke="none" d="M 5802,10759 L 5802,10959 6002,10959 6002,10759 5802,10759 Z"/>
 <path fill="none" stroke="rgb(0,69,134)" stroke-linejoin="round" d="M 5802,10759 L 5802,10959 6002,10959 6002,10759 5802,10759 Z"/>
 <path fill="rgb(0,69,134)" stroke="none" d="M 5976,10622 L 5976,10822 6176,10822 6176,10622 5976,10622 Z"/>
 <path fill="none" stroke="rgb(0,69,134)" stroke-linejoin="round" d="M 5976,10622 L 5976,10822 6176,10822 6176,10622 5976,10622 Z"/>
 <path fill="rgb(0,69,134)" stroke="none" d="M 6150,10842 L 6150,11042 6350,11042 6350,10842 6150,10842 Z"/>
 <path fill="none" stroke="rgb(0,69,134)" stroke-linejoin="round" d="M 6150,10842 L 6150,11042 6350,11042 6350,10842 6150,10842 Z"/>
 <path fill="rgb(0,69,134)" stroke="none" d="M 6323,10208 L 6323,10408 6523,10408 6523,10208 6323,10208 Z"/>
 <path fill="none" stroke="rgb(0,69,134)" stroke-linejoin="round" d="M 6323,10208 L 6323,10408 6523,10408 6523,10208 6323,10208 Z"/>
 <path fill="rgb(0,69,134)" stroke="none" d="M 6497,10291 L 6497,10491 6697,10491 6697,10291 6497,10291 Z"/>
 <path fill="none" stroke="rgb(0,69,134)" stroke-linejoin="round" d="M 6497,10291 L 6497,10491 6697,10491 6697,10291 6497,10291 Z"/>
 <path fill="rgb(0,69,134)" stroke="none" d="M 6671,10098 L 6671,10298 6871,10298 6871,10098 6671,10098 Z"/>
 <path fill="none" stroke="rgb(0,69,134)" stroke-linejoin="round" d="M 6671,10098 L 6671,10298 6871,10298 6871,10098 6671,10098 Z"/>
 <path fill="rgb(0,69,134)" stroke="none" d="M 6845,9767 L 6845,9967 7045,9967 7045,9767 6845,9767 Z"/>
 <path fill="none" stroke="rgb(0,69,134)" stroke-linejoin="round" d="M 6845,9767 L 6845,9967 7045,9967 7045,9767 6845,9767 Z"/>
 <path fill="rgb(0,69,134)" stroke="none" d="M 7019,9492 L 7019,9692 7219,9692 7219,9492 7019,9492 Z"/>
 <path fill="none" stroke="rgb(0,69,134)" stroke-linejoin="round" d="M 7019,9492 L 7019,9692 7219,9692 7219,9492 7019,9492 Z"/>
 <path fill="rgb(0,69,134)" stroke="none" d="M 7193,9079 L 7193,9279 7393,9279 7393,9079 7193,9079 Z"/>
 <path fill="none" stroke="rgb(0,69,134)" stroke-linejoin="round" d="M 7193,9079 L 7193,9279 7393,9279 7393,9079 7193,9079 Z"/>
 <path fill="rgb(0,69,134)" stroke="none" d="M 7367,9299 L 7367,9499 7566,9499 7566,9299 7367,9299 Z"/>
 <path fill="none" stroke="rgb(0,69,134)" stroke-linejoin="round" d="M 7367,9299 L 7367,9499 7566,9499 7566,9299 7367,9299 Z"/>
 <path fill="rgb(0,69,134)" stroke="none" d="M 7540,9244 L 7540,9444 7740,9444 7740,9244 7540,9244 Z"/>
 <path fill="none" stroke="rgb(0,69,134)" stroke-linejoin="round" d="M 7540,9244 L 7540,9444 7740,9444 7740,9244 7540,9244 Z"/>
 <path fill="rgb(0,69,134)" stroke="none" d="M 7713,7536 L 7713,7736 7913,7736 7913,7536 7713,7536 Z"/>
 <path fill="none" stroke="rgb(0,69,134)" stroke-linejoin="round" d="M 7713,7536 L 7713,7736 7913,7736 7913,7536 7713,7536 Z"/>
 <path fill="rgb(0,69,134)" stroke="none" d="M 7887,6957 L 7887,7157 8087,7157 8087,6957 7887,6957 Z"/>
 <path fill="none" stroke="rgb(0,69,134)" stroke-linejoin="round" d="M 7887,6957 L 7887,7157 8087,7157 8087,6957 7887,6957 Z"/>
 <path fill="rgb(0,69,134)" stroke="none" d="M 8061,7205 L 8061,7405 8261,7405 8261,7205 8061,7205 Z"/>
 <path fill="none" stroke="rgb(0,69,134)" stroke-linejoin="round" d="M 8061,7205 L 8061,7405 8261,7405 8261,7205 8061,7205 Z"/>
 <path fill="rgb(0,69,134)" stroke="none" d="M 8235,7067 L 8235,7267 8435,7267 8435,7067 8235,7067 Z"/>
 <path fill="none" stroke="rgb(0,69,134)" stroke-linejoin="round" d="M 8235,7067 L 8235,7267 8435,7267 8435,7067 8235,7067 Z"/>
 <path fill="rgb(0,69,134)" stroke="none" d="M 8409,7177 L 8409,7377 8609,7377 8609,7177 8409,7177 Z"/>
 <path fill="none" stroke="rgb(0,69,134)" stroke-linejoin="round" d="M 8409,7177 L 8409,7377 8609,7377 8609,7177 8409,7177 Z"/>
 <path fill="rgb(0,69,134)" stroke="none" d="M 8583,5994 L 8583,6193 8783,6193 8783,5994 8583,5994 Z"/>
 <path fill="none" stroke="rgb(0,69,134)" stroke-linejoin="round" d="M 8583,5994 L 8583,6193 8783,6193 8783,5994 8583,5994 Z"/>
 <path fill="rgb(0,69,134)" stroke="none" d="M 8757,8528 L 8757,8728 8957,8728 8957,8528 8757,8528 Z"/>
 <path fill="none" stroke="rgb(0,69,134)" stroke-linejoin="round" d="M 8757,8528 L 8757,8728 8957,8728 8957,8528 8757,8528 Z"/>
 <path fill="rgb(0,69,134)" stroke="none" d="M 8931,6296 L 8931,6496 9131,6496 9131,6296 8931,6296 Z"/>
 <path fill="none" stroke="rgb(0,69,134)" stroke-linejoin="round" d="M 8931,6296 L 8931,6496 9131,6496 9131,6296 8931,6296 Z"/>
 <path fill="rgb(0,69,134)" stroke="none" d="M 9104,4065 L 9104,4265 9304,4265 9304,4065 9104,4065 Z"/>
 <path fill="none" stroke="rgb(0,69,134)" stroke-linejoin="round" d="M 9104,4065 L 9104,4265 9304,4265 9304,4065 9104,4065 Z"/>
 <path fill="rgb(0,69,134)" stroke="none" d="M 9278,4285 L 9278,4485 9478,4485 9478,4285 9278,4285 Z"/>
 <path fill="none" stroke="rgb(0,69,134)" stroke-linejoin="round" d="M 9278,4285 L 9278,4485 9478,4485 9478,4285 9278,4285 Z"/>
 <path fill="rgb(0,69,134)" stroke="none" d="M 9452,3734 L 9452,3934 9652,3934 9652,3734 9452,3734 Z"/>
 <path fill="none" stroke="rgb(0,69,134)" stroke-linejoin="round" d="M 9452,3734 L 9452,3934 9652,3934 9652,3734 9452,3734 Z"/>
 <path fill="rgb(0,69,134)" stroke="none" d="M 9626,6351 L 9626,6551 9826,6551 9826,6351 9626,6351 Z"/>
 <path fill="none" stroke="rgb(0,69,134)" stroke-linejoin="round" d="M 9626,6351 L 9626,6551 9826,6551 9826,6351 9626,6351 Z"/>
 <path fill="rgb(0,69,134)" stroke="none" d="M 9800,7508 L 9800,7708 10000,7708 10000,7508 9800,7508 Z"/>
 <path fill="none" stroke="rgb(0,69,134)" stroke-linejoin="round" d="M 9800,7508 L 9800,7708 10000,7708 10000,7508 9800,7508 Z"/>
 <path fill="rgb(0,69,134)" stroke="none" d="M 9974,7591 L 9974,7791 10174,7791 10174,7591 9974,7591 Z"/>
 <path fill="none" stroke="rgb(0,69,134)" stroke-linejoin="round" d="M 9974,7591 L 9974,7791 10174,7791 10174,7591 9974,7591 Z"/>
 <path fill="rgb(0,69,134)" stroke="none" d="M 10148,6378 L 10148,6578 10348,6578 10348,6378 10148,6378 Z"/>
 <path fill="none" stroke="rgb(0,69,134)" stroke-linejoin="round" d="M 10148,6378 L 10148,6578 10348,6578 10348,6378 10148,6378 Z"/>
 <path fill="rgb(0,69,134)" stroke="none" d="M 10322,3211 L 10322,3411 10522,3411 10522,3211 10322,3211 Z"/>
 <path fill="none" stroke="rgb(0,69,134)" stroke-linejoin="round" d="M 10322,3211 L 10322,3411 10522,3411 10522,3211 10322,3211 Z"/>
 <path fill="rgb(0,69,134)" stroke="none" d="M 10495,2384 L 10495,2584 10695,2584 10695,2384 10495,2384 Z"/>
 <path fill="none" stroke="rgb(0,69,134)" stroke-linejoin="round" d="M 10495,2384 L 10495,2584 10695,2584 10695,2384 10495,2384 Z"/>
 <path fill="rgb(0,69,134)" stroke="none" d="M 10669,2825 L 10669,3025 10869,3025 10869,2825 10669,2825 Z"/>
 <path fill="none" stroke="rgb(0,69,134)" stroke-linejoin="round" d="M 10669,2825 L 10669,3025 10869,3025 10869,2825 10669,2825 Z"/>
 <path fill="rgb(0,69,134)" stroke="none" d="M 10843,4396 L 10843,4596 11043,4596 11043,4396 10843,4396 Z"/>
 <path fill="none" stroke="rgb(0,69,134)" stroke-linejoin="round" d="M 10843,4396 L 10843,4596 11043,4596 11043,4396 10843,4396 Z"/>
 <path fill="rgb(0,69,134)" stroke="none" d="M 11017,5994 L 11017,6193 11217,6193 11217,5994 11017,5994 Z"/>
 <path fill="none" stroke="rgb(0,69,134)" stroke-linejoin="round" d="M 11017,5994 L 11017,6193 11217,6193 11217,5994 11017,5994 Z"/>
 <path fill="rgb(0,69,134)" stroke="none" d="M 11191,8032 L 11191,8232 11391,8232 11391,8032 11191,8032 Z"/>
 <path fill="none" stroke="rgb(0,69,134)" stroke-linejoin="round" d="M 11191,8032 L 11191,8232 11391,8232 11391,8032 11191,8032 Z"/>
 <path fill="rgb(0,69,134)" stroke="none" d="M 11365,5718 L 11365,5918 11565,5918 11565,5718 11365,5718 Z"/>
 <path fill="none" stroke="rgb(0,69,134)" stroke-linejoin="round" d="M 11365,5718 L 11365,5918 11565,5918 11565,5718 11365,5718 Z"/>
 <path fill="rgb(0,69,134)" stroke="none" d="M 11539,3321 L 11539,3521 11739,3521 11739,3321 11539,3321 Z"/>
 <path fill="none" stroke="rgb(0,69,134)" stroke-linejoin="round" d="M 11539,3321 L 11539,3521 11739,3521 11739,3321 11539,3321 Z"/>
 <path fill="rgb(0,69,134)" stroke="none" d="M 11713,5139 L 11713,5339 11913,5339 11913,5139 11713,5139 Z"/>
 <path fill="none" stroke="rgb(0,69,134)" stroke-linejoin="round" d="M 11713,5139 L 11713,5339 11913,5339 11913,5139 11713,5139 Z"/>
 <path fill="rgb(0,69,134)" stroke="none" d="M 11886,4809 L 11886,5009 12086,5009 12086,4809 11886,4809 Z"/>
 <path fill="none" stroke="rgb(0,69,134)" stroke-linejoin="round" d="M 11886,4809 L 11886,5009 12086,5009 12086,4809 11886,4809 Z"/>
 <path fill="rgb(0,69,134)" stroke="none" d="M 12060,6130 L 12060,6330 12260,6330 12260,6130 12060,6130 Z"/>
 <path fill="none" stroke="rgb(0,69,134)" stroke-linejoin="round" d="M 12060,6130 L 12060,6330 12260,6330 12260,6130 12060,6130 Z"/>
 <path fill="rgb(0,69,134)" stroke="none" d="M 12234,7205 L 12234,7405 12434,7405 12434,7205 12234,7205 Z"/>
 <path fill="none" stroke="rgb(0,69,134)" stroke-linejoin="round" d="M 12234,7205 L 12234,7405 12434,7405 12434,7205 12234,7205 Z"/>
 <path fill="rgb(0,69,134)" stroke="none" d="M 12408,8032 L 12408,8232 12608,8232 12608,8032 12408,8032 Z"/>
 <path fill="none" stroke="rgb(0,69,134)" stroke-linejoin="round" d="M 12408,8032 L 12408,8232 12608,8232 12608,8032 12408,8032 Z"/>
 <path fill="rgb(0,69,134)" stroke="none" d="M 12582,6571 L 12582,6771 12782,6771 12782,6571 12582,6571 Z"/>
 <path fill="none" stroke="rgb(0,69,134)" stroke-linejoin="round" d="M 12582,6571 L 12582,6771 12782,6771 12782,6571 12582,6571 Z"/>
 <path fill="rgb(0,69,134)" stroke="none" d="M 12756,5498 L 12756,5698 12956,5698 12956,5498 12756,5498 Z"/>
 <path fill="none" stroke="rgb(0,69,134)" stroke-linejoin="round" d="M 12756,5498 L 12756,5698 12956,5698 12956,5498 12756,5498 Z"/>
 <path fill="rgb(0,69,134)" stroke="none" d="M 12930,6296 L 12930,6496 13130,6496 13130,6296 12930,6296 Z"/>
 <path fill="none" stroke="rgb(0,69,134)" stroke-linejoin="round" d="M 12930,6296 L 12930,6496 13130,6496 13130,6296 12930,6296 Z"/>
 <path fill="rgb(0,69,134)" stroke="none" d="M 13104,5746 L 13104,5946 13304,5946 13304,5746 13104,5746 Z"/>
 <path fill="none" stroke="rgb(0,69,134)" stroke-linejoin="round" d="M 13104,5746 L 13104,5946 13304,5946 13304,5746 13104,5746 Z"/>
 <path fill="rgb(0,69,134)" stroke="none" d="M 13277,8472 L 13277,8672 13477,8672 13477,8472 13277,8472 Z"/>
 <path fill="none" stroke="rgb(0,69,134)" stroke-linejoin="round" d="M 13277,8472 L 13277,8672 13477,8672 13477,8472 13277,8472 Z"/>
 <path fill="rgb(0,69,134)" stroke="none" d="M 13451,9024 L 13451,9224 13651,9224 13651,9024 13451,9024 Z"/>
 <path fill="none" stroke="rgb(0,69,134)" stroke-linejoin="round" d="M 13451,9024 L 13451,9224 13651,9224 13651,9024 13451,9024 Z"/>
 <path fill="rgb(0,69,134)" stroke="none" d="M 13625,9878 L 13625,10078 13825,10078 13825,9878 13625,9878 Z"/>
 <path fill="none" stroke="rgb(0,69,134)" stroke-linejoin="round" d="M 13625,9878 L 13625,10078 13825,10078 13825,9878 13625,9878 Z"/>
 <path fill="rgb(0,69,134)" stroke="none" d="M 13799,7233 L 13799,7433 13999,7433 13999,7233 13799,7233 Z"/>
 <path fill="none" stroke="rgb(0,69,134)" stroke-linejoin="round" d="M 13799,7233 L 13799,7433 13999,7433 13999,7233 13799,7233 Z"/>
 <path fill="rgb(0,69,134)" stroke="none" d="M 13973,6516 L 13973,6716 14173,6716 14173,6516 13973,6516 Z"/>
 <path fill="none" stroke="rgb(0,69,134)" stroke-linejoin="round" d="M 13973,6516 L 13973,6716 14173,6716 14173,6516 13973,6516 Z"/>
 <path fill="rgb(0,69,134)" stroke="none" d="M 14147,7673 L 14147,7873 14347,7873 14347,7673 14147,7673 Z"/>
 <path fill="none" stroke="rgb(0,69,134)" stroke-linejoin="round" d="M 14147,7673 L 14147,7873 14347,7873 14347,7673 14147,7673 Z"/>
 <path fill="rgb(0,69,134)" stroke="none" d="M 14321,7012 L 14321,7212 14521,7212 14521,7012 14321,7012 Z"/>
 <path fill="none" stroke="rgb(0,69,134)" stroke-linejoin="round" d="M 14321,7012 L 14321,7212 14521,7212 14521,7012 14321,7012 Z"/>
 <path fill="rgb(0,69,134)" stroke="none" d="M 14495,8224 L 14495,8424 14695,8424 14695,8224 14495,8224 Z"/>
 <path fill="none" stroke="rgb(0,69,134)" stroke-linejoin="round" d="M 14495,8224 L 14495,8424 14695,8424 14695,8224 14495,8224 Z"/>
 <path fill="none" stroke="rgb(255,66,14)" stroke-width="50" stroke-linejoin="round" d="M 4511,10873 L 4685,11163 4859,11163 5032,11163 5206,10583 5380,11163 5554,10873 5728,10583 5902,11163 6076,10583 6250,8843 6423,9713 6597,9133 6771,10293 6945,5944 7119,8553 7293,8263 7467,5944 7640,4784 7813,5364 7987,5944 8161,7683 8335,8263 8509,5944 8683,5944 8857,6523 9031,4494 9204,2464 9378,4784 9552,4204 9726,5944 9900,7393 10074,5944 10248,6523 10422,8553 10595,6233 10769,5074 10943,7683 11117,8553 11291,5944 11465,5074 11639,5654 11813,7683 11986,8843 12160,9423 12334,9423 12508,9133 12682,5364 12856,7973 13030,10003 13204,9713 13377,9133 13551,10583 13725,10583 13899,9423 14073,10583 14247,10873 14421,9713 14595,10873"/>
 <path fill="rgb(255,66,14)" stroke="none" d="M 4411,10873 L 4511,10973 4611,10873 4511,10773 4411,10873 Z"/>
 <path fill="none" stroke="rgb(255,66,14)" stroke-linejoin="round" d="M 4411,10873 L 4511,10973 4611,10873 4511,10773 4411,10873 Z"/>
 <path fill="rgb(255,66,14)" stroke="none" d="M 4585,11163 L 4685,11263 4785,11163 4685,11063 4585,11163 Z"/>
 <path fill="none" stroke="rgb(255,66,14)" stroke-linejoin="round" d="M 4585,11163 L 4685,11263 4785,11163 4685,11063 4585,11163 Z"/>
 <path fill="rgb(255,66,14)" stroke="none" d="M 4759,11163 L 4859,11263 4959,11163 4859,11063 4759,11163 Z"/>
 <path fill="none" stroke="rgb(255,66,14)" stroke-linejoin="round" d="M 4759,11163 L 4859,11263 4959,11163 4859,11063 4759,11163 Z"/>
 <path fill="rgb(255,66,14)" stroke="none" d="M 4932,11163 L 5032,11263 5132,11163 5032,11063 4932,11163 Z"/>
 <path fill="none" stroke="rgb(255,66,14)" stroke-linejoin="round" d="M 4932,11163 L 5032,11263 5132,11163 5032,11063 4932,11163 Z"/>
 <path fill="rgb(255,66,14)" stroke="none" d="M 5106,10583 L 5206,10683 5306,10583 5206,10483 5106,10583 Z"/>
 <path fill="none" stroke="rgb(255,66,14)" stroke-linejoin="round" d="M 5106,10583 L 5206,10683 5306,10583 5206,10483 5106,10583 Z"/>
 <path fill="rgb(255,66,14)" stroke="none" d="M 5280,11163 L 5380,11263 5480,11163 5380,11063 5280,11163 Z"/>
 <path fill="none" stroke="rgb(255,66,14)" stroke-linejoin="round" d="M 5280,11163 L 5380,11263 5480,11163 5380,11063 5280,11163 Z"/>
 <path fill="rgb(255,66,14)" stroke="none" d="M 5454,10873 L 5554,10973 5654,10873 5554,10773 5454,10873 Z"/>
 <path fill="none" stroke="rgb(255,66,14)" stroke-linejoin="round" d="M 5454,10873 L 5554,10973 5654,10873 5554,10773 5454,10873 Z"/>
 <path fill="rgb(255,66,14)" stroke="none" d="M 5628,10583 L 5728,10683 5828,10583 5728,10483 5628,10583 Z"/>
 <path fill="none" stroke="rgb(255,66,14)" stroke-linejoin="round" d="M 5628,10583 L 5728,10683 5828,10583 5728,10483 5628,10583 Z"/>
 <path fill="rgb(255,66,14)" stroke="none" d="M 5802,11163 L 5902,11263 6002,11163 5902,11063 5802,11163 Z"/>
 <path fill="none" stroke="rgb(255,66,14)" stroke-linejoin="round" d="M 5802,11163 L 5902,11263 6002,11163 5902,11063 5802,11163 Z"/>
 <path fill="rgb(255,66,14)" stroke="none" d="M 5976,10583 L 6076,10683 6176,10583 6076,10483 5976,10583 Z"/>
 <path fill="none" stroke="rgb(255,66,14)" stroke-linejoin="round" d="M 5976,10583 L 6076,10683 6176,10583 6076,10483 5976,10583 Z"/>
 <path fill="rgb(255,66,14)" stroke="none" d="M 6150,8843 L 6250,8943 6350,8843 6250,8743 6150,8843 Z"/>
 <path fill="none" stroke="rgb(255,66,14)" stroke-linejoin="round" d="M 6150,8843 L 6250,8943 6350,8843 6250,8743 6150,8843 Z"/>
 <path fill="rgb(255,66,14)" stroke="none" d="M 6323,9713 L 6423,9813 6523,9713 6423,9613 6323,9713 Z"/>
 <path fill="none" stroke="rgb(255,66,14)" stroke-linejoin="round" d="M 6323,9713 L 6423,9813 6523,9713 6423,9613 6323,9713 Z"/>
 <path fill="rgb(255,66,14)" stroke="none" d="M 6497,9133 L 6597,9233 6697,9133 6597,9033 6497,9133 Z"/>
 <path fill="none" stroke="rgb(255,66,14)" stroke-linejoin="round" d="M 6497,9133 L 6597,9233 6697,9133 6597,9033 6497,9133 Z"/>
 <path fill="rgb(255,66,14)" stroke="none" d="M 6671,10293 L 6771,10393 6871,10293 6771,10193 6671,10293 Z"/>
 <path fill="none" stroke="rgb(255,66,14)" stroke-linejoin="round" d="M 6671,10293 L 6771,10393 6871,10293 6771,10193 6671,10293 Z"/>
 <path fill="rgb(255,66,14)" stroke="none" d="M 6845,5944 L 6945,6043 7045,5944 6945,5844 6845,5944 Z"/>
 <path fill="none" stroke="rgb(255,66,14)" stroke-linejoin="round" d="M 6845,5944 L 6945,6043 7045,5944 6945,5844 6845,5944 Z"/>
 <path fill="rgb(255,66,14)" stroke="none" d="M 7019,8553 L 7119,8653 7219,8553 7119,8453 7019,8553 Z"/>
 <path fill="none" stroke="rgb(255,66,14)" stroke-linejoin="round" d="M 7019,8553 L 7119,8653 7219,8553 7119,8453 7019,8553 Z"/>
 <path fill="rgb(255,66,14)" stroke="none" d="M 7193,8263 L 7293,8363 7393,8263 7293,8163 7193,8263 Z"/>
 <path fill="none" stroke="rgb(255,66,14)" stroke-linejoin="round" d="M 7193,8263 L 7293,8363 7393,8263 7293,8163 7193,8263 Z"/>
 <path fill="rgb(255,66,14)" stroke="none" d="M 7367,5944 L 7467,6043 7566,5944 7467,5844 7367,5944 Z"/>
 <path fill="none" stroke="rgb(255,66,14)" stroke-linejoin="round" d="M 7367,5944 L 7467,6043 7566,5944 7467,5844 7367,5944 Z"/>
 <path fill="rgb(255,66,14)" stroke="none" d="M 7540,4784 L 7640,4884 7740,4784 7640,4684 7540,4784 Z"/>
 <path fill="none" stroke="rgb(255,66,14)" stroke-linejoin="round" d="M 7540,4784 L 7640,4884 7740,4784 7640,4684 7540,4784 Z"/>
 <path fill="rgb(255,66,14)" stroke="none" d="M 7713,5364 L 7813,5464 7913,5364 7813,5264 7713,5364 Z"/>
 <path fill="none" stroke="rgb(255,66,14)" stroke-linejoin="round" d="M 7713,5364 L 7813,5464 7913,5364 7813,5264 7713,5364 Z"/>
 <path fill="rgb(255,66,14)" stroke="none" d="M 7887,5944 L 7987,6043 8087,5944 7987,5844 7887,5944 Z"/>
 <path fill="none" stroke="rgb(255,66,14)" stroke-linejoin="round" d="M 7887,5944 L 7987,6043 8087,5944 7987,5844 7887,5944 Z"/>
 <path fill="rgb(255,66,14)" stroke="none" d="M 8061,7683 L 8161,7783 8261,7683 8161,7583 8061,7683 Z"/>
 <path fill="none" stroke="rgb(255,66,14)" stroke-linejoin="round" d="M 8061,7683 L 8161,7783 8261,7683 8161,7583 8061,7683 Z"/>
 <path fill="rgb(255,66,14)" stroke="none" d="M 8235,8263 L 8335,8363 8435,8263 8335,8163 8235,8263 Z"/>
 <path fill="none" stroke="rgb(255,66,14)" stroke-linejoin="round" d="M 8235,8263 L 8335,8363 8435,8263 8335,8163 8235,8263 Z"/>
 <path fill="rgb(255,66,14)" stroke="none" d="M 8409,5944 L 8509,6043 8609,5944 8509,5844 8409,5944 Z"/>
 <path fill="none" stroke="rgb(255,66,14)" stroke-linejoin="round" d="M 8409,5944 L 8509,6043 8609,5944 8509,5844 8409,5944 Z"/>
 <path fill="rgb(255,66,14)" stroke="none" d="M 8583,5944 L 8683,6043 8783,5944 8683,5844 8583,5944 Z"/>
 <path fill="none" stroke="rgb(255,66,14)" stroke-linejoin="round" d="M 8583,5944 L 8683,6043 8783,5944 8683,5844 8583,5944 Z"/>
 <path fill="rgb(255,66,14)" stroke="none" d="M 8757,6523 L 8857,6623 8957,6523 8857,6423 8757,6523 Z"/>
 <path fill="none" stroke="rgb(255,66,14)" stroke-linejoin="round" d="M 8757,6523 L 8857,6623 8957,6523 8857,6423 8757,6523 Z"/>
 <path fill="rgb(255,66,14)" stroke="none" d="M 8931,4494 L 9031,4594 9131,4494 9031,4394 8931,4494 Z"/>
 <path fill="none" stroke="rgb(255,66,14)" stroke-linejoin="round" d="M 8931,4494 L 9031,4594 9131,4494 9031,4394 8931,4494 Z"/>
 <path fill="rgb(255,66,14)" stroke="none" d="M 9104,2464 L 9204,2564 9304,2464 9204,2364 9104,2464 Z"/>
 <path fill="none" stroke="rgb(255,66,14)" stroke-linejoin="round" d="M 9104,2464 L 9204,2564 9304,2464 9204,2364 9104,2464 Z"/>
 <path fill="rgb(255,66,14)" stroke="none" d="M 9278,4784 L 9378,4884 9478,4784 9378,4684 9278,4784 Z"/>
 <path fill="none" stroke="rgb(255,66,14)" stroke-linejoin="round" d="M 9278,4784 L 9378,4884 9478,4784 9378,4684 9278,4784 Z"/>
 <path fill="rgb(255,66,14)" stroke="none" d="M 9452,4204 L 9552,4304 9652,4204 9552,4104 9452,4204 Z"/>
 <path fill="none" stroke="rgb(255,66,14)" stroke-linejoin="round" d="M 9452,4204 L 9552,4304 9652,4204 9552,4104 9452,4204 Z"/>
 <path fill="rgb(255,66,14)" stroke="none" d="M 9626,5944 L 9726,6043 9826,5944 9726,5844 9626,5944 Z"/>
 <path fill="none" stroke="rgb(255,66,14)" stroke-linejoin="round" d="M 9626,5944 L 9726,6043 9826,5944 9726,5844 9626,5944 Z"/>
 <path fill="rgb(255,66,14)" stroke="none" d="M 9800,7393 L 9900,7493 10000,7393 9900,7293 9800,7393 Z"/>
 <path fill="none" stroke="rgb(255,66,14)" stroke-linejoin="round" d="M 9800,7393 L 9900,7493 10000,7393 9900,7293 9800,7393 Z"/>
 <path fill="rgb(255,66,14)" stroke="none" d="M 9974,5944 L 10074,6043 10174,5944 10074,5844 9974,5944 Z"/>
 <path fill="none" stroke="rgb(255,66,14)" stroke-linejoin="round" d="M 9974,5944 L 10074,6043 10174,5944 10074,5844 9974,5944 Z"/>
 <path fill="rgb(255,66,14)" stroke="none" d="M 10148,6523 L 10248,6623 10348,6523 10248,6423 10148,6523 Z"/>
 <path fill="none" stroke="rgb(255,66,14)" stroke-linejoin="round" d="M 10148,6523 L 10248,6623 10348,6523 10248,6423 10148,6523 Z"/>
 <path fill="rgb(255,66,14)" stroke="none" d="M 10322,8553 L 10422,8653 10522,8553 10422,8453 10322,8553 Z"/>
 <path fill="none" stroke="rgb(255,66,14)" stroke-linejoin="round" d="M 10322,8553 L 10422,8653 10522,8553 10422,8453 10322,8553 Z"/>
 <path fill="rgb(255,66,14)" stroke="none" d="M 10495,6233 L 10595,6333 10695,6233 10595,6133 10495,6233 Z"/>
 <path fill="none" stroke="rgb(255,66,14)" stroke-linejoin="round" d="M 10495,6233 L 10595,6333 10695,6233 10595,6133 10495,6233 Z"/>
 <path fill="rgb(255,66,14)" stroke="none" d="M 10669,5074 L 10769,5174 10869,5074 10769,4974 10669,5074 Z"/>
 <path fill="none" stroke="rgb(255,66,14)" stroke-linejoin="round" d="M 10669,5074 L 10769,5174 10869,5074 10769,4974 10669,5074 Z"/>
 <path fill="rgb(255,66,14)" stroke="none" d="M 10843,7683 L 10943,7783 11043,7683 10943,7583 10843,7683 Z"/>
 <path fill="none" stroke="rgb(255,66,14)" stroke-linejoin="round" d="M 10843,7683 L 10943,7783 11043,7683 10943,7583 10843,7683 Z"/>
 <path fill="rgb(255,66,14)" stroke="none" d="M 11017,8553 L 11117,8653 11217,8553 11117,8453 11017,8553 Z"/>
 <path fill="none" stroke="rgb(255,66,14)" stroke-linejoin="round" d="M 11017,8553 L 11117,8653 11217,8553 11117,8453 11017,8553 Z"/>
 <path fill="rgb(255,66,14)" stroke="none" d="M 11191,5944 L 11291,6043 11391,5944 11291,5844 11191,5944 Z"/>
 <path fill="none" stroke="rgb(255,66,14)" stroke-linejoin="round" d="M 11191,5944 L 11291,6043 11391,5944 11291,5844 11191,5944 Z"/>
 <path fill="rgb(255,66,14)" stroke="none" d="M 11365,5074 L 11465,5174 11565,5074 11465,4974 11365,5074 Z"/>
 <path fill="none" stroke="rgb(255,66,14)" stroke-linejoin="round" d="M 11365,5074 L 11465,5174 11565,5074 11465,4974 11365,5074 Z"/>
 <path fill="rgb(255,66,14)" stroke="none" d="M 11539,5654 L 11639,5754 11739,5654 11639,5554 11539,5654 Z"/>
 <path fill="none" stroke="rgb(255,66,14)" stroke-linejoin="round" d="M 11539,5654 L 11639,5754 11739,5654 11639,5554 11539,5654 Z"/>
 <path fill="rgb(255,66,14)" stroke="none" d="M 11713,7683 L 11813,7783 11913,7683 11813,7583 11713,7683 Z"/>
 <path fill="none" stroke="rgb(255,66,14)" stroke-linejoin="round" d="M 11713,7683 L 11813,7783 11913,7683 11813,7583 11713,7683 Z"/>
 <path fill="rgb(255,66,14)" stroke="none" d="M 11886,8843 L 11986,8943 12086,8843 11986,8743 11886,8843 Z"/>
 <path fill="none" stroke="rgb(255,66,14)" stroke-linejoin="round" d="M 11886,8843 L 11986,8943 12086,8843 11986,8743 11886,8843 Z"/>
 <path fill="rgb(255,66,14)" stroke="none" d="M 12060,9423 L 12160,9523 12260,9423 12160,9323 12060,9423 Z"/>
 <path fill="none" stroke="rgb(255,66,14)" stroke-linejoin="round" d="M 12060,9423 L 12160,9523 12260,9423 12160,9323 12060,9423 Z"/>
 <path fill="rgb(255,66,14)" stroke="none" d="M 12234,9423 L 12334,9523 12434,9423 12334,9323 12234,9423 Z"/>
 <path fill="none" stroke="rgb(255,66,14)" stroke-linejoin="round" d="M 12234,9423 L 12334,9523 12434,9423 12334,9323 12234,9423 Z"/>
 <path fill="rgb(255,66,14)" stroke="none" d="M 12408,9133 L 12508,9233 12608,9133 12508,9033 12408,9133 Z"/>
 <path fill="none" stroke="rgb(255,66,14)" stroke-linejoin="round" d="M 12408,9133 L 12508,9233 12608,9133 12508,9033 12408,9133 Z"/>
 <path fill="rgb(255,66,14)" stroke="none" d="M 12582,5364 L 12682,5464 12782,5364 12682,5264 12582,5364 Z"/>
 <path fill="none" stroke="rgb(255,66,14)" stroke-linejoin="round" d="M 12582,5364 L 12682,5464 12782,5364 12682,5264 12582,5364 Z"/>
 <path fill="rgb(255,66,14)" stroke="none" d="M 12756,7973 L 12856,8073 12956,7973 12856,7873 12756,7973 Z"/>
 <path fill="none" stroke="rgb(255,66,14)" stroke-linejoin="round" d="M 12756,7973 L 12856,8073 12956,7973 12856,7873 12756,7973 Z"/>
 <path fill="rgb(255,66,14)" stroke="none" d="M 12930,10003 L 13030,10103 13130,10003 13030,9903 12930,10003 Z"/>
 <path fill="none" stroke="rgb(255,66,14)" stroke-linejoin="round" d="M 12930,10003 L 13030,10103 13130,10003 13030,9903 12930,10003 Z"/>
 <path fill="rgb(255,66,14)" stroke="none" d="M 13104,9713 L 13204,9813 13304,9713 13204,9613 13104,9713 Z"/>
 <path fill="none" stroke="rgb(255,66,14)" stroke-linejoin="round" d="M 13104,9713 L 13204,9813 13304,9713 13204,9613 13104,9713 Z"/>
 <path fill="rgb(255,66,14)" stroke="none" d="M 13277,9133 L 13377,9233 13477,9133 13377,9033 13277,9133 Z"/>
 <path fill="none" stroke="rgb(255,66,14)" stroke-linejoin="round" d="M 13277,9133 L 13377,9233 13477,9133 13377,9033 13277,9133 Z"/>
 <path fill="rgb(255,66,14)" stroke="none" d="M 13451,10583 L 13551,10683 13651,10583 13551,10483 13451,10583 Z"/>
 <path fill="none" stroke="rgb(255,66,14)" stroke-linejoin="round" d="M 13451,10583 L 13551,10683 13651,10583 13551,10483 13451,10583 Z"/>
 <path fill="rgb(255,66,14)" stroke="none" d="M 13625,10583 L 13725,10683 13825,10583 13725,10483 13625,10583 Z"/>
 <path fill="none" stroke="rgb(255,66,14)" stroke-linejoin="round" d="M 13625,10583 L 13725,10683 13825,10583 13725,10483 13625,10583 Z"/>
 <path fill="rgb(255,66,14)" stroke="none" d="M 13799,9423 L 13899,9523 13999,9423 13899,9323 13799,9423 Z"/>
 <path fill="none" stroke="rgb(255,66,14)" stroke-linejoin="round" d="M 13799,9423 L 13899,9523 13999,9423 13899,9323 13799,9423 Z"/>
 <path fill="rgb(255,66,14)" stroke="none" d="M 13973,10583 L 14073,10683 14173,10583 14073,10483 13973,10583 Z"/>
 <path fill="none" stroke="rgb(255,66,14)" stroke-linejoin="round" d="M 13973,10583 L 14073,10683 14173,10583 14073,10483 13973,10583 Z"/>
 <path fill="rgb(255,66,14)" stroke="none" d="M 14147,10873 L 14247,10973 14347,10873 14247,10773 14147,10873 Z"/>
 <path fill="none" stroke="rgb(255,66,14)" stroke-linejoin="round" d="M 14147,10873 L 14247,10973 14347,10873 14247,10773 14147,10873 Z"/>
 <path fill="rgb(255,66,14)" stroke="none" d="M 14321,9713 L 14421,9813 14521,9713 14421,9613 14321,9713 Z"/>
 <path fill="none" stroke="rgb(255,66,14)" stroke-linejoin="round" d="M 14321,9713 L 14421,9813 14521,9713 14421,9613 14321,9713 Z"/>
 <path fill="rgb(255,66,14)" stroke="none" d="M 14495,10873 L 14595,10973 14695,10873 14595,10773 14495,10873 Z"/>
 <path fill="none" stroke="rgb(255,66,14)" stroke-linejoin="round" d="M 14495,10873 L 14595,10973 14695,10873 14595,10773 14495,10873 Z"/>
 <path fill="none" stroke="rgb(255,211,32)" stroke-width="50" stroke-linejoin="round" d="M 4511,10723 L 4685,11163 4859,10723 5032,10284 5206,10723 5380,10723 5554,9844 5728,8966 5902,9405 6076,9844 6250,9844 6423,11163 6597,7648 6771,10284 6945,8087 7119,6329 7293,5452 7467,8087 7640,8966 7813,5452 7987,5012 8161,2815 8335,4134 8509,1497 8683,3255 8857,7648 9031,4134 9204,4573 9378,2815 9552,6769 9726,5452 9900,5452 10074,5891 10248,5012 10422,6769 10595,5891 10769,4573 10943,6769 11117,7208 11291,7208 11465,8526 11639,5012 11813,6769 11986,7208 12160,4573 12334,9405 12508,8966 12682,8087 12856,7208 13030,7208 13204,7648 13377,4573 13551,7208 13725,7208 13899,6769 14073,9844 14247,7648 14421,7648 14595,9405"/>
 <path fill="rgb(255,211,32)" stroke="none" d="M 4411,10623 L 4511,10823 4611,10623 4411,10623 Z"/>
 <path fill="none" stroke="rgb(255,211,32)" stroke-linejoin="round" d="M 4411,10623 L 4511,10823 4611,10623 4411,10623 Z"/>
 <path fill="rgb(255,211,32)" stroke="none" d="M 4585,11063 L 4685,11263 4785,11063 4585,11063 Z"/>
 <path fill="none" stroke="rgb(255,211,32)" stroke-linejoin="round" d="M 4585,11063 L 4685,11263 4785,11063 4585,11063 Z"/>
 <path fill="rgb(255,211,32)" stroke="none" d="M 4759,10623 L 4859,10823 4959,10623 4759,10623 Z"/>
 <path fill="none" stroke="rgb(255,211,32)" stroke-linejoin="round" d="M 4759,10623 L 4859,10823 4959,10623 4759,10623 Z"/>
 <path fill="rgb(255,211,32)" stroke="none" d="M 4932,10184 L 5032,10384 5132,10184 4932,10184 Z"/>
 <path fill="none" stroke="rgb(255,211,32)" stroke-linejoin="round" d="M 4932,10184 L 5032,10384 5132,10184 4932,10184 Z"/>
 <path fill="rgb(255,211,32)" stroke="none" d="M 5106,10623 L 5206,10823 5306,10623 5106,10623 Z"/>
 <path fill="none" stroke="rgb(255,211,32)" stroke-linejoin="round" d="M 5106,10623 L 5206,10823 5306,10623 5106,10623 Z"/>
 <path fill="rgb(255,211,32)" stroke="none" d="M 5280,10623 L 5380,10823 5480,10623 5280,10623 Z"/>
 <path fill="none" stroke="rgb(255,211,32)" stroke-linejoin="round" d="M 5280,10623 L 5380,10823 5480,10623 5280,10623 Z"/>
 <path fill="rgb(255,211,32)" stroke="none" d="M 5454,9744 L 5554,9944 5654,9744 5454,9744 Z"/>
 <path fill="none" stroke="rgb(255,211,32)" stroke-linejoin="round" d="M 5454,9744 L 5554,9944 5654,9744 5454,9744 Z"/>
 <path fill="rgb(255,211,32)" stroke="none" d="M 5628,8866 L 5728,9066 5828,8866 5628,8866 Z"/>
 <path fill="none" stroke="rgb(255,211,32)" stroke-linejoin="round" d="M 5628,8866 L 5728,9066 5828,8866 5628,8866 Z"/>
 <path fill="rgb(255,211,32)" stroke="none" d="M 5802,9305 L 5902,9505 6002,9305 5802,9305 Z"/>
 <path fill="none" stroke="rgb(255,211,32)" stroke-linejoin="round" d="M 5802,9305 L 5902,9505 6002,9305 5802,9305 Z"/>
 <path fill="rgb(255,211,32)" stroke="none" d="M 5976,9744 L 6076,9944 6176,9744 5976,9744 Z"/>
 <path fill="none" stroke="rgb(255,211,32)" stroke-linejoin="round" d="M 5976,9744 L 6076,9944 6176,9744 5976,9744 Z"/>
 <path fill="rgb(255,211,32)" stroke="none" d="M 6150,9744 L 6250,9944 6350,9744 6150,9744 Z"/>
 <path fill="none" stroke="rgb(255,211,32)" stroke-linejoin="round" d="M 6150,9744 L 6250,9944 6350,9744 6150,9744 Z"/>
 <path fill="rgb(255,211,32)" stroke="none" d="M 6323,11063 L 6423,11263 6523,11063 6323,11063 Z"/>
 <path fill="none" stroke="rgb(255,211,32)" stroke-linejoin="round" d="M 6323,11063 L 6423,11263 6523,11063 6323,11063 Z"/>
 <path fill="rgb(255,211,32)" stroke="none" d="M 6497,7548 L 6597,7748 6697,7548 6497,7548 Z"/>
 <path fill="none" stroke="rgb(255,211,32)" stroke-linejoin="round" d="M 6497,7548 L 6597,7748 6697,7548 6497,7548 Z"/>
 <path fill="rgb(255,211,32)" stroke="none" d="M 6671,10184 L 6771,10384 6871,10184 6671,10184 Z"/>
 <path fill="none" stroke="rgb(255,211,32)" stroke-linejoin="round" d="M 6671,10184 L 6771,10384 6871,10184 6671,10184 Z"/>
 <path fill="rgb(255,211,32)" stroke="none" d="M 6845,7987 L 6945,8187 7045,7987 6845,7987 Z"/>
 <path fill="none" stroke="rgb(255,211,32)" stroke-linejoin="round" d="M 6845,7987 L 6945,8187 7045,7987 6845,7987 Z"/>
 <path fill="rgb(255,211,32)" stroke="none" d="M 7019,6229 L 7119,6429 7219,6229 7019,6229 Z"/>
 <path fill="none" stroke="rgb(255,211,32)" stroke-linejoin="round" d="M 7019,6229 L 7119,6429 7219,6229 7019,6229 Z"/>
 <path fill="rgb(255,211,32)" stroke="none" d="M 7193,5352 L 7293,5552 7393,5352 7193,5352 Z"/>
 <path fill="none" stroke="rgb(255,211,32)" stroke-linejoin="round" d="M 7193,5352 L 7293,5552 7393,5352 7193,5352 Z"/>
 <path fill="rgb(255,211,32)" stroke="none" d="M 7367,7987 L 7467,8187 7566,7987 7367,7987 Z"/>
 <path fill="none" stroke="rgb(255,211,32)" stroke-linejoin="round" d="M 7367,7987 L 7467,8187 7566,7987 7367,7987 Z"/>
 <path fill="rgb(255,211,32)" stroke="none" d="M 7540,8866 L 7640,9066 7740,8866 7540,8866 Z"/>
 <path fill="none" stroke="rgb(255,211,32)" stroke-linejoin="round" d="M 7540,8866 L 7640,9066 7740,8866 7540,8866 Z"/>
 <path fill="rgb(255,211,32)" stroke="none" d="M 7713,5352 L 7813,5552 7913,5352 7713,5352 Z"/>
 <path fill="none" stroke="rgb(255,211,32)" stroke-linejoin="round" d="M 7713,5352 L 7813,5552 7913,5352 7713,5352 Z"/>
 <path fill="rgb(255,211,32)" stroke="none" d="M 7887,4912 L 7987,5112 8087,4912 7887,4912 Z"/>
 <path fill="none" stroke="rgb(255,211,32)" stroke-linejoin="round" d="M 7887,4912 L 7987,5112 8087,4912 7887,4912 Z"/>
 <path fill="rgb(255,211,32)" stroke="none" d="M 8061,2715 L 8161,2915 8261,2715 8061,2715 Z"/>
 <path fill="none" stroke="rgb(255,211,32)" stroke-linejoin="round" d="M 8061,2715 L 8161,2915 8261,2715 8061,2715 Z"/>
 <path fill="rgb(255,211,32)" stroke="none" d="M 8235,4034 L 8335,4234 8435,4034 8235,4034 Z"/>
 <path fill="none" stroke="rgb(255,211,32)" stroke-linejoin="round" d="M 8235,4034 L 8335,4234 8435,4034 8235,4034 Z"/>
 <path fill="rgb(255,211,32)" stroke="none" d="M 8409,1397 L 8509,1597 8609,1397 8409,1397 Z"/>
 <path fill="none" stroke="rgb(255,211,32)" stroke-linejoin="round" d="M 8409,1397 L 8509,1597 8609,1397 8409,1397 Z"/>
 <path fill="rgb(255,211,32)" stroke="none" d="M 8583,3155 L 8683,3355 8783,3155 8583,3155 Z"/>
 <path fill="none" stroke="rgb(255,211,32)" stroke-linejoin="round" d="M 8583,3155 L 8683,3355 8783,3155 8583,3155 Z"/>
 <path fill="rgb(255,211,32)" stroke="none" d="M 8757,7548 L 8857,7748 8957,7548 8757,7548 Z"/>
 <path fill="none" stroke="rgb(255,211,32)" stroke-linejoin="round" d="M 8757,7548 L 8857,7748 8957,7548 8757,7548 Z"/>
 <path fill="rgb(255,211,32)" stroke="none" d="M 8931,4034 L 9031,4234 9131,4034 8931,4034 Z"/>
 <path fill="none" stroke="rgb(255,211,32)" stroke-linejoin="round" d="M 8931,4034 L 9031,4234 9131,4034 8931,4034 Z"/>
 <path fill="rgb(255,211,32)" stroke="none" d="M 9104,4473 L 9204,4673 9304,4473 9104,4473 Z"/>
 <path fill="none" stroke="rgb(255,211,32)" stroke-linejoin="round" d="M 9104,4473 L 9204,4673 9304,4473 9104,4473 Z"/>
 <path fill="rgb(255,211,32)" stroke="none" d="M 9278,2715 L 9378,2915 9478,2715 9278,2715 Z"/>
 <path fill="none" stroke="rgb(255,211,32)" stroke-linejoin="round" d="M 9278,2715 L 9378,2915 9478,2715 9278,2715 Z"/>
 <path fill="rgb(255,211,32)" stroke="none" d="M 9452,6669 L 9552,6869 9652,6669 9452,6669 Z"/>
 <path fill="none" stroke="rgb(255,211,32)" stroke-linejoin="round" d="M 9452,6669 L 9552,6869 9652,6669 9452,6669 Z"/>
 <path fill="rgb(255,211,32)" stroke="none" d="M 9626,5352 L 9726,5552 9826,5352 9626,5352 Z"/>
 <path fill="none" stroke="rgb(255,211,32)" stroke-linejoin="round" d="M 9626,5352 L 9726,5552 9826,5352 9626,5352 Z"/>
 <path fill="rgb(255,211,32)" stroke="none" d="M 9800,5352 L 9900,5552 10000,5352 9800,5352 Z"/>
 <path fill="none" stroke="rgb(255,211,32)" stroke-linejoin="round" d="M 9800,5352 L 9900,5552 10000,5352 9800,5352 Z"/>
 <path fill="rgb(255,211,32)" stroke="none" d="M 9974,5791 L 10074,5991 10174,5791 9974,5791 Z"/>
 <path fill="none" stroke="rgb(255,211,32)" stroke-linejoin="round" d="M 9974,5791 L 10074,5991 10174,5791 9974,5791 Z"/>
 <path fill="rgb(255,211,32)" stroke="none" d="M 10148,4912 L 10248,5112 10348,4912 10148,4912 Z"/>
 <path fill="none" stroke="rgb(255,211,32)" stroke-linejoin="round" d="M 10148,4912 L 10248,5112 10348,4912 10148,4912 Z"/>
 <path fill="rgb(255,211,32)" stroke="none" d="M 10322,6669 L 10422,6869 10522,6669 10322,6669 Z"/>
 <path fill="none" stroke="rgb(255,211,32)" stroke-linejoin="round" d="M 10322,6669 L 10422,6869 10522,6669 10322,6669 Z"/>
 <path fill="rgb(255,211,32)" stroke="none" d="M 10495,5791 L 10595,5991 10695,5791 10495,5791 Z"/>
 <path fill="none" stroke="rgb(255,211,32)" stroke-linejoin="round" d="M 10495,5791 L 10595,5991 10695,5791 10495,5791 Z"/>
 <path fill="rgb(255,211,32)" stroke="none" d="M 10669,4473 L 10769,4673 10869,4473 10669,4473 Z"/>
 <path fill="none" stroke="rgb(255,211,32)" stroke-linejoin="round" d="M 10669,4473 L 10769,4673 10869,4473 10669,4473 Z"/>
 <path fill="rgb(255,211,32)" stroke="none" d="M 10843,6669 L 10943,6869 11043,6669 10843,6669 Z"/>
 <path fill="none" stroke="rgb(255,211,32)" stroke-linejoin="round" d="M 10843,6669 L 10943,6869 11043,6669 10843,6669 Z"/>
 <path fill="rgb(255,211,32)" stroke="none" d="M 11017,7108 L 11117,7308 11217,7108 11017,7108 Z"/>
 <path fill="none" stroke="rgb(255,211,32)" stroke-linejoin="round" d="M 11017,7108 L 11117,7308 11217,7108 11017,7108 Z"/>
 <path fill="rgb(255,211,32)" stroke="none" d="M 11191,7108 L 11291,7308 11391,7108 11191,7108 Z"/>
 <path fill="none" stroke="rgb(255,211,32)" stroke-linejoin="round" d="M 11191,7108 L 11291,7308 11391,7108 11191,7108 Z"/>
 <path fill="rgb(255,211,32)" stroke="none" d="M 11365,8426 L 11465,8626 11565,8426 11365,8426 Z"/>
 <path fill="none" stroke="rgb(255,211,32)" stroke-linejoin="round" d="M 11365,8426 L 11465,8626 11565,8426 11365,8426 Z"/>
 <path fill="rgb(255,211,32)" stroke="none" d="M 11539,4912 L 11639,5112 11739,4912 11539,4912 Z"/>
 <path fill="none" stroke="rgb(255,211,32)" stroke-linejoin="round" d="M 11539,4912 L 11639,5112 11739,4912 11539,4912 Z"/>
 <path fill="rgb(255,211,32)" stroke="none" d="M 11713,6669 L 11813,6869 11913,6669 11713,6669 Z"/>
 <path fill="none" stroke="rgb(255,211,32)" stroke-linejoin="round" d="M 11713,6669 L 11813,6869 11913,6669 11713,6669 Z"/>
 <path fill="rgb(255,211,32)" stroke="none" d="M 11886,7108 L 11986,7308 12086,7108 11886,7108 Z"/>
 <path fill="none" stroke="rgb(255,211,32)" stroke-linejoin="round" d="M 11886,7108 L 11986,7308 12086,7108 11886,7108 Z"/>
 <path fill="rgb(255,211,32)" stroke="none" d="M 12060,4473 L 12160,4673 12260,4473 12060,4473 Z"/>
 <path fill="none" stroke="rgb(255,211,32)" stroke-linejoin="round" d="M 12060,4473 L 12160,4673 12260,4473 12060,4473 Z"/>
 <path fill="rgb(255,211,32)" stroke="none" d="M 12234,9305 L 12334,9505 12434,9305 12234,9305 Z"/>
 <path fill="none" stroke="rgb(255,211,32)" stroke-linejoin="round" d="M 12234,9305 L 12334,9505 12434,9305 12234,9305 Z"/>
 <path fill="rgb(255,211,32)" stroke="none" d="M 12408,8866 L 12508,9066 12608,8866 12408,8866 Z"/>
 <path fill="none" stroke="rgb(255,211,32)" stroke-linejoin="round" d="M 12408,8866 L 12508,9066 12608,8866 12408,8866 Z"/>
 <path fill="rgb(255,211,32)" stroke="none" d="M 12582,7987 L 12682,8187 12782,7987 12582,7987 Z"/>
 <path fill="none" stroke="rgb(255,211,32)" stroke-linejoin="round" d="M 12582,7987 L 12682,8187 12782,7987 12582,7987 Z"/>
 <path fill="rgb(255,211,32)" stroke="none" d="M 12756,7108 L 12856,7308 12956,7108 12756,7108 Z"/>
 <path fill="none" stroke="rgb(255,211,32)" stroke-linejoin="round" d="M 12756,7108 L 12856,7308 12956,7108 12756,7108 Z"/>
 <path fill="rgb(255,211,32)" stroke="none" d="M 12930,7108 L 13030,7308 13130,7108 12930,7108 Z"/>
 <path fill="none" stroke="rgb(255,211,32)" stroke-linejoin="round" d="M 12930,7108 L 13030,7308 13130,7108 12930,7108 Z"/>
 <path fill="rgb(255,211,32)" stroke="none" d="M 13104,7548 L 13204,7748 13304,7548 13104,7548 Z"/>
 <path fill="none" stroke="rgb(255,211,32)" stroke-linejoin="round" d="M 13104,7548 L 13204,7748 13304,7548 13104,7548 Z"/>
 <path fill="rgb(255,211,32)" stroke="none" d="M 13277,4473 L 13377,4673 13477,4473 13277,4473 Z"/>
 <path fill="none" stroke="rgb(255,211,32)" stroke-linejoin="round" d="M 13277,4473 L 13377,4673 13477,4473 13277,4473 Z"/>
 <path fill="rgb(255,211,32)" stroke="none" d="M 13451,7108 L 13551,7308 13651,7108 13451,7108 Z"/>
 <path fill="none" stroke="rgb(255,211,32)" stroke-linejoin="round" d="M 13451,7108 L 13551,7308 13651,7108 13451,7108 Z"/>
 <path fill="rgb(255,211,32)" stroke="none" d="M 13625,7108 L 13725,7308 13825,7108 13625,7108 Z"/>
 <path fill="none" stroke="rgb(255,211,32)" stroke-linejoin="round" d="M 13625,7108 L 13725,7308 13825,7108 13625,7108 Z"/>
 <path fill="rgb(255,211,32)" stroke="none" d="M 13799,6669 L 13899,6869 13999,6669 13799,6669 Z"/>
 <path fill="none" stroke="rgb(255,211,32)" stroke-linejoin="round" d="M 13799,6669 L 13899,6869 13999,6669 13799,6669 Z"/>
 <path fill="rgb(255,211,32)" stroke="none" d="M 13973,9744 L 14073,9944 14173,9744 13973,9744 Z"/>
 <path fill="none" stroke="rgb(255,211,32)" stroke-linejoin="round" d="M 13973,9744 L 14073,9944 14173,9744 13973,9744 Z"/>
 <path fill="rgb(255,211,32)" stroke="none" d="M 14147,7548 L 14247,7748 14347,7548 14147,7548 Z"/>
 <path fill="none" stroke="rgb(255,211,32)" stroke-linejoin="round" d="M 14147,7548 L 14247,7748 14347,7548 14147,7548 Z"/>
 <path fill="rgb(255,211,32)" stroke="none" d="M 14321,7548 L 14421,7748 14521,7548 14321,7548 Z"/>
 <path fill="none" stroke="rgb(255,211,32)" stroke-linejoin="round" d="M 14321,7548 L 14421,7748 14521,7548 14321,7548 Z"/>
 <path fill="rgb(255,211,32)" stroke="none" d="M 14495,9305 L 14595,9505 14695,9305 14495,9305 Z"/>
 <path fill="none" stroke="rgb(255,211,32)" stroke-linejoin="round" d="M 14495,9305 L 14595,9505 14695,9305 14495,9305 Z"/>
 <path fill="none" stroke="rgb(87,157,28)" stroke-width="50" stroke-linejoin="round" d="M 4511,10617 L 4685,11163 4859,10071 5032,11163 5206,11163 5380,11163 5554,9525 5728,11163 5902,10617 6076,11163 6250,11163 6423,9525 6597,10071 6771,10071 6945,11163 7119,8433 7293,9525 7467,8979 7640,7887 7813,7341 7987,8433 8161,7887 8335,6249 8509,9525 8683,6249 8857,8433 9031,4066 9204,4612 9378,7341 9552,8433 9726,7887 9900,6249 10074,7887 10248,2974 10422,10617 10595,10071 10769,6795 10943,8979 11117,10617 11291,2428 11465,10617 11639,8433 11813,7341 11986,8433 12160,10071 12334,11163 12508,8979 12682,10617 12856,10617 13030,9525 13204,11163 13377,10617 13551,11163 13725,9525 13899,10617 14073,10617 14247,10617 14421,10617"/>
 <path fill="rgb(87,157,28)" stroke="none" d="M 4411,10717 L 4611,10717 4511,10517 4411,10717 Z"/>
 <path fill="none" stroke="rgb(87,157,28)" stroke-linejoin="round" d="M 4411,10717 L 4611,10717 4511,10517 4411,10717 Z"/>
 <path fill="rgb(87,157,28)" stroke="none" d="M 4585,11263 L 4785,11263 4685,11063 4585,11263 Z"/>
 <path fill="none" stroke="rgb(87,157,28)" stroke-linejoin="round" d="M 4585,11263 L 4785,11263 4685,11063 4585,11263 Z"/>
 <path fill="rgb(87,157,28)" stroke="none" d="M 4759,10171 L 4959,10171 4859,9971 4759,10171 Z"/>
 <path fill="none" stroke="rgb(87,157,28)" stroke-linejoin="round" d="M 4759,10171 L 4959,10171 4859,9971 4759,10171 Z"/>
 <path fill="rgb(87,157,28)" stroke="none" d="M 4932,11263 L 5132,11263 5032,11063 4932,11263 Z"/>
 <path fill="none" stroke="rgb(87,157,28)" stroke-linejoin="round" d="M 4932,11263 L 5132,11263 5032,11063 4932,11263 Z"/>
 <path fill="rgb(87,157,28)" stroke="none" d="M 5106,11263 L 5306,11263 5206,11063 5106,11263 Z"/>
 <path fill="none" stroke="rgb(87,157,28)" stroke-linejoin="round" d="M 5106,11263 L 5306,11263 5206,11063 5106,11263 Z"/>
 <path fill="rgb(87,157,28)" stroke="none" d="M 5280,11263 L 5480,11263 5380,11063 5280,11263 Z"/>
 <path fill="none" stroke="rgb(87,157,28)" stroke-linejoin="round" d="M 5280,11263 L 5480,11263 5380,11063 5280,11263 Z"/>
 <path fill="rgb(87,157,28)" stroke="none" d="M 5454,9625 L 5654,9625 5554,9425 5454,9625 Z"/>
 <path fill="none" stroke="rgb(87,157,28)" stroke-linejoin="round" d="M 5454,9625 L 5654,9625 5554,9425 5454,9625 Z"/>
 <path fill="rgb(87,157,28)" stroke="none" d="M 5628,11263 L 5828,11263 5728,11063 5628,11263 Z"/>
 <path fill="none" stroke="rgb(87,157,28)" stroke-linejoin="round" d="M 5628,11263 L 5828,11263 5728,11063 5628,11263 Z"/>
 <path fill="rgb(87,157,28)" stroke="none" d="M 5802,10717 L 6002,10717 5902,10517 5802,10717 Z"/>
 <path fill="none" stroke="rgb(87,157,28)" stroke-linejoin="round" d="M 5802,10717 L 6002,10717 5902,10517 5802,10717 Z"/>
 <path fill="rgb(87,157,28)" stroke="none" d="M 5976,11263 L 6176,11263 6076,11063 5976,11263 Z"/>
 <path fill="none" stroke="rgb(87,157,28)" stroke-linejoin="round" d="M 5976,11263 L 6176,11263 6076,11063 5976,11263 Z"/>
 <path fill="rgb(87,157,28)" stroke="none" d="M 6150,11263 L 6350,11263 6250,11063 6150,11263 Z"/>
 <path fill="none" stroke="rgb(87,157,28)" stroke-linejoin="round" d="M 6150,11263 L 6350,11263 6250,11063 6150,11263 Z"/>
 <path fill="rgb(87,157,28)" stroke="none" d="M 6323,9625 L 6523,9625 6423,9425 6323,9625 Z"/>
 <path fill="none" stroke="rgb(87,157,28)" stroke-linejoin="round" d="M 6323,9625 L 6523,9625 6423,9425 6323,9625 Z"/>
 <path fill="rgb(87,157,28)" stroke="none" d="M 6497,10171 L 6697,10171 6597,9971 6497,10171 Z"/>
 <path fill="none" stroke="rgb(87,157,28)" stroke-linejoin="round" d="M 6497,10171 L 6697,10171 6597,9971 6497,10171 Z"/>
 <path fill="rgb(87,157,28)" stroke="none" d="M 6671,10171 L 6871,10171 6771,9971 6671,10171 Z"/>
 <path fill="none" stroke="rgb(87,157,28)" stroke-linejoin="round" d="M 6671,10171 L 6871,10171 6771,9971 6671,10171 Z"/>
 <path fill="rgb(87,157,28)" stroke="none" d="M 6845,11263 L 7045,11263 6945,11063 6845,11263 Z"/>
 <path fill="none" stroke="rgb(87,157,28)" stroke-linejoin="round" d="M 6845,11263 L 7045,11263 6945,11063 6845,11263 Z"/>
 <path fill="rgb(87,157,28)" stroke="none" d="M 7019,8533 L 7219,8533 7119,8333 7019,8533 Z"/>
 <path fill="none" stroke="rgb(87,157,28)" stroke-linejoin="round" d="M 7019,8533 L 7219,8533 7119,8333 7019,8533 Z"/>
 <path fill="rgb(87,157,28)" stroke="none" d="M 7193,9625 L 7393,9625 7293,9425 7193,9625 Z"/>
 <path fill="none" stroke="rgb(87,157,28)" stroke-linejoin="round" d="M 7193,9625 L 7393,9625 7293,9425 7193,9625 Z"/>
 <path fill="rgb(87,157,28)" stroke="none" d="M 7367,9079 L 7566,9079 7467,8879 7367,9079 Z"/>
 <path fill="none" stroke="rgb(87,157,28)" stroke-linejoin="round" d="M 7367,9079 L 7566,9079 7467,8879 7367,9079 Z"/>
 <path fill="rgb(87,157,28)" stroke="none" d="M 7540,7987 L 7740,7987 7640,7787 7540,7987 Z"/>
 <path fill="none" stroke="rgb(87,157,28)" stroke-linejoin="round" d="M 7540,7987 L 7740,7987 7640,7787 7540,7987 Z"/>
 <path fill="rgb(87,157,28)" stroke="none" d="M 7713,7441 L 7913,7441 7813,7241 7713,7441 Z"/>
 <path fill="none" stroke="rgb(87,157,28)" stroke-linejoin="round" d="M 7713,7441 L 7913,7441 7813,7241 7713,7441 Z"/>
 <path fill="rgb(87,157,28)" stroke="none" d="M 7887,8533 L 8087,8533 7987,8333 7887,8533 Z"/>
 <path fill="none" stroke="rgb(87,157,28)" stroke-linejoin="round" d="M 7887,8533 L 8087,8533 7987,8333 7887,8533 Z"/>
 <path fill="rgb(87,157,28)" stroke="none" d="M 8061,7987 L 8261,7987 8161,7787 8061,7987 Z"/>
 <path fill="none" stroke="rgb(87,157,28)" stroke-linejoin="round" d="M 8061,7987 L 8261,7987 8161,7787 8061,7987 Z"/>
 <path fill="rgb(87,157,28)" stroke="none" d="M 8235,6349 L 8435,6349 8335,6149 8235,6349 Z"/>
 <path fill="none" stroke="rgb(87,157,28)" stroke-linejoin="round" d="M 8235,6349 L 8435,6349 8335,6149 8235,6349 Z"/>
 <path fill="rgb(87,157,28)" stroke="none" d="M 8409,9625 L 8609,9625 8509,9425 8409,9625 Z"/>
 <path fill="none" stroke="rgb(87,157,28)" stroke-linejoin="round" d="M 8409,9625 L 8609,9625 8509,9425 8409,9625 Z"/>
 <path fill="rgb(87,157,28)" stroke="none" d="M 8583,6349 L 8783,6349 8683,6149 8583,6349 Z"/>
 <path fill="none" stroke="rgb(87,157,28)" stroke-linejoin="round" d="M 8583,6349 L 8783,6349 8683,6149 8583,6349 Z"/>
 <path fill="rgb(87,157,28)" stroke="none" d="M 8757,8533 L 8957,8533 8857,8333 8757,8533 Z"/>
 <path fill="none" stroke="rgb(87,157,28)" stroke-linejoin="round" d="M 8757,8533 L 8957,8533 8857,8333 8757,8533 Z"/>
 <path fill="rgb(87,157,28)" stroke="none" d="M 8931,4166 L 9131,4166 9031,3966 8931,4166 Z"/>
 <path fill="none" stroke="rgb(87,157,28)" stroke-linejoin="round" d="M 8931,4166 L 9131,4166 9031,3966 8931,4166 Z"/>
 <path fill="rgb(87,157,28)" stroke="none" d="M 9104,4712 L 9304,4712 9204,4512 9104,4712 Z"/>
 <path fill="none" stroke="rgb(87,157,28)" stroke-linejoin="round" d="M 9104,4712 L 9304,4712 9204,4512 9104,4712 Z"/>
 <path fill="rgb(87,157,28)" stroke="none" d="M 9278,7441 L 9478,7441 9378,7241 9278,7441 Z"/>
 <path fill="none" stroke="rgb(87,157,28)" stroke-linejoin="round" d="M 9278,7441 L 9478,7441 9378,7241 9278,7441 Z"/>
 <path fill="rgb(87,157,28)" stroke="none" d="M 9452,8533 L 9652,8533 9552,8333 9452,8533 Z"/>
 <path fill="none" stroke="rgb(87,157,28)" stroke-linejoin="round" d="M 9452,8533 L 9652,8533 9552,8333 9452,8533 Z"/>
 <path fill="rgb(87,157,28)" stroke="none" d="M 9626,7987 L 9826,7987 9726,7787 9626,7987 Z"/>
 <path fill="none" stroke="rgb(87,157,28)" stroke-linejoin="round" d="M 9626,7987 L 9826,7987 9726,7787 9626,7987 Z"/>
 <path fill="rgb(87,157,28)" stroke="none" d="M 9800,6349 L 10000,6349 9900,6149 9800,6349 Z"/>
 <path fill="none" stroke="rgb(87,157,28)" stroke-linejoin="round" d="M 9800,6349 L 10000,6349 9900,6149 9800,6349 Z"/>
 <path fill="rgb(87,157,28)" stroke="none" d="M 9974,7987 L 10174,7987 10074,7787 9974,7987 Z"/>
 <path fill="none" stroke="rgb(87,157,28)" stroke-linejoin="round" d="M 9974,7987 L 10174,7987 10074,7787 9974,7987 Z"/>
 <path fill="rgb(87,157,28)" stroke="none" d="M 10148,3074 L 10348,3074 10248,2874 10148,3074 Z"/>
 <path fill="none" stroke="rgb(87,157,28)" stroke-linejoin="round" d="M 10148,3074 L 10348,3074 10248,2874 10148,3074 Z"/>
 <path fill="rgb(87,157,28)" stroke="none" d="M 10322,10717 L 10522,10717 10422,10517 10322,10717 Z"/>
 <path fill="none" stroke="rgb(87,157,28)" stroke-linejoin="round" d="M 10322,10717 L 10522,10717 10422,10517 10322,10717 Z"/>
 <path fill="rgb(87,157,28)" stroke="none" d="M 10495,10171 L 10695,10171 10595,9971 10495,10171 Z"/>
 <path fill="none" stroke="rgb(87,157,28)" stroke-linejoin="round" d="M 10495,10171 L 10695,10171 10595,9971 10495,10171 Z"/>
 <path fill="rgb(87,157,28)" stroke="none" d="M 10669,6895 L 10869,6895 10769,6695 10669,6895 Z"/>
 <path fill="none" stroke="rgb(87,157,28)" stroke-linejoin="round" d="M 10669,6895 L 10869,6895 10769,6695 10669,6895 Z"/>
 <path fill="rgb(87,157,28)" stroke="none" d="M 10843,9079 L 11043,9079 10943,8879 10843,9079 Z"/>
 <path fill="none" stroke="rgb(87,157,28)" stroke-linejoin="round" d="M 10843,9079 L 11043,9079 10943,8879 10843,9079 Z"/>
 <path fill="rgb(87,157,28)" stroke="none" d="M 11017,10717 L 11217,10717 11117,10517 11017,10717 Z"/>
 <path fill="none" stroke="rgb(87,157,28)" stroke-linejoin="round" d="M 11017,10717 L 11217,10717 11117,10517 11017,10717 Z"/>
 <path fill="rgb(87,157,28)" stroke="none" d="M 11191,2528 L 11391,2528 11291,2328 11191,2528 Z"/>
 <path fill="none" stroke="rgb(87,157,28)" stroke-linejoin="round" d="M 11191,2528 L 11391,2528 11291,2328 11191,2528 Z"/>
 <path fill="rgb(87,157,28)" stroke="none" d="M 11365,10717 L 11565,10717 11465,10517 11365,10717 Z"/>
 <path fill="none" stroke="rgb(87,157,28)" stroke-linejoin="round" d="M 11365,10717 L 11565,10717 11465,10517 11365,10717 Z"/>
 <path fill="rgb(87,157,28)" stroke="none" d="M 11539,8533 L 11739,8533 11639,8333 11539,8533 Z"/>
 <path fill="none" stroke="rgb(87,157,28)" stroke-linejoin="round" d="M 11539,8533 L 11739,8533 11639,8333 11539,8533 Z"/>
 <path fill="rgb(87,157,28)" stroke="none" d="M 11713,7441 L 11913,7441 11813,7241 11713,7441 Z"/>
 <path fill="none" stroke="rgb(87,157,28)" stroke-linejoin="round" d="M 11713,7441 L 11913,7441 11813,7241 11713,7441 Z"/>
 <path fill="rgb(87,157,28)" stroke="none" d="M 11886,8533 L 12086,8533 11986,8333 11886,8533 Z"/>
 <path fill="none" stroke="rgb(87,157,28)" stroke-linejoin="round" d="M 11886,8533 L 12086,8533 11986,8333 11886,8533 Z"/>
 <path fill="rgb(87,157,28)" stroke="none" d="M 12060,10171 L 12260,10171 12160,9971 12060,10171 Z"/>
 <path fill="none" stroke="rgb(87,157,28)" stroke-linejoin="round" d="M 12060,10171 L 12260,10171 12160,9971 12060,10171 Z"/>
 <path fill="rgb(87,157,28)" stroke="none" d="M 12234,11263 L 12434,11263 12334,11063 12234,11263 Z"/>
 <path fill="none" stroke="rgb(87,157,28)" stroke-linejoin="round" d="M 12234,11263 L 12434,11263 12334,11063 12234,11263 Z"/>
 <path fill="rgb(87,157,28)" stroke="none" d="M 12408,9079 L 12608,9079 12508,8879 12408,9079 Z"/>
 <path fill="none" stroke="rgb(87,157,28)" stroke-linejoin="round" d="M 12408,9079 L 12608,9079 12508,8879 12408,9079 Z"/>
 <path fill="rgb(87,157,28)" stroke="none" d="M 12582,10717 L 12782,10717 12682,10517 12582,10717 Z"/>
 <path fill="none" stroke="rgb(87,157,28)" stroke-linejoin="round" d="M 12582,10717 L 12782,10717 12682,10517 12582,10717 Z"/>
 <path fill="rgb(87,157,28)" stroke="none" d="M 12756,10717 L 12956,10717 12856,10517 12756,10717 Z"/>
 <path fill="none" stroke="rgb(87,157,28)" stroke-linejoin="round" d="M 12756,10717 L 12956,10717 12856,10517 12756,10717 Z"/>
 <path fill="rgb(87,157,28)" stroke="none" d="M 12930,9625 L 13130,9625 13030,9425 12930,9625 Z"/>
 <path fill="none" stroke="rgb(87,157,28)" stroke-linejoin="round" d="M 12930,9625 L 13130,9625 13030,9425 12930,9625 Z"/>
 <path fill="rgb(87,157,28)" stroke="none" d="M 13104,11263 L 13304,11263 13204,11063 13104,11263 Z"/>
 <path fill="none" stroke="rgb(87,157,28)" stroke-linejoin="round" d="M 13104,11263 L 13304,11263 13204,11063 13104,11263 Z"/>
 <path fill="rgb(87,157,28)" stroke="none" d="M 13277,10717 L 13477,10717 13377,10517 13277,10717 Z"/>
 <path fill="none" stroke="rgb(87,157,28)" stroke-linejoin="round" d="M 13277,10717 L 13477,10717 13377,10517 13277,10717 Z"/>
 <path fill="rgb(87,157,28)" stroke="none" d="M 13451,11263 L 13651,11263 13551,11063 13451,11263 Z"/>
 <path fill="none" stroke="rgb(87,157,28)" stroke-linejoin="round" d="M 13451,11263 L 13651,11263 13551,11063 13451,11263 Z"/>
 <path fill="rgb(87,157,28)" stroke="none" d="M 13625,9625 L 13825,9625 13725,9425 13625,9625 Z"/>
 <path fill="none" stroke="rgb(87,157,28)" stroke-linejoin="round" d="M 13625,9625 L 13825,9625 13725,9425 13625,9625 Z"/>
 <path fill="rgb(87,157,28)" stroke="none" d="M 13799,10717 L 13999,10717 13899,10517 13799,10717 Z"/>
 <path fill="none" stroke="rgb(87,157,28)" stroke-linejoin="round" d="M 13799,10717 L 13999,10717 13899,10517 13799,10717 Z"/>
 <path fill="rgb(87,157,28)" stroke="none" d="M 13973,10717 L 14173,10717 14073,10517 13973,10717 Z"/>
 <path fill="none" stroke="rgb(87,157,28)" stroke-linejoin="round" d="M 13973,10717 L 14173,10717 14073,10517 13973,10717 Z"/>
 <path fill="rgb(87,157,28)" stroke="none" d="M 14147,10717 L 14347,10717 14247,10517 14147,10717 Z"/>
 <path fill="none" stroke="rgb(87,157,28)" stroke-linejoin="round" d="M 14147,10717 L 14347,10717 14247,10517 14147,10717 Z"/>
 <path fill="rgb(87,157,28)" stroke="none" d="M 14321,10717 L 14521,10717 14421,10517 14321,10717 Z"/>
 <path fill="none" stroke="rgb(87,157,28)" stroke-linejoin="round" d="M 14321,10717 L 14521,10717 14421,10517 14321,10717 Z"/>
 <path fill="none" stroke="rgb(126,0,33)" stroke-width="50" stroke-linejoin="round" d="M 5206,10926 L 5380,11163 5554,10926 5728,10926 5902,10454 6076,9745 6250,10690 6423,9036 6597,8800 6771,8800 6945,7146 7119,7382 7293,5493 7467,6673 7640,6201 7813,6437 7987,4784 8161,5966 8335,2422 8509,6437 8683,4312 8857,7382 9031,3130 9204,2894 9378,4312 9552,5020 9726,2894 9900,3130 10074,3839 10248,3603 10422,3603 10595,4075 10769,4548 10943,4075 11117,4784 11291,6201 11465,4784 11639,5729 11813,2894 11986,3130 12160,5020 12334,5729 12508,5257 12682,6437 12856,5257 13030,7382 13204,6910 13377,7382 13551,6437 13725,6437 13899,8564 14073,7618 14247,7382 14421,9036 14595,8327"/>
 <path fill="rgb(126,0,33)" stroke="none" d="M 5106,10826 L 5106,11026 5306,10926 5106,10826 Z"/>
 <path fill="none" stroke="rgb(126,0,33)" stroke-linejoin="round" d="M 5106,10826 L 5106,11026 5306,10926 5106,10826 Z"/>
 <path fill="rgb(126,0,33)" stroke="none" d="M 5280,11063 L 5280,11263 5480,11163 5280,11063 Z"/>
 <path fill="none" stroke="rgb(126,0,33)" stroke-linejoin="round" d="M 5280,11063 L 5280,11263 5480,11163 5280,11063 Z"/>
 <path fill="rgb(126,0,33)" stroke="none" d="M 5454,10826 L 5454,11026 5654,10926 5454,10826 Z"/>
 <path fill="none" stroke="rgb(126,0,33)" stroke-linejoin="round" d="M 5454,10826 L 5454,11026 5654,10926 5454,10826 Z"/>
 <path fill="rgb(126,0,33)" stroke="none" d="M 5628,10826 L 5628,11026 5828,10926 5628,10826 Z"/>
 <path fill="none" stroke="rgb(126,0,33)" stroke-linejoin="round" d="M 5628,10826 L 5628,11026 5828,10926 5628,10826 Z"/>
 <path fill="rgb(126,0,33)" stroke="none" d="M 5802,10354 L 5802,10554 6002,10454 5802,10354 Z"/>
 <path fill="none" stroke="rgb(126,0,33)" stroke-linejoin="round" d="M 5802,10354 L 5802,10554 6002,10454 5802,10354 Z"/>
 <path fill="rgb(126,0,33)" stroke="none" d="M 5976,9645 L 5976,9845 6176,9745 5976,9645 Z"/>
 <path fill="none" stroke="rgb(126,0,33)" stroke-linejoin="round" d="M 5976,9645 L 5976,9845 6176,9745 5976,9645 Z"/>
 <path fill="rgb(126,0,33)" stroke="none" d="M 6150,10590 L 6150,10790 6350,10690 6150,10590 Z"/>
 <path fill="none" stroke="rgb(126,0,33)" stroke-linejoin="round" d="M 6150,10590 L 6150,10790 6350,10690 6150,10590 Z"/>
 <path fill="rgb(126,0,33)" stroke="none" d="M 6323,8936 L 6323,9136 6523,9036 6323,8936 Z"/>
 <path fill="none" stroke="rgb(126,0,33)" stroke-linejoin="round" d="M 6323,8936 L 6323,9136 6523,9036 6323,8936 Z"/>
 <path fill="rgb(126,0,33)" stroke="none" d="M 6497,8700 L 6497,8900 6697,8800 6497,8700 Z"/>
 <path fill="none" stroke="rgb(126,0,33)" stroke-linejoin="round" d="M 6497,8700 L 6497,8900 6697,8800 6497,8700 Z"/>
 <path fill="rgb(126,0,33)" stroke="none" d="M 6671,8700 L 6671,8900 6871,8800 6671,8700 Z"/>
 <path fill="none" stroke="rgb(126,0,33)" stroke-linejoin="round" d="M 6671,8700 L 6671,8900 6871,8800 6671,8700 Z"/>
 <path fill="rgb(126,0,33)" stroke="none" d="M 6845,7046 L 6845,7246 7045,7146 6845,7046 Z"/>
 <path fill="none" stroke="rgb(126,0,33)" stroke-linejoin="round" d="M 6845,7046 L 6845,7246 7045,7146 6845,7046 Z"/>
 <path fill="rgb(126,0,33)" stroke="none" d="M 7019,7282 L 7019,7482 7219,7382 7019,7282 Z"/>
 <path fill="none" stroke="rgb(126,0,33)" stroke-linejoin="round" d="M 7019,7282 L 7019,7482 7219,7382 7019,7282 Z"/>
 <path fill="rgb(126,0,33)" stroke="none" d="M 7193,5393 L 7193,5593 7393,5493 7193,5393 Z"/>
 <path fill="none" stroke="rgb(126,0,33)" stroke-linejoin="round" d="M 7193,5393 L 7193,5593 7393,5493 7193,5393 Z"/>
 <path fill="rgb(126,0,33)" stroke="none" d="M 7367,6573 L 7367,6773 7566,6673 7367,6573 Z"/>
 <path fill="none" stroke="rgb(126,0,33)" stroke-linejoin="round" d="M 7367,6573 L 7367,6773 7566,6673 7367,6573 Z"/>
 <path fill="rgb(126,0,33)" stroke="none" d="M 7540,6101 L 7540,6301 7740,6201 7540,6101 Z"/>
 <path fill="none" stroke="rgb(126,0,33)" stroke-linejoin="round" d="M 7540,6101 L 7540,6301 7740,6201 7540,6101 Z"/>
 <path fill="rgb(126,0,33)" stroke="none" d="M 7713,6337 L 7713,6537 7913,6437 7713,6337 Z"/>
 <path fill="none" stroke="rgb(126,0,33)" stroke-linejoin="round" d="M 7713,6337 L 7713,6537 7913,6437 7713,6337 Z"/>
 <path fill="rgb(126,0,33)" stroke="none" d="M 7887,4684 L 7887,4884 8087,4784 7887,4684 Z"/>
 <path fill="none" stroke="rgb(126,0,33)" stroke-linejoin="round" d="M 7887,4684 L 7887,4884 8087,4784 7887,4684 Z"/>
 <path fill="rgb(126,0,33)" stroke="none" d="M 8061,5866 L 8061,6065 8261,5966 8061,5866 Z"/>
 <path fill="none" stroke="rgb(126,0,33)" stroke-linejoin="round" d="M 8061,5866 L 8061,6065 8261,5966 8061,5866 Z"/>
 <path fill="rgb(126,0,33)" stroke="none" d="M 8235,2322 L 8235,2522 8435,2422 8235,2322 Z"/>
 <path fill="none" stroke="rgb(126,0,33)" stroke-linejoin="round" d="M 8235,2322 L 8235,2522 8435,2422 8235,2322 Z"/>
 <path fill="rgb(126,0,33)" stroke="none" d="M 8409,6337 L 8409,6537 8609,6437 8409,6337 Z"/>
 <path fill="none" stroke="rgb(126,0,33)" stroke-linejoin="round" d="M 8409,6337 L 8409,6537 8609,6437 8409,6337 Z"/>
 <path fill="rgb(126,0,33)" stroke="none" d="M 8583,4212 L 8583,4412 8783,4312 8583,4212 Z"/>
 <path fill="none" stroke="rgb(126,0,33)" stroke-linejoin="round" d="M 8583,4212 L 8583,4412 8783,4312 8583,4212 Z"/>
 <path fill="rgb(126,0,33)" stroke="none" d="M 8757,7282 L 8757,7482 8957,7382 8757,7282 Z"/>
 <path fill="none" stroke="rgb(126,0,33)" stroke-linejoin="round" d="M 8757,7282 L 8757,7482 8957,7382 8757,7282 Z"/>
 <path fill="rgb(126,0,33)" stroke="none" d="M 8931,3030 L 8931,3230 9131,3130 8931,3030 Z"/>
 <path fill="none" stroke="rgb(126,0,33)" stroke-linejoin="round" d="M 8931,3030 L 8931,3230 9131,3130 8931,3030 Z"/>
 <path fill="rgb(126,0,33)" stroke="none" d="M 9104,2794 L 9104,2994 9304,2894 9104,2794 Z"/>
 <path fill="none" stroke="rgb(126,0,33)" stroke-linejoin="round" d="M 9104,2794 L 9104,2994 9304,2894 9104,2794 Z"/>
 <path fill="rgb(126,0,33)" stroke="none" d="M 9278,4212 L 9278,4412 9478,4312 9278,4212 Z"/>
 <path fill="none" stroke="rgb(126,0,33)" stroke-linejoin="round" d="M 9278,4212 L 9278,4412 9478,4312 9278,4212 Z"/>
 <path fill="rgb(126,0,33)" stroke="none" d="M 9452,4920 L 9452,5120 9652,5020 9452,4920 Z"/>
 <path fill="none" stroke="rgb(126,0,33)" stroke-linejoin="round" d="M 9452,4920 L 9452,5120 9652,5020 9452,4920 Z"/>
 <path fill="rgb(126,0,33)" stroke="none" d="M 9626,2794 L 9626,2994 9826,2894 9626,2794 Z"/>
 <path fill="none" stroke="rgb(126,0,33)" stroke-linejoin="round" d="M 9626,2794 L 9626,2994 9826,2894 9626,2794 Z"/>
 <path fill="rgb(126,0,33)" stroke="none" d="M 9800,3030 L 9800,3230 10000,3130 9800,3030 Z"/>
 <path fill="none" stroke="rgb(126,0,33)" stroke-linejoin="round" d="M 9800,3030 L 9800,3230 10000,3130 9800,3030 Z"/>
 <path fill="rgb(126,0,33)" stroke="none" d="M 9974,3739 L 9974,3939 10174,3839 9974,3739 Z"/>
 <path fill="none" stroke="rgb(126,0,33)" stroke-linejoin="round" d="M 9974,3739 L 9974,3939 10174,3839 9974,3739 Z"/>
 <path fill="rgb(126,0,33)" stroke="none" d="M 10148,3503 L 10148,3703 10348,3603 10148,3503 Z"/>
 <path fill="none" stroke="rgb(126,0,33)" stroke-linejoin="round" d="M 10148,3503 L 10148,3703 10348,3603 10148,3503 Z"/>
 <path fill="rgb(126,0,33)" stroke="none" d="M 10322,3503 L 10322,3703 10522,3603 10322,3503 Z"/>
 <path fill="none" stroke="rgb(126,0,33)" stroke-linejoin="round" d="M 10322,3503 L 10322,3703 10522,3603 10322,3503 Z"/>
 <path fill="rgb(126,0,33)" stroke="none" d="M 10495,3975 L 10495,4175 10695,4075 10495,3975 Z"/>
 <path fill="none" stroke="rgb(126,0,33)" stroke-linejoin="round" d="M 10495,3975 L 10495,4175 10695,4075 10495,3975 Z"/>
 <path fill="rgb(126,0,33)" stroke="none" d="M 10669,4448 L 10669,4648 10869,4548 10669,4448 Z"/>
 <path fill="none" stroke="rgb(126,0,33)" stroke-linejoin="round" d="M 10669,4448 L 10669,4648 10869,4548 10669,4448 Z"/>
 <path fill="rgb(126,0,33)" stroke="none" d="M 10843,3975 L 10843,4175 11043,4075 10843,3975 Z"/>
 <path fill="none" stroke="rgb(126,0,33)" stroke-linejoin="round" d="M 10843,3975 L 10843,4175 11043,4075 10843,3975 Z"/>
 <path fill="rgb(126,0,33)" stroke="none" d="M 11017,4684 L 11017,4884 11217,4784 11017,4684 Z"/>
 <path fill="none" stroke="rgb(126,0,33)" stroke-linejoin="round" d="M 11017,4684 L 11017,4884 11217,4784 11017,4684 Z"/>
 <path fill="rgb(126,0,33)" stroke="none" d="M 11191,6101 L 11191,6301 11391,6201 11191,6101 Z"/>
 <path fill="none" stroke="rgb(126,0,33)" stroke-linejoin="round" d="M 11191,6101 L 11191,6301 11391,6201 11191,6101 Z"/>
 <path fill="rgb(126,0,33)" stroke="none" d="M 11365,4684 L 11365,4884 11565,4784 11365,4684 Z"/>
 <path fill="none" stroke="rgb(126,0,33)" stroke-linejoin="round" d="M 11365,4684 L 11365,4884 11565,4784 11365,4684 Z"/>
 <path fill="rgb(126,0,33)" stroke="none" d="M 11539,5629 L 11539,5829 11739,5729 11539,5629 Z"/>
 <path fill="none" stroke="rgb(126,0,33)" stroke-linejoin="round" d="M 11539,5629 L 11539,5829 11739,5729 11539,5629 Z"/>
 <path fill="rgb(126,0,33)" stroke="none" d="M 11713,2794 L 11713,2994 11913,2894 11713,2794 Z"/>
 <path fill="none" stroke="rgb(126,0,33)" stroke-linejoin="round" d="M 11713,2794 L 11713,2994 11913,2894 11713,2794 Z"/>
 <path fill="rgb(126,0,33)" stroke="none" d="M 11886,3030 L 11886,3230 12086,3130 11886,3030 Z"/>
 <path fill="none" stroke="rgb(126,0,33)" stroke-linejoin="round" d="M 11886,3030 L 11886,3230 12086,3130 11886,3030 Z"/>
 <path fill="rgb(126,0,33)" stroke="none" d="M 12060,4920 L 12060,5120 12260,5020 12060,4920 Z"/>
 <path fill="none" stroke="rgb(126,0,33)" stroke-linejoin="round" d="M 12060,4920 L 12060,5120 12260,5020 12060,4920 Z"/>
 <path fill="rgb(126,0,33)" stroke="none" d="M 12234,5629 L 12234,5829 12434,5729 12234,5629 Z"/>
 <path fill="none" stroke="rgb(126,0,33)" stroke-linejoin="round" d="M 12234,5629 L 12234,5829 12434,5729 12234,5629 Z"/>
 <path fill="rgb(126,0,33)" stroke="none" d="M 12408,5157 L 12408,5357 12608,5257 12408,5157 Z"/>
 <path fill="none" stroke="rgb(126,0,33)" stroke-linejoin="round" d="M 12408,5157 L 12408,5357 12608,5257 12408,5157 Z"/>
 <path fill="rgb(126,0,33)" stroke="none" d="M 12582,6337 L 12582,6537 12782,6437 12582,6337 Z"/>
 <path fill="none" stroke="rgb(126,0,33)" stroke-linejoin="round" d="M 12582,6337 L 12582,6537 12782,6437 12582,6337 Z"/>
 <path fill="rgb(126,0,33)" stroke="none" d="M 12756,5157 L 12756,5357 12956,5257 12756,5157 Z"/>
 <path fill="none" stroke="rgb(126,0,33)" stroke-linejoin="round" d="M 12756,5157 L 12756,5357 12956,5257 12756,5157 Z"/>
 <path fill="rgb(126,0,33)" stroke="none" d="M 12930,7282 L 12930,7482 13130,7382 12930,7282 Z"/>
 <path fill="none" stroke="rgb(126,0,33)" stroke-linejoin="round" d="M 12930,7282 L 12930,7482 13130,7382 12930,7282 Z"/>
 <path fill="rgb(126,0,33)" stroke="none" d="M 13104,6810 L 13104,7010 13304,6910 13104,6810 Z"/>
 <path fill="none" stroke="rgb(126,0,33)" stroke-linejoin="round" d="M 13104,6810 L 13104,7010 13304,6910 13104,6810 Z"/>
 <path fill="rgb(126,0,33)" stroke="none" d="M 13277,7282 L 13277,7482 13477,7382 13277,7282 Z"/>
 <path fill="none" stroke="rgb(126,0,33)" stroke-linejoin="round" d="M 13277,7282 L 13277,7482 13477,7382 13277,7282 Z"/>
 <path fill="rgb(126,0,33)" stroke="none" d="M 13451,6337 L 13451,6537 13651,6437 13451,6337 Z"/>
 <path fill="none" stroke="rgb(126,0,33)" stroke-linejoin="round" d="M 13451,6337 L 13451,6537 13651,6437 13451,6337 Z"/>
 <path fill="rgb(126,0,33)" stroke="none" d="M 13625,6337 L 13625,6537 13825,6437 13625,6337 Z"/>
 <path fill="none" stroke="rgb(126,0,33)" stroke-linejoin="round" d="M 13625,6337 L 13625,6537 13825,6437 13625,6337 Z"/>
 <path fill="rgb(126,0,33)" stroke="none" d="M 13799,8464 L 13799,8664 13999,8564 13799,8464 Z"/>
 <path fill="none" stroke="rgb(126,0,33)" stroke-linejoin="round" d="M 13799,8464 L 13799,8664 13999,8564 13799,8464 Z"/>
 <path fill="rgb(126,0,33)" stroke="none" d="M 13973,7518 L 13973,7718 14173,7618 13973,7518 Z"/>
 <path fill="none" stroke="rgb(126,0,33)" stroke-linejoin="round" d="M 13973,7518 L 13973,7718 14173,7618 13973,7518 Z"/>
 <path fill="rgb(126,0,33)" stroke="none" d="M 14147,7282 L 14147,7482 14347,7382 14147,7282 Z"/>
 <path fill="none" stroke="rgb(126,0,33)" stroke-linejoin="round" d="M 14147,7282 L 14147,7482 14347,7382 14147,7282 Z"/>
 <path fill="rgb(126,0,33)" stroke="none" d="M 14321,8936 L 14321,9136 14521,9036 14321,8936 Z"/>
 <path fill="none" stroke="rgb(126,0,33)" stroke-linejoin="round" d="M 14321,8936 L 14321,9136 14521,9036 14321,8936 Z"/>
 <path fill="rgb(126,0,33)" stroke="none" d="M 14495,8227 L 14495,8427 14695,8327 14495,8227 Z"/>
 <path fill="none" stroke="rgb(126,0,33)" stroke-linejoin="round" d="M 14495,8227 L 14495,8427 14695,8327 14495,8227 Z"/>
 <text class="TextShape"><tspan class="TextParagraph" font-family="Liberation Sans, sans-serif" font-size="353px" font-weight="400"><tspan class="TextPosition" x="435" y="11731"><tspan fill="rgb(0,0,0)" stroke="none">20/02</tspan></tspan></tspan></text>
 <text class="TextShape"><tspan class="TextParagraph" font-family="Liberation Sans, sans-serif" font-size="353px" font-weight="400"><tspan class="TextPosition" x="1653" y="11731"><tspan fill="rgb(0,0,0)" stroke="none">27/02</tspan></tspan></tspan></text>
 <text class="TextShape"><tspan class="TextParagraph" font-family="Liberation Sans, sans-serif" font-size="353px" font-weight="400"><tspan class="TextPosition" x="2870" y="11731"><tspan fill="rgb(0,0,0)" stroke="none">05/03</tspan></tspan></tspan></text>
 <text class="TextShape"><tspan class="TextParagraph" font-family="Liberation Sans, sans-serif" font-size="353px" font-weight="400"><tspan class="TextPosition" x="4087" y="11731"><tspan fill="rgb(0,0,0)" stroke="none">12/03</tspan></tspan></tspan></text>
 <text class="TextShape"><tspan class="TextParagraph" font-family="Liberation Sans, sans-serif" font-size="353px" font-weight="400"><tspan class="TextPosition" x="5304" y="11731"><tspan fill="rgb(0,0,0)" stroke="none">19/03</tspan></tspan></tspan></text>
 <text class="TextShape"><tspan class="TextParagraph" font-family="Liberation Sans, sans-serif" font-size="353px" font-weight="400"><tspan class="TextPosition" x="6521" y="11731"><tspan fill="rgb(0,0,0)" stroke="none">26/03</tspan></tspan></tspan></text>
 <text class="TextShape"><tspan class="TextParagraph" font-family="Liberation Sans, sans-serif" font-size="353px" font-weight="400"><tspan class="TextPosition" x="7738" y="11731"><tspan fill="rgb(0,0,0)" stroke="none">02/04</tspan></tspan></tspan></text>
 <text class="TextShape"><tspan class="TextParagraph" font-family="Liberation Sans, sans-serif" font-size="353px" font-weight="400"><tspan class="TextPosition" x="8955" y="11731"><tspan fill="rgb(0,0,0)" stroke="none">09/04</tspan></tspan></tspan></text>
 <text class="TextShape"><tspan class="TextParagraph" font-family="Liberation Sans, sans-serif" font-size="353px" font-weight="400"><tspan class="TextPosition" x="10172" y="11731"><tspan fill="rgb(0,0,0)" stroke="none">16/04</tspan></tspan></tspan></text>
 <text class="TextShape"><tspan class="TextParagraph" font-family="Liberation Sans, sans-serif" font-size="353px" font-weight="400"><tspan class="TextPosition" x="11390" y="11731"><tspan fill="rgb(0,0,0)" stroke="none">23/04</tspan></tspan></tspan></text>
 <text class="TextShape"><tspan class="TextParagraph" font-family="Liberation Sans, sans-serif" font-size="353px" font-weight="400"><tspan class="TextPosition" x="12607" y="11731"><tspan fill="rgb(0,0,0)" stroke="none">30/04</tspan></tspan></tspan></text>
 <text class="TextShape"><tspan class="TextParagraph" font-family="Liberation Sans, sans-serif" font-size="353px" font-weight="400"><tspan class="TextPosition" x="13824" y="11731"><tspan fill="rgb(0,0,0)" stroke="none">07/05</tspan></tspan></tspan></text>
 <text class="TextShape"><tspan class="TextParagraph" font-family="Liberation Sans, sans-serif" font-size="353px" font-weight="400"><tspan class="TextPosition" x="338" y="8805"><tspan fill="rgb(0,0,0)" stroke="none">5</tspan></tspan></tspan></text>
 <text class="TextShape"><tspan class="TextParagraph" font-family="Liberation Sans, sans-serif" font-size="353px" font-weight="400"><tspan class="TextPosition" x="153" y="6327"><tspan fill="rgb(0,0,0)" stroke="none">10</tspan></tspan></tspan></text>
 <text class="TextShape"><tspan class="TextParagraph" font-family="Liberation Sans, sans-serif" font-size="353px" font-weight="400"><tspan class="TextPosition" x="153" y="3848"><tspan fill="rgb(0,0,0)" stroke="none">15</tspan></tspan></tspan></text>
 <text class="TextShape"><tspan class="TextParagraph" font-family="Liberation Sans, sans-serif" font-size="353px" font-weight="400"><tspan class="TextPosition" x="153" y="1370"><tspan fill="rgb(0,0,0)" stroke="none">20</tspan></tspan></tspan></text>
 <text class="TextShape"><tspan class="TextParagraph" font-family="Liberation Sans, sans-serif" font-size="423px" font-weight="400"><tspan class="TextPosition" x="2415" y="497"><tspan fill="rgb(0,0,0)" stroke="none">Covid-19. Muertes diarias por milln de mayores de 65 aos</tspan></tspan></tspan><tspan class="TextParagraph" font-family="Liberation Sans, sans-serif" font-size="423px" font-weight="400"><tspan class="TextPosition" x="2415" y="947"><tspan fill="rgb(0,0,0)" stroke="none">en Europa Occidental (3)</tspan></tspan></tspan></text>
 <path fill="none" stroke="rgb(0,69,134)" stroke-width="50" stroke-linejoin="round" d="M 3287,2303 L 4087,2303"/>
 <path fill="rgb(0,69,134)" stroke="none" d="M 3581,2198 L 3581,2409 3792,2409 3792,2198 3581,2198 Z"/>
 <path fill="none" stroke="rgb(0,69,134)" stroke-linejoin="round" d="M 3581,2198 L 3581,2409 3792,2409 3792,2198 3581,2198 Z"/>
 <path fill="none" stroke="rgb(255,66,14)" stroke-width="50" stroke-linejoin="round" d="M 3287,3209 L 4087,3209"/>
 <path fill="rgb(255,66,14)" stroke="none" d="M 3581,3209 L 3687,3315 3792,3209 3687,3104 3581,3209 Z"/>
 <path fill="none" stroke="rgb(255,66,14)" stroke-linejoin="round" d="M 3581,3209 L 3687,3315 3792,3209 3687,3104 3581,3209 Z"/>
 <path fill="none" stroke="rgb(255,211,32)" stroke-width="50" stroke-linejoin="round" d="M 3287,4115 L 4087,4115"/>
 <path fill="rgb(255,211,32)" stroke="none" d="M 3581,4010 L 3687,4221 3792,4010 3581,4010 Z"/>
 <path fill="none" stroke="rgb(255,211,32)" stroke-linejoin="round" d="M 3581,4010 L 3687,4221 3792,4010 3581,4010 Z"/>
 <path fill="none" stroke="rgb(87,157,28)" stroke-width="50" stroke-linejoin="round" d="M 3287,5021 L 4087,5021"/>
 <path fill="rgb(87,157,28)" stroke="none" d="M 3581,5127 L 3792,5127 3687,4916 3581,5127 Z"/>
 <path fill="none" stroke="rgb(87,157,28)" stroke-linejoin="round" d="M 3581,5127 L 3792,5127 3687,4916 3581,5127 Z"/>
 <path fill="none" stroke="rgb(126,0,33)" stroke-width="50" stroke-linejoin="round" d="M 3287,5927 L 4087,5927"/>
 <path fill="rgb(126,0,33)" stroke="none" d="M 3581,5822 L 3581,6032 3792,5927 3581,5822 Z"/>
 <path fill="none" stroke="rgb(126,0,33)" stroke-linejoin="round" d="M 3581,5822 L 3581,6032 3792,5927 3581,5822 Z"/>
 <text class="TextShape"><tspan class="TextParagraph" font-family="Liberation Sans, sans-serif" font-size="353px" font-weight="400"><tspan class="TextPosition" x="4187" y="2423"><tspan fill="rgb(0,0,0)" stroke="none">Alemania</tspan></tspan></tspan></text>
 <text class="TextShape"><tspan class="TextParagraph" font-family="Liberation Sans, sans-serif" font-size="353px" font-weight="400"><tspan class="TextPosition" x="4187" y="3329"><tspan fill="rgb(0,0,0)" stroke="none">Austria</tspan></tspan></tspan></text>
 <text class="TextShape"><tspan class="TextParagraph" font-family="Liberation Sans, sans-serif" font-size="353px" font-weight="400"><tspan class="TextPosition" x="4187" y="4235"><tspan fill="rgb(0,0,0)" stroke="none">Dinamarca</tspan></tspan></tspan></text>
 <text class="TextShape"><tspan class="TextParagraph" font-family="Liberation Sans, sans-serif" font-size="353px" font-weight="400"><tspan class="TextPosition" x="4187" y="5141"><tspan fill="rgb(0,0,0)" stroke="none">Noruega</tspan></tspan></tspan></text>
 <text class="TextShape"><tspan class="TextParagraph" font-family="Liberation Sans, sans-serif" font-size="353px" font-weight="400"><tspan class="TextPosition" x="4187" y="6046"><tspan fill="rgb(0,0,0)" stroke="none">Portugal</tspan></tspan></tspan></text>
</svg>