<?xml version="1.0" encoding="UTF-8"?>
<!DOCTYPE svg PUBLIC "-//W3C//DTD SVG 1.1//EN" "http://www.w3.org/Graphics/SVG/1.1/DTD/svg11.dtd">
<svg width="150mm" height="120mm" viewBox="0 0 15000 12000" version="1.1" xmlns="http://www.w3.org/2000/svg" xmlns:xlink="http://www.w3.org/1999/xlink" stroke-width="28.222" stroke-linejoin="round" xml:space="preserve">
 <path fill="rgb(255,255,255)" stroke="none" d="M 7500,12000 L 0,12000 0,0 15000,0 15000,12000 7500,12000 Z"/>
 <path fill="none" stroke="rgb(0,0,0)" stroke-linejoin="round" d="M 8027,11008 L 1371,11008 1371,1027 14683,1027 14683,11008 8027,11008 Z"/>
 <path fill="none" stroke="rgb(0,0,0)" stroke-linejoin="round" d="M 14683,11007 L 1371,11007"/>
 <path fill="none" stroke="rgb(0,0,0)" stroke-linejoin="round" d="M 14683,9343 L 1371,9343"/>
 <path fill="none" stroke="rgb(0,0,0)" stroke-linejoin="round" d="M 14683,7679 L 1371,7679"/>
 <path fill="none" stroke="rgb(0,0,0)" stroke-linejoin="round" d="M 14683,6016 L 1371,6016"/>
 <path fill="none" stroke="rgb(0,0,0)" stroke-linejoin="round" d="M 14683,4353 L 1371,4353"/>
 <path fill="none" stroke="rgb(0,0,0)" stroke-linejoin="round" d="M 14683,2689 L 1371,2689"/>
 <path fill="none" stroke="rgb(0,0,0)" stroke-linejoin="round" d="M 14683,1026 L 1371,1026"/>
 <path fill="none" stroke="rgb(0,0,0)" stroke-linejoin="round" d="M 1371,11157 L 1371,11007"/>
 <path fill="none" stroke="rgb(0,0,0)" stroke-linejoin="round" d="M 1371,11157 L 1371,11007"/>
 <path fill="none" stroke="rgb(0,0,0)" stroke-linejoin="round" d="M 2855,11157 L 2855,11007"/>
 <path fill="none" stroke="rgb(0,0,0)" stroke-linejoin="round" d="M 2855,11157 L 2855,11007"/>
 <path fill="none" stroke="rgb(0,0,0)" stroke-linejoin="round" d="M 4443,11157 L 4443,11007"/>
 <path fill="none" stroke="rgb(0,0,0)" stroke-linejoin="round" d="M 4443,11157 L 4443,11007"/>
 <path fill="none" stroke="rgb(0,0,0)" stroke-linejoin="round" d="M 5979,11157 L 5979,11007"/>
 <path fill="none" stroke="rgb(0,0,0)" stroke-linejoin="round" d="M 5979,11157 L 5979,11007"/>
 <path fill="none" stroke="rgb(0,0,0)" stroke-linejoin="round" d="M 7565,11157 L 7565,11007"/>
 <path fill="none" stroke="rgb(0,0,0)" stroke-linejoin="round" d="M 7565,11157 L 7565,11007"/>
 <path fill="none" stroke="rgb(0,0,0)" stroke-linejoin="round" d="M 9101,11157 L 9101,11007"/>
 <path fill="none" stroke="rgb(0,0,0)" stroke-linejoin="round" d="M 9101,11157 L 9101,11007"/>
 <path fill="none" stroke="rgb(0,0,0)" stroke-linejoin="round" d="M 10689,11157 L 10689,11007"/>
 <path fill="none" stroke="rgb(0,0,0)" stroke-linejoin="round" d="M 10689,11157 L 10689,11007"/>
 <path fill="none" stroke="rgb(0,0,0)" stroke-linejoin="round" d="M 12276,11157 L 12276,11007"/>
 <path fill="none" stroke="rgb(0,0,0)" stroke-linejoin="round" d="M 12276,11157 L 12276,11007"/>
 <path fill="none" stroke="rgb(0,0,0)" stroke-linejoin="round" d="M 13812,11157 L 13812,11007"/>
 <path fill="none" stroke="rgb(0,0,0)" stroke-linejoin="round" d="M 13812,11157 L 13812,11007"/>
 <path fill="none" stroke="rgb(0,0,0)" stroke-linejoin="round" d="M 1371,11007 L 14683,11007"/>
 <path fill="none" stroke="rgb(0,0,0)" stroke-linejoin="round" d="M 1221,11007 L 1371,11007"/>
 <path fill="none" stroke="rgb(0,0,0)" stroke-linejoin="round" d="M 1221,11007 L 1371,11007"/>
 <path fill="none" stroke="rgb(0,0,0)" stroke-linejoin="round" d="M 1221,9343 L 1371,9343"/>
 <path fill="none" stroke="rgb(0,0,0)" stroke-linejoin="round" d="M 1221,9343 L 1371,9343"/>
 <path fill="none" stroke="rgb(0,0,0)" stroke-linejoin="round" d="M 1221,7679 L 1371,7679"/>
 <path fill="none" stroke="rgb(0,0,0)" stroke-linejoin="round" d="M 1221,7679 L 1371,7679"/>
 <path fill="none" stroke="rgb(0,0,0)" stroke-linejoin="round" d="M 1221,6016 L 1371,6016"/>
 <path fill="none" stroke="rgb(0,0,0)" stroke-linejoin="round" d="M 1221,6016 L 1371,6016"/>
 <path fill="none" stroke="rgb(0,0,0)" stroke-linejoin="round" d="M 1221,4353 L 1371,4353"/>
 <path fill="none" stroke="rgb(0,0,0)" stroke-linejoin="round" d="M 1221,4353 L 1371,4353"/>
 <path fill="none" stroke="rgb(0,0,0)" stroke-linejoin="round" d="M 1221,2689 L 1371,2689"/>
 <path fill="none" stroke="rgb(0,0,0)" stroke-linejoin="round" d="M 1221,2689 L 1371,2689"/>
 <path fill="none" stroke="rgb(0,0,0)" stroke-linejoin="round" d="M 1221,1026 L 1371,1026"/>
 <path fill="none" stroke="rgb(0,0,0)" stroke-linejoin="round" d="M 1221,1026 L 1371,1026"/>
 <path fill="none" stroke="rgb(0,0,0)" stroke-linejoin="round" d="M 1371,11007 L 1371,1026"/>
 <path fill="none" stroke="rgb(255,0,0)" stroke-width="50" stroke-linejoin="round" d="M 1371,11006 L 1422,11007 1473,11007 1524,11007 1575,11007 1627,11006 1678,11005 1729,11006 1780,11004 1831,11002 1883,11002 1934,11002 1985,11001 2036,10999 2087,11000 2139,10985 2190,10996 2241,10966 2292,10952 2343,10903 2395,10922 2446,10870 2497,10797 2548,10750 2599,10674 2651,10767 2702,10676 2753,10584 2804,10436 2855,10535 2907,10184 2958,10400 3009,10255 3060,9911 3111,9686 3163,9579 3214,9697 3265,9644 3316,9917 3367,9942 3419,9472 3470,9722 3521,9659 3572,9763 3623,9838 3675,10004 3726,10296 3777,10095 3828,9978 3879,10049 3931,10245 3982,10203 4033,10313 4084,10428 4136,10500 4187,10159 4238,10144 4289,10133 4340,10199 4367,11007"/>
 <path fill="none" stroke="rgb(255,0,0)" stroke-width="50" stroke-linejoin="round" d="M 4424,11007 L 4443,10576 4494,10449 4512,11007"/>
 <path fill="none" stroke="rgb(255,0,0)" stroke-width="50" stroke-linejoin="round" d="M 4580,11007 L 4596,10527 4648,9076 4699,10522 4750,10719 4801,10702 4852,10789 4904,10650 4955,10920 5006,10710 5057,10779 5108,10859 5160,10916 5211,10787 5262,10841 5313,10820 5364,10772 5416,10887 5467,10871 5518,10500 5569,10908 5620,10897 5672,10865 5723,10900 5774,10921 5825,10898 5876,10964 5928,10935 5979,10920 6030,10926 6081,10709 6132,10929 6184,10926 6213,11007"/>
 <path fill="none" stroke="rgb(255,0,0)" stroke-width="50" stroke-linejoin="round" d="M 6250,11007 L 6286,10864 6337,10922 6388,10817 6440,10897 6491,10896 6542,10973 6593,10972 6644,10958 6696,10941 6747,10951 6798,10954 6849,10951 6901,10967 6952,10979 7003,10965 7054,10954 7105,10935 7157,10923 7208,10941 7259,10953 7310,10976 7361,10970 7413,10947 7464,10909 7514,10955 7565,10946 7616,10951 7668,10968 7719,10965 7770,10951 7821,10940 7872,10937 7924,10913 7975,10956 8026,10973 8077,10956 8128,10942 8180,10933 8231,10933 8282,11007 8333,11007 8384,10800 8436,10950 8487,10943 8538,10916 8589,10865 8640,11007 8692,11007 8743,10666 8794,10896 8845,10861 8896,10780 8948,10774 8999,11007 9050,11007 9101,10244 9152,10781 9204,10781 9255,10571 9306,10631 9357,11007 9409,11007 9460,9948 9511,10702 9562,10669 9613,10543 9665,10492 9716,11007 9767,11007 9818,9587 9869,10048 9921,10515 9972,10326 10023,10257 10074,11007 10125,11007 10177,9573 10228,10402 10279,10479 10330,9750 10381,10095 10433,11007 10484,11007 10535,8300 10586,10156 10637,9897 10689,9835 10740,9651 10791,11007 10842,11007 10893,7782 10945,9822 10996,9793 11047,9400 11098,9380 11149,11007 11201,11007 11252,7085 11303,9656 11354,9579 11405,9516 11457,9264 11508,11007 11559,11007 11610,6588 11661,9515 11713,9531 11764,9216 11815,8980 11866,11007 11917,11007 11969,6447 12020,9436 12071,9144 12122,9128 12174,8613 12225,11007 12276,11007 12327,5779 12378,9210 12430,9128 12481,9234 12532,8965 12583,11007 12634,11007 12686,5720 12737,9358 12788,9174 12839,9439 12890,9122 12942,11007 12993,11007 13044,7100 13095,9010 13146,9261 13198,8940 13249,8879 13300,11007 13351,11007 13402,6372 13454,9822 13505,9015 13556,8791 13607,8480 13658,11007 13710,11007 13761,4704 13812,8698 13863,8183 13914,7515 13966,7704 14017,11007 14068,11007 14119,2325 14170,7942 14222,7718 14273,7084 14324,6748 14375,11007 14426,11007 14478,1854 14529,7901 14580,6840 14631,7362 14683,7261"/>
 <path fill="rgb(255,0,0)" stroke="none" d="M 1271,11006 L 1371,11106 1471,11006 1371,10906 1271,11006 Z"/>
 <path fill="none" stroke="rgb(255,0,0)" stroke-linejoin="round" d="M 1271,11006 L 1371,11106 1471,11006 1371,10906 1271,11006 Z"/>
 <path fill="rgb(255,0,0)" stroke="none" d="M 1322,11007 L 1422,11107 1522,11007 1422,10907 1322,11007 Z"/>
 <path fill="none" stroke="rgb(255,0,0)" stroke-linejoin="round" d="M 1322,11007 L 1422,11107 1522,11007 1422,10907 1322,11007 Z"/>
 <path fill="rgb(255,0,0)" stroke="none" d="M 1373,11007 L 1473,11107 1573,11007 1473,10907 1373,11007 Z"/>
 <path fill="none" stroke="rgb(255,0,0)" stroke-linejoin="round" d="M 1373,11007 L 1473,11107 1573,11007 1473,10907 1373,11007 Z"/>
 <path fill="rgb(255,0,0)" stroke="none" d="M 1424,11007 L 1524,11107 1624,11007 1524,10907 1424,11007 Z"/>
 <path fill="none" stroke="rgb(255,0,0)" stroke-linejoin="round" d="M 1424,11007 L 1524,11107 1624,11007 1524,10907 1424,11007 Z"/>
 <path fill="rgb(255,0,0)" stroke="none" d="M 1475,11007 L 1575,11107 1675,11007 1575,10907 1475,11007 Z"/>
 <path fill="none" stroke="rgb(255,0,0)" stroke-linejoin="round" d="M 1475,11007 L 1575,11107 1675,11007 1575,10907 1475,11007 Z"/>
 <path fill="rgb(255,0,0)" stroke="none" d="M 1527,11006 L 1627,11106 1727,11006 1627,10906 1527,11006 Z"/>
 <path fill="none" stroke="rgb(255,0,0)" stroke-linejoin="round" d="M 1527,11006 L 1627,11106 1727,11006 1627,10906 1527,11006 Z"/>
 <path fill="rgb(255,0,0)" stroke="none" d="M 1578,11005 L 1678,11105 1778,11005 1678,10905 1578,11005 Z"/>
 <path fill="none" stroke="rgb(255,0,0)" stroke-linejoin="round" d="M 1578,11005 L 1678,11105 1778,11005 1678,10905 1578,11005 Z"/>
 <path fill="rgb(255,0,0)" stroke="none" d="M 1629,11006 L 1729,11106 1829,11006 1729,10906 1629,11006 Z"/>
 <path fill="none" stroke="rgb(255,0,0)" stroke-linejoin="round" d="M 1629,11006 L 1729,11106 1829,11006 1729,10906 1629,11006 Z"/>
 <path fill="rgb(255,0,0)" stroke="none" d="M 1680,11004 L 1780,11104 1880,11004 1780,10904 1680,11004 Z"/>
 <path fill="none" stroke="rgb(255,0,0)" stroke-linejoin="round" d="M 1680,11004 L 1780,11104 1880,11004 1780,10904 1680,11004 Z"/>
 <path fill="rgb(255,0,0)" stroke="none" d="M 1731,11002 L 1831,11102 1931,11002 1831,10902 1731,11002 Z"/>
 <path fill="none" stroke="rgb(255,0,0)" stroke-linejoin="round" d="M 1731,11002 L 1831,11102 1931,11002 1831,10902 1731,11002 Z"/>
 <path fill="rgb(255,0,0)" stroke="none" d="M 1783,11002 L 1883,11102 1983,11002 1883,10902 1783,11002 Z"/>
 <path fill="none" stroke="rgb(255,0,0)" stroke-linejoin="round" d="M 1783,11002 L 1883,11102 1983,11002 1883,10902 1783,11002 Z"/>
 <path fill="rgb(255,0,0)" stroke="none" d="M 1834,11002 L 1934,11102 2034,11002 1934,10902 1834,11002 Z"/>
 <path fill="none" stroke="rgb(255,0,0)" stroke-linejoin="round" d="M 1834,11002 L 1934,11102 2034,11002 1934,10902 1834,11002 Z"/>
 <path fill="rgb(255,0,0)" stroke="none" d="M 1885,11001 L 1985,11101 2085,11001 1985,10901 1885,11001 Z"/>
 <path fill="none" stroke="rgb(255,0,0)" stroke-linejoin="round" d="M 1885,11001 L 1985,11101 2085,11001 1985,10901 1885,11001 Z"/>
 <path fill="rgb(255,0,0)" stroke="none" d="M 1936,10999 L 2036,11099 2136,10999 2036,10899 1936,10999 Z"/>
 <path fill="none" stroke="rgb(255,0,0)" stroke-linejoin="round" d="M 1936,10999 L 2036,11099 2136,10999 2036,10899 1936,10999 Z"/>
 <path fill="rgb(255,0,0)" stroke="none" d="M 1987,11000 L 2087,11100 2187,11000 2087,10900 1987,11000 Z"/>
 <path fill="none" stroke="rgb(255,0,0)" stroke-linejoin="round" d="M 1987,11000 L 2087,11100 2187,11000 2087,10900 1987,11000 Z"/>
 <path fill="rgb(255,0,0)" stroke="none" d="M 2039,10985 L 2139,11085 2239,10985 2139,10885 2039,10985 Z"/>
 <path fill="none" stroke="rgb(255,0,0)" stroke-linejoin="round" d="M 2039,10985 L 2139,11085 2239,10985 2139,10885 2039,10985 Z"/>
 <path fill="rgb(255,0,0)" stroke="none" d="M 2090,10996 L 2190,11096 2290,10996 2190,10896 2090,10996 Z"/>
 <path fill="none" stroke="rgb(255,0,0)" stroke-linejoin="round" d="M 2090,10996 L 2190,11096 2290,10996 2190,10896 2090,10996 Z"/>
 <path fill="rgb(255,0,0)" stroke="none" d="M 2141,10966 L 2241,11066 2341,10966 2241,10866 2141,10966 Z"/>
 <path fill="none" stroke="rgb(255,0,0)" stroke-linejoin="round" d="M 2141,10966 L 2241,11066 2341,10966 2241,10866 2141,10966 Z"/>
 <path fill="rgb(255,0,0)" stroke="none" d="M 2192,10952 L 2292,11052 2392,10952 2292,10852 2192,10952 Z"/>
 <path fill="none" stroke="rgb(255,0,0)" stroke-linejoin="round" d="M 2192,10952 L 2292,11052 2392,10952 2292,10852 2192,10952 Z"/>
 <path fill="rgb(255,0,0)" stroke="none" d="M 2243,10903 L 2343,11003 2443,10903 2343,10803 2243,10903 Z"/>
 <path fill="none" stroke="rgb(255,0,0)" stroke-linejoin="round" d="M 2243,10903 L 2343,11003 2443,10903 2343,10803 2243,10903 Z"/>
 <path fill="rgb(255,0,0)" stroke="none" d="M 2295,10922 L 2395,11022 2495,10922 2395,10822 2295,10922 Z"/>
 <path fill="none" stroke="rgb(255,0,0)" stroke-linejoin="round" d="M 2295,10922 L 2395,11022 2495,10922 2395,10822 2295,10922 Z"/>
 <path fill="rgb(255,0,0)" stroke="none" d="M 2346,10870 L 2446,10970 2546,10870 2446,10770 2346,10870 Z"/>
 <path fill="none" stroke="rgb(255,0,0)" stroke-linejoin="round" d="M 2346,10870 L 2446,10970 2546,10870 2446,10770 2346,10870 Z"/>
 <path fill="rgb(255,0,0)" stroke="none" d="M 2397,10797 L 2497,10897 2597,10797 2497,10697 2397,10797 Z"/>
 <path fill="none" stroke="rgb(255,0,0)" stroke-linejoin="round" d="M 2397,10797 L 2497,10897 2597,10797 2497,10697 2397,10797 Z"/>
 <path fill="rgb(255,0,0)" stroke="none" d="M 2448,10750 L 2548,10850 2648,10750 2548,10650 2448,10750 Z"/>
 <path fill="none" stroke="rgb(255,0,0)" stroke-linejoin="round" d="M 2448,10750 L 2548,10850 2648,10750 2548,10650 2448,10750 Z"/>
 <path fill="rgb(255,0,0)" stroke="none" d="M 2499,10674 L 2599,10774 2699,10674 2599,10574 2499,10674 Z"/>
 <path fill="none" stroke="rgb(255,0,0)" stroke-linejoin="round" d="M 2499,10674 L 2599,10774 2699,10674 2599,10574 2499,10674 Z"/>
 <path fill="rgb(255,0,0)" stroke="none" d="M 2551,10767 L 2651,10867 2751,10767 2651,10667 2551,10767 Z"/>
 <path fill="none" stroke="rgb(255,0,0)" stroke-linejoin="round" d="M 2551,10767 L 2651,10867 2751,10767 2651,10667 2551,10767 Z"/>
 <path fill="rgb(255,0,0)" stroke="none" d="M 2602,10676 L 2702,10776 2802,10676 2702,10576 2602,10676 Z"/>
 <path fill="none" stroke="rgb(255,0,0)" stroke-linejoin="round" d="M 2602,10676 L 2702,10776 2802,10676 2702,10576 2602,10676 Z"/>
 <path fill="rgb(255,0,0)" stroke="none" d="M 2653,10584 L 2753,10684 2853,10584 2753,10484 2653,10584 Z"/>
 <path fill="none" stroke="rgb(255,0,0)" stroke-linejoin="round" d="M 2653,10584 L 2753,10684 2853,10584 2753,10484 2653,10584 Z"/>
 <path fill="rgb(255,0,0)" stroke="none" d="M 2704,10436 L 2804,10536 2904,10436 2804,10336 2704,10436 Z"/>
 <path fill="none" stroke="rgb(255,0,0)" stroke-linejoin="round" d="M 2704,10436 L 2804,10536 2904,10436 2804,10336 2704,10436 Z"/>
 <path fill="rgb(255,0,0)" stroke="none" d="M 2755,10535 L 2855,10635 2955,10535 2855,10435 2755,10535 Z"/>
 <path fill="none" stroke="rgb(255,0,0)" stroke-linejoin="round" d="M 2755,10535 L 2855,10635 2955,10535 2855,10435 2755,10535 Z"/>
 <path fill="rgb(255,0,0)" stroke="none" d="M 2807,10184 L 2907,10284 3007,10184 2907,10084 2807,10184 Z"/>
 <path fill="none" stroke="rgb(255,0,0)" stroke-linejoin="round" d="M 2807,10184 L 2907,10284 3007,10184 2907,10084 2807,10184 Z"/>
 <path fill="rgb(255,0,0)" stroke="none" d="M 2858,10400 L 2958,10500 3058,10400 2958,10300 2858,10400 Z"/>
 <path fill="none" stroke="rgb(255,0,0)" stroke-linejoin="round" d="M 2858,10400 L 2958,10500 3058,10400 2958,10300 2858,10400 Z"/>
 <path fill="rgb(255,0,0)" stroke="none" d="M 2909,10255 L 3009,10355 3109,10255 3009,10155 2909,10255 Z"/>
 <path fill="none" stroke="rgb(255,0,0)" stroke-linejoin="round" d="M 2909,10255 L 3009,10355 3109,10255 3009,10155 2909,10255 Z"/>
 <path fill="rgb(255,0,0)" stroke="none" d="M 2960,9911 L 3060,10011 3160,9911 3060,9811 2960,9911 Z"/>
 <path fill="none" stroke="rgb(255,0,0)" stroke-linejoin="round" d="M 2960,9911 L 3060,10011 3160,9911 3060,9811 2960,9911 Z"/>
 <path fill="rgb(255,0,0)" stroke="none" d="M 3011,9686 L 3111,9786 3211,9686 3111,9586 3011,9686 Z"/>
 <path fill="none" stroke="rgb(255,0,0)" stroke-linejoin="round" d="M 3011,9686 L 3111,9786 3211,9686 3111,9586 3011,9686 Z"/>
 <path fill="rgb(255,0,0)" stroke="none" d="M 3063,9579 L 3163,9679 3263,9579 3163,9479 3063,9579 Z"/>
 <path fill="none" stroke="rgb(255,0,0)" stroke-linejoin="round" d="M 3063,9579 L 3163,9679 3263,9579 3163,9479 3063,9579 Z"/>
 <path fill="rgb(255,0,0)" stroke="none" d="M 3114,9697 L 3214,9797 3314,9697 3214,9597 3114,9697 Z"/>
 <path fill="none" stroke="rgb(255,0,0)" stroke-linejoin="round" d="M 3114,9697 L 3214,9797 3314,9697 3214,9597 3114,9697 Z"/>
 <path fill="rgb(255,0,0)" stroke="none" d="M 3165,9644 L 3265,9744 3365,9644 3265,9544 3165,9644 Z"/>
 <path fill="none" stroke="rgb(255,0,0)" stroke-linejoin="round" d="M 3165,9644 L 3265,9744 3365,9644 3265,9544 3165,9644 Z"/>
 <path fill="rgb(255,0,0)" stroke="none" d="M 3216,9917 L 3316,10017 3416,9917 3316,9817 3216,9917 Z"/>
 <path fill="none" stroke="rgb(255,0,0)" stroke-linejoin="round" d="M 3216,9917 L 3316,10017 3416,9917 3316,9817 3216,9917 Z"/>
 <path fill="rgb(255,0,0)" stroke="none" d="M 3267,9942 L 3367,10042 3467,9942 3367,9842 3267,9942 Z"/>
 <path fill="none" stroke="rgb(255,0,0)" stroke-linejoin="round" d="M 3267,9942 L 3367,10042 3467,9942 3367,9842 3267,9942 Z"/>
 <path fill="rgb(255,0,0)" stroke="none" d="M 3319,9472 L 3419,9572 3519,9472 3419,9372 3319,9472 Z"/>
 <path fill="none" stroke="rgb(255,0,0)" stroke-linejoin="round" d="M 3319,9472 L 3419,9572 3519,9472 3419,9372 3319,9472 Z"/>
 <path fill="rgb(255,0,0)" stroke="none" d="M 3370,9722 L 3470,9822 3570,9722 3470,9622 3370,9722 Z"/>
 <path fill="none" stroke="rgb(255,0,0)" stroke-linejoin="round" d="M 3370,9722 L 3470,9822 3570,9722 3470,9622 3370,9722 Z"/>
 <path fill="rgb(255,0,0)" stroke="none" d="M 3421,9659 L 3521,9759 3621,9659 3521,9559 3421,9659 Z"/>
 <path fill="none" stroke="rgb(255,0,0)" stroke-linejoin="round" d="M 3421,9659 L 3521,9759 3621,9659 3521,9559 3421,9659 Z"/>
 <path fill="rgb(255,0,0)" stroke="none" d="M 3472,9763 L 3572,9863 3672,9763 3572,9663 3472,9763 Z"/>
 <path fill="none" stroke="rgb(255,0,0)" stroke-linejoin="round" d="M 3472,9763 L 3572,9863 3672,9763 3572,9663 3472,9763 Z"/>
 <path fill="rgb(255,0,0)" stroke="none" d="M 3523,9838 L 3623,9938 3723,9838 3623,9738 3523,9838 Z"/>
 <path fill="none" stroke="rgb(255,0,0)" stroke-linejoin="round" d="M 3523,9838 L 3623,9938 3723,9838 3623,9738 3523,9838 Z"/>
 <path fill="rgb(255,0,0)" stroke="none" d="M 3575,10004 L 3675,10104 3775,10004 3675,9904 3575,10004 Z"/>
 <path fill="none" stroke="rgb(255,0,0)" stroke-linejoin="round" d="M 3575,10004 L 3675,10104 3775,10004 3675,9904 3575,10004 Z"/>
 <path fill="rgb(255,0,0)" stroke="none" d="M 3626,10296 L 3726,10396 3826,10296 3726,10196 3626,10296 Z"/>
 <path fill="none" stroke="rgb(255,0,0)" stroke-linejoin="round" d="M 3626,10296 L 3726,10396 3826,10296 3726,10196 3626,10296 Z"/>
 <path fill="rgb(255,0,0)" stroke="none" d="M 3677,10095 L 3777,10195 3877,10095 3777,9995 3677,10095 Z"/>
 <path fill="none" stroke="rgb(255,0,0)" stroke-linejoin="round" d="M 3677,10095 L 3777,10195 3877,10095 3777,9995 3677,10095 Z"/>
 <path fill="rgb(255,0,0)" stroke="none" d="M 3728,9978 L 3828,10078 3928,9978 3828,9878 3728,9978 Z"/>
 <path fill="none" stroke="rgb(255,0,0)" stroke-linejoin="round" d="M 3728,9978 L 3828,10078 3928,9978 3828,9878 3728,9978 Z"/>
 <path fill="rgb(255,0,0)" stroke="none" d="M 3779,10049 L 3879,10149 3979,10049 3879,9949 3779,10049 Z"/>
 <path fill="none" stroke="rgb(255,0,0)" stroke-linejoin="round" d="M 3779,10049 L 3879,10149 3979,10049 3879,9949 3779,10049 Z"/>
 <path fill="rgb(255,0,0)" stroke="none" d="M 3831,10245 L 3931,10345 4031,10245 3931,10145 3831,10245 Z"/>
 <path fill="none" stroke="rgb(255,0,0)" stroke-linejoin="round" d="M 3831,10245 L 3931,10345 4031,10245 3931,10145 3831,10245 Z"/>
 <path fill="rgb(255,0,0)" stroke="none" d="M 3882,10203 L 3982,10303 4082,10203 3982,10103 3882,10203 Z"/>
 <path fill="none" stroke="rgb(255,0,0)" stroke-linejoin="round" d="M 3882,10203 L 3982,10303 4082,10203 3982,10103 3882,10203 Z"/>
 <path fill="rgb(255,0,0)" stroke="none" d="M 3933,10313 L 4033,10413 4133,10313 4033,10213 3933,10313 Z"/>
 <path fill="none" stroke="rgb(255,0,0)" stroke-linejoin="round" d="M 3933,10313 L 4033,10413 4133,10313 4033,10213 3933,10313 Z"/>
 <path fill="rgb(255,0,0)" stroke="none" d="M 3984,10428 L 4084,10528 4184,10428 4084,10328 3984,10428 Z"/>
 <path fill="none" stroke="rgb(255,0,0)" stroke-linejoin="round" d="M 3984,10428 L 4084,10528 4184,10428 4084,10328 3984,10428 Z"/>
 <path fill="rgb(255,0,0)" stroke="none" d="M 4036,10500 L 4136,10600 4236,10500 4136,10400 4036,10500 Z"/>
 <path fill="none" stroke="rgb(255,0,0)" stroke-linejoin="round" d="M 4036,10500 L 4136,10600 4236,10500 4136,10400 4036,10500 Z"/>
 <path fill="rgb(255,0,0)" stroke="none" d="M 4087,10159 L 4187,10259 4287,10159 4187,10059 4087,10159 Z"/>
 <path fill="none" stroke="rgb(255,0,0)" stroke-linejoin="round" d="M 4087,10159 L 4187,10259 4287,10159 4187,10059 4087,10159 Z"/>
 <path fill="rgb(255,0,0)" stroke="none" d="M 4138,10144 L 4238,10244 4338,10144 4238,10044 4138,10144 Z"/>
 <path fill="none" stroke="rgb(255,0,0)" stroke-linejoin="round" d="M 4138,10144 L 4238,10244 4338,10144 4238,10044 4138,10144 Z"/>
 <path fill="rgb(255,0,0)" stroke="none" d="M 4189,10133 L 4289,10233 4389,10133 4289,10033 4189,10133 Z"/>
 <path fill="none" stroke="rgb(255,0,0)" stroke-linejoin="round" d="M 4189,10133 L 4289,10233 4389,10133 4289,10033 4189,10133 Z"/>
 <path fill="rgb(255,0,0)" stroke="none" d="M 4240,10199 L 4340,10299 4440,10199 4340,10099 4240,10199 Z"/>
 <path fill="none" stroke="rgb(255,0,0)" stroke-linejoin="round" d="M 4240,10199 L 4340,10299 4440,10199 4340,10099 4240,10199 Z"/>
 <path fill="rgb(255,0,0)" stroke="none" d="M 4343,10576 L 4443,10676 4543,10576 4443,10476 4343,10576 Z"/>
 <path fill="none" stroke="rgb(255,0,0)" stroke-linejoin="round" d="M 4343,10576 L 4443,10676 4543,10576 4443,10476 4343,10576 Z"/>
 <path fill="rgb(255,0,0)" stroke="none" d="M 4394,10449 L 4494,10549 4594,10449 4494,10349 4394,10449 Z"/>
 <path fill="none" stroke="rgb(255,0,0)" stroke-linejoin="round" d="M 4394,10449 L 4494,10549 4594,10449 4494,10349 4394,10449 Z"/>
 <path fill="rgb(255,0,0)" stroke="none" d="M 4496,10527 L 4596,10627 4696,10527 4596,10427 4496,10527 Z"/>
 <path fill="none" stroke="rgb(255,0,0)" stroke-linejoin="round" d="M 4496,10527 L 4596,10627 4696,10527 4596,10427 4496,10527 Z"/>
 <path fill="rgb(255,0,0)" stroke="none" d="M 4548,9076 L 4648,9176 4748,9076 4648,8976 4548,9076 Z"/>
 <path fill="none" stroke="rgb(255,0,0)" stroke-linejoin="round" d="M 4548,9076 L 4648,9176 4748,9076 4648,8976 4548,9076 Z"/>
 <path fill="rgb(255,0,0)" stroke="none" d="M 4599,10522 L 4699,10622 4799,10522 4699,10422 4599,10522 Z"/>
 <path fill="none" stroke="rgb(255,0,0)" stroke-linejoin="round" d="M 4599,10522 L 4699,10622 4799,10522 4699,10422 4599,10522 Z"/>
 <path fill="rgb(255,0,0)" stroke="none" d="M 4650,10719 L 4750,10819 4850,10719 4750,10619 4650,10719 Z"/>
 <path fill="none" stroke="rgb(255,0,0)" stroke-linejoin="round" d="M 4650,10719 L 4750,10819 4850,10719 4750,10619 4650,10719 Z"/>
 <path fill="rgb(255,0,0)" stroke="none" d="M 4701,10702 L 4801,10802 4901,10702 4801,10602 4701,10702 Z"/>
 <path fill="none" stroke="rgb(255,0,0)" stroke-linejoin="round" d="M 4701,10702 L 4801,10802 4901,10702 4801,10602 4701,10702 Z"/>
 <path fill="rgb(255,0,0)" stroke="none" d="M 4752,10789 L 4852,10889 4952,10789 4852,10689 4752,10789 Z"/>
 <path fill="none" stroke="rgb(255,0,0)" stroke-linejoin="round" d="M 4752,10789 L 4852,10889 4952,10789 4852,10689 4752,10789 Z"/>
 <path fill="rgb(255,0,0)" stroke="none" d="M 4804,10650 L 4904,10750 5004,10650 4904,10550 4804,10650 Z"/>
 <path fill="none" stroke="rgb(255,0,0)" stroke-linejoin="round" d="M 4804,10650 L 4904,10750 5004,10650 4904,10550 4804,10650 Z"/>
 <path fill="rgb(255,0,0)" stroke="none" d="M 4855,10920 L 4955,11020 5055,10920 4955,10820 4855,10920 Z"/>
 <path fill="none" stroke="rgb(255,0,0)" stroke-linejoin="round" d="M 4855,10920 L 4955,11020 5055,10920 4955,10820 4855,10920 Z"/>
 <path fill="rgb(255,0,0)" stroke="none" d="M 4906,10710 L 5006,10810 5106,10710 5006,10610 4906,10710 Z"/>
 <path fill="none" stroke="rgb(255,0,0)" stroke-linejoin="round" d="M 4906,10710 L 5006,10810 5106,10710 5006,10610 4906,10710 Z"/>
 <path fill="rgb(255,0,0)" stroke="none" d="M 4957,10779 L 5057,10879 5157,10779 5057,10679 4957,10779 Z"/>
 <path fill="none" stroke="rgb(255,0,0)" stroke-linejoin="round" d="M 4957,10779 L 5057,10879 5157,10779 5057,10679 4957,10779 Z"/>
 <path fill="rgb(255,0,0)" stroke="none" d="M 5008,10859 L 5108,10959 5208,10859 5108,10759 5008,10859 Z"/>
 <path fill="none" stroke="rgb(255,0,0)" stroke-linejoin="round" d="M 5008,10859 L 5108,10959 5208,10859 5108,10759 5008,10859 Z"/>
 <path fill="rgb(255,0,0)" stroke="none" d="M 5060,10916 L 5160,11016 5260,10916 5160,10816 5060,10916 Z"/>
 <path fill="none" stroke="rgb(255,0,0)" stroke-linejoin="round" d="M 5060,10916 L 5160,11016 5260,10916 5160,10816 5060,10916 Z"/>
 <path fill="rgb(255,0,0)" stroke="none" d="M 5111,10787 L 5211,10887 5311,10787 5211,10687 5111,10787 Z"/>
 <path fill="none" stroke="rgb(255,0,0)" stroke-linejoin="round" d="M 5111,10787 L 5211,10887 5311,10787 5211,10687 5111,10787 Z"/>
 <path fill="rgb(255,0,0)" stroke="none" d="M 5162,10841 L 5262,10941 5362,10841 5262,10741 5162,10841 Z"/>
 <path fill="none" stroke="rgb(255,0,0)" stroke-linejoin="round" d="M 5162,10841 L 5262,10941 5362,10841 5262,10741 5162,10841 Z"/>
 <path fill="rgb(255,0,0)" stroke="none" d="M 5213,10820 L 5313,10920 5413,10820 5313,10720 5213,10820 Z"/>
 <path fill="none" stroke="rgb(255,0,0)" stroke-linejoin="round" d="M 5213,10820 L 5313,10920 5413,10820 5313,10720 5213,10820 Z"/>
 <path fill="rgb(255,0,0)" stroke="none" d="M 5264,10772 L 5364,10872 5464,10772 5364,10672 5264,10772 Z"/>
 <path fill="none" stroke="rgb(255,0,0)" stroke-linejoin="round" d="M 5264,10772 L 5364,10872 5464,10772 5364,10672 5264,10772 Z"/>
 <path fill="rgb(255,0,0)" stroke="none" d="M 5316,10887 L 5416,10987 5516,10887 5416,10787 5316,10887 Z"/>
 <path fill="none" stroke="rgb(255,0,0)" stroke-linejoin="round" d="M 5316,10887 L 5416,10987 5516,10887 5416,10787 5316,10887 Z"/>
 <path fill="rgb(255,0,0)" stroke="none" d="M 5367,10871 L 5467,10971 5567,10871 5467,10771 5367,10871 Z"/>
 <path fill="none" stroke="rgb(255,0,0)" stroke-linejoin="round" d="M 5367,10871 L 5467,10971 5567,10871 5467,10771 5367,10871 Z"/>
 <path fill="rgb(255,0,0)" stroke="none" d="M 5418,10500 L 5518,10600 5618,10500 5518,10400 5418,10500 Z"/>
 <path fill="none" stroke="rgb(255,0,0)" stroke-linejoin="round" d="M 5418,10500 L 5518,10600 5618,10500 5518,10400 5418,10500 Z"/>
 <path fill="rgb(255,0,0)" stroke="none" d="M 5469,10908 L 5569,11008 5669,10908 5569,10808 5469,10908 Z"/>
 <path fill="none" stroke="rgb(255,0,0)" stroke-linejoin="round" d="M 5469,10908 L 5569,11008 5669,10908 5569,10808 5469,10908 Z"/>
 <path fill="rgb(255,0,0)" stroke="none" d="M 5520,10897 L 5620,10997 5720,10897 5620,10797 5520,10897 Z"/>
 <path fill="none" stroke="rgb(255,0,0)" stroke-linejoin="round" d="M 5520,10897 L 5620,10997 5720,10897 5620,10797 5520,10897 Z"/>
 <path fill="rgb(255,0,0)" stroke="none" d="M 5572,10865 L 5672,10965 5772,10865 5672,10765 5572,10865 Z"/>
 <path fill="none" stroke="rgb(255,0,0)" stroke-linejoin="round" d="M 5572,10865 L 5672,10965 5772,10865 5672,10765 5572,10865 Z"/>
 <path fill="rgb(255,0,0)" stroke="none" d="M 5623,10900 L 5723,11000 5823,10900 5723,10800 5623,10900 Z"/>
 <path fill="none" stroke="rgb(255,0,0)" stroke-linejoin="round" d="M 5623,10900 L 5723,11000 5823,10900 5723,10800 5623,10900 Z"/>
 <path fill="rgb(255,0,0)" stroke="none" d="M 5674,10921 L 5774,11021 5874,10921 5774,10821 5674,10921 Z"/>
 <path fill="none" stroke="rgb(255,0,0)" stroke-linejoin="round" d="M 5674,10921 L 5774,11021 5874,10921 5774,10821 5674,10921 Z"/>
 <path fill="rgb(255,0,0)" stroke="none" d="M 5725,10898 L 5825,10998 5925,10898 5825,10798 5725,10898 Z"/>
 <path fill="none" stroke="rgb(255,0,0)" stroke-linejoin="round" d="M 5725,10898 L 5825,10998 5925,10898 5825,10798 5725,10898 Z"/>
 <path fill="rgb(255,0,0)" stroke="none" d="M 5776,10964 L 5876,11064 5976,10964 5876,10864 5776,10964 Z"/>
 <path fill="none" stroke="rgb(255,0,0)" stroke-linejoin="round" d="M 5776,10964 L 5876,11064 5976,10964 5876,10864 5776,10964 Z"/>
 <path fill="rgb(255,0,0)" stroke="none" d="M 5828,10935 L 5928,11035 6028,10935 5928,10835 5828,10935 Z"/>
 <path fill="none" stroke="rgb(255,0,0)" stroke-linejoin="round" d="M 5828,10935 L 5928,11035 6028,10935 5928,10835 5828,10935 Z"/>
 <path fill="rgb(255,0,0)" stroke="none" d="M 5879,10920 L 5979,11020 6079,10920 5979,10820 5879,10920 Z"/>
 <path fill="none" stroke="rgb(255,0,0)" stroke-linejoin="round" d="M 5879,10920 L 5979,11020 6079,10920 5979,10820 5879,10920 Z"/>
 <path fill="rgb(255,0,0)" stroke="none" d="M 5930,10926 L 6030,11026 6130,10926 6030,10826 5930,10926 Z"/>
 <path fill="none" stroke="rgb(255,0,0)" stroke-linejoin="round" d="M 5930,10926 L 6030,11026 6130,10926 6030,10826 5930,10926 Z"/>
 <path fill="rgb(255,0,0)" stroke="none" d="M 5981,10709 L 6081,10809 6181,10709 6081,10609 5981,10709 Z"/>
 <path fill="none" stroke="rgb(255,0,0)" stroke-linejoin="round" d="M 5981,10709 L 6081,10809 6181,10709 6081,10609 5981,10709 Z"/>
 <path fill="rgb(255,0,0)" stroke="none" d="M 6032,10929 L 6132,11029 6232,10929 6132,10829 6032,10929 Z"/>
 <path fill="none" stroke="rgb(255,0,0)" stroke-linejoin="round" d="M 6032,10929 L 6132,11029 6232,10929 6132,10829 6032,10929 Z"/>
 <path fill="rgb(255,0,0)" stroke="none" d="M 6084,10926 L 6184,11026 6284,10926 6184,10826 6084,10926 Z"/>
 <path fill="none" stroke="rgb(255,0,0)" stroke-linejoin="round" d="M 6084,10926 L 6184,11026 6284,10926 6184,10826 6084,10926 Z"/>
 <path fill="rgb(255,0,0)" stroke="none" d="M 6186,10864 L 6286,10964 6386,10864 6286,10764 6186,10864 Z"/>
 <path fill="none" stroke="rgb(255,0,0)" stroke-linejoin="round" d="M 6186,10864 L 6286,10964 6386,10864 6286,10764 6186,10864 Z"/>
 <path fill="rgb(255,0,0)" stroke="none" d="M 6237,10922 L 6337,11022 6437,10922 6337,10822 6237,10922 Z"/>
 <path fill="none" stroke="rgb(255,0,0)" stroke-linejoin="round" d="M 6237,10922 L 6337,11022 6437,10922 6337,10822 6237,10922 Z"/>
 <path fill="rgb(255,0,0)" stroke="none" d="M 6288,10817 L 6388,10917 6488,10817 6388,10717 6288,10817 Z"/>
 <path fill="none" stroke="rgb(255,0,0)" stroke-linejoin="round" d="M 6288,10817 L 6388,10917 6488,10817 6388,10717 6288,10817 Z"/>
 <path fill="rgb(255,0,0)" stroke="none" d="M 6340,10897 L 6440,10997 6540,10897 6440,10797 6340,10897 Z"/>
 <path fill="none" stroke="rgb(255,0,0)" stroke-linejoin="round" d="M 6340,10897 L 6440,10997 6540,10897 6440,10797 6340,10897 Z"/>
 <path fill="rgb(255,0,0)" stroke="none" d="M 6391,10896 L 6491,10996 6591,10896 6491,10796 6391,10896 Z"/>
 <path fill="none" stroke="rgb(255,0,0)" stroke-linejoin="round" d="M 6391,10896 L 6491,10996 6591,10896 6491,10796 6391,10896 Z"/>
 <path fill="rgb(255,0,0)" stroke="none" d="M 6442,10973 L 6542,11073 6642,10973 6542,10873 6442,10973 Z"/>
 <path fill="none" stroke="rgb(255,0,0)" stroke-linejoin="round" d="M 6442,10973 L 6542,11073 6642,10973 6542,10873 6442,10973 Z"/>
 <path fill="rgb(255,0,0)" stroke="none" d="M 6493,10972 L 6593,11072 6693,10972 6593,10872 6493,10972 Z"/>
 <path fill="none" stroke="rgb(255,0,0)" stroke-linejoin="round" d="M 6493,10972 L 6593,11072 6693,10972 6593,10872 6493,10972 Z"/>
 <path fill="rgb(255,0,0)" stroke="none" d="M 6544,10958 L 6644,11058 6744,10958 6644,10858 6544,10958 Z"/>
 <path fill="none" stroke="rgb(255,0,0)" stroke-linejoin="round" d="M 6544,10958 L 6644,11058 6744,10958 6644,10858 6544,10958 Z"/>
 <path fill="rgb(255,0,0)" stroke="none" d="M 6596,10941 L 6696,11041 6796,10941 6696,10841 6596,10941 Z"/>
 <path fill="none" stroke="rgb(255,0,0)" stroke-linejoin="round" d="M 6596,10941 L 6696,11041 6796,10941 6696,10841 6596,10941 Z"/>
 <path fill="rgb(255,0,0)" stroke="none" d="M 6647,10951 L 6747,11051 6847,10951 6747,10851 6647,10951 Z"/>
 <path fill="none" stroke="rgb(255,0,0)" stroke-linejoin="round" d="M 6647,10951 L 6747,11051 6847,10951 6747,10851 6647,10951 Z"/>
 <path fill="rgb(255,0,0)" stroke="none" d="M 6698,10954 L 6798,11054 6898,10954 6798,10854 6698,10954 Z"/>
 <path fill="none" stroke="rgb(255,0,0)" stroke-linejoin="round" d="M 6698,10954 L 6798,11054 6898,10954 6798,10854 6698,10954 Z"/>
 <path fill="rgb(255,0,0)" stroke="none" d="M 6749,10951 L 6849,11051 6949,10951 6849,10851 6749,10951 Z"/>
 <path fill="none" stroke="rgb(255,0,0)" stroke-linejoin="round" d="M 6749,10951 L 6849,11051 6949,10951 6849,10851 6749,10951 Z"/>
 <path fill="rgb(255,0,0)" stroke="none" d="M 6801,10967 L 6901,11067 7001,10967 6901,10867 6801,10967 Z"/>
 <path fill="none" stroke="rgb(255,0,0)" stroke-linejoin="round" d="M 6801,10967 L 6901,11067 7001,10967 6901,10867 6801,10967 Z"/>
 <path fill="rgb(255,0,0)" stroke="none" d="M 6852,10979 L 6952,11079 7052,10979 6952,10879 6852,10979 Z"/>
 <path fill="none" stroke="rgb(255,0,0)" stroke-linejoin="round" d="M 6852,10979 L 6952,11079 7052,10979 6952,10879 6852,10979 Z"/>
 <path fill="rgb(255,0,0)" stroke="none" d="M 6903,10965 L 7003,11065 7103,10965 7003,10865 6903,10965 Z"/>
 <path fill="none" stroke="rgb(255,0,0)" stroke-linejoin="round" d="M 6903,10965 L 7003,11065 7103,10965 7003,10865 6903,10965 Z"/>
 <path fill="rgb(255,0,0)" stroke="none" d="M 6954,10954 L 7054,11054 7154,10954 7054,10854 6954,10954 Z"/>
 <path fill="none" stroke="rgb(255,0,0)" stroke-linejoin="round" d="M 6954,10954 L 7054,11054 7154,10954 7054,10854 6954,10954 Z"/>
 <path fill="rgb(255,0,0)" stroke="none" d="M 7005,10935 L 7105,11035 7205,10935 7105,10835 7005,10935 Z"/>
 <path fill="none" stroke="rgb(255,0,0)" stroke-linejoin="round" d="M 7005,10935 L 7105,11035 7205,10935 7105,10835 7005,10935 Z"/>
 <path fill="rgb(255,0,0)" stroke="none" d="M 7057,10923 L 7157,11023 7257,10923 7157,10823 7057,10923 Z"/>
 <path fill="none" stroke="rgb(255,0,0)" stroke-linejoin="round" d="M 7057,10923 L 7157,11023 7257,10923 7157,10823 7057,10923 Z"/>
 <path fill="rgb(255,0,0)" stroke="none" d="M 7108,10941 L 7208,11041 7308,10941 7208,10841 7108,10941 Z"/>
 <path fill="none" stroke="rgb(255,0,0)" stroke-linejoin="round" d="M 7108,10941 L 7208,11041 7308,10941 7208,10841 7108,10941 Z"/>
 <path fill="rgb(255,0,0)" stroke="none" d="M 7159,10953 L 7259,11053 7359,10953 7259,10853 7159,10953 Z"/>
 <path fill="none" stroke="rgb(255,0,0)" stroke-linejoin="round" d="M 7159,10953 L 7259,11053 7359,10953 7259,10853 7159,10953 Z"/>
 <path fill="rgb(255,0,0)" stroke="none" d="M 7210,10976 L 7310,11076 7410,10976 7310,10876 7210,10976 Z"/>
 <path fill="none" stroke="rgb(255,0,0)" stroke-linejoin="round" d="M 7210,10976 L 7310,11076 7410,10976 7310,10876 7210,10976 Z"/>
 <path fill="rgb(255,0,0)" stroke="none" d="M 7261,10970 L 7361,11070 7461,10970 7361,10870 7261,10970 Z"/>
 <path fill="none" stroke="rgb(255,0,0)" stroke-linejoin="round" d="M 7261,10970 L 7361,11070 7461,10970 7361,10870 7261,10970 Z"/>
 <path fill="rgb(255,0,0)" stroke="none" d="M 7313,10947 L 7413,11047 7512,10947 7413,10847 7313,10947 Z"/>
 <path fill="none" stroke="rgb(255,0,0)" stroke-linejoin="round" d="M 7313,10947 L 7413,11047 7512,10947 7413,10847 7313,10947 Z"/>
 <path fill="rgb(255,0,0)" stroke="none" d="M 7364,10909 L 7464,11009 7563,10909 7464,10809 7364,10909 Z"/>
 <path fill="none" stroke="rgb(255,0,0)" stroke-linejoin="round" d="M 7364,10909 L 7464,11009 7563,10909 7464,10809 7364,10909 Z"/>
 <path fill="rgb(255,0,0)" stroke="none" d="M 7415,10955 L 7514,11055 7614,10955 7514,10855 7415,10955 Z"/>
 <path fill="none" stroke="rgb(255,0,0)" stroke-linejoin="round" d="M 7415,10955 L 7514,11055 7614,10955 7514,10855 7415,10955 Z"/>
 <path fill="rgb(255,0,0)" stroke="none" d="M 7466,10946 L 7565,11046 7665,10946 7565,10846 7466,10946 Z"/>
 <path fill="none" stroke="rgb(255,0,0)" stroke-linejoin="round" d="M 7466,10946 L 7565,11046 7665,10946 7565,10846 7466,10946 Z"/>
 <path fill="rgb(255,0,0)" stroke="none" d="M 7516,10951 L 7616,11051 7716,10951 7616,10851 7516,10951 Z"/>
 <path fill="none" stroke="rgb(255,0,0)" stroke-linejoin="round" d="M 7516,10951 L 7616,11051 7716,10951 7616,10851 7516,10951 Z"/>
 <path fill="rgb(255,0,0)" stroke="none" d="M 7568,10968 L 7668,11068 7768,10968 7668,10868 7568,10968 Z"/>
 <path fill="none" stroke="rgb(255,0,0)" stroke-linejoin="round" d="M 7568,10968 L 7668,11068 7768,10968 7668,10868 7568,10968 Z"/>
 <path fill="rgb(255,0,0)" stroke="none" d="M 7619,10965 L 7719,11065 7819,10965 7719,10865 7619,10965 Z"/>
 <path fill="none" stroke="rgb(255,0,0)" stroke-linejoin="round" d="M 7619,10965 L 7719,11065 7819,10965 7719,10865 7619,10965 Z"/>
 <path fill="rgb(255,0,0)" stroke="none" d="M 7670,10951 L 7770,11051 7870,10951 7770,10851 7670,10951 Z"/>
 <path fill="none" stroke="rgb(255,0,0)" stroke-linejoin="round" d="M 7670,10951 L 7770,11051 7870,10951 7770,10851 7670,10951 Z"/>
 <path fill="rgb(255,0,0)" stroke="none" d="M 7721,10940 L 7821,11040 7921,10940 7821,10840 7721,10940 Z"/>
 <path fill="none" stroke="rgb(255,0,0)" stroke-linejoin="round" d="M 7721,10940 L 7821,11040 7921,10940 7821,10840 7721,10940 Z"/>
 <path fill="rgb(255,0,0)" stroke="none" d="M 7772,10937 L 7872,11037 7972,10937 7872,10837 7772,10937 Z"/>
 <path fill="none" stroke="rgb(255,0,0)" stroke-linejoin="round" d="M 7772,10937 L 7872,11037 7972,10937 7872,10837 7772,10937 Z"/>
 <path fill="rgb(255,0,0)" stroke="none" d="M 7824,10913 L 7924,11013 8024,10913 7924,10813 7824,10913 Z"/>
 <path fill="none" stroke="rgb(255,0,0)" stroke-linejoin="round" d="M 7824,10913 L 7924,11013 8024,10913 7924,10813 7824,10913 Z"/>
 <path fill="rgb(255,0,0)" stroke="none" d="M 7875,10956 L 7975,11056 8075,10956 7975,10856 7875,10956 Z"/>
 <path fill="none" stroke="rgb(255,0,0)" stroke-linejoin="round" d="M 7875,10956 L 7975,11056 8075,10956 7975,10856 7875,10956 Z"/>
 <path fill="rgb(255,0,0)" stroke="none" d="M 7926,10973 L 8026,11073 8126,10973 8026,10873 7926,10973 Z"/>
 <path fill="none" stroke="rgb(255,0,0)" stroke-linejoin="round" d="M 7926,10973 L 8026,11073 8126,10973 8026,10873 7926,10973 Z"/>
 <path fill="rgb(255,0,0)" stroke="none" d="M 7977,10956 L 8077,11056 8177,10956 8077,10856 7977,10956 Z"/>
 <path fill="none" stroke="rgb(255,0,0)" stroke-linejoin="round" d="M 7977,10956 L 8077,11056 8177,10956 8077,10856 7977,10956 Z"/>
 <path fill="rgb(255,0,0)" stroke="none" d="M 8028,10942 L 8128,11042 8228,10942 8128,10842 8028,10942 Z"/>
 <path fill="none" stroke="rgb(255,0,0)" stroke-linejoin="round" d="M 8028,10942 L 8128,11042 8228,10942 8128,10842 8028,10942 Z"/>
 <path fill="rgb(255,0,0)" stroke="none" d="M 8080,10933 L 8180,11033 8280,10933 8180,10833 8080,10933 Z"/>
 <path fill="none" stroke="rgb(255,0,0)" stroke-linejoin="round" d="M 8080,10933 L 8180,11033 8280,10933 8180,10833 8080,10933 Z"/>
 <path fill="rgb(255,0,0)" stroke="none" d="M 8131,10933 L 8231,11033 8331,10933 8231,10833 8131,10933 Z"/>
 <path fill="none" stroke="rgb(255,0,0)" stroke-linejoin="round" d="M 8131,10933 L 8231,11033 8331,10933 8231,10833 8131,10933 Z"/>
 <path fill="rgb(255,0,0)" stroke="none" d="M 8182,11007 L 8282,11107 8382,11007 8282,10907 8182,11007 Z"/>
 <path fill="none" stroke="rgb(255,0,0)" stroke-linejoin="round" d="M 8182,11007 L 8282,11107 8382,11007 8282,10907 8182,11007 Z"/>
 <path fill="rgb(255,0,0)" stroke="none" d="M 8233,11007 L 8333,11107 8433,11007 8333,10907 8233,11007 Z"/>
 <path fill="none" stroke="rgb(255,0,0)" stroke-linejoin="round" d="M 8233,11007 L 8333,11107 8433,11007 8333,10907 8233,11007 Z"/>
 <path fill="rgb(255,0,0)" stroke="none" d="M 8284,10800 L 8384,10900 8484,10800 8384,10700 8284,10800 Z"/>
 <path fill="none" stroke="rgb(255,0,0)" stroke-linejoin="round" d="M 8284,10800 L 8384,10900 8484,10800 8384,10700 8284,10800 Z"/>
 <path fill="rgb(255,0,0)" stroke="none" d="M 8336,10950 L 8436,11050 8536,10950 8436,10850 8336,10950 Z"/>
 <path fill="none" stroke="rgb(255,0,0)" stroke-linejoin="round" d="M 8336,10950 L 8436,11050 8536,10950 8436,10850 8336,10950 Z"/>
 <path fill="rgb(255,0,0)" stroke="none" d="M 8387,10943 L 8487,11043 8587,10943 8487,10843 8387,10943 Z"/>
 <path fill="none" stroke="rgb(255,0,0)" stroke-linejoin="round" d="M 8387,10943 L 8487,11043 8587,10943 8487,10843 8387,10943 Z"/>
 <path fill="rgb(255,0,0)" stroke="none" d="M 8438,10916 L 8538,11016 8638,10916 8538,10816 8438,10916 Z"/>
 <path fill="none" stroke="rgb(255,0,0)" stroke-linejoin="round" d="M 8438,10916 L 8538,11016 8638,10916 8538,10816 8438,10916 Z"/>
 <path fill="rgb(255,0,0)" stroke="none" d="M 8489,10865 L 8589,10965 8689,10865 8589,10765 8489,10865 Z"/>
 <path fill="none" stroke="rgb(255,0,0)" stroke-linejoin="round" d="M 8489,10865 L 8589,10965 8689,10865 8589,10765 8489,10865 Z"/>
 <path fill="rgb(255,0,0)" stroke="none" d="M 8540,11007 L 8640,11107 8740,11007 8640,10907 8540,11007 Z"/>
 <path fill="none" stroke="rgb(255,0,0)" stroke-linejoin="round" d="M 8540,11007 L 8640,11107 8740,11007 8640,10907 8540,11007 Z"/>
 <path fill="rgb(255,0,0)" stroke="none" d="M 8592,11007 L 8692,11107 8792,11007 8692,10907 8592,11007 Z"/>
 <path fill="none" stroke="rgb(255,0,0)" stroke-linejoin="round" d="M 8592,11007 L 8692,11107 8792,11007 8692,10907 8592,11007 Z"/>
 <path fill="rgb(255,0,0)" stroke="none" d="M 8643,10666 L 8743,10766 8843,10666 8743,10566 8643,10666 Z"/>
 <path fill="none" stroke="rgb(255,0,0)" stroke-linejoin="round" d="M 8643,10666 L 8743,10766 8843,10666 8743,10566 8643,10666 Z"/>
 <path fill="rgb(255,0,0)" stroke="none" d="M 8694,10896 L 8794,10996 8894,10896 8794,10796 8694,10896 Z"/>
 <path fill="none" stroke="rgb(255,0,0)" stroke-linejoin="round" d="M 8694,10896 L 8794,10996 8894,10896 8794,10796 8694,10896 Z"/>
 <path fill="rgb(255,0,0)" stroke="none" d="M 8745,10861 L 8845,10961 8945,10861 8845,10761 8745,10861 Z"/>
 <path fill="none" stroke="rgb(255,0,0)" stroke-linejoin="round" d="M 8745,10861 L 8845,10961 8945,10861 8845,10761 8745,10861 Z"/>
 <path fill="rgb(255,0,0)" stroke="none" d="M 8796,10780 L 8896,10880 8996,10780 8896,10680 8796,10780 Z"/>
 <path fill="none" stroke="rgb(255,0,0)" stroke-linejoin="round" d="M 8796,10780 L 8896,10880 8996,10780 8896,10680 8796,10780 Z"/>
 <path fill="rgb(255,0,0)" stroke="none" d="M 8848,10774 L 8948,10874 9048,10774 8948,10674 8848,10774 Z"/>
 <path fill="none" stroke="rgb(255,0,0)" stroke-linejoin="round" d="M 8848,10774 L 8948,10874 9048,10774 8948,10674 8848,10774 Z"/>
 <path fill="rgb(255,0,0)" stroke="none" d="M 8899,11007 L 8999,11107 9099,11007 8999,10907 8899,11007 Z"/>
 <path fill="none" stroke="rgb(255,0,0)" stroke-linejoin="round" d="M 8899,11007 L 8999,11107 9099,11007 8999,10907 8899,11007 Z"/>
 <path fill="rgb(255,0,0)" stroke="none" d="M 8950,11007 L 9050,11107 9150,11007 9050,10907 8950,11007 Z"/>
 <path fill="none" stroke="rgb(255,0,0)" stroke-linejoin="round" d="M 8950,11007 L 9050,11107 9150,11007 9050,10907 8950,11007 Z"/>
 <path fill="rgb(255,0,0)" stroke="none" d="M 9001,10244 L 9101,10344 9201,10244 9101,10144 9001,10244 Z"/>
 <path fill="none" stroke="rgb(255,0,0)" stroke-linejoin="round" d="M 9001,10244 L 9101,10344 9201,10244 9101,10144 9001,10244 Z"/>
 <path fill="rgb(255,0,0)" stroke="none" d="M 9052,10781 L 9152,10881 9252,10781 9152,10681 9052,10781 Z"/>
 <path fill="none" stroke="rgb(255,0,0)" stroke-linejoin="round" d="M 9052,10781 L 9152,10881 9252,10781 9152,10681 9052,10781 Z"/>
 <path fill="rgb(255,0,0)" stroke="none" d="M 9104,10781 L 9204,10881 9304,10781 9204,10681 9104,10781 Z"/>
 <path fill="none" stroke="rgb(255,0,0)" stroke-linejoin="round" d="M 9104,10781 L 9204,10881 9304,10781 9204,10681 9104,10781 Z"/>
 <path fill="rgb(255,0,0)" stroke="none" d="M 9155,10571 L 9255,10671 9355,10571 9255,10471 9155,10571 Z"/>
 <path fill="none" stroke="rgb(255,0,0)" stroke-linejoin="round" d="M 9155,10571 L 9255,10671 9355,10571 9255,10471 9155,10571 Z"/>
 <path fill="rgb(255,0,0)" stroke="none" d="M 9206,10631 L 9306,10731 9406,10631 9306,10531 9206,10631 Z"/>
 <path fill="none" stroke="rgb(255,0,0)" stroke-linejoin="round" d="M 9206,10631 L 9306,10731 9406,10631 9306,10531 9206,10631 Z"/>
 <path fill="rgb(255,0,0)" stroke="none" d="M 9257,11007 L 9357,11107 9457,11007 9357,10907 9257,11007 Z"/>
 <path fill="none" stroke="rgb(255,0,0)" stroke-linejoin="round" d="M 9257,11007 L 9357,11107 9457,11007 9357,10907 9257,11007 Z"/>
 <path fill="rgb(255,0,0)" stroke="none" d="M 9309,11007 L 9409,11107 9509,11007 9409,10907 9309,11007 Z"/>
 <path fill="none" stroke="rgb(255,0,0)" stroke-linejoin="round" d="M 9309,11007 L 9409,11107 9509,11007 9409,10907 9309,11007 Z"/>
 <path fill="rgb(255,0,0)" stroke="none" d="M 9360,9948 L 9460,10048 9560,9948 9460,9848 9360,9948 Z"/>
 <path fill="none" stroke="rgb(255,0,0)" stroke-linejoin="round" d="M 9360,9948 L 9460,10048 9560,9948 9460,9848 9360,9948 Z"/>
 <path fill="rgb(255,0,0)" stroke="none" d="M 9411,10702 L 9511,10802 9611,10702 9511,10602 9411,10702 Z"/>
 <path fill="none" stroke="rgb(255,0,0)" stroke-linejoin="round" d="M 9411,10702 L 9511,10802 9611,10702 9511,10602 9411,10702 Z"/>
 <path fill="rgb(255,0,0)" stroke="none" d="M 9462,10669 L 9562,10769 9662,10669 9562,10569 9462,10669 Z"/>
 <path fill="none" stroke="rgb(255,0,0)" stroke-linejoin="round" d="M 9462,10669 L 9562,10769 9662,10669 9562,10569 9462,10669 Z"/>
 <path fill="rgb(255,0,0)" stroke="none" d="M 9513,10543 L 9613,10643 9713,10543 9613,10443 9513,10543 Z"/>
 <path fill="none" stroke="rgb(255,0,0)" stroke-linejoin="round" d="M 9513,10543 L 9613,10643 9713,10543 9613,10443 9513,10543 Z"/>
 <path fill="rgb(255,0,0)" stroke="none" d="M 9565,10492 L 9665,10592 9765,10492 9665,10392 9565,10492 Z"/>
 <path fill="none" stroke="rgb(255,0,0)" stroke-linejoin="round" d="M 9565,10492 L 9665,10592 9765,10492 9665,10392 9565,10492 Z"/>
 <path fill="rgb(255,0,0)" stroke="none" d="M 9616,11007 L 9716,11107 9816,11007 9716,10907 9616,11007 Z"/>
 <path fill="none" stroke="rgb(255,0,0)" stroke-linejoin="round" d="M 9616,11007 L 9716,11107 9816,11007 9716,10907 9616,11007 Z"/>
 <path fill="rgb(255,0,0)" stroke="none" d="M 9667,11007 L 9767,11107 9867,11007 9767,10907 9667,11007 Z"/>
 <path fill="none" stroke="rgb(255,0,0)" stroke-linejoin="round" d="M 9667,11007 L 9767,11107 9867,11007 9767,10907 9667,11007 Z"/>
 <path fill="rgb(255,0,0)" stroke="none" d="M 9718,9587 L 9818,9687 9918,9587 9818,9487 9718,9587 Z"/>
 <path fill="none" stroke="rgb(255,0,0)" stroke-linejoin="round" d="M 9718,9587 L 9818,9687 9918,9587 9818,9487 9718,9587 Z"/>
 <path fill="rgb(255,0,0)" stroke="none" d="M 9769,10048 L 9869,10148 9969,10048 9869,9948 9769,10048 Z"/>
 <path fill="none" stroke="rgb(255,0,0)" stroke-linejoin="round" d="M 9769,10048 L 9869,10148 9969,10048 9869,9948 9769,10048 Z"/>
 <path fill="rgb(255,0,0)" stroke="none" d="M 9821,10515 L 9921,10615 10021,10515 9921,10415 9821,10515 Z"/>
 <path fill="none" stroke="rgb(255,0,0)" stroke-linejoin="round" d="M 9821,10515 L 9921,10615 10021,10515 9921,10415 9821,10515 Z"/>
 <path fill="rgb(255,0,0)" stroke="none" d="M 9872,10326 L 9972,10426 10072,10326 9972,10226 9872,10326 Z"/>
 <path fill="none" stroke="rgb(255,0,0)" stroke-linejoin="round" d="M 9872,10326 L 9972,10426 10072,10326 9972,10226 9872,10326 Z"/>
 <path fill="rgb(255,0,0)" stroke="none" d="M 9923,10257 L 10023,10357 10123,10257 10023,10157 9923,10257 Z"/>
 <path fill="none" stroke="rgb(255,0,0)" stroke-linejoin="round" d="M 9923,10257 L 10023,10357 10123,10257 10023,10157 9923,10257 Z"/>
 <path fill="rgb(255,0,0)" stroke="none" d="M 9974,11007 L 10074,11107 10174,11007 10074,10907 9974,11007 Z"/>
 <path fill="none" stroke="rgb(255,0,0)" stroke-linejoin="round" d="M 9974,11007 L 10074,11107 10174,11007 10074,10907 9974,11007 Z"/>
 <path fill="rgb(255,0,0)" stroke="none" d="M 10025,11007 L 10125,11107 10225,11007 10125,10907 10025,11007 Z"/>
 <path fill="none" stroke="rgb(255,0,0)" stroke-linejoin="round" d="M 10025,11007 L 10125,11107 10225,11007 10125,10907 10025,11007 Z"/>
 <path fill="rgb(255,0,0)" stroke="none" d="M 10077,9573 L 10177,9673 10277,9573 10177,9473 10077,9573 Z"/>
 <path fill="none" stroke="rgb(255,0,0)" stroke-linejoin="round" d="M 10077,9573 L 10177,9673 10277,9573 10177,9473 10077,9573 Z"/>
 <path fill="rgb(255,0,0)" stroke="none" d="M 10128,10402 L 10228,10502 10328,10402 10228,10302 10128,10402 Z"/>
 <path fill="none" stroke="rgb(255,0,0)" stroke-linejoin="round" d="M 10128,10402 L 10228,10502 10328,10402 10228,10302 10128,10402 Z"/>
 <path fill="rgb(255,0,0)" stroke="none" d="M 10179,10479 L 10279,10579 10379,10479 10279,10379 10179,10479 Z"/>
 <path fill="none" stroke="rgb(255,0,0)" stroke-linejoin="round" d="M 10179,10479 L 10279,10579 10379,10479 10279,10379 10179,10479 Z"/>
 <path fill="rgb(255,0,0)" stroke="none" d="M 10230,9750 L 10330,9850 10430,9750 10330,9650 10230,9750 Z"/>
 <path fill="none" stroke="rgb(255,0,0)" stroke-linejoin="round" d="M 10230,9750 L 10330,9850 10430,9750 10330,9650 10230,9750 Z"/>
 <path fill="rgb(255,0,0)" stroke="none" d="M 10281,10095 L 10381,10195 10481,10095 10381,9995 10281,10095 Z"/>
 <path fill="none" stroke="rgb(255,0,0)" stroke-linejoin="round" d="M 10281,10095 L 10381,10195 10481,10095 10381,9995 10281,10095 Z"/>
 <path fill="rgb(255,0,0)" stroke="none" d="M 10333,11007 L 10433,11107 10533,11007 10433,10907 10333,11007 Z"/>
 <path fill="none" stroke="rgb(255,0,0)" stroke-linejoin="round" d="M 10333,11007 L 10433,11107 10533,11007 10433,10907 10333,11007 Z"/>
 <path fill="rgb(255,0,0)" stroke="none" d="M 10384,11007 L 10484,11107 10584,11007 10484,10907 10384,11007 Z"/>
 <path fill="none" stroke="rgb(255,0,0)" stroke-linejoin="round" d="M 10384,11007 L 10484,11107 10584,11007 10484,10907 10384,11007 Z"/>
 <path fill="rgb(255,0,0)" stroke="none" d="M 10435,8300 L 10535,8400 10635,8300 10535,8200 10435,8300 Z"/>
 <path fill="none" stroke="rgb(255,0,0)" stroke-linejoin="round" d="M 10435,8300 L 10535,8400 10635,8300 10535,8200 10435,8300 Z"/>
 <path fill="rgb(255,0,0)" stroke="none" d="M 10486,10156 L 10586,10256 10686,10156 10586,10056 10486,10156 Z"/>
 <path fill="none" stroke="rgb(255,0,0)" stroke-linejoin="round" d="M 10486,10156 L 10586,10256 10686,10156 10586,10056 10486,10156 Z"/>
 <path fill="rgb(255,0,0)" stroke="none" d="M 10537,9897 L 10637,9997 10737,9897 10637,9797 10537,9897 Z"/>
 <path fill="none" stroke="rgb(255,0,0)" stroke-linejoin="round" d="M 10537,9897 L 10637,9997 10737,9897 10637,9797 10537,9897 Z"/>
 <path fill="rgb(255,0,0)" stroke="none" d="M 10589,9835 L 10689,9935 10789,9835 10689,9735 10589,9835 Z"/>
 <path fill="none" stroke="rgb(255,0,0)" stroke-linejoin="round" d="M 10589,9835 L 10689,9935 10789,9835 10689,9735 10589,9835 Z"/>
 <path fill="rgb(255,0,0)" stroke="none" d="M 10640,9651 L 10740,9751 10840,9651 10740,9551 10640,9651 Z"/>
 <path fill="none" stroke="rgb(255,0,0)" stroke-linejoin="round" d="M 10640,9651 L 10740,9751 10840,9651 10740,9551 10640,9651 Z"/>
 <path fill="rgb(255,0,0)" stroke="none" d="M 10691,11007 L 10791,11107 10891,11007 10791,10907 10691,11007 Z"/>
 <path fill="none" stroke="rgb(255,0,0)" stroke-linejoin="round" d="M 10691,11007 L 10791,11107 10891,11007 10791,10907 10691,11007 Z"/>
 <path fill="rgb(255,0,0)" stroke="none" d="M 10742,11007 L 10842,11107 10942,11007 10842,10907 10742,11007 Z"/>
 <path fill="none" stroke="rgb(255,0,0)" stroke-linejoin="round" d="M 10742,11007 L 10842,11107 10942,11007 10842,10907 10742,11007 Z"/>
 <path fill="rgb(255,0,0)" stroke="none" d="M 10793,7782 L 10893,7882 10993,7782 10893,7682 10793,7782 Z"/>
 <path fill="none" stroke="rgb(255,0,0)" stroke-linejoin="round" d="M 10793,7782 L 10893,7882 10993,7782 10893,7682 10793,7782 Z"/>
 <path fill="rgb(255,0,0)" stroke="none" d="M 10845,9822 L 10945,9922 11045,9822 10945,9722 10845,9822 Z"/>
 <path fill="none" stroke="rgb(255,0,0)" stroke-linejoin="round" d="M 10845,9822 L 10945,9922 11045,9822 10945,9722 10845,9822 Z"/>
 <path fill="rgb(255,0,0)" stroke="none" d="M 10896,9793 L 10996,9893 11096,9793 10996,9693 10896,9793 Z"/>
 <path fill="none" stroke="rgb(255,0,0)" stroke-linejoin="round" d="M 10896,9793 L 10996,9893 11096,9793 10996,9693 10896,9793 Z"/>
 <path fill="rgb(255,0,0)" stroke="none" d="M 10947,9400 L 11047,9500 11147,9400 11047,9300 10947,9400 Z"/>
 <path fill="none" stroke="rgb(255,0,0)" stroke-linejoin="round" d="M 10947,9400 L 11047,9500 11147,9400 11047,9300 10947,9400 Z"/>
 <path fill="rgb(255,0,0)" stroke="none" d="M 10998,9380 L 11098,9480 11198,9380 11098,9280 10998,9380 Z"/>
 <path fill="none" stroke="rgb(255,0,0)" stroke-linejoin="round" d="M 10998,9380 L 11098,9480 11198,9380 11098,9280 10998,9380 Z"/>
 <path fill="rgb(255,0,0)" stroke="none" d="M 11049,11007 L 11149,11107 11249,11007 11149,10907 11049,11007 Z"/>
 <path fill="none" stroke="rgb(255,0,0)" stroke-linejoin="round" d="M 11049,11007 L 11149,11107 11249,11007 11149,10907 11049,11007 Z"/>
 <path fill="rgb(255,0,0)" stroke="none" d="M 11101,11007 L 11201,11107 11301,11007 11201,10907 11101,11007 Z"/>
 <path fill="none" stroke="rgb(255,0,0)" stroke-linejoin="round" d="M 11101,11007 L 11201,11107 11301,11007 11201,10907 11101,11007 Z"/>
 <path fill="rgb(255,0,0)" stroke="none" d="M 11152,7085 L 11252,7185 11352,7085 11252,6985 11152,7085 Z"/>
 <path fill="none" stroke="rgb(255,0,0)" stroke-linejoin="round" d="M 11152,7085 L 11252,7185 11352,7085 11252,6985 11152,7085 Z"/>
 <path fill="rgb(255,0,0)" stroke="none" d="M 11203,9656 L 11303,9756 11403,9656 11303,9556 11203,9656 Z"/>
 <path fill="none" stroke="rgb(255,0,0)" stroke-linejoin="round" d="M 11203,9656 L 11303,9756 11403,9656 11303,9556 11203,9656 Z"/>
 <path fill="rgb(255,0,0)" stroke="none" d="M 11254,9579 L 11354,9679 11454,9579 11354,9479 11254,9579 Z"/>
 <path fill="none" stroke="rgb(255,0,0)" stroke-linejoin="round" d="M 11254,9579 L 11354,9679 11454,9579 11354,9479 11254,9579 Z"/>
 <path fill="rgb(255,0,0)" stroke="none" d="M 11305,9516 L 11405,9616 11505,9516 11405,9416 11305,9516 Z"/>
 <path fill="none" stroke="rgb(255,0,0)" stroke-linejoin="round" d="M 11305,9516 L 11405,9616 11505,9516 11405,9416 11305,9516 Z"/>
 <path fill="rgb(255,0,0)" stroke="none" d="M 11357,9264 L 11457,9364 11557,9264 11457,9164 11357,9264 Z"/>
 <path fill="none" stroke="rgb(255,0,0)" stroke-linejoin="round" d="M 11357,9264 L 11457,9364 11557,9264 11457,9164 11357,9264 Z"/>
 <path fill="rgb(255,0,0)" stroke="none" d="M 11408,11007 L 11508,11107 11608,11007 11508,10907 11408,11007 Z"/>
 <path fill="none" stroke="rgb(255,0,0)" stroke-linejoin="round" d="M 11408,11007 L 11508,11107 11608,11007 11508,10907 11408,11007 Z"/>
 <path fill="rgb(255,0,0)" stroke="none" d="M 11459,11007 L 11559,11107 11659,11007 11559,10907 11459,11007 Z"/>
 <path fill="none" stroke="rgb(255,0,0)" stroke-linejoin="round" d="M 11459,11007 L 11559,11107 11659,11007 11559,10907 11459,11007 Z"/>
 <path fill="rgb(255,0,0)" stroke="none" d="M 11510,6588 L 11610,6688 11710,6588 11610,6488 11510,6588 Z"/>
 <path fill="none" stroke="rgb(255,0,0)" stroke-linejoin="round" d="M 11510,6588 L 11610,6688 11710,6588 11610,6488 11510,6588 Z"/>
 <path fill="rgb(255,0,0)" stroke="none" d="M 11561,9515 L 11661,9615 11761,9515 11661,9415 11561,9515 Z"/>
 <path fill="none" stroke="rgb(255,0,0)" stroke-linejoin="round" d="M 11561,9515 L 11661,9615 11761,9515 11661,9415 11561,9515 Z"/>
 <path fill="rgb(255,0,0)" stroke="none" d="M 11613,9531 L 11713,9631 11813,9531 11713,9431 11613,9531 Z"/>
 <path fill="none" stroke="rgb(255,0,0)" stroke-linejoin="round" d="M 11613,9531 L 11713,9631 11813,9531 11713,9431 11613,9531 Z"/>
 <path fill="rgb(255,0,0)" stroke="none" d="M 11664,9216 L 11764,9316 11864,9216 11764,9116 11664,9216 Z"/>
 <path fill="none" stroke="rgb(255,0,0)" stroke-linejoin="round" d="M 11664,9216 L 11764,9316 11864,9216 11764,9116 11664,9216 Z"/>
 <path fill="rgb(255,0,0)" stroke="none" d="M 11715,8980 L 11815,9080 11915,8980 11815,8880 11715,8980 Z"/>
 <path fill="none" stroke="rgb(255,0,0)" stroke-linejoin="round" d="M 11715,8980 L 11815,9080 11915,8980 11815,8880 11715,8980 Z"/>
 <path fill="rgb(255,0,0)" stroke="none" d="M 11766,11007 L 11866,11107 11966,11007 11866,10907 11766,11007 Z"/>
 <path fill="none" stroke="rgb(255,0,0)" stroke-linejoin="round" d="M 11766,11007 L 11866,11107 11966,11007 11866,10907 11766,11007 Z"/>
 <path fill="rgb(255,0,0)" stroke="none" d="M 11817,11007 L 11917,11107 12017,11007 11917,10907 11817,11007 Z"/>
 <path fill="none" stroke="rgb(255,0,0)" stroke-linejoin="round" d="M 11817,11007 L 11917,11107 12017,11007 11917,10907 11817,11007 Z"/>
 <path fill="rgb(255,0,0)" stroke="none" d="M 11869,6447 L 11969,6547 12069,6447 11969,6347 11869,6447 Z"/>
 <path fill="none" stroke="rgb(255,0,0)" stroke-linejoin="round" d="M 11869,6447 L 11969,6547 12069,6447 11969,6347 11869,6447 Z"/>
 <path fill="rgb(255,0,0)" stroke="none" d="M 11920,9436 L 12020,9536 12120,9436 12020,9336 11920,9436 Z"/>
 <path fill="none" stroke="rgb(255,0,0)" stroke-linejoin="round" d="M 11920,9436 L 12020,9536 12120,9436 12020,9336 11920,9436 Z"/>
 <path fill="rgb(255,0,0)" stroke="none" d="M 11971,9144 L 12071,9244 12171,9144 12071,9044 11971,9144 Z"/>
 <path fill="none" stroke="rgb(255,0,0)" stroke-linejoin="round" d="M 11971,9144 L 12071,9244 12171,9144 12071,9044 11971,9144 Z"/>
 <path fill="rgb(255,0,0)" stroke="none" d="M 12022,9128 L 12122,9228 12222,9128 12122,9028 12022,9128 Z"/>
 <path fill="none" stroke="rgb(255,0,0)" stroke-linejoin="round" d="M 12022,9128 L 12122,9228 12222,9128 12122,9028 12022,9128 Z"/>
 <path fill="rgb(255,0,0)" stroke="none" d="M 12074,8613 L 12174,8713 12274,8613 12174,8513 12074,8613 Z"/>
 <path fill="none" stroke="rgb(255,0,0)" stroke-linejoin="round" d="M 12074,8613 L 12174,8713 12274,8613 12174,8513 12074,8613 Z"/>
 <path fill="rgb(255,0,0)" stroke="none" d="M 12125,11007 L 12225,11107 12325,11007 12225,10907 12125,11007 Z"/>
 <path fill="none" stroke="rgb(255,0,0)" stroke-linejoin="round" d="M 12125,11007 L 12225,11107 12325,11007 12225,10907 12125,11007 Z"/>
 <path fill="rgb(255,0,0)" stroke="none" d="M 12176,11007 L 12276,11107 12376,11007 12276,10907 12176,11007 Z"/>
 <path fill="none" stroke="rgb(255,0,0)" stroke-linejoin="round" d="M 12176,11007 L 12276,11107 12376,11007 12276,10907 12176,11007 Z"/>
 <path fill="rgb(255,0,0)" stroke="none" d="M 12227,5779 L 12327,5879 12427,5779 12327,5679 12227,5779 Z"/>
 <path fill="none" stroke="rgb(255,0,0)" stroke-linejoin="round" d="M 12227,5779 L 12327,5879 12427,5779 12327,5679 12227,5779 Z"/>
 <path fill="rgb(255,0,0)" stroke="none" d="M 12278,9210 L 12378,9310 12478,9210 12378,9110 12278,9210 Z"/>
 <path fill="none" stroke="rgb(255,0,0)" stroke-linejoin="round" d="M 12278,9210 L 12378,9310 12478,9210 12378,9110 12278,9210 Z"/>
 <path fill="rgb(255,0,0)" stroke="none" d="M 12330,9128 L 12430,9228 12530,9128 12430,9028 12330,9128 Z"/>
 <path fill="none" stroke="rgb(255,0,0)" stroke-linejoin="round" d="M 12330,9128 L 12430,9228 12530,9128 12430,9028 12330,9128 Z"/>
 <path fill="rgb(255,0,0)" stroke="none" d="M 12381,9234 L 12481,9334 12581,9234 12481,9134 12381,9234 Z"/>
 <path fill="none" stroke="rgb(255,0,0)" stroke-linejoin="round" d="M 12381,9234 L 12481,9334 12581,9234 12481,9134 12381,9234 Z"/>
 <path fill="rgb(255,0,0)" stroke="none" d="M 12432,8965 L 12532,9065 12632,8965 12532,8865 12432,8965 Z"/>
 <path fill="none" stroke="rgb(255,0,0)" stroke-linejoin="round" d="M 12432,8965 L 12532,9065 12632,8965 12532,8865 12432,8965 Z"/>
 <path fill="rgb(255,0,0)" stroke="none" d="M 12483,11007 L 12583,11107 12683,11007 12583,10907 12483,11007 Z"/>
 <path fill="none" stroke="rgb(255,0,0)" stroke-linejoin="round" d="M 12483,11007 L 12583,11107 12683,11007 12583,10907 12483,11007 Z"/>
 <path fill="rgb(255,0,0)" stroke="none" d="M 12534,11007 L 12634,11107 12734,11007 12634,10907 12534,11007 Z"/>
 <path fill="none" stroke="rgb(255,0,0)" stroke-linejoin="round" d="M 12534,11007 L 12634,11107 12734,11007 12634,10907 12534,11007 Z"/>
 <path fill="rgb(255,0,0)" stroke="none" d="M 12586,5720 L 12686,5820 12786,5720 12686,5620 12586,5720 Z"/>
 <path fill="none" stroke="rgb(255,0,0)" stroke-linejoin="round" d="M 12586,5720 L 12686,5820 12786,5720 12686,5620 12586,5720 Z"/>
 <path fill="rgb(255,0,0)" stroke="none" d="M 12637,9358 L 12737,9458 12837,9358 12737,9258 12637,9358 Z"/>
 <path fill="none" stroke="rgb(255,0,0)" stroke-linejoin="round" d="M 12637,9358 L 12737,9458 12837,9358 12737,9258 12637,9358 Z"/>
 <path fill="rgb(255,0,0)" stroke="none" d="M 12688,9174 L 12788,9274 12888,9174 12788,9074 12688,9174 Z"/>
 <path fill="none" stroke="rgb(255,0,0)" stroke-linejoin="round" d="M 12688,9174 L 12788,9274 12888,9174 12788,9074 12688,9174 Z"/>
 <path fill="rgb(255,0,0)" stroke="none" d="M 12739,9439 L 12839,9539 12939,9439 12839,9339 12739,9439 Z"/>
 <path fill="none" stroke="rgb(255,0,0)" stroke-linejoin="round" d="M 12739,9439 L 12839,9539 12939,9439 12839,9339 12739,9439 Z"/>
 <path fill="rgb(255,0,0)" stroke="none" d="M 12790,9122 L 12890,9222 12990,9122 12890,9022 12790,9122 Z"/>
 <path fill="none" stroke="rgb(255,0,0)" stroke-linejoin="round" d="M 12790,9122 L 12890,9222 12990,9122 12890,9022 12790,9122 Z"/>
 <path fill="rgb(255,0,0)" stroke="none" d="M 12842,11007 L 12942,11107 13042,11007 12942,10907 12842,11007 Z"/>
 <path fill="none" stroke="rgb(255,0,0)" stroke-linejoin="round" d="M 12842,11007 L 12942,11107 13042,11007 12942,10907 12842,11007 Z"/>
 <path fill="rgb(255,0,0)" stroke="none" d="M 12893,11007 L 12993,11107 13093,11007 12993,10907 12893,11007 Z"/>
 <path fill="none" stroke="rgb(255,0,0)" stroke-linejoin="round" d="M 12893,11007 L 12993,11107 13093,11007 12993,10907 12893,11007 Z"/>
 <path fill="rgb(255,0,0)" stroke="none" d="M 12944,7100 L 13044,7200 13144,7100 13044,7000 12944,7100 Z"/>
 <path fill="none" stroke="rgb(255,0,0)" stroke-linejoin="round" d="M 12944,7100 L 13044,7200 13144,7100 13044,7000 12944,7100 Z"/>
 <path fill="rgb(255,0,0)" stroke="none" d="M 12995,9010 L 13095,9110 13195,9010 13095,8910 12995,9010 Z"/>
 <path fill="none" stroke="rgb(255,0,0)" stroke-linejoin="round" d="M 12995,9010 L 13095,9110 13195,9010 13095,8910 12995,9010 Z"/>
 <path fill="rgb(255,0,0)" stroke="none" d="M 13046,9261 L 13146,9361 13246,9261 13146,9161 13046,9261 Z"/>
 <path fill="none" stroke="rgb(255,0,0)" stroke-linejoin="round" d="M 13046,9261 L 13146,9361 13246,9261 13146,9161 13046,9261 Z"/>
 <path fill="rgb(255,0,0)" stroke="none" d="M 13098,8940 L 13198,9040 13298,8940 13198,8840 13098,8940 Z"/>
 <path fill="none" stroke="rgb(255,0,0)" stroke-linejoin="round" d="M 13098,8940 L 13198,9040 13298,8940 13198,8840 13098,8940 Z"/>
 <path fill="rgb(255,0,0)" stroke="none" d="M 13149,8879 L 13249,8979 13349,8879 13249,8779 13149,8879 Z"/>
 <path fill="none" stroke="rgb(255,0,0)" stroke-linejoin="round" d="M 13149,8879 L 13249,8979 13349,8879 13249,8779 13149,8879 Z"/>
 <path fill="rgb(255,0,0)" stroke="none" d="M 13200,11007 L 13300,11107 13400,11007 13300,10907 13200,11007 Z"/>
 <path fill="none" stroke="rgb(255,0,0)" stroke-linejoin="round" d="M 13200,11007 L 13300,11107 13400,11007 13300,10907 13200,11007 Z"/>
 <path fill="rgb(255,0,0)" stroke="none" d="M 13251,11007 L 13351,11107 13451,11007 13351,10907 13251,11007 Z"/>
 <path fill="none" stroke="rgb(255,0,0)" stroke-linejoin="round" d="M 13251,11007 L 13351,11107 13451,11007 13351,10907 13251,11007 Z"/>
 <path fill="rgb(255,0,0)" stroke="none" d="M 13302,6372 L 13402,6472 13502,6372 13402,6272 13302,6372 Z"/>
 <path fill="none" stroke="rgb(255,0,0)" stroke-linejoin="round" d="M 13302,6372 L 13402,6472 13502,6372 13402,6272 13302,6372 Z"/>
 <path fill="rgb(255,0,0)" stroke="none" d="M 13354,9822 L 13454,9922 13554,9822 13454,9722 13354,9822 Z"/>
 <path fill="none" stroke="rgb(255,0,0)" stroke-linejoin="round" d="M 13354,9822 L 13454,9922 13554,9822 13454,9722 13354,9822 Z"/>
 <path fill="rgb(255,0,0)" stroke="none" d="M 13405,9015 L 13505,9115 13605,9015 13505,8915 13405,9015 Z"/>
 <path fill="none" stroke="rgb(255,0,0)" stroke-linejoin="round" d="M 13405,9015 L 13505,9115 13605,9015 13505,8915 13405,9015 Z"/>
 <path fill="rgb(255,0,0)" stroke="none" d="M 13456,8791 L 13556,8891 13656,8791 13556,8691 13456,8791 Z"/>
 <path fill="none" stroke="rgb(255,0,0)" stroke-linejoin="round" d="M 13456,8791 L 13556,8891 13656,8791 13556,8691 13456,8791 Z"/>
 <path fill="rgb(255,0,0)" stroke="none" d="M 13507,8480 L 13607,8580 13707,8480 13607,8380 13507,8480 Z"/>
 <path fill="none" stroke="rgb(255,0,0)" stroke-linejoin="round" d="M 13507,8480 L 13607,8580 13707,8480 13607,8380 13507,8480 Z"/>
 <path fill="rgb(255,0,0)" stroke="none" d="M 13558,11007 L 13658,11107 13758,11007 13658,10907 13558,11007 Z"/>
 <path fill="none" stroke="rgb(255,0,0)" stroke-linejoin="round" d="M 13558,11007 L 13658,11107 13758,11007 13658,10907 13558,11007 Z"/>
 <path fill="rgb(255,0,0)" stroke="none" d="M 13610,11007 L 13710,11107 13810,11007 13710,10907 13610,11007 Z"/>
 <path fill="none" stroke="rgb(255,0,0)" stroke-linejoin="round" d="M 13610,11007 L 13710,11107 13810,11007 13710,10907 13610,11007 Z"/>
 <path fill="rgb(255,0,0)" stroke="none" d="M 13661,4704 L 13761,4804 13861,4704 13761,4604 13661,4704 Z"/>
 <path fill="none" stroke="rgb(255,0,0)" stroke-linejoin="round" d="M 13661,4704 L 13761,4804 13861,4704 13761,4604 13661,4704 Z"/>
 <path fill="rgb(255,0,0)" stroke="none" d="M 13712,8698 L 13812,8798 13912,8698 13812,8598 13712,8698 Z"/>
 <path fill="none" stroke="rgb(255,0,0)" stroke-linejoin="round" d="M 13712,8698 L 13812,8798 13912,8698 13812,8598 13712,8698 Z"/>
 <path fill="rgb(255,0,0)" stroke="none" d="M 13763,8183 L 13863,8283 13963,8183 13863,8083 13763,8183 Z"/>
 <path fill="none" stroke="rgb(255,0,0)" stroke-linejoin="round" d="M 13763,8183 L 13863,8283 13963,8183 13863,8083 13763,8183 Z"/>
 <path fill="rgb(255,0,0)" stroke="none" d="M 13814,7515 L 13914,7615 14014,7515 13914,7415 13814,7515 Z"/>
 <path fill="none" stroke="rgb(255,0,0)" stroke-linejoin="round" d="M 13814,7515 L 13914,7615 14014,7515 13914,7415 13814,7515 Z"/>
 <path fill="rgb(255,0,0)" stroke="none" d="M 13866,7704 L 13966,7804 14066,7704 13966,7604 13866,7704 Z"/>
 <path fill="none" stroke="rgb(255,0,0)" stroke-linejoin="round" d="M 13866,7704 L 13966,7804 14066,7704 13966,7604 13866,7704 Z"/>
 <path fill="rgb(255,0,0)" stroke="none" d="M 13917,11007 L 14017,11107 14117,11007 14017,10907 13917,11007 Z"/>
 <path fill="none" stroke="rgb(255,0,0)" stroke-linejoin="round" d="M 13917,11007 L 14017,11107 14117,11007 14017,10907 13917,11007 Z"/>
 <path fill="rgb(255,0,0)" stroke="none" d="M 13968,11007 L 14068,11107 14168,11007 14068,10907 13968,11007 Z"/>
 <path fill="none" stroke="rgb(255,0,0)" stroke-linejoin="round" d="M 13968,11007 L 14068,11107 14168,11007 14068,10907 13968,11007 Z"/>
 <path fill="rgb(255,0,0)" stroke="none" d="M 14019,2325 L 14119,2425 14219,2325 14119,2225 14019,2325 Z"/>
 <path fill="none" stroke="rgb(255,0,0)" stroke-linejoin="round" d="M 14019,2325 L 14119,2425 14219,2325 14119,2225 14019,2325 Z"/>
 <path fill="rgb(255,0,0)" stroke="none" d="M 14070,7942 L 14170,8042 14270,7942 14170,7842 14070,7942 Z"/>
 <path fill="none" stroke="rgb(255,0,0)" stroke-linejoin="round" d="M 14070,7942 L 14170,8042 14270,7942 14170,7842 14070,7942 Z"/>
 <path fill="rgb(255,0,0)" stroke="none" d="M 14122,7718 L 14222,7818 14322,7718 14222,7618 14122,7718 Z"/>
 <path fill="none" stroke="rgb(255,0,0)" stroke-linejoin="round" d="M 14122,7718 L 14222,7818 14322,7718 14222,7618 14122,7718 Z"/>
 <path fill="rgb(255,0,0)" stroke="none" d="M 14173,7084 L 14273,7184 14373,7084 14273,6984 14173,7084 Z"/>
 <path fill="none" stroke="rgb(255,0,0)" stroke-linejoin="round" d="M 14173,7084 L 14273,7184 14373,7084 14273,6984 14173,7084 Z"/>
 <path fill="rgb(255,0,0)" stroke="none" d="M 14224,6748 L 14324,6848 14424,6748 14324,6648 14224,6748 Z"/>
 <path fill="none" stroke="rgb(255,0,0)" stroke-linejoin="round" d="M 14224,6748 L 14324,6848 14424,6748 14324,6648 14224,6748 Z"/>
 <path fill="rgb(255,0,0)" stroke="none" d="M 14275,11007 L 14375,11107 14475,11007 14375,10907 14275,11007 Z"/>
 <path fill="none" stroke="rgb(255,0,0)" stroke-linejoin="round" d="M 14275,11007 L 14375,11107 14475,11007 14375,10907 14275,11007 Z"/>
 <path fill="rgb(255,0,0)" stroke="none" d="M 14326,11007 L 14426,11107 14526,11007 14426,10907 14326,11007 Z"/>
 <path fill="none" stroke="rgb(255,0,0)" stroke-linejoin="round" d="M 14326,11007 L 14426,11107 14526,11007 14426,10907 14326,11007 Z"/>
 <path fill="rgb(255,0,0)" stroke="none" d="M 14378,1854 L 14478,1954 14578,1854 14478,1754 14378,1854 Z"/>
 <path fill="none" stroke="rgb(255,0,0)" stroke-linejoin="round" d="M 14378,1854 L 14478,1954 14578,1854 14478,1754 14378,1854 Z"/>
 <path fill="rgb(255,0,0)" stroke="none" d="M 14429,7901 L 14529,8001 14629,7901 14529,7801 14429,7901 Z"/>
 <path fill="none" stroke="rgb(255,0,0)" stroke-linejoin="round" d="M 14429,7901 L 14529,8001 14629,7901 14529,7801 14429,7901 Z"/>
 <path fill="rgb(255,0,0)" stroke="none" d="M 14480,6840 L 14580,6940 14680,6840 14580,6740 14480,6840 Z"/>
 <path fill="none" stroke="rgb(255,0,0)" stroke-linejoin="round" d="M 14480,6840 L 14580,6940 14680,6840 14580,6740 14480,6840 Z"/>
 <path fill="rgb(255,0,0)" stroke="none" d="M 14531,7362 L 14631,7462 14731,7362 14631,7262 14531,7362 Z"/>
 <path fill="none" stroke="rgb(255,0,0)" stroke-linejoin="round" d="M 14531,7362 L 14631,7462 14731,7362 14631,7262 14531,7362 Z"/>
 <path fill="rgb(255,0,0)" stroke="none" d="M 14583,7261 L 14683,7361 14783,7261 14683,7161 14583,7261 Z"/>
 <path fill="none" stroke="rgb(255,0,0)" stroke-linejoin="round" d="M 14583,7261 L 14683,7361 14783,7261 14683,7161 14583,7261 Z"/>
 <text class="TextShape"><tspan class="TextParagraph" font-family="Liberation Sans, sans-serif" font-size="353px" font-weight="400"><tspan class="TextPosition" x="947" y="11575"><tspan fill="rgb(0,0,0)" stroke="none">20/02</tspan></tspan></tspan></text>
 <text class="TextShape"><tspan class="TextParagraph" font-family="Liberation Sans, sans-serif" font-size="353px" font-weight="400"><tspan class="TextPosition" x="2431" y="11575"><tspan fill="rgb(0,0,0)" stroke="none">20/03</tspan></tspan></tspan></text>
 <text class="TextShape"><tspan class="TextParagraph" font-family="Liberation Sans, sans-serif" font-size="353px" font-weight="400"><tspan class="TextPosition" x="4019" y="11575"><tspan fill="rgb(0,0,0)" stroke="none">20/04</tspan></tspan></tspan></text>
 <text class="TextShape"><tspan class="TextParagraph" font-family="Liberation Sans, sans-serif" font-size="353px" font-weight="400"><tspan class="TextPosition" x="5555" y="11575"><tspan fill="rgb(0,0,0)" stroke="none">20/05</tspan></tspan></tspan></text>
 <text class="TextShape"><tspan class="TextParagraph" font-family="Liberation Sans, sans-serif" font-size="353px" font-weight="400"><tspan class="TextPosition" x="7142" y="11575"><tspan fill="rgb(0,0,0)" stroke="none">20/06</tspan></tspan></tspan></text>
 <text class="TextShape"><tspan class="TextParagraph" font-family="Liberation Sans, sans-serif" font-size="353px" font-weight="400"><tspan class="TextPosition" x="8678" y="11575"><tspan fill="rgb(0,0,0)" stroke="none">20/07</tspan></tspan></tspan></text>
 <text class="TextShape"><tspan class="TextParagraph" font-family="Liberation Sans, sans-serif" font-size="353px" font-weight="400"><tspan class="TextPosition" x="10266" y="11575"><tspan fill="rgb(0,0,0)" stroke="none">20/08</tspan></tspan></tspan></text>
 <text class="TextShape"><tspan class="TextParagraph" font-family="Liberation Sans, sans-serif" font-size="353px" font-weight="400"><tspan class="TextPosition" x="11853" y="11575"><tspan fill="rgb(0,0,0)" stroke="none">20/09</tspan></tspan></tspan></text>
 <text class="TextShape"><tspan class="TextParagraph" font-family="Liberation Sans, sans-serif" font-size="353px" font-weight="400"><tspan class="TextPosition" x="13389" y="11575"><tspan fill="rgb(0,0,0)" stroke="none">20/10</tspan></tspan></tspan></text>
 <text class="TextShape"><tspan class="TextParagraph" font-family="Liberation Sans, sans-serif" font-size="353px" font-weight="400"><tspan class="TextPosition" x="936" y="11128"><tspan fill="rgb(0,0,0)" stroke="none">0</tspan></tspan></tspan></text>
 <text class="TextShape"><tspan class="TextParagraph" font-family="Liberation Sans, sans-serif" font-size="353px" font-weight="400"><tspan class="TextPosition" x="89" y="9464"><tspan fill="rgb(0,0,0)" stroke="none">10.000</tspan></tspan></tspan></text>
 <text class="TextShape"><tspan class="TextParagraph" font-family="Liberation Sans, sans-serif" font-size="353px" font-weight="400"><tspan class="TextPosition" x="89" y="7800"><tspan fill="rgb(0,0,0)" stroke="none">20.000</tspan></tspan></tspan></text>
 <text class="TextShape"><tspan class="TextParagraph" font-family="Liberation Sans, sans-serif" font-size="353px" font-weight="400"><tspan class="TextPosition" x="89" y="6137"><tspan fill="rgb(0,0,0)" stroke="none">30.000</tspan></tspan></tspan></text>
 <text class="TextShape"><tspan class="TextParagraph" font-family="Liberation Sans, sans-serif" font-size="353px" font-weight="400"><tspan class="TextPosition" x="89" y="4473"><tspan fill="rgb(0,0,0)" stroke="none">40.000</tspan></tspan></tspan></text>
 <text class="TextShape"><tspan class="TextParagraph" font-family="Liberation Sans, sans-serif" font-size="353px" font-weight="400"><tspan class="TextPosition" x="89" y="2809"><tspan fill="rgb(0,0,0)" stroke="none">50.000</tspan></tspan></tspan></text>
 <text class="TextShape"><tspan class="TextParagraph" font-family="Liberation Sans, sans-serif" font-size="353px" font-weight="400"><tspan class="TextPosition" x="89" y="1146"><tspan fill="rgb(0,0,0)" stroke="none">60.000</tspan></tspan></tspan></text>
 <text class="TextShape"><tspan class="TextParagraph" font-family="Liberation Sans, sans-serif" font-size="459px" font-weight="400"><tspan class="TextPosition" x="3040" y="724"><tspan fill="rgb(0,0,0)" stroke="none">Covid-19. Nuevos contagios diarios en Espaa</tspan></tspan></tspan></text>
</svg>