<?xml version="1.0" encoding="UTF-8"?>
<!DOCTYPE svg PUBLIC "-//W3C//DTD SVG 1.1//EN" "http://www.w3.org/Graphics/SVG/1.1/DTD/svg11.dtd">
<svg width="150mm" height="120mm" viewBox="0 0 15000 12000" version="1.1" xmlns="http://www.w3.org/2000/svg" xmlns:xlink="http://www.w3.org/1999/xlink" stroke-width="28.222" stroke-linejoin="round" xml:space="preserve">
 <path fill="rgb(255,255,255)" stroke="none" d="M 7500,12000 L 0,12000 0,0 15000,0 15000,12000 7500,12000 Z"/>
 <path fill="none" stroke="rgb(0,0,0)" stroke-linejoin="round" d="M 7955,11189 L 1224,11189 1224,1028 14687,1028 14687,11189 7955,11189 Z"/>
 <path fill="none" stroke="rgb(0,0,0)" stroke-linejoin="round" d="M 14686,11188 L 1223,11188"/>
 <path fill="none" stroke="rgb(0,0,0)" stroke-linejoin="round" d="M 14686,9548 L 1223,9548"/>
 <path fill="none" stroke="rgb(0,0,0)" stroke-linejoin="round" d="M 14686,7909 L 1223,7909"/>
 <path fill="none" stroke="rgb(0,0,0)" stroke-linejoin="round" d="M 14686,6270 L 1223,6270"/>
 <path fill="none" stroke="rgb(0,0,0)" stroke-linejoin="round" d="M 14686,4632 L 1223,4632"/>
 <path fill="none" stroke="rgb(0,0,0)" stroke-linejoin="round" d="M 14686,2993 L 1223,2993"/>
 <path fill="none" stroke="rgb(0,0,0)" stroke-linejoin="round" d="M 14686,1354 L 1223,1354"/>
 <path fill="none" stroke="rgb(0,0,0)" stroke-linejoin="round" d="M 1223,11338 L 1223,11188"/>
 <path fill="none" stroke="rgb(0,0,0)" stroke-linejoin="round" d="M 1223,11338 L 1223,11188"/>
 <path fill="none" stroke="rgb(0,0,0)" stroke-linejoin="round" d="M 2319,11338 L 2319,11188"/>
 <path fill="none" stroke="rgb(0,0,0)" stroke-linejoin="round" d="M 2319,11338 L 2319,11188"/>
 <path fill="none" stroke="rgb(0,0,0)" stroke-linejoin="round" d="M 3415,11338 L 3415,11188"/>
 <path fill="none" stroke="rgb(0,0,0)" stroke-linejoin="round" d="M 3415,11338 L 3415,11188"/>
 <path fill="none" stroke="rgb(0,0,0)" stroke-linejoin="round" d="M 4511,11338 L 4511,11188"/>
 <path fill="none" stroke="rgb(0,0,0)" stroke-linejoin="round" d="M 4511,11338 L 4511,11188"/>
 <path fill="none" stroke="rgb(0,0,0)" stroke-linejoin="round" d="M 5607,11338 L 5607,11188"/>
 <path fill="none" stroke="rgb(0,0,0)" stroke-linejoin="round" d="M 5607,11338 L 5607,11188"/>
 <path fill="none" stroke="rgb(0,0,0)" stroke-linejoin="round" d="M 6703,11338 L 6703,11188"/>
 <path fill="none" stroke="rgb(0,0,0)" stroke-linejoin="round" d="M 6703,11338 L 6703,11188"/>
 <path fill="none" stroke="rgb(0,0,0)" stroke-linejoin="round" d="M 7798,11338 L 7798,11188"/>
 <path fill="none" stroke="rgb(0,0,0)" stroke-linejoin="round" d="M 7798,11338 L 7798,11188"/>
 <path fill="none" stroke="rgb(0,0,0)" stroke-linejoin="round" d="M 8894,11338 L 8894,11188"/>
 <path fill="none" stroke="rgb(0,0,0)" stroke-linejoin="round" d="M 8894,11338 L 8894,11188"/>
 <path fill="none" stroke="rgb(0,0,0)" stroke-linejoin="round" d="M 9990,11338 L 9990,11188"/>
 <path fill="none" stroke="rgb(0,0,0)" stroke-linejoin="round" d="M 9990,11338 L 9990,11188"/>
 <path fill="none" stroke="rgb(0,0,0)" stroke-linejoin="round" d="M 11086,11338 L 11086,11188"/>
 <path fill="none" stroke="rgb(0,0,0)" stroke-linejoin="round" d="M 11086,11338 L 11086,11188"/>
 <path fill="none" stroke="rgb(0,0,0)" stroke-linejoin="round" d="M 12182,11338 L 12182,11188"/>
 <path fill="none" stroke="rgb(0,0,0)" stroke-linejoin="round" d="M 12182,11338 L 12182,11188"/>
 <path fill="none" stroke="rgb(0,0,0)" stroke-linejoin="round" d="M 13277,11338 L 13277,11188"/>
 <path fill="none" stroke="rgb(0,0,0)" stroke-linejoin="round" d="M 13277,11338 L 13277,11188"/>
 <path fill="none" stroke="rgb(0,0,0)" stroke-linejoin="round" d="M 14373,11338 L 14373,11188"/>
 <path fill="none" stroke="rgb(0,0,0)" stroke-linejoin="round" d="M 14373,11338 L 14373,11188"/>
 <path fill="none" stroke="rgb(0,0,0)" stroke-linejoin="round" d="M 1223,11188 L 14686,11188"/>
 <path fill="none" stroke="rgb(0,0,0)" stroke-linejoin="round" d="M 1073,11188 L 1223,11188"/>
 <path fill="none" stroke="rgb(0,0,0)" stroke-linejoin="round" d="M 1073,11188 L 1223,11188"/>
 <path fill="none" stroke="rgb(0,0,0)" stroke-linejoin="round" d="M 1073,9548 L 1223,9548"/>
 <path fill="none" stroke="rgb(0,0,0)" stroke-linejoin="round" d="M 1073,9548 L 1223,9548"/>
 <path fill="none" stroke="rgb(0,0,0)" stroke-linejoin="round" d="M 1073,7909 L 1223,7909"/>
 <path fill="none" stroke="rgb(0,0,0)" stroke-linejoin="round" d="M 1073,7909 L 1223,7909"/>
 <path fill="none" stroke="rgb(0,0,0)" stroke-linejoin="round" d="M 1073,6270 L 1223,6270"/>
 <path fill="none" stroke="rgb(0,0,0)" stroke-linejoin="round" d="M 1073,6270 L 1223,6270"/>
 <path fill="none" stroke="rgb(0,0,0)" stroke-linejoin="round" d="M 1073,4632 L 1223,4632"/>
 <path fill="none" stroke="rgb(0,0,0)" stroke-linejoin="round" d="M 1073,4632 L 1223,4632"/>
 <path fill="none" stroke="rgb(0,0,0)" stroke-linejoin="round" d="M 1073,2993 L 1223,2993"/>
 <path fill="none" stroke="rgb(0,0,0)" stroke-linejoin="round" d="M 1073,2993 L 1223,2993"/>
 <path fill="none" stroke="rgb(0,0,0)" stroke-linejoin="round" d="M 1073,1354 L 1223,1354"/>
 <path fill="none" stroke="rgb(0,0,0)" stroke-linejoin="round" d="M 1073,1354 L 1223,1354"/>
 <path fill="none" stroke="rgb(0,0,0)" stroke-linejoin="round" d="M 1223,11188 L 1223,1027"/>
 <path fill="none" stroke="rgb(0,0,0)" stroke-width="50" stroke-linejoin="round" d="M 3650,11176 L 3807,11176 3963,11176 4120,11176 4276,11153 4433,11141 4589,11118 4746,11106 4903,11106 5059,11106 5216,11060 5372,11048 5529,11037 5685,11014 5842,10991 5999,10933 6155,10909 6312,10817 6468,10759 6625,10724 6781,10631 6938,10515 7094,10515 7251,10110 7408,9959 7563,9589 7720,9229 7876,8870 8033,8592 8189,8279 8346,8059 8502,7897 8659,7572 8816,7144 8972,6727 9129,6449 9285,6263 9442,5975 9598,5812 9755,5488 9911,5233 10068,4897 10225,4677 10381,4225 10538,4016 10694,3808 10851,3738 11007,3588 11164,3298 11320,3136 11477,2974 11634,2939 11790,2777 11947,2672 12103,2661 12260,2626 12416,2510 12573,2371 12730,2371 12886,2360 13043,2267 13199,2058 13356,1919 13512,1745 13669,1653 13825,1641 13982,1630 14139,1595 14295,1583 14452,1502 14608,1491"/>
 <path fill="rgb(0,0,0)" stroke="none" d="M 3550,11176 L 3650,11276 3750,11176 3650,11076 3550,11176 Z"/>
 <path fill="none" stroke="rgb(0,0,0)" stroke-linejoin="round" d="M 3550,11176 L 3650,11276 3750,11176 3650,11076 3550,11176 Z"/>
 <path fill="rgb(0,0,0)" stroke="none" d="M 3707,11176 L 3807,11276 3907,11176 3807,11076 3707,11176 Z"/>
 <path fill="none" stroke="rgb(0,0,0)" stroke-linejoin="round" d="M 3707,11176 L 3807,11276 3907,11176 3807,11076 3707,11176 Z"/>
 <path fill="rgb(0,0,0)" stroke="none" d="M 3863,11176 L 3963,11276 4063,11176 3963,11076 3863,11176 Z"/>
 <path fill="none" stroke="rgb(0,0,0)" stroke-linejoin="round" d="M 3863,11176 L 3963,11276 4063,11176 3963,11076 3863,11176 Z"/>
 <path fill="rgb(0,0,0)" stroke="none" d="M 4020,11176 L 4120,11276 4220,11176 4120,11076 4020,11176 Z"/>
 <path fill="none" stroke="rgb(0,0,0)" stroke-linejoin="round" d="M 4020,11176 L 4120,11276 4220,11176 4120,11076 4020,11176 Z"/>
 <path fill="rgb(0,0,0)" stroke="none" d="M 4176,11153 L 4276,11253 4376,11153 4276,11053 4176,11153 Z"/>
 <path fill="none" stroke="rgb(0,0,0)" stroke-linejoin="round" d="M 4176,11153 L 4276,11253 4376,11153 4276,11053 4176,11153 Z"/>
 <path fill="rgb(0,0,0)" stroke="none" d="M 4333,11141 L 4433,11241 4533,11141 4433,11041 4333,11141 Z"/>
 <path fill="none" stroke="rgb(0,0,0)" stroke-linejoin="round" d="M 4333,11141 L 4433,11241 4533,11141 4433,11041 4333,11141 Z"/>
 <path fill="rgb(0,0,0)" stroke="none" d="M 4489,11118 L 4589,11218 4689,11118 4589,11018 4489,11118 Z"/>
 <path fill="none" stroke="rgb(0,0,0)" stroke-linejoin="round" d="M 4489,11118 L 4589,11218 4689,11118 4589,11018 4489,11118 Z"/>
 <path fill="rgb(0,0,0)" stroke="none" d="M 4646,11106 L 4746,11206 4846,11106 4746,11006 4646,11106 Z"/>
 <path fill="none" stroke="rgb(0,0,0)" stroke-linejoin="round" d="M 4646,11106 L 4746,11206 4846,11106 4746,11006 4646,11106 Z"/>
 <path fill="rgb(0,0,0)" stroke="none" d="M 4803,11106 L 4903,11206 5003,11106 4903,11006 4803,11106 Z"/>
 <path fill="none" stroke="rgb(0,0,0)" stroke-linejoin="round" d="M 4803,11106 L 4903,11206 5003,11106 4903,11006 4803,11106 Z"/>
 <path fill="rgb(0,0,0)" stroke="none" d="M 4959,11106 L 5059,11206 5159,11106 5059,11006 4959,11106 Z"/>
 <path fill="none" stroke="rgb(0,0,0)" stroke-linejoin="round" d="M 4959,11106 L 5059,11206 5159,11106 5059,11006 4959,11106 Z"/>
 <path fill="rgb(0,0,0)" stroke="none" d="M 5116,11060 L 5216,11160 5316,11060 5216,10960 5116,11060 Z"/>
 <path fill="none" stroke="rgb(0,0,0)" stroke-linejoin="round" d="M 5116,11060 L 5216,11160 5316,11060 5216,10960 5116,11060 Z"/>
 <path fill="rgb(0,0,0)" stroke="none" d="M 5272,11048 L 5372,11148 5472,11048 5372,10948 5272,11048 Z"/>
 <path fill="none" stroke="rgb(0,0,0)" stroke-linejoin="round" d="M 5272,11048 L 5372,11148 5472,11048 5372,10948 5272,11048 Z"/>
 <path fill="rgb(0,0,0)" stroke="none" d="M 5429,11037 L 5529,11137 5629,11037 5529,10937 5429,11037 Z"/>
 <path fill="none" stroke="rgb(0,0,0)" stroke-linejoin="round" d="M 5429,11037 L 5529,11137 5629,11037 5529,10937 5429,11037 Z"/>
 <path fill="rgb(0,0,0)" stroke="none" d="M 5585,11014 L 5685,11114 5785,11014 5685,10914 5585,11014 Z"/>
 <path fill="none" stroke="rgb(0,0,0)" stroke-linejoin="round" d="M 5585,11014 L 5685,11114 5785,11014 5685,10914 5585,11014 Z"/>
 <path fill="rgb(0,0,0)" stroke="none" d="M 5742,10991 L 5842,11091 5942,10991 5842,10891 5742,10991 Z"/>
 <path fill="none" stroke="rgb(0,0,0)" stroke-linejoin="round" d="M 5742,10991 L 5842,11091 5942,10991 5842,10891 5742,10991 Z"/>
 <path fill="rgb(0,0,0)" stroke="none" d="M 5899,10933 L 5999,11033 6099,10933 5999,10833 5899,10933 Z"/>
 <path fill="none" stroke="rgb(0,0,0)" stroke-linejoin="round" d="M 5899,10933 L 5999,11033 6099,10933 5999,10833 5899,10933 Z"/>
 <path fill="rgb(0,0,0)" stroke="none" d="M 6055,10909 L 6155,11009 6255,10909 6155,10809 6055,10909 Z"/>
 <path fill="none" stroke="rgb(0,0,0)" stroke-linejoin="round" d="M 6055,10909 L 6155,11009 6255,10909 6155,10809 6055,10909 Z"/>
 <path fill="rgb(0,0,0)" stroke="none" d="M 6212,10817 L 6312,10917 6412,10817 6312,10717 6212,10817 Z"/>
 <path fill="none" stroke="rgb(0,0,0)" stroke-linejoin="round" d="M 6212,10817 L 6312,10917 6412,10817 6312,10717 6212,10817 Z"/>
 <path fill="rgb(0,0,0)" stroke="none" d="M 6368,10759 L 6468,10859 6568,10759 6468,10659 6368,10759 Z"/>
 <path fill="none" stroke="rgb(0,0,0)" stroke-linejoin="round" d="M 6368,10759 L 6468,10859 6568,10759 6468,10659 6368,10759 Z"/>
 <path fill="rgb(0,0,0)" stroke="none" d="M 6525,10724 L 6625,10824 6725,10724 6625,10624 6525,10724 Z"/>
 <path fill="none" stroke="rgb(0,0,0)" stroke-linejoin="round" d="M 6525,10724 L 6625,10824 6725,10724 6625,10624 6525,10724 Z"/>
 <path fill="rgb(0,0,0)" stroke="none" d="M 6681,10631 L 6781,10731 6881,10631 6781,10531 6681,10631 Z"/>
 <path fill="none" stroke="rgb(0,0,0)" stroke-linejoin="round" d="M 6681,10631 L 6781,10731 6881,10631 6781,10531 6681,10631 Z"/>
 <path fill="rgb(0,0,0)" stroke="none" d="M 6838,10515 L 6938,10615 7038,10515 6938,10415 6838,10515 Z"/>
 <path fill="none" stroke="rgb(0,0,0)" stroke-linejoin="round" d="M 6838,10515 L 6938,10615 7038,10515 6938,10415 6838,10515 Z"/>
 <path fill="rgb(0,0,0)" stroke="none" d="M 6994,10515 L 7094,10615 7194,10515 7094,10415 6994,10515 Z"/>
 <path fill="none" stroke="rgb(0,0,0)" stroke-linejoin="round" d="M 6994,10515 L 7094,10615 7194,10515 7094,10415 6994,10515 Z"/>
 <path fill="rgb(0,0,0)" stroke="none" d="M 7151,10110 L 7251,10210 7351,10110 7251,10010 7151,10110 Z"/>
 <path fill="none" stroke="rgb(0,0,0)" stroke-linejoin="round" d="M 7151,10110 L 7251,10210 7351,10110 7251,10010 7151,10110 Z"/>
 <path fill="rgb(0,0,0)" stroke="none" d="M 7308,9959 L 7408,10059 7507,9959 7408,9859 7308,9959 Z"/>
 <path fill="none" stroke="rgb(0,0,0)" stroke-linejoin="round" d="M 7308,9959 L 7408,10059 7507,9959 7408,9859 7308,9959 Z"/>
 <path fill="rgb(0,0,0)" stroke="none" d="M 7464,9589 L 7563,9689 7663,9589 7563,9489 7464,9589 Z"/>
 <path fill="none" stroke="rgb(0,0,0)" stroke-linejoin="round" d="M 7464,9589 L 7563,9689 7663,9589 7563,9489 7464,9589 Z"/>
 <path fill="rgb(0,0,0)" stroke="none" d="M 7620,9229 L 7720,9329 7820,9229 7720,9129 7620,9229 Z"/>
 <path fill="none" stroke="rgb(0,0,0)" stroke-linejoin="round" d="M 7620,9229 L 7720,9329 7820,9229 7720,9129 7620,9229 Z"/>
 <path fill="rgb(0,0,0)" stroke="none" d="M 7776,8870 L 7876,8970 7976,8870 7876,8770 7776,8870 Z"/>
 <path fill="none" stroke="rgb(0,0,0)" stroke-linejoin="round" d="M 7776,8870 L 7876,8970 7976,8870 7876,8770 7776,8870 Z"/>
 <path fill="rgb(0,0,0)" stroke="none" d="M 7933,8592 L 8033,8692 8133,8592 8033,8492 7933,8592 Z"/>
 <path fill="none" stroke="rgb(0,0,0)" stroke-linejoin="round" d="M 7933,8592 L 8033,8692 8133,8592 8033,8492 7933,8592 Z"/>
 <path fill="rgb(0,0,0)" stroke="none" d="M 8089,8279 L 8189,8379 8289,8279 8189,8179 8089,8279 Z"/>
 <path fill="none" stroke="rgb(0,0,0)" stroke-linejoin="round" d="M 8089,8279 L 8189,8379 8289,8279 8189,8179 8089,8279 Z"/>
 <path fill="rgb(0,0,0)" stroke="none" d="M 8246,8059 L 8346,8159 8446,8059 8346,7959 8246,8059 Z"/>
 <path fill="none" stroke="rgb(0,0,0)" stroke-linejoin="round" d="M 8246,8059 L 8346,8159 8446,8059 8346,7959 8246,8059 Z"/>
 <path fill="rgb(0,0,0)" stroke="none" d="M 8402,7897 L 8502,7997 8602,7897 8502,7797 8402,7897 Z"/>
 <path fill="none" stroke="rgb(0,0,0)" stroke-linejoin="round" d="M 8402,7897 L 8502,7997 8602,7897 8502,7797 8402,7897 Z"/>
 <path fill="rgb(0,0,0)" stroke="none" d="M 8559,7572 L 8659,7672 8759,7572 8659,7472 8559,7572 Z"/>
 <path fill="none" stroke="rgb(0,0,0)" stroke-linejoin="round" d="M 8559,7572 L 8659,7672 8759,7572 8659,7472 8559,7572 Z"/>
 <path fill="rgb(0,0,0)" stroke="none" d="M 8716,7144 L 8816,7244 8916,7144 8816,7044 8716,7144 Z"/>
 <path fill="none" stroke="rgb(0,0,0)" stroke-linejoin="round" d="M 8716,7144 L 8816,7244 8916,7144 8816,7044 8716,7144 Z"/>
 <path fill="rgb(0,0,0)" stroke="none" d="M 8872,6727 L 8972,6827 9072,6727 8972,6627 8872,6727 Z"/>
 <path fill="none" stroke="rgb(0,0,0)" stroke-linejoin="round" d="M 8872,6727 L 8972,6827 9072,6727 8972,6627 8872,6727 Z"/>
 <path fill="rgb(0,0,0)" stroke="none" d="M 9029,6449 L 9129,6549 9229,6449 9129,6349 9029,6449 Z"/>
 <path fill="none" stroke="rgb(0,0,0)" stroke-linejoin="round" d="M 9029,6449 L 9129,6549 9229,6449 9129,6349 9029,6449 Z"/>
 <path fill="rgb(0,0,0)" stroke="none" d="M 9185,6263 L 9285,6363 9385,6263 9285,6163 9185,6263 Z"/>
 <path fill="none" stroke="rgb(0,0,0)" stroke-linejoin="round" d="M 9185,6263 L 9285,6363 9385,6263 9285,6163 9185,6263 Z"/>
 <path fill="rgb(0,0,0)" stroke="none" d="M 9342,5975 L 9442,6074 9542,5975 9442,5875 9342,5975 Z"/>
 <path fill="none" stroke="rgb(0,0,0)" stroke-linejoin="round" d="M 9342,5975 L 9442,6074 9542,5975 9442,5875 9342,5975 Z"/>
 <path fill="rgb(0,0,0)" stroke="none" d="M 9498,5812 L 9598,5912 9698,5812 9598,5712 9498,5812 Z"/>
 <path fill="none" stroke="rgb(0,0,0)" stroke-linejoin="round" d="M 9498,5812 L 9598,5912 9698,5812 9598,5712 9498,5812 Z"/>
 <path fill="rgb(0,0,0)" stroke="none" d="M 9655,5488 L 9755,5588 9855,5488 9755,5388 9655,5488 Z"/>
 <path fill="none" stroke="rgb(0,0,0)" stroke-linejoin="round" d="M 9655,5488 L 9755,5588 9855,5488 9755,5388 9655,5488 Z"/>
 <path fill="rgb(0,0,0)" stroke="none" d="M 9811,5233 L 9911,5333 10011,5233 9911,5133 9811,5233 Z"/>
 <path fill="none" stroke="rgb(0,0,0)" stroke-linejoin="round" d="M 9811,5233 L 9911,5333 10011,5233 9911,5133 9811,5233 Z"/>
 <path fill="rgb(0,0,0)" stroke="none" d="M 9968,4897 L 10068,4997 10168,4897 10068,4797 9968,4897 Z"/>
 <path fill="none" stroke="rgb(0,0,0)" stroke-linejoin="round" d="M 9968,4897 L 10068,4997 10168,4897 10068,4797 9968,4897 Z"/>
 <path fill="rgb(0,0,0)" stroke="none" d="M 10125,4677 L 10225,4777 10325,4677 10225,4577 10125,4677 Z"/>
 <path fill="none" stroke="rgb(0,0,0)" stroke-linejoin="round" d="M 10125,4677 L 10225,4777 10325,4677 10225,4577 10125,4677 Z"/>
 <path fill="rgb(0,0,0)" stroke="none" d="M 10281,4225 L 10381,4325 10481,4225 10381,4125 10281,4225 Z"/>
 <path fill="none" stroke="rgb(0,0,0)" stroke-linejoin="round" d="M 10281,4225 L 10381,4325 10481,4225 10381,4125 10281,4225 Z"/>
 <path fill="rgb(0,0,0)" stroke="none" d="M 10438,4016 L 10538,4116 10638,4016 10538,3916 10438,4016 Z"/>
 <path fill="none" stroke="rgb(0,0,0)" stroke-linejoin="round" d="M 10438,4016 L 10538,4116 10638,4016 10538,3916 10438,4016 Z"/>
 <path fill="rgb(0,0,0)" stroke="none" d="M 10594,3808 L 10694,3908 10794,3808 10694,3708 10594,3808 Z"/>
 <path fill="none" stroke="rgb(0,0,0)" stroke-linejoin="round" d="M 10594,3808 L 10694,3908 10794,3808 10694,3708 10594,3808 Z"/>
 <path fill="rgb(0,0,0)" stroke="none" d="M 10751,3738 L 10851,3838 10951,3738 10851,3638 10751,3738 Z"/>
 <path fill="none" stroke="rgb(0,0,0)" stroke-linejoin="round" d="M 10751,3738 L 10851,3838 10951,3738 10851,3638 10751,3738 Z"/>
 <path fill="rgb(0,0,0)" stroke="none" d="M 10907,3588 L 11007,3688 11107,3588 11007,3488 10907,3588 Z"/>
 <path fill="none" stroke="rgb(0,0,0)" stroke-linejoin="round" d="M 10907,3588 L 11007,3688 11107,3588 11007,3488 10907,3588 Z"/>
 <path fill="rgb(0,0,0)" stroke="none" d="M 11064,3298 L 11164,3398 11264,3298 11164,3198 11064,3298 Z"/>
 <path fill="none" stroke="rgb(0,0,0)" stroke-linejoin="round" d="M 11064,3298 L 11164,3398 11264,3298 11164,3198 11064,3298 Z"/>
 <path fill="rgb(0,0,0)" stroke="none" d="M 11220,3136 L 11320,3236 11420,3136 11320,3036 11220,3136 Z"/>
 <path fill="none" stroke="rgb(0,0,0)" stroke-linejoin="round" d="M 11220,3136 L 11320,3236 11420,3136 11320,3036 11220,3136 Z"/>
 <path fill="rgb(0,0,0)" stroke="none" d="M 11377,2974 L 11477,3074 11577,2974 11477,2874 11377,2974 Z"/>
 <path fill="none" stroke="rgb(0,0,0)" stroke-linejoin="round" d="M 11377,2974 L 11477,3074 11577,2974 11477,2874 11377,2974 Z"/>
 <path fill="rgb(0,0,0)" stroke="none" d="M 11534,2939 L 11634,3039 11734,2939 11634,2839 11534,2939 Z"/>
 <path fill="none" stroke="rgb(0,0,0)" stroke-linejoin="round" d="M 11534,2939 L 11634,3039 11734,2939 11634,2839 11534,2939 Z"/>
 <path fill="rgb(0,0,0)" stroke="none" d="M 11690,2777 L 11790,2877 11890,2777 11790,2677 11690,2777 Z"/>
 <path fill="none" stroke="rgb(0,0,0)" stroke-linejoin="round" d="M 11690,2777 L 11790,2877 11890,2777 11790,2677 11690,2777 Z"/>
 <path fill="rgb(0,0,0)" stroke="none" d="M 11847,2672 L 11947,2772 12047,2672 11947,2572 11847,2672 Z"/>
 <path fill="none" stroke="rgb(0,0,0)" stroke-linejoin="round" d="M 11847,2672 L 11947,2772 12047,2672 11947,2572 11847,2672 Z"/>
 <path fill="rgb(0,0,0)" stroke="none" d="M 12003,2661 L 12103,2761 12203,2661 12103,2561 12003,2661 Z"/>
 <path fill="none" stroke="rgb(0,0,0)" stroke-linejoin="round" d="M 12003,2661 L 12103,2761 12203,2661 12103,2561 12003,2661 Z"/>
 <path fill="rgb(0,0,0)" stroke="none" d="M 12160,2626 L 12260,2726 12360,2626 12260,2526 12160,2626 Z"/>
 <path fill="none" stroke="rgb(0,0,0)" stroke-linejoin="round" d="M 12160,2626 L 12260,2726 12360,2626 12260,2526 12160,2626 Z"/>
 <path fill="rgb(0,0,0)" stroke="none" d="M 12316,2510 L 12416,2610 12516,2510 12416,2410 12316,2510 Z"/>
 <path fill="none" stroke="rgb(0,0,0)" stroke-linejoin="round" d="M 12316,2510 L 12416,2610 12516,2510 12416,2410 12316,2510 Z"/>
 <path fill="rgb(0,0,0)" stroke="none" d="M 12473,2371 L 12573,2471 12673,2371 12573,2271 12473,2371 Z"/>
 <path fill="none" stroke="rgb(0,0,0)" stroke-linejoin="round" d="M 12473,2371 L 12573,2471 12673,2371 12573,2271 12473,2371 Z"/>
 <path fill="rgb(0,0,0)" stroke="none" d="M 12630,2371 L 12730,2471 12830,2371 12730,2271 12630,2371 Z"/>
 <path fill="none" stroke="rgb(0,0,0)" stroke-linejoin="round" d="M 12630,2371 L 12730,2471 12830,2371 12730,2271 12630,2371 Z"/>
 <path fill="rgb(0,0,0)" stroke="none" d="M 12786,2360 L 12886,2460 12986,2360 12886,2260 12786,2360 Z"/>
 <path fill="none" stroke="rgb(0,0,0)" stroke-linejoin="round" d="M 12786,2360 L 12886,2460 12986,2360 12886,2260 12786,2360 Z"/>
 <path fill="rgb(0,0,0)" stroke="none" d="M 12943,2267 L 13043,2367 13143,2267 13043,2167 12943,2267 Z"/>
 <path fill="none" stroke="rgb(0,0,0)" stroke-linejoin="round" d="M 12943,2267 L 13043,2367 13143,2267 13043,2167 12943,2267 Z"/>
 <path fill="rgb(0,0,0)" stroke="none" d="M 13099,2058 L 13199,2158 13299,2058 13199,1958 13099,2058 Z"/>
 <path fill="none" stroke="rgb(0,0,0)" stroke-linejoin="round" d="M 13099,2058 L 13199,2158 13299,2058 13199,1958 13099,2058 Z"/>
 <path fill="rgb(0,0,0)" stroke="none" d="M 13256,1919 L 13356,2019 13456,1919 13356,1819 13256,1919 Z"/>
 <path fill="none" stroke="rgb(0,0,0)" stroke-linejoin="round" d="M 13256,1919 L 13356,2019 13456,1919 13356,1819 13256,1919 Z"/>
 <path fill="rgb(0,0,0)" stroke="none" d="M 13412,1745 L 13512,1845 13612,1745 13512,1645 13412,1745 Z"/>
 <path fill="none" stroke="rgb(0,0,0)" stroke-linejoin="round" d="M 13412,1745 L 13512,1845 13612,1745 13512,1645 13412,1745 Z"/>
 <path fill="rgb(0,0,0)" stroke="none" d="M 13569,1653 L 13669,1753 13769,1653 13669,1553 13569,1653 Z"/>
 <path fill="none" stroke="rgb(0,0,0)" stroke-linejoin="round" d="M 13569,1653 L 13669,1753 13769,1653 13669,1553 13569,1653 Z"/>
 <path fill="rgb(0,0,0)" stroke="none" d="M 13725,1641 L 13825,1741 13925,1641 13825,1541 13725,1641 Z"/>
 <path fill="none" stroke="rgb(0,0,0)" stroke-linejoin="round" d="M 13725,1641 L 13825,1741 13925,1641 13825,1541 13725,1641 Z"/>
 <path fill="rgb(0,0,0)" stroke="none" d="M 13882,1630 L 13982,1730 14082,1630 13982,1530 13882,1630 Z"/>
 <path fill="none" stroke="rgb(0,0,0)" stroke-linejoin="round" d="M 13882,1630 L 13982,1730 14082,1630 13982,1530 13882,1630 Z"/>
 <path fill="rgb(0,0,0)" stroke="none" d="M 14039,1595 L 14139,1695 14239,1595 14139,1495 14039,1595 Z"/>
 <path fill="none" stroke="rgb(0,0,0)" stroke-linejoin="round" d="M 14039,1595 L 14139,1695 14239,1595 14139,1495 14039,1595 Z"/>
 <path fill="rgb(0,0,0)" stroke="none" d="M 14195,1583 L 14295,1683 14395,1583 14295,1483 14195,1583 Z"/>
 <path fill="none" stroke="rgb(0,0,0)" stroke-linejoin="round" d="M 14195,1583 L 14295,1683 14395,1583 14295,1483 14195,1583 Z"/>
 <path fill="rgb(0,0,0)" stroke="none" d="M 14352,1502 L 14452,1602 14552,1502 14452,1402 14352,1502 Z"/>
 <path fill="none" stroke="rgb(0,0,0)" stroke-linejoin="round" d="M 14352,1502 L 14452,1602 14552,1502 14452,1402 14352,1502 Z"/>
 <path fill="rgb(0,0,0)" stroke="none" d="M 14508,1491 L 14608,1591 14708,1491 14608,1391 14508,1491 Z"/>
 <path fill="none" stroke="rgb(0,0,0)" stroke-linejoin="round" d="M 14508,1491 L 14608,1591 14708,1491 14608,1391 14508,1491 Z"/>
 <path fill="none" stroke="rgb(255,66,14)" stroke-width="50" stroke-linejoin="round" d="M 5529,11161 L 5685,11161 5842,11161 5999,11135 6155,11056 6312,11030 6468,10951 6625,10819 6781,10740 6938,10635 7094,10609 7251,10503 7408,10477 7563,10214 7720,9767 7876,9609 8033,9504 8189,9398 8346,9398 8502,9162 8659,8951 8816,8767 8972,8609 9129,8504 9285,8372 9442,8293 9598,8109 9755,8030 9911,7714 10068,7583 10225,7399 10381,7267 10538,7162 10694,7030 10851,6846 11007,6793 11164,6636 11320,6504 11477,6399 11634,6372 11790,6294 11947,6241 12103,6162 12260,6162 12416,6136 12573,6109 12730,6057 12886,6004 13043,5979 13199,5952 13356,5926 13512,5900 13669,5900 13825,5900 13982,5900 14139,5847 14295,5795 14452,5795 14608,5768"/>
 <path fill="rgb(255,66,14)" stroke="none" d="M 5429,11161 L 5529,11261 5629,11161 5529,11061 5429,11161 Z"/>
 <path fill="none" stroke="rgb(255,66,14)" stroke-linejoin="round" d="M 5429,11161 L 5529,11261 5629,11161 5529,11061 5429,11161 Z"/>
 <path fill="rgb(255,66,14)" stroke="none" d="M 5585,11161 L 5685,11261 5785,11161 5685,11061 5585,11161 Z"/>
 <path fill="none" stroke="rgb(255,66,14)" stroke-linejoin="round" d="M 5585,11161 L 5685,11261 5785,11161 5685,11061 5585,11161 Z"/>
 <path fill="rgb(255,66,14)" stroke="none" d="M 5742,11161 L 5842,11261 5942,11161 5842,11061 5742,11161 Z"/>
 <path fill="none" stroke="rgb(255,66,14)" stroke-linejoin="round" d="M 5742,11161 L 5842,11261 5942,11161 5842,11061 5742,11161 Z"/>
 <path fill="rgb(255,66,14)" stroke="none" d="M 5899,11135 L 5999,11235 6099,11135 5999,11035 5899,11135 Z"/>
 <path fill="none" stroke="rgb(255,66,14)" stroke-linejoin="round" d="M 5899,11135 L 5999,11235 6099,11135 5999,11035 5899,11135 Z"/>
 <path fill="rgb(255,66,14)" stroke="none" d="M 6055,11056 L 6155,11156 6255,11056 6155,10956 6055,11056 Z"/>
 <path fill="none" stroke="rgb(255,66,14)" stroke-linejoin="round" d="M 6055,11056 L 6155,11156 6255,11056 6155,10956 6055,11056 Z"/>
 <path fill="rgb(255,66,14)" stroke="none" d="M 6212,11030 L 6312,11130 6412,11030 6312,10930 6212,11030 Z"/>
 <path fill="none" stroke="rgb(255,66,14)" stroke-linejoin="round" d="M 6212,11030 L 6312,11130 6412,11030 6312,10930 6212,11030 Z"/>
 <path fill="rgb(255,66,14)" stroke="none" d="M 6368,10951 L 6468,11051 6568,10951 6468,10851 6368,10951 Z"/>
 <path fill="none" stroke="rgb(255,66,14)" stroke-linejoin="round" d="M 6368,10951 L 6468,11051 6568,10951 6468,10851 6368,10951 Z"/>
 <path fill="rgb(255,66,14)" stroke="none" d="M 6525,10819 L 6625,10919 6725,10819 6625,10719 6525,10819 Z"/>
 <path fill="none" stroke="rgb(255,66,14)" stroke-linejoin="round" d="M 6525,10819 L 6625,10919 6725,10819 6625,10719 6525,10819 Z"/>
 <path fill="rgb(255,66,14)" stroke="none" d="M 6681,10740 L 6781,10840 6881,10740 6781,10640 6681,10740 Z"/>
 <path fill="none" stroke="rgb(255,66,14)" stroke-linejoin="round" d="M 6681,10740 L 6781,10840 6881,10740 6781,10640 6681,10740 Z"/>
 <path fill="rgb(255,66,14)" stroke="none" d="M 6838,10635 L 6938,10735 7038,10635 6938,10535 6838,10635 Z"/>
 <path fill="none" stroke="rgb(255,66,14)" stroke-linejoin="round" d="M 6838,10635 L 6938,10735 7038,10635 6938,10535 6838,10635 Z"/>
 <path fill="rgb(255,66,14)" stroke="none" d="M 6994,10609 L 7094,10709 7194,10609 7094,10509 6994,10609 Z"/>
 <path fill="none" stroke="rgb(255,66,14)" stroke-linejoin="round" d="M 6994,10609 L 7094,10709 7194,10609 7094,10509 6994,10609 Z"/>
 <path fill="rgb(255,66,14)" stroke="none" d="M 7151,10503 L 7251,10603 7351,10503 7251,10403 7151,10503 Z"/>
 <path fill="none" stroke="rgb(255,66,14)" stroke-linejoin="round" d="M 7151,10503 L 7251,10603 7351,10503 7251,10403 7151,10503 Z"/>
 <path fill="rgb(255,66,14)" stroke="none" d="M 7308,10477 L 7408,10577 7507,10477 7408,10377 7308,10477 Z"/>
 <path fill="none" stroke="rgb(255,66,14)" stroke-linejoin="round" d="M 7308,10477 L 7408,10577 7507,10477 7408,10377 7308,10477 Z"/>
 <path fill="rgb(255,66,14)" stroke="none" d="M 7464,10214 L 7563,10314 7663,10214 7563,10114 7464,10214 Z"/>
 <path fill="none" stroke="rgb(255,66,14)" stroke-linejoin="round" d="M 7464,10214 L 7563,10314 7663,10214 7563,10114 7464,10214 Z"/>
 <path fill="rgb(255,66,14)" stroke="none" d="M 7620,9767 L 7720,9867 7820,9767 7720,9667 7620,9767 Z"/>
 <path fill="none" stroke="rgb(255,66,14)" stroke-linejoin="round" d="M 7620,9767 L 7720,9867 7820,9767 7720,9667 7620,9767 Z"/>
 <path fill="rgb(255,66,14)" stroke="none" d="M 7776,9609 L 7876,9709 7976,9609 7876,9509 7776,9609 Z"/>
 <path fill="none" stroke="rgb(255,66,14)" stroke-linejoin="round" d="M 7776,9609 L 7876,9709 7976,9609 7876,9509 7776,9609 Z"/>
 <path fill="rgb(255,66,14)" stroke="none" d="M 7933,9504 L 8033,9604 8133,9504 8033,9404 7933,9504 Z"/>
 <path fill="none" stroke="rgb(255,66,14)" stroke-linejoin="round" d="M 7933,9504 L 8033,9604 8133,9504 8033,9404 7933,9504 Z"/>
 <path fill="rgb(255,66,14)" stroke="none" d="M 8089,9398 L 8189,9498 8289,9398 8189,9298 8089,9398 Z"/>
 <path fill="none" stroke="rgb(255,66,14)" stroke-linejoin="round" d="M 8089,9398 L 8189,9498 8289,9398 8189,9298 8089,9398 Z"/>
 <path fill="rgb(255,66,14)" stroke="none" d="M 8246,9398 L 8346,9498 8446,9398 8346,9298 8246,9398 Z"/>
 <path fill="none" stroke="rgb(255,66,14)" stroke-linejoin="round" d="M 8246,9398 L 8346,9498 8446,9398 8346,9298 8246,9398 Z"/>
 <path fill="rgb(255,66,14)" stroke="none" d="M 8402,9162 L 8502,9262 8602,9162 8502,9062 8402,9162 Z"/>
 <path fill="none" stroke="rgb(255,66,14)" stroke-linejoin="round" d="M 8402,9162 L 8502,9262 8602,9162 8502,9062 8402,9162 Z"/>
 <path fill="rgb(255,66,14)" stroke="none" d="M 8559,8951 L 8659,9051 8759,8951 8659,8851 8559,8951 Z"/>
 <path fill="none" stroke="rgb(255,66,14)" stroke-linejoin="round" d="M 8559,8951 L 8659,9051 8759,8951 8659,8851 8559,8951 Z"/>
 <path fill="rgb(255,66,14)" stroke="none" d="M 8716,8767 L 8816,8867 8916,8767 8816,8667 8716,8767 Z"/>
 <path fill="none" stroke="rgb(255,66,14)" stroke-linejoin="round" d="M 8716,8767 L 8816,8867 8916,8767 8816,8667 8716,8767 Z"/>
 <path fill="rgb(255,66,14)" stroke="none" d="M 8872,8609 L 8972,8709 9072,8609 8972,8509 8872,8609 Z"/>
 <path fill="none" stroke="rgb(255,66,14)" stroke-linejoin="round" d="M 8872,8609 L 8972,8709 9072,8609 8972,8509 8872,8609 Z"/>
 <path fill="rgb(255,66,14)" stroke="none" d="M 9029,8504 L 9129,8604 9229,8504 9129,8404 9029,8504 Z"/>
 <path fill="none" stroke="rgb(255,66,14)" stroke-linejoin="round" d="M 9029,8504 L 9129,8604 9229,8504 9129,8404 9029,8504 Z"/>
 <path fill="rgb(255,66,14)" stroke="none" d="M 9185,8372 L 9285,8472 9385,8372 9285,8272 9185,8372 Z"/>
 <path fill="none" stroke="rgb(255,66,14)" stroke-linejoin="round" d="M 9185,8372 L 9285,8472 9385,8372 9285,8272 9185,8372 Z"/>
 <path fill="rgb(255,66,14)" stroke="none" d="M 9342,8293 L 9442,8393 9542,8293 9442,8193 9342,8293 Z"/>
 <path fill="none" stroke="rgb(255,66,14)" stroke-linejoin="round" d="M 9342,8293 L 9442,8393 9542,8293 9442,8193 9342,8293 Z"/>
 <path fill="rgb(255,66,14)" stroke="none" d="M 9498,8109 L 9598,8209 9698,8109 9598,8009 9498,8109 Z"/>
 <path fill="none" stroke="rgb(255,66,14)" stroke-linejoin="round" d="M 9498,8109 L 9598,8209 9698,8109 9598,8009 9498,8109 Z"/>
 <path fill="rgb(255,66,14)" stroke="none" d="M 9655,8030 L 9755,8130 9855,8030 9755,7930 9655,8030 Z"/>
 <path fill="none" stroke="rgb(255,66,14)" stroke-linejoin="round" d="M 9655,8030 L 9755,8130 9855,8030 9755,7930 9655,8030 Z"/>
 <path fill="rgb(255,66,14)" stroke="none" d="M 9811,7714 L 9911,7814 10011,7714 9911,7614 9811,7714 Z"/>
 <path fill="none" stroke="rgb(255,66,14)" stroke-linejoin="round" d="M 9811,7714 L 9911,7814 10011,7714 9911,7614 9811,7714 Z"/>
 <path fill="rgb(255,66,14)" stroke="none" d="M 9968,7583 L 10068,7683 10168,7583 10068,7483 9968,7583 Z"/>
 <path fill="none" stroke="rgb(255,66,14)" stroke-linejoin="round" d="M 9968,7583 L 10068,7683 10168,7583 10068,7483 9968,7583 Z"/>
 <path fill="rgb(255,66,14)" stroke="none" d="M 10125,7399 L 10225,7499 10325,7399 10225,7299 10125,7399 Z"/>
 <path fill="none" stroke="rgb(255,66,14)" stroke-linejoin="round" d="M 10125,7399 L 10225,7499 10325,7399 10225,7299 10125,7399 Z"/>
 <path fill="rgb(255,66,14)" stroke="none" d="M 10281,7267 L 10381,7367 10481,7267 10381,7167 10281,7267 Z"/>
 <path fill="none" stroke="rgb(255,66,14)" stroke-linejoin="round" d="M 10281,7267 L 10381,7367 10481,7267 10381,7167 10281,7267 Z"/>
 <path fill="rgb(255,66,14)" stroke="none" d="M 10438,7162 L 10538,7262 10638,7162 10538,7062 10438,7162 Z"/>
 <path fill="none" stroke="rgb(255,66,14)" stroke-linejoin="round" d="M 10438,7162 L 10538,7262 10638,7162 10538,7062 10438,7162 Z"/>
 <path fill="rgb(255,66,14)" stroke="none" d="M 10594,7030 L 10694,7130 10794,7030 10694,6930 10594,7030 Z"/>
 <path fill="none" stroke="rgb(255,66,14)" stroke-linejoin="round" d="M 10594,7030 L 10694,7130 10794,7030 10694,6930 10594,7030 Z"/>
 <path fill="rgb(255,66,14)" stroke="none" d="M 10751,6846 L 10851,6946 10951,6846 10851,6746 10751,6846 Z"/>
 <path fill="none" stroke="rgb(255,66,14)" stroke-linejoin="round" d="M 10751,6846 L 10851,6946 10951,6846 10851,6746 10751,6846 Z"/>
 <path fill="rgb(255,66,14)" stroke="none" d="M 10907,6793 L 11007,6893 11107,6793 11007,6693 10907,6793 Z"/>
 <path fill="none" stroke="rgb(255,66,14)" stroke-linejoin="round" d="M 10907,6793 L 11007,6893 11107,6793 11007,6693 10907,6793 Z"/>
 <path fill="rgb(255,66,14)" stroke="none" d="M 11064,6636 L 11164,6736 11264,6636 11164,6536 11064,6636 Z"/>
 <path fill="none" stroke="rgb(255,66,14)" stroke-linejoin="round" d="M 11064,6636 L 11164,6736 11264,6636 11164,6536 11064,6636 Z"/>
 <path fill="rgb(255,66,14)" stroke="none" d="M 11220,6504 L 11320,6604 11420,6504 11320,6404 11220,6504 Z"/>
 <path fill="none" stroke="rgb(255,66,14)" stroke-linejoin="round" d="M 11220,6504 L 11320,6604 11420,6504 11320,6404 11220,6504 Z"/>
 <path fill="rgb(255,66,14)" stroke="none" d="M 11377,6399 L 11477,6499 11577,6399 11477,6299 11377,6399 Z"/>
 <path fill="none" stroke="rgb(255,66,14)" stroke-linejoin="round" d="M 11377,6399 L 11477,6499 11577,6399 11477,6299 11377,6399 Z"/>
 <path fill="rgb(255,66,14)" stroke="none" d="M 11534,6372 L 11634,6472 11734,6372 11634,6272 11534,6372 Z"/>
 <path fill="none" stroke="rgb(255,66,14)" stroke-linejoin="round" d="M 11534,6372 L 11634,6472 11734,6372 11634,6272 11534,6372 Z"/>
 <path fill="rgb(255,66,14)" stroke="none" d="M 11690,6294 L 11790,6394 11890,6294 11790,6194 11690,6294 Z"/>
 <path fill="none" stroke="rgb(255,66,14)" stroke-linejoin="round" d="M 11690,6294 L 11790,6394 11890,6294 11790,6194 11690,6294 Z"/>
 <path fill="rgb(255,66,14)" stroke="none" d="M 11847,6241 L 11947,6341 12047,6241 11947,6141 11847,6241 Z"/>
 <path fill="none" stroke="rgb(255,66,14)" stroke-linejoin="round" d="M 11847,6241 L 11947,6341 12047,6241 11947,6141 11847,6241 Z"/>
 <path fill="rgb(255,66,14)" stroke="none" d="M 12003,6162 L 12103,6262 12203,6162 12103,6062 12003,6162 Z"/>
 <path fill="none" stroke="rgb(255,66,14)" stroke-linejoin="round" d="M 12003,6162 L 12103,6262 12203,6162 12103,6062 12003,6162 Z"/>
 <path fill="rgb(255,66,14)" stroke="none" d="M 12160,6162 L 12260,6262 12360,6162 12260,6062 12160,6162 Z"/>
 <path fill="none" stroke="rgb(255,66,14)" stroke-linejoin="round" d="M 12160,6162 L 12260,6262 12360,6162 12260,6062 12160,6162 Z"/>
 <path fill="rgb(255,66,14)" stroke="none" d="M 12316,6136 L 12416,6236 12516,6136 12416,6036 12316,6136 Z"/>
 <path fill="none" stroke="rgb(255,66,14)" stroke-linejoin="round" d="M 12316,6136 L 12416,6236 12516,6136 12416,6036 12316,6136 Z"/>
 <path fill="rgb(255,66,14)" stroke="none" d="M 12473,6109 L 12573,6209 12673,6109 12573,6009 12473,6109 Z"/>
 <path fill="none" stroke="rgb(255,66,14)" stroke-linejoin="round" d="M 12473,6109 L 12573,6209 12673,6109 12573,6009 12473,6109 Z"/>
 <path fill="rgb(255,66,14)" stroke="none" d="M 12630,6057 L 12730,6157 12830,6057 12730,5958 12630,6057 Z"/>
 <path fill="none" stroke="rgb(255,66,14)" stroke-linejoin="round" d="M 12630,6057 L 12730,6157 12830,6057 12730,5958 12630,6057 Z"/>
 <path fill="rgb(255,66,14)" stroke="none" d="M 12786,6004 L 12886,6104 12986,6004 12886,5905 12786,6004 Z"/>
 <path fill="none" stroke="rgb(255,66,14)" stroke-linejoin="round" d="M 12786,6004 L 12886,6104 12986,6004 12886,5905 12786,6004 Z"/>
 <path fill="rgb(255,66,14)" stroke="none" d="M 12943,5979 L 13043,6078 13143,5979 13043,5879 12943,5979 Z"/>
 <path fill="none" stroke="rgb(255,66,14)" stroke-linejoin="round" d="M 12943,5979 L 13043,6078 13143,5979 13043,5879 12943,5979 Z"/>
 <path fill="rgb(255,66,14)" stroke="none" d="M 13099,5952 L 13199,6051 13299,5952 13199,5852 13099,5952 Z"/>
 <path fill="none" stroke="rgb(255,66,14)" stroke-linejoin="round" d="M 13099,5952 L 13199,6051 13299,5952 13199,5852 13099,5952 Z"/>
 <path fill="rgb(255,66,14)" stroke="none" d="M 13256,5926 L 13356,6025 13456,5926 13356,5826 13256,5926 Z"/>
 <path fill="none" stroke="rgb(255,66,14)" stroke-linejoin="round" d="M 13256,5926 L 13356,6025 13456,5926 13356,5826 13256,5926 Z"/>
 <path fill="rgb(255,66,14)" stroke="none" d="M 13412,5900 L 13512,6000 13612,5900 13512,5800 13412,5900 Z"/>
 <path fill="none" stroke="rgb(255,66,14)" stroke-linejoin="round" d="M 13412,5900 L 13512,6000 13612,5900 13512,5800 13412,5900 Z"/>
 <path fill="rgb(255,66,14)" stroke="none" d="M 13569,5900 L 13669,6000 13769,5900 13669,5800 13569,5900 Z"/>
 <path fill="none" stroke="rgb(255,66,14)" stroke-linejoin="round" d="M 13569,5900 L 13669,6000 13769,5900 13669,5800 13569,5900 Z"/>
 <path fill="rgb(255,66,14)" stroke="none" d="M 13725,5900 L 13825,6000 13925,5900 13825,5800 13725,5900 Z"/>
 <path fill="none" stroke="rgb(255,66,14)" stroke-linejoin="round" d="M 13725,5900 L 13825,6000 13925,5900 13825,5800 13725,5900 Z"/>
 <path fill="rgb(255,66,14)" stroke="none" d="M 13882,5900 L 13982,6000 14082,5900 13982,5800 13882,5900 Z"/>
 <path fill="none" stroke="rgb(255,66,14)" stroke-linejoin="round" d="M 13882,5900 L 13982,6000 14082,5900 13982,5800 13882,5900 Z"/>
 <path fill="rgb(255,66,14)" stroke="none" d="M 14039,5847 L 14139,5947 14239,5847 14139,5747 14039,5847 Z"/>
 <path fill="none" stroke="rgb(255,66,14)" stroke-linejoin="round" d="M 14039,5847 L 14139,5947 14239,5847 14139,5747 14039,5847 Z"/>
 <path fill="rgb(255,66,14)" stroke="none" d="M 14195,5795 L 14295,5895 14395,5795 14295,5695 14195,5795 Z"/>
 <path fill="none" stroke="rgb(255,66,14)" stroke-linejoin="round" d="M 14195,5795 L 14295,5895 14395,5795 14295,5695 14195,5795 Z"/>
 <path fill="rgb(255,66,14)" stroke="none" d="M 14352,5795 L 14452,5895 14552,5795 14452,5695 14352,5795 Z"/>
 <path fill="none" stroke="rgb(255,66,14)" stroke-linejoin="round" d="M 14352,5795 L 14452,5895 14552,5795 14452,5695 14352,5795 Z"/>
 <path fill="rgb(255,66,14)" stroke="none" d="M 14508,5768 L 14608,5868 14708,5768 14608,5668 14508,5768 Z"/>
 <path fill="none" stroke="rgb(255,66,14)" stroke-linejoin="round" d="M 14508,5768 L 14608,5868 14708,5768 14608,5668 14508,5768 Z"/>
 <path fill="none" stroke="rgb(255,211,32)" stroke-width="50" stroke-linejoin="round" d="M 3337,11184 L 3494,11184 3650,11184 3807,11184 3963,11184 4120,11184 4276,11184 4433,11184 4589,11184 4746,11184 4903,11174 5059,11170 5216,11170 5372,11142 5529,11111 5685,11104 5842,11073 5999,11014 6155,10949 6312,10862 6468,10789 6625,10692 6781,10609 6938,10502 7094,10377 7251,10263 7408,10114 7563,10014 7720,9820 7876,9653 8033,9418 8189,9210 8346,9065 8502,8982 8659,8860 8816,8680 8972,8531 9129,8431 9285,8355 9442,8286 9598,8154 9755,8047 9911,7915 10068,7822 10225,7728 10381,7579 10538,7500 10694,7451 10851,7416 11007,7358 11164,7295 11320,7216 11477,7129 11634,7081 11790,7070 11947,7032 12103,6970 12260,6907 12416,6876 12573,6831 12730,6810 12886,6793 13043,6759 13199,6717 13356,6675 13512,6655 13669,6634 13825,6606 13982,6582 14139,6561 14295,6544 14452,6516 14608,6485"/>
 <path fill="rgb(255,211,32)" stroke="none" d="M 3237,11084 L 3337,11284 3437,11084 3237,11084 Z"/>
 <path fill="none" stroke="rgb(255,211,32)" stroke-linejoin="round" d="M 3237,11084 L 3337,11284 3437,11084 3237,11084 Z"/>
 <path fill="rgb(255,211,32)" stroke="none" d="M 3394,11084 L 3494,11284 3594,11084 3394,11084 Z"/>
 <path fill="none" stroke="rgb(255,211,32)" stroke-linejoin="round" d="M 3394,11084 L 3494,11284 3594,11084 3394,11084 Z"/>
 <path fill="rgb(255,211,32)" stroke="none" d="M 3550,11084 L 3650,11284 3750,11084 3550,11084 Z"/>
 <path fill="none" stroke="rgb(255,211,32)" stroke-linejoin="round" d="M 3550,11084 L 3650,11284 3750,11084 3550,11084 Z"/>
 <path fill="rgb(255,211,32)" stroke="none" d="M 3707,11084 L 3807,11284 3907,11084 3707,11084 Z"/>
 <path fill="none" stroke="rgb(255,211,32)" stroke-linejoin="round" d="M 3707,11084 L 3807,11284 3907,11084 3707,11084 Z"/>
 <path fill="rgb(255,211,32)" stroke="none" d="M 3863,11084 L 3963,11284 4063,11084 3863,11084 Z"/>
 <path fill="none" stroke="rgb(255,211,32)" stroke-linejoin="round" d="M 3863,11084 L 3963,11284 4063,11084 3863,11084 Z"/>
 <path fill="rgb(255,211,32)" stroke="none" d="M 4020,11084 L 4120,11284 4220,11084 4020,11084 Z"/>
 <path fill="none" stroke="rgb(255,211,32)" stroke-linejoin="round" d="M 4020,11084 L 4120,11284 4220,11084 4020,11084 Z"/>
 <path fill="rgb(255,211,32)" stroke="none" d="M 4176,11084 L 4276,11284 4376,11084 4176,11084 Z"/>
 <path fill="none" stroke="rgb(255,211,32)" stroke-linejoin="round" d="M 4176,11084 L 4276,11284 4376,11084 4176,11084 Z"/>
 <path fill="rgb(255,211,32)" stroke="none" d="M 4333,11084 L 4433,11284 4533,11084 4333,11084 Z"/>
 <path fill="none" stroke="rgb(255,211,32)" stroke-linejoin="round" d="M 4333,11084 L 4433,11284 4533,11084 4333,11084 Z"/>
 <path fill="rgb(255,211,32)" stroke="none" d="M 4489,11084 L 4589,11284 4689,11084 4489,11084 Z"/>
 <path fill="none" stroke="rgb(255,211,32)" stroke-linejoin="round" d="M 4489,11084 L 4589,11284 4689,11084 4489,11084 Z"/>
 <path fill="rgb(255,211,32)" stroke="none" d="M 4646,11084 L 4746,11284 4846,11084 4646,11084 Z"/>
 <path fill="none" stroke="rgb(255,211,32)" stroke-linejoin="round" d="M 4646,11084 L 4746,11284 4846,11084 4646,11084 Z"/>
 <path fill="rgb(255,211,32)" stroke="none" d="M 4803,11074 L 4903,11274 5003,11074 4803,11074 Z"/>
 <path fill="none" stroke="rgb(255,211,32)" stroke-linejoin="round" d="M 4803,11074 L 4903,11274 5003,11074 4803,11074 Z"/>
 <path fill="rgb(255,211,32)" stroke="none" d="M 4959,11070 L 5059,11270 5159,11070 4959,11070 Z"/>
 <path fill="none" stroke="rgb(255,211,32)" stroke-linejoin="round" d="M 4959,11070 L 5059,11270 5159,11070 4959,11070 Z"/>
 <path fill="rgb(255,211,32)" stroke="none" d="M 5116,11070 L 5216,11270 5316,11070 5116,11070 Z"/>
 <path fill="none" stroke="rgb(255,211,32)" stroke-linejoin="round" d="M 5116,11070 L 5216,11270 5316,11070 5116,11070 Z"/>
 <path fill="rgb(255,211,32)" stroke="none" d="M 5272,11042 L 5372,11242 5472,11042 5272,11042 Z"/>
 <path fill="none" stroke="rgb(255,211,32)" stroke-linejoin="round" d="M 5272,11042 L 5372,11242 5472,11042 5272,11042 Z"/>
 <path fill="rgb(255,211,32)" stroke="none" d="M 5429,11011 L 5529,11211 5629,11011 5429,11011 Z"/>
 <path fill="none" stroke="rgb(255,211,32)" stroke-linejoin="round" d="M 5429,11011 L 5529,11211 5629,11011 5429,11011 Z"/>
 <path fill="rgb(255,211,32)" stroke="none" d="M 5585,11004 L 5685,11204 5785,11004 5585,11004 Z"/>
 <path fill="none" stroke="rgb(255,211,32)" stroke-linejoin="round" d="M 5585,11004 L 5685,11204 5785,11004 5585,11004 Z"/>
 <path fill="rgb(255,211,32)" stroke="none" d="M 5742,10973 L 5842,11173 5942,10973 5742,10973 Z"/>
 <path fill="none" stroke="rgb(255,211,32)" stroke-linejoin="round" d="M 5742,10973 L 5842,11173 5942,10973 5742,10973 Z"/>
 <path fill="rgb(255,211,32)" stroke="none" d="M 5899,10914 L 5999,11114 6099,10914 5899,10914 Z"/>
 <path fill="none" stroke="rgb(255,211,32)" stroke-linejoin="round" d="M 5899,10914 L 5999,11114 6099,10914 5899,10914 Z"/>
 <path fill="rgb(255,211,32)" stroke="none" d="M 6055,10849 L 6155,11049 6255,10849 6055,10849 Z"/>
 <path fill="none" stroke="rgb(255,211,32)" stroke-linejoin="round" d="M 6055,10849 L 6155,11049 6255,10849 6055,10849 Z"/>
 <path fill="rgb(255,211,32)" stroke="none" d="M 6212,10762 L 6312,10962 6412,10762 6212,10762 Z"/>
 <path fill="none" stroke="rgb(255,211,32)" stroke-linejoin="round" d="M 6212,10762 L 6312,10962 6412,10762 6212,10762 Z"/>
 <path fill="rgb(255,211,32)" stroke="none" d="M 6368,10689 L 6468,10889 6568,10689 6368,10689 Z"/>
 <path fill="none" stroke="rgb(255,211,32)" stroke-linejoin="round" d="M 6368,10689 L 6468,10889 6568,10689 6368,10689 Z"/>
 <path fill="rgb(255,211,32)" stroke="none" d="M 6525,10592 L 6625,10792 6725,10592 6525,10592 Z"/>
 <path fill="none" stroke="rgb(255,211,32)" stroke-linejoin="round" d="M 6525,10592 L 6625,10792 6725,10592 6525,10592 Z"/>
 <path fill="rgb(255,211,32)" stroke="none" d="M 6681,10509 L 6781,10709 6881,10509 6681,10509 Z"/>
 <path fill="none" stroke="rgb(255,211,32)" stroke-linejoin="round" d="M 6681,10509 L 6781,10709 6881,10509 6681,10509 Z"/>
 <path fill="rgb(255,211,32)" stroke="none" d="M 6838,10402 L 6938,10602 7038,10402 6838,10402 Z"/>
 <path fill="none" stroke="rgb(255,211,32)" stroke-linejoin="round" d="M 6838,10402 L 6938,10602 7038,10402 6838,10402 Z"/>
 <path fill="rgb(255,211,32)" stroke="none" d="M 6994,10277 L 7094,10477 7194,10277 6994,10277 Z"/>
 <path fill="none" stroke="rgb(255,211,32)" stroke-linejoin="round" d="M 6994,10277 L 7094,10477 7194,10277 6994,10277 Z"/>
 <path fill="rgb(255,211,32)" stroke="none" d="M 7151,10163 L 7251,10363 7351,10163 7151,10163 Z"/>
 <path fill="none" stroke="rgb(255,211,32)" stroke-linejoin="round" d="M 7151,10163 L 7251,10363 7351,10163 7151,10163 Z"/>
 <path fill="rgb(255,211,32)" stroke="none" d="M 7308,10014 L 7408,10214 7507,10014 7308,10014 Z"/>
 <path fill="none" stroke="rgb(255,211,32)" stroke-linejoin="round" d="M 7308,10014 L 7408,10214 7507,10014 7308,10014 Z"/>
 <path fill="rgb(255,211,32)" stroke="none" d="M 7464,9914 L 7563,10114 7663,9914 7464,9914 Z"/>
 <path fill="none" stroke="rgb(255,211,32)" stroke-linejoin="round" d="M 7464,9914 L 7563,10114 7663,9914 7464,9914 Z"/>
 <path fill="rgb(255,211,32)" stroke="none" d="M 7620,9720 L 7720,9920 7820,9720 7620,9720 Z"/>
 <path fill="none" stroke="rgb(255,211,32)" stroke-linejoin="round" d="M 7620,9720 L 7720,9920 7820,9720 7620,9720 Z"/>
 <path fill="rgb(255,211,32)" stroke="none" d="M 7776,9553 L 7876,9753 7976,9553 7776,9553 Z"/>
 <path fill="none" stroke="rgb(255,211,32)" stroke-linejoin="round" d="M 7776,9553 L 7876,9753 7976,9553 7776,9553 Z"/>
 <path fill="rgb(255,211,32)" stroke="none" d="M 7933,9318 L 8033,9518 8133,9318 7933,9318 Z"/>
 <path fill="none" stroke="rgb(255,211,32)" stroke-linejoin="round" d="M 7933,9318 L 8033,9518 8133,9318 7933,9318 Z"/>
 <path fill="rgb(255,211,32)" stroke="none" d="M 8089,9110 L 8189,9310 8289,9110 8089,9110 Z"/>
 <path fill="none" stroke="rgb(255,211,32)" stroke-linejoin="round" d="M 8089,9110 L 8189,9310 8289,9110 8089,9110 Z"/>
 <path fill="rgb(255,211,32)" stroke="none" d="M 8246,8965 L 8346,9165 8446,8965 8246,8965 Z"/>
 <path fill="none" stroke="rgb(255,211,32)" stroke-linejoin="round" d="M 8246,8965 L 8346,9165 8446,8965 8246,8965 Z"/>
 <path fill="rgb(255,211,32)" stroke="none" d="M 8402,8882 L 8502,9082 8602,8882 8402,8882 Z"/>
 <path fill="none" stroke="rgb(255,211,32)" stroke-linejoin="round" d="M 8402,8882 L 8502,9082 8602,8882 8402,8882 Z"/>
 <path fill="rgb(255,211,32)" stroke="none" d="M 8559,8760 L 8659,8960 8759,8760 8559,8760 Z"/>
 <path fill="none" stroke="rgb(255,211,32)" stroke-linejoin="round" d="M 8559,8760 L 8659,8960 8759,8760 8559,8760 Z"/>
 <path fill="rgb(255,211,32)" stroke="none" d="M 8716,8580 L 8816,8780 8916,8580 8716,8580 Z"/>
 <path fill="none" stroke="rgb(255,211,32)" stroke-linejoin="round" d="M 8716,8580 L 8816,8780 8916,8580 8716,8580 Z"/>
 <path fill="rgb(255,211,32)" stroke="none" d="M 8872,8431 L 8972,8631 9072,8431 8872,8431 Z"/>
 <path fill="none" stroke="rgb(255,211,32)" stroke-linejoin="round" d="M 8872,8431 L 8972,8631 9072,8431 8872,8431 Z"/>
 <path fill="rgb(255,211,32)" stroke="none" d="M 9029,8331 L 9129,8531 9229,8331 9029,8331 Z"/>
 <path fill="none" stroke="rgb(255,211,32)" stroke-linejoin="round" d="M 9029,8331 L 9129,8531 9229,8331 9029,8331 Z"/>
 <path fill="rgb(255,211,32)" stroke="none" d="M 9185,8255 L 9285,8455 9385,8255 9185,8255 Z"/>
 <path fill="none" stroke="rgb(255,211,32)" stroke-linejoin="round" d="M 9185,8255 L 9285,8455 9385,8255 9185,8255 Z"/>
 <path fill="rgb(255,211,32)" stroke="none" d="M 9342,8186 L 9442,8386 9542,8186 9342,8186 Z"/>
 <path fill="none" stroke="rgb(255,211,32)" stroke-linejoin="round" d="M 9342,8186 L 9442,8386 9542,8186 9342,8186 Z"/>
 <path fill="rgb(255,211,32)" stroke="none" d="M 9498,8054 L 9598,8254 9698,8054 9498,8054 Z"/>
 <path fill="none" stroke="rgb(255,211,32)" stroke-linejoin="round" d="M 9498,8054 L 9598,8254 9698,8054 9498,8054 Z"/>
 <path fill="rgb(255,211,32)" stroke="none" d="M 9655,7947 L 9755,8147 9855,7947 9655,7947 Z"/>
 <path fill="none" stroke="rgb(255,211,32)" stroke-linejoin="round" d="M 9655,7947 L 9755,8147 9855,7947 9655,7947 Z"/>
 <path fill="rgb(255,211,32)" stroke="none" d="M 9811,7815 L 9911,8015 10011,7815 9811,7815 Z"/>
 <path fill="none" stroke="rgb(255,211,32)" stroke-linejoin="round" d="M 9811,7815 L 9911,8015 10011,7815 9811,7815 Z"/>
 <path fill="rgb(255,211,32)" stroke="none" d="M 9968,7722 L 10068,7922 10168,7722 9968,7722 Z"/>
 <path fill="none" stroke="rgb(255,211,32)" stroke-linejoin="round" d="M 9968,7722 L 10068,7922 10168,7722 9968,7722 Z"/>
 <path fill="rgb(255,211,32)" stroke="none" d="M 10125,7628 L 10225,7828 10325,7628 10125,7628 Z"/>
 <path fill="none" stroke="rgb(255,211,32)" stroke-linejoin="round" d="M 10125,7628 L 10225,7828 10325,7628 10125,7628 Z"/>
 <path fill="rgb(255,211,32)" stroke="none" d="M 10281,7479 L 10381,7679 10481,7479 10281,7479 Z"/>
 <path fill="none" stroke="rgb(255,211,32)" stroke-linejoin="round" d="M 10281,7479 L 10381,7679 10481,7479 10281,7479 Z"/>
 <path fill="rgb(255,211,32)" stroke="none" d="M 10438,7400 L 10538,7600 10638,7400 10438,7400 Z"/>
 <path fill="none" stroke="rgb(255,211,32)" stroke-linejoin="round" d="M 10438,7400 L 10538,7600 10638,7400 10438,7400 Z"/>
 <path fill="rgb(255,211,32)" stroke="none" d="M 10594,7351 L 10694,7551 10794,7351 10594,7351 Z"/>
 <path fill="none" stroke="rgb(255,211,32)" stroke-linejoin="round" d="M 10594,7351 L 10694,7551 10794,7351 10594,7351 Z"/>
 <path fill="rgb(255,211,32)" stroke="none" d="M 10751,7316 L 10851,7516 10951,7316 10751,7316 Z"/>
 <path fill="none" stroke="rgb(255,211,32)" stroke-linejoin="round" d="M 10751,7316 L 10851,7516 10951,7316 10751,7316 Z"/>
 <path fill="rgb(255,211,32)" stroke="none" d="M 10907,7258 L 11007,7458 11107,7258 10907,7258 Z"/>
 <path fill="none" stroke="rgb(255,211,32)" stroke-linejoin="round" d="M 10907,7258 L 11007,7458 11107,7258 10907,7258 Z"/>
 <path fill="rgb(255,211,32)" stroke="none" d="M 11064,7195 L 11164,7395 11264,7195 11064,7195 Z"/>
 <path fill="none" stroke="rgb(255,211,32)" stroke-linejoin="round" d="M 11064,7195 L 11164,7395 11264,7195 11064,7195 Z"/>
 <path fill="rgb(255,211,32)" stroke="none" d="M 11220,7116 L 11320,7316 11420,7116 11220,7116 Z"/>
 <path fill="none" stroke="rgb(255,211,32)" stroke-linejoin="round" d="M 11220,7116 L 11320,7316 11420,7116 11220,7116 Z"/>
 <path fill="rgb(255,211,32)" stroke="none" d="M 11377,7029 L 11477,7229 11577,7029 11377,7029 Z"/>
 <path fill="none" stroke="rgb(255,211,32)" stroke-linejoin="round" d="M 11377,7029 L 11477,7229 11577,7029 11377,7029 Z"/>
 <path fill="rgb(255,211,32)" stroke="none" d="M 11534,6981 L 11634,7181 11734,6981 11534,6981 Z"/>
 <path fill="none" stroke="rgb(255,211,32)" stroke-linejoin="round" d="M 11534,6981 L 11634,7181 11734,6981 11534,6981 Z"/>
 <path fill="rgb(255,211,32)" stroke="none" d="M 11690,6970 L 11790,7170 11890,6970 11690,6970 Z"/>
 <path fill="none" stroke="rgb(255,211,32)" stroke-linejoin="round" d="M 11690,6970 L 11790,7170 11890,6970 11690,6970 Z"/>
 <path fill="rgb(255,211,32)" stroke="none" d="M 11847,6932 L 11947,7132 12047,6932 11847,6932 Z"/>
 <path fill="none" stroke="rgb(255,211,32)" stroke-linejoin="round" d="M 11847,6932 L 11947,7132 12047,6932 11847,6932 Z"/>
 <path fill="rgb(255,211,32)" stroke="none" d="M 12003,6870 L 12103,7070 12203,6870 12003,6870 Z"/>
 <path fill="none" stroke="rgb(255,211,32)" stroke-linejoin="round" d="M 12003,6870 L 12103,7070 12203,6870 12003,6870 Z"/>
 <path fill="rgb(255,211,32)" stroke="none" d="M 12160,6807 L 12260,7007 12360,6807 12160,6807 Z"/>
 <path fill="none" stroke="rgb(255,211,32)" stroke-linejoin="round" d="M 12160,6807 L 12260,7007 12360,6807 12160,6807 Z"/>
 <path fill="rgb(255,211,32)" stroke="none" d="M 12316,6776 L 12416,6976 12516,6776 12316,6776 Z"/>
 <path fill="none" stroke="rgb(255,211,32)" stroke-linejoin="round" d="M 12316,6776 L 12416,6976 12516,6776 12316,6776 Z"/>
 <path fill="rgb(255,211,32)" stroke="none" d="M 12473,6731 L 12573,6931 12673,6731 12473,6731 Z"/>
 <path fill="none" stroke="rgb(255,211,32)" stroke-linejoin="round" d="M 12473,6731 L 12573,6931 12673,6731 12473,6731 Z"/>
 <path fill="rgb(255,211,32)" stroke="none" d="M 12630,6710 L 12730,6910 12830,6710 12630,6710 Z"/>
 <path fill="none" stroke="rgb(255,211,32)" stroke-linejoin="round" d="M 12630,6710 L 12730,6910 12830,6710 12630,6710 Z"/>
 <path fill="rgb(255,211,32)" stroke="none" d="M 12786,6693 L 12886,6893 12986,6693 12786,6693 Z"/>
 <path fill="none" stroke="rgb(255,211,32)" stroke-linejoin="round" d="M 12786,6693 L 12886,6893 12986,6693 12786,6693 Z"/>
 <path fill="rgb(255,211,32)" stroke="none" d="M 12943,6659 L 13043,6859 13143,6659 12943,6659 Z"/>
 <path fill="none" stroke="rgb(255,211,32)" stroke-linejoin="round" d="M 12943,6659 L 13043,6859 13143,6659 12943,6659 Z"/>
 <path fill="rgb(255,211,32)" stroke="none" d="M 13099,6617 L 13199,6817 13299,6617 13099,6617 Z"/>
 <path fill="none" stroke="rgb(255,211,32)" stroke-linejoin="round" d="M 13099,6617 L 13199,6817 13299,6617 13099,6617 Z"/>
 <path fill="rgb(255,211,32)" stroke="none" d="M 13256,6575 L 13356,6775 13456,6575 13256,6575 Z"/>
 <path fill="none" stroke="rgb(255,211,32)" stroke-linejoin="round" d="M 13256,6575 L 13356,6775 13456,6575 13256,6575 Z"/>
 <path fill="rgb(255,211,32)" stroke="none" d="M 13412,6555 L 13512,6755 13612,6555 13412,6555 Z"/>
 <path fill="none" stroke="rgb(255,211,32)" stroke-linejoin="round" d="M 13412,6555 L 13512,6755 13612,6555 13412,6555 Z"/>
 <path fill="rgb(255,211,32)" stroke="none" d="M 13569,6534 L 13669,6734 13769,6534 13569,6534 Z"/>
 <path fill="none" stroke="rgb(255,211,32)" stroke-linejoin="round" d="M 13569,6534 L 13669,6734 13769,6534 13569,6534 Z"/>
 <path fill="rgb(255,211,32)" stroke="none" d="M 13725,6506 L 13825,6706 13925,6506 13725,6506 Z"/>
 <path fill="none" stroke="rgb(255,211,32)" stroke-linejoin="round" d="M 13725,6506 L 13825,6706 13925,6506 13725,6506 Z"/>
 <path fill="rgb(255,211,32)" stroke="none" d="M 13882,6482 L 13982,6682 14082,6482 13882,6482 Z"/>
 <path fill="none" stroke="rgb(255,211,32)" stroke-linejoin="round" d="M 13882,6482 L 13982,6682 14082,6482 13882,6482 Z"/>
 <path fill="rgb(255,211,32)" stroke="none" d="M 14039,6461 L 14139,6661 14239,6461 14039,6461 Z"/>
 <path fill="none" stroke="rgb(255,211,32)" stroke-linejoin="round" d="M 14039,6461 L 14139,6661 14239,6461 14039,6461 Z"/>
 <path fill="rgb(255,211,32)" stroke="none" d="M 14195,6444 L 14295,6644 14395,6444 14195,6444 Z"/>
 <path fill="none" stroke="rgb(255,211,32)" stroke-linejoin="round" d="M 14195,6444 L 14295,6644 14395,6444 14195,6444 Z"/>
 <path fill="rgb(255,211,32)" stroke="none" d="M 14352,6416 L 14452,6616 14552,6416 14352,6416 Z"/>
 <path fill="none" stroke="rgb(255,211,32)" stroke-linejoin="round" d="M 14352,6416 L 14452,6616 14552,6416 14352,6416 Z"/>
 <path fill="rgb(255,211,32)" stroke="none" d="M 14508,6385 L 14608,6585 14708,6385 14508,6385 Z"/>
 <path fill="none" stroke="rgb(255,211,32)" stroke-linejoin="round" d="M 14508,6385 L 14608,6585 14708,6385 14508,6385 Z"/>
 <path fill="none" stroke="rgb(87,157,28)" stroke-width="50" stroke-linejoin="round" d="M 4589,11173 L 4746,11173 4903,11158 5059,11158 5216,11158 5372,11143 5529,11098 5685,11068 5842,11038 5999,11008 6155,10978 6312,10918 6468,10799 6625,10604 6781,10320 6938,10156 7094,9871 7251,9692 7408,9602 7563,9199 7720,8914 7876,8481 8033,8197 8189,8077 8346,7927 8502,7778 8659,7329 8816,7135 8972,6955 9129,6881 9285,6656 9442,6522 9598,6387 9755,6193 9911,6073 10068,5820 10225,5625 10381,5506 10538,5446 10694,5371 10851,5251 11007,5147 11164,5102 11320,5042 11477,4967 11634,4878 11790,4788 11947,4713 12103,4608 12260,4519 12416,4444 12573,4339 12730,4309 12886,4309 13043,4279 13199,4264 13356,4205 13512,4130 13669,4055 13825,4010 13982,3965 14139,3906 14295,3876 14452,3831 14608,3801"/>
 <path fill="rgb(87,157,28)" stroke="none" d="M 4489,11273 L 4689,11273 4589,11073 4489,11273 Z"/>
 <path fill="none" stroke="rgb(87,157,28)" stroke-linejoin="round" d="M 4489,11273 L 4689,11273 4589,11073 4489,11273 Z"/>
 <path fill="rgb(87,157,28)" stroke="none" d="M 4646,11273 L 4846,11273 4746,11073 4646,11273 Z"/>
 <path fill="none" stroke="rgb(87,157,28)" stroke-linejoin="round" d="M 4646,11273 L 4846,11273 4746,11073 4646,11273 Z"/>
 <path fill="rgb(87,157,28)" stroke="none" d="M 4803,11258 L 5003,11258 4903,11058 4803,11258 Z"/>
 <path fill="none" stroke="rgb(87,157,28)" stroke-linejoin="round" d="M 4803,11258 L 5003,11258 4903,11058 4803,11258 Z"/>
 <path fill="rgb(87,157,28)" stroke="none" d="M 4959,11258 L 5159,11258 5059,11058 4959,11258 Z"/>
 <path fill="none" stroke="rgb(87,157,28)" stroke-linejoin="round" d="M 4959,11258 L 5159,11258 5059,11058 4959,11258 Z"/>
 <path fill="rgb(87,157,28)" stroke="none" d="M 5116,11258 L 5316,11258 5216,11058 5116,11258 Z"/>
 <path fill="none" stroke="rgb(87,157,28)" stroke-linejoin="round" d="M 5116,11258 L 5316,11258 5216,11058 5116,11258 Z"/>
 <path fill="rgb(87,157,28)" stroke="none" d="M 5272,11243 L 5472,11243 5372,11043 5272,11243 Z"/>
 <path fill="none" stroke="rgb(87,157,28)" stroke-linejoin="round" d="M 5272,11243 L 5472,11243 5372,11043 5272,11243 Z"/>
 <path fill="rgb(87,157,28)" stroke="none" d="M 5429,11198 L 5629,11198 5529,10998 5429,11198 Z"/>
 <path fill="none" stroke="rgb(87,157,28)" stroke-linejoin="round" d="M 5429,11198 L 5629,11198 5529,10998 5429,11198 Z"/>
 <path fill="rgb(87,157,28)" stroke="none" d="M 5585,11168 L 5785,11168 5685,10968 5585,11168 Z"/>
 <path fill="none" stroke="rgb(87,157,28)" stroke-linejoin="round" d="M 5585,11168 L 5785,11168 5685,10968 5585,11168 Z"/>
 <path fill="rgb(87,157,28)" stroke="none" d="M 5742,11138 L 5942,11138 5842,10938 5742,11138 Z"/>
 <path fill="none" stroke="rgb(87,157,28)" stroke-linejoin="round" d="M 5742,11138 L 5942,11138 5842,10938 5742,11138 Z"/>
 <path fill="rgb(87,157,28)" stroke="none" d="M 5899,11108 L 6099,11108 5999,10908 5899,11108 Z"/>
 <path fill="none" stroke="rgb(87,157,28)" stroke-linejoin="round" d="M 5899,11108 L 6099,11108 5999,10908 5899,11108 Z"/>
 <path fill="rgb(87,157,28)" stroke="none" d="M 6055,11078 L 6255,11078 6155,10878 6055,11078 Z"/>
 <path fill="none" stroke="rgb(87,157,28)" stroke-linejoin="round" d="M 6055,11078 L 6255,11078 6155,10878 6055,11078 Z"/>
 <path fill="rgb(87,157,28)" stroke="none" d="M 6212,11018 L 6412,11018 6312,10818 6212,11018 Z"/>
 <path fill="none" stroke="rgb(87,157,28)" stroke-linejoin="round" d="M 6212,11018 L 6412,11018 6312,10818 6212,11018 Z"/>
 <path fill="rgb(87,157,28)" stroke="none" d="M 6368,10899 L 6568,10899 6468,10699 6368,10899 Z"/>
 <path fill="none" stroke="rgb(87,157,28)" stroke-linejoin="round" d="M 6368,10899 L 6568,10899 6468,10699 6368,10899 Z"/>
 <path fill="rgb(87,157,28)" stroke="none" d="M 6525,10704 L 6725,10704 6625,10504 6525,10704 Z"/>
 <path fill="none" stroke="rgb(87,157,28)" stroke-linejoin="round" d="M 6525,10704 L 6725,10704 6625,10504 6525,10704 Z"/>
 <path fill="rgb(87,157,28)" stroke="none" d="M 6681,10420 L 6881,10420 6781,10220 6681,10420 Z"/>
 <path fill="none" stroke="rgb(87,157,28)" stroke-linejoin="round" d="M 6681,10420 L 6881,10420 6781,10220 6681,10420 Z"/>
 <path fill="rgb(87,157,28)" stroke="none" d="M 6838,10256 L 7038,10256 6938,10056 6838,10256 Z"/>
 <path fill="none" stroke="rgb(87,157,28)" stroke-linejoin="round" d="M 6838,10256 L 7038,10256 6938,10056 6838,10256 Z"/>
 <path fill="rgb(87,157,28)" stroke="none" d="M 6994,9971 L 7194,9971 7094,9771 6994,9971 Z"/>
 <path fill="none" stroke="rgb(87,157,28)" stroke-linejoin="round" d="M 6994,9971 L 7194,9971 7094,9771 6994,9971 Z"/>
 <path fill="rgb(87,157,28)" stroke="none" d="M 7151,9792 L 7351,9792 7251,9592 7151,9792 Z"/>
 <path fill="none" stroke="rgb(87,157,28)" stroke-linejoin="round" d="M 7151,9792 L 7351,9792 7251,9592 7151,9792 Z"/>
 <path fill="rgb(87,157,28)" stroke="none" d="M 7308,9702 L 7507,9702 7408,9502 7308,9702 Z"/>
 <path fill="none" stroke="rgb(87,157,28)" stroke-linejoin="round" d="M 7308,9702 L 7507,9702 7408,9502 7308,9702 Z"/>
 <path fill="rgb(87,157,28)" stroke="none" d="M 7464,9299 L 7663,9299 7563,9099 7464,9299 Z"/>
 <path fill="none" stroke="rgb(87,157,28)" stroke-linejoin="round" d="M 7464,9299 L 7663,9299 7563,9099 7464,9299 Z"/>
 <path fill="rgb(87,157,28)" stroke="none" d="M 7620,9014 L 7820,9014 7720,8814 7620,9014 Z"/>
 <path fill="none" stroke="rgb(87,157,28)" stroke-linejoin="round" d="M 7620,9014 L 7820,9014 7720,8814 7620,9014 Z"/>
 <path fill="rgb(87,157,28)" stroke="none" d="M 7776,8581 L 7976,8581 7876,8381 7776,8581 Z"/>
 <path fill="none" stroke="rgb(87,157,28)" stroke-linejoin="round" d="M 7776,8581 L 7976,8581 7876,8381 7776,8581 Z"/>
 <path fill="rgb(87,157,28)" stroke="none" d="M 7933,8297 L 8133,8297 8033,8097 7933,8297 Z"/>
 <path fill="none" stroke="rgb(87,157,28)" stroke-linejoin="round" d="M 7933,8297 L 8133,8297 8033,8097 7933,8297 Z"/>
 <path fill="rgb(87,157,28)" stroke="none" d="M 8089,8177 L 8289,8177 8189,7977 8089,8177 Z"/>
 <path fill="none" stroke="rgb(87,157,28)" stroke-linejoin="round" d="M 8089,8177 L 8289,8177 8189,7977 8089,8177 Z"/>
 <path fill="rgb(87,157,28)" stroke="none" d="M 8246,8027 L 8446,8027 8346,7827 8246,8027 Z"/>
 <path fill="none" stroke="rgb(87,157,28)" stroke-linejoin="round" d="M 8246,8027 L 8446,8027 8346,7827 8246,8027 Z"/>
 <path fill="rgb(87,157,28)" stroke="none" d="M 8402,7878 L 8602,7878 8502,7678 8402,7878 Z"/>
 <path fill="none" stroke="rgb(87,157,28)" stroke-linejoin="round" d="M 8402,7878 L 8602,7878 8502,7678 8402,7878 Z"/>
 <path fill="rgb(87,157,28)" stroke="none" d="M 8559,7429 L 8759,7429 8659,7229 8559,7429 Z"/>
 <path fill="none" stroke="rgb(87,157,28)" stroke-linejoin="round" d="M 8559,7429 L 8759,7429 8659,7229 8559,7429 Z"/>
 <path fill="rgb(87,157,28)" stroke="none" d="M 8716,7235 L 8916,7235 8816,7035 8716,7235 Z"/>
 <path fill="none" stroke="rgb(87,157,28)" stroke-linejoin="round" d="M 8716,7235 L 8916,7235 8816,7035 8716,7235 Z"/>
 <path fill="rgb(87,157,28)" stroke="none" d="M 8872,7055 L 9072,7055 8972,6855 8872,7055 Z"/>
 <path fill="none" stroke="rgb(87,157,28)" stroke-linejoin="round" d="M 8872,7055 L 9072,7055 8972,6855 8872,7055 Z"/>
 <path fill="rgb(87,157,28)" stroke="none" d="M 9029,6981 L 9229,6981 9129,6781 9029,6981 Z"/>
 <path fill="none" stroke="rgb(87,157,28)" stroke-linejoin="round" d="M 9029,6981 L 9229,6981 9129,6781 9029,6981 Z"/>
 <path fill="rgb(87,157,28)" stroke="none" d="M 9185,6756 L 9385,6756 9285,6556 9185,6756 Z"/>
 <path fill="none" stroke="rgb(87,157,28)" stroke-linejoin="round" d="M 9185,6756 L 9385,6756 9285,6556 9185,6756 Z"/>
 <path fill="rgb(87,157,28)" stroke="none" d="M 9342,6622 L 9542,6622 9442,6422 9342,6622 Z"/>
 <path fill="none" stroke="rgb(87,157,28)" stroke-linejoin="round" d="M 9342,6622 L 9542,6622 9442,6422 9342,6622 Z"/>
 <path fill="rgb(87,157,28)" stroke="none" d="M 9498,6487 L 9698,6487 9598,6287 9498,6487 Z"/>
 <path fill="none" stroke="rgb(87,157,28)" stroke-linejoin="round" d="M 9498,6487 L 9698,6487 9598,6287 9498,6487 Z"/>
 <path fill="rgb(87,157,28)" stroke="none" d="M 9655,6293 L 9855,6293 9755,6093 9655,6293 Z"/>
 <path fill="none" stroke="rgb(87,157,28)" stroke-linejoin="round" d="M 9655,6293 L 9855,6293 9755,6093 9655,6293 Z"/>
 <path fill="rgb(87,157,28)" stroke="none" d="M 9811,6173 L 10011,6173 9911,5974 9811,6173 Z"/>
 <path fill="none" stroke="rgb(87,157,28)" stroke-linejoin="round" d="M 9811,6173 L 10011,6173 9911,5974 9811,6173 Z"/>
 <path fill="rgb(87,157,28)" stroke="none" d="M 9968,5920 L 10168,5920 10068,5720 9968,5920 Z"/>
 <path fill="none" stroke="rgb(87,157,28)" stroke-linejoin="round" d="M 9968,5920 L 10168,5920 10068,5720 9968,5920 Z"/>
 <path fill="rgb(87,157,28)" stroke="none" d="M 10125,5725 L 10325,5725 10225,5525 10125,5725 Z"/>
 <path fill="none" stroke="rgb(87,157,28)" stroke-linejoin="round" d="M 10125,5725 L 10325,5725 10225,5525 10125,5725 Z"/>
 <path fill="rgb(87,157,28)" stroke="none" d="M 10281,5606 L 10481,5606 10381,5406 10281,5606 Z"/>
 <path fill="none" stroke="rgb(87,157,28)" stroke-linejoin="round" d="M 10281,5606 L 10481,5606 10381,5406 10281,5606 Z"/>
 <path fill="rgb(87,157,28)" stroke="none" d="M 10438,5546 L 10638,5546 10538,5346 10438,5546 Z"/>
 <path fill="none" stroke="rgb(87,157,28)" stroke-linejoin="round" d="M 10438,5546 L 10638,5546 10538,5346 10438,5546 Z"/>
 <path fill="rgb(87,157,28)" stroke="none" d="M 10594,5471 L 10794,5471 10694,5271 10594,5471 Z"/>
 <path fill="none" stroke="rgb(87,157,28)" stroke-linejoin="round" d="M 10594,5471 L 10794,5471 10694,5271 10594,5471 Z"/>
 <path fill="rgb(87,157,28)" stroke="none" d="M 10751,5351 L 10951,5351 10851,5151 10751,5351 Z"/>
 <path fill="none" stroke="rgb(87,157,28)" stroke-linejoin="round" d="M 10751,5351 L 10951,5351 10851,5151 10751,5351 Z"/>
 <path fill="rgb(87,157,28)" stroke="none" d="M 10907,5247 L 11107,5247 11007,5047 10907,5247 Z"/>
 <path fill="none" stroke="rgb(87,157,28)" stroke-linejoin="round" d="M 10907,5247 L 11107,5247 11007,5047 10907,5247 Z"/>
 <path fill="rgb(87,157,28)" stroke="none" d="M 11064,5202 L 11264,5202 11164,5002 11064,5202 Z"/>
 <path fill="none" stroke="rgb(87,157,28)" stroke-linejoin="round" d="M 11064,5202 L 11264,5202 11164,5002 11064,5202 Z"/>
 <path fill="rgb(87,157,28)" stroke="none" d="M 11220,5142 L 11420,5142 11320,4942 11220,5142 Z"/>
 <path fill="none" stroke="rgb(87,157,28)" stroke-linejoin="round" d="M 11220,5142 L 11420,5142 11320,4942 11220,5142 Z"/>
 <path fill="rgb(87,157,28)" stroke="none" d="M 11377,5067 L 11577,5067 11477,4867 11377,5067 Z"/>
 <path fill="none" stroke="rgb(87,157,28)" stroke-linejoin="round" d="M 11377,5067 L 11577,5067 11477,4867 11377,5067 Z"/>
 <path fill="rgb(87,157,28)" stroke="none" d="M 11534,4978 L 11734,4978 11634,4778 11534,4978 Z"/>
 <path fill="none" stroke="rgb(87,157,28)" stroke-linejoin="round" d="M 11534,4978 L 11734,4978 11634,4778 11534,4978 Z"/>
 <path fill="rgb(87,157,28)" stroke="none" d="M 11690,4888 L 11890,4888 11790,4688 11690,4888 Z"/>
 <path fill="none" stroke="rgb(87,157,28)" stroke-linejoin="round" d="M 11690,4888 L 11890,4888 11790,4688 11690,4888 Z"/>
 <path fill="rgb(87,157,28)" stroke="none" d="M 11847,4813 L 12047,4813 11947,4613 11847,4813 Z"/>
 <path fill="none" stroke="rgb(87,157,28)" stroke-linejoin="round" d="M 11847,4813 L 12047,4813 11947,4613 11847,4813 Z"/>
 <path fill="rgb(87,157,28)" stroke="none" d="M 12003,4708 L 12203,4708 12103,4508 12003,4708 Z"/>
 <path fill="none" stroke="rgb(87,157,28)" stroke-linejoin="round" d="M 12003,4708 L 12203,4708 12103,4508 12003,4708 Z"/>
 <path fill="rgb(87,157,28)" stroke="none" d="M 12160,4619 L 12360,4619 12260,4419 12160,4619 Z"/>
 <path fill="none" stroke="rgb(87,157,28)" stroke-linejoin="round" d="M 12160,4619 L 12360,4619 12260,4419 12160,4619 Z"/>
 <path fill="rgb(87,157,28)" stroke="none" d="M 12316,4544 L 12516,4544 12416,4344 12316,4544 Z"/>
 <path fill="none" stroke="rgb(87,157,28)" stroke-linejoin="round" d="M 12316,4544 L 12516,4544 12416,4344 12316,4544 Z"/>
 <path fill="rgb(87,157,28)" stroke="none" d="M 12473,4439 L 12673,4439 12573,4239 12473,4439 Z"/>
 <path fill="none" stroke="rgb(87,157,28)" stroke-linejoin="round" d="M 12473,4439 L 12673,4439 12573,4239 12473,4439 Z"/>
 <path fill="rgb(87,157,28)" stroke="none" d="M 12630,4409 L 12830,4409 12730,4209 12630,4409 Z"/>
 <path fill="none" stroke="rgb(87,157,28)" stroke-linejoin="round" d="M 12630,4409 L 12830,4409 12730,4209 12630,4409 Z"/>
 <path fill="rgb(87,157,28)" stroke="none" d="M 12786,4409 L 12986,4409 12886,4209 12786,4409 Z"/>
 <path fill="none" stroke="rgb(87,157,28)" stroke-linejoin="round" d="M 12786,4409 L 12986,4409 12886,4209 12786,4409 Z"/>
 <path fill="rgb(87,157,28)" stroke="none" d="M 12943,4379 L 13143,4379 13043,4179 12943,4379 Z"/>
 <path fill="none" stroke="rgb(87,157,28)" stroke-linejoin="round" d="M 12943,4379 L 13143,4379 13043,4179 12943,4379 Z"/>
 <path fill="rgb(87,157,28)" stroke="none" d="M 13099,4364 L 13299,4364 13199,4164 13099,4364 Z"/>
 <path fill="none" stroke="rgb(87,157,28)" stroke-linejoin="round" d="M 13099,4364 L 13299,4364 13199,4164 13099,4364 Z"/>
 <path fill="rgb(87,157,28)" stroke="none" d="M 13256,4305 L 13456,4305 13356,4105 13256,4305 Z"/>
 <path fill="none" stroke="rgb(87,157,28)" stroke-linejoin="round" d="M 13256,4305 L 13456,4305 13356,4105 13256,4305 Z"/>
 <path fill="rgb(87,157,28)" stroke="none" d="M 13412,4230 L 13612,4230 13512,4030 13412,4230 Z"/>
 <path fill="none" stroke="rgb(87,157,28)" stroke-linejoin="round" d="M 13412,4230 L 13612,4230 13512,4030 13412,4230 Z"/>
 <path fill="rgb(87,157,28)" stroke="none" d="M 13569,4155 L 13769,4155 13669,3955 13569,4155 Z"/>
 <path fill="none" stroke="rgb(87,157,28)" stroke-linejoin="round" d="M 13569,4155 L 13769,4155 13669,3955 13569,4155 Z"/>
 <path fill="rgb(87,157,28)" stroke="none" d="M 13725,4110 L 13925,4110 13825,3910 13725,4110 Z"/>
 <path fill="none" stroke="rgb(87,157,28)" stroke-linejoin="round" d="M 13725,4110 L 13925,4110 13825,3910 13725,4110 Z"/>
 <path fill="rgb(87,157,28)" stroke="none" d="M 13882,4065 L 14082,4065 13982,3865 13882,4065 Z"/>
 <path fill="none" stroke="rgb(87,157,28)" stroke-linejoin="round" d="M 13882,4065 L 14082,4065 13982,3865 13882,4065 Z"/>
 <path fill="rgb(87,157,28)" stroke="none" d="M 14039,4006 L 14239,4006 14139,3806 14039,4006 Z"/>
 <path fill="none" stroke="rgb(87,157,28)" stroke-linejoin="round" d="M 14039,4006 L 14239,4006 14139,3806 14039,4006 Z"/>
 <path fill="rgb(87,157,28)" stroke="none" d="M 14195,3976 L 14395,3976 14295,3776 14195,3976 Z"/>
 <path fill="none" stroke="rgb(87,157,28)" stroke-linejoin="round" d="M 14195,3976 L 14395,3976 14295,3776 14195,3976 Z"/>
 <path fill="rgb(87,157,28)" stroke="none" d="M 14352,3931 L 14552,3931 14452,3731 14352,3931 Z"/>
 <path fill="none" stroke="rgb(87,157,28)" stroke-linejoin="round" d="M 14352,3931 L 14552,3931 14452,3731 14352,3931 Z"/>
 <path fill="rgb(87,157,28)" stroke="none" d="M 14508,3901 L 14708,3901 14608,3701 14508,3901 Z"/>
 <path fill="none" stroke="rgb(87,157,28)" stroke-linejoin="round" d="M 14508,3901 L 14708,3901 14608,3701 14508,3901 Z"/>
 <path fill="none" stroke="rgb(126,0,33)" stroke-width="50" stroke-linejoin="round" d="M 3494,11181 L 3650,11181 3807,11174 3963,11154 4120,11154 4276,11147 4433,11147 4589,11113 4746,11093 4903,11093 5059,11032 5216,11032 5372,10944 5529,10917 5685,10829 5842,10707 5999,10612 6155,10531 6312,10375 6468,10287 6625,10138 6781,9969 6938,9786 7094,9691 7251,9393 7408,9176 7563,8987 7720,8689 7876,8398 8033,8181 8189,7958 8346,7700 8502,7477 8659,7219 8816,6888 8972,6522 9129,6251 9285,6007 9442,5744 9598,5561 9755,5372 9911,5081 10068,4715 10225,4471 10381,4282 10538,3997 10694,3869 10851,3720 11007,3577 11164,3286 11320,3110 11477,2982 11634,2860 11790,2785 11947,2690 12103,2562 12260,2413 12416,2304 12573,2243 12730,2189 12886,2108 13043,2027 13199,1952 13356,1824 13512,1776 13669,1688 13825,1587 13982,1553 14139,1512 14295,1424 14452,1343 14608,1343"/>
 <path fill="rgb(126,0,33)" stroke="none" d="M 3394,11081 L 3394,11281 3594,11181 3394,11081 Z"/>
 <path fill="none" stroke="rgb(126,0,33)" stroke-linejoin="round" d="M 3394,11081 L 3394,11281 3594,11181 3394,11081 Z"/>
 <path fill="rgb(126,0,33)" stroke="none" d="M 3550,11081 L 3550,11281 3750,11181 3550,11081 Z"/>
 <path fill="none" stroke="rgb(126,0,33)" stroke-linejoin="round" d="M 3550,11081 L 3550,11281 3750,11181 3550,11081 Z"/>
 <path fill="rgb(126,0,33)" stroke="none" d="M 3707,11074 L 3707,11274 3907,11174 3707,11074 Z"/>
 <path fill="none" stroke="rgb(126,0,33)" stroke-linejoin="round" d="M 3707,11074 L 3707,11274 3907,11174 3707,11074 Z"/>
 <path fill="rgb(126,0,33)" stroke="none" d="M 3863,11054 L 3863,11254 4063,11154 3863,11054 Z"/>
 <path fill="none" stroke="rgb(126,0,33)" stroke-linejoin="round" d="M 3863,11054 L 3863,11254 4063,11154 3863,11054 Z"/>
 <path fill="rgb(126,0,33)" stroke="none" d="M 4020,11054 L 4020,11254 4220,11154 4020,11054 Z"/>
 <path fill="none" stroke="rgb(126,0,33)" stroke-linejoin="round" d="M 4020,11054 L 4020,11254 4220,11154 4020,11054 Z"/>
 <path fill="rgb(126,0,33)" stroke="none" d="M 4176,11047 L 4176,11247 4376,11147 4176,11047 Z"/>
 <path fill="none" stroke="rgb(126,0,33)" stroke-linejoin="round" d="M 4176,11047 L 4176,11247 4376,11147 4176,11047 Z"/>
 <path fill="rgb(126,0,33)" stroke="none" d="M 4333,11047 L 4333,11247 4533,11147 4333,11047 Z"/>
 <path fill="none" stroke="rgb(126,0,33)" stroke-linejoin="round" d="M 4333,11047 L 4333,11247 4533,11147 4333,11047 Z"/>
 <path fill="rgb(126,0,33)" stroke="none" d="M 4489,11013 L 4489,11213 4689,11113 4489,11013 Z"/>
 <path fill="none" stroke="rgb(126,0,33)" stroke-linejoin="round" d="M 4489,11013 L 4489,11213 4689,11113 4489,11013 Z"/>
 <path fill="rgb(126,0,33)" stroke="none" d="M 4646,10993 L 4646,11193 4846,11093 4646,10993 Z"/>
 <path fill="none" stroke="rgb(126,0,33)" stroke-linejoin="round" d="M 4646,10993 L 4646,11193 4846,11093 4646,10993 Z"/>
 <path fill="rgb(126,0,33)" stroke="none" d="M 4803,10993 L 4803,11193 5003,11093 4803,10993 Z"/>
 <path fill="none" stroke="rgb(126,0,33)" stroke-linejoin="round" d="M 4803,10993 L 4803,11193 5003,11093 4803,10993 Z"/>
 <path fill="rgb(126,0,33)" stroke="none" d="M 4959,10932 L 4959,11132 5159,11032 4959,10932 Z"/>
 <path fill="none" stroke="rgb(126,0,33)" stroke-linejoin="round" d="M 4959,10932 L 4959,11132 5159,11032 4959,10932 Z"/>
 <path fill="rgb(126,0,33)" stroke="none" d="M 5116,10932 L 5116,11132 5316,11032 5116,10932 Z"/>
 <path fill="none" stroke="rgb(126,0,33)" stroke-linejoin="round" d="M 5116,10932 L 5116,11132 5316,11032 5116,10932 Z"/>
 <path fill="rgb(126,0,33)" stroke="none" d="M 5272,10844 L 5272,11044 5472,10944 5272,10844 Z"/>
 <path fill="none" stroke="rgb(126,0,33)" stroke-linejoin="round" d="M 5272,10844 L 5272,11044 5472,10944 5272,10844 Z"/>
 <path fill="rgb(126,0,33)" stroke="none" d="M 5429,10817 L 5429,11017 5629,10917 5429,10817 Z"/>
 <path fill="none" stroke="rgb(126,0,33)" stroke-linejoin="round" d="M 5429,10817 L 5429,11017 5629,10917 5429,10817 Z"/>
 <path fill="rgb(126,0,33)" stroke="none" d="M 5585,10729 L 5585,10929 5785,10829 5585,10729 Z"/>
 <path fill="none" stroke="rgb(126,0,33)" stroke-linejoin="round" d="M 5585,10729 L 5585,10929 5785,10829 5585,10729 Z"/>
 <path fill="rgb(126,0,33)" stroke="none" d="M 5742,10607 L 5742,10807 5942,10707 5742,10607 Z"/>
 <path fill="none" stroke="rgb(126,0,33)" stroke-linejoin="round" d="M 5742,10607 L 5742,10807 5942,10707 5742,10607 Z"/>
 <path fill="rgb(126,0,33)" stroke="none" d="M 5899,10512 L 5899,10712 6099,10612 5899,10512 Z"/>
 <path fill="none" stroke="rgb(126,0,33)" stroke-linejoin="round" d="M 5899,10512 L 5899,10712 6099,10612 5899,10512 Z"/>
 <path fill="rgb(126,0,33)" stroke="none" d="M 6055,10431 L 6055,10631 6255,10531 6055,10431 Z"/>
 <path fill="none" stroke="rgb(126,0,33)" stroke-linejoin="round" d="M 6055,10431 L 6055,10631 6255,10531 6055,10431 Z"/>
 <path fill="rgb(126,0,33)" stroke="none" d="M 6212,10275 L 6212,10475 6412,10375 6212,10275 Z"/>
 <path fill="none" stroke="rgb(126,0,33)" stroke-linejoin="round" d="M 6212,10275 L 6212,10475 6412,10375 6212,10275 Z"/>
 <path fill="rgb(126,0,33)" stroke="none" d="M 6368,10187 L 6368,10387 6568,10287 6368,10187 Z"/>
 <path fill="none" stroke="rgb(126,0,33)" stroke-linejoin="round" d="M 6368,10187 L 6368,10387 6568,10287 6368,10187 Z"/>
 <path fill="rgb(126,0,33)" stroke="none" d="M 6525,10038 L 6525,10238 6725,10138 6525,10038 Z"/>
 <path fill="none" stroke="rgb(126,0,33)" stroke-linejoin="round" d="M 6525,10038 L 6525,10238 6725,10138 6525,10038 Z"/>
 <path fill="rgb(126,0,33)" stroke="none" d="M 6681,9869 L 6681,10069 6881,9969 6681,9869 Z"/>
 <path fill="none" stroke="rgb(126,0,33)" stroke-linejoin="round" d="M 6681,9869 L 6681,10069 6881,9969 6681,9869 Z"/>
 <path fill="rgb(126,0,33)" stroke="none" d="M 6838,9686 L 6838,9886 7038,9786 6838,9686 Z"/>
 <path fill="none" stroke="rgb(126,0,33)" stroke-linejoin="round" d="M 6838,9686 L 6838,9886 7038,9786 6838,9686 Z"/>
 <path fill="rgb(126,0,33)" stroke="none" d="M 6994,9591 L 6994,9791 7194,9691 6994,9591 Z"/>
 <path fill="none" stroke="rgb(126,0,33)" stroke-linejoin="round" d="M 6994,9591 L 6994,9791 7194,9691 6994,9591 Z"/>
 <path fill="rgb(126,0,33)" stroke="none" d="M 7151,9293 L 7151,9493 7351,9393 7151,9293 Z"/>
 <path fill="none" stroke="rgb(126,0,33)" stroke-linejoin="round" d="M 7151,9293 L 7151,9493 7351,9393 7151,9293 Z"/>
 <path fill="rgb(126,0,33)" stroke="none" d="M 7308,9076 L 7308,9276 7507,9176 7308,9076 Z"/>
 <path fill="none" stroke="rgb(126,0,33)" stroke-linejoin="round" d="M 7308,9076 L 7308,9276 7507,9176 7308,9076 Z"/>
 <path fill="rgb(126,0,33)" stroke="none" d="M 7464,8887 L 7464,9087 7663,8987 7464,8887 Z"/>
 <path fill="none" stroke="rgb(126,0,33)" stroke-linejoin="round" d="M 7464,8887 L 7464,9087 7663,8987 7464,8887 Z"/>
 <path fill="rgb(126,0,33)" stroke="none" d="M 7620,8589 L 7620,8789 7820,8689 7620,8589 Z"/>
 <path fill="none" stroke="rgb(126,0,33)" stroke-linejoin="round" d="M 7620,8589 L 7620,8789 7820,8689 7620,8589 Z"/>
 <path fill="rgb(126,0,33)" stroke="none" d="M 7776,8298 L 7776,8498 7976,8398 7776,8298 Z"/>
 <path fill="none" stroke="rgb(126,0,33)" stroke-linejoin="round" d="M 7776,8298 L 7776,8498 7976,8398 7776,8298 Z"/>
 <path fill="rgb(126,0,33)" stroke="none" d="M 7933,8081 L 7933,8281 8133,8181 7933,8081 Z"/>
 <path fill="none" stroke="rgb(126,0,33)" stroke-linejoin="round" d="M 7933,8081 L 7933,8281 8133,8181 7933,8081 Z"/>
 <path fill="rgb(126,0,33)" stroke="none" d="M 8089,7858 L 8089,8058 8289,7958 8089,7858 Z"/>
 <path fill="none" stroke="rgb(126,0,33)" stroke-linejoin="round" d="M 8089,7858 L 8089,8058 8289,7958 8089,7858 Z"/>
 <path fill="rgb(126,0,33)" stroke="none" d="M 8246,7600 L 8246,7800 8446,7700 8246,7600 Z"/>
 <path fill="none" stroke="rgb(126,0,33)" stroke-linejoin="round" d="M 8246,7600 L 8246,7800 8446,7700 8246,7600 Z"/>
 <path fill="rgb(126,0,33)" stroke="none" d="M 8402,7377 L 8402,7577 8602,7477 8402,7377 Z"/>
 <path fill="none" stroke="rgb(126,0,33)" stroke-linejoin="round" d="M 8402,7377 L 8402,7577 8602,7477 8402,7377 Z"/>
 <path fill="rgb(126,0,33)" stroke="none" d="M 8559,7119 L 8559,7319 8759,7219 8559,7119 Z"/>
 <path fill="none" stroke="rgb(126,0,33)" stroke-linejoin="round" d="M 8559,7119 L 8559,7319 8759,7219 8559,7119 Z"/>
 <path fill="rgb(126,0,33)" stroke="none" d="M 8716,6788 L 8716,6988 8916,6888 8716,6788 Z"/>
 <path fill="none" stroke="rgb(126,0,33)" stroke-linejoin="round" d="M 8716,6788 L 8716,6988 8916,6888 8716,6788 Z"/>
 <path fill="rgb(126,0,33)" stroke="none" d="M 8872,6422 L 8872,6622 9072,6522 8872,6422 Z"/>
 <path fill="none" stroke="rgb(126,0,33)" stroke-linejoin="round" d="M 8872,6422 L 8872,6622 9072,6522 8872,6422 Z"/>
 <path fill="rgb(126,0,33)" stroke="none" d="M 9029,6151 L 9029,6351 9229,6251 9029,6151 Z"/>
 <path fill="none" stroke="rgb(126,0,33)" stroke-linejoin="round" d="M 9029,6151 L 9029,6351 9229,6251 9029,6151 Z"/>
 <path fill="rgb(126,0,33)" stroke="none" d="M 9185,5908 L 9185,6107 9385,6007 9185,5908 Z"/>
 <path fill="none" stroke="rgb(126,0,33)" stroke-linejoin="round" d="M 9185,5908 L 9185,6107 9385,6007 9185,5908 Z"/>
 <path fill="rgb(126,0,33)" stroke="none" d="M 9342,5644 L 9342,5844 9542,5744 9342,5644 Z"/>
 <path fill="none" stroke="rgb(126,0,33)" stroke-linejoin="round" d="M 9342,5644 L 9342,5844 9542,5744 9342,5644 Z"/>
 <path fill="rgb(126,0,33)" stroke="none" d="M 9498,5461 L 9498,5661 9698,5561 9498,5461 Z"/>
 <path fill="none" stroke="rgb(126,0,33)" stroke-linejoin="round" d="M 9498,5461 L 9498,5661 9698,5561 9498,5461 Z"/>
 <path fill="rgb(126,0,33)" stroke="none" d="M 9655,5272 L 9655,5472 9855,5372 9655,5272 Z"/>
 <path fill="none" stroke="rgb(126,0,33)" stroke-linejoin="round" d="M 9655,5272 L 9655,5472 9855,5372 9655,5272 Z"/>
 <path fill="rgb(126,0,33)" stroke="none" d="M 9811,4981 L 9811,5181 10011,5081 9811,4981 Z"/>
 <path fill="none" stroke="rgb(126,0,33)" stroke-linejoin="round" d="M 9811,4981 L 9811,5181 10011,5081 9811,4981 Z"/>
 <path fill="rgb(126,0,33)" stroke="none" d="M 9968,4615 L 9968,4815 10168,4715 9968,4615 Z"/>
 <path fill="none" stroke="rgb(126,0,33)" stroke-linejoin="round" d="M 9968,4615 L 9968,4815 10168,4715 9968,4615 Z"/>
 <path fill="rgb(126,0,33)" stroke="none" d="M 10125,4371 L 10125,4571 10325,4471 10125,4371 Z"/>
 <path fill="none" stroke="rgb(126,0,33)" stroke-linejoin="round" d="M 10125,4371 L 10125,4571 10325,4471 10125,4371 Z"/>
 <path fill="rgb(126,0,33)" stroke="none" d="M 10281,4182 L 10281,4382 10481,4282 10281,4182 Z"/>
 <path fill="none" stroke="rgb(126,0,33)" stroke-linejoin="round" d="M 10281,4182 L 10281,4382 10481,4282 10281,4182 Z"/>
 <path fill="rgb(126,0,33)" stroke="none" d="M 10438,3897 L 10438,4097 10638,3997 10438,3897 Z"/>
 <path fill="none" stroke="rgb(126,0,33)" stroke-linejoin="round" d="M 10438,3897 L 10438,4097 10638,3997 10438,3897 Z"/>
 <path fill="rgb(126,0,33)" stroke="none" d="M 10594,3769 L 10594,3969 10794,3869 10594,3769 Z"/>
 <path fill="none" stroke="rgb(126,0,33)" stroke-linejoin="round" d="M 10594,3769 L 10594,3969 10794,3869 10594,3769 Z"/>
 <path fill="rgb(126,0,33)" stroke="none" d="M 10751,3620 L 10751,3820 10951,3720 10751,3620 Z"/>
 <path fill="none" stroke="rgb(126,0,33)" stroke-linejoin="round" d="M 10751,3620 L 10751,3820 10951,3720 10751,3620 Z"/>
 <path fill="rgb(126,0,33)" stroke="none" d="M 10907,3477 L 10907,3677 11107,3577 10907,3477 Z"/>
 <path fill="none" stroke="rgb(126,0,33)" stroke-linejoin="round" d="M 10907,3477 L 10907,3677 11107,3577 10907,3477 Z"/>
 <path fill="rgb(126,0,33)" stroke="none" d="M 11064,3186 L 11064,3386 11264,3286 11064,3186 Z"/>
 <path fill="none" stroke="rgb(126,0,33)" stroke-linejoin="round" d="M 11064,3186 L 11064,3386 11264,3286 11064,3186 Z"/>
 <path fill="rgb(126,0,33)" stroke="none" d="M 11220,3010 L 11220,3210 11420,3110 11220,3010 Z"/>
 <path fill="none" stroke="rgb(126,0,33)" stroke-linejoin="round" d="M 11220,3010 L 11220,3210 11420,3110 11220,3010 Z"/>
 <path fill="rgb(126,0,33)" stroke="none" d="M 11377,2882 L 11377,3082 11577,2982 11377,2882 Z"/>
 <path fill="none" stroke="rgb(126,0,33)" stroke-linejoin="round" d="M 11377,2882 L 11377,3082 11577,2982 11377,2882 Z"/>
 <path fill="rgb(126,0,33)" stroke="none" d="M 11534,2760 L 11534,2960 11734,2860 11534,2760 Z"/>
 <path fill="none" stroke="rgb(126,0,33)" stroke-linejoin="round" d="M 11534,2760 L 11534,2960 11734,2860 11534,2760 Z"/>
 <path fill="rgb(126,0,33)" stroke="none" d="M 11690,2685 L 11690,2885 11890,2785 11690,2685 Z"/>
 <path fill="none" stroke="rgb(126,0,33)" stroke-linejoin="round" d="M 11690,2685 L 11690,2885 11890,2785 11690,2685 Z"/>
 <path fill="rgb(126,0,33)" stroke="none" d="M 11847,2590 L 11847,2790 12047,2690 11847,2590 Z"/>
 <path fill="none" stroke="rgb(126,0,33)" stroke-linejoin="round" d="M 11847,2590 L 11847,2790 12047,2690 11847,2590 Z"/>
 <path fill="rgb(126,0,33)" stroke="none" d="M 12003,2462 L 12003,2662 12203,2562 12003,2462 Z"/>
 <path fill="none" stroke="rgb(126,0,33)" stroke-linejoin="round" d="M 12003,2462 L 12003,2662 12203,2562 12003,2462 Z"/>
 <path fill="rgb(126,0,33)" stroke="none" d="M 12160,2313 L 12160,2513 12360,2413 12160,2313 Z"/>
 <path fill="none" stroke="rgb(126,0,33)" stroke-linejoin="round" d="M 12160,2313 L 12160,2513 12360,2413 12160,2313 Z"/>
 <path fill="rgb(126,0,33)" stroke="none" d="M 12316,2204 L 12316,2404 12516,2304 12316,2204 Z"/>
 <path fill="none" stroke="rgb(126,0,33)" stroke-linejoin="round" d="M 12316,2204 L 12316,2404 12516,2304 12316,2204 Z"/>
 <path fill="rgb(126,0,33)" stroke="none" d="M 12473,2143 L 12473,2343 12673,2243 12473,2143 Z"/>
 <path fill="none" stroke="rgb(126,0,33)" stroke-linejoin="round" d="M 12473,2143 L 12473,2343 12673,2243 12473,2143 Z"/>
 <path fill="rgb(126,0,33)" stroke="none" d="M 12630,2089 L 12630,2289 12830,2189 12630,2089 Z"/>
 <path fill="none" stroke="rgb(126,0,33)" stroke-linejoin="round" d="M 12630,2089 L 12630,2289 12830,2189 12630,2089 Z"/>
 <path fill="rgb(126,0,33)" stroke="none" d="M 12786,2008 L 12786,2208 12986,2108 12786,2008 Z"/>
 <path fill="none" stroke="rgb(126,0,33)" stroke-linejoin="round" d="M 12786,2008 L 12786,2208 12986,2108 12786,2008 Z"/>
 <path fill="rgb(126,0,33)" stroke="none" d="M 12943,1927 L 12943,2127 13143,2027 12943,1927 Z"/>
 <path fill="none" stroke="rgb(126,0,33)" stroke-linejoin="round" d="M 12943,1927 L 12943,2127 13143,2027 12943,1927 Z"/>
 <path fill="rgb(126,0,33)" stroke="none" d="M 13099,1852 L 13099,2052 13299,1952 13099,1852 Z"/>
 <path fill="none" stroke="rgb(126,0,33)" stroke-linejoin="round" d="M 13099,1852 L 13099,2052 13299,1952 13099,1852 Z"/>
 <path fill="rgb(126,0,33)" stroke="none" d="M 13256,1724 L 13256,1924 13456,1824 13256,1724 Z"/>
 <path fill="none" stroke="rgb(126,0,33)" stroke-linejoin="round" d="M 13256,1724 L 13256,1924 13456,1824 13256,1724 Z"/>
 <path fill="rgb(126,0,33)" stroke="none" d="M 13412,1676 L 13412,1876 13612,1776 13412,1676 Z"/>
 <path fill="none" stroke="rgb(126,0,33)" stroke-linejoin="round" d="M 13412,1676 L 13412,1876 13612,1776 13412,1676 Z"/>
 <path fill="rgb(126,0,33)" stroke="none" d="M 13569,1588 L 13569,1788 13769,1688 13569,1588 Z"/>
 <path fill="none" stroke="rgb(126,0,33)" stroke-linejoin="round" d="M 13569,1588 L 13569,1788 13769,1688 13569,1588 Z"/>
 <path fill="rgb(126,0,33)" stroke="none" d="M 13725,1487 L 13725,1687 13925,1587 13725,1487 Z"/>
 <path fill="none" stroke="rgb(126,0,33)" stroke-linejoin="round" d="M 13725,1487 L 13725,1687 13925,1587 13725,1487 Z"/>
 <path fill="rgb(126,0,33)" stroke="none" d="M 13882,1453 L 13882,1653 14082,1553 13882,1453 Z"/>
 <path fill="none" stroke="rgb(126,0,33)" stroke-linejoin="round" d="M 13882,1453 L 13882,1653 14082,1553 13882,1453 Z"/>
 <path fill="rgb(126,0,33)" stroke="none" d="M 14039,1412 L 14039,1612 14239,1512 14039,1412 Z"/>
 <path fill="none" stroke="rgb(126,0,33)" stroke-linejoin="round" d="M 14039,1412 L 14039,1612 14239,1512 14039,1412 Z"/>
 <path fill="rgb(126,0,33)" stroke="none" d="M 14195,1324 L 14195,1524 14395,1424 14195,1324 Z"/>
 <path fill="none" stroke="rgb(126,0,33)" stroke-linejoin="round" d="M 14195,1324 L 14195,1524 14395,1424 14195,1324 Z"/>
 <path fill="rgb(126,0,33)" stroke="none" d="M 14352,1243 L 14352,1443 14552,1343 14352,1243 Z"/>
 <path fill="none" stroke="rgb(126,0,33)" stroke-linejoin="round" d="M 14352,1243 L 14352,1443 14552,1343 14352,1243 Z"/>
 <path fill="rgb(126,0,33)" stroke="none" d="M 14508,1243 L 14508,1443 14708,1343 14508,1243 Z"/>
 <path fill="none" stroke="rgb(126,0,33)" stroke-linejoin="round" d="M 14508,1243 L 14508,1443 14708,1343 14508,1243 Z"/>
 <text class="TextShape"><tspan class="TextParagraph" font-family="Liberation Sans, sans-serif" font-size="353px" font-weight="400"><tspan class="TextPosition" x="878" y="11756"><tspan fill="rgb(0,0,0)" stroke="none">20/02</tspan></tspan></tspan></text>
 <text class="TextShape"><tspan class="TextParagraph" font-family="Liberation Sans, sans-serif" font-size="353px" font-weight="400"><tspan class="TextPosition" x="1974" y="11756"><tspan fill="rgb(0,0,0)" stroke="none">27/02</tspan></tspan></tspan></text>
 <text class="TextShape"><tspan class="TextParagraph" font-family="Liberation Sans, sans-serif" font-size="353px" font-weight="400"><tspan class="TextPosition" x="3070" y="11756"><tspan fill="rgb(0,0,0)" stroke="none">05/03</tspan></tspan></tspan></text>
 <text class="TextShape"><tspan class="TextParagraph" font-family="Liberation Sans, sans-serif" font-size="353px" font-weight="400"><tspan class="TextPosition" x="4165" y="11756"><tspan fill="rgb(0,0,0)" stroke="none">12/03</tspan></tspan></tspan></text>
 <text class="TextShape"><tspan class="TextParagraph" font-family="Liberation Sans, sans-serif" font-size="353px" font-weight="400"><tspan class="TextPosition" x="5261" y="11756"><tspan fill="rgb(0,0,0)" stroke="none">19/03</tspan></tspan></tspan></text>
 <text class="TextShape"><tspan class="TextParagraph" font-family="Liberation Sans, sans-serif" font-size="353px" font-weight="400"><tspan class="TextPosition" x="6357" y="11756"><tspan fill="rgb(0,0,0)" stroke="none">26/03</tspan></tspan></tspan></text>
 <text class="TextShape"><tspan class="TextParagraph" font-family="Liberation Sans, sans-serif" font-size="353px" font-weight="400"><tspan class="TextPosition" x="7453" y="11756"><tspan fill="rgb(0,0,0)" stroke="none">02/04</tspan></tspan></tspan></text>
 <text class="TextShape"><tspan class="TextParagraph" font-family="Liberation Sans, sans-serif" font-size="353px" font-weight="400"><tspan class="TextPosition" x="8549" y="11756"><tspan fill="rgb(0,0,0)" stroke="none">09/04</tspan></tspan></tspan></text>
 <text class="TextShape"><tspan class="TextParagraph" font-family="Liberation Sans, sans-serif" font-size="353px" font-weight="400"><tspan class="TextPosition" x="9645" y="11756"><tspan fill="rgb(0,0,0)" stroke="none">16/04</tspan></tspan></tspan></text>
 <text class="TextShape"><tspan class="TextParagraph" font-family="Liberation Sans, sans-serif" font-size="353px" font-weight="400"><tspan class="TextPosition" x="10741" y="11756"><tspan fill="rgb(0,0,0)" stroke="none">23/04</tspan></tspan></tspan></text>
 <text class="TextShape"><tspan class="TextParagraph" font-family="Liberation Sans, sans-serif" font-size="353px" font-weight="400"><tspan class="TextPosition" x="11837" y="11756"><tspan fill="rgb(0,0,0)" stroke="none">30/04</tspan></tspan></tspan></text>
 <text class="TextShape"><tspan class="TextParagraph" font-family="Liberation Sans, sans-serif" font-size="353px" font-weight="400"><tspan class="TextPosition" x="12933" y="11756"><tspan fill="rgb(0,0,0)" stroke="none">07/05</tspan></tspan></tspan></text>
 <text class="TextShape"><tspan class="TextParagraph" font-family="Liberation Sans, sans-serif" font-size="353px" font-weight="400"><tspan class="TextPosition" x="14029" y="11756"><tspan fill="rgb(0,0,0)" stroke="none">14/05</tspan></tspan></tspan></text>
 <text class="TextShape"><tspan class="TextParagraph" font-family="Liberation Sans, sans-serif" font-size="353px" font-weight="400"><tspan class="TextPosition" x="788" y="11309"><tspan fill="rgb(0,0,0)" stroke="none">0</tspan></tspan></tspan></text>
 <text class="TextShape"><tspan class="TextParagraph" font-family="Liberation Sans, sans-serif" font-size="353px" font-weight="400"><tspan class="TextPosition" x="417" y="9669"><tspan fill="rgb(0,0,0)" stroke="none">500</tspan></tspan></tspan></text>
 <text class="TextShape"><tspan class="TextParagraph" font-family="Liberation Sans, sans-serif" font-size="353px" font-weight="400"><tspan class="TextPosition" x="126" y="8030"><tspan fill="rgb(0,0,0)" stroke="none">1.000</tspan></tspan></tspan></text>
 <text class="TextShape"><tspan class="TextParagraph" font-family="Liberation Sans, sans-serif" font-size="353px" font-weight="400"><tspan class="TextPosition" x="126" y="6391"><tspan fill="rgb(0,0,0)" stroke="none">1.500</tspan></tspan></tspan></text>
 <text class="TextShape"><tspan class="TextParagraph" font-family="Liberation Sans, sans-serif" font-size="353px" font-weight="400"><tspan class="TextPosition" x="126" y="4752"><tspan fill="rgb(0,0,0)" stroke="none">2.000</tspan></tspan></tspan></text>
 <text class="TextShape"><tspan class="TextParagraph" font-family="Liberation Sans, sans-serif" font-size="353px" font-weight="400"><tspan class="TextPosition" x="126" y="3113"><tspan fill="rgb(0,0,0)" stroke="none">2.500</tspan></tspan></tspan></text>
 <text class="TextShape"><tspan class="TextParagraph" font-family="Liberation Sans, sans-serif" font-size="353px" font-weight="400"><tspan class="TextPosition" x="126" y="1474"><tspan fill="rgb(0,0,0)" stroke="none">3.000</tspan></tspan></tspan></text>
 <text class="TextShape"><tspan class="TextParagraph" font-family="Liberation Sans, sans-serif" font-size="459px" font-weight="400"><tspan class="TextPosition" x="1344" y="657"><tspan fill="rgb(0,0,0)" stroke="none">Muertes acumuladas CCAA por milln de mayores de 65 aos (2)</tspan></tspan></tspan></text>
 <path fill="none" stroke="rgb(0,0,0)" stroke-width="50" stroke-linejoin="round" d="M 4352,3380 L 5152,3380"/>
 <path fill="rgb(0,0,0)" stroke="none" d="M 4646,3380 L 4752,3486 4857,3380 4752,3275 4646,3380 Z"/>
 <path fill="none" stroke="rgb(0,0,0)" stroke-linejoin="round" d="M 4646,3380 L 4752,3486 4857,3380 4752,3275 4646,3380 Z"/>
 <path fill="none" stroke="rgb(255,66,14)" stroke-width="50" stroke-linejoin="round" d="M 4352,4235 L 5152,4235"/>
 <path fill="rgb(255,66,14)" stroke="none" d="M 4646,4235 L 4752,4341 4857,4235 4752,4130 4646,4235 Z"/>
 <path fill="none" stroke="rgb(255,66,14)" stroke-linejoin="round" d="M 4646,4235 L 4752,4341 4857,4235 4752,4130 4646,4235 Z"/>
 <path fill="none" stroke="rgb(255,211,32)" stroke-width="50" stroke-linejoin="round" d="M 4352,5090 L 5152,5090"/>
 <path fill="rgb(255,211,32)" stroke="none" d="M 4646,4985 L 4752,5196 4857,4985 4646,4985 Z"/>
 <path fill="none" stroke="rgb(255,211,32)" stroke-linejoin="round" d="M 4646,4985 L 4752,5196 4857,4985 4646,4985 Z"/>
 <path fill="none" stroke="rgb(87,157,28)" stroke-width="50" stroke-linejoin="round" d="M 4352,5945 L 5152,5945"/>
 <path fill="rgb(87,157,28)" stroke="none" d="M 4646,6050 L 4857,6050 4752,5840 4646,6050 Z"/>
 <path fill="none" stroke="rgb(87,157,28)" stroke-linejoin="round" d="M 4646,6050 L 4857,6050 4752,5840 4646,6050 Z"/>
 <path fill="none" stroke="rgb(126,0,33)" stroke-width="50" stroke-linejoin="round" d="M 4352,6799 L 5152,6799"/>
 <path fill="rgb(126,0,33)" stroke="none" d="M 4646,6694 L 4646,6905 4857,6799 4646,6694 Z"/>
 <path fill="none" stroke="rgb(126,0,33)" stroke-linejoin="round" d="M 4646,6694 L 4646,6905 4857,6799 4646,6694 Z"/>
 <text class="TextShape"><tspan class="TextParagraph" font-family="Liberation Sans, sans-serif" font-size="353px" font-weight="400"><tspan class="TextPosition" x="5252" y="3500"><tspan fill="rgb(0,0,0)" stroke="none">Aragn</tspan></tspan></tspan></text>
 <text class="TextShape"><tspan class="TextParagraph" font-family="Liberation Sans, sans-serif" font-size="353px" font-weight="400"><tspan class="TextPosition" x="5252" y="4355"><tspan fill="rgb(0,0,0)" stroke="none">Cantabria</tspan></tspan></tspan></text>
 <text class="TextShape"><tspan class="TextParagraph" font-family="Liberation Sans, sans-serif" font-size="353px" font-weight="400"><tspan class="TextPosition" x="5252" y="5210"><tspan fill="rgb(0,0,0)" stroke="none">Comunidad Valenciana</tspan></tspan></tspan></text>
 <text class="TextShape"><tspan class="TextParagraph" font-family="Liberation Sans, sans-serif" font-size="353px" font-weight="400"><tspan class="TextPosition" x="5252" y="6064"><tspan fill="rgb(0,0,0)" stroke="none">Extremadura</tspan></tspan></tspan></text>
 <text class="TextShape"><tspan class="TextParagraph" font-family="Liberation Sans, sans-serif" font-size="353px" font-weight="400"><tspan class="TextPosition" x="5252" y="6919"><tspan fill="rgb(0,0,0)" stroke="none">Pas Vasco</tspan></tspan></tspan></text>
</svg>