<?xml version="1.0" encoding="UTF-8"?>
<!DOCTYPE svg PUBLIC "-//W3C//DTD SVG 1.1//EN" "http://www.w3.org/Graphics/SVG/1.1/DTD/svg11.dtd">
<svg width="150mm" height="120mm" viewBox="0 0 15000 12000" version="1.1" xmlns="http://www.w3.org/2000/svg" xmlns:xlink="http://www.w3.org/1999/xlink" stroke-width="28.222" stroke-linejoin="round" xml:space="preserve">
 <path fill="rgb(255,255,255)" stroke="none" d="M 7500,12000 L 0,12000 0,0 15000,0 15000,12000 7500,12000 Z"/>
 <path fill="none" stroke="rgb(0,0,0)" stroke-linejoin="round" d="M 8024,11186 L 1304,11186 1304,1027 14744,1027 14744,11186 8024,11186 Z"/>
 <path fill="none" stroke="rgb(0,0,0)" stroke-linejoin="round" d="M 14743,11185 L 1303,11185"/>
 <path fill="none" stroke="rgb(0,0,0)" stroke-linejoin="round" d="M 14743,9915 L 1303,9915"/>
 <path fill="none" stroke="rgb(0,0,0)" stroke-linejoin="round" d="M 14743,8645 L 1303,8645"/>
 <path fill="none" stroke="rgb(0,0,0)" stroke-linejoin="round" d="M 14743,7375 L 1303,7375"/>
 <path fill="none" stroke="rgb(0,0,0)" stroke-linejoin="round" d="M 14743,6105 L 1303,6105"/>
 <path fill="none" stroke="rgb(0,0,0)" stroke-linejoin="round" d="M 14743,4836 L 1303,4836"/>
 <path fill="none" stroke="rgb(0,0,0)" stroke-linejoin="round" d="M 14743,3566 L 1303,3566"/>
 <path fill="none" stroke="rgb(0,0,0)" stroke-linejoin="round" d="M 14743,2296 L 1303,2296"/>
 <path fill="none" stroke="rgb(0,0,0)" stroke-linejoin="round" d="M 14743,1026 L 1303,1026"/>
 <path fill="none" stroke="rgb(0,0,0)" stroke-linejoin="round" d="M 1303,11335 L 1303,11185"/>
 <path fill="none" stroke="rgb(0,0,0)" stroke-linejoin="round" d="M 1303,11335 L 1303,11185"/>
 <path fill="none" stroke="rgb(0,0,0)" stroke-linejoin="round" d="M 3346,11335 L 3346,11185"/>
 <path fill="none" stroke="rgb(0,0,0)" stroke-linejoin="round" d="M 3346,11335 L 3346,11185"/>
 <path fill="none" stroke="rgb(0,0,0)" stroke-linejoin="round" d="M 5389,11335 L 5389,11185"/>
 <path fill="none" stroke="rgb(0,0,0)" stroke-linejoin="round" d="M 5389,11335 L 5389,11185"/>
 <path fill="none" stroke="rgb(0,0,0)" stroke-linejoin="round" d="M 7365,11335 L 7365,11185"/>
 <path fill="none" stroke="rgb(0,0,0)" stroke-linejoin="round" d="M 7365,11335 L 7365,11185"/>
 <path fill="none" stroke="rgb(0,0,0)" stroke-linejoin="round" d="M 9407,11335 L 9407,11185"/>
 <path fill="none" stroke="rgb(0,0,0)" stroke-linejoin="round" d="M 9407,11335 L 9407,11185"/>
 <path fill="none" stroke="rgb(0,0,0)" stroke-linejoin="round" d="M 11383,11335 L 11383,11185"/>
 <path fill="none" stroke="rgb(0,0,0)" stroke-linejoin="round" d="M 11383,11335 L 11383,11185"/>
 <path fill="none" stroke="rgb(0,0,0)" stroke-linejoin="round" d="M 13426,11335 L 13426,11185"/>
 <path fill="none" stroke="rgb(0,0,0)" stroke-linejoin="round" d="M 13426,11335 L 13426,11185"/>
 <path fill="none" stroke="rgb(0,0,0)" stroke-linejoin="round" d="M 1303,11185 L 14743,11185"/>
 <path fill="none" stroke="rgb(0,0,0)" stroke-linejoin="round" d="M 1153,11185 L 1303,11185"/>
 <path fill="none" stroke="rgb(0,0,0)" stroke-linejoin="round" d="M 1153,11185 L 1303,11185"/>
 <path fill="none" stroke="rgb(0,0,0)" stroke-linejoin="round" d="M 1153,9915 L 1303,9915"/>
 <path fill="none" stroke="rgb(0,0,0)" stroke-linejoin="round" d="M 1153,9915 L 1303,9915"/>
 <path fill="none" stroke="rgb(0,0,0)" stroke-linejoin="round" d="M 1153,8645 L 1303,8645"/>
 <path fill="none" stroke="rgb(0,0,0)" stroke-linejoin="round" d="M 1153,8645 L 1303,8645"/>
 <path fill="none" stroke="rgb(0,0,0)" stroke-linejoin="round" d="M 1153,7375 L 1303,7375"/>
 <path fill="none" stroke="rgb(0,0,0)" stroke-linejoin="round" d="M 1153,7375 L 1303,7375"/>
 <path fill="none" stroke="rgb(0,0,0)" stroke-linejoin="round" d="M 1153,6105 L 1303,6105"/>
 <path fill="none" stroke="rgb(0,0,0)" stroke-linejoin="round" d="M 1153,6105 L 1303,6105"/>
 <path fill="none" stroke="rgb(0,0,0)" stroke-linejoin="round" d="M 1153,4836 L 1303,4836"/>
 <path fill="none" stroke="rgb(0,0,0)" stroke-linejoin="round" d="M 1153,4836 L 1303,4836"/>
 <path fill="none" stroke="rgb(0,0,0)" stroke-linejoin="round" d="M 1153,3566 L 1303,3566"/>
 <path fill="none" stroke="rgb(0,0,0)" stroke-linejoin="round" d="M 1153,3566 L 1303,3566"/>
 <path fill="none" stroke="rgb(0,0,0)" stroke-linejoin="round" d="M 1153,2296 L 1303,2296"/>
 <path fill="none" stroke="rgb(0,0,0)" stroke-linejoin="round" d="M 1153,2296 L 1303,2296"/>
 <path fill="none" stroke="rgb(0,0,0)" stroke-linejoin="round" d="M 1153,1026 L 1303,1026"/>
 <path fill="none" stroke="rgb(0,0,0)" stroke-linejoin="round" d="M 1153,1026 L 1303,1026"/>
 <path fill="none" stroke="rgb(0,0,0)" stroke-linejoin="round" d="M 1303,11185 L 1303,1026"/>
 <path fill="none" stroke="rgb(0,0,0)" stroke-width="100" stroke-linejoin="round" d="M 1303,11185 L 1369,11185 1435,11185 1501,11185 1567,11185 1633,11185 1699,11185 1765,11086 1831,11086 1896,11086 1962,11086 2028,11086 2094,11086 2160,11086 2226,10843 2292,10843 2358,10843 2424,10839 2489,10839 2555,10839 2621,10839 2687,10834 2753,10830 2819,10381 2885,10372 2951,10372 3017,10372 3082,10372 3148,10372 3214,10372 3280,10372 3346,10372 3412,10372 3478,10372 3544,10372 3610,10372 3675,10372 3741,10372 3807,10372 3873,9851 3939,9851 4005,9851 4071,9851 4137,9851 4203,9851 4268,9851 4334,9851 4400,9851 4466,9851 4532,9851 4598,9851 4664,9851 4730,9447 4796,9447 4861,9447 4927,9447 4993,9299 5059,9299 5125,9187 5191,9187 5257,9187 5323,9187 5389,9187 5454,9187 5520,9187 5586,9187 5652,8958 5718,8958 5784,8958 5850,8958 5916,8958 5981,8958 6047,8958 6113,8954 6179,8693 6245,8693 6311,8693 6377,8644 6443,8626 6509,8581 6574,8554 6640,8523 6706,8523 6772,8523 6838,8433 6904,8374 6970,8365 7036,8294 7102,8262 7167,8262 7233,8262 7299,8119 7365,8051 7431,8020 7497,7988 7562,7867 7628,7867 7694,7867 7759,7701 7825,7634 7891,7526 7957,7423 8023,7302 8089,7302 8155,7302 8221,6942 8287,6848 8352,6714 8418,6570 8484,6467 8550,6467 8616,6467 8682,6139 8748,6013 8814,5839 8880,5736 8945,5651 9011,5651 9077,5651 9143,5467 9209,5381 9275,5296 9341,5188 9407,5063 9473,5063 9538,5063 9604,4906 9670,4811 9736,4771 9802,4726 9868,4699 9934,4699 10000,4699 10066,4542 10131,4542 10197,4448 10263,4367 10329,4295 10395,4295 10461,4295 10527,4201 10593,4057 10658,3999 10724,3958 10790,3913 10856,3913 10922,3913 10988,3837 11054,3792 11120,3725 11186,3694 11251,3694 11317,3694 11383,3694 11449,3640 11515,3554 11581,3518 11647,3469 11713,3469 11779,3469 11844,3469 11910,3384 11976,3357 12042,3357 12108,3357 12174,3249 12240,3249 12306,3249 12372,3155 12437,3114 12503,3065 12569,3025 12635,2971 12701,2971 12767,2971 12833,2850 12899,2805 12965,2746 13030,2688 13096,2616 13162,2616 13228,2616 13294,2464 13360,2410 13426,2306 13492,2266 13558,2194 13623,2194 13689,2194 13755,2127 13821,2127 13887,1862 13953,1795 14019,1736 14085,1736 14151,1736 14216,1566 14282,1485 14348,1422 14414,1373 14480,1323 14546,1323 14612,1323 14678,1144 14743,1103"/>
 <path fill="none" stroke="rgb(255,66,14)" stroke-width="100" stroke-linejoin="round" d="M 1303,11185 L 1369,11185 1435,11185 1501,11185 1567,11185 1633,11185 1699,11185 1765,11178 1831,11165 1896,11165 1962,11165 2028,11165 2094,11165 2160,11165 2226,11171 2292,11175 2358,11168 2424,11168 2489,11168 2555,11168 2621,11168 2687,11165 2753,11165 2819,11165 2885,11165 2951,11165 3017,11165 3082,11165 3148,11161 3214,11158 3280,11155 3346,11155 3412,11151 3478,11151 3544,11151 3610,11148 3675,11148 3741,11138 3807,11131 3873,11131 3939,11131 4005,11131 4071,11121 4137,11115 4203,11118 4268,11118 4334,11118 4400,11118 4466,11118 4532,11102 4598,11098 4664,11095 4730,11085 4796,11075 4861,11075 4927,11075 4993,11055 5059,11042 5125,11025 5191,10982 5257,10922 5323,10922 5389,10922 5454,10843 5520,10786 5586,10700 5652,10640 5718,10590 5784,10590 5850,10590 5916,10560 5981,10544 6047,10511 6113,10481 6179,10448 6245,10448 6311,10448 6377,10408 6443,10404 6509,10371 6574,10282 6640,10222 6706,10222 6772,10222 6838,10195 6904,10192 6970,10185 7036,10175 7102,10169 7167,10169 7233,10169 7299,10132 7365,10072 7431,10019 7497,9946 7562,9880 7628,9880 7694,9880 7759,9840 7825,9814 7891,9916 7957,9837 8023,9790 8089,9790 8155,9790 8221,9714 8287,9661 8352,9618 8418,9548 8484,9482 8550,9482 8616,9482 8682,9385 8748,9352 8814,9309 8880,9183 8945,9103 9011,9103 9077,9103 9143,9010 9209,8990 9275,8894 9341,8841 9407,8765 9473,8765 9538,8765 9604,8718 9670,8682 9736,8602 9802,8572 9868,8552 9934,8552 10000,8552 10066,8506 10131,8506 10197,8453 10263,8399 10329,8320 10395,8320 10461,8320 10527,8141 10593,8104 10658,8051 10724,7981 10790,7941 10856,7941 10922,7941 10988,7892 11054,7832 11120,7799 11186,7775 11251,7775 11317,7775 11383,7775 11449,7749 11515,7726 11581,7709 11647,7686 11713,7686 11779,7686 11844,7686 11910,7639 11976,7613 12042,7613 12108,7586 12174,7583 12240,7583 12306,7583 12372,7536 12437,7510 12503,7450 12569,7443 12635,7417 12701,7417 12767,7417 12833,7281 12899,7274 12965,7231 13030,7121 13096,7015 13162,7015 13228,7015 13294,6912 13360,6839 13426,6643 13492,6418 13558,6172 13623,6172 13689,6172 13755,5861 13821,5562 13887,5313 13953,5114 14019,4742 14085,4742 14151,4742 14216,4357 14282,3982 14348,3737 14414,3491 14480,3391 14546,3391 14612,3391 14678,3292 14743,3222"/>
 <path fill="none" stroke="rgb(255,211,32)" stroke-width="100" stroke-linejoin="round" d="M 1303,11182 L 1369,11182 1435,11180 1501,11180 1567,11180 1633,11180 1699,11180 1765,11178 1831,11178 1896,11176 1962,11176 2028,11176 2094,11176 2160,11176 2226,11176 2292,11172 2358,11168 2424,11168 2489,11168 2555,11168 2621,11168 2687,11159 2753,11159 2819,11159 2885,11155 2951,11155 3017,11155 3082,11155 3148,11151 3214,11145 3280,11140 3346,11132 3412,11130 3478,11130 3544,11130 3610,11113 3675,11090 3741,11088 3807,11079 3873,11058 3939,11058 4005,11058 4071,11044 4137,11025 4203,11023 4268,11012 4334,11002 4400,11002 4466,11002 4532,10966 4598,10941 4664,10924 4730,10913 4796,10901 4861,10901 4927,10901 4993,10865 5059,10829 5125,10819 5191,10781 5257,10768 5323,10768 5389,10768 5454,10713 5520,10688 5586,10644 5652,10621 5718,10596 5784,10596 5850,10596 5916,10528 5981,10484 6047,10442 6113,10379 6179,10337 6245,10337 6311,10337 6377,10268 6443,10249 6509,10167 6574,10131 6640,10110 6706,10110 6772,10110 6838,10028 6904,9956 6970,9914 7036,9870 7102,9817 7167,9817 7233,9817 7299,9700 7365,9645 7431,9601 7497,9563 7562,9496 7628,9496 7694,9496 7759,9369 7825,9340 7891,9163 7957,9052 8023,9001 8089,9001 8155,9001 8221,8839 8287,8743 8352,8654 8418,8581 8484,8505 8550,8505 8616,8505 8682,8396 8748,8257 8814,8154 8880,8120 8945,8036 9011,8036 9077,8036 9143,7931 9209,7824 9275,7739 9341,7678 9407,7628 9473,7628 9538,7628 9604,7506 9670,7441 9736,7392 9802,7371 9868,7291 9934,7291 10000,7291 10066,7184 10131,7184 10197,7157 10263,7033 10329,6944 10395,6944 10461,6944 10527,6854 10593,6789 10658,6759 10724,6690 10790,6652 10856,6652 10922,6652 10988,6591 11054,6566 11120,6526 11186,6505 11251,6505 11317,6505 11383,6505 11449,6467 11515,6448 11581,6400 11647,6379 11713,6379 11779,6379 11844,6379 11910,6353 11976,6324 12042,6324 12108,6280 12174,6248 12240,6248 12306,6248 12372,6213 12437,5877 12503,5869 12569,5856 12635,5824 12701,5824 12767,5824 12833,5774 12899,5711 12965,5692 13030,5669 13096,5625 13162,5625 13228,5625 13294,5555 13360,5492 13426,5463 13492,5381 13558,5267 13623,5267 13689,5267 13755,5164 13821,5017 13887,4960 13953,4910 14019,4825 14085,4825 14151,4825 14216,4724 14282,4634 14348,4344 14414,4289 14480,4245 14546,4245 14612,4245 14678,4152 14743,4083"/>
 <path fill="none" stroke="rgb(87,157,28)" stroke-width="100" stroke-linejoin="round" d="M 1303,11185 L 1369,11185 1435,11185 1501,11185 1567,11185 1633,11185 1699,11185 1765,11185 1831,11185 1896,11185 1962,11185 2028,11185 2094,11185 2160,11185 2226,11185 2292,11185 2358,11179 2424,11179 2489,11179 2555,11179 2621,11179 2687,11168 2753,11168 2819,11162 2885,11162 2951,11162 3017,11162 3082,11162 3148,11157 3214,11151 3280,11146 3346,11146 3412,11140 3478,11140 3544,11140 3610,11140 3675,11140 3741,11134 3807,11134 3873,11134 3939,11134 4005,11134 4071,11118 4137,11107 4203,11096 4268,11079 4334,11068 4400,11068 4466,11068 4532,11046 4598,11018 4664,11018 4730,11018 4796,10934 4861,10934 4927,10934 4993,10934 5059,10923 5125,10912 5191,10895 5257,10890 5323,10890 5389,10890 5454,10884 5520,10834 5586,10823 5652,10812 5718,10795 5784,10795 5850,10795 5916,10768 5981,10768 6047,10762 6113,10751 6179,10723 6245,10723 6311,10723 6377,10695 6443,10679 6509,10601 6574,10595 6640,10579 6706,10579 6772,10579 6838,10556 6904,10506 6970,10484 7036,10456 7102,10434 7167,10434 7233,10434 7299,10406 7365,10345 7431,10340 7497,10306 7562,10245 7628,10245 7694,10245 7759,10140 7825,10112 7891,10012 7957,9906 8023,9845 8089,9845 8155,9845 8221,9767 8287,9645 8352,9551 8418,9495 8484,9384 8550,9384 8616,9384 8682,9306 8748,9223 8814,9161 8880,9111 8945,8989 9011,8989 9077,8989 9143,8922 9209,8861 9275,8767 9341,8734 9407,8689 9473,8689 9538,8689 9604,8650 9670,8611 9736,8589 9802,8561 9868,8545 9934,8545 10000,8545 10066,8478 10131,8478 10197,8478 10263,8411 10329,8350 10395,8350 10461,8350 10527,8294 10593,8233 10658,8189 10724,8167 10790,8128 10856,8128 10922,8128 10988,8072 11054,8044 11120,8028 11186,8028 11251,8028 11317,8028 11383,8028 11449,7961 11515,7922 11581,7900 11647,7872 11713,7872 11779,7872 11844,7872 11910,7805 11976,7789 12042,7789 12108,7761 12174,7733 12240,7733 12306,7733 12372,7683 12437,7661 12503,7616 12569,7594 12635,7533 12701,7533 12767,7533 12833,7427 12899,7344 12965,7272 13030,7161 13096,7100 13162,7100 13228,7100 13294,6861 13360,6649 13426,6455 13492,6210 13558,6082 13623,6082 13689,6082 13755,5822 13821,5611 13887,5472 13953,5394 14019,5322 14085,5322 14151,5322 14216,5100 14282,5028 14348,4900 14414,4883 14480,4777 14546,4777 14612,4777 14678,4638 14743,4461"/>
 <path fill="none" stroke="rgb(126,0,33)" stroke-width="100" stroke-linejoin="round" d="M 1303,11185 L 1369,11185 1435,11185 1501,11179 1567,11179 1633,11179 1699,11179 1765,11179 1831,11179 1896,11179 1962,11179 2028,11173 2094,11173 2160,11173 2226,11173 2292,11173 2358,11167 2424,11167 2489,11167 2555,11167 2621,11167 2687,11161 2753,11161 2819,11161 2885,11161 2951,11156 3017,11156 3082,11156 3148,11144 3214,11144 3280,11144 3346,11144 3412,11144 3478,11144 3544,11144 3610,11138 3675,11138 3741,11127 3807,11127 3873,11121 3939,11121 4005,11121 4071,11103 4137,11103 4203,11074 4268,11074 4334,11074 4400,11074 4466,11074 4532,11074 4598,11074 4664,11063 4730,11063 4796,11040 4861,11040 4927,11040 4993,11011 5059,11005 5125,10964 5191,10935 5257,10924 5323,10924 5389,10924 5454,10889 5520,10866 5586,10848 5652,10825 5718,10773 5784,10773 5850,10773 5916,10715 5981,10669 6047,10617 6113,10594 6179,10588 6245,10588 6311,10588 6377,10541 6443,10530 6509,10501 6574,10472 6640,10449 6706,10449 6772,10449 6838,10420 6904,10391 6970,10368 7036,10310 7102,10275 7167,10275 7233,10275 7299,10211 7365,10153 7431,10130 7497,10118 7562,10055 7628,10055 7694,10055 7759,9950 7825,9887 7891,9823 7957,9788 8023,9730 8089,9730 8155,9730 8221,9638 8287,9556 8352,9527 8418,9481 8484,9406 8550,9406 8616,9406 8682,9336 8748,9267 8814,9209 8880,9139 8945,9128 9011,9128 9077,9128 9143,9006 9209,8965 9275,8925 9341,8890 9407,8815 9473,8815 9538,8815 9604,8739 9670,8676 9736,8653 9802,8595 9868,8566 9934,8566 10000,8566 10066,8502 10131,8502 10197,8485 10263,8456 10329,8421 10395,8421 10461,8421 10527,8328 10593,8311 10658,8282 10724,8276 10790,8230 10856,8230 10922,8230 10988,8201 11054,8183 11120,8160 11186,8143 11251,8143 11317,8143 11383,8143 11449,8067 11515,8038 11581,8027 11647,8009 11713,8009 11779,8009 11844,8009 11910,7917 11976,7882 12042,7882 12108,7836 12174,7755 12240,7755 12306,7755 12372,7615 12437,7482 12503,7436 12569,7337 12635,7303 12701,7303 12767,7303 12833,7140 12899,7082 12965,6949 13030,6828 13096,6712 13162,6712 13228,6712 13294,6451 13360,6312 13426,6144 13492,5994 13558,5913 13623,5913 13689,5913 13755,5670 13821,5542 13887,5421 13953,5334 14019,5189 14085,5189 14151,5189 14216,4963 14282,4899 14348,4835 14414,4812 14480,4708 14546,4708 14612,4708 14678,4586 14743,4540"/>
 <path fill="none" stroke="rgb(131,202,255)" stroke-width="100" stroke-linejoin="round" d="M 1303,11185 L 1369,11185 1435,11185 1501,11185 1567,11185 1633,11185 1699,11185 1765,11185 1831,11185 1896,11185 1962,11185 2028,11185 2094,11185 2160,11185 2226,11185 2292,11185 2358,11185 2424,11185 2489,11185 2555,11185 2621,11185 2687,11185 2753,11165 2819,11165 2885,11165 2951,11165 3017,11165 3082,11165 3148,11146 3214,11126 3280,11126 3346,11126 3412,11126 3478,11126 3544,11126 3610,11107 3675,11068 3741,11049 3807,11049 3873,11029 3939,11029 4005,11029 4071,10971 4137,10932 4203,10913 4268,10893 4334,10874 4400,10874 4466,10874 4532,10835 4598,10777 4664,10777 4730,10699 4796,10660 4861,10660 4927,10660 4993,10544 5059,10446 5125,10388 5191,10369 5257,10349 5323,10349 5389,10349 5454,10272 5520,10233 5586,10194 5652,10155 5718,10116 5784,10116 5850,10116 5916,10039 5981,10039 6047,10039 6113,10039 6179,10019 6245,10019 6311,10019 6377,9961 6443,9941 6509,9844 6574,9864 6640,9825 6706,9825 6772,9825 6838,9767 6904,9747 6970,9747 7036,9728 7102,9708 7167,9708 7233,9708 7299,9495 7365,9475 7431,9436 7497,9398 7562,9300 7628,9300 7694,9300 7759,9164 7825,9145 7891,9029 7957,8990 8023,8931 8089,8931 8155,8931 8221,8737 8287,8640 8352,8621 8418,8504 8484,8465 8550,8465 8616,8465 8682,8271 8748,8252 8814,8174 8880,8135 8945,8077 9011,8077 9077,8077 9143,7999 9209,7941 9275,7863 9341,7747 9407,7747 9473,7747 9538,7747 9604,7611 9670,7552 9736,7533 9802,7416 9868,7397 9934,7397 10000,7397 10066,7280 10131,7280 10197,7183 10263,7164 10329,7164 10395,7164 10461,7164 10527,7125 10593,7106 10658,7106 10724,7106 10790,7086 10856,7086 10922,7086 10988,7047 11054,7047 11120,7008 11186,7008 11251,7008 11317,7008 11383,7008 11449,6931 11515,6911 11581,6911 11647,6911 11713,6911 11779,6911 11844,6911 11910,6892 11976,6873 12042,6873 12108,6795 12174,6756 12240,6756 12306,6756 12372,6717 12437,6678 12503,6659 12569,6581 12635,6542 12701,6542 12767,6542 12833,6426 12899,6406 12965,6367 13030,6367 13096,6290 13162,6290 13228,6290 13294,6134 13360,6037 13426,5980 13492,5941 13558,5902 13623,5902 13689,5902 13755,5630 13821,5553 13887,5456 13953,5378 14019,5339 14085,5339 14151,5339 14216,5106 14282,5009 14348,4873 14414,4815 14480,4776 14546,4776 14612,4776 14678,4582 14743,4543"/>
 <path fill="none" stroke="rgb(49,64,4)" stroke-width="100" stroke-linejoin="round" d="M 1303,11185 L 1369,11185 1435,11185 1501,11185 1567,11185 1633,11185 1699,11185 1765,11185 1831,11185 1896,11185 1962,11185 2028,11185 2094,11185 2160,11185 2226,11185 2292,11185 2358,11185 2424,11185 2489,11185 2555,11185 2621,11185 2687,11185 2753,11185 2819,11185 2885,11185 2951,11185 3017,11185 3082,11185 3148,11180 3214,11180 3280,11180 3346,11180 3412,11180 3478,11180 3544,11180 3610,11180 3675,11180 3741,11180 3807,11180 3873,11180 3939,11180 4005,11180 4071,11170 4137,11165 4203,11165 4268,11165 4334,11165 4400,11165 4466,11165 4532,11160 4598,11155 4664,11155 4730,11150 4796,11150 4861,11150 4927,11150 4993,11150 5059,11145 5125,11145 5191,11145 5257,11140 5323,11140 5389,11140 5454,11136 5520,11136 5586,11126 5652,11111 5718,11111 5784,11111 5850,11111 5916,11106 5981,11106 6047,11101 6113,11101 6179,11087 6245,11087 6311,11087 6377,11077 6443,11072 6509,11052 6574,11038 6640,11033 6706,11033 6772,11033 6838,11004 6904,11004 6970,10974 7036,10945 7102,10906 7167,10906 7233,10906 7299,10818 7365,10793 7431,10769 7497,10730 7562,10681 7628,10681 7694,10681 7759,10539 7825,10451 7891,10387 7957,10275 8023,10206 8089,10206 8155,10206 8221,9971 8287,9869 8352,9776 8418,9644 8484,9585 8550,9585 8616,9585 8682,9238 8748,9203 8814,9125 8880,9027 8945,8905 9011,8905 9077,8905 9143,8626 9209,8499 9275,8396 9341,8274 9407,8152 9473,8152 9538,8152 9604,7907 9670,7824 9736,7750 9802,7662 9868,7569 9934,7569 10000,7569 10066,7178 10131,7178 10197,7051 10263,6963 10329,6894 10395,6894 10461,6894 10527,6762 10593,6699 10658,6664 10724,6615 10790,6576 10856,6576 10922,6576 10988,6474 11054,6449 11120,6410 11186,6395 11251,6395 11317,6395 11383,6395 11449,6293 11515,6268 11581,6258 11647,6249 11713,6249 11779,6249 11844,6249 11910,6146 11976,6136 12042,6136 12108,6097 12174,6087 12240,6087 12306,6087 12372,6043 12437,6033 12503,6024 12569,6009 12635,5990 12701,5990 12767,5990 12833,5927 12899,5888 12965,5853 13030,5804 13096,5751 13162,5751 13228,5751 13294,5623 13360,5604 13426,5584 13492,5530 13558,5457 13623,5457 13689,5457 13755,5345 13821,5286 13887,5232 13953,5198 14019,5051 14085,5051 14151,5051 14216,4958 14282,4929 14348,4895 14414,4841 14480,4772 14546,4772 14612,4772 14678,4674 14743,4645"/>
 <text class="TextShape"><tspan class="TextParagraph" font-family="Liberation Sans, sans-serif" font-size="353px" font-weight="400"><tspan class="TextPosition" x="879" y="11753"><tspan fill="rgb(0,0,0)" stroke="none">27/07</tspan></tspan></tspan></text>
 <text class="TextShape"><tspan class="TextParagraph" font-family="Liberation Sans, sans-serif" font-size="353px" font-weight="400"><tspan class="TextPosition" x="2922" y="11753"><tspan fill="rgb(0,0,0)" stroke="none">27/08</tspan></tspan></tspan></text>
 <text class="TextShape"><tspan class="TextParagraph" font-family="Liberation Sans, sans-serif" font-size="353px" font-weight="400"><tspan class="TextPosition" x="4965" y="11753"><tspan fill="rgb(0,0,0)" stroke="none">27/09</tspan></tspan></tspan></text>
 <text class="TextShape"><tspan class="TextParagraph" font-family="Liberation Sans, sans-serif" font-size="353px" font-weight="400"><tspan class="TextPosition" x="6941" y="11753"><tspan fill="rgb(0,0,0)" stroke="none">27/10</tspan></tspan></tspan></text>
 <text class="TextShape"><tspan class="TextParagraph" font-family="Liberation Sans, sans-serif" font-size="353px" font-weight="400"><tspan class="TextPosition" x="8984" y="11753"><tspan fill="rgb(0,0,0)" stroke="none">27/11</tspan></tspan></tspan></text>
 <text class="TextShape"><tspan class="TextParagraph" font-family="Liberation Sans, sans-serif" font-size="353px" font-weight="400"><tspan class="TextPosition" x="10960" y="11753"><tspan fill="rgb(0,0,0)" stroke="none">27/12</tspan></tspan></tspan></text>
 <text class="TextShape"><tspan class="TextParagraph" font-family="Liberation Sans, sans-serif" font-size="353px" font-weight="400"><tspan class="TextPosition" x="13003" y="11753"><tspan fill="rgb(0,0,0)" stroke="none">27/01</tspan></tspan></tspan></text>
 <text class="TextShape"><tspan class="TextParagraph" font-family="Liberation Sans, sans-serif" font-size="353px" font-weight="400"><tspan class="TextPosition" x="868" y="11306"><tspan fill="rgb(0,0,0)" stroke="none">0</tspan></tspan></tspan></text>
 <text class="TextShape"><tspan class="TextParagraph" font-family="Liberation Sans, sans-serif" font-size="353px" font-weight="400"><tspan class="TextPosition" x="206" y="10036"><tspan fill="rgb(0,0,0)" stroke="none">1.000</tspan></tspan></tspan></text>
 <text class="TextShape"><tspan class="TextParagraph" font-family="Liberation Sans, sans-serif" font-size="353px" font-weight="400"><tspan class="TextPosition" x="206" y="8766"><tspan fill="rgb(0,0,0)" stroke="none">2.000</tspan></tspan></tspan></text>
 <text class="TextShape"><tspan class="TextParagraph" font-family="Liberation Sans, sans-serif" font-size="353px" font-weight="400"><tspan class="TextPosition" x="206" y="7496"><tspan fill="rgb(0,0,0)" stroke="none">3.000</tspan></tspan></tspan></text>
 <text class="TextShape"><tspan class="TextParagraph" font-family="Liberation Sans, sans-serif" font-size="353px" font-weight="400"><tspan class="TextPosition" x="206" y="6226"><tspan fill="rgb(0,0,0)" stroke="none">4.000</tspan></tspan></tspan></text>
 <text class="TextShape"><tspan class="TextParagraph" font-family="Liberation Sans, sans-serif" font-size="353px" font-weight="400"><tspan class="TextPosition" x="206" y="4956"><tspan fill="rgb(0,0,0)" stroke="none">5.000</tspan></tspan></tspan></text>
 <text class="TextShape"><tspan class="TextParagraph" font-family="Liberation Sans, sans-serif" font-size="353px" font-weight="400"><tspan class="TextPosition" x="206" y="3686"><tspan fill="rgb(0,0,0)" stroke="none">6.000</tspan></tspan></tspan></text>
 <text class="TextShape"><tspan class="TextParagraph" font-family="Liberation Sans, sans-serif" font-size="353px" font-weight="400"><tspan class="TextPosition" x="206" y="2416"><tspan fill="rgb(0,0,0)" stroke="none">7.000</tspan></tspan></tspan></text>
 <text class="TextShape"><tspan class="TextParagraph" font-family="Liberation Sans, sans-serif" font-size="353px" font-weight="400"><tspan class="TextPosition" x="206" y="1146"><tspan fill="rgb(0,0,0)" stroke="none">8.000</tspan></tspan></tspan></text>
 <text class="TextShape"><tspan class="TextParagraph" font-family="Arial, sans-serif" font-size="388px" font-weight="400"><tspan class="TextPosition" x="2477" y="616"><tspan fill="rgb(0,0,0)" stroke="none">Muertes acumuladas CCAA por millón de mayores de 65 años (1)</tspan></tspan></tspan></text>
 <path fill="none" stroke="rgb(0,0,0)" stroke-width="100" stroke-linejoin="round" d="M 2036,1625 L 2836,1625"/>
 <path fill="none" stroke="rgb(255,66,14)" stroke-width="100" stroke-linejoin="round" d="M 2036,2900 L 2836,2900"/>
 <path fill="none" stroke="rgb(255,211,32)" stroke-width="100" stroke-linejoin="round" d="M 2036,4175 L 2836,4175"/>
 <path fill="none" stroke="rgb(87,157,28)" stroke-width="100" stroke-linejoin="round" d="M 2036,5450 L 2836,5450"/>
 <path fill="none" stroke="rgb(126,0,33)" stroke-width="100" stroke-linejoin="round" d="M 2036,6724 L 2836,6724"/>
 <path fill="none" stroke="rgb(131,202,255)" stroke-width="100" stroke-linejoin="round" d="M 2036,7999 L 2836,7999"/>
 <path fill="none" stroke="rgb(49,64,4)" stroke-width="100" stroke-linejoin="round" d="M 2036,9274 L 2836,9274"/>
 <text class="TextShape"><tspan class="TextParagraph" font-family="Liberation Sans, sans-serif" font-size="353px" font-weight="400"><tspan class="TextPosition" x="2936" y="1745"><tspan fill="rgb(0,0,0)" stroke="none">Aragón</tspan></tspan></tspan></text>
 <text class="TextShape"><tspan class="TextParagraph" font-family="Liberation Sans, sans-serif" font-size="353px" font-weight="400"><tspan class="TextPosition" x="2936" y="3020"><tspan fill="rgb(0,0,0)" stroke="none">Castilla–La Mancha</tspan></tspan></tspan></text>
 <text class="TextShape"><tspan class="TextParagraph" font-family="Liberation Sans, sans-serif" font-size="353px" font-weight="400"><tspan class="TextPosition" x="2936" y="4295"><tspan fill="rgb(0,0,0)" stroke="none">Castilla y León</tspan></tspan></tspan></text>
 <text class="TextShape"><tspan class="TextParagraph" font-family="Liberation Sans, sans-serif" font-size="353px" font-weight="400"><tspan class="TextPosition" x="2936" y="5570"><tspan fill="rgb(0,0,0)" stroke="none">Murcia</tspan></tspan></tspan></text>
 <text class="TextShape"><tspan class="TextParagraph" font-family="Liberation Sans, sans-serif" font-size="353px" font-weight="400"><tspan class="TextPosition" x="2936" y="6844"><tspan fill="rgb(0,0,0)" stroke="none">Extremadura</tspan></tspan></tspan></text>
 <text class="TextShape"><tspan class="TextParagraph" font-family="Liberation Sans, sans-serif" font-size="353px" font-weight="400"><tspan class="TextPosition" x="2936" y="8119"><tspan fill="rgb(0,0,0)" stroke="none">La Rioja</tspan></tspan></tspan></text>
 <text class="TextShape"><tspan class="TextParagraph" font-family="Liberation Sans, sans-serif" font-size="353px" font-weight="400"><tspan class="TextPosition" x="2936" y="9394"><tspan fill="rgb(0,0,0)" stroke="none">Asturias </tspan></tspan></tspan></text>
</svg>