<?xml version="1.0" encoding="UTF-8"?>
<!DOCTYPE svg PUBLIC "-//W3C//DTD SVG 1.1//EN" "http://www.w3.org/Graphics/SVG/1.1/DTD/svg11.dtd">
<svg width="150mm" height="120mm" viewBox="0 0 15000 12000" version="1.1" xmlns="http://www.w3.org/2000/svg" xmlns:xlink="http://www.w3.org/1999/xlink" stroke-width="28.222" stroke-linejoin="round" xml:space="preserve">
 <path fill="rgb(255,255,255)" stroke="none" d="M 7464,12000 L 0,12000 0,0 14929,0 14929,12000 7464,12000 Z"/>
 <path fill="none" stroke="rgb(0,0,0)" stroke-linejoin="round" d="M 7966,11214 L 1300,11214 1300,779 14633,779 14633,11214 7966,11214 Z"/>
 <path fill="none" stroke="rgb(0,0,0)" stroke-linejoin="round" d="M 14632,11213 L 1299,11213"/>
 <path fill="none" stroke="rgb(0,0,0)" stroke-linejoin="round" d="M 14632,9821 L 1299,9821"/>
 <path fill="none" stroke="rgb(0,0,0)" stroke-linejoin="round" d="M 14632,8430 L 1299,8430"/>
 <path fill="none" stroke="rgb(0,0,0)" stroke-linejoin="round" d="M 14632,7038 L 1299,7038"/>
 <path fill="none" stroke="rgb(0,0,0)" stroke-linejoin="round" d="M 14632,5648 L 1299,5648"/>
 <path fill="none" stroke="rgb(0,0,0)" stroke-linejoin="round" d="M 14632,4256 L 1299,4256"/>
 <path fill="none" stroke="rgb(0,0,0)" stroke-linejoin="round" d="M 14632,2865 L 1299,2865"/>
 <path fill="none" stroke="rgb(0,0,0)" stroke-linejoin="round" d="M 14632,1473 L 1299,1473"/>
 <path fill="none" stroke="rgb(179,179,179)" stroke-linejoin="round" d="M 1299,11363 L 1299,11213"/>
 <path fill="none" stroke="rgb(179,179,179)" stroke-linejoin="round" d="M 1299,11363 L 1299,11213"/>
 <path fill="none" stroke="rgb(179,179,179)" stroke-linejoin="round" d="M 3534,11363 L 3534,11213"/>
 <path fill="none" stroke="rgb(179,179,179)" stroke-linejoin="round" d="M 3534,11363 L 3534,11213"/>
 <path fill="none" stroke="rgb(179,179,179)" stroke-linejoin="round" d="M 5768,11363 L 5768,11213"/>
 <path fill="none" stroke="rgb(179,179,179)" stroke-linejoin="round" d="M 5768,11363 L 5768,11213"/>
 <path fill="none" stroke="rgb(179,179,179)" stroke-linejoin="round" d="M 7930,11363 L 7930,11213"/>
 <path fill="none" stroke="rgb(179,179,179)" stroke-linejoin="round" d="M 7930,11363 L 7930,11213"/>
 <path fill="none" stroke="rgb(179,179,179)" stroke-linejoin="round" d="M 10164,11363 L 10164,11213"/>
 <path fill="none" stroke="rgb(179,179,179)" stroke-linejoin="round" d="M 10164,11363 L 10164,11213"/>
 <path fill="none" stroke="rgb(179,179,179)" stroke-linejoin="round" d="M 12326,11363 L 12326,11213"/>
 <path fill="none" stroke="rgb(179,179,179)" stroke-linejoin="round" d="M 12326,11363 L 12326,11213"/>
 <path fill="none" stroke="rgb(179,179,179)" stroke-linejoin="round" d="M 14561,11363 L 14561,11213"/>
 <path fill="none" stroke="rgb(179,179,179)" stroke-linejoin="round" d="M 14561,11363 L 14561,11213"/>
 <path fill="none" stroke="rgb(179,179,179)" stroke-linejoin="round" d="M 1299,11213 L 14632,11213"/>
 <path fill="none" stroke="rgb(0,0,0)" stroke-linejoin="round" d="M 1149,11213 L 1299,11213"/>
 <path fill="none" stroke="rgb(0,0,0)" stroke-linejoin="round" d="M 1149,11213 L 1299,11213"/>
 <path fill="none" stroke="rgb(0,0,0)" stroke-linejoin="round" d="M 1149,9821 L 1299,9821"/>
 <path fill="none" stroke="rgb(0,0,0)" stroke-linejoin="round" d="M 1149,9821 L 1299,9821"/>
 <path fill="none" stroke="rgb(0,0,0)" stroke-linejoin="round" d="M 1149,8430 L 1299,8430"/>
 <path fill="none" stroke="rgb(0,0,0)" stroke-linejoin="round" d="M 1149,8430 L 1299,8430"/>
 <path fill="none" stroke="rgb(0,0,0)" stroke-linejoin="round" d="M 1149,7038 L 1299,7038"/>
 <path fill="none" stroke="rgb(0,0,0)" stroke-linejoin="round" d="M 1149,7038 L 1299,7038"/>
 <path fill="none" stroke="rgb(0,0,0)" stroke-linejoin="round" d="M 1149,5648 L 1299,5648"/>
 <path fill="none" stroke="rgb(0,0,0)" stroke-linejoin="round" d="M 1149,5648 L 1299,5648"/>
 <path fill="none" stroke="rgb(0,0,0)" stroke-linejoin="round" d="M 1149,4256 L 1299,4256"/>
 <path fill="none" stroke="rgb(0,0,0)" stroke-linejoin="round" d="M 1149,4256 L 1299,4256"/>
 <path fill="none" stroke="rgb(0,0,0)" stroke-linejoin="round" d="M 1149,2865 L 1299,2865"/>
 <path fill="none" stroke="rgb(0,0,0)" stroke-linejoin="round" d="M 1149,2865 L 1299,2865"/>
 <path fill="none" stroke="rgb(0,0,0)" stroke-linejoin="round" d="M 1149,1473 L 1299,1473"/>
 <path fill="none" stroke="rgb(0,0,0)" stroke-linejoin="round" d="M 1149,1473 L 1299,1473"/>
 <path fill="none" stroke="rgb(0,0,0)" stroke-linejoin="round" d="M 1299,11213 L 1299,777"/>
 <path fill="none" stroke="rgb(0,69,134)" stroke-width="100" stroke-linejoin="round" d="M 1299,11213 L 1371,11213 1443,11206 1516,11199 1587,11199 1660,11199 1732,11199 1803,11192 1876,11192 1948,11192 2020,11185 2092,11185 2165,11185 2236,11185 2308,11164 2380,11157 2452,11157 2525,11157 2596,11157 2669,11157 2741,11157 2812,11157 2885,11157 2957,11157 3029,11157 3101,11157 3173,11150 3245,11150 3317,11143 3390,11143 3461,11143 3534,11136 3606,11136 3677,11136 3750,11136 3822,11136 3894,11129 3966,11122 4038,11122 4110,11115 4182,11115 4254,11115 4326,11108 4399,11108 4470,11108 4542,11101 4615,11101 4686,11094 4759,11087 4831,11073 4903,11073 4975,11066 5047,11059 5119,11059 5191,11059 5264,11039 5335,11025 5408,11018 5480,11004 5551,10990 5624,10976 5695,10969 5768,10962 5840,10962 5911,10955 5984,10955 6056,10948 6128,10941 6200,10927 6273,10899 6344,10892 6416,10865 6489,10865 6560,10851 6633,10851 6705,10837 6777,10823 6849,10809 6921,10788 6993,10781 7065,10767 7138,10767 7209,10753 7281,10746 7353,10705 7425,10691 7498,10677 7569,10649 7642,10628 7714,10607 7785,10593 7858,10552 7930,10545 8002,10503 8074,10496 8147,10475 8218,10461 8290,10447 8363,10440 8434,10412 8507,10405 8579,10378 8651,10343 8723,10329 8794,10308 8867,10280 8939,10259 9011,10238 9083,10225 9155,10218 9227,10211 9299,10190 9372,10162 9443,10134 9516,10120 9588,10099 9659,10065 9732,10044 9804,10023 9876,9988 9948,9932 10021,9898 10092,9835 10164,9800 10237,9751 10308,9710 10381,9654 10452,9591 10524,9550 10597,9508 10668,9445 10741,9369 10813,9320 10885,9257 10957,9209 11029,9188 11101,9091 11173,9028 11246,8972 11317,8930 11390,8868 11462,8791 11533,8694 11606,8576 11678,8471 11750,8388 11822,8277 11894,8151 11966,8033 12038,7852 12110,7727 12182,7588 12255,7456 12326,7309 12398,7101 12471,6948 12542,6739 12615,6447 12687,6280 12759,6120 12831,5919 12903,5815 12975,5599 13047,5383 13120,5126 13191,4917 13263,4743 13336,4548 13407,4361 13480,4187 13552,3922 13624,3623 13696,3505 13767,3317 13840,3122 13912,2913 13984,2691 14056,2447 14129,2190 14200,1967 14272,1772 14345,1675 14416,1487 14489,1348"/>
 <path fill="none" stroke="rgb(255,66,14)" stroke-width="100" stroke-linejoin="round" d="M 1299,11213 L 1371,11213 1443,11213"/>
 <path fill="none" stroke="rgb(255,66,14)" stroke-width="100" stroke-linejoin="round" d="M 1963,11213 L 2020,11185 2092,11157 2165,11157 2236,11157 2308,11157 2380,11150 2452,11143 2525,11143 2596,11143 2669,11143 2741,11143 2812,11143 2885,11143 2957,11136 3029,11136 3101,11129 3173,11129 3245,11122 3317,11122 3390,11122 3461,11122 3534,11122 3606,11122 3677,11122 3750,11122 3822,11122 3894,11122 3966,11122 4038,11122 4110,11122 4182,11122 4254,11122 4326,11122 4399,11115 4470,11094 4542,11094 4615,11094 4686,11080 4759,11073 4831,11073 4903,11052 4975,11046 5047,11039 5119,11018 5191,11018 5264,11018 5335,11018 5408,11018 5480,11004 5551,10983 5624,10983 5695,10948 5768,10948 5840,10948 5911,10941 5984,10934 6056,10920 6128,10955 6200,10892 6273,10892 6344,10892 6416,10886 6489,10851 6560,10844 6633,10816 6705,10795 6777,10781 6849,10774 6921,10753 6993,10719 7065,10698 7138,10677 7209,10621 7281,10600 7353,10600 7425,10510 7498,10489 7569,10468 7642,10419 7714,10392 7785,10392 7858,10371 7930,10336 8002,10294 8074,10252 8147,10211 8218,10176 8290,10162 8363,10148 8434,10113 8507,10058 8579,10037 8651,9988 8723,9953 8794,9939 8867,9932 8939,9828 9011,9814 9083,9814 9155,9765 9227,9724 9299,9717 9372,9682 9443,9605 9516,9529 9588,9501 9659,9445 9732,9418 9804,9411 9876,9418 9948,9376 10021,9341 10092,9320 10164,9271 10237,9223 10308,9209 10381,9202 10452,9091 10524,9056 10597,9014 10668,8972 10741,8882 10813,8882 10885,8882 10957,8896 11029,8861 11101,8757 11173,8736 11246,8715 11317,8708 11390,8694 11462,8638 11533,8597 11606,8576 11678,8534 11750,8499 11822,8471 11894,8471 11966,8381 12038,8290 12110,8235 12182,8221 12255,8179 12326,8151 12398,8144 12471,8089 12542,7998 12615,7922 12687,7845 12759,7817 12831,7769 12903,7727 12975,7609 13047,7490 13120,7435 13191,7296 13263,7233 13336,7177 13407,7122 13480,6809 13552,6370 13624,6175 13696,5842 13767,5432 13840,5342 13912,5286 13984,4646 14056,4228 14129,3880 14200,3519 14272,2983 14345,2823 14416,2774 14489,2155 14561,1779 14632,1452"/>
 <path fill="none" stroke="rgb(255,211,32)" stroke-width="100" stroke-linejoin="round" d="M 1299,11213 L 1371,11206 1443,11199 1516,11199 1587,11199 1660,11185 1732,11178 1803,11171 1876,11171 1948,11171 2020,11164 2092,11157 2165,11150 2236,11143 2308,11136 2380,11136 2452,11136 2525,11136 2596,11129 2669,11129 2741,11129 2812,11129 2885,11129 2957,11129 3029,11129 3101,11129 3173,11129 3245,11129 3317,11129 3390,11129 3461,11129 3534,11129 3606,11129 3677,11129 3750,11129 3822,11129 3894,11129 3966,11129 4038,11129 4110,11129 4182,11129 4254,11129 4326,11129 4399,11129 4470,11129 4542,11129 4615,11129 4686,11129 4759,11129 4831,11129 4903,11129 4975,11129 5047,11129 5119,11129 5191,11129 5264,11129 5335,11129 5408,11129 5480,11129 5551,11129 5624,11129 5695,11129 5768,11129 5840,11129 5911,11129 5984,11122 6056,11122 6128,11122 6200,11122 6273,11108 6344,11101 6416,11101 6489,11094 6560,11087 6633,11087 6705,11087 6777,11066 6849,11066 6921,11066 6993,11066 7065,11066 7138,11066 7209,11066 7281,11052 7353,11046 7425,11032 7498,11018 7569,11011 7642,11011 7714,11011 7785,10969 7858,10969 7930,10969 8002,10948 8074,10934 8147,10934 8218,10934 8290,10879 8363,10830 8434,10802 8507,10760 8579,10732 8651,10691 8723,10649 8794,10739 8867,10600 8939,10559 9011,10524 9083,10468 9155,10468 9227,10468 9299,10350 9372,10322 9443,10266 9516,10225 9588,10183 9659,10183 9732,10183 9804,10141 9876,10092 9948,10023 10021,9988 10092,9946 10164,9905 10237,9863 10308,9821 10381,9758 10452,9696 10524,9668 10597,9633 10668,9591 10741,9557 10813,9536 10885,9487 10957,9424 11029,9383 11101,9320 11173,9264 11246,9237 11317,9195 11390,9139 11462,9084 11533,9063 11606,9014 11678,8972 11750,8930 11822,8903 11894,8861 11966,8840 12038,8805 12110,8784 12182,8757 12255,8722 12326,8666 12398,8604 12471,8590 12542,8548 12615,8527 12687,8506 12759,8492 12831,8471 12903,8457 12975,8416 13047,8395 13120,8367 13191,8325 13263,8304 13336,8283 13407,8270 13480,8249 13552,8221 13624,8200 13696,8172 13767,8151 13840,8151 13912,8116 13984,8096 14056,8082 14129,8082 14200,8082 14272,8068 14345,8068 14416,8054 14489,8026 14561,8019 14632,7998"/>
 <text class="TextShape"><tspan class="TextParagraph" font-family="Liberation Sans, sans-serif" font-size="353px" font-weight="400"><tspan class="TextPosition" x="877" y="11781"><tspan fill="rgb(0,0,0)" stroke="none">27/07</tspan></tspan></tspan></text>
 <text class="TextShape"><tspan class="TextParagraph" font-family="Liberation Sans, sans-serif" font-size="353px" font-weight="400"><tspan class="TextPosition" x="3112" y="11781"><tspan fill="rgb(0,0,0)" stroke="none">27/08</tspan></tspan></tspan></text>
 <text class="TextShape"><tspan class="TextParagraph" font-family="Liberation Sans, sans-serif" font-size="353px" font-weight="400"><tspan class="TextPosition" x="5347" y="11781"><tspan fill="rgb(0,0,0)" stroke="none">27/09</tspan></tspan></tspan></text>
 <text class="TextShape"><tspan class="TextParagraph" font-family="Liberation Sans, sans-serif" font-size="353px" font-weight="400"><tspan class="TextPosition" x="7508" y="11781"><tspan fill="rgb(0,0,0)" stroke="none">27/10</tspan></tspan></tspan></text>
 <text class="TextShape"><tspan class="TextParagraph" font-family="Liberation Sans, sans-serif" font-size="353px" font-weight="400"><tspan class="TextPosition" x="9742" y="11781"><tspan fill="rgb(0,0,0)" stroke="none">27/11</tspan></tspan></tspan></text>
 <text class="TextShape"><tspan class="TextParagraph" font-family="Liberation Sans, sans-serif" font-size="353px" font-weight="400"><tspan class="TextPosition" x="11905" y="11781"><tspan fill="rgb(0,0,0)" stroke="none">27/12</tspan></tspan></tspan></text>
 <text class="TextShape"><tspan class="TextParagraph" font-family="Liberation Sans, sans-serif" font-size="353px" font-weight="400"><tspan class="TextPosition" x="14139" y="11781"><tspan fill="rgb(0,0,0)" stroke="none">27/01</tspan></tspan></tspan></text>
 <text class="TextShape"><tspan class="TextParagraph" font-family="Liberation Sans, sans-serif" font-size="353px" font-weight="400"><tspan class="TextPosition" x="497" y="9942"><tspan fill="rgb(0,0,0)" stroke="none">200</tspan></tspan></tspan></text>
 <text class="TextShape"><tspan class="TextParagraph" font-family="Liberation Sans, sans-serif" font-size="353px" font-weight="400"><tspan class="TextPosition" x="497" y="8551"><tspan fill="rgb(0,0,0)" stroke="none">400</tspan></tspan></tspan></text>
 <text class="TextShape"><tspan class="TextParagraph" font-family="Liberation Sans, sans-serif" font-size="353px" font-weight="400"><tspan class="TextPosition" x="497" y="7159"><tspan fill="rgb(0,0,0)" stroke="none">600</tspan></tspan></tspan></text>
 <text class="TextShape"><tspan class="TextParagraph" font-family="Liberation Sans, sans-serif" font-size="353px" font-weight="400"><tspan class="TextPosition" x="497" y="5768"><tspan fill="rgb(0,0,0)" stroke="none">800</tspan></tspan></tspan></text>
 <text class="TextShape"><tspan class="TextParagraph" font-family="Liberation Sans, sans-serif" font-size="353px" font-weight="400"><tspan class="TextPosition" x="207" y="4376"><tspan fill="rgb(0,0,0)" stroke="none">1.000</tspan></tspan></tspan></text>
 <text class="TextShape"><tspan class="TextParagraph" font-family="Liberation Sans, sans-serif" font-size="353px" font-weight="400"><tspan class="TextPosition" x="207" y="2985"><tspan fill="rgb(0,0,0)" stroke="none">1.200</tspan></tspan></tspan></text>
 <text class="TextShape"><tspan class="TextParagraph" font-family="Liberation Sans, sans-serif" font-size="353px" font-weight="400"><tspan class="TextPosition" x="207" y="1593"><tspan fill="rgb(0,0,0)" stroke="none">1.400</tspan></tspan></tspan></text>
 <text class="TextShape"><tspan class="TextParagraph" font-family="Liberation Sans, sans-serif" font-size="459px" font-weight="400"><tspan class="TextPosition" x="2050" y="538"><tspan fill="rgb(0,0,0)" stroke="none">Covid-19. Muertes acumuladas en Europa Occidental (3)</tspan></tspan></tspan></text>
 <path fill="none" stroke="rgb(0,69,134)" stroke-width="100" stroke-linejoin="round" d="M 2370,2232 L 3166,2232"/>
 <path fill="none" stroke="rgb(255,66,14)" stroke-width="100" stroke-linejoin="round" d="M 2370,3614 L 3166,3614"/>
 <path fill="none" stroke="rgb(255,211,32)" stroke-width="100" stroke-linejoin="round" d="M 2370,4996 L 3166,4996"/>
 <text class="TextShape"><tspan class="TextParagraph" font-family="Liberation Sans, sans-serif" font-size="353px" font-weight="400"><tspan class="TextPosition" x="3265" y="2352"><tspan fill="rgb(0,0,0)" stroke="none">Dinamarca</tspan></tspan></tspan></text>
 <text class="TextShape"><tspan class="TextParagraph" font-family="Liberation Sans, sans-serif" font-size="353px" font-weight="400"><tspan class="TextPosition" x="3265" y="3734"><tspan fill="rgb(0,0,0)" stroke="none">Irlanda</tspan></tspan></tspan></text>
 <text class="TextShape"><tspan class="TextParagraph" font-family="Liberation Sans, sans-serif" font-size="353px" font-weight="400"><tspan class="TextPosition" x="3265" y="5116"><tspan fill="rgb(0,0,0)" stroke="none">Luxemburgo</tspan></tspan></tspan></text>
</svg>