<?xml version="1.0" encoding="UTF-8"?>
<!DOCTYPE svg PUBLIC "-//W3C//DTD SVG 1.1//EN" "http://www.w3.org/Graphics/SVG/1.1/DTD/svg11.dtd">
<svg width="150mm" height="120mm" viewBox="0 0 15000 12000" version="1.1" xmlns="http://www.w3.org/2000/svg" xmlns:xlink="http://www.w3.org/1999/xlink" stroke-width="28.222" stroke-linejoin="round" xml:space="preserve">
 <path fill="rgb(255,255,255)" stroke="none" d="M 7500,12000 L 0,12000 0,0 15000,0 15000,12000 7500,12000 Z"/>
 <path fill="none" stroke="rgb(0,0,0)" stroke-linejoin="round" d="M 7919,11289 L 1156,11289 1156,1026 14683,1026 14683,11289 7919,11289 Z"/>
 <path fill="none" stroke="rgb(0,0,0)" stroke-linejoin="round" d="M 14683,11288 L 1156,11288"/>
 <path fill="none" stroke="rgb(0,0,0)" stroke-linejoin="round" d="M 14683,9821 L 1156,9821"/>
 <path fill="none" stroke="rgb(0,0,0)" stroke-linejoin="round" d="M 14683,8355 L 1156,8355"/>
 <path fill="none" stroke="rgb(0,0,0)" stroke-linejoin="round" d="M 14683,6889 L 1156,6889"/>
 <path fill="none" stroke="rgb(0,0,0)" stroke-linejoin="round" d="M 14683,5423 L 1156,5423"/>
 <path fill="none" stroke="rgb(0,0,0)" stroke-linejoin="round" d="M 14683,3957 L 1156,3957"/>
 <path fill="none" stroke="rgb(0,0,0)" stroke-linejoin="round" d="M 14683,2491 L 1156,2491"/>
 <path fill="none" stroke="rgb(0,0,0)" stroke-linejoin="round" d="M 14683,1025 L 1156,1025"/>
 <path fill="none" stroke="rgb(0,0,0)" stroke-linejoin="round" d="M 1156,11438 L 1156,11288"/>
 <path fill="none" stroke="rgb(0,0,0)" stroke-linejoin="round" d="M 1156,11438 L 1156,11288"/>
 <path fill="none" stroke="rgb(0,0,0)" stroke-linejoin="round" d="M 2963,11438 L 2963,11288"/>
 <path fill="none" stroke="rgb(0,0,0)" stroke-linejoin="round" d="M 2963,11438 L 2963,11288"/>
 <path fill="none" stroke="rgb(0,0,0)" stroke-linejoin="round" d="M 4771,11438 L 4771,11288"/>
 <path fill="none" stroke="rgb(0,0,0)" stroke-linejoin="round" d="M 4771,11438 L 4771,11288"/>
 <path fill="none" stroke="rgb(0,0,0)" stroke-linejoin="round" d="M 6520,11438 L 6520,11288"/>
 <path fill="none" stroke="rgb(0,0,0)" stroke-linejoin="round" d="M 6520,11438 L 6520,11288"/>
 <path fill="none" stroke="rgb(0,0,0)" stroke-linejoin="round" d="M 8327,11438 L 8327,11288"/>
 <path fill="none" stroke="rgb(0,0,0)" stroke-linejoin="round" d="M 8327,11438 L 8327,11288"/>
 <path fill="none" stroke="rgb(0,0,0)" stroke-linejoin="round" d="M 10076,11438 L 10076,11288"/>
 <path fill="none" stroke="rgb(0,0,0)" stroke-linejoin="round" d="M 10076,11438 L 10076,11288"/>
 <path fill="none" stroke="rgb(0,0,0)" stroke-linejoin="round" d="M 11884,11438 L 11884,11288"/>
 <path fill="none" stroke="rgb(0,0,0)" stroke-linejoin="round" d="M 11884,11438 L 11884,11288"/>
 <path fill="none" stroke="rgb(0,0,0)" stroke-linejoin="round" d="M 13691,11438 L 13691,11288"/>
 <path fill="none" stroke="rgb(0,0,0)" stroke-linejoin="round" d="M 13691,11438 L 13691,11288"/>
 <path fill="none" stroke="rgb(0,0,0)" stroke-linejoin="round" d="M 1156,11288 L 14683,11288"/>
 <path fill="none" stroke="rgb(0,0,0)" stroke-linejoin="round" d="M 1006,11288 L 1156,11288"/>
 <path fill="none" stroke="rgb(0,0,0)" stroke-linejoin="round" d="M 1006,11288 L 1156,11288"/>
 <path fill="none" stroke="rgb(0,0,0)" stroke-linejoin="round" d="M 1006,9821 L 1156,9821"/>
 <path fill="none" stroke="rgb(0,0,0)" stroke-linejoin="round" d="M 1006,9821 L 1156,9821"/>
 <path fill="none" stroke="rgb(0,0,0)" stroke-linejoin="round" d="M 1006,8355 L 1156,8355"/>
 <path fill="none" stroke="rgb(0,0,0)" stroke-linejoin="round" d="M 1006,8355 L 1156,8355"/>
 <path fill="none" stroke="rgb(0,0,0)" stroke-linejoin="round" d="M 1006,6889 L 1156,6889"/>
 <path fill="none" stroke="rgb(0,0,0)" stroke-linejoin="round" d="M 1006,6889 L 1156,6889"/>
 <path fill="none" stroke="rgb(0,0,0)" stroke-linejoin="round" d="M 1006,5423 L 1156,5423"/>
 <path fill="none" stroke="rgb(0,0,0)" stroke-linejoin="round" d="M 1006,5423 L 1156,5423"/>
 <path fill="none" stroke="rgb(0,0,0)" stroke-linejoin="round" d="M 1006,3957 L 1156,3957"/>
 <path fill="none" stroke="rgb(0,0,0)" stroke-linejoin="round" d="M 1006,3957 L 1156,3957"/>
 <path fill="none" stroke="rgb(0,0,0)" stroke-linejoin="round" d="M 1006,2491 L 1156,2491"/>
 <path fill="none" stroke="rgb(0,0,0)" stroke-linejoin="round" d="M 1006,2491 L 1156,2491"/>
 <path fill="none" stroke="rgb(0,0,0)" stroke-linejoin="round" d="M 1006,1025 L 1156,1025"/>
 <path fill="none" stroke="rgb(0,0,0)" stroke-linejoin="round" d="M 1006,1025 L 1156,1025"/>
 <path fill="none" stroke="rgb(0,0,0)" stroke-linejoin="round" d="M 1156,11288 L 1156,1025"/>
 <path fill="none" stroke="rgb(0,0,0)" stroke-width="100" stroke-linejoin="round" d="M 1156,11288 L 1214,11288 1272,11288 1330,11288 1389,11288 1447,11288 1505,11288 1564,11288 1622,11288 1680,11288 1739,11288 1797,11288 1855,11288 1914,11288 1972,11288 2030,11288 2088,11280 2147,11280 2205,11280 2263,11280 2322,11280 2380,11266 2438,11266 2497,11258 2555,11258 2613,11258 2672,11258 2730,11258 2788,11251 2847,11244 2905,11236 2963,11236 3021,11229 3080,11229 3138,11229 3196,11229 3255,11229 3313,11222 3371,11222 3430,11222 3488,11222 3546,11222 3605,11200 3663,11185 3721,11170 3779,11148 3838,11134 3896,11134 3954,11134 4013,11104 4071,11068 4129,11068 4188,11068 4246,10958 4304,10958 4363,10958 4421,10958 4479,10943 4538,10928 4596,10906 4654,10899 4712,10899 4771,10899 4829,10892 4887,10826 4946,10811 5004,10796 5062,10774 5121,10774 5179,10774 5237,10738 5296,10738 5354,10730 5412,10716 5470,10679 5529,10679 5587,10679 5645,10642 5704,10620 5762,10518 5820,10510 5879,10488 5937,10488 5995,10488 6054,10459 6112,10393 6170,10364 6229,10327 6287,10298 6345,10298 6403,10298 6462,10261 6520,10180 6578,10173 6637,10129 6695,10048 6753,10048 6812,10048 6870,9909 6928,9873 6987,9741 7045,9601 7103,9521 7161,9521 7220,9521 7278,9418 7336,9257 7395,9132 7453,9059 7510,8912 7569,8912 7627,8912 7685,8809 7744,8700 7802,8619 7860,8553 7919,8392 7977,8392 8035,8392 8093,8304 8152,8223 8210,8098 8268,8054 8327,7996 8385,7996 8443,7996 8502,7944 8560,7893 8618,7864 8677,7827 8735,7805 8793,7805 8851,7805 8910,7717 8968,7717 9026,7717 9085,7629 9143,7548 9201,7548 9260,7548 9318,7475 9376,7395 9435,7336 9493,7307 9551,7255 9610,7255 9668,7255 9726,7182 9784,7145 9843,7123 9901,7123 9959,7123 10018,7123 10076,7123 10134,7035 10193,6984 10251,6955 10309,6918 10368,6918 10426,6918 10484,6918 10542,6830 10601,6808 10659,6808 10717,6771 10776,6735 10834,6735 10892,6735 10951,6669 11009,6639 11067,6581 11126,6551 11184,6471 11242,6471 11301,6471 11359,6331 11417,6221 11475,6126 11534,5981 11592,5900 11650,5900 11709,5900 11767,5585 11825,5306 11884,5049 11942,4727 12000,4558 12059,4558 12117,4558 12175,4214 12233,3935 12292,3752 12350,3649 12408,3554 12467,3554 12525,3554 12583,3261 12642,3165 12700,2997 12758,2975 12817,2835 12875,2835 12933,2835 12992,2652 13050,2417 13108,2366 13166,2264 13225,2190 13283,2190 13341,2190 13400,2007 13458,1875 13516,1853 13575,1765 13633,1736 13691,1736 13750,1736 13808,1508 13866,1472 13924,1406 13983,1362 14041,1296 14099,1296 14158,1296 14216,1193 14274,1149 14333,1142 14391,1112 14449,1105 14508,1105 14566,1105 14624,1090 14683,1076"/>
 <path fill="none" stroke="rgb(255,66,14)" stroke-width="100" stroke-linejoin="round" d="M 1156,11288 L 1214,11288 1272,11288 1330,11280 1389,11280 1447,11280 1505,11280 1564,11280 1622,11280 1680,11280 1739,11280 1797,11273 1855,11273 1914,11273 1972,11273 2030,11273 2088,11266 2147,11266 2205,11266 2263,11266 2322,11266 2380,11258 2438,11258 2497,11258 2555,11258 2613,11251 2672,11251 2730,11251 2788,11236 2847,11236 2905,11236 2963,11236 3021,11236 3080,11236 3138,11236 3196,11229 3255,11229 3313,11214 3371,11214 3430,11207 3488,11207 3546,11207 3605,11185 3663,11185 3721,11148 3779,11148 3838,11148 3896,11148 3954,11148 4013,11148 4071,11148 4129,11134 4188,11134 4246,11104 4304,11104 4363,11104 4421,11068 4479,11060 4538,11009 4596,10972 4654,10958 4712,10958 4771,10958 4829,10914 4887,10884 4946,10862 5004,10833 5062,10767 5121,10767 5179,10767 5237,10694 5296,10635 5354,10569 5412,10540 5470,10532 5529,10532 5587,10532 5645,10474 5704,10459 5762,10422 5820,10386 5879,10356 5937,10356 5995,10356 6054,10320 6112,10283 6170,10254 6229,10180 6287,10136 6345,10136 6403,10136 6462,10056 6520,9983 6578,9953 6637,9939 6695,9858 6753,9858 6812,9858 6870,9726 6928,9645 6987,9565 7045,9521 7103,9447 7161,9447 7220,9447 7278,9330 7336,9227 7395,9191 7453,9132 7510,9037 7569,9037 7627,9037 7685,8949 7744,8861 7802,8787 7860,8700 7919,8685 7977,8685 8035,8685 8093,8531 8152,8480 8210,8428 8268,8384 8327,8289 8385,8289 8443,8289 8502,8194 8560,8113 8618,8084 8677,8010 8735,7974 8793,7974 8851,7974 8910,7893 8968,7893 9026,7871 9085,7834 9143,7790 9201,7790 9260,7790 9318,7673 9376,7651 9435,7614 9493,7607 9551,7548 9610,7548 9668,7548 9726,7512 9784,7490 9843,7460 9901,7439 9959,7439 10018,7439 10076,7439 10134,7343 10193,7307 10251,7292 10309,7270 10368,7270 10426,7270 10484,7270 10542,7153 10601,7109 10659,7109 10717,7050 10776,6947 10834,6947 10892,6947 10951,6771 11009,6603 11067,6544 11126,6419 11184,6375 11242,6375 11301,6375 11359,6170 11417,6097 11475,5929 11534,5775 11592,5629 11650,5629 11709,5629 11767,5299 11825,5123 11884,4910 11942,4720 12000,4617 12059,4617 12117,4617 12175,4309 12233,4148 12292,3994 12350,3884 12408,3700 12467,3700 12525,3700 12583,3415 12642,3334 12700,3253 12758,3224 12817,3092 12875,3092 12933,3092 12992,2938 13050,2879 13108,2857 13166,2813 13225,2784 13283,2784 13341,2784 13400,2725 13458,2696 13516,2645 13575,2608 13633,2586 13691,2586 13750,2586 13808,2498 13866,2469 13924,2439 13983,2425 14041,2403 14099,2403 14158,2403 14216,2359 14274,2351 14333,2329 14391,2315 14449,2315 14508,2315 14566,2315 14624,2300 14683,2286"/>
 <path fill="none" stroke="rgb(255,211,32)" stroke-width="100" stroke-linejoin="round" d="M 1156,11288 L 1214,11288 1272,11288 1330,11288 1389,11288 1447,11288 1505,11288 1564,11288 1622,11288 1680,11288 1739,11288 1797,11288 1855,11288 1914,11288 1972,11280 2030,11273 2088,11273 2147,11273 2205,11266 2263,11266 2322,11266 2380,11266 2438,11266 2497,11266 2555,11266 2613,11266 2672,11266 2730,11266 2788,11258 2847,11258 2905,11258 2963,11258 3021,11258 3080,11258 3138,11258 3196,11251 3255,11244 3313,11236 3371,11236 3430,11236 3488,11236 3546,11236 3605,11207 3663,11207 3721,11207 3779,11207 3838,11192 3896,11192 3954,11192 4013,11156 4071,11148 4129,11141 4188,11134 4246,11112 4304,11112 4363,11112 4421,11090 4479,11053 4538,11046 4596,11046 4654,11038 4712,11038 4771,11038 4829,10994 4887,10980 4946,10965 5004,10958 5062,10928 5121,10928 5179,10928 5237,10892 5296,10767 5354,10745 5412,10716 5470,10686 5529,10686 5587,10686 5645,10635 5704,10584 5762,10569 5820,10525 5879,10481 5937,10481 5995,10481 6054,10386 6112,10349 6170,10298 6229,10283 6287,10268 6345,10268 6403,10268 6462,10217 6520,10129 6578,10078 6637,10041 6695,10012 6753,10012 6812,10012 6870,9873 6928,9843 6987,9770 7045,9755 7103,9689 7161,9689 7220,9689 7278,9543 7336,9513 7395,9477 7453,9418 7510,9396 7569,9396 7627,9396 7685,9301 7744,9279 7802,9227 7860,9176 7919,9139 7977,9139 8035,9139 8093,8971 8152,8934 8210,8912 8268,8890 8327,8839 8385,8839 8443,8839 8502,8751 8560,8685 8618,8685 8677,8656 8735,8619 8793,8619 8851,8619 8910,8509 8968,8509 9026,8494 9085,8472 9143,8465 9201,8465 9260,8465 9318,8428 9376,8377 9435,8362 9493,8362 9551,8355 9610,8355 9668,8355 9726,8238 9784,8238 9843,8223 9901,8201 9959,8201 10018,8201 10076,8201 10134,8164 10193,8150 10251,8142 10309,8128 10368,8128 10426,8128 10484,8128 10542,8054 10601,8047 10659,8047 10717,8032 10776,8032 10834,8032 10892,8032 10951,8010 11009,8003 11067,7988 11126,7959 11184,7952 11242,7952 11301,7952 11359,7900 11417,7893 11475,7886 11534,7878 11592,7871 11650,7871 11709,7871 11767,7812 11825,7746 11884,7717 11942,7673 12000,7629 12059,7629 12117,7629 12175,7607 12233,7578 12292,7556 12350,7534 12408,7512 12467,7512 12525,7512 12583,7417 12642,7351 12700,7329 12758,7321 12817,7292 12875,7292 12933,7292 12992,7248 13050,7241 13108,7226 13166,7226 13225,7219 13283,7219 13341,7219 13400,7175 13458,7175 13516,7167 13575,7167 13633,7160 13691,7160 13750,7160 13808,7145 13866,7109 13924,7109 13983,7087 14041,7079 14099,7079 14158,7079 14216,7079 14274,7065 14333,7057 14391,7043 14449,7035 14508,7035 14566,7035 14624,7028 14683,7021"/>
 <path fill="none" stroke="rgb(87,157,28)" stroke-width="100" stroke-linejoin="round" d="M 1156,11288 L 1214,11288 1272,11288 1330,11288 1389,11288 1447,11288 1505,11288 1564,11288 1622,11288 1680,11288 1739,11288 1797,11288 1855,11288 1914,11288 1972,11273 2030,11280 2088,11280 2147,11280 2205,11280 2263,11280 2322,11280 2380,11280 2438,11273 2497,11266 2555,11266 2613,11258 2672,11258 2730,11258 2788,11258 2847,11251 2905,11236 2963,11236 3021,11222 3080,11222 3138,11222 3196,11214 3255,11185 3313,11185 3371,11156 3430,11148 3488,11148 3546,11148 3605,11134 3663,11104 3721,11097 3779,11075 3838,11038 3896,11038 3954,11038 4013,11031 4071,10994 4129,10965 4188,10958 4246,10950 4304,10950 4363,10950 4421,10899 4479,10884 4538,10840 4596,10833 4654,10826 4712,10826 4771,10826 4829,10811 4887,10796 4946,10752 5004,10738 5062,10730 5121,10730 5179,10730 5237,10701 5296,10664 5354,10657 5412,10635 5470,10613 5529,10613 5587,10613 5645,10613 5704,10613 5762,10576 5820,10547 5879,10532 5937,10532 5995,10532 6054,10532 6112,10496 6170,10466 6229,10408 6287,10349 6345,10349 6403,10349 6462,10320 6520,10312 6578,10312 6637,10312 6695,10276 6753,10276 6812,10276 6870,10268 6928,10261 6987,10210 7045,10202 7103,10173 7161,10173 7220,10173 7278,10158 7336,10144 7395,10144 7453,10122 7510,10078 7569,10078 7627,10078 7685,10063 7744,10019 7802,10019 7860,10012 7919,10012 7977,10012 8035,10012 8093,10012 8152,10005 8210,9983 8268,9968 8327,9968 8385,9968 8443,9968 8502,9931 8560,9917 8618,9902 8677,9829 8735,9814 8793,9814 8851,9814 8910,9814 8968,9814 9026,9814 9085,9807 9143,9799 9201,9799 9260,9799 9318,9799 9376,9785 9435,9763 9493,9748 9551,9726 9610,9726 9668,9726 9726,9689 9784,9653 9843,9653 9901,9616 9959,9616 10018,9616 10076,9616 10134,9594 10193,9572 10251,9521 10309,9491 10368,9491 10426,9491 10484,9491 10542,9440 10601,9411 10659,9411 10717,9411 10776,9396 10834,9396 10892,9396 10951,9337 11009,9286 11067,9249 11126,9242 11184,9205 11242,9205 11301,9205 11359,9132 11417,9059 11475,8985 11534,8985 11592,8941 11650,8941 11709,8941 11767,8905 11825,8861 11884,8802 11942,8743 12000,8700 12059,8700 12117,8700 12175,8604 12233,8509 12292,8465 12350,8406 12408,8370 12467,8370 12525,8370 12583,8304 12642,8260 12700,8223 12758,8179 12817,8142 12875,8142 12933,8142 12992,8032 13050,8003 13108,7988 13166,7966 13225,7944 13283,7944 13341,7944 13400,7937 13458,7915 13516,7864 13575,7798 13633,7746 13691,7746 13750,7746 13808,7614 13866,7614 13924,7600 13983,7585 14041,7578 14099,7578 14158,7578 14216,7570 14274,7563 14333,7563 14391,7556 14449,7556 14508,7556 14566,7556 14624,7541 14683,7512"/>
 <path fill="none" stroke="rgb(126,0,33)" stroke-width="100" stroke-linejoin="round" d="M 1156,11288 L 1214,11288 1272,11288 1330,11288 1389,11288 1447,11288 1505,11288 1564,11288 1622,11288 1680,11288 1739,11288 1797,11288 1855,11288 1914,11288 1972,11273 2030,11273 2088,11273 2147,11273 2205,11273 2263,11273 2322,11273 2380,11258 2438,11258 2497,11258 2555,11258 2613,11251 2672,11251 2730,11251 2788,11251 2847,11244 2905,11236 2963,11222 3021,11214 3080,11214 3138,11214 3196,11200 3255,11200 3313,11192 3371,11170 3430,11163 3488,11163 3546,11163 3605,11119 3663,11104 3721,11090 3779,11090 3838,11090 3896,11090 3954,11090 4013,11053 4071,11009 4129,10972 4188,10958 4246,10943 4304,10943 4363,10943 4421,10906 4479,10892 4538,10877 4596,10877 4654,10862 4712,10862 4771,10862 4829,10774 4887,10774 4946,10774 5004,10774 5062,10745 5121,10745 5179,10745 5237,10738 5296,10723 5354,10723 5412,10716 5470,10708 5529,10708 5587,10708 5645,10664 5704,10657 5762,10642 5820,10642 5879,10635 5937,10635 5995,10635 6054,10591 6112,10576 6170,10532 6229,10525 6287,10518 6345,10518 6403,10518 6462,10496 6520,10474 6578,10444 6637,10437 6695,10408 6753,10408 6812,10408 6870,10378 6928,10356 6987,10320 7045,10312 7103,10305 7161,10305 7220,10305 7278,10268 7336,10232 7395,10217 7453,10202 7510,10195 7569,10195 7627,10195 7685,10188 7744,10144 7802,10136 7860,10122 7919,10114 7977,10114 8035,10114 8093,10085 8152,10034 8210,10026 8268,10012 8327,9990 8385,9990 8443,9990 8502,9953 8560,9953 8618,9946 8677,9939 8735,9939 8793,9939 8851,9939 8910,9939 8968,9939 9026,9887 9085,9880 9143,9851 9201,9851 9260,9851 9318,9792 9376,9777 9435,9763 9493,9726 9551,9704 9610,9704 9668,9704 9726,9631 9784,9587 9843,9557 9901,9557 9959,9557 10018,9557 10076,9557 10134,9484 10193,9462 10251,9440 10309,9433 10368,9433 10426,9433 10484,9433 10542,9330 10601,9257 10659,9257 10717,9227 10776,9198 10834,9198 10892,9198 10951,9169 11009,9154 11067,9125 11126,9095 11184,9059 11242,9059 11301,9059 11359,8985 11417,8927 11475,8883 11534,8861 11592,8853 11650,8853 11709,8853 11767,8714 11825,8700 11884,8692 11942,8663 12000,8634 12059,8634 12117,8634 12175,8582 12233,8568 12292,8538 12350,8516 12408,8502 12467,8502 12525,8502 12583,8450 12642,8443 12700,8421 12758,8414 12817,8384 12875,8384 12933,8384 12992,8333 13050,8318 13108,8311 13166,8289 13225,8282 13283,8282 13341,8282 13400,8223 13458,8208 13516,8186 13575,8164 13633,8157 13691,8157 13750,8157 13808,8106 13866,8084 13924,8032 13983,8032 14041,8025 14099,8025 14158,8025 14216,7952 14274,7930 14333,7915 14391,7908 14449,7886 14508,7886 14566,7886 14624,7856 14683,7812"/>
 <path fill="none" stroke="rgb(131,202,255)" stroke-width="100" stroke-linejoin="round" d="M 1156,11288 L 1214,11288 1272,11288 1330,11288 1389,11288 1447,11288 1505,11288 1564,11288 1622,11288 1680,11288 1739,11288 1797,11288 1855,11288 1914,11288 1972,11288 2030,11288 2088,11288 2147,11288 2205,11288 2263,11288 2322,11288 2380,11288 2438,11280 2497,11280 2555,11280 2613,11280 2672,11280 2730,11280 2788,11273 2847,11266 2905,11266 2963,11266 3021,11266 3080,11266 3138,11266 3196,11258 3255,11244 3313,11236 3371,11236 3430,11229 3488,11229 3546,11229 3605,11207 3663,11192 3721,11185 3779,11178 3838,11170 3896,11170 3954,11170 4013,11156 4071,11134 4129,11134 4188,11104 4246,11090 4304,11090 4363,11090 4421,11046 4479,11009 4538,10987 4596,10980 4654,10972 4712,10972 4771,10972 4829,10943 4887,10928 4946,10914 5004,10899 5062,10884 5121,10884 5179,10884 5237,10855 5296,10855 5354,10855 5412,10855 5470,10848 5529,10848 5587,10848 5645,10826 5704,10818 5762,10782 5820,10789 5879,10774 5937,10774 5995,10774 6054,10752 6112,10745 6170,10745 6229,10738 6287,10730 6345,10730 6403,10730 6462,10650 6520,10642 6578,10628 6637,10613 6695,10576 6753,10576 6812,10576 6870,10525 6928,10518 6987,10474 7045,10459 7103,10437 7161,10437 7220,10437 7278,10364 7336,10327 7395,10320 7453,10276 7510,10261 7569,10261 7627,10261 7685,10188 7744,10180 7802,10151 7860,10136 7919,10114 7977,10114 8035,10114 8093,10085 8152,10063 8210,10034 8268,9990 8327,9990 8385,9990 8443,9990 8502,9939 8560,9917 8618,9909 8677,9865 8735,9858 8793,9858 8851,9858 8910,9814 8968,9814 9026,9777 9085,9770 9143,9770 9201,9770 9260,9770 9318,9755 9376,9748 9435,9748 9493,9748 9551,9741 9610,9741 9668,9741 9726,9726 9784,9726 9843,9711 9901,9711 9959,9711 10018,9711 10076,9711 10134,9682 10193,9675 10251,9675 10309,9675 10368,9675 10426,9675 10484,9675 10542,9667 10601,9660 10659,9660 10717,9631 10776,9616 10834,9616 10892,9616 10951,9601 11009,9587 11067,9579 11126,9550 11184,9535 11242,9535 11301,9535 11359,9491 11417,9484 11475,9469 11534,9469 11592,9440 11650,9440 11709,9440 11767,9381 11825,9345 11884,9323 11942,9308 12000,9293 12059,9293 12117,9293 12175,9191 12233,9161 12292,9125 12350,9095 12408,9081 12467,9081 12525,9081 12583,8993 12642,8956 12700,8905 12758,8883 12817,8868 12875,8868 12933,8868 12992,8795 13050,8780 13108,8758 13166,8751 13225,8729 13283,8729 13341,8729 13400,8707 13458,8685 13516,8670 13575,8663 13633,8656 13691,8656 13750,8656 13808,8656 13866,8648 13924,8634 13983,8634 14041,8626 14099,8626 14158,8626 14216,8619 14274,8619 14333,8612 14391,8604 14449,8597 14508,8597 14566,8597 14624,8568 14683,8560"/>
 <path fill="none" stroke="rgb(49,64,4)" stroke-width="80" stroke-linejoin="round" d="M 1156,11288 L 1214,11288 1272,11288 1330,11288 1389,11288 1447,11288 1505,11288 1564,11288 1622,11288 1680,11288 1739,11288 1797,11288 1855,11288 1914,11288 1972,11288 2030,11273 2088,11266 2147,11266 2205,11266 2263,11266 2322,11266 2380,11266 2438,11266 2497,11266 2555,11258 2613,11258 2672,11258 2730,11258 2788,11258 2847,11258 2905,11258 2963,11258 3021,11258 3080,11258 3138,11258 3196,11258 3255,11258 3313,11236 3371,11236 3430,11229 3488,11229 3546,11229 3605,11222 3663,11214 3721,11214 3779,11214 3838,11214 3896,11214 3954,11214 4013,11214 4071,11214 4129,11207 4188,11207 4246,11185 4304,11185 4363,11185 4421,11178 4479,11178 4538,11178 4596,11178 4654,11170 4712,11170 4771,11170 4829,11163 4887,11163 4946,11156 5004,11156 5062,11156 5121,11156 5179,11156 5237,11141 5296,11141 5354,11141 5412,11141 5470,11141 5529,11141 5587,11141 5645,11141 5704,11119 5762,11119 5820,11119 5879,11104 5937,11104 5995,11104 6054,11068 6112,11068 6170,11068 6229,11060 6287,11060 6345,11060 6403,11060 6462,11060 6520,11046 6578,11038 6637,11031 6695,11031 6753,11031 6812,11031 6870,11009 6928,11009 6987,11016 7045,10994 7103,10987 7161,10987 7220,10987 7278,10943 7336,10921 7395,10906 7453,10899 7510,10870 7569,10870 7627,10870 7685,10833 7744,10811 7802,10745 7860,10738 7919,10730 7977,10730 8035,10730 8093,10701 8152,10701 8210,10694 8268,10679 8327,10650 8385,10650 8443,10650 8502,10591 8560,10562 8618,10532 8677,10525 8735,10503 8793,10503 8851,10503 8910,10452 8968,10452 9026,10415 9085,10393 9143,10386 9201,10386 9260,10386 9318,10349 9376,10305 9435,10276 9493,10246 9551,10224 9610,10224 9668,10224 9726,10217 9784,10217 9843,10210 9901,10202 9959,10202 10018,10202 10076,10202 10134,10085 10193,10041 10251,10034 10309,9997 10368,9997 10426,9997 10484,9997 10542,9953 10601,9939 10659,9939 10717,9931 10776,9931 10834,9931 10892,9931 10951,9909 11009,9909 11067,9902 11126,9887 11184,9858 11242,9858 11301,9858 11359,9836 11417,9821 11475,9821 11534,9814 11592,9682 11650,9682 11709,9682 11767,9601 11825,9594 11884,9594 11942,9565 12000,9557 12059,9557 12117,9557 12175,9506 12233,9499 12292,9484 12350,9477 12408,9469 12467,9469 12525,9469 12583,9411 12642,9359 12700,9359 12758,9345 12817,9345 12875,9345 12933,9345 12992,9315 13050,9301 13108,9286 13166,9286 13225,9213 13283,9213 13341,9213 13400,9205 13458,9198 13516,9183 13575,9169 13633,9154 13691,9154 13750,9154 13808,9139 13866,9132 13924,9103 13983,9088 14041,9081 14099,9081 14158,9081 14216,9044 14274,9022 14333,9015 14391,9007 14449,9000 14508,9000 14566,9000 14624,8993 14683,8993"/>
 <text class="TextShape"><tspan class="TextParagraph" font-family="Liberation Sans, sans-serif" font-size="353px" font-weight="400"><tspan class="TextPosition" x="732" y="11856"><tspan fill="rgb(0,0,0)" stroke="none">27/07</tspan></tspan></tspan></text>
 <text class="TextShape"><tspan class="TextParagraph" font-family="Liberation Sans, sans-serif" font-size="353px" font-weight="400"><tspan class="TextPosition" x="2539" y="11856"><tspan fill="rgb(0,0,0)" stroke="none">27/08</tspan></tspan></tspan></text>
 <text class="TextShape"><tspan class="TextParagraph" font-family="Liberation Sans, sans-serif" font-size="353px" font-weight="400"><tspan class="TextPosition" x="4347" y="11856"><tspan fill="rgb(0,0,0)" stroke="none">27/09</tspan></tspan></tspan></text>
 <text class="TextShape"><tspan class="TextParagraph" font-family="Liberation Sans, sans-serif" font-size="353px" font-weight="400"><tspan class="TextPosition" x="6096" y="11856"><tspan fill="rgb(0,0,0)" stroke="none">27/10</tspan></tspan></tspan></text>
 <text class="TextShape"><tspan class="TextParagraph" font-family="Liberation Sans, sans-serif" font-size="353px" font-weight="400"><tspan class="TextPosition" x="7904" y="11856"><tspan fill="rgb(0,0,0)" stroke="none">27/11</tspan></tspan></tspan></text>
 <text class="TextShape"><tspan class="TextParagraph" font-family="Liberation Sans, sans-serif" font-size="353px" font-weight="400"><tspan class="TextPosition" x="9653" y="11856"><tspan fill="rgb(0,0,0)" stroke="none">27/12</tspan></tspan></tspan></text>
 <text class="TextShape"><tspan class="TextParagraph" font-family="Liberation Sans, sans-serif" font-size="353px" font-weight="400"><tspan class="TextPosition" x="11461" y="11856"><tspan fill="rgb(0,0,0)" stroke="none">27/01</tspan></tspan></tspan></text>
 <text class="TextShape"><tspan class="TextParagraph" font-family="Liberation Sans, sans-serif" font-size="353px" font-weight="400"><tspan class="TextPosition" x="13268" y="11856"><tspan fill="rgb(0,0,0)" stroke="none">27/02</tspan></tspan></tspan></text>
 <text class="TextShape"><tspan class="TextParagraph" font-family="Liberation Sans, sans-serif" font-size="353px" font-weight="400"><tspan class="TextPosition" x="721" y="11409"><tspan fill="rgb(0,0,0)" stroke="none">0</tspan></tspan></tspan></text>
 <text class="TextShape"><tspan class="TextParagraph" font-family="Liberation Sans, sans-serif" font-size="353px" font-weight="400"><tspan class="TextPosition" x="350" y="9942"><tspan fill="rgb(0,0,0)" stroke="none">200</tspan></tspan></tspan></text>
 <text class="TextShape"><tspan class="TextParagraph" font-family="Liberation Sans, sans-serif" font-size="353px" font-weight="400"><tspan class="TextPosition" x="350" y="8476"><tspan fill="rgb(0,0,0)" stroke="none">400</tspan></tspan></tspan></text>
 <text class="TextShape"><tspan class="TextParagraph" font-family="Liberation Sans, sans-serif" font-size="353px" font-weight="400"><tspan class="TextPosition" x="350" y="7010"><tspan fill="rgb(0,0,0)" stroke="none">600</tspan></tspan></tspan></text>
 <text class="TextShape"><tspan class="TextParagraph" font-family="Liberation Sans, sans-serif" font-size="353px" font-weight="400"><tspan class="TextPosition" x="350" y="5543"><tspan fill="rgb(0,0,0)" stroke="none">800</tspan></tspan></tspan></text>
 <text class="TextShape"><tspan class="TextParagraph" font-family="Liberation Sans, sans-serif" font-size="353px" font-weight="400"><tspan class="TextPosition" x="59" y="4077"><tspan fill="rgb(0,0,0)" stroke="none">1.000</tspan></tspan></tspan></text>
 <text class="TextShape"><tspan class="TextParagraph" font-family="Liberation Sans, sans-serif" font-size="353px" font-weight="400"><tspan class="TextPosition" x="59" y="2611"><tspan fill="rgb(0,0,0)" stroke="none">1.200</tspan></tspan></tspan></text>
 <text class="TextShape"><tspan class="TextParagraph" font-family="Liberation Sans, sans-serif" font-size="353px" font-weight="400"><tspan class="TextPosition" x="59" y="1145"><tspan fill="rgb(0,0,0)" stroke="none">1.400</tspan></tspan></tspan></text>
 <text class="TextShape"><tspan class="TextParagraph" font-family="Liberation Sans, sans-serif" font-size="459px" font-weight="400"><tspan class="TextPosition" x="4513" y="724"><tspan fill="rgb(0,0,0)" stroke="none">Covid-19. Muertes acumuladas CCAA (3)</tspan></tspan></tspan></text>
 <path fill="none" stroke="rgb(0,0,0)" stroke-width="100" stroke-linejoin="round" d="M 1561,1353 L 2361,1353"/>
 <path fill="none" stroke="rgb(255,66,14)" stroke-width="100" stroke-linejoin="round" d="M 1561,2088 L 2361,2088"/>
 <path fill="none" stroke="rgb(255,211,32)" stroke-width="100" stroke-linejoin="round" d="M 1561,2823 L 2361,2823"/>
 <path fill="none" stroke="rgb(87,157,28)" stroke-width="100" stroke-linejoin="round" d="M 1561,3558 L 2361,3558"/>
 <path fill="none" stroke="rgb(126,0,33)" stroke-width="100" stroke-linejoin="round" d="M 1561,4293 L 2361,4293"/>
 <path fill="none" stroke="rgb(131,202,255)" stroke-width="100" stroke-linejoin="round" d="M 1561,5028 L 2361,5028"/>
 <path fill="none" stroke="rgb(49,64,4)" stroke-width="80" stroke-linejoin="round" d="M 1561,5763 L 2361,5763"/>
 <text class="TextShape"><tspan class="TextParagraph" font-family="Liberation Sans, sans-serif" font-size="353px" font-weight="400"><tspan class="TextPosition" x="2461" y="1473"><tspan fill="rgb(0,0,0)" stroke="none">Murcia</tspan></tspan></tspan></text>
 <text class="TextShape"><tspan class="TextParagraph" font-family="Liberation Sans, sans-serif" font-size="353px" font-weight="400"><tspan class="TextPosition" x="2461" y="2208"><tspan fill="rgb(0,0,0)" stroke="none">Extremadura</tspan></tspan></tspan></text>
 <text class="TextShape"><tspan class="TextParagraph" font-family="Liberation Sans, sans-serif" font-size="353px" font-weight="400"><tspan class="TextPosition" x="2461" y="2943"><tspan fill="rgb(0,0,0)" stroke="none">Navarra</tspan></tspan></tspan></text>
 <text class="TextShape"><tspan class="TextParagraph" font-family="Liberation Sans, sans-serif" font-size="353px" font-weight="400"><tspan class="TextPosition" x="2461" y="3678"><tspan fill="rgb(0,0,0)" stroke="none">Baleares</tspan></tspan></tspan></text>
 <text class="TextShape"><tspan class="TextParagraph" font-family="Liberation Sans, sans-serif" font-size="353px" font-weight="400"><tspan class="TextPosition" x="2461" y="4413"><tspan fill="rgb(0,0,0)" stroke="none">Canarias</tspan></tspan></tspan></text>
 <text class="TextShape"><tspan class="TextParagraph" font-family="Liberation Sans, sans-serif" font-size="353px" font-weight="400"><tspan class="TextPosition" x="2461" y="5148"><tspan fill="rgb(0,0,0)" stroke="none">La Rioja</tspan></tspan></tspan></text>
 <text class="TextShape"><tspan class="TextParagraph" font-family="Liberation Sans, sans-serif" font-size="353px" font-weight="400"><tspan class="TextPosition" x="2461" y="5883"><tspan fill="rgb(0,0,0)" stroke="none">Cantabria</tspan></tspan></tspan></text>
</svg>