<?xml version="1.0" encoding="UTF-8"?>
<!DOCTYPE svg PUBLIC "-//W3C//DTD SVG 1.1//EN" "http://www.w3.org/Graphics/SVG/1.1/DTD/svg11.dtd">
<svg width="150mm" height="120mm" viewBox="0 0 15000 12000" version="1.1" xmlns="http://www.w3.org/2000/svg" xmlns:xlink="http://www.w3.org/1999/xlink" stroke-width="28.222" stroke-linejoin="round" xml:space="preserve">
 <path fill="rgb(255,255,255)" stroke="none" d="M 7500,12000 L 0,12000 0,0 15000,0 15000,12000 7500,12000 Z"/>
 <path fill="none" stroke="rgb(0,0,0)" stroke-linejoin="round" d="M 7977,11174 L 1269,11174 1269,1028 14686,1028 14686,11174 7977,11174 Z"/>
 <path fill="none" stroke="rgb(0,0,0)" stroke-linejoin="round" d="M 14685,11173 L 1268,11173"/>
 <path fill="none" stroke="rgb(0,0,0)" stroke-linejoin="round" d="M 14685,10057 L 1268,10057"/>
 <path fill="none" stroke="rgb(0,0,0)" stroke-linejoin="round" d="M 14685,8942 L 1268,8942"/>
 <path fill="none" stroke="rgb(0,0,0)" stroke-linejoin="round" d="M 14685,7827 L 1268,7827"/>
 <path fill="none" stroke="rgb(0,0,0)" stroke-linejoin="round" d="M 14685,6712 L 1268,6712"/>
 <path fill="none" stroke="rgb(0,0,0)" stroke-linejoin="round" d="M 14685,5598 L 1268,5598"/>
 <path fill="none" stroke="rgb(0,0,0)" stroke-linejoin="round" d="M 14685,4483 L 1268,4483"/>
 <path fill="none" stroke="rgb(0,0,0)" stroke-linejoin="round" d="M 14685,3368 L 1268,3368"/>
 <path fill="none" stroke="rgb(0,0,0)" stroke-linejoin="round" d="M 14685,2253 L 1268,2253"/>
 <path fill="none" stroke="rgb(0,0,0)" stroke-linejoin="round" d="M 14685,1138 L 1268,1138"/>
 <path fill="none" stroke="rgb(0,0,0)" stroke-linejoin="round" d="M 1268,11323 L 1268,11173"/>
 <path fill="none" stroke="rgb(0,0,0)" stroke-linejoin="round" d="M 1268,11323 L 1268,11173"/>
 <path fill="none" stroke="rgb(0,0,0)" stroke-linejoin="round" d="M 2227,11323 L 2227,11173"/>
 <path fill="none" stroke="rgb(0,0,0)" stroke-linejoin="round" d="M 2227,11323 L 2227,11173"/>
 <path fill="none" stroke="rgb(0,0,0)" stroke-linejoin="round" d="M 3185,11323 L 3185,11173"/>
 <path fill="none" stroke="rgb(0,0,0)" stroke-linejoin="round" d="M 3185,11323 L 3185,11173"/>
 <path fill="none" stroke="rgb(0,0,0)" stroke-linejoin="round" d="M 4144,11323 L 4144,11173"/>
 <path fill="none" stroke="rgb(0,0,0)" stroke-linejoin="round" d="M 4144,11323 L 4144,11173"/>
 <path fill="none" stroke="rgb(0,0,0)" stroke-linejoin="round" d="M 5102,11323 L 5102,11173"/>
 <path fill="none" stroke="rgb(0,0,0)" stroke-linejoin="round" d="M 5102,11323 L 5102,11173"/>
 <path fill="none" stroke="rgb(0,0,0)" stroke-linejoin="round" d="M 6061,11323 L 6061,11173"/>
 <path fill="none" stroke="rgb(0,0,0)" stroke-linejoin="round" d="M 6061,11323 L 6061,11173"/>
 <path fill="none" stroke="rgb(0,0,0)" stroke-linejoin="round" d="M 7019,11323 L 7019,11173"/>
 <path fill="none" stroke="rgb(0,0,0)" stroke-linejoin="round" d="M 7019,11323 L 7019,11173"/>
 <path fill="none" stroke="rgb(0,0,0)" stroke-linejoin="round" d="M 7976,11323 L 7976,11173"/>
 <path fill="none" stroke="rgb(0,0,0)" stroke-linejoin="round" d="M 7976,11323 L 7976,11173"/>
 <path fill="none" stroke="rgb(0,0,0)" stroke-linejoin="round" d="M 8935,11323 L 8935,11173"/>
 <path fill="none" stroke="rgb(0,0,0)" stroke-linejoin="round" d="M 8935,11323 L 8935,11173"/>
 <path fill="none" stroke="rgb(0,0,0)" stroke-linejoin="round" d="M 9893,11323 L 9893,11173"/>
 <path fill="none" stroke="rgb(0,0,0)" stroke-linejoin="round" d="M 9893,11323 L 9893,11173"/>
 <path fill="none" stroke="rgb(0,0,0)" stroke-linejoin="round" d="M 10852,11323 L 10852,11173"/>
 <path fill="none" stroke="rgb(0,0,0)" stroke-linejoin="round" d="M 10852,11323 L 10852,11173"/>
 <path fill="none" stroke="rgb(0,0,0)" stroke-linejoin="round" d="M 11810,11323 L 11810,11173"/>
 <path fill="none" stroke="rgb(0,0,0)" stroke-linejoin="round" d="M 11810,11323 L 11810,11173"/>
 <path fill="none" stroke="rgb(0,0,0)" stroke-linejoin="round" d="M 12769,11323 L 12769,11173"/>
 <path fill="none" stroke="rgb(0,0,0)" stroke-linejoin="round" d="M 12769,11323 L 12769,11173"/>
 <path fill="none" stroke="rgb(0,0,0)" stroke-linejoin="round" d="M 13727,11323 L 13727,11173"/>
 <path fill="none" stroke="rgb(0,0,0)" stroke-linejoin="round" d="M 13727,11323 L 13727,11173"/>
 <path fill="none" stroke="rgb(0,0,0)" stroke-linejoin="round" d="M 14685,11323 L 14685,11173"/>
 <path fill="none" stroke="rgb(0,0,0)" stroke-linejoin="round" d="M 14685,11323 L 14685,11173"/>
 <path fill="none" stroke="rgb(0,0,0)" stroke-linejoin="round" d="M 1268,11173 L 14685,11173"/>
 <path fill="none" stroke="rgb(0,0,0)" stroke-linejoin="round" d="M 1118,11173 L 1268,11173"/>
 <path fill="none" stroke="rgb(0,0,0)" stroke-linejoin="round" d="M 1118,11173 L 1268,11173"/>
 <path fill="none" stroke="rgb(0,0,0)" stroke-linejoin="round" d="M 1118,10057 L 1268,10057"/>
 <path fill="none" stroke="rgb(0,0,0)" stroke-linejoin="round" d="M 1118,10057 L 1268,10057"/>
 <path fill="none" stroke="rgb(0,0,0)" stroke-linejoin="round" d="M 1118,8942 L 1268,8942"/>
 <path fill="none" stroke="rgb(0,0,0)" stroke-linejoin="round" d="M 1118,8942 L 1268,8942"/>
 <path fill="none" stroke="rgb(0,0,0)" stroke-linejoin="round" d="M 1118,7827 L 1268,7827"/>
 <path fill="none" stroke="rgb(0,0,0)" stroke-linejoin="round" d="M 1118,7827 L 1268,7827"/>
 <path fill="none" stroke="rgb(0,0,0)" stroke-linejoin="round" d="M 1118,6712 L 1268,6712"/>
 <path fill="none" stroke="rgb(0,0,0)" stroke-linejoin="round" d="M 1118,6712 L 1268,6712"/>
 <path fill="none" stroke="rgb(0,0,0)" stroke-linejoin="round" d="M 1118,5598 L 1268,5598"/>
 <path fill="none" stroke="rgb(0,0,0)" stroke-linejoin="round" d="M 1118,5598 L 1268,5598"/>
 <path fill="none" stroke="rgb(0,0,0)" stroke-linejoin="round" d="M 1118,4483 L 1268,4483"/>
 <path fill="none" stroke="rgb(0,0,0)" stroke-linejoin="round" d="M 1118,4483 L 1268,4483"/>
 <path fill="none" stroke="rgb(0,0,0)" stroke-linejoin="round" d="M 1118,3368 L 1268,3368"/>
 <path fill="none" stroke="rgb(0,0,0)" stroke-linejoin="round" d="M 1118,3368 L 1268,3368"/>
 <path fill="none" stroke="rgb(0,0,0)" stroke-linejoin="round" d="M 1118,2253 L 1268,2253"/>
 <path fill="none" stroke="rgb(0,0,0)" stroke-linejoin="round" d="M 1118,2253 L 1268,2253"/>
 <path fill="none" stroke="rgb(0,0,0)" stroke-linejoin="round" d="M 1118,1138 L 1268,1138"/>
 <path fill="none" stroke="rgb(0,0,0)" stroke-linejoin="round" d="M 1118,1138 L 1268,1138"/>
 <path fill="none" stroke="rgb(0,0,0)" stroke-linejoin="round" d="M 1268,11173 L 1268,1026"/>
 <path fill="none" stroke="rgb(0,0,0)" stroke-width="50" stroke-linejoin="round" d="M 4212,11171 L 4349,11167 4486,11166 4623,11161 4760,11154 4897,11154 5034,11141 5171,11126 5308,11103 5445,11079 5581,11048 5718,11011 5855,10932 5992,10879 6129,10820 6266,10763 6403,10673 6540,10571 6677,10479 6814,10383 6951,10309 7088,10220 7224,10151 7361,10070 7498,9996 7634,9910 7771,9860 7908,9773 8045,9698 8182,9577 8319,9519 8456,9452 8593,9359 8730,9261 8866,9216 9003,9170 9140,9107 9277,9039 9414,8984 9551,8919 9688,8859 9825,8786 9962,8733 10099,8658 10236,8617 10373,8574 10509,8535 10646,8501 10783,8456 10920,8426 11057,8387 11194,8347 11331,8312 11468,8285 11605,8256 11742,8221 11879,8187 12016,8147 12153,8119 12289,8096 12426,8066 12563,8038 12700,8011 12837,7992 12974,7972 13111,7958 13248,7947 13385,7941 13522,7939 13659,7924 13796,7918 13932,7907 14069,7901 14206,7894 14343,8064 14480,7889 14617,7889"/>
 <path fill="rgb(0,0,0)" stroke="none" d="M 4112,11171 L 4212,11271 4312,11171 4212,11071 4112,11171 Z"/>
 <path fill="none" stroke="rgb(0,0,0)" stroke-linejoin="round" d="M 4112,11171 L 4212,11271 4312,11171 4212,11071 4112,11171 Z"/>
 <path fill="rgb(0,0,0)" stroke="none" d="M 4249,11167 L 4349,11267 4449,11167 4349,11067 4249,11167 Z"/>
 <path fill="none" stroke="rgb(0,0,0)" stroke-linejoin="round" d="M 4249,11167 L 4349,11267 4449,11167 4349,11067 4249,11167 Z"/>
 <path fill="rgb(0,0,0)" stroke="none" d="M 4386,11166 L 4486,11266 4586,11166 4486,11066 4386,11166 Z"/>
 <path fill="none" stroke="rgb(0,0,0)" stroke-linejoin="round" d="M 4386,11166 L 4486,11266 4586,11166 4486,11066 4386,11166 Z"/>
 <path fill="rgb(0,0,0)" stroke="none" d="M 4523,11161 L 4623,11261 4723,11161 4623,11061 4523,11161 Z"/>
 <path fill="none" stroke="rgb(0,0,0)" stroke-linejoin="round" d="M 4523,11161 L 4623,11261 4723,11161 4623,11061 4523,11161 Z"/>
 <path fill="rgb(0,0,0)" stroke="none" d="M 4660,11154 L 4760,11254 4860,11154 4760,11054 4660,11154 Z"/>
 <path fill="none" stroke="rgb(0,0,0)" stroke-linejoin="round" d="M 4660,11154 L 4760,11254 4860,11154 4760,11054 4660,11154 Z"/>
 <path fill="rgb(0,0,0)" stroke="none" d="M 4797,11154 L 4897,11254 4997,11154 4897,11054 4797,11154 Z"/>
 <path fill="none" stroke="rgb(0,0,0)" stroke-linejoin="round" d="M 4797,11154 L 4897,11254 4997,11154 4897,11054 4797,11154 Z"/>
 <path fill="rgb(0,0,0)" stroke="none" d="M 4934,11141 L 5034,11241 5134,11141 5034,11041 4934,11141 Z"/>
 <path fill="none" stroke="rgb(0,0,0)" stroke-linejoin="round" d="M 4934,11141 L 5034,11241 5134,11141 5034,11041 4934,11141 Z"/>
 <path fill="rgb(0,0,0)" stroke="none" d="M 5071,11126 L 5171,11226 5271,11126 5171,11026 5071,11126 Z"/>
 <path fill="none" stroke="rgb(0,0,0)" stroke-linejoin="round" d="M 5071,11126 L 5171,11226 5271,11126 5171,11026 5071,11126 Z"/>
 <path fill="rgb(0,0,0)" stroke="none" d="M 5208,11103 L 5308,11203 5408,11103 5308,11003 5208,11103 Z"/>
 <path fill="none" stroke="rgb(0,0,0)" stroke-linejoin="round" d="M 5208,11103 L 5308,11203 5408,11103 5308,11003 5208,11103 Z"/>
 <path fill="rgb(0,0,0)" stroke="none" d="M 5345,11079 L 5445,11179 5545,11079 5445,10979 5345,11079 Z"/>
 <path fill="none" stroke="rgb(0,0,0)" stroke-linejoin="round" d="M 5345,11079 L 5445,11179 5545,11079 5445,10979 5345,11079 Z"/>
 <path fill="rgb(0,0,0)" stroke="none" d="M 5481,11048 L 5581,11148 5681,11048 5581,10948 5481,11048 Z"/>
 <path fill="none" stroke="rgb(0,0,0)" stroke-linejoin="round" d="M 5481,11048 L 5581,11148 5681,11048 5581,10948 5481,11048 Z"/>
 <path fill="rgb(0,0,0)" stroke="none" d="M 5618,11011 L 5718,11111 5818,11011 5718,10911 5618,11011 Z"/>
 <path fill="none" stroke="rgb(0,0,0)" stroke-linejoin="round" d="M 5618,11011 L 5718,11111 5818,11011 5718,10911 5618,11011 Z"/>
 <path fill="rgb(0,0,0)" stroke="none" d="M 5755,10932 L 5855,11032 5955,10932 5855,10832 5755,10932 Z"/>
 <path fill="none" stroke="rgb(0,0,0)" stroke-linejoin="round" d="M 5755,10932 L 5855,11032 5955,10932 5855,10832 5755,10932 Z"/>
 <path fill="rgb(0,0,0)" stroke="none" d="M 5892,10879 L 5992,10979 6092,10879 5992,10779 5892,10879 Z"/>
 <path fill="none" stroke="rgb(0,0,0)" stroke-linejoin="round" d="M 5892,10879 L 5992,10979 6092,10879 5992,10779 5892,10879 Z"/>
 <path fill="rgb(0,0,0)" stroke="none" d="M 6029,10820 L 6129,10920 6229,10820 6129,10720 6029,10820 Z"/>
 <path fill="none" stroke="rgb(0,0,0)" stroke-linejoin="round" d="M 6029,10820 L 6129,10920 6229,10820 6129,10720 6029,10820 Z"/>
 <path fill="rgb(0,0,0)" stroke="none" d="M 6166,10763 L 6266,10863 6366,10763 6266,10663 6166,10763 Z"/>
 <path fill="none" stroke="rgb(0,0,0)" stroke-linejoin="round" d="M 6166,10763 L 6266,10863 6366,10763 6266,10663 6166,10763 Z"/>
 <path fill="rgb(0,0,0)" stroke="none" d="M 6303,10673 L 6403,10773 6503,10673 6403,10573 6303,10673 Z"/>
 <path fill="none" stroke="rgb(0,0,0)" stroke-linejoin="round" d="M 6303,10673 L 6403,10773 6503,10673 6403,10573 6303,10673 Z"/>
 <path fill="rgb(0,0,0)" stroke="none" d="M 6440,10571 L 6540,10671 6640,10571 6540,10471 6440,10571 Z"/>
 <path fill="none" stroke="rgb(0,0,0)" stroke-linejoin="round" d="M 6440,10571 L 6540,10671 6640,10571 6540,10471 6440,10571 Z"/>
 <path fill="rgb(0,0,0)" stroke="none" d="M 6577,10479 L 6677,10579 6777,10479 6677,10379 6577,10479 Z"/>
 <path fill="none" stroke="rgb(0,0,0)" stroke-linejoin="round" d="M 6577,10479 L 6677,10579 6777,10479 6677,10379 6577,10479 Z"/>
 <path fill="rgb(0,0,0)" stroke="none" d="M 6714,10383 L 6814,10483 6914,10383 6814,10283 6714,10383 Z"/>
 <path fill="none" stroke="rgb(0,0,0)" stroke-linejoin="round" d="M 6714,10383 L 6814,10483 6914,10383 6814,10283 6714,10383 Z"/>
 <path fill="rgb(0,0,0)" stroke="none" d="M 6851,10309 L 6951,10409 7051,10309 6951,10209 6851,10309 Z"/>
 <path fill="none" stroke="rgb(0,0,0)" stroke-linejoin="round" d="M 6851,10309 L 6951,10409 7051,10309 6951,10209 6851,10309 Z"/>
 <path fill="rgb(0,0,0)" stroke="none" d="M 6988,10220 L 7088,10320 7188,10220 7088,10120 6988,10220 Z"/>
 <path fill="none" stroke="rgb(0,0,0)" stroke-linejoin="round" d="M 6988,10220 L 7088,10320 7188,10220 7088,10120 6988,10220 Z"/>
 <path fill="rgb(0,0,0)" stroke="none" d="M 7124,10151 L 7224,10251 7324,10151 7224,10051 7124,10151 Z"/>
 <path fill="none" stroke="rgb(0,0,0)" stroke-linejoin="round" d="M 7124,10151 L 7224,10251 7324,10151 7224,10051 7124,10151 Z"/>
 <path fill="rgb(0,0,0)" stroke="none" d="M 7261,10070 L 7361,10170 7461,10070 7361,9970 7261,10070 Z"/>
 <path fill="none" stroke="rgb(0,0,0)" stroke-linejoin="round" d="M 7261,10070 L 7361,10170 7461,10070 7361,9970 7261,10070 Z"/>
 <path fill="rgb(0,0,0)" stroke="none" d="M 7398,9996 L 7498,10096 7597,9996 7498,9896 7398,9996 Z"/>
 <path fill="none" stroke="rgb(0,0,0)" stroke-linejoin="round" d="M 7398,9996 L 7498,10096 7597,9996 7498,9896 7398,9996 Z"/>
 <path fill="rgb(0,0,0)" stroke="none" d="M 7534,9910 L 7634,10010 7734,9910 7634,9810 7534,9910 Z"/>
 <path fill="none" stroke="rgb(0,0,0)" stroke-linejoin="round" d="M 7534,9910 L 7634,10010 7734,9910 7634,9810 7534,9910 Z"/>
 <path fill="rgb(0,0,0)" stroke="none" d="M 7671,9860 L 7771,9960 7871,9860 7771,9760 7671,9860 Z"/>
 <path fill="none" stroke="rgb(0,0,0)" stroke-linejoin="round" d="M 7671,9860 L 7771,9960 7871,9860 7771,9760 7671,9860 Z"/>
 <path fill="rgb(0,0,0)" stroke="none" d="M 7808,9773 L 7908,9873 8008,9773 7908,9673 7808,9773 Z"/>
 <path fill="none" stroke="rgb(0,0,0)" stroke-linejoin="round" d="M 7808,9773 L 7908,9873 8008,9773 7908,9673 7808,9773 Z"/>
 <path fill="rgb(0,0,0)" stroke="none" d="M 7945,9698 L 8045,9798 8145,9698 8045,9598 7945,9698 Z"/>
 <path fill="none" stroke="rgb(0,0,0)" stroke-linejoin="round" d="M 7945,9698 L 8045,9798 8145,9698 8045,9598 7945,9698 Z"/>
 <path fill="rgb(0,0,0)" stroke="none" d="M 8082,9577 L 8182,9677 8282,9577 8182,9477 8082,9577 Z"/>
 <path fill="none" stroke="rgb(0,0,0)" stroke-linejoin="round" d="M 8082,9577 L 8182,9677 8282,9577 8182,9477 8082,9577 Z"/>
 <path fill="rgb(0,0,0)" stroke="none" d="M 8219,9519 L 8319,9619 8419,9519 8319,9419 8219,9519 Z"/>
 <path fill="none" stroke="rgb(0,0,0)" stroke-linejoin="round" d="M 8219,9519 L 8319,9619 8419,9519 8319,9419 8219,9519 Z"/>
 <path fill="rgb(0,0,0)" stroke="none" d="M 8356,9452 L 8456,9552 8556,9452 8456,9352 8356,9452 Z"/>
 <path fill="none" stroke="rgb(0,0,0)" stroke-linejoin="round" d="M 8356,9452 L 8456,9552 8556,9452 8456,9352 8356,9452 Z"/>
 <path fill="rgb(0,0,0)" stroke="none" d="M 8493,9359 L 8593,9459 8693,9359 8593,9259 8493,9359 Z"/>
 <path fill="none" stroke="rgb(0,0,0)" stroke-linejoin="round" d="M 8493,9359 L 8593,9459 8693,9359 8593,9259 8493,9359 Z"/>
 <path fill="rgb(0,0,0)" stroke="none" d="M 8630,9261 L 8730,9361 8830,9261 8730,9161 8630,9261 Z"/>
 <path fill="none" stroke="rgb(0,0,0)" stroke-linejoin="round" d="M 8630,9261 L 8730,9361 8830,9261 8730,9161 8630,9261 Z"/>
 <path fill="rgb(0,0,0)" stroke="none" d="M 8766,9216 L 8866,9316 8966,9216 8866,9116 8766,9216 Z"/>
 <path fill="none" stroke="rgb(0,0,0)" stroke-linejoin="round" d="M 8766,9216 L 8866,9316 8966,9216 8866,9116 8766,9216 Z"/>
 <path fill="rgb(0,0,0)" stroke="none" d="M 8903,9170 L 9003,9270 9103,9170 9003,9070 8903,9170 Z"/>
 <path fill="none" stroke="rgb(0,0,0)" stroke-linejoin="round" d="M 8903,9170 L 9003,9270 9103,9170 9003,9070 8903,9170 Z"/>
 <path fill="rgb(0,0,0)" stroke="none" d="M 9040,9107 L 9140,9207 9240,9107 9140,9007 9040,9107 Z"/>
 <path fill="none" stroke="rgb(0,0,0)" stroke-linejoin="round" d="M 9040,9107 L 9140,9207 9240,9107 9140,9007 9040,9107 Z"/>
 <path fill="rgb(0,0,0)" stroke="none" d="M 9177,9039 L 9277,9139 9377,9039 9277,8939 9177,9039 Z"/>
 <path fill="none" stroke="rgb(0,0,0)" stroke-linejoin="round" d="M 9177,9039 L 9277,9139 9377,9039 9277,8939 9177,9039 Z"/>
 <path fill="rgb(0,0,0)" stroke="none" d="M 9314,8984 L 9414,9084 9514,8984 9414,8884 9314,8984 Z"/>
 <path fill="none" stroke="rgb(0,0,0)" stroke-linejoin="round" d="M 9314,8984 L 9414,9084 9514,8984 9414,8884 9314,8984 Z"/>
 <path fill="rgb(0,0,0)" stroke="none" d="M 9451,8919 L 9551,9019 9651,8919 9551,8819 9451,8919 Z"/>
 <path fill="none" stroke="rgb(0,0,0)" stroke-linejoin="round" d="M 9451,8919 L 9551,9019 9651,8919 9551,8819 9451,8919 Z"/>
 <path fill="rgb(0,0,0)" stroke="none" d="M 9588,8859 L 9688,8959 9788,8859 9688,8759 9588,8859 Z"/>
 <path fill="none" stroke="rgb(0,0,0)" stroke-linejoin="round" d="M 9588,8859 L 9688,8959 9788,8859 9688,8759 9588,8859 Z"/>
 <path fill="rgb(0,0,0)" stroke="none" d="M 9725,8786 L 9825,8886 9925,8786 9825,8686 9725,8786 Z"/>
 <path fill="none" stroke="rgb(0,0,0)" stroke-linejoin="round" d="M 9725,8786 L 9825,8886 9925,8786 9825,8686 9725,8786 Z"/>
 <path fill="rgb(0,0,0)" stroke="none" d="M 9862,8733 L 9962,8833 10062,8733 9962,8633 9862,8733 Z"/>
 <path fill="none" stroke="rgb(0,0,0)" stroke-linejoin="round" d="M 9862,8733 L 9962,8833 10062,8733 9962,8633 9862,8733 Z"/>
 <path fill="rgb(0,0,0)" stroke="none" d="M 9999,8658 L 10099,8758 10199,8658 10099,8558 9999,8658 Z"/>
 <path fill="none" stroke="rgb(0,0,0)" stroke-linejoin="round" d="M 9999,8658 L 10099,8758 10199,8658 10099,8558 9999,8658 Z"/>
 <path fill="rgb(0,0,0)" stroke="none" d="M 10136,8617 L 10236,8717 10336,8617 10236,8517 10136,8617 Z"/>
 <path fill="none" stroke="rgb(0,0,0)" stroke-linejoin="round" d="M 10136,8617 L 10236,8717 10336,8617 10236,8517 10136,8617 Z"/>
 <path fill="rgb(0,0,0)" stroke="none" d="M 10273,8574 L 10373,8674 10473,8574 10373,8474 10273,8574 Z"/>
 <path fill="none" stroke="rgb(0,0,0)" stroke-linejoin="round" d="M 10273,8574 L 10373,8674 10473,8574 10373,8474 10273,8574 Z"/>
 <path fill="rgb(0,0,0)" stroke="none" d="M 10409,8535 L 10509,8635 10609,8535 10509,8435 10409,8535 Z"/>
 <path fill="none" stroke="rgb(0,0,0)" stroke-linejoin="round" d="M 10409,8535 L 10509,8635 10609,8535 10509,8435 10409,8535 Z"/>
 <path fill="rgb(0,0,0)" stroke="none" d="M 10546,8501 L 10646,8601 10746,8501 10646,8401 10546,8501 Z"/>
 <path fill="none" stroke="rgb(0,0,0)" stroke-linejoin="round" d="M 10546,8501 L 10646,8601 10746,8501 10646,8401 10546,8501 Z"/>
 <path fill="rgb(0,0,0)" stroke="none" d="M 10683,8456 L 10783,8556 10883,8456 10783,8356 10683,8456 Z"/>
 <path fill="none" stroke="rgb(0,0,0)" stroke-linejoin="round" d="M 10683,8456 L 10783,8556 10883,8456 10783,8356 10683,8456 Z"/>
 <path fill="rgb(0,0,0)" stroke="none" d="M 10820,8426 L 10920,8526 11020,8426 10920,8326 10820,8426 Z"/>
 <path fill="none" stroke="rgb(0,0,0)" stroke-linejoin="round" d="M 10820,8426 L 10920,8526 11020,8426 10920,8326 10820,8426 Z"/>
 <path fill="rgb(0,0,0)" stroke="none" d="M 10957,8387 L 11057,8487 11157,8387 11057,8287 10957,8387 Z"/>
 <path fill="none" stroke="rgb(0,0,0)" stroke-linejoin="round" d="M 10957,8387 L 11057,8487 11157,8387 11057,8287 10957,8387 Z"/>
 <path fill="rgb(0,0,0)" stroke="none" d="M 11094,8347 L 11194,8447 11294,8347 11194,8247 11094,8347 Z"/>
 <path fill="none" stroke="rgb(0,0,0)" stroke-linejoin="round" d="M 11094,8347 L 11194,8447 11294,8347 11194,8247 11094,8347 Z"/>
 <path fill="rgb(0,0,0)" stroke="none" d="M 11231,8312 L 11331,8412 11431,8312 11331,8212 11231,8312 Z"/>
 <path fill="none" stroke="rgb(0,0,0)" stroke-linejoin="round" d="M 11231,8312 L 11331,8412 11431,8312 11331,8212 11231,8312 Z"/>
 <path fill="rgb(0,0,0)" stroke="none" d="M 11368,8285 L 11468,8385 11568,8285 11468,8185 11368,8285 Z"/>
 <path fill="none" stroke="rgb(0,0,0)" stroke-linejoin="round" d="M 11368,8285 L 11468,8385 11568,8285 11468,8185 11368,8285 Z"/>
 <path fill="rgb(0,0,0)" stroke="none" d="M 11505,8256 L 11605,8356 11705,8256 11605,8156 11505,8256 Z"/>
 <path fill="none" stroke="rgb(0,0,0)" stroke-linejoin="round" d="M 11505,8256 L 11605,8356 11705,8256 11605,8156 11505,8256 Z"/>
 <path fill="rgb(0,0,0)" stroke="none" d="M 11642,8221 L 11742,8321 11842,8221 11742,8121 11642,8221 Z"/>
 <path fill="none" stroke="rgb(0,0,0)" stroke-linejoin="round" d="M 11642,8221 L 11742,8321 11842,8221 11742,8121 11642,8221 Z"/>
 <path fill="rgb(0,0,0)" stroke="none" d="M 11779,8187 L 11879,8287 11979,8187 11879,8087 11779,8187 Z"/>
 <path fill="none" stroke="rgb(0,0,0)" stroke-linejoin="round" d="M 11779,8187 L 11879,8287 11979,8187 11879,8087 11779,8187 Z"/>
 <path fill="rgb(0,0,0)" stroke="none" d="M 11916,8147 L 12016,8247 12116,8147 12016,8047 11916,8147 Z"/>
 <path fill="none" stroke="rgb(0,0,0)" stroke-linejoin="round" d="M 11916,8147 L 12016,8247 12116,8147 12016,8047 11916,8147 Z"/>
 <path fill="rgb(0,0,0)" stroke="none" d="M 12053,8119 L 12153,8219 12253,8119 12153,8019 12053,8119 Z"/>
 <path fill="none" stroke="rgb(0,0,0)" stroke-linejoin="round" d="M 12053,8119 L 12153,8219 12253,8119 12153,8019 12053,8119 Z"/>
 <path fill="rgb(0,0,0)" stroke="none" d="M 12189,8096 L 12289,8196 12389,8096 12289,7996 12189,8096 Z"/>
 <path fill="none" stroke="rgb(0,0,0)" stroke-linejoin="round" d="M 12189,8096 L 12289,8196 12389,8096 12289,7996 12189,8096 Z"/>
 <path fill="rgb(0,0,0)" stroke="none" d="M 12326,8066 L 12426,8166 12526,8066 12426,7966 12326,8066 Z"/>
 <path fill="none" stroke="rgb(0,0,0)" stroke-linejoin="round" d="M 12326,8066 L 12426,8166 12526,8066 12426,7966 12326,8066 Z"/>
 <path fill="rgb(0,0,0)" stroke="none" d="M 12463,8038 L 12563,8138 12663,8038 12563,7938 12463,8038 Z"/>
 <path fill="none" stroke="rgb(0,0,0)" stroke-linejoin="round" d="M 12463,8038 L 12563,8138 12663,8038 12563,7938 12463,8038 Z"/>
 <path fill="rgb(0,0,0)" stroke="none" d="M 12600,8011 L 12700,8111 12800,8011 12700,7911 12600,8011 Z"/>
 <path fill="none" stroke="rgb(0,0,0)" stroke-linejoin="round" d="M 12600,8011 L 12700,8111 12800,8011 12700,7911 12600,8011 Z"/>
 <path fill="rgb(0,0,0)" stroke="none" d="M 12737,7992 L 12837,8092 12937,7992 12837,7892 12737,7992 Z"/>
 <path fill="none" stroke="rgb(0,0,0)" stroke-linejoin="round" d="M 12737,7992 L 12837,8092 12937,7992 12837,7892 12737,7992 Z"/>
 <path fill="rgb(0,0,0)" stroke="none" d="M 12874,7972 L 12974,8072 13074,7972 12974,7872 12874,7972 Z"/>
 <path fill="none" stroke="rgb(0,0,0)" stroke-linejoin="round" d="M 12874,7972 L 12974,8072 13074,7972 12974,7872 12874,7972 Z"/>
 <path fill="rgb(0,0,0)" stroke="none" d="M 13011,7958 L 13111,8058 13211,7958 13111,7858 13011,7958 Z"/>
 <path fill="none" stroke="rgb(0,0,0)" stroke-linejoin="round" d="M 13011,7958 L 13111,8058 13211,7958 13111,7858 13011,7958 Z"/>
 <path fill="rgb(0,0,0)" stroke="none" d="M 13148,7947 L 13248,8047 13348,7947 13248,7847 13148,7947 Z"/>
 <path fill="none" stroke="rgb(0,0,0)" stroke-linejoin="round" d="M 13148,7947 L 13248,8047 13348,7947 13248,7847 13148,7947 Z"/>
 <path fill="rgb(0,0,0)" stroke="none" d="M 13285,7941 L 13385,8041 13485,7941 13385,7841 13285,7941 Z"/>
 <path fill="none" stroke="rgb(0,0,0)" stroke-linejoin="round" d="M 13285,7941 L 13385,8041 13485,7941 13385,7841 13285,7941 Z"/>
 <path fill="rgb(0,0,0)" stroke="none" d="M 13422,7939 L 13522,8039 13622,7939 13522,7839 13422,7939 Z"/>
 <path fill="none" stroke="rgb(0,0,0)" stroke-linejoin="round" d="M 13422,7939 L 13522,8039 13622,7939 13522,7839 13422,7939 Z"/>
 <path fill="rgb(0,0,0)" stroke="none" d="M 13559,7924 L 13659,8024 13759,7924 13659,7824 13559,7924 Z"/>
 <path fill="none" stroke="rgb(0,0,0)" stroke-linejoin="round" d="M 13559,7924 L 13659,8024 13759,7924 13659,7824 13559,7924 Z"/>
 <path fill="rgb(0,0,0)" stroke="none" d="M 13696,7918 L 13796,8018 13896,7918 13796,7818 13696,7918 Z"/>
 <path fill="none" stroke="rgb(0,0,0)" stroke-linejoin="round" d="M 13696,7918 L 13796,8018 13896,7918 13796,7818 13696,7918 Z"/>
 <path fill="rgb(0,0,0)" stroke="none" d="M 13832,7907 L 13932,8007 14032,7907 13932,7807 13832,7907 Z"/>
 <path fill="none" stroke="rgb(0,0,0)" stroke-linejoin="round" d="M 13832,7907 L 13932,8007 14032,7907 13932,7807 13832,7907 Z"/>
 <path fill="rgb(0,0,0)" stroke="none" d="M 13969,7901 L 14069,8001 14169,7901 14069,7801 13969,7901 Z"/>
 <path fill="none" stroke="rgb(0,0,0)" stroke-linejoin="round" d="M 13969,7901 L 14069,8001 14169,7901 14069,7801 13969,7901 Z"/>
 <path fill="rgb(0,0,0)" stroke="none" d="M 14106,7894 L 14206,7994 14306,7894 14206,7794 14106,7894 Z"/>
 <path fill="none" stroke="rgb(0,0,0)" stroke-linejoin="round" d="M 14106,7894 L 14206,7994 14306,7894 14206,7794 14106,7894 Z"/>
 <path fill="rgb(0,0,0)" stroke="none" d="M 14243,8064 L 14343,8164 14443,8064 14343,7964 14243,8064 Z"/>
 <path fill="none" stroke="rgb(0,0,0)" stroke-linejoin="round" d="M 14243,8064 L 14343,8164 14443,8064 14343,7964 14243,8064 Z"/>
 <path fill="rgb(0,0,0)" stroke="none" d="M 14380,7889 L 14480,7989 14580,7889 14480,7789 14380,7889 Z"/>
 <path fill="none" stroke="rgb(0,0,0)" stroke-linejoin="round" d="M 14380,7889 L 14480,7989 14580,7889 14480,7789 14380,7889 Z"/>
 <path fill="rgb(0,0,0)" stroke="none" d="M 14517,7889 L 14617,7989 14717,7889 14617,7789 14517,7889 Z"/>
 <path fill="none" stroke="rgb(0,0,0)" stroke-linejoin="round" d="M 14517,7889 L 14617,7989 14717,7889 14617,7789 14517,7889 Z"/>
 <path fill="none" stroke="rgb(255,66,14)" stroke-width="50" stroke-linejoin="round" d="M 4349,11171 L 4486,11169 4623,11166 4760,11162 4897,11159 5034,11148 5171,11140 5308,11125 5445,11111 5581,11090 5718,11059 5855,11034 5992,10989 6129,10943 6266,10892 6403,10815 6540,10749 6677,10680 6814,10597 6951,10520 7088,10458 7224,10366 7361,10296 7498,10228 7634,10148 7771,10078 7908,10026 8045,9966 8182,9914 8319,9857 8456,9811 8593,9764 8730,9724 8866,9682 9003,9643 9140,9610 9277,9579 9414,9547 9551,9508 9688,9477 9825,9440 9962,9408 10099,9375 10236,9345 10373,9315 10509,9288 10646,9266 10783,9237 10920,9219 11057,9199 11194,9179 11331,9165 11468,9145 11605,9130 11742,9113 11879,9094 12016,9081 12153,9071 12289,9057 12426,9048 12563,9038 12700,9033 12837,9026 12974,9020 13111,9009 13248,9003 13385,8995 13522,8987 13659,8987 13796,8987 13932,8986 14069,8986 14206,8986 14343,9039 14480,9029 14617,9029"/>
 <path fill="rgb(255,66,14)" stroke="none" d="M 4249,11171 L 4349,11271 4449,11171 4349,11071 4249,11171 Z"/>
 <path fill="none" stroke="rgb(255,66,14)" stroke-linejoin="round" d="M 4249,11171 L 4349,11271 4449,11171 4349,11071 4249,11171 Z"/>
 <path fill="rgb(255,66,14)" stroke="none" d="M 4386,11169 L 4486,11269 4586,11169 4486,11069 4386,11169 Z"/>
 <path fill="none" stroke="rgb(255,66,14)" stroke-linejoin="round" d="M 4386,11169 L 4486,11269 4586,11169 4486,11069 4386,11169 Z"/>
 <path fill="rgb(255,66,14)" stroke="none" d="M 4523,11166 L 4623,11266 4723,11166 4623,11066 4523,11166 Z"/>
 <path fill="none" stroke="rgb(255,66,14)" stroke-linejoin="round" d="M 4523,11166 L 4623,11266 4723,11166 4623,11066 4523,11166 Z"/>
 <path fill="rgb(255,66,14)" stroke="none" d="M 4660,11162 L 4760,11262 4860,11162 4760,11062 4660,11162 Z"/>
 <path fill="none" stroke="rgb(255,66,14)" stroke-linejoin="round" d="M 4660,11162 L 4760,11262 4860,11162 4760,11062 4660,11162 Z"/>
 <path fill="rgb(255,66,14)" stroke="none" d="M 4797,11159 L 4897,11259 4997,11159 4897,11059 4797,11159 Z"/>
 <path fill="none" stroke="rgb(255,66,14)" stroke-linejoin="round" d="M 4797,11159 L 4897,11259 4997,11159 4897,11059 4797,11159 Z"/>
 <path fill="rgb(255,66,14)" stroke="none" d="M 4934,11148 L 5034,11248 5134,11148 5034,11048 4934,11148 Z"/>
 <path fill="none" stroke="rgb(255,66,14)" stroke-linejoin="round" d="M 4934,11148 L 5034,11248 5134,11148 5034,11048 4934,11148 Z"/>
 <path fill="rgb(255,66,14)" stroke="none" d="M 5071,11140 L 5171,11240 5271,11140 5171,11040 5071,11140 Z"/>
 <path fill="none" stroke="rgb(255,66,14)" stroke-linejoin="round" d="M 5071,11140 L 5171,11240 5271,11140 5171,11040 5071,11140 Z"/>
 <path fill="rgb(255,66,14)" stroke="none" d="M 5208,11125 L 5308,11225 5408,11125 5308,11025 5208,11125 Z"/>
 <path fill="none" stroke="rgb(255,66,14)" stroke-linejoin="round" d="M 5208,11125 L 5308,11225 5408,11125 5308,11025 5208,11125 Z"/>
 <path fill="rgb(255,66,14)" stroke="none" d="M 5345,11111 L 5445,11211 5545,11111 5445,11011 5345,11111 Z"/>
 <path fill="none" stroke="rgb(255,66,14)" stroke-linejoin="round" d="M 5345,11111 L 5445,11211 5545,11111 5445,11011 5345,11111 Z"/>
 <path fill="rgb(255,66,14)" stroke="none" d="M 5481,11090 L 5581,11190 5681,11090 5581,10990 5481,11090 Z"/>
 <path fill="none" stroke="rgb(255,66,14)" stroke-linejoin="round" d="M 5481,11090 L 5581,11190 5681,11090 5581,10990 5481,11090 Z"/>
 <path fill="rgb(255,66,14)" stroke="none" d="M 5618,11059 L 5718,11159 5818,11059 5718,10959 5618,11059 Z"/>
 <path fill="none" stroke="rgb(255,66,14)" stroke-linejoin="round" d="M 5618,11059 L 5718,11159 5818,11059 5718,10959 5618,11059 Z"/>
 <path fill="rgb(255,66,14)" stroke="none" d="M 5755,11034 L 5855,11134 5955,11034 5855,10934 5755,11034 Z"/>
 <path fill="none" stroke="rgb(255,66,14)" stroke-linejoin="round" d="M 5755,11034 L 5855,11134 5955,11034 5855,10934 5755,11034 Z"/>
 <path fill="rgb(255,66,14)" stroke="none" d="M 5892,10989 L 5992,11089 6092,10989 5992,10889 5892,10989 Z"/>
 <path fill="none" stroke="rgb(255,66,14)" stroke-linejoin="round" d="M 5892,10989 L 5992,11089 6092,10989 5992,10889 5892,10989 Z"/>
 <path fill="rgb(255,66,14)" stroke="none" d="M 6029,10943 L 6129,11043 6229,10943 6129,10843 6029,10943 Z"/>
 <path fill="none" stroke="rgb(255,66,14)" stroke-linejoin="round" d="M 6029,10943 L 6129,11043 6229,10943 6129,10843 6029,10943 Z"/>
 <path fill="rgb(255,66,14)" stroke="none" d="M 6166,10892 L 6266,10992 6366,10892 6266,10792 6166,10892 Z"/>
 <path fill="none" stroke="rgb(255,66,14)" stroke-linejoin="round" d="M 6166,10892 L 6266,10992 6366,10892 6266,10792 6166,10892 Z"/>
 <path fill="rgb(255,66,14)" stroke="none" d="M 6303,10815 L 6403,10915 6503,10815 6403,10715 6303,10815 Z"/>
 <path fill="none" stroke="rgb(255,66,14)" stroke-linejoin="round" d="M 6303,10815 L 6403,10915 6503,10815 6403,10715 6303,10815 Z"/>
 <path fill="rgb(255,66,14)" stroke="none" d="M 6440,10749 L 6540,10849 6640,10749 6540,10649 6440,10749 Z"/>
 <path fill="none" stroke="rgb(255,66,14)" stroke-linejoin="round" d="M 6440,10749 L 6540,10849 6640,10749 6540,10649 6440,10749 Z"/>
 <path fill="rgb(255,66,14)" stroke="none" d="M 6577,10680 L 6677,10780 6777,10680 6677,10580 6577,10680 Z"/>
 <path fill="none" stroke="rgb(255,66,14)" stroke-linejoin="round" d="M 6577,10680 L 6677,10780 6777,10680 6677,10580 6577,10680 Z"/>
 <path fill="rgb(255,66,14)" stroke="none" d="M 6714,10597 L 6814,10697 6914,10597 6814,10497 6714,10597 Z"/>
 <path fill="none" stroke="rgb(255,66,14)" stroke-linejoin="round" d="M 6714,10597 L 6814,10697 6914,10597 6814,10497 6714,10597 Z"/>
 <path fill="rgb(255,66,14)" stroke="none" d="M 6851,10520 L 6951,10620 7051,10520 6951,10420 6851,10520 Z"/>
 <path fill="none" stroke="rgb(255,66,14)" stroke-linejoin="round" d="M 6851,10520 L 6951,10620 7051,10520 6951,10420 6851,10520 Z"/>
 <path fill="rgb(255,66,14)" stroke="none" d="M 6988,10458 L 7088,10558 7188,10458 7088,10358 6988,10458 Z"/>
 <path fill="none" stroke="rgb(255,66,14)" stroke-linejoin="round" d="M 6988,10458 L 7088,10558 7188,10458 7088,10358 6988,10458 Z"/>
 <path fill="rgb(255,66,14)" stroke="none" d="M 7124,10366 L 7224,10466 7324,10366 7224,10266 7124,10366 Z"/>
 <path fill="none" stroke="rgb(255,66,14)" stroke-linejoin="round" d="M 7124,10366 L 7224,10466 7324,10366 7224,10266 7124,10366 Z"/>
 <path fill="rgb(255,66,14)" stroke="none" d="M 7261,10296 L 7361,10396 7461,10296 7361,10196 7261,10296 Z"/>
 <path fill="none" stroke="rgb(255,66,14)" stroke-linejoin="round" d="M 7261,10296 L 7361,10396 7461,10296 7361,10196 7261,10296 Z"/>
 <path fill="rgb(255,66,14)" stroke="none" d="M 7398,10228 L 7498,10328 7597,10228 7498,10128 7398,10228 Z"/>
 <path fill="none" stroke="rgb(255,66,14)" stroke-linejoin="round" d="M 7398,10228 L 7498,10328 7597,10228 7498,10128 7398,10228 Z"/>
 <path fill="rgb(255,66,14)" stroke="none" d="M 7534,10148 L 7634,10248 7734,10148 7634,10048 7534,10148 Z"/>
 <path fill="none" stroke="rgb(255,66,14)" stroke-linejoin="round" d="M 7534,10148 L 7634,10248 7734,10148 7634,10048 7534,10148 Z"/>
 <path fill="rgb(255,66,14)" stroke="none" d="M 7671,10078 L 7771,10178 7871,10078 7771,9978 7671,10078 Z"/>
 <path fill="none" stroke="rgb(255,66,14)" stroke-linejoin="round" d="M 7671,10078 L 7771,10178 7871,10078 7771,9978 7671,10078 Z"/>
 <path fill="rgb(255,66,14)" stroke="none" d="M 7808,10026 L 7908,10126 8008,10026 7908,9926 7808,10026 Z"/>
 <path fill="none" stroke="rgb(255,66,14)" stroke-linejoin="round" d="M 7808,10026 L 7908,10126 8008,10026 7908,9926 7808,10026 Z"/>
 <path fill="rgb(255,66,14)" stroke="none" d="M 7945,9966 L 8045,10066 8145,9966 8045,9866 7945,9966 Z"/>
 <path fill="none" stroke="rgb(255,66,14)" stroke-linejoin="round" d="M 7945,9966 L 8045,10066 8145,9966 8045,9866 7945,9966 Z"/>
 <path fill="rgb(255,66,14)" stroke="none" d="M 8082,9914 L 8182,10014 8282,9914 8182,9814 8082,9914 Z"/>
 <path fill="none" stroke="rgb(255,66,14)" stroke-linejoin="round" d="M 8082,9914 L 8182,10014 8282,9914 8182,9814 8082,9914 Z"/>
 <path fill="rgb(255,66,14)" stroke="none" d="M 8219,9857 L 8319,9957 8419,9857 8319,9757 8219,9857 Z"/>
 <path fill="none" stroke="rgb(255,66,14)" stroke-linejoin="round" d="M 8219,9857 L 8319,9957 8419,9857 8319,9757 8219,9857 Z"/>
 <path fill="rgb(255,66,14)" stroke="none" d="M 8356,9811 L 8456,9911 8556,9811 8456,9711 8356,9811 Z"/>
 <path fill="none" stroke="rgb(255,66,14)" stroke-linejoin="round" d="M 8356,9811 L 8456,9911 8556,9811 8456,9711 8356,9811 Z"/>
 <path fill="rgb(255,66,14)" stroke="none" d="M 8493,9764 L 8593,9864 8693,9764 8593,9664 8493,9764 Z"/>
 <path fill="none" stroke="rgb(255,66,14)" stroke-linejoin="round" d="M 8493,9764 L 8593,9864 8693,9764 8593,9664 8493,9764 Z"/>
 <path fill="rgb(255,66,14)" stroke="none" d="M 8630,9724 L 8730,9824 8830,9724 8730,9624 8630,9724 Z"/>
 <path fill="none" stroke="rgb(255,66,14)" stroke-linejoin="round" d="M 8630,9724 L 8730,9824 8830,9724 8730,9624 8630,9724 Z"/>
 <path fill="rgb(255,66,14)" stroke="none" d="M 8766,9682 L 8866,9782 8966,9682 8866,9582 8766,9682 Z"/>
 <path fill="none" stroke="rgb(255,66,14)" stroke-linejoin="round" d="M 8766,9682 L 8866,9782 8966,9682 8866,9582 8766,9682 Z"/>
 <path fill="rgb(255,66,14)" stroke="none" d="M 8903,9643 L 9003,9743 9103,9643 9003,9543 8903,9643 Z"/>
 <path fill="none" stroke="rgb(255,66,14)" stroke-linejoin="round" d="M 8903,9643 L 9003,9743 9103,9643 9003,9543 8903,9643 Z"/>
 <path fill="rgb(255,66,14)" stroke="none" d="M 9040,9610 L 9140,9710 9240,9610 9140,9510 9040,9610 Z"/>
 <path fill="none" stroke="rgb(255,66,14)" stroke-linejoin="round" d="M 9040,9610 L 9140,9710 9240,9610 9140,9510 9040,9610 Z"/>
 <path fill="rgb(255,66,14)" stroke="none" d="M 9177,9579 L 9277,9679 9377,9579 9277,9479 9177,9579 Z"/>
 <path fill="none" stroke="rgb(255,66,14)" stroke-linejoin="round" d="M 9177,9579 L 9277,9679 9377,9579 9277,9479 9177,9579 Z"/>
 <path fill="rgb(255,66,14)" stroke="none" d="M 9314,9547 L 9414,9647 9514,9547 9414,9447 9314,9547 Z"/>
 <path fill="none" stroke="rgb(255,66,14)" stroke-linejoin="round" d="M 9314,9547 L 9414,9647 9514,9547 9414,9447 9314,9547 Z"/>
 <path fill="rgb(255,66,14)" stroke="none" d="M 9451,9508 L 9551,9608 9651,9508 9551,9408 9451,9508 Z"/>
 <path fill="none" stroke="rgb(255,66,14)" stroke-linejoin="round" d="M 9451,9508 L 9551,9608 9651,9508 9551,9408 9451,9508 Z"/>
 <path fill="rgb(255,66,14)" stroke="none" d="M 9588,9477 L 9688,9577 9788,9477 9688,9377 9588,9477 Z"/>
 <path fill="none" stroke="rgb(255,66,14)" stroke-linejoin="round" d="M 9588,9477 L 9688,9577 9788,9477 9688,9377 9588,9477 Z"/>
 <path fill="rgb(255,66,14)" stroke="none" d="M 9725,9440 L 9825,9540 9925,9440 9825,9340 9725,9440 Z"/>
 <path fill="none" stroke="rgb(255,66,14)" stroke-linejoin="round" d="M 9725,9440 L 9825,9540 9925,9440 9825,9340 9725,9440 Z"/>
 <path fill="rgb(255,66,14)" stroke="none" d="M 9862,9408 L 9962,9508 10062,9408 9962,9308 9862,9408 Z"/>
 <path fill="none" stroke="rgb(255,66,14)" stroke-linejoin="round" d="M 9862,9408 L 9962,9508 10062,9408 9962,9308 9862,9408 Z"/>
 <path fill="rgb(255,66,14)" stroke="none" d="M 9999,9375 L 10099,9475 10199,9375 10099,9275 9999,9375 Z"/>
 <path fill="none" stroke="rgb(255,66,14)" stroke-linejoin="round" d="M 9999,9375 L 10099,9475 10199,9375 10099,9275 9999,9375 Z"/>
 <path fill="rgb(255,66,14)" stroke="none" d="M 10136,9345 L 10236,9445 10336,9345 10236,9245 10136,9345 Z"/>
 <path fill="none" stroke="rgb(255,66,14)" stroke-linejoin="round" d="M 10136,9345 L 10236,9445 10336,9345 10236,9245 10136,9345 Z"/>
 <path fill="rgb(255,66,14)" stroke="none" d="M 10273,9315 L 10373,9415 10473,9315 10373,9215 10273,9315 Z"/>
 <path fill="none" stroke="rgb(255,66,14)" stroke-linejoin="round" d="M 10273,9315 L 10373,9415 10473,9315 10373,9215 10273,9315 Z"/>
 <path fill="rgb(255,66,14)" stroke="none" d="M 10409,9288 L 10509,9388 10609,9288 10509,9188 10409,9288 Z"/>
 <path fill="none" stroke="rgb(255,66,14)" stroke-linejoin="round" d="M 10409,9288 L 10509,9388 10609,9288 10509,9188 10409,9288 Z"/>
 <path fill="rgb(255,66,14)" stroke="none" d="M 10546,9266 L 10646,9366 10746,9266 10646,9166 10546,9266 Z"/>
 <path fill="none" stroke="rgb(255,66,14)" stroke-linejoin="round" d="M 10546,9266 L 10646,9366 10746,9266 10646,9166 10546,9266 Z"/>
 <path fill="rgb(255,66,14)" stroke="none" d="M 10683,9237 L 10783,9337 10883,9237 10783,9137 10683,9237 Z"/>
 <path fill="none" stroke="rgb(255,66,14)" stroke-linejoin="round" d="M 10683,9237 L 10783,9337 10883,9237 10783,9137 10683,9237 Z"/>
 <path fill="rgb(255,66,14)" stroke="none" d="M 10820,9219 L 10920,9319 11020,9219 10920,9119 10820,9219 Z"/>
 <path fill="none" stroke="rgb(255,66,14)" stroke-linejoin="round" d="M 10820,9219 L 10920,9319 11020,9219 10920,9119 10820,9219 Z"/>
 <path fill="rgb(255,66,14)" stroke="none" d="M 10957,9199 L 11057,9299 11157,9199 11057,9099 10957,9199 Z"/>
 <path fill="none" stroke="rgb(255,66,14)" stroke-linejoin="round" d="M 10957,9199 L 11057,9299 11157,9199 11057,9099 10957,9199 Z"/>
 <path fill="rgb(255,66,14)" stroke="none" d="M 11094,9179 L 11194,9279 11294,9179 11194,9079 11094,9179 Z"/>
 <path fill="none" stroke="rgb(255,66,14)" stroke-linejoin="round" d="M 11094,9179 L 11194,9279 11294,9179 11194,9079 11094,9179 Z"/>
 <path fill="rgb(255,66,14)" stroke="none" d="M 11231,9165 L 11331,9265 11431,9165 11331,9065 11231,9165 Z"/>
 <path fill="none" stroke="rgb(255,66,14)" stroke-linejoin="round" d="M 11231,9165 L 11331,9265 11431,9165 11331,9065 11231,9165 Z"/>
 <path fill="rgb(255,66,14)" stroke="none" d="M 11368,9145 L 11468,9245 11568,9145 11468,9045 11368,9145 Z"/>
 <path fill="none" stroke="rgb(255,66,14)" stroke-linejoin="round" d="M 11368,9145 L 11468,9245 11568,9145 11468,9045 11368,9145 Z"/>
 <path fill="rgb(255,66,14)" stroke="none" d="M 11505,9130 L 11605,9230 11705,9130 11605,9030 11505,9130 Z"/>
 <path fill="none" stroke="rgb(255,66,14)" stroke-linejoin="round" d="M 11505,9130 L 11605,9230 11705,9130 11605,9030 11505,9130 Z"/>
 <path fill="rgb(255,66,14)" stroke="none" d="M 11642,9113 L 11742,9213 11842,9113 11742,9013 11642,9113 Z"/>
 <path fill="none" stroke="rgb(255,66,14)" stroke-linejoin="round" d="M 11642,9113 L 11742,9213 11842,9113 11742,9013 11642,9113 Z"/>
 <path fill="rgb(255,66,14)" stroke="none" d="M 11779,9094 L 11879,9194 11979,9094 11879,8994 11779,9094 Z"/>
 <path fill="none" stroke="rgb(255,66,14)" stroke-linejoin="round" d="M 11779,9094 L 11879,9194 11979,9094 11879,8994 11779,9094 Z"/>
 <path fill="rgb(255,66,14)" stroke="none" d="M 11916,9081 L 12016,9181 12116,9081 12016,8981 11916,9081 Z"/>
 <path fill="none" stroke="rgb(255,66,14)" stroke-linejoin="round" d="M 11916,9081 L 12016,9181 12116,9081 12016,8981 11916,9081 Z"/>
 <path fill="rgb(255,66,14)" stroke="none" d="M 12053,9071 L 12153,9171 12253,9071 12153,8971 12053,9071 Z"/>
 <path fill="none" stroke="rgb(255,66,14)" stroke-linejoin="round" d="M 12053,9071 L 12153,9171 12253,9071 12153,8971 12053,9071 Z"/>
 <path fill="rgb(255,66,14)" stroke="none" d="M 12189,9057 L 12289,9157 12389,9057 12289,8957 12189,9057 Z"/>
 <path fill="none" stroke="rgb(255,66,14)" stroke-linejoin="round" d="M 12189,9057 L 12289,9157 12389,9057 12289,8957 12189,9057 Z"/>
 <path fill="rgb(255,66,14)" stroke="none" d="M 12326,9048 L 12426,9148 12526,9048 12426,8948 12326,9048 Z"/>
 <path fill="none" stroke="rgb(255,66,14)" stroke-linejoin="round" d="M 12326,9048 L 12426,9148 12526,9048 12426,8948 12326,9048 Z"/>
 <path fill="rgb(255,66,14)" stroke="none" d="M 12463,9038 L 12563,9138 12663,9038 12563,8938 12463,9038 Z"/>
 <path fill="none" stroke="rgb(255,66,14)" stroke-linejoin="round" d="M 12463,9038 L 12563,9138 12663,9038 12563,8938 12463,9038 Z"/>
 <path fill="rgb(255,66,14)" stroke="none" d="M 12600,9033 L 12700,9133 12800,9033 12700,8933 12600,9033 Z"/>
 <path fill="none" stroke="rgb(255,66,14)" stroke-linejoin="round" d="M 12600,9033 L 12700,9133 12800,9033 12700,8933 12600,9033 Z"/>
 <path fill="rgb(255,66,14)" stroke="none" d="M 12737,9026 L 12837,9126 12937,9026 12837,8926 12737,9026 Z"/>
 <path fill="none" stroke="rgb(255,66,14)" stroke-linejoin="round" d="M 12737,9026 L 12837,9126 12937,9026 12837,8926 12737,9026 Z"/>
 <path fill="rgb(255,66,14)" stroke="none" d="M 12874,9020 L 12974,9120 13074,9020 12974,8920 12874,9020 Z"/>
 <path fill="none" stroke="rgb(255,66,14)" stroke-linejoin="round" d="M 12874,9020 L 12974,9120 13074,9020 12974,8920 12874,9020 Z"/>
 <path fill="rgb(255,66,14)" stroke="none" d="M 13011,9009 L 13111,9109 13211,9009 13111,8909 13011,9009 Z"/>
 <path fill="none" stroke="rgb(255,66,14)" stroke-linejoin="round" d="M 13011,9009 L 13111,9109 13211,9009 13111,8909 13011,9009 Z"/>
 <path fill="rgb(255,66,14)" stroke="none" d="M 13148,9003 L 13248,9103 13348,9003 13248,8903 13148,9003 Z"/>
 <path fill="none" stroke="rgb(255,66,14)" stroke-linejoin="round" d="M 13148,9003 L 13248,9103 13348,9003 13248,8903 13148,9003 Z"/>
 <path fill="rgb(255,66,14)" stroke="none" d="M 13285,8995 L 13385,9095 13485,8995 13385,8895 13285,8995 Z"/>
 <path fill="none" stroke="rgb(255,66,14)" stroke-linejoin="round" d="M 13285,8995 L 13385,9095 13485,8995 13385,8895 13285,8995 Z"/>
 <path fill="rgb(255,66,14)" stroke="none" d="M 13422,8987 L 13522,9087 13622,8987 13522,8887 13422,8987 Z"/>
 <path fill="none" stroke="rgb(255,66,14)" stroke-linejoin="round" d="M 13422,8987 L 13522,9087 13622,8987 13522,8887 13422,8987 Z"/>
 <path fill="rgb(255,66,14)" stroke="none" d="M 13559,8987 L 13659,9087 13759,8987 13659,8887 13559,8987 Z"/>
 <path fill="none" stroke="rgb(255,66,14)" stroke-linejoin="round" d="M 13559,8987 L 13659,9087 13759,8987 13659,8887 13559,8987 Z"/>
 <path fill="rgb(255,66,14)" stroke="none" d="M 13696,8987 L 13796,9087 13896,8987 13796,8887 13696,8987 Z"/>
 <path fill="none" stroke="rgb(255,66,14)" stroke-linejoin="round" d="M 13696,8987 L 13796,9087 13896,8987 13796,8887 13696,8987 Z"/>
 <path fill="rgb(255,66,14)" stroke="none" d="M 13832,8986 L 13932,9086 14032,8986 13932,8886 13832,8986 Z"/>
 <path fill="none" stroke="rgb(255,66,14)" stroke-linejoin="round" d="M 13832,8986 L 13932,9086 14032,8986 13932,8886 13832,8986 Z"/>
 <path fill="rgb(255,66,14)" stroke="none" d="M 13969,8986 L 14069,9086 14169,8986 14069,8886 13969,8986 Z"/>
 <path fill="none" stroke="rgb(255,66,14)" stroke-linejoin="round" d="M 13969,8986 L 14069,9086 14169,8986 14069,8886 13969,8986 Z"/>
 <path fill="rgb(255,66,14)" stroke="none" d="M 14106,8986 L 14206,9086 14306,8986 14206,8886 14106,8986 Z"/>
 <path fill="none" stroke="rgb(255,66,14)" stroke-linejoin="round" d="M 14106,8986 L 14206,9086 14306,8986 14206,8886 14106,8986 Z"/>
 <path fill="rgb(255,66,14)" stroke="none" d="M 14243,9039 L 14343,9139 14443,9039 14343,8939 14243,9039 Z"/>
 <path fill="none" stroke="rgb(255,66,14)" stroke-linejoin="round" d="M 14243,9039 L 14343,9139 14443,9039 14343,8939 14243,9039 Z"/>
 <path fill="rgb(255,66,14)" stroke="none" d="M 14380,9029 L 14480,9129 14580,9029 14480,8929 14380,9029 Z"/>
 <path fill="none" stroke="rgb(255,66,14)" stroke-linejoin="round" d="M 14380,9029 L 14480,9129 14580,9029 14480,8929 14380,9029 Z"/>
 <path fill="rgb(255,66,14)" stroke="none" d="M 14517,9029 L 14617,9129 14717,9029 14617,8929 14517,9029 Z"/>
 <path fill="none" stroke="rgb(255,66,14)" stroke-linejoin="round" d="M 14517,9029 L 14617,9129 14717,9029 14617,8929 14517,9029 Z"/>
 <path fill="none" stroke="rgb(255,211,32)" stroke-width="50" stroke-linejoin="round" d="M 3528,11171 L 3665,11171 3801,11171 3938,11169 4075,11169 4212,11168 4349,11168 4486,11166 4623,11164 4760,11159 4897,11152 5034,11127 5171,11111 5308,11081 5445,11036 5581,10960 5718,10899 5855,10858 5992,10597 6129,10423 6266,10191 6403,9979 6540,9805 6677,9600 6814,9308 6951,9111 7088,8839 7224,8569 7361,8376 7498,8232 7634,8095 7771,7930 7908,7782 8045,7662 8182,7570 8319,7458 8456,7334 8593,7227 8730,7085 8866,6984 9003,6874 9140,6725 9277,6583 9414,6523 9551,6438 9688,6279 9825,6173 9962,6066 10099,6010 10236,5894 10373,5818 10509,5670 10646,5548 10783,5440 10920,5362 11057,5266 11194,5181 11331,5128 11468,5089 11605,5033 11742,4949 11879,4895 12016,4809 12153,4769 12289,4741 12426,4715 12563,4642 12700,4562 12837,4416 12974,4350 13111,4314 13248,4281 13385,4268 13522,4240 13659,4195 13796,4195 13932,3752 14069,3744 14206,3702 14343,4957 14480,4948 14617,4948"/>
 <path fill="rgb(255,211,32)" stroke="none" d="M 3428,11071 L 3528,11271 3628,11071 3428,11071 Z"/>
 <path fill="none" stroke="rgb(255,211,32)" stroke-linejoin="round" d="M 3428,11071 L 3528,11271 3628,11071 3428,11071 Z"/>
 <path fill="rgb(255,211,32)" stroke="none" d="M 3565,11071 L 3665,11271 3765,11071 3565,11071 Z"/>
 <path fill="none" stroke="rgb(255,211,32)" stroke-linejoin="round" d="M 3565,11071 L 3665,11271 3765,11071 3565,11071 Z"/>
 <path fill="rgb(255,211,32)" stroke="none" d="M 3701,11071 L 3801,11271 3901,11071 3701,11071 Z"/>
 <path fill="none" stroke="rgb(255,211,32)" stroke-linejoin="round" d="M 3701,11071 L 3801,11271 3901,11071 3701,11071 Z"/>
 <path fill="rgb(255,211,32)" stroke="none" d="M 3838,11069 L 3938,11269 4038,11069 3838,11069 Z"/>
 <path fill="none" stroke="rgb(255,211,32)" stroke-linejoin="round" d="M 3838,11069 L 3938,11269 4038,11069 3838,11069 Z"/>
 <path fill="rgb(255,211,32)" stroke="none" d="M 3975,11069 L 4075,11269 4175,11069 3975,11069 Z"/>
 <path fill="none" stroke="rgb(255,211,32)" stroke-linejoin="round" d="M 3975,11069 L 4075,11269 4175,11069 3975,11069 Z"/>
 <path fill="rgb(255,211,32)" stroke="none" d="M 4112,11068 L 4212,11268 4312,11068 4112,11068 Z"/>
 <path fill="none" stroke="rgb(255,211,32)" stroke-linejoin="round" d="M 4112,11068 L 4212,11268 4312,11068 4112,11068 Z"/>
 <path fill="rgb(255,211,32)" stroke="none" d="M 4249,11068 L 4349,11268 4449,11068 4249,11068 Z"/>
 <path fill="none" stroke="rgb(255,211,32)" stroke-linejoin="round" d="M 4249,11068 L 4349,11268 4449,11068 4249,11068 Z"/>
 <path fill="rgb(255,211,32)" stroke="none" d="M 4386,11066 L 4486,11266 4586,11066 4386,11066 Z"/>
 <path fill="none" stroke="rgb(255,211,32)" stroke-linejoin="round" d="M 4386,11066 L 4486,11266 4586,11066 4386,11066 Z"/>
 <path fill="rgb(255,211,32)" stroke="none" d="M 4523,11064 L 4623,11264 4723,11064 4523,11064 Z"/>
 <path fill="none" stroke="rgb(255,211,32)" stroke-linejoin="round" d="M 4523,11064 L 4623,11264 4723,11064 4523,11064 Z"/>
 <path fill="rgb(255,211,32)" stroke="none" d="M 4660,11059 L 4760,11259 4860,11059 4660,11059 Z"/>
 <path fill="none" stroke="rgb(255,211,32)" stroke-linejoin="round" d="M 4660,11059 L 4760,11259 4860,11059 4660,11059 Z"/>
 <path fill="rgb(255,211,32)" stroke="none" d="M 4797,11052 L 4897,11252 4997,11052 4797,11052 Z"/>
 <path fill="none" stroke="rgb(255,211,32)" stroke-linejoin="round" d="M 4797,11052 L 4897,11252 4997,11052 4797,11052 Z"/>
 <path fill="rgb(255,211,32)" stroke="none" d="M 4934,11027 L 5034,11227 5134,11027 4934,11027 Z"/>
 <path fill="none" stroke="rgb(255,211,32)" stroke-linejoin="round" d="M 4934,11027 L 5034,11227 5134,11027 4934,11027 Z"/>
 <path fill="rgb(255,211,32)" stroke="none" d="M 5071,11011 L 5171,11211 5271,11011 5071,11011 Z"/>
 <path fill="none" stroke="rgb(255,211,32)" stroke-linejoin="round" d="M 5071,11011 L 5171,11211 5271,11011 5071,11011 Z"/>
 <path fill="rgb(255,211,32)" stroke="none" d="M 5208,10981 L 5308,11181 5408,10981 5208,10981 Z"/>
 <path fill="none" stroke="rgb(255,211,32)" stroke-linejoin="round" d="M 5208,10981 L 5308,11181 5408,10981 5208,10981 Z"/>
 <path fill="rgb(255,211,32)" stroke="none" d="M 5345,10936 L 5445,11136 5545,10936 5345,10936 Z"/>
 <path fill="none" stroke="rgb(255,211,32)" stroke-linejoin="round" d="M 5345,10936 L 5445,11136 5545,10936 5345,10936 Z"/>
 <path fill="rgb(255,211,32)" stroke="none" d="M 5481,10860 L 5581,11060 5681,10860 5481,10860 Z"/>
 <path fill="none" stroke="rgb(255,211,32)" stroke-linejoin="round" d="M 5481,10860 L 5581,11060 5681,10860 5481,10860 Z"/>
 <path fill="rgb(255,211,32)" stroke="none" d="M 5618,10799 L 5718,10999 5818,10799 5618,10799 Z"/>
 <path fill="none" stroke="rgb(255,211,32)" stroke-linejoin="round" d="M 5618,10799 L 5718,10999 5818,10799 5618,10799 Z"/>
 <path fill="rgb(255,211,32)" stroke="none" d="M 5755,10758 L 5855,10958 5955,10758 5755,10758 Z"/>
 <path fill="none" stroke="rgb(255,211,32)" stroke-linejoin="round" d="M 5755,10758 L 5855,10958 5955,10758 5755,10758 Z"/>
 <path fill="rgb(255,211,32)" stroke="none" d="M 5892,10497 L 5992,10697 6092,10497 5892,10497 Z"/>
 <path fill="none" stroke="rgb(255,211,32)" stroke-linejoin="round" d="M 5892,10497 L 5992,10697 6092,10497 5892,10497 Z"/>
 <path fill="rgb(255,211,32)" stroke="none" d="M 6029,10323 L 6129,10523 6229,10323 6029,10323 Z"/>
 <path fill="none" stroke="rgb(255,211,32)" stroke-linejoin="round" d="M 6029,10323 L 6129,10523 6229,10323 6029,10323 Z"/>
 <path fill="rgb(255,211,32)" stroke="none" d="M 6166,10091 L 6266,10291 6366,10091 6166,10091 Z"/>
 <path fill="none" stroke="rgb(255,211,32)" stroke-linejoin="round" d="M 6166,10091 L 6266,10291 6366,10091 6166,10091 Z"/>
 <path fill="rgb(255,211,32)" stroke="none" d="M 6303,9879 L 6403,10079 6503,9879 6303,9879 Z"/>
 <path fill="none" stroke="rgb(255,211,32)" stroke-linejoin="round" d="M 6303,9879 L 6403,10079 6503,9879 6303,9879 Z"/>
 <path fill="rgb(255,211,32)" stroke="none" d="M 6440,9705 L 6540,9905 6640,9705 6440,9705 Z"/>
 <path fill="none" stroke="rgb(255,211,32)" stroke-linejoin="round" d="M 6440,9705 L 6540,9905 6640,9705 6440,9705 Z"/>
 <path fill="rgb(255,211,32)" stroke="none" d="M 6577,9500 L 6677,9700 6777,9500 6577,9500 Z"/>
 <path fill="none" stroke="rgb(255,211,32)" stroke-linejoin="round" d="M 6577,9500 L 6677,9700 6777,9500 6577,9500 Z"/>
 <path fill="rgb(255,211,32)" stroke="none" d="M 6714,9208 L 6814,9408 6914,9208 6714,9208 Z"/>
 <path fill="none" stroke="rgb(255,211,32)" stroke-linejoin="round" d="M 6714,9208 L 6814,9408 6914,9208 6714,9208 Z"/>
 <path fill="rgb(255,211,32)" stroke="none" d="M 6851,9011 L 6951,9211 7051,9011 6851,9011 Z"/>
 <path fill="none" stroke="rgb(255,211,32)" stroke-linejoin="round" d="M 6851,9011 L 6951,9211 7051,9011 6851,9011 Z"/>
 <path fill="rgb(255,211,32)" stroke="none" d="M 6988,8739 L 7088,8939 7188,8739 6988,8739 Z"/>
 <path fill="none" stroke="rgb(255,211,32)" stroke-linejoin="round" d="M 6988,8739 L 7088,8939 7188,8739 6988,8739 Z"/>
 <path fill="rgb(255,211,32)" stroke="none" d="M 7124,8469 L 7224,8669 7324,8469 7124,8469 Z"/>
 <path fill="none" stroke="rgb(255,211,32)" stroke-linejoin="round" d="M 7124,8469 L 7224,8669 7324,8469 7124,8469 Z"/>
 <path fill="rgb(255,211,32)" stroke="none" d="M 7261,8276 L 7361,8476 7461,8276 7261,8276 Z"/>
 <path fill="none" stroke="rgb(255,211,32)" stroke-linejoin="round" d="M 7261,8276 L 7361,8476 7461,8276 7261,8276 Z"/>
 <path fill="rgb(255,211,32)" stroke="none" d="M 7398,8132 L 7498,8332 7597,8132 7398,8132 Z"/>
 <path fill="none" stroke="rgb(255,211,32)" stroke-linejoin="round" d="M 7398,8132 L 7498,8332 7597,8132 7398,8132 Z"/>
 <path fill="rgb(255,211,32)" stroke="none" d="M 7534,7995 L 7634,8195 7734,7995 7534,7995 Z"/>
 <path fill="none" stroke="rgb(255,211,32)" stroke-linejoin="round" d="M 7534,7995 L 7634,8195 7734,7995 7534,7995 Z"/>
 <path fill="rgb(255,211,32)" stroke="none" d="M 7671,7830 L 7771,8030 7871,7830 7671,7830 Z"/>
 <path fill="none" stroke="rgb(255,211,32)" stroke-linejoin="round" d="M 7671,7830 L 7771,8030 7871,7830 7671,7830 Z"/>
 <path fill="rgb(255,211,32)" stroke="none" d="M 7808,7682 L 7908,7882 8008,7682 7808,7682 Z"/>
 <path fill="none" stroke="rgb(255,211,32)" stroke-linejoin="round" d="M 7808,7682 L 7908,7882 8008,7682 7808,7682 Z"/>
 <path fill="rgb(255,211,32)" stroke="none" d="M 7945,7562 L 8045,7762 8145,7562 7945,7562 Z"/>
 <path fill="none" stroke="rgb(255,211,32)" stroke-linejoin="round" d="M 7945,7562 L 8045,7762 8145,7562 7945,7562 Z"/>
 <path fill="rgb(255,211,32)" stroke="none" d="M 8082,7470 L 8182,7670 8282,7470 8082,7470 Z"/>
 <path fill="none" stroke="rgb(255,211,32)" stroke-linejoin="round" d="M 8082,7470 L 8182,7670 8282,7470 8082,7470 Z"/>
 <path fill="rgb(255,211,32)" stroke="none" d="M 8219,7358 L 8319,7558 8419,7358 8219,7358 Z"/>
 <path fill="none" stroke="rgb(255,211,32)" stroke-linejoin="round" d="M 8219,7358 L 8319,7558 8419,7358 8219,7358 Z"/>
 <path fill="rgb(255,211,32)" stroke="none" d="M 8356,7234 L 8456,7434 8556,7234 8356,7234 Z"/>
 <path fill="none" stroke="rgb(255,211,32)" stroke-linejoin="round" d="M 8356,7234 L 8456,7434 8556,7234 8356,7234 Z"/>
 <path fill="rgb(255,211,32)" stroke="none" d="M 8493,7127 L 8593,7327 8693,7127 8493,7127 Z"/>
 <path fill="none" stroke="rgb(255,211,32)" stroke-linejoin="round" d="M 8493,7127 L 8593,7327 8693,7127 8493,7127 Z"/>
 <path fill="rgb(255,211,32)" stroke="none" d="M 8630,6985 L 8730,7185 8830,6985 8630,6985 Z"/>
 <path fill="none" stroke="rgb(255,211,32)" stroke-linejoin="round" d="M 8630,6985 L 8730,7185 8830,6985 8630,6985 Z"/>
 <path fill="rgb(255,211,32)" stroke="none" d="M 8766,6884 L 8866,7084 8966,6884 8766,6884 Z"/>
 <path fill="none" stroke="rgb(255,211,32)" stroke-linejoin="round" d="M 8766,6884 L 8866,7084 8966,6884 8766,6884 Z"/>
 <path fill="rgb(255,211,32)" stroke="none" d="M 8903,6774 L 9003,6974 9103,6774 8903,6774 Z"/>
 <path fill="none" stroke="rgb(255,211,32)" stroke-linejoin="round" d="M 8903,6774 L 9003,6974 9103,6774 8903,6774 Z"/>
 <path fill="rgb(255,211,32)" stroke="none" d="M 9040,6625 L 9140,6825 9240,6625 9040,6625 Z"/>
 <path fill="none" stroke="rgb(255,211,32)" stroke-linejoin="round" d="M 9040,6625 L 9140,6825 9240,6625 9040,6625 Z"/>
 <path fill="rgb(255,211,32)" stroke="none" d="M 9177,6483 L 9277,6683 9377,6483 9177,6483 Z"/>
 <path fill="none" stroke="rgb(255,211,32)" stroke-linejoin="round" d="M 9177,6483 L 9277,6683 9377,6483 9177,6483 Z"/>
 <path fill="rgb(255,211,32)" stroke="none" d="M 9314,6423 L 9414,6623 9514,6423 9314,6423 Z"/>
 <path fill="none" stroke="rgb(255,211,32)" stroke-linejoin="round" d="M 9314,6423 L 9414,6623 9514,6423 9314,6423 Z"/>
 <path fill="rgb(255,211,32)" stroke="none" d="M 9451,6338 L 9551,6538 9651,6338 9451,6338 Z"/>
 <path fill="none" stroke="rgb(255,211,32)" stroke-linejoin="round" d="M 9451,6338 L 9551,6538 9651,6338 9451,6338 Z"/>
 <path fill="rgb(255,211,32)" stroke="none" d="M 9588,6179 L 9688,6379 9788,6179 9588,6179 Z"/>
 <path fill="none" stroke="rgb(255,211,32)" stroke-linejoin="round" d="M 9588,6179 L 9688,6379 9788,6179 9588,6179 Z"/>
 <path fill="rgb(255,211,32)" stroke="none" d="M 9725,6073 L 9825,6273 9925,6073 9725,6073 Z"/>
 <path fill="none" stroke="rgb(255,211,32)" stroke-linejoin="round" d="M 9725,6073 L 9825,6273 9925,6073 9725,6073 Z"/>
 <path fill="rgb(255,211,32)" stroke="none" d="M 9862,5967 L 9962,6166 10062,5967 9862,5967 Z"/>
 <path fill="none" stroke="rgb(255,211,32)" stroke-linejoin="round" d="M 9862,5967 L 9962,6166 10062,5967 9862,5967 Z"/>
 <path fill="rgb(255,211,32)" stroke="none" d="M 9999,5911 L 10099,6110 10199,5911 9999,5911 Z"/>
 <path fill="none" stroke="rgb(255,211,32)" stroke-linejoin="round" d="M 9999,5911 L 10099,6110 10199,5911 9999,5911 Z"/>
 <path fill="rgb(255,211,32)" stroke="none" d="M 10136,5794 L 10236,5994 10336,5794 10136,5794 Z"/>
 <path fill="none" stroke="rgb(255,211,32)" stroke-linejoin="round" d="M 10136,5794 L 10236,5994 10336,5794 10136,5794 Z"/>
 <path fill="rgb(255,211,32)" stroke="none" d="M 10273,5718 L 10373,5918 10473,5718 10273,5718 Z"/>
 <path fill="none" stroke="rgb(255,211,32)" stroke-linejoin="round" d="M 10273,5718 L 10373,5918 10473,5718 10273,5718 Z"/>
 <path fill="rgb(255,211,32)" stroke="none" d="M 10409,5570 L 10509,5770 10609,5570 10409,5570 Z"/>
 <path fill="none" stroke="rgb(255,211,32)" stroke-linejoin="round" d="M 10409,5570 L 10509,5770 10609,5570 10409,5570 Z"/>
 <path fill="rgb(255,211,32)" stroke="none" d="M 10546,5448 L 10646,5648 10746,5448 10546,5448 Z"/>
 <path fill="none" stroke="rgb(255,211,32)" stroke-linejoin="round" d="M 10546,5448 L 10646,5648 10746,5448 10546,5448 Z"/>
 <path fill="rgb(255,211,32)" stroke="none" d="M 10683,5340 L 10783,5540 10883,5340 10683,5340 Z"/>
 <path fill="none" stroke="rgb(255,211,32)" stroke-linejoin="round" d="M 10683,5340 L 10783,5540 10883,5340 10683,5340 Z"/>
 <path fill="rgb(255,211,32)" stroke="none" d="M 10820,5262 L 10920,5462 11020,5262 10820,5262 Z"/>
 <path fill="none" stroke="rgb(255,211,32)" stroke-linejoin="round" d="M 10820,5262 L 10920,5462 11020,5262 10820,5262 Z"/>
 <path fill="rgb(255,211,32)" stroke="none" d="M 10957,5166 L 11057,5366 11157,5166 10957,5166 Z"/>
 <path fill="none" stroke="rgb(255,211,32)" stroke-linejoin="round" d="M 10957,5166 L 11057,5366 11157,5166 10957,5166 Z"/>
 <path fill="rgb(255,211,32)" stroke="none" d="M 11094,5081 L 11194,5281 11294,5081 11094,5081 Z"/>
 <path fill="none" stroke="rgb(255,211,32)" stroke-linejoin="round" d="M 11094,5081 L 11194,5281 11294,5081 11094,5081 Z"/>
 <path fill="rgb(255,211,32)" stroke="none" d="M 11231,5028 L 11331,5228 11431,5028 11231,5028 Z"/>
 <path fill="none" stroke="rgb(255,211,32)" stroke-linejoin="round" d="M 11231,5028 L 11331,5228 11431,5028 11231,5028 Z"/>
 <path fill="rgb(255,211,32)" stroke="none" d="M 11368,4989 L 11468,5189 11568,4989 11368,4989 Z"/>
 <path fill="none" stroke="rgb(255,211,32)" stroke-linejoin="round" d="M 11368,4989 L 11468,5189 11568,4989 11368,4989 Z"/>
 <path fill="rgb(255,211,32)" stroke="none" d="M 11505,4933 L 11605,5133 11705,4933 11505,4933 Z"/>
 <path fill="none" stroke="rgb(255,211,32)" stroke-linejoin="round" d="M 11505,4933 L 11605,5133 11705,4933 11505,4933 Z"/>
 <path fill="rgb(255,211,32)" stroke="none" d="M 11642,4849 L 11742,5049 11842,4849 11642,4849 Z"/>
 <path fill="none" stroke="rgb(255,211,32)" stroke-linejoin="round" d="M 11642,4849 L 11742,5049 11842,4849 11642,4849 Z"/>
 <path fill="rgb(255,211,32)" stroke="none" d="M 11779,4795 L 11879,4995 11979,4795 11779,4795 Z"/>
 <path fill="none" stroke="rgb(255,211,32)" stroke-linejoin="round" d="M 11779,4795 L 11879,4995 11979,4795 11779,4795 Z"/>
 <path fill="rgb(255,211,32)" stroke="none" d="M 11916,4709 L 12016,4909 12116,4709 11916,4709 Z"/>
 <path fill="none" stroke="rgb(255,211,32)" stroke-linejoin="round" d="M 11916,4709 L 12016,4909 12116,4709 11916,4709 Z"/>
 <path fill="rgb(255,211,32)" stroke="none" d="M 12053,4669 L 12153,4869 12253,4669 12053,4669 Z"/>
 <path fill="none" stroke="rgb(255,211,32)" stroke-linejoin="round" d="M 12053,4669 L 12153,4869 12253,4669 12053,4669 Z"/>
 <path fill="rgb(255,211,32)" stroke="none" d="M 12189,4641 L 12289,4841 12389,4641 12189,4641 Z"/>
 <path fill="none" stroke="rgb(255,211,32)" stroke-linejoin="round" d="M 12189,4641 L 12289,4841 12389,4641 12189,4641 Z"/>
 <path fill="rgb(255,211,32)" stroke="none" d="M 12326,4615 L 12426,4815 12526,4615 12326,4615 Z"/>
 <path fill="none" stroke="rgb(255,211,32)" stroke-linejoin="round" d="M 12326,4615 L 12426,4815 12526,4615 12326,4615 Z"/>
 <path fill="rgb(255,211,32)" stroke="none" d="M 12463,4542 L 12563,4742 12663,4542 12463,4542 Z"/>
 <path fill="none" stroke="rgb(255,211,32)" stroke-linejoin="round" d="M 12463,4542 L 12563,4742 12663,4542 12463,4542 Z"/>
 <path fill="rgb(255,211,32)" stroke="none" d="M 12600,4462 L 12700,4662 12800,4462 12600,4462 Z"/>
 <path fill="none" stroke="rgb(255,211,32)" stroke-linejoin="round" d="M 12600,4462 L 12700,4662 12800,4462 12600,4462 Z"/>
 <path fill="rgb(255,211,32)" stroke="none" d="M 12737,4316 L 12837,4516 12937,4316 12737,4316 Z"/>
 <path fill="none" stroke="rgb(255,211,32)" stroke-linejoin="round" d="M 12737,4316 L 12837,4516 12937,4316 12737,4316 Z"/>
 <path fill="rgb(255,211,32)" stroke="none" d="M 12874,4250 L 12974,4450 13074,4250 12874,4250 Z"/>
 <path fill="none" stroke="rgb(255,211,32)" stroke-linejoin="round" d="M 12874,4250 L 12974,4450 13074,4250 12874,4250 Z"/>
 <path fill="rgb(255,211,32)" stroke="none" d="M 13011,4214 L 13111,4414 13211,4214 13011,4214 Z"/>
 <path fill="none" stroke="rgb(255,211,32)" stroke-linejoin="round" d="M 13011,4214 L 13111,4414 13211,4214 13011,4214 Z"/>
 <path fill="rgb(255,211,32)" stroke="none" d="M 13148,4181 L 13248,4381 13348,4181 13148,4181 Z"/>
 <path fill="none" stroke="rgb(255,211,32)" stroke-linejoin="round" d="M 13148,4181 L 13248,4381 13348,4181 13148,4181 Z"/>
 <path fill="rgb(255,211,32)" stroke="none" d="M 13285,4168 L 13385,4368 13485,4168 13285,4168 Z"/>
 <path fill="none" stroke="rgb(255,211,32)" stroke-linejoin="round" d="M 13285,4168 L 13385,4368 13485,4168 13285,4168 Z"/>
 <path fill="rgb(255,211,32)" stroke="none" d="M 13422,4140 L 13522,4340 13622,4140 13422,4140 Z"/>
 <path fill="none" stroke="rgb(255,211,32)" stroke-linejoin="round" d="M 13422,4140 L 13522,4340 13622,4140 13422,4140 Z"/>
 <path fill="rgb(255,211,32)" stroke="none" d="M 13559,4095 L 13659,4295 13759,4095 13559,4095 Z"/>
 <path fill="none" stroke="rgb(255,211,32)" stroke-linejoin="round" d="M 13559,4095 L 13659,4295 13759,4095 13559,4095 Z"/>
 <path fill="rgb(255,211,32)" stroke="none" d="M 13696,4095 L 13796,4295 13896,4095 13696,4095 Z"/>
 <path fill="none" stroke="rgb(255,211,32)" stroke-linejoin="round" d="M 13696,4095 L 13796,4295 13896,4095 13696,4095 Z"/>
 <path fill="rgb(255,211,32)" stroke="none" d="M 13832,3652 L 13932,3852 14032,3652 13832,3652 Z"/>
 <path fill="none" stroke="rgb(255,211,32)" stroke-linejoin="round" d="M 13832,3652 L 13932,3852 14032,3652 13832,3652 Z"/>
 <path fill="rgb(255,211,32)" stroke="none" d="M 13969,3644 L 14069,3844 14169,3644 13969,3644 Z"/>
 <path fill="none" stroke="rgb(255,211,32)" stroke-linejoin="round" d="M 13969,3644 L 14069,3844 14169,3644 13969,3644 Z"/>
 <path fill="rgb(255,211,32)" stroke="none" d="M 14106,3602 L 14206,3802 14306,3602 14106,3602 Z"/>
 <path fill="none" stroke="rgb(255,211,32)" stroke-linejoin="round" d="M 14106,3602 L 14206,3802 14306,3602 14106,3602 Z"/>
 <path fill="rgb(255,211,32)" stroke="none" d="M 14243,4857 L 14343,5057 14443,4857 14243,4857 Z"/>
 <path fill="none" stroke="rgb(255,211,32)" stroke-linejoin="round" d="M 14243,4857 L 14343,5057 14443,4857 14243,4857 Z"/>
 <path fill="rgb(255,211,32)" stroke="none" d="M 14380,4848 L 14480,5048 14580,4848 14380,4848 Z"/>
 <path fill="none" stroke="rgb(255,211,32)" stroke-linejoin="round" d="M 14380,4848 L 14480,5048 14580,4848 14380,4848 Z"/>
 <path fill="rgb(255,211,32)" stroke="none" d="M 14517,4848 L 14617,5048 14717,4848 14517,4848 Z"/>
 <path fill="none" stroke="rgb(255,211,32)" stroke-linejoin="round" d="M 14517,4848 L 14617,5048 14717,4848 14517,4848 Z"/>
 <path fill="none" stroke="rgb(87,157,28)" stroke-width="50" stroke-linejoin="round" d="M 3254,11171 L 3391,11170 3528,11167 3665,11164 3801,11164 3938,11149 4075,11138 4212,11110 4349,11082 4486,11077 4623,10935 4760,10935 4897,10777 5034,10738 5171,10617 5308,10472 5445,10276 5581,10034 5718,9764 5855,9461 5992,9138 6129,8842 6266,8483 6403,8098 6540,7736 6677,7390 6814,7155 6951,6863 7088,6517 7224,6174 7361,5907 7498,5664 7634,5447 7771,5185 7908,4945 8045,4706 8182,4514 8319,4390 8456,4173 8593,4012 8730,3850 8866,3676 9003,3505 9140,3360 9277,3221 9414,3102 9551,2977 9688,2855 9825,2725 9962,2605 10099,2515 10236,2423 10373,2340 10509,2269 10646,2200 10783,2136 10920,2057 11057,2006 11194,1927 11331,1883 11468,1834 11605,1785 11742,1733 11879,1691 12016,1638 12153,1586 12289,1535 12426,1491 12563,1450 12700,1406 12837,1384 12974,1351 13111,1332 13248,1309 13385,1291 13522,1256 13659,1236 13796,1215 13932,1200 14069,1187 14206,1164 14343,1488 14480,1483 14617,1483"/>
 <path fill="rgb(87,157,28)" stroke="none" d="M 3154,11271 L 3354,11271 3254,11071 3154,11271 Z"/>
 <path fill="none" stroke="rgb(87,157,28)" stroke-linejoin="round" d="M 3154,11271 L 3354,11271 3254,11071 3154,11271 Z"/>
 <path fill="rgb(87,157,28)" stroke="none" d="M 3291,11270 L 3491,11270 3391,11070 3291,11270 Z"/>
 <path fill="none" stroke="rgb(87,157,28)" stroke-linejoin="round" d="M 3291,11270 L 3491,11270 3391,11070 3291,11270 Z"/>
 <path fill="rgb(87,157,28)" stroke="none" d="M 3428,11267 L 3628,11267 3528,11067 3428,11267 Z"/>
 <path fill="none" stroke="rgb(87,157,28)" stroke-linejoin="round" d="M 3428,11267 L 3628,11267 3528,11067 3428,11267 Z"/>
 <path fill="rgb(87,157,28)" stroke="none" d="M 3565,11264 L 3765,11264 3665,11064 3565,11264 Z"/>
 <path fill="none" stroke="rgb(87,157,28)" stroke-linejoin="round" d="M 3565,11264 L 3765,11264 3665,11064 3565,11264 Z"/>
 <path fill="rgb(87,157,28)" stroke="none" d="M 3701,11264 L 3901,11264 3801,11064 3701,11264 Z"/>
 <path fill="none" stroke="rgb(87,157,28)" stroke-linejoin="round" d="M 3701,11264 L 3901,11264 3801,11064 3701,11264 Z"/>
 <path fill="rgb(87,157,28)" stroke="none" d="M 3838,11249 L 4038,11249 3938,11049 3838,11249 Z"/>
 <path fill="none" stroke="rgb(87,157,28)" stroke-linejoin="round" d="M 3838,11249 L 4038,11249 3938,11049 3838,11249 Z"/>
 <path fill="rgb(87,157,28)" stroke="none" d="M 3975,11238 L 4175,11238 4075,11038 3975,11238 Z"/>
 <path fill="none" stroke="rgb(87,157,28)" stroke-linejoin="round" d="M 3975,11238 L 4175,11238 4075,11038 3975,11238 Z"/>
 <path fill="rgb(87,157,28)" stroke="none" d="M 4112,11210 L 4312,11210 4212,11010 4112,11210 Z"/>
 <path fill="none" stroke="rgb(87,157,28)" stroke-linejoin="round" d="M 4112,11210 L 4312,11210 4212,11010 4112,11210 Z"/>
 <path fill="rgb(87,157,28)" stroke="none" d="M 4249,11182 L 4449,11182 4349,10982 4249,11182 Z"/>
 <path fill="none" stroke="rgb(87,157,28)" stroke-linejoin="round" d="M 4249,11182 L 4449,11182 4349,10982 4249,11182 Z"/>
 <path fill="rgb(87,157,28)" stroke="none" d="M 4386,11177 L 4586,11177 4486,10977 4386,11177 Z"/>
 <path fill="none" stroke="rgb(87,157,28)" stroke-linejoin="round" d="M 4386,11177 L 4586,11177 4486,10977 4386,11177 Z"/>
 <path fill="rgb(87,157,28)" stroke="none" d="M 4523,11035 L 4723,11035 4623,10835 4523,11035 Z"/>
 <path fill="none" stroke="rgb(87,157,28)" stroke-linejoin="round" d="M 4523,11035 L 4723,11035 4623,10835 4523,11035 Z"/>
 <path fill="rgb(87,157,28)" stroke="none" d="M 4660,11035 L 4860,11035 4760,10835 4660,11035 Z"/>
 <path fill="none" stroke="rgb(87,157,28)" stroke-linejoin="round" d="M 4660,11035 L 4860,11035 4760,10835 4660,11035 Z"/>
 <path fill="rgb(87,157,28)" stroke="none" d="M 4797,10877 L 4997,10877 4897,10677 4797,10877 Z"/>
 <path fill="none" stroke="rgb(87,157,28)" stroke-linejoin="round" d="M 4797,10877 L 4997,10877 4897,10677 4797,10877 Z"/>
 <path fill="rgb(87,157,28)" stroke="none" d="M 4934,10838 L 5134,10838 5034,10638 4934,10838 Z"/>
 <path fill="none" stroke="rgb(87,157,28)" stroke-linejoin="round" d="M 4934,10838 L 5134,10838 5034,10638 4934,10838 Z"/>
 <path fill="rgb(87,157,28)" stroke="none" d="M 5071,10717 L 5271,10717 5171,10517 5071,10717 Z"/>
 <path fill="none" stroke="rgb(87,157,28)" stroke-linejoin="round" d="M 5071,10717 L 5271,10717 5171,10517 5071,10717 Z"/>
 <path fill="rgb(87,157,28)" stroke="none" d="M 5208,10572 L 5408,10572 5308,10372 5208,10572 Z"/>
 <path fill="none" stroke="rgb(87,157,28)" stroke-linejoin="round" d="M 5208,10572 L 5408,10572 5308,10372 5208,10572 Z"/>
 <path fill="rgb(87,157,28)" stroke="none" d="M 5345,10376 L 5545,10376 5445,10176 5345,10376 Z"/>
 <path fill="none" stroke="rgb(87,157,28)" stroke-linejoin="round" d="M 5345,10376 L 5545,10376 5445,10176 5345,10376 Z"/>
 <path fill="rgb(87,157,28)" stroke="none" d="M 5481,10134 L 5681,10134 5581,9934 5481,10134 Z"/>
 <path fill="none" stroke="rgb(87,157,28)" stroke-linejoin="round" d="M 5481,10134 L 5681,10134 5581,9934 5481,10134 Z"/>
 <path fill="rgb(87,157,28)" stroke="none" d="M 5618,9864 L 5818,9864 5718,9664 5618,9864 Z"/>
 <path fill="none" stroke="rgb(87,157,28)" stroke-linejoin="round" d="M 5618,9864 L 5818,9864 5718,9664 5618,9864 Z"/>
 <path fill="rgb(87,157,28)" stroke="none" d="M 5755,9561 L 5955,9561 5855,9361 5755,9561 Z"/>
 <path fill="none" stroke="rgb(87,157,28)" stroke-linejoin="round" d="M 5755,9561 L 5955,9561 5855,9361 5755,9561 Z"/>
 <path fill="rgb(87,157,28)" stroke="none" d="M 5892,9238 L 6092,9238 5992,9038 5892,9238 Z"/>
 <path fill="none" stroke="rgb(87,157,28)" stroke-linejoin="round" d="M 5892,9238 L 6092,9238 5992,9038 5892,9238 Z"/>
 <path fill="rgb(87,157,28)" stroke="none" d="M 6029,8942 L 6229,8942 6129,8742 6029,8942 Z"/>
 <path fill="none" stroke="rgb(87,157,28)" stroke-linejoin="round" d="M 6029,8942 L 6229,8942 6129,8742 6029,8942 Z"/>
 <path fill="rgb(87,157,28)" stroke="none" d="M 6166,8583 L 6366,8583 6266,8383 6166,8583 Z"/>
 <path fill="none" stroke="rgb(87,157,28)" stroke-linejoin="round" d="M 6166,8583 L 6366,8583 6266,8383 6166,8583 Z"/>
 <path fill="rgb(87,157,28)" stroke="none" d="M 6303,8198 L 6503,8198 6403,7998 6303,8198 Z"/>
 <path fill="none" stroke="rgb(87,157,28)" stroke-linejoin="round" d="M 6303,8198 L 6503,8198 6403,7998 6303,8198 Z"/>
 <path fill="rgb(87,157,28)" stroke="none" d="M 6440,7836 L 6640,7836 6540,7636 6440,7836 Z"/>
 <path fill="none" stroke="rgb(87,157,28)" stroke-linejoin="round" d="M 6440,7836 L 6640,7836 6540,7636 6440,7836 Z"/>
 <path fill="rgb(87,157,28)" stroke="none" d="M 6577,7490 L 6777,7490 6677,7290 6577,7490 Z"/>
 <path fill="none" stroke="rgb(87,157,28)" stroke-linejoin="round" d="M 6577,7490 L 6777,7490 6677,7290 6577,7490 Z"/>
 <path fill="rgb(87,157,28)" stroke="none" d="M 6714,7255 L 6914,7255 6814,7055 6714,7255 Z"/>
 <path fill="none" stroke="rgb(87,157,28)" stroke-linejoin="round" d="M 6714,7255 L 6914,7255 6814,7055 6714,7255 Z"/>
 <path fill="rgb(87,157,28)" stroke="none" d="M 6851,6963 L 7051,6963 6951,6763 6851,6963 Z"/>
 <path fill="none" stroke="rgb(87,157,28)" stroke-linejoin="round" d="M 6851,6963 L 7051,6963 6951,6763 6851,6963 Z"/>
 <path fill="rgb(87,157,28)" stroke="none" d="M 6988,6617 L 7188,6617 7088,6417 6988,6617 Z"/>
 <path fill="none" stroke="rgb(87,157,28)" stroke-linejoin="round" d="M 6988,6617 L 7188,6617 7088,6417 6988,6617 Z"/>
 <path fill="rgb(87,157,28)" stroke="none" d="M 7124,6274 L 7324,6274 7224,6074 7124,6274 Z"/>
 <path fill="none" stroke="rgb(87,157,28)" stroke-linejoin="round" d="M 7124,6274 L 7324,6274 7224,6074 7124,6274 Z"/>
 <path fill="rgb(87,157,28)" stroke="none" d="M 7261,6006 L 7461,6006 7361,5807 7261,6006 Z"/>
 <path fill="none" stroke="rgb(87,157,28)" stroke-linejoin="round" d="M 7261,6006 L 7461,6006 7361,5807 7261,6006 Z"/>
 <path fill="rgb(87,157,28)" stroke="none" d="M 7398,5764 L 7597,5764 7498,5564 7398,5764 Z"/>
 <path fill="none" stroke="rgb(87,157,28)" stroke-linejoin="round" d="M 7398,5764 L 7597,5764 7498,5564 7398,5764 Z"/>
 <path fill="rgb(87,157,28)" stroke="none" d="M 7534,5547 L 7734,5547 7634,5347 7534,5547 Z"/>
 <path fill="none" stroke="rgb(87,157,28)" stroke-linejoin="round" d="M 7534,5547 L 7734,5547 7634,5347 7534,5547 Z"/>
 <path fill="rgb(87,157,28)" stroke="none" d="M 7671,5285 L 7871,5285 7771,5085 7671,5285 Z"/>
 <path fill="none" stroke="rgb(87,157,28)" stroke-linejoin="round" d="M 7671,5285 L 7871,5285 7771,5085 7671,5285 Z"/>
 <path fill="rgb(87,157,28)" stroke="none" d="M 7808,5045 L 8008,5045 7908,4845 7808,5045 Z"/>
 <path fill="none" stroke="rgb(87,157,28)" stroke-linejoin="round" d="M 7808,5045 L 8008,5045 7908,4845 7808,5045 Z"/>
 <path fill="rgb(87,157,28)" stroke="none" d="M 7945,4806 L 8145,4806 8045,4606 7945,4806 Z"/>
 <path fill="none" stroke="rgb(87,157,28)" stroke-linejoin="round" d="M 7945,4806 L 8145,4806 8045,4606 7945,4806 Z"/>
 <path fill="rgb(87,157,28)" stroke="none" d="M 8082,4614 L 8282,4614 8182,4414 8082,4614 Z"/>
 <path fill="none" stroke="rgb(87,157,28)" stroke-linejoin="round" d="M 8082,4614 L 8282,4614 8182,4414 8082,4614 Z"/>
 <path fill="rgb(87,157,28)" stroke="none" d="M 8219,4490 L 8419,4490 8319,4290 8219,4490 Z"/>
 <path fill="none" stroke="rgb(87,157,28)" stroke-linejoin="round" d="M 8219,4490 L 8419,4490 8319,4290 8219,4490 Z"/>
 <path fill="rgb(87,157,28)" stroke="none" d="M 8356,4273 L 8556,4273 8456,4073 8356,4273 Z"/>
 <path fill="none" stroke="rgb(87,157,28)" stroke-linejoin="round" d="M 8356,4273 L 8556,4273 8456,4073 8356,4273 Z"/>
 <path fill="rgb(87,157,28)" stroke="none" d="M 8493,4112 L 8693,4112 8593,3912 8493,4112 Z"/>
 <path fill="none" stroke="rgb(87,157,28)" stroke-linejoin="round" d="M 8493,4112 L 8693,4112 8593,3912 8493,4112 Z"/>
 <path fill="rgb(87,157,28)" stroke="none" d="M 8630,3950 L 8830,3950 8730,3750 8630,3950 Z"/>
 <path fill="none" stroke="rgb(87,157,28)" stroke-linejoin="round" d="M 8630,3950 L 8830,3950 8730,3750 8630,3950 Z"/>
 <path fill="rgb(87,157,28)" stroke="none" d="M 8766,3776 L 8966,3776 8866,3576 8766,3776 Z"/>
 <path fill="none" stroke="rgb(87,157,28)" stroke-linejoin="round" d="M 8766,3776 L 8966,3776 8866,3576 8766,3776 Z"/>
 <path fill="rgb(87,157,28)" stroke="none" d="M 8903,3605 L 9103,3605 9003,3405 8903,3605 Z"/>
 <path fill="none" stroke="rgb(87,157,28)" stroke-linejoin="round" d="M 8903,3605 L 9103,3605 9003,3405 8903,3605 Z"/>
 <path fill="rgb(87,157,28)" stroke="none" d="M 9040,3460 L 9240,3460 9140,3260 9040,3460 Z"/>
 <path fill="none" stroke="rgb(87,157,28)" stroke-linejoin="round" d="M 9040,3460 L 9240,3460 9140,3260 9040,3460 Z"/>
 <path fill="rgb(87,157,28)" stroke="none" d="M 9177,3321 L 9377,3321 9277,3121 9177,3321 Z"/>
 <path fill="none" stroke="rgb(87,157,28)" stroke-linejoin="round" d="M 9177,3321 L 9377,3321 9277,3121 9177,3321 Z"/>
 <path fill="rgb(87,157,28)" stroke="none" d="M 9314,3202 L 9514,3202 9414,3002 9314,3202 Z"/>
 <path fill="none" stroke="rgb(87,157,28)" stroke-linejoin="round" d="M 9314,3202 L 9514,3202 9414,3002 9314,3202 Z"/>
 <path fill="rgb(87,157,28)" stroke="none" d="M 9451,3077 L 9651,3077 9551,2877 9451,3077 Z"/>
 <path fill="none" stroke="rgb(87,157,28)" stroke-linejoin="round" d="M 9451,3077 L 9651,3077 9551,2877 9451,3077 Z"/>
 <path fill="rgb(87,157,28)" stroke="none" d="M 9588,2955 L 9788,2955 9688,2755 9588,2955 Z"/>
 <path fill="none" stroke="rgb(87,157,28)" stroke-linejoin="round" d="M 9588,2955 L 9788,2955 9688,2755 9588,2955 Z"/>
 <path fill="rgb(87,157,28)" stroke="none" d="M 9725,2825 L 9925,2825 9825,2625 9725,2825 Z"/>
 <path fill="none" stroke="rgb(87,157,28)" stroke-linejoin="round" d="M 9725,2825 L 9925,2825 9825,2625 9725,2825 Z"/>
 <path fill="rgb(87,157,28)" stroke="none" d="M 9862,2705 L 10062,2705 9962,2505 9862,2705 Z"/>
 <path fill="none" stroke="rgb(87,157,28)" stroke-linejoin="round" d="M 9862,2705 L 10062,2705 9962,2505 9862,2705 Z"/>
 <path fill="rgb(87,157,28)" stroke="none" d="M 9999,2615 L 10199,2615 10099,2415 9999,2615 Z"/>
 <path fill="none" stroke="rgb(87,157,28)" stroke-linejoin="round" d="M 9999,2615 L 10199,2615 10099,2415 9999,2615 Z"/>
 <path fill="rgb(87,157,28)" stroke="none" d="M 10136,2523 L 10336,2523 10236,2323 10136,2523 Z"/>
 <path fill="none" stroke="rgb(87,157,28)" stroke-linejoin="round" d="M 10136,2523 L 10336,2523 10236,2323 10136,2523 Z"/>
 <path fill="rgb(87,157,28)" stroke="none" d="M 10273,2440 L 10473,2440 10373,2240 10273,2440 Z"/>
 <path fill="none" stroke="rgb(87,157,28)" stroke-linejoin="round" d="M 10273,2440 L 10473,2440 10373,2240 10273,2440 Z"/>
 <path fill="rgb(87,157,28)" stroke="none" d="M 10409,2369 L 10609,2369 10509,2169 10409,2369 Z"/>
 <path fill="none" stroke="rgb(87,157,28)" stroke-linejoin="round" d="M 10409,2369 L 10609,2369 10509,2169 10409,2369 Z"/>
 <path fill="rgb(87,157,28)" stroke="none" d="M 10546,2300 L 10746,2300 10646,2100 10546,2300 Z"/>
 <path fill="none" stroke="rgb(87,157,28)" stroke-linejoin="round" d="M 10546,2300 L 10746,2300 10646,2100 10546,2300 Z"/>
 <path fill="rgb(87,157,28)" stroke="none" d="M 10683,2236 L 10883,2236 10783,2036 10683,2236 Z"/>
 <path fill="none" stroke="rgb(87,157,28)" stroke-linejoin="round" d="M 10683,2236 L 10883,2236 10783,2036 10683,2236 Z"/>
 <path fill="rgb(87,157,28)" stroke="none" d="M 10820,2157 L 11020,2157 10920,1957 10820,2157 Z"/>
 <path fill="none" stroke="rgb(87,157,28)" stroke-linejoin="round" d="M 10820,2157 L 11020,2157 10920,1957 10820,2157 Z"/>
 <path fill="rgb(87,157,28)" stroke="none" d="M 10957,2106 L 11157,2106 11057,1906 10957,2106 Z"/>
 <path fill="none" stroke="rgb(87,157,28)" stroke-linejoin="round" d="M 10957,2106 L 11157,2106 11057,1906 10957,2106 Z"/>
 <path fill="rgb(87,157,28)" stroke="none" d="M 11094,2027 L 11294,2027 11194,1827 11094,2027 Z"/>
 <path fill="none" stroke="rgb(87,157,28)" stroke-linejoin="round" d="M 11094,2027 L 11294,2027 11194,1827 11094,2027 Z"/>
 <path fill="rgb(87,157,28)" stroke="none" d="M 11231,1983 L 11431,1983 11331,1783 11231,1983 Z"/>
 <path fill="none" stroke="rgb(87,157,28)" stroke-linejoin="round" d="M 11231,1983 L 11431,1983 11331,1783 11231,1983 Z"/>
 <path fill="rgb(87,157,28)" stroke="none" d="M 11368,1934 L 11568,1934 11468,1734 11368,1934 Z"/>
 <path fill="none" stroke="rgb(87,157,28)" stroke-linejoin="round" d="M 11368,1934 L 11568,1934 11468,1734 11368,1934 Z"/>
 <path fill="rgb(87,157,28)" stroke="none" d="M 11505,1885 L 11705,1885 11605,1685 11505,1885 Z"/>
 <path fill="none" stroke="rgb(87,157,28)" stroke-linejoin="round" d="M 11505,1885 L 11705,1885 11605,1685 11505,1885 Z"/>
 <path fill="rgb(87,157,28)" stroke="none" d="M 11642,1833 L 11842,1833 11742,1633 11642,1833 Z"/>
 <path fill="none" stroke="rgb(87,157,28)" stroke-linejoin="round" d="M 11642,1833 L 11842,1833 11742,1633 11642,1833 Z"/>
 <path fill="rgb(87,157,28)" stroke="none" d="M 11779,1791 L 11979,1791 11879,1591 11779,1791 Z"/>
 <path fill="none" stroke="rgb(87,157,28)" stroke-linejoin="round" d="M 11779,1791 L 11979,1791 11879,1591 11779,1791 Z"/>
 <path fill="rgb(87,157,28)" stroke="none" d="M 11916,1738 L 12116,1738 12016,1538 11916,1738 Z"/>
 <path fill="none" stroke="rgb(87,157,28)" stroke-linejoin="round" d="M 11916,1738 L 12116,1738 12016,1538 11916,1738 Z"/>
 <path fill="rgb(87,157,28)" stroke="none" d="M 12053,1686 L 12253,1686 12153,1486 12053,1686 Z"/>
 <path fill="none" stroke="rgb(87,157,28)" stroke-linejoin="round" d="M 12053,1686 L 12253,1686 12153,1486 12053,1686 Z"/>
 <path fill="rgb(87,157,28)" stroke="none" d="M 12189,1635 L 12389,1635 12289,1435 12189,1635 Z"/>
 <path fill="none" stroke="rgb(87,157,28)" stroke-linejoin="round" d="M 12189,1635 L 12389,1635 12289,1435 12189,1635 Z"/>
 <path fill="rgb(87,157,28)" stroke="none" d="M 12326,1591 L 12526,1591 12426,1391 12326,1591 Z"/>
 <path fill="none" stroke="rgb(87,157,28)" stroke-linejoin="round" d="M 12326,1591 L 12526,1591 12426,1391 12326,1591 Z"/>
 <path fill="rgb(87,157,28)" stroke="none" d="M 12463,1550 L 12663,1550 12563,1350 12463,1550 Z"/>
 <path fill="none" stroke="rgb(87,157,28)" stroke-linejoin="round" d="M 12463,1550 L 12663,1550 12563,1350 12463,1550 Z"/>
 <path fill="rgb(87,157,28)" stroke="none" d="M 12600,1506 L 12800,1506 12700,1306 12600,1506 Z"/>
 <path fill="none" stroke="rgb(87,157,28)" stroke-linejoin="round" d="M 12600,1506 L 12800,1506 12700,1306 12600,1506 Z"/>
 <path fill="rgb(87,157,28)" stroke="none" d="M 12737,1484 L 12937,1484 12837,1284 12737,1484 Z"/>
 <path fill="none" stroke="rgb(87,157,28)" stroke-linejoin="round" d="M 12737,1484 L 12937,1484 12837,1284 12737,1484 Z"/>
 <path fill="rgb(87,157,28)" stroke="none" d="M 12874,1451 L 13074,1451 12974,1251 12874,1451 Z"/>
 <path fill="none" stroke="rgb(87,157,28)" stroke-linejoin="round" d="M 12874,1451 L 13074,1451 12974,1251 12874,1451 Z"/>
 <path fill="rgb(87,157,28)" stroke="none" d="M 13011,1432 L 13211,1432 13111,1232 13011,1432 Z"/>
 <path fill="none" stroke="rgb(87,157,28)" stroke-linejoin="round" d="M 13011,1432 L 13211,1432 13111,1232 13011,1432 Z"/>
 <path fill="rgb(87,157,28)" stroke="none" d="M 13148,1409 L 13348,1409 13248,1209 13148,1409 Z"/>
 <path fill="none" stroke="rgb(87,157,28)" stroke-linejoin="round" d="M 13148,1409 L 13348,1409 13248,1209 13148,1409 Z"/>
 <path fill="rgb(87,157,28)" stroke="none" d="M 13285,1391 L 13485,1391 13385,1191 13285,1391 Z"/>
 <path fill="none" stroke="rgb(87,157,28)" stroke-linejoin="round" d="M 13285,1391 L 13485,1391 13385,1191 13285,1391 Z"/>
 <path fill="rgb(87,157,28)" stroke="none" d="M 13422,1356 L 13622,1356 13522,1156 13422,1356 Z"/>
 <path fill="none" stroke="rgb(87,157,28)" stroke-linejoin="round" d="M 13422,1356 L 13622,1356 13522,1156 13422,1356 Z"/>
 <path fill="rgb(87,157,28)" stroke="none" d="M 13559,1336 L 13759,1336 13659,1136 13559,1336 Z"/>
 <path fill="none" stroke="rgb(87,157,28)" stroke-linejoin="round" d="M 13559,1336 L 13759,1336 13659,1136 13559,1336 Z"/>
 <path fill="rgb(87,157,28)" stroke="none" d="M 13696,1315 L 13896,1315 13796,1115 13696,1315 Z"/>
 <path fill="none" stroke="rgb(87,157,28)" stroke-linejoin="round" d="M 13696,1315 L 13896,1315 13796,1115 13696,1315 Z"/>
 <path fill="rgb(87,157,28)" stroke="none" d="M 13832,1300 L 14032,1300 13932,1100 13832,1300 Z"/>
 <path fill="none" stroke="rgb(87,157,28)" stroke-linejoin="round" d="M 13832,1300 L 14032,1300 13932,1100 13832,1300 Z"/>
 <path fill="rgb(87,157,28)" stroke="none" d="M 13969,1287 L 14169,1287 14069,1087 13969,1287 Z"/>
 <path fill="none" stroke="rgb(87,157,28)" stroke-linejoin="round" d="M 13969,1287 L 14169,1287 14069,1087 13969,1287 Z"/>
 <path fill="rgb(87,157,28)" stroke="none" d="M 14106,1264 L 14306,1264 14206,1064 14106,1264 Z"/>
 <path fill="none" stroke="rgb(87,157,28)" stroke-linejoin="round" d="M 14106,1264 L 14306,1264 14206,1064 14106,1264 Z"/>
 <path fill="rgb(87,157,28)" stroke="none" d="M 14243,1588 L 14443,1588 14343,1388 14243,1588 Z"/>
 <path fill="none" stroke="rgb(87,157,28)" stroke-linejoin="round" d="M 14243,1588 L 14443,1588 14343,1388 14243,1588 Z"/>
 <path fill="rgb(87,157,28)" stroke="none" d="M 14380,1583 L 14580,1583 14480,1383 14380,1583 Z"/>
 <path fill="none" stroke="rgb(87,157,28)" stroke-linejoin="round" d="M 14380,1583 L 14580,1583 14480,1383 14380,1583 Z"/>
 <path fill="rgb(87,157,28)" stroke="none" d="M 14517,1583 L 14717,1583 14617,1383 14517,1583 Z"/>
 <path fill="none" stroke="rgb(87,157,28)" stroke-linejoin="round" d="M 14517,1583 L 14717,1583 14617,1383 14517,1583 Z"/>
 <text class="TextShape"><tspan class="TextParagraph" font-family="Liberation Sans, sans-serif" font-size="353px" font-weight="400"><tspan class="TextPosition" x="913" y="11741"><tspan fill="rgb(0,0,0)" stroke="none">20/02</tspan></tspan></tspan></text>
 <text class="TextShape"><tspan class="TextParagraph" font-family="Liberation Sans, sans-serif" font-size="353px" font-weight="400"><tspan class="TextPosition" x="1871" y="11741"><tspan fill="rgb(0,0,0)" stroke="none">27/02</tspan></tspan></tspan></text>
 <text class="TextShape"><tspan class="TextParagraph" font-family="Liberation Sans, sans-serif" font-size="353px" font-weight="400"><tspan class="TextPosition" x="2830" y="11741"><tspan fill="rgb(0,0,0)" stroke="none">05/03</tspan></tspan></tspan></text>
 <text class="TextShape"><tspan class="TextParagraph" font-family="Liberation Sans, sans-serif" font-size="353px" font-weight="400"><tspan class="TextPosition" x="3788" y="11741"><tspan fill="rgb(0,0,0)" stroke="none">12/03</tspan></tspan></tspan></text>
 <text class="TextShape"><tspan class="TextParagraph" font-family="Liberation Sans, sans-serif" font-size="353px" font-weight="400"><tspan class="TextPosition" x="4747" y="11741"><tspan fill="rgb(0,0,0)" stroke="none">19/03</tspan></tspan></tspan></text>
 <text class="TextShape"><tspan class="TextParagraph" font-family="Liberation Sans, sans-serif" font-size="353px" font-weight="400"><tspan class="TextPosition" x="5705" y="11741"><tspan fill="rgb(0,0,0)" stroke="none">26/03</tspan></tspan></tspan></text>
 <text class="TextShape"><tspan class="TextParagraph" font-family="Liberation Sans, sans-serif" font-size="353px" font-weight="400"><tspan class="TextPosition" x="6664" y="11741"><tspan fill="rgb(0,0,0)" stroke="none">02/04</tspan></tspan></tspan></text>
 <text class="TextShape"><tspan class="TextParagraph" font-family="Liberation Sans, sans-serif" font-size="353px" font-weight="400"><tspan class="TextPosition" x="7622" y="11741"><tspan fill="rgb(0,0,0)" stroke="none">09/04</tspan></tspan></tspan></text>
 <text class="TextShape"><tspan class="TextParagraph" font-family="Liberation Sans, sans-serif" font-size="353px" font-weight="400"><tspan class="TextPosition" x="8580" y="11741"><tspan fill="rgb(0,0,0)" stroke="none">16/04</tspan></tspan></tspan></text>
 <text class="TextShape"><tspan class="TextParagraph" font-family="Liberation Sans, sans-serif" font-size="353px" font-weight="400"><tspan class="TextPosition" x="9539" y="11741"><tspan fill="rgb(0,0,0)" stroke="none">23/04</tspan></tspan></tspan></text>
 <text class="TextShape"><tspan class="TextParagraph" font-family="Liberation Sans, sans-serif" font-size="353px" font-weight="400"><tspan class="TextPosition" x="10497" y="11741"><tspan fill="rgb(0,0,0)" stroke="none">30/04</tspan></tspan></tspan></text>
 <text class="TextShape"><tspan class="TextParagraph" font-family="Liberation Sans, sans-serif" font-size="353px" font-weight="400"><tspan class="TextPosition" x="11456" y="11741"><tspan fill="rgb(0,0,0)" stroke="none">07/05</tspan></tspan></tspan></text>
 <text class="TextShape"><tspan class="TextParagraph" font-family="Liberation Sans, sans-serif" font-size="353px" font-weight="400"><tspan class="TextPosition" x="12414" y="11741"><tspan fill="rgb(0,0,0)" stroke="none">14/05</tspan></tspan></tspan></text>
 <text class="TextShape"><tspan class="TextParagraph" font-family="Liberation Sans, sans-serif" font-size="353px" font-weight="400"><tspan class="TextPosition" x="13373" y="11741"><tspan fill="rgb(0,0,0)" stroke="none">21/05</tspan></tspan></tspan></text>
 <text class="TextShape"><tspan class="TextParagraph" font-family="Liberation Sans, sans-serif" font-size="353px" font-weight="400"><tspan class="TextPosition" x="833" y="11294"><tspan fill="rgb(0,0,0)" stroke="none">0</tspan></tspan></tspan></text>
 <text class="TextShape"><tspan class="TextParagraph" font-family="Liberation Sans, sans-serif" font-size="353px" font-weight="400"><tspan class="TextPosition" x="171" y="10178"><tspan fill="rgb(0,0,0)" stroke="none">1.000</tspan></tspan></tspan></text>
 <text class="TextShape"><tspan class="TextParagraph" font-family="Liberation Sans, sans-serif" font-size="353px" font-weight="400"><tspan class="TextPosition" x="171" y="9063"><tspan fill="rgb(0,0,0)" stroke="none">2.000</tspan></tspan></tspan></text>
 <text class="TextShape"><tspan class="TextParagraph" font-family="Liberation Sans, sans-serif" font-size="353px" font-weight="400"><tspan class="TextPosition" x="171" y="7948"><tspan fill="rgb(0,0,0)" stroke="none">3.000</tspan></tspan></tspan></text>
 <text class="TextShape"><tspan class="TextParagraph" font-family="Liberation Sans, sans-serif" font-size="353px" font-weight="400"><tspan class="TextPosition" x="171" y="6833"><tspan fill="rgb(0,0,0)" stroke="none">4.000</tspan></tspan></tspan></text>
 <text class="TextShape"><tspan class="TextParagraph" font-family="Liberation Sans, sans-serif" font-size="353px" font-weight="400"><tspan class="TextPosition" x="171" y="5718"><tspan fill="rgb(0,0,0)" stroke="none">5.000</tspan></tspan></tspan></text>
 <text class="TextShape"><tspan class="TextParagraph" font-family="Liberation Sans, sans-serif" font-size="353px" font-weight="400"><tspan class="TextPosition" x="171" y="4603"><tspan fill="rgb(0,0,0)" stroke="none">6.000</tspan></tspan></tspan></text>
 <text class="TextShape"><tspan class="TextParagraph" font-family="Liberation Sans, sans-serif" font-size="353px" font-weight="400"><tspan class="TextPosition" x="171" y="3488"><tspan fill="rgb(0,0,0)" stroke="none">7.000</tspan></tspan></tspan></text>
 <text class="TextShape"><tspan class="TextParagraph" font-family="Liberation Sans, sans-serif" font-size="353px" font-weight="400"><tspan class="TextPosition" x="171" y="2373"><tspan fill="rgb(0,0,0)" stroke="none">8.000</tspan></tspan></tspan></text>
 <text class="TextShape"><tspan class="TextParagraph" font-family="Liberation Sans, sans-serif" font-size="353px" font-weight="400"><tspan class="TextPosition" x="171" y="1258"><tspan fill="rgb(0,0,0)" stroke="none">9.000</tspan></tspan></tspan></text>
 <text class="TextShape"><tspan class="TextParagraph" font-family="Liberation Sans, sans-serif" font-size="459px" font-weight="400"><tspan class="TextPosition" x="4195" y="724"><tspan fill="rgb(0,0,0)" stroke="none">Covid-19. Muertes acumuladas CCAA (1)</tspan></tspan></tspan></text>
 <path fill="none" stroke="rgb(0,0,0)" stroke-width="50" stroke-linejoin="round" d="M 4256,2812 L 5056,2812"/>
 <path fill="rgb(0,0,0)" stroke="none" d="M 4550,2812 L 4656,2918 4761,2812 4656,2707 4550,2812 Z"/>
 <path fill="none" stroke="rgb(0,0,0)" stroke-linejoin="round" d="M 4550,2812 L 4656,2918 4761,2812 4656,2707 4550,2812 Z"/>
 <path fill="none" stroke="rgb(255,66,14)" stroke-width="50" stroke-linejoin="round" d="M 4256,3939 L 5056,3939"/>
 <path fill="rgb(255,66,14)" stroke="none" d="M 4550,3939 L 4656,4045 4761,3939 4656,3834 4550,3939 Z"/>
 <path fill="none" stroke="rgb(255,66,14)" stroke-linejoin="round" d="M 4550,3939 L 4656,4045 4761,3939 4656,3834 4550,3939 Z"/>
 <path fill="none" stroke="rgb(255,211,32)" stroke-width="50" stroke-linejoin="round" d="M 4256,5066 L 5056,5066"/>
 <path fill="rgb(255,211,32)" stroke="none" d="M 4550,4961 L 4656,5172 4761,4961 4550,4961 Z"/>
 <path fill="none" stroke="rgb(255,211,32)" stroke-linejoin="round" d="M 4550,4961 L 4656,5172 4761,4961 4550,4961 Z"/>
 <path fill="none" stroke="rgb(87,157,28)" stroke-width="50" stroke-linejoin="round" d="M 4256,6192 L 5056,6192"/>
 <path fill="rgb(87,157,28)" stroke="none" d="M 4550,6298 L 4761,6298 4656,6087 4550,6298 Z"/>
 <path fill="none" stroke="rgb(87,157,28)" stroke-linejoin="round" d="M 4550,6298 L 4761,6298 4656,6087 4550,6298 Z"/>
 <text class="TextShape"><tspan class="TextParagraph" font-family="Liberation Sans, sans-serif" font-size="353px" font-weight="400"><tspan class="TextPosition" x="5156" y="2932"><tspan fill="rgb(0,0,0)" stroke="none">CastillaLa Mancha</tspan></tspan></tspan></text>
 <text class="TextShape"><tspan class="TextParagraph" font-family="Liberation Sans, sans-serif" font-size="353px" font-weight="400"><tspan class="TextPosition" x="5156" y="4059"><tspan fill="rgb(0,0,0)" stroke="none">Castilla y Len</tspan></tspan></tspan></text>
 <text class="TextShape"><tspan class="TextParagraph" font-family="Liberation Sans, sans-serif" font-size="353px" font-weight="400"><tspan class="TextPosition" x="5156" y="5186"><tspan fill="rgb(0,0,0)" stroke="none">Catalua</tspan></tspan></tspan></text>
 <text class="TextShape"><tspan class="TextParagraph" font-family="Liberation Sans, sans-serif" font-size="353px" font-weight="400"><tspan class="TextPosition" x="5156" y="6312"><tspan fill="rgb(0,0,0)" stroke="none">Madrid</tspan></tspan></tspan></text>
</svg>