<?xml version="1.0" encoding="UTF-8"?>
<!DOCTYPE svg PUBLIC "-//W3C//DTD SVG 1.1//EN" "http://www.w3.org/Graphics/SVG/1.1/DTD/svg11.dtd">
<svg width="150mm" height="120mm" viewBox="0 0 15000 12000" version="1.1" xmlns="http://www.w3.org/2000/svg" xmlns:xlink="http://www.w3.org/1999/xlink" stroke-width="28.222" stroke-linejoin="round" xml:space="preserve">
 <path fill="rgb(255,255,255)" stroke="none" d="M 7500,12000 L 0,12000 0,0 15000,0 15000,12000 7500,12000 Z"/>
 <path fill="none" stroke="rgb(0,0,0)" stroke-linejoin="round" d="M 7983,11164 L 1266,11164 1266,1241 14701,1241 14701,11164 7983,11164 Z"/>
 <path fill="none" stroke="rgb(0,0,0)" stroke-linejoin="round" d="M 14701,11163 L 1266,11163"/>
 <path fill="none" stroke="rgb(0,0,0)" stroke-linejoin="round" d="M 14701,10170 L 1266,10170"/>
 <path fill="none" stroke="rgb(0,0,0)" stroke-linejoin="round" d="M 14701,9178 L 1266,9178"/>
 <path fill="none" stroke="rgb(0,0,0)" stroke-linejoin="round" d="M 14701,8185 L 1266,8185"/>
 <path fill="none" stroke="rgb(0,0,0)" stroke-linejoin="round" d="M 14701,7193 L 1266,7193"/>
 <path fill="none" stroke="rgb(0,0,0)" stroke-linejoin="round" d="M 14701,6201 L 1266,6201"/>
 <path fill="none" stroke="rgb(0,0,0)" stroke-linejoin="round" d="M 14701,5209 L 1266,5209"/>
 <path fill="none" stroke="rgb(0,0,0)" stroke-linejoin="round" d="M 14701,4217 L 1266,4217"/>
 <path fill="none" stroke="rgb(0,0,0)" stroke-linejoin="round" d="M 14701,3224 L 1266,3224"/>
 <path fill="none" stroke="rgb(0,0,0)" stroke-linejoin="round" d="M 14701,2232 L 1266,2232"/>
 <path fill="none" stroke="rgb(0,0,0)" stroke-linejoin="round" d="M 14701,1240 L 1266,1240"/>
 <path fill="none" stroke="rgb(0,0,0)" stroke-linejoin="round" d="M 1266,11313 L 1266,11163"/>
 <path fill="none" stroke="rgb(0,0,0)" stroke-linejoin="round" d="M 1266,11313 L 1266,11163"/>
 <path fill="none" stroke="rgb(0,0,0)" stroke-linejoin="round" d="M 2128,11313 L 2128,11163"/>
 <path fill="none" stroke="rgb(0,0,0)" stroke-linejoin="round" d="M 2128,11313 L 2128,11163"/>
 <path fill="none" stroke="rgb(0,0,0)" stroke-linejoin="round" d="M 2991,11313 L 2991,11163"/>
 <path fill="none" stroke="rgb(0,0,0)" stroke-linejoin="round" d="M 2991,11313 L 2991,11163"/>
 <path fill="none" stroke="rgb(0,0,0)" stroke-linejoin="round" d="M 3854,11313 L 3854,11163"/>
 <path fill="none" stroke="rgb(0,0,0)" stroke-linejoin="round" d="M 3854,11313 L 3854,11163"/>
 <path fill="none" stroke="rgb(0,0,0)" stroke-linejoin="round" d="M 4717,11313 L 4717,11163"/>
 <path fill="none" stroke="rgb(0,0,0)" stroke-linejoin="round" d="M 4717,11313 L 4717,11163"/>
 <path fill="none" stroke="rgb(0,0,0)" stroke-linejoin="round" d="M 5580,11313 L 5580,11163"/>
 <path fill="none" stroke="rgb(0,0,0)" stroke-linejoin="round" d="M 5580,11313 L 5580,11163"/>
 <path fill="none" stroke="rgb(0,0,0)" stroke-linejoin="round" d="M 6443,11313 L 6443,11163"/>
 <path fill="none" stroke="rgb(0,0,0)" stroke-linejoin="round" d="M 6443,11313 L 6443,11163"/>
 <path fill="none" stroke="rgb(0,0,0)" stroke-linejoin="round" d="M 7306,11313 L 7306,11163"/>
 <path fill="none" stroke="rgb(0,0,0)" stroke-linejoin="round" d="M 7306,11313 L 7306,11163"/>
 <path fill="none" stroke="rgb(0,0,0)" stroke-linejoin="round" d="M 8167,11313 L 8167,11163"/>
 <path fill="none" stroke="rgb(0,0,0)" stroke-linejoin="round" d="M 8167,11313 L 8167,11163"/>
 <path fill="none" stroke="rgb(0,0,0)" stroke-linejoin="round" d="M 9030,11313 L 9030,11163"/>
 <path fill="none" stroke="rgb(0,0,0)" stroke-linejoin="round" d="M 9030,11313 L 9030,11163"/>
 <path fill="none" stroke="rgb(0,0,0)" stroke-linejoin="round" d="M 9893,11313 L 9893,11163"/>
 <path fill="none" stroke="rgb(0,0,0)" stroke-linejoin="round" d="M 9893,11313 L 9893,11163"/>
 <path fill="none" stroke="rgb(0,0,0)" stroke-linejoin="round" d="M 10756,11313 L 10756,11163"/>
 <path fill="none" stroke="rgb(0,0,0)" stroke-linejoin="round" d="M 10756,11313 L 10756,11163"/>
 <path fill="none" stroke="rgb(0,0,0)" stroke-linejoin="round" d="M 11619,11313 L 11619,11163"/>
 <path fill="none" stroke="rgb(0,0,0)" stroke-linejoin="round" d="M 11619,11313 L 11619,11163"/>
 <path fill="none" stroke="rgb(0,0,0)" stroke-linejoin="round" d="M 12482,11313 L 12482,11163"/>
 <path fill="none" stroke="rgb(0,0,0)" stroke-linejoin="round" d="M 12482,11313 L 12482,11163"/>
 <path fill="none" stroke="rgb(0,0,0)" stroke-linejoin="round" d="M 13345,11313 L 13345,11163"/>
 <path fill="none" stroke="rgb(0,0,0)" stroke-linejoin="round" d="M 13345,11313 L 13345,11163"/>
 <path fill="none" stroke="rgb(0,0,0)" stroke-linejoin="round" d="M 14207,11313 L 14207,11163"/>
 <path fill="none" stroke="rgb(0,0,0)" stroke-linejoin="round" d="M 14207,11313 L 14207,11163"/>
 <path fill="none" stroke="rgb(0,0,0)" stroke-linejoin="round" d="M 1266,11163 L 14701,11163"/>
 <path fill="none" stroke="rgb(0,0,0)" stroke-linejoin="round" d="M 1116,11163 L 1266,11163"/>
 <path fill="none" stroke="rgb(0,0,0)" stroke-linejoin="round" d="M 1116,11163 L 1266,11163"/>
 <path fill="none" stroke="rgb(0,0,0)" stroke-linejoin="round" d="M 1116,10170 L 1266,10170"/>
 <path fill="none" stroke="rgb(0,0,0)" stroke-linejoin="round" d="M 1116,10170 L 1266,10170"/>
 <path fill="none" stroke="rgb(0,0,0)" stroke-linejoin="round" d="M 1116,9178 L 1266,9178"/>
 <path fill="none" stroke="rgb(0,0,0)" stroke-linejoin="round" d="M 1116,9178 L 1266,9178"/>
 <path fill="none" stroke="rgb(0,0,0)" stroke-linejoin="round" d="M 1116,8185 L 1266,8185"/>
 <path fill="none" stroke="rgb(0,0,0)" stroke-linejoin="round" d="M 1116,8185 L 1266,8185"/>
 <path fill="none" stroke="rgb(0,0,0)" stroke-linejoin="round" d="M 1116,7193 L 1266,7193"/>
 <path fill="none" stroke="rgb(0,0,0)" stroke-linejoin="round" d="M 1116,7193 L 1266,7193"/>
 <path fill="none" stroke="rgb(0,0,0)" stroke-linejoin="round" d="M 1116,6201 L 1266,6201"/>
 <path fill="none" stroke="rgb(0,0,0)" stroke-linejoin="round" d="M 1116,6201 L 1266,6201"/>
 <path fill="none" stroke="rgb(0,0,0)" stroke-linejoin="round" d="M 1116,5209 L 1266,5209"/>
 <path fill="none" stroke="rgb(0,0,0)" stroke-linejoin="round" d="M 1116,5209 L 1266,5209"/>
 <path fill="none" stroke="rgb(0,0,0)" stroke-linejoin="round" d="M 1116,4217 L 1266,4217"/>
 <path fill="none" stroke="rgb(0,0,0)" stroke-linejoin="round" d="M 1116,4217 L 1266,4217"/>
 <path fill="none" stroke="rgb(0,0,0)" stroke-linejoin="round" d="M 1116,3224 L 1266,3224"/>
 <path fill="none" stroke="rgb(0,0,0)" stroke-linejoin="round" d="M 1116,3224 L 1266,3224"/>
 <path fill="none" stroke="rgb(0,0,0)" stroke-linejoin="round" d="M 1116,2232 L 1266,2232"/>
 <path fill="none" stroke="rgb(0,0,0)" stroke-linejoin="round" d="M 1116,2232 L 1266,2232"/>
 <path fill="none" stroke="rgb(0,0,0)" stroke-linejoin="round" d="M 1116,1240 L 1266,1240"/>
 <path fill="none" stroke="rgb(0,0,0)" stroke-linejoin="round" d="M 1116,1240 L 1266,1240"/>
 <path fill="none" stroke="rgb(0,0,0)" stroke-linejoin="round" d="M 1266,11163 L 1266,1240"/>
 <path fill="none" stroke="rgb(0,69,134)" stroke-width="100" stroke-linejoin="round" d="M 1266,11163 L 1389,11160 1512,11135 1635,11128 1759,11119 1882,11117 2005,11108 2128,11108 2252,11096 2375,11092 2498,11076 2621,11071 2745,11060 2868,11051 2991,11046 3114,11030 3238,11016 3361,10982 3484,10946 3608,10927 3731,10902 3854,10893 3977,10882 4101,10847 4224,10825 4347,10809 4470,10788 4594,10781 4717,10772 4840,10763 4963,11032 5087,11030 5210,11019 5333,11014 5457,11003 5580,10996 5703,10994 5826,10989 5950,10987 6073,10984 6196,10980 6319,10968 6443,10966 6566,10962 6689,10955 6812,10943 6936,10943 7059,10939 7182,10930 7306,10925 7429,10920 7551,10914 7674,10902 7798,10900 7921,10898 8044,10882 8167,10872 8291,10868 8414,10857 8537,10847 8660,10834 8784,10825 8907,10813 9030,10799 9154,10783 9277,10751 9400,10717 9523,10701 9647,10669 9770,10653 9893,10608 10016,10576 10140,10544 10263,10507 10386,10466 10509,10409 10633,10354 10756,10318 10879,10272 11003,10197 11126,10119 11249,10007 11372,9934 11496,9859 11619,9811 11742,9742 11865,9637 11989,9523 12112,9411 12235,9251 12358,9071 12482,8904 12605,8701 12728,8383 12852,8082 12975,7767 13098,7438 13221,7043 13345,6787 13468,6511 13591,5900 13714,5478 13838,5000 13961,4571 14084,4117 14207,3779 14331,3411 14454,2623 14577,2173 14701,1870"/>
 <path fill="none" stroke="rgb(255,66,14)" stroke-width="100" stroke-linejoin="round" d="M 1266,11161 L 1389,11160 1512,11157 1635,11156 1759,11155 1882,11155 2005,11155 2128,11139 2252,11124 2375,11123 2498,11123 2621,11121 2745,11121 2868,11121 2991,11078 3114,11075 3238,11076 3361,11061 3484,11054 3608,11054 3731,11054 3854,11037 3977,11023 4101,10949 4224,10940 4347,10925 4470,10925 4594,10925 4717,10905 4840,10875 4963,10847 5087,10832 5210,10824 5333,10824 5457,10824 5580,10775 5703,10741 5826,10717 5950,10693 6073,10586 6196,10586 6319,10586 6443,10528 6566,10483 6689,10463 6812,10421 6936,10393 7059,10393 7182,10393 7306,10334 7429,10243 7551,10103 7674,10008 7798,9955 7921,9955 8044,9955 8167,9857 8291,9716 8414,9640 8537,9591 8660,9524 8784,9524 8907,9524 9030,9419 9154,9301 9277,9197 9400,9091 9523,9024 9647,9024 9770,9024 9893,8943 10016,8790 10140,8746 10263,8672 10386,8531 10509,8531 10633,8531 10756,8417 10879,8370 11003,8248 11126,8166 11249,8036 11372,8036 11496,8036 11619,7909 11742,7782 11865,7690 11989,7600 12112,7465 12235,7465 12358,7465 12482,7301 12605,7145 12728,7047 12852,6945 12975,6806 13098,6806 13221,6806 13345,6584 13468,6445 13591,5496 13714,5281 13838,5078 13961,5078 14084,5078 14207,4778 14331,4538 14454,4333 14577,4125 14701,3945"/>
 <path fill="none" stroke="rgb(255,211,32)" stroke-width="100" stroke-linejoin="round" d="M 1266,11163 L 1389,11111 1512,11060 1635,11060 1759,11060 1882,10957 2005,10906 2128,10854 2252,10854 2375,10854 2498,10803 2621,10751 2745,10700 2868,10649 2991,10597 3114,10597 3238,10597 3361,10597 3484,10546 3608,10546 3731,10546 3854,10546 3977,10546 4101,10546 4224,10546 4347,10546 4470,10546 4594,10546 4717,10546 4840,10546 4963,10546 5087,10546 5210,10546 5333,10546 5457,10546 5580,10546 5703,10546 5826,10546 5950,10546 6073,10546 6196,10546 6319,10546 6443,10546 6566,10546 6689,10546 6812,10546 6936,10546 7059,10546 7182,10546 7306,10546 7429,10546 7551,10546 7674,10546 7798,10546 7921,10546 8044,10546 8167,10546 8291,10546 8414,10546 8537,10546 8660,10546 8784,10546 8907,10546 9030,10546 9154,10546 9277,10495 9400,10495 9523,10495 9647,10495 9770,10392 9893,10340 10016,10340 10140,10289 10263,10238 10386,10238 10509,10238 10633,10084 10756,10084 10879,10084 11003,10084 11126,10084 11249,10084 11372,10084 11496,9981 11619,9929 11742,9827 11865,9724 11989,9673 12112,9673 12235,9673 12358,9364 12482,9364 12605,9364 12728,9210 12852,9107 12975,9107 13098,9107 13221,8696 13345,8337 13468,8131 13591,7823 13714,7618 13838,7309 13961,7001 14084,7669 14207,6641 14331,6333 14454,6076"/>
 <path fill="none" stroke="rgb(87,157,28)" stroke-width="100" stroke-linejoin="round" d="M 1266,11156 L 1389,11151 1512,11145 1635,11139 1759,11135 1882,11135 2005,11135 2128,11125 2252,11124 2375,11121 2498,11118 2621,11113 2745,11113 2868,11113 2991,11107 3114,11102 3238,11096 3361,11090 3484,11083 3608,11083 3731,11083 3854,11074 3977,11066 4101,11060 4224,11055 4347,11047 4470,11044 4594,11043 4717,11038 4840,11032 4963,11032 5087,11020 5210,11012 5333,11010 5457,11009 5580,10998 5703,10988 5826,10979 5950,10971 6073,10979 6196,10974 6319,10973 6443,10964 6566,10950 6689,10941 6812,10932 6936,10902 7059,10896 7182,10893 7306,10881 7429,10863 7551,10845 7674,10827 7798,10770 7921,10760 8044,10756 8167,10737 8291,10708 8414,10692 8537,10672 8660,10617 8784,10602 8907,10592 9030,10562 9154,10530 9277,10507 9400,10484 9523,10433 9647,10417 9770,10405 9893,10379 10016,10355 10140,10325 10263,10297 10386,10256 10509,10236 10633,10219 10756,10184 10879,10144 11003,10105 11126,10072 11249,10006 11372,9973 11496,9942 11619,9887 11742,9790 11865,9729 11989,9669 12112,9558 12235,9508 12358,9464 12482,9369 12605,9175 12728,9084 12852,8997 12975,8794 13098,8711 13221,8625 13345,8471 13468,8153 13591,8010 13714,7875 13838,7568 13961,7455 14084,7354 14207,7151 14331,6697 14454,6575 14577,6417 14701,6071"/>
 <path fill="none" stroke="rgb(126,0,33)" stroke-width="80" stroke-linejoin="round" d="M 3238,11163 L 3361,11163 3484,11151 3608,11149 3731,11147 3854,11146 3977,11141 4101,11134 4224,11131 4347,11131 4470,11123 4594,11121 4717,11119 4840,11112 4963,11106 5087,11100 5210,11097 5333,11092 5457,11091 5580,11090 5703,11089 5826,11085 5950,11080 6073,11075 6196,11070 6319,11069 6443,11068 6566,11056 6689,11051 6812,11046 6936,11043 7059,11039 7182,11037 7306,11033 7429,11022 7551,11014 7674,11005 7798,10994 7921,10982 8044,10975 8167,10970 8291,10955 8414,10939 8537,10922 8660,10908 8784,10894 8907,10886 9030,10881 9154,10851 9277,10821 9400,10797 9523,10769 9647,10749 9770,10735 9893,10727 10016,10695 10140,10666 10263,10633 10386,10597 10509,10563 10633,10536 10756,10515 10879,10455 11003,10397 11126,10340 11249,10283 11372,10220 11496,10192 11619,10158 11742,10057 11865,9977 11989,9898 12112,9804 12235,9731 12358,9668 12482,9625 12605,9471 12728,9342 12852,9224 12975,9109 13098,8973 13221,8905 13345,8848 13468,8682 13591,8475 13714,8317 13838,8168 13961,7995 14084,7930 14207,7922 14331,7626 14454,7376 14577,7141 14701,6983"/>
 <text class="TextShape"><tspan class="TextParagraph" font-family="Liberation Sans, sans-serif" font-size="353px" font-weight="400"><tspan class="TextPosition" x="842" y="11731"><tspan fill="rgb(0,0,0)" stroke="none">27/07</tspan></tspan></tspan></text>
 <text class="TextShape"><tspan class="TextParagraph" font-family="Liberation Sans, sans-serif" font-size="353px" font-weight="400"><tspan class="TextPosition" x="1704" y="11731"><tspan fill="rgb(0,0,0)" stroke="none">03/08</tspan></tspan></tspan></text>
 <text class="TextShape"><tspan class="TextParagraph" font-family="Liberation Sans, sans-serif" font-size="353px" font-weight="400"><tspan class="TextPosition" x="2567" y="11731"><tspan fill="rgb(0,0,0)" stroke="none">10/08</tspan></tspan></tspan></text>
 <text class="TextShape"><tspan class="TextParagraph" font-family="Liberation Sans, sans-serif" font-size="353px" font-weight="400"><tspan class="TextPosition" x="3430" y="11731"><tspan fill="rgb(0,0,0)" stroke="none">17/08</tspan></tspan></tspan></text>
 <text class="TextShape"><tspan class="TextParagraph" font-family="Liberation Sans, sans-serif" font-size="353px" font-weight="400"><tspan class="TextPosition" x="4293" y="11731"><tspan fill="rgb(0,0,0)" stroke="none">24/08</tspan></tspan></tspan></text>
 <text class="TextShape"><tspan class="TextParagraph" font-family="Liberation Sans, sans-serif" font-size="353px" font-weight="400"><tspan class="TextPosition" x="5156" y="11731"><tspan fill="rgb(0,0,0)" stroke="none">31/08</tspan></tspan></tspan></text>
 <text class="TextShape"><tspan class="TextParagraph" font-family="Liberation Sans, sans-serif" font-size="353px" font-weight="400"><tspan class="TextPosition" x="6019" y="11731"><tspan fill="rgb(0,0,0)" stroke="none">07/09</tspan></tspan></tspan></text>
 <text class="TextShape"><tspan class="TextParagraph" font-family="Liberation Sans, sans-serif" font-size="353px" font-weight="400"><tspan class="TextPosition" x="6882" y="11731"><tspan fill="rgb(0,0,0)" stroke="none">14/09</tspan></tspan></tspan></text>
 <text class="TextShape"><tspan class="TextParagraph" font-family="Liberation Sans, sans-serif" font-size="353px" font-weight="400"><tspan class="TextPosition" x="7744" y="11731"><tspan fill="rgb(0,0,0)" stroke="none">21/09</tspan></tspan></tspan></text>
 <text class="TextShape"><tspan class="TextParagraph" font-family="Liberation Sans, sans-serif" font-size="353px" font-weight="400"><tspan class="TextPosition" x="8607" y="11731"><tspan fill="rgb(0,0,0)" stroke="none">28/09</tspan></tspan></tspan></text>
 <text class="TextShape"><tspan class="TextParagraph" font-family="Liberation Sans, sans-serif" font-size="353px" font-weight="400"><tspan class="TextPosition" x="9470" y="11731"><tspan fill="rgb(0,0,0)" stroke="none">05/10</tspan></tspan></tspan></text>
 <text class="TextShape"><tspan class="TextParagraph" font-family="Liberation Sans, sans-serif" font-size="353px" font-weight="400"><tspan class="TextPosition" x="10333" y="11731"><tspan fill="rgb(0,0,0)" stroke="none">12/10</tspan></tspan></tspan></text>
 <text class="TextShape"><tspan class="TextParagraph" font-family="Liberation Sans, sans-serif" font-size="353px" font-weight="400"><tspan class="TextPosition" x="11196" y="11731"><tspan fill="rgb(0,0,0)" stroke="none">19/10</tspan></tspan></tspan></text>
 <text class="TextShape"><tspan class="TextParagraph" font-family="Liberation Sans, sans-serif" font-size="353px" font-weight="400"><tspan class="TextPosition" x="12059" y="11731"><tspan fill="rgb(0,0,0)" stroke="none">26/10</tspan></tspan></tspan></text>
 <text class="TextShape"><tspan class="TextParagraph" font-family="Liberation Sans, sans-serif" font-size="353px" font-weight="400"><tspan class="TextPosition" x="12922" y="11731"><tspan fill="rgb(0,0,0)" stroke="none">02/11</tspan></tspan></tspan></text>
 <text class="TextShape"><tspan class="TextParagraph" font-family="Liberation Sans, sans-serif" font-size="353px" font-weight="400"><tspan class="TextPosition" x="13784" y="11731"><tspan fill="rgb(0,0,0)" stroke="none">09/11</tspan></tspan></tspan></text>
 <text class="TextShape"><tspan class="TextParagraph" font-family="Liberation Sans, sans-serif" font-size="353px" font-weight="400"><tspan class="TextPosition" x="460" y="10291"><tspan fill="rgb(0,0,0)" stroke="none">200</tspan></tspan></tspan></text>
 <text class="TextShape"><tspan class="TextParagraph" font-family="Liberation Sans, sans-serif" font-size="353px" font-weight="400"><tspan class="TextPosition" x="460" y="9299"><tspan fill="rgb(0,0,0)" stroke="none">400</tspan></tspan></tspan></text>
 <text class="TextShape"><tspan class="TextParagraph" font-family="Liberation Sans, sans-serif" font-size="353px" font-weight="400"><tspan class="TextPosition" x="460" y="8306"><tspan fill="rgb(0,0,0)" stroke="none">600</tspan></tspan></tspan></text>
 <text class="TextShape"><tspan class="TextParagraph" font-family="Liberation Sans, sans-serif" font-size="353px" font-weight="400"><tspan class="TextPosition" x="460" y="7314"><tspan fill="rgb(0,0,0)" stroke="none">800</tspan></tspan></tspan></text>
 <text class="TextShape"><tspan class="TextParagraph" font-family="Liberation Sans, sans-serif" font-size="353px" font-weight="400"><tspan class="TextPosition" x="169" y="6322"><tspan fill="rgb(0,0,0)" stroke="none">1.000</tspan></tspan></tspan></text>
 <text class="TextShape"><tspan class="TextParagraph" font-family="Liberation Sans, sans-serif" font-size="353px" font-weight="400"><tspan class="TextPosition" x="169" y="5329"><tspan fill="rgb(0,0,0)" stroke="none">1.200</tspan></tspan></tspan></text>
 <text class="TextShape"><tspan class="TextParagraph" font-family="Liberation Sans, sans-serif" font-size="353px" font-weight="400"><tspan class="TextPosition" x="169" y="4337"><tspan fill="rgb(0,0,0)" stroke="none">1.400</tspan></tspan></tspan></text>
 <text class="TextShape"><tspan class="TextParagraph" font-family="Liberation Sans, sans-serif" font-size="353px" font-weight="400"><tspan class="TextPosition" x="169" y="3344"><tspan fill="rgb(0,0,0)" stroke="none">1.600</tspan></tspan></tspan></text>
 <text class="TextShape"><tspan class="TextParagraph" font-family="Liberation Sans, sans-serif" font-size="353px" font-weight="400"><tspan class="TextPosition" x="169" y="2352"><tspan fill="rgb(0,0,0)" stroke="none">1.800</tspan></tspan></tspan></text>
 <text class="TextShape"><tspan class="TextParagraph" font-family="Liberation Sans, sans-serif" font-size="353px" font-weight="400"><tspan class="TextPosition" x="169" y="1360"><tspan fill="rgb(0,0,0)" stroke="none">2.000</tspan></tspan></tspan></text>
 <text class="TextShape"><tspan class="TextParagraph" font-family="Liberation Sans, sans-serif" font-size="423px" font-weight="400"><tspan class="TextPosition" x="3169" y="585"><tspan fill="rgb(0,0,0)" stroke="none">Muertes acumuladas por millón de mayores de 65 años</tspan></tspan></tspan><tspan class="TextParagraph" font-family="Liberation Sans, sans-serif" font-size="423px" font-weight="400"><tspan class="TextPosition" x="6014" y="1035"><tspan fill="rgb(0,0,0)" stroke="none">en Europa Occidental (1)</tspan></tspan></tspan></text>
 <path fill="none" stroke="rgb(0,69,134)" stroke-width="100" stroke-linejoin="round" d="M 2056,1762 L 2856,1762"/>
 <path fill="none" stroke="rgb(255,66,14)" stroke-width="100" stroke-linejoin="round" d="M 2056,2754 L 2856,2754"/>
 <path fill="none" stroke="rgb(255,211,32)" stroke-width="100" stroke-linejoin="round" d="M 2056,3746 L 2856,3746"/>
 <path fill="none" stroke="rgb(87,157,28)" stroke-width="100" stroke-linejoin="round" d="M 2056,4738 L 2856,4738"/>
 <path fill="none" stroke="rgb(126,0,33)" stroke-width="80" stroke-linejoin="round" d="M 2056,5730 L 2856,5730"/>
 <text class="TextShape"><tspan class="TextParagraph" font-family="Liberation Sans, sans-serif" font-size="353px" font-weight="400"><tspan class="TextPosition" x="2956" y="1882"><tspan fill="rgb(0,0,0)" stroke="none">Bélgica</tspan></tspan></tspan></text>
 <text class="TextShape"><tspan class="TextParagraph" font-family="Liberation Sans, sans-serif" font-size="353px" font-weight="400"><tspan class="TextPosition" x="2956" y="2874"><tspan fill="rgb(0,0,0)" stroke="none">España</tspan></tspan></tspan></text>
 <text class="TextShape"><tspan class="TextParagraph" font-family="Liberation Sans, sans-serif" font-size="353px" font-weight="400"><tspan class="TextPosition" x="2956" y="3866"><tspan fill="rgb(0,0,0)" stroke="none">Luxemburgo</tspan></tspan></tspan></text>
 <text class="TextShape"><tspan class="TextParagraph" font-family="Liberation Sans, sans-serif" font-size="353px" font-weight="400"><tspan class="TextPosition" x="2956" y="4858"><tspan fill="rgb(0,0,0)" stroke="none">Francia</tspan></tspan></tspan></text>
 <text class="TextShape"><tspan class="TextParagraph" font-family="Liberation Sans, sans-serif" font-size="353px" font-weight="400"><tspan class="TextPosition" x="2956" y="5850"><tspan fill="rgb(0,0,0)" stroke="none">Reino Unido</tspan></tspan></tspan></text>
</svg>