<?xml version="1.0" encoding="UTF-8"?>
<!DOCTYPE svg PUBLIC "-//W3C//DTD SVG 1.1//EN" "http://www.w3.org/Graphics/SVG/1.1/DTD/svg11.dtd">
<svg width="150mm" height="120mm" viewBox="0 0 15000 12000" version="1.1" xmlns="http://www.w3.org/2000/svg" xmlns:xlink="http://www.w3.org/1999/xlink" stroke-width="28.222" stroke-linejoin="round" xml:space="preserve">
 <path fill="rgb(255,255,255)" stroke="none" d="M 7500,12000 L 0,12000 0,0 15000,0 15000,12000 7500,12000 Z"/>
 <path fill="none" stroke="rgb(0,0,0)" stroke-linejoin="round" d="M 7949,11207 L 1213,11207 1213,1028 14686,1028 14686,11207 7949,11207 Z"/>
 <path fill="none" stroke="rgb(0,0,0)" stroke-linejoin="round" d="M 14686,11206 L 1213,11206"/>
 <path fill="none" stroke="rgb(0,0,0)" stroke-linejoin="round" d="M 14686,9266 L 1213,9266"/>
 <path fill="none" stroke="rgb(0,0,0)" stroke-linejoin="round" d="M 14686,7327 L 1213,7327"/>
 <path fill="none" stroke="rgb(0,0,0)" stroke-linejoin="round" d="M 14686,5389 L 1213,5389"/>
 <path fill="none" stroke="rgb(0,0,0)" stroke-linejoin="round" d="M 14686,3450 L 1213,3450"/>
 <path fill="none" stroke="rgb(0,0,0)" stroke-linejoin="round" d="M 14686,1511 L 1213,1511"/>
 <path fill="none" stroke="rgb(0,0,0)" stroke-linejoin="round" d="M 1213,11356 L 1213,11206"/>
 <path fill="none" stroke="rgb(0,0,0)" stroke-linejoin="round" d="M 1213,11356 L 1213,11206"/>
 <path fill="none" stroke="rgb(0,0,0)" stroke-linejoin="round" d="M 2642,11356 L 2642,11206"/>
 <path fill="none" stroke="rgb(0,0,0)" stroke-linejoin="round" d="M 2642,11356 L 2642,11206"/>
 <path fill="none" stroke="rgb(0,0,0)" stroke-linejoin="round" d="M 4071,11356 L 4071,11206"/>
 <path fill="none" stroke="rgb(0,0,0)" stroke-linejoin="round" d="M 4071,11356 L 4071,11206"/>
 <path fill="none" stroke="rgb(0,0,0)" stroke-linejoin="round" d="M 5500,11356 L 5500,11206"/>
 <path fill="none" stroke="rgb(0,0,0)" stroke-linejoin="round" d="M 5500,11356 L 5500,11206"/>
 <path fill="none" stroke="rgb(0,0,0)" stroke-linejoin="round" d="M 6929,11356 L 6929,11206"/>
 <path fill="none" stroke="rgb(0,0,0)" stroke-linejoin="round" d="M 6929,11356 L 6929,11206"/>
 <path fill="none" stroke="rgb(0,0,0)" stroke-linejoin="round" d="M 8357,11356 L 8357,11206"/>
 <path fill="none" stroke="rgb(0,0,0)" stroke-linejoin="round" d="M 8357,11356 L 8357,11206"/>
 <path fill="none" stroke="rgb(0,0,0)" stroke-linejoin="round" d="M 9786,11356 L 9786,11206"/>
 <path fill="none" stroke="rgb(0,0,0)" stroke-linejoin="round" d="M 9786,11356 L 9786,11206"/>
 <path fill="none" stroke="rgb(0,0,0)" stroke-linejoin="round" d="M 11215,11356 L 11215,11206"/>
 <path fill="none" stroke="rgb(0,0,0)" stroke-linejoin="round" d="M 11215,11356 L 11215,11206"/>
 <path fill="none" stroke="rgb(0,0,0)" stroke-linejoin="round" d="M 12644,11356 L 12644,11206"/>
 <path fill="none" stroke="rgb(0,0,0)" stroke-linejoin="round" d="M 12644,11356 L 12644,11206"/>
 <path fill="none" stroke="rgb(0,0,0)" stroke-linejoin="round" d="M 14073,11356 L 14073,11206"/>
 <path fill="none" stroke="rgb(0,0,0)" stroke-linejoin="round" d="M 14073,11356 L 14073,11206"/>
 <path fill="none" stroke="rgb(0,0,0)" stroke-linejoin="round" d="M 1213,11206 L 14686,11206"/>
 <path fill="none" stroke="rgb(0,0,0)" stroke-linejoin="round" d="M 1063,11206 L 1213,11206"/>
 <path fill="none" stroke="rgb(0,0,0)" stroke-linejoin="round" d="M 1063,11206 L 1213,11206"/>
 <path fill="none" stroke="rgb(0,0,0)" stroke-linejoin="round" d="M 1063,9266 L 1213,9266"/>
 <path fill="none" stroke="rgb(0,0,0)" stroke-linejoin="round" d="M 1063,9266 L 1213,9266"/>
 <path fill="none" stroke="rgb(0,0,0)" stroke-linejoin="round" d="M 1063,7327 L 1213,7327"/>
 <path fill="none" stroke="rgb(0,0,0)" stroke-linejoin="round" d="M 1063,7327 L 1213,7327"/>
 <path fill="none" stroke="rgb(0,0,0)" stroke-linejoin="round" d="M 1063,5389 L 1213,5389"/>
 <path fill="none" stroke="rgb(0,0,0)" stroke-linejoin="round" d="M 1063,5389 L 1213,5389"/>
 <path fill="none" stroke="rgb(0,0,0)" stroke-linejoin="round" d="M 1063,3450 L 1213,3450"/>
 <path fill="none" stroke="rgb(0,0,0)" stroke-linejoin="round" d="M 1063,3450 L 1213,3450"/>
 <path fill="none" stroke="rgb(0,0,0)" stroke-linejoin="round" d="M 1063,1511 L 1213,1511"/>
 <path fill="none" stroke="rgb(0,0,0)" stroke-linejoin="round" d="M 1063,1511 L 1213,1511"/>
 <path fill="none" stroke="rgb(0,0,0)" stroke-linejoin="round" d="M 1213,11206 L 1213,1027"/>
 <path fill="none" stroke="rgb(0,0,0)" stroke-width="50" stroke-linejoin="round" d="M 6010,11192 L 6214,11164 6418,11157 6623,11130 6827,11075 7031,11047 7235,10999 7439,10931 7642,10883 7846,10807 8051,10608 8255,10429 8459,10285 8663,10216 8867,10003 9071,9783 9275,9584 9480,9501 9684,9089 9888,8849 10092,8622 10296,8278 10500,7976 10705,7832 10909,7577 11113,7048 11317,6725 11521,6457 11725,6141 11929,5716 12134,5606 12338,5462 12542,5263 12746,4940 12950,4747 13154,4562 13359,4383 13563,4246 13767,4218 13971,3991 14175,3792 14379,3600 14583,3435"/>
 <path fill="rgb(0,0,0)" stroke="none" d="M 5910,11192 L 6010,11292 6110,11192 6010,11092 5910,11192 Z"/>
 <path fill="none" stroke="rgb(0,0,0)" stroke-linejoin="round" d="M 5910,11192 L 6010,11292 6110,11192 6010,11092 5910,11192 Z"/>
 <path fill="rgb(0,0,0)" stroke="none" d="M 6114,11164 L 6214,11264 6314,11164 6214,11064 6114,11164 Z"/>
 <path fill="none" stroke="rgb(0,0,0)" stroke-linejoin="round" d="M 6114,11164 L 6214,11264 6314,11164 6214,11064 6114,11164 Z"/>
 <path fill="rgb(0,0,0)" stroke="none" d="M 6318,11157 L 6418,11257 6518,11157 6418,11057 6318,11157 Z"/>
 <path fill="none" stroke="rgb(0,0,0)" stroke-linejoin="round" d="M 6318,11157 L 6418,11257 6518,11157 6418,11057 6318,11157 Z"/>
 <path fill="rgb(0,0,0)" stroke="none" d="M 6523,11130 L 6623,11230 6723,11130 6623,11030 6523,11130 Z"/>
 <path fill="none" stroke="rgb(0,0,0)" stroke-linejoin="round" d="M 6523,11130 L 6623,11230 6723,11130 6623,11030 6523,11130 Z"/>
 <path fill="rgb(0,0,0)" stroke="none" d="M 6727,11075 L 6827,11175 6927,11075 6827,10975 6727,11075 Z"/>
 <path fill="none" stroke="rgb(0,0,0)" stroke-linejoin="round" d="M 6727,11075 L 6827,11175 6927,11075 6827,10975 6727,11075 Z"/>
 <path fill="rgb(0,0,0)" stroke="none" d="M 6931,11047 L 7031,11147 7131,11047 7031,10947 6931,11047 Z"/>
 <path fill="none" stroke="rgb(0,0,0)" stroke-linejoin="round" d="M 6931,11047 L 7031,11147 7131,11047 7031,10947 6931,11047 Z"/>
 <path fill="rgb(0,0,0)" stroke="none" d="M 7135,10999 L 7235,11099 7335,10999 7235,10899 7135,10999 Z"/>
 <path fill="none" stroke="rgb(0,0,0)" stroke-linejoin="round" d="M 7135,10999 L 7235,11099 7335,10999 7235,10899 7135,10999 Z"/>
 <path fill="rgb(0,0,0)" stroke="none" d="M 7339,10931 L 7439,11031 7538,10931 7439,10831 7339,10931 Z"/>
 <path fill="none" stroke="rgb(0,0,0)" stroke-linejoin="round" d="M 7339,10931 L 7439,11031 7538,10931 7439,10831 7339,10931 Z"/>
 <path fill="rgb(0,0,0)" stroke="none" d="M 7542,10883 L 7642,10983 7742,10883 7642,10783 7542,10883 Z"/>
 <path fill="none" stroke="rgb(0,0,0)" stroke-linejoin="round" d="M 7542,10883 L 7642,10983 7742,10883 7642,10783 7542,10883 Z"/>
 <path fill="rgb(0,0,0)" stroke="none" d="M 7746,10807 L 7846,10907 7946,10807 7846,10707 7746,10807 Z"/>
 <path fill="none" stroke="rgb(0,0,0)" stroke-linejoin="round" d="M 7746,10807 L 7846,10907 7946,10807 7846,10707 7746,10807 Z"/>
 <path fill="rgb(0,0,0)" stroke="none" d="M 7951,10608 L 8051,10708 8151,10608 8051,10508 7951,10608 Z"/>
 <path fill="none" stroke="rgb(0,0,0)" stroke-linejoin="round" d="M 7951,10608 L 8051,10708 8151,10608 8051,10508 7951,10608 Z"/>
 <path fill="rgb(0,0,0)" stroke="none" d="M 8155,10429 L 8255,10529 8355,10429 8255,10329 8155,10429 Z"/>
 <path fill="none" stroke="rgb(0,0,0)" stroke-linejoin="round" d="M 8155,10429 L 8255,10529 8355,10429 8255,10329 8155,10429 Z"/>
 <path fill="rgb(0,0,0)" stroke="none" d="M 8359,10285 L 8459,10385 8559,10285 8459,10185 8359,10285 Z"/>
 <path fill="none" stroke="rgb(0,0,0)" stroke-linejoin="round" d="M 8359,10285 L 8459,10385 8559,10285 8459,10185 8359,10285 Z"/>
 <path fill="rgb(0,0,0)" stroke="none" d="M 8563,10216 L 8663,10316 8763,10216 8663,10116 8563,10216 Z"/>
 <path fill="none" stroke="rgb(0,0,0)" stroke-linejoin="round" d="M 8563,10216 L 8663,10316 8763,10216 8663,10116 8563,10216 Z"/>
 <path fill="rgb(0,0,0)" stroke="none" d="M 8767,10003 L 8867,10103 8967,10003 8867,9903 8767,10003 Z"/>
 <path fill="none" stroke="rgb(0,0,0)" stroke-linejoin="round" d="M 8767,10003 L 8867,10103 8967,10003 8867,9903 8767,10003 Z"/>
 <path fill="rgb(0,0,0)" stroke="none" d="M 8971,9783 L 9071,9883 9171,9783 9071,9683 8971,9783 Z"/>
 <path fill="none" stroke="rgb(0,0,0)" stroke-linejoin="round" d="M 8971,9783 L 9071,9883 9171,9783 9071,9683 8971,9783 Z"/>
 <path fill="rgb(0,0,0)" stroke="none" d="M 9175,9584 L 9275,9684 9375,9584 9275,9484 9175,9584 Z"/>
 <path fill="none" stroke="rgb(0,0,0)" stroke-linejoin="round" d="M 9175,9584 L 9275,9684 9375,9584 9275,9484 9175,9584 Z"/>
 <path fill="rgb(0,0,0)" stroke="none" d="M 9380,9501 L 9480,9601 9580,9501 9480,9401 9380,9501 Z"/>
 <path fill="none" stroke="rgb(0,0,0)" stroke-linejoin="round" d="M 9380,9501 L 9480,9601 9580,9501 9480,9401 9380,9501 Z"/>
 <path fill="rgb(0,0,0)" stroke="none" d="M 9584,9089 L 9684,9189 9784,9089 9684,8989 9584,9089 Z"/>
 <path fill="none" stroke="rgb(0,0,0)" stroke-linejoin="round" d="M 9584,9089 L 9684,9189 9784,9089 9684,8989 9584,9089 Z"/>
 <path fill="rgb(0,0,0)" stroke="none" d="M 9788,8849 L 9888,8949 9988,8849 9888,8749 9788,8849 Z"/>
 <path fill="none" stroke="rgb(0,0,0)" stroke-linejoin="round" d="M 9788,8849 L 9888,8949 9988,8849 9888,8749 9788,8849 Z"/>
 <path fill="rgb(0,0,0)" stroke="none" d="M 9992,8622 L 10092,8722 10192,8622 10092,8522 9992,8622 Z"/>
 <path fill="none" stroke="rgb(0,0,0)" stroke-linejoin="round" d="M 9992,8622 L 10092,8722 10192,8622 10092,8522 9992,8622 Z"/>
 <path fill="rgb(0,0,0)" stroke="none" d="M 10196,8278 L 10296,8378 10396,8278 10296,8178 10196,8278 Z"/>
 <path fill="none" stroke="rgb(0,0,0)" stroke-linejoin="round" d="M 10196,8278 L 10296,8378 10396,8278 10296,8178 10196,8278 Z"/>
 <path fill="rgb(0,0,0)" stroke="none" d="M 10400,7976 L 10500,8076 10600,7976 10500,7876 10400,7976 Z"/>
 <path fill="none" stroke="rgb(0,0,0)" stroke-linejoin="round" d="M 10400,7976 L 10500,8076 10600,7976 10500,7876 10400,7976 Z"/>
 <path fill="rgb(0,0,0)" stroke="none" d="M 10605,7832 L 10705,7932 10805,7832 10705,7732 10605,7832 Z"/>
 <path fill="none" stroke="rgb(0,0,0)" stroke-linejoin="round" d="M 10605,7832 L 10705,7932 10805,7832 10705,7732 10605,7832 Z"/>
 <path fill="rgb(0,0,0)" stroke="none" d="M 10809,7577 L 10909,7677 11009,7577 10909,7477 10809,7577 Z"/>
 <path fill="none" stroke="rgb(0,0,0)" stroke-linejoin="round" d="M 10809,7577 L 10909,7677 11009,7577 10909,7477 10809,7577 Z"/>
 <path fill="rgb(0,0,0)" stroke="none" d="M 11013,7048 L 11113,7148 11213,7048 11113,6948 11013,7048 Z"/>
 <path fill="none" stroke="rgb(0,0,0)" stroke-linejoin="round" d="M 11013,7048 L 11113,7148 11213,7048 11113,6948 11013,7048 Z"/>
 <path fill="rgb(0,0,0)" stroke="none" d="M 11217,6725 L 11317,6825 11417,6725 11317,6625 11217,6725 Z"/>
 <path fill="none" stroke="rgb(0,0,0)" stroke-linejoin="round" d="M 11217,6725 L 11317,6825 11417,6725 11317,6625 11217,6725 Z"/>
 <path fill="rgb(0,0,0)" stroke="none" d="M 11421,6457 L 11521,6557 11621,6457 11521,6357 11421,6457 Z"/>
 <path fill="none" stroke="rgb(0,0,0)" stroke-linejoin="round" d="M 11421,6457 L 11521,6557 11621,6457 11521,6357 11421,6457 Z"/>
 <path fill="rgb(0,0,0)" stroke="none" d="M 11625,6141 L 11725,6241 11825,6141 11725,6041 11625,6141 Z"/>
 <path fill="none" stroke="rgb(0,0,0)" stroke-linejoin="round" d="M 11625,6141 L 11725,6241 11825,6141 11725,6041 11625,6141 Z"/>
 <path fill="rgb(0,0,0)" stroke="none" d="M 11829,5716 L 11929,5816 12029,5716 11929,5616 11829,5716 Z"/>
 <path fill="none" stroke="rgb(0,0,0)" stroke-linejoin="round" d="M 11829,5716 L 11929,5816 12029,5716 11929,5616 11829,5716 Z"/>
 <path fill="rgb(0,0,0)" stroke="none" d="M 12034,5606 L 12134,5706 12234,5606 12134,5506 12034,5606 Z"/>
 <path fill="none" stroke="rgb(0,0,0)" stroke-linejoin="round" d="M 12034,5606 L 12134,5706 12234,5606 12134,5506 12034,5606 Z"/>
 <path fill="rgb(0,0,0)" stroke="none" d="M 12238,5462 L 12338,5562 12438,5462 12338,5362 12238,5462 Z"/>
 <path fill="none" stroke="rgb(0,0,0)" stroke-linejoin="round" d="M 12238,5462 L 12338,5562 12438,5462 12338,5362 12238,5462 Z"/>
 <path fill="rgb(0,0,0)" stroke="none" d="M 12442,5263 L 12542,5363 12642,5263 12542,5163 12442,5263 Z"/>
 <path fill="none" stroke="rgb(0,0,0)" stroke-linejoin="round" d="M 12442,5263 L 12542,5363 12642,5263 12542,5163 12442,5263 Z"/>
 <path fill="rgb(0,0,0)" stroke="none" d="M 12646,4940 L 12746,5040 12846,4940 12746,4840 12646,4940 Z"/>
 <path fill="none" stroke="rgb(0,0,0)" stroke-linejoin="round" d="M 12646,4940 L 12746,5040 12846,4940 12746,4840 12646,4940 Z"/>
 <path fill="rgb(0,0,0)" stroke="none" d="M 12850,4747 L 12950,4847 13050,4747 12950,4647 12850,4747 Z"/>
 <path fill="none" stroke="rgb(0,0,0)" stroke-linejoin="round" d="M 12850,4747 L 12950,4847 13050,4747 12950,4647 12850,4747 Z"/>
 <path fill="rgb(0,0,0)" stroke="none" d="M 13054,4562 L 13154,4662 13254,4562 13154,4462 13054,4562 Z"/>
 <path fill="none" stroke="rgb(0,0,0)" stroke-linejoin="round" d="M 13054,4562 L 13154,4662 13254,4562 13154,4462 13054,4562 Z"/>
 <path fill="rgb(0,0,0)" stroke="none" d="M 13259,4383 L 13359,4483 13459,4383 13359,4283 13259,4383 Z"/>
 <path fill="none" stroke="rgb(0,0,0)" stroke-linejoin="round" d="M 13259,4383 L 13359,4483 13459,4383 13359,4283 13259,4383 Z"/>
 <path fill="rgb(0,0,0)" stroke="none" d="M 13463,4246 L 13563,4346 13663,4246 13563,4146 13463,4246 Z"/>
 <path fill="none" stroke="rgb(0,0,0)" stroke-linejoin="round" d="M 13463,4246 L 13563,4346 13663,4246 13563,4146 13463,4246 Z"/>
 <path fill="rgb(0,0,0)" stroke="none" d="M 13667,4218 L 13767,4318 13867,4218 13767,4118 13667,4218 Z"/>
 <path fill="none" stroke="rgb(0,0,0)" stroke-linejoin="round" d="M 13667,4218 L 13767,4318 13867,4218 13767,4118 13667,4218 Z"/>
 <path fill="rgb(0,0,0)" stroke="none" d="M 13871,3991 L 13971,4091 14071,3991 13971,3891 13871,3991 Z"/>
 <path fill="none" stroke="rgb(0,0,0)" stroke-linejoin="round" d="M 13871,3991 L 13971,4091 14071,3991 13971,3891 13871,3991 Z"/>
 <path fill="rgb(0,0,0)" stroke="none" d="M 14075,3792 L 14175,3892 14275,3792 14175,3692 14075,3792 Z"/>
 <path fill="none" stroke="rgb(0,0,0)" stroke-linejoin="round" d="M 14075,3792 L 14175,3892 14275,3792 14175,3692 14075,3792 Z"/>
 <path fill="rgb(0,0,0)" stroke="none" d="M 14279,3600 L 14379,3700 14479,3600 14379,3500 14279,3600 Z"/>
 <path fill="none" stroke="rgb(0,0,0)" stroke-linejoin="round" d="M 14279,3600 L 14379,3700 14479,3600 14379,3500 14279,3600 Z"/>
 <path fill="rgb(0,0,0)" stroke="none" d="M 14483,3435 L 14583,3535 14683,3435 14583,3335 14483,3435 Z"/>
 <path fill="none" stroke="rgb(0,0,0)" stroke-linejoin="round" d="M 14483,3435 L 14583,3535 14683,3435 14583,3335 14483,3435 Z"/>
 <path fill="none" stroke="rgb(255,66,14)" stroke-width="50" stroke-linejoin="round" d="M 5602,11168 L 5806,11168 6010,11168 6214,11168 6418,11168 6623,11168 6827,11168 7031,11168 7235,11131 7439,11019 7642,10907 7846,10757 8051,10384 8255,10272 8459,10197 8663,10123 8867,9973 9071,9674 9275,9376 9480,9152 9684,8853 9888,8629 10092,8591 10296,8367 10500,8218 10705,7994 10909,7620 11113,7396 11317,7098 11521,6687 11725,6425 11929,5978 12134,5642 12338,5381 12542,5007 12746,4933 12950,4709 13154,4223 13359,3887 13563,3738 13767,3663 13971,3327 14175,2879 14379,2580 14583,2281"/>
 <path fill="rgb(255,66,14)" stroke="none" d="M 5502,11168 L 5602,11268 5702,11168 5602,11068 5502,11168 Z"/>
 <path fill="none" stroke="rgb(255,66,14)" stroke-linejoin="round" d="M 5502,11168 L 5602,11268 5702,11168 5602,11068 5502,11168 Z"/>
 <path fill="rgb(255,66,14)" stroke="none" d="M 5706,11168 L 5806,11268 5906,11168 5806,11068 5706,11168 Z"/>
 <path fill="none" stroke="rgb(255,66,14)" stroke-linejoin="round" d="M 5706,11168 L 5806,11268 5906,11168 5806,11068 5706,11168 Z"/>
 <path fill="rgb(255,66,14)" stroke="none" d="M 5910,11168 L 6010,11268 6110,11168 6010,11068 5910,11168 Z"/>
 <path fill="none" stroke="rgb(255,66,14)" stroke-linejoin="round" d="M 5910,11168 L 6010,11268 6110,11168 6010,11068 5910,11168 Z"/>
 <path fill="rgb(255,66,14)" stroke="none" d="M 6114,11168 L 6214,11268 6314,11168 6214,11068 6114,11168 Z"/>
 <path fill="none" stroke="rgb(255,66,14)" stroke-linejoin="round" d="M 6114,11168 L 6214,11268 6314,11168 6214,11068 6114,11168 Z"/>
 <path fill="rgb(255,66,14)" stroke="none" d="M 6318,11168 L 6418,11268 6518,11168 6418,11068 6318,11168 Z"/>
 <path fill="none" stroke="rgb(255,66,14)" stroke-linejoin="round" d="M 6318,11168 L 6418,11268 6518,11168 6418,11068 6318,11168 Z"/>
 <path fill="rgb(255,66,14)" stroke="none" d="M 6523,11168 L 6623,11268 6723,11168 6623,11068 6523,11168 Z"/>
 <path fill="none" stroke="rgb(255,66,14)" stroke-linejoin="round" d="M 6523,11168 L 6623,11268 6723,11168 6623,11068 6523,11168 Z"/>
 <path fill="rgb(255,66,14)" stroke="none" d="M 6727,11168 L 6827,11268 6927,11168 6827,11068 6727,11168 Z"/>
 <path fill="none" stroke="rgb(255,66,14)" stroke-linejoin="round" d="M 6727,11168 L 6827,11268 6927,11168 6827,11068 6727,11168 Z"/>
 <path fill="rgb(255,66,14)" stroke="none" d="M 6931,11168 L 7031,11268 7131,11168 7031,11068 6931,11168 Z"/>
 <path fill="none" stroke="rgb(255,66,14)" stroke-linejoin="round" d="M 6931,11168 L 7031,11268 7131,11168 7031,11068 6931,11168 Z"/>
 <path fill="rgb(255,66,14)" stroke="none" d="M 7135,11131 L 7235,11231 7335,11131 7235,11031 7135,11131 Z"/>
 <path fill="none" stroke="rgb(255,66,14)" stroke-linejoin="round" d="M 7135,11131 L 7235,11231 7335,11131 7235,11031 7135,11131 Z"/>
 <path fill="rgb(255,66,14)" stroke="none" d="M 7339,11019 L 7439,11119 7538,11019 7439,10919 7339,11019 Z"/>
 <path fill="none" stroke="rgb(255,66,14)" stroke-linejoin="round" d="M 7339,11019 L 7439,11119 7538,11019 7439,10919 7339,11019 Z"/>
 <path fill="rgb(255,66,14)" stroke="none" d="M 7542,10907 L 7642,11007 7742,10907 7642,10807 7542,10907 Z"/>
 <path fill="none" stroke="rgb(255,66,14)" stroke-linejoin="round" d="M 7542,10907 L 7642,11007 7742,10907 7642,10807 7542,10907 Z"/>
 <path fill="rgb(255,66,14)" stroke="none" d="M 7746,10757 L 7846,10857 7946,10757 7846,10657 7746,10757 Z"/>
 <path fill="none" stroke="rgb(255,66,14)" stroke-linejoin="round" d="M 7746,10757 L 7846,10857 7946,10757 7846,10657 7746,10757 Z"/>
 <path fill="rgb(255,66,14)" stroke="none" d="M 7951,10384 L 8051,10484 8151,10384 8051,10284 7951,10384 Z"/>
 <path fill="none" stroke="rgb(255,66,14)" stroke-linejoin="round" d="M 7951,10384 L 8051,10484 8151,10384 8051,10284 7951,10384 Z"/>
 <path fill="rgb(255,66,14)" stroke="none" d="M 8155,10272 L 8255,10372 8355,10272 8255,10172 8155,10272 Z"/>
 <path fill="none" stroke="rgb(255,66,14)" stroke-linejoin="round" d="M 8155,10272 L 8255,10372 8355,10272 8255,10172 8155,10272 Z"/>
 <path fill="rgb(255,66,14)" stroke="none" d="M 8359,10197 L 8459,10297 8559,10197 8459,10097 8359,10197 Z"/>
 <path fill="none" stroke="rgb(255,66,14)" stroke-linejoin="round" d="M 8359,10197 L 8459,10297 8559,10197 8459,10097 8359,10197 Z"/>
 <path fill="rgb(255,66,14)" stroke="none" d="M 8563,10123 L 8663,10223 8763,10123 8663,10023 8563,10123 Z"/>
 <path fill="none" stroke="rgb(255,66,14)" stroke-linejoin="round" d="M 8563,10123 L 8663,10223 8763,10123 8663,10023 8563,10123 Z"/>
 <path fill="rgb(255,66,14)" stroke="none" d="M 8767,9973 L 8867,10073 8967,9973 8867,9873 8767,9973 Z"/>
 <path fill="none" stroke="rgb(255,66,14)" stroke-linejoin="round" d="M 8767,9973 L 8867,10073 8967,9973 8867,9873 8767,9973 Z"/>
 <path fill="rgb(255,66,14)" stroke="none" d="M 8971,9674 L 9071,9774 9171,9674 9071,9574 8971,9674 Z"/>
 <path fill="none" stroke="rgb(255,66,14)" stroke-linejoin="round" d="M 8971,9674 L 9071,9774 9171,9674 9071,9574 8971,9674 Z"/>
 <path fill="rgb(255,66,14)" stroke="none" d="M 9175,9376 L 9275,9476 9375,9376 9275,9276 9175,9376 Z"/>
 <path fill="none" stroke="rgb(255,66,14)" stroke-linejoin="round" d="M 9175,9376 L 9275,9476 9375,9376 9275,9276 9175,9376 Z"/>
 <path fill="rgb(255,66,14)" stroke="none" d="M 9380,9152 L 9480,9252 9580,9152 9480,9052 9380,9152 Z"/>
 <path fill="none" stroke="rgb(255,66,14)" stroke-linejoin="round" d="M 9380,9152 L 9480,9252 9580,9152 9480,9052 9380,9152 Z"/>
 <path fill="rgb(255,66,14)" stroke="none" d="M 9584,8853 L 9684,8953 9784,8853 9684,8753 9584,8853 Z"/>
 <path fill="none" stroke="rgb(255,66,14)" stroke-linejoin="round" d="M 9584,8853 L 9684,8953 9784,8853 9684,8753 9584,8853 Z"/>
 <path fill="rgb(255,66,14)" stroke="none" d="M 9788,8629 L 9888,8729 9988,8629 9888,8529 9788,8629 Z"/>
 <path fill="none" stroke="rgb(255,66,14)" stroke-linejoin="round" d="M 9788,8629 L 9888,8729 9988,8629 9888,8529 9788,8629 Z"/>
 <path fill="rgb(255,66,14)" stroke="none" d="M 9992,8591 L 10092,8691 10192,8591 10092,8491 9992,8591 Z"/>
 <path fill="none" stroke="rgb(255,66,14)" stroke-linejoin="round" d="M 9992,8591 L 10092,8691 10192,8591 10092,8491 9992,8591 Z"/>
 <path fill="rgb(255,66,14)" stroke="none" d="M 10196,8367 L 10296,8467 10396,8367 10296,8267 10196,8367 Z"/>
 <path fill="none" stroke="rgb(255,66,14)" stroke-linejoin="round" d="M 10196,8367 L 10296,8467 10396,8367 10296,8267 10196,8367 Z"/>
 <path fill="rgb(255,66,14)" stroke="none" d="M 10400,8218 L 10500,8318 10600,8218 10500,8118 10400,8218 Z"/>
 <path fill="none" stroke="rgb(255,66,14)" stroke-linejoin="round" d="M 10400,8218 L 10500,8318 10600,8218 10500,8118 10400,8218 Z"/>
 <path fill="rgb(255,66,14)" stroke="none" d="M 10605,7994 L 10705,8094 10805,7994 10705,7894 10605,7994 Z"/>
 <path fill="none" stroke="rgb(255,66,14)" stroke-linejoin="round" d="M 10605,7994 L 10705,8094 10805,7994 10705,7894 10605,7994 Z"/>
 <path fill="rgb(255,66,14)" stroke="none" d="M 10809,7620 L 10909,7720 11009,7620 10909,7520 10809,7620 Z"/>
 <path fill="none" stroke="rgb(255,66,14)" stroke-linejoin="round" d="M 10809,7620 L 10909,7720 11009,7620 10909,7520 10809,7620 Z"/>
 <path fill="rgb(255,66,14)" stroke="none" d="M 11013,7396 L 11113,7496 11213,7396 11113,7296 11013,7396 Z"/>
 <path fill="none" stroke="rgb(255,66,14)" stroke-linejoin="round" d="M 11013,7396 L 11113,7496 11213,7396 11113,7296 11013,7396 Z"/>
 <path fill="rgb(255,66,14)" stroke="none" d="M 11217,7098 L 11317,7198 11417,7098 11317,6998 11217,7098 Z"/>
 <path fill="none" stroke="rgb(255,66,14)" stroke-linejoin="round" d="M 11217,7098 L 11317,7198 11417,7098 11317,6998 11217,7098 Z"/>
 <path fill="rgb(255,66,14)" stroke="none" d="M 11421,6687 L 11521,6787 11621,6687 11521,6587 11421,6687 Z"/>
 <path fill="none" stroke="rgb(255,66,14)" stroke-linejoin="round" d="M 11421,6687 L 11521,6787 11621,6687 11521,6587 11421,6687 Z"/>
 <path fill="rgb(255,66,14)" stroke="none" d="M 11625,6425 L 11725,6525 11825,6425 11725,6325 11625,6425 Z"/>
 <path fill="none" stroke="rgb(255,66,14)" stroke-linejoin="round" d="M 11625,6425 L 11725,6525 11825,6425 11725,6325 11625,6425 Z"/>
 <path fill="rgb(255,66,14)" stroke="none" d="M 11829,5978 L 11929,6077 12029,5978 11929,5878 11829,5978 Z"/>
 <path fill="none" stroke="rgb(255,66,14)" stroke-linejoin="round" d="M 11829,5978 L 11929,6077 12029,5978 11929,5878 11829,5978 Z"/>
 <path fill="rgb(255,66,14)" stroke="none" d="M 12034,5642 L 12134,5742 12234,5642 12134,5542 12034,5642 Z"/>
 <path fill="none" stroke="rgb(255,66,14)" stroke-linejoin="round" d="M 12034,5642 L 12134,5742 12234,5642 12134,5542 12034,5642 Z"/>
 <path fill="rgb(255,66,14)" stroke="none" d="M 12238,5381 L 12338,5481 12438,5381 12338,5281 12238,5381 Z"/>
 <path fill="none" stroke="rgb(255,66,14)" stroke-linejoin="round" d="M 12238,5381 L 12338,5481 12438,5381 12338,5281 12238,5381 Z"/>
 <path fill="rgb(255,66,14)" stroke="none" d="M 12442,5007 L 12542,5107 12642,5007 12542,4907 12442,5007 Z"/>
 <path fill="none" stroke="rgb(255,66,14)" stroke-linejoin="round" d="M 12442,5007 L 12542,5107 12642,5007 12542,4907 12442,5007 Z"/>
 <path fill="rgb(255,66,14)" stroke="none" d="M 12646,4933 L 12746,5033 12846,4933 12746,4833 12646,4933 Z"/>
 <path fill="none" stroke="rgb(255,66,14)" stroke-linejoin="round" d="M 12646,4933 L 12746,5033 12846,4933 12746,4833 12646,4933 Z"/>
 <path fill="rgb(255,66,14)" stroke="none" d="M 12850,4709 L 12950,4809 13050,4709 12950,4609 12850,4709 Z"/>
 <path fill="none" stroke="rgb(255,66,14)" stroke-linejoin="round" d="M 12850,4709 L 12950,4809 13050,4709 12950,4609 12850,4709 Z"/>
 <path fill="rgb(255,66,14)" stroke="none" d="M 13054,4223 L 13154,4323 13254,4223 13154,4123 13054,4223 Z"/>
 <path fill="none" stroke="rgb(255,66,14)" stroke-linejoin="round" d="M 13054,4223 L 13154,4323 13254,4223 13154,4123 13054,4223 Z"/>
 <path fill="rgb(255,66,14)" stroke="none" d="M 13259,3887 L 13359,3987 13459,3887 13359,3787 13259,3887 Z"/>
 <path fill="none" stroke="rgb(255,66,14)" stroke-linejoin="round" d="M 13259,3887 L 13359,3987 13459,3887 13359,3787 13259,3887 Z"/>
 <path fill="rgb(255,66,14)" stroke="none" d="M 13463,3738 L 13563,3838 13663,3738 13563,3638 13463,3738 Z"/>
 <path fill="none" stroke="rgb(255,66,14)" stroke-linejoin="round" d="M 13463,3738 L 13563,3838 13663,3738 13563,3638 13463,3738 Z"/>
 <path fill="rgb(255,66,14)" stroke="none" d="M 13667,3663 L 13767,3763 13867,3663 13767,3563 13667,3663 Z"/>
 <path fill="none" stroke="rgb(255,66,14)" stroke-linejoin="round" d="M 13667,3663 L 13767,3763 13867,3663 13767,3563 13667,3663 Z"/>
 <path fill="rgb(255,66,14)" stroke="none" d="M 13871,3327 L 13971,3427 14071,3327 13971,3227 13871,3327 Z"/>
 <path fill="none" stroke="rgb(255,66,14)" stroke-linejoin="round" d="M 13871,3327 L 13971,3427 14071,3327 13971,3227 13871,3327 Z"/>
 <path fill="rgb(255,66,14)" stroke="none" d="M 14075,2879 L 14175,2979 14275,2879 14175,2779 14075,2879 Z"/>
 <path fill="none" stroke="rgb(255,66,14)" stroke-linejoin="round" d="M 14075,2879 L 14175,2979 14275,2879 14175,2779 14075,2879 Z"/>
 <path fill="rgb(255,66,14)" stroke="none" d="M 14279,2580 L 14379,2680 14479,2580 14379,2480 14279,2580 Z"/>
 <path fill="none" stroke="rgb(255,66,14)" stroke-linejoin="round" d="M 14279,2580 L 14379,2680 14479,2580 14379,2480 14279,2580 Z"/>
 <path fill="rgb(255,66,14)" stroke="none" d="M 14483,2281 L 14583,2381 14683,2281 14583,2181 14483,2281 Z"/>
 <path fill="none" stroke="rgb(255,66,14)" stroke-linejoin="round" d="M 14483,2281 L 14583,2381 14683,2281 14583,2181 14483,2281 Z"/>
 <path fill="none" stroke="rgb(255,211,32)" stroke-width="50" stroke-linejoin="round" d="M 5602,11150 L 5806,11150 6010,11150 6214,11150 6418,11150 6623,11150 6827,11150 7031,11095 7235,11095 7439,10984 7642,10984 7846,10651 8051,10651 8255,10485 8459,10263 8663,9986 8867,9764 9071,9597 9275,9154 9480,8877 9684,8655 9888,7989 10092,7379 10296,7268 10500,7047 10705,6714 10909,6548 11113,6270 11317,6270 11521,5828 11725,5550 11929,4996 12134,4719 12338,4663 12542,4275 12746,3942 12950,3776 13154,3000 13359,2611 13563,2500 13767,2279 13971,2112 14175,1891 14379,1669 14583,1558"/>
 <path fill="rgb(255,211,32)" stroke="none" d="M 5502,11050 L 5602,11250 5702,11050 5502,11050 Z"/>
 <path fill="none" stroke="rgb(255,211,32)" stroke-linejoin="round" d="M 5502,11050 L 5602,11250 5702,11050 5502,11050 Z"/>
 <path fill="rgb(255,211,32)" stroke="none" d="M 5706,11050 L 5806,11250 5906,11050 5706,11050 Z"/>
 <path fill="none" stroke="rgb(255,211,32)" stroke-linejoin="round" d="M 5706,11050 L 5806,11250 5906,11050 5706,11050 Z"/>
 <path fill="rgb(255,211,32)" stroke="none" d="M 5910,11050 L 6010,11250 6110,11050 5910,11050 Z"/>
 <path fill="none" stroke="rgb(255,211,32)" stroke-linejoin="round" d="M 5910,11050 L 6010,11250 6110,11050 5910,11050 Z"/>
 <path fill="rgb(255,211,32)" stroke="none" d="M 6114,11050 L 6214,11250 6314,11050 6114,11050 Z"/>
 <path fill="none" stroke="rgb(255,211,32)" stroke-linejoin="round" d="M 6114,11050 L 6214,11250 6314,11050 6114,11050 Z"/>
 <path fill="rgb(255,211,32)" stroke="none" d="M 6318,11050 L 6418,11250 6518,11050 6318,11050 Z"/>
 <path fill="none" stroke="rgb(255,211,32)" stroke-linejoin="round" d="M 6318,11050 L 6418,11250 6518,11050 6318,11050 Z"/>
 <path fill="rgb(255,211,32)" stroke="none" d="M 6523,11050 L 6623,11250 6723,11050 6523,11050 Z"/>
 <path fill="none" stroke="rgb(255,211,32)" stroke-linejoin="round" d="M 6523,11050 L 6623,11250 6723,11050 6523,11050 Z"/>
 <path fill="rgb(255,211,32)" stroke="none" d="M 6727,11050 L 6827,11250 6927,11050 6727,11050 Z"/>
 <path fill="none" stroke="rgb(255,211,32)" stroke-linejoin="round" d="M 6727,11050 L 6827,11250 6927,11050 6727,11050 Z"/>
 <path fill="rgb(255,211,32)" stroke="none" d="M 6931,10995 L 7031,11195 7131,10995 6931,10995 Z"/>
 <path fill="none" stroke="rgb(255,211,32)" stroke-linejoin="round" d="M 6931,10995 L 7031,11195 7131,10995 6931,10995 Z"/>
 <path fill="rgb(255,211,32)" stroke="none" d="M 7135,10995 L 7235,11195 7335,10995 7135,10995 Z"/>
 <path fill="none" stroke="rgb(255,211,32)" stroke-linejoin="round" d="M 7135,10995 L 7235,11195 7335,10995 7135,10995 Z"/>
 <path fill="rgb(255,211,32)" stroke="none" d="M 7339,10884 L 7439,11084 7538,10884 7339,10884 Z"/>
 <path fill="none" stroke="rgb(255,211,32)" stroke-linejoin="round" d="M 7339,10884 L 7439,11084 7538,10884 7339,10884 Z"/>
 <path fill="rgb(255,211,32)" stroke="none" d="M 7542,10884 L 7642,11084 7742,10884 7542,10884 Z"/>
 <path fill="none" stroke="rgb(255,211,32)" stroke-linejoin="round" d="M 7542,10884 L 7642,11084 7742,10884 7542,10884 Z"/>
 <path fill="rgb(255,211,32)" stroke="none" d="M 7746,10551 L 7846,10751 7946,10551 7746,10551 Z"/>
 <path fill="none" stroke="rgb(255,211,32)" stroke-linejoin="round" d="M 7746,10551 L 7846,10751 7946,10551 7746,10551 Z"/>
 <path fill="rgb(255,211,32)" stroke="none" d="M 7951,10551 L 8051,10751 8151,10551 7951,10551 Z"/>
 <path fill="none" stroke="rgb(255,211,32)" stroke-linejoin="round" d="M 7951,10551 L 8051,10751 8151,10551 7951,10551 Z"/>
 <path fill="rgb(255,211,32)" stroke="none" d="M 8155,10385 L 8255,10585 8355,10385 8155,10385 Z"/>
 <path fill="none" stroke="rgb(255,211,32)" stroke-linejoin="round" d="M 8155,10385 L 8255,10585 8355,10385 8155,10385 Z"/>
 <path fill="rgb(255,211,32)" stroke="none" d="M 8359,10163 L 8459,10363 8559,10163 8359,10163 Z"/>
 <path fill="none" stroke="rgb(255,211,32)" stroke-linejoin="round" d="M 8359,10163 L 8459,10363 8559,10163 8359,10163 Z"/>
 <path fill="rgb(255,211,32)" stroke="none" d="M 8563,9886 L 8663,10086 8763,9886 8563,9886 Z"/>
 <path fill="none" stroke="rgb(255,211,32)" stroke-linejoin="round" d="M 8563,9886 L 8663,10086 8763,9886 8563,9886 Z"/>
 <path fill="rgb(255,211,32)" stroke="none" d="M 8767,9664 L 8867,9864 8967,9664 8767,9664 Z"/>
 <path fill="none" stroke="rgb(255,211,32)" stroke-linejoin="round" d="M 8767,9664 L 8867,9864 8967,9664 8767,9664 Z"/>
 <path fill="rgb(255,211,32)" stroke="none" d="M 8971,9497 L 9071,9697 9171,9497 8971,9497 Z"/>
 <path fill="none" stroke="rgb(255,211,32)" stroke-linejoin="round" d="M 8971,9497 L 9071,9697 9171,9497 8971,9497 Z"/>
 <path fill="rgb(255,211,32)" stroke="none" d="M 9175,9054 L 9275,9254 9375,9054 9175,9054 Z"/>
 <path fill="none" stroke="rgb(255,211,32)" stroke-linejoin="round" d="M 9175,9054 L 9275,9254 9375,9054 9175,9054 Z"/>
 <path fill="rgb(255,211,32)" stroke="none" d="M 9380,8777 L 9480,8977 9580,8777 9380,8777 Z"/>
 <path fill="none" stroke="rgb(255,211,32)" stroke-linejoin="round" d="M 9380,8777 L 9480,8977 9580,8777 9380,8777 Z"/>
 <path fill="rgb(255,211,32)" stroke="none" d="M 9584,8555 L 9684,8755 9784,8555 9584,8555 Z"/>
 <path fill="none" stroke="rgb(255,211,32)" stroke-linejoin="round" d="M 9584,8555 L 9684,8755 9784,8555 9584,8555 Z"/>
 <path fill="rgb(255,211,32)" stroke="none" d="M 9788,7889 L 9888,8089 9988,7889 9788,7889 Z"/>
 <path fill="none" stroke="rgb(255,211,32)" stroke-linejoin="round" d="M 9788,7889 L 9888,8089 9988,7889 9788,7889 Z"/>
 <path fill="rgb(255,211,32)" stroke="none" d="M 9992,7279 L 10092,7479 10192,7279 9992,7279 Z"/>
 <path fill="none" stroke="rgb(255,211,32)" stroke-linejoin="round" d="M 9992,7279 L 10092,7479 10192,7279 9992,7279 Z"/>
 <path fill="rgb(255,211,32)" stroke="none" d="M 10196,7168 L 10296,7368 10396,7168 10196,7168 Z"/>
 <path fill="none" stroke="rgb(255,211,32)" stroke-linejoin="round" d="M 10196,7168 L 10296,7368 10396,7168 10196,7168 Z"/>
 <path fill="rgb(255,211,32)" stroke="none" d="M 10400,6947 L 10500,7147 10600,6947 10400,6947 Z"/>
 <path fill="none" stroke="rgb(255,211,32)" stroke-linejoin="round" d="M 10400,6947 L 10500,7147 10600,6947 10400,6947 Z"/>
 <path fill="rgb(255,211,32)" stroke="none" d="M 10605,6614 L 10705,6814 10805,6614 10605,6614 Z"/>
 <path fill="none" stroke="rgb(255,211,32)" stroke-linejoin="round" d="M 10605,6614 L 10705,6814 10805,6614 10605,6614 Z"/>
 <path fill="rgb(255,211,32)" stroke="none" d="M 10809,6448 L 10909,6648 11009,6448 10809,6448 Z"/>
 <path fill="none" stroke="rgb(255,211,32)" stroke-linejoin="round" d="M 10809,6448 L 10909,6648 11009,6448 10809,6448 Z"/>
 <path fill="rgb(255,211,32)" stroke="none" d="M 11013,6170 L 11113,6370 11213,6170 11013,6170 Z"/>
 <path fill="none" stroke="rgb(255,211,32)" stroke-linejoin="round" d="M 11013,6170 L 11113,6370 11213,6170 11013,6170 Z"/>
 <path fill="rgb(255,211,32)" stroke="none" d="M 11217,6170 L 11317,6370 11417,6170 11217,6170 Z"/>
 <path fill="none" stroke="rgb(255,211,32)" stroke-linejoin="round" d="M 11217,6170 L 11317,6370 11417,6170 11217,6170 Z"/>
 <path fill="rgb(255,211,32)" stroke="none" d="M 11421,5728 L 11521,5928 11621,5728 11421,5728 Z"/>
 <path fill="none" stroke="rgb(255,211,32)" stroke-linejoin="round" d="M 11421,5728 L 11521,5928 11621,5728 11421,5728 Z"/>
 <path fill="rgb(255,211,32)" stroke="none" d="M 11625,5450 L 11725,5650 11825,5450 11625,5450 Z"/>
 <path fill="none" stroke="rgb(255,211,32)" stroke-linejoin="round" d="M 11625,5450 L 11725,5650 11825,5450 11625,5450 Z"/>
 <path fill="rgb(255,211,32)" stroke="none" d="M 11829,4896 L 11929,5096 12029,4896 11829,4896 Z"/>
 <path fill="none" stroke="rgb(255,211,32)" stroke-linejoin="round" d="M 11829,4896 L 11929,5096 12029,4896 11829,4896 Z"/>
 <path fill="rgb(255,211,32)" stroke="none" d="M 12034,4619 L 12134,4819 12234,4619 12034,4619 Z"/>
 <path fill="none" stroke="rgb(255,211,32)" stroke-linejoin="round" d="M 12034,4619 L 12134,4819 12234,4619 12034,4619 Z"/>
 <path fill="rgb(255,211,32)" stroke="none" d="M 12238,4563 L 12338,4763 12438,4563 12238,4563 Z"/>
 <path fill="none" stroke="rgb(255,211,32)" stroke-linejoin="round" d="M 12238,4563 L 12338,4763 12438,4563 12238,4563 Z"/>
 <path fill="rgb(255,211,32)" stroke="none" d="M 12442,4175 L 12542,4375 12642,4175 12442,4175 Z"/>
 <path fill="none" stroke="rgb(255,211,32)" stroke-linejoin="round" d="M 12442,4175 L 12542,4375 12642,4175 12442,4175 Z"/>
 <path fill="rgb(255,211,32)" stroke="none" d="M 12646,3842 L 12746,4042 12846,3842 12646,3842 Z"/>
 <path fill="none" stroke="rgb(255,211,32)" stroke-linejoin="round" d="M 12646,3842 L 12746,4042 12846,3842 12646,3842 Z"/>
 <path fill="rgb(255,211,32)" stroke="none" d="M 12850,3676 L 12950,3876 13050,3676 12850,3676 Z"/>
 <path fill="none" stroke="rgb(255,211,32)" stroke-linejoin="round" d="M 12850,3676 L 12950,3876 13050,3676 12850,3676 Z"/>
 <path fill="rgb(255,211,32)" stroke="none" d="M 13054,2900 L 13154,3100 13254,2900 13054,2900 Z"/>
 <path fill="none" stroke="rgb(255,211,32)" stroke-linejoin="round" d="M 13054,2900 L 13154,3100 13254,2900 13054,2900 Z"/>
 <path fill="rgb(255,211,32)" stroke="none" d="M 13259,2511 L 13359,2711 13459,2511 13259,2511 Z"/>
 <path fill="none" stroke="rgb(255,211,32)" stroke-linejoin="round" d="M 13259,2511 L 13359,2711 13459,2511 13259,2511 Z"/>
 <path fill="rgb(255,211,32)" stroke="none" d="M 13463,2400 L 13563,2600 13663,2400 13463,2400 Z"/>
 <path fill="none" stroke="rgb(255,211,32)" stroke-linejoin="round" d="M 13463,2400 L 13563,2600 13663,2400 13463,2400 Z"/>
 <path fill="rgb(255,211,32)" stroke="none" d="M 13667,2179 L 13767,2379 13867,2179 13667,2179 Z"/>
 <path fill="none" stroke="rgb(255,211,32)" stroke-linejoin="round" d="M 13667,2179 L 13767,2379 13867,2179 13667,2179 Z"/>
 <path fill="rgb(255,211,32)" stroke="none" d="M 13871,2012 L 13971,2212 14071,2012 13871,2012 Z"/>
 <path fill="none" stroke="rgb(255,211,32)" stroke-linejoin="round" d="M 13871,2012 L 13971,2212 14071,2012 13871,2012 Z"/>
 <path fill="rgb(255,211,32)" stroke="none" d="M 14075,1791 L 14175,1991 14275,1791 14075,1791 Z"/>
 <path fill="none" stroke="rgb(255,211,32)" stroke-linejoin="round" d="M 14075,1791 L 14175,1991 14275,1791 14075,1791 Z"/>
 <path fill="rgb(255,211,32)" stroke="none" d="M 14279,1569 L 14379,1769 14479,1569 14279,1569 Z"/>
 <path fill="none" stroke="rgb(255,211,32)" stroke-linejoin="round" d="M 14279,1569 L 14379,1769 14479,1569 14279,1569 Z"/>
 <path fill="rgb(255,211,32)" stroke="none" d="M 14483,1458 L 14583,1658 14683,1458 14483,1458 Z"/>
 <path fill="none" stroke="rgb(255,211,32)" stroke-linejoin="round" d="M 14483,1458 L 14583,1658 14683,1458 14483,1458 Z"/>
 <path fill="none" stroke="rgb(87,157,28)" stroke-width="50" stroke-linejoin="round" d="M 6010,11176 L 6214,11176 6418,11176 6623,11147 6827,11118 7031,11118 7235,11089 7439,11001 7642,10942 7846,10884 8051,10738 8255,10591 8459,10504 8663,10416 8867,10153 9071,10065 9275,10036 9480,9597 9684,9392 9888,9217 10092,9071 10296,8924 10500,8866 10705,8720 10909,8603 11113,8544 11317,8515 11521,8457 11725,8427 11929,8427 12134,8398 12338,8223 12542,8164 12746,8076 12950,7959 13154,7842 13359,7725 13563,7725 13767,7696 13971,7667 14175,7667 14379,7462 14583,7404"/>
 <path fill="rgb(87,157,28)" stroke="none" d="M 5910,11276 L 6110,11276 6010,11076 5910,11276 Z"/>
 <path fill="none" stroke="rgb(87,157,28)" stroke-linejoin="round" d="M 5910,11276 L 6110,11276 6010,11076 5910,11276 Z"/>
 <path fill="rgb(87,157,28)" stroke="none" d="M 6114,11276 L 6314,11276 6214,11076 6114,11276 Z"/>
 <path fill="none" stroke="rgb(87,157,28)" stroke-linejoin="round" d="M 6114,11276 L 6314,11276 6214,11076 6114,11276 Z"/>
 <path fill="rgb(87,157,28)" stroke="none" d="M 6318,11276 L 6518,11276 6418,11076 6318,11276 Z"/>
 <path fill="none" stroke="rgb(87,157,28)" stroke-linejoin="round" d="M 6318,11276 L 6518,11276 6418,11076 6318,11276 Z"/>
 <path fill="rgb(87,157,28)" stroke="none" d="M 6523,11247 L 6723,11247 6623,11047 6523,11247 Z"/>
 <path fill="none" stroke="rgb(87,157,28)" stroke-linejoin="round" d="M 6523,11247 L 6723,11247 6623,11047 6523,11247 Z"/>
 <path fill="rgb(87,157,28)" stroke="none" d="M 6727,11218 L 6927,11218 6827,11018 6727,11218 Z"/>
 <path fill="none" stroke="rgb(87,157,28)" stroke-linejoin="round" d="M 6727,11218 L 6927,11218 6827,11018 6727,11218 Z"/>
 <path fill="rgb(87,157,28)" stroke="none" d="M 6931,11218 L 7131,11218 7031,11018 6931,11218 Z"/>
 <path fill="none" stroke="rgb(87,157,28)" stroke-linejoin="round" d="M 6931,11218 L 7131,11218 7031,11018 6931,11218 Z"/>
 <path fill="rgb(87,157,28)" stroke="none" d="M 7135,11189 L 7335,11189 7235,10989 7135,11189 Z"/>
 <path fill="none" stroke="rgb(87,157,28)" stroke-linejoin="round" d="M 7135,11189 L 7335,11189 7235,10989 7135,11189 Z"/>
 <path fill="rgb(87,157,28)" stroke="none" d="M 7339,11101 L 7538,11101 7439,10901 7339,11101 Z"/>
 <path fill="none" stroke="rgb(87,157,28)" stroke-linejoin="round" d="M 7339,11101 L 7538,11101 7439,10901 7339,11101 Z"/>
 <path fill="rgb(87,157,28)" stroke="none" d="M 7542,11042 L 7742,11042 7642,10842 7542,11042 Z"/>
 <path fill="none" stroke="rgb(87,157,28)" stroke-linejoin="round" d="M 7542,11042 L 7742,11042 7642,10842 7542,11042 Z"/>
 <path fill="rgb(87,157,28)" stroke="none" d="M 7746,10984 L 7946,10984 7846,10784 7746,10984 Z"/>
 <path fill="none" stroke="rgb(87,157,28)" stroke-linejoin="round" d="M 7746,10984 L 7946,10984 7846,10784 7746,10984 Z"/>
 <path fill="rgb(87,157,28)" stroke="none" d="M 7951,10838 L 8151,10838 8051,10638 7951,10838 Z"/>
 <path fill="none" stroke="rgb(87,157,28)" stroke-linejoin="round" d="M 7951,10838 L 8151,10838 8051,10638 7951,10838 Z"/>
 <path fill="rgb(87,157,28)" stroke="none" d="M 8155,10691 L 8355,10691 8255,10491 8155,10691 Z"/>
 <path fill="none" stroke="rgb(87,157,28)" stroke-linejoin="round" d="M 8155,10691 L 8355,10691 8255,10491 8155,10691 Z"/>
 <path fill="rgb(87,157,28)" stroke="none" d="M 8359,10604 L 8559,10604 8459,10404 8359,10604 Z"/>
 <path fill="none" stroke="rgb(87,157,28)" stroke-linejoin="round" d="M 8359,10604 L 8559,10604 8459,10404 8359,10604 Z"/>
 <path fill="rgb(87,157,28)" stroke="none" d="M 8563,10516 L 8763,10516 8663,10316 8563,10516 Z"/>
 <path fill="none" stroke="rgb(87,157,28)" stroke-linejoin="round" d="M 8563,10516 L 8763,10516 8663,10316 8563,10516 Z"/>
 <path fill="rgb(87,157,28)" stroke="none" d="M 8767,10253 L 8967,10253 8867,10053 8767,10253 Z"/>
 <path fill="none" stroke="rgb(87,157,28)" stroke-linejoin="round" d="M 8767,10253 L 8967,10253 8867,10053 8767,10253 Z"/>
 <path fill="rgb(87,157,28)" stroke="none" d="M 8971,10165 L 9171,10165 9071,9965 8971,10165 Z"/>
 <path fill="none" stroke="rgb(87,157,28)" stroke-linejoin="round" d="M 8971,10165 L 9171,10165 9071,9965 8971,10165 Z"/>
 <path fill="rgb(87,157,28)" stroke="none" d="M 9175,10136 L 9375,10136 9275,9936 9175,10136 Z"/>
 <path fill="none" stroke="rgb(87,157,28)" stroke-linejoin="round" d="M 9175,10136 L 9375,10136 9275,9936 9175,10136 Z"/>
 <path fill="rgb(87,157,28)" stroke="none" d="M 9380,9697 L 9580,9697 9480,9497 9380,9697 Z"/>
 <path fill="none" stroke="rgb(87,157,28)" stroke-linejoin="round" d="M 9380,9697 L 9580,9697 9480,9497 9380,9697 Z"/>
 <path fill="rgb(87,157,28)" stroke="none" d="M 9584,9492 L 9784,9492 9684,9292 9584,9492 Z"/>
 <path fill="none" stroke="rgb(87,157,28)" stroke-linejoin="round" d="M 9584,9492 L 9784,9492 9684,9292 9584,9492 Z"/>
 <path fill="rgb(87,157,28)" stroke="none" d="M 9788,9317 L 9988,9317 9888,9117 9788,9317 Z"/>
 <path fill="none" stroke="rgb(87,157,28)" stroke-linejoin="round" d="M 9788,9317 L 9988,9317 9888,9117 9788,9317 Z"/>
 <path fill="rgb(87,157,28)" stroke="none" d="M 9992,9171 L 10192,9171 10092,8971 9992,9171 Z"/>
 <path fill="none" stroke="rgb(87,157,28)" stroke-linejoin="round" d="M 9992,9171 L 10192,9171 10092,8971 9992,9171 Z"/>
 <path fill="rgb(87,157,28)" stroke="none" d="M 10196,9024 L 10396,9024 10296,8824 10196,9024 Z"/>
 <path fill="none" stroke="rgb(87,157,28)" stroke-linejoin="round" d="M 10196,9024 L 10396,9024 10296,8824 10196,9024 Z"/>
 <path fill="rgb(87,157,28)" stroke="none" d="M 10400,8966 L 10600,8966 10500,8766 10400,8966 Z"/>
 <path fill="none" stroke="rgb(87,157,28)" stroke-linejoin="round" d="M 10400,8966 L 10600,8966 10500,8766 10400,8966 Z"/>
 <path fill="rgb(87,157,28)" stroke="none" d="M 10605,8820 L 10805,8820 10705,8620 10605,8820 Z"/>
 <path fill="none" stroke="rgb(87,157,28)" stroke-linejoin="round" d="M 10605,8820 L 10805,8820 10705,8620 10605,8820 Z"/>
 <path fill="rgb(87,157,28)" stroke="none" d="M 10809,8703 L 11009,8703 10909,8503 10809,8703 Z"/>
 <path fill="none" stroke="rgb(87,157,28)" stroke-linejoin="round" d="M 10809,8703 L 11009,8703 10909,8503 10809,8703 Z"/>
 <path fill="rgb(87,157,28)" stroke="none" d="M 11013,8644 L 11213,8644 11113,8444 11013,8644 Z"/>
 <path fill="none" stroke="rgb(87,157,28)" stroke-linejoin="round" d="M 11013,8644 L 11213,8644 11113,8444 11013,8644 Z"/>
 <path fill="rgb(87,157,28)" stroke="none" d="M 11217,8615 L 11417,8615 11317,8415 11217,8615 Z"/>
 <path fill="none" stroke="rgb(87,157,28)" stroke-linejoin="round" d="M 11217,8615 L 11417,8615 11317,8415 11217,8615 Z"/>
 <path fill="rgb(87,157,28)" stroke="none" d="M 11421,8557 L 11621,8557 11521,8357 11421,8557 Z"/>
 <path fill="none" stroke="rgb(87,157,28)" stroke-linejoin="round" d="M 11421,8557 L 11621,8557 11521,8357 11421,8557 Z"/>
 <path fill="rgb(87,157,28)" stroke="none" d="M 11625,8527 L 11825,8527 11725,8327 11625,8527 Z"/>
 <path fill="none" stroke="rgb(87,157,28)" stroke-linejoin="round" d="M 11625,8527 L 11825,8527 11725,8327 11625,8527 Z"/>
 <path fill="rgb(87,157,28)" stroke="none" d="M 11829,8527 L 12029,8527 11929,8327 11829,8527 Z"/>
 <path fill="none" stroke="rgb(87,157,28)" stroke-linejoin="round" d="M 11829,8527 L 12029,8527 11929,8327 11829,8527 Z"/>
 <path fill="rgb(87,157,28)" stroke="none" d="M 12034,8498 L 12234,8498 12134,8298 12034,8498 Z"/>
 <path fill="none" stroke="rgb(87,157,28)" stroke-linejoin="round" d="M 12034,8498 L 12234,8498 12134,8298 12034,8498 Z"/>
 <path fill="rgb(87,157,28)" stroke="none" d="M 12238,8323 L 12438,8323 12338,8123 12238,8323 Z"/>
 <path fill="none" stroke="rgb(87,157,28)" stroke-linejoin="round" d="M 12238,8323 L 12438,8323 12338,8123 12238,8323 Z"/>
 <path fill="rgb(87,157,28)" stroke="none" d="M 12442,8264 L 12642,8264 12542,8064 12442,8264 Z"/>
 <path fill="none" stroke="rgb(87,157,28)" stroke-linejoin="round" d="M 12442,8264 L 12642,8264 12542,8064 12442,8264 Z"/>
 <path fill="rgb(87,157,28)" stroke="none" d="M 12646,8176 L 12846,8176 12746,7976 12646,8176 Z"/>
 <path fill="none" stroke="rgb(87,157,28)" stroke-linejoin="round" d="M 12646,8176 L 12846,8176 12746,7976 12646,8176 Z"/>
 <path fill="rgb(87,157,28)" stroke="none" d="M 12850,8059 L 13050,8059 12950,7859 12850,8059 Z"/>
 <path fill="none" stroke="rgb(87,157,28)" stroke-linejoin="round" d="M 12850,8059 L 13050,8059 12950,7859 12850,8059 Z"/>
 <path fill="rgb(87,157,28)" stroke="none" d="M 13054,7942 L 13254,7942 13154,7742 13054,7942 Z"/>
 <path fill="none" stroke="rgb(87,157,28)" stroke-linejoin="round" d="M 13054,7942 L 13254,7942 13154,7742 13054,7942 Z"/>
 <path fill="rgb(87,157,28)" stroke="none" d="M 13259,7825 L 13459,7825 13359,7625 13259,7825 Z"/>
 <path fill="none" stroke="rgb(87,157,28)" stroke-linejoin="round" d="M 13259,7825 L 13459,7825 13359,7625 13259,7825 Z"/>
 <path fill="rgb(87,157,28)" stroke="none" d="M 13463,7825 L 13663,7825 13563,7625 13463,7825 Z"/>
 <path fill="none" stroke="rgb(87,157,28)" stroke-linejoin="round" d="M 13463,7825 L 13663,7825 13563,7625 13463,7825 Z"/>
 <path fill="rgb(87,157,28)" stroke="none" d="M 13667,7796 L 13867,7796 13767,7596 13667,7796 Z"/>
 <path fill="none" stroke="rgb(87,157,28)" stroke-linejoin="round" d="M 13667,7796 L 13867,7796 13767,7596 13667,7796 Z"/>
 <path fill="rgb(87,157,28)" stroke="none" d="M 13871,7767 L 14071,7767 13971,7567 13871,7767 Z"/>
 <path fill="none" stroke="rgb(87,157,28)" stroke-linejoin="round" d="M 13871,7767 L 14071,7767 13971,7567 13871,7767 Z"/>
 <path fill="rgb(87,157,28)" stroke="none" d="M 14075,7767 L 14275,7767 14175,7567 14075,7767 Z"/>
 <path fill="none" stroke="rgb(87,157,28)" stroke-linejoin="round" d="M 14075,7767 L 14275,7767 14175,7567 14075,7767 Z"/>
 <path fill="rgb(87,157,28)" stroke="none" d="M 14279,7562 L 14479,7562 14379,7362 14279,7562 Z"/>
 <path fill="none" stroke="rgb(87,157,28)" stroke-linejoin="round" d="M 14279,7562 L 14479,7562 14379,7362 14279,7562 Z"/>
 <path fill="rgb(87,157,28)" stroke="none" d="M 14483,7504 L 14683,7504 14583,7304 14483,7504 Z"/>
 <path fill="none" stroke="rgb(87,157,28)" stroke-linejoin="round" d="M 14483,7504 L 14683,7504 14583,7304 14483,7504 Z"/>
 <path fill="none" stroke="rgb(126,0,33)" stroke-width="50" stroke-linejoin="round" d="M 6214,11177 L 6418,11177 6623,11162 6827,11162 7031,11148 7235,11133 7439,11076 7642,11033 7846,10946 8051,10917 8255,10816 8459,10744 8663,10586 8867,10528 9071,10341 9275,10255 9480,9995 9684,9722 9888,9477 10092,9217 10296,8915 10500,8699 10705,8468 10909,8266 11113,8137 11317,7877 11521,7704 11725,7445 11929,7258 12134,7114 12338,7027 12542,6898 12746,6739 12950,6595 13154,6393 13359,6221 13563,6134 13767,6019 13971,5905 14175,5804 14379,5703 14583,5616"/>
 <path fill="rgb(126,0,33)" stroke="none" d="M 6114,11077 L 6114,11277 6314,11177 6114,11077 Z"/>
 <path fill="none" stroke="rgb(126,0,33)" stroke-linejoin="round" d="M 6114,11077 L 6114,11277 6314,11177 6114,11077 Z"/>
 <path fill="rgb(126,0,33)" stroke="none" d="M 6318,11077 L 6318,11277 6518,11177 6318,11077 Z"/>
 <path fill="none" stroke="rgb(126,0,33)" stroke-linejoin="round" d="M 6318,11077 L 6318,11277 6518,11177 6318,11077 Z"/>
 <path fill="rgb(126,0,33)" stroke="none" d="M 6523,11062 L 6523,11262 6723,11162 6523,11062 Z"/>
 <path fill="none" stroke="rgb(126,0,33)" stroke-linejoin="round" d="M 6523,11062 L 6523,11262 6723,11162 6523,11062 Z"/>
 <path fill="rgb(126,0,33)" stroke="none" d="M 6727,11062 L 6727,11262 6927,11162 6727,11062 Z"/>
 <path fill="none" stroke="rgb(126,0,33)" stroke-linejoin="round" d="M 6727,11062 L 6727,11262 6927,11162 6727,11062 Z"/>
 <path fill="rgb(126,0,33)" stroke="none" d="M 6931,11048 L 6931,11248 7131,11148 6931,11048 Z"/>
 <path fill="none" stroke="rgb(126,0,33)" stroke-linejoin="round" d="M 6931,11048 L 6931,11248 7131,11148 6931,11048 Z"/>
 <path fill="rgb(126,0,33)" stroke="none" d="M 7135,11033 L 7135,11233 7335,11133 7135,11033 Z"/>
 <path fill="none" stroke="rgb(126,0,33)" stroke-linejoin="round" d="M 7135,11033 L 7135,11233 7335,11133 7135,11033 Z"/>
 <path fill="rgb(126,0,33)" stroke="none" d="M 7339,10976 L 7339,11176 7538,11076 7339,10976 Z"/>
 <path fill="none" stroke="rgb(126,0,33)" stroke-linejoin="round" d="M 7339,10976 L 7339,11176 7538,11076 7339,10976 Z"/>
 <path fill="rgb(126,0,33)" stroke="none" d="M 7542,10933 L 7542,11133 7742,11033 7542,10933 Z"/>
 <path fill="none" stroke="rgb(126,0,33)" stroke-linejoin="round" d="M 7542,10933 L 7542,11133 7742,11033 7542,10933 Z"/>
 <path fill="rgb(126,0,33)" stroke="none" d="M 7746,10846 L 7746,11046 7946,10946 7746,10846 Z"/>
 <path fill="none" stroke="rgb(126,0,33)" stroke-linejoin="round" d="M 7746,10846 L 7746,11046 7946,10946 7746,10846 Z"/>
 <path fill="rgb(126,0,33)" stroke="none" d="M 7951,10817 L 7951,11017 8151,10917 7951,10817 Z"/>
 <path fill="none" stroke="rgb(126,0,33)" stroke-linejoin="round" d="M 7951,10817 L 7951,11017 8151,10917 7951,10817 Z"/>
 <path fill="rgb(126,0,33)" stroke="none" d="M 8155,10716 L 8155,10916 8355,10816 8155,10716 Z"/>
 <path fill="none" stroke="rgb(126,0,33)" stroke-linejoin="round" d="M 8155,10716 L 8155,10916 8355,10816 8155,10716 Z"/>
 <path fill="rgb(126,0,33)" stroke="none" d="M 8359,10644 L 8359,10844 8559,10744 8359,10644 Z"/>
 <path fill="none" stroke="rgb(126,0,33)" stroke-linejoin="round" d="M 8359,10644 L 8359,10844 8559,10744 8359,10644 Z"/>
 <path fill="rgb(126,0,33)" stroke="none" d="M 8563,10486 L 8563,10686 8763,10586 8563,10486 Z"/>
 <path fill="none" stroke="rgb(126,0,33)" stroke-linejoin="round" d="M 8563,10486 L 8563,10686 8763,10586 8563,10486 Z"/>
 <path fill="rgb(126,0,33)" stroke="none" d="M 8767,10428 L 8767,10628 8967,10528 8767,10428 Z"/>
 <path fill="none" stroke="rgb(126,0,33)" stroke-linejoin="round" d="M 8767,10428 L 8767,10628 8967,10528 8767,10428 Z"/>
 <path fill="rgb(126,0,33)" stroke="none" d="M 8971,10241 L 8971,10441 9171,10341 8971,10241 Z"/>
 <path fill="none" stroke="rgb(126,0,33)" stroke-linejoin="round" d="M 8971,10241 L 8971,10441 9171,10341 8971,10241 Z"/>
 <path fill="rgb(126,0,33)" stroke="none" d="M 9175,10155 L 9175,10355 9375,10255 9175,10155 Z"/>
 <path fill="none" stroke="rgb(126,0,33)" stroke-linejoin="round" d="M 9175,10155 L 9175,10355 9375,10255 9175,10155 Z"/>
 <path fill="rgb(126,0,33)" stroke="none" d="M 9380,9895 L 9380,10095 9580,9995 9380,9895 Z"/>
 <path fill="none" stroke="rgb(126,0,33)" stroke-linejoin="round" d="M 9380,9895 L 9380,10095 9580,9995 9380,9895 Z"/>
 <path fill="rgb(126,0,33)" stroke="none" d="M 9584,9622 L 9584,9822 9784,9722 9584,9622 Z"/>
 <path fill="none" stroke="rgb(126,0,33)" stroke-linejoin="round" d="M 9584,9622 L 9584,9822 9784,9722 9584,9622 Z"/>
 <path fill="rgb(126,0,33)" stroke="none" d="M 9788,9377 L 9788,9577 9988,9477 9788,9377 Z"/>
 <path fill="none" stroke="rgb(126,0,33)" stroke-linejoin="round" d="M 9788,9377 L 9788,9577 9988,9477 9788,9377 Z"/>
 <path fill="rgb(126,0,33)" stroke="none" d="M 9992,9117 L 9992,9317 10192,9217 9992,9117 Z"/>
 <path fill="none" stroke="rgb(126,0,33)" stroke-linejoin="round" d="M 9992,9117 L 9992,9317 10192,9217 9992,9117 Z"/>
 <path fill="rgb(126,0,33)" stroke="none" d="M 10196,8815 L 10196,9015 10396,8915 10196,8815 Z"/>
 <path fill="none" stroke="rgb(126,0,33)" stroke-linejoin="round" d="M 10196,8815 L 10196,9015 10396,8915 10196,8815 Z"/>
 <path fill="rgb(126,0,33)" stroke="none" d="M 10400,8599 L 10400,8799 10600,8699 10400,8599 Z"/>
 <path fill="none" stroke="rgb(126,0,33)" stroke-linejoin="round" d="M 10400,8599 L 10400,8799 10600,8699 10400,8599 Z"/>
 <path fill="rgb(126,0,33)" stroke="none" d="M 10605,8368 L 10605,8568 10805,8468 10605,8368 Z"/>
 <path fill="none" stroke="rgb(126,0,33)" stroke-linejoin="round" d="M 10605,8368 L 10605,8568 10805,8468 10605,8368 Z"/>
 <path fill="rgb(126,0,33)" stroke="none" d="M 10809,8166 L 10809,8366 11009,8266 10809,8166 Z"/>
 <path fill="none" stroke="rgb(126,0,33)" stroke-linejoin="round" d="M 10809,8166 L 10809,8366 11009,8266 10809,8166 Z"/>
 <path fill="rgb(126,0,33)" stroke="none" d="M 11013,8037 L 11013,8237 11213,8137 11013,8037 Z"/>
 <path fill="none" stroke="rgb(126,0,33)" stroke-linejoin="round" d="M 11013,8037 L 11013,8237 11213,8137 11013,8037 Z"/>
 <path fill="rgb(126,0,33)" stroke="none" d="M 11217,7777 L 11217,7977 11417,7877 11217,7777 Z"/>
 <path fill="none" stroke="rgb(126,0,33)" stroke-linejoin="round" d="M 11217,7777 L 11217,7977 11417,7877 11217,7777 Z"/>
 <path fill="rgb(126,0,33)" stroke="none" d="M 11421,7604 L 11421,7804 11621,7704 11421,7604 Z"/>
 <path fill="none" stroke="rgb(126,0,33)" stroke-linejoin="round" d="M 11421,7604 L 11421,7804 11621,7704 11421,7604 Z"/>
 <path fill="rgb(126,0,33)" stroke="none" d="M 11625,7345 L 11625,7545 11825,7445 11625,7345 Z"/>
 <path fill="none" stroke="rgb(126,0,33)" stroke-linejoin="round" d="M 11625,7345 L 11625,7545 11825,7445 11625,7345 Z"/>
 <path fill="rgb(126,0,33)" stroke="none" d="M 11829,7158 L 11829,7358 12029,7258 11829,7158 Z"/>
 <path fill="none" stroke="rgb(126,0,33)" stroke-linejoin="round" d="M 11829,7158 L 11829,7358 12029,7258 11829,7158 Z"/>
 <path fill="rgb(126,0,33)" stroke="none" d="M 12034,7014 L 12034,7214 12234,7114 12034,7014 Z"/>
 <path fill="none" stroke="rgb(126,0,33)" stroke-linejoin="round" d="M 12034,7014 L 12034,7214 12234,7114 12034,7014 Z"/>
 <path fill="rgb(126,0,33)" stroke="none" d="M 12238,6927 L 12238,7127 12438,7027 12238,6927 Z"/>
 <path fill="none" stroke="rgb(126,0,33)" stroke-linejoin="round" d="M 12238,6927 L 12238,7127 12438,7027 12238,6927 Z"/>
 <path fill="rgb(126,0,33)" stroke="none" d="M 12442,6798 L 12442,6998 12642,6898 12442,6798 Z"/>
 <path fill="none" stroke="rgb(126,0,33)" stroke-linejoin="round" d="M 12442,6798 L 12442,6998 12642,6898 12442,6798 Z"/>
 <path fill="rgb(126,0,33)" stroke="none" d="M 12646,6639 L 12646,6839 12846,6739 12646,6639 Z"/>
 <path fill="none" stroke="rgb(126,0,33)" stroke-linejoin="round" d="M 12646,6639 L 12646,6839 12846,6739 12646,6639 Z"/>
 <path fill="rgb(126,0,33)" stroke="none" d="M 12850,6495 L 12850,6695 13050,6595 12850,6495 Z"/>
 <path fill="none" stroke="rgb(126,0,33)" stroke-linejoin="round" d="M 12850,6495 L 12850,6695 13050,6595 12850,6495 Z"/>
 <path fill="rgb(126,0,33)" stroke="none" d="M 13054,6293 L 13054,6493 13254,6393 13054,6293 Z"/>
 <path fill="none" stroke="rgb(126,0,33)" stroke-linejoin="round" d="M 13054,6293 L 13054,6493 13254,6393 13054,6293 Z"/>
 <path fill="rgb(126,0,33)" stroke="none" d="M 13259,6121 L 13259,6321 13459,6221 13259,6121 Z"/>
 <path fill="none" stroke="rgb(126,0,33)" stroke-linejoin="round" d="M 13259,6121 L 13259,6321 13459,6221 13259,6121 Z"/>
 <path fill="rgb(126,0,33)" stroke="none" d="M 13463,6034 L 13463,6234 13663,6134 13463,6034 Z"/>
 <path fill="none" stroke="rgb(126,0,33)" stroke-linejoin="round" d="M 13463,6034 L 13463,6234 13663,6134 13463,6034 Z"/>
 <path fill="rgb(126,0,33)" stroke="none" d="M 13667,5920 L 13667,6119 13867,6019 13667,5920 Z"/>
 <path fill="none" stroke="rgb(126,0,33)" stroke-linejoin="round" d="M 13667,5920 L 13667,6119 13867,6019 13667,5920 Z"/>
 <path fill="rgb(126,0,33)" stroke="none" d="M 13871,5805 L 13871,6004 14071,5905 13871,5805 Z"/>
 <path fill="none" stroke="rgb(126,0,33)" stroke-linejoin="round" d="M 13871,5805 L 13871,6004 14071,5905 13871,5805 Z"/>
 <path fill="rgb(126,0,33)" stroke="none" d="M 14075,5704 L 14075,5904 14275,5804 14075,5704 Z"/>
 <path fill="none" stroke="rgb(126,0,33)" stroke-linejoin="round" d="M 14075,5704 L 14075,5904 14275,5804 14075,5704 Z"/>
 <path fill="rgb(126,0,33)" stroke="none" d="M 14279,5603 L 14279,5803 14479,5703 14279,5603 Z"/>
 <path fill="none" stroke="rgb(126,0,33)" stroke-linejoin="round" d="M 14279,5603 L 14279,5803 14479,5703 14279,5603 Z"/>
 <path fill="rgb(126,0,33)" stroke="none" d="M 14483,5516 L 14483,5716 14683,5616 14483,5516 Z"/>
 <path fill="none" stroke="rgb(126,0,33)" stroke-linejoin="round" d="M 14483,5516 L 14483,5716 14683,5616 14483,5516 Z"/>
 <path fill="none" stroke="rgb(131,202,255)" stroke-width="50" stroke-linejoin="round" d="M 7439,11163 L 7642,11163 7846,11121 8051,11078 8255,10993 8459,10866 8663,10569 8867,10484 9071,10357 9275,10145 9480,9763 9684,9636 9888,9424 10092,9254 10296,9042 10500,8702 10705,8320 10909,7896 11113,7599 11317,7472 11521,7387 11725,7217 11929,7090 12134,6920 12338,6708 12542,6581 12746,6496 12950,6454 13154,6326 13359,6284 13563,6241 13767,6114 13971,5988 14175,5945 14379,5903 14583,5861"/>
 <path fill="rgb(131,202,255)" stroke="none" d="M 7339,11163 L 7538,11263 7538,11063 7339,11163 Z"/>
 <path fill="none" stroke="rgb(131,202,255)" stroke-linejoin="round" d="M 7339,11163 L 7538,11263 7538,11063 7339,11163 Z"/>
 <path fill="rgb(131,202,255)" stroke="none" d="M 7542,11163 L 7742,11263 7742,11063 7542,11163 Z"/>
 <path fill="none" stroke="rgb(131,202,255)" stroke-linejoin="round" d="M 7542,11163 L 7742,11263 7742,11063 7542,11163 Z"/>
 <path fill="rgb(131,202,255)" stroke="none" d="M 7746,11121 L 7946,11221 7946,11021 7746,11121 Z"/>
 <path fill="none" stroke="rgb(131,202,255)" stroke-linejoin="round" d="M 7746,11121 L 7946,11221 7946,11021 7746,11121 Z"/>
 <path fill="rgb(131,202,255)" stroke="none" d="M 7951,11078 L 8151,11178 8151,10978 7951,11078 Z"/>
 <path fill="none" stroke="rgb(131,202,255)" stroke-linejoin="round" d="M 7951,11078 L 8151,11178 8151,10978 7951,11078 Z"/>
 <path fill="rgb(131,202,255)" stroke="none" d="M 8155,10993 L 8355,11093 8355,10893 8155,10993 Z"/>
 <path fill="none" stroke="rgb(131,202,255)" stroke-linejoin="round" d="M 8155,10993 L 8355,11093 8355,10893 8155,10993 Z"/>
 <path fill="rgb(131,202,255)" stroke="none" d="M 8359,10866 L 8559,10966 8559,10766 8359,10866 Z"/>
 <path fill="none" stroke="rgb(131,202,255)" stroke-linejoin="round" d="M 8359,10866 L 8559,10966 8559,10766 8359,10866 Z"/>
 <path fill="rgb(131,202,255)" stroke="none" d="M 8563,10569 L 8763,10669 8763,10469 8563,10569 Z"/>
 <path fill="none" stroke="rgb(131,202,255)" stroke-linejoin="round" d="M 8563,10569 L 8763,10669 8763,10469 8563,10569 Z"/>
 <path fill="rgb(131,202,255)" stroke="none" d="M 8767,10484 L 8967,10584 8967,10384 8767,10484 Z"/>
 <path fill="none" stroke="rgb(131,202,255)" stroke-linejoin="round" d="M 8767,10484 L 8967,10584 8967,10384 8767,10484 Z"/>
 <path fill="rgb(131,202,255)" stroke="none" d="M 8971,10357 L 9171,10457 9171,10257 8971,10357 Z"/>
 <path fill="none" stroke="rgb(131,202,255)" stroke-linejoin="round" d="M 8971,10357 L 9171,10457 9171,10257 8971,10357 Z"/>
 <path fill="rgb(131,202,255)" stroke="none" d="M 9175,10145 L 9375,10245 9375,10045 9175,10145 Z"/>
 <path fill="none" stroke="rgb(131,202,255)" stroke-linejoin="round" d="M 9175,10145 L 9375,10245 9375,10045 9175,10145 Z"/>
 <path fill="rgb(131,202,255)" stroke="none" d="M 9380,9763 L 9580,9863 9580,9663 9380,9763 Z"/>
 <path fill="none" stroke="rgb(131,202,255)" stroke-linejoin="round" d="M 9380,9763 L 9580,9863 9580,9663 9380,9763 Z"/>
 <path fill="rgb(131,202,255)" stroke="none" d="M 9584,9636 L 9784,9736 9784,9536 9584,9636 Z"/>
 <path fill="none" stroke="rgb(131,202,255)" stroke-linejoin="round" d="M 9584,9636 L 9784,9736 9784,9536 9584,9636 Z"/>
 <path fill="rgb(131,202,255)" stroke="none" d="M 9788,9424 L 9988,9524 9988,9324 9788,9424 Z"/>
 <path fill="none" stroke="rgb(131,202,255)" stroke-linejoin="round" d="M 9788,9424 L 9988,9524 9988,9324 9788,9424 Z"/>
 <path fill="rgb(131,202,255)" stroke="none" d="M 9992,9254 L 10192,9354 10192,9154 9992,9254 Z"/>
 <path fill="none" stroke="rgb(131,202,255)" stroke-linejoin="round" d="M 9992,9254 L 10192,9354 10192,9154 9992,9254 Z"/>
 <path fill="rgb(131,202,255)" stroke="none" d="M 10196,9042 L 10396,9142 10396,8942 10196,9042 Z"/>
 <path fill="none" stroke="rgb(131,202,255)" stroke-linejoin="round" d="M 10196,9042 L 10396,9142 10396,8942 10196,9042 Z"/>
 <path fill="rgb(131,202,255)" stroke="none" d="M 10400,8702 L 10600,8802 10600,8602 10400,8702 Z"/>
 <path fill="none" stroke="rgb(131,202,255)" stroke-linejoin="round" d="M 10400,8702 L 10600,8802 10600,8602 10400,8702 Z"/>
 <path fill="rgb(131,202,255)" stroke="none" d="M 10605,8320 L 10805,8420 10805,8220 10605,8320 Z"/>
 <path fill="none" stroke="rgb(131,202,255)" stroke-linejoin="round" d="M 10605,8320 L 10805,8420 10805,8220 10605,8320 Z"/>
 <path fill="rgb(131,202,255)" stroke="none" d="M 10809,7896 L 11009,7996 11009,7796 10809,7896 Z"/>
 <path fill="none" stroke="rgb(131,202,255)" stroke-linejoin="round" d="M 10809,7896 L 11009,7996 11009,7796 10809,7896 Z"/>
 <path fill="rgb(131,202,255)" stroke="none" d="M 11013,7599 L 11213,7699 11213,7499 11013,7599 Z"/>
 <path fill="none" stroke="rgb(131,202,255)" stroke-linejoin="round" d="M 11013,7599 L 11213,7699 11213,7499 11013,7599 Z"/>
 <path fill="rgb(131,202,255)" stroke="none" d="M 11217,7472 L 11417,7572 11417,7372 11217,7472 Z"/>
 <path fill="none" stroke="rgb(131,202,255)" stroke-linejoin="round" d="M 11217,7472 L 11417,7572 11417,7372 11217,7472 Z"/>
 <path fill="rgb(131,202,255)" stroke="none" d="M 11421,7387 L 11621,7487 11621,7287 11421,7387 Z"/>
 <path fill="none" stroke="rgb(131,202,255)" stroke-linejoin="round" d="M 11421,7387 L 11621,7487 11621,7287 11421,7387 Z"/>
 <path fill="rgb(131,202,255)" stroke="none" d="M 11625,7217 L 11825,7317 11825,7117 11625,7217 Z"/>
 <path fill="none" stroke="rgb(131,202,255)" stroke-linejoin="round" d="M 11625,7217 L 11825,7317 11825,7117 11625,7217 Z"/>
 <path fill="rgb(131,202,255)" stroke="none" d="M 11829,7090 L 12029,7190 12029,6990 11829,7090 Z"/>
 <path fill="none" stroke="rgb(131,202,255)" stroke-linejoin="round" d="M 11829,7090 L 12029,7190 12029,6990 11829,7090 Z"/>
 <path fill="rgb(131,202,255)" stroke="none" d="M 12034,6920 L 12234,7020 12234,6820 12034,6920 Z"/>
 <path fill="none" stroke="rgb(131,202,255)" stroke-linejoin="round" d="M 12034,6920 L 12234,7020 12234,6820 12034,6920 Z"/>
 <path fill="rgb(131,202,255)" stroke="none" d="M 12238,6708 L 12438,6808 12438,6608 12238,6708 Z"/>
 <path fill="none" stroke="rgb(131,202,255)" stroke-linejoin="round" d="M 12238,6708 L 12438,6808 12438,6608 12238,6708 Z"/>
 <path fill="rgb(131,202,255)" stroke="none" d="M 12442,6581 L 12642,6681 12642,6481 12442,6581 Z"/>
 <path fill="none" stroke="rgb(131,202,255)" stroke-linejoin="round" d="M 12442,6581 L 12642,6681 12642,6481 12442,6581 Z"/>
 <path fill="rgb(131,202,255)" stroke="none" d="M 12646,6496 L 12846,6596 12846,6396 12646,6496 Z"/>
 <path fill="none" stroke="rgb(131,202,255)" stroke-linejoin="round" d="M 12646,6496 L 12846,6596 12846,6396 12646,6496 Z"/>
 <path fill="rgb(131,202,255)" stroke="none" d="M 12850,6454 L 13050,6554 13050,6354 12850,6454 Z"/>
 <path fill="none" stroke="rgb(131,202,255)" stroke-linejoin="round" d="M 12850,6454 L 13050,6554 13050,6354 12850,6454 Z"/>
 <path fill="rgb(131,202,255)" stroke="none" d="M 13054,6326 L 13254,6426 13254,6226 13054,6326 Z"/>
 <path fill="none" stroke="rgb(131,202,255)" stroke-linejoin="round" d="M 13054,6326 L 13254,6426 13254,6226 13054,6326 Z"/>
 <path fill="rgb(131,202,255)" stroke="none" d="M 13259,6284 L 13459,6384 13459,6184 13259,6284 Z"/>
 <path fill="none" stroke="rgb(131,202,255)" stroke-linejoin="round" d="M 13259,6284 L 13459,6384 13459,6184 13259,6284 Z"/>
 <path fill="rgb(131,202,255)" stroke="none" d="M 13463,6241 L 13663,6341 13663,6141 13463,6241 Z"/>
 <path fill="none" stroke="rgb(131,202,255)" stroke-linejoin="round" d="M 13463,6241 L 13663,6341 13663,6141 13463,6241 Z"/>
 <path fill="rgb(131,202,255)" stroke="none" d="M 13667,6114 L 13867,6214 13867,6014 13667,6114 Z"/>
 <path fill="none" stroke="rgb(131,202,255)" stroke-linejoin="round" d="M 13667,6114 L 13867,6214 13867,6014 13667,6114 Z"/>
 <path fill="rgb(131,202,255)" stroke="none" d="M 13871,5988 L 14071,6087 14071,5888 13871,5988 Z"/>
 <path fill="none" stroke="rgb(131,202,255)" stroke-linejoin="round" d="M 13871,5988 L 14071,6087 14071,5888 13871,5988 Z"/>
 <path fill="rgb(131,202,255)" stroke="none" d="M 14075,5945 L 14275,6044 14275,5845 14075,5945 Z"/>
 <path fill="none" stroke="rgb(131,202,255)" stroke-linejoin="round" d="M 14075,5945 L 14275,6044 14275,5845 14075,5945 Z"/>
 <path fill="rgb(131,202,255)" stroke="none" d="M 14279,5903 L 14479,6002 14479,5803 14279,5903 Z"/>
 <path fill="none" stroke="rgb(131,202,255)" stroke-linejoin="round" d="M 14279,5903 L 14479,6002 14479,5803 14279,5903 Z"/>
 <path fill="rgb(131,202,255)" stroke="none" d="M 14483,5861 L 14683,5961 14683,5761 14483,5861 Z"/>
 <path fill="none" stroke="rgb(131,202,255)" stroke-linejoin="round" d="M 14483,5861 L 14683,5961 14683,5761 14483,5861 Z"/>
 <text class="TextShape"><tspan class="TextParagraph" font-family="Liberation Sans, sans-serif" font-size="353px" font-weight="400"><tspan class="TextPosition" x="891" y="11774"><tspan fill="rgb(0,0,0)" stroke="none">20/02</tspan></tspan></tspan></text>
 <text class="TextShape"><tspan class="TextParagraph" font-family="Liberation Sans, sans-serif" font-size="353px" font-weight="400"><tspan class="TextPosition" x="2320" y="11774"><tspan fill="rgb(0,0,0)" stroke="none">27/02</tspan></tspan></tspan></text>
 <text class="TextShape"><tspan class="TextParagraph" font-family="Liberation Sans, sans-serif" font-size="353px" font-weight="400"><tspan class="TextPosition" x="3749" y="11774"><tspan fill="rgb(0,0,0)" stroke="none">05/03</tspan></tspan></tspan></text>
 <text class="TextShape"><tspan class="TextParagraph" font-family="Liberation Sans, sans-serif" font-size="353px" font-weight="400"><tspan class="TextPosition" x="5178" y="11774"><tspan fill="rgb(0,0,0)" stroke="none">12/03</tspan></tspan></tspan></text>
 <text class="TextShape"><tspan class="TextParagraph" font-family="Liberation Sans, sans-serif" font-size="353px" font-weight="400"><tspan class="TextPosition" x="6607" y="11774"><tspan fill="rgb(0,0,0)" stroke="none">19/03</tspan></tspan></tspan></text>
 <text class="TextShape"><tspan class="TextParagraph" font-family="Liberation Sans, sans-serif" font-size="353px" font-weight="400"><tspan class="TextPosition" x="8036" y="11774"><tspan fill="rgb(0,0,0)" stroke="none">26/03</tspan></tspan></tspan></text>
 <text class="TextShape"><tspan class="TextParagraph" font-family="Liberation Sans, sans-serif" font-size="353px" font-weight="400"><tspan class="TextPosition" x="9465" y="11774"><tspan fill="rgb(0,0,0)" stroke="none">02/04</tspan></tspan></tspan></text>
 <text class="TextShape"><tspan class="TextParagraph" font-family="Liberation Sans, sans-serif" font-size="353px" font-weight="400"><tspan class="TextPosition" x="10894" y="11774"><tspan fill="rgb(0,0,0)" stroke="none">09/04</tspan></tspan></tspan></text>
 <text class="TextShape"><tspan class="TextParagraph" font-family="Liberation Sans, sans-serif" font-size="353px" font-weight="400"><tspan class="TextPosition" x="12323" y="11774"><tspan fill="rgb(0,0,0)" stroke="none">16/04</tspan></tspan></tspan></text>
 <text class="TextShape"><tspan class="TextParagraph" font-family="Liberation Sans, sans-serif" font-size="353px" font-weight="400"><tspan class="TextPosition" x="13752" y="11774"><tspan fill="rgb(0,0,0)" stroke="none">23/04</tspan></tspan></tspan></text>
 <text class="TextShape"><tspan class="TextParagraph" font-family="Liberation Sans, sans-serif" font-size="353px" font-weight="400"><tspan class="TextPosition" x="778" y="11327"><tspan fill="rgb(0,0,0)" stroke="none">0</tspan></tspan></tspan></text>
 <text class="TextShape"><tspan class="TextParagraph" font-family="Liberation Sans, sans-serif" font-size="353px" font-weight="400"><tspan class="TextPosition" x="407" y="9387"><tspan fill="rgb(0,0,0)" stroke="none">200</tspan></tspan></tspan></text>
 <text class="TextShape"><tspan class="TextParagraph" font-family="Liberation Sans, sans-serif" font-size="353px" font-weight="400"><tspan class="TextPosition" x="407" y="7448"><tspan fill="rgb(0,0,0)" stroke="none">400</tspan></tspan></tspan></text>
 <text class="TextShape"><tspan class="TextParagraph" font-family="Liberation Sans, sans-serif" font-size="353px" font-weight="400"><tspan class="TextPosition" x="407" y="5509"><tspan fill="rgb(0,0,0)" stroke="none">600</tspan></tspan></tspan></text>
 <text class="TextShape"><tspan class="TextParagraph" font-family="Liberation Sans, sans-serif" font-size="353px" font-weight="400"><tspan class="TextPosition" x="407" y="3570"><tspan fill="rgb(0,0,0)" stroke="none">800</tspan></tspan></tspan></text>
 <text class="TextShape"><tspan class="TextParagraph" font-family="Liberation Sans, sans-serif" font-size="353px" font-weight="400"><tspan class="TextPosition" x="116" y="1631"><tspan fill="rgb(0,0,0)" stroke="none">1.000</tspan></tspan></tspan></text>
 <text class="TextShape"><tspan class="TextParagraph" font-family="Liberation Sans, sans-serif" font-size="459px" font-weight="400"><tspan class="TextPosition" x="1245" y="657"><tspan fill="rgb(0,0,0)" stroke="none">Muertes acumuladas CCAA por milln de mayores de 65 aos (3)</tspan></tspan></tspan></text>
 <path fill="none" stroke="rgb(0,0,0)" stroke-width="50" stroke-linejoin="round" d="M 7158,2823 L 7957,2823"/>
 <path fill="rgb(0,0,0)" stroke="none" d="M 7452,2823 L 7557,2929 7662,2823 7557,2718 7452,2823 Z"/>
 <path fill="none" stroke="rgb(0,0,0)" stroke-linejoin="round" d="M 7452,2823 L 7557,2929 7662,2823 7557,2718 7452,2823 Z"/>
 <path fill="none" stroke="rgb(255,66,14)" stroke-width="50" stroke-linejoin="round" d="M 7158,3842 L 7957,3842"/>
 <path fill="rgb(255,66,14)" stroke="none" d="M 7452,3842 L 7557,3948 7662,3842 7557,3737 7452,3842 Z"/>
 <path fill="none" stroke="rgb(255,66,14)" stroke-linejoin="round" d="M 7452,3842 L 7557,3948 7662,3842 7557,3737 7452,3842 Z"/>
 <path fill="none" stroke="rgb(255,211,32)" stroke-width="50" stroke-linejoin="round" d="M 7158,4861 L 7957,4861"/>
 <path fill="rgb(255,211,32)" stroke="none" d="M 7452,4756 L 7557,4967 7662,4756 7452,4756 Z"/>
 <path fill="none" stroke="rgb(255,211,32)" stroke-linejoin="round" d="M 7452,4756 L 7557,4967 7662,4756 7452,4756 Z"/>
 <path fill="none" stroke="rgb(87,157,28)" stroke-width="50" stroke-linejoin="round" d="M 7158,5880 L 7957,5880"/>
 <path fill="rgb(87,157,28)" stroke="none" d="M 7452,5986 L 7662,5986 7557,5775 7452,5986 Z"/>
 <path fill="none" stroke="rgb(87,157,28)" stroke-linejoin="round" d="M 7452,5986 L 7662,5986 7557,5775 7452,5986 Z"/>
 <path fill="none" stroke="rgb(126,0,33)" stroke-width="50" stroke-linejoin="round" d="M 7158,6898 L 7957,6898"/>
 <path fill="rgb(126,0,33)" stroke="none" d="M 7452,6793 L 7452,7004 7662,6898 7452,6793 Z"/>
 <path fill="none" stroke="rgb(126,0,33)" stroke-linejoin="round" d="M 7452,6793 L 7452,7004 7662,6898 7452,6793 Z"/>
 <path fill="none" stroke="rgb(131,202,255)" stroke-width="50" stroke-linejoin="round" d="M 7158,7917 L 7957,7917"/>
 <path fill="rgb(131,202,255)" stroke="none" d="M 7452,7917 L 7662,8023 7662,7812 7452,7917 Z"/>
 <path fill="none" stroke="rgb(131,202,255)" stroke-linejoin="round" d="M 7452,7917 L 7662,8023 7662,7812 7452,7917 Z"/>
 <text class="TextShape"><tspan class="TextParagraph" font-family="Liberation Sans, sans-serif" font-size="353px" font-weight="400"><tspan class="TextPosition" x="8057" y="2943"><tspan fill="rgb(0,0,0)" stroke="none">Andaluca</tspan></tspan></tspan></text>
 <text class="TextShape"><tspan class="TextParagraph" font-family="Liberation Sans, sans-serif" font-size="353px" font-weight="400"><tspan class="TextPosition" x="8057" y="3962"><tspan fill="rgb(0,0,0)" stroke="none">Asturias </tspan></tspan></tspan></text>
 <text class="TextShape"><tspan class="TextParagraph" font-family="Liberation Sans, sans-serif" font-size="353px" font-weight="400"><tspan class="TextPosition" x="8057" y="4981"><tspan fill="rgb(0,0,0)" stroke="none">Baleares</tspan></tspan></tspan></text>
 <text class="TextShape"><tspan class="TextParagraph" font-family="Liberation Sans, sans-serif" font-size="353px" font-weight="400"><tspan class="TextPosition" x="8057" y="6000"><tspan fill="rgb(0,0,0)" stroke="none">Canarias</tspan></tspan></tspan></text>
 <text class="TextShape"><tspan class="TextParagraph" font-family="Liberation Sans, sans-serif" font-size="353px" font-weight="400"><tspan class="TextPosition" x="8057" y="7018"><tspan fill="rgb(0,0,0)" stroke="none">Galicia</tspan></tspan></tspan></text>
 <text class="TextShape"><tspan class="TextParagraph" font-family="Liberation Sans, sans-serif" font-size="353px" font-weight="400"><tspan class="TextPosition" x="8057" y="8037"><tspan fill="rgb(0,0,0)" stroke="none">Murcia</tspan></tspan></tspan></text>
</svg>