<?xml version="1.0" encoding="UTF-8"?>
<!DOCTYPE svg PUBLIC "-//W3C//DTD SVG 1.1//EN" "http://www.w3.org/Graphics/SVG/1.1/DTD/svg11.dtd">
<svg width="150mm" height="120mm" viewBox="0 0 15000 12000" version="1.1" xmlns="http://www.w3.org/2000/svg" xmlns:xlink="http://www.w3.org/1999/xlink" stroke-width="28.222" stroke-linejoin="round" xml:space="preserve">
 <path fill="rgb(255,255,255)" stroke="none" d="M 7500,12000 L 0,12000 0,0 15000,0 15000,12000 7500,12000 Z"/>
 <path fill="none" stroke="rgb(0,0,0)" stroke-linejoin="round" d="M 7955,11189 L 1224,11189 1224,1028 14687,1028 14687,11189 7955,11189 Z"/>
 <path fill="none" stroke="rgb(0,0,0)" stroke-linejoin="round" d="M 14686,11188 L 1223,11188"/>
 <path fill="none" stroke="rgb(0,0,0)" stroke-linejoin="round" d="M 14686,9340 L 1223,9340"/>
 <path fill="none" stroke="rgb(0,0,0)" stroke-linejoin="round" d="M 14686,7492 L 1223,7492"/>
 <path fill="none" stroke="rgb(0,0,0)" stroke-linejoin="round" d="M 14686,5646 L 1223,5646"/>
 <path fill="none" stroke="rgb(0,0,0)" stroke-linejoin="round" d="M 14686,3798 L 1223,3798"/>
 <path fill="none" stroke="rgb(0,0,0)" stroke-linejoin="round" d="M 14686,1950 L 1223,1950"/>
 <path fill="none" stroke="rgb(0,0,0)" stroke-linejoin="round" d="M 1223,11338 L 1223,11188"/>
 <path fill="none" stroke="rgb(0,0,0)" stroke-linejoin="round" d="M 1223,11338 L 1223,11188"/>
 <path fill="none" stroke="rgb(0,0,0)" stroke-linejoin="round" d="M 4122,11338 L 4122,11188"/>
 <path fill="none" stroke="rgb(0,0,0)" stroke-linejoin="round" d="M 4122,11338 L 4122,11188"/>
 <path fill="none" stroke="rgb(0,0,0)" stroke-linejoin="round" d="M 7020,11338 L 7020,11188"/>
 <path fill="none" stroke="rgb(0,0,0)" stroke-linejoin="round" d="M 7020,11338 L 7020,11188"/>
 <path fill="none" stroke="rgb(0,0,0)" stroke-linejoin="round" d="M 9824,11338 L 9824,11188"/>
 <path fill="none" stroke="rgb(0,0,0)" stroke-linejoin="round" d="M 9824,11338 L 9824,11188"/>
 <path fill="none" stroke="rgb(0,0,0)" stroke-linejoin="round" d="M 12723,11338 L 12723,11188"/>
 <path fill="none" stroke="rgb(0,0,0)" stroke-linejoin="round" d="M 12723,11338 L 12723,11188"/>
 <path fill="none" stroke="rgb(0,0,0)" stroke-linejoin="round" d="M 1223,11188 L 14686,11188"/>
 <path fill="none" stroke="rgb(0,0,0)" stroke-linejoin="round" d="M 1073,11188 L 1223,11188"/>
 <path fill="none" stroke="rgb(0,0,0)" stroke-linejoin="round" d="M 1073,11188 L 1223,11188"/>
 <path fill="none" stroke="rgb(0,0,0)" stroke-linejoin="round" d="M 1073,9340 L 1223,9340"/>
 <path fill="none" stroke="rgb(0,0,0)" stroke-linejoin="round" d="M 1073,9340 L 1223,9340"/>
 <path fill="none" stroke="rgb(0,0,0)" stroke-linejoin="round" d="M 1073,7492 L 1223,7492"/>
 <path fill="none" stroke="rgb(0,0,0)" stroke-linejoin="round" d="M 1073,7492 L 1223,7492"/>
 <path fill="none" stroke="rgb(0,0,0)" stroke-linejoin="round" d="M 1073,5646 L 1223,5646"/>
 <path fill="none" stroke="rgb(0,0,0)" stroke-linejoin="round" d="M 1073,5646 L 1223,5646"/>
 <path fill="none" stroke="rgb(0,0,0)" stroke-linejoin="round" d="M 1073,3798 L 1223,3798"/>
 <path fill="none" stroke="rgb(0,0,0)" stroke-linejoin="round" d="M 1073,3798 L 1223,3798"/>
 <path fill="none" stroke="rgb(0,0,0)" stroke-linejoin="round" d="M 1073,1950 L 1223,1950"/>
 <path fill="none" stroke="rgb(0,0,0)" stroke-linejoin="round" d="M 1073,1950 L 1223,1950"/>
 <path fill="none" stroke="rgb(0,0,0)" stroke-linejoin="round" d="M 1223,11188 L 1223,1027"/>
 <path fill="none" stroke="rgb(0,0,0)" stroke-width="100" stroke-linejoin="round" d="M 1223,11188 L 1317,11188 1410,11188"/>
 <path fill="none" stroke="rgb(0,0,0)" stroke-width="100" stroke-linejoin="round" d="M 2813,11188 L 2906,11188 3000,11188 3093,11188 3187,11188 3280,11188 3374,11188 3467,11188 3561,11180 3654,11180 3748,11180 3841,11180 3935,11172 4028,11096 4122,11088 4215,11088 4309,11088 4402,11088 4496,11088 4589,11088 4683,11088 4776,11081 4870,11081 4963,11081 5057,11081 5150,11081 5244,11065 5337,11027 5431,11027 5524,11027 5618,11027 5711,11027 5805,11027 5898,10959 5992,9821 6085,9821 6179,9791 6272,9791 6366,9791 6459,9775 6553,9218 6646,9210 6740,9188 6833,9111 6927,9111 7020,9111 7114,9035 7207,8943 7301,8768 7394,8722 7488,8684 7580,8684 7674,8684 7767,8669 7861,8592 7954,8592 8048,8363 8141,8356 8235,8356 8328,8356 8422,8356 8515,8073 8609,8081 8702,8073 8796,8035 8889,8035 8983,8035 9076,7982 9170,7669 9263,7669 9357,7653 9450,7630 9544,7630 9637,7630 9731,7585 9824,7524 9918,7409 10011,7409 10105,7249 10198,7249 10292,7249 10385,7233 10479,6837 10572,6844 10666,6837 10759,6745 10853,6745 10946,6745 11040,6692 11133,6142 11227,6127 11320,6119 11414,6027 11507,6027 11601,6027 11694,6005 11788,5349 11881,5349 11975,5326 12068,5296 12162,5296 12255,5296 12349,5257 12442,4471 12536,4464 12629,4425 12723,4311 12816,4311 12910,4311 13003,4288 13097,3647 13190,3632 13284,3570 13377,3540 13471,3540 13564,3540 13658,3494 13751,3494 13845,2891 13938,2884 14032,2792 14125,2792 14219,2792 14312,2746 14406,1998 14499,1990 14593,1945 14686,1945"/>
 <path fill="none" stroke="rgb(255,66,14)" stroke-width="100" stroke-linejoin="round" d="M 1223,11188 L 1317,11188 1410,11188 1504,11188 1597,11188 1691,11188 1784,11188 1878,11168 1971,11130 2065,11130 2158,11130 2252,11130 2345,11130 2439,11130 2532,11149 2626,11159 2719,11139 2813,11139 2906,11139 3000,11139 3093,11139 3187,11130 3280,11130 3374,11130 3467,11130 3561,11130 3654,11130 3748,11130 3841,11120 3935,11110 4028,11101 4122,11101 4215,11091 4309,11091 4402,11091 4496,11081 4589,11081 4683,11052 4776,11033 4870,11033 4963,11033 5057,11033 5150,11004 5244,10985 5337,10994 5431,10994 5524,10994 5618,10994 5711,10994 5805,10946 5898,10936 5992,10927 6085,10898 6179,10869 6272,10869 6366,10869 6459,10811 6553,10772 6646,10724 6740,10598 6833,10424 6927,10424 7020,10424 7114,10193 7207,10028 7301,9777 7394,9603 7488,9459 7580,9459 7674,9459 7767,9372 7861,9323 7954,9227 8048,9140 8141,9043 8235,9043 8328,9043 8422,8927 8515,8918 8609,8821 8702,8560 8796,8386 8889,8386 8983,8386 9076,8309 9170,8300 9263,8280 9357,8251 9450,8232 9544,8232 9637,8232 9731,8126 9824,7952 9918,7797 10011,7585 10105,7392 10198,7392 10292,7392 10385,7276 10479,7198 10572,7498 10666,7266 10759,7131 10853,7131 10946,7131 11040,6909 11133,6754 11227,6629 11320,6426 11414,6233 11507,6233 11601,6233 11694,5954 11788,5857 11881,5731 11975,5364 12068,5133 12162,5133 12255,5133 12349,4862 12442,4804 12536,4524 12629,4370 12723,4147 12816,4147 12910,4147 13003,4012 13097,3906 13190,3674 13284,3587 13377,3529 13471,3529 13564,3529 13658,3394 13751,3394 13845,3239 13938,3085 14032,2853 14125,2853 14219,2853 14312,2332 14406,2225 14499,2071 14593,1868 14686,1752"/>
 <path fill="none" stroke="rgb(255,211,32)" stroke-width="100" stroke-linejoin="round" d="M 1223,11188 L 1317,11188 1410,11188 1504,11188 1597,11188 1691,11188 1784,11188 1878,11188 1971,11188 2065,11188 2158,11188 2252,11188 2345,11188 2439,11188 2532,11188 2626,11188 2719,11171 2813,11171 2906,11171 3000,11171 3093,11171 3187,11139 3280,11139 3374,11123 3467,11123 3561,11123 3654,11123 3748,11123 3841,11107 3935,11090 4028,11074 4122,11074 4215,11058 4309,11058 4402,11058 4496,11058 4589,11058 4683,11042 4776,11042 4870,11042 4963,11042 5057,11042 5150,10993 5244,10961 5337,10929 5431,10880 5524,10848 5618,10848 5711,10848 5805,10783 5898,10702 5992,10702 6085,10702 6179,10460 6272,10460 6366,10460 6459,10460 6553,10427 6646,10395 6740,10347 6833,10330 6927,10330 7020,10330 7114,10314 7207,10169 7301,10136 7394,10104 7488,10056 7580,10056 7674,10056 7767,9975 7861,9975 7954,9958 8048,9926 8141,9845 8235,9845 8328,9845 8422,9764 8515,9716 8609,9490 8702,9473 8796,9425 8889,9425 8983,9425 9076,9360 9170,9215 9263,9150 9357,9069 9450,9004 9544,9004 9637,9004 9731,8924 9824,8746 9918,8729 10011,8632 10105,8455 10198,8455 10292,8455 10385,8147 10479,8066 10572,7775 10666,7468 10759,7290 10853,7290 10946,7290 11040,7064 11133,6708 11227,6433 11320,6271 11414,5949 11507,5949 11601,5949 11694,5723 11788,5480 11881,5302 11975,5157 12068,4801 12162,4801 12255,4801 12349,4607 12442,4429 12536,4154 12629,4057 12723,3928 12816,3928 12910,3928 13003,3814 13097,3701 13190,3637 13284,3556 13377,3507 13471,3507 13564,3507 13658,3313 13751,3313 13845,3313 13938,3119 14032,2941 14125,2941 14219,2941 14312,2779 14406,2602 14499,2472 14593,2408 14686,2294"/>
 <path fill="none" stroke="rgb(87,157,28)" stroke-width="100" stroke-linejoin="round" d=""/>
 <path fill="none" stroke="rgb(87,157,28)" stroke-width="100" stroke-linejoin="round" d="M 1925,11188 L 1971,11185 2065,11185 2158,11182 2252,11182 2345,11182 2439,11182 2532,11169 2626,11169 2719,11169 2813,11164 2906,11164 3000,11164 3093,11164 3187,11146 3280,11138 3374,11135 3467,11135 3561,11125 3654,11125 3748,11125 3841,11109 3935,11096 4028,11085 4122,11083 4215,11072 4309,11072 4402,11072 4496,11038 4589,11020 4683,11004 4776,10996 4870,10978 4963,10978 5057,10978 5150,10923 5244,10902 5337,10889 5431,10847 5524,10829 5618,10829 5711,10829 5805,10776 5898,10721 5992,10677 6085,10611 6179,10596 6272,10596 6366,10596 6459,10522 6553,10491 6646,10459 6740,10459 6833,10381 6927,10381 7020,10381 7114,10287 7207,10221 7301,10163 7394,10116 7488,10059 7580,10059 7674,10059 7767,10012 7861,9886 7954,9865 8048,9802 8141,9765 8235,9765 8328,9765 8422,9658 8515,9658 8609,9572 8702,9540 8796,9464 8889,9464 8983,9464 9076,9352 9170,9249 9263,9234 9357,9231 9450,9003 9544,9003 9637,9003 9731,8888 9824,8741 9918,8658 10011,8579 10105,8479 10198,8479 10292,8479 10385,8218 10479,8134 10572,7971 10666,7890 10759,7665 10853,7665 10946,7665 11040,7393 11133,7157 11227,6994 11320,6816 11414,6685 11507,6685 11601,6685 11694,6400 11788,6164 11881,5982 11975,5856 12068,5712 12162,5712 12255,5712 12349,5435 12442,5194 12536,5023 12629,4887 12723,4727 12816,4727 12910,4727 13003,4426 13097,4214 13190,3991 13284,3816 13377,3698 13471,3698 13564,3698 13658,3512 13751,3512 13845,3329 13938,3185 14032,3101 14125,3101 14219,3101 14312,2949 14406,2821 14499,2755 14593,2690 14686,2580"/>
 <path fill="none" stroke="rgb(126,0,33)" stroke-width="100" stroke-linejoin="round" d="M 1223,11188 L 1317,11188 1410,11188 1504,11171 1597,11171 1691,11171 1784,11171 1878,11171 1971,11171 2065,11171 2158,11171 2252,11154 2345,11154 2439,11154 2532,11154 2626,11154 2719,11137 2813,11137 2906,11137 3000,11137 3093,11137 3187,11120 3280,11120 3374,11120 3467,11120 3561,11103 3654,11103 3748,11103 3841,11069 3935,11069 4028,11069 4122,11069 4215,11069 4309,11069 4402,11069 4496,11053 4589,11053 4683,11019 4776,11019 4870,11002 4963,11002 5057,11002 5150,10951 5244,10951 5337,10867 5431,10867 5524,10867 5618,10867 5711,10867 5805,10867 5898,10867 5992,10833 6085,10833 6179,10766 6272,10766 6366,10766 6459,10682 6553,10665 6646,10547 6740,10463 6833,10429 6927,10429 7020,10429 7114,10328 7207,10260 7301,10210 7394,10142 7488,9991 7580,9991 7674,9991 7767,9822 7861,9687 7954,9535 8048,9468 8141,9451 8235,9451 8328,9451 8422,9316 8515,9283 8609,9198 8702,9114 8796,9047 8889,9047 8983,9047 9076,8962 9170,8878 9263,8811 9357,8642 9450,8541 9544,8541 9637,8541 9731,8355 9824,8187 9918,8119 10011,8086 10105,7900 10198,7900 10292,7900 10385,7597 10479,7411 10572,7226 10666,7125 10759,6956 10853,6956 10946,6956 11040,6686 11133,6450 11227,6366 11320,6231 11414,6012 11507,6012 11601,6012 11694,5811 11788,5608 11881,5440 11975,5238 12068,5204 12162,5204 12255,5204 12349,4850 12442,4732 12536,4614 12629,4513 12723,4294 12816,4294 12910,4294 13003,4074 13097,3889 13190,3821 13284,3653 13377,3569 13471,3569 13564,3569 13658,3383 13751,3383 13845,3333 13938,3248 14032,3147 14125,3147 14219,3147 14312,2877 14406,2827 14499,2743 14593,2726 14686,2591"/>
 <path fill="none" stroke="rgb(131,202,255)" stroke-width="80" stroke-linejoin="round" d="M 1223,11188 L 1317,11182 1410,11175 1504,11172 1597,11172 1691,11172 1784,11172 1878,11169 1971,11128 2065,11128 2158,11128 2252,11125 2345,11125 2439,11125 2532,11120 2626,11120 2719,11120 2813,11112 2906,11112 3000,11112 3093,11112 3187,11110 3280,11104 3374,11089 3467,11078 3561,11073 3654,11073 3748,11073 3841,11071 3935,11065 4028,11032 4122,11029 4215,11029 4309,11029 4402,11029 4496,11029 4589,11008 4683,10987 4776,10985 4870,10977 4963,10977 5057,10977 5150,10956 5244,10954 5337,10946 5431,10946 5524,10928 5618,10928 5711,10928 5805,10928 5898,10928 5992,10909 6085,10886 6179,10883 6272,10883 6366,10883 6459,10870 6553,10855 6646,10816 6740,10813 6833,10800 6927,10800 7020,10800 7114,10785 7207,10779 7301,10777 7394,10753 7488,10743 7580,10743 7674,10743 7767,10738 7861,10725 7954,10717 8048,10707 8141,10681 8235,10681 8328,10681 8422,10660 8515,10660 8609,10642 8702,10629 8796,10592 8889,10592 8983,10592 9076,10582 9170,10566 9263,10545 9357,10465 9450,10460 9544,10460 9637,10460 9731,10457 9824,10439 9918,10428 10011,10415 10105,10379 10198,10379 10292,10379 10385,10353 10479,10262 10572,7566 10666,7374 10759,7171 10853,7171 10946,7171 11040,7049 11133,6979 11227,6947 11320,6872 11414,6815 11507,6815 11601,6815 11694,6763 11788,6690 11881,6648 11975,6586 12068,6469 12162,6469 12255,6469 12349,6206 12442,5958 12536,5695 12629,5547 12723,5389 12816,5389 12910,5389 13003,5389 13097,5149 13190,4983 13284,4892 13377,4830 13471,4830 13564,4830 13658,4713 13751,4713 13845,4512 13938,4401 14032,4299 14125,4299 14219,4299 14312,4112 14406,3982 14499,3922 14593,3852 14686,3829"/>
 <text class="TextShape"><tspan class="TextParagraph" font-family="Liberation Sans, sans-serif" font-size="353px" font-weight="400"><tspan class="TextPosition" x="799" y="11756"><tspan fill="rgb(0,0,0)" stroke="none">27/07</tspan></tspan></tspan></text>
 <text class="TextShape"><tspan class="TextParagraph" font-family="Liberation Sans, sans-serif" font-size="353px" font-weight="400"><tspan class="TextPosition" x="3698" y="11756"><tspan fill="rgb(0,0,0)" stroke="none">27/08</tspan></tspan></tspan></text>
 <text class="TextShape"><tspan class="TextParagraph" font-family="Liberation Sans, sans-serif" font-size="353px" font-weight="400"><tspan class="TextPosition" x="6596" y="11756"><tspan fill="rgb(0,0,0)" stroke="none">27/09</tspan></tspan></tspan></text>
 <text class="TextShape"><tspan class="TextParagraph" font-family="Liberation Sans, sans-serif" font-size="353px" font-weight="400"><tspan class="TextPosition" x="9401" y="11756"><tspan fill="rgb(0,0,0)" stroke="none">27/10</tspan></tspan></tspan></text>
 <text class="TextShape"><tspan class="TextParagraph" font-family="Liberation Sans, sans-serif" font-size="353px" font-weight="400"><tspan class="TextPosition" x="12300" y="11756"><tspan fill="rgb(0,0,0)" stroke="none">27/11</tspan></tspan></tspan></text>
 <text class="TextShape"><tspan class="TextParagraph" font-family="Liberation Sans, sans-serif" font-size="353px" font-weight="400"><tspan class="TextPosition" x="788" y="11309"><tspan fill="rgb(0,0,0)" stroke="none">0</tspan></tspan></tspan></text>
 <text class="TextShape"><tspan class="TextParagraph" font-family="Liberation Sans, sans-serif" font-size="353px" font-weight="400"><tspan class="TextPosition" x="417" y="9461"><tspan fill="rgb(0,0,0)" stroke="none">500</tspan></tspan></tspan></text>
 <text class="TextShape"><tspan class="TextParagraph" font-family="Liberation Sans, sans-serif" font-size="353px" font-weight="400"><tspan class="TextPosition" x="126" y="7613"><tspan fill="rgb(0,0,0)" stroke="none">1.000</tspan></tspan></tspan></text>
 <text class="TextShape"><tspan class="TextParagraph" font-family="Liberation Sans, sans-serif" font-size="353px" font-weight="400"><tspan class="TextPosition" x="126" y="5766"><tspan fill="rgb(0,0,0)" stroke="none">1.500</tspan></tspan></tspan></text>
 <text class="TextShape"><tspan class="TextParagraph" font-family="Liberation Sans, sans-serif" font-size="353px" font-weight="400"><tspan class="TextPosition" x="126" y="3918"><tspan fill="rgb(0,0,0)" stroke="none">2.000</tspan></tspan></tspan></text>
 <text class="TextShape"><tspan class="TextParagraph" font-family="Liberation Sans, sans-serif" font-size="353px" font-weight="400"><tspan class="TextPosition" x="126" y="2070"><tspan fill="rgb(0,0,0)" stroke="none">2.500</tspan></tspan></tspan></text>
 <text class="TextShape"><tspan class="TextParagraph" font-family="Arial, sans-serif" font-size="388px" font-weight="400"><tspan class="TextPosition" x="2218" y="607"><tspan fill="rgb(0,0,0)" stroke="none">Muertes acumuladas CCAA por millón de mayores de 65 años (2)</tspan></tspan></tspan></text>
 <path fill="none" stroke="rgb(0,0,0)" stroke-width="100" stroke-linejoin="round" d="M 2080,1432 L 2880,1432"/>
 <path fill="none" stroke="rgb(255,66,14)" stroke-width="100" stroke-linejoin="round" d="M 2080,2379 L 2880,2379"/>
 <path fill="none" stroke="rgb(255,211,32)" stroke-width="100" stroke-linejoin="round" d="M 2080,3326 L 2880,3326"/>
 <path fill="none" stroke="rgb(87,157,28)" stroke-width="100" stroke-linejoin="round" d="M 2080,4273 L 2880,4273"/>
 <path fill="none" stroke="rgb(126,0,33)" stroke-width="100" stroke-linejoin="round" d="M 2080,5220 L 2880,5220"/>
 <path fill="none" stroke="rgb(131,202,255)" stroke-width="80" stroke-linejoin="round" d="M 2080,6166 L 2880,6166"/>
 <text class="TextShape"><tspan class="TextParagraph" font-family="Liberation Sans, sans-serif" font-size="353px" font-weight="400"><tspan class="TextPosition" x="2980" y="1552"><tspan fill="rgb(0,0,0)" stroke="none">País Vasco</tspan></tspan></tspan></text>
 <text class="TextShape"><tspan class="TextParagraph" font-family="Liberation Sans, sans-serif" font-size="353px" font-weight="400"><tspan class="TextPosition" x="2980" y="2499"><tspan fill="rgb(0,0,0)" stroke="none">Castilla–La Mancha</tspan></tspan></tspan></text>
 <text class="TextShape"><tspan class="TextParagraph" font-family="Liberation Sans, sans-serif" font-size="353px" font-weight="400"><tspan class="TextPosition" x="2980" y="3446"><tspan fill="rgb(0,0,0)" stroke="none">Murcia</tspan></tspan></tspan></text>
 <text class="TextShape"><tspan class="TextParagraph" font-family="Liberation Sans, sans-serif" font-size="353px" font-weight="400"><tspan class="TextPosition" x="2980" y="4393"><tspan fill="rgb(0,0,0)" stroke="none">Andalucía</tspan></tspan></tspan></text>
 <text class="TextShape"><tspan class="TextParagraph" font-family="Liberation Sans, sans-serif" font-size="353px" font-weight="400"><tspan class="TextPosition" x="2980" y="5340"><tspan fill="rgb(0,0,0)" stroke="none">Extremadura</tspan></tspan></tspan></text>
 <text class="TextShape"><tspan class="TextParagraph" font-family="Liberation Sans, sans-serif" font-size="353px" font-weight="400"><tspan class="TextPosition" x="2980" y="6286"><tspan fill="rgb(0,0,0)" stroke="none">Cataluña</tspan></tspan></tspan></text>
</svg>