<?xml version="1.0" encoding="UTF-8"?>
<!DOCTYPE svg PUBLIC "-//W3C//DTD SVG 1.1//EN" "http://www.w3.org/Graphics/SVG/1.1/DTD/svg11.dtd">
<svg width="150mm" height="120mm" viewBox="0 0 15000 12000" version="1.1" xmlns="http://www.w3.org/2000/svg" xmlns:xlink="http://www.w3.org/1999/xlink" stroke-width="28.222" stroke-linejoin="round" xml:space="preserve">
 <path fill="rgb(255,255,255)" stroke="none" d="M 7500,12000 L 0,12000 0,0 15000,0 15000,12000 7500,12000 Z"/>
 <path fill="none" stroke="rgb(0,0,0)" stroke-linejoin="round" d="M 7983,11164 L 1266,11164 1266,1241 14701,1241 14701,11164 7983,11164 Z"/>
 <path fill="none" stroke="rgb(0,0,0)" stroke-linejoin="round" d="M 14700,11163 L 1265,11163"/>
 <path fill="none" stroke="rgb(0,0,0)" stroke-linejoin="round" d="M 14700,9636 L 1265,9636"/>
 <path fill="none" stroke="rgb(0,0,0)" stroke-linejoin="round" d="M 14700,8109 L 1265,8109"/>
 <path fill="none" stroke="rgb(0,0,0)" stroke-linejoin="round" d="M 14700,6582 L 1265,6582"/>
 <path fill="none" stroke="rgb(0,0,0)" stroke-linejoin="round" d="M 14700,5056 L 1265,5056"/>
 <path fill="none" stroke="rgb(0,0,0)" stroke-linejoin="round" d="M 14700,3530 L 1265,3530"/>
 <path fill="none" stroke="rgb(0,0,0)" stroke-linejoin="round" d="M 14700,2003 L 1265,2003"/>
 <path fill="none" stroke="rgb(0,0,0)" stroke-linejoin="round" d="M 1265,11313 L 1265,11163"/>
 <path fill="none" stroke="rgb(0,0,0)" stroke-linejoin="round" d="M 1265,11313 L 1265,11163"/>
 <path fill="none" stroke="rgb(0,0,0)" stroke-linejoin="round" d="M 3327,11313 L 3327,11163"/>
 <path fill="none" stroke="rgb(0,0,0)" stroke-linejoin="round" d="M 3327,11313 L 3327,11163"/>
 <path fill="none" stroke="rgb(0,0,0)" stroke-linejoin="round" d="M 5389,11313 L 5389,11163"/>
 <path fill="none" stroke="rgb(0,0,0)" stroke-linejoin="round" d="M 5389,11313 L 5389,11163"/>
 <path fill="none" stroke="rgb(0,0,0)" stroke-linejoin="round" d="M 7385,11313 L 7385,11163"/>
 <path fill="none" stroke="rgb(0,0,0)" stroke-linejoin="round" d="M 7385,11313 L 7385,11163"/>
 <path fill="none" stroke="rgb(0,0,0)" stroke-linejoin="round" d="M 9446,11313 L 9446,11163"/>
 <path fill="none" stroke="rgb(0,0,0)" stroke-linejoin="round" d="M 9446,11313 L 9446,11163"/>
 <path fill="none" stroke="rgb(0,0,0)" stroke-linejoin="round" d="M 11441,11313 L 11441,11163"/>
 <path fill="none" stroke="rgb(0,0,0)" stroke-linejoin="round" d="M 11441,11313 L 11441,11163"/>
 <path fill="none" stroke="rgb(0,0,0)" stroke-linejoin="round" d="M 13503,11313 L 13503,11163"/>
 <path fill="none" stroke="rgb(0,0,0)" stroke-linejoin="round" d="M 13503,11313 L 13503,11163"/>
 <path fill="none" stroke="rgb(0,0,0)" stroke-linejoin="round" d="M 1265,11163 L 14700,11163"/>
 <path fill="none" stroke="rgb(0,0,0)" stroke-linejoin="round" d="M 1115,11163 L 1265,11163"/>
 <path fill="none" stroke="rgb(0,0,0)" stroke-linejoin="round" d="M 1115,11163 L 1265,11163"/>
 <path fill="none" stroke="rgb(0,0,0)" stroke-linejoin="round" d="M 1115,9636 L 1265,9636"/>
 <path fill="none" stroke="rgb(0,0,0)" stroke-linejoin="round" d="M 1115,9636 L 1265,9636"/>
 <path fill="none" stroke="rgb(0,0,0)" stroke-linejoin="round" d="M 1115,8109 L 1265,8109"/>
 <path fill="none" stroke="rgb(0,0,0)" stroke-linejoin="round" d="M 1115,8109 L 1265,8109"/>
 <path fill="none" stroke="rgb(0,0,0)" stroke-linejoin="round" d="M 1115,6582 L 1265,6582"/>
 <path fill="none" stroke="rgb(0,0,0)" stroke-linejoin="round" d="M 1115,6582 L 1265,6582"/>
 <path fill="none" stroke="rgb(0,0,0)" stroke-linejoin="round" d="M 1115,5056 L 1265,5056"/>
 <path fill="none" stroke="rgb(0,0,0)" stroke-linejoin="round" d="M 1115,5056 L 1265,5056"/>
 <path fill="none" stroke="rgb(0,0,0)" stroke-linejoin="round" d="M 1115,3530 L 1265,3530"/>
 <path fill="none" stroke="rgb(0,0,0)" stroke-linejoin="round" d="M 1115,3530 L 1265,3530"/>
 <path fill="none" stroke="rgb(0,0,0)" stroke-linejoin="round" d="M 1115,2003 L 1265,2003"/>
 <path fill="none" stroke="rgb(0,0,0)" stroke-linejoin="round" d="M 1115,2003 L 1265,2003"/>
 <path fill="none" stroke="rgb(0,0,0)" stroke-linejoin="round" d="M 1265,11163 L 1265,1240"/>
 <path fill="none" stroke="rgb(0,69,134)" stroke-width="100" stroke-linejoin="round" d="M 1265,11161 L 1332,11159 1399,11157 1465,11155 1532,11149 1598,11148 1665,11147 1731,11147 1798,11146 1864,11146 1931,11144 1997,11141 2064,11138 2130,11134 2197,11132 2263,11130 2330,11128 2396,11124 2463,11122 2529,11120 2596,11118 2662,11117 2729,11114 2795,11112 2862,11111 2928,11108 2995,11106 3061,11105 3128,11101 3194,11098 3261,11097 3327,11096 3394,11091 3460,11089 3527,11088 3594,11086 3660,11085 3727,11082 3793,11081 3860,11078 3926,11074 3993,11073 4059,11071 4126,11069 4192,11066 4259,11064 4325,11062 4392,11058 4458,11053 4525,11050 4591,11048 4658,11045 4724,11038 4791,11034 4857,11030 4924,11021 4990,11015 5057,11011 5123,11009 5190,11007 5256,11003 5323,10997 5389,10991 5456,10988 5522,10983 5589,10978 5655,10973 5722,10969 5789,10960 5855,10953 5922,10943 5988,10933 6055,10927 6121,10920 6188,10911 6254,10908 6321,10898 6387,10888 6454,10877 6520,10871 6587,10863 6653,10848 6720,10839 6786,10825 6853,10812 6919,10802 6986,10790 7052,10778 7119,10756 7185,10740 7252,10727 7318,10707 7385,10687 7451,10669 7517,10645 7583,10616 7650,10588 7716,10561 7783,10527 7849,10494 7916,10452 7982,10418 8049,10380 8116,10339 8182,10305 8249,10259 8315,10214 8382,10154 8448,10097 8515,10047 8581,10007 8648,9952 8714,9885 8781,9826 8847,9769 8914,9719 8980,9674 9047,9629 9113,9576 9180,9522 9246,9460 9313,9409 9379,9349 9446,9300 9512,9237 9579,9190 9645,9134 9712,9081 9778,9032 9845,8974 9911,8917 9978,8864 10044,8800 10111,8744 10177,8685 10244,8634 10311,8571 10377,8502 10444,8438 10510,8367 10577,8301 10643,8240 10710,8180 10776,8117 10843,8062 10909,8000 10976,7948 11042,7907 11109,7861 11175,7796 11242,7745 11308,7698 11375,7641 11441,7595 11508,7553 11574,7499 11641,7442 11707,7386 11774,7338 11840,7285 11907,7232 11973,7175 12040,7110 12106,7044 12173,6974 12239,6889 12306,6808 12372,6734 12439,6645 12506,6532 12572,6419 12639,6311 12705,6195 12772,6074 12838,5965 12905,5843 12971,5685 13038,5525 13104,5364 13171,5194 13237,4995 13304,4795 13370,4611 13437,4399 13503,4186 13570,3966 13636,3763 13703,3550 13769,3330 13836,3129 13902,2940 13969,2766 14035,2602 14102,2414 14168,2258 14235,2110 14301,1967 14368,1820 14434,1702 14501,1581 14567,1472 14634,1364 14700,1264"/>
 <path fill="none" stroke="rgb(255,66,14)" stroke-width="100" stroke-linejoin="round" d="M 2401,11163 L 2463,11159 2529,11159 2596,11158 2662,11158 2729,11156 2795,11154 2862,11153 2928,11153 2995,11151 3061,11150 3128,11149 3194,11147 3261,11145 3327,11144 3394,11142 3460,11141 3527,11141 3594,11141 3660,11140 3727,11139 3793,11137 3860,11136 3926,11134 3993,11134 4059,11134 4126,11130 4192,11129 4259,11127 4325,11126 4392,11125 4458,11124 4525,11123 4591,11120 4658,11117 4724,11114 4791,11111 4857,11107 4924,11105 4990,11104 5057,11099 5123,11094 5190,11089 5256,11084 5323,11080 5389,11078 5456,11076 5522,11067 5589,11058 5655,11050 5722,11042 5789,11035 5855,11031 5922,11029 5988,11019 6055,11010 6121,11000 6188,10989 6254,10978 6321,10970 6387,10963 6454,10945 6520,10927 6587,10910 6653,10892 6720,10873 6786,10864 6853,10854 6919,10823 6986,10798 7052,10774 7119,10745 7185,10722 7252,10703 7318,10690 7385,10642 7451,10602 7517,10566 7583,10531 7650,10489 7716,10468 7783,10451 7849,10399 7916,10336 7982,10287 8049,10241 8116,10188 8182,10168 8249,10166 8315,10075 8382,9998 8448,9925 8515,9877 8581,9817 8648,9796 8714,9768 8781,9691 8847,9623 8914,9558 8980,9492 9047,9448 9113,9397 9180,9371 9246,9292 9313,9203 9379,9138 9446,9071 9512,9010 9579,8982 9645,8956 9712,8878 9778,8794 9845,8741 9911,8676 9978,8625 10044,8595 10111,8571 10177,8494 10244,8425 10311,8358 10377,8304 10444,8237 10510,8218 10577,8188 10643,8123 10710,8044 10776,7975 10843,7912 10909,7844 10976,7801 11042,7774 11109,7685 11175,7589 11242,7515 11308,7441 11375,7414 11441,7369 11508,7323 11574,7264 11641,7138 11707,7014 11774,6935 11840,6877 11907,6819 11973,6766 12040,6654 12106,6519 12173,6370 12239,6199 12306,6065 12372,5994 12439,5926 12506,5765 12572,5564 12639,5403 12705,5238 12772,5071 12838,4984 12905,4907 12971,4699 13038,4465 13104,4299 13171,4118 13237,3944 13304,3866 13370,3789 13437,3579 13503,3357 13570,3197 13636,3036 13703,2882 13769,2806 13836,2754 13902,2567 13969,2396 14035,2278 14102,2148 14168,2041 14235,1993 14301,1950 14368,1814 14434,1685 14501,1598 14567,1500 14634,1420 14700,1387"/>
 <path fill="none" stroke="rgb(255,211,32)" stroke-width="100" stroke-linejoin="round" d="M 1265,11163 L 1332,11162 1399,11154 1465,11152 1532,11149 1598,11148 1665,11146 1731,11146 1798,11142 1864,11141 1931,11136 1997,11134 2064,11131 2130,11128 2197,11127 2263,11122 2330,11118 2396,11107 2463,11096 2529,11090 2596,11082 2662,11080 2729,11076 2795,11066 2862,11059 2928,11054 2995,11047 3061,11045 3128,11042 3194,11040 3261,11122 3327,11122 3394,11118 3460,11117 3527,11113 3594,11111 3660,11111 3727,11109 3793,11108 3860,11108 3926,11106 3993,11103 4059,11102 4126,11101 4192,11099 4259,11095 4325,11095 4392,11094 4458,11091 4525,11089 4591,11088 4658,11086 4724,11082 4791,11082 4857,11081 4924,11076 4990,11073 5057,11072 5123,11068 5190,11066 5256,11061 5323,11059 5389,11055 5456,11051 5522,11046 5589,11036 5655,11025 5722,11021 5789,11011 5855,11006 5922,10992 5988,10982 6055,10972 6121,10961 6188,10948 6254,10931 6321,10914 6387,10903 6454,10888 6520,10865 6587,10841 6653,10807 6720,10784 6786,10761 6853,10747 6919,10725 6986,10693 7052,10658 7119,10624 7185,10574 7252,10519 7318,10468 7385,10405 7451,10307 7517,10215 7583,10118 7650,10017 7716,9895 7783,9816 7849,9731 7916,9543 7982,9413 8049,9266 8116,9134 8182,8994 8249,8890 8315,8777 8382,8535 8448,8396 8515,8303 8581,8152 8648,8013 8714,7930 8781,7793 8847,7637 8914,7506 8980,7386 9047,7276 9113,7157 9180,7089 9246,6993 9313,6865 9379,6767 9446,6667 9512,6583 9579,6497 9645,6437 9712,6368 9778,6269 9845,6181 9911,6095 9978,6019 10044,5941 10111,5895 10177,5848 10244,5763 10311,5696 10377,5633 10444,5563 10510,5486 10577,5451 10643,5379 10710,5285 10776,5222 10843,5156 10909,5097 10976,5034 11042,4977 11109,4927 11175,4840 11242,4757 11308,4688 11375,4652 11441,4603 11508,4574 11574,4550 11641,4461 11707,4404 11774,4343 11840,4306 11907,4262 11973,4222 12040,4187 12106,4133 12173,4094 12239,4144 12306,4017 12372,3985 12439,3957 12506,3926 12572,3875 12639,3836 12705,3805 12772,3764 12838,3733 12905,3706 12971,3680 13038,3622 13104,3610 13171,3576 13237,3537 13304,3502 13370,3464 13437,3440 13503,3394 13570,3356 13636,3322 13703,3296 13769,3263 13836,3244 13902,3222 13969,3187 14035,3157 14102,3126 14168,3102 14235,3062 14301,3036 14368,3012 14434,2977 14501,2949 14567,2922 14634,2888 14700,2864"/>
 <path fill="none" stroke="rgb(87,157,28)" stroke-width="100" stroke-linejoin="round" d="M 1265,11163 L 1332,11147 1399,11131 1465,11131 1532,11131 1598,11099 1665,11083 1731,11068 1798,11068 1864,11068 1931,11052 1997,11036 2064,11020 2130,11004 2197,10989 2263,10989 2330,10989 2396,10989 2463,10973 2529,10973 2596,10973 2662,10973 2729,10973 2795,10973 2862,10973 2928,10973 2995,10973 3061,10973 3128,10973 3194,10973 3261,10973 3327,10973 3394,10973 3460,10973 3527,10973 3594,10973 3660,10973 3727,10973 3793,10973 3860,10973 3926,10973 3993,10973 4059,10973 4126,10973 4192,10973 4259,10973 4325,10973 4392,10973 4458,10973 4525,10973 4591,10973 4658,10973 4724,10973 4791,10973 4857,10973 4924,10973 4990,10973 5057,10973 5123,10973 5190,10973 5256,10973 5323,10973 5389,10973 5456,10973 5522,10973 5589,10957 5655,10957 5722,10957 5789,10957 5855,10925 5922,10910 5988,10910 6055,10894 6121,10878 6188,10878 6254,10878 6321,10831 6387,10831 6454,10831 6520,10831 6587,10831 6653,10831 6720,10831 6786,10799 6853,10783 6919,10751 6986,10720 7052,10704 7119,10704 7185,10704 7252,10609 7318,10609 7385,10609 7451,10562 7517,10530 7583,10530 7650,10530 7716,10404 7783,10293 7849,10230 7916,10135 7982,10072 8049,9977 8116,9882 8182,10088 8249,9771 8315,9677 8382,9598 8448,9471 8515,9471 8581,9471 8648,9202 8714,9139 8781,9013 8847,8918 8914,8823 8980,8823 9047,8823 9113,8728 9180,8617 9246,8459 9313,8380 9379,8285 9446,8191 9512,8096 9579,8001 9645,7859 9712,7716 9778,7653 9845,7574 9911,7479 9978,7400 10044,7353 10111,7242 10177,7100 10244,7005 10311,6863 10377,6736 10444,6673 10510,6578 10577,6452 10643,6325 10710,6278 10776,6167 10843,6072 10909,5978 10976,5915 11042,5820 11109,5773 11175,5694 11242,5647 11308,5583 11375,5504 11441,5378 11508,5236 11574,5204 11641,5109 11707,5062 11774,5014 11840,4983 11907,4935 11973,4904 12040,4809 12106,4761 12173,4698 12239,4603 12306,4556 12372,4508 12439,4477 12506,4429 12572,4366 12639,4319 12705,4255 12772,4208 12838,4208 12905,4129 12971,4082 13038,4050 13104,4050 13171,4050 13237,4018 13304,4018 13370,3987 13437,3923 13503,3908 13570,3860 13636,3813 13703,3781 13769,3765 13836,3702 13902,3671 13969,3655 14035,3639 14102,3607 14168,3576 14235,3560 14301,3497 14368,3449 14434,3418 14501,3386 14567,3354 14634,3354 14700,3339"/>
 <path fill="none" stroke="rgb(126,0,33)" stroke-width="80" stroke-linejoin="round" d="M 1332,11160 L 1399,11160 1465,11159 1532,11158 1598,11156 1665,11156 1731,11156 1798,11157 1864,11157 1931,11154 1997,11151 2064,11151 2130,11151 2197,11151 2263,11150 2330,11149 2396,11148 2463,11147 2529,11148 2596,11147 2662,11147 2729,11146 2795,11144 2862,11144 2928,11144 2995,11143 3061,11143 3128,11142 3194,11140 3261,11140 3327,11139 3394,11138 3460,11138 3527,11138 3594,11138 3660,11138 3727,11138 3793,11138 3860,11138 3926,11138 3993,11138 4059,11138 4126,11138 4192,11128 4259,11128 4325,11128 4392,11128 4458,11128 4525,11128 4591,11128 4658,11108 4724,11108 4791,11108 4857,11108 4924,11108 4990,11108 5057,11108 5123,11090 5190,11090 5256,11090 5323,11090 5389,11090 5456,11090 5522,11090 5589,11090 5655,11090 5722,11079 5789,11079 5855,11079 5922,11079 5988,11079 6055,11079 6121,11079 6188,11069 6254,11069 6321,11069 6387,11069 6454,11069 6520,11069 6587,11069 6653,11039 6720,11039 6786,11039 6853,11025 6919,11017 6986,11006 7052,10995 7119,10985 7185,10985 7252,10985 7318,10948 7385,10932 7451,10694 7517,10661 7583,10629 7650,10629 7716,10629 7783,10731 7849,10660 7916,10586 7982,10523 8049,10453 8116,10453 8182,10453 8249,10283 8315,10176 8382,10090 8448,9995 8515,9898 8581,9898 8648,9898 8714,9699 8781,9557 8847,9471 8914,9392 8980,9281 9047,9281 9113,9281 9180,9067 9246,8924 9313,8824 9379,8745 9446,8603 9512,8603 9579,8603 9645,8407 9712,8300 9778,8184 9845,8104 9911,8003 9978,8003 10044,8003 10111,7826 10177,7734 10244,7646 10311,7559 10377,7453 10444,7453 10510,7453 10577,7259 10643,7155 10710,7066 10776,6964 10843,6843 10909,6843 10976,6843 11042,6641 11109,6641 11175,6641 11242,6310 11308,6310 11375,6310 11441,6310 11508,6065 11574,6065 11641,5838 11707,5761 11774,5761 11840,5761 11907,5761 11973,5571 12040,5473 12106,5408 12173,5332 12239,5258 12306,5258 12372,5258 12439,5146 12506,5047 12572,4989 12639,4936 12705,4870 12772,4870 12838,4870 12905,4748 12971,4673 13038,4603 13104,4555 13171,4493 13237,4493 13304,4493 13370,4408 13437,4351 13503,4292 13570,4240 13636,4190 13703,4190 13769,4190 13836,4112 13902,4066 13969,4023 14035,4000 14102,3968 14168,3968 14235,3968 14301,3918 14368,3876 14434,3858 14501,3836 14567,3805 14634,3805 14700,3805"/>
 <text class="TextShape"><tspan class="TextParagraph" font-family="Liberation Sans, sans-serif" font-size="353px" font-weight="400"><tspan class="TextPosition" x="841" y="11731"><tspan fill="rgb(0,0,0)" stroke="none">27/07</tspan></tspan></tspan></text>
 <text class="TextShape"><tspan class="TextParagraph" font-family="Liberation Sans, sans-serif" font-size="353px" font-weight="400"><tspan class="TextPosition" x="2903" y="11731"><tspan fill="rgb(0,0,0)" stroke="none">27/08</tspan></tspan></tspan></text>
 <text class="TextShape"><tspan class="TextParagraph" font-family="Liberation Sans, sans-serif" font-size="353px" font-weight="400"><tspan class="TextPosition" x="4965" y="11731"><tspan fill="rgb(0,0,0)" stroke="none">27/09</tspan></tspan></tspan></text>
 <text class="TextShape"><tspan class="TextParagraph" font-family="Liberation Sans, sans-serif" font-size="353px" font-weight="400"><tspan class="TextPosition" x="6961" y="11731"><tspan fill="rgb(0,0,0)" stroke="none">27/10</tspan></tspan></tspan></text>
 <text class="TextShape"><tspan class="TextParagraph" font-family="Liberation Sans, sans-serif" font-size="353px" font-weight="400"><tspan class="TextPosition" x="9023" y="11731"><tspan fill="rgb(0,0,0)" stroke="none">27/11</tspan></tspan></tspan></text>
 <text class="TextShape"><tspan class="TextParagraph" font-family="Liberation Sans, sans-serif" font-size="353px" font-weight="400"><tspan class="TextPosition" x="11018" y="11731"><tspan fill="rgb(0,0,0)" stroke="none">27/12</tspan></tspan></tspan></text>
 <text class="TextShape"><tspan class="TextParagraph" font-family="Liberation Sans, sans-serif" font-size="353px" font-weight="400"><tspan class="TextPosition" x="13080" y="11731"><tspan fill="rgb(0,0,0)" stroke="none">27/01</tspan></tspan></tspan></text>
 <text class="TextShape"><tspan class="TextParagraph" font-family="Liberation Sans, sans-serif" font-size="353px" font-weight="400"><tspan class="TextPosition" x="168" y="9757"><tspan fill="rgb(0,0,0)" stroke="none">1.000</tspan></tspan></tspan></text>
 <text class="TextShape"><tspan class="TextParagraph" font-family="Liberation Sans, sans-serif" font-size="353px" font-weight="400"><tspan class="TextPosition" x="168" y="8230"><tspan fill="rgb(0,0,0)" stroke="none">2.000</tspan></tspan></tspan></text>
 <text class="TextShape"><tspan class="TextParagraph" font-family="Liberation Sans, sans-serif" font-size="353px" font-weight="400"><tspan class="TextPosition" x="168" y="6703"><tspan fill="rgb(0,0,0)" stroke="none">3.000</tspan></tspan></tspan></text>
 <text class="TextShape"><tspan class="TextParagraph" font-family="Liberation Sans, sans-serif" font-size="353px" font-weight="400"><tspan class="TextPosition" x="168" y="5176"><tspan fill="rgb(0,0,0)" stroke="none">4.000</tspan></tspan></tspan></text>
 <text class="TextShape"><tspan class="TextParagraph" font-family="Liberation Sans, sans-serif" font-size="353px" font-weight="400"><tspan class="TextPosition" x="168" y="3650"><tspan fill="rgb(0,0,0)" stroke="none">5.000</tspan></tspan></tspan></text>
 <text class="TextShape"><tspan class="TextParagraph" font-family="Liberation Sans, sans-serif" font-size="353px" font-weight="400"><tspan class="TextPosition" x="168" y="2123"><tspan fill="rgb(0,0,0)" stroke="none">6.000</tspan></tspan></tspan></text>
 <text class="TextShape"><tspan class="TextParagraph" font-family="Liberation Sans, sans-serif" font-size="423px" font-weight="400"><tspan class="TextPosition" x="3420" y="585"><tspan fill="rgb(0,0,0)" stroke="none">Muertes acumuladas por millón de mayores de 65 años</tspan></tspan></tspan><tspan class="TextParagraph" font-family="Liberation Sans, sans-serif" font-size="423px" font-weight="400"><tspan class="TextPosition" x="6265" y="1035"><tspan fill="rgb(0,0,0)" stroke="none">en Europa Occidental (1)</tspan></tspan></tspan></text>
 <path fill="none" stroke="rgb(0,69,134)" stroke-width="100" stroke-linejoin="round" d="M 1932,2746 L 2732,2746"/>
 <path fill="none" stroke="rgb(255,66,14)" stroke-width="100" stroke-linejoin="round" d="M 1932,4278 L 2732,4278"/>
 <path fill="none" stroke="rgb(255,211,32)" stroke-width="100" stroke-linejoin="round" d="M 1932,5810 L 2732,5810"/>
 <path fill="none" stroke="rgb(87,157,28)" stroke-width="100" stroke-linejoin="round" d="M 1932,7341 L 2732,7341"/>
 <path fill="none" stroke="rgb(126,0,33)" stroke-width="80" stroke-linejoin="round" d="M 1932,8873 L 2732,8873"/>
 <text class="TextShape"><tspan class="TextParagraph" font-family="Liberation Sans, sans-serif" font-size="353px" font-weight="400"><tspan class="TextPosition" x="2832" y="2866"><tspan fill="rgb(0,0,0)" stroke="none">Portugal</tspan></tspan></tspan></text>
 <text class="TextShape"><tspan class="TextParagraph" font-family="Liberation Sans, sans-serif" font-size="353px" font-weight="400"><tspan class="TextPosition" x="2832" y="4398"><tspan fill="rgb(0,0,0)" stroke="none">Reino Unido</tspan></tspan></tspan></text>
 <text class="TextShape"><tspan class="TextParagraph" font-family="Liberation Sans, sans-serif" font-size="353px" font-weight="400"><tspan class="TextPosition" x="2832" y="5930"><tspan fill="rgb(0,0,0)" stroke="none">Bélgica</tspan></tspan></tspan></text>
 <text class="TextShape"><tspan class="TextParagraph" font-family="Liberation Sans, sans-serif" font-size="353px" font-weight="400"><tspan class="TextPosition" x="2832" y="7461"><tspan fill="rgb(0,0,0)" stroke="none">Luxemburgo</tspan></tspan></tspan></text>
 <text class="TextShape"><tspan class="TextParagraph" font-family="Liberation Sans, sans-serif" font-size="353px" font-weight="400"><tspan class="TextPosition" x="2832" y="8993"><tspan fill="rgb(0,0,0)" stroke="none">Suiza</tspan></tspan></tspan></text>
</svg>