<?xml version="1.0" encoding="UTF-8"?>
<!DOCTYPE svg PUBLIC "-//W3C//DTD SVG 1.1//EN" "http://www.w3.org/Graphics/SVG/1.1/DTD/svg11.dtd">
<svg width="150mm" height="120mm" viewBox="0 0 15000 12000" version="1.1" xmlns="http://www.w3.org/2000/svg" xmlns:xlink="http://www.w3.org/1999/xlink" stroke-width="28.222" stroke-linejoin="round" xml:space="preserve">
 <path fill="rgb(255,255,255)" stroke="none" d="M 7500,12000 L 0,12000 0,0 15000,0 15000,12000 7500,12000 Z"/>
 <path fill="none" stroke="rgb(0,0,0)" stroke-linejoin="round" d="M 7810,11252 L 933,11252 933,1028 14687,1028 14687,11252 7810,11252 Z"/>
 <path fill="none" stroke="rgb(0,0,0)" stroke-linejoin="round" d="M 14687,11251 L 933,11251"/>
 <path fill="none" stroke="rgb(0,0,0)" stroke-linejoin="round" d="M 14687,9790 L 933,9790"/>
 <path fill="none" stroke="rgb(0,0,0)" stroke-linejoin="round" d="M 14687,8329 L 933,8329"/>
 <path fill="none" stroke="rgb(0,0,0)" stroke-linejoin="round" d="M 14687,6868 L 933,6868"/>
 <path fill="none" stroke="rgb(0,0,0)" stroke-linejoin="round" d="M 14687,5409 L 933,5409"/>
 <path fill="none" stroke="rgb(0,0,0)" stroke-linejoin="round" d="M 14687,3948 L 933,3948"/>
 <path fill="none" stroke="rgb(0,0,0)" stroke-linejoin="round" d="M 14687,2487 L 933,2487"/>
 <path fill="none" stroke="rgb(0,0,0)" stroke-linejoin="round" d="M 14687,1027 L 933,1027"/>
 <path fill="none" stroke="rgb(0,0,0)" stroke-linejoin="round" d="M 933,11401 L 933,11251"/>
 <path fill="none" stroke="rgb(0,0,0)" stroke-linejoin="round" d="M 933,11401 L 933,11251"/>
 <path fill="none" stroke="rgb(0,0,0)" stroke-linejoin="round" d="M 2093,11401 L 2093,11251"/>
 <path fill="none" stroke="rgb(0,0,0)" stroke-linejoin="round" d="M 2093,11401 L 2093,11251"/>
 <path fill="none" stroke="rgb(0,0,0)" stroke-linejoin="round" d="M 3253,11401 L 3253,11251"/>
 <path fill="none" stroke="rgb(0,0,0)" stroke-linejoin="round" d="M 3253,11401 L 3253,11251"/>
 <path fill="none" stroke="rgb(0,0,0)" stroke-linejoin="round" d="M 4413,11401 L 4413,11251"/>
 <path fill="none" stroke="rgb(0,0,0)" stroke-linejoin="round" d="M 4413,11401 L 4413,11251"/>
 <path fill="none" stroke="rgb(0,0,0)" stroke-linejoin="round" d="M 5573,11401 L 5573,11251"/>
 <path fill="none" stroke="rgb(0,0,0)" stroke-linejoin="round" d="M 5573,11401 L 5573,11251"/>
 <path fill="none" stroke="rgb(0,0,0)" stroke-linejoin="round" d="M 6733,11401 L 6733,11251"/>
 <path fill="none" stroke="rgb(0,0,0)" stroke-linejoin="round" d="M 6733,11401 L 6733,11251"/>
 <path fill="none" stroke="rgb(0,0,0)" stroke-linejoin="round" d="M 7892,11401 L 7892,11251"/>
 <path fill="none" stroke="rgb(0,0,0)" stroke-linejoin="round" d="M 7892,11401 L 7892,11251"/>
 <path fill="none" stroke="rgb(0,0,0)" stroke-linejoin="round" d="M 9052,11401 L 9052,11251"/>
 <path fill="none" stroke="rgb(0,0,0)" stroke-linejoin="round" d="M 9052,11401 L 9052,11251"/>
 <path fill="none" stroke="rgb(0,0,0)" stroke-linejoin="round" d="M 10212,11401 L 10212,11251"/>
 <path fill="none" stroke="rgb(0,0,0)" stroke-linejoin="round" d="M 10212,11401 L 10212,11251"/>
 <path fill="none" stroke="rgb(0,0,0)" stroke-linejoin="round" d="M 11372,11401 L 11372,11251"/>
 <path fill="none" stroke="rgb(0,0,0)" stroke-linejoin="round" d="M 11372,11401 L 11372,11251"/>
 <path fill="none" stroke="rgb(0,0,0)" stroke-linejoin="round" d="M 12532,11401 L 12532,11251"/>
 <path fill="none" stroke="rgb(0,0,0)" stroke-linejoin="round" d="M 12532,11401 L 12532,11251"/>
 <path fill="none" stroke="rgb(0,0,0)" stroke-linejoin="round" d="M 13692,11401 L 13692,11251"/>
 <path fill="none" stroke="rgb(0,0,0)" stroke-linejoin="round" d="M 13692,11401 L 13692,11251"/>
 <path fill="none" stroke="rgb(0,0,0)" stroke-linejoin="round" d="M 933,11251 L 14687,11251"/>
 <path fill="none" stroke="rgb(0,0,0)" stroke-linejoin="round" d="M 783,11251 L 933,11251"/>
 <path fill="none" stroke="rgb(0,0,0)" stroke-linejoin="round" d="M 783,11251 L 933,11251"/>
 <path fill="none" stroke="rgb(0,0,0)" stroke-linejoin="round" d="M 783,9790 L 933,9790"/>
 <path fill="none" stroke="rgb(0,0,0)" stroke-linejoin="round" d="M 783,9790 L 933,9790"/>
 <path fill="none" stroke="rgb(0,0,0)" stroke-linejoin="round" d="M 783,8329 L 933,8329"/>
 <path fill="none" stroke="rgb(0,0,0)" stroke-linejoin="round" d="M 783,8329 L 933,8329"/>
 <path fill="none" stroke="rgb(0,0,0)" stroke-linejoin="round" d="M 783,6868 L 933,6868"/>
 <path fill="none" stroke="rgb(0,0,0)" stroke-linejoin="round" d="M 783,6868 L 933,6868"/>
 <path fill="none" stroke="rgb(0,0,0)" stroke-linejoin="round" d="M 783,5409 L 933,5409"/>
 <path fill="none" stroke="rgb(0,0,0)" stroke-linejoin="round" d="M 783,5409 L 933,5409"/>
 <path fill="none" stroke="rgb(0,0,0)" stroke-linejoin="round" d="M 783,3948 L 933,3948"/>
 <path fill="none" stroke="rgb(0,0,0)" stroke-linejoin="round" d="M 783,3948 L 933,3948"/>
 <path fill="none" stroke="rgb(0,0,0)" stroke-linejoin="round" d="M 783,2487 L 933,2487"/>
 <path fill="none" stroke="rgb(0,0,0)" stroke-linejoin="round" d="M 783,2487 L 933,2487"/>
 <path fill="none" stroke="rgb(0,0,0)" stroke-linejoin="round" d="M 783,1027 L 933,1027"/>
 <path fill="none" stroke="rgb(0,0,0)" stroke-linejoin="round" d="M 783,1027 L 933,1027"/>
 <path fill="none" stroke="rgb(0,0,0)" stroke-linejoin="round" d="M 933,11251 L 933,1027"/>
 <path fill="none" stroke="rgb(0,0,0)" stroke-width="50" stroke-linejoin="round" d="M 4496,11221 L 4661,11221 4827,11221 4993,11221 5158,11221 5324,11221 5490,11221 5656,11221 5821,11192 5987,11104 6153,11017 6318,10900 6484,10608 6650,10520 6816,10462 6981,10403 7147,10286 7313,10053 7479,9819 7643,9644 7809,9410 7975,9235 8140,9206 8306,9030 8472,8913 8638,8738 8803,8446 8969,8271 9135,8037 9301,7716 9466,7511 9632,7161 9798,6898 9963,6693 10129,6401 10295,6343 10461,6167 10626,5788 10792,5526 10958,5409 11123,5350 11289,5087 11455,4737 11621,4503 11786,4269 11952,3977 12118,3860 12284,3627 12449,3481 12615,3276 12781,3276 12946,3101 13112,3072 13278,2955 13444,2955 13609,2867 13775,2721 13941,2721 14106,2692 14272,2633 14438,2516 14604,2370"/>
 <path fill="rgb(0,0,0)" stroke="none" d="M 4396,11221 L 4496,11321 4596,11221 4496,11121 4396,11221 Z"/>
 <path fill="none" stroke="rgb(0,0,0)" stroke-linejoin="round" d="M 4396,11221 L 4496,11321 4596,11221 4496,11121 4396,11221 Z"/>
 <path fill="rgb(0,0,0)" stroke="none" d="M 4561,11221 L 4661,11321 4761,11221 4661,11121 4561,11221 Z"/>
 <path fill="none" stroke="rgb(0,0,0)" stroke-linejoin="round" d="M 4561,11221 L 4661,11321 4761,11221 4661,11121 4561,11221 Z"/>
 <path fill="rgb(0,0,0)" stroke="none" d="M 4727,11221 L 4827,11321 4927,11221 4827,11121 4727,11221 Z"/>
 <path fill="none" stroke="rgb(0,0,0)" stroke-linejoin="round" d="M 4727,11221 L 4827,11321 4927,11221 4827,11121 4727,11221 Z"/>
 <path fill="rgb(0,0,0)" stroke="none" d="M 4893,11221 L 4993,11321 5093,11221 4993,11121 4893,11221 Z"/>
 <path fill="none" stroke="rgb(0,0,0)" stroke-linejoin="round" d="M 4893,11221 L 4993,11321 5093,11221 4993,11121 4893,11221 Z"/>
 <path fill="rgb(0,0,0)" stroke="none" d="M 5058,11221 L 5158,11321 5258,11221 5158,11121 5058,11221 Z"/>
 <path fill="none" stroke="rgb(0,0,0)" stroke-linejoin="round" d="M 5058,11221 L 5158,11321 5258,11221 5158,11121 5058,11221 Z"/>
 <path fill="rgb(0,0,0)" stroke="none" d="M 5224,11221 L 5324,11321 5424,11221 5324,11121 5224,11221 Z"/>
 <path fill="none" stroke="rgb(0,0,0)" stroke-linejoin="round" d="M 5224,11221 L 5324,11321 5424,11221 5324,11121 5224,11221 Z"/>
 <path fill="rgb(0,0,0)" stroke="none" d="M 5390,11221 L 5490,11321 5590,11221 5490,11121 5390,11221 Z"/>
 <path fill="none" stroke="rgb(0,0,0)" stroke-linejoin="round" d="M 5390,11221 L 5490,11321 5590,11221 5490,11121 5390,11221 Z"/>
 <path fill="rgb(0,0,0)" stroke="none" d="M 5556,11221 L 5656,11321 5756,11221 5656,11121 5556,11221 Z"/>
 <path fill="none" stroke="rgb(0,0,0)" stroke-linejoin="round" d="M 5556,11221 L 5656,11321 5756,11221 5656,11121 5556,11221 Z"/>
 <path fill="rgb(0,0,0)" stroke="none" d="M 5721,11192 L 5821,11292 5921,11192 5821,11092 5721,11192 Z"/>
 <path fill="none" stroke="rgb(0,0,0)" stroke-linejoin="round" d="M 5721,11192 L 5821,11292 5921,11192 5821,11092 5721,11192 Z"/>
 <path fill="rgb(0,0,0)" stroke="none" d="M 5887,11104 L 5987,11204 6087,11104 5987,11004 5887,11104 Z"/>
 <path fill="none" stroke="rgb(0,0,0)" stroke-linejoin="round" d="M 5887,11104 L 5987,11204 6087,11104 5987,11004 5887,11104 Z"/>
 <path fill="rgb(0,0,0)" stroke="none" d="M 6053,11017 L 6153,11117 6253,11017 6153,10917 6053,11017 Z"/>
 <path fill="none" stroke="rgb(0,0,0)" stroke-linejoin="round" d="M 6053,11017 L 6153,11117 6253,11017 6153,10917 6053,11017 Z"/>
 <path fill="rgb(0,0,0)" stroke="none" d="M 6218,10900 L 6318,11000 6418,10900 6318,10800 6218,10900 Z"/>
 <path fill="none" stroke="rgb(0,0,0)" stroke-linejoin="round" d="M 6218,10900 L 6318,11000 6418,10900 6318,10800 6218,10900 Z"/>
 <path fill="rgb(0,0,0)" stroke="none" d="M 6384,10608 L 6484,10708 6584,10608 6484,10508 6384,10608 Z"/>
 <path fill="none" stroke="rgb(0,0,0)" stroke-linejoin="round" d="M 6384,10608 L 6484,10708 6584,10608 6484,10508 6384,10608 Z"/>
 <path fill="rgb(0,0,0)" stroke="none" d="M 6550,10520 L 6650,10620 6750,10520 6650,10420 6550,10520 Z"/>
 <path fill="none" stroke="rgb(0,0,0)" stroke-linejoin="round" d="M 6550,10520 L 6650,10620 6750,10520 6650,10420 6550,10520 Z"/>
 <path fill="rgb(0,0,0)" stroke="none" d="M 6716,10462 L 6816,10562 6916,10462 6816,10362 6716,10462 Z"/>
 <path fill="none" stroke="rgb(0,0,0)" stroke-linejoin="round" d="M 6716,10462 L 6816,10562 6916,10462 6816,10362 6716,10462 Z"/>
 <path fill="rgb(0,0,0)" stroke="none" d="M 6881,10403 L 6981,10503 7081,10403 6981,10303 6881,10403 Z"/>
 <path fill="none" stroke="rgb(0,0,0)" stroke-linejoin="round" d="M 6881,10403 L 6981,10503 7081,10403 6981,10303 6881,10403 Z"/>
 <path fill="rgb(0,0,0)" stroke="none" d="M 7047,10286 L 7147,10386 7247,10286 7147,10186 7047,10286 Z"/>
 <path fill="none" stroke="rgb(0,0,0)" stroke-linejoin="round" d="M 7047,10286 L 7147,10386 7247,10286 7147,10186 7047,10286 Z"/>
 <path fill="rgb(0,0,0)" stroke="none" d="M 7213,10053 L 7313,10153 7413,10053 7313,9953 7213,10053 Z"/>
 <path fill="none" stroke="rgb(0,0,0)" stroke-linejoin="round" d="M 7213,10053 L 7313,10153 7413,10053 7313,9953 7213,10053 Z"/>
 <path fill="rgb(0,0,0)" stroke="none" d="M 7379,9819 L 7479,9919 7578,9819 7479,9719 7379,9819 Z"/>
 <path fill="none" stroke="rgb(0,0,0)" stroke-linejoin="round" d="M 7379,9819 L 7479,9919 7578,9819 7479,9719 7379,9819 Z"/>
 <path fill="rgb(0,0,0)" stroke="none" d="M 7543,9644 L 7643,9744 7743,9644 7643,9544 7543,9644 Z"/>
 <path fill="none" stroke="rgb(0,0,0)" stroke-linejoin="round" d="M 7543,9644 L 7643,9744 7743,9644 7643,9544 7543,9644 Z"/>
 <path fill="rgb(0,0,0)" stroke="none" d="M 7709,9410 L 7809,9510 7909,9410 7809,9310 7709,9410 Z"/>
 <path fill="none" stroke="rgb(0,0,0)" stroke-linejoin="round" d="M 7709,9410 L 7809,9510 7909,9410 7809,9310 7709,9410 Z"/>
 <path fill="rgb(0,0,0)" stroke="none" d="M 7875,9235 L 7975,9335 8075,9235 7975,9135 7875,9235 Z"/>
 <path fill="none" stroke="rgb(0,0,0)" stroke-linejoin="round" d="M 7875,9235 L 7975,9335 8075,9235 7975,9135 7875,9235 Z"/>
 <path fill="rgb(0,0,0)" stroke="none" d="M 8040,9206 L 8140,9306 8240,9206 8140,9106 8040,9206 Z"/>
 <path fill="none" stroke="rgb(0,0,0)" stroke-linejoin="round" d="M 8040,9206 L 8140,9306 8240,9206 8140,9106 8040,9206 Z"/>
 <path fill="rgb(0,0,0)" stroke="none" d="M 8206,9030 L 8306,9130 8406,9030 8306,8930 8206,9030 Z"/>
 <path fill="none" stroke="rgb(0,0,0)" stroke-linejoin="round" d="M 8206,9030 L 8306,9130 8406,9030 8306,8930 8206,9030 Z"/>
 <path fill="rgb(0,0,0)" stroke="none" d="M 8372,8913 L 8472,9013 8572,8913 8472,8813 8372,8913 Z"/>
 <path fill="none" stroke="rgb(0,0,0)" stroke-linejoin="round" d="M 8372,8913 L 8472,9013 8572,8913 8472,8813 8372,8913 Z"/>
 <path fill="rgb(0,0,0)" stroke="none" d="M 8538,8738 L 8638,8838 8738,8738 8638,8638 8538,8738 Z"/>
 <path fill="none" stroke="rgb(0,0,0)" stroke-linejoin="round" d="M 8538,8738 L 8638,8838 8738,8738 8638,8638 8538,8738 Z"/>
 <path fill="rgb(0,0,0)" stroke="none" d="M 8703,8446 L 8803,8546 8903,8446 8803,8346 8703,8446 Z"/>
 <path fill="none" stroke="rgb(0,0,0)" stroke-linejoin="round" d="M 8703,8446 L 8803,8546 8903,8446 8803,8346 8703,8446 Z"/>
 <path fill="rgb(0,0,0)" stroke="none" d="M 8869,8271 L 8969,8371 9069,8271 8969,8171 8869,8271 Z"/>
 <path fill="none" stroke="rgb(0,0,0)" stroke-linejoin="round" d="M 8869,8271 L 8969,8371 9069,8271 8969,8171 8869,8271 Z"/>
 <path fill="rgb(0,0,0)" stroke="none" d="M 9035,8037 L 9135,8137 9235,8037 9135,7937 9035,8037 Z"/>
 <path fill="none" stroke="rgb(0,0,0)" stroke-linejoin="round" d="M 9035,8037 L 9135,8137 9235,8037 9135,7937 9035,8037 Z"/>
 <path fill="rgb(0,0,0)" stroke="none" d="M 9201,7716 L 9301,7816 9401,7716 9301,7616 9201,7716 Z"/>
 <path fill="none" stroke="rgb(0,0,0)" stroke-linejoin="round" d="M 9201,7716 L 9301,7816 9401,7716 9301,7616 9201,7716 Z"/>
 <path fill="rgb(0,0,0)" stroke="none" d="M 9366,7511 L 9466,7611 9566,7511 9466,7411 9366,7511 Z"/>
 <path fill="none" stroke="rgb(0,0,0)" stroke-linejoin="round" d="M 9366,7511 L 9466,7611 9566,7511 9466,7411 9366,7511 Z"/>
 <path fill="rgb(0,0,0)" stroke="none" d="M 9532,7161 L 9632,7261 9732,7161 9632,7061 9532,7161 Z"/>
 <path fill="none" stroke="rgb(0,0,0)" stroke-linejoin="round" d="M 9532,7161 L 9632,7261 9732,7161 9632,7061 9532,7161 Z"/>
 <path fill="rgb(0,0,0)" stroke="none" d="M 9698,6898 L 9798,6998 9898,6898 9798,6798 9698,6898 Z"/>
 <path fill="none" stroke="rgb(0,0,0)" stroke-linejoin="round" d="M 9698,6898 L 9798,6998 9898,6898 9798,6798 9698,6898 Z"/>
 <path fill="rgb(0,0,0)" stroke="none" d="M 9863,6693 L 9963,6793 10063,6693 9963,6593 9863,6693 Z"/>
 <path fill="none" stroke="rgb(0,0,0)" stroke-linejoin="round" d="M 9863,6693 L 9963,6793 10063,6693 9963,6593 9863,6693 Z"/>
 <path fill="rgb(0,0,0)" stroke="none" d="M 10029,6401 L 10129,6501 10229,6401 10129,6301 10029,6401 Z"/>
 <path fill="none" stroke="rgb(0,0,0)" stroke-linejoin="round" d="M 10029,6401 L 10129,6501 10229,6401 10129,6301 10029,6401 Z"/>
 <path fill="rgb(0,0,0)" stroke="none" d="M 10195,6343 L 10295,6443 10395,6343 10295,6243 10195,6343 Z"/>
 <path fill="none" stroke="rgb(0,0,0)" stroke-linejoin="round" d="M 10195,6343 L 10295,6443 10395,6343 10295,6243 10195,6343 Z"/>
 <path fill="rgb(0,0,0)" stroke="none" d="M 10361,6167 L 10461,6267 10561,6167 10461,6067 10361,6167 Z"/>
 <path fill="none" stroke="rgb(0,0,0)" stroke-linejoin="round" d="M 10361,6167 L 10461,6267 10561,6167 10461,6067 10361,6167 Z"/>
 <path fill="rgb(0,0,0)" stroke="none" d="M 10526,5788 L 10626,5888 10726,5788 10626,5688 10526,5788 Z"/>
 <path fill="none" stroke="rgb(0,0,0)" stroke-linejoin="round" d="M 10526,5788 L 10626,5888 10726,5788 10626,5688 10526,5788 Z"/>
 <path fill="rgb(0,0,0)" stroke="none" d="M 10692,5526 L 10792,5626 10892,5526 10792,5426 10692,5526 Z"/>
 <path fill="none" stroke="rgb(0,0,0)" stroke-linejoin="round" d="M 10692,5526 L 10792,5626 10892,5526 10792,5426 10692,5526 Z"/>
 <path fill="rgb(0,0,0)" stroke="none" d="M 10858,5409 L 10958,5509 11058,5409 10958,5309 10858,5409 Z"/>
 <path fill="none" stroke="rgb(0,0,0)" stroke-linejoin="round" d="M 10858,5409 L 10958,5509 11058,5409 10958,5309 10858,5409 Z"/>
 <path fill="rgb(0,0,0)" stroke="none" d="M 11023,5350 L 11123,5450 11223,5350 11123,5250 11023,5350 Z"/>
 <path fill="none" stroke="rgb(0,0,0)" stroke-linejoin="round" d="M 11023,5350 L 11123,5450 11223,5350 11123,5250 11023,5350 Z"/>
 <path fill="rgb(0,0,0)" stroke="none" d="M 11189,5087 L 11289,5187 11389,5087 11289,4987 11189,5087 Z"/>
 <path fill="none" stroke="rgb(0,0,0)" stroke-linejoin="round" d="M 11189,5087 L 11289,5187 11389,5087 11289,4987 11189,5087 Z"/>
 <path fill="rgb(0,0,0)" stroke="none" d="M 11355,4737 L 11455,4837 11555,4737 11455,4637 11355,4737 Z"/>
 <path fill="none" stroke="rgb(0,0,0)" stroke-linejoin="round" d="M 11355,4737 L 11455,4837 11555,4737 11455,4637 11355,4737 Z"/>
 <path fill="rgb(0,0,0)" stroke="none" d="M 11521,4503 L 11621,4603 11721,4503 11621,4403 11521,4503 Z"/>
 <path fill="none" stroke="rgb(0,0,0)" stroke-linejoin="round" d="M 11521,4503 L 11621,4603 11721,4503 11621,4403 11521,4503 Z"/>
 <path fill="rgb(0,0,0)" stroke="none" d="M 11686,4269 L 11786,4369 11886,4269 11786,4169 11686,4269 Z"/>
 <path fill="none" stroke="rgb(0,0,0)" stroke-linejoin="round" d="M 11686,4269 L 11786,4369 11886,4269 11786,4169 11686,4269 Z"/>
 <path fill="rgb(0,0,0)" stroke="none" d="M 11852,3977 L 11952,4077 12052,3977 11952,3877 11852,3977 Z"/>
 <path fill="none" stroke="rgb(0,0,0)" stroke-linejoin="round" d="M 11852,3977 L 11952,4077 12052,3977 11952,3877 11852,3977 Z"/>
 <path fill="rgb(0,0,0)" stroke="none" d="M 12018,3860 L 12118,3960 12218,3860 12118,3760 12018,3860 Z"/>
 <path fill="none" stroke="rgb(0,0,0)" stroke-linejoin="round" d="M 12018,3860 L 12118,3960 12218,3860 12118,3760 12018,3860 Z"/>
 <path fill="rgb(0,0,0)" stroke="none" d="M 12184,3627 L 12284,3727 12384,3627 12284,3527 12184,3627 Z"/>
 <path fill="none" stroke="rgb(0,0,0)" stroke-linejoin="round" d="M 12184,3627 L 12284,3727 12384,3627 12284,3527 12184,3627 Z"/>
 <path fill="rgb(0,0,0)" stroke="none" d="M 12349,3481 L 12449,3581 12549,3481 12449,3381 12349,3481 Z"/>
 <path fill="none" stroke="rgb(0,0,0)" stroke-linejoin="round" d="M 12349,3481 L 12449,3581 12549,3481 12449,3381 12349,3481 Z"/>
 <path fill="rgb(0,0,0)" stroke="none" d="M 12515,3276 L 12615,3376 12715,3276 12615,3176 12515,3276 Z"/>
 <path fill="none" stroke="rgb(0,0,0)" stroke-linejoin="round" d="M 12515,3276 L 12615,3376 12715,3276 12615,3176 12515,3276 Z"/>
 <path fill="rgb(0,0,0)" stroke="none" d="M 12681,3276 L 12781,3376 12881,3276 12781,3176 12681,3276 Z"/>
 <path fill="none" stroke="rgb(0,0,0)" stroke-linejoin="round" d="M 12681,3276 L 12781,3376 12881,3276 12781,3176 12681,3276 Z"/>
 <path fill="rgb(0,0,0)" stroke="none" d="M 12846,3101 L 12946,3201 13046,3101 12946,3001 12846,3101 Z"/>
 <path fill="none" stroke="rgb(0,0,0)" stroke-linejoin="round" d="M 12846,3101 L 12946,3201 13046,3101 12946,3001 12846,3101 Z"/>
 <path fill="rgb(0,0,0)" stroke="none" d="M 13012,3072 L 13112,3172 13212,3072 13112,2972 13012,3072 Z"/>
 <path fill="none" stroke="rgb(0,0,0)" stroke-linejoin="round" d="M 13012,3072 L 13112,3172 13212,3072 13112,2972 13012,3072 Z"/>
 <path fill="rgb(0,0,0)" stroke="none" d="M 13178,2955 L 13278,3055 13378,2955 13278,2855 13178,2955 Z"/>
 <path fill="none" stroke="rgb(0,0,0)" stroke-linejoin="round" d="M 13178,2955 L 13278,3055 13378,2955 13278,2855 13178,2955 Z"/>
 <path fill="rgb(0,0,0)" stroke="none" d="M 13344,2955 L 13444,3055 13544,2955 13444,2855 13344,2955 Z"/>
 <path fill="none" stroke="rgb(0,0,0)" stroke-linejoin="round" d="M 13344,2955 L 13444,3055 13544,2955 13444,2855 13344,2955 Z"/>
 <path fill="rgb(0,0,0)" stroke="none" d="M 13509,2867 L 13609,2967 13709,2867 13609,2767 13509,2867 Z"/>
 <path fill="none" stroke="rgb(0,0,0)" stroke-linejoin="round" d="M 13509,2867 L 13609,2967 13709,2867 13609,2767 13509,2867 Z"/>
 <path fill="rgb(0,0,0)" stroke="none" d="M 13675,2721 L 13775,2821 13875,2721 13775,2621 13675,2721 Z"/>
 <path fill="none" stroke="rgb(0,0,0)" stroke-linejoin="round" d="M 13675,2721 L 13775,2821 13875,2721 13775,2621 13675,2721 Z"/>
 <path fill="rgb(0,0,0)" stroke="none" d="M 13841,2721 L 13941,2821 14041,2721 13941,2621 13841,2721 Z"/>
 <path fill="none" stroke="rgb(0,0,0)" stroke-linejoin="round" d="M 13841,2721 L 13941,2821 14041,2721 13941,2621 13841,2721 Z"/>
 <path fill="rgb(0,0,0)" stroke="none" d="M 14006,2692 L 14106,2792 14206,2692 14106,2592 14006,2692 Z"/>
 <path fill="none" stroke="rgb(0,0,0)" stroke-linejoin="round" d="M 14006,2692 L 14106,2792 14206,2692 14106,2592 14006,2692 Z"/>
 <path fill="rgb(0,0,0)" stroke="none" d="M 14172,2633 L 14272,2733 14372,2633 14272,2533 14172,2633 Z"/>
 <path fill="none" stroke="rgb(0,0,0)" stroke-linejoin="round" d="M 14172,2633 L 14272,2733 14372,2633 14272,2533 14172,2633 Z"/>
 <path fill="rgb(0,0,0)" stroke="none" d="M 14338,2516 L 14438,2616 14538,2516 14438,2416 14338,2516 Z"/>
 <path fill="none" stroke="rgb(0,0,0)" stroke-linejoin="round" d="M 14338,2516 L 14438,2616 14538,2516 14438,2416 14338,2516 Z"/>
 <path fill="rgb(0,0,0)" stroke="none" d="M 14504,2370 L 14604,2470 14704,2370 14604,2270 14504,2370 Z"/>
 <path fill="none" stroke="rgb(0,0,0)" stroke-linejoin="round" d="M 14504,2370 L 14604,2470 14704,2370 14604,2270 14504,2370 Z"/>
 <path fill="none" stroke="rgb(255,66,14)" stroke-width="50" stroke-linejoin="round" d="M 4496,11221 L 4661,11221 4827,11221 4993,11221 5158,11221 5324,11221 5490,11221 5656,11192 5821,11192 5987,11134 6153,11134 6318,10958 6484,10958 6650,10871 6816,10754 6981,10608 7147,10491 7313,10403 7479,10170 7643,10024 7809,9907 7975,9556 8140,9235 8306,9176 8472,9059 8638,8884 8803,8797 8969,8650 9135,8650 9301,8417 9466,8271 9632,7979 9798,7832 9963,7803 10129,7599 10295,7423 10461,7336 10626,6927 10792,6722 10958,6664 11123,6547 11289,6459 11455,6343 11621,6226 11786,6167 11952,6138 12118,6021 12284,5964 12449,5847 12615,5759 12781,5613 12946,5496 13112,5496 13278,5496 13444,5467 13609,5438 13775,5379 13941,5350 14106,5204 14272,5146 14438,5146 14604,5117"/>
 <path fill="rgb(255,66,14)" stroke="none" d="M 4396,11221 L 4496,11321 4596,11221 4496,11121 4396,11221 Z"/>
 <path fill="none" stroke="rgb(255,66,14)" stroke-linejoin="round" d="M 4396,11221 L 4496,11321 4596,11221 4496,11121 4396,11221 Z"/>
 <path fill="rgb(255,66,14)" stroke="none" d="M 4561,11221 L 4661,11321 4761,11221 4661,11121 4561,11221 Z"/>
 <path fill="none" stroke="rgb(255,66,14)" stroke-linejoin="round" d="M 4561,11221 L 4661,11321 4761,11221 4661,11121 4561,11221 Z"/>
 <path fill="rgb(255,66,14)" stroke="none" d="M 4727,11221 L 4827,11321 4927,11221 4827,11121 4727,11221 Z"/>
 <path fill="none" stroke="rgb(255,66,14)" stroke-linejoin="round" d="M 4727,11221 L 4827,11321 4927,11221 4827,11121 4727,11221 Z"/>
 <path fill="rgb(255,66,14)" stroke="none" d="M 4893,11221 L 4993,11321 5093,11221 4993,11121 4893,11221 Z"/>
 <path fill="none" stroke="rgb(255,66,14)" stroke-linejoin="round" d="M 4893,11221 L 4993,11321 5093,11221 4993,11121 4893,11221 Z"/>
 <path fill="rgb(255,66,14)" stroke="none" d="M 5058,11221 L 5158,11321 5258,11221 5158,11121 5058,11221 Z"/>
 <path fill="none" stroke="rgb(255,66,14)" stroke-linejoin="round" d="M 5058,11221 L 5158,11321 5258,11221 5158,11121 5058,11221 Z"/>
 <path fill="rgb(255,66,14)" stroke="none" d="M 5224,11221 L 5324,11321 5424,11221 5324,11121 5224,11221 Z"/>
 <path fill="none" stroke="rgb(255,66,14)" stroke-linejoin="round" d="M 5224,11221 L 5324,11321 5424,11221 5324,11121 5224,11221 Z"/>
 <path fill="rgb(255,66,14)" stroke="none" d="M 5390,11221 L 5490,11321 5590,11221 5490,11121 5390,11221 Z"/>
 <path fill="none" stroke="rgb(255,66,14)" stroke-linejoin="round" d="M 5390,11221 L 5490,11321 5590,11221 5490,11121 5390,11221 Z"/>
 <path fill="rgb(255,66,14)" stroke="none" d="M 5556,11192 L 5656,11292 5756,11192 5656,11092 5556,11192 Z"/>
 <path fill="none" stroke="rgb(255,66,14)" stroke-linejoin="round" d="M 5556,11192 L 5656,11292 5756,11192 5656,11092 5556,11192 Z"/>
 <path fill="rgb(255,66,14)" stroke="none" d="M 5721,11192 L 5821,11292 5921,11192 5821,11092 5721,11192 Z"/>
 <path fill="none" stroke="rgb(255,66,14)" stroke-linejoin="round" d="M 5721,11192 L 5821,11292 5921,11192 5821,11092 5721,11192 Z"/>
 <path fill="rgb(255,66,14)" stroke="none" d="M 5887,11134 L 5987,11234 6087,11134 5987,11034 5887,11134 Z"/>
 <path fill="none" stroke="rgb(255,66,14)" stroke-linejoin="round" d="M 5887,11134 L 5987,11234 6087,11134 5987,11034 5887,11134 Z"/>
 <path fill="rgb(255,66,14)" stroke="none" d="M 6053,11134 L 6153,11234 6253,11134 6153,11034 6053,11134 Z"/>
 <path fill="none" stroke="rgb(255,66,14)" stroke-linejoin="round" d="M 6053,11134 L 6153,11234 6253,11134 6153,11034 6053,11134 Z"/>
 <path fill="rgb(255,66,14)" stroke="none" d="M 6218,10958 L 6318,11058 6418,10958 6318,10858 6218,10958 Z"/>
 <path fill="none" stroke="rgb(255,66,14)" stroke-linejoin="round" d="M 6218,10958 L 6318,11058 6418,10958 6318,10858 6218,10958 Z"/>
 <path fill="rgb(255,66,14)" stroke="none" d="M 6384,10958 L 6484,11058 6584,10958 6484,10858 6384,10958 Z"/>
 <path fill="none" stroke="rgb(255,66,14)" stroke-linejoin="round" d="M 6384,10958 L 6484,11058 6584,10958 6484,10858 6384,10958 Z"/>
 <path fill="rgb(255,66,14)" stroke="none" d="M 6550,10871 L 6650,10971 6750,10871 6650,10771 6550,10871 Z"/>
 <path fill="none" stroke="rgb(255,66,14)" stroke-linejoin="round" d="M 6550,10871 L 6650,10971 6750,10871 6650,10771 6550,10871 Z"/>
 <path fill="rgb(255,66,14)" stroke="none" d="M 6716,10754 L 6816,10854 6916,10754 6816,10654 6716,10754 Z"/>
 <path fill="none" stroke="rgb(255,66,14)" stroke-linejoin="round" d="M 6716,10754 L 6816,10854 6916,10754 6816,10654 6716,10754 Z"/>
 <path fill="rgb(255,66,14)" stroke="none" d="M 6881,10608 L 6981,10708 7081,10608 6981,10508 6881,10608 Z"/>
 <path fill="none" stroke="rgb(255,66,14)" stroke-linejoin="round" d="M 6881,10608 L 6981,10708 7081,10608 6981,10508 6881,10608 Z"/>
 <path fill="rgb(255,66,14)" stroke="none" d="M 7047,10491 L 7147,10591 7247,10491 7147,10391 7047,10491 Z"/>
 <path fill="none" stroke="rgb(255,66,14)" stroke-linejoin="round" d="M 7047,10491 L 7147,10591 7247,10491 7147,10391 7047,10491 Z"/>
 <path fill="rgb(255,66,14)" stroke="none" d="M 7213,10403 L 7313,10503 7413,10403 7313,10303 7213,10403 Z"/>
 <path fill="none" stroke="rgb(255,66,14)" stroke-linejoin="round" d="M 7213,10403 L 7313,10503 7413,10403 7313,10303 7213,10403 Z"/>
 <path fill="rgb(255,66,14)" stroke="none" d="M 7379,10170 L 7479,10270 7578,10170 7479,10070 7379,10170 Z"/>
 <path fill="none" stroke="rgb(255,66,14)" stroke-linejoin="round" d="M 7379,10170 L 7479,10270 7578,10170 7479,10070 7379,10170 Z"/>
 <path fill="rgb(255,66,14)" stroke="none" d="M 7543,10024 L 7643,10124 7743,10024 7643,9924 7543,10024 Z"/>
 <path fill="none" stroke="rgb(255,66,14)" stroke-linejoin="round" d="M 7543,10024 L 7643,10124 7743,10024 7643,9924 7543,10024 Z"/>
 <path fill="rgb(255,66,14)" stroke="none" d="M 7709,9907 L 7809,10007 7909,9907 7809,9807 7709,9907 Z"/>
 <path fill="none" stroke="rgb(255,66,14)" stroke-linejoin="round" d="M 7709,9907 L 7809,10007 7909,9907 7809,9807 7709,9907 Z"/>
 <path fill="rgb(255,66,14)" stroke="none" d="M 7875,9556 L 7975,9656 8075,9556 7975,9456 7875,9556 Z"/>
 <path fill="none" stroke="rgb(255,66,14)" stroke-linejoin="round" d="M 7875,9556 L 7975,9656 8075,9556 7975,9456 7875,9556 Z"/>
 <path fill="rgb(255,66,14)" stroke="none" d="M 8040,9235 L 8140,9335 8240,9235 8140,9135 8040,9235 Z"/>
 <path fill="none" stroke="rgb(255,66,14)" stroke-linejoin="round" d="M 8040,9235 L 8140,9335 8240,9235 8140,9135 8040,9235 Z"/>
 <path fill="rgb(255,66,14)" stroke="none" d="M 8206,9176 L 8306,9276 8406,9176 8306,9076 8206,9176 Z"/>
 <path fill="none" stroke="rgb(255,66,14)" stroke-linejoin="round" d="M 8206,9176 L 8306,9276 8406,9176 8306,9076 8206,9176 Z"/>
 <path fill="rgb(255,66,14)" stroke="none" d="M 8372,9059 L 8472,9159 8572,9059 8472,8959 8372,9059 Z"/>
 <path fill="none" stroke="rgb(255,66,14)" stroke-linejoin="round" d="M 8372,9059 L 8472,9159 8572,9059 8472,8959 8372,9059 Z"/>
 <path fill="rgb(255,66,14)" stroke="none" d="M 8538,8884 L 8638,8984 8738,8884 8638,8784 8538,8884 Z"/>
 <path fill="none" stroke="rgb(255,66,14)" stroke-linejoin="round" d="M 8538,8884 L 8638,8984 8738,8884 8638,8784 8538,8884 Z"/>
 <path fill="rgb(255,66,14)" stroke="none" d="M 8703,8797 L 8803,8897 8903,8797 8803,8697 8703,8797 Z"/>
 <path fill="none" stroke="rgb(255,66,14)" stroke-linejoin="round" d="M 8703,8797 L 8803,8897 8903,8797 8803,8697 8703,8797 Z"/>
 <path fill="rgb(255,66,14)" stroke="none" d="M 8869,8650 L 8969,8750 9069,8650 8969,8550 8869,8650 Z"/>
 <path fill="none" stroke="rgb(255,66,14)" stroke-linejoin="round" d="M 8869,8650 L 8969,8750 9069,8650 8969,8550 8869,8650 Z"/>
 <path fill="rgb(255,66,14)" stroke="none" d="M 9035,8650 L 9135,8750 9235,8650 9135,8550 9035,8650 Z"/>
 <path fill="none" stroke="rgb(255,66,14)" stroke-linejoin="round" d="M 9035,8650 L 9135,8750 9235,8650 9135,8550 9035,8650 Z"/>
 <path fill="rgb(255,66,14)" stroke="none" d="M 9201,8417 L 9301,8517 9401,8417 9301,8317 9201,8417 Z"/>
 <path fill="none" stroke="rgb(255,66,14)" stroke-linejoin="round" d="M 9201,8417 L 9301,8517 9401,8417 9301,8317 9201,8417 Z"/>
 <path fill="rgb(255,66,14)" stroke="none" d="M 9366,8271 L 9466,8371 9566,8271 9466,8171 9366,8271 Z"/>
 <path fill="none" stroke="rgb(255,66,14)" stroke-linejoin="round" d="M 9366,8271 L 9466,8371 9566,8271 9466,8171 9366,8271 Z"/>
 <path fill="rgb(255,66,14)" stroke="none" d="M 9532,7979 L 9632,8079 9732,7979 9632,7879 9532,7979 Z"/>
 <path fill="none" stroke="rgb(255,66,14)" stroke-linejoin="round" d="M 9532,7979 L 9632,8079 9732,7979 9632,7879 9532,7979 Z"/>
 <path fill="rgb(255,66,14)" stroke="none" d="M 9698,7832 L 9798,7932 9898,7832 9798,7732 9698,7832 Z"/>
 <path fill="none" stroke="rgb(255,66,14)" stroke-linejoin="round" d="M 9698,7832 L 9798,7932 9898,7832 9798,7732 9698,7832 Z"/>
 <path fill="rgb(255,66,14)" stroke="none" d="M 9863,7803 L 9963,7903 10063,7803 9963,7703 9863,7803 Z"/>
 <path fill="none" stroke="rgb(255,66,14)" stroke-linejoin="round" d="M 9863,7803 L 9963,7903 10063,7803 9963,7703 9863,7803 Z"/>
 <path fill="rgb(255,66,14)" stroke="none" d="M 10029,7599 L 10129,7699 10229,7599 10129,7499 10029,7599 Z"/>
 <path fill="none" stroke="rgb(255,66,14)" stroke-linejoin="round" d="M 10029,7599 L 10129,7699 10229,7599 10129,7499 10029,7599 Z"/>
 <path fill="rgb(255,66,14)" stroke="none" d="M 10195,7423 L 10295,7523 10395,7423 10295,7323 10195,7423 Z"/>
 <path fill="none" stroke="rgb(255,66,14)" stroke-linejoin="round" d="M 10195,7423 L 10295,7523 10395,7423 10295,7323 10195,7423 Z"/>
 <path fill="rgb(255,66,14)" stroke="none" d="M 10361,7336 L 10461,7436 10561,7336 10461,7236 10361,7336 Z"/>
 <path fill="none" stroke="rgb(255,66,14)" stroke-linejoin="round" d="M 10361,7336 L 10461,7436 10561,7336 10461,7236 10361,7336 Z"/>
 <path fill="rgb(255,66,14)" stroke="none" d="M 10526,6927 L 10626,7027 10726,6927 10626,6827 10526,6927 Z"/>
 <path fill="none" stroke="rgb(255,66,14)" stroke-linejoin="round" d="M 10526,6927 L 10626,7027 10726,6927 10626,6827 10526,6927 Z"/>
 <path fill="rgb(255,66,14)" stroke="none" d="M 10692,6722 L 10792,6822 10892,6722 10792,6622 10692,6722 Z"/>
 <path fill="none" stroke="rgb(255,66,14)" stroke-linejoin="round" d="M 10692,6722 L 10792,6822 10892,6722 10792,6622 10692,6722 Z"/>
 <path fill="rgb(255,66,14)" stroke="none" d="M 10858,6664 L 10958,6764 11058,6664 10958,6564 10858,6664 Z"/>
 <path fill="none" stroke="rgb(255,66,14)" stroke-linejoin="round" d="M 10858,6664 L 10958,6764 11058,6664 10958,6564 10858,6664 Z"/>
 <path fill="rgb(255,66,14)" stroke="none" d="M 11023,6547 L 11123,6647 11223,6547 11123,6447 11023,6547 Z"/>
 <path fill="none" stroke="rgb(255,66,14)" stroke-linejoin="round" d="M 11023,6547 L 11123,6647 11223,6547 11123,6447 11023,6547 Z"/>
 <path fill="rgb(255,66,14)" stroke="none" d="M 11189,6459 L 11289,6559 11389,6459 11289,6359 11189,6459 Z"/>
 <path fill="none" stroke="rgb(255,66,14)" stroke-linejoin="round" d="M 11189,6459 L 11289,6559 11389,6459 11289,6359 11189,6459 Z"/>
 <path fill="rgb(255,66,14)" stroke="none" d="M 11355,6343 L 11455,6443 11555,6343 11455,6243 11355,6343 Z"/>
 <path fill="none" stroke="rgb(255,66,14)" stroke-linejoin="round" d="M 11355,6343 L 11455,6443 11555,6343 11455,6243 11355,6343 Z"/>
 <path fill="rgb(255,66,14)" stroke="none" d="M 11521,6226 L 11621,6326 11721,6226 11621,6126 11521,6226 Z"/>
 <path fill="none" stroke="rgb(255,66,14)" stroke-linejoin="round" d="M 11521,6226 L 11621,6326 11721,6226 11621,6126 11521,6226 Z"/>
 <path fill="rgb(255,66,14)" stroke="none" d="M 11686,6167 L 11786,6267 11886,6167 11786,6067 11686,6167 Z"/>
 <path fill="none" stroke="rgb(255,66,14)" stroke-linejoin="round" d="M 11686,6167 L 11786,6267 11886,6167 11786,6067 11686,6167 Z"/>
 <path fill="rgb(255,66,14)" stroke="none" d="M 11852,6138 L 11952,6238 12052,6138 11952,6038 11852,6138 Z"/>
 <path fill="none" stroke="rgb(255,66,14)" stroke-linejoin="round" d="M 11852,6138 L 11952,6238 12052,6138 11952,6038 11852,6138 Z"/>
 <path fill="rgb(255,66,14)" stroke="none" d="M 12018,6021 L 12118,6121 12218,6021 12118,5922 12018,6021 Z"/>
 <path fill="none" stroke="rgb(255,66,14)" stroke-linejoin="round" d="M 12018,6021 L 12118,6121 12218,6021 12118,5922 12018,6021 Z"/>
 <path fill="rgb(255,66,14)" stroke="none" d="M 12184,5964 L 12284,6063 12384,5964 12284,5864 12184,5964 Z"/>
 <path fill="none" stroke="rgb(255,66,14)" stroke-linejoin="round" d="M 12184,5964 L 12284,6063 12384,5964 12284,5864 12184,5964 Z"/>
 <path fill="rgb(255,66,14)" stroke="none" d="M 12349,5847 L 12449,5947 12549,5847 12449,5747 12349,5847 Z"/>
 <path fill="none" stroke="rgb(255,66,14)" stroke-linejoin="round" d="M 12349,5847 L 12449,5947 12549,5847 12449,5747 12349,5847 Z"/>
 <path fill="rgb(255,66,14)" stroke="none" d="M 12515,5759 L 12615,5859 12715,5759 12615,5659 12515,5759 Z"/>
 <path fill="none" stroke="rgb(255,66,14)" stroke-linejoin="round" d="M 12515,5759 L 12615,5859 12715,5759 12615,5659 12515,5759 Z"/>
 <path fill="rgb(255,66,14)" stroke="none" d="M 12681,5613 L 12781,5713 12881,5613 12781,5513 12681,5613 Z"/>
 <path fill="none" stroke="rgb(255,66,14)" stroke-linejoin="round" d="M 12681,5613 L 12781,5713 12881,5613 12781,5513 12681,5613 Z"/>
 <path fill="rgb(255,66,14)" stroke="none" d="M 12846,5496 L 12946,5596 13046,5496 12946,5396 12846,5496 Z"/>
 <path fill="none" stroke="rgb(255,66,14)" stroke-linejoin="round" d="M 12846,5496 L 12946,5596 13046,5496 12946,5396 12846,5496 Z"/>
 <path fill="rgb(255,66,14)" stroke="none" d="M 13012,5496 L 13112,5596 13212,5496 13112,5396 13012,5496 Z"/>
 <path fill="none" stroke="rgb(255,66,14)" stroke-linejoin="round" d="M 13012,5496 L 13112,5596 13212,5496 13112,5396 13012,5496 Z"/>
 <path fill="rgb(255,66,14)" stroke="none" d="M 13178,5496 L 13278,5596 13378,5496 13278,5396 13178,5496 Z"/>
 <path fill="none" stroke="rgb(255,66,14)" stroke-linejoin="round" d="M 13178,5496 L 13278,5596 13378,5496 13278,5396 13178,5496 Z"/>
 <path fill="rgb(255,66,14)" stroke="none" d="M 13344,5467 L 13444,5567 13544,5467 13444,5367 13344,5467 Z"/>
 <path fill="none" stroke="rgb(255,66,14)" stroke-linejoin="round" d="M 13344,5467 L 13444,5567 13544,5467 13444,5367 13344,5467 Z"/>
 <path fill="rgb(255,66,14)" stroke="none" d="M 13509,5438 L 13609,5538 13709,5438 13609,5338 13509,5438 Z"/>
 <path fill="none" stroke="rgb(255,66,14)" stroke-linejoin="round" d="M 13509,5438 L 13609,5538 13709,5438 13609,5338 13509,5438 Z"/>
 <path fill="rgb(255,66,14)" stroke="none" d="M 13675,5379 L 13775,5479 13875,5379 13775,5279 13675,5379 Z"/>
 <path fill="none" stroke="rgb(255,66,14)" stroke-linejoin="round" d="M 13675,5379 L 13775,5479 13875,5379 13775,5279 13675,5379 Z"/>
 <path fill="rgb(255,66,14)" stroke="none" d="M 13841,5350 L 13941,5450 14041,5350 13941,5250 13841,5350 Z"/>
 <path fill="none" stroke="rgb(255,66,14)" stroke-linejoin="round" d="M 13841,5350 L 13941,5450 14041,5350 13941,5250 13841,5350 Z"/>
 <path fill="rgb(255,66,14)" stroke="none" d="M 14006,5204 L 14106,5304 14206,5204 14106,5104 14006,5204 Z"/>
 <path fill="none" stroke="rgb(255,66,14)" stroke-linejoin="round" d="M 14006,5204 L 14106,5304 14206,5204 14106,5104 14006,5204 Z"/>
 <path fill="rgb(255,66,14)" stroke="none" d="M 14172,5146 L 14272,5246 14372,5146 14272,5046 14172,5146 Z"/>
 <path fill="none" stroke="rgb(255,66,14)" stroke-linejoin="round" d="M 14172,5146 L 14272,5246 14372,5146 14272,5046 14172,5146 Z"/>
 <path fill="rgb(255,66,14)" stroke="none" d="M 14338,5146 L 14438,5246 14538,5146 14438,5046 14338,5146 Z"/>
 <path fill="none" stroke="rgb(255,66,14)" stroke-linejoin="round" d="M 14338,5146 L 14438,5246 14538,5146 14438,5046 14338,5146 Z"/>
 <path fill="rgb(255,66,14)" stroke="none" d="M 14504,5117 L 14604,5217 14704,5117 14604,5017 14504,5117 Z"/>
 <path fill="none" stroke="rgb(255,66,14)" stroke-linejoin="round" d="M 14504,5117 L 14604,5217 14704,5117 14604,5017 14504,5117 Z"/>
 <path fill="none" stroke="rgb(255,211,32)" stroke-width="50" stroke-linejoin="round" d="M 4827,11221 L 4993,11221 5158,11221 5324,11192 5490,11163 5656,11163 5821,11134 5987,11046 6153,10988 6318,10929 6484,10783 6650,10637 6816,10549 6981,10462 7147,10199 7313,10111 7479,10082 7643,9644 7809,9439 7975,9264 8140,9118 8306,8972 8472,8913 8638,8767 8803,8650 8969,8592 9135,8563 9301,8504 9466,8475 9632,8475 9798,8446 9963,8271 10129,8212 10295,8125 10461,8008 10626,7891 10792,7774 10958,7774 11123,7745 11289,7716 11455,7716 11621,7511 11786,7453 11952,7423 12118,7423 12284,7365 12449,7336 12615,7307 12781,7277 12946,7161 13112,7161 13278,7131 13444,7102 13609,7073 13775,7044 13941,6927 14106,6927 14272,6927 14438,6898 14604,6839"/>
 <path fill="rgb(255,211,32)" stroke="none" d="M 4727,11121 L 4827,11321 4927,11121 4727,11121 Z"/>
 <path fill="none" stroke="rgb(255,211,32)" stroke-linejoin="round" d="M 4727,11121 L 4827,11321 4927,11121 4727,11121 Z"/>
 <path fill="rgb(255,211,32)" stroke="none" d="M 4893,11121 L 4993,11321 5093,11121 4893,11121 Z"/>
 <path fill="none" stroke="rgb(255,211,32)" stroke-linejoin="round" d="M 4893,11121 L 4993,11321 5093,11121 4893,11121 Z"/>
 <path fill="rgb(255,211,32)" stroke="none" d="M 5058,11121 L 5158,11321 5258,11121 5058,11121 Z"/>
 <path fill="none" stroke="rgb(255,211,32)" stroke-linejoin="round" d="M 5058,11121 L 5158,11321 5258,11121 5058,11121 Z"/>
 <path fill="rgb(255,211,32)" stroke="none" d="M 5224,11092 L 5324,11292 5424,11092 5224,11092 Z"/>
 <path fill="none" stroke="rgb(255,211,32)" stroke-linejoin="round" d="M 5224,11092 L 5324,11292 5424,11092 5224,11092 Z"/>
 <path fill="rgb(255,211,32)" stroke="none" d="M 5390,11063 L 5490,11263 5590,11063 5390,11063 Z"/>
 <path fill="none" stroke="rgb(255,211,32)" stroke-linejoin="round" d="M 5390,11063 L 5490,11263 5590,11063 5390,11063 Z"/>
 <path fill="rgb(255,211,32)" stroke="none" d="M 5556,11063 L 5656,11263 5756,11063 5556,11063 Z"/>
 <path fill="none" stroke="rgb(255,211,32)" stroke-linejoin="round" d="M 5556,11063 L 5656,11263 5756,11063 5556,11063 Z"/>
 <path fill="rgb(255,211,32)" stroke="none" d="M 5721,11034 L 5821,11234 5921,11034 5721,11034 Z"/>
 <path fill="none" stroke="rgb(255,211,32)" stroke-linejoin="round" d="M 5721,11034 L 5821,11234 5921,11034 5721,11034 Z"/>
 <path fill="rgb(255,211,32)" stroke="none" d="M 5887,10946 L 5987,11146 6087,10946 5887,10946 Z"/>
 <path fill="none" stroke="rgb(255,211,32)" stroke-linejoin="round" d="M 5887,10946 L 5987,11146 6087,10946 5887,10946 Z"/>
 <path fill="rgb(255,211,32)" stroke="none" d="M 6053,10888 L 6153,11088 6253,10888 6053,10888 Z"/>
 <path fill="none" stroke="rgb(255,211,32)" stroke-linejoin="round" d="M 6053,10888 L 6153,11088 6253,10888 6053,10888 Z"/>
 <path fill="rgb(255,211,32)" stroke="none" d="M 6218,10829 L 6318,11029 6418,10829 6218,10829 Z"/>
 <path fill="none" stroke="rgb(255,211,32)" stroke-linejoin="round" d="M 6218,10829 L 6318,11029 6418,10829 6218,10829 Z"/>
 <path fill="rgb(255,211,32)" stroke="none" d="M 6384,10683 L 6484,10883 6584,10683 6384,10683 Z"/>
 <path fill="none" stroke="rgb(255,211,32)" stroke-linejoin="round" d="M 6384,10683 L 6484,10883 6584,10683 6384,10683 Z"/>
 <path fill="rgb(255,211,32)" stroke="none" d="M 6550,10537 L 6650,10737 6750,10537 6550,10537 Z"/>
 <path fill="none" stroke="rgb(255,211,32)" stroke-linejoin="round" d="M 6550,10537 L 6650,10737 6750,10537 6550,10537 Z"/>
 <path fill="rgb(255,211,32)" stroke="none" d="M 6716,10449 L 6816,10649 6916,10449 6716,10449 Z"/>
 <path fill="none" stroke="rgb(255,211,32)" stroke-linejoin="round" d="M 6716,10449 L 6816,10649 6916,10449 6716,10449 Z"/>
 <path fill="rgb(255,211,32)" stroke="none" d="M 6881,10362 L 6981,10562 7081,10362 6881,10362 Z"/>
 <path fill="none" stroke="rgb(255,211,32)" stroke-linejoin="round" d="M 6881,10362 L 6981,10562 7081,10362 6881,10362 Z"/>
 <path fill="rgb(255,211,32)" stroke="none" d="M 7047,10099 L 7147,10299 7247,10099 7047,10099 Z"/>
 <path fill="none" stroke="rgb(255,211,32)" stroke-linejoin="round" d="M 7047,10099 L 7147,10299 7247,10099 7047,10099 Z"/>
 <path fill="rgb(255,211,32)" stroke="none" d="M 7213,10011 L 7313,10211 7413,10011 7213,10011 Z"/>
 <path fill="none" stroke="rgb(255,211,32)" stroke-linejoin="round" d="M 7213,10011 L 7313,10211 7413,10011 7213,10011 Z"/>
 <path fill="rgb(255,211,32)" stroke="none" d="M 7379,9982 L 7479,10182 7578,9982 7379,9982 Z"/>
 <path fill="none" stroke="rgb(255,211,32)" stroke-linejoin="round" d="M 7379,9982 L 7479,10182 7578,9982 7379,9982 Z"/>
 <path fill="rgb(255,211,32)" stroke="none" d="M 7543,9544 L 7643,9744 7743,9544 7543,9544 Z"/>
 <path fill="none" stroke="rgb(255,211,32)" stroke-linejoin="round" d="M 7543,9544 L 7643,9744 7743,9544 7543,9544 Z"/>
 <path fill="rgb(255,211,32)" stroke="none" d="M 7709,9339 L 7809,9539 7909,9339 7709,9339 Z"/>
 <path fill="none" stroke="rgb(255,211,32)" stroke-linejoin="round" d="M 7709,9339 L 7809,9539 7909,9339 7709,9339 Z"/>
 <path fill="rgb(255,211,32)" stroke="none" d="M 7875,9164 L 7975,9364 8075,9164 7875,9164 Z"/>
 <path fill="none" stroke="rgb(255,211,32)" stroke-linejoin="round" d="M 7875,9164 L 7975,9364 8075,9164 7875,9164 Z"/>
 <path fill="rgb(255,211,32)" stroke="none" d="M 8040,9018 L 8140,9218 8240,9018 8040,9018 Z"/>
 <path fill="none" stroke="rgb(255,211,32)" stroke-linejoin="round" d="M 8040,9018 L 8140,9218 8240,9018 8040,9018 Z"/>
 <path fill="rgb(255,211,32)" stroke="none" d="M 8206,8872 L 8306,9072 8406,8872 8206,8872 Z"/>
 <path fill="none" stroke="rgb(255,211,32)" stroke-linejoin="round" d="M 8206,8872 L 8306,9072 8406,8872 8206,8872 Z"/>
 <path fill="rgb(255,211,32)" stroke="none" d="M 8372,8813 L 8472,9013 8572,8813 8372,8813 Z"/>
 <path fill="none" stroke="rgb(255,211,32)" stroke-linejoin="round" d="M 8372,8813 L 8472,9013 8572,8813 8372,8813 Z"/>
 <path fill="rgb(255,211,32)" stroke="none" d="M 8538,8667 L 8638,8867 8738,8667 8538,8667 Z"/>
 <path fill="none" stroke="rgb(255,211,32)" stroke-linejoin="round" d="M 8538,8667 L 8638,8867 8738,8667 8538,8667 Z"/>
 <path fill="rgb(255,211,32)" stroke="none" d="M 8703,8550 L 8803,8750 8903,8550 8703,8550 Z"/>
 <path fill="none" stroke="rgb(255,211,32)" stroke-linejoin="round" d="M 8703,8550 L 8803,8750 8903,8550 8703,8550 Z"/>
 <path fill="rgb(255,211,32)" stroke="none" d="M 8869,8492 L 8969,8692 9069,8492 8869,8492 Z"/>
 <path fill="none" stroke="rgb(255,211,32)" stroke-linejoin="round" d="M 8869,8492 L 8969,8692 9069,8492 8869,8492 Z"/>
 <path fill="rgb(255,211,32)" stroke="none" d="M 9035,8463 L 9135,8663 9235,8463 9035,8463 Z"/>
 <path fill="none" stroke="rgb(255,211,32)" stroke-linejoin="round" d="M 9035,8463 L 9135,8663 9235,8463 9035,8463 Z"/>
 <path fill="rgb(255,211,32)" stroke="none" d="M 9201,8404 L 9301,8604 9401,8404 9201,8404 Z"/>
 <path fill="none" stroke="rgb(255,211,32)" stroke-linejoin="round" d="M 9201,8404 L 9301,8604 9401,8404 9201,8404 Z"/>
 <path fill="rgb(255,211,32)" stroke="none" d="M 9366,8375 L 9466,8575 9566,8375 9366,8375 Z"/>
 <path fill="none" stroke="rgb(255,211,32)" stroke-linejoin="round" d="M 9366,8375 L 9466,8575 9566,8375 9366,8375 Z"/>
 <path fill="rgb(255,211,32)" stroke="none" d="M 9532,8375 L 9632,8575 9732,8375 9532,8375 Z"/>
 <path fill="none" stroke="rgb(255,211,32)" stroke-linejoin="round" d="M 9532,8375 L 9632,8575 9732,8375 9532,8375 Z"/>
 <path fill="rgb(255,211,32)" stroke="none" d="M 9698,8346 L 9798,8546 9898,8346 9698,8346 Z"/>
 <path fill="none" stroke="rgb(255,211,32)" stroke-linejoin="round" d="M 9698,8346 L 9798,8546 9898,8346 9698,8346 Z"/>
 <path fill="rgb(255,211,32)" stroke="none" d="M 9863,8171 L 9963,8371 10063,8171 9863,8171 Z"/>
 <path fill="none" stroke="rgb(255,211,32)" stroke-linejoin="round" d="M 9863,8171 L 9963,8371 10063,8171 9863,8171 Z"/>
 <path fill="rgb(255,211,32)" stroke="none" d="M 10029,8112 L 10129,8312 10229,8112 10029,8112 Z"/>
 <path fill="none" stroke="rgb(255,211,32)" stroke-linejoin="round" d="M 10029,8112 L 10129,8312 10229,8112 10029,8112 Z"/>
 <path fill="rgb(255,211,32)" stroke="none" d="M 10195,8025 L 10295,8225 10395,8025 10195,8025 Z"/>
 <path fill="none" stroke="rgb(255,211,32)" stroke-linejoin="round" d="M 10195,8025 L 10295,8225 10395,8025 10195,8025 Z"/>
 <path fill="rgb(255,211,32)" stroke="none" d="M 10361,7908 L 10461,8108 10561,7908 10361,7908 Z"/>
 <path fill="none" stroke="rgb(255,211,32)" stroke-linejoin="round" d="M 10361,7908 L 10461,8108 10561,7908 10361,7908 Z"/>
 <path fill="rgb(255,211,32)" stroke="none" d="M 10526,7791 L 10626,7991 10726,7791 10526,7791 Z"/>
 <path fill="none" stroke="rgb(255,211,32)" stroke-linejoin="round" d="M 10526,7791 L 10626,7991 10726,7791 10526,7791 Z"/>
 <path fill="rgb(255,211,32)" stroke="none" d="M 10692,7674 L 10792,7874 10892,7674 10692,7674 Z"/>
 <path fill="none" stroke="rgb(255,211,32)" stroke-linejoin="round" d="M 10692,7674 L 10792,7874 10892,7674 10692,7674 Z"/>
 <path fill="rgb(255,211,32)" stroke="none" d="M 10858,7674 L 10958,7874 11058,7674 10858,7674 Z"/>
 <path fill="none" stroke="rgb(255,211,32)" stroke-linejoin="round" d="M 10858,7674 L 10958,7874 11058,7674 10858,7674 Z"/>
 <path fill="rgb(255,211,32)" stroke="none" d="M 11023,7645 L 11123,7845 11223,7645 11023,7645 Z"/>
 <path fill="none" stroke="rgb(255,211,32)" stroke-linejoin="round" d="M 11023,7645 L 11123,7845 11223,7645 11023,7645 Z"/>
 <path fill="rgb(255,211,32)" stroke="none" d="M 11189,7616 L 11289,7816 11389,7616 11189,7616 Z"/>
 <path fill="none" stroke="rgb(255,211,32)" stroke-linejoin="round" d="M 11189,7616 L 11289,7816 11389,7616 11189,7616 Z"/>
 <path fill="rgb(255,211,32)" stroke="none" d="M 11355,7616 L 11455,7816 11555,7616 11355,7616 Z"/>
 <path fill="none" stroke="rgb(255,211,32)" stroke-linejoin="round" d="M 11355,7616 L 11455,7816 11555,7616 11355,7616 Z"/>
 <path fill="rgb(255,211,32)" stroke="none" d="M 11521,7411 L 11621,7611 11721,7411 11521,7411 Z"/>
 <path fill="none" stroke="rgb(255,211,32)" stroke-linejoin="round" d="M 11521,7411 L 11621,7611 11721,7411 11521,7411 Z"/>
 <path fill="rgb(255,211,32)" stroke="none" d="M 11686,7353 L 11786,7553 11886,7353 11686,7353 Z"/>
 <path fill="none" stroke="rgb(255,211,32)" stroke-linejoin="round" d="M 11686,7353 L 11786,7553 11886,7353 11686,7353 Z"/>
 <path fill="rgb(255,211,32)" stroke="none" d="M 11852,7323 L 11952,7523 12052,7323 11852,7323 Z"/>
 <path fill="none" stroke="rgb(255,211,32)" stroke-linejoin="round" d="M 11852,7323 L 11952,7523 12052,7323 11852,7323 Z"/>
 <path fill="rgb(255,211,32)" stroke="none" d="M 12018,7323 L 12118,7523 12218,7323 12018,7323 Z"/>
 <path fill="none" stroke="rgb(255,211,32)" stroke-linejoin="round" d="M 12018,7323 L 12118,7523 12218,7323 12018,7323 Z"/>
 <path fill="rgb(255,211,32)" stroke="none" d="M 12184,7265 L 12284,7465 12384,7265 12184,7265 Z"/>
 <path fill="none" stroke="rgb(255,211,32)" stroke-linejoin="round" d="M 12184,7265 L 12284,7465 12384,7265 12184,7265 Z"/>
 <path fill="rgb(255,211,32)" stroke="none" d="M 12349,7236 L 12449,7436 12549,7236 12349,7236 Z"/>
 <path fill="none" stroke="rgb(255,211,32)" stroke-linejoin="round" d="M 12349,7236 L 12449,7436 12549,7236 12349,7236 Z"/>
 <path fill="rgb(255,211,32)" stroke="none" d="M 12515,7207 L 12615,7407 12715,7207 12515,7207 Z"/>
 <path fill="none" stroke="rgb(255,211,32)" stroke-linejoin="round" d="M 12515,7207 L 12615,7407 12715,7207 12515,7207 Z"/>
 <path fill="rgb(255,211,32)" stroke="none" d="M 12681,7177 L 12781,7377 12881,7177 12681,7177 Z"/>
 <path fill="none" stroke="rgb(255,211,32)" stroke-linejoin="round" d="M 12681,7177 L 12781,7377 12881,7177 12681,7177 Z"/>
 <path fill="rgb(255,211,32)" stroke="none" d="M 12846,7061 L 12946,7261 13046,7061 12846,7061 Z"/>
 <path fill="none" stroke="rgb(255,211,32)" stroke-linejoin="round" d="M 12846,7061 L 12946,7261 13046,7061 12846,7061 Z"/>
 <path fill="rgb(255,211,32)" stroke="none" d="M 13012,7061 L 13112,7261 13212,7061 13012,7061 Z"/>
 <path fill="none" stroke="rgb(255,211,32)" stroke-linejoin="round" d="M 13012,7061 L 13112,7261 13212,7061 13012,7061 Z"/>
 <path fill="rgb(255,211,32)" stroke="none" d="M 13178,7031 L 13278,7231 13378,7031 13178,7031 Z"/>
 <path fill="none" stroke="rgb(255,211,32)" stroke-linejoin="round" d="M 13178,7031 L 13278,7231 13378,7031 13178,7031 Z"/>
 <path fill="rgb(255,211,32)" stroke="none" d="M 13344,7002 L 13444,7202 13544,7002 13344,7002 Z"/>
 <path fill="none" stroke="rgb(255,211,32)" stroke-linejoin="round" d="M 13344,7002 L 13444,7202 13544,7002 13344,7002 Z"/>
 <path fill="rgb(255,211,32)" stroke="none" d="M 13509,6973 L 13609,7173 13709,6973 13509,6973 Z"/>
 <path fill="none" stroke="rgb(255,211,32)" stroke-linejoin="round" d="M 13509,6973 L 13609,7173 13709,6973 13509,6973 Z"/>
 <path fill="rgb(255,211,32)" stroke="none" d="M 13675,6944 L 13775,7144 13875,6944 13675,6944 Z"/>
 <path fill="none" stroke="rgb(255,211,32)" stroke-linejoin="round" d="M 13675,6944 L 13775,7144 13875,6944 13675,6944 Z"/>
 <path fill="rgb(255,211,32)" stroke="none" d="M 13841,6827 L 13941,7027 14041,6827 13841,6827 Z"/>
 <path fill="none" stroke="rgb(255,211,32)" stroke-linejoin="round" d="M 13841,6827 L 13941,7027 14041,6827 13841,6827 Z"/>
 <path fill="rgb(255,211,32)" stroke="none" d="M 14006,6827 L 14106,7027 14206,6827 14006,6827 Z"/>
 <path fill="none" stroke="rgb(255,211,32)" stroke-linejoin="round" d="M 14006,6827 L 14106,7027 14206,6827 14006,6827 Z"/>
 <path fill="rgb(255,211,32)" stroke="none" d="M 14172,6827 L 14272,7027 14372,6827 14172,6827 Z"/>
 <path fill="none" stroke="rgb(255,211,32)" stroke-linejoin="round" d="M 14172,6827 L 14272,7027 14372,6827 14172,6827 Z"/>
 <path fill="rgb(255,211,32)" stroke="none" d="M 14338,6798 L 14438,6998 14538,6798 14338,6798 Z"/>
 <path fill="none" stroke="rgb(255,211,32)" stroke-linejoin="round" d="M 14338,6798 L 14438,6998 14538,6798 14338,6798 Z"/>
 <path fill="rgb(255,211,32)" stroke="none" d="M 14504,6739 L 14604,6939 14704,6739 14504,6739 Z"/>
 <path fill="none" stroke="rgb(255,211,32)" stroke-linejoin="round" d="M 14504,6739 L 14604,6939 14704,6739 14504,6739 Z"/>
 <path fill="none" stroke="rgb(87,157,28)" stroke-width="50" stroke-linejoin="round" d="M 5490,11221 L 5656,11221 5821,11221 5987,11192 6153,11104 6318,11075 6484,10988 6650,10842 6816,10754 6981,10637 7147,10608 7313,10491 7479,10462 7643,10170 7809,9673 7975,9498 8140,9381 8306,9264 8472,9264 8638,9001 8803,8767 8969,8563 9135,8388 9301,8271 9466,8125 9632,8037 9798,7832 9963,7745 10129,7394 10295,7248 10461,7044 10626,6898 10792,6781 10958,6635 11123,6430 11289,6372 11455,6196 11621,6050 11786,5935 11952,5905 12118,5818 12284,5759 12449,5672 12615,5672 12781,5642 12946,5613 13112,5555 13278,5496 13444,5467 13609,5438 13775,5409 13941,5379 14106,5379 14272,5379 14438,5379 14604,5321"/>
 <path fill="rgb(87,157,28)" stroke="none" d="M 5390,11321 L 5590,11321 5490,11121 5390,11321 Z"/>
 <path fill="none" stroke="rgb(87,157,28)" stroke-linejoin="round" d="M 5390,11321 L 5590,11321 5490,11121 5390,11321 Z"/>
 <path fill="rgb(87,157,28)" stroke="none" d="M 5556,11321 L 5756,11321 5656,11121 5556,11321 Z"/>
 <path fill="none" stroke="rgb(87,157,28)" stroke-linejoin="round" d="M 5556,11321 L 5756,11321 5656,11121 5556,11321 Z"/>
 <path fill="rgb(87,157,28)" stroke="none" d="M 5721,11321 L 5921,11321 5821,11121 5721,11321 Z"/>
 <path fill="none" stroke="rgb(87,157,28)" stroke-linejoin="round" d="M 5721,11321 L 5921,11321 5821,11121 5721,11321 Z"/>
 <path fill="rgb(87,157,28)" stroke="none" d="M 5887,11292 L 6087,11292 5987,11092 5887,11292 Z"/>
 <path fill="none" stroke="rgb(87,157,28)" stroke-linejoin="round" d="M 5887,11292 L 6087,11292 5987,11092 5887,11292 Z"/>
 <path fill="rgb(87,157,28)" stroke="none" d="M 6053,11204 L 6253,11204 6153,11004 6053,11204 Z"/>
 <path fill="none" stroke="rgb(87,157,28)" stroke-linejoin="round" d="M 6053,11204 L 6253,11204 6153,11004 6053,11204 Z"/>
 <path fill="rgb(87,157,28)" stroke="none" d="M 6218,11175 L 6418,11175 6318,10975 6218,11175 Z"/>
 <path fill="none" stroke="rgb(87,157,28)" stroke-linejoin="round" d="M 6218,11175 L 6418,11175 6318,10975 6218,11175 Z"/>
 <path fill="rgb(87,157,28)" stroke="none" d="M 6384,11088 L 6584,11088 6484,10888 6384,11088 Z"/>
 <path fill="none" stroke="rgb(87,157,28)" stroke-linejoin="round" d="M 6384,11088 L 6584,11088 6484,10888 6384,11088 Z"/>
 <path fill="rgb(87,157,28)" stroke="none" d="M 6550,10942 L 6750,10942 6650,10742 6550,10942 Z"/>
 <path fill="none" stroke="rgb(87,157,28)" stroke-linejoin="round" d="M 6550,10942 L 6750,10942 6650,10742 6550,10942 Z"/>
 <path fill="rgb(87,157,28)" stroke="none" d="M 6716,10854 L 6916,10854 6816,10654 6716,10854 Z"/>
 <path fill="none" stroke="rgb(87,157,28)" stroke-linejoin="round" d="M 6716,10854 L 6916,10854 6816,10654 6716,10854 Z"/>
 <path fill="rgb(87,157,28)" stroke="none" d="M 6881,10737 L 7081,10737 6981,10537 6881,10737 Z"/>
 <path fill="none" stroke="rgb(87,157,28)" stroke-linejoin="round" d="M 6881,10737 L 7081,10737 6981,10537 6881,10737 Z"/>
 <path fill="rgb(87,157,28)" stroke="none" d="M 7047,10708 L 7247,10708 7147,10508 7047,10708 Z"/>
 <path fill="none" stroke="rgb(87,157,28)" stroke-linejoin="round" d="M 7047,10708 L 7247,10708 7147,10508 7047,10708 Z"/>
 <path fill="rgb(87,157,28)" stroke="none" d="M 7213,10591 L 7413,10591 7313,10391 7213,10591 Z"/>
 <path fill="none" stroke="rgb(87,157,28)" stroke-linejoin="round" d="M 7213,10591 L 7413,10591 7313,10391 7213,10591 Z"/>
 <path fill="rgb(87,157,28)" stroke="none" d="M 7379,10562 L 7578,10562 7479,10362 7379,10562 Z"/>
 <path fill="none" stroke="rgb(87,157,28)" stroke-linejoin="round" d="M 7379,10562 L 7578,10562 7479,10362 7379,10562 Z"/>
 <path fill="rgb(87,157,28)" stroke="none" d="M 7543,10270 L 7743,10270 7643,10070 7543,10270 Z"/>
 <path fill="none" stroke="rgb(87,157,28)" stroke-linejoin="round" d="M 7543,10270 L 7743,10270 7643,10070 7543,10270 Z"/>
 <path fill="rgb(87,157,28)" stroke="none" d="M 7709,9773 L 7909,9773 7809,9573 7709,9773 Z"/>
 <path fill="none" stroke="rgb(87,157,28)" stroke-linejoin="round" d="M 7709,9773 L 7909,9773 7809,9573 7709,9773 Z"/>
 <path fill="rgb(87,157,28)" stroke="none" d="M 7875,9598 L 8075,9598 7975,9398 7875,9598 Z"/>
 <path fill="none" stroke="rgb(87,157,28)" stroke-linejoin="round" d="M 7875,9598 L 8075,9598 7975,9398 7875,9598 Z"/>
 <path fill="rgb(87,157,28)" stroke="none" d="M 8040,9481 L 8240,9481 8140,9281 8040,9481 Z"/>
 <path fill="none" stroke="rgb(87,157,28)" stroke-linejoin="round" d="M 8040,9481 L 8240,9481 8140,9281 8040,9481 Z"/>
 <path fill="rgb(87,157,28)" stroke="none" d="M 8206,9364 L 8406,9364 8306,9164 8206,9364 Z"/>
 <path fill="none" stroke="rgb(87,157,28)" stroke-linejoin="round" d="M 8206,9364 L 8406,9364 8306,9164 8206,9364 Z"/>
 <path fill="rgb(87,157,28)" stroke="none" d="M 8372,9364 L 8572,9364 8472,9164 8372,9364 Z"/>
 <path fill="none" stroke="rgb(87,157,28)" stroke-linejoin="round" d="M 8372,9364 L 8572,9364 8472,9164 8372,9364 Z"/>
 <path fill="rgb(87,157,28)" stroke="none" d="M 8538,9101 L 8738,9101 8638,8901 8538,9101 Z"/>
 <path fill="none" stroke="rgb(87,157,28)" stroke-linejoin="round" d="M 8538,9101 L 8738,9101 8638,8901 8538,9101 Z"/>
 <path fill="rgb(87,157,28)" stroke="none" d="M 8703,8867 L 8903,8867 8803,8667 8703,8867 Z"/>
 <path fill="none" stroke="rgb(87,157,28)" stroke-linejoin="round" d="M 8703,8867 L 8903,8867 8803,8667 8703,8867 Z"/>
 <path fill="rgb(87,157,28)" stroke="none" d="M 8869,8663 L 9069,8663 8969,8463 8869,8663 Z"/>
 <path fill="none" stroke="rgb(87,157,28)" stroke-linejoin="round" d="M 8869,8663 L 9069,8663 8969,8463 8869,8663 Z"/>
 <path fill="rgb(87,157,28)" stroke="none" d="M 9035,8488 L 9235,8488 9135,8288 9035,8488 Z"/>
 <path fill="none" stroke="rgb(87,157,28)" stroke-linejoin="round" d="M 9035,8488 L 9235,8488 9135,8288 9035,8488 Z"/>
 <path fill="rgb(87,157,28)" stroke="none" d="M 9201,8371 L 9401,8371 9301,8171 9201,8371 Z"/>
 <path fill="none" stroke="rgb(87,157,28)" stroke-linejoin="round" d="M 9201,8371 L 9401,8371 9301,8171 9201,8371 Z"/>
 <path fill="rgb(87,157,28)" stroke="none" d="M 9366,8225 L 9566,8225 9466,8025 9366,8225 Z"/>
 <path fill="none" stroke="rgb(87,157,28)" stroke-linejoin="round" d="M 9366,8225 L 9566,8225 9466,8025 9366,8225 Z"/>
 <path fill="rgb(87,157,28)" stroke="none" d="M 9532,8137 L 9732,8137 9632,7937 9532,8137 Z"/>
 <path fill="none" stroke="rgb(87,157,28)" stroke-linejoin="round" d="M 9532,8137 L 9732,8137 9632,7937 9532,8137 Z"/>
 <path fill="rgb(87,157,28)" stroke="none" d="M 9698,7932 L 9898,7932 9798,7732 9698,7932 Z"/>
 <path fill="none" stroke="rgb(87,157,28)" stroke-linejoin="round" d="M 9698,7932 L 9898,7932 9798,7732 9698,7932 Z"/>
 <path fill="rgb(87,157,28)" stroke="none" d="M 9863,7845 L 10063,7845 9963,7645 9863,7845 Z"/>
 <path fill="none" stroke="rgb(87,157,28)" stroke-linejoin="round" d="M 9863,7845 L 10063,7845 9963,7645 9863,7845 Z"/>
 <path fill="rgb(87,157,28)" stroke="none" d="M 10029,7494 L 10229,7494 10129,7294 10029,7494 Z"/>
 <path fill="none" stroke="rgb(87,157,28)" stroke-linejoin="round" d="M 10029,7494 L 10229,7494 10129,7294 10029,7494 Z"/>
 <path fill="rgb(87,157,28)" stroke="none" d="M 10195,7348 L 10395,7348 10295,7148 10195,7348 Z"/>
 <path fill="none" stroke="rgb(87,157,28)" stroke-linejoin="round" d="M 10195,7348 L 10395,7348 10295,7148 10195,7348 Z"/>
 <path fill="rgb(87,157,28)" stroke="none" d="M 10361,7144 L 10561,7144 10461,6944 10361,7144 Z"/>
 <path fill="none" stroke="rgb(87,157,28)" stroke-linejoin="round" d="M 10361,7144 L 10561,7144 10461,6944 10361,7144 Z"/>
 <path fill="rgb(87,157,28)" stroke="none" d="M 10526,6998 L 10726,6998 10626,6798 10526,6998 Z"/>
 <path fill="none" stroke="rgb(87,157,28)" stroke-linejoin="round" d="M 10526,6998 L 10726,6998 10626,6798 10526,6998 Z"/>
 <path fill="rgb(87,157,28)" stroke="none" d="M 10692,6881 L 10892,6881 10792,6681 10692,6881 Z"/>
 <path fill="none" stroke="rgb(87,157,28)" stroke-linejoin="round" d="M 10692,6881 L 10892,6881 10792,6681 10692,6881 Z"/>
 <path fill="rgb(87,157,28)" stroke="none" d="M 10858,6735 L 11058,6735 10958,6535 10858,6735 Z"/>
 <path fill="none" stroke="rgb(87,157,28)" stroke-linejoin="round" d="M 10858,6735 L 11058,6735 10958,6535 10858,6735 Z"/>
 <path fill="rgb(87,157,28)" stroke="none" d="M 11023,6530 L 11223,6530 11123,6330 11023,6530 Z"/>
 <path fill="none" stroke="rgb(87,157,28)" stroke-linejoin="round" d="M 11023,6530 L 11223,6530 11123,6330 11023,6530 Z"/>
 <path fill="rgb(87,157,28)" stroke="none" d="M 11189,6472 L 11389,6472 11289,6272 11189,6472 Z"/>
 <path fill="none" stroke="rgb(87,157,28)" stroke-linejoin="round" d="M 11189,6472 L 11389,6472 11289,6272 11189,6472 Z"/>
 <path fill="rgb(87,157,28)" stroke="none" d="M 11355,6296 L 11555,6296 11455,6096 11355,6296 Z"/>
 <path fill="none" stroke="rgb(87,157,28)" stroke-linejoin="round" d="M 11355,6296 L 11555,6296 11455,6096 11355,6296 Z"/>
 <path fill="rgb(87,157,28)" stroke="none" d="M 11521,6150 L 11721,6150 11621,5951 11521,6150 Z"/>
 <path fill="none" stroke="rgb(87,157,28)" stroke-linejoin="round" d="M 11521,6150 L 11721,6150 11621,5951 11521,6150 Z"/>
 <path fill="rgb(87,157,28)" stroke="none" d="M 11686,6034 L 11886,6034 11786,5835 11686,6034 Z"/>
 <path fill="none" stroke="rgb(87,157,28)" stroke-linejoin="round" d="M 11686,6034 L 11886,6034 11786,5835 11686,6034 Z"/>
 <path fill="rgb(87,157,28)" stroke="none" d="M 11852,6004 L 12052,6004 11952,5805 11852,6004 Z"/>
 <path fill="none" stroke="rgb(87,157,28)" stroke-linejoin="round" d="M 11852,6004 L 12052,6004 11952,5805 11852,6004 Z"/>
 <path fill="rgb(87,157,28)" stroke="none" d="M 12018,5918 L 12218,5918 12118,5718 12018,5918 Z"/>
 <path fill="none" stroke="rgb(87,157,28)" stroke-linejoin="round" d="M 12018,5918 L 12218,5918 12118,5718 12018,5918 Z"/>
 <path fill="rgb(87,157,28)" stroke="none" d="M 12184,5859 L 12384,5859 12284,5659 12184,5859 Z"/>
 <path fill="none" stroke="rgb(87,157,28)" stroke-linejoin="round" d="M 12184,5859 L 12384,5859 12284,5659 12184,5859 Z"/>
 <path fill="rgb(87,157,28)" stroke="none" d="M 12349,5772 L 12549,5772 12449,5572 12349,5772 Z"/>
 <path fill="none" stroke="rgb(87,157,28)" stroke-linejoin="round" d="M 12349,5772 L 12549,5772 12449,5572 12349,5772 Z"/>
 <path fill="rgb(87,157,28)" stroke="none" d="M 12515,5772 L 12715,5772 12615,5572 12515,5772 Z"/>
 <path fill="none" stroke="rgb(87,157,28)" stroke-linejoin="round" d="M 12515,5772 L 12715,5772 12615,5572 12515,5772 Z"/>
 <path fill="rgb(87,157,28)" stroke="none" d="M 12681,5742 L 12881,5742 12781,5542 12681,5742 Z"/>
 <path fill="none" stroke="rgb(87,157,28)" stroke-linejoin="round" d="M 12681,5742 L 12881,5742 12781,5542 12681,5742 Z"/>
 <path fill="rgb(87,157,28)" stroke="none" d="M 12846,5713 L 13046,5713 12946,5513 12846,5713 Z"/>
 <path fill="none" stroke="rgb(87,157,28)" stroke-linejoin="round" d="M 12846,5713 L 13046,5713 12946,5513 12846,5713 Z"/>
 <path fill="rgb(87,157,28)" stroke="none" d="M 13012,5655 L 13212,5655 13112,5455 13012,5655 Z"/>
 <path fill="none" stroke="rgb(87,157,28)" stroke-linejoin="round" d="M 13012,5655 L 13212,5655 13112,5455 13012,5655 Z"/>
 <path fill="rgb(87,157,28)" stroke="none" d="M 13178,5596 L 13378,5596 13278,5396 13178,5596 Z"/>
 <path fill="none" stroke="rgb(87,157,28)" stroke-linejoin="round" d="M 13178,5596 L 13378,5596 13278,5396 13178,5596 Z"/>
 <path fill="rgb(87,157,28)" stroke="none" d="M 13344,5567 L 13544,5567 13444,5367 13344,5567 Z"/>
 <path fill="none" stroke="rgb(87,157,28)" stroke-linejoin="round" d="M 13344,5567 L 13544,5567 13444,5367 13344,5567 Z"/>
 <path fill="rgb(87,157,28)" stroke="none" d="M 13509,5538 L 13709,5538 13609,5338 13509,5538 Z"/>
 <path fill="none" stroke="rgb(87,157,28)" stroke-linejoin="round" d="M 13509,5538 L 13709,5538 13609,5338 13509,5538 Z"/>
 <path fill="rgb(87,157,28)" stroke="none" d="M 13675,5509 L 13875,5509 13775,5309 13675,5509 Z"/>
 <path fill="none" stroke="rgb(87,157,28)" stroke-linejoin="round" d="M 13675,5509 L 13875,5509 13775,5309 13675,5509 Z"/>
 <path fill="rgb(87,157,28)" stroke="none" d="M 13841,5479 L 14041,5479 13941,5279 13841,5479 Z"/>
 <path fill="none" stroke="rgb(87,157,28)" stroke-linejoin="round" d="M 13841,5479 L 14041,5479 13941,5279 13841,5479 Z"/>
 <path fill="rgb(87,157,28)" stroke="none" d="M 14006,5479 L 14206,5479 14106,5279 14006,5479 Z"/>
 <path fill="none" stroke="rgb(87,157,28)" stroke-linejoin="round" d="M 14006,5479 L 14206,5479 14106,5279 14006,5479 Z"/>
 <path fill="rgb(87,157,28)" stroke="none" d="M 14172,5479 L 14372,5479 14272,5279 14172,5479 Z"/>
 <path fill="none" stroke="rgb(87,157,28)" stroke-linejoin="round" d="M 14172,5479 L 14372,5479 14272,5279 14172,5479 Z"/>
 <path fill="rgb(87,157,28)" stroke="none" d="M 14338,5479 L 14538,5479 14438,5279 14338,5479 Z"/>
 <path fill="none" stroke="rgb(87,157,28)" stroke-linejoin="round" d="M 14338,5479 L 14538,5479 14438,5279 14338,5479 Z"/>
 <path fill="rgb(87,157,28)" stroke="none" d="M 14504,5421 L 14704,5421 14604,5221 14504,5421 Z"/>
 <path fill="none" stroke="rgb(87,157,28)" stroke-linejoin="round" d="M 14504,5421 L 14704,5421 14604,5221 14504,5421 Z"/>
 <path fill="none" stroke="rgb(126,0,33)" stroke-width="50" stroke-linejoin="round" d="M 5987,11221 L 6153,11221 6318,11192 6484,11163 6650,11104 6816,11017 6981,10812 7147,10754 7313,10666 7479,10520 7643,10257 7809,10170 7975,10024 8140,9907 8306,9761 8472,9527 8638,9264 8803,8972 8969,8767 9135,8680 9301,8621 9466,8504 9632,8417 9798,8300 9963,8154 10129,8066 10295,8008 10461,7979 10626,7891 10792,7862 10958,7832 11123,7745 11289,7657 11455,7628 11621,7599 11786,7570 11952,7540 12118,7511 12284,7453 12449,7453 12615,7453 12781,7394 12946,7394 13112,7336 13278,7336 13444,7277 13609,7277 13775,7248 13941,7248 14106,7219 14272,7190 14438,7190 14604,7190"/>
 <path fill="rgb(126,0,33)" stroke="none" d="M 5887,11121 L 5887,11321 6087,11221 5887,11121 Z"/>
 <path fill="none" stroke="rgb(126,0,33)" stroke-linejoin="round" d="M 5887,11121 L 5887,11321 6087,11221 5887,11121 Z"/>
 <path fill="rgb(126,0,33)" stroke="none" d="M 6053,11121 L 6053,11321 6253,11221 6053,11121 Z"/>
 <path fill="none" stroke="rgb(126,0,33)" stroke-linejoin="round" d="M 6053,11121 L 6053,11321 6253,11221 6053,11121 Z"/>
 <path fill="rgb(126,0,33)" stroke="none" d="M 6218,11092 L 6218,11292 6418,11192 6218,11092 Z"/>
 <path fill="none" stroke="rgb(126,0,33)" stroke-linejoin="round" d="M 6218,11092 L 6218,11292 6418,11192 6218,11092 Z"/>
 <path fill="rgb(126,0,33)" stroke="none" d="M 6384,11063 L 6384,11263 6584,11163 6384,11063 Z"/>
 <path fill="none" stroke="rgb(126,0,33)" stroke-linejoin="round" d="M 6384,11063 L 6384,11263 6584,11163 6384,11063 Z"/>
 <path fill="rgb(126,0,33)" stroke="none" d="M 6550,11004 L 6550,11204 6750,11104 6550,11004 Z"/>
 <path fill="none" stroke="rgb(126,0,33)" stroke-linejoin="round" d="M 6550,11004 L 6550,11204 6750,11104 6550,11004 Z"/>
 <path fill="rgb(126,0,33)" stroke="none" d="M 6716,10917 L 6716,11117 6916,11017 6716,10917 Z"/>
 <path fill="none" stroke="rgb(126,0,33)" stroke-linejoin="round" d="M 6716,10917 L 6716,11117 6916,11017 6716,10917 Z"/>
 <path fill="rgb(126,0,33)" stroke="none" d="M 6881,10712 L 6881,10912 7081,10812 6881,10712 Z"/>
 <path fill="none" stroke="rgb(126,0,33)" stroke-linejoin="round" d="M 6881,10712 L 6881,10912 7081,10812 6881,10712 Z"/>
 <path fill="rgb(126,0,33)" stroke="none" d="M 7047,10654 L 7047,10854 7247,10754 7047,10654 Z"/>
 <path fill="none" stroke="rgb(126,0,33)" stroke-linejoin="round" d="M 7047,10654 L 7047,10854 7247,10754 7047,10654 Z"/>
 <path fill="rgb(126,0,33)" stroke="none" d="M 7213,10566 L 7213,10766 7413,10666 7213,10566 Z"/>
 <path fill="none" stroke="rgb(126,0,33)" stroke-linejoin="round" d="M 7213,10566 L 7213,10766 7413,10666 7213,10566 Z"/>
 <path fill="rgb(126,0,33)" stroke="none" d="M 7379,10420 L 7379,10620 7578,10520 7379,10420 Z"/>
 <path fill="none" stroke="rgb(126,0,33)" stroke-linejoin="round" d="M 7379,10420 L 7379,10620 7578,10520 7379,10420 Z"/>
 <path fill="rgb(126,0,33)" stroke="none" d="M 7543,10157 L 7543,10357 7743,10257 7543,10157 Z"/>
 <path fill="none" stroke="rgb(126,0,33)" stroke-linejoin="round" d="M 7543,10157 L 7543,10357 7743,10257 7543,10157 Z"/>
 <path fill="rgb(126,0,33)" stroke="none" d="M 7709,10070 L 7709,10270 7909,10170 7709,10070 Z"/>
 <path fill="none" stroke="rgb(126,0,33)" stroke-linejoin="round" d="M 7709,10070 L 7709,10270 7909,10170 7709,10070 Z"/>
 <path fill="rgb(126,0,33)" stroke="none" d="M 7875,9924 L 7875,10124 8075,10024 7875,9924 Z"/>
 <path fill="none" stroke="rgb(126,0,33)" stroke-linejoin="round" d="M 7875,9924 L 7875,10124 8075,10024 7875,9924 Z"/>
 <path fill="rgb(126,0,33)" stroke="none" d="M 8040,9807 L 8040,10007 8240,9907 8040,9807 Z"/>
 <path fill="none" stroke="rgb(126,0,33)" stroke-linejoin="round" d="M 8040,9807 L 8040,10007 8240,9907 8040,9807 Z"/>
 <path fill="rgb(126,0,33)" stroke="none" d="M 8206,9661 L 8206,9861 8406,9761 8206,9661 Z"/>
 <path fill="none" stroke="rgb(126,0,33)" stroke-linejoin="round" d="M 8206,9661 L 8206,9861 8406,9761 8206,9661 Z"/>
 <path fill="rgb(126,0,33)" stroke="none" d="M 8372,9427 L 8372,9627 8572,9527 8372,9427 Z"/>
 <path fill="none" stroke="rgb(126,0,33)" stroke-linejoin="round" d="M 8372,9427 L 8372,9627 8572,9527 8372,9427 Z"/>
 <path fill="rgb(126,0,33)" stroke="none" d="M 8538,9164 L 8538,9364 8738,9264 8538,9164 Z"/>
 <path fill="none" stroke="rgb(126,0,33)" stroke-linejoin="round" d="M 8538,9164 L 8538,9364 8738,9264 8538,9164 Z"/>
 <path fill="rgb(126,0,33)" stroke="none" d="M 8703,8872 L 8703,9072 8903,8972 8703,8872 Z"/>
 <path fill="none" stroke="rgb(126,0,33)" stroke-linejoin="round" d="M 8703,8872 L 8703,9072 8903,8972 8703,8872 Z"/>
 <path fill="rgb(126,0,33)" stroke="none" d="M 8869,8667 L 8869,8867 9069,8767 8869,8667 Z"/>
 <path fill="none" stroke="rgb(126,0,33)" stroke-linejoin="round" d="M 8869,8667 L 8869,8867 9069,8767 8869,8667 Z"/>
 <path fill="rgb(126,0,33)" stroke="none" d="M 9035,8580 L 9035,8780 9235,8680 9035,8580 Z"/>
 <path fill="none" stroke="rgb(126,0,33)" stroke-linejoin="round" d="M 9035,8580 L 9035,8780 9235,8680 9035,8580 Z"/>
 <path fill="rgb(126,0,33)" stroke="none" d="M 9201,8521 L 9201,8721 9401,8621 9201,8521 Z"/>
 <path fill="none" stroke="rgb(126,0,33)" stroke-linejoin="round" d="M 9201,8521 L 9201,8721 9401,8621 9201,8521 Z"/>
 <path fill="rgb(126,0,33)" stroke="none" d="M 9366,8404 L 9366,8604 9566,8504 9366,8404 Z"/>
 <path fill="none" stroke="rgb(126,0,33)" stroke-linejoin="round" d="M 9366,8404 L 9366,8604 9566,8504 9366,8404 Z"/>
 <path fill="rgb(126,0,33)" stroke="none" d="M 9532,8317 L 9532,8517 9732,8417 9532,8317 Z"/>
 <path fill="none" stroke="rgb(126,0,33)" stroke-linejoin="round" d="M 9532,8317 L 9532,8517 9732,8417 9532,8317 Z"/>
 <path fill="rgb(126,0,33)" stroke="none" d="M 9698,8200 L 9698,8400 9898,8300 9698,8200 Z"/>
 <path fill="none" stroke="rgb(126,0,33)" stroke-linejoin="round" d="M 9698,8200 L 9698,8400 9898,8300 9698,8200 Z"/>
 <path fill="rgb(126,0,33)" stroke="none" d="M 9863,8054 L 9863,8254 10063,8154 9863,8054 Z"/>
 <path fill="none" stroke="rgb(126,0,33)" stroke-linejoin="round" d="M 9863,8054 L 9863,8254 10063,8154 9863,8054 Z"/>
 <path fill="rgb(126,0,33)" stroke="none" d="M 10029,7966 L 10029,8166 10229,8066 10029,7966 Z"/>
 <path fill="none" stroke="rgb(126,0,33)" stroke-linejoin="round" d="M 10029,7966 L 10029,8166 10229,8066 10029,7966 Z"/>
 <path fill="rgb(126,0,33)" stroke="none" d="M 10195,7908 L 10195,8108 10395,8008 10195,7908 Z"/>
 <path fill="none" stroke="rgb(126,0,33)" stroke-linejoin="round" d="M 10195,7908 L 10195,8108 10395,8008 10195,7908 Z"/>
 <path fill="rgb(126,0,33)" stroke="none" d="M 10361,7879 L 10361,8079 10561,7979 10361,7879 Z"/>
 <path fill="none" stroke="rgb(126,0,33)" stroke-linejoin="round" d="M 10361,7879 L 10361,8079 10561,7979 10361,7879 Z"/>
 <path fill="rgb(126,0,33)" stroke="none" d="M 10526,7791 L 10526,7991 10726,7891 10526,7791 Z"/>
 <path fill="none" stroke="rgb(126,0,33)" stroke-linejoin="round" d="M 10526,7791 L 10526,7991 10726,7891 10526,7791 Z"/>
 <path fill="rgb(126,0,33)" stroke="none" d="M 10692,7762 L 10692,7962 10892,7862 10692,7762 Z"/>
 <path fill="none" stroke="rgb(126,0,33)" stroke-linejoin="round" d="M 10692,7762 L 10692,7962 10892,7862 10692,7762 Z"/>
 <path fill="rgb(126,0,33)" stroke="none" d="M 10858,7732 L 10858,7932 11058,7832 10858,7732 Z"/>
 <path fill="none" stroke="rgb(126,0,33)" stroke-linejoin="round" d="M 10858,7732 L 10858,7932 11058,7832 10858,7732 Z"/>
 <path fill="rgb(126,0,33)" stroke="none" d="M 11023,7645 L 11023,7845 11223,7745 11023,7645 Z"/>
 <path fill="none" stroke="rgb(126,0,33)" stroke-linejoin="round" d="M 11023,7645 L 11023,7845 11223,7745 11023,7645 Z"/>
 <path fill="rgb(126,0,33)" stroke="none" d="M 11189,7557 L 11189,7757 11389,7657 11189,7557 Z"/>
 <path fill="none" stroke="rgb(126,0,33)" stroke-linejoin="round" d="M 11189,7557 L 11189,7757 11389,7657 11189,7557 Z"/>
 <path fill="rgb(126,0,33)" stroke="none" d="M 11355,7528 L 11355,7728 11555,7628 11355,7528 Z"/>
 <path fill="none" stroke="rgb(126,0,33)" stroke-linejoin="round" d="M 11355,7528 L 11355,7728 11555,7628 11355,7528 Z"/>
 <path fill="rgb(126,0,33)" stroke="none" d="M 11521,7499 L 11521,7699 11721,7599 11521,7499 Z"/>
 <path fill="none" stroke="rgb(126,0,33)" stroke-linejoin="round" d="M 11521,7499 L 11521,7699 11721,7599 11521,7499 Z"/>
 <path fill="rgb(126,0,33)" stroke="none" d="M 11686,7470 L 11686,7670 11886,7570 11686,7470 Z"/>
 <path fill="none" stroke="rgb(126,0,33)" stroke-linejoin="round" d="M 11686,7470 L 11686,7670 11886,7570 11686,7470 Z"/>
 <path fill="rgb(126,0,33)" stroke="none" d="M 11852,7440 L 11852,7640 12052,7540 11852,7440 Z"/>
 <path fill="none" stroke="rgb(126,0,33)" stroke-linejoin="round" d="M 11852,7440 L 11852,7640 12052,7540 11852,7440 Z"/>
 <path fill="rgb(126,0,33)" stroke="none" d="M 12018,7411 L 12018,7611 12218,7511 12018,7411 Z"/>
 <path fill="none" stroke="rgb(126,0,33)" stroke-linejoin="round" d="M 12018,7411 L 12018,7611 12218,7511 12018,7411 Z"/>
 <path fill="rgb(126,0,33)" stroke="none" d="M 12184,7353 L 12184,7553 12384,7453 12184,7353 Z"/>
 <path fill="none" stroke="rgb(126,0,33)" stroke-linejoin="round" d="M 12184,7353 L 12184,7553 12384,7453 12184,7353 Z"/>
 <path fill="rgb(126,0,33)" stroke="none" d="M 12349,7353 L 12349,7553 12549,7453 12349,7353 Z"/>
 <path fill="none" stroke="rgb(126,0,33)" stroke-linejoin="round" d="M 12349,7353 L 12349,7553 12549,7453 12349,7353 Z"/>
 <path fill="rgb(126,0,33)" stroke="none" d="M 12515,7353 L 12515,7553 12715,7453 12515,7353 Z"/>
 <path fill="none" stroke="rgb(126,0,33)" stroke-linejoin="round" d="M 12515,7353 L 12515,7553 12715,7453 12515,7353 Z"/>
 <path fill="rgb(126,0,33)" stroke="none" d="M 12681,7294 L 12681,7494 12881,7394 12681,7294 Z"/>
 <path fill="none" stroke="rgb(126,0,33)" stroke-linejoin="round" d="M 12681,7294 L 12681,7494 12881,7394 12681,7294 Z"/>
 <path fill="rgb(126,0,33)" stroke="none" d="M 12846,7294 L 12846,7494 13046,7394 12846,7294 Z"/>
 <path fill="none" stroke="rgb(126,0,33)" stroke-linejoin="round" d="M 12846,7294 L 12846,7494 13046,7394 12846,7294 Z"/>
 <path fill="rgb(126,0,33)" stroke="none" d="M 13012,7236 L 13012,7436 13212,7336 13012,7236 Z"/>
 <path fill="none" stroke="rgb(126,0,33)" stroke-linejoin="round" d="M 13012,7236 L 13012,7436 13212,7336 13012,7236 Z"/>
 <path fill="rgb(126,0,33)" stroke="none" d="M 13178,7236 L 13178,7436 13378,7336 13178,7236 Z"/>
 <path fill="none" stroke="rgb(126,0,33)" stroke-linejoin="round" d="M 13178,7236 L 13178,7436 13378,7336 13178,7236 Z"/>
 <path fill="rgb(126,0,33)" stroke="none" d="M 13344,7177 L 13344,7377 13544,7277 13344,7177 Z"/>
 <path fill="none" stroke="rgb(126,0,33)" stroke-linejoin="round" d="M 13344,7177 L 13344,7377 13544,7277 13344,7177 Z"/>
 <path fill="rgb(126,0,33)" stroke="none" d="M 13509,7177 L 13509,7377 13709,7277 13509,7177 Z"/>
 <path fill="none" stroke="rgb(126,0,33)" stroke-linejoin="round" d="M 13509,7177 L 13509,7377 13709,7277 13509,7177 Z"/>
 <path fill="rgb(126,0,33)" stroke="none" d="M 13675,7148 L 13675,7348 13875,7248 13675,7148 Z"/>
 <path fill="none" stroke="rgb(126,0,33)" stroke-linejoin="round" d="M 13675,7148 L 13675,7348 13875,7248 13675,7148 Z"/>
 <path fill="rgb(126,0,33)" stroke="none" d="M 13841,7148 L 13841,7348 14041,7248 13841,7148 Z"/>
 <path fill="none" stroke="rgb(126,0,33)" stroke-linejoin="round" d="M 13841,7148 L 13841,7348 14041,7248 13841,7148 Z"/>
 <path fill="rgb(126,0,33)" stroke="none" d="M 14006,7119 L 14006,7319 14206,7219 14006,7119 Z"/>
 <path fill="none" stroke="rgb(126,0,33)" stroke-linejoin="round" d="M 14006,7119 L 14006,7319 14206,7219 14006,7119 Z"/>
 <path fill="rgb(126,0,33)" stroke="none" d="M 14172,7090 L 14172,7290 14372,7190 14172,7090 Z"/>
 <path fill="none" stroke="rgb(126,0,33)" stroke-linejoin="round" d="M 14172,7090 L 14172,7290 14372,7190 14172,7090 Z"/>
 <path fill="rgb(126,0,33)" stroke="none" d="M 14338,7090 L 14338,7290 14538,7190 14338,7090 Z"/>
 <path fill="none" stroke="rgb(126,0,33)" stroke-linejoin="round" d="M 14338,7090 L 14338,7290 14538,7190 14338,7090 Z"/>
 <path fill="rgb(126,0,33)" stroke="none" d="M 14504,7090 L 14504,7290 14704,7190 14504,7090 Z"/>
 <path fill="none" stroke="rgb(126,0,33)" stroke-linejoin="round" d="M 14504,7090 L 14504,7290 14704,7190 14504,7090 Z"/>
 <path fill="none" stroke="rgb(131,202,255)" stroke-width="50" stroke-linejoin="round" d="M 4164,11221 L 4330,11192 4496,11192 4661,11192 4827,11163 4993,11163 5158,11134 5324,11104 5490,11104 5656,11104 5821,11046 5987,10812 6153,10725 6318,10608 6484,10374 6650,10170 6816,9994 6981,9644 7147,9352 7313,9264 7479,9176 7643,8767 7809,8621 7975,8300 8140,8066 8306,7511 8472,7336 8638,7131 8803,6576 8969,6080 9135,5935 9301,5526 9466,5204 9632,4854 9798,4737 9963,4415 10129,4065 10295,3743 10461,3597 10626,3305 10792,3159 10958,2925 11123,2663 11289,2546 11455,2400 11621,2283 11786,2166 11952,2049 12118,1903 12284,1728 12449,1611 12615,1552 12781,1523 12946,1494 13112,1465 13278,1465 13444,1436 13609,1406 13775,1377 13941,1260 14106,1202 14272,1143 14438,1143 14604,1114"/>
 <path fill="rgb(131,202,255)" stroke="none" d="M 4064,11221 L 4264,11321 4264,11121 4064,11221 Z"/>
 <path fill="none" stroke="rgb(131,202,255)" stroke-linejoin="round" d="M 4064,11221 L 4264,11321 4264,11121 4064,11221 Z"/>
 <path fill="rgb(131,202,255)" stroke="none" d="M 4230,11192 L 4430,11292 4430,11092 4230,11192 Z"/>
 <path fill="none" stroke="rgb(131,202,255)" stroke-linejoin="round" d="M 4230,11192 L 4430,11292 4430,11092 4230,11192 Z"/>
 <path fill="rgb(131,202,255)" stroke="none" d="M 4396,11192 L 4596,11292 4596,11092 4396,11192 Z"/>
 <path fill="none" stroke="rgb(131,202,255)" stroke-linejoin="round" d="M 4396,11192 L 4596,11292 4596,11092 4396,11192 Z"/>
 <path fill="rgb(131,202,255)" stroke="none" d="M 4561,11192 L 4761,11292 4761,11092 4561,11192 Z"/>
 <path fill="none" stroke="rgb(131,202,255)" stroke-linejoin="round" d="M 4561,11192 L 4761,11292 4761,11092 4561,11192 Z"/>
 <path fill="rgb(131,202,255)" stroke="none" d="M 4727,11163 L 4927,11263 4927,11063 4727,11163 Z"/>
 <path fill="none" stroke="rgb(131,202,255)" stroke-linejoin="round" d="M 4727,11163 L 4927,11263 4927,11063 4727,11163 Z"/>
 <path fill="rgb(131,202,255)" stroke="none" d="M 4893,11163 L 5093,11263 5093,11063 4893,11163 Z"/>
 <path fill="none" stroke="rgb(131,202,255)" stroke-linejoin="round" d="M 4893,11163 L 5093,11263 5093,11063 4893,11163 Z"/>
 <path fill="rgb(131,202,255)" stroke="none" d="M 5058,11134 L 5258,11234 5258,11034 5058,11134 Z"/>
 <path fill="none" stroke="rgb(131,202,255)" stroke-linejoin="round" d="M 5058,11134 L 5258,11234 5258,11034 5058,11134 Z"/>
 <path fill="rgb(131,202,255)" stroke="none" d="M 5224,11104 L 5424,11204 5424,11004 5224,11104 Z"/>
 <path fill="none" stroke="rgb(131,202,255)" stroke-linejoin="round" d="M 5224,11104 L 5424,11204 5424,11004 5224,11104 Z"/>
 <path fill="rgb(131,202,255)" stroke="none" d="M 5390,11104 L 5590,11204 5590,11004 5390,11104 Z"/>
 <path fill="none" stroke="rgb(131,202,255)" stroke-linejoin="round" d="M 5390,11104 L 5590,11204 5590,11004 5390,11104 Z"/>
 <path fill="rgb(131,202,255)" stroke="none" d="M 5556,11104 L 5756,11204 5756,11004 5556,11104 Z"/>
 <path fill="none" stroke="rgb(131,202,255)" stroke-linejoin="round" d="M 5556,11104 L 5756,11204 5756,11004 5556,11104 Z"/>
 <path fill="rgb(131,202,255)" stroke="none" d="M 5721,11046 L 5921,11146 5921,10946 5721,11046 Z"/>
 <path fill="none" stroke="rgb(131,202,255)" stroke-linejoin="round" d="M 5721,11046 L 5921,11146 5921,10946 5721,11046 Z"/>
 <path fill="rgb(131,202,255)" stroke="none" d="M 5887,10812 L 6087,10912 6087,10712 5887,10812 Z"/>
 <path fill="none" stroke="rgb(131,202,255)" stroke-linejoin="round" d="M 5887,10812 L 6087,10912 6087,10712 5887,10812 Z"/>
 <path fill="rgb(131,202,255)" stroke="none" d="M 6053,10725 L 6253,10825 6253,10625 6053,10725 Z"/>
 <path fill="none" stroke="rgb(131,202,255)" stroke-linejoin="round" d="M 6053,10725 L 6253,10825 6253,10625 6053,10725 Z"/>
 <path fill="rgb(131,202,255)" stroke="none" d="M 6218,10608 L 6418,10708 6418,10508 6218,10608 Z"/>
 <path fill="none" stroke="rgb(131,202,255)" stroke-linejoin="round" d="M 6218,10608 L 6418,10708 6418,10508 6218,10608 Z"/>
 <path fill="rgb(131,202,255)" stroke="none" d="M 6384,10374 L 6584,10474 6584,10274 6384,10374 Z"/>
 <path fill="none" stroke="rgb(131,202,255)" stroke-linejoin="round" d="M 6384,10374 L 6584,10474 6584,10274 6384,10374 Z"/>
 <path fill="rgb(131,202,255)" stroke="none" d="M 6550,10170 L 6750,10270 6750,10070 6550,10170 Z"/>
 <path fill="none" stroke="rgb(131,202,255)" stroke-linejoin="round" d="M 6550,10170 L 6750,10270 6750,10070 6550,10170 Z"/>
 <path fill="rgb(131,202,255)" stroke="none" d="M 6716,9994 L 6916,10094 6916,9894 6716,9994 Z"/>
 <path fill="none" stroke="rgb(131,202,255)" stroke-linejoin="round" d="M 6716,9994 L 6916,10094 6916,9894 6716,9994 Z"/>
 <path fill="rgb(131,202,255)" stroke="none" d="M 6881,9644 L 7081,9744 7081,9544 6881,9644 Z"/>
 <path fill="none" stroke="rgb(131,202,255)" stroke-linejoin="round" d="M 6881,9644 L 7081,9744 7081,9544 6881,9644 Z"/>
 <path fill="rgb(131,202,255)" stroke="none" d="M 7047,9352 L 7247,9452 7247,9252 7047,9352 Z"/>
 <path fill="none" stroke="rgb(131,202,255)" stroke-linejoin="round" d="M 7047,9352 L 7247,9452 7247,9252 7047,9352 Z"/>
 <path fill="rgb(131,202,255)" stroke="none" d="M 7213,9264 L 7413,9364 7413,9164 7213,9264 Z"/>
 <path fill="none" stroke="rgb(131,202,255)" stroke-linejoin="round" d="M 7213,9264 L 7413,9364 7413,9164 7213,9264 Z"/>
 <path fill="rgb(131,202,255)" stroke="none" d="M 7379,9176 L 7578,9276 7578,9076 7379,9176 Z"/>
 <path fill="none" stroke="rgb(131,202,255)" stroke-linejoin="round" d="M 7379,9176 L 7578,9276 7578,9076 7379,9176 Z"/>
 <path fill="rgb(131,202,255)" stroke="none" d="M 7543,8767 L 7743,8867 7743,8667 7543,8767 Z"/>
 <path fill="none" stroke="rgb(131,202,255)" stroke-linejoin="round" d="M 7543,8767 L 7743,8867 7743,8667 7543,8767 Z"/>
 <path fill="rgb(131,202,255)" stroke="none" d="M 7709,8621 L 7909,8721 7909,8521 7709,8621 Z"/>
 <path fill="none" stroke="rgb(131,202,255)" stroke-linejoin="round" d="M 7709,8621 L 7909,8721 7909,8521 7709,8621 Z"/>
 <path fill="rgb(131,202,255)" stroke="none" d="M 7875,8300 L 8075,8400 8075,8200 7875,8300 Z"/>
 <path fill="none" stroke="rgb(131,202,255)" stroke-linejoin="round" d="M 7875,8300 L 8075,8400 8075,8200 7875,8300 Z"/>
 <path fill="rgb(131,202,255)" stroke="none" d="M 8040,8066 L 8240,8166 8240,7966 8040,8066 Z"/>
 <path fill="none" stroke="rgb(131,202,255)" stroke-linejoin="round" d="M 8040,8066 L 8240,8166 8240,7966 8040,8066 Z"/>
 <path fill="rgb(131,202,255)" stroke="none" d="M 8206,7511 L 8406,7611 8406,7411 8206,7511 Z"/>
 <path fill="none" stroke="rgb(131,202,255)" stroke-linejoin="round" d="M 8206,7511 L 8406,7611 8406,7411 8206,7511 Z"/>
 <path fill="rgb(131,202,255)" stroke="none" d="M 8372,7336 L 8572,7436 8572,7236 8372,7336 Z"/>
 <path fill="none" stroke="rgb(131,202,255)" stroke-linejoin="round" d="M 8372,7336 L 8572,7436 8572,7236 8372,7336 Z"/>
 <path fill="rgb(131,202,255)" stroke="none" d="M 8538,7131 L 8738,7231 8738,7031 8538,7131 Z"/>
 <path fill="none" stroke="rgb(131,202,255)" stroke-linejoin="round" d="M 8538,7131 L 8738,7231 8738,7031 8538,7131 Z"/>
 <path fill="rgb(131,202,255)" stroke="none" d="M 8703,6576 L 8903,6676 8903,6476 8703,6576 Z"/>
 <path fill="none" stroke="rgb(131,202,255)" stroke-linejoin="round" d="M 8703,6576 L 8903,6676 8903,6476 8703,6576 Z"/>
 <path fill="rgb(131,202,255)" stroke="none" d="M 8869,6080 L 9069,6180 9069,5981 8869,6080 Z"/>
 <path fill="none" stroke="rgb(131,202,255)" stroke-linejoin="round" d="M 8869,6080 L 9069,6180 9069,5981 8869,6080 Z"/>
 <path fill="rgb(131,202,255)" stroke="none" d="M 9035,5935 L 9235,6034 9235,5835 9035,5935 Z"/>
 <path fill="none" stroke="rgb(131,202,255)" stroke-linejoin="round" d="M 9035,5935 L 9235,6034 9235,5835 9035,5935 Z"/>
 <path fill="rgb(131,202,255)" stroke="none" d="M 9201,5526 L 9401,5626 9401,5426 9201,5526 Z"/>
 <path fill="none" stroke="rgb(131,202,255)" stroke-linejoin="round" d="M 9201,5526 L 9401,5626 9401,5426 9201,5526 Z"/>
 <path fill="rgb(131,202,255)" stroke="none" d="M 9366,5204 L 9566,5304 9566,5104 9366,5204 Z"/>
 <path fill="none" stroke="rgb(131,202,255)" stroke-linejoin="round" d="M 9366,5204 L 9566,5304 9566,5104 9366,5204 Z"/>
 <path fill="rgb(131,202,255)" stroke="none" d="M 9532,4854 L 9732,4954 9732,4754 9532,4854 Z"/>
 <path fill="none" stroke="rgb(131,202,255)" stroke-linejoin="round" d="M 9532,4854 L 9732,4954 9732,4754 9532,4854 Z"/>
 <path fill="rgb(131,202,255)" stroke="none" d="M 9698,4737 L 9898,4837 9898,4637 9698,4737 Z"/>
 <path fill="none" stroke="rgb(131,202,255)" stroke-linejoin="round" d="M 9698,4737 L 9898,4837 9898,4637 9698,4737 Z"/>
 <path fill="rgb(131,202,255)" stroke="none" d="M 9863,4415 L 10063,4515 10063,4315 9863,4415 Z"/>
 <path fill="none" stroke="rgb(131,202,255)" stroke-linejoin="round" d="M 9863,4415 L 10063,4515 10063,4315 9863,4415 Z"/>
 <path fill="rgb(131,202,255)" stroke="none" d="M 10029,4065 L 10229,4165 10229,3965 10029,4065 Z"/>
 <path fill="none" stroke="rgb(131,202,255)" stroke-linejoin="round" d="M 10029,4065 L 10229,4165 10229,3965 10029,4065 Z"/>
 <path fill="rgb(131,202,255)" stroke="none" d="M 10195,3743 L 10395,3843 10395,3643 10195,3743 Z"/>
 <path fill="none" stroke="rgb(131,202,255)" stroke-linejoin="round" d="M 10195,3743 L 10395,3843 10395,3643 10195,3743 Z"/>
 <path fill="rgb(131,202,255)" stroke="none" d="M 10361,3597 L 10561,3697 10561,3497 10361,3597 Z"/>
 <path fill="none" stroke="rgb(131,202,255)" stroke-linejoin="round" d="M 10361,3597 L 10561,3697 10561,3497 10361,3597 Z"/>
 <path fill="rgb(131,202,255)" stroke="none" d="M 10526,3305 L 10726,3405 10726,3205 10526,3305 Z"/>
 <path fill="none" stroke="rgb(131,202,255)" stroke-linejoin="round" d="M 10526,3305 L 10726,3405 10726,3205 10526,3305 Z"/>
 <path fill="rgb(131,202,255)" stroke="none" d="M 10692,3159 L 10892,3259 10892,3059 10692,3159 Z"/>
 <path fill="none" stroke="rgb(131,202,255)" stroke-linejoin="round" d="M 10692,3159 L 10892,3259 10892,3059 10692,3159 Z"/>
 <path fill="rgb(131,202,255)" stroke="none" d="M 10858,2925 L 11058,3025 11058,2825 10858,2925 Z"/>
 <path fill="none" stroke="rgb(131,202,255)" stroke-linejoin="round" d="M 10858,2925 L 11058,3025 11058,2825 10858,2925 Z"/>
 <path fill="rgb(131,202,255)" stroke="none" d="M 11023,2663 L 11223,2763 11223,2563 11023,2663 Z"/>
 <path fill="none" stroke="rgb(131,202,255)" stroke-linejoin="round" d="M 11023,2663 L 11223,2763 11223,2563 11023,2663 Z"/>
 <path fill="rgb(131,202,255)" stroke="none" d="M 11189,2546 L 11389,2646 11389,2446 11189,2546 Z"/>
 <path fill="none" stroke="rgb(131,202,255)" stroke-linejoin="round" d="M 11189,2546 L 11389,2646 11389,2446 11189,2546 Z"/>
 <path fill="rgb(131,202,255)" stroke="none" d="M 11355,2400 L 11555,2500 11555,2300 11355,2400 Z"/>
 <path fill="none" stroke="rgb(131,202,255)" stroke-linejoin="round" d="M 11355,2400 L 11555,2500 11555,2300 11355,2400 Z"/>
 <path fill="rgb(131,202,255)" stroke="none" d="M 11521,2283 L 11721,2383 11721,2183 11521,2283 Z"/>
 <path fill="none" stroke="rgb(131,202,255)" stroke-linejoin="round" d="M 11521,2283 L 11721,2383 11721,2183 11521,2283 Z"/>
 <path fill="rgb(131,202,255)" stroke="none" d="M 11686,2166 L 11886,2266 11886,2066 11686,2166 Z"/>
 <path fill="none" stroke="rgb(131,202,255)" stroke-linejoin="round" d="M 11686,2166 L 11886,2266 11886,2066 11686,2166 Z"/>
 <path fill="rgb(131,202,255)" stroke="none" d="M 11852,2049 L 12052,2149 12052,1949 11852,2049 Z"/>
 <path fill="none" stroke="rgb(131,202,255)" stroke-linejoin="round" d="M 11852,2049 L 12052,2149 12052,1949 11852,2049 Z"/>
 <path fill="rgb(131,202,255)" stroke="none" d="M 12018,1903 L 12218,2003 12218,1803 12018,1903 Z"/>
 <path fill="none" stroke="rgb(131,202,255)" stroke-linejoin="round" d="M 12018,1903 L 12218,2003 12218,1803 12018,1903 Z"/>
 <path fill="rgb(131,202,255)" stroke="none" d="M 12184,1728 L 12384,1828 12384,1628 12184,1728 Z"/>
 <path fill="none" stroke="rgb(131,202,255)" stroke-linejoin="round" d="M 12184,1728 L 12384,1828 12384,1628 12184,1728 Z"/>
 <path fill="rgb(131,202,255)" stroke="none" d="M 12349,1611 L 12549,1711 12549,1511 12349,1611 Z"/>
 <path fill="none" stroke="rgb(131,202,255)" stroke-linejoin="round" d="M 12349,1611 L 12549,1711 12549,1511 12349,1611 Z"/>
 <path fill="rgb(131,202,255)" stroke="none" d="M 12515,1552 L 12715,1652 12715,1452 12515,1552 Z"/>
 <path fill="none" stroke="rgb(131,202,255)" stroke-linejoin="round" d="M 12515,1552 L 12715,1652 12715,1452 12515,1552 Z"/>
 <path fill="rgb(131,202,255)" stroke="none" d="M 12681,1523 L 12881,1623 12881,1423 12681,1523 Z"/>
 <path fill="none" stroke="rgb(131,202,255)" stroke-linejoin="round" d="M 12681,1523 L 12881,1623 12881,1423 12681,1523 Z"/>
 <path fill="rgb(131,202,255)" stroke="none" d="M 12846,1494 L 13046,1594 13046,1394 12846,1494 Z"/>
 <path fill="none" stroke="rgb(131,202,255)" stroke-linejoin="round" d="M 12846,1494 L 13046,1594 13046,1394 12846,1494 Z"/>
 <path fill="rgb(131,202,255)" stroke="none" d="M 13012,1465 L 13212,1565 13212,1365 13012,1465 Z"/>
 <path fill="none" stroke="rgb(131,202,255)" stroke-linejoin="round" d="M 13012,1465 L 13212,1565 13212,1365 13012,1465 Z"/>
 <path fill="rgb(131,202,255)" stroke="none" d="M 13178,1465 L 13378,1565 13378,1365 13178,1465 Z"/>
 <path fill="none" stroke="rgb(131,202,255)" stroke-linejoin="round" d="M 13178,1465 L 13378,1565 13378,1365 13178,1465 Z"/>
 <path fill="rgb(131,202,255)" stroke="none" d="M 13344,1436 L 13544,1536 13544,1336 13344,1436 Z"/>
 <path fill="none" stroke="rgb(131,202,255)" stroke-linejoin="round" d="M 13344,1436 L 13544,1536 13544,1336 13344,1436 Z"/>
 <path fill="rgb(131,202,255)" stroke="none" d="M 13509,1406 L 13709,1506 13709,1306 13509,1406 Z"/>
 <path fill="none" stroke="rgb(131,202,255)" stroke-linejoin="round" d="M 13509,1406 L 13709,1506 13709,1306 13509,1406 Z"/>
 <path fill="rgb(131,202,255)" stroke="none" d="M 13675,1377 L 13875,1477 13875,1277 13675,1377 Z"/>
 <path fill="none" stroke="rgb(131,202,255)" stroke-linejoin="round" d="M 13675,1377 L 13875,1477 13875,1277 13675,1377 Z"/>
 <path fill="rgb(131,202,255)" stroke="none" d="M 13841,1260 L 14041,1360 14041,1160 13841,1260 Z"/>
 <path fill="none" stroke="rgb(131,202,255)" stroke-linejoin="round" d="M 13841,1260 L 14041,1360 14041,1160 13841,1260 Z"/>
 <path fill="rgb(131,202,255)" stroke="none" d="M 14006,1202 L 14206,1302 14206,1102 14006,1202 Z"/>
 <path fill="none" stroke="rgb(131,202,255)" stroke-linejoin="round" d="M 14006,1202 L 14206,1302 14206,1102 14006,1202 Z"/>
 <path fill="rgb(131,202,255)" stroke="none" d="M 14172,1143 L 14372,1243 14372,1043 14172,1143 Z"/>
 <path fill="none" stroke="rgb(131,202,255)" stroke-linejoin="round" d="M 14172,1143 L 14372,1243 14372,1043 14172,1143 Z"/>
 <path fill="rgb(131,202,255)" stroke="none" d="M 14338,1143 L 14538,1243 14538,1043 14338,1143 Z"/>
 <path fill="none" stroke="rgb(131,202,255)" stroke-linejoin="round" d="M 14338,1143 L 14538,1243 14538,1043 14338,1143 Z"/>
 <path fill="rgb(131,202,255)" stroke="none" d="M 14504,1114 L 14704,1214 14704,1014 14504,1114 Z"/>
 <path fill="none" stroke="rgb(131,202,255)" stroke-linejoin="round" d="M 14504,1114 L 14704,1214 14704,1014 14504,1114 Z"/>
 <text class="TextShape"><tspan class="TextParagraph" font-family="Liberation Sans, sans-serif" font-size="353px" font-weight="400"><tspan class="TextPosition" x="591" y="11819"><tspan fill="rgb(0,0,0)" stroke="none">20/02</tspan></tspan></tspan></text>
 <text class="TextShape"><tspan class="TextParagraph" font-family="Liberation Sans, sans-serif" font-size="353px" font-weight="400"><tspan class="TextPosition" x="1751" y="11819"><tspan fill="rgb(0,0,0)" stroke="none">27/02</tspan></tspan></tspan></text>
 <text class="TextShape"><tspan class="TextParagraph" font-family="Liberation Sans, sans-serif" font-size="353px" font-weight="400"><tspan class="TextPosition" x="2911" y="11819"><tspan fill="rgb(0,0,0)" stroke="none">05/03</tspan></tspan></tspan></text>
 <text class="TextShape"><tspan class="TextParagraph" font-family="Liberation Sans, sans-serif" font-size="353px" font-weight="400"><tspan class="TextPosition" x="4072" y="11819"><tspan fill="rgb(0,0,0)" stroke="none">12/03</tspan></tspan></tspan></text>
 <text class="TextShape"><tspan class="TextParagraph" font-family="Liberation Sans, sans-serif" font-size="353px" font-weight="400"><tspan class="TextPosition" x="5232" y="11819"><tspan fill="rgb(0,0,0)" stroke="none">19/03</tspan></tspan></tspan></text>
 <text class="TextShape"><tspan class="TextParagraph" font-family="Liberation Sans, sans-serif" font-size="353px" font-weight="400"><tspan class="TextPosition" x="6392" y="11819"><tspan fill="rgb(0,0,0)" stroke="none">26/03</tspan></tspan></tspan></text>
 <text class="TextShape"><tspan class="TextParagraph" font-family="Liberation Sans, sans-serif" font-size="353px" font-weight="400"><tspan class="TextPosition" x="7552" y="11819"><tspan fill="rgb(0,0,0)" stroke="none">02/04</tspan></tspan></tspan></text>
 <text class="TextShape"><tspan class="TextParagraph" font-family="Liberation Sans, sans-serif" font-size="353px" font-weight="400"><tspan class="TextPosition" x="8712" y="11819"><tspan fill="rgb(0,0,0)" stroke="none">09/04</tspan></tspan></tspan></text>
 <text class="TextShape"><tspan class="TextParagraph" font-family="Liberation Sans, sans-serif" font-size="353px" font-weight="400"><tspan class="TextPosition" x="9872" y="11819"><tspan fill="rgb(0,0,0)" stroke="none">16/04</tspan></tspan></tspan></text>
 <text class="TextShape"><tspan class="TextParagraph" font-family="Liberation Sans, sans-serif" font-size="353px" font-weight="400"><tspan class="TextPosition" x="11032" y="11819"><tspan fill="rgb(0,0,0)" stroke="none">23/04</tspan></tspan></tspan></text>
 <text class="TextShape"><tspan class="TextParagraph" font-family="Liberation Sans, sans-serif" font-size="353px" font-weight="400"><tspan class="TextPosition" x="12192" y="11819"><tspan fill="rgb(0,0,0)" stroke="none">30/04</tspan></tspan></tspan></text>
 <text class="TextShape"><tspan class="TextParagraph" font-family="Liberation Sans, sans-serif" font-size="353px" font-weight="400"><tspan class="TextPosition" x="13352" y="11819"><tspan fill="rgb(0,0,0)" stroke="none">07/05</tspan></tspan></tspan></text>
 <text class="TextShape"><tspan class="TextParagraph" font-family="Liberation Sans, sans-serif" font-size="353px" font-weight="400"><tspan class="TextPosition" x="498" y="11372"><tspan fill="rgb(0,0,0)" stroke="none">0</tspan></tspan></tspan></text>
 <text class="TextShape"><tspan class="TextParagraph" font-family="Liberation Sans, sans-serif" font-size="353px" font-weight="400"><tspan class="TextPosition" x="313" y="9911"><tspan fill="rgb(0,0,0)" stroke="none">50</tspan></tspan></tspan></text>
 <text class="TextShape"><tspan class="TextParagraph" font-family="Liberation Sans, sans-serif" font-size="353px" font-weight="400"><tspan class="TextPosition" x="127" y="8450"><tspan fill="rgb(0,0,0)" stroke="none">100</tspan></tspan></tspan></text>
 <text class="TextShape"><tspan class="TextParagraph" font-family="Liberation Sans, sans-serif" font-size="353px" font-weight="400"><tspan class="TextPosition" x="127" y="6989"><tspan fill="rgb(0,0,0)" stroke="none">150</tspan></tspan></tspan></text>
 <text class="TextShape"><tspan class="TextParagraph" font-family="Liberation Sans, sans-serif" font-size="353px" font-weight="400"><tspan class="TextPosition" x="127" y="5529"><tspan fill="rgb(0,0,0)" stroke="none">200</tspan></tspan></tspan></text>
 <text class="TextShape"><tspan class="TextParagraph" font-family="Liberation Sans, sans-serif" font-size="353px" font-weight="400"><tspan class="TextPosition" x="127" y="4068"><tspan fill="rgb(0,0,0)" stroke="none">250</tspan></tspan></tspan></text>
 <text class="TextShape"><tspan class="TextParagraph" font-family="Liberation Sans, sans-serif" font-size="353px" font-weight="400"><tspan class="TextPosition" x="127" y="2607"><tspan fill="rgb(0,0,0)" stroke="none">300</tspan></tspan></tspan></text>
 <text class="TextShape"><tspan class="TextParagraph" font-family="Liberation Sans, sans-serif" font-size="353px" font-weight="400"><tspan class="TextPosition" x="127" y="1147"><tspan fill="rgb(0,0,0)" stroke="none">350</tspan></tspan></tspan></text>
 <text class="TextShape"><tspan class="TextParagraph" font-family="Liberation Sans, sans-serif" font-size="459px" font-weight="400"><tspan class="TextPosition" x="4265" y="724"><tspan fill="rgb(0,0,0)" stroke="none">Covid-19. Muertes acumuladas CCAA (3)</tspan></tspan></tspan></text>
 <path fill="none" stroke="rgb(0,0,0)" stroke-width="50" stroke-linejoin="round" d="M 6754,2854 L 7553,2854"/>
 <path fill="rgb(0,0,0)" stroke="none" d="M 7048,2854 L 7154,2960 7259,2854 7154,2749 7048,2854 Z"/>
 <path fill="none" stroke="rgb(0,0,0)" stroke-linejoin="round" d="M 7048,2854 L 7154,2960 7259,2854 7154,2749 7048,2854 Z"/>
 <path fill="none" stroke="rgb(255,66,14)" stroke-width="50" stroke-linejoin="round" d="M 6754,3566 L 7553,3566"/>
 <path fill="rgb(255,66,14)" stroke="none" d="M 7048,3566 L 7154,3672 7259,3566 7154,3461 7048,3566 Z"/>
 <path fill="none" stroke="rgb(255,66,14)" stroke-linejoin="round" d="M 7048,3566 L 7154,3672 7259,3566 7154,3461 7048,3566 Z"/>
 <path fill="none" stroke="rgb(255,211,32)" stroke-width="50" stroke-linejoin="round" d="M 6754,4278 L 7553,4278"/>
 <path fill="rgb(255,211,32)" stroke="none" d="M 7048,4173 L 7154,4384 7259,4173 7048,4173 Z"/>
 <path fill="none" stroke="rgb(255,211,32)" stroke-linejoin="round" d="M 7048,4173 L 7154,4384 7259,4173 7048,4173 Z"/>
 <path fill="none" stroke="rgb(87,157,28)" stroke-width="50" stroke-linejoin="round" d="M 6754,4990 L 7553,4990"/>
 <path fill="rgb(87,157,28)" stroke="none" d="M 7048,5096 L 7259,5096 7154,4885 7048,5096 Z"/>
 <path fill="none" stroke="rgb(87,157,28)" stroke-linejoin="round" d="M 7048,5096 L 7259,5096 7154,4885 7048,5096 Z"/>
 <path fill="none" stroke="rgb(126,0,33)" stroke-width="50" stroke-linejoin="round" d="M 6754,5702 L 7553,5702"/>
 <path fill="rgb(126,0,33)" stroke="none" d="M 7048,5597 L 7048,5808 7259,5702 7048,5597 Z"/>
 <path fill="none" stroke="rgb(126,0,33)" stroke-linejoin="round" d="M 7048,5597 L 7048,5808 7259,5702 7048,5597 Z"/>
 <path fill="none" stroke="rgb(131,202,255)" stroke-width="50" stroke-linejoin="round" d="M 6754,6413 L 7553,6413"/>
 <path fill="rgb(131,202,255)" stroke="none" d="M 7048,6413 L 7259,6519 7259,6308 7048,6413 Z"/>
 <path fill="none" stroke="rgb(131,202,255)" stroke-linejoin="round" d="M 7048,6413 L 7259,6519 7259,6308 7048,6413 Z"/>
 <text class="TextShape"><tspan class="TextParagraph" font-family="Liberation Sans, sans-serif" font-size="353px" font-weight="400"><tspan class="TextPosition" x="7653" y="2974"><tspan fill="rgb(0,0,0)" stroke="none">Asturias </tspan></tspan></tspan></text>
 <text class="TextShape"><tspan class="TextParagraph" font-family="Liberation Sans, sans-serif" font-size="353px" font-weight="400"><tspan class="TextPosition" x="7653" y="3686"><tspan fill="rgb(0,0,0)" stroke="none">Baleares</tspan></tspan></tspan></text>
 <text class="TextShape"><tspan class="TextParagraph" font-family="Liberation Sans, sans-serif" font-size="353px" font-weight="400"><tspan class="TextPosition" x="7653" y="4398"><tspan fill="rgb(0,0,0)" stroke="none">Canarias</tspan></tspan></tspan></text>
 <text class="TextShape"><tspan class="TextParagraph" font-family="Liberation Sans, sans-serif" font-size="353px" font-weight="400"><tspan class="TextPosition" x="7653" y="5110"><tspan fill="rgb(0,0,0)" stroke="none">Cantabria</tspan></tspan></tspan></text>
 <text class="TextShape"><tspan class="TextParagraph" font-family="Liberation Sans, sans-serif" font-size="353px" font-weight="400"><tspan class="TextPosition" x="7653" y="5822"><tspan fill="rgb(0,0,0)" stroke="none">Murcia</tspan></tspan></tspan></text>
 <text class="TextShape"><tspan class="TextParagraph" font-family="Liberation Sans, sans-serif" font-size="353px" font-weight="400"><tspan class="TextPosition" x="7653" y="6533"><tspan fill="rgb(0,0,0)" stroke="none">La Rioja</tspan></tspan></tspan></text>
</svg>