<?xml version="1.0" encoding="UTF-8"?>
<!DOCTYPE svg PUBLIC "-//W3C//DTD SVG 1.1//EN" "http://www.w3.org/Graphics/SVG/1.1/DTD/svg11.dtd">
<svg width="150mm" height="120mm" viewBox="0 0 15000 12000" version="1.1" xmlns="http://www.w3.org/2000/svg" xmlns:xlink="http://www.w3.org/1999/xlink" stroke-width="28.222" stroke-linejoin="round" xml:space="preserve">
 <path fill="rgb(255,255,255)" stroke="none" d="M 7482,12000 L 0,12000 0,0 14964,0 14964,12000 7482,12000 Z"/>
 <path fill="none" stroke="rgb(179,179,179)" stroke-linejoin="round" d="M 7852,10820 L 1032,10820 1032,1125 14672,1125 14672,10820 7852,10820 Z"/>
 <path fill="none" stroke="rgb(0,0,0)" stroke-linejoin="round" d="M 14672,10819 L 1032,10819"/>
 <path fill="none" stroke="rgb(0,0,0)" stroke-linejoin="round" d="M 14672,9849 L 1032,9849"/>
 <path fill="none" stroke="rgb(0,0,0)" stroke-linejoin="round" d="M 14672,8879 L 1032,8879"/>
 <path fill="none" stroke="rgb(0,0,0)" stroke-linejoin="round" d="M 14672,7910 L 1032,7910"/>
 <path fill="none" stroke="rgb(0,0,0)" stroke-linejoin="round" d="M 14672,6940 L 1032,6940"/>
 <path fill="none" stroke="rgb(0,0,0)" stroke-linejoin="round" d="M 14672,5972 L 1032,5972"/>
 <path fill="none" stroke="rgb(0,0,0)" stroke-linejoin="round" d="M 14672,5002 L 1032,5002"/>
 <path fill="none" stroke="rgb(0,0,0)" stroke-linejoin="round" d="M 14672,4032 L 1032,4032"/>
 <path fill="none" stroke="rgb(0,0,0)" stroke-linejoin="round" d="M 14672,3063 L 1032,3063"/>
 <path fill="none" stroke="rgb(0,0,0)" stroke-linejoin="round" d="M 14672,2093 L 1032,2093"/>
 <path fill="none" stroke="rgb(0,0,0)" stroke-linejoin="round" d="M 14672,1124 L 1032,1124"/>
 <path fill="none" stroke="rgb(179,179,179)" stroke-linejoin="round" d="M 1032,10969 L 1032,10819"/>
 <path fill="none" stroke="rgb(179,179,179)" stroke-linejoin="round" d="M 1032,10969 L 1032,10819"/>
 <path fill="none" stroke="rgb(179,179,179)" stroke-linejoin="round" d="M 2707,10969 L 2707,10819"/>
 <path fill="none" stroke="rgb(179,179,179)" stroke-linejoin="round" d="M 2707,10969 L 2707,10819"/>
 <path fill="none" stroke="rgb(179,179,179)" stroke-linejoin="round" d="M 4382,10969 L 4382,10819"/>
 <path fill="none" stroke="rgb(179,179,179)" stroke-linejoin="round" d="M 4382,10969 L 4382,10819"/>
 <path fill="none" stroke="rgb(179,179,179)" stroke-linejoin="round" d="M 6057,10969 L 6057,10819"/>
 <path fill="none" stroke="rgb(179,179,179)" stroke-linejoin="round" d="M 6057,10969 L 6057,10819"/>
 <path fill="none" stroke="rgb(179,179,179)" stroke-linejoin="round" d="M 7733,10969 L 7733,10819"/>
 <path fill="none" stroke="rgb(179,179,179)" stroke-linejoin="round" d="M 7733,10969 L 7733,10819"/>
 <path fill="none" stroke="rgb(179,179,179)" stroke-linejoin="round" d="M 9407,10969 L 9407,10819"/>
 <path fill="none" stroke="rgb(179,179,179)" stroke-linejoin="round" d="M 9407,10969 L 9407,10819"/>
 <path fill="none" stroke="rgb(179,179,179)" stroke-linejoin="round" d="M 11082,10969 L 11082,10819"/>
 <path fill="none" stroke="rgb(179,179,179)" stroke-linejoin="round" d="M 11082,10969 L 11082,10819"/>
 <path fill="none" stroke="rgb(179,179,179)" stroke-linejoin="round" d="M 12757,10969 L 12757,10819"/>
 <path fill="none" stroke="rgb(179,179,179)" stroke-linejoin="round" d="M 12757,10969 L 12757,10819"/>
 <path fill="none" stroke="rgb(179,179,179)" stroke-linejoin="round" d="M 14433,10969 L 14433,10819"/>
 <path fill="none" stroke="rgb(179,179,179)" stroke-linejoin="round" d="M 14433,10969 L 14433,10819"/>
 <path fill="none" stroke="rgb(179,179,179)" stroke-linejoin="round" d="M 1032,10819 L 14672,10819"/>
 <path fill="none" stroke="rgb(0,0,0)" stroke-linejoin="round" d="M 883,10819 L 1032,10819"/>
 <path fill="none" stroke="rgb(0,0,0)" stroke-linejoin="round" d="M 883,10819 L 1032,10819"/>
 <path fill="none" stroke="rgb(0,0,0)" stroke-linejoin="round" d="M 883,9849 L 1032,9849"/>
 <path fill="none" stroke="rgb(0,0,0)" stroke-linejoin="round" d="M 883,9849 L 1032,9849"/>
 <path fill="none" stroke="rgb(0,0,0)" stroke-linejoin="round" d="M 883,8879 L 1032,8879"/>
 <path fill="none" stroke="rgb(0,0,0)" stroke-linejoin="round" d="M 883,8879 L 1032,8879"/>
 <path fill="none" stroke="rgb(0,0,0)" stroke-linejoin="round" d="M 883,7910 L 1032,7910"/>
 <path fill="none" stroke="rgb(0,0,0)" stroke-linejoin="round" d="M 883,7910 L 1032,7910"/>
 <path fill="none" stroke="rgb(0,0,0)" stroke-linejoin="round" d="M 883,6940 L 1032,6940"/>
 <path fill="none" stroke="rgb(0,0,0)" stroke-linejoin="round" d="M 883,6940 L 1032,6940"/>
 <path fill="none" stroke="rgb(0,0,0)" stroke-linejoin="round" d="M 883,5972 L 1032,5972"/>
 <path fill="none" stroke="rgb(0,0,0)" stroke-linejoin="round" d="M 883,5972 L 1032,5972"/>
 <path fill="none" stroke="rgb(0,0,0)" stroke-linejoin="round" d="M 883,5002 L 1032,5002"/>
 <path fill="none" stroke="rgb(0,0,0)" stroke-linejoin="round" d="M 883,5002 L 1032,5002"/>
 <path fill="none" stroke="rgb(0,0,0)" stroke-linejoin="round" d="M 883,4032 L 1032,4032"/>
 <path fill="none" stroke="rgb(0,0,0)" stroke-linejoin="round" d="M 883,4032 L 1032,4032"/>
 <path fill="none" stroke="rgb(0,0,0)" stroke-linejoin="round" d="M 883,3063 L 1032,3063"/>
 <path fill="none" stroke="rgb(0,0,0)" stroke-linejoin="round" d="M 883,3063 L 1032,3063"/>
 <path fill="none" stroke="rgb(0,0,0)" stroke-linejoin="round" d="M 883,2093 L 1032,2093"/>
 <path fill="none" stroke="rgb(0,0,0)" stroke-linejoin="round" d="M 883,2093 L 1032,2093"/>
 <path fill="none" stroke="rgb(0,0,0)" stroke-linejoin="round" d="M 883,1124 L 1032,1124"/>
 <path fill="none" stroke="rgb(0,0,0)" stroke-linejoin="round" d="M 883,1124 L 1032,1124"/>
 <path fill="none" stroke="rgb(0,0,0)" stroke-linejoin="round" d="M 1032,10819 L 1032,1124"/>
 <path fill="none" stroke="rgb(0,69,134)" stroke-width="50" stroke-linejoin="round" d="M 5459,10806 L 5698,10819 5937,10812 6177,10806 6416,10799 6655,10819 6895,10793 7134,10819 7374,10819 7613,10819 7852,10767 8091,10747 8330,10715 8570,10767 8809,10618 9048,10638 9288,10592 9527,10515 9767,10450 10006,10353 10244,10405 10484,10392 10723,9991 10963,9855 11202,9914 11441,9881 11681,9907 11920,9629 12160,10224 12399,9700 12637,9177 12877,9228 13116,9099 13356,9713 13595,9985 13834,10004 14074,9720 14313,8976 14553,8782"/>
 <path fill="rgb(0,69,134)" stroke="none" d="M 5360,10706 L 5360,10906 5559,10906 5559,10706 5360,10706 Z"/>
 <path fill="none" stroke="rgb(0,69,134)" stroke-linejoin="round" d="M 5360,10706 L 5360,10906 5559,10906 5559,10706 5360,10706 Z"/>
 <path fill="rgb(0,69,134)" stroke="none" d="M 5598,10719 L 5598,10919 5798,10919 5798,10719 5598,10719 Z"/>
 <path fill="none" stroke="rgb(0,69,134)" stroke-linejoin="round" d="M 5598,10719 L 5598,10919 5798,10919 5798,10719 5598,10719 Z"/>
 <path fill="rgb(0,69,134)" stroke="none" d="M 5837,10712 L 5837,10912 6037,10912 6037,10712 5837,10712 Z"/>
 <path fill="none" stroke="rgb(0,69,134)" stroke-linejoin="round" d="M 5837,10712 L 5837,10912 6037,10912 6037,10712 5837,10712 Z"/>
 <path fill="rgb(0,69,134)" stroke="none" d="M 6077,10706 L 6077,10906 6276,10906 6276,10706 6077,10706 Z"/>
 <path fill="none" stroke="rgb(0,69,134)" stroke-linejoin="round" d="M 6077,10706 L 6077,10906 6276,10906 6276,10706 6077,10706 Z"/>
 <path fill="rgb(0,69,134)" stroke="none" d="M 6316,10699 L 6316,10899 6516,10899 6516,10699 6316,10699 Z"/>
 <path fill="none" stroke="rgb(0,69,134)" stroke-linejoin="round" d="M 6316,10699 L 6316,10899 6516,10899 6516,10699 6316,10699 Z"/>
 <path fill="rgb(0,69,134)" stroke="none" d="M 6556,10719 L 6556,10919 6755,10919 6755,10719 6556,10719 Z"/>
 <path fill="none" stroke="rgb(0,69,134)" stroke-linejoin="round" d="M 6556,10719 L 6556,10919 6755,10919 6755,10719 6556,10719 Z"/>
 <path fill="rgb(0,69,134)" stroke="none" d="M 6795,10693 L 6795,10893 6995,10893 6995,10693 6795,10693 Z"/>
 <path fill="none" stroke="rgb(0,69,134)" stroke-linejoin="round" d="M 6795,10693 L 6795,10893 6995,10893 6995,10693 6795,10693 Z"/>
 <path fill="rgb(0,69,134)" stroke="none" d="M 7034,10719 L 7034,10919 7234,10919 7234,10719 7034,10719 Z"/>
 <path fill="none" stroke="rgb(0,69,134)" stroke-linejoin="round" d="M 7034,10719 L 7034,10919 7234,10919 7234,10719 7034,10719 Z"/>
 <path fill="rgb(0,69,134)" stroke="none" d="M 7274,10719 L 7274,10919 7473,10919 7473,10719 7274,10719 Z"/>
 <path fill="none" stroke="rgb(0,69,134)" stroke-linejoin="round" d="M 7274,10719 L 7274,10919 7473,10919 7473,10719 7274,10719 Z"/>
 <path fill="rgb(0,69,134)" stroke="none" d="M 7513,10719 L 7513,10919 7713,10919 7713,10719 7513,10719 Z"/>
 <path fill="none" stroke="rgb(0,69,134)" stroke-linejoin="round" d="M 7513,10719 L 7513,10919 7713,10919 7713,10719 7513,10719 Z"/>
 <path fill="rgb(0,69,134)" stroke="none" d="M 7753,10667 L 7753,10867 7952,10867 7952,10667 7753,10667 Z"/>
 <path fill="none" stroke="rgb(0,69,134)" stroke-linejoin="round" d="M 7753,10667 L 7753,10867 7952,10867 7952,10667 7753,10667 Z"/>
 <path fill="rgb(0,69,134)" stroke="none" d="M 7991,10647 L 7991,10847 8191,10847 8191,10647 7991,10647 Z"/>
 <path fill="none" stroke="rgb(0,69,134)" stroke-linejoin="round" d="M 7991,10647 L 7991,10847 8191,10847 8191,10647 7991,10647 Z"/>
 <path fill="rgb(0,69,134)" stroke="none" d="M 8230,10615 L 8230,10815 8430,10815 8430,10615 8230,10615 Z"/>
 <path fill="none" stroke="rgb(0,69,134)" stroke-linejoin="round" d="M 8230,10615 L 8230,10815 8430,10815 8430,10615 8230,10615 Z"/>
 <path fill="rgb(0,69,134)" stroke="none" d="M 8470,10667 L 8470,10867 8669,10867 8669,10667 8470,10667 Z"/>
 <path fill="none" stroke="rgb(0,69,134)" stroke-linejoin="round" d="M 8470,10667 L 8470,10867 8669,10867 8669,10667 8470,10667 Z"/>
 <path fill="rgb(0,69,134)" stroke="none" d="M 8709,10518 L 8709,10718 8909,10718 8909,10518 8709,10518 Z"/>
 <path fill="none" stroke="rgb(0,69,134)" stroke-linejoin="round" d="M 8709,10518 L 8709,10718 8909,10718 8909,10518 8709,10518 Z"/>
 <path fill="rgb(0,69,134)" stroke="none" d="M 8949,10538 L 8949,10738 9148,10738 9148,10538 8949,10538 Z"/>
 <path fill="none" stroke="rgb(0,69,134)" stroke-linejoin="round" d="M 8949,10538 L 8949,10738 9148,10738 9148,10538 8949,10538 Z"/>
 <path fill="rgb(0,69,134)" stroke="none" d="M 9188,10492 L 9188,10692 9388,10692 9388,10492 9188,10492 Z"/>
 <path fill="none" stroke="rgb(0,69,134)" stroke-linejoin="round" d="M 9188,10492 L 9188,10692 9388,10692 9388,10492 9188,10492 Z"/>
 <path fill="rgb(0,69,134)" stroke="none" d="M 9427,10415 L 9427,10615 9627,10615 9627,10415 9427,10415 Z"/>
 <path fill="none" stroke="rgb(0,69,134)" stroke-linejoin="round" d="M 9427,10415 L 9427,10615 9627,10615 9627,10415 9427,10415 Z"/>
 <path fill="rgb(0,69,134)" stroke="none" d="M 9667,10350 L 9667,10550 9866,10550 9866,10350 9667,10350 Z"/>
 <path fill="none" stroke="rgb(0,69,134)" stroke-linejoin="round" d="M 9667,10350 L 9667,10550 9866,10550 9866,10350 9667,10350 Z"/>
 <path fill="rgb(0,69,134)" stroke="none" d="M 9906,10253 L 9906,10453 10106,10453 10106,10253 9906,10253 Z"/>
 <path fill="none" stroke="rgb(0,69,134)" stroke-linejoin="round" d="M 9906,10253 L 9906,10453 10106,10453 10106,10253 9906,10253 Z"/>
 <path fill="rgb(0,69,134)" stroke="none" d="M 10145,10305 L 10145,10505 10344,10505 10344,10305 10145,10305 Z"/>
 <path fill="none" stroke="rgb(0,69,134)" stroke-linejoin="round" d="M 10145,10305 L 10145,10505 10344,10505 10344,10305 10145,10305 Z"/>
 <path fill="rgb(0,69,134)" stroke="none" d="M 10384,10292 L 10384,10492 10584,10492 10584,10292 10384,10292 Z"/>
 <path fill="none" stroke="rgb(0,69,134)" stroke-linejoin="round" d="M 10384,10292 L 10384,10492 10584,10492 10584,10292 10384,10292 Z"/>
 <path fill="rgb(0,69,134)" stroke="none" d="M 10623,9891 L 10623,10091 10823,10091 10823,9891 10623,9891 Z"/>
 <path fill="none" stroke="rgb(0,69,134)" stroke-linejoin="round" d="M 10623,9891 L 10623,10091 10823,10091 10823,9891 10623,9891 Z"/>
 <path fill="rgb(0,69,134)" stroke="none" d="M 10863,9755 L 10863,9955 11062,9955 11062,9755 10863,9755 Z"/>
 <path fill="none" stroke="rgb(0,69,134)" stroke-linejoin="round" d="M 10863,9755 L 10863,9955 11062,9955 11062,9755 10863,9755 Z"/>
 <path fill="rgb(0,69,134)" stroke="none" d="M 11102,9814 L 11102,10014 11302,10014 11302,9814 11102,9814 Z"/>
 <path fill="none" stroke="rgb(0,69,134)" stroke-linejoin="round" d="M 11102,9814 L 11102,10014 11302,10014 11302,9814 11102,9814 Z"/>
 <path fill="rgb(0,69,134)" stroke="none" d="M 11342,9781 L 11342,9981 11541,9981 11541,9781 11342,9781 Z"/>
 <path fill="none" stroke="rgb(0,69,134)" stroke-linejoin="round" d="M 11342,9781 L 11342,9981 11541,9981 11541,9781 11342,9781 Z"/>
 <path fill="rgb(0,69,134)" stroke="none" d="M 11581,9807 L 11581,10007 11781,10007 11781,9807 11581,9807 Z"/>
 <path fill="none" stroke="rgb(0,69,134)" stroke-linejoin="round" d="M 11581,9807 L 11581,10007 11781,10007 11781,9807 11581,9807 Z"/>
 <path fill="rgb(0,69,134)" stroke="none" d="M 11820,9529 L 11820,9729 12020,9729 12020,9529 11820,9529 Z"/>
 <path fill="none" stroke="rgb(0,69,134)" stroke-linejoin="round" d="M 11820,9529 L 11820,9729 12020,9729 12020,9529 11820,9529 Z"/>
 <path fill="rgb(0,69,134)" stroke="none" d="M 12060,10124 L 12060,10324 12259,10324 12259,10124 12060,10124 Z"/>
 <path fill="none" stroke="rgb(0,69,134)" stroke-linejoin="round" d="M 12060,10124 L 12060,10324 12259,10324 12259,10124 12060,10124 Z"/>
 <path fill="rgb(0,69,134)" stroke="none" d="M 12299,9600 L 12299,9800 12499,9800 12499,9600 12299,9600 Z"/>
 <path fill="none" stroke="rgb(0,69,134)" stroke-linejoin="round" d="M 12299,9600 L 12299,9800 12499,9800 12499,9600 12299,9600 Z"/>
 <path fill="rgb(0,69,134)" stroke="none" d="M 12538,9077 L 12538,9277 12737,9277 12737,9077 12538,9077 Z"/>
 <path fill="none" stroke="rgb(0,69,134)" stroke-linejoin="round" d="M 12538,9077 L 12538,9277 12737,9277 12737,9077 12538,9077 Z"/>
 <path fill="rgb(0,69,134)" stroke="none" d="M 12777,9128 L 12777,9328 12977,9328 12977,9128 12777,9128 Z"/>
 <path fill="none" stroke="rgb(0,69,134)" stroke-linejoin="round" d="M 12777,9128 L 12777,9328 12977,9328 12977,9128 12777,9128 Z"/>
 <path fill="rgb(0,69,134)" stroke="none" d="M 13016,8999 L 13016,9199 13216,9199 13216,8999 13016,8999 Z"/>
 <path fill="none" stroke="rgb(0,69,134)" stroke-linejoin="round" d="M 13016,8999 L 13016,9199 13216,9199 13216,8999 13016,8999 Z"/>
 <path fill="rgb(0,69,134)" stroke="none" d="M 13256,9613 L 13256,9813 13455,9813 13455,9613 13256,9613 Z"/>
 <path fill="none" stroke="rgb(0,69,134)" stroke-linejoin="round" d="M 13256,9613 L 13256,9813 13455,9813 13455,9613 13256,9613 Z"/>
 <path fill="rgb(0,69,134)" stroke="none" d="M 13495,9885 L 13495,10085 13695,10085 13695,9885 13495,9885 Z"/>
 <path fill="none" stroke="rgb(0,69,134)" stroke-linejoin="round" d="M 13495,9885 L 13495,10085 13695,10085 13695,9885 13495,9885 Z"/>
 <path fill="rgb(0,69,134)" stroke="none" d="M 13735,9904 L 13735,10104 13934,10104 13934,9904 13735,9904 Z"/>
 <path fill="none" stroke="rgb(0,69,134)" stroke-linejoin="round" d="M 13735,9904 L 13735,10104 13934,10104 13934,9904 13735,9904 Z"/>
 <path fill="rgb(0,69,134)" stroke="none" d="M 13974,9620 L 13974,9820 14174,9820 14174,9620 13974,9620 Z"/>
 <path fill="none" stroke="rgb(0,69,134)" stroke-linejoin="round" d="M 13974,9620 L 13974,9820 14174,9820 14174,9620 13974,9620 Z"/>
 <path fill="rgb(0,69,134)" stroke="none" d="M 14213,8876 L 14213,9076 14413,9076 14413,8876 14213,8876 Z"/>
 <path fill="none" stroke="rgb(0,69,134)" stroke-linejoin="round" d="M 14213,8876 L 14213,9076 14413,9076 14413,8876 14213,8876 Z"/>
 <path fill="rgb(0,69,134)" stroke="none" d="M 14453,8682 L 14453,8882 14652,8882 14652,8682 14453,8682 Z"/>
 <path fill="none" stroke="rgb(0,69,134)" stroke-linejoin="round" d="M 14453,8682 L 14453,8882 14652,8882 14652,8682 14453,8682 Z"/>
 <path fill="none" stroke="rgb(255,66,14)" stroke-width="50" stroke-linejoin="round" d="M 5698,10812 L 5937,10806 6177,10819 6416,10819 6655,10812 6895,10819 7134,10812 7374,10819 7613,10760 7852,10773 8091,10715 8330,10625 8570,10767 8809,10734 9048,10599 9288,10457 9527,10547 9767,10372 10006,10405 10244,10314 10484,10288 10723,9577 10963,10023 11202,9636 11441,9965 11681,9914 11920,9758 12160,9623 12399,8214 12637,9493 12877,8989 13116,7612 13356,8705 13595,9177 13834,8860 14074,9177 14313,8989 14553,8123"/>
 <path fill="rgb(255,66,14)" stroke="none" d="M 5598,10812 L 5698,10912 5798,10812 5698,10712 5598,10812 Z"/>
 <path fill="none" stroke="rgb(255,66,14)" stroke-linejoin="round" d="M 5598,10812 L 5698,10912 5798,10812 5698,10712 5598,10812 Z"/>
 <path fill="rgb(255,66,14)" stroke="none" d="M 5837,10806 L 5937,10906 6037,10806 5937,10706 5837,10806 Z"/>
 <path fill="none" stroke="rgb(255,66,14)" stroke-linejoin="round" d="M 5837,10806 L 5937,10906 6037,10806 5937,10706 5837,10806 Z"/>
 <path fill="rgb(255,66,14)" stroke="none" d="M 6077,10819 L 6177,10919 6276,10819 6177,10719 6077,10819 Z"/>
 <path fill="none" stroke="rgb(255,66,14)" stroke-linejoin="round" d="M 6077,10819 L 6177,10919 6276,10819 6177,10719 6077,10819 Z"/>
 <path fill="rgb(255,66,14)" stroke="none" d="M 6316,10819 L 6416,10919 6516,10819 6416,10719 6316,10819 Z"/>
 <path fill="none" stroke="rgb(255,66,14)" stroke-linejoin="round" d="M 6316,10819 L 6416,10919 6516,10819 6416,10719 6316,10819 Z"/>
 <path fill="rgb(255,66,14)" stroke="none" d="M 6556,10812 L 6655,10912 6755,10812 6655,10712 6556,10812 Z"/>
 <path fill="none" stroke="rgb(255,66,14)" stroke-linejoin="round" d="M 6556,10812 L 6655,10912 6755,10812 6655,10712 6556,10812 Z"/>
 <path fill="rgb(255,66,14)" stroke="none" d="M 6795,10819 L 6895,10919 6995,10819 6895,10719 6795,10819 Z"/>
 <path fill="none" stroke="rgb(255,66,14)" stroke-linejoin="round" d="M 6795,10819 L 6895,10919 6995,10819 6895,10719 6795,10819 Z"/>
 <path fill="rgb(255,66,14)" stroke="none" d="M 7034,10812 L 7134,10912 7234,10812 7134,10712 7034,10812 Z"/>
 <path fill="none" stroke="rgb(255,66,14)" stroke-linejoin="round" d="M 7034,10812 L 7134,10912 7234,10812 7134,10712 7034,10812 Z"/>
 <path fill="rgb(255,66,14)" stroke="none" d="M 7274,10819 L 7374,10919 7473,10819 7374,10719 7274,10819 Z"/>
 <path fill="none" stroke="rgb(255,66,14)" stroke-linejoin="round" d="M 7274,10819 L 7374,10919 7473,10819 7374,10719 7274,10819 Z"/>
 <path fill="rgb(255,66,14)" stroke="none" d="M 7513,10760 L 7613,10860 7713,10760 7613,10660 7513,10760 Z"/>
 <path fill="none" stroke="rgb(255,66,14)" stroke-linejoin="round" d="M 7513,10760 L 7613,10860 7713,10760 7613,10660 7513,10760 Z"/>
 <path fill="rgb(255,66,14)" stroke="none" d="M 7753,10773 L 7852,10873 7952,10773 7852,10673 7753,10773 Z"/>
 <path fill="none" stroke="rgb(255,66,14)" stroke-linejoin="round" d="M 7753,10773 L 7852,10873 7952,10773 7852,10673 7753,10773 Z"/>
 <path fill="rgb(255,66,14)" stroke="none" d="M 7991,10715 L 8091,10815 8191,10715 8091,10615 7991,10715 Z"/>
 <path fill="none" stroke="rgb(255,66,14)" stroke-linejoin="round" d="M 7991,10715 L 8091,10815 8191,10715 8091,10615 7991,10715 Z"/>
 <path fill="rgb(255,66,14)" stroke="none" d="M 8230,10625 L 8330,10725 8430,10625 8330,10525 8230,10625 Z"/>
 <path fill="none" stroke="rgb(255,66,14)" stroke-linejoin="round" d="M 8230,10625 L 8330,10725 8430,10625 8330,10525 8230,10625 Z"/>
 <path fill="rgb(255,66,14)" stroke="none" d="M 8470,10767 L 8570,10867 8669,10767 8570,10667 8470,10767 Z"/>
 <path fill="none" stroke="rgb(255,66,14)" stroke-linejoin="round" d="M 8470,10767 L 8570,10867 8669,10767 8570,10667 8470,10767 Z"/>
 <path fill="rgb(255,66,14)" stroke="none" d="M 8709,10734 L 8809,10834 8909,10734 8809,10634 8709,10734 Z"/>
 <path fill="none" stroke="rgb(255,66,14)" stroke-linejoin="round" d="M 8709,10734 L 8809,10834 8909,10734 8809,10634 8709,10734 Z"/>
 <path fill="rgb(255,66,14)" stroke="none" d="M 8949,10599 L 9048,10699 9148,10599 9048,10499 8949,10599 Z"/>
 <path fill="none" stroke="rgb(255,66,14)" stroke-linejoin="round" d="M 8949,10599 L 9048,10699 9148,10599 9048,10499 8949,10599 Z"/>
 <path fill="rgb(255,66,14)" stroke="none" d="M 9188,10457 L 9288,10557 9388,10457 9288,10357 9188,10457 Z"/>
 <path fill="none" stroke="rgb(255,66,14)" stroke-linejoin="round" d="M 9188,10457 L 9288,10557 9388,10457 9288,10357 9188,10457 Z"/>
 <path fill="rgb(255,66,14)" stroke="none" d="M 9427,10547 L 9527,10647 9627,10547 9527,10447 9427,10547 Z"/>
 <path fill="none" stroke="rgb(255,66,14)" stroke-linejoin="round" d="M 9427,10547 L 9527,10647 9627,10547 9527,10447 9427,10547 Z"/>
 <path fill="rgb(255,66,14)" stroke="none" d="M 9667,10372 L 9767,10472 9866,10372 9767,10272 9667,10372 Z"/>
 <path fill="none" stroke="rgb(255,66,14)" stroke-linejoin="round" d="M 9667,10372 L 9767,10472 9866,10372 9767,10272 9667,10372 Z"/>
 <path fill="rgb(255,66,14)" stroke="none" d="M 9906,10405 L 10006,10505 10106,10405 10006,10305 9906,10405 Z"/>
 <path fill="none" stroke="rgb(255,66,14)" stroke-linejoin="round" d="M 9906,10405 L 10006,10505 10106,10405 10006,10305 9906,10405 Z"/>
 <path fill="rgb(255,66,14)" stroke="none" d="M 10145,10314 L 10244,10414 10344,10314 10244,10214 10145,10314 Z"/>
 <path fill="none" stroke="rgb(255,66,14)" stroke-linejoin="round" d="M 10145,10314 L 10244,10414 10344,10314 10244,10214 10145,10314 Z"/>
 <path fill="rgb(255,66,14)" stroke="none" d="M 10384,10288 L 10484,10388 10584,10288 10484,10188 10384,10288 Z"/>
 <path fill="none" stroke="rgb(255,66,14)" stroke-linejoin="round" d="M 10384,10288 L 10484,10388 10584,10288 10484,10188 10384,10288 Z"/>
 <path fill="rgb(255,66,14)" stroke="none" d="M 10623,9577 L 10723,9677 10823,9577 10723,9477 10623,9577 Z"/>
 <path fill="none" stroke="rgb(255,66,14)" stroke-linejoin="round" d="M 10623,9577 L 10723,9677 10823,9577 10723,9477 10623,9577 Z"/>
 <path fill="rgb(255,66,14)" stroke="none" d="M 10863,10023 L 10963,10123 11062,10023 10963,9923 10863,10023 Z"/>
 <path fill="none" stroke="rgb(255,66,14)" stroke-linejoin="round" d="M 10863,10023 L 10963,10123 11062,10023 10963,9923 10863,10023 Z"/>
 <path fill="rgb(255,66,14)" stroke="none" d="M 11102,9636 L 11202,9736 11302,9636 11202,9536 11102,9636 Z"/>
 <path fill="none" stroke="rgb(255,66,14)" stroke-linejoin="round" d="M 11102,9636 L 11202,9736 11302,9636 11202,9536 11102,9636 Z"/>
 <path fill="rgb(255,66,14)" stroke="none" d="M 11342,9965 L 11441,10065 11541,9965 11441,9865 11342,9965 Z"/>
 <path fill="none" stroke="rgb(255,66,14)" stroke-linejoin="round" d="M 11342,9965 L 11441,10065 11541,9965 11441,9865 11342,9965 Z"/>
 <path fill="rgb(255,66,14)" stroke="none" d="M 11581,9914 L 11681,10014 11781,9914 11681,9814 11581,9914 Z"/>
 <path fill="none" stroke="rgb(255,66,14)" stroke-linejoin="round" d="M 11581,9914 L 11681,10014 11781,9914 11681,9814 11581,9914 Z"/>
 <path fill="rgb(255,66,14)" stroke="none" d="M 11820,9758 L 11920,9858 12020,9758 11920,9658 11820,9758 Z"/>
 <path fill="none" stroke="rgb(255,66,14)" stroke-linejoin="round" d="M 11820,9758 L 11920,9858 12020,9758 11920,9658 11820,9758 Z"/>
 <path fill="rgb(255,66,14)" stroke="none" d="M 12060,9623 L 12160,9723 12259,9623 12160,9523 12060,9623 Z"/>
 <path fill="none" stroke="rgb(255,66,14)" stroke-linejoin="round" d="M 12060,9623 L 12160,9723 12259,9623 12160,9523 12060,9623 Z"/>
 <path fill="rgb(255,66,14)" stroke="none" d="M 12299,8214 L 12399,8314 12499,8214 12399,8114 12299,8214 Z"/>
 <path fill="none" stroke="rgb(255,66,14)" stroke-linejoin="round" d="M 12299,8214 L 12399,8314 12499,8214 12399,8114 12299,8214 Z"/>
 <path fill="rgb(255,66,14)" stroke="none" d="M 12538,9493 L 12637,9593 12737,9493 12637,9393 12538,9493 Z"/>
 <path fill="none" stroke="rgb(255,66,14)" stroke-linejoin="round" d="M 12538,9493 L 12637,9593 12737,9493 12637,9393 12538,9493 Z"/>
 <path fill="rgb(255,66,14)" stroke="none" d="M 12777,8989 L 12877,9089 12977,8989 12877,8889 12777,8989 Z"/>
 <path fill="none" stroke="rgb(255,66,14)" stroke-linejoin="round" d="M 12777,8989 L 12877,9089 12977,8989 12877,8889 12777,8989 Z"/>
 <path fill="rgb(255,66,14)" stroke="none" d="M 13016,7612 L 13116,7712 13216,7612 13116,7512 13016,7612 Z"/>
 <path fill="none" stroke="rgb(255,66,14)" stroke-linejoin="round" d="M 13016,7612 L 13116,7712 13216,7612 13116,7512 13016,7612 Z"/>
 <path fill="rgb(255,66,14)" stroke="none" d="M 13256,8705 L 13356,8805 13455,8705 13356,8605 13256,8705 Z"/>
 <path fill="none" stroke="rgb(255,66,14)" stroke-linejoin="round" d="M 13256,8705 L 13356,8805 13455,8705 13356,8605 13256,8705 Z"/>
 <path fill="rgb(255,66,14)" stroke="none" d="M 13495,9177 L 13595,9277 13695,9177 13595,9077 13495,9177 Z"/>
 <path fill="none" stroke="rgb(255,66,14)" stroke-linejoin="round" d="M 13495,9177 L 13595,9277 13695,9177 13595,9077 13495,9177 Z"/>
 <path fill="rgb(255,66,14)" stroke="none" d="M 13735,8860 L 13834,8960 13934,8860 13834,8760 13735,8860 Z"/>
 <path fill="none" stroke="rgb(255,66,14)" stroke-linejoin="round" d="M 13735,8860 L 13834,8960 13934,8860 13834,8760 13735,8860 Z"/>
 <path fill="rgb(255,66,14)" stroke="none" d="M 13974,9177 L 14074,9277 14174,9177 14074,9077 13974,9177 Z"/>
 <path fill="none" stroke="rgb(255,66,14)" stroke-linejoin="round" d="M 13974,9177 L 14074,9277 14174,9177 14074,9077 13974,9177 Z"/>
 <path fill="rgb(255,66,14)" stroke="none" d="M 14213,8989 L 14313,9089 14413,8989 14313,8889 14213,8989 Z"/>
 <path fill="none" stroke="rgb(255,66,14)" stroke-linejoin="round" d="M 14213,8989 L 14313,9089 14413,8989 14313,8889 14213,8989 Z"/>
 <path fill="rgb(255,66,14)" stroke="none" d="M 14453,8123 L 14553,8223 14652,8123 14553,8023 14453,8123 Z"/>
 <path fill="none" stroke="rgb(255,66,14)" stroke-linejoin="round" d="M 14453,8123 L 14553,8223 14652,8123 14553,8023 14453,8123 Z"/>
 <path fill="none" stroke="rgb(255,211,32)" stroke-width="50" stroke-linejoin="round" d="M 4502,10806 L 4741,10806 4981,10799 5220,10806 5459,10780 5698,10696 5937,10741 6177,10579 6416,10599 6655,10702 6895,9836 7134,10683 7374,9642 7613,10127 7852,9726 8091,9299 8330,8724 8570,8272 8809,7832 9048,7561 9288,5984 9527,6585 9767,5849 10006,5441 10244,5403 10484,5571 10723,5332 10963,5235 11202,4679 11441,4795 11681,5590 11920,6462 12160,6701 12399,6016 12637,5926 12877,6404 13116,6908 13356,7522 13595,6817 13834,7477 14074,7153 14313,7438 14553,7257"/>
 <path fill="rgb(255,211,32)" stroke="none" d="M 4402,10706 L 4502,10906 4601,10706 4402,10706 Z"/>
 <path fill="none" stroke="rgb(255,211,32)" stroke-linejoin="round" d="M 4402,10706 L 4502,10906 4601,10706 4402,10706 Z"/>
 <path fill="rgb(255,211,32)" stroke="none" d="M 4641,10706 L 4741,10906 4841,10706 4641,10706 Z"/>
 <path fill="none" stroke="rgb(255,211,32)" stroke-linejoin="round" d="M 4641,10706 L 4741,10906 4841,10706 4641,10706 Z"/>
 <path fill="rgb(255,211,32)" stroke="none" d="M 4881,10699 L 4981,10899 5080,10699 4881,10699 Z"/>
 <path fill="none" stroke="rgb(255,211,32)" stroke-linejoin="round" d="M 4881,10699 L 4981,10899 5080,10699 4881,10699 Z"/>
 <path fill="rgb(255,211,32)" stroke="none" d="M 5120,10706 L 5220,10906 5320,10706 5120,10706 Z"/>
 <path fill="none" stroke="rgb(255,211,32)" stroke-linejoin="round" d="M 5120,10706 L 5220,10906 5320,10706 5120,10706 Z"/>
 <path fill="rgb(255,211,32)" stroke="none" d="M 5360,10680 L 5459,10880 5559,10680 5360,10680 Z"/>
 <path fill="none" stroke="rgb(255,211,32)" stroke-linejoin="round" d="M 5360,10680 L 5459,10880 5559,10680 5360,10680 Z"/>
 <path fill="rgb(255,211,32)" stroke="none" d="M 5598,10596 L 5698,10796 5798,10596 5598,10596 Z"/>
 <path fill="none" stroke="rgb(255,211,32)" stroke-linejoin="round" d="M 5598,10596 L 5698,10796 5798,10596 5598,10596 Z"/>
 <path fill="rgb(255,211,32)" stroke="none" d="M 5837,10641 L 5937,10841 6037,10641 5837,10641 Z"/>
 <path fill="none" stroke="rgb(255,211,32)" stroke-linejoin="round" d="M 5837,10641 L 5937,10841 6037,10641 5837,10641 Z"/>
 <path fill="rgb(255,211,32)" stroke="none" d="M 6077,10479 L 6177,10679 6276,10479 6077,10479 Z"/>
 <path fill="none" stroke="rgb(255,211,32)" stroke-linejoin="round" d="M 6077,10479 L 6177,10679 6276,10479 6077,10479 Z"/>
 <path fill="rgb(255,211,32)" stroke="none" d="M 6316,10499 L 6416,10699 6516,10499 6316,10499 Z"/>
 <path fill="none" stroke="rgb(255,211,32)" stroke-linejoin="round" d="M 6316,10499 L 6416,10699 6516,10499 6316,10499 Z"/>
 <path fill="rgb(255,211,32)" stroke="none" d="M 6556,10602 L 6655,10802 6755,10602 6556,10602 Z"/>
 <path fill="none" stroke="rgb(255,211,32)" stroke-linejoin="round" d="M 6556,10602 L 6655,10802 6755,10602 6556,10602 Z"/>
 <path fill="rgb(255,211,32)" stroke="none" d="M 6795,9736 L 6895,9936 6995,9736 6795,9736 Z"/>
 <path fill="none" stroke="rgb(255,211,32)" stroke-linejoin="round" d="M 6795,9736 L 6895,9936 6995,9736 6795,9736 Z"/>
 <path fill="rgb(255,211,32)" stroke="none" d="M 7034,10583 L 7134,10783 7234,10583 7034,10583 Z"/>
 <path fill="none" stroke="rgb(255,211,32)" stroke-linejoin="round" d="M 7034,10583 L 7134,10783 7234,10583 7034,10583 Z"/>
 <path fill="rgb(255,211,32)" stroke="none" d="M 7274,9542 L 7374,9742 7473,9542 7274,9542 Z"/>
 <path fill="none" stroke="rgb(255,211,32)" stroke-linejoin="round" d="M 7274,9542 L 7374,9742 7473,9542 7274,9542 Z"/>
 <path fill="rgb(255,211,32)" stroke="none" d="M 7513,10027 L 7613,10227 7713,10027 7513,10027 Z"/>
 <path fill="none" stroke="rgb(255,211,32)" stroke-linejoin="round" d="M 7513,10027 L 7613,10227 7713,10027 7513,10027 Z"/>
 <path fill="rgb(255,211,32)" stroke="none" d="M 7753,9626 L 7852,9826 7952,9626 7753,9626 Z"/>
 <path fill="none" stroke="rgb(255,211,32)" stroke-linejoin="round" d="M 7753,9626 L 7852,9826 7952,9626 7753,9626 Z"/>
 <path fill="rgb(255,211,32)" stroke="none" d="M 7991,9199 L 8091,9399 8191,9199 7991,9199 Z"/>
 <path fill="none" stroke="rgb(255,211,32)" stroke-linejoin="round" d="M 7991,9199 L 8091,9399 8191,9199 7991,9199 Z"/>
 <path fill="rgb(255,211,32)" stroke="none" d="M 8230,8624 L 8330,8824 8430,8624 8230,8624 Z"/>
 <path fill="none" stroke="rgb(255,211,32)" stroke-linejoin="round" d="M 8230,8624 L 8330,8824 8430,8624 8230,8624 Z"/>
 <path fill="rgb(255,211,32)" stroke="none" d="M 8470,8172 L 8570,8372 8669,8172 8470,8172 Z"/>
 <path fill="none" stroke="rgb(255,211,32)" stroke-linejoin="round" d="M 8470,8172 L 8570,8372 8669,8172 8470,8172 Z"/>
 <path fill="rgb(255,211,32)" stroke="none" d="M 8709,7732 L 8809,7932 8909,7732 8709,7732 Z"/>
 <path fill="none" stroke="rgb(255,211,32)" stroke-linejoin="round" d="M 8709,7732 L 8809,7932 8909,7732 8709,7732 Z"/>
 <path fill="rgb(255,211,32)" stroke="none" d="M 8949,7461 L 9048,7661 9148,7461 8949,7461 Z"/>
 <path fill="none" stroke="rgb(255,211,32)" stroke-linejoin="round" d="M 8949,7461 L 9048,7661 9148,7461 8949,7461 Z"/>
 <path fill="rgb(255,211,32)" stroke="none" d="M 9188,5884 L 9288,6083 9388,5884 9188,5884 Z"/>
 <path fill="none" stroke="rgb(255,211,32)" stroke-linejoin="round" d="M 9188,5884 L 9288,6083 9388,5884 9188,5884 Z"/>
 <path fill="rgb(255,211,32)" stroke="none" d="M 9427,6485 L 9527,6685 9627,6485 9427,6485 Z"/>
 <path fill="none" stroke="rgb(255,211,32)" stroke-linejoin="round" d="M 9427,6485 L 9527,6685 9627,6485 9427,6485 Z"/>
 <path fill="rgb(255,211,32)" stroke="none" d="M 9667,5749 L 9767,5949 9866,5749 9667,5749 Z"/>
 <path fill="none" stroke="rgb(255,211,32)" stroke-linejoin="round" d="M 9667,5749 L 9767,5949 9866,5749 9667,5749 Z"/>
 <path fill="rgb(255,211,32)" stroke="none" d="M 9906,5341 L 10006,5541 10106,5341 9906,5341 Z"/>
 <path fill="none" stroke="rgb(255,211,32)" stroke-linejoin="round" d="M 9906,5341 L 10006,5541 10106,5341 9906,5341 Z"/>
 <path fill="rgb(255,211,32)" stroke="none" d="M 10145,5303 L 10244,5503 10344,5303 10145,5303 Z"/>
 <path fill="none" stroke="rgb(255,211,32)" stroke-linejoin="round" d="M 10145,5303 L 10244,5503 10344,5303 10145,5303 Z"/>
 <path fill="rgb(255,211,32)" stroke="none" d="M 10384,5471 L 10484,5671 10584,5471 10384,5471 Z"/>
 <path fill="none" stroke="rgb(255,211,32)" stroke-linejoin="round" d="M 10384,5471 L 10484,5671 10584,5471 10384,5471 Z"/>
 <path fill="rgb(255,211,32)" stroke="none" d="M 10623,5232 L 10723,5432 10823,5232 10623,5232 Z"/>
 <path fill="none" stroke="rgb(255,211,32)" stroke-linejoin="round" d="M 10623,5232 L 10723,5432 10823,5232 10623,5232 Z"/>
 <path fill="rgb(255,211,32)" stroke="none" d="M 10863,5135 L 10963,5335 11062,5135 10863,5135 Z"/>
 <path fill="none" stroke="rgb(255,211,32)" stroke-linejoin="round" d="M 10863,5135 L 10963,5335 11062,5135 10863,5135 Z"/>
 <path fill="rgb(255,211,32)" stroke="none" d="M 11102,4579 L 11202,4779 11302,4579 11102,4579 Z"/>
 <path fill="none" stroke="rgb(255,211,32)" stroke-linejoin="round" d="M 11102,4579 L 11202,4779 11302,4579 11102,4579 Z"/>
 <path fill="rgb(255,211,32)" stroke="none" d="M 11342,4695 L 11441,4895 11541,4695 11342,4695 Z"/>
 <path fill="none" stroke="rgb(255,211,32)" stroke-linejoin="round" d="M 11342,4695 L 11441,4895 11541,4695 11342,4695 Z"/>
 <path fill="rgb(255,211,32)" stroke="none" d="M 11581,5490 L 11681,5690 11781,5490 11581,5490 Z"/>
 <path fill="none" stroke="rgb(255,211,32)" stroke-linejoin="round" d="M 11581,5490 L 11681,5690 11781,5490 11581,5490 Z"/>
 <path fill="rgb(255,211,32)" stroke="none" d="M 11820,6362 L 11920,6562 12020,6362 11820,6362 Z"/>
 <path fill="none" stroke="rgb(255,211,32)" stroke-linejoin="round" d="M 11820,6362 L 11920,6562 12020,6362 11820,6362 Z"/>
 <path fill="rgb(255,211,32)" stroke="none" d="M 12060,6601 L 12160,6801 12259,6601 12060,6601 Z"/>
 <path fill="none" stroke="rgb(255,211,32)" stroke-linejoin="round" d="M 12060,6601 L 12160,6801 12259,6601 12060,6601 Z"/>
 <path fill="rgb(255,211,32)" stroke="none" d="M 12299,5917 L 12399,6116 12499,5917 12299,5917 Z"/>
 <path fill="none" stroke="rgb(255,211,32)" stroke-linejoin="round" d="M 12299,5917 L 12399,6116 12499,5917 12299,5917 Z"/>
 <path fill="rgb(255,211,32)" stroke="none" d="M 12538,5826 L 12637,6025 12737,5826 12538,5826 Z"/>
 <path fill="none" stroke="rgb(255,211,32)" stroke-linejoin="round" d="M 12538,5826 L 12637,6025 12737,5826 12538,5826 Z"/>
 <path fill="rgb(255,211,32)" stroke="none" d="M 12777,6304 L 12877,6504 12977,6304 12777,6304 Z"/>
 <path fill="none" stroke="rgb(255,211,32)" stroke-linejoin="round" d="M 12777,6304 L 12877,6504 12977,6304 12777,6304 Z"/>
 <path fill="rgb(255,211,32)" stroke="none" d="M 13016,6808 L 13116,7008 13216,6808 13016,6808 Z"/>
 <path fill="none" stroke="rgb(255,211,32)" stroke-linejoin="round" d="M 13016,6808 L 13116,7008 13216,6808 13016,6808 Z"/>
 <path fill="rgb(255,211,32)" stroke="none" d="M 13256,7422 L 13356,7622 13455,7422 13256,7422 Z"/>
 <path fill="none" stroke="rgb(255,211,32)" stroke-linejoin="round" d="M 13256,7422 L 13356,7622 13455,7422 13256,7422 Z"/>
 <path fill="rgb(255,211,32)" stroke="none" d="M 13495,6717 L 13595,6917 13695,6717 13495,6717 Z"/>
 <path fill="none" stroke="rgb(255,211,32)" stroke-linejoin="round" d="M 13495,6717 L 13595,6917 13695,6717 13495,6717 Z"/>
 <path fill="rgb(255,211,32)" stroke="none" d="M 13735,7377 L 13834,7577 13934,7377 13735,7377 Z"/>
 <path fill="none" stroke="rgb(255,211,32)" stroke-linejoin="round" d="M 13735,7377 L 13834,7577 13934,7377 13735,7377 Z"/>
 <path fill="rgb(255,211,32)" stroke="none" d="M 13974,7053 L 14074,7253 14174,7053 13974,7053 Z"/>
 <path fill="none" stroke="rgb(255,211,32)" stroke-linejoin="round" d="M 13974,7053 L 14074,7253 14174,7053 13974,7053 Z"/>
 <path fill="rgb(255,211,32)" stroke="none" d="M 14213,7338 L 14313,7538 14413,7338 14213,7338 Z"/>
 <path fill="none" stroke="rgb(255,211,32)" stroke-linejoin="round" d="M 14213,7338 L 14313,7538 14413,7338 14213,7338 Z"/>
 <path fill="rgb(255,211,32)" stroke="none" d="M 14453,7157 L 14553,7357 14652,7157 14453,7157 Z"/>
 <path fill="none" stroke="rgb(255,211,32)" stroke-linejoin="round" d="M 14453,7157 L 14553,7357 14652,7157 14453,7157 Z"/>
 <path fill="none" stroke="rgb(87,157,28)" stroke-width="50" stroke-linejoin="round" d="M 1391,10812 L 1630,10819 1869,10819 2109,10819 2348,10819 2588,10812 2827,10819 3066,10819 3306,10819 3544,10819 3784,10812 4023,10812 4262,10819 4502,10799 4741,10806 4981,10773 5220,10799 5459,10806 5698,10760 5937,10702 6177,10734 6416,10702 6655,10741 6895,10631 7134,10638 7374,10644 7613,10372 7852,9991 8091,10314 8330,10095 8570,10095 8809,9616 9048,9267 9288,9325 9527,8459 9767,8886 10006,8756 10244,8931 10484,8117 10723,7593 10963,7528 11202,2061 11441,3580 11681,4013 11920,7470 12160,5435 12399,1660 12637,7321 12877,2151 13116,4440 13356,6714 13595,7192 13834,7108 14074,5894 14313,1524 14553,5952"/>
 <path fill="rgb(87,157,28)" stroke="none" d="M 1291,10912 L 1490,10912 1391,10712 1291,10912 Z"/>
 <path fill="none" stroke="rgb(87,157,28)" stroke-linejoin="round" d="M 1291,10912 L 1490,10912 1391,10712 1291,10912 Z"/>
 <path fill="rgb(87,157,28)" stroke="none" d="M 1530,10919 L 1730,10919 1630,10719 1530,10919 Z"/>
 <path fill="none" stroke="rgb(87,157,28)" stroke-linejoin="round" d="M 1530,10919 L 1730,10919 1630,10719 1530,10919 Z"/>
 <path fill="rgb(87,157,28)" stroke="none" d="M 1770,10919 L 1969,10919 1869,10719 1770,10919 Z"/>
 <path fill="none" stroke="rgb(87,157,28)" stroke-linejoin="round" d="M 1770,10919 L 1969,10919 1869,10719 1770,10919 Z"/>
 <path fill="rgb(87,157,28)" stroke="none" d="M 2009,10919 L 2208,10919 2109,10719 2009,10919 Z"/>
 <path fill="none" stroke="rgb(87,157,28)" stroke-linejoin="round" d="M 2009,10919 L 2208,10919 2109,10719 2009,10919 Z"/>
 <path fill="rgb(87,157,28)" stroke="none" d="M 2248,10919 L 2448,10919 2348,10719 2248,10919 Z"/>
 <path fill="none" stroke="rgb(87,157,28)" stroke-linejoin="round" d="M 2248,10919 L 2448,10919 2348,10719 2248,10919 Z"/>
 <path fill="rgb(87,157,28)" stroke="none" d="M 2488,10912 L 2687,10912 2588,10712 2488,10912 Z"/>
 <path fill="none" stroke="rgb(87,157,28)" stroke-linejoin="round" d="M 2488,10912 L 2687,10912 2588,10712 2488,10912 Z"/>
 <path fill="rgb(87,157,28)" stroke="none" d="M 2727,10919 L 2927,10919 2827,10719 2727,10919 Z"/>
 <path fill="none" stroke="rgb(87,157,28)" stroke-linejoin="round" d="M 2727,10919 L 2927,10919 2827,10719 2727,10919 Z"/>
 <path fill="rgb(87,157,28)" stroke="none" d="M 2967,10919 L 3166,10919 3066,10719 2967,10919 Z"/>
 <path fill="none" stroke="rgb(87,157,28)" stroke-linejoin="round" d="M 2967,10919 L 3166,10919 3066,10719 2967,10919 Z"/>
 <path fill="rgb(87,157,28)" stroke="none" d="M 3206,10919 L 3405,10919 3306,10719 3206,10919 Z"/>
 <path fill="none" stroke="rgb(87,157,28)" stroke-linejoin="round" d="M 3206,10919 L 3405,10919 3306,10719 3206,10919 Z"/>
 <path fill="rgb(87,157,28)" stroke="none" d="M 3444,10919 L 3644,10919 3544,10719 3444,10919 Z"/>
 <path fill="none" stroke="rgb(87,157,28)" stroke-linejoin="round" d="M 3444,10919 L 3644,10919 3544,10719 3444,10919 Z"/>
 <path fill="rgb(87,157,28)" stroke="none" d="M 3684,10912 L 3883,10912 3784,10712 3684,10912 Z"/>
 <path fill="none" stroke="rgb(87,157,28)" stroke-linejoin="round" d="M 3684,10912 L 3883,10912 3784,10712 3684,10912 Z"/>
 <path fill="rgb(87,157,28)" stroke="none" d="M 3923,10912 L 4123,10912 4023,10712 3923,10912 Z"/>
 <path fill="none" stroke="rgb(87,157,28)" stroke-linejoin="round" d="M 3923,10912 L 4123,10912 4023,10712 3923,10912 Z"/>
 <path fill="rgb(87,157,28)" stroke="none" d="M 4163,10919 L 4362,10919 4262,10719 4163,10919 Z"/>
 <path fill="none" stroke="rgb(87,157,28)" stroke-linejoin="round" d="M 4163,10919 L 4362,10919 4262,10719 4163,10919 Z"/>
 <path fill="rgb(87,157,28)" stroke="none" d="M 4402,10899 L 4601,10899 4502,10699 4402,10899 Z"/>
 <path fill="none" stroke="rgb(87,157,28)" stroke-linejoin="round" d="M 4402,10899 L 4601,10899 4502,10699 4402,10899 Z"/>
 <path fill="rgb(87,157,28)" stroke="none" d="M 4641,10906 L 4841,10906 4741,10706 4641,10906 Z"/>
 <path fill="none" stroke="rgb(87,157,28)" stroke-linejoin="round" d="M 4641,10906 L 4841,10906 4741,10706 4641,10906 Z"/>
 <path fill="rgb(87,157,28)" stroke="none" d="M 4881,10873 L 5080,10873 4981,10673 4881,10873 Z"/>
 <path fill="none" stroke="rgb(87,157,28)" stroke-linejoin="round" d="M 4881,10873 L 5080,10873 4981,10673 4881,10873 Z"/>
 <path fill="rgb(87,157,28)" stroke="none" d="M 5120,10899 L 5320,10899 5220,10699 5120,10899 Z"/>
 <path fill="none" stroke="rgb(87,157,28)" stroke-linejoin="round" d="M 5120,10899 L 5320,10899 5220,10699 5120,10899 Z"/>
 <path fill="rgb(87,157,28)" stroke="none" d="M 5360,10906 L 5559,10906 5459,10706 5360,10906 Z"/>
 <path fill="none" stroke="rgb(87,157,28)" stroke-linejoin="round" d="M 5360,10906 L 5559,10906 5459,10706 5360,10906 Z"/>
 <path fill="rgb(87,157,28)" stroke="none" d="M 5598,10860 L 5798,10860 5698,10660 5598,10860 Z"/>
 <path fill="none" stroke="rgb(87,157,28)" stroke-linejoin="round" d="M 5598,10860 L 5798,10860 5698,10660 5598,10860 Z"/>
 <path fill="rgb(87,157,28)" stroke="none" d="M 5837,10802 L 6037,10802 5937,10602 5837,10802 Z"/>
 <path fill="none" stroke="rgb(87,157,28)" stroke-linejoin="round" d="M 5837,10802 L 6037,10802 5937,10602 5837,10802 Z"/>
 <path fill="rgb(87,157,28)" stroke="none" d="M 6077,10834 L 6276,10834 6177,10634 6077,10834 Z"/>
 <path fill="none" stroke="rgb(87,157,28)" stroke-linejoin="round" d="M 6077,10834 L 6276,10834 6177,10634 6077,10834 Z"/>
 <path fill="rgb(87,157,28)" stroke="none" d="M 6316,10802 L 6516,10802 6416,10602 6316,10802 Z"/>
 <path fill="none" stroke="rgb(87,157,28)" stroke-linejoin="round" d="M 6316,10802 L 6516,10802 6416,10602 6316,10802 Z"/>
 <path fill="rgb(87,157,28)" stroke="none" d="M 6556,10841 L 6755,10841 6655,10641 6556,10841 Z"/>
 <path fill="none" stroke="rgb(87,157,28)" stroke-linejoin="round" d="M 6556,10841 L 6755,10841 6655,10641 6556,10841 Z"/>
 <path fill="rgb(87,157,28)" stroke="none" d="M 6795,10731 L 6995,10731 6895,10531 6795,10731 Z"/>
 <path fill="none" stroke="rgb(87,157,28)" stroke-linejoin="round" d="M 6795,10731 L 6995,10731 6895,10531 6795,10731 Z"/>
 <path fill="rgb(87,157,28)" stroke="none" d="M 7034,10738 L 7234,10738 7134,10538 7034,10738 Z"/>
 <path fill="none" stroke="rgb(87,157,28)" stroke-linejoin="round" d="M 7034,10738 L 7234,10738 7134,10538 7034,10738 Z"/>
 <path fill="rgb(87,157,28)" stroke="none" d="M 7274,10744 L 7473,10744 7374,10544 7274,10744 Z"/>
 <path fill="none" stroke="rgb(87,157,28)" stroke-linejoin="round" d="M 7274,10744 L 7473,10744 7374,10544 7274,10744 Z"/>
 <path fill="rgb(87,157,28)" stroke="none" d="M 7513,10472 L 7713,10472 7613,10272 7513,10472 Z"/>
 <path fill="none" stroke="rgb(87,157,28)" stroke-linejoin="round" d="M 7513,10472 L 7713,10472 7613,10272 7513,10472 Z"/>
 <path fill="rgb(87,157,28)" stroke="none" d="M 7753,10091 L 7952,10091 7852,9891 7753,10091 Z"/>
 <path fill="none" stroke="rgb(87,157,28)" stroke-linejoin="round" d="M 7753,10091 L 7952,10091 7852,9891 7753,10091 Z"/>
 <path fill="rgb(87,157,28)" stroke="none" d="M 7991,10414 L 8191,10414 8091,10214 7991,10414 Z"/>
 <path fill="none" stroke="rgb(87,157,28)" stroke-linejoin="round" d="M 7991,10414 L 8191,10414 8091,10214 7991,10414 Z"/>
 <path fill="rgb(87,157,28)" stroke="none" d="M 8230,10195 L 8430,10195 8330,9995 8230,10195 Z"/>
 <path fill="none" stroke="rgb(87,157,28)" stroke-linejoin="round" d="M 8230,10195 L 8430,10195 8330,9995 8230,10195 Z"/>
 <path fill="rgb(87,157,28)" stroke="none" d="M 8470,10195 L 8669,10195 8570,9995 8470,10195 Z"/>
 <path fill="none" stroke="rgb(87,157,28)" stroke-linejoin="round" d="M 8470,10195 L 8669,10195 8570,9995 8470,10195 Z"/>
 <path fill="rgb(87,157,28)" stroke="none" d="M 8709,9716 L 8909,9716 8809,9516 8709,9716 Z"/>
 <path fill="none" stroke="rgb(87,157,28)" stroke-linejoin="round" d="M 8709,9716 L 8909,9716 8809,9516 8709,9716 Z"/>
 <path fill="rgb(87,157,28)" stroke="none" d="M 8949,9367 L 9148,9367 9048,9167 8949,9367 Z"/>
 <path fill="none" stroke="rgb(87,157,28)" stroke-linejoin="round" d="M 8949,9367 L 9148,9367 9048,9167 8949,9367 Z"/>
 <path fill="rgb(87,157,28)" stroke="none" d="M 9188,9425 L 9388,9425 9288,9225 9188,9425 Z"/>
 <path fill="none" stroke="rgb(87,157,28)" stroke-linejoin="round" d="M 9188,9425 L 9388,9425 9288,9225 9188,9425 Z"/>
 <path fill="rgb(87,157,28)" stroke="none" d="M 9427,8559 L 9627,8559 9527,8359 9427,8559 Z"/>
 <path fill="none" stroke="rgb(87,157,28)" stroke-linejoin="round" d="M 9427,8559 L 9627,8559 9527,8359 9427,8559 Z"/>
 <path fill="rgb(87,157,28)" stroke="none" d="M 9667,8986 L 9866,8986 9767,8786 9667,8986 Z"/>
 <path fill="none" stroke="rgb(87,157,28)" stroke-linejoin="round" d="M 9667,8986 L 9866,8986 9767,8786 9667,8986 Z"/>
 <path fill="rgb(87,157,28)" stroke="none" d="M 9906,8856 L 10106,8856 10006,8656 9906,8856 Z"/>
 <path fill="none" stroke="rgb(87,157,28)" stroke-linejoin="round" d="M 9906,8856 L 10106,8856 10006,8656 9906,8856 Z"/>
 <path fill="rgb(87,157,28)" stroke="none" d="M 10145,9031 L 10344,9031 10244,8831 10145,9031 Z"/>
 <path fill="none" stroke="rgb(87,157,28)" stroke-linejoin="round" d="M 10145,9031 L 10344,9031 10244,8831 10145,9031 Z"/>
 <path fill="rgb(87,157,28)" stroke="none" d="M 10384,8217 L 10584,8217 10484,8017 10384,8217 Z"/>
 <path fill="none" stroke="rgb(87,157,28)" stroke-linejoin="round" d="M 10384,8217 L 10584,8217 10484,8017 10384,8217 Z"/>
 <path fill="rgb(87,157,28)" stroke="none" d="M 10623,7693 L 10823,7693 10723,7493 10623,7693 Z"/>
 <path fill="none" stroke="rgb(87,157,28)" stroke-linejoin="round" d="M 10623,7693 L 10823,7693 10723,7493 10623,7693 Z"/>
 <path fill="rgb(87,157,28)" stroke="none" d="M 10863,7628 L 11062,7628 10963,7428 10863,7628 Z"/>
 <path fill="none" stroke="rgb(87,157,28)" stroke-linejoin="round" d="M 10863,7628 L 11062,7628 10963,7428 10863,7628 Z"/>
 <path fill="rgb(87,157,28)" stroke="none" d="M 11102,2161 L 11302,2161 11202,1961 11102,2161 Z"/>
 <path fill="none" stroke="rgb(87,157,28)" stroke-linejoin="round" d="M 11102,2161 L 11302,2161 11202,1961 11102,2161 Z"/>
 <path fill="rgb(87,157,28)" stroke="none" d="M 11342,3680 L 11541,3680 11441,3480 11342,3680 Z"/>
 <path fill="none" stroke="rgb(87,157,28)" stroke-linejoin="round" d="M 11342,3680 L 11541,3680 11441,3480 11342,3680 Z"/>
 <path fill="rgb(87,157,28)" stroke="none" d="M 11581,4113 L 11781,4113 11681,3913 11581,4113 Z"/>
 <path fill="none" stroke="rgb(87,157,28)" stroke-linejoin="round" d="M 11581,4113 L 11781,4113 11681,3913 11581,4113 Z"/>
 <path fill="rgb(87,157,28)" stroke="none" d="M 11820,7570 L 12020,7570 11920,7370 11820,7570 Z"/>
 <path fill="none" stroke="rgb(87,157,28)" stroke-linejoin="round" d="M 11820,7570 L 12020,7570 11920,7370 11820,7570 Z"/>
 <path fill="rgb(87,157,28)" stroke="none" d="M 12060,5535 L 12259,5535 12160,5335 12060,5535 Z"/>
 <path fill="none" stroke="rgb(87,157,28)" stroke-linejoin="round" d="M 12060,5535 L 12259,5535 12160,5335 12060,5535 Z"/>
 <path fill="rgb(87,157,28)" stroke="none" d="M 12299,1760 L 12499,1760 12399,1560 12299,1760 Z"/>
 <path fill="none" stroke="rgb(87,157,28)" stroke-linejoin="round" d="M 12299,1760 L 12499,1760 12399,1560 12299,1760 Z"/>
 <path fill="rgb(87,157,28)" stroke="none" d="M 12538,7421 L 12737,7421 12637,7221 12538,7421 Z"/>
 <path fill="none" stroke="rgb(87,157,28)" stroke-linejoin="round" d="M 12538,7421 L 12737,7421 12637,7221 12538,7421 Z"/>
 <path fill="rgb(87,157,28)" stroke="none" d="M 12777,2251 L 12977,2251 12877,2051 12777,2251 Z"/>
 <path fill="none" stroke="rgb(87,157,28)" stroke-linejoin="round" d="M 12777,2251 L 12977,2251 12877,2051 12777,2251 Z"/>
 <path fill="rgb(87,157,28)" stroke="none" d="M 13016,4540 L 13216,4540 13116,4340 13016,4540 Z"/>
 <path fill="none" stroke="rgb(87,157,28)" stroke-linejoin="round" d="M 13016,4540 L 13216,4540 13116,4340 13016,4540 Z"/>
 <path fill="rgb(87,157,28)" stroke="none" d="M 13256,6814 L 13455,6814 13356,6614 13256,6814 Z"/>
 <path fill="none" stroke="rgb(87,157,28)" stroke-linejoin="round" d="M 13256,6814 L 13455,6814 13356,6614 13256,6814 Z"/>
 <path fill="rgb(87,157,28)" stroke="none" d="M 13495,7292 L 13695,7292 13595,7092 13495,7292 Z"/>
 <path fill="none" stroke="rgb(87,157,28)" stroke-linejoin="round" d="M 13495,7292 L 13695,7292 13595,7092 13495,7292 Z"/>
 <path fill="rgb(87,157,28)" stroke="none" d="M 13735,7208 L 13934,7208 13834,7008 13735,7208 Z"/>
 <path fill="none" stroke="rgb(87,157,28)" stroke-linejoin="round" d="M 13735,7208 L 13934,7208 13834,7008 13735,7208 Z"/>
 <path fill="rgb(87,157,28)" stroke="none" d="M 13974,5994 L 14174,5994 14074,5794 13974,5994 Z"/>
 <path fill="none" stroke="rgb(87,157,28)" stroke-linejoin="round" d="M 13974,5994 L 14174,5994 14074,5794 13974,5994 Z"/>
 <path fill="rgb(87,157,28)" stroke="none" d="M 14213,1624 L 14413,1624 14313,1424 14213,1624 Z"/>
 <path fill="none" stroke="rgb(87,157,28)" stroke-linejoin="round" d="M 14213,1624 L 14413,1624 14313,1424 14213,1624 Z"/>
 <path fill="rgb(87,157,28)" stroke="none" d="M 14453,6051 L 14652,6051 14553,5852 14453,6051 Z"/>
 <path fill="none" stroke="rgb(87,157,28)" stroke-linejoin="round" d="M 14453,6051 L 14652,6051 14553,5852 14453,6051 Z"/>
 <path fill="none" stroke="rgb(126,0,33)" stroke-width="50" stroke-linejoin="round" d="M 4741,10812 L 4981,10819 5220,10806 5459,10812 5698,10819 5937,10812 6177,10819 6416,10786 6655,10806 6895,10767 7134,10793 7374,10696 7613,10722 7852,10702 8091,10625 8330,10625 8570,10541 8809,10599 9048,10411 9288,10301 9527,10314 9767,10095 10006,10217 10244,9965 10484,10217 10723,9687 10963,9952 11202,9745 11441,9862 11681,9758 11920,10075 12160,10166 12399,9306 12637,9868 12877,9862 13116,10075 13356,9965 13595,10211 13834,10263 14074,10030 14313,9597 14553,9649"/>
 <path fill="rgb(126,0,33)" stroke="none" d="M 4641,10712 L 4641,10912 4841,10812 4641,10712 Z"/>
 <path fill="none" stroke="rgb(126,0,33)" stroke-linejoin="round" d="M 4641,10712 L 4641,10912 4841,10812 4641,10712 Z"/>
 <path fill="rgb(126,0,33)" stroke="none" d="M 4881,10719 L 4881,10919 5080,10819 4881,10719 Z"/>
 <path fill="none" stroke="rgb(126,0,33)" stroke-linejoin="round" d="M 4881,10719 L 4881,10919 5080,10819 4881,10719 Z"/>
 <path fill="rgb(126,0,33)" stroke="none" d="M 5120,10706 L 5120,10906 5320,10806 5120,10706 Z"/>
 <path fill="none" stroke="rgb(126,0,33)" stroke-linejoin="round" d="M 5120,10706 L 5120,10906 5320,10806 5120,10706 Z"/>
 <path fill="rgb(126,0,33)" stroke="none" d="M 5360,10712 L 5360,10912 5559,10812 5360,10712 Z"/>
 <path fill="none" stroke="rgb(126,0,33)" stroke-linejoin="round" d="M 5360,10712 L 5360,10912 5559,10812 5360,10712 Z"/>
 <path fill="rgb(126,0,33)" stroke="none" d="M 5598,10719 L 5598,10919 5798,10819 5598,10719 Z"/>
 <path fill="none" stroke="rgb(126,0,33)" stroke-linejoin="round" d="M 5598,10719 L 5598,10919 5798,10819 5598,10719 Z"/>
 <path fill="rgb(126,0,33)" stroke="none" d="M 5837,10712 L 5837,10912 6037,10812 5837,10712 Z"/>
 <path fill="none" stroke="rgb(126,0,33)" stroke-linejoin="round" d="M 5837,10712 L 5837,10912 6037,10812 5837,10712 Z"/>
 <path fill="rgb(126,0,33)" stroke="none" d="M 6077,10719 L 6077,10919 6276,10819 6077,10719 Z"/>
 <path fill="none" stroke="rgb(126,0,33)" stroke-linejoin="round" d="M 6077,10719 L 6077,10919 6276,10819 6077,10719 Z"/>
 <path fill="rgb(126,0,33)" stroke="none" d="M 6316,10686 L 6316,10886 6516,10786 6316,10686 Z"/>
 <path fill="none" stroke="rgb(126,0,33)" stroke-linejoin="round" d="M 6316,10686 L 6316,10886 6516,10786 6316,10686 Z"/>
 <path fill="rgb(126,0,33)" stroke="none" d="M 6556,10706 L 6556,10906 6755,10806 6556,10706 Z"/>
 <path fill="none" stroke="rgb(126,0,33)" stroke-linejoin="round" d="M 6556,10706 L 6556,10906 6755,10806 6556,10706 Z"/>
 <path fill="rgb(126,0,33)" stroke="none" d="M 6795,10667 L 6795,10867 6995,10767 6795,10667 Z"/>
 <path fill="none" stroke="rgb(126,0,33)" stroke-linejoin="round" d="M 6795,10667 L 6795,10867 6995,10767 6795,10667 Z"/>
 <path fill="rgb(126,0,33)" stroke="none" d="M 7034,10693 L 7034,10893 7234,10793 7034,10693 Z"/>
 <path fill="none" stroke="rgb(126,0,33)" stroke-linejoin="round" d="M 7034,10693 L 7034,10893 7234,10793 7034,10693 Z"/>
 <path fill="rgb(126,0,33)" stroke="none" d="M 7274,10596 L 7274,10796 7473,10696 7274,10596 Z"/>
 <path fill="none" stroke="rgb(126,0,33)" stroke-linejoin="round" d="M 7274,10596 L 7274,10796 7473,10696 7274,10596 Z"/>
 <path fill="rgb(126,0,33)" stroke="none" d="M 7513,10622 L 7513,10822 7713,10722 7513,10622 Z"/>
 <path fill="none" stroke="rgb(126,0,33)" stroke-linejoin="round" d="M 7513,10622 L 7513,10822 7713,10722 7513,10622 Z"/>
 <path fill="rgb(126,0,33)" stroke="none" d="M 7753,10602 L 7753,10802 7952,10702 7753,10602 Z"/>
 <path fill="none" stroke="rgb(126,0,33)" stroke-linejoin="round" d="M 7753,10602 L 7753,10802 7952,10702 7753,10602 Z"/>
 <path fill="rgb(126,0,33)" stroke="none" d="M 7991,10525 L 7991,10725 8191,10625 7991,10525 Z"/>
 <path fill="none" stroke="rgb(126,0,33)" stroke-linejoin="round" d="M 7991,10525 L 7991,10725 8191,10625 7991,10525 Z"/>
 <path fill="rgb(126,0,33)" stroke="none" d="M 8230,10525 L 8230,10725 8430,10625 8230,10525 Z"/>
 <path fill="none" stroke="rgb(126,0,33)" stroke-linejoin="round" d="M 8230,10525 L 8230,10725 8430,10625 8230,10525 Z"/>
 <path fill="rgb(126,0,33)" stroke="none" d="M 8470,10441 L 8470,10641 8669,10541 8470,10441 Z"/>
 <path fill="none" stroke="rgb(126,0,33)" stroke-linejoin="round" d="M 8470,10441 L 8470,10641 8669,10541 8470,10441 Z"/>
 <path fill="rgb(126,0,33)" stroke="none" d="M 8709,10499 L 8709,10699 8909,10599 8709,10499 Z"/>
 <path fill="none" stroke="rgb(126,0,33)" stroke-linejoin="round" d="M 8709,10499 L 8709,10699 8909,10599 8709,10499 Z"/>
 <path fill="rgb(126,0,33)" stroke="none" d="M 8949,10311 L 8949,10511 9148,10411 8949,10311 Z"/>
 <path fill="none" stroke="rgb(126,0,33)" stroke-linejoin="round" d="M 8949,10311 L 8949,10511 9148,10411 8949,10311 Z"/>
 <path fill="rgb(126,0,33)" stroke="none" d="M 9188,10201 L 9188,10401 9388,10301 9188,10201 Z"/>
 <path fill="none" stroke="rgb(126,0,33)" stroke-linejoin="round" d="M 9188,10201 L 9188,10401 9388,10301 9188,10201 Z"/>
 <path fill="rgb(126,0,33)" stroke="none" d="M 9427,10214 L 9427,10414 9627,10314 9427,10214 Z"/>
 <path fill="none" stroke="rgb(126,0,33)" stroke-linejoin="round" d="M 9427,10214 L 9427,10414 9627,10314 9427,10214 Z"/>
 <path fill="rgb(126,0,33)" stroke="none" d="M 9667,9995 L 9667,10195 9866,10095 9667,9995 Z"/>
 <path fill="none" stroke="rgb(126,0,33)" stroke-linejoin="round" d="M 9667,9995 L 9667,10195 9866,10095 9667,9995 Z"/>
 <path fill="rgb(126,0,33)" stroke="none" d="M 9906,10117 L 9906,10317 10106,10217 9906,10117 Z"/>
 <path fill="none" stroke="rgb(126,0,33)" stroke-linejoin="round" d="M 9906,10117 L 9906,10317 10106,10217 9906,10117 Z"/>
 <path fill="rgb(126,0,33)" stroke="none" d="M 10145,9865 L 10145,10065 10344,9965 10145,9865 Z"/>
 <path fill="none" stroke="rgb(126,0,33)" stroke-linejoin="round" d="M 10145,9865 L 10145,10065 10344,9965 10145,9865 Z"/>
 <path fill="rgb(126,0,33)" stroke="none" d="M 10384,10117 L 10384,10317 10584,10217 10384,10117 Z"/>
 <path fill="none" stroke="rgb(126,0,33)" stroke-linejoin="round" d="M 10384,10117 L 10384,10317 10584,10217 10384,10117 Z"/>
 <path fill="rgb(126,0,33)" stroke="none" d="M 10623,9587 L 10623,9787 10823,9687 10623,9587 Z"/>
 <path fill="none" stroke="rgb(126,0,33)" stroke-linejoin="round" d="M 10623,9587 L 10623,9787 10823,9687 10623,9587 Z"/>
 <path fill="rgb(126,0,33)" stroke="none" d="M 10863,9852 L 10863,10052 11062,9952 10863,9852 Z"/>
 <path fill="none" stroke="rgb(126,0,33)" stroke-linejoin="round" d="M 10863,9852 L 10863,10052 11062,9952 10863,9852 Z"/>
 <path fill="rgb(126,0,33)" stroke="none" d="M 11102,9645 L 11102,9845 11302,9745 11102,9645 Z"/>
 <path fill="none" stroke="rgb(126,0,33)" stroke-linejoin="round" d="M 11102,9645 L 11102,9845 11302,9745 11102,9645 Z"/>
 <path fill="rgb(126,0,33)" stroke="none" d="M 11342,9762 L 11342,9962 11541,9862 11342,9762 Z"/>
 <path fill="none" stroke="rgb(126,0,33)" stroke-linejoin="round" d="M 11342,9762 L 11342,9962 11541,9862 11342,9762 Z"/>
 <path fill="rgb(126,0,33)" stroke="none" d="M 11581,9658 L 11581,9858 11781,9758 11581,9658 Z"/>
 <path fill="none" stroke="rgb(126,0,33)" stroke-linejoin="round" d="M 11581,9658 L 11581,9858 11781,9758 11581,9658 Z"/>
 <path fill="rgb(126,0,33)" stroke="none" d="M 11820,9975 L 11820,10175 12020,10075 11820,9975 Z"/>
 <path fill="none" stroke="rgb(126,0,33)" stroke-linejoin="round" d="M 11820,9975 L 11820,10175 12020,10075 11820,9975 Z"/>
 <path fill="rgb(126,0,33)" stroke="none" d="M 12060,10066 L 12060,10266 12259,10166 12060,10066 Z"/>
 <path fill="none" stroke="rgb(126,0,33)" stroke-linejoin="round" d="M 12060,10066 L 12060,10266 12259,10166 12060,10066 Z"/>
 <path fill="rgb(126,0,33)" stroke="none" d="M 12299,9206 L 12299,9406 12499,9306 12299,9206 Z"/>
 <path fill="none" stroke="rgb(126,0,33)" stroke-linejoin="round" d="M 12299,9206 L 12299,9406 12499,9306 12299,9206 Z"/>
 <path fill="rgb(126,0,33)" stroke="none" d="M 12538,9768 L 12538,9968 12737,9868 12538,9768 Z"/>
 <path fill="none" stroke="rgb(126,0,33)" stroke-linejoin="round" d="M 12538,9768 L 12538,9968 12737,9868 12538,9768 Z"/>
 <path fill="rgb(126,0,33)" stroke="none" d="M 12777,9762 L 12777,9962 12977,9862 12777,9762 Z"/>
 <path fill="none" stroke="rgb(126,0,33)" stroke-linejoin="round" d="M 12777,9762 L 12777,9962 12977,9862 12777,9762 Z"/>
 <path fill="rgb(126,0,33)" stroke="none" d="M 13016,9975 L 13016,10175 13216,10075 13016,9975 Z"/>
 <path fill="none" stroke="rgb(126,0,33)" stroke-linejoin="round" d="M 13016,9975 L 13016,10175 13216,10075 13016,9975 Z"/>
 <path fill="rgb(126,0,33)" stroke="none" d="M 13256,9865 L 13256,10065 13455,9965 13256,9865 Z"/>
 <path fill="none" stroke="rgb(126,0,33)" stroke-linejoin="round" d="M 13256,9865 L 13256,10065 13455,9965 13256,9865 Z"/>
 <path fill="rgb(126,0,33)" stroke="none" d="M 13495,10111 L 13495,10311 13695,10211 13495,10111 Z"/>
 <path fill="none" stroke="rgb(126,0,33)" stroke-linejoin="round" d="M 13495,10111 L 13495,10311 13695,10211 13495,10111 Z"/>
 <path fill="rgb(126,0,33)" stroke="none" d="M 13735,10163 L 13735,10363 13934,10263 13735,10163 Z"/>
 <path fill="none" stroke="rgb(126,0,33)" stroke-linejoin="round" d="M 13735,10163 L 13735,10363 13934,10263 13735,10163 Z"/>
 <path fill="rgb(126,0,33)" stroke="none" d="M 13974,9930 L 13974,10130 14174,10030 13974,9930 Z"/>
 <path fill="none" stroke="rgb(126,0,33)" stroke-linejoin="round" d="M 13974,9930 L 13974,10130 14174,10030 13974,9930 Z"/>
 <path fill="rgb(126,0,33)" stroke="none" d="M 14213,9497 L 14213,9697 14413,9597 14213,9497 Z"/>
 <path fill="none" stroke="rgb(126,0,33)" stroke-linejoin="round" d="M 14213,9497 L 14213,9697 14413,9597 14213,9497 Z"/>
 <path fill="rgb(126,0,33)" stroke="none" d="M 14453,9549 L 14453,9749 14652,9649 14453,9549 Z"/>
 <path fill="none" stroke="rgb(126,0,33)" stroke-linejoin="round" d="M 14453,9549 L 14453,9749 14652,9649 14453,9549 Z"/>
 <path fill="none" stroke="rgb(131,202,255)" stroke-width="50" stroke-linejoin="round" d="M 1391,10812 L 1630,10812 1869,10812 2109,10793 2348,10799 2588,10806 2827,10786 3066,10793 3306,10767 3544,10786 3784,10702 4023,10644 4262,10638 4502,10553 4741,10502 4981,10586 5220,9959 5459,10191 5698,9733 5937,9552 6177,9597 6416,9203 6655,9687 6895,8440 7134,8563 7374,8588 7613,7748 7852,8058 8091,6766 8330,5694 8570,6610 8809,6934 9048,6016 9288,6404 9527,6539 9767,4556 10006,5073 10244,5933 10484,5571 10723,5409 10963,6119 11202,5907 11441,5868 11681,6417 11920,7425 12160,6707 12399,6914 12637,7315 12877,6875 13116,7134 13356,6817 13595,8033 13834,7160 14074,6927 14313,7082 14553,7425"/>
 <path fill="rgb(131,202,255)" stroke="none" d="M 1291,10812 L 1490,10912 1490,10712 1291,10812 Z"/>
 <path fill="none" stroke="rgb(131,202,255)" stroke-linejoin="round" d="M 1291,10812 L 1490,10912 1490,10712 1291,10812 Z"/>
 <path fill="rgb(131,202,255)" stroke="none" d="M 1530,10812 L 1730,10912 1730,10712 1530,10812 Z"/>
 <path fill="none" stroke="rgb(131,202,255)" stroke-linejoin="round" d="M 1530,10812 L 1730,10912 1730,10712 1530,10812 Z"/>
 <path fill="rgb(131,202,255)" stroke="none" d="M 1770,10812 L 1969,10912 1969,10712 1770,10812 Z"/>
 <path fill="none" stroke="rgb(131,202,255)" stroke-linejoin="round" d="M 1770,10812 L 1969,10912 1969,10712 1770,10812 Z"/>
 <path fill="rgb(131,202,255)" stroke="none" d="M 2009,10793 L 2208,10893 2208,10693 2009,10793 Z"/>
 <path fill="none" stroke="rgb(131,202,255)" stroke-linejoin="round" d="M 2009,10793 L 2208,10893 2208,10693 2009,10793 Z"/>
 <path fill="rgb(131,202,255)" stroke="none" d="M 2248,10799 L 2448,10899 2448,10699 2248,10799 Z"/>
 <path fill="none" stroke="rgb(131,202,255)" stroke-linejoin="round" d="M 2248,10799 L 2448,10899 2448,10699 2248,10799 Z"/>
 <path fill="rgb(131,202,255)" stroke="none" d="M 2488,10806 L 2687,10906 2687,10706 2488,10806 Z"/>
 <path fill="none" stroke="rgb(131,202,255)" stroke-linejoin="round" d="M 2488,10806 L 2687,10906 2687,10706 2488,10806 Z"/>
 <path fill="rgb(131,202,255)" stroke="none" d="M 2727,10786 L 2927,10886 2927,10686 2727,10786 Z"/>
 <path fill="none" stroke="rgb(131,202,255)" stroke-linejoin="round" d="M 2727,10786 L 2927,10886 2927,10686 2727,10786 Z"/>
 <path fill="rgb(131,202,255)" stroke="none" d="M 2967,10793 L 3166,10893 3166,10693 2967,10793 Z"/>
 <path fill="none" stroke="rgb(131,202,255)" stroke-linejoin="round" d="M 2967,10793 L 3166,10893 3166,10693 2967,10793 Z"/>
 <path fill="rgb(131,202,255)" stroke="none" d="M 3206,10767 L 3405,10867 3405,10667 3206,10767 Z"/>
 <path fill="none" stroke="rgb(131,202,255)" stroke-linejoin="round" d="M 3206,10767 L 3405,10867 3405,10667 3206,10767 Z"/>
 <path fill="rgb(131,202,255)" stroke="none" d="M 3444,10786 L 3644,10886 3644,10686 3444,10786 Z"/>
 <path fill="none" stroke="rgb(131,202,255)" stroke-linejoin="round" d="M 3444,10786 L 3644,10886 3644,10686 3444,10786 Z"/>
 <path fill="rgb(131,202,255)" stroke="none" d="M 3684,10702 L 3883,10802 3883,10602 3684,10702 Z"/>
 <path fill="none" stroke="rgb(131,202,255)" stroke-linejoin="round" d="M 3684,10702 L 3883,10802 3883,10602 3684,10702 Z"/>
 <path fill="rgb(131,202,255)" stroke="none" d="M 3923,10644 L 4123,10744 4123,10544 3923,10644 Z"/>
 <path fill="none" stroke="rgb(131,202,255)" stroke-linejoin="round" d="M 3923,10644 L 4123,10744 4123,10544 3923,10644 Z"/>
 <path fill="rgb(131,202,255)" stroke="none" d="M 4163,10638 L 4362,10738 4362,10538 4163,10638 Z"/>
 <path fill="none" stroke="rgb(131,202,255)" stroke-linejoin="round" d="M 4163,10638 L 4362,10738 4362,10538 4163,10638 Z"/>
 <path fill="rgb(131,202,255)" stroke="none" d="M 4402,10553 L 4601,10653 4601,10453 4402,10553 Z"/>
 <path fill="none" stroke="rgb(131,202,255)" stroke-linejoin="round" d="M 4402,10553 L 4601,10653 4601,10453 4402,10553 Z"/>
 <path fill="rgb(131,202,255)" stroke="none" d="M 4641,10502 L 4841,10602 4841,10402 4641,10502 Z"/>
 <path fill="none" stroke="rgb(131,202,255)" stroke-linejoin="round" d="M 4641,10502 L 4841,10602 4841,10402 4641,10502 Z"/>
 <path fill="rgb(131,202,255)" stroke="none" d="M 4881,10586 L 5080,10686 5080,10486 4881,10586 Z"/>
 <path fill="none" stroke="rgb(131,202,255)" stroke-linejoin="round" d="M 4881,10586 L 5080,10686 5080,10486 4881,10586 Z"/>
 <path fill="rgb(131,202,255)" stroke="none" d="M 5120,9959 L 5320,10059 5320,9859 5120,9959 Z"/>
 <path fill="none" stroke="rgb(131,202,255)" stroke-linejoin="round" d="M 5120,9959 L 5320,10059 5320,9859 5120,9959 Z"/>
 <path fill="rgb(131,202,255)" stroke="none" d="M 5360,10191 L 5559,10291 5559,10091 5360,10191 Z"/>
 <path fill="none" stroke="rgb(131,202,255)" stroke-linejoin="round" d="M 5360,10191 L 5559,10291 5559,10091 5360,10191 Z"/>
 <path fill="rgb(131,202,255)" stroke="none" d="M 5598,9733 L 5798,9833 5798,9633 5598,9733 Z"/>
 <path fill="none" stroke="rgb(131,202,255)" stroke-linejoin="round" d="M 5598,9733 L 5798,9833 5798,9633 5598,9733 Z"/>
 <path fill="rgb(131,202,255)" stroke="none" d="M 5837,9552 L 6037,9652 6037,9452 5837,9552 Z"/>
 <path fill="none" stroke="rgb(131,202,255)" stroke-linejoin="round" d="M 5837,9552 L 6037,9652 6037,9452 5837,9552 Z"/>
 <path fill="rgb(131,202,255)" stroke="none" d="M 6077,9597 L 6276,9697 6276,9497 6077,9597 Z"/>
 <path fill="none" stroke="rgb(131,202,255)" stroke-linejoin="round" d="M 6077,9597 L 6276,9697 6276,9497 6077,9597 Z"/>
 <path fill="rgb(131,202,255)" stroke="none" d="M 6316,9203 L 6516,9303 6516,9103 6316,9203 Z"/>
 <path fill="none" stroke="rgb(131,202,255)" stroke-linejoin="round" d="M 6316,9203 L 6516,9303 6516,9103 6316,9203 Z"/>
 <path fill="rgb(131,202,255)" stroke="none" d="M 6556,9687 L 6755,9787 6755,9587 6556,9687 Z"/>
 <path fill="none" stroke="rgb(131,202,255)" stroke-linejoin="round" d="M 6556,9687 L 6755,9787 6755,9587 6556,9687 Z"/>
 <path fill="rgb(131,202,255)" stroke="none" d="M 6795,8440 L 6995,8540 6995,8340 6795,8440 Z"/>
 <path fill="none" stroke="rgb(131,202,255)" stroke-linejoin="round" d="M 6795,8440 L 6995,8540 6995,8340 6795,8440 Z"/>
 <path fill="rgb(131,202,255)" stroke="none" d="M 7034,8563 L 7234,8663 7234,8463 7034,8563 Z"/>
 <path fill="none" stroke="rgb(131,202,255)" stroke-linejoin="round" d="M 7034,8563 L 7234,8663 7234,8463 7034,8563 Z"/>
 <path fill="rgb(131,202,255)" stroke="none" d="M 7274,8588 L 7473,8688 7473,8488 7274,8588 Z"/>
 <path fill="none" stroke="rgb(131,202,255)" stroke-linejoin="round" d="M 7274,8588 L 7473,8688 7473,8488 7274,8588 Z"/>
 <path fill="rgb(131,202,255)" stroke="none" d="M 7513,7748 L 7713,7848 7713,7648 7513,7748 Z"/>
 <path fill="none" stroke="rgb(131,202,255)" stroke-linejoin="round" d="M 7513,7748 L 7713,7848 7713,7648 7513,7748 Z"/>
 <path fill="rgb(131,202,255)" stroke="none" d="M 7753,8058 L 7952,8158 7952,7958 7753,8058 Z"/>
 <path fill="none" stroke="rgb(131,202,255)" stroke-linejoin="round" d="M 7753,8058 L 7952,8158 7952,7958 7753,8058 Z"/>
 <path fill="rgb(131,202,255)" stroke="none" d="M 7991,6766 L 8191,6866 8191,6666 7991,6766 Z"/>
 <path fill="none" stroke="rgb(131,202,255)" stroke-linejoin="round" d="M 7991,6766 L 8191,6866 8191,6666 7991,6766 Z"/>
 <path fill="rgb(131,202,255)" stroke="none" d="M 8230,5694 L 8430,5794 8430,5594 8230,5694 Z"/>
 <path fill="none" stroke="rgb(131,202,255)" stroke-linejoin="round" d="M 8230,5694 L 8430,5794 8430,5594 8230,5694 Z"/>
 <path fill="rgb(131,202,255)" stroke="none" d="M 8470,6610 L 8669,6710 8669,6510 8470,6610 Z"/>
 <path fill="none" stroke="rgb(131,202,255)" stroke-linejoin="round" d="M 8470,6610 L 8669,6710 8669,6510 8470,6610 Z"/>
 <path fill="rgb(131,202,255)" stroke="none" d="M 8709,6934 L 8909,7034 8909,6834 8709,6934 Z"/>
 <path fill="none" stroke="rgb(131,202,255)" stroke-linejoin="round" d="M 8709,6934 L 8909,7034 8909,6834 8709,6934 Z"/>
 <path fill="rgb(131,202,255)" stroke="none" d="M 8949,6016 L 9148,6116 9148,5917 8949,6016 Z"/>
 <path fill="none" stroke="rgb(131,202,255)" stroke-linejoin="round" d="M 8949,6016 L 9148,6116 9148,5917 8949,6016 Z"/>
 <path fill="rgb(131,202,255)" stroke="none" d="M 9188,6404 L 9388,6504 9388,6304 9188,6404 Z"/>
 <path fill="none" stroke="rgb(131,202,255)" stroke-linejoin="round" d="M 9188,6404 L 9388,6504 9388,6304 9188,6404 Z"/>
 <path fill="rgb(131,202,255)" stroke="none" d="M 9427,6539 L 9627,6639 9627,6439 9427,6539 Z"/>
 <path fill="none" stroke="rgb(131,202,255)" stroke-linejoin="round" d="M 9427,6539 L 9627,6639 9627,6439 9427,6539 Z"/>
 <path fill="rgb(131,202,255)" stroke="none" d="M 9667,4556 L 9866,4656 9866,4456 9667,4556 Z"/>
 <path fill="none" stroke="rgb(131,202,255)" stroke-linejoin="round" d="M 9667,4556 L 9866,4656 9866,4456 9667,4556 Z"/>
 <path fill="rgb(131,202,255)" stroke="none" d="M 9906,5073 L 10106,5173 10106,4973 9906,5073 Z"/>
 <path fill="none" stroke="rgb(131,202,255)" stroke-linejoin="round" d="M 9906,5073 L 10106,5173 10106,4973 9906,5073 Z"/>
 <path fill="rgb(131,202,255)" stroke="none" d="M 10145,5933 L 10344,6032 10344,5833 10145,5933 Z"/>
 <path fill="none" stroke="rgb(131,202,255)" stroke-linejoin="round" d="M 10145,5933 L 10344,6032 10344,5833 10145,5933 Z"/>
 <path fill="rgb(131,202,255)" stroke="none" d="M 10384,5571 L 10584,5671 10584,5471 10384,5571 Z"/>
 <path fill="none" stroke="rgb(131,202,255)" stroke-linejoin="round" d="M 10384,5571 L 10584,5671 10584,5471 10384,5571 Z"/>
 <path fill="rgb(131,202,255)" stroke="none" d="M 10623,5409 L 10823,5509 10823,5309 10623,5409 Z"/>
 <path fill="none" stroke="rgb(131,202,255)" stroke-linejoin="round" d="M 10623,5409 L 10823,5509 10823,5309 10623,5409 Z"/>
 <path fill="rgb(131,202,255)" stroke="none" d="M 10863,6119 L 11062,6219 11062,6019 10863,6119 Z"/>
 <path fill="none" stroke="rgb(131,202,255)" stroke-linejoin="round" d="M 10863,6119 L 11062,6219 11062,6019 10863,6119 Z"/>
 <path fill="rgb(131,202,255)" stroke="none" d="M 11102,5907 L 11302,6006 11302,5807 11102,5907 Z"/>
 <path fill="none" stroke="rgb(131,202,255)" stroke-linejoin="round" d="M 11102,5907 L 11302,6006 11302,5807 11102,5907 Z"/>
 <path fill="rgb(131,202,255)" stroke="none" d="M 11342,5868 L 11541,5968 11541,5768 11342,5868 Z"/>
 <path fill="none" stroke="rgb(131,202,255)" stroke-linejoin="round" d="M 11342,5868 L 11541,5968 11541,5768 11342,5868 Z"/>
 <path fill="rgb(131,202,255)" stroke="none" d="M 11581,6417 L 11781,6517 11781,6317 11581,6417 Z"/>
 <path fill="none" stroke="rgb(131,202,255)" stroke-linejoin="round" d="M 11581,6417 L 11781,6517 11781,6317 11581,6417 Z"/>
 <path fill="rgb(131,202,255)" stroke="none" d="M 11820,7425 L 12020,7525 12020,7325 11820,7425 Z"/>
 <path fill="none" stroke="rgb(131,202,255)" stroke-linejoin="round" d="M 11820,7425 L 12020,7525 12020,7325 11820,7425 Z"/>
 <path fill="rgb(131,202,255)" stroke="none" d="M 12060,6707 L 12259,6807 12259,6607 12060,6707 Z"/>
 <path fill="none" stroke="rgb(131,202,255)" stroke-linejoin="round" d="M 12060,6707 L 12259,6807 12259,6607 12060,6707 Z"/>
 <path fill="rgb(131,202,255)" stroke="none" d="M 12299,6914 L 12499,7014 12499,6814 12299,6914 Z"/>
 <path fill="none" stroke="rgb(131,202,255)" stroke-linejoin="round" d="M 12299,6914 L 12499,7014 12499,6814 12299,6914 Z"/>
 <path fill="rgb(131,202,255)" stroke="none" d="M 12538,7315 L 12737,7415 12737,7215 12538,7315 Z"/>
 <path fill="none" stroke="rgb(131,202,255)" stroke-linejoin="round" d="M 12538,7315 L 12737,7415 12737,7215 12538,7315 Z"/>
 <path fill="rgb(131,202,255)" stroke="none" d="M 12777,6875 L 12977,6975 12977,6775 12777,6875 Z"/>
 <path fill="none" stroke="rgb(131,202,255)" stroke-linejoin="round" d="M 12777,6875 L 12977,6975 12977,6775 12777,6875 Z"/>
 <path fill="rgb(131,202,255)" stroke="none" d="M 13016,7134 L 13216,7234 13216,7034 13016,7134 Z"/>
 <path fill="none" stroke="rgb(131,202,255)" stroke-linejoin="round" d="M 13016,7134 L 13216,7234 13216,7034 13016,7134 Z"/>
 <path fill="rgb(131,202,255)" stroke="none" d="M 13256,6817 L 13455,6917 13455,6717 13256,6817 Z"/>
 <path fill="none" stroke="rgb(131,202,255)" stroke-linejoin="round" d="M 13256,6817 L 13455,6917 13455,6717 13256,6817 Z"/>
 <path fill="rgb(131,202,255)" stroke="none" d="M 13495,8033 L 13695,8133 13695,7933 13495,8033 Z"/>
 <path fill="none" stroke="rgb(131,202,255)" stroke-linejoin="round" d="M 13495,8033 L 13695,8133 13695,7933 13495,8033 Z"/>
 <path fill="rgb(131,202,255)" stroke="none" d="M 13735,7160 L 13934,7260 13934,7060 13735,7160 Z"/>
 <path fill="none" stroke="rgb(131,202,255)" stroke-linejoin="round" d="M 13735,7160 L 13934,7260 13934,7060 13735,7160 Z"/>
 <path fill="rgb(131,202,255)" stroke="none" d="M 13974,6927 L 14174,7027 14174,6827 13974,6927 Z"/>
 <path fill="none" stroke="rgb(131,202,255)" stroke-linejoin="round" d="M 13974,6927 L 14174,7027 14174,6827 13974,6927 Z"/>
 <path fill="rgb(131,202,255)" stroke="none" d="M 14213,7082 L 14413,7182 14413,6982 14213,7082 Z"/>
 <path fill="none" stroke="rgb(131,202,255)" stroke-linejoin="round" d="M 14213,7082 L 14413,7182 14413,6982 14213,7082 Z"/>
 <path fill="rgb(131,202,255)" stroke="none" d="M 14453,7425 L 14652,7525 14652,7325 14453,7425 Z"/>
 <path fill="none" stroke="rgb(131,202,255)" stroke-linejoin="round" d="M 14453,7425 L 14652,7525 14652,7325 14453,7425 Z"/>
 <path fill="none" stroke="rgb(49,64,4)" stroke-width="50" stroke-linejoin="round" d="M 4502,10812 L 4741,10812 4981,10819 5220,10812 5459,10806 5698,10812 5937,10806 6177,10819 6416,10806 6655,10747 6895,10728 7134,10689 7374,10715 7613,10612 7852,10553 8091,10605 8330,10457 8570,10508 8809,10469 9048,10256 9288,9810 9527,9649 9767,9138 10006,9468 10244,9655 10484,8356 10723,7179 10963,7140 11202,6397 11441,6242 11681,6817 11920,7968 12160,5739 12399,4756 12637,5125 12877,4485 13116,4892 13356,6055 13595,6184 13834,5791 14074,5900 14313,5254"/>
 <path fill="rgb(49,64,4)" stroke="none" d="M 4402,10712 L 4402,10912 4601,10712 4601,10912 4402,10712 Z"/>
 <path fill="none" stroke="rgb(49,64,4)" stroke-linejoin="round" d="M 4402,10712 L 4402,10912 4601,10712 4601,10912 4402,10712 Z"/>
 <path fill="rgb(49,64,4)" stroke="none" d="M 4641,10712 L 4641,10912 4841,10712 4841,10912 4641,10712 Z"/>
 <path fill="none" stroke="rgb(49,64,4)" stroke-linejoin="round" d="M 4641,10712 L 4641,10912 4841,10712 4841,10912 4641,10712 Z"/>
 <path fill="rgb(49,64,4)" stroke="none" d="M 4881,10719 L 4881,10919 5080,10719 5080,10919 4881,10719 Z"/>
 <path fill="none" stroke="rgb(49,64,4)" stroke-linejoin="round" d="M 4881,10719 L 4881,10919 5080,10719 5080,10919 4881,10719 Z"/>
 <path fill="rgb(49,64,4)" stroke="none" d="M 5120,10712 L 5120,10912 5320,10712 5320,10912 5120,10712 Z"/>
 <path fill="none" stroke="rgb(49,64,4)" stroke-linejoin="round" d="M 5120,10712 L 5120,10912 5320,10712 5320,10912 5120,10712 Z"/>
 <path fill="rgb(49,64,4)" stroke="none" d="M 5360,10706 L 5360,10906 5559,10706 5559,10906 5360,10706 Z"/>
 <path fill="none" stroke="rgb(49,64,4)" stroke-linejoin="round" d="M 5360,10706 L 5360,10906 5559,10706 5559,10906 5360,10706 Z"/>
 <path fill="rgb(49,64,4)" stroke="none" d="M 5598,10712 L 5598,10912 5798,10712 5798,10912 5598,10712 Z"/>
 <path fill="none" stroke="rgb(49,64,4)" stroke-linejoin="round" d="M 5598,10712 L 5598,10912 5798,10712 5798,10912 5598,10712 Z"/>
 <path fill="rgb(49,64,4)" stroke="none" d="M 5837,10706 L 5837,10906 6037,10706 6037,10906 5837,10706 Z"/>
 <path fill="none" stroke="rgb(49,64,4)" stroke-linejoin="round" d="M 5837,10706 L 5837,10906 6037,10706 6037,10906 5837,10706 Z"/>
 <path fill="rgb(49,64,4)" stroke="none" d="M 6077,10719 L 6077,10919 6276,10719 6276,10919 6077,10719 Z"/>
 <path fill="none" stroke="rgb(49,64,4)" stroke-linejoin="round" d="M 6077,10719 L 6077,10919 6276,10719 6276,10919 6077,10719 Z"/>
 <path fill="rgb(49,64,4)" stroke="none" d="M 6316,10706 L 6316,10906 6516,10706 6516,10906 6316,10706 Z"/>
 <path fill="none" stroke="rgb(49,64,4)" stroke-linejoin="round" d="M 6316,10706 L 6316,10906 6516,10706 6516,10906 6316,10706 Z"/>
 <path fill="rgb(49,64,4)" stroke="none" d="M 6556,10647 L 6556,10847 6755,10647 6755,10847 6556,10647 Z"/>
 <path fill="none" stroke="rgb(49,64,4)" stroke-linejoin="round" d="M 6556,10647 L 6556,10847 6755,10647 6755,10847 6556,10647 Z"/>
 <path fill="rgb(49,64,4)" stroke="none" d="M 6795,10628 L 6795,10828 6995,10628 6995,10828 6795,10628 Z"/>
 <path fill="none" stroke="rgb(49,64,4)" stroke-linejoin="round" d="M 6795,10628 L 6795,10828 6995,10628 6995,10828 6795,10628 Z"/>
 <path fill="rgb(49,64,4)" stroke="none" d="M 7034,10589 L 7034,10789 7234,10589 7234,10789 7034,10589 Z"/>
 <path fill="none" stroke="rgb(49,64,4)" stroke-linejoin="round" d="M 7034,10589 L 7034,10789 7234,10589 7234,10789 7034,10589 Z"/>
 <path fill="rgb(49,64,4)" stroke="none" d="M 7274,10615 L 7274,10815 7473,10615 7473,10815 7274,10615 Z"/>
 <path fill="none" stroke="rgb(49,64,4)" stroke-linejoin="round" d="M 7274,10615 L 7274,10815 7473,10615 7473,10815 7274,10615 Z"/>
 <path fill="rgb(49,64,4)" stroke="none" d="M 7513,10512 L 7513,10712 7713,10512 7713,10712 7513,10512 Z"/>
 <path fill="none" stroke="rgb(49,64,4)" stroke-linejoin="round" d="M 7513,10512 L 7513,10712 7713,10512 7713,10712 7513,10512 Z"/>
 <path fill="rgb(49,64,4)" stroke="none" d="M 7753,10453 L 7753,10653 7952,10453 7952,10653 7753,10453 Z"/>
 <path fill="none" stroke="rgb(49,64,4)" stroke-linejoin="round" d="M 7753,10453 L 7753,10653 7952,10453 7952,10653 7753,10453 Z"/>
 <path fill="rgb(49,64,4)" stroke="none" d="M 7991,10505 L 7991,10705 8191,10505 8191,10705 7991,10505 Z"/>
 <path fill="none" stroke="rgb(49,64,4)" stroke-linejoin="round" d="M 7991,10505 L 7991,10705 8191,10505 8191,10705 7991,10505 Z"/>
 <path fill="rgb(49,64,4)" stroke="none" d="M 8230,10357 L 8230,10557 8430,10357 8430,10557 8230,10357 Z"/>
 <path fill="none" stroke="rgb(49,64,4)" stroke-linejoin="round" d="M 8230,10357 L 8230,10557 8430,10357 8430,10557 8230,10357 Z"/>
 <path fill="rgb(49,64,4)" stroke="none" d="M 8470,10408 L 8470,10608 8669,10408 8669,10608 8470,10408 Z"/>
 <path fill="none" stroke="rgb(49,64,4)" stroke-linejoin="round" d="M 8470,10408 L 8470,10608 8669,10408 8669,10608 8470,10408 Z"/>
 <path fill="rgb(49,64,4)" stroke="none" d="M 8709,10369 L 8709,10569 8909,10369 8909,10569 8709,10369 Z"/>
 <path fill="none" stroke="rgb(49,64,4)" stroke-linejoin="round" d="M 8709,10369 L 8709,10569 8909,10369 8909,10569 8709,10369 Z"/>
 <path fill="rgb(49,64,4)" stroke="none" d="M 8949,10156 L 8949,10356 9148,10156 9148,10356 8949,10156 Z"/>
 <path fill="none" stroke="rgb(49,64,4)" stroke-linejoin="round" d="M 8949,10156 L 8949,10356 9148,10156 9148,10356 8949,10156 Z"/>
 <path fill="rgb(49,64,4)" stroke="none" d="M 9188,9710 L 9188,9910 9388,9710 9388,9910 9188,9710 Z"/>
 <path fill="none" stroke="rgb(49,64,4)" stroke-linejoin="round" d="M 9188,9710 L 9188,9910 9388,9710 9388,9910 9188,9710 Z"/>
 <path fill="rgb(49,64,4)" stroke="none" d="M 9427,9549 L 9427,9749 9627,9549 9627,9749 9427,9549 Z"/>
 <path fill="none" stroke="rgb(49,64,4)" stroke-linejoin="round" d="M 9427,9549 L 9427,9749 9627,9549 9627,9749 9427,9549 Z"/>
 <path fill="rgb(49,64,4)" stroke="none" d="M 9667,9038 L 9667,9238 9866,9038 9866,9238 9667,9038 Z"/>
 <path fill="none" stroke="rgb(49,64,4)" stroke-linejoin="round" d="M 9667,9038 L 9667,9238 9866,9038 9866,9238 9667,9038 Z"/>
 <path fill="rgb(49,64,4)" stroke="none" d="M 9906,9368 L 9906,9568 10106,9368 10106,9568 9906,9368 Z"/>
 <path fill="none" stroke="rgb(49,64,4)" stroke-linejoin="round" d="M 9906,9368 L 9906,9568 10106,9368 10106,9568 9906,9368 Z"/>
 <path fill="rgb(49,64,4)" stroke="none" d="M 10145,9555 L 10145,9755 10344,9555 10344,9755 10145,9555 Z"/>
 <path fill="none" stroke="rgb(49,64,4)" stroke-linejoin="round" d="M 10145,9555 L 10145,9755 10344,9555 10344,9755 10145,9555 Z"/>
 <path fill="rgb(49,64,4)" stroke="none" d="M 10384,8256 L 10384,8456 10584,8256 10584,8456 10384,8256 Z"/>
 <path fill="none" stroke="rgb(49,64,4)" stroke-linejoin="round" d="M 10384,8256 L 10384,8456 10584,8256 10584,8456 10384,8256 Z"/>
 <path fill="rgb(49,64,4)" stroke="none" d="M 10623,7079 L 10623,7279 10823,7079 10823,7279 10623,7079 Z"/>
 <path fill="none" stroke="rgb(49,64,4)" stroke-linejoin="round" d="M 10623,7079 L 10623,7279 10823,7079 10823,7279 10623,7079 Z"/>
 <path fill="rgb(49,64,4)" stroke="none" d="M 10863,7040 L 10863,7240 11062,7040 11062,7240 10863,7040 Z"/>
 <path fill="none" stroke="rgb(49,64,4)" stroke-linejoin="round" d="M 10863,7040 L 10863,7240 11062,7040 11062,7240 10863,7040 Z"/>
 <path fill="rgb(49,64,4)" stroke="none" d="M 11102,6297 L 11102,6497 11302,6297 11302,6497 11102,6297 Z"/>
 <path fill="none" stroke="rgb(49,64,4)" stroke-linejoin="round" d="M 11102,6297 L 11102,6497 11302,6297 11302,6497 11102,6297 Z"/>
 <path fill="rgb(49,64,4)" stroke="none" d="M 11342,6142 L 11342,6342 11541,6142 11541,6342 11342,6142 Z"/>
 <path fill="none" stroke="rgb(49,64,4)" stroke-linejoin="round" d="M 11342,6142 L 11342,6342 11541,6142 11541,6342 11342,6142 Z"/>
 <path fill="rgb(49,64,4)" stroke="none" d="M 11581,6717 L 11581,6917 11781,6717 11781,6917 11581,6717 Z"/>
 <path fill="none" stroke="rgb(49,64,4)" stroke-linejoin="round" d="M 11581,6717 L 11581,6917 11781,6717 11781,6917 11581,6717 Z"/>
 <path fill="rgb(49,64,4)" stroke="none" d="M 11820,7868 L 11820,8068 12020,7868 12020,8068 11820,7868 Z"/>
 <path fill="none" stroke="rgb(49,64,4)" stroke-linejoin="round" d="M 11820,7868 L 11820,8068 12020,7868 12020,8068 11820,7868 Z"/>
 <path fill="rgb(49,64,4)" stroke="none" d="M 12060,5639 L 12060,5839 12259,5639 12259,5839 12060,5639 Z"/>
 <path fill="none" stroke="rgb(49,64,4)" stroke-linejoin="round" d="M 12060,5639 L 12060,5839 12259,5639 12259,5839 12060,5639 Z"/>
 <path fill="rgb(49,64,4)" stroke="none" d="M 12299,4656 L 12299,4856 12499,4656 12499,4856 12299,4656 Z"/>
 <path fill="none" stroke="rgb(49,64,4)" stroke-linejoin="round" d="M 12299,4656 L 12299,4856 12499,4656 12499,4856 12299,4656 Z"/>
 <path fill="rgb(49,64,4)" stroke="none" d="M 12538,5025 L 12538,5225 12737,5025 12737,5225 12538,5025 Z"/>
 <path fill="none" stroke="rgb(49,64,4)" stroke-linejoin="round" d="M 12538,5025 L 12538,5225 12737,5025 12737,5225 12538,5025 Z"/>
 <path fill="rgb(49,64,4)" stroke="none" d="M 12777,4385 L 12777,4585 12977,4385 12977,4585 12777,4385 Z"/>
 <path fill="none" stroke="rgb(49,64,4)" stroke-linejoin="round" d="M 12777,4385 L 12777,4585 12977,4385 12977,4585 12777,4385 Z"/>
 <path fill="rgb(49,64,4)" stroke="none" d="M 13016,4792 L 13016,4992 13216,4792 13216,4992 13016,4792 Z"/>
 <path fill="none" stroke="rgb(49,64,4)" stroke-linejoin="round" d="M 13016,4792 L 13016,4992 13216,4792 13216,4992 13016,4792 Z"/>
 <path fill="rgb(49,64,4)" stroke="none" d="M 13256,5956 L 13256,6155 13455,5956 13455,6155 13256,5956 Z"/>
 <path fill="none" stroke="rgb(49,64,4)" stroke-linejoin="round" d="M 13256,5956 L 13256,6155 13455,5956 13455,6155 13256,5956 Z"/>
 <path fill="rgb(49,64,4)" stroke="none" d="M 13495,6084 L 13495,6284 13695,6084 13695,6284 13495,6084 Z"/>
 <path fill="none" stroke="rgb(49,64,4)" stroke-linejoin="round" d="M 13495,6084 L 13495,6284 13695,6084 13695,6284 13495,6084 Z"/>
 <path fill="rgb(49,64,4)" stroke="none" d="M 13735,5691 L 13735,5891 13934,5691 13934,5891 13735,5691 Z"/>
 <path fill="none" stroke="rgb(49,64,4)" stroke-linejoin="round" d="M 13735,5691 L 13735,5891 13934,5691 13934,5891 13735,5691 Z"/>
 <path fill="rgb(49,64,4)" stroke="none" d="M 13974,5800 L 13974,6000 14174,5800 14174,6000 13974,5800 Z"/>
 <path fill="none" stroke="rgb(49,64,4)" stroke-linejoin="round" d="M 13974,5800 L 13974,6000 14174,5800 14174,6000 13974,5800 Z"/>
 <path fill="rgb(49,64,4)" stroke="none" d="M 14213,5154 L 14213,5354 14413,5154 14413,5354 14213,5154 Z"/>
 <path fill="none" stroke="rgb(49,64,4)" stroke-linejoin="round" d="M 14213,5154 L 14213,5354 14413,5154 14413,5354 14213,5154 Z"/>
 <text class="TextShape"><tspan class="TextParagraph" font-family="Liberation Sans, sans-serif" font-size="353px" font-weight="400"><tspan class="TextPosition" x="729" y="11387"><tspan fill="rgb(0,0,0)" stroke="none">20/02</tspan></tspan></tspan></text>
 <text class="TextShape"><tspan class="TextParagraph" font-family="Liberation Sans, sans-serif" font-size="353px" font-weight="400"><tspan class="TextPosition" x="2404" y="11387"><tspan fill="rgb(0,0,0)" stroke="none">27/02</tspan></tspan></tspan></text>
 <text class="TextShape"><tspan class="TextParagraph" font-family="Liberation Sans, sans-serif" font-size="353px" font-weight="400"><tspan class="TextPosition" x="4079" y="11387"><tspan fill="rgb(0,0,0)" stroke="none">05/03</tspan></tspan></tspan></text>
 <text class="TextShape"><tspan class="TextParagraph" font-family="Liberation Sans, sans-serif" font-size="353px" font-weight="400"><tspan class="TextPosition" x="5754" y="11387"><tspan fill="rgb(0,0,0)" stroke="none">12/03</tspan></tspan></tspan></text>
 <text class="TextShape"><tspan class="TextParagraph" font-family="Liberation Sans, sans-serif" font-size="353px" font-weight="400"><tspan class="TextPosition" x="7430" y="11387"><tspan fill="rgb(0,0,0)" stroke="none">19/03</tspan></tspan></tspan></text>
 <text class="TextShape"><tspan class="TextParagraph" font-family="Liberation Sans, sans-serif" font-size="353px" font-weight="400"><tspan class="TextPosition" x="9105" y="11387"><tspan fill="rgb(0,0,0)" stroke="none">26/03</tspan></tspan></tspan></text>
 <text class="TextShape"><tspan class="TextParagraph" font-family="Liberation Sans, sans-serif" font-size="353px" font-weight="400"><tspan class="TextPosition" x="10780" y="11387"><tspan fill="rgb(0,0,0)" stroke="none">02/04</tspan></tspan></tspan></text>
 <text class="TextShape"><tspan class="TextParagraph" font-family="Liberation Sans, sans-serif" font-size="353px" font-weight="400"><tspan class="TextPosition" x="12454" y="11387"><tspan fill="rgb(0,0,0)" stroke="none">09/04</tspan></tspan></tspan></text>
 <text class="TextShape"><tspan class="TextParagraph" font-family="Liberation Sans, sans-serif" font-size="353px" font-weight="400"><tspan class="TextPosition" x="14130" y="11387"><tspan fill="rgb(0,0,0)" stroke="none">16/04</tspan></tspan></tspan></text>
 <text class="TextShape"><tspan class="TextParagraph" font-family="Liberation Sans, sans-serif" font-size="353px" font-weight="400"><tspan class="TextPosition" x="228" y="9970"><tspan fill="rgb(0,0,0)" stroke="none">150</tspan></tspan></tspan></text>
 <text class="TextShape"><tspan class="TextParagraph" font-family="Liberation Sans, sans-serif" font-size="353px" font-weight="400"><tspan class="TextPosition" x="228" y="9000"><tspan fill="rgb(0,0,0)" stroke="none">300</tspan></tspan></tspan></text>
 <text class="TextShape"><tspan class="TextParagraph" font-family="Liberation Sans, sans-serif" font-size="353px" font-weight="400"><tspan class="TextPosition" x="228" y="8031"><tspan fill="rgb(0,0,0)" stroke="none">450</tspan></tspan></tspan></text>
 <text class="TextShape"><tspan class="TextParagraph" font-family="Liberation Sans, sans-serif" font-size="353px" font-weight="400"><tspan class="TextPosition" x="228" y="7061"><tspan fill="rgb(0,0,0)" stroke="none">600</tspan></tspan></tspan></text>
 <text class="TextShape"><tspan class="TextParagraph" font-family="Liberation Sans, sans-serif" font-size="353px" font-weight="400"><tspan class="TextPosition" x="228" y="6092"><tspan fill="rgb(0,0,0)" stroke="none">750</tspan></tspan></tspan></text>
 <text class="TextShape"><tspan class="TextParagraph" font-family="Liberation Sans, sans-serif" font-size="353px" font-weight="400"><tspan class="TextPosition" x="228" y="5122"><tspan fill="rgb(0,0,0)" stroke="none">900</tspan></tspan></tspan></text>
 <text class="TextShape"><tspan class="TextParagraph" font-family="Liberation Sans, sans-serif" font-size="353px" font-weight="400"><tspan class="TextPosition" x="44" y="4152"><tspan fill="rgb(0,0,0)" stroke="none">1050</tspan></tspan></tspan></text>
 <text class="TextShape"><tspan class="TextParagraph" font-family="Liberation Sans, sans-serif" font-size="353px" font-weight="400"><tspan class="TextPosition" x="44" y="3183"><tspan fill="rgb(0,0,0)" stroke="none">1200</tspan></tspan></tspan></text>
 <text class="TextShape"><tspan class="TextParagraph" font-family="Liberation Sans, sans-serif" font-size="353px" font-weight="400"><tspan class="TextPosition" x="44" y="2213"><tspan fill="rgb(0,0,0)" stroke="none">1350</tspan></tspan></tspan></text>
 <text class="TextShape"><tspan class="TextParagraph" font-family="Liberation Sans, sans-serif" font-size="353px" font-weight="400"><tspan class="TextPosition" x="44" y="1244"><tspan fill="rgb(0,0,0)" stroke="none">1500</tspan></tspan></tspan></text>
 <text class="TextShape"><tspan class="TextParagraph" font-family="Liberation Sans, sans-serif" font-size="459px" font-weight="400"><tspan class="TextPosition" x="2401" y="911"><tspan fill="rgb(0,0,0)" stroke="none">Covid-19. Muertes diarias en Europa Occidental (1)</tspan></tspan></tspan></text>
 <path fill="none" stroke="rgb(0,69,134)" stroke-width="50" stroke-linejoin="round" d="M 5433,1683 L 6231,1683"/>
 <path fill="rgb(0,69,134)" stroke="none" d="M 5727,1578 L 5727,1789 5937,1789 5937,1578 5727,1578 Z"/>
 <path fill="none" stroke="rgb(0,69,134)" stroke-linejoin="round" d="M 5727,1578 L 5727,1789 5937,1789 5937,1578 5727,1578 Z"/>
 <path fill="none" stroke="rgb(255,66,14)" stroke-width="50" stroke-linejoin="round" d="M 5433,2640 L 6231,2640"/>
 <path fill="rgb(255,66,14)" stroke="none" d="M 5727,2640 L 5832,2746 5937,2640 5832,2535 5727,2640 Z"/>
 <path fill="none" stroke="rgb(255,66,14)" stroke-linejoin="round" d="M 5727,2640 L 5832,2746 5937,2640 5832,2535 5727,2640 Z"/>
 <path fill="none" stroke="rgb(255,211,32)" stroke-width="50" stroke-linejoin="round" d="M 5433,3597 L 6231,3597"/>
 <path fill="rgb(255,211,32)" stroke="none" d="M 5727,3492 L 5832,3703 5937,3492 5727,3492 Z"/>
 <path fill="none" stroke="rgb(255,211,32)" stroke-linejoin="round" d="M 5727,3492 L 5832,3703 5937,3492 5727,3492 Z"/>
 <path fill="none" stroke="rgb(87,157,28)" stroke-width="50" stroke-linejoin="round" d="M 5433,4554 L 6231,4554"/>
 <path fill="rgb(87,157,28)" stroke="none" d="M 5727,4660 L 5937,4660 5832,4449 5727,4660 Z"/>
 <path fill="none" stroke="rgb(87,157,28)" stroke-linejoin="round" d="M 5727,4660 L 5937,4660 5832,4449 5727,4660 Z"/>
 <path fill="none" stroke="rgb(126,0,33)" stroke-width="50" stroke-linejoin="round" d="M 5433,5511 L 6231,5511"/>
 <path fill="rgb(126,0,33)" stroke="none" d="M 5727,5406 L 5727,5617 5937,5511 5727,5406 Z"/>
 <path fill="none" stroke="rgb(126,0,33)" stroke-linejoin="round" d="M 5727,5406 L 5727,5617 5937,5511 5727,5406 Z"/>
 <path fill="none" stroke="rgb(131,202,255)" stroke-width="50" stroke-linejoin="round" d="M 5433,6467 L 6231,6467"/>
 <path fill="rgb(131,202,255)" stroke="none" d="M 5727,6467 L 5937,6573 5937,6362 5727,6467 Z"/>
 <path fill="none" stroke="rgb(131,202,255)" stroke-linejoin="round" d="M 5727,6467 L 5937,6573 5937,6362 5727,6467 Z"/>
 <path fill="none" stroke="rgb(49,64,4)" stroke-width="50" stroke-linejoin="round" d="M 5433,7424 L 6231,7424"/>
 <path fill="rgb(49,64,4)" stroke="none" d="M 5727,7319 L 5727,7530 5937,7319 5937,7530 5727,7319 Z"/>
 <path fill="none" stroke="rgb(49,64,4)" stroke-linejoin="round" d="M 5727,7319 L 5727,7530 5937,7319 5937,7530 5727,7319 Z"/>
 <text class="TextShape"><tspan class="TextParagraph" font-family="Liberation Sans, sans-serif" font-size="353px" font-weight="400"><tspan class="TextPosition" x="6331" y="1803"><tspan fill="rgb(0,0,0)" stroke="none">Alemania</tspan></tspan></tspan></text>
 <text class="TextShape"><tspan class="TextParagraph" font-family="Liberation Sans, sans-serif" font-size="353px" font-weight="400"><tspan class="TextPosition" x="6331" y="2760"><tspan fill="rgb(0,0,0)" stroke="none">Blgica</tspan></tspan></tspan></text>
 <text class="TextShape"><tspan class="TextParagraph" font-family="Liberation Sans, sans-serif" font-size="353px" font-weight="400"><tspan class="TextPosition" x="6331" y="3717"><tspan fill="rgb(0,0,0)" stroke="none">Espaa</tspan></tspan></tspan></text>
 <text class="TextShape"><tspan class="TextParagraph" font-family="Liberation Sans, sans-serif" font-size="353px" font-weight="400"><tspan class="TextPosition" x="6331" y="4674"><tspan fill="rgb(0,0,0)" stroke="none">Francia</tspan></tspan></tspan></text>
 <text class="TextShape"><tspan class="TextParagraph" font-family="Liberation Sans, sans-serif" font-size="353px" font-weight="400"><tspan class="TextPosition" x="6331" y="5631"><tspan fill="rgb(0,0,0)" stroke="none">Holanda</tspan></tspan></tspan></text>
 <text class="TextShape"><tspan class="TextParagraph" font-family="Liberation Sans, sans-serif" font-size="353px" font-weight="400"><tspan class="TextPosition" x="6331" y="6587"><tspan fill="rgb(0,0,0)" stroke="none">Italia</tspan></tspan></tspan></text>
 <text class="TextShape"><tspan class="TextParagraph" font-family="Liberation Sans, sans-serif" font-size="353px" font-weight="400"><tspan class="TextPosition" x="6331" y="7544"><tspan fill="rgb(0,0,0)" stroke="none">Reino Unido</tspan></tspan></tspan></text>
</svg>