<?xml version="1.0" encoding="UTF-8"?>
<!DOCTYPE svg PUBLIC "-//W3C//DTD SVG 1.1//EN" "http://www.w3.org/Graphics/SVG/1.1/DTD/svg11.dtd">
<svg width="150mm" height="120mm" viewBox="0 0 15000 12000" version="1.1" xmlns="http://www.w3.org/2000/svg" xmlns:xlink="http://www.w3.org/1999/xlink" stroke-width="28.222" stroke-linejoin="round" xml:space="preserve">
 <path fill="rgb(255,255,255)" stroke="none" d="M 7500,12000 L 0,12000 0,0 15000,0 15000,12000 7500,12000 Z"/>
 <path fill="none" stroke="rgb(0,0,0)" stroke-linejoin="round" d="M 8115,10098 L 1545,10098 1545,1026 14685,1026 14685,10098 8115,10098 Z"/>
 <path fill="none" stroke="rgb(221,221,221)" stroke-linejoin="round" d="M 1545,1025 L 1545,10097"/>
 <path fill="none" stroke="rgb(221,221,221)" stroke-linejoin="round" d="M 1779,1025 L 1779,10097"/>
 <path fill="none" stroke="rgb(221,221,221)" stroke-linejoin="round" d="M 2014,1025 L 2014,10097"/>
 <path fill="none" stroke="rgb(221,221,221)" stroke-linejoin="round" d="M 2248,1025 L 2248,10097"/>
 <path fill="none" stroke="rgb(221,221,221)" stroke-linejoin="round" d="M 2483,1025 L 2483,10097"/>
 <path fill="none" stroke="rgb(221,221,221)" stroke-linejoin="round" d="M 2718,1025 L 2718,10097"/>
 <path fill="none" stroke="rgb(221,221,221)" stroke-linejoin="round" d="M 2952,1025 L 2952,10097"/>
 <path fill="none" stroke="rgb(221,221,221)" stroke-linejoin="round" d="M 3187,1025 L 3187,10097"/>
 <path fill="none" stroke="rgb(221,221,221)" stroke-linejoin="round" d="M 3422,1025 L 3422,10097"/>
 <path fill="none" stroke="rgb(221,221,221)" stroke-linejoin="round" d="M 3656,1025 L 3656,10097"/>
 <path fill="none" stroke="rgb(221,221,221)" stroke-linejoin="round" d="M 3891,1025 L 3891,10097"/>
 <path fill="none" stroke="rgb(221,221,221)" stroke-linejoin="round" d="M 4126,1025 L 4126,10097"/>
 <path fill="none" stroke="rgb(221,221,221)" stroke-linejoin="round" d="M 4360,1025 L 4360,10097"/>
 <path fill="none" stroke="rgb(221,221,221)" stroke-linejoin="round" d="M 4595,1025 L 4595,10097"/>
 <path fill="none" stroke="rgb(221,221,221)" stroke-linejoin="round" d="M 4830,1025 L 4830,10097"/>
 <path fill="none" stroke="rgb(221,221,221)" stroke-linejoin="round" d="M 5064,1025 L 5064,10097"/>
 <path fill="none" stroke="rgb(221,221,221)" stroke-linejoin="round" d="M 5299,1025 L 5299,10097"/>
 <path fill="none" stroke="rgb(221,221,221)" stroke-linejoin="round" d="M 5534,1025 L 5534,10097"/>
 <path fill="none" stroke="rgb(221,221,221)" stroke-linejoin="round" d="M 5768,1025 L 5768,10097"/>
 <path fill="none" stroke="rgb(221,221,221)" stroke-linejoin="round" d="M 6003,1025 L 6003,10097"/>
 <path fill="none" stroke="rgb(221,221,221)" stroke-linejoin="round" d="M 6238,1025 L 6238,10097"/>
 <path fill="none" stroke="rgb(221,221,221)" stroke-linejoin="round" d="M 6472,1025 L 6472,10097"/>
 <path fill="none" stroke="rgb(221,221,221)" stroke-linejoin="round" d="M 6707,1025 L 6707,10097"/>
 <path fill="none" stroke="rgb(221,221,221)" stroke-linejoin="round" d="M 6942,1025 L 6942,10097"/>
 <path fill="none" stroke="rgb(221,221,221)" stroke-linejoin="round" d="M 7176,1025 L 7176,10097"/>
 <path fill="none" stroke="rgb(221,221,221)" stroke-linejoin="round" d="M 7411,1025 L 7411,10097"/>
 <path fill="none" stroke="rgb(221,221,221)" stroke-linejoin="round" d="M 7645,1025 L 7645,10097"/>
 <path fill="none" stroke="rgb(221,221,221)" stroke-linejoin="round" d="M 7879,1025 L 7879,10097"/>
 <path fill="none" stroke="rgb(221,221,221)" stroke-linejoin="round" d="M 8114,1025 L 8114,10097"/>
 <path fill="none" stroke="rgb(221,221,221)" stroke-linejoin="round" d="M 8349,1025 L 8349,10097"/>
 <path fill="none" stroke="rgb(221,221,221)" stroke-linejoin="round" d="M 8583,1025 L 8583,10097"/>
 <path fill="none" stroke="rgb(221,221,221)" stroke-linejoin="round" d="M 8818,1025 L 8818,10097"/>
 <path fill="none" stroke="rgb(221,221,221)" stroke-linejoin="round" d="M 9053,1025 L 9053,10097"/>
 <path fill="none" stroke="rgb(221,221,221)" stroke-linejoin="round" d="M 9287,1025 L 9287,10097"/>
 <path fill="none" stroke="rgb(221,221,221)" stroke-linejoin="round" d="M 9522,1025 L 9522,10097"/>
 <path fill="none" stroke="rgb(221,221,221)" stroke-linejoin="round" d="M 9757,1025 L 9757,10097"/>
 <path fill="none" stroke="rgb(221,221,221)" stroke-linejoin="round" d="M 9991,1025 L 9991,10097"/>
 <path fill="none" stroke="rgb(221,221,221)" stroke-linejoin="round" d="M 10226,1025 L 10226,10097"/>
 <path fill="none" stroke="rgb(221,221,221)" stroke-linejoin="round" d="M 10461,1025 L 10461,10097"/>
 <path fill="none" stroke="rgb(221,221,221)" stroke-linejoin="round" d="M 10695,1025 L 10695,10097"/>
 <path fill="none" stroke="rgb(221,221,221)" stroke-linejoin="round" d="M 10930,1025 L 10930,10097"/>
 <path fill="none" stroke="rgb(221,221,221)" stroke-linejoin="round" d="M 11165,1025 L 11165,10097"/>
 <path fill="none" stroke="rgb(221,221,221)" stroke-linejoin="round" d="M 11399,1025 L 11399,10097"/>
 <path fill="none" stroke="rgb(221,221,221)" stroke-linejoin="round" d="M 11634,1025 L 11634,10097"/>
 <path fill="none" stroke="rgb(221,221,221)" stroke-linejoin="round" d="M 11869,1025 L 11869,10097"/>
 <path fill="none" stroke="rgb(221,221,221)" stroke-linejoin="round" d="M 12103,1025 L 12103,10097"/>
 <path fill="none" stroke="rgb(221,221,221)" stroke-linejoin="round" d="M 12338,1025 L 12338,10097"/>
 <path fill="none" stroke="rgb(221,221,221)" stroke-linejoin="round" d="M 12573,1025 L 12573,10097"/>
 <path fill="none" stroke="rgb(221,221,221)" stroke-linejoin="round" d="M 12807,1025 L 12807,10097"/>
 <path fill="none" stroke="rgb(221,221,221)" stroke-linejoin="round" d="M 13042,1025 L 13042,10097"/>
 <path fill="none" stroke="rgb(221,221,221)" stroke-linejoin="round" d="M 13277,1025 L 13277,10097"/>
 <path fill="none" stroke="rgb(221,221,221)" stroke-linejoin="round" d="M 13511,1025 L 13511,10097"/>
 <path fill="none" stroke="rgb(221,221,221)" stroke-linejoin="round" d="M 13746,1025 L 13746,10097"/>
 <path fill="none" stroke="rgb(221,221,221)" stroke-linejoin="round" d="M 13981,1025 L 13981,10097"/>
 <path fill="none" stroke="rgb(221,221,221)" stroke-linejoin="round" d="M 14215,1025 L 14215,10097"/>
 <path fill="none" stroke="rgb(221,221,221)" stroke-linejoin="round" d="M 14450,1025 L 14450,10097"/>
 <path fill="none" stroke="rgb(221,221,221)" stroke-linejoin="round" d="M 14685,1025 L 14685,10097"/>
 <path fill="none" stroke="rgb(0,0,0)" stroke-linejoin="round" d="M 14685,10097 L 1545,10097"/>
 <path fill="none" stroke="rgb(0,0,0)" stroke-linejoin="round" d="M 14685,8385 L 1545,8385"/>
 <path fill="none" stroke="rgb(0,0,0)" stroke-linejoin="round" d="M 14685,6673 L 1545,6673"/>
 <path fill="none" stroke="rgb(0,0,0)" stroke-linejoin="round" d="M 14685,4963 L 1545,4963"/>
 <path fill="none" stroke="rgb(0,0,0)" stroke-linejoin="round" d="M 14685,3251 L 1545,3251"/>
 <path fill="none" stroke="rgb(0,0,0)" stroke-linejoin="round" d="M 14685,1540 L 1545,1540"/>
 <path fill="none" stroke="rgb(0,0,0)" stroke-linejoin="round" d="M 1545,10247 L 1545,10097"/>
 <path fill="none" stroke="rgb(0,0,0)" stroke-linejoin="round" d="M 1545,10247 L 1545,10097"/>
 <path fill="none" stroke="rgb(0,0,0)" stroke-linejoin="round" d="M 3187,10247 L 3187,10097"/>
 <path fill="none" stroke="rgb(0,0,0)" stroke-linejoin="round" d="M 3187,10247 L 3187,10097"/>
 <path fill="none" stroke="rgb(0,0,0)" stroke-linejoin="round" d="M 4830,10247 L 4830,10097"/>
 <path fill="none" stroke="rgb(0,0,0)" stroke-linejoin="round" d="M 4830,10247 L 4830,10097"/>
 <path fill="none" stroke="rgb(0,0,0)" stroke-linejoin="round" d="M 6472,10247 L 6472,10097"/>
 <path fill="none" stroke="rgb(0,0,0)" stroke-linejoin="round" d="M 6472,10247 L 6472,10097"/>
 <path fill="none" stroke="rgb(0,0,0)" stroke-linejoin="round" d="M 8114,10247 L 8114,10097"/>
 <path fill="none" stroke="rgb(0,0,0)" stroke-linejoin="round" d="M 8114,10247 L 8114,10097"/>
 <path fill="none" stroke="rgb(0,0,0)" stroke-linejoin="round" d="M 9757,10247 L 9757,10097"/>
 <path fill="none" stroke="rgb(0,0,0)" stroke-linejoin="round" d="M 9757,10247 L 9757,10097"/>
 <path fill="none" stroke="rgb(0,0,0)" stroke-linejoin="round" d="M 11399,10247 L 11399,10097"/>
 <path fill="none" stroke="rgb(0,0,0)" stroke-linejoin="round" d="M 11399,10247 L 11399,10097"/>
 <path fill="none" stroke="rgb(0,0,0)" stroke-linejoin="round" d="M 13042,10247 L 13042,10097"/>
 <path fill="none" stroke="rgb(0,0,0)" stroke-linejoin="round" d="M 13042,10247 L 13042,10097"/>
 <path fill="none" stroke="rgb(0,0,0)" stroke-linejoin="round" d="M 14685,10247 L 14685,10097"/>
 <path fill="none" stroke="rgb(0,0,0)" stroke-linejoin="round" d="M 14685,10247 L 14685,10097"/>
 <path fill="none" stroke="rgb(0,0,0)" stroke-linejoin="round" d="M 1545,10097 L 14685,10097"/>
 <path fill="none" stroke="rgb(0,0,0)" stroke-linejoin="round" d="M 1395,10097 L 1545,10097"/>
 <path fill="none" stroke="rgb(0,0,0)" stroke-linejoin="round" d="M 1395,10097 L 1545,10097"/>
 <path fill="none" stroke="rgb(0,0,0)" stroke-linejoin="round" d="M 1395,8385 L 1545,8385"/>
 <path fill="none" stroke="rgb(0,0,0)" stroke-linejoin="round" d="M 1395,8385 L 1545,8385"/>
 <path fill="none" stroke="rgb(0,0,0)" stroke-linejoin="round" d="M 1395,6673 L 1545,6673"/>
 <path fill="none" stroke="rgb(0,0,0)" stroke-linejoin="round" d="M 1395,6673 L 1545,6673"/>
 <path fill="none" stroke="rgb(0,0,0)" stroke-linejoin="round" d="M 1395,4963 L 1545,4963"/>
 <path fill="none" stroke="rgb(0,0,0)" stroke-linejoin="round" d="M 1395,4963 L 1545,4963"/>
 <path fill="none" stroke="rgb(0,0,0)" stroke-linejoin="round" d="M 1395,3251 L 1545,3251"/>
 <path fill="none" stroke="rgb(0,0,0)" stroke-linejoin="round" d="M 1395,3251 L 1545,3251"/>
 <path fill="none" stroke="rgb(0,0,0)" stroke-linejoin="round" d="M 1395,1540 L 1545,1540"/>
 <path fill="none" stroke="rgb(0,0,0)" stroke-linejoin="round" d="M 1395,1540 L 1545,1540"/>
 <path fill="none" stroke="rgb(0,0,0)" stroke-linejoin="round" d="M 1545,10097 L 1545,1025"/>
 <path fill="none" stroke="rgb(0,0,0)" stroke-width="50" stroke-linejoin="round" d="M 1662,9280 L 1896,7870 2131,6849 2366,6372 2600,6064 2835,5810 3070,5565 3304,5283 3539,5051 3774,4873 4008,4571 4243,4434 4478,4281 4712,4124 4947,3959 5182,3823 5416,3646 5651,3478 5886,3316 6120,3240 6355,3088 6590,2944 6824,2829 7059,2694 7294,2578 7527,2486 7762,2398 7997,2305 8231,2202 8466,2101 8701,2004 8935,1930 9170,1872 9405,1814 9639,1760 9874,1701 10109,1648 10343,1614 10578,1557 10813,1527 11047,1498 11282,1465 11517,1434 11751,1405 11986,1376 12221,1351 12455,1330 12690,1313 12925,1293 13159,1271 13394,1250 13629,1237 13863,1207 14098,1193 14333,1179 14567,1167"/>
 <path fill="rgb(0,0,0)" stroke="none" d="M 1562,9280 L 1662,9380 1762,9280 1662,9180 1562,9280 Z"/>
 <path fill="none" stroke="rgb(0,0,0)" stroke-linejoin="round" d="M 1562,9280 L 1662,9380 1762,9280 1662,9180 1562,9280 Z"/>
 <path fill="rgb(0,0,0)" stroke="none" d="M 1796,7870 L 1896,7970 1996,7870 1896,7770 1796,7870 Z"/>
 <path fill="none" stroke="rgb(0,0,0)" stroke-linejoin="round" d="M 1796,7870 L 1896,7970 1996,7870 1896,7770 1796,7870 Z"/>
 <path fill="rgb(0,0,0)" stroke="none" d="M 2031,6849 L 2131,6949 2231,6849 2131,6749 2031,6849 Z"/>
 <path fill="none" stroke="rgb(0,0,0)" stroke-linejoin="round" d="M 2031,6849 L 2131,6949 2231,6849 2131,6749 2031,6849 Z"/>
 <path fill="rgb(0,0,0)" stroke="none" d="M 2266,6372 L 2366,6472 2466,6372 2366,6272 2266,6372 Z"/>
 <path fill="none" stroke="rgb(0,0,0)" stroke-linejoin="round" d="M 2266,6372 L 2366,6472 2466,6372 2366,6272 2266,6372 Z"/>
 <path fill="rgb(0,0,0)" stroke="none" d="M 2500,6064 L 2600,6164 2700,6064 2600,5965 2500,6064 Z"/>
 <path fill="none" stroke="rgb(0,0,0)" stroke-linejoin="round" d="M 2500,6064 L 2600,6164 2700,6064 2600,5965 2500,6064 Z"/>
 <path fill="rgb(0,0,0)" stroke="none" d="M 2735,5810 L 2835,5910 2935,5810 2835,5710 2735,5810 Z"/>
 <path fill="none" stroke="rgb(0,0,0)" stroke-linejoin="round" d="M 2735,5810 L 2835,5910 2935,5810 2835,5710 2735,5810 Z"/>
 <path fill="rgb(0,0,0)" stroke="none" d="M 2970,5565 L 3070,5665 3170,5565 3070,5465 2970,5565 Z"/>
 <path fill="none" stroke="rgb(0,0,0)" stroke-linejoin="round" d="M 2970,5565 L 3070,5665 3170,5565 3070,5465 2970,5565 Z"/>
 <path fill="rgb(0,0,0)" stroke="none" d="M 3204,5283 L 3304,5383 3404,5283 3304,5183 3204,5283 Z"/>
 <path fill="none" stroke="rgb(0,0,0)" stroke-linejoin="round" d="M 3204,5283 L 3304,5383 3404,5283 3304,5183 3204,5283 Z"/>
 <path fill="rgb(0,0,0)" stroke="none" d="M 3439,5051 L 3539,5151 3639,5051 3539,4951 3439,5051 Z"/>
 <path fill="none" stroke="rgb(0,0,0)" stroke-linejoin="round" d="M 3439,5051 L 3539,5151 3639,5051 3539,4951 3439,5051 Z"/>
 <path fill="rgb(0,0,0)" stroke="none" d="M 3674,4873 L 3774,4973 3874,4873 3774,4773 3674,4873 Z"/>
 <path fill="none" stroke="rgb(0,0,0)" stroke-linejoin="round" d="M 3674,4873 L 3774,4973 3874,4873 3774,4773 3674,4873 Z"/>
 <path fill="rgb(0,0,0)" stroke="none" d="M 3908,4571 L 4008,4671 4108,4571 4008,4471 3908,4571 Z"/>
 <path fill="none" stroke="rgb(0,0,0)" stroke-linejoin="round" d="M 3908,4571 L 4008,4671 4108,4571 4008,4471 3908,4571 Z"/>
 <path fill="rgb(0,0,0)" stroke="none" d="M 4143,4434 L 4243,4534 4343,4434 4243,4334 4143,4434 Z"/>
 <path fill="none" stroke="rgb(0,0,0)" stroke-linejoin="round" d="M 4143,4434 L 4243,4534 4343,4434 4243,4334 4143,4434 Z"/>
 <path fill="rgb(0,0,0)" stroke="none" d="M 4378,4281 L 4478,4381 4578,4281 4478,4181 4378,4281 Z"/>
 <path fill="none" stroke="rgb(0,0,0)" stroke-linejoin="round" d="M 4378,4281 L 4478,4381 4578,4281 4478,4181 4378,4281 Z"/>
 <path fill="rgb(0,0,0)" stroke="none" d="M 4612,4124 L 4712,4224 4812,4124 4712,4024 4612,4124 Z"/>
 <path fill="none" stroke="rgb(0,0,0)" stroke-linejoin="round" d="M 4612,4124 L 4712,4224 4812,4124 4712,4024 4612,4124 Z"/>
 <path fill="rgb(0,0,0)" stroke="none" d="M 4847,3959 L 4947,4059 5047,3959 4947,3859 4847,3959 Z"/>
 <path fill="none" stroke="rgb(0,0,0)" stroke-linejoin="round" d="M 4847,3959 L 4947,4059 5047,3959 4947,3859 4847,3959 Z"/>
 <path fill="rgb(0,0,0)" stroke="none" d="M 5082,3823 L 5182,3923 5282,3823 5182,3723 5082,3823 Z"/>
 <path fill="none" stroke="rgb(0,0,0)" stroke-linejoin="round" d="M 5082,3823 L 5182,3923 5282,3823 5182,3723 5082,3823 Z"/>
 <path fill="rgb(0,0,0)" stroke="none" d="M 5316,3646 L 5416,3746 5516,3646 5416,3546 5316,3646 Z"/>
 <path fill="none" stroke="rgb(0,0,0)" stroke-linejoin="round" d="M 5316,3646 L 5416,3746 5516,3646 5416,3546 5316,3646 Z"/>
 <path fill="rgb(0,0,0)" stroke="none" d="M 5551,3478 L 5651,3578 5751,3478 5651,3378 5551,3478 Z"/>
 <path fill="none" stroke="rgb(0,0,0)" stroke-linejoin="round" d="M 5551,3478 L 5651,3578 5751,3478 5651,3378 5551,3478 Z"/>
 <path fill="rgb(0,0,0)" stroke="none" d="M 5786,3316 L 5886,3416 5986,3316 5886,3216 5786,3316 Z"/>
 <path fill="none" stroke="rgb(0,0,0)" stroke-linejoin="round" d="M 5786,3316 L 5886,3416 5986,3316 5886,3216 5786,3316 Z"/>
 <path fill="rgb(0,0,0)" stroke="none" d="M 6020,3240 L 6120,3340 6220,3240 6120,3140 6020,3240 Z"/>
 <path fill="none" stroke="rgb(0,0,0)" stroke-linejoin="round" d="M 6020,3240 L 6120,3340 6220,3240 6120,3140 6020,3240 Z"/>
 <path fill="rgb(0,0,0)" stroke="none" d="M 6255,3088 L 6355,3188 6455,3088 6355,2988 6255,3088 Z"/>
 <path fill="none" stroke="rgb(0,0,0)" stroke-linejoin="round" d="M 6255,3088 L 6355,3188 6455,3088 6355,2988 6255,3088 Z"/>
 <path fill="rgb(0,0,0)" stroke="none" d="M 6490,2944 L 6590,3044 6690,2944 6590,2844 6490,2944 Z"/>
 <path fill="none" stroke="rgb(0,0,0)" stroke-linejoin="round" d="M 6490,2944 L 6590,3044 6690,2944 6590,2844 6490,2944 Z"/>
 <path fill="rgb(0,0,0)" stroke="none" d="M 6724,2829 L 6824,2929 6924,2829 6824,2729 6724,2829 Z"/>
 <path fill="none" stroke="rgb(0,0,0)" stroke-linejoin="round" d="M 6724,2829 L 6824,2929 6924,2829 6824,2729 6724,2829 Z"/>
 <path fill="rgb(0,0,0)" stroke="none" d="M 6959,2694 L 7059,2794 7159,2694 7059,2594 6959,2694 Z"/>
 <path fill="none" stroke="rgb(0,0,0)" stroke-linejoin="round" d="M 6959,2694 L 7059,2794 7159,2694 7059,2594 6959,2694 Z"/>
 <path fill="rgb(0,0,0)" stroke="none" d="M 7194,2578 L 7294,2678 7394,2578 7294,2478 7194,2578 Z"/>
 <path fill="none" stroke="rgb(0,0,0)" stroke-linejoin="round" d="M 7194,2578 L 7294,2678 7394,2578 7294,2478 7194,2578 Z"/>
 <path fill="rgb(0,0,0)" stroke="none" d="M 7428,2486 L 7527,2586 7627,2486 7527,2386 7428,2486 Z"/>
 <path fill="none" stroke="rgb(0,0,0)" stroke-linejoin="round" d="M 7428,2486 L 7527,2586 7627,2486 7527,2386 7428,2486 Z"/>
 <path fill="rgb(0,0,0)" stroke="none" d="M 7662,2398 L 7762,2498 7862,2398 7762,2298 7662,2398 Z"/>
 <path fill="none" stroke="rgb(0,0,0)" stroke-linejoin="round" d="M 7662,2398 L 7762,2498 7862,2398 7762,2298 7662,2398 Z"/>
 <path fill="rgb(0,0,0)" stroke="none" d="M 7897,2305 L 7997,2405 8097,2305 7997,2205 7897,2305 Z"/>
 <path fill="none" stroke="rgb(0,0,0)" stroke-linejoin="round" d="M 7897,2305 L 7997,2405 8097,2305 7997,2205 7897,2305 Z"/>
 <path fill="rgb(0,0,0)" stroke="none" d="M 8131,2202 L 8231,2302 8331,2202 8231,2102 8131,2202 Z"/>
 <path fill="none" stroke="rgb(0,0,0)" stroke-linejoin="round" d="M 8131,2202 L 8231,2302 8331,2202 8231,2102 8131,2202 Z"/>
 <path fill="rgb(0,0,0)" stroke="none" d="M 8366,2101 L 8466,2201 8566,2101 8466,2001 8366,2101 Z"/>
 <path fill="none" stroke="rgb(0,0,0)" stroke-linejoin="round" d="M 8366,2101 L 8466,2201 8566,2101 8466,2001 8366,2101 Z"/>
 <path fill="rgb(0,0,0)" stroke="none" d="M 8601,2004 L 8701,2104 8801,2004 8701,1904 8601,2004 Z"/>
 <path fill="none" stroke="rgb(0,0,0)" stroke-linejoin="round" d="M 8601,2004 L 8701,2104 8801,2004 8701,1904 8601,2004 Z"/>
 <path fill="rgb(0,0,0)" stroke="none" d="M 8835,1930 L 8935,2030 9035,1930 8935,1830 8835,1930 Z"/>
 <path fill="none" stroke="rgb(0,0,0)" stroke-linejoin="round" d="M 8835,1930 L 8935,2030 9035,1930 8935,1830 8835,1930 Z"/>
 <path fill="rgb(0,0,0)" stroke="none" d="M 9070,1872 L 9170,1972 9270,1872 9170,1772 9070,1872 Z"/>
 <path fill="none" stroke="rgb(0,0,0)" stroke-linejoin="round" d="M 9070,1872 L 9170,1972 9270,1872 9170,1772 9070,1872 Z"/>
 <path fill="rgb(0,0,0)" stroke="none" d="M 9305,1814 L 9405,1914 9505,1814 9405,1714 9305,1814 Z"/>
 <path fill="none" stroke="rgb(0,0,0)" stroke-linejoin="round" d="M 9305,1814 L 9405,1914 9505,1814 9405,1714 9305,1814 Z"/>
 <path fill="rgb(0,0,0)" stroke="none" d="M 9539,1760 L 9639,1860 9739,1760 9639,1660 9539,1760 Z"/>
 <path fill="none" stroke="rgb(0,0,0)" stroke-linejoin="round" d="M 9539,1760 L 9639,1860 9739,1760 9639,1660 9539,1760 Z"/>
 <path fill="rgb(0,0,0)" stroke="none" d="M 9774,1701 L 9874,1801 9974,1701 9874,1601 9774,1701 Z"/>
 <path fill="none" stroke="rgb(0,0,0)" stroke-linejoin="round" d="M 9774,1701 L 9874,1801 9974,1701 9874,1601 9774,1701 Z"/>
 <path fill="rgb(0,0,0)" stroke="none" d="M 10009,1648 L 10109,1748 10209,1648 10109,1548 10009,1648 Z"/>
 <path fill="none" stroke="rgb(0,0,0)" stroke-linejoin="round" d="M 10009,1648 L 10109,1748 10209,1648 10109,1548 10009,1648 Z"/>
 <path fill="rgb(0,0,0)" stroke="none" d="M 10243,1614 L 10343,1714 10443,1614 10343,1514 10243,1614 Z"/>
 <path fill="none" stroke="rgb(0,0,0)" stroke-linejoin="round" d="M 10243,1614 L 10343,1714 10443,1614 10343,1514 10243,1614 Z"/>
 <path fill="rgb(0,0,0)" stroke="none" d="M 10478,1557 L 10578,1657 10678,1557 10578,1457 10478,1557 Z"/>
 <path fill="none" stroke="rgb(0,0,0)" stroke-linejoin="round" d="M 10478,1557 L 10578,1657 10678,1557 10578,1457 10478,1557 Z"/>
 <path fill="rgb(0,0,0)" stroke="none" d="M 10713,1527 L 10813,1627 10913,1527 10813,1427 10713,1527 Z"/>
 <path fill="none" stroke="rgb(0,0,0)" stroke-linejoin="round" d="M 10713,1527 L 10813,1627 10913,1527 10813,1427 10713,1527 Z"/>
 <path fill="rgb(0,0,0)" stroke="none" d="M 10947,1498 L 11047,1598 11147,1498 11047,1398 10947,1498 Z"/>
 <path fill="none" stroke="rgb(0,0,0)" stroke-linejoin="round" d="M 10947,1498 L 11047,1598 11147,1498 11047,1398 10947,1498 Z"/>
 <path fill="rgb(0,0,0)" stroke="none" d="M 11182,1465 L 11282,1565 11382,1465 11282,1365 11182,1465 Z"/>
 <path fill="none" stroke="rgb(0,0,0)" stroke-linejoin="round" d="M 11182,1465 L 11282,1565 11382,1465 11282,1365 11182,1465 Z"/>
 <path fill="rgb(0,0,0)" stroke="none" d="M 11417,1434 L 11517,1534 11617,1434 11517,1334 11417,1434 Z"/>
 <path fill="none" stroke="rgb(0,0,0)" stroke-linejoin="round" d="M 11417,1434 L 11517,1534 11617,1434 11517,1334 11417,1434 Z"/>
 <path fill="rgb(0,0,0)" stroke="none" d="M 11651,1405 L 11751,1505 11851,1405 11751,1305 11651,1405 Z"/>
 <path fill="none" stroke="rgb(0,0,0)" stroke-linejoin="round" d="M 11651,1405 L 11751,1505 11851,1405 11751,1305 11651,1405 Z"/>
 <path fill="rgb(0,0,0)" stroke="none" d="M 11886,1376 L 11986,1476 12086,1376 11986,1276 11886,1376 Z"/>
 <path fill="none" stroke="rgb(0,0,0)" stroke-linejoin="round" d="M 11886,1376 L 11986,1476 12086,1376 11986,1276 11886,1376 Z"/>
 <path fill="rgb(0,0,0)" stroke="none" d="M 12121,1351 L 12221,1451 12321,1351 12221,1251 12121,1351 Z"/>
 <path fill="none" stroke="rgb(0,0,0)" stroke-linejoin="round" d="M 12121,1351 L 12221,1451 12321,1351 12221,1251 12121,1351 Z"/>
 <path fill="rgb(0,0,0)" stroke="none" d="M 12355,1330 L 12455,1430 12555,1330 12455,1230 12355,1330 Z"/>
 <path fill="none" stroke="rgb(0,0,0)" stroke-linejoin="round" d="M 12355,1330 L 12455,1430 12555,1330 12455,1230 12355,1330 Z"/>
 <path fill="rgb(0,0,0)" stroke="none" d="M 12590,1313 L 12690,1413 12790,1313 12690,1213 12590,1313 Z"/>
 <path fill="none" stroke="rgb(0,0,0)" stroke-linejoin="round" d="M 12590,1313 L 12690,1413 12790,1313 12690,1213 12590,1313 Z"/>
 <path fill="rgb(0,0,0)" stroke="none" d="M 12825,1293 L 12925,1393 13025,1293 12925,1193 12825,1293 Z"/>
 <path fill="none" stroke="rgb(0,0,0)" stroke-linejoin="round" d="M 12825,1293 L 12925,1393 13025,1293 12925,1193 12825,1293 Z"/>
 <path fill="rgb(0,0,0)" stroke="none" d="M 13059,1271 L 13159,1371 13259,1271 13159,1171 13059,1271 Z"/>
 <path fill="none" stroke="rgb(0,0,0)" stroke-linejoin="round" d="M 13059,1271 L 13159,1371 13259,1271 13159,1171 13059,1271 Z"/>
 <path fill="rgb(0,0,0)" stroke="none" d="M 13294,1250 L 13394,1350 13494,1250 13394,1150 13294,1250 Z"/>
 <path fill="none" stroke="rgb(0,0,0)" stroke-linejoin="round" d="M 13294,1250 L 13394,1350 13494,1250 13394,1150 13294,1250 Z"/>
 <path fill="rgb(0,0,0)" stroke="none" d="M 13529,1237 L 13629,1337 13729,1237 13629,1137 13529,1237 Z"/>
 <path fill="none" stroke="rgb(0,0,0)" stroke-linejoin="round" d="M 13529,1237 L 13629,1337 13729,1237 13629,1137 13529,1237 Z"/>
 <path fill="rgb(0,0,0)" stroke="none" d="M 13763,1207 L 13863,1307 13963,1207 13863,1107 13763,1207 Z"/>
 <path fill="none" stroke="rgb(0,0,0)" stroke-linejoin="round" d="M 13763,1207 L 13863,1307 13963,1207 13863,1107 13763,1207 Z"/>
 <path fill="rgb(0,0,0)" stroke="none" d="M 13998,1193 L 14098,1293 14198,1193 14098,1093 13998,1193 Z"/>
 <path fill="none" stroke="rgb(0,0,0)" stroke-linejoin="round" d="M 13998,1193 L 14098,1293 14198,1193 14098,1093 13998,1193 Z"/>
 <path fill="rgb(0,0,0)" stroke="none" d="M 14233,1179 L 14333,1279 14433,1179 14333,1079 14233,1179 Z"/>
 <path fill="none" stroke="rgb(0,0,0)" stroke-linejoin="round" d="M 14233,1179 L 14333,1279 14433,1179 14333,1079 14233,1179 Z"/>
 <path fill="rgb(0,0,0)" stroke="none" d="M 14467,1167 L 14567,1267 14667,1167 14567,1067 14467,1167 Z"/>
 <path fill="none" stroke="rgb(0,0,0)" stroke-linejoin="round" d="M 14467,1167 L 14567,1267 14667,1167 14567,1067 14467,1167 Z"/>
 <path fill="none" stroke="rgb(255,66,14)" stroke-width="50" stroke-linejoin="round" d="M 1662,9581 L 1896,9581 2131,9581 2366,9581 2600,9581 2835,9280 3070,8385 3304,8036 3539,7520 3774,7066 4008,6803 4243,6576 4478,6372 4712,6166 4947,6032 5182,5712 5416,5590 5651,5256 5886,4964 6120,4603 6355,4401 6590,4159 6824,3895 7059,3662 7294,3440 7527,3314 7762,3169 7997,3016 8231,2850 8466,2737 8701,2572 8935,2471 9170,2362 9405,2227 9639,2091 9874,1968 10109,1871 10343,1781 10578,1717 10813,1659 11047,1582 11282,1524 11517,1467 11751,1419 11986,1375 12221,1340 12455,1316 12690,1287 12925,1255 13159,1226 13394,1204 13629,1182 13863,1163 14098,1148 14333,1134 14567,1113"/>
 <path fill="rgb(255,66,14)" stroke="none" d="M 1562,9581 L 1662,9681 1762,9581 1662,9481 1562,9581 Z"/>
 <path fill="none" stroke="rgb(255,66,14)" stroke-linejoin="round" d="M 1562,9581 L 1662,9681 1762,9581 1662,9481 1562,9581 Z"/>
 <path fill="rgb(255,66,14)" stroke="none" d="M 1796,9581 L 1896,9681 1996,9581 1896,9481 1796,9581 Z"/>
 <path fill="none" stroke="rgb(255,66,14)" stroke-linejoin="round" d="M 1796,9581 L 1896,9681 1996,9581 1896,9481 1796,9581 Z"/>
 <path fill="rgb(255,66,14)" stroke="none" d="M 2031,9581 L 2131,9681 2231,9581 2131,9481 2031,9581 Z"/>
 <path fill="none" stroke="rgb(255,66,14)" stroke-linejoin="round" d="M 2031,9581 L 2131,9681 2231,9581 2131,9481 2031,9581 Z"/>
 <path fill="rgb(255,66,14)" stroke="none" d="M 2266,9581 L 2366,9681 2466,9581 2366,9481 2266,9581 Z"/>
 <path fill="none" stroke="rgb(255,66,14)" stroke-linejoin="round" d="M 2266,9581 L 2366,9681 2466,9581 2366,9481 2266,9581 Z"/>
 <path fill="rgb(255,66,14)" stroke="none" d="M 2500,9581 L 2600,9681 2700,9581 2600,9481 2500,9581 Z"/>
 <path fill="none" stroke="rgb(255,66,14)" stroke-linejoin="round" d="M 2500,9581 L 2600,9681 2700,9581 2600,9481 2500,9581 Z"/>
 <path fill="rgb(255,66,14)" stroke="none" d="M 2735,9280 L 2835,9380 2935,9280 2835,9180 2735,9280 Z"/>
 <path fill="none" stroke="rgb(255,66,14)" stroke-linejoin="round" d="M 2735,9280 L 2835,9380 2935,9280 2835,9180 2735,9280 Z"/>
 <path fill="rgb(255,66,14)" stroke="none" d="M 2970,8385 L 3070,8485 3170,8385 3070,8285 2970,8385 Z"/>
 <path fill="none" stroke="rgb(255,66,14)" stroke-linejoin="round" d="M 2970,8385 L 3070,8485 3170,8385 3070,8285 2970,8385 Z"/>
 <path fill="rgb(255,66,14)" stroke="none" d="M 3204,8036 L 3304,8136 3404,8036 3304,7936 3204,8036 Z"/>
 <path fill="none" stroke="rgb(255,66,14)" stroke-linejoin="round" d="M 3204,8036 L 3304,8136 3404,8036 3304,7936 3204,8036 Z"/>
 <path fill="rgb(255,66,14)" stroke="none" d="M 3439,7520 L 3539,7620 3639,7520 3539,7420 3439,7520 Z"/>
 <path fill="none" stroke="rgb(255,66,14)" stroke-linejoin="round" d="M 3439,7520 L 3539,7620 3639,7520 3539,7420 3439,7520 Z"/>
 <path fill="rgb(255,66,14)" stroke="none" d="M 3674,7066 L 3774,7166 3874,7066 3774,6966 3674,7066 Z"/>
 <path fill="none" stroke="rgb(255,66,14)" stroke-linejoin="round" d="M 3674,7066 L 3774,7166 3874,7066 3774,6966 3674,7066 Z"/>
 <path fill="rgb(255,66,14)" stroke="none" d="M 3908,6803 L 4008,6903 4108,6803 4008,6703 3908,6803 Z"/>
 <path fill="none" stroke="rgb(255,66,14)" stroke-linejoin="round" d="M 3908,6803 L 4008,6903 4108,6803 4008,6703 3908,6803 Z"/>
 <path fill="rgb(255,66,14)" stroke="none" d="M 4143,6576 L 4243,6676 4343,6576 4243,6476 4143,6576 Z"/>
 <path fill="none" stroke="rgb(255,66,14)" stroke-linejoin="round" d="M 4143,6576 L 4243,6676 4343,6576 4243,6476 4143,6576 Z"/>
 <path fill="rgb(255,66,14)" stroke="none" d="M 4378,6372 L 4478,6472 4578,6372 4478,6272 4378,6372 Z"/>
 <path fill="none" stroke="rgb(255,66,14)" stroke-linejoin="round" d="M 4378,6372 L 4478,6472 4578,6372 4478,6272 4378,6372 Z"/>
 <path fill="rgb(255,66,14)" stroke="none" d="M 4612,6166 L 4712,6266 4812,6166 4712,6066 4612,6166 Z"/>
 <path fill="none" stroke="rgb(255,66,14)" stroke-linejoin="round" d="M 4612,6166 L 4712,6266 4812,6166 4712,6066 4612,6166 Z"/>
 <path fill="rgb(255,66,14)" stroke="none" d="M 4847,6032 L 4947,6132 5047,6032 4947,5933 4847,6032 Z"/>
 <path fill="none" stroke="rgb(255,66,14)" stroke-linejoin="round" d="M 4847,6032 L 4947,6132 5047,6032 4947,5933 4847,6032 Z"/>
 <path fill="rgb(255,66,14)" stroke="none" d="M 5082,5712 L 5182,5812 5282,5712 5182,5612 5082,5712 Z"/>
 <path fill="none" stroke="rgb(255,66,14)" stroke-linejoin="round" d="M 5082,5712 L 5182,5812 5282,5712 5182,5612 5082,5712 Z"/>
 <path fill="rgb(255,66,14)" stroke="none" d="M 5316,5590 L 5416,5690 5516,5590 5416,5490 5316,5590 Z"/>
 <path fill="none" stroke="rgb(255,66,14)" stroke-linejoin="round" d="M 5316,5590 L 5416,5690 5516,5590 5416,5490 5316,5590 Z"/>
 <path fill="rgb(255,66,14)" stroke="none" d="M 5551,5256 L 5651,5356 5751,5256 5651,5156 5551,5256 Z"/>
 <path fill="none" stroke="rgb(255,66,14)" stroke-linejoin="round" d="M 5551,5256 L 5651,5356 5751,5256 5651,5156 5551,5256 Z"/>
 <path fill="rgb(255,66,14)" stroke="none" d="M 5786,4964 L 5886,5064 5986,4964 5886,4864 5786,4964 Z"/>
 <path fill="none" stroke="rgb(255,66,14)" stroke-linejoin="round" d="M 5786,4964 L 5886,5064 5986,4964 5886,4864 5786,4964 Z"/>
 <path fill="rgb(255,66,14)" stroke="none" d="M 6020,4603 L 6120,4703 6220,4603 6120,4503 6020,4603 Z"/>
 <path fill="none" stroke="rgb(255,66,14)" stroke-linejoin="round" d="M 6020,4603 L 6120,4703 6220,4603 6120,4503 6020,4603 Z"/>
 <path fill="rgb(255,66,14)" stroke="none" d="M 6255,4401 L 6355,4501 6455,4401 6355,4301 6255,4401 Z"/>
 <path fill="none" stroke="rgb(255,66,14)" stroke-linejoin="round" d="M 6255,4401 L 6355,4501 6455,4401 6355,4301 6255,4401 Z"/>
 <path fill="rgb(255,66,14)" stroke="none" d="M 6490,4159 L 6590,4259 6690,4159 6590,4059 6490,4159 Z"/>
 <path fill="none" stroke="rgb(255,66,14)" stroke-linejoin="round" d="M 6490,4159 L 6590,4259 6690,4159 6590,4059 6490,4159 Z"/>
 <path fill="rgb(255,66,14)" stroke="none" d="M 6724,3895 L 6824,3995 6924,3895 6824,3795 6724,3895 Z"/>
 <path fill="none" stroke="rgb(255,66,14)" stroke-linejoin="round" d="M 6724,3895 L 6824,3995 6924,3895 6824,3795 6724,3895 Z"/>
 <path fill="rgb(255,66,14)" stroke="none" d="M 6959,3662 L 7059,3762 7159,3662 7059,3562 6959,3662 Z"/>
 <path fill="none" stroke="rgb(255,66,14)" stroke-linejoin="round" d="M 6959,3662 L 7059,3762 7159,3662 7059,3562 6959,3662 Z"/>
 <path fill="rgb(255,66,14)" stroke="none" d="M 7194,3440 L 7294,3540 7394,3440 7294,3340 7194,3440 Z"/>
 <path fill="none" stroke="rgb(255,66,14)" stroke-linejoin="round" d="M 7194,3440 L 7294,3540 7394,3440 7294,3340 7194,3440 Z"/>
 <path fill="rgb(255,66,14)" stroke="none" d="M 7428,3314 L 7527,3414 7627,3314 7527,3214 7428,3314 Z"/>
 <path fill="none" stroke="rgb(255,66,14)" stroke-linejoin="round" d="M 7428,3314 L 7527,3414 7627,3314 7527,3214 7428,3314 Z"/>
 <path fill="rgb(255,66,14)" stroke="none" d="M 7662,3169 L 7762,3269 7862,3169 7762,3069 7662,3169 Z"/>
 <path fill="none" stroke="rgb(255,66,14)" stroke-linejoin="round" d="M 7662,3169 L 7762,3269 7862,3169 7762,3069 7662,3169 Z"/>
 <path fill="rgb(255,66,14)" stroke="none" d="M 7897,3016 L 7997,3116 8097,3016 7997,2916 7897,3016 Z"/>
 <path fill="none" stroke="rgb(255,66,14)" stroke-linejoin="round" d="M 7897,3016 L 7997,3116 8097,3016 7997,2916 7897,3016 Z"/>
 <path fill="rgb(255,66,14)" stroke="none" d="M 8131,2850 L 8231,2950 8331,2850 8231,2750 8131,2850 Z"/>
 <path fill="none" stroke="rgb(255,66,14)" stroke-linejoin="round" d="M 8131,2850 L 8231,2950 8331,2850 8231,2750 8131,2850 Z"/>
 <path fill="rgb(255,66,14)" stroke="none" d="M 8366,2737 L 8466,2837 8566,2737 8466,2637 8366,2737 Z"/>
 <path fill="none" stroke="rgb(255,66,14)" stroke-linejoin="round" d="M 8366,2737 L 8466,2837 8566,2737 8466,2637 8366,2737 Z"/>
 <path fill="rgb(255,66,14)" stroke="none" d="M 8601,2572 L 8701,2672 8801,2572 8701,2472 8601,2572 Z"/>
 <path fill="none" stroke="rgb(255,66,14)" stroke-linejoin="round" d="M 8601,2572 L 8701,2672 8801,2572 8701,2472 8601,2572 Z"/>
 <path fill="rgb(255,66,14)" stroke="none" d="M 8835,2471 L 8935,2571 9035,2471 8935,2371 8835,2471 Z"/>
 <path fill="none" stroke="rgb(255,66,14)" stroke-linejoin="round" d="M 8835,2471 L 8935,2571 9035,2471 8935,2371 8835,2471 Z"/>
 <path fill="rgb(255,66,14)" stroke="none" d="M 9070,2362 L 9170,2462 9270,2362 9170,2262 9070,2362 Z"/>
 <path fill="none" stroke="rgb(255,66,14)" stroke-linejoin="round" d="M 9070,2362 L 9170,2462 9270,2362 9170,2262 9070,2362 Z"/>
 <path fill="rgb(255,66,14)" stroke="none" d="M 9305,2227 L 9405,2327 9505,2227 9405,2127 9305,2227 Z"/>
 <path fill="none" stroke="rgb(255,66,14)" stroke-linejoin="round" d="M 9305,2227 L 9405,2327 9505,2227 9405,2127 9305,2227 Z"/>
 <path fill="rgb(255,66,14)" stroke="none" d="M 9539,2091 L 9639,2191 9739,2091 9639,1991 9539,2091 Z"/>
 <path fill="none" stroke="rgb(255,66,14)" stroke-linejoin="round" d="M 9539,2091 L 9639,2191 9739,2091 9639,1991 9539,2091 Z"/>
 <path fill="rgb(255,66,14)" stroke="none" d="M 9774,1968 L 9874,2068 9974,1968 9874,1868 9774,1968 Z"/>
 <path fill="none" stroke="rgb(255,66,14)" stroke-linejoin="round" d="M 9774,1968 L 9874,2068 9974,1968 9874,1868 9774,1968 Z"/>
 <path fill="rgb(255,66,14)" stroke="none" d="M 10009,1871 L 10109,1971 10209,1871 10109,1771 10009,1871 Z"/>
 <path fill="none" stroke="rgb(255,66,14)" stroke-linejoin="round" d="M 10009,1871 L 10109,1971 10209,1871 10109,1771 10009,1871 Z"/>
 <path fill="rgb(255,66,14)" stroke="none" d="M 10243,1781 L 10343,1881 10443,1781 10343,1681 10243,1781 Z"/>
 <path fill="none" stroke="rgb(255,66,14)" stroke-linejoin="round" d="M 10243,1781 L 10343,1881 10443,1781 10343,1681 10243,1781 Z"/>
 <path fill="rgb(255,66,14)" stroke="none" d="M 10478,1717 L 10578,1817 10678,1717 10578,1617 10478,1717 Z"/>
 <path fill="none" stroke="rgb(255,66,14)" stroke-linejoin="round" d="M 10478,1717 L 10578,1817 10678,1717 10578,1617 10478,1717 Z"/>
 <path fill="rgb(255,66,14)" stroke="none" d="M 10713,1659 L 10813,1759 10913,1659 10813,1559 10713,1659 Z"/>
 <path fill="none" stroke="rgb(255,66,14)" stroke-linejoin="round" d="M 10713,1659 L 10813,1759 10913,1659 10813,1559 10713,1659 Z"/>
 <path fill="rgb(255,66,14)" stroke="none" d="M 10947,1582 L 11047,1682 11147,1582 11047,1482 10947,1582 Z"/>
 <path fill="none" stroke="rgb(255,66,14)" stroke-linejoin="round" d="M 10947,1582 L 11047,1682 11147,1582 11047,1482 10947,1582 Z"/>
 <path fill="rgb(255,66,14)" stroke="none" d="M 11182,1524 L 11282,1624 11382,1524 11282,1424 11182,1524 Z"/>
 <path fill="none" stroke="rgb(255,66,14)" stroke-linejoin="round" d="M 11182,1524 L 11282,1624 11382,1524 11282,1424 11182,1524 Z"/>
 <path fill="rgb(255,66,14)" stroke="none" d="M 11417,1467 L 11517,1567 11617,1467 11517,1367 11417,1467 Z"/>
 <path fill="none" stroke="rgb(255,66,14)" stroke-linejoin="round" d="M 11417,1467 L 11517,1567 11617,1467 11517,1367 11417,1467 Z"/>
 <path fill="rgb(255,66,14)" stroke="none" d="M 11651,1419 L 11751,1519 11851,1419 11751,1319 11651,1419 Z"/>
 <path fill="none" stroke="rgb(255,66,14)" stroke-linejoin="round" d="M 11651,1419 L 11751,1519 11851,1419 11751,1319 11651,1419 Z"/>
 <path fill="rgb(255,66,14)" stroke="none" d="M 11886,1375 L 11986,1475 12086,1375 11986,1275 11886,1375 Z"/>
 <path fill="none" stroke="rgb(255,66,14)" stroke-linejoin="round" d="M 11886,1375 L 11986,1475 12086,1375 11986,1275 11886,1375 Z"/>
 <path fill="rgb(255,66,14)" stroke="none" d="M 12121,1340 L 12221,1440 12321,1340 12221,1240 12121,1340 Z"/>
 <path fill="none" stroke="rgb(255,66,14)" stroke-linejoin="round" d="M 12121,1340 L 12221,1440 12321,1340 12221,1240 12121,1340 Z"/>
 <path fill="rgb(255,66,14)" stroke="none" d="M 12355,1316 L 12455,1416 12555,1316 12455,1216 12355,1316 Z"/>
 <path fill="none" stroke="rgb(255,66,14)" stroke-linejoin="round" d="M 12355,1316 L 12455,1416 12555,1316 12455,1216 12355,1316 Z"/>
 <path fill="rgb(255,66,14)" stroke="none" d="M 12590,1287 L 12690,1387 12790,1287 12690,1187 12590,1287 Z"/>
 <path fill="none" stroke="rgb(255,66,14)" stroke-linejoin="round" d="M 12590,1287 L 12690,1387 12790,1287 12690,1187 12590,1287 Z"/>
 <path fill="rgb(255,66,14)" stroke="none" d="M 12825,1255 L 12925,1355 13025,1255 12925,1155 12825,1255 Z"/>
 <path fill="none" stroke="rgb(255,66,14)" stroke-linejoin="round" d="M 12825,1255 L 12925,1355 13025,1255 12925,1155 12825,1255 Z"/>
 <path fill="rgb(255,66,14)" stroke="none" d="M 13059,1226 L 13159,1326 13259,1226 13159,1126 13059,1226 Z"/>
 <path fill="none" stroke="rgb(255,66,14)" stroke-linejoin="round" d="M 13059,1226 L 13159,1326 13259,1226 13159,1126 13059,1226 Z"/>
 <path fill="rgb(255,66,14)" stroke="none" d="M 13294,1204 L 13394,1304 13494,1204 13394,1104 13294,1204 Z"/>
 <path fill="none" stroke="rgb(255,66,14)" stroke-linejoin="round" d="M 13294,1204 L 13394,1304 13494,1204 13394,1104 13294,1204 Z"/>
 <path fill="rgb(255,66,14)" stroke="none" d="M 13529,1182 L 13629,1282 13729,1182 13629,1082 13529,1182 Z"/>
 <path fill="none" stroke="rgb(255,66,14)" stroke-linejoin="round" d="M 13529,1182 L 13629,1282 13729,1182 13629,1082 13529,1182 Z"/>
 <path fill="rgb(255,66,14)" stroke="none" d="M 13763,1163 L 13863,1263 13963,1163 13863,1063 13763,1163 Z"/>
 <path fill="none" stroke="rgb(255,66,14)" stroke-linejoin="round" d="M 13763,1163 L 13863,1263 13963,1163 13863,1063 13763,1163 Z"/>
 <path fill="rgb(255,66,14)" stroke="none" d="M 13998,1148 L 14098,1248 14198,1148 14098,1048 13998,1148 Z"/>
 <path fill="none" stroke="rgb(255,66,14)" stroke-linejoin="round" d="M 13998,1148 L 14098,1248 14198,1148 14098,1048 13998,1148 Z"/>
 <path fill="rgb(255,66,14)" stroke="none" d="M 14233,1134 L 14333,1234 14433,1134 14333,1034 14233,1134 Z"/>
 <path fill="none" stroke="rgb(255,66,14)" stroke-linejoin="round" d="M 14233,1134 L 14333,1234 14433,1134 14333,1034 14233,1134 Z"/>
 <path fill="rgb(255,66,14)" stroke="none" d="M 14467,1113 L 14567,1213 14667,1113 14567,1013 14467,1113 Z"/>
 <path fill="none" stroke="rgb(255,66,14)" stroke-linejoin="round" d="M 14467,1113 L 14567,1213 14667,1113 14567,1013 14467,1113 Z"/>
 <path fill="none" stroke="rgb(255,211,32)" stroke-width="50" stroke-linejoin="round" d="M 2835,8190 L 3070,7948 3304,7393 3539,7091 3774,6673 4008,6478 4243,6192 4478,6115 4712,5896 4947,5602 5182,5327 5416,5002 5651,4875 5886,4706 6120,4533 6355,4350 6590,4178 6824,3998 7059,3845 7294,3709 7527,3556 7762,3443 7997,3319 8231,3181 8466,3079 8701,2977 8935,2901 9170,2741 9405,2655 9639,2563 9874,2456 10109,2365 10343,2267 10578,2218 10813,2141 11047,2024 11282,1958 11517,1931 11751,1868 11986,1820 12221,1800 12455,1760 12690,1723 12925,1687 13159,1649 13394,1612 13629,1587 13863,1575 14098,1554 14333,1514 14567,1495"/>
 <path fill="rgb(255,211,32)" stroke="none" d="M 2735,8090 L 2835,8290 2935,8090 2735,8090 Z"/>
 <path fill="none" stroke="rgb(255,211,32)" stroke-linejoin="round" d="M 2735,8090 L 2835,8290 2935,8090 2735,8090 Z"/>
 <path fill="rgb(255,211,32)" stroke="none" d="M 2970,7848 L 3070,8048 3170,7848 2970,7848 Z"/>
 <path fill="none" stroke="rgb(255,211,32)" stroke-linejoin="round" d="M 2970,7848 L 3070,8048 3170,7848 2970,7848 Z"/>
 <path fill="rgb(255,211,32)" stroke="none" d="M 3204,7293 L 3304,7493 3404,7293 3204,7293 Z"/>
 <path fill="none" stroke="rgb(255,211,32)" stroke-linejoin="round" d="M 3204,7293 L 3304,7493 3404,7293 3204,7293 Z"/>
 <path fill="rgb(255,211,32)" stroke="none" d="M 3439,6991 L 3539,7191 3639,6991 3439,6991 Z"/>
 <path fill="none" stroke="rgb(255,211,32)" stroke-linejoin="round" d="M 3439,6991 L 3539,7191 3639,6991 3439,6991 Z"/>
 <path fill="rgb(255,211,32)" stroke="none" d="M 3674,6573 L 3774,6773 3874,6573 3674,6573 Z"/>
 <path fill="none" stroke="rgb(255,211,32)" stroke-linejoin="round" d="M 3674,6573 L 3774,6773 3874,6573 3674,6573 Z"/>
 <path fill="rgb(255,211,32)" stroke="none" d="M 3908,6378 L 4008,6578 4108,6378 3908,6378 Z"/>
 <path fill="none" stroke="rgb(255,211,32)" stroke-linejoin="round" d="M 3908,6378 L 4008,6578 4108,6378 3908,6378 Z"/>
 <path fill="rgb(255,211,32)" stroke="none" d="M 4143,6092 L 4243,6292 4343,6092 4143,6092 Z"/>
 <path fill="none" stroke="rgb(255,211,32)" stroke-linejoin="round" d="M 4143,6092 L 4243,6292 4343,6092 4143,6092 Z"/>
 <path fill="rgb(255,211,32)" stroke="none" d="M 4378,6015 L 4478,6215 4578,6015 4378,6015 Z"/>
 <path fill="none" stroke="rgb(255,211,32)" stroke-linejoin="round" d="M 4378,6015 L 4478,6215 4578,6015 4378,6015 Z"/>
 <path fill="rgb(255,211,32)" stroke="none" d="M 4612,5796 L 4712,5996 4812,5796 4612,5796 Z"/>
 <path fill="none" stroke="rgb(255,211,32)" stroke-linejoin="round" d="M 4612,5796 L 4712,5996 4812,5796 4612,5796 Z"/>
 <path fill="rgb(255,211,32)" stroke="none" d="M 4847,5502 L 4947,5702 5047,5502 4847,5502 Z"/>
 <path fill="none" stroke="rgb(255,211,32)" stroke-linejoin="round" d="M 4847,5502 L 4947,5702 5047,5502 4847,5502 Z"/>
 <path fill="rgb(255,211,32)" stroke="none" d="M 5082,5227 L 5182,5427 5282,5227 5082,5227 Z"/>
 <path fill="none" stroke="rgb(255,211,32)" stroke-linejoin="round" d="M 5082,5227 L 5182,5427 5282,5227 5082,5227 Z"/>
 <path fill="rgb(255,211,32)" stroke="none" d="M 5316,4902 L 5416,5102 5516,4902 5316,4902 Z"/>
 <path fill="none" stroke="rgb(255,211,32)" stroke-linejoin="round" d="M 5316,4902 L 5416,5102 5516,4902 5316,4902 Z"/>
 <path fill="rgb(255,211,32)" stroke="none" d="M 5551,4775 L 5651,4975 5751,4775 5551,4775 Z"/>
 <path fill="none" stroke="rgb(255,211,32)" stroke-linejoin="round" d="M 5551,4775 L 5651,4975 5751,4775 5551,4775 Z"/>
 <path fill="rgb(255,211,32)" stroke="none" d="M 5786,4606 L 5886,4806 5986,4606 5786,4606 Z"/>
 <path fill="none" stroke="rgb(255,211,32)" stroke-linejoin="round" d="M 5786,4606 L 5886,4806 5986,4606 5786,4606 Z"/>
 <path fill="rgb(255,211,32)" stroke="none" d="M 6020,4433 L 6120,4633 6220,4433 6020,4433 Z"/>
 <path fill="none" stroke="rgb(255,211,32)" stroke-linejoin="round" d="M 6020,4433 L 6120,4633 6220,4433 6020,4433 Z"/>
 <path fill="rgb(255,211,32)" stroke="none" d="M 6255,4250 L 6355,4450 6455,4250 6255,4250 Z"/>
 <path fill="none" stroke="rgb(255,211,32)" stroke-linejoin="round" d="M 6255,4250 L 6355,4450 6455,4250 6255,4250 Z"/>
 <path fill="rgb(255,211,32)" stroke="none" d="M 6490,4078 L 6590,4278 6690,4078 6490,4078 Z"/>
 <path fill="none" stroke="rgb(255,211,32)" stroke-linejoin="round" d="M 6490,4078 L 6590,4278 6690,4078 6490,4078 Z"/>
 <path fill="rgb(255,211,32)" stroke="none" d="M 6724,3898 L 6824,4098 6924,3898 6724,3898 Z"/>
 <path fill="none" stroke="rgb(255,211,32)" stroke-linejoin="round" d="M 6724,3898 L 6824,4098 6924,3898 6724,3898 Z"/>
 <path fill="rgb(255,211,32)" stroke="none" d="M 6959,3745 L 7059,3945 7159,3745 6959,3745 Z"/>
 <path fill="none" stroke="rgb(255,211,32)" stroke-linejoin="round" d="M 6959,3745 L 7059,3945 7159,3745 6959,3745 Z"/>
 <path fill="rgb(255,211,32)" stroke="none" d="M 7194,3609 L 7294,3809 7394,3609 7194,3609 Z"/>
 <path fill="none" stroke="rgb(255,211,32)" stroke-linejoin="round" d="M 7194,3609 L 7294,3809 7394,3609 7194,3609 Z"/>
 <path fill="rgb(255,211,32)" stroke="none" d="M 7428,3456 L 7527,3656 7627,3456 7428,3456 Z"/>
 <path fill="none" stroke="rgb(255,211,32)" stroke-linejoin="round" d="M 7428,3456 L 7527,3656 7627,3456 7428,3456 Z"/>
 <path fill="rgb(255,211,32)" stroke="none" d="M 7662,3343 L 7762,3543 7862,3343 7662,3343 Z"/>
 <path fill="none" stroke="rgb(255,211,32)" stroke-linejoin="round" d="M 7662,3343 L 7762,3543 7862,3343 7662,3343 Z"/>
 <path fill="rgb(255,211,32)" stroke="none" d="M 7897,3219 L 7997,3419 8097,3219 7897,3219 Z"/>
 <path fill="none" stroke="rgb(255,211,32)" stroke-linejoin="round" d="M 7897,3219 L 7997,3419 8097,3219 7897,3219 Z"/>
 <path fill="rgb(255,211,32)" stroke="none" d="M 8131,3081 L 8231,3281 8331,3081 8131,3081 Z"/>
 <path fill="none" stroke="rgb(255,211,32)" stroke-linejoin="round" d="M 8131,3081 L 8231,3281 8331,3081 8131,3081 Z"/>
 <path fill="rgb(255,211,32)" stroke="none" d="M 8366,2979 L 8466,3179 8566,2979 8366,2979 Z"/>
 <path fill="none" stroke="rgb(255,211,32)" stroke-linejoin="round" d="M 8366,2979 L 8466,3179 8566,2979 8366,2979 Z"/>
 <path fill="rgb(255,211,32)" stroke="none" d="M 8601,2877 L 8701,3077 8801,2877 8601,2877 Z"/>
 <path fill="none" stroke="rgb(255,211,32)" stroke-linejoin="round" d="M 8601,2877 L 8701,3077 8801,2877 8601,2877 Z"/>
 <path fill="rgb(255,211,32)" stroke="none" d="M 8835,2801 L 8935,3001 9035,2801 8835,2801 Z"/>
 <path fill="none" stroke="rgb(255,211,32)" stroke-linejoin="round" d="M 8835,2801 L 8935,3001 9035,2801 8835,2801 Z"/>
 <path fill="rgb(255,211,32)" stroke="none" d="M 9070,2641 L 9170,2841 9270,2641 9070,2641 Z"/>
 <path fill="none" stroke="rgb(255,211,32)" stroke-linejoin="round" d="M 9070,2641 L 9170,2841 9270,2641 9070,2641 Z"/>
 <path fill="rgb(255,211,32)" stroke="none" d="M 9305,2555 L 9405,2755 9505,2555 9305,2555 Z"/>
 <path fill="none" stroke="rgb(255,211,32)" stroke-linejoin="round" d="M 9305,2555 L 9405,2755 9505,2555 9305,2555 Z"/>
 <path fill="rgb(255,211,32)" stroke="none" d="M 9539,2463 L 9639,2663 9739,2463 9539,2463 Z"/>
 <path fill="none" stroke="rgb(255,211,32)" stroke-linejoin="round" d="M 9539,2463 L 9639,2663 9739,2463 9539,2463 Z"/>
 <path fill="rgb(255,211,32)" stroke="none" d="M 9774,2356 L 9874,2556 9974,2356 9774,2356 Z"/>
 <path fill="none" stroke="rgb(255,211,32)" stroke-linejoin="round" d="M 9774,2356 L 9874,2556 9974,2356 9774,2356 Z"/>
 <path fill="rgb(255,211,32)" stroke="none" d="M 10009,2265 L 10109,2465 10209,2265 10009,2265 Z"/>
 <path fill="none" stroke="rgb(255,211,32)" stroke-linejoin="round" d="M 10009,2265 L 10109,2465 10209,2265 10009,2265 Z"/>
 <path fill="rgb(255,211,32)" stroke="none" d="M 10243,2167 L 10343,2367 10443,2167 10243,2167 Z"/>
 <path fill="none" stroke="rgb(255,211,32)" stroke-linejoin="round" d="M 10243,2167 L 10343,2367 10443,2167 10243,2167 Z"/>
 <path fill="rgb(255,211,32)" stroke="none" d="M 10478,2118 L 10578,2318 10678,2118 10478,2118 Z"/>
 <path fill="none" stroke="rgb(255,211,32)" stroke-linejoin="round" d="M 10478,2118 L 10578,2318 10678,2118 10478,2118 Z"/>
 <path fill="rgb(255,211,32)" stroke="none" d="M 10713,2041 L 10813,2241 10913,2041 10713,2041 Z"/>
 <path fill="none" stroke="rgb(255,211,32)" stroke-linejoin="round" d="M 10713,2041 L 10813,2241 10913,2041 10713,2041 Z"/>
 <path fill="rgb(255,211,32)" stroke="none" d="M 10947,1924 L 11047,2124 11147,1924 10947,1924 Z"/>
 <path fill="none" stroke="rgb(255,211,32)" stroke-linejoin="round" d="M 10947,1924 L 11047,2124 11147,1924 10947,1924 Z"/>
 <path fill="rgb(255,211,32)" stroke="none" d="M 11182,1858 L 11282,2058 11382,1858 11182,1858 Z"/>
 <path fill="none" stroke="rgb(255,211,32)" stroke-linejoin="round" d="M 11182,1858 L 11282,2058 11382,1858 11182,1858 Z"/>
 <path fill="rgb(255,211,32)" stroke="none" d="M 11417,1831 L 11517,2031 11617,1831 11417,1831 Z"/>
 <path fill="none" stroke="rgb(255,211,32)" stroke-linejoin="round" d="M 11417,1831 L 11517,2031 11617,1831 11417,1831 Z"/>
 <path fill="rgb(255,211,32)" stroke="none" d="M 11651,1768 L 11751,1968 11851,1768 11651,1768 Z"/>
 <path fill="none" stroke="rgb(255,211,32)" stroke-linejoin="round" d="M 11651,1768 L 11751,1968 11851,1768 11651,1768 Z"/>
 <path fill="rgb(255,211,32)" stroke="none" d="M 11886,1720 L 11986,1920 12086,1720 11886,1720 Z"/>
 <path fill="none" stroke="rgb(255,211,32)" stroke-linejoin="round" d="M 11886,1720 L 11986,1920 12086,1720 11886,1720 Z"/>
 <path fill="rgb(255,211,32)" stroke="none" d="M 12121,1700 L 12221,1900 12321,1700 12121,1700 Z"/>
 <path fill="none" stroke="rgb(255,211,32)" stroke-linejoin="round" d="M 12121,1700 L 12221,1900 12321,1700 12121,1700 Z"/>
 <path fill="rgb(255,211,32)" stroke="none" d="M 12355,1660 L 12455,1860 12555,1660 12355,1660 Z"/>
 <path fill="none" stroke="rgb(255,211,32)" stroke-linejoin="round" d="M 12355,1660 L 12455,1860 12555,1660 12355,1660 Z"/>
 <path fill="rgb(255,211,32)" stroke="none" d="M 12590,1623 L 12690,1823 12790,1623 12590,1623 Z"/>
 <path fill="none" stroke="rgb(255,211,32)" stroke-linejoin="round" d="M 12590,1623 L 12690,1823 12790,1623 12590,1623 Z"/>
 <path fill="rgb(255,211,32)" stroke="none" d="M 12825,1587 L 12925,1787 13025,1587 12825,1587 Z"/>
 <path fill="none" stroke="rgb(255,211,32)" stroke-linejoin="round" d="M 12825,1587 L 12925,1787 13025,1587 12825,1587 Z"/>
 <path fill="rgb(255,211,32)" stroke="none" d="M 13059,1549 L 13159,1749 13259,1549 13059,1549 Z"/>
 <path fill="none" stroke="rgb(255,211,32)" stroke-linejoin="round" d="M 13059,1549 L 13159,1749 13259,1549 13059,1549 Z"/>
 <path fill="rgb(255,211,32)" stroke="none" d="M 13294,1512 L 13394,1712 13494,1512 13294,1512 Z"/>
 <path fill="none" stroke="rgb(255,211,32)" stroke-linejoin="round" d="M 13294,1512 L 13394,1712 13494,1512 13294,1512 Z"/>
 <path fill="rgb(255,211,32)" stroke="none" d="M 13529,1487 L 13629,1687 13729,1487 13529,1487 Z"/>
 <path fill="none" stroke="rgb(255,211,32)" stroke-linejoin="round" d="M 13529,1487 L 13629,1687 13729,1487 13529,1487 Z"/>
 <path fill="rgb(255,211,32)" stroke="none" d="M 13763,1475 L 13863,1675 13963,1475 13763,1475 Z"/>
 <path fill="none" stroke="rgb(255,211,32)" stroke-linejoin="round" d="M 13763,1475 L 13863,1675 13963,1475 13763,1475 Z"/>
 <path fill="rgb(255,211,32)" stroke="none" d="M 13998,1454 L 14098,1654 14198,1454 13998,1454 Z"/>
 <path fill="none" stroke="rgb(255,211,32)" stroke-linejoin="round" d="M 13998,1454 L 14098,1654 14198,1454 13998,1454 Z"/>
 <path fill="rgb(255,211,32)" stroke="none" d="M 14233,1414 L 14333,1614 14433,1414 14233,1414 Z"/>
 <path fill="none" stroke="rgb(255,211,32)" stroke-linejoin="round" d="M 14233,1414 L 14333,1614 14433,1414 14233,1414 Z"/>
 <path fill="rgb(255,211,32)" stroke="none" d="M 14467,1395 L 14567,1595 14667,1395 14467,1395 Z"/>
 <path fill="none" stroke="rgb(255,211,32)" stroke-linejoin="round" d="M 14467,1395 L 14567,1595 14667,1395 14467,1395 Z"/>
 <path fill="none" stroke="rgb(87,157,28)" stroke-width="50" stroke-linejoin="round" d="M 2600,8036 L 2835,7948 3070,7833 3304,7675 3539,7145 3774,6982 4008,6557 4243,6367 4478,6204 4712,6023 4947,5745 5182,5429 5416,5245 5651,5086 5886,4884 6120,4630 6355,4460 6590,4212 6824,3995 7059,3831 7294,3655 7527,3630 7762,3500 7997,3399 8231,3181 8466,3003 8701,2872 8935,2790 9170,2643 9405,2501 9639,2397 9874,2289 10109,2179 10343,2076 10578,2018 10813,1954 11047,1896 11282,1833 11517,1768 11751,1708 11986,1654 12221,1604 12455,1575 12690,1546 12925,1516 13159,1481 13394,1445 13629,1419 13863,1401 14098,1386 14333,1373 14567,1359"/>
 <path fill="rgb(87,157,28)" stroke="none" d="M 2500,8136 L 2700,8136 2600,7936 2500,8136 Z"/>
 <path fill="none" stroke="rgb(87,157,28)" stroke-linejoin="round" d="M 2500,8136 L 2700,8136 2600,7936 2500,8136 Z"/>
 <path fill="rgb(87,157,28)" stroke="none" d="M 2735,8048 L 2935,8048 2835,7848 2735,8048 Z"/>
 <path fill="none" stroke="rgb(87,157,28)" stroke-linejoin="round" d="M 2735,8048 L 2935,8048 2835,7848 2735,8048 Z"/>
 <path fill="rgb(87,157,28)" stroke="none" d="M 2970,7933 L 3170,7933 3070,7733 2970,7933 Z"/>
 <path fill="none" stroke="rgb(87,157,28)" stroke-linejoin="round" d="M 2970,7933 L 3170,7933 3070,7733 2970,7933 Z"/>
 <path fill="rgb(87,157,28)" stroke="none" d="M 3204,7775 L 3404,7775 3304,7575 3204,7775 Z"/>
 <path fill="none" stroke="rgb(87,157,28)" stroke-linejoin="round" d="M 3204,7775 L 3404,7775 3304,7575 3204,7775 Z"/>
 <path fill="rgb(87,157,28)" stroke="none" d="M 3439,7245 L 3639,7245 3539,7045 3439,7245 Z"/>
 <path fill="none" stroke="rgb(87,157,28)" stroke-linejoin="round" d="M 3439,7245 L 3639,7245 3539,7045 3439,7245 Z"/>
 <path fill="rgb(87,157,28)" stroke="none" d="M 3674,7082 L 3874,7082 3774,6882 3674,7082 Z"/>
 <path fill="none" stroke="rgb(87,157,28)" stroke-linejoin="round" d="M 3674,7082 L 3874,7082 3774,6882 3674,7082 Z"/>
 <path fill="rgb(87,157,28)" stroke="none" d="M 3908,6657 L 4108,6657 4008,6457 3908,6657 Z"/>
 <path fill="none" stroke="rgb(87,157,28)" stroke-linejoin="round" d="M 3908,6657 L 4108,6657 4008,6457 3908,6657 Z"/>
 <path fill="rgb(87,157,28)" stroke="none" d="M 4143,6467 L 4343,6467 4243,6267 4143,6467 Z"/>
 <path fill="none" stroke="rgb(87,157,28)" stroke-linejoin="round" d="M 4143,6467 L 4343,6467 4243,6267 4143,6467 Z"/>
 <path fill="rgb(87,157,28)" stroke="none" d="M 4378,6304 L 4578,6304 4478,6104 4378,6304 Z"/>
 <path fill="none" stroke="rgb(87,157,28)" stroke-linejoin="round" d="M 4378,6304 L 4578,6304 4478,6104 4378,6304 Z"/>
 <path fill="rgb(87,157,28)" stroke="none" d="M 4612,6123 L 4812,6123 4712,5924 4612,6123 Z"/>
 <path fill="none" stroke="rgb(87,157,28)" stroke-linejoin="round" d="M 4612,6123 L 4812,6123 4712,5924 4612,6123 Z"/>
 <path fill="rgb(87,157,28)" stroke="none" d="M 4847,5845 L 5047,5845 4947,5645 4847,5845 Z"/>
 <path fill="none" stroke="rgb(87,157,28)" stroke-linejoin="round" d="M 4847,5845 L 5047,5845 4947,5645 4847,5845 Z"/>
 <path fill="rgb(87,157,28)" stroke="none" d="M 5082,5529 L 5282,5529 5182,5329 5082,5529 Z"/>
 <path fill="none" stroke="rgb(87,157,28)" stroke-linejoin="round" d="M 5082,5529 L 5282,5529 5182,5329 5082,5529 Z"/>
 <path fill="rgb(87,157,28)" stroke="none" d="M 5316,5345 L 5516,5345 5416,5145 5316,5345 Z"/>
 <path fill="none" stroke="rgb(87,157,28)" stroke-linejoin="round" d="M 5316,5345 L 5516,5345 5416,5145 5316,5345 Z"/>
 <path fill="rgb(87,157,28)" stroke="none" d="M 5551,5186 L 5751,5186 5651,4986 5551,5186 Z"/>
 <path fill="none" stroke="rgb(87,157,28)" stroke-linejoin="round" d="M 5551,5186 L 5751,5186 5651,4986 5551,5186 Z"/>
 <path fill="rgb(87,157,28)" stroke="none" d="M 5786,4984 L 5986,4984 5886,4784 5786,4984 Z"/>
 <path fill="none" stroke="rgb(87,157,28)" stroke-linejoin="round" d="M 5786,4984 L 5986,4984 5886,4784 5786,4984 Z"/>
 <path fill="rgb(87,157,28)" stroke="none" d="M 6020,4730 L 6220,4730 6120,4530 6020,4730 Z"/>
 <path fill="none" stroke="rgb(87,157,28)" stroke-linejoin="round" d="M 6020,4730 L 6220,4730 6120,4530 6020,4730 Z"/>
 <path fill="rgb(87,157,28)" stroke="none" d="M 6255,4560 L 6455,4560 6355,4360 6255,4560 Z"/>
 <path fill="none" stroke="rgb(87,157,28)" stroke-linejoin="round" d="M 6255,4560 L 6455,4560 6355,4360 6255,4560 Z"/>
 <path fill="rgb(87,157,28)" stroke="none" d="M 6490,4312 L 6690,4312 6590,4112 6490,4312 Z"/>
 <path fill="none" stroke="rgb(87,157,28)" stroke-linejoin="round" d="M 6490,4312 L 6690,4312 6590,4112 6490,4312 Z"/>
 <path fill="rgb(87,157,28)" stroke="none" d="M 6724,4095 L 6924,4095 6824,3895 6724,4095 Z"/>
 <path fill="none" stroke="rgb(87,157,28)" stroke-linejoin="round" d="M 6724,4095 L 6924,4095 6824,3895 6724,4095 Z"/>
 <path fill="rgb(87,157,28)" stroke="none" d="M 6959,3931 L 7159,3931 7059,3731 6959,3931 Z"/>
 <path fill="none" stroke="rgb(87,157,28)" stroke-linejoin="round" d="M 6959,3931 L 7159,3931 7059,3731 6959,3931 Z"/>
 <path fill="rgb(87,157,28)" stroke="none" d="M 7194,3755 L 7394,3755 7294,3555 7194,3755 Z"/>
 <path fill="none" stroke="rgb(87,157,28)" stroke-linejoin="round" d="M 7194,3755 L 7394,3755 7294,3555 7194,3755 Z"/>
 <path fill="rgb(87,157,28)" stroke="none" d="M 7428,3730 L 7627,3730 7527,3530 7428,3730 Z"/>
 <path fill="none" stroke="rgb(87,157,28)" stroke-linejoin="round" d="M 7428,3730 L 7627,3730 7527,3530 7428,3730 Z"/>
 <path fill="rgb(87,157,28)" stroke="none" d="M 7662,3600 L 7862,3600 7762,3400 7662,3600 Z"/>
 <path fill="none" stroke="rgb(87,157,28)" stroke-linejoin="round" d="M 7662,3600 L 7862,3600 7762,3400 7662,3600 Z"/>
 <path fill="rgb(87,157,28)" stroke="none" d="M 7897,3499 L 8097,3499 7997,3299 7897,3499 Z"/>
 <path fill="none" stroke="rgb(87,157,28)" stroke-linejoin="round" d="M 7897,3499 L 8097,3499 7997,3299 7897,3499 Z"/>
 <path fill="rgb(87,157,28)" stroke="none" d="M 8131,3281 L 8331,3281 8231,3081 8131,3281 Z"/>
 <path fill="none" stroke="rgb(87,157,28)" stroke-linejoin="round" d="M 8131,3281 L 8331,3281 8231,3081 8131,3281 Z"/>
 <path fill="rgb(87,157,28)" stroke="none" d="M 8366,3103 L 8566,3103 8466,2903 8366,3103 Z"/>
 <path fill="none" stroke="rgb(87,157,28)" stroke-linejoin="round" d="M 8366,3103 L 8566,3103 8466,2903 8366,3103 Z"/>
 <path fill="rgb(87,157,28)" stroke="none" d="M 8601,2972 L 8801,2972 8701,2772 8601,2972 Z"/>
 <path fill="none" stroke="rgb(87,157,28)" stroke-linejoin="round" d="M 8601,2972 L 8801,2972 8701,2772 8601,2972 Z"/>
 <path fill="rgb(87,157,28)" stroke="none" d="M 8835,2890 L 9035,2890 8935,2690 8835,2890 Z"/>
 <path fill="none" stroke="rgb(87,157,28)" stroke-linejoin="round" d="M 8835,2890 L 9035,2890 8935,2690 8835,2890 Z"/>
 <path fill="rgb(87,157,28)" stroke="none" d="M 9070,2743 L 9270,2743 9170,2543 9070,2743 Z"/>
 <path fill="none" stroke="rgb(87,157,28)" stroke-linejoin="round" d="M 9070,2743 L 9270,2743 9170,2543 9070,2743 Z"/>
 <path fill="rgb(87,157,28)" stroke="none" d="M 9305,2601 L 9505,2601 9405,2401 9305,2601 Z"/>
 <path fill="none" stroke="rgb(87,157,28)" stroke-linejoin="round" d="M 9305,2601 L 9505,2601 9405,2401 9305,2601 Z"/>
 <path fill="rgb(87,157,28)" stroke="none" d="M 9539,2497 L 9739,2497 9639,2297 9539,2497 Z"/>
 <path fill="none" stroke="rgb(87,157,28)" stroke-linejoin="round" d="M 9539,2497 L 9739,2497 9639,2297 9539,2497 Z"/>
 <path fill="rgb(87,157,28)" stroke="none" d="M 9774,2389 L 9974,2389 9874,2189 9774,2389 Z"/>
 <path fill="none" stroke="rgb(87,157,28)" stroke-linejoin="round" d="M 9774,2389 L 9974,2389 9874,2189 9774,2389 Z"/>
 <path fill="rgb(87,157,28)" stroke="none" d="M 10009,2279 L 10209,2279 10109,2079 10009,2279 Z"/>
 <path fill="none" stroke="rgb(87,157,28)" stroke-linejoin="round" d="M 10009,2279 L 10209,2279 10109,2079 10009,2279 Z"/>
 <path fill="rgb(87,157,28)" stroke="none" d="M 10243,2176 L 10443,2176 10343,1976 10243,2176 Z"/>
 <path fill="none" stroke="rgb(87,157,28)" stroke-linejoin="round" d="M 10243,2176 L 10443,2176 10343,1976 10243,2176 Z"/>
 <path fill="rgb(87,157,28)" stroke="none" d="M 10478,2118 L 10678,2118 10578,1918 10478,2118 Z"/>
 <path fill="none" stroke="rgb(87,157,28)" stroke-linejoin="round" d="M 10478,2118 L 10678,2118 10578,1918 10478,2118 Z"/>
 <path fill="rgb(87,157,28)" stroke="none" d="M 10713,2054 L 10913,2054 10813,1854 10713,2054 Z"/>
 <path fill="none" stroke="rgb(87,157,28)" stroke-linejoin="round" d="M 10713,2054 L 10913,2054 10813,1854 10713,2054 Z"/>
 <path fill="rgb(87,157,28)" stroke="none" d="M 10947,1996 L 11147,1996 11047,1796 10947,1996 Z"/>
 <path fill="none" stroke="rgb(87,157,28)" stroke-linejoin="round" d="M 10947,1996 L 11147,1996 11047,1796 10947,1996 Z"/>
 <path fill="rgb(87,157,28)" stroke="none" d="M 11182,1933 L 11382,1933 11282,1733 11182,1933 Z"/>
 <path fill="none" stroke="rgb(87,157,28)" stroke-linejoin="round" d="M 11182,1933 L 11382,1933 11282,1733 11182,1933 Z"/>
 <path fill="rgb(87,157,28)" stroke="none" d="M 11417,1868 L 11617,1868 11517,1668 11417,1868 Z"/>
 <path fill="none" stroke="rgb(87,157,28)" stroke-linejoin="round" d="M 11417,1868 L 11617,1868 11517,1668 11417,1868 Z"/>
 <path fill="rgb(87,157,28)" stroke="none" d="M 11651,1808 L 11851,1808 11751,1608 11651,1808 Z"/>
 <path fill="none" stroke="rgb(87,157,28)" stroke-linejoin="round" d="M 11651,1808 L 11851,1808 11751,1608 11651,1808 Z"/>
 <path fill="rgb(87,157,28)" stroke="none" d="M 11886,1754 L 12086,1754 11986,1554 11886,1754 Z"/>
 <path fill="none" stroke="rgb(87,157,28)" stroke-linejoin="round" d="M 11886,1754 L 12086,1754 11986,1554 11886,1754 Z"/>
 <path fill="rgb(87,157,28)" stroke="none" d="M 12121,1704 L 12321,1704 12221,1504 12121,1704 Z"/>
 <path fill="none" stroke="rgb(87,157,28)" stroke-linejoin="round" d="M 12121,1704 L 12321,1704 12221,1504 12121,1704 Z"/>
 <path fill="rgb(87,157,28)" stroke="none" d="M 12355,1675 L 12555,1675 12455,1475 12355,1675 Z"/>
 <path fill="none" stroke="rgb(87,157,28)" stroke-linejoin="round" d="M 12355,1675 L 12555,1675 12455,1475 12355,1675 Z"/>
 <path fill="rgb(87,157,28)" stroke="none" d="M 12590,1646 L 12790,1646 12690,1446 12590,1646 Z"/>
 <path fill="none" stroke="rgb(87,157,28)" stroke-linejoin="round" d="M 12590,1646 L 12790,1646 12690,1446 12590,1646 Z"/>
 <path fill="rgb(87,157,28)" stroke="none" d="M 12825,1616 L 13025,1616 12925,1416 12825,1616 Z"/>
 <path fill="none" stroke="rgb(87,157,28)" stroke-linejoin="round" d="M 12825,1616 L 13025,1616 12925,1416 12825,1616 Z"/>
 <path fill="rgb(87,157,28)" stroke="none" d="M 13059,1581 L 13259,1581 13159,1381 13059,1581 Z"/>
 <path fill="none" stroke="rgb(87,157,28)" stroke-linejoin="round" d="M 13059,1581 L 13259,1581 13159,1381 13059,1581 Z"/>
 <path fill="rgb(87,157,28)" stroke="none" d="M 13294,1545 L 13494,1545 13394,1345 13294,1545 Z"/>
 <path fill="none" stroke="rgb(87,157,28)" stroke-linejoin="round" d="M 13294,1545 L 13494,1545 13394,1345 13294,1545 Z"/>
 <path fill="rgb(87,157,28)" stroke="none" d="M 13529,1519 L 13729,1519 13629,1319 13529,1519 Z"/>
 <path fill="none" stroke="rgb(87,157,28)" stroke-linejoin="round" d="M 13529,1519 L 13729,1519 13629,1319 13529,1519 Z"/>
 <path fill="rgb(87,157,28)" stroke="none" d="M 13763,1501 L 13963,1501 13863,1301 13763,1501 Z"/>
 <path fill="none" stroke="rgb(87,157,28)" stroke-linejoin="round" d="M 13763,1501 L 13963,1501 13863,1301 13763,1501 Z"/>
 <path fill="rgb(87,157,28)" stroke="none" d="M 13998,1486 L 14198,1486 14098,1286 13998,1486 Z"/>
 <path fill="none" stroke="rgb(87,157,28)" stroke-linejoin="round" d="M 13998,1486 L 14198,1486 14098,1286 13998,1486 Z"/>
 <path fill="rgb(87,157,28)" stroke="none" d="M 14233,1473 L 14433,1473 14333,1273 14233,1473 Z"/>
 <path fill="none" stroke="rgb(87,157,28)" stroke-linejoin="round" d="M 14233,1473 L 14433,1473 14333,1273 14233,1473 Z"/>
 <path fill="rgb(87,157,28)" stroke="none" d="M 14467,1459 L 14667,1459 14567,1259 14467,1459 Z"/>
 <path fill="none" stroke="rgb(87,157,28)" stroke-linejoin="round" d="M 14467,1459 L 14667,1459 14567,1259 14467,1459 Z"/>
 <text class="TextShape"><tspan class="TextParagraph" font-family="Liberation Sans, sans-serif" font-size="353px" font-weight="400"><tspan class="TextPosition" x="1238" y="10665"><tspan fill="rgb(0,0,0)" stroke="none">20/02</tspan></tspan></tspan></text>
 <text class="TextShape"><tspan class="TextParagraph" font-family="Liberation Sans, sans-serif" font-size="353px" font-weight="400"><tspan class="TextPosition" x="2880" y="10665"><tspan fill="rgb(0,0,0)" stroke="none">27/02</tspan></tspan></tspan></text>
 <text class="TextShape"><tspan class="TextParagraph" font-family="Liberation Sans, sans-serif" font-size="353px" font-weight="400"><tspan class="TextPosition" x="4523" y="10665"><tspan fill="rgb(0,0,0)" stroke="none">05/03</tspan></tspan></tspan></text>
 <text class="TextShape"><tspan class="TextParagraph" font-family="Liberation Sans, sans-serif" font-size="353px" font-weight="400"><tspan class="TextPosition" x="6166" y="10665"><tspan fill="rgb(0,0,0)" stroke="none">12/03</tspan></tspan></tspan></text>
 <text class="TextShape"><tspan class="TextParagraph" font-family="Liberation Sans, sans-serif" font-size="353px" font-weight="400"><tspan class="TextPosition" x="7808" y="10665"><tspan fill="rgb(0,0,0)" stroke="none">19/03</tspan></tspan></tspan></text>
 <text class="TextShape"><tspan class="TextParagraph" font-family="Liberation Sans, sans-serif" font-size="353px" font-weight="400"><tspan class="TextPosition" x="9451" y="10665"><tspan fill="rgb(0,0,0)" stroke="none">26/03</tspan></tspan></tspan></text>
 <text class="TextShape"><tspan class="TextParagraph" font-family="Liberation Sans, sans-serif" font-size="353px" font-weight="400"><tspan class="TextPosition" x="11094" y="10665"><tspan fill="rgb(0,0,0)" stroke="none">02/04</tspan></tspan></tspan></text>
 <text class="TextShape"><tspan class="TextParagraph" font-family="Liberation Sans, sans-serif" font-size="353px" font-weight="400"><tspan class="TextPosition" x="12736" y="10665"><tspan fill="rgb(0,0,0)" stroke="none">09/04</tspan></tspan></tspan></text>
 <text class="TextShape"><tspan class="TextParagraph" font-family="Liberation Sans, sans-serif" font-size="353px" font-weight="400"><tspan class="TextPosition" x="1110" y="10218"><tspan fill="rgb(0,0,0)" stroke="none">1</tspan></tspan></tspan></text>
 <text class="TextShape"><tspan class="TextParagraph" font-family="Liberation Sans, sans-serif" font-size="353px" font-weight="400"><tspan class="TextPosition" x="925" y="8506"><tspan fill="rgb(0,0,0)" stroke="none">10</tspan></tspan></tspan></text>
 <text class="TextShape"><tspan class="TextParagraph" font-family="Liberation Sans, sans-serif" font-size="353px" font-weight="400"><tspan class="TextPosition" x="739" y="6794"><tspan fill="rgb(0,0,0)" stroke="none">100</tspan></tspan></tspan></text>
 <text class="TextShape"><tspan class="TextParagraph" font-family="Liberation Sans, sans-serif" font-size="353px" font-weight="400"><tspan class="TextPosition" x="448" y="5083"><tspan fill="rgb(0,0,0)" stroke="none">1.000</tspan></tspan></tspan></text>
 <text class="TextShape"><tspan class="TextParagraph" font-family="Liberation Sans, sans-serif" font-size="353px" font-weight="400"><tspan class="TextPosition" x="263" y="3371"><tspan fill="rgb(0,0,0)" stroke="none">10.000</tspan></tspan></tspan></text>
 <text class="TextShape"><tspan class="TextParagraph" font-family="Liberation Sans, sans-serif" font-size="353px" font-weight="400"><tspan class="TextPosition" x="78" y="1660"><tspan fill="rgb(0,0,0)" stroke="none">100.000</tspan></tspan></tspan></text>
 <text class="TextShape"><tspan class="TextParagraph" font-family="Liberation Sans, sans-serif" font-size="459px" font-weight="400"><tspan class="TextPosition" x="4616" y="724"><tspan fill="rgb(0,0,0)" stroke="none">Covid-19 (casos acumulados)</tspan></tspan></tspan></text>
 <path fill="none" stroke="rgb(0,0,0)" stroke-width="50" stroke-linejoin="round" d="M 3112,11469 L 3912,11469"/>
 <path fill="rgb(0,0,0)" stroke="none" d="M 3406,11469 L 3512,11575 3617,11469 3512,11364 3406,11469 Z"/>
 <path fill="none" stroke="rgb(0,0,0)" stroke-linejoin="round" d="M 3406,11469 L 3512,11575 3617,11469 3512,11364 3406,11469 Z"/>
 <path fill="none" stroke="rgb(255,66,14)" stroke-width="50" stroke-linejoin="round" d="M 4987,11469 L 5787,11469"/>
 <path fill="rgb(255,66,14)" stroke="none" d="M 5281,11469 L 5387,11575 5492,11469 5387,11364 5281,11469 Z"/>
 <path fill="none" stroke="rgb(255,66,14)" stroke-linejoin="round" d="M 5281,11469 L 5387,11575 5492,11469 5387,11364 5281,11469 Z"/>
 <path fill="none" stroke="rgb(255,211,32)" stroke-width="50" stroke-linejoin="round" d="M 7285,11469 L 8084,11469"/>
 <path fill="rgb(255,211,32)" stroke="none" d="M 7578,11364 L 7684,11575 7789,11364 7578,11364 Z"/>
 <path fill="none" stroke="rgb(255,211,32)" stroke-linejoin="round" d="M 7578,11364 L 7684,11575 7789,11364 7578,11364 Z"/>
 <path fill="none" stroke="rgb(87,157,28)" stroke-width="50" stroke-linejoin="round" d="M 9556,11469 L 10356,11469"/>
 <path fill="rgb(87,157,28)" stroke="none" d="M 9850,11575 L 10061,11575 9956,11364 9850,11575 Z"/>
 <path fill="none" stroke="rgb(87,157,28)" stroke-linejoin="round" d="M 9850,11575 L 10061,11575 9956,11364 9850,11575 Z"/>
 <text class="TextShape"><tspan class="TextParagraph" font-family="Liberation Sans, sans-serif" font-size="353px" font-weight="400"><tspan class="TextPosition" x="4012" y="11589"><tspan fill="rgb(0,0,0)" stroke="none">Italia</tspan></tspan></tspan></text>
 <text class="TextShape"><tspan class="TextParagraph" font-family="Liberation Sans, sans-serif" font-size="353px" font-weight="400"><tspan class="TextPosition" x="5887" y="11589"><tspan fill="rgb(0,0,0)" stroke="none">Espaa</tspan></tspan></tspan></text>
 <text class="TextShape"><tspan class="TextParagraph" font-family="Liberation Sans, sans-serif" font-size="353px" font-weight="400"><tspan class="TextPosition" x="8184" y="11589"><tspan fill="rgb(0,0,0)" stroke="none">Francia</tspan></tspan></tspan></text>
 <text class="TextShape"><tspan class="TextParagraph" font-family="Liberation Sans, sans-serif" font-size="353px" font-weight="400"><tspan class="TextPosition" x="10456" y="11589"><tspan fill="rgb(0,0,0)" stroke="none">Alemania</tspan></tspan></tspan></text>
</svg>