<?xml version="1.0" encoding="UTF-8"?>
<!DOCTYPE svg PUBLIC "-//W3C//DTD SVG 1.1//EN" "http://www.w3.org/Graphics/SVG/1.1/DTD/svg11.dtd">
<svg width="180mm" height="120mm" viewBox="0 0 18000 12000" version="1.1" xmlns="http://www.w3.org/2000/svg" xmlns:xlink="http://www.w3.org/1999/xlink" stroke-width="28.222" stroke-linejoin="round" xml:space="preserve">
 <path fill="rgb(255,255,255)" stroke="none" d="M 9000,12000 L 0,12000 0,0 18000,0 18000,12000 9000,12000 Z"/>
 <path fill="none" stroke="rgb(178,178,178)" stroke-width="50" stroke-linejoin="round" d="M 8236,11319 L 1278,11319 1278,929 15193,929 15193,11319 8236,11319 Z"/>
 <path fill="none" stroke="rgb(0,0,0)" stroke-linejoin="round" d="M 15193,11318 L 1278,11318"/>
 <path fill="none" stroke="rgb(0,0,0)" stroke-linejoin="round" d="M 15193,10278 L 1278,10278"/>
 <path fill="none" stroke="rgb(0,0,0)" stroke-linejoin="round" d="M 15193,9239 L 1278,9239"/>
 <path fill="none" stroke="rgb(0,0,0)" stroke-linejoin="round" d="M 15193,8200 L 1278,8200"/>
 <path fill="none" stroke="rgb(0,0,0)" stroke-linejoin="round" d="M 15193,7161 L 1278,7161"/>
 <path fill="none" stroke="rgb(0,0,0)" stroke-linejoin="round" d="M 15193,6122 L 1278,6122"/>
 <path fill="none" stroke="rgb(0,0,0)" stroke-linejoin="round" d="M 15193,5084 L 1278,5084"/>
 <path fill="none" stroke="rgb(0,0,0)" stroke-linejoin="round" d="M 15193,4045 L 1278,4045"/>
 <path fill="none" stroke="rgb(0,0,0)" stroke-linejoin="round" d="M 15193,3006 L 1278,3006"/>
 <path fill="none" stroke="rgb(0,0,0)" stroke-linejoin="round" d="M 15193,1967 L 1278,1967"/>
 <path fill="none" stroke="rgb(0,0,0)" stroke-linejoin="round" d="M 15193,928 L 1278,928"/>
 <path fill="none" stroke="rgb(179,179,179)" stroke-linejoin="round" d="M 1278,11468 L 1278,11318"/>
 <path fill="none" stroke="rgb(179,179,179)" stroke-linejoin="round" d="M 1278,11468 L 1278,11318"/>
 <path fill="none" stroke="rgb(179,179,179)" stroke-linejoin="round" d="M 3815,11468 L 3815,11318"/>
 <path fill="none" stroke="rgb(179,179,179)" stroke-linejoin="round" d="M 3815,11468 L 3815,11318"/>
 <path fill="none" stroke="rgb(179,179,179)" stroke-linejoin="round" d="M 6353,11468 L 6353,11318"/>
 <path fill="none" stroke="rgb(179,179,179)" stroke-linejoin="round" d="M 6353,11468 L 6353,11318"/>
 <path fill="none" stroke="rgb(179,179,179)" stroke-linejoin="round" d="M 8809,11468 L 8809,11318"/>
 <path fill="none" stroke="rgb(179,179,179)" stroke-linejoin="round" d="M 8809,11468 L 8809,11318"/>
 <path fill="none" stroke="rgb(179,179,179)" stroke-linejoin="round" d="M 11345,11468 L 11345,11318"/>
 <path fill="none" stroke="rgb(179,179,179)" stroke-linejoin="round" d="M 11345,11468 L 11345,11318"/>
 <path fill="none" stroke="rgb(179,179,179)" stroke-linejoin="round" d="M 13801,11468 L 13801,11318"/>
 <path fill="none" stroke="rgb(179,179,179)" stroke-linejoin="round" d="M 13801,11468 L 13801,11318"/>
 <path fill="none" stroke="rgb(179,179,179)" stroke-linejoin="round" d="M 1278,11318 L 15193,11318"/>
 <path fill="none" stroke="rgb(0,0,0)" stroke-linejoin="round" d="M 1128,11318 L 1278,11318"/>
 <path fill="none" stroke="rgb(0,0,0)" stroke-linejoin="round" d="M 1128,11318 L 1278,11318"/>
 <path fill="none" stroke="rgb(0,0,0)" stroke-linejoin="round" d="M 1128,10278 L 1278,10278"/>
 <path fill="none" stroke="rgb(0,0,0)" stroke-linejoin="round" d="M 1128,10278 L 1278,10278"/>
 <path fill="none" stroke="rgb(0,0,0)" stroke-linejoin="round" d="M 1128,9239 L 1278,9239"/>
 <path fill="none" stroke="rgb(0,0,0)" stroke-linejoin="round" d="M 1128,9239 L 1278,9239"/>
 <path fill="none" stroke="rgb(0,0,0)" stroke-linejoin="round" d="M 1128,8200 L 1278,8200"/>
 <path fill="none" stroke="rgb(0,0,0)" stroke-linejoin="round" d="M 1128,8200 L 1278,8200"/>
 <path fill="none" stroke="rgb(0,0,0)" stroke-linejoin="round" d="M 1128,7161 L 1278,7161"/>
 <path fill="none" stroke="rgb(0,0,0)" stroke-linejoin="round" d="M 1128,7161 L 1278,7161"/>
 <path fill="none" stroke="rgb(0,0,0)" stroke-linejoin="round" d="M 1128,6122 L 1278,6122"/>
 <path fill="none" stroke="rgb(0,0,0)" stroke-linejoin="round" d="M 1128,6122 L 1278,6122"/>
 <path fill="none" stroke="rgb(0,0,0)" stroke-linejoin="round" d="M 1128,5084 L 1278,5084"/>
 <path fill="none" stroke="rgb(0,0,0)" stroke-linejoin="round" d="M 1128,5084 L 1278,5084"/>
 <path fill="none" stroke="rgb(0,0,0)" stroke-linejoin="round" d="M 1128,4045 L 1278,4045"/>
 <path fill="none" stroke="rgb(0,0,0)" stroke-linejoin="round" d="M 1128,4045 L 1278,4045"/>
 <path fill="none" stroke="rgb(0,0,0)" stroke-linejoin="round" d="M 1128,3006 L 1278,3006"/>
 <path fill="none" stroke="rgb(0,0,0)" stroke-linejoin="round" d="M 1128,3006 L 1278,3006"/>
 <path fill="none" stroke="rgb(0,0,0)" stroke-linejoin="round" d="M 1128,1967 L 1278,1967"/>
 <path fill="none" stroke="rgb(0,0,0)" stroke-linejoin="round" d="M 1128,1967 L 1278,1967"/>
 <path fill="none" stroke="rgb(0,0,0)" stroke-linejoin="round" d="M 1128,928 L 1278,928"/>
 <path fill="none" stroke="rgb(0,0,0)" stroke-linejoin="round" d="M 1128,928 L 1278,928"/>
 <path fill="none" stroke="rgb(0,0,0)" stroke-linejoin="round" d="M 1278,11318 L 1278,928"/>
 <path fill="rgb(255,166,166)" stroke="none" d="M 1278,11318 L 1359,9076 1441,9569 1523,9812 1605,9662 1687,9577 1769,9269 1851,9409 1932,9561 2014,9455 2096,9505 2178,9600 2260,9460 2342,9484 2424,9728 2505,9760 2587,9716 2669,9798 2751,9924 2833,8653 2915,8673 2997,8792 3078,8944 3160,9208 3242,9266 3324,9304 3406,9349 3488,9336 3570,9394 3651,9509 3733,9403 3815,9460 3897,9477 3979,9495 4061,9496 4143,9575 4224,9637 4306,9682 4388,9703 4470,9775 4552,9742 4634,9730 4716,9770 4797,9826 4879,9833 4961,9862 5043,9895 5125,9899 5207,9893 5289,9919 5370,9991 5452,10068 5534,10111 5616,10163 5698,10135 5780,10122 5862,10148 5943,10208 6025,10224 6107,10228 6189,10254 6271,10247 6353,10234 6435,10257 6516,10296 6598,10319 6680,10333 6762,10347 6844,10336 6926,10328 7008,10340 7089,10367 7171,10365 7253,10375 7335,10393 7417,10386 7499,10378 7581,10377 7662,10387 7744,10395 7826,10369 7908,10377 7990,10368 8072,10339 8154,10329 8236,10340 8317,10308 8399,10274 8481,10280 8563,10234 8645,10199 8727,10181 8809,10176 8890,10157 8972,10126 9053,10120 9135,10062 9217,10027 9299,10005 9381,10001 9462,10026 9544,9979 9626,9952 9708,9900 9790,9859 9872,9841 9954,9841 10035,9796 10117,9751 10199,9727 10281,9685 10363,9635 10445,9613 10527,9608 10608,9569 10690,9538 10772,9523 10854,9476 10936,9443 11018,9420 11100,9410 11181,9393 11263,9361 11345,9345 11427,9316 11509,9289 11591,9267 11673,9266 11754,9256 11836,9219 11918,9202 12000,9181 12082,9161 12164,9153 12246,9156 12327,9162 12409,9140 12491,9133 12573,9120 12655,9107 12737,9104 12819,9104 12900,9105 12982,9102 13064,9104 13146,9100 13228,9100 13310,9101 13392,9115 13473,9122 13555,9130 13637,9127 13719,9126 13801,9126 13883,9129 13965,9142 14046,9155 14128,9163 14210,9161 14292,9158 14374,9157 14456,9161 14538,9179 14619,9185 14701,9201 14783,9212 14865,9220 14947,9220 15029,9221 15111,9241 15193,9254 15193,11318 1278,11318 Z"/>
 <path fill="none" stroke="rgb(0,0,0)" stroke-width="50" stroke-linejoin="round" d="M 1278,11318 L 1359,9076 1441,9569 1523,9812 1605,9662 1687,9577 1769,9269 1851,9409 1932,9561 2014,9455 2096,9505 2178,9600 2260,9460 2342,9484 2424,9728 2505,9760 2587,9716 2669,9798 2751,9924 2833,8653 2915,8673 2997,8792 3078,8944 3160,9208 3242,9266 3324,9304 3406,9349 3488,9336 3570,9394 3651,9509 3733,9403 3815,9460 3897,9477 3979,9495 4061,9496 4143,9575 4224,9637 4306,9682 4388,9703 4470,9775 4552,9742 4634,9730 4716,9770 4797,9826 4879,9833 4961,9862 5043,9895 5125,9899 5207,9893 5289,9919 5370,9991 5452,10068 5534,10111 5616,10163 5698,10135 5780,10122 5862,10148 5943,10208 6025,10224 6107,10228 6189,10254 6271,10247 6353,10234 6435,10257 6516,10296 6598,10319 6680,10333 6762,10347 6844,10336 6926,10328 7008,10340 7089,10367 7171,10365 7253,10375 7335,10393 7417,10386 7499,10378 7581,10377 7662,10387 7744,10395 7826,10369 7908,10377 7990,10368 8072,10339 8154,10329 8236,10340 8317,10308 8399,10274 8481,10280 8563,10234 8645,10199 8727,10181 8809,10176 8890,10157 8972,10126 9053,10120 9135,10062 9217,10027 9299,10005 9381,10001 9462,10026 9544,9979 9626,9952 9708,9900 9790,9859 9872,9841 9954,9841 10035,9796 10117,9751 10199,9727 10281,9685 10363,9635 10445,9613 10527,9608 10608,9569 10690,9538 10772,9523 10854,9476 10936,9443 11018,9420 11100,9410 11181,9393 11263,9361 11345,9345 11427,9316 11509,9289 11591,9267 11673,9266 11754,9256 11836,9219 11918,9202 12000,9181 12082,9161 12164,9153 12246,9156 12327,9162 12409,9140 12491,9133 12573,9120 12655,9107 12737,9104 12819,9104 12900,9105 12982,9102 13064,9104 13146,9100 13228,9100 13310,9101 13392,9115 13473,9122 13555,9130 13637,9127 13719,9126 13801,9126 13883,9129 13965,9142 14046,9155 14128,9163 14210,9161 14292,9158 14374,9157 14456,9161 14538,9179 14619,9185 14701,9201 14783,9212 14865,9220 14947,9220 15029,9221 15111,9241 15193,9254 15193,11318 1278,11318 Z"/>
 <path fill="rgb(255,255,215)" stroke="none" d="M 1278,11318 L 1359,9076 1441,9569 1523,9812 1605,9662 1687,9577 1769,9269 1851,9409 1932,9561 2014,9455 2096,9505 2178,9600 2260,9460 2342,9484 2424,9728 2505,9760 2587,9716 2669,9798 2751,9605 2833,8349 2915,8329 2997,8441 3078,8523 3160,8730 3242,8767 3324,8819 3406,8768 3488,8726 3570,8786 3651,8857 3733,8651 3815,8676 3897,8674 3979,8641 4061,8647 4143,8768 4224,8862 4306,8896 4388,8894 4470,8985 4552,8921 4634,8908 4716,8981 4797,8983 4879,8987 4961,9006 5043,9060 5125,9049 5207,9038 5289,9077 5370,9137 5452,9236 5534,9280 5616,9326 5698,9258 5780,9221 5862,9270 5943,9329 6025,9323 6107,9294 6189,9317 6271,9273 6353,9246 6435,9292 6516,9301 6598,9279 6680,9266 6762,9247 6844,9202 6926,9171 7008,9198 7089,9212 7171,9174 7253,9149 7335,9145 7417,9088 7499,9044 7581,9048 7662,9001 7744,8964 7826,8890 7908,8874 7990,8800 8072,8756 8154,8753 8236,8720 8317,8647 8399,8577 8481,8551 8563,8470 8645,8406 8727,8420 8809,8396 8890,8352 8972,8295 9053,8291 9135,8191 9217,8156 9299,8167 9381,8189 9462,8245 9544,8191 9626,8185 9708,8100 9790,8067 9872,8121 9954,8114 10035,8044 10117,7976 10199,7970 10281,7905 10363,7871 10445,7877 10527,7890 10608,7844 10690,7801 10772,7796 10854,7746 10936,7697 11018,7700 11100,7702 11181,7664 11263,7629 11345,7621 11427,7580 11509,7556 11591,7552 11673,7555 11754,7530 11836,7499 11918,7483 12000,7457 12082,7441 12164,7446 12246,7444 12327,7442 12409,7418 12491,7420 12573,7396 12655,7389 12737,7397 12819,7406 12900,7402 12982,7396 13064,7401 13146,7387 13228,7383 13310,7393 13392,7403 13473,7397 13555,7401 13637,7382 13719,7381 13801,7375 13883,7380 13965,7407 14046,7402 14128,7387 14210,7371 14292,7359 14374,7346 14456,7349 14538,7364 14619,7346 14701,7334 14783,7318 14865,7304 14947,7292 15029,7290 15111,7295 15193,7271 15193,9254 15111,9241 15029,9221 14947,9220 14865,9220 14783,9212 14701,9201 14619,9185 14538,9179 14456,9161 14374,9157 14292,9158 14210,9161 14128,9163 14046,9155 13965,9142 13883,9129 13801,9126 13719,9126 13637,9127 13555,9130 13473,9122 13392,9115 13310,9101 13228,9100 13146,9100 13064,9104 12982,9102 12900,9105 12819,9104 12737,9104 12655,9107 12573,9120 12491,9133 12409,9140 12327,9162 12246,9156 12164,9153 12082,9161 12000,9181 11918,9202 11836,9219 11754,9256 11673,9266 11591,9267 11509,9289 11427,9316 11345,9345 11263,9361 11181,9393 11100,9410 11018,9420 10936,9443 10854,9476 10772,9523 10690,9538 10608,9569 10527,9608 10445,9613 10363,9635 10281,9685 10199,9727 10117,9751 10035,9796 9954,9841 9872,9841 9790,9859 9708,9900 9626,9952 9544,9979 9462,10026 9381,10001 9299,10005 9217,10027 9135,10062 9053,10120 8972,10126 8890,10157 8809,10176 8727,10181 8645,10199 8563,10234 8481,10280 8399,10274 8317,10308 8236,10340 8154,10329 8072,10339 7990,10368 7908,10377 7826,10369 7744,10395 7662,10387 7581,10377 7499,10378 7417,10386 7335,10393 7253,10375 7171,10365 7089,10367 7008,10340 6926,10328 6844,10336 6762,10347 6680,10333 6598,10319 6516,10296 6435,10257 6353,10234 6271,10247 6189,10254 6107,10228 6025,10224 5943,10208 5862,10148 5780,10122 5698,10135 5616,10163 5534,10111 5452,10068 5370,9991 5289,9919 5207,9893 5125,9899 5043,9895 4961,9862 4879,9833 4797,9826 4716,9770 4634,9730 4552,9742 4470,9775 4388,9703 4306,9682 4224,9637 4143,9575 4061,9496 3979,9495 3897,9477 3815,9460 3733,9403 3651,9509 3570,9394 3488,9336 3406,9349 3324,9304 3242,9266 3160,9208 3078,8944 2997,8792 2915,8673 2833,8653 2751,9924 2669,9798 2587,9716 2505,9760 2424,9728 2342,9484 2260,9460 2178,9600 2096,9505 2014,9455 1932,9561 1851,9409 1769,9269 1687,9577 1605,9662 1523,9812 1441,9569 1359,9076 1278,11318 Z"/>
 <path fill="none" stroke="rgb(0,0,0)" stroke-width="50" stroke-linejoin="round" d="M 1278,11318 L 1359,9076 1441,9569 1523,9812 1605,9662 1687,9577 1769,9269 1851,9409 1932,9561 2014,9455 2096,9505 2178,9600 2260,9460 2342,9484 2424,9728 2505,9760 2587,9716 2669,9798 2751,9605 2833,8349 2915,8329 2997,8441 3078,8523 3160,8730 3242,8767 3324,8819 3406,8768 3488,8726 3570,8786 3651,8857 3733,8651 3815,8676 3897,8674 3979,8641 4061,8647 4143,8768 4224,8862 4306,8896 4388,8894 4470,8985 4552,8921 4634,8908 4716,8981 4797,8983 4879,8987 4961,9006 5043,9060 5125,9049 5207,9038 5289,9077 5370,9137 5452,9236 5534,9280 5616,9326 5698,9258 5780,9221 5862,9270 5943,9329 6025,9323 6107,9294 6189,9317 6271,9273 6353,9246 6435,9292 6516,9301 6598,9279 6680,9266 6762,9247 6844,9202 6926,9171 7008,9198 7089,9212 7171,9174 7253,9149 7335,9145 7417,9088 7499,9044 7581,9048 7662,9001 7744,8964 7826,8890 7908,8874 7990,8800 8072,8756 8154,8753 8236,8720 8317,8647 8399,8577 8481,8551 8563,8470 8645,8406 8727,8420 8809,8396 8890,8352 8972,8295 9053,8291 9135,8191 9217,8156 9299,8167 9381,8189 9462,8245 9544,8191 9626,8185 9708,8100 9790,8067 9872,8121 9954,8114 10035,8044 10117,7976 10199,7970 10281,7905 10363,7871 10445,7877 10527,7890 10608,7844 10690,7801 10772,7796 10854,7746 10936,7697 11018,7700 11100,7702 11181,7664 11263,7629 11345,7621 11427,7580 11509,7556 11591,7552 11673,7555 11754,7530 11836,7499 11918,7483 12000,7457 12082,7441 12164,7446 12246,7444 12327,7442 12409,7418 12491,7420 12573,7396 12655,7389 12737,7397 12819,7406 12900,7402 12982,7396 13064,7401 13146,7387 13228,7383 13310,7393 13392,7403 13473,7397 13555,7401 13637,7382 13719,7381 13801,7375 13883,7380 13965,7407 14046,7402 14128,7387 14210,7371 14292,7359 14374,7346 14456,7349 14538,7364 14619,7346 14701,7334 14783,7318 14865,7304 14947,7292 15029,7290 15111,7295 15193,7271 15193,9254 15111,9241 15029,9221 14947,9220 14865,9220 14783,9212 14701,9201 14619,9185 14538,9179 14456,9161 14374,9157 14292,9158 14210,9161 14128,9163 14046,9155 13965,9142 13883,9129 13801,9126 13719,9126 13637,9127 13555,9130 13473,9122 13392,9115 13310,9101 13228,9100 13146,9100 13064,9104 12982,9102 12900,9105 12819,9104 12737,9104 12655,9107 12573,9120 12491,9133 12409,9140 12327,9162 12246,9156 12164,9153 12082,9161 12000,9181 11918,9202 11836,9219 11754,9256 11673,9266 11591,9267 11509,9289 11427,9316 11345,9345 11263,9361 11181,9393 11100,9410 11018,9420 10936,9443 10854,9476 10772,9523 10690,9538 10608,9569 10527,9608 10445,9613 10363,9635 10281,9685 10199,9727 10117,9751 10035,9796 9954,9841 9872,9841 9790,9859 9708,9900 9626,9952 9544,9979 9462,10026 9381,10001 9299,10005 9217,10027 9135,10062 9053,10120 8972,10126 8890,10157 8809,10176 8727,10181 8645,10199 8563,10234 8481,10280 8399,10274 8317,10308 8236,10340 8154,10329 8072,10339 7990,10368 7908,10377 7826,10369 7744,10395 7662,10387 7581,10377 7499,10378 7417,10386 7335,10393 7253,10375 7171,10365 7089,10367 7008,10340 6926,10328 6844,10336 6762,10347 6680,10333 6598,10319 6516,10296 6435,10257 6353,10234 6271,10247 6189,10254 6107,10228 6025,10224 5943,10208 5862,10148 5780,10122 5698,10135 5616,10163 5534,10111 5452,10068 5370,9991 5289,9919 5207,9893 5125,9899 5043,9895 4961,9862 4879,9833 4797,9826 4716,9770 4634,9730 4552,9742 4470,9775 4388,9703 4306,9682 4224,9637 4143,9575 4061,9496 3979,9495 3897,9477 3815,9460 3733,9403 3651,9509 3570,9394 3488,9336 3406,9349 3324,9304 3242,9266 3160,9208 3078,8944 2997,8792 2915,8673 2833,8653 2751,9924 2669,9798 2587,9716 2505,9760 2424,9728 2342,9484 2260,9460 2178,9600 2096,9505 2014,9455 1932,9561 1851,9409 1769,9269 1687,9577 1605,9662 1523,9812 1441,9569 1359,9076 1278,11318 Z"/>
 <path fill="rgb(222,230,239)" stroke="none" d="M 1278,11318 L 1359,6224 1441,6585 1523,6423 1605,6465 1687,6711 1769,6537 1851,6405 1932,6971 2014,6864 2096,7016 2178,7069 2260,7112 2342,7216 2424,7581 2505,7566 2587,7419 2669,7513 2751,7355 2833,6474 2915,6494 2997,6512 3078,6563 3160,6909 3242,6938 3324,6940 3406,6893 3488,6872 3570,6920 3651,7037 3733,6797 3815,6733 3897,6695 3979,6657 4061,6666 4143,6768 4224,6858 4306,6870 4388,6864 4470,7172 4552,7096 4634,7088 4716,7167 4797,7149 4879,7139 4961,7155 5043,7054 5125,7024 5207,7016 5289,7052 5370,7125 5452,7277 5534,7321 5616,7167 5698,7086 5780,7059 5862,7112 5943,7189 6025,7207 6107,7173 6189,7075 6271,7012 6353,6972 6435,6997 6516,7045 6598,7048 6680,7055 6762,6969 6844,6921 6926,6882 7008,6904 7089,6980 7171,6929 7253,6905 7335,6905 7417,6845 7499,6797 7581,6798 7662,6766 7744,6748 7826,6694 7908,6660 7990,6581 8072,6522 8154,6508 8236,6464 8317,6393 8399,6327 8481,6260 8563,6179 8645,6118 8727,6111 8809,6043 8890,6036 8972,5996 9053,5920 9135,5836 9217,5791 9299,5765 9381,5717 9462,5896 9544,5866 9626,5799 9708,5729 9790,5692 9872,5725 9954,5661 10035,5654 10117,5620 10199,5561 10281,5512 10363,5486 10445,5496 10527,5472 10608,5464 10690,5442 10772,5389 10854,5364 10936,5338 11018,5347 11100,5344 11181,5343 11263,5342 11345,5315 11427,5302 11509,5290 11591,5297 11673,5307 11754,5313 11836,5309 11918,5296 12000,5294 12082,5288 12164,5298 12246,5282 12327,5302 12409,5304 12491,5308 12573,5303 12655,5308 12737,5320 12819,5329 12900,5350 12982,5368 13064,5374 13146,5378 13228,5387 13310,5399 13392,5407 13473,5421 13555,5442 13637,5436 13719,5439 13801,5439 13883,5449 13965,5465 14046,5483 14128,5488 14210,5485 14292,5480 14374,5476 14456,5479 14538,5493 14619,5491 14701,5497 14783,5488 14865,5492 14947,5489 15029,5491 15111,5503 15193,5500 15193,7271 15111,7295 15029,7290 14947,7292 14865,7304 14783,7318 14701,7334 14619,7346 14538,7364 14456,7349 14374,7346 14292,7359 14210,7371 14128,7387 14046,7402 13965,7407 13883,7380 13801,7375 13719,7381 13637,7382 13555,7401 13473,7397 13392,7403 13310,7393 13228,7383 13146,7387 13064,7401 12982,7396 12900,7402 12819,7406 12737,7397 12655,7389 12573,7396 12491,7420 12409,7418 12327,7442 12246,7444 12164,7446 12082,7441 12000,7457 11918,7483 11836,7499 11754,7530 11673,7555 11591,7552 11509,7556 11427,7580 11345,7621 11263,7629 11181,7664 11100,7702 11018,7700 10936,7697 10854,7746 10772,7796 10690,7801 10608,7844 10527,7890 10445,7877 10363,7871 10281,7905 10199,7970 10117,7976 10035,8044 9954,8114 9872,8121 9790,8067 9708,8100 9626,8185 9544,8191 9462,8245 9381,8189 9299,8167 9217,8156 9135,8191 9053,8291 8972,8295 8890,8352 8809,8396 8727,8420 8645,8406 8563,8470 8481,8551 8399,8577 8317,8647 8236,8720 8154,8753 8072,8756 7990,8800 7908,8874 7826,8890 7744,8964 7662,9001 7581,9048 7499,9044 7417,9088 7335,9145 7253,9149 7171,9174 7089,9212 7008,9198 6926,9171 6844,9202 6762,9247 6680,9266 6598,9279 6516,9301 6435,9292 6353,9246 6271,9273 6189,9317 6107,9294 6025,9323 5943,9329 5862,9270 5780,9221 5698,9258 5616,9326 5534,9280 5452,9236 5370,9137 5289,9077 5207,9038 5125,9049 5043,9060 4961,9006 4879,8987 4797,8983 4716,8981 4634,8908 4552,8921 4470,8985 4388,8894 4306,8896 4224,8862 4143,8768 4061,8647 3979,8641 3897,8674 3815,8676 3733,8651 3651,8857 3570,8786 3488,8726 3406,8768 3324,8819 3242,8767 3160,8730 3078,8523 2997,8441 2915,8329 2833,8349 2751,9605 2669,9798 2587,9716 2505,9760 2424,9728 2342,9484 2260,9460 2178,9600 2096,9505 2014,9455 1932,9561 1851,9409 1769,9269 1687,9577 1605,9662 1523,9812 1441,9569 1359,9076 1278,11318 Z"/>
 <path fill="none" stroke="rgb(0,0,0)" stroke-width="50" stroke-linejoin="round" d="M 1278,11318 L 1359,6224 1441,6585 1523,6423 1605,6465 1687,6711 1769,6537 1851,6405 1932,6971 2014,6864 2096,7016 2178,7069 2260,7112 2342,7216 2424,7581 2505,7566 2587,7419 2669,7513 2751,7355 2833,6474 2915,6494 2997,6512 3078,6563 3160,6909 3242,6938 3324,6940 3406,6893 3488,6872 3570,6920 3651,7037 3733,6797 3815,6733 3897,6695 3979,6657 4061,6666 4143,6768 4224,6858 4306,6870 4388,6864 4470,7172 4552,7096 4634,7088 4716,7167 4797,7149 4879,7139 4961,7155 5043,7054 5125,7024 5207,7016 5289,7052 5370,7125 5452,7277 5534,7321 5616,7167 5698,7086 5780,7059 5862,7112 5943,7189 6025,7207 6107,7173 6189,7075 6271,7012 6353,6972 6435,6997 6516,7045 6598,7048 6680,7055 6762,6969 6844,6921 6926,6882 7008,6904 7089,6980 7171,6929 7253,6905 7335,6905 7417,6845 7499,6797 7581,6798 7662,6766 7744,6748 7826,6694 7908,6660 7990,6581 8072,6522 8154,6508 8236,6464 8317,6393 8399,6327 8481,6260 8563,6179 8645,6118 8727,6111 8809,6043 8890,6036 8972,5996 9053,5920 9135,5836 9217,5791 9299,5765 9381,5717 9462,5896 9544,5866 9626,5799 9708,5729 9790,5692 9872,5725 9954,5661 10035,5654 10117,5620 10199,5561 10281,5512 10363,5486 10445,5496 10527,5472 10608,5464 10690,5442 10772,5389 10854,5364 10936,5338 11018,5347 11100,5344 11181,5343 11263,5342 11345,5315 11427,5302 11509,5290 11591,5297 11673,5307 11754,5313 11836,5309 11918,5296 12000,5294 12082,5288 12164,5298 12246,5282 12327,5302 12409,5304 12491,5308 12573,5303 12655,5308 12737,5320 12819,5329 12900,5350 12982,5368 13064,5374 13146,5378 13228,5387 13310,5399 13392,5407 13473,5421 13555,5442 13637,5436 13719,5439 13801,5439 13883,5449 13965,5465 14046,5483 14128,5488 14210,5485 14292,5480 14374,5476 14456,5479 14538,5493 14619,5491 14701,5497 14783,5488 14865,5492 14947,5489 15029,5491 15111,5503 15193,5500 15193,7271 15111,7295 15029,7290 14947,7292 14865,7304 14783,7318 14701,7334 14619,7346 14538,7364 14456,7349 14374,7346 14292,7359 14210,7371 14128,7387 14046,7402 13965,7407 13883,7380 13801,7375 13719,7381 13637,7382 13555,7401 13473,7397 13392,7403 13310,7393 13228,7383 13146,7387 13064,7401 12982,7396 12900,7402 12819,7406 12737,7397 12655,7389 12573,7396 12491,7420 12409,7418 12327,7442 12246,7444 12164,7446 12082,7441 12000,7457 11918,7483 11836,7499 11754,7530 11673,7555 11591,7552 11509,7556 11427,7580 11345,7621 11263,7629 11181,7664 11100,7702 11018,7700 10936,7697 10854,7746 10772,7796 10690,7801 10608,7844 10527,7890 10445,7877 10363,7871 10281,7905 10199,7970 10117,7976 10035,8044 9954,8114 9872,8121 9790,8067 9708,8100 9626,8185 9544,8191 9462,8245 9381,8189 9299,8167 9217,8156 9135,8191 9053,8291 8972,8295 8890,8352 8809,8396 8727,8420 8645,8406 8563,8470 8481,8551 8399,8577 8317,8647 8236,8720 8154,8753 8072,8756 7990,8800 7908,8874 7826,8890 7744,8964 7662,9001 7581,9048 7499,9044 7417,9088 7335,9145 7253,9149 7171,9174 7089,9212 7008,9198 6926,9171 6844,9202 6762,9247 6680,9266 6598,9279 6516,9301 6435,9292 6353,9246 6271,9273 6189,9317 6107,9294 6025,9323 5943,9329 5862,9270 5780,9221 5698,9258 5616,9326 5534,9280 5452,9236 5370,9137 5289,9077 5207,9038 5125,9049 5043,9060 4961,9006 4879,8987 4797,8983 4716,8981 4634,8908 4552,8921 4470,8985 4388,8894 4306,8896 4224,8862 4143,8768 4061,8647 3979,8641 3897,8674 3815,8676 3733,8651 3651,8857 3570,8786 3488,8726 3406,8768 3324,8819 3242,8767 3160,8730 3078,8523 2997,8441 2915,8329 2833,8349 2751,9605 2669,9798 2587,9716 2505,9760 2424,9728 2342,9484 2260,9460 2178,9600 2096,9505 2014,9455 1932,9561 1851,9409 1769,9269 1687,9577 1605,9662 1523,9812 1441,9569 1359,9076 1278,11318 Z"/>
 <path fill="rgb(221,232,203)" stroke="none" d="M 1278,11318 L 1359,5410 1441,5763 1523,5219 1605,5152 1687,5176 1769,5416 1851,5345 1932,5840 2014,5516 2096,5640 2178,5639 2260,5541 2342,5679 2424,6286 2505,6311 2587,6157 2669,6326 2751,6133 2833,5400 2915,5443 2997,5514 3078,5609 3160,6031 3242,6028 3324,6033 3406,5971 3488,5952 3570,6020 3651,6174 3733,5902 3815,5850 3897,5826 3979,5795 4061,5784 4143,5923 4224,6042 4306,6041 4388,6034 4470,6397 4552,6327 4634,6322 4716,6441 4797,6451 4879,6436 4961,6471 5043,6398 5125,6362 5207,6355 5289,6418 5370,6504 5452,6691 5534,6762 5616,6628 5698,6544 5780,6520 5862,6600 5943,6696 6025,6715 6107,6668 6189,6574 6271,6506 6353,6464 6435,6507 6516,6573 6598,6576 6680,6588 6762,6512 6844,6452 6926,6416 7008,6447 7089,6537 7171,6483 7253,6458 7335,6470 7417,6404 7499,6354 7581,6365 7662,6343 7744,6310 7826,6248 7908,6220 7990,6129 8072,6071 8154,6067 8236,6023 8317,5949 8399,5886 8481,5815 8563,5723 8645,5659 8727,5662 8809,5612 8890,5594 8972,5539 9053,5460 9135,5358 9217,5318 9299,5295 9381,5245 9462,5426 9544,5389 9626,5310 9708,5227 9790,5188 9872,5229 9954,5172 10035,5140 10117,5091 10199,5018 10281,4956 10363,4926 10445,4946 10527,4916 10608,4886 10690,4849 10772,4787 10854,4744 10936,4713 11018,4730 11100,4727 11181,4700 11263,4675 11345,4628 11427,4590 11509,4572 11591,4583 11673,4582 11754,4560 11836,4533 11918,4501 12000,4471 12082,4454 12164,4466 12246,4437 12327,4427 12409,4413 12491,4392 12573,4365 12655,4355 12737,4368 12819,4368 12900,4344 12982,4332 13064,4306 13146,4279 13228,4272 13310,4284 13392,4272 13473,4248 13555,4241 13637,4224 13719,4220 13801,4210 13883,4215 13965,4210 14046,4192 14128,4167 14210,4148 14292,4135 14374,4125 14456,4126 14538,4123 14619,4091 14701,4067 14783,4028 14865,4002 14947,3988 15029,3991 15111,3995 15193,3971 15193,5500 15111,5503 15029,5491 14947,5489 14865,5492 14783,5488 14701,5497 14619,5491 14538,5493 14456,5479 14374,5476 14292,5480 14210,5485 14128,5488 14046,5483 13965,5465 13883,5449 13801,5439 13719,5439 13637,5436 13555,5442 13473,5421 13392,5407 13310,5399 13228,5387 13146,5378 13064,5374 12982,5368 12900,5350 12819,5329 12737,5320 12655,5308 12573,5303 12491,5308 12409,5304 12327,5302 12246,5282 12164,5298 12082,5288 12000,5294 11918,5296 11836,5309 11754,5313 11673,5307 11591,5297 11509,5290 11427,5302 11345,5315 11263,5342 11181,5343 11100,5344 11018,5347 10936,5338 10854,5364 10772,5389 10690,5442 10608,5464 10527,5472 10445,5496 10363,5486 10281,5512 10199,5561 10117,5620 10035,5654 9954,5661 9872,5725 9790,5692 9708,5729 9626,5799 9544,5866 9462,5896 9381,5717 9299,5765 9217,5791 9135,5836 9053,5920 8972,5996 8890,6036 8809,6043 8727,6111 8645,6118 8563,6179 8481,6260 8399,6327 8317,6393 8236,6464 8154,6508 8072,6522 7990,6581 7908,6660 7826,6694 7744,6748 7662,6766 7581,6798 7499,6797 7417,6845 7335,6905 7253,6905 7171,6929 7089,6980 7008,6904 6926,6882 6844,6921 6762,6969 6680,7055 6598,7048 6516,7045 6435,6997 6353,6972 6271,7012 6189,7075 6107,7173 6025,7207 5943,7189 5862,7112 5780,7059 5698,7086 5616,7167 5534,7321 5452,7277 5370,7125 5289,7052 5207,7016 5125,7024 5043,7054 4961,7155 4879,7139 4797,7149 4716,7167 4634,7088 4552,7096 4470,7172 4388,6864 4306,6870 4224,6858 4143,6768 4061,6666 3979,6657 3897,6695 3815,6733 3733,6797 3651,7037 3570,6920 3488,6872 3406,6893 3324,6940 3242,6938 3160,6909 3078,6563 2997,6512 2915,6494 2833,6474 2751,7355 2669,7513 2587,7419 2505,7566 2424,7581 2342,7216 2260,7112 2178,7069 2096,7016 2014,6864 1932,6971 1851,6405 1769,6537 1687,6711 1605,6465 1523,6423 1441,6585 1359,6224 1278,11318 Z"/>
 <path fill="none" stroke="rgb(0,0,0)" stroke-width="50" stroke-linejoin="round" d="M 1278,11318 L 1359,5410 1441,5763 1523,5219 1605,5152 1687,5176 1769,5416 1851,5345 1932,5840 2014,5516 2096,5640 2178,5639 2260,5541 2342,5679 2424,6286 2505,6311 2587,6157 2669,6326 2751,6133 2833,5400 2915,5443 2997,5514 3078,5609 3160,6031 3242,6028 3324,6033 3406,5971 3488,5952 3570,6020 3651,6174 3733,5902 3815,5850 3897,5826 3979,5795 4061,5784 4143,5923 4224,6042 4306,6041 4388,6034 4470,6397 4552,6327 4634,6322 4716,6441 4797,6451 4879,6436 4961,6471 5043,6398 5125,6362 5207,6355 5289,6418 5370,6504 5452,6691 5534,6762 5616,6628 5698,6544 5780,6520 5862,6600 5943,6696 6025,6715 6107,6668 6189,6574 6271,6506 6353,6464 6435,6507 6516,6573 6598,6576 6680,6588 6762,6512 6844,6452 6926,6416 7008,6447 7089,6537 7171,6483 7253,6458 7335,6470 7417,6404 7499,6354 7581,6365 7662,6343 7744,6310 7826,6248 7908,6220 7990,6129 8072,6071 8154,6067 8236,6023 8317,5949 8399,5886 8481,5815 8563,5723 8645,5659 8727,5662 8809,5612 8890,5594 8972,5539 9053,5460 9135,5358 9217,5318 9299,5295 9381,5245 9462,5426 9544,5389 9626,5310 9708,5227 9790,5188 9872,5229 9954,5172 10035,5140 10117,5091 10199,5018 10281,4956 10363,4926 10445,4946 10527,4916 10608,4886 10690,4849 10772,4787 10854,4744 10936,4713 11018,4730 11100,4727 11181,4700 11263,4675 11345,4628 11427,4590 11509,4572 11591,4583 11673,4582 11754,4560 11836,4533 11918,4501 12000,4471 12082,4454 12164,4466 12246,4437 12327,4427 12409,4413 12491,4392 12573,4365 12655,4355 12737,4368 12819,4368 12900,4344 12982,4332 13064,4306 13146,4279 13228,4272 13310,4284 13392,4272 13473,4248 13555,4241 13637,4224 13719,4220 13801,4210 13883,4215 13965,4210 14046,4192 14128,4167 14210,4148 14292,4135 14374,4125 14456,4126 14538,4123 14619,4091 14701,4067 14783,4028 14865,4002 14947,3988 15029,3991 15111,3995 15193,3971 15193,5500 15111,5503 15029,5491 14947,5489 14865,5492 14783,5488 14701,5497 14619,5491 14538,5493 14456,5479 14374,5476 14292,5480 14210,5485 14128,5488 14046,5483 13965,5465 13883,5449 13801,5439 13719,5439 13637,5436 13555,5442 13473,5421 13392,5407 13310,5399 13228,5387 13146,5378 13064,5374 12982,5368 12900,5350 12819,5329 12737,5320 12655,5308 12573,5303 12491,5308 12409,5304 12327,5302 12246,5282 12164,5298 12082,5288 12000,5294 11918,5296 11836,5309 11754,5313 11673,5307 11591,5297 11509,5290 11427,5302 11345,5315 11263,5342 11181,5343 11100,5344 11018,5347 10936,5338 10854,5364 10772,5389 10690,5442 10608,5464 10527,5472 10445,5496 10363,5486 10281,5512 10199,5561 10117,5620 10035,5654 9954,5661 9872,5725 9790,5692 9708,5729 9626,5799 9544,5866 9462,5896 9381,5717 9299,5765 9217,5791 9135,5836 9053,5920 8972,5996 8890,6036 8809,6043 8727,6111 8645,6118 8563,6179 8481,6260 8399,6327 8317,6393 8236,6464 8154,6508 8072,6522 7990,6581 7908,6660 7826,6694 7744,6748 7662,6766 7581,6798 7499,6797 7417,6845 7335,6905 7253,6905 7171,6929 7089,6980 7008,6904 6926,6882 6844,6921 6762,6969 6680,7055 6598,7048 6516,7045 6435,6997 6353,6972 6271,7012 6189,7075 6107,7173 6025,7207 5943,7189 5862,7112 5780,7059 5698,7086 5616,7167 5534,7321 5452,7277 5370,7125 5289,7052 5207,7016 5125,7024 5043,7054 4961,7155 4879,7139 4797,7149 4716,7167 4634,7088 4552,7096 4470,7172 4388,6864 4306,6870 4224,6858 4143,6768 4061,6666 3979,6657 3897,6695 3815,6733 3733,6797 3651,7037 3570,6920 3488,6872 3406,6893 3324,6940 3242,6938 3160,6909 3078,6563 2997,6512 2915,6494 2833,6474 2751,7355 2669,7513 2587,7419 2505,7566 2424,7581 2342,7216 2260,7112 2178,7069 2096,7016 2014,6864 1932,6971 1851,6405 1769,6537 1687,6711 1605,6465 1523,6423 1441,6585 1359,6224 1278,11318 Z"/>
 <path fill="rgb(183,179,202)" stroke="none" d="M 1278,11318 L 1359,5002 1441,5043 1523,4542 1605,4524 1687,4613 1769,4879 1851,4002 1932,3935 2014,3761 2096,4045 2178,4120 2260,4133 2342,4319 2424,3960 2505,4089 2587,4103 2669,4144 2751,4045 2833,3658 2915,3739 2997,3655 3078,3697 3160,3480 3242,3471 3324,3452 3406,3471 3488,3489 3570,3459 3651,3513 3733,2930 3815,2875 3897,2876 3979,2881 4061,2904 4143,2824 4224,2860 4306,2814 4388,2766 4470,2660 4552,2656 4634,2682 4716,2646 4797,2617 4879,2626 4961,2595 5043,2549 5125,2569 5207,2601 5289,2556 5370,2507 5452,2453 5534,2406 5616,2350 5698,2343 5780,2379 5862,2340 5943,2319 6025,2317 6107,2296 6189,2255 6271,2264 6353,2272 6435,2235 6516,2315 6598,2290 6680,2265 6762,2238 6844,2264 6926,2281 7008,2286 7089,2343 7171,2339 7253,2330 7335,2313 7417,2331 7499,2348 7581,2332 7662,2430 7744,2409 7826,2394 7908,2399 7990,2407 8072,2422 8154,2413 8236,2479 8317,2466 8399,2463 8481,2447 8563,2460 8645,2484 8727,2495 8809,2584 8890,2673 8972,2688 9053,2682 9135,2693 9217,2732 9299,2694 9381,2778 9462,2737 9544,2741 9626,2740 9708,2750 9790,2773 9872,2802 9954,2856 10035,2876 10117,2868 10199,2845 10281,2853 10363,2874 10445,2888 10527,2920 10608,2921 10690,2916 10772,2896 10854,2898 10936,2905 11018,2911 11100,2933 11181,2925 11263,2917 11345,2903 11427,2902 11509,2909 11591,2916 11673,2933 11754,2930 11836,2921 11918,2913 12000,2910 12082,2915 12164,2920 12246,2930 12327,2922 12409,2917 12491,2910 12573,2907 12655,2912 12737,2919 12819,2930 12900,2924 12982,2929 13064,2922 13146,2916 13228,2923 13310,2931 13392,2935 13473,2925 13555,2934 13637,2931 13719,2936 13801,2936 13883,2942 13965,2948 14046,2941 14128,2931 14210,2925 14292,2922 14374,2921 14456,2923 14538,2929 14619,2917 14701,2901 14783,2875 14865,2866 14947,2862 15029,2857 15111,2869 15193,2855 15193,3971 15111,3995 15029,3991 14947,3988 14865,4002 14783,4028 14701,4067 14619,4091 14538,4123 14456,4126 14374,4125 14292,4135 14210,4148 14128,4167 14046,4192 13965,4210 13883,4215 13801,4210 13719,4220 13637,4224 13555,4241 13473,4248 13392,4272 13310,4284 13228,4272 13146,4279 13064,4306 12982,4332 12900,4344 12819,4368 12737,4368 12655,4355 12573,4365 12491,4392 12409,4413 12327,4427 12246,4437 12164,4466 12082,4454 12000,4471 11918,4501 11836,4533 11754,4560 11673,4582 11591,4583 11509,4572 11427,4590 11345,4628 11263,4675 11181,4700 11100,4727 11018,4730 10936,4713 10854,4744 10772,4787 10690,4849 10608,4886 10527,4916 10445,4946 10363,4926 10281,4956 10199,5018 10117,5091 10035,5140 9954,5172 9872,5229 9790,5188 9708,5227 9626,5310 9544,5389 9462,5426 9381,5245 9299,5295 9217,5318 9135,5358 9053,5460 8972,5539 8890,5594 8809,5612 8727,5662 8645,5659 8563,5723 8481,5815 8399,5886 8317,5949 8236,6023 8154,6067 8072,6071 7990,6129 7908,6220 7826,6248 7744,6310 7662,6343 7581,6365 7499,6354 7417,6404 7335,6470 7253,6458 7171,6483 7089,6537 7008,6447 6926,6416 6844,6452 6762,6512 6680,6588 6598,6576 6516,6573 6435,6507 6353,6464 6271,6506 6189,6574 6107,6668 6025,6715 5943,6696 5862,6600 5780,6520 5698,6544 5616,6628 5534,6762 5452,6691 5370,6504 5289,6418 5207,6355 5125,6362 5043,6398 4961,6471 4879,6436 4797,6451 4716,6441 4634,6322 4552,6327 4470,6397 4388,6034 4306,6041 4224,6042 4143,5923 4061,5784 3979,5795 3897,5826 3815,5850 3733,5902 3651,6174 3570,6020 3488,5952 3406,5971 3324,6033 3242,6028 3160,6031 3078,5609 2997,5514 2915,5443 2833,5400 2751,6133 2669,6326 2587,6157 2505,6311 2424,6286 2342,5679 2260,5541 2178,5639 2096,5640 2014,5516 1932,5840 1851,5345 1769,5416 1687,5176 1605,5152 1523,5219 1441,5763 1359,5410 1278,11318 Z"/>
 <path fill="none" stroke="rgb(0,0,0)" stroke-width="50" stroke-linejoin="round" d="M 1278,11318 L 1359,5002 1441,5043 1523,4542 1605,4524 1687,4613 1769,4879 1851,4002 1932,3935 2014,3761 2096,4045 2178,4120 2260,4133 2342,4319 2424,3960 2505,4089 2587,4103 2669,4144 2751,4045 2833,3658 2915,3739 2997,3655 3078,3697 3160,3480 3242,3471 3324,3452 3406,3471 3488,3489 3570,3459 3651,3513 3733,2930 3815,2875 3897,2876 3979,2881 4061,2904 4143,2824 4224,2860 4306,2814 4388,2766 4470,2660 4552,2656 4634,2682 4716,2646 4797,2617 4879,2626 4961,2595 5043,2549 5125,2569 5207,2601 5289,2556 5370,2507 5452,2453 5534,2406 5616,2350 5698,2343 5780,2379 5862,2340 5943,2319 6025,2317 6107,2296 6189,2255 6271,2264 6353,2272 6435,2235 6516,2315 6598,2290 6680,2265 6762,2238 6844,2264 6926,2281 7008,2286 7089,2343 7171,2339 7253,2330 7335,2313 7417,2331 7499,2348 7581,2332 7662,2430 7744,2409 7826,2394 7908,2399 7990,2407 8072,2422 8154,2413 8236,2479 8317,2466 8399,2463 8481,2447 8563,2460 8645,2484 8727,2495 8809,2584 8890,2673 8972,2688 9053,2682 9135,2693 9217,2732 9299,2694 9381,2778 9462,2737 9544,2741 9626,2740 9708,2750 9790,2773 9872,2802 9954,2856 10035,2876 10117,2868 10199,2845 10281,2853 10363,2874 10445,2888 10527,2920 10608,2921 10690,2916 10772,2896 10854,2898 10936,2905 11018,2911 11100,2933 11181,2925 11263,2917 11345,2903 11427,2902 11509,2909 11591,2916 11673,2933 11754,2930 11836,2921 11918,2913 12000,2910 12082,2915 12164,2920 12246,2930 12327,2922 12409,2917 12491,2910 12573,2907 12655,2912 12737,2919 12819,2930 12900,2924 12982,2929 13064,2922 13146,2916 13228,2923 13310,2931 13392,2935 13473,2925 13555,2934 13637,2931 13719,2936 13801,2936 13883,2942 13965,2948 14046,2941 14128,2931 14210,2925 14292,2922 14374,2921 14456,2923 14538,2929 14619,2917 14701,2901 14783,2875 14865,2866 14947,2862 15029,2857 15111,2869 15193,2855 15193,3971 15111,3995 15029,3991 14947,3988 14865,4002 14783,4028 14701,4067 14619,4091 14538,4123 14456,4126 14374,4125 14292,4135 14210,4148 14128,4167 14046,4192 13965,4210 13883,4215 13801,4210 13719,4220 13637,4224 13555,4241 13473,4248 13392,4272 13310,4284 13228,4272 13146,4279 13064,4306 12982,4332 12900,4344 12819,4368 12737,4368 12655,4355 12573,4365 12491,4392 12409,4413 12327,4427 12246,4437 12164,4466 12082,4454 12000,4471 11918,4501 11836,4533 11754,4560 11673,4582 11591,4583 11509,4572 11427,4590 11345,4628 11263,4675 11181,4700 11100,4727 11018,4730 10936,4713 10854,4744 10772,4787 10690,4849 10608,4886 10527,4916 10445,4946 10363,4926 10281,4956 10199,5018 10117,5091 10035,5140 9954,5172 9872,5229 9790,5188 9708,5227 9626,5310 9544,5389 9462,5426 9381,5245 9299,5295 9217,5318 9135,5358 9053,5460 8972,5539 8890,5594 8809,5612 8727,5662 8645,5659 8563,5723 8481,5815 8399,5886 8317,5949 8236,6023 8154,6067 8072,6071 7990,6129 7908,6220 7826,6248 7744,6310 7662,6343 7581,6365 7499,6354 7417,6404 7335,6470 7253,6458 7171,6483 7089,6537 7008,6447 6926,6416 6844,6452 6762,6512 6680,6588 6598,6576 6516,6573 6435,6507 6353,6464 6271,6506 6189,6574 6107,6668 6025,6715 5943,6696 5862,6600 5780,6520 5698,6544 5616,6628 5534,6762 5452,6691 5370,6504 5289,6418 5207,6355 5125,6362 5043,6398 4961,6471 4879,6436 4797,6451 4716,6441 4634,6322 4552,6327 4470,6397 4388,6034 4306,6041 4224,6042 4143,5923 4061,5784 3979,5795 3897,5826 3815,5850 3733,5902 3651,6174 3570,6020 3488,5952 3406,5971 3324,6033 3242,6028 3160,6031 3078,5609 2997,5514 2915,5443 2833,5400 2751,6133 2669,6326 2587,6157 2505,6311 2424,6286 2342,5679 2260,5541 2178,5639 2096,5640 2014,5516 1932,5840 1851,5345 1769,5416 1687,5176 1605,5152 1523,5219 1441,5763 1359,5410 1278,11318 Z"/>
 <path fill="rgb(114,159,207)" stroke="none" d="M 1278,11318 L 1359,4799 1441,3808 1523,3412 1605,3440 1687,3589 1769,3708 1851,3154 1932,3071 2014,2925 2096,3127 2178,3239 2260,3214 2342,3353 2424,3124 2505,3211 2587,3196 2669,3136 2751,2960 2833,2678 2915,2678 2997,2620 3078,2701 3160,2509 3242,2473 3324,2461 3406,2456 3488,2470 3570,2460 3651,2562 3733,2615 3815,2568 3897,2554 3979,2553 4061,2555 4143,2482 4224,2532 4306,2491 4388,2452 4470,2364 4552,2357 4634,2367 4716,2345 4797,2326 4879,2335 4961,2301 5043,2267 5125,2286 5207,2309 5289,2272 5370,2237 5452,2198 5534,2154 5616,2111 5698,2106 5780,2131 5862,2097 5943,2090 6025,2090 6107,2071 6189,2033 6271,2039 6353,2042 6435,2007 6516,2093 6598,2060 6680,2027 6762,2001 6844,2016 6926,2028 7008,2019 7089,2077 7171,2067 7253,2052 7335,2031 7417,2032 7499,2032 7581,2014 7662,2110 7744,2077 7826,2050 7908,2037 7990,2032 8072,2031 8154,2024 8236,2097 8317,2074 8399,2059 8481,2038 8563,2028 8645,2023 8727,2021 8809,2109 8890,2167 8972,2154 9053,2127 9135,2109 9217,2105 9299,2056 9381,2154 9462,2097 9544,2085 9626,2072 9708,2062 9790,2056 9872,2083 9954,2162 10035,2150 10117,2140 10199,2128 10281,2122 10363,2129 10445,2150 10527,2198 10608,2196 10690,2190 10772,2179 10854,2178 10936,2178 11018,2194 11100,2234 11181,2229 11263,2227 11345,2223 11427,2225 11509,2228 11591,2243 11673,2274 11754,2275 11836,2272 11918,2271 12000,2269 12082,2273 12164,2283 12246,2305 12327,2300 12409,2301 12491,2301 12573,2301 12655,2305 12737,2317 12819,2337 12900,2335 12982,2345 13064,2345 13146,2341 13228,2348 13310,2359 13392,2372 13473,2365 13555,2376 13637,2374 13719,2380 13801,2381 13883,2391 13965,2408 14046,2406 14128,2400 14210,2395 14292,2393 14374,2393 14456,2397 14538,2414 14619,2406 14701,2395 14783,2383 14865,2373 14947,2371 15029,2370 15111,2390 15193,2381 15193,2855 15111,2869 15029,2857 14947,2862 14865,2866 14783,2875 14701,2901 14619,2917 14538,2929 14456,2923 14374,2921 14292,2922 14210,2925 14128,2931 14046,2941 13965,2948 13883,2942 13801,2936 13719,2936 13637,2931 13555,2934 13473,2925 13392,2935 13310,2931 13228,2923 13146,2916 13064,2922 12982,2929 12900,2924 12819,2930 12737,2919 12655,2912 12573,2907 12491,2910 12409,2917 12327,2922 12246,2930 12164,2920 12082,2915 12000,2910 11918,2913 11836,2921 11754,2930 11673,2933 11591,2916 11509,2909 11427,2902 11345,2903 11263,2917 11181,2925 11100,2933 11018,2911 10936,2905 10854,2898 10772,2896 10690,2916 10608,2921 10527,2920 10445,2888 10363,2874 10281,2853 10199,2845 10117,2868 10035,2876 9954,2856 9872,2802 9790,2773 9708,2750 9626,2740 9544,2741 9462,2737 9381,2778 9299,2694 9217,2732 9135,2693 9053,2682 8972,2688 8890,2673 8809,2584 8727,2495 8645,2484 8563,2460 8481,2447 8399,2463 8317,2466 8236,2479 8154,2413 8072,2422 7990,2407 7908,2399 7826,2394 7744,2409 7662,2430 7581,2332 7499,2348 7417,2331 7335,2313 7253,2330 7171,2339 7089,2343 7008,2286 6926,2281 6844,2264 6762,2238 6680,2265 6598,2290 6516,2315 6435,2235 6353,2272 6271,2264 6189,2255 6107,2296 6025,2317 5943,2319 5862,2340 5780,2379 5698,2343 5616,2350 5534,2406 5452,2453 5370,2507 5289,2556 5207,2601 5125,2569 5043,2549 4961,2595 4879,2626 4797,2617 4716,2646 4634,2682 4552,2656 4470,2660 4388,2766 4306,2814 4224,2860 4143,2824 4061,2904 3979,2881 3897,2876 3815,2875 3733,2930 3651,3513 3570,3459 3488,3489 3406,3471 3324,3452 3242,3471 3160,3480 3078,3697 2997,3655 2915,3739 2833,3658 2751,4045 2669,4144 2587,4103 2505,4089 2424,3960 2342,4319 2260,4133 2178,4120 2096,4045 2014,3761 1932,3935 1851,4002 1769,4879 1687,4613 1605,4524 1523,4542 1441,5043 1359,5002 1278,11318 Z"/>
 <path fill="none" stroke="rgb(0,0,0)" stroke-width="50" stroke-linejoin="round" d="M 1278,11318 L 1359,4799 1441,3808 1523,3412 1605,3440 1687,3589 1769,3708 1851,3154 1932,3071 2014,2925 2096,3127 2178,3239 2260,3214 2342,3353 2424,3124 2505,3211 2587,3196 2669,3136 2751,2960 2833,2678 2915,2678 2997,2620 3078,2701 3160,2509 3242,2473 3324,2461 3406,2456 3488,2470 3570,2460 3651,2562 3733,2615 3815,2568 3897,2554 3979,2553 4061,2555 4143,2482 4224,2532 4306,2491 4388,2452 4470,2364 4552,2357 4634,2367 4716,2345 4797,2326 4879,2335 4961,2301 5043,2267 5125,2286 5207,2309 5289,2272 5370,2237 5452,2198 5534,2154 5616,2111 5698,2106 5780,2131 5862,2097 5943,2090 6025,2090 6107,2071 6189,2033 6271,2039 6353,2042 6435,2007 6516,2093 6598,2060 6680,2027 6762,2001 6844,2016 6926,2028 7008,2019 7089,2077 7171,2067 7253,2052 7335,2031 7417,2032 7499,2032 7581,2014 7662,2110 7744,2077 7826,2050 7908,2037 7990,2032 8072,2031 8154,2024 8236,2097 8317,2074 8399,2059 8481,2038 8563,2028 8645,2023 8727,2021 8809,2109 8890,2167 8972,2154 9053,2127 9135,2109 9217,2105 9299,2056 9381,2154 9462,2097 9544,2085 9626,2072 9708,2062 9790,2056 9872,2083 9954,2162 10035,2150 10117,2140 10199,2128 10281,2122 10363,2129 10445,2150 10527,2198 10608,2196 10690,2190 10772,2179 10854,2178 10936,2178 11018,2194 11100,2234 11181,2229 11263,2227 11345,2223 11427,2225 11509,2228 11591,2243 11673,2274 11754,2275 11836,2272 11918,2271 12000,2269 12082,2273 12164,2283 12246,2305 12327,2300 12409,2301 12491,2301 12573,2301 12655,2305 12737,2317 12819,2337 12900,2335 12982,2345 13064,2345 13146,2341 13228,2348 13310,2359 13392,2372 13473,2365 13555,2376 13637,2374 13719,2380 13801,2381 13883,2391 13965,2408 14046,2406 14128,2400 14210,2395 14292,2393 14374,2393 14456,2397 14538,2414 14619,2406 14701,2395 14783,2383 14865,2373 14947,2371 15029,2370 15111,2390 15193,2381 15193,2855 15111,2869 15029,2857 14947,2862 14865,2866 14783,2875 14701,2901 14619,2917 14538,2929 14456,2923 14374,2921 14292,2922 14210,2925 14128,2931 14046,2941 13965,2948 13883,2942 13801,2936 13719,2936 13637,2931 13555,2934 13473,2925 13392,2935 13310,2931 13228,2923 13146,2916 13064,2922 12982,2929 12900,2924 12819,2930 12737,2919 12655,2912 12573,2907 12491,2910 12409,2917 12327,2922 12246,2930 12164,2920 12082,2915 12000,2910 11918,2913 11836,2921 11754,2930 11673,2933 11591,2916 11509,2909 11427,2902 11345,2903 11263,2917 11181,2925 11100,2933 11018,2911 10936,2905 10854,2898 10772,2896 10690,2916 10608,2921 10527,2920 10445,2888 10363,2874 10281,2853 10199,2845 10117,2868 10035,2876 9954,2856 9872,2802 9790,2773 9708,2750 9626,2740 9544,2741 9462,2737 9381,2778 9299,2694 9217,2732 9135,2693 9053,2682 8972,2688 8890,2673 8809,2584 8727,2495 8645,2484 8563,2460 8481,2447 8399,2463 8317,2466 8236,2479 8154,2413 8072,2422 7990,2407 7908,2399 7826,2394 7744,2409 7662,2430 7581,2332 7499,2348 7417,2331 7335,2313 7253,2330 7171,2339 7089,2343 7008,2286 6926,2281 6844,2264 6762,2238 6680,2265 6598,2290 6516,2315 6435,2235 6353,2272 6271,2264 6189,2255 6107,2296 6025,2317 5943,2319 5862,2340 5780,2379 5698,2343 5616,2350 5534,2406 5452,2453 5370,2507 5289,2556 5207,2601 5125,2569 5043,2549 4961,2595 4879,2626 4797,2617 4716,2646 4634,2682 4552,2656 4470,2660 4388,2766 4306,2814 4224,2860 4143,2824 4061,2904 3979,2881 3897,2876 3815,2875 3733,2930 3651,3513 3570,3459 3488,3489 3406,3471 3324,3452 3242,3471 3160,3480 3078,3697 2997,3655 2915,3739 2833,3658 2751,4045 2669,4144 2587,4103 2505,4089 2424,3960 2342,4319 2260,4133 2178,4120 2096,4045 2014,3761 1932,3935 1851,4002 1769,4879 1687,4613 1605,4524 1523,4542 1441,5043 1359,5002 1278,11318 Z"/>
 <path fill="rgb(232,242,161)" stroke="none" d="M 1278,11318 L 1359,2965 1441,2882 1523,2735 1605,2926 1687,3129 1769,3269 1851,2836 1932,2625 2014,2520 2096,2764 2178,2909 2260,2908 2342,3057 2424,2878 2505,2864 2587,2870 2669,2842 2751,2697 2833,2460 2915,2464 2997,2418 3078,2385 3160,2235 3242,2210 3324,2212 3406,2215 3488,2232 3570,2231 3651,2177 3733,2222 3815,2193 3897,2191 3979,2195 4061,2200 4143,2148 4224,2111 4306,2087 4388,2063 4470,2003 4552,2002 4634,2015 4716,2012 4797,1969 4879,1991 4961,1970 5043,1951 5125,1974 5207,2000 5289,1977 5370,1926 5452,1912 5534,1885 5616,1858 5698,1857 5780,1886 5862,1864 5943,1816 6025,1828 6107,1819 6189,1794 6271,1804 6353,1810 6435,1784 6516,1748 6598,1732 6680,1713 6762,1700 6844,1721 6926,1737 7008,1737 7089,1718 7171,1720 7253,1716 7335,1711 7417,1718 7499,1724 7581,1716 7662,1704 7744,1689 7826,1678 7908,1683 7990,1687 8072,1693 8154,1699 8236,1681 8317,1676 8399,1678 8481,1677 8563,1678 8645,1682 8727,1695 8809,1665 8890,1750 8972,1756 9053,1752 9135,1749 9217,1756 9299,1722 9381,1714 9462,1697 9544,1706 9626,1717 9708,1719 9790,1722 9872,1763 9954,1752 10035,1761 10117,1769 10199,1775 10281,1780 10363,1795 10445,1828 10527,1825 10608,1838 10690,1844 10772,1849 10854,1856 10936,1862 11018,1887 11100,1893 11181,1899 11263,1907 11345,1915 11427,1923 11509,1931 11591,1952 11673,1956 11754,1965 11836,1970 11918,1976 12000,1980 12082,1988 12164,2003 12246,2004 12327,2005 12409,2013 12491,2020 12573,2025 12655,2031 12737,2048 12819,2047 12900,2051 12982,2067 13064,2072 13146,2073 13228,2083 13310,2096 13392,2087 13473,2085 13555,2101 13637,2102 13719,2110 13801,2113 13883,2127 13965,2116 14046,2120 14128,2120 14210,2118 14292,2118 14374,2121 14456,2128 14538,2119 14619,2116 14701,2110 14783,2103 14865,2097 14947,2097 15029,2099 15111,2092 15193,2088 15193,2381 15111,2390 15029,2370 14947,2371 14865,2373 14783,2383 14701,2395 14619,2406 14538,2414 14456,2397 14374,2393 14292,2393 14210,2395 14128,2400 14046,2406 13965,2408 13883,2391 13801,2381 13719,2380 13637,2374 13555,2376 13473,2365 13392,2372 13310,2359 13228,2348 13146,2341 13064,2345 12982,2345 12900,2335 12819,2337 12737,2317 12655,2305 12573,2301 12491,2301 12409,2301 12327,2300 12246,2305 12164,2283 12082,2273 12000,2269 11918,2271 11836,2272 11754,2275 11673,2274 11591,2243 11509,2228 11427,2225 11345,2223 11263,2227 11181,2229 11100,2234 11018,2194 10936,2178 10854,2178 10772,2179 10690,2190 10608,2196 10527,2198 10445,2150 10363,2129 10281,2122 10199,2128 10117,2140 10035,2150 9954,2162 9872,2083 9790,2056 9708,2062 9626,2072 9544,2085 9462,2097 9381,2154 9299,2056 9217,2105 9135,2109 9053,2127 8972,2154 8890,2167 8809,2109 8727,2021 8645,2023 8563,2028 8481,2038 8399,2059 8317,2074 8236,2097 8154,2024 8072,2031 7990,2032 7908,2037 7826,2050 7744,2077 7662,2110 7581,2014 7499,2032 7417,2032 7335,2031 7253,2052 7171,2067 7089,2077 7008,2019 6926,2028 6844,2016 6762,2001 6680,2027 6598,2060 6516,2093 6435,2007 6353,2042 6271,2039 6189,2033 6107,2071 6025,2090 5943,2090 5862,2097 5780,2131 5698,2106 5616,2111 5534,2154 5452,2198 5370,2237 5289,2272 5207,2309 5125,2286 5043,2267 4961,2301 4879,2335 4797,2326 4716,2345 4634,2367 4552,2357 4470,2364 4388,2452 4306,2491 4224,2532 4143,2482 4061,2555 3979,2553 3897,2554 3815,2568 3733,2615 3651,2562 3570,2460 3488,2470 3406,2456 3324,2461 3242,2473 3160,2509 3078,2701 2997,2620 2915,2678 2833,2678 2751,2960 2669,3136 2587,3196 2505,3211 2424,3124 2342,3353 2260,3214 2178,3239 2096,3127 2014,2925 1932,3071 1851,3154 1769,3708 1687,3589 1605,3440 1523,3412 1441,3808 1359,4799 1278,11318 Z"/>
 <path fill="none" stroke="rgb(0,0,0)" stroke-width="50" stroke-linejoin="round" d="M 1278,11318 L 1359,2965 1441,2882 1523,2735 1605,2926 1687,3129 1769,3269 1851,2836 1932,2625 2014,2520 2096,2764 2178,2909 2260,2908 2342,3057 2424,2878 2505,2864 2587,2870 2669,2842 2751,2697 2833,2460 2915,2464 2997,2418 3078,2385 3160,2235 3242,2210 3324,2212 3406,2215 3488,2232 3570,2231 3651,2177 3733,2222 3815,2193 3897,2191 3979,2195 4061,2200 4143,2148 4224,2111 4306,2087 4388,2063 4470,2003 4552,2002 4634,2015 4716,2012 4797,1969 4879,1991 4961,1970 5043,1951 5125,1974 5207,2000 5289,1977 5370,1926 5452,1912 5534,1885 5616,1858 5698,1857 5780,1886 5862,1864 5943,1816 6025,1828 6107,1819 6189,1794 6271,1804 6353,1810 6435,1784 6516,1748 6598,1732 6680,1713 6762,1700 6844,1721 6926,1737 7008,1737 7089,1718 7171,1720 7253,1716 7335,1711 7417,1718 7499,1724 7581,1716 7662,1704 7744,1689 7826,1678 7908,1683 7990,1687 8072,1693 8154,1699 8236,1681 8317,1676 8399,1678 8481,1677 8563,1678 8645,1682 8727,1695 8809,1665 8890,1750 8972,1756 9053,1752 9135,1749 9217,1756 9299,1722 9381,1714 9462,1697 9544,1706 9626,1717 9708,1719 9790,1722 9872,1763 9954,1752 10035,1761 10117,1769 10199,1775 10281,1780 10363,1795 10445,1828 10527,1825 10608,1838 10690,1844 10772,1849 10854,1856 10936,1862 11018,1887 11100,1893 11181,1899 11263,1907 11345,1915 11427,1923 11509,1931 11591,1952 11673,1956 11754,1965 11836,1970 11918,1976 12000,1980 12082,1988 12164,2003 12246,2004 12327,2005 12409,2013 12491,2020 12573,2025 12655,2031 12737,2048 12819,2047 12900,2051 12982,2067 13064,2072 13146,2073 13228,2083 13310,2096 13392,2087 13473,2085 13555,2101 13637,2102 13719,2110 13801,2113 13883,2127 13965,2116 14046,2120 14128,2120 14210,2118 14292,2118 14374,2121 14456,2128 14538,2119 14619,2116 14701,2110 14783,2103 14865,2097 14947,2097 15029,2099 15111,2092 15193,2088 15193,2381 15111,2390 15029,2370 14947,2371 14865,2373 14783,2383 14701,2395 14619,2406 14538,2414 14456,2397 14374,2393 14292,2393 14210,2395 14128,2400 14046,2406 13965,2408 13883,2391 13801,2381 13719,2380 13637,2374 13555,2376 13473,2365 13392,2372 13310,2359 13228,2348 13146,2341 13064,2345 12982,2345 12900,2335 12819,2337 12737,2317 12655,2305 12573,2301 12491,2301 12409,2301 12327,2300 12246,2305 12164,2283 12082,2273 12000,2269 11918,2271 11836,2272 11754,2275 11673,2274 11591,2243 11509,2228 11427,2225 11345,2223 11263,2227 11181,2229 11100,2234 11018,2194 10936,2178 10854,2178 10772,2179 10690,2190 10608,2196 10527,2198 10445,2150 10363,2129 10281,2122 10199,2128 10117,2140 10035,2150 9954,2162 9872,2083 9790,2056 9708,2062 9626,2072 9544,2085 9462,2097 9381,2154 9299,2056 9217,2105 9135,2109 9053,2127 8972,2154 8890,2167 8809,2109 8727,2021 8645,2023 8563,2028 8481,2038 8399,2059 8317,2074 8236,2097 8154,2024 8072,2031 7990,2032 7908,2037 7826,2050 7744,2077 7662,2110 7581,2014 7499,2032 7417,2032 7335,2031 7253,2052 7171,2067 7089,2077 7008,2019 6926,2028 6844,2016 6762,2001 6680,2027 6598,2060 6516,2093 6435,2007 6353,2042 6271,2039 6189,2033 6107,2071 6025,2090 5943,2090 5862,2097 5780,2131 5698,2106 5616,2111 5534,2154 5452,2198 5370,2237 5289,2272 5207,2309 5125,2286 5043,2267 4961,2301 4879,2335 4797,2326 4716,2345 4634,2367 4552,2357 4470,2364 4388,2452 4306,2491 4224,2532 4143,2482 4061,2555 3979,2553 3897,2554 3815,2568 3733,2615 3651,2562 3570,2460 3488,2470 3406,2456 3324,2461 3242,2473 3160,2509 3078,2701 2997,2620 2915,2678 2833,2678 2751,2960 2669,3136 2587,3196 2505,3211 2424,3124 2342,3353 2260,3214 2178,3239 2096,3127 2014,2925 1932,3071 1851,3154 1769,3708 1687,3589 1605,3440 1523,3412 1441,3808 1359,4799 1278,11318 Z"/>
 <path fill="rgb(174,207,0)" stroke="none" d="M 1278,11318 L 1359,928 1441,928 1523,928 1605,928 1741,928 1769,928 1851,928 1932,928 2014,928 2096,928 2178,928 2260,928 2342,928 2424,928 2505,928 2587,928 2669,928 2751,928 2833,928 2915,928 2997,928 3078,928 3160,928 3242,928 3324,928 3406,928 3488,928 3570,928 3651,928 3733,928 3815,928 3897,928 3979,928 4061,928 4143,928 4224,928 4306,928 4388,928 4470,928 4552,928 4634,928 4716,928 4797,928 4879,928 4961,928 5043,928 5125,928 5207,928 5289,928 5425,928 5452,928 5534,928 5616,928 5698,928 5780,928 5862,928 5943,928 6025,928 6107,928 6189,928 6271,928 6353,928 6435,928 6516,928 6598,928 6680,928 6762,928 6844,928 6926,928 7008,928 7089,928 7171,928 7253,928 7335,928 7417,928 7499,928 7581,928 7744,928 7826,928 7908,928 7990,928 8072,928 8154,928 8236,928 8317,928 8399,928 8481,928 8563,928 8645,928 8781,928 8809,928 8890,928 8972,928 9053,928 9135,928 9217,928 9299,928 9381,928 9462,928 9544,928 9626,928 9790,928 9954,928 10035,928 10117,928 10199,928 10281,928 10363,928 10445,928 10527,928 10608,928 10690,928 10772,928 10854,928 10936,928 11018,928 11100,928 11181,928 11263,928 11345,928 11427,928 11509,928 11591,928 11673,928 11836,928 11918,928 12000,928 12082,928 12164,928 12246,928 12327,928 12409,928 12491,928 12655,928 12737,928 12819,928 12900,928 12982,928 13064,928 13146,928 13228,928 13392,928 13514,928 13555,928 13637,928 13719,928 13801,928 13883,928 13965,928 14046,928 14128,928 14210,928 14292,928 14374,928 14456,928 14538,928 14619,928 14701,928 14783,928 14865,928 14947,928 15029,928 15111,928 15193,928 15193,2088 15111,2092 15029,2099 14947,2097 14865,2097 14783,2103 14701,2110 14619,2116 14538,2119 14456,2128 14374,2121 14292,2118 14210,2118 14128,2120 14046,2120 13965,2116 13883,2127 13801,2113 13719,2110 13637,2102 13555,2101 13473,2085 13392,2087 13310,2096 13228,2083 13146,2073 13064,2072 12982,2067 12900,2051 12819,2047 12737,2048 12655,2031 12573,2025 12491,2020 12409,2013 12327,2005 12246,2004 12164,2003 12082,1988 12000,1980 11918,1976 11836,1970 11754,1965 11673,1956 11591,1952 11509,1931 11427,1923 11345,1915 11263,1907 11181,1899 11100,1893 11018,1887 10936,1862 10854,1856 10772,1849 10690,1844 10608,1838 10527,1825 10445,1828 10363,1795 10281,1780 10199,1775 10117,1769 10035,1761 9954,1752 9872,1763 9790,1722 9708,1719 9626,1717 9544,1706 9462,1697 9381,1714 9299,1722 9217,1756 9135,1749 9053,1752 8972,1756 8890,1750 8809,1665 8727,1695 8645,1682 8563,1678 8481,1677 8399,1678 8317,1676 8236,1681 8154,1699 8072,1693 7990,1687 7908,1683 7826,1678 7744,1689 7662,1704 7581,1716 7499,1724 7417,1718 7335,1711 7253,1716 7171,1720 7089,1718 7008,1737 6926,1737 6844,1721 6762,1700 6680,1713 6598,1732 6516,1748 6435,1784 6353,1810 6271,1804 6189,1794 6107,1819 6025,1828 5943,1816 5862,1864 5780,1886 5698,1857 5616,1858 5534,1885 5452,1912 5370,1926 5289,1977 5207,2000 5125,1974 5043,1951 4961,1970 4879,1991 4797,1969 4716,2012 4634,2015 4552,2002 4470,2003 4388,2063 4306,2087 4224,2111 4143,2148 4061,2200 3979,2195 3897,2191 3815,2193 3733,2222 3651,2177 3570,2231 3488,2232 3406,2215 3324,2212 3242,2210 3160,2235 3078,2385 2997,2418 2915,2464 2833,2460 2751,2697 2669,2842 2587,2870 2505,2864 2424,2878 2342,3057 2260,2908 2178,2909 2096,2764 2014,2520 1932,2625 1851,2836 1769,3269 1687,3129 1605,2926 1523,2735 1441,2882 1359,2965 1278,11318 Z"/>
 <path fill="none" stroke="rgb(0,0,0)" stroke-width="50" stroke-linejoin="round" d="M 1278,11318 L 1359,928 1441,928 1523,928 1605,928 1741,928 1769,928 1851,928 1932,928 2014,928 2096,928 2178,928 2260,928 2342,928 2424,928 2505,928 2587,928 2669,928 2751,928 2833,928 2915,928 2997,928 3078,928 3160,928 3242,928 3324,928 3406,928 3488,928 3570,928 3651,928 3733,928 3815,928 3897,928 3979,928 4061,928 4143,928 4224,928 4306,928 4388,928 4470,928 4552,928 4634,928 4716,928 4797,928 4879,928 4961,928 5043,928 5125,928 5207,928 5289,928 5425,928 5452,928 5534,928 5616,928 5698,928 5780,928 5862,928 5943,928 6025,928 6107,928 6189,928 6271,928 6353,928 6435,928 6516,928 6598,928 6680,928 6762,928 6844,928 6926,928 7008,928 7089,928 7171,928 7253,928 7335,928 7417,928 7499,928 7581,928 7744,928 7826,928 7908,928 7990,928 8072,928 8154,928 8236,928 8317,928 8399,928 8481,928 8563,928 8645,928 8781,928 8809,928 8890,928 8972,928 9053,928 9135,928 9217,928 9299,928 9381,928 9462,928 9544,928 9626,928 9790,928 9954,928 10035,928 10117,928 10199,928 10281,928 10363,928 10445,928 10527,928 10608,928 10690,928 10772,928 10854,928 10936,928 11018,928 11100,928 11181,928 11263,928 11345,928 11427,928 11509,928 11591,928 11673,928 11836,928 11918,928 12000,928 12082,928 12164,928 12246,928 12327,928 12409,928 12491,928 12655,928 12737,928 12819,928 12900,928 12982,928 13064,928 13146,928 13228,928 13392,928 13514,928 13555,928 13637,928 13719,928 13801,928 13883,928 13965,928 14046,928 14128,928 14210,928 14292,928 14374,928 14456,928 14538,928 14619,928 14701,928 14783,928 14865,928 14947,928 15029,928 15111,928 15193,928 15193,2088 15111,2092 15029,2099 14947,2097 14865,2097 14783,2103 14701,2110 14619,2116 14538,2119 14456,2128 14374,2121 14292,2118 14210,2118 14128,2120 14046,2120 13965,2116 13883,2127 13801,2113 13719,2110 13637,2102 13555,2101 13473,2085 13392,2087 13310,2096 13228,2083 13146,2073 13064,2072 12982,2067 12900,2051 12819,2047 12737,2048 12655,2031 12573,2025 12491,2020 12409,2013 12327,2005 12246,2004 12164,2003 12082,1988 12000,1980 11918,1976 11836,1970 11754,1965 11673,1956 11591,1952 11509,1931 11427,1923 11345,1915 11263,1907 11181,1899 11100,1893 11018,1887 10936,1862 10854,1856 10772,1849 10690,1844 10608,1838 10527,1825 10445,1828 10363,1795 10281,1780 10199,1775 10117,1769 10035,1761 9954,1752 9872,1763 9790,1722 9708,1719 9626,1717 9544,1706 9462,1697 9381,1714 9299,1722 9217,1756 9135,1749 9053,1752 8972,1756 8890,1750 8809,1665 8727,1695 8645,1682 8563,1678 8481,1677 8399,1678 8317,1676 8236,1681 8154,1699 8072,1693 7990,1687 7908,1683 7826,1678 7744,1689 7662,1704 7581,1716 7499,1724 7417,1718 7335,1711 7253,1716 7171,1720 7089,1718 7008,1737 6926,1737 6844,1721 6762,1700 6680,1713 6598,1732 6516,1748 6435,1784 6353,1810 6271,1804 6189,1794 6107,1819 6025,1828 5943,1816 5862,1864 5780,1886 5698,1857 5616,1858 5534,1885 5452,1912 5370,1926 5289,1977 5207,2000 5125,1974 5043,1951 4961,1970 4879,1991 4797,1969 4716,2012 4634,2015 4552,2002 4470,2003 4388,2063 4306,2087 4224,2111 4143,2148 4061,2200 3979,2195 3897,2191 3815,2193 3733,2222 3651,2177 3570,2231 3488,2232 3406,2215 3324,2212 3242,2210 3160,2235 3078,2385 2997,2418 2915,2464 2833,2460 2751,2697 2669,2842 2587,2870 2505,2864 2424,2878 2342,3057 2260,2908 2178,2909 2096,2764 2014,2520 1932,2625 1851,2836 1769,3269 1687,3129 1605,2926 1523,2735 1441,2882 1359,2965 1278,11318 Z"/>
 <text class="TextShape"><tspan class="TextParagraph" font-family="Liberation Sans, sans-serif" font-size="353px" font-weight="400"><tspan class="TextPosition" x="854" y="11886"><tspan fill="rgb(0,0,0)" stroke="none">27/07</tspan></tspan></tspan></text>
 <text class="TextShape"><tspan class="TextParagraph" font-family="Liberation Sans, sans-serif" font-size="353px" font-weight="400"><tspan class="TextPosition" x="3391" y="11886"><tspan fill="rgb(0,0,0)" stroke="none">27/08</tspan></tspan></tspan></text>
 <text class="TextShape"><tspan class="TextParagraph" font-family="Liberation Sans, sans-serif" font-size="353px" font-weight="400"><tspan class="TextPosition" x="5929" y="11886"><tspan fill="rgb(0,0,0)" stroke="none">27/09</tspan></tspan></tspan></text>
 <text class="TextShape"><tspan class="TextParagraph" font-family="Liberation Sans, sans-serif" font-size="353px" font-weight="400"><tspan class="TextPosition" x="8385" y="11886"><tspan fill="rgb(0,0,0)" stroke="none">27/10</tspan></tspan></tspan></text>
 <text class="TextShape"><tspan class="TextParagraph" font-family="Liberation Sans, sans-serif" font-size="353px" font-weight="400"><tspan class="TextPosition" x="10922" y="11886"><tspan fill="rgb(0,0,0)" stroke="none">27/11</tspan></tspan></tspan></text>
 <text class="TextShape"><tspan class="TextParagraph" font-family="Liberation Sans, sans-serif" font-size="353px" font-weight="400"><tspan class="TextPosition" x="13378" y="11886"><tspan fill="rgb(0,0,0)" stroke="none">27/12</tspan></tspan></tspan></text>
 <text class="TextShape"><tspan class="TextParagraph" font-family="Liberation Sans, sans-serif" font-size="353px" font-weight="400"><tspan class="TextPosition" x="525" y="11439"><tspan fill="rgb(0,0,0)" stroke="none">0%</tspan></tspan></tspan></text>
 <text class="TextShape"><tspan class="TextParagraph" font-family="Liberation Sans, sans-serif" font-size="353px" font-weight="400"><tspan class="TextPosition" x="340" y="10399"><tspan fill="rgb(0,0,0)" stroke="none">10%</tspan></tspan></tspan></text>
 <text class="TextShape"><tspan class="TextParagraph" font-family="Liberation Sans, sans-serif" font-size="353px" font-weight="400"><tspan class="TextPosition" x="340" y="9360"><tspan fill="rgb(0,0,0)" stroke="none">20%</tspan></tspan></tspan></text>
 <text class="TextShape"><tspan class="TextParagraph" font-family="Liberation Sans, sans-serif" font-size="353px" font-weight="400"><tspan class="TextPosition" x="340" y="8321"><tspan fill="rgb(0,0,0)" stroke="none">30%</tspan></tspan></tspan></text>
 <text class="TextShape"><tspan class="TextParagraph" font-family="Liberation Sans, sans-serif" font-size="353px" font-weight="400"><tspan class="TextPosition" x="340" y="7282"><tspan fill="rgb(0,0,0)" stroke="none">40%</tspan></tspan></tspan></text>
 <text class="TextShape"><tspan class="TextParagraph" font-family="Liberation Sans, sans-serif" font-size="353px" font-weight="400"><tspan class="TextPosition" x="340" y="6243"><tspan fill="rgb(0,0,0)" stroke="none">50%</tspan></tspan></tspan></text>
 <text class="TextShape"><tspan class="TextParagraph" font-family="Liberation Sans, sans-serif" font-size="353px" font-weight="400"><tspan class="TextPosition" x="340" y="5204"><tspan fill="rgb(0,0,0)" stroke="none">60%</tspan></tspan></tspan></text>
 <text class="TextShape"><tspan class="TextParagraph" font-family="Liberation Sans, sans-serif" font-size="353px" font-weight="400"><tspan class="TextPosition" x="340" y="4165"><tspan fill="rgb(0,0,0)" stroke="none">70%</tspan></tspan></tspan></text>
 <text class="TextShape"><tspan class="TextParagraph" font-family="Liberation Sans, sans-serif" font-size="353px" font-weight="400"><tspan class="TextPosition" x="340" y="3126"><tspan fill="rgb(0,0,0)" stroke="none">80%</tspan></tspan></tspan></text>
 <text class="TextShape"><tspan class="TextParagraph" font-family="Liberation Sans, sans-serif" font-size="353px" font-weight="400"><tspan class="TextPosition" x="340" y="2087"><tspan fill="rgb(0,0,0)" stroke="none">90%</tspan></tspan></tspan></text>
 <text class="TextShape"><tspan class="TextParagraph" font-family="Liberation Sans, sans-serif" font-size="353px" font-weight="400"><tspan class="TextPosition" x="155" y="1048"><tspan fill="rgb(0,0,0)" stroke="none">100%</tspan></tspan></tspan></text>
 <text class="TextShape"><tspan class="TextParagraph" font-family="Liberation Sans, sans-serif" font-size="459px" font-weight="400"><tspan class="TextPosition" x="4508" y="724"><tspan fill="rgb(0,0,0)" stroke="none">Covid-19 (porcentaje de muertes acumuladas)</tspan></tspan></tspan></text>
 <text class="TextShape"><tspan class="TextParagraph" font-family="Arial, sans-serif" font-size="423px" font-weight="400"><tspan class="TextPosition" x="15383" y="10290"><tspan fill="rgb(0,0,0)" stroke="none">Italia</tspan></tspan></tspan></text>
 <text class="TextShape"><tspan class="TextParagraph" font-family="Arial, sans-serif" font-size="423px" font-weight="400"><tspan class="TextPosition" x="15374" y="6508"><tspan fill="rgb(0,0,0)" stroke="none">Francia</tspan></tspan></tspan></text>
 <text class="TextShape"><tspan class="TextParagraph" font-family="Arial, sans-serif" font-size="423px" font-weight="400"><tspan class="TextPosition" x="15346" y="2822"><tspan fill="rgb(0,0,0)" stroke="none">Blgica</tspan></tspan></tspan></text>
 <text class="TextShape"><tspan class="TextParagraph" font-family="Arial, sans-serif" font-size="423px" font-weight="400"><tspan class="TextPosition" x="15422" y="3592"><tspan fill="rgb(0,0,0)" stroke="none">Espaa</tspan></tspan></tspan></text>
 <text class="TextShape"><tspan class="TextParagraph" font-family="Arial, sans-serif" font-size="423px" font-weight="400"><tspan class="TextPosition" x="15346" y="4850"><tspan fill="rgb(0,0,0)" stroke="none">Alemania</tspan></tspan></tspan></text>
 <text class="TextShape"><tspan class="TextParagraph" font-family="Arial, sans-serif" font-size="423px" font-weight="400"><tspan class="TextPosition" x="15402" y="1568"><tspan fill="rgb(0,0,0)" stroke="none">Resto</tspan></tspan></tspan></text>
 <text class="TextShape"><tspan class="TextParagraph" font-family="Arial, sans-serif" font-size="423px" font-weight="400"><tspan class="TextPosition" x="15419" y="8280"><tspan fill="rgb(0,0,0)" stroke="none">Reino Unido</tspan></tspan></tspan></text>
 <text class="TextShape"><tspan class="TextParagraph" font-family="Arial, sans-serif" font-size="423px" font-weight="400"><tspan class="TextPosition" x="15346" y="2301"><tspan fill="rgb(0,0,0)" stroke="none">Holanda</tspan></tspan></tspan></text>
</svg>