<?xml version="1.0" encoding="UTF-8"?>
<!DOCTYPE svg PUBLIC "-//W3C//DTD SVG 1.1//EN" "http://www.w3.org/Graphics/SVG/1.1/DTD/svg11.dtd">
<svg width="150mm" height="120mm" viewBox="0 0 15000 12000" version="1.1" xmlns="http://www.w3.org/2000/svg" xmlns:xlink="http://www.w3.org/1999/xlink" stroke-width="28.222" stroke-linejoin="round" xml:space="preserve">
 <path fill="rgb(255,255,255)" stroke="none" d="M 7500,12000 L 0,12000 0,0 15000,0 15000,12000 7500,12000 Z"/>
 <path fill="none" stroke="rgb(0,0,0)" stroke-linejoin="round" d="M 8041,11068 L 1396,11068 1396,1028 14687,1028 14687,11068 8041,11068 Z"/>
 <path fill="none" stroke="rgb(221,221,221)" stroke-linejoin="round" d="M 1396,1027 L 1396,11067"/>
 <path fill="none" stroke="rgb(221,221,221)" stroke-linejoin="round" d="M 1588,1027 L 1588,11067"/>
 <path fill="none" stroke="rgb(221,221,221)" stroke-linejoin="round" d="M 1781,1027 L 1781,11067"/>
 <path fill="none" stroke="rgb(221,221,221)" stroke-linejoin="round" d="M 1973,1027 L 1973,11067"/>
 <path fill="none" stroke="rgb(221,221,221)" stroke-linejoin="round" d="M 2166,1027 L 2166,11067"/>
 <path fill="none" stroke="rgb(221,221,221)" stroke-linejoin="round" d="M 2359,1027 L 2359,11067"/>
 <path fill="none" stroke="rgb(221,221,221)" stroke-linejoin="round" d="M 2551,1027 L 2551,11067"/>
 <path fill="none" stroke="rgb(221,221,221)" stroke-linejoin="round" d="M 2744,1027 L 2744,11067"/>
 <path fill="none" stroke="rgb(221,221,221)" stroke-linejoin="round" d="M 2937,1027 L 2937,11067"/>
 <path fill="none" stroke="rgb(221,221,221)" stroke-linejoin="round" d="M 3129,1027 L 3129,11067"/>
 <path fill="none" stroke="rgb(221,221,221)" stroke-linejoin="round" d="M 3322,1027 L 3322,11067"/>
 <path fill="none" stroke="rgb(221,221,221)" stroke-linejoin="round" d="M 3515,1027 L 3515,11067"/>
 <path fill="none" stroke="rgb(221,221,221)" stroke-linejoin="round" d="M 3707,1027 L 3707,11067"/>
 <path fill="none" stroke="rgb(221,221,221)" stroke-linejoin="round" d="M 3900,1027 L 3900,11067"/>
 <path fill="none" stroke="rgb(221,221,221)" stroke-linejoin="round" d="M 4092,1027 L 4092,11067"/>
 <path fill="none" stroke="rgb(221,221,221)" stroke-linejoin="round" d="M 4285,1027 L 4285,11067"/>
 <path fill="none" stroke="rgb(221,221,221)" stroke-linejoin="round" d="M 4478,1027 L 4478,11067"/>
 <path fill="none" stroke="rgb(221,221,221)" stroke-linejoin="round" d="M 4670,1027 L 4670,11067"/>
 <path fill="none" stroke="rgb(221,221,221)" stroke-linejoin="round" d="M 4863,1027 L 4863,11067"/>
 <path fill="none" stroke="rgb(221,221,221)" stroke-linejoin="round" d="M 5056,1027 L 5056,11067"/>
 <path fill="none" stroke="rgb(221,221,221)" stroke-linejoin="round" d="M 5248,1027 L 5248,11067"/>
 <path fill="none" stroke="rgb(221,221,221)" stroke-linejoin="round" d="M 5441,1027 L 5441,11067"/>
 <path fill="none" stroke="rgb(221,221,221)" stroke-linejoin="round" d="M 5634,1027 L 5634,11067"/>
 <path fill="none" stroke="rgb(221,221,221)" stroke-linejoin="round" d="M 5826,1027 L 5826,11067"/>
 <path fill="none" stroke="rgb(221,221,221)" stroke-linejoin="round" d="M 6019,1027 L 6019,11067"/>
 <path fill="none" stroke="rgb(221,221,221)" stroke-linejoin="round" d="M 6211,1027 L 6211,11067"/>
 <path fill="none" stroke="rgb(221,221,221)" stroke-linejoin="round" d="M 6404,1027 L 6404,11067"/>
 <path fill="none" stroke="rgb(221,221,221)" stroke-linejoin="round" d="M 6597,1027 L 6597,11067"/>
 <path fill="none" stroke="rgb(221,221,221)" stroke-linejoin="round" d="M 6789,1027 L 6789,11067"/>
 <path fill="none" stroke="rgb(221,221,221)" stroke-linejoin="round" d="M 6982,1027 L 6982,11067"/>
 <path fill="none" stroke="rgb(221,221,221)" stroke-linejoin="round" d="M 7175,1027 L 7175,11067"/>
 <path fill="none" stroke="rgb(221,221,221)" stroke-linejoin="round" d="M 7367,1027 L 7367,11067"/>
 <path fill="none" stroke="rgb(221,221,221)" stroke-linejoin="round" d="M 7559,1027 L 7559,11067"/>
 <path fill="none" stroke="rgb(221,221,221)" stroke-linejoin="round" d="M 7752,1027 L 7752,11067"/>
 <path fill="none" stroke="rgb(221,221,221)" stroke-linejoin="round" d="M 7944,1027 L 7944,11067"/>
 <path fill="none" stroke="rgb(221,221,221)" stroke-linejoin="round" d="M 8137,1027 L 8137,11067"/>
 <path fill="none" stroke="rgb(221,221,221)" stroke-linejoin="round" d="M 8329,1027 L 8329,11067"/>
 <path fill="none" stroke="rgb(221,221,221)" stroke-linejoin="round" d="M 8522,1027 L 8522,11067"/>
 <path fill="none" stroke="rgb(221,221,221)" stroke-linejoin="round" d="M 8715,1027 L 8715,11067"/>
 <path fill="none" stroke="rgb(221,221,221)" stroke-linejoin="round" d="M 8907,1027 L 8907,11067"/>
 <path fill="none" stroke="rgb(221,221,221)" stroke-linejoin="round" d="M 9100,1027 L 9100,11067"/>
 <path fill="none" stroke="rgb(221,221,221)" stroke-linejoin="round" d="M 9293,1027 L 9293,11067"/>
 <path fill="none" stroke="rgb(221,221,221)" stroke-linejoin="round" d="M 9485,1027 L 9485,11067"/>
 <path fill="none" stroke="rgb(221,221,221)" stroke-linejoin="round" d="M 9678,1027 L 9678,11067"/>
 <path fill="none" stroke="rgb(221,221,221)" stroke-linejoin="round" d="M 9871,1027 L 9871,11067"/>
 <path fill="none" stroke="rgb(221,221,221)" stroke-linejoin="round" d="M 10063,1027 L 10063,11067"/>
 <path fill="none" stroke="rgb(221,221,221)" stroke-linejoin="round" d="M 10256,1027 L 10256,11067"/>
 <path fill="none" stroke="rgb(221,221,221)" stroke-linejoin="round" d="M 10448,1027 L 10448,11067"/>
 <path fill="none" stroke="rgb(221,221,221)" stroke-linejoin="round" d="M 10641,1027 L 10641,11067"/>
 <path fill="none" stroke="rgb(221,221,221)" stroke-linejoin="round" d="M 10834,1027 L 10834,11067"/>
 <path fill="none" stroke="rgb(221,221,221)" stroke-linejoin="round" d="M 11026,1027 L 11026,11067"/>
 <path fill="none" stroke="rgb(221,221,221)" stroke-linejoin="round" d="M 11219,1027 L 11219,11067"/>
 <path fill="none" stroke="rgb(221,221,221)" stroke-linejoin="round" d="M 11412,1027 L 11412,11067"/>
 <path fill="none" stroke="rgb(221,221,221)" stroke-linejoin="round" d="M 11604,1027 L 11604,11067"/>
 <path fill="none" stroke="rgb(221,221,221)" stroke-linejoin="round" d="M 11797,1027 L 11797,11067"/>
 <path fill="none" stroke="rgb(221,221,221)" stroke-linejoin="round" d="M 11990,1027 L 11990,11067"/>
 <path fill="none" stroke="rgb(221,221,221)" stroke-linejoin="round" d="M 12182,1027 L 12182,11067"/>
 <path fill="none" stroke="rgb(221,221,221)" stroke-linejoin="round" d="M 12375,1027 L 12375,11067"/>
 <path fill="none" stroke="rgb(221,221,221)" stroke-linejoin="round" d="M 12567,1027 L 12567,11067"/>
 <path fill="none" stroke="rgb(221,221,221)" stroke-linejoin="round" d="M 12760,1027 L 12760,11067"/>
 <path fill="none" stroke="rgb(221,221,221)" stroke-linejoin="round" d="M 12953,1027 L 12953,11067"/>
 <path fill="none" stroke="rgb(221,221,221)" stroke-linejoin="round" d="M 13145,1027 L 13145,11067"/>
 <path fill="none" stroke="rgb(221,221,221)" stroke-linejoin="round" d="M 13338,1027 L 13338,11067"/>
 <path fill="none" stroke="rgb(221,221,221)" stroke-linejoin="round" d="M 13531,1027 L 13531,11067"/>
 <path fill="none" stroke="rgb(221,221,221)" stroke-linejoin="round" d="M 13723,1027 L 13723,11067"/>
 <path fill="none" stroke="rgb(221,221,221)" stroke-linejoin="round" d="M 13916,1027 L 13916,11067"/>
 <path fill="none" stroke="rgb(221,221,221)" stroke-linejoin="round" d="M 14109,1027 L 14109,11067"/>
 <path fill="none" stroke="rgb(221,221,221)" stroke-linejoin="round" d="M 14301,1027 L 14301,11067"/>
 <path fill="none" stroke="rgb(221,221,221)" stroke-linejoin="round" d="M 14494,1027 L 14494,11067"/>
 <path fill="none" stroke="rgb(221,221,221)" stroke-linejoin="round" d="M 14687,1027 L 14687,11067"/>
 <path fill="none" stroke="rgb(0,0,0)" stroke-linejoin="round" d="M 14687,11067 L 1396,11067"/>
 <path fill="none" stroke="rgb(0,0,0)" stroke-linejoin="round" d="M 14687,8824 L 1396,8824"/>
 <path fill="none" stroke="rgb(0,0,0)" stroke-linejoin="round" d="M 14687,6581 L 1396,6581"/>
 <path fill="none" stroke="rgb(0,0,0)" stroke-linejoin="round" d="M 14687,4339 L 1396,4339"/>
 <path fill="none" stroke="rgb(0,0,0)" stroke-linejoin="round" d="M 14687,2097 L 1396,2097"/>
 <path fill="none" stroke="rgb(0,0,0)" stroke-linejoin="round" d="M 1396,11217 L 1396,11067"/>
 <path fill="none" stroke="rgb(0,0,0)" stroke-linejoin="round" d="M 1396,11217 L 1396,11067"/>
 <path fill="none" stroke="rgb(0,0,0)" stroke-linejoin="round" d="M 2744,11217 L 2744,11067"/>
 <path fill="none" stroke="rgb(0,0,0)" stroke-linejoin="round" d="M 2744,11217 L 2744,11067"/>
 <path fill="none" stroke="rgb(0,0,0)" stroke-linejoin="round" d="M 4092,11217 L 4092,11067"/>
 <path fill="none" stroke="rgb(0,0,0)" stroke-linejoin="round" d="M 4092,11217 L 4092,11067"/>
 <path fill="none" stroke="rgb(0,0,0)" stroke-linejoin="round" d="M 5441,11217 L 5441,11067"/>
 <path fill="none" stroke="rgb(0,0,0)" stroke-linejoin="round" d="M 5441,11217 L 5441,11067"/>
 <path fill="none" stroke="rgb(0,0,0)" stroke-linejoin="round" d="M 6789,11217 L 6789,11067"/>
 <path fill="none" stroke="rgb(0,0,0)" stroke-linejoin="round" d="M 6789,11217 L 6789,11067"/>
 <path fill="none" stroke="rgb(0,0,0)" stroke-linejoin="round" d="M 8137,11217 L 8137,11067"/>
 <path fill="none" stroke="rgb(0,0,0)" stroke-linejoin="round" d="M 8137,11217 L 8137,11067"/>
 <path fill="none" stroke="rgb(0,0,0)" stroke-linejoin="round" d="M 9485,11217 L 9485,11067"/>
 <path fill="none" stroke="rgb(0,0,0)" stroke-linejoin="round" d="M 9485,11217 L 9485,11067"/>
 <path fill="none" stroke="rgb(0,0,0)" stroke-linejoin="round" d="M 10834,11217 L 10834,11067"/>
 <path fill="none" stroke="rgb(0,0,0)" stroke-linejoin="round" d="M 10834,11217 L 10834,11067"/>
 <path fill="none" stroke="rgb(0,0,0)" stroke-linejoin="round" d="M 12182,11217 L 12182,11067"/>
 <path fill="none" stroke="rgb(0,0,0)" stroke-linejoin="round" d="M 12182,11217 L 12182,11067"/>
 <path fill="none" stroke="rgb(0,0,0)" stroke-linejoin="round" d="M 13531,11217 L 13531,11067"/>
 <path fill="none" stroke="rgb(0,0,0)" stroke-linejoin="round" d="M 13531,11217 L 13531,11067"/>
 <path fill="none" stroke="rgb(0,0,0)" stroke-linejoin="round" d="M 1396,11067 L 14687,11067"/>
 <path fill="none" stroke="rgb(0,0,0)" stroke-linejoin="round" d="M 1246,11067 L 1396,11067"/>
 <path fill="none" stroke="rgb(0,0,0)" stroke-linejoin="round" d="M 1246,11067 L 1396,11067"/>
 <path fill="none" stroke="rgb(0,0,0)" stroke-linejoin="round" d="M 1246,8824 L 1396,8824"/>
 <path fill="none" stroke="rgb(0,0,0)" stroke-linejoin="round" d="M 1246,8824 L 1396,8824"/>
 <path fill="none" stroke="rgb(0,0,0)" stroke-linejoin="round" d="M 1246,6581 L 1396,6581"/>
 <path fill="none" stroke="rgb(0,0,0)" stroke-linejoin="round" d="M 1246,6581 L 1396,6581"/>
 <path fill="none" stroke="rgb(0,0,0)" stroke-linejoin="round" d="M 1246,4339 L 1396,4339"/>
 <path fill="none" stroke="rgb(0,0,0)" stroke-linejoin="round" d="M 1246,4339 L 1396,4339"/>
 <path fill="none" stroke="rgb(0,0,0)" stroke-linejoin="round" d="M 1246,2097 L 1396,2097"/>
 <path fill="none" stroke="rgb(0,0,0)" stroke-linejoin="round" d="M 1246,2097 L 1396,2097"/>
 <path fill="none" stroke="rgb(0,0,0)" stroke-linejoin="round" d="M 1396,11067 L 1396,1027"/>
 <path fill="none" stroke="rgb(255,0,0)" stroke-width="50" stroke-linejoin="round" d="M 1492,11067 L 1684,11067 1877,11067 2070,11067 2262,11067 2455,11067 2648,11067 2840,11067 3033,11067 3226,11067 3418,11067 3611,11067 3803,11067 3996,11067 4189,9996 4381,9499 4574,9041 4767,8824 4959,8366 5152,7604 5345,7316 5537,6751 5730,6420 5922,6282 6115,5552 6308,5483 6500,5032 6693,4840 6886,4598 7078,4337 7271,4064 7464,3811 7655,3579 7848,3377 8041,3138 8233,2968 8426,2800 8618,2646 8811,2512 9004,2398 9196,2291 9389,2193 9582,2096 9774,2009 9967,1940 10160,1886 10352,1837 10545,1783 10737,1731 10930,1686 11123,1648 11315,1618 11508,1581 11701,1552 11893,1521 12086,1493 12279,1465 12471,1435 12664,1408 12856,1388 13049,1370 13242,1350 13434,1331 13627,1311 13820,1295 14012,1279 14205,1267 14398,1254 14590,1241"/>
 <path fill="rgb(255,0,0)" stroke="none" d="M 1392,11067 L 1492,11167 1592,11067 1492,10967 1392,11067 Z"/>
 <path fill="none" stroke="rgb(255,0,0)" stroke-linejoin="round" d="M 1392,11067 L 1492,11167 1592,11067 1492,10967 1392,11067 Z"/>
 <path fill="rgb(255,0,0)" stroke="none" d="M 1584,11067 L 1684,11167 1784,11067 1684,10967 1584,11067 Z"/>
 <path fill="none" stroke="rgb(255,0,0)" stroke-linejoin="round" d="M 1584,11067 L 1684,11167 1784,11067 1684,10967 1584,11067 Z"/>
 <path fill="rgb(255,0,0)" stroke="none" d="M 1777,11067 L 1877,11167 1977,11067 1877,10967 1777,11067 Z"/>
 <path fill="none" stroke="rgb(255,0,0)" stroke-linejoin="round" d="M 1777,11067 L 1877,11167 1977,11067 1877,10967 1777,11067 Z"/>
 <path fill="rgb(255,0,0)" stroke="none" d="M 1970,11067 L 2070,11167 2170,11067 2070,10967 1970,11067 Z"/>
 <path fill="none" stroke="rgb(255,0,0)" stroke-linejoin="round" d="M 1970,11067 L 2070,11167 2170,11067 2070,10967 1970,11067 Z"/>
 <path fill="rgb(255,0,0)" stroke="none" d="M 2162,11067 L 2262,11167 2362,11067 2262,10967 2162,11067 Z"/>
 <path fill="none" stroke="rgb(255,0,0)" stroke-linejoin="round" d="M 2162,11067 L 2262,11167 2362,11067 2262,10967 2162,11067 Z"/>
 <path fill="rgb(255,0,0)" stroke="none" d="M 2355,11067 L 2455,11167 2555,11067 2455,10967 2355,11067 Z"/>
 <path fill="none" stroke="rgb(255,0,0)" stroke-linejoin="round" d="M 2355,11067 L 2455,11167 2555,11067 2455,10967 2355,11067 Z"/>
 <path fill="rgb(255,0,0)" stroke="none" d="M 2548,11067 L 2648,11167 2748,11067 2648,10967 2548,11067 Z"/>
 <path fill="none" stroke="rgb(255,0,0)" stroke-linejoin="round" d="M 2548,11067 L 2648,11167 2748,11067 2648,10967 2548,11067 Z"/>
 <path fill="rgb(255,0,0)" stroke="none" d="M 2740,11067 L 2840,11167 2940,11067 2840,10967 2740,11067 Z"/>
 <path fill="none" stroke="rgb(255,0,0)" stroke-linejoin="round" d="M 2740,11067 L 2840,11167 2940,11067 2840,10967 2740,11067 Z"/>
 <path fill="rgb(255,0,0)" stroke="none" d="M 2933,11067 L 3033,11167 3133,11067 3033,10967 2933,11067 Z"/>
 <path fill="none" stroke="rgb(255,0,0)" stroke-linejoin="round" d="M 2933,11067 L 3033,11167 3133,11067 3033,10967 2933,11067 Z"/>
 <path fill="rgb(255,0,0)" stroke="none" d="M 3126,11067 L 3226,11167 3326,11067 3226,10967 3126,11067 Z"/>
 <path fill="none" stroke="rgb(255,0,0)" stroke-linejoin="round" d="M 3126,11067 L 3226,11167 3326,11067 3226,10967 3126,11067 Z"/>
 <path fill="rgb(255,0,0)" stroke="none" d="M 3318,11067 L 3418,11167 3518,11067 3418,10967 3318,11067 Z"/>
 <path fill="none" stroke="rgb(255,0,0)" stroke-linejoin="round" d="M 3318,11067 L 3418,11167 3518,11067 3418,10967 3318,11067 Z"/>
 <path fill="rgb(255,0,0)" stroke="none" d="M 3511,11067 L 3611,11167 3711,11067 3611,10967 3511,11067 Z"/>
 <path fill="none" stroke="rgb(255,0,0)" stroke-linejoin="round" d="M 3511,11067 L 3611,11167 3711,11067 3611,10967 3511,11067 Z"/>
 <path fill="rgb(255,0,0)" stroke="none" d="M 3703,11067 L 3803,11167 3903,11067 3803,10967 3703,11067 Z"/>
 <path fill="none" stroke="rgb(255,0,0)" stroke-linejoin="round" d="M 3703,11067 L 3803,11167 3903,11067 3803,10967 3703,11067 Z"/>
 <path fill="rgb(255,0,0)" stroke="none" d="M 3896,11067 L 3996,11167 4096,11067 3996,10967 3896,11067 Z"/>
 <path fill="none" stroke="rgb(255,0,0)" stroke-linejoin="round" d="M 3896,11067 L 3996,11167 4096,11067 3996,10967 3896,11067 Z"/>
 <path fill="rgb(255,0,0)" stroke="none" d="M 4089,9996 L 4189,10096 4289,9996 4189,9896 4089,9996 Z"/>
 <path fill="none" stroke="rgb(255,0,0)" stroke-linejoin="round" d="M 4089,9996 L 4189,10096 4289,9996 4189,9896 4089,9996 Z"/>
 <path fill="rgb(255,0,0)" stroke="none" d="M 4281,9499 L 4381,9599 4481,9499 4381,9399 4281,9499 Z"/>
 <path fill="none" stroke="rgb(255,0,0)" stroke-linejoin="round" d="M 4281,9499 L 4381,9599 4481,9499 4381,9399 4281,9499 Z"/>
 <path fill="rgb(255,0,0)" stroke="none" d="M 4474,9041 L 4574,9141 4674,9041 4574,8941 4474,9041 Z"/>
 <path fill="none" stroke="rgb(255,0,0)" stroke-linejoin="round" d="M 4474,9041 L 4574,9141 4674,9041 4574,8941 4474,9041 Z"/>
 <path fill="rgb(255,0,0)" stroke="none" d="M 4667,8824 L 4767,8924 4867,8824 4767,8724 4667,8824 Z"/>
 <path fill="none" stroke="rgb(255,0,0)" stroke-linejoin="round" d="M 4667,8824 L 4767,8924 4867,8824 4767,8724 4667,8824 Z"/>
 <path fill="rgb(255,0,0)" stroke="none" d="M 4859,8366 L 4959,8466 5059,8366 4959,8266 4859,8366 Z"/>
 <path fill="none" stroke="rgb(255,0,0)" stroke-linejoin="round" d="M 4859,8366 L 4959,8466 5059,8366 4959,8266 4859,8366 Z"/>
 <path fill="rgb(255,0,0)" stroke="none" d="M 5052,7604 L 5152,7704 5252,7604 5152,7504 5052,7604 Z"/>
 <path fill="none" stroke="rgb(255,0,0)" stroke-linejoin="round" d="M 5052,7604 L 5152,7704 5252,7604 5152,7504 5052,7604 Z"/>
 <path fill="rgb(255,0,0)" stroke="none" d="M 5245,7316 L 5345,7416 5445,7316 5345,7216 5245,7316 Z"/>
 <path fill="none" stroke="rgb(255,0,0)" stroke-linejoin="round" d="M 5245,7316 L 5345,7416 5445,7316 5345,7216 5245,7316 Z"/>
 <path fill="rgb(255,0,0)" stroke="none" d="M 5437,6751 L 5537,6851 5637,6751 5537,6651 5437,6751 Z"/>
 <path fill="none" stroke="rgb(255,0,0)" stroke-linejoin="round" d="M 5437,6751 L 5537,6851 5637,6751 5537,6651 5437,6751 Z"/>
 <path fill="rgb(255,0,0)" stroke="none" d="M 5630,6420 L 5730,6520 5830,6420 5730,6320 5630,6420 Z"/>
 <path fill="none" stroke="rgb(255,0,0)" stroke-linejoin="round" d="M 5630,6420 L 5730,6520 5830,6420 5730,6320 5630,6420 Z"/>
 <path fill="rgb(255,0,0)" stroke="none" d="M 5822,6282 L 5922,6382 6022,6282 5922,6182 5822,6282 Z"/>
 <path fill="none" stroke="rgb(255,0,0)" stroke-linejoin="round" d="M 5822,6282 L 5922,6382 6022,6282 5922,6182 5822,6282 Z"/>
 <path fill="rgb(255,0,0)" stroke="none" d="M 6015,5552 L 6115,5652 6215,5552 6115,5452 6015,5552 Z"/>
 <path fill="none" stroke="rgb(255,0,0)" stroke-linejoin="round" d="M 6015,5552 L 6115,5652 6215,5552 6115,5452 6015,5552 Z"/>
 <path fill="rgb(255,0,0)" stroke="none" d="M 6208,5483 L 6308,5583 6408,5483 6308,5383 6208,5483 Z"/>
 <path fill="none" stroke="rgb(255,0,0)" stroke-linejoin="round" d="M 6208,5483 L 6308,5583 6408,5483 6308,5383 6208,5483 Z"/>
 <path fill="rgb(255,0,0)" stroke="none" d="M 6400,5032 L 6500,5132 6600,5032 6500,4932 6400,5032 Z"/>
 <path fill="none" stroke="rgb(255,0,0)" stroke-linejoin="round" d="M 6400,5032 L 6500,5132 6600,5032 6500,4932 6400,5032 Z"/>
 <path fill="rgb(255,0,0)" stroke="none" d="M 6593,4840 L 6693,4940 6793,4840 6693,4740 6593,4840 Z"/>
 <path fill="none" stroke="rgb(255,0,0)" stroke-linejoin="round" d="M 6593,4840 L 6693,4940 6793,4840 6693,4740 6593,4840 Z"/>
 <path fill="rgb(255,0,0)" stroke="none" d="M 6786,4598 L 6886,4698 6986,4598 6886,4498 6786,4598 Z"/>
 <path fill="none" stroke="rgb(255,0,0)" stroke-linejoin="round" d="M 6786,4598 L 6886,4698 6986,4598 6886,4498 6786,4598 Z"/>
 <path fill="rgb(255,0,0)" stroke="none" d="M 6978,4337 L 7078,4437 7178,4337 7078,4237 6978,4337 Z"/>
 <path fill="none" stroke="rgb(255,0,0)" stroke-linejoin="round" d="M 6978,4337 L 7078,4437 7178,4337 7078,4237 6978,4337 Z"/>
 <path fill="rgb(255,0,0)" stroke="none" d="M 7171,4064 L 7271,4164 7371,4064 7271,3964 7171,4064 Z"/>
 <path fill="none" stroke="rgb(255,0,0)" stroke-linejoin="round" d="M 7171,4064 L 7271,4164 7371,4064 7271,3964 7171,4064 Z"/>
 <path fill="rgb(255,0,0)" stroke="none" d="M 7364,3811 L 7464,3911 7563,3811 7464,3711 7364,3811 Z"/>
 <path fill="none" stroke="rgb(255,0,0)" stroke-linejoin="round" d="M 7364,3811 L 7464,3911 7563,3811 7464,3711 7364,3811 Z"/>
 <path fill="rgb(255,0,0)" stroke="none" d="M 7555,3579 L 7655,3679 7755,3579 7655,3479 7555,3579 Z"/>
 <path fill="none" stroke="rgb(255,0,0)" stroke-linejoin="round" d="M 7555,3579 L 7655,3679 7755,3579 7655,3479 7555,3579 Z"/>
 <path fill="rgb(255,0,0)" stroke="none" d="M 7748,3377 L 7848,3477 7948,3377 7848,3277 7748,3377 Z"/>
 <path fill="none" stroke="rgb(255,0,0)" stroke-linejoin="round" d="M 7748,3377 L 7848,3477 7948,3377 7848,3277 7748,3377 Z"/>
 <path fill="rgb(255,0,0)" stroke="none" d="M 7941,3138 L 8041,3238 8141,3138 8041,3038 7941,3138 Z"/>
 <path fill="none" stroke="rgb(255,0,0)" stroke-linejoin="round" d="M 7941,3138 L 8041,3238 8141,3138 8041,3038 7941,3138 Z"/>
 <path fill="rgb(255,0,0)" stroke="none" d="M 8133,2968 L 8233,3068 8333,2968 8233,2868 8133,2968 Z"/>
 <path fill="none" stroke="rgb(255,0,0)" stroke-linejoin="round" d="M 8133,2968 L 8233,3068 8333,2968 8233,2868 8133,2968 Z"/>
 <path fill="rgb(255,0,0)" stroke="none" d="M 8326,2800 L 8426,2900 8526,2800 8426,2700 8326,2800 Z"/>
 <path fill="none" stroke="rgb(255,0,0)" stroke-linejoin="round" d="M 8326,2800 L 8426,2900 8526,2800 8426,2700 8326,2800 Z"/>
 <path fill="rgb(255,0,0)" stroke="none" d="M 8518,2646 L 8618,2746 8718,2646 8618,2546 8518,2646 Z"/>
 <path fill="none" stroke="rgb(255,0,0)" stroke-linejoin="round" d="M 8518,2646 L 8618,2746 8718,2646 8618,2546 8518,2646 Z"/>
 <path fill="rgb(255,0,0)" stroke="none" d="M 8711,2512 L 8811,2612 8911,2512 8811,2412 8711,2512 Z"/>
 <path fill="none" stroke="rgb(255,0,0)" stroke-linejoin="round" d="M 8711,2512 L 8811,2612 8911,2512 8811,2412 8711,2512 Z"/>
 <path fill="rgb(255,0,0)" stroke="none" d="M 8904,2398 L 9004,2498 9104,2398 9004,2298 8904,2398 Z"/>
 <path fill="none" stroke="rgb(255,0,0)" stroke-linejoin="round" d="M 8904,2398 L 9004,2498 9104,2398 9004,2298 8904,2398 Z"/>
 <path fill="rgb(255,0,0)" stroke="none" d="M 9096,2291 L 9196,2391 9296,2291 9196,2191 9096,2291 Z"/>
 <path fill="none" stroke="rgb(255,0,0)" stroke-linejoin="round" d="M 9096,2291 L 9196,2391 9296,2291 9196,2191 9096,2291 Z"/>
 <path fill="rgb(255,0,0)" stroke="none" d="M 9289,2193 L 9389,2293 9489,2193 9389,2093 9289,2193 Z"/>
 <path fill="none" stroke="rgb(255,0,0)" stroke-linejoin="round" d="M 9289,2193 L 9389,2293 9489,2193 9389,2093 9289,2193 Z"/>
 <path fill="rgb(255,0,0)" stroke="none" d="M 9482,2096 L 9582,2196 9682,2096 9582,1996 9482,2096 Z"/>
 <path fill="none" stroke="rgb(255,0,0)" stroke-linejoin="round" d="M 9482,2096 L 9582,2196 9682,2096 9582,1996 9482,2096 Z"/>
 <path fill="rgb(255,0,0)" stroke="none" d="M 9674,2009 L 9774,2109 9874,2009 9774,1909 9674,2009 Z"/>
 <path fill="none" stroke="rgb(255,0,0)" stroke-linejoin="round" d="M 9674,2009 L 9774,2109 9874,2009 9774,1909 9674,2009 Z"/>
 <path fill="rgb(255,0,0)" stroke="none" d="M 9867,1940 L 9967,2040 10067,1940 9967,1840 9867,1940 Z"/>
 <path fill="none" stroke="rgb(255,0,0)" stroke-linejoin="round" d="M 9867,1940 L 9967,2040 10067,1940 9967,1840 9867,1940 Z"/>
 <path fill="rgb(255,0,0)" stroke="none" d="M 10060,1886 L 10160,1986 10260,1886 10160,1786 10060,1886 Z"/>
 <path fill="none" stroke="rgb(255,0,0)" stroke-linejoin="round" d="M 10060,1886 L 10160,1986 10260,1886 10160,1786 10060,1886 Z"/>
 <path fill="rgb(255,0,0)" stroke="none" d="M 10252,1837 L 10352,1937 10452,1837 10352,1737 10252,1837 Z"/>
 <path fill="none" stroke="rgb(255,0,0)" stroke-linejoin="round" d="M 10252,1837 L 10352,1937 10452,1837 10352,1737 10252,1837 Z"/>
 <path fill="rgb(255,0,0)" stroke="none" d="M 10445,1783 L 10545,1883 10645,1783 10545,1683 10445,1783 Z"/>
 <path fill="none" stroke="rgb(255,0,0)" stroke-linejoin="round" d="M 10445,1783 L 10545,1883 10645,1783 10545,1683 10445,1783 Z"/>
 <path fill="rgb(255,0,0)" stroke="none" d="M 10637,1731 L 10737,1831 10837,1731 10737,1631 10637,1731 Z"/>
 <path fill="none" stroke="rgb(255,0,0)" stroke-linejoin="round" d="M 10637,1731 L 10737,1831 10837,1731 10737,1631 10637,1731 Z"/>
 <path fill="rgb(255,0,0)" stroke="none" d="M 10830,1686 L 10930,1786 11030,1686 10930,1586 10830,1686 Z"/>
 <path fill="none" stroke="rgb(255,0,0)" stroke-linejoin="round" d="M 10830,1686 L 10930,1786 11030,1686 10930,1586 10830,1686 Z"/>
 <path fill="rgb(255,0,0)" stroke="none" d="M 11023,1648 L 11123,1748 11223,1648 11123,1548 11023,1648 Z"/>
 <path fill="none" stroke="rgb(255,0,0)" stroke-linejoin="round" d="M 11023,1648 L 11123,1748 11223,1648 11123,1548 11023,1648 Z"/>
 <path fill="rgb(255,0,0)" stroke="none" d="M 11215,1618 L 11315,1718 11415,1618 11315,1518 11215,1618 Z"/>
 <path fill="none" stroke="rgb(255,0,0)" stroke-linejoin="round" d="M 11215,1618 L 11315,1718 11415,1618 11315,1518 11215,1618 Z"/>
 <path fill="rgb(255,0,0)" stroke="none" d="M 11408,1581 L 11508,1681 11608,1581 11508,1481 11408,1581 Z"/>
 <path fill="none" stroke="rgb(255,0,0)" stroke-linejoin="round" d="M 11408,1581 L 11508,1681 11608,1581 11508,1481 11408,1581 Z"/>
 <path fill="rgb(255,0,0)" stroke="none" d="M 11601,1552 L 11701,1652 11801,1552 11701,1452 11601,1552 Z"/>
 <path fill="none" stroke="rgb(255,0,0)" stroke-linejoin="round" d="M 11601,1552 L 11701,1652 11801,1552 11701,1452 11601,1552 Z"/>
 <path fill="rgb(255,0,0)" stroke="none" d="M 11793,1521 L 11893,1621 11993,1521 11893,1421 11793,1521 Z"/>
 <path fill="none" stroke="rgb(255,0,0)" stroke-linejoin="round" d="M 11793,1521 L 11893,1621 11993,1521 11893,1421 11793,1521 Z"/>
 <path fill="rgb(255,0,0)" stroke="none" d="M 11986,1493 L 12086,1593 12186,1493 12086,1393 11986,1493 Z"/>
 <path fill="none" stroke="rgb(255,0,0)" stroke-linejoin="round" d="M 11986,1493 L 12086,1593 12186,1493 12086,1393 11986,1493 Z"/>
 <path fill="rgb(255,0,0)" stroke="none" d="M 12179,1465 L 12279,1565 12379,1465 12279,1365 12179,1465 Z"/>
 <path fill="none" stroke="rgb(255,0,0)" stroke-linejoin="round" d="M 12179,1465 L 12279,1565 12379,1465 12279,1365 12179,1465 Z"/>
 <path fill="rgb(255,0,0)" stroke="none" d="M 12371,1435 L 12471,1535 12571,1435 12471,1335 12371,1435 Z"/>
 <path fill="none" stroke="rgb(255,0,0)" stroke-linejoin="round" d="M 12371,1435 L 12471,1535 12571,1435 12471,1335 12371,1435 Z"/>
 <path fill="rgb(255,0,0)" stroke="none" d="M 12564,1408 L 12664,1508 12764,1408 12664,1308 12564,1408 Z"/>
 <path fill="none" stroke="rgb(255,0,0)" stroke-linejoin="round" d="M 12564,1408 L 12664,1508 12764,1408 12664,1308 12564,1408 Z"/>
 <path fill="rgb(255,0,0)" stroke="none" d="M 12756,1388 L 12856,1488 12956,1388 12856,1288 12756,1388 Z"/>
 <path fill="none" stroke="rgb(255,0,0)" stroke-linejoin="round" d="M 12756,1388 L 12856,1488 12956,1388 12856,1288 12756,1388 Z"/>
 <path fill="rgb(255,0,0)" stroke="none" d="M 12949,1370 L 13049,1470 13149,1370 13049,1270 12949,1370 Z"/>
 <path fill="none" stroke="rgb(255,0,0)" stroke-linejoin="round" d="M 12949,1370 L 13049,1470 13149,1370 13049,1270 12949,1370 Z"/>
 <path fill="rgb(255,0,0)" stroke="none" d="M 13142,1350 L 13242,1450 13342,1350 13242,1250 13142,1350 Z"/>
 <path fill="none" stroke="rgb(255,0,0)" stroke-linejoin="round" d="M 13142,1350 L 13242,1450 13342,1350 13242,1250 13142,1350 Z"/>
 <path fill="rgb(255,0,0)" stroke="none" d="M 13334,1331 L 13434,1431 13534,1331 13434,1231 13334,1331 Z"/>
 <path fill="none" stroke="rgb(255,0,0)" stroke-linejoin="round" d="M 13334,1331 L 13434,1431 13534,1331 13434,1231 13334,1331 Z"/>
 <path fill="rgb(255,0,0)" stroke="none" d="M 13527,1311 L 13627,1411 13727,1311 13627,1211 13527,1311 Z"/>
 <path fill="none" stroke="rgb(255,0,0)" stroke-linejoin="round" d="M 13527,1311 L 13627,1411 13727,1311 13627,1211 13527,1311 Z"/>
 <path fill="rgb(255,0,0)" stroke="none" d="M 13720,1295 L 13820,1395 13920,1295 13820,1195 13720,1295 Z"/>
 <path fill="none" stroke="rgb(255,0,0)" stroke-linejoin="round" d="M 13720,1295 L 13820,1395 13920,1295 13820,1195 13720,1295 Z"/>
 <path fill="rgb(255,0,0)" stroke="none" d="M 13912,1279 L 14012,1379 14112,1279 14012,1179 13912,1279 Z"/>
 <path fill="none" stroke="rgb(255,0,0)" stroke-linejoin="round" d="M 13912,1279 L 14012,1379 14112,1279 14012,1179 13912,1279 Z"/>
 <path fill="rgb(255,0,0)" stroke="none" d="M 14105,1267 L 14205,1367 14305,1267 14205,1167 14105,1267 Z"/>
 <path fill="none" stroke="rgb(255,0,0)" stroke-linejoin="round" d="M 14105,1267 L 14205,1367 14305,1267 14205,1167 14105,1267 Z"/>
 <path fill="rgb(255,0,0)" stroke="none" d="M 14298,1254 L 14398,1354 14498,1254 14398,1154 14298,1254 Z"/>
 <path fill="none" stroke="rgb(255,0,0)" stroke-linejoin="round" d="M 14298,1254 L 14398,1354 14498,1254 14398,1154 14298,1254 Z"/>
 <path fill="rgb(255,0,0)" stroke="none" d="M 14490,1241 L 14590,1341 14690,1241 14590,1141 14490,1241 Z"/>
 <path fill="none" stroke="rgb(255,0,0)" stroke-linejoin="round" d="M 14490,1241 L 14590,1341 14690,1241 14590,1141 14490,1241 Z"/>
 <text class="TextShape"><tspan class="TextParagraph" font-family="Liberation Sans, sans-serif" font-size="353px" font-weight="400"><tspan class="TextPosition" x="1068" y="11635"><tspan fill="rgb(0,0,0)" stroke="none">20/02</tspan></tspan></tspan></text>
 <text class="TextShape"><tspan class="TextParagraph" font-family="Liberation Sans, sans-serif" font-size="353px" font-weight="400"><tspan class="TextPosition" x="2416" y="11635"><tspan fill="rgb(0,0,0)" stroke="none">27/02</tspan></tspan></tspan></text>
 <text class="TextShape"><tspan class="TextParagraph" font-family="Liberation Sans, sans-serif" font-size="353px" font-weight="400"><tspan class="TextPosition" x="3765" y="11635"><tspan fill="rgb(0,0,0)" stroke="none">05/03</tspan></tspan></tspan></text>
 <text class="TextShape"><tspan class="TextParagraph" font-family="Liberation Sans, sans-serif" font-size="353px" font-weight="400"><tspan class="TextPosition" x="5113" y="11635"><tspan fill="rgb(0,0,0)" stroke="none">12/03</tspan></tspan></tspan></text>
 <text class="TextShape"><tspan class="TextParagraph" font-family="Liberation Sans, sans-serif" font-size="353px" font-weight="400"><tspan class="TextPosition" x="6462" y="11635"><tspan fill="rgb(0,0,0)" stroke="none">19/03</tspan></tspan></tspan></text>
 <text class="TextShape"><tspan class="TextParagraph" font-family="Liberation Sans, sans-serif" font-size="353px" font-weight="400"><tspan class="TextPosition" x="7810" y="11635"><tspan fill="rgb(0,0,0)" stroke="none">26/03</tspan></tspan></tspan></text>
 <text class="TextShape"><tspan class="TextParagraph" font-family="Liberation Sans, sans-serif" font-size="353px" font-weight="400"><tspan class="TextPosition" x="9159" y="11635"><tspan fill="rgb(0,0,0)" stroke="none">02/04</tspan></tspan></tspan></text>
 <text class="TextShape"><tspan class="TextParagraph" font-family="Liberation Sans, sans-serif" font-size="353px" font-weight="400"><tspan class="TextPosition" x="10507" y="11635"><tspan fill="rgb(0,0,0)" stroke="none">09/04</tspan></tspan></tspan></text>
 <text class="TextShape"><tspan class="TextParagraph" font-family="Liberation Sans, sans-serif" font-size="353px" font-weight="400"><tspan class="TextPosition" x="11856" y="11635"><tspan fill="rgb(0,0,0)" stroke="none">16/04</tspan></tspan></tspan></text>
 <text class="TextShape"><tspan class="TextParagraph" font-family="Liberation Sans, sans-serif" font-size="353px" font-weight="400"><tspan class="TextPosition" x="13204" y="11635"><tspan fill="rgb(0,0,0)" stroke="none">23/04</tspan></tspan></tspan></text>
 <text class="TextShape"><tspan class="TextParagraph" font-family="Liberation Sans, sans-serif" font-size="353px" font-weight="400"><tspan class="TextPosition" x="961" y="11188"><tspan fill="rgb(0,0,0)" stroke="none">1</tspan></tspan></tspan></text>
 <text class="TextShape"><tspan class="TextParagraph" font-family="Liberation Sans, sans-serif" font-size="353px" font-weight="400"><tspan class="TextPosition" x="776" y="8945"><tspan fill="rgb(0,0,0)" stroke="none">10</tspan></tspan></tspan></text>
 <text class="TextShape"><tspan class="TextParagraph" font-family="Liberation Sans, sans-serif" font-size="353px" font-weight="400"><tspan class="TextPosition" x="590" y="6702"><tspan fill="rgb(0,0,0)" stroke="none">100</tspan></tspan></tspan></text>
 <text class="TextShape"><tspan class="TextParagraph" font-family="Liberation Sans, sans-serif" font-size="353px" font-weight="400"><tspan class="TextPosition" x="299" y="4459"><tspan fill="rgb(0,0,0)" stroke="none">1.000</tspan></tspan></tspan></text>
 <text class="TextShape"><tspan class="TextParagraph" font-family="Liberation Sans, sans-serif" font-size="353px" font-weight="400"><tspan class="TextPosition" x="114" y="2217"><tspan fill="rgb(0,0,0)" stroke="none">10.000</tspan></tspan></tspan></text>
 <text class="TextShape"><tspan class="TextParagraph" font-family="Liberation Sans, sans-serif" font-size="459px" font-weight="400"><tspan class="TextPosition" x="3863" y="724"><tspan fill="rgb(0,0,0)" stroke="none">Covid-19. Muertes acumuladas en España</tspan></tspan></tspan></text>
</svg>