<?xml version="1.0" encoding="UTF-8"?>
<!DOCTYPE svg PUBLIC "-//W3C//DTD SVG 1.1//EN" "http://www.w3.org/Graphics/SVG/1.1/DTD/svg11.dtd">
<svg width="180mm" height="120mm" viewBox="0 0 18000 12000" version="1.1" xmlns="http://www.w3.org/2000/svg" xmlns:xlink="http://www.w3.org/1999/xlink" stroke-width="28.222" stroke-linejoin="round" xml:space="preserve">
 <path fill="rgb(255,255,255)" stroke="none" d="M 9000,12000 L 0,12000 0,0 18000,0 18000,12000 9000,12000 Z"/>
 <path fill="none" stroke="rgb(178,178,178)" stroke-width="50" stroke-linejoin="round" d="M 8236,11337 L 1278,11337 1278,934 15193,934 15193,11337 8236,11337 Z"/>
 <path fill="none" stroke="rgb(0,0,0)" stroke-linejoin="round" d="M 15193,11336 L 1278,11336"/>
 <path fill="none" stroke="rgb(0,0,0)" stroke-linejoin="round" d="M 15193,10295 L 1278,10295"/>
 <path fill="none" stroke="rgb(0,0,0)" stroke-linejoin="round" d="M 15193,9255 L 1278,9255"/>
 <path fill="none" stroke="rgb(0,0,0)" stroke-linejoin="round" d="M 15193,8214 L 1278,8214"/>
 <path fill="none" stroke="rgb(0,0,0)" stroke-linejoin="round" d="M 15193,7174 L 1278,7174"/>
 <path fill="none" stroke="rgb(0,0,0)" stroke-linejoin="round" d="M 15193,6134 L 1278,6134"/>
 <path fill="none" stroke="rgb(0,0,0)" stroke-linejoin="round" d="M 15193,5094 L 1278,5094"/>
 <path fill="none" stroke="rgb(0,0,0)" stroke-linejoin="round" d="M 15193,4054 L 1278,4054"/>
 <path fill="none" stroke="rgb(0,0,0)" stroke-linejoin="round" d="M 15193,3013 L 1278,3013"/>
 <path fill="none" stroke="rgb(0,0,0)" stroke-linejoin="round" d="M 15193,1973 L 1278,1973"/>
 <path fill="none" stroke="rgb(0,0,0)" stroke-linejoin="round" d="M 15193,933 L 1278,933"/>
 <path fill="none" stroke="rgb(179,179,179)" stroke-linejoin="round" d="M 1278,11486 L 1278,11336"/>
 <path fill="none" stroke="rgb(179,179,179)" stroke-linejoin="round" d="M 1278,11486 L 1278,11336"/>
 <path fill="none" stroke="rgb(179,179,179)" stroke-linejoin="round" d="M 4622,11486 L 4622,11336"/>
 <path fill="none" stroke="rgb(179,179,179)" stroke-linejoin="round" d="M 4622,11486 L 4622,11336"/>
 <path fill="none" stroke="rgb(179,179,179)" stroke-linejoin="round" d="M 7966,11486 L 7966,11336"/>
 <path fill="none" stroke="rgb(179,179,179)" stroke-linejoin="round" d="M 7966,11486 L 7966,11336"/>
 <path fill="none" stroke="rgb(179,179,179)" stroke-linejoin="round" d="M 11201,11486 L 11201,11336"/>
 <path fill="none" stroke="rgb(179,179,179)" stroke-linejoin="round" d="M 11201,11486 L 11201,11336"/>
 <path fill="none" stroke="rgb(179,179,179)" stroke-linejoin="round" d="M 14545,11486 L 14545,11336"/>
 <path fill="none" stroke="rgb(179,179,179)" stroke-linejoin="round" d="M 14545,11486 L 14545,11336"/>
 <path fill="none" stroke="rgb(179,179,179)" stroke-linejoin="round" d="M 1278,11336 L 15193,11336"/>
 <path fill="none" stroke="rgb(0,0,0)" stroke-linejoin="round" d="M 1128,11336 L 1278,11336"/>
 <path fill="none" stroke="rgb(0,0,0)" stroke-linejoin="round" d="M 1128,11336 L 1278,11336"/>
 <path fill="none" stroke="rgb(0,0,0)" stroke-linejoin="round" d="M 1128,10295 L 1278,10295"/>
 <path fill="none" stroke="rgb(0,0,0)" stroke-linejoin="round" d="M 1128,10295 L 1278,10295"/>
 <path fill="none" stroke="rgb(0,0,0)" stroke-linejoin="round" d="M 1128,9255 L 1278,9255"/>
 <path fill="none" stroke="rgb(0,0,0)" stroke-linejoin="round" d="M 1128,9255 L 1278,9255"/>
 <path fill="none" stroke="rgb(0,0,0)" stroke-linejoin="round" d="M 1128,8214 L 1278,8214"/>
 <path fill="none" stroke="rgb(0,0,0)" stroke-linejoin="round" d="M 1128,8214 L 1278,8214"/>
 <path fill="none" stroke="rgb(0,0,0)" stroke-linejoin="round" d="M 1128,7174 L 1278,7174"/>
 <path fill="none" stroke="rgb(0,0,0)" stroke-linejoin="round" d="M 1128,7174 L 1278,7174"/>
 <path fill="none" stroke="rgb(0,0,0)" stroke-linejoin="round" d="M 1128,6134 L 1278,6134"/>
 <path fill="none" stroke="rgb(0,0,0)" stroke-linejoin="round" d="M 1128,6134 L 1278,6134"/>
 <path fill="none" stroke="rgb(0,0,0)" stroke-linejoin="round" d="M 1128,5094 L 1278,5094"/>
 <path fill="none" stroke="rgb(0,0,0)" stroke-linejoin="round" d="M 1128,5094 L 1278,5094"/>
 <path fill="none" stroke="rgb(0,0,0)" stroke-linejoin="round" d="M 1128,4054 L 1278,4054"/>
 <path fill="none" stroke="rgb(0,0,0)" stroke-linejoin="round" d="M 1128,4054 L 1278,4054"/>
 <path fill="none" stroke="rgb(0,0,0)" stroke-linejoin="round" d="M 1128,3013 L 1278,3013"/>
 <path fill="none" stroke="rgb(0,0,0)" stroke-linejoin="round" d="M 1128,3013 L 1278,3013"/>
 <path fill="none" stroke="rgb(0,0,0)" stroke-linejoin="round" d="M 1128,1973 L 1278,1973"/>
 <path fill="none" stroke="rgb(0,0,0)" stroke-linejoin="round" d="M 1128,1973 L 1278,1973"/>
 <path fill="none" stroke="rgb(0,0,0)" stroke-linejoin="round" d="M 1128,933 L 1278,933"/>
 <path fill="none" stroke="rgb(0,0,0)" stroke-linejoin="round" d="M 1128,933 L 1278,933"/>
 <path fill="none" stroke="rgb(0,0,0)" stroke-linejoin="round" d="M 1278,11336 L 1278,933"/>
 <path fill="rgb(255,166,166)" stroke="none" d="M 1278,11336 L 1385,8480 1493,8214 1601,6836 1709,8735 1817,11336 1925,11336 2033,7611 2141,10957 2248,8735 2356,9717 2464,8363 2572,11336 2680,11336 2788,9780 2896,8587 3004,7798 3111,9152 3219,9385 3327,11336 3435,11336 3543,7868 3651,9000 3759,10428 3867,9322 3974,8553 4082,9569 4190,10919 4298,9198 4406,10112 4514,11336 4622,7419 4730,8320 4837,8935 4945,9602 5053,9032 5161,9271 5269,8786 5377,9190 5485,10439 5593,8788 5700,10035 5808,9647 5916,9151 6024,9106 6132,9409 6240,5932 6348,7934 6456,9648 6563,9255 6671,9495 6779,9984 6887,9387 6995,6065 7103,8477 7211,9789 7319,9263 7426,9431 7534,9732 7642,9053 7750,6915 7858,7982 7966,7910 8074,8582 8182,9632 8289,9602 8397,9554 8505,7511 8613,8904 8721,8440 8829,8860 8937,10137 9044,8668 9151,9114 9259,9192 9367,8882 9475,8856 9583,9010 9691,9408 9799,9517 9907,9640 10014,8778 10122,8930 10230,8328 10338,8812 10446,8910 10554,9133 10662,9180 10770,8275 10877,9066 10985,9149 11093,8587 11201,8487 11309,9594 11417,9362 11525,7765 11633,9366 11740,8650 11848,8076 11956,8056 12064,10183 12172,9468 12280,8007 12388,9349 12496,8816 12603,8457 12711,8218 12819,10104 12927,9664 13035,7843 13143,9434 13251,9294 13359,9030 13466,8360 13574,9825 13682,9577 13790,7896 13898,9962 14006,10010 14114,9217 14222,8868 14329,10050 14437,10096 14545,8518 14653,10300 14761,9885 14869,9489 14977,9250 15085,10211 15193,10156 15193,11336 1278,11336 Z"/>
 <path fill="none" stroke="rgb(0,0,0)" stroke-width="50" stroke-linejoin="round" d="M 1278,11336 L 1385,8480 1493,8214 1601,6836 1709,8735 1817,11336 1925,11336 2033,7611 2141,10957 2248,8735 2356,9717 2464,8363 2572,11336 2680,11336 2788,9780 2896,8587 3004,7798 3111,9152 3219,9385 3327,11336 3435,11336 3543,7868 3651,9000 3759,10428 3867,9322 3974,8553 4082,9569 4190,10919 4298,9198 4406,10112 4514,11336 4622,7419 4730,8320 4837,8935 4945,9602 5053,9032 5161,9271 5269,8786 5377,9190 5485,10439 5593,8788 5700,10035 5808,9647 5916,9151 6024,9106 6132,9409 6240,5932 6348,7934 6456,9648 6563,9255 6671,9495 6779,9984 6887,9387 6995,6065 7103,8477 7211,9789 7319,9263 7426,9431 7534,9732 7642,9053 7750,6915 7858,7982 7966,7910 8074,8582 8182,9632 8289,9602 8397,9554 8505,7511 8613,8904 8721,8440 8829,8860 8937,10137 9044,8668 9151,9114 9259,9192 9367,8882 9475,8856 9583,9010 9691,9408 9799,9517 9907,9640 10014,8778 10122,8930 10230,8328 10338,8812 10446,8910 10554,9133 10662,9180 10770,8275 10877,9066 10985,9149 11093,8587 11201,8487 11309,9594 11417,9362 11525,7765 11633,9366 11740,8650 11848,8076 11956,8056 12064,10183 12172,9468 12280,8007 12388,9349 12496,8816 12603,8457 12711,8218 12819,10104 12927,9664 13035,7843 13143,9434 13251,9294 13359,9030 13466,8360 13574,9825 13682,9577 13790,7896 13898,9962 14006,10010 14114,9217 14222,8868 14329,10050 14437,10096 14545,8518 14653,10300 14761,9885 14869,9489 14977,9250 15085,10211 15193,10156 15193,11336 1278,11336 Z"/>
 <path fill="rgb(255,255,215)" stroke="none" d="M 1278,11336 L 1385,6236 1493,6966 1601,5994 1709,6606 1817,8858 1925,7868 2033,6069 2141,10011 2248,5846 2356,8330 2464,7620 2572,7680 2680,10180 2788,9391 2896,7409 3004,5718 3111,8381 3219,9060 3327,2304 3435,9602 3543,7264 3651,8469 3759,10055 3867,8651 3974,7222 4082,8980 4190,8006 4298,8628 4406,9806 4514,10663 4622,6807 4730,6963 4837,8534 4945,7868 5053,8556 5161,8635 5269,8174 5377,8118 5485,9945 5593,5391 5700,7001 5808,8836 5916,8576 6024,7806 6132,8638 6240,5256 6348,6734 6456,7680 6563,8398 6671,9157 6779,9631 6887,8881 6995,5724 7103,5734 7211,7680 7319,8598 7426,9089 7534,8986 7642,8043 7750,6325 7858,6520 7966,5754 8074,8038 8182,9150 8289,9079 8397,8876 8505,6865 8613,7377 8721,6812 8829,8286 8937,9629 9044,7634 9151,8471 9259,8641 9367,7565 9475,7454 9583,8055 9691,8677 9799,8765 9907,8041 10014,7987 10122,7660 10230,5887 10338,7551 10446,8087 10554,7417 10662,7371 10770,7340 10877,6564 10985,6737 11093,7080 11201,7283 11309,8132 11417,7540 11525,6461 11633,6743 11740,6232 11848,6251 11956,6700 12064,9129 12172,7265 12280,6214 12388,6571 12496,5729 12603,6588 12711,6735 12819,7765 12927,7162 13035,5782 13143,6512 13251,5604 13359,6733 13466,6576 13574,7150 13682,6900 13790,5784 13898,6204 14006,6530 14114,6549 14222,6773 14329,7613 14437,7091 14545,6083 14653,6965 14761,5922 14869,6434 14977,7137 15085,7730 15193,6543 15193,10156 15085,10211 14977,9250 14869,9489 14761,9885 14653,10300 14545,8518 14437,10096 14329,10050 14222,8868 14114,9217 14006,10010 13898,9962 13790,7896 13682,9577 13574,9825 13466,8360 13359,9030 13251,9294 13143,9434 13035,7843 12927,9664 12819,10104 12711,8218 12603,8457 12496,8816 12388,9349 12280,8007 12172,9468 12064,10183 11956,8056 11848,8076 11740,8650 11633,9366 11525,7765 11417,9362 11309,9594 11201,8487 11093,8587 10985,9149 10877,9066 10770,8275 10662,9180 10554,9133 10446,8910 10338,8812 10230,8328 10122,8930 10014,8778 9907,9640 9799,9517 9691,9408 9583,9010 9475,8856 9367,8882 9259,9192 9151,9114 9044,8668 8937,10137 8829,8860 8721,8440 8613,8904 8505,7511 8397,9554 8289,9602 8182,9632 8074,8582 7966,7910 7858,7982 7750,6915 7642,9053 7534,9732 7426,9431 7319,9263 7211,9789 7103,8477 6995,6065 6887,9387 6779,9984 6671,9495 6563,9255 6456,9648 6348,7934 6240,5932 6132,9409 6024,9106 5916,9151 5808,9647 5700,10035 5593,8788 5485,10439 5377,9190 5269,8786 5161,9271 5053,9032 4945,9602 4837,8935 4730,8320 4622,7419 4514,11336 4406,10112 4298,9198 4190,10919 4082,9569 3974,8553 3867,9322 3759,10428 3651,9000 3543,7868 3435,11336 3327,11336 3219,9385 3111,9152 3004,7798 2896,8587 2788,9780 2680,11336 2572,11336 2464,8363 2356,9717 2248,8735 2141,10957 2033,7611 1925,11336 1817,11336 1709,8735 1601,6836 1493,8214 1385,8480 1278,11336 Z"/>
 <path fill="none" stroke="rgb(0,0,0)" stroke-width="50" stroke-linejoin="round" d="M 1278,11336 L 1385,6236 1493,6966 1601,5994 1709,6606 1817,8858 1925,7868 2033,6069 2141,10011 2248,5846 2356,8330 2464,7620 2572,7680 2680,10180 2788,9391 2896,7409 3004,5718 3111,8381 3219,9060 3327,2304 3435,9602 3543,7264 3651,8469 3759,10055 3867,8651 3974,7222 4082,8980 4190,8006 4298,8628 4406,9806 4514,10663 4622,6807 4730,6963 4837,8534 4945,7868 5053,8556 5161,8635 5269,8174 5377,8118 5485,9945 5593,5391 5700,7001 5808,8836 5916,8576 6024,7806 6132,8638 6240,5256 6348,6734 6456,7680 6563,8398 6671,9157 6779,9631 6887,8881 6995,5724 7103,5734 7211,7680 7319,8598 7426,9089 7534,8986 7642,8043 7750,6325 7858,6520 7966,5754 8074,8038 8182,9150 8289,9079 8397,8876 8505,6865 8613,7377 8721,6812 8829,8286 8937,9629 9044,7634 9151,8471 9259,8641 9367,7565 9475,7454 9583,8055 9691,8677 9799,8765 9907,8041 10014,7987 10122,7660 10230,5887 10338,7551 10446,8087 10554,7417 10662,7371 10770,7340 10877,6564 10985,6737 11093,7080 11201,7283 11309,8132 11417,7540 11525,6461 11633,6743 11740,6232 11848,6251 11956,6700 12064,9129 12172,7265 12280,6214 12388,6571 12496,5729 12603,6588 12711,6735 12819,7765 12927,7162 13035,5782 13143,6512 13251,5604 13359,6733 13466,6576 13574,7150 13682,6900 13790,5784 13898,6204 14006,6530 14114,6549 14222,6773 14329,7613 14437,7091 14545,6083 14653,6965 14761,5922 14869,6434 14977,7137 15085,7730 15193,6543 15193,10156 15085,10211 14977,9250 14869,9489 14761,9885 14653,10300 14545,8518 14437,10096 14329,10050 14222,8868 14114,9217 14006,10010 13898,9962 13790,7896 13682,9577 13574,9825 13466,8360 13359,9030 13251,9294 13143,9434 13035,7843 12927,9664 12819,10104 12711,8218 12603,8457 12496,8816 12388,9349 12280,8007 12172,9468 12064,10183 11956,8056 11848,8076 11740,8650 11633,9366 11525,7765 11417,9362 11309,9594 11201,8487 11093,8587 10985,9149 10877,9066 10770,8275 10662,9180 10554,9133 10446,8910 10338,8812 10230,8328 10122,8930 10014,8778 9907,9640 9799,9517 9691,9408 9583,9010 9475,8856 9367,8882 9259,9192 9151,9114 9044,8668 8937,10137 8829,8860 8721,8440 8613,8904 8505,7511 8397,9554 8289,9602 8182,9632 8074,8582 7966,7910 7858,7982 7750,6915 7642,9053 7534,9732 7426,9431 7319,9263 7211,9789 7103,8477 6995,6065 6887,9387 6779,9984 6671,9495 6563,9255 6456,9648 6348,7934 6240,5932 6132,9409 6024,9106 5916,9151 5808,9647 5700,10035 5593,8788 5485,10439 5377,9190 5269,8786 5161,9271 5053,9032 4945,9602 4837,8935 4730,8320 4622,7419 4514,11336 4406,10112 4298,9198 4190,10919 4082,9569 3974,8553 3867,9322 3759,10428 3651,9000 3543,7868 3435,11336 3327,11336 3219,9385 3111,9152 3004,7798 2896,8587 2788,9780 2680,11336 2572,11336 2464,8363 2356,9717 2248,8735 2141,10957 2033,7611 1925,11336 1817,11336 1709,8735 1601,6836 1493,8214 1385,8480 1278,11336 Z"/>
 <path fill="rgb(222,230,239)" stroke="none" d="M 1278,11336 L 1385,6236 1493,6966 1601,5994 1709,6606 1817,8858 1925,7868 2033,6069 2141,10011 2248,5846 2356,8330 2464,7620 2572,7680 2680,10180 2788,9391 2896,7409 3004,5718 3111,8381 3219,6025 3327,2076 3435,7434 3543,6812 3651,7195 3759,9201 3867,7644 3974,6980 4082,5447 4190,5510 4298,8058 4406,8582 4514,9834 4622,5339 4730,5607 4837,3734 4945,7434 5053,8397 5161,8397 5269,7154 5377,6723 5485,9497 5593,2843 5700,6134 5808,8633 5916,6852 6024,6877 6132,7559 6240,4851 6348,4934 6456,6274 6563,7847 6671,8143 6779,9043 6887,8062 6995,4800 7103,2647 7211,5150 7319,8167 7426,8185 7534,7606 7642,6287 7750,5324 7858,3512 7966,3597 8074,7596 8182,7727 8289,7124 8397,7208 8505,5010 8613,4608 8721,3828 8829,7604 8937,8249 9044,5301 9151,6221 9259,6930 9367,3886 9475,3951 9583,6831 9691,6125 9799,6370 9907,5383 10014,6033 10122,3608 10230,3516 10338,6168 10446,5857 10554,4837 10662,4857 10770,5041 10877,3683 10985,3892 11093,5990 11201,5285 11309,5920 11417,5190 11525,4667 11633,3865 11740,4350 11848,5187 11956,5176 12064,7656 12172,5322 12280,4788 12388,3873 12496,4273 12603,6488 12711,4930 12819,5532 12927,4949 13035,4373 13143,4032 13251,4468 13359,5763 13466,5118 13574,5271 13682,4847 13790,4239 13898,4359 14006,4066 14114,5677 14222,5281 14329,5269 14437,5272 14545,4554 14653,4637 14761,4347 14869,5512 14977,5516 15085,5380 15193,5037 15193,6543 15085,7730 14977,7137 14869,6434 14761,5922 14653,6965 14545,6083 14437,7091 14329,7613 14222,6773 14114,6549 14006,6530 13898,6204 13790,5784 13682,6900 13574,7150 13466,6576 13359,6733 13251,5604 13143,6512 13035,5782 12927,7162 12819,7765 12711,6735 12603,6588 12496,5729 12388,6571 12280,6214 12172,7265 12064,9129 11956,6700 11848,6251 11740,6232 11633,6743 11525,6461 11417,7540 11309,8132 11201,7283 11093,7080 10985,6737 10877,6564 10770,7340 10662,7371 10554,7417 10446,8087 10338,7551 10230,5887 10122,7660 10014,7987 9907,8041 9799,8765 9691,8677 9583,8055 9475,7454 9367,7565 9259,8641 9151,8471 9044,7634 8937,9629 8829,8286 8721,6812 8613,7377 8505,6865 8397,8876 8289,9079 8182,9150 8074,8038 7966,5754 7858,6520 7750,6325 7642,8043 7534,8986 7426,9089 7319,8598 7211,7680 7103,5734 6995,5724 6887,8881 6779,9631 6671,9157 6563,8398 6456,7680 6348,6734 6240,5256 6132,8638 6024,7806 5916,8576 5808,8836 5700,7001 5593,5391 5485,9945 5377,8118 5269,8174 5161,8635 5053,8556 4945,7868 4837,8534 4730,6963 4622,6807 4514,10663 4406,9806 4298,8628 4190,8006 4082,8980 3974,7222 3867,8651 3759,10055 3651,8469 3543,7264 3435,9602 3327,2304 3219,9060 3111,8381 3004,5718 2896,7409 2788,9391 2680,10180 2572,7680 2464,7620 2356,8330 2248,5846 2141,10011 2033,6069 1925,7868 1817,8858 1709,6606 1601,5994 1493,6966 1385,6236 1278,11336 Z"/>
 <path fill="none" stroke="rgb(0,0,0)" stroke-width="50" stroke-linejoin="round" d="M 1278,11336 L 1385,6236 1493,6966 1601,5994 1709,6606 1817,8858 1925,7868 2033,6069 2141,10011 2248,5846 2356,8330 2464,7620 2572,7680 2680,10180 2788,9391 2896,7409 3004,5718 3111,8381 3219,6025 3327,2076 3435,7434 3543,6812 3651,7195 3759,9201 3867,7644 3974,6980 4082,5447 4190,5510 4298,8058 4406,8582 4514,9834 4622,5339 4730,5607 4837,3734 4945,7434 5053,8397 5161,8397 5269,7154 5377,6723 5485,9497 5593,2843 5700,6134 5808,8633 5916,6852 6024,6877 6132,7559 6240,4851 6348,4934 6456,6274 6563,7847 6671,8143 6779,9043 6887,8062 6995,4800 7103,2647 7211,5150 7319,8167 7426,8185 7534,7606 7642,6287 7750,5324 7858,3512 7966,3597 8074,7596 8182,7727 8289,7124 8397,7208 8505,5010 8613,4608 8721,3828 8829,7604 8937,8249 9044,5301 9151,6221 9259,6930 9367,3886 9475,3951 9583,6831 9691,6125 9799,6370 9907,5383 10014,6033 10122,3608 10230,3516 10338,6168 10446,5857 10554,4837 10662,4857 10770,5041 10877,3683 10985,3892 11093,5990 11201,5285 11309,5920 11417,5190 11525,4667 11633,3865 11740,4350 11848,5187 11956,5176 12064,7656 12172,5322 12280,4788 12388,3873 12496,4273 12603,6488 12711,4930 12819,5532 12927,4949 13035,4373 13143,4032 13251,4468 13359,5763 13466,5118 13574,5271 13682,4847 13790,4239 13898,4359 14006,4066 14114,5677 14222,5281 14329,5269 14437,5272 14545,4554 14653,4637 14761,4347 14869,5512 14977,5516 15085,5380 15193,5037 15193,6543 15085,7730 14977,7137 14869,6434 14761,5922 14653,6965 14545,6083 14437,7091 14329,7613 14222,6773 14114,6549 14006,6530 13898,6204 13790,5784 13682,6900 13574,7150 13466,6576 13359,6733 13251,5604 13143,6512 13035,5782 12927,7162 12819,7765 12711,6735 12603,6588 12496,5729 12388,6571 12280,6214 12172,7265 12064,9129 11956,6700 11848,6251 11740,6232 11633,6743 11525,6461 11417,7540 11309,8132 11201,7283 11093,7080 10985,6737 10877,6564 10770,7340 10662,7371 10554,7417 10446,8087 10338,7551 10230,5887 10122,7660 10014,7987 9907,8041 9799,8765 9691,8677 9583,8055 9475,7454 9367,7565 9259,8641 9151,8471 9044,7634 8937,9629 8829,8286 8721,6812 8613,7377 8505,6865 8397,8876 8289,9079 8182,9150 8074,8038 7966,5754 7858,6520 7750,6325 7642,8043 7534,8986 7426,9089 7319,8598 7211,7680 7103,5734 6995,5724 6887,8881 6779,9631 6671,9157 6563,8398 6456,7680 6348,6734 6240,5256 6132,8638 6024,7806 5916,8576 5808,8836 5700,7001 5593,5391 5485,9945 5377,8118 5269,8174 5161,8635 5053,8556 4945,7868 4837,8534 4730,6963 4622,6807 4514,10663 4406,9806 4298,8628 4190,8006 4082,8980 3974,7222 3867,8651 3759,10055 3651,8469 3543,7264 3435,9602 3327,2304 3219,9060 3111,8381 3004,5718 2896,7409 2788,9391 2680,10180 2572,7680 2464,7620 2356,8330 2248,5846 2141,10011 2033,6069 1925,7868 1817,8858 1709,6606 1601,5994 1493,6966 1385,6236 1278,11336 Z"/>
 <path fill="rgb(221,232,203)" stroke="none" d="M 1278,11336 L 1385,5829 1493,5926 1601,5432 1709,6134 1817,8858 1925,7868 2033,2602 2141,5094 2248,5557 2356,8099 2464,6877 2572,7680 2680,10180 2788,2294 2896,6428 3004,5302 3111,5043 3219,4726 3327,2076 3435,7434 3543,2440 3651,4648 3759,2426 3867,4960 3974,3957 4082,5447 4190,5510 4298,3213 4406,4605 4514,7402 4622,2279 4730,3345 4837,3734 4945,7434 5053,1806 5161,3792 5269,2871 5377,2434 5485,1246 5593,2843 5700,6134 5808,2013 5916,2370 6024,3719 6132,2089 6240,1608 6348,4934 6456,6274 6563,1667 6671,2285 6779,2020 6887,1751 6995,1720 7103,2647 7211,5150 7319,1597 7426,2300 7534,2760 7642,2601 7750,1964 7858,3512 7966,3597 8074,1511 8182,3659 8289,2254 8397,2063 8505,1832 8613,4608 8721,3828 8829,2619 8937,3511 9044,2767 9151,2540 9259,2191 9367,3886 9475,3951 9583,2059 9691,4698 9799,2716 9907,2686 10014,2844 10122,3608 10230,3516 10338,2419 10446,3839 10554,2730 10662,2795 10770,2668 10877,3683 10985,3892 11093,3007 11201,3830 11309,4722 11417,3737 11525,3101 11633,3865 11740,4350 11848,2217 11956,4262 12064,2798 12172,3428 12280,3393 12388,3873 12496,4273 12603,3800 12711,3879 12819,4222 12927,3548 13035,3219 13143,4032 13251,4468 13359,3557 13466,4056 13574,4024 13682,3814 13790,3248 13898,4359 14006,4066 14114,3508 14222,3963 14329,4024 14437,4040 14545,3688 14653,4637 14761,4347 14869,3688 14977,4326 15085,4390 15193,4113 15193,5037 15085,5380 14977,5516 14869,5512 14761,4347 14653,4637 14545,4554 14437,5272 14329,5269 14222,5281 14114,5677 14006,4066 13898,4359 13790,4239 13682,4847 13574,5271 13466,5118 13359,5763 13251,4468 13143,4032 13035,4373 12927,4949 12819,5532 12711,4930 12603,6488 12496,4273 12388,3873 12280,4788 12172,5322 12064,7656 11956,5176 11848,5187 11740,4350 11633,3865 11525,4667 11417,5190 11309,5920 11201,5285 11093,5990 10985,3892 10877,3683 10770,5041 10662,4857 10554,4837 10446,5857 10338,6168 10230,3516 10122,3608 10014,6033 9907,5383 9799,6370 9691,6125 9583,6831 9475,3951 9367,3886 9259,6930 9151,6221 9044,5301 8937,8249 8829,7604 8721,3828 8613,4608 8505,5010 8397,7208 8289,7124 8182,7727 8074,7596 7966,3597 7858,3512 7750,5324 7642,6287 7534,7606 7426,8185 7319,8167 7211,5150 7103,2647 6995,4800 6887,8062 6779,9043 6671,8143 6563,7847 6456,6274 6348,4934 6240,4851 6132,7559 6024,6877 5916,6852 5808,8633 5700,6134 5593,2843 5485,9497 5377,6723 5269,7154 5161,8397 5053,8397 4945,7434 4837,3734 4730,5607 4622,5339 4514,9834 4406,8582 4298,8058 4190,5510 4082,5447 3974,6980 3867,7644 3759,9201 3651,7195 3543,6812 3435,7434 3327,2076 3219,6025 3111,8381 3004,5718 2896,7409 2788,9391 2680,10180 2572,7680 2464,7620 2356,8330 2248,5846 2141,10011 2033,6069 1925,7868 1817,8858 1709,6606 1601,5994 1493,6966 1385,6236 1278,11336 Z"/>
 <path fill="none" stroke="rgb(0,0,0)" stroke-width="50" stroke-linejoin="round" d="M 1278,11336 L 1385,5829 1493,5926 1601,5432 1709,6134 1817,8858 1925,7868 2033,2602 2141,5094 2248,5557 2356,8099 2464,6877 2572,7680 2680,10180 2788,2294 2896,6428 3004,5302 3111,5043 3219,4726 3327,2076 3435,7434 3543,2440 3651,4648 3759,2426 3867,4960 3974,3957 4082,5447 4190,5510 4298,3213 4406,4605 4514,7402 4622,2279 4730,3345 4837,3734 4945,7434 5053,1806 5161,3792 5269,2871 5377,2434 5485,1246 5593,2843 5700,6134 5808,2013 5916,2370 6024,3719 6132,2089 6240,1608 6348,4934 6456,6274 6563,1667 6671,2285 6779,2020 6887,1751 6995,1720 7103,2647 7211,5150 7319,1597 7426,2300 7534,2760 7642,2601 7750,1964 7858,3512 7966,3597 8074,1511 8182,3659 8289,2254 8397,2063 8505,1832 8613,4608 8721,3828 8829,2619 8937,3511 9044,2767 9151,2540 9259,2191 9367,3886 9475,3951 9583,2059 9691,4698 9799,2716 9907,2686 10014,2844 10122,3608 10230,3516 10338,2419 10446,3839 10554,2730 10662,2795 10770,2668 10877,3683 10985,3892 11093,3007 11201,3830 11309,4722 11417,3737 11525,3101 11633,3865 11740,4350 11848,2217 11956,4262 12064,2798 12172,3428 12280,3393 12388,3873 12496,4273 12603,3800 12711,3879 12819,4222 12927,3548 13035,3219 13143,4032 13251,4468 13359,3557 13466,4056 13574,4024 13682,3814 13790,3248 13898,4359 14006,4066 14114,3508 14222,3963 14329,4024 14437,4040 14545,3688 14653,4637 14761,4347 14869,3688 14977,4326 15085,4390 15193,4113 15193,5037 15085,5380 14977,5516 14869,5512 14761,4347 14653,4637 14545,4554 14437,5272 14329,5269 14222,5281 14114,5677 14006,4066 13898,4359 13790,4239 13682,4847 13574,5271 13466,5118 13359,5763 13251,4468 13143,4032 13035,4373 12927,4949 12819,5532 12711,4930 12603,6488 12496,4273 12388,3873 12280,4788 12172,5322 12064,7656 11956,5176 11848,5187 11740,4350 11633,3865 11525,4667 11417,5190 11309,5920 11201,5285 11093,5990 10985,3892 10877,3683 10770,5041 10662,4857 10554,4837 10446,5857 10338,6168 10230,3516 10122,3608 10014,6033 9907,5383 9799,6370 9691,6125 9583,6831 9475,3951 9367,3886 9259,6930 9151,6221 9044,5301 8937,8249 8829,7604 8721,3828 8613,4608 8505,5010 8397,7208 8289,7124 8182,7727 8074,7596 7966,3597 7858,3512 7750,5324 7642,6287 7534,7606 7426,8185 7319,8167 7211,5150 7103,2647 6995,4800 6887,8062 6779,9043 6671,8143 6563,7847 6456,6274 6348,4934 6240,4851 6132,7559 6024,6877 5916,6852 5808,8633 5700,6134 5593,2843 5485,9497 5377,6723 5269,7154 5161,8397 5053,8397 4945,7434 4837,3734 4730,5607 4622,5339 4514,9834 4406,8582 4298,8058 4190,5510 4082,5447 3974,6980 3867,7644 3759,9201 3651,7195 3543,6812 3435,7434 3327,2076 3219,6025 3111,8381 3004,5718 2896,7409 2788,9391 2680,10180 2572,7680 2464,7620 2356,8330 2248,5846 2141,10011 2033,6069 1925,7868 1817,8858 1709,6606 1601,5994 1493,6966 1385,6236 1278,11336 Z"/>
 <path fill="rgb(183,179,202)" stroke="none" d="M 1278,11336 L 1385,5012 1493,5094 1601,3182 1709,4479 1817,5391 1925,4834 2033,1703 2141,3581 2248,2089 2356,6480 2464,4896 2572,4307 2680,9602 2788,2197 2896,5644 3004,4054 3111,4529 3219,3208 3327,1733 3435,7434 3543,2290 3651,4224 3759,2053 3867,3282 3974,3110 4082,4073 4190,4678 4298,2785 4406,4222 4514,7246 4622,1667 4730,2893 4837,3333 4945,4834 5053,1568 5161,3474 5269,1749 5377,1576 5485,1202 5593,2419 5700,5701 5808,2013 5916,2140 6024,2883 6132,1857 6240,1541 6348,3934 6456,5713 6563,1606 6671,1834 6779,1844 6887,1634 6995,1480 7103,1961 7211,4869 7319,1597 7426,2056 7534,2275 7642,1767 7750,1522 7858,2738 7966,2963 8074,1409 8182,3438 8289,1786 8397,1724 8505,1607 8613,3533 8721,3647 8829,2439 8937,3293 9044,2233 9151,2072 9259,1975 9367,3204 9475,3358 9583,1912 9691,4466 9799,1964 9907,2050 10014,2499 10122,2716 10230,3162 10338,2211 10446,3404 10554,2203 10662,2396 10770,2165 10877,2871 10985,3345 11093,2750 11201,3602 11309,4115 11417,2990 11525,2597 11633,2955 11740,4013 11848,1833 11956,3759 12064,2346 12172,2821 12280,2725 12388,3024 12496,3685 12603,3469 12711,3486 12819,3242 12927,2703 13035,2402 13143,3076 13251,3745 13359,3275 13466,3405 13574,2940 13682,2785 13790,2462 13898,2980 14006,3211 14114,3127 14222,3351 14329,2640 14437,2618 14545,2434 14653,2795 14761,3189 14869,3120 14977,3282 15085,2623 15193,2370 15193,4113 15085,4390 14977,4326 14869,3688 14761,4347 14653,4637 14545,3688 14437,4040 14329,4024 14222,3963 14114,3508 14006,4066 13898,4359 13790,3248 13682,3814 13574,4024 13466,4056 13359,3557 13251,4468 13143,4032 13035,3219 12927,3548 12819,4222 12711,3879 12603,3800 12496,4273 12388,3873 12280,3393 12172,3428 12064,2798 11956,4262 11848,2217 11740,4350 11633,3865 11525,3101 11417,3737 11309,4722 11201,3830 11093,3007 10985,3892 10877,3683 10770,2668 10662,2795 10554,2730 10446,3839 10338,2419 10230,3516 10122,3608 10014,2844 9907,2686 9799,2716 9691,4698 9583,2059 9475,3951 9367,3886 9259,2191 9151,2540 9044,2767 8937,3511 8829,2619 8721,3828 8613,4608 8505,1832 8397,2063 8289,2254 8182,3659 8074,1511 7966,3597 7858,3512 7750,1964 7642,2601 7534,2760 7426,2300 7319,1597 7211,5150 7103,2647 6995,1720 6887,1751 6779,2020 6671,2285 6563,1667 6456,6274 6348,4934 6240,1608 6132,2089 6024,3719 5916,2370 5808,2013 5700,6134 5593,2843 5485,1246 5377,2434 5269,2871 5161,3792 5053,1806 4945,7434 4837,3734 4730,3345 4622,2279 4514,7402 4406,4605 4298,3213 4190,5510 4082,5447 3974,3957 3867,4960 3759,2426 3651,4648 3543,2440 3435,7434 3327,2076 3219,4726 3111,5043 3004,5302 2896,6428 2788,2294 2680,10180 2572,7680 2464,6877 2356,8099 2248,5557 2141,5094 2033,2602 1925,7868 1817,8858 1709,6134 1601,5432 1493,5926 1385,5829 1278,11336 Z"/>
 <path fill="none" stroke="rgb(0,0,0)" stroke-width="50" stroke-linejoin="round" d="M 1278,11336 L 1385,5012 1493,5094 1601,3182 1709,4479 1817,5391 1925,4834 2033,1703 2141,3581 2248,2089 2356,6480 2464,4896 2572,4307 2680,9602 2788,2197 2896,5644 3004,4054 3111,4529 3219,3208 3327,1733 3435,7434 3543,2290 3651,4224 3759,2053 3867,3282 3974,3110 4082,4073 4190,4678 4298,2785 4406,4222 4514,7246 4622,1667 4730,2893 4837,3333 4945,4834 5053,1568 5161,3474 5269,1749 5377,1576 5485,1202 5593,2419 5700,5701 5808,2013 5916,2140 6024,2883 6132,1857 6240,1541 6348,3934 6456,5713 6563,1606 6671,1834 6779,1844 6887,1634 6995,1480 7103,1961 7211,4869 7319,1597 7426,2056 7534,2275 7642,1767 7750,1522 7858,2738 7966,2963 8074,1409 8182,3438 8289,1786 8397,1724 8505,1607 8613,3533 8721,3647 8829,2439 8937,3293 9044,2233 9151,2072 9259,1975 9367,3204 9475,3358 9583,1912 9691,4466 9799,1964 9907,2050 10014,2499 10122,2716 10230,3162 10338,2211 10446,3404 10554,2203 10662,2396 10770,2165 10877,2871 10985,3345 11093,2750 11201,3602 11309,4115 11417,2990 11525,2597 11633,2955 11740,4013 11848,1833 11956,3759 12064,2346 12172,2821 12280,2725 12388,3024 12496,3685 12603,3469 12711,3486 12819,3242 12927,2703 13035,2402 13143,3076 13251,3745 13359,3275 13466,3405 13574,2940 13682,2785 13790,2462 13898,2980 14006,3211 14114,3127 14222,3351 14329,2640 14437,2618 14545,2434 14653,2795 14761,3189 14869,3120 14977,3282 15085,2623 15193,2370 15193,4113 15085,4390 14977,4326 14869,3688 14761,4347 14653,4637 14545,3688 14437,4040 14329,4024 14222,3963 14114,3508 14006,4066 13898,4359 13790,3248 13682,3814 13574,4024 13466,4056 13359,3557 13251,4468 13143,4032 13035,3219 12927,3548 12819,4222 12711,3879 12603,3800 12496,4273 12388,3873 12280,3393 12172,3428 12064,2798 11956,4262 11848,2217 11740,4350 11633,3865 11525,3101 11417,3737 11309,4722 11201,3830 11093,3007 10985,3892 10877,3683 10770,2668 10662,2795 10554,2730 10446,3839 10338,2419 10230,3516 10122,3608 10014,2844 9907,2686 9799,2716 9691,4698 9583,2059 9475,3951 9367,3886 9259,2191 9151,2540 9044,2767 8937,3511 8829,2619 8721,3828 8613,4608 8505,1832 8397,2063 8289,2254 8182,3659 8074,1511 7966,3597 7858,3512 7750,1964 7642,2601 7534,2760 7426,2300 7319,1597 7211,5150 7103,2647 6995,1720 6887,1751 6779,2020 6671,2285 6563,1667 6456,6274 6348,4934 6240,1608 6132,2089 6024,3719 5916,2370 5808,2013 5700,6134 5593,2843 5485,1246 5377,2434 5269,2871 5161,3792 5053,1806 4945,7434 4837,3734 4730,3345 4622,2279 4514,7402 4406,4605 4298,3213 4190,5510 4082,5447 3974,3957 3867,4960 3759,2426 3651,4648 3543,2440 3435,7434 3327,2076 3219,4726 3111,5043 3004,5302 2896,6428 2788,2294 2680,10180 2572,7680 2464,6877 2356,8099 2248,5557 2141,5094 2033,2602 1925,7868 1817,8858 1709,6134 1601,5432 1493,5926 1385,5829 1278,11336 Z"/>
 <path fill="rgb(114,159,207)" stroke="none" d="M 1278,11336 L 1385,4808 1493,2805 1601,2338 1709,3534 1817,4896 1925,3100 2033,1703 2141,2635 2248,1511 2356,4863 2464,4401 2572,2901 2680,7290 2788,2002 2896,4270 3004,2805 3111,2602 3219,1474 3327,1275 3435,2667 3543,1686 3651,3693 3759,1253 3867,1604 3974,2263 4082,2307 4190,3429 4298,2215 4406,3916 4514,1140 4622,1545 4730,2139 4837,2533 4945,2667 5053,1330 5161,3395 5269,1544 5377,1469 5485,1157 5593,1994 5700,3534 5808,1946 5916,2025 6024,2605 6132,1472 6240,1541 6348,3534 6456,4588 6563,1483 6671,1759 6779,1755 6887,1439 6995,1446 7103,1847 7211,3885 7319,1441 7426,2007 7534,2089 7642,1591 7750,1345 7858,2394 7966,2328 8074,1205 8182,3298 8289,1400 8397,1300 8505,1411 8613,2742 8721,3013 8829,1722 8937,3039 9044,1766 9151,1605 9259,1621 9367,2068 9475,2065 9583,1520 9691,4109 9799,1387 9907,1395 10014,1795 10122,1851 10230,1994 10338,1848 10446,3126 10554,1581 10662,1731 10770,1662 10877,1711 10985,1856 11093,1970 11201,3117 11309,3123 11417,1881 11525,1692 11633,1683 11740,2002 11848,956 11956,3294 12064,1543 12172,1869 12280,1885 12388,1795 12496,1828 12603,2692 12711,3074 12819,1946 12927,1928 13035,1903 13143,1921 13251,2413 13359,2737 13466,2929 13574,2148 13682,2023 13790,1945 13898,2133 14006,2159 14114,2720 14222,3015 14329,2023 14437,2110 14545,2016 14653,2211 14761,2295 14869,2729 14977,3018 15085,2111 15193,1915 15193,2370 15085,2623 14977,3282 14869,3120 14761,3189 14653,2795 14545,2434 14437,2618 14329,2640 14222,3351 14114,3127 14006,3211 13898,2980 13790,2462 13682,2785 13574,2940 13466,3405 13359,3275 13251,3745 13143,3076 13035,2402 12927,2703 12819,3242 12711,3486 12603,3469 12496,3685 12388,3024 12280,2725 12172,2821 12064,2346 11956,3759 11848,1833 11740,4013 11633,2955 11525,2597 11417,2990 11309,4115 11201,3602 11093,2750 10985,3345 10877,2871 10770,2165 10662,2396 10554,2203 10446,3404 10338,2211 10230,3162 10122,2716 10014,2499 9907,2050 9799,1964 9691,4466 9583,1912 9475,3358 9367,3204 9259,1975 9151,2072 9044,2233 8937,3293 8829,2439 8721,3647 8613,3533 8505,1607 8397,1724 8289,1786 8182,3438 8074,1409 7966,2963 7858,2738 7750,1522 7642,1767 7534,2275 7426,2056 7319,1597 7211,4869 7103,1961 6995,1480 6887,1634 6779,1844 6671,1834 6563,1606 6456,5713 6348,3934 6240,1541 6132,1857 6024,2883 5916,2140 5808,2013 5700,5701 5593,2419 5485,1202 5377,1576 5269,1749 5161,3474 5053,1568 4945,4834 4837,3333 4730,2893 4622,1667 4514,7246 4406,4222 4298,2785 4190,4678 4082,4073 3974,3110 3867,3282 3759,2053 3651,4224 3543,2290 3435,7434 3327,1733 3219,3208 3111,4529 3004,4054 2896,5644 2788,2197 2680,9602 2572,4307 2464,4896 2356,6480 2248,2089 2141,3581 2033,1703 1925,4834 1817,5391 1709,4479 1601,3182 1493,5094 1385,5012 1278,11336 Z"/>
 <path fill="none" stroke="rgb(0,0,0)" stroke-width="50" stroke-linejoin="round" d="M 1278,11336 L 1385,4808 1493,2805 1601,2338 1709,3534 1817,4896 1925,3100 2033,1703 2141,2635 2248,1511 2356,4863 2464,4401 2572,2901 2680,7290 2788,2002 2896,4270 3004,2805 3111,2602 3219,1474 3327,1275 3435,2667 3543,1686 3651,3693 3759,1253 3867,1604 3974,2263 4082,2307 4190,3429 4298,2215 4406,3916 4514,1140 4622,1545 4730,2139 4837,2533 4945,2667 5053,1330 5161,3395 5269,1544 5377,1469 5485,1157 5593,1994 5700,3534 5808,1946 5916,2025 6024,2605 6132,1472 6240,1541 6348,3534 6456,4588 6563,1483 6671,1759 6779,1755 6887,1439 6995,1446 7103,1847 7211,3885 7319,1441 7426,2007 7534,2089 7642,1591 7750,1345 7858,2394 7966,2328 8074,1205 8182,3298 8289,1400 8397,1300 8505,1411 8613,2742 8721,3013 8829,1722 8937,3039 9044,1766 9151,1605 9259,1621 9367,2068 9475,2065 9583,1520 9691,4109 9799,1387 9907,1395 10014,1795 10122,1851 10230,1994 10338,1848 10446,3126 10554,1581 10662,1731 10770,1662 10877,1711 10985,1856 11093,1970 11201,3117 11309,3123 11417,1881 11525,1692 11633,1683 11740,2002 11848,956 11956,3294 12064,1543 12172,1869 12280,1885 12388,1795 12496,1828 12603,2692 12711,3074 12819,1946 12927,1928 13035,1903 13143,1921 13251,2413 13359,2737 13466,2929 13574,2148 13682,2023 13790,1945 13898,2133 14006,2159 14114,2720 14222,3015 14329,2023 14437,2110 14545,2016 14653,2211 14761,2295 14869,2729 14977,3018 15085,2111 15193,1915 15193,2370 15085,2623 14977,3282 14869,3120 14761,3189 14653,2795 14545,2434 14437,2618 14329,2640 14222,3351 14114,3127 14006,3211 13898,2980 13790,2462 13682,2785 13574,2940 13466,3405 13359,3275 13251,3745 13143,3076 13035,2402 12927,2703 12819,3242 12711,3486 12603,3469 12496,3685 12388,3024 12280,2725 12172,2821 12064,2346 11956,3759 11848,1833 11740,4013 11633,2955 11525,2597 11417,2990 11309,4115 11201,3602 11093,2750 10985,3345 10877,2871 10770,2165 10662,2396 10554,2203 10446,3404 10338,2211 10230,3162 10122,2716 10014,2499 9907,2050 9799,1964 9691,4466 9583,1912 9475,3358 9367,3204 9259,1975 9151,2072 9044,2233 8937,3293 8829,2439 8721,3647 8613,3533 8505,1607 8397,1724 8289,1786 8182,3438 8074,1409 7966,2963 7858,2738 7750,1522 7642,1767 7534,2275 7426,2056 7319,1597 7211,4869 7103,1961 6995,1480 6887,1634 6779,1844 6671,1834 6563,1606 6456,5713 6348,3934 6240,1541 6132,1857 6024,2883 5916,2140 5808,2013 5700,5701 5593,2419 5485,1202 5377,1576 5269,1749 5161,3474 5053,1568 4945,4834 4837,3333 4730,2893 4622,1667 4514,7246 4406,4222 4298,2785 4190,4678 4082,4073 3974,3110 3867,3282 3759,2053 3651,4224 3543,2290 3435,7434 3327,1733 3219,3208 3111,4529 3004,4054 2896,5644 2788,2197 2680,9602 2572,4307 2464,4896 2356,6480 2248,2089 2141,3581 2033,1703 1925,4834 1817,5391 1709,4479 1601,3182 1493,5094 1385,5012 1278,11336 Z"/>
 <path fill="rgb(232,242,161)" stroke="none" d="M 1278,11336 L 1385,2972 1493,2805 1601,2338 1709,3534 1817,4896 1925,3100 2033,1703 2141,1500 2248,1511 2356,4863 2464,4401 2572,2901 2680,7290 2788,2002 2896,2699 3004,2805 3111,2602 3219,1474 3327,1275 3435,2667 3543,1686 3651,1994 3759,1253 3867,1604 3974,2263 4082,2307 4190,3429 4298,2215 4406,1468 4514,1140 4622,1545 4730,2139 4837,2533 4945,2667 5053,1330 5161,1488 5269,1544 5377,1469 5485,1157 5593,1994 5700,3534 5808,1946 5916,1277 6024,2605 6132,1472 6240,1541 6348,3534 6456,4588 6563,1483 6671,1233 6779,1755 6887,1439 6995,1446 7103,1847 7211,3885 7319,1441 7426,1201 7534,2089 7642,1591 7750,1345 7858,2394 7966,2328 8074,1205 8182,1253 8289,1400 8397,1300 8505,1411 8613,2742 8721,3013 8829,1722 8937,1423 9044,1766 9151,1605 9259,1621 9367,2068 9475,2065 9583,1520 9691,1450 9799,1387 9907,1395 10014,1795 10122,1851 10230,1994 10338,1848 10446,1432 10554,1581 10662,1731 10770,1662 10877,1711 10985,1856 11093,1970 11201,1330 11309,3123 11417,1881 11525,1692 11633,1683 11740,2002 11848,956 11956,1628 12064,1543 12172,1869 12280,1885 12388,1795 12496,1828 12603,2692 12711,1630 12819,1946 12927,1928 13035,1903 13143,1921 13251,2413 13359,2737 13466,1770 13574,2148 13682,2023 13790,1945 13898,2133 14006,2159 14114,2720 14222,1986 14329,2023 14437,2110 14545,2016 14653,2211 14761,2295 14869,2729 14977,1934 15085,2111 15193,1915 15193,1915 15085,2111 14977,3018 14869,2729 14761,2295 14653,2211 14545,2016 14437,2110 14329,2023 14222,3015 14114,2720 14006,2159 13898,2133 13790,1945 13682,2023 13574,2148 13466,2929 13359,2737 13251,2413 13143,1921 13035,1903 12927,1928 12819,1946 12711,3074 12603,2692 12496,1828 12388,1795 12280,1885 12172,1869 12064,1543 11956,3294 11848,956 11740,2002 11633,1683 11525,1692 11417,1881 11309,3123 11201,3117 11093,1970 10985,1856 10877,1711 10770,1662 10662,1731 10554,1581 10446,3126 10338,1848 10230,1994 10122,1851 10014,1795 9907,1395 9799,1387 9691,4109 9583,1520 9475,2065 9367,2068 9259,1621 9151,1605 9044,1766 8937,3039 8829,1722 8721,3013 8613,2742 8505,1411 8397,1300 8289,1400 8182,3298 8074,1205 7966,2328 7858,2394 7750,1345 7642,1591 7534,2089 7426,2007 7319,1441 7211,3885 7103,1847 6995,1446 6887,1439 6779,1755 6671,1759 6563,1483 6456,4588 6348,3534 6240,1541 6132,1472 6024,2605 5916,2025 5808,1946 5700,3534 5593,1994 5485,1157 5377,1469 5269,1544 5161,3395 5053,1330 4945,2667 4837,2533 4730,2139 4622,1545 4514,1140 4406,3916 4298,2215 4190,3429 4082,2307 3974,2263 3867,1604 3759,1253 3651,3693 3543,1686 3435,2667 3327,1275 3219,1474 3111,2602 3004,2805 2896,4270 2788,2002 2680,7290 2572,2901 2464,4401 2356,4863 2248,1511 2141,2635 2033,1703 1925,3100 1817,4896 1709,3534 1601,2338 1493,2805 1385,4808 1278,11336 Z"/>
 <path fill="none" stroke="rgb(0,0,0)" stroke-width="50" stroke-linejoin="round" d="M 1278,11336 L 1385,2972 1493,2805 1601,2338 1709,3534 1817,4896 1925,3100 2033,1703 2141,1500 2248,1511 2356,4863 2464,4401 2572,2901 2680,7290 2788,2002 2896,2699 3004,2805 3111,2602 3219,1474 3327,1275 3435,2667 3543,1686 3651,1994 3759,1253 3867,1604 3974,2263 4082,2307 4190,3429 4298,2215 4406,1468 4514,1140 4622,1545 4730,2139 4837,2533 4945,2667 5053,1330 5161,1488 5269,1544 5377,1469 5485,1157 5593,1994 5700,3534 5808,1946 5916,1277 6024,2605 6132,1472 6240,1541 6348,3534 6456,4588 6563,1483 6671,1233 6779,1755 6887,1439 6995,1446 7103,1847 7211,3885 7319,1441 7426,1201 7534,2089 7642,1591 7750,1345 7858,2394 7966,2328 8074,1205 8182,1253 8289,1400 8397,1300 8505,1411 8613,2742 8721,3013 8829,1722 8937,1423 9044,1766 9151,1605 9259,1621 9367,2068 9475,2065 9583,1520 9691,1450 9799,1387 9907,1395 10014,1795 10122,1851 10230,1994 10338,1848 10446,1432 10554,1581 10662,1731 10770,1662 10877,1711 10985,1856 11093,1970 11201,1330 11309,3123 11417,1881 11525,1692 11633,1683 11740,2002 11848,956 11956,1628 12064,1543 12172,1869 12280,1885 12388,1795 12496,1828 12603,2692 12711,1630 12819,1946 12927,1928 13035,1903 13143,1921 13251,2413 13359,2737 13466,1770 13574,2148 13682,2023 13790,1945 13898,2133 14006,2159 14114,2720 14222,1986 14329,2023 14437,2110 14545,2016 14653,2211 14761,2295 14869,2729 14977,1934 15085,2111 15193,1915 15193,1915 15085,2111 14977,3018 14869,2729 14761,2295 14653,2211 14545,2016 14437,2110 14329,2023 14222,3015 14114,2720 14006,2159 13898,2133 13790,1945 13682,2023 13574,2148 13466,2929 13359,2737 13251,2413 13143,1921 13035,1903 12927,1928 12819,1946 12711,3074 12603,2692 12496,1828 12388,1795 12280,1885 12172,1869 12064,1543 11956,3294 11848,956 11740,2002 11633,1683 11525,1692 11417,1881 11309,3123 11201,3117 11093,1970 10985,1856 10877,1711 10770,1662 10662,1731 10554,1581 10446,3126 10338,1848 10230,1994 10122,1851 10014,1795 9907,1395 9799,1387 9691,4109 9583,1520 9475,2065 9367,2068 9259,1621 9151,1605 9044,1766 8937,3039 8829,1722 8721,3013 8613,2742 8505,1411 8397,1300 8289,1400 8182,3298 8074,1205 7966,2328 7858,2394 7750,1345 7642,1591 7534,2089 7426,2007 7319,1441 7211,3885 7103,1847 6995,1446 6887,1439 6779,1755 6671,1759 6563,1483 6456,4588 6348,3534 6240,1541 6132,1472 6024,2605 5916,2025 5808,1946 5700,3534 5593,1994 5485,1157 5377,1469 5269,1544 5161,3395 5053,1330 4945,2667 4837,2533 4730,2139 4622,1545 4514,1140 4406,3916 4298,2215 4190,3429 4082,2307 3974,2263 3867,1604 3759,1253 3651,3693 3543,1686 3435,2667 3327,1275 3219,1474 3111,2602 3004,2805 2896,4270 2788,2002 2680,7290 2572,2901 2464,4401 2356,4863 2248,1511 2141,2635 2033,1703 1925,3100 1817,4896 1709,3534 1601,2338 1493,2805 1385,4808 1278,11336 Z"/>
 <path fill="rgb(174,207,0)" stroke="none" d="M 1278,11336 L 1385,933 1493,933 1601,933 1709,933 1817,933 1925,933 2033,933 2141,933 2248,933 2356,933 2464,933 2572,933 2680,933 2788,933 2896,933 3004,933 3111,933 3219,933 3327,933 3435,933 3543,933 3651,933 3759,933 3867,933 3974,933 4082,933 4190,933 4298,933 4406,933 4514,933 4622,933 4730,933 4837,933 4945,933 5053,933 5161,933 5269,933 5377,933 5485,933 5593,933 5700,933 5808,933 5916,933 6132,933 6240,933 6348,933 6456,933 6563,933 6671,933 6779,933 6887,933 6995,933 7103,933 7211,933 7319,933 7426,933 7534,933 7642,933 7750,933 7858,933 7966,933 8074,933 8182,933 8289,933 8397,933 8505,933 8613,933 8721,933 8829,933 8937,933 9044,933 9151,933 9259,933 9367,933 9475,933 9583,933 9763,933 9799,933 9907,933 10014,933 10122,933 10230,933 10338,933 10446,933 10554,933 10662,933 10770,933 10877,933 10985,933 11093,933 11201,933 11309,933 11417,933 11525,933 11633,933 11740,933 11848,933 11956,933 12064,933 12172,933 12280,933 12388,933 12496,933 12603,933 12711,933 12819,933 12927,933 13035,933 13143,933 13251,933 13359,933 13466,933 13574,933 13682,933 13790,933 13898,933 14006,933 14114,933 14222,933 14329,933 14437,933 14545,933 14653,933 14761,933 14869,933 14977,933 15193,933 15193,1915 15085,2111 14977,1934 14869,2729 14761,2295 14653,2211 14545,2016 14437,2110 14329,2023 14222,1986 14114,2720 14006,2159 13898,2133 13790,1945 13682,2023 13574,2148 13466,1770 13359,2737 13251,2413 13143,1921 13035,1903 12927,1928 12819,1946 12711,1630 12603,2692 12496,1828 12388,1795 12280,1885 12172,1869 12064,1543 11956,1628 11848,956 11740,2002 11633,1683 11525,1692 11417,1881 11309,3123 11201,1330 11093,1970 10985,1856 10877,1711 10770,1662 10662,1731 10554,1581 10446,1432 10338,1848 10230,1994 10122,1851 10014,1795 9907,1395 9799,1387 9691,1450 9583,1520 9475,2065 9367,2068 9259,1621 9151,1605 9044,1766 8937,1423 8829,1722 8721,3013 8613,2742 8505,1411 8397,1300 8289,1400 8182,1253 8074,1205 7966,2328 7858,2394 7750,1345 7642,1591 7534,2089 7426,1201 7319,1441 7211,3885 7103,1847 6995,1446 6887,1439 6779,1755 6671,1233 6563,1483 6456,4588 6348,3534 6240,1541 6132,1472 6024,2605 5916,1277 5808,1946 5700,3534 5593,1994 5485,1157 5377,1469 5269,1544 5161,1488 5053,1330 4945,2667 4837,2533 4730,2139 4622,1545 4514,1140 4406,1468 4298,2215 4190,3429 4082,2307 3974,2263 3867,1604 3759,1253 3651,1994 3543,1686 3435,2667 3327,1275 3219,1474 3111,2602 3004,2805 2896,2699 2788,2002 2680,7290 2572,2901 2464,4401 2356,4863 2248,1511 2141,1500 2033,1703 1925,3100 1817,4896 1709,3534 1601,2338 1493,2805 1385,2972 1278,11336 Z"/>
 <path fill="none" stroke="rgb(0,0,0)" stroke-width="50" stroke-linejoin="round" d="M 1278,11336 L 1385,933 1493,933 1601,933 1709,933 1817,933 1925,933 2033,933 2141,933 2248,933 2356,933 2464,933 2572,933 2680,933 2788,933 2896,933 3004,933 3111,933 3219,933 3327,933 3435,933 3543,933 3651,933 3759,933 3867,933 3974,933 4082,933 4190,933 4298,933 4406,933 4514,933 4622,933 4730,933 4837,933 4945,933 5053,933 5161,933 5269,933 5377,933 5485,933 5593,933 5700,933 5808,933 5916,933 6132,933 6240,933 6348,933 6456,933 6563,933 6671,933 6779,933 6887,933 6995,933 7103,933 7211,933 7319,933 7426,933 7534,933 7642,933 7750,933 7858,933 7966,933 8074,933 8182,933 8289,933 8397,933 8505,933 8613,933 8721,933 8829,933 8937,933 9044,933 9151,933 9259,933 9367,933 9475,933 9583,933 9763,933 9799,933 9907,933 10014,933 10122,933 10230,933 10338,933 10446,933 10554,933 10662,933 10770,933 10877,933 10985,933 11093,933 11201,933 11309,933 11417,933 11525,933 11633,933 11740,933 11848,933 11956,933 12064,933 12172,933 12280,933 12388,933 12496,933 12603,933 12711,933 12819,933 12927,933 13035,933 13143,933 13251,933 13359,933 13466,933 13574,933 13682,933 13790,933 13898,933 14006,933 14114,933 14222,933 14329,933 14437,933 14545,933 14653,933 14761,933 14869,933 14977,933 15193,933 15193,1915 15085,2111 14977,1934 14869,2729 14761,2295 14653,2211 14545,2016 14437,2110 14329,2023 14222,1986 14114,2720 14006,2159 13898,2133 13790,1945 13682,2023 13574,2148 13466,1770 13359,2737 13251,2413 13143,1921 13035,1903 12927,1928 12819,1946 12711,1630 12603,2692 12496,1828 12388,1795 12280,1885 12172,1869 12064,1543 11956,1628 11848,956 11740,2002 11633,1683 11525,1692 11417,1881 11309,3123 11201,1330 11093,1970 10985,1856 10877,1711 10770,1662 10662,1731 10554,1581 10446,1432 10338,1848 10230,1994 10122,1851 10014,1795 9907,1395 9799,1387 9691,1450 9583,1520 9475,2065 9367,2068 9259,1621 9151,1605 9044,1766 8937,1423 8829,1722 8721,3013 8613,2742 8505,1411 8397,1300 8289,1400 8182,1253 8074,1205 7966,2328 7858,2394 7750,1345 7642,1591 7534,2089 7426,1201 7319,1441 7211,3885 7103,1847 6995,1446 6887,1439 6779,1755 6671,1233 6563,1483 6456,4588 6348,3534 6240,1541 6132,1472 6024,2605 5916,1277 5808,1946 5700,3534 5593,1994 5485,1157 5377,1469 5269,1544 5161,1488 5053,1330 4945,2667 4837,2533 4730,2139 4622,1545 4514,1140 4406,1468 4298,2215 4190,3429 4082,2307 3974,2263 3867,1604 3759,1253 3651,1994 3543,1686 3435,2667 3327,1275 3219,1474 3111,2602 3004,2805 2896,2699 2788,2002 2680,7290 2572,2901 2464,4401 2356,4863 2248,1511 2141,1500 2033,1703 1925,3100 1817,4896 1709,3534 1601,2338 1493,2805 1385,2972 1278,11336 Z"/>
 <text class="TextShape"><tspan class="TextParagraph" font-family="Liberation Sans, sans-serif" font-size="353px" font-weight="400"><tspan class="TextPosition" x="854" y="11904"><tspan fill="rgb(0,0,0)" stroke="none">27/07</tspan></tspan></tspan></text>
 <text class="TextShape"><tspan class="TextParagraph" font-family="Liberation Sans, sans-serif" font-size="353px" font-weight="400"><tspan class="TextPosition" x="4198" y="11904"><tspan fill="rgb(0,0,0)" stroke="none">27/08</tspan></tspan></tspan></text>
 <text class="TextShape"><tspan class="TextParagraph" font-family="Liberation Sans, sans-serif" font-size="353px" font-weight="400"><tspan class="TextPosition" x="7542" y="11904"><tspan fill="rgb(0,0,0)" stroke="none">27/09</tspan></tspan></tspan></text>
 <text class="TextShape"><tspan class="TextParagraph" font-family="Liberation Sans, sans-serif" font-size="353px" font-weight="400"><tspan class="TextPosition" x="10778" y="11904"><tspan fill="rgb(0,0,0)" stroke="none">27/10</tspan></tspan></tspan></text>
 <text class="TextShape"><tspan class="TextParagraph" font-family="Liberation Sans, sans-serif" font-size="353px" font-weight="400"><tspan class="TextPosition" x="14122" y="11904"><tspan fill="rgb(0,0,0)" stroke="none">27/11</tspan></tspan></tspan></text>
 <text class="TextShape"><tspan class="TextParagraph" font-family="Liberation Sans, sans-serif" font-size="353px" font-weight="400"><tspan class="TextPosition" x="525" y="11457"><tspan fill="rgb(0,0,0)" stroke="none">0%</tspan></tspan></tspan></text>
 <text class="TextShape"><tspan class="TextParagraph" font-family="Liberation Sans, sans-serif" font-size="353px" font-weight="400"><tspan class="TextPosition" x="340" y="10416"><tspan fill="rgb(0,0,0)" stroke="none">10%</tspan></tspan></tspan></text>
 <text class="TextShape"><tspan class="TextParagraph" font-family="Liberation Sans, sans-serif" font-size="353px" font-weight="400"><tspan class="TextPosition" x="340" y="9376"><tspan fill="rgb(0,0,0)" stroke="none">20%</tspan></tspan></tspan></text>
 <text class="TextShape"><tspan class="TextParagraph" font-family="Liberation Sans, sans-serif" font-size="353px" font-weight="400"><tspan class="TextPosition" x="340" y="8335"><tspan fill="rgb(0,0,0)" stroke="none">30%</tspan></tspan></tspan></text>
 <text class="TextShape"><tspan class="TextParagraph" font-family="Liberation Sans, sans-serif" font-size="353px" font-weight="400"><tspan class="TextPosition" x="340" y="7295"><tspan fill="rgb(0,0,0)" stroke="none">40%</tspan></tspan></tspan></text>
 <text class="TextShape"><tspan class="TextParagraph" font-family="Liberation Sans, sans-serif" font-size="353px" font-weight="400"><tspan class="TextPosition" x="340" y="6255"><tspan fill="rgb(0,0,0)" stroke="none">50%</tspan></tspan></tspan></text>
 <text class="TextShape"><tspan class="TextParagraph" font-family="Liberation Sans, sans-serif" font-size="353px" font-weight="400"><tspan class="TextPosition" x="340" y="5214"><tspan fill="rgb(0,0,0)" stroke="none">60%</tspan></tspan></tspan></text>
 <text class="TextShape"><tspan class="TextParagraph" font-family="Liberation Sans, sans-serif" font-size="353px" font-weight="400"><tspan class="TextPosition" x="340" y="4174"><tspan fill="rgb(0,0,0)" stroke="none">70%</tspan></tspan></tspan></text>
 <text class="TextShape"><tspan class="TextParagraph" font-family="Liberation Sans, sans-serif" font-size="353px" font-weight="400"><tspan class="TextPosition" x="340" y="3133"><tspan fill="rgb(0,0,0)" stroke="none">80%</tspan></tspan></tspan></text>
 <text class="TextShape"><tspan class="TextParagraph" font-family="Liberation Sans, sans-serif" font-size="353px" font-weight="400"><tspan class="TextPosition" x="340" y="2093"><tspan fill="rgb(0,0,0)" stroke="none">90%</tspan></tspan></tspan></text>
 <text class="TextShape"><tspan class="TextParagraph" font-family="Liberation Sans, sans-serif" font-size="353px" font-weight="400"><tspan class="TextPosition" x="155" y="1053"><tspan fill="rgb(0,0,0)" stroke="none">100%</tspan></tspan></tspan></text>
 <text class="TextShape"><tspan class="TextParagraph" font-family="Liberation Sans, sans-serif" font-size="459px" font-weight="400"><tspan class="TextPosition" x="4599" y="724"><tspan fill="rgb(0,0,0)" stroke="none">Covid-19 (porcentaje de muertes diarias)</tspan></tspan></tspan></text>
 <text class="TextShape"><tspan class="TextParagraph" font-family="Arial, sans-serif" font-size="423px" font-weight="400"><tspan class="TextPosition" x="15374" y="8533"><tspan fill="rgb(0,0,0)" stroke="none">Italia</tspan></tspan></tspan></text>
 <text class="TextShape"><tspan class="TextParagraph" font-family="Arial, sans-serif" font-size="423px" font-weight="400"><tspan class="TextPosition" x="15398" y="10819"><tspan fill="rgb(0,0,0)" stroke="none">Francia</tspan></tspan></tspan></text>
 <text class="TextShape"><tspan class="TextParagraph" font-family="Arial, sans-serif" font-size="423px" font-weight="400"><tspan class="TextPosition" x="15407" y="2508"><tspan fill="rgb(0,0,0)" stroke="none">Blgica</tspan></tspan></tspan></text>
 <text class="TextShape"><tspan class="TextParagraph" font-family="Arial, sans-serif" font-size="423px" font-weight="400"><tspan class="TextPosition" x="15420" y="4820"><tspan fill="rgb(0,0,0)" stroke="none">Espaa</tspan></tspan></tspan></text>
 <text class="TextShape"><tspan class="TextParagraph" font-family="Arial, sans-serif" font-size="423px" font-weight="400"><tspan class="TextPosition" x="15423" y="3348"><tspan fill="rgb(0,0,0)" stroke="none">Alemania</tspan></tspan></tspan></text>
 <text class="TextShape"><tspan class="TextParagraph" font-family="Arial, sans-serif" font-size="423px" font-weight="400"><tspan class="TextPosition" x="15369" y="1503"><tspan fill="rgb(0,0,0)" stroke="none">Resto</tspan></tspan></tspan></text>
 <text class="TextShape"><tspan class="TextParagraph" font-family="Arial, sans-serif" font-size="423px" font-weight="400"><tspan class="TextPosition" x="15379" y="5937"><tspan fill="rgb(0,0,0)" stroke="none">Reino Unido</tspan></tspan></tspan></text>
 <text class="TextShape"><tspan class="TextParagraph" font-family="Arial, sans-serif" font-size="423px" font-weight="400"><tspan class="TextPosition" x="15402" y="2032"><tspan fill="rgb(0,0,0)" stroke="none">Holanda</tspan></tspan></tspan></text>
</svg>