<?xml version="1.0" encoding="UTF-8"?>
<!DOCTYPE svg PUBLIC "-//W3C//DTD SVG 1.1//EN" "http://www.w3.org/Graphics/SVG/1.1/DTD/svg11.dtd">
<svg width="150mm" height="120mm" viewBox="0 0 15000 12000" version="1.1" xmlns="http://www.w3.org/2000/svg" xmlns:xlink="http://www.w3.org/1999/xlink" stroke-width="28.222" stroke-linejoin="round" xml:space="preserve">
 <path fill="rgb(255,255,255)" stroke="none" d="M 7506,12000 L 13,12000 13,0 15000,0 15000,12000 7506,12000 Z"/>
 <path fill="none" stroke="rgb(0,0,0)" stroke-linejoin="round" d="M 7756,11168 L 806,11168 806,1242 14705,1242 14705,11168 7756,11168 Z"/>
 <path fill="none" stroke="rgb(0,0,0)" stroke-linejoin="round" d="M 14705,11167 L 806,11167"/>
 <path fill="none" stroke="rgb(0,0,0)" stroke-linejoin="round" d="M 14705,9512 L 806,9512"/>
 <path fill="none" stroke="rgb(0,0,0)" stroke-linejoin="round" d="M 14705,7858 L 806,7858"/>
 <path fill="none" stroke="rgb(0,0,0)" stroke-linejoin="round" d="M 14705,6203 L 806,6203"/>
 <path fill="none" stroke="rgb(0,0,0)" stroke-linejoin="round" d="M 14705,4550 L 806,4550"/>
 <path fill="none" stroke="rgb(0,0,0)" stroke-linejoin="round" d="M 14705,2895 L 806,2895"/>
 <path fill="none" stroke="rgb(0,0,0)" stroke-linejoin="round" d="M 14705,1241 L 806,1241"/>
 <path fill="none" stroke="rgb(179,179,179)" stroke-linejoin="round" d="M 806,11317 L 806,11167"/>
 <path fill="none" stroke="rgb(179,179,179)" stroke-linejoin="round" d="M 806,11317 L 806,11167"/>
 <path fill="none" stroke="rgb(179,179,179)" stroke-linejoin="round" d="M 2375,11317 L 2375,11167"/>
 <path fill="none" stroke="rgb(179,179,179)" stroke-linejoin="round" d="M 2375,11317 L 2375,11167"/>
 <path fill="none" stroke="rgb(179,179,179)" stroke-linejoin="round" d="M 3944,11317 L 3944,11167"/>
 <path fill="none" stroke="rgb(179,179,179)" stroke-linejoin="round" d="M 3944,11317 L 3944,11167"/>
 <path fill="none" stroke="rgb(179,179,179)" stroke-linejoin="round" d="M 5514,11317 L 5514,11167"/>
 <path fill="none" stroke="rgb(179,179,179)" stroke-linejoin="round" d="M 5514,11317 L 5514,11167"/>
 <path fill="none" stroke="rgb(179,179,179)" stroke-linejoin="round" d="M 7082,11317 L 7082,11167"/>
 <path fill="none" stroke="rgb(179,179,179)" stroke-linejoin="round" d="M 7082,11317 L 7082,11167"/>
 <path fill="none" stroke="rgb(179,179,179)" stroke-linejoin="round" d="M 8652,11317 L 8652,11167"/>
 <path fill="none" stroke="rgb(179,179,179)" stroke-linejoin="round" d="M 8652,11317 L 8652,11167"/>
 <path fill="none" stroke="rgb(179,179,179)" stroke-linejoin="round" d="M 10221,11317 L 10221,11167"/>
 <path fill="none" stroke="rgb(179,179,179)" stroke-linejoin="round" d="M 10221,11317 L 10221,11167"/>
 <path fill="none" stroke="rgb(179,179,179)" stroke-linejoin="round" d="M 11790,11317 L 11790,11167"/>
 <path fill="none" stroke="rgb(179,179,179)" stroke-linejoin="round" d="M 11790,11317 L 11790,11167"/>
 <path fill="none" stroke="rgb(179,179,179)" stroke-linejoin="round" d="M 13360,11317 L 13360,11167"/>
 <path fill="none" stroke="rgb(179,179,179)" stroke-linejoin="round" d="M 13360,11317 L 13360,11167"/>
 <path fill="none" stroke="rgb(179,179,179)" stroke-linejoin="round" d="M 806,11167 L 14705,11167"/>
 <path fill="none" stroke="rgb(0,0,0)" stroke-linejoin="round" d="M 656,11167 L 806,11167"/>
 <path fill="none" stroke="rgb(0,0,0)" stroke-linejoin="round" d="M 656,11167 L 806,11167"/>
 <path fill="none" stroke="rgb(0,0,0)" stroke-linejoin="round" d="M 656,9512 L 806,9512"/>
 <path fill="none" stroke="rgb(0,0,0)" stroke-linejoin="round" d="M 656,9512 L 806,9512"/>
 <path fill="none" stroke="rgb(0,0,0)" stroke-linejoin="round" d="M 656,7858 L 806,7858"/>
 <path fill="none" stroke="rgb(0,0,0)" stroke-linejoin="round" d="M 656,7858 L 806,7858"/>
 <path fill="none" stroke="rgb(0,0,0)" stroke-linejoin="round" d="M 656,6203 L 806,6203"/>
 <path fill="none" stroke="rgb(0,0,0)" stroke-linejoin="round" d="M 656,6203 L 806,6203"/>
 <path fill="none" stroke="rgb(0,0,0)" stroke-linejoin="round" d="M 656,4550 L 806,4550"/>
 <path fill="none" stroke="rgb(0,0,0)" stroke-linejoin="round" d="M 656,4550 L 806,4550"/>
 <path fill="none" stroke="rgb(0,0,0)" stroke-linejoin="round" d="M 656,2895 L 806,2895"/>
 <path fill="none" stroke="rgb(0,0,0)" stroke-linejoin="round" d="M 656,2895 L 806,2895"/>
 <path fill="none" stroke="rgb(0,0,0)" stroke-linejoin="round" d="M 656,1241 L 806,1241"/>
 <path fill="none" stroke="rgb(0,0,0)" stroke-linejoin="round" d="M 656,1241 L 806,1241"/>
 <path fill="none" stroke="rgb(0,0,0)" stroke-linejoin="round" d="M 806,11167 L 806,1241"/>
 <path fill="none" stroke="rgb(0,69,134)" stroke-width="50" stroke-linejoin="round" d="M 5177,11147 L 5401,11128 5626,11167 5850,11167 6074,11147 6298,11167 6522,11147 6747,11167 6970,10995 7195,11033 7419,10862 7643,10595 7868,11014 8091,10919 8315,10519 8540,10101 8764,10367 8989,9853 9212,9948 9436,9682 9661,9606 9885,7512 10110,8825 10333,7683 10557,8654 10782,8502 11006,8045 11231,7645 11454,3496 11678,7264 11903,5781 12127,1726 12350,4943 12575,6332 12799,5400 13024,6332 13248,5781 13471,3230 13696,5343 13920,5647 14145,6788 14369,8406 14592,7931"/>
 <path fill="rgb(0,69,134)" stroke="none" d="M 5077,11047 L 5077,11247 5277,11247 5277,11047 5077,11047 Z"/>
 <path fill="none" stroke="rgb(0,69,134)" stroke-linejoin="round" d="M 5077,11047 L 5077,11247 5277,11247 5277,11047 5077,11047 Z"/>
 <path fill="rgb(0,69,134)" stroke="none" d="M 5301,11028 L 5301,11228 5501,11228 5501,11028 5301,11028 Z"/>
 <path fill="none" stroke="rgb(0,69,134)" stroke-linejoin="round" d="M 5301,11028 L 5301,11228 5501,11228 5501,11028 5301,11028 Z"/>
 <path fill="rgb(0,69,134)" stroke="none" d="M 5526,11067 L 5526,11267 5726,11267 5726,11067 5526,11067 Z"/>
 <path fill="none" stroke="rgb(0,69,134)" stroke-linejoin="round" d="M 5526,11067 L 5526,11267 5726,11267 5726,11067 5526,11067 Z"/>
 <path fill="rgb(0,69,134)" stroke="none" d="M 5750,11067 L 5750,11267 5949,11267 5949,11067 5750,11067 Z"/>
 <path fill="none" stroke="rgb(0,69,134)" stroke-linejoin="round" d="M 5750,11067 L 5750,11267 5949,11267 5949,11067 5750,11067 Z"/>
 <path fill="rgb(0,69,134)" stroke="none" d="M 5974,11047 L 5974,11247 6174,11247 6174,11047 5974,11047 Z"/>
 <path fill="none" stroke="rgb(0,69,134)" stroke-linejoin="round" d="M 5974,11047 L 5974,11247 6174,11247 6174,11047 5974,11047 Z"/>
 <path fill="rgb(0,69,134)" stroke="none" d="M 6198,11067 L 6198,11267 6398,11267 6398,11067 6198,11067 Z"/>
 <path fill="none" stroke="rgb(0,69,134)" stroke-linejoin="round" d="M 6198,11067 L 6198,11267 6398,11267 6398,11067 6198,11067 Z"/>
 <path fill="rgb(0,69,134)" stroke="none" d="M 6422,11047 L 6422,11247 6622,11247 6622,11047 6422,11047 Z"/>
 <path fill="none" stroke="rgb(0,69,134)" stroke-linejoin="round" d="M 6422,11047 L 6422,11247 6622,11247 6622,11047 6422,11047 Z"/>
 <path fill="rgb(0,69,134)" stroke="none" d="M 6647,11067 L 6647,11267 6847,11267 6847,11067 6647,11067 Z"/>
 <path fill="none" stroke="rgb(0,69,134)" stroke-linejoin="round" d="M 6647,11067 L 6647,11267 6847,11267 6847,11067 6647,11067 Z"/>
 <path fill="rgb(0,69,134)" stroke="none" d="M 6871,10895 L 6871,11095 7070,11095 7070,10895 6871,10895 Z"/>
 <path fill="none" stroke="rgb(0,69,134)" stroke-linejoin="round" d="M 6871,10895 L 6871,11095 7070,11095 7070,10895 6871,10895 Z"/>
 <path fill="rgb(0,69,134)" stroke="none" d="M 7095,10933 L 7095,11133 7295,11133 7295,10933 7095,10933 Z"/>
 <path fill="none" stroke="rgb(0,69,134)" stroke-linejoin="round" d="M 7095,10933 L 7095,11133 7295,11133 7295,10933 7095,10933 Z"/>
 <path fill="rgb(0,69,134)" stroke="none" d="M 7319,10762 L 7319,10962 7519,10962 7519,10762 7319,10762 Z"/>
 <path fill="none" stroke="rgb(0,69,134)" stroke-linejoin="round" d="M 7319,10762 L 7319,10962 7519,10962 7519,10762 7319,10762 Z"/>
 <path fill="rgb(0,69,134)" stroke="none" d="M 7543,10495 L 7543,10695 7743,10695 7743,10495 7543,10495 Z"/>
 <path fill="none" stroke="rgb(0,69,134)" stroke-linejoin="round" d="M 7543,10495 L 7543,10695 7743,10695 7743,10495 7543,10495 Z"/>
 <path fill="rgb(0,69,134)" stroke="none" d="M 7768,10914 L 7768,11114 7968,11114 7968,10914 7768,10914 Z"/>
 <path fill="none" stroke="rgb(0,69,134)" stroke-linejoin="round" d="M 7768,10914 L 7768,11114 7968,11114 7968,10914 7768,10914 Z"/>
 <path fill="rgb(0,69,134)" stroke="none" d="M 7992,10819 L 7992,11019 8191,11019 8191,10819 7992,10819 Z"/>
 <path fill="none" stroke="rgb(0,69,134)" stroke-linejoin="round" d="M 7992,10819 L 7992,11019 8191,11019 8191,10819 7992,10819 Z"/>
 <path fill="rgb(0,69,134)" stroke="none" d="M 8215,10419 L 8215,10619 8415,10619 8415,10419 8215,10419 Z"/>
 <path fill="none" stroke="rgb(0,69,134)" stroke-linejoin="round" d="M 8215,10419 L 8215,10619 8415,10619 8415,10419 8215,10419 Z"/>
 <path fill="rgb(0,69,134)" stroke="none" d="M 8440,10001 L 8440,10201 8640,10201 8640,10001 8440,10001 Z"/>
 <path fill="none" stroke="rgb(0,69,134)" stroke-linejoin="round" d="M 8440,10001 L 8440,10201 8640,10201 8640,10001 8440,10001 Z"/>
 <path fill="rgb(0,69,134)" stroke="none" d="M 8664,10267 L 8664,10467 8864,10467 8864,10267 8664,10267 Z"/>
 <path fill="none" stroke="rgb(0,69,134)" stroke-linejoin="round" d="M 8664,10267 L 8664,10467 8864,10467 8864,10267 8664,10267 Z"/>
 <path fill="rgb(0,69,134)" stroke="none" d="M 8889,9753 L 8889,9953 9089,9953 9089,9753 8889,9753 Z"/>
 <path fill="none" stroke="rgb(0,69,134)" stroke-linejoin="round" d="M 8889,9753 L 8889,9953 9089,9953 9089,9753 8889,9753 Z"/>
 <path fill="rgb(0,69,134)" stroke="none" d="M 9112,9848 L 9112,10048 9312,10048 9312,9848 9112,9848 Z"/>
 <path fill="none" stroke="rgb(0,69,134)" stroke-linejoin="round" d="M 9112,9848 L 9112,10048 9312,10048 9312,9848 9112,9848 Z"/>
 <path fill="rgb(0,69,134)" stroke="none" d="M 9336,9582 L 9336,9782 9536,9782 9536,9582 9336,9582 Z"/>
 <path fill="none" stroke="rgb(0,69,134)" stroke-linejoin="round" d="M 9336,9582 L 9336,9782 9536,9782 9536,9582 9336,9582 Z"/>
 <path fill="rgb(0,69,134)" stroke="none" d="M 9561,9506 L 9561,9706 9761,9706 9761,9506 9561,9506 Z"/>
 <path fill="none" stroke="rgb(0,69,134)" stroke-linejoin="round" d="M 9561,9506 L 9561,9706 9761,9706 9761,9506 9561,9506 Z"/>
 <path fill="rgb(0,69,134)" stroke="none" d="M 9785,7412 L 9785,7612 9985,7612 9985,7412 9785,7412 Z"/>
 <path fill="none" stroke="rgb(0,69,134)" stroke-linejoin="round" d="M 9785,7412 L 9785,7612 9985,7612 9985,7412 9785,7412 Z"/>
 <path fill="rgb(0,69,134)" stroke="none" d="M 10010,8725 L 10010,8925 10209,8925 10209,8725 10010,8725 Z"/>
 <path fill="none" stroke="rgb(0,69,134)" stroke-linejoin="round" d="M 10010,8725 L 10010,8925 10209,8925 10209,8725 10010,8725 Z"/>
 <path fill="rgb(0,69,134)" stroke="none" d="M 10233,7583 L 10233,7783 10433,7783 10433,7583 10233,7583 Z"/>
 <path fill="none" stroke="rgb(0,69,134)" stroke-linejoin="round" d="M 10233,7583 L 10233,7783 10433,7783 10433,7583 10233,7583 Z"/>
 <path fill="rgb(0,69,134)" stroke="none" d="M 10457,8554 L 10457,8754 10657,8754 10657,8554 10457,8554 Z"/>
 <path fill="none" stroke="rgb(0,69,134)" stroke-linejoin="round" d="M 10457,8554 L 10457,8754 10657,8754 10657,8554 10457,8554 Z"/>
 <path fill="rgb(0,69,134)" stroke="none" d="M 10682,8402 L 10682,8602 10882,8602 10882,8402 10682,8402 Z"/>
 <path fill="none" stroke="rgb(0,69,134)" stroke-linejoin="round" d="M 10682,8402 L 10682,8602 10882,8602 10882,8402 10682,8402 Z"/>
 <path fill="rgb(0,69,134)" stroke="none" d="M 10906,7945 L 10906,8145 11106,8145 11106,7945 10906,7945 Z"/>
 <path fill="none" stroke="rgb(0,69,134)" stroke-linejoin="round" d="M 10906,7945 L 10906,8145 11106,8145 11106,7945 10906,7945 Z"/>
 <path fill="rgb(0,69,134)" stroke="none" d="M 11131,7545 L 11131,7745 11330,7745 11330,7545 11131,7545 Z"/>
 <path fill="none" stroke="rgb(0,69,134)" stroke-linejoin="round" d="M 11131,7545 L 11131,7745 11330,7745 11330,7545 11131,7545 Z"/>
 <path fill="rgb(0,69,134)" stroke="none" d="M 11354,3396 L 11354,3596 11554,3596 11554,3396 11354,3396 Z"/>
 <path fill="none" stroke="rgb(0,69,134)" stroke-linejoin="round" d="M 11354,3396 L 11354,3596 11554,3596 11554,3396 11354,3396 Z"/>
 <path fill="rgb(0,69,134)" stroke="none" d="M 11578,7164 L 11578,7364 11778,7364 11778,7164 11578,7164 Z"/>
 <path fill="none" stroke="rgb(0,69,134)" stroke-linejoin="round" d="M 11578,7164 L 11578,7364 11778,7364 11778,7164 11578,7164 Z"/>
 <path fill="rgb(0,69,134)" stroke="none" d="M 11803,5681 L 11803,5881 12003,5881 12003,5681 11803,5681 Z"/>
 <path fill="none" stroke="rgb(0,69,134)" stroke-linejoin="round" d="M 11803,5681 L 11803,5881 12003,5881 12003,5681 11803,5681 Z"/>
 <path fill="rgb(0,69,134)" stroke="none" d="M 12027,1626 L 12027,1826 12227,1826 12227,1626 12027,1626 Z"/>
 <path fill="none" stroke="rgb(0,69,134)" stroke-linejoin="round" d="M 12027,1626 L 12027,1826 12227,1826 12227,1626 12027,1626 Z"/>
 <path fill="rgb(0,69,134)" stroke="none" d="M 12251,4843 L 12251,5043 12450,5043 12450,4843 12251,4843 Z"/>
 <path fill="none" stroke="rgb(0,69,134)" stroke-linejoin="round" d="M 12251,4843 L 12251,5043 12450,5043 12450,4843 12251,4843 Z"/>
 <path fill="rgb(0,69,134)" stroke="none" d="M 12475,6232 L 12475,6432 12675,6432 12675,6232 12475,6232 Z"/>
 <path fill="none" stroke="rgb(0,69,134)" stroke-linejoin="round" d="M 12475,6232 L 12475,6432 12675,6432 12675,6232 12475,6232 Z"/>
 <path fill="rgb(0,69,134)" stroke="none" d="M 12699,5300 L 12699,5500 12899,5500 12899,5300 12699,5300 Z"/>
 <path fill="none" stroke="rgb(0,69,134)" stroke-linejoin="round" d="M 12699,5300 L 12699,5500 12899,5500 12899,5300 12699,5300 Z"/>
 <path fill="rgb(0,69,134)" stroke="none" d="M 12924,6232 L 12924,6432 13124,6432 13124,6232 12924,6232 Z"/>
 <path fill="none" stroke="rgb(0,69,134)" stroke-linejoin="round" d="M 12924,6232 L 12924,6432 13124,6432 13124,6232 12924,6232 Z"/>
 <path fill="rgb(0,69,134)" stroke="none" d="M 13148,5681 L 13148,5881 13348,5881 13348,5681 13148,5681 Z"/>
 <path fill="none" stroke="rgb(0,69,134)" stroke-linejoin="round" d="M 13148,5681 L 13148,5881 13348,5881 13348,5681 13148,5681 Z"/>
 <path fill="rgb(0,69,134)" stroke="none" d="M 13372,3130 L 13372,3330 13571,3330 13571,3130 13372,3130 Z"/>
 <path fill="none" stroke="rgb(0,69,134)" stroke-linejoin="round" d="M 13372,3130 L 13372,3330 13571,3330 13571,3130 13372,3130 Z"/>
 <path fill="rgb(0,69,134)" stroke="none" d="M 13596,5243 L 13596,5443 13796,5443 13796,5243 13596,5243 Z"/>
 <path fill="none" stroke="rgb(0,69,134)" stroke-linejoin="round" d="M 13596,5243 L 13596,5443 13796,5443 13796,5243 13596,5243 Z"/>
 <path fill="rgb(0,69,134)" stroke="none" d="M 13820,5547 L 13820,5747 14020,5747 14020,5547 13820,5547 Z"/>
 <path fill="none" stroke="rgb(0,69,134)" stroke-linejoin="round" d="M 13820,5547 L 13820,5747 14020,5747 14020,5547 13820,5547 Z"/>
 <path fill="rgb(0,69,134)" stroke="none" d="M 14045,6688 L 14045,6888 14245,6888 14245,6688 14045,6688 Z"/>
 <path fill="none" stroke="rgb(0,69,134)" stroke-linejoin="round" d="M 14045,6688 L 14045,6888 14245,6888 14245,6688 14045,6688 Z"/>
 <path fill="rgb(0,69,134)" stroke="none" d="M 14269,8306 L 14269,8506 14468,8506 14468,8306 14269,8306 Z"/>
 <path fill="none" stroke="rgb(0,69,134)" stroke-linejoin="round" d="M 14269,8306 L 14269,8506 14468,8506 14468,8306 14269,8306 Z"/>
 <path fill="rgb(0,69,134)" stroke="none" d="M 14492,7831 L 14492,8031 14692,8031 14692,7831 14492,7831 Z"/>
 <path fill="none" stroke="rgb(0,69,134)" stroke-linejoin="round" d="M 14492,7831 L 14492,8031 14692,8031 14692,7831 14492,7831 Z"/>
 <path fill="none" stroke="rgb(255,66,14)" stroke-width="50" stroke-linejoin="round" d="M 4056,11157 L 4281,11157 4505,11152 4729,11157 4953,11137 5177,11074 5401,11108 5626,10986 5850,11001 6074,11079 6298,10425 6522,11064 6747,10279 6970,10645 7195,10342 7419,10020 7643,9586 7868,9245 8091,8913 8315,8708 8540,7518 8764,7972 8989,7416 9212,7108 9436,7079 9661,7206 9885,7025 10110,6952 10333,6533 10557,6621 10782,7221 11006,7879 11231,8060 11454,7542 11678,7474 11903,7835 12127,8216 12350,8679 12575,8147 12799,8645 13024,8401 13248,8616 13471,8479 13696,8313 13920,8411 14145,9167 14369,9220 14592,9069"/>
 <path fill="rgb(255,66,14)" stroke="none" d="M 3956,11157 L 4056,11257 4156,11157 4056,11057 3956,11157 Z"/>
 <path fill="none" stroke="rgb(255,66,14)" stroke-linejoin="round" d="M 3956,11157 L 4056,11257 4156,11157 4056,11057 3956,11157 Z"/>
 <path fill="rgb(255,66,14)" stroke="none" d="M 4181,11157 L 4281,11257 4381,11157 4281,11057 4181,11157 Z"/>
 <path fill="none" stroke="rgb(255,66,14)" stroke-linejoin="round" d="M 4181,11157 L 4281,11257 4381,11157 4281,11057 4181,11157 Z"/>
 <path fill="rgb(255,66,14)" stroke="none" d="M 4405,11152 L 4505,11252 4605,11152 4505,11052 4405,11152 Z"/>
 <path fill="none" stroke="rgb(255,66,14)" stroke-linejoin="round" d="M 4405,11152 L 4505,11252 4605,11152 4505,11052 4405,11152 Z"/>
 <path fill="rgb(255,66,14)" stroke="none" d="M 4629,11157 L 4729,11257 4828,11157 4729,11057 4629,11157 Z"/>
 <path fill="none" stroke="rgb(255,66,14)" stroke-linejoin="round" d="M 4629,11157 L 4729,11257 4828,11157 4729,11057 4629,11157 Z"/>
 <path fill="rgb(255,66,14)" stroke="none" d="M 4853,11137 L 4953,11237 5053,11137 4953,11037 4853,11137 Z"/>
 <path fill="none" stroke="rgb(255,66,14)" stroke-linejoin="round" d="M 4853,11137 L 4953,11237 5053,11137 4953,11037 4853,11137 Z"/>
 <path fill="rgb(255,66,14)" stroke="none" d="M 5077,11074 L 5177,11174 5277,11074 5177,10974 5077,11074 Z"/>
 <path fill="none" stroke="rgb(255,66,14)" stroke-linejoin="round" d="M 5077,11074 L 5177,11174 5277,11074 5177,10974 5077,11074 Z"/>
 <path fill="rgb(255,66,14)" stroke="none" d="M 5301,11108 L 5401,11208 5501,11108 5401,11008 5301,11108 Z"/>
 <path fill="none" stroke="rgb(255,66,14)" stroke-linejoin="round" d="M 5301,11108 L 5401,11208 5501,11108 5401,11008 5301,11108 Z"/>
 <path fill="rgb(255,66,14)" stroke="none" d="M 5526,10986 L 5626,11086 5726,10986 5626,10886 5526,10986 Z"/>
 <path fill="none" stroke="rgb(255,66,14)" stroke-linejoin="round" d="M 5526,10986 L 5626,11086 5726,10986 5626,10886 5526,10986 Z"/>
 <path fill="rgb(255,66,14)" stroke="none" d="M 5750,11001 L 5850,11101 5949,11001 5850,10901 5750,11001 Z"/>
 <path fill="none" stroke="rgb(255,66,14)" stroke-linejoin="round" d="M 5750,11001 L 5850,11101 5949,11001 5850,10901 5750,11001 Z"/>
 <path fill="rgb(255,66,14)" stroke="none" d="M 5974,11079 L 6074,11179 6174,11079 6074,10979 5974,11079 Z"/>
 <path fill="none" stroke="rgb(255,66,14)" stroke-linejoin="round" d="M 5974,11079 L 6074,11179 6174,11079 6074,10979 5974,11079 Z"/>
 <path fill="rgb(255,66,14)" stroke="none" d="M 6198,10425 L 6298,10525 6398,10425 6298,10325 6198,10425 Z"/>
 <path fill="none" stroke="rgb(255,66,14)" stroke-linejoin="round" d="M 6198,10425 L 6298,10525 6398,10425 6298,10325 6198,10425 Z"/>
 <path fill="rgb(255,66,14)" stroke="none" d="M 6422,11064 L 6522,11164 6622,11064 6522,10964 6422,11064 Z"/>
 <path fill="none" stroke="rgb(255,66,14)" stroke-linejoin="round" d="M 6422,11064 L 6522,11164 6622,11064 6522,10964 6422,11064 Z"/>
 <path fill="rgb(255,66,14)" stroke="none" d="M 6647,10279 L 6747,10379 6847,10279 6747,10179 6647,10279 Z"/>
 <path fill="none" stroke="rgb(255,66,14)" stroke-linejoin="round" d="M 6647,10279 L 6747,10379 6847,10279 6747,10179 6647,10279 Z"/>
 <path fill="rgb(255,66,14)" stroke="none" d="M 6871,10645 L 6970,10745 7070,10645 6970,10545 6871,10645 Z"/>
 <path fill="none" stroke="rgb(255,66,14)" stroke-linejoin="round" d="M 6871,10645 L 6970,10745 7070,10645 6970,10545 6871,10645 Z"/>
 <path fill="rgb(255,66,14)" stroke="none" d="M 7095,10342 L 7195,10442 7295,10342 7195,10242 7095,10342 Z"/>
 <path fill="none" stroke="rgb(255,66,14)" stroke-linejoin="round" d="M 7095,10342 L 7195,10442 7295,10342 7195,10242 7095,10342 Z"/>
 <path fill="rgb(255,66,14)" stroke="none" d="M 7319,10020 L 7419,10120 7519,10020 7419,9920 7319,10020 Z"/>
 <path fill="none" stroke="rgb(255,66,14)" stroke-linejoin="round" d="M 7319,10020 L 7419,10120 7519,10020 7419,9920 7319,10020 Z"/>
 <path fill="rgb(255,66,14)" stroke="none" d="M 7543,9586 L 7643,9686 7743,9586 7643,9486 7543,9586 Z"/>
 <path fill="none" stroke="rgb(255,66,14)" stroke-linejoin="round" d="M 7543,9586 L 7643,9686 7743,9586 7643,9486 7543,9586 Z"/>
 <path fill="rgb(255,66,14)" stroke="none" d="M 7768,9245 L 7868,9345 7968,9245 7868,9145 7768,9245 Z"/>
 <path fill="none" stroke="rgb(255,66,14)" stroke-linejoin="round" d="M 7768,9245 L 7868,9345 7968,9245 7868,9145 7768,9245 Z"/>
 <path fill="rgb(255,66,14)" stroke="none" d="M 7992,8913 L 8091,9013 8191,8913 8091,8813 7992,8913 Z"/>
 <path fill="none" stroke="rgb(255,66,14)" stroke-linejoin="round" d="M 7992,8913 L 8091,9013 8191,8913 8091,8813 7992,8913 Z"/>
 <path fill="rgb(255,66,14)" stroke="none" d="M 8215,8708 L 8315,8808 8415,8708 8315,8608 8215,8708 Z"/>
 <path fill="none" stroke="rgb(255,66,14)" stroke-linejoin="round" d="M 8215,8708 L 8315,8808 8415,8708 8315,8608 8215,8708 Z"/>
 <path fill="rgb(255,66,14)" stroke="none" d="M 8440,7518 L 8540,7618 8640,7518 8540,7418 8440,7518 Z"/>
 <path fill="none" stroke="rgb(255,66,14)" stroke-linejoin="round" d="M 8440,7518 L 8540,7618 8640,7518 8540,7418 8440,7518 Z"/>
 <path fill="rgb(255,66,14)" stroke="none" d="M 8664,7972 L 8764,8072 8864,7972 8764,7872 8664,7972 Z"/>
 <path fill="none" stroke="rgb(255,66,14)" stroke-linejoin="round" d="M 8664,7972 L 8764,8072 8864,7972 8764,7872 8664,7972 Z"/>
 <path fill="rgb(255,66,14)" stroke="none" d="M 8889,7416 L 8989,7516 9089,7416 8989,7316 8889,7416 Z"/>
 <path fill="none" stroke="rgb(255,66,14)" stroke-linejoin="round" d="M 8889,7416 L 8989,7516 9089,7416 8989,7316 8889,7416 Z"/>
 <path fill="rgb(255,66,14)" stroke="none" d="M 9112,7108 L 9212,7208 9312,7108 9212,7008 9112,7108 Z"/>
 <path fill="none" stroke="rgb(255,66,14)" stroke-linejoin="round" d="M 9112,7108 L 9212,7208 9312,7108 9212,7008 9112,7108 Z"/>
 <path fill="rgb(255,66,14)" stroke="none" d="M 9336,7079 L 9436,7179 9536,7079 9436,6979 9336,7079 Z"/>
 <path fill="none" stroke="rgb(255,66,14)" stroke-linejoin="round" d="M 9336,7079 L 9436,7179 9536,7079 9436,6979 9336,7079 Z"/>
 <path fill="rgb(255,66,14)" stroke="none" d="M 9561,7206 L 9661,7306 9761,7206 9661,7106 9561,7206 Z"/>
 <path fill="none" stroke="rgb(255,66,14)" stroke-linejoin="round" d="M 9561,7206 L 9661,7306 9761,7206 9661,7106 9561,7206 Z"/>
 <path fill="rgb(255,66,14)" stroke="none" d="M 9785,7025 L 9885,7125 9985,7025 9885,6925 9785,7025 Z"/>
 <path fill="none" stroke="rgb(255,66,14)" stroke-linejoin="round" d="M 9785,7025 L 9885,7125 9985,7025 9885,6925 9785,7025 Z"/>
 <path fill="rgb(255,66,14)" stroke="none" d="M 10010,6952 L 10110,7052 10209,6952 10110,6852 10010,6952 Z"/>
 <path fill="none" stroke="rgb(255,66,14)" stroke-linejoin="round" d="M 10010,6952 L 10110,7052 10209,6952 10110,6852 10010,6952 Z"/>
 <path fill="rgb(255,66,14)" stroke="none" d="M 10233,6533 L 10333,6633 10433,6533 10333,6433 10233,6533 Z"/>
 <path fill="none" stroke="rgb(255,66,14)" stroke-linejoin="round" d="M 10233,6533 L 10333,6633 10433,6533 10333,6433 10233,6533 Z"/>
 <path fill="rgb(255,66,14)" stroke="none" d="M 10457,6621 L 10557,6721 10657,6621 10557,6521 10457,6621 Z"/>
 <path fill="none" stroke="rgb(255,66,14)" stroke-linejoin="round" d="M 10457,6621 L 10557,6721 10657,6621 10557,6521 10457,6621 Z"/>
 <path fill="rgb(255,66,14)" stroke="none" d="M 10682,7221 L 10782,7321 10882,7221 10782,7121 10682,7221 Z"/>
 <path fill="none" stroke="rgb(255,66,14)" stroke-linejoin="round" d="M 10682,7221 L 10782,7321 10882,7221 10782,7121 10682,7221 Z"/>
 <path fill="rgb(255,66,14)" stroke="none" d="M 10906,7879 L 11006,7979 11106,7879 11006,7779 10906,7879 Z"/>
 <path fill="none" stroke="rgb(255,66,14)" stroke-linejoin="round" d="M 10906,7879 L 11006,7979 11106,7879 11006,7779 10906,7879 Z"/>
 <path fill="rgb(255,66,14)" stroke="none" d="M 11131,8060 L 11231,8160 11330,8060 11231,7960 11131,8060 Z"/>
 <path fill="none" stroke="rgb(255,66,14)" stroke-linejoin="round" d="M 11131,8060 L 11231,8160 11330,8060 11231,7960 11131,8060 Z"/>
 <path fill="rgb(255,66,14)" stroke="none" d="M 11354,7542 L 11454,7642 11554,7542 11454,7442 11354,7542 Z"/>
 <path fill="none" stroke="rgb(255,66,14)" stroke-linejoin="round" d="M 11354,7542 L 11454,7642 11554,7542 11454,7442 11354,7542 Z"/>
 <path fill="rgb(255,66,14)" stroke="none" d="M 11578,7474 L 11678,7574 11778,7474 11678,7374 11578,7474 Z"/>
 <path fill="none" stroke="rgb(255,66,14)" stroke-linejoin="round" d="M 11578,7474 L 11678,7574 11778,7474 11678,7374 11578,7474 Z"/>
 <path fill="rgb(255,66,14)" stroke="none" d="M 11803,7835 L 11903,7935 12003,7835 11903,7735 11803,7835 Z"/>
 <path fill="none" stroke="rgb(255,66,14)" stroke-linejoin="round" d="M 11803,7835 L 11903,7935 12003,7835 11903,7735 11803,7835 Z"/>
 <path fill="rgb(255,66,14)" stroke="none" d="M 12027,8216 L 12127,8316 12227,8216 12127,8116 12027,8216 Z"/>
 <path fill="none" stroke="rgb(255,66,14)" stroke-linejoin="round" d="M 12027,8216 L 12127,8316 12227,8216 12127,8116 12027,8216 Z"/>
 <path fill="rgb(255,66,14)" stroke="none" d="M 12251,8679 L 12350,8779 12450,8679 12350,8579 12251,8679 Z"/>
 <path fill="none" stroke="rgb(255,66,14)" stroke-linejoin="round" d="M 12251,8679 L 12350,8779 12450,8679 12350,8579 12251,8679 Z"/>
 <path fill="rgb(255,66,14)" stroke="none" d="M 12475,8147 L 12575,8247 12675,8147 12575,8047 12475,8147 Z"/>
 <path fill="none" stroke="rgb(255,66,14)" stroke-linejoin="round" d="M 12475,8147 L 12575,8247 12675,8147 12575,8047 12475,8147 Z"/>
 <path fill="rgb(255,66,14)" stroke="none" d="M 12699,8645 L 12799,8745 12899,8645 12799,8545 12699,8645 Z"/>
 <path fill="none" stroke="rgb(255,66,14)" stroke-linejoin="round" d="M 12699,8645 L 12799,8745 12899,8645 12799,8545 12699,8645 Z"/>
 <path fill="rgb(255,66,14)" stroke="none" d="M 12924,8401 L 13024,8501 13124,8401 13024,8301 12924,8401 Z"/>
 <path fill="none" stroke="rgb(255,66,14)" stroke-linejoin="round" d="M 12924,8401 L 13024,8501 13124,8401 13024,8301 12924,8401 Z"/>
 <path fill="rgb(255,66,14)" stroke="none" d="M 13148,8616 L 13248,8716 13348,8616 13248,8516 13148,8616 Z"/>
 <path fill="none" stroke="rgb(255,66,14)" stroke-linejoin="round" d="M 13148,8616 L 13248,8716 13348,8616 13248,8516 13148,8616 Z"/>
 <path fill="rgb(255,66,14)" stroke="none" d="M 13372,8479 L 13471,8579 13571,8479 13471,8379 13372,8479 Z"/>
 <path fill="none" stroke="rgb(255,66,14)" stroke-linejoin="round" d="M 13372,8479 L 13471,8579 13571,8479 13471,8379 13372,8479 Z"/>
 <path fill="rgb(255,66,14)" stroke="none" d="M 13596,8313 L 13696,8413 13796,8313 13696,8213 13596,8313 Z"/>
 <path fill="none" stroke="rgb(255,66,14)" stroke-linejoin="round" d="M 13596,8313 L 13696,8413 13796,8313 13696,8213 13596,8313 Z"/>
 <path fill="rgb(255,66,14)" stroke="none" d="M 13820,8411 L 13920,8511 14020,8411 13920,8311 13820,8411 Z"/>
 <path fill="none" stroke="rgb(255,66,14)" stroke-linejoin="round" d="M 13820,8411 L 13920,8511 14020,8411 13920,8311 13820,8411 Z"/>
 <path fill="rgb(255,66,14)" stroke="none" d="M 14045,9167 L 14145,9267 14245,9167 14145,9067 14045,9167 Z"/>
 <path fill="none" stroke="rgb(255,66,14)" stroke-linejoin="round" d="M 14045,9167 L 14145,9267 14245,9167 14145,9067 14045,9167 Z"/>
 <path fill="rgb(255,66,14)" stroke="none" d="M 14269,9220 L 14369,9320 14468,9220 14369,9120 14269,9220 Z"/>
 <path fill="none" stroke="rgb(255,66,14)" stroke-linejoin="round" d="M 14269,9220 L 14369,9320 14468,9220 14369,9120 14269,9220 Z"/>
 <path fill="rgb(255,66,14)" stroke="none" d="M 14492,9069 L 14592,9169 14692,9069 14592,8969 14492,9069 Z"/>
 <path fill="none" stroke="rgb(255,66,14)" stroke-linejoin="round" d="M 14492,9069 L 14592,9169 14692,9069 14592,8969 14492,9069 Z"/>
 <path fill="none" stroke="rgb(255,211,32)" stroke-width="50" stroke-linejoin="round" d="M 1142,11163 L 1366,11167 1591,11167 1814,11167 2039,11167 2263,11163 2487,11167 2711,11167 2935,11167 3160,11167 3384,11163 3608,11163 3832,11167 4056,11157 4281,11160 4505,11145 4729,11157 4953,11160 5177,11139 5401,11111 5626,11126 5850,11111 6074,11129 6298,11077 6522,11080 6747,11083 6970,10953 7195,10770 7419,10925 7643,10820 7868,10820 8091,10590 8315,10423 8540,10451 8764,10036 8989,10240 9212,10178 9436,10262 9661,9872 9885,9621 10110,9590 10333,6969 10557,7697 10782,7904 11006,9562 11231,8586 11454,6777 11678,9491 11903,7012 12127,8109 12350,9199 12575,9429 12799,9388 13024,8806 13248,6712 13471,8834 13696,8809 13920,9178 14145,9943 14369,9472 14592,9521"/>
 <path fill="rgb(255,211,32)" stroke="none" d="M 1042,11063 L 1142,11263 1242,11063 1042,11063 Z"/>
 <path fill="none" stroke="rgb(255,211,32)" stroke-linejoin="round" d="M 1042,11063 L 1142,11263 1242,11063 1042,11063 Z"/>
 <path fill="rgb(255,211,32)" stroke="none" d="M 1266,11067 L 1366,11267 1466,11067 1266,11067 Z"/>
 <path fill="none" stroke="rgb(255,211,32)" stroke-linejoin="round" d="M 1266,11067 L 1366,11267 1466,11067 1266,11067 Z"/>
 <path fill="rgb(255,211,32)" stroke="none" d="M 1491,11067 L 1591,11267 1690,11067 1491,11067 Z"/>
 <path fill="none" stroke="rgb(255,211,32)" stroke-linejoin="round" d="M 1491,11067 L 1591,11267 1690,11067 1491,11067 Z"/>
 <path fill="rgb(255,211,32)" stroke="none" d="M 1714,11067 L 1814,11267 1914,11067 1714,11067 Z"/>
 <path fill="none" stroke="rgb(255,211,32)" stroke-linejoin="round" d="M 1714,11067 L 1814,11267 1914,11067 1714,11067 Z"/>
 <path fill="rgb(255,211,32)" stroke="none" d="M 1939,11067 L 2039,11267 2139,11067 1939,11067 Z"/>
 <path fill="none" stroke="rgb(255,211,32)" stroke-linejoin="round" d="M 1939,11067 L 2039,11267 2139,11067 1939,11067 Z"/>
 <path fill="rgb(255,211,32)" stroke="none" d="M 2163,11063 L 2263,11263 2363,11063 2163,11063 Z"/>
 <path fill="none" stroke="rgb(255,211,32)" stroke-linejoin="round" d="M 2163,11063 L 2263,11263 2363,11063 2163,11063 Z"/>
 <path fill="rgb(255,211,32)" stroke="none" d="M 2387,11067 L 2487,11267 2587,11067 2387,11067 Z"/>
 <path fill="none" stroke="rgb(255,211,32)" stroke-linejoin="round" d="M 2387,11067 L 2487,11267 2587,11067 2387,11067 Z"/>
 <path fill="rgb(255,211,32)" stroke="none" d="M 2612,11067 L 2711,11267 2811,11067 2612,11067 Z"/>
 <path fill="none" stroke="rgb(255,211,32)" stroke-linejoin="round" d="M 2612,11067 L 2711,11267 2811,11067 2612,11067 Z"/>
 <path fill="rgb(255,211,32)" stroke="none" d="M 2835,11067 L 2935,11267 3035,11067 2835,11067 Z"/>
 <path fill="none" stroke="rgb(255,211,32)" stroke-linejoin="round" d="M 2835,11067 L 2935,11267 3035,11067 2835,11067 Z"/>
 <path fill="rgb(255,211,32)" stroke="none" d="M 3060,11067 L 3160,11267 3260,11067 3060,11067 Z"/>
 <path fill="none" stroke="rgb(255,211,32)" stroke-linejoin="round" d="M 3060,11067 L 3160,11267 3260,11067 3060,11067 Z"/>
 <path fill="rgb(255,211,32)" stroke="none" d="M 3284,11063 L 3384,11263 3484,11063 3284,11063 Z"/>
 <path fill="none" stroke="rgb(255,211,32)" stroke-linejoin="round" d="M 3284,11063 L 3384,11263 3484,11063 3284,11063 Z"/>
 <path fill="rgb(255,211,32)" stroke="none" d="M 3508,11063 L 3608,11263 3708,11063 3508,11063 Z"/>
 <path fill="none" stroke="rgb(255,211,32)" stroke-linejoin="round" d="M 3508,11063 L 3608,11263 3708,11063 3508,11063 Z"/>
 <path fill="rgb(255,211,32)" stroke="none" d="M 3733,11067 L 3832,11267 3932,11067 3733,11067 Z"/>
 <path fill="none" stroke="rgb(255,211,32)" stroke-linejoin="round" d="M 3733,11067 L 3832,11267 3932,11067 3733,11067 Z"/>
 <path fill="rgb(255,211,32)" stroke="none" d="M 3956,11057 L 4056,11257 4156,11057 3956,11057 Z"/>
 <path fill="none" stroke="rgb(255,211,32)" stroke-linejoin="round" d="M 3956,11057 L 4056,11257 4156,11057 3956,11057 Z"/>
 <path fill="rgb(255,211,32)" stroke="none" d="M 4181,11060 L 4281,11260 4381,11060 4181,11060 Z"/>
 <path fill="none" stroke="rgb(255,211,32)" stroke-linejoin="round" d="M 4181,11060 L 4281,11260 4381,11060 4181,11060 Z"/>
 <path fill="rgb(255,211,32)" stroke="none" d="M 4405,11045 L 4505,11245 4605,11045 4405,11045 Z"/>
 <path fill="none" stroke="rgb(255,211,32)" stroke-linejoin="round" d="M 4405,11045 L 4505,11245 4605,11045 4405,11045 Z"/>
 <path fill="rgb(255,211,32)" stroke="none" d="M 4629,11057 L 4729,11257 4828,11057 4629,11057 Z"/>
 <path fill="none" stroke="rgb(255,211,32)" stroke-linejoin="round" d="M 4629,11057 L 4729,11257 4828,11057 4629,11057 Z"/>
 <path fill="rgb(255,211,32)" stroke="none" d="M 4853,11060 L 4953,11260 5053,11060 4853,11060 Z"/>
 <path fill="none" stroke="rgb(255,211,32)" stroke-linejoin="round" d="M 4853,11060 L 4953,11260 5053,11060 4853,11060 Z"/>
 <path fill="rgb(255,211,32)" stroke="none" d="M 5077,11039 L 5177,11239 5277,11039 5077,11039 Z"/>
 <path fill="none" stroke="rgb(255,211,32)" stroke-linejoin="round" d="M 5077,11039 L 5177,11239 5277,11039 5077,11039 Z"/>
 <path fill="rgb(255,211,32)" stroke="none" d="M 5301,11011 L 5401,11211 5501,11011 5301,11011 Z"/>
 <path fill="none" stroke="rgb(255,211,32)" stroke-linejoin="round" d="M 5301,11011 L 5401,11211 5501,11011 5301,11011 Z"/>
 <path fill="rgb(255,211,32)" stroke="none" d="M 5526,11026 L 5626,11226 5726,11026 5526,11026 Z"/>
 <path fill="none" stroke="rgb(255,211,32)" stroke-linejoin="round" d="M 5526,11026 L 5626,11226 5726,11026 5526,11026 Z"/>
 <path fill="rgb(255,211,32)" stroke="none" d="M 5750,11011 L 5850,11211 5949,11011 5750,11011 Z"/>
 <path fill="none" stroke="rgb(255,211,32)" stroke-linejoin="round" d="M 5750,11011 L 5850,11211 5949,11011 5750,11011 Z"/>
 <path fill="rgb(255,211,32)" stroke="none" d="M 5974,11029 L 6074,11229 6174,11029 5974,11029 Z"/>
 <path fill="none" stroke="rgb(255,211,32)" stroke-linejoin="round" d="M 5974,11029 L 6074,11229 6174,11029 5974,11029 Z"/>
 <path fill="rgb(255,211,32)" stroke="none" d="M 6198,10977 L 6298,11177 6398,10977 6198,10977 Z"/>
 <path fill="none" stroke="rgb(255,211,32)" stroke-linejoin="round" d="M 6198,10977 L 6298,11177 6398,10977 6198,10977 Z"/>
 <path fill="rgb(255,211,32)" stroke="none" d="M 6422,10980 L 6522,11180 6622,10980 6422,10980 Z"/>
 <path fill="none" stroke="rgb(255,211,32)" stroke-linejoin="round" d="M 6422,10980 L 6522,11180 6622,10980 6422,10980 Z"/>
 <path fill="rgb(255,211,32)" stroke="none" d="M 6647,10983 L 6747,11183 6847,10983 6647,10983 Z"/>
 <path fill="none" stroke="rgb(255,211,32)" stroke-linejoin="round" d="M 6647,10983 L 6747,11183 6847,10983 6647,10983 Z"/>
 <path fill="rgb(255,211,32)" stroke="none" d="M 6871,10853 L 6970,11053 7070,10853 6871,10853 Z"/>
 <path fill="none" stroke="rgb(255,211,32)" stroke-linejoin="round" d="M 6871,10853 L 6970,11053 7070,10853 6871,10853 Z"/>
 <path fill="rgb(255,211,32)" stroke="none" d="M 7095,10670 L 7195,10870 7295,10670 7095,10670 Z"/>
 <path fill="none" stroke="rgb(255,211,32)" stroke-linejoin="round" d="M 7095,10670 L 7195,10870 7295,10670 7095,10670 Z"/>
 <path fill="rgb(255,211,32)" stroke="none" d="M 7319,10825 L 7419,11025 7519,10825 7319,10825 Z"/>
 <path fill="none" stroke="rgb(255,211,32)" stroke-linejoin="round" d="M 7319,10825 L 7419,11025 7519,10825 7319,10825 Z"/>
 <path fill="rgb(255,211,32)" stroke="none" d="M 7543,10720 L 7643,10920 7743,10720 7543,10720 Z"/>
 <path fill="none" stroke="rgb(255,211,32)" stroke-linejoin="round" d="M 7543,10720 L 7643,10920 7743,10720 7543,10720 Z"/>
 <path fill="rgb(255,211,32)" stroke="none" d="M 7768,10720 L 7868,10920 7968,10720 7768,10720 Z"/>
 <path fill="none" stroke="rgb(255,211,32)" stroke-linejoin="round" d="M 7768,10720 L 7868,10920 7968,10720 7768,10720 Z"/>
 <path fill="rgb(255,211,32)" stroke="none" d="M 7992,10490 L 8091,10690 8191,10490 7992,10490 Z"/>
 <path fill="none" stroke="rgb(255,211,32)" stroke-linejoin="round" d="M 7992,10490 L 8091,10690 8191,10490 7992,10490 Z"/>
 <path fill="rgb(255,211,32)" stroke="none" d="M 8215,10323 L 8315,10523 8415,10323 8215,10323 Z"/>
 <path fill="none" stroke="rgb(255,211,32)" stroke-linejoin="round" d="M 8215,10323 L 8315,10523 8415,10323 8215,10323 Z"/>
 <path fill="rgb(255,211,32)" stroke="none" d="M 8440,10351 L 8540,10551 8640,10351 8440,10351 Z"/>
 <path fill="none" stroke="rgb(255,211,32)" stroke-linejoin="round" d="M 8440,10351 L 8540,10551 8640,10351 8440,10351 Z"/>
 <path fill="rgb(255,211,32)" stroke="none" d="M 8664,9936 L 8764,10136 8864,9936 8664,9936 Z"/>
 <path fill="none" stroke="rgb(255,211,32)" stroke-linejoin="round" d="M 8664,9936 L 8764,10136 8864,9936 8664,9936 Z"/>
 <path fill="rgb(255,211,32)" stroke="none" d="M 8889,10140 L 8989,10340 9089,10140 8889,10140 Z"/>
 <path fill="none" stroke="rgb(255,211,32)" stroke-linejoin="round" d="M 8889,10140 L 8989,10340 9089,10140 8889,10140 Z"/>
 <path fill="rgb(255,211,32)" stroke="none" d="M 9112,10078 L 9212,10278 9312,10078 9112,10078 Z"/>
 <path fill="none" stroke="rgb(255,211,32)" stroke-linejoin="round" d="M 9112,10078 L 9212,10278 9312,10078 9112,10078 Z"/>
 <path fill="rgb(255,211,32)" stroke="none" d="M 9336,10162 L 9436,10362 9536,10162 9336,10162 Z"/>
 <path fill="none" stroke="rgb(255,211,32)" stroke-linejoin="round" d="M 9336,10162 L 9436,10362 9536,10162 9336,10162 Z"/>
 <path fill="rgb(255,211,32)" stroke="none" d="M 9561,9772 L 9661,9972 9761,9772 9561,9772 Z"/>
 <path fill="none" stroke="rgb(255,211,32)" stroke-linejoin="round" d="M 9561,9772 L 9661,9972 9761,9772 9561,9772 Z"/>
 <path fill="rgb(255,211,32)" stroke="none" d="M 9785,9521 L 9885,9721 9985,9521 9785,9521 Z"/>
 <path fill="none" stroke="rgb(255,211,32)" stroke-linejoin="round" d="M 9785,9521 L 9885,9721 9985,9521 9785,9521 Z"/>
 <path fill="rgb(255,211,32)" stroke="none" d="M 10010,9490 L 10110,9690 10209,9490 10010,9490 Z"/>
 <path fill="none" stroke="rgb(255,211,32)" stroke-linejoin="round" d="M 10010,9490 L 10110,9690 10209,9490 10010,9490 Z"/>
 <path fill="rgb(255,211,32)" stroke="none" d="M 10233,6869 L 10333,7069 10433,6869 10233,6869 Z"/>
 <path fill="none" stroke="rgb(255,211,32)" stroke-linejoin="round" d="M 10233,6869 L 10333,7069 10433,6869 10233,6869 Z"/>
 <path fill="rgb(255,211,32)" stroke="none" d="M 10457,7597 L 10557,7797 10657,7597 10457,7597 Z"/>
 <path fill="none" stroke="rgb(255,211,32)" stroke-linejoin="round" d="M 10457,7597 L 10557,7797 10657,7597 10457,7597 Z"/>
 <path fill="rgb(255,211,32)" stroke="none" d="M 10682,7804 L 10782,8004 10882,7804 10682,7804 Z"/>
 <path fill="none" stroke="rgb(255,211,32)" stroke-linejoin="round" d="M 10682,7804 L 10782,8004 10882,7804 10682,7804 Z"/>
 <path fill="rgb(255,211,32)" stroke="none" d="M 10906,9462 L 11006,9662 11106,9462 10906,9462 Z"/>
 <path fill="none" stroke="rgb(255,211,32)" stroke-linejoin="round" d="M 10906,9462 L 11006,9662 11106,9462 10906,9462 Z"/>
 <path fill="rgb(255,211,32)" stroke="none" d="M 11131,8486 L 11231,8686 11330,8486 11131,8486 Z"/>
 <path fill="none" stroke="rgb(255,211,32)" stroke-linejoin="round" d="M 11131,8486 L 11231,8686 11330,8486 11131,8486 Z"/>
 <path fill="rgb(255,211,32)" stroke="none" d="M 11354,6677 L 11454,6877 11554,6677 11354,6677 Z"/>
 <path fill="none" stroke="rgb(255,211,32)" stroke-linejoin="round" d="M 11354,6677 L 11454,6877 11554,6677 11354,6677 Z"/>
 <path fill="rgb(255,211,32)" stroke="none" d="M 11578,9391 L 11678,9591 11778,9391 11578,9391 Z"/>
 <path fill="none" stroke="rgb(255,211,32)" stroke-linejoin="round" d="M 11578,9391 L 11678,9591 11778,9391 11578,9391 Z"/>
 <path fill="rgb(255,211,32)" stroke="none" d="M 11803,6912 L 11903,7112 12003,6912 11803,6912 Z"/>
 <path fill="none" stroke="rgb(255,211,32)" stroke-linejoin="round" d="M 11803,6912 L 11903,7112 12003,6912 11803,6912 Z"/>
 <path fill="rgb(255,211,32)" stroke="none" d="M 12027,8009 L 12127,8209 12227,8009 12027,8009 Z"/>
 <path fill="none" stroke="rgb(255,211,32)" stroke-linejoin="round" d="M 12027,8009 L 12127,8209 12227,8009 12027,8009 Z"/>
 <path fill="rgb(255,211,32)" stroke="none" d="M 12251,9099 L 12350,9299 12450,9099 12251,9099 Z"/>
 <path fill="none" stroke="rgb(255,211,32)" stroke-linejoin="round" d="M 12251,9099 L 12350,9299 12450,9099 12251,9099 Z"/>
 <path fill="rgb(255,211,32)" stroke="none" d="M 12475,9329 L 12575,9529 12675,9329 12475,9329 Z"/>
 <path fill="none" stroke="rgb(255,211,32)" stroke-linejoin="round" d="M 12475,9329 L 12575,9529 12675,9329 12475,9329 Z"/>
 <path fill="rgb(255,211,32)" stroke="none" d="M 12699,9288 L 12799,9488 12899,9288 12699,9288 Z"/>
 <path fill="none" stroke="rgb(255,211,32)" stroke-linejoin="round" d="M 12699,9288 L 12799,9488 12899,9288 12699,9288 Z"/>
 <path fill="rgb(255,211,32)" stroke="none" d="M 12924,8706 L 13024,8906 13124,8706 12924,8706 Z"/>
 <path fill="none" stroke="rgb(255,211,32)" stroke-linejoin="round" d="M 12924,8706 L 13024,8906 13124,8706 12924,8706 Z"/>
 <path fill="rgb(255,211,32)" stroke="none" d="M 13148,6612 L 13248,6812 13348,6612 13148,6612 Z"/>
 <path fill="none" stroke="rgb(255,211,32)" stroke-linejoin="round" d="M 13148,6612 L 13248,6812 13348,6612 13148,6612 Z"/>
 <path fill="rgb(255,211,32)" stroke="none" d="M 13372,8734 L 13471,8934 13571,8734 13372,8734 Z"/>
 <path fill="none" stroke="rgb(255,211,32)" stroke-linejoin="round" d="M 13372,8734 L 13471,8934 13571,8734 13372,8734 Z"/>
 <path fill="rgb(255,211,32)" stroke="none" d="M 13596,8709 L 13696,8909 13796,8709 13596,8709 Z"/>
 <path fill="none" stroke="rgb(255,211,32)" stroke-linejoin="round" d="M 13596,8709 L 13696,8909 13796,8709 13596,8709 Z"/>
 <path fill="rgb(255,211,32)" stroke="none" d="M 13820,9078 L 13920,9278 14020,9078 13820,9078 Z"/>
 <path fill="none" stroke="rgb(255,211,32)" stroke-linejoin="round" d="M 13820,9078 L 13920,9278 14020,9078 13820,9078 Z"/>
 <path fill="rgb(255,211,32)" stroke="none" d="M 14045,9843 L 14145,10043 14245,9843 14045,9843 Z"/>
 <path fill="none" stroke="rgb(255,211,32)" stroke-linejoin="round" d="M 14045,9843 L 14145,10043 14245,9843 14045,9843 Z"/>
 <path fill="rgb(255,211,32)" stroke="none" d="M 14269,9372 L 14369,9572 14468,9372 14269,9372 Z"/>
 <path fill="none" stroke="rgb(255,211,32)" stroke-linejoin="round" d="M 14269,9372 L 14369,9572 14468,9372 14269,9372 Z"/>
 <path fill="rgb(255,211,32)" stroke="none" d="M 14492,9421 L 14592,9621 14692,9421 14492,9421 Z"/>
 <path fill="none" stroke="rgb(255,211,32)" stroke-linejoin="round" d="M 14492,9421 L 14592,9621 14692,9421 14492,9421 Z"/>
 <path fill="none" stroke="rgb(87,157,28)" stroke-width="50" stroke-linejoin="round" d="M 1142,11163 L 1366,11163 1591,11163 1814,11154 2039,11157 2263,11160 2487,11151 2711,11154 2935,11142 3160,11151 3384,11111 3608,11084 3832,11081 4056,11041 4281,11016 4505,11056 4729,10759 4953,10869 5177,10652 5401,10566 5626,10587 5850,10401 6074,10630 6298,10039 6522,10097 6747,10110 6970,9711 7195,9858 7419,9246 7643,8737 7868,9172 8091,9325 8315,8890 8540,9074 8764,9138 8989,8198 9212,8443 9436,8850 9661,8679 9885,8602 10110,8939 10333,8838 10557,8820 10782,9080 11006,9558 11231,9218 11454,9316 11678,9506 11903,9298 12127,9420 12350,9270 12575,9846 12799,9433 13024,9322 13248,9396 13471,9558 13696,9405 13920,9690 14145,9840 14369,9776 14592,9531"/>
 <path fill="rgb(87,157,28)" stroke="none" d="M 1042,11263 L 1242,11263 1142,11063 1042,11263 Z"/>
 <path fill="none" stroke="rgb(87,157,28)" stroke-linejoin="round" d="M 1042,11263 L 1242,11263 1142,11063 1042,11263 Z"/>
 <path fill="rgb(87,157,28)" stroke="none" d="M 1266,11263 L 1466,11263 1366,11063 1266,11263 Z"/>
 <path fill="none" stroke="rgb(87,157,28)" stroke-linejoin="round" d="M 1266,11263 L 1466,11263 1366,11063 1266,11263 Z"/>
 <path fill="rgb(87,157,28)" stroke="none" d="M 1491,11263 L 1690,11263 1591,11063 1491,11263 Z"/>
 <path fill="none" stroke="rgb(87,157,28)" stroke-linejoin="round" d="M 1491,11263 L 1690,11263 1591,11063 1491,11263 Z"/>
 <path fill="rgb(87,157,28)" stroke="none" d="M 1714,11254 L 1914,11254 1814,11054 1714,11254 Z"/>
 <path fill="none" stroke="rgb(87,157,28)" stroke-linejoin="round" d="M 1714,11254 L 1914,11254 1814,11054 1714,11254 Z"/>
 <path fill="rgb(87,157,28)" stroke="none" d="M 1939,11257 L 2139,11257 2039,11057 1939,11257 Z"/>
 <path fill="none" stroke="rgb(87,157,28)" stroke-linejoin="round" d="M 1939,11257 L 2139,11257 2039,11057 1939,11257 Z"/>
 <path fill="rgb(87,157,28)" stroke="none" d="M 2163,11260 L 2363,11260 2263,11060 2163,11260 Z"/>
 <path fill="none" stroke="rgb(87,157,28)" stroke-linejoin="round" d="M 2163,11260 L 2363,11260 2263,11060 2163,11260 Z"/>
 <path fill="rgb(87,157,28)" stroke="none" d="M 2387,11251 L 2587,11251 2487,11051 2387,11251 Z"/>
 <path fill="none" stroke="rgb(87,157,28)" stroke-linejoin="round" d="M 2387,11251 L 2587,11251 2487,11051 2387,11251 Z"/>
 <path fill="rgb(87,157,28)" stroke="none" d="M 2612,11254 L 2811,11254 2711,11054 2612,11254 Z"/>
 <path fill="none" stroke="rgb(87,157,28)" stroke-linejoin="round" d="M 2612,11254 L 2811,11254 2711,11054 2612,11254 Z"/>
 <path fill="rgb(87,157,28)" stroke="none" d="M 2835,11242 L 3035,11242 2935,11042 2835,11242 Z"/>
 <path fill="none" stroke="rgb(87,157,28)" stroke-linejoin="round" d="M 2835,11242 L 3035,11242 2935,11042 2835,11242 Z"/>
 <path fill="rgb(87,157,28)" stroke="none" d="M 3060,11251 L 3260,11251 3160,11051 3060,11251 Z"/>
 <path fill="none" stroke="rgb(87,157,28)" stroke-linejoin="round" d="M 3060,11251 L 3260,11251 3160,11051 3060,11251 Z"/>
 <path fill="rgb(87,157,28)" stroke="none" d="M 3284,11211 L 3484,11211 3384,11011 3284,11211 Z"/>
 <path fill="none" stroke="rgb(87,157,28)" stroke-linejoin="round" d="M 3284,11211 L 3484,11211 3384,11011 3284,11211 Z"/>
 <path fill="rgb(87,157,28)" stroke="none" d="M 3508,11184 L 3708,11184 3608,10984 3508,11184 Z"/>
 <path fill="none" stroke="rgb(87,157,28)" stroke-linejoin="round" d="M 3508,11184 L 3708,11184 3608,10984 3508,11184 Z"/>
 <path fill="rgb(87,157,28)" stroke="none" d="M 3733,11181 L 3932,11181 3832,10981 3733,11181 Z"/>
 <path fill="none" stroke="rgb(87,157,28)" stroke-linejoin="round" d="M 3733,11181 L 3932,11181 3832,10981 3733,11181 Z"/>
 <path fill="rgb(87,157,28)" stroke="none" d="M 3956,11141 L 4156,11141 4056,10941 3956,11141 Z"/>
 <path fill="none" stroke="rgb(87,157,28)" stroke-linejoin="round" d="M 3956,11141 L 4156,11141 4056,10941 3956,11141 Z"/>
 <path fill="rgb(87,157,28)" stroke="none" d="M 4181,11116 L 4381,11116 4281,10916 4181,11116 Z"/>
 <path fill="none" stroke="rgb(87,157,28)" stroke-linejoin="round" d="M 4181,11116 L 4381,11116 4281,10916 4181,11116 Z"/>
 <path fill="rgb(87,157,28)" stroke="none" d="M 4405,11156 L 4605,11156 4505,10956 4405,11156 Z"/>
 <path fill="none" stroke="rgb(87,157,28)" stroke-linejoin="round" d="M 4405,11156 L 4605,11156 4505,10956 4405,11156 Z"/>
 <path fill="rgb(87,157,28)" stroke="none" d="M 4629,10859 L 4828,10859 4729,10659 4629,10859 Z"/>
 <path fill="none" stroke="rgb(87,157,28)" stroke-linejoin="round" d="M 4629,10859 L 4828,10859 4729,10659 4629,10859 Z"/>
 <path fill="rgb(87,157,28)" stroke="none" d="M 4853,10969 L 5053,10969 4953,10769 4853,10969 Z"/>
 <path fill="none" stroke="rgb(87,157,28)" stroke-linejoin="round" d="M 4853,10969 L 5053,10969 4953,10769 4853,10969 Z"/>
 <path fill="rgb(87,157,28)" stroke="none" d="M 5077,10752 L 5277,10752 5177,10552 5077,10752 Z"/>
 <path fill="none" stroke="rgb(87,157,28)" stroke-linejoin="round" d="M 5077,10752 L 5277,10752 5177,10552 5077,10752 Z"/>
 <path fill="rgb(87,157,28)" stroke="none" d="M 5301,10666 L 5501,10666 5401,10466 5301,10666 Z"/>
 <path fill="none" stroke="rgb(87,157,28)" stroke-linejoin="round" d="M 5301,10666 L 5501,10666 5401,10466 5301,10666 Z"/>
 <path fill="rgb(87,157,28)" stroke="none" d="M 5526,10687 L 5726,10687 5626,10487 5526,10687 Z"/>
 <path fill="none" stroke="rgb(87,157,28)" stroke-linejoin="round" d="M 5526,10687 L 5726,10687 5626,10487 5526,10687 Z"/>
 <path fill="rgb(87,157,28)" stroke="none" d="M 5750,10501 L 5949,10501 5850,10301 5750,10501 Z"/>
 <path fill="none" stroke="rgb(87,157,28)" stroke-linejoin="round" d="M 5750,10501 L 5949,10501 5850,10301 5750,10501 Z"/>
 <path fill="rgb(87,157,28)" stroke="none" d="M 5974,10730 L 6174,10730 6074,10530 5974,10730 Z"/>
 <path fill="none" stroke="rgb(87,157,28)" stroke-linejoin="round" d="M 5974,10730 L 6174,10730 6074,10530 5974,10730 Z"/>
 <path fill="rgb(87,157,28)" stroke="none" d="M 6198,10139 L 6398,10139 6298,9939 6198,10139 Z"/>
 <path fill="none" stroke="rgb(87,157,28)" stroke-linejoin="round" d="M 6198,10139 L 6398,10139 6298,9939 6198,10139 Z"/>
 <path fill="rgb(87,157,28)" stroke="none" d="M 6422,10197 L 6622,10197 6522,9997 6422,10197 Z"/>
 <path fill="none" stroke="rgb(87,157,28)" stroke-linejoin="round" d="M 6422,10197 L 6622,10197 6522,9997 6422,10197 Z"/>
 <path fill="rgb(87,157,28)" stroke="none" d="M 6647,10210 L 6847,10210 6747,10010 6647,10210 Z"/>
 <path fill="none" stroke="rgb(87,157,28)" stroke-linejoin="round" d="M 6647,10210 L 6847,10210 6747,10010 6647,10210 Z"/>
 <path fill="rgb(87,157,28)" stroke="none" d="M 6871,9811 L 7070,9811 6970,9611 6871,9811 Z"/>
 <path fill="none" stroke="rgb(87,157,28)" stroke-linejoin="round" d="M 6871,9811 L 7070,9811 6970,9611 6871,9811 Z"/>
 <path fill="rgb(87,157,28)" stroke="none" d="M 7095,9958 L 7295,9958 7195,9758 7095,9958 Z"/>
 <path fill="none" stroke="rgb(87,157,28)" stroke-linejoin="round" d="M 7095,9958 L 7295,9958 7195,9758 7095,9958 Z"/>
 <path fill="rgb(87,157,28)" stroke="none" d="M 7319,9346 L 7519,9346 7419,9146 7319,9346 Z"/>
 <path fill="none" stroke="rgb(87,157,28)" stroke-linejoin="round" d="M 7319,9346 L 7519,9346 7419,9146 7319,9346 Z"/>
 <path fill="rgb(87,157,28)" stroke="none" d="M 7543,8837 L 7743,8837 7643,8637 7543,8837 Z"/>
 <path fill="none" stroke="rgb(87,157,28)" stroke-linejoin="round" d="M 7543,8837 L 7743,8837 7643,8637 7543,8837 Z"/>
 <path fill="rgb(87,157,28)" stroke="none" d="M 7768,9272 L 7968,9272 7868,9072 7768,9272 Z"/>
 <path fill="none" stroke="rgb(87,157,28)" stroke-linejoin="round" d="M 7768,9272 L 7968,9272 7868,9072 7768,9272 Z"/>
 <path fill="rgb(87,157,28)" stroke="none" d="M 7992,9425 L 8191,9425 8091,9225 7992,9425 Z"/>
 <path fill="none" stroke="rgb(87,157,28)" stroke-linejoin="round" d="M 7992,9425 L 8191,9425 8091,9225 7992,9425 Z"/>
 <path fill="rgb(87,157,28)" stroke="none" d="M 8215,8990 L 8415,8990 8315,8790 8215,8990 Z"/>
 <path fill="none" stroke="rgb(87,157,28)" stroke-linejoin="round" d="M 8215,8990 L 8415,8990 8315,8790 8215,8990 Z"/>
 <path fill="rgb(87,157,28)" stroke="none" d="M 8440,9174 L 8640,9174 8540,8974 8440,9174 Z"/>
 <path fill="none" stroke="rgb(87,157,28)" stroke-linejoin="round" d="M 8440,9174 L 8640,9174 8540,8974 8440,9174 Z"/>
 <path fill="rgb(87,157,28)" stroke="none" d="M 8664,9238 L 8864,9238 8764,9038 8664,9238 Z"/>
 <path fill="none" stroke="rgb(87,157,28)" stroke-linejoin="round" d="M 8664,9238 L 8864,9238 8764,9038 8664,9238 Z"/>
 <path fill="rgb(87,157,28)" stroke="none" d="M 8889,8298 L 9089,8298 8989,8098 8889,8298 Z"/>
 <path fill="none" stroke="rgb(87,157,28)" stroke-linejoin="round" d="M 8889,8298 L 9089,8298 8989,8098 8889,8298 Z"/>
 <path fill="rgb(87,157,28)" stroke="none" d="M 9112,8543 L 9312,8543 9212,8343 9112,8543 Z"/>
 <path fill="none" stroke="rgb(87,157,28)" stroke-linejoin="round" d="M 9112,8543 L 9312,8543 9212,8343 9112,8543 Z"/>
 <path fill="rgb(87,157,28)" stroke="none" d="M 9336,8950 L 9536,8950 9436,8750 9336,8950 Z"/>
 <path fill="none" stroke="rgb(87,157,28)" stroke-linejoin="round" d="M 9336,8950 L 9536,8950 9436,8750 9336,8950 Z"/>
 <path fill="rgb(87,157,28)" stroke="none" d="M 9561,8779 L 9761,8779 9661,8579 9561,8779 Z"/>
 <path fill="none" stroke="rgb(87,157,28)" stroke-linejoin="round" d="M 9561,8779 L 9761,8779 9661,8579 9561,8779 Z"/>
 <path fill="rgb(87,157,28)" stroke="none" d="M 9785,8702 L 9985,8702 9885,8502 9785,8702 Z"/>
 <path fill="none" stroke="rgb(87,157,28)" stroke-linejoin="round" d="M 9785,8702 L 9985,8702 9885,8502 9785,8702 Z"/>
 <path fill="rgb(87,157,28)" stroke="none" d="M 10010,9039 L 10209,9039 10110,8839 10010,9039 Z"/>
 <path fill="none" stroke="rgb(87,157,28)" stroke-linejoin="round" d="M 10010,9039 L 10209,9039 10110,8839 10010,9039 Z"/>
 <path fill="rgb(87,157,28)" stroke="none" d="M 10233,8938 L 10433,8938 10333,8738 10233,8938 Z"/>
 <path fill="none" stroke="rgb(87,157,28)" stroke-linejoin="round" d="M 10233,8938 L 10433,8938 10333,8738 10233,8938 Z"/>
 <path fill="rgb(87,157,28)" stroke="none" d="M 10457,8920 L 10657,8920 10557,8720 10457,8920 Z"/>
 <path fill="none" stroke="rgb(87,157,28)" stroke-linejoin="round" d="M 10457,8920 L 10657,8920 10557,8720 10457,8920 Z"/>
 <path fill="rgb(87,157,28)" stroke="none" d="M 10682,9180 L 10882,9180 10782,8980 10682,9180 Z"/>
 <path fill="none" stroke="rgb(87,157,28)" stroke-linejoin="round" d="M 10682,9180 L 10882,9180 10782,8980 10682,9180 Z"/>
 <path fill="rgb(87,157,28)" stroke="none" d="M 10906,9658 L 11106,9658 11006,9458 10906,9658 Z"/>
 <path fill="none" stroke="rgb(87,157,28)" stroke-linejoin="round" d="M 10906,9658 L 11106,9658 11006,9458 10906,9658 Z"/>
 <path fill="rgb(87,157,28)" stroke="none" d="M 11131,9318 L 11330,9318 11231,9118 11131,9318 Z"/>
 <path fill="none" stroke="rgb(87,157,28)" stroke-linejoin="round" d="M 11131,9318 L 11330,9318 11231,9118 11131,9318 Z"/>
 <path fill="rgb(87,157,28)" stroke="none" d="M 11354,9416 L 11554,9416 11454,9216 11354,9416 Z"/>
 <path fill="none" stroke="rgb(87,157,28)" stroke-linejoin="round" d="M 11354,9416 L 11554,9416 11454,9216 11354,9416 Z"/>
 <path fill="rgb(87,157,28)" stroke="none" d="M 11578,9606 L 11778,9606 11678,9406 11578,9606 Z"/>
 <path fill="none" stroke="rgb(87,157,28)" stroke-linejoin="round" d="M 11578,9606 L 11778,9606 11678,9406 11578,9606 Z"/>
 <path fill="rgb(87,157,28)" stroke="none" d="M 11803,9398 L 12003,9398 11903,9198 11803,9398 Z"/>
 <path fill="none" stroke="rgb(87,157,28)" stroke-linejoin="round" d="M 11803,9398 L 12003,9398 11903,9198 11803,9398 Z"/>
 <path fill="rgb(87,157,28)" stroke="none" d="M 12027,9520 L 12227,9520 12127,9320 12027,9520 Z"/>
 <path fill="none" stroke="rgb(87,157,28)" stroke-linejoin="round" d="M 12027,9520 L 12227,9520 12127,9320 12027,9520 Z"/>
 <path fill="rgb(87,157,28)" stroke="none" d="M 12251,9370 L 12450,9370 12350,9170 12251,9370 Z"/>
 <path fill="none" stroke="rgb(87,157,28)" stroke-linejoin="round" d="M 12251,9370 L 12450,9370 12350,9170 12251,9370 Z"/>
 <path fill="rgb(87,157,28)" stroke="none" d="M 12475,9946 L 12675,9946 12575,9746 12475,9946 Z"/>
 <path fill="none" stroke="rgb(87,157,28)" stroke-linejoin="round" d="M 12475,9946 L 12675,9946 12575,9746 12475,9946 Z"/>
 <path fill="rgb(87,157,28)" stroke="none" d="M 12699,9533 L 12899,9533 12799,9333 12699,9533 Z"/>
 <path fill="none" stroke="rgb(87,157,28)" stroke-linejoin="round" d="M 12699,9533 L 12899,9533 12799,9333 12699,9533 Z"/>
 <path fill="rgb(87,157,28)" stroke="none" d="M 12924,9422 L 13124,9422 13024,9222 12924,9422 Z"/>
 <path fill="none" stroke="rgb(87,157,28)" stroke-linejoin="round" d="M 12924,9422 L 13124,9422 13024,9222 12924,9422 Z"/>
 <path fill="rgb(87,157,28)" stroke="none" d="M 13148,9496 L 13348,9496 13248,9296 13148,9496 Z"/>
 <path fill="none" stroke="rgb(87,157,28)" stroke-linejoin="round" d="M 13148,9496 L 13348,9496 13248,9296 13148,9496 Z"/>
 <path fill="rgb(87,157,28)" stroke="none" d="M 13372,9658 L 13571,9658 13471,9458 13372,9658 Z"/>
 <path fill="none" stroke="rgb(87,157,28)" stroke-linejoin="round" d="M 13372,9658 L 13571,9658 13471,9458 13372,9658 Z"/>
 <path fill="rgb(87,157,28)" stroke="none" d="M 13596,9505 L 13796,9505 13696,9305 13596,9505 Z"/>
 <path fill="none" stroke="rgb(87,157,28)" stroke-linejoin="round" d="M 13596,9505 L 13796,9505 13696,9305 13596,9505 Z"/>
 <path fill="rgb(87,157,28)" stroke="none" d="M 13820,9790 L 14020,9790 13920,9590 13820,9790 Z"/>
 <path fill="none" stroke="rgb(87,157,28)" stroke-linejoin="round" d="M 13820,9790 L 14020,9790 13920,9590 13820,9790 Z"/>
 <path fill="rgb(87,157,28)" stroke="none" d="M 14045,9940 L 14245,9940 14145,9740 14045,9940 Z"/>
 <path fill="none" stroke="rgb(87,157,28)" stroke-linejoin="round" d="M 14045,9940 L 14245,9940 14145,9740 14045,9940 Z"/>
 <path fill="rgb(87,157,28)" stroke="none" d="M 14269,9876 L 14468,9876 14369,9676 14269,9876 Z"/>
 <path fill="none" stroke="rgb(87,157,28)" stroke-linejoin="round" d="M 14269,9876 L 14468,9876 14369,9676 14269,9876 Z"/>
 <path fill="rgb(87,157,28)" stroke="none" d="M 14492,9631 L 14692,9631 14592,9431 14492,9631 Z"/>
 <path fill="none" stroke="rgb(87,157,28)" stroke-linejoin="round" d="M 14492,9631 L 14692,9631 14592,9431 14492,9631 Z"/>
 <path fill="none" stroke="rgb(126,0,33)" stroke-width="50" stroke-linejoin="round" d="M 4056,11163 L 4281,11163 4505,11167 4729,11163 4953,11160 5177,11163 5401,11160 5626,11167 5850,11160 6074,11128 6298,11118 6522,11097 6747,11111 6970,11055 7195,11023 7419,11051 7643,10971 7868,10999 8091,10978 8315,10863 8540,10622 8764,10534 8989,10258 9212,10437 9436,10538 9661,9836 9885,9200 10110,9179 10333,8778 10557,8694 10782,9005 11006,9626 11231,8421 11454,7890 11678,8089 11903,7744 12127,7964 12350,8592 12575,8662 12799,8449 13024,8509 13248,8159 13471,8208 13696,8055 13920,9095 14145,9598 14369,8275"/>
 <path fill="rgb(126,0,33)" stroke="none" d="M 3956,11063 L 3956,11263 4156,11163 3956,11063 Z"/>
 <path fill="none" stroke="rgb(126,0,33)" stroke-linejoin="round" d="M 3956,11063 L 3956,11263 4156,11163 3956,11063 Z"/>
 <path fill="rgb(126,0,33)" stroke="none" d="M 4181,11063 L 4181,11263 4381,11163 4181,11063 Z"/>
 <path fill="none" stroke="rgb(126,0,33)" stroke-linejoin="round" d="M 4181,11063 L 4181,11263 4381,11163 4181,11063 Z"/>
 <path fill="rgb(126,0,33)" stroke="none" d="M 4405,11067 L 4405,11267 4605,11167 4405,11067 Z"/>
 <path fill="none" stroke="rgb(126,0,33)" stroke-linejoin="round" d="M 4405,11067 L 4405,11267 4605,11167 4405,11067 Z"/>
 <path fill="rgb(126,0,33)" stroke="none" d="M 4629,11063 L 4629,11263 4828,11163 4629,11063 Z"/>
 <path fill="none" stroke="rgb(126,0,33)" stroke-linejoin="round" d="M 4629,11063 L 4629,11263 4828,11163 4629,11063 Z"/>
 <path fill="rgb(126,0,33)" stroke="none" d="M 4853,11060 L 4853,11260 5053,11160 4853,11060 Z"/>
 <path fill="none" stroke="rgb(126,0,33)" stroke-linejoin="round" d="M 4853,11060 L 4853,11260 5053,11160 4853,11060 Z"/>
 <path fill="rgb(126,0,33)" stroke="none" d="M 5077,11063 L 5077,11263 5277,11163 5077,11063 Z"/>
 <path fill="none" stroke="rgb(126,0,33)" stroke-linejoin="round" d="M 5077,11063 L 5077,11263 5277,11163 5077,11063 Z"/>
 <path fill="rgb(126,0,33)" stroke="none" d="M 5301,11060 L 5301,11260 5501,11160 5301,11060 Z"/>
 <path fill="none" stroke="rgb(126,0,33)" stroke-linejoin="round" d="M 5301,11060 L 5301,11260 5501,11160 5301,11060 Z"/>
 <path fill="rgb(126,0,33)" stroke="none" d="M 5526,11067 L 5526,11267 5726,11167 5526,11067 Z"/>
 <path fill="none" stroke="rgb(126,0,33)" stroke-linejoin="round" d="M 5526,11067 L 5526,11267 5726,11167 5526,11067 Z"/>
 <path fill="rgb(126,0,33)" stroke="none" d="M 5750,11060 L 5750,11260 5949,11160 5750,11060 Z"/>
 <path fill="none" stroke="rgb(126,0,33)" stroke-linejoin="round" d="M 5750,11060 L 5750,11260 5949,11160 5750,11060 Z"/>
 <path fill="rgb(126,0,33)" stroke="none" d="M 5974,11028 L 5974,11228 6174,11128 5974,11028 Z"/>
 <path fill="none" stroke="rgb(126,0,33)" stroke-linejoin="round" d="M 5974,11028 L 5974,11228 6174,11128 5974,11028 Z"/>
 <path fill="rgb(126,0,33)" stroke="none" d="M 6198,11018 L 6198,11218 6398,11118 6198,11018 Z"/>
 <path fill="none" stroke="rgb(126,0,33)" stroke-linejoin="round" d="M 6198,11018 L 6198,11218 6398,11118 6198,11018 Z"/>
 <path fill="rgb(126,0,33)" stroke="none" d="M 6422,10997 L 6422,11197 6622,11097 6422,10997 Z"/>
 <path fill="none" stroke="rgb(126,0,33)" stroke-linejoin="round" d="M 6422,10997 L 6422,11197 6622,11097 6422,10997 Z"/>
 <path fill="rgb(126,0,33)" stroke="none" d="M 6647,11011 L 6647,11211 6847,11111 6647,11011 Z"/>
 <path fill="none" stroke="rgb(126,0,33)" stroke-linejoin="round" d="M 6647,11011 L 6647,11211 6847,11111 6647,11011 Z"/>
 <path fill="rgb(126,0,33)" stroke="none" d="M 6871,10955 L 6871,11155 7070,11055 6871,10955 Z"/>
 <path fill="none" stroke="rgb(126,0,33)" stroke-linejoin="round" d="M 6871,10955 L 6871,11155 7070,11055 6871,10955 Z"/>
 <path fill="rgb(126,0,33)" stroke="none" d="M 7095,10923 L 7095,11123 7295,11023 7095,10923 Z"/>
 <path fill="none" stroke="rgb(126,0,33)" stroke-linejoin="round" d="M 7095,10923 L 7095,11123 7295,11023 7095,10923 Z"/>
 <path fill="rgb(126,0,33)" stroke="none" d="M 7319,10951 L 7319,11151 7519,11051 7319,10951 Z"/>
 <path fill="none" stroke="rgb(126,0,33)" stroke-linejoin="round" d="M 7319,10951 L 7319,11151 7519,11051 7319,10951 Z"/>
 <path fill="rgb(126,0,33)" stroke="none" d="M 7543,10871 L 7543,11071 7743,10971 7543,10871 Z"/>
 <path fill="none" stroke="rgb(126,0,33)" stroke-linejoin="round" d="M 7543,10871 L 7543,11071 7743,10971 7543,10871 Z"/>
 <path fill="rgb(126,0,33)" stroke="none" d="M 7768,10899 L 7768,11099 7968,10999 7768,10899 Z"/>
 <path fill="none" stroke="rgb(126,0,33)" stroke-linejoin="round" d="M 7768,10899 L 7768,11099 7968,10999 7768,10899 Z"/>
 <path fill="rgb(126,0,33)" stroke="none" d="M 7992,10878 L 7992,11078 8191,10978 7992,10878 Z"/>
 <path fill="none" stroke="rgb(126,0,33)" stroke-linejoin="round" d="M 7992,10878 L 7992,11078 8191,10978 7992,10878 Z"/>
 <path fill="rgb(126,0,33)" stroke="none" d="M 8215,10763 L 8215,10963 8415,10863 8215,10763 Z"/>
 <path fill="none" stroke="rgb(126,0,33)" stroke-linejoin="round" d="M 8215,10763 L 8215,10963 8415,10863 8215,10763 Z"/>
 <path fill="rgb(126,0,33)" stroke="none" d="M 8440,10522 L 8440,10722 8640,10622 8440,10522 Z"/>
 <path fill="none" stroke="rgb(126,0,33)" stroke-linejoin="round" d="M 8440,10522 L 8440,10722 8640,10622 8440,10522 Z"/>
 <path fill="rgb(126,0,33)" stroke="none" d="M 8664,10434 L 8664,10634 8864,10534 8664,10434 Z"/>
 <path fill="none" stroke="rgb(126,0,33)" stroke-linejoin="round" d="M 8664,10434 L 8664,10634 8864,10534 8664,10434 Z"/>
 <path fill="rgb(126,0,33)" stroke="none" d="M 8889,10158 L 8889,10358 9089,10258 8889,10158 Z"/>
 <path fill="none" stroke="rgb(126,0,33)" stroke-linejoin="round" d="M 8889,10158 L 8889,10358 9089,10258 8889,10158 Z"/>
 <path fill="rgb(126,0,33)" stroke="none" d="M 9112,10337 L 9112,10537 9312,10437 9112,10337 Z"/>
 <path fill="none" stroke="rgb(126,0,33)" stroke-linejoin="round" d="M 9112,10337 L 9112,10537 9312,10437 9112,10337 Z"/>
 <path fill="rgb(126,0,33)" stroke="none" d="M 9336,10438 L 9336,10638 9536,10538 9336,10438 Z"/>
 <path fill="none" stroke="rgb(126,0,33)" stroke-linejoin="round" d="M 9336,10438 L 9336,10638 9536,10538 9336,10438 Z"/>
 <path fill="rgb(126,0,33)" stroke="none" d="M 9561,9736 L 9561,9936 9761,9836 9561,9736 Z"/>
 <path fill="none" stroke="rgb(126,0,33)" stroke-linejoin="round" d="M 9561,9736 L 9561,9936 9761,9836 9561,9736 Z"/>
 <path fill="rgb(126,0,33)" stroke="none" d="M 9785,9100 L 9785,9300 9985,9200 9785,9100 Z"/>
 <path fill="none" stroke="rgb(126,0,33)" stroke-linejoin="round" d="M 9785,9100 L 9785,9300 9985,9200 9785,9100 Z"/>
 <path fill="rgb(126,0,33)" stroke="none" d="M 10010,9079 L 10010,9279 10209,9179 10010,9079 Z"/>
 <path fill="none" stroke="rgb(126,0,33)" stroke-linejoin="round" d="M 10010,9079 L 10010,9279 10209,9179 10010,9079 Z"/>
 <path fill="rgb(126,0,33)" stroke="none" d="M 10233,8678 L 10233,8878 10433,8778 10233,8678 Z"/>
 <path fill="none" stroke="rgb(126,0,33)" stroke-linejoin="round" d="M 10233,8678 L 10233,8878 10433,8778 10233,8678 Z"/>
 <path fill="rgb(126,0,33)" stroke="none" d="M 10457,8594 L 10457,8794 10657,8694 10457,8594 Z"/>
 <path fill="none" stroke="rgb(126,0,33)" stroke-linejoin="round" d="M 10457,8594 L 10457,8794 10657,8694 10457,8594 Z"/>
 <path fill="rgb(126,0,33)" stroke="none" d="M 10682,8905 L 10682,9105 10882,9005 10682,8905 Z"/>
 <path fill="none" stroke="rgb(126,0,33)" stroke-linejoin="round" d="M 10682,8905 L 10682,9105 10882,9005 10682,8905 Z"/>
 <path fill="rgb(126,0,33)" stroke="none" d="M 10906,9526 L 10906,9726 11106,9626 10906,9526 Z"/>
 <path fill="none" stroke="rgb(126,0,33)" stroke-linejoin="round" d="M 10906,9526 L 10906,9726 11106,9626 10906,9526 Z"/>
 <path fill="rgb(126,0,33)" stroke="none" d="M 11131,8321 L 11131,8521 11330,8421 11131,8321 Z"/>
 <path fill="none" stroke="rgb(126,0,33)" stroke-linejoin="round" d="M 11131,8321 L 11131,8521 11330,8421 11131,8321 Z"/>
 <path fill="rgb(126,0,33)" stroke="none" d="M 11354,7790 L 11354,7990 11554,7890 11354,7790 Z"/>
 <path fill="none" stroke="rgb(126,0,33)" stroke-linejoin="round" d="M 11354,7790 L 11354,7990 11554,7890 11354,7790 Z"/>
 <path fill="rgb(126,0,33)" stroke="none" d="M 11578,7989 L 11578,8189 11778,8089 11578,7989 Z"/>
 <path fill="none" stroke="rgb(126,0,33)" stroke-linejoin="round" d="M 11578,7989 L 11578,8189 11778,8089 11578,7989 Z"/>
 <path fill="rgb(126,0,33)" stroke="none" d="M 11803,7644 L 11803,7844 12003,7744 11803,7644 Z"/>
 <path fill="none" stroke="rgb(126,0,33)" stroke-linejoin="round" d="M 11803,7644 L 11803,7844 12003,7744 11803,7644 Z"/>
 <path fill="rgb(126,0,33)" stroke="none" d="M 12027,7864 L 12027,8064 12227,7964 12027,7864 Z"/>
 <path fill="none" stroke="rgb(126,0,33)" stroke-linejoin="round" d="M 12027,7864 L 12027,8064 12227,7964 12027,7864 Z"/>
 <path fill="rgb(126,0,33)" stroke="none" d="M 12251,8492 L 12251,8692 12450,8592 12251,8492 Z"/>
 <path fill="none" stroke="rgb(126,0,33)" stroke-linejoin="round" d="M 12251,8492 L 12251,8692 12450,8592 12251,8492 Z"/>
 <path fill="rgb(126,0,33)" stroke="none" d="M 12475,8562 L 12475,8762 12675,8662 12475,8562 Z"/>
 <path fill="none" stroke="rgb(126,0,33)" stroke-linejoin="round" d="M 12475,8562 L 12475,8762 12675,8662 12475,8562 Z"/>
 <path fill="rgb(126,0,33)" stroke="none" d="M 12699,8349 L 12699,8549 12899,8449 12699,8349 Z"/>
 <path fill="none" stroke="rgb(126,0,33)" stroke-linejoin="round" d="M 12699,8349 L 12699,8549 12899,8449 12699,8349 Z"/>
 <path fill="rgb(126,0,33)" stroke="none" d="M 12924,8409 L 12924,8609 13124,8509 12924,8409 Z"/>
 <path fill="none" stroke="rgb(126,0,33)" stroke-linejoin="round" d="M 12924,8409 L 12924,8609 13124,8509 12924,8409 Z"/>
 <path fill="rgb(126,0,33)" stroke="none" d="M 13148,8059 L 13148,8259 13348,8159 13148,8059 Z"/>
 <path fill="none" stroke="rgb(126,0,33)" stroke-linejoin="round" d="M 13148,8059 L 13148,8259 13348,8159 13148,8059 Z"/>
 <path fill="rgb(126,0,33)" stroke="none" d="M 13372,8108 L 13372,8308 13571,8208 13372,8108 Z"/>
 <path fill="none" stroke="rgb(126,0,33)" stroke-linejoin="round" d="M 13372,8108 L 13372,8308 13571,8208 13372,8108 Z"/>
 <path fill="rgb(126,0,33)" stroke="none" d="M 13596,7955 L 13596,8155 13796,8055 13596,7955 Z"/>
 <path fill="none" stroke="rgb(126,0,33)" stroke-linejoin="round" d="M 13596,7955 L 13596,8155 13796,8055 13596,7955 Z"/>
 <path fill="rgb(126,0,33)" stroke="none" d="M 13820,8995 L 13820,9195 14020,9095 13820,8995 Z"/>
 <path fill="none" stroke="rgb(126,0,33)" stroke-linejoin="round" d="M 13820,8995 L 13820,9195 14020,9095 13820,8995 Z"/>
 <path fill="rgb(126,0,33)" stroke="none" d="M 14045,9498 L 14045,9698 14245,9598 14045,9498 Z"/>
 <path fill="none" stroke="rgb(126,0,33)" stroke-linejoin="round" d="M 14045,9498 L 14045,9698 14245,9598 14045,9498 Z"/>
 <path fill="rgb(126,0,33)" stroke="none" d="M 14269,8175 L 14269,8375 14468,8275 14269,8175 Z"/>
 <path fill="none" stroke="rgb(126,0,33)" stroke-linejoin="round" d="M 14269,8175 L 14269,8375 14468,8275 14269,8175 Z"/>
 <text class="TextShape"><tspan class="TextParagraph" font-family="Liberation Sans, sans-serif" font-size="353px" font-weight="400"><tspan class="TextPosition" x="495" y="11735"><tspan fill="rgb(0,0,0)" stroke="none">20/02</tspan></tspan></tspan></text>
 <text class="TextShape"><tspan class="TextParagraph" font-family="Liberation Sans, sans-serif" font-size="353px" font-weight="400"><tspan class="TextPosition" x="2064" y="11735"><tspan fill="rgb(0,0,0)" stroke="none">27/02</tspan></tspan></tspan></text>
 <text class="TextShape"><tspan class="TextParagraph" font-family="Liberation Sans, sans-serif" font-size="353px" font-weight="400"><tspan class="TextPosition" x="3633" y="11735"><tspan fill="rgb(0,0,0)" stroke="none">05/03</tspan></tspan></tspan></text>
 <text class="TextShape"><tspan class="TextParagraph" font-family="Liberation Sans, sans-serif" font-size="353px" font-weight="400"><tspan class="TextPosition" x="5203" y="11735"><tspan fill="rgb(0,0,0)" stroke="none">12/03</tspan></tspan></tspan></text>
 <text class="TextShape"><tspan class="TextParagraph" font-family="Liberation Sans, sans-serif" font-size="353px" font-weight="400"><tspan class="TextPosition" x="6772" y="11735"><tspan fill="rgb(0,0,0)" stroke="none">19/03</tspan></tspan></tspan></text>
 <text class="TextShape"><tspan class="TextParagraph" font-family="Liberation Sans, sans-serif" font-size="353px" font-weight="400"><tspan class="TextPosition" x="8341" y="11735"><tspan fill="rgb(0,0,0)" stroke="none">26/03</tspan></tspan></tspan></text>
 <text class="TextShape"><tspan class="TextParagraph" font-family="Liberation Sans, sans-serif" font-size="353px" font-weight="400"><tspan class="TextPosition" x="9910" y="11735"><tspan fill="rgb(0,0,0)" stroke="none">02/04</tspan></tspan></tspan></text>
 <text class="TextShape"><tspan class="TextParagraph" font-family="Liberation Sans, sans-serif" font-size="353px" font-weight="400"><tspan class="TextPosition" x="11480" y="11735"><tspan fill="rgb(0,0,0)" stroke="none">09/04</tspan></tspan></tspan></text>
 <text class="TextShape"><tspan class="TextParagraph" font-family="Liberation Sans, sans-serif" font-size="353px" font-weight="400"><tspan class="TextPosition" x="13048" y="11735"><tspan fill="rgb(0,0,0)" stroke="none">16/04</tspan></tspan></tspan></text>
 <text class="TextShape"><tspan class="TextParagraph" font-family="Liberation Sans, sans-serif" font-size="353px" font-weight="400"><tspan class="TextPosition" x="187" y="9633"><tspan fill="rgb(0,0,0)" stroke="none">40</tspan></tspan></tspan></text>
 <text class="TextShape"><tspan class="TextParagraph" font-family="Liberation Sans, sans-serif" font-size="353px" font-weight="400"><tspan class="TextPosition" x="187" y="7979"><tspan fill="rgb(0,0,0)" stroke="none">80</tspan></tspan></tspan></text>
 <text class="TextShape"><tspan class="TextParagraph" font-family="Liberation Sans, sans-serif" font-size="353px" font-weight="400"><tspan class="TextPosition" x="1" y="6324"><tspan fill="rgb(0,0,0)" stroke="none">120</tspan></tspan></tspan></text>
 <text class="TextShape"><tspan class="TextParagraph" font-family="Liberation Sans, sans-serif" font-size="353px" font-weight="400"><tspan class="TextPosition" x="1" y="4670"><tspan fill="rgb(0,0,0)" stroke="none">160</tspan></tspan></tspan></text>
 <text class="TextShape"><tspan class="TextParagraph" font-family="Liberation Sans, sans-serif" font-size="353px" font-weight="400"><tspan class="TextPosition" x="1" y="3015"><tspan fill="rgb(0,0,0)" stroke="none">200</tspan></tspan></tspan></text>
 <text class="TextShape"><tspan class="TextParagraph" font-family="Liberation Sans, sans-serif" font-size="353px" font-weight="400"><tspan class="TextPosition" x="1" y="1361"><tspan fill="rgb(0,0,0)" stroke="none">240</tspan></tspan></tspan></text>
 <text class="TextShape"><tspan class="TextParagraph" font-family="Liberation Sans, sans-serif" font-size="423px" font-weight="400"><tspan class="TextPosition" x="2241" y="585"><tspan fill="rgb(0,0,0)" stroke="none">Covid-19. Muertes diarias por milln de mayores de 65 aos</tspan></tspan></tspan><tspan class="TextParagraph" font-family="Liberation Sans, sans-serif" font-size="423px" font-weight="400"><tspan class="TextPosition" x="2241" y="1035"><tspan fill="rgb(0,0,0)" stroke="none">en Europa Occidental (1)</tspan></tspan></tspan></text>
 <path fill="none" stroke="rgb(0,69,134)" stroke-width="50" stroke-linejoin="round" d="M 7639,2470 L 8438,2470"/>
 <path fill="rgb(0,69,134)" stroke="none" d="M 7933,2365 L 7933,2576 8143,2576 8143,2365 7933,2365 Z"/>
 <path fill="none" stroke="rgb(0,69,134)" stroke-linejoin="round" d="M 7933,2365 L 7933,2576 8143,2576 8143,2365 7933,2365 Z"/>
 <path fill="none" stroke="rgb(255,66,14)" stroke-width="50" stroke-linejoin="round" d="M 7639,3319 L 8438,3319"/>
 <path fill="rgb(255,66,14)" stroke="none" d="M 7933,3319 L 8038,3425 8143,3319 8038,3214 7933,3319 Z"/>
 <path fill="none" stroke="rgb(255,66,14)" stroke-linejoin="round" d="M 7933,3319 L 8038,3425 8143,3319 8038,3214 7933,3319 Z"/>
 <path fill="none" stroke="rgb(255,211,32)" stroke-width="50" stroke-linejoin="round" d="M 7639,4168 L 8438,4168"/>
 <path fill="rgb(255,211,32)" stroke="none" d="M 7933,4063 L 8038,4274 8143,4063 7933,4063 Z"/>
 <path fill="none" stroke="rgb(255,211,32)" stroke-linejoin="round" d="M 7933,4063 L 8038,4274 8143,4063 7933,4063 Z"/>
 <path fill="none" stroke="rgb(87,157,28)" stroke-width="50" stroke-linejoin="round" d="M 7639,5017 L 8438,5017"/>
 <path fill="rgb(87,157,28)" stroke="none" d="M 7933,5123 L 8143,5123 8038,4912 7933,5123 Z"/>
 <path fill="none" stroke="rgb(87,157,28)" stroke-linejoin="round" d="M 7933,5123 L 8143,5123 8038,4912 7933,5123 Z"/>
 <path fill="none" stroke="rgb(126,0,33)" stroke-width="50" stroke-linejoin="round" d="M 7639,5866 L 8438,5866"/>
 <path fill="rgb(126,0,33)" stroke="none" d="M 7933,5761 L 7933,5972 8143,5866 7933,5761 Z"/>
 <path fill="none" stroke="rgb(126,0,33)" stroke-linejoin="round" d="M 7933,5761 L 7933,5972 8143,5866 7933,5761 Z"/>
 <text class="TextShape"><tspan class="TextParagraph" font-family="Liberation Sans, sans-serif" font-size="353px" font-weight="400"><tspan class="TextPosition" x="8538" y="2590"><tspan fill="rgb(0,0,0)" stroke="none">Blgica</tspan></tspan></tspan></text>
 <text class="TextShape"><tspan class="TextParagraph" font-family="Liberation Sans, sans-serif" font-size="353px" font-weight="400"><tspan class="TextPosition" x="8538" y="3439"><tspan fill="rgb(0,0,0)" stroke="none">Espaa</tspan></tspan></tspan></text>
 <text class="TextShape"><tspan class="TextParagraph" font-family="Liberation Sans, sans-serif" font-size="353px" font-weight="400"><tspan class="TextPosition" x="8538" y="4288"><tspan fill="rgb(0,0,0)" stroke="none">Francia</tspan></tspan></tspan></text>
 <text class="TextShape"><tspan class="TextParagraph" font-family="Liberation Sans, sans-serif" font-size="353px" font-weight="400"><tspan class="TextPosition" x="8538" y="5137"><tspan fill="rgb(0,0,0)" stroke="none">Italia</tspan></tspan></tspan></text>
 <text class="TextShape"><tspan class="TextParagraph" font-family="Liberation Sans, sans-serif" font-size="353px" font-weight="400"><tspan class="TextPosition" x="8538" y="5986"><tspan fill="rgb(0,0,0)" stroke="none">Reino Unido</tspan></tspan></tspan></text>
</svg>