<?xml version="1.0" encoding="UTF-8"?>
<!DOCTYPE svg PUBLIC "-//W3C//DTD SVG 1.1//EN" "http://www.w3.org/Graphics/SVG/1.1/DTD/svg11.dtd">
<svg width="180mm" height="120mm" viewBox="0 0 18000 12000" version="1.1" xmlns="http://www.w3.org/2000/svg" xmlns:xlink="http://www.w3.org/1999/xlink" stroke-width="28.222" stroke-linejoin="round" xml:space="preserve">
 <path fill="rgb(255,255,255)" stroke="none" d="M 9000,12000 L 0,12000 0,0 18000,0 18000,12000 9000,12000 Z"/>
 <path fill="none" stroke="rgb(178,178,178)" stroke-width="50" stroke-linejoin="round" d="M 8238,11323 L 1279,11323 1279,932 15196,932 15196,11323 8238,11323 Z"/>
 <path fill="none" stroke="rgb(0,0,0)" stroke-linejoin="round" d="M 15195,11322 L 1278,11322"/>
 <path fill="none" stroke="rgb(0,0,0)" stroke-linejoin="round" d="M 15195,10282 L 1278,10282"/>
 <path fill="none" stroke="rgb(0,0,0)" stroke-linejoin="round" d="M 15195,9243 L 1278,9243"/>
 <path fill="none" stroke="rgb(0,0,0)" stroke-linejoin="round" d="M 15195,8204 L 1278,8204"/>
 <path fill="none" stroke="rgb(0,0,0)" stroke-linejoin="round" d="M 15195,7165 L 1278,7165"/>
 <path fill="none" stroke="rgb(0,0,0)" stroke-linejoin="round" d="M 15195,6126 L 1278,6126"/>
 <path fill="none" stroke="rgb(0,0,0)" stroke-linejoin="round" d="M 15195,5087 L 1278,5087"/>
 <path fill="none" stroke="rgb(0,0,0)" stroke-linejoin="round" d="M 15195,4048 L 1278,4048"/>
 <path fill="none" stroke="rgb(0,0,0)" stroke-linejoin="round" d="M 15195,3009 L 1278,3009"/>
 <path fill="none" stroke="rgb(0,0,0)" stroke-linejoin="round" d="M 15195,1970 L 1278,1970"/>
 <path fill="none" stroke="rgb(0,0,0)" stroke-linejoin="round" d="M 15195,931 L 1278,931"/>
 <path fill="none" stroke="rgb(179,179,179)" stroke-linejoin="round" d="M 1278,11472 L 1278,11322"/>
 <path fill="none" stroke="rgb(179,179,179)" stroke-linejoin="round" d="M 1278,11472 L 1278,11322"/>
 <path fill="none" stroke="rgb(179,179,179)" stroke-linejoin="round" d="M 3469,11472 L 3469,11322"/>
 <path fill="none" stroke="rgb(179,179,179)" stroke-linejoin="round" d="M 3469,11472 L 3469,11322"/>
 <path fill="none" stroke="rgb(179,179,179)" stroke-linejoin="round" d="M 5659,11472 L 5659,11322"/>
 <path fill="none" stroke="rgb(179,179,179)" stroke-linejoin="round" d="M 5659,11472 L 5659,11322"/>
 <path fill="none" stroke="rgb(179,179,179)" stroke-linejoin="round" d="M 7778,11472 L 7778,11322"/>
 <path fill="none" stroke="rgb(179,179,179)" stroke-linejoin="round" d="M 7778,11472 L 7778,11322"/>
 <path fill="none" stroke="rgb(179,179,179)" stroke-linejoin="round" d="M 9967,11472 L 9967,11322"/>
 <path fill="none" stroke="rgb(179,179,179)" stroke-linejoin="round" d="M 9967,11472 L 9967,11322"/>
 <path fill="none" stroke="rgb(179,179,179)" stroke-linejoin="round" d="M 12087,11472 L 12087,11322"/>
 <path fill="none" stroke="rgb(179,179,179)" stroke-linejoin="round" d="M 12087,11472 L 12087,11322"/>
 <path fill="none" stroke="rgb(179,179,179)" stroke-linejoin="round" d="M 14277,11472 L 14277,11322"/>
 <path fill="none" stroke="rgb(179,179,179)" stroke-linejoin="round" d="M 14277,11472 L 14277,11322"/>
 <path fill="none" stroke="rgb(179,179,179)" stroke-linejoin="round" d="M 1278,11322 L 15195,11322"/>
 <path fill="none" stroke="rgb(0,0,0)" stroke-linejoin="round" d="M 1128,11322 L 1278,11322"/>
 <path fill="none" stroke="rgb(0,0,0)" stroke-linejoin="round" d="M 1128,11322 L 1278,11322"/>
 <path fill="none" stroke="rgb(0,0,0)" stroke-linejoin="round" d="M 1128,10282 L 1278,10282"/>
 <path fill="none" stroke="rgb(0,0,0)" stroke-linejoin="round" d="M 1128,10282 L 1278,10282"/>
 <path fill="none" stroke="rgb(0,0,0)" stroke-linejoin="round" d="M 1128,9243 L 1278,9243"/>
 <path fill="none" stroke="rgb(0,0,0)" stroke-linejoin="round" d="M 1128,9243 L 1278,9243"/>
 <path fill="none" stroke="rgb(0,0,0)" stroke-linejoin="round" d="M 1128,8204 L 1278,8204"/>
 <path fill="none" stroke="rgb(0,0,0)" stroke-linejoin="round" d="M 1128,8204 L 1278,8204"/>
 <path fill="none" stroke="rgb(0,0,0)" stroke-linejoin="round" d="M 1128,7165 L 1278,7165"/>
 <path fill="none" stroke="rgb(0,0,0)" stroke-linejoin="round" d="M 1128,7165 L 1278,7165"/>
 <path fill="none" stroke="rgb(0,0,0)" stroke-linejoin="round" d="M 1128,6126 L 1278,6126"/>
 <path fill="none" stroke="rgb(0,0,0)" stroke-linejoin="round" d="M 1128,6126 L 1278,6126"/>
 <path fill="none" stroke="rgb(0,0,0)" stroke-linejoin="round" d="M 1128,5087 L 1278,5087"/>
 <path fill="none" stroke="rgb(0,0,0)" stroke-linejoin="round" d="M 1128,5087 L 1278,5087"/>
 <path fill="none" stroke="rgb(0,0,0)" stroke-linejoin="round" d="M 1128,4048 L 1278,4048"/>
 <path fill="none" stroke="rgb(0,0,0)" stroke-linejoin="round" d="M 1128,4048 L 1278,4048"/>
 <path fill="none" stroke="rgb(0,0,0)" stroke-linejoin="round" d="M 1128,3009 L 1278,3009"/>
 <path fill="none" stroke="rgb(0,0,0)" stroke-linejoin="round" d="M 1128,3009 L 1278,3009"/>
 <path fill="none" stroke="rgb(0,0,0)" stroke-linejoin="round" d="M 1128,1970 L 1278,1970"/>
 <path fill="none" stroke="rgb(0,0,0)" stroke-linejoin="round" d="M 1128,1970 L 1278,1970"/>
 <path fill="none" stroke="rgb(0,0,0)" stroke-linejoin="round" d="M 1128,931 L 1278,931"/>
 <path fill="none" stroke="rgb(0,0,0)" stroke-linejoin="round" d="M 1128,931 L 1278,931"/>
 <path fill="none" stroke="rgb(0,0,0)" stroke-linejoin="round" d="M 1278,11322 L 1278,931"/>
 <path fill="rgb(255,166,166)" stroke="none" d="M 1278,11322 L 1349,8724 1420,11322 1490,11322 1561,11322 1632,11322 1702,11322 1773,11322 1844,10522 1914,11322 1985,931 2056,11322 2126,11322 2197,11322 2268,10647 2338,11322 2409,11322 2480,10522 2550,11322 2621,11322 2691,11322 2762,8813 2833,10023 2903,11240 2974,11322 3045,9659 3115,11322 3186,11322 3257,9488 3327,10322 3398,10437 3469,10906 3539,8550 3610,11322 3681,11322 3751,9694 3822,10067 3893,9837 3963,10542 4034,10926 4104,11322 4175,11322 4246,9095 4316,10256 4387,9878 4458,8980 4528,9806 4599,11322 4670,11322 4740,9264 4811,9923 4882,10582 4952,9718 5023,10629 5094,11322 5164,11322 5235,9590 5306,10804 5376,10362 5447,11322 5517,8587 5588,11322 5659,11322 5729,9231 5800,10042 5871,10030 5941,10294 6012,9298 6083,11322 6153,11322 6224,9976 6295,9410 6365,10228 6436,9342 6507,10718 6577,11322 6648,11322 6719,9137 6789,11322 6860,9681 6930,10431 7001,9964 7072,11322 7142,11322 7213,9262 7284,9462 7354,10922 7425,11254 7496,7408 7566,11322 7637,11322 7708,9683 7778,9142 7849,9342 7920,9519 7990,9669 8061,11322 8132,11322 8202,8580 8273,9924 8343,10939 8414,10446 8485,8746 8555,11322 8626,11322 8697,9211 8767,9046 8838,9475 8909,9337 8979,9634 9049,11322 9120,11322 9190,8981 9261,9171 9332,9249 9402,9342 9473,9579 9544,11322 9614,11322 9685,9170 9755,9541 9826,9491 9897,9718 9967,9165 10038,11322 10109,11322 10179,8341 10250,9417 10321,8086 10391,8580 10462,9136 10533,11322 10603,11322 10674,9449 10745,11322 10815,9371 10886,9563 10957,10134 11027,11322 11098,11322 11168,9772 11239,10009 11310,9989 11380,9886 11451,8392 11522,11322 11592,11322 11663,7650 11734,10003 11804,9103 11875,8187 11946,11322 12016,11322 12087,11322 12158,8462 12228,9665 12299,10606 12370,9707 12440,11322 12511,11322 12581,11322 12652,10330 12723,10111 12793,11322 12864,10346 12935,9180 13005,11322 13076,11322 13147,9300 13217,10379 13288,9456 13359,9822 13429,9553 13500,11322 13571,11322 13641,9905 13712,9572 13783,9888 13853,9881 13924,10023 13994,11322 14065,11322 14136,9221 14206,9880 14277,9547 14348,9667 14418,9559 14489,11322 14560,11322 14630,9549 14701,9872 14772,9666 14842,9638 14913,9435 14984,11322 15054,11322 15125,9264 15195,9612 15195,11322 1278,11322 Z"/>
 <path fill="none" stroke="rgb(0,0,0)" stroke-width="50" stroke-linejoin="round" d="M 1278,11322 L 1349,8724 1420,11322 1490,11322 1561,11322 1632,11322 1702,11322 1773,11322 1844,10522 1914,11322 1985,931 2056,11322 2126,11322 2197,11322 2268,10647 2338,11322 2409,11322 2480,10522 2550,11322 2621,11322 2691,11322 2762,8813 2833,10023 2903,11240 2974,11322 3045,9659 3115,11322 3186,11322 3257,9488 3327,10322 3398,10437 3469,10906 3539,8550 3610,11322 3681,11322 3751,9694 3822,10067 3893,9837 3963,10542 4034,10926 4104,11322 4175,11322 4246,9095 4316,10256 4387,9878 4458,8980 4528,9806 4599,11322 4670,11322 4740,9264 4811,9923 4882,10582 4952,9718 5023,10629 5094,11322 5164,11322 5235,9590 5306,10804 5376,10362 5447,11322 5517,8587 5588,11322 5659,11322 5729,9231 5800,10042 5871,10030 5941,10294 6012,9298 6083,11322 6153,11322 6224,9976 6295,9410 6365,10228 6436,9342 6507,10718 6577,11322 6648,11322 6719,9137 6789,11322 6860,9681 6930,10431 7001,9964 7072,11322 7142,11322 7213,9262 7284,9462 7354,10922 7425,11254 7496,7408 7566,11322 7637,11322 7708,9683 7778,9142 7849,9342 7920,9519 7990,9669 8061,11322 8132,11322 8202,8580 8273,9924 8343,10939 8414,10446 8485,8746 8555,11322 8626,11322 8697,9211 8767,9046 8838,9475 8909,9337 8979,9634 9049,11322 9120,11322 9190,8981 9261,9171 9332,9249 9402,9342 9473,9579 9544,11322 9614,11322 9685,9170 9755,9541 9826,9491 9897,9718 9967,9165 10038,11322 10109,11322 10179,8341 10250,9417 10321,8086 10391,8580 10462,9136 10533,11322 10603,11322 10674,9449 10745,11322 10815,9371 10886,9563 10957,10134 11027,11322 11098,11322 11168,9772 11239,10009 11310,9989 11380,9886 11451,8392 11522,11322 11592,11322 11663,7650 11734,10003 11804,9103 11875,8187 11946,11322 12016,11322 12087,11322 12158,8462 12228,9665 12299,10606 12370,9707 12440,11322 12511,11322 12581,11322 12652,10330 12723,10111 12793,11322 12864,10346 12935,9180 13005,11322 13076,11322 13147,9300 13217,10379 13288,9456 13359,9822 13429,9553 13500,11322 13571,11322 13641,9905 13712,9572 13783,9888 13853,9881 13924,10023 13994,11322 14065,11322 14136,9221 14206,9880 14277,9547 14348,9667 14418,9559 14489,11322 14560,11322 14630,9549 14701,9872 14772,9666 14842,9638 14913,9435 14984,11322 15054,11322 15125,9264 15195,9612 15195,11322 1278,11322 Z"/>
 <path fill="rgb(255,255,215)" stroke="none" d="M 1278,6126 L 1349,8724 1420,9243 1490,11322 1561,6126 1632,11322 1702,11322 1773,11322 1844,8923 1914,11322 1985,931 2056,7858 2126,11322 2197,11322 2268,9837 2338,11322 2409,11322 2480,7724 2550,2663 2621,11322 2691,11322 2762,6305 2833,3529 2903,10012 2974,6703 3045,5087 3115,11322 3186,11322 3257,6737 3327,3529 3398,7784 3469,7580 3539,5780 3610,11322 3681,11322 3751,4186 3822,7559 3893,6373 3963,6385 4034,8893 4104,11322 4175,11322 4246,6974 4316,5993 4387,9301 4458,3858 4528,9590 4599,11322 4670,11322 4740,6691 4811,4461 4882,9278 4952,8756 5023,7280 5094,11322 5164,11322 5235,8105 5306,6233 5376,7804 5447,7734 5517,6490 5588,11322 5659,11322 5729,7316 5800,4565 5871,6742 5941,7953 6012,7183 6083,11322 6153,11322 6224,7808 6295,4395 6365,9407 6436,9095 6507,6320 6577,11322 6648,11322 6719,6632 6789,10932 6860,7294 6930,7536 7001,5143 7072,11322 7142,11322 7213,7586 7284,7317 7354,6658 7425,9109 7496,4889 7566,11322 7637,11322 7708,8342 7778,6028 7849,7919 7920,6336 7990,8974 8061,11322 8132,11322 8202,8168 8273,9750 8343,9033 8414,8356 8485,8117 8555,11322 8626,11322 8697,9048 8767,8818 8838,6885 8909,7439 8979,8217 9049,11322 9120,11322 9190,8358 9261,8479 9332,7858 9402,8394 9473,8945 9544,11322 9614,11322 9685,8967 9755,8786 9826,8674 9897,7559 9967,9059 10038,11322 10109,11322 10179,8160 10250,9182 10321,7667 10391,7230 10462,8505 10533,11322 10603,11322 10674,8948 10745,11322 10815,9260 10886,8028 10957,8649 11027,11322 11098,11322 11168,9264 11239,9098 11310,8444 11380,8968 11451,8253 11522,11322 11592,11322 11663,6934 11734,9203 11804,8928 11875,7858 11946,11322 12016,11322 12087,11322 12158,8288 12228,7684 12299,7493 12370,9636 12440,11322 12511,11322 12581,11322 12652,10071 12723,8517 12793,11322 12864,7589 12935,8240 13005,11322 13076,11322 13147,8652 13217,10252 13288,9190 13359,9098 13429,8668 13500,11322 13571,11322 13641,9586 13712,8389 13783,8791 13853,8312 13924,8568 13994,11322 14065,11322 14136,7785 14206,8948 14277,8407 14348,8537 14418,8688 14489,11322 14560,11322 14630,9112 14701,9025 14772,8342 14842,8122 14913,8919 14984,11322 15054,11322 15125,8223 15195,8242 15195,9612 15125,9264 15054,11322 14984,11322 14913,9435 14842,9638 14772,9666 14701,9872 14630,9549 14560,11322 14489,11322 14418,9559 14348,9667 14277,9547 14206,9880 14136,9221 14065,11322 13994,11322 13924,10023 13853,9881 13783,9888 13712,9572 13641,9905 13571,11322 13500,11322 13429,9553 13359,9822 13288,9456 13217,10379 13147,9300 13076,11322 13005,11322 12935,9180 12864,10346 12793,11322 12723,10111 12652,10330 12581,11322 12511,11322 12440,11322 12370,9707 12299,10606 12228,9665 12158,8462 12087,11322 12016,11322 11946,11322 11875,8187 11804,9103 11734,10003 11663,7650 11592,11322 11522,11322 11451,8392 11380,9886 11310,9989 11239,10009 11168,9772 11098,11322 11027,11322 10957,10134 10886,9563 10815,9371 10745,11322 10674,9449 10603,11322 10533,11322 10462,9136 10391,8580 10321,8086 10250,9417 10179,8341 10109,11322 10038,11322 9967,9165 9897,9718 9826,9491 9755,9541 9685,9170 9614,11322 9544,11322 9473,9579 9402,9342 9332,9249 9261,9171 9190,8981 9120,11322 9049,11322 8979,9634 8909,9337 8838,9475 8767,9046 8697,9211 8626,11322 8555,11322 8485,8746 8414,10446 8343,10939 8273,9924 8202,8580 8132,11322 8061,11322 7990,9669 7920,9519 7849,9342 7778,9142 7708,9683 7637,11322 7566,11322 7496,7408 7425,11254 7354,10922 7284,9462 7213,9262 7142,11322 7072,11322 7001,9964 6930,10431 6860,9681 6789,11322 6719,9137 6648,11322 6577,11322 6507,10718 6436,9342 6365,10228 6295,9410 6224,9976 6153,11322 6083,11322 6012,9298 5941,10294 5871,10030 5800,10042 5729,9231 5659,11322 5588,11322 5517,8587 5447,11322 5376,10362 5306,10804 5235,9590 5164,11322 5094,11322 5023,10629 4952,9718 4882,10582 4811,9923 4740,9264 4670,11322 4599,11322 4528,9806 4458,8980 4387,9878 4316,10256 4246,9095 4175,11322 4104,11322 4034,10926 3963,10542 3893,9837 3822,10067 3751,9694 3681,11322 3610,11322 3539,8550 3469,10906 3398,10437 3327,10322 3257,9488 3186,11322 3115,11322 3045,9659 2974,11322 2903,11240 2833,10023 2762,8813 2691,11322 2621,11322 2550,11322 2480,10522 2409,11322 2338,11322 2268,10647 2197,11322 2126,11322 2056,11322 1985,931 1914,11322 1844,10522 1773,11322 1702,11322 1632,11322 1561,11322 1490,11322 1420,11322 1349,8724 1278,11322 1278,6126 Z"/>
 <path fill="none" stroke="rgb(0,0,0)" stroke-width="50" stroke-linejoin="round" d="M 1278,6126 L 1349,8724 1420,9243 1490,11322 1561,6126 1632,11322 1702,11322 1773,11322 1844,8923 1914,11322 1985,931 2056,7858 2126,11322 2197,11322 2268,9837 2338,11322 2409,11322 2480,7724 2550,2663 2621,11322 2691,11322 2762,6305 2833,3529 2903,10012 2974,6703 3045,5087 3115,11322 3186,11322 3257,6737 3327,3529 3398,7784 3469,7580 3539,5780 3610,11322 3681,11322 3751,4186 3822,7559 3893,6373 3963,6385 4034,8893 4104,11322 4175,11322 4246,6974 4316,5993 4387,9301 4458,3858 4528,9590 4599,11322 4670,11322 4740,6691 4811,4461 4882,9278 4952,8756 5023,7280 5094,11322 5164,11322 5235,8105 5306,6233 5376,7804 5447,7734 5517,6490 5588,11322 5659,11322 5729,7316 5800,4565 5871,6742 5941,7953 6012,7183 6083,11322 6153,11322 6224,7808 6295,4395 6365,9407 6436,9095 6507,6320 6577,11322 6648,11322 6719,6632 6789,10932 6860,7294 6930,7536 7001,5143 7072,11322 7142,11322 7213,7586 7284,7317 7354,6658 7425,9109 7496,4889 7566,11322 7637,11322 7708,8342 7778,6028 7849,7919 7920,6336 7990,8974 8061,11322 8132,11322 8202,8168 8273,9750 8343,9033 8414,8356 8485,8117 8555,11322 8626,11322 8697,9048 8767,8818 8838,6885 8909,7439 8979,8217 9049,11322 9120,11322 9190,8358 9261,8479 9332,7858 9402,8394 9473,8945 9544,11322 9614,11322 9685,8967 9755,8786 9826,8674 9897,7559 9967,9059 10038,11322 10109,11322 10179,8160 10250,9182 10321,7667 10391,7230 10462,8505 10533,11322 10603,11322 10674,8948 10745,11322 10815,9260 10886,8028 10957,8649 11027,11322 11098,11322 11168,9264 11239,9098 11310,8444 11380,8968 11451,8253 11522,11322 11592,11322 11663,6934 11734,9203 11804,8928 11875,7858 11946,11322 12016,11322 12087,11322 12158,8288 12228,7684 12299,7493 12370,9636 12440,11322 12511,11322 12581,11322 12652,10071 12723,8517 12793,11322 12864,7589 12935,8240 13005,11322 13076,11322 13147,8652 13217,10252 13288,9190 13359,9098 13429,8668 13500,11322 13571,11322 13641,9586 13712,8389 13783,8791 13853,8312 13924,8568 13994,11322 14065,11322 14136,7785 14206,8948 14277,8407 14348,8537 14418,8688 14489,11322 14560,11322 14630,9112 14701,9025 14772,8342 14842,8122 14913,8919 14984,11322 15054,11322 15125,8223 15195,8242 15195,9612 15125,9264 15054,11322 14984,11322 14913,9435 14842,9638 14772,9666 14701,9872 14630,9549 14560,11322 14489,11322 14418,9559 14348,9667 14277,9547 14206,9880 14136,9221 14065,11322 13994,11322 13924,10023 13853,9881 13783,9888 13712,9572 13641,9905 13571,11322 13500,11322 13429,9553 13359,9822 13288,9456 13217,10379 13147,9300 13076,11322 13005,11322 12935,9180 12864,10346 12793,11322 12723,10111 12652,10330 12581,11322 12511,11322 12440,11322 12370,9707 12299,10606 12228,9665 12158,8462 12087,11322 12016,11322 11946,11322 11875,8187 11804,9103 11734,10003 11663,7650 11592,11322 11522,11322 11451,8392 11380,9886 11310,9989 11239,10009 11168,9772 11098,11322 11027,11322 10957,10134 10886,9563 10815,9371 10745,11322 10674,9449 10603,11322 10533,11322 10462,9136 10391,8580 10321,8086 10250,9417 10179,8341 10109,11322 10038,11322 9967,9165 9897,9718 9826,9491 9755,9541 9685,9170 9614,11322 9544,11322 9473,9579 9402,9342 9332,9249 9261,9171 9190,8981 9120,11322 9049,11322 8979,9634 8909,9337 8838,9475 8767,9046 8697,9211 8626,11322 8555,11322 8485,8746 8414,10446 8343,10939 8273,9924 8202,8580 8132,11322 8061,11322 7990,9669 7920,9519 7849,9342 7778,9142 7708,9683 7637,11322 7566,11322 7496,7408 7425,11254 7354,10922 7284,9462 7213,9262 7142,11322 7072,11322 7001,9964 6930,10431 6860,9681 6789,11322 6719,9137 6648,11322 6577,11322 6507,10718 6436,9342 6365,10228 6295,9410 6224,9976 6153,11322 6083,11322 6012,9298 5941,10294 5871,10030 5800,10042 5729,9231 5659,11322 5588,11322 5517,8587 5447,11322 5376,10362 5306,10804 5235,9590 5164,11322 5094,11322 5023,10629 4952,9718 4882,10582 4811,9923 4740,9264 4670,11322 4599,11322 4528,9806 4458,8980 4387,9878 4316,10256 4246,9095 4175,11322 4104,11322 4034,10926 3963,10542 3893,9837 3822,10067 3751,9694 3681,11322 3610,11322 3539,8550 3469,10906 3398,10437 3327,10322 3257,9488 3186,11322 3115,11322 3045,9659 2974,11322 2903,11240 2833,10023 2762,8813 2691,11322 2621,11322 2550,11322 2480,10522 2409,11322 2338,11322 2268,10647 2197,11322 2126,11322 2056,11322 1985,931 1914,11322 1844,10522 1773,11322 1702,11322 1632,11322 1561,11322 1490,11322 1420,11322 1349,8724 1278,11322 1278,6126 Z"/>
 <path fill="rgb(222,230,239)" stroke="none" d="M 1278,6126 L 1349,6126 1420,9243 1490,6126 1561,931 1632,11322 1702,11322 1773,10937 1844,8923 1914,11322 1985,931 2056,7858 2126,11322 2197,11322 2268,9702 2338,9837 2409,9373 2480,7724 2550,2663 2621,11322 2691,11322 2762,5947 2833,3096 2903,9767 2974,6126 3045,3840 3115,11322 3186,11322 3257,5821 3327,3129 3398,7784 3469,4672 3539,5087 3610,11322 3681,11322 3751,3810 3822,6126 3893,6373 3963,5867 4034,8724 4104,11322 4175,11322 4246,6232 4316,4794 4387,7280 4458,3858 4528,6559 4599,11322 4670,11322 4740,6486 4811,4195 4882,8843 4952,8563 5023,6472 5094,11322 5164,11322 5235,7548 5306,6104 5376,6765 5447,6744 5517,5671 5588,11322 5659,11322 5729,7083 5800,4156 5871,6448 5941,7553 6012,6631 6083,11322 6153,11322 6224,7509 6295,4156 6365,7903 6436,8600 6507,6147 6577,11322 6648,11322 6719,6578 6789,10672 6860,6498 6930,6794 7001,4816 7072,11322 7142,11322 7213,7347 7284,7222 7354,5660 7425,8640 7496,4439 7566,11322 7637,11322 7708,8044 7778,5640 7849,7053 7920,5676 7990,8495 8061,11322 8132,11322 8202,7921 8273,9007 8343,8676 8414,7848 8485,7788 8555,11322 8626,11322 8697,8622 8767,8110 8838,5844 8909,7060 8979,7205 9049,11322 9120,11322 9190,8036 9261,7834 9332,6288 9402,7734 9473,7551 9544,11322 9614,11322 9685,8561 9755,7838 9826,7970 9897,6758 9967,8706 10038,11322 10109,11322 10179,7331 10250,8218 10321,6754 10391,6289 10462,7242 10533,11322 10603,11322 10674,8526 10745,11322 10815,8396 10886,7069 10957,7647 11027,11322 11098,11322 11168,8463 11239,8268 11310,6205 11380,7991 11451,7207 11522,11322 11592,11322 11663,6157 11734,8204 11804,7585 11875,6043 11946,11322 12016,11322 12087,11322 12158,7486 12228,6418 12299,4591 12370,7389 12440,11322 12511,11322 12581,11322 12652,7958 12723,6126 12793,11322 12864,5087 12935,6517 13005,11322 13076,11322 13147,5466 13217,8367 13288,6365 13359,6306 13429,6767 13500,11322 13571,11322 13641,7325 13712,6589 13783,6014 13853,5458 13924,5919 13994,11322 14065,11322 14136,5402 14206,6609 14277,6147 14348,6418 14418,6743 14489,11322 14560,11322 14630,6480 14701,6470 14772,6227 14842,6559 14913,6802 14984,11322 15054,11322 15125,6817 15195,6383 15195,8242 15125,8223 15054,11322 14984,11322 14913,8919 14842,8122 14772,8342 14701,9025 14630,9112 14560,11322 14489,11322 14418,8688 14348,8537 14277,8407 14206,8948 14136,7785 14065,11322 13994,11322 13924,8568 13853,8312 13783,8791 13712,8389 13641,9586 13571,11322 13500,11322 13429,8668 13359,9098 13288,9190 13217,10252 13147,8652 13076,11322 13005,11322 12935,8240 12864,7589 12793,11322 12723,8517 12652,10071 12581,11322 12511,11322 12440,11322 12370,9636 12299,7493 12228,7684 12158,8288 12087,11322 12016,11322 11946,11322 11875,7858 11804,8928 11734,9203 11663,6934 11592,11322 11522,11322 11451,8253 11380,8968 11310,8444 11239,9098 11168,9264 11098,11322 11027,11322 10957,8649 10886,8028 10815,9260 10745,11322 10674,8948 10603,11322 10533,11322 10462,8505 10391,7230 10321,7667 10250,9182 10179,8160 10109,11322 10038,11322 9967,9059 9897,7559 9826,8674 9755,8786 9685,8967 9614,11322 9544,11322 9473,8945 9402,8394 9332,7858 9261,8479 9190,8358 9120,11322 9049,11322 8979,8217 8909,7439 8838,6885 8767,8818 8697,9048 8626,11322 8555,11322 8485,8117 8414,8356 8343,9033 8273,9750 8202,8168 8132,11322 8061,11322 7990,8974 7920,6336 7849,7919 7778,6028 7708,8342 7637,11322 7566,11322 7496,4889 7425,9109 7354,6658 7284,7317 7213,7586 7142,11322 7072,11322 7001,5143 6930,7536 6860,7294 6789,10932 6719,6632 6648,11322 6577,11322 6507,6320 6436,9095 6365,9407 6295,4395 6224,7808 6153,11322 6083,11322 6012,7183 5941,7953 5871,6742 5800,4565 5729,7316 5659,11322 5588,11322 5517,6490 5447,7734 5376,7804 5306,6233 5235,8105 5164,11322 5094,11322 5023,7280 4952,8756 4882,9278 4811,4461 4740,6691 4670,11322 4599,11322 4528,9590 4458,3858 4387,9301 4316,5993 4246,6974 4175,11322 4104,11322 4034,8893 3963,6385 3893,6373 3822,7559 3751,4186 3681,11322 3610,11322 3539,5780 3469,7580 3398,7784 3327,3529 3257,6737 3186,11322 3115,11322 3045,5087 2974,6703 2903,10012 2833,3529 2762,6305 2691,11322 2621,11322 2550,2663 2480,7724 2409,11322 2338,11322 2268,9837 2197,11322 2126,11322 2056,7858 1985,931 1914,11322 1844,8923 1773,11322 1702,11322 1632,11322 1561,6126 1490,11322 1420,9243 1349,8724 1278,6126 Z"/>
 <path fill="none" stroke="rgb(0,0,0)" stroke-width="50" stroke-linejoin="round" d="M 1278,6126 L 1349,6126 1420,9243 1490,6126 1561,931 1632,11322 1702,11322 1773,10937 1844,8923 1914,11322 1985,931 2056,7858 2126,11322 2197,11322 2268,9702 2338,9837 2409,9373 2480,7724 2550,2663 2621,11322 2691,11322 2762,5947 2833,3096 2903,9767 2974,6126 3045,3840 3115,11322 3186,11322 3257,5821 3327,3129 3398,7784 3469,4672 3539,5087 3610,11322 3681,11322 3751,3810 3822,6126 3893,6373 3963,5867 4034,8724 4104,11322 4175,11322 4246,6232 4316,4794 4387,7280 4458,3858 4528,6559 4599,11322 4670,11322 4740,6486 4811,4195 4882,8843 4952,8563 5023,6472 5094,11322 5164,11322 5235,7548 5306,6104 5376,6765 5447,6744 5517,5671 5588,11322 5659,11322 5729,7083 5800,4156 5871,6448 5941,7553 6012,6631 6083,11322 6153,11322 6224,7509 6295,4156 6365,7903 6436,8600 6507,6147 6577,11322 6648,11322 6719,6578 6789,10672 6860,6498 6930,6794 7001,4816 7072,11322 7142,11322 7213,7347 7284,7222 7354,5660 7425,8640 7496,4439 7566,11322 7637,11322 7708,8044 7778,5640 7849,7053 7920,5676 7990,8495 8061,11322 8132,11322 8202,7921 8273,9007 8343,8676 8414,7848 8485,7788 8555,11322 8626,11322 8697,8622 8767,8110 8838,5844 8909,7060 8979,7205 9049,11322 9120,11322 9190,8036 9261,7834 9332,6288 9402,7734 9473,7551 9544,11322 9614,11322 9685,8561 9755,7838 9826,7970 9897,6758 9967,8706 10038,11322 10109,11322 10179,7331 10250,8218 10321,6754 10391,6289 10462,7242 10533,11322 10603,11322 10674,8526 10745,11322 10815,8396 10886,7069 10957,7647 11027,11322 11098,11322 11168,8463 11239,8268 11310,6205 11380,7991 11451,7207 11522,11322 11592,11322 11663,6157 11734,8204 11804,7585 11875,6043 11946,11322 12016,11322 12087,11322 12158,7486 12228,6418 12299,4591 12370,7389 12440,11322 12511,11322 12581,11322 12652,7958 12723,6126 12793,11322 12864,5087 12935,6517 13005,11322 13076,11322 13147,5466 13217,8367 13288,6365 13359,6306 13429,6767 13500,11322 13571,11322 13641,7325 13712,6589 13783,6014 13853,5458 13924,5919 13994,11322 14065,11322 14136,5402 14206,6609 14277,6147 14348,6418 14418,6743 14489,11322 14560,11322 14630,6480 14701,6470 14772,6227 14842,6559 14913,6802 14984,11322 15054,11322 15125,6817 15195,6383 15195,8242 15125,8223 15054,11322 14984,11322 14913,8919 14842,8122 14772,8342 14701,9025 14630,9112 14560,11322 14489,11322 14418,8688 14348,8537 14277,8407 14206,8948 14136,7785 14065,11322 13994,11322 13924,8568 13853,8312 13783,8791 13712,8389 13641,9586 13571,11322 13500,11322 13429,8668 13359,9098 13288,9190 13217,10252 13147,8652 13076,11322 13005,11322 12935,8240 12864,7589 12793,11322 12723,8517 12652,10071 12581,11322 12511,11322 12440,11322 12370,9636 12299,7493 12228,7684 12158,8288 12087,11322 12016,11322 11946,11322 11875,7858 11804,8928 11734,9203 11663,6934 11592,11322 11522,11322 11451,8253 11380,8968 11310,8444 11239,9098 11168,9264 11098,11322 11027,11322 10957,8649 10886,8028 10815,9260 10745,11322 10674,8948 10603,11322 10533,11322 10462,8505 10391,7230 10321,7667 10250,9182 10179,8160 10109,11322 10038,11322 9967,9059 9897,7559 9826,8674 9755,8786 9685,8967 9614,11322 9544,11322 9473,8945 9402,8394 9332,7858 9261,8479 9190,8358 9120,11322 9049,11322 8979,8217 8909,7439 8838,6885 8767,8818 8697,9048 8626,11322 8555,11322 8485,8117 8414,8356 8343,9033 8273,9750 8202,8168 8132,11322 8061,11322 7990,8974 7920,6336 7849,7919 7778,6028 7708,8342 7637,11322 7566,11322 7496,4889 7425,9109 7354,6658 7284,7317 7213,7586 7142,11322 7072,11322 7001,5143 6930,7536 6860,7294 6789,10932 6719,6632 6648,11322 6577,11322 6507,6320 6436,9095 6365,9407 6295,4395 6224,7808 6153,11322 6083,11322 6012,7183 5941,7953 5871,6742 5800,4565 5729,7316 5659,11322 5588,11322 5517,6490 5447,7734 5376,7804 5306,6233 5235,8105 5164,11322 5094,11322 5023,7280 4952,8756 4882,9278 4811,4461 4740,6691 4670,11322 4599,11322 4528,9590 4458,3858 4387,9301 4316,5993 4246,6974 4175,11322 4104,11322 4034,8893 3963,6385 3893,6373 3822,7559 3751,4186 3681,11322 3610,11322 3539,5780 3469,7580 3398,7784 3327,3529 3257,6737 3186,11322 3115,11322 3045,5087 2974,6703 2903,10012 2833,3529 2762,6305 2691,11322 2621,11322 2550,2663 2480,7724 2409,11322 2338,11322 2268,9837 2197,11322 2126,11322 2056,7858 1985,931 1914,11322 1844,8923 1773,11322 1702,11322 1632,11322 1561,6126 1490,11322 1420,9243 1349,8724 1278,6126 Z"/>
 <path fill="rgb(221,232,203)" stroke="none" d="M 1278,6126 L 1349,931 1420,3009 1490,931 1561,931 1632,11322 1702,11322 1773,10552 1844,2529 1914,11322 1985,931 2056,4395 2126,11322 2197,11322 2268,9432 2338,9837 2409,9373 2480,6525 2550,2663 2621,11322 2691,11322 2762,5589 2833,2230 2903,9276 2974,3817 3045,3009 3115,11322 3186,11322 3257,5515 3327,2729 3398,4910 3469,4256 3539,5087 3610,11322 3681,11322 3751,3810 3822,4693 3893,4395 3963,5607 4034,8554 4104,11322 4175,11322 4246,5384 4316,4661 4387,6414 4458,3858 4528,5044 4599,11322 4670,11322 4740,6486 4811,4195 4882,8539 4952,7986 5023,6356 5094,11322 5164,11322 5235,7239 5306,5846 5376,5567 5447,6620 5517,5215 5588,11322 5659,11322 5729,6735 5800,4053 5871,6390 5941,7039 6012,6263 6083,11322 6153,11322 6224,7359 6295,3957 6365,7493 6436,8270 6507,5717 6577,11322 6648,11322 6719,6152 6789,10672 6860,6150 6930,6422 7001,4160 7072,11322 7142,11322 7213,7155 7284,6936 7354,5127 7425,6561 7496,4350 7566,11322 7637,11322 7708,8006 7778,5368 7849,6806 7920,5376 7990,7886 8061,11322 8132,11322 8202,7647 8273,7479 8343,2281 8414,5759 8485,5453 8555,11322 8626,11322 8697,7668 8767,7428 8838,5486 8909,6213 8979,6463 9049,11322 9120,11322 9190,7607 9261,7165 9332,5816 9402,6744 9473,6126 9544,11322 9614,11322 9685,6511 9755,5981 9826,5127 9897,5001 9967,6550 10038,11322 10109,11322 10179,7331 10250,6055 10321,4318 10391,4858 10462,6077 10533,11322 10603,11322 10674,7339 10745,11322 10815,6251 10886,5695 10957,6200 11027,11322 11098,11322 11168,6540 11239,6929 11310,4981 11380,6441 11451,6579 11522,11322 11592,11322 11663,5473 11734,7844 11804,4959 11875,4312 11946,11322 12016,11322 12087,11322 12158,6056 12228,5964 12299,3497 12370,5003 12440,11322 12511,11322 12581,11322 12652,7527 12723,4887 12793,11322 12864,4154 12935,4899 13005,11322 13076,11322 13147,4559 13217,7679 13288,5194 13359,4084 13429,5485 13500,11322 13571,11322 13641,5864 13712,4763 13783,5119 13853,4789 13924,4594 13994,11322 14065,11322 14136,4995 14206,5748 14277,5218 14348,5874 14418,6379 14489,11322 14560,11322 14630,6221 14701,6197 14772,5952 14842,5669 14913,6286 14984,11322 15054,11322 15125,5663 15195,5733 15195,6383 15125,6817 15054,11322 14984,11322 14913,6802 14842,6559 14772,6227 14701,6470 14630,6480 14560,11322 14489,11322 14418,6743 14348,6418 14277,6147 14206,6609 14136,5402 14065,11322 13994,11322 13924,5919 13853,5458 13783,6014 13712,6589 13641,7325 13571,11322 13500,11322 13429,6767 13359,6306 13288,6365 13217,8367 13147,5466 13076,11322 13005,11322 12935,6517 12864,5087 12793,11322 12723,6126 12652,7958 12581,11322 12511,11322 12440,11322 12370,7389 12299,4591 12228,6418 12158,7486 12087,11322 12016,11322 11946,11322 11875,6043 11804,7585 11734,8204 11663,6157 11592,11322 11522,11322 11451,7207 11380,7991 11310,6205 11239,8268 11168,8463 11098,11322 11027,11322 10957,7647 10886,7069 10815,8396 10745,11322 10674,8526 10603,11322 10533,11322 10462,7242 10391,6289 10321,6754 10250,8218 10179,7331 10109,11322 10038,11322 9967,8706 9897,6758 9826,7970 9755,7838 9685,8561 9614,11322 9544,11322 9473,7551 9402,7734 9332,6288 9261,7834 9190,8036 9120,11322 9049,11322 8979,7205 8909,7060 8838,5844 8767,8110 8697,8622 8626,11322 8555,11322 8485,7788 8414,7848 8343,8676 8273,9007 8202,7921 8132,11322 8061,11322 7990,8495 7920,5676 7849,7053 7778,5640 7708,8044 7637,11322 7566,11322 7496,4439 7425,8640 7354,5660 7284,7222 7213,7347 7142,11322 7072,11322 7001,4816 6930,6794 6860,6498 6789,10672 6719,6578 6648,11322 6577,11322 6507,6147 6436,8600 6365,7903 6295,4156 6224,7509 6153,11322 6083,11322 6012,6631 5941,7553 5871,6448 5800,4156 5729,7083 5659,11322 5588,11322 5517,5671 5447,6744 5376,6765 5306,6104 5235,7548 5164,11322 5094,11322 5023,6472 4952,8563 4882,8843 4811,4195 4740,6486 4670,11322 4599,11322 4528,6559 4458,3858 4387,7280 4316,4794 4246,6232 4175,11322 4104,11322 4034,8724 3963,5867 3893,6373 3822,6126 3751,3810 3681,11322 3610,11322 3539,5087 3469,4672 3398,7784 3327,3129 3257,5821 3186,11322 3115,11322 3045,3840 2974,6126 2903,9767 2833,3096 2762,5947 2691,11322 2621,11322 2550,2663 2480,7724 2409,9373 2338,9837 2268,9702 2197,11322 2126,11322 2056,7858 1985,931 1914,11322 1844,8923 1773,10937 1702,11322 1632,11322 1561,931 1490,6126 1420,9243 1349,6126 1278,6126 Z"/>
 <path fill="none" stroke="rgb(0,0,0)" stroke-width="50" stroke-linejoin="round" d="M 1278,6126 L 1349,931 1420,3009 1490,931 1561,931 1632,11322 1702,11322 1773,10552 1844,2529 1914,11322 1985,931 2056,4395 2126,11322 2197,11322 2268,9432 2338,9837 2409,9373 2480,6525 2550,2663 2621,11322 2691,11322 2762,5589 2833,2230 2903,9276 2974,3817 3045,3009 3115,11322 3186,11322 3257,5515 3327,2729 3398,4910 3469,4256 3539,5087 3610,11322 3681,11322 3751,3810 3822,4693 3893,4395 3963,5607 4034,8554 4104,11322 4175,11322 4246,5384 4316,4661 4387,6414 4458,3858 4528,5044 4599,11322 4670,11322 4740,6486 4811,4195 4882,8539 4952,7986 5023,6356 5094,11322 5164,11322 5235,7239 5306,5846 5376,5567 5447,6620 5517,5215 5588,11322 5659,11322 5729,6735 5800,4053 5871,6390 5941,7039 6012,6263 6083,11322 6153,11322 6224,7359 6295,3957 6365,7493 6436,8270 6507,5717 6577,11322 6648,11322 6719,6152 6789,10672 6860,6150 6930,6422 7001,4160 7072,11322 7142,11322 7213,7155 7284,6936 7354,5127 7425,6561 7496,4350 7566,11322 7637,11322 7708,8006 7778,5368 7849,6806 7920,5376 7990,7886 8061,11322 8132,11322 8202,7647 8273,7479 8343,2281 8414,5759 8485,5453 8555,11322 8626,11322 8697,7668 8767,7428 8838,5486 8909,6213 8979,6463 9049,11322 9120,11322 9190,7607 9261,7165 9332,5816 9402,6744 9473,6126 9544,11322 9614,11322 9685,6511 9755,5981 9826,5127 9897,5001 9967,6550 10038,11322 10109,11322 10179,7331 10250,6055 10321,4318 10391,4858 10462,6077 10533,11322 10603,11322 10674,7339 10745,11322 10815,6251 10886,5695 10957,6200 11027,11322 11098,11322 11168,6540 11239,6929 11310,4981 11380,6441 11451,6579 11522,11322 11592,11322 11663,5473 11734,7844 11804,4959 11875,4312 11946,11322 12016,11322 12087,11322 12158,6056 12228,5964 12299,3497 12370,5003 12440,11322 12511,11322 12581,11322 12652,7527 12723,4887 12793,11322 12864,4154 12935,4899 13005,11322 13076,11322 13147,4559 13217,7679 13288,5194 13359,4084 13429,5485 13500,11322 13571,11322 13641,5864 13712,4763 13783,5119 13853,4789 13924,4594 13994,11322 14065,11322 14136,4995 14206,5748 14277,5218 14348,5874 14418,6379 14489,11322 14560,11322 14630,6221 14701,6197 14772,5952 14842,5669 14913,6286 14984,11322 15054,11322 15125,5663 15195,5733 15195,6383 15125,6817 15054,11322 14984,11322 14913,6802 14842,6559 14772,6227 14701,6470 14630,6480 14560,11322 14489,11322 14418,6743 14348,6418 14277,6147 14206,6609 14136,5402 14065,11322 13994,11322 13924,5919 13853,5458 13783,6014 13712,6589 13641,7325 13571,11322 13500,11322 13429,6767 13359,6306 13288,6365 13217,8367 13147,5466 13076,11322 13005,11322 12935,6517 12864,5087 12793,11322 12723,6126 12652,7958 12581,11322 12511,11322 12440,11322 12370,7389 12299,4591 12228,6418 12158,7486 12087,11322 12016,11322 11946,11322 11875,6043 11804,7585 11734,8204 11663,6157 11592,11322 11522,11322 11451,7207 11380,7991 11310,6205 11239,8268 11168,8463 11098,11322 11027,11322 10957,7647 10886,7069 10815,8396 10745,11322 10674,8526 10603,11322 10533,11322 10462,7242 10391,6289 10321,6754 10250,8218 10179,7331 10109,11322 10038,11322 9967,8706 9897,6758 9826,7970 9755,7838 9685,8561 9614,11322 9544,11322 9473,7551 9402,7734 9332,6288 9261,7834 9190,8036 9120,11322 9049,11322 8979,7205 8909,7060 8838,5844 8767,8110 8697,8622 8626,11322 8555,11322 8485,7788 8414,7848 8343,8676 8273,9007 8202,7921 8132,11322 8061,11322 7990,8495 7920,5676 7849,7053 7778,5640 7708,8044 7637,11322 7566,11322 7496,4439 7425,8640 7354,5660 7284,7222 7213,7347 7142,11322 7072,11322 7001,4816 6930,6794 6860,6498 6789,10672 6719,6578 6648,11322 6577,11322 6507,6147 6436,8600 6365,7903 6295,4156 6224,7509 6153,11322 6083,11322 6012,6631 5941,7553 5871,6448 5800,4156 5729,7083 5659,11322 5588,11322 5517,5671 5447,6744 5376,6765 5306,6104 5235,7548 5164,11322 5094,11322 5023,6472 4952,8563 4882,8843 4811,4195 4740,6486 4670,11322 4599,11322 4528,6559 4458,3858 4387,7280 4316,4794 4246,6232 4175,11322 4104,11322 4034,8724 3963,5867 3893,6373 3822,6126 3751,3810 3681,11322 3610,11322 3539,5087 3469,4672 3398,7784 3327,3129 3257,5821 3186,11322 3115,11322 3045,3840 2974,6126 2903,9767 2833,3096 2762,5947 2691,11322 2621,11322 2550,2663 2480,7724 2409,9373 2338,9837 2268,9702 2197,11322 2126,11322 2056,7858 1985,931 1914,11322 1844,8923 1773,10937 1702,11322 1632,11322 1561,931 1490,6126 1420,9243 1349,6126 1278,6126 Z"/>
 <path fill="rgb(183,179,202)" stroke="none" d="M 1278,931 L 1349,931 1420,931 1490,931 1561,931 1632,11322 1702,11322 1773,10167 1844,2529 1914,931 1985,931 2056,4395 2126,11322 2197,11322 2268,9432 2338,6868 2409,8074 2480,6525 2550,2663 2621,11322 2691,11322 2762,4156 2833,2230 2903,9276 2974,2663 3045,3009 3115,11322 3186,11322 3257,4904 3327,2130 3398,4468 3469,2593 3539,4395 3610,11322 3681,11322 3751,2809 3822,2722 3893,4147 3963,4568 4034,7989 4104,11322 4175,11322 4246,4642 4316,3462 4387,6126 4458,3126 4528,3962 4599,11322 4670,11322 4740,4737 4811,3395 4882,8191 4952,7665 5023,5665 5094,11322 5164,11322 5235,6187 5306,5113 5376,5167 5447,4395 5517,4668 5588,11322 5659,11322 5729,5227 5800,3439 5871,5158 5941,6411 6012,5161 6083,11322 6153,11322 6224,4968 6295,3120 6365,4759 6436,5797 6507,4854 6577,11322 6648,11322 6719,4395 6789,9503 6860,4212 6930,5162 7001,3692 7072,11322 7142,11322 7213,5288 7284,5316 7354,3795 7425,5154 7496,3225 7566,11322 7637,11322 7708,5922 7778,4356 7849,5508 7920,4294 7990,6495 8061,11322 8132,11322 8202,6002 8273,6868 8343,1763 8414,4263 8485,4734 8555,11322 8626,11322 8697,6105 8767,6265 8838,4236 8909,5192 8979,5249 9049,11322 9120,11322 9190,6491 9261,5589 9332,4365 9402,6084 9473,4859 9544,11322 9614,11322 9685,5497 9755,4994 9826,4000 9897,4107 9967,5702 10038,11322 10109,11322 10179,5828 10250,5327 10321,3443 10391,4449 10462,4233 10533,11322 10603,11322 10674,5995 10745,11322 10815,5890 10886,3808 10957,4642 11027,11322 11098,11322 11168,5392 11239,6099 11310,4235 11380,4548 11451,5324 11522,11322 11592,11322 11663,4571 11734,7365 11804,3850 11875,3487 11946,11322 12016,11322 12087,11322 12158,5429 12228,5672 12299,2529 12370,4301 12440,11322 12511,11322 12581,11322 12652,7009 12723,4473 12793,11322 12864,3263 12935,4116 13005,11322 13076,11322 13147,4118 13217,3605 13288,4981 13359,3774 13429,4822 13500,11322 13571,11322 13641,5316 13712,3992 13783,4917 13853,4506 13924,4048 13994,11322 14065,11322 14136,4548 14206,5221 14277,4923 14348,5087 14418,5286 14489,11322 14560,11322 14630,5554 14701,5194 14772,5455 14842,5092 14913,5575 14984,11322 15054,11322 15125,5115 15195,5150 15195,5733 15125,5663 15054,11322 14984,11322 14913,6286 14842,5669 14772,5952 14701,6197 14630,6221 14560,11322 14489,11322 14418,6379 14348,5874 14277,5218 14206,5748 14136,4995 14065,11322 13994,11322 13924,4594 13853,4789 13783,5119 13712,4763 13641,5864 13571,11322 13500,11322 13429,5485 13359,4084 13288,5194 13217,7679 13147,4559 13076,11322 13005,11322 12935,4899 12864,4154 12793,11322 12723,4887 12652,7527 12581,11322 12511,11322 12440,11322 12370,5003 12299,3497 12228,5964 12158,6056 12087,11322 12016,11322 11946,11322 11875,4312 11804,4959 11734,7844 11663,5473 11592,11322 11522,11322 11451,6579 11380,6441 11310,4981 11239,6929 11168,6540 11098,11322 11027,11322 10957,6200 10886,5695 10815,6251 10745,11322 10674,7339 10603,11322 10533,11322 10462,6077 10391,4858 10321,4318 10250,6055 10179,7331 10109,11322 10038,11322 9967,6550 9897,5001 9826,5127 9755,5981 9685,6511 9614,11322 9544,11322 9473,6126 9402,6744 9332,5816 9261,7165 9190,7607 9120,11322 9049,11322 8979,6463 8909,6213 8838,5486 8767,7428 8697,7668 8626,11322 8555,11322 8485,5453 8414,5759 8343,2281 8273,7479 8202,7647 8132,11322 8061,11322 7990,7886 7920,5376 7849,6806 7778,5368 7708,8006 7637,11322 7566,11322 7496,4350 7425,6561 7354,5127 7284,6936 7213,7155 7142,11322 7072,11322 7001,4160 6930,6422 6860,6150 6789,10672 6719,6152 6648,11322 6577,11322 6507,5717 6436,8270 6365,7493 6295,3957 6224,7359 6153,11322 6083,11322 6012,6263 5941,7039 5871,6390 5800,4053 5729,6735 5659,11322 5588,11322 5517,5215 5447,6620 5376,5567 5306,5846 5235,7239 5164,11322 5094,11322 5023,6356 4952,7986 4882,8539 4811,4195 4740,6486 4670,11322 4599,11322 4528,5044 4458,3858 4387,6414 4316,4661 4246,5384 4175,11322 4104,11322 4034,8554 3963,5607 3893,4395 3822,4693 3751,3810 3681,11322 3610,11322 3539,5087 3469,4256 3398,4910 3327,2729 3257,5515 3186,11322 3115,11322 3045,3009 2974,3817 2903,9276 2833,2230 2762,5589 2691,11322 2621,11322 2550,2663 2480,6525 2409,9373 2338,9837 2268,9432 2197,11322 2126,11322 2056,4395 1985,931 1914,11322 1844,2529 1773,10552 1702,11322 1632,11322 1561,931 1490,931 1420,3009 1349,931 1278,6126 1278,931 Z"/>
 <path fill="none" stroke="rgb(0,0,0)" stroke-width="50" stroke-linejoin="round" d="M 1278,931 L 1349,931 1420,931 1490,931 1561,931 1632,11322 1702,11322 1773,10167 1844,2529 1914,931 1985,931 2056,4395 2126,11322 2197,11322 2268,9432 2338,6868 2409,8074 2480,6525 2550,2663 2621,11322 2691,11322 2762,4156 2833,2230 2903,9276 2974,2663 3045,3009 3115,11322 3186,11322 3257,4904 3327,2130 3398,4468 3469,2593 3539,4395 3610,11322 3681,11322 3751,2809 3822,2722 3893,4147 3963,4568 4034,7989 4104,11322 4175,11322 4246,4642 4316,3462 4387,6126 4458,3126 4528,3962 4599,11322 4670,11322 4740,4737 4811,3395 4882,8191 4952,7665 5023,5665 5094,11322 5164,11322 5235,6187 5306,5113 5376,5167 5447,4395 5517,4668 5588,11322 5659,11322 5729,5227 5800,3439 5871,5158 5941,6411 6012,5161 6083,11322 6153,11322 6224,4968 6295,3120 6365,4759 6436,5797 6507,4854 6577,11322 6648,11322 6719,4395 6789,9503 6860,4212 6930,5162 7001,3692 7072,11322 7142,11322 7213,5288 7284,5316 7354,3795 7425,5154 7496,3225 7566,11322 7637,11322 7708,5922 7778,4356 7849,5508 7920,4294 7990,6495 8061,11322 8132,11322 8202,6002 8273,6868 8343,1763 8414,4263 8485,4734 8555,11322 8626,11322 8697,6105 8767,6265 8838,4236 8909,5192 8979,5249 9049,11322 9120,11322 9190,6491 9261,5589 9332,4365 9402,6084 9473,4859 9544,11322 9614,11322 9685,5497 9755,4994 9826,4000 9897,4107 9967,5702 10038,11322 10109,11322 10179,5828 10250,5327 10321,3443 10391,4449 10462,4233 10533,11322 10603,11322 10674,5995 10745,11322 10815,5890 10886,3808 10957,4642 11027,11322 11098,11322 11168,5392 11239,6099 11310,4235 11380,4548 11451,5324 11522,11322 11592,11322 11663,4571 11734,7365 11804,3850 11875,3487 11946,11322 12016,11322 12087,11322 12158,5429 12228,5672 12299,2529 12370,4301 12440,11322 12511,11322 12581,11322 12652,7009 12723,4473 12793,11322 12864,3263 12935,4116 13005,11322 13076,11322 13147,4118 13217,3605 13288,4981 13359,3774 13429,4822 13500,11322 13571,11322 13641,5316 13712,3992 13783,4917 13853,4506 13924,4048 13994,11322 14065,11322 14136,4548 14206,5221 14277,4923 14348,5087 14418,5286 14489,11322 14560,11322 14630,5554 14701,5194 14772,5455 14842,5092 14913,5575 14984,11322 15054,11322 15125,5115 15195,5150 15195,5733 15125,5663 15054,11322 14984,11322 14913,6286 14842,5669 14772,5952 14701,6197 14630,6221 14560,11322 14489,11322 14418,6379 14348,5874 14277,5218 14206,5748 14136,4995 14065,11322 13994,11322 13924,4594 13853,4789 13783,5119 13712,4763 13641,5864 13571,11322 13500,11322 13429,5485 13359,4084 13288,5194 13217,7679 13147,4559 13076,11322 13005,11322 12935,4899 12864,4154 12793,11322 12723,4887 12652,7527 12581,11322 12511,11322 12440,11322 12370,5003 12299,3497 12228,5964 12158,6056 12087,11322 12016,11322 11946,11322 11875,4312 11804,4959 11734,7844 11663,5473 11592,11322 11522,11322 11451,6579 11380,6441 11310,4981 11239,6929 11168,6540 11098,11322 11027,11322 10957,6200 10886,5695 10815,6251 10745,11322 10674,7339 10603,11322 10533,11322 10462,6077 10391,4858 10321,4318 10250,6055 10179,7331 10109,11322 10038,11322 9967,6550 9897,5001 9826,5127 9755,5981 9685,6511 9614,11322 9544,11322 9473,6126 9402,6744 9332,5816 9261,7165 9190,7607 9120,11322 9049,11322 8979,6463 8909,6213 8838,5486 8767,7428 8697,7668 8626,11322 8555,11322 8485,5453 8414,5759 8343,2281 8273,7479 8202,7647 8132,11322 8061,11322 7990,7886 7920,5376 7849,6806 7778,5368 7708,8006 7637,11322 7566,11322 7496,4350 7425,6561 7354,5127 7284,6936 7213,7155 7142,11322 7072,11322 7001,4160 6930,6422 6860,6150 6789,10672 6719,6152 6648,11322 6577,11322 6507,5717 6436,8270 6365,7493 6295,3957 6224,7359 6153,11322 6083,11322 6012,6263 5941,7039 5871,6390 5800,4053 5729,6735 5659,11322 5588,11322 5517,5215 5447,6620 5376,5567 5306,5846 5235,7239 5164,11322 5094,11322 5023,6356 4952,7986 4882,8539 4811,4195 4740,6486 4670,11322 4599,11322 4528,5044 4458,3858 4387,6414 4316,4661 4246,5384 4175,11322 4104,11322 4034,8554 3963,5607 3893,4395 3822,4693 3751,3810 3681,11322 3610,11322 3539,5087 3469,4256 3398,4910 3327,2729 3257,5515 3186,11322 3115,11322 3045,3009 2974,3817 2903,9276 2833,2230 2762,5589 2691,11322 2621,11322 2550,2663 2480,6525 2409,9373 2338,9837 2268,9432 2197,11322 2126,11322 2056,4395 1985,931 1914,11322 1844,2529 1773,10552 1702,11322 1632,11322 1561,931 1490,931 1420,3009 1349,931 1278,6126 1278,931 Z"/>
 <path fill="rgb(114,159,207)" stroke="none" d="M 1278,931 L 1349,931 1420,931 1490,931 1561,931 1632,11322 1702,11322 1773,9397 1844,931 1914,931 1985,931 2056,4395 2126,11322 2197,11322 2268,9162 2338,5384 2409,6775 2480,6525 2550,2663 2621,11322 2691,11322 2762,3797 2833,2230 2903,9276 2974,2663 3045,3009 3115,11322 3186,11322 3257,4598 3327,1930 3398,4247 3469,2593 3539,3702 3610,11322 3681,11322 3751,2683 3822,2722 3893,3405 3963,4048 4034,7989 4104,11322 4175,11322 4246,4324 4316,3195 4387,5838 4458,3126 4528,3962 4599,11322 4670,11322 4740,4223 4811,3329 4882,8147 4952,7473 5023,5318 5094,11322 5164,11322 5235,5817 5306,4941 5376,4768 5447,2786 5517,3027 5588,11322 5659,11322 5729,3833 5800,2569 5871,3631 5941,5384 6012,3781 6083,11322 6153,11322 6224,4295 6295,2921 6365,3392 6436,5054 6507,4423 6577,11322 6648,11322 6719,3755 6789,9373 6860,3715 6930,3157 7001,2850 7072,11322 7142,11322 7213,4905 7284,5268 7354,3662 7425,4953 7496,3135 7566,11322 7637,11322 7708,5512 7778,3655 7849,4518 7920,2973 7990,5626 8061,11322 8132,11322 8202,5674 8273,6518 8343,1572 8414,3585 8485,4315 8555,11322 8626,11322 8697,5639 8767,5861 8838,3849 8909,4579 8979,4574 9049,11322 9120,11322 9190,5869 9261,5350 9332,3980 9402,4518 9473,4099 9544,11322 9614,11322 9685,4929 9755,4878 9826,3184 9897,3613 9967,4889 10038,11322 10109,11322 10179,5466 10250,5068 10321,2529 10391,4081 10462,3941 10533,11322 10603,11322 10674,5625 10745,11322 10815,5444 10886,3297 10957,3751 11027,11322 11098,11322 11168,3949 11239,5805 11310,3382 11380,3342 11451,4487 11522,11322 11592,11322 11663,4104 11734,6645 11804,3266 11875,2910 11946,11322 12016,11322 12087,11322 12158,5150 12228,5445 12299,2319 12370,3809 12440,11322 12511,11322 12581,11322 12652,6406 12723,4237 12793,11322 12864,2924 12935,4064 13005,11322 13076,11322 13147,3755 13217,3401 13288,4021 13359,3671 13429,4468 13500,11322 13571,11322 13641,4379 13712,3940 13783,4626 13853,3657 13924,3217 13994,11322 14065,11322 14136,4128 14206,4834 14277,3676 14348,3715 14418,3787 14489,11322 14560,11322 14630,4272 14701,3902 14772,4076 14842,3649 14913,3582 14984,11322 15054,11322 15125,3789 15195,3617 15195,5150 15125,5115 15054,11322 14984,11322 14913,5575 14842,5092 14772,5455 14701,5194 14630,5554 14560,11322 14489,11322 14418,5286 14348,5087 14277,4923 14206,5221 14136,4548 14065,11322 13994,11322 13924,4048 13853,4506 13783,4917 13712,3992 13641,5316 13571,11322 13500,11322 13429,4822 13359,3774 13288,4981 13217,3605 13147,4118 13076,11322 13005,11322 12935,4116 12864,3263 12793,11322 12723,4473 12652,7009 12581,11322 12511,11322 12440,11322 12370,4301 12299,2529 12228,5672 12158,5429 12087,11322 12016,11322 11946,11322 11875,3487 11804,3850 11734,7365 11663,4571 11592,11322 11522,11322 11451,5324 11380,4548 11310,4235 11239,6099 11168,5392 11098,11322 11027,11322 10957,4642 10886,3808 10815,5890 10745,11322 10674,5995 10603,11322 10533,11322 10462,4233 10391,4449 10321,3443 10250,5327 10179,5828 10109,11322 10038,11322 9967,5702 9897,4107 9826,4000 9755,4994 9685,5497 9614,11322 9544,11322 9473,4859 9402,6084 9332,4365 9261,5589 9190,6491 9120,11322 9049,11322 8979,5249 8909,5192 8838,4236 8767,6265 8697,6105 8626,11322 8555,11322 8485,4734 8414,4263 8343,1763 8273,6868 8202,6002 8132,11322 8061,11322 7990,6495 7920,4294 7849,5508 7778,4356 7708,5922 7637,11322 7566,11322 7496,3225 7425,5154 7354,3795 7284,5316 7213,5288 7142,11322 7072,11322 7001,3692 6930,5162 6860,4212 6789,9503 6719,4395 6648,11322 6577,11322 6507,4854 6436,5797 6365,4759 6295,3120 6224,4968 6153,11322 6083,11322 6012,5161 5941,6411 5871,5158 5800,3439 5729,5227 5659,11322 5588,11322 5517,4668 5447,4395 5376,5167 5306,5113 5235,6187 5164,11322 5094,11322 5023,5665 4952,7665 4882,8191 4811,3395 4740,4737 4670,11322 4599,11322 4528,3962 4458,3126 4387,6126 4316,3462 4246,4642 4175,11322 4104,11322 4034,7989 3963,4568 3893,4147 3822,2722 3751,2809 3681,11322 3610,11322 3539,4395 3469,2593 3398,4468 3327,2130 3257,4904 3186,11322 3115,11322 3045,3009 2974,2663 2903,9276 2833,2230 2762,4156 2691,11322 2621,11322 2550,2663 2480,6525 2409,8074 2338,6868 2268,9432 2197,11322 2126,11322 2056,4395 1985,931 1914,931 1844,2529 1773,10167 1702,11322 1632,11322 1561,931 1490,931 1420,931 1349,931 1278,931 Z"/>
 <path fill="none" stroke="rgb(0,0,0)" stroke-width="50" stroke-linejoin="round" d="M 1278,931 L 1349,931 1420,931 1490,931 1561,931 1632,11322 1702,11322 1773,9397 1844,931 1914,931 1985,931 2056,4395 2126,11322 2197,11322 2268,9162 2338,5384 2409,6775 2480,6525 2550,2663 2621,11322 2691,11322 2762,3797 2833,2230 2903,9276 2974,2663 3045,3009 3115,11322 3186,11322 3257,4598 3327,1930 3398,4247 3469,2593 3539,3702 3610,11322 3681,11322 3751,2683 3822,2722 3893,3405 3963,4048 4034,7989 4104,11322 4175,11322 4246,4324 4316,3195 4387,5838 4458,3126 4528,3962 4599,11322 4670,11322 4740,4223 4811,3329 4882,8147 4952,7473 5023,5318 5094,11322 5164,11322 5235,5817 5306,4941 5376,4768 5447,2786 5517,3027 5588,11322 5659,11322 5729,3833 5800,2569 5871,3631 5941,5384 6012,3781 6083,11322 6153,11322 6224,4295 6295,2921 6365,3392 6436,5054 6507,4423 6577,11322 6648,11322 6719,3755 6789,9373 6860,3715 6930,3157 7001,2850 7072,11322 7142,11322 7213,4905 7284,5268 7354,3662 7425,4953 7496,3135 7566,11322 7637,11322 7708,5512 7778,3655 7849,4518 7920,2973 7990,5626 8061,11322 8132,11322 8202,5674 8273,6518 8343,1572 8414,3585 8485,4315 8555,11322 8626,11322 8697,5639 8767,5861 8838,3849 8909,4579 8979,4574 9049,11322 9120,11322 9190,5869 9261,5350 9332,3980 9402,4518 9473,4099 9544,11322 9614,11322 9685,4929 9755,4878 9826,3184 9897,3613 9967,4889 10038,11322 10109,11322 10179,5466 10250,5068 10321,2529 10391,4081 10462,3941 10533,11322 10603,11322 10674,5625 10745,11322 10815,5444 10886,3297 10957,3751 11027,11322 11098,11322 11168,3949 11239,5805 11310,3382 11380,3342 11451,4487 11522,11322 11592,11322 11663,4104 11734,6645 11804,3266 11875,2910 11946,11322 12016,11322 12087,11322 12158,5150 12228,5445 12299,2319 12370,3809 12440,11322 12511,11322 12581,11322 12652,6406 12723,4237 12793,11322 12864,2924 12935,4064 13005,11322 13076,11322 13147,3755 13217,3401 13288,4021 13359,3671 13429,4468 13500,11322 13571,11322 13641,4379 13712,3940 13783,4626 13853,3657 13924,3217 13994,11322 14065,11322 14136,4128 14206,4834 14277,3676 14348,3715 14418,3787 14489,11322 14560,11322 14630,4272 14701,3902 14772,4076 14842,3649 14913,3582 14984,11322 15054,11322 15125,3789 15195,3617 15195,5150 15125,5115 15054,11322 14984,11322 14913,5575 14842,5092 14772,5455 14701,5194 14630,5554 14560,11322 14489,11322 14418,5286 14348,5087 14277,4923 14206,5221 14136,4548 14065,11322 13994,11322 13924,4048 13853,4506 13783,4917 13712,3992 13641,5316 13571,11322 13500,11322 13429,4822 13359,3774 13288,4981 13217,3605 13147,4118 13076,11322 13005,11322 12935,4116 12864,3263 12793,11322 12723,4473 12652,7009 12581,11322 12511,11322 12440,11322 12370,4301 12299,2529 12228,5672 12158,5429 12087,11322 12016,11322 11946,11322 11875,3487 11804,3850 11734,7365 11663,4571 11592,11322 11522,11322 11451,5324 11380,4548 11310,4235 11239,6099 11168,5392 11098,11322 11027,11322 10957,4642 10886,3808 10815,5890 10745,11322 10674,5995 10603,11322 10533,11322 10462,4233 10391,4449 10321,3443 10250,5327 10179,5828 10109,11322 10038,11322 9967,5702 9897,4107 9826,4000 9755,4994 9685,5497 9614,11322 9544,11322 9473,4859 9402,6084 9332,4365 9261,5589 9190,6491 9120,11322 9049,11322 8979,5249 8909,5192 8838,4236 8767,6265 8697,6105 8626,11322 8555,11322 8485,4734 8414,4263 8343,1763 8273,6868 8202,6002 8132,11322 8061,11322 7990,6495 7920,4294 7849,5508 7778,4356 7708,5922 7637,11322 7566,11322 7496,3225 7425,5154 7354,3795 7284,5316 7213,5288 7142,11322 7072,11322 7001,3692 6930,5162 6860,4212 6789,9503 6719,4395 6648,11322 6577,11322 6507,4854 6436,5797 6365,4759 6295,3120 6224,4968 6153,11322 6083,11322 6012,5161 5941,6411 5871,5158 5800,3439 5729,5227 5659,11322 5588,11322 5517,4668 5447,4395 5376,5167 5306,5113 5235,6187 5164,11322 5094,11322 5023,5665 4952,7665 4882,8191 4811,3395 4740,4737 4670,11322 4599,11322 4528,3962 4458,3126 4387,6126 4316,3462 4246,4642 4175,11322 4104,11322 4034,7989 3963,4568 3893,4147 3822,2722 3751,2809 3681,11322 3610,11322 3539,4395 3469,2593 3398,4468 3327,2130 3257,4904 3186,11322 3115,11322 3045,3009 2974,2663 2903,9276 2833,2230 2762,4156 2691,11322 2621,11322 2550,2663 2480,6525 2409,8074 2338,6868 2268,9432 2197,11322 2126,11322 2056,4395 1985,931 1914,931 1844,2529 1773,10167 1702,11322 1632,11322 1561,931 1490,931 1420,931 1349,931 1278,931 Z"/>
 <path fill="rgb(232,242,161)" stroke="none" d="M 1278,931 L 1349,931 1420,931 1490,931 1561,931 1632,11322 1702,11322 1773,931 1844,931 1914,931 1985,931 2056,4395 2126,11322 2197,11322 2268,1875 2338,5384 2409,6775 2480,6126 2550,2663 2621,11322 2691,11322 2762,3439 2833,1797 2903,1094 2974,1508 3045,3009 3115,11322 3186,11322 3257,4598 3327,1930 3398,4247 3469,2593 3539,3702 3610,11322 3681,11322 3751,2683 3822,2722 3893,3405 3963,4048 4034,1439 4104,11322 4175,11322 4246,4324 4316,3195 4387,5838 4458,3126 4528,3962 4599,11322 4670,11322 4740,4223 4811,3329 4882,8147 4952,1700 5023,5318 5094,11322 5164,11322 5235,3776 5306,4941 5376,2769 5447,2786 5517,3027 5588,11322 5659,11322 5729,3833 5800,2569 5871,3631 5941,2472 6012,3781 6083,11322 6153,11322 6224,4295 6295,2921 6365,3392 6436,4972 6507,1922 6577,11322 6648,11322 6719,3169 6789,8853 6860,3218 6930,2712 7001,2522 7072,11322 7142,11322 7213,3948 7284,4649 7354,3529 7425,3880 7496,2820 7566,11322 7637,11322 7708,4320 7778,3071 7849,4085 7920,2552 7990,4452 8061,11322 8132,11322 8202,4660 8273,5865 8343,1424 8414,2935 8485,3506 8555,11322 8626,11322 8697,4016 8767,5330 8838,2955 8909,3645 8979,3798 9049,11322 9120,11322 9190,4301 9261,4681 9332,2825 9402,3570 9473,3497 9544,11322 9614,11322 9685,4097 9755,4511 9826,2648 9897,2873 9967,3900 10038,11322 10109,11322 10179,4559 10250,4575 10321,2187 10391,3672 10462,3650 10533,11322 10603,11322 10674,4702 10745,11322 10815,4859 10886,2721 10957,3157 11027,11322 11098,11322 11168,3388 11239,4948 11310,2689 11380,2825 11451,3790 11522,11322 11592,11322 11663,3575 11734,6245 11804,2390 11875,2333 11946,11322 12016,11322 12087,11322 12158,4732 12228,4828 12299,1982 12370,3037 12440,11322 12511,11322 12581,11322 12652,5587 12723,4060 12793,11322 12864,2924 12935,2810 13005,11322 13076,11322 13147,3211 13217,3172 13288,3435 13359,3205 13429,3938 13500,11322 13571,11322 13641,3763 13712,3683 13783,4335 13853,3323 13924,2801 13994,11322 14065,11322 14136,3667 14206,4623 14277,3191 14348,3534 14418,3463 14489,11322 14560,11322 14630,4067 14701,3902 14772,2991 14842,3288 14913,3351 14984,11322 15054,11322 15125,3354 15195,3372 15195,3617 15125,3789 15054,11322 14984,11322 14913,3582 14842,3649 14772,4076 14701,3902 14630,4272 14560,11322 14489,11322 14418,3787 14348,3715 14277,3676 14206,4834 14136,4128 14065,11322 13994,11322 13924,3217 13853,3657 13783,4626 13712,3940 13641,4379 13571,11322 13500,11322 13429,4468 13359,3671 13288,4021 13217,3401 13147,3755 13076,11322 13005,11322 12935,4064 12864,2924 12793,11322 12723,4237 12652,6406 12581,11322 12511,11322 12440,11322 12370,3809 12299,2319 12228,5445 12158,5150 12087,11322 12016,11322 11946,11322 11875,2910 11804,3266 11734,6645 11663,4104 11592,11322 11522,11322 11451,4487 11380,3342 11310,3382 11239,5805 11168,3949 11098,11322 11027,11322 10957,3751 10886,3297 10815,5444 10745,11322 10674,5625 10603,11322 10533,11322 10462,3941 10391,4081 10321,2529 10250,5068 10179,5466 10109,11322 10038,11322 9967,4889 9897,3613 9826,3184 9755,4878 9685,4929 9614,11322 9544,11322 9473,4099 9402,4518 9332,3980 9261,5350 9190,5869 9120,11322 9049,11322 8979,4574 8909,4579 8838,3849 8767,5861 8697,5639 8626,11322 8555,11322 8485,4315 8414,3585 8343,1572 8273,6518 8202,5674 8132,11322 8061,11322 7990,5626 7920,2973 7849,4518 7778,3655 7708,5512 7637,11322 7566,11322 7496,3135 7425,4953 7354,3662 7284,5268 7213,4905 7142,11322 7072,11322 7001,2850 6930,3157 6860,3715 6789,9373 6719,3755 6648,11322 6577,11322 6507,4423 6436,5054 6365,3392 6295,2921 6224,4295 6153,11322 6083,11322 6012,3781 5941,5384 5871,3631 5800,2569 5729,3833 5659,11322 5588,11322 5517,3027 5447,2786 5376,4768 5306,4941 5235,5817 5164,11322 5094,11322 5023,5318 4952,7473 4882,8147 4811,3329 4740,4223 4670,11322 4599,11322 4528,3962 4458,3126 4387,5838 4316,3195 4246,4324 4175,11322 4104,11322 4034,7989 3963,4048 3893,3405 3822,2722 3751,2683 3681,11322 3610,11322 3539,3702 3469,2593 3398,4247 3327,1930 3257,4598 3186,11322 3115,11322 3045,3009 2974,2663 2903,9276 2833,2230 2762,3797 2691,11322 2621,11322 2550,2663 2480,6525 2409,6775 2338,5384 2268,9162 2197,11322 2126,11322 2056,4395 1985,931 1914,931 1844,931 1773,9397 1702,11322 1632,11322 1561,931 1490,931 1420,931 1349,931 1278,931 Z"/>
 <path fill="none" stroke="rgb(0,0,0)" stroke-width="50" stroke-linejoin="round" d="M 1278,931 L 1349,931 1420,931 1490,931 1561,931 1632,11322 1702,11322 1773,931 1844,931 1914,931 1985,931 2056,4395 2126,11322 2197,11322 2268,1875 2338,5384 2409,6775 2480,6126 2550,2663 2621,11322 2691,11322 2762,3439 2833,1797 2903,1094 2974,1508 3045,3009 3115,11322 3186,11322 3257,4598 3327,1930 3398,4247 3469,2593 3539,3702 3610,11322 3681,11322 3751,2683 3822,2722 3893,3405 3963,4048 4034,1439 4104,11322 4175,11322 4246,4324 4316,3195 4387,5838 4458,3126 4528,3962 4599,11322 4670,11322 4740,4223 4811,3329 4882,8147 4952,1700 5023,5318 5094,11322 5164,11322 5235,3776 5306,4941 5376,2769 5447,2786 5517,3027 5588,11322 5659,11322 5729,3833 5800,2569 5871,3631 5941,2472 6012,3781 6083,11322 6153,11322 6224,4295 6295,2921 6365,3392 6436,4972 6507,1922 6577,11322 6648,11322 6719,3169 6789,8853 6860,3218 6930,2712 7001,2522 7072,11322 7142,11322 7213,3948 7284,4649 7354,3529 7425,3880 7496,2820 7566,11322 7637,11322 7708,4320 7778,3071 7849,4085 7920,2552 7990,4452 8061,11322 8132,11322 8202,4660 8273,5865 8343,1424 8414,2935 8485,3506 8555,11322 8626,11322 8697,4016 8767,5330 8838,2955 8909,3645 8979,3798 9049,11322 9120,11322 9190,4301 9261,4681 9332,2825 9402,3570 9473,3497 9544,11322 9614,11322 9685,4097 9755,4511 9826,2648 9897,2873 9967,3900 10038,11322 10109,11322 10179,4559 10250,4575 10321,2187 10391,3672 10462,3650 10533,11322 10603,11322 10674,4702 10745,11322 10815,4859 10886,2721 10957,3157 11027,11322 11098,11322 11168,3388 11239,4948 11310,2689 11380,2825 11451,3790 11522,11322 11592,11322 11663,3575 11734,6245 11804,2390 11875,2333 11946,11322 12016,11322 12087,11322 12158,4732 12228,4828 12299,1982 12370,3037 12440,11322 12511,11322 12581,11322 12652,5587 12723,4060 12793,11322 12864,2924 12935,2810 13005,11322 13076,11322 13147,3211 13217,3172 13288,3435 13359,3205 13429,3938 13500,11322 13571,11322 13641,3763 13712,3683 13783,4335 13853,3323 13924,2801 13994,11322 14065,11322 14136,3667 14206,4623 14277,3191 14348,3534 14418,3463 14489,11322 14560,11322 14630,4067 14701,3902 14772,2991 14842,3288 14913,3351 14984,11322 15054,11322 15125,3354 15195,3372 15195,3617 15125,3789 15054,11322 14984,11322 14913,3582 14842,3649 14772,4076 14701,3902 14630,4272 14560,11322 14489,11322 14418,3787 14348,3715 14277,3676 14206,4834 14136,4128 14065,11322 13994,11322 13924,3217 13853,3657 13783,4626 13712,3940 13641,4379 13571,11322 13500,11322 13429,4468 13359,3671 13288,4021 13217,3401 13147,3755 13076,11322 13005,11322 12935,4064 12864,2924 12793,11322 12723,4237 12652,6406 12581,11322 12511,11322 12440,11322 12370,3809 12299,2319 12228,5445 12158,5150 12087,11322 12016,11322 11946,11322 11875,2910 11804,3266 11734,6645 11663,4104 11592,11322 11522,11322 11451,4487 11380,3342 11310,3382 11239,5805 11168,3949 11098,11322 11027,11322 10957,3751 10886,3297 10815,5444 10745,11322 10674,5625 10603,11322 10533,11322 10462,3941 10391,4081 10321,2529 10250,5068 10179,5466 10109,11322 10038,11322 9967,4889 9897,3613 9826,3184 9755,4878 9685,4929 9614,11322 9544,11322 9473,4099 9402,4518 9332,3980 9261,5350 9190,5869 9120,11322 9049,11322 8979,4574 8909,4579 8838,3849 8767,5861 8697,5639 8626,11322 8555,11322 8485,4315 8414,3585 8343,1572 8273,6518 8202,5674 8132,11322 8061,11322 7990,5626 7920,2973 7849,4518 7778,3655 7708,5512 7637,11322 7566,11322 7496,3135 7425,4953 7354,3662 7284,5268 7213,4905 7142,11322 7072,11322 7001,2850 6930,3157 6860,3715 6789,9373 6719,3755 6648,11322 6577,11322 6507,4423 6436,5054 6365,3392 6295,2921 6224,4295 6153,11322 6083,11322 6012,3781 5941,5384 5871,3631 5800,2569 5729,3833 5659,11322 5588,11322 5517,3027 5447,2786 5376,4768 5306,4941 5235,5817 5164,11322 5094,11322 5023,5318 4952,7473 4882,8147 4811,3329 4740,4223 4670,11322 4599,11322 4528,3962 4458,3126 4387,5838 4316,3195 4246,4324 4175,11322 4104,11322 4034,7989 3963,4048 3893,3405 3822,2722 3751,2683 3681,11322 3610,11322 3539,3702 3469,2593 3398,4247 3327,1930 3257,4598 3186,11322 3115,11322 3045,3009 2974,2663 2903,9276 2833,2230 2762,3797 2691,11322 2621,11322 2550,2663 2480,6525 2409,6775 2338,5384 2268,9162 2197,11322 2126,11322 2056,4395 1985,931 1914,931 1844,931 1773,9397 1702,11322 1632,11322 1561,931 1490,931 1420,931 1349,931 1278,931 Z"/>
 <path fill="rgb(174,207,0)" stroke="none" d="M 1278,931 L 1349,931 1420,931 1490,931 1561,931 1632,11322 1702,11322 1773,931 1844,931 1914,931 1985,931 2056,931 2126,11322 2197,11322 2268,931 2338,931 2409,931 2480,931 2550,931 2621,11322 2691,11322 2762,931 2833,931 2903,931 2974,931 3045,931 3115,11322 3186,11322 3257,931 3327,931 3398,931 3469,931 3539,931 3610,11322 3681,11322 3751,931 3822,931 3893,931 3963,931 4034,931 4104,11322 4175,11322 4246,931 4316,931 4387,931 4458,931 4528,931 4599,11322 4670,11322 4740,931 4811,931 4882,931 4952,931 5023,931 5094,11322 5164,11322 5235,931 5306,931 5376,931 5447,931 5517,931 5588,11322 5659,11322 5729,931 5800,931 5871,931 5941,931 6012,931 6083,11322 6153,11322 6224,931 6342,931 6365,931 6436,931 6507,931 6577,11322 6648,11322 6719,931 6789,931 6860,931 6930,931 7001,931 7072,11322 7142,11322 7213,931 7284,931 7354,931 7425,931 7496,931 7566,11322 7637,11322 7708,931 7778,931 7849,931 7990,931 8061,11322 8132,11322 8202,931 8273,931 8343,931 8414,931 8485,931 8555,11322 8626,11322 8697,931 8767,931 8885,931 8909,931 8979,931 9049,11322 9120,11322 9190,931 9261,931 9402,931 9473,931 9544,11322 9614,11322 9685,931 9755,931 9826,931 9897,931 9967,931 10038,11322 10109,11322 10179,931 10250,931 10321,931 10391,931 10462,931 10533,11322 10603,11322 10674,931 10745,11322 10815,931 10886,931 10957,931 11027,11322 11098,11322 11168,931 11239,931 11310,931 11380,931 11451,931 11522,11322 11592,11322 11663,931 11734,931 11804,931 11875,931 11946,11322 12016,11322 12087,11322 12158,931 12228,931 12299,931 12370,931 12440,11322 12511,11322 12581,11322 12652,931 12723,931 12793,11322 12864,931 12935,931 13005,11322 13076,11322 13147,931 13217,931 13288,931 13359,931 13429,931 13500,11322 13571,11322 13641,931 13712,931 13783,931 13924,931 13994,11322 14065,11322 14136,931 14206,931 14277,931 14348,931 14418,931 14489,11322 14560,11322 14630,931 14701,931 14772,931 14842,931 14913,931 14984,11322 15054,11322 15125,931 15195,931 15195,3372 15125,3354 15054,11322 14984,11322 14913,3351 14842,3288 14772,2991 14701,3902 14630,4067 14560,11322 14489,11322 14418,3463 14348,3534 14277,3191 14206,4623 14136,3667 14065,11322 13994,11322 13924,2801 13853,3323 13783,4335 13712,3683 13641,3763 13571,11322 13500,11322 13429,3938 13359,3205 13288,3435 13217,3172 13147,3211 13076,11322 13005,11322 12935,2810 12864,2924 12793,11322 12723,4060 12652,5587 12581,11322 12511,11322 12440,11322 12370,3037 12299,1982 12228,4828 12158,4732 12087,11322 12016,11322 11946,11322 11875,2333 11804,2390 11734,6245 11663,3575 11592,11322 11522,11322 11451,3790 11380,2825 11310,2689 11239,4948 11168,3388 11098,11322 11027,11322 10957,3157 10886,2721 10815,4859 10745,11322 10674,4702 10603,11322 10533,11322 10462,3650 10391,3672 10321,2187 10250,4575 10179,4559 10109,11322 10038,11322 9967,3900 9897,2873 9826,2648 9755,4511 9685,4097 9614,11322 9544,11322 9473,3497 9402,3570 9332,2825 9261,4681 9190,4301 9120,11322 9049,11322 8979,3798 8909,3645 8838,2955 8767,5330 8697,4016 8626,11322 8555,11322 8485,3506 8414,2935 8343,1424 8273,5865 8202,4660 8132,11322 8061,11322 7990,4452 7920,2552 7849,4085 7778,3071 7708,4320 7637,11322 7566,11322 7496,2820 7425,3880 7354,3529 7284,4649 7213,3948 7142,11322 7072,11322 7001,2522 6930,2712 6860,3218 6789,8853 6719,3169 6648,11322 6577,11322 6507,1922 6436,4972 6365,3392 6295,2921 6224,4295 6153,11322 6083,11322 6012,3781 5941,2472 5871,3631 5800,2569 5729,3833 5659,11322 5588,11322 5517,3027 5447,2786 5376,2769 5306,4941 5235,3776 5164,11322 5094,11322 5023,5318 4952,1700 4882,8147 4811,3329 4740,4223 4670,11322 4599,11322 4528,3962 4458,3126 4387,5838 4316,3195 4246,4324 4175,11322 4104,11322 4034,1439 3963,4048 3893,3405 3822,2722 3751,2683 3681,11322 3610,11322 3539,3702 3469,2593 3398,4247 3327,1930 3257,4598 3186,11322 3115,11322 3045,3009 2974,1508 2903,1094 2833,1797 2762,3439 2691,11322 2621,11322 2550,2663 2480,6126 2409,6775 2338,5384 2268,1875 2197,11322 2126,11322 2056,4395 1985,931 1914,931 1844,931 1773,931 1702,11322 1632,11322 1561,931 1490,931 1420,931 1349,931 1278,931 Z"/>
 <path fill="none" stroke="rgb(0,0,0)" stroke-width="50" stroke-linejoin="round" d="M 1278,931 L 1349,931 1420,931 1490,931 1561,931 1632,11322 1702,11322 1773,931 1844,931 1914,931 1985,931 2056,931 2126,11322 2197,11322 2268,931 2338,931 2409,931 2480,931 2550,931 2621,11322 2691,11322 2762,931 2833,931 2903,931 2974,931 3045,931 3115,11322 3186,11322 3257,931 3327,931 3398,931 3469,931 3539,931 3610,11322 3681,11322 3751,931 3822,931 3893,931 3963,931 4034,931 4104,11322 4175,11322 4246,931 4316,931 4387,931 4458,931 4528,931 4599,11322 4670,11322 4740,931 4811,931 4882,931 4952,931 5023,931 5094,11322 5164,11322 5235,931 5306,931 5376,931 5447,931 5517,931 5588,11322 5659,11322 5729,931 5800,931 5871,931 5941,931 6012,931 6083,11322 6153,11322 6224,931 6342,931 6365,931 6436,931 6507,931 6577,11322 6648,11322 6719,931 6789,931 6860,931 6930,931 7001,931 7072,11322 7142,11322 7213,931 7284,931 7354,931 7425,931 7496,931 7566,11322 7637,11322 7708,931 7778,931 7849,931 7990,931 8061,11322 8132,11322 8202,931 8273,931 8343,931 8414,931 8485,931 8555,11322 8626,11322 8697,931 8767,931 8885,931 8909,931 8979,931 9049,11322 9120,11322 9190,931 9261,931 9402,931 9473,931 9544,11322 9614,11322 9685,931 9755,931 9826,931 9897,931 9967,931 10038,11322 10109,11322 10179,931 10250,931 10321,931 10391,931 10462,931 10533,11322 10603,11322 10674,931 10745,11322 10815,931 10886,931 10957,931 11027,11322 11098,11322 11168,931 11239,931 11310,931 11380,931 11451,931 11522,11322 11592,11322 11663,931 11734,931 11804,931 11875,931 11946,11322 12016,11322 12087,11322 12158,931 12228,931 12299,931 12370,931 12440,11322 12511,11322 12581,11322 12652,931 12723,931 12793,11322 12864,931 12935,931 13005,11322 13076,11322 13147,931 13217,931 13288,931 13359,931 13429,931 13500,11322 13571,11322 13641,931 13712,931 13783,931 13924,931 13994,11322 14065,11322 14136,931 14206,931 14277,931 14348,931 14418,931 14489,11322 14560,11322 14630,931 14701,931 14772,931 14842,931 14913,931 14984,11322 15054,11322 15125,931 15195,931 15195,3372 15125,3354 15054,11322 14984,11322 14913,3351 14842,3288 14772,2991 14701,3902 14630,4067 14560,11322 14489,11322 14418,3463 14348,3534 14277,3191 14206,4623 14136,3667 14065,11322 13994,11322 13924,2801 13853,3323 13783,4335 13712,3683 13641,3763 13571,11322 13500,11322 13429,3938 13359,3205 13288,3435 13217,3172 13147,3211 13076,11322 13005,11322 12935,2810 12864,2924 12793,11322 12723,4060 12652,5587 12581,11322 12511,11322 12440,11322 12370,3037 12299,1982 12228,4828 12158,4732 12087,11322 12016,11322 11946,11322 11875,2333 11804,2390 11734,6245 11663,3575 11592,11322 11522,11322 11451,3790 11380,2825 11310,2689 11239,4948 11168,3388 11098,11322 11027,11322 10957,3157 10886,2721 10815,4859 10745,11322 10674,4702 10603,11322 10533,11322 10462,3650 10391,3672 10321,2187 10250,4575 10179,4559 10109,11322 10038,11322 9967,3900 9897,2873 9826,2648 9755,4511 9685,4097 9614,11322 9544,11322 9473,3497 9402,3570 9332,2825 9261,4681 9190,4301 9120,11322 9049,11322 8979,3798 8909,3645 8838,2955 8767,5330 8697,4016 8626,11322 8555,11322 8485,3506 8414,2935 8343,1424 8273,5865 8202,4660 8132,11322 8061,11322 7990,4452 7920,2552 7849,4085 7778,3071 7708,4320 7637,11322 7566,11322 7496,2820 7425,3880 7354,3529 7284,4649 7213,3948 7142,11322 7072,11322 7001,2522 6930,2712 6860,3218 6789,8853 6719,3169 6648,11322 6577,11322 6507,1922 6436,4972 6365,3392 6295,2921 6224,4295 6153,11322 6083,11322 6012,3781 5941,2472 5871,3631 5800,2569 5729,3833 5659,11322 5588,11322 5517,3027 5447,2786 5376,2769 5306,4941 5235,3776 5164,11322 5094,11322 5023,5318 4952,1700 4882,8147 4811,3329 4740,4223 4670,11322 4599,11322 4528,3962 4458,3126 4387,5838 4316,3195 4246,4324 4175,11322 4104,11322 4034,1439 3963,4048 3893,3405 3822,2722 3751,2683 3681,11322 3610,11322 3539,3702 3469,2593 3398,4247 3327,1930 3257,4598 3186,11322 3115,11322 3045,3009 2974,1508 2903,1094 2833,1797 2762,3439 2691,11322 2621,11322 2550,2663 2480,6126 2409,6775 2338,5384 2268,1875 2197,11322 2126,11322 2056,4395 1985,931 1914,931 1844,931 1773,931 1702,11322 1632,11322 1561,931 1490,931 1420,931 1349,931 1278,931 Z"/>
 <text class="TextShape"><tspan class="TextParagraph" font-family="Liberation Sans, sans-serif" font-size="353px" font-weight="400"><tspan class="TextPosition" x="854" y="11890"><tspan fill="rgb(0,0,0)" stroke="none">27/07</tspan></tspan></tspan></text>
 <text class="TextShape"><tspan class="TextParagraph" font-family="Liberation Sans, sans-serif" font-size="353px" font-weight="400"><tspan class="TextPosition" x="3045" y="11890"><tspan fill="rgb(0,0,0)" stroke="none">27/08</tspan></tspan></tspan></text>
 <text class="TextShape"><tspan class="TextParagraph" font-family="Liberation Sans, sans-serif" font-size="353px" font-weight="400"><tspan class="TextPosition" x="5235" y="11890"><tspan fill="rgb(0,0,0)" stroke="none">27/09</tspan></tspan></tspan></text>
 <text class="TextShape"><tspan class="TextParagraph" font-family="Liberation Sans, sans-serif" font-size="353px" font-weight="400"><tspan class="TextPosition" x="7354" y="11890"><tspan fill="rgb(0,0,0)" stroke="none">27/10</tspan></tspan></tspan></text>
 <text class="TextShape"><tspan class="TextParagraph" font-family="Liberation Sans, sans-serif" font-size="353px" font-weight="400"><tspan class="TextPosition" x="9544" y="11890"><tspan fill="rgb(0,0,0)" stroke="none">27/11</tspan></tspan></tspan></text>
 <text class="TextShape"><tspan class="TextParagraph" font-family="Liberation Sans, sans-serif" font-size="353px" font-weight="400"><tspan class="TextPosition" x="11664" y="11890"><tspan fill="rgb(0,0,0)" stroke="none">27/12</tspan></tspan></tspan></text>
 <text class="TextShape"><tspan class="TextParagraph" font-family="Liberation Sans, sans-serif" font-size="353px" font-weight="400"><tspan class="TextPosition" x="13854" y="11890"><tspan fill="rgb(0,0,0)" stroke="none">27/01</tspan></tspan></tspan></text>
 <text class="TextShape"><tspan class="TextParagraph" font-family="Liberation Sans, sans-serif" font-size="353px" font-weight="400"><tspan class="TextPosition" x="525" y="11443"><tspan fill="rgb(0,0,0)" stroke="none">0%</tspan></tspan></tspan></text>
 <text class="TextShape"><tspan class="TextParagraph" font-family="Liberation Sans, sans-serif" font-size="353px" font-weight="400"><tspan class="TextPosition" x="340" y="10403"><tspan fill="rgb(0,0,0)" stroke="none">10%</tspan></tspan></tspan></text>
 <text class="TextShape"><tspan class="TextParagraph" font-family="Liberation Sans, sans-serif" font-size="353px" font-weight="400"><tspan class="TextPosition" x="340" y="9364"><tspan fill="rgb(0,0,0)" stroke="none">20%</tspan></tspan></tspan></text>
 <text class="TextShape"><tspan class="TextParagraph" font-family="Liberation Sans, sans-serif" font-size="353px" font-weight="400"><tspan class="TextPosition" x="340" y="8325"><tspan fill="rgb(0,0,0)" stroke="none">30%</tspan></tspan></tspan></text>
 <text class="TextShape"><tspan class="TextParagraph" font-family="Liberation Sans, sans-serif" font-size="353px" font-weight="400"><tspan class="TextPosition" x="340" y="7286"><tspan fill="rgb(0,0,0)" stroke="none">40%</tspan></tspan></tspan></text>
 <text class="TextShape"><tspan class="TextParagraph" font-family="Liberation Sans, sans-serif" font-size="353px" font-weight="400"><tspan class="TextPosition" x="340" y="6247"><tspan fill="rgb(0,0,0)" stroke="none">50%</tspan></tspan></tspan></text>
 <text class="TextShape"><tspan class="TextParagraph" font-family="Liberation Sans, sans-serif" font-size="353px" font-weight="400"><tspan class="TextPosition" x="340" y="5207"><tspan fill="rgb(0,0,0)" stroke="none">60%</tspan></tspan></tspan></text>
 <text class="TextShape"><tspan class="TextParagraph" font-family="Liberation Sans, sans-serif" font-size="353px" font-weight="400"><tspan class="TextPosition" x="340" y="4168"><tspan fill="rgb(0,0,0)" stroke="none">70%</tspan></tspan></tspan></text>
 <text class="TextShape"><tspan class="TextParagraph" font-family="Liberation Sans, sans-serif" font-size="353px" font-weight="400"><tspan class="TextPosition" x="340" y="3129"><tspan fill="rgb(0,0,0)" stroke="none">80%</tspan></tspan></tspan></text>
 <text class="TextShape"><tspan class="TextParagraph" font-family="Liberation Sans, sans-serif" font-size="353px" font-weight="400"><tspan class="TextPosition" x="340" y="2090"><tspan fill="rgb(0,0,0)" stroke="none">90%</tspan></tspan></tspan></text>
 <text class="TextShape"><tspan class="TextParagraph" font-family="Liberation Sans, sans-serif" font-size="353px" font-weight="400"><tspan class="TextPosition" x="155" y="1051"><tspan fill="rgb(0,0,0)" stroke="none">100%</tspan></tspan></tspan></text>
 <text class="TextShape"><tspan class="TextParagraph" font-family="Liberation Sans, sans-serif" font-size="459px" font-weight="400"><tspan class="TextPosition" x="4599" y="724"><tspan fill="rgb(0,0,0)" stroke="none">Covid-19 (porcentaje de muertes diarias)</tspan></tspan></tspan></text>
 <text class="TextShape"><tspan class="TextParagraph" font-family="Arial, sans-serif" font-size="423px" font-weight="400"><tspan class="TextPosition" x="15325" y="10500"><tspan fill="rgb(0,0,0)" stroke="none">Andaluca</tspan></tspan></tspan></text>
 <text class="TextShape"><tspan class="TextParagraph" font-family="Arial, sans-serif" font-size="423px" font-weight="400"><tspan class="TextPosition" x="15293" y="6285"><tspan fill="rgb(0,0,0)" stroke="none">Catalua</tspan></tspan></tspan></text>
 <text class="TextShape"><tspan class="TextParagraph" font-family="Arial, sans-serif" font-size="423px" font-weight="400"><tspan class="TextPosition" x="15402" y="4808"><tspan fill="rgb(0,0,0)" stroke="none">C.LaMancha</tspan></tspan></tspan></text>
 <text class="TextShape"><tspan class="TextParagraph" font-family="Arial, sans-serif" font-size="423px" font-weight="400"><tspan class="TextPosition" x="15295" y="5495"><tspan fill="rgb(0,0,0)" stroke="none">Cast. Len</tspan></tspan></tspan></text>
 <text class="TextShape"><tspan class="TextParagraph" font-family="Arial, sans-serif" font-size="423px" font-weight="400"><tspan class="TextPosition" x="15393" y="7827"><tspan fill="rgb(0,0,0)" stroke="none">C Valenciana</tspan></tspan></tspan></text>
 <text class="TextShape"><tspan class="TextParagraph" font-family="Arial, sans-serif" font-size="423px" font-weight="400"><tspan class="TextPosition" x="15403" y="2173"><tspan fill="rgb(0,0,0)" stroke="none">Resto</tspan></tspan></tspan></text>
 <text class="TextShape"><tspan class="TextParagraph" font-family="Arial, sans-serif" font-size="423px" font-weight="400"><tspan class="TextPosition" x="15380" y="8778"><tspan fill="rgb(0,0,0)" stroke="none">Madrid</tspan></tspan></tspan></text>
 <text class="TextShape"><tspan class="TextParagraph" font-family="Arial, sans-serif" font-size="423px" font-weight="400"><tspan class="TextPosition" x="15336" y="3724"><tspan fill="rgb(0,0,0)" stroke="none">Aragn</tspan></tspan></tspan></text>
</svg>