<?xml version="1.0" encoding="UTF-8"?>
<!DOCTYPE svg PUBLIC "-//W3C//DTD SVG 1.1//EN" "http://www.w3.org/Graphics/SVG/1.1/DTD/svg11.dtd">
<svg width="150mm" height="120mm" viewBox="0 0 15000 12000" version="1.1" xmlns="http://www.w3.org/2000/svg" xmlns:xlink="http://www.w3.org/1999/xlink" stroke-width="28.222" stroke-linejoin="round" xml:space="preserve">
 <path fill="rgb(255,255,255)" stroke="none" d="M 7500,12000 L 0,12000 0,0 15000,0 15000,12000 7500,12000 Z"/>
 <path fill="none" stroke="rgb(0,0,0)" stroke-linejoin="round" d="M 7977,11174 L 1269,11174 1269,1028 14686,1028 14686,11174 7977,11174 Z"/>
 <path fill="none" stroke="rgb(0,0,0)" stroke-linejoin="round" d="M 14686,11173 L 1269,11173"/>
 <path fill="none" stroke="rgb(0,0,0)" stroke-linejoin="round" d="M 14686,9904 L 1269,9904"/>
 <path fill="none" stroke="rgb(0,0,0)" stroke-linejoin="round" d="M 14686,8636 L 1269,8636"/>
 <path fill="none" stroke="rgb(0,0,0)" stroke-linejoin="round" d="M 14686,7367 L 1269,7367"/>
 <path fill="none" stroke="rgb(0,0,0)" stroke-linejoin="round" d="M 14686,6099 L 1269,6099"/>
 <path fill="none" stroke="rgb(0,0,0)" stroke-linejoin="round" d="M 14686,4832 L 1269,4832"/>
 <path fill="none" stroke="rgb(0,0,0)" stroke-linejoin="round" d="M 14686,3563 L 1269,3563"/>
 <path fill="none" stroke="rgb(0,0,0)" stroke-linejoin="round" d="M 14686,2295 L 1269,2295"/>
 <path fill="none" stroke="rgb(0,0,0)" stroke-linejoin="round" d="M 14686,1027 L 1269,1027"/>
 <path fill="none" stroke="rgb(0,0,0)" stroke-linejoin="round" d="M 1269,11323 L 1269,11173"/>
 <path fill="none" stroke="rgb(0,0,0)" stroke-linejoin="round" d="M 1269,11323 L 1269,11173"/>
 <path fill="none" stroke="rgb(0,0,0)" stroke-linejoin="round" d="M 2692,11323 L 2692,11173"/>
 <path fill="none" stroke="rgb(0,0,0)" stroke-linejoin="round" d="M 2692,11323 L 2692,11173"/>
 <path fill="none" stroke="rgb(0,0,0)" stroke-linejoin="round" d="M 4115,11323 L 4115,11173"/>
 <path fill="none" stroke="rgb(0,0,0)" stroke-linejoin="round" d="M 4115,11323 L 4115,11173"/>
 <path fill="none" stroke="rgb(0,0,0)" stroke-linejoin="round" d="M 5538,11323 L 5538,11173"/>
 <path fill="none" stroke="rgb(0,0,0)" stroke-linejoin="round" d="M 5538,11323 L 5538,11173"/>
 <path fill="none" stroke="rgb(0,0,0)" stroke-linejoin="round" d="M 6961,11323 L 6961,11173"/>
 <path fill="none" stroke="rgb(0,0,0)" stroke-linejoin="round" d="M 6961,11323 L 6961,11173"/>
 <path fill="none" stroke="rgb(0,0,0)" stroke-linejoin="round" d="M 8383,11323 L 8383,11173"/>
 <path fill="none" stroke="rgb(0,0,0)" stroke-linejoin="round" d="M 8383,11323 L 8383,11173"/>
 <path fill="none" stroke="rgb(0,0,0)" stroke-linejoin="round" d="M 9806,11323 L 9806,11173"/>
 <path fill="none" stroke="rgb(0,0,0)" stroke-linejoin="round" d="M 9806,11323 L 9806,11173"/>
 <path fill="none" stroke="rgb(0,0,0)" stroke-linejoin="round" d="M 11229,11323 L 11229,11173"/>
 <path fill="none" stroke="rgb(0,0,0)" stroke-linejoin="round" d="M 11229,11323 L 11229,11173"/>
 <path fill="none" stroke="rgb(0,0,0)" stroke-linejoin="round" d="M 12652,11323 L 12652,11173"/>
 <path fill="none" stroke="rgb(0,0,0)" stroke-linejoin="round" d="M 12652,11323 L 12652,11173"/>
 <path fill="none" stroke="rgb(0,0,0)" stroke-linejoin="round" d="M 14076,11323 L 14076,11173"/>
 <path fill="none" stroke="rgb(0,0,0)" stroke-linejoin="round" d="M 14076,11323 L 14076,11173"/>
 <path fill="none" stroke="rgb(0,0,0)" stroke-linejoin="round" d="M 1269,11173 L 14686,11173"/>
 <path fill="none" stroke="rgb(0,0,0)" stroke-linejoin="round" d="M 1119,11173 L 1269,11173"/>
 <path fill="none" stroke="rgb(0,0,0)" stroke-linejoin="round" d="M 1119,11173 L 1269,11173"/>
 <path fill="none" stroke="rgb(0,0,0)" stroke-linejoin="round" d="M 1119,9904 L 1269,9904"/>
 <path fill="none" stroke="rgb(0,0,0)" stroke-linejoin="round" d="M 1119,9904 L 1269,9904"/>
 <path fill="none" stroke="rgb(0,0,0)" stroke-linejoin="round" d="M 1119,8636 L 1269,8636"/>
 <path fill="none" stroke="rgb(0,0,0)" stroke-linejoin="round" d="M 1119,8636 L 1269,8636"/>
 <path fill="none" stroke="rgb(0,0,0)" stroke-linejoin="round" d="M 1119,7367 L 1269,7367"/>
 <path fill="none" stroke="rgb(0,0,0)" stroke-linejoin="round" d="M 1119,7367 L 1269,7367"/>
 <path fill="none" stroke="rgb(0,0,0)" stroke-linejoin="round" d="M 1119,6099 L 1269,6099"/>
 <path fill="none" stroke="rgb(0,0,0)" stroke-linejoin="round" d="M 1119,6099 L 1269,6099"/>
 <path fill="none" stroke="rgb(0,0,0)" stroke-linejoin="round" d="M 1119,4832 L 1269,4832"/>
 <path fill="none" stroke="rgb(0,0,0)" stroke-linejoin="round" d="M 1119,4832 L 1269,4832"/>
 <path fill="none" stroke="rgb(0,0,0)" stroke-linejoin="round" d="M 1119,3563 L 1269,3563"/>
 <path fill="none" stroke="rgb(0,0,0)" stroke-linejoin="round" d="M 1119,3563 L 1269,3563"/>
 <path fill="none" stroke="rgb(0,0,0)" stroke-linejoin="round" d="M 1119,2295 L 1269,2295"/>
 <path fill="none" stroke="rgb(0,0,0)" stroke-linejoin="round" d="M 1119,2295 L 1269,2295"/>
 <path fill="none" stroke="rgb(0,0,0)" stroke-linejoin="round" d="M 1119,1027 L 1269,1027"/>
 <path fill="none" stroke="rgb(0,0,0)" stroke-linejoin="round" d="M 1119,1027 L 1269,1027"/>
 <path fill="none" stroke="rgb(0,0,0)" stroke-linejoin="round" d="M 1269,11173 L 1269,1027"/>
 <path fill="none" stroke="rgb(0,0,0)" stroke-width="50" stroke-linejoin="round" d="M 5640,11171 L 5843,11166 6046,11165 6249,11160 6453,11151 6656,11151 6859,11137 7063,11119 7266,11094 7469,11066 7672,11030 7875,10989 8078,10899 8281,10839 8485,10772 8688,10707 8891,10604 9095,10489 9298,10384 9501,10274 9705,10191 9908,10089 10111,10011 10314,9918 10518,9834 10721,9737 10924,9680 11128,9581 11331,9496 11534,9357 11738,9291 11941,9215 12144,9110 12348,8999 12551,8947 12754,8894 12957,8823 13161,8746 13364,8683 13567,8609 13771,8541 13974,8458 14177,8397 14381,8312 14584,8265"/>
 <path fill="rgb(0,0,0)" stroke="none" d="M 5540,11171 L 5640,11271 5740,11171 5640,11071 5540,11171 Z"/>
 <path fill="none" stroke="rgb(0,0,0)" stroke-linejoin="round" d="M 5540,11171 L 5640,11271 5740,11171 5640,11071 5540,11171 Z"/>
 <path fill="rgb(0,0,0)" stroke="none" d="M 5743,11166 L 5843,11266 5943,11166 5843,11066 5743,11166 Z"/>
 <path fill="none" stroke="rgb(0,0,0)" stroke-linejoin="round" d="M 5743,11166 L 5843,11266 5943,11166 5843,11066 5743,11166 Z"/>
 <path fill="rgb(0,0,0)" stroke="none" d="M 5946,11165 L 6046,11265 6146,11165 6046,11065 5946,11165 Z"/>
 <path fill="none" stroke="rgb(0,0,0)" stroke-linejoin="round" d="M 5946,11165 L 6046,11265 6146,11165 6046,11065 5946,11165 Z"/>
 <path fill="rgb(0,0,0)" stroke="none" d="M 6149,11160 L 6249,11260 6349,11160 6249,11060 6149,11160 Z"/>
 <path fill="none" stroke="rgb(0,0,0)" stroke-linejoin="round" d="M 6149,11160 L 6249,11260 6349,11160 6249,11060 6149,11160 Z"/>
 <path fill="rgb(0,0,0)" stroke="none" d="M 6353,11151 L 6453,11251 6553,11151 6453,11051 6353,11151 Z"/>
 <path fill="none" stroke="rgb(0,0,0)" stroke-linejoin="round" d="M 6353,11151 L 6453,11251 6553,11151 6453,11051 6353,11151 Z"/>
 <path fill="rgb(0,0,0)" stroke="none" d="M 6556,11151 L 6656,11251 6756,11151 6656,11051 6556,11151 Z"/>
 <path fill="none" stroke="rgb(0,0,0)" stroke-linejoin="round" d="M 6556,11151 L 6656,11251 6756,11151 6656,11051 6556,11151 Z"/>
 <path fill="rgb(0,0,0)" stroke="none" d="M 6759,11137 L 6859,11237 6959,11137 6859,11037 6759,11137 Z"/>
 <path fill="none" stroke="rgb(0,0,0)" stroke-linejoin="round" d="M 6759,11137 L 6859,11237 6959,11137 6859,11037 6759,11137 Z"/>
 <path fill="rgb(0,0,0)" stroke="none" d="M 6963,11119 L 7063,11219 7163,11119 7063,11019 6963,11119 Z"/>
 <path fill="none" stroke="rgb(0,0,0)" stroke-linejoin="round" d="M 6963,11119 L 7063,11219 7163,11119 7063,11019 6963,11119 Z"/>
 <path fill="rgb(0,0,0)" stroke="none" d="M 7166,11094 L 7266,11194 7366,11094 7266,10994 7166,11094 Z"/>
 <path fill="none" stroke="rgb(0,0,0)" stroke-linejoin="round" d="M 7166,11094 L 7266,11194 7366,11094 7266,10994 7166,11094 Z"/>
 <path fill="rgb(0,0,0)" stroke="none" d="M 7369,11066 L 7469,11166 7568,11066 7469,10966 7369,11066 Z"/>
 <path fill="none" stroke="rgb(0,0,0)" stroke-linejoin="round" d="M 7369,11066 L 7469,11166 7568,11066 7469,10966 7369,11066 Z"/>
 <path fill="rgb(0,0,0)" stroke="none" d="M 7572,11030 L 7672,11130 7772,11030 7672,10930 7572,11030 Z"/>
 <path fill="none" stroke="rgb(0,0,0)" stroke-linejoin="round" d="M 7572,11030 L 7672,11130 7772,11030 7672,10930 7572,11030 Z"/>
 <path fill="rgb(0,0,0)" stroke="none" d="M 7775,10989 L 7875,11089 7975,10989 7875,10889 7775,10989 Z"/>
 <path fill="none" stroke="rgb(0,0,0)" stroke-linejoin="round" d="M 7775,10989 L 7875,11089 7975,10989 7875,10889 7775,10989 Z"/>
 <path fill="rgb(0,0,0)" stroke="none" d="M 7978,10899 L 8078,10999 8178,10899 8078,10799 7978,10899 Z"/>
 <path fill="none" stroke="rgb(0,0,0)" stroke-linejoin="round" d="M 7978,10899 L 8078,10999 8178,10899 8078,10799 7978,10899 Z"/>
 <path fill="rgb(0,0,0)" stroke="none" d="M 8181,10839 L 8281,10939 8381,10839 8281,10739 8181,10839 Z"/>
 <path fill="none" stroke="rgb(0,0,0)" stroke-linejoin="round" d="M 8181,10839 L 8281,10939 8381,10839 8281,10739 8181,10839 Z"/>
 <path fill="rgb(0,0,0)" stroke="none" d="M 8385,10772 L 8485,10872 8585,10772 8485,10672 8385,10772 Z"/>
 <path fill="none" stroke="rgb(0,0,0)" stroke-linejoin="round" d="M 8385,10772 L 8485,10872 8585,10772 8485,10672 8385,10772 Z"/>
 <path fill="rgb(0,0,0)" stroke="none" d="M 8588,10707 L 8688,10807 8788,10707 8688,10607 8588,10707 Z"/>
 <path fill="none" stroke="rgb(0,0,0)" stroke-linejoin="round" d="M 8588,10707 L 8688,10807 8788,10707 8688,10607 8588,10707 Z"/>
 <path fill="rgb(0,0,0)" stroke="none" d="M 8791,10604 L 8891,10704 8991,10604 8891,10504 8791,10604 Z"/>
 <path fill="none" stroke="rgb(0,0,0)" stroke-linejoin="round" d="M 8791,10604 L 8891,10704 8991,10604 8891,10504 8791,10604 Z"/>
 <path fill="rgb(0,0,0)" stroke="none" d="M 8995,10489 L 9095,10589 9195,10489 9095,10389 8995,10489 Z"/>
 <path fill="none" stroke="rgb(0,0,0)" stroke-linejoin="round" d="M 8995,10489 L 9095,10589 9195,10489 9095,10389 8995,10489 Z"/>
 <path fill="rgb(0,0,0)" stroke="none" d="M 9198,10384 L 9298,10484 9398,10384 9298,10284 9198,10384 Z"/>
 <path fill="none" stroke="rgb(0,0,0)" stroke-linejoin="round" d="M 9198,10384 L 9298,10484 9398,10384 9298,10284 9198,10384 Z"/>
 <path fill="rgb(0,0,0)" stroke="none" d="M 9401,10274 L 9501,10374 9601,10274 9501,10174 9401,10274 Z"/>
 <path fill="none" stroke="rgb(0,0,0)" stroke-linejoin="round" d="M 9401,10274 L 9501,10374 9601,10274 9501,10174 9401,10274 Z"/>
 <path fill="rgb(0,0,0)" stroke="none" d="M 9605,10191 L 9705,10291 9805,10191 9705,10091 9605,10191 Z"/>
 <path fill="none" stroke="rgb(0,0,0)" stroke-linejoin="round" d="M 9605,10191 L 9705,10291 9805,10191 9705,10091 9605,10191 Z"/>
 <path fill="rgb(0,0,0)" stroke="none" d="M 9808,10089 L 9908,10189 10008,10089 9908,9989 9808,10089 Z"/>
 <path fill="none" stroke="rgb(0,0,0)" stroke-linejoin="round" d="M 9808,10089 L 9908,10189 10008,10089 9908,9989 9808,10089 Z"/>
 <path fill="rgb(0,0,0)" stroke="none" d="M 10011,10011 L 10111,10111 10211,10011 10111,9911 10011,10011 Z"/>
 <path fill="none" stroke="rgb(0,0,0)" stroke-linejoin="round" d="M 10011,10011 L 10111,10111 10211,10011 10111,9911 10011,10011 Z"/>
 <path fill="rgb(0,0,0)" stroke="none" d="M 10214,9918 L 10314,10018 10414,9918 10314,9818 10214,9918 Z"/>
 <path fill="none" stroke="rgb(0,0,0)" stroke-linejoin="round" d="M 10214,9918 L 10314,10018 10414,9918 10314,9818 10214,9918 Z"/>
 <path fill="rgb(0,0,0)" stroke="none" d="M 10418,9834 L 10518,9934 10618,9834 10518,9734 10418,9834 Z"/>
 <path fill="none" stroke="rgb(0,0,0)" stroke-linejoin="round" d="M 10418,9834 L 10518,9934 10618,9834 10518,9734 10418,9834 Z"/>
 <path fill="rgb(0,0,0)" stroke="none" d="M 10621,9737 L 10721,9837 10821,9737 10721,9637 10621,9737 Z"/>
 <path fill="none" stroke="rgb(0,0,0)" stroke-linejoin="round" d="M 10621,9737 L 10721,9837 10821,9737 10721,9637 10621,9737 Z"/>
 <path fill="rgb(0,0,0)" stroke="none" d="M 10824,9680 L 10924,9780 11024,9680 10924,9580 10824,9680 Z"/>
 <path fill="none" stroke="rgb(0,0,0)" stroke-linejoin="round" d="M 10824,9680 L 10924,9780 11024,9680 10924,9580 10824,9680 Z"/>
 <path fill="rgb(0,0,0)" stroke="none" d="M 11028,9581 L 11128,9681 11228,9581 11128,9481 11028,9581 Z"/>
 <path fill="none" stroke="rgb(0,0,0)" stroke-linejoin="round" d="M 11028,9581 L 11128,9681 11228,9581 11128,9481 11028,9581 Z"/>
 <path fill="rgb(0,0,0)" stroke="none" d="M 11231,9496 L 11331,9596 11431,9496 11331,9396 11231,9496 Z"/>
 <path fill="none" stroke="rgb(0,0,0)" stroke-linejoin="round" d="M 11231,9496 L 11331,9596 11431,9496 11331,9396 11231,9496 Z"/>
 <path fill="rgb(0,0,0)" stroke="none" d="M 11434,9357 L 11534,9457 11634,9357 11534,9257 11434,9357 Z"/>
 <path fill="none" stroke="rgb(0,0,0)" stroke-linejoin="round" d="M 11434,9357 L 11534,9457 11634,9357 11534,9257 11434,9357 Z"/>
 <path fill="rgb(0,0,0)" stroke="none" d="M 11638,9291 L 11738,9391 11838,9291 11738,9191 11638,9291 Z"/>
 <path fill="none" stroke="rgb(0,0,0)" stroke-linejoin="round" d="M 11638,9291 L 11738,9391 11838,9291 11738,9191 11638,9291 Z"/>
 <path fill="rgb(0,0,0)" stroke="none" d="M 11841,9215 L 11941,9315 12041,9215 11941,9115 11841,9215 Z"/>
 <path fill="none" stroke="rgb(0,0,0)" stroke-linejoin="round" d="M 11841,9215 L 11941,9315 12041,9215 11941,9115 11841,9215 Z"/>
 <path fill="rgb(0,0,0)" stroke="none" d="M 12044,9110 L 12144,9210 12244,9110 12144,9010 12044,9110 Z"/>
 <path fill="none" stroke="rgb(0,0,0)" stroke-linejoin="round" d="M 12044,9110 L 12144,9210 12244,9110 12144,9010 12044,9110 Z"/>
 <path fill="rgb(0,0,0)" stroke="none" d="M 12248,8999 L 12348,9099 12448,8999 12348,8899 12248,8999 Z"/>
 <path fill="none" stroke="rgb(0,0,0)" stroke-linejoin="round" d="M 12248,8999 L 12348,9099 12448,8999 12348,8899 12248,8999 Z"/>
 <path fill="rgb(0,0,0)" stroke="none" d="M 12451,8947 L 12551,9047 12651,8947 12551,8847 12451,8947 Z"/>
 <path fill="none" stroke="rgb(0,0,0)" stroke-linejoin="round" d="M 12451,8947 L 12551,9047 12651,8947 12551,8847 12451,8947 Z"/>
 <path fill="rgb(0,0,0)" stroke="none" d="M 12654,8894 L 12754,8994 12854,8894 12754,8794 12654,8894 Z"/>
 <path fill="none" stroke="rgb(0,0,0)" stroke-linejoin="round" d="M 12654,8894 L 12754,8994 12854,8894 12754,8794 12654,8894 Z"/>
 <path fill="rgb(0,0,0)" stroke="none" d="M 12857,8823 L 12957,8923 13057,8823 12957,8723 12857,8823 Z"/>
 <path fill="none" stroke="rgb(0,0,0)" stroke-linejoin="round" d="M 12857,8823 L 12957,8923 13057,8823 12957,8723 12857,8823 Z"/>
 <path fill="rgb(0,0,0)" stroke="none" d="M 13061,8746 L 13161,8846 13261,8746 13161,8646 13061,8746 Z"/>
 <path fill="none" stroke="rgb(0,0,0)" stroke-linejoin="round" d="M 13061,8746 L 13161,8846 13261,8746 13161,8646 13061,8746 Z"/>
 <path fill="rgb(0,0,0)" stroke="none" d="M 13264,8683 L 13364,8783 13464,8683 13364,8583 13264,8683 Z"/>
 <path fill="none" stroke="rgb(0,0,0)" stroke-linejoin="round" d="M 13264,8683 L 13364,8783 13464,8683 13364,8583 13264,8683 Z"/>
 <path fill="rgb(0,0,0)" stroke="none" d="M 13467,8609 L 13567,8709 13667,8609 13567,8509 13467,8609 Z"/>
 <path fill="none" stroke="rgb(0,0,0)" stroke-linejoin="round" d="M 13467,8609 L 13567,8709 13667,8609 13567,8509 13467,8609 Z"/>
 <path fill="rgb(0,0,0)" stroke="none" d="M 13671,8541 L 13771,8641 13871,8541 13771,8441 13671,8541 Z"/>
 <path fill="none" stroke="rgb(0,0,0)" stroke-linejoin="round" d="M 13671,8541 L 13771,8641 13871,8541 13771,8441 13671,8541 Z"/>
 <path fill="rgb(0,0,0)" stroke="none" d="M 13874,8458 L 13974,8558 14074,8458 13974,8358 13874,8458 Z"/>
 <path fill="none" stroke="rgb(0,0,0)" stroke-linejoin="round" d="M 13874,8458 L 13974,8558 14074,8458 13974,8358 13874,8458 Z"/>
 <path fill="rgb(0,0,0)" stroke="none" d="M 14077,8397 L 14177,8497 14277,8397 14177,8297 14077,8397 Z"/>
 <path fill="none" stroke="rgb(0,0,0)" stroke-linejoin="round" d="M 14077,8397 L 14177,8497 14277,8397 14177,8297 14077,8397 Z"/>
 <path fill="rgb(0,0,0)" stroke="none" d="M 14281,8312 L 14381,8412 14481,8312 14381,8212 14281,8312 Z"/>
 <path fill="none" stroke="rgb(0,0,0)" stroke-linejoin="round" d="M 14281,8312 L 14381,8412 14481,8312 14381,8212 14281,8312 Z"/>
 <path fill="rgb(0,0,0)" stroke="none" d="M 14484,8265 L 14584,8365 14684,8265 14584,8165 14484,8265 Z"/>
 <path fill="none" stroke="rgb(0,0,0)" stroke-linejoin="round" d="M 14484,8265 L 14584,8365 14684,8265 14584,8165 14484,8265 Z"/>
 <path fill="none" stroke="rgb(255,66,14)" stroke-width="50" stroke-linejoin="round" d="M 5843,11171 L 6046,11169 6249,11165 6453,11161 6656,11157 6859,11145 7063,11136 7266,11118 7469,11103 7672,11079 7875,11043 8078,11015 8281,10963 8485,10911 8688,10853 8891,10765 9095,10691 9298,10612 9501,10518 9705,10431 9908,10359 10111,10255 10314,10176 10518,10098 10721,10007 10924,9927 11128,9869 11331,9800 11534,9741 11738,9676 11941,9624 12144,9571 12348,9525 12551,9477 12754,9432 12957,9396 13161,9360 13364,9323 13567,9279 13771,9243 13974,9201 14177,9166 14381,9128 14584,9094"/>
 <path fill="rgb(255,66,14)" stroke="none" d="M 5743,11171 L 5843,11271 5943,11171 5843,11071 5743,11171 Z"/>
 <path fill="none" stroke="rgb(255,66,14)" stroke-linejoin="round" d="M 5743,11171 L 5843,11271 5943,11171 5843,11071 5743,11171 Z"/>
 <path fill="rgb(255,66,14)" stroke="none" d="M 5946,11169 L 6046,11269 6146,11169 6046,11069 5946,11169 Z"/>
 <path fill="none" stroke="rgb(255,66,14)" stroke-linejoin="round" d="M 5946,11169 L 6046,11269 6146,11169 6046,11069 5946,11169 Z"/>
 <path fill="rgb(255,66,14)" stroke="none" d="M 6149,11165 L 6249,11265 6349,11165 6249,11065 6149,11165 Z"/>
 <path fill="none" stroke="rgb(255,66,14)" stroke-linejoin="round" d="M 6149,11165 L 6249,11265 6349,11165 6249,11065 6149,11165 Z"/>
 <path fill="rgb(255,66,14)" stroke="none" d="M 6353,11161 L 6453,11261 6553,11161 6453,11061 6353,11161 Z"/>
 <path fill="none" stroke="rgb(255,66,14)" stroke-linejoin="round" d="M 6353,11161 L 6453,11261 6553,11161 6453,11061 6353,11161 Z"/>
 <path fill="rgb(255,66,14)" stroke="none" d="M 6556,11157 L 6656,11257 6756,11157 6656,11057 6556,11157 Z"/>
 <path fill="none" stroke="rgb(255,66,14)" stroke-linejoin="round" d="M 6556,11157 L 6656,11257 6756,11157 6656,11057 6556,11157 Z"/>
 <path fill="rgb(255,66,14)" stroke="none" d="M 6759,11145 L 6859,11245 6959,11145 6859,11045 6759,11145 Z"/>
 <path fill="none" stroke="rgb(255,66,14)" stroke-linejoin="round" d="M 6759,11145 L 6859,11245 6959,11145 6859,11045 6759,11145 Z"/>
 <path fill="rgb(255,66,14)" stroke="none" d="M 6963,11136 L 7063,11236 7163,11136 7063,11036 6963,11136 Z"/>
 <path fill="none" stroke="rgb(255,66,14)" stroke-linejoin="round" d="M 6963,11136 L 7063,11236 7163,11136 7063,11036 6963,11136 Z"/>
 <path fill="rgb(255,66,14)" stroke="none" d="M 7166,11118 L 7266,11218 7366,11118 7266,11018 7166,11118 Z"/>
 <path fill="none" stroke="rgb(255,66,14)" stroke-linejoin="round" d="M 7166,11118 L 7266,11218 7366,11118 7266,11018 7166,11118 Z"/>
 <path fill="rgb(255,66,14)" stroke="none" d="M 7369,11103 L 7469,11203 7568,11103 7469,11003 7369,11103 Z"/>
 <path fill="none" stroke="rgb(255,66,14)" stroke-linejoin="round" d="M 7369,11103 L 7469,11203 7568,11103 7469,11003 7369,11103 Z"/>
 <path fill="rgb(255,66,14)" stroke="none" d="M 7572,11079 L 7672,11179 7772,11079 7672,10979 7572,11079 Z"/>
 <path fill="none" stroke="rgb(255,66,14)" stroke-linejoin="round" d="M 7572,11079 L 7672,11179 7772,11079 7672,10979 7572,11079 Z"/>
 <path fill="rgb(255,66,14)" stroke="none" d="M 7775,11043 L 7875,11143 7975,11043 7875,10943 7775,11043 Z"/>
 <path fill="none" stroke="rgb(255,66,14)" stroke-linejoin="round" d="M 7775,11043 L 7875,11143 7975,11043 7875,10943 7775,11043 Z"/>
 <path fill="rgb(255,66,14)" stroke="none" d="M 7978,11015 L 8078,11115 8178,11015 8078,10915 7978,11015 Z"/>
 <path fill="none" stroke="rgb(255,66,14)" stroke-linejoin="round" d="M 7978,11015 L 8078,11115 8178,11015 8078,10915 7978,11015 Z"/>
 <path fill="rgb(255,66,14)" stroke="none" d="M 8181,10963 L 8281,11063 8381,10963 8281,10863 8181,10963 Z"/>
 <path fill="none" stroke="rgb(255,66,14)" stroke-linejoin="round" d="M 8181,10963 L 8281,11063 8381,10963 8281,10863 8181,10963 Z"/>
 <path fill="rgb(255,66,14)" stroke="none" d="M 8385,10911 L 8485,11011 8585,10911 8485,10811 8385,10911 Z"/>
 <path fill="none" stroke="rgb(255,66,14)" stroke-linejoin="round" d="M 8385,10911 L 8485,11011 8585,10911 8485,10811 8385,10911 Z"/>
 <path fill="rgb(255,66,14)" stroke="none" d="M 8588,10853 L 8688,10953 8788,10853 8688,10753 8588,10853 Z"/>
 <path fill="none" stroke="rgb(255,66,14)" stroke-linejoin="round" d="M 8588,10853 L 8688,10953 8788,10853 8688,10753 8588,10853 Z"/>
 <path fill="rgb(255,66,14)" stroke="none" d="M 8791,10765 L 8891,10865 8991,10765 8891,10665 8791,10765 Z"/>
 <path fill="none" stroke="rgb(255,66,14)" stroke-linejoin="round" d="M 8791,10765 L 8891,10865 8991,10765 8891,10665 8791,10765 Z"/>
 <path fill="rgb(255,66,14)" stroke="none" d="M 8995,10691 L 9095,10791 9195,10691 9095,10591 8995,10691 Z"/>
 <path fill="none" stroke="rgb(255,66,14)" stroke-linejoin="round" d="M 8995,10691 L 9095,10791 9195,10691 9095,10591 8995,10691 Z"/>
 <path fill="rgb(255,66,14)" stroke="none" d="M 9198,10612 L 9298,10712 9398,10612 9298,10512 9198,10612 Z"/>
 <path fill="none" stroke="rgb(255,66,14)" stroke-linejoin="round" d="M 9198,10612 L 9298,10712 9398,10612 9298,10512 9198,10612 Z"/>
 <path fill="rgb(255,66,14)" stroke="none" d="M 9401,10518 L 9501,10618 9601,10518 9501,10418 9401,10518 Z"/>
 <path fill="none" stroke="rgb(255,66,14)" stroke-linejoin="round" d="M 9401,10518 L 9501,10618 9601,10518 9501,10418 9401,10518 Z"/>
 <path fill="rgb(255,66,14)" stroke="none" d="M 9605,10431 L 9705,10531 9805,10431 9705,10331 9605,10431 Z"/>
 <path fill="none" stroke="rgb(255,66,14)" stroke-linejoin="round" d="M 9605,10431 L 9705,10531 9805,10431 9705,10331 9605,10431 Z"/>
 <path fill="rgb(255,66,14)" stroke="none" d="M 9808,10359 L 9908,10459 10008,10359 9908,10259 9808,10359 Z"/>
 <path fill="none" stroke="rgb(255,66,14)" stroke-linejoin="round" d="M 9808,10359 L 9908,10459 10008,10359 9908,10259 9808,10359 Z"/>
 <path fill="rgb(255,66,14)" stroke="none" d="M 10011,10255 L 10111,10355 10211,10255 10111,10155 10011,10255 Z"/>
 <path fill="none" stroke="rgb(255,66,14)" stroke-linejoin="round" d="M 10011,10255 L 10111,10355 10211,10255 10111,10155 10011,10255 Z"/>
 <path fill="rgb(255,66,14)" stroke="none" d="M 10214,10176 L 10314,10276 10414,10176 10314,10076 10214,10176 Z"/>
 <path fill="none" stroke="rgb(255,66,14)" stroke-linejoin="round" d="M 10214,10176 L 10314,10276 10414,10176 10314,10076 10214,10176 Z"/>
 <path fill="rgb(255,66,14)" stroke="none" d="M 10418,10098 L 10518,10198 10618,10098 10518,9998 10418,10098 Z"/>
 <path fill="none" stroke="rgb(255,66,14)" stroke-linejoin="round" d="M 10418,10098 L 10518,10198 10618,10098 10518,9998 10418,10098 Z"/>
 <path fill="rgb(255,66,14)" stroke="none" d="M 10621,10007 L 10721,10107 10821,10007 10721,9907 10621,10007 Z"/>
 <path fill="none" stroke="rgb(255,66,14)" stroke-linejoin="round" d="M 10621,10007 L 10721,10107 10821,10007 10721,9907 10621,10007 Z"/>
 <path fill="rgb(255,66,14)" stroke="none" d="M 10824,9927 L 10924,10027 11024,9927 10924,9827 10824,9927 Z"/>
 <path fill="none" stroke="rgb(255,66,14)" stroke-linejoin="round" d="M 10824,9927 L 10924,10027 11024,9927 10924,9827 10824,9927 Z"/>
 <path fill="rgb(255,66,14)" stroke="none" d="M 11028,9869 L 11128,9969 11228,9869 11128,9769 11028,9869 Z"/>
 <path fill="none" stroke="rgb(255,66,14)" stroke-linejoin="round" d="M 11028,9869 L 11128,9969 11228,9869 11128,9769 11028,9869 Z"/>
 <path fill="rgb(255,66,14)" stroke="none" d="M 11231,9800 L 11331,9900 11431,9800 11331,9700 11231,9800 Z"/>
 <path fill="none" stroke="rgb(255,66,14)" stroke-linejoin="round" d="M 11231,9800 L 11331,9900 11431,9800 11331,9700 11231,9800 Z"/>
 <path fill="rgb(255,66,14)" stroke="none" d="M 11434,9741 L 11534,9841 11634,9741 11534,9641 11434,9741 Z"/>
 <path fill="none" stroke="rgb(255,66,14)" stroke-linejoin="round" d="M 11434,9741 L 11534,9841 11634,9741 11534,9641 11434,9741 Z"/>
 <path fill="rgb(255,66,14)" stroke="none" d="M 11638,9676 L 11738,9776 11838,9676 11738,9576 11638,9676 Z"/>
 <path fill="none" stroke="rgb(255,66,14)" stroke-linejoin="round" d="M 11638,9676 L 11738,9776 11838,9676 11738,9576 11638,9676 Z"/>
 <path fill="rgb(255,66,14)" stroke="none" d="M 11841,9624 L 11941,9724 12041,9624 11941,9524 11841,9624 Z"/>
 <path fill="none" stroke="rgb(255,66,14)" stroke-linejoin="round" d="M 11841,9624 L 11941,9724 12041,9624 11941,9524 11841,9624 Z"/>
 <path fill="rgb(255,66,14)" stroke="none" d="M 12044,9571 L 12144,9671 12244,9571 12144,9471 12044,9571 Z"/>
 <path fill="none" stroke="rgb(255,66,14)" stroke-linejoin="round" d="M 12044,9571 L 12144,9671 12244,9571 12144,9471 12044,9571 Z"/>
 <path fill="rgb(255,66,14)" stroke="none" d="M 12248,9525 L 12348,9625 12448,9525 12348,9425 12248,9525 Z"/>
 <path fill="none" stroke="rgb(255,66,14)" stroke-linejoin="round" d="M 12248,9525 L 12348,9625 12448,9525 12348,9425 12248,9525 Z"/>
 <path fill="rgb(255,66,14)" stroke="none" d="M 12451,9477 L 12551,9577 12651,9477 12551,9377 12451,9477 Z"/>
 <path fill="none" stroke="rgb(255,66,14)" stroke-linejoin="round" d="M 12451,9477 L 12551,9577 12651,9477 12551,9377 12451,9477 Z"/>
 <path fill="rgb(255,66,14)" stroke="none" d="M 12654,9432 L 12754,9532 12854,9432 12754,9332 12654,9432 Z"/>
 <path fill="none" stroke="rgb(255,66,14)" stroke-linejoin="round" d="M 12654,9432 L 12754,9532 12854,9432 12754,9332 12654,9432 Z"/>
 <path fill="rgb(255,66,14)" stroke="none" d="M 12857,9396 L 12957,9496 13057,9396 12957,9296 12857,9396 Z"/>
 <path fill="none" stroke="rgb(255,66,14)" stroke-linejoin="round" d="M 12857,9396 L 12957,9496 13057,9396 12957,9296 12857,9396 Z"/>
 <path fill="rgb(255,66,14)" stroke="none" d="M 13061,9360 L 13161,9460 13261,9360 13161,9260 13061,9360 Z"/>
 <path fill="none" stroke="rgb(255,66,14)" stroke-linejoin="round" d="M 13061,9360 L 13161,9460 13261,9360 13161,9260 13061,9360 Z"/>
 <path fill="rgb(255,66,14)" stroke="none" d="M 13264,9323 L 13364,9423 13464,9323 13364,9223 13264,9323 Z"/>
 <path fill="none" stroke="rgb(255,66,14)" stroke-linejoin="round" d="M 13264,9323 L 13364,9423 13464,9323 13364,9223 13264,9323 Z"/>
 <path fill="rgb(255,66,14)" stroke="none" d="M 13467,9279 L 13567,9379 13667,9279 13567,9179 13467,9279 Z"/>
 <path fill="none" stroke="rgb(255,66,14)" stroke-linejoin="round" d="M 13467,9279 L 13567,9379 13667,9279 13567,9179 13467,9279 Z"/>
 <path fill="rgb(255,66,14)" stroke="none" d="M 13671,9243 L 13771,9343 13871,9243 13771,9143 13671,9243 Z"/>
 <path fill="none" stroke="rgb(255,66,14)" stroke-linejoin="round" d="M 13671,9243 L 13771,9343 13871,9243 13771,9143 13671,9243 Z"/>
 <path fill="rgb(255,66,14)" stroke="none" d="M 13874,9201 L 13974,9301 14074,9201 13974,9101 13874,9201 Z"/>
 <path fill="none" stroke="rgb(255,66,14)" stroke-linejoin="round" d="M 13874,9201 L 13974,9301 14074,9201 13974,9101 13874,9201 Z"/>
 <path fill="rgb(255,66,14)" stroke="none" d="M 14077,9166 L 14177,9266 14277,9166 14177,9066 14077,9166 Z"/>
 <path fill="none" stroke="rgb(255,66,14)" stroke-linejoin="round" d="M 14077,9166 L 14177,9266 14277,9166 14177,9066 14077,9166 Z"/>
 <path fill="rgb(255,66,14)" stroke="none" d="M 14281,9128 L 14381,9228 14481,9128 14381,9028 14281,9128 Z"/>
 <path fill="none" stroke="rgb(255,66,14)" stroke-linejoin="round" d="M 14281,9128 L 14381,9228 14481,9128 14381,9028 14281,9128 Z"/>
 <path fill="rgb(255,66,14)" stroke="none" d="M 14484,9094 L 14584,9194 14684,9094 14584,8994 14484,9094 Z"/>
 <path fill="none" stroke="rgb(255,66,14)" stroke-linejoin="round" d="M 14484,9094 L 14584,9194 14684,9094 14584,8994 14484,9094 Z"/>
 <path fill="none" stroke="rgb(255,211,32)" stroke-width="50" stroke-linejoin="round" d="M 4623,11171 L 4826,11171 5030,11171 5233,11169 5436,11169 5640,11167 5843,11167 6046,11165 6249,11162 6453,11157 6656,11150 6859,11120 7063,11103 7266,11068 7469,11018 7672,10930 7875,10862 8078,10815 8281,10518 8485,10320 8688,10056 8891,9815 9095,9617 9298,9384 9501,9052 9705,8827 9908,8518 10111,8211 10314,7991 10518,7828 10721,7672 10924,7484 11128,7315 11331,7180 11534,7074 11738,6948 11941,6807 12144,6685 12348,6523 12551,6408 12754,6283 12957,6113 13161,5953 13364,5884 13567,5788 13771,5607 13974,5486 14177,5364 14381,5301 14584,5168"/>
 <path fill="rgb(255,211,32)" stroke="none" d="M 4523,11071 L 4623,11271 4723,11071 4523,11071 Z"/>
 <path fill="none" stroke="rgb(255,211,32)" stroke-linejoin="round" d="M 4523,11071 L 4623,11271 4723,11071 4523,11071 Z"/>
 <path fill="rgb(255,211,32)" stroke="none" d="M 4726,11071 L 4826,11271 4926,11071 4726,11071 Z"/>
 <path fill="none" stroke="rgb(255,211,32)" stroke-linejoin="round" d="M 4726,11071 L 4826,11271 4926,11071 4726,11071 Z"/>
 <path fill="rgb(255,211,32)" stroke="none" d="M 4930,11071 L 5030,11271 5130,11071 4930,11071 Z"/>
 <path fill="none" stroke="rgb(255,211,32)" stroke-linejoin="round" d="M 4930,11071 L 5030,11271 5130,11071 4930,11071 Z"/>
 <path fill="rgb(255,211,32)" stroke="none" d="M 5133,11069 L 5233,11269 5333,11069 5133,11069 Z"/>
 <path fill="none" stroke="rgb(255,211,32)" stroke-linejoin="round" d="M 5133,11069 L 5233,11269 5333,11069 5133,11069 Z"/>
 <path fill="rgb(255,211,32)" stroke="none" d="M 5336,11069 L 5436,11269 5536,11069 5336,11069 Z"/>
 <path fill="none" stroke="rgb(255,211,32)" stroke-linejoin="round" d="M 5336,11069 L 5436,11269 5536,11069 5336,11069 Z"/>
 <path fill="rgb(255,211,32)" stroke="none" d="M 5540,11067 L 5640,11267 5740,11067 5540,11067 Z"/>
 <path fill="none" stroke="rgb(255,211,32)" stroke-linejoin="round" d="M 5540,11067 L 5640,11267 5740,11067 5540,11067 Z"/>
 <path fill="rgb(255,211,32)" stroke="none" d="M 5743,11067 L 5843,11267 5943,11067 5743,11067 Z"/>
 <path fill="none" stroke="rgb(255,211,32)" stroke-linejoin="round" d="M 5743,11067 L 5843,11267 5943,11067 5743,11067 Z"/>
 <path fill="rgb(255,211,32)" stroke="none" d="M 5946,11065 L 6046,11265 6146,11065 5946,11065 Z"/>
 <path fill="none" stroke="rgb(255,211,32)" stroke-linejoin="round" d="M 5946,11065 L 6046,11265 6146,11065 5946,11065 Z"/>
 <path fill="rgb(255,211,32)" stroke="none" d="M 6149,11062 L 6249,11262 6349,11062 6149,11062 Z"/>
 <path fill="none" stroke="rgb(255,211,32)" stroke-linejoin="round" d="M 6149,11062 L 6249,11262 6349,11062 6149,11062 Z"/>
 <path fill="rgb(255,211,32)" stroke="none" d="M 6353,11057 L 6453,11257 6553,11057 6353,11057 Z"/>
 <path fill="none" stroke="rgb(255,211,32)" stroke-linejoin="round" d="M 6353,11057 L 6453,11257 6553,11057 6353,11057 Z"/>
 <path fill="rgb(255,211,32)" stroke="none" d="M 6556,11050 L 6656,11250 6756,11050 6556,11050 Z"/>
 <path fill="none" stroke="rgb(255,211,32)" stroke-linejoin="round" d="M 6556,11050 L 6656,11250 6756,11050 6556,11050 Z"/>
 <path fill="rgb(255,211,32)" stroke="none" d="M 6759,11020 L 6859,11220 6959,11020 6759,11020 Z"/>
 <path fill="none" stroke="rgb(255,211,32)" stroke-linejoin="round" d="M 6759,11020 L 6859,11220 6959,11020 6759,11020 Z"/>
 <path fill="rgb(255,211,32)" stroke="none" d="M 6963,11003 L 7063,11203 7163,11003 6963,11003 Z"/>
 <path fill="none" stroke="rgb(255,211,32)" stroke-linejoin="round" d="M 6963,11003 L 7063,11203 7163,11003 6963,11003 Z"/>
 <path fill="rgb(255,211,32)" stroke="none" d="M 7166,10968 L 7266,11168 7366,10968 7166,10968 Z"/>
 <path fill="none" stroke="rgb(255,211,32)" stroke-linejoin="round" d="M 7166,10968 L 7266,11168 7366,10968 7166,10968 Z"/>
 <path fill="rgb(255,211,32)" stroke="none" d="M 7369,10918 L 7469,11118 7568,10918 7369,10918 Z"/>
 <path fill="none" stroke="rgb(255,211,32)" stroke-linejoin="round" d="M 7369,10918 L 7469,11118 7568,10918 7369,10918 Z"/>
 <path fill="rgb(255,211,32)" stroke="none" d="M 7572,10830 L 7672,11030 7772,10830 7572,10830 Z"/>
 <path fill="none" stroke="rgb(255,211,32)" stroke-linejoin="round" d="M 7572,10830 L 7672,11030 7772,10830 7572,10830 Z"/>
 <path fill="rgb(255,211,32)" stroke="none" d="M 7775,10762 L 7875,10962 7975,10762 7775,10762 Z"/>
 <path fill="none" stroke="rgb(255,211,32)" stroke-linejoin="round" d="M 7775,10762 L 7875,10962 7975,10762 7775,10762 Z"/>
 <path fill="rgb(255,211,32)" stroke="none" d="M 7978,10715 L 8078,10915 8178,10715 7978,10715 Z"/>
 <path fill="none" stroke="rgb(255,211,32)" stroke-linejoin="round" d="M 7978,10715 L 8078,10915 8178,10715 7978,10715 Z"/>
 <path fill="rgb(255,211,32)" stroke="none" d="M 8181,10418 L 8281,10618 8381,10418 8181,10418 Z"/>
 <path fill="none" stroke="rgb(255,211,32)" stroke-linejoin="round" d="M 8181,10418 L 8281,10618 8381,10418 8181,10418 Z"/>
 <path fill="rgb(255,211,32)" stroke="none" d="M 8385,10220 L 8485,10420 8585,10220 8385,10220 Z"/>
 <path fill="none" stroke="rgb(255,211,32)" stroke-linejoin="round" d="M 8385,10220 L 8485,10420 8585,10220 8385,10220 Z"/>
 <path fill="rgb(255,211,32)" stroke="none" d="M 8588,9956 L 8688,10156 8788,9956 8588,9956 Z"/>
 <path fill="none" stroke="rgb(255,211,32)" stroke-linejoin="round" d="M 8588,9956 L 8688,10156 8788,9956 8588,9956 Z"/>
 <path fill="rgb(255,211,32)" stroke="none" d="M 8791,9715 L 8891,9915 8991,9715 8791,9715 Z"/>
 <path fill="none" stroke="rgb(255,211,32)" stroke-linejoin="round" d="M 8791,9715 L 8891,9915 8991,9715 8791,9715 Z"/>
 <path fill="rgb(255,211,32)" stroke="none" d="M 8995,9517 L 9095,9717 9195,9517 8995,9517 Z"/>
 <path fill="none" stroke="rgb(255,211,32)" stroke-linejoin="round" d="M 8995,9517 L 9095,9717 9195,9517 8995,9517 Z"/>
 <path fill="rgb(255,211,32)" stroke="none" d="M 9198,9284 L 9298,9484 9398,9284 9198,9284 Z"/>
 <path fill="none" stroke="rgb(255,211,32)" stroke-linejoin="round" d="M 9198,9284 L 9298,9484 9398,9284 9198,9284 Z"/>
 <path fill="rgb(255,211,32)" stroke="none" d="M 9401,8952 L 9501,9152 9601,8952 9401,8952 Z"/>
 <path fill="none" stroke="rgb(255,211,32)" stroke-linejoin="round" d="M 9401,8952 L 9501,9152 9601,8952 9401,8952 Z"/>
 <path fill="rgb(255,211,32)" stroke="none" d="M 9605,8727 L 9705,8927 9805,8727 9605,8727 Z"/>
 <path fill="none" stroke="rgb(255,211,32)" stroke-linejoin="round" d="M 9605,8727 L 9705,8927 9805,8727 9605,8727 Z"/>
 <path fill="rgb(255,211,32)" stroke="none" d="M 9808,8418 L 9908,8618 10008,8418 9808,8418 Z"/>
 <path fill="none" stroke="rgb(255,211,32)" stroke-linejoin="round" d="M 9808,8418 L 9908,8618 10008,8418 9808,8418 Z"/>
 <path fill="rgb(255,211,32)" stroke="none" d="M 10011,8111 L 10111,8311 10211,8111 10011,8111 Z"/>
 <path fill="none" stroke="rgb(255,211,32)" stroke-linejoin="round" d="M 10011,8111 L 10111,8311 10211,8111 10011,8111 Z"/>
 <path fill="rgb(255,211,32)" stroke="none" d="M 10214,7891 L 10314,8091 10414,7891 10214,7891 Z"/>
 <path fill="none" stroke="rgb(255,211,32)" stroke-linejoin="round" d="M 10214,7891 L 10314,8091 10414,7891 10214,7891 Z"/>
 <path fill="rgb(255,211,32)" stroke="none" d="M 10418,7728 L 10518,7928 10618,7728 10418,7728 Z"/>
 <path fill="none" stroke="rgb(255,211,32)" stroke-linejoin="round" d="M 10418,7728 L 10518,7928 10618,7728 10418,7728 Z"/>
 <path fill="rgb(255,211,32)" stroke="none" d="M 10621,7572 L 10721,7772 10821,7572 10621,7572 Z"/>
 <path fill="none" stroke="rgb(255,211,32)" stroke-linejoin="round" d="M 10621,7572 L 10721,7772 10821,7572 10621,7572 Z"/>
 <path fill="rgb(255,211,32)" stroke="none" d="M 10824,7384 L 10924,7584 11024,7384 10824,7384 Z"/>
 <path fill="none" stroke="rgb(255,211,32)" stroke-linejoin="round" d="M 10824,7384 L 10924,7584 11024,7384 10824,7384 Z"/>
 <path fill="rgb(255,211,32)" stroke="none" d="M 11028,7215 L 11128,7415 11228,7215 11028,7215 Z"/>
 <path fill="none" stroke="rgb(255,211,32)" stroke-linejoin="round" d="M 11028,7215 L 11128,7415 11228,7215 11028,7215 Z"/>
 <path fill="rgb(255,211,32)" stroke="none" d="M 11231,7080 L 11331,7280 11431,7080 11231,7080 Z"/>
 <path fill="none" stroke="rgb(255,211,32)" stroke-linejoin="round" d="M 11231,7080 L 11331,7280 11431,7080 11231,7080 Z"/>
 <path fill="rgb(255,211,32)" stroke="none" d="M 11434,6974 L 11534,7174 11634,6974 11434,6974 Z"/>
 <path fill="none" stroke="rgb(255,211,32)" stroke-linejoin="round" d="M 11434,6974 L 11534,7174 11634,6974 11434,6974 Z"/>
 <path fill="rgb(255,211,32)" stroke="none" d="M 11638,6848 L 11738,7048 11838,6848 11638,6848 Z"/>
 <path fill="none" stroke="rgb(255,211,32)" stroke-linejoin="round" d="M 11638,6848 L 11738,7048 11838,6848 11638,6848 Z"/>
 <path fill="rgb(255,211,32)" stroke="none" d="M 11841,6707 L 11941,6907 12041,6707 11841,6707 Z"/>
 <path fill="none" stroke="rgb(255,211,32)" stroke-linejoin="round" d="M 11841,6707 L 11941,6907 12041,6707 11841,6707 Z"/>
 <path fill="rgb(255,211,32)" stroke="none" d="M 12044,6585 L 12144,6785 12244,6585 12044,6585 Z"/>
 <path fill="none" stroke="rgb(255,211,32)" stroke-linejoin="round" d="M 12044,6585 L 12144,6785 12244,6585 12044,6585 Z"/>
 <path fill="rgb(255,211,32)" stroke="none" d="M 12248,6423 L 12348,6623 12448,6423 12248,6423 Z"/>
 <path fill="none" stroke="rgb(255,211,32)" stroke-linejoin="round" d="M 12248,6423 L 12348,6623 12448,6423 12248,6423 Z"/>
 <path fill="rgb(255,211,32)" stroke="none" d="M 12451,6308 L 12551,6508 12651,6308 12451,6308 Z"/>
 <path fill="none" stroke="rgb(255,211,32)" stroke-linejoin="round" d="M 12451,6308 L 12551,6508 12651,6308 12451,6308 Z"/>
 <path fill="rgb(255,211,32)" stroke="none" d="M 12654,6183 L 12754,6383 12854,6183 12654,6183 Z"/>
 <path fill="none" stroke="rgb(255,211,32)" stroke-linejoin="round" d="M 12654,6183 L 12754,6383 12854,6183 12654,6183 Z"/>
 <path fill="rgb(255,211,32)" stroke="none" d="M 12857,6013 L 12957,6213 13057,6013 12857,6013 Z"/>
 <path fill="none" stroke="rgb(255,211,32)" stroke-linejoin="round" d="M 12857,6013 L 12957,6213 13057,6013 12857,6013 Z"/>
 <path fill="rgb(255,211,32)" stroke="none" d="M 13061,5853 L 13161,6052 13261,5853 13061,5853 Z"/>
 <path fill="none" stroke="rgb(255,211,32)" stroke-linejoin="round" d="M 13061,5853 L 13161,6052 13261,5853 13061,5853 Z"/>
 <path fill="rgb(255,211,32)" stroke="none" d="M 13264,5784 L 13364,5984 13464,5784 13264,5784 Z"/>
 <path fill="none" stroke="rgb(255,211,32)" stroke-linejoin="round" d="M 13264,5784 L 13364,5984 13464,5784 13264,5784 Z"/>
 <path fill="rgb(255,211,32)" stroke="none" d="M 13467,5688 L 13567,5888 13667,5688 13467,5688 Z"/>
 <path fill="none" stroke="rgb(255,211,32)" stroke-linejoin="round" d="M 13467,5688 L 13567,5888 13667,5688 13467,5688 Z"/>
 <path fill="rgb(255,211,32)" stroke="none" d="M 13671,5507 L 13771,5707 13871,5507 13671,5507 Z"/>
 <path fill="none" stroke="rgb(255,211,32)" stroke-linejoin="round" d="M 13671,5507 L 13771,5707 13871,5507 13671,5507 Z"/>
 <path fill="rgb(255,211,32)" stroke="none" d="M 13874,5386 L 13974,5586 14074,5386 13874,5386 Z"/>
 <path fill="none" stroke="rgb(255,211,32)" stroke-linejoin="round" d="M 13874,5386 L 13974,5586 14074,5386 13874,5386 Z"/>
 <path fill="rgb(255,211,32)" stroke="none" d="M 14077,5264 L 14177,5464 14277,5264 14077,5264 Z"/>
 <path fill="none" stroke="rgb(255,211,32)" stroke-linejoin="round" d="M 14077,5264 L 14177,5464 14277,5264 14077,5264 Z"/>
 <path fill="rgb(255,211,32)" stroke="none" d="M 14281,5201 L 14381,5401 14481,5201 14281,5201 Z"/>
 <path fill="none" stroke="rgb(255,211,32)" stroke-linejoin="round" d="M 14281,5201 L 14381,5401 14481,5201 14281,5201 Z"/>
 <path fill="rgb(255,211,32)" stroke="none" d="M 14484,5068 L 14584,5268 14684,5068 14484,5068 Z"/>
 <path fill="none" stroke="rgb(255,211,32)" stroke-linejoin="round" d="M 14484,5068 L 14584,5268 14684,5068 14484,5068 Z"/>
 <path fill="none" stroke="rgb(87,157,28)" stroke-width="50" stroke-linejoin="round" d="M 4216,11171 L 4420,11170 4623,11166 4826,11162 5030,11162 5233,11146 5436,11133 5640,11101 5843,11070 6046,11063 6249,10902 6453,10902 6656,10722 6859,10678 7063,10541 7266,10376 7469,10153 7672,9877 7875,9571 8078,9226 8281,8858 8485,8522 8688,8113 8891,7676 9095,7263 9298,6870 9501,6603 9705,6270 9908,5878 10111,5487 10314,5183 10518,4906 10721,4659 10924,4361 11128,4088 11331,3817 11534,3599 11738,3457 11941,3211 12144,3027 12348,2843 12551,2645 12754,2451 12957,2286 13161,2127 13364,1992 13567,1850 13771,1711 13974,1563 14177,1427 14381,1325 14584,1219"/>
 <path fill="rgb(87,157,28)" stroke="none" d="M 4116,11271 L 4316,11271 4216,11071 4116,11271 Z"/>
 <path fill="none" stroke="rgb(87,157,28)" stroke-linejoin="round" d="M 4116,11271 L 4316,11271 4216,11071 4116,11271 Z"/>
 <path fill="rgb(87,157,28)" stroke="none" d="M 4320,11270 L 4520,11270 4420,11070 4320,11270 Z"/>
 <path fill="none" stroke="rgb(87,157,28)" stroke-linejoin="round" d="M 4320,11270 L 4520,11270 4420,11070 4320,11270 Z"/>
 <path fill="rgb(87,157,28)" stroke="none" d="M 4523,11266 L 4723,11266 4623,11066 4523,11266 Z"/>
 <path fill="none" stroke="rgb(87,157,28)" stroke-linejoin="round" d="M 4523,11266 L 4723,11266 4623,11066 4523,11266 Z"/>
 <path fill="rgb(87,157,28)" stroke="none" d="M 4726,11262 L 4926,11262 4826,11062 4726,11262 Z"/>
 <path fill="none" stroke="rgb(87,157,28)" stroke-linejoin="round" d="M 4726,11262 L 4926,11262 4826,11062 4726,11262 Z"/>
 <path fill="rgb(87,157,28)" stroke="none" d="M 4930,11262 L 5130,11262 5030,11062 4930,11262 Z"/>
 <path fill="none" stroke="rgb(87,157,28)" stroke-linejoin="round" d="M 4930,11262 L 5130,11262 5030,11062 4930,11262 Z"/>
 <path fill="rgb(87,157,28)" stroke="none" d="M 5133,11246 L 5333,11246 5233,11046 5133,11246 Z"/>
 <path fill="none" stroke="rgb(87,157,28)" stroke-linejoin="round" d="M 5133,11246 L 5333,11246 5233,11046 5133,11246 Z"/>
 <path fill="rgb(87,157,28)" stroke="none" d="M 5336,11233 L 5536,11233 5436,11033 5336,11233 Z"/>
 <path fill="none" stroke="rgb(87,157,28)" stroke-linejoin="round" d="M 5336,11233 L 5536,11233 5436,11033 5336,11233 Z"/>
 <path fill="rgb(87,157,28)" stroke="none" d="M 5540,11201 L 5740,11201 5640,11001 5540,11201 Z"/>
 <path fill="none" stroke="rgb(87,157,28)" stroke-linejoin="round" d="M 5540,11201 L 5740,11201 5640,11001 5540,11201 Z"/>
 <path fill="rgb(87,157,28)" stroke="none" d="M 5743,11170 L 5943,11170 5843,10970 5743,11170 Z"/>
 <path fill="none" stroke="rgb(87,157,28)" stroke-linejoin="round" d="M 5743,11170 L 5943,11170 5843,10970 5743,11170 Z"/>
 <path fill="rgb(87,157,28)" stroke="none" d="M 5946,11163 L 6146,11163 6046,10963 5946,11163 Z"/>
 <path fill="none" stroke="rgb(87,157,28)" stroke-linejoin="round" d="M 5946,11163 L 6146,11163 6046,10963 5946,11163 Z"/>
 <path fill="rgb(87,157,28)" stroke="none" d="M 6149,11002 L 6349,11002 6249,10802 6149,11002 Z"/>
 <path fill="none" stroke="rgb(87,157,28)" stroke-linejoin="round" d="M 6149,11002 L 6349,11002 6249,10802 6149,11002 Z"/>
 <path fill="rgb(87,157,28)" stroke="none" d="M 6353,11002 L 6553,11002 6453,10802 6353,11002 Z"/>
 <path fill="none" stroke="rgb(87,157,28)" stroke-linejoin="round" d="M 6353,11002 L 6553,11002 6453,10802 6353,11002 Z"/>
 <path fill="rgb(87,157,28)" stroke="none" d="M 6556,10822 L 6756,10822 6656,10622 6556,10822 Z"/>
 <path fill="none" stroke="rgb(87,157,28)" stroke-linejoin="round" d="M 6556,10822 L 6756,10822 6656,10622 6556,10822 Z"/>
 <path fill="rgb(87,157,28)" stroke="none" d="M 6759,10778 L 6959,10778 6859,10578 6759,10778 Z"/>
 <path fill="none" stroke="rgb(87,157,28)" stroke-linejoin="round" d="M 6759,10778 L 6959,10778 6859,10578 6759,10778 Z"/>
 <path fill="rgb(87,157,28)" stroke="none" d="M 6963,10641 L 7163,10641 7063,10441 6963,10641 Z"/>
 <path fill="none" stroke="rgb(87,157,28)" stroke-linejoin="round" d="M 6963,10641 L 7163,10641 7063,10441 6963,10641 Z"/>
 <path fill="rgb(87,157,28)" stroke="none" d="M 7166,10476 L 7366,10476 7266,10276 7166,10476 Z"/>
 <path fill="none" stroke="rgb(87,157,28)" stroke-linejoin="round" d="M 7166,10476 L 7366,10476 7266,10276 7166,10476 Z"/>
 <path fill="rgb(87,157,28)" stroke="none" d="M 7369,10253 L 7568,10253 7469,10053 7369,10253 Z"/>
 <path fill="none" stroke="rgb(87,157,28)" stroke-linejoin="round" d="M 7369,10253 L 7568,10253 7469,10053 7369,10253 Z"/>
 <path fill="rgb(87,157,28)" stroke="none" d="M 7572,9977 L 7772,9977 7672,9777 7572,9977 Z"/>
 <path fill="none" stroke="rgb(87,157,28)" stroke-linejoin="round" d="M 7572,9977 L 7772,9977 7672,9777 7572,9977 Z"/>
 <path fill="rgb(87,157,28)" stroke="none" d="M 7775,9671 L 7975,9671 7875,9471 7775,9671 Z"/>
 <path fill="none" stroke="rgb(87,157,28)" stroke-linejoin="round" d="M 7775,9671 L 7975,9671 7875,9471 7775,9671 Z"/>
 <path fill="rgb(87,157,28)" stroke="none" d="M 7978,9326 L 8178,9326 8078,9126 7978,9326 Z"/>
 <path fill="none" stroke="rgb(87,157,28)" stroke-linejoin="round" d="M 7978,9326 L 8178,9326 8078,9126 7978,9326 Z"/>
 <path fill="rgb(87,157,28)" stroke="none" d="M 8181,8958 L 8381,8958 8281,8758 8181,8958 Z"/>
 <path fill="none" stroke="rgb(87,157,28)" stroke-linejoin="round" d="M 8181,8958 L 8381,8958 8281,8758 8181,8958 Z"/>
 <path fill="rgb(87,157,28)" stroke="none" d="M 8385,8622 L 8585,8622 8485,8422 8385,8622 Z"/>
 <path fill="none" stroke="rgb(87,157,28)" stroke-linejoin="round" d="M 8385,8622 L 8585,8622 8485,8422 8385,8622 Z"/>
 <path fill="rgb(87,157,28)" stroke="none" d="M 8588,8213 L 8788,8213 8688,8013 8588,8213 Z"/>
 <path fill="none" stroke="rgb(87,157,28)" stroke-linejoin="round" d="M 8588,8213 L 8788,8213 8688,8013 8588,8213 Z"/>
 <path fill="rgb(87,157,28)" stroke="none" d="M 8791,7776 L 8991,7776 8891,7576 8791,7776 Z"/>
 <path fill="none" stroke="rgb(87,157,28)" stroke-linejoin="round" d="M 8791,7776 L 8991,7776 8891,7576 8791,7776 Z"/>
 <path fill="rgb(87,157,28)" stroke="none" d="M 8995,7363 L 9195,7363 9095,7163 8995,7363 Z"/>
 <path fill="none" stroke="rgb(87,157,28)" stroke-linejoin="round" d="M 8995,7363 L 9195,7363 9095,7163 8995,7363 Z"/>
 <path fill="rgb(87,157,28)" stroke="none" d="M 9198,6970 L 9398,6970 9298,6770 9198,6970 Z"/>
 <path fill="none" stroke="rgb(87,157,28)" stroke-linejoin="round" d="M 9198,6970 L 9398,6970 9298,6770 9198,6970 Z"/>
 <path fill="rgb(87,157,28)" stroke="none" d="M 9401,6703 L 9601,6703 9501,6503 9401,6703 Z"/>
 <path fill="none" stroke="rgb(87,157,28)" stroke-linejoin="round" d="M 9401,6703 L 9601,6703 9501,6503 9401,6703 Z"/>
 <path fill="rgb(87,157,28)" stroke="none" d="M 9605,6370 L 9805,6370 9705,6170 9605,6370 Z"/>
 <path fill="none" stroke="rgb(87,157,28)" stroke-linejoin="round" d="M 9605,6370 L 9805,6370 9705,6170 9605,6370 Z"/>
 <path fill="rgb(87,157,28)" stroke="none" d="M 9808,5978 L 10008,5978 9908,5778 9808,5978 Z"/>
 <path fill="none" stroke="rgb(87,157,28)" stroke-linejoin="round" d="M 9808,5978 L 10008,5978 9908,5778 9808,5978 Z"/>
 <path fill="rgb(87,157,28)" stroke="none" d="M 10011,5587 L 10211,5587 10111,5387 10011,5587 Z"/>
 <path fill="none" stroke="rgb(87,157,28)" stroke-linejoin="round" d="M 10011,5587 L 10211,5587 10111,5387 10011,5587 Z"/>
 <path fill="rgb(87,157,28)" stroke="none" d="M 10214,5283 L 10414,5283 10314,5083 10214,5283 Z"/>
 <path fill="none" stroke="rgb(87,157,28)" stroke-linejoin="round" d="M 10214,5283 L 10414,5283 10314,5083 10214,5283 Z"/>
 <path fill="rgb(87,157,28)" stroke="none" d="M 10418,5006 L 10618,5006 10518,4806 10418,5006 Z"/>
 <path fill="none" stroke="rgb(87,157,28)" stroke-linejoin="round" d="M 10418,5006 L 10618,5006 10518,4806 10418,5006 Z"/>
 <path fill="rgb(87,157,28)" stroke="none" d="M 10621,4759 L 10821,4759 10721,4559 10621,4759 Z"/>
 <path fill="none" stroke="rgb(87,157,28)" stroke-linejoin="round" d="M 10621,4759 L 10821,4759 10721,4559 10621,4759 Z"/>
 <path fill="rgb(87,157,28)" stroke="none" d="M 10824,4461 L 11024,4461 10924,4261 10824,4461 Z"/>
 <path fill="none" stroke="rgb(87,157,28)" stroke-linejoin="round" d="M 10824,4461 L 11024,4461 10924,4261 10824,4461 Z"/>
 <path fill="rgb(87,157,28)" stroke="none" d="M 11028,4188 L 11228,4188 11128,3988 11028,4188 Z"/>
 <path fill="none" stroke="rgb(87,157,28)" stroke-linejoin="round" d="M 11028,4188 L 11228,4188 11128,3988 11028,4188 Z"/>
 <path fill="rgb(87,157,28)" stroke="none" d="M 11231,3917 L 11431,3917 11331,3717 11231,3917 Z"/>
 <path fill="none" stroke="rgb(87,157,28)" stroke-linejoin="round" d="M 11231,3917 L 11431,3917 11331,3717 11231,3917 Z"/>
 <path fill="rgb(87,157,28)" stroke="none" d="M 11434,3699 L 11634,3699 11534,3499 11434,3699 Z"/>
 <path fill="none" stroke="rgb(87,157,28)" stroke-linejoin="round" d="M 11434,3699 L 11634,3699 11534,3499 11434,3699 Z"/>
 <path fill="rgb(87,157,28)" stroke="none" d="M 11638,3557 L 11838,3557 11738,3357 11638,3557 Z"/>
 <path fill="none" stroke="rgb(87,157,28)" stroke-linejoin="round" d="M 11638,3557 L 11838,3557 11738,3357 11638,3557 Z"/>
 <path fill="rgb(87,157,28)" stroke="none" d="M 11841,3311 L 12041,3311 11941,3111 11841,3311 Z"/>
 <path fill="none" stroke="rgb(87,157,28)" stroke-linejoin="round" d="M 11841,3311 L 12041,3311 11941,3111 11841,3311 Z"/>
 <path fill="rgb(87,157,28)" stroke="none" d="M 12044,3127 L 12244,3127 12144,2927 12044,3127 Z"/>
 <path fill="none" stroke="rgb(87,157,28)" stroke-linejoin="round" d="M 12044,3127 L 12244,3127 12144,2927 12044,3127 Z"/>
 <path fill="rgb(87,157,28)" stroke="none" d="M 12248,2943 L 12448,2943 12348,2743 12248,2943 Z"/>
 <path fill="none" stroke="rgb(87,157,28)" stroke-linejoin="round" d="M 12248,2943 L 12448,2943 12348,2743 12248,2943 Z"/>
 <path fill="rgb(87,157,28)" stroke="none" d="M 12451,2745 L 12651,2745 12551,2545 12451,2745 Z"/>
 <path fill="none" stroke="rgb(87,157,28)" stroke-linejoin="round" d="M 12451,2745 L 12651,2745 12551,2545 12451,2745 Z"/>
 <path fill="rgb(87,157,28)" stroke="none" d="M 12654,2551 L 12854,2551 12754,2351 12654,2551 Z"/>
 <path fill="none" stroke="rgb(87,157,28)" stroke-linejoin="round" d="M 12654,2551 L 12854,2551 12754,2351 12654,2551 Z"/>
 <path fill="rgb(87,157,28)" stroke="none" d="M 12857,2386 L 13057,2386 12957,2186 12857,2386 Z"/>
 <path fill="none" stroke="rgb(87,157,28)" stroke-linejoin="round" d="M 12857,2386 L 13057,2386 12957,2186 12857,2386 Z"/>
 <path fill="rgb(87,157,28)" stroke="none" d="M 13061,2227 L 13261,2227 13161,2027 13061,2227 Z"/>
 <path fill="none" stroke="rgb(87,157,28)" stroke-linejoin="round" d="M 13061,2227 L 13261,2227 13161,2027 13061,2227 Z"/>
 <path fill="rgb(87,157,28)" stroke="none" d="M 13264,2092 L 13464,2092 13364,1892 13264,2092 Z"/>
 <path fill="none" stroke="rgb(87,157,28)" stroke-linejoin="round" d="M 13264,2092 L 13464,2092 13364,1892 13264,2092 Z"/>
 <path fill="rgb(87,157,28)" stroke="none" d="M 13467,1950 L 13667,1950 13567,1750 13467,1950 Z"/>
 <path fill="none" stroke="rgb(87,157,28)" stroke-linejoin="round" d="M 13467,1950 L 13667,1950 13567,1750 13467,1950 Z"/>
 <path fill="rgb(87,157,28)" stroke="none" d="M 13671,1811 L 13871,1811 13771,1611 13671,1811 Z"/>
 <path fill="none" stroke="rgb(87,157,28)" stroke-linejoin="round" d="M 13671,1811 L 13871,1811 13771,1611 13671,1811 Z"/>
 <path fill="rgb(87,157,28)" stroke="none" d="M 13874,1663 L 14074,1663 13974,1463 13874,1663 Z"/>
 <path fill="none" stroke="rgb(87,157,28)" stroke-linejoin="round" d="M 13874,1663 L 14074,1663 13974,1463 13874,1663 Z"/>
 <path fill="rgb(87,157,28)" stroke="none" d="M 14077,1527 L 14277,1527 14177,1327 14077,1527 Z"/>
 <path fill="none" stroke="rgb(87,157,28)" stroke-linejoin="round" d="M 14077,1527 L 14277,1527 14177,1327 14077,1527 Z"/>
 <path fill="rgb(87,157,28)" stroke="none" d="M 14281,1425 L 14481,1425 14381,1225 14281,1425 Z"/>
 <path fill="none" stroke="rgb(87,157,28)" stroke-linejoin="round" d="M 14281,1425 L 14481,1425 14381,1225 14281,1425 Z"/>
 <path fill="rgb(87,157,28)" stroke="none" d="M 14484,1319 L 14684,1319 14584,1119 14484,1319 Z"/>
 <path fill="none" stroke="rgb(87,157,28)" stroke-linejoin="round" d="M 14484,1319 L 14684,1319 14584,1119 14484,1319 Z"/>
 <text class="TextShape"><tspan class="TextParagraph" font-family="Liberation Sans, sans-serif" font-size="353px" font-weight="400"><tspan class="TextPosition" x="946" y="11741"><tspan fill="rgb(0,0,0)" stroke="none">20/02</tspan></tspan></tspan></text>
 <text class="TextShape"><tspan class="TextParagraph" font-family="Liberation Sans, sans-serif" font-size="353px" font-weight="400"><tspan class="TextPosition" x="2369" y="11741"><tspan fill="rgb(0,0,0)" stroke="none">27/02</tspan></tspan></tspan></text>
 <text class="TextShape"><tspan class="TextParagraph" font-family="Liberation Sans, sans-serif" font-size="353px" font-weight="400"><tspan class="TextPosition" x="3792" y="11741"><tspan fill="rgb(0,0,0)" stroke="none">05/03</tspan></tspan></tspan></text>
 <text class="TextShape"><tspan class="TextParagraph" font-family="Liberation Sans, sans-serif" font-size="353px" font-weight="400"><tspan class="TextPosition" x="5216" y="11741"><tspan fill="rgb(0,0,0)" stroke="none">12/03</tspan></tspan></tspan></text>
 <text class="TextShape"><tspan class="TextParagraph" font-family="Liberation Sans, sans-serif" font-size="353px" font-weight="400"><tspan class="TextPosition" x="6639" y="11741"><tspan fill="rgb(0,0,0)" stroke="none">19/03</tspan></tspan></tspan></text>
 <text class="TextShape"><tspan class="TextParagraph" font-family="Liberation Sans, sans-serif" font-size="353px" font-weight="400"><tspan class="TextPosition" x="8062" y="11741"><tspan fill="rgb(0,0,0)" stroke="none">26/03</tspan></tspan></tspan></text>
 <text class="TextShape"><tspan class="TextParagraph" font-family="Liberation Sans, sans-serif" font-size="353px" font-weight="400"><tspan class="TextPosition" x="9485" y="11741"><tspan fill="rgb(0,0,0)" stroke="none">02/04</tspan></tspan></tspan></text>
 <text class="TextShape"><tspan class="TextParagraph" font-family="Liberation Sans, sans-serif" font-size="353px" font-weight="400"><tspan class="TextPosition" x="10908" y="11741"><tspan fill="rgb(0,0,0)" stroke="none">09/04</tspan></tspan></tspan></text>
 <text class="TextShape"><tspan class="TextParagraph" font-family="Liberation Sans, sans-serif" font-size="353px" font-weight="400"><tspan class="TextPosition" x="12331" y="11741"><tspan fill="rgb(0,0,0)" stroke="none">16/04</tspan></tspan></tspan></text>
 <text class="TextShape"><tspan class="TextParagraph" font-family="Liberation Sans, sans-serif" font-size="353px" font-weight="400"><tspan class="TextPosition" x="13754" y="11741"><tspan fill="rgb(0,0,0)" stroke="none">23/04</tspan></tspan></tspan></text>
 <text class="TextShape"><tspan class="TextParagraph" font-family="Liberation Sans, sans-serif" font-size="353px" font-weight="400"><tspan class="TextPosition" x="834" y="11294"><tspan fill="rgb(0,0,0)" stroke="none">0</tspan></tspan></tspan></text>
 <text class="TextShape"><tspan class="TextParagraph" font-family="Liberation Sans, sans-serif" font-size="353px" font-weight="400"><tspan class="TextPosition" x="172" y="10025"><tspan fill="rgb(0,0,0)" stroke="none">1.000</tspan></tspan></tspan></text>
 <text class="TextShape"><tspan class="TextParagraph" font-family="Liberation Sans, sans-serif" font-size="353px" font-weight="400"><tspan class="TextPosition" x="172" y="8757"><tspan fill="rgb(0,0,0)" stroke="none">2.000</tspan></tspan></tspan></text>
 <text class="TextShape"><tspan class="TextParagraph" font-family="Liberation Sans, sans-serif" font-size="353px" font-weight="400"><tspan class="TextPosition" x="172" y="7488"><tspan fill="rgb(0,0,0)" stroke="none">3.000</tspan></tspan></tspan></text>
 <text class="TextShape"><tspan class="TextParagraph" font-family="Liberation Sans, sans-serif" font-size="353px" font-weight="400"><tspan class="TextPosition" x="172" y="6220"><tspan fill="rgb(0,0,0)" stroke="none">4.000</tspan></tspan></tspan></text>
 <text class="TextShape"><tspan class="TextParagraph" font-family="Liberation Sans, sans-serif" font-size="353px" font-weight="400"><tspan class="TextPosition" x="172" y="4952"><tspan fill="rgb(0,0,0)" stroke="none">5.000</tspan></tspan></tspan></text>
 <text class="TextShape"><tspan class="TextParagraph" font-family="Liberation Sans, sans-serif" font-size="353px" font-weight="400"><tspan class="TextPosition" x="172" y="3683"><tspan fill="rgb(0,0,0)" stroke="none">6.000</tspan></tspan></tspan></text>
 <text class="TextShape"><tspan class="TextParagraph" font-family="Liberation Sans, sans-serif" font-size="353px" font-weight="400"><tspan class="TextPosition" x="172" y="2415"><tspan fill="rgb(0,0,0)" stroke="none">7.000</tspan></tspan></tspan></text>
 <text class="TextShape"><tspan class="TextParagraph" font-family="Liberation Sans, sans-serif" font-size="353px" font-weight="400"><tspan class="TextPosition" x="172" y="1147"><tspan fill="rgb(0,0,0)" stroke="none">8.000</tspan></tspan></tspan></text>
 <text class="TextShape"><tspan class="TextParagraph" font-family="Liberation Sans, sans-serif" font-size="459px" font-weight="400"><tspan class="TextPosition" x="4128" y="708"><tspan fill="rgb(0,0,0)" stroke="none">Covid-19. Muertes acumuladas CCAA (1)</tspan></tspan></tspan></text>
 <path fill="none" stroke="rgb(0,0,0)" stroke-width="50" stroke-linejoin="round" d="M 6430,2858 L 7230,2858"/>
 <path fill="rgb(0,0,0)" stroke="none" d="M 6724,2858 L 6830,2964 6935,2858 6830,2753 6724,2858 Z"/>
 <path fill="none" stroke="rgb(0,0,0)" stroke-linejoin="round" d="M 6724,2858 L 6830,2964 6935,2858 6830,2753 6724,2858 Z"/>
 <path fill="none" stroke="rgb(255,66,14)" stroke-width="50" stroke-linejoin="round" d="M 6430,4132 L 7230,4132"/>
 <path fill="rgb(255,66,14)" stroke="none" d="M 6724,4132 L 6830,4238 6935,4132 6830,4027 6724,4132 Z"/>
 <path fill="none" stroke="rgb(255,66,14)" stroke-linejoin="round" d="M 6724,4132 L 6830,4238 6935,4132 6830,4027 6724,4132 Z"/>
 <path fill="none" stroke="rgb(255,211,32)" stroke-width="50" stroke-linejoin="round" d="M 6430,5406 L 7230,5406"/>
 <path fill="rgb(255,211,32)" stroke="none" d="M 6724,5301 L 6830,5512 6935,5301 6724,5301 Z"/>
 <path fill="none" stroke="rgb(255,211,32)" stroke-linejoin="round" d="M 6724,5301 L 6830,5512 6935,5301 6724,5301 Z"/>
 <path fill="none" stroke="rgb(87,157,28)" stroke-width="50" stroke-linejoin="round" d="M 6430,6679 L 7230,6679"/>
 <path fill="rgb(87,157,28)" stroke="none" d="M 6724,6785 L 6935,6785 6830,6574 6724,6785 Z"/>
 <path fill="none" stroke="rgb(87,157,28)" stroke-linejoin="round" d="M 6724,6785 L 6935,6785 6830,6574 6724,6785 Z"/>
 <text class="TextShape"><tspan class="TextParagraph" font-family="Liberation Sans, sans-serif" font-size="353px" font-weight="400"><tspan class="TextPosition" x="7330" y="2978"><tspan fill="rgb(0,0,0)" stroke="none">CastillaLa Mancha</tspan></tspan></tspan></text>
 <text class="TextShape"><tspan class="TextParagraph" font-family="Liberation Sans, sans-serif" font-size="353px" font-weight="400"><tspan class="TextPosition" x="7330" y="4252"><tspan fill="rgb(0,0,0)" stroke="none">Castilla y Len</tspan></tspan></tspan></text>
 <text class="TextShape"><tspan class="TextParagraph" font-family="Liberation Sans, sans-serif" font-size="353px" font-weight="400"><tspan class="TextPosition" x="7330" y="5526"><tspan fill="rgb(0,0,0)" stroke="none">Catalua</tspan></tspan></tspan></text>
 <text class="TextShape"><tspan class="TextParagraph" font-family="Liberation Sans, sans-serif" font-size="353px" font-weight="400"><tspan class="TextPosition" x="7330" y="6799"><tspan fill="rgb(0,0,0)" stroke="none">Madrid</tspan></tspan></tspan></text>
</svg>