<?xml version="1.0" encoding="UTF-8"?>
<!DOCTYPE svg PUBLIC "-//W3C//DTD SVG 1.1//EN" "http://www.w3.org/Graphics/SVG/1.1/DTD/svg11.dtd">
<svg width="150mm" height="120mm" viewBox="0 0 15000 12000" version="1.1" xmlns="http://www.w3.org/2000/svg" xmlns:xlink="http://www.w3.org/1999/xlink" stroke-width="28.222" stroke-linejoin="round" xml:space="preserve">
 <path fill="rgb(255,255,255)" stroke="none" d="M 7500,12000 L 0,12000 0,0 15000,0 15000,12000 7500,12000 Z"/>
 <path fill="none" stroke="rgb(0,0,0)" stroke-linejoin="round" d="M 7964,11187 L 1244,11187 1244,1027 14685,1027 14685,11187 7964,11187 Z"/>
 <path fill="none" stroke="rgb(0,0,0)" stroke-linejoin="round" d="M 14685,11186 L 1244,11186"/>
 <path fill="none" stroke="rgb(0,0,0)" stroke-linejoin="round" d="M 14685,9831 L 1244,9831"/>
 <path fill="none" stroke="rgb(0,0,0)" stroke-linejoin="round" d="M 14685,8476 L 1244,8476"/>
 <path fill="none" stroke="rgb(0,0,0)" stroke-linejoin="round" d="M 14685,7121 L 1244,7121"/>
 <path fill="none" stroke="rgb(0,0,0)" stroke-linejoin="round" d="M 14685,5767 L 1244,5767"/>
 <path fill="none" stroke="rgb(0,0,0)" stroke-linejoin="round" d="M 14685,4413 L 1244,4413"/>
 <path fill="none" stroke="rgb(0,0,0)" stroke-linejoin="round" d="M 14685,3058 L 1244,3058"/>
 <path fill="none" stroke="rgb(0,0,0)" stroke-linejoin="round" d="M 14685,1703 L 1244,1703"/>
 <path fill="none" stroke="rgb(0,0,0)" stroke-linejoin="round" d="M 1244,11336 L 1244,11186"/>
 <path fill="none" stroke="rgb(0,0,0)" stroke-linejoin="round" d="M 1244,11336 L 1244,11186"/>
 <path fill="none" stroke="rgb(0,0,0)" stroke-linejoin="round" d="M 2607,11336 L 2607,11186"/>
 <path fill="none" stroke="rgb(0,0,0)" stroke-linejoin="round" d="M 2607,11336 L 2607,11186"/>
 <path fill="none" stroke="rgb(0,0,0)" stroke-linejoin="round" d="M 3971,11336 L 3971,11186"/>
 <path fill="none" stroke="rgb(0,0,0)" stroke-linejoin="round" d="M 3971,11336 L 3971,11186"/>
 <path fill="none" stroke="rgb(0,0,0)" stroke-linejoin="round" d="M 5335,11336 L 5335,11186"/>
 <path fill="none" stroke="rgb(0,0,0)" stroke-linejoin="round" d="M 5335,11336 L 5335,11186"/>
 <path fill="none" stroke="rgb(0,0,0)" stroke-linejoin="round" d="M 6698,11336 L 6698,11186"/>
 <path fill="none" stroke="rgb(0,0,0)" stroke-linejoin="round" d="M 6698,11336 L 6698,11186"/>
 <path fill="none" stroke="rgb(0,0,0)" stroke-linejoin="round" d="M 8061,11336 L 8061,11186"/>
 <path fill="none" stroke="rgb(0,0,0)" stroke-linejoin="round" d="M 8061,11336 L 8061,11186"/>
 <path fill="none" stroke="rgb(0,0,0)" stroke-linejoin="round" d="M 9425,11336 L 9425,11186"/>
 <path fill="none" stroke="rgb(0,0,0)" stroke-linejoin="round" d="M 9425,11336 L 9425,11186"/>
 <path fill="none" stroke="rgb(0,0,0)" stroke-linejoin="round" d="M 10788,11336 L 10788,11186"/>
 <path fill="none" stroke="rgb(0,0,0)" stroke-linejoin="round" d="M 10788,11336 L 10788,11186"/>
 <path fill="none" stroke="rgb(0,0,0)" stroke-linejoin="round" d="M 12152,11336 L 12152,11186"/>
 <path fill="none" stroke="rgb(0,0,0)" stroke-linejoin="round" d="M 12152,11336 L 12152,11186"/>
 <path fill="none" stroke="rgb(0,0,0)" stroke-linejoin="round" d="M 13516,11336 L 13516,11186"/>
 <path fill="none" stroke="rgb(0,0,0)" stroke-linejoin="round" d="M 13516,11336 L 13516,11186"/>
 <path fill="none" stroke="rgb(0,0,0)" stroke-linejoin="round" d="M 1244,11186 L 14685,11186"/>
 <path fill="none" stroke="rgb(0,0,0)" stroke-linejoin="round" d="M 1094,11186 L 1244,11186"/>
 <path fill="none" stroke="rgb(0,0,0)" stroke-linejoin="round" d="M 1094,11186 L 1244,11186"/>
 <path fill="none" stroke="rgb(0,0,0)" stroke-linejoin="round" d="M 1094,9831 L 1244,9831"/>
 <path fill="none" stroke="rgb(0,0,0)" stroke-linejoin="round" d="M 1094,9831 L 1244,9831"/>
 <path fill="none" stroke="rgb(0,0,0)" stroke-linejoin="round" d="M 1094,8476 L 1244,8476"/>
 <path fill="none" stroke="rgb(0,0,0)" stroke-linejoin="round" d="M 1094,8476 L 1244,8476"/>
 <path fill="none" stroke="rgb(0,0,0)" stroke-linejoin="round" d="M 1094,7121 L 1244,7121"/>
 <path fill="none" stroke="rgb(0,0,0)" stroke-linejoin="round" d="M 1094,7121 L 1244,7121"/>
 <path fill="none" stroke="rgb(0,0,0)" stroke-linejoin="round" d="M 1094,5767 L 1244,5767"/>
 <path fill="none" stroke="rgb(0,0,0)" stroke-linejoin="round" d="M 1094,5767 L 1244,5767"/>
 <path fill="none" stroke="rgb(0,0,0)" stroke-linejoin="round" d="M 1094,4412 L 1244,4412"/>
 <path fill="none" stroke="rgb(0,0,0)" stroke-linejoin="round" d="M 1094,4412 L 1244,4412"/>
 <path fill="none" stroke="rgb(0,0,0)" stroke-linejoin="round" d="M 1094,3058 L 1244,3058"/>
 <path fill="none" stroke="rgb(0,0,0)" stroke-linejoin="round" d="M 1094,3058 L 1244,3058"/>
 <path fill="none" stroke="rgb(0,0,0)" stroke-linejoin="round" d="M 1094,1703 L 1244,1703"/>
 <path fill="none" stroke="rgb(0,0,0)" stroke-linejoin="round" d="M 1094,1703 L 1244,1703"/>
 <path fill="none" stroke="rgb(0,0,0)" stroke-linejoin="round" d="M 1244,11186 L 1244,1026"/>
 <path fill="none" stroke="rgb(0,0,0)" stroke-width="50" stroke-linejoin="round" d="M 5432,11182 L 5627,11168 5822,11164 6016,11150 6211,11125 6406,11125 6601,11086 6796,11037 6990,10966 7185,10888 7380,10789 7574,10672 7769,10421 7964,10254 8158,10066 8353,9886 8548,9599 8743,9277 8938,8983 9132,8678 9327,8445 9522,8161 9717,7942 9912,7683 10106,7450 10301,7177 10496,7018 10691,6741 10886,6504 11080,6118 11275,5935 11470,5723 11665,5429 11860,5117 12055,4972 12249,4827 12444,4628 12639,4412 12834,4235 13029,4030 13223,3839 13418,3608 13613,3438 13808,3201 14003,3070 14197,2936 14392,2812 14587,2702"/>
 <path fill="rgb(0,0,0)" stroke="none" d="M 5332,11182 L 5432,11282 5532,11182 5432,11082 5332,11182 Z"/>
 <path fill="none" stroke="rgb(0,0,0)" stroke-linejoin="round" d="M 5332,11182 L 5432,11282 5532,11182 5432,11082 5332,11182 Z"/>
 <path fill="rgb(0,0,0)" stroke="none" d="M 5527,11168 L 5627,11268 5727,11168 5627,11068 5527,11168 Z"/>
 <path fill="none" stroke="rgb(0,0,0)" stroke-linejoin="round" d="M 5527,11168 L 5627,11268 5727,11168 5627,11068 5527,11168 Z"/>
 <path fill="rgb(0,0,0)" stroke="none" d="M 5722,11164 L 5822,11264 5922,11164 5822,11064 5722,11164 Z"/>
 <path fill="none" stroke="rgb(0,0,0)" stroke-linejoin="round" d="M 5722,11164 L 5822,11264 5922,11164 5822,11064 5722,11164 Z"/>
 <path fill="rgb(0,0,0)" stroke="none" d="M 5916,11150 L 6016,11250 6116,11150 6016,11050 5916,11150 Z"/>
 <path fill="none" stroke="rgb(0,0,0)" stroke-linejoin="round" d="M 5916,11150 L 6016,11250 6116,11150 6016,11050 5916,11150 Z"/>
 <path fill="rgb(0,0,0)" stroke="none" d="M 6111,11125 L 6211,11225 6311,11125 6211,11025 6111,11125 Z"/>
 <path fill="none" stroke="rgb(0,0,0)" stroke-linejoin="round" d="M 6111,11125 L 6211,11225 6311,11125 6211,11025 6111,11125 Z"/>
 <path fill="rgb(0,0,0)" stroke="none" d="M 6306,11125 L 6406,11225 6506,11125 6406,11025 6306,11125 Z"/>
 <path fill="none" stroke="rgb(0,0,0)" stroke-linejoin="round" d="M 6306,11125 L 6406,11225 6506,11125 6406,11025 6306,11125 Z"/>
 <path fill="rgb(0,0,0)" stroke="none" d="M 6501,11086 L 6601,11186 6701,11086 6601,10986 6501,11086 Z"/>
 <path fill="none" stroke="rgb(0,0,0)" stroke-linejoin="round" d="M 6501,11086 L 6601,11186 6701,11086 6601,10986 6501,11086 Z"/>
 <path fill="rgb(0,0,0)" stroke="none" d="M 6696,11037 L 6796,11137 6896,11037 6796,10937 6696,11037 Z"/>
 <path fill="none" stroke="rgb(0,0,0)" stroke-linejoin="round" d="M 6696,11037 L 6796,11137 6896,11037 6796,10937 6696,11037 Z"/>
 <path fill="rgb(0,0,0)" stroke="none" d="M 6890,10966 L 6990,11066 7090,10966 6990,10866 6890,10966 Z"/>
 <path fill="none" stroke="rgb(0,0,0)" stroke-linejoin="round" d="M 6890,10966 L 6990,11066 7090,10966 6990,10866 6890,10966 Z"/>
 <path fill="rgb(0,0,0)" stroke="none" d="M 7085,10888 L 7185,10988 7285,10888 7185,10788 7085,10888 Z"/>
 <path fill="none" stroke="rgb(0,0,0)" stroke-linejoin="round" d="M 7085,10888 L 7185,10988 7285,10888 7185,10788 7085,10888 Z"/>
 <path fill="rgb(0,0,0)" stroke="none" d="M 7280,10789 L 7380,10889 7480,10789 7380,10689 7280,10789 Z"/>
 <path fill="none" stroke="rgb(0,0,0)" stroke-linejoin="round" d="M 7280,10789 L 7380,10889 7480,10789 7380,10689 7280,10789 Z"/>
 <path fill="rgb(0,0,0)" stroke="none" d="M 7475,10672 L 7574,10772 7674,10672 7574,10572 7475,10672 Z"/>
 <path fill="none" stroke="rgb(0,0,0)" stroke-linejoin="round" d="M 7475,10672 L 7574,10772 7674,10672 7574,10572 7475,10672 Z"/>
 <path fill="rgb(0,0,0)" stroke="none" d="M 7669,10421 L 7769,10521 7869,10421 7769,10321 7669,10421 Z"/>
 <path fill="none" stroke="rgb(0,0,0)" stroke-linejoin="round" d="M 7669,10421 L 7769,10521 7869,10421 7769,10321 7669,10421 Z"/>
 <path fill="rgb(0,0,0)" stroke="none" d="M 7864,10254 L 7964,10354 8064,10254 7964,10154 7864,10254 Z"/>
 <path fill="none" stroke="rgb(0,0,0)" stroke-linejoin="round" d="M 7864,10254 L 7964,10354 8064,10254 7964,10154 7864,10254 Z"/>
 <path fill="rgb(0,0,0)" stroke="none" d="M 8058,10066 L 8158,10166 8258,10066 8158,9966 8058,10066 Z"/>
 <path fill="none" stroke="rgb(0,0,0)" stroke-linejoin="round" d="M 8058,10066 L 8158,10166 8258,10066 8158,9966 8058,10066 Z"/>
 <path fill="rgb(0,0,0)" stroke="none" d="M 8253,9886 L 8353,9986 8453,9886 8353,9786 8253,9886 Z"/>
 <path fill="none" stroke="rgb(0,0,0)" stroke-linejoin="round" d="M 8253,9886 L 8353,9986 8453,9886 8353,9786 8253,9886 Z"/>
 <path fill="rgb(0,0,0)" stroke="none" d="M 8448,9599 L 8548,9699 8648,9599 8548,9499 8448,9599 Z"/>
 <path fill="none" stroke="rgb(0,0,0)" stroke-linejoin="round" d="M 8448,9599 L 8548,9699 8648,9599 8548,9499 8448,9599 Z"/>
 <path fill="rgb(0,0,0)" stroke="none" d="M 8643,9277 L 8743,9377 8843,9277 8743,9177 8643,9277 Z"/>
 <path fill="none" stroke="rgb(0,0,0)" stroke-linejoin="round" d="M 8643,9277 L 8743,9377 8843,9277 8743,9177 8643,9277 Z"/>
 <path fill="rgb(0,0,0)" stroke="none" d="M 8838,8983 L 8938,9083 9038,8983 8938,8883 8838,8983 Z"/>
 <path fill="none" stroke="rgb(0,0,0)" stroke-linejoin="round" d="M 8838,8983 L 8938,9083 9038,8983 8938,8883 8838,8983 Z"/>
 <path fill="rgb(0,0,0)" stroke="none" d="M 9032,8678 L 9132,8778 9232,8678 9132,8578 9032,8678 Z"/>
 <path fill="none" stroke="rgb(0,0,0)" stroke-linejoin="round" d="M 9032,8678 L 9132,8778 9232,8678 9132,8578 9032,8678 Z"/>
 <path fill="rgb(0,0,0)" stroke="none" d="M 9227,8445 L 9327,8545 9427,8445 9327,8345 9227,8445 Z"/>
 <path fill="none" stroke="rgb(0,0,0)" stroke-linejoin="round" d="M 9227,8445 L 9327,8545 9427,8445 9327,8345 9227,8445 Z"/>
 <path fill="rgb(0,0,0)" stroke="none" d="M 9422,8161 L 9522,8261 9622,8161 9522,8061 9422,8161 Z"/>
 <path fill="none" stroke="rgb(0,0,0)" stroke-linejoin="round" d="M 9422,8161 L 9522,8261 9622,8161 9522,8061 9422,8161 Z"/>
 <path fill="rgb(0,0,0)" stroke="none" d="M 9617,7942 L 9717,8042 9817,7942 9717,7842 9617,7942 Z"/>
 <path fill="none" stroke="rgb(0,0,0)" stroke-linejoin="round" d="M 9617,7942 L 9717,8042 9817,7942 9717,7842 9617,7942 Z"/>
 <path fill="rgb(0,0,0)" stroke="none" d="M 9812,7683 L 9912,7783 10012,7683 9912,7583 9812,7683 Z"/>
 <path fill="none" stroke="rgb(0,0,0)" stroke-linejoin="round" d="M 9812,7683 L 9912,7783 10012,7683 9912,7583 9812,7683 Z"/>
 <path fill="rgb(0,0,0)" stroke="none" d="M 10006,7450 L 10106,7550 10206,7450 10106,7350 10006,7450 Z"/>
 <path fill="none" stroke="rgb(0,0,0)" stroke-linejoin="round" d="M 10006,7450 L 10106,7550 10206,7450 10106,7350 10006,7450 Z"/>
 <path fill="rgb(0,0,0)" stroke="none" d="M 10201,7177 L 10301,7277 10401,7177 10301,7077 10201,7177 Z"/>
 <path fill="none" stroke="rgb(0,0,0)" stroke-linejoin="round" d="M 10201,7177 L 10301,7277 10401,7177 10301,7077 10201,7177 Z"/>
 <path fill="rgb(0,0,0)" stroke="none" d="M 10396,7018 L 10496,7118 10596,7018 10496,6918 10396,7018 Z"/>
 <path fill="none" stroke="rgb(0,0,0)" stroke-linejoin="round" d="M 10396,7018 L 10496,7118 10596,7018 10496,6918 10396,7018 Z"/>
 <path fill="rgb(0,0,0)" stroke="none" d="M 10591,6741 L 10691,6841 10791,6741 10691,6641 10591,6741 Z"/>
 <path fill="none" stroke="rgb(0,0,0)" stroke-linejoin="round" d="M 10591,6741 L 10691,6841 10791,6741 10691,6641 10591,6741 Z"/>
 <path fill="rgb(0,0,0)" stroke="none" d="M 10786,6504 L 10886,6604 10986,6504 10886,6404 10786,6504 Z"/>
 <path fill="none" stroke="rgb(0,0,0)" stroke-linejoin="round" d="M 10786,6504 L 10886,6604 10986,6504 10886,6404 10786,6504 Z"/>
 <path fill="rgb(0,0,0)" stroke="none" d="M 10980,6118 L 11080,6218 11180,6118 11080,6018 10980,6118 Z"/>
 <path fill="none" stroke="rgb(0,0,0)" stroke-linejoin="round" d="M 10980,6118 L 11080,6218 11180,6118 11080,6018 10980,6118 Z"/>
 <path fill="rgb(0,0,0)" stroke="none" d="M 11175,5935 L 11275,6034 11375,5935 11275,5835 11175,5935 Z"/>
 <path fill="none" stroke="rgb(0,0,0)" stroke-linejoin="round" d="M 11175,5935 L 11275,6034 11375,5935 11275,5835 11175,5935 Z"/>
 <path fill="rgb(0,0,0)" stroke="none" d="M 11370,5723 L 11470,5823 11570,5723 11470,5623 11370,5723 Z"/>
 <path fill="none" stroke="rgb(0,0,0)" stroke-linejoin="round" d="M 11370,5723 L 11470,5823 11570,5723 11470,5623 11370,5723 Z"/>
 <path fill="rgb(0,0,0)" stroke="none" d="M 11565,5429 L 11665,5529 11765,5429 11665,5329 11565,5429 Z"/>
 <path fill="none" stroke="rgb(0,0,0)" stroke-linejoin="round" d="M 11565,5429 L 11665,5529 11765,5429 11665,5329 11565,5429 Z"/>
 <path fill="rgb(0,0,0)" stroke="none" d="M 11760,5117 L 11860,5217 11960,5117 11860,5017 11760,5117 Z"/>
 <path fill="none" stroke="rgb(0,0,0)" stroke-linejoin="round" d="M 11760,5117 L 11860,5217 11960,5117 11860,5017 11760,5117 Z"/>
 <path fill="rgb(0,0,0)" stroke="none" d="M 11955,4972 L 12055,5072 12155,4972 12055,4872 11955,4972 Z"/>
 <path fill="none" stroke="rgb(0,0,0)" stroke-linejoin="round" d="M 11955,4972 L 12055,5072 12155,4972 12055,4872 11955,4972 Z"/>
 <path fill="rgb(0,0,0)" stroke="none" d="M 12149,4827 L 12249,4927 12349,4827 12249,4727 12149,4827 Z"/>
 <path fill="none" stroke="rgb(0,0,0)" stroke-linejoin="round" d="M 12149,4827 L 12249,4927 12349,4827 12249,4727 12149,4827 Z"/>
 <path fill="rgb(0,0,0)" stroke="none" d="M 12344,4628 L 12444,4728 12544,4628 12444,4528 12344,4628 Z"/>
 <path fill="none" stroke="rgb(0,0,0)" stroke-linejoin="round" d="M 12344,4628 L 12444,4728 12544,4628 12444,4528 12344,4628 Z"/>
 <path fill="rgb(0,0,0)" stroke="none" d="M 12539,4412 L 12639,4512 12739,4412 12639,4312 12539,4412 Z"/>
 <path fill="none" stroke="rgb(0,0,0)" stroke-linejoin="round" d="M 12539,4412 L 12639,4512 12739,4412 12639,4312 12539,4412 Z"/>
 <path fill="rgb(0,0,0)" stroke="none" d="M 12734,4235 L 12834,4335 12934,4235 12834,4135 12734,4235 Z"/>
 <path fill="none" stroke="rgb(0,0,0)" stroke-linejoin="round" d="M 12734,4235 L 12834,4335 12934,4235 12834,4135 12734,4235 Z"/>
 <path fill="rgb(0,0,0)" stroke="none" d="M 12929,4030 L 13029,4130 13129,4030 13029,3930 12929,4030 Z"/>
 <path fill="none" stroke="rgb(0,0,0)" stroke-linejoin="round" d="M 12929,4030 L 13029,4130 13129,4030 13029,3930 12929,4030 Z"/>
 <path fill="rgb(0,0,0)" stroke="none" d="M 13123,3839 L 13223,3939 13323,3839 13223,3739 13123,3839 Z"/>
 <path fill="none" stroke="rgb(0,0,0)" stroke-linejoin="round" d="M 13123,3839 L 13223,3939 13323,3839 13223,3739 13123,3839 Z"/>
 <path fill="rgb(0,0,0)" stroke="none" d="M 13318,3608 L 13418,3708 13518,3608 13418,3508 13318,3608 Z"/>
 <path fill="none" stroke="rgb(0,0,0)" stroke-linejoin="round" d="M 13318,3608 L 13418,3708 13518,3608 13418,3508 13318,3608 Z"/>
 <path fill="rgb(0,0,0)" stroke="none" d="M 13513,3438 L 13613,3538 13713,3438 13613,3338 13513,3438 Z"/>
 <path fill="none" stroke="rgb(0,0,0)" stroke-linejoin="round" d="M 13513,3438 L 13613,3538 13713,3438 13613,3338 13513,3438 Z"/>
 <path fill="rgb(0,0,0)" stroke="none" d="M 13708,3201 L 13808,3301 13908,3201 13808,3101 13708,3201 Z"/>
 <path fill="none" stroke="rgb(0,0,0)" stroke-linejoin="round" d="M 13708,3201 L 13808,3301 13908,3201 13808,3101 13708,3201 Z"/>
 <path fill="rgb(0,0,0)" stroke="none" d="M 13903,3070 L 14003,3170 14103,3070 14003,2970 13903,3070 Z"/>
 <path fill="none" stroke="rgb(0,0,0)" stroke-linejoin="round" d="M 13903,3070 L 14003,3170 14103,3070 14003,2970 13903,3070 Z"/>
 <path fill="rgb(0,0,0)" stroke="none" d="M 14097,2936 L 14197,3036 14297,2936 14197,2836 14097,2936 Z"/>
 <path fill="none" stroke="rgb(0,0,0)" stroke-linejoin="round" d="M 14097,2936 L 14197,3036 14297,2936 14197,2836 14097,2936 Z"/>
 <path fill="rgb(0,0,0)" stroke="none" d="M 14292,2812 L 14392,2912 14492,2812 14392,2712 14292,2812 Z"/>
 <path fill="none" stroke="rgb(0,0,0)" stroke-linejoin="round" d="M 14292,2812 L 14392,2912 14492,2812 14392,2712 14292,2812 Z"/>
 <path fill="rgb(0,0,0)" stroke="none" d="M 14487,2702 L 14587,2802 14687,2702 14587,2602 14487,2702 Z"/>
 <path fill="none" stroke="rgb(0,0,0)" stroke-linejoin="round" d="M 14487,2702 L 14587,2802 14687,2702 14587,2602 14487,2702 Z"/>
 <path fill="none" stroke="rgb(255,66,14)" stroke-width="50" stroke-linejoin="round" d="M 5627,11183 L 5822,11179 6016,11172 6211,11165 6406,11159 6601,11136 6796,11120 6990,11089 7185,11062 7380,11019 7574,10957 7769,10907 7964,10815 8158,10723 8353,10620 8548,10465 8743,10333 8938,10194 9132,10028 9327,9873 9522,9747 9717,9563 9912,9422 10106,9285 10301,9124 10496,8982 10691,8879 10886,8758 11080,8652 11275,8538 11470,8446 11665,8352 11860,8271 12055,8186 12249,8107 12444,8042 12639,7979 12834,7914 13029,7836 13223,7773 13418,7699 13613,7636 13808,7569 14003,7508 14197,7448 14392,7394 14587,7349"/>
 <path fill="rgb(255,66,14)" stroke="none" d="M 5527,11183 L 5627,11283 5727,11183 5627,11083 5527,11183 Z"/>
 <path fill="none" stroke="rgb(255,66,14)" stroke-linejoin="round" d="M 5527,11183 L 5627,11283 5727,11183 5627,11083 5527,11183 Z"/>
 <path fill="rgb(255,66,14)" stroke="none" d="M 5722,11179 L 5822,11279 5922,11179 5822,11079 5722,11179 Z"/>
 <path fill="none" stroke="rgb(255,66,14)" stroke-linejoin="round" d="M 5722,11179 L 5822,11279 5922,11179 5822,11079 5722,11179 Z"/>
 <path fill="rgb(255,66,14)" stroke="none" d="M 5916,11172 L 6016,11272 6116,11172 6016,11072 5916,11172 Z"/>
 <path fill="none" stroke="rgb(255,66,14)" stroke-linejoin="round" d="M 5916,11172 L 6016,11272 6116,11172 6016,11072 5916,11172 Z"/>
 <path fill="rgb(255,66,14)" stroke="none" d="M 6111,11165 L 6211,11265 6311,11165 6211,11065 6111,11165 Z"/>
 <path fill="none" stroke="rgb(255,66,14)" stroke-linejoin="round" d="M 6111,11165 L 6211,11265 6311,11165 6211,11065 6111,11165 Z"/>
 <path fill="rgb(255,66,14)" stroke="none" d="M 6306,11159 L 6406,11259 6506,11159 6406,11059 6306,11159 Z"/>
 <path fill="none" stroke="rgb(255,66,14)" stroke-linejoin="round" d="M 6306,11159 L 6406,11259 6506,11159 6406,11059 6306,11159 Z"/>
 <path fill="rgb(255,66,14)" stroke="none" d="M 6501,11136 L 6601,11236 6701,11136 6601,11036 6501,11136 Z"/>
 <path fill="none" stroke="rgb(255,66,14)" stroke-linejoin="round" d="M 6501,11136 L 6601,11236 6701,11136 6601,11036 6501,11136 Z"/>
 <path fill="rgb(255,66,14)" stroke="none" d="M 6696,11120 L 6796,11220 6896,11120 6796,11020 6696,11120 Z"/>
 <path fill="none" stroke="rgb(255,66,14)" stroke-linejoin="round" d="M 6696,11120 L 6796,11220 6896,11120 6796,11020 6696,11120 Z"/>
 <path fill="rgb(255,66,14)" stroke="none" d="M 6890,11089 L 6990,11189 7090,11089 6990,10989 6890,11089 Z"/>
 <path fill="none" stroke="rgb(255,66,14)" stroke-linejoin="round" d="M 6890,11089 L 6990,11189 7090,11089 6990,10989 6890,11089 Z"/>
 <path fill="rgb(255,66,14)" stroke="none" d="M 7085,11062 L 7185,11162 7285,11062 7185,10962 7085,11062 Z"/>
 <path fill="none" stroke="rgb(255,66,14)" stroke-linejoin="round" d="M 7085,11062 L 7185,11162 7285,11062 7185,10962 7085,11062 Z"/>
 <path fill="rgb(255,66,14)" stroke="none" d="M 7280,11019 L 7380,11119 7480,11019 7380,10919 7280,11019 Z"/>
 <path fill="none" stroke="rgb(255,66,14)" stroke-linejoin="round" d="M 7280,11019 L 7380,11119 7480,11019 7380,10919 7280,11019 Z"/>
 <path fill="rgb(255,66,14)" stroke="none" d="M 7475,10957 L 7574,11057 7674,10957 7574,10857 7475,10957 Z"/>
 <path fill="none" stroke="rgb(255,66,14)" stroke-linejoin="round" d="M 7475,10957 L 7574,11057 7674,10957 7574,10857 7475,10957 Z"/>
 <path fill="rgb(255,66,14)" stroke="none" d="M 7669,10907 L 7769,11007 7869,10907 7769,10807 7669,10907 Z"/>
 <path fill="none" stroke="rgb(255,66,14)" stroke-linejoin="round" d="M 7669,10907 L 7769,11007 7869,10907 7769,10807 7669,10907 Z"/>
 <path fill="rgb(255,66,14)" stroke="none" d="M 7864,10815 L 7964,10915 8064,10815 7964,10715 7864,10815 Z"/>
 <path fill="none" stroke="rgb(255,66,14)" stroke-linejoin="round" d="M 7864,10815 L 7964,10915 8064,10815 7964,10715 7864,10815 Z"/>
 <path fill="rgb(255,66,14)" stroke="none" d="M 8058,10723 L 8158,10823 8258,10723 8158,10623 8058,10723 Z"/>
 <path fill="none" stroke="rgb(255,66,14)" stroke-linejoin="round" d="M 8058,10723 L 8158,10823 8258,10723 8158,10623 8058,10723 Z"/>
 <path fill="rgb(255,66,14)" stroke="none" d="M 8253,10620 L 8353,10720 8453,10620 8353,10520 8253,10620 Z"/>
 <path fill="none" stroke="rgb(255,66,14)" stroke-linejoin="round" d="M 8253,10620 L 8353,10720 8453,10620 8353,10520 8253,10620 Z"/>
 <path fill="rgb(255,66,14)" stroke="none" d="M 8448,10465 L 8548,10565 8648,10465 8548,10365 8448,10465 Z"/>
 <path fill="none" stroke="rgb(255,66,14)" stroke-linejoin="round" d="M 8448,10465 L 8548,10565 8648,10465 8548,10365 8448,10465 Z"/>
 <path fill="rgb(255,66,14)" stroke="none" d="M 8643,10333 L 8743,10433 8843,10333 8743,10233 8643,10333 Z"/>
 <path fill="none" stroke="rgb(255,66,14)" stroke-linejoin="round" d="M 8643,10333 L 8743,10433 8843,10333 8743,10233 8643,10333 Z"/>
 <path fill="rgb(255,66,14)" stroke="none" d="M 8838,10194 L 8938,10294 9038,10194 8938,10094 8838,10194 Z"/>
 <path fill="none" stroke="rgb(255,66,14)" stroke-linejoin="round" d="M 8838,10194 L 8938,10294 9038,10194 8938,10094 8838,10194 Z"/>
 <path fill="rgb(255,66,14)" stroke="none" d="M 9032,10028 L 9132,10128 9232,10028 9132,9928 9032,10028 Z"/>
 <path fill="none" stroke="rgb(255,66,14)" stroke-linejoin="round" d="M 9032,10028 L 9132,10128 9232,10028 9132,9928 9032,10028 Z"/>
 <path fill="rgb(255,66,14)" stroke="none" d="M 9227,9873 L 9327,9973 9427,9873 9327,9773 9227,9873 Z"/>
 <path fill="none" stroke="rgb(255,66,14)" stroke-linejoin="round" d="M 9227,9873 L 9327,9973 9427,9873 9327,9773 9227,9873 Z"/>
 <path fill="rgb(255,66,14)" stroke="none" d="M 9422,9747 L 9522,9847 9622,9747 9522,9647 9422,9747 Z"/>
 <path fill="none" stroke="rgb(255,66,14)" stroke-linejoin="round" d="M 9422,9747 L 9522,9847 9622,9747 9522,9647 9422,9747 Z"/>
 <path fill="rgb(255,66,14)" stroke="none" d="M 9617,9563 L 9717,9663 9817,9563 9717,9463 9617,9563 Z"/>
 <path fill="none" stroke="rgb(255,66,14)" stroke-linejoin="round" d="M 9617,9563 L 9717,9663 9817,9563 9717,9463 9617,9563 Z"/>
 <path fill="rgb(255,66,14)" stroke="none" d="M 9812,9422 L 9912,9522 10012,9422 9912,9322 9812,9422 Z"/>
 <path fill="none" stroke="rgb(255,66,14)" stroke-linejoin="round" d="M 9812,9422 L 9912,9522 10012,9422 9912,9322 9812,9422 Z"/>
 <path fill="rgb(255,66,14)" stroke="none" d="M 10006,9285 L 10106,9385 10206,9285 10106,9185 10006,9285 Z"/>
 <path fill="none" stroke="rgb(255,66,14)" stroke-linejoin="round" d="M 10006,9285 L 10106,9385 10206,9285 10106,9185 10006,9285 Z"/>
 <path fill="rgb(255,66,14)" stroke="none" d="M 10201,9124 L 10301,9224 10401,9124 10301,9024 10201,9124 Z"/>
 <path fill="none" stroke="rgb(255,66,14)" stroke-linejoin="round" d="M 10201,9124 L 10301,9224 10401,9124 10301,9024 10201,9124 Z"/>
 <path fill="rgb(255,66,14)" stroke="none" d="M 10396,8982 L 10496,9082 10596,8982 10496,8882 10396,8982 Z"/>
 <path fill="none" stroke="rgb(255,66,14)" stroke-linejoin="round" d="M 10396,8982 L 10496,9082 10596,8982 10496,8882 10396,8982 Z"/>
 <path fill="rgb(255,66,14)" stroke="none" d="M 10591,8879 L 10691,8979 10791,8879 10691,8779 10591,8879 Z"/>
 <path fill="none" stroke="rgb(255,66,14)" stroke-linejoin="round" d="M 10591,8879 L 10691,8979 10791,8879 10691,8779 10591,8879 Z"/>
 <path fill="rgb(255,66,14)" stroke="none" d="M 10786,8758 L 10886,8858 10986,8758 10886,8658 10786,8758 Z"/>
 <path fill="none" stroke="rgb(255,66,14)" stroke-linejoin="round" d="M 10786,8758 L 10886,8858 10986,8758 10886,8658 10786,8758 Z"/>
 <path fill="rgb(255,66,14)" stroke="none" d="M 10980,8652 L 11080,8752 11180,8652 11080,8552 10980,8652 Z"/>
 <path fill="none" stroke="rgb(255,66,14)" stroke-linejoin="round" d="M 10980,8652 L 11080,8752 11180,8652 11080,8552 10980,8652 Z"/>
 <path fill="rgb(255,66,14)" stroke="none" d="M 11175,8538 L 11275,8638 11375,8538 11275,8438 11175,8538 Z"/>
 <path fill="none" stroke="rgb(255,66,14)" stroke-linejoin="round" d="M 11175,8538 L 11275,8638 11375,8538 11275,8438 11175,8538 Z"/>
 <path fill="rgb(255,66,14)" stroke="none" d="M 11370,8446 L 11470,8546 11570,8446 11470,8346 11370,8446 Z"/>
 <path fill="none" stroke="rgb(255,66,14)" stroke-linejoin="round" d="M 11370,8446 L 11470,8546 11570,8446 11470,8346 11370,8446 Z"/>
 <path fill="rgb(255,66,14)" stroke="none" d="M 11565,8352 L 11665,8452 11765,8352 11665,8252 11565,8352 Z"/>
 <path fill="none" stroke="rgb(255,66,14)" stroke-linejoin="round" d="M 11565,8352 L 11665,8452 11765,8352 11665,8252 11565,8352 Z"/>
 <path fill="rgb(255,66,14)" stroke="none" d="M 11760,8271 L 11860,8371 11960,8271 11860,8171 11760,8271 Z"/>
 <path fill="none" stroke="rgb(255,66,14)" stroke-linejoin="round" d="M 11760,8271 L 11860,8371 11960,8271 11860,8171 11760,8271 Z"/>
 <path fill="rgb(255,66,14)" stroke="none" d="M 11955,8186 L 12055,8286 12155,8186 12055,8086 11955,8186 Z"/>
 <path fill="none" stroke="rgb(255,66,14)" stroke-linejoin="round" d="M 11955,8186 L 12055,8286 12155,8186 12055,8086 11955,8186 Z"/>
 <path fill="rgb(255,66,14)" stroke="none" d="M 12149,8107 L 12249,8207 12349,8107 12249,8007 12149,8107 Z"/>
 <path fill="none" stroke="rgb(255,66,14)" stroke-linejoin="round" d="M 12149,8107 L 12249,8207 12349,8107 12249,8007 12149,8107 Z"/>
 <path fill="rgb(255,66,14)" stroke="none" d="M 12344,8042 L 12444,8142 12544,8042 12444,7942 12344,8042 Z"/>
 <path fill="none" stroke="rgb(255,66,14)" stroke-linejoin="round" d="M 12344,8042 L 12444,8142 12544,8042 12444,7942 12344,8042 Z"/>
 <path fill="rgb(255,66,14)" stroke="none" d="M 12539,7979 L 12639,8079 12739,7979 12639,7879 12539,7979 Z"/>
 <path fill="none" stroke="rgb(255,66,14)" stroke-linejoin="round" d="M 12539,7979 L 12639,8079 12739,7979 12639,7879 12539,7979 Z"/>
 <path fill="rgb(255,66,14)" stroke="none" d="M 12734,7914 L 12834,8014 12934,7914 12834,7814 12734,7914 Z"/>
 <path fill="none" stroke="rgb(255,66,14)" stroke-linejoin="round" d="M 12734,7914 L 12834,8014 12934,7914 12834,7814 12734,7914 Z"/>
 <path fill="rgb(255,66,14)" stroke="none" d="M 12929,7836 L 13029,7936 13129,7836 13029,7736 12929,7836 Z"/>
 <path fill="none" stroke="rgb(255,66,14)" stroke-linejoin="round" d="M 12929,7836 L 13029,7936 13129,7836 13029,7736 12929,7836 Z"/>
 <path fill="rgb(255,66,14)" stroke="none" d="M 13123,7773 L 13223,7873 13323,7773 13223,7673 13123,7773 Z"/>
 <path fill="none" stroke="rgb(255,66,14)" stroke-linejoin="round" d="M 13123,7773 L 13223,7873 13323,7773 13223,7673 13123,7773 Z"/>
 <path fill="rgb(255,66,14)" stroke="none" d="M 13318,7699 L 13418,7799 13518,7699 13418,7599 13318,7699 Z"/>
 <path fill="none" stroke="rgb(255,66,14)" stroke-linejoin="round" d="M 13318,7699 L 13418,7799 13518,7699 13418,7599 13318,7699 Z"/>
 <path fill="rgb(255,66,14)" stroke="none" d="M 13513,7636 L 13613,7736 13713,7636 13613,7536 13513,7636 Z"/>
 <path fill="none" stroke="rgb(255,66,14)" stroke-linejoin="round" d="M 13513,7636 L 13613,7736 13713,7636 13613,7536 13513,7636 Z"/>
 <path fill="rgb(255,66,14)" stroke="none" d="M 13708,7569 L 13808,7669 13908,7569 13808,7469 13708,7569 Z"/>
 <path fill="none" stroke="rgb(255,66,14)" stroke-linejoin="round" d="M 13708,7569 L 13808,7669 13908,7569 13808,7469 13708,7569 Z"/>
 <path fill="rgb(255,66,14)" stroke="none" d="M 13903,7508 L 14003,7608 14103,7508 14003,7408 13903,7508 Z"/>
 <path fill="none" stroke="rgb(255,66,14)" stroke-linejoin="round" d="M 13903,7508 L 14003,7608 14103,7508 14003,7408 13903,7508 Z"/>
 <path fill="rgb(255,66,14)" stroke="none" d="M 14097,7448 L 14197,7548 14297,7448 14197,7348 14097,7448 Z"/>
 <path fill="none" stroke="rgb(255,66,14)" stroke-linejoin="round" d="M 14097,7448 L 14197,7548 14297,7448 14197,7348 14097,7448 Z"/>
 <path fill="rgb(255,66,14)" stroke="none" d="M 14292,7394 L 14392,7494 14492,7394 14392,7294 14292,7394 Z"/>
 <path fill="none" stroke="rgb(255,66,14)" stroke-linejoin="round" d="M 14292,7394 L 14392,7494 14492,7394 14392,7294 14292,7394 Z"/>
 <path fill="rgb(255,66,14)" stroke="none" d="M 14487,7349 L 14587,7449 14687,7349 14587,7249 14487,7349 Z"/>
 <path fill="none" stroke="rgb(255,66,14)" stroke-linejoin="round" d="M 14487,7349 L 14587,7449 14687,7349 14587,7249 14487,7349 Z"/>
 <path fill="none" stroke="rgb(255,211,32)" stroke-width="50" stroke-linejoin="round" d="M 4458,11185 L 4653,11185 4848,11185 5042,11183 5237,11183 5432,11182 5627,11182 5822,11180 6016,11178 6211,11174 6406,11168 6601,11146 6796,11133 6990,11107 7185,11069 7380,11003 7574,10952 7769,10917 7964,10694 8158,10545 8353,10347 8548,10166 8743,10017 8938,9842 9132,9592 9327,9423 9522,9191 9717,8960 9912,8795 10106,8672 10301,8555 10496,8414 10691,8287 10886,8185 11080,8106 11275,8011 11470,7905 11665,7813 11860,7691 12055,7606 12249,7511 12444,7383 12639,7262 12834,7211 13029,7139 13223,7002 13418,6912 13613,6820 13808,6773 14003,6672 14197,6608 14392,6481 14587,6377"/>
 <path fill="rgb(255,211,32)" stroke="none" d="M 4358,11085 L 4458,11285 4558,11085 4358,11085 Z"/>
 <path fill="none" stroke="rgb(255,211,32)" stroke-linejoin="round" d="M 4358,11085 L 4458,11285 4558,11085 4358,11085 Z"/>
 <path fill="rgb(255,211,32)" stroke="none" d="M 4553,11085 L 4653,11285 4753,11085 4553,11085 Z"/>
 <path fill="none" stroke="rgb(255,211,32)" stroke-linejoin="round" d="M 4553,11085 L 4653,11285 4753,11085 4553,11085 Z"/>
 <path fill="rgb(255,211,32)" stroke="none" d="M 4748,11085 L 4848,11285 4948,11085 4748,11085 Z"/>
 <path fill="none" stroke="rgb(255,211,32)" stroke-linejoin="round" d="M 4748,11085 L 4848,11285 4948,11085 4748,11085 Z"/>
 <path fill="rgb(255,211,32)" stroke="none" d="M 4942,11083 L 5042,11283 5142,11083 4942,11083 Z"/>
 <path fill="none" stroke="rgb(255,211,32)" stroke-linejoin="round" d="M 4942,11083 L 5042,11283 5142,11083 4942,11083 Z"/>
 <path fill="rgb(255,211,32)" stroke="none" d="M 5137,11083 L 5237,11283 5337,11083 5137,11083 Z"/>
 <path fill="none" stroke="rgb(255,211,32)" stroke-linejoin="round" d="M 5137,11083 L 5237,11283 5337,11083 5137,11083 Z"/>
 <path fill="rgb(255,211,32)" stroke="none" d="M 5332,11082 L 5432,11282 5532,11082 5332,11082 Z"/>
 <path fill="none" stroke="rgb(255,211,32)" stroke-linejoin="round" d="M 5332,11082 L 5432,11282 5532,11082 5332,11082 Z"/>
 <path fill="rgb(255,211,32)" stroke="none" d="M 5527,11082 L 5627,11282 5727,11082 5527,11082 Z"/>
 <path fill="none" stroke="rgb(255,211,32)" stroke-linejoin="round" d="M 5527,11082 L 5627,11282 5727,11082 5527,11082 Z"/>
 <path fill="rgb(255,211,32)" stroke="none" d="M 5722,11080 L 5822,11280 5922,11080 5722,11080 Z"/>
 <path fill="none" stroke="rgb(255,211,32)" stroke-linejoin="round" d="M 5722,11080 L 5822,11280 5922,11080 5722,11080 Z"/>
 <path fill="rgb(255,211,32)" stroke="none" d="M 5916,11078 L 6016,11278 6116,11078 5916,11078 Z"/>
 <path fill="none" stroke="rgb(255,211,32)" stroke-linejoin="round" d="M 5916,11078 L 6016,11278 6116,11078 5916,11078 Z"/>
 <path fill="rgb(255,211,32)" stroke="none" d="M 6111,11074 L 6211,11274 6311,11074 6111,11074 Z"/>
 <path fill="none" stroke="rgb(255,211,32)" stroke-linejoin="round" d="M 6111,11074 L 6211,11274 6311,11074 6111,11074 Z"/>
 <path fill="rgb(255,211,32)" stroke="none" d="M 6306,11068 L 6406,11268 6506,11068 6306,11068 Z"/>
 <path fill="none" stroke="rgb(255,211,32)" stroke-linejoin="round" d="M 6306,11068 L 6406,11268 6506,11068 6306,11068 Z"/>
 <path fill="rgb(255,211,32)" stroke="none" d="M 6501,11046 L 6601,11246 6701,11046 6501,11046 Z"/>
 <path fill="none" stroke="rgb(255,211,32)" stroke-linejoin="round" d="M 6501,11046 L 6601,11246 6701,11046 6501,11046 Z"/>
 <path fill="rgb(255,211,32)" stroke="none" d="M 6696,11033 L 6796,11233 6896,11033 6696,11033 Z"/>
 <path fill="none" stroke="rgb(255,211,32)" stroke-linejoin="round" d="M 6696,11033 L 6796,11233 6896,11033 6696,11033 Z"/>
 <path fill="rgb(255,211,32)" stroke="none" d="M 6890,11007 L 6990,11207 7090,11007 6890,11007 Z"/>
 <path fill="none" stroke="rgb(255,211,32)" stroke-linejoin="round" d="M 6890,11007 L 6990,11207 7090,11007 6890,11007 Z"/>
 <path fill="rgb(255,211,32)" stroke="none" d="M 7085,10969 L 7185,11169 7285,10969 7085,10969 Z"/>
 <path fill="none" stroke="rgb(255,211,32)" stroke-linejoin="round" d="M 7085,10969 L 7185,11169 7285,10969 7085,10969 Z"/>
 <path fill="rgb(255,211,32)" stroke="none" d="M 7280,10903 L 7380,11103 7480,10903 7280,10903 Z"/>
 <path fill="none" stroke="rgb(255,211,32)" stroke-linejoin="round" d="M 7280,10903 L 7380,11103 7480,10903 7280,10903 Z"/>
 <path fill="rgb(255,211,32)" stroke="none" d="M 7475,10852 L 7574,11052 7674,10852 7475,10852 Z"/>
 <path fill="none" stroke="rgb(255,211,32)" stroke-linejoin="round" d="M 7475,10852 L 7574,11052 7674,10852 7475,10852 Z"/>
 <path fill="rgb(255,211,32)" stroke="none" d="M 7669,10817 L 7769,11017 7869,10817 7669,10817 Z"/>
 <path fill="none" stroke="rgb(255,211,32)" stroke-linejoin="round" d="M 7669,10817 L 7769,11017 7869,10817 7669,10817 Z"/>
 <path fill="rgb(255,211,32)" stroke="none" d="M 7864,10594 L 7964,10794 8064,10594 7864,10594 Z"/>
 <path fill="none" stroke="rgb(255,211,32)" stroke-linejoin="round" d="M 7864,10594 L 7964,10794 8064,10594 7864,10594 Z"/>
 <path fill="rgb(255,211,32)" stroke="none" d="M 8058,10445 L 8158,10645 8258,10445 8058,10445 Z"/>
 <path fill="none" stroke="rgb(255,211,32)" stroke-linejoin="round" d="M 8058,10445 L 8158,10645 8258,10445 8058,10445 Z"/>
 <path fill="rgb(255,211,32)" stroke="none" d="M 8253,10247 L 8353,10447 8453,10247 8253,10247 Z"/>
 <path fill="none" stroke="rgb(255,211,32)" stroke-linejoin="round" d="M 8253,10247 L 8353,10447 8453,10247 8253,10247 Z"/>
 <path fill="rgb(255,211,32)" stroke="none" d="M 8448,10066 L 8548,10266 8648,10066 8448,10066 Z"/>
 <path fill="none" stroke="rgb(255,211,32)" stroke-linejoin="round" d="M 8448,10066 L 8548,10266 8648,10066 8448,10066 Z"/>
 <path fill="rgb(255,211,32)" stroke="none" d="M 8643,9917 L 8743,10117 8843,9917 8643,9917 Z"/>
 <path fill="none" stroke="rgb(255,211,32)" stroke-linejoin="round" d="M 8643,9917 L 8743,10117 8843,9917 8643,9917 Z"/>
 <path fill="rgb(255,211,32)" stroke="none" d="M 8838,9742 L 8938,9942 9038,9742 8838,9742 Z"/>
 <path fill="none" stroke="rgb(255,211,32)" stroke-linejoin="round" d="M 8838,9742 L 8938,9942 9038,9742 8838,9742 Z"/>
 <path fill="rgb(255,211,32)" stroke="none" d="M 9032,9492 L 9132,9692 9232,9492 9032,9492 Z"/>
 <path fill="none" stroke="rgb(255,211,32)" stroke-linejoin="round" d="M 9032,9492 L 9132,9692 9232,9492 9032,9492 Z"/>
 <path fill="rgb(255,211,32)" stroke="none" d="M 9227,9323 L 9327,9523 9427,9323 9227,9323 Z"/>
 <path fill="none" stroke="rgb(255,211,32)" stroke-linejoin="round" d="M 9227,9323 L 9327,9523 9427,9323 9227,9323 Z"/>
 <path fill="rgb(255,211,32)" stroke="none" d="M 9422,9091 L 9522,9291 9622,9091 9422,9091 Z"/>
 <path fill="none" stroke="rgb(255,211,32)" stroke-linejoin="round" d="M 9422,9091 L 9522,9291 9622,9091 9422,9091 Z"/>
 <path fill="rgb(255,211,32)" stroke="none" d="M 9617,8860 L 9717,9060 9817,8860 9617,8860 Z"/>
 <path fill="none" stroke="rgb(255,211,32)" stroke-linejoin="round" d="M 9617,8860 L 9717,9060 9817,8860 9617,8860 Z"/>
 <path fill="rgb(255,211,32)" stroke="none" d="M 9812,8695 L 9912,8895 10012,8695 9812,8695 Z"/>
 <path fill="none" stroke="rgb(255,211,32)" stroke-linejoin="round" d="M 9812,8695 L 9912,8895 10012,8695 9812,8695 Z"/>
 <path fill="rgb(255,211,32)" stroke="none" d="M 10006,8572 L 10106,8772 10206,8572 10006,8572 Z"/>
 <path fill="none" stroke="rgb(255,211,32)" stroke-linejoin="round" d="M 10006,8572 L 10106,8772 10206,8572 10006,8572 Z"/>
 <path fill="rgb(255,211,32)" stroke="none" d="M 10201,8455 L 10301,8655 10401,8455 10201,8455 Z"/>
 <path fill="none" stroke="rgb(255,211,32)" stroke-linejoin="round" d="M 10201,8455 L 10301,8655 10401,8455 10201,8455 Z"/>
 <path fill="rgb(255,211,32)" stroke="none" d="M 10396,8314 L 10496,8514 10596,8314 10396,8314 Z"/>
 <path fill="none" stroke="rgb(255,211,32)" stroke-linejoin="round" d="M 10396,8314 L 10496,8514 10596,8314 10396,8314 Z"/>
 <path fill="rgb(255,211,32)" stroke="none" d="M 10591,8187 L 10691,8387 10791,8187 10591,8187 Z"/>
 <path fill="none" stroke="rgb(255,211,32)" stroke-linejoin="round" d="M 10591,8187 L 10691,8387 10791,8187 10591,8187 Z"/>
 <path fill="rgb(255,211,32)" stroke="none" d="M 10786,8085 L 10886,8285 10986,8085 10786,8085 Z"/>
 <path fill="none" stroke="rgb(255,211,32)" stroke-linejoin="round" d="M 10786,8085 L 10886,8285 10986,8085 10786,8085 Z"/>
 <path fill="rgb(255,211,32)" stroke="none" d="M 10980,8006 L 11080,8206 11180,8006 10980,8006 Z"/>
 <path fill="none" stroke="rgb(255,211,32)" stroke-linejoin="round" d="M 10980,8006 L 11080,8206 11180,8006 10980,8006 Z"/>
 <path fill="rgb(255,211,32)" stroke="none" d="M 11175,7911 L 11275,8111 11375,7911 11175,7911 Z"/>
 <path fill="none" stroke="rgb(255,211,32)" stroke-linejoin="round" d="M 11175,7911 L 11275,8111 11375,7911 11175,7911 Z"/>
 <path fill="rgb(255,211,32)" stroke="none" d="M 11370,7805 L 11470,8005 11570,7805 11370,7805 Z"/>
 <path fill="none" stroke="rgb(255,211,32)" stroke-linejoin="round" d="M 11370,7805 L 11470,8005 11570,7805 11370,7805 Z"/>
 <path fill="rgb(255,211,32)" stroke="none" d="M 11565,7713 L 11665,7913 11765,7713 11565,7713 Z"/>
 <path fill="none" stroke="rgb(255,211,32)" stroke-linejoin="round" d="M 11565,7713 L 11665,7913 11765,7713 11565,7713 Z"/>
 <path fill="rgb(255,211,32)" stroke="none" d="M 11760,7591 L 11860,7791 11960,7591 11760,7591 Z"/>
 <path fill="none" stroke="rgb(255,211,32)" stroke-linejoin="round" d="M 11760,7591 L 11860,7791 11960,7591 11760,7591 Z"/>
 <path fill="rgb(255,211,32)" stroke="none" d="M 11955,7506 L 12055,7706 12155,7506 11955,7506 Z"/>
 <path fill="none" stroke="rgb(255,211,32)" stroke-linejoin="round" d="M 11955,7506 L 12055,7706 12155,7506 11955,7506 Z"/>
 <path fill="rgb(255,211,32)" stroke="none" d="M 12149,7411 L 12249,7611 12349,7411 12149,7411 Z"/>
 <path fill="none" stroke="rgb(255,211,32)" stroke-linejoin="round" d="M 12149,7411 L 12249,7611 12349,7411 12149,7411 Z"/>
 <path fill="rgb(255,211,32)" stroke="none" d="M 12344,7283 L 12444,7483 12544,7283 12344,7283 Z"/>
 <path fill="none" stroke="rgb(255,211,32)" stroke-linejoin="round" d="M 12344,7283 L 12444,7483 12544,7283 12344,7283 Z"/>
 <path fill="rgb(255,211,32)" stroke="none" d="M 12539,7162 L 12639,7362 12739,7162 12539,7162 Z"/>
 <path fill="none" stroke="rgb(255,211,32)" stroke-linejoin="round" d="M 12539,7162 L 12639,7362 12739,7162 12539,7162 Z"/>
 <path fill="rgb(255,211,32)" stroke="none" d="M 12734,7111 L 12834,7311 12934,7111 12734,7111 Z"/>
 <path fill="none" stroke="rgb(255,211,32)" stroke-linejoin="round" d="M 12734,7111 L 12834,7311 12934,7111 12734,7111 Z"/>
 <path fill="rgb(255,211,32)" stroke="none" d="M 12929,7039 L 13029,7239 13129,7039 12929,7039 Z"/>
 <path fill="none" stroke="rgb(255,211,32)" stroke-linejoin="round" d="M 12929,7039 L 13029,7239 13129,7039 12929,7039 Z"/>
 <path fill="rgb(255,211,32)" stroke="none" d="M 13123,6902 L 13223,7102 13323,6902 13123,6902 Z"/>
 <path fill="none" stroke="rgb(255,211,32)" stroke-linejoin="round" d="M 13123,6902 L 13223,7102 13323,6902 13123,6902 Z"/>
 <path fill="rgb(255,211,32)" stroke="none" d="M 13318,6812 L 13418,7012 13518,6812 13318,6812 Z"/>
 <path fill="none" stroke="rgb(255,211,32)" stroke-linejoin="round" d="M 13318,6812 L 13418,7012 13518,6812 13318,6812 Z"/>
 <path fill="rgb(255,211,32)" stroke="none" d="M 13513,6720 L 13613,6920 13713,6720 13513,6720 Z"/>
 <path fill="none" stroke="rgb(255,211,32)" stroke-linejoin="round" d="M 13513,6720 L 13613,6920 13713,6720 13513,6720 Z"/>
 <path fill="rgb(255,211,32)" stroke="none" d="M 13708,6673 L 13808,6873 13908,6673 13708,6673 Z"/>
 <path fill="none" stroke="rgb(255,211,32)" stroke-linejoin="round" d="M 13708,6673 L 13808,6873 13908,6673 13708,6673 Z"/>
 <path fill="rgb(255,211,32)" stroke="none" d="M 13903,6572 L 14003,6772 14103,6572 13903,6572 Z"/>
 <path fill="none" stroke="rgb(255,211,32)" stroke-linejoin="round" d="M 13903,6572 L 14003,6772 14103,6572 13903,6572 Z"/>
 <path fill="rgb(255,211,32)" stroke="none" d="M 14097,6508 L 14197,6708 14297,6508 14097,6508 Z"/>
 <path fill="none" stroke="rgb(255,211,32)" stroke-linejoin="round" d="M 14097,6508 L 14197,6708 14297,6508 14097,6508 Z"/>
 <path fill="rgb(255,211,32)" stroke="none" d="M 14292,6381 L 14392,6581 14492,6381 14292,6381 Z"/>
 <path fill="none" stroke="rgb(255,211,32)" stroke-linejoin="round" d="M 14292,6381 L 14392,6581 14492,6381 14292,6381 Z"/>
 <path fill="rgb(255,211,32)" stroke="none" d="M 14487,6277 L 14587,6477 14687,6277 14487,6277 Z"/>
 <path fill="none" stroke="rgb(255,211,32)" stroke-linejoin="round" d="M 14487,6277 L 14587,6477 14687,6277 14487,6277 Z"/>
 <path fill="none" stroke="rgb(87,157,28)" stroke-width="50" stroke-linejoin="round" d="M 4068,11184 L 4263,11183 4458,11180 4653,11176 4848,11176 5042,11161 5237,11149 5432,11120 5627,11090 5822,11085 6016,10935 6211,10935 6406,10769 6601,10728 6796,10601 6990,10448 7185,10242 7380,9987 7574,9703 7769,9384 7964,9043 8158,8732 8353,8354 8548,7949 8743,7568 8938,7204 9132,6956 9327,6649 9522,6285 9717,5925 9912,5643 10106,5387 10301,5158 10496,4882 10691,4630 10886,4379 11080,4177 11275,4045 11470,3818 11665,3648 11860,3477 12055,3294 12249,3115 12444,2962 12639,2815 12834,2690 13029,2558 13223,2430 13418,2293 13613,2167 13808,2072 14003,1975 14197,1888 14392,1813 14587,1740"/>
 <path fill="rgb(87,157,28)" stroke="none" d="M 3968,11284 L 4168,11284 4068,11084 3968,11284 Z"/>
 <path fill="none" stroke="rgb(87,157,28)" stroke-linejoin="round" d="M 3968,11284 L 4168,11284 4068,11084 3968,11284 Z"/>
 <path fill="rgb(87,157,28)" stroke="none" d="M 4163,11283 L 4363,11283 4263,11083 4163,11283 Z"/>
 <path fill="none" stroke="rgb(87,157,28)" stroke-linejoin="round" d="M 4163,11283 L 4363,11283 4263,11083 4163,11283 Z"/>
 <path fill="rgb(87,157,28)" stroke="none" d="M 4358,11280 L 4558,11280 4458,11080 4358,11280 Z"/>
 <path fill="none" stroke="rgb(87,157,28)" stroke-linejoin="round" d="M 4358,11280 L 4558,11280 4458,11080 4358,11280 Z"/>
 <path fill="rgb(87,157,28)" stroke="none" d="M 4553,11276 L 4753,11276 4653,11076 4553,11276 Z"/>
 <path fill="none" stroke="rgb(87,157,28)" stroke-linejoin="round" d="M 4553,11276 L 4753,11276 4653,11076 4553,11276 Z"/>
 <path fill="rgb(87,157,28)" stroke="none" d="M 4748,11276 L 4948,11276 4848,11076 4748,11276 Z"/>
 <path fill="none" stroke="rgb(87,157,28)" stroke-linejoin="round" d="M 4748,11276 L 4948,11276 4848,11076 4748,11276 Z"/>
 <path fill="rgb(87,157,28)" stroke="none" d="M 4942,11261 L 5142,11261 5042,11061 4942,11261 Z"/>
 <path fill="none" stroke="rgb(87,157,28)" stroke-linejoin="round" d="M 4942,11261 L 5142,11261 5042,11061 4942,11261 Z"/>
 <path fill="rgb(87,157,28)" stroke="none" d="M 5137,11249 L 5337,11249 5237,11049 5137,11249 Z"/>
 <path fill="none" stroke="rgb(87,157,28)" stroke-linejoin="round" d="M 5137,11249 L 5337,11249 5237,11049 5137,11249 Z"/>
 <path fill="rgb(87,157,28)" stroke="none" d="M 5332,11220 L 5532,11220 5432,11020 5332,11220 Z"/>
 <path fill="none" stroke="rgb(87,157,28)" stroke-linejoin="round" d="M 5332,11220 L 5532,11220 5432,11020 5332,11220 Z"/>
 <path fill="rgb(87,157,28)" stroke="none" d="M 5527,11190 L 5727,11190 5627,10990 5527,11190 Z"/>
 <path fill="none" stroke="rgb(87,157,28)" stroke-linejoin="round" d="M 5527,11190 L 5727,11190 5627,10990 5527,11190 Z"/>
 <path fill="rgb(87,157,28)" stroke="none" d="M 5722,11185 L 5922,11185 5822,10985 5722,11185 Z"/>
 <path fill="none" stroke="rgb(87,157,28)" stroke-linejoin="round" d="M 5722,11185 L 5922,11185 5822,10985 5722,11185 Z"/>
 <path fill="rgb(87,157,28)" stroke="none" d="M 5916,11035 L 6116,11035 6016,10835 5916,11035 Z"/>
 <path fill="none" stroke="rgb(87,157,28)" stroke-linejoin="round" d="M 5916,11035 L 6116,11035 6016,10835 5916,11035 Z"/>
 <path fill="rgb(87,157,28)" stroke="none" d="M 6111,11035 L 6311,11035 6211,10835 6111,11035 Z"/>
 <path fill="none" stroke="rgb(87,157,28)" stroke-linejoin="round" d="M 6111,11035 L 6311,11035 6211,10835 6111,11035 Z"/>
 <path fill="rgb(87,157,28)" stroke="none" d="M 6306,10869 L 6506,10869 6406,10669 6306,10869 Z"/>
 <path fill="none" stroke="rgb(87,157,28)" stroke-linejoin="round" d="M 6306,10869 L 6506,10869 6406,10669 6306,10869 Z"/>
 <path fill="rgb(87,157,28)" stroke="none" d="M 6501,10828 L 6701,10828 6601,10628 6501,10828 Z"/>
 <path fill="none" stroke="rgb(87,157,28)" stroke-linejoin="round" d="M 6501,10828 L 6701,10828 6601,10628 6501,10828 Z"/>
 <path fill="rgb(87,157,28)" stroke="none" d="M 6696,10701 L 6896,10701 6796,10501 6696,10701 Z"/>
 <path fill="none" stroke="rgb(87,157,28)" stroke-linejoin="round" d="M 6696,10701 L 6896,10701 6796,10501 6696,10701 Z"/>
 <path fill="rgb(87,157,28)" stroke="none" d="M 6890,10548 L 7090,10548 6990,10348 6890,10548 Z"/>
 <path fill="none" stroke="rgb(87,157,28)" stroke-linejoin="round" d="M 6890,10548 L 7090,10548 6990,10348 6890,10548 Z"/>
 <path fill="rgb(87,157,28)" stroke="none" d="M 7085,10342 L 7285,10342 7185,10142 7085,10342 Z"/>
 <path fill="none" stroke="rgb(87,157,28)" stroke-linejoin="round" d="M 7085,10342 L 7285,10342 7185,10142 7085,10342 Z"/>
 <path fill="rgb(87,157,28)" stroke="none" d="M 7280,10087 L 7480,10087 7380,9887 7280,10087 Z"/>
 <path fill="none" stroke="rgb(87,157,28)" stroke-linejoin="round" d="M 7280,10087 L 7480,10087 7380,9887 7280,10087 Z"/>
 <path fill="rgb(87,157,28)" stroke="none" d="M 7475,9803 L 7674,9803 7574,9603 7475,9803 Z"/>
 <path fill="none" stroke="rgb(87,157,28)" stroke-linejoin="round" d="M 7475,9803 L 7674,9803 7574,9603 7475,9803 Z"/>
 <path fill="rgb(87,157,28)" stroke="none" d="M 7669,9484 L 7869,9484 7769,9284 7669,9484 Z"/>
 <path fill="none" stroke="rgb(87,157,28)" stroke-linejoin="round" d="M 7669,9484 L 7869,9484 7769,9284 7669,9484 Z"/>
 <path fill="rgb(87,157,28)" stroke="none" d="M 7864,9143 L 8064,9143 7964,8943 7864,9143 Z"/>
 <path fill="none" stroke="rgb(87,157,28)" stroke-linejoin="round" d="M 7864,9143 L 8064,9143 7964,8943 7864,9143 Z"/>
 <path fill="rgb(87,157,28)" stroke="none" d="M 8058,8832 L 8258,8832 8158,8632 8058,8832 Z"/>
 <path fill="none" stroke="rgb(87,157,28)" stroke-linejoin="round" d="M 8058,8832 L 8258,8832 8158,8632 8058,8832 Z"/>
 <path fill="rgb(87,157,28)" stroke="none" d="M 8253,8454 L 8453,8454 8353,8254 8253,8454 Z"/>
 <path fill="none" stroke="rgb(87,157,28)" stroke-linejoin="round" d="M 8253,8454 L 8453,8454 8353,8254 8253,8454 Z"/>
 <path fill="rgb(87,157,28)" stroke="none" d="M 8448,8049 L 8648,8049 8548,7849 8448,8049 Z"/>
 <path fill="none" stroke="rgb(87,157,28)" stroke-linejoin="round" d="M 8448,8049 L 8648,8049 8548,7849 8448,8049 Z"/>
 <path fill="rgb(87,157,28)" stroke="none" d="M 8643,7668 L 8843,7668 8743,7468 8643,7668 Z"/>
 <path fill="none" stroke="rgb(87,157,28)" stroke-linejoin="round" d="M 8643,7668 L 8843,7668 8743,7468 8643,7668 Z"/>
 <path fill="rgb(87,157,28)" stroke="none" d="M 8838,7304 L 9038,7304 8938,7104 8838,7304 Z"/>
 <path fill="none" stroke="rgb(87,157,28)" stroke-linejoin="round" d="M 8838,7304 L 9038,7304 8938,7104 8838,7304 Z"/>
 <path fill="rgb(87,157,28)" stroke="none" d="M 9032,7056 L 9232,7056 9132,6856 9032,7056 Z"/>
 <path fill="none" stroke="rgb(87,157,28)" stroke-linejoin="round" d="M 9032,7056 L 9232,7056 9132,6856 9032,7056 Z"/>
 <path fill="rgb(87,157,28)" stroke="none" d="M 9227,6749 L 9427,6749 9327,6549 9227,6749 Z"/>
 <path fill="none" stroke="rgb(87,157,28)" stroke-linejoin="round" d="M 9227,6749 L 9427,6749 9327,6549 9227,6749 Z"/>
 <path fill="rgb(87,157,28)" stroke="none" d="M 9422,6385 L 9622,6385 9522,6185 9422,6385 Z"/>
 <path fill="none" stroke="rgb(87,157,28)" stroke-linejoin="round" d="M 9422,6385 L 9622,6385 9522,6185 9422,6385 Z"/>
 <path fill="rgb(87,157,28)" stroke="none" d="M 9617,6024 L 9817,6024 9717,5825 9617,6024 Z"/>
 <path fill="none" stroke="rgb(87,157,28)" stroke-linejoin="round" d="M 9617,6024 L 9817,6024 9717,5825 9617,6024 Z"/>
 <path fill="rgb(87,157,28)" stroke="none" d="M 9812,5743 L 10012,5743 9912,5543 9812,5743 Z"/>
 <path fill="none" stroke="rgb(87,157,28)" stroke-linejoin="round" d="M 9812,5743 L 10012,5743 9912,5543 9812,5743 Z"/>
 <path fill="rgb(87,157,28)" stroke="none" d="M 10006,5487 L 10206,5487 10106,5287 10006,5487 Z"/>
 <path fill="none" stroke="rgb(87,157,28)" stroke-linejoin="round" d="M 10006,5487 L 10206,5487 10106,5287 10006,5487 Z"/>
 <path fill="rgb(87,157,28)" stroke="none" d="M 10201,5258 L 10401,5258 10301,5058 10201,5258 Z"/>
 <path fill="none" stroke="rgb(87,157,28)" stroke-linejoin="round" d="M 10201,5258 L 10401,5258 10301,5058 10201,5258 Z"/>
 <path fill="rgb(87,157,28)" stroke="none" d="M 10396,4982 L 10596,4982 10496,4782 10396,4982 Z"/>
 <path fill="none" stroke="rgb(87,157,28)" stroke-linejoin="round" d="M 10396,4982 L 10596,4982 10496,4782 10396,4982 Z"/>
 <path fill="rgb(87,157,28)" stroke="none" d="M 10591,4730 L 10791,4730 10691,4530 10591,4730 Z"/>
 <path fill="none" stroke="rgb(87,157,28)" stroke-linejoin="round" d="M 10591,4730 L 10791,4730 10691,4530 10591,4730 Z"/>
 <path fill="rgb(87,157,28)" stroke="none" d="M 10786,4479 L 10986,4479 10886,4279 10786,4479 Z"/>
 <path fill="none" stroke="rgb(87,157,28)" stroke-linejoin="round" d="M 10786,4479 L 10986,4479 10886,4279 10786,4479 Z"/>
 <path fill="rgb(87,157,28)" stroke="none" d="M 10980,4277 L 11180,4277 11080,4077 10980,4277 Z"/>
 <path fill="none" stroke="rgb(87,157,28)" stroke-linejoin="round" d="M 10980,4277 L 11180,4277 11080,4077 10980,4277 Z"/>
 <path fill="rgb(87,157,28)" stroke="none" d="M 11175,4145 L 11375,4145 11275,3945 11175,4145 Z"/>
 <path fill="none" stroke="rgb(87,157,28)" stroke-linejoin="round" d="M 11175,4145 L 11375,4145 11275,3945 11175,4145 Z"/>
 <path fill="rgb(87,157,28)" stroke="none" d="M 11370,3918 L 11570,3918 11470,3718 11370,3918 Z"/>
 <path fill="none" stroke="rgb(87,157,28)" stroke-linejoin="round" d="M 11370,3918 L 11570,3918 11470,3718 11370,3918 Z"/>
 <path fill="rgb(87,157,28)" stroke="none" d="M 11565,3748 L 11765,3748 11665,3548 11565,3748 Z"/>
 <path fill="none" stroke="rgb(87,157,28)" stroke-linejoin="round" d="M 11565,3748 L 11765,3748 11665,3548 11565,3748 Z"/>
 <path fill="rgb(87,157,28)" stroke="none" d="M 11760,3577 L 11960,3577 11860,3377 11760,3577 Z"/>
 <path fill="none" stroke="rgb(87,157,28)" stroke-linejoin="round" d="M 11760,3577 L 11960,3577 11860,3377 11760,3577 Z"/>
 <path fill="rgb(87,157,28)" stroke="none" d="M 11955,3394 L 12155,3394 12055,3194 11955,3394 Z"/>
 <path fill="none" stroke="rgb(87,157,28)" stroke-linejoin="round" d="M 11955,3394 L 12155,3394 12055,3194 11955,3394 Z"/>
 <path fill="rgb(87,157,28)" stroke="none" d="M 12149,3215 L 12349,3215 12249,3015 12149,3215 Z"/>
 <path fill="none" stroke="rgb(87,157,28)" stroke-linejoin="round" d="M 12149,3215 L 12349,3215 12249,3015 12149,3215 Z"/>
 <path fill="rgb(87,157,28)" stroke="none" d="M 12344,3062 L 12544,3062 12444,2862 12344,3062 Z"/>
 <path fill="none" stroke="rgb(87,157,28)" stroke-linejoin="round" d="M 12344,3062 L 12544,3062 12444,2862 12344,3062 Z"/>
 <path fill="rgb(87,157,28)" stroke="none" d="M 12539,2915 L 12739,2915 12639,2715 12539,2915 Z"/>
 <path fill="none" stroke="rgb(87,157,28)" stroke-linejoin="round" d="M 12539,2915 L 12739,2915 12639,2715 12539,2915 Z"/>
 <path fill="rgb(87,157,28)" stroke="none" d="M 12734,2790 L 12934,2790 12834,2590 12734,2790 Z"/>
 <path fill="none" stroke="rgb(87,157,28)" stroke-linejoin="round" d="M 12734,2790 L 12934,2790 12834,2590 12734,2790 Z"/>
 <path fill="rgb(87,157,28)" stroke="none" d="M 12929,2658 L 13129,2658 13029,2458 12929,2658 Z"/>
 <path fill="none" stroke="rgb(87,157,28)" stroke-linejoin="round" d="M 12929,2658 L 13129,2658 13029,2458 12929,2658 Z"/>
 <path fill="rgb(87,157,28)" stroke="none" d="M 13123,2530 L 13323,2530 13223,2330 13123,2530 Z"/>
 <path fill="none" stroke="rgb(87,157,28)" stroke-linejoin="round" d="M 13123,2530 L 13323,2530 13223,2330 13123,2530 Z"/>
 <path fill="rgb(87,157,28)" stroke="none" d="M 13318,2393 L 13518,2393 13418,2193 13318,2393 Z"/>
 <path fill="none" stroke="rgb(87,157,28)" stroke-linejoin="round" d="M 13318,2393 L 13518,2393 13418,2193 13318,2393 Z"/>
 <path fill="rgb(87,157,28)" stroke="none" d="M 13513,2267 L 13713,2267 13613,2067 13513,2267 Z"/>
 <path fill="none" stroke="rgb(87,157,28)" stroke-linejoin="round" d="M 13513,2267 L 13713,2267 13613,2067 13513,2267 Z"/>
 <path fill="rgb(87,157,28)" stroke="none" d="M 13708,2172 L 13908,2172 13808,1972 13708,2172 Z"/>
 <path fill="none" stroke="rgb(87,157,28)" stroke-linejoin="round" d="M 13708,2172 L 13908,2172 13808,1972 13708,2172 Z"/>
 <path fill="rgb(87,157,28)" stroke="none" d="M 13903,2075 L 14103,2075 14003,1875 13903,2075 Z"/>
 <path fill="none" stroke="rgb(87,157,28)" stroke-linejoin="round" d="M 13903,2075 L 14103,2075 14003,1875 13903,2075 Z"/>
 <path fill="rgb(87,157,28)" stroke="none" d="M 14097,1988 L 14297,1988 14197,1788 14097,1988 Z"/>
 <path fill="none" stroke="rgb(87,157,28)" stroke-linejoin="round" d="M 14097,1988 L 14297,1988 14197,1788 14097,1988 Z"/>
 <path fill="rgb(87,157,28)" stroke="none" d="M 14292,1913 L 14492,1913 14392,1713 14292,1913 Z"/>
 <path fill="none" stroke="rgb(87,157,28)" stroke-linejoin="round" d="M 14292,1913 L 14492,1913 14392,1713 14292,1913 Z"/>
 <path fill="rgb(87,157,28)" stroke="none" d="M 14487,1840 L 14687,1840 14587,1640 14487,1840 Z"/>
 <path fill="none" stroke="rgb(87,157,28)" stroke-linejoin="round" d="M 14487,1840 L 14687,1840 14587,1640 14487,1840 Z"/>
 <path fill="none" stroke="rgb(126,0,33)" stroke-width="50" stroke-linejoin="round" d="M 6211,11175 L 6406,11164 6601,11153 6796,11143 6990,11132 7185,11089 7380,11035 7574,10928 7769,10853 7964,10832 8158,10660 8353,10564 8548,10435 8743,10285 8938,10093 9132,9975 9327,9793 9522,9675 9717,9567 9912,9353 10106,9278 10301,9182 10496,9021 10691,8978 10886,8892 11080,8850 11275,8753 11470,8700 11665,8625 11860,8517 12055,8485 12249,8389 12444,7564 12639,7392 12834,7232 13029,7060 13223,6932 13418,6889 13613,6803 13808,6717 14003,6589 14197,6567 14392,6556 14587,6556"/>
 <path fill="rgb(126,0,33)" stroke="none" d="M 6111,11075 L 6111,11275 6311,11175 6111,11075 Z"/>
 <path fill="none" stroke="rgb(126,0,33)" stroke-linejoin="round" d="M 6111,11075 L 6111,11275 6311,11175 6111,11075 Z"/>
 <path fill="rgb(126,0,33)" stroke="none" d="M 6306,11064 L 6306,11264 6506,11164 6306,11064 Z"/>
 <path fill="none" stroke="rgb(126,0,33)" stroke-linejoin="round" d="M 6306,11064 L 6306,11264 6506,11164 6306,11064 Z"/>
 <path fill="rgb(126,0,33)" stroke="none" d="M 6501,11053 L 6501,11253 6701,11153 6501,11053 Z"/>
 <path fill="none" stroke="rgb(126,0,33)" stroke-linejoin="round" d="M 6501,11053 L 6501,11253 6701,11153 6501,11053 Z"/>
 <path fill="rgb(126,0,33)" stroke="none" d="M 6696,11043 L 6696,11243 6896,11143 6696,11043 Z"/>
 <path fill="none" stroke="rgb(126,0,33)" stroke-linejoin="round" d="M 6696,11043 L 6696,11243 6896,11143 6696,11043 Z"/>
 <path fill="rgb(126,0,33)" stroke="none" d="M 6890,11032 L 6890,11232 7090,11132 6890,11032 Z"/>
 <path fill="none" stroke="rgb(126,0,33)" stroke-linejoin="round" d="M 6890,11032 L 6890,11232 7090,11132 6890,11032 Z"/>
 <path fill="rgb(126,0,33)" stroke="none" d="M 7085,10989 L 7085,11189 7285,11089 7085,10989 Z"/>
 <path fill="none" stroke="rgb(126,0,33)" stroke-linejoin="round" d="M 7085,10989 L 7085,11189 7285,11089 7085,10989 Z"/>
 <path fill="rgb(126,0,33)" stroke="none" d="M 7280,10935 L 7280,11135 7480,11035 7280,10935 Z"/>
 <path fill="none" stroke="rgb(126,0,33)" stroke-linejoin="round" d="M 7280,10935 L 7280,11135 7480,11035 7280,10935 Z"/>
 <path fill="rgb(126,0,33)" stroke="none" d="M 7475,10828 L 7475,11028 7674,10928 7475,10828 Z"/>
 <path fill="none" stroke="rgb(126,0,33)" stroke-linejoin="round" d="M 7475,10828 L 7475,11028 7674,10928 7475,10828 Z"/>
 <path fill="rgb(126,0,33)" stroke="none" d="M 7669,10753 L 7669,10953 7869,10853 7669,10753 Z"/>
 <path fill="none" stroke="rgb(126,0,33)" stroke-linejoin="round" d="M 7669,10753 L 7669,10953 7869,10853 7669,10753 Z"/>
 <path fill="rgb(126,0,33)" stroke="none" d="M 7864,10732 L 7864,10932 8064,10832 7864,10732 Z"/>
 <path fill="none" stroke="rgb(126,0,33)" stroke-linejoin="round" d="M 7864,10732 L 7864,10932 8064,10832 7864,10732 Z"/>
 <path fill="rgb(126,0,33)" stroke="none" d="M 8058,10560 L 8058,10760 8258,10660 8058,10560 Z"/>
 <path fill="none" stroke="rgb(126,0,33)" stroke-linejoin="round" d="M 8058,10560 L 8058,10760 8258,10660 8058,10560 Z"/>
 <path fill="rgb(126,0,33)" stroke="none" d="M 8253,10464 L 8253,10664 8453,10564 8253,10464 Z"/>
 <path fill="none" stroke="rgb(126,0,33)" stroke-linejoin="round" d="M 8253,10464 L 8253,10664 8453,10564 8253,10464 Z"/>
 <path fill="rgb(126,0,33)" stroke="none" d="M 8448,10335 L 8448,10535 8648,10435 8448,10335 Z"/>
 <path fill="none" stroke="rgb(126,0,33)" stroke-linejoin="round" d="M 8448,10335 L 8448,10535 8648,10435 8448,10335 Z"/>
 <path fill="rgb(126,0,33)" stroke="none" d="M 8643,10185 L 8643,10385 8843,10285 8643,10185 Z"/>
 <path fill="none" stroke="rgb(126,0,33)" stroke-linejoin="round" d="M 8643,10185 L 8643,10385 8843,10285 8643,10185 Z"/>
 <path fill="rgb(126,0,33)" stroke="none" d="M 8838,9993 L 8838,10193 9038,10093 8838,9993 Z"/>
 <path fill="none" stroke="rgb(126,0,33)" stroke-linejoin="round" d="M 8838,9993 L 8838,10193 9038,10093 8838,9993 Z"/>
 <path fill="rgb(126,0,33)" stroke="none" d="M 9032,9875 L 9032,10075 9232,9975 9032,9875 Z"/>
 <path fill="none" stroke="rgb(126,0,33)" stroke-linejoin="round" d="M 9032,9875 L 9032,10075 9232,9975 9032,9875 Z"/>
 <path fill="rgb(126,0,33)" stroke="none" d="M 9227,9693 L 9227,9893 9427,9793 9227,9693 Z"/>
 <path fill="none" stroke="rgb(126,0,33)" stroke-linejoin="round" d="M 9227,9693 L 9227,9893 9427,9793 9227,9693 Z"/>
 <path fill="rgb(126,0,33)" stroke="none" d="M 9422,9575 L 9422,9775 9622,9675 9422,9575 Z"/>
 <path fill="none" stroke="rgb(126,0,33)" stroke-linejoin="round" d="M 9422,9575 L 9422,9775 9622,9675 9422,9575 Z"/>
 <path fill="rgb(126,0,33)" stroke="none" d="M 9617,9467 L 9617,9667 9817,9567 9617,9467 Z"/>
 <path fill="none" stroke="rgb(126,0,33)" stroke-linejoin="round" d="M 9617,9467 L 9617,9667 9817,9567 9617,9467 Z"/>
 <path fill="rgb(126,0,33)" stroke="none" d="M 9812,9253 L 9812,9453 10012,9353 9812,9253 Z"/>
 <path fill="none" stroke="rgb(126,0,33)" stroke-linejoin="round" d="M 9812,9253 L 9812,9453 10012,9353 9812,9253 Z"/>
 <path fill="rgb(126,0,33)" stroke="none" d="M 10006,9178 L 10006,9378 10206,9278 10006,9178 Z"/>
 <path fill="none" stroke="rgb(126,0,33)" stroke-linejoin="round" d="M 10006,9178 L 10006,9378 10206,9278 10006,9178 Z"/>
 <path fill="rgb(126,0,33)" stroke="none" d="M 10201,9082 L 10201,9282 10401,9182 10201,9082 Z"/>
 <path fill="none" stroke="rgb(126,0,33)" stroke-linejoin="round" d="M 10201,9082 L 10201,9282 10401,9182 10201,9082 Z"/>
 <path fill="rgb(126,0,33)" stroke="none" d="M 10396,8921 L 10396,9121 10596,9021 10396,8921 Z"/>
 <path fill="none" stroke="rgb(126,0,33)" stroke-linejoin="round" d="M 10396,8921 L 10396,9121 10596,9021 10396,8921 Z"/>
 <path fill="rgb(126,0,33)" stroke="none" d="M 10591,8878 L 10591,9078 10791,8978 10591,8878 Z"/>
 <path fill="none" stroke="rgb(126,0,33)" stroke-linejoin="round" d="M 10591,8878 L 10591,9078 10791,8978 10591,8878 Z"/>
 <path fill="rgb(126,0,33)" stroke="none" d="M 10786,8792 L 10786,8992 10986,8892 10786,8792 Z"/>
 <path fill="none" stroke="rgb(126,0,33)" stroke-linejoin="round" d="M 10786,8792 L 10786,8992 10986,8892 10786,8792 Z"/>
 <path fill="rgb(126,0,33)" stroke="none" d="M 10980,8750 L 10980,8950 11180,8850 10980,8750 Z"/>
 <path fill="none" stroke="rgb(126,0,33)" stroke-linejoin="round" d="M 10980,8750 L 10980,8950 11180,8850 10980,8750 Z"/>
 <path fill="rgb(126,0,33)" stroke="none" d="M 11175,8653 L 11175,8853 11375,8753 11175,8653 Z"/>
 <path fill="none" stroke="rgb(126,0,33)" stroke-linejoin="round" d="M 11175,8653 L 11175,8853 11375,8753 11175,8653 Z"/>
 <path fill="rgb(126,0,33)" stroke="none" d="M 11370,8600 L 11370,8800 11570,8700 11370,8600 Z"/>
 <path fill="none" stroke="rgb(126,0,33)" stroke-linejoin="round" d="M 11370,8600 L 11370,8800 11570,8700 11370,8600 Z"/>
 <path fill="rgb(126,0,33)" stroke="none" d="M 11565,8525 L 11565,8725 11765,8625 11565,8525 Z"/>
 <path fill="none" stroke="rgb(126,0,33)" stroke-linejoin="round" d="M 11565,8525 L 11565,8725 11765,8625 11565,8525 Z"/>
 <path fill="rgb(126,0,33)" stroke="none" d="M 11760,8417 L 11760,8617 11960,8517 11760,8417 Z"/>
 <path fill="none" stroke="rgb(126,0,33)" stroke-linejoin="round" d="M 11760,8417 L 11760,8617 11960,8517 11760,8417 Z"/>
 <path fill="rgb(126,0,33)" stroke="none" d="M 11955,8385 L 11955,8585 12155,8485 11955,8385 Z"/>
 <path fill="none" stroke="rgb(126,0,33)" stroke-linejoin="round" d="M 11955,8385 L 11955,8585 12155,8485 11955,8385 Z"/>
 <path fill="rgb(126,0,33)" stroke="none" d="M 12149,8289 L 12149,8489 12349,8389 12149,8289 Z"/>
 <path fill="none" stroke="rgb(126,0,33)" stroke-linejoin="round" d="M 12149,8289 L 12149,8489 12349,8389 12149,8289 Z"/>
 <path fill="rgb(126,0,33)" stroke="none" d="M 12344,7464 L 12344,7664 12544,7564 12344,7464 Z"/>
 <path fill="none" stroke="rgb(126,0,33)" stroke-linejoin="round" d="M 12344,7464 L 12344,7664 12544,7564 12344,7464 Z"/>
 <path fill="rgb(126,0,33)" stroke="none" d="M 12539,7292 L 12539,7492 12739,7392 12539,7292 Z"/>
 <path fill="none" stroke="rgb(126,0,33)" stroke-linejoin="round" d="M 12539,7292 L 12539,7492 12739,7392 12539,7292 Z"/>
 <path fill="rgb(126,0,33)" stroke="none" d="M 12734,7132 L 12734,7332 12934,7232 12734,7132 Z"/>
 <path fill="none" stroke="rgb(126,0,33)" stroke-linejoin="round" d="M 12734,7132 L 12734,7332 12934,7232 12734,7132 Z"/>
 <path fill="rgb(126,0,33)" stroke="none" d="M 12929,6960 L 12929,7160 13129,7060 12929,6960 Z"/>
 <path fill="none" stroke="rgb(126,0,33)" stroke-linejoin="round" d="M 12929,6960 L 12929,7160 13129,7060 12929,6960 Z"/>
 <path fill="rgb(126,0,33)" stroke="none" d="M 13123,6832 L 13123,7032 13323,6932 13123,6832 Z"/>
 <path fill="none" stroke="rgb(126,0,33)" stroke-linejoin="round" d="M 13123,6832 L 13123,7032 13323,6932 13123,6832 Z"/>
 <path fill="rgb(126,0,33)" stroke="none" d="M 13318,6789 L 13318,6989 13518,6889 13318,6789 Z"/>
 <path fill="none" stroke="rgb(126,0,33)" stroke-linejoin="round" d="M 13318,6789 L 13318,6989 13518,6889 13318,6789 Z"/>
 <path fill="rgb(126,0,33)" stroke="none" d="M 13513,6703 L 13513,6903 13713,6803 13513,6703 Z"/>
 <path fill="none" stroke="rgb(126,0,33)" stroke-linejoin="round" d="M 13513,6703 L 13513,6903 13713,6803 13513,6703 Z"/>
 <path fill="rgb(126,0,33)" stroke="none" d="M 13708,6617 L 13708,6817 13908,6717 13708,6617 Z"/>
 <path fill="none" stroke="rgb(126,0,33)" stroke-linejoin="round" d="M 13708,6617 L 13708,6817 13908,6717 13708,6617 Z"/>
 <path fill="rgb(126,0,33)" stroke="none" d="M 13903,6489 L 13903,6689 14103,6589 13903,6489 Z"/>
 <path fill="none" stroke="rgb(126,0,33)" stroke-linejoin="round" d="M 13903,6489 L 13903,6689 14103,6589 13903,6489 Z"/>
 <path fill="rgb(126,0,33)" stroke="none" d="M 14097,6467 L 14097,6667 14297,6567 14097,6467 Z"/>
 <path fill="none" stroke="rgb(126,0,33)" stroke-linejoin="round" d="M 14097,6467 L 14097,6667 14297,6567 14097,6467 Z"/>
 <path fill="rgb(126,0,33)" stroke="none" d="M 14292,6456 L 14292,6656 14492,6556 14292,6456 Z"/>
 <path fill="none" stroke="rgb(126,0,33)" stroke-linejoin="round" d="M 14292,6456 L 14292,6656 14492,6556 14292,6456 Z"/>
 <path fill="rgb(126,0,33)" stroke="none" d="M 14487,6456 L 14487,6656 14687,6556 14487,6456 Z"/>
 <path fill="none" stroke="rgb(126,0,33)" stroke-linejoin="round" d="M 14487,6456 L 14487,6656 14687,6556 14487,6456 Z"/>
 <path fill="none" stroke="rgb(131,202,255)" stroke-width="50" stroke-linejoin="round" d="M 5042,11165 L 5237,11144 5432,11144 5627,11144 5822,11123 6016,11123 6211,11103 6406,11082 6601,11082 6796,11082 6990,11040 7185,10875 7380,10813 7574,10730 7769,10564 7964,10419 8158,10295 8353,10046 8548,9839 8743,9777 8938,9714 9132,9424 9327,9321 9522,9093 9717,8927 9912,8533 10106,8409 10301,8264 10496,7870 10691,7518 10886,7414 11080,7124 11275,6896 11470,6648 11665,6565 11860,6337 12055,6088 12249,5861 12444,5758 12639,5551 12834,5447 13029,5281 13223,5095 13418,5012 13613,4908 13808,4825 14003,4742 14197,4660 14392,4556 14587,4432"/>
 <path fill="rgb(131,202,255)" stroke="none" d="M 4942,11165 L 5142,11265 5142,11065 4942,11165 Z"/>
 <path fill="none" stroke="rgb(131,202,255)" stroke-linejoin="round" d="M 4942,11165 L 5142,11265 5142,11065 4942,11165 Z"/>
 <path fill="rgb(131,202,255)" stroke="none" d="M 5137,11144 L 5337,11244 5337,11044 5137,11144 Z"/>
 <path fill="none" stroke="rgb(131,202,255)" stroke-linejoin="round" d="M 5137,11144 L 5337,11244 5337,11044 5137,11144 Z"/>
 <path fill="rgb(131,202,255)" stroke="none" d="M 5332,11144 L 5532,11244 5532,11044 5332,11144 Z"/>
 <path fill="none" stroke="rgb(131,202,255)" stroke-linejoin="round" d="M 5332,11144 L 5532,11244 5532,11044 5332,11144 Z"/>
 <path fill="rgb(131,202,255)" stroke="none" d="M 5527,11144 L 5727,11244 5727,11044 5527,11144 Z"/>
 <path fill="none" stroke="rgb(131,202,255)" stroke-linejoin="round" d="M 5527,11144 L 5727,11244 5727,11044 5527,11144 Z"/>
 <path fill="rgb(131,202,255)" stroke="none" d="M 5722,11123 L 5922,11223 5922,11023 5722,11123 Z"/>
 <path fill="none" stroke="rgb(131,202,255)" stroke-linejoin="round" d="M 5722,11123 L 5922,11223 5922,11023 5722,11123 Z"/>
 <path fill="rgb(131,202,255)" stroke="none" d="M 5916,11123 L 6116,11223 6116,11023 5916,11123 Z"/>
 <path fill="none" stroke="rgb(131,202,255)" stroke-linejoin="round" d="M 5916,11123 L 6116,11223 6116,11023 5916,11123 Z"/>
 <path fill="rgb(131,202,255)" stroke="none" d="M 6111,11103 L 6311,11203 6311,11003 6111,11103 Z"/>
 <path fill="none" stroke="rgb(131,202,255)" stroke-linejoin="round" d="M 6111,11103 L 6311,11203 6311,11003 6111,11103 Z"/>
 <path fill="rgb(131,202,255)" stroke="none" d="M 6306,11082 L 6506,11182 6506,10982 6306,11082 Z"/>
 <path fill="none" stroke="rgb(131,202,255)" stroke-linejoin="round" d="M 6306,11082 L 6506,11182 6506,10982 6306,11082 Z"/>
 <path fill="rgb(131,202,255)" stroke="none" d="M 6501,11082 L 6701,11182 6701,10982 6501,11082 Z"/>
 <path fill="none" stroke="rgb(131,202,255)" stroke-linejoin="round" d="M 6501,11082 L 6701,11182 6701,10982 6501,11082 Z"/>
 <path fill="rgb(131,202,255)" stroke="none" d="M 6696,11082 L 6896,11182 6896,10982 6696,11082 Z"/>
 <path fill="none" stroke="rgb(131,202,255)" stroke-linejoin="round" d="M 6696,11082 L 6896,11182 6896,10982 6696,11082 Z"/>
 <path fill="rgb(131,202,255)" stroke="none" d="M 6890,11040 L 7090,11140 7090,10940 6890,11040 Z"/>
 <path fill="none" stroke="rgb(131,202,255)" stroke-linejoin="round" d="M 6890,11040 L 7090,11140 7090,10940 6890,11040 Z"/>
 <path fill="rgb(131,202,255)" stroke="none" d="M 7085,10875 L 7285,10975 7285,10775 7085,10875 Z"/>
 <path fill="none" stroke="rgb(131,202,255)" stroke-linejoin="round" d="M 7085,10875 L 7285,10975 7285,10775 7085,10875 Z"/>
 <path fill="rgb(131,202,255)" stroke="none" d="M 7280,10813 L 7480,10913 7480,10713 7280,10813 Z"/>
 <path fill="none" stroke="rgb(131,202,255)" stroke-linejoin="round" d="M 7280,10813 L 7480,10913 7480,10713 7280,10813 Z"/>
 <path fill="rgb(131,202,255)" stroke="none" d="M 7475,10730 L 7674,10830 7674,10630 7475,10730 Z"/>
 <path fill="none" stroke="rgb(131,202,255)" stroke-linejoin="round" d="M 7475,10730 L 7674,10830 7674,10630 7475,10730 Z"/>
 <path fill="rgb(131,202,255)" stroke="none" d="M 7669,10564 L 7869,10664 7869,10464 7669,10564 Z"/>
 <path fill="none" stroke="rgb(131,202,255)" stroke-linejoin="round" d="M 7669,10564 L 7869,10664 7869,10464 7669,10564 Z"/>
 <path fill="rgb(131,202,255)" stroke="none" d="M 7864,10419 L 8064,10519 8064,10319 7864,10419 Z"/>
 <path fill="none" stroke="rgb(131,202,255)" stroke-linejoin="round" d="M 7864,10419 L 8064,10519 8064,10319 7864,10419 Z"/>
 <path fill="rgb(131,202,255)" stroke="none" d="M 8058,10295 L 8258,10395 8258,10195 8058,10295 Z"/>
 <path fill="none" stroke="rgb(131,202,255)" stroke-linejoin="round" d="M 8058,10295 L 8258,10395 8258,10195 8058,10295 Z"/>
 <path fill="rgb(131,202,255)" stroke="none" d="M 8253,10046 L 8453,10146 8453,9946 8253,10046 Z"/>
 <path fill="none" stroke="rgb(131,202,255)" stroke-linejoin="round" d="M 8253,10046 L 8453,10146 8453,9946 8253,10046 Z"/>
 <path fill="rgb(131,202,255)" stroke="none" d="M 8448,9839 L 8648,9939 8648,9739 8448,9839 Z"/>
 <path fill="none" stroke="rgb(131,202,255)" stroke-linejoin="round" d="M 8448,9839 L 8648,9939 8648,9739 8448,9839 Z"/>
 <path fill="rgb(131,202,255)" stroke="none" d="M 8643,9777 L 8843,9877 8843,9677 8643,9777 Z"/>
 <path fill="none" stroke="rgb(131,202,255)" stroke-linejoin="round" d="M 8643,9777 L 8843,9877 8843,9677 8643,9777 Z"/>
 <path fill="rgb(131,202,255)" stroke="none" d="M 8838,9714 L 9038,9814 9038,9614 8838,9714 Z"/>
 <path fill="none" stroke="rgb(131,202,255)" stroke-linejoin="round" d="M 8838,9714 L 9038,9814 9038,9614 8838,9714 Z"/>
 <path fill="rgb(131,202,255)" stroke="none" d="M 9032,9424 L 9232,9524 9232,9324 9032,9424 Z"/>
 <path fill="none" stroke="rgb(131,202,255)" stroke-linejoin="round" d="M 9032,9424 L 9232,9524 9232,9324 9032,9424 Z"/>
 <path fill="rgb(131,202,255)" stroke="none" d="M 9227,9321 L 9427,9421 9427,9221 9227,9321 Z"/>
 <path fill="none" stroke="rgb(131,202,255)" stroke-linejoin="round" d="M 9227,9321 L 9427,9421 9427,9221 9227,9321 Z"/>
 <path fill="rgb(131,202,255)" stroke="none" d="M 9422,9093 L 9622,9193 9622,8993 9422,9093 Z"/>
 <path fill="none" stroke="rgb(131,202,255)" stroke-linejoin="round" d="M 9422,9093 L 9622,9193 9622,8993 9422,9093 Z"/>
 <path fill="rgb(131,202,255)" stroke="none" d="M 9617,8927 L 9817,9027 9817,8827 9617,8927 Z"/>
 <path fill="none" stroke="rgb(131,202,255)" stroke-linejoin="round" d="M 9617,8927 L 9817,9027 9817,8827 9617,8927 Z"/>
 <path fill="rgb(131,202,255)" stroke="none" d="M 9812,8533 L 10012,8633 10012,8433 9812,8533 Z"/>
 <path fill="none" stroke="rgb(131,202,255)" stroke-linejoin="round" d="M 9812,8533 L 10012,8633 10012,8433 9812,8533 Z"/>
 <path fill="rgb(131,202,255)" stroke="none" d="M 10006,8409 L 10206,8509 10206,8309 10006,8409 Z"/>
 <path fill="none" stroke="rgb(131,202,255)" stroke-linejoin="round" d="M 10006,8409 L 10206,8509 10206,8309 10006,8409 Z"/>
 <path fill="rgb(131,202,255)" stroke="none" d="M 10201,8264 L 10401,8364 10401,8164 10201,8264 Z"/>
 <path fill="none" stroke="rgb(131,202,255)" stroke-linejoin="round" d="M 10201,8264 L 10401,8364 10401,8164 10201,8264 Z"/>
 <path fill="rgb(131,202,255)" stroke="none" d="M 10396,7870 L 10596,7970 10596,7770 10396,7870 Z"/>
 <path fill="none" stroke="rgb(131,202,255)" stroke-linejoin="round" d="M 10396,7870 L 10596,7970 10596,7770 10396,7870 Z"/>
 <path fill="rgb(131,202,255)" stroke="none" d="M 10591,7518 L 10791,7618 10791,7418 10591,7518 Z"/>
 <path fill="none" stroke="rgb(131,202,255)" stroke-linejoin="round" d="M 10591,7518 L 10791,7618 10791,7418 10591,7518 Z"/>
 <path fill="rgb(131,202,255)" stroke="none" d="M 10786,7414 L 10986,7514 10986,7314 10786,7414 Z"/>
 <path fill="none" stroke="rgb(131,202,255)" stroke-linejoin="round" d="M 10786,7414 L 10986,7514 10986,7314 10786,7414 Z"/>
 <path fill="rgb(131,202,255)" stroke="none" d="M 10980,7124 L 11180,7224 11180,7024 10980,7124 Z"/>
 <path fill="none" stroke="rgb(131,202,255)" stroke-linejoin="round" d="M 10980,7124 L 11180,7224 11180,7024 10980,7124 Z"/>
 <path fill="rgb(131,202,255)" stroke="none" d="M 11175,6896 L 11375,6996 11375,6796 11175,6896 Z"/>
 <path fill="none" stroke="rgb(131,202,255)" stroke-linejoin="round" d="M 11175,6896 L 11375,6996 11375,6796 11175,6896 Z"/>
 <path fill="rgb(131,202,255)" stroke="none" d="M 11370,6648 L 11570,6748 11570,6548 11370,6648 Z"/>
 <path fill="none" stroke="rgb(131,202,255)" stroke-linejoin="round" d="M 11370,6648 L 11570,6748 11570,6548 11370,6648 Z"/>
 <path fill="rgb(131,202,255)" stroke="none" d="M 11565,6565 L 11765,6665 11765,6465 11565,6565 Z"/>
 <path fill="none" stroke="rgb(131,202,255)" stroke-linejoin="round" d="M 11565,6565 L 11765,6665 11765,6465 11565,6565 Z"/>
 <path fill="rgb(131,202,255)" stroke="none" d="M 11760,6337 L 11960,6437 11960,6237 11760,6337 Z"/>
 <path fill="none" stroke="rgb(131,202,255)" stroke-linejoin="round" d="M 11760,6337 L 11960,6437 11960,6237 11760,6337 Z"/>
 <path fill="rgb(131,202,255)" stroke="none" d="M 11955,6088 L 12155,6188 12155,5989 11955,6088 Z"/>
 <path fill="none" stroke="rgb(131,202,255)" stroke-linejoin="round" d="M 11955,6088 L 12155,6188 12155,5989 11955,6088 Z"/>
 <path fill="rgb(131,202,255)" stroke="none" d="M 12149,5861 L 12349,5961 12349,5761 12149,5861 Z"/>
 <path fill="none" stroke="rgb(131,202,255)" stroke-linejoin="round" d="M 12149,5861 L 12349,5961 12349,5761 12149,5861 Z"/>
 <path fill="rgb(131,202,255)" stroke="none" d="M 12344,5758 L 12544,5858 12544,5658 12344,5758 Z"/>
 <path fill="none" stroke="rgb(131,202,255)" stroke-linejoin="round" d="M 12344,5758 L 12544,5858 12544,5658 12344,5758 Z"/>
 <path fill="rgb(131,202,255)" stroke="none" d="M 12539,5551 L 12739,5651 12739,5451 12539,5551 Z"/>
 <path fill="none" stroke="rgb(131,202,255)" stroke-linejoin="round" d="M 12539,5551 L 12739,5651 12739,5451 12539,5551 Z"/>
 <path fill="rgb(131,202,255)" stroke="none" d="M 12734,5447 L 12934,5547 12934,5347 12734,5447 Z"/>
 <path fill="none" stroke="rgb(131,202,255)" stroke-linejoin="round" d="M 12734,5447 L 12934,5547 12934,5347 12734,5447 Z"/>
 <path fill="rgb(131,202,255)" stroke="none" d="M 12929,5281 L 13129,5381 13129,5181 12929,5281 Z"/>
 <path fill="none" stroke="rgb(131,202,255)" stroke-linejoin="round" d="M 12929,5281 L 13129,5381 13129,5181 12929,5281 Z"/>
 <path fill="rgb(131,202,255)" stroke="none" d="M 13123,5095 L 13323,5195 13323,4995 13123,5095 Z"/>
 <path fill="none" stroke="rgb(131,202,255)" stroke-linejoin="round" d="M 13123,5095 L 13323,5195 13323,4995 13123,5095 Z"/>
 <path fill="rgb(131,202,255)" stroke="none" d="M 13318,5012 L 13518,5112 13518,4912 13318,5012 Z"/>
 <path fill="none" stroke="rgb(131,202,255)" stroke-linejoin="round" d="M 13318,5012 L 13518,5112 13518,4912 13318,5012 Z"/>
 <path fill="rgb(131,202,255)" stroke="none" d="M 13513,4908 L 13713,5008 13713,4808 13513,4908 Z"/>
 <path fill="none" stroke="rgb(131,202,255)" stroke-linejoin="round" d="M 13513,4908 L 13713,5008 13713,4808 13513,4908 Z"/>
 <path fill="rgb(131,202,255)" stroke="none" d="M 13708,4825 L 13908,4925 13908,4725 13708,4825 Z"/>
 <path fill="none" stroke="rgb(131,202,255)" stroke-linejoin="round" d="M 13708,4825 L 13908,4925 13908,4725 13708,4825 Z"/>
 <path fill="rgb(131,202,255)" stroke="none" d="M 13903,4742 L 14103,4842 14103,4642 13903,4742 Z"/>
 <path fill="none" stroke="rgb(131,202,255)" stroke-linejoin="round" d="M 13903,4742 L 14103,4842 14103,4642 13903,4742 Z"/>
 <path fill="rgb(131,202,255)" stroke="none" d="M 14097,4660 L 14297,4760 14297,4560 14097,4660 Z"/>
 <path fill="none" stroke="rgb(131,202,255)" stroke-linejoin="round" d="M 14097,4660 L 14297,4760 14297,4560 14097,4660 Z"/>
 <path fill="rgb(131,202,255)" stroke="none" d="M 14292,4556 L 14492,4656 14492,4456 14292,4556 Z"/>
 <path fill="none" stroke="rgb(131,202,255)" stroke-linejoin="round" d="M 14292,4556 L 14492,4656 14492,4456 14292,4556 Z"/>
 <path fill="rgb(131,202,255)" stroke="none" d="M 14487,4432 L 14687,4532 14687,4332 14487,4432 Z"/>
 <path fill="none" stroke="rgb(131,202,255)" stroke-linejoin="round" d="M 14487,4432 L 14687,4532 14687,4332 14487,4432 Z"/>
 <text class="TextShape"><tspan class="TextParagraph" font-family="Liberation Sans, sans-serif" font-size="353px" font-weight="400"><tspan class="TextPosition" x="917" y="11754"><tspan fill="rgb(0,0,0)" stroke="none">20/02</tspan></tspan></tspan></text>
 <text class="TextShape"><tspan class="TextParagraph" font-family="Liberation Sans, sans-serif" font-size="353px" font-weight="400"><tspan class="TextPosition" x="2281" y="11754"><tspan fill="rgb(0,0,0)" stroke="none">27/02</tspan></tspan></tspan></text>
 <text class="TextShape"><tspan class="TextParagraph" font-family="Liberation Sans, sans-serif" font-size="353px" font-weight="400"><tspan class="TextPosition" x="3644" y="11754"><tspan fill="rgb(0,0,0)" stroke="none">05/03</tspan></tspan></tspan></text>
 <text class="TextShape"><tspan class="TextParagraph" font-family="Liberation Sans, sans-serif" font-size="353px" font-weight="400"><tspan class="TextPosition" x="5008" y="11754"><tspan fill="rgb(0,0,0)" stroke="none">12/03</tspan></tspan></tspan></text>
 <text class="TextShape"><tspan class="TextParagraph" font-family="Liberation Sans, sans-serif" font-size="353px" font-weight="400"><tspan class="TextPosition" x="6372" y="11754"><tspan fill="rgb(0,0,0)" stroke="none">19/03</tspan></tspan></tspan></text>
 <text class="TextShape"><tspan class="TextParagraph" font-family="Liberation Sans, sans-serif" font-size="353px" font-weight="400"><tspan class="TextPosition" x="7735" y="11754"><tspan fill="rgb(0,0,0)" stroke="none">26/03</tspan></tspan></tspan></text>
 <text class="TextShape"><tspan class="TextParagraph" font-family="Liberation Sans, sans-serif" font-size="353px" font-weight="400"><tspan class="TextPosition" x="9099" y="11754"><tspan fill="rgb(0,0,0)" stroke="none">02/04</tspan></tspan></tspan></text>
 <text class="TextShape"><tspan class="TextParagraph" font-family="Liberation Sans, sans-serif" font-size="353px" font-weight="400"><tspan class="TextPosition" x="10463" y="11754"><tspan fill="rgb(0,0,0)" stroke="none">09/04</tspan></tspan></tspan></text>
 <text class="TextShape"><tspan class="TextParagraph" font-family="Liberation Sans, sans-serif" font-size="353px" font-weight="400"><tspan class="TextPosition" x="11826" y="11754"><tspan fill="rgb(0,0,0)" stroke="none">16/04</tspan></tspan></tspan></text>
 <text class="TextShape"><tspan class="TextParagraph" font-family="Liberation Sans, sans-serif" font-size="353px" font-weight="400"><tspan class="TextPosition" x="13190" y="11754"><tspan fill="rgb(0,0,0)" stroke="none">23/04</tspan></tspan></tspan></text>
 <text class="TextShape"><tspan class="TextParagraph" font-family="Liberation Sans, sans-serif" font-size="353px" font-weight="400"><tspan class="TextPosition" x="809" y="11307"><tspan fill="rgb(0,0,0)" stroke="none">0</tspan></tspan></tspan></text>
 <text class="TextShape"><tspan class="TextParagraph" font-family="Liberation Sans, sans-serif" font-size="353px" font-weight="400"><tspan class="TextPosition" x="147" y="9952"><tspan fill="rgb(0,0,0)" stroke="none">1.000</tspan></tspan></tspan></text>
 <text class="TextShape"><tspan class="TextParagraph" font-family="Liberation Sans, sans-serif" font-size="353px" font-weight="400"><tspan class="TextPosition" x="147" y="8597"><tspan fill="rgb(0,0,0)" stroke="none">2.000</tspan></tspan></tspan></text>
 <text class="TextShape"><tspan class="TextParagraph" font-family="Liberation Sans, sans-serif" font-size="353px" font-weight="400"><tspan class="TextPosition" x="147" y="7242"><tspan fill="rgb(0,0,0)" stroke="none">3.000</tspan></tspan></tspan></text>
 <text class="TextShape"><tspan class="TextParagraph" font-family="Liberation Sans, sans-serif" font-size="353px" font-weight="400"><tspan class="TextPosition" x="147" y="5887"><tspan fill="rgb(0,0,0)" stroke="none">4.000</tspan></tspan></tspan></text>
 <text class="TextShape"><tspan class="TextParagraph" font-family="Liberation Sans, sans-serif" font-size="353px" font-weight="400"><tspan class="TextPosition" x="147" y="4532"><tspan fill="rgb(0,0,0)" stroke="none">5.000</tspan></tspan></tspan></text>
 <text class="TextShape"><tspan class="TextParagraph" font-family="Liberation Sans, sans-serif" font-size="353px" font-weight="400"><tspan class="TextPosition" x="147" y="3178"><tspan fill="rgb(0,0,0)" stroke="none">6.000</tspan></tspan></tspan></text>
 <text class="TextShape"><tspan class="TextParagraph" font-family="Liberation Sans, sans-serif" font-size="353px" font-weight="400"><tspan class="TextPosition" x="147" y="1823"><tspan fill="rgb(0,0,0)" stroke="none">7.000</tspan></tspan></tspan></text>
 <text class="TextShape"><tspan class="TextParagraph" font-family="Liberation Sans, sans-serif" font-size="459px" font-weight="400"><tspan class="TextPosition" x="1341" y="657"><tspan fill="rgb(0,0,0)" stroke="none">Muertes acumuladas CCAA por milln de mayores de 65 aos (1)</tspan></tspan></tspan></text>
 <path fill="none" stroke="rgb(0,0,0)" stroke-width="50" stroke-linejoin="round" d="M 6193,1978 L 6993,1978"/>
 <path fill="rgb(0,0,0)" stroke="none" d="M 6487,1978 L 6593,2084 6698,1978 6593,1873 6487,1978 Z"/>
 <path fill="none" stroke="rgb(0,0,0)" stroke-linejoin="round" d="M 6487,1978 L 6593,2084 6698,1978 6593,1873 6487,1978 Z"/>
 <path fill="none" stroke="rgb(255,66,14)" stroke-width="50" stroke-linejoin="round" d="M 6193,2681 L 6993,2681"/>
 <path fill="rgb(255,66,14)" stroke="none" d="M 6487,2681 L 6593,2787 6698,2681 6593,2576 6487,2681 Z"/>
 <path fill="none" stroke="rgb(255,66,14)" stroke-linejoin="round" d="M 6487,2681 L 6593,2787 6698,2681 6593,2576 6487,2681 Z"/>
 <path fill="none" stroke="rgb(255,211,32)" stroke-width="50" stroke-linejoin="round" d="M 6193,3384 L 6993,3384"/>
 <path fill="rgb(255,211,32)" stroke="none" d="M 6487,3279 L 6593,3490 6698,3279 6487,3279 Z"/>
 <path fill="none" stroke="rgb(255,211,32)" stroke-linejoin="round" d="M 6487,3279 L 6593,3490 6698,3279 6487,3279 Z"/>
 <path fill="none" stroke="rgb(87,157,28)" stroke-width="50" stroke-linejoin="round" d="M 6193,4087 L 6993,4087"/>
 <path fill="rgb(87,157,28)" stroke="none" d="M 6487,4193 L 6698,4193 6593,3982 6487,4193 Z"/>
 <path fill="none" stroke="rgb(87,157,28)" stroke-linejoin="round" d="M 6487,4193 L 6698,4193 6593,3982 6487,4193 Z"/>
 <path fill="none" stroke="rgb(126,0,33)" stroke-width="50" stroke-linejoin="round" d="M 6193,4790 L 6993,4790"/>
 <path fill="rgb(126,0,33)" stroke="none" d="M 6487,4685 L 6487,4896 6698,4790 6487,4685 Z"/>
 <path fill="none" stroke="rgb(126,0,33)" stroke-linejoin="round" d="M 6487,4685 L 6487,4896 6698,4790 6487,4685 Z"/>
 <path fill="none" stroke="rgb(131,202,255)" stroke-width="50" stroke-linejoin="round" d="M 6193,5493 L 6993,5493"/>
 <path fill="rgb(131,202,255)" stroke="none" d="M 6487,5493 L 6698,5599 6698,5388 6487,5493 Z"/>
 <path fill="none" stroke="rgb(131,202,255)" stroke-linejoin="round" d="M 6487,5493 L 6698,5599 6698,5388 6487,5493 Z"/>
 <text class="TextShape"><tspan class="TextParagraph" font-family="Liberation Sans, sans-serif" font-size="353px" font-weight="400"><tspan class="TextPosition" x="7093" y="2098"><tspan fill="rgb(0,0,0)" stroke="none">CastillaLa Mancha</tspan></tspan></tspan></text>
 <text class="TextShape"><tspan class="TextParagraph" font-family="Liberation Sans, sans-serif" font-size="353px" font-weight="400"><tspan class="TextPosition" x="7093" y="2801"><tspan fill="rgb(0,0,0)" stroke="none">Castilla y Len</tspan></tspan></tspan></text>
 <text class="TextShape"><tspan class="TextParagraph" font-family="Liberation Sans, sans-serif" font-size="353px" font-weight="400"><tspan class="TextPosition" x="7093" y="3504"><tspan fill="rgb(0,0,0)" stroke="none">Catalua</tspan></tspan></tspan></text>
 <text class="TextShape"><tspan class="TextParagraph" font-family="Liberation Sans, sans-serif" font-size="353px" font-weight="400"><tspan class="TextPosition" x="7093" y="4207"><tspan fill="rgb(0,0,0)" stroke="none">Madrid</tspan></tspan></tspan></text>
 <text class="TextShape"><tspan class="TextParagraph" font-family="Liberation Sans, sans-serif" font-size="353px" font-weight="400"><tspan class="TextPosition" x="7093" y="4910"><tspan fill="rgb(0,0,0)" stroke="none">Navarra</tspan></tspan></tspan></text>
 <text class="TextShape"><tspan class="TextParagraph" font-family="Liberation Sans, sans-serif" font-size="353px" font-weight="400"><tspan class="TextPosition" x="7093" y="5613"><tspan fill="rgb(0,0,0)" stroke="none">La Rioja</tspan></tspan></tspan></text>
</svg>