<?xml version="1.0" encoding="UTF-8"?>
<!DOCTYPE svg PUBLIC "-//W3C//DTD SVG 1.1//EN" "http://www.w3.org/Graphics/SVG/1.1/DTD/svg11.dtd">
<svg width="150mm" height="120mm" viewBox="0 0 15000 12000" version="1.1" xmlns="http://www.w3.org/2000/svg" xmlns:xlink="http://www.w3.org/1999/xlink" stroke-width="28.222" stroke-linejoin="round" xml:space="preserve">
 <path fill="rgb(255,255,255)" stroke="none" d="M 7500,12000 L 0,12000 0,0 15000,0 15000,12000 7500,12000 Z"/>
 <path fill="none" stroke="rgb(0,0,0)" stroke-linejoin="round" d="M 8268,10814 L 1855,10814 1855,1218 14681,1218 14681,10814 8268,10814 Z"/>
 <path fill="none" stroke="rgb(0,0,0)" stroke-linejoin="round" d="M 14681,10813 L 1855,10813"/>
 <path fill="none" stroke="rgb(0,0,0)" stroke-linejoin="round" d="M 14681,10013 L 1855,10013"/>
 <path fill="none" stroke="rgb(0,0,0)" stroke-linejoin="round" d="M 14681,9213 L 1855,9213"/>
 <path fill="none" stroke="rgb(0,0,0)" stroke-linejoin="round" d="M 14681,8413 L 1855,8413"/>
 <path fill="none" stroke="rgb(0,0,0)" stroke-linejoin="round" d="M 14681,7614 L 1855,7614"/>
 <path fill="none" stroke="rgb(0,0,0)" stroke-linejoin="round" d="M 14681,6814 L 1855,6814"/>
 <path fill="none" stroke="rgb(0,0,0)" stroke-linejoin="round" d="M 14681,6014 L 1855,6014"/>
 <path fill="none" stroke="rgb(0,0,0)" stroke-linejoin="round" d="M 14681,5215 L 1855,5215"/>
 <path fill="none" stroke="rgb(0,0,0)" stroke-linejoin="round" d="M 14681,4416 L 1855,4416"/>
 <path fill="none" stroke="rgb(0,0,0)" stroke-linejoin="round" d="M 14681,3616 L 1855,3616"/>
 <path fill="none" stroke="rgb(0,0,0)" stroke-linejoin="round" d="M 14681,2816 L 1855,2816"/>
 <path fill="none" stroke="rgb(0,0,0)" stroke-linejoin="round" d="M 14681,2016 L 1855,2016"/>
 <path fill="none" stroke="rgb(0,0,0)" stroke-linejoin="round" d="M 14681,1217 L 1855,1217"/>
 <path fill="none" stroke="rgb(0,0,0)" stroke-linejoin="round" d="M 1855,10963 L 1855,10813"/>
 <path fill="none" stroke="rgb(0,0,0)" stroke-linejoin="round" d="M 1855,10963 L 1855,10813"/>
 <path fill="none" stroke="rgb(0,0,0)" stroke-linejoin="round" d="M 3331,10963 L 3331,10813"/>
 <path fill="none" stroke="rgb(0,0,0)" stroke-linejoin="round" d="M 3331,10963 L 3331,10813"/>
 <path fill="none" stroke="rgb(0,0,0)" stroke-linejoin="round" d="M 4909,10963 L 4909,10813"/>
 <path fill="none" stroke="rgb(0,0,0)" stroke-linejoin="round" d="M 4909,10963 L 4909,10813"/>
 <path fill="none" stroke="rgb(0,0,0)" stroke-linejoin="round" d="M 6436,10963 L 6436,10813"/>
 <path fill="none" stroke="rgb(0,0,0)" stroke-linejoin="round" d="M 6436,10963 L 6436,10813"/>
 <path fill="none" stroke="rgb(0,0,0)" stroke-linejoin="round" d="M 8012,10963 L 8012,10813"/>
 <path fill="none" stroke="rgb(0,0,0)" stroke-linejoin="round" d="M 8012,10963 L 8012,10813"/>
 <path fill="none" stroke="rgb(0,0,0)" stroke-linejoin="round" d="M 9540,10963 L 9540,10813"/>
 <path fill="none" stroke="rgb(0,0,0)" stroke-linejoin="round" d="M 9540,10963 L 9540,10813"/>
 <path fill="none" stroke="rgb(0,0,0)" stroke-linejoin="round" d="M 11117,10963 L 11117,10813"/>
 <path fill="none" stroke="rgb(0,0,0)" stroke-linejoin="round" d="M 11117,10963 L 11117,10813"/>
 <path fill="none" stroke="rgb(0,0,0)" stroke-linejoin="round" d="M 12695,10963 L 12695,10813"/>
 <path fill="none" stroke="rgb(0,0,0)" stroke-linejoin="round" d="M 12695,10963 L 12695,10813"/>
 <path fill="none" stroke="rgb(0,0,0)" stroke-linejoin="round" d="M 14222,10963 L 14222,10813"/>
 <path fill="none" stroke="rgb(0,0,0)" stroke-linejoin="round" d="M 14222,10963 L 14222,10813"/>
 <path fill="none" stroke="rgb(0,0,0)" stroke-linejoin="round" d="M 1855,10813 L 14681,10813"/>
 <path fill="none" stroke="rgb(0,0,0)" stroke-linejoin="round" d="M 1705,10813 L 1855,10813"/>
 <path fill="none" stroke="rgb(0,0,0)" stroke-linejoin="round" d="M 1705,10813 L 1855,10813"/>
 <path fill="none" stroke="rgb(0,0,0)" stroke-linejoin="round" d="M 1705,10013 L 1855,10013"/>
 <path fill="none" stroke="rgb(0,0,0)" stroke-linejoin="round" d="M 1705,10013 L 1855,10013"/>
 <path fill="none" stroke="rgb(0,0,0)" stroke-linejoin="round" d="M 1705,9213 L 1855,9213"/>
 <path fill="none" stroke="rgb(0,0,0)" stroke-linejoin="round" d="M 1705,9213 L 1855,9213"/>
 <path fill="none" stroke="rgb(0,0,0)" stroke-linejoin="round" d="M 1705,8413 L 1855,8413"/>
 <path fill="none" stroke="rgb(0,0,0)" stroke-linejoin="round" d="M 1705,8413 L 1855,8413"/>
 <path fill="none" stroke="rgb(0,0,0)" stroke-linejoin="round" d="M 1705,7614 L 1855,7614"/>
 <path fill="none" stroke="rgb(0,0,0)" stroke-linejoin="round" d="M 1705,7614 L 1855,7614"/>
 <path fill="none" stroke="rgb(0,0,0)" stroke-linejoin="round" d="M 1705,6814 L 1855,6814"/>
 <path fill="none" stroke="rgb(0,0,0)" stroke-linejoin="round" d="M 1705,6814 L 1855,6814"/>
 <path fill="none" stroke="rgb(0,0,0)" stroke-linejoin="round" d="M 1705,6014 L 1855,6014"/>
 <path fill="none" stroke="rgb(0,0,0)" stroke-linejoin="round" d="M 1705,6014 L 1855,6014"/>
 <path fill="none" stroke="rgb(0,0,0)" stroke-linejoin="round" d="M 1705,5215 L 1855,5215"/>
 <path fill="none" stroke="rgb(0,0,0)" stroke-linejoin="round" d="M 1705,5215 L 1855,5215"/>
 <path fill="none" stroke="rgb(0,0,0)" stroke-linejoin="round" d="M 1705,4416 L 1855,4416"/>
 <path fill="none" stroke="rgb(0,0,0)" stroke-linejoin="round" d="M 1705,4416 L 1855,4416"/>
 <path fill="none" stroke="rgb(0,0,0)" stroke-linejoin="round" d="M 1705,3616 L 1855,3616"/>
 <path fill="none" stroke="rgb(0,0,0)" stroke-linejoin="round" d="M 1705,3616 L 1855,3616"/>
 <path fill="none" stroke="rgb(0,0,0)" stroke-linejoin="round" d="M 1705,2816 L 1855,2816"/>
 <path fill="none" stroke="rgb(0,0,0)" stroke-linejoin="round" d="M 1705,2816 L 1855,2816"/>
 <path fill="none" stroke="rgb(0,0,0)" stroke-linejoin="round" d="M 1705,2016 L 1855,2016"/>
 <path fill="none" stroke="rgb(0,0,0)" stroke-linejoin="round" d="M 1705,2016 L 1855,2016"/>
 <path fill="none" stroke="rgb(0,0,0)" stroke-linejoin="round" d="M 1705,1217 L 1855,1217"/>
 <path fill="none" stroke="rgb(0,0,0)" stroke-linejoin="round" d="M 1705,1217 L 1855,1217"/>
 <path fill="none" stroke="rgb(0,0,0)" stroke-linejoin="round" d="M 1855,10813 L 1855,1217"/>
 <path fill="none" stroke="rgb(255,0,0)" stroke-width="100" stroke-linejoin="round" d="M 1855,10812 L 1905,10812 1956,10812 2007,10812 2058,10812 2109,10812 2160,10812 2211,10812 2262,10812 2313,10812 2364,10812 2414,10812 2465,10811 2516,10811 2567,10811 2618,10810 2669,10809 2720,10807 2771,10805 2822,10800 2873,10795 2923,10789 2974,10779 3025,10766 3076,10750 3127,10739 3178,10723 3229,10703 3280,10675 3331,10653 3382,10613 3432,10584 3483,10548 3534,10495 3585,10432 3636,10363 3687,10300 3738,10235 3789,10182 3840,10131 3891,10057 3941,9996 3992,9931 4043,9871 4094,9815 4145,9767 4196,9733 4247,9689 4298,9639 4349,9593 4400,9557 4450,9518 4501,9485 4552,9457 4603,9433 4654,9392 4705,9350 4756,9308 4807,9270 4858,9304 4909,9284 4959,9257 5010,9305 5061,9282 5112,9189 5163,9166 5214,9152 5265,9137 5316,9127 5367,9110 5418,9106 5468,9091 5519,9080 5570,9073 5621,9069 5672,9058 5723,9050 5774,9041 5825,9030 5876,9024 5927,9018 5977,8994 6028,8989 6079,8984 6130,8977 6181,8972 6232,8967 6283,8962 6334,8960 6385,8957 6436,8953 6486,8949 6537,8934 6588,8931 6639,8927 6690,8930 6741,8923 6792,8919 6843,8910 6894,8905 6945,8899 6995,8898 7046,8896 7097,8894 7148,8890 7199,8888 7250,8885 7301,8883 7352,8881 7403,8879 7454,8877 7503,8875 7554,8871 7605,8867 7656,8864 7707,8862 7758,8860 7809,8858 7860,8856 7911,8851 7962,8849 8012,8846 8063,8843 8114,8841 8165,8839 8216,8836 8267,8833 8318,8830 8369,8825 8420,8823 8471,8821 8522,8819 8572,8816 8623,8812 8674,8809 8725,8809 8776,8809 8827,8799 8878,8796 8929,8793 8980,8789 9031,8782 9081,8782 9132,8782 9183,8766 9234,8760 9285,8753 9336,8742 9387,8731 9438,8731 9489,8731 9540,8694 9590,8684 9641,8673 9692,8652 9743,8634 9794,8634 9845,8634 9896,8583 9947,8568 9998,8552 10049,8530 10099,8505 10150,8505 10201,8505 10252,8437 10303,8391 10354,8367 10405,8334 10456,8298 10507,8298 10558,8298 10608,8229 10659,8200 10710,8175 10761,8115 10812,8071 10863,8071 10914,8071 10965,7941 11016,7900 11067,7846 11117,7790 11168,7725 11219,7725 11270,7725 11321,7570 11372,7513 11423,7455 11474,7378 11525,7299 11576,7299 11626,7299 11677,7111 11728,7046 11779,6977 11830,6906 11881,6822 11932,6822 11983,6822 12034,6609 12085,6538 12135,6467 12186,6381 12237,6283 12288,6283 12339,6283 12390,6064 12441,5990 12492,5900 12543,5810 12594,5695 12644,5695 12695,5695 12746,5443 12797,5357 12848,5267 12899,5182 12950,5083 13001,5083 13052,5083 13103,4829 13153,4750 13204,4662 13255,4587 13306,4496 13357,4496 13408,4496 13459,4308 13510,4212 13561,4128 13612,4029 13662,3927 13713,3927 13764,3927 13815,3704 13866,3647 13917,3551 13968,3445 14019,3323 14070,3323 14121,3323 14171,3020 14222,2909 14273,2774 14324,2606 14375,2447 14426,2447 14477,2447 14528,2030 14579,1882 14630,1724 14681,1536"/>
 <text class="TextShape"><tspan class="TextParagraph" font-family="Liberation Sans, sans-serif" font-size="353px" font-weight="400"><tspan class="TextPosition" x="1431" y="11381"><tspan fill="rgb(0,0,0)" stroke="none">20/02</tspan></tspan></tspan></text>
 <text class="TextShape"><tspan class="TextParagraph" font-family="Liberation Sans, sans-serif" font-size="353px" font-weight="400"><tspan class="TextPosition" x="2907" y="11381"><tspan fill="rgb(0,0,0)" stroke="none">20/03</tspan></tspan></tspan></text>
 <text class="TextShape"><tspan class="TextParagraph" font-family="Liberation Sans, sans-serif" font-size="353px" font-weight="400"><tspan class="TextPosition" x="4485" y="11381"><tspan fill="rgb(0,0,0)" stroke="none">20/04</tspan></tspan></tspan></text>
 <text class="TextShape"><tspan class="TextParagraph" font-family="Liberation Sans, sans-serif" font-size="353px" font-weight="400"><tspan class="TextPosition" x="6012" y="11381"><tspan fill="rgb(0,0,0)" stroke="none">20/05</tspan></tspan></tspan></text>
 <text class="TextShape"><tspan class="TextParagraph" font-family="Liberation Sans, sans-serif" font-size="353px" font-weight="400"><tspan class="TextPosition" x="7589" y="11381"><tspan fill="rgb(0,0,0)" stroke="none">20/06</tspan></tspan></tspan></text>
 <text class="TextShape"><tspan class="TextParagraph" font-family="Liberation Sans, sans-serif" font-size="353px" font-weight="400"><tspan class="TextPosition" x="9117" y="11381"><tspan fill="rgb(0,0,0)" stroke="none">20/07</tspan></tspan></tspan></text>
 <text class="TextShape"><tspan class="TextParagraph" font-family="Liberation Sans, sans-serif" font-size="353px" font-weight="400"><tspan class="TextPosition" x="10694" y="11381"><tspan fill="rgb(0,0,0)" stroke="none">20/08</tspan></tspan></tspan></text>
 <text class="TextShape"><tspan class="TextParagraph" font-family="Liberation Sans, sans-serif" font-size="353px" font-weight="400"><tspan class="TextPosition" x="12272" y="11381"><tspan fill="rgb(0,0,0)" stroke="none">20/09</tspan></tspan></tspan></text>
 <text class="TextShape"><tspan class="TextParagraph" font-family="Liberation Sans, sans-serif" font-size="353px" font-weight="400"><tspan class="TextPosition" x="13799" y="11381"><tspan fill="rgb(0,0,0)" stroke="none">20/10</tspan></tspan></tspan></text>
 <text class="TextShape"><tspan class="TextParagraph" font-family="Liberation Sans, sans-serif" font-size="353px" font-weight="400"><tspan class="TextPosition" x="1420" y="10934"><tspan fill="rgb(0,0,0)" stroke="none">0</tspan></tspan></tspan></text>
 <text class="TextShape"><tspan class="TextParagraph" font-family="Liberation Sans, sans-serif" font-size="353px" font-weight="400"><tspan class="TextPosition" x="388" y="10134"><tspan fill="rgb(0,0,0)" stroke="none">100.000</tspan></tspan></tspan></text>
 <text class="TextShape"><tspan class="TextParagraph" font-family="Liberation Sans, sans-serif" font-size="353px" font-weight="400"><tspan class="TextPosition" x="388" y="9334"><tspan fill="rgb(0,0,0)" stroke="none">200.000</tspan></tspan></tspan></text>
 <text class="TextShape"><tspan class="TextParagraph" font-family="Liberation Sans, sans-serif" font-size="353px" font-weight="400"><tspan class="TextPosition" x="388" y="8534"><tspan fill="rgb(0,0,0)" stroke="none">300.000</tspan></tspan></tspan></text>
 <text class="TextShape"><tspan class="TextParagraph" font-family="Liberation Sans, sans-serif" font-size="353px" font-weight="400"><tspan class="TextPosition" x="388" y="7735"><tspan fill="rgb(0,0,0)" stroke="none">400.000</tspan></tspan></tspan></text>
 <text class="TextShape"><tspan class="TextParagraph" font-family="Liberation Sans, sans-serif" font-size="353px" font-weight="400"><tspan class="TextPosition" x="388" y="6935"><tspan fill="rgb(0,0,0)" stroke="none">500.000</tspan></tspan></tspan></text>
 <text class="TextShape"><tspan class="TextParagraph" font-family="Liberation Sans, sans-serif" font-size="353px" font-weight="400"><tspan class="TextPosition" x="388" y="6135"><tspan fill="rgb(0,0,0)" stroke="none">600.000</tspan></tspan></tspan></text>
 <text class="TextShape"><tspan class="TextParagraph" font-family="Liberation Sans, sans-serif" font-size="353px" font-weight="400"><tspan class="TextPosition" x="388" y="5335"><tspan fill="rgb(0,0,0)" stroke="none">700.000</tspan></tspan></tspan></text>
 <text class="TextShape"><tspan class="TextParagraph" font-family="Liberation Sans, sans-serif" font-size="353px" font-weight="400"><tspan class="TextPosition" x="388" y="4536"><tspan fill="rgb(0,0,0)" stroke="none">800.000</tspan></tspan></tspan></text>
 <text class="TextShape"><tspan class="TextParagraph" font-family="Liberation Sans, sans-serif" font-size="353px" font-weight="400"><tspan class="TextPosition" x="388" y="3736"><tspan fill="rgb(0,0,0)" stroke="none">900.000</tspan></tspan></tspan></text>
 <text class="TextShape"><tspan class="TextParagraph" font-family="Liberation Sans, sans-serif" font-size="353px" font-weight="400"><tspan class="TextPosition" x="97" y="2936"><tspan fill="rgb(0,0,0)" stroke="none">1.000.000</tspan></tspan></tspan></text>
 <text class="TextShape"><tspan class="TextParagraph" font-family="Liberation Sans, sans-serif" font-size="353px" font-weight="400"><tspan class="TextPosition" x="97" y="2136"><tspan fill="rgb(0,0,0)" stroke="none">1.100.000</tspan></tspan></tspan></text>
 <text class="TextShape"><tspan class="TextParagraph" font-family="Liberation Sans, sans-serif" font-size="353px" font-weight="400"><tspan class="TextPosition" x="97" y="1337"><tspan fill="rgb(0,0,0)" stroke="none">1.200.000</tspan></tspan></tspan></text>
 <text class="TextShape"><tspan class="TextParagraph" font-family="Liberation Sans, sans-serif" font-size="459px" font-weight="400"><tspan class="TextPosition" x="2966" y="724"><tspan fill="rgb(0,0,0)" stroke="none">Covid-19. Nuevos contagios acumulados en España</tspan></tspan></tspan></text>
</svg>