<?xml version="1.0" encoding="UTF-8"?>
<!DOCTYPE svg PUBLIC "-//W3C//DTD SVG 1.1//EN" "http://www.w3.org/Graphics/SVG/1.1/DTD/svg11.dtd">
<svg width="180mm" height="120mm" viewBox="0 0 18000 12000" version="1.1" xmlns="http://www.w3.org/2000/svg" xmlns:xlink="http://www.w3.org/1999/xlink" stroke-width="28.222" stroke-linejoin="round" xml:space="preserve">
 <path fill="rgb(255,255,255)" stroke="none" d="M 9000,11998 L 0,11998 0,0 18000,0 18000,11998 9000,11998 Z"/>
 <path fill="none" stroke="rgb(178,178,178)" stroke-width="50" stroke-linejoin="round" d="M 8238,11353 L 1279,11353 1279,934 15197,934 15197,11353 8238,11353 Z"/>
 <path fill="none" stroke="rgb(0,0,0)" stroke-linejoin="round" d="M 15197,11352 L 1279,11352"/>
 <path fill="none" stroke="rgb(0,0,0)" stroke-linejoin="round" d="M 15197,10309 L 1279,10309"/>
 <path fill="none" stroke="rgb(0,0,0)" stroke-linejoin="round" d="M 15197,9268 L 1279,9268"/>
 <path fill="none" stroke="rgb(0,0,0)" stroke-linejoin="round" d="M 15197,8226 L 1279,8226"/>
 <path fill="none" stroke="rgb(0,0,0)" stroke-linejoin="round" d="M 15197,7184 L 1279,7184"/>
 <path fill="none" stroke="rgb(0,0,0)" stroke-linejoin="round" d="M 15197,6142 L 1279,6142"/>
 <path fill="none" stroke="rgb(0,0,0)" stroke-linejoin="round" d="M 15197,5100 L 1279,5100"/>
 <path fill="none" stroke="rgb(0,0,0)" stroke-linejoin="round" d="M 15197,4058 L 1279,4058"/>
 <path fill="none" stroke="rgb(0,0,0)" stroke-linejoin="round" d="M 15197,3016 L 1279,3016"/>
 <path fill="none" stroke="rgb(0,0,0)" stroke-linejoin="round" d="M 15197,1975 L 1279,1975"/>
 <path fill="none" stroke="rgb(0,0,0)" stroke-linejoin="round" d="M 15197,933 L 1279,933"/>
 <path fill="none" stroke="rgb(179,179,179)" stroke-linejoin="round" d="M 1279,11502 L 1279,11352"/>
 <path fill="none" stroke="rgb(179,179,179)" stroke-linejoin="round" d="M 1279,11502 L 1279,11352"/>
 <path fill="none" stroke="rgb(179,179,179)" stroke-linejoin="round" d="M 4523,11502 L 4523,11352"/>
 <path fill="none" stroke="rgb(179,179,179)" stroke-linejoin="round" d="M 4523,11502 L 4523,11352"/>
 <path fill="none" stroke="rgb(179,179,179)" stroke-linejoin="round" d="M 7767,11502 L 7767,11352"/>
 <path fill="none" stroke="rgb(179,179,179)" stroke-linejoin="round" d="M 7767,11502 L 7767,11352"/>
 <path fill="none" stroke="rgb(179,179,179)" stroke-linejoin="round" d="M 10906,11502 L 10906,11352"/>
 <path fill="none" stroke="rgb(179,179,179)" stroke-linejoin="round" d="M 10906,11502 L 10906,11352"/>
 <path fill="none" stroke="rgb(179,179,179)" stroke-linejoin="round" d="M 14150,11502 L 14150,11352"/>
 <path fill="none" stroke="rgb(179,179,179)" stroke-linejoin="round" d="M 14150,11502 L 14150,11352"/>
 <path fill="none" stroke="rgb(179,179,179)" stroke-linejoin="round" d="M 1279,11352 L 15197,11352"/>
 <path fill="none" stroke="rgb(0,0,0)" stroke-linejoin="round" d="M 1129,11352 L 1279,11352"/>
 <path fill="none" stroke="rgb(0,0,0)" stroke-linejoin="round" d="M 1129,11352 L 1279,11352"/>
 <path fill="none" stroke="rgb(0,0,0)" stroke-linejoin="round" d="M 1129,10309 L 1279,10309"/>
 <path fill="none" stroke="rgb(0,0,0)" stroke-linejoin="round" d="M 1129,10309 L 1279,10309"/>
 <path fill="none" stroke="rgb(0,0,0)" stroke-linejoin="round" d="M 1129,9268 L 1279,9268"/>
 <path fill="none" stroke="rgb(0,0,0)" stroke-linejoin="round" d="M 1129,9268 L 1279,9268"/>
 <path fill="none" stroke="rgb(0,0,0)" stroke-linejoin="round" d="M 1129,8226 L 1279,8226"/>
 <path fill="none" stroke="rgb(0,0,0)" stroke-linejoin="round" d="M 1129,8226 L 1279,8226"/>
 <path fill="none" stroke="rgb(0,0,0)" stroke-linejoin="round" d="M 1129,7184 L 1279,7184"/>
 <path fill="none" stroke="rgb(0,0,0)" stroke-linejoin="round" d="M 1129,7184 L 1279,7184"/>
 <path fill="none" stroke="rgb(0,0,0)" stroke-linejoin="round" d="M 1129,6142 L 1279,6142"/>
 <path fill="none" stroke="rgb(0,0,0)" stroke-linejoin="round" d="M 1129,6142 L 1279,6142"/>
 <path fill="none" stroke="rgb(0,0,0)" stroke-linejoin="round" d="M 1129,5100 L 1279,5100"/>
 <path fill="none" stroke="rgb(0,0,0)" stroke-linejoin="round" d="M 1129,5100 L 1279,5100"/>
 <path fill="none" stroke="rgb(0,0,0)" stroke-linejoin="round" d="M 1129,4058 L 1279,4058"/>
 <path fill="none" stroke="rgb(0,0,0)" stroke-linejoin="round" d="M 1129,4058 L 1279,4058"/>
 <path fill="none" stroke="rgb(0,0,0)" stroke-linejoin="round" d="M 1129,3016 L 1279,3016"/>
 <path fill="none" stroke="rgb(0,0,0)" stroke-linejoin="round" d="M 1129,3016 L 1279,3016"/>
 <path fill="none" stroke="rgb(0,0,0)" stroke-linejoin="round" d="M 1129,1975 L 1279,1975"/>
 <path fill="none" stroke="rgb(0,0,0)" stroke-linejoin="round" d="M 1129,1975 L 1279,1975"/>
 <path fill="none" stroke="rgb(0,0,0)" stroke-linejoin="round" d="M 1129,933 L 1279,933"/>
 <path fill="none" stroke="rgb(0,0,0)" stroke-linejoin="round" d="M 1129,933 L 1279,933"/>
 <path fill="none" stroke="rgb(0,0,0)" stroke-linejoin="round" d="M 1279,11352 L 1279,933"/>
 <path fill="rgb(255,166,166)" stroke="none" d="M 1279,6142 L 1383,9616 1488,9458 1592,9963 1697,9513 1802,9513 1906,9513 2011,10641 2116,10279 2220,10294 2325,10309 2430,10209 2534,10209 2639,10209 2744,10352 2848,10385 2953,10508 3058,10086 3162,9606 3267,9606 3372,9606 3476,9502 3581,9032 3686,9411 3790,9274 3895,9119 4000,9119 4104,9119 4209,9079 4313,8599 4418,8607 4523,8581 4627,8581 4732,8581 4837,8581 4941,8235 5046,8284 5151,8261 5255,8208 5360,8414 5465,8414 5569,8414 5674,8487 5779,8393 5883,8459 5988,8334 6093,8436 6197,8436 6302,8436 6407,8460 6511,8203 6616,8446 6721,8606 6825,8579 6930,8579 7034,8579 7139,8676 7244,8490 7348,8505 7453,8481 7558,8513 7662,8513 7767,8513 7872,8568 7976,8395 8081,8377 8186,8409 8290,8435 8395,8435 8500,8435 8604,8462 8709,8324 8814,8365 8918,8446 9022,8365 9127,8365 9231,8365 9336,8385 9441,8428 9545,8450 9650,8450 9754,8370 9859,8370 9964,8370 10068,8421 10173,8450 10278,8414 10382,8434 10487,8449 10592,8449 10696,8449 10801,8514 10906,8503 11010,8537 11115,8528 11220,8597 11324,8597 11429,8597 11534,8710 11638,8783 11743,8881 11848,8895 11952,8956 12057,8956 12162,8956 12266,9060 12371,9135 12475,9124 12580,9134 12685,9154 12789,9154 12894,9154 12999,9213 13103,9260 13208,9278 13313,9299 13417,9332 13522,9332 13627,9332 13731,9395 13836,9437 13941,9463 14045,9457 14150,9490 14255,9490 14359,9490 14464,9530 14569,9571 14673,9593 14778,9599 14883,9612 14987,9612 15092,9612 15197,9639 15197,11352 1279,11352 1279,6142 Z"/>
 <path fill="none" stroke="rgb(0,0,0)" stroke-width="50" stroke-linejoin="round" d="M 1279,6142 L 1383,9616 1488,9458 1592,9963 1697,9513 1802,9513 1906,9513 2011,10641 2116,10279 2220,10294 2325,10309 2430,10209 2534,10209 2639,10209 2744,10352 2848,10385 2953,10508 3058,10086 3162,9606 3267,9606 3372,9606 3476,9502 3581,9032 3686,9411 3790,9274 3895,9119 4000,9119 4104,9119 4209,9079 4313,8599 4418,8607 4523,8581 4627,8581 4732,8581 4837,8581 4941,8235 5046,8284 5151,8261 5255,8208 5360,8414 5465,8414 5569,8414 5674,8487 5779,8393 5883,8459 5988,8334 6093,8436 6197,8436 6302,8436 6407,8460 6511,8203 6616,8446 6721,8606 6825,8579 6930,8579 7034,8579 7139,8676 7244,8490 7348,8505 7453,8481 7558,8513 7662,8513 7767,8513 7872,8568 7976,8395 8081,8377 8186,8409 8290,8435 8395,8435 8500,8435 8604,8462 8709,8324 8814,8365 8918,8446 9022,8365 9127,8365 9231,8365 9336,8385 9441,8428 9545,8450 9650,8450 9754,8370 9859,8370 9964,8370 10068,8421 10173,8450 10278,8414 10382,8434 10487,8449 10592,8449 10696,8449 10801,8514 10906,8503 11010,8537 11115,8528 11220,8597 11324,8597 11429,8597 11534,8710 11638,8783 11743,8881 11848,8895 11952,8956 12057,8956 12162,8956 12266,9060 12371,9135 12475,9124 12580,9134 12685,9154 12789,9154 12894,9154 12999,9213 13103,9260 13208,9278 13313,9299 13417,9332 13522,9332 13627,9332 13731,9395 13836,9437 13941,9463 14045,9457 14150,9490 14255,9490 14359,9490 14464,9530 14569,9571 14673,9593 14778,9599 14883,9612 14987,9612 15092,9612 15197,9639 15197,11352 1279,11352 1279,6142 Z"/>
 <path fill="rgb(255,255,215)" stroke="none" d="M 1279,6142 L 1383,7879 1488,8510 1592,9268 1697,8900 1802,8900 1906,8900 2011,10404 2116,10125 2220,10143 2325,10012 2430,9925 2534,9925 2639,9925 2744,9853 2848,9903 2953,10086 3058,9545 3162,9099 3267,9099 3372,9099 3476,8723 3581,8200 3686,8840 3790,8726 3895,8503 4000,8503 4104,8503 4209,8368 4313,7857 4418,7853 4523,7842 4627,7789 4732,7789 4837,7789 4941,7338 5046,7357 5151,7304 5255,7259 5360,7568 5465,7568 5569,7568 5674,7516 5779,7415 5883,7466 5988,7264 6093,7350 6197,7350 6302,7350 6407,7304 6511,7023 6616,7324 6721,7444 6825,7437 6930,7437 7034,7437 7139,7489 7244,7368 7348,7391 7453,7403 7558,7366 7662,7366 7767,7366 7872,7364 7976,7186 8081,7164 8186,7205 8290,7205 8395,7205 8500,7205 8604,7228 8709,7046 8814,7090 8918,7150 9022,7107 9127,7107 9231,7107 9336,7088 9441,7153 9545,7159 9650,7170 9754,7087 9859,7087 9964,7087 10068,7107 10173,7116 10278,7104 10382,7156 10487,7073 10592,7073 10696,7073 10801,7128 10906,7086 11010,7106 11115,7088 11220,7149 11324,7149 11429,7149 11534,7200 11638,7276 11743,7560 11848,7590 11952,7608 12057,7608 12162,7608 12266,7677 12371,7719 12475,7695 12580,7688 12685,7701 12789,7701 12894,7701 12999,7727 13103,7752 13208,7756 13313,7768 13417,7795 13522,7795 13627,7795 13731,7837 13836,7871 13941,7891 14045,7884 14150,7906 14255,7906 14359,7906 14464,7913 14569,7946 14673,7942 14778,7932 14883,7939 14987,7939 15092,7939 15197,7962 15197,9639 15092,9612 14987,9612 14883,9612 14778,9599 14673,9593 14569,9571 14464,9530 14359,9490 14255,9490 14150,9490 14045,9457 13941,9463 13836,9437 13731,9395 13627,9332 13522,9332 13417,9332 13313,9299 13208,9278 13103,9260 12999,9213 12894,9154 12789,9154 12685,9154 12580,9134 12475,9124 12371,9135 12266,9060 12162,8956 12057,8956 11952,8956 11848,8895 11743,8881 11638,8783 11534,8710 11429,8597 11324,8597 11220,8597 11115,8528 11010,8537 10906,8503 10801,8514 10696,8449 10592,8449 10487,8449 10382,8434 10278,8414 10173,8450 10068,8421 9964,8370 9859,8370 9754,8370 9650,8450 9545,8450 9441,8428 9336,8385 9231,8365 9127,8365 9022,8365 8918,8446 8814,8365 8709,8324 8604,8462 8500,8435 8395,8435 8290,8435 8186,8409 8081,8377 7976,8395 7872,8568 7767,8513 7662,8513 7558,8513 7453,8481 7348,8505 7244,8490 7139,8676 7034,8579 6930,8579 6825,8579 6721,8606 6616,8446 6511,8203 6407,8460 6302,8436 6197,8436 6093,8436 5988,8334 5883,8459 5779,8393 5674,8487 5569,8414 5465,8414 5360,8414 5255,8208 5151,8261 5046,8284 4941,8235 4837,8581 4732,8581 4627,8581 4523,8581 4418,8607 4313,8599 4209,9079 4104,9119 4000,9119 3895,9119 3790,9274 3686,9411 3581,9032 3476,9502 3372,9606 3267,9606 3162,9606 3058,10086 2953,10508 2848,10385 2744,10352 2639,10209 2534,10209 2430,10209 2325,10309 2220,10294 2116,10279 2011,10641 1906,9513 1802,9513 1697,9513 1592,9963 1488,9458 1383,9616 1279,6142 Z"/>
 <path fill="none" stroke="rgb(0,0,0)" stroke-width="50" stroke-linejoin="round" d="M 1279,6142 L 1383,7879 1488,8510 1592,9268 1697,8900 1802,8900 1906,8900 2011,10404 2116,10125 2220,10143 2325,10012 2430,9925 2534,9925 2639,9925 2744,9853 2848,9903 2953,10086 3058,9545 3162,9099 3267,9099 3372,9099 3476,8723 3581,8200 3686,8840 3790,8726 3895,8503 4000,8503 4104,8503 4209,8368 4313,7857 4418,7853 4523,7842 4627,7789 4732,7789 4837,7789 4941,7338 5046,7357 5151,7304 5255,7259 5360,7568 5465,7568 5569,7568 5674,7516 5779,7415 5883,7466 5988,7264 6093,7350 6197,7350 6302,7350 6407,7304 6511,7023 6616,7324 6721,7444 6825,7437 6930,7437 7034,7437 7139,7489 7244,7368 7348,7391 7453,7403 7558,7366 7662,7366 7767,7366 7872,7364 7976,7186 8081,7164 8186,7205 8290,7205 8395,7205 8500,7205 8604,7228 8709,7046 8814,7090 8918,7150 9022,7107 9127,7107 9231,7107 9336,7088 9441,7153 9545,7159 9650,7170 9754,7087 9859,7087 9964,7087 10068,7107 10173,7116 10278,7104 10382,7156 10487,7073 10592,7073 10696,7073 10801,7128 10906,7086 11010,7106 11115,7088 11220,7149 11324,7149 11429,7149 11534,7200 11638,7276 11743,7560 11848,7590 11952,7608 12057,7608 12162,7608 12266,7677 12371,7719 12475,7695 12580,7688 12685,7701 12789,7701 12894,7701 12999,7727 13103,7752 13208,7756 13313,7768 13417,7795 13522,7795 13627,7795 13731,7837 13836,7871 13941,7891 14045,7884 14150,7906 14255,7906 14359,7906 14464,7913 14569,7946 14673,7942 14778,7932 14883,7939 14987,7939 15092,7939 15197,7962 15197,9639 15092,9612 14987,9612 14883,9612 14778,9599 14673,9593 14569,9571 14464,9530 14359,9490 14255,9490 14150,9490 14045,9457 13941,9463 13836,9437 13731,9395 13627,9332 13522,9332 13417,9332 13313,9299 13208,9278 13103,9260 12999,9213 12894,9154 12789,9154 12685,9154 12580,9134 12475,9124 12371,9135 12266,9060 12162,8956 12057,8956 11952,8956 11848,8895 11743,8881 11638,8783 11534,8710 11429,8597 11324,8597 11220,8597 11115,8528 11010,8537 10906,8503 10801,8514 10696,8449 10592,8449 10487,8449 10382,8434 10278,8414 10173,8450 10068,8421 9964,8370 9859,8370 9754,8370 9650,8450 9545,8450 9441,8428 9336,8385 9231,8365 9127,8365 9022,8365 8918,8446 8814,8365 8709,8324 8604,8462 8500,8435 8395,8435 8290,8435 8186,8409 8081,8377 7976,8395 7872,8568 7767,8513 7662,8513 7558,8513 7453,8481 7348,8505 7244,8490 7139,8676 7034,8579 6930,8579 6825,8579 6721,8606 6616,8446 6511,8203 6407,8460 6302,8436 6197,8436 6093,8436 5988,8334 5883,8459 5779,8393 5674,8487 5569,8414 5465,8414 5360,8414 5255,8208 5151,8261 5046,8284 4941,8235 4837,8581 4732,8581 4627,8581 4523,8581 4418,8607 4313,8599 4209,9079 4104,9119 4000,9119 3895,9119 3790,9274 3686,9411 3581,9032 3476,9502 3372,9606 3267,9606 3162,9606 3058,10086 2953,10508 2848,10385 2744,10352 2639,10209 2534,10209 2430,10209 2325,10309 2220,10294 2116,10279 2011,10641 1906,9513 1802,9513 1697,9513 1592,9963 1488,9458 1383,9616 1279,6142 Z"/>
 <path fill="rgb(222,230,239)" stroke="none" d="M 1279,6142 L 1383,4406 1488,3774 1592,5100 1697,5223 1802,5223 1906,5223 2011,8747 2116,6601 2220,6670 2325,6588 2430,6498 2534,6498 2639,6498 2744,7997 2848,8109 2953,8521 3058,7798 3162,7465 3267,7465 3372,7465 3476,7262 3581,6798 3686,7755 3790,7578 3895,7374 4000,7374 4104,7374 4209,7302 4313,6862 4418,6693 4523,6714 4627,6691 4732,6691 4837,6691 4941,6378 5046,6359 5151,6251 5255,6245 5360,6712 5465,6712 5569,6712 5674,6661 5779,6608 5883,6656 5988,6499 6093,6558 6197,6558 6302,6558 6407,6568 6511,6360 6616,6708 6721,6831 6825,6846 6930,6846 7034,6846 7139,6919 7244,6829 7348,6818 7453,6844 7558,6811 7662,6811 7767,6811 7872,6822 7976,6672 8081,6674 8186,6714 8290,6718 8395,6718 8500,6718 8604,6753 8709,6589 8814,6634 8918,6697 9022,6655 9127,6655 9231,6655 9336,6637 9441,6709 9545,6720 9650,6733 9754,6640 9859,6640 9964,6640 10068,6670 10173,6684 10278,6670 10382,6680 10487,6611 10592,6611 10696,6611 10801,6684 10906,6648 11010,6673 11115,6658 11220,6714 11324,6714 11429,6714 11534,6772 11638,6816 11743,6061 11848,6069 11952,6060 12057,6060 12162,6060 12266,6156 12371,6229 12475,6238 12580,6249 12685,6280 12789,6280 12894,6280 12999,6344 13103,6392 13208,6418 13313,6437 13417,6462 13522,6462 13627,6462 13731,6479 13836,6495 13941,6480 14045,6466 14150,6474 14255,6474 14359,6474 14464,6515 14569,6529 14673,6508 14778,6498 14883,6509 14987,6509 15092,6509 15197,6536 15197,7962 15092,7939 14987,7939 14883,7939 14778,7932 14673,7942 14569,7946 14464,7913 14359,7906 14255,7906 14150,7906 14045,7884 13941,7891 13836,7871 13731,7837 13627,7795 13522,7795 13417,7795 13313,7768 13208,7756 13103,7752 12999,7727 12894,7701 12789,7701 12685,7701 12580,7688 12475,7695 12371,7719 12266,7677 12162,7608 12057,7608 11952,7608 11848,7590 11743,7560 11638,7276 11534,7200 11429,7149 11324,7149 11220,7149 11115,7088 11010,7106 10906,7086 10801,7128 10696,7073 10592,7073 10487,7073 10382,7156 10278,7104 10173,7116 10068,7107 9964,7087 9859,7087 9754,7087 9650,7170 9545,7159 9441,7153 9336,7088 9231,7107 9127,7107 9022,7107 8918,7150 8814,7090 8709,7046 8604,7228 8500,7205 8395,7205 8290,7205 8186,7205 8081,7164 7976,7186 7872,7364 7767,7366 7662,7366 7558,7366 7453,7403 7348,7391 7244,7368 7139,7489 7034,7437 6930,7437 6825,7437 6721,7444 6616,7324 6511,7023 6407,7304 6302,7350 6197,7350 6093,7350 5988,7264 5883,7466 5779,7415 5674,7516 5569,7568 5465,7568 5360,7568 5255,7259 5151,7304 5046,7357 4941,7338 4837,7789 4732,7789 4627,7789 4523,7842 4418,7853 4313,7857 4209,8368 4104,8503 4000,8503 3895,8503 3790,8726 3686,8840 3581,8200 3476,8723 3372,9099 3267,9099 3162,9099 3058,9545 2953,10086 2848,9903 2744,9853 2639,9925 2534,9925 2430,9925 2325,10012 2220,10143 2116,10125 2011,10404 1906,8900 1802,8900 1697,8900 1592,9268 1488,8510 1383,7879 1279,6142 Z"/>
 <path fill="none" stroke="rgb(0,0,0)" stroke-width="50" stroke-linejoin="round" d="M 1279,6142 L 1383,4406 1488,3774 1592,5100 1697,5223 1802,5223 1906,5223 2011,8747 2116,6601 2220,6670 2325,6588 2430,6498 2534,6498 2639,6498 2744,7997 2848,8109 2953,8521 3058,7798 3162,7465 3267,7465 3372,7465 3476,7262 3581,6798 3686,7755 3790,7578 3895,7374 4000,7374 4104,7374 4209,7302 4313,6862 4418,6693 4523,6714 4627,6691 4732,6691 4837,6691 4941,6378 5046,6359 5151,6251 5255,6245 5360,6712 5465,6712 5569,6712 5674,6661 5779,6608 5883,6656 5988,6499 6093,6558 6197,6558 6302,6558 6407,6568 6511,6360 6616,6708 6721,6831 6825,6846 6930,6846 7034,6846 7139,6919 7244,6829 7348,6818 7453,6844 7558,6811 7662,6811 7767,6811 7872,6822 7976,6672 8081,6674 8186,6714 8290,6718 8395,6718 8500,6718 8604,6753 8709,6589 8814,6634 8918,6697 9022,6655 9127,6655 9231,6655 9336,6637 9441,6709 9545,6720 9650,6733 9754,6640 9859,6640 9964,6640 10068,6670 10173,6684 10278,6670 10382,6680 10487,6611 10592,6611 10696,6611 10801,6684 10906,6648 11010,6673 11115,6658 11220,6714 11324,6714 11429,6714 11534,6772 11638,6816 11743,6061 11848,6069 11952,6060 12057,6060 12162,6060 12266,6156 12371,6229 12475,6238 12580,6249 12685,6280 12789,6280 12894,6280 12999,6344 13103,6392 13208,6418 13313,6437 13417,6462 13522,6462 13627,6462 13731,6479 13836,6495 13941,6480 14045,6466 14150,6474 14255,6474 14359,6474 14464,6515 14569,6529 14673,6508 14778,6498 14883,6509 14987,6509 15092,6509 15197,6536 15197,7962 15092,7939 14987,7939 14883,7939 14778,7932 14673,7942 14569,7946 14464,7913 14359,7906 14255,7906 14150,7906 14045,7884 13941,7891 13836,7871 13731,7837 13627,7795 13522,7795 13417,7795 13313,7768 13208,7756 13103,7752 12999,7727 12894,7701 12789,7701 12685,7701 12580,7688 12475,7695 12371,7719 12266,7677 12162,7608 12057,7608 11952,7608 11848,7590 11743,7560 11638,7276 11534,7200 11429,7149 11324,7149 11220,7149 11115,7088 11010,7106 10906,7086 10801,7128 10696,7073 10592,7073 10487,7073 10382,7156 10278,7104 10173,7116 10068,7107 9964,7087 9859,7087 9754,7087 9650,7170 9545,7159 9441,7153 9336,7088 9231,7107 9127,7107 9022,7107 8918,7150 8814,7090 8709,7046 8604,7228 8500,7205 8395,7205 8290,7205 8186,7205 8081,7164 7976,7186 7872,7364 7767,7366 7662,7366 7558,7366 7453,7403 7348,7391 7244,7368 7139,7489 7034,7437 6930,7437 6825,7437 6721,7444 6616,7324 6511,7023 6407,7304 6302,7350 6197,7350 6093,7350 5988,7264 5883,7466 5779,7415 5674,7516 5569,7568 5465,7568 5360,7568 5255,7259 5151,7304 5046,7357 4941,7338 4837,7789 4732,7789 4627,7789 4523,7842 4418,7853 4313,7857 4209,8368 4104,8503 4000,8503 3895,8503 3790,8726 3686,8840 3581,8200 3476,8723 3372,9099 3267,9099 3162,9099 3058,9545 2953,10086 2848,9903 2744,9853 2639,9925 2534,9925 2430,9925 2325,10012 2220,10143 2116,10125 2011,10404 1906,8900 1802,8900 1697,8900 1592,9268 1488,8510 1383,7879 1279,6142 Z"/>
 <path fill="rgb(221,232,203)" stroke="none" d="M 1279,933 L 1383,2669 1488,1880 1592,3711 1697,3997 1802,3997 1906,3997 2011,8036 2116,6142 2220,6066 2325,5994 2430,5928 2534,5928 2639,5928 2744,7712 2848,7694 2953,8039 3058,7316 3162,7015 3267,7015 3372,7015 3476,6677 3581,6273 3686,7412 3790,7195 3895,7014 4000,7014 4104,7014 4209,6923 4313,6459 4418,6287 4523,6252 4627,6223 4732,6223 4837,6223 4941,5843 5046,5708 5151,5623 5255,5597 5360,6078 5465,6078 5569,6078 5674,6017 5779,5927 5883,5986 5988,5826 6093,5869 6197,5869 6302,5869 6407,5804 6511,5592 6616,5996 6721,6149 6825,6164 6930,6164 7034,6164 7139,6209 7244,6116 7348,6121 7453,6099 7558,6075 7662,6075 7767,6075 7872,6038 7976,5900 8081,5877 8186,5926 8290,5920 8395,5920 8500,5920 8604,5897 8709,5734 8814,5744 8918,5760 9022,5722 9127,5722 9231,5722 9336,5669 9441,5738 9545,5708 9650,5714 9754,5644 9859,5644 9964,5644 10068,5640 10173,5632 10278,5610 10382,5611 10487,5541 10592,5541 10696,5541 10801,5570 10906,5538 11010,5559 11115,5545 11220,5591 11324,5591 11429,5591 11534,5624 11638,5683 11743,5028 11848,5019 11952,5021 12057,5021 12162,5021 12266,5092 12371,5161 12475,5165 12580,5178 12685,5205 12789,5205 12894,5205 12999,5267 13103,5299 13208,5316 13313,5342 13417,5363 13522,5363 13627,5363 13731,5383 13836,5403 13941,5387 14045,5377 14150,5390 14255,5390 14359,5390 14464,5421 14569,5443 14673,5427 14778,5426 14883,5427 14987,5427 15092,5427 15197,5449 15197,6536 15092,6509 14987,6509 14883,6509 14778,6498 14673,6508 14569,6529 14464,6515 14359,6474 14255,6474 14150,6474 14045,6466 13941,6480 13836,6495 13731,6479 13627,6462 13522,6462 13417,6462 13313,6437 13208,6418 13103,6392 12999,6344 12894,6280 12789,6280 12685,6280 12580,6249 12475,6238 12371,6229 12266,6156 12162,6060 12057,6060 11952,6060 11848,6069 11743,6061 11638,6816 11534,6772 11429,6714 11324,6714 11220,6714 11115,6658 11010,6673 10906,6648 10801,6684 10696,6611 10592,6611 10487,6611 10382,6680 10278,6670 10173,6684 10068,6670 9964,6640 9859,6640 9754,6640 9650,6733 9545,6720 9441,6709 9336,6637 9231,6655 9127,6655 9022,6655 8918,6697 8814,6634 8709,6589 8604,6753 8500,6718 8395,6718 8290,6718 8186,6714 8081,6674 7976,6672 7872,6822 7767,6811 7662,6811 7558,6811 7453,6844 7348,6818 7244,6829 7139,6919 7034,6846 6930,6846 6825,6846 6721,6831 6616,6708 6511,6360 6407,6568 6302,6558 6197,6558 6093,6558 5988,6499 5883,6656 5779,6608 5674,6661 5569,6712 5465,6712 5360,6712 5255,6245 5151,6251 5046,6359 4941,6378 4837,6691 4732,6691 4627,6691 4523,6714 4418,6693 4313,6862 4209,7302 4104,7374 4000,7374 3895,7374 3790,7578 3686,7755 3581,6798 3476,7262 3372,7465 3267,7465 3162,7465 3058,7798 2953,8521 2848,8109 2744,7997 2639,6498 2534,6498 2430,6498 2325,6588 2220,6670 2116,6601 2011,8747 1906,5223 1802,5223 1697,5223 1592,5100 1488,3774 1383,4406 1279,6142 1279,933 Z"/>
 <path fill="none" stroke="rgb(0,0,0)" stroke-width="50" stroke-linejoin="round" d="M 1279,933 L 1383,2669 1488,1880 1592,3711 1697,3997 1802,3997 1906,3997 2011,8036 2116,6142 2220,6066 2325,5994 2430,5928 2534,5928 2639,5928 2744,7712 2848,7694 2953,8039 3058,7316 3162,7015 3267,7015 3372,7015 3476,6677 3581,6273 3686,7412 3790,7195 3895,7014 4000,7014 4104,7014 4209,6923 4313,6459 4418,6287 4523,6252 4627,6223 4732,6223 4837,6223 4941,5843 5046,5708 5151,5623 5255,5597 5360,6078 5465,6078 5569,6078 5674,6017 5779,5927 5883,5986 5988,5826 6093,5869 6197,5869 6302,5869 6407,5804 6511,5592 6616,5996 6721,6149 6825,6164 6930,6164 7034,6164 7139,6209 7244,6116 7348,6121 7453,6099 7558,6075 7662,6075 7767,6075 7872,6038 7976,5900 8081,5877 8186,5926 8290,5920 8395,5920 8500,5920 8604,5897 8709,5734 8814,5744 8918,5760 9022,5722 9127,5722 9231,5722 9336,5669 9441,5738 9545,5708 9650,5714 9754,5644 9859,5644 9964,5644 10068,5640 10173,5632 10278,5610 10382,5611 10487,5541 10592,5541 10696,5541 10801,5570 10906,5538 11010,5559 11115,5545 11220,5591 11324,5591 11429,5591 11534,5624 11638,5683 11743,5028 11848,5019 11952,5021 12057,5021 12162,5021 12266,5092 12371,5161 12475,5165 12580,5178 12685,5205 12789,5205 12894,5205 12999,5267 13103,5299 13208,5316 13313,5342 13417,5363 13522,5363 13627,5363 13731,5383 13836,5403 13941,5387 14045,5377 14150,5390 14255,5390 14359,5390 14464,5421 14569,5443 14673,5427 14778,5426 14883,5427 14987,5427 15092,5427 15197,5449 15197,6536 15092,6509 14987,6509 14883,6509 14778,6498 14673,6508 14569,6529 14464,6515 14359,6474 14255,6474 14150,6474 14045,6466 13941,6480 13836,6495 13731,6479 13627,6462 13522,6462 13417,6462 13313,6437 13208,6418 13103,6392 12999,6344 12894,6280 12789,6280 12685,6280 12580,6249 12475,6238 12371,6229 12266,6156 12162,6060 12057,6060 11952,6060 11848,6069 11743,6061 11638,6816 11534,6772 11429,6714 11324,6714 11220,6714 11115,6658 11010,6673 10906,6648 10801,6684 10696,6611 10592,6611 10487,6611 10382,6680 10278,6670 10173,6684 10068,6670 9964,6640 9859,6640 9754,6640 9650,6733 9545,6720 9441,6709 9336,6637 9231,6655 9127,6655 9022,6655 8918,6697 8814,6634 8709,6589 8604,6753 8500,6718 8395,6718 8290,6718 8186,6714 8081,6674 7976,6672 7872,6822 7767,6811 7662,6811 7558,6811 7453,6844 7348,6818 7244,6829 7139,6919 7034,6846 6930,6846 6825,6846 6721,6831 6616,6708 6511,6360 6407,6568 6302,6558 6197,6558 6093,6558 5988,6499 5883,6656 5779,6608 5674,6661 5569,6712 5465,6712 5360,6712 5255,6245 5151,6251 5046,6359 4941,6378 4837,6691 4732,6691 4627,6691 4523,6714 4418,6693 4313,6862 4209,7302 4104,7374 4000,7374 3895,7374 3790,7578 3686,7755 3581,6798 3476,7262 3372,7465 3267,7465 3162,7465 3058,7798 2953,8521 2848,8109 2744,7997 2639,6498 2534,6498 2430,6498 2325,6588 2220,6670 2116,6601 2011,8747 1906,5223 1802,5223 1697,5223 1592,5100 1488,3774 1383,4406 1279,6142 1279,933 Z"/>
 <path fill="rgb(183,179,202)" stroke="none" d="M 1279,933 L 1383,2669 1488,1880 1592,3711 1697,3997 1802,3997 1906,3997 2011,2826 2116,2771 2220,2744 2325,2718 2430,2787 2534,2787 2639,2787 2744,2288 2848,2450 2953,3462 3058,2679 3162,2678 3267,2678 3372,2678 3476,2880 3581,2814 3686,2302 3790,2245 3895,2369 4000,2369 4104,2369 4209,2637 4313,2626 4418,2788 4523,2909 4627,2966 4732,2966 4837,2966 4941,2994 5046,3088 5151,3147 5255,3245 5360,2940 5465,2940 5569,2940 5674,3162 5779,3263 5883,3398 5988,3383 6093,3515 6197,3515 6302,3515 6407,3618 6511,3623 6616,4287 6721,4106 6825,4210 6930,4210 7034,4210 7139,4248 7244,4346 7348,4340 7453,4373 7558,4419 7662,4419 7767,4419 7872,4482 7976,4443 8081,4497 8186,4466 8290,4505 8395,4505 8500,4505 8604,4534 8709,4459 8814,4492 8918,4543 9022,4436 9127,4436 9231,4436 9336,4412 9441,4494 9545,4495 9650,4522 9754,4487 9859,4487 9964,4487 10068,4491 10173,4503 10278,4507 10382,4509 10487,4467 10592,4467 10696,4467 10801,4491 10906,4479 11010,4514 11115,4515 11220,4557 11324,4557 11429,4557 11534,4590 11638,4661 11743,4151 11848,4150 11952,4154 12057,4154 12162,4154 12266,4190 12371,4272 12475,4276 12580,4287 12685,4317 12789,4317 12894,4317 12999,4353 13103,4393 13208,4403 13313,4429 13417,4458 13522,4458 13627,4458 13731,4479 13836,4519 13941,4511 14045,4504 14150,4514 14255,4514 14359,4514 14464,4544 14569,4577 14673,4568 14778,4574 14883,4582 14987,4582 15092,4582 15197,4602 15197,5449 15092,5427 14987,5427 14883,5427 14778,5426 14673,5427 14569,5443 14464,5421 14359,5390 14255,5390 14150,5390 14045,5377 13941,5387 13836,5403 13731,5383 13627,5363 13522,5363 13417,5363 13313,5342 13208,5316 13103,5299 12999,5267 12894,5205 12789,5205 12685,5205 12580,5178 12475,5165 12371,5161 12266,5092 12162,5021 12057,5021 11952,5021 11848,5019 11743,5028 11638,5683 11534,5624 11429,5591 11324,5591 11220,5591 11115,5545 11010,5559 10906,5538 10801,5570 10696,5541 10592,5541 10487,5541 10382,5611 10278,5610 10173,5632 10068,5640 9964,5644 9859,5644 9754,5644 9650,5714 9545,5708 9441,5738 9336,5669 9231,5722 9127,5722 9022,5722 8918,5760 8814,5744 8709,5734 8604,5897 8500,5920 8395,5920 8290,5920 8186,5926 8081,5877 7976,5900 7872,6038 7767,6075 7662,6075 7558,6075 7453,6099 7348,6121 7244,6116 7139,6209 7034,6164 6930,6164 6825,6164 6721,6149 6616,5996 6511,5592 6407,5804 6302,5869 6197,5869 6093,5869 5988,5826 5883,5986 5779,5927 5674,6017 5569,6078 5465,6078 5360,6078 5255,5597 5151,5623 5046,5708 4941,5843 4837,6223 4732,6223 4627,6223 4523,6252 4418,6287 4313,6459 4209,6923 4104,7014 4000,7014 3895,7014 3790,7195 3686,7412 3581,6273 3476,6677 3372,7015 3267,7015 3162,7015 3058,7316 2953,8039 2848,7694 2744,7712 2639,5928 2534,5928 2430,5928 2325,5994 2220,6066 2116,6142 2011,8036 1906,3997 1802,3997 1697,3997 1592,3711 1488,1880 1383,2669 1279,933 Z"/>
 <path fill="none" stroke="rgb(0,0,0)" stroke-width="50" stroke-linejoin="round" d="M 1279,933 L 1383,2669 1488,1880 1592,3711 1697,3997 1802,3997 1906,3997 2011,2826 2116,2771 2220,2744 2325,2718 2430,2787 2534,2787 2639,2787 2744,2288 2848,2450 2953,3462 3058,2679 3162,2678 3267,2678 3372,2678 3476,2880 3581,2814 3686,2302 3790,2245 3895,2369 4000,2369 4104,2369 4209,2637 4313,2626 4418,2788 4523,2909 4627,2966 4732,2966 4837,2966 4941,2994 5046,3088 5151,3147 5255,3245 5360,2940 5465,2940 5569,2940 5674,3162 5779,3263 5883,3398 5988,3383 6093,3515 6197,3515 6302,3515 6407,3618 6511,3623 6616,4287 6721,4106 6825,4210 6930,4210 7034,4210 7139,4248 7244,4346 7348,4340 7453,4373 7558,4419 7662,4419 7767,4419 7872,4482 7976,4443 8081,4497 8186,4466 8290,4505 8395,4505 8500,4505 8604,4534 8709,4459 8814,4492 8918,4543 9022,4436 9127,4436 9231,4436 9336,4412 9441,4494 9545,4495 9650,4522 9754,4487 9859,4487 9964,4487 10068,4491 10173,4503 10278,4507 10382,4509 10487,4467 10592,4467 10696,4467 10801,4491 10906,4479 11010,4514 11115,4515 11220,4557 11324,4557 11429,4557 11534,4590 11638,4661 11743,4151 11848,4150 11952,4154 12057,4154 12162,4154 12266,4190 12371,4272 12475,4276 12580,4287 12685,4317 12789,4317 12894,4317 12999,4353 13103,4393 13208,4403 13313,4429 13417,4458 13522,4458 13627,4458 13731,4479 13836,4519 13941,4511 14045,4504 14150,4514 14255,4514 14359,4514 14464,4544 14569,4577 14673,4568 14778,4574 14883,4582 14987,4582 15092,4582 15197,4602 15197,5449 15092,5427 14987,5427 14883,5427 14778,5426 14673,5427 14569,5443 14464,5421 14359,5390 14255,5390 14150,5390 14045,5377 13941,5387 13836,5403 13731,5383 13627,5363 13522,5363 13417,5363 13313,5342 13208,5316 13103,5299 12999,5267 12894,5205 12789,5205 12685,5205 12580,5178 12475,5165 12371,5161 12266,5092 12162,5021 12057,5021 11952,5021 11848,5019 11743,5028 11638,5683 11534,5624 11429,5591 11324,5591 11220,5591 11115,5545 11010,5559 10906,5538 10801,5570 10696,5541 10592,5541 10487,5541 10382,5611 10278,5610 10173,5632 10068,5640 9964,5644 9859,5644 9754,5644 9650,5714 9545,5708 9441,5738 9336,5669 9231,5722 9127,5722 9022,5722 8918,5760 8814,5744 8709,5734 8604,5897 8500,5920 8395,5920 8290,5920 8186,5926 8081,5877 7976,5900 7872,6038 7767,6075 7662,6075 7558,6075 7453,6099 7348,6121 7244,6116 7139,6209 7034,6164 6930,6164 6825,6164 6721,6149 6616,5996 6511,5592 6407,5804 6302,5869 6197,5869 6093,5869 5988,5826 5883,5986 5779,5927 5674,6017 5569,6078 5465,6078 5360,6078 5255,5597 5151,5623 5046,5708 4941,5843 4837,6223 4732,6223 4627,6223 4523,6252 4418,6287 4313,6459 4209,6923 4104,7014 4000,7014 3895,7014 3790,7195 3686,7412 3581,6273 3476,6677 3372,7015 3267,7015 3162,7015 3058,7316 2953,8039 2848,7694 2744,7712 2639,5928 2534,5928 2430,5928 2325,5994 2220,6066 2116,6142 2011,8036 1906,3997 1802,3997 1697,3997 1592,3711 1488,1880 1383,2669 1279,933 Z"/>
 <path fill="rgb(114,159,207)" stroke="none" d="M 1279,933 L 1383,933 1488,933 1592,2321 1697,2158 1802,2158 1906,2158 2011,1880 2116,2158 2220,2140 2325,2123 2430,2216 2534,2216 2639,2216 2744,1932 2848,2036 2953,2920 3058,2136 3162,2171 3267,2171 3372,2171 3476,2393 3581,2333 3686,1903 3790,1890 3895,1959 4000,1959 4104,1959 4209,2187 4313,2181 4418,2382 4523,2391 4627,2444 4732,2444 4837,2444 4941,2490 5046,2509 5151,2600 5255,2699 5360,2464 5465,2464 5569,2464 5674,2662 5779,2716 5883,2805 5988,2823 6093,2865 6197,2865 6302,2865 6407,3000 6511,3040 6616,3723 6721,3573 6825,3665 6930,3665 7034,3665 7139,3702 7244,3841 7348,3807 7453,3826 7558,3861 7662,3861 7767,3861 7872,3944 7976,3912 8081,3978 8186,3954 8290,3992 8395,3992 8500,3992 8604,4028 8709,3970 8814,3985 8918,4037 9022,3947 9127,3947 9231,3947 9336,3941 9441,4026 9545,4014 9650,4033 9754,4006 9859,4006 9964,4006 10068,4019 10173,4045 10278,4035 10382,4036 10487,3995 10592,3995 10696,3995 10801,4027 10906,4017 11010,4043 11115,4039 11220,4081 11324,4081 11429,4081 11534,4125 11638,4187 11743,3695 11848,3692 11952,3700 12057,3700 12162,3700 12266,3737 12371,3810 12475,3797 12580,3811 12685,3827 12789,3827 12894,3827 12999,3869 13103,3904 13208,3886 13313,3909 13417,3918 13522,3918 13627,3918 13731,3944 13836,3969 13941,3957 14045,3945 14150,3959 14255,3959 14359,3959 14464,3982 14569,4005 14673,3990 14778,3991 14883,3991 14987,3991 15092,3991 15197,4014 15197,4602 15092,4582 14987,4582 14883,4582 14778,4574 14673,4568 14569,4577 14464,4544 14359,4514 14255,4514 14150,4514 14045,4504 13941,4511 13836,4519 13731,4479 13627,4458 13522,4458 13417,4458 13313,4429 13208,4403 13103,4393 12999,4353 12894,4317 12789,4317 12685,4317 12580,4287 12475,4276 12371,4272 12266,4190 12162,4154 12057,4154 11952,4154 11848,4150 11743,4151 11638,4661 11534,4590 11429,4557 11324,4557 11220,4557 11115,4515 11010,4514 10906,4479 10801,4491 10696,4467 10592,4467 10487,4467 10382,4509 10278,4507 10173,4503 10068,4491 9964,4487 9859,4487 9754,4487 9650,4522 9545,4495 9441,4494 9336,4412 9231,4436 9127,4436 9022,4436 8918,4543 8814,4492 8709,4459 8604,4534 8500,4505 8395,4505 8290,4505 8186,4466 8081,4497 7976,4443 7872,4482 7767,4419 7662,4419 7558,4419 7453,4373 7348,4340 7244,4346 7139,4248 7034,4210 6930,4210 6825,4210 6721,4106 6616,4287 6511,3623 6407,3618 6302,3515 6197,3515 6093,3515 5988,3383 5883,3398 5779,3263 5674,3162 5569,2940 5465,2940 5360,2940 5255,3245 5151,3147 5046,3088 4941,2994 4837,2966 4732,2966 4627,2966 4523,2909 4418,2788 4313,2626 4209,2637 4104,2369 4000,2369 3895,2369 3790,2245 3686,2302 3581,2814 3476,2880 3372,2678 3267,2678 3162,2678 3058,2679 2953,3462 2848,2450 2744,2288 2639,2787 2534,2787 2430,2787 2325,2718 2220,2744 2116,2771 2011,2826 1906,3997 1802,3997 1697,3997 1592,3711 1488,1880 1383,2669 1279,933 Z"/>
 <path fill="none" stroke="rgb(0,0,0)" stroke-width="50" stroke-linejoin="round" d="M 1279,933 L 1383,933 1488,933 1592,2321 1697,2158 1802,2158 1906,2158 2011,1880 2116,2158 2220,2140 2325,2123 2430,2216 2534,2216 2639,2216 2744,1932 2848,2036 2953,2920 3058,2136 3162,2171 3267,2171 3372,2171 3476,2393 3581,2333 3686,1903 3790,1890 3895,1959 4000,1959 4104,1959 4209,2187 4313,2181 4418,2382 4523,2391 4627,2444 4732,2444 4837,2444 4941,2490 5046,2509 5151,2600 5255,2699 5360,2464 5465,2464 5569,2464 5674,2662 5779,2716 5883,2805 5988,2823 6093,2865 6197,2865 6302,2865 6407,3000 6511,3040 6616,3723 6721,3573 6825,3665 6930,3665 7034,3665 7139,3702 7244,3841 7348,3807 7453,3826 7558,3861 7662,3861 7767,3861 7872,3944 7976,3912 8081,3978 8186,3954 8290,3992 8395,3992 8500,3992 8604,4028 8709,3970 8814,3985 8918,4037 9022,3947 9127,3947 9231,3947 9336,3941 9441,4026 9545,4014 9650,4033 9754,4006 9859,4006 9964,4006 10068,4019 10173,4045 10278,4035 10382,4036 10487,3995 10592,3995 10696,3995 10801,4027 10906,4017 11010,4043 11115,4039 11220,4081 11324,4081 11429,4081 11534,4125 11638,4187 11743,3695 11848,3692 11952,3700 12057,3700 12162,3700 12266,3737 12371,3810 12475,3797 12580,3811 12685,3827 12789,3827 12894,3827 12999,3869 13103,3904 13208,3886 13313,3909 13417,3918 13522,3918 13627,3918 13731,3944 13836,3969 13941,3957 14045,3945 14150,3959 14255,3959 14359,3959 14464,3982 14569,4005 14673,3990 14778,3991 14883,3991 14987,3991 15092,3991 15197,4014 15197,4602 15092,4582 14987,4582 14883,4582 14778,4574 14673,4568 14569,4577 14464,4544 14359,4514 14255,4514 14150,4514 14045,4504 13941,4511 13836,4519 13731,4479 13627,4458 13522,4458 13417,4458 13313,4429 13208,4403 13103,4393 12999,4353 12894,4317 12789,4317 12685,4317 12580,4287 12475,4276 12371,4272 12266,4190 12162,4154 12057,4154 11952,4154 11848,4150 11743,4151 11638,4661 11534,4590 11429,4557 11324,4557 11220,4557 11115,4515 11010,4514 10906,4479 10801,4491 10696,4467 10592,4467 10487,4467 10382,4509 10278,4507 10173,4503 10068,4491 9964,4487 9859,4487 9754,4487 9650,4522 9545,4495 9441,4494 9336,4412 9231,4436 9127,4436 9022,4436 8918,4543 8814,4492 8709,4459 8604,4534 8500,4505 8395,4505 8290,4505 8186,4466 8081,4497 7976,4443 7872,4482 7767,4419 7662,4419 7558,4419 7453,4373 7348,4340 7244,4346 7139,4248 7034,4210 6930,4210 6825,4210 6721,4106 6616,4287 6511,3623 6407,3618 6302,3515 6197,3515 6093,3515 5988,3383 5883,3398 5779,3263 5674,3162 5569,2940 5465,2940 5360,2940 5255,3245 5151,3147 5046,3088 4941,2994 4837,2966 4732,2966 4627,2966 4523,2909 4418,2788 4313,2626 4209,2637 4104,2369 4000,2369 3895,2369 3790,2245 3686,2302 3581,2814 3476,2880 3372,2678 3267,2678 3162,2678 3058,2679 2953,3462 2848,2450 2744,2288 2639,2787 2534,2787 2430,2787 2325,2718 2220,2744 2116,2771 2011,2826 1906,3997 1802,3997 1697,3997 1592,3711 1488,1880 1383,2669 1279,933 Z"/>
 <path fill="rgb(232,242,161)" stroke="none" d="M 1279,933 L 1383,933 1488,933 1592,1627 1697,1546 1802,1546 1906,1546 2011,1643 2116,2004 2220,1990 2325,1975 2430,2074 2534,2074 2639,2074 2744,1860 2848,1968 2953,2136 3058,2136 3162,2171 3267,2171 3372,2171 3476,2393 3581,2333 3686,1903 3790,1890 3895,1934 4000,1934 4104,1934 4209,2163 4313,2139 4418,2150 4523,2151 4627,2210 4732,2210 4837,2210 4941,2285 5046,2321 5151,2422 5255,2517 5360,2316 5465,2316 5569,2316 5674,2527 5779,2573 5883,2622 5988,2651 6093,2699 6197,2699 6302,2699 6407,2845 6511,2841 6616,2692 6721,2627 6825,2740 6930,2740 7034,2740 7139,2837 7244,2753 7348,2770 7453,2809 7558,2848 7662,2848 7767,2848 7872,2957 7976,2949 8081,2995 8186,3004 8290,3056 8395,3056 8500,3056 8604,3121 8709,3096 8814,3127 8918,3131 9022,3087 9127,3087 9231,3087 9336,3117 9441,3135 9545,3162 9650,3203 9754,3200 9859,3200 9964,3200 10068,3231 10173,3213 10278,3225 10382,3244 10487,3227 10592,3227 10696,3227 10801,3282 10906,3289 11010,3310 11115,3323 11220,3359 11324,3359 11429,3359 11534,3435 11638,3451 11743,3082 11848,3101 11952,3117 12057,3117 12162,3117 12266,3175 12371,3202 12475,3205 12580,3235 12685,3256 12789,3256 12894,3256 12999,3317 13103,3303 13208,3301 13313,3332 13417,3351 13522,3351 13627,3351 13731,3393 13836,3367 13941,3369 14045,3365 14150,3380 14255,3380 14359,3380 14464,3416 14569,3402 14673,3396 14778,3401 14883,3405 14987,3405 15092,3405 15197,3438 15197,4014 15092,3991 14987,3991 14883,3991 14778,3991 14673,3990 14569,4005 14464,3982 14359,3959 14255,3959 14150,3959 14045,3945 13941,3957 13836,3969 13731,3944 13627,3918 13522,3918 13417,3918 13313,3909 13208,3886 13103,3904 12999,3869 12894,3827 12789,3827 12685,3827 12580,3811 12475,3797 12371,3810 12266,3737 12162,3700 12057,3700 11952,3700 11848,3692 11743,3695 11638,4187 11534,4125 11429,4081 11324,4081 11220,4081 11115,4039 11010,4043 10906,4017 10801,4027 10696,3995 10592,3995 10487,3995 10382,4036 10278,4035 10173,4045 10068,4019 9964,4006 9859,4006 9754,4006 9650,4033 9545,4014 9441,4026 9336,3941 9231,3947 9127,3947 9022,3947 8918,4037 8814,3985 8709,3970 8604,4028 8500,3992 8395,3992 8290,3992 8186,3954 8081,3978 7976,3912 7872,3944 7767,3861 7662,3861 7558,3861 7453,3826 7348,3807 7244,3841 7139,3702 7034,3665 6930,3665 6825,3665 6721,3573 6616,3723 6511,3040 6407,3000 6302,2865 6197,2865 6093,2865 5988,2823 5883,2805 5779,2716 5674,2662 5569,2464 5465,2464 5360,2464 5255,2699 5151,2600 5046,2509 4941,2490 4837,2444 4732,2444 4627,2444 4523,2391 4418,2382 4313,2181 4209,2187 4104,1959 4000,1959 3895,1959 3790,1890 3686,1903 3581,2333 3476,2393 3372,2171 3267,2171 3162,2171 3058,2136 2953,2920 2848,2036 2744,1932 2639,2216 2534,2216 2430,2216 2325,2123 2220,2140 2116,2158 2011,1880 1906,2158 1802,2158 1697,2158 1592,2321 1488,933 1383,933 1279,933 Z"/>
 <path fill="none" stroke="rgb(0,0,0)" stroke-width="50" stroke-linejoin="round" d="M 1279,933 L 1383,933 1488,933 1592,1627 1697,1546 1802,1546 1906,1546 2011,1643 2116,2004 2220,1990 2325,1975 2430,2074 2534,2074 2639,2074 2744,1860 2848,1968 2953,2136 3058,2136 3162,2171 3267,2171 3372,2171 3476,2393 3581,2333 3686,1903 3790,1890 3895,1934 4000,1934 4104,1934 4209,2163 4313,2139 4418,2150 4523,2151 4627,2210 4732,2210 4837,2210 4941,2285 5046,2321 5151,2422 5255,2517 5360,2316 5465,2316 5569,2316 5674,2527 5779,2573 5883,2622 5988,2651 6093,2699 6197,2699 6302,2699 6407,2845 6511,2841 6616,2692 6721,2627 6825,2740 6930,2740 7034,2740 7139,2837 7244,2753 7348,2770 7453,2809 7558,2848 7662,2848 7767,2848 7872,2957 7976,2949 8081,2995 8186,3004 8290,3056 8395,3056 8500,3056 8604,3121 8709,3096 8814,3127 8918,3131 9022,3087 9127,3087 9231,3087 9336,3117 9441,3135 9545,3162 9650,3203 9754,3200 9859,3200 9964,3200 10068,3231 10173,3213 10278,3225 10382,3244 10487,3227 10592,3227 10696,3227 10801,3282 10906,3289 11010,3310 11115,3323 11220,3359 11324,3359 11429,3359 11534,3435 11638,3451 11743,3082 11848,3101 11952,3117 12057,3117 12162,3117 12266,3175 12371,3202 12475,3205 12580,3235 12685,3256 12789,3256 12894,3256 12999,3317 13103,3303 13208,3301 13313,3332 13417,3351 13522,3351 13627,3351 13731,3393 13836,3367 13941,3369 14045,3365 14150,3380 14255,3380 14359,3380 14464,3416 14569,3402 14673,3396 14778,3401 14883,3405 14987,3405 15092,3405 15197,3438 15197,4014 15092,3991 14987,3991 14883,3991 14778,3991 14673,3990 14569,4005 14464,3982 14359,3959 14255,3959 14150,3959 14045,3945 13941,3957 13836,3969 13731,3944 13627,3918 13522,3918 13417,3918 13313,3909 13208,3886 13103,3904 12999,3869 12894,3827 12789,3827 12685,3827 12580,3811 12475,3797 12371,3810 12266,3737 12162,3700 12057,3700 11952,3700 11848,3692 11743,3695 11638,4187 11534,4125 11429,4081 11324,4081 11220,4081 11115,4039 11010,4043 10906,4017 10801,4027 10696,3995 10592,3995 10487,3995 10382,4036 10278,4035 10173,4045 10068,4019 9964,4006 9859,4006 9754,4006 9650,4033 9545,4014 9441,4026 9336,3941 9231,3947 9127,3947 9022,3947 8918,4037 8814,3985 8709,3970 8604,4028 8500,3992 8395,3992 8290,3992 8186,3954 8081,3978 7976,3912 7872,3944 7767,3861 7662,3861 7558,3861 7453,3826 7348,3807 7244,3841 7139,3702 7034,3665 6930,3665 6825,3665 6721,3573 6616,3723 6511,3040 6407,3000 6302,2865 6197,2865 6093,2865 5988,2823 5883,2805 5779,2716 5674,2662 5569,2464 5465,2464 5360,2464 5255,2699 5151,2600 5046,2509 4941,2490 4837,2444 4732,2444 4627,2444 4523,2391 4418,2382 4313,2181 4209,2187 4104,1959 4000,1959 3895,1959 3790,1890 3686,1903 3581,2333 3476,2393 3372,2171 3267,2171 3162,2171 3058,2136 2953,2920 2848,2036 2744,1932 2639,2216 2534,2216 2430,2216 2325,2123 2220,2140 2116,2158 2011,1880 1906,2158 1802,2158 1697,2158 1592,2321 1488,933 1383,933 1279,933 Z"/>
 <path fill="rgb(174,207,0)" stroke="none" d="M 1279,933 L 1383,933 1488,933 1592,933 1697,933 1802,933 1906,933 2011,933 2116,933 2220,933 2325,933 2430,933 2534,933 2639,933 2744,933 2848,933 2953,933 3058,933 3162,933 3267,933 3372,933 3476,933 3581,933 3686,933 3790,933 3895,933 4000,933 4104,933 4313,933 4418,933 4523,933 4627,933 4732,933 4837,933 4941,933 5151,933 5255,933 5360,933 5465,933 5569,933 5674,933 5779,933 5883,933 5988,933 6093,933 6197,933 6302,933 6407,933 6511,933 6616,933 6721,933 7139,933 7244,933 7348,933 7453,933 7558,933 7662,933 7767,933 7872,933 7976,933 8081,933 8186,933 8290,933 8395,933 8500,933 8604,933 8709,933 8814,933 8918,933 9022,933 9127,933 9231,933 9336,933 9441,933 9545,933 9650,933 9754,933 9859,933 9964,933 10068,933 10173,933 10278,933 10382,933 10487,933 10592,933 10696,933 10801,933 10906,933 11010,933 11115,933 11220,933 11324,933 11429,933 11534,933 11638,933 11743,933 11848,933 11952,933 12057,933 12162,933 12214,933 12371,933 12475,933 12580,933 12685,933 12789,933 12894,933 12999,933 13103,933 13208,933 13313,933 13417,933 13522,933 13627,933 13801,933 13836,933 13941,933 14045,933 14150,933 14255,933 14359,933 14464,933 14569,933 14673,933 14778,933 14883,933 14987,933 15092,933 15197,933 15197,3438 15092,3405 14987,3405 14883,3405 14778,3401 14673,3396 14569,3402 14464,3416 14359,3380 14255,3380 14150,3380 14045,3365 13941,3369 13836,3367 13731,3393 13627,3351 13522,3351 13417,3351 13313,3332 13208,3301 13103,3303 12999,3317 12894,3256 12789,3256 12685,3256 12580,3235 12475,3205 12371,3202 12266,3175 12162,3117 12057,3117 11952,3117 11848,3101 11743,3082 11638,3451 11534,3435 11429,3359 11324,3359 11220,3359 11115,3323 11010,3310 10906,3289 10801,3282 10696,3227 10592,3227 10487,3227 10382,3244 10278,3225 10173,3213 10068,3231 9964,3200 9859,3200 9754,3200 9650,3203 9545,3162 9441,3135 9336,3117 9231,3087 9127,3087 9022,3087 8918,3131 8814,3127 8709,3096 8604,3121 8500,3056 8395,3056 8290,3056 8186,3004 8081,2995 7976,2949 7872,2957 7767,2848 7662,2848 7558,2848 7453,2809 7348,2770 7244,2753 7139,2837 7034,2740 6930,2740 6825,2740 6721,2627 6616,2692 6511,2841 6407,2845 6302,2699 6197,2699 6093,2699 5988,2651 5883,2622 5779,2573 5674,2527 5569,2316 5465,2316 5360,2316 5255,2517 5151,2422 5046,2321 4941,2285 4837,2210 4732,2210 4627,2210 4523,2151 4418,2150 4313,2139 4209,2163 4104,1934 4000,1934 3895,1934 3790,1890 3686,1903 3581,2333 3476,2393 3372,2171 3267,2171 3162,2171 3058,2136 2953,2136 2848,1968 2744,1860 2639,2074 2534,2074 2430,2074 2325,1975 2220,1990 2116,2004 2011,1643 1906,1546 1802,1546 1697,1546 1592,1627 1488,933 1383,933 1279,933 Z"/>
 <path fill="none" stroke="rgb(0,0,0)" stroke-width="50" stroke-linejoin="round" d="M 1279,933 L 1383,933 1488,933 1592,933 1697,933 1802,933 1906,933 2011,933 2116,933 2220,933 2325,933 2430,933 2534,933 2639,933 2744,933 2848,933 2953,933 3058,933 3162,933 3267,933 3372,933 3476,933 3581,933 3686,933 3790,933 3895,933 4000,933 4104,933 4313,933 4418,933 4523,933 4627,933 4732,933 4837,933 4941,933 5151,933 5255,933 5360,933 5465,933 5569,933 5674,933 5779,933 5883,933 5988,933 6093,933 6197,933 6302,933 6407,933 6511,933 6616,933 6721,933 7139,933 7244,933 7348,933 7453,933 7558,933 7662,933 7767,933 7872,933 7976,933 8081,933 8186,933 8290,933 8395,933 8500,933 8604,933 8709,933 8814,933 8918,933 9022,933 9127,933 9231,933 9336,933 9441,933 9545,933 9650,933 9754,933 9859,933 9964,933 10068,933 10173,933 10278,933 10382,933 10487,933 10592,933 10696,933 10801,933 10906,933 11010,933 11115,933 11220,933 11324,933 11429,933 11534,933 11638,933 11743,933 11848,933 11952,933 12057,933 12162,933 12214,933 12371,933 12475,933 12580,933 12685,933 12789,933 12894,933 12999,933 13103,933 13208,933 13313,933 13417,933 13522,933 13627,933 13801,933 13836,933 13941,933 14045,933 14150,933 14255,933 14359,933 14464,933 14569,933 14673,933 14778,933 14883,933 14987,933 15092,933 15197,933 15197,3438 15092,3405 14987,3405 14883,3405 14778,3401 14673,3396 14569,3402 14464,3416 14359,3380 14255,3380 14150,3380 14045,3365 13941,3369 13836,3367 13731,3393 13627,3351 13522,3351 13417,3351 13313,3332 13208,3301 13103,3303 12999,3317 12894,3256 12789,3256 12685,3256 12580,3235 12475,3205 12371,3202 12266,3175 12162,3117 12057,3117 11952,3117 11848,3101 11743,3082 11638,3451 11534,3435 11429,3359 11324,3359 11220,3359 11115,3323 11010,3310 10906,3289 10801,3282 10696,3227 10592,3227 10487,3227 10382,3244 10278,3225 10173,3213 10068,3231 9964,3200 9859,3200 9754,3200 9650,3203 9545,3162 9441,3135 9336,3117 9231,3087 9127,3087 9022,3087 8918,3131 8814,3127 8709,3096 8604,3121 8500,3056 8395,3056 8290,3056 8186,3004 8081,2995 7976,2949 7872,2957 7767,2848 7662,2848 7558,2848 7453,2809 7348,2770 7244,2753 7139,2837 7034,2740 6930,2740 6825,2740 6721,2627 6616,2692 6511,2841 6407,2845 6302,2699 6197,2699 6093,2699 5988,2651 5883,2622 5779,2573 5674,2527 5569,2316 5465,2316 5360,2316 5255,2517 5151,2422 5046,2321 4941,2285 4837,2210 4732,2210 4627,2210 4523,2151 4418,2150 4313,2139 4209,2163 4104,1934 4000,1934 3895,1934 3790,1890 3686,1903 3581,2333 3476,2393 3372,2171 3267,2171 3162,2171 3058,2136 2953,2136 2848,1968 2744,1860 2639,2074 2534,2074 2430,2074 2325,1975 2220,1990 2116,2004 2011,1643 1906,1546 1802,1546 1697,1546 1592,1627 1488,933 1383,933 1279,933 Z"/>
 <text class="TextShape"><tspan class="TextParagraph" font-family="Liberation Sans, sans-serif" font-size="353px" font-weight="400"><tspan class="TextPosition" x="855" y="11920"><tspan fill="rgb(0,0,0)" stroke="none">27/07</tspan></tspan></tspan></text>
 <text class="TextShape"><tspan class="TextParagraph" font-family="Liberation Sans, sans-serif" font-size="353px" font-weight="400"><tspan class="TextPosition" x="4099" y="11920"><tspan fill="rgb(0,0,0)" stroke="none">27/08</tspan></tspan></tspan></text>
 <text class="TextShape"><tspan class="TextParagraph" font-family="Liberation Sans, sans-serif" font-size="353px" font-weight="400"><tspan class="TextPosition" x="7343" y="11920"><tspan fill="rgb(0,0,0)" stroke="none">27/09</tspan></tspan></tspan></text>
 <text class="TextShape"><tspan class="TextParagraph" font-family="Liberation Sans, sans-serif" font-size="353px" font-weight="400"><tspan class="TextPosition" x="10483" y="11920"><tspan fill="rgb(0,0,0)" stroke="none">27/10</tspan></tspan></tspan></text>
 <text class="TextShape"><tspan class="TextParagraph" font-family="Liberation Sans, sans-serif" font-size="353px" font-weight="400"><tspan class="TextPosition" x="13727" y="11920"><tspan fill="rgb(0,0,0)" stroke="none">27/11</tspan></tspan></tspan></text>
 <text class="TextShape"><tspan class="TextParagraph" font-family="Liberation Sans, sans-serif" font-size="353px" font-weight="400"><tspan class="TextPosition" x="526" y="11473"><tspan fill="rgb(0,0,0)" stroke="none">0%</tspan></tspan></tspan></text>
 <text class="TextShape"><tspan class="TextParagraph" font-family="Liberation Sans, sans-serif" font-size="353px" font-weight="400"><tspan class="TextPosition" x="341" y="10430"><tspan fill="rgb(0,0,0)" stroke="none">10%</tspan></tspan></tspan></text>
 <text class="TextShape"><tspan class="TextParagraph" font-family="Liberation Sans, sans-serif" font-size="353px" font-weight="400"><tspan class="TextPosition" x="341" y="9388"><tspan fill="rgb(0,0,0)" stroke="none">20%</tspan></tspan></tspan></text>
 <text class="TextShape"><tspan class="TextParagraph" font-family="Liberation Sans, sans-serif" font-size="353px" font-weight="400"><tspan class="TextPosition" x="341" y="8346"><tspan fill="rgb(0,0,0)" stroke="none">30%</tspan></tspan></tspan></text>
 <text class="TextShape"><tspan class="TextParagraph" font-family="Liberation Sans, sans-serif" font-size="353px" font-weight="400"><tspan class="TextPosition" x="341" y="7305"><tspan fill="rgb(0,0,0)" stroke="none">40%</tspan></tspan></tspan></text>
 <text class="TextShape"><tspan class="TextParagraph" font-family="Liberation Sans, sans-serif" font-size="353px" font-weight="400"><tspan class="TextPosition" x="341" y="6263"><tspan fill="rgb(0,0,0)" stroke="none">50%</tspan></tspan></tspan></text>
 <text class="TextShape"><tspan class="TextParagraph" font-family="Liberation Sans, sans-serif" font-size="353px" font-weight="400"><tspan class="TextPosition" x="341" y="5220"><tspan fill="rgb(0,0,0)" stroke="none">60%</tspan></tspan></tspan></text>
 <text class="TextShape"><tspan class="TextParagraph" font-family="Liberation Sans, sans-serif" font-size="353px" font-weight="400"><tspan class="TextPosition" x="341" y="4178"><tspan fill="rgb(0,0,0)" stroke="none">70%</tspan></tspan></tspan></text>
 <text class="TextShape"><tspan class="TextParagraph" font-family="Liberation Sans, sans-serif" font-size="353px" font-weight="400"><tspan class="TextPosition" x="341" y="3137"><tspan fill="rgb(0,0,0)" stroke="none">80%</tspan></tspan></tspan></text>
 <text class="TextShape"><tspan class="TextParagraph" font-family="Liberation Sans, sans-serif" font-size="353px" font-weight="400"><tspan class="TextPosition" x="341" y="2095"><tspan fill="rgb(0,0,0)" stroke="none">90%</tspan></tspan></tspan></text>
 <text class="TextShape"><tspan class="TextParagraph" font-family="Liberation Sans, sans-serif" font-size="353px" font-weight="400"><tspan class="TextPosition" x="156" y="1053"><tspan fill="rgb(0,0,0)" stroke="none">100%</tspan></tspan></tspan></text>
 <text class="TextShape"><tspan class="TextParagraph" font-family="Liberation Sans, sans-serif" font-size="459px" font-weight="400"><tspan class="TextPosition" x="4508" y="724"><tspan fill="rgb(0,0,0)" stroke="none">Covid-19 (porcentaje de muertes acumuladas)</tspan></tspan></tspan></text>
 <text class="TextShape"><tspan class="TextParagraph" font-family="Arial, sans-serif" font-size="423px" font-weight="400"><tspan class="TextPosition" x="15303" y="8932"><tspan fill="rgb(0,0,0)" stroke="none">Andaluca</tspan></tspan></tspan></text>
 <text class="TextShape"><tspan class="TextParagraph" font-family="Arial, sans-serif" font-size="423px" font-weight="400"><tspan class="TextPosition" x="15346" y="7324"><tspan fill="rgb(0,0,0)" stroke="none">Catalua</tspan></tspan></tspan></text>
 <text class="TextShape"><tspan class="TextParagraph" font-family="Arial, sans-serif" font-size="423px" font-weight="400"><tspan class="TextPosition" x="15346" y="3882"><tspan fill="rgb(0,0,0)" stroke="none">Pas Vasco</tspan></tspan></tspan></text>
 <text class="TextShape"><tspan class="TextParagraph" font-family="Arial, sans-serif" font-size="423px" font-weight="400"><tspan class="TextPosition" x="15303" y="6089"><tspan fill="rgb(0,0,0)" stroke="none">Cast. Len</tspan></tspan></tspan></text>
 <text class="TextShape"><tspan class="TextParagraph" font-family="Arial, sans-serif" font-size="423px" font-weight="400"><tspan class="TextPosition" x="15301" y="4486"><tspan fill="rgb(0,0,0)" stroke="none">C Valenciana</tspan></tspan></tspan></text>
 <text class="TextShape"><tspan class="TextParagraph" font-family="Arial, sans-serif" font-size="423px" font-weight="400"><tspan class="TextPosition" x="15312" y="2427"><tspan fill="rgb(0,0,0)" stroke="none">Resto</tspan></tspan></tspan></text>
 <text class="TextShape"><tspan class="TextParagraph" font-family="Arial, sans-serif" font-size="423px" font-weight="400"><tspan class="TextPosition" x="15347" y="10538"><tspan fill="rgb(0,0,0)" stroke="none">Madrid</tspan></tspan></tspan></text>
 <text class="TextShape"><tspan class="TextParagraph" font-family="Arial, sans-serif" font-size="423px" font-weight="400"><tspan class="TextPosition" x="15303" y="5140"><tspan fill="rgb(0,0,0)" stroke="none">Aragn</tspan></tspan></tspan></text>
</svg>