<?xml version="1.0" encoding="UTF-8"?>
<!DOCTYPE svg PUBLIC "-//W3C//DTD SVG 1.1//EN" "http://www.w3.org/Graphics/SVG/1.1/DTD/svg11.dtd">
<svg width="150mm" height="120mm" viewBox="0 0 15000 12000" version="1.1" xmlns="http://www.w3.org/2000/svg" xmlns:xlink="http://www.w3.org/1999/xlink" stroke-width="28.222" stroke-linejoin="round" xml:space="preserve">
 <path fill="rgb(255,255,255)" stroke="none" d="M 7500,12000 L 0,12000 0,0 15000,0 15000,12000 7500,12000 Z"/>
 <path fill="none" stroke="rgb(0,0,0)" stroke-linejoin="round" d="M 8041,11068 L 1396,11068 1396,1028 14687,1028 14687,11068 8041,11068 Z"/>
 <path fill="none" stroke="rgb(0,0,0)" stroke-linejoin="round" d="M 14686,11067 L 1395,11067"/>
 <path fill="none" stroke="rgb(0,0,0)" stroke-linejoin="round" d="M 14686,9728 L 1395,9728"/>
 <path fill="none" stroke="rgb(0,0,0)" stroke-linejoin="round" d="M 14686,8389 L 1395,8389"/>
 <path fill="none" stroke="rgb(0,0,0)" stroke-linejoin="round" d="M 14686,7050 L 1395,7050"/>
 <path fill="none" stroke="rgb(0,0,0)" stroke-linejoin="round" d="M 14686,5712 L 1395,5712"/>
 <path fill="none" stroke="rgb(0,0,0)" stroke-linejoin="round" d="M 14686,4374 L 1395,4374"/>
 <path fill="none" stroke="rgb(0,0,0)" stroke-linejoin="round" d="M 14686,3035 L 1395,3035"/>
 <path fill="none" stroke="rgb(0,0,0)" stroke-linejoin="round" d="M 14686,1696 L 1395,1696"/>
 <path fill="none" stroke="rgb(0,0,0)" stroke-linejoin="round" d="M 1395,11217 L 1395,11067"/>
 <path fill="none" stroke="rgb(0,0,0)" stroke-linejoin="round" d="M 1395,11217 L 1395,11067"/>
 <path fill="none" stroke="rgb(0,0,0)" stroke-linejoin="round" d="M 2413,11217 L 2413,11067"/>
 <path fill="none" stroke="rgb(0,0,0)" stroke-linejoin="round" d="M 2413,11217 L 2413,11067"/>
 <path fill="none" stroke="rgb(0,0,0)" stroke-linejoin="round" d="M 3500,11217 L 3500,11067"/>
 <path fill="none" stroke="rgb(0,0,0)" stroke-linejoin="round" d="M 3500,11217 L 3500,11067"/>
 <path fill="none" stroke="rgb(0,0,0)" stroke-linejoin="round" d="M 4552,11217 L 4552,11067"/>
 <path fill="none" stroke="rgb(0,0,0)" stroke-linejoin="round" d="M 4552,11217 L 4552,11067"/>
 <path fill="none" stroke="rgb(0,0,0)" stroke-linejoin="round" d="M 5639,11217 L 5639,11067"/>
 <path fill="none" stroke="rgb(0,0,0)" stroke-linejoin="round" d="M 5639,11217 L 5639,11067"/>
 <path fill="none" stroke="rgb(0,0,0)" stroke-linejoin="round" d="M 6691,11217 L 6691,11067"/>
 <path fill="none" stroke="rgb(0,0,0)" stroke-linejoin="round" d="M 6691,11217 L 6691,11067"/>
 <path fill="none" stroke="rgb(0,0,0)" stroke-linejoin="round" d="M 7777,11217 L 7777,11067"/>
 <path fill="none" stroke="rgb(0,0,0)" stroke-linejoin="round" d="M 7777,11217 L 7777,11067"/>
 <path fill="none" stroke="rgb(0,0,0)" stroke-linejoin="round" d="M 8865,11217 L 8865,11067"/>
 <path fill="none" stroke="rgb(0,0,0)" stroke-linejoin="round" d="M 8865,11217 L 8865,11067"/>
 <path fill="none" stroke="rgb(0,0,0)" stroke-linejoin="round" d="M 9917,11217 L 9917,11067"/>
 <path fill="none" stroke="rgb(0,0,0)" stroke-linejoin="round" d="M 9917,11217 L 9917,11067"/>
 <path fill="none" stroke="rgb(0,0,0)" stroke-linejoin="round" d="M 11004,11217 L 11004,11067"/>
 <path fill="none" stroke="rgb(0,0,0)" stroke-linejoin="round" d="M 11004,11217 L 11004,11067"/>
 <path fill="none" stroke="rgb(0,0,0)" stroke-linejoin="round" d="M 12056,11217 L 12056,11067"/>
 <path fill="none" stroke="rgb(0,0,0)" stroke-linejoin="round" d="M 12056,11217 L 12056,11067"/>
 <path fill="none" stroke="rgb(0,0,0)" stroke-linejoin="round" d="M 13143,11217 L 13143,11067"/>
 <path fill="none" stroke="rgb(0,0,0)" stroke-linejoin="round" d="M 13143,11217 L 13143,11067"/>
 <path fill="none" stroke="rgb(0,0,0)" stroke-linejoin="round" d="M 14231,11217 L 14231,11067"/>
 <path fill="none" stroke="rgb(0,0,0)" stroke-linejoin="round" d="M 14231,11217 L 14231,11067"/>
 <path fill="none" stroke="rgb(0,0,0)" stroke-linejoin="round" d="M 1395,11067 L 14686,11067"/>
 <path fill="none" stroke="rgb(0,0,0)" stroke-linejoin="round" d="M 1245,11067 L 1395,11067"/>
 <path fill="none" stroke="rgb(0,0,0)" stroke-linejoin="round" d="M 1245,11067 L 1395,11067"/>
 <path fill="none" stroke="rgb(0,0,0)" stroke-linejoin="round" d="M 1245,9728 L 1395,9728"/>
 <path fill="none" stroke="rgb(0,0,0)" stroke-linejoin="round" d="M 1245,9728 L 1395,9728"/>
 <path fill="none" stroke="rgb(0,0,0)" stroke-linejoin="round" d="M 1245,8389 L 1395,8389"/>
 <path fill="none" stroke="rgb(0,0,0)" stroke-linejoin="round" d="M 1245,8389 L 1395,8389"/>
 <path fill="none" stroke="rgb(0,0,0)" stroke-linejoin="round" d="M 1245,7050 L 1395,7050"/>
 <path fill="none" stroke="rgb(0,0,0)" stroke-linejoin="round" d="M 1245,7050 L 1395,7050"/>
 <path fill="none" stroke="rgb(0,0,0)" stroke-linejoin="round" d="M 1245,5712 L 1395,5712"/>
 <path fill="none" stroke="rgb(0,0,0)" stroke-linejoin="round" d="M 1245,5712 L 1395,5712"/>
 <path fill="none" stroke="rgb(0,0,0)" stroke-linejoin="round" d="M 1245,4374 L 1395,4374"/>
 <path fill="none" stroke="rgb(0,0,0)" stroke-linejoin="round" d="M 1245,4374 L 1395,4374"/>
 <path fill="none" stroke="rgb(0,0,0)" stroke-linejoin="round" d="M 1245,3035 L 1395,3035"/>
 <path fill="none" stroke="rgb(0,0,0)" stroke-linejoin="round" d="M 1245,3035 L 1395,3035"/>
 <path fill="none" stroke="rgb(0,0,0)" stroke-linejoin="round" d="M 1245,1696 L 1395,1696"/>
 <path fill="none" stroke="rgb(0,0,0)" stroke-linejoin="round" d="M 1245,1696 L 1395,1696"/>
 <path fill="none" stroke="rgb(0,0,0)" stroke-linejoin="round" d="M 1395,11067 L 1395,1027"/>
 <path fill="none" stroke="rgb(255,0,0)" stroke-width="100" stroke-linejoin="round" d="M 1395,11066 L 1431,11066 1466,11066 1501,11066 1536,11066 1571,11066 1606,11066 1641,11066 1676,11066 1711,11066 1746,11066 1781,11066 1816,11066 1851,11066 1886,11066 1922,11066 1957,11065 1992,11065 2027,11064 2062,11062 2097,11060 2132,11055 2167,11051 2202,11048 2237,11028 2272,11025 2307,11001 2342,10986 2377,10964 2413,10932 2448,10889 2483,10836 2518,10774 2553,10707 2588,10607 2623,10519 2658,10416 2693,10305 2728,10193 2763,10084 2798,9970 2833,9854 2868,9727 2904,9603 2939,9494 2974,9404 3009,9319 3044,9219 3079,9118 3114,9026 3149,8945 3184,8877 3219,8794 3254,8725 3289,8649 3324,8579 3359,8505 3395,8427 3430,8351 3465,8297 3500,8243 3535,8186 3570,8127 3605,8068 3640,8019 3675,7969 3710,7930 3745,7886 3780,7845 3815,7785 3850,7749 3886,7711 3921,7674 3956,7652 3991,7630 4026,7606 4061,7573 4096,7545 4131,7514 4166,7490 4201,7471 4236,7454 4271,7431 4306,7406 4341,7377 4377,7359 4412,7345 4447,7333 4482,7325 4517,7316 4552,7301 4587,7294 4622,7234 4657,7227 4692,7217 4727,7474 4762,7436 4797,7436 4832,7436 4868,7436 4903,7435 4938,7435 4973,7435 5008,7435 5043,7435 5078,7434 5113,7434 5148,7434 5183,7434 5218,7434 5253,7434 5288,7434 5323,7434 5359,7434 5394,7434 5429,7434 5464,7434 5499,7434 5534,7434 5569,7434 5604,7276 5639,7275 5674,7275 5709,7274 5744,7274 5779,7274 5814,7274 5850,7273 5885,7272 5920,7272 5955,7272 5990,7270 6025,7269 6060,7269 6095,7266 6130,7266 6165,7266 6200,7266 6235,7265 6270,7265 6305,7264 6341,7264 6376,7266 6411,7266 6446,7264 6481,7263 6516,7263 6551,7262 6586,7262 6621,7262 6656,7262 6691,7261 6726,7261 6761,7261 6796,7260 6832,7260 6867,7260 6902,7260 6937,7260 6972,7259 7007,7259 7042,7259 7077,7258 7112,7258 7147,7258 7182,7255 7217,7251 7252,7251 7287,7251 7323,7251 7358,7251 7393,7251 7428,7241 7463,7240 7498,7240 7532,7237 7567,7235 7602,7235 7637,7235 7672,7231 7707,7228 7742,7211 7777,7209 7813,7206 7848,7206 7883,7206 7918,7201 7953,7194 7988,7188 8023,7185 8058,7183 8093,7183 8128,7183 8163,7171 8198,7164 8233,7158 8268,7153 8304,7128 8339,7128 8374,7128 8409,7115 8444,7104 8479,7100 8514,7090 8549,7084 8584,7084 8619,7084 8654,7070 8689,7050 8724,7018 8759,6996 8795,6984 8830,6984 8865,6984 8900,6961 8935,6929 8970,6912 9005,6900 9040,6885 9075,6885 9110,6885 9145,6861 9180,6834 9215,6810 9250,6786 9286,6771 9321,6771 9356,6771 9391,6752 9426,6717 9461,6707 9496,6690 9531,6658 9566,6658 9601,6658 9636,6632 9671,6621 9706,6593 9741,6574 9777,6545 9812,6545 9847,6545 9882,6516 9917,6486 9952,6466 9987,6445 10022,6414 10057,6414 10092,6414 10127,6377 10162,6341 10197,6318 10232,6295 10268,6263 10303,6263 10338,6263 10373,6212 10408,6181 10443,5964 10478,5915 10513,5869 10548,5869 10583,5869 10618,5800 10653,5745 10688,5698 10723,5651 10759,5609 10794,5609 10829,5609 10864,5545 10899,5486 10934,5439 10969,5406 11004,5362 11039,5362 11074,5362 11109,5293 11144,5221 11179,5172 11214,5127 11250,5087 11285,5087 11320,5087 11355,5034 11390,4974 11425,4938 11460,4904 11495,4875 11530,4875 11565,4875 11600,4823 11635,4823 11670,4773 11705,4729 11741,4692 11776,4692 11811,4692 11846,4640 11881,4588 11916,4561 11951,4537 11986,4517 12021,4517 12056,4517 12091,4473 12126,4438 12161,4414 12196,4397 12232,4397 12267,4397 12302,4397 12337,4357 12372,4314 12407,4281 12442,4261 12477,4261 12512,4261 12547,4261 12582,4229 12617,4182 12652,4182 12687,4149 12723,4123 12758,4123 12793,4123 12828,4069 12863,4014 12898,3988 12933,3961 12968,3930 13003,3930 13038,3930 13073,3869 13108,3815 13143,3753 13178,3699 13214,3645 13249,3645 13284,3645 13319,3542 13354,3463 13389,3397 13424,3328 13459,3260 13494,3260 13529,3260 13564,3158 13599,3061 13634,2985 13669,2927 13705,2849 13740,2849 13775,2849 13810,2727 13845,2625 13880,2539 13915,2470 13950,2399 13985,2399 14020,2399 14055,2305 14090,2234 14125,2189 14160,2137 14196,2084 14231,2084 14266,2084 14301,2012 14336,1953 14371,1901 14406,1855 14441,1811 14476,1811 14511,1811 14546,1748 14581,1723 14616,1663 14651,1629 14686,1544"/>
 <text class="TextShape"><tspan class="TextParagraph" font-family="Liberation Sans, sans-serif" font-size="353px" font-weight="400"><tspan class="TextPosition" x="971" y="11635"><tspan fill="rgb(0,0,0)" stroke="none">20/02</tspan></tspan></tspan></text>
 <text class="TextShape"><tspan class="TextParagraph" font-family="Liberation Sans, sans-serif" font-size="353px" font-weight="400"><tspan class="TextPosition" x="1989" y="11635"><tspan fill="rgb(0,0,0)" stroke="none">20/03</tspan></tspan></tspan></text>
 <text class="TextShape"><tspan class="TextParagraph" font-family="Liberation Sans, sans-serif" font-size="353px" font-weight="400"><tspan class="TextPosition" x="3076" y="11635"><tspan fill="rgb(0,0,0)" stroke="none">20/04</tspan></tspan></tspan></text>
 <text class="TextShape"><tspan class="TextParagraph" font-family="Liberation Sans, sans-serif" font-size="353px" font-weight="400"><tspan class="TextPosition" x="4128" y="11635"><tspan fill="rgb(0,0,0)" stroke="none">20/05</tspan></tspan></tspan></text>
 <text class="TextShape"><tspan class="TextParagraph" font-family="Liberation Sans, sans-serif" font-size="353px" font-weight="400"><tspan class="TextPosition" x="5215" y="11635"><tspan fill="rgb(0,0,0)" stroke="none">20/06</tspan></tspan></tspan></text>
 <text class="TextShape"><tspan class="TextParagraph" font-family="Liberation Sans, sans-serif" font-size="353px" font-weight="400"><tspan class="TextPosition" x="6267" y="11635"><tspan fill="rgb(0,0,0)" stroke="none">20/07</tspan></tspan></tspan></text>
 <text class="TextShape"><tspan class="TextParagraph" font-family="Liberation Sans, sans-serif" font-size="353px" font-weight="400"><tspan class="TextPosition" x="7354" y="11635"><tspan fill="rgb(0,0,0)" stroke="none">20/08</tspan></tspan></tspan></text>
 <text class="TextShape"><tspan class="TextParagraph" font-family="Liberation Sans, sans-serif" font-size="353px" font-weight="400"><tspan class="TextPosition" x="8442" y="11635"><tspan fill="rgb(0,0,0)" stroke="none">20/09</tspan></tspan></tspan></text>
 <text class="TextShape"><tspan class="TextParagraph" font-family="Liberation Sans, sans-serif" font-size="353px" font-weight="400"><tspan class="TextPosition" x="9494" y="11635"><tspan fill="rgb(0,0,0)" stroke="none">20/10</tspan></tspan></tspan></text>
 <text class="TextShape"><tspan class="TextParagraph" font-family="Liberation Sans, sans-serif" font-size="353px" font-weight="400"><tspan class="TextPosition" x="10581" y="11635"><tspan fill="rgb(0,0,0)" stroke="none">20/11</tspan></tspan></tspan></text>
 <text class="TextShape"><tspan class="TextParagraph" font-family="Liberation Sans, sans-serif" font-size="353px" font-weight="400"><tspan class="TextPosition" x="11633" y="11635"><tspan fill="rgb(0,0,0)" stroke="none">20/12</tspan></tspan></tspan></text>
 <text class="TextShape"><tspan class="TextParagraph" font-family="Liberation Sans, sans-serif" font-size="353px" font-weight="400"><tspan class="TextPosition" x="12720" y="11635"><tspan fill="rgb(0,0,0)" stroke="none">20/01</tspan></tspan></tspan></text>
 <text class="TextShape"><tspan class="TextParagraph" font-family="Liberation Sans, sans-serif" font-size="353px" font-weight="400"><tspan class="TextPosition" x="13808" y="11635"><tspan fill="rgb(0,0,0)" stroke="none">20/02</tspan></tspan></tspan></text>
 <text class="TextShape"><tspan class="TextParagraph" font-family="Liberation Sans, sans-serif" font-size="353px" font-weight="400"><tspan class="TextPosition" x="960" y="11188"><tspan fill="rgb(0,0,0)" stroke="none">0</tspan></tspan></tspan></text>
 <text class="TextShape"><tspan class="TextParagraph" font-family="Liberation Sans, sans-serif" font-size="353px" font-weight="400"><tspan class="TextPosition" x="113" y="9849"><tspan fill="rgb(0,0,0)" stroke="none">10.000</tspan></tspan></tspan></text>
 <text class="TextShape"><tspan class="TextParagraph" font-family="Liberation Sans, sans-serif" font-size="353px" font-weight="400"><tspan class="TextPosition" x="113" y="8510"><tspan fill="rgb(0,0,0)" stroke="none">20.000</tspan></tspan></tspan></text>
 <text class="TextShape"><tspan class="TextParagraph" font-family="Liberation Sans, sans-serif" font-size="353px" font-weight="400"><tspan class="TextPosition" x="113" y="7171"><tspan fill="rgb(0,0,0)" stroke="none">30.000</tspan></tspan></tspan></text>
 <text class="TextShape"><tspan class="TextParagraph" font-family="Liberation Sans, sans-serif" font-size="353px" font-weight="400"><tspan class="TextPosition" x="113" y="5832"><tspan fill="rgb(0,0,0)" stroke="none">40.000</tspan></tspan></tspan></text>
 <text class="TextShape"><tspan class="TextParagraph" font-family="Liberation Sans, sans-serif" font-size="353px" font-weight="400"><tspan class="TextPosition" x="113" y="4494"><tspan fill="rgb(0,0,0)" stroke="none">50.000</tspan></tspan></tspan></text>
 <text class="TextShape"><tspan class="TextParagraph" font-family="Liberation Sans, sans-serif" font-size="353px" font-weight="400"><tspan class="TextPosition" x="113" y="3155"><tspan fill="rgb(0,0,0)" stroke="none">60.000</tspan></tspan></tspan></text>
 <text class="TextShape"><tspan class="TextParagraph" font-family="Liberation Sans, sans-serif" font-size="353px" font-weight="400"><tspan class="TextPosition" x="113" y="1816"><tspan fill="rgb(0,0,0)" stroke="none">70.000</tspan></tspan></tspan></text>
 <text class="TextShape"><tspan class="TextParagraph" font-family="Liberation Sans, sans-serif" font-size="459px" font-weight="400"><tspan class="TextPosition" x="3867" y="724"><tspan fill="rgb(0,0,0)" stroke="none">Covid-19. Muertes acumuladas en España</tspan></tspan></tspan></text>
</svg>