<?xml version="1.0" encoding="UTF-8"?>
<!DOCTYPE svg PUBLIC "-//W3C//DTD SVG 1.1//EN" "http://www.w3.org/Graphics/SVG/1.1/DTD/svg11.dtd">
<svg width="150mm" height="120mm" viewBox="0 0 15000 12000" version="1.1" xmlns="http://www.w3.org/2000/svg" xmlns:xlink="http://www.w3.org/1999/xlink" stroke-width="28.222" stroke-linejoin="round" xml:space="preserve">
 <path fill="rgb(255,255,255)" stroke="none" d="M 7500,12000 L 0,12000 0,0 15000,0 15000,12000 7500,12000 Z"/>
 <path fill="none" stroke="rgb(0,0,0)" stroke-linejoin="round" d="M 8048,11278 L 1393,11278 1393,779 14704,779 14704,11278 8048,11278 Z"/>
 <path fill="none" stroke="rgb(0,0,0)" stroke-linejoin="round" d="M 14704,11277 L 1393,11277"/>
 <path fill="none" stroke="rgb(0,0,0)" stroke-linejoin="round" d="M 14704,10041 L 1393,10041"/>
 <path fill="none" stroke="rgb(0,0,0)" stroke-linejoin="round" d="M 14704,8806 L 1393,8806"/>
 <path fill="none" stroke="rgb(0,0,0)" stroke-linejoin="round" d="M 14704,7571 L 1393,7571"/>
 <path fill="none" stroke="rgb(0,0,0)" stroke-linejoin="round" d="M 14704,6335 L 1393,6335"/>
 <path fill="none" stroke="rgb(0,0,0)" stroke-linejoin="round" d="M 14704,5101 L 1393,5101"/>
 <path fill="none" stroke="rgb(0,0,0)" stroke-linejoin="round" d="M 14704,3866 L 1393,3866"/>
 <path fill="none" stroke="rgb(0,0,0)" stroke-linejoin="round" d="M 14704,2630 L 1393,2630"/>
 <path fill="none" stroke="rgb(0,0,0)" stroke-linejoin="round" d="M 14704,1395 L 1393,1395"/>
 <path fill="none" stroke="rgb(0,0,0)" stroke-linejoin="round" d="M 1393,11427 L 1393,11277"/>
 <path fill="none" stroke="rgb(0,0,0)" stroke-linejoin="round" d="M 1393,11427 L 1393,11277"/>
 <path fill="none" stroke="rgb(0,0,0)" stroke-linejoin="round" d="M 3171,11427 L 3171,11277"/>
 <path fill="none" stroke="rgb(0,0,0)" stroke-linejoin="round" d="M 3171,11427 L 3171,11277"/>
 <path fill="none" stroke="rgb(0,0,0)" stroke-linejoin="round" d="M 4950,11427 L 4950,11277"/>
 <path fill="none" stroke="rgb(0,0,0)" stroke-linejoin="round" d="M 4950,11427 L 4950,11277"/>
 <path fill="none" stroke="rgb(0,0,0)" stroke-linejoin="round" d="M 6671,11427 L 6671,11277"/>
 <path fill="none" stroke="rgb(0,0,0)" stroke-linejoin="round" d="M 6671,11427 L 6671,11277"/>
 <path fill="none" stroke="rgb(0,0,0)" stroke-linejoin="round" d="M 8449,11427 L 8449,11277"/>
 <path fill="none" stroke="rgb(0,0,0)" stroke-linejoin="round" d="M 8449,11427 L 8449,11277"/>
 <path fill="none" stroke="rgb(0,0,0)" stroke-linejoin="round" d="M 10171,11427 L 10171,11277"/>
 <path fill="none" stroke="rgb(0,0,0)" stroke-linejoin="round" d="M 10171,11427 L 10171,11277"/>
 <path fill="none" stroke="rgb(0,0,0)" stroke-linejoin="round" d="M 11949,11427 L 11949,11277"/>
 <path fill="none" stroke="rgb(0,0,0)" stroke-linejoin="round" d="M 11949,11427 L 11949,11277"/>
 <path fill="none" stroke="rgb(0,0,0)" stroke-linejoin="round" d="M 13728,11427 L 13728,11277"/>
 <path fill="none" stroke="rgb(0,0,0)" stroke-linejoin="round" d="M 13728,11427 L 13728,11277"/>
 <path fill="none" stroke="rgb(0,0,0)" stroke-linejoin="round" d="M 1393,11277 L 14704,11277"/>
 <path fill="none" stroke="rgb(0,0,0)" stroke-linejoin="round" d="M 1243,11277 L 1393,11277"/>
 <path fill="none" stroke="rgb(0,0,0)" stroke-linejoin="round" d="M 1243,11277 L 1393,11277"/>
 <path fill="none" stroke="rgb(0,0,0)" stroke-linejoin="round" d="M 1243,10041 L 1393,10041"/>
 <path fill="none" stroke="rgb(0,0,0)" stroke-linejoin="round" d="M 1243,10041 L 1393,10041"/>
 <path fill="none" stroke="rgb(0,0,0)" stroke-linejoin="round" d="M 1243,8806 L 1393,8806"/>
 <path fill="none" stroke="rgb(0,0,0)" stroke-linejoin="round" d="M 1243,8806 L 1393,8806"/>
 <path fill="none" stroke="rgb(0,0,0)" stroke-linejoin="round" d="M 1243,7571 L 1393,7571"/>
 <path fill="none" stroke="rgb(0,0,0)" stroke-linejoin="round" d="M 1243,7571 L 1393,7571"/>
 <path fill="none" stroke="rgb(0,0,0)" stroke-linejoin="round" d="M 1243,6335 L 1393,6335"/>
 <path fill="none" stroke="rgb(0,0,0)" stroke-linejoin="round" d="M 1243,6335 L 1393,6335"/>
 <path fill="none" stroke="rgb(0,0,0)" stroke-linejoin="round" d="M 1243,5101 L 1393,5101"/>
 <path fill="none" stroke="rgb(0,0,0)" stroke-linejoin="round" d="M 1243,5101 L 1393,5101"/>
 <path fill="none" stroke="rgb(0,0,0)" stroke-linejoin="round" d="M 1243,3866 L 1393,3866"/>
 <path fill="none" stroke="rgb(0,0,0)" stroke-linejoin="round" d="M 1243,3866 L 1393,3866"/>
 <path fill="none" stroke="rgb(0,0,0)" stroke-linejoin="round" d="M 1243,2630 L 1393,2630"/>
 <path fill="none" stroke="rgb(0,0,0)" stroke-linejoin="round" d="M 1243,2630 L 1393,2630"/>
 <path fill="none" stroke="rgb(0,0,0)" stroke-linejoin="round" d="M 1243,1395 L 1393,1395"/>
 <path fill="none" stroke="rgb(0,0,0)" stroke-linejoin="round" d="M 1243,1395 L 1393,1395"/>
 <path fill="none" stroke="rgb(0,0,0)" stroke-linejoin="round" d="M 1393,11277 L 1393,778"/>
 <path fill="none" stroke="rgb(0,69,134)" stroke-width="100" stroke-linejoin="round" d="M 2311,11277 L 2368,11277 2425,11273 2483,11273 2540,11272 2597,11272 2655,11270 2712,11268 2770,11267 2827,11267 2884,11265 2942,11264 2999,11264 3057,11262 3114,11260 3171,11258 3229,11257 3286,11256 3343,11256 3401,11255 3458,11255 3516,11254 3573,11252 3630,11251 3688,11249 3745,11249 3802,11249 3860,11245 3917,11244 3975,11242 4032,11241 4089,11240 4147,11240 4204,11238 4261,11235 4319,11233 4376,11230 4434,11227 4491,11223 4548,11221 4606,11220 4663,11215 4721,11211 4778,11206 4835,11202 4893,11197 4950,11195 5007,11193 5065,11185 5122,11176 5180,11169 5237,11161 5294,11154 5352,11150 5409,11148 5466,11139 5524,11130 5581,11120 5639,11110 5696,11100 5753,11092 5811,11086 5868,11068 5925,11051 5983,11034 6040,11017 6098,10999 6155,10990 6212,10980 6270,10951 6327,10927 6385,10904 6442,10876 6499,10855 6557,10836 6614,10823 6671,10778 6729,10740 6786,10705 6844,10671 6901,10631 6958,10611 7016,10594 7073,10545 7130,10484 7188,10438 7245,10394 7303,10343 7360,10323 7417,10321 7475,10234 7531,10160 7588,10091 7646,10044 7703,9987 7761,9966 7818,9940 7875,9866 7933,9801 7990,9739 8048,9676 8105,9634 8162,9585 8220,9559 8277,9484 8334,9398 8392,9337 8449,9273 8507,9213 8564,9187 8621,9162 8679,9087 8736,9007 8793,8956 8851,8894 8908,8845 8966,8816 9023,8793 9080,8719 9138,8653 9195,8589 9252,8537 9310,8473 9367,8455 9425,8426 9482,8364 9539,8288 9597,8222 9654,8162 9712,8096 9769,8056 9826,8029 9884,7944 9941,7852 9998,7781 10056,7711 10113,7685 10171,7642 10228,7598 10285,7541 10343,7420 10400,7301 10457,7225 10515,7170 10572,7114 10630,7064 10687,6956 10744,6827 10802,6684 10859,6520 10916,6392 10974,6323 11031,6257 11089,6104 11146,5912 11203,5757 11261,5599 11318,5439 11376,5356 11433,5282 11490,5084 11548,4859 11605,4699 11662,4526 11720,4360 11777,4285 11835,4211 11892,4010 11949,3797 12007,3644 12064,3490 12121,3342 12179,3269 12236,3219 12294,3040 12351,2877 12408,2764 12466,2638 12523,2536 12580,2490 12638,2449 12695,2319 12753,2195 12810,2112 12867,2018 12925,1941 12982,1909 13040,1881 13097,1782 13154,1691 13212,1635 13269,1569 13326,1514 13384,1488 13441,1466 13499,1397 13556,1344 13613,1304 13671,1261 13728,1225 13785,1207 13843,1195 13900,1152 13958,1092 14015,1062 14072,1033 14130,1013 14187,1003 14244,995 14302,967 14359,943 14417,921 14474,899 14531,884 14589,878 14646,870 14704,856"/>
 <path fill="none" stroke="rgb(255,66,14)" stroke-width="100" stroke-linejoin="round" d="M 1393,11276 L 1450,11275 1507,11274 1565,11273 1622,11272 1679,11272 1737,11271 1794,11269 1852,11269 1909,11267 1966,11267 2024,11266 2081,11265 2138,11264 2196,11264 2253,11263 2311,11262 2368,11261 2425,11261 2483,11241 2540,11241 2597,11240 2655,11240 2712,11239 2770,11238 2827,11237 2884,11237 2942,11236 2999,11235 3057,11235 3114,11233 3171,11233 3229,11231 3286,11231 3343,11231 3401,11230 3458,11229 3516,11228 3573,11227 3630,11226 3688,11224 3745,11223 3802,11221 3860,11220 3917,11218 3975,11217 4032,11216 4089,11215 4147,11214 4204,11213 4261,11212 4319,11210 4376,11208 4434,11207 4491,11204 4548,11202 4606,11200 4663,11199 4721,11196 4778,11193 4835,11191 4893,11189 4950,11187 5007,11185 5065,11182 5122,11179 5180,11176 5237,11173 5294,11170 5352,11168 5409,11166 5466,11162 5524,11159 5581,11156 5639,11152 5696,11149 5753,11146 5811,11141 5868,11136 5925,11130 5983,11120 6040,11113 6098,11108 6155,11099 6212,11090 6270,11079 6327,11063 6385,11047 6442,11035 6499,11017 6557,11001 6614,10983 6671,10956 6729,10931 6786,10904 6844,10879 6901,10843 6958,10817 7016,10788 7073,10745 7130,10701 7188,10648 7245,10593 7303,10541 7360,10500 7417,10456 7475,10384 7531,10307 7588,10229 7646,10161 7703,10094 7761,10026 7818,9964 7875,9874 7933,9781 7990,9700 8048,9614 8105,9528 8162,9459 8220,9381 8277,9275 8334,9186 8392,9085 8449,8983 8507,8898 8564,8831 8621,8748 8679,8651 8736,8567 8793,8444 8851,8343 8908,8262 8966,8192 9023,8127 9080,8048 9138,7987 9195,7877 9252,7783 9310,7703 9367,7643 9425,7582 9482,7478 9539,7394 9597,7310 9654,7226 9712,7158 9769,7115 9826,7063 9884,6986 9941,6917 9998,6855 10056,6798 10113,6766 10171,6728 10228,6673 10285,6592 10343,6521 10400,6452 10457,6395 10515,6350 10572,6308 10630,6265 10687,6184 10744,6117 10802,6066 10859,5990 10916,5930 10974,5886 11031,5830 11089,5754 11146,5692 11203,5627 11261,5568 11318,5510 11376,5463 11433,5418 11490,5342 11548,5281 11605,5213 11662,5155 11720,5094 11777,5057 11835,5005 11892,4939 11949,4883 12007,4820 12064,4761 12121,4709 12179,4680 12236,4639 12294,4578 12351,4519 12408,4467 12466,4420 12523,4373 12580,4339 12638,4301 12695,4249 12753,4208 12810,4159 12867,4120 12925,4082 12982,4055 13040,4023 13097,3981 13154,3936 13212,3893 13269,3850 13326,3819 13384,3790 13441,3756 13499,3712 13556,3673 13613,3635 13671,3604 13728,3569 13785,3546 13843,3515 13900,3473 13958,3430 14015,3388 14072,3351 14130,3313 14187,3288 14244,3249 14302,3202 14359,3161 14417,3115 14474,3068 14531,2996 14589,2996 14646,2953 14704,2891"/>
 <path fill="none" stroke="rgb(255,211,32)" stroke-width="100" stroke-linejoin="round" d="M 1393,11277 L 1450,11276 1507,11276 1565,11275 1622,11274 1679,11273 1737,11274 1794,11273 1852,11272 1909,11270 1966,11269 2024,11268 2081,11267 2138,11267 2196,11267 2253,11266 2311,11266 2368,11265 2425,11263 2483,11263 2540,11263 2597,11262 2655,11262 2712,11261 2770,11260 2827,11259 2884,11258 2942,11258 2999,11257 3057,11257 3114,11256 3171,11256 3229,11256 3286,11255 3343,11255 3401,11254 3458,11254 3516,11252 3573,11251 3630,11251 3688,11251 3745,11251 3802,11251 3860,11250 3917,11249 3975,11249 4032,11249 4089,11248 4147,11248 4204,11248 4261,11246 4319,11246 4376,11245 4434,11244 4491,11244 4548,11243 4606,11243 4663,11242 4721,11241 4778,11238 4835,11236 4893,11235 4950,11235 5007,11234 5065,11233 5122,11231 5180,11229 5237,11228 5294,11226 5352,11226 5409,11225 5466,11224 5524,11222 5581,11220 5639,11218 5696,11216 5753,11215 5811,11214 5868,11213 5925,11207 5983,11203 6040,11200 6098,11196 6155,11195 6212,11194 6270,11188 6327,11183 6385,11179 6442,11173 6499,11167 6557,11164 6614,11161 6671,11155 6729,11145 6786,11134 6844,11124 6901,11112 6958,11108 7016,11102 7073,11086 7130,11067 7188,11053 7245,11032 7303,11016 7360,11008 7417,11001 7475,10982 7531,10949 7588,10923 7646,10896 7703,10874 7761,10861 7818,10853 7875,10820 7933,10782 7990,10751 8048,10719 8105,10688 8162,10671 8220,10660 8277,10629 8334,10578 8392,10530 8449,10478 8507,10431 8564,10411 8621,10396 8679,10348 8736,10288 8793,10228 8851,10175 8908,10115 8966,10084 9023,10066 9080,10014 9138,9941 9195,9886 9252,9812 9310,9751 9367,9712 9425,9688 9482,9627 9539,9511 9597,9423 9654,9322 9712,9236 9769,9185 9826,9157 9884,9067 9941,8948 9998,8849 10056,8798 10113,8768 10171,8724 10228,8681 10285,8576 10343,8437 10400,8318 10457,8249 10515,8208 10572,8169 10630,8132 10687,8015 10744,7889 10802,7757 10859,7611 10916,7477 10974,7419 11031,7377 11089,7267 11146,7136 11203,6982 11261,6845 11318,6724 11376,6669 11433,6642 11490,6520 11548,6378 11605,6253 11662,6147 11720,6038 11777,5996 11835,5970 11892,5858 11949,5737 12007,5620 12064,5517 12121,5419 12179,5369 12236,5348 12294,5241 12351,5121 12408,5024 12466,4918 12523,4833 12580,4805 12638,4785 12695,4726 12753,4625 12810,4543 12867,4474 12925,4406 12982,4379 13040,4365 13097,4300 13154,4231 13212,4165 13269,4102 13326,4041 13384,4023 13441,4016 13499,3965 13556,3912 13613,3865 13671,3816 13728,3771 13785,3751 13843,3744 13900,3700 13958,3648 14015,3604 14072,3571 14130,3534 14187,3522 14244,3518 14302,3486 14359,3449 14417,3410 14474,3379 14531,3349 14589,3340 14646,3335 14704,3305"/>
 <path fill="none" stroke="rgb(87,157,28)" stroke-width="100" stroke-linejoin="round" d="M 1393,11274 L 1450,11273 1507,11271 1565,11269 1622,11267 1679,11267 1737,11267 1794,11264 1852,11264 1909,11263 1966,11262 2024,11260 2081,11260 2138,11260 2196,11258 2253,11256 2311,11254 2368,11252 2425,11250 2483,11250 2540,11250 2597,11247 2655,11245 2712,11242 2770,11241 2827,11238 2884,11237 2942,11237 2999,11235 3057,11233 3114,11233 3171,11229 3229,11227 3286,11226 3343,11225 3401,11222 3458,11219 3516,11215 3573,11213 3630,11215 3688,11214 3745,11214 3802,11211 3860,11206 3917,11203 3975,11200 4032,11190 4089,11188 4147,11187 4204,11183 4261,11177 4319,11171 4376,11165 4434,11146 4491,11143 4548,11141 4606,11135 4663,11125 4721,11120 4778,11114 4835,11095 4893,11090 4950,11087 5007,11077 5065,11066 5122,11059 5180,11051 5237,11034 5294,11029 5352,11025 5409,11016 5466,11008 5524,10998 5581,10989 5639,10975 5696,10969 5753,10963 5811,10951 5868,10938 5925,10925 5983,10914 6040,10892 6098,10881 6155,10871 6212,10853 6270,10820 6327,10800 6385,10780 6442,10743 6499,10726 6557,10712 6614,10680 6671,10616 6729,10586 6786,10557 6844,10489 6901,10462 6958,10433 7016,10382 7073,10276 7130,10229 7188,10184 7245,10082 7303,10044 7360,10011 7417,9943 7475,9792 7531,9752 7588,9699 7646,9584 7703,9540 7761,9503 7818,9441 7875,9290 7933,9238 7990,9185 8048,9044 8105,9013 8162,8986 8220,8925 8277,8800 8334,8753 8392,8711 8449,8593 8507,8567 8564,8542 8621,8492 8679,8397 8736,8358 8793,8318 8851,8241 8908,8222 8966,8193 9023,8148 9080,8045 9138,8008 9195,7972 9252,7895 9310,7871 9367,7852 9425,7807 9482,7709 9539,7673 9597,7641 9654,7566 9712,7543 9769,7527 9826,7483 9884,7384 9941,7350 9998,7314 10056,7295 10113,7276 10171,7255 10228,7210 10285,7091 10343,7053 10400,7022 10457,7006 10515,6986 10572,6972 10630,6925 10687,6818 10744,6783 10802,6749 10859,6676 10916,6656 10974,6637 11031,6599 11089,6507 11146,6479 11203,6444 11261,6365 11318,6342 11376,6324 11433,6274 11490,6193 11548,6155 11605,6112 11662,6032 11720,6004 11777,5983 11835,5928 11892,5853 11949,5810 12007,5767 12064,5666 12121,5636 12179,5612 12236,5556 12294,5466 12351,5422 12408,5378 12466,5297 12523,5274 12580,5253 12638,5196 12695,5107 12753,5070 12810,5026 12867,4946 12925,4921 12982,4901 13040,4850 13097,4765 13154,4739 13212,4706 13269,4635 13326,4612 13384,4593 13441,4552 13499,4498 13556,4467 13613,4432 13671,4365 13728,4343 13785,4327 13843,4281 13900,4230 13958,4190 14015,4154 14072,4099 14130,4078 14187,4062 14244,4018 14302,3973 14359,3940 14417,3907 14474,3871 14531,3851 14589,3833 14646,3792 14704,3742"/>
 <path fill="none" stroke="rgb(126,0,33)" stroke-width="100" stroke-linejoin="round" d="M 1393,11276 L 1450,11276 1507,11275 1565,11275 1622,11275 1679,11275 1737,11275 1794,11272 1852,11268 1909,11268 1966,11268 2024,11268 2081,11268 2138,11268 2196,11259 2253,11258 2311,11258 2368,11255 2425,11254 2483,11254 2540,11254 2597,11250 2655,11247 2712,11231 2770,11229 2827,11226 2884,11226 2942,11226 2999,11222 3057,11216 3114,11210 3171,11207 3229,11205 3286,11205 3343,11205 3401,11195 3458,11188 3516,11182 3573,11177 3630,11155 3688,11155 3745,11155 3802,11143 3860,11133 3917,11129 3975,11120 4032,11114 4089,11114 4147,11114 4204,11102 4261,11082 4319,11053 4376,11033 4434,11022 4491,11022 4548,11022 4606,11001 4663,10971 4721,10955 4778,10945 4835,10931 4893,10931 4950,10931 5007,10909 5065,10883 5122,10862 5180,10839 5237,10825 5294,10825 5352,10825 5409,10808 5466,10776 5524,10766 5581,10751 5639,10721 5696,10721 5753,10721 5811,10697 5868,10687 5925,10661 5983,10644 6040,10616 6098,10616 6155,10616 6212,10590 6270,10563 6327,10543 6385,10524 6442,10496 6499,10496 6557,10496 6614,10461 6671,10428 6729,10408 6786,10386 6844,10357 6901,10357 6958,10357 7016,10310 7073,10280 7130,10080 7188,10035 7245,9992 7303,9992 7360,9992 7417,9928 7475,9878 7531,9835 7588,9791 7646,9753 7703,9753 7761,9753 7818,9693 7875,9639 7933,9596 7990,9565 8048,9524 8105,9524 8162,9524 8220,9461 8277,9394 8334,9349 8392,9307 8449,9271 8507,9271 8564,9271 8621,9221 8679,9167 8736,9133 8793,9102 8851,9075 8908,9075 8966,9075 9023,9027 9080,9027 9138,8980 9195,8940 9252,8906 9310,8906 9367,8906 9425,8858 9482,8810 9539,8786 9597,8763 9654,8745 9712,8745 9769,8745 9826,8704 9884,8672 9941,8650 9998,8634 10056,8634 10113,8634 10171,8634 10228,8597 10285,8558 10343,8527 10400,8509 10457,8509 10515,8509 10572,8509 10630,8479 10687,8436 10744,8436 10802,8405 10859,8381 10916,8381 10974,8381 11031,8331 11089,8281 11146,8257 11203,8232 11261,8203 11318,8203 11376,8203 11433,8147 11490,8097 11548,8039 11605,7990 11662,7940 11720,7940 11777,7940 11835,7845 11892,7772 11949,7712 12007,7648 12064,7585 12121,7585 12179,7585 12236,7490 12294,7401 12351,7331 12408,7278 12466,7206 12523,7206 12580,7206 12638,7093 12695,6999 12753,6919 12810,6856 12867,6791 12925,6791 12982,6791 13040,6704 13097,6638 13154,6597 13212,6549 13269,6500 13326,6500 13384,6500 13441,6434 13499,6379 13556,6331 13613,6288 13671,6248 13728,6248 13785,6248 13843,6190 13900,6166 13958,6111 14015,6080 14072,6001 14130,6001 14187,6001 14244,5965 14302,5929 14359,5900 14417,5885 14474,5864 14531,5864 14589,5864 14646,5843 14704,5826"/>
 <text class="TextShape"><tspan class="TextParagraph" font-family="Liberation Sans, sans-serif" font-size="353px" font-weight="400"><tspan class="TextPosition" x="969" y="11845"><tspan fill="rgb(0,0,0)" stroke="none">27/07</tspan></tspan></tspan></text>
 <text class="TextShape"><tspan class="TextParagraph" font-family="Liberation Sans, sans-serif" font-size="353px" font-weight="400"><tspan class="TextPosition" x="2747" y="11845"><tspan fill="rgb(0,0,0)" stroke="none">27/08</tspan></tspan></tspan></text>
 <text class="TextShape"><tspan class="TextParagraph" font-family="Liberation Sans, sans-serif" font-size="353px" font-weight="400"><tspan class="TextPosition" x="4526" y="11845"><tspan fill="rgb(0,0,0)" stroke="none">27/09</tspan></tspan></tspan></text>
 <text class="TextShape"><tspan class="TextParagraph" font-family="Liberation Sans, sans-serif" font-size="353px" font-weight="400"><tspan class="TextPosition" x="6247" y="11845"><tspan fill="rgb(0,0,0)" stroke="none">27/10</tspan></tspan></tspan></text>
 <text class="TextShape"><tspan class="TextParagraph" font-family="Liberation Sans, sans-serif" font-size="353px" font-weight="400"><tspan class="TextPosition" x="8026" y="11845"><tspan fill="rgb(0,0,0)" stroke="none">27/11</tspan></tspan></tspan></text>
 <text class="TextShape"><tspan class="TextParagraph" font-family="Liberation Sans, sans-serif" font-size="353px" font-weight="400"><tspan class="TextPosition" x="9748" y="11845"><tspan fill="rgb(0,0,0)" stroke="none">27/12</tspan></tspan></tspan></text>
 <text class="TextShape"><tspan class="TextParagraph" font-family="Liberation Sans, sans-serif" font-size="353px" font-weight="400"><tspan class="TextPosition" x="11526" y="11845"><tspan fill="rgb(0,0,0)" stroke="none">27/01</tspan></tspan></tspan></text>
 <text class="TextShape"><tspan class="TextParagraph" font-family="Liberation Sans, sans-serif" font-size="353px" font-weight="400"><tspan class="TextPosition" x="13305" y="11845"><tspan fill="rgb(0,0,0)" stroke="none">27/02</tspan></tspan></tspan></text>
 <text class="TextShape"><tspan class="TextParagraph" font-family="Liberation Sans, sans-serif" font-size="353px" font-weight="400"><tspan class="TextPosition" x="111" y="10162"><tspan fill="rgb(0,0,0)" stroke="none">10.000</tspan></tspan></tspan></text>
 <text class="TextShape"><tspan class="TextParagraph" font-family="Liberation Sans, sans-serif" font-size="353px" font-weight="400"><tspan class="TextPosition" x="111" y="8927"><tspan fill="rgb(0,0,0)" stroke="none">20.000</tspan></tspan></tspan></text>
 <text class="TextShape"><tspan class="TextParagraph" font-family="Liberation Sans, sans-serif" font-size="353px" font-weight="400"><tspan class="TextPosition" x="111" y="7692"><tspan fill="rgb(0,0,0)" stroke="none">30.000</tspan></tspan></tspan></text>
 <text class="TextShape"><tspan class="TextParagraph" font-family="Liberation Sans, sans-serif" font-size="353px" font-weight="400"><tspan class="TextPosition" x="111" y="6456"><tspan fill="rgb(0,0,0)" stroke="none">40.000</tspan></tspan></tspan></text>
 <text class="TextShape"><tspan class="TextParagraph" font-family="Liberation Sans, sans-serif" font-size="353px" font-weight="400"><tspan class="TextPosition" x="111" y="5221"><tspan fill="rgb(0,0,0)" stroke="none">50.000</tspan></tspan></tspan></text>
 <text class="TextShape"><tspan class="TextParagraph" font-family="Liberation Sans, sans-serif" font-size="353px" font-weight="400"><tspan class="TextPosition" x="111" y="3986"><tspan fill="rgb(0,0,0)" stroke="none">60.000</tspan></tspan></tspan></text>
 <text class="TextShape"><tspan class="TextParagraph" font-family="Liberation Sans, sans-serif" font-size="353px" font-weight="400"><tspan class="TextPosition" x="111" y="2750"><tspan fill="rgb(0,0,0)" stroke="none">70.000</tspan></tspan></tspan></text>
 <text class="TextShape"><tspan class="TextParagraph" font-family="Liberation Sans, sans-serif" font-size="353px" font-weight="400"><tspan class="TextPosition" x="111" y="1515"><tspan fill="rgb(0,0,0)" stroke="none">80.000</tspan></tspan></tspan></text>
 <text class="TextShape"><tspan class="TextParagraph" font-family="Liberation Sans, sans-serif" font-size="459px" font-weight="400"><tspan class="TextPosition" x="1968" y="538"><tspan fill="rgb(0,0,0)" stroke="none">Covid-19. Muertes acumuladas en Europa Occidental (1)</tspan></tspan></tspan></text>
 <path fill="none" stroke="rgb(0,69,134)" stroke-width="100" stroke-linejoin="round" d="M 2336,2009 L 3136,2009"/>
 <path fill="none" stroke="rgb(255,66,14)" stroke-width="100" stroke-linejoin="round" d="M 2336,3241 L 3136,3241"/>
 <path fill="none" stroke="rgb(255,211,32)" stroke-width="100" stroke-linejoin="round" d="M 2336,4473 L 3136,4473"/>
 <path fill="none" stroke="rgb(87,157,28)" stroke-width="100" stroke-linejoin="round" d="M 2336,5705 L 3136,5705"/>
 <path fill="none" stroke="rgb(126,0,33)" stroke-width="100" stroke-linejoin="round" d="M 2336,6936 L 3136,6936"/>
 <text class="TextShape"><tspan class="TextParagraph" font-family="Liberation Sans, sans-serif" font-size="353px" font-weight="400"><tspan class="TextPosition" x="3236" y="2129"><tspan fill="rgb(0,0,0)" stroke="none">Reino Unido</tspan></tspan></tspan></text>
 <text class="TextShape"><tspan class="TextParagraph" font-family="Liberation Sans, sans-serif" font-size="353px" font-weight="400"><tspan class="TextPosition" x="3236" y="3361"><tspan fill="rgb(0,0,0)" stroke="none">Italia</tspan></tspan></tspan></text>
 <text class="TextShape"><tspan class="TextParagraph" font-family="Liberation Sans, sans-serif" font-size="353px" font-weight="400"><tspan class="TextPosition" x="3236" y="4593"><tspan fill="rgb(0,0,0)" stroke="none">Alemania</tspan></tspan></tspan></text>
 <text class="TextShape"><tspan class="TextParagraph" font-family="Liberation Sans, sans-serif" font-size="353px" font-weight="400"><tspan class="TextPosition" x="3236" y="5825"><tspan fill="rgb(0,0,0)" stroke="none">Francia</tspan></tspan></tspan></text>
 <text class="TextShape"><tspan class="TextParagraph" font-family="Liberation Sans, sans-serif" font-size="353px" font-weight="400"><tspan class="TextPosition" x="3236" y="7056"><tspan fill="rgb(0,0,0)" stroke="none">España</tspan></tspan></tspan></text>
</svg>