<?xml version="1.0" encoding="UTF-8"?>
<!DOCTYPE svg PUBLIC "-//W3C//DTD SVG 1.1//EN" "http://www.w3.org/Graphics/SVG/1.1/DTD/svg11.dtd">
<svg width="150mm" height="120mm" viewBox="0 0 15000 12000" version="1.1" xmlns="http://www.w3.org/2000/svg" xmlns:xlink="http://www.w3.org/1999/xlink" stroke-width="28.222" stroke-linejoin="round" xml:space="preserve">
 <path fill="rgb(255,255,255)" stroke="none" d="M 7500,12000 L 0,12000 0,0 15000,0 15000,12000 7500,12000 Z"/>
 <path fill="none" stroke="rgb(0,0,0)" stroke-linejoin="round" d="M 8048,11278 L 1393,11278 1393,779 14704,779 14704,11278 8048,11278 Z"/>
 <path fill="none" stroke="rgb(0,0,0)" stroke-linejoin="round" d="M 14703,11277 L 1392,11277"/>
 <path fill="none" stroke="rgb(0,0,0)" stroke-linejoin="round" d="M 14703,9367 L 1392,9367"/>
 <path fill="none" stroke="rgb(0,0,0)" stroke-linejoin="round" d="M 14703,7458 L 1392,7458"/>
 <path fill="none" stroke="rgb(0,0,0)" stroke-linejoin="round" d="M 14703,5550 L 1392,5550"/>
 <path fill="none" stroke="rgb(0,0,0)" stroke-linejoin="round" d="M 14703,3641 L 1392,3641"/>
 <path fill="none" stroke="rgb(0,0,0)" stroke-linejoin="round" d="M 14703,1732 L 1392,1732"/>
 <path fill="none" stroke="rgb(0,0,0)" stroke-linejoin="round" d="M 1392,11427 L 1392,11277"/>
 <path fill="none" stroke="rgb(0,0,0)" stroke-linejoin="round" d="M 1392,11427 L 1392,11277"/>
 <path fill="none" stroke="rgb(0,0,0)" stroke-linejoin="round" d="M 3698,11427 L 3698,11277"/>
 <path fill="none" stroke="rgb(0,0,0)" stroke-linejoin="round" d="M 3698,11427 L 3698,11277"/>
 <path fill="none" stroke="rgb(0,0,0)" stroke-linejoin="round" d="M 6003,11427 L 6003,11277"/>
 <path fill="none" stroke="rgb(0,0,0)" stroke-linejoin="round" d="M 6003,11427 L 6003,11277"/>
 <path fill="none" stroke="rgb(0,0,0)" stroke-linejoin="round" d="M 8233,11427 L 8233,11277"/>
 <path fill="none" stroke="rgb(0,0,0)" stroke-linejoin="round" d="M 8233,11427 L 8233,11277"/>
 <path fill="none" stroke="rgb(0,0,0)" stroke-linejoin="round" d="M 10539,11427 L 10539,11277"/>
 <path fill="none" stroke="rgb(0,0,0)" stroke-linejoin="round" d="M 10539,11427 L 10539,11277"/>
 <path fill="none" stroke="rgb(0,0,0)" stroke-linejoin="round" d="M 12770,11427 L 12770,11277"/>
 <path fill="none" stroke="rgb(0,0,0)" stroke-linejoin="round" d="M 12770,11427 L 12770,11277"/>
 <path fill="none" stroke="rgb(0,0,0)" stroke-linejoin="round" d="M 1392,11277 L 14703,11277"/>
 <path fill="none" stroke="rgb(0,0,0)" stroke-linejoin="round" d="M 1242,11277 L 1392,11277"/>
 <path fill="none" stroke="rgb(0,0,0)" stroke-linejoin="round" d="M 1242,11277 L 1392,11277"/>
 <path fill="none" stroke="rgb(0,0,0)" stroke-linejoin="round" d="M 1242,9367 L 1392,9367"/>
 <path fill="none" stroke="rgb(0,0,0)" stroke-linejoin="round" d="M 1242,9367 L 1392,9367"/>
 <path fill="none" stroke="rgb(0,0,0)" stroke-linejoin="round" d="M 1242,7458 L 1392,7458"/>
 <path fill="none" stroke="rgb(0,0,0)" stroke-linejoin="round" d="M 1242,7458 L 1392,7458"/>
 <path fill="none" stroke="rgb(0,0,0)" stroke-linejoin="round" d="M 1242,5550 L 1392,5550"/>
 <path fill="none" stroke="rgb(0,0,0)" stroke-linejoin="round" d="M 1242,5550 L 1392,5550"/>
 <path fill="none" stroke="rgb(0,0,0)" stroke-linejoin="round" d="M 1242,3641 L 1392,3641"/>
 <path fill="none" stroke="rgb(0,0,0)" stroke-linejoin="round" d="M 1242,3641 L 1392,3641"/>
 <path fill="none" stroke="rgb(0,0,0)" stroke-linejoin="round" d="M 1242,1732 L 1392,1732"/>
 <path fill="none" stroke="rgb(0,0,0)" stroke-linejoin="round" d="M 1242,1732 L 1392,1732"/>
 <path fill="none" stroke="rgb(0,0,0)" stroke-linejoin="round" d="M 1392,11277 L 1392,778"/>
 <path fill="none" stroke="rgb(0,69,134)" stroke-width="100" stroke-linejoin="round" d="M 2582,11277 L 2657,11277 2731,11271 2806,11270 2880,11269 2954,11269 3029,11267 3103,11264 3177,11262 3252,11262 3326,11259 3400,11257 3475,11257 3549,11254 3624,11251 3698,11248 3772,11247 3847,11244 3921,11244 3995,11244 4070,11243 4144,11241 4219,11239 4293,11237 4367,11235 4442,11234 4516,11234 4590,11228 4665,11226 4739,11223 4813,11222 4888,11220 4962,11219 5037,11218 5111,11213 5185,11209 5260,11205 5334,11200 5408,11194 5483,11191 5557,11189 5632,11182 5706,11175 5780,11167 5855,11161 5929,11154 6003,11151 6078,11148 6152,11135 6226,11121 6301,11110 6375,11097 6450,11088 6524,11082 6598,11078 6673,11063 6747,11050 6821,11035 6896,11019 6970,11003 7045,10991 7119,10981 7193,10954 7268,10928 7342,10902 7416,10876 7491,10847 7564,10834 7638,10819 7713,10773 7787,10736 7862,10700 7936,10658 8010,10624 8085,10596 8159,10576 8233,10506 8308,10447 8382,10393 8457,10341 8531,10279 8605,10248 8680,10222 8754,10146 8828,10052 8903,9980 8977,9912 9051,9833 9126,9804 9200,9800 9275,9665 9349,9551 9423,9444 9498,9372 9572,9284 9646,9252 9721,9211 9795,9097 9870,8996 9944,8900 10018,8803 10093,8738 10167,8662 10241,8623 10316,8507 10390,8374 10464,8279 10539,8180 10613,8088 10688,8047 10762,8008 10836,7893 10911,7770 10985,7690 11059,7594 11134,7518 11208,7474 11283,7438 11357,7324 11431,7222 11506,7124 11580,7043 11654,6944 11729,6916 11803,6872 11877,6775 11952,6658 12026,6557 12101,6463 12175,6361 12249,6299 12324,6258 12398,6126 12472,5985 12547,5876 12621,5767 12696,5727 12770,5660 12844,5592 12919,5505 12993,5318 13067,5133 13142,5016 13216,4931 13290,4845 13365,4767 13439,4600 13514,4402 13588,4180 13662,3927 13737,3729 13811,3622 13885,3521 13960,3283 14034,2985 14109,2747 14183,2502 14257,2255 14332,2127 14406,2012 14480,1705 14555,1358 14629,1111 14703,844"/>
 <path fill="none" stroke="rgb(255,66,14)" stroke-width="100" stroke-linejoin="round" d="M 1392,11276 L 1467,11273 1541,11272 1616,11272 1690,11270 1764,11269 1839,11268 1913,11265 1987,11264 2062,11262 2136,11261 2211,11261 2285,11258 2359,11258 2434,11257 2508,11256 2582,11254 2657,11253 2731,11252 2806,11222 2880,11221 2954,11221 3029,11220 3103,11218 3177,11218 3252,11215 3326,11215 3400,11214 3475,11213 3549,11212 3624,11209 3698,11209 3772,11207 3847,11207 3921,11206 3995,11205 4070,11203 4144,11202 4219,11200 4293,11198 4367,11195 4442,11194 4516,11191 4590,11189 4665,11187 4739,11185 4813,11183 4888,11182 4962,11180 5037,11178 5111,11176 5185,11174 5260,11171 5334,11169 5408,11165 5483,11162 5557,11159 5632,11156 5706,11152 5780,11148 5855,11144 5929,11141 6003,11138 6078,11134 6152,11130 6226,11126 6301,11122 6375,11117 6450,11112 6524,11109 6598,11106 6673,11100 6747,11094 6821,11090 6896,11085 6970,11079 7045,11074 7119,11067 7193,11059 7268,11051 7342,11035 7416,11025 7491,11016 7564,11002 7638,10988 7713,10971 7787,10947 7862,10921 7936,10904 8010,10875 8085,10851 8159,10824 8233,10781 8308,10742 8382,10701 8457,10663 8531,10606 8605,10567 8680,10522 8754,10455 8828,10387 8903,10306 8977,10221 9051,10139 9126,10076 9200,10008 9275,9898 9349,9779 9423,9657 9498,9552 9572,9448 9646,9344 9721,9248 9795,9108 9870,8965 9944,8840 10018,8706 10093,8574 10167,8467 10241,8347 10316,8184 10390,8046 10464,7889 10539,7731 10613,7600 10688,7497 10762,7369 10836,7219 10911,7088 10985,6899 11059,6743 11134,6617 11208,6509 11283,6409 11357,6287 11431,6192 11506,6023 11580,5879 11654,5755 11729,5662 11803,5569 11877,5407 11952,5277 12026,5147 12101,5018 12175,4913 12249,4845 12324,4766 12398,4646 12472,4541 12547,4444 12621,4357 12696,4307 12770,4249 12844,4164 12919,4038 12993,3928 13067,3822 13142,3734 13216,3664 13290,3598 13365,3532 13439,3408 13514,3303 13588,3224 13662,3106 13737,3014 13811,2945 13885,2859 13960,2742 14034,2645 14109,2545 14183,2454 14257,2363 14332,2291 14406,2221 14480,2104 14555,2010 14629,1905 14703,1815"/>
 <path fill="none" stroke="rgb(255,211,32)" stroke-width="100" stroke-linejoin="round" d="M 1392,11273 L 1467,11271 1541,11268 1616,11265 1690,11263 1764,11263 1839,11263 1913,11257 1987,11257 2062,11255 2136,11254 2211,11251 2285,11251 2359,11251 2434,11248 2508,11246 2582,11242 2657,11239 2731,11236 2806,11236 2880,11236 2954,11231 3029,11227 3103,11224 3177,11222 3252,11217 3326,11215 3400,11215 3475,11212 3549,11209 3624,11209 3698,11203 3772,11199 3847,11198 3921,11197 3995,11192 4070,11187 4144,11182 4219,11178 4293,11182 4367,11180 4442,11179 4516,11175 4590,11167 4665,11163 4739,11158 4813,11143 4888,11139 4962,11138 5037,11132 5111,11122 5185,11114 5260,11104 5334,11075 5408,11070 5483,11068 5557,11058 5632,11043 5706,11035 5780,11025 5855,10996 5929,10989 6003,10983 6078,10968 6152,10952 6226,10940 6301,10928 6375,10902 6450,10894 6524,10887 6598,10874 6673,10862 6747,10846 6821,10832 6896,10811 6970,10801 7045,10792 7119,10774 7193,10753 7268,10733 7342,10717 7416,10683 7491,10666 7564,10649 7638,10621 7713,10571 7787,10540 7862,10509 7936,10453 8010,10426 8085,10404 8159,10355 8233,10255 8308,10209 8382,10164 8457,10060 8531,10017 8605,9973 8680,9894 8754,9731 8828,9657 8903,9588 8977,9430 9051,9372 9126,9320 9200,9216 9275,8983 9349,8920 9423,8839 9498,8661 9572,8593 9646,8536 9721,8439 9795,8206 9870,8125 9944,8043 10018,7826 10093,7778 10167,7737 10241,7642 10316,7450 10390,7377 10464,7312 10539,7130 10613,7089 10688,7051 10762,6974 10836,6826 10911,6766 10985,6705 11059,6585 11134,6556 11208,6511 11283,6441 11357,6282 11431,6226 11506,6170 11580,6050 11654,6013 11729,5986 11803,5915 11877,5764 11952,5709 12026,5660 12101,5543 12175,5507 12249,5482 12324,5415 12398,5262 12472,5209 12547,5154 12621,5124 12696,5096 12770,5063 12844,4993 12919,4808 12993,4751 13067,4703 13142,4677 13216,4647 13290,4625 13365,4553 13439,4388 13514,4334 13588,4281 13662,4168 13737,4136 13811,4107 13885,4048 13960,3907 14034,3863 14109,3809 14183,3688 14257,3651 14332,3624 14406,3547 14480,3422 14555,3362 14629,3296 14703,3235"/>
 <path fill="none" stroke="rgb(87,157,28)" stroke-width="100" stroke-linejoin="round" d="M 1392,11277 L 1467,11276 1541,11275 1616,11273 1690,11272 1764,11271 1839,11272 1913,11271 1987,11269 2062,11267 2136,11266 2211,11264 2285,11262 2359,11262 2434,11261 2508,11261 2582,11260 2657,11259 2731,11256 2806,11255 2880,11255 2954,11255 3029,11254 3103,11253 3177,11251 3252,11249 3326,11248 3400,11248 3475,11247 3549,11246 3624,11246 3698,11245 3772,11244 3847,11244 3921,11243 3995,11242 4070,11241 4144,11239 4219,11238 4293,11238 4367,11237 4442,11237 4516,11237 4590,11236 4665,11235 4739,11234 4813,11234 4888,11233 4962,11232 5037,11232 5111,11230 5185,11229 5260,11228 5334,11227 5408,11226 5483,11225 5557,11225 5632,11223 5706,11221 5780,11217 5855,11214 5929,11213 6003,11212 6078,11211 6152,11209 6226,11206 6301,11204 6375,11202 6450,11198 6524,11198 6598,11197 6673,11195 6747,11192 6821,11189 6896,11187 6970,11184 7045,11182 7119,11180 7193,11178 7268,11170 7342,11163 7416,11159 7491,11153 7564,11151 7638,11148 7713,11139 7787,11132 7862,11126 7936,11117 8010,11108 8085,11102 8159,11097 8233,11089 8308,11073 8382,11056 8457,11041 8531,11022 8605,11016 8680,11007 8754,10982 8828,10953 8903,10931 8977,10899 9051,10874 9126,10862 9200,10850 9275,10821 9349,10771 9423,10730 9498,10688 9572,10654 9646,10634 9721,10622 9795,10571 9870,10513 9944,10465 10018,10415 10093,10367 10167,10340 10241,10323 10316,10276 10390,10197 10464,10123 10539,10042 10613,9969 10688,9939 10762,9915 10836,9841 10911,9748 10985,9657 11059,9574 11134,9482 11208,9433 11283,9405 11357,9325 11431,9212 11506,9128 11580,9014 11654,8919 11729,8858 11803,8822 11877,8727 11952,8549 12026,8412 12101,8256 12175,8122 12249,8044 12324,8001 12398,7862 12472,7678 12547,7525 12621,7446 12696,7400 12770,7332 12844,7266 12919,7103 12993,6888 13067,6704 13142,6598 13216,6534 13290,6474 13365,6417 13439,6237 13514,6042 13588,5839 13662,5612 13737,5405 13811,5316 13885,5251 13960,5081 14034,4878 14109,4641 14183,4428 14257,4241 14332,4156 14406,4116 14480,3927 14555,3708 14629,3514 14703,3350"/>
 <path fill="none" stroke="rgb(126,0,33)" stroke-width="100" stroke-linejoin="round" d="M 1392,11276 L 1467,11276 1541,11275 1616,11274 1690,11274 1764,11274 1839,11274 1913,11269 1987,11264 2062,11264 2136,11264 2211,11263 2285,11263 2359,11263 2434,11249 2508,11248 2582,11248 2657,11243 2731,11241 2806,11241 2880,11241 2954,11236 3029,11231 3103,11207 3177,11204 3252,11199 3326,11199 3400,11199 3475,11193 3549,11183 3624,11174 3698,11169 3772,11166 3847,11166 3921,11166 3995,11150 4070,11139 4144,11131 4219,11123 4293,11088 4367,11088 4442,11088 4516,11070 4590,11055 4665,11048 4739,11035 4813,11025 4888,11025 4962,11025 5037,11006 5111,10976 5185,10931 5260,10900 5334,10883 5408,10883 5483,10883 5557,10851 5632,10805 5706,10780 5780,10764 5855,10742 5929,10742 6003,10742 6078,10708 6152,10669 6226,10635 6301,10600 6375,10579 6450,10579 6524,10579 6598,10552 6673,10503 6747,10488 6821,10464 6896,10418 6970,10418 7045,10418 7119,10381 7193,10365 7268,10326 7342,10299 7416,10256 7491,10256 7564,10256 7638,10215 7713,10173 7787,10144 7862,10114 7936,10070 8010,10070 8085,10070 8159,10017 8233,9966 8308,9934 8382,9901 8457,9855 8531,9855 8605,9855 8680,9783 8754,9737 8828,9427 8903,9357 8977,9291 9051,9291 9126,9291 9200,9193 9275,9115 9349,9048 9423,8980 9498,8921 9572,8921 9646,8921 9721,8829 9795,8746 9870,8679 9944,8631 10018,8568 10093,8568 10167,8568 10241,8470 10316,8368 10390,8297 10464,8233 10539,8177 10613,8177 10688,8177 10762,8100 10836,8016 10911,7964 10985,7915 11059,7875 11134,7875 11208,7875 11283,7799 11357,7799 11431,7728 11506,7666 11580,7613 11654,7613 11729,7613 11803,7538 11877,7464 11952,7427 12026,7392 12101,7364 12175,7364 12249,7364 12324,7300 12398,7251 12472,7217 12547,7193 12621,7193 12696,7193 12770,7193 12844,7136 12919,7075 12993,7027 13067,6999 13142,6999 13216,6999 13290,6999 13365,6953 13439,6886 13514,6886 13588,6839 13662,6801 13737,6801 13811,6801 13885,6725 13960,6647 14034,6610 14109,6571 14183,6526 14257,6526 14332,6526 14406,6439 14480,6362 14555,6274 14629,6197 14703,6120"/>
 <path fill="none" stroke="rgb(131,202,255)" stroke-width="100" stroke-linejoin="round" d="M 1392,11277 L 1467,11276 1541,11274 1616,11274 1690,11273 1764,11273 1839,11272 1913,11272 1987,11271 2062,11271 2136,11269 2211,11269 2285,11268 2359,11267 2434,11267 2508,11265 2582,11264 2657,11261 2731,11258 2806,11257 2880,11255 2954,11254 3029,11253 3103,11250 3177,11248 3252,11247 3326,11245 3400,11245 3475,11244 3549,11243 3624,11266 3698,11265 3772,11264 3847,11264 3921,11263 3995,11263 4070,11262 4144,11262 4219,11262 4293,11262 4367,11261 4442,11260 4516,11260 4590,11260 4665,11259 4739,11258 4813,11258 4888,11258 4962,11257 5037,11257 5111,11256 5185,11256 5260,11255 5334,11255 5408,11254 5483,11253 5557,11252 5632,11252 5706,11251 5780,11250 5855,11249 5929,11248 6003,11247 6078,11246 6152,11245 6226,11242 6301,11239 6375,11238 6450,11235 6524,11234 6598,11230 6673,11227 6747,11225 6821,11222 6896,11218 6970,11214 7045,11209 7119,11206 7193,11202 7268,11196 7342,11189 7416,11180 7491,11174 7564,11167 7638,11163 7713,11158 7787,11149 7862,11139 7936,11130 8010,11117 8085,11102 8159,11088 8233,11071 8308,11044 8382,11019 8457,10993 8531,10965 8605,10932 8680,10911 8754,10888 8828,10836 8903,10801 8977,10761 9051,10725 9126,10687 9200,10659 9275,10628 9349,10563 9423,10525 9498,10500 9572,10458 9646,10421 9721,10398 9795,10361 9870,10319 9944,10283 10018,10250 10093,10221 10167,10188 10241,10170 10316,10144 10390,10109 10464,10082 10539,10055 10613,10032 10688,10009 10762,9992 10836,9974 10911,9947 10985,9923 11059,9900 11134,9879 11208,9857 11283,9845 11357,9832 11431,9809 11506,9791 11580,9774 11654,9755 11729,9734 11803,9724 11877,9705 11952,9679 12026,9662 12101,9644 12175,9628 12249,9611 12324,9596 12398,9582 12472,9558 12547,9536 12621,9517 12696,9507 12770,9494 12844,9486 12919,9479 12993,9455 13067,9440 13142,9423 13216,9413 13290,9401 13365,9390 13439,9381 13514,9366 13588,9356 13662,9369 13737,9335 13811,9326 13885,9318 13960,9310 14034,9296 14109,9286 14183,9277 14257,9266 14332,9258 14406,9250 14480,9243 14555,9227 14629,9224 14703,9215"/>
 <text class="TextShape"><tspan class="TextParagraph" font-family="Liberation Sans, sans-serif" font-size="353px" font-weight="400"><tspan class="TextPosition" x="968" y="11845"><tspan fill="rgb(0,0,0)" stroke="none">27/07</tspan></tspan></tspan></text>
 <text class="TextShape"><tspan class="TextParagraph" font-family="Liberation Sans, sans-serif" font-size="353px" font-weight="400"><tspan class="TextPosition" x="3274" y="11845"><tspan fill="rgb(0,0,0)" stroke="none">27/08</tspan></tspan></tspan></text>
 <text class="TextShape"><tspan class="TextParagraph" font-family="Liberation Sans, sans-serif" font-size="353px" font-weight="400"><tspan class="TextPosition" x="5579" y="11845"><tspan fill="rgb(0,0,0)" stroke="none">27/09</tspan></tspan></tspan></text>
 <text class="TextShape"><tspan class="TextParagraph" font-family="Liberation Sans, sans-serif" font-size="353px" font-weight="400"><tspan class="TextPosition" x="7810" y="11845"><tspan fill="rgb(0,0,0)" stroke="none">27/10</tspan></tspan></tspan></text>
 <text class="TextShape"><tspan class="TextParagraph" font-family="Liberation Sans, sans-serif" font-size="353px" font-weight="400"><tspan class="TextPosition" x="10116" y="11845"><tspan fill="rgb(0,0,0)" stroke="none">27/11</tspan></tspan></tspan></text>
 <text class="TextShape"><tspan class="TextParagraph" font-family="Liberation Sans, sans-serif" font-size="353px" font-weight="400"><tspan class="TextPosition" x="12347" y="11845"><tspan fill="rgb(0,0,0)" stroke="none">27/12</tspan></tspan></tspan></text>
 <text class="TextShape"><tspan class="TextParagraph" font-family="Liberation Sans, sans-serif" font-size="353px" font-weight="400"><tspan class="TextPosition" x="110" y="9488"><tspan fill="rgb(0,0,0)" stroke="none">10.000</tspan></tspan></tspan></text>
 <text class="TextShape"><tspan class="TextParagraph" font-family="Liberation Sans, sans-serif" font-size="353px" font-weight="400"><tspan class="TextPosition" x="110" y="7579"><tspan fill="rgb(0,0,0)" stroke="none">20.000</tspan></tspan></tspan></text>
 <text class="TextShape"><tspan class="TextParagraph" font-family="Liberation Sans, sans-serif" font-size="353px" font-weight="400"><tspan class="TextPosition" x="110" y="5670"><tspan fill="rgb(0,0,0)" stroke="none">30.000</tspan></tspan></tspan></text>
 <text class="TextShape"><tspan class="TextParagraph" font-family="Liberation Sans, sans-serif" font-size="353px" font-weight="400"><tspan class="TextPosition" x="110" y="3761"><tspan fill="rgb(0,0,0)" stroke="none">40.000</tspan></tspan></tspan></text>
 <text class="TextShape"><tspan class="TextParagraph" font-family="Liberation Sans, sans-serif" font-size="353px" font-weight="400"><tspan class="TextPosition" x="110" y="1852"><tspan fill="rgb(0,0,0)" stroke="none">50.000</tspan></tspan></tspan></text>
 <text class="TextShape"><tspan class="TextParagraph" font-family="Liberation Sans, sans-serif" font-size="459px" font-weight="400"><tspan class="TextPosition" x="1968" y="538"><tspan fill="rgb(0,0,0)" stroke="none">Covid-19. Muertes acumuladas en Europa Occidental (1)</tspan></tspan></tspan></text>
 <path fill="none" stroke="rgb(0,69,134)" stroke-width="100" stroke-linejoin="round" d="M 2036,2166 L 2836,2166"/>
 <path fill="none" stroke="rgb(255,66,14)" stroke-width="100" stroke-linejoin="round" d="M 2036,3128 L 2836,3128"/>
 <path fill="none" stroke="rgb(255,211,32)" stroke-width="100" stroke-linejoin="round" d="M 2036,4090 L 2836,4090"/>
 <path fill="none" stroke="rgb(87,157,28)" stroke-width="100" stroke-linejoin="round" d="M 2036,5052 L 2836,5052"/>
 <path fill="none" stroke="rgb(126,0,33)" stroke-width="100" stroke-linejoin="round" d="M 2036,6013 L 2836,6013"/>
 <path fill="none" stroke="rgb(131,202,255)" stroke-width="100" stroke-linejoin="round" d="M 2036,6975 L 2836,6975"/>
 <text class="TextShape"><tspan class="TextParagraph" font-family="Liberation Sans, sans-serif" font-size="353px" font-weight="400"><tspan class="TextPosition" x="2936" y="2286"><tspan fill="rgb(0,0,0)" stroke="none">Reino Unido</tspan></tspan></tspan></text>
 <text class="TextShape"><tspan class="TextParagraph" font-family="Liberation Sans, sans-serif" font-size="353px" font-weight="400"><tspan class="TextPosition" x="2936" y="3248"><tspan fill="rgb(0,0,0)" stroke="none">Italia</tspan></tspan></tspan></text>
 <text class="TextShape"><tspan class="TextParagraph" font-family="Liberation Sans, sans-serif" font-size="353px" font-weight="400"><tspan class="TextPosition" x="2936" y="4210"><tspan fill="rgb(0,0,0)" stroke="none">Francia</tspan></tspan></tspan></text>
 <text class="TextShape"><tspan class="TextParagraph" font-family="Liberation Sans, sans-serif" font-size="353px" font-weight="400"><tspan class="TextPosition" x="2936" y="5172"><tspan fill="rgb(0,0,0)" stroke="none">Alemania</tspan></tspan></tspan></text>
 <text class="TextShape"><tspan class="TextParagraph" font-family="Liberation Sans, sans-serif" font-size="353px" font-weight="400"><tspan class="TextPosition" x="2936" y="6133"><tspan fill="rgb(0,0,0)" stroke="none">España</tspan></tspan></tspan></text>
 <text class="TextShape"><tspan class="TextParagraph" font-family="Liberation Sans, sans-serif" font-size="353px" font-weight="400"><tspan class="TextPosition" x="2936" y="7095"><tspan fill="rgb(0,0,0)" stroke="none">Bélgica</tspan></tspan></tspan></text>
</svg>