<?xml version="1.0" encoding="UTF-8"?>
<!DOCTYPE svg PUBLIC "-//W3C//DTD SVG 1.1//EN" "http://www.w3.org/Graphics/SVG/1.1/DTD/svg11.dtd">
<svg width="150mm" height="120mm" viewBox="0 0 15000 12000" version="1.1" xmlns="http://www.w3.org/2000/svg" xmlns:xlink="http://www.w3.org/1999/xlink" stroke-width="28.222" stroke-linejoin="round" xml:space="preserve">
 <path fill="rgb(255,255,255)" stroke="none" d="M 7500,12000 L 0,12000 0,0 15000,0 15000,12000 7500,12000 Z"/>
 <path fill="none" stroke="rgb(0,0,0)" stroke-linejoin="round" d="M 8024,11186 L 1304,11186 1304,1027 14744,1027 14744,11186 8024,11186 Z"/>
 <path fill="none" stroke="rgb(0,0,0)" stroke-linejoin="round" d="M 14744,11185 L 1304,11185"/>
 <path fill="none" stroke="rgb(0,0,0)" stroke-linejoin="round" d="M 14744,9915 L 1304,9915"/>
 <path fill="none" stroke="rgb(0,0,0)" stroke-linejoin="round" d="M 14744,8645 L 1304,8645"/>
 <path fill="none" stroke="rgb(0,0,0)" stroke-linejoin="round" d="M 14744,7375 L 1304,7375"/>
 <path fill="none" stroke="rgb(0,0,0)" stroke-linejoin="round" d="M 14744,6105 L 1304,6105"/>
 <path fill="none" stroke="rgb(0,0,0)" stroke-linejoin="round" d="M 14744,4836 L 1304,4836"/>
 <path fill="none" stroke="rgb(0,0,0)" stroke-linejoin="round" d="M 14744,3566 L 1304,3566"/>
 <path fill="none" stroke="rgb(0,0,0)" stroke-linejoin="round" d="M 14744,2296 L 1304,2296"/>
 <path fill="none" stroke="rgb(0,0,0)" stroke-linejoin="round" d="M 14744,1026 L 1304,1026"/>
 <path fill="none" stroke="rgb(0,0,0)" stroke-linejoin="round" d="M 1304,11335 L 1304,11185"/>
 <path fill="none" stroke="rgb(0,0,0)" stroke-linejoin="round" d="M 1304,11335 L 1304,11185"/>
 <path fill="none" stroke="rgb(0,0,0)" stroke-linejoin="round" d="M 3408,11335 L 3408,11185"/>
 <path fill="none" stroke="rgb(0,0,0)" stroke-linejoin="round" d="M 3408,11335 L 3408,11185"/>
 <path fill="none" stroke="rgb(0,0,0)" stroke-linejoin="round" d="M 5512,11335 L 5512,11185"/>
 <path fill="none" stroke="rgb(0,0,0)" stroke-linejoin="round" d="M 5512,11335 L 5512,11185"/>
 <path fill="none" stroke="rgb(0,0,0)" stroke-linejoin="round" d="M 7548,11335 L 7548,11185"/>
 <path fill="none" stroke="rgb(0,0,0)" stroke-linejoin="round" d="M 7548,11335 L 7548,11185"/>
 <path fill="none" stroke="rgb(0,0,0)" stroke-linejoin="round" d="M 9652,11335 L 9652,11185"/>
 <path fill="none" stroke="rgb(0,0,0)" stroke-linejoin="round" d="M 9652,11335 L 9652,11185"/>
 <path fill="none" stroke="rgb(0,0,0)" stroke-linejoin="round" d="M 11689,11335 L 11689,11185"/>
 <path fill="none" stroke="rgb(0,0,0)" stroke-linejoin="round" d="M 11689,11335 L 11689,11185"/>
 <path fill="none" stroke="rgb(0,0,0)" stroke-linejoin="round" d="M 13793,11335 L 13793,11185"/>
 <path fill="none" stroke="rgb(0,0,0)" stroke-linejoin="round" d="M 13793,11335 L 13793,11185"/>
 <path fill="none" stroke="rgb(0,0,0)" stroke-linejoin="round" d="M 1304,11185 L 14744,11185"/>
 <path fill="none" stroke="rgb(0,0,0)" stroke-linejoin="round" d="M 1154,11185 L 1304,11185"/>
 <path fill="none" stroke="rgb(0,0,0)" stroke-linejoin="round" d="M 1154,11185 L 1304,11185"/>
 <path fill="none" stroke="rgb(0,0,0)" stroke-linejoin="round" d="M 1154,9915 L 1304,9915"/>
 <path fill="none" stroke="rgb(0,0,0)" stroke-linejoin="round" d="M 1154,9915 L 1304,9915"/>
 <path fill="none" stroke="rgb(0,0,0)" stroke-linejoin="round" d="M 1154,8645 L 1304,8645"/>
 <path fill="none" stroke="rgb(0,0,0)" stroke-linejoin="round" d="M 1154,8645 L 1304,8645"/>
 <path fill="none" stroke="rgb(0,0,0)" stroke-linejoin="round" d="M 1154,7375 L 1304,7375"/>
 <path fill="none" stroke="rgb(0,0,0)" stroke-linejoin="round" d="M 1154,7375 L 1304,7375"/>
 <path fill="none" stroke="rgb(0,0,0)" stroke-linejoin="round" d="M 1154,6105 L 1304,6105"/>
 <path fill="none" stroke="rgb(0,0,0)" stroke-linejoin="round" d="M 1154,6105 L 1304,6105"/>
 <path fill="none" stroke="rgb(0,0,0)" stroke-linejoin="round" d="M 1154,4836 L 1304,4836"/>
 <path fill="none" stroke="rgb(0,0,0)" stroke-linejoin="round" d="M 1154,4836 L 1304,4836"/>
 <path fill="none" stroke="rgb(0,0,0)" stroke-linejoin="round" d="M 1154,3566 L 1304,3566"/>
 <path fill="none" stroke="rgb(0,0,0)" stroke-linejoin="round" d="M 1154,3566 L 1304,3566"/>
 <path fill="none" stroke="rgb(0,0,0)" stroke-linejoin="round" d="M 1154,2296 L 1304,2296"/>
 <path fill="none" stroke="rgb(0,0,0)" stroke-linejoin="round" d="M 1154,2296 L 1304,2296"/>
 <path fill="none" stroke="rgb(0,0,0)" stroke-linejoin="round" d="M 1154,1026 L 1304,1026"/>
 <path fill="none" stroke="rgb(0,0,0)" stroke-linejoin="round" d="M 1154,1026 L 1304,1026"/>
 <path fill="none" stroke="rgb(0,0,0)" stroke-linejoin="round" d="M 1304,11185 L 1304,1026"/>
 <path fill="none" stroke="rgb(0,0,0)" stroke-width="100" stroke-linejoin="round" d="M 1304,11185 L 1371,11185 1439,11185 1507,11185 1575,11185 1643,11185 1711,11185 1779,11086 1847,11086 1914,11086 1982,11086 2050,11086 2118,11086 2186,11086 2254,10843 2322,10843 2390,10843 2458,10839 2525,10839 2593,10839 2661,10839 2729,10834 2797,10830 2865,10381 2933,10372 3001,10372 3068,10372 3136,10372 3204,10372 3272,10372 3340,10372 3408,10372 3476,10372 3544,10372 3612,10372 3679,10372 3747,10372 3815,10372 3883,10372 3951,9851 4019,9851 4087,9851 4155,9851 4223,9851 4290,9851 4358,9851 4426,9851 4494,9851 4562,9851 4630,9851 4698,9851 4766,9851 4833,9447 4901,9447 4969,9447 5037,9447 5105,9299 5173,9299 5241,9187 5309,9187 5377,9187 5444,9187 5512,9187 5580,9187 5648,9187 5716,9187 5784,8958 5852,8958 5920,8958 5987,8958 6055,8958 6123,8958 6191,8958 6259,8954 6327,8693 6395,8693 6463,8693 6531,8644 6598,8626 6666,8581 6734,8554 6802,8523 6870,8523 6938,8523 7006,8433 7074,8374 7142,8365 7209,8294 7277,8262 7345,8262 7413,8262 7481,8119 7548,8051 7616,8020 7684,7988 7751,7867 7819,7867 7887,7867 7955,7701 8023,7634 8091,7526 8159,7423 8227,7302 8295,7302 8362,7302 8430,6942 8498,6848 8566,6714 8634,6570 8702,6467 8770,6467 8838,6467 8905,6139 8973,6013 9041,5839 9109,5736 9177,5651 9245,5651 9313,5651 9381,5467 9449,5381 9516,5296 9584,5188 9652,5063 9720,5063 9788,5063 9856,4906 9924,4811 9992,4771 10060,4726 10127,4699 10195,4699 10263,4699 10331,4542 10399,4542 10467,4448 10535,4367 10603,4295 10670,4295 10738,4295 10806,4201 10874,4057 10942,3999 11010,3958 11078,3913 11146,3913 11214,3913 11281,3837 11349,3792 11417,3725 11485,3694 11553,3694 11621,3694 11689,3694 11757,3640 11824,3554 11892,3518 11960,3469 12028,3469 12096,3469 12164,3469 12232,3384 12300,3357 12368,3357 12435,3357 12503,3249 12571,3249 12639,3249 12707,3155 12775,3114 12843,3065 12911,3025 12979,2971 13046,2971 13114,2971 13182,2850 13250,2805 13318,2746 13386,2688 13454,2616 13522,2616 13589,2616 13657,2464 13725,2410 13793,2306 13861,2266 13929,2194 13997,2194 14065,2194 14133,2127 14200,2127 14268,1862 14336,1795 14404,1736 14472,1736 14540,1736 14608,1566 14676,1485 14744,1422"/>
 <path fill="none" stroke="rgb(255,66,14)" stroke-width="100" stroke-linejoin="round" d="M 1304,11185 L 1371,11185 1439,11185 1507,11185 1575,11185 1643,11185 1711,11185 1779,11178 1847,11165 1914,11165 1982,11165 2050,11165 2118,11165 2186,11165 2254,11171 2322,11175 2390,11168 2458,11168 2525,11168 2593,11168 2661,11168 2729,11165 2797,11165 2865,11165 2933,11165 3001,11165 3068,11165 3136,11165 3204,11161 3272,11158 3340,11155 3408,11155 3476,11151 3544,11151 3612,11151 3679,11148 3747,11148 3815,11138 3883,11131 3951,11131 4019,11131 4087,11131 4155,11121 4223,11115 4290,11118 4358,11118 4426,11118 4494,11118 4562,11118 4630,11102 4698,11098 4766,11095 4833,11085 4901,11075 4969,11075 5037,11075 5105,11055 5173,11042 5241,11025 5309,10982 5377,10922 5444,10922 5512,10922 5580,10843 5648,10786 5716,10700 5784,10640 5852,10590 5920,10590 5987,10590 6055,10560 6123,10544 6191,10511 6259,10481 6327,10448 6395,10448 6463,10448 6531,10408 6598,10404 6666,10371 6734,10282 6802,10222 6870,10222 6938,10222 7006,10195 7074,10192 7142,10185 7209,10175 7277,10169 7345,10169 7413,10169 7481,10132 7548,10072 7616,10019 7684,9946 7751,9880 7819,9880 7887,9880 7955,9840 8023,9814 8091,9916 8159,9837 8227,9790 8295,9790 8362,9790 8430,9714 8498,9661 8566,9618 8634,9548 8702,9482 8770,9482 8838,9482 8905,9385 8973,9352 9041,9309 9109,9183 9177,9103 9245,9103 9313,9103 9381,9010 9449,8990 9516,8894 9584,8841 9652,8765 9720,8765 9788,8765 9856,8718 9924,8682 9992,8602 10060,8572 10127,8552 10195,8552 10263,8552 10331,8506 10399,8506 10467,8453 10535,8399 10603,8320 10670,8320 10738,8320 10806,8141 10874,8104 10942,8051 11010,7981 11078,7941 11146,7941 11214,7941 11281,7892 11349,7832 11417,7799 11485,7775 11553,7775 11621,7775 11689,7775 11757,7749 11824,7726 11892,7709 11960,7686 12028,7686 12096,7686 12164,7686 12232,7639 12300,7613 12368,7613 12435,7586 12503,7583 12571,7583 12639,7583 12707,7536 12775,7510 12843,7450 12911,7443 12979,7417 13046,7417 13114,7417 13182,7281 13250,7274 13318,7231 13386,7121 13454,7015 13522,7015 13589,7015 13657,6912 13725,6839 13793,6643 13861,6418 13929,6172 13997,6172 14065,6172 14133,5861 14200,5562 14268,5313 14336,5114 14404,4742 14472,4742 14540,4742 14608,4357 14676,3982 14744,3737"/>
 <path fill="none" stroke="rgb(255,211,32)" stroke-width="100" stroke-linejoin="round" d="M 1304,11182 L 1371,11182 1439,11180 1507,11180 1575,11180 1643,11180 1711,11180 1779,11178 1847,11178 1914,11176 1982,11176 2050,11176 2118,11176 2186,11176 2254,11176 2322,11172 2390,11168 2458,11168 2525,11168 2593,11168 2661,11168 2729,11159 2797,11159 2865,11159 2933,11155 3001,11155 3068,11155 3136,11155 3204,11151 3272,11145 3340,11140 3408,11132 3476,11130 3544,11130 3612,11130 3679,11113 3747,11090 3815,11088 3883,11079 3951,11058 4019,11058 4087,11058 4155,11044 4223,11025 4290,11023 4358,11012 4426,11002 4494,11002 4562,11002 4630,10966 4698,10941 4766,10924 4833,10913 4901,10901 4969,10901 5037,10901 5105,10865 5173,10829 5241,10819 5309,10781 5377,10768 5444,10768 5512,10768 5580,10713 5648,10688 5716,10644 5784,10621 5852,10596 5920,10596 5987,10596 6055,10528 6123,10484 6191,10442 6259,10379 6327,10337 6395,10337 6463,10337 6531,10268 6598,10249 6666,10167 6734,10131 6802,10110 6870,10110 6938,10110 7006,10028 7074,9956 7142,9914 7209,9870 7277,9817 7345,9817 7413,9817 7481,9700 7548,9645 7616,9601 7684,9563 7751,9496 7819,9496 7887,9496 7955,9369 8023,9340 8091,9163 8159,9052 8227,9001 8295,9001 8362,9001 8430,8839 8498,8743 8566,8654 8634,8581 8702,8505 8770,8505 8838,8505 8905,8396 8973,8257 9041,8154 9109,8120 9177,8036 9245,8036 9313,8036 9381,7931 9449,7824 9516,7739 9584,7678 9652,7628 9720,7628 9788,7628 9856,7506 9924,7441 9992,7392 10060,7371 10127,7291 10195,7291 10263,7291 10331,7184 10399,7184 10467,7157 10535,7033 10603,6944 10670,6944 10738,6944 10806,6854 10874,6789 10942,6759 11010,6690 11078,6652 11146,6652 11214,6652 11281,6591 11349,6566 11417,6526 11485,6505 11553,6505 11621,6505 11689,6505 11757,6467 11824,6448 11892,6400 11960,6379 12028,6379 12096,6379 12164,6379 12232,6353 12300,6324 12368,6324 12435,6280 12503,6248 12571,6248 12639,6248 12707,6213 12775,5877 12843,5869 12911,5856 12979,5824 13046,5824 13114,5824 13182,5774 13250,5711 13318,5692 13386,5669 13454,5625 13522,5625 13589,5625 13657,5555 13725,5492 13793,5463 13861,5381 13929,5267 13997,5267 14065,5267 14133,5164 14200,5017 14268,4960 14336,4910 14404,4825 14472,4825 14540,4825 14608,4724 14676,4634 14744,4344"/>
 <path fill="none" stroke="rgb(87,157,28)" stroke-width="100" stroke-linejoin="round" d="M 1304,11185 L 1371,11185 1439,11185 1507,11179 1575,11179 1643,11179 1711,11179 1779,11179 1847,11179 1914,11179 1982,11179 2050,11173 2118,11173 2186,11173 2254,11173 2322,11173 2390,11167 2458,11167 2525,11167 2593,11167 2661,11167 2729,11161 2797,11161 2865,11161 2933,11161 3001,11156 3068,11156 3136,11156 3204,11144 3272,11144 3340,11144 3408,11144 3476,11144 3544,11144 3612,11144 3679,11138 3747,11138 3815,11127 3883,11127 3951,11121 4019,11121 4087,11121 4155,11103 4223,11103 4290,11074 4358,11074 4426,11074 4494,11074 4562,11074 4630,11074 4698,11074 4766,11063 4833,11063 4901,11040 4969,11040 5037,11040 5105,11011 5173,11005 5241,10964 5309,10935 5377,10924 5444,10924 5512,10924 5580,10889 5648,10866 5716,10848 5784,10825 5852,10773 5920,10773 5987,10773 6055,10715 6123,10669 6191,10617 6259,10594 6327,10588 6395,10588 6463,10588 6531,10541 6598,10530 6666,10501 6734,10472 6802,10449 6870,10449 6938,10449 7006,10420 7074,10391 7142,10368 7209,10310 7277,10275 7345,10275 7413,10275 7481,10211 7548,10153 7616,10130 7684,10118 7751,10055 7819,10055 7887,10055 7955,9950 8023,9887 8091,9823 8159,9788 8227,9730 8295,9730 8362,9730 8430,9638 8498,9556 8566,9527 8634,9481 8702,9406 8770,9406 8838,9406 8905,9336 8973,9267 9041,9209 9109,9139 9177,9128 9245,9128 9313,9128 9381,9006 9449,8965 9516,8925 9584,8890 9652,8815 9720,8815 9788,8815 9856,8739 9924,8676 9992,8653 10060,8595 10127,8566 10195,8566 10263,8566 10331,8502 10399,8502 10467,8485 10535,8456 10603,8421 10670,8421 10738,8421 10806,8328 10874,8311 10942,8282 11010,8276 11078,8230 11146,8230 11214,8230 11281,8201 11349,8183 11417,8160 11485,8143 11553,8143 11621,8143 11689,8143 11757,8067 11824,8038 11892,8027 11960,8009 12028,8009 12096,8009 12164,8009 12232,7917 12300,7882 12368,7882 12435,7836 12503,7755 12571,7755 12639,7755 12707,7615 12775,7482 12843,7436 12911,7337 12979,7303 13046,7303 13114,7303 13182,7140 13250,7082 13318,6949 13386,6828 13454,6712 13522,6712 13589,6712 13657,6451 13725,6312 13793,6144 13861,5994 13929,5913 13997,5913 14065,5913 14133,5670 14200,5542 14268,5421 14336,5334 14404,5189 14472,5189 14540,5189 14608,4963 14676,4899 14744,4835"/>
 <path fill="none" stroke="rgb(126,0,33)" stroke-width="100" stroke-linejoin="round" d="M 1304,11185 L 1371,11185 1439,11185 1507,11185 1575,11185 1643,11185 1711,11185 1779,11185 1847,11185 1914,11185 1982,11185 2050,11185 2118,11185 2186,11185 2254,11185 2322,11185 2390,11185 2458,11185 2525,11185 2593,11185 2661,11185 2729,11185 2797,11185 2865,11185 2933,11185 3001,11185 3068,11185 3136,11185 3204,11180 3272,11180 3340,11180 3408,11180 3476,11180 3544,11180 3612,11180 3679,11180 3747,11180 3815,11180 3883,11180 3951,11180 4019,11180 4087,11180 4155,11170 4223,11165 4290,11165 4358,11165 4426,11165 4494,11165 4562,11165 4630,11160 4698,11155 4766,11155 4833,11150 4901,11150 4969,11150 5037,11150 5105,11150 5173,11145 5241,11145 5309,11145 5377,11140 5444,11140 5512,11140 5580,11136 5648,11136 5716,11126 5784,11111 5852,11111 5920,11111 5987,11111 6055,11106 6123,11106 6191,11101 6259,11101 6327,11087 6395,11087 6463,11087 6531,11077 6598,11072 6666,11052 6734,11038 6802,11033 6870,11033 6938,11033 7006,11004 7074,11004 7142,10974 7209,10945 7277,10906 7345,10906 7413,10906 7481,10818 7548,10793 7616,10769 7684,10730 7751,10681 7819,10681 7887,10681 7955,10539 8023,10451 8091,10387 8159,10275 8227,10206 8295,10206 8362,10206 8430,9971 8498,9869 8566,9776 8634,9644 8702,9585 8770,9585 8838,9585 8905,9238 8973,9203 9041,9125 9109,9027 9177,8905 9245,8905 9313,8905 9381,8626 9449,8499 9516,8396 9584,8274 9652,8152 9720,8152 9788,8152 9856,7907 9924,7824 9992,7750 10060,7662 10127,7569 10195,7569 10263,7569 10331,7178 10399,7178 10467,7051 10535,6963 10603,6894 10670,6894 10738,6894 10806,6762 10874,6699 10942,6664 11010,6615 11078,6576 11146,6576 11214,6576 11281,6474 11349,6449 11417,6410 11485,6395 11553,6395 11621,6395 11689,6395 11757,6293 11824,6268 11892,6258 11960,6249 12028,6249 12096,6249 12164,6249 12232,6146 12300,6136 12368,6136 12435,6097 12503,6087 12571,6087 12639,6087 12707,6043 12775,6033 12843,6024 12911,6009 12979,5990 13046,5990 13114,5990 13182,5927 13250,5888 13318,5853 13386,5804 13454,5751 13522,5751 13589,5751 13657,5623 13725,5604 13793,5584 13861,5530 13929,5457 13997,5457 14065,5457 14133,5345 14200,5286 14268,5232 14336,5198 14404,5051 14472,5051 14540,5051 14608,4958 14676,4929 14744,4895"/>
 <path fill="none" stroke="rgb(131,202,255)" stroke-width="100" stroke-linejoin="round" d="M 1304,11185 L 1371,11185 1439,11185 1507,11185 1575,11185 1643,11185 1711,11185 1779,11185 1847,11185 1914,11185 1982,11185 2050,11185 2118,11185 2186,11185 2254,11185 2322,11185 2390,11179 2458,11179 2525,11179 2593,11179 2661,11179 2729,11168 2797,11168 2865,11162 2933,11162 3001,11162 3068,11162 3136,11162 3204,11157 3272,11151 3340,11146 3408,11146 3476,11140 3544,11140 3612,11140 3679,11140 3747,11140 3815,11134 3883,11134 3951,11134 4019,11134 4087,11134 4155,11118 4223,11107 4290,11096 4358,11079 4426,11068 4494,11068 4562,11068 4630,11046 4698,11018 4766,11018 4833,11018 4901,10934 4969,10934 5037,10934 5105,10934 5173,10923 5241,10912 5309,10895 5377,10890 5444,10890 5512,10890 5580,10884 5648,10834 5716,10823 5784,10812 5852,10795 5920,10795 5987,10795 6055,10768 6123,10768 6191,10762 6259,10751 6327,10723 6395,10723 6463,10723 6531,10695 6598,10679 6666,10601 6734,10595 6802,10579 6870,10579 6938,10579 7006,10556 7074,10506 7142,10484 7209,10456 7277,10434 7345,10434 7413,10434 7481,10406 7548,10345 7616,10340 7684,10306 7751,10245 7819,10245 7887,10245 7955,10140 8023,10112 8091,10012 8159,9906 8227,9845 8295,9845 8362,9845 8430,9767 8498,9645 8566,9551 8634,9495 8702,9384 8770,9384 8838,9384 8905,9306 8973,9223 9041,9161 9109,9111 9177,8989 9245,8989 9313,8989 9381,8922 9449,8861 9516,8767 9584,8734 9652,8689 9720,8689 9788,8689 9856,8650 9924,8611 9992,8589 10060,8561 10127,8545 10195,8545 10263,8545 10331,8478 10399,8478 10467,8478 10535,8411 10603,8350 10670,8350 10738,8350 10806,8294 10874,8233 10942,8189 11010,8167 11078,8128 11146,8128 11214,8128 11281,8072 11349,8044 11417,8028 11485,8028 11553,8028 11621,8028 11689,8028 11757,7961 11824,7922 11892,7900 11960,7872 12028,7872 12096,7872 12164,7872 12232,7805 12300,7789 12368,7789 12435,7761 12503,7733 12571,7733 12639,7733 12707,7683 12775,7661 12843,7616 12911,7594 12979,7533 13046,7533 13114,7533 13182,7427 13250,7344 13318,7272 13386,7161 13454,7100 13522,7100 13589,7100 13657,6861 13725,6649 13793,6455 13861,6210 13929,6082 13997,6082 14065,6082 14133,5822 14200,5611 14268,5472 14336,5394 14404,5322 14472,5322 14540,5322 14608,5100 14676,5028 14744,4900"/>
 <text class="TextShape"><tspan class="TextParagraph" font-family="Liberation Sans, sans-serif" font-size="353px" font-weight="400"><tspan class="TextPosition" x="880" y="11753"><tspan fill="rgb(0,0,0)" stroke="none">27/07</tspan></tspan></tspan></text>
 <text class="TextShape"><tspan class="TextParagraph" font-family="Liberation Sans, sans-serif" font-size="353px" font-weight="400"><tspan class="TextPosition" x="2984" y="11753"><tspan fill="rgb(0,0,0)" stroke="none">27/08</tspan></tspan></tspan></text>
 <text class="TextShape"><tspan class="TextParagraph" font-family="Liberation Sans, sans-serif" font-size="353px" font-weight="400"><tspan class="TextPosition" x="5088" y="11753"><tspan fill="rgb(0,0,0)" stroke="none">27/09</tspan></tspan></tspan></text>
 <text class="TextShape"><tspan class="TextParagraph" font-family="Liberation Sans, sans-serif" font-size="353px" font-weight="400"><tspan class="TextPosition" x="7125" y="11753"><tspan fill="rgb(0,0,0)" stroke="none">27/10</tspan></tspan></tspan></text>
 <text class="TextShape"><tspan class="TextParagraph" font-family="Liberation Sans, sans-serif" font-size="353px" font-weight="400"><tspan class="TextPosition" x="9229" y="11753"><tspan fill="rgb(0,0,0)" stroke="none">27/11</tspan></tspan></tspan></text>
 <text class="TextShape"><tspan class="TextParagraph" font-family="Liberation Sans, sans-serif" font-size="353px" font-weight="400"><tspan class="TextPosition" x="11266" y="11753"><tspan fill="rgb(0,0,0)" stroke="none">27/12</tspan></tspan></tspan></text>
 <text class="TextShape"><tspan class="TextParagraph" font-family="Liberation Sans, sans-serif" font-size="353px" font-weight="400"><tspan class="TextPosition" x="13370" y="11753"><tspan fill="rgb(0,0,0)" stroke="none">27/01</tspan></tspan></tspan></text>
 <text class="TextShape"><tspan class="TextParagraph" font-family="Liberation Sans, sans-serif" font-size="353px" font-weight="400"><tspan class="TextPosition" x="869" y="11306"><tspan fill="rgb(0,0,0)" stroke="none">0</tspan></tspan></tspan></text>
 <text class="TextShape"><tspan class="TextParagraph" font-family="Liberation Sans, sans-serif" font-size="353px" font-weight="400"><tspan class="TextPosition" x="207" y="10036"><tspan fill="rgb(0,0,0)" stroke="none">1.000</tspan></tspan></tspan></text>
 <text class="TextShape"><tspan class="TextParagraph" font-family="Liberation Sans, sans-serif" font-size="353px" font-weight="400"><tspan class="TextPosition" x="207" y="8766"><tspan fill="rgb(0,0,0)" stroke="none">2.000</tspan></tspan></tspan></text>
 <text class="TextShape"><tspan class="TextParagraph" font-family="Liberation Sans, sans-serif" font-size="353px" font-weight="400"><tspan class="TextPosition" x="207" y="7496"><tspan fill="rgb(0,0,0)" stroke="none">3.000</tspan></tspan></tspan></text>
 <text class="TextShape"><tspan class="TextParagraph" font-family="Liberation Sans, sans-serif" font-size="353px" font-weight="400"><tspan class="TextPosition" x="207" y="6226"><tspan fill="rgb(0,0,0)" stroke="none">4.000</tspan></tspan></tspan></text>
 <text class="TextShape"><tspan class="TextParagraph" font-family="Liberation Sans, sans-serif" font-size="353px" font-weight="400"><tspan class="TextPosition" x="207" y="4956"><tspan fill="rgb(0,0,0)" stroke="none">5.000</tspan></tspan></tspan></text>
 <text class="TextShape"><tspan class="TextParagraph" font-family="Liberation Sans, sans-serif" font-size="353px" font-weight="400"><tspan class="TextPosition" x="207" y="3686"><tspan fill="rgb(0,0,0)" stroke="none">6.000</tspan></tspan></tspan></text>
 <text class="TextShape"><tspan class="TextParagraph" font-family="Liberation Sans, sans-serif" font-size="353px" font-weight="400"><tspan class="TextPosition" x="207" y="2416"><tspan fill="rgb(0,0,0)" stroke="none">7.000</tspan></tspan></tspan></text>
 <text class="TextShape"><tspan class="TextParagraph" font-family="Liberation Sans, sans-serif" font-size="353px" font-weight="400"><tspan class="TextPosition" x="207" y="1146"><tspan fill="rgb(0,0,0)" stroke="none">8.000</tspan></tspan></tspan></text>
 <text class="TextShape"><tspan class="TextParagraph" font-family="Arial, sans-serif" font-size="388px" font-weight="400"><tspan class="TextPosition" x="2466" y="616"><tspan fill="rgb(0,0,0)" stroke="none">Muertes acumuladas CCAA por millón de mayores de 65 años (1)</tspan></tspan></tspan></text>
 <path fill="none" stroke="rgb(0,0,0)" stroke-width="100" stroke-linejoin="round" d="M 2036,1784 L 2836,1784"/>
 <path fill="none" stroke="rgb(255,66,14)" stroke-width="100" stroke-linejoin="round" d="M 2036,3018 L 2836,3018"/>
 <path fill="none" stroke="rgb(255,211,32)" stroke-width="100" stroke-linejoin="round" d="M 2036,4252 L 2836,4252"/>
 <path fill="none" stroke="rgb(87,157,28)" stroke-width="100" stroke-linejoin="round" d="M 2036,5486 L 2836,5486"/>
 <path fill="none" stroke="rgb(126,0,33)" stroke-width="100" stroke-linejoin="round" d="M 2036,6719 L 2836,6719"/>
 <path fill="none" stroke="rgb(131,202,255)" stroke-width="100" stroke-linejoin="round" d="M 2036,7953 L 2836,7953"/>
 <text class="TextShape"><tspan class="TextParagraph" font-family="Liberation Sans, sans-serif" font-size="353px" font-weight="400"><tspan class="TextPosition" x="2936" y="1904"><tspan fill="rgb(0,0,0)" stroke="none">Aragón</tspan></tspan></tspan></text>
 <text class="TextShape"><tspan class="TextParagraph" font-family="Liberation Sans, sans-serif" font-size="353px" font-weight="400"><tspan class="TextPosition" x="2936" y="3138"><tspan fill="rgb(0,0,0)" stroke="none">Castilla–La Mancha</tspan></tspan></tspan></text>
 <text class="TextShape"><tspan class="TextParagraph" font-family="Liberation Sans, sans-serif" font-size="353px" font-weight="400"><tspan class="TextPosition" x="2936" y="4372"><tspan fill="rgb(0,0,0)" stroke="none">Castilla y León</tspan></tspan></tspan></text>
 <text class="TextShape"><tspan class="TextParagraph" font-family="Liberation Sans, sans-serif" font-size="353px" font-weight="400"><tspan class="TextPosition" x="2936" y="5606"><tspan fill="rgb(0,0,0)" stroke="none">Extremadura</tspan></tspan></tspan></text>
 <text class="TextShape"><tspan class="TextParagraph" font-family="Liberation Sans, sans-serif" font-size="353px" font-weight="400"><tspan class="TextPosition" x="2936" y="6839"><tspan fill="rgb(0,0,0)" stroke="none">Asturias </tspan></tspan></tspan></text>
 <text class="TextShape"><tspan class="TextParagraph" font-family="Liberation Sans, sans-serif" font-size="353px" font-weight="400"><tspan class="TextPosition" x="2936" y="8073"><tspan fill="rgb(0,0,0)" stroke="none">Murcia</tspan></tspan></tspan></text>
</svg>