<?xml version="1.0" encoding="UTF-8"?>
<!DOCTYPE svg PUBLIC "-//W3C//DTD SVG 1.1//EN" "http://www.w3.org/Graphics/SVG/1.1/DTD/svg11.dtd">
<svg width="180mm" height="120mm" viewBox="0 0 18000 12000" version="1.1" xmlns="http://www.w3.org/2000/svg" xmlns:xlink="http://www.w3.org/1999/xlink" stroke-width="28.222" stroke-linejoin="round" xml:space="preserve">
 <path fill="rgb(255,255,255)" stroke="none" d="M 9000,12000 L 0,12000 0,0 18000,0 18000,12000 9000,12000 Z"/>
 <path fill="none" stroke="rgb(178,178,178)" stroke-width="50" stroke-linejoin="round" d="M 8242,10776 L 1281,10776 1281,934 15202,934 15202,10776 8242,10776 Z"/>
 <path fill="none" stroke="rgb(179,179,179)" stroke-linejoin="round" d="M 15201,10775 L 1280,10775"/>
 <path fill="none" stroke="rgb(179,179,179)" stroke-linejoin="round" d="M 15201,9790 L 1280,9790"/>
 <path fill="none" stroke="rgb(179,179,179)" stroke-linejoin="round" d="M 15201,8806 L 1280,8806"/>
 <path fill="none" stroke="rgb(179,179,179)" stroke-linejoin="round" d="M 15201,7822 L 1280,7822"/>
 <path fill="none" stroke="rgb(179,179,179)" stroke-linejoin="round" d="M 15201,6837 L 1280,6837"/>
 <path fill="none" stroke="rgb(179,179,179)" stroke-linejoin="round" d="M 15201,5854 L 1280,5854"/>
 <path fill="none" stroke="rgb(179,179,179)" stroke-linejoin="round" d="M 15201,4870 L 1280,4870"/>
 <path fill="none" stroke="rgb(179,179,179)" stroke-linejoin="round" d="M 15201,3885 L 1280,3885"/>
 <path fill="none" stroke="rgb(179,179,179)" stroke-linejoin="round" d="M 15201,2901 L 1280,2901"/>
 <path fill="none" stroke="rgb(179,179,179)" stroke-linejoin="round" d="M 15201,1917 L 1280,1917"/>
 <path fill="none" stroke="rgb(179,179,179)" stroke-linejoin="round" d="M 15201,933 L 1280,933"/>
 <path fill="none" stroke="rgb(179,179,179)" stroke-linejoin="round" d="M 1280,10925 L 1280,10775"/>
 <path fill="none" stroke="rgb(179,179,179)" stroke-linejoin="round" d="M 1280,10925 L 1280,10775"/>
 <path fill="none" stroke="rgb(179,179,179)" stroke-linejoin="round" d="M 2905,10925 L 2905,10775"/>
 <path fill="none" stroke="rgb(179,179,179)" stroke-linejoin="round" d="M 2905,10925 L 2905,10775"/>
 <path fill="none" stroke="rgb(179,179,179)" stroke-linejoin="round" d="M 4529,10925 L 4529,10775"/>
 <path fill="none" stroke="rgb(179,179,179)" stroke-linejoin="round" d="M 4529,10925 L 4529,10775"/>
 <path fill="none" stroke="rgb(179,179,179)" stroke-linejoin="round" d="M 6153,10925 L 6153,10775"/>
 <path fill="none" stroke="rgb(179,179,179)" stroke-linejoin="round" d="M 6153,10925 L 6153,10775"/>
 <path fill="none" stroke="rgb(179,179,179)" stroke-linejoin="round" d="M 7777,10925 L 7777,10775"/>
 <path fill="none" stroke="rgb(179,179,179)" stroke-linejoin="round" d="M 7777,10925 L 7777,10775"/>
 <path fill="none" stroke="rgb(179,179,179)" stroke-linejoin="round" d="M 9401,10925 L 9401,10775"/>
 <path fill="none" stroke="rgb(179,179,179)" stroke-linejoin="round" d="M 9401,10925 L 9401,10775"/>
 <path fill="none" stroke="rgb(179,179,179)" stroke-linejoin="round" d="M 11025,10925 L 11025,10775"/>
 <path fill="none" stroke="rgb(179,179,179)" stroke-linejoin="round" d="M 11025,10925 L 11025,10775"/>
 <path fill="none" stroke="rgb(179,179,179)" stroke-linejoin="round" d="M 12649,10925 L 12649,10775"/>
 <path fill="none" stroke="rgb(179,179,179)" stroke-linejoin="round" d="M 12649,10925 L 12649,10775"/>
 <path fill="none" stroke="rgb(179,179,179)" stroke-linejoin="round" d="M 14273,10925 L 14273,10775"/>
 <path fill="none" stroke="rgb(179,179,179)" stroke-linejoin="round" d="M 14273,10925 L 14273,10775"/>
 <path fill="none" stroke="rgb(179,179,179)" stroke-linejoin="round" d="M 1280,10775 L 15201,10775"/>
 <path fill="none" stroke="rgb(179,179,179)" stroke-linejoin="round" d="M 1130,10775 L 1280,10775"/>
 <path fill="none" stroke="rgb(179,179,179)" stroke-linejoin="round" d="M 1130,10775 L 1280,10775"/>
 <path fill="none" stroke="rgb(179,179,179)" stroke-linejoin="round" d="M 1130,9790 L 1280,9790"/>
 <path fill="none" stroke="rgb(179,179,179)" stroke-linejoin="round" d="M 1130,9790 L 1280,9790"/>
 <path fill="none" stroke="rgb(179,179,179)" stroke-linejoin="round" d="M 1130,8806 L 1280,8806"/>
 <path fill="none" stroke="rgb(179,179,179)" stroke-linejoin="round" d="M 1130,8806 L 1280,8806"/>
 <path fill="none" stroke="rgb(179,179,179)" stroke-linejoin="round" d="M 1130,7822 L 1280,7822"/>
 <path fill="none" stroke="rgb(179,179,179)" stroke-linejoin="round" d="M 1130,7822 L 1280,7822"/>
 <path fill="none" stroke="rgb(179,179,179)" stroke-linejoin="round" d="M 1130,6837 L 1280,6837"/>
 <path fill="none" stroke="rgb(179,179,179)" stroke-linejoin="round" d="M 1130,6837 L 1280,6837"/>
 <path fill="none" stroke="rgb(179,179,179)" stroke-linejoin="round" d="M 1130,5854 L 1280,5854"/>
 <path fill="none" stroke="rgb(179,179,179)" stroke-linejoin="round" d="M 1130,5854 L 1280,5854"/>
 <path fill="none" stroke="rgb(179,179,179)" stroke-linejoin="round" d="M 1130,4870 L 1280,4870"/>
 <path fill="none" stroke="rgb(179,179,179)" stroke-linejoin="round" d="M 1130,4870 L 1280,4870"/>
 <path fill="none" stroke="rgb(179,179,179)" stroke-linejoin="round" d="M 1130,3885 L 1280,3885"/>
 <path fill="none" stroke="rgb(179,179,179)" stroke-linejoin="round" d="M 1130,3885 L 1280,3885"/>
 <path fill="none" stroke="rgb(179,179,179)" stroke-linejoin="round" d="M 1130,2901 L 1280,2901"/>
 <path fill="none" stroke="rgb(179,179,179)" stroke-linejoin="round" d="M 1130,2901 L 1280,2901"/>
 <path fill="none" stroke="rgb(179,179,179)" stroke-linejoin="round" d="M 1130,1917 L 1280,1917"/>
 <path fill="none" stroke="rgb(179,179,179)" stroke-linejoin="round" d="M 1130,1917 L 1280,1917"/>
 <path fill="none" stroke="rgb(179,179,179)" stroke-linejoin="round" d="M 1130,933 L 1280,933"/>
 <path fill="none" stroke="rgb(179,179,179)" stroke-linejoin="round" d="M 1130,933 L 1280,933"/>
 <path fill="none" stroke="rgb(179,179,179)" stroke-linejoin="round" d="M 1280,10775 L 1280,933"/>
 <path fill="rgb(255,166,166)" stroke="none" d="M 1397,10775 L 1629,10775 1861,10775 2093,10775 2325,10775 2557,10775 2789,10775 3021,10775 3253,10775 3485,10775 3717,10775 3949,10775 4181,10775 4413,10775 4645,7494 4877,6837 5109,5854 5341,5854 5573,5854 5805,4870 6037,4283 6269,4214 6501,4131 6733,4551 6965,3496 7197,3991 7429,3659 7661,4356 7893,4385 8125,4606 8358,4807 8590,4933 8822,5078 9053,5171 9285,5544 9517,5744 9749,5888 9981,6005 10213,6127 10445,6226 10677,6444 10909,6572 11141,6666 11373,6739 11605,6816 11837,6858 12069,6902 12301,6943 12533,6997 12765,7028 12997,7064 13229,7112 13461,7134 13693,7160 13925,7194 14157,7212 14389,7236 14621,7276 14853,7313 15085,7331 15085,10775 1397,10775 Z"/>
 <path fill="none" stroke="rgb(0,0,0)" stroke-width="50" stroke-linejoin="round" d="M 1397,10775 L 1629,10775 1861,10775 2093,10775 2325,10775 2557,10775 2789,10775 3021,10775 3253,10775 3485,10775 3717,10775 3949,10775 4181,10775 4413,10775 4645,7494 4877,6837 5109,5854 5341,5854 5573,5854 5805,4870 6037,4283 6269,4214 6501,4131 6733,4551 6965,3496 7197,3991 7429,3659 7661,4356 7893,4385 8125,4606 8358,4807 8590,4933 8822,5078 9053,5171 9285,5544 9517,5744 9749,5888 9981,6005 10213,6127 10445,6226 10677,6444 10909,6572 11141,6666 11373,6739 11605,6816 11837,6858 12069,6902 12301,6943 12533,6997 12765,7028 12997,7064 13229,7112 13461,7134 13693,7160 13925,7194 14157,7212 14389,7236 14621,7276 14853,7313 15085,7331 15085,10775 1397,10775 Z"/>
 <path fill="rgb(255,255,215)" stroke="none" d="M 1397,10775 L 1629,10775 1861,10775 2093,10775 2325,10775 2557,10775 2789,10775 3021,10775 3253,10775 3485,10775 3717,10775 3949,10775 4181,10775 4413,10775 4645,7494 4877,6837 5109,4870 5341,5239 5573,5239 5805,4026 6037,3655 6269,3745 6501,3803 6733,4117 6965,3222 7197,3608 7429,3298 7661,3681 7893,3679 8125,3801 8358,3902 8590,3840 8822,3973 9053,4142 9285,4065 9517,4127 9749,4105 9981,4155 10213,4280 10445,4336 10677,4435 10909,4563 11141,4608 11373,4638 11605,4715 11837,4769 12069,4822 12301,4870 12533,4941 12765,4996 12997,5058 13229,5109 13461,5138 13693,5169 13925,5197 14157,5223 14389,5254 14621,5286 14853,5316 15085,5348 15085,7331 14853,7313 14621,7276 14389,7236 14157,7212 13925,7194 13693,7160 13461,7134 13229,7112 12997,7064 12765,7028 12533,6997 12301,6943 12069,6902 11837,6858 11605,6816 11373,6739 11141,6666 10909,6572 10677,6444 10445,6226 10213,6127 9981,6005 9749,5888 9517,5744 9285,5544 9053,5171 8822,5078 8590,4933 8358,4807 8125,4606 7893,4385 7661,4356 7429,3659 7197,3991 6965,3496 6733,4551 6501,4131 6269,4214 6037,4283 5805,4870 5573,5854 5341,5854 5109,5854 4877,6837 4645,7494 4413,10775 4181,10775 3949,10775 3717,10775 3485,10775 3253,10775 3021,10775 2789,10775 2557,10775 2325,10775 2093,10775 1861,10775 1629,10775 1397,10775 Z"/>
 <path fill="none" stroke="rgb(0,0,0)" stroke-width="50" stroke-linejoin="round" d="M 1397,10775 L 1629,10775 1861,10775 2093,10775 2325,10775 2557,10775 2789,10775 3021,10775 3253,10775 3485,10775 3717,10775 3949,10775 4181,10775 4413,10775 4645,7494 4877,6837 5109,4870 5341,5239 5573,5239 5805,4026 6037,3655 6269,3745 6501,3803 6733,4117 6965,3222 7197,3608 7429,3298 7661,3681 7893,3679 8125,3801 8358,3902 8590,3840 8822,3973 9053,4142 9285,4065 9517,4127 9749,4105 9981,4155 10213,4280 10445,4336 10677,4435 10909,4563 11141,4608 11373,4638 11605,4715 11837,4769 12069,4822 12301,4870 12533,4941 12765,4996 12997,5058 13229,5109 13461,5138 13693,5169 13925,5197 14157,5223 14389,5254 14621,5286 14853,5316 15085,5348 15085,7331 14853,7313 14621,7276 14389,7236 14157,7212 13925,7194 13693,7160 13461,7134 13229,7112 12997,7064 12765,7028 12533,6997 12301,6943 12069,6902 11837,6858 11605,6816 11373,6739 11141,6666 10909,6572 10677,6444 10445,6226 10213,6127 9981,6005 9749,5888 9517,5744 9285,5544 9053,5171 8822,5078 8590,4933 8358,4807 8125,4606 7893,4385 7661,4356 7429,3659 7197,3991 6965,3496 6733,4551 6501,4131 6269,4214 6037,4283 5805,4870 5573,5854 5341,5854 5109,5854 4877,6837 4645,7494 4413,10775 4181,10775 3949,10775 3717,10775 3485,10775 3253,10775 3021,10775 2789,10775 2557,10775 2325,10775 2093,10775 1861,10775 1629,10775 1397,10775 Z"/>
 <path fill="rgb(222,230,239)" stroke="none" d="M 1397,10775 L 1629,10775 1861,10775 2093,10775 2325,10775 2557,10775 2789,10775 3021,10775 3253,10775 3485,10775 3717,10775 3949,10775 4181,10775 4413,10775 4645,7494 4877,6837 5109,4870 5341,5239 5573,5239 5805,4026 6037,3655 6269,3628 6501,3393 6733,3683 6965,2881 7197,3067 7429,2957 7661,3220 7893,3140 8125,3192 8358,3278 8590,3199 8822,3319 9053,3353 9285,3312 9517,3366 9749,3362 9981,3380 10213,3467 10445,3502 10677,3584 10909,3721 11141,3767 11373,3814 11605,3886 11837,3933 12069,3969 12301,4030 12533,4093 12765,4142 12997,4169 13229,4216 13461,4243 13693,4254 13925,4262 14157,4293 14389,4329 14621,4361 14853,4388 15085,4414 15085,5348 14853,5316 14621,5286 14389,5254 14157,5223 13925,5197 13693,5169 13461,5138 13229,5109 12997,5058 12765,4996 12533,4941 12301,4870 12069,4822 11837,4769 11605,4715 11373,4638 11141,4608 10909,4563 10677,4435 10445,4336 10213,4280 9981,4155 9749,4105 9517,4127 9285,4065 9053,4142 8822,3973 8590,3840 8358,3902 8125,3801 7893,3679 7661,3681 7429,3298 7197,3608 6965,3222 6733,4117 6501,3803 6269,3745 6037,3655 5805,4026 5573,5239 5341,5239 5109,4870 4877,6837 4645,7494 4413,10775 4181,10775 3949,10775 3717,10775 3485,10775 3253,10775 3021,10775 2789,10775 2557,10775 2325,10775 2093,10775 1861,10775 1629,10775 1397,10775 Z"/>
 <path fill="none" stroke="rgb(0,0,0)" stroke-width="50" stroke-linejoin="round" d="M 1397,10775 L 1629,10775 1861,10775 2093,10775 2325,10775 2557,10775 2789,10775 3021,10775 3253,10775 3485,10775 3717,10775 3949,10775 4181,10775 4413,10775 4645,7494 4877,6837 5109,4870 5341,5239 5573,5239 5805,4026 6037,3655 6269,3628 6501,3393 6733,3683 6965,2881 7197,3067 7429,2957 7661,3220 7893,3140 8125,3192 8358,3278 8590,3199 8822,3319 9053,3353 9285,3312 9517,3366 9749,3362 9981,3380 10213,3467 10445,3502 10677,3584 10909,3721 11141,3767 11373,3814 11605,3886 11837,3933 12069,3969 12301,4030 12533,4093 12765,4142 12997,4169 13229,4216 13461,4243 13693,4254 13925,4262 14157,4293 14389,4329 14621,4361 14853,4388 15085,4414 15085,5348 14853,5316 14621,5286 14389,5254 14157,5223 13925,5197 13693,5169 13461,5138 13229,5109 12997,5058 12765,4996 12533,4941 12301,4870 12069,4822 11837,4769 11605,4715 11373,4638 11141,4608 10909,4563 10677,4435 10445,4336 10213,4280 9981,4155 9749,4105 9517,4127 9285,4065 9053,4142 8822,3973 8590,3840 8358,3902 8125,3801 7893,3679 7661,3681 7429,3298 7197,3608 6965,3222 6733,4117 6501,3803 6269,3745 6037,3655 5805,4026 5573,5239 5341,5239 5109,4870 4877,6837 4645,7494 4413,10775 4181,10775 3949,10775 3717,10775 3485,10775 3253,10775 3021,10775 2789,10775 2557,10775 2325,10775 2093,10775 1861,10775 1629,10775 1397,10775 Z"/>
 <path fill="rgb(221,232,203)" stroke="none" d="M 1397,10775 L 1629,10775 1861,10775 2093,10775 2325,10775 2557,10775 2789,10775 3021,10775 3253,10775 3485,10775 3717,10775 3949,10775 4181,10775 4413,10775 4645,7494 4877,6837 5109,4870 5341,5239 5573,5239 5805,4026 6037,3655 6269,3628 6501,3311 6733,3466 6965,2676 7197,2780 7429,2717 7661,2858 7893,2768 8125,2769 8358,2870 8590,2775 8822,2859 9053,2900 9285,2839 9517,2870 9749,2851 9981,2825 10213,2894 10445,2909 10677,2964 10909,3085 11141,3137 11373,3163 11605,3227 11837,3261 12069,3276 12301,3329 12533,3397 12765,3443 12997,3467 13229,3506 13461,3535 13693,3543 13925,3554 14157,3585 14389,3624 14621,3661 14853,3694 15085,3720 15085,4414 14853,4388 14621,4361 14389,4329 14157,4293 13925,4262 13693,4254 13461,4243 13229,4216 12997,4169 12765,4142 12533,4093 12301,4030 12069,3969 11837,3933 11605,3886 11373,3814 11141,3767 10909,3721 10677,3584 10445,3502 10213,3467 9981,3380 9749,3362 9517,3366 9285,3312 9053,3353 8822,3319 8590,3199 8358,3278 8125,3192 7893,3140 7661,3220 7429,2957 7197,3067 6965,2881 6733,3683 6501,3393 6269,3628 6037,3655 5805,4026 5573,5239 5341,5239 5109,4870 4877,6837 4645,7494 4413,10775 4181,10775 3949,10775 3717,10775 3485,10775 3253,10775 3021,10775 2789,10775 2557,10775 2325,10775 2093,10775 1861,10775 1629,10775 1397,10775 Z"/>
 <path fill="none" stroke="rgb(0,0,0)" stroke-width="50" stroke-linejoin="round" d="M 1397,10775 L 1629,10775 1861,10775 2093,10775 2325,10775 2557,10775 2789,10775 3021,10775 3253,10775 3485,10775 3717,10775 3949,10775 4181,10775 4413,10775 4645,7494 4877,6837 5109,4870 5341,5239 5573,5239 5805,4026 6037,3655 6269,3628 6501,3311 6733,3466 6965,2676 7197,2780 7429,2717 7661,2858 7893,2768 8125,2769 8358,2870 8590,2775 8822,2859 9053,2900 9285,2839 9517,2870 9749,2851 9981,2825 10213,2894 10445,2909 10677,2964 10909,3085 11141,3137 11373,3163 11605,3227 11837,3261 12069,3276 12301,3329 12533,3397 12765,3443 12997,3467 13229,3506 13461,3535 13693,3543 13925,3554 14157,3585 14389,3624 14621,3661 14853,3694 15085,3720 15085,4414 14853,4388 14621,4361 14389,4329 14157,4293 13925,4262 13693,4254 13461,4243 13229,4216 12997,4169 12765,4142 12533,4093 12301,4030 12069,3969 11837,3933 11605,3886 11373,3814 11141,3767 10909,3721 10677,3584 10445,3502 10213,3467 9981,3380 9749,3362 9517,3366 9285,3312 9053,3353 8822,3319 8590,3199 8358,3278 8125,3192 7893,3140 7661,3220 7429,2957 7197,3067 6965,2881 6733,3683 6501,3393 6269,3628 6037,3655 5805,4026 5573,5239 5341,5239 5109,4870 4877,6837 4645,7494 4413,10775 4181,10775 3949,10775 3717,10775 3485,10775 3253,10775 3021,10775 2789,10775 2557,10775 2325,10775 2093,10775 1861,10775 1629,10775 1397,10775 Z"/>
 <path fill="rgb(183,179,202)" stroke="none" d="M 1397,10775 L 1629,10775 1861,10775 2093,10775 2325,10775 2557,10775 2789,10775 3021,10775 3253,10775 3485,10775 3717,10775 3949,10775 4181,10775 4413,933 4645,4214 4877,4870 5109,3885 5341,4624 5573,4624 5805,3745 6037,3446 6269,3510 6501,3229 6733,3176 6965,2505 7197,2621 7429,2456 7661,2496 7893,2460 8125,2445 8358,2499 8590,2380 8822,2435 9053,2481 9285,2429 9517,2468 9749,2450 9981,2420 10213,2492 10445,2493 10677,2556 10909,2656 11141,2701 11373,2703 11605,2749 11837,2775 12069,2796 12301,2850 12533,2908 12765,2947 12997,2973 13229,3013 13461,3049 13693,3050 13925,3060 14157,3085 14389,3123 14621,3163 14853,3188 15085,3214 15085,3720 14853,3694 14621,3661 14389,3624 14157,3585 13925,3554 13693,3543 13461,3535 13229,3506 12997,3467 12765,3443 12533,3397 12301,3329 12069,3276 11837,3261 11605,3227 11373,3163 11141,3137 10909,3085 10677,2964 10445,2909 10213,2894 9981,2825 9749,2851 9517,2870 9285,2839 9053,2900 8822,2859 8590,2775 8358,2870 8125,2769 7893,2768 7661,2858 7429,2717 7197,2780 6965,2676 6733,3466 6501,3311 6269,3628 6037,3655 5805,4026 5573,5239 5341,5239 5109,4870 4877,6837 4645,7494 4413,10775 4181,10775 3949,10775 3717,10775 3485,10775 3253,10775 3021,10775 2789,10775 2557,10775 2325,10775 2093,10775 1861,10775 1629,10775 1397,10775 Z"/>
 <path fill="none" stroke="rgb(0,0,0)" stroke-width="50" stroke-linejoin="round" d="M 1397,10775 L 1629,10775 1861,10775 2093,10775 2325,10775 2557,10775 2789,10775 3021,10775 3253,10775 3485,10775 3717,10775 3949,10775 4181,10775 4413,933 4645,4214 4877,4870 5109,3885 5341,4624 5573,4624 5805,3745 6037,3446 6269,3510 6501,3229 6733,3176 6965,2505 7197,2621 7429,2456 7661,2496 7893,2460 8125,2445 8358,2499 8590,2380 8822,2435 9053,2481 9285,2429 9517,2468 9749,2450 9981,2420 10213,2492 10445,2493 10677,2556 10909,2656 11141,2701 11373,2703 11605,2749 11837,2775 12069,2796 12301,2850 12533,2908 12765,2947 12997,2973 13229,3013 13461,3049 13693,3050 13925,3060 14157,3085 14389,3123 14621,3163 14853,3188 15085,3214 15085,3720 14853,3694 14621,3661 14389,3624 14157,3585 13925,3554 13693,3543 13461,3535 13229,3506 12997,3467 12765,3443 12533,3397 12301,3329 12069,3276 11837,3261 11605,3227 11373,3163 11141,3137 10909,3085 10677,2964 10445,2909 10213,2894 9981,2825 9749,2851 9517,2870 9285,2839 9053,2900 8822,2859 8590,2775 8358,2870 8125,2769 7893,2768 7661,2858 7429,2717 7197,2780 6965,2676 6733,3466 6501,3311 6269,3628 6037,3655 5805,4026 5573,5239 5341,5239 5109,4870 4877,6837 4645,7494 4413,10775 4181,10775 3949,10775 3717,10775 3485,10775 3253,10775 3021,10775 2789,10775 2557,10775 2325,10775 2093,10775 1861,10775 1629,10775 1397,10775 Z"/>
 <path fill="rgb(114,159,207)" stroke="none" d="M 1397,10775 L 1629,10775 1861,10775 2093,10775 2325,10775 2557,10775 2789,10775 3021,10775 3253,10775 3485,10775 3717,10775 3949,10775 4181,10775 4413,933 4645,933 4877,2901 5109,1917 5341,1548 5573,1548 5805,2057 6037,2189 6269,2221 6501,2081 6733,2163 6965,1719 7197,1888 7429,1734 7661,1838 7893,1779 8125,1748 8358,1868 8590,1825 8822,1893 9053,1995 9285,1984 9517,2035 9749,2031 9981,2038 10213,2092 10445,2095 10677,2166 10909,2255 11141,2295 11373,2303 11605,2349 11837,2367 12069,2382 12301,2432 12533,2478 12765,2502 12997,2520 13229,2553 13461,2583 13693,2583 13925,2591 14157,2607 14389,2631 14621,2667 14853,2693 15085,2708 15085,3214 14853,3188 14621,3163 14389,3123 14157,3085 13925,3060 13693,3050 13461,3049 13229,3013 12997,2973 12765,2947 12533,2908 12301,2850 12069,2796 11837,2775 11605,2749 11373,2703 11141,2701 10909,2656 10677,2556 10445,2493 10213,2492 9981,2420 9749,2450 9517,2468 9285,2429 9053,2481 8822,2435 8590,2380 8358,2499 8125,2445 7893,2460 7661,2496 7429,2456 7197,2621 6965,2505 6733,3176 6501,3229 6269,3510 6037,3446 5805,3745 5573,4624 5341,4624 5109,3885 4877,4870 4645,4214 4413,933 4181,10775 3949,10775 3717,10775 3485,10775 3253,10775 3021,10775 2789,10775 2557,10775 2325,10775 2093,10775 1861,10775 1629,10775 1397,10775 Z"/>
 <path fill="none" stroke="rgb(0,0,0)" stroke-width="50" stroke-linejoin="round" d="M 1397,10775 L 1629,10775 1861,10775 2093,10775 2325,10775 2557,10775 2789,10775 3021,10775 3253,10775 3485,10775 3717,10775 3949,10775 4181,10775 4413,933 4645,933 4877,2901 5109,1917 5341,1548 5573,1548 5805,2057 6037,2189 6269,2221 6501,2081 6733,2163 6965,1719 7197,1888 7429,1734 7661,1838 7893,1779 8125,1748 8358,1868 8590,1825 8822,1893 9053,1995 9285,1984 9517,2035 9749,2031 9981,2038 10213,2092 10445,2095 10677,2166 10909,2255 11141,2295 11373,2303 11605,2349 11837,2367 12069,2382 12301,2432 12533,2478 12765,2502 12997,2520 13229,2553 13461,2583 13693,2583 13925,2591 14157,2607 14389,2631 14621,2667 14853,2693 15085,2708 15085,3214 14853,3188 14621,3163 14389,3123 14157,3085 13925,3060 13693,3050 13461,3049 13229,3013 12997,2973 12765,2947 12533,2908 12301,2850 12069,2796 11837,2775 11605,2749 11373,2703 11141,2701 10909,2656 10677,2556 10445,2493 10213,2492 9981,2420 9749,2450 9517,2468 9285,2429 9053,2481 8822,2435 8590,2380 8358,2499 8125,2445 7893,2460 7661,2496 7429,2456 7197,2621 6965,2505 6733,3176 6501,3229 6269,3510 6037,3446 5805,3745 5573,4624 5341,4624 5109,3885 4877,4870 4645,4214 4413,933 4181,10775 3949,10775 3717,10775 3485,10775 3253,10775 3021,10775 2789,10775 2557,10775 2325,10775 2093,10775 1861,10775 1629,10775 1397,10775 Z"/>
 <path fill="rgb(221,221,221)" stroke="none" d="M 1397,10775 L 1629,10775 1861,10775 2093,10775 2325,10775 2557,10775 2789,10775 3021,10775 3253,10775 3485,10775 3717,10775 3949,10775 4181,10775 4413,933 4645,933 4877,933 5109,933 5341,933 5573,933 5805,933 6037,933 6269,933 6501,933 6733,933 6811,933 7197,933 7429,933 7661,933 7893,933 8125,933 8358,933 8590,933 8822,933 9053,933 9285,933 9517,933 9749,933 9981,933 10213,933 10445,933 10677,933 10754,933 11064,933 11141,933 11373,933 11605,933 11837,933 12069,933 12301,933 12533,933 12997,933 13229,933 13461,933 13693,933 13925,933 14157,933 14389,933 14621,933 14853,933 15085,933 15085,2708 14853,2693 14621,2667 14389,2631 14157,2607 13925,2591 13693,2583 13461,2583 13229,2553 12997,2520 12765,2502 12533,2478 12301,2432 12069,2382 11837,2367 11605,2349 11373,2303 11141,2295 10909,2255 10677,2166 10445,2095 10213,2092 9981,2038 9749,2031 9517,2035 9285,1984 9053,1995 8822,1893 8590,1825 8358,1868 8125,1748 7893,1779 7661,1838 7429,1734 7197,1888 6965,1719 6733,2163 6501,2081 6269,2221 6037,2189 5805,2057 5573,1548 5341,1548 5109,1917 4877,2901 4645,933 4413,933 4181,10775 3949,10775 3717,10775 3485,10775 3253,10775 3021,10775 2789,10775 2557,10775 2325,10775 2093,10775 1861,10775 1629,10775 1397,10775 Z"/>
 <path fill="none" stroke="rgb(0,0,0)" stroke-width="50" stroke-linejoin="round" d="M 1397,10775 L 1629,10775 1861,10775 2093,10775 2325,10775 2557,10775 2789,10775 3021,10775 3253,10775 3485,10775 3717,10775 3949,10775 4181,10775 4413,933 4645,933 4877,933 5109,933 5341,933 5573,933 5805,933 6037,933 6269,933 6501,933 6733,933 6811,933 7197,933 7429,933 7661,933 7893,933 8125,933 8358,933 8590,933 8822,933 9053,933 9285,933 9517,933 9749,933 9981,933 10213,933 10445,933 10677,933 10754,933 11064,933 11141,933 11373,933 11605,933 11837,933 12069,933 12301,933 12533,933 12997,933 13229,933 13461,933 13693,933 13925,933 14157,933 14389,933 14621,933 14853,933 15085,933 15085,2708 14853,2693 14621,2667 14389,2631 14157,2607 13925,2591 13693,2583 13461,2583 13229,2553 12997,2520 12765,2502 12533,2478 12301,2432 12069,2382 11837,2367 11605,2349 11373,2303 11141,2295 10909,2255 10677,2166 10445,2095 10213,2092 9981,2038 9749,2031 9517,2035 9285,1984 9053,1995 8822,1893 8590,1825 8358,1868 8125,1748 7893,1779 7661,1838 7429,1734 7197,1888 6965,1719 6733,2163 6501,2081 6269,2221 6037,2189 5805,2057 5573,1548 5341,1548 5109,1917 4877,2901 4645,933 4413,933 4181,10775 3949,10775 3717,10775 3485,10775 3253,10775 3021,10775 2789,10775 2557,10775 2325,10775 2093,10775 1861,10775 1629,10775 1397,10775 Z"/>
 <text class="TextShape"><tspan class="TextParagraph" font-family="Liberation Sans, sans-serif" font-size="353px" font-weight="400"><tspan class="TextPosition" x="973" y="11741"><tspan fill="rgb(0,0,0)" stroke="none">20/02</tspan></tspan></tspan></text>
 <text class="TextShape"><tspan class="TextParagraph" font-family="Liberation Sans, sans-serif" font-size="353px" font-weight="400"><tspan class="TextPosition" x="2597" y="11343"><tspan fill="rgb(0,0,0)" stroke="none">27/02</tspan></tspan></tspan></text>
 <text class="TextShape"><tspan class="TextParagraph" font-family="Liberation Sans, sans-serif" font-size="353px" font-weight="400"><tspan class="TextPosition" x="4221" y="11741"><tspan fill="rgb(0,0,0)" stroke="none">05/03</tspan></tspan></tspan></text>
 <text class="TextShape"><tspan class="TextParagraph" font-family="Liberation Sans, sans-serif" font-size="353px" font-weight="400"><tspan class="TextPosition" x="5845" y="11343"><tspan fill="rgb(0,0,0)" stroke="none">12/03</tspan></tspan></tspan></text>
 <text class="TextShape"><tspan class="TextParagraph" font-family="Liberation Sans, sans-serif" font-size="353px" font-weight="400"><tspan class="TextPosition" x="7469" y="11741"><tspan fill="rgb(0,0,0)" stroke="none">19/03</tspan></tspan></tspan></text>
 <text class="TextShape"><tspan class="TextParagraph" font-family="Liberation Sans, sans-serif" font-size="353px" font-weight="400"><tspan class="TextPosition" x="9094" y="11343"><tspan fill="rgb(0,0,0)" stroke="none">26/03</tspan></tspan></tspan></text>
 <text class="TextShape"><tspan class="TextParagraph" font-family="Liberation Sans, sans-serif" font-size="353px" font-weight="400"><tspan class="TextPosition" x="10718" y="11741"><tspan fill="rgb(0,0,0)" stroke="none">02/04</tspan></tspan></tspan></text>
 <text class="TextShape"><tspan class="TextParagraph" font-family="Liberation Sans, sans-serif" font-size="353px" font-weight="400"><tspan class="TextPosition" x="12342" y="11343"><tspan fill="rgb(0,0,0)" stroke="none">09/04</tspan></tspan></tspan></text>
 <text class="TextShape"><tspan class="TextParagraph" font-family="Liberation Sans, sans-serif" font-size="353px" font-weight="400"><tspan class="TextPosition" x="13966" y="11741"><tspan fill="rgb(0,0,0)" stroke="none">16/04</tspan></tspan></tspan></text>
 <text class="TextShape"><tspan class="TextParagraph" font-family="Liberation Sans, sans-serif" font-size="353px" font-weight="400"><tspan class="TextPosition" x="527" y="10896"><tspan fill="rgb(0,0,0)" stroke="none">0%</tspan></tspan></tspan></text>
 <text class="TextShape"><tspan class="TextParagraph" font-family="Liberation Sans, sans-serif" font-size="353px" font-weight="400"><tspan class="TextPosition" x="342" y="9911"><tspan fill="rgb(0,0,0)" stroke="none">10%</tspan></tspan></tspan></text>
 <text class="TextShape"><tspan class="TextParagraph" font-family="Liberation Sans, sans-serif" font-size="353px" font-weight="400"><tspan class="TextPosition" x="342" y="8927"><tspan fill="rgb(0,0,0)" stroke="none">20%</tspan></tspan></tspan></text>
 <text class="TextShape"><tspan class="TextParagraph" font-family="Liberation Sans, sans-serif" font-size="353px" font-weight="400"><tspan class="TextPosition" x="342" y="7943"><tspan fill="rgb(0,0,0)" stroke="none">30%</tspan></tspan></tspan></text>
 <text class="TextShape"><tspan class="TextParagraph" font-family="Liberation Sans, sans-serif" font-size="353px" font-weight="400"><tspan class="TextPosition" x="342" y="6958"><tspan fill="rgb(0,0,0)" stroke="none">40%</tspan></tspan></tspan></text>
 <text class="TextShape"><tspan class="TextParagraph" font-family="Liberation Sans, sans-serif" font-size="353px" font-weight="400"><tspan class="TextPosition" x="342" y="5974"><tspan fill="rgb(0,0,0)" stroke="none">50%</tspan></tspan></tspan></text>
 <text class="TextShape"><tspan class="TextParagraph" font-family="Liberation Sans, sans-serif" font-size="353px" font-weight="400"><tspan class="TextPosition" x="342" y="4990"><tspan fill="rgb(0,0,0)" stroke="none">60%</tspan></tspan></tspan></text>
 <text class="TextShape"><tspan class="TextParagraph" font-family="Liberation Sans, sans-serif" font-size="353px" font-weight="400"><tspan class="TextPosition" x="342" y="4005"><tspan fill="rgb(0,0,0)" stroke="none">70%</tspan></tspan></tspan></text>
 <text class="TextShape"><tspan class="TextParagraph" font-family="Liberation Sans, sans-serif" font-size="353px" font-weight="400"><tspan class="TextPosition" x="342" y="3021"><tspan fill="rgb(0,0,0)" stroke="none">80%</tspan></tspan></tspan></text>
 <text class="TextShape"><tspan class="TextParagraph" font-family="Liberation Sans, sans-serif" font-size="353px" font-weight="400"><tspan class="TextPosition" x="342" y="2037"><tspan fill="rgb(0,0,0)" stroke="none">90%</tspan></tspan></tspan></text>
 <text class="TextShape"><tspan class="TextParagraph" font-family="Liberation Sans, sans-serif" font-size="353px" font-weight="400"><tspan class="TextPosition" x="157" y="1053"><tspan fill="rgb(0,0,0)" stroke="none">100%</tspan></tspan></tspan></text>
 <text class="TextShape"><tspan class="TextParagraph" font-family="Liberation Sans, sans-serif" font-size="459px" font-weight="400"><tspan class="TextPosition" x="4508" y="724"><tspan fill="rgb(0,0,0)" stroke="none">Covid-19 (porcentaje de muertes acumuladas)</tspan></tspan></tspan></text>
 <text class="TextShape"><tspan class="TextParagraph" font-family="Arial, sans-serif" font-size="423px" font-weight="400"><tspan class="TextPosition" x="15295" y="6343"><tspan fill="rgb(0,0,0)" stroke="none">Cataluña</tspan></tspan></tspan></text>
 <text class="TextShape"><tspan class="TextParagraph" font-family="Arial, sans-serif" font-size="423px" font-weight="400"><tspan class="TextPosition" x="15321" y="5075"><tspan fill="rgb(0,0,0)" stroke="none">Cast. LM</tspan></tspan></tspan></text>
 <text class="TextShape"><tspan class="TextParagraph" font-family="Arial, sans-serif" font-size="423px" font-weight="400"><tspan class="TextPosition" x="15283" y="3102"><tspan fill="rgb(0,0,0)" stroke="none">País Vasco</tspan></tspan></tspan></text>
 <text class="TextShape"><tspan class="TextParagraph" font-family="Arial, sans-serif" font-size="423px" font-weight="400"><tspan class="TextPosition" x="15291" y="4301"><tspan fill="rgb(0,0,0)" stroke="none">Cast. León</tspan></tspan></tspan></text>
 <text class="TextShape"><tspan class="TextParagraph" font-family="Arial, sans-serif" font-size="423px" font-weight="400"><tspan class="TextPosition" x="15301" y="3620"><tspan fill="rgb(0,0,0)" stroke="none">C Valenciana</tspan></tspan></tspan></text>
 <text class="TextShape"><tspan class="TextParagraph" font-family="Arial, sans-serif" font-size="423px" font-weight="400"><tspan class="TextPosition" x="15312" y="2028"><tspan fill="rgb(0,0,0)" stroke="none">Resto</tspan></tspan></tspan></text>
 <text class="TextShape"><tspan class="TextParagraph" font-family="Arial, sans-serif" font-size="423px" font-weight="400"><tspan class="TextPosition" x="15347" y="8940"><tspan fill="rgb(0,0,0)" stroke="none">Madrid</tspan></tspan></tspan></text>
</svg>