<?xml version="1.0" encoding="UTF-8"?>
<!DOCTYPE svg PUBLIC "-//W3C//DTD SVG 1.1//EN" "http://www.w3.org/Graphics/SVG/1.1/DTD/svg11.dtd">
<svg width="150mm" height="120mm" viewBox="0 0 15000 12000" version="1.1" xmlns="http://www.w3.org/2000/svg" xmlns:xlink="http://www.w3.org/1999/xlink" stroke-width="28.222" stroke-linejoin="round" xml:space="preserve">
 <path fill="rgb(255,255,255)" stroke="none" d="M 7500,12000 L 0,12000 0,0 15000,0 15000,12000 7500,12000 Z"/>
 <path fill="none" stroke="rgb(179,179,179)" stroke-linejoin="round" d="M 8050,10818 L 1394,10818 1394,1124 14707,1124 14707,10818 8050,10818 Z"/>
 <path fill="none" stroke="rgb(0,0,0)" stroke-linejoin="round" d="M 14707,10817 L 1394,10817"/>
 <path fill="none" stroke="rgb(0,0,0)" stroke-linejoin="round" d="M 14707,8878 L 1394,8878"/>
 <path fill="none" stroke="rgb(0,0,0)" stroke-linejoin="round" d="M 14707,6939 L 1394,6939"/>
 <path fill="none" stroke="rgb(0,0,0)" stroke-linejoin="round" d="M 14707,5000 L 1394,5000"/>
 <path fill="none" stroke="rgb(0,0,0)" stroke-linejoin="round" d="M 14707,3061 L 1394,3061"/>
 <path fill="none" stroke="rgb(0,0,0)" stroke-linejoin="round" d="M 14707,1123 L 1394,1123"/>
 <path fill="none" stroke="rgb(179,179,179)" stroke-linejoin="round" d="M 1394,10967 L 1394,10817"/>
 <path fill="none" stroke="rgb(179,179,179)" stroke-linejoin="round" d="M 1394,10967 L 1394,10817"/>
 <path fill="none" stroke="rgb(179,179,179)" stroke-linejoin="round" d="M 2947,10967 L 2947,10817"/>
 <path fill="none" stroke="rgb(179,179,179)" stroke-linejoin="round" d="M 2947,10967 L 2947,10817"/>
 <path fill="none" stroke="rgb(179,179,179)" stroke-linejoin="round" d="M 4500,10967 L 4500,10817"/>
 <path fill="none" stroke="rgb(179,179,179)" stroke-linejoin="round" d="M 4500,10967 L 4500,10817"/>
 <path fill="none" stroke="rgb(179,179,179)" stroke-linejoin="round" d="M 6053,10967 L 6053,10817"/>
 <path fill="none" stroke="rgb(179,179,179)" stroke-linejoin="round" d="M 6053,10967 L 6053,10817"/>
 <path fill="none" stroke="rgb(179,179,179)" stroke-linejoin="round" d="M 7606,10967 L 7606,10817"/>
 <path fill="none" stroke="rgb(179,179,179)" stroke-linejoin="round" d="M 7606,10967 L 7606,10817"/>
 <path fill="none" stroke="rgb(179,179,179)" stroke-linejoin="round" d="M 9159,10967 L 9159,10817"/>
 <path fill="none" stroke="rgb(179,179,179)" stroke-linejoin="round" d="M 9159,10967 L 9159,10817"/>
 <path fill="none" stroke="rgb(179,179,179)" stroke-linejoin="round" d="M 10712,10967 L 10712,10817"/>
 <path fill="none" stroke="rgb(179,179,179)" stroke-linejoin="round" d="M 10712,10967 L 10712,10817"/>
 <path fill="none" stroke="rgb(179,179,179)" stroke-linejoin="round" d="M 12266,10967 L 12266,10817"/>
 <path fill="none" stroke="rgb(179,179,179)" stroke-linejoin="round" d="M 12266,10967 L 12266,10817"/>
 <path fill="none" stroke="rgb(179,179,179)" stroke-linejoin="round" d="M 13819,10967 L 13819,10817"/>
 <path fill="none" stroke="rgb(179,179,179)" stroke-linejoin="round" d="M 13819,10967 L 13819,10817"/>
 <path fill="none" stroke="rgb(179,179,179)" stroke-linejoin="round" d="M 1394,10817 L 14707,10817"/>
 <path fill="none" stroke="rgb(0,0,0)" stroke-linejoin="round" d="M 1244,10817 L 1394,10817"/>
 <path fill="none" stroke="rgb(0,0,0)" stroke-linejoin="round" d="M 1244,10817 L 1394,10817"/>
 <path fill="none" stroke="rgb(0,0,0)" stroke-linejoin="round" d="M 1244,8878 L 1394,8878"/>
 <path fill="none" stroke="rgb(0,0,0)" stroke-linejoin="round" d="M 1244,8878 L 1394,8878"/>
 <path fill="none" stroke="rgb(0,0,0)" stroke-linejoin="round" d="M 1244,6939 L 1394,6939"/>
 <path fill="none" stroke="rgb(0,0,0)" stroke-linejoin="round" d="M 1244,6939 L 1394,6939"/>
 <path fill="none" stroke="rgb(0,0,0)" stroke-linejoin="round" d="M 1244,5000 L 1394,5000"/>
 <path fill="none" stroke="rgb(0,0,0)" stroke-linejoin="round" d="M 1244,5000 L 1394,5000"/>
 <path fill="none" stroke="rgb(0,0,0)" stroke-linejoin="round" d="M 1244,3062 L 1394,3062"/>
 <path fill="none" stroke="rgb(0,0,0)" stroke-linejoin="round" d="M 1244,3062 L 1394,3062"/>
 <path fill="none" stroke="rgb(0,0,0)" stroke-linejoin="round" d="M 1244,1123 L 1394,1123"/>
 <path fill="none" stroke="rgb(0,0,0)" stroke-linejoin="round" d="M 1244,1123 L 1394,1123"/>
 <path fill="none" stroke="rgb(0,0,0)" stroke-linejoin="round" d="M 1394,10817 L 1394,1123"/>
 <path fill="none" stroke="rgb(0,69,134)" stroke-width="50" stroke-linejoin="round" d="M 1504,10816 L 1726,10816 1948,10816 2170,10816 2392,10816 2614,10816 2836,10816 3058,10816 3280,10816 3502,10816 3723,10816 3945,10816 4167,10816 4389,10816 4611,10815 4833,10815 5055,10813 5277,10813 5499,10810 5721,10803 5942,10798 6164,10784 6386,10771 6608,10764 6830,10705 7052,10697 7274,10626 7496,10585 7717,10519 7939,10428 8160,10302 8382,10149 8604,9970 8826,9775 9048,9485 9270,9231 9492,8933 9714,8610 9936,8285 10158,7970 10379,7641 10601,7306 10823,6937 11045,6576 11267,6262 11489,6001 11711,5755 11933,5467 12155,5173 12377,4908 12598,4674 12820,4476 13042,4236 13264,4035 13486,3815 13708,3613 13930,3399 14152,3172 14374,2953 14596,2794"/>
 <path fill="rgb(0,69,134)" stroke="none" d="M 1404,10716 L 1404,10916 1604,10916 1604,10716 1404,10716 Z"/>
 <path fill="none" stroke="rgb(0,69,134)" stroke-linejoin="round" d="M 1404,10716 L 1404,10916 1604,10916 1604,10716 1404,10716 Z"/>
 <path fill="rgb(0,69,134)" stroke="none" d="M 1626,10716 L 1626,10916 1826,10916 1826,10716 1626,10716 Z"/>
 <path fill="none" stroke="rgb(0,69,134)" stroke-linejoin="round" d="M 1626,10716 L 1626,10916 1826,10916 1826,10716 1626,10716 Z"/>
 <path fill="rgb(0,69,134)" stroke="none" d="M 1848,10716 L 1848,10916 2048,10916 2048,10716 1848,10716 Z"/>
 <path fill="none" stroke="rgb(0,69,134)" stroke-linejoin="round" d="M 1848,10716 L 1848,10916 2048,10916 2048,10716 1848,10716 Z"/>
 <path fill="rgb(0,69,134)" stroke="none" d="M 2070,10716 L 2070,10916 2270,10916 2270,10716 2070,10716 Z"/>
 <path fill="none" stroke="rgb(0,69,134)" stroke-linejoin="round" d="M 2070,10716 L 2070,10916 2270,10916 2270,10716 2070,10716 Z"/>
 <path fill="rgb(0,69,134)" stroke="none" d="M 2292,10716 L 2292,10916 2492,10916 2492,10716 2292,10716 Z"/>
 <path fill="none" stroke="rgb(0,69,134)" stroke-linejoin="round" d="M 2292,10716 L 2292,10916 2492,10916 2492,10716 2292,10716 Z"/>
 <path fill="rgb(0,69,134)" stroke="none" d="M 2514,10716 L 2514,10916 2714,10916 2714,10716 2514,10716 Z"/>
 <path fill="none" stroke="rgb(0,69,134)" stroke-linejoin="round" d="M 2514,10716 L 2514,10916 2714,10916 2714,10716 2514,10716 Z"/>
 <path fill="rgb(0,69,134)" stroke="none" d="M 2736,10716 L 2736,10916 2936,10916 2936,10716 2736,10716 Z"/>
 <path fill="none" stroke="rgb(0,69,134)" stroke-linejoin="round" d="M 2736,10716 L 2736,10916 2936,10916 2936,10716 2736,10716 Z"/>
 <path fill="rgb(0,69,134)" stroke="none" d="M 2958,10716 L 2958,10916 3158,10916 3158,10716 2958,10716 Z"/>
 <path fill="none" stroke="rgb(0,69,134)" stroke-linejoin="round" d="M 2958,10716 L 2958,10916 3158,10916 3158,10716 2958,10716 Z"/>
 <path fill="rgb(0,69,134)" stroke="none" d="M 3180,10716 L 3180,10916 3380,10916 3380,10716 3180,10716 Z"/>
 <path fill="none" stroke="rgb(0,69,134)" stroke-linejoin="round" d="M 3180,10716 L 3180,10916 3380,10916 3380,10716 3180,10716 Z"/>
 <path fill="rgb(0,69,134)" stroke="none" d="M 3402,10716 L 3402,10916 3602,10916 3602,10716 3402,10716 Z"/>
 <path fill="none" stroke="rgb(0,69,134)" stroke-linejoin="round" d="M 3402,10716 L 3402,10916 3602,10916 3602,10716 3402,10716 Z"/>
 <path fill="rgb(0,69,134)" stroke="none" d="M 3623,10716 L 3623,10916 3823,10916 3823,10716 3623,10716 Z"/>
 <path fill="none" stroke="rgb(0,69,134)" stroke-linejoin="round" d="M 3623,10716 L 3623,10916 3823,10916 3823,10716 3623,10716 Z"/>
 <path fill="rgb(0,69,134)" stroke="none" d="M 3845,10716 L 3845,10916 4045,10916 4045,10716 3845,10716 Z"/>
 <path fill="none" stroke="rgb(0,69,134)" stroke-linejoin="round" d="M 3845,10716 L 3845,10916 4045,10916 4045,10716 3845,10716 Z"/>
 <path fill="rgb(0,69,134)" stroke="none" d="M 4067,10716 L 4067,10916 4267,10916 4267,10716 4067,10716 Z"/>
 <path fill="none" stroke="rgb(0,69,134)" stroke-linejoin="round" d="M 4067,10716 L 4067,10916 4267,10916 4267,10716 4067,10716 Z"/>
 <path fill="rgb(0,69,134)" stroke="none" d="M 4289,10716 L 4289,10916 4489,10916 4489,10716 4289,10716 Z"/>
 <path fill="none" stroke="rgb(0,69,134)" stroke-linejoin="round" d="M 4289,10716 L 4289,10916 4489,10916 4489,10716 4289,10716 Z"/>
 <path fill="rgb(0,69,134)" stroke="none" d="M 4511,10715 L 4511,10915 4711,10915 4711,10715 4511,10715 Z"/>
 <path fill="none" stroke="rgb(0,69,134)" stroke-linejoin="round" d="M 4511,10715 L 4511,10915 4711,10915 4711,10715 4511,10715 Z"/>
 <path fill="rgb(0,69,134)" stroke="none" d="M 4733,10715 L 4733,10915 4933,10915 4933,10715 4733,10715 Z"/>
 <path fill="none" stroke="rgb(0,69,134)" stroke-linejoin="round" d="M 4733,10715 L 4733,10915 4933,10915 4933,10715 4733,10715 Z"/>
 <path fill="rgb(0,69,134)" stroke="none" d="M 4955,10713 L 4955,10913 5155,10913 5155,10713 4955,10713 Z"/>
 <path fill="none" stroke="rgb(0,69,134)" stroke-linejoin="round" d="M 4955,10713 L 4955,10913 5155,10913 5155,10713 4955,10713 Z"/>
 <path fill="rgb(0,69,134)" stroke="none" d="M 5177,10713 L 5177,10913 5377,10913 5377,10713 5177,10713 Z"/>
 <path fill="none" stroke="rgb(0,69,134)" stroke-linejoin="round" d="M 5177,10713 L 5177,10913 5377,10913 5377,10713 5177,10713 Z"/>
 <path fill="rgb(0,69,134)" stroke="none" d="M 5399,10710 L 5399,10910 5599,10910 5599,10710 5399,10710 Z"/>
 <path fill="none" stroke="rgb(0,69,134)" stroke-linejoin="round" d="M 5399,10710 L 5399,10910 5599,10910 5599,10710 5399,10710 Z"/>
 <path fill="rgb(0,69,134)" stroke="none" d="M 5621,10703 L 5621,10903 5821,10903 5821,10703 5621,10703 Z"/>
 <path fill="none" stroke="rgb(0,69,134)" stroke-linejoin="round" d="M 5621,10703 L 5621,10903 5821,10903 5821,10703 5621,10703 Z"/>
 <path fill="rgb(0,69,134)" stroke="none" d="M 5842,10698 L 5842,10898 6042,10898 6042,10698 5842,10698 Z"/>
 <path fill="none" stroke="rgb(0,69,134)" stroke-linejoin="round" d="M 5842,10698 L 5842,10898 6042,10898 6042,10698 5842,10698 Z"/>
 <path fill="rgb(0,69,134)" stroke="none" d="M 6064,10684 L 6064,10884 6264,10884 6264,10684 6064,10684 Z"/>
 <path fill="none" stroke="rgb(0,69,134)" stroke-linejoin="round" d="M 6064,10684 L 6064,10884 6264,10884 6264,10684 6064,10684 Z"/>
 <path fill="rgb(0,69,134)" stroke="none" d="M 6286,10671 L 6286,10871 6486,10871 6486,10671 6286,10671 Z"/>
 <path fill="none" stroke="rgb(0,69,134)" stroke-linejoin="round" d="M 6286,10671 L 6286,10871 6486,10871 6486,10671 6286,10671 Z"/>
 <path fill="rgb(0,69,134)" stroke="none" d="M 6508,10664 L 6508,10864 6708,10864 6708,10664 6508,10664 Z"/>
 <path fill="none" stroke="rgb(0,69,134)" stroke-linejoin="round" d="M 6508,10664 L 6508,10864 6708,10864 6708,10664 6508,10664 Z"/>
 <path fill="rgb(0,69,134)" stroke="none" d="M 6730,10605 L 6730,10805 6930,10805 6930,10605 6730,10605 Z"/>
 <path fill="none" stroke="rgb(0,69,134)" stroke-linejoin="round" d="M 6730,10605 L 6730,10805 6930,10805 6930,10605 6730,10605 Z"/>
 <path fill="rgb(0,69,134)" stroke="none" d="M 6952,10597 L 6952,10797 7152,10797 7152,10597 6952,10597 Z"/>
 <path fill="none" stroke="rgb(0,69,134)" stroke-linejoin="round" d="M 6952,10597 L 6952,10797 7152,10797 7152,10597 6952,10597 Z"/>
 <path fill="rgb(0,69,134)" stroke="none" d="M 7174,10526 L 7174,10726 7374,10726 7374,10526 7174,10526 Z"/>
 <path fill="none" stroke="rgb(0,69,134)" stroke-linejoin="round" d="M 7174,10526 L 7174,10726 7374,10726 7374,10526 7174,10526 Z"/>
 <path fill="rgb(0,69,134)" stroke="none" d="M 7396,10485 L 7396,10685 7595,10685 7595,10485 7396,10485 Z"/>
 <path fill="none" stroke="rgb(0,69,134)" stroke-linejoin="round" d="M 7396,10485 L 7396,10685 7595,10685 7595,10485 7396,10485 Z"/>
 <path fill="rgb(0,69,134)" stroke="none" d="M 7617,10419 L 7617,10619 7817,10619 7817,10419 7617,10419 Z"/>
 <path fill="none" stroke="rgb(0,69,134)" stroke-linejoin="round" d="M 7617,10419 L 7617,10619 7817,10619 7817,10419 7617,10419 Z"/>
 <path fill="rgb(0,69,134)" stroke="none" d="M 7839,10328 L 7839,10528 8039,10528 8039,10328 7839,10328 Z"/>
 <path fill="none" stroke="rgb(0,69,134)" stroke-linejoin="round" d="M 7839,10328 L 7839,10528 8039,10528 8039,10328 7839,10328 Z"/>
 <path fill="rgb(0,69,134)" stroke="none" d="M 8060,10202 L 8060,10402 8260,10402 8260,10202 8060,10202 Z"/>
 <path fill="none" stroke="rgb(0,69,134)" stroke-linejoin="round" d="M 8060,10202 L 8060,10402 8260,10402 8260,10202 8060,10202 Z"/>
 <path fill="rgb(0,69,134)" stroke="none" d="M 8282,10049 L 8282,10249 8482,10249 8482,10049 8282,10049 Z"/>
 <path fill="none" stroke="rgb(0,69,134)" stroke-linejoin="round" d="M 8282,10049 L 8282,10249 8482,10249 8482,10049 8282,10049 Z"/>
 <path fill="rgb(0,69,134)" stroke="none" d="M 8504,9870 L 8504,10070 8704,10070 8704,9870 8504,9870 Z"/>
 <path fill="none" stroke="rgb(0,69,134)" stroke-linejoin="round" d="M 8504,9870 L 8504,10070 8704,10070 8704,9870 8504,9870 Z"/>
 <path fill="rgb(0,69,134)" stroke="none" d="M 8726,9675 L 8726,9875 8926,9875 8926,9675 8726,9675 Z"/>
 <path fill="none" stroke="rgb(0,69,134)" stroke-linejoin="round" d="M 8726,9675 L 8726,9875 8926,9875 8926,9675 8726,9675 Z"/>
 <path fill="rgb(0,69,134)" stroke="none" d="M 8948,9385 L 8948,9585 9148,9585 9148,9385 8948,9385 Z"/>
 <path fill="none" stroke="rgb(0,69,134)" stroke-linejoin="round" d="M 8948,9385 L 8948,9585 9148,9585 9148,9385 8948,9385 Z"/>
 <path fill="rgb(0,69,134)" stroke="none" d="M 9170,9131 L 9170,9331 9370,9331 9370,9131 9170,9131 Z"/>
 <path fill="none" stroke="rgb(0,69,134)" stroke-linejoin="round" d="M 9170,9131 L 9170,9331 9370,9331 9370,9131 9170,9131 Z"/>
 <path fill="rgb(0,69,134)" stroke="none" d="M 9392,8833 L 9392,9033 9592,9033 9592,8833 9392,8833 Z"/>
 <path fill="none" stroke="rgb(0,69,134)" stroke-linejoin="round" d="M 9392,8833 L 9392,9033 9592,9033 9592,8833 9392,8833 Z"/>
 <path fill="rgb(0,69,134)" stroke="none" d="M 9614,8510 L 9614,8710 9814,8710 9814,8510 9614,8510 Z"/>
 <path fill="none" stroke="rgb(0,69,134)" stroke-linejoin="round" d="M 9614,8510 L 9614,8710 9814,8710 9814,8510 9614,8510 Z"/>
 <path fill="rgb(0,69,134)" stroke="none" d="M 9836,8185 L 9836,8385 10036,8385 10036,8185 9836,8185 Z"/>
 <path fill="none" stroke="rgb(0,69,134)" stroke-linejoin="round" d="M 9836,8185 L 9836,8385 10036,8385 10036,8185 9836,8185 Z"/>
 <path fill="rgb(0,69,134)" stroke="none" d="M 10058,7870 L 10058,8070 10258,8070 10258,7870 10058,7870 Z"/>
 <path fill="none" stroke="rgb(0,69,134)" stroke-linejoin="round" d="M 10058,7870 L 10058,8070 10258,8070 10258,7870 10058,7870 Z"/>
 <path fill="rgb(0,69,134)" stroke="none" d="M 10279,7541 L 10279,7741 10479,7741 10479,7541 10279,7541 Z"/>
 <path fill="none" stroke="rgb(0,69,134)" stroke-linejoin="round" d="M 10279,7541 L 10279,7741 10479,7741 10479,7541 10279,7541 Z"/>
 <path fill="rgb(0,69,134)" stroke="none" d="M 10501,7206 L 10501,7406 10701,7406 10701,7206 10501,7206 Z"/>
 <path fill="none" stroke="rgb(0,69,134)" stroke-linejoin="round" d="M 10501,7206 L 10501,7406 10701,7406 10701,7206 10501,7206 Z"/>
 <path fill="rgb(0,69,134)" stroke="none" d="M 10723,6837 L 10723,7037 10923,7037 10923,6837 10723,6837 Z"/>
 <path fill="none" stroke="rgb(0,69,134)" stroke-linejoin="round" d="M 10723,6837 L 10723,7037 10923,7037 10923,6837 10723,6837 Z"/>
 <path fill="rgb(0,69,134)" stroke="none" d="M 10945,6476 L 10945,6676 11145,6676 11145,6476 10945,6476 Z"/>
 <path fill="none" stroke="rgb(0,69,134)" stroke-linejoin="round" d="M 10945,6476 L 10945,6676 11145,6676 11145,6476 10945,6476 Z"/>
 <path fill="rgb(0,69,134)" stroke="none" d="M 11167,6162 L 11167,6362 11367,6362 11367,6162 11167,6162 Z"/>
 <path fill="none" stroke="rgb(0,69,134)" stroke-linejoin="round" d="M 11167,6162 L 11167,6362 11367,6362 11367,6162 11167,6162 Z"/>
 <path fill="rgb(0,69,134)" stroke="none" d="M 11389,5902 L 11389,6101 11589,6101 11589,5902 11389,5902 Z"/>
 <path fill="none" stroke="rgb(0,69,134)" stroke-linejoin="round" d="M 11389,5902 L 11389,6101 11589,6101 11589,5902 11389,5902 Z"/>
 <path fill="rgb(0,69,134)" stroke="none" d="M 11611,5655 L 11611,5855 11811,5855 11811,5655 11611,5655 Z"/>
 <path fill="none" stroke="rgb(0,69,134)" stroke-linejoin="round" d="M 11611,5655 L 11611,5855 11811,5855 11811,5655 11611,5655 Z"/>
 <path fill="rgb(0,69,134)" stroke="none" d="M 11833,5367 L 11833,5567 12033,5567 12033,5367 11833,5367 Z"/>
 <path fill="none" stroke="rgb(0,69,134)" stroke-linejoin="round" d="M 11833,5367 L 11833,5567 12033,5567 12033,5367 11833,5367 Z"/>
 <path fill="rgb(0,69,134)" stroke="none" d="M 12055,5073 L 12055,5273 12255,5273 12255,5073 12055,5073 Z"/>
 <path fill="none" stroke="rgb(0,69,134)" stroke-linejoin="round" d="M 12055,5073 L 12055,5273 12255,5273 12255,5073 12055,5073 Z"/>
 <path fill="rgb(0,69,134)" stroke="none" d="M 12277,4808 L 12277,5008 12477,5008 12477,4808 12277,4808 Z"/>
 <path fill="none" stroke="rgb(0,69,134)" stroke-linejoin="round" d="M 12277,4808 L 12277,5008 12477,5008 12477,4808 12277,4808 Z"/>
 <path fill="rgb(0,69,134)" stroke="none" d="M 12498,4574 L 12498,4774 12698,4774 12698,4574 12498,4574 Z"/>
 <path fill="none" stroke="rgb(0,69,134)" stroke-linejoin="round" d="M 12498,4574 L 12498,4774 12698,4774 12698,4574 12498,4574 Z"/>
 <path fill="rgb(0,69,134)" stroke="none" d="M 12720,4376 L 12720,4576 12920,4576 12920,4376 12720,4376 Z"/>
 <path fill="none" stroke="rgb(0,69,134)" stroke-linejoin="round" d="M 12720,4376 L 12720,4576 12920,4576 12920,4376 12720,4376 Z"/>
 <path fill="rgb(0,69,134)" stroke="none" d="M 12942,4136 L 12942,4336 13142,4336 13142,4136 12942,4136 Z"/>
 <path fill="none" stroke="rgb(0,69,134)" stroke-linejoin="round" d="M 12942,4136 L 12942,4336 13142,4336 13142,4136 12942,4136 Z"/>
 <path fill="rgb(0,69,134)" stroke="none" d="M 13164,3935 L 13164,4135 13364,4135 13364,3935 13164,3935 Z"/>
 <path fill="none" stroke="rgb(0,69,134)" stroke-linejoin="round" d="M 13164,3935 L 13164,4135 13364,4135 13364,3935 13164,3935 Z"/>
 <path fill="rgb(0,69,134)" stroke="none" d="M 13386,3715 L 13386,3915 13586,3915 13586,3715 13386,3715 Z"/>
 <path fill="none" stroke="rgb(0,69,134)" stroke-linejoin="round" d="M 13386,3715 L 13386,3915 13586,3915 13586,3715 13386,3715 Z"/>
 <path fill="rgb(0,69,134)" stroke="none" d="M 13608,3513 L 13608,3713 13808,3713 13808,3513 13608,3513 Z"/>
 <path fill="none" stroke="rgb(0,69,134)" stroke-linejoin="round" d="M 13608,3513 L 13608,3713 13808,3713 13808,3513 13608,3513 Z"/>
 <path fill="rgb(0,69,134)" stroke="none" d="M 13830,3299 L 13830,3499 14030,3499 14030,3299 13830,3299 Z"/>
 <path fill="none" stroke="rgb(0,69,134)" stroke-linejoin="round" d="M 13830,3299 L 13830,3499 14030,3499 14030,3299 13830,3299 Z"/>
 <path fill="rgb(0,69,134)" stroke="none" d="M 14052,3072 L 14052,3272 14252,3272 14252,3072 14052,3072 Z"/>
 <path fill="none" stroke="rgb(0,69,134)" stroke-linejoin="round" d="M 14052,3072 L 14052,3272 14252,3272 14252,3072 14052,3072 Z"/>
 <path fill="rgb(0,69,134)" stroke="none" d="M 14274,2853 L 14274,3053 14474,3053 14474,2853 14274,2853 Z"/>
 <path fill="none" stroke="rgb(0,69,134)" stroke-linejoin="round" d="M 14274,2853 L 14274,3053 14474,3053 14474,2853 14274,2853 Z"/>
 <path fill="rgb(0,69,134)" stroke="none" d="M 14496,2694 L 14496,2894 14696,2894 14696,2694 14496,2694 Z"/>
 <path fill="none" stroke="rgb(0,69,134)" stroke-linejoin="round" d="M 14496,2694 L 14496,2894 14696,2894 14696,2694 14496,2694 Z"/>
 <path fill="none" stroke="rgb(255,66,14)" stroke-width="50" stroke-linejoin="round" d="M 1726,10816 L 1948,10816 2170,10816 2392,10816 2614,10816 2836,10816 3058,10816 3280,10816 3502,10816 3723,10816 3945,10815 4167,10815 4389,10815 4611,10814 4833,10813 5055,10810 5277,10809 5499,10808 5721,10805 5942,10798 6164,10793 6386,10786 6608,10781 6830,10770 7052,10759 7274,10749 7496,10722 7717,10672 7939,10642 8160,10599 8382,10555 8604,10483 8826,10390 9048,10300 9270,10159 9492,10043 9714,9919 9936,9806 10158,9644 10379,9450 10601,9253 10823,8727 11045,8293 11267,7885 11489,7684 11711,7361 11933,6811 12155,6602 12377,6081 12598,5700 12820,5453 13042,5236 13264,5013 13486,4718 13708,4160 13930,3868 14152,3573 14374,3324 14596,3171"/>
 <path fill="rgb(255,66,14)" stroke="none" d="M 1626,10816 L 1726,10916 1826,10816 1726,10716 1626,10816 Z"/>
 <path fill="none" stroke="rgb(255,66,14)" stroke-linejoin="round" d="M 1626,10816 L 1726,10916 1826,10816 1726,10716 1626,10816 Z"/>
 <path fill="rgb(255,66,14)" stroke="none" d="M 1848,10816 L 1948,10916 2048,10816 1948,10716 1848,10816 Z"/>
 <path fill="none" stroke="rgb(255,66,14)" stroke-linejoin="round" d="M 1848,10816 L 1948,10916 2048,10816 1948,10716 1848,10816 Z"/>
 <path fill="rgb(255,66,14)" stroke="none" d="M 2070,10816 L 2170,10916 2270,10816 2170,10716 2070,10816 Z"/>
 <path fill="none" stroke="rgb(255,66,14)" stroke-linejoin="round" d="M 2070,10816 L 2170,10916 2270,10816 2170,10716 2070,10816 Z"/>
 <path fill="rgb(255,66,14)" stroke="none" d="M 2292,10816 L 2392,10916 2492,10816 2392,10716 2292,10816 Z"/>
 <path fill="none" stroke="rgb(255,66,14)" stroke-linejoin="round" d="M 2292,10816 L 2392,10916 2492,10816 2392,10716 2292,10816 Z"/>
 <path fill="rgb(255,66,14)" stroke="none" d="M 2514,10816 L 2614,10916 2714,10816 2614,10716 2514,10816 Z"/>
 <path fill="none" stroke="rgb(255,66,14)" stroke-linejoin="round" d="M 2514,10816 L 2614,10916 2714,10816 2614,10716 2514,10816 Z"/>
 <path fill="rgb(255,66,14)" stroke="none" d="M 2736,10816 L 2836,10916 2936,10816 2836,10716 2736,10816 Z"/>
 <path fill="none" stroke="rgb(255,66,14)" stroke-linejoin="round" d="M 2736,10816 L 2836,10916 2936,10816 2836,10716 2736,10816 Z"/>
 <path fill="rgb(255,66,14)" stroke="none" d="M 2958,10816 L 3058,10916 3158,10816 3058,10716 2958,10816 Z"/>
 <path fill="none" stroke="rgb(255,66,14)" stroke-linejoin="round" d="M 2958,10816 L 3058,10916 3158,10816 3058,10716 2958,10816 Z"/>
 <path fill="rgb(255,66,14)" stroke="none" d="M 3180,10816 L 3280,10916 3380,10816 3280,10716 3180,10816 Z"/>
 <path fill="none" stroke="rgb(255,66,14)" stroke-linejoin="round" d="M 3180,10816 L 3280,10916 3380,10816 3280,10716 3180,10816 Z"/>
 <path fill="rgb(255,66,14)" stroke="none" d="M 3402,10816 L 3502,10916 3602,10816 3502,10716 3402,10816 Z"/>
 <path fill="none" stroke="rgb(255,66,14)" stroke-linejoin="round" d="M 3402,10816 L 3502,10916 3602,10816 3502,10716 3402,10816 Z"/>
 <path fill="rgb(255,66,14)" stroke="none" d="M 3623,10816 L 3723,10916 3823,10816 3723,10716 3623,10816 Z"/>
 <path fill="none" stroke="rgb(255,66,14)" stroke-linejoin="round" d="M 3623,10816 L 3723,10916 3823,10816 3723,10716 3623,10816 Z"/>
 <path fill="rgb(255,66,14)" stroke="none" d="M 3845,10815 L 3945,10915 4045,10815 3945,10715 3845,10815 Z"/>
 <path fill="none" stroke="rgb(255,66,14)" stroke-linejoin="round" d="M 3845,10815 L 3945,10915 4045,10815 3945,10715 3845,10815 Z"/>
 <path fill="rgb(255,66,14)" stroke="none" d="M 4067,10815 L 4167,10915 4267,10815 4167,10715 4067,10815 Z"/>
 <path fill="none" stroke="rgb(255,66,14)" stroke-linejoin="round" d="M 4067,10815 L 4167,10915 4267,10815 4167,10715 4067,10815 Z"/>
 <path fill="rgb(255,66,14)" stroke="none" d="M 4289,10815 L 4389,10915 4489,10815 4389,10715 4289,10815 Z"/>
 <path fill="none" stroke="rgb(255,66,14)" stroke-linejoin="round" d="M 4289,10815 L 4389,10915 4489,10815 4389,10715 4289,10815 Z"/>
 <path fill="rgb(255,66,14)" stroke="none" d="M 4511,10814 L 4611,10914 4711,10814 4611,10714 4511,10814 Z"/>
 <path fill="none" stroke="rgb(255,66,14)" stroke-linejoin="round" d="M 4511,10814 L 4611,10914 4711,10814 4611,10714 4511,10814 Z"/>
 <path fill="rgb(255,66,14)" stroke="none" d="M 4733,10813 L 4833,10913 4933,10813 4833,10713 4733,10813 Z"/>
 <path fill="none" stroke="rgb(255,66,14)" stroke-linejoin="round" d="M 4733,10813 L 4833,10913 4933,10813 4833,10713 4733,10813 Z"/>
 <path fill="rgb(255,66,14)" stroke="none" d="M 4955,10810 L 5055,10910 5155,10810 5055,10710 4955,10810 Z"/>
 <path fill="none" stroke="rgb(255,66,14)" stroke-linejoin="round" d="M 4955,10810 L 5055,10910 5155,10810 5055,10710 4955,10810 Z"/>
 <path fill="rgb(255,66,14)" stroke="none" d="M 5177,10809 L 5277,10909 5377,10809 5277,10709 5177,10809 Z"/>
 <path fill="none" stroke="rgb(255,66,14)" stroke-linejoin="round" d="M 5177,10809 L 5277,10909 5377,10809 5277,10709 5177,10809 Z"/>
 <path fill="rgb(255,66,14)" stroke="none" d="M 5399,10808 L 5499,10908 5599,10808 5499,10708 5399,10808 Z"/>
 <path fill="none" stroke="rgb(255,66,14)" stroke-linejoin="round" d="M 5399,10808 L 5499,10908 5599,10808 5499,10708 5399,10808 Z"/>
 <path fill="rgb(255,66,14)" stroke="none" d="M 5621,10805 L 5721,10905 5821,10805 5721,10705 5621,10805 Z"/>
 <path fill="none" stroke="rgb(255,66,14)" stroke-linejoin="round" d="M 5621,10805 L 5721,10905 5821,10805 5721,10705 5621,10805 Z"/>
 <path fill="rgb(255,66,14)" stroke="none" d="M 5842,10798 L 5942,10898 6042,10798 5942,10698 5842,10798 Z"/>
 <path fill="none" stroke="rgb(255,66,14)" stroke-linejoin="round" d="M 5842,10798 L 5942,10898 6042,10798 5942,10698 5842,10798 Z"/>
 <path fill="rgb(255,66,14)" stroke="none" d="M 6064,10793 L 6164,10893 6264,10793 6164,10693 6064,10793 Z"/>
 <path fill="none" stroke="rgb(255,66,14)" stroke-linejoin="round" d="M 6064,10793 L 6164,10893 6264,10793 6164,10693 6064,10793 Z"/>
 <path fill="rgb(255,66,14)" stroke="none" d="M 6286,10786 L 6386,10886 6486,10786 6386,10686 6286,10786 Z"/>
 <path fill="none" stroke="rgb(255,66,14)" stroke-linejoin="round" d="M 6286,10786 L 6386,10886 6486,10786 6386,10686 6286,10786 Z"/>
 <path fill="rgb(255,66,14)" stroke="none" d="M 6508,10781 L 6608,10881 6708,10781 6608,10681 6508,10781 Z"/>
 <path fill="none" stroke="rgb(255,66,14)" stroke-linejoin="round" d="M 6508,10781 L 6608,10881 6708,10781 6608,10681 6508,10781 Z"/>
 <path fill="rgb(255,66,14)" stroke="none" d="M 6730,10770 L 6830,10870 6930,10770 6830,10670 6730,10770 Z"/>
 <path fill="none" stroke="rgb(255,66,14)" stroke-linejoin="round" d="M 6730,10770 L 6830,10870 6930,10770 6830,10670 6730,10770 Z"/>
 <path fill="rgb(255,66,14)" stroke="none" d="M 6952,10759 L 7052,10859 7152,10759 7052,10659 6952,10759 Z"/>
 <path fill="none" stroke="rgb(255,66,14)" stroke-linejoin="round" d="M 6952,10759 L 7052,10859 7152,10759 7052,10659 6952,10759 Z"/>
 <path fill="rgb(255,66,14)" stroke="none" d="M 7174,10749 L 7274,10849 7374,10749 7274,10649 7174,10749 Z"/>
 <path fill="none" stroke="rgb(255,66,14)" stroke-linejoin="round" d="M 7174,10749 L 7274,10849 7374,10749 7274,10649 7174,10749 Z"/>
 <path fill="rgb(255,66,14)" stroke="none" d="M 7396,10722 L 7496,10822 7595,10722 7496,10622 7396,10722 Z"/>
 <path fill="none" stroke="rgb(255,66,14)" stroke-linejoin="round" d="M 7396,10722 L 7496,10822 7595,10722 7496,10622 7396,10722 Z"/>
 <path fill="rgb(255,66,14)" stroke="none" d="M 7617,10672 L 7717,10772 7817,10672 7717,10572 7617,10672 Z"/>
 <path fill="none" stroke="rgb(255,66,14)" stroke-linejoin="round" d="M 7617,10672 L 7717,10772 7817,10672 7717,10572 7617,10672 Z"/>
 <path fill="rgb(255,66,14)" stroke="none" d="M 7839,10642 L 7939,10742 8039,10642 7939,10542 7839,10642 Z"/>
 <path fill="none" stroke="rgb(255,66,14)" stroke-linejoin="round" d="M 7839,10642 L 7939,10742 8039,10642 7939,10542 7839,10642 Z"/>
 <path fill="rgb(255,66,14)" stroke="none" d="M 8060,10599 L 8160,10699 8260,10599 8160,10499 8060,10599 Z"/>
 <path fill="none" stroke="rgb(255,66,14)" stroke-linejoin="round" d="M 8060,10599 L 8160,10699 8260,10599 8160,10499 8060,10599 Z"/>
 <path fill="rgb(255,66,14)" stroke="none" d="M 8282,10555 L 8382,10655 8482,10555 8382,10455 8282,10555 Z"/>
 <path fill="none" stroke="rgb(255,66,14)" stroke-linejoin="round" d="M 8282,10555 L 8382,10655 8482,10555 8382,10455 8282,10555 Z"/>
 <path fill="rgb(255,66,14)" stroke="none" d="M 8504,10483 L 8604,10583 8704,10483 8604,10383 8504,10483 Z"/>
 <path fill="none" stroke="rgb(255,66,14)" stroke-linejoin="round" d="M 8504,10483 L 8604,10583 8704,10483 8604,10383 8504,10483 Z"/>
 <path fill="rgb(255,66,14)" stroke="none" d="M 8726,10390 L 8826,10490 8926,10390 8826,10290 8726,10390 Z"/>
 <path fill="none" stroke="rgb(255,66,14)" stroke-linejoin="round" d="M 8726,10390 L 8826,10490 8926,10390 8826,10290 8726,10390 Z"/>
 <path fill="rgb(255,66,14)" stroke="none" d="M 8948,10300 L 9048,10400 9148,10300 9048,10200 8948,10300 Z"/>
 <path fill="none" stroke="rgb(255,66,14)" stroke-linejoin="round" d="M 8948,10300 L 9048,10400 9148,10300 9048,10200 8948,10300 Z"/>
 <path fill="rgb(255,66,14)" stroke="none" d="M 9170,10159 L 9270,10259 9370,10159 9270,10059 9170,10159 Z"/>
 <path fill="none" stroke="rgb(255,66,14)" stroke-linejoin="round" d="M 9170,10159 L 9270,10259 9370,10159 9270,10059 9170,10159 Z"/>
 <path fill="rgb(255,66,14)" stroke="none" d="M 9392,10043 L 9492,10143 9592,10043 9492,9943 9392,10043 Z"/>
 <path fill="none" stroke="rgb(255,66,14)" stroke-linejoin="round" d="M 9392,10043 L 9492,10143 9592,10043 9492,9943 9392,10043 Z"/>
 <path fill="rgb(255,66,14)" stroke="none" d="M 9614,9919 L 9714,10019 9814,9919 9714,9819 9614,9919 Z"/>
 <path fill="none" stroke="rgb(255,66,14)" stroke-linejoin="round" d="M 9614,9919 L 9714,10019 9814,9919 9714,9819 9614,9919 Z"/>
 <path fill="rgb(255,66,14)" stroke="none" d="M 9836,9806 L 9936,9906 10036,9806 9936,9706 9836,9806 Z"/>
 <path fill="none" stroke="rgb(255,66,14)" stroke-linejoin="round" d="M 9836,9806 L 9936,9906 10036,9806 9936,9706 9836,9806 Z"/>
 <path fill="rgb(255,66,14)" stroke="none" d="M 10058,9644 L 10158,9744 10258,9644 10158,9544 10058,9644 Z"/>
 <path fill="none" stroke="rgb(255,66,14)" stroke-linejoin="round" d="M 10058,9644 L 10158,9744 10258,9644 10158,9544 10058,9644 Z"/>
 <path fill="rgb(255,66,14)" stroke="none" d="M 10279,9450 L 10379,9550 10479,9450 10379,9350 10279,9450 Z"/>
 <path fill="none" stroke="rgb(255,66,14)" stroke-linejoin="round" d="M 10279,9450 L 10379,9550 10479,9450 10379,9350 10279,9450 Z"/>
 <path fill="rgb(255,66,14)" stroke="none" d="M 10501,9253 L 10601,9353 10701,9253 10601,9153 10501,9253 Z"/>
 <path fill="none" stroke="rgb(255,66,14)" stroke-linejoin="round" d="M 10501,9253 L 10601,9353 10701,9253 10601,9153 10501,9253 Z"/>
 <path fill="rgb(255,66,14)" stroke="none" d="M 10723,8727 L 10823,8827 10923,8727 10823,8627 10723,8727 Z"/>
 <path fill="none" stroke="rgb(255,66,14)" stroke-linejoin="round" d="M 10723,8727 L 10823,8827 10923,8727 10823,8627 10723,8727 Z"/>
 <path fill="rgb(255,66,14)" stroke="none" d="M 10945,8293 L 11045,8393 11145,8293 11045,8193 10945,8293 Z"/>
 <path fill="none" stroke="rgb(255,66,14)" stroke-linejoin="round" d="M 10945,8293 L 11045,8393 11145,8293 11045,8193 10945,8293 Z"/>
 <path fill="rgb(255,66,14)" stroke="none" d="M 11167,7885 L 11267,7985 11367,7885 11267,7785 11167,7885 Z"/>
 <path fill="none" stroke="rgb(255,66,14)" stroke-linejoin="round" d="M 11167,7885 L 11267,7985 11367,7885 11267,7785 11167,7885 Z"/>
 <path fill="rgb(255,66,14)" stroke="none" d="M 11389,7684 L 11489,7784 11589,7684 11489,7584 11389,7684 Z"/>
 <path fill="none" stroke="rgb(255,66,14)" stroke-linejoin="round" d="M 11389,7684 L 11489,7784 11589,7684 11489,7584 11389,7684 Z"/>
 <path fill="rgb(255,66,14)" stroke="none" d="M 11611,7361 L 11711,7461 11811,7361 11711,7261 11611,7361 Z"/>
 <path fill="none" stroke="rgb(255,66,14)" stroke-linejoin="round" d="M 11611,7361 L 11711,7461 11811,7361 11711,7261 11611,7361 Z"/>
 <path fill="rgb(255,66,14)" stroke="none" d="M 11833,6811 L 11933,6911 12033,6811 11933,6711 11833,6811 Z"/>
 <path fill="none" stroke="rgb(255,66,14)" stroke-linejoin="round" d="M 11833,6811 L 11933,6911 12033,6811 11933,6711 11833,6811 Z"/>
 <path fill="rgb(255,66,14)" stroke="none" d="M 12055,6602 L 12155,6702 12255,6602 12155,6502 12055,6602 Z"/>
 <path fill="none" stroke="rgb(255,66,14)" stroke-linejoin="round" d="M 12055,6602 L 12155,6702 12255,6602 12155,6502 12055,6602 Z"/>
 <path fill="rgb(255,66,14)" stroke="none" d="M 12277,6081 L 12377,6181 12477,6081 12377,5982 12277,6081 Z"/>
 <path fill="none" stroke="rgb(255,66,14)" stroke-linejoin="round" d="M 12277,6081 L 12377,6181 12477,6081 12377,5982 12277,6081 Z"/>
 <path fill="rgb(255,66,14)" stroke="none" d="M 12498,5700 L 12598,5800 12698,5700 12598,5600 12498,5700 Z"/>
 <path fill="none" stroke="rgb(255,66,14)" stroke-linejoin="round" d="M 12498,5700 L 12598,5800 12698,5700 12598,5600 12498,5700 Z"/>
 <path fill="rgb(255,66,14)" stroke="none" d="M 12720,5453 L 12820,5553 12920,5453 12820,5353 12720,5453 Z"/>
 <path fill="none" stroke="rgb(255,66,14)" stroke-linejoin="round" d="M 12720,5453 L 12820,5553 12920,5453 12820,5353 12720,5453 Z"/>
 <path fill="rgb(255,66,14)" stroke="none" d="M 12942,5236 L 13042,5336 13142,5236 13042,5136 12942,5236 Z"/>
 <path fill="none" stroke="rgb(255,66,14)" stroke-linejoin="round" d="M 12942,5236 L 13042,5336 13142,5236 13042,5136 12942,5236 Z"/>
 <path fill="rgb(255,66,14)" stroke="none" d="M 13164,5013 L 13264,5113 13364,5013 13264,4913 13164,5013 Z"/>
 <path fill="none" stroke="rgb(255,66,14)" stroke-linejoin="round" d="M 13164,5013 L 13264,5113 13364,5013 13264,4913 13164,5013 Z"/>
 <path fill="rgb(255,66,14)" stroke="none" d="M 13386,4718 L 13486,4818 13586,4718 13486,4618 13386,4718 Z"/>
 <path fill="none" stroke="rgb(255,66,14)" stroke-linejoin="round" d="M 13386,4718 L 13486,4818 13586,4718 13486,4618 13386,4718 Z"/>
 <path fill="rgb(255,66,14)" stroke="none" d="M 13608,4160 L 13708,4260 13808,4160 13708,4060 13608,4160 Z"/>
 <path fill="none" stroke="rgb(255,66,14)" stroke-linejoin="round" d="M 13608,4160 L 13708,4260 13808,4160 13708,4060 13608,4160 Z"/>
 <path fill="rgb(255,66,14)" stroke="none" d="M 13830,3868 L 13930,3968 14030,3868 13930,3768 13830,3868 Z"/>
 <path fill="none" stroke="rgb(255,66,14)" stroke-linejoin="round" d="M 13830,3868 L 13930,3968 14030,3868 13930,3768 13830,3868 Z"/>
 <path fill="rgb(255,66,14)" stroke="none" d="M 14052,3573 L 14152,3673 14252,3573 14152,3473 14052,3573 Z"/>
 <path fill="none" stroke="rgb(255,66,14)" stroke-linejoin="round" d="M 14052,3573 L 14152,3673 14252,3573 14152,3473 14052,3573 Z"/>
 <path fill="rgb(255,66,14)" stroke="none" d="M 14274,3324 L 14374,3424 14474,3324 14374,3224 14274,3324 Z"/>
 <path fill="none" stroke="rgb(255,66,14)" stroke-linejoin="round" d="M 14274,3324 L 14374,3424 14474,3324 14374,3224 14274,3324 Z"/>
 <path fill="rgb(255,66,14)" stroke="none" d="M 14496,3171 L 14596,3271 14696,3171 14596,3071 14496,3171 Z"/>
 <path fill="none" stroke="rgb(255,66,14)" stroke-linejoin="round" d="M 14496,3171 L 14596,3271 14696,3171 14596,3071 14496,3171 Z"/>
 <path fill="none" stroke="rgb(255,211,32)" stroke-width="50" stroke-linejoin="round" d="M 1726,10816 L 1948,10816 2170,10815 2392,10814 2614,10813 2836,10812 3058,10810 3280,10808 3502,10805 3723,10803 3945,10796 4167,10786 4389,10775 4611,10759 4833,10740 5055,10726 5277,10675 5499,10637 5721,10572 5942,10496 6164,10422 6386,10326 6608,10258 6830,10115 7052,9980 7274,9846 7496,9662 7717,9496 7939,9253 8160,8945 8382,8693 8604,8460 8826,8172 9048,7907 9270,7650 9492,7274 9714,6930 9936,6636 10158,6322 10379,5998 10601,5716 10823,5421 11045,5124 11267,4860 11489,4657 11711,4410 11933,4176 12155,3965 12377,3729 12598,3508 12820,3268 13042,3101 13264,2881 13486,2648 13708,2424 13930,2220 14152,1997 14374,1810 14596,1642"/>
 <path fill="rgb(255,211,32)" stroke="none" d="M 1626,10716 L 1726,10916 1826,10716 1626,10716 Z"/>
 <path fill="none" stroke="rgb(255,211,32)" stroke-linejoin="round" d="M 1626,10716 L 1726,10916 1826,10716 1626,10716 Z"/>
 <path fill="rgb(255,211,32)" stroke="none" d="M 1848,10716 L 1948,10916 2048,10716 1848,10716 Z"/>
 <path fill="none" stroke="rgb(255,211,32)" stroke-linejoin="round" d="M 1848,10716 L 1948,10916 2048,10716 1848,10716 Z"/>
 <path fill="rgb(255,211,32)" stroke="none" d="M 2070,10715 L 2170,10915 2270,10715 2070,10715 Z"/>
 <path fill="none" stroke="rgb(255,211,32)" stroke-linejoin="round" d="M 2070,10715 L 2170,10915 2270,10715 2070,10715 Z"/>
 <path fill="rgb(255,211,32)" stroke="none" d="M 2292,10714 L 2392,10914 2492,10714 2292,10714 Z"/>
 <path fill="none" stroke="rgb(255,211,32)" stroke-linejoin="round" d="M 2292,10714 L 2392,10914 2492,10714 2292,10714 Z"/>
 <path fill="rgb(255,211,32)" stroke="none" d="M 2514,10713 L 2614,10913 2714,10713 2514,10713 Z"/>
 <path fill="none" stroke="rgb(255,211,32)" stroke-linejoin="round" d="M 2514,10713 L 2614,10913 2714,10713 2514,10713 Z"/>
 <path fill="rgb(255,211,32)" stroke="none" d="M 2736,10712 L 2836,10912 2936,10712 2736,10712 Z"/>
 <path fill="none" stroke="rgb(255,211,32)" stroke-linejoin="round" d="M 2736,10712 L 2836,10912 2936,10712 2736,10712 Z"/>
 <path fill="rgb(255,211,32)" stroke="none" d="M 2958,10710 L 3058,10910 3158,10710 2958,10710 Z"/>
 <path fill="none" stroke="rgb(255,211,32)" stroke-linejoin="round" d="M 2958,10710 L 3058,10910 3158,10710 2958,10710 Z"/>
 <path fill="rgb(255,211,32)" stroke="none" d="M 3180,10708 L 3280,10908 3380,10708 3180,10708 Z"/>
 <path fill="none" stroke="rgb(255,211,32)" stroke-linejoin="round" d="M 3180,10708 L 3280,10908 3380,10708 3180,10708 Z"/>
 <path fill="rgb(255,211,32)" stroke="none" d="M 3402,10705 L 3502,10905 3602,10705 3402,10705 Z"/>
 <path fill="none" stroke="rgb(255,211,32)" stroke-linejoin="round" d="M 3402,10705 L 3502,10905 3602,10705 3402,10705 Z"/>
 <path fill="rgb(255,211,32)" stroke="none" d="M 3623,10703 L 3723,10903 3823,10703 3623,10703 Z"/>
 <path fill="none" stroke="rgb(255,211,32)" stroke-linejoin="round" d="M 3623,10703 L 3723,10903 3823,10703 3623,10703 Z"/>
 <path fill="rgb(255,211,32)" stroke="none" d="M 3845,10696 L 3945,10896 4045,10696 3845,10696 Z"/>
 <path fill="none" stroke="rgb(255,211,32)" stroke-linejoin="round" d="M 3845,10696 L 3945,10896 4045,10696 3845,10696 Z"/>
 <path fill="rgb(255,211,32)" stroke="none" d="M 4067,10686 L 4167,10886 4267,10686 4067,10686 Z"/>
 <path fill="none" stroke="rgb(255,211,32)" stroke-linejoin="round" d="M 4067,10686 L 4167,10886 4267,10686 4067,10686 Z"/>
 <path fill="rgb(255,211,32)" stroke="none" d="M 4289,10675 L 4389,10875 4489,10675 4289,10675 Z"/>
 <path fill="none" stroke="rgb(255,211,32)" stroke-linejoin="round" d="M 4289,10675 L 4389,10875 4489,10675 4289,10675 Z"/>
 <path fill="rgb(255,211,32)" stroke="none" d="M 4511,10659 L 4611,10859 4711,10659 4511,10659 Z"/>
 <path fill="none" stroke="rgb(255,211,32)" stroke-linejoin="round" d="M 4511,10659 L 4611,10859 4711,10659 4511,10659 Z"/>
 <path fill="rgb(255,211,32)" stroke="none" d="M 4733,10640 L 4833,10840 4933,10640 4733,10640 Z"/>
 <path fill="none" stroke="rgb(255,211,32)" stroke-linejoin="round" d="M 4733,10640 L 4833,10840 4933,10640 4733,10640 Z"/>
 <path fill="rgb(255,211,32)" stroke="none" d="M 4955,10626 L 5055,10826 5155,10626 4955,10626 Z"/>
 <path fill="none" stroke="rgb(255,211,32)" stroke-linejoin="round" d="M 4955,10626 L 5055,10826 5155,10626 4955,10626 Z"/>
 <path fill="rgb(255,211,32)" stroke="none" d="M 5177,10575 L 5277,10775 5377,10575 5177,10575 Z"/>
 <path fill="none" stroke="rgb(255,211,32)" stroke-linejoin="round" d="M 5177,10575 L 5277,10775 5377,10575 5177,10575 Z"/>
 <path fill="rgb(255,211,32)" stroke="none" d="M 5399,10537 L 5499,10737 5599,10537 5399,10537 Z"/>
 <path fill="none" stroke="rgb(255,211,32)" stroke-linejoin="round" d="M 5399,10537 L 5499,10737 5599,10537 5399,10537 Z"/>
 <path fill="rgb(255,211,32)" stroke="none" d="M 5621,10472 L 5721,10672 5821,10472 5621,10472 Z"/>
 <path fill="none" stroke="rgb(255,211,32)" stroke-linejoin="round" d="M 5621,10472 L 5721,10672 5821,10472 5621,10472 Z"/>
 <path fill="rgb(255,211,32)" stroke="none" d="M 5842,10396 L 5942,10596 6042,10396 5842,10396 Z"/>
 <path fill="none" stroke="rgb(255,211,32)" stroke-linejoin="round" d="M 5842,10396 L 5942,10596 6042,10396 5842,10396 Z"/>
 <path fill="rgb(255,211,32)" stroke="none" d="M 6064,10322 L 6164,10522 6264,10322 6064,10322 Z"/>
 <path fill="none" stroke="rgb(255,211,32)" stroke-linejoin="round" d="M 6064,10322 L 6164,10522 6264,10322 6064,10322 Z"/>
 <path fill="rgb(255,211,32)" stroke="none" d="M 6286,10226 L 6386,10426 6486,10226 6286,10226 Z"/>
 <path fill="none" stroke="rgb(255,211,32)" stroke-linejoin="round" d="M 6286,10226 L 6386,10426 6486,10226 6286,10226 Z"/>
 <path fill="rgb(255,211,32)" stroke="none" d="M 6508,10158 L 6608,10358 6708,10158 6508,10158 Z"/>
 <path fill="none" stroke="rgb(255,211,32)" stroke-linejoin="round" d="M 6508,10158 L 6608,10358 6708,10158 6508,10158 Z"/>
 <path fill="rgb(255,211,32)" stroke="none" d="M 6730,10015 L 6830,10215 6930,10015 6730,10015 Z"/>
 <path fill="none" stroke="rgb(255,211,32)" stroke-linejoin="round" d="M 6730,10015 L 6830,10215 6930,10015 6730,10015 Z"/>
 <path fill="rgb(255,211,32)" stroke="none" d="M 6952,9880 L 7052,10080 7152,9880 6952,9880 Z"/>
 <path fill="none" stroke="rgb(255,211,32)" stroke-linejoin="round" d="M 6952,9880 L 7052,10080 7152,9880 6952,9880 Z"/>
 <path fill="rgb(255,211,32)" stroke="none" d="M 7174,9746 L 7274,9946 7374,9746 7174,9746 Z"/>
 <path fill="none" stroke="rgb(255,211,32)" stroke-linejoin="round" d="M 7174,9746 L 7274,9946 7374,9746 7174,9746 Z"/>
 <path fill="rgb(255,211,32)" stroke="none" d="M 7396,9562 L 7496,9762 7595,9562 7396,9562 Z"/>
 <path fill="none" stroke="rgb(255,211,32)" stroke-linejoin="round" d="M 7396,9562 L 7496,9762 7595,9562 7396,9562 Z"/>
 <path fill="rgb(255,211,32)" stroke="none" d="M 7617,9396 L 7717,9596 7817,9396 7617,9396 Z"/>
 <path fill="none" stroke="rgb(255,211,32)" stroke-linejoin="round" d="M 7617,9396 L 7717,9596 7817,9396 7617,9396 Z"/>
 <path fill="rgb(255,211,32)" stroke="none" d="M 7839,9153 L 7939,9353 8039,9153 7839,9153 Z"/>
 <path fill="none" stroke="rgb(255,211,32)" stroke-linejoin="round" d="M 7839,9153 L 7939,9353 8039,9153 7839,9153 Z"/>
 <path fill="rgb(255,211,32)" stroke="none" d="M 8060,8845 L 8160,9045 8260,8845 8060,8845 Z"/>
 <path fill="none" stroke="rgb(255,211,32)" stroke-linejoin="round" d="M 8060,8845 L 8160,9045 8260,8845 8060,8845 Z"/>
 <path fill="rgb(255,211,32)" stroke="none" d="M 8282,8593 L 8382,8793 8482,8593 8282,8593 Z"/>
 <path fill="none" stroke="rgb(255,211,32)" stroke-linejoin="round" d="M 8282,8593 L 8382,8793 8482,8593 8282,8593 Z"/>
 <path fill="rgb(255,211,32)" stroke="none" d="M 8504,8360 L 8604,8560 8704,8360 8504,8360 Z"/>
 <path fill="none" stroke="rgb(255,211,32)" stroke-linejoin="round" d="M 8504,8360 L 8604,8560 8704,8360 8504,8360 Z"/>
 <path fill="rgb(255,211,32)" stroke="none" d="M 8726,8072 L 8826,8272 8926,8072 8726,8072 Z"/>
 <path fill="none" stroke="rgb(255,211,32)" stroke-linejoin="round" d="M 8726,8072 L 8826,8272 8926,8072 8726,8072 Z"/>
 <path fill="rgb(255,211,32)" stroke="none" d="M 8948,7807 L 9048,8007 9148,7807 8948,7807 Z"/>
 <path fill="none" stroke="rgb(255,211,32)" stroke-linejoin="round" d="M 8948,7807 L 9048,8007 9148,7807 8948,7807 Z"/>
 <path fill="rgb(255,211,32)" stroke="none" d="M 9170,7550 L 9270,7750 9370,7550 9170,7550 Z"/>
 <path fill="none" stroke="rgb(255,211,32)" stroke-linejoin="round" d="M 9170,7550 L 9270,7750 9370,7550 9170,7550 Z"/>
 <path fill="rgb(255,211,32)" stroke="none" d="M 9392,7174 L 9492,7374 9592,7174 9392,7174 Z"/>
 <path fill="none" stroke="rgb(255,211,32)" stroke-linejoin="round" d="M 9392,7174 L 9492,7374 9592,7174 9392,7174 Z"/>
 <path fill="rgb(255,211,32)" stroke="none" d="M 9614,6830 L 9714,7030 9814,6830 9614,6830 Z"/>
 <path fill="none" stroke="rgb(255,211,32)" stroke-linejoin="round" d="M 9614,6830 L 9714,7030 9814,6830 9614,6830 Z"/>
 <path fill="rgb(255,211,32)" stroke="none" d="M 9836,6536 L 9936,6736 10036,6536 9836,6536 Z"/>
 <path fill="none" stroke="rgb(255,211,32)" stroke-linejoin="round" d="M 9836,6536 L 9936,6736 10036,6536 9836,6536 Z"/>
 <path fill="rgb(255,211,32)" stroke="none" d="M 10058,6222 L 10158,6422 10258,6222 10058,6222 Z"/>
 <path fill="none" stroke="rgb(255,211,32)" stroke-linejoin="round" d="M 10058,6222 L 10158,6422 10258,6222 10058,6222 Z"/>
 <path fill="rgb(255,211,32)" stroke="none" d="M 10279,5898 L 10379,6097 10479,5898 10279,5898 Z"/>
 <path fill="none" stroke="rgb(255,211,32)" stroke-linejoin="round" d="M 10279,5898 L 10379,6097 10479,5898 10279,5898 Z"/>
 <path fill="rgb(255,211,32)" stroke="none" d="M 10501,5616 L 10601,5816 10701,5616 10501,5616 Z"/>
 <path fill="none" stroke="rgb(255,211,32)" stroke-linejoin="round" d="M 10501,5616 L 10601,5816 10701,5616 10501,5616 Z"/>
 <path fill="rgb(255,211,32)" stroke="none" d="M 10723,5321 L 10823,5521 10923,5321 10723,5321 Z"/>
 <path fill="none" stroke="rgb(255,211,32)" stroke-linejoin="round" d="M 10723,5321 L 10823,5521 10923,5321 10723,5321 Z"/>
 <path fill="rgb(255,211,32)" stroke="none" d="M 10945,5024 L 11045,5224 11145,5024 10945,5024 Z"/>
 <path fill="none" stroke="rgb(255,211,32)" stroke-linejoin="round" d="M 10945,5024 L 11045,5224 11145,5024 10945,5024 Z"/>
 <path fill="rgb(255,211,32)" stroke="none" d="M 11167,4760 L 11267,4960 11367,4760 11167,4760 Z"/>
 <path fill="none" stroke="rgb(255,211,32)" stroke-linejoin="round" d="M 11167,4760 L 11267,4960 11367,4760 11167,4760 Z"/>
 <path fill="rgb(255,211,32)" stroke="none" d="M 11389,4557 L 11489,4757 11589,4557 11389,4557 Z"/>
 <path fill="none" stroke="rgb(255,211,32)" stroke-linejoin="round" d="M 11389,4557 L 11489,4757 11589,4557 11389,4557 Z"/>
 <path fill="rgb(255,211,32)" stroke="none" d="M 11611,4310 L 11711,4510 11811,4310 11611,4310 Z"/>
 <path fill="none" stroke="rgb(255,211,32)" stroke-linejoin="round" d="M 11611,4310 L 11711,4510 11811,4310 11611,4310 Z"/>
 <path fill="rgb(255,211,32)" stroke="none" d="M 11833,4076 L 11933,4276 12033,4076 11833,4076 Z"/>
 <path fill="none" stroke="rgb(255,211,32)" stroke-linejoin="round" d="M 11833,4076 L 11933,4276 12033,4076 11833,4076 Z"/>
 <path fill="rgb(255,211,32)" stroke="none" d="M 12055,3865 L 12155,4065 12255,3865 12055,3865 Z"/>
 <path fill="none" stroke="rgb(255,211,32)" stroke-linejoin="round" d="M 12055,3865 L 12155,4065 12255,3865 12055,3865 Z"/>
 <path fill="rgb(255,211,32)" stroke="none" d="M 12277,3629 L 12377,3829 12477,3629 12277,3629 Z"/>
 <path fill="none" stroke="rgb(255,211,32)" stroke-linejoin="round" d="M 12277,3629 L 12377,3829 12477,3629 12277,3629 Z"/>
 <path fill="rgb(255,211,32)" stroke="none" d="M 12498,3408 L 12598,3608 12698,3408 12498,3408 Z"/>
 <path fill="none" stroke="rgb(255,211,32)" stroke-linejoin="round" d="M 12498,3408 L 12598,3608 12698,3408 12498,3408 Z"/>
 <path fill="rgb(255,211,32)" stroke="none" d="M 12720,3168 L 12820,3368 12920,3168 12720,3168 Z"/>
 <path fill="none" stroke="rgb(255,211,32)" stroke-linejoin="round" d="M 12720,3168 L 12820,3368 12920,3168 12720,3168 Z"/>
 <path fill="rgb(255,211,32)" stroke="none" d="M 12942,3001 L 13042,3201 13142,3001 12942,3001 Z"/>
 <path fill="none" stroke="rgb(255,211,32)" stroke-linejoin="round" d="M 12942,3001 L 13042,3201 13142,3001 12942,3001 Z"/>
 <path fill="rgb(255,211,32)" stroke="none" d="M 13164,2781 L 13264,2981 13364,2781 13164,2781 Z"/>
 <path fill="none" stroke="rgb(255,211,32)" stroke-linejoin="round" d="M 13164,2781 L 13264,2981 13364,2781 13164,2781 Z"/>
 <path fill="rgb(255,211,32)" stroke="none" d="M 13386,2548 L 13486,2748 13586,2548 13386,2548 Z"/>
 <path fill="none" stroke="rgb(255,211,32)" stroke-linejoin="round" d="M 13386,2548 L 13486,2748 13586,2548 13386,2548 Z"/>
 <path fill="rgb(255,211,32)" stroke="none" d="M 13608,2324 L 13708,2524 13808,2324 13608,2324 Z"/>
 <path fill="none" stroke="rgb(255,211,32)" stroke-linejoin="round" d="M 13608,2324 L 13708,2524 13808,2324 13608,2324 Z"/>
 <path fill="rgb(255,211,32)" stroke="none" d="M 13830,2120 L 13930,2320 14030,2120 13830,2120 Z"/>
 <path fill="none" stroke="rgb(255,211,32)" stroke-linejoin="round" d="M 13830,2120 L 13930,2320 14030,2120 13830,2120 Z"/>
 <path fill="rgb(255,211,32)" stroke="none" d="M 14052,1897 L 14152,2097 14252,1897 14052,1897 Z"/>
 <path fill="none" stroke="rgb(255,211,32)" stroke-linejoin="round" d="M 14052,1897 L 14152,2097 14252,1897 14052,1897 Z"/>
 <path fill="rgb(255,211,32)" stroke="none" d="M 14274,1710 L 14374,1910 14474,1710 14274,1710 Z"/>
 <path fill="none" stroke="rgb(255,211,32)" stroke-linejoin="round" d="M 14274,1710 L 14374,1910 14474,1710 14274,1710 Z"/>
 <path fill="rgb(255,211,32)" stroke="none" d="M 14496,1542 L 14596,1742 14696,1542 14496,1542 Z"/>
 <path fill="none" stroke="rgb(255,211,32)" stroke-linejoin="round" d="M 14496,1542 L 14596,1742 14696,1542 14496,1542 Z"/>
 <path fill="none" stroke="rgb(87,157,28)" stroke-width="50" stroke-linejoin="round" d="M 4611,10816 L 4833,10816 5055,10816 5277,10815 5499,10815 5721,10814 5942,10813 6164,10813 6386,10813 6608,10808 6830,10803 7052,10795 7274,10789 7496,10777 7717,10761 7939,10748 8160,10726 8382,10708 8604,10687 8826,10653 9048,10592 9270,10522 9492,10421 9714,10340 9936,10270 10158,10123 10379,9904 10601,9684 10823,9418 11045,9144 11267,8904 11489,8733 11711,8428 11933,8064 12155,7723 12377,7343 12598,6987 12820,6701 13042,6423 13264,6121 13486,5827 13708,5493 13930,5165 14152,4819 14374,4589"/>
 <path fill="rgb(87,157,28)" stroke="none" d="M 4511,10916 L 4711,10916 4611,10716 4511,10916 Z"/>
 <path fill="none" stroke="rgb(87,157,28)" stroke-linejoin="round" d="M 4511,10916 L 4711,10916 4611,10716 4511,10916 Z"/>
 <path fill="rgb(87,157,28)" stroke="none" d="M 4733,10916 L 4933,10916 4833,10716 4733,10916 Z"/>
 <path fill="none" stroke="rgb(87,157,28)" stroke-linejoin="round" d="M 4733,10916 L 4933,10916 4833,10716 4733,10916 Z"/>
 <path fill="rgb(87,157,28)" stroke="none" d="M 4955,10916 L 5155,10916 5055,10716 4955,10916 Z"/>
 <path fill="none" stroke="rgb(87,157,28)" stroke-linejoin="round" d="M 4955,10916 L 5155,10916 5055,10716 4955,10916 Z"/>
 <path fill="rgb(87,157,28)" stroke="none" d="M 5177,10915 L 5377,10915 5277,10715 5177,10915 Z"/>
 <path fill="none" stroke="rgb(87,157,28)" stroke-linejoin="round" d="M 5177,10915 L 5377,10915 5277,10715 5177,10915 Z"/>
 <path fill="rgb(87,157,28)" stroke="none" d="M 5399,10915 L 5599,10915 5499,10715 5399,10915 Z"/>
 <path fill="none" stroke="rgb(87,157,28)" stroke-linejoin="round" d="M 5399,10915 L 5599,10915 5499,10715 5399,10915 Z"/>
 <path fill="rgb(87,157,28)" stroke="none" d="M 5621,10914 L 5821,10914 5721,10714 5621,10914 Z"/>
 <path fill="none" stroke="rgb(87,157,28)" stroke-linejoin="round" d="M 5621,10914 L 5821,10914 5721,10714 5621,10914 Z"/>
 <path fill="rgb(87,157,28)" stroke="none" d="M 5842,10913 L 6042,10913 5942,10713 5842,10913 Z"/>
 <path fill="none" stroke="rgb(87,157,28)" stroke-linejoin="round" d="M 5842,10913 L 6042,10913 5942,10713 5842,10913 Z"/>
 <path fill="rgb(87,157,28)" stroke="none" d="M 6064,10913 L 6264,10913 6164,10713 6064,10913 Z"/>
 <path fill="none" stroke="rgb(87,157,28)" stroke-linejoin="round" d="M 6064,10913 L 6264,10913 6164,10713 6064,10913 Z"/>
 <path fill="rgb(87,157,28)" stroke="none" d="M 6286,10913 L 6486,10913 6386,10713 6286,10913 Z"/>
 <path fill="none" stroke="rgb(87,157,28)" stroke-linejoin="round" d="M 6286,10913 L 6486,10913 6386,10713 6286,10913 Z"/>
 <path fill="rgb(87,157,28)" stroke="none" d="M 6508,10908 L 6708,10908 6608,10708 6508,10908 Z"/>
 <path fill="none" stroke="rgb(87,157,28)" stroke-linejoin="round" d="M 6508,10908 L 6708,10908 6608,10708 6508,10908 Z"/>
 <path fill="rgb(87,157,28)" stroke="none" d="M 6730,10903 L 6930,10903 6830,10703 6730,10903 Z"/>
 <path fill="none" stroke="rgb(87,157,28)" stroke-linejoin="round" d="M 6730,10903 L 6930,10903 6830,10703 6730,10903 Z"/>
 <path fill="rgb(87,157,28)" stroke="none" d="M 6952,10895 L 7152,10895 7052,10695 6952,10895 Z"/>
 <path fill="none" stroke="rgb(87,157,28)" stroke-linejoin="round" d="M 6952,10895 L 7152,10895 7052,10695 6952,10895 Z"/>
 <path fill="rgb(87,157,28)" stroke="none" d="M 7174,10889 L 7374,10889 7274,10689 7174,10889 Z"/>
 <path fill="none" stroke="rgb(87,157,28)" stroke-linejoin="round" d="M 7174,10889 L 7374,10889 7274,10689 7174,10889 Z"/>
 <path fill="rgb(87,157,28)" stroke="none" d="M 7396,10877 L 7595,10877 7496,10677 7396,10877 Z"/>
 <path fill="none" stroke="rgb(87,157,28)" stroke-linejoin="round" d="M 7396,10877 L 7595,10877 7496,10677 7396,10877 Z"/>
 <path fill="rgb(87,157,28)" stroke="none" d="M 7617,10861 L 7817,10861 7717,10661 7617,10861 Z"/>
 <path fill="none" stroke="rgb(87,157,28)" stroke-linejoin="round" d="M 7617,10861 L 7817,10861 7717,10661 7617,10861 Z"/>
 <path fill="rgb(87,157,28)" stroke="none" d="M 7839,10848 L 8039,10848 7939,10648 7839,10848 Z"/>
 <path fill="none" stroke="rgb(87,157,28)" stroke-linejoin="round" d="M 7839,10848 L 8039,10848 7939,10648 7839,10848 Z"/>
 <path fill="rgb(87,157,28)" stroke="none" d="M 8060,10826 L 8260,10826 8160,10626 8060,10826 Z"/>
 <path fill="none" stroke="rgb(87,157,28)" stroke-linejoin="round" d="M 8060,10826 L 8260,10826 8160,10626 8060,10826 Z"/>
 <path fill="rgb(87,157,28)" stroke="none" d="M 8282,10808 L 8482,10808 8382,10608 8282,10808 Z"/>
 <path fill="none" stroke="rgb(87,157,28)" stroke-linejoin="round" d="M 8282,10808 L 8482,10808 8382,10608 8282,10808 Z"/>
 <path fill="rgb(87,157,28)" stroke="none" d="M 8504,10787 L 8704,10787 8604,10587 8504,10787 Z"/>
 <path fill="none" stroke="rgb(87,157,28)" stroke-linejoin="round" d="M 8504,10787 L 8704,10787 8604,10587 8504,10787 Z"/>
 <path fill="rgb(87,157,28)" stroke="none" d="M 8726,10753 L 8926,10753 8826,10553 8726,10753 Z"/>
 <path fill="none" stroke="rgb(87,157,28)" stroke-linejoin="round" d="M 8726,10753 L 8926,10753 8826,10553 8726,10753 Z"/>
 <path fill="rgb(87,157,28)" stroke="none" d="M 8948,10692 L 9148,10692 9048,10492 8948,10692 Z"/>
 <path fill="none" stroke="rgb(87,157,28)" stroke-linejoin="round" d="M 8948,10692 L 9148,10692 9048,10492 8948,10692 Z"/>
 <path fill="rgb(87,157,28)" stroke="none" d="M 9170,10622 L 9370,10622 9270,10422 9170,10622 Z"/>
 <path fill="none" stroke="rgb(87,157,28)" stroke-linejoin="round" d="M 9170,10622 L 9370,10622 9270,10422 9170,10622 Z"/>
 <path fill="rgb(87,157,28)" stroke="none" d="M 9392,10521 L 9592,10521 9492,10321 9392,10521 Z"/>
 <path fill="none" stroke="rgb(87,157,28)" stroke-linejoin="round" d="M 9392,10521 L 9592,10521 9492,10321 9392,10521 Z"/>
 <path fill="rgb(87,157,28)" stroke="none" d="M 9614,10440 L 9814,10440 9714,10240 9614,10440 Z"/>
 <path fill="none" stroke="rgb(87,157,28)" stroke-linejoin="round" d="M 9614,10440 L 9814,10440 9714,10240 9614,10440 Z"/>
 <path fill="rgb(87,157,28)" stroke="none" d="M 9836,10370 L 10036,10370 9936,10170 9836,10370 Z"/>
 <path fill="none" stroke="rgb(87,157,28)" stroke-linejoin="round" d="M 9836,10370 L 10036,10370 9936,10170 9836,10370 Z"/>
 <path fill="rgb(87,157,28)" stroke="none" d="M 10058,10223 L 10258,10223 10158,10023 10058,10223 Z"/>
 <path fill="none" stroke="rgb(87,157,28)" stroke-linejoin="round" d="M 10058,10223 L 10258,10223 10158,10023 10058,10223 Z"/>
 <path fill="rgb(87,157,28)" stroke="none" d="M 10279,10004 L 10479,10004 10379,9804 10279,10004 Z"/>
 <path fill="none" stroke="rgb(87,157,28)" stroke-linejoin="round" d="M 10279,10004 L 10479,10004 10379,9804 10279,10004 Z"/>
 <path fill="rgb(87,157,28)" stroke="none" d="M 10501,9784 L 10701,9784 10601,9584 10501,9784 Z"/>
 <path fill="none" stroke="rgb(87,157,28)" stroke-linejoin="round" d="M 10501,9784 L 10701,9784 10601,9584 10501,9784 Z"/>
 <path fill="rgb(87,157,28)" stroke="none" d="M 10723,9518 L 10923,9518 10823,9318 10723,9518 Z"/>
 <path fill="none" stroke="rgb(87,157,28)" stroke-linejoin="round" d="M 10723,9518 L 10923,9518 10823,9318 10723,9518 Z"/>
 <path fill="rgb(87,157,28)" stroke="none" d="M 10945,9244 L 11145,9244 11045,9044 10945,9244 Z"/>
 <path fill="none" stroke="rgb(87,157,28)" stroke-linejoin="round" d="M 10945,9244 L 11145,9244 11045,9044 10945,9244 Z"/>
 <path fill="rgb(87,157,28)" stroke="none" d="M 11167,9004 L 11367,9004 11267,8804 11167,9004 Z"/>
 <path fill="none" stroke="rgb(87,157,28)" stroke-linejoin="round" d="M 11167,9004 L 11367,9004 11267,8804 11167,9004 Z"/>
 <path fill="rgb(87,157,28)" stroke="none" d="M 11389,8833 L 11589,8833 11489,8633 11389,8833 Z"/>
 <path fill="none" stroke="rgb(87,157,28)" stroke-linejoin="round" d="M 11389,8833 L 11589,8833 11489,8633 11389,8833 Z"/>
 <path fill="rgb(87,157,28)" stroke="none" d="M 11611,8528 L 11811,8528 11711,8328 11611,8528 Z"/>
 <path fill="none" stroke="rgb(87,157,28)" stroke-linejoin="round" d="M 11611,8528 L 11811,8528 11711,8328 11611,8528 Z"/>
 <path fill="rgb(87,157,28)" stroke="none" d="M 11833,8164 L 12033,8164 11933,7964 11833,8164 Z"/>
 <path fill="none" stroke="rgb(87,157,28)" stroke-linejoin="round" d="M 11833,8164 L 12033,8164 11933,7964 11833,8164 Z"/>
 <path fill="rgb(87,157,28)" stroke="none" d="M 12055,7823 L 12255,7823 12155,7623 12055,7823 Z"/>
 <path fill="none" stroke="rgb(87,157,28)" stroke-linejoin="round" d="M 12055,7823 L 12255,7823 12155,7623 12055,7823 Z"/>
 <path fill="rgb(87,157,28)" stroke="none" d="M 12277,7443 L 12477,7443 12377,7243 12277,7443 Z"/>
 <path fill="none" stroke="rgb(87,157,28)" stroke-linejoin="round" d="M 12277,7443 L 12477,7443 12377,7243 12277,7443 Z"/>
 <path fill="rgb(87,157,28)" stroke="none" d="M 12498,7087 L 12698,7087 12598,6887 12498,7087 Z"/>
 <path fill="none" stroke="rgb(87,157,28)" stroke-linejoin="round" d="M 12498,7087 L 12698,7087 12598,6887 12498,7087 Z"/>
 <path fill="rgb(87,157,28)" stroke="none" d="M 12720,6801 L 12920,6801 12820,6601 12720,6801 Z"/>
 <path fill="none" stroke="rgb(87,157,28)" stroke-linejoin="round" d="M 12720,6801 L 12920,6801 12820,6601 12720,6801 Z"/>
 <path fill="rgb(87,157,28)" stroke="none" d="M 12942,6523 L 13142,6523 13042,6323 12942,6523 Z"/>
 <path fill="none" stroke="rgb(87,157,28)" stroke-linejoin="round" d="M 12942,6523 L 13142,6523 13042,6323 12942,6523 Z"/>
 <path fill="rgb(87,157,28)" stroke="none" d="M 13164,6221 L 13364,6221 13264,6021 13164,6221 Z"/>
 <path fill="none" stroke="rgb(87,157,28)" stroke-linejoin="round" d="M 13164,6221 L 13364,6221 13264,6021 13164,6221 Z"/>
 <path fill="rgb(87,157,28)" stroke="none" d="M 13386,5927 L 13586,5927 13486,5727 13386,5927 Z"/>
 <path fill="none" stroke="rgb(87,157,28)" stroke-linejoin="round" d="M 13386,5927 L 13586,5927 13486,5727 13386,5927 Z"/>
 <path fill="rgb(87,157,28)" stroke="none" d="M 13608,5593 L 13808,5593 13708,5393 13608,5593 Z"/>
 <path fill="none" stroke="rgb(87,157,28)" stroke-linejoin="round" d="M 13608,5593 L 13808,5593 13708,5393 13608,5593 Z"/>
 <path fill="rgb(87,157,28)" stroke="none" d="M 13830,5265 L 14030,5265 13930,5065 13830,5265 Z"/>
 <path fill="none" stroke="rgb(87,157,28)" stroke-linejoin="round" d="M 13830,5265 L 14030,5265 13930,5065 13830,5265 Z"/>
 <path fill="rgb(87,157,28)" stroke="none" d="M 14052,4919 L 14252,4919 14152,4719 14052,4919 Z"/>
 <path fill="none" stroke="rgb(87,157,28)" stroke-linejoin="round" d="M 14052,4919 L 14252,4919 14152,4719 14052,4919 Z"/>
 <path fill="rgb(87,157,28)" stroke="none" d="M 14274,4689 L 14474,4689 14374,4489 14274,4689 Z"/>
 <path fill="none" stroke="rgb(87,157,28)" stroke-linejoin="round" d="M 14274,4689 L 14474,4689 14374,4489 14274,4689 Z"/>
 <text class="TextShape"><tspan class="TextParagraph" font-family="Liberation Sans, sans-serif" font-size="353px" font-weight="400"><tspan class="TextPosition" x="1080" y="11385"><tspan fill="rgb(0,0,0)" stroke="none">20/02</tspan></tspan></tspan></text>
 <text class="TextShape"><tspan class="TextParagraph" font-family="Liberation Sans, sans-serif" font-size="353px" font-weight="400"><tspan class="TextPosition" x="2634" y="11385"><tspan fill="rgb(0,0,0)" stroke="none">27/02</tspan></tspan></tspan></text>
 <text class="TextShape"><tspan class="TextParagraph" font-family="Liberation Sans, sans-serif" font-size="353px" font-weight="400"><tspan class="TextPosition" x="4187" y="11385"><tspan fill="rgb(0,0,0)" stroke="none">05/03</tspan></tspan></tspan></text>
 <text class="TextShape"><tspan class="TextParagraph" font-family="Liberation Sans, sans-serif" font-size="353px" font-weight="400"><tspan class="TextPosition" x="5740" y="11385"><tspan fill="rgb(0,0,0)" stroke="none">12/03</tspan></tspan></tspan></text>
 <text class="TextShape"><tspan class="TextParagraph" font-family="Liberation Sans, sans-serif" font-size="353px" font-weight="400"><tspan class="TextPosition" x="7294" y="11385"><tspan fill="rgb(0,0,0)" stroke="none">19/03</tspan></tspan></tspan></text>
 <text class="TextShape"><tspan class="TextParagraph" font-family="Liberation Sans, sans-serif" font-size="353px" font-weight="400"><tspan class="TextPosition" x="8847" y="11385"><tspan fill="rgb(0,0,0)" stroke="none">26/03</tspan></tspan></tspan></text>
 <text class="TextShape"><tspan class="TextParagraph" font-family="Liberation Sans, sans-serif" font-size="353px" font-weight="400"><tspan class="TextPosition" x="10400" y="11385"><tspan fill="rgb(0,0,0)" stroke="none">02/04</tspan></tspan></tspan></text>
 <text class="TextShape"><tspan class="TextParagraph" font-family="Liberation Sans, sans-serif" font-size="353px" font-weight="400"><tspan class="TextPosition" x="11954" y="11385"><tspan fill="rgb(0,0,0)" stroke="none">09/04</tspan></tspan></tspan></text>
 <text class="TextShape"><tspan class="TextParagraph" font-family="Liberation Sans, sans-serif" font-size="353px" font-weight="400"><tspan class="TextPosition" x="13507" y="11385"><tspan fill="rgb(0,0,0)" stroke="none">16/04</tspan></tspan></tspan></text>
 <text class="TextShape"><tspan class="TextParagraph" font-family="Liberation Sans, sans-serif" font-size="353px" font-weight="400"><tspan class="TextPosition" x="297" y="8999"><tspan fill="rgb(0,0,0)" stroke="none">5.000</tspan></tspan></tspan></text>
 <text class="TextShape"><tspan class="TextParagraph" font-family="Liberation Sans, sans-serif" font-size="353px" font-weight="400"><tspan class="TextPosition" x="112" y="7060"><tspan fill="rgb(0,0,0)" stroke="none">10.000</tspan></tspan></tspan></text>
 <text class="TextShape"><tspan class="TextParagraph" font-family="Liberation Sans, sans-serif" font-size="353px" font-weight="400"><tspan class="TextPosition" x="112" y="5120"><tspan fill="rgb(0,0,0)" stroke="none">15.000</tspan></tspan></tspan></text>
 <text class="TextShape"><tspan class="TextParagraph" font-family="Liberation Sans, sans-serif" font-size="353px" font-weight="400"><tspan class="TextPosition" x="112" y="3182"><tspan fill="rgb(0,0,0)" stroke="none">20.000</tspan></tspan></tspan></text>
 <text class="TextShape"><tspan class="TextParagraph" font-family="Liberation Sans, sans-serif" font-size="353px" font-weight="400"><tspan class="TextPosition" x="112" y="1243"><tspan fill="rgb(0,0,0)" stroke="none">25.000</tspan></tspan></tspan></text>
 <text class="TextShape"><tspan class="TextParagraph" font-family="Liberation Sans, sans-serif" font-size="459px" font-weight="400"><tspan class="TextPosition" x="1877" y="911"><tspan fill="rgb(0,0,0)" stroke="none">Covid-19. Muertes acumuladas en Europa Occidental (1)</tspan></tspan></tspan></text>
 <path fill="none" stroke="rgb(0,69,134)" stroke-width="50" stroke-linejoin="round" d="M 6293,3483 L 7093,3483"/>
 <path fill="rgb(0,69,134)" stroke="none" d="M 6587,3378 L 6587,3589 6798,3589 6798,3378 6587,3378 Z"/>
 <path fill="none" stroke="rgb(0,69,134)" stroke-linejoin="round" d="M 6587,3378 L 6587,3589 6798,3589 6798,3378 6587,3378 Z"/>
 <path fill="none" stroke="rgb(255,66,14)" stroke-width="50" stroke-linejoin="round" d="M 6293,4499 L 7093,4499"/>
 <path fill="rgb(255,66,14)" stroke="none" d="M 6587,4499 L 6693,4605 6798,4499 6693,4394 6587,4499 Z"/>
 <path fill="none" stroke="rgb(255,66,14)" stroke-linejoin="round" d="M 6587,4499 L 6693,4605 6798,4499 6693,4394 6587,4499 Z"/>
 <path fill="none" stroke="rgb(255,211,32)" stroke-width="50" stroke-linejoin="round" d="M 6293,5515 L 7093,5515"/>
 <path fill="rgb(255,211,32)" stroke="none" d="M 6587,5410 L 6693,5621 6798,5410 6587,5410 Z"/>
 <path fill="none" stroke="rgb(255,211,32)" stroke-linejoin="round" d="M 6587,5410 L 6693,5621 6798,5410 6587,5410 Z"/>
 <path fill="none" stroke="rgb(87,157,28)" stroke-width="50" stroke-linejoin="round" d="M 6293,6530 L 7093,6530"/>
 <path fill="rgb(87,157,28)" stroke="none" d="M 6587,6636 L 6798,6636 6693,6425 6587,6636 Z"/>
 <path fill="none" stroke="rgb(87,157,28)" stroke-linejoin="round" d="M 6587,6636 L 6798,6636 6693,6425 6587,6636 Z"/>
 <text class="TextShape"><tspan class="TextParagraph" font-family="Liberation Sans, sans-serif" font-size="353px" font-weight="400"><tspan class="TextPosition" x="7193" y="3603"><tspan fill="rgb(0,0,0)" stroke="none">Espaa</tspan></tspan></tspan></text>
 <text class="TextShape"><tspan class="TextParagraph" font-family="Liberation Sans, sans-serif" font-size="353px" font-weight="400"><tspan class="TextPosition" x="7193" y="4619"><tspan fill="rgb(0,0,0)" stroke="none">Francia</tspan></tspan></tspan></text>
 <text class="TextShape"><tspan class="TextParagraph" font-family="Liberation Sans, sans-serif" font-size="353px" font-weight="400"><tspan class="TextPosition" x="7193" y="5635"><tspan fill="rgb(0,0,0)" stroke="none">Italia</tspan></tspan></tspan></text>
 <text class="TextShape"><tspan class="TextParagraph" font-family="Liberation Sans, sans-serif" font-size="353px" font-weight="400"><tspan class="TextPosition" x="7193" y="6650"><tspan fill="rgb(0,0,0)" stroke="none">Reino Unido</tspan></tspan></tspan></text>
</svg>