<?xml version="1.0" encoding="UTF-8"?>
<!DOCTYPE svg PUBLIC "-//W3C//DTD SVG 1.1//EN" "http://www.w3.org/Graphics/SVG/1.1/DTD/svg11.dtd">
<svg width="150mm" height="120mm" viewBox="0 0 15000 12000" version="1.1" xmlns="http://www.w3.org/2000/svg" xmlns:xlink="http://www.w3.org/1999/xlink" stroke-width="28.222" stroke-linejoin="round" xml:space="preserve">
 <path fill="rgb(255,255,255)" stroke="none" d="M 7500,12000 L 0,12000 0,0 15000,0 15000,12000 7500,12000 Z"/>
 <path fill="none" stroke="rgb(0,0,0)" stroke-linejoin="round" d="M 8118,9997 L 1547,9997 1547,1029 14690,1029 14690,9997 8118,9997 Z"/>
 <path fill="none" stroke="rgb(221,221,221)" stroke-linejoin="round" d="M 1547,1028 L 1547,9996"/>
 <path fill="none" stroke="rgb(221,221,221)" stroke-linejoin="round" d="M 1769,1028 L 1769,9996"/>
 <path fill="none" stroke="rgb(221,221,221)" stroke-linejoin="round" d="M 1992,1028 L 1992,9996"/>
 <path fill="none" stroke="rgb(221,221,221)" stroke-linejoin="round" d="M 2215,1028 L 2215,9996"/>
 <path fill="none" stroke="rgb(221,221,221)" stroke-linejoin="round" d="M 2438,1028 L 2438,9996"/>
 <path fill="none" stroke="rgb(221,221,221)" stroke-linejoin="round" d="M 2660,1028 L 2660,9996"/>
 <path fill="none" stroke="rgb(221,221,221)" stroke-linejoin="round" d="M 2883,1028 L 2883,9996"/>
 <path fill="none" stroke="rgb(221,221,221)" stroke-linejoin="round" d="M 3106,1028 L 3106,9996"/>
 <path fill="none" stroke="rgb(221,221,221)" stroke-linejoin="round" d="M 3329,1028 L 3329,9996"/>
 <path fill="none" stroke="rgb(221,221,221)" stroke-linejoin="round" d="M 3552,1028 L 3552,9996"/>
 <path fill="none" stroke="rgb(221,221,221)" stroke-linejoin="round" d="M 3774,1028 L 3774,9996"/>
 <path fill="none" stroke="rgb(221,221,221)" stroke-linejoin="round" d="M 3997,1028 L 3997,9996"/>
 <path fill="none" stroke="rgb(221,221,221)" stroke-linejoin="round" d="M 4220,1028 L 4220,9996"/>
 <path fill="none" stroke="rgb(221,221,221)" stroke-linejoin="round" d="M 4443,1028 L 4443,9996"/>
 <path fill="none" stroke="rgb(221,221,221)" stroke-linejoin="round" d="M 4665,1028 L 4665,9996"/>
 <path fill="none" stroke="rgb(221,221,221)" stroke-linejoin="round" d="M 4888,1028 L 4888,9996"/>
 <path fill="none" stroke="rgb(221,221,221)" stroke-linejoin="round" d="M 5111,1028 L 5111,9996"/>
 <path fill="none" stroke="rgb(221,221,221)" stroke-linejoin="round" d="M 5334,1028 L 5334,9996"/>
 <path fill="none" stroke="rgb(221,221,221)" stroke-linejoin="round" d="M 5557,1028 L 5557,9996"/>
 <path fill="none" stroke="rgb(221,221,221)" stroke-linejoin="round" d="M 5779,1028 L 5779,9996"/>
 <path fill="none" stroke="rgb(221,221,221)" stroke-linejoin="round" d="M 6002,1028 L 6002,9996"/>
 <path fill="none" stroke="rgb(221,221,221)" stroke-linejoin="round" d="M 6225,1028 L 6225,9996"/>
 <path fill="none" stroke="rgb(221,221,221)" stroke-linejoin="round" d="M 6448,1028 L 6448,9996"/>
 <path fill="none" stroke="rgb(221,221,221)" stroke-linejoin="round" d="M 6670,1028 L 6670,9996"/>
 <path fill="none" stroke="rgb(221,221,221)" stroke-linejoin="round" d="M 6893,1028 L 6893,9996"/>
 <path fill="none" stroke="rgb(221,221,221)" stroke-linejoin="round" d="M 7116,1028 L 7116,9996"/>
 <path fill="none" stroke="rgb(221,221,221)" stroke-linejoin="round" d="M 7339,1028 L 7339,9996"/>
 <path fill="none" stroke="rgb(221,221,221)" stroke-linejoin="round" d="M 7561,1028 L 7561,9996"/>
 <path fill="none" stroke="rgb(221,221,221)" stroke-linejoin="round" d="M 7783,1028 L 7783,9996"/>
 <path fill="none" stroke="rgb(221,221,221)" stroke-linejoin="round" d="M 8006,1028 L 8006,9996"/>
 <path fill="none" stroke="rgb(221,221,221)" stroke-linejoin="round" d="M 8229,1028 L 8229,9996"/>
 <path fill="none" stroke="rgb(221,221,221)" stroke-linejoin="round" d="M 8452,1028 L 8452,9996"/>
 <path fill="none" stroke="rgb(221,221,221)" stroke-linejoin="round" d="M 8674,1028 L 8674,9996"/>
 <path fill="none" stroke="rgb(221,221,221)" stroke-linejoin="round" d="M 8897,1028 L 8897,9996"/>
 <path fill="none" stroke="rgb(221,221,221)" stroke-linejoin="round" d="M 9120,1028 L 9120,9996"/>
 <path fill="none" stroke="rgb(221,221,221)" stroke-linejoin="round" d="M 9343,1028 L 9343,9996"/>
 <path fill="none" stroke="rgb(221,221,221)" stroke-linejoin="round" d="M 9566,1028 L 9566,9996"/>
 <path fill="none" stroke="rgb(221,221,221)" stroke-linejoin="round" d="M 9788,1028 L 9788,9996"/>
 <path fill="none" stroke="rgb(221,221,221)" stroke-linejoin="round" d="M 10011,1028 L 10011,9996"/>
 <path fill="none" stroke="rgb(221,221,221)" stroke-linejoin="round" d="M 10234,1028 L 10234,9996"/>
 <path fill="none" stroke="rgb(221,221,221)" stroke-linejoin="round" d="M 10457,1028 L 10457,9996"/>
 <path fill="none" stroke="rgb(221,221,221)" stroke-linejoin="round" d="M 10679,1028 L 10679,9996"/>
 <path fill="none" stroke="rgb(221,221,221)" stroke-linejoin="round" d="M 10902,1028 L 10902,9996"/>
 <path fill="none" stroke="rgb(221,221,221)" stroke-linejoin="round" d="M 11125,1028 L 11125,9996"/>
 <path fill="none" stroke="rgb(221,221,221)" stroke-linejoin="round" d="M 11348,1028 L 11348,9996"/>
 <path fill="none" stroke="rgb(221,221,221)" stroke-linejoin="round" d="M 11571,1028 L 11571,9996"/>
 <path fill="none" stroke="rgb(221,221,221)" stroke-linejoin="round" d="M 11793,1028 L 11793,9996"/>
 <path fill="none" stroke="rgb(221,221,221)" stroke-linejoin="round" d="M 12016,1028 L 12016,9996"/>
 <path fill="none" stroke="rgb(221,221,221)" stroke-linejoin="round" d="M 12239,1028 L 12239,9996"/>
 <path fill="none" stroke="rgb(221,221,221)" stroke-linejoin="round" d="M 12462,1028 L 12462,9996"/>
 <path fill="none" stroke="rgb(221,221,221)" stroke-linejoin="round" d="M 12684,1028 L 12684,9996"/>
 <path fill="none" stroke="rgb(221,221,221)" stroke-linejoin="round" d="M 12907,1028 L 12907,9996"/>
 <path fill="none" stroke="rgb(221,221,221)" stroke-linejoin="round" d="M 13130,1028 L 13130,9996"/>
 <path fill="none" stroke="rgb(221,221,221)" stroke-linejoin="round" d="M 13353,1028 L 13353,9996"/>
 <path fill="none" stroke="rgb(221,221,221)" stroke-linejoin="round" d="M 13576,1028 L 13576,9996"/>
 <path fill="none" stroke="rgb(221,221,221)" stroke-linejoin="round" d="M 13798,1028 L 13798,9996"/>
 <path fill="none" stroke="rgb(221,221,221)" stroke-linejoin="round" d="M 14021,1028 L 14021,9996"/>
 <path fill="none" stroke="rgb(221,221,221)" stroke-linejoin="round" d="M 14244,1028 L 14244,9996"/>
 <path fill="none" stroke="rgb(221,221,221)" stroke-linejoin="round" d="M 14467,1028 L 14467,9996"/>
 <path fill="none" stroke="rgb(221,221,221)" stroke-linejoin="round" d="M 14690,1028 L 14690,9996"/>
 <path fill="none" stroke="rgb(0,0,0)" stroke-linejoin="round" d="M 14690,9996 L 1547,9996"/>
 <path fill="none" stroke="rgb(0,0,0)" stroke-linejoin="round" d="M 14690,8874 L 1547,8874"/>
 <path fill="none" stroke="rgb(0,0,0)" stroke-linejoin="round" d="M 14690,7753 L 1547,7753"/>
 <path fill="none" stroke="rgb(0,0,0)" stroke-linejoin="round" d="M 14690,6632 L 1547,6632"/>
 <path fill="none" stroke="rgb(0,0,0)" stroke-linejoin="round" d="M 14690,5512 L 1547,5512"/>
 <path fill="none" stroke="rgb(0,0,0)" stroke-linejoin="round" d="M 14690,4391 L 1547,4391"/>
 <path fill="none" stroke="rgb(0,0,0)" stroke-linejoin="round" d="M 14690,3270 L 1547,3270"/>
 <path fill="none" stroke="rgb(0,0,0)" stroke-linejoin="round" d="M 14690,2149 L 1547,2149"/>
 <path fill="none" stroke="rgb(0,0,0)" stroke-linejoin="round" d="M 14690,1028 L 1547,1028"/>
 <path fill="none" stroke="rgb(0,0,0)" stroke-linejoin="round" d="M 1547,10146 L 1547,9996"/>
 <path fill="none" stroke="rgb(0,0,0)" stroke-linejoin="round" d="M 1547,10146 L 1547,9996"/>
 <path fill="none" stroke="rgb(0,0,0)" stroke-linejoin="round" d="M 3106,10146 L 3106,9996"/>
 <path fill="none" stroke="rgb(0,0,0)" stroke-linejoin="round" d="M 3106,10146 L 3106,9996"/>
 <path fill="none" stroke="rgb(0,0,0)" stroke-linejoin="round" d="M 4665,10146 L 4665,9996"/>
 <path fill="none" stroke="rgb(0,0,0)" stroke-linejoin="round" d="M 4665,10146 L 4665,9996"/>
 <path fill="none" stroke="rgb(0,0,0)" stroke-linejoin="round" d="M 6225,10146 L 6225,9996"/>
 <path fill="none" stroke="rgb(0,0,0)" stroke-linejoin="round" d="M 6225,10146 L 6225,9996"/>
 <path fill="none" stroke="rgb(0,0,0)" stroke-linejoin="round" d="M 7783,10146 L 7783,9996"/>
 <path fill="none" stroke="rgb(0,0,0)" stroke-linejoin="round" d="M 7783,10146 L 7783,9996"/>
 <path fill="none" stroke="rgb(0,0,0)" stroke-linejoin="round" d="M 9343,10146 L 9343,9996"/>
 <path fill="none" stroke="rgb(0,0,0)" stroke-linejoin="round" d="M 9343,10146 L 9343,9996"/>
 <path fill="none" stroke="rgb(0,0,0)" stroke-linejoin="round" d="M 10902,10146 L 10902,9996"/>
 <path fill="none" stroke="rgb(0,0,0)" stroke-linejoin="round" d="M 10902,10146 L 10902,9996"/>
 <path fill="none" stroke="rgb(0,0,0)" stroke-linejoin="round" d="M 12462,10146 L 12462,9996"/>
 <path fill="none" stroke="rgb(0,0,0)" stroke-linejoin="round" d="M 12462,10146 L 12462,9996"/>
 <path fill="none" stroke="rgb(0,0,0)" stroke-linejoin="round" d="M 14021,10146 L 14021,9996"/>
 <path fill="none" stroke="rgb(0,0,0)" stroke-linejoin="round" d="M 14021,10146 L 14021,9996"/>
 <path fill="none" stroke="rgb(0,0,0)" stroke-linejoin="round" d="M 1547,9996 L 14690,9996"/>
 <path fill="none" stroke="rgb(0,0,0)" stroke-linejoin="round" d="M 1397,9996 L 1547,9996"/>
 <path fill="none" stroke="rgb(0,0,0)" stroke-linejoin="round" d="M 1397,9996 L 1547,9996"/>
 <path fill="none" stroke="rgb(0,0,0)" stroke-linejoin="round" d="M 1397,8874 L 1547,8874"/>
 <path fill="none" stroke="rgb(0,0,0)" stroke-linejoin="round" d="M 1397,8874 L 1547,8874"/>
 <path fill="none" stroke="rgb(0,0,0)" stroke-linejoin="round" d="M 1397,7753 L 1547,7753"/>
 <path fill="none" stroke="rgb(0,0,0)" stroke-linejoin="round" d="M 1397,7753 L 1547,7753"/>
 <path fill="none" stroke="rgb(0,0,0)" stroke-linejoin="round" d="M 1397,6632 L 1547,6632"/>
 <path fill="none" stroke="rgb(0,0,0)" stroke-linejoin="round" d="M 1397,6632 L 1547,6632"/>
 <path fill="none" stroke="rgb(0,0,0)" stroke-linejoin="round" d="M 1397,5512 L 1547,5512"/>
 <path fill="none" stroke="rgb(0,0,0)" stroke-linejoin="round" d="M 1397,5512 L 1547,5512"/>
 <path fill="none" stroke="rgb(0,0,0)" stroke-linejoin="round" d="M 1397,4391 L 1547,4391"/>
 <path fill="none" stroke="rgb(0,0,0)" stroke-linejoin="round" d="M 1397,4391 L 1547,4391"/>
 <path fill="none" stroke="rgb(0,0,0)" stroke-linejoin="round" d="M 1397,3270 L 1547,3270"/>
 <path fill="none" stroke="rgb(0,0,0)" stroke-linejoin="round" d="M 1397,3270 L 1547,3270"/>
 <path fill="none" stroke="rgb(0,0,0)" stroke-linejoin="round" d="M 1397,2149 L 1547,2149"/>
 <path fill="none" stroke="rgb(0,0,0)" stroke-linejoin="round" d="M 1397,2149 L 1547,2149"/>
 <path fill="none" stroke="rgb(0,0,0)" stroke-linejoin="round" d="M 1397,1028 L 1547,1028"/>
 <path fill="none" stroke="rgb(0,0,0)" stroke-linejoin="round" d="M 1397,1028 L 1547,1028"/>
 <path fill="none" stroke="rgb(0,0,0)" stroke-linejoin="round" d="M 1547,9996 L 1547,1028"/>
 <path fill="none" stroke="rgb(0,0,0)" stroke-width="50" stroke-linejoin="round" d="M 6782,9771 L 7005,9547 7227,9883 7450,9547 7672,9099 7895,9547 8118,9211 8340,8874 8563,9211 8786,8762 9009,6744 9231,7081 9454,7641 9677,8874 9900,6520 10123,6408 10345,6744 10568,8650 10791,3270 11014,6072 11236,6296 11459,4391 11682,5064 11905,7641 12128,5848 12350,1364 12573,4727 12796,5624 13019,4839 13241,3046 13464,8202 13687,7641 13910,6744 14133,4727 14355,6856 14578,6968"/>
 <path fill="rgb(0,0,0)" stroke="none" d="M 6682,9771 L 6782,9871 6882,9771 6782,9671 6682,9771 Z"/>
 <path fill="none" stroke="rgb(0,0,0)" stroke-linejoin="round" d="M 6682,9771 L 6782,9871 6882,9771 6782,9671 6682,9771 Z"/>
 <path fill="rgb(0,0,0)" stroke="none" d="M 6905,9547 L 7005,9647 7105,9547 7005,9447 6905,9547 Z"/>
 <path fill="none" stroke="rgb(0,0,0)" stroke-linejoin="round" d="M 6905,9547 L 7005,9647 7105,9547 7005,9447 6905,9547 Z"/>
 <path fill="rgb(0,0,0)" stroke="none" d="M 7127,9883 L 7227,9983 7327,9883 7227,9783 7127,9883 Z"/>
 <path fill="none" stroke="rgb(0,0,0)" stroke-linejoin="round" d="M 7127,9883 L 7227,9983 7327,9883 7227,9783 7127,9883 Z"/>
 <path fill="rgb(0,0,0)" stroke="none" d="M 7350,9547 L 7450,9647 7549,9547 7450,9447 7350,9547 Z"/>
 <path fill="none" stroke="rgb(0,0,0)" stroke-linejoin="round" d="M 7350,9547 L 7450,9647 7549,9547 7450,9447 7350,9547 Z"/>
 <path fill="rgb(0,0,0)" stroke="none" d="M 7572,9099 L 7672,9199 7772,9099 7672,8999 7572,9099 Z"/>
 <path fill="none" stroke="rgb(0,0,0)" stroke-linejoin="round" d="M 7572,9099 L 7672,9199 7772,9099 7672,8999 7572,9099 Z"/>
 <path fill="rgb(0,0,0)" stroke="none" d="M 7795,9547 L 7895,9647 7995,9547 7895,9447 7795,9547 Z"/>
 <path fill="none" stroke="rgb(0,0,0)" stroke-linejoin="round" d="M 7795,9547 L 7895,9647 7995,9547 7895,9447 7795,9547 Z"/>
 <path fill="rgb(0,0,0)" stroke="none" d="M 8018,9211 L 8118,9311 8218,9211 8118,9111 8018,9211 Z"/>
 <path fill="none" stroke="rgb(0,0,0)" stroke-linejoin="round" d="M 8018,9211 L 8118,9311 8218,9211 8118,9111 8018,9211 Z"/>
 <path fill="rgb(0,0,0)" stroke="none" d="M 8240,8874 L 8340,8974 8440,8874 8340,8774 8240,8874 Z"/>
 <path fill="none" stroke="rgb(0,0,0)" stroke-linejoin="round" d="M 8240,8874 L 8340,8974 8440,8874 8340,8774 8240,8874 Z"/>
 <path fill="rgb(0,0,0)" stroke="none" d="M 8463,9211 L 8563,9311 8663,9211 8563,9111 8463,9211 Z"/>
 <path fill="none" stroke="rgb(0,0,0)" stroke-linejoin="round" d="M 8463,9211 L 8563,9311 8663,9211 8563,9111 8463,9211 Z"/>
 <path fill="rgb(0,0,0)" stroke="none" d="M 8686,8762 L 8786,8862 8886,8762 8786,8662 8686,8762 Z"/>
 <path fill="none" stroke="rgb(0,0,0)" stroke-linejoin="round" d="M 8686,8762 L 8786,8862 8886,8762 8786,8662 8686,8762 Z"/>
 <path fill="rgb(0,0,0)" stroke="none" d="M 8909,6744 L 9009,6844 9109,6744 9009,6644 8909,6744 Z"/>
 <path fill="none" stroke="rgb(0,0,0)" stroke-linejoin="round" d="M 8909,6744 L 9009,6844 9109,6744 9009,6644 8909,6744 Z"/>
 <path fill="rgb(0,0,0)" stroke="none" d="M 9131,7081 L 9231,7181 9331,7081 9231,6981 9131,7081 Z"/>
 <path fill="none" stroke="rgb(0,0,0)" stroke-linejoin="round" d="M 9131,7081 L 9231,7181 9331,7081 9231,6981 9131,7081 Z"/>
 <path fill="rgb(0,0,0)" stroke="none" d="M 9354,7641 L 9454,7741 9554,7641 9454,7541 9354,7641 Z"/>
 <path fill="none" stroke="rgb(0,0,0)" stroke-linejoin="round" d="M 9354,7641 L 9454,7741 9554,7641 9454,7541 9354,7641 Z"/>
 <path fill="rgb(0,0,0)" stroke="none" d="M 9577,8874 L 9677,8974 9777,8874 9677,8774 9577,8874 Z"/>
 <path fill="none" stroke="rgb(0,0,0)" stroke-linejoin="round" d="M 9577,8874 L 9677,8974 9777,8874 9677,8774 9577,8874 Z"/>
 <path fill="rgb(0,0,0)" stroke="none" d="M 9800,6520 L 9900,6620 10000,6520 9900,6420 9800,6520 Z"/>
 <path fill="none" stroke="rgb(0,0,0)" stroke-linejoin="round" d="M 9800,6520 L 9900,6620 10000,6520 9900,6420 9800,6520 Z"/>
 <path fill="rgb(0,0,0)" stroke="none" d="M 10023,6408 L 10123,6508 10223,6408 10123,6308 10023,6408 Z"/>
 <path fill="none" stroke="rgb(0,0,0)" stroke-linejoin="round" d="M 10023,6408 L 10123,6508 10223,6408 10123,6308 10023,6408 Z"/>
 <path fill="rgb(0,0,0)" stroke="none" d="M 10245,6744 L 10345,6844 10445,6744 10345,6644 10245,6744 Z"/>
 <path fill="none" stroke="rgb(0,0,0)" stroke-linejoin="round" d="M 10245,6744 L 10345,6844 10445,6744 10345,6644 10245,6744 Z"/>
 <path fill="rgb(0,0,0)" stroke="none" d="M 10468,8650 L 10568,8750 10668,8650 10568,8550 10468,8650 Z"/>
 <path fill="none" stroke="rgb(0,0,0)" stroke-linejoin="round" d="M 10468,8650 L 10568,8750 10668,8650 10568,8550 10468,8650 Z"/>
 <path fill="rgb(0,0,0)" stroke="none" d="M 10691,3270 L 10791,3370 10891,3270 10791,3170 10691,3270 Z"/>
 <path fill="none" stroke="rgb(0,0,0)" stroke-linejoin="round" d="M 10691,3270 L 10791,3370 10891,3270 10791,3170 10691,3270 Z"/>
 <path fill="rgb(0,0,0)" stroke="none" d="M 10914,6072 L 11014,6172 11114,6072 11014,5973 10914,6072 Z"/>
 <path fill="none" stroke="rgb(0,0,0)" stroke-linejoin="round" d="M 10914,6072 L 11014,6172 11114,6072 11014,5973 10914,6072 Z"/>
 <path fill="rgb(0,0,0)" stroke="none" d="M 11136,6296 L 11236,6396 11336,6296 11236,6196 11136,6296 Z"/>
 <path fill="none" stroke="rgb(0,0,0)" stroke-linejoin="round" d="M 11136,6296 L 11236,6396 11336,6296 11236,6196 11136,6296 Z"/>
 <path fill="rgb(0,0,0)" stroke="none" d="M 11359,4391 L 11459,4491 11559,4391 11459,4291 11359,4391 Z"/>
 <path fill="none" stroke="rgb(0,0,0)" stroke-linejoin="round" d="M 11359,4391 L 11459,4491 11559,4391 11459,4291 11359,4391 Z"/>
 <path fill="rgb(0,0,0)" stroke="none" d="M 11582,5064 L 11682,5164 11782,5064 11682,4964 11582,5064 Z"/>
 <path fill="none" stroke="rgb(0,0,0)" stroke-linejoin="round" d="M 11582,5064 L 11682,5164 11782,5064 11682,4964 11582,5064 Z"/>
 <path fill="rgb(0,0,0)" stroke="none" d="M 11805,7641 L 11905,7741 12005,7641 11905,7541 11805,7641 Z"/>
 <path fill="none" stroke="rgb(0,0,0)" stroke-linejoin="round" d="M 11805,7641 L 11905,7741 12005,7641 11905,7541 11805,7641 Z"/>
 <path fill="rgb(0,0,0)" stroke="none" d="M 12028,5848 L 12128,5948 12228,5848 12128,5748 12028,5848 Z"/>
 <path fill="none" stroke="rgb(0,0,0)" stroke-linejoin="round" d="M 12028,5848 L 12128,5948 12228,5848 12128,5748 12028,5848 Z"/>
 <path fill="rgb(0,0,0)" stroke="none" d="M 12250,1364 L 12350,1464 12450,1364 12350,1264 12250,1364 Z"/>
 <path fill="none" stroke="rgb(0,0,0)" stroke-linejoin="round" d="M 12250,1364 L 12350,1464 12450,1364 12350,1264 12250,1364 Z"/>
 <path fill="rgb(0,0,0)" stroke="none" d="M 12473,4727 L 12573,4827 12673,4727 12573,4627 12473,4727 Z"/>
 <path fill="none" stroke="rgb(0,0,0)" stroke-linejoin="round" d="M 12473,4727 L 12573,4827 12673,4727 12573,4627 12473,4727 Z"/>
 <path fill="rgb(0,0,0)" stroke="none" d="M 12696,5624 L 12796,5724 12896,5624 12796,5524 12696,5624 Z"/>
 <path fill="none" stroke="rgb(0,0,0)" stroke-linejoin="round" d="M 12696,5624 L 12796,5724 12896,5624 12796,5524 12696,5624 Z"/>
 <path fill="rgb(0,0,0)" stroke="none" d="M 12919,4839 L 13019,4939 13119,4839 13019,4739 12919,4839 Z"/>
 <path fill="none" stroke="rgb(0,0,0)" stroke-linejoin="round" d="M 12919,4839 L 13019,4939 13119,4839 13019,4739 12919,4839 Z"/>
 <path fill="rgb(0,0,0)" stroke="none" d="M 13141,3046 L 13241,3146 13341,3046 13241,2946 13141,3046 Z"/>
 <path fill="none" stroke="rgb(0,0,0)" stroke-linejoin="round" d="M 13141,3046 L 13241,3146 13341,3046 13241,2946 13141,3046 Z"/>
 <path fill="rgb(0,0,0)" stroke="none" d="M 13364,8202 L 13464,8302 13564,8202 13464,8102 13364,8202 Z"/>
 <path fill="none" stroke="rgb(0,0,0)" stroke-linejoin="round" d="M 13364,8202 L 13464,8302 13564,8202 13464,8102 13364,8202 Z"/>
 <path fill="rgb(0,0,0)" stroke="none" d="M 13587,7641 L 13687,7741 13787,7641 13687,7541 13587,7641 Z"/>
 <path fill="none" stroke="rgb(0,0,0)" stroke-linejoin="round" d="M 13587,7641 L 13687,7741 13787,7641 13687,7541 13587,7641 Z"/>
 <path fill="rgb(0,0,0)" stroke="none" d="M 13810,6744 L 13910,6844 14010,6744 13910,6644 13810,6744 Z"/>
 <path fill="none" stroke="rgb(0,0,0)" stroke-linejoin="round" d="M 13810,6744 L 13910,6844 14010,6744 13910,6644 13810,6744 Z"/>
 <path fill="rgb(0,0,0)" stroke="none" d="M 14033,4727 L 14133,4827 14233,4727 14133,4627 14033,4727 Z"/>
 <path fill="none" stroke="rgb(0,0,0)" stroke-linejoin="round" d="M 14033,4727 L 14133,4827 14233,4727 14133,4627 14033,4727 Z"/>
 <path fill="rgb(0,0,0)" stroke="none" d="M 14255,6856 L 14355,6956 14455,6856 14355,6756 14255,6856 Z"/>
 <path fill="none" stroke="rgb(0,0,0)" stroke-linejoin="round" d="M 14255,6856 L 14355,6956 14455,6856 14355,6756 14255,6856 Z"/>
 <path fill="rgb(0,0,0)" stroke="none" d="M 14478,6968 L 14578,7068 14678,6968 14578,6868 14478,6968 Z"/>
 <path fill="none" stroke="rgb(0,0,0)" stroke-linejoin="round" d="M 14478,6968 L 14578,7068 14678,6968 14578,6868 14478,6968 Z"/>
 <path fill="none" stroke="rgb(255,66,14)" stroke-width="50" stroke-linejoin="round" d="M 5000,9883 L 5222,9996 5445,9996 5668,9996 5891,9771 6113,9883 6336,9771 6559,9883 6782,9996 7005,9996 7227,9547 7450,9883 7672,9883 7895,9771 8118,9771 8340,9435 8563,9771 8786,9099 9009,9435 9231,9659 9454,9099 9677,8874 9900,9996 10123,6072 10345,8538 10568,6408 10791,6520 11014,6520 11236,7305 11459,6968 11682,7865 11905,8426 12128,6856 12350,5848 12573,5960 12796,7305 13019,8202 13241,7193 13464,8426 13687,6856 13910,7529 14133,6744 14355,7865 14578,5624"/>
 <path fill="rgb(255,66,14)" stroke="none" d="M 4900,9883 L 5000,9983 5100,9883 5000,9783 4900,9883 Z"/>
 <path fill="none" stroke="rgb(255,66,14)" stroke-linejoin="round" d="M 4900,9883 L 5000,9983 5100,9883 5000,9783 4900,9883 Z"/>
 <path fill="rgb(255,66,14)" stroke="none" d="M 5122,9996 L 5222,10096 5322,9996 5222,9896 5122,9996 Z"/>
 <path fill="none" stroke="rgb(255,66,14)" stroke-linejoin="round" d="M 5122,9996 L 5222,10096 5322,9996 5222,9896 5122,9996 Z"/>
 <path fill="rgb(255,66,14)" stroke="none" d="M 5345,9996 L 5445,10096 5545,9996 5445,9896 5345,9996 Z"/>
 <path fill="none" stroke="rgb(255,66,14)" stroke-linejoin="round" d="M 5345,9996 L 5445,10096 5545,9996 5445,9896 5345,9996 Z"/>
 <path fill="rgb(255,66,14)" stroke="none" d="M 5568,9996 L 5668,10096 5768,9996 5668,9896 5568,9996 Z"/>
 <path fill="none" stroke="rgb(255,66,14)" stroke-linejoin="round" d="M 5568,9996 L 5668,10096 5768,9996 5668,9896 5568,9996 Z"/>
 <path fill="rgb(255,66,14)" stroke="none" d="M 5791,9771 L 5891,9871 5991,9771 5891,9671 5791,9771 Z"/>
 <path fill="none" stroke="rgb(255,66,14)" stroke-linejoin="round" d="M 5791,9771 L 5891,9871 5991,9771 5891,9671 5791,9771 Z"/>
 <path fill="rgb(255,66,14)" stroke="none" d="M 6013,9883 L 6113,9983 6213,9883 6113,9783 6013,9883 Z"/>
 <path fill="none" stroke="rgb(255,66,14)" stroke-linejoin="round" d="M 6013,9883 L 6113,9983 6213,9883 6113,9783 6013,9883 Z"/>
 <path fill="rgb(255,66,14)" stroke="none" d="M 6236,9771 L 6336,9871 6436,9771 6336,9671 6236,9771 Z"/>
 <path fill="none" stroke="rgb(255,66,14)" stroke-linejoin="round" d="M 6236,9771 L 6336,9871 6436,9771 6336,9671 6236,9771 Z"/>
 <path fill="rgb(255,66,14)" stroke="none" d="M 6459,9883 L 6559,9983 6659,9883 6559,9783 6459,9883 Z"/>
 <path fill="none" stroke="rgb(255,66,14)" stroke-linejoin="round" d="M 6459,9883 L 6559,9983 6659,9883 6559,9783 6459,9883 Z"/>
 <path fill="rgb(255,66,14)" stroke="none" d="M 6682,9996 L 6782,10096 6882,9996 6782,9896 6682,9996 Z"/>
 <path fill="none" stroke="rgb(255,66,14)" stroke-linejoin="round" d="M 6682,9996 L 6782,10096 6882,9996 6782,9896 6682,9996 Z"/>
 <path fill="rgb(255,66,14)" stroke="none" d="M 6905,9996 L 7005,10096 7105,9996 7005,9896 6905,9996 Z"/>
 <path fill="none" stroke="rgb(255,66,14)" stroke-linejoin="round" d="M 6905,9996 L 7005,10096 7105,9996 7005,9896 6905,9996 Z"/>
 <path fill="rgb(255,66,14)" stroke="none" d="M 7127,9547 L 7227,9647 7327,9547 7227,9447 7127,9547 Z"/>
 <path fill="none" stroke="rgb(255,66,14)" stroke-linejoin="round" d="M 7127,9547 L 7227,9647 7327,9547 7227,9447 7127,9547 Z"/>
 <path fill="rgb(255,66,14)" stroke="none" d="M 7350,9883 L 7450,9983 7549,9883 7450,9783 7350,9883 Z"/>
 <path fill="none" stroke="rgb(255,66,14)" stroke-linejoin="round" d="M 7350,9883 L 7450,9983 7549,9883 7450,9783 7350,9883 Z"/>
 <path fill="rgb(255,66,14)" stroke="none" d="M 7572,9883 L 7672,9983 7772,9883 7672,9783 7572,9883 Z"/>
 <path fill="none" stroke="rgb(255,66,14)" stroke-linejoin="round" d="M 7572,9883 L 7672,9983 7772,9883 7672,9783 7572,9883 Z"/>
 <path fill="rgb(255,66,14)" stroke="none" d="M 7795,9771 L 7895,9871 7995,9771 7895,9671 7795,9771 Z"/>
 <path fill="none" stroke="rgb(255,66,14)" stroke-linejoin="round" d="M 7795,9771 L 7895,9871 7995,9771 7895,9671 7795,9771 Z"/>
 <path fill="rgb(255,66,14)" stroke="none" d="M 8018,9771 L 8118,9871 8218,9771 8118,9671 8018,9771 Z"/>
 <path fill="none" stroke="rgb(255,66,14)" stroke-linejoin="round" d="M 8018,9771 L 8118,9871 8218,9771 8118,9671 8018,9771 Z"/>
 <path fill="rgb(255,66,14)" stroke="none" d="M 8240,9435 L 8340,9535 8440,9435 8340,9335 8240,9435 Z"/>
 <path fill="none" stroke="rgb(255,66,14)" stroke-linejoin="round" d="M 8240,9435 L 8340,9535 8440,9435 8340,9335 8240,9435 Z"/>
 <path fill="rgb(255,66,14)" stroke="none" d="M 8463,9771 L 8563,9871 8663,9771 8563,9671 8463,9771 Z"/>
 <path fill="none" stroke="rgb(255,66,14)" stroke-linejoin="round" d="M 8463,9771 L 8563,9871 8663,9771 8563,9671 8463,9771 Z"/>
 <path fill="rgb(255,66,14)" stroke="none" d="M 8686,9099 L 8786,9199 8886,9099 8786,8999 8686,9099 Z"/>
 <path fill="none" stroke="rgb(255,66,14)" stroke-linejoin="round" d="M 8686,9099 L 8786,9199 8886,9099 8786,8999 8686,9099 Z"/>
 <path fill="rgb(255,66,14)" stroke="none" d="M 8909,9435 L 9009,9535 9109,9435 9009,9335 8909,9435 Z"/>
 <path fill="none" stroke="rgb(255,66,14)" stroke-linejoin="round" d="M 8909,9435 L 9009,9535 9109,9435 9009,9335 8909,9435 Z"/>
 <path fill="rgb(255,66,14)" stroke="none" d="M 9131,9659 L 9231,9759 9331,9659 9231,9559 9131,9659 Z"/>
 <path fill="none" stroke="rgb(255,66,14)" stroke-linejoin="round" d="M 9131,9659 L 9231,9759 9331,9659 9231,9559 9131,9659 Z"/>
 <path fill="rgb(255,66,14)" stroke="none" d="M 9354,9099 L 9454,9199 9554,9099 9454,8999 9354,9099 Z"/>
 <path fill="none" stroke="rgb(255,66,14)" stroke-linejoin="round" d="M 9354,9099 L 9454,9199 9554,9099 9454,8999 9354,9099 Z"/>
 <path fill="rgb(255,66,14)" stroke="none" d="M 9577,8874 L 9677,8974 9777,8874 9677,8774 9577,8874 Z"/>
 <path fill="none" stroke="rgb(255,66,14)" stroke-linejoin="round" d="M 9577,8874 L 9677,8974 9777,8874 9677,8774 9577,8874 Z"/>
 <path fill="rgb(255,66,14)" stroke="none" d="M 9800,9996 L 9900,10096 10000,9996 9900,9896 9800,9996 Z"/>
 <path fill="none" stroke="rgb(255,66,14)" stroke-linejoin="round" d="M 9800,9996 L 9900,10096 10000,9996 9900,9896 9800,9996 Z"/>
 <path fill="rgb(255,66,14)" stroke="none" d="M 10023,6072 L 10123,6172 10223,6072 10123,5973 10023,6072 Z"/>
 <path fill="none" stroke="rgb(255,66,14)" stroke-linejoin="round" d="M 10023,6072 L 10123,6172 10223,6072 10123,5973 10023,6072 Z"/>
 <path fill="rgb(255,66,14)" stroke="none" d="M 10245,8538 L 10345,8638 10445,8538 10345,8438 10245,8538 Z"/>
 <path fill="none" stroke="rgb(255,66,14)" stroke-linejoin="round" d="M 10245,8538 L 10345,8638 10445,8538 10345,8438 10245,8538 Z"/>
 <path fill="rgb(255,66,14)" stroke="none" d="M 10468,6408 L 10568,6508 10668,6408 10568,6308 10468,6408 Z"/>
 <path fill="none" stroke="rgb(255,66,14)" stroke-linejoin="round" d="M 10468,6408 L 10568,6508 10668,6408 10568,6308 10468,6408 Z"/>
 <path fill="rgb(255,66,14)" stroke="none" d="M 10691,6520 L 10791,6620 10891,6520 10791,6420 10691,6520 Z"/>
 <path fill="none" stroke="rgb(255,66,14)" stroke-linejoin="round" d="M 10691,6520 L 10791,6620 10891,6520 10791,6420 10691,6520 Z"/>
 <path fill="rgb(255,66,14)" stroke="none" d="M 10914,6520 L 11014,6620 11114,6520 11014,6420 10914,6520 Z"/>
 <path fill="none" stroke="rgb(255,66,14)" stroke-linejoin="round" d="M 10914,6520 L 11014,6620 11114,6520 11014,6420 10914,6520 Z"/>
 <path fill="rgb(255,66,14)" stroke="none" d="M 11136,7305 L 11236,7405 11336,7305 11236,7205 11136,7305 Z"/>
 <path fill="none" stroke="rgb(255,66,14)" stroke-linejoin="round" d="M 11136,7305 L 11236,7405 11336,7305 11236,7205 11136,7305 Z"/>
 <path fill="rgb(255,66,14)" stroke="none" d="M 11359,6968 L 11459,7068 11559,6968 11459,6868 11359,6968 Z"/>
 <path fill="none" stroke="rgb(255,66,14)" stroke-linejoin="round" d="M 11359,6968 L 11459,7068 11559,6968 11459,6868 11359,6968 Z"/>
 <path fill="rgb(255,66,14)" stroke="none" d="M 11582,7865 L 11682,7965 11782,7865 11682,7765 11582,7865 Z"/>
 <path fill="none" stroke="rgb(255,66,14)" stroke-linejoin="round" d="M 11582,7865 L 11682,7965 11782,7865 11682,7765 11582,7865 Z"/>
 <path fill="rgb(255,66,14)" stroke="none" d="M 11805,8426 L 11905,8526 12005,8426 11905,8326 11805,8426 Z"/>
 <path fill="none" stroke="rgb(255,66,14)" stroke-linejoin="round" d="M 11805,8426 L 11905,8526 12005,8426 11905,8326 11805,8426 Z"/>
 <path fill="rgb(255,66,14)" stroke="none" d="M 12028,6856 L 12128,6956 12228,6856 12128,6756 12028,6856 Z"/>
 <path fill="none" stroke="rgb(255,66,14)" stroke-linejoin="round" d="M 12028,6856 L 12128,6956 12228,6856 12128,6756 12028,6856 Z"/>
 <path fill="rgb(255,66,14)" stroke="none" d="M 12250,5848 L 12350,5948 12450,5848 12350,5748 12250,5848 Z"/>
 <path fill="none" stroke="rgb(255,66,14)" stroke-linejoin="round" d="M 12250,5848 L 12350,5948 12450,5848 12350,5748 12250,5848 Z"/>
 <path fill="rgb(255,66,14)" stroke="none" d="M 12473,5960 L 12573,6059 12673,5960 12573,5860 12473,5960 Z"/>
 <path fill="none" stroke="rgb(255,66,14)" stroke-linejoin="round" d="M 12473,5960 L 12573,6059 12673,5960 12573,5860 12473,5960 Z"/>
 <path fill="rgb(255,66,14)" stroke="none" d="M 12696,7305 L 12796,7405 12896,7305 12796,7205 12696,7305 Z"/>
 <path fill="none" stroke="rgb(255,66,14)" stroke-linejoin="round" d="M 12696,7305 L 12796,7405 12896,7305 12796,7205 12696,7305 Z"/>
 <path fill="rgb(255,66,14)" stroke="none" d="M 12919,8202 L 13019,8302 13119,8202 13019,8102 12919,8202 Z"/>
 <path fill="none" stroke="rgb(255,66,14)" stroke-linejoin="round" d="M 12919,8202 L 13019,8302 13119,8202 13019,8102 12919,8202 Z"/>
 <path fill="rgb(255,66,14)" stroke="none" d="M 13141,7193 L 13241,7293 13341,7193 13241,7093 13141,7193 Z"/>
 <path fill="none" stroke="rgb(255,66,14)" stroke-linejoin="round" d="M 13141,7193 L 13241,7293 13341,7193 13241,7093 13141,7193 Z"/>
 <path fill="rgb(255,66,14)" stroke="none" d="M 13364,8426 L 13464,8526 13564,8426 13464,8326 13364,8426 Z"/>
 <path fill="none" stroke="rgb(255,66,14)" stroke-linejoin="round" d="M 13364,8426 L 13464,8526 13564,8426 13464,8326 13364,8426 Z"/>
 <path fill="rgb(255,66,14)" stroke="none" d="M 13587,6856 L 13687,6956 13787,6856 13687,6756 13587,6856 Z"/>
 <path fill="none" stroke="rgb(255,66,14)" stroke-linejoin="round" d="M 13587,6856 L 13687,6956 13787,6856 13687,6756 13587,6856 Z"/>
 <path fill="rgb(255,66,14)" stroke="none" d="M 13810,7529 L 13910,7629 14010,7529 13910,7429 13810,7529 Z"/>
 <path fill="none" stroke="rgb(255,66,14)" stroke-linejoin="round" d="M 13810,7529 L 13910,7629 14010,7529 13910,7429 13810,7529 Z"/>
 <path fill="rgb(255,66,14)" stroke="none" d="M 14033,6744 L 14133,6844 14233,6744 14133,6644 14033,6744 Z"/>
 <path fill="none" stroke="rgb(255,66,14)" stroke-linejoin="round" d="M 14033,6744 L 14133,6844 14233,6744 14133,6644 14033,6744 Z"/>
 <path fill="rgb(255,66,14)" stroke="none" d="M 14255,7865 L 14355,7965 14455,7865 14355,7765 14255,7865 Z"/>
 <path fill="none" stroke="rgb(255,66,14)" stroke-linejoin="round" d="M 14255,7865 L 14355,7965 14455,7865 14355,7765 14255,7865 Z"/>
 <path fill="rgb(255,66,14)" stroke="none" d="M 14478,5624 L 14578,5724 14678,5624 14578,5524 14478,5624 Z"/>
 <path fill="none" stroke="rgb(255,66,14)" stroke-linejoin="round" d="M 14478,5624 L 14578,5724 14678,5624 14578,5524 14478,5624 Z"/>
 <path fill="none" stroke="rgb(255,211,32)" stroke-width="50" stroke-linejoin="round" d="M 4554,9883 L 4777,9996 5000,9996 5222,9996 5445,9996 5668,9996 5891,9996 6113,9996 6336,9996 6559,9996 6782,9659 7005,9883 7227,9996 7450,9099 7672,8986 7895,9771 8118,8986 8340,8090 8563,7865 8786,7193 9009,7641 9231,6856 9454,7305 9677,6520 9900,5960 10123,6296 10345,5176 10568,6744 10791,3718 11014,4615 11236,2373 11459,3270 11682,5288 11905,7305 12128,6072 12350,4167 12573,5176 12796,6744 13019,7529 13241,7753 13464,5736 13687,6520 13910,5736 14133,6968 14355,6968 14578,5176"/>
 <path fill="rgb(255,211,32)" stroke="none" d="M 4454,9783 L 4554,9983 4654,9783 4454,9783 Z"/>
 <path fill="none" stroke="rgb(255,211,32)" stroke-linejoin="round" d="M 4454,9783 L 4554,9983 4654,9783 4454,9783 Z"/>
 <path fill="rgb(255,211,32)" stroke="none" d="M 4677,9896 L 4777,10096 4877,9896 4677,9896 Z"/>
 <path fill="none" stroke="rgb(255,211,32)" stroke-linejoin="round" d="M 4677,9896 L 4777,10096 4877,9896 4677,9896 Z"/>
 <path fill="rgb(255,211,32)" stroke="none" d="M 4900,9896 L 5000,10096 5100,9896 4900,9896 Z"/>
 <path fill="none" stroke="rgb(255,211,32)" stroke-linejoin="round" d="M 4900,9896 L 5000,10096 5100,9896 4900,9896 Z"/>
 <path fill="rgb(255,211,32)" stroke="none" d="M 5122,9896 L 5222,10096 5322,9896 5122,9896 Z"/>
 <path fill="none" stroke="rgb(255,211,32)" stroke-linejoin="round" d="M 5122,9896 L 5222,10096 5322,9896 5122,9896 Z"/>
 <path fill="rgb(255,211,32)" stroke="none" d="M 5345,9896 L 5445,10096 5545,9896 5345,9896 Z"/>
 <path fill="none" stroke="rgb(255,211,32)" stroke-linejoin="round" d="M 5345,9896 L 5445,10096 5545,9896 5345,9896 Z"/>
 <path fill="rgb(255,211,32)" stroke="none" d="M 5568,9896 L 5668,10096 5768,9896 5568,9896 Z"/>
 <path fill="none" stroke="rgb(255,211,32)" stroke-linejoin="round" d="M 5568,9896 L 5668,10096 5768,9896 5568,9896 Z"/>
 <path fill="rgb(255,211,32)" stroke="none" d="M 5791,9896 L 5891,10096 5991,9896 5791,9896 Z"/>
 <path fill="none" stroke="rgb(255,211,32)" stroke-linejoin="round" d="M 5791,9896 L 5891,10096 5991,9896 5791,9896 Z"/>
 <path fill="rgb(255,211,32)" stroke="none" d="M 6013,9896 L 6113,10096 6213,9896 6013,9896 Z"/>
 <path fill="none" stroke="rgb(255,211,32)" stroke-linejoin="round" d="M 6013,9896 L 6113,10096 6213,9896 6013,9896 Z"/>
 <path fill="rgb(255,211,32)" stroke="none" d="M 6236,9896 L 6336,10096 6436,9896 6236,9896 Z"/>
 <path fill="none" stroke="rgb(255,211,32)" stroke-linejoin="round" d="M 6236,9896 L 6336,10096 6436,9896 6236,9896 Z"/>
 <path fill="rgb(255,211,32)" stroke="none" d="M 6459,9896 L 6559,10096 6659,9896 6459,9896 Z"/>
 <path fill="none" stroke="rgb(255,211,32)" stroke-linejoin="round" d="M 6459,9896 L 6559,10096 6659,9896 6459,9896 Z"/>
 <path fill="rgb(255,211,32)" stroke="none" d="M 6682,9559 L 6782,9759 6882,9559 6682,9559 Z"/>
 <path fill="none" stroke="rgb(255,211,32)" stroke-linejoin="round" d="M 6682,9559 L 6782,9759 6882,9559 6682,9559 Z"/>
 <path fill="rgb(255,211,32)" stroke="none" d="M 6905,9783 L 7005,9983 7105,9783 6905,9783 Z"/>
 <path fill="none" stroke="rgb(255,211,32)" stroke-linejoin="round" d="M 6905,9783 L 7005,9983 7105,9783 6905,9783 Z"/>
 <path fill="rgb(255,211,32)" stroke="none" d="M 7127,9896 L 7227,10096 7327,9896 7127,9896 Z"/>
 <path fill="none" stroke="rgb(255,211,32)" stroke-linejoin="round" d="M 7127,9896 L 7227,10096 7327,9896 7127,9896 Z"/>
 <path fill="rgb(255,211,32)" stroke="none" d="M 7350,8999 L 7450,9199 7549,8999 7350,8999 Z"/>
 <path fill="none" stroke="rgb(255,211,32)" stroke-linejoin="round" d="M 7350,8999 L 7450,9199 7549,8999 7350,8999 Z"/>
 <path fill="rgb(255,211,32)" stroke="none" d="M 7572,8886 L 7672,9086 7772,8886 7572,8886 Z"/>
 <path fill="none" stroke="rgb(255,211,32)" stroke-linejoin="round" d="M 7572,8886 L 7672,9086 7772,8886 7572,8886 Z"/>
 <path fill="rgb(255,211,32)" stroke="none" d="M 7795,9671 L 7895,9871 7995,9671 7795,9671 Z"/>
 <path fill="none" stroke="rgb(255,211,32)" stroke-linejoin="round" d="M 7795,9671 L 7895,9871 7995,9671 7795,9671 Z"/>
 <path fill="rgb(255,211,32)" stroke="none" d="M 8018,8886 L 8118,9086 8218,8886 8018,8886 Z"/>
 <path fill="none" stroke="rgb(255,211,32)" stroke-linejoin="round" d="M 8018,8886 L 8118,9086 8218,8886 8018,8886 Z"/>
 <path fill="rgb(255,211,32)" stroke="none" d="M 8240,7990 L 8340,8190 8440,7990 8240,7990 Z"/>
 <path fill="none" stroke="rgb(255,211,32)" stroke-linejoin="round" d="M 8240,7990 L 8340,8190 8440,7990 8240,7990 Z"/>
 <path fill="rgb(255,211,32)" stroke="none" d="M 8463,7765 L 8563,7965 8663,7765 8463,7765 Z"/>
 <path fill="none" stroke="rgb(255,211,32)" stroke-linejoin="round" d="M 8463,7765 L 8563,7965 8663,7765 8463,7765 Z"/>
 <path fill="rgb(255,211,32)" stroke="none" d="M 8686,7093 L 8786,7293 8886,7093 8686,7093 Z"/>
 <path fill="none" stroke="rgb(255,211,32)" stroke-linejoin="round" d="M 8686,7093 L 8786,7293 8886,7093 8686,7093 Z"/>
 <path fill="rgb(255,211,32)" stroke="none" d="M 8909,7541 L 9009,7741 9109,7541 8909,7541 Z"/>
 <path fill="none" stroke="rgb(255,211,32)" stroke-linejoin="round" d="M 8909,7541 L 9009,7741 9109,7541 8909,7541 Z"/>
 <path fill="rgb(255,211,32)" stroke="none" d="M 9131,6756 L 9231,6956 9331,6756 9131,6756 Z"/>
 <path fill="none" stroke="rgb(255,211,32)" stroke-linejoin="round" d="M 9131,6756 L 9231,6956 9331,6756 9131,6756 Z"/>
 <path fill="rgb(255,211,32)" stroke="none" d="M 9354,7205 L 9454,7405 9554,7205 9354,7205 Z"/>
 <path fill="none" stroke="rgb(255,211,32)" stroke-linejoin="round" d="M 9354,7205 L 9454,7405 9554,7205 9354,7205 Z"/>
 <path fill="rgb(255,211,32)" stroke="none" d="M 9577,6420 L 9677,6620 9777,6420 9577,6420 Z"/>
 <path fill="none" stroke="rgb(255,211,32)" stroke-linejoin="round" d="M 9577,6420 L 9677,6620 9777,6420 9577,6420 Z"/>
 <path fill="rgb(255,211,32)" stroke="none" d="M 9800,5860 L 9900,6059 10000,5860 9800,5860 Z"/>
 <path fill="none" stroke="rgb(255,211,32)" stroke-linejoin="round" d="M 9800,5860 L 9900,6059 10000,5860 9800,5860 Z"/>
 <path fill="rgb(255,211,32)" stroke="none" d="M 10023,6196 L 10123,6396 10223,6196 10023,6196 Z"/>
 <path fill="none" stroke="rgb(255,211,32)" stroke-linejoin="round" d="M 10023,6196 L 10123,6396 10223,6196 10023,6196 Z"/>
 <path fill="rgb(255,211,32)" stroke="none" d="M 10245,5076 L 10345,5276 10445,5076 10245,5076 Z"/>
 <path fill="none" stroke="rgb(255,211,32)" stroke-linejoin="round" d="M 10245,5076 L 10345,5276 10445,5076 10245,5076 Z"/>
 <path fill="rgb(255,211,32)" stroke="none" d="M 10468,6644 L 10568,6844 10668,6644 10468,6644 Z"/>
 <path fill="none" stroke="rgb(255,211,32)" stroke-linejoin="round" d="M 10468,6644 L 10568,6844 10668,6644 10468,6644 Z"/>
 <path fill="rgb(255,211,32)" stroke="none" d="M 10691,3618 L 10791,3818 10891,3618 10691,3618 Z"/>
 <path fill="none" stroke="rgb(255,211,32)" stroke-linejoin="round" d="M 10691,3618 L 10791,3818 10891,3618 10691,3618 Z"/>
 <path fill="rgb(255,211,32)" stroke="none" d="M 10914,4515 L 11014,4715 11114,4515 10914,4515 Z"/>
 <path fill="none" stroke="rgb(255,211,32)" stroke-linejoin="round" d="M 10914,4515 L 11014,4715 11114,4515 10914,4515 Z"/>
 <path fill="rgb(255,211,32)" stroke="none" d="M 11136,2273 L 11236,2473 11336,2273 11136,2273 Z"/>
 <path fill="none" stroke="rgb(255,211,32)" stroke-linejoin="round" d="M 11136,2273 L 11236,2473 11336,2273 11136,2273 Z"/>
 <path fill="rgb(255,211,32)" stroke="none" d="M 11359,3170 L 11459,3370 11559,3170 11359,3170 Z"/>
 <path fill="none" stroke="rgb(255,211,32)" stroke-linejoin="round" d="M 11359,3170 L 11459,3370 11559,3170 11359,3170 Z"/>
 <path fill="rgb(255,211,32)" stroke="none" d="M 11582,5188 L 11682,5388 11782,5188 11582,5188 Z"/>
 <path fill="none" stroke="rgb(255,211,32)" stroke-linejoin="round" d="M 11582,5188 L 11682,5388 11782,5188 11582,5188 Z"/>
 <path fill="rgb(255,211,32)" stroke="none" d="M 11805,7205 L 11905,7405 12005,7205 11805,7205 Z"/>
 <path fill="none" stroke="rgb(255,211,32)" stroke-linejoin="round" d="M 11805,7205 L 11905,7405 12005,7205 11805,7205 Z"/>
 <path fill="rgb(255,211,32)" stroke="none" d="M 12028,5973 L 12128,6172 12228,5973 12028,5973 Z"/>
 <path fill="none" stroke="rgb(255,211,32)" stroke-linejoin="round" d="M 12028,5973 L 12128,6172 12228,5973 12028,5973 Z"/>
 <path fill="rgb(255,211,32)" stroke="none" d="M 12250,4067 L 12350,4267 12450,4067 12250,4067 Z"/>
 <path fill="none" stroke="rgb(255,211,32)" stroke-linejoin="round" d="M 12250,4067 L 12350,4267 12450,4067 12250,4067 Z"/>
 <path fill="rgb(255,211,32)" stroke="none" d="M 12473,5076 L 12573,5276 12673,5076 12473,5076 Z"/>
 <path fill="none" stroke="rgb(255,211,32)" stroke-linejoin="round" d="M 12473,5076 L 12573,5276 12673,5076 12473,5076 Z"/>
 <path fill="rgb(255,211,32)" stroke="none" d="M 12696,6644 L 12796,6844 12896,6644 12696,6644 Z"/>
 <path fill="none" stroke="rgb(255,211,32)" stroke-linejoin="round" d="M 12696,6644 L 12796,6844 12896,6644 12696,6644 Z"/>
 <path fill="rgb(255,211,32)" stroke="none" d="M 12919,7429 L 13019,7629 13119,7429 12919,7429 Z"/>
 <path fill="none" stroke="rgb(255,211,32)" stroke-linejoin="round" d="M 12919,7429 L 13019,7629 13119,7429 12919,7429 Z"/>
 <path fill="rgb(255,211,32)" stroke="none" d="M 13141,7653 L 13241,7853 13341,7653 13141,7653 Z"/>
 <path fill="none" stroke="rgb(255,211,32)" stroke-linejoin="round" d="M 13141,7653 L 13241,7853 13341,7653 13141,7653 Z"/>
 <path fill="rgb(255,211,32)" stroke="none" d="M 13364,5636 L 13464,5836 13564,5636 13364,5636 Z"/>
 <path fill="none" stroke="rgb(255,211,32)" stroke-linejoin="round" d="M 13364,5636 L 13464,5836 13564,5636 13364,5636 Z"/>
 <path fill="rgb(255,211,32)" stroke="none" d="M 13587,6420 L 13687,6620 13787,6420 13587,6420 Z"/>
 <path fill="none" stroke="rgb(255,211,32)" stroke-linejoin="round" d="M 13587,6420 L 13687,6620 13787,6420 13587,6420 Z"/>
 <path fill="rgb(255,211,32)" stroke="none" d="M 13810,5636 L 13910,5836 14010,5636 13810,5636 Z"/>
 <path fill="none" stroke="rgb(255,211,32)" stroke-linejoin="round" d="M 13810,5636 L 13910,5836 14010,5636 13810,5636 Z"/>
 <path fill="rgb(255,211,32)" stroke="none" d="M 14033,6868 L 14133,7068 14233,6868 14033,6868 Z"/>
 <path fill="none" stroke="rgb(255,211,32)" stroke-linejoin="round" d="M 14033,6868 L 14133,7068 14233,6868 14033,6868 Z"/>
 <path fill="rgb(255,211,32)" stroke="none" d="M 14255,6868 L 14355,7068 14455,6868 14255,6868 Z"/>
 <path fill="none" stroke="rgb(255,211,32)" stroke-linejoin="round" d="M 14255,6868 L 14355,7068 14455,6868 14255,6868 Z"/>
 <path fill="rgb(255,211,32)" stroke="none" d="M 14478,5076 L 14578,5276 14678,5076 14478,5076 Z"/>
 <path fill="none" stroke="rgb(255,211,32)" stroke-linejoin="round" d="M 14478,5076 L 14578,5276 14678,5076 14478,5076 Z"/>
 <path fill="none" stroke="rgb(87,157,28)" stroke-width="50" stroke-linejoin="round" d="M 6336,9883 L 6559,9996 6782,9883 7005,9996 7227,9996 7450,9883 7672,9659 7895,9771 8118,9771 8340,9771 8563,9771 8786,9547 9009,9099 9231,8538 9454,7865 9677,8762 9900,7865 10123,8650 10345,9323 10568,6968 10791,7865 11014,6744 11236,7865 11459,9099 11682,8874 11905,8874 12128,6632 12350,8538 12573,8650 12796,9435 13019,8314 13241,8986 13464,8986 13687,8538 13910,9099 14133,8090 14355,8538 14578,9099"/>
 <path fill="rgb(87,157,28)" stroke="none" d="M 6236,9983 L 6436,9983 6336,9783 6236,9983 Z"/>
 <path fill="none" stroke="rgb(87,157,28)" stroke-linejoin="round" d="M 6236,9983 L 6436,9983 6336,9783 6236,9983 Z"/>
 <path fill="rgb(87,157,28)" stroke="none" d="M 6459,10096 L 6659,10096 6559,9896 6459,10096 Z"/>
 <path fill="none" stroke="rgb(87,157,28)" stroke-linejoin="round" d="M 6459,10096 L 6659,10096 6559,9896 6459,10096 Z"/>
 <path fill="rgb(87,157,28)" stroke="none" d="M 6682,9983 L 6882,9983 6782,9783 6682,9983 Z"/>
 <path fill="none" stroke="rgb(87,157,28)" stroke-linejoin="round" d="M 6682,9983 L 6882,9983 6782,9783 6682,9983 Z"/>
 <path fill="rgb(87,157,28)" stroke="none" d="M 6905,10096 L 7105,10096 7005,9896 6905,10096 Z"/>
 <path fill="none" stroke="rgb(87,157,28)" stroke-linejoin="round" d="M 6905,10096 L 7105,10096 7005,9896 6905,10096 Z"/>
 <path fill="rgb(87,157,28)" stroke="none" d="M 7127,10096 L 7327,10096 7227,9896 7127,10096 Z"/>
 <path fill="none" stroke="rgb(87,157,28)" stroke-linejoin="round" d="M 7127,10096 L 7327,10096 7227,9896 7127,10096 Z"/>
 <path fill="rgb(87,157,28)" stroke="none" d="M 7350,9983 L 7549,9983 7450,9783 7350,9983 Z"/>
 <path fill="none" stroke="rgb(87,157,28)" stroke-linejoin="round" d="M 7350,9983 L 7549,9983 7450,9783 7350,9983 Z"/>
 <path fill="rgb(87,157,28)" stroke="none" d="M 7572,9759 L 7772,9759 7672,9559 7572,9759 Z"/>
 <path fill="none" stroke="rgb(87,157,28)" stroke-linejoin="round" d="M 7572,9759 L 7772,9759 7672,9559 7572,9759 Z"/>
 <path fill="rgb(87,157,28)" stroke="none" d="M 7795,9871 L 7995,9871 7895,9671 7795,9871 Z"/>
 <path fill="none" stroke="rgb(87,157,28)" stroke-linejoin="round" d="M 7795,9871 L 7995,9871 7895,9671 7795,9871 Z"/>
 <path fill="rgb(87,157,28)" stroke="none" d="M 8018,9871 L 8218,9871 8118,9671 8018,9871 Z"/>
 <path fill="none" stroke="rgb(87,157,28)" stroke-linejoin="round" d="M 8018,9871 L 8218,9871 8118,9671 8018,9871 Z"/>
 <path fill="rgb(87,157,28)" stroke="none" d="M 8240,9871 L 8440,9871 8340,9671 8240,9871 Z"/>
 <path fill="none" stroke="rgb(87,157,28)" stroke-linejoin="round" d="M 8240,9871 L 8440,9871 8340,9671 8240,9871 Z"/>
 <path fill="rgb(87,157,28)" stroke="none" d="M 8463,9871 L 8663,9871 8563,9671 8463,9871 Z"/>
 <path fill="none" stroke="rgb(87,157,28)" stroke-linejoin="round" d="M 8463,9871 L 8663,9871 8563,9671 8463,9871 Z"/>
 <path fill="rgb(87,157,28)" stroke="none" d="M 8686,9647 L 8886,9647 8786,9447 8686,9647 Z"/>
 <path fill="none" stroke="rgb(87,157,28)" stroke-linejoin="round" d="M 8686,9647 L 8886,9647 8786,9447 8686,9647 Z"/>
 <path fill="rgb(87,157,28)" stroke="none" d="M 8909,9199 L 9109,9199 9009,8999 8909,9199 Z"/>
 <path fill="none" stroke="rgb(87,157,28)" stroke-linejoin="round" d="M 8909,9199 L 9109,9199 9009,8999 8909,9199 Z"/>
 <path fill="rgb(87,157,28)" stroke="none" d="M 9131,8638 L 9331,8638 9231,8438 9131,8638 Z"/>
 <path fill="none" stroke="rgb(87,157,28)" stroke-linejoin="round" d="M 9131,8638 L 9331,8638 9231,8438 9131,8638 Z"/>
 <path fill="rgb(87,157,28)" stroke="none" d="M 9354,7965 L 9554,7965 9454,7765 9354,7965 Z"/>
 <path fill="none" stroke="rgb(87,157,28)" stroke-linejoin="round" d="M 9354,7965 L 9554,7965 9454,7765 9354,7965 Z"/>
 <path fill="rgb(87,157,28)" stroke="none" d="M 9577,8862 L 9777,8862 9677,8662 9577,8862 Z"/>
 <path fill="none" stroke="rgb(87,157,28)" stroke-linejoin="round" d="M 9577,8862 L 9777,8862 9677,8662 9577,8862 Z"/>
 <path fill="rgb(87,157,28)" stroke="none" d="M 9800,7965 L 10000,7965 9900,7765 9800,7965 Z"/>
 <path fill="none" stroke="rgb(87,157,28)" stroke-linejoin="round" d="M 9800,7965 L 10000,7965 9900,7765 9800,7965 Z"/>
 <path fill="rgb(87,157,28)" stroke="none" d="M 10023,8750 L 10223,8750 10123,8550 10023,8750 Z"/>
 <path fill="none" stroke="rgb(87,157,28)" stroke-linejoin="round" d="M 10023,8750 L 10223,8750 10123,8550 10023,8750 Z"/>
 <path fill="rgb(87,157,28)" stroke="none" d="M 10245,9423 L 10445,9423 10345,9223 10245,9423 Z"/>
 <path fill="none" stroke="rgb(87,157,28)" stroke-linejoin="round" d="M 10245,9423 L 10445,9423 10345,9223 10245,9423 Z"/>
 <path fill="rgb(87,157,28)" stroke="none" d="M 10468,7068 L 10668,7068 10568,6868 10468,7068 Z"/>
 <path fill="none" stroke="rgb(87,157,28)" stroke-linejoin="round" d="M 10468,7068 L 10668,7068 10568,6868 10468,7068 Z"/>
 <path fill="rgb(87,157,28)" stroke="none" d="M 10691,7965 L 10891,7965 10791,7765 10691,7965 Z"/>
 <path fill="none" stroke="rgb(87,157,28)" stroke-linejoin="round" d="M 10691,7965 L 10891,7965 10791,7765 10691,7965 Z"/>
 <path fill="rgb(87,157,28)" stroke="none" d="M 10914,6844 L 11114,6844 11014,6644 10914,6844 Z"/>
 <path fill="none" stroke="rgb(87,157,28)" stroke-linejoin="round" d="M 10914,6844 L 11114,6844 11014,6644 10914,6844 Z"/>
 <path fill="rgb(87,157,28)" stroke="none" d="M 11136,7965 L 11336,7965 11236,7765 11136,7965 Z"/>
 <path fill="none" stroke="rgb(87,157,28)" stroke-linejoin="round" d="M 11136,7965 L 11336,7965 11236,7765 11136,7965 Z"/>
 <path fill="rgb(87,157,28)" stroke="none" d="M 11359,9199 L 11559,9199 11459,8999 11359,9199 Z"/>
 <path fill="none" stroke="rgb(87,157,28)" stroke-linejoin="round" d="M 11359,9199 L 11559,9199 11459,8999 11359,9199 Z"/>
 <path fill="rgb(87,157,28)" stroke="none" d="M 11582,8974 L 11782,8974 11682,8774 11582,8974 Z"/>
 <path fill="none" stroke="rgb(87,157,28)" stroke-linejoin="round" d="M 11582,8974 L 11782,8974 11682,8774 11582,8974 Z"/>
 <path fill="rgb(87,157,28)" stroke="none" d="M 11805,8974 L 12005,8974 11905,8774 11805,8974 Z"/>
 <path fill="none" stroke="rgb(87,157,28)" stroke-linejoin="round" d="M 11805,8974 L 12005,8974 11905,8774 11805,8974 Z"/>
 <path fill="rgb(87,157,28)" stroke="none" d="M 12028,6732 L 12228,6732 12128,6532 12028,6732 Z"/>
 <path fill="none" stroke="rgb(87,157,28)" stroke-linejoin="round" d="M 12028,6732 L 12228,6732 12128,6532 12028,6732 Z"/>
 <path fill="rgb(87,157,28)" stroke="none" d="M 12250,8638 L 12450,8638 12350,8438 12250,8638 Z"/>
 <path fill="none" stroke="rgb(87,157,28)" stroke-linejoin="round" d="M 12250,8638 L 12450,8638 12350,8438 12250,8638 Z"/>
 <path fill="rgb(87,157,28)" stroke="none" d="M 12473,8750 L 12673,8750 12573,8550 12473,8750 Z"/>
 <path fill="none" stroke="rgb(87,157,28)" stroke-linejoin="round" d="M 12473,8750 L 12673,8750 12573,8550 12473,8750 Z"/>
 <path fill="rgb(87,157,28)" stroke="none" d="M 12696,9535 L 12896,9535 12796,9335 12696,9535 Z"/>
 <path fill="none" stroke="rgb(87,157,28)" stroke-linejoin="round" d="M 12696,9535 L 12896,9535 12796,9335 12696,9535 Z"/>
 <path fill="rgb(87,157,28)" stroke="none" d="M 12919,8414 L 13119,8414 13019,8214 12919,8414 Z"/>
 <path fill="none" stroke="rgb(87,157,28)" stroke-linejoin="round" d="M 12919,8414 L 13119,8414 13019,8214 12919,8414 Z"/>
 <path fill="rgb(87,157,28)" stroke="none" d="M 13141,9086 L 13341,9086 13241,8886 13141,9086 Z"/>
 <path fill="none" stroke="rgb(87,157,28)" stroke-linejoin="round" d="M 13141,9086 L 13341,9086 13241,8886 13141,9086 Z"/>
 <path fill="rgb(87,157,28)" stroke="none" d="M 13364,9086 L 13564,9086 13464,8886 13364,9086 Z"/>
 <path fill="none" stroke="rgb(87,157,28)" stroke-linejoin="round" d="M 13364,9086 L 13564,9086 13464,8886 13364,9086 Z"/>
 <path fill="rgb(87,157,28)" stroke="none" d="M 13587,8638 L 13787,8638 13687,8438 13587,8638 Z"/>
 <path fill="none" stroke="rgb(87,157,28)" stroke-linejoin="round" d="M 13587,8638 L 13787,8638 13687,8438 13587,8638 Z"/>
 <path fill="rgb(87,157,28)" stroke="none" d="M 13810,9199 L 14010,9199 13910,8999 13810,9199 Z"/>
 <path fill="none" stroke="rgb(87,157,28)" stroke-linejoin="round" d="M 13810,9199 L 14010,9199 13910,8999 13810,9199 Z"/>
 <path fill="rgb(87,157,28)" stroke="none" d="M 14033,8190 L 14233,8190 14133,7990 14033,8190 Z"/>
 <path fill="none" stroke="rgb(87,157,28)" stroke-linejoin="round" d="M 14033,8190 L 14233,8190 14133,7990 14033,8190 Z"/>
 <path fill="rgb(87,157,28)" stroke="none" d="M 14255,8638 L 14455,8638 14355,8438 14255,8638 Z"/>
 <path fill="none" stroke="rgb(87,157,28)" stroke-linejoin="round" d="M 14255,8638 L 14455,8638 14355,8438 14255,8638 Z"/>
 <path fill="rgb(87,157,28)" stroke="none" d="M 14478,9199 L 14678,9199 14578,8999 14478,9199 Z"/>
 <path fill="none" stroke="rgb(87,157,28)" stroke-linejoin="round" d="M 14478,9199 L 14678,9199 14578,8999 14478,9199 Z"/>
 <path fill="none" stroke="rgb(126,0,33)" stroke-width="50" stroke-linejoin="round" d="M 7005,9771 L 7227,9996 7450,9883 7672,9996 7895,9883 8118,9883 8340,9547 8563,9659 8786,9323 9009,9771 9231,9211 9454,9435 9677,8762 9900,9547 10123,8538 10345,9323 10568,7977 10791,7865 11014,8090 11236,7977 11459,7641 11682,8314 11905,8202 12128,8426 12350,8986 12573,7977 12796,8650 13019,7977 13241,8538 13464,8874 13687,9323 13910,8986 14133,8762 14355,8874 14578,8426"/>
 <path fill="rgb(126,0,33)" stroke="none" d="M 6905,9671 L 6905,9871 7105,9771 6905,9671 Z"/>
 <path fill="none" stroke="rgb(126,0,33)" stroke-linejoin="round" d="M 6905,9671 L 6905,9871 7105,9771 6905,9671 Z"/>
 <path fill="rgb(126,0,33)" stroke="none" d="M 7127,9896 L 7127,10096 7327,9996 7127,9896 Z"/>
 <path fill="none" stroke="rgb(126,0,33)" stroke-linejoin="round" d="M 7127,9896 L 7127,10096 7327,9996 7127,9896 Z"/>
 <path fill="rgb(126,0,33)" stroke="none" d="M 7350,9783 L 7350,9983 7549,9883 7350,9783 Z"/>
 <path fill="none" stroke="rgb(126,0,33)" stroke-linejoin="round" d="M 7350,9783 L 7350,9983 7549,9883 7350,9783 Z"/>
 <path fill="rgb(126,0,33)" stroke="none" d="M 7572,9896 L 7572,10096 7772,9996 7572,9896 Z"/>
 <path fill="none" stroke="rgb(126,0,33)" stroke-linejoin="round" d="M 7572,9896 L 7572,10096 7772,9996 7572,9896 Z"/>
 <path fill="rgb(126,0,33)" stroke="none" d="M 7795,9783 L 7795,9983 7995,9883 7795,9783 Z"/>
 <path fill="none" stroke="rgb(126,0,33)" stroke-linejoin="round" d="M 7795,9783 L 7795,9983 7995,9883 7795,9783 Z"/>
 <path fill="rgb(126,0,33)" stroke="none" d="M 8018,9783 L 8018,9983 8218,9883 8018,9783 Z"/>
 <path fill="none" stroke="rgb(126,0,33)" stroke-linejoin="round" d="M 8018,9783 L 8018,9983 8218,9883 8018,9783 Z"/>
 <path fill="rgb(126,0,33)" stroke="none" d="M 8240,9447 L 8240,9647 8440,9547 8240,9447 Z"/>
 <path fill="none" stroke="rgb(126,0,33)" stroke-linejoin="round" d="M 8240,9447 L 8240,9647 8440,9547 8240,9447 Z"/>
 <path fill="rgb(126,0,33)" stroke="none" d="M 8463,9559 L 8463,9759 8663,9659 8463,9559 Z"/>
 <path fill="none" stroke="rgb(126,0,33)" stroke-linejoin="round" d="M 8463,9559 L 8463,9759 8663,9659 8463,9559 Z"/>
 <path fill="rgb(126,0,33)" stroke="none" d="M 8686,9223 L 8686,9423 8886,9323 8686,9223 Z"/>
 <path fill="none" stroke="rgb(126,0,33)" stroke-linejoin="round" d="M 8686,9223 L 8686,9423 8886,9323 8686,9223 Z"/>
 <path fill="rgb(126,0,33)" stroke="none" d="M 8909,9671 L 8909,9871 9109,9771 8909,9671 Z"/>
 <path fill="none" stroke="rgb(126,0,33)" stroke-linejoin="round" d="M 8909,9671 L 8909,9871 9109,9771 8909,9671 Z"/>
 <path fill="rgb(126,0,33)" stroke="none" d="M 9131,9111 L 9131,9311 9331,9211 9131,9111 Z"/>
 <path fill="none" stroke="rgb(126,0,33)" stroke-linejoin="round" d="M 9131,9111 L 9131,9311 9331,9211 9131,9111 Z"/>
 <path fill="rgb(126,0,33)" stroke="none" d="M 9354,9335 L 9354,9535 9554,9435 9354,9335 Z"/>
 <path fill="none" stroke="rgb(126,0,33)" stroke-linejoin="round" d="M 9354,9335 L 9354,9535 9554,9435 9354,9335 Z"/>
 <path fill="rgb(126,0,33)" stroke="none" d="M 9577,8662 L 9577,8862 9777,8762 9577,8662 Z"/>
 <path fill="none" stroke="rgb(126,0,33)" stroke-linejoin="round" d="M 9577,8662 L 9577,8862 9777,8762 9577,8662 Z"/>
 <path fill="rgb(126,0,33)" stroke="none" d="M 9800,9447 L 9800,9647 10000,9547 9800,9447 Z"/>
 <path fill="none" stroke="rgb(126,0,33)" stroke-linejoin="round" d="M 9800,9447 L 9800,9647 10000,9547 9800,9447 Z"/>
 <path fill="rgb(126,0,33)" stroke="none" d="M 10023,8438 L 10023,8638 10223,8538 10023,8438 Z"/>
 <path fill="none" stroke="rgb(126,0,33)" stroke-linejoin="round" d="M 10023,8438 L 10023,8638 10223,8538 10023,8438 Z"/>
 <path fill="rgb(126,0,33)" stroke="none" d="M 10245,9223 L 10245,9423 10445,9323 10245,9223 Z"/>
 <path fill="none" stroke="rgb(126,0,33)" stroke-linejoin="round" d="M 10245,9223 L 10245,9423 10445,9323 10245,9223 Z"/>
 <path fill="rgb(126,0,33)" stroke="none" d="M 10468,7877 L 10468,8077 10668,7977 10468,7877 Z"/>
 <path fill="none" stroke="rgb(126,0,33)" stroke-linejoin="round" d="M 10468,7877 L 10468,8077 10668,7977 10468,7877 Z"/>
 <path fill="rgb(126,0,33)" stroke="none" d="M 10691,7765 L 10691,7965 10891,7865 10691,7765 Z"/>
 <path fill="none" stroke="rgb(126,0,33)" stroke-linejoin="round" d="M 10691,7765 L 10691,7965 10891,7865 10691,7765 Z"/>
 <path fill="rgb(126,0,33)" stroke="none" d="M 10914,7990 L 10914,8190 11114,8090 10914,7990 Z"/>
 <path fill="none" stroke="rgb(126,0,33)" stroke-linejoin="round" d="M 10914,7990 L 10914,8190 11114,8090 10914,7990 Z"/>
 <path fill="rgb(126,0,33)" stroke="none" d="M 11136,7877 L 11136,8077 11336,7977 11136,7877 Z"/>
 <path fill="none" stroke="rgb(126,0,33)" stroke-linejoin="round" d="M 11136,7877 L 11136,8077 11336,7977 11136,7877 Z"/>
 <path fill="rgb(126,0,33)" stroke="none" d="M 11359,7541 L 11359,7741 11559,7641 11359,7541 Z"/>
 <path fill="none" stroke="rgb(126,0,33)" stroke-linejoin="round" d="M 11359,7541 L 11359,7741 11559,7641 11359,7541 Z"/>
 <path fill="rgb(126,0,33)" stroke="none" d="M 11582,8214 L 11582,8414 11782,8314 11582,8214 Z"/>
 <path fill="none" stroke="rgb(126,0,33)" stroke-linejoin="round" d="M 11582,8214 L 11582,8414 11782,8314 11582,8214 Z"/>
 <path fill="rgb(126,0,33)" stroke="none" d="M 11805,8102 L 11805,8302 12005,8202 11805,8102 Z"/>
 <path fill="none" stroke="rgb(126,0,33)" stroke-linejoin="round" d="M 11805,8102 L 11805,8302 12005,8202 11805,8102 Z"/>
 <path fill="rgb(126,0,33)" stroke="none" d="M 12028,8326 L 12028,8526 12228,8426 12028,8326 Z"/>
 <path fill="none" stroke="rgb(126,0,33)" stroke-linejoin="round" d="M 12028,8326 L 12028,8526 12228,8426 12028,8326 Z"/>
 <path fill="rgb(126,0,33)" stroke="none" d="M 12250,8886 L 12250,9086 12450,8986 12250,8886 Z"/>
 <path fill="none" stroke="rgb(126,0,33)" stroke-linejoin="round" d="M 12250,8886 L 12250,9086 12450,8986 12250,8886 Z"/>
 <path fill="rgb(126,0,33)" stroke="none" d="M 12473,7877 L 12473,8077 12673,7977 12473,7877 Z"/>
 <path fill="none" stroke="rgb(126,0,33)" stroke-linejoin="round" d="M 12473,7877 L 12473,8077 12673,7977 12473,7877 Z"/>
 <path fill="rgb(126,0,33)" stroke="none" d="M 12696,8550 L 12696,8750 12896,8650 12696,8550 Z"/>
 <path fill="none" stroke="rgb(126,0,33)" stroke-linejoin="round" d="M 12696,8550 L 12696,8750 12896,8650 12696,8550 Z"/>
 <path fill="rgb(126,0,33)" stroke="none" d="M 12919,7877 L 12919,8077 13119,7977 12919,7877 Z"/>
 <path fill="none" stroke="rgb(126,0,33)" stroke-linejoin="round" d="M 12919,7877 L 12919,8077 13119,7977 12919,7877 Z"/>
 <path fill="rgb(126,0,33)" stroke="none" d="M 13141,8438 L 13141,8638 13341,8538 13141,8438 Z"/>
 <path fill="none" stroke="rgb(126,0,33)" stroke-linejoin="round" d="M 13141,8438 L 13141,8638 13341,8538 13141,8438 Z"/>
 <path fill="rgb(126,0,33)" stroke="none" d="M 13364,8774 L 13364,8974 13564,8874 13364,8774 Z"/>
 <path fill="none" stroke="rgb(126,0,33)" stroke-linejoin="round" d="M 13364,8774 L 13364,8974 13564,8874 13364,8774 Z"/>
 <path fill="rgb(126,0,33)" stroke="none" d="M 13587,9223 L 13587,9423 13787,9323 13587,9223 Z"/>
 <path fill="none" stroke="rgb(126,0,33)" stroke-linejoin="round" d="M 13587,9223 L 13587,9423 13787,9323 13587,9223 Z"/>
 <path fill="rgb(126,0,33)" stroke="none" d="M 13810,8886 L 13810,9086 14010,8986 13810,8886 Z"/>
 <path fill="none" stroke="rgb(126,0,33)" stroke-linejoin="round" d="M 13810,8886 L 13810,9086 14010,8986 13810,8886 Z"/>
 <path fill="rgb(126,0,33)" stroke="none" d="M 14033,8662 L 14033,8862 14233,8762 14033,8662 Z"/>
 <path fill="none" stroke="rgb(126,0,33)" stroke-linejoin="round" d="M 14033,8662 L 14033,8862 14233,8762 14033,8662 Z"/>
 <path fill="rgb(126,0,33)" stroke="none" d="M 14255,8774 L 14255,8974 14455,8874 14255,8774 Z"/>
 <path fill="none" stroke="rgb(126,0,33)" stroke-linejoin="round" d="M 14255,8774 L 14255,8974 14455,8874 14255,8774 Z"/>
 <path fill="rgb(126,0,33)" stroke="none" d="M 14478,8326 L 14478,8526 14678,8426 14478,8326 Z"/>
 <path fill="none" stroke="rgb(126,0,33)" stroke-linejoin="round" d="M 14478,8326 L 14478,8526 14678,8426 14478,8326 Z"/>
 <path fill="none" stroke="rgb(131,202,255)" stroke-width="50" stroke-linejoin="round" d="M 4777,9883 L 5000,9996 5222,9883 5445,9659 5668,9996 5891,9883 6113,9996 6336,9435 6559,9659 6782,9996 7005,8986 7227,9996 7450,8538 7672,9547 7895,8538 8118,7977 8340,8426 8563,8650 8786,7417 9009,8538 9231,7529 9454,7193 9677,6968 9900,8426 10123,5064 10345,6408 10568,6856 10791,5064 11014,5176 11236,6408 11459,6296 11682,5736 11905,6296 12128,5736 12350,4503 12573,3942 12796,5512 13019,5960 13241,5624 13464,6968 13687,6856 13910,5176 14133,3942 14355,5960 14578,6856"/>
 <path fill="rgb(131,202,255)" stroke="none" d="M 4677,9883 L 4877,9983 4877,9783 4677,9883 Z"/>
 <path fill="none" stroke="rgb(131,202,255)" stroke-linejoin="round" d="M 4677,9883 L 4877,9983 4877,9783 4677,9883 Z"/>
 <path fill="rgb(131,202,255)" stroke="none" d="M 4900,9996 L 5100,10096 5100,9896 4900,9996 Z"/>
 <path fill="none" stroke="rgb(131,202,255)" stroke-linejoin="round" d="M 4900,9996 L 5100,10096 5100,9896 4900,9996 Z"/>
 <path fill="rgb(131,202,255)" stroke="none" d="M 5122,9883 L 5322,9983 5322,9783 5122,9883 Z"/>
 <path fill="none" stroke="rgb(131,202,255)" stroke-linejoin="round" d="M 5122,9883 L 5322,9983 5322,9783 5122,9883 Z"/>
 <path fill="rgb(131,202,255)" stroke="none" d="M 5345,9659 L 5545,9759 5545,9559 5345,9659 Z"/>
 <path fill="none" stroke="rgb(131,202,255)" stroke-linejoin="round" d="M 5345,9659 L 5545,9759 5545,9559 5345,9659 Z"/>
 <path fill="rgb(131,202,255)" stroke="none" d="M 5568,9996 L 5768,10096 5768,9896 5568,9996 Z"/>
 <path fill="none" stroke="rgb(131,202,255)" stroke-linejoin="round" d="M 5568,9996 L 5768,10096 5768,9896 5568,9996 Z"/>
 <path fill="rgb(131,202,255)" stroke="none" d="M 5791,9883 L 5991,9983 5991,9783 5791,9883 Z"/>
 <path fill="none" stroke="rgb(131,202,255)" stroke-linejoin="round" d="M 5791,9883 L 5991,9983 5991,9783 5791,9883 Z"/>
 <path fill="rgb(131,202,255)" stroke="none" d="M 6013,9996 L 6213,10096 6213,9896 6013,9996 Z"/>
 <path fill="none" stroke="rgb(131,202,255)" stroke-linejoin="round" d="M 6013,9996 L 6213,10096 6213,9896 6013,9996 Z"/>
 <path fill="rgb(131,202,255)" stroke="none" d="M 6236,9435 L 6436,9535 6436,9335 6236,9435 Z"/>
 <path fill="none" stroke="rgb(131,202,255)" stroke-linejoin="round" d="M 6236,9435 L 6436,9535 6436,9335 6236,9435 Z"/>
 <path fill="rgb(131,202,255)" stroke="none" d="M 6459,9659 L 6659,9759 6659,9559 6459,9659 Z"/>
 <path fill="none" stroke="rgb(131,202,255)" stroke-linejoin="round" d="M 6459,9659 L 6659,9759 6659,9559 6459,9659 Z"/>
 <path fill="rgb(131,202,255)" stroke="none" d="M 6682,9996 L 6882,10096 6882,9896 6682,9996 Z"/>
 <path fill="none" stroke="rgb(131,202,255)" stroke-linejoin="round" d="M 6682,9996 L 6882,10096 6882,9896 6682,9996 Z"/>
 <path fill="rgb(131,202,255)" stroke="none" d="M 6905,8986 L 7105,9086 7105,8886 6905,8986 Z"/>
 <path fill="none" stroke="rgb(131,202,255)" stroke-linejoin="round" d="M 6905,8986 L 7105,9086 7105,8886 6905,8986 Z"/>
 <path fill="rgb(131,202,255)" stroke="none" d="M 7127,9996 L 7327,10096 7327,9896 7127,9996 Z"/>
 <path fill="none" stroke="rgb(131,202,255)" stroke-linejoin="round" d="M 7127,9996 L 7327,10096 7327,9896 7127,9996 Z"/>
 <path fill="rgb(131,202,255)" stroke="none" d="M 7350,8538 L 7549,8638 7549,8438 7350,8538 Z"/>
 <path fill="none" stroke="rgb(131,202,255)" stroke-linejoin="round" d="M 7350,8538 L 7549,8638 7549,8438 7350,8538 Z"/>
 <path fill="rgb(131,202,255)" stroke="none" d="M 7572,9547 L 7772,9647 7772,9447 7572,9547 Z"/>
 <path fill="none" stroke="rgb(131,202,255)" stroke-linejoin="round" d="M 7572,9547 L 7772,9647 7772,9447 7572,9547 Z"/>
 <path fill="rgb(131,202,255)" stroke="none" d="M 7795,8538 L 7995,8638 7995,8438 7795,8538 Z"/>
 <path fill="none" stroke="rgb(131,202,255)" stroke-linejoin="round" d="M 7795,8538 L 7995,8638 7995,8438 7795,8538 Z"/>
 <path fill="rgb(131,202,255)" stroke="none" d="M 8018,7977 L 8218,8077 8218,7877 8018,7977 Z"/>
 <path fill="none" stroke="rgb(131,202,255)" stroke-linejoin="round" d="M 8018,7977 L 8218,8077 8218,7877 8018,7977 Z"/>
 <path fill="rgb(131,202,255)" stroke="none" d="M 8240,8426 L 8440,8526 8440,8326 8240,8426 Z"/>
 <path fill="none" stroke="rgb(131,202,255)" stroke-linejoin="round" d="M 8240,8426 L 8440,8526 8440,8326 8240,8426 Z"/>
 <path fill="rgb(131,202,255)" stroke="none" d="M 8463,8650 L 8663,8750 8663,8550 8463,8650 Z"/>
 <path fill="none" stroke="rgb(131,202,255)" stroke-linejoin="round" d="M 8463,8650 L 8663,8750 8663,8550 8463,8650 Z"/>
 <path fill="rgb(131,202,255)" stroke="none" d="M 8686,7417 L 8886,7517 8886,7317 8686,7417 Z"/>
 <path fill="none" stroke="rgb(131,202,255)" stroke-linejoin="round" d="M 8686,7417 L 8886,7517 8886,7317 8686,7417 Z"/>
 <path fill="rgb(131,202,255)" stroke="none" d="M 8909,8538 L 9109,8638 9109,8438 8909,8538 Z"/>
 <path fill="none" stroke="rgb(131,202,255)" stroke-linejoin="round" d="M 8909,8538 L 9109,8638 9109,8438 8909,8538 Z"/>
 <path fill="rgb(131,202,255)" stroke="none" d="M 9131,7529 L 9331,7629 9331,7429 9131,7529 Z"/>
 <path fill="none" stroke="rgb(131,202,255)" stroke-linejoin="round" d="M 9131,7529 L 9331,7629 9331,7429 9131,7529 Z"/>
 <path fill="rgb(131,202,255)" stroke="none" d="M 9354,7193 L 9554,7293 9554,7093 9354,7193 Z"/>
 <path fill="none" stroke="rgb(131,202,255)" stroke-linejoin="round" d="M 9354,7193 L 9554,7293 9554,7093 9354,7193 Z"/>
 <path fill="rgb(131,202,255)" stroke="none" d="M 9577,6968 L 9777,7068 9777,6868 9577,6968 Z"/>
 <path fill="none" stroke="rgb(131,202,255)" stroke-linejoin="round" d="M 9577,6968 L 9777,7068 9777,6868 9577,6968 Z"/>
 <path fill="rgb(131,202,255)" stroke="none" d="M 9800,8426 L 10000,8526 10000,8326 9800,8426 Z"/>
 <path fill="none" stroke="rgb(131,202,255)" stroke-linejoin="round" d="M 9800,8426 L 10000,8526 10000,8326 9800,8426 Z"/>
 <path fill="rgb(131,202,255)" stroke="none" d="M 10023,5064 L 10223,5164 10223,4964 10023,5064 Z"/>
 <path fill="none" stroke="rgb(131,202,255)" stroke-linejoin="round" d="M 10023,5064 L 10223,5164 10223,4964 10023,5064 Z"/>
 <path fill="rgb(131,202,255)" stroke="none" d="M 10245,6408 L 10445,6508 10445,6308 10245,6408 Z"/>
 <path fill="none" stroke="rgb(131,202,255)" stroke-linejoin="round" d="M 10245,6408 L 10445,6508 10445,6308 10245,6408 Z"/>
 <path fill="rgb(131,202,255)" stroke="none" d="M 10468,6856 L 10668,6956 10668,6756 10468,6856 Z"/>
 <path fill="none" stroke="rgb(131,202,255)" stroke-linejoin="round" d="M 10468,6856 L 10668,6956 10668,6756 10468,6856 Z"/>
 <path fill="rgb(131,202,255)" stroke="none" d="M 10691,5064 L 10891,5164 10891,4964 10691,5064 Z"/>
 <path fill="none" stroke="rgb(131,202,255)" stroke-linejoin="round" d="M 10691,5064 L 10891,5164 10891,4964 10691,5064 Z"/>
 <path fill="rgb(131,202,255)" stroke="none" d="M 10914,5176 L 11114,5276 11114,5076 10914,5176 Z"/>
 <path fill="none" stroke="rgb(131,202,255)" stroke-linejoin="round" d="M 10914,5176 L 11114,5276 11114,5076 10914,5176 Z"/>
 <path fill="rgb(131,202,255)" stroke="none" d="M 11136,6408 L 11336,6508 11336,6308 11136,6408 Z"/>
 <path fill="none" stroke="rgb(131,202,255)" stroke-linejoin="round" d="M 11136,6408 L 11336,6508 11336,6308 11136,6408 Z"/>
 <path fill="rgb(131,202,255)" stroke="none" d="M 11359,6296 L 11559,6396 11559,6196 11359,6296 Z"/>
 <path fill="none" stroke="rgb(131,202,255)" stroke-linejoin="round" d="M 11359,6296 L 11559,6396 11559,6196 11359,6296 Z"/>
 <path fill="rgb(131,202,255)" stroke="none" d="M 11582,5736 L 11782,5836 11782,5636 11582,5736 Z"/>
 <path fill="none" stroke="rgb(131,202,255)" stroke-linejoin="round" d="M 11582,5736 L 11782,5836 11782,5636 11582,5736 Z"/>
 <path fill="rgb(131,202,255)" stroke="none" d="M 11805,6296 L 12005,6396 12005,6196 11805,6296 Z"/>
 <path fill="none" stroke="rgb(131,202,255)" stroke-linejoin="round" d="M 11805,6296 L 12005,6396 12005,6196 11805,6296 Z"/>
 <path fill="rgb(131,202,255)" stroke="none" d="M 12028,5736 L 12228,5836 12228,5636 12028,5736 Z"/>
 <path fill="none" stroke="rgb(131,202,255)" stroke-linejoin="round" d="M 12028,5736 L 12228,5836 12228,5636 12028,5736 Z"/>
 <path fill="rgb(131,202,255)" stroke="none" d="M 12250,4503 L 12450,4603 12450,4403 12250,4503 Z"/>
 <path fill="none" stroke="rgb(131,202,255)" stroke-linejoin="round" d="M 12250,4503 L 12450,4603 12450,4403 12250,4503 Z"/>
 <path fill="rgb(131,202,255)" stroke="none" d="M 12473,3942 L 12673,4042 12673,3842 12473,3942 Z"/>
 <path fill="none" stroke="rgb(131,202,255)" stroke-linejoin="round" d="M 12473,3942 L 12673,4042 12673,3842 12473,3942 Z"/>
 <path fill="rgb(131,202,255)" stroke="none" d="M 12696,5512 L 12896,5612 12896,5412 12696,5512 Z"/>
 <path fill="none" stroke="rgb(131,202,255)" stroke-linejoin="round" d="M 12696,5512 L 12896,5612 12896,5412 12696,5512 Z"/>
 <path fill="rgb(131,202,255)" stroke="none" d="M 12919,5960 L 13119,6059 13119,5860 12919,5960 Z"/>
 <path fill="none" stroke="rgb(131,202,255)" stroke-linejoin="round" d="M 12919,5960 L 13119,6059 13119,5860 12919,5960 Z"/>
 <path fill="rgb(131,202,255)" stroke="none" d="M 13141,5624 L 13341,5724 13341,5524 13141,5624 Z"/>
 <path fill="none" stroke="rgb(131,202,255)" stroke-linejoin="round" d="M 13141,5624 L 13341,5724 13341,5524 13141,5624 Z"/>
 <path fill="rgb(131,202,255)" stroke="none" d="M 13364,6968 L 13564,7068 13564,6868 13364,6968 Z"/>
 <path fill="none" stroke="rgb(131,202,255)" stroke-linejoin="round" d="M 13364,6968 L 13564,7068 13564,6868 13364,6968 Z"/>
 <path fill="rgb(131,202,255)" stroke="none" d="M 13587,6856 L 13787,6956 13787,6756 13587,6856 Z"/>
 <path fill="none" stroke="rgb(131,202,255)" stroke-linejoin="round" d="M 13587,6856 L 13787,6956 13787,6756 13587,6856 Z"/>
 <path fill="rgb(131,202,255)" stroke="none" d="M 13810,5176 L 14010,5276 14010,5076 13810,5176 Z"/>
 <path fill="none" stroke="rgb(131,202,255)" stroke-linejoin="round" d="M 13810,5176 L 14010,5276 14010,5076 13810,5176 Z"/>
 <path fill="rgb(131,202,255)" stroke="none" d="M 14033,3942 L 14233,4042 14233,3842 14033,3942 Z"/>
 <path fill="none" stroke="rgb(131,202,255)" stroke-linejoin="round" d="M 14033,3942 L 14233,4042 14233,3842 14033,3942 Z"/>
 <path fill="rgb(131,202,255)" stroke="none" d="M 14255,5960 L 14455,6059 14455,5860 14255,5960 Z"/>
 <path fill="none" stroke="rgb(131,202,255)" stroke-linejoin="round" d="M 14255,5960 L 14455,6059 14455,5860 14255,5960 Z"/>
 <path fill="rgb(131,202,255)" stroke="none" d="M 14478,6856 L 14678,6956 14678,6756 14478,6856 Z"/>
 <path fill="none" stroke="rgb(131,202,255)" stroke-linejoin="round" d="M 14478,6856 L 14678,6956 14678,6756 14478,6856 Z"/>
 <text class="TextShape"><tspan class="TextParagraph" font-family="Liberation Sans, sans-serif" font-size="353px" font-weight="400"><tspan class="TextPosition" x="1234" y="10564"><tspan fill="rgb(0,0,0)" stroke="none">20/02</tspan></tspan></tspan></text>
 <text class="TextShape"><tspan class="TextParagraph" font-family="Liberation Sans, sans-serif" font-size="353px" font-weight="400"><tspan class="TextPosition" x="2793" y="10564"><tspan fill="rgb(0,0,0)" stroke="none">27/02</tspan></tspan></tspan></text>
 <text class="TextShape"><tspan class="TextParagraph" font-family="Liberation Sans, sans-serif" font-size="353px" font-weight="400"><tspan class="TextPosition" x="4353" y="10564"><tspan fill="rgb(0,0,0)" stroke="none">05/03</tspan></tspan></tspan></text>
 <text class="TextShape"><tspan class="TextParagraph" font-family="Liberation Sans, sans-serif" font-size="353px" font-weight="400"><tspan class="TextPosition" x="5912" y="10564"><tspan fill="rgb(0,0,0)" stroke="none">12/03</tspan></tspan></tspan></text>
 <text class="TextShape"><tspan class="TextParagraph" font-family="Liberation Sans, sans-serif" font-size="353px" font-weight="400"><tspan class="TextPosition" x="7472" y="10564"><tspan fill="rgb(0,0,0)" stroke="none">19/03</tspan></tspan></tspan></text>
 <text class="TextShape"><tspan class="TextParagraph" font-family="Liberation Sans, sans-serif" font-size="353px" font-weight="400"><tspan class="TextPosition" x="9031" y="10564"><tspan fill="rgb(0,0,0)" stroke="none">26/03</tspan></tspan></tspan></text>
 <text class="TextShape"><tspan class="TextParagraph" font-family="Liberation Sans, sans-serif" font-size="353px" font-weight="400"><tspan class="TextPosition" x="10591" y="10564"><tspan fill="rgb(0,0,0)" stroke="none">02/04</tspan></tspan></tspan></text>
 <text class="TextShape"><tspan class="TextParagraph" font-family="Liberation Sans, sans-serif" font-size="353px" font-weight="400"><tspan class="TextPosition" x="12150" y="10564"><tspan fill="rgb(0,0,0)" stroke="none">09/04</tspan></tspan></tspan></text>
 <text class="TextShape"><tspan class="TextParagraph" font-family="Liberation Sans, sans-serif" font-size="353px" font-weight="400"><tspan class="TextPosition" x="13710" y="10564"><tspan fill="rgb(0,0,0)" stroke="none">16/04</tspan></tspan></tspan></text>
 <text class="TextShape"><tspan class="TextParagraph" font-family="Liberation Sans, sans-serif" font-size="353px" font-weight="400"><tspan class="TextPosition" x="1112" y="10117"><tspan fill="rgb(0,0,0)" stroke="none">0</tspan></tspan></tspan></text>
 <text class="TextShape"><tspan class="TextParagraph" font-family="Liberation Sans, sans-serif" font-size="353px" font-weight="400"><tspan class="TextPosition" x="927" y="8995"><tspan fill="rgb(0,0,0)" stroke="none">10</tspan></tspan></tspan></text>
 <text class="TextShape"><tspan class="TextParagraph" font-family="Liberation Sans, sans-serif" font-size="353px" font-weight="400"><tspan class="TextPosition" x="927" y="7874"><tspan fill="rgb(0,0,0)" stroke="none">20</tspan></tspan></tspan></text>
 <text class="TextShape"><tspan class="TextParagraph" font-family="Liberation Sans, sans-serif" font-size="353px" font-weight="400"><tspan class="TextPosition" x="927" y="6753"><tspan fill="rgb(0,0,0)" stroke="none">30</tspan></tspan></tspan></text>
 <text class="TextShape"><tspan class="TextParagraph" font-family="Liberation Sans, sans-serif" font-size="353px" font-weight="400"><tspan class="TextPosition" x="927" y="5632"><tspan fill="rgb(0,0,0)" stroke="none">40</tspan></tspan></tspan></text>
 <text class="TextShape"><tspan class="TextParagraph" font-family="Liberation Sans, sans-serif" font-size="353px" font-weight="400"><tspan class="TextPosition" x="927" y="4511"><tspan fill="rgb(0,0,0)" stroke="none">50</tspan></tspan></tspan></text>
 <text class="TextShape"><tspan class="TextParagraph" font-family="Liberation Sans, sans-serif" font-size="353px" font-weight="400"><tspan class="TextPosition" x="927" y="3390"><tspan fill="rgb(0,0,0)" stroke="none">60</tspan></tspan></tspan></text>
 <text class="TextShape"><tspan class="TextParagraph" font-family="Liberation Sans, sans-serif" font-size="353px" font-weight="400"><tspan class="TextPosition" x="927" y="2269"><tspan fill="rgb(0,0,0)" stroke="none">70</tspan></tspan></tspan></text>
 <text class="TextShape"><tspan class="TextParagraph" font-family="Liberation Sans, sans-serif" font-size="353px" font-weight="400"><tspan class="TextPosition" x="927" y="1148"><tspan fill="rgb(0,0,0)" stroke="none">80</tspan></tspan></tspan></text>
 <text class="TextShape"><tspan class="TextParagraph" font-family="Liberation Sans, sans-serif" font-size="459px" font-weight="400"><tspan class="TextPosition" x="4879" y="631"><tspan fill="rgb(0,0,0)" stroke="none">Covid-19. Muertes diarias CCAA (2)</tspan></tspan></tspan></text>
 <path fill="none" stroke="rgb(0,0,0)" stroke-width="50" stroke-linejoin="round" d="M 681,11176 L 1481,11176"/>
 <path fill="rgb(0,0,0)" stroke="none" d="M 975,11176 L 1081,11282 1186,11176 1081,11071 975,11176 Z"/>
 <path fill="none" stroke="rgb(0,0,0)" stroke-linejoin="round" d="M 975,11176 L 1081,11282 1186,11176 1081,11071 975,11176 Z"/>
 <path fill="none" stroke="rgb(255,66,14)" stroke-width="50" stroke-linejoin="round" d="M 3420,11176 L 4220,11176"/>
 <path fill="rgb(255,66,14)" stroke="none" d="M 3714,11176 L 3820,11282 3925,11176 3820,11071 3714,11176 Z"/>
 <path fill="none" stroke="rgb(255,66,14)" stroke-linejoin="round" d="M 3714,11176 L 3820,11282 3925,11176 3820,11071 3714,11176 Z"/>
 <path fill="none" stroke="rgb(255,211,32)" stroke-width="50" stroke-linejoin="round" d="M 5445,11176 L 6245,11176"/>
 <path fill="rgb(255,211,32)" stroke="none" d="M 5739,11071 L 5845,11282 5950,11071 5739,11071 Z"/>
 <path fill="none" stroke="rgb(255,211,32)" stroke-linejoin="round" d="M 5739,11071 L 5845,11282 5950,11071 5739,11071 Z"/>
 <path fill="none" stroke="rgb(87,157,28)" stroke-width="50" stroke-linejoin="round" d="M 9903,11176 L 10703,11176"/>
 <path fill="rgb(87,157,28)" stroke="none" d="M 10197,11282 L 10408,11282 10303,11071 10197,11282 Z"/>
 <path fill="none" stroke="rgb(87,157,28)" stroke-linejoin="round" d="M 10197,11282 L 10408,11282 10303,11071 10197,11282 Z"/>
 <path fill="none" stroke="rgb(126,0,33)" stroke-width="50" stroke-linejoin="round" d="M 12801,11176 L 13601,11176"/>
 <path fill="rgb(126,0,33)" stroke="none" d="M 13095,11071 L 13095,11282 13306,11176 13095,11071 Z"/>
 <path fill="none" stroke="rgb(126,0,33)" stroke-linejoin="round" d="M 13095,11071 L 13095,11282 13306,11176 13095,11071 Z"/>
 <path fill="none" stroke="rgb(131,202,255)" stroke-width="50" stroke-linejoin="round" d="M 681,11674 L 1481,11674"/>
 <path fill="rgb(131,202,255)" stroke="none" d="M 975,11674 L 1186,11780 1186,11569 975,11674 Z"/>
 <path fill="none" stroke="rgb(131,202,255)" stroke-linejoin="round" d="M 975,11674 L 1186,11780 1186,11569 975,11674 Z"/>
 <text class="TextShape"><tspan class="TextParagraph" font-family="Liberation Sans, sans-serif" font-size="353px" font-weight="400"><tspan class="TextPosition" x="1581" y="11296"><tspan fill="rgb(0,0,0)" stroke="none">Andaluca</tspan></tspan></tspan></text>
 <text class="TextShape"><tspan class="TextParagraph" font-family="Liberation Sans, sans-serif" font-size="353px" font-weight="400"><tspan class="TextPosition" x="4320" y="11296"><tspan fill="rgb(0,0,0)" stroke="none">Aragn</tspan></tspan></tspan></text>
 <text class="TextShape"><tspan class="TextParagraph" font-family="Liberation Sans, sans-serif" font-size="353px" font-weight="400"><tspan class="TextPosition" x="6345" y="11296"><tspan fill="rgb(0,0,0)" stroke="none">Comunidad Valenciana</tspan></tspan></tspan></text>
 <text class="TextShape"><tspan class="TextParagraph" font-family="Liberation Sans, sans-serif" font-size="353px" font-weight="400"><tspan class="TextPosition" x="10803" y="11296"><tspan fill="rgb(0,0,0)" stroke="none">Extremadura</tspan></tspan></tspan></text>
 <text class="TextShape"><tspan class="TextParagraph" font-family="Liberation Sans, sans-serif" font-size="353px" font-weight="400"><tspan class="TextPosition" x="13701" y="11296"><tspan fill="rgb(0,0,0)" stroke="none">Galicia</tspan></tspan></tspan></text>
 <text class="TextShape"><tspan class="TextParagraph" font-family="Liberation Sans, sans-serif" font-size="353px" font-weight="400"><tspan class="TextPosition" x="1581" y="11794"><tspan fill="rgb(0,0,0)" stroke="none">Pas Vasco</tspan></tspan></tspan></text>
</svg>