<?xml version="1.0" encoding="UTF-8"?>
<!DOCTYPE svg PUBLIC "-//W3C//DTD SVG 1.1//EN" "http://www.w3.org/Graphics/SVG/1.1/DTD/svg11.dtd">
<svg width="150mm" height="120mm" viewBox="0 0 15000 12000" version="1.1" xmlns="http://www.w3.org/2000/svg" xmlns:xlink="http://www.w3.org/1999/xlink" stroke-width="28.222" stroke-linejoin="round" xml:space="preserve">
 <path fill="rgb(255,255,255)" stroke="none" d="M 7500,12000 L 0,12000 0,0 15000,0 15000,12000 7500,12000 Z"/>
 <path fill="none" stroke="rgb(0,0,0)" stroke-linejoin="round" d="M 7983,11164 L 1266,11164 1266,1241 14701,1241 14701,11164 7983,11164 Z"/>
 <path fill="none" stroke="rgb(0,0,0)" stroke-linejoin="round" d="M 14701,11163 L 1266,11163"/>
 <path fill="none" stroke="rgb(0,0,0)" stroke-linejoin="round" d="M 14701,10060 L 1266,10060"/>
 <path fill="none" stroke="rgb(0,0,0)" stroke-linejoin="round" d="M 14701,8957 L 1266,8957"/>
 <path fill="none" stroke="rgb(0,0,0)" stroke-linejoin="round" d="M 14701,7855 L 1266,7855"/>
 <path fill="none" stroke="rgb(0,0,0)" stroke-linejoin="round" d="M 14701,6752 L 1266,6752"/>
 <path fill="none" stroke="rgb(0,0,0)" stroke-linejoin="round" d="M 14701,5650 L 1266,5650"/>
 <path fill="none" stroke="rgb(0,0,0)" stroke-linejoin="round" d="M 14701,4548 L 1266,4548"/>
 <path fill="none" stroke="rgb(0,0,0)" stroke-linejoin="round" d="M 14701,3445 L 1266,3445"/>
 <path fill="none" stroke="rgb(0,0,0)" stroke-linejoin="round" d="M 14701,2342 L 1266,2342"/>
 <path fill="none" stroke="rgb(0,0,0)" stroke-linejoin="round" d="M 14701,1240 L 1266,1240"/>
 <path fill="none" stroke="rgb(0,0,0)" stroke-linejoin="round" d="M 1266,11313 L 1266,11163"/>
 <path fill="none" stroke="rgb(0,0,0)" stroke-linejoin="round" d="M 1266,11313 L 1266,11163"/>
 <path fill="none" stroke="rgb(0,0,0)" stroke-linejoin="round" d="M 3918,11313 L 3918,11163"/>
 <path fill="none" stroke="rgb(0,0,0)" stroke-linejoin="round" d="M 3918,11313 L 3918,11163"/>
 <path fill="none" stroke="rgb(0,0,0)" stroke-linejoin="round" d="M 6571,11313 L 6571,11163"/>
 <path fill="none" stroke="rgb(0,0,0)" stroke-linejoin="round" d="M 6571,11313 L 6571,11163"/>
 <path fill="none" stroke="rgb(0,0,0)" stroke-linejoin="round" d="M 9138,11313 L 9138,11163"/>
 <path fill="none" stroke="rgb(0,0,0)" stroke-linejoin="round" d="M 9138,11313 L 9138,11163"/>
 <path fill="none" stroke="rgb(0,0,0)" stroke-linejoin="round" d="M 11791,11313 L 11791,11163"/>
 <path fill="none" stroke="rgb(0,0,0)" stroke-linejoin="round" d="M 11791,11313 L 11791,11163"/>
 <path fill="none" stroke="rgb(0,0,0)" stroke-linejoin="round" d="M 14358,11313 L 14358,11163"/>
 <path fill="none" stroke="rgb(0,0,0)" stroke-linejoin="round" d="M 14358,11313 L 14358,11163"/>
 <path fill="none" stroke="rgb(0,0,0)" stroke-linejoin="round" d="M 1266,11163 L 14701,11163"/>
 <path fill="none" stroke="rgb(0,0,0)" stroke-linejoin="round" d="M 1116,11163 L 1266,11163"/>
 <path fill="none" stroke="rgb(0,0,0)" stroke-linejoin="round" d="M 1116,11163 L 1266,11163"/>
 <path fill="none" stroke="rgb(0,0,0)" stroke-linejoin="round" d="M 1116,10060 L 1266,10060"/>
 <path fill="none" stroke="rgb(0,0,0)" stroke-linejoin="round" d="M 1116,10060 L 1266,10060"/>
 <path fill="none" stroke="rgb(0,0,0)" stroke-linejoin="round" d="M 1116,8957 L 1266,8957"/>
 <path fill="none" stroke="rgb(0,0,0)" stroke-linejoin="round" d="M 1116,8957 L 1266,8957"/>
 <path fill="none" stroke="rgb(0,0,0)" stroke-linejoin="round" d="M 1116,7855 L 1266,7855"/>
 <path fill="none" stroke="rgb(0,0,0)" stroke-linejoin="round" d="M 1116,7855 L 1266,7855"/>
 <path fill="none" stroke="rgb(0,0,0)" stroke-linejoin="round" d="M 1116,6752 L 1266,6752"/>
 <path fill="none" stroke="rgb(0,0,0)" stroke-linejoin="round" d="M 1116,6752 L 1266,6752"/>
 <path fill="none" stroke="rgb(0,0,0)" stroke-linejoin="round" d="M 1116,5650 L 1266,5650"/>
 <path fill="none" stroke="rgb(0,0,0)" stroke-linejoin="round" d="M 1116,5650 L 1266,5650"/>
 <path fill="none" stroke="rgb(0,0,0)" stroke-linejoin="round" d="M 1116,4547 L 1266,4547"/>
 <path fill="none" stroke="rgb(0,0,0)" stroke-linejoin="round" d="M 1116,4547 L 1266,4547"/>
 <path fill="none" stroke="rgb(0,0,0)" stroke-linejoin="round" d="M 1116,3445 L 1266,3445"/>
 <path fill="none" stroke="rgb(0,0,0)" stroke-linejoin="round" d="M 1116,3445 L 1266,3445"/>
 <path fill="none" stroke="rgb(0,0,0)" stroke-linejoin="round" d="M 1116,2342 L 1266,2342"/>
 <path fill="none" stroke="rgb(0,0,0)" stroke-linejoin="round" d="M 1116,2342 L 1266,2342"/>
 <path fill="none" stroke="rgb(0,0,0)" stroke-linejoin="round" d="M 1116,1240 L 1266,1240"/>
 <path fill="none" stroke="rgb(0,0,0)" stroke-linejoin="round" d="M 1116,1240 L 1266,1240"/>
 <path fill="none" stroke="rgb(0,0,0)" stroke-linejoin="round" d="M 1266,11163 L 1266,1240"/>
 <path fill="none" stroke="rgb(0,69,134)" stroke-width="100" stroke-linejoin="round" d="M 1266,11163 L 1351,11161 1437,11150 1522,11147 1608,11143 1693,11142 1779,11138 1865,11138 1950,11133 2036,11131 2121,11124 2207,11122 2292,11117 2378,11113 2464,11111 2549,11104 2635,11098 2720,11082 2806,11066 2892,11058 2977,11047 3063,11043 3148,11038 3234,11022 3319,11012 3405,11005 3491,10996 3576,10993 3662,10989 3747,10985 3833,11105 3918,11104 4004,11099 4090,11097 4175,11091 4261,11088 4346,11087 4432,11085 4518,11084 4603,11083 4689,11081 4774,11076 4860,11075 4945,11073 5031,11070 5117,11065 5202,11065 5288,11063 5373,11059 5459,11057 5544,11055 5630,11052 5716,11047 5801,11046 5887,11045 5972,11038 6058,11034 6144,11032 6229,11027 6315,11022 6400,11016 6486,11012 6571,11007 6657,11001 6743,10994 6828,10980 6914,10965 6999,10957 7085,10943 7170,10936 7256,10916 7342,10902 7427,10887 7512,10871 7597,10853 7683,10828 7769,10803 7854,10787 7940,10767 8025,10733 8111,10699 8196,10649 8282,10616 8368,10583 8453,10562 8539,10531 8624,10485 8710,10434 8796,10384 8881,10313 8967,10233 9052,10159 9138,10068 9223,9927 9309,9793 9395,9653 9480,9507 9566,9332 9651,9218 9737,9095 9822,8823 9908,8635 9994,8423 10079,8233 10165,8031 10250,7880 10336,7717 10422,7367 10507,7167 10593,7032 10678,6814 10764,6614 10849,6494 10935,6296 11021,6070 11106,5882 11192,5708 11277,5550 11363,5378 11448,5280 11534,5141 11620,4955 11705,4814 11791,4670 11876,4548 11962,4425 12048,4337 12133,4238 12219,4095 12304,3968 12390,3844 12475,3734 12561,3620 12647,3553 12732,3486 12818,3363 12903,3266 12989,3175 13074,3074 13160,2962 13246,2912 13331,2808 13417,2673 13502,2581 13588,2486 13674,2401 13759,2310 13845,2227 13930,2155 14016,2030 14101,1910 14187,1809 14273,1758 14358,1688 14444,1645 14529,1610 14615,1482 14701,1400"/>
 <path fill="none" stroke="rgb(255,66,14)" stroke-width="100" stroke-linejoin="round" d="M 1266,11163 L 1351,11140 1437,11117 1522,11117 1608,11117 1693,11071 1779,11048 1865,11025 1950,11025 2036,11025 2121,11003 2207,10980 2292,10957 2378,10934 2464,10911 2549,10911 2635,10911 2720,10911 2806,10888 2892,10888 2977,10888 3063,10888 3148,10888 3234,10888 3319,10888 3405,10888 3491,10888 3576,10888 3662,10888 3747,10888 3833,10888 3918,10888 4004,10888 4090,10888 4175,10888 4261,10888 4346,10888 4432,10888 4518,10888 4603,10888 4689,10888 4774,10888 4860,10888 4945,10888 5031,10888 5117,10888 5202,10888 5288,10888 5373,10888 5459,10888 5544,10888 5630,10888 5716,10888 5801,10888 5887,10888 5972,10888 6058,10888 6144,10888 6229,10888 6315,10888 6400,10888 6486,10888 6571,10888 6657,10888 6743,10888 6828,10866 6914,10866 6999,10866 7085,10866 7170,10820 7256,10797 7342,10797 7427,10774 7512,10751 7597,10751 7683,10751 7769,10683 7854,10683 7940,10683 8025,10683 8111,10683 8196,10683 8282,10683 8368,10637 8453,10614 8539,10569 8624,10523 8710,10500 8796,10500 8881,10500 8967,10363 9052,10363 9138,10363 9223,10295 9309,10249 9395,10249 9480,10249 9566,10066 9651,9907 9737,9815 9822,9678 9908,9587 9994,9450 10079,9313 10165,9610 10250,9153 10336,9016 10422,8902 10507,8719 10593,8719 10678,8719 10764,8331 10849,8240 10935,8057 11021,7920 11106,7783 11192,7783 11277,7783 11363,7646 11448,7486 11534,7258 11620,7144 11705,7007 11791,6870 11876,6733 11962,6596 12048,6390 12133,6185 12219,6093 12304,5980 12390,5843 12475,5729 12561,5661 12647,5501 12732,5295 12818,5158 12903,4953 12989,4770 13074,4679 13160,4542 13246,4359 13331,4176 13417,4108 13502,3948 13588,3811 13674,3674 13759,3583 13845,3446 13930,3377 14016,3263 14101,3195 14187,3103 14273,2989 14358,2806 14444,2601 14529,2555 14615,2418 14701,2350"/>
 <path fill="none" stroke="rgb(255,211,32)" stroke-width="100" stroke-linejoin="round" d="M 1351,11159 L 1437,11159 1522,11157 1608,11156 1693,11153 1779,11153 1865,11153 1950,11154 2036,11154 2121,11150 2207,11146 2292,11146 2378,11146 2464,11146 2549,11144 2635,11143 2720,11141 2806,11140 2892,11141 2977,11140 3063,11140 3148,11138 3234,11135 3319,11135 3405,11135 3491,11134 3576,11134 3662,11133 3747,11130 3833,11130 3918,11128 4004,11127 4090,11127 4175,11127 4261,11127 4346,11127 4432,11127 4518,11127 4603,11127 4689,11127 4774,11127 4860,11127 4945,11127 5031,11112 5117,11112 5202,11112 5288,11112 5373,11112 5459,11112 5544,11112 5630,11083 5716,11083 5801,11083 5887,11083 5972,11083 6058,11083 6144,11083 6229,11057 6315,11057 6400,11057 6486,11057 6571,11057 6657,11057 6743,11057 6828,11057 6914,11057 6999,11041 7085,11041 7170,11041 7256,11041 7342,11041 7427,11041 7512,11041 7597,11027 7683,11027 7769,11027 7854,11027 7940,11027 8025,11027 8111,11027 8196,10985 8282,10985 8368,10985 8453,10964 8539,10953 8624,10937 8710,10921 8796,10906 8881,10906 8967,10906 9052,10853 9138,10830 9223,10486 9309,10438 9395,10392 9480,10392 9566,10392 9651,10540 9737,10437 9822,10329 9908,10239 9994,10138 10079,10138 10165,10138 10250,9893 10336,9738 10422,9613 10507,9477 10593,9336 10678,9336 10764,9336 10849,9049 10935,8843 11021,8720 11106,8605 11192,8444 11277,8444 11363,8444 11448,8135 11534,7929 11620,7784 11705,7670 11791,7465 11876,7465 11962,7465 12048,7183 12133,7028 12219,6861 12304,6745 12390,6598 12475,6598 12561,6598 12647,6343 12732,6210 12818,6084 12903,5958 12989,5805 13074,5805 13160,5805 13246,5525 13331,5376 13417,5247 13502,5099 13588,4925 13674,4925 13759,4925 13845,4633 13930,4633 14016,4633 14101,4155 14187,4155 14273,4155 14358,4155 14444,3801 14529,3801 14615,3472"/>
 <path fill="none" stroke="rgb(87,157,28)" stroke-width="100" stroke-linejoin="round" d="M 1266,11161 L 1351,11161 1437,11157 1522,11155 1608,11155 1693,11155 1779,11155 1865,11155 1950,11153 2036,11153 2121,11153 2207,11152 2292,11151 2378,11151 2464,11148 2549,11148 2635,11147 2720,11146 2806,11146 2892,11142 2977,11142 3063,11141 3148,11141 3234,11141 3319,11141 3405,11139 3491,11137 3576,11137 3662,11135 3747,11135 3833,11135 3918,11135 4004,11135 4090,11135 4175,11135 4261,11135 4346,11134 4432,11134 4518,11133 4603,11133 4689,11133 4774,11132 4860,11119 4945,11117 5031,11117 5117,11116 5202,11113 5288,11108 5373,11106 5459,11104 5544,11104 5630,11103 5716,11103 5801,11097 5887,11094 5972,11093 6058,11092 6144,11086 6229,11079 6315,11071 6400,11067 6486,11066 6571,11066 6657,11062 6743,11054 6828,11050 6914,11046 6999,11045 7085,11037 7170,11032 7256,11026 7342,11021 7427,11010 7512,11000 7597,10995 7683,10982 7769,10983 7854,10978 7940,10970 8025,10956 8111,10950 8196,10943 8282,10934 8368,10929 8453,10915 8539,10902 8624,10888 8710,10867 8796,10850 8881,10836 8967,10818 9052,10801 9138,10785 9223,10756 9309,10719 9395,10685 9480,10650 9566,10623 9651,10586 9737,10543 9822,10498 9908,10445 9994,10352 10079,10305 10165,10261 10250,10205 10336,10147 10422,10063 10507,10007 10593,9938 10678,9829 10764,9721 10849,9647 10935,9572 11021,9431 11106,9351 11192,9212 11277,9078 11363,9000 11448,8909 11534,8756 11620,8640 11705,8504 11791,8358 11876,8188 11962,8075 12048,7973 12133,7791 12219,7635 12304,7517 12390,7371 12475,7234 12561,7127 12647,7054 12732,6918 12818,6848 12903,6710 12989,6548 13074,6385 13160,6310 13246,6237 13331,6085 13417,5936 13502,5655 13588,5468 13674,5362 13759,5179 13845,5070 13930,4935 14016,4788 14101,4670 14187,4621 14273,4544 14358,4495 14444,4430 14529,4265 14615,4149 14701,4055"/>
 <path fill="none" stroke="rgb(126,0,33)" stroke-width="80" stroke-linejoin="round" d="M 1266,11162 L 1351,11160 1437,11159 1522,11158 1608,11157 1693,11156 1779,11155 1865,11153 1950,11152 2036,11150 2121,11149 2207,11149 2292,11147 2378,11146 2464,11146 2549,11145 2635,11143 2720,11142 2806,11142 2892,11116 2977,11115 3063,11115 3148,11114 3234,11113 3319,11112 3405,11110 3491,11110 3576,11109 3662,11108 3747,11107 3833,11105 3918,11104 4004,11103 4090,11103 4175,11102 4261,11101 4346,11100 4432,11099 4518,11097 4603,11095 4689,11093 4774,11092 4860,11090 4945,11088 5031,11086 5117,11084 5202,11082 5288,11081 5373,11080 5459,11078 5544,11077 5630,11075 5716,11072 5801,11071 5887,11067 5972,11064 6058,11062 6144,11059 6229,11056 6315,11052 6400,11049 6486,11046 6571,11044 6657,11041 6743,11037 6828,11034 6914,11030 6999,11026 7085,11022 7170,11019 7256,11016 7342,11012 7427,11007 7512,11003 7597,10999 7683,10994 7769,10990 7854,10983 7940,10976 8025,10969 8111,10956 8196,10947 8282,10939 8368,10928 8453,10916 8539,10901 8624,10881 8710,10859 8796,10844 8881,10819 8967,10798 9052,10775 9138,10739 9223,10705 9309,10670 9395,10638 9480,10589 9566,10555 9651,10517 9737,10459 9822,10402 9908,10332 9994,10259 10079,10190 10165,10136 10250,10077 10336,9983 10422,9881 10507,9777 10593,9687 10678,9598 10764,9509 10849,9427 10935,9307 11021,9184 11106,9078 11192,8964 11277,8851 11363,8759 11448,8656 11534,8517 11620,8399 11705,8264 11791,8129 11876,8017 11962,7929 12048,7819 12133,7691 12219,7579 12304,7417 12390,7284 12475,7176 12561,7084 12647,6997 12732,6894 12818,6812 12903,6667 12989,6543 13074,6437 13160,6358 13246,6278 13331,6140 13417,6029 13502,5918 13588,5808 13674,5718 13759,5660 13845,5592 13930,5490 14016,5399 14101,5317 14187,5242 14273,5199 14358,5150 14444,5077 14529,4969 14615,4875 14701,4785"/>
 <text class="TextShape"><tspan class="TextParagraph" font-family="Liberation Sans, sans-serif" font-size="353px" font-weight="400"><tspan class="TextPosition" x="842" y="11731"><tspan fill="rgb(0,0,0)" stroke="none">27/07</tspan></tspan></tspan></text>
 <text class="TextShape"><tspan class="TextParagraph" font-family="Liberation Sans, sans-serif" font-size="353px" font-weight="400"><tspan class="TextPosition" x="3494" y="11731"><tspan fill="rgb(0,0,0)" stroke="none">27/08</tspan></tspan></tspan></text>
 <text class="TextShape"><tspan class="TextParagraph" font-family="Liberation Sans, sans-serif" font-size="353px" font-weight="400"><tspan class="TextPosition" x="6147" y="11731"><tspan fill="rgb(0,0,0)" stroke="none">27/09</tspan></tspan></tspan></text>
 <text class="TextShape"><tspan class="TextParagraph" font-family="Liberation Sans, sans-serif" font-size="353px" font-weight="400"><tspan class="TextPosition" x="8715" y="11731"><tspan fill="rgb(0,0,0)" stroke="none">27/10</tspan></tspan></tspan></text>
 <text class="TextShape"><tspan class="TextParagraph" font-family="Liberation Sans, sans-serif" font-size="353px" font-weight="400"><tspan class="TextPosition" x="11368" y="11731"><tspan fill="rgb(0,0,0)" stroke="none">27/11</tspan></tspan></tspan></text>
 <text class="TextShape"><tspan class="TextParagraph" font-family="Liberation Sans, sans-serif" font-size="353px" font-weight="400"><tspan class="TextPosition" x="13935" y="11731"><tspan fill="rgb(0,0,0)" stroke="none">27/12</tspan></tspan></tspan></text>
 <text class="TextShape"><tspan class="TextParagraph" font-family="Liberation Sans, sans-serif" font-size="353px" font-weight="400"><tspan class="TextPosition" x="460" y="10181"><tspan fill="rgb(0,0,0)" stroke="none">500</tspan></tspan></tspan></text>
 <text class="TextShape"><tspan class="TextParagraph" font-family="Liberation Sans, sans-serif" font-size="353px" font-weight="400"><tspan class="TextPosition" x="169" y="9078"><tspan fill="rgb(0,0,0)" stroke="none">1.000</tspan></tspan></tspan></text>
 <text class="TextShape"><tspan class="TextParagraph" font-family="Liberation Sans, sans-serif" font-size="353px" font-weight="400"><tspan class="TextPosition" x="169" y="7976"><tspan fill="rgb(0,0,0)" stroke="none">1.500</tspan></tspan></tspan></text>
 <text class="TextShape"><tspan class="TextParagraph" font-family="Liberation Sans, sans-serif" font-size="353px" font-weight="400"><tspan class="TextPosition" x="169" y="6873"><tspan fill="rgb(0,0,0)" stroke="none">2.000</tspan></tspan></tspan></text>
 <text class="TextShape"><tspan class="TextParagraph" font-family="Liberation Sans, sans-serif" font-size="353px" font-weight="400"><tspan class="TextPosition" x="169" y="5770"><tspan fill="rgb(0,0,0)" stroke="none">2.500</tspan></tspan></tspan></text>
 <text class="TextShape"><tspan class="TextParagraph" font-family="Liberation Sans, sans-serif" font-size="353px" font-weight="400"><tspan class="TextPosition" x="169" y="4667"><tspan fill="rgb(0,0,0)" stroke="none">3.000</tspan></tspan></tspan></text>
 <text class="TextShape"><tspan class="TextParagraph" font-family="Liberation Sans, sans-serif" font-size="353px" font-weight="400"><tspan class="TextPosition" x="169" y="3565"><tspan fill="rgb(0,0,0)" stroke="none">3.500</tspan></tspan></tspan></text>
 <text class="TextShape"><tspan class="TextParagraph" font-family="Liberation Sans, sans-serif" font-size="353px" font-weight="400"><tspan class="TextPosition" x="169" y="2462"><tspan fill="rgb(0,0,0)" stroke="none">4.000</tspan></tspan></tspan></text>
 <text class="TextShape"><tspan class="TextParagraph" font-family="Liberation Sans, sans-serif" font-size="353px" font-weight="400"><tspan class="TextPosition" x="169" y="1360"><tspan fill="rgb(0,0,0)" stroke="none">4.500</tspan></tspan></tspan></text>
 <text class="TextShape"><tspan class="TextParagraph" font-family="Liberation Sans, sans-serif" font-size="423px" font-weight="400"><tspan class="TextPosition" x="3254" y="585"><tspan fill="rgb(0,0,0)" stroke="none">Muertes acumuladas por millón de mayores de 65 años</tspan></tspan></tspan><tspan class="TextParagraph" font-family="Liberation Sans, sans-serif" font-size="423px" font-weight="400"><tspan class="TextPosition" x="6099" y="1035"><tspan fill="rgb(0,0,0)" stroke="none">en Europa Occidental (1)</tspan></tspan></tspan></text>
 <path fill="none" stroke="rgb(0,69,134)" stroke-width="100" stroke-linejoin="round" d="M 1932,1748 L 2732,1748"/>
 <path fill="none" stroke="rgb(255,66,14)" stroke-width="100" stroke-linejoin="round" d="M 1932,2878 L 2732,2878"/>
 <path fill="none" stroke="rgb(255,211,32)" stroke-width="100" stroke-linejoin="round" d="M 1932,4008 L 2732,4008"/>
 <path fill="none" stroke="rgb(87,157,28)" stroke-width="100" stroke-linejoin="round" d="M 1932,5138 L 2732,5138"/>
 <path fill="none" stroke="rgb(126,0,33)" stroke-width="80" stroke-linejoin="round" d="M 1932,6267 L 2732,6267"/>
 <text class="TextShape"><tspan class="TextParagraph" font-family="Liberation Sans, sans-serif" font-size="353px" font-weight="400"><tspan class="TextPosition" x="2832" y="1868"><tspan fill="rgb(0,0,0)" stroke="none">Bélgica</tspan></tspan></tspan></text>
 <text class="TextShape"><tspan class="TextParagraph" font-family="Liberation Sans, sans-serif" font-size="353px" font-weight="400"><tspan class="TextPosition" x="2832" y="2998"><tspan fill="rgb(0,0,0)" stroke="none">Luxemburgo</tspan></tspan></tspan></text>
 <text class="TextShape"><tspan class="TextParagraph" font-family="Liberation Sans, sans-serif" font-size="353px" font-weight="400"><tspan class="TextPosition" x="2832" y="4128"><tspan fill="rgb(0,0,0)" stroke="none">Suiza</tspan></tspan></tspan></text>
 <text class="TextShape"><tspan class="TextParagraph" font-family="Liberation Sans, sans-serif" font-size="353px" font-weight="400"><tspan class="TextPosition" x="2832" y="5258"><tspan fill="rgb(0,0,0)" stroke="none">Austria</tspan></tspan></tspan></text>
 <text class="TextShape"><tspan class="TextParagraph" font-family="Liberation Sans, sans-serif" font-size="353px" font-weight="400"><tspan class="TextPosition" x="2832" y="6387"><tspan fill="rgb(0,0,0)" stroke="none">Italia</tspan></tspan></tspan></text>
</svg>