<?xml version="1.0" encoding="UTF-8"?>
<!DOCTYPE svg PUBLIC "-//W3C//DTD SVG 1.1//EN" "http://www.w3.org/Graphics/SVG/1.1/DTD/svg11.dtd">
<svg width="150mm" height="120mm" viewBox="0 0 15000 12000" version="1.1" xmlns="http://www.w3.org/2000/svg" xmlns:xlink="http://www.w3.org/1999/xlink" stroke-width="28.222" stroke-linejoin="round" xml:space="preserve">
 <path fill="rgb(255,255,255)" stroke="none" d="M 7500,12000 L 0,12000 0,0 15000,0 15000,12000 7500,12000 Z"/>
 <path fill="none" stroke="rgb(0,0,0)" stroke-linejoin="round" d="M 7727,11164 L 773,11164 773,1251 14682,1251 14682,11164 7727,11164 Z"/>
 <path fill="none" stroke="rgb(0,0,0)" stroke-linejoin="round" d="M 14681,11163 L 772,11163"/>
 <path fill="none" stroke="rgb(0,0,0)" stroke-linejoin="round" d="M 14681,8684 L 772,8684"/>
 <path fill="none" stroke="rgb(0,0,0)" stroke-linejoin="round" d="M 14681,6206 L 772,6206"/>
 <path fill="none" stroke="rgb(0,0,0)" stroke-linejoin="round" d="M 14681,3728 L 772,3728"/>
 <path fill="none" stroke="rgb(0,0,0)" stroke-linejoin="round" d="M 14681,1250 L 772,1250"/>
 <path fill="none" stroke="rgb(0,0,0)" stroke-linejoin="round" d="M 772,11313 L 772,11163"/>
 <path fill="none" stroke="rgb(0,0,0)" stroke-linejoin="round" d="M 772,11313 L 772,11163"/>
 <path fill="none" stroke="rgb(0,0,0)" stroke-linejoin="round" d="M 1932,11313 L 1932,11163"/>
 <path fill="none" stroke="rgb(0,0,0)" stroke-linejoin="round" d="M 1932,11313 L 1932,11163"/>
 <path fill="none" stroke="rgb(0,0,0)" stroke-linejoin="round" d="M 3091,11313 L 3091,11163"/>
 <path fill="none" stroke="rgb(0,0,0)" stroke-linejoin="round" d="M 3091,11313 L 3091,11163"/>
 <path fill="none" stroke="rgb(0,0,0)" stroke-linejoin="round" d="M 4250,11313 L 4250,11163"/>
 <path fill="none" stroke="rgb(0,0,0)" stroke-linejoin="round" d="M 4250,11313 L 4250,11163"/>
 <path fill="none" stroke="rgb(0,0,0)" stroke-linejoin="round" d="M 5409,11313 L 5409,11163"/>
 <path fill="none" stroke="rgb(0,0,0)" stroke-linejoin="round" d="M 5409,11313 L 5409,11163"/>
 <path fill="none" stroke="rgb(0,0,0)" stroke-linejoin="round" d="M 6568,11313 L 6568,11163"/>
 <path fill="none" stroke="rgb(0,0,0)" stroke-linejoin="round" d="M 6568,11313 L 6568,11163"/>
 <path fill="none" stroke="rgb(0,0,0)" stroke-linejoin="round" d="M 7726,11313 L 7726,11163"/>
 <path fill="none" stroke="rgb(0,0,0)" stroke-linejoin="round" d="M 7726,11313 L 7726,11163"/>
 <path fill="none" stroke="rgb(0,0,0)" stroke-linejoin="round" d="M 8886,11313 L 8886,11163"/>
 <path fill="none" stroke="rgb(0,0,0)" stroke-linejoin="round" d="M 8886,11313 L 8886,11163"/>
 <path fill="none" stroke="rgb(0,0,0)" stroke-linejoin="round" d="M 10045,11313 L 10045,11163"/>
 <path fill="none" stroke="rgb(0,0,0)" stroke-linejoin="round" d="M 10045,11313 L 10045,11163"/>
 <path fill="none" stroke="rgb(0,0,0)" stroke-linejoin="round" d="M 11204,11313 L 11204,11163"/>
 <path fill="none" stroke="rgb(0,0,0)" stroke-linejoin="round" d="M 11204,11313 L 11204,11163"/>
 <path fill="none" stroke="rgb(0,0,0)" stroke-linejoin="round" d="M 12363,11313 L 12363,11163"/>
 <path fill="none" stroke="rgb(0,0,0)" stroke-linejoin="round" d="M 12363,11313 L 12363,11163"/>
 <path fill="none" stroke="rgb(0,0,0)" stroke-linejoin="round" d="M 13522,11313 L 13522,11163"/>
 <path fill="none" stroke="rgb(0,0,0)" stroke-linejoin="round" d="M 13522,11313 L 13522,11163"/>
 <path fill="none" stroke="rgb(0,0,0)" stroke-linejoin="round" d="M 14681,11313 L 14681,11163"/>
 <path fill="none" stroke="rgb(0,0,0)" stroke-linejoin="round" d="M 14681,11313 L 14681,11163"/>
 <path fill="none" stroke="rgb(0,0,0)" stroke-linejoin="round" d="M 772,11163 L 14681,11163"/>
 <path fill="none" stroke="rgb(0,0,0)" stroke-linejoin="round" d="M 622,11163 L 772,11163"/>
 <path fill="none" stroke="rgb(0,0,0)" stroke-linejoin="round" d="M 622,11163 L 772,11163"/>
 <path fill="none" stroke="rgb(0,0,0)" stroke-linejoin="round" d="M 622,8684 L 772,8684"/>
 <path fill="none" stroke="rgb(0,0,0)" stroke-linejoin="round" d="M 622,8684 L 772,8684"/>
 <path fill="none" stroke="rgb(0,0,0)" stroke-linejoin="round" d="M 622,6206 L 772,6206"/>
 <path fill="none" stroke="rgb(0,0,0)" stroke-linejoin="round" d="M 622,6206 L 772,6206"/>
 <path fill="none" stroke="rgb(0,0,0)" stroke-linejoin="round" d="M 622,3728 L 772,3728"/>
 <path fill="none" stroke="rgb(0,0,0)" stroke-linejoin="round" d="M 622,3728 L 772,3728"/>
 <path fill="none" stroke="rgb(0,0,0)" stroke-linejoin="round" d="M 622,1250 L 772,1250"/>
 <path fill="none" stroke="rgb(0,0,0)" stroke-linejoin="round" d="M 622,1250 L 772,1250"/>
 <path fill="none" stroke="rgb(0,0,0)" stroke-linejoin="round" d="M 772,11163 L 772,1250"/>
 <path fill="none" stroke="rgb(0,69,134)" stroke-width="50" stroke-linejoin="round" d="M 3339,11125 L 3505,11163 3670,11087 3836,11125 4002,11163 4167,11125 4333,11163 4498,10973 4664,11087 4830,10860 4995,11011 5161,10444 5326,10595 5492,10482 5658,10028 5823,10028 5989,9536 6154,9876 6320,8779 6486,8136 6651,8212 6817,6926 6982,7644 7148,6169 7314,7644 7479,4543 7644,6093 7809,4884 7975,5565 8140,4959 8306,6812 8472,7342 8637,2311 8803,5603 8968,5565 9134,6812 9300,6169 9465,7607 9631,7909 9796,6547 9962,4014 10128,4316 10293,5716 10459,5792 10624,8023 10790,8628 10956,4922 11121,5943 11287,6509 11452,6926 11618,6623 11784,8666 11949,9536 12115,9347 12280,5678 12446,7985 12612,7455 12777,7607 12943,8552 13108,10179 13274,7909 13440,9801 13605,7985 13771,8477 13936,8779 14102,10482 14268,10557 14433,9120 14599,9195"/>
 <path fill="rgb(0,69,134)" stroke="none" d="M 3239,11025 L 3239,11225 3439,11225 3439,11025 3239,11025 Z"/>
 <path fill="none" stroke="rgb(0,69,134)" stroke-linejoin="round" d="M 3239,11025 L 3239,11225 3439,11225 3439,11025 3239,11025 Z"/>
 <path fill="rgb(0,69,134)" stroke="none" d="M 3405,11063 L 3405,11263 3605,11263 3605,11063 3405,11063 Z"/>
 <path fill="none" stroke="rgb(0,69,134)" stroke-linejoin="round" d="M 3405,11063 L 3405,11263 3605,11263 3605,11063 3405,11063 Z"/>
 <path fill="rgb(0,69,134)" stroke="none" d="M 3570,10987 L 3570,11187 3770,11187 3770,10987 3570,10987 Z"/>
 <path fill="none" stroke="rgb(0,69,134)" stroke-linejoin="round" d="M 3570,10987 L 3570,11187 3770,11187 3770,10987 3570,10987 Z"/>
 <path fill="rgb(0,69,134)" stroke="none" d="M 3736,11025 L 3736,11225 3936,11225 3936,11025 3736,11025 Z"/>
 <path fill="none" stroke="rgb(0,69,134)" stroke-linejoin="round" d="M 3736,11025 L 3736,11225 3936,11225 3936,11025 3736,11025 Z"/>
 <path fill="rgb(0,69,134)" stroke="none" d="M 3902,11063 L 3902,11263 4102,11263 4102,11063 3902,11063 Z"/>
 <path fill="none" stroke="rgb(0,69,134)" stroke-linejoin="round" d="M 3902,11063 L 3902,11263 4102,11263 4102,11063 3902,11063 Z"/>
 <path fill="rgb(0,69,134)" stroke="none" d="M 4067,11025 L 4067,11225 4267,11225 4267,11025 4067,11025 Z"/>
 <path fill="none" stroke="rgb(0,69,134)" stroke-linejoin="round" d="M 4067,11025 L 4067,11225 4267,11225 4267,11025 4067,11025 Z"/>
 <path fill="rgb(0,69,134)" stroke="none" d="M 4233,11063 L 4233,11263 4433,11263 4433,11063 4233,11063 Z"/>
 <path fill="none" stroke="rgb(0,69,134)" stroke-linejoin="round" d="M 4233,11063 L 4233,11263 4433,11263 4433,11063 4233,11063 Z"/>
 <path fill="rgb(0,69,134)" stroke="none" d="M 4398,10873 L 4398,11073 4598,11073 4598,10873 4398,10873 Z"/>
 <path fill="none" stroke="rgb(0,69,134)" stroke-linejoin="round" d="M 4398,10873 L 4398,11073 4598,11073 4598,10873 4398,10873 Z"/>
 <path fill="rgb(0,69,134)" stroke="none" d="M 4564,10987 L 4564,11187 4764,11187 4764,10987 4564,10987 Z"/>
 <path fill="none" stroke="rgb(0,69,134)" stroke-linejoin="round" d="M 4564,10987 L 4564,11187 4764,11187 4764,10987 4564,10987 Z"/>
 <path fill="rgb(0,69,134)" stroke="none" d="M 4730,10760 L 4730,10960 4930,10960 4930,10760 4730,10760 Z"/>
 <path fill="none" stroke="rgb(0,69,134)" stroke-linejoin="round" d="M 4730,10760 L 4730,10960 4930,10960 4930,10760 4730,10760 Z"/>
 <path fill="rgb(0,69,134)" stroke="none" d="M 4895,10911 L 4895,11111 5095,11111 5095,10911 4895,10911 Z"/>
 <path fill="none" stroke="rgb(0,69,134)" stroke-linejoin="round" d="M 4895,10911 L 4895,11111 5095,11111 5095,10911 4895,10911 Z"/>
 <path fill="rgb(0,69,134)" stroke="none" d="M 5061,10344 L 5061,10544 5261,10544 5261,10344 5061,10344 Z"/>
 <path fill="none" stroke="rgb(0,69,134)" stroke-linejoin="round" d="M 5061,10344 L 5061,10544 5261,10544 5261,10344 5061,10344 Z"/>
 <path fill="rgb(0,69,134)" stroke="none" d="M 5226,10495 L 5226,10695 5426,10695 5426,10495 5226,10495 Z"/>
 <path fill="none" stroke="rgb(0,69,134)" stroke-linejoin="round" d="M 5226,10495 L 5226,10695 5426,10695 5426,10495 5226,10495 Z"/>
 <path fill="rgb(0,69,134)" stroke="none" d="M 5392,10382 L 5392,10582 5592,10582 5592,10382 5392,10382 Z"/>
 <path fill="none" stroke="rgb(0,69,134)" stroke-linejoin="round" d="M 5392,10382 L 5392,10582 5592,10582 5592,10382 5392,10382 Z"/>
 <path fill="rgb(0,69,134)" stroke="none" d="M 5558,9928 L 5558,10128 5758,10128 5758,9928 5558,9928 Z"/>
 <path fill="none" stroke="rgb(0,69,134)" stroke-linejoin="round" d="M 5558,9928 L 5558,10128 5758,10128 5758,9928 5558,9928 Z"/>
 <path fill="rgb(0,69,134)" stroke="none" d="M 5723,9928 L 5723,10128 5923,10128 5923,9928 5723,9928 Z"/>
 <path fill="none" stroke="rgb(0,69,134)" stroke-linejoin="round" d="M 5723,9928 L 5723,10128 5923,10128 5923,9928 5723,9928 Z"/>
 <path fill="rgb(0,69,134)" stroke="none" d="M 5889,9436 L 5889,9636 6089,9636 6089,9436 5889,9436 Z"/>
 <path fill="none" stroke="rgb(0,69,134)" stroke-linejoin="round" d="M 5889,9436 L 5889,9636 6089,9636 6089,9436 5889,9436 Z"/>
 <path fill="rgb(0,69,134)" stroke="none" d="M 6054,9776 L 6054,9976 6254,9976 6254,9776 6054,9776 Z"/>
 <path fill="none" stroke="rgb(0,69,134)" stroke-linejoin="round" d="M 6054,9776 L 6054,9976 6254,9976 6254,9776 6054,9776 Z"/>
 <path fill="rgb(0,69,134)" stroke="none" d="M 6220,8679 L 6220,8879 6420,8879 6420,8679 6220,8679 Z"/>
 <path fill="none" stroke="rgb(0,69,134)" stroke-linejoin="round" d="M 6220,8679 L 6220,8879 6420,8879 6420,8679 6220,8679 Z"/>
 <path fill="rgb(0,69,134)" stroke="none" d="M 6386,8036 L 6386,8236 6586,8236 6586,8036 6386,8036 Z"/>
 <path fill="none" stroke="rgb(0,69,134)" stroke-linejoin="round" d="M 6386,8036 L 6386,8236 6586,8236 6586,8036 6386,8036 Z"/>
 <path fill="rgb(0,69,134)" stroke="none" d="M 6551,8112 L 6551,8312 6751,8312 6751,8112 6551,8112 Z"/>
 <path fill="none" stroke="rgb(0,69,134)" stroke-linejoin="round" d="M 6551,8112 L 6551,8312 6751,8312 6751,8112 6551,8112 Z"/>
 <path fill="rgb(0,69,134)" stroke="none" d="M 6717,6826 L 6717,7026 6917,7026 6917,6826 6717,6826 Z"/>
 <path fill="none" stroke="rgb(0,69,134)" stroke-linejoin="round" d="M 6717,6826 L 6717,7026 6917,7026 6917,6826 6717,6826 Z"/>
 <path fill="rgb(0,69,134)" stroke="none" d="M 6882,7544 L 6882,7744 7082,7744 7082,7544 6882,7544 Z"/>
 <path fill="none" stroke="rgb(0,69,134)" stroke-linejoin="round" d="M 6882,7544 L 6882,7744 7082,7744 7082,7544 6882,7544 Z"/>
 <path fill="rgb(0,69,134)" stroke="none" d="M 7048,6069 L 7048,6269 7248,6269 7248,6069 7048,6069 Z"/>
 <path fill="none" stroke="rgb(0,69,134)" stroke-linejoin="round" d="M 7048,6069 L 7048,6269 7248,6269 7248,6069 7048,6069 Z"/>
 <path fill="rgb(0,69,134)" stroke="none" d="M 7214,7544 L 7214,7744 7414,7744 7414,7544 7214,7544 Z"/>
 <path fill="none" stroke="rgb(0,69,134)" stroke-linejoin="round" d="M 7214,7544 L 7214,7744 7414,7744 7414,7544 7214,7544 Z"/>
 <path fill="rgb(0,69,134)" stroke="none" d="M 7379,4443 L 7379,4643 7578,4643 7578,4443 7379,4443 Z"/>
 <path fill="none" stroke="rgb(0,69,134)" stroke-linejoin="round" d="M 7379,4443 L 7379,4643 7578,4643 7578,4443 7379,4443 Z"/>
 <path fill="rgb(0,69,134)" stroke="none" d="M 7544,5994 L 7544,6193 7744,6193 7744,5994 7544,5994 Z"/>
 <path fill="none" stroke="rgb(0,69,134)" stroke-linejoin="round" d="M 7544,5994 L 7544,6193 7744,6193 7744,5994 7544,5994 Z"/>
 <path fill="rgb(0,69,134)" stroke="none" d="M 7709,4784 L 7709,4984 7909,4984 7909,4784 7709,4784 Z"/>
 <path fill="none" stroke="rgb(0,69,134)" stroke-linejoin="round" d="M 7709,4784 L 7709,4984 7909,4984 7909,4784 7709,4784 Z"/>
 <path fill="rgb(0,69,134)" stroke="none" d="M 7875,5465 L 7875,5665 8075,5665 8075,5465 7875,5465 Z"/>
 <path fill="none" stroke="rgb(0,69,134)" stroke-linejoin="round" d="M 7875,5465 L 7875,5665 8075,5665 8075,5465 7875,5465 Z"/>
 <path fill="rgb(0,69,134)" stroke="none" d="M 8040,4859 L 8040,5059 8240,5059 8240,4859 8040,4859 Z"/>
 <path fill="none" stroke="rgb(0,69,134)" stroke-linejoin="round" d="M 8040,4859 L 8040,5059 8240,5059 8240,4859 8040,4859 Z"/>
 <path fill="rgb(0,69,134)" stroke="none" d="M 8206,6712 L 8206,6912 8406,6912 8406,6712 8206,6712 Z"/>
 <path fill="none" stroke="rgb(0,69,134)" stroke-linejoin="round" d="M 8206,6712 L 8206,6912 8406,6912 8406,6712 8206,6712 Z"/>
 <path fill="rgb(0,69,134)" stroke="none" d="M 8372,7242 L 8372,7442 8572,7442 8572,7242 8372,7242 Z"/>
 <path fill="none" stroke="rgb(0,69,134)" stroke-linejoin="round" d="M 8372,7242 L 8372,7442 8572,7442 8572,7242 8372,7242 Z"/>
 <path fill="rgb(0,69,134)" stroke="none" d="M 8537,2211 L 8537,2411 8737,2411 8737,2211 8537,2211 Z"/>
 <path fill="none" stroke="rgb(0,69,134)" stroke-linejoin="round" d="M 8537,2211 L 8537,2411 8737,2411 8737,2211 8537,2211 Z"/>
 <path fill="rgb(0,69,134)" stroke="none" d="M 8703,5503 L 8703,5703 8903,5703 8903,5503 8703,5503 Z"/>
 <path fill="none" stroke="rgb(0,69,134)" stroke-linejoin="round" d="M 8703,5503 L 8703,5703 8903,5703 8903,5503 8703,5503 Z"/>
 <path fill="rgb(0,69,134)" stroke="none" d="M 8868,5465 L 8868,5665 9068,5665 9068,5465 8868,5465 Z"/>
 <path fill="none" stroke="rgb(0,69,134)" stroke-linejoin="round" d="M 8868,5465 L 8868,5665 9068,5665 9068,5465 8868,5465 Z"/>
 <path fill="rgb(0,69,134)" stroke="none" d="M 9034,6712 L 9034,6912 9234,6912 9234,6712 9034,6712 Z"/>
 <path fill="none" stroke="rgb(0,69,134)" stroke-linejoin="round" d="M 9034,6712 L 9034,6912 9234,6912 9234,6712 9034,6712 Z"/>
 <path fill="rgb(0,69,134)" stroke="none" d="M 9200,6069 L 9200,6269 9400,6269 9400,6069 9200,6069 Z"/>
 <path fill="none" stroke="rgb(0,69,134)" stroke-linejoin="round" d="M 9200,6069 L 9200,6269 9400,6269 9400,6069 9200,6069 Z"/>
 <path fill="rgb(0,69,134)" stroke="none" d="M 9365,7507 L 9365,7707 9565,7707 9565,7507 9365,7507 Z"/>
 <path fill="none" stroke="rgb(0,69,134)" stroke-linejoin="round" d="M 9365,7507 L 9365,7707 9565,7707 9565,7507 9365,7507 Z"/>
 <path fill="rgb(0,69,134)" stroke="none" d="M 9531,7809 L 9531,8009 9731,8009 9731,7809 9531,7809 Z"/>
 <path fill="none" stroke="rgb(0,69,134)" stroke-linejoin="round" d="M 9531,7809 L 9531,8009 9731,8009 9731,7809 9531,7809 Z"/>
 <path fill="rgb(0,69,134)" stroke="none" d="M 9696,6447 L 9696,6647 9896,6647 9896,6447 9696,6447 Z"/>
 <path fill="none" stroke="rgb(0,69,134)" stroke-linejoin="round" d="M 9696,6447 L 9696,6647 9896,6647 9896,6447 9696,6447 Z"/>
 <path fill="rgb(0,69,134)" stroke="none" d="M 9862,3914 L 9862,4114 10062,4114 10062,3914 9862,3914 Z"/>
 <path fill="none" stroke="rgb(0,69,134)" stroke-linejoin="round" d="M 9862,3914 L 9862,4114 10062,4114 10062,3914 9862,3914 Z"/>
 <path fill="rgb(0,69,134)" stroke="none" d="M 10028,4216 L 10028,4416 10228,4416 10228,4216 10028,4216 Z"/>
 <path fill="none" stroke="rgb(0,69,134)" stroke-linejoin="round" d="M 10028,4216 L 10028,4416 10228,4416 10228,4216 10028,4216 Z"/>
 <path fill="rgb(0,69,134)" stroke="none" d="M 10193,5616 L 10193,5816 10393,5816 10393,5616 10193,5616 Z"/>
 <path fill="none" stroke="rgb(0,69,134)" stroke-linejoin="round" d="M 10193,5616 L 10193,5816 10393,5816 10393,5616 10193,5616 Z"/>
 <path fill="rgb(0,69,134)" stroke="none" d="M 10359,5692 L 10359,5892 10559,5892 10559,5692 10359,5692 Z"/>
 <path fill="none" stroke="rgb(0,69,134)" stroke-linejoin="round" d="M 10359,5692 L 10359,5892 10559,5892 10559,5692 10359,5692 Z"/>
 <path fill="rgb(0,69,134)" stroke="none" d="M 10524,7923 L 10524,8123 10724,8123 10724,7923 10524,7923 Z"/>
 <path fill="none" stroke="rgb(0,69,134)" stroke-linejoin="round" d="M 10524,7923 L 10524,8123 10724,8123 10724,7923 10524,7923 Z"/>
 <path fill="rgb(0,69,134)" stroke="none" d="M 10690,8528 L 10690,8728 10890,8728 10890,8528 10690,8528 Z"/>
 <path fill="none" stroke="rgb(0,69,134)" stroke-linejoin="round" d="M 10690,8528 L 10690,8728 10890,8728 10890,8528 10690,8528 Z"/>
 <path fill="rgb(0,69,134)" stroke="none" d="M 10856,4822 L 10856,5022 11056,5022 11056,4822 10856,4822 Z"/>
 <path fill="none" stroke="rgb(0,69,134)" stroke-linejoin="round" d="M 10856,4822 L 10856,5022 11056,5022 11056,4822 10856,4822 Z"/>
 <path fill="rgb(0,69,134)" stroke="none" d="M 11021,5843 L 11021,6042 11221,6042 11221,5843 11021,5843 Z"/>
 <path fill="none" stroke="rgb(0,69,134)" stroke-linejoin="round" d="M 11021,5843 L 11021,6042 11221,6042 11221,5843 11021,5843 Z"/>
 <path fill="rgb(0,69,134)" stroke="none" d="M 11187,6409 L 11187,6609 11387,6609 11387,6409 11187,6409 Z"/>
 <path fill="none" stroke="rgb(0,69,134)" stroke-linejoin="round" d="M 11187,6409 L 11187,6609 11387,6609 11387,6409 11187,6409 Z"/>
 <path fill="rgb(0,69,134)" stroke="none" d="M 11352,6826 L 11352,7026 11552,7026 11552,6826 11352,6826 Z"/>
 <path fill="none" stroke="rgb(0,69,134)" stroke-linejoin="round" d="M 11352,6826 L 11352,7026 11552,7026 11552,6826 11352,6826 Z"/>
 <path fill="rgb(0,69,134)" stroke="none" d="M 11518,6523 L 11518,6723 11718,6723 11718,6523 11518,6523 Z"/>
 <path fill="none" stroke="rgb(0,69,134)" stroke-linejoin="round" d="M 11518,6523 L 11518,6723 11718,6723 11718,6523 11518,6523 Z"/>
 <path fill="rgb(0,69,134)" stroke="none" d="M 11684,8566 L 11684,8766 11884,8766 11884,8566 11684,8566 Z"/>
 <path fill="none" stroke="rgb(0,69,134)" stroke-linejoin="round" d="M 11684,8566 L 11684,8766 11884,8766 11884,8566 11684,8566 Z"/>
 <path fill="rgb(0,69,134)" stroke="none" d="M 11849,9436 L 11849,9636 12049,9636 12049,9436 11849,9436 Z"/>
 <path fill="none" stroke="rgb(0,69,134)" stroke-linejoin="round" d="M 11849,9436 L 11849,9636 12049,9636 12049,9436 11849,9436 Z"/>
 <path fill="rgb(0,69,134)" stroke="none" d="M 12015,9247 L 12015,9447 12215,9447 12215,9247 12015,9247 Z"/>
 <path fill="none" stroke="rgb(0,69,134)" stroke-linejoin="round" d="M 12015,9247 L 12015,9447 12215,9447 12215,9247 12015,9247 Z"/>
 <path fill="rgb(0,69,134)" stroke="none" d="M 12180,5578 L 12180,5778 12380,5778 12380,5578 12180,5578 Z"/>
 <path fill="none" stroke="rgb(0,69,134)" stroke-linejoin="round" d="M 12180,5578 L 12180,5778 12380,5778 12380,5578 12180,5578 Z"/>
 <path fill="rgb(0,69,134)" stroke="none" d="M 12346,7885 L 12346,8085 12546,8085 12546,7885 12346,7885 Z"/>
 <path fill="none" stroke="rgb(0,69,134)" stroke-linejoin="round" d="M 12346,7885 L 12346,8085 12546,8085 12546,7885 12346,7885 Z"/>
 <path fill="rgb(0,69,134)" stroke="none" d="M 12512,7355 L 12512,7555 12712,7555 12712,7355 12512,7355 Z"/>
 <path fill="none" stroke="rgb(0,69,134)" stroke-linejoin="round" d="M 12512,7355 L 12512,7555 12712,7555 12712,7355 12512,7355 Z"/>
 <path fill="rgb(0,69,134)" stroke="none" d="M 12677,7507 L 12677,7707 12877,7707 12877,7507 12677,7507 Z"/>
 <path fill="none" stroke="rgb(0,69,134)" stroke-linejoin="round" d="M 12677,7507 L 12677,7707 12877,7707 12877,7507 12677,7507 Z"/>
 <path fill="rgb(0,69,134)" stroke="none" d="M 12843,8452 L 12843,8652 13043,8652 13043,8452 12843,8452 Z"/>
 <path fill="none" stroke="rgb(0,69,134)" stroke-linejoin="round" d="M 12843,8452 L 12843,8652 13043,8652 13043,8452 12843,8452 Z"/>
 <path fill="rgb(0,69,134)" stroke="none" d="M 13008,10079 L 13008,10279 13208,10279 13208,10079 13008,10079 Z"/>
 <path fill="none" stroke="rgb(0,69,134)" stroke-linejoin="round" d="M 13008,10079 L 13008,10279 13208,10279 13208,10079 13008,10079 Z"/>
 <path fill="rgb(0,69,134)" stroke="none" d="M 13174,7809 L 13174,8009 13374,8009 13374,7809 13174,7809 Z"/>
 <path fill="none" stroke="rgb(0,69,134)" stroke-linejoin="round" d="M 13174,7809 L 13174,8009 13374,8009 13374,7809 13174,7809 Z"/>
 <path fill="rgb(0,69,134)" stroke="none" d="M 13340,9701 L 13340,9901 13540,9901 13540,9701 13340,9701 Z"/>
 <path fill="none" stroke="rgb(0,69,134)" stroke-linejoin="round" d="M 13340,9701 L 13340,9901 13540,9901 13540,9701 13340,9701 Z"/>
 <path fill="rgb(0,69,134)" stroke="none" d="M 13505,7885 L 13505,8085 13705,8085 13705,7885 13505,7885 Z"/>
 <path fill="none" stroke="rgb(0,69,134)" stroke-linejoin="round" d="M 13505,7885 L 13505,8085 13705,8085 13705,7885 13505,7885 Z"/>
 <path fill="rgb(0,69,134)" stroke="none" d="M 13671,8377 L 13671,8577 13871,8577 13871,8377 13671,8377 Z"/>
 <path fill="none" stroke="rgb(0,69,134)" stroke-linejoin="round" d="M 13671,8377 L 13671,8577 13871,8577 13871,8377 13671,8377 Z"/>
 <path fill="rgb(0,69,134)" stroke="none" d="M 13836,8679 L 13836,8879 14036,8879 14036,8679 13836,8679 Z"/>
 <path fill="none" stroke="rgb(0,69,134)" stroke-linejoin="round" d="M 13836,8679 L 13836,8879 14036,8879 14036,8679 13836,8679 Z"/>
 <path fill="rgb(0,69,134)" stroke="none" d="M 14002,10382 L 14002,10582 14202,10582 14202,10382 14002,10382 Z"/>
 <path fill="none" stroke="rgb(0,69,134)" stroke-linejoin="round" d="M 14002,10382 L 14002,10582 14202,10582 14202,10382 14002,10382 Z"/>
 <path fill="rgb(0,69,134)" stroke="none" d="M 14168,10457 L 14168,10657 14368,10657 14368,10457 14168,10457 Z"/>
 <path fill="none" stroke="rgb(0,69,134)" stroke-linejoin="round" d="M 14168,10457 L 14168,10657 14368,10657 14368,10457 14168,10457 Z"/>
 <path fill="rgb(0,69,134)" stroke="none" d="M 14333,9020 L 14333,9220 14533,9220 14533,9020 14333,9020 Z"/>
 <path fill="none" stroke="rgb(0,69,134)" stroke-linejoin="round" d="M 14333,9020 L 14333,9220 14533,9220 14533,9020 14333,9020 Z"/>
 <path fill="rgb(0,69,134)" stroke="none" d="M 14499,9095 L 14499,9295 14699,9295 14699,9095 14499,9095 Z"/>
 <path fill="none" stroke="rgb(0,69,134)" stroke-linejoin="round" d="M 14499,9095 L 14499,9295 14699,9295 14699,9095 14499,9095 Z"/>
 <path fill="none" stroke="rgb(255,66,14)" stroke-width="50" stroke-linejoin="round" d="M 4167,10979 L 4333,11163 4498,11163 4664,10979 4830,11163 4995,11163 5161,11163 5326,11163 5492,10979 5658,11163 5823,11163 5989,10979 6154,10795 6320,10979 6486,10795 6651,9327 6817,10612 6982,8592 7148,9327 7314,9694 7479,8042 7644,8592 7809,8776 7975,7124 8140,8042 8306,7307 8472,8225 8637,4555 8803,6573 8968,6022 9134,6573 9300,5289 9465,8592 9631,5473 9796,3637 9962,4188 10128,3453 10293,3086 10459,3637 10624,4004 10690,1250"/>
 <path fill="none" stroke="rgb(255,66,14)" stroke-width="50" stroke-linejoin="round" d="M 10902,1250 L 10956,3270 11121,4004 11287,6573 11311,1250"/>
 <path fill="none" stroke="rgb(255,66,14)" stroke-width="50" stroke-linejoin="round" d="M 11613,1250 L 11618,2168 11784,6757 11949,8409 12103,1250"/>
 <path fill="none" stroke="rgb(255,66,14)" stroke-width="50" stroke-linejoin="round" d="M 12134,1250 L 12280,5473 12446,3453 12612,5106 12777,7307 12943,8042 13108,8225 13274,7491 13440,4555 13605,6022 13771,6390 13936,8042 14102,8960 14268,9510 14433,7307 14599,9510"/>
 <path fill="rgb(255,66,14)" stroke="none" d="M 4067,10979 L 4167,11079 4267,10979 4167,10879 4067,10979 Z"/>
 <path fill="none" stroke="rgb(255,66,14)" stroke-linejoin="round" d="M 4067,10979 L 4167,11079 4267,10979 4167,10879 4067,10979 Z"/>
 <path fill="rgb(255,66,14)" stroke="none" d="M 4233,11163 L 4333,11263 4433,11163 4333,11063 4233,11163 Z"/>
 <path fill="none" stroke="rgb(255,66,14)" stroke-linejoin="round" d="M 4233,11163 L 4333,11263 4433,11163 4333,11063 4233,11163 Z"/>
 <path fill="rgb(255,66,14)" stroke="none" d="M 4398,11163 L 4498,11263 4598,11163 4498,11063 4398,11163 Z"/>
 <path fill="none" stroke="rgb(255,66,14)" stroke-linejoin="round" d="M 4398,11163 L 4498,11263 4598,11163 4498,11063 4398,11163 Z"/>
 <path fill="rgb(255,66,14)" stroke="none" d="M 4564,10979 L 4664,11079 4764,10979 4664,10879 4564,10979 Z"/>
 <path fill="none" stroke="rgb(255,66,14)" stroke-linejoin="round" d="M 4564,10979 L 4664,11079 4764,10979 4664,10879 4564,10979 Z"/>
 <path fill="rgb(255,66,14)" stroke="none" d="M 4730,11163 L 4830,11263 4930,11163 4830,11063 4730,11163 Z"/>
 <path fill="none" stroke="rgb(255,66,14)" stroke-linejoin="round" d="M 4730,11163 L 4830,11263 4930,11163 4830,11063 4730,11163 Z"/>
 <path fill="rgb(255,66,14)" stroke="none" d="M 4895,11163 L 4995,11263 5095,11163 4995,11063 4895,11163 Z"/>
 <path fill="none" stroke="rgb(255,66,14)" stroke-linejoin="round" d="M 4895,11163 L 4995,11263 5095,11163 4995,11063 4895,11163 Z"/>
 <path fill="rgb(255,66,14)" stroke="none" d="M 5061,11163 L 5161,11263 5261,11163 5161,11063 5061,11163 Z"/>
 <path fill="none" stroke="rgb(255,66,14)" stroke-linejoin="round" d="M 5061,11163 L 5161,11263 5261,11163 5161,11063 5061,11163 Z"/>
 <path fill="rgb(255,66,14)" stroke="none" d="M 5226,11163 L 5326,11263 5426,11163 5326,11063 5226,11163 Z"/>
 <path fill="none" stroke="rgb(255,66,14)" stroke-linejoin="round" d="M 5226,11163 L 5326,11263 5426,11163 5326,11063 5226,11163 Z"/>
 <path fill="rgb(255,66,14)" stroke="none" d="M 5392,10979 L 5492,11079 5592,10979 5492,10879 5392,10979 Z"/>
 <path fill="none" stroke="rgb(255,66,14)" stroke-linejoin="round" d="M 5392,10979 L 5492,11079 5592,10979 5492,10879 5392,10979 Z"/>
 <path fill="rgb(255,66,14)" stroke="none" d="M 5558,11163 L 5658,11263 5758,11163 5658,11063 5558,11163 Z"/>
 <path fill="none" stroke="rgb(255,66,14)" stroke-linejoin="round" d="M 5558,11163 L 5658,11263 5758,11163 5658,11063 5558,11163 Z"/>
 <path fill="rgb(255,66,14)" stroke="none" d="M 5723,11163 L 5823,11263 5923,11163 5823,11063 5723,11163 Z"/>
 <path fill="none" stroke="rgb(255,66,14)" stroke-linejoin="round" d="M 5723,11163 L 5823,11263 5923,11163 5823,11063 5723,11163 Z"/>
 <path fill="rgb(255,66,14)" stroke="none" d="M 5889,10979 L 5989,11079 6089,10979 5989,10879 5889,10979 Z"/>
 <path fill="none" stroke="rgb(255,66,14)" stroke-linejoin="round" d="M 5889,10979 L 5989,11079 6089,10979 5989,10879 5889,10979 Z"/>
 <path fill="rgb(255,66,14)" stroke="none" d="M 6054,10795 L 6154,10895 6254,10795 6154,10695 6054,10795 Z"/>
 <path fill="none" stroke="rgb(255,66,14)" stroke-linejoin="round" d="M 6054,10795 L 6154,10895 6254,10795 6154,10695 6054,10795 Z"/>
 <path fill="rgb(255,66,14)" stroke="none" d="M 6220,10979 L 6320,11079 6420,10979 6320,10879 6220,10979 Z"/>
 <path fill="none" stroke="rgb(255,66,14)" stroke-linejoin="round" d="M 6220,10979 L 6320,11079 6420,10979 6320,10879 6220,10979 Z"/>
 <path fill="rgb(255,66,14)" stroke="none" d="M 6386,10795 L 6486,10895 6586,10795 6486,10695 6386,10795 Z"/>
 <path fill="none" stroke="rgb(255,66,14)" stroke-linejoin="round" d="M 6386,10795 L 6486,10895 6586,10795 6486,10695 6386,10795 Z"/>
 <path fill="rgb(255,66,14)" stroke="none" d="M 6551,9327 L 6651,9427 6751,9327 6651,9227 6551,9327 Z"/>
 <path fill="none" stroke="rgb(255,66,14)" stroke-linejoin="round" d="M 6551,9327 L 6651,9427 6751,9327 6651,9227 6551,9327 Z"/>
 <path fill="rgb(255,66,14)" stroke="none" d="M 6717,10612 L 6817,10712 6917,10612 6817,10512 6717,10612 Z"/>
 <path fill="none" stroke="rgb(255,66,14)" stroke-linejoin="round" d="M 6717,10612 L 6817,10712 6917,10612 6817,10512 6717,10612 Z"/>
 <path fill="rgb(255,66,14)" stroke="none" d="M 6882,8592 L 6982,8692 7082,8592 6982,8492 6882,8592 Z"/>
 <path fill="none" stroke="rgb(255,66,14)" stroke-linejoin="round" d="M 6882,8592 L 6982,8692 7082,8592 6982,8492 6882,8592 Z"/>
 <path fill="rgb(255,66,14)" stroke="none" d="M 7048,9327 L 7148,9427 7248,9327 7148,9227 7048,9327 Z"/>
 <path fill="none" stroke="rgb(255,66,14)" stroke-linejoin="round" d="M 7048,9327 L 7148,9427 7248,9327 7148,9227 7048,9327 Z"/>
 <path fill="rgb(255,66,14)" stroke="none" d="M 7214,9694 L 7314,9794 7414,9694 7314,9594 7214,9694 Z"/>
 <path fill="none" stroke="rgb(255,66,14)" stroke-linejoin="round" d="M 7214,9694 L 7314,9794 7414,9694 7314,9594 7214,9694 Z"/>
 <path fill="rgb(255,66,14)" stroke="none" d="M 7379,8042 L 7479,8142 7578,8042 7479,7942 7379,8042 Z"/>
 <path fill="none" stroke="rgb(255,66,14)" stroke-linejoin="round" d="M 7379,8042 L 7479,8142 7578,8042 7479,7942 7379,8042 Z"/>
 <path fill="rgb(255,66,14)" stroke="none" d="M 7544,8592 L 7644,8692 7744,8592 7644,8492 7544,8592 Z"/>
 <path fill="none" stroke="rgb(255,66,14)" stroke-linejoin="round" d="M 7544,8592 L 7644,8692 7744,8592 7644,8492 7544,8592 Z"/>
 <path fill="rgb(255,66,14)" stroke="none" d="M 7709,8776 L 7809,8876 7909,8776 7809,8676 7709,8776 Z"/>
 <path fill="none" stroke="rgb(255,66,14)" stroke-linejoin="round" d="M 7709,8776 L 7809,8876 7909,8776 7809,8676 7709,8776 Z"/>
 <path fill="rgb(255,66,14)" stroke="none" d="M 7875,7124 L 7975,7224 8075,7124 7975,7024 7875,7124 Z"/>
 <path fill="none" stroke="rgb(255,66,14)" stroke-linejoin="round" d="M 7875,7124 L 7975,7224 8075,7124 7975,7024 7875,7124 Z"/>
 <path fill="rgb(255,66,14)" stroke="none" d="M 8040,8042 L 8140,8142 8240,8042 8140,7942 8040,8042 Z"/>
 <path fill="none" stroke="rgb(255,66,14)" stroke-linejoin="round" d="M 8040,8042 L 8140,8142 8240,8042 8140,7942 8040,8042 Z"/>
 <path fill="rgb(255,66,14)" stroke="none" d="M 8206,7307 L 8306,7407 8406,7307 8306,7207 8206,7307 Z"/>
 <path fill="none" stroke="rgb(255,66,14)" stroke-linejoin="round" d="M 8206,7307 L 8306,7407 8406,7307 8306,7207 8206,7307 Z"/>
 <path fill="rgb(255,66,14)" stroke="none" d="M 8372,8225 L 8472,8325 8572,8225 8472,8125 8372,8225 Z"/>
 <path fill="none" stroke="rgb(255,66,14)" stroke-linejoin="round" d="M 8372,8225 L 8472,8325 8572,8225 8472,8125 8372,8225 Z"/>
 <path fill="rgb(255,66,14)" stroke="none" d="M 8537,4555 L 8637,4655 8737,4555 8637,4455 8537,4555 Z"/>
 <path fill="none" stroke="rgb(255,66,14)" stroke-linejoin="round" d="M 8537,4555 L 8637,4655 8737,4555 8637,4455 8537,4555 Z"/>
 <path fill="rgb(255,66,14)" stroke="none" d="M 8703,6573 L 8803,6673 8903,6573 8803,6473 8703,6573 Z"/>
 <path fill="none" stroke="rgb(255,66,14)" stroke-linejoin="round" d="M 8703,6573 L 8803,6673 8903,6573 8803,6473 8703,6573 Z"/>
 <path fill="rgb(255,66,14)" stroke="none" d="M 8868,6022 L 8968,6122 9068,6022 8968,5923 8868,6022 Z"/>
 <path fill="none" stroke="rgb(255,66,14)" stroke-linejoin="round" d="M 8868,6022 L 8968,6122 9068,6022 8968,5923 8868,6022 Z"/>
 <path fill="rgb(255,66,14)" stroke="none" d="M 9034,6573 L 9134,6673 9234,6573 9134,6473 9034,6573 Z"/>
 <path fill="none" stroke="rgb(255,66,14)" stroke-linejoin="round" d="M 9034,6573 L 9134,6673 9234,6573 9134,6473 9034,6573 Z"/>
 <path fill="rgb(255,66,14)" stroke="none" d="M 9200,5289 L 9300,5389 9400,5289 9300,5189 9200,5289 Z"/>
 <path fill="none" stroke="rgb(255,66,14)" stroke-linejoin="round" d="M 9200,5289 L 9300,5389 9400,5289 9300,5189 9200,5289 Z"/>
 <path fill="rgb(255,66,14)" stroke="none" d="M 9365,8592 L 9465,8692 9565,8592 9465,8492 9365,8592 Z"/>
 <path fill="none" stroke="rgb(255,66,14)" stroke-linejoin="round" d="M 9365,8592 L 9465,8692 9565,8592 9465,8492 9365,8592 Z"/>
 <path fill="rgb(255,66,14)" stroke="none" d="M 9531,5473 L 9631,5573 9731,5473 9631,5373 9531,5473 Z"/>
 <path fill="none" stroke="rgb(255,66,14)" stroke-linejoin="round" d="M 9531,5473 L 9631,5573 9731,5473 9631,5373 9531,5473 Z"/>
 <path fill="rgb(255,66,14)" stroke="none" d="M 9696,3637 L 9796,3737 9896,3637 9796,3537 9696,3637 Z"/>
 <path fill="none" stroke="rgb(255,66,14)" stroke-linejoin="round" d="M 9696,3637 L 9796,3737 9896,3637 9796,3537 9696,3637 Z"/>
 <path fill="rgb(255,66,14)" stroke="none" d="M 9862,4188 L 9962,4288 10062,4188 9962,4088 9862,4188 Z"/>
 <path fill="none" stroke="rgb(255,66,14)" stroke-linejoin="round" d="M 9862,4188 L 9962,4288 10062,4188 9962,4088 9862,4188 Z"/>
 <path fill="rgb(255,66,14)" stroke="none" d="M 10028,3453 L 10128,3553 10228,3453 10128,3353 10028,3453 Z"/>
 <path fill="none" stroke="rgb(255,66,14)" stroke-linejoin="round" d="M 10028,3453 L 10128,3553 10228,3453 10128,3353 10028,3453 Z"/>
 <path fill="rgb(255,66,14)" stroke="none" d="M 10193,3086 L 10293,3186 10393,3086 10293,2986 10193,3086 Z"/>
 <path fill="none" stroke="rgb(255,66,14)" stroke-linejoin="round" d="M 10193,3086 L 10293,3186 10393,3086 10293,2986 10193,3086 Z"/>
 <path fill="rgb(255,66,14)" stroke="none" d="M 10359,3637 L 10459,3737 10559,3637 10459,3537 10359,3637 Z"/>
 <path fill="none" stroke="rgb(255,66,14)" stroke-linejoin="round" d="M 10359,3637 L 10459,3737 10559,3637 10459,3537 10359,3637 Z"/>
 <path fill="rgb(255,66,14)" stroke="none" d="M 10524,4004 L 10624,4104 10724,4004 10624,3904 10524,4004 Z"/>
 <path fill="none" stroke="rgb(255,66,14)" stroke-linejoin="round" d="M 10524,4004 L 10624,4104 10724,4004 10624,3904 10524,4004 Z"/>
 <path fill="rgb(255,66,14)" stroke="none" d="M 10856,3270 L 10956,3370 11056,3270 10956,3170 10856,3270 Z"/>
 <path fill="none" stroke="rgb(255,66,14)" stroke-linejoin="round" d="M 10856,3270 L 10956,3370 11056,3270 10956,3170 10856,3270 Z"/>
 <path fill="rgb(255,66,14)" stroke="none" d="M 11021,4004 L 11121,4104 11221,4004 11121,3904 11021,4004 Z"/>
 <path fill="none" stroke="rgb(255,66,14)" stroke-linejoin="round" d="M 11021,4004 L 11121,4104 11221,4004 11121,3904 11021,4004 Z"/>
 <path fill="rgb(255,66,14)" stroke="none" d="M 11187,6573 L 11287,6673 11387,6573 11287,6473 11187,6573 Z"/>
 <path fill="none" stroke="rgb(255,66,14)" stroke-linejoin="round" d="M 11187,6573 L 11287,6673 11387,6573 11287,6473 11187,6573 Z"/>
 <path fill="rgb(255,66,14)" stroke="none" d="M 11518,2168 L 11618,2268 11718,2168 11618,2068 11518,2168 Z"/>
 <path fill="none" stroke="rgb(255,66,14)" stroke-linejoin="round" d="M 11518,2168 L 11618,2268 11718,2168 11618,2068 11518,2168 Z"/>
 <path fill="rgb(255,66,14)" stroke="none" d="M 11684,6757 L 11784,6857 11884,6757 11784,6657 11684,6757 Z"/>
 <path fill="none" stroke="rgb(255,66,14)" stroke-linejoin="round" d="M 11684,6757 L 11784,6857 11884,6757 11784,6657 11684,6757 Z"/>
 <path fill="rgb(255,66,14)" stroke="none" d="M 11849,8409 L 11949,8509 12049,8409 11949,8309 11849,8409 Z"/>
 <path fill="none" stroke="rgb(255,66,14)" stroke-linejoin="round" d="M 11849,8409 L 11949,8509 12049,8409 11949,8309 11849,8409 Z"/>
 <path fill="rgb(255,66,14)" stroke="none" d="M 12180,5473 L 12280,5573 12380,5473 12280,5373 12180,5473 Z"/>
 <path fill="none" stroke="rgb(255,66,14)" stroke-linejoin="round" d="M 12180,5473 L 12280,5573 12380,5473 12280,5373 12180,5473 Z"/>
 <path fill="rgb(255,66,14)" stroke="none" d="M 12346,3453 L 12446,3553 12546,3453 12446,3353 12346,3453 Z"/>
 <path fill="none" stroke="rgb(255,66,14)" stroke-linejoin="round" d="M 12346,3453 L 12446,3553 12546,3453 12446,3353 12346,3453 Z"/>
 <path fill="rgb(255,66,14)" stroke="none" d="M 12512,5106 L 12612,5206 12712,5106 12612,5006 12512,5106 Z"/>
 <path fill="none" stroke="rgb(255,66,14)" stroke-linejoin="round" d="M 12512,5106 L 12612,5206 12712,5106 12612,5006 12512,5106 Z"/>
 <path fill="rgb(255,66,14)" stroke="none" d="M 12677,7307 L 12777,7407 12877,7307 12777,7207 12677,7307 Z"/>
 <path fill="none" stroke="rgb(255,66,14)" stroke-linejoin="round" d="M 12677,7307 L 12777,7407 12877,7307 12777,7207 12677,7307 Z"/>
 <path fill="rgb(255,66,14)" stroke="none" d="M 12843,8042 L 12943,8142 13043,8042 12943,7942 12843,8042 Z"/>
 <path fill="none" stroke="rgb(255,66,14)" stroke-linejoin="round" d="M 12843,8042 L 12943,8142 13043,8042 12943,7942 12843,8042 Z"/>
 <path fill="rgb(255,66,14)" stroke="none" d="M 13008,8225 L 13108,8325 13208,8225 13108,8125 13008,8225 Z"/>
 <path fill="none" stroke="rgb(255,66,14)" stroke-linejoin="round" d="M 13008,8225 L 13108,8325 13208,8225 13108,8125 13008,8225 Z"/>
 <path fill="rgb(255,66,14)" stroke="none" d="M 13174,7491 L 13274,7591 13374,7491 13274,7391 13174,7491 Z"/>
 <path fill="none" stroke="rgb(255,66,14)" stroke-linejoin="round" d="M 13174,7491 L 13274,7591 13374,7491 13274,7391 13174,7491 Z"/>
 <path fill="rgb(255,66,14)" stroke="none" d="M 13340,4555 L 13440,4655 13540,4555 13440,4455 13340,4555 Z"/>
 <path fill="none" stroke="rgb(255,66,14)" stroke-linejoin="round" d="M 13340,4555 L 13440,4655 13540,4555 13440,4455 13340,4555 Z"/>
 <path fill="rgb(255,66,14)" stroke="none" d="M 13505,6022 L 13605,6122 13705,6022 13605,5923 13505,6022 Z"/>
 <path fill="none" stroke="rgb(255,66,14)" stroke-linejoin="round" d="M 13505,6022 L 13605,6122 13705,6022 13605,5923 13505,6022 Z"/>
 <path fill="rgb(255,66,14)" stroke="none" d="M 13671,6390 L 13771,6490 13871,6390 13771,6290 13671,6390 Z"/>
 <path fill="none" stroke="rgb(255,66,14)" stroke-linejoin="round" d="M 13671,6390 L 13771,6490 13871,6390 13771,6290 13671,6390 Z"/>
 <path fill="rgb(255,66,14)" stroke="none" d="M 13836,8042 L 13936,8142 14036,8042 13936,7942 13836,8042 Z"/>
 <path fill="none" stroke="rgb(255,66,14)" stroke-linejoin="round" d="M 13836,8042 L 13936,8142 14036,8042 13936,7942 13836,8042 Z"/>
 <path fill="rgb(255,66,14)" stroke="none" d="M 14002,8960 L 14102,9060 14202,8960 14102,8860 14002,8960 Z"/>
 <path fill="none" stroke="rgb(255,66,14)" stroke-linejoin="round" d="M 14002,8960 L 14102,9060 14202,8960 14102,8860 14002,8960 Z"/>
 <path fill="rgb(255,66,14)" stroke="none" d="M 14168,9510 L 14268,9610 14368,9510 14268,9410 14168,9510 Z"/>
 <path fill="none" stroke="rgb(255,66,14)" stroke-linejoin="round" d="M 14168,9510 L 14268,9610 14368,9510 14268,9410 14168,9510 Z"/>
 <path fill="rgb(255,66,14)" stroke="none" d="M 14333,7307 L 14433,7407 14533,7307 14433,7207 14333,7307 Z"/>
 <path fill="none" stroke="rgb(255,66,14)" stroke-linejoin="round" d="M 14333,7307 L 14433,7407 14533,7307 14433,7207 14333,7307 Z"/>
 <path fill="rgb(255,66,14)" stroke="none" d="M 14499,9510 L 14599,9610 14699,9510 14599,9410 14499,9510 Z"/>
 <path fill="none" stroke="rgb(255,66,14)" stroke-linejoin="round" d="M 14499,9510 L 14599,9610 14699,9510 14599,9410 14499,9510 Z"/>
 <path fill="none" stroke="rgb(255,211,32)" stroke-width="50" stroke-linejoin="round" d="M 4498,9879 L 4664,11163 4830,11163 4995,11163 5161,11163 5326,9879 5492,8596 5658,9879 5823,7313 5989,11163 6154,11163 6320,11163 6486,11163 6651,9879 6817,3465 6982,7313 7148,7313 7314,9879 7479,9879 7644,3465 7809,9879 7975,9879 8140,11163 8306,4748 8472,4748 8637,7313 8803,8596 8968,3465 9134,8596 9292,1250"/>
 <path fill="none" stroke="rgb(255,211,32)" stroke-width="50" stroke-linejoin="round" d="M 9311,1250 L 9465,6030 9631,9879 9796,11163 9962,9879 10128,11163 10293,6030 10459,11163 10624,9879 10790,8596 10956,7313 11121,8596 11287,7313 11452,8596 11618,11163 11784,7313 11949,11163 12115,9879 12280,11163 12446,9879 12612,8596 12777,11163 12943,6030 13108,11163 13274,11163 13440,8596 13605,8596 13771,11163 13936,9879 14102,11163 14268,11163 14433,9879"/>
 <path fill="rgb(255,211,32)" stroke="none" d="M 4398,9779 L 4498,9979 4598,9779 4398,9779 Z"/>
 <path fill="none" stroke="rgb(255,211,32)" stroke-linejoin="round" d="M 4398,9779 L 4498,9979 4598,9779 4398,9779 Z"/>
 <path fill="rgb(255,211,32)" stroke="none" d="M 4564,11063 L 4664,11263 4764,11063 4564,11063 Z"/>
 <path fill="none" stroke="rgb(255,211,32)" stroke-linejoin="round" d="M 4564,11063 L 4664,11263 4764,11063 4564,11063 Z"/>
 <path fill="rgb(255,211,32)" stroke="none" d="M 4730,11063 L 4830,11263 4930,11063 4730,11063 Z"/>
 <path fill="none" stroke="rgb(255,211,32)" stroke-linejoin="round" d="M 4730,11063 L 4830,11263 4930,11063 4730,11063 Z"/>
 <path fill="rgb(255,211,32)" stroke="none" d="M 4895,11063 L 4995,11263 5095,11063 4895,11063 Z"/>
 <path fill="none" stroke="rgb(255,211,32)" stroke-linejoin="round" d="M 4895,11063 L 4995,11263 5095,11063 4895,11063 Z"/>
 <path fill="rgb(255,211,32)" stroke="none" d="M 5061,11063 L 5161,11263 5261,11063 5061,11063 Z"/>
 <path fill="none" stroke="rgb(255,211,32)" stroke-linejoin="round" d="M 5061,11063 L 5161,11263 5261,11063 5061,11063 Z"/>
 <path fill="rgb(255,211,32)" stroke="none" d="M 5226,9779 L 5326,9979 5426,9779 5226,9779 Z"/>
 <path fill="none" stroke="rgb(255,211,32)" stroke-linejoin="round" d="M 5226,9779 L 5326,9979 5426,9779 5226,9779 Z"/>
 <path fill="rgb(255,211,32)" stroke="none" d="M 5392,8496 L 5492,8696 5592,8496 5392,8496 Z"/>
 <path fill="none" stroke="rgb(255,211,32)" stroke-linejoin="round" d="M 5392,8496 L 5492,8696 5592,8496 5392,8496 Z"/>
 <path fill="rgb(255,211,32)" stroke="none" d="M 5558,9779 L 5658,9979 5758,9779 5558,9779 Z"/>
 <path fill="none" stroke="rgb(255,211,32)" stroke-linejoin="round" d="M 5558,9779 L 5658,9979 5758,9779 5558,9779 Z"/>
 <path fill="rgb(255,211,32)" stroke="none" d="M 5723,7213 L 5823,7413 5923,7213 5723,7213 Z"/>
 <path fill="none" stroke="rgb(255,211,32)" stroke-linejoin="round" d="M 5723,7213 L 5823,7413 5923,7213 5723,7213 Z"/>
 <path fill="rgb(255,211,32)" stroke="none" d="M 5889,11063 L 5989,11263 6089,11063 5889,11063 Z"/>
 <path fill="none" stroke="rgb(255,211,32)" stroke-linejoin="round" d="M 5889,11063 L 5989,11263 6089,11063 5889,11063 Z"/>
 <path fill="rgb(255,211,32)" stroke="none" d="M 6054,11063 L 6154,11263 6254,11063 6054,11063 Z"/>
 <path fill="none" stroke="rgb(255,211,32)" stroke-linejoin="round" d="M 6054,11063 L 6154,11263 6254,11063 6054,11063 Z"/>
 <path fill="rgb(255,211,32)" stroke="none" d="M 6220,11063 L 6320,11263 6420,11063 6220,11063 Z"/>
 <path fill="none" stroke="rgb(255,211,32)" stroke-linejoin="round" d="M 6220,11063 L 6320,11263 6420,11063 6220,11063 Z"/>
 <path fill="rgb(255,211,32)" stroke="none" d="M 6386,11063 L 6486,11263 6586,11063 6386,11063 Z"/>
 <path fill="none" stroke="rgb(255,211,32)" stroke-linejoin="round" d="M 6386,11063 L 6486,11263 6586,11063 6386,11063 Z"/>
 <path fill="rgb(255,211,32)" stroke="none" d="M 6551,9779 L 6651,9979 6751,9779 6551,9779 Z"/>
 <path fill="none" stroke="rgb(255,211,32)" stroke-linejoin="round" d="M 6551,9779 L 6651,9979 6751,9779 6551,9779 Z"/>
 <path fill="rgb(255,211,32)" stroke="none" d="M 6717,3365 L 6817,3565 6917,3365 6717,3365 Z"/>
 <path fill="none" stroke="rgb(255,211,32)" stroke-linejoin="round" d="M 6717,3365 L 6817,3565 6917,3365 6717,3365 Z"/>
 <path fill="rgb(255,211,32)" stroke="none" d="M 6882,7213 L 6982,7413 7082,7213 6882,7213 Z"/>
 <path fill="none" stroke="rgb(255,211,32)" stroke-linejoin="round" d="M 6882,7213 L 6982,7413 7082,7213 6882,7213 Z"/>
 <path fill="rgb(255,211,32)" stroke="none" d="M 7048,7213 L 7148,7413 7248,7213 7048,7213 Z"/>
 <path fill="none" stroke="rgb(255,211,32)" stroke-linejoin="round" d="M 7048,7213 L 7148,7413 7248,7213 7048,7213 Z"/>
 <path fill="rgb(255,211,32)" stroke="none" d="M 7214,9779 L 7314,9979 7414,9779 7214,9779 Z"/>
 <path fill="none" stroke="rgb(255,211,32)" stroke-linejoin="round" d="M 7214,9779 L 7314,9979 7414,9779 7214,9779 Z"/>
 <path fill="rgb(255,211,32)" stroke="none" d="M 7379,9779 L 7479,9979 7578,9779 7379,9779 Z"/>
 <path fill="none" stroke="rgb(255,211,32)" stroke-linejoin="round" d="M 7379,9779 L 7479,9979 7578,9779 7379,9779 Z"/>
 <path fill="rgb(255,211,32)" stroke="none" d="M 7544,3365 L 7644,3565 7744,3365 7544,3365 Z"/>
 <path fill="none" stroke="rgb(255,211,32)" stroke-linejoin="round" d="M 7544,3365 L 7644,3565 7744,3365 7544,3365 Z"/>
 <path fill="rgb(255,211,32)" stroke="none" d="M 7709,9779 L 7809,9979 7909,9779 7709,9779 Z"/>
 <path fill="none" stroke="rgb(255,211,32)" stroke-linejoin="round" d="M 7709,9779 L 7809,9979 7909,9779 7709,9779 Z"/>
 <path fill="rgb(255,211,32)" stroke="none" d="M 7875,9779 L 7975,9979 8075,9779 7875,9779 Z"/>
 <path fill="none" stroke="rgb(255,211,32)" stroke-linejoin="round" d="M 7875,9779 L 7975,9979 8075,9779 7875,9779 Z"/>
 <path fill="rgb(255,211,32)" stroke="none" d="M 8040,11063 L 8140,11263 8240,11063 8040,11063 Z"/>
 <path fill="none" stroke="rgb(255,211,32)" stroke-linejoin="round" d="M 8040,11063 L 8140,11263 8240,11063 8040,11063 Z"/>
 <path fill="rgb(255,211,32)" stroke="none" d="M 8206,4648 L 8306,4848 8406,4648 8206,4648 Z"/>
 <path fill="none" stroke="rgb(255,211,32)" stroke-linejoin="round" d="M 8206,4648 L 8306,4848 8406,4648 8206,4648 Z"/>
 <path fill="rgb(255,211,32)" stroke="none" d="M 8372,4648 L 8472,4848 8572,4648 8372,4648 Z"/>
 <path fill="none" stroke="rgb(255,211,32)" stroke-linejoin="round" d="M 8372,4648 L 8472,4848 8572,4648 8372,4648 Z"/>
 <path fill="rgb(255,211,32)" stroke="none" d="M 8537,7213 L 8637,7413 8737,7213 8537,7213 Z"/>
 <path fill="none" stroke="rgb(255,211,32)" stroke-linejoin="round" d="M 8537,7213 L 8637,7413 8737,7213 8537,7213 Z"/>
 <path fill="rgb(255,211,32)" stroke="none" d="M 8703,8496 L 8803,8696 8903,8496 8703,8496 Z"/>
 <path fill="none" stroke="rgb(255,211,32)" stroke-linejoin="round" d="M 8703,8496 L 8803,8696 8903,8496 8703,8496 Z"/>
 <path fill="rgb(255,211,32)" stroke="none" d="M 8868,3365 L 8968,3565 9068,3365 8868,3365 Z"/>
 <path fill="none" stroke="rgb(255,211,32)" stroke-linejoin="round" d="M 8868,3365 L 8968,3565 9068,3365 8868,3365 Z"/>
 <path fill="rgb(255,211,32)" stroke="none" d="M 9034,8496 L 9134,8696 9234,8496 9034,8496 Z"/>
 <path fill="none" stroke="rgb(255,211,32)" stroke-linejoin="round" d="M 9034,8496 L 9134,8696 9234,8496 9034,8496 Z"/>
 <path fill="rgb(255,211,32)" stroke="none" d="M 9365,5931 L 9465,6130 9565,5931 9365,5931 Z"/>
 <path fill="none" stroke="rgb(255,211,32)" stroke-linejoin="round" d="M 9365,5931 L 9465,6130 9565,5931 9365,5931 Z"/>
 <path fill="rgb(255,211,32)" stroke="none" d="M 9531,9779 L 9631,9979 9731,9779 9531,9779 Z"/>
 <path fill="none" stroke="rgb(255,211,32)" stroke-linejoin="round" d="M 9531,9779 L 9631,9979 9731,9779 9531,9779 Z"/>
 <path fill="rgb(255,211,32)" stroke="none" d="M 9696,11063 L 9796,11263 9896,11063 9696,11063 Z"/>
 <path fill="none" stroke="rgb(255,211,32)" stroke-linejoin="round" d="M 9696,11063 L 9796,11263 9896,11063 9696,11063 Z"/>
 <path fill="rgb(255,211,32)" stroke="none" d="M 9862,9779 L 9962,9979 10062,9779 9862,9779 Z"/>
 <path fill="none" stroke="rgb(255,211,32)" stroke-linejoin="round" d="M 9862,9779 L 9962,9979 10062,9779 9862,9779 Z"/>
 <path fill="rgb(255,211,32)" stroke="none" d="M 10028,11063 L 10128,11263 10228,11063 10028,11063 Z"/>
 <path fill="none" stroke="rgb(255,211,32)" stroke-linejoin="round" d="M 10028,11063 L 10128,11263 10228,11063 10028,11063 Z"/>
 <path fill="rgb(255,211,32)" stroke="none" d="M 10193,5931 L 10293,6130 10393,5931 10193,5931 Z"/>
 <path fill="none" stroke="rgb(255,211,32)" stroke-linejoin="round" d="M 10193,5931 L 10293,6130 10393,5931 10193,5931 Z"/>
 <path fill="rgb(255,211,32)" stroke="none" d="M 10359,11063 L 10459,11263 10559,11063 10359,11063 Z"/>
 <path fill="none" stroke="rgb(255,211,32)" stroke-linejoin="round" d="M 10359,11063 L 10459,11263 10559,11063 10359,11063 Z"/>
 <path fill="rgb(255,211,32)" stroke="none" d="M 10524,9779 L 10624,9979 10724,9779 10524,9779 Z"/>
 <path fill="none" stroke="rgb(255,211,32)" stroke-linejoin="round" d="M 10524,9779 L 10624,9979 10724,9779 10524,9779 Z"/>
 <path fill="rgb(255,211,32)" stroke="none" d="M 10690,8496 L 10790,8696 10890,8496 10690,8496 Z"/>
 <path fill="none" stroke="rgb(255,211,32)" stroke-linejoin="round" d="M 10690,8496 L 10790,8696 10890,8496 10690,8496 Z"/>
 <path fill="rgb(255,211,32)" stroke="none" d="M 10856,7213 L 10956,7413 11056,7213 10856,7213 Z"/>
 <path fill="none" stroke="rgb(255,211,32)" stroke-linejoin="round" d="M 10856,7213 L 10956,7413 11056,7213 10856,7213 Z"/>
 <path fill="rgb(255,211,32)" stroke="none" d="M 11021,8496 L 11121,8696 11221,8496 11021,8496 Z"/>
 <path fill="none" stroke="rgb(255,211,32)" stroke-linejoin="round" d="M 11021,8496 L 11121,8696 11221,8496 11021,8496 Z"/>
 <path fill="rgb(255,211,32)" stroke="none" d="M 11187,7213 L 11287,7413 11387,7213 11187,7213 Z"/>
 <path fill="none" stroke="rgb(255,211,32)" stroke-linejoin="round" d="M 11187,7213 L 11287,7413 11387,7213 11187,7213 Z"/>
 <path fill="rgb(255,211,32)" stroke="none" d="M 11352,8496 L 11452,8696 11552,8496 11352,8496 Z"/>
 <path fill="none" stroke="rgb(255,211,32)" stroke-linejoin="round" d="M 11352,8496 L 11452,8696 11552,8496 11352,8496 Z"/>
 <path fill="rgb(255,211,32)" stroke="none" d="M 11518,11063 L 11618,11263 11718,11063 11518,11063 Z"/>
 <path fill="none" stroke="rgb(255,211,32)" stroke-linejoin="round" d="M 11518,11063 L 11618,11263 11718,11063 11518,11063 Z"/>
 <path fill="rgb(255,211,32)" stroke="none" d="M 11684,7213 L 11784,7413 11884,7213 11684,7213 Z"/>
 <path fill="none" stroke="rgb(255,211,32)" stroke-linejoin="round" d="M 11684,7213 L 11784,7413 11884,7213 11684,7213 Z"/>
 <path fill="rgb(255,211,32)" stroke="none" d="M 11849,11063 L 11949,11263 12049,11063 11849,11063 Z"/>
 <path fill="none" stroke="rgb(255,211,32)" stroke-linejoin="round" d="M 11849,11063 L 11949,11263 12049,11063 11849,11063 Z"/>
 <path fill="rgb(255,211,32)" stroke="none" d="M 12015,9779 L 12115,9979 12215,9779 12015,9779 Z"/>
 <path fill="none" stroke="rgb(255,211,32)" stroke-linejoin="round" d="M 12015,9779 L 12115,9979 12215,9779 12015,9779 Z"/>
 <path fill="rgb(255,211,32)" stroke="none" d="M 12180,11063 L 12280,11263 12380,11063 12180,11063 Z"/>
 <path fill="none" stroke="rgb(255,211,32)" stroke-linejoin="round" d="M 12180,11063 L 12280,11263 12380,11063 12180,11063 Z"/>
 <path fill="rgb(255,211,32)" stroke="none" d="M 12346,9779 L 12446,9979 12546,9779 12346,9779 Z"/>
 <path fill="none" stroke="rgb(255,211,32)" stroke-linejoin="round" d="M 12346,9779 L 12446,9979 12546,9779 12346,9779 Z"/>
 <path fill="rgb(255,211,32)" stroke="none" d="M 12512,8496 L 12612,8696 12712,8496 12512,8496 Z"/>
 <path fill="none" stroke="rgb(255,211,32)" stroke-linejoin="round" d="M 12512,8496 L 12612,8696 12712,8496 12512,8496 Z"/>
 <path fill="rgb(255,211,32)" stroke="none" d="M 12677,11063 L 12777,11263 12877,11063 12677,11063 Z"/>
 <path fill="none" stroke="rgb(255,211,32)" stroke-linejoin="round" d="M 12677,11063 L 12777,11263 12877,11063 12677,11063 Z"/>
 <path fill="rgb(255,211,32)" stroke="none" d="M 12843,5931 L 12943,6130 13043,5931 12843,5931 Z"/>
 <path fill="none" stroke="rgb(255,211,32)" stroke-linejoin="round" d="M 12843,5931 L 12943,6130 13043,5931 12843,5931 Z"/>
 <path fill="rgb(255,211,32)" stroke="none" d="M 13008,11063 L 13108,11263 13208,11063 13008,11063 Z"/>
 <path fill="none" stroke="rgb(255,211,32)" stroke-linejoin="round" d="M 13008,11063 L 13108,11263 13208,11063 13008,11063 Z"/>
 <path fill="rgb(255,211,32)" stroke="none" d="M 13174,11063 L 13274,11263 13374,11063 13174,11063 Z"/>
 <path fill="none" stroke="rgb(255,211,32)" stroke-linejoin="round" d="M 13174,11063 L 13274,11263 13374,11063 13174,11063 Z"/>
 <path fill="rgb(255,211,32)" stroke="none" d="M 13340,8496 L 13440,8696 13540,8496 13340,8496 Z"/>
 <path fill="none" stroke="rgb(255,211,32)" stroke-linejoin="round" d="M 13340,8496 L 13440,8696 13540,8496 13340,8496 Z"/>
 <path fill="rgb(255,211,32)" stroke="none" d="M 13505,8496 L 13605,8696 13705,8496 13505,8496 Z"/>
 <path fill="none" stroke="rgb(255,211,32)" stroke-linejoin="round" d="M 13505,8496 L 13605,8696 13705,8496 13505,8496 Z"/>
 <path fill="rgb(255,211,32)" stroke="none" d="M 13671,11063 L 13771,11263 13871,11063 13671,11063 Z"/>
 <path fill="none" stroke="rgb(255,211,32)" stroke-linejoin="round" d="M 13671,11063 L 13771,11263 13871,11063 13671,11063 Z"/>
 <path fill="rgb(255,211,32)" stroke="none" d="M 13836,9779 L 13936,9979 14036,9779 13836,9779 Z"/>
 <path fill="none" stroke="rgb(255,211,32)" stroke-linejoin="round" d="M 13836,9779 L 13936,9979 14036,9779 13836,9779 Z"/>
 <path fill="rgb(255,211,32)" stroke="none" d="M 14002,11063 L 14102,11263 14202,11063 14002,11063 Z"/>
 <path fill="none" stroke="rgb(255,211,32)" stroke-linejoin="round" d="M 14002,11063 L 14102,11263 14202,11063 14002,11063 Z"/>
 <path fill="rgb(255,211,32)" stroke="none" d="M 14168,11063 L 14268,11263 14368,11063 14168,11063 Z"/>
 <path fill="none" stroke="rgb(255,211,32)" stroke-linejoin="round" d="M 14168,11063 L 14268,11263 14368,11063 14168,11063 Z"/>
 <path fill="rgb(255,211,32)" stroke="none" d="M 14333,9779 L 14433,9979 14533,9779 14333,9779 Z"/>
 <path fill="none" stroke="rgb(255,211,32)" stroke-linejoin="round" d="M 14333,9779 L 14433,9979 14533,9779 14333,9779 Z"/>
 <path fill="none" stroke="rgb(87,157,28)" stroke-width="50" stroke-linejoin="round" d="M 4167,11102 L 4333,11163 4498,11102 4664,11102 4830,11041 4995,11041 5161,11102 5326,10799 5492,10738 5658,10557 5823,10738 5989,10435 6154,10496 6320,9951 6486,9648 6651,9405 6817,9224 6982,9042 7148,8800 7314,8557 7479,8194 7644,7951 7809,6861 7975,6437 8140,6800 8306,5892 8472,5711 8637,6073 8803,4256 8968,5953 9134,5711 9300,4983 9465,5286 9631,6012 9796,5650 9962,4317 10128,4620 10293,6376 10459,5832 10624,5832 10790,6073 10956,7406 11121,6740 11287,6315 11452,6194 11618,7588 11784,7345 11949,7406 12115,8436 12280,8436 12446,9163 12612,9830 12777,10011 12943,9951 13108,10496 13274,6012 13440,5892 13605,5165 13771,2984 13936,8436 14102,10860 14268,9284 14433,7709"/>
 <path fill="rgb(87,157,28)" stroke="none" d="M 4067,11202 L 4267,11202 4167,11002 4067,11202 Z"/>
 <path fill="none" stroke="rgb(87,157,28)" stroke-linejoin="round" d="M 4067,11202 L 4267,11202 4167,11002 4067,11202 Z"/>
 <path fill="rgb(87,157,28)" stroke="none" d="M 4233,11263 L 4433,11263 4333,11063 4233,11263 Z"/>
 <path fill="none" stroke="rgb(87,157,28)" stroke-linejoin="round" d="M 4233,11263 L 4433,11263 4333,11063 4233,11263 Z"/>
 <path fill="rgb(87,157,28)" stroke="none" d="M 4398,11202 L 4598,11202 4498,11002 4398,11202 Z"/>
 <path fill="none" stroke="rgb(87,157,28)" stroke-linejoin="round" d="M 4398,11202 L 4598,11202 4498,11002 4398,11202 Z"/>
 <path fill="rgb(87,157,28)" stroke="none" d="M 4564,11202 L 4764,11202 4664,11002 4564,11202 Z"/>
 <path fill="none" stroke="rgb(87,157,28)" stroke-linejoin="round" d="M 4564,11202 L 4764,11202 4664,11002 4564,11202 Z"/>
 <path fill="rgb(87,157,28)" stroke="none" d="M 4730,11141 L 4930,11141 4830,10941 4730,11141 Z"/>
 <path fill="none" stroke="rgb(87,157,28)" stroke-linejoin="round" d="M 4730,11141 L 4930,11141 4830,10941 4730,11141 Z"/>
 <path fill="rgb(87,157,28)" stroke="none" d="M 4895,11141 L 5095,11141 4995,10941 4895,11141 Z"/>
 <path fill="none" stroke="rgb(87,157,28)" stroke-linejoin="round" d="M 4895,11141 L 5095,11141 4995,10941 4895,11141 Z"/>
 <path fill="rgb(87,157,28)" stroke="none" d="M 5061,11202 L 5261,11202 5161,11002 5061,11202 Z"/>
 <path fill="none" stroke="rgb(87,157,28)" stroke-linejoin="round" d="M 5061,11202 L 5261,11202 5161,11002 5061,11202 Z"/>
 <path fill="rgb(87,157,28)" stroke="none" d="M 5226,10899 L 5426,10899 5326,10699 5226,10899 Z"/>
 <path fill="none" stroke="rgb(87,157,28)" stroke-linejoin="round" d="M 5226,10899 L 5426,10899 5326,10699 5226,10899 Z"/>
 <path fill="rgb(87,157,28)" stroke="none" d="M 5392,10838 L 5592,10838 5492,10638 5392,10838 Z"/>
 <path fill="none" stroke="rgb(87,157,28)" stroke-linejoin="round" d="M 5392,10838 L 5592,10838 5492,10638 5392,10838 Z"/>
 <path fill="rgb(87,157,28)" stroke="none" d="M 5558,10657 L 5758,10657 5658,10457 5558,10657 Z"/>
 <path fill="none" stroke="rgb(87,157,28)" stroke-linejoin="round" d="M 5558,10657 L 5758,10657 5658,10457 5558,10657 Z"/>
 <path fill="rgb(87,157,28)" stroke="none" d="M 5723,10838 L 5923,10838 5823,10638 5723,10838 Z"/>
 <path fill="none" stroke="rgb(87,157,28)" stroke-linejoin="round" d="M 5723,10838 L 5923,10838 5823,10638 5723,10838 Z"/>
 <path fill="rgb(87,157,28)" stroke="none" d="M 5889,10535 L 6089,10535 5989,10335 5889,10535 Z"/>
 <path fill="none" stroke="rgb(87,157,28)" stroke-linejoin="round" d="M 5889,10535 L 6089,10535 5989,10335 5889,10535 Z"/>
 <path fill="rgb(87,157,28)" stroke="none" d="M 6054,10596 L 6254,10596 6154,10396 6054,10596 Z"/>
 <path fill="none" stroke="rgb(87,157,28)" stroke-linejoin="round" d="M 6054,10596 L 6254,10596 6154,10396 6054,10596 Z"/>
 <path fill="rgb(87,157,28)" stroke="none" d="M 6220,10051 L 6420,10051 6320,9851 6220,10051 Z"/>
 <path fill="none" stroke="rgb(87,157,28)" stroke-linejoin="round" d="M 6220,10051 L 6420,10051 6320,9851 6220,10051 Z"/>
 <path fill="rgb(87,157,28)" stroke="none" d="M 6386,9748 L 6586,9748 6486,9548 6386,9748 Z"/>
 <path fill="none" stroke="rgb(87,157,28)" stroke-linejoin="round" d="M 6386,9748 L 6586,9748 6486,9548 6386,9748 Z"/>
 <path fill="rgb(87,157,28)" stroke="none" d="M 6551,9505 L 6751,9505 6651,9305 6551,9505 Z"/>
 <path fill="none" stroke="rgb(87,157,28)" stroke-linejoin="round" d="M 6551,9505 L 6751,9505 6651,9305 6551,9505 Z"/>
 <path fill="rgb(87,157,28)" stroke="none" d="M 6717,9324 L 6917,9324 6817,9124 6717,9324 Z"/>
 <path fill="none" stroke="rgb(87,157,28)" stroke-linejoin="round" d="M 6717,9324 L 6917,9324 6817,9124 6717,9324 Z"/>
 <path fill="rgb(87,157,28)" stroke="none" d="M 6882,9142 L 7082,9142 6982,8942 6882,9142 Z"/>
 <path fill="none" stroke="rgb(87,157,28)" stroke-linejoin="round" d="M 6882,9142 L 7082,9142 6982,8942 6882,9142 Z"/>
 <path fill="rgb(87,157,28)" stroke="none" d="M 7048,8900 L 7248,8900 7148,8700 7048,8900 Z"/>
 <path fill="none" stroke="rgb(87,157,28)" stroke-linejoin="round" d="M 7048,8900 L 7248,8900 7148,8700 7048,8900 Z"/>
 <path fill="rgb(87,157,28)" stroke="none" d="M 7214,8657 L 7414,8657 7314,8457 7214,8657 Z"/>
 <path fill="none" stroke="rgb(87,157,28)" stroke-linejoin="round" d="M 7214,8657 L 7414,8657 7314,8457 7214,8657 Z"/>
 <path fill="rgb(87,157,28)" stroke="none" d="M 7379,8294 L 7578,8294 7479,8094 7379,8294 Z"/>
 <path fill="none" stroke="rgb(87,157,28)" stroke-linejoin="round" d="M 7379,8294 L 7578,8294 7479,8094 7379,8294 Z"/>
 <path fill="rgb(87,157,28)" stroke="none" d="M 7544,8051 L 7744,8051 7644,7851 7544,8051 Z"/>
 <path fill="none" stroke="rgb(87,157,28)" stroke-linejoin="round" d="M 7544,8051 L 7744,8051 7644,7851 7544,8051 Z"/>
 <path fill="rgb(87,157,28)" stroke="none" d="M 7709,6961 L 7909,6961 7809,6761 7709,6961 Z"/>
 <path fill="none" stroke="rgb(87,157,28)" stroke-linejoin="round" d="M 7709,6961 L 7909,6961 7809,6761 7709,6961 Z"/>
 <path fill="rgb(87,157,28)" stroke="none" d="M 7875,6537 L 8075,6537 7975,6337 7875,6537 Z"/>
 <path fill="none" stroke="rgb(87,157,28)" stroke-linejoin="round" d="M 7875,6537 L 8075,6537 7975,6337 7875,6537 Z"/>
 <path fill="rgb(87,157,28)" stroke="none" d="M 8040,6900 L 8240,6900 8140,6700 8040,6900 Z"/>
 <path fill="none" stroke="rgb(87,157,28)" stroke-linejoin="round" d="M 8040,6900 L 8240,6900 8140,6700 8040,6900 Z"/>
 <path fill="rgb(87,157,28)" stroke="none" d="M 8206,5992 L 8406,5992 8306,5792 8206,5992 Z"/>
 <path fill="none" stroke="rgb(87,157,28)" stroke-linejoin="round" d="M 8206,5992 L 8406,5992 8306,5792 8206,5992 Z"/>
 <path fill="rgb(87,157,28)" stroke="none" d="M 8372,5811 L 8572,5811 8472,5611 8372,5811 Z"/>
 <path fill="none" stroke="rgb(87,157,28)" stroke-linejoin="round" d="M 8372,5811 L 8572,5811 8472,5611 8372,5811 Z"/>
 <path fill="rgb(87,157,28)" stroke="none" d="M 8537,6173 L 8737,6173 8637,5974 8537,6173 Z"/>
 <path fill="none" stroke="rgb(87,157,28)" stroke-linejoin="round" d="M 8537,6173 L 8737,6173 8637,5974 8537,6173 Z"/>
 <path fill="rgb(87,157,28)" stroke="none" d="M 8703,4356 L 8903,4356 8803,4156 8703,4356 Z"/>
 <path fill="none" stroke="rgb(87,157,28)" stroke-linejoin="round" d="M 8703,4356 L 8903,4356 8803,4156 8703,4356 Z"/>
 <path fill="rgb(87,157,28)" stroke="none" d="M 8868,6052 L 9068,6052 8968,5853 8868,6052 Z"/>
 <path fill="none" stroke="rgb(87,157,28)" stroke-linejoin="round" d="M 8868,6052 L 9068,6052 8968,5853 8868,6052 Z"/>
 <path fill="rgb(87,157,28)" stroke="none" d="M 9034,5811 L 9234,5811 9134,5611 9034,5811 Z"/>
 <path fill="none" stroke="rgb(87,157,28)" stroke-linejoin="round" d="M 9034,5811 L 9234,5811 9134,5611 9034,5811 Z"/>
 <path fill="rgb(87,157,28)" stroke="none" d="M 9200,5083 L 9400,5083 9300,4883 9200,5083 Z"/>
 <path fill="none" stroke="rgb(87,157,28)" stroke-linejoin="round" d="M 9200,5083 L 9400,5083 9300,4883 9200,5083 Z"/>
 <path fill="rgb(87,157,28)" stroke="none" d="M 9365,5386 L 9565,5386 9465,5186 9365,5386 Z"/>
 <path fill="none" stroke="rgb(87,157,28)" stroke-linejoin="round" d="M 9365,5386 L 9565,5386 9465,5186 9365,5386 Z"/>
 <path fill="rgb(87,157,28)" stroke="none" d="M 9531,6112 L 9731,6112 9631,5913 9531,6112 Z"/>
 <path fill="none" stroke="rgb(87,157,28)" stroke-linejoin="round" d="M 9531,6112 L 9731,6112 9631,5913 9531,6112 Z"/>
 <path fill="rgb(87,157,28)" stroke="none" d="M 9696,5750 L 9896,5750 9796,5550 9696,5750 Z"/>
 <path fill="none" stroke="rgb(87,157,28)" stroke-linejoin="round" d="M 9696,5750 L 9896,5750 9796,5550 9696,5750 Z"/>
 <path fill="rgb(87,157,28)" stroke="none" d="M 9862,4417 L 10062,4417 9962,4217 9862,4417 Z"/>
 <path fill="none" stroke="rgb(87,157,28)" stroke-linejoin="round" d="M 9862,4417 L 10062,4417 9962,4217 9862,4417 Z"/>
 <path fill="rgb(87,157,28)" stroke="none" d="M 10028,4720 L 10228,4720 10128,4520 10028,4720 Z"/>
 <path fill="none" stroke="rgb(87,157,28)" stroke-linejoin="round" d="M 10028,4720 L 10228,4720 10128,4520 10028,4720 Z"/>
 <path fill="rgb(87,157,28)" stroke="none" d="M 10193,6476 L 10393,6476 10293,6276 10193,6476 Z"/>
 <path fill="none" stroke="rgb(87,157,28)" stroke-linejoin="round" d="M 10193,6476 L 10393,6476 10293,6276 10193,6476 Z"/>
 <path fill="rgb(87,157,28)" stroke="none" d="M 10359,5932 L 10559,5932 10459,5732 10359,5932 Z"/>
 <path fill="none" stroke="rgb(87,157,28)" stroke-linejoin="round" d="M 10359,5932 L 10559,5932 10459,5732 10359,5932 Z"/>
 <path fill="rgb(87,157,28)" stroke="none" d="M 10524,5932 L 10724,5932 10624,5732 10524,5932 Z"/>
 <path fill="none" stroke="rgb(87,157,28)" stroke-linejoin="round" d="M 10524,5932 L 10724,5932 10624,5732 10524,5932 Z"/>
 <path fill="rgb(87,157,28)" stroke="none" d="M 10690,6173 L 10890,6173 10790,5974 10690,6173 Z"/>
 <path fill="none" stroke="rgb(87,157,28)" stroke-linejoin="round" d="M 10690,6173 L 10890,6173 10790,5974 10690,6173 Z"/>
 <path fill="rgb(87,157,28)" stroke="none" d="M 10856,7506 L 11056,7506 10956,7306 10856,7506 Z"/>
 <path fill="none" stroke="rgb(87,157,28)" stroke-linejoin="round" d="M 10856,7506 L 11056,7506 10956,7306 10856,7506 Z"/>
 <path fill="rgb(87,157,28)" stroke="none" d="M 11021,6840 L 11221,6840 11121,6640 11021,6840 Z"/>
 <path fill="none" stroke="rgb(87,157,28)" stroke-linejoin="round" d="M 11021,6840 L 11221,6840 11121,6640 11021,6840 Z"/>
 <path fill="rgb(87,157,28)" stroke="none" d="M 11187,6415 L 11387,6415 11287,6215 11187,6415 Z"/>
 <path fill="none" stroke="rgb(87,157,28)" stroke-linejoin="round" d="M 11187,6415 L 11387,6415 11287,6215 11187,6415 Z"/>
 <path fill="rgb(87,157,28)" stroke="none" d="M 11352,6294 L 11552,6294 11452,6094 11352,6294 Z"/>
 <path fill="none" stroke="rgb(87,157,28)" stroke-linejoin="round" d="M 11352,6294 L 11552,6294 11452,6094 11352,6294 Z"/>
 <path fill="rgb(87,157,28)" stroke="none" d="M 11518,7688 L 11718,7688 11618,7488 11518,7688 Z"/>
 <path fill="none" stroke="rgb(87,157,28)" stroke-linejoin="round" d="M 11518,7688 L 11718,7688 11618,7488 11518,7688 Z"/>
 <path fill="rgb(87,157,28)" stroke="none" d="M 11684,7445 L 11884,7445 11784,7245 11684,7445 Z"/>
 <path fill="none" stroke="rgb(87,157,28)" stroke-linejoin="round" d="M 11684,7445 L 11884,7445 11784,7245 11684,7445 Z"/>
 <path fill="rgb(87,157,28)" stroke="none" d="M 11849,7506 L 12049,7506 11949,7306 11849,7506 Z"/>
 <path fill="none" stroke="rgb(87,157,28)" stroke-linejoin="round" d="M 11849,7506 L 12049,7506 11949,7306 11849,7506 Z"/>
 <path fill="rgb(87,157,28)" stroke="none" d="M 12015,8536 L 12215,8536 12115,8336 12015,8536 Z"/>
 <path fill="none" stroke="rgb(87,157,28)" stroke-linejoin="round" d="M 12015,8536 L 12215,8536 12115,8336 12015,8536 Z"/>
 <path fill="rgb(87,157,28)" stroke="none" d="M 12180,8536 L 12380,8536 12280,8336 12180,8536 Z"/>
 <path fill="none" stroke="rgb(87,157,28)" stroke-linejoin="round" d="M 12180,8536 L 12380,8536 12280,8336 12180,8536 Z"/>
 <path fill="rgb(87,157,28)" stroke="none" d="M 12346,9263 L 12546,9263 12446,9063 12346,9263 Z"/>
 <path fill="none" stroke="rgb(87,157,28)" stroke-linejoin="round" d="M 12346,9263 L 12546,9263 12446,9063 12346,9263 Z"/>
 <path fill="rgb(87,157,28)" stroke="none" d="M 12512,9930 L 12712,9930 12612,9730 12512,9930 Z"/>
 <path fill="none" stroke="rgb(87,157,28)" stroke-linejoin="round" d="M 12512,9930 L 12712,9930 12612,9730 12512,9930 Z"/>
 <path fill="rgb(87,157,28)" stroke="none" d="M 12677,10111 L 12877,10111 12777,9911 12677,10111 Z"/>
 <path fill="none" stroke="rgb(87,157,28)" stroke-linejoin="round" d="M 12677,10111 L 12877,10111 12777,9911 12677,10111 Z"/>
 <path fill="rgb(87,157,28)" stroke="none" d="M 12843,10051 L 13043,10051 12943,9851 12843,10051 Z"/>
 <path fill="none" stroke="rgb(87,157,28)" stroke-linejoin="round" d="M 12843,10051 L 13043,10051 12943,9851 12843,10051 Z"/>
 <path fill="rgb(87,157,28)" stroke="none" d="M 13008,10596 L 13208,10596 13108,10396 13008,10596 Z"/>
 <path fill="none" stroke="rgb(87,157,28)" stroke-linejoin="round" d="M 13008,10596 L 13208,10596 13108,10396 13008,10596 Z"/>
 <path fill="rgb(87,157,28)" stroke="none" d="M 13174,6112 L 13374,6112 13274,5913 13174,6112 Z"/>
 <path fill="none" stroke="rgb(87,157,28)" stroke-linejoin="round" d="M 13174,6112 L 13374,6112 13274,5913 13174,6112 Z"/>
 <path fill="rgb(87,157,28)" stroke="none" d="M 13340,5992 L 13540,5992 13440,5792 13340,5992 Z"/>
 <path fill="none" stroke="rgb(87,157,28)" stroke-linejoin="round" d="M 13340,5992 L 13540,5992 13440,5792 13340,5992 Z"/>
 <path fill="rgb(87,157,28)" stroke="none" d="M 13505,5265 L 13705,5265 13605,5065 13505,5265 Z"/>
 <path fill="none" stroke="rgb(87,157,28)" stroke-linejoin="round" d="M 13505,5265 L 13705,5265 13605,5065 13505,5265 Z"/>
 <path fill="rgb(87,157,28)" stroke="none" d="M 13671,3084 L 13871,3084 13771,2884 13671,3084 Z"/>
 <path fill="none" stroke="rgb(87,157,28)" stroke-linejoin="round" d="M 13671,3084 L 13871,3084 13771,2884 13671,3084 Z"/>
 <path fill="rgb(87,157,28)" stroke="none" d="M 13836,8536 L 14036,8536 13936,8336 13836,8536 Z"/>
 <path fill="none" stroke="rgb(87,157,28)" stroke-linejoin="round" d="M 13836,8536 L 14036,8536 13936,8336 13836,8536 Z"/>
 <path fill="rgb(87,157,28)" stroke="none" d="M 14002,10960 L 14202,10960 14102,10760 14002,10960 Z"/>
 <path fill="none" stroke="rgb(87,157,28)" stroke-linejoin="round" d="M 14002,10960 L 14202,10960 14102,10760 14002,10960 Z"/>
 <path fill="rgb(87,157,28)" stroke="none" d="M 14168,9384 L 14368,9384 14268,9184 14168,9384 Z"/>
 <path fill="none" stroke="rgb(87,157,28)" stroke-linejoin="round" d="M 14168,9384 L 14368,9384 14268,9184 14168,9384 Z"/>
 <path fill="rgb(87,157,28)" stroke="none" d="M 14333,7809 L 14533,7809 14433,7609 14333,7809 Z"/>
 <path fill="none" stroke="rgb(87,157,28)" stroke-linejoin="round" d="M 14333,7809 L 14533,7809 14433,7609 14333,7809 Z"/>
 <path fill="none" stroke="rgb(126,0,33)" stroke-width="50" stroke-linejoin="round" d="M 3174,11081 L 3339,11163 3505,11163 3670,11081 3836,11163 4002,11000 4167,11081 4333,10837 4498,11081 4664,10918 4830,10511 4995,10429 5161,10592 5326,10429 5492,10429 5658,9288 5823,9533 5989,9940 6154,8718 6320,9370 6486,8311 6651,7496 6817,8148 6982,6925 7148,7577 7314,6192 7479,5867 7644,6029 7809,6192 7975,6192 8140,5786 8306,6925 8472,6355 8637,6274 8803,5623 8968,7007 9134,7088 9300,8066 9465,6600 9631,8718 9796,8066 9962,6844 10128,7496 10293,7414 10459,7740 10624,9207 10790,7740 10956,7822 11121,8963 11287,8718 11452,8800 11618,9207 11784,9777 11949,9370 12115,9044 12280,10429 12446,9533 12612,10185 12777,10266 12943,10429 13108,10511 13274,10185 13440,10511 13605,10674 13771,10022 13936,10511 14102,10429 14268,10511 14433,10511 14599,10918"/>
 <path fill="rgb(126,0,33)" stroke="none" d="M 3074,10981 L 3074,11181 3274,11081 3074,10981 Z"/>
 <path fill="none" stroke="rgb(126,0,33)" stroke-linejoin="round" d="M 3074,10981 L 3074,11181 3274,11081 3074,10981 Z"/>
 <path fill="rgb(126,0,33)" stroke="none" d="M 3239,11063 L 3239,11263 3439,11163 3239,11063 Z"/>
 <path fill="none" stroke="rgb(126,0,33)" stroke-linejoin="round" d="M 3239,11063 L 3239,11263 3439,11163 3239,11063 Z"/>
 <path fill="rgb(126,0,33)" stroke="none" d="M 3405,11063 L 3405,11263 3605,11163 3405,11063 Z"/>
 <path fill="none" stroke="rgb(126,0,33)" stroke-linejoin="round" d="M 3405,11063 L 3405,11263 3605,11163 3405,11063 Z"/>
 <path fill="rgb(126,0,33)" stroke="none" d="M 3570,10981 L 3570,11181 3770,11081 3570,10981 Z"/>
 <path fill="none" stroke="rgb(126,0,33)" stroke-linejoin="round" d="M 3570,10981 L 3570,11181 3770,11081 3570,10981 Z"/>
 <path fill="rgb(126,0,33)" stroke="none" d="M 3736,11063 L 3736,11263 3936,11163 3736,11063 Z"/>
 <path fill="none" stroke="rgb(126,0,33)" stroke-linejoin="round" d="M 3736,11063 L 3736,11263 3936,11163 3736,11063 Z"/>
 <path fill="rgb(126,0,33)" stroke="none" d="M 3902,10900 L 3902,11100 4102,11000 3902,10900 Z"/>
 <path fill="none" stroke="rgb(126,0,33)" stroke-linejoin="round" d="M 3902,10900 L 3902,11100 4102,11000 3902,10900 Z"/>
 <path fill="rgb(126,0,33)" stroke="none" d="M 4067,10981 L 4067,11181 4267,11081 4067,10981 Z"/>
 <path fill="none" stroke="rgb(126,0,33)" stroke-linejoin="round" d="M 4067,10981 L 4067,11181 4267,11081 4067,10981 Z"/>
 <path fill="rgb(126,0,33)" stroke="none" d="M 4233,10737 L 4233,10937 4433,10837 4233,10737 Z"/>
 <path fill="none" stroke="rgb(126,0,33)" stroke-linejoin="round" d="M 4233,10737 L 4233,10937 4433,10837 4233,10737 Z"/>
 <path fill="rgb(126,0,33)" stroke="none" d="M 4398,10981 L 4398,11181 4598,11081 4398,10981 Z"/>
 <path fill="none" stroke="rgb(126,0,33)" stroke-linejoin="round" d="M 4398,10981 L 4398,11181 4598,11081 4398,10981 Z"/>
 <path fill="rgb(126,0,33)" stroke="none" d="M 4564,10818 L 4564,11018 4764,10918 4564,10818 Z"/>
 <path fill="none" stroke="rgb(126,0,33)" stroke-linejoin="round" d="M 4564,10818 L 4564,11018 4764,10918 4564,10818 Z"/>
 <path fill="rgb(126,0,33)" stroke="none" d="M 4730,10411 L 4730,10611 4930,10511 4730,10411 Z"/>
 <path fill="none" stroke="rgb(126,0,33)" stroke-linejoin="round" d="M 4730,10411 L 4730,10611 4930,10511 4730,10411 Z"/>
 <path fill="rgb(126,0,33)" stroke="none" d="M 4895,10329 L 4895,10529 5095,10429 4895,10329 Z"/>
 <path fill="none" stroke="rgb(126,0,33)" stroke-linejoin="round" d="M 4895,10329 L 4895,10529 5095,10429 4895,10329 Z"/>
 <path fill="rgb(126,0,33)" stroke="none" d="M 5061,10492 L 5061,10692 5261,10592 5061,10492 Z"/>
 <path fill="none" stroke="rgb(126,0,33)" stroke-linejoin="round" d="M 5061,10492 L 5061,10692 5261,10592 5061,10492 Z"/>
 <path fill="rgb(126,0,33)" stroke="none" d="M 5226,10329 L 5226,10529 5426,10429 5226,10329 Z"/>
 <path fill="none" stroke="rgb(126,0,33)" stroke-linejoin="round" d="M 5226,10329 L 5226,10529 5426,10429 5226,10329 Z"/>
 <path fill="rgb(126,0,33)" stroke="none" d="M 5392,10329 L 5392,10529 5592,10429 5392,10329 Z"/>
 <path fill="none" stroke="rgb(126,0,33)" stroke-linejoin="round" d="M 5392,10329 L 5392,10529 5592,10429 5392,10329 Z"/>
 <path fill="rgb(126,0,33)" stroke="none" d="M 5558,9188 L 5558,9388 5758,9288 5558,9188 Z"/>
 <path fill="none" stroke="rgb(126,0,33)" stroke-linejoin="round" d="M 5558,9188 L 5558,9388 5758,9288 5558,9188 Z"/>
 <path fill="rgb(126,0,33)" stroke="none" d="M 5723,9433 L 5723,9633 5923,9533 5723,9433 Z"/>
 <path fill="none" stroke="rgb(126,0,33)" stroke-linejoin="round" d="M 5723,9433 L 5723,9633 5923,9533 5723,9433 Z"/>
 <path fill="rgb(126,0,33)" stroke="none" d="M 5889,9840 L 5889,10040 6089,9940 5889,9840 Z"/>
 <path fill="none" stroke="rgb(126,0,33)" stroke-linejoin="round" d="M 5889,9840 L 5889,10040 6089,9940 5889,9840 Z"/>
 <path fill="rgb(126,0,33)" stroke="none" d="M 6054,8618 L 6054,8818 6254,8718 6054,8618 Z"/>
 <path fill="none" stroke="rgb(126,0,33)" stroke-linejoin="round" d="M 6054,8618 L 6054,8818 6254,8718 6054,8618 Z"/>
 <path fill="rgb(126,0,33)" stroke="none" d="M 6220,9270 L 6220,9470 6420,9370 6220,9270 Z"/>
 <path fill="none" stroke="rgb(126,0,33)" stroke-linejoin="round" d="M 6220,9270 L 6220,9470 6420,9370 6220,9270 Z"/>
 <path fill="rgb(126,0,33)" stroke="none" d="M 6386,8211 L 6386,8411 6586,8311 6386,8211 Z"/>
 <path fill="none" stroke="rgb(126,0,33)" stroke-linejoin="round" d="M 6386,8211 L 6386,8411 6586,8311 6386,8211 Z"/>
 <path fill="rgb(126,0,33)" stroke="none" d="M 6551,7396 L 6551,7596 6751,7496 6551,7396 Z"/>
 <path fill="none" stroke="rgb(126,0,33)" stroke-linejoin="round" d="M 6551,7396 L 6551,7596 6751,7496 6551,7396 Z"/>
 <path fill="rgb(126,0,33)" stroke="none" d="M 6717,8048 L 6717,8248 6917,8148 6717,8048 Z"/>
 <path fill="none" stroke="rgb(126,0,33)" stroke-linejoin="round" d="M 6717,8048 L 6717,8248 6917,8148 6717,8048 Z"/>
 <path fill="rgb(126,0,33)" stroke="none" d="M 6882,6825 L 6882,7025 7082,6925 6882,6825 Z"/>
 <path fill="none" stroke="rgb(126,0,33)" stroke-linejoin="round" d="M 6882,6825 L 6882,7025 7082,6925 6882,6825 Z"/>
 <path fill="rgb(126,0,33)" stroke="none" d="M 7048,7477 L 7048,7677 7248,7577 7048,7477 Z"/>
 <path fill="none" stroke="rgb(126,0,33)" stroke-linejoin="round" d="M 7048,7477 L 7048,7677 7248,7577 7048,7477 Z"/>
 <path fill="rgb(126,0,33)" stroke="none" d="M 7214,6092 L 7214,6292 7414,6192 7214,6092 Z"/>
 <path fill="none" stroke="rgb(126,0,33)" stroke-linejoin="round" d="M 7214,6092 L 7214,6292 7414,6192 7214,6092 Z"/>
 <path fill="rgb(126,0,33)" stroke="none" d="M 7379,5767 L 7379,5967 7578,5867 7379,5767 Z"/>
 <path fill="none" stroke="rgb(126,0,33)" stroke-linejoin="round" d="M 7379,5767 L 7379,5967 7578,5867 7379,5767 Z"/>
 <path fill="rgb(126,0,33)" stroke="none" d="M 7544,5930 L 7544,6129 7744,6029 7544,5930 Z"/>
 <path fill="none" stroke="rgb(126,0,33)" stroke-linejoin="round" d="M 7544,5930 L 7544,6129 7744,6029 7544,5930 Z"/>
 <path fill="rgb(126,0,33)" stroke="none" d="M 7709,6092 L 7709,6292 7909,6192 7709,6092 Z"/>
 <path fill="none" stroke="rgb(126,0,33)" stroke-linejoin="round" d="M 7709,6092 L 7709,6292 7909,6192 7709,6092 Z"/>
 <path fill="rgb(126,0,33)" stroke="none" d="M 7875,6092 L 7875,6292 8075,6192 7875,6092 Z"/>
 <path fill="none" stroke="rgb(126,0,33)" stroke-linejoin="round" d="M 7875,6092 L 7875,6292 8075,6192 7875,6092 Z"/>
 <path fill="rgb(126,0,33)" stroke="none" d="M 8040,5686 L 8040,5886 8240,5786 8040,5686 Z"/>
 <path fill="none" stroke="rgb(126,0,33)" stroke-linejoin="round" d="M 8040,5686 L 8040,5886 8240,5786 8040,5686 Z"/>
 <path fill="rgb(126,0,33)" stroke="none" d="M 8206,6825 L 8206,7025 8406,6925 8206,6825 Z"/>
 <path fill="none" stroke="rgb(126,0,33)" stroke-linejoin="round" d="M 8206,6825 L 8206,7025 8406,6925 8206,6825 Z"/>
 <path fill="rgb(126,0,33)" stroke="none" d="M 8372,6255 L 8372,6455 8572,6355 8372,6255 Z"/>
 <path fill="none" stroke="rgb(126,0,33)" stroke-linejoin="round" d="M 8372,6255 L 8372,6455 8572,6355 8372,6255 Z"/>
 <path fill="rgb(126,0,33)" stroke="none" d="M 8537,6174 L 8537,6374 8737,6274 8537,6174 Z"/>
 <path fill="none" stroke="rgb(126,0,33)" stroke-linejoin="round" d="M 8537,6174 L 8537,6374 8737,6274 8537,6174 Z"/>
 <path fill="rgb(126,0,33)" stroke="none" d="M 8703,5523 L 8703,5723 8903,5623 8703,5523 Z"/>
 <path fill="none" stroke="rgb(126,0,33)" stroke-linejoin="round" d="M 8703,5523 L 8703,5723 8903,5623 8703,5523 Z"/>
 <path fill="rgb(126,0,33)" stroke="none" d="M 8868,6907 L 8868,7107 9068,7007 8868,6907 Z"/>
 <path fill="none" stroke="rgb(126,0,33)" stroke-linejoin="round" d="M 8868,6907 L 8868,7107 9068,7007 8868,6907 Z"/>
 <path fill="rgb(126,0,33)" stroke="none" d="M 9034,6988 L 9034,7188 9234,7088 9034,6988 Z"/>
 <path fill="none" stroke="rgb(126,0,33)" stroke-linejoin="round" d="M 9034,6988 L 9034,7188 9234,7088 9034,6988 Z"/>
 <path fill="rgb(126,0,33)" stroke="none" d="M 9200,7966 L 9200,8166 9400,8066 9200,7966 Z"/>
 <path fill="none" stroke="rgb(126,0,33)" stroke-linejoin="round" d="M 9200,7966 L 9200,8166 9400,8066 9200,7966 Z"/>
 <path fill="rgb(126,0,33)" stroke="none" d="M 9365,6500 L 9365,6700 9565,6600 9365,6500 Z"/>
 <path fill="none" stroke="rgb(126,0,33)" stroke-linejoin="round" d="M 9365,6500 L 9365,6700 9565,6600 9365,6500 Z"/>
 <path fill="rgb(126,0,33)" stroke="none" d="M 9531,8618 L 9531,8818 9731,8718 9531,8618 Z"/>
 <path fill="none" stroke="rgb(126,0,33)" stroke-linejoin="round" d="M 9531,8618 L 9531,8818 9731,8718 9531,8618 Z"/>
 <path fill="rgb(126,0,33)" stroke="none" d="M 9696,7966 L 9696,8166 9896,8066 9696,7966 Z"/>
 <path fill="none" stroke="rgb(126,0,33)" stroke-linejoin="round" d="M 9696,7966 L 9696,8166 9896,8066 9696,7966 Z"/>
 <path fill="rgb(126,0,33)" stroke="none" d="M 9862,6744 L 9862,6944 10062,6844 9862,6744 Z"/>
 <path fill="none" stroke="rgb(126,0,33)" stroke-linejoin="round" d="M 9862,6744 L 9862,6944 10062,6844 9862,6744 Z"/>
 <path fill="rgb(126,0,33)" stroke="none" d="M 10028,7396 L 10028,7596 10228,7496 10028,7396 Z"/>
 <path fill="none" stroke="rgb(126,0,33)" stroke-linejoin="round" d="M 10028,7396 L 10028,7596 10228,7496 10028,7396 Z"/>
 <path fill="rgb(126,0,33)" stroke="none" d="M 10193,7314 L 10193,7514 10393,7414 10193,7314 Z"/>
 <path fill="none" stroke="rgb(126,0,33)" stroke-linejoin="round" d="M 10193,7314 L 10193,7514 10393,7414 10193,7314 Z"/>
 <path fill="rgb(126,0,33)" stroke="none" d="M 10359,7640 L 10359,7840 10559,7740 10359,7640 Z"/>
 <path fill="none" stroke="rgb(126,0,33)" stroke-linejoin="round" d="M 10359,7640 L 10359,7840 10559,7740 10359,7640 Z"/>
 <path fill="rgb(126,0,33)" stroke="none" d="M 10524,9107 L 10524,9307 10724,9207 10524,9107 Z"/>
 <path fill="none" stroke="rgb(126,0,33)" stroke-linejoin="round" d="M 10524,9107 L 10524,9307 10724,9207 10524,9107 Z"/>
 <path fill="rgb(126,0,33)" stroke="none" d="M 10690,7640 L 10690,7840 10890,7740 10690,7640 Z"/>
 <path fill="none" stroke="rgb(126,0,33)" stroke-linejoin="round" d="M 10690,7640 L 10690,7840 10890,7740 10690,7640 Z"/>
 <path fill="rgb(126,0,33)" stroke="none" d="M 10856,7722 L 10856,7922 11056,7822 10856,7722 Z"/>
 <path fill="none" stroke="rgb(126,0,33)" stroke-linejoin="round" d="M 10856,7722 L 10856,7922 11056,7822 10856,7722 Z"/>
 <path fill="rgb(126,0,33)" stroke="none" d="M 11021,8863 L 11021,9063 11221,8963 11021,8863 Z"/>
 <path fill="none" stroke="rgb(126,0,33)" stroke-linejoin="round" d="M 11021,8863 L 11021,9063 11221,8963 11021,8863 Z"/>
 <path fill="rgb(126,0,33)" stroke="none" d="M 11187,8618 L 11187,8818 11387,8718 11187,8618 Z"/>
 <path fill="none" stroke="rgb(126,0,33)" stroke-linejoin="round" d="M 11187,8618 L 11187,8818 11387,8718 11187,8618 Z"/>
 <path fill="rgb(126,0,33)" stroke="none" d="M 11352,8700 L 11352,8900 11552,8800 11352,8700 Z"/>
 <path fill="none" stroke="rgb(126,0,33)" stroke-linejoin="round" d="M 11352,8700 L 11352,8900 11552,8800 11352,8700 Z"/>
 <path fill="rgb(126,0,33)" stroke="none" d="M 11518,9107 L 11518,9307 11718,9207 11518,9107 Z"/>
 <path fill="none" stroke="rgb(126,0,33)" stroke-linejoin="round" d="M 11518,9107 L 11518,9307 11718,9207 11518,9107 Z"/>
 <path fill="rgb(126,0,33)" stroke="none" d="M 11684,9677 L 11684,9877 11884,9777 11684,9677 Z"/>
 <path fill="none" stroke="rgb(126,0,33)" stroke-linejoin="round" d="M 11684,9677 L 11684,9877 11884,9777 11684,9677 Z"/>
 <path fill="rgb(126,0,33)" stroke="none" d="M 11849,9270 L 11849,9470 12049,9370 11849,9270 Z"/>
 <path fill="none" stroke="rgb(126,0,33)" stroke-linejoin="round" d="M 11849,9270 L 11849,9470 12049,9370 11849,9270 Z"/>
 <path fill="rgb(126,0,33)" stroke="none" d="M 12015,8944 L 12015,9144 12215,9044 12015,8944 Z"/>
 <path fill="none" stroke="rgb(126,0,33)" stroke-linejoin="round" d="M 12015,8944 L 12015,9144 12215,9044 12015,8944 Z"/>
 <path fill="rgb(126,0,33)" stroke="none" d="M 12180,10329 L 12180,10529 12380,10429 12180,10329 Z"/>
 <path fill="none" stroke="rgb(126,0,33)" stroke-linejoin="round" d="M 12180,10329 L 12180,10529 12380,10429 12180,10329 Z"/>
 <path fill="rgb(126,0,33)" stroke="none" d="M 12346,9433 L 12346,9633 12546,9533 12346,9433 Z"/>
 <path fill="none" stroke="rgb(126,0,33)" stroke-linejoin="round" d="M 12346,9433 L 12346,9633 12546,9533 12346,9433 Z"/>
 <path fill="rgb(126,0,33)" stroke="none" d="M 12512,10085 L 12512,10285 12712,10185 12512,10085 Z"/>
 <path fill="none" stroke="rgb(126,0,33)" stroke-linejoin="round" d="M 12512,10085 L 12512,10285 12712,10185 12512,10085 Z"/>
 <path fill="rgb(126,0,33)" stroke="none" d="M 12677,10166 L 12677,10366 12877,10266 12677,10166 Z"/>
 <path fill="none" stroke="rgb(126,0,33)" stroke-linejoin="round" d="M 12677,10166 L 12677,10366 12877,10266 12677,10166 Z"/>
 <path fill="rgb(126,0,33)" stroke="none" d="M 12843,10329 L 12843,10529 13043,10429 12843,10329 Z"/>
 <path fill="none" stroke="rgb(126,0,33)" stroke-linejoin="round" d="M 12843,10329 L 12843,10529 13043,10429 12843,10329 Z"/>
 <path fill="rgb(126,0,33)" stroke="none" d="M 13008,10411 L 13008,10611 13208,10511 13008,10411 Z"/>
 <path fill="none" stroke="rgb(126,0,33)" stroke-linejoin="round" d="M 13008,10411 L 13008,10611 13208,10511 13008,10411 Z"/>
 <path fill="rgb(126,0,33)" stroke="none" d="M 13174,10085 L 13174,10285 13374,10185 13174,10085 Z"/>
 <path fill="none" stroke="rgb(126,0,33)" stroke-linejoin="round" d="M 13174,10085 L 13174,10285 13374,10185 13174,10085 Z"/>
 <path fill="rgb(126,0,33)" stroke="none" d="M 13340,10411 L 13340,10611 13540,10511 13340,10411 Z"/>
 <path fill="none" stroke="rgb(126,0,33)" stroke-linejoin="round" d="M 13340,10411 L 13340,10611 13540,10511 13340,10411 Z"/>
 <path fill="rgb(126,0,33)" stroke="none" d="M 13505,10574 L 13505,10774 13705,10674 13505,10574 Z"/>
 <path fill="none" stroke="rgb(126,0,33)" stroke-linejoin="round" d="M 13505,10574 L 13505,10774 13705,10674 13505,10574 Z"/>
 <path fill="rgb(126,0,33)" stroke="none" d="M 13671,9922 L 13671,10122 13871,10022 13671,9922 Z"/>
 <path fill="none" stroke="rgb(126,0,33)" stroke-linejoin="round" d="M 13671,9922 L 13671,10122 13871,10022 13671,9922 Z"/>
 <path fill="rgb(126,0,33)" stroke="none" d="M 13836,10411 L 13836,10611 14036,10511 13836,10411 Z"/>
 <path fill="none" stroke="rgb(126,0,33)" stroke-linejoin="round" d="M 13836,10411 L 13836,10611 14036,10511 13836,10411 Z"/>
 <path fill="rgb(126,0,33)" stroke="none" d="M 14002,10329 L 14002,10529 14202,10429 14002,10329 Z"/>
 <path fill="none" stroke="rgb(126,0,33)" stroke-linejoin="round" d="M 14002,10329 L 14002,10529 14202,10429 14002,10329 Z"/>
 <path fill="rgb(126,0,33)" stroke="none" d="M 14168,10411 L 14168,10611 14368,10511 14168,10411 Z"/>
 <path fill="none" stroke="rgb(126,0,33)" stroke-linejoin="round" d="M 14168,10411 L 14168,10611 14368,10511 14168,10411 Z"/>
 <path fill="rgb(126,0,33)" stroke="none" d="M 14333,10411 L 14333,10611 14533,10511 14333,10411 Z"/>
 <path fill="none" stroke="rgb(126,0,33)" stroke-linejoin="round" d="M 14333,10411 L 14333,10611 14533,10511 14333,10411 Z"/>
 <path fill="rgb(126,0,33)" stroke="none" d="M 14499,10818 L 14499,11018 14699,10918 14499,10818 Z"/>
 <path fill="none" stroke="rgb(126,0,33)" stroke-linejoin="round" d="M 14499,10818 L 14499,11018 14699,10918 14499,10818 Z"/>
 <text class="TextShape"><tspan class="TextParagraph" font-family="Liberation Sans, sans-serif" font-size="353px" font-weight="400"><tspan class="TextPosition" x="431" y="11731"><tspan fill="rgb(0,0,0)" stroke="none">20/02</tspan></tspan></tspan></text>
 <text class="TextShape"><tspan class="TextParagraph" font-family="Liberation Sans, sans-serif" font-size="353px" font-weight="400"><tspan class="TextPosition" x="1590" y="11731"><tspan fill="rgb(0,0,0)" stroke="none">27/02</tspan></tspan></tspan></text>
 <text class="TextShape"><tspan class="TextParagraph" font-family="Liberation Sans, sans-serif" font-size="353px" font-weight="400"><tspan class="TextPosition" x="2750" y="11731"><tspan fill="rgb(0,0,0)" stroke="none">05/03</tspan></tspan></tspan></text>
 <text class="TextShape"><tspan class="TextParagraph" font-family="Liberation Sans, sans-serif" font-size="353px" font-weight="400"><tspan class="TextPosition" x="3909" y="11731"><tspan fill="rgb(0,0,0)" stroke="none">12/03</tspan></tspan></tspan></text>
 <text class="TextShape"><tspan class="TextParagraph" font-family="Liberation Sans, sans-serif" font-size="353px" font-weight="400"><tspan class="TextPosition" x="5068" y="11731"><tspan fill="rgb(0,0,0)" stroke="none">19/03</tspan></tspan></tspan></text>
 <text class="TextShape"><tspan class="TextParagraph" font-family="Liberation Sans, sans-serif" font-size="353px" font-weight="400"><tspan class="TextPosition" x="6227" y="11731"><tspan fill="rgb(0,0,0)" stroke="none">26/03</tspan></tspan></tspan></text>
 <text class="TextShape"><tspan class="TextParagraph" font-family="Liberation Sans, sans-serif" font-size="353px" font-weight="400"><tspan class="TextPosition" x="7386" y="11731"><tspan fill="rgb(0,0,0)" stroke="none">02/04</tspan></tspan></tspan></text>
 <text class="TextShape"><tspan class="TextParagraph" font-family="Liberation Sans, sans-serif" font-size="353px" font-weight="400"><tspan class="TextPosition" x="8545" y="11731"><tspan fill="rgb(0,0,0)" stroke="none">09/04</tspan></tspan></tspan></text>
 <text class="TextShape"><tspan class="TextParagraph" font-family="Liberation Sans, sans-serif" font-size="353px" font-weight="400"><tspan class="TextPosition" x="9705" y="11731"><tspan fill="rgb(0,0,0)" stroke="none">16/04</tspan></tspan></tspan></text>
 <text class="TextShape"><tspan class="TextParagraph" font-family="Liberation Sans, sans-serif" font-size="353px" font-weight="400"><tspan class="TextPosition" x="10864" y="11731"><tspan fill="rgb(0,0,0)" stroke="none">23/04</tspan></tspan></tspan></text>
 <text class="TextShape"><tspan class="TextParagraph" font-family="Liberation Sans, sans-serif" font-size="353px" font-weight="400"><tspan class="TextPosition" x="12023" y="11731"><tspan fill="rgb(0,0,0)" stroke="none">30/04</tspan></tspan></tspan></text>
 <text class="TextShape"><tspan class="TextParagraph" font-family="Liberation Sans, sans-serif" font-size="353px" font-weight="400"><tspan class="TextPosition" x="13182" y="11731"><tspan fill="rgb(0,0,0)" stroke="none">07/05</tspan></tspan></tspan></text>
 <text class="TextShape"><tspan class="TextParagraph" font-family="Liberation Sans, sans-serif" font-size="353px" font-weight="400"><tspan class="TextPosition" x="152" y="8805"><tspan fill="rgb(0,0,0)" stroke="none">20</tspan></tspan></tspan></text>
 <text class="TextShape"><tspan class="TextParagraph" font-family="Liberation Sans, sans-serif" font-size="353px" font-weight="400"><tspan class="TextPosition" x="152" y="6327"><tspan fill="rgb(0,0,0)" stroke="none">40</tspan></tspan></tspan></text>
 <text class="TextShape"><tspan class="TextParagraph" font-family="Liberation Sans, sans-serif" font-size="353px" font-weight="400"><tspan class="TextPosition" x="152" y="3848"><tspan fill="rgb(0,0,0)" stroke="none">60</tspan></tspan></tspan></text>
 <text class="TextShape"><tspan class="TextParagraph" font-family="Liberation Sans, sans-serif" font-size="353px" font-weight="400"><tspan class="TextPosition" x="152" y="1370"><tspan fill="rgb(0,0,0)" stroke="none">80</tspan></tspan></tspan></text>
 <text class="TextShape"><tspan class="TextParagraph" font-family="Liberation Sans, sans-serif" font-size="423px" font-weight="400"><tspan class="TextPosition" x="2415" y="497"><tspan fill="rgb(0,0,0)" stroke="none">Covid-19. Muertes diarias por milln de mayores de 65 aos</tspan></tspan></tspan><tspan class="TextParagraph" font-family="Liberation Sans, sans-serif" font-size="423px" font-weight="400"><tspan class="TextPosition" x="2415" y="947"><tspan fill="rgb(0,0,0)" stroke="none">en Europa Occidental (2)</tspan></tspan></tspan></text>
 <path fill="none" stroke="rgb(0,69,134)" stroke-width="50" stroke-linejoin="round" d="M 2833,2377 L 3633,2377"/>
 <path fill="rgb(0,69,134)" stroke="none" d="M 3127,2272 L 3127,2483 3338,2483 3338,2272 3127,2272 Z"/>
 <path fill="none" stroke="rgb(0,69,134)" stroke-linejoin="round" d="M 3127,2272 L 3127,2483 3338,2483 3338,2272 3127,2272 Z"/>
 <path fill="none" stroke="rgb(255,66,14)" stroke-width="50" stroke-linejoin="round" d="M 2833,3253 L 3633,3253"/>
 <path fill="rgb(255,66,14)" stroke="none" d="M 3127,3253 L 3233,3359 3338,3253 3233,3148 3127,3253 Z"/>
 <path fill="none" stroke="rgb(255,66,14)" stroke-linejoin="round" d="M 3127,3253 L 3233,3359 3338,3253 3233,3148 3127,3253 Z"/>
 <path fill="none" stroke="rgb(255,211,32)" stroke-width="50" stroke-linejoin="round" d="M 2833,4129 L 3633,4129"/>
 <path fill="rgb(255,211,32)" stroke="none" d="M 3127,4024 L 3233,4235 3338,4024 3127,4024 Z"/>
 <path fill="none" stroke="rgb(255,211,32)" stroke-linejoin="round" d="M 3127,4024 L 3233,4235 3338,4024 3127,4024 Z"/>
 <path fill="none" stroke="rgb(87,157,28)" stroke-width="50" stroke-linejoin="round" d="M 2833,5005 L 3633,5005"/>
 <path fill="rgb(87,157,28)" stroke="none" d="M 3127,5111 L 3338,5111 3233,4900 3127,5111 Z"/>
 <path fill="none" stroke="rgb(87,157,28)" stroke-linejoin="round" d="M 3127,5111 L 3338,5111 3233,4900 3127,5111 Z"/>
 <path fill="none" stroke="rgb(126,0,33)" stroke-width="50" stroke-linejoin="round" d="M 2833,5881 L 3633,5881"/>
 <path fill="rgb(126,0,33)" stroke="none" d="M 3127,5776 L 3127,5987 3338,5881 3127,5776 Z"/>
 <path fill="none" stroke="rgb(126,0,33)" stroke-linejoin="round" d="M 3127,5776 L 3127,5987 3338,5881 3127,5776 Z"/>
 <text class="TextShape"><tspan class="TextParagraph" font-family="Liberation Sans, sans-serif" font-size="353px" font-weight="400"><tspan class="TextPosition" x="3733" y="2497"><tspan fill="rgb(0,0,0)" stroke="none">Holanda</tspan></tspan></tspan></text>
 <text class="TextShape"><tspan class="TextParagraph" font-family="Liberation Sans, sans-serif" font-size="353px" font-weight="400"><tspan class="TextPosition" x="3733" y="3373"><tspan fill="rgb(0,0,0)" stroke="none">Irlanda</tspan></tspan></tspan></text>
 <text class="TextShape"><tspan class="TextParagraph" font-family="Liberation Sans, sans-serif" font-size="353px" font-weight="400"><tspan class="TextPosition" x="3733" y="4249"><tspan fill="rgb(0,0,0)" stroke="none">Luxemburgo</tspan></tspan></tspan></text>
 <text class="TextShape"><tspan class="TextParagraph" font-family="Liberation Sans, sans-serif" font-size="353px" font-weight="400"><tspan class="TextPosition" x="3733" y="5125"><tspan fill="rgb(0,0,0)" stroke="none">Suecia</tspan></tspan></tspan></text>
 <text class="TextShape"><tspan class="TextParagraph" font-family="Liberation Sans, sans-serif" font-size="353px" font-weight="400"><tspan class="TextPosition" x="3733" y="6000"><tspan fill="rgb(0,0,0)" stroke="none">Suiza</tspan></tspan></tspan></text>
</svg>