<?xml version="1.0" encoding="UTF-8"?>
<!DOCTYPE svg PUBLIC "-//W3C//DTD SVG 1.1//EN" "http://www.w3.org/Graphics/SVG/1.1/DTD/svg11.dtd">
<svg width="150mm" height="120mm" viewBox="0 0 15000 12000" version="1.1" xmlns="http://www.w3.org/2000/svg" xmlns:xlink="http://www.w3.org/1999/xlink" stroke-width="28.222" stroke-linejoin="round" xml:space="preserve">
 <path fill="rgb(255,255,255)" stroke="none" d="M 7500,12000 L 0,12000 0,0 15000,0 15000,12000 7500,12000 Z"/>
 <path fill="none" stroke="rgb(179,179,179)" stroke-linejoin="round" d="M 7971,10817 L 1237,10817 1237,1124 14705,1124 14705,10817 7971,10817 Z"/>
 <path fill="none" stroke="rgb(0,0,0)" stroke-linejoin="round" d="M 14705,10816 L 1237,10816"/>
 <path fill="none" stroke="rgb(0,0,0)" stroke-linejoin="round" d="M 14705,8877 L 1237,8877"/>
 <path fill="none" stroke="rgb(0,0,0)" stroke-linejoin="round" d="M 14705,6938 L 1237,6938"/>
 <path fill="none" stroke="rgb(0,0,0)" stroke-linejoin="round" d="M 14705,5000 L 1237,5000"/>
 <path fill="none" stroke="rgb(0,0,0)" stroke-linejoin="round" d="M 14705,3061 L 1237,3061"/>
 <path fill="none" stroke="rgb(0,0,0)" stroke-linejoin="round" d="M 14705,1123 L 1237,1123"/>
 <path fill="none" stroke="rgb(179,179,179)" stroke-linejoin="round" d="M 1237,10966 L 1237,10816"/>
 <path fill="none" stroke="rgb(179,179,179)" stroke-linejoin="round" d="M 1237,10966 L 1237,10816"/>
 <path fill="none" stroke="rgb(179,179,179)" stroke-linejoin="round" d="M 2430,10966 L 2430,10816"/>
 <path fill="none" stroke="rgb(179,179,179)" stroke-linejoin="round" d="M 2430,10966 L 2430,10816"/>
 <path fill="none" stroke="rgb(179,179,179)" stroke-linejoin="round" d="M 3623,10966 L 3623,10816"/>
 <path fill="none" stroke="rgb(179,179,179)" stroke-linejoin="round" d="M 3623,10966 L 3623,10816"/>
 <path fill="none" stroke="rgb(179,179,179)" stroke-linejoin="round" d="M 4817,10966 L 4817,10816"/>
 <path fill="none" stroke="rgb(179,179,179)" stroke-linejoin="round" d="M 4817,10966 L 4817,10816"/>
 <path fill="none" stroke="rgb(179,179,179)" stroke-linejoin="round" d="M 6010,10966 L 6010,10816"/>
 <path fill="none" stroke="rgb(179,179,179)" stroke-linejoin="round" d="M 6010,10966 L 6010,10816"/>
 <path fill="none" stroke="rgb(179,179,179)" stroke-linejoin="round" d="M 7204,10966 L 7204,10816"/>
 <path fill="none" stroke="rgb(179,179,179)" stroke-linejoin="round" d="M 7204,10966 L 7204,10816"/>
 <path fill="none" stroke="rgb(179,179,179)" stroke-linejoin="round" d="M 8396,10966 L 8396,10816"/>
 <path fill="none" stroke="rgb(179,179,179)" stroke-linejoin="round" d="M 8396,10966 L 8396,10816"/>
 <path fill="none" stroke="rgb(179,179,179)" stroke-linejoin="round" d="M 9590,10966 L 9590,10816"/>
 <path fill="none" stroke="rgb(179,179,179)" stroke-linejoin="round" d="M 9590,10966 L 9590,10816"/>
 <path fill="none" stroke="rgb(179,179,179)" stroke-linejoin="round" d="M 10783,10966 L 10783,10816"/>
 <path fill="none" stroke="rgb(179,179,179)" stroke-linejoin="round" d="M 10783,10966 L 10783,10816"/>
 <path fill="none" stroke="rgb(179,179,179)" stroke-linejoin="round" d="M 11977,10966 L 11977,10816"/>
 <path fill="none" stroke="rgb(179,179,179)" stroke-linejoin="round" d="M 11977,10966 L 11977,10816"/>
 <path fill="none" stroke="rgb(179,179,179)" stroke-linejoin="round" d="M 13170,10966 L 13170,10816"/>
 <path fill="none" stroke="rgb(179,179,179)" stroke-linejoin="round" d="M 13170,10966 L 13170,10816"/>
 <path fill="none" stroke="rgb(179,179,179)" stroke-linejoin="round" d="M 14364,10966 L 14364,10816"/>
 <path fill="none" stroke="rgb(179,179,179)" stroke-linejoin="round" d="M 14364,10966 L 14364,10816"/>
 <path fill="none" stroke="rgb(179,179,179)" stroke-linejoin="round" d="M 1237,10816 L 14705,10816"/>
 <path fill="none" stroke="rgb(0,0,0)" stroke-linejoin="round" d="M 1087,10816 L 1237,10816"/>
 <path fill="none" stroke="rgb(0,0,0)" stroke-linejoin="round" d="M 1087,10816 L 1237,10816"/>
 <path fill="none" stroke="rgb(0,0,0)" stroke-linejoin="round" d="M 1087,8877 L 1237,8877"/>
 <path fill="none" stroke="rgb(0,0,0)" stroke-linejoin="round" d="M 1087,8877 L 1237,8877"/>
 <path fill="none" stroke="rgb(0,0,0)" stroke-linejoin="round" d="M 1087,6938 L 1237,6938"/>
 <path fill="none" stroke="rgb(0,0,0)" stroke-linejoin="round" d="M 1087,6938 L 1237,6938"/>
 <path fill="none" stroke="rgb(0,0,0)" stroke-linejoin="round" d="M 1087,5000 L 1237,5000"/>
 <path fill="none" stroke="rgb(0,0,0)" stroke-linejoin="round" d="M 1087,5000 L 1237,5000"/>
 <path fill="none" stroke="rgb(0,0,0)" stroke-linejoin="round" d="M 1087,3061 L 1237,3061"/>
 <path fill="none" stroke="rgb(0,0,0)" stroke-linejoin="round" d="M 1087,3061 L 1237,3061"/>
 <path fill="none" stroke="rgb(0,0,0)" stroke-linejoin="round" d="M 1087,1123 L 1237,1123"/>
 <path fill="none" stroke="rgb(0,0,0)" stroke-linejoin="round" d="M 1087,1123 L 1237,1123"/>
 <path fill="none" stroke="rgb(0,0,0)" stroke-linejoin="round" d="M 1237,10816 L 1237,1123"/>
 <path fill="none" stroke="rgb(0,69,134)" stroke-width="50" stroke-linejoin="round" d="M 3709,10803 L 3879,10803 4050,10796 4220,10803 4391,10777 4561,10693 4732,10738 4902,10576 5073,10596 5243,10699 5414,9833 5584,10680 5755,9639 5925,10124 6096,9723 6266,9297 6437,8722 6607,8269 6778,7830 6948,7558 7119,5982 7289,6582 7460,5847 7629,5440 7800,5401 7970,5569 8140,5330 8311,5233 8481,4677 8652,4793 8822,5588 8993,6460 9163,6699 9334,6014 9504,5924 9675,6401 9845,6906 10016,7520 10186,6815 10357,7474 10527,7151 10698,7436 10868,7255 11039,7035 11209,7164 11380,8166 11550,8237 11721,8037 11891,8004 12062,7972 12232,8444 12403,8373 12573,8954 12744,8676 12914,8870 13085,7888 13255,9084 13426,8999 13596,9032 13767,9756 13937,9756 14108,9620 14278,9239 14449,9439 14619,9336"/>
 <path fill="rgb(0,69,134)" stroke="none" d="M 3609,10703 L 3609,10903 3809,10903 3809,10703 3609,10703 Z"/>
 <path fill="none" stroke="rgb(0,69,134)" stroke-linejoin="round" d="M 3609,10703 L 3609,10903 3809,10903 3809,10703 3609,10703 Z"/>
 <path fill="rgb(0,69,134)" stroke="none" d="M 3779,10703 L 3779,10903 3979,10903 3979,10703 3779,10703 Z"/>
 <path fill="none" stroke="rgb(0,69,134)" stroke-linejoin="round" d="M 3779,10703 L 3779,10903 3979,10903 3979,10703 3779,10703 Z"/>
 <path fill="rgb(0,69,134)" stroke="none" d="M 3950,10696 L 3950,10896 4150,10896 4150,10696 3950,10696 Z"/>
 <path fill="none" stroke="rgb(0,69,134)" stroke-linejoin="round" d="M 3950,10696 L 3950,10896 4150,10896 4150,10696 3950,10696 Z"/>
 <path fill="rgb(0,69,134)" stroke="none" d="M 4120,10703 L 4120,10903 4320,10903 4320,10703 4120,10703 Z"/>
 <path fill="none" stroke="rgb(0,69,134)" stroke-linejoin="round" d="M 4120,10703 L 4120,10903 4320,10903 4320,10703 4120,10703 Z"/>
 <path fill="rgb(0,69,134)" stroke="none" d="M 4291,10677 L 4291,10877 4491,10877 4491,10677 4291,10677 Z"/>
 <path fill="none" stroke="rgb(0,69,134)" stroke-linejoin="round" d="M 4291,10677 L 4291,10877 4491,10877 4491,10677 4291,10677 Z"/>
 <path fill="rgb(0,69,134)" stroke="none" d="M 4461,10593 L 4461,10793 4661,10793 4661,10593 4461,10593 Z"/>
 <path fill="none" stroke="rgb(0,69,134)" stroke-linejoin="round" d="M 4461,10593 L 4461,10793 4661,10793 4661,10593 4461,10593 Z"/>
 <path fill="rgb(0,69,134)" stroke="none" d="M 4632,10638 L 4632,10838 4832,10838 4832,10638 4632,10638 Z"/>
 <path fill="none" stroke="rgb(0,69,134)" stroke-linejoin="round" d="M 4632,10638 L 4632,10838 4832,10838 4832,10638 4632,10638 Z"/>
 <path fill="rgb(0,69,134)" stroke="none" d="M 4802,10476 L 4802,10676 5002,10676 5002,10476 4802,10476 Z"/>
 <path fill="none" stroke="rgb(0,69,134)" stroke-linejoin="round" d="M 4802,10476 L 4802,10676 5002,10676 5002,10476 4802,10476 Z"/>
 <path fill="rgb(0,69,134)" stroke="none" d="M 4973,10496 L 4973,10696 5173,10696 5173,10496 4973,10496 Z"/>
 <path fill="none" stroke="rgb(0,69,134)" stroke-linejoin="round" d="M 4973,10496 L 4973,10696 5173,10696 5173,10496 4973,10496 Z"/>
 <path fill="rgb(0,69,134)" stroke="none" d="M 5143,10599 L 5143,10799 5343,10799 5343,10599 5143,10599 Z"/>
 <path fill="none" stroke="rgb(0,69,134)" stroke-linejoin="round" d="M 5143,10599 L 5143,10799 5343,10799 5343,10599 5143,10599 Z"/>
 <path fill="rgb(0,69,134)" stroke="none" d="M 5314,9733 L 5314,9933 5514,9933 5514,9733 5314,9733 Z"/>
 <path fill="none" stroke="rgb(0,69,134)" stroke-linejoin="round" d="M 5314,9733 L 5314,9933 5514,9933 5514,9733 5314,9733 Z"/>
 <path fill="rgb(0,69,134)" stroke="none" d="M 5484,10580 L 5484,10780 5684,10780 5684,10580 5484,10580 Z"/>
 <path fill="none" stroke="rgb(0,69,134)" stroke-linejoin="round" d="M 5484,10580 L 5484,10780 5684,10780 5684,10580 5484,10580 Z"/>
 <path fill="rgb(0,69,134)" stroke="none" d="M 5655,9539 L 5655,9739 5855,9739 5855,9539 5655,9539 Z"/>
 <path fill="none" stroke="rgb(0,69,134)" stroke-linejoin="round" d="M 5655,9539 L 5655,9739 5855,9739 5855,9539 5655,9539 Z"/>
 <path fill="rgb(0,69,134)" stroke="none" d="M 5825,10024 L 5825,10224 6025,10224 6025,10024 5825,10024 Z"/>
 <path fill="none" stroke="rgb(0,69,134)" stroke-linejoin="round" d="M 5825,10024 L 5825,10224 6025,10224 6025,10024 5825,10024 Z"/>
 <path fill="rgb(0,69,134)" stroke="none" d="M 5996,9623 L 5996,9823 6196,9823 6196,9623 5996,9623 Z"/>
 <path fill="none" stroke="rgb(0,69,134)" stroke-linejoin="round" d="M 5996,9623 L 5996,9823 6196,9823 6196,9623 5996,9623 Z"/>
 <path fill="rgb(0,69,134)" stroke="none" d="M 6166,9197 L 6166,9397 6366,9397 6366,9197 6166,9197 Z"/>
 <path fill="none" stroke="rgb(0,69,134)" stroke-linejoin="round" d="M 6166,9197 L 6166,9397 6366,9397 6366,9197 6166,9197 Z"/>
 <path fill="rgb(0,69,134)" stroke="none" d="M 6337,8622 L 6337,8822 6537,8822 6537,8622 6337,8622 Z"/>
 <path fill="none" stroke="rgb(0,69,134)" stroke-linejoin="round" d="M 6337,8622 L 6337,8822 6537,8822 6537,8622 6337,8622 Z"/>
 <path fill="rgb(0,69,134)" stroke="none" d="M 6507,8169 L 6507,8369 6707,8369 6707,8169 6507,8169 Z"/>
 <path fill="none" stroke="rgb(0,69,134)" stroke-linejoin="round" d="M 6507,8169 L 6507,8369 6707,8369 6707,8169 6507,8169 Z"/>
 <path fill="rgb(0,69,134)" stroke="none" d="M 6678,7730 L 6678,7930 6878,7930 6878,7730 6678,7730 Z"/>
 <path fill="none" stroke="rgb(0,69,134)" stroke-linejoin="round" d="M 6678,7730 L 6678,7930 6878,7930 6878,7730 6678,7730 Z"/>
 <path fill="rgb(0,69,134)" stroke="none" d="M 6848,7458 L 6848,7658 7048,7658 7048,7458 6848,7458 Z"/>
 <path fill="none" stroke="rgb(0,69,134)" stroke-linejoin="round" d="M 6848,7458 L 6848,7658 7048,7658 7048,7458 6848,7458 Z"/>
 <path fill="rgb(0,69,134)" stroke="none" d="M 7019,5882 L 7019,6081 7219,6081 7219,5882 7019,5882 Z"/>
 <path fill="none" stroke="rgb(0,69,134)" stroke-linejoin="round" d="M 7019,5882 L 7019,6081 7219,6081 7219,5882 7019,5882 Z"/>
 <path fill="rgb(0,69,134)" stroke="none" d="M 7189,6482 L 7189,6682 7389,6682 7389,6482 7189,6482 Z"/>
 <path fill="none" stroke="rgb(0,69,134)" stroke-linejoin="round" d="M 7189,6482 L 7189,6682 7389,6682 7389,6482 7189,6482 Z"/>
 <path fill="rgb(0,69,134)" stroke="none" d="M 7360,5747 L 7360,5947 7559,5947 7559,5747 7360,5747 Z"/>
 <path fill="none" stroke="rgb(0,69,134)" stroke-linejoin="round" d="M 7360,5747 L 7360,5947 7559,5947 7559,5747 7360,5747 Z"/>
 <path fill="rgb(0,69,134)" stroke="none" d="M 7529,5340 L 7529,5540 7729,5540 7729,5340 7529,5340 Z"/>
 <path fill="none" stroke="rgb(0,69,134)" stroke-linejoin="round" d="M 7529,5340 L 7529,5540 7729,5540 7729,5340 7529,5340 Z"/>
 <path fill="rgb(0,69,134)" stroke="none" d="M 7700,5301 L 7700,5501 7900,5501 7900,5301 7700,5301 Z"/>
 <path fill="none" stroke="rgb(0,69,134)" stroke-linejoin="round" d="M 7700,5301 L 7700,5501 7900,5501 7900,5301 7700,5301 Z"/>
 <path fill="rgb(0,69,134)" stroke="none" d="M 7870,5469 L 7870,5669 8070,5669 8070,5469 7870,5469 Z"/>
 <path fill="none" stroke="rgb(0,69,134)" stroke-linejoin="round" d="M 7870,5469 L 7870,5669 8070,5669 8070,5469 7870,5469 Z"/>
 <path fill="rgb(0,69,134)" stroke="none" d="M 8040,5230 L 8040,5430 8240,5430 8240,5230 8040,5230 Z"/>
 <path fill="none" stroke="rgb(0,69,134)" stroke-linejoin="round" d="M 8040,5230 L 8040,5430 8240,5430 8240,5230 8040,5230 Z"/>
 <path fill="rgb(0,69,134)" stroke="none" d="M 8211,5133 L 8211,5333 8411,5333 8411,5133 8211,5133 Z"/>
 <path fill="none" stroke="rgb(0,69,134)" stroke-linejoin="round" d="M 8211,5133 L 8211,5333 8411,5333 8411,5133 8211,5133 Z"/>
 <path fill="rgb(0,69,134)" stroke="none" d="M 8381,4577 L 8381,4777 8581,4777 8581,4577 8381,4577 Z"/>
 <path fill="none" stroke="rgb(0,69,134)" stroke-linejoin="round" d="M 8381,4577 L 8381,4777 8581,4777 8581,4577 8381,4577 Z"/>
 <path fill="rgb(0,69,134)" stroke="none" d="M 8552,4693 L 8552,4893 8752,4893 8752,4693 8552,4693 Z"/>
 <path fill="none" stroke="rgb(0,69,134)" stroke-linejoin="round" d="M 8552,4693 L 8552,4893 8752,4893 8752,4693 8552,4693 Z"/>
 <path fill="rgb(0,69,134)" stroke="none" d="M 8722,5488 L 8722,5688 8922,5688 8922,5488 8722,5488 Z"/>
 <path fill="none" stroke="rgb(0,69,134)" stroke-linejoin="round" d="M 8722,5488 L 8722,5688 8922,5688 8922,5488 8722,5488 Z"/>
 <path fill="rgb(0,69,134)" stroke="none" d="M 8893,6360 L 8893,6560 9093,6560 9093,6360 8893,6360 Z"/>
 <path fill="none" stroke="rgb(0,69,134)" stroke-linejoin="round" d="M 8893,6360 L 8893,6560 9093,6560 9093,6360 8893,6360 Z"/>
 <path fill="rgb(0,69,134)" stroke="none" d="M 9063,6599 L 9063,6799 9263,6799 9263,6599 9063,6599 Z"/>
 <path fill="none" stroke="rgb(0,69,134)" stroke-linejoin="round" d="M 9063,6599 L 9063,6799 9263,6799 9263,6599 9063,6599 Z"/>
 <path fill="rgb(0,69,134)" stroke="none" d="M 9234,5915 L 9234,6114 9434,6114 9434,5915 9234,5915 Z"/>
 <path fill="none" stroke="rgb(0,69,134)" stroke-linejoin="round" d="M 9234,5915 L 9234,6114 9434,6114 9434,5915 9234,5915 Z"/>
 <path fill="rgb(0,69,134)" stroke="none" d="M 9404,5824 L 9404,6023 9604,6023 9604,5824 9404,5824 Z"/>
 <path fill="none" stroke="rgb(0,69,134)" stroke-linejoin="round" d="M 9404,5824 L 9404,6023 9604,6023 9604,5824 9404,5824 Z"/>
 <path fill="rgb(0,69,134)" stroke="none" d="M 9575,6301 L 9575,6501 9775,6501 9775,6301 9575,6301 Z"/>
 <path fill="none" stroke="rgb(0,69,134)" stroke-linejoin="round" d="M 9575,6301 L 9575,6501 9775,6501 9775,6301 9575,6301 Z"/>
 <path fill="rgb(0,69,134)" stroke="none" d="M 9745,6806 L 9745,7006 9945,7006 9945,6806 9745,6806 Z"/>
 <path fill="none" stroke="rgb(0,69,134)" stroke-linejoin="round" d="M 9745,6806 L 9745,7006 9945,7006 9945,6806 9745,6806 Z"/>
 <path fill="rgb(0,69,134)" stroke="none" d="M 9916,7420 L 9916,7620 10116,7620 10116,7420 9916,7420 Z"/>
 <path fill="none" stroke="rgb(0,69,134)" stroke-linejoin="round" d="M 9916,7420 L 9916,7620 10116,7620 10116,7420 9916,7420 Z"/>
 <path fill="rgb(0,69,134)" stroke="none" d="M 10086,6715 L 10086,6915 10286,6915 10286,6715 10086,6715 Z"/>
 <path fill="none" stroke="rgb(0,69,134)" stroke-linejoin="round" d="M 10086,6715 L 10086,6915 10286,6915 10286,6715 10086,6715 Z"/>
 <path fill="rgb(0,69,134)" stroke="none" d="M 10257,7374 L 10257,7574 10457,7574 10457,7374 10257,7374 Z"/>
 <path fill="none" stroke="rgb(0,69,134)" stroke-linejoin="round" d="M 10257,7374 L 10257,7574 10457,7574 10457,7374 10257,7374 Z"/>
 <path fill="rgb(0,69,134)" stroke="none" d="M 10427,7051 L 10427,7251 10627,7251 10627,7051 10427,7051 Z"/>
 <path fill="none" stroke="rgb(0,69,134)" stroke-linejoin="round" d="M 10427,7051 L 10427,7251 10627,7251 10627,7051 10427,7051 Z"/>
 <path fill="rgb(0,69,134)" stroke="none" d="M 10598,7336 L 10598,7536 10798,7536 10798,7336 10598,7336 Z"/>
 <path fill="none" stroke="rgb(0,69,134)" stroke-linejoin="round" d="M 10598,7336 L 10598,7536 10798,7536 10798,7336 10598,7336 Z"/>
 <path fill="rgb(0,69,134)" stroke="none" d="M 10768,7155 L 10768,7355 10968,7355 10968,7155 10768,7155 Z"/>
 <path fill="none" stroke="rgb(0,69,134)" stroke-linejoin="round" d="M 10768,7155 L 10768,7355 10968,7355 10968,7155 10768,7155 Z"/>
 <path fill="rgb(0,69,134)" stroke="none" d="M 10939,6935 L 10939,7135 11139,7135 11139,6935 10939,6935 Z"/>
 <path fill="none" stroke="rgb(0,69,134)" stroke-linejoin="round" d="M 10939,6935 L 10939,7135 11139,7135 11139,6935 10939,6935 Z"/>
 <path fill="rgb(0,69,134)" stroke="none" d="M 11109,7064 L 11109,7264 11309,7264 11309,7064 11109,7064 Z"/>
 <path fill="none" stroke="rgb(0,69,134)" stroke-linejoin="round" d="M 11109,7064 L 11109,7264 11309,7264 11309,7064 11109,7064 Z"/>
 <path fill="rgb(0,69,134)" stroke="none" d="M 11280,8066 L 11280,8266 11480,8266 11480,8066 11280,8066 Z"/>
 <path fill="none" stroke="rgb(0,69,134)" stroke-linejoin="round" d="M 11280,8066 L 11280,8266 11480,8266 11480,8066 11280,8066 Z"/>
 <path fill="rgb(0,69,134)" stroke="none" d="M 11450,8137 L 11450,8337 11650,8337 11650,8137 11450,8137 Z"/>
 <path fill="none" stroke="rgb(0,69,134)" stroke-linejoin="round" d="M 11450,8137 L 11450,8337 11650,8337 11650,8137 11450,8137 Z"/>
 <path fill="rgb(0,69,134)" stroke="none" d="M 11621,7937 L 11621,8137 11821,8137 11821,7937 11621,7937 Z"/>
 <path fill="none" stroke="rgb(0,69,134)" stroke-linejoin="round" d="M 11621,7937 L 11621,8137 11821,8137 11821,7937 11621,7937 Z"/>
 <path fill="rgb(0,69,134)" stroke="none" d="M 11791,7904 L 11791,8104 11991,8104 11991,7904 11791,7904 Z"/>
 <path fill="none" stroke="rgb(0,69,134)" stroke-linejoin="round" d="M 11791,7904 L 11791,8104 11991,8104 11991,7904 11791,7904 Z"/>
 <path fill="rgb(0,69,134)" stroke="none" d="M 11962,7872 L 11962,8072 12162,8072 12162,7872 11962,7872 Z"/>
 <path fill="none" stroke="rgb(0,69,134)" stroke-linejoin="round" d="M 11962,7872 L 11962,8072 12162,8072 12162,7872 11962,7872 Z"/>
 <path fill="rgb(0,69,134)" stroke="none" d="M 12132,8344 L 12132,8544 12332,8544 12332,8344 12132,8344 Z"/>
 <path fill="none" stroke="rgb(0,69,134)" stroke-linejoin="round" d="M 12132,8344 L 12132,8544 12332,8544 12332,8344 12132,8344 Z"/>
 <path fill="rgb(0,69,134)" stroke="none" d="M 12303,8273 L 12303,8473 12503,8473 12503,8273 12303,8273 Z"/>
 <path fill="none" stroke="rgb(0,69,134)" stroke-linejoin="round" d="M 12303,8273 L 12303,8473 12503,8473 12503,8273 12303,8273 Z"/>
 <path fill="rgb(0,69,134)" stroke="none" d="M 12473,8854 L 12473,9054 12673,9054 12673,8854 12473,8854 Z"/>
 <path fill="none" stroke="rgb(0,69,134)" stroke-linejoin="round" d="M 12473,8854 L 12473,9054 12673,9054 12673,8854 12473,8854 Z"/>
 <path fill="rgb(0,69,134)" stroke="none" d="M 12644,8576 L 12644,8776 12844,8776 12844,8576 12644,8576 Z"/>
 <path fill="none" stroke="rgb(0,69,134)" stroke-linejoin="round" d="M 12644,8576 L 12644,8776 12844,8776 12844,8576 12644,8576 Z"/>
 <path fill="rgb(0,69,134)" stroke="none" d="M 12814,8770 L 12814,8970 13014,8970 13014,8770 12814,8770 Z"/>
 <path fill="none" stroke="rgb(0,69,134)" stroke-linejoin="round" d="M 12814,8770 L 12814,8970 13014,8970 13014,8770 12814,8770 Z"/>
 <path fill="rgb(0,69,134)" stroke="none" d="M 12985,7788 L 12985,7988 13185,7988 13185,7788 12985,7788 Z"/>
 <path fill="none" stroke="rgb(0,69,134)" stroke-linejoin="round" d="M 12985,7788 L 12985,7988 13185,7988 13185,7788 12985,7788 Z"/>
 <path fill="rgb(0,69,134)" stroke="none" d="M 13155,8984 L 13155,9184 13355,9184 13355,8984 13155,8984 Z"/>
 <path fill="none" stroke="rgb(0,69,134)" stroke-linejoin="round" d="M 13155,8984 L 13155,9184 13355,9184 13355,8984 13155,8984 Z"/>
 <path fill="rgb(0,69,134)" stroke="none" d="M 13326,8899 L 13326,9099 13526,9099 13526,8899 13326,8899 Z"/>
 <path fill="none" stroke="rgb(0,69,134)" stroke-linejoin="round" d="M 13326,8899 L 13326,9099 13526,9099 13526,8899 13326,8899 Z"/>
 <path fill="rgb(0,69,134)" stroke="none" d="M 13496,8932 L 13496,9132 13696,9132 13696,8932 13496,8932 Z"/>
 <path fill="none" stroke="rgb(0,69,134)" stroke-linejoin="round" d="M 13496,8932 L 13496,9132 13696,9132 13696,8932 13496,8932 Z"/>
 <path fill="rgb(0,69,134)" stroke="none" d="M 13667,9656 L 13667,9856 13867,9856 13867,9656 13667,9656 Z"/>
 <path fill="none" stroke="rgb(0,69,134)" stroke-linejoin="round" d="M 13667,9656 L 13667,9856 13867,9856 13867,9656 13667,9656 Z"/>
 <path fill="rgb(0,69,134)" stroke="none" d="M 13837,9656 L 13837,9856 14037,9856 14037,9656 13837,9656 Z"/>
 <path fill="none" stroke="rgb(0,69,134)" stroke-linejoin="round" d="M 13837,9656 L 13837,9856 14037,9856 14037,9656 13837,9656 Z"/>
 <path fill="rgb(0,69,134)" stroke="none" d="M 14008,9520 L 14008,9720 14208,9720 14208,9520 14008,9520 Z"/>
 <path fill="none" stroke="rgb(0,69,134)" stroke-linejoin="round" d="M 14008,9520 L 14008,9720 14208,9720 14208,9520 14008,9520 Z"/>
 <path fill="rgb(0,69,134)" stroke="none" d="M 14178,9139 L 14178,9339 14378,9339 14378,9139 14178,9139 Z"/>
 <path fill="none" stroke="rgb(0,69,134)" stroke-linejoin="round" d="M 14178,9139 L 14178,9339 14378,9339 14378,9139 14178,9139 Z"/>
 <path fill="rgb(0,69,134)" stroke="none" d="M 14349,9339 L 14349,9539 14549,9539 14549,9339 14349,9339 Z"/>
 <path fill="none" stroke="rgb(0,69,134)" stroke-linejoin="round" d="M 14349,9339 L 14349,9539 14549,9539 14549,9339 14349,9339 Z"/>
 <path fill="rgb(0,69,134)" stroke="none" d="M 14519,9236 L 14519,9436 14719,9436 14719,9236 14519,9236 Z"/>
 <path fill="none" stroke="rgb(0,69,134)" stroke-linejoin="round" d="M 14519,9236 L 14519,9436 14719,9436 14719,9236 14519,9236 Z"/>
 <path fill="none" stroke="rgb(255,66,14)" stroke-width="50" stroke-linejoin="round" d="M 1492,10809 L 1663,10816 1833,10816 2004,10816 2174,10816 2345,10809 2515,10816 2686,10816 2856,10816 3027,10816 3197,10809 3368,10809 3538,10816 3709,10796 3879,10803 4050,10770 4220,10796 4391,10803 4561,10757 4732,10699 4902,10731 5073,10699 5243,10738 5414,10628 5584,10635 5755,10641 5925,10370 6096,9988 6266,10311 6437,10092 6607,10092 6778,9613 6948,9264 7119,9323 7289,8457 7460,8883 7629,8754 7800,8928 7970,8114 8140,7591 8311,7526 8481,2060 8652,3578 8822,4011 8993,7468 9163,5433 9334,1659 9504,7319 9675,2150 9845,4438 10016,6712 10186,7190 10357,7106 10527,5892 10698,1523 10868,5950 11039,5898 11209,6666 11380,8263 11550,7280 11721,7384 11891,7300 12062,7481 12232,8302 12403,8431 12573,9252 12744,7991 12914,8444 13085,8056 13255,8948 13426,9407 13596,9743 13767,9943 13937,8838 14108,8683 14278,9019 14449,9665 14619,9245"/>
 <path fill="rgb(255,66,14)" stroke="none" d="M 1392,10809 L 1492,10909 1592,10809 1492,10709 1392,10809 Z"/>
 <path fill="none" stroke="rgb(255,66,14)" stroke-linejoin="round" d="M 1392,10809 L 1492,10909 1592,10809 1492,10709 1392,10809 Z"/>
 <path fill="rgb(255,66,14)" stroke="none" d="M 1563,10816 L 1663,10916 1763,10816 1663,10716 1563,10816 Z"/>
 <path fill="none" stroke="rgb(255,66,14)" stroke-linejoin="round" d="M 1563,10816 L 1663,10916 1763,10816 1663,10716 1563,10816 Z"/>
 <path fill="rgb(255,66,14)" stroke="none" d="M 1733,10816 L 1833,10916 1933,10816 1833,10716 1733,10816 Z"/>
 <path fill="none" stroke="rgb(255,66,14)" stroke-linejoin="round" d="M 1733,10816 L 1833,10916 1933,10816 1833,10716 1733,10816 Z"/>
 <path fill="rgb(255,66,14)" stroke="none" d="M 1904,10816 L 2004,10916 2104,10816 2004,10716 1904,10816 Z"/>
 <path fill="none" stroke="rgb(255,66,14)" stroke-linejoin="round" d="M 1904,10816 L 2004,10916 2104,10816 2004,10716 1904,10816 Z"/>
 <path fill="rgb(255,66,14)" stroke="none" d="M 2074,10816 L 2174,10916 2274,10816 2174,10716 2074,10816 Z"/>
 <path fill="none" stroke="rgb(255,66,14)" stroke-linejoin="round" d="M 2074,10816 L 2174,10916 2274,10816 2174,10716 2074,10816 Z"/>
 <path fill="rgb(255,66,14)" stroke="none" d="M 2245,10809 L 2345,10909 2445,10809 2345,10709 2245,10809 Z"/>
 <path fill="none" stroke="rgb(255,66,14)" stroke-linejoin="round" d="M 2245,10809 L 2345,10909 2445,10809 2345,10709 2245,10809 Z"/>
 <path fill="rgb(255,66,14)" stroke="none" d="M 2415,10816 L 2515,10916 2615,10816 2515,10716 2415,10816 Z"/>
 <path fill="none" stroke="rgb(255,66,14)" stroke-linejoin="round" d="M 2415,10816 L 2515,10916 2615,10816 2515,10716 2415,10816 Z"/>
 <path fill="rgb(255,66,14)" stroke="none" d="M 2586,10816 L 2686,10916 2786,10816 2686,10716 2586,10816 Z"/>
 <path fill="none" stroke="rgb(255,66,14)" stroke-linejoin="round" d="M 2586,10816 L 2686,10916 2786,10816 2686,10716 2586,10816 Z"/>
 <path fill="rgb(255,66,14)" stroke="none" d="M 2756,10816 L 2856,10916 2956,10816 2856,10716 2756,10816 Z"/>
 <path fill="none" stroke="rgb(255,66,14)" stroke-linejoin="round" d="M 2756,10816 L 2856,10916 2956,10816 2856,10716 2756,10816 Z"/>
 <path fill="rgb(255,66,14)" stroke="none" d="M 2927,10816 L 3027,10916 3127,10816 3027,10716 2927,10816 Z"/>
 <path fill="none" stroke="rgb(255,66,14)" stroke-linejoin="round" d="M 2927,10816 L 3027,10916 3127,10816 3027,10716 2927,10816 Z"/>
 <path fill="rgb(255,66,14)" stroke="none" d="M 3097,10809 L 3197,10909 3297,10809 3197,10709 3097,10809 Z"/>
 <path fill="none" stroke="rgb(255,66,14)" stroke-linejoin="round" d="M 3097,10809 L 3197,10909 3297,10809 3197,10709 3097,10809 Z"/>
 <path fill="rgb(255,66,14)" stroke="none" d="M 3268,10809 L 3368,10909 3468,10809 3368,10709 3268,10809 Z"/>
 <path fill="none" stroke="rgb(255,66,14)" stroke-linejoin="round" d="M 3268,10809 L 3368,10909 3468,10809 3368,10709 3268,10809 Z"/>
 <path fill="rgb(255,66,14)" stroke="none" d="M 3438,10816 L 3538,10916 3638,10816 3538,10716 3438,10816 Z"/>
 <path fill="none" stroke="rgb(255,66,14)" stroke-linejoin="round" d="M 3438,10816 L 3538,10916 3638,10816 3538,10716 3438,10816 Z"/>
 <path fill="rgb(255,66,14)" stroke="none" d="M 3609,10796 L 3709,10896 3809,10796 3709,10696 3609,10796 Z"/>
 <path fill="none" stroke="rgb(255,66,14)" stroke-linejoin="round" d="M 3609,10796 L 3709,10896 3809,10796 3709,10696 3609,10796 Z"/>
 <path fill="rgb(255,66,14)" stroke="none" d="M 3779,10803 L 3879,10903 3979,10803 3879,10703 3779,10803 Z"/>
 <path fill="none" stroke="rgb(255,66,14)" stroke-linejoin="round" d="M 3779,10803 L 3879,10903 3979,10803 3879,10703 3779,10803 Z"/>
 <path fill="rgb(255,66,14)" stroke="none" d="M 3950,10770 L 4050,10870 4150,10770 4050,10670 3950,10770 Z"/>
 <path fill="none" stroke="rgb(255,66,14)" stroke-linejoin="round" d="M 3950,10770 L 4050,10870 4150,10770 4050,10670 3950,10770 Z"/>
 <path fill="rgb(255,66,14)" stroke="none" d="M 4120,10796 L 4220,10896 4320,10796 4220,10696 4120,10796 Z"/>
 <path fill="none" stroke="rgb(255,66,14)" stroke-linejoin="round" d="M 4120,10796 L 4220,10896 4320,10796 4220,10696 4120,10796 Z"/>
 <path fill="rgb(255,66,14)" stroke="none" d="M 4291,10803 L 4391,10903 4491,10803 4391,10703 4291,10803 Z"/>
 <path fill="none" stroke="rgb(255,66,14)" stroke-linejoin="round" d="M 4291,10803 L 4391,10903 4491,10803 4391,10703 4291,10803 Z"/>
 <path fill="rgb(255,66,14)" stroke="none" d="M 4461,10757 L 4561,10857 4661,10757 4561,10657 4461,10757 Z"/>
 <path fill="none" stroke="rgb(255,66,14)" stroke-linejoin="round" d="M 4461,10757 L 4561,10857 4661,10757 4561,10657 4461,10757 Z"/>
 <path fill="rgb(255,66,14)" stroke="none" d="M 4632,10699 L 4732,10799 4832,10699 4732,10599 4632,10699 Z"/>
 <path fill="none" stroke="rgb(255,66,14)" stroke-linejoin="round" d="M 4632,10699 L 4732,10799 4832,10699 4732,10599 4632,10699 Z"/>
 <path fill="rgb(255,66,14)" stroke="none" d="M 4802,10731 L 4902,10831 5002,10731 4902,10631 4802,10731 Z"/>
 <path fill="none" stroke="rgb(255,66,14)" stroke-linejoin="round" d="M 4802,10731 L 4902,10831 5002,10731 4902,10631 4802,10731 Z"/>
 <path fill="rgb(255,66,14)" stroke="none" d="M 4973,10699 L 5073,10799 5173,10699 5073,10599 4973,10699 Z"/>
 <path fill="none" stroke="rgb(255,66,14)" stroke-linejoin="round" d="M 4973,10699 L 5073,10799 5173,10699 5073,10599 4973,10699 Z"/>
 <path fill="rgb(255,66,14)" stroke="none" d="M 5143,10738 L 5243,10838 5343,10738 5243,10638 5143,10738 Z"/>
 <path fill="none" stroke="rgb(255,66,14)" stroke-linejoin="round" d="M 5143,10738 L 5243,10838 5343,10738 5243,10638 5143,10738 Z"/>
 <path fill="rgb(255,66,14)" stroke="none" d="M 5314,10628 L 5414,10728 5514,10628 5414,10528 5314,10628 Z"/>
 <path fill="none" stroke="rgb(255,66,14)" stroke-linejoin="round" d="M 5314,10628 L 5414,10728 5514,10628 5414,10528 5314,10628 Z"/>
 <path fill="rgb(255,66,14)" stroke="none" d="M 5484,10635 L 5584,10735 5684,10635 5584,10535 5484,10635 Z"/>
 <path fill="none" stroke="rgb(255,66,14)" stroke-linejoin="round" d="M 5484,10635 L 5584,10735 5684,10635 5584,10535 5484,10635 Z"/>
 <path fill="rgb(255,66,14)" stroke="none" d="M 5655,10641 L 5755,10741 5855,10641 5755,10541 5655,10641 Z"/>
 <path fill="none" stroke="rgb(255,66,14)" stroke-linejoin="round" d="M 5655,10641 L 5755,10741 5855,10641 5755,10541 5655,10641 Z"/>
 <path fill="rgb(255,66,14)" stroke="none" d="M 5825,10370 L 5925,10470 6025,10370 5925,10270 5825,10370 Z"/>
 <path fill="none" stroke="rgb(255,66,14)" stroke-linejoin="round" d="M 5825,10370 L 5925,10470 6025,10370 5925,10270 5825,10370 Z"/>
 <path fill="rgb(255,66,14)" stroke="none" d="M 5996,9988 L 6096,10088 6196,9988 6096,9888 5996,9988 Z"/>
 <path fill="none" stroke="rgb(255,66,14)" stroke-linejoin="round" d="M 5996,9988 L 6096,10088 6196,9988 6096,9888 5996,9988 Z"/>
 <path fill="rgb(255,66,14)" stroke="none" d="M 6166,10311 L 6266,10411 6366,10311 6266,10211 6166,10311 Z"/>
 <path fill="none" stroke="rgb(255,66,14)" stroke-linejoin="round" d="M 6166,10311 L 6266,10411 6366,10311 6266,10211 6166,10311 Z"/>
 <path fill="rgb(255,66,14)" stroke="none" d="M 6337,10092 L 6437,10192 6537,10092 6437,9992 6337,10092 Z"/>
 <path fill="none" stroke="rgb(255,66,14)" stroke-linejoin="round" d="M 6337,10092 L 6437,10192 6537,10092 6437,9992 6337,10092 Z"/>
 <path fill="rgb(255,66,14)" stroke="none" d="M 6507,10092 L 6607,10192 6707,10092 6607,9992 6507,10092 Z"/>
 <path fill="none" stroke="rgb(255,66,14)" stroke-linejoin="round" d="M 6507,10092 L 6607,10192 6707,10092 6607,9992 6507,10092 Z"/>
 <path fill="rgb(255,66,14)" stroke="none" d="M 6678,9613 L 6778,9713 6878,9613 6778,9513 6678,9613 Z"/>
 <path fill="none" stroke="rgb(255,66,14)" stroke-linejoin="round" d="M 6678,9613 L 6778,9713 6878,9613 6778,9513 6678,9613 Z"/>
 <path fill="rgb(255,66,14)" stroke="none" d="M 6848,9264 L 6948,9364 7048,9264 6948,9164 6848,9264 Z"/>
 <path fill="none" stroke="rgb(255,66,14)" stroke-linejoin="round" d="M 6848,9264 L 6948,9364 7048,9264 6948,9164 6848,9264 Z"/>
 <path fill="rgb(255,66,14)" stroke="none" d="M 7019,9323 L 7119,9423 7219,9323 7119,9223 7019,9323 Z"/>
 <path fill="none" stroke="rgb(255,66,14)" stroke-linejoin="round" d="M 7019,9323 L 7119,9423 7219,9323 7119,9223 7019,9323 Z"/>
 <path fill="rgb(255,66,14)" stroke="none" d="M 7189,8457 L 7289,8557 7389,8457 7289,8357 7189,8457 Z"/>
 <path fill="none" stroke="rgb(255,66,14)" stroke-linejoin="round" d="M 7189,8457 L 7289,8557 7389,8457 7289,8357 7189,8457 Z"/>
 <path fill="rgb(255,66,14)" stroke="none" d="M 7360,8883 L 7460,8983 7559,8883 7460,8783 7360,8883 Z"/>
 <path fill="none" stroke="rgb(255,66,14)" stroke-linejoin="round" d="M 7360,8883 L 7460,8983 7559,8883 7460,8783 7360,8883 Z"/>
 <path fill="rgb(255,66,14)" stroke="none" d="M 7529,8754 L 7629,8854 7729,8754 7629,8654 7529,8754 Z"/>
 <path fill="none" stroke="rgb(255,66,14)" stroke-linejoin="round" d="M 7529,8754 L 7629,8854 7729,8754 7629,8654 7529,8754 Z"/>
 <path fill="rgb(255,66,14)" stroke="none" d="M 7700,8928 L 7800,9028 7900,8928 7800,8828 7700,8928 Z"/>
 <path fill="none" stroke="rgb(255,66,14)" stroke-linejoin="round" d="M 7700,8928 L 7800,9028 7900,8928 7800,8828 7700,8928 Z"/>
 <path fill="rgb(255,66,14)" stroke="none" d="M 7870,8114 L 7970,8214 8070,8114 7970,8014 7870,8114 Z"/>
 <path fill="none" stroke="rgb(255,66,14)" stroke-linejoin="round" d="M 7870,8114 L 7970,8214 8070,8114 7970,8014 7870,8114 Z"/>
 <path fill="rgb(255,66,14)" stroke="none" d="M 8040,7591 L 8140,7691 8240,7591 8140,7491 8040,7591 Z"/>
 <path fill="none" stroke="rgb(255,66,14)" stroke-linejoin="round" d="M 8040,7591 L 8140,7691 8240,7591 8140,7491 8040,7591 Z"/>
 <path fill="rgb(255,66,14)" stroke="none" d="M 8211,7526 L 8311,7626 8411,7526 8311,7426 8211,7526 Z"/>
 <path fill="none" stroke="rgb(255,66,14)" stroke-linejoin="round" d="M 8211,7526 L 8311,7626 8411,7526 8311,7426 8211,7526 Z"/>
 <path fill="rgb(255,66,14)" stroke="none" d="M 8381,2060 L 8481,2160 8581,2060 8481,1960 8381,2060 Z"/>
 <path fill="none" stroke="rgb(255,66,14)" stroke-linejoin="round" d="M 8381,2060 L 8481,2160 8581,2060 8481,1960 8381,2060 Z"/>
 <path fill="rgb(255,66,14)" stroke="none" d="M 8552,3578 L 8652,3678 8752,3578 8652,3478 8552,3578 Z"/>
 <path fill="none" stroke="rgb(255,66,14)" stroke-linejoin="round" d="M 8552,3578 L 8652,3678 8752,3578 8652,3478 8552,3578 Z"/>
 <path fill="rgb(255,66,14)" stroke="none" d="M 8722,4011 L 8822,4111 8922,4011 8822,3911 8722,4011 Z"/>
 <path fill="none" stroke="rgb(255,66,14)" stroke-linejoin="round" d="M 8722,4011 L 8822,4111 8922,4011 8822,3911 8722,4011 Z"/>
 <path fill="rgb(255,66,14)" stroke="none" d="M 8893,7468 L 8993,7568 9093,7468 8993,7368 8893,7468 Z"/>
 <path fill="none" stroke="rgb(255,66,14)" stroke-linejoin="round" d="M 8893,7468 L 8993,7568 9093,7468 8993,7368 8893,7468 Z"/>
 <path fill="rgb(255,66,14)" stroke="none" d="M 9063,5433 L 9163,5533 9263,5433 9163,5333 9063,5433 Z"/>
 <path fill="none" stroke="rgb(255,66,14)" stroke-linejoin="round" d="M 9063,5433 L 9163,5533 9263,5433 9163,5333 9063,5433 Z"/>
 <path fill="rgb(255,66,14)" stroke="none" d="M 9234,1659 L 9334,1759 9434,1659 9334,1559 9234,1659 Z"/>
 <path fill="none" stroke="rgb(255,66,14)" stroke-linejoin="round" d="M 9234,1659 L 9334,1759 9434,1659 9334,1559 9234,1659 Z"/>
 <path fill="rgb(255,66,14)" stroke="none" d="M 9404,7319 L 9504,7419 9604,7319 9504,7219 9404,7319 Z"/>
 <path fill="none" stroke="rgb(255,66,14)" stroke-linejoin="round" d="M 9404,7319 L 9504,7419 9604,7319 9504,7219 9404,7319 Z"/>
 <path fill="rgb(255,66,14)" stroke="none" d="M 9575,2150 L 9675,2250 9775,2150 9675,2050 9575,2150 Z"/>
 <path fill="none" stroke="rgb(255,66,14)" stroke-linejoin="round" d="M 9575,2150 L 9675,2250 9775,2150 9675,2050 9575,2150 Z"/>
 <path fill="rgb(255,66,14)" stroke="none" d="M 9745,4438 L 9845,4538 9945,4438 9845,4338 9745,4438 Z"/>
 <path fill="none" stroke="rgb(255,66,14)" stroke-linejoin="round" d="M 9745,4438 L 9845,4538 9945,4438 9845,4338 9745,4438 Z"/>
 <path fill="rgb(255,66,14)" stroke="none" d="M 9916,6712 L 10016,6812 10116,6712 10016,6612 9916,6712 Z"/>
 <path fill="none" stroke="rgb(255,66,14)" stroke-linejoin="round" d="M 9916,6712 L 10016,6812 10116,6712 10016,6612 9916,6712 Z"/>
 <path fill="rgb(255,66,14)" stroke="none" d="M 10086,7190 L 10186,7290 10286,7190 10186,7090 10086,7190 Z"/>
 <path fill="none" stroke="rgb(255,66,14)" stroke-linejoin="round" d="M 10086,7190 L 10186,7290 10286,7190 10186,7090 10086,7190 Z"/>
 <path fill="rgb(255,66,14)" stroke="none" d="M 10257,7106 L 10357,7206 10457,7106 10357,7006 10257,7106 Z"/>
 <path fill="none" stroke="rgb(255,66,14)" stroke-linejoin="round" d="M 10257,7106 L 10357,7206 10457,7106 10357,7006 10257,7106 Z"/>
 <path fill="rgb(255,66,14)" stroke="none" d="M 10427,5892 L 10527,5992 10627,5892 10527,5792 10427,5892 Z"/>
 <path fill="none" stroke="rgb(255,66,14)" stroke-linejoin="round" d="M 10427,5892 L 10527,5992 10627,5892 10527,5792 10427,5892 Z"/>
 <path fill="rgb(255,66,14)" stroke="none" d="M 10598,1523 L 10698,1623 10798,1523 10698,1423 10598,1523 Z"/>
 <path fill="none" stroke="rgb(255,66,14)" stroke-linejoin="round" d="M 10598,1523 L 10698,1623 10798,1523 10698,1423 10598,1523 Z"/>
 <path fill="rgb(255,66,14)" stroke="none" d="M 10768,5950 L 10868,6049 10968,5950 10868,5850 10768,5950 Z"/>
 <path fill="none" stroke="rgb(255,66,14)" stroke-linejoin="round" d="M 10768,5950 L 10868,6049 10968,5950 10868,5850 10768,5950 Z"/>
 <path fill="rgb(255,66,14)" stroke="none" d="M 10939,5898 L 11039,5998 11139,5898 11039,5798 10939,5898 Z"/>
 <path fill="none" stroke="rgb(255,66,14)" stroke-linejoin="round" d="M 10939,5898 L 11039,5998 11139,5898 11039,5798 10939,5898 Z"/>
 <path fill="rgb(255,66,14)" stroke="none" d="M 11109,6666 L 11209,6766 11309,6666 11209,6566 11109,6666 Z"/>
 <path fill="none" stroke="rgb(255,66,14)" stroke-linejoin="round" d="M 11109,6666 L 11209,6766 11309,6666 11209,6566 11109,6666 Z"/>
 <path fill="rgb(255,66,14)" stroke="none" d="M 11280,8263 L 11380,8363 11480,8263 11380,8163 11280,8263 Z"/>
 <path fill="none" stroke="rgb(255,66,14)" stroke-linejoin="round" d="M 11280,8263 L 11380,8363 11480,8263 11380,8163 11280,8263 Z"/>
 <path fill="rgb(255,66,14)" stroke="none" d="M 11450,7280 L 11550,7380 11650,7280 11550,7180 11450,7280 Z"/>
 <path fill="none" stroke="rgb(255,66,14)" stroke-linejoin="round" d="M 11450,7280 L 11550,7380 11650,7280 11550,7180 11450,7280 Z"/>
 <path fill="rgb(255,66,14)" stroke="none" d="M 11621,7384 L 11721,7484 11821,7384 11721,7284 11621,7384 Z"/>
 <path fill="none" stroke="rgb(255,66,14)" stroke-linejoin="round" d="M 11621,7384 L 11721,7484 11821,7384 11721,7284 11621,7384 Z"/>
 <path fill="rgb(255,66,14)" stroke="none" d="M 11791,7300 L 11891,7400 11991,7300 11891,7200 11791,7300 Z"/>
 <path fill="none" stroke="rgb(255,66,14)" stroke-linejoin="round" d="M 11791,7300 L 11891,7400 11991,7300 11891,7200 11791,7300 Z"/>
 <path fill="rgb(255,66,14)" stroke="none" d="M 11962,7481 L 12062,7581 12162,7481 12062,7381 11962,7481 Z"/>
 <path fill="none" stroke="rgb(255,66,14)" stroke-linejoin="round" d="M 11962,7481 L 12062,7581 12162,7481 12062,7381 11962,7481 Z"/>
 <path fill="rgb(255,66,14)" stroke="none" d="M 12132,8302 L 12232,8402 12332,8302 12232,8202 12132,8302 Z"/>
 <path fill="none" stroke="rgb(255,66,14)" stroke-linejoin="round" d="M 12132,8302 L 12232,8402 12332,8302 12232,8202 12132,8302 Z"/>
 <path fill="rgb(255,66,14)" stroke="none" d="M 12303,8431 L 12403,8531 12503,8431 12403,8331 12303,8431 Z"/>
 <path fill="none" stroke="rgb(255,66,14)" stroke-linejoin="round" d="M 12303,8431 L 12403,8531 12503,8431 12403,8331 12303,8431 Z"/>
 <path fill="rgb(255,66,14)" stroke="none" d="M 12473,9252 L 12573,9352 12673,9252 12573,9152 12473,9252 Z"/>
 <path fill="none" stroke="rgb(255,66,14)" stroke-linejoin="round" d="M 12473,9252 L 12573,9352 12673,9252 12573,9152 12473,9252 Z"/>
 <path fill="rgb(255,66,14)" stroke="none" d="M 12644,7991 L 12744,8091 12844,7991 12744,7891 12644,7991 Z"/>
 <path fill="none" stroke="rgb(255,66,14)" stroke-linejoin="round" d="M 12644,7991 L 12744,8091 12844,7991 12744,7891 12644,7991 Z"/>
 <path fill="rgb(255,66,14)" stroke="none" d="M 12814,8444 L 12914,8544 13014,8444 12914,8344 12814,8444 Z"/>
 <path fill="none" stroke="rgb(255,66,14)" stroke-linejoin="round" d="M 12814,8444 L 12914,8544 13014,8444 12914,8344 12814,8444 Z"/>
 <path fill="rgb(255,66,14)" stroke="none" d="M 12985,8056 L 13085,8156 13185,8056 13085,7956 12985,8056 Z"/>
 <path fill="none" stroke="rgb(255,66,14)" stroke-linejoin="round" d="M 12985,8056 L 13085,8156 13185,8056 13085,7956 12985,8056 Z"/>
 <path fill="rgb(255,66,14)" stroke="none" d="M 13155,8948 L 13255,9048 13355,8948 13255,8848 13155,8948 Z"/>
 <path fill="none" stroke="rgb(255,66,14)" stroke-linejoin="round" d="M 13155,8948 L 13255,9048 13355,8948 13255,8848 13155,8948 Z"/>
 <path fill="rgb(255,66,14)" stroke="none" d="M 13326,9407 L 13426,9507 13526,9407 13426,9307 13326,9407 Z"/>
 <path fill="none" stroke="rgb(255,66,14)" stroke-linejoin="round" d="M 13326,9407 L 13426,9507 13526,9407 13426,9307 13326,9407 Z"/>
 <path fill="rgb(255,66,14)" stroke="none" d="M 13496,9743 L 13596,9843 13696,9743 13596,9643 13496,9743 Z"/>
 <path fill="none" stroke="rgb(255,66,14)" stroke-linejoin="round" d="M 13496,9743 L 13596,9843 13696,9743 13596,9643 13496,9743 Z"/>
 <path fill="rgb(255,66,14)" stroke="none" d="M 13667,9943 L 13767,10043 13867,9943 13767,9843 13667,9943 Z"/>
 <path fill="none" stroke="rgb(255,66,14)" stroke-linejoin="round" d="M 13667,9943 L 13767,10043 13867,9943 13767,9843 13667,9943 Z"/>
 <path fill="rgb(255,66,14)" stroke="none" d="M 13837,8838 L 13937,8938 14037,8838 13937,8738 13837,8838 Z"/>
 <path fill="none" stroke="rgb(255,66,14)" stroke-linejoin="round" d="M 13837,8838 L 13937,8938 14037,8838 13937,8738 13837,8838 Z"/>
 <path fill="rgb(255,66,14)" stroke="none" d="M 14008,8683 L 14108,8783 14208,8683 14108,8583 14008,8683 Z"/>
 <path fill="none" stroke="rgb(255,66,14)" stroke-linejoin="round" d="M 14008,8683 L 14108,8783 14208,8683 14108,8583 14008,8683 Z"/>
 <path fill="rgb(255,66,14)" stroke="none" d="M 14178,9019 L 14278,9119 14378,9019 14278,8919 14178,9019 Z"/>
 <path fill="none" stroke="rgb(255,66,14)" stroke-linejoin="round" d="M 14178,9019 L 14278,9119 14378,9019 14278,8919 14178,9019 Z"/>
 <path fill="rgb(255,66,14)" stroke="none" d="M 14349,9665 L 14449,9765 14549,9665 14449,9565 14349,9665 Z"/>
 <path fill="none" stroke="rgb(255,66,14)" stroke-linejoin="round" d="M 14349,9665 L 14449,9765 14549,9665 14449,9565 14349,9665 Z"/>
 <path fill="rgb(255,66,14)" stroke="none" d="M 14519,9245 L 14619,9345 14719,9245 14619,9145 14519,9245 Z"/>
 <path fill="none" stroke="rgb(255,66,14)" stroke-linejoin="round" d="M 14519,9245 L 14619,9345 14719,9245 14619,9145 14519,9245 Z"/>
 <path fill="none" stroke="rgb(255,211,32)" stroke-width="50" stroke-linejoin="round" d="M 1492,10809 L 1663,10809 1833,10809 2004,10790 2174,10796 2345,10803 2515,10783 2686,10790 2856,10764 3027,10783 3197,10699 3368,10641 3538,10635 3709,10551 3879,10499 4050,10583 4220,9956 4391,10189 4561,9730 4732,9549 4902,9594 5073,9200 5243,9685 5414,8437 5584,8560 5755,8586 5925,7746 6096,8056 6266,6763 6437,5692 6607,6608 6778,6931 6948,6014 7119,6401 7289,6537 7460,4554 7629,5071 7800,5931 7970,5569 8140,5407 8311,6117 8481,5905 8652,5866 8822,6414 8993,7423 9163,6705 9334,6912 9504,7313 9675,6873 9845,7132 10016,6815 10186,8030 10357,7158 10527,6925 10698,7080 10868,7423 11039,7099 11209,7700 11380,8017 11550,7881 11721,7364 11891,7991 12062,7817 12232,8101 12403,8133 12573,9135 12744,8663 12914,8347 13085,8728 13255,8974 13426,9077 13596,7752 13767,9691 13937,9555 14108,9290 14278,8431 14449,9045 14619,9245"/>
 <path fill="rgb(255,211,32)" stroke="none" d="M 1392,10709 L 1492,10909 1592,10709 1392,10709 Z"/>
 <path fill="none" stroke="rgb(255,211,32)" stroke-linejoin="round" d="M 1392,10709 L 1492,10909 1592,10709 1392,10709 Z"/>
 <path fill="rgb(255,211,32)" stroke="none" d="M 1563,10709 L 1663,10909 1763,10709 1563,10709 Z"/>
 <path fill="none" stroke="rgb(255,211,32)" stroke-linejoin="round" d="M 1563,10709 L 1663,10909 1763,10709 1563,10709 Z"/>
 <path fill="rgb(255,211,32)" stroke="none" d="M 1733,10709 L 1833,10909 1933,10709 1733,10709 Z"/>
 <path fill="none" stroke="rgb(255,211,32)" stroke-linejoin="round" d="M 1733,10709 L 1833,10909 1933,10709 1733,10709 Z"/>
 <path fill="rgb(255,211,32)" stroke="none" d="M 1904,10690 L 2004,10890 2104,10690 1904,10690 Z"/>
 <path fill="none" stroke="rgb(255,211,32)" stroke-linejoin="round" d="M 1904,10690 L 2004,10890 2104,10690 1904,10690 Z"/>
 <path fill="rgb(255,211,32)" stroke="none" d="M 2074,10696 L 2174,10896 2274,10696 2074,10696 Z"/>
 <path fill="none" stroke="rgb(255,211,32)" stroke-linejoin="round" d="M 2074,10696 L 2174,10896 2274,10696 2074,10696 Z"/>
 <path fill="rgb(255,211,32)" stroke="none" d="M 2245,10703 L 2345,10903 2445,10703 2245,10703 Z"/>
 <path fill="none" stroke="rgb(255,211,32)" stroke-linejoin="round" d="M 2245,10703 L 2345,10903 2445,10703 2245,10703 Z"/>
 <path fill="rgb(255,211,32)" stroke="none" d="M 2415,10683 L 2515,10883 2615,10683 2415,10683 Z"/>
 <path fill="none" stroke="rgb(255,211,32)" stroke-linejoin="round" d="M 2415,10683 L 2515,10883 2615,10683 2415,10683 Z"/>
 <path fill="rgb(255,211,32)" stroke="none" d="M 2586,10690 L 2686,10890 2786,10690 2586,10690 Z"/>
 <path fill="none" stroke="rgb(255,211,32)" stroke-linejoin="round" d="M 2586,10690 L 2686,10890 2786,10690 2586,10690 Z"/>
 <path fill="rgb(255,211,32)" stroke="none" d="M 2756,10664 L 2856,10864 2956,10664 2756,10664 Z"/>
 <path fill="none" stroke="rgb(255,211,32)" stroke-linejoin="round" d="M 2756,10664 L 2856,10864 2956,10664 2756,10664 Z"/>
 <path fill="rgb(255,211,32)" stroke="none" d="M 2927,10683 L 3027,10883 3127,10683 2927,10683 Z"/>
 <path fill="none" stroke="rgb(255,211,32)" stroke-linejoin="round" d="M 2927,10683 L 3027,10883 3127,10683 2927,10683 Z"/>
 <path fill="rgb(255,211,32)" stroke="none" d="M 3097,10599 L 3197,10799 3297,10599 3097,10599 Z"/>
 <path fill="none" stroke="rgb(255,211,32)" stroke-linejoin="round" d="M 3097,10599 L 3197,10799 3297,10599 3097,10599 Z"/>
 <path fill="rgb(255,211,32)" stroke="none" d="M 3268,10541 L 3368,10741 3468,10541 3268,10541 Z"/>
 <path fill="none" stroke="rgb(255,211,32)" stroke-linejoin="round" d="M 3268,10541 L 3368,10741 3468,10541 3268,10541 Z"/>
 <path fill="rgb(255,211,32)" stroke="none" d="M 3438,10535 L 3538,10735 3638,10535 3438,10535 Z"/>
 <path fill="none" stroke="rgb(255,211,32)" stroke-linejoin="round" d="M 3438,10535 L 3538,10735 3638,10535 3438,10535 Z"/>
 <path fill="rgb(255,211,32)" stroke="none" d="M 3609,10451 L 3709,10651 3809,10451 3609,10451 Z"/>
 <path fill="none" stroke="rgb(255,211,32)" stroke-linejoin="round" d="M 3609,10451 L 3709,10651 3809,10451 3609,10451 Z"/>
 <path fill="rgb(255,211,32)" stroke="none" d="M 3779,10399 L 3879,10599 3979,10399 3779,10399 Z"/>
 <path fill="none" stroke="rgb(255,211,32)" stroke-linejoin="round" d="M 3779,10399 L 3879,10599 3979,10399 3779,10399 Z"/>
 <path fill="rgb(255,211,32)" stroke="none" d="M 3950,10483 L 4050,10683 4150,10483 3950,10483 Z"/>
 <path fill="none" stroke="rgb(255,211,32)" stroke-linejoin="round" d="M 3950,10483 L 4050,10683 4150,10483 3950,10483 Z"/>
 <path fill="rgb(255,211,32)" stroke="none" d="M 4120,9856 L 4220,10056 4320,9856 4120,9856 Z"/>
 <path fill="none" stroke="rgb(255,211,32)" stroke-linejoin="round" d="M 4120,9856 L 4220,10056 4320,9856 4120,9856 Z"/>
 <path fill="rgb(255,211,32)" stroke="none" d="M 4291,10089 L 4391,10289 4491,10089 4291,10089 Z"/>
 <path fill="none" stroke="rgb(255,211,32)" stroke-linejoin="round" d="M 4291,10089 L 4391,10289 4491,10089 4291,10089 Z"/>
 <path fill="rgb(255,211,32)" stroke="none" d="M 4461,9630 L 4561,9830 4661,9630 4461,9630 Z"/>
 <path fill="none" stroke="rgb(255,211,32)" stroke-linejoin="round" d="M 4461,9630 L 4561,9830 4661,9630 4461,9630 Z"/>
 <path fill="rgb(255,211,32)" stroke="none" d="M 4632,9449 L 4732,9649 4832,9449 4632,9449 Z"/>
 <path fill="none" stroke="rgb(255,211,32)" stroke-linejoin="round" d="M 4632,9449 L 4732,9649 4832,9449 4632,9449 Z"/>
 <path fill="rgb(255,211,32)" stroke="none" d="M 4802,9494 L 4902,9694 5002,9494 4802,9494 Z"/>
 <path fill="none" stroke="rgb(255,211,32)" stroke-linejoin="round" d="M 4802,9494 L 4902,9694 5002,9494 4802,9494 Z"/>
 <path fill="rgb(255,211,32)" stroke="none" d="M 4973,9100 L 5073,9300 5173,9100 4973,9100 Z"/>
 <path fill="none" stroke="rgb(255,211,32)" stroke-linejoin="round" d="M 4973,9100 L 5073,9300 5173,9100 4973,9100 Z"/>
 <path fill="rgb(255,211,32)" stroke="none" d="M 5143,9585 L 5243,9785 5343,9585 5143,9585 Z"/>
 <path fill="none" stroke="rgb(255,211,32)" stroke-linejoin="round" d="M 5143,9585 L 5243,9785 5343,9585 5143,9585 Z"/>
 <path fill="rgb(255,211,32)" stroke="none" d="M 5314,8337 L 5414,8537 5514,8337 5314,8337 Z"/>
 <path fill="none" stroke="rgb(255,211,32)" stroke-linejoin="round" d="M 5314,8337 L 5414,8537 5514,8337 5314,8337 Z"/>
 <path fill="rgb(255,211,32)" stroke="none" d="M 5484,8460 L 5584,8660 5684,8460 5484,8460 Z"/>
 <path fill="none" stroke="rgb(255,211,32)" stroke-linejoin="round" d="M 5484,8460 L 5584,8660 5684,8460 5484,8460 Z"/>
 <path fill="rgb(255,211,32)" stroke="none" d="M 5655,8486 L 5755,8686 5855,8486 5655,8486 Z"/>
 <path fill="none" stroke="rgb(255,211,32)" stroke-linejoin="round" d="M 5655,8486 L 5755,8686 5855,8486 5655,8486 Z"/>
 <path fill="rgb(255,211,32)" stroke="none" d="M 5825,7646 L 5925,7846 6025,7646 5825,7646 Z"/>
 <path fill="none" stroke="rgb(255,211,32)" stroke-linejoin="round" d="M 5825,7646 L 5925,7846 6025,7646 5825,7646 Z"/>
 <path fill="rgb(255,211,32)" stroke="none" d="M 5996,7956 L 6096,8156 6196,7956 5996,7956 Z"/>
 <path fill="none" stroke="rgb(255,211,32)" stroke-linejoin="round" d="M 5996,7956 L 6096,8156 6196,7956 5996,7956 Z"/>
 <path fill="rgb(255,211,32)" stroke="none" d="M 6166,6663 L 6266,6863 6366,6663 6166,6663 Z"/>
 <path fill="none" stroke="rgb(255,211,32)" stroke-linejoin="round" d="M 6166,6663 L 6266,6863 6366,6663 6166,6663 Z"/>
 <path fill="rgb(255,211,32)" stroke="none" d="M 6337,5592 L 6437,5792 6537,5592 6337,5592 Z"/>
 <path fill="none" stroke="rgb(255,211,32)" stroke-linejoin="round" d="M 6337,5592 L 6437,5792 6537,5592 6337,5592 Z"/>
 <path fill="rgb(255,211,32)" stroke="none" d="M 6507,6508 L 6607,6708 6707,6508 6507,6508 Z"/>
 <path fill="none" stroke="rgb(255,211,32)" stroke-linejoin="round" d="M 6507,6508 L 6607,6708 6707,6508 6507,6508 Z"/>
 <path fill="rgb(255,211,32)" stroke="none" d="M 6678,6831 L 6778,7031 6878,6831 6678,6831 Z"/>
 <path fill="none" stroke="rgb(255,211,32)" stroke-linejoin="round" d="M 6678,6831 L 6778,7031 6878,6831 6678,6831 Z"/>
 <path fill="rgb(255,211,32)" stroke="none" d="M 6848,5915 L 6948,6114 7048,5915 6848,5915 Z"/>
 <path fill="none" stroke="rgb(255,211,32)" stroke-linejoin="round" d="M 6848,5915 L 6948,6114 7048,5915 6848,5915 Z"/>
 <path fill="rgb(255,211,32)" stroke="none" d="M 7019,6301 L 7119,6501 7219,6301 7019,6301 Z"/>
 <path fill="none" stroke="rgb(255,211,32)" stroke-linejoin="round" d="M 7019,6301 L 7119,6501 7219,6301 7019,6301 Z"/>
 <path fill="rgb(255,211,32)" stroke="none" d="M 7189,6437 L 7289,6637 7389,6437 7189,6437 Z"/>
 <path fill="none" stroke="rgb(255,211,32)" stroke-linejoin="round" d="M 7189,6437 L 7289,6637 7389,6437 7189,6437 Z"/>
 <path fill="rgb(255,211,32)" stroke="none" d="M 7360,4454 L 7460,4654 7559,4454 7360,4454 Z"/>
 <path fill="none" stroke="rgb(255,211,32)" stroke-linejoin="round" d="M 7360,4454 L 7460,4654 7559,4454 7360,4454 Z"/>
 <path fill="rgb(255,211,32)" stroke="none" d="M 7529,4971 L 7629,5171 7729,4971 7529,4971 Z"/>
 <path fill="none" stroke="rgb(255,211,32)" stroke-linejoin="round" d="M 7529,4971 L 7629,5171 7729,4971 7529,4971 Z"/>
 <path fill="rgb(255,211,32)" stroke="none" d="M 7700,5831 L 7800,6030 7900,5831 7700,5831 Z"/>
 <path fill="none" stroke="rgb(255,211,32)" stroke-linejoin="round" d="M 7700,5831 L 7800,6030 7900,5831 7700,5831 Z"/>
 <path fill="rgb(255,211,32)" stroke="none" d="M 7870,5469 L 7970,5669 8070,5469 7870,5469 Z"/>
 <path fill="none" stroke="rgb(255,211,32)" stroke-linejoin="round" d="M 7870,5469 L 7970,5669 8070,5469 7870,5469 Z"/>
 <path fill="rgb(255,211,32)" stroke="none" d="M 8040,5307 L 8140,5507 8240,5307 8040,5307 Z"/>
 <path fill="none" stroke="rgb(255,211,32)" stroke-linejoin="round" d="M 8040,5307 L 8140,5507 8240,5307 8040,5307 Z"/>
 <path fill="rgb(255,211,32)" stroke="none" d="M 8211,6017 L 8311,6217 8411,6017 8211,6017 Z"/>
 <path fill="none" stroke="rgb(255,211,32)" stroke-linejoin="round" d="M 8211,6017 L 8311,6217 8411,6017 8211,6017 Z"/>
 <path fill="rgb(255,211,32)" stroke="none" d="M 8381,5805 L 8481,6004 8581,5805 8381,5805 Z"/>
 <path fill="none" stroke="rgb(255,211,32)" stroke-linejoin="round" d="M 8381,5805 L 8481,6004 8581,5805 8381,5805 Z"/>
 <path fill="rgb(255,211,32)" stroke="none" d="M 8552,5766 L 8652,5966 8752,5766 8552,5766 Z"/>
 <path fill="none" stroke="rgb(255,211,32)" stroke-linejoin="round" d="M 8552,5766 L 8652,5966 8752,5766 8552,5766 Z"/>
 <path fill="rgb(255,211,32)" stroke="none" d="M 8722,6314 L 8822,6514 8922,6314 8722,6314 Z"/>
 <path fill="none" stroke="rgb(255,211,32)" stroke-linejoin="round" d="M 8722,6314 L 8822,6514 8922,6314 8722,6314 Z"/>
 <path fill="rgb(255,211,32)" stroke="none" d="M 8893,7323 L 8993,7523 9093,7323 8893,7323 Z"/>
 <path fill="none" stroke="rgb(255,211,32)" stroke-linejoin="round" d="M 8893,7323 L 8993,7523 9093,7323 8893,7323 Z"/>
 <path fill="rgb(255,211,32)" stroke="none" d="M 9063,6605 L 9163,6805 9263,6605 9063,6605 Z"/>
 <path fill="none" stroke="rgb(255,211,32)" stroke-linejoin="round" d="M 9063,6605 L 9163,6805 9263,6605 9063,6605 Z"/>
 <path fill="rgb(255,211,32)" stroke="none" d="M 9234,6812 L 9334,7012 9434,6812 9234,6812 Z"/>
 <path fill="none" stroke="rgb(255,211,32)" stroke-linejoin="round" d="M 9234,6812 L 9334,7012 9434,6812 9234,6812 Z"/>
 <path fill="rgb(255,211,32)" stroke="none" d="M 9404,7213 L 9504,7413 9604,7213 9404,7213 Z"/>
 <path fill="none" stroke="rgb(255,211,32)" stroke-linejoin="round" d="M 9404,7213 L 9504,7413 9604,7213 9404,7213 Z"/>
 <path fill="rgb(255,211,32)" stroke="none" d="M 9575,6773 L 9675,6973 9775,6773 9575,6773 Z"/>
 <path fill="none" stroke="rgb(255,211,32)" stroke-linejoin="round" d="M 9575,6773 L 9675,6973 9775,6773 9575,6773 Z"/>
 <path fill="rgb(255,211,32)" stroke="none" d="M 9745,7032 L 9845,7232 9945,7032 9745,7032 Z"/>
 <path fill="none" stroke="rgb(255,211,32)" stroke-linejoin="round" d="M 9745,7032 L 9845,7232 9945,7032 9745,7032 Z"/>
 <path fill="rgb(255,211,32)" stroke="none" d="M 9916,6715 L 10016,6915 10116,6715 9916,6715 Z"/>
 <path fill="none" stroke="rgb(255,211,32)" stroke-linejoin="round" d="M 9916,6715 L 10016,6915 10116,6715 9916,6715 Z"/>
 <path fill="rgb(255,211,32)" stroke="none" d="M 10086,7930 L 10186,8130 10286,7930 10086,7930 Z"/>
 <path fill="none" stroke="rgb(255,211,32)" stroke-linejoin="round" d="M 10086,7930 L 10186,8130 10286,7930 10086,7930 Z"/>
 <path fill="rgb(255,211,32)" stroke="none" d="M 10257,7058 L 10357,7258 10457,7058 10257,7058 Z"/>
 <path fill="none" stroke="rgb(255,211,32)" stroke-linejoin="round" d="M 10257,7058 L 10357,7258 10457,7058 10257,7058 Z"/>
 <path fill="rgb(255,211,32)" stroke="none" d="M 10427,6825 L 10527,7025 10627,6825 10427,6825 Z"/>
 <path fill="none" stroke="rgb(255,211,32)" stroke-linejoin="round" d="M 10427,6825 L 10527,7025 10627,6825 10427,6825 Z"/>
 <path fill="rgb(255,211,32)" stroke="none" d="M 10598,6980 L 10698,7180 10798,6980 10598,6980 Z"/>
 <path fill="none" stroke="rgb(255,211,32)" stroke-linejoin="round" d="M 10598,6980 L 10698,7180 10798,6980 10598,6980 Z"/>
 <path fill="rgb(255,211,32)" stroke="none" d="M 10768,7323 L 10868,7523 10968,7323 10768,7323 Z"/>
 <path fill="none" stroke="rgb(255,211,32)" stroke-linejoin="round" d="M 10768,7323 L 10868,7523 10968,7323 10768,7323 Z"/>
 <path fill="rgb(255,211,32)" stroke="none" d="M 10939,6999 L 11039,7199 11139,6999 10939,6999 Z"/>
 <path fill="none" stroke="rgb(255,211,32)" stroke-linejoin="round" d="M 10939,6999 L 11039,7199 11139,6999 10939,6999 Z"/>
 <path fill="rgb(255,211,32)" stroke="none" d="M 11109,7600 L 11209,7800 11309,7600 11109,7600 Z"/>
 <path fill="none" stroke="rgb(255,211,32)" stroke-linejoin="round" d="M 11109,7600 L 11209,7800 11309,7600 11109,7600 Z"/>
 <path fill="rgb(255,211,32)" stroke="none" d="M 11280,7917 L 11380,8117 11480,7917 11280,7917 Z"/>
 <path fill="none" stroke="rgb(255,211,32)" stroke-linejoin="round" d="M 11280,7917 L 11380,8117 11480,7917 11280,7917 Z"/>
 <path fill="rgb(255,211,32)" stroke="none" d="M 11450,7781 L 11550,7981 11650,7781 11450,7781 Z"/>
 <path fill="none" stroke="rgb(255,211,32)" stroke-linejoin="round" d="M 11450,7781 L 11550,7981 11650,7781 11450,7781 Z"/>
 <path fill="rgb(255,211,32)" stroke="none" d="M 11621,7264 L 11721,7464 11821,7264 11621,7264 Z"/>
 <path fill="none" stroke="rgb(255,211,32)" stroke-linejoin="round" d="M 11621,7264 L 11721,7464 11821,7264 11621,7264 Z"/>
 <path fill="rgb(255,211,32)" stroke="none" d="M 11791,7891 L 11891,8091 11991,7891 11791,7891 Z"/>
 <path fill="none" stroke="rgb(255,211,32)" stroke-linejoin="round" d="M 11791,7891 L 11891,8091 11991,7891 11791,7891 Z"/>
 <path fill="rgb(255,211,32)" stroke="none" d="M 11962,7717 L 12062,7917 12162,7717 11962,7717 Z"/>
 <path fill="none" stroke="rgb(255,211,32)" stroke-linejoin="round" d="M 11962,7717 L 12062,7917 12162,7717 11962,7717 Z"/>
 <path fill="rgb(255,211,32)" stroke="none" d="M 12132,8001 L 12232,8201 12332,8001 12132,8001 Z"/>
 <path fill="none" stroke="rgb(255,211,32)" stroke-linejoin="round" d="M 12132,8001 L 12232,8201 12332,8001 12132,8001 Z"/>
 <path fill="rgb(255,211,32)" stroke="none" d="M 12303,8033 L 12403,8233 12503,8033 12303,8033 Z"/>
 <path fill="none" stroke="rgb(255,211,32)" stroke-linejoin="round" d="M 12303,8033 L 12403,8233 12503,8033 12303,8033 Z"/>
 <path fill="rgb(255,211,32)" stroke="none" d="M 12473,9035 L 12573,9235 12673,9035 12473,9035 Z"/>
 <path fill="none" stroke="rgb(255,211,32)" stroke-linejoin="round" d="M 12473,9035 L 12573,9235 12673,9035 12473,9035 Z"/>
 <path fill="rgb(255,211,32)" stroke="none" d="M 12644,8563 L 12744,8763 12844,8563 12644,8563 Z"/>
 <path fill="none" stroke="rgb(255,211,32)" stroke-linejoin="round" d="M 12644,8563 L 12744,8763 12844,8563 12644,8563 Z"/>
 <path fill="rgb(255,211,32)" stroke="none" d="M 12814,8247 L 12914,8447 13014,8247 12814,8247 Z"/>
 <path fill="none" stroke="rgb(255,211,32)" stroke-linejoin="round" d="M 12814,8247 L 12914,8447 13014,8247 12814,8247 Z"/>
 <path fill="rgb(255,211,32)" stroke="none" d="M 12985,8628 L 13085,8828 13185,8628 12985,8628 Z"/>
 <path fill="none" stroke="rgb(255,211,32)" stroke-linejoin="round" d="M 12985,8628 L 13085,8828 13185,8628 12985,8628 Z"/>
 <path fill="rgb(255,211,32)" stroke="none" d="M 13155,8874 L 13255,9074 13355,8874 13155,8874 Z"/>
 <path fill="none" stroke="rgb(255,211,32)" stroke-linejoin="round" d="M 13155,8874 L 13255,9074 13355,8874 13155,8874 Z"/>
 <path fill="rgb(255,211,32)" stroke="none" d="M 13326,8977 L 13426,9177 13526,8977 13326,8977 Z"/>
 <path fill="none" stroke="rgb(255,211,32)" stroke-linejoin="round" d="M 13326,8977 L 13426,9177 13526,8977 13326,8977 Z"/>
 <path fill="rgb(255,211,32)" stroke="none" d="M 13496,7652 L 13596,7852 13696,7652 13496,7652 Z"/>
 <path fill="none" stroke="rgb(255,211,32)" stroke-linejoin="round" d="M 13496,7652 L 13596,7852 13696,7652 13496,7652 Z"/>
 <path fill="rgb(255,211,32)" stroke="none" d="M 13667,9591 L 13767,9791 13867,9591 13667,9591 Z"/>
 <path fill="none" stroke="rgb(255,211,32)" stroke-linejoin="round" d="M 13667,9591 L 13767,9791 13867,9591 13667,9591 Z"/>
 <path fill="rgb(255,211,32)" stroke="none" d="M 13837,9455 L 13937,9655 14037,9455 13837,9455 Z"/>
 <path fill="none" stroke="rgb(255,211,32)" stroke-linejoin="round" d="M 13837,9455 L 13937,9655 14037,9455 13837,9455 Z"/>
 <path fill="rgb(255,211,32)" stroke="none" d="M 14008,9190 L 14108,9390 14208,9190 14008,9190 Z"/>
 <path fill="none" stroke="rgb(255,211,32)" stroke-linejoin="round" d="M 14008,9190 L 14108,9390 14208,9190 14008,9190 Z"/>
 <path fill="rgb(255,211,32)" stroke="none" d="M 14178,8331 L 14278,8531 14378,8331 14178,8331 Z"/>
 <path fill="none" stroke="rgb(255,211,32)" stroke-linejoin="round" d="M 14178,8331 L 14278,8531 14378,8331 14178,8331 Z"/>
 <path fill="rgb(255,211,32)" stroke="none" d="M 14349,8945 L 14449,9145 14549,8945 14349,8945 Z"/>
 <path fill="none" stroke="rgb(255,211,32)" stroke-linejoin="round" d="M 14349,8945 L 14449,9145 14549,8945 14349,8945 Z"/>
 <path fill="rgb(255,211,32)" stroke="none" d="M 14519,9145 L 14619,9345 14719,9145 14519,9145 Z"/>
 <path fill="none" stroke="rgb(255,211,32)" stroke-linejoin="round" d="M 14519,9145 L 14619,9345 14719,9145 14519,9145 Z"/>
 <path fill="none" stroke="rgb(87,157,28)" stroke-width="50" stroke-linejoin="round" d="M 3709,10809 L 3879,10809 4050,10816 4220,10809 4391,10790 4561,10816 4732,10803 4902,10809 5073,10699 5243,10719 5414,10673 5584,10712 5755,10596 5925,10538 6096,10583 6266,10454 6437,10589 6607,10337 6778,9853 6948,9613 7119,9633 7289,8980 7460,8915 7629,9432 7800,8398 7970,8347 8140,6486 8311,6602 8481,6201 8652,5905 8822,6654 8993,7145 9163,4108 9334,4134 9504,3688 9675,3372 9845,5394 10016,6382 10186,6007 10357,4069 10527,5375 10698,4166 10868,4774 11039,3611 11209,7597 11380,7203 11550,3242 11721,5407 11891,6117 12062,4322 12232,5368 12403,8101 12573,8631 12744,4942 12914,5679 13085,6460 13255,6040 13426,6802 13596,8780 13767,8954 13937,6337 14108,6621 14278,7332 14449,6770"/>
 <path fill="rgb(87,157,28)" stroke="none" d="M 3609,10909 L 3809,10909 3709,10709 3609,10909 Z"/>
 <path fill="none" stroke="rgb(87,157,28)" stroke-linejoin="round" d="M 3609,10909 L 3809,10909 3709,10709 3609,10909 Z"/>
 <path fill="rgb(87,157,28)" stroke="none" d="M 3779,10909 L 3979,10909 3879,10709 3779,10909 Z"/>
 <path fill="none" stroke="rgb(87,157,28)" stroke-linejoin="round" d="M 3779,10909 L 3979,10909 3879,10709 3779,10909 Z"/>
 <path fill="rgb(87,157,28)" stroke="none" d="M 3950,10916 L 4150,10916 4050,10716 3950,10916 Z"/>
 <path fill="none" stroke="rgb(87,157,28)" stroke-linejoin="round" d="M 3950,10916 L 4150,10916 4050,10716 3950,10916 Z"/>
 <path fill="rgb(87,157,28)" stroke="none" d="M 4120,10909 L 4320,10909 4220,10709 4120,10909 Z"/>
 <path fill="none" stroke="rgb(87,157,28)" stroke-linejoin="round" d="M 4120,10909 L 4320,10909 4220,10709 4120,10909 Z"/>
 <path fill="rgb(87,157,28)" stroke="none" d="M 4291,10890 L 4491,10890 4391,10690 4291,10890 Z"/>
 <path fill="none" stroke="rgb(87,157,28)" stroke-linejoin="round" d="M 4291,10890 L 4491,10890 4391,10690 4291,10890 Z"/>
 <path fill="rgb(87,157,28)" stroke="none" d="M 4461,10916 L 4661,10916 4561,10716 4461,10916 Z"/>
 <path fill="none" stroke="rgb(87,157,28)" stroke-linejoin="round" d="M 4461,10916 L 4661,10916 4561,10716 4461,10916 Z"/>
 <path fill="rgb(87,157,28)" stroke="none" d="M 4632,10903 L 4832,10903 4732,10703 4632,10903 Z"/>
 <path fill="none" stroke="rgb(87,157,28)" stroke-linejoin="round" d="M 4632,10903 L 4832,10903 4732,10703 4632,10903 Z"/>
 <path fill="rgb(87,157,28)" stroke="none" d="M 4802,10909 L 5002,10909 4902,10709 4802,10909 Z"/>
 <path fill="none" stroke="rgb(87,157,28)" stroke-linejoin="round" d="M 4802,10909 L 5002,10909 4902,10709 4802,10909 Z"/>
 <path fill="rgb(87,157,28)" stroke="none" d="M 4973,10799 L 5173,10799 5073,10599 4973,10799 Z"/>
 <path fill="none" stroke="rgb(87,157,28)" stroke-linejoin="round" d="M 4973,10799 L 5173,10799 5073,10599 4973,10799 Z"/>
 <path fill="rgb(87,157,28)" stroke="none" d="M 5143,10819 L 5343,10819 5243,10619 5143,10819 Z"/>
 <path fill="none" stroke="rgb(87,157,28)" stroke-linejoin="round" d="M 5143,10819 L 5343,10819 5243,10619 5143,10819 Z"/>
 <path fill="rgb(87,157,28)" stroke="none" d="M 5314,10773 L 5514,10773 5414,10573 5314,10773 Z"/>
 <path fill="none" stroke="rgb(87,157,28)" stroke-linejoin="round" d="M 5314,10773 L 5514,10773 5414,10573 5314,10773 Z"/>
 <path fill="rgb(87,157,28)" stroke="none" d="M 5484,10812 L 5684,10812 5584,10612 5484,10812 Z"/>
 <path fill="none" stroke="rgb(87,157,28)" stroke-linejoin="round" d="M 5484,10812 L 5684,10812 5584,10612 5484,10812 Z"/>
 <path fill="rgb(87,157,28)" stroke="none" d="M 5655,10696 L 5855,10696 5755,10496 5655,10696 Z"/>
 <path fill="none" stroke="rgb(87,157,28)" stroke-linejoin="round" d="M 5655,10696 L 5855,10696 5755,10496 5655,10696 Z"/>
 <path fill="rgb(87,157,28)" stroke="none" d="M 5825,10638 L 6025,10638 5925,10438 5825,10638 Z"/>
 <path fill="none" stroke="rgb(87,157,28)" stroke-linejoin="round" d="M 5825,10638 L 6025,10638 5925,10438 5825,10638 Z"/>
 <path fill="rgb(87,157,28)" stroke="none" d="M 5996,10683 L 6196,10683 6096,10483 5996,10683 Z"/>
 <path fill="none" stroke="rgb(87,157,28)" stroke-linejoin="round" d="M 5996,10683 L 6196,10683 6096,10483 5996,10683 Z"/>
 <path fill="rgb(87,157,28)" stroke="none" d="M 6166,10554 L 6366,10554 6266,10354 6166,10554 Z"/>
 <path fill="none" stroke="rgb(87,157,28)" stroke-linejoin="round" d="M 6166,10554 L 6366,10554 6266,10354 6166,10554 Z"/>
 <path fill="rgb(87,157,28)" stroke="none" d="M 6337,10689 L 6537,10689 6437,10489 6337,10689 Z"/>
 <path fill="none" stroke="rgb(87,157,28)" stroke-linejoin="round" d="M 6337,10689 L 6537,10689 6437,10489 6337,10689 Z"/>
 <path fill="rgb(87,157,28)" stroke="none" d="M 6507,10437 L 6707,10437 6607,10237 6507,10437 Z"/>
 <path fill="none" stroke="rgb(87,157,28)" stroke-linejoin="round" d="M 6507,10437 L 6707,10437 6607,10237 6507,10437 Z"/>
 <path fill="rgb(87,157,28)" stroke="none" d="M 6678,9953 L 6878,9953 6778,9753 6678,9953 Z"/>
 <path fill="none" stroke="rgb(87,157,28)" stroke-linejoin="round" d="M 6678,9953 L 6878,9953 6778,9753 6678,9953 Z"/>
 <path fill="rgb(87,157,28)" stroke="none" d="M 6848,9713 L 7048,9713 6948,9513 6848,9713 Z"/>
 <path fill="none" stroke="rgb(87,157,28)" stroke-linejoin="round" d="M 6848,9713 L 7048,9713 6948,9513 6848,9713 Z"/>
 <path fill="rgb(87,157,28)" stroke="none" d="M 7019,9733 L 7219,9733 7119,9533 7019,9733 Z"/>
 <path fill="none" stroke="rgb(87,157,28)" stroke-linejoin="round" d="M 7019,9733 L 7219,9733 7119,9533 7019,9733 Z"/>
 <path fill="rgb(87,157,28)" stroke="none" d="M 7189,9080 L 7389,9080 7289,8880 7189,9080 Z"/>
 <path fill="none" stroke="rgb(87,157,28)" stroke-linejoin="round" d="M 7189,9080 L 7389,9080 7289,8880 7189,9080 Z"/>
 <path fill="rgb(87,157,28)" stroke="none" d="M 7360,9015 L 7559,9015 7460,8815 7360,9015 Z"/>
 <path fill="none" stroke="rgb(87,157,28)" stroke-linejoin="round" d="M 7360,9015 L 7559,9015 7460,8815 7360,9015 Z"/>
 <path fill="rgb(87,157,28)" stroke="none" d="M 7529,9532 L 7729,9532 7629,9332 7529,9532 Z"/>
 <path fill="none" stroke="rgb(87,157,28)" stroke-linejoin="round" d="M 7529,9532 L 7729,9532 7629,9332 7529,9532 Z"/>
 <path fill="rgb(87,157,28)" stroke="none" d="M 7700,8498 L 7900,8498 7800,8298 7700,8498 Z"/>
 <path fill="none" stroke="rgb(87,157,28)" stroke-linejoin="round" d="M 7700,8498 L 7900,8498 7800,8298 7700,8498 Z"/>
 <path fill="rgb(87,157,28)" stroke="none" d="M 7870,8447 L 8070,8447 7970,8247 7870,8447 Z"/>
 <path fill="none" stroke="rgb(87,157,28)" stroke-linejoin="round" d="M 7870,8447 L 8070,8447 7970,8247 7870,8447 Z"/>
 <path fill="rgb(87,157,28)" stroke="none" d="M 8040,6586 L 8240,6586 8140,6386 8040,6586 Z"/>
 <path fill="none" stroke="rgb(87,157,28)" stroke-linejoin="round" d="M 8040,6586 L 8240,6586 8140,6386 8040,6586 Z"/>
 <path fill="rgb(87,157,28)" stroke="none" d="M 8211,6702 L 8411,6702 8311,6502 8211,6702 Z"/>
 <path fill="none" stroke="rgb(87,157,28)" stroke-linejoin="round" d="M 8211,6702 L 8411,6702 8311,6502 8211,6702 Z"/>
 <path fill="rgb(87,157,28)" stroke="none" d="M 8381,6301 L 8581,6301 8481,6101 8381,6301 Z"/>
 <path fill="none" stroke="rgb(87,157,28)" stroke-linejoin="round" d="M 8381,6301 L 8581,6301 8481,6101 8381,6301 Z"/>
 <path fill="rgb(87,157,28)" stroke="none" d="M 8552,6004 L 8752,6004 8652,5805 8552,6004 Z"/>
 <path fill="none" stroke="rgb(87,157,28)" stroke-linejoin="round" d="M 8552,6004 L 8752,6004 8652,5805 8552,6004 Z"/>
 <path fill="rgb(87,157,28)" stroke="none" d="M 8722,6754 L 8922,6754 8822,6554 8722,6754 Z"/>
 <path fill="none" stroke="rgb(87,157,28)" stroke-linejoin="round" d="M 8722,6754 L 8922,6754 8822,6554 8722,6754 Z"/>
 <path fill="rgb(87,157,28)" stroke="none" d="M 8893,7245 L 9093,7245 8993,7045 8893,7245 Z"/>
 <path fill="none" stroke="rgb(87,157,28)" stroke-linejoin="round" d="M 8893,7245 L 9093,7245 8993,7045 8893,7245 Z"/>
 <path fill="rgb(87,157,28)" stroke="none" d="M 9063,4208 L 9263,4208 9163,4008 9063,4208 Z"/>
 <path fill="none" stroke="rgb(87,157,28)" stroke-linejoin="round" d="M 9063,4208 L 9263,4208 9163,4008 9063,4208 Z"/>
 <path fill="rgb(87,157,28)" stroke="none" d="M 9234,4234 L 9434,4234 9334,4034 9234,4234 Z"/>
 <path fill="none" stroke="rgb(87,157,28)" stroke-linejoin="round" d="M 9234,4234 L 9434,4234 9334,4034 9234,4234 Z"/>
 <path fill="rgb(87,157,28)" stroke="none" d="M 9404,3788 L 9604,3788 9504,3588 9404,3788 Z"/>
 <path fill="none" stroke="rgb(87,157,28)" stroke-linejoin="round" d="M 9404,3788 L 9604,3788 9504,3588 9404,3788 Z"/>
 <path fill="rgb(87,157,28)" stroke="none" d="M 9575,3472 L 9775,3472 9675,3272 9575,3472 Z"/>
 <path fill="none" stroke="rgb(87,157,28)" stroke-linejoin="round" d="M 9575,3472 L 9775,3472 9675,3272 9575,3472 Z"/>
 <path fill="rgb(87,157,28)" stroke="none" d="M 9745,5494 L 9945,5494 9845,5294 9745,5494 Z"/>
 <path fill="none" stroke="rgb(87,157,28)" stroke-linejoin="round" d="M 9745,5494 L 9945,5494 9845,5294 9745,5494 Z"/>
 <path fill="rgb(87,157,28)" stroke="none" d="M 9916,6482 L 10116,6482 10016,6282 9916,6482 Z"/>
 <path fill="none" stroke="rgb(87,157,28)" stroke-linejoin="round" d="M 9916,6482 L 10116,6482 10016,6282 9916,6482 Z"/>
 <path fill="rgb(87,157,28)" stroke="none" d="M 10086,6107 L 10286,6107 10186,5908 10086,6107 Z"/>
 <path fill="none" stroke="rgb(87,157,28)" stroke-linejoin="round" d="M 10086,6107 L 10286,6107 10186,5908 10086,6107 Z"/>
 <path fill="rgb(87,157,28)" stroke="none" d="M 10257,4169 L 10457,4169 10357,3969 10257,4169 Z"/>
 <path fill="none" stroke="rgb(87,157,28)" stroke-linejoin="round" d="M 10257,4169 L 10457,4169 10357,3969 10257,4169 Z"/>
 <path fill="rgb(87,157,28)" stroke="none" d="M 10427,5475 L 10627,5475 10527,5275 10427,5475 Z"/>
 <path fill="none" stroke="rgb(87,157,28)" stroke-linejoin="round" d="M 10427,5475 L 10627,5475 10527,5275 10427,5475 Z"/>
 <path fill="rgb(87,157,28)" stroke="none" d="M 10598,4266 L 10798,4266 10698,4066 10598,4266 Z"/>
 <path fill="none" stroke="rgb(87,157,28)" stroke-linejoin="round" d="M 10598,4266 L 10798,4266 10698,4066 10598,4266 Z"/>
 <path fill="rgb(87,157,28)" stroke="none" d="M 10768,4874 L 10968,4874 10868,4674 10768,4874 Z"/>
 <path fill="none" stroke="rgb(87,157,28)" stroke-linejoin="round" d="M 10768,4874 L 10968,4874 10868,4674 10768,4874 Z"/>
 <path fill="rgb(87,157,28)" stroke="none" d="M 10939,3711 L 11139,3711 11039,3511 10939,3711 Z"/>
 <path fill="none" stroke="rgb(87,157,28)" stroke-linejoin="round" d="M 10939,3711 L 11139,3711 11039,3511 10939,3711 Z"/>
 <path fill="rgb(87,157,28)" stroke="none" d="M 11109,7697 L 11309,7697 11209,7497 11109,7697 Z"/>
 <path fill="none" stroke="rgb(87,157,28)" stroke-linejoin="round" d="M 11109,7697 L 11309,7697 11209,7497 11109,7697 Z"/>
 <path fill="rgb(87,157,28)" stroke="none" d="M 11280,7303 L 11480,7303 11380,7103 11280,7303 Z"/>
 <path fill="none" stroke="rgb(87,157,28)" stroke-linejoin="round" d="M 11280,7303 L 11480,7303 11380,7103 11280,7303 Z"/>
 <path fill="rgb(87,157,28)" stroke="none" d="M 11450,3342 L 11650,3342 11550,3142 11450,3342 Z"/>
 <path fill="none" stroke="rgb(87,157,28)" stroke-linejoin="round" d="M 11450,3342 L 11650,3342 11550,3142 11450,3342 Z"/>
 <path fill="rgb(87,157,28)" stroke="none" d="M 11621,5507 L 11821,5507 11721,5307 11621,5507 Z"/>
 <path fill="none" stroke="rgb(87,157,28)" stroke-linejoin="round" d="M 11621,5507 L 11821,5507 11721,5307 11621,5507 Z"/>
 <path fill="rgb(87,157,28)" stroke="none" d="M 11791,6217 L 11991,6217 11891,6017 11791,6217 Z"/>
 <path fill="none" stroke="rgb(87,157,28)" stroke-linejoin="round" d="M 11791,6217 L 11991,6217 11891,6017 11791,6217 Z"/>
 <path fill="rgb(87,157,28)" stroke="none" d="M 11962,4422 L 12162,4422 12062,4222 11962,4422 Z"/>
 <path fill="none" stroke="rgb(87,157,28)" stroke-linejoin="round" d="M 11962,4422 L 12162,4422 12062,4222 11962,4422 Z"/>
 <path fill="rgb(87,157,28)" stroke="none" d="M 12132,5468 L 12332,5468 12232,5268 12132,5468 Z"/>
 <path fill="none" stroke="rgb(87,157,28)" stroke-linejoin="round" d="M 12132,5468 L 12332,5468 12232,5268 12132,5468 Z"/>
 <path fill="rgb(87,157,28)" stroke="none" d="M 12303,8201 L 12503,8201 12403,8001 12303,8201 Z"/>
 <path fill="none" stroke="rgb(87,157,28)" stroke-linejoin="round" d="M 12303,8201 L 12503,8201 12403,8001 12303,8201 Z"/>
 <path fill="rgb(87,157,28)" stroke="none" d="M 12473,8731 L 12673,8731 12573,8531 12473,8731 Z"/>
 <path fill="none" stroke="rgb(87,157,28)" stroke-linejoin="round" d="M 12473,8731 L 12673,8731 12573,8531 12473,8731 Z"/>
 <path fill="rgb(87,157,28)" stroke="none" d="M 12644,5042 L 12844,5042 12744,4842 12644,5042 Z"/>
 <path fill="none" stroke="rgb(87,157,28)" stroke-linejoin="round" d="M 12644,5042 L 12844,5042 12744,4842 12644,5042 Z"/>
 <path fill="rgb(87,157,28)" stroke="none" d="M 12814,5779 L 13014,5779 12914,5579 12814,5779 Z"/>
 <path fill="none" stroke="rgb(87,157,28)" stroke-linejoin="round" d="M 12814,5779 L 13014,5779 12914,5579 12814,5779 Z"/>
 <path fill="rgb(87,157,28)" stroke="none" d="M 12985,6560 L 13185,6560 13085,6360 12985,6560 Z"/>
 <path fill="none" stroke="rgb(87,157,28)" stroke-linejoin="round" d="M 12985,6560 L 13185,6560 13085,6360 12985,6560 Z"/>
 <path fill="rgb(87,157,28)" stroke="none" d="M 13155,6140 L 13355,6140 13255,5941 13155,6140 Z"/>
 <path fill="none" stroke="rgb(87,157,28)" stroke-linejoin="round" d="M 13155,6140 L 13355,6140 13255,5941 13155,6140 Z"/>
 <path fill="rgb(87,157,28)" stroke="none" d="M 13326,6902 L 13526,6902 13426,6702 13326,6902 Z"/>
 <path fill="none" stroke="rgb(87,157,28)" stroke-linejoin="round" d="M 13326,6902 L 13526,6902 13426,6702 13326,6902 Z"/>
 <path fill="rgb(87,157,28)" stroke="none" d="M 13496,8880 L 13696,8880 13596,8680 13496,8880 Z"/>
 <path fill="none" stroke="rgb(87,157,28)" stroke-linejoin="round" d="M 13496,8880 L 13696,8880 13596,8680 13496,8880 Z"/>
 <path fill="rgb(87,157,28)" stroke="none" d="M 13667,9054 L 13867,9054 13767,8854 13667,9054 Z"/>
 <path fill="none" stroke="rgb(87,157,28)" stroke-linejoin="round" d="M 13667,9054 L 13867,9054 13767,8854 13667,9054 Z"/>
 <path fill="rgb(87,157,28)" stroke="none" d="M 13837,6437 L 14037,6437 13937,6237 13837,6437 Z"/>
 <path fill="none" stroke="rgb(87,157,28)" stroke-linejoin="round" d="M 13837,6437 L 14037,6437 13937,6237 13837,6437 Z"/>
 <path fill="rgb(87,157,28)" stroke="none" d="M 14008,6721 L 14208,6721 14108,6521 14008,6721 Z"/>
 <path fill="none" stroke="rgb(87,157,28)" stroke-linejoin="round" d="M 14008,6721 L 14208,6721 14108,6521 14008,6721 Z"/>
 <path fill="rgb(87,157,28)" stroke="none" d="M 14178,7432 L 14378,7432 14278,7232 14178,7432 Z"/>
 <path fill="none" stroke="rgb(87,157,28)" stroke-linejoin="round" d="M 14178,7432 L 14378,7432 14278,7232 14178,7432 Z"/>
 <path fill="rgb(87,157,28)" stroke="none" d="M 14349,6870 L 14549,6870 14449,6670 14349,6870 Z"/>
 <path fill="none" stroke="rgb(87,157,28)" stroke-linejoin="round" d="M 14349,6870 L 14549,6870 14449,6670 14349,6870 Z"/>
 <text class="TextShape"><tspan class="TextParagraph" font-family="Liberation Sans, sans-serif" font-size="353px" font-weight="400"><tspan class="TextPosition" x="898" y="11384"><tspan fill="rgb(0,0,0)" stroke="none">20/02</tspan></tspan></tspan></text>
 <text class="TextShape"><tspan class="TextParagraph" font-family="Liberation Sans, sans-serif" font-size="353px" font-weight="400"><tspan class="TextPosition" x="2091" y="11384"><tspan fill="rgb(0,0,0)" stroke="none">27/02</tspan></tspan></tspan></text>
 <text class="TextShape"><tspan class="TextParagraph" font-family="Liberation Sans, sans-serif" font-size="353px" font-weight="400"><tspan class="TextPosition" x="3285" y="11384"><tspan fill="rgb(0,0,0)" stroke="none">05/03</tspan></tspan></tspan></text>
 <text class="TextShape"><tspan class="TextParagraph" font-family="Liberation Sans, sans-serif" font-size="353px" font-weight="400"><tspan class="TextPosition" x="4478" y="11384"><tspan fill="rgb(0,0,0)" stroke="none">12/03</tspan></tspan></tspan></text>
 <text class="TextShape"><tspan class="TextParagraph" font-family="Liberation Sans, sans-serif" font-size="353px" font-weight="400"><tspan class="TextPosition" x="5672" y="11384"><tspan fill="rgb(0,0,0)" stroke="none">19/03</tspan></tspan></tspan></text>
 <text class="TextShape"><tspan class="TextParagraph" font-family="Liberation Sans, sans-serif" font-size="353px" font-weight="400"><tspan class="TextPosition" x="6865" y="11384"><tspan fill="rgb(0,0,0)" stroke="none">26/03</tspan></tspan></tspan></text>
 <text class="TextShape"><tspan class="TextParagraph" font-family="Liberation Sans, sans-serif" font-size="353px" font-weight="400"><tspan class="TextPosition" x="8058" y="11384"><tspan fill="rgb(0,0,0)" stroke="none">02/04</tspan></tspan></tspan></text>
 <text class="TextShape"><tspan class="TextParagraph" font-family="Liberation Sans, sans-serif" font-size="353px" font-weight="400"><tspan class="TextPosition" x="9252" y="11384"><tspan fill="rgb(0,0,0)" stroke="none">09/04</tspan></tspan></tspan></text>
 <text class="TextShape"><tspan class="TextParagraph" font-family="Liberation Sans, sans-serif" font-size="353px" font-weight="400"><tspan class="TextPosition" x="10445" y="11384"><tspan fill="rgb(0,0,0)" stroke="none">16/04</tspan></tspan></tspan></text>
 <text class="TextShape"><tspan class="TextParagraph" font-family="Liberation Sans, sans-serif" font-size="353px" font-weight="400"><tspan class="TextPosition" x="11639" y="11384"><tspan fill="rgb(0,0,0)" stroke="none">23/04</tspan></tspan></tspan></text>
 <text class="TextShape"><tspan class="TextParagraph" font-family="Liberation Sans, sans-serif" font-size="353px" font-weight="400"><tspan class="TextPosition" x="12832" y="11384"><tspan fill="rgb(0,0,0)" stroke="none">30/04</tspan></tspan></tspan></text>
 <text class="TextShape"><tspan class="TextParagraph" font-family="Liberation Sans, sans-serif" font-size="353px" font-weight="400"><tspan class="TextPosition" x="14026" y="11384"><tspan fill="rgb(0,0,0)" stroke="none">07/05</tspan></tspan></tspan></text>
 <text class="TextShape"><tspan class="TextParagraph" font-family="Liberation Sans, sans-serif" font-size="353px" font-weight="400"><tspan class="TextPosition" x="431" y="8998"><tspan fill="rgb(0,0,0)" stroke="none">300</tspan></tspan></tspan></text>
 <text class="TextShape"><tspan class="TextParagraph" font-family="Liberation Sans, sans-serif" font-size="353px" font-weight="400"><tspan class="TextPosition" x="431" y="7059"><tspan fill="rgb(0,0,0)" stroke="none">600</tspan></tspan></tspan></text>
 <text class="TextShape"><tspan class="TextParagraph" font-family="Liberation Sans, sans-serif" font-size="353px" font-weight="400"><tspan class="TextPosition" x="431" y="5120"><tspan fill="rgb(0,0,0)" stroke="none">900</tspan></tspan></tspan></text>
 <text class="TextShape"><tspan class="TextParagraph" font-family="Liberation Sans, sans-serif" font-size="353px" font-weight="400"><tspan class="TextPosition" x="140" y="3181"><tspan fill="rgb(0,0,0)" stroke="none">1.200</tspan></tspan></tspan></text>
 <text class="TextShape"><tspan class="TextParagraph" font-family="Liberation Sans, sans-serif" font-size="353px" font-weight="400"><tspan class="TextPosition" x="140" y="1243"><tspan fill="rgb(0,0,0)" stroke="none">1.500</tspan></tspan></tspan></text>
 <text class="TextShape"><tspan class="TextParagraph" font-family="Liberation Sans, sans-serif" font-size="459px" font-weight="400"><tspan class="TextPosition" x="2407" y="911"><tspan fill="rgb(0,0,0)" stroke="none">Covid-19. Muertes diarias en Europa Occidental (1)</tspan></tspan></tspan></text>
 <path fill="none" stroke="rgb(0,69,134)" stroke-width="50" stroke-linejoin="round" d="M 2987,3679 L 3787,3679"/>
 <path fill="rgb(0,69,134)" stroke="none" d="M 3281,3574 L 3281,3785 3492,3785 3492,3574 3281,3574 Z"/>
 <path fill="none" stroke="rgb(0,69,134)" stroke-linejoin="round" d="M 3281,3574 L 3281,3785 3492,3785 3492,3574 3281,3574 Z"/>
 <path fill="none" stroke="rgb(255,66,14)" stroke-width="50" stroke-linejoin="round" d="M 2987,4611 L 3787,4611"/>
 <path fill="rgb(255,66,14)" stroke="none" d="M 3281,4611 L 3387,4717 3492,4611 3387,4506 3281,4611 Z"/>
 <path fill="none" stroke="rgb(255,66,14)" stroke-linejoin="round" d="M 3281,4611 L 3387,4717 3492,4611 3387,4506 3281,4611 Z"/>
 <path fill="none" stroke="rgb(255,211,32)" stroke-width="50" stroke-linejoin="round" d="M 2987,5543 L 3787,5543"/>
 <path fill="rgb(255,211,32)" stroke="none" d="M 3281,5438 L 3387,5649 3492,5438 3281,5438 Z"/>
 <path fill="none" stroke="rgb(255,211,32)" stroke-linejoin="round" d="M 3281,5438 L 3387,5649 3492,5438 3281,5438 Z"/>
 <path fill="none" stroke="rgb(87,157,28)" stroke-width="50" stroke-linejoin="round" d="M 2987,6474 L 3787,6474"/>
 <path fill="rgb(87,157,28)" stroke="none" d="M 3281,6580 L 3492,6580 3387,6369 3281,6580 Z"/>
 <path fill="none" stroke="rgb(87,157,28)" stroke-linejoin="round" d="M 3281,6580 L 3492,6580 3387,6369 3281,6580 Z"/>
 <text class="TextShape"><tspan class="TextParagraph" font-family="Liberation Sans, sans-serif" font-size="353px" font-weight="400"><tspan class="TextPosition" x="3887" y="3799"><tspan fill="rgb(0,0,0)" stroke="none">Espaa</tspan></tspan></tspan></text>
 <text class="TextShape"><tspan class="TextParagraph" font-family="Liberation Sans, sans-serif" font-size="353px" font-weight="400"><tspan class="TextPosition" x="3887" y="4731"><tspan fill="rgb(0,0,0)" stroke="none">Francia</tspan></tspan></tspan></text>
 <text class="TextShape"><tspan class="TextParagraph" font-family="Liberation Sans, sans-serif" font-size="353px" font-weight="400"><tspan class="TextPosition" x="3887" y="5663"><tspan fill="rgb(0,0,0)" stroke="none">Italia</tspan></tspan></tspan></text>
 <text class="TextShape"><tspan class="TextParagraph" font-family="Liberation Sans, sans-serif" font-size="353px" font-weight="400"><tspan class="TextPosition" x="3887" y="6594"><tspan fill="rgb(0,0,0)" stroke="none">Reino Unido</tspan></tspan></tspan></text>
</svg>