<?xml version="1.0" encoding="UTF-8"?>
<!DOCTYPE svg PUBLIC "-//W3C//DTD SVG 1.1//EN" "http://www.w3.org/Graphics/SVG/1.1/DTD/svg11.dtd">
<svg width="150mm" height="120mm" viewBox="0 0 15000 12000" version="1.1" xmlns="http://www.w3.org/2000/svg" xmlns:xlink="http://www.w3.org/1999/xlink" stroke-width="28.222" stroke-linejoin="round" xml:space="preserve">
 <path fill="rgb(255,255,255)" stroke="none" d="M 7500,12000 L 0,12000 0,0 15000,0 15000,12000 7500,12000 Z"/>
 <path fill="none" stroke="rgb(0,0,0)" stroke-linejoin="round" d="M 7711,11253 L 737,11253 737,1028 14685,1028 14685,11253 7711,11253 Z"/>
 <path fill="none" stroke="rgb(0,0,0)" stroke-linejoin="round" d="M 14685,11252 L 737,11252"/>
 <path fill="none" stroke="rgb(0,0,0)" stroke-linejoin="round" d="M 14685,9206 L 737,9206"/>
 <path fill="none" stroke="rgb(0,0,0)" stroke-linejoin="round" d="M 14685,7161 L 737,7161"/>
 <path fill="none" stroke="rgb(0,0,0)" stroke-linejoin="round" d="M 14685,5117 L 737,5117"/>
 <path fill="none" stroke="rgb(0,0,0)" stroke-linejoin="round" d="M 14685,3072 L 737,3072"/>
 <path fill="none" stroke="rgb(0,0,0)" stroke-linejoin="round" d="M 14685,1027 L 737,1027"/>
 <path fill="none" stroke="rgb(0,0,0)" stroke-linejoin="round" d="M 737,11402 L 737,11252"/>
 <path fill="none" stroke="rgb(0,0,0)" stroke-linejoin="round" d="M 737,11402 L 737,11252"/>
 <path fill="none" stroke="rgb(0,0,0)" stroke-linejoin="round" d="M 1942,11402 L 1942,11252"/>
 <path fill="none" stroke="rgb(0,0,0)" stroke-linejoin="round" d="M 1942,11402 L 1942,11252"/>
 <path fill="none" stroke="rgb(0,0,0)" stroke-linejoin="round" d="M 3147,11402 L 3147,11252"/>
 <path fill="none" stroke="rgb(0,0,0)" stroke-linejoin="round" d="M 3147,11402 L 3147,11252"/>
 <path fill="none" stroke="rgb(0,0,0)" stroke-linejoin="round" d="M 4353,11402 L 4353,11252"/>
 <path fill="none" stroke="rgb(0,0,0)" stroke-linejoin="round" d="M 4353,11402 L 4353,11252"/>
 <path fill="none" stroke="rgb(0,0,0)" stroke-linejoin="round" d="M 5558,11402 L 5558,11252"/>
 <path fill="none" stroke="rgb(0,0,0)" stroke-linejoin="round" d="M 5558,11402 L 5558,11252"/>
 <path fill="none" stroke="rgb(0,0,0)" stroke-linejoin="round" d="M 6764,11402 L 6764,11252"/>
 <path fill="none" stroke="rgb(0,0,0)" stroke-linejoin="round" d="M 6764,11402 L 6764,11252"/>
 <path fill="none" stroke="rgb(0,0,0)" stroke-linejoin="round" d="M 7968,11402 L 7968,11252"/>
 <path fill="none" stroke="rgb(0,0,0)" stroke-linejoin="round" d="M 7968,11402 L 7968,11252"/>
 <path fill="none" stroke="rgb(0,0,0)" stroke-linejoin="round" d="M 9174,11402 L 9174,11252"/>
 <path fill="none" stroke="rgb(0,0,0)" stroke-linejoin="round" d="M 9174,11402 L 9174,11252"/>
 <path fill="none" stroke="rgb(0,0,0)" stroke-linejoin="round" d="M 10379,11402 L 10379,11252"/>
 <path fill="none" stroke="rgb(0,0,0)" stroke-linejoin="round" d="M 10379,11402 L 10379,11252"/>
 <path fill="none" stroke="rgb(0,0,0)" stroke-linejoin="round" d="M 11585,11402 L 11585,11252"/>
 <path fill="none" stroke="rgb(0,0,0)" stroke-linejoin="round" d="M 11585,11402 L 11585,11252"/>
 <path fill="none" stroke="rgb(0,0,0)" stroke-linejoin="round" d="M 12790,11402 L 12790,11252"/>
 <path fill="none" stroke="rgb(0,0,0)" stroke-linejoin="round" d="M 12790,11402 L 12790,11252"/>
 <path fill="none" stroke="rgb(0,0,0)" stroke-linejoin="round" d="M 13996,11402 L 13996,11252"/>
 <path fill="none" stroke="rgb(0,0,0)" stroke-linejoin="round" d="M 13996,11402 L 13996,11252"/>
 <path fill="none" stroke="rgb(0,0,0)" stroke-linejoin="round" d="M 737,11252 L 14685,11252"/>
 <path fill="none" stroke="rgb(0,0,0)" stroke-linejoin="round" d="M 587,11252 L 737,11252"/>
 <path fill="none" stroke="rgb(0,0,0)" stroke-linejoin="round" d="M 587,11252 L 737,11252"/>
 <path fill="none" stroke="rgb(0,0,0)" stroke-linejoin="round" d="M 587,9206 L 737,9206"/>
 <path fill="none" stroke="rgb(0,0,0)" stroke-linejoin="round" d="M 587,9206 L 737,9206"/>
 <path fill="none" stroke="rgb(0,0,0)" stroke-linejoin="round" d="M 587,7161 L 737,7161"/>
 <path fill="none" stroke="rgb(0,0,0)" stroke-linejoin="round" d="M 587,7161 L 737,7161"/>
 <path fill="none" stroke="rgb(0,0,0)" stroke-linejoin="round" d="M 587,5117 L 737,5117"/>
 <path fill="none" stroke="rgb(0,0,0)" stroke-linejoin="round" d="M 587,5117 L 737,5117"/>
 <path fill="none" stroke="rgb(0,0,0)" stroke-linejoin="round" d="M 587,3072 L 737,3072"/>
 <path fill="none" stroke="rgb(0,0,0)" stroke-linejoin="round" d="M 587,3072 L 737,3072"/>
 <path fill="none" stroke="rgb(0,0,0)" stroke-linejoin="round" d="M 587,1027 L 737,1027"/>
 <path fill="none" stroke="rgb(0,0,0)" stroke-linejoin="round" d="M 587,1027 L 737,1027"/>
 <path fill="none" stroke="rgb(0,0,0)" stroke-linejoin="round" d="M 737,11252 L 737,1027"/>
 <path fill="none" stroke="rgb(0,0,0)" stroke-width="50" stroke-linejoin="round" d="M 4439,10740 L 4611,11252 4783,11252 4956,11252 5128,11252 5300,11252 5472,11252 5644,11252 5817,10740 5989,9718 6161,9718 6333,9206 6506,6139 6678,9718 6850,10229 7022,10229 7194,9206 7367,7161 7538,7161 7710,8184 7882,7161 8054,8184 8227,10740 8399,8184 8571,9206 8743,8184 8915,6139 9088,8184 9260,7161 9432,5628 9604,7672 9777,5117 9949,6650 10121,7672 10293,6139 10465,10229 10638,8184 10810,4606 10982,6650 11154,9206 11326,10229 11499,6650 11671,5117 11843,7161 12015,7161 12187,6139 12360,9206 12532,7161 12704,8695 12876,7672 13049,11252 13221,8184 13393,10740 13565,9206 13737,11252 13910,9718 14082,8695 14254,11252 14426,10740 14598,10229"/>
 <path fill="rgb(0,0,0)" stroke="none" d="M 4339,10740 L 4439,10840 4539,10740 4439,10640 4339,10740 Z"/>
 <path fill="none" stroke="rgb(0,0,0)" stroke-linejoin="round" d="M 4339,10740 L 4439,10840 4539,10740 4439,10640 4339,10740 Z"/>
 <path fill="rgb(0,0,0)" stroke="none" d="M 4511,11252 L 4611,11352 4711,11252 4611,11152 4511,11252 Z"/>
 <path fill="none" stroke="rgb(0,0,0)" stroke-linejoin="round" d="M 4511,11252 L 4611,11352 4711,11252 4611,11152 4511,11252 Z"/>
 <path fill="rgb(0,0,0)" stroke="none" d="M 4683,11252 L 4783,11352 4883,11252 4783,11152 4683,11252 Z"/>
 <path fill="none" stroke="rgb(0,0,0)" stroke-linejoin="round" d="M 4683,11252 L 4783,11352 4883,11252 4783,11152 4683,11252 Z"/>
 <path fill="rgb(0,0,0)" stroke="none" d="M 4856,11252 L 4956,11352 5056,11252 4956,11152 4856,11252 Z"/>
 <path fill="none" stroke="rgb(0,0,0)" stroke-linejoin="round" d="M 4856,11252 L 4956,11352 5056,11252 4956,11152 4856,11252 Z"/>
 <path fill="rgb(0,0,0)" stroke="none" d="M 5028,11252 L 5128,11352 5228,11252 5128,11152 5028,11252 Z"/>
 <path fill="none" stroke="rgb(0,0,0)" stroke-linejoin="round" d="M 5028,11252 L 5128,11352 5228,11252 5128,11152 5028,11252 Z"/>
 <path fill="rgb(0,0,0)" stroke="none" d="M 5200,11252 L 5300,11352 5400,11252 5300,11152 5200,11252 Z"/>
 <path fill="none" stroke="rgb(0,0,0)" stroke-linejoin="round" d="M 5200,11252 L 5300,11352 5400,11252 5300,11152 5200,11252 Z"/>
 <path fill="rgb(0,0,0)" stroke="none" d="M 5372,11252 L 5472,11352 5572,11252 5472,11152 5372,11252 Z"/>
 <path fill="none" stroke="rgb(0,0,0)" stroke-linejoin="round" d="M 5372,11252 L 5472,11352 5572,11252 5472,11152 5372,11252 Z"/>
 <path fill="rgb(0,0,0)" stroke="none" d="M 5544,11252 L 5644,11352 5744,11252 5644,11152 5544,11252 Z"/>
 <path fill="none" stroke="rgb(0,0,0)" stroke-linejoin="round" d="M 5544,11252 L 5644,11352 5744,11252 5644,11152 5544,11252 Z"/>
 <path fill="rgb(0,0,0)" stroke="none" d="M 5717,10740 L 5817,10840 5917,10740 5817,10640 5717,10740 Z"/>
 <path fill="none" stroke="rgb(0,0,0)" stroke-linejoin="round" d="M 5717,10740 L 5817,10840 5917,10740 5817,10640 5717,10740 Z"/>
 <path fill="rgb(0,0,0)" stroke="none" d="M 5889,9718 L 5989,9818 6089,9718 5989,9618 5889,9718 Z"/>
 <path fill="none" stroke="rgb(0,0,0)" stroke-linejoin="round" d="M 5889,9718 L 5989,9818 6089,9718 5989,9618 5889,9718 Z"/>
 <path fill="rgb(0,0,0)" stroke="none" d="M 6061,9718 L 6161,9818 6261,9718 6161,9618 6061,9718 Z"/>
 <path fill="none" stroke="rgb(0,0,0)" stroke-linejoin="round" d="M 6061,9718 L 6161,9818 6261,9718 6161,9618 6061,9718 Z"/>
 <path fill="rgb(0,0,0)" stroke="none" d="M 6233,9206 L 6333,9306 6433,9206 6333,9106 6233,9206 Z"/>
 <path fill="none" stroke="rgb(0,0,0)" stroke-linejoin="round" d="M 6233,9206 L 6333,9306 6433,9206 6333,9106 6233,9206 Z"/>
 <path fill="rgb(0,0,0)" stroke="none" d="M 6406,6139 L 6506,6239 6606,6139 6506,6039 6406,6139 Z"/>
 <path fill="none" stroke="rgb(0,0,0)" stroke-linejoin="round" d="M 6406,6139 L 6506,6239 6606,6139 6506,6039 6406,6139 Z"/>
 <path fill="rgb(0,0,0)" stroke="none" d="M 6578,9718 L 6678,9818 6778,9718 6678,9618 6578,9718 Z"/>
 <path fill="none" stroke="rgb(0,0,0)" stroke-linejoin="round" d="M 6578,9718 L 6678,9818 6778,9718 6678,9618 6578,9718 Z"/>
 <path fill="rgb(0,0,0)" stroke="none" d="M 6750,10229 L 6850,10329 6950,10229 6850,10129 6750,10229 Z"/>
 <path fill="none" stroke="rgb(0,0,0)" stroke-linejoin="round" d="M 6750,10229 L 6850,10329 6950,10229 6850,10129 6750,10229 Z"/>
 <path fill="rgb(0,0,0)" stroke="none" d="M 6922,10229 L 7022,10329 7122,10229 7022,10129 6922,10229 Z"/>
 <path fill="none" stroke="rgb(0,0,0)" stroke-linejoin="round" d="M 6922,10229 L 7022,10329 7122,10229 7022,10129 6922,10229 Z"/>
 <path fill="rgb(0,0,0)" stroke="none" d="M 7094,9206 L 7194,9306 7294,9206 7194,9106 7094,9206 Z"/>
 <path fill="none" stroke="rgb(0,0,0)" stroke-linejoin="round" d="M 7094,9206 L 7194,9306 7294,9206 7194,9106 7094,9206 Z"/>
 <path fill="rgb(0,0,0)" stroke="none" d="M 7267,7161 L 7367,7261 7467,7161 7367,7061 7267,7161 Z"/>
 <path fill="none" stroke="rgb(0,0,0)" stroke-linejoin="round" d="M 7267,7161 L 7367,7261 7467,7161 7367,7061 7267,7161 Z"/>
 <path fill="rgb(0,0,0)" stroke="none" d="M 7439,7161 L 7538,7261 7638,7161 7538,7061 7439,7161 Z"/>
 <path fill="none" stroke="rgb(0,0,0)" stroke-linejoin="round" d="M 7439,7161 L 7538,7261 7638,7161 7538,7061 7439,7161 Z"/>
 <path fill="rgb(0,0,0)" stroke="none" d="M 7610,8184 L 7710,8284 7810,8184 7710,8084 7610,8184 Z"/>
 <path fill="none" stroke="rgb(0,0,0)" stroke-linejoin="round" d="M 7610,8184 L 7710,8284 7810,8184 7710,8084 7610,8184 Z"/>
 <path fill="rgb(0,0,0)" stroke="none" d="M 7782,7161 L 7882,7261 7982,7161 7882,7061 7782,7161 Z"/>
 <path fill="none" stroke="rgb(0,0,0)" stroke-linejoin="round" d="M 7782,7161 L 7882,7261 7982,7161 7882,7061 7782,7161 Z"/>
 <path fill="rgb(0,0,0)" stroke="none" d="M 7954,8184 L 8054,8284 8154,8184 8054,8084 7954,8184 Z"/>
 <path fill="none" stroke="rgb(0,0,0)" stroke-linejoin="round" d="M 7954,8184 L 8054,8284 8154,8184 8054,8084 7954,8184 Z"/>
 <path fill="rgb(0,0,0)" stroke="none" d="M 8127,10740 L 8227,10840 8327,10740 8227,10640 8127,10740 Z"/>
 <path fill="none" stroke="rgb(0,0,0)" stroke-linejoin="round" d="M 8127,10740 L 8227,10840 8327,10740 8227,10640 8127,10740 Z"/>
 <path fill="rgb(0,0,0)" stroke="none" d="M 8299,8184 L 8399,8284 8499,8184 8399,8084 8299,8184 Z"/>
 <path fill="none" stroke="rgb(0,0,0)" stroke-linejoin="round" d="M 8299,8184 L 8399,8284 8499,8184 8399,8084 8299,8184 Z"/>
 <path fill="rgb(0,0,0)" stroke="none" d="M 8471,9206 L 8571,9306 8671,9206 8571,9106 8471,9206 Z"/>
 <path fill="none" stroke="rgb(0,0,0)" stroke-linejoin="round" d="M 8471,9206 L 8571,9306 8671,9206 8571,9106 8471,9206 Z"/>
 <path fill="rgb(0,0,0)" stroke="none" d="M 8643,8184 L 8743,8284 8843,8184 8743,8084 8643,8184 Z"/>
 <path fill="none" stroke="rgb(0,0,0)" stroke-linejoin="round" d="M 8643,8184 L 8743,8284 8843,8184 8743,8084 8643,8184 Z"/>
 <path fill="rgb(0,0,0)" stroke="none" d="M 8815,6139 L 8915,6239 9015,6139 8915,6039 8815,6139 Z"/>
 <path fill="none" stroke="rgb(0,0,0)" stroke-linejoin="round" d="M 8815,6139 L 8915,6239 9015,6139 8915,6039 8815,6139 Z"/>
 <path fill="rgb(0,0,0)" stroke="none" d="M 8988,8184 L 9088,8284 9188,8184 9088,8084 8988,8184 Z"/>
 <path fill="none" stroke="rgb(0,0,0)" stroke-linejoin="round" d="M 8988,8184 L 9088,8284 9188,8184 9088,8084 8988,8184 Z"/>
 <path fill="rgb(0,0,0)" stroke="none" d="M 9160,7161 L 9260,7261 9360,7161 9260,7061 9160,7161 Z"/>
 <path fill="none" stroke="rgb(0,0,0)" stroke-linejoin="round" d="M 9160,7161 L 9260,7261 9360,7161 9260,7061 9160,7161 Z"/>
 <path fill="rgb(0,0,0)" stroke="none" d="M 9332,5628 L 9432,5728 9532,5628 9432,5528 9332,5628 Z"/>
 <path fill="none" stroke="rgb(0,0,0)" stroke-linejoin="round" d="M 9332,5628 L 9432,5728 9532,5628 9432,5528 9332,5628 Z"/>
 <path fill="rgb(0,0,0)" stroke="none" d="M 9504,7672 L 9604,7772 9704,7672 9604,7572 9504,7672 Z"/>
 <path fill="none" stroke="rgb(0,0,0)" stroke-linejoin="round" d="M 9504,7672 L 9604,7772 9704,7672 9604,7572 9504,7672 Z"/>
 <path fill="rgb(0,0,0)" stroke="none" d="M 9677,5117 L 9777,5217 9877,5117 9777,5017 9677,5117 Z"/>
 <path fill="none" stroke="rgb(0,0,0)" stroke-linejoin="round" d="M 9677,5117 L 9777,5217 9877,5117 9777,5017 9677,5117 Z"/>
 <path fill="rgb(0,0,0)" stroke="none" d="M 9849,6650 L 9949,6750 10049,6650 9949,6550 9849,6650 Z"/>
 <path fill="none" stroke="rgb(0,0,0)" stroke-linejoin="round" d="M 9849,6650 L 9949,6750 10049,6650 9949,6550 9849,6650 Z"/>
 <path fill="rgb(0,0,0)" stroke="none" d="M 10021,7672 L 10121,7772 10221,7672 10121,7572 10021,7672 Z"/>
 <path fill="none" stroke="rgb(0,0,0)" stroke-linejoin="round" d="M 10021,7672 L 10121,7772 10221,7672 10121,7572 10021,7672 Z"/>
 <path fill="rgb(0,0,0)" stroke="none" d="M 10193,6139 L 10293,6239 10393,6139 10293,6039 10193,6139 Z"/>
 <path fill="none" stroke="rgb(0,0,0)" stroke-linejoin="round" d="M 10193,6139 L 10293,6239 10393,6139 10293,6039 10193,6139 Z"/>
 <path fill="rgb(0,0,0)" stroke="none" d="M 10365,10229 L 10465,10329 10565,10229 10465,10129 10365,10229 Z"/>
 <path fill="none" stroke="rgb(0,0,0)" stroke-linejoin="round" d="M 10365,10229 L 10465,10329 10565,10229 10465,10129 10365,10229 Z"/>
 <path fill="rgb(0,0,0)" stroke="none" d="M 10538,8184 L 10638,8284 10738,8184 10638,8084 10538,8184 Z"/>
 <path fill="none" stroke="rgb(0,0,0)" stroke-linejoin="round" d="M 10538,8184 L 10638,8284 10738,8184 10638,8084 10538,8184 Z"/>
 <path fill="rgb(0,0,0)" stroke="none" d="M 10710,4606 L 10810,4706 10910,4606 10810,4506 10710,4606 Z"/>
 <path fill="none" stroke="rgb(0,0,0)" stroke-linejoin="round" d="M 10710,4606 L 10810,4706 10910,4606 10810,4506 10710,4606 Z"/>
 <path fill="rgb(0,0,0)" stroke="none" d="M 10882,6650 L 10982,6750 11082,6650 10982,6550 10882,6650 Z"/>
 <path fill="none" stroke="rgb(0,0,0)" stroke-linejoin="round" d="M 10882,6650 L 10982,6750 11082,6650 10982,6550 10882,6650 Z"/>
 <path fill="rgb(0,0,0)" stroke="none" d="M 11054,9206 L 11154,9306 11254,9206 11154,9106 11054,9206 Z"/>
 <path fill="none" stroke="rgb(0,0,0)" stroke-linejoin="round" d="M 11054,9206 L 11154,9306 11254,9206 11154,9106 11054,9206 Z"/>
 <path fill="rgb(0,0,0)" stroke="none" d="M 11226,10229 L 11326,10329 11426,10229 11326,10129 11226,10229 Z"/>
 <path fill="none" stroke="rgb(0,0,0)" stroke-linejoin="round" d="M 11226,10229 L 11326,10329 11426,10229 11326,10129 11226,10229 Z"/>
 <path fill="rgb(0,0,0)" stroke="none" d="M 11399,6650 L 11499,6750 11599,6650 11499,6550 11399,6650 Z"/>
 <path fill="none" stroke="rgb(0,0,0)" stroke-linejoin="round" d="M 11399,6650 L 11499,6750 11599,6650 11499,6550 11399,6650 Z"/>
 <path fill="rgb(0,0,0)" stroke="none" d="M 11571,5117 L 11671,5217 11771,5117 11671,5017 11571,5117 Z"/>
 <path fill="none" stroke="rgb(0,0,0)" stroke-linejoin="round" d="M 11571,5117 L 11671,5217 11771,5117 11671,5017 11571,5117 Z"/>
 <path fill="rgb(0,0,0)" stroke="none" d="M 11743,7161 L 11843,7261 11943,7161 11843,7061 11743,7161 Z"/>
 <path fill="none" stroke="rgb(0,0,0)" stroke-linejoin="round" d="M 11743,7161 L 11843,7261 11943,7161 11843,7061 11743,7161 Z"/>
 <path fill="rgb(0,0,0)" stroke="none" d="M 11915,7161 L 12015,7261 12115,7161 12015,7061 11915,7161 Z"/>
 <path fill="none" stroke="rgb(0,0,0)" stroke-linejoin="round" d="M 11915,7161 L 12015,7261 12115,7161 12015,7061 11915,7161 Z"/>
 <path fill="rgb(0,0,0)" stroke="none" d="M 12087,6139 L 12187,6239 12287,6139 12187,6039 12087,6139 Z"/>
 <path fill="none" stroke="rgb(0,0,0)" stroke-linejoin="round" d="M 12087,6139 L 12187,6239 12287,6139 12187,6039 12087,6139 Z"/>
 <path fill="rgb(0,0,0)" stroke="none" d="M 12260,9206 L 12360,9306 12460,9206 12360,9106 12260,9206 Z"/>
 <path fill="none" stroke="rgb(0,0,0)" stroke-linejoin="round" d="M 12260,9206 L 12360,9306 12460,9206 12360,9106 12260,9206 Z"/>
 <path fill="rgb(0,0,0)" stroke="none" d="M 12432,7161 L 12532,7261 12632,7161 12532,7061 12432,7161 Z"/>
 <path fill="none" stroke="rgb(0,0,0)" stroke-linejoin="round" d="M 12432,7161 L 12532,7261 12632,7161 12532,7061 12432,7161 Z"/>
 <path fill="rgb(0,0,0)" stroke="none" d="M 12604,8695 L 12704,8795 12804,8695 12704,8595 12604,8695 Z"/>
 <path fill="none" stroke="rgb(0,0,0)" stroke-linejoin="round" d="M 12604,8695 L 12704,8795 12804,8695 12704,8595 12604,8695 Z"/>
 <path fill="rgb(0,0,0)" stroke="none" d="M 12776,7672 L 12876,7772 12976,7672 12876,7572 12776,7672 Z"/>
 <path fill="none" stroke="rgb(0,0,0)" stroke-linejoin="round" d="M 12776,7672 L 12876,7772 12976,7672 12876,7572 12776,7672 Z"/>
 <path fill="rgb(0,0,0)" stroke="none" d="M 12949,11252 L 13049,11352 13149,11252 13049,11152 12949,11252 Z"/>
 <path fill="none" stroke="rgb(0,0,0)" stroke-linejoin="round" d="M 12949,11252 L 13049,11352 13149,11252 13049,11152 12949,11252 Z"/>
 <path fill="rgb(0,0,0)" stroke="none" d="M 13121,8184 L 13221,8284 13321,8184 13221,8084 13121,8184 Z"/>
 <path fill="none" stroke="rgb(0,0,0)" stroke-linejoin="round" d="M 13121,8184 L 13221,8284 13321,8184 13221,8084 13121,8184 Z"/>
 <path fill="rgb(0,0,0)" stroke="none" d="M 13293,10740 L 13393,10840 13493,10740 13393,10640 13293,10740 Z"/>
 <path fill="none" stroke="rgb(0,0,0)" stroke-linejoin="round" d="M 13293,10740 L 13393,10840 13493,10740 13393,10640 13293,10740 Z"/>
 <path fill="rgb(0,0,0)" stroke="none" d="M 13465,9206 L 13565,9306 13665,9206 13565,9106 13465,9206 Z"/>
 <path fill="none" stroke="rgb(0,0,0)" stroke-linejoin="round" d="M 13465,9206 L 13565,9306 13665,9206 13565,9106 13465,9206 Z"/>
 <path fill="rgb(0,0,0)" stroke="none" d="M 13637,11252 L 13737,11352 13837,11252 13737,11152 13637,11252 Z"/>
 <path fill="none" stroke="rgb(0,0,0)" stroke-linejoin="round" d="M 13637,11252 L 13737,11352 13837,11252 13737,11152 13637,11252 Z"/>
 <path fill="rgb(0,0,0)" stroke="none" d="M 13810,9718 L 13910,9818 14010,9718 13910,9618 13810,9718 Z"/>
 <path fill="none" stroke="rgb(0,0,0)" stroke-linejoin="round" d="M 13810,9718 L 13910,9818 14010,9718 13910,9618 13810,9718 Z"/>
 <path fill="rgb(0,0,0)" stroke="none" d="M 13982,8695 L 14082,8795 14182,8695 14082,8595 13982,8695 Z"/>
 <path fill="none" stroke="rgb(0,0,0)" stroke-linejoin="round" d="M 13982,8695 L 14082,8795 14182,8695 14082,8595 13982,8695 Z"/>
 <path fill="rgb(0,0,0)" stroke="none" d="M 14154,11252 L 14254,11352 14354,11252 14254,11152 14154,11252 Z"/>
 <path fill="none" stroke="rgb(0,0,0)" stroke-linejoin="round" d="M 14154,11252 L 14254,11352 14354,11252 14254,11152 14154,11252 Z"/>
 <path fill="rgb(0,0,0)" stroke="none" d="M 14326,10740 L 14426,10840 14526,10740 14426,10640 14326,10740 Z"/>
 <path fill="none" stroke="rgb(0,0,0)" stroke-linejoin="round" d="M 14326,10740 L 14426,10840 14526,10740 14426,10640 14326,10740 Z"/>
 <path fill="rgb(0,0,0)" stroke="none" d="M 14498,10229 L 14598,10329 14698,10229 14598,10129 14498,10229 Z"/>
 <path fill="none" stroke="rgb(0,0,0)" stroke-linejoin="round" d="M 14498,10229 L 14598,10329 14698,10229 14598,10129 14498,10229 Z"/>
 <path fill="none" stroke="rgb(255,66,14)" stroke-width="50" stroke-linejoin="round" d="M 4439,10740 L 4611,11252 4783,11252 4956,11252 5128,11252 5300,11252 5472,11252 5644,10740 5817,11252 5989,10229 6161,11252 6333,8184 6506,11252 6678,9718 6850,9206 7022,8695 7194,9206 7367,9718 7538,7161 7710,8695 7882,9206 8054,5117 8227,5628 8399,10229 8571,9206 8743,8184 8915,9718 9088,8695 9260,11252 9432,7161 9604,8695 9777,6139 9949,8695 10121,10740 10293,7672 10465,8184 10638,9718 10810,4094 10982,7672 11154,10229 11326,9206 11499,9718 11671,9206 11843,9206 12015,10229 12187,10740 12360,9206 12532,10229 12704,9206 12876,9718 13049,8695 13221,9206 13393,11252 13565,11252 13737,10740 13910,10740 14082,10229 14254,10740 14426,8695 14598,10229"/>
 <path fill="rgb(255,66,14)" stroke="none" d="M 4339,10740 L 4439,10840 4539,10740 4439,10640 4339,10740 Z"/>
 <path fill="none" stroke="rgb(255,66,14)" stroke-linejoin="round" d="M 4339,10740 L 4439,10840 4539,10740 4439,10640 4339,10740 Z"/>
 <path fill="rgb(255,66,14)" stroke="none" d="M 4511,11252 L 4611,11352 4711,11252 4611,11152 4511,11252 Z"/>
 <path fill="none" stroke="rgb(255,66,14)" stroke-linejoin="round" d="M 4511,11252 L 4611,11352 4711,11252 4611,11152 4511,11252 Z"/>
 <path fill="rgb(255,66,14)" stroke="none" d="M 4683,11252 L 4783,11352 4883,11252 4783,11152 4683,11252 Z"/>
 <path fill="none" stroke="rgb(255,66,14)" stroke-linejoin="round" d="M 4683,11252 L 4783,11352 4883,11252 4783,11152 4683,11252 Z"/>
 <path fill="rgb(255,66,14)" stroke="none" d="M 4856,11252 L 4956,11352 5056,11252 4956,11152 4856,11252 Z"/>
 <path fill="none" stroke="rgb(255,66,14)" stroke-linejoin="round" d="M 4856,11252 L 4956,11352 5056,11252 4956,11152 4856,11252 Z"/>
 <path fill="rgb(255,66,14)" stroke="none" d="M 5028,11252 L 5128,11352 5228,11252 5128,11152 5028,11252 Z"/>
 <path fill="none" stroke="rgb(255,66,14)" stroke-linejoin="round" d="M 5028,11252 L 5128,11352 5228,11252 5128,11152 5028,11252 Z"/>
 <path fill="rgb(255,66,14)" stroke="none" d="M 5200,11252 L 5300,11352 5400,11252 5300,11152 5200,11252 Z"/>
 <path fill="none" stroke="rgb(255,66,14)" stroke-linejoin="round" d="M 5200,11252 L 5300,11352 5400,11252 5300,11152 5200,11252 Z"/>
 <path fill="rgb(255,66,14)" stroke="none" d="M 5372,11252 L 5472,11352 5572,11252 5472,11152 5372,11252 Z"/>
 <path fill="none" stroke="rgb(255,66,14)" stroke-linejoin="round" d="M 5372,11252 L 5472,11352 5572,11252 5472,11152 5372,11252 Z"/>
 <path fill="rgb(255,66,14)" stroke="none" d="M 5544,10740 L 5644,10840 5744,10740 5644,10640 5544,10740 Z"/>
 <path fill="none" stroke="rgb(255,66,14)" stroke-linejoin="round" d="M 5544,10740 L 5644,10840 5744,10740 5644,10640 5544,10740 Z"/>
 <path fill="rgb(255,66,14)" stroke="none" d="M 5717,11252 L 5817,11352 5917,11252 5817,11152 5717,11252 Z"/>
 <path fill="none" stroke="rgb(255,66,14)" stroke-linejoin="round" d="M 5717,11252 L 5817,11352 5917,11252 5817,11152 5717,11252 Z"/>
 <path fill="rgb(255,66,14)" stroke="none" d="M 5889,10229 L 5989,10329 6089,10229 5989,10129 5889,10229 Z"/>
 <path fill="none" stroke="rgb(255,66,14)" stroke-linejoin="round" d="M 5889,10229 L 5989,10329 6089,10229 5989,10129 5889,10229 Z"/>
 <path fill="rgb(255,66,14)" stroke="none" d="M 6061,11252 L 6161,11352 6261,11252 6161,11152 6061,11252 Z"/>
 <path fill="none" stroke="rgb(255,66,14)" stroke-linejoin="round" d="M 6061,11252 L 6161,11352 6261,11252 6161,11152 6061,11252 Z"/>
 <path fill="rgb(255,66,14)" stroke="none" d="M 6233,8184 L 6333,8284 6433,8184 6333,8084 6233,8184 Z"/>
 <path fill="none" stroke="rgb(255,66,14)" stroke-linejoin="round" d="M 6233,8184 L 6333,8284 6433,8184 6333,8084 6233,8184 Z"/>
 <path fill="rgb(255,66,14)" stroke="none" d="M 6406,11252 L 6506,11352 6606,11252 6506,11152 6406,11252 Z"/>
 <path fill="none" stroke="rgb(255,66,14)" stroke-linejoin="round" d="M 6406,11252 L 6506,11352 6606,11252 6506,11152 6406,11252 Z"/>
 <path fill="rgb(255,66,14)" stroke="none" d="M 6578,9718 L 6678,9818 6778,9718 6678,9618 6578,9718 Z"/>
 <path fill="none" stroke="rgb(255,66,14)" stroke-linejoin="round" d="M 6578,9718 L 6678,9818 6778,9718 6678,9618 6578,9718 Z"/>
 <path fill="rgb(255,66,14)" stroke="none" d="M 6750,9206 L 6850,9306 6950,9206 6850,9106 6750,9206 Z"/>
 <path fill="none" stroke="rgb(255,66,14)" stroke-linejoin="round" d="M 6750,9206 L 6850,9306 6950,9206 6850,9106 6750,9206 Z"/>
 <path fill="rgb(255,66,14)" stroke="none" d="M 6922,8695 L 7022,8795 7122,8695 7022,8595 6922,8695 Z"/>
 <path fill="none" stroke="rgb(255,66,14)" stroke-linejoin="round" d="M 6922,8695 L 7022,8795 7122,8695 7022,8595 6922,8695 Z"/>
 <path fill="rgb(255,66,14)" stroke="none" d="M 7094,9206 L 7194,9306 7294,9206 7194,9106 7094,9206 Z"/>
 <path fill="none" stroke="rgb(255,66,14)" stroke-linejoin="round" d="M 7094,9206 L 7194,9306 7294,9206 7194,9106 7094,9206 Z"/>
 <path fill="rgb(255,66,14)" stroke="none" d="M 7267,9718 L 7367,9818 7467,9718 7367,9618 7267,9718 Z"/>
 <path fill="none" stroke="rgb(255,66,14)" stroke-linejoin="round" d="M 7267,9718 L 7367,9818 7467,9718 7367,9618 7267,9718 Z"/>
 <path fill="rgb(255,66,14)" stroke="none" d="M 7439,7161 L 7538,7261 7638,7161 7538,7061 7439,7161 Z"/>
 <path fill="none" stroke="rgb(255,66,14)" stroke-linejoin="round" d="M 7439,7161 L 7538,7261 7638,7161 7538,7061 7439,7161 Z"/>
 <path fill="rgb(255,66,14)" stroke="none" d="M 7610,8695 L 7710,8795 7810,8695 7710,8595 7610,8695 Z"/>
 <path fill="none" stroke="rgb(255,66,14)" stroke-linejoin="round" d="M 7610,8695 L 7710,8795 7810,8695 7710,8595 7610,8695 Z"/>
 <path fill="rgb(255,66,14)" stroke="none" d="M 7782,9206 L 7882,9306 7982,9206 7882,9106 7782,9206 Z"/>
 <path fill="none" stroke="rgb(255,66,14)" stroke-linejoin="round" d="M 7782,9206 L 7882,9306 7982,9206 7882,9106 7782,9206 Z"/>
 <path fill="rgb(255,66,14)" stroke="none" d="M 7954,5117 L 8054,5217 8154,5117 8054,5017 7954,5117 Z"/>
 <path fill="none" stroke="rgb(255,66,14)" stroke-linejoin="round" d="M 7954,5117 L 8054,5217 8154,5117 8054,5017 7954,5117 Z"/>
 <path fill="rgb(255,66,14)" stroke="none" d="M 8127,5628 L 8227,5728 8327,5628 8227,5528 8127,5628 Z"/>
 <path fill="none" stroke="rgb(255,66,14)" stroke-linejoin="round" d="M 8127,5628 L 8227,5728 8327,5628 8227,5528 8127,5628 Z"/>
 <path fill="rgb(255,66,14)" stroke="none" d="M 8299,10229 L 8399,10329 8499,10229 8399,10129 8299,10229 Z"/>
 <path fill="none" stroke="rgb(255,66,14)" stroke-linejoin="round" d="M 8299,10229 L 8399,10329 8499,10229 8399,10129 8299,10229 Z"/>
 <path fill="rgb(255,66,14)" stroke="none" d="M 8471,9206 L 8571,9306 8671,9206 8571,9106 8471,9206 Z"/>
 <path fill="none" stroke="rgb(255,66,14)" stroke-linejoin="round" d="M 8471,9206 L 8571,9306 8671,9206 8571,9106 8471,9206 Z"/>
 <path fill="rgb(255,66,14)" stroke="none" d="M 8643,8184 L 8743,8284 8843,8184 8743,8084 8643,8184 Z"/>
 <path fill="none" stroke="rgb(255,66,14)" stroke-linejoin="round" d="M 8643,8184 L 8743,8284 8843,8184 8743,8084 8643,8184 Z"/>
 <path fill="rgb(255,66,14)" stroke="none" d="M 8815,9718 L 8915,9818 9015,9718 8915,9618 8815,9718 Z"/>
 <path fill="none" stroke="rgb(255,66,14)" stroke-linejoin="round" d="M 8815,9718 L 8915,9818 9015,9718 8915,9618 8815,9718 Z"/>
 <path fill="rgb(255,66,14)" stroke="none" d="M 8988,8695 L 9088,8795 9188,8695 9088,8595 8988,8695 Z"/>
 <path fill="none" stroke="rgb(255,66,14)" stroke-linejoin="round" d="M 8988,8695 L 9088,8795 9188,8695 9088,8595 8988,8695 Z"/>
 <path fill="rgb(255,66,14)" stroke="none" d="M 9160,11252 L 9260,11352 9360,11252 9260,11152 9160,11252 Z"/>
 <path fill="none" stroke="rgb(255,66,14)" stroke-linejoin="round" d="M 9160,11252 L 9260,11352 9360,11252 9260,11152 9160,11252 Z"/>
 <path fill="rgb(255,66,14)" stroke="none" d="M 9332,7161 L 9432,7261 9532,7161 9432,7061 9332,7161 Z"/>
 <path fill="none" stroke="rgb(255,66,14)" stroke-linejoin="round" d="M 9332,7161 L 9432,7261 9532,7161 9432,7061 9332,7161 Z"/>
 <path fill="rgb(255,66,14)" stroke="none" d="M 9504,8695 L 9604,8795 9704,8695 9604,8595 9504,8695 Z"/>
 <path fill="none" stroke="rgb(255,66,14)" stroke-linejoin="round" d="M 9504,8695 L 9604,8795 9704,8695 9604,8595 9504,8695 Z"/>
 <path fill="rgb(255,66,14)" stroke="none" d="M 9677,6139 L 9777,6239 9877,6139 9777,6039 9677,6139 Z"/>
 <path fill="none" stroke="rgb(255,66,14)" stroke-linejoin="round" d="M 9677,6139 L 9777,6239 9877,6139 9777,6039 9677,6139 Z"/>
 <path fill="rgb(255,66,14)" stroke="none" d="M 9849,8695 L 9949,8795 10049,8695 9949,8595 9849,8695 Z"/>
 <path fill="none" stroke="rgb(255,66,14)" stroke-linejoin="round" d="M 9849,8695 L 9949,8795 10049,8695 9949,8595 9849,8695 Z"/>
 <path fill="rgb(255,66,14)" stroke="none" d="M 10021,10740 L 10121,10840 10221,10740 10121,10640 10021,10740 Z"/>
 <path fill="none" stroke="rgb(255,66,14)" stroke-linejoin="round" d="M 10021,10740 L 10121,10840 10221,10740 10121,10640 10021,10740 Z"/>
 <path fill="rgb(255,66,14)" stroke="none" d="M 10193,7672 L 10293,7772 10393,7672 10293,7572 10193,7672 Z"/>
 <path fill="none" stroke="rgb(255,66,14)" stroke-linejoin="round" d="M 10193,7672 L 10293,7772 10393,7672 10293,7572 10193,7672 Z"/>
 <path fill="rgb(255,66,14)" stroke="none" d="M 10365,8184 L 10465,8284 10565,8184 10465,8084 10365,8184 Z"/>
 <path fill="none" stroke="rgb(255,66,14)" stroke-linejoin="round" d="M 10365,8184 L 10465,8284 10565,8184 10465,8084 10365,8184 Z"/>
 <path fill="rgb(255,66,14)" stroke="none" d="M 10538,9718 L 10638,9818 10738,9718 10638,9618 10538,9718 Z"/>
 <path fill="none" stroke="rgb(255,66,14)" stroke-linejoin="round" d="M 10538,9718 L 10638,9818 10738,9718 10638,9618 10538,9718 Z"/>
 <path fill="rgb(255,66,14)" stroke="none" d="M 10710,4094 L 10810,4194 10910,4094 10810,3994 10710,4094 Z"/>
 <path fill="none" stroke="rgb(255,66,14)" stroke-linejoin="round" d="M 10710,4094 L 10810,4194 10910,4094 10810,3994 10710,4094 Z"/>
 <path fill="rgb(255,66,14)" stroke="none" d="M 10882,7672 L 10982,7772 11082,7672 10982,7572 10882,7672 Z"/>
 <path fill="none" stroke="rgb(255,66,14)" stroke-linejoin="round" d="M 10882,7672 L 10982,7772 11082,7672 10982,7572 10882,7672 Z"/>
 <path fill="rgb(255,66,14)" stroke="none" d="M 11054,10229 L 11154,10329 11254,10229 11154,10129 11054,10229 Z"/>
 <path fill="none" stroke="rgb(255,66,14)" stroke-linejoin="round" d="M 11054,10229 L 11154,10329 11254,10229 11154,10129 11054,10229 Z"/>
 <path fill="rgb(255,66,14)" stroke="none" d="M 11226,9206 L 11326,9306 11426,9206 11326,9106 11226,9206 Z"/>
 <path fill="none" stroke="rgb(255,66,14)" stroke-linejoin="round" d="M 11226,9206 L 11326,9306 11426,9206 11326,9106 11226,9206 Z"/>
 <path fill="rgb(255,66,14)" stroke="none" d="M 11399,9718 L 11499,9818 11599,9718 11499,9618 11399,9718 Z"/>
 <path fill="none" stroke="rgb(255,66,14)" stroke-linejoin="round" d="M 11399,9718 L 11499,9818 11599,9718 11499,9618 11399,9718 Z"/>
 <path fill="rgb(255,66,14)" stroke="none" d="M 11571,9206 L 11671,9306 11771,9206 11671,9106 11571,9206 Z"/>
 <path fill="none" stroke="rgb(255,66,14)" stroke-linejoin="round" d="M 11571,9206 L 11671,9306 11771,9206 11671,9106 11571,9206 Z"/>
 <path fill="rgb(255,66,14)" stroke="none" d="M 11743,9206 L 11843,9306 11943,9206 11843,9106 11743,9206 Z"/>
 <path fill="none" stroke="rgb(255,66,14)" stroke-linejoin="round" d="M 11743,9206 L 11843,9306 11943,9206 11843,9106 11743,9206 Z"/>
 <path fill="rgb(255,66,14)" stroke="none" d="M 11915,10229 L 12015,10329 12115,10229 12015,10129 11915,10229 Z"/>
 <path fill="none" stroke="rgb(255,66,14)" stroke-linejoin="round" d="M 11915,10229 L 12015,10329 12115,10229 12015,10129 11915,10229 Z"/>
 <path fill="rgb(255,66,14)" stroke="none" d="M 12087,10740 L 12187,10840 12287,10740 12187,10640 12087,10740 Z"/>
 <path fill="none" stroke="rgb(255,66,14)" stroke-linejoin="round" d="M 12087,10740 L 12187,10840 12287,10740 12187,10640 12087,10740 Z"/>
 <path fill="rgb(255,66,14)" stroke="none" d="M 12260,9206 L 12360,9306 12460,9206 12360,9106 12260,9206 Z"/>
 <path fill="none" stroke="rgb(255,66,14)" stroke-linejoin="round" d="M 12260,9206 L 12360,9306 12460,9206 12360,9106 12260,9206 Z"/>
 <path fill="rgb(255,66,14)" stroke="none" d="M 12432,10229 L 12532,10329 12632,10229 12532,10129 12432,10229 Z"/>
 <path fill="none" stroke="rgb(255,66,14)" stroke-linejoin="round" d="M 12432,10229 L 12532,10329 12632,10229 12532,10129 12432,10229 Z"/>
 <path fill="rgb(255,66,14)" stroke="none" d="M 12604,9206 L 12704,9306 12804,9206 12704,9106 12604,9206 Z"/>
 <path fill="none" stroke="rgb(255,66,14)" stroke-linejoin="round" d="M 12604,9206 L 12704,9306 12804,9206 12704,9106 12604,9206 Z"/>
 <path fill="rgb(255,66,14)" stroke="none" d="M 12776,9718 L 12876,9818 12976,9718 12876,9618 12776,9718 Z"/>
 <path fill="none" stroke="rgb(255,66,14)" stroke-linejoin="round" d="M 12776,9718 L 12876,9818 12976,9718 12876,9618 12776,9718 Z"/>
 <path fill="rgb(255,66,14)" stroke="none" d="M 12949,8695 L 13049,8795 13149,8695 13049,8595 12949,8695 Z"/>
 <path fill="none" stroke="rgb(255,66,14)" stroke-linejoin="round" d="M 12949,8695 L 13049,8795 13149,8695 13049,8595 12949,8695 Z"/>
 <path fill="rgb(255,66,14)" stroke="none" d="M 13121,9206 L 13221,9306 13321,9206 13221,9106 13121,9206 Z"/>
 <path fill="none" stroke="rgb(255,66,14)" stroke-linejoin="round" d="M 13121,9206 L 13221,9306 13321,9206 13221,9106 13121,9206 Z"/>
 <path fill="rgb(255,66,14)" stroke="none" d="M 13293,11252 L 13393,11352 13493,11252 13393,11152 13293,11252 Z"/>
 <path fill="none" stroke="rgb(255,66,14)" stroke-linejoin="round" d="M 13293,11252 L 13393,11352 13493,11252 13393,11152 13293,11252 Z"/>
 <path fill="rgb(255,66,14)" stroke="none" d="M 13465,11252 L 13565,11352 13665,11252 13565,11152 13465,11252 Z"/>
 <path fill="none" stroke="rgb(255,66,14)" stroke-linejoin="round" d="M 13465,11252 L 13565,11352 13665,11252 13565,11152 13465,11252 Z"/>
 <path fill="rgb(255,66,14)" stroke="none" d="M 13637,10740 L 13737,10840 13837,10740 13737,10640 13637,10740 Z"/>
 <path fill="none" stroke="rgb(255,66,14)" stroke-linejoin="round" d="M 13637,10740 L 13737,10840 13837,10740 13737,10640 13637,10740 Z"/>
 <path fill="rgb(255,66,14)" stroke="none" d="M 13810,10740 L 13910,10840 14010,10740 13910,10640 13810,10740 Z"/>
 <path fill="none" stroke="rgb(255,66,14)" stroke-linejoin="round" d="M 13810,10740 L 13910,10840 14010,10740 13910,10640 13810,10740 Z"/>
 <path fill="rgb(255,66,14)" stroke="none" d="M 13982,10229 L 14082,10329 14182,10229 14082,10129 13982,10229 Z"/>
 <path fill="none" stroke="rgb(255,66,14)" stroke-linejoin="round" d="M 13982,10229 L 14082,10329 14182,10229 14082,10129 13982,10229 Z"/>
 <path fill="rgb(255,66,14)" stroke="none" d="M 14154,10740 L 14254,10840 14354,10740 14254,10640 14154,10740 Z"/>
 <path fill="none" stroke="rgb(255,66,14)" stroke-linejoin="round" d="M 14154,10740 L 14254,10840 14354,10740 14254,10640 14154,10740 Z"/>
 <path fill="rgb(255,66,14)" stroke="none" d="M 14326,8695 L 14426,8795 14526,8695 14426,8595 14326,8695 Z"/>
 <path fill="none" stroke="rgb(255,66,14)" stroke-linejoin="round" d="M 14326,8695 L 14426,8795 14526,8695 14426,8595 14326,8695 Z"/>
 <path fill="rgb(255,66,14)" stroke="none" d="M 14498,10229 L 14598,10329 14698,10229 14598,10129 14498,10229 Z"/>
 <path fill="none" stroke="rgb(255,66,14)" stroke-linejoin="round" d="M 14498,10229 L 14598,10329 14698,10229 14598,10129 14498,10229 Z"/>
 <path fill="none" stroke="rgb(255,211,32)" stroke-width="50" stroke-linejoin="round" d="M 4783,10740 L 4956,11252 5128,11252 5300,10740 5472,10740 5644,11252 5817,10740 5989,9718 6161,10229 6333,10229 6506,8695 6678,8695 6850,9718 7022,9718 7194,6650 7367,9718 7538,10740 7710,3583 7882,7672 8054,8184 8227,8695 8399,8695 8571,10229 8743,8695 8915,9206 9088,10229 9260,10740 9432,10229 9604,10740 9777,11252 9949,10740 10121,8184 10293,10229 10465,9718 10638,9206 10810,9206 10982,9206 11154,11252 11326,10740 11499,10740 11671,11252 11843,7672 12015,10229 12187,10740 12360,11252 12532,10229 12704,10740 12876,10740 13049,10740 13221,9206 13393,11252 13565,10740 13737,10740 13910,10740 14082,10740 14254,9206 14426,11252 14598,11252"/>
 <path fill="rgb(255,211,32)" stroke="none" d="M 4683,10640 L 4783,10840 4883,10640 4683,10640 Z"/>
 <path fill="none" stroke="rgb(255,211,32)" stroke-linejoin="round" d="M 4683,10640 L 4783,10840 4883,10640 4683,10640 Z"/>
 <path fill="rgb(255,211,32)" stroke="none" d="M 4856,11152 L 4956,11352 5056,11152 4856,11152 Z"/>
 <path fill="none" stroke="rgb(255,211,32)" stroke-linejoin="round" d="M 4856,11152 L 4956,11352 5056,11152 4856,11152 Z"/>
 <path fill="rgb(255,211,32)" stroke="none" d="M 5028,11152 L 5128,11352 5228,11152 5028,11152 Z"/>
 <path fill="none" stroke="rgb(255,211,32)" stroke-linejoin="round" d="M 5028,11152 L 5128,11352 5228,11152 5028,11152 Z"/>
 <path fill="rgb(255,211,32)" stroke="none" d="M 5200,10640 L 5300,10840 5400,10640 5200,10640 Z"/>
 <path fill="none" stroke="rgb(255,211,32)" stroke-linejoin="round" d="M 5200,10640 L 5300,10840 5400,10640 5200,10640 Z"/>
 <path fill="rgb(255,211,32)" stroke="none" d="M 5372,10640 L 5472,10840 5572,10640 5372,10640 Z"/>
 <path fill="none" stroke="rgb(255,211,32)" stroke-linejoin="round" d="M 5372,10640 L 5472,10840 5572,10640 5372,10640 Z"/>
 <path fill="rgb(255,211,32)" stroke="none" d="M 5544,11152 L 5644,11352 5744,11152 5544,11152 Z"/>
 <path fill="none" stroke="rgb(255,211,32)" stroke-linejoin="round" d="M 5544,11152 L 5644,11352 5744,11152 5544,11152 Z"/>
 <path fill="rgb(255,211,32)" stroke="none" d="M 5717,10640 L 5817,10840 5917,10640 5717,10640 Z"/>
 <path fill="none" stroke="rgb(255,211,32)" stroke-linejoin="round" d="M 5717,10640 L 5817,10840 5917,10640 5717,10640 Z"/>
 <path fill="rgb(255,211,32)" stroke="none" d="M 5889,9618 L 5989,9818 6089,9618 5889,9618 Z"/>
 <path fill="none" stroke="rgb(255,211,32)" stroke-linejoin="round" d="M 5889,9618 L 5989,9818 6089,9618 5889,9618 Z"/>
 <path fill="rgb(255,211,32)" stroke="none" d="M 6061,10129 L 6161,10329 6261,10129 6061,10129 Z"/>
 <path fill="none" stroke="rgb(255,211,32)" stroke-linejoin="round" d="M 6061,10129 L 6161,10329 6261,10129 6061,10129 Z"/>
 <path fill="rgb(255,211,32)" stroke="none" d="M 6233,10129 L 6333,10329 6433,10129 6233,10129 Z"/>
 <path fill="none" stroke="rgb(255,211,32)" stroke-linejoin="round" d="M 6233,10129 L 6333,10329 6433,10129 6233,10129 Z"/>
 <path fill="rgb(255,211,32)" stroke="none" d="M 6406,8595 L 6506,8795 6606,8595 6406,8595 Z"/>
 <path fill="none" stroke="rgb(255,211,32)" stroke-linejoin="round" d="M 6406,8595 L 6506,8795 6606,8595 6406,8595 Z"/>
 <path fill="rgb(255,211,32)" stroke="none" d="M 6578,8595 L 6678,8795 6778,8595 6578,8595 Z"/>
 <path fill="none" stroke="rgb(255,211,32)" stroke-linejoin="round" d="M 6578,8595 L 6678,8795 6778,8595 6578,8595 Z"/>
 <path fill="rgb(255,211,32)" stroke="none" d="M 6750,9618 L 6850,9818 6950,9618 6750,9618 Z"/>
 <path fill="none" stroke="rgb(255,211,32)" stroke-linejoin="round" d="M 6750,9618 L 6850,9818 6950,9618 6750,9618 Z"/>
 <path fill="rgb(255,211,32)" stroke="none" d="M 6922,9618 L 7022,9818 7122,9618 6922,9618 Z"/>
 <path fill="none" stroke="rgb(255,211,32)" stroke-linejoin="round" d="M 6922,9618 L 7022,9818 7122,9618 6922,9618 Z"/>
 <path fill="rgb(255,211,32)" stroke="none" d="M 7094,6550 L 7194,6750 7294,6550 7094,6550 Z"/>
 <path fill="none" stroke="rgb(255,211,32)" stroke-linejoin="round" d="M 7094,6550 L 7194,6750 7294,6550 7094,6550 Z"/>
 <path fill="rgb(255,211,32)" stroke="none" d="M 7267,9618 L 7367,9818 7467,9618 7267,9618 Z"/>
 <path fill="none" stroke="rgb(255,211,32)" stroke-linejoin="round" d="M 7267,9618 L 7367,9818 7467,9618 7267,9618 Z"/>
 <path fill="rgb(255,211,32)" stroke="none" d="M 7439,10640 L 7538,10840 7638,10640 7439,10640 Z"/>
 <path fill="none" stroke="rgb(255,211,32)" stroke-linejoin="round" d="M 7439,10640 L 7538,10840 7638,10640 7439,10640 Z"/>
 <path fill="rgb(255,211,32)" stroke="none" d="M 7610,3483 L 7710,3683 7810,3483 7610,3483 Z"/>
 <path fill="none" stroke="rgb(255,211,32)" stroke-linejoin="round" d="M 7610,3483 L 7710,3683 7810,3483 7610,3483 Z"/>
 <path fill="rgb(255,211,32)" stroke="none" d="M 7782,7572 L 7882,7772 7982,7572 7782,7572 Z"/>
 <path fill="none" stroke="rgb(255,211,32)" stroke-linejoin="round" d="M 7782,7572 L 7882,7772 7982,7572 7782,7572 Z"/>
 <path fill="rgb(255,211,32)" stroke="none" d="M 7954,8084 L 8054,8284 8154,8084 7954,8084 Z"/>
 <path fill="none" stroke="rgb(255,211,32)" stroke-linejoin="round" d="M 7954,8084 L 8054,8284 8154,8084 7954,8084 Z"/>
 <path fill="rgb(255,211,32)" stroke="none" d="M 8127,8595 L 8227,8795 8327,8595 8127,8595 Z"/>
 <path fill="none" stroke="rgb(255,211,32)" stroke-linejoin="round" d="M 8127,8595 L 8227,8795 8327,8595 8127,8595 Z"/>
 <path fill="rgb(255,211,32)" stroke="none" d="M 8299,8595 L 8399,8795 8499,8595 8299,8595 Z"/>
 <path fill="none" stroke="rgb(255,211,32)" stroke-linejoin="round" d="M 8299,8595 L 8399,8795 8499,8595 8299,8595 Z"/>
 <path fill="rgb(255,211,32)" stroke="none" d="M 8471,10129 L 8571,10329 8671,10129 8471,10129 Z"/>
 <path fill="none" stroke="rgb(255,211,32)" stroke-linejoin="round" d="M 8471,10129 L 8571,10329 8671,10129 8471,10129 Z"/>
 <path fill="rgb(255,211,32)" stroke="none" d="M 8643,8595 L 8743,8795 8843,8595 8643,8595 Z"/>
 <path fill="none" stroke="rgb(255,211,32)" stroke-linejoin="round" d="M 8643,8595 L 8743,8795 8843,8595 8643,8595 Z"/>
 <path fill="rgb(255,211,32)" stroke="none" d="M 8815,9106 L 8915,9306 9015,9106 8815,9106 Z"/>
 <path fill="none" stroke="rgb(255,211,32)" stroke-linejoin="round" d="M 8815,9106 L 8915,9306 9015,9106 8815,9106 Z"/>
 <path fill="rgb(255,211,32)" stroke="none" d="M 8988,10129 L 9088,10329 9188,10129 8988,10129 Z"/>
 <path fill="none" stroke="rgb(255,211,32)" stroke-linejoin="round" d="M 8988,10129 L 9088,10329 9188,10129 8988,10129 Z"/>
 <path fill="rgb(255,211,32)" stroke="none" d="M 9160,10640 L 9260,10840 9360,10640 9160,10640 Z"/>
 <path fill="none" stroke="rgb(255,211,32)" stroke-linejoin="round" d="M 9160,10640 L 9260,10840 9360,10640 9160,10640 Z"/>
 <path fill="rgb(255,211,32)" stroke="none" d="M 9332,10129 L 9432,10329 9532,10129 9332,10129 Z"/>
 <path fill="none" stroke="rgb(255,211,32)" stroke-linejoin="round" d="M 9332,10129 L 9432,10329 9532,10129 9332,10129 Z"/>
 <path fill="rgb(255,211,32)" stroke="none" d="M 9504,10640 L 9604,10840 9704,10640 9504,10640 Z"/>
 <path fill="none" stroke="rgb(255,211,32)" stroke-linejoin="round" d="M 9504,10640 L 9604,10840 9704,10640 9504,10640 Z"/>
 <path fill="rgb(255,211,32)" stroke="none" d="M 9677,11152 L 9777,11352 9877,11152 9677,11152 Z"/>
 <path fill="none" stroke="rgb(255,211,32)" stroke-linejoin="round" d="M 9677,11152 L 9777,11352 9877,11152 9677,11152 Z"/>
 <path fill="rgb(255,211,32)" stroke="none" d="M 9849,10640 L 9949,10840 10049,10640 9849,10640 Z"/>
 <path fill="none" stroke="rgb(255,211,32)" stroke-linejoin="round" d="M 9849,10640 L 9949,10840 10049,10640 9849,10640 Z"/>
 <path fill="rgb(255,211,32)" stroke="none" d="M 10021,8084 L 10121,8284 10221,8084 10021,8084 Z"/>
 <path fill="none" stroke="rgb(255,211,32)" stroke-linejoin="round" d="M 10021,8084 L 10121,8284 10221,8084 10021,8084 Z"/>
 <path fill="rgb(255,211,32)" stroke="none" d="M 10193,10129 L 10293,10329 10393,10129 10193,10129 Z"/>
 <path fill="none" stroke="rgb(255,211,32)" stroke-linejoin="round" d="M 10193,10129 L 10293,10329 10393,10129 10193,10129 Z"/>
 <path fill="rgb(255,211,32)" stroke="none" d="M 10365,9618 L 10465,9818 10565,9618 10365,9618 Z"/>
 <path fill="none" stroke="rgb(255,211,32)" stroke-linejoin="round" d="M 10365,9618 L 10465,9818 10565,9618 10365,9618 Z"/>
 <path fill="rgb(255,211,32)" stroke="none" d="M 10538,9106 L 10638,9306 10738,9106 10538,9106 Z"/>
 <path fill="none" stroke="rgb(255,211,32)" stroke-linejoin="round" d="M 10538,9106 L 10638,9306 10738,9106 10538,9106 Z"/>
 <path fill="rgb(255,211,32)" stroke="none" d="M 10710,9106 L 10810,9306 10910,9106 10710,9106 Z"/>
 <path fill="none" stroke="rgb(255,211,32)" stroke-linejoin="round" d="M 10710,9106 L 10810,9306 10910,9106 10710,9106 Z"/>
 <path fill="rgb(255,211,32)" stroke="none" d="M 10882,9106 L 10982,9306 11082,9106 10882,9106 Z"/>
 <path fill="none" stroke="rgb(255,211,32)" stroke-linejoin="round" d="M 10882,9106 L 10982,9306 11082,9106 10882,9106 Z"/>
 <path fill="rgb(255,211,32)" stroke="none" d="M 11054,11152 L 11154,11352 11254,11152 11054,11152 Z"/>
 <path fill="none" stroke="rgb(255,211,32)" stroke-linejoin="round" d="M 11054,11152 L 11154,11352 11254,11152 11054,11152 Z"/>
 <path fill="rgb(255,211,32)" stroke="none" d="M 11226,10640 L 11326,10840 11426,10640 11226,10640 Z"/>
 <path fill="none" stroke="rgb(255,211,32)" stroke-linejoin="round" d="M 11226,10640 L 11326,10840 11426,10640 11226,10640 Z"/>
 <path fill="rgb(255,211,32)" stroke="none" d="M 11399,10640 L 11499,10840 11599,10640 11399,10640 Z"/>
 <path fill="none" stroke="rgb(255,211,32)" stroke-linejoin="round" d="M 11399,10640 L 11499,10840 11599,10640 11399,10640 Z"/>
 <path fill="rgb(255,211,32)" stroke="none" d="M 11571,11152 L 11671,11352 11771,11152 11571,11152 Z"/>
 <path fill="none" stroke="rgb(255,211,32)" stroke-linejoin="round" d="M 11571,11152 L 11671,11352 11771,11152 11571,11152 Z"/>
 <path fill="rgb(255,211,32)" stroke="none" d="M 11743,7572 L 11843,7772 11943,7572 11743,7572 Z"/>
 <path fill="none" stroke="rgb(255,211,32)" stroke-linejoin="round" d="M 11743,7572 L 11843,7772 11943,7572 11743,7572 Z"/>
 <path fill="rgb(255,211,32)" stroke="none" d="M 11915,10129 L 12015,10329 12115,10129 11915,10129 Z"/>
 <path fill="none" stroke="rgb(255,211,32)" stroke-linejoin="round" d="M 11915,10129 L 12015,10329 12115,10129 11915,10129 Z"/>
 <path fill="rgb(255,211,32)" stroke="none" d="M 12087,10640 L 12187,10840 12287,10640 12087,10640 Z"/>
 <path fill="none" stroke="rgb(255,211,32)" stroke-linejoin="round" d="M 12087,10640 L 12187,10840 12287,10640 12087,10640 Z"/>
 <path fill="rgb(255,211,32)" stroke="none" d="M 12260,11152 L 12360,11352 12460,11152 12260,11152 Z"/>
 <path fill="none" stroke="rgb(255,211,32)" stroke-linejoin="round" d="M 12260,11152 L 12360,11352 12460,11152 12260,11152 Z"/>
 <path fill="rgb(255,211,32)" stroke="none" d="M 12432,10129 L 12532,10329 12632,10129 12432,10129 Z"/>
 <path fill="none" stroke="rgb(255,211,32)" stroke-linejoin="round" d="M 12432,10129 L 12532,10329 12632,10129 12432,10129 Z"/>
 <path fill="rgb(255,211,32)" stroke="none" d="M 12604,10640 L 12704,10840 12804,10640 12604,10640 Z"/>
 <path fill="none" stroke="rgb(255,211,32)" stroke-linejoin="round" d="M 12604,10640 L 12704,10840 12804,10640 12604,10640 Z"/>
 <path fill="rgb(255,211,32)" stroke="none" d="M 12776,10640 L 12876,10840 12976,10640 12776,10640 Z"/>
 <path fill="none" stroke="rgb(255,211,32)" stroke-linejoin="round" d="M 12776,10640 L 12876,10840 12976,10640 12776,10640 Z"/>
 <path fill="rgb(255,211,32)" stroke="none" d="M 12949,10640 L 13049,10840 13149,10640 12949,10640 Z"/>
 <path fill="none" stroke="rgb(255,211,32)" stroke-linejoin="round" d="M 12949,10640 L 13049,10840 13149,10640 12949,10640 Z"/>
 <path fill="rgb(255,211,32)" stroke="none" d="M 13121,9106 L 13221,9306 13321,9106 13121,9106 Z"/>
 <path fill="none" stroke="rgb(255,211,32)" stroke-linejoin="round" d="M 13121,9106 L 13221,9306 13321,9106 13121,9106 Z"/>
 <path fill="rgb(255,211,32)" stroke="none" d="M 13293,11152 L 13393,11352 13493,11152 13293,11152 Z"/>
 <path fill="none" stroke="rgb(255,211,32)" stroke-linejoin="round" d="M 13293,11152 L 13393,11352 13493,11152 13293,11152 Z"/>
 <path fill="rgb(255,211,32)" stroke="none" d="M 13465,10640 L 13565,10840 13665,10640 13465,10640 Z"/>
 <path fill="none" stroke="rgb(255,211,32)" stroke-linejoin="round" d="M 13465,10640 L 13565,10840 13665,10640 13465,10640 Z"/>
 <path fill="rgb(255,211,32)" stroke="none" d="M 13637,10640 L 13737,10840 13837,10640 13637,10640 Z"/>
 <path fill="none" stroke="rgb(255,211,32)" stroke-linejoin="round" d="M 13637,10640 L 13737,10840 13837,10640 13637,10640 Z"/>
 <path fill="rgb(255,211,32)" stroke="none" d="M 13810,10640 L 13910,10840 14010,10640 13810,10640 Z"/>
 <path fill="none" stroke="rgb(255,211,32)" stroke-linejoin="round" d="M 13810,10640 L 13910,10840 14010,10640 13810,10640 Z"/>
 <path fill="rgb(255,211,32)" stroke="none" d="M 13982,10640 L 14082,10840 14182,10640 13982,10640 Z"/>
 <path fill="none" stroke="rgb(255,211,32)" stroke-linejoin="round" d="M 13982,10640 L 14082,10840 14182,10640 13982,10640 Z"/>
 <path fill="rgb(255,211,32)" stroke="none" d="M 14154,9106 L 14254,9306 14354,9106 14154,9106 Z"/>
 <path fill="none" stroke="rgb(255,211,32)" stroke-linejoin="round" d="M 14154,9106 L 14254,9306 14354,9106 14154,9106 Z"/>
 <path fill="rgb(255,211,32)" stroke="none" d="M 14326,11152 L 14426,11352 14526,11152 14326,11152 Z"/>
 <path fill="none" stroke="rgb(255,211,32)" stroke-linejoin="round" d="M 14326,11152 L 14426,11352 14526,11152 14326,11152 Z"/>
 <path fill="rgb(255,211,32)" stroke="none" d="M 14498,11152 L 14598,11352 14698,11152 14498,11152 Z"/>
 <path fill="none" stroke="rgb(255,211,32)" stroke-linejoin="round" d="M 14498,11152 L 14598,11352 14698,11152 14498,11152 Z"/>
 <path fill="none" stroke="rgb(87,157,28)" stroke-width="50" stroke-linejoin="round" d="M 5472,10740 L 5644,11252 5817,11252 5989,10740 6161,9718 6333,10740 6506,9718 6678,8695 6850,9718 7022,9206 7194,10740 7367,9206 7538,10740 7710,6139 7882,2560 8054,8184 8227,9206 8399,9206 8571,11252 8743,6650 8915,7161 9088,7672 9260,8184 9432,9206 9604,8695 9777,9718 9949,7672 10121,9718 10293,5117 10465,8695 10638,7672 10810,8695 10982,9206 11154,8695 11326,7672 11499,10229 11671,8184 11843,8695 12015,9206 12187,10740 12360,9718 12532,10229 12704,9718 12876,11252 13049,10740 13221,10740 13393,10229 13565,10229 13737,10740 13910,10740 14082,10740 14254,10740 14426,11252 14598,11252"/>
 <path fill="rgb(87,157,28)" stroke="none" d="M 5372,10840 L 5572,10840 5472,10640 5372,10840 Z"/>
 <path fill="none" stroke="rgb(87,157,28)" stroke-linejoin="round" d="M 5372,10840 L 5572,10840 5472,10640 5372,10840 Z"/>
 <path fill="rgb(87,157,28)" stroke="none" d="M 5544,11352 L 5744,11352 5644,11152 5544,11352 Z"/>
 <path fill="none" stroke="rgb(87,157,28)" stroke-linejoin="round" d="M 5544,11352 L 5744,11352 5644,11152 5544,11352 Z"/>
 <path fill="rgb(87,157,28)" stroke="none" d="M 5717,11352 L 5917,11352 5817,11152 5717,11352 Z"/>
 <path fill="none" stroke="rgb(87,157,28)" stroke-linejoin="round" d="M 5717,11352 L 5917,11352 5817,11152 5717,11352 Z"/>
 <path fill="rgb(87,157,28)" stroke="none" d="M 5889,10840 L 6089,10840 5989,10640 5889,10840 Z"/>
 <path fill="none" stroke="rgb(87,157,28)" stroke-linejoin="round" d="M 5889,10840 L 6089,10840 5989,10640 5889,10840 Z"/>
 <path fill="rgb(87,157,28)" stroke="none" d="M 6061,9818 L 6261,9818 6161,9618 6061,9818 Z"/>
 <path fill="none" stroke="rgb(87,157,28)" stroke-linejoin="round" d="M 6061,9818 L 6261,9818 6161,9618 6061,9818 Z"/>
 <path fill="rgb(87,157,28)" stroke="none" d="M 6233,10840 L 6433,10840 6333,10640 6233,10840 Z"/>
 <path fill="none" stroke="rgb(87,157,28)" stroke-linejoin="round" d="M 6233,10840 L 6433,10840 6333,10640 6233,10840 Z"/>
 <path fill="rgb(87,157,28)" stroke="none" d="M 6406,9818 L 6606,9818 6506,9618 6406,9818 Z"/>
 <path fill="none" stroke="rgb(87,157,28)" stroke-linejoin="round" d="M 6406,9818 L 6606,9818 6506,9618 6406,9818 Z"/>
 <path fill="rgb(87,157,28)" stroke="none" d="M 6578,8795 L 6778,8795 6678,8595 6578,8795 Z"/>
 <path fill="none" stroke="rgb(87,157,28)" stroke-linejoin="round" d="M 6578,8795 L 6778,8795 6678,8595 6578,8795 Z"/>
 <path fill="rgb(87,157,28)" stroke="none" d="M 6750,9818 L 6950,9818 6850,9618 6750,9818 Z"/>
 <path fill="none" stroke="rgb(87,157,28)" stroke-linejoin="round" d="M 6750,9818 L 6950,9818 6850,9618 6750,9818 Z"/>
 <path fill="rgb(87,157,28)" stroke="none" d="M 6922,9306 L 7122,9306 7022,9106 6922,9306 Z"/>
 <path fill="none" stroke="rgb(87,157,28)" stroke-linejoin="round" d="M 6922,9306 L 7122,9306 7022,9106 6922,9306 Z"/>
 <path fill="rgb(87,157,28)" stroke="none" d="M 7094,10840 L 7294,10840 7194,10640 7094,10840 Z"/>
 <path fill="none" stroke="rgb(87,157,28)" stroke-linejoin="round" d="M 7094,10840 L 7294,10840 7194,10640 7094,10840 Z"/>
 <path fill="rgb(87,157,28)" stroke="none" d="M 7267,9306 L 7467,9306 7367,9106 7267,9306 Z"/>
 <path fill="none" stroke="rgb(87,157,28)" stroke-linejoin="round" d="M 7267,9306 L 7467,9306 7367,9106 7267,9306 Z"/>
 <path fill="rgb(87,157,28)" stroke="none" d="M 7439,10840 L 7638,10840 7538,10640 7439,10840 Z"/>
 <path fill="none" stroke="rgb(87,157,28)" stroke-linejoin="round" d="M 7439,10840 L 7638,10840 7538,10640 7439,10840 Z"/>
 <path fill="rgb(87,157,28)" stroke="none" d="M 7610,6239 L 7810,6239 7710,6039 7610,6239 Z"/>
 <path fill="none" stroke="rgb(87,157,28)" stroke-linejoin="round" d="M 7610,6239 L 7810,6239 7710,6039 7610,6239 Z"/>
 <path fill="rgb(87,157,28)" stroke="none" d="M 7782,2660 L 7982,2660 7882,2460 7782,2660 Z"/>
 <path fill="none" stroke="rgb(87,157,28)" stroke-linejoin="round" d="M 7782,2660 L 7982,2660 7882,2460 7782,2660 Z"/>
 <path fill="rgb(87,157,28)" stroke="none" d="M 7954,8284 L 8154,8284 8054,8084 7954,8284 Z"/>
 <path fill="none" stroke="rgb(87,157,28)" stroke-linejoin="round" d="M 7954,8284 L 8154,8284 8054,8084 7954,8284 Z"/>
 <path fill="rgb(87,157,28)" stroke="none" d="M 8127,9306 L 8327,9306 8227,9106 8127,9306 Z"/>
 <path fill="none" stroke="rgb(87,157,28)" stroke-linejoin="round" d="M 8127,9306 L 8327,9306 8227,9106 8127,9306 Z"/>
 <path fill="rgb(87,157,28)" stroke="none" d="M 8299,9306 L 8499,9306 8399,9106 8299,9306 Z"/>
 <path fill="none" stroke="rgb(87,157,28)" stroke-linejoin="round" d="M 8299,9306 L 8499,9306 8399,9106 8299,9306 Z"/>
 <path fill="rgb(87,157,28)" stroke="none" d="M 8471,11352 L 8671,11352 8571,11152 8471,11352 Z"/>
 <path fill="none" stroke="rgb(87,157,28)" stroke-linejoin="round" d="M 8471,11352 L 8671,11352 8571,11152 8471,11352 Z"/>
 <path fill="rgb(87,157,28)" stroke="none" d="M 8643,6750 L 8843,6750 8743,6550 8643,6750 Z"/>
 <path fill="none" stroke="rgb(87,157,28)" stroke-linejoin="round" d="M 8643,6750 L 8843,6750 8743,6550 8643,6750 Z"/>
 <path fill="rgb(87,157,28)" stroke="none" d="M 8815,7261 L 9015,7261 8915,7061 8815,7261 Z"/>
 <path fill="none" stroke="rgb(87,157,28)" stroke-linejoin="round" d="M 8815,7261 L 9015,7261 8915,7061 8815,7261 Z"/>
 <path fill="rgb(87,157,28)" stroke="none" d="M 8988,7772 L 9188,7772 9088,7572 8988,7772 Z"/>
 <path fill="none" stroke="rgb(87,157,28)" stroke-linejoin="round" d="M 8988,7772 L 9188,7772 9088,7572 8988,7772 Z"/>
 <path fill="rgb(87,157,28)" stroke="none" d="M 9160,8284 L 9360,8284 9260,8084 9160,8284 Z"/>
 <path fill="none" stroke="rgb(87,157,28)" stroke-linejoin="round" d="M 9160,8284 L 9360,8284 9260,8084 9160,8284 Z"/>
 <path fill="rgb(87,157,28)" stroke="none" d="M 9332,9306 L 9532,9306 9432,9106 9332,9306 Z"/>
 <path fill="none" stroke="rgb(87,157,28)" stroke-linejoin="round" d="M 9332,9306 L 9532,9306 9432,9106 9332,9306 Z"/>
 <path fill="rgb(87,157,28)" stroke="none" d="M 9504,8795 L 9704,8795 9604,8595 9504,8795 Z"/>
 <path fill="none" stroke="rgb(87,157,28)" stroke-linejoin="round" d="M 9504,8795 L 9704,8795 9604,8595 9504,8795 Z"/>
 <path fill="rgb(87,157,28)" stroke="none" d="M 9677,9818 L 9877,9818 9777,9618 9677,9818 Z"/>
 <path fill="none" stroke="rgb(87,157,28)" stroke-linejoin="round" d="M 9677,9818 L 9877,9818 9777,9618 9677,9818 Z"/>
 <path fill="rgb(87,157,28)" stroke="none" d="M 9849,7772 L 10049,7772 9949,7572 9849,7772 Z"/>
 <path fill="none" stroke="rgb(87,157,28)" stroke-linejoin="round" d="M 9849,7772 L 10049,7772 9949,7572 9849,7772 Z"/>
 <path fill="rgb(87,157,28)" stroke="none" d="M 10021,9818 L 10221,9818 10121,9618 10021,9818 Z"/>
 <path fill="none" stroke="rgb(87,157,28)" stroke-linejoin="round" d="M 10021,9818 L 10221,9818 10121,9618 10021,9818 Z"/>
 <path fill="rgb(87,157,28)" stroke="none" d="M 10193,5217 L 10393,5217 10293,5017 10193,5217 Z"/>
 <path fill="none" stroke="rgb(87,157,28)" stroke-linejoin="round" d="M 10193,5217 L 10393,5217 10293,5017 10193,5217 Z"/>
 <path fill="rgb(87,157,28)" stroke="none" d="M 10365,8795 L 10565,8795 10465,8595 10365,8795 Z"/>
 <path fill="none" stroke="rgb(87,157,28)" stroke-linejoin="round" d="M 10365,8795 L 10565,8795 10465,8595 10365,8795 Z"/>
 <path fill="rgb(87,157,28)" stroke="none" d="M 10538,7772 L 10738,7772 10638,7572 10538,7772 Z"/>
 <path fill="none" stroke="rgb(87,157,28)" stroke-linejoin="round" d="M 10538,7772 L 10738,7772 10638,7572 10538,7772 Z"/>
 <path fill="rgb(87,157,28)" stroke="none" d="M 10710,8795 L 10910,8795 10810,8595 10710,8795 Z"/>
 <path fill="none" stroke="rgb(87,157,28)" stroke-linejoin="round" d="M 10710,8795 L 10910,8795 10810,8595 10710,8795 Z"/>
 <path fill="rgb(87,157,28)" stroke="none" d="M 10882,9306 L 11082,9306 10982,9106 10882,9306 Z"/>
 <path fill="none" stroke="rgb(87,157,28)" stroke-linejoin="round" d="M 10882,9306 L 11082,9306 10982,9106 10882,9306 Z"/>
 <path fill="rgb(87,157,28)" stroke="none" d="M 11054,8795 L 11254,8795 11154,8595 11054,8795 Z"/>
 <path fill="none" stroke="rgb(87,157,28)" stroke-linejoin="round" d="M 11054,8795 L 11254,8795 11154,8595 11054,8795 Z"/>
 <path fill="rgb(87,157,28)" stroke="none" d="M 11226,7772 L 11426,7772 11326,7572 11226,7772 Z"/>
 <path fill="none" stroke="rgb(87,157,28)" stroke-linejoin="round" d="M 11226,7772 L 11426,7772 11326,7572 11226,7772 Z"/>
 <path fill="rgb(87,157,28)" stroke="none" d="M 11399,10329 L 11599,10329 11499,10129 11399,10329 Z"/>
 <path fill="none" stroke="rgb(87,157,28)" stroke-linejoin="round" d="M 11399,10329 L 11599,10329 11499,10129 11399,10329 Z"/>
 <path fill="rgb(87,157,28)" stroke="none" d="M 11571,8284 L 11771,8284 11671,8084 11571,8284 Z"/>
 <path fill="none" stroke="rgb(87,157,28)" stroke-linejoin="round" d="M 11571,8284 L 11771,8284 11671,8084 11571,8284 Z"/>
 <path fill="rgb(87,157,28)" stroke="none" d="M 11743,8795 L 11943,8795 11843,8595 11743,8795 Z"/>
 <path fill="none" stroke="rgb(87,157,28)" stroke-linejoin="round" d="M 11743,8795 L 11943,8795 11843,8595 11743,8795 Z"/>
 <path fill="rgb(87,157,28)" stroke="none" d="M 11915,9306 L 12115,9306 12015,9106 11915,9306 Z"/>
 <path fill="none" stroke="rgb(87,157,28)" stroke-linejoin="round" d="M 11915,9306 L 12115,9306 12015,9106 11915,9306 Z"/>
 <path fill="rgb(87,157,28)" stroke="none" d="M 12087,10840 L 12287,10840 12187,10640 12087,10840 Z"/>
 <path fill="none" stroke="rgb(87,157,28)" stroke-linejoin="round" d="M 12087,10840 L 12287,10840 12187,10640 12087,10840 Z"/>
 <path fill="rgb(87,157,28)" stroke="none" d="M 12260,9818 L 12460,9818 12360,9618 12260,9818 Z"/>
 <path fill="none" stroke="rgb(87,157,28)" stroke-linejoin="round" d="M 12260,9818 L 12460,9818 12360,9618 12260,9818 Z"/>
 <path fill="rgb(87,157,28)" stroke="none" d="M 12432,10329 L 12632,10329 12532,10129 12432,10329 Z"/>
 <path fill="none" stroke="rgb(87,157,28)" stroke-linejoin="round" d="M 12432,10329 L 12632,10329 12532,10129 12432,10329 Z"/>
 <path fill="rgb(87,157,28)" stroke="none" d="M 12604,9818 L 12804,9818 12704,9618 12604,9818 Z"/>
 <path fill="none" stroke="rgb(87,157,28)" stroke-linejoin="round" d="M 12604,9818 L 12804,9818 12704,9618 12604,9818 Z"/>
 <path fill="rgb(87,157,28)" stroke="none" d="M 12776,11352 L 12976,11352 12876,11152 12776,11352 Z"/>
 <path fill="none" stroke="rgb(87,157,28)" stroke-linejoin="round" d="M 12776,11352 L 12976,11352 12876,11152 12776,11352 Z"/>
 <path fill="rgb(87,157,28)" stroke="none" d="M 12949,10840 L 13149,10840 13049,10640 12949,10840 Z"/>
 <path fill="none" stroke="rgb(87,157,28)" stroke-linejoin="round" d="M 12949,10840 L 13149,10840 13049,10640 12949,10840 Z"/>
 <path fill="rgb(87,157,28)" stroke="none" d="M 13121,10840 L 13321,10840 13221,10640 13121,10840 Z"/>
 <path fill="none" stroke="rgb(87,157,28)" stroke-linejoin="round" d="M 13121,10840 L 13321,10840 13221,10640 13121,10840 Z"/>
 <path fill="rgb(87,157,28)" stroke="none" d="M 13293,10329 L 13493,10329 13393,10129 13293,10329 Z"/>
 <path fill="none" stroke="rgb(87,157,28)" stroke-linejoin="round" d="M 13293,10329 L 13493,10329 13393,10129 13293,10329 Z"/>
 <path fill="rgb(87,157,28)" stroke="none" d="M 13465,10329 L 13665,10329 13565,10129 13465,10329 Z"/>
 <path fill="none" stroke="rgb(87,157,28)" stroke-linejoin="round" d="M 13465,10329 L 13665,10329 13565,10129 13465,10329 Z"/>
 <path fill="rgb(87,157,28)" stroke="none" d="M 13637,10840 L 13837,10840 13737,10640 13637,10840 Z"/>
 <path fill="none" stroke="rgb(87,157,28)" stroke-linejoin="round" d="M 13637,10840 L 13837,10840 13737,10640 13637,10840 Z"/>
 <path fill="rgb(87,157,28)" stroke="none" d="M 13810,10840 L 14010,10840 13910,10640 13810,10840 Z"/>
 <path fill="none" stroke="rgb(87,157,28)" stroke-linejoin="round" d="M 13810,10840 L 14010,10840 13910,10640 13810,10840 Z"/>
 <path fill="rgb(87,157,28)" stroke="none" d="M 13982,10840 L 14182,10840 14082,10640 13982,10840 Z"/>
 <path fill="none" stroke="rgb(87,157,28)" stroke-linejoin="round" d="M 13982,10840 L 14182,10840 14082,10640 13982,10840 Z"/>
 <path fill="rgb(87,157,28)" stroke="none" d="M 14154,10840 L 14354,10840 14254,10640 14154,10840 Z"/>
 <path fill="none" stroke="rgb(87,157,28)" stroke-linejoin="round" d="M 14154,10840 L 14354,10840 14254,10640 14154,10840 Z"/>
 <path fill="rgb(87,157,28)" stroke="none" d="M 14326,11352 L 14526,11352 14426,11152 14326,11352 Z"/>
 <path fill="none" stroke="rgb(87,157,28)" stroke-linejoin="round" d="M 14326,11352 L 14526,11352 14426,11152 14326,11352 Z"/>
 <path fill="rgb(87,157,28)" stroke="none" d="M 14498,11352 L 14698,11352 14598,11152 14498,11352 Z"/>
 <path fill="none" stroke="rgb(87,157,28)" stroke-linejoin="round" d="M 14498,11352 L 14698,11352 14598,11152 14498,11352 Z"/>
 <path fill="none" stroke="rgb(126,0,33)" stroke-width="50" stroke-linejoin="round" d="M 5989,10740 L 6161,11252 6333,10740 6506,10740 6678,10229 6850,9718 7022,7672 7194,10229 7367,9718 7538,8695 7710,6650 7882,9718 8054,8695 8227,9206 8399,8695 8571,7161 8743,6650 8915,6139 9088,7672 9260,9718 9432,10229 9604,9206 9777,9718 9949,9206 10121,8695 10293,9718 10465,10229 10638,10740 10810,9718 10982,10740 11154,10740 11326,9718 11499,9718 11671,10740 11843,10740 12015,10740 12187,10740 12360,10740 12532,10229 12704,11252 12876,11252 13049,10229 13221,11252 13393,10229 13565,11252 13737,10229 13910,11252 14082,10740 14254,11252 14426,10740 14598,10740"/>
 <path fill="rgb(126,0,33)" stroke="none" d="M 5889,10640 L 5889,10840 6089,10740 5889,10640 Z"/>
 <path fill="none" stroke="rgb(126,0,33)" stroke-linejoin="round" d="M 5889,10640 L 5889,10840 6089,10740 5889,10640 Z"/>
 <path fill="rgb(126,0,33)" stroke="none" d="M 6061,11152 L 6061,11352 6261,11252 6061,11152 Z"/>
 <path fill="none" stroke="rgb(126,0,33)" stroke-linejoin="round" d="M 6061,11152 L 6061,11352 6261,11252 6061,11152 Z"/>
 <path fill="rgb(126,0,33)" stroke="none" d="M 6233,10640 L 6233,10840 6433,10740 6233,10640 Z"/>
 <path fill="none" stroke="rgb(126,0,33)" stroke-linejoin="round" d="M 6233,10640 L 6233,10840 6433,10740 6233,10640 Z"/>
 <path fill="rgb(126,0,33)" stroke="none" d="M 6406,10640 L 6406,10840 6606,10740 6406,10640 Z"/>
 <path fill="none" stroke="rgb(126,0,33)" stroke-linejoin="round" d="M 6406,10640 L 6406,10840 6606,10740 6406,10640 Z"/>
 <path fill="rgb(126,0,33)" stroke="none" d="M 6578,10129 L 6578,10329 6778,10229 6578,10129 Z"/>
 <path fill="none" stroke="rgb(126,0,33)" stroke-linejoin="round" d="M 6578,10129 L 6578,10329 6778,10229 6578,10129 Z"/>
 <path fill="rgb(126,0,33)" stroke="none" d="M 6750,9618 L 6750,9818 6950,9718 6750,9618 Z"/>
 <path fill="none" stroke="rgb(126,0,33)" stroke-linejoin="round" d="M 6750,9618 L 6750,9818 6950,9718 6750,9618 Z"/>
 <path fill="rgb(126,0,33)" stroke="none" d="M 6922,7572 L 6922,7772 7122,7672 6922,7572 Z"/>
 <path fill="none" stroke="rgb(126,0,33)" stroke-linejoin="round" d="M 6922,7572 L 6922,7772 7122,7672 6922,7572 Z"/>
 <path fill="rgb(126,0,33)" stroke="none" d="M 7094,10129 L 7094,10329 7294,10229 7094,10129 Z"/>
 <path fill="none" stroke="rgb(126,0,33)" stroke-linejoin="round" d="M 7094,10129 L 7094,10329 7294,10229 7094,10129 Z"/>
 <path fill="rgb(126,0,33)" stroke="none" d="M 7267,9618 L 7267,9818 7467,9718 7267,9618 Z"/>
 <path fill="none" stroke="rgb(126,0,33)" stroke-linejoin="round" d="M 7267,9618 L 7267,9818 7467,9718 7267,9618 Z"/>
 <path fill="rgb(126,0,33)" stroke="none" d="M 7439,8595 L 7439,8795 7638,8695 7439,8595 Z"/>
 <path fill="none" stroke="rgb(126,0,33)" stroke-linejoin="round" d="M 7439,8595 L 7439,8795 7638,8695 7439,8595 Z"/>
 <path fill="rgb(126,0,33)" stroke="none" d="M 7610,6550 L 7610,6750 7810,6650 7610,6550 Z"/>
 <path fill="none" stroke="rgb(126,0,33)" stroke-linejoin="round" d="M 7610,6550 L 7610,6750 7810,6650 7610,6550 Z"/>
 <path fill="rgb(126,0,33)" stroke="none" d="M 7782,9618 L 7782,9818 7982,9718 7782,9618 Z"/>
 <path fill="none" stroke="rgb(126,0,33)" stroke-linejoin="round" d="M 7782,9618 L 7782,9818 7982,9718 7782,9618 Z"/>
 <path fill="rgb(126,0,33)" stroke="none" d="M 7954,8595 L 7954,8795 8154,8695 7954,8595 Z"/>
 <path fill="none" stroke="rgb(126,0,33)" stroke-linejoin="round" d="M 7954,8595 L 7954,8795 8154,8695 7954,8595 Z"/>
 <path fill="rgb(126,0,33)" stroke="none" d="M 8127,9106 L 8127,9306 8327,9206 8127,9106 Z"/>
 <path fill="none" stroke="rgb(126,0,33)" stroke-linejoin="round" d="M 8127,9106 L 8127,9306 8327,9206 8127,9106 Z"/>
 <path fill="rgb(126,0,33)" stroke="none" d="M 8299,8595 L 8299,8795 8499,8695 8299,8595 Z"/>
 <path fill="none" stroke="rgb(126,0,33)" stroke-linejoin="round" d="M 8299,8595 L 8299,8795 8499,8695 8299,8595 Z"/>
 <path fill="rgb(126,0,33)" stroke="none" d="M 8471,7061 L 8471,7261 8671,7161 8471,7061 Z"/>
 <path fill="none" stroke="rgb(126,0,33)" stroke-linejoin="round" d="M 8471,7061 L 8471,7261 8671,7161 8471,7061 Z"/>
 <path fill="rgb(126,0,33)" stroke="none" d="M 8643,6550 L 8643,6750 8843,6650 8643,6550 Z"/>
 <path fill="none" stroke="rgb(126,0,33)" stroke-linejoin="round" d="M 8643,6550 L 8643,6750 8843,6650 8643,6550 Z"/>
 <path fill="rgb(126,0,33)" stroke="none" d="M 8815,6039 L 8815,6239 9015,6139 8815,6039 Z"/>
 <path fill="none" stroke="rgb(126,0,33)" stroke-linejoin="round" d="M 8815,6039 L 8815,6239 9015,6139 8815,6039 Z"/>
 <path fill="rgb(126,0,33)" stroke="none" d="M 8988,7572 L 8988,7772 9188,7672 8988,7572 Z"/>
 <path fill="none" stroke="rgb(126,0,33)" stroke-linejoin="round" d="M 8988,7572 L 8988,7772 9188,7672 8988,7572 Z"/>
 <path fill="rgb(126,0,33)" stroke="none" d="M 9160,9618 L 9160,9818 9360,9718 9160,9618 Z"/>
 <path fill="none" stroke="rgb(126,0,33)" stroke-linejoin="round" d="M 9160,9618 L 9160,9818 9360,9718 9160,9618 Z"/>
 <path fill="rgb(126,0,33)" stroke="none" d="M 9332,10129 L 9332,10329 9532,10229 9332,10129 Z"/>
 <path fill="none" stroke="rgb(126,0,33)" stroke-linejoin="round" d="M 9332,10129 L 9332,10329 9532,10229 9332,10129 Z"/>
 <path fill="rgb(126,0,33)" stroke="none" d="M 9504,9106 L 9504,9306 9704,9206 9504,9106 Z"/>
 <path fill="none" stroke="rgb(126,0,33)" stroke-linejoin="round" d="M 9504,9106 L 9504,9306 9704,9206 9504,9106 Z"/>
 <path fill="rgb(126,0,33)" stroke="none" d="M 9677,9618 L 9677,9818 9877,9718 9677,9618 Z"/>
 <path fill="none" stroke="rgb(126,0,33)" stroke-linejoin="round" d="M 9677,9618 L 9677,9818 9877,9718 9677,9618 Z"/>
 <path fill="rgb(126,0,33)" stroke="none" d="M 9849,9106 L 9849,9306 10049,9206 9849,9106 Z"/>
 <path fill="none" stroke="rgb(126,0,33)" stroke-linejoin="round" d="M 9849,9106 L 9849,9306 10049,9206 9849,9106 Z"/>
 <path fill="rgb(126,0,33)" stroke="none" d="M 10021,8595 L 10021,8795 10221,8695 10021,8595 Z"/>
 <path fill="none" stroke="rgb(126,0,33)" stroke-linejoin="round" d="M 10021,8595 L 10021,8795 10221,8695 10021,8595 Z"/>
 <path fill="rgb(126,0,33)" stroke="none" d="M 10193,9618 L 10193,9818 10393,9718 10193,9618 Z"/>
 <path fill="none" stroke="rgb(126,0,33)" stroke-linejoin="round" d="M 10193,9618 L 10193,9818 10393,9718 10193,9618 Z"/>
 <path fill="rgb(126,0,33)" stroke="none" d="M 10365,10129 L 10365,10329 10565,10229 10365,10129 Z"/>
 <path fill="none" stroke="rgb(126,0,33)" stroke-linejoin="round" d="M 10365,10129 L 10365,10329 10565,10229 10365,10129 Z"/>
 <path fill="rgb(126,0,33)" stroke="none" d="M 10538,10640 L 10538,10840 10738,10740 10538,10640 Z"/>
 <path fill="none" stroke="rgb(126,0,33)" stroke-linejoin="round" d="M 10538,10640 L 10538,10840 10738,10740 10538,10640 Z"/>
 <path fill="rgb(126,0,33)" stroke="none" d="M 10710,9618 L 10710,9818 10910,9718 10710,9618 Z"/>
 <path fill="none" stroke="rgb(126,0,33)" stroke-linejoin="round" d="M 10710,9618 L 10710,9818 10910,9718 10710,9618 Z"/>
 <path fill="rgb(126,0,33)" stroke="none" d="M 10882,10640 L 10882,10840 11082,10740 10882,10640 Z"/>
 <path fill="none" stroke="rgb(126,0,33)" stroke-linejoin="round" d="M 10882,10640 L 10882,10840 11082,10740 10882,10640 Z"/>
 <path fill="rgb(126,0,33)" stroke="none" d="M 11054,10640 L 11054,10840 11254,10740 11054,10640 Z"/>
 <path fill="none" stroke="rgb(126,0,33)" stroke-linejoin="round" d="M 11054,10640 L 11054,10840 11254,10740 11054,10640 Z"/>
 <path fill="rgb(126,0,33)" stroke="none" d="M 11226,9618 L 11226,9818 11426,9718 11226,9618 Z"/>
 <path fill="none" stroke="rgb(126,0,33)" stroke-linejoin="round" d="M 11226,9618 L 11226,9818 11426,9718 11226,9618 Z"/>
 <path fill="rgb(126,0,33)" stroke="none" d="M 11399,9618 L 11399,9818 11599,9718 11399,9618 Z"/>
 <path fill="none" stroke="rgb(126,0,33)" stroke-linejoin="round" d="M 11399,9618 L 11399,9818 11599,9718 11399,9618 Z"/>
 <path fill="rgb(126,0,33)" stroke="none" d="M 11571,10640 L 11571,10840 11771,10740 11571,10640 Z"/>
 <path fill="none" stroke="rgb(126,0,33)" stroke-linejoin="round" d="M 11571,10640 L 11571,10840 11771,10740 11571,10640 Z"/>
 <path fill="rgb(126,0,33)" stroke="none" d="M 11743,10640 L 11743,10840 11943,10740 11743,10640 Z"/>
 <path fill="none" stroke="rgb(126,0,33)" stroke-linejoin="round" d="M 11743,10640 L 11743,10840 11943,10740 11743,10640 Z"/>
 <path fill="rgb(126,0,33)" stroke="none" d="M 11915,10640 L 11915,10840 12115,10740 11915,10640 Z"/>
 <path fill="none" stroke="rgb(126,0,33)" stroke-linejoin="round" d="M 11915,10640 L 11915,10840 12115,10740 11915,10640 Z"/>
 <path fill="rgb(126,0,33)" stroke="none" d="M 12087,10640 L 12087,10840 12287,10740 12087,10640 Z"/>
 <path fill="none" stroke="rgb(126,0,33)" stroke-linejoin="round" d="M 12087,10640 L 12087,10840 12287,10740 12087,10640 Z"/>
 <path fill="rgb(126,0,33)" stroke="none" d="M 12260,10640 L 12260,10840 12460,10740 12260,10640 Z"/>
 <path fill="none" stroke="rgb(126,0,33)" stroke-linejoin="round" d="M 12260,10640 L 12260,10840 12460,10740 12260,10640 Z"/>
 <path fill="rgb(126,0,33)" stroke="none" d="M 12432,10129 L 12432,10329 12632,10229 12432,10129 Z"/>
 <path fill="none" stroke="rgb(126,0,33)" stroke-linejoin="round" d="M 12432,10129 L 12432,10329 12632,10229 12432,10129 Z"/>
 <path fill="rgb(126,0,33)" stroke="none" d="M 12604,11152 L 12604,11352 12804,11252 12604,11152 Z"/>
 <path fill="none" stroke="rgb(126,0,33)" stroke-linejoin="round" d="M 12604,11152 L 12604,11352 12804,11252 12604,11152 Z"/>
 <path fill="rgb(126,0,33)" stroke="none" d="M 12776,11152 L 12776,11352 12976,11252 12776,11152 Z"/>
 <path fill="none" stroke="rgb(126,0,33)" stroke-linejoin="round" d="M 12776,11152 L 12776,11352 12976,11252 12776,11152 Z"/>
 <path fill="rgb(126,0,33)" stroke="none" d="M 12949,10129 L 12949,10329 13149,10229 12949,10129 Z"/>
 <path fill="none" stroke="rgb(126,0,33)" stroke-linejoin="round" d="M 12949,10129 L 12949,10329 13149,10229 12949,10129 Z"/>
 <path fill="rgb(126,0,33)" stroke="none" d="M 13121,11152 L 13121,11352 13321,11252 13121,11152 Z"/>
 <path fill="none" stroke="rgb(126,0,33)" stroke-linejoin="round" d="M 13121,11152 L 13121,11352 13321,11252 13121,11152 Z"/>
 <path fill="rgb(126,0,33)" stroke="none" d="M 13293,10129 L 13293,10329 13493,10229 13293,10129 Z"/>
 <path fill="none" stroke="rgb(126,0,33)" stroke-linejoin="round" d="M 13293,10129 L 13293,10329 13493,10229 13293,10129 Z"/>
 <path fill="rgb(126,0,33)" stroke="none" d="M 13465,11152 L 13465,11352 13665,11252 13465,11152 Z"/>
 <path fill="none" stroke="rgb(126,0,33)" stroke-linejoin="round" d="M 13465,11152 L 13465,11352 13665,11252 13465,11152 Z"/>
 <path fill="rgb(126,0,33)" stroke="none" d="M 13637,10129 L 13637,10329 13837,10229 13637,10129 Z"/>
 <path fill="none" stroke="rgb(126,0,33)" stroke-linejoin="round" d="M 13637,10129 L 13637,10329 13837,10229 13637,10129 Z"/>
 <path fill="rgb(126,0,33)" stroke="none" d="M 13810,11152 L 13810,11352 14010,11252 13810,11152 Z"/>
 <path fill="none" stroke="rgb(126,0,33)" stroke-linejoin="round" d="M 13810,11152 L 13810,11352 14010,11252 13810,11152 Z"/>
 <path fill="rgb(126,0,33)" stroke="none" d="M 13982,10640 L 13982,10840 14182,10740 13982,10640 Z"/>
 <path fill="none" stroke="rgb(126,0,33)" stroke-linejoin="round" d="M 13982,10640 L 13982,10840 14182,10740 13982,10640 Z"/>
 <path fill="rgb(126,0,33)" stroke="none" d="M 14154,11152 L 14154,11352 14354,11252 14154,11152 Z"/>
 <path fill="none" stroke="rgb(126,0,33)" stroke-linejoin="round" d="M 14154,11152 L 14154,11352 14354,11252 14154,11152 Z"/>
 <path fill="rgb(126,0,33)" stroke="none" d="M 14326,10640 L 14326,10840 14526,10740 14326,10640 Z"/>
 <path fill="none" stroke="rgb(126,0,33)" stroke-linejoin="round" d="M 14326,10640 L 14326,10840 14526,10740 14326,10640 Z"/>
 <path fill="rgb(126,0,33)" stroke="none" d="M 14498,10640 L 14498,10840 14698,10740 14498,10640 Z"/>
 <path fill="none" stroke="rgb(126,0,33)" stroke-linejoin="round" d="M 14498,10640 L 14498,10840 14698,10740 14498,10640 Z"/>
 <path fill="none" stroke="rgb(131,202,255)" stroke-width="50" stroke-linejoin="round" d="M 4095,10740 L 4267,10740 4439,11252 4611,11252 4783,10740 4956,11252 5128,10740 5300,10740 5472,11252 5644,11252 5817,10229 5989,7161 6161,9718 6333,9206 6506,7161 6678,7672 6850,8184 7022,5117 7194,6139 7367,9718 7538,9718 7710,4094 7882,8695 8054,5628 8227,7161 8399,1538 8571,8184 8743,7672 8915,1538 9088,2560 9260,8695 9432,4094 9604,5628 9777,5117 9949,9206 10121,5628 10293,5117 10465,5628 10638,8695 10810,6139 10982,8695 11154,7161 11326,6650 11499,9206 11671,8695 11843,9206 12015,9206 12187,9206 12360,8695 12532,8184 12704,9206 12876,10229 13049,10740 13221,10740 13393,10740 13565,11252 13737,10740 13910,10740 14082,10740 14254,9206 14426,10229 14598,10229"/>
 <path fill="rgb(131,202,255)" stroke="none" d="M 3995,10740 L 4195,10840 4195,10640 3995,10740 Z"/>
 <path fill="none" stroke="rgb(131,202,255)" stroke-linejoin="round" d="M 3995,10740 L 4195,10840 4195,10640 3995,10740 Z"/>
 <path fill="rgb(131,202,255)" stroke="none" d="M 4167,10740 L 4367,10840 4367,10640 4167,10740 Z"/>
 <path fill="none" stroke="rgb(131,202,255)" stroke-linejoin="round" d="M 4167,10740 L 4367,10840 4367,10640 4167,10740 Z"/>
 <path fill="rgb(131,202,255)" stroke="none" d="M 4339,11252 L 4539,11352 4539,11152 4339,11252 Z"/>
 <path fill="none" stroke="rgb(131,202,255)" stroke-linejoin="round" d="M 4339,11252 L 4539,11352 4539,11152 4339,11252 Z"/>
 <path fill="rgb(131,202,255)" stroke="none" d="M 4511,11252 L 4711,11352 4711,11152 4511,11252 Z"/>
 <path fill="none" stroke="rgb(131,202,255)" stroke-linejoin="round" d="M 4511,11252 L 4711,11352 4711,11152 4511,11252 Z"/>
 <path fill="rgb(131,202,255)" stroke="none" d="M 4683,10740 L 4883,10840 4883,10640 4683,10740 Z"/>
 <path fill="none" stroke="rgb(131,202,255)" stroke-linejoin="round" d="M 4683,10740 L 4883,10840 4883,10640 4683,10740 Z"/>
 <path fill="rgb(131,202,255)" stroke="none" d="M 4856,11252 L 5056,11352 5056,11152 4856,11252 Z"/>
 <path fill="none" stroke="rgb(131,202,255)" stroke-linejoin="round" d="M 4856,11252 L 5056,11352 5056,11152 4856,11252 Z"/>
 <path fill="rgb(131,202,255)" stroke="none" d="M 5028,10740 L 5228,10840 5228,10640 5028,10740 Z"/>
 <path fill="none" stroke="rgb(131,202,255)" stroke-linejoin="round" d="M 5028,10740 L 5228,10840 5228,10640 5028,10740 Z"/>
 <path fill="rgb(131,202,255)" stroke="none" d="M 5200,10740 L 5400,10840 5400,10640 5200,10740 Z"/>
 <path fill="none" stroke="rgb(131,202,255)" stroke-linejoin="round" d="M 5200,10740 L 5400,10840 5400,10640 5200,10740 Z"/>
 <path fill="rgb(131,202,255)" stroke="none" d="M 5372,11252 L 5572,11352 5572,11152 5372,11252 Z"/>
 <path fill="none" stroke="rgb(131,202,255)" stroke-linejoin="round" d="M 5372,11252 L 5572,11352 5572,11152 5372,11252 Z"/>
 <path fill="rgb(131,202,255)" stroke="none" d="M 5544,11252 L 5744,11352 5744,11152 5544,11252 Z"/>
 <path fill="none" stroke="rgb(131,202,255)" stroke-linejoin="round" d="M 5544,11252 L 5744,11352 5744,11152 5544,11252 Z"/>
 <path fill="rgb(131,202,255)" stroke="none" d="M 5717,10229 L 5917,10329 5917,10129 5717,10229 Z"/>
 <path fill="none" stroke="rgb(131,202,255)" stroke-linejoin="round" d="M 5717,10229 L 5917,10329 5917,10129 5717,10229 Z"/>
 <path fill="rgb(131,202,255)" stroke="none" d="M 5889,7161 L 6089,7261 6089,7061 5889,7161 Z"/>
 <path fill="none" stroke="rgb(131,202,255)" stroke-linejoin="round" d="M 5889,7161 L 6089,7261 6089,7061 5889,7161 Z"/>
 <path fill="rgb(131,202,255)" stroke="none" d="M 6061,9718 L 6261,9818 6261,9618 6061,9718 Z"/>
 <path fill="none" stroke="rgb(131,202,255)" stroke-linejoin="round" d="M 6061,9718 L 6261,9818 6261,9618 6061,9718 Z"/>
 <path fill="rgb(131,202,255)" stroke="none" d="M 6233,9206 L 6433,9306 6433,9106 6233,9206 Z"/>
 <path fill="none" stroke="rgb(131,202,255)" stroke-linejoin="round" d="M 6233,9206 L 6433,9306 6433,9106 6233,9206 Z"/>
 <path fill="rgb(131,202,255)" stroke="none" d="M 6406,7161 L 6606,7261 6606,7061 6406,7161 Z"/>
 <path fill="none" stroke="rgb(131,202,255)" stroke-linejoin="round" d="M 6406,7161 L 6606,7261 6606,7061 6406,7161 Z"/>
 <path fill="rgb(131,202,255)" stroke="none" d="M 6578,7672 L 6778,7772 6778,7572 6578,7672 Z"/>
 <path fill="none" stroke="rgb(131,202,255)" stroke-linejoin="round" d="M 6578,7672 L 6778,7772 6778,7572 6578,7672 Z"/>
 <path fill="rgb(131,202,255)" stroke="none" d="M 6750,8184 L 6950,8284 6950,8084 6750,8184 Z"/>
 <path fill="none" stroke="rgb(131,202,255)" stroke-linejoin="round" d="M 6750,8184 L 6950,8284 6950,8084 6750,8184 Z"/>
 <path fill="rgb(131,202,255)" stroke="none" d="M 6922,5117 L 7122,5217 7122,5017 6922,5117 Z"/>
 <path fill="none" stroke="rgb(131,202,255)" stroke-linejoin="round" d="M 6922,5117 L 7122,5217 7122,5017 6922,5117 Z"/>
 <path fill="rgb(131,202,255)" stroke="none" d="M 7094,6139 L 7294,6239 7294,6039 7094,6139 Z"/>
 <path fill="none" stroke="rgb(131,202,255)" stroke-linejoin="round" d="M 7094,6139 L 7294,6239 7294,6039 7094,6139 Z"/>
 <path fill="rgb(131,202,255)" stroke="none" d="M 7267,9718 L 7467,9818 7467,9618 7267,9718 Z"/>
 <path fill="none" stroke="rgb(131,202,255)" stroke-linejoin="round" d="M 7267,9718 L 7467,9818 7467,9618 7267,9718 Z"/>
 <path fill="rgb(131,202,255)" stroke="none" d="M 7439,9718 L 7638,9818 7638,9618 7439,9718 Z"/>
 <path fill="none" stroke="rgb(131,202,255)" stroke-linejoin="round" d="M 7439,9718 L 7638,9818 7638,9618 7439,9718 Z"/>
 <path fill="rgb(131,202,255)" stroke="none" d="M 7610,4094 L 7810,4194 7810,3994 7610,4094 Z"/>
 <path fill="none" stroke="rgb(131,202,255)" stroke-linejoin="round" d="M 7610,4094 L 7810,4194 7810,3994 7610,4094 Z"/>
 <path fill="rgb(131,202,255)" stroke="none" d="M 7782,8695 L 7982,8795 7982,8595 7782,8695 Z"/>
 <path fill="none" stroke="rgb(131,202,255)" stroke-linejoin="round" d="M 7782,8695 L 7982,8795 7982,8595 7782,8695 Z"/>
 <path fill="rgb(131,202,255)" stroke="none" d="M 7954,5628 L 8154,5728 8154,5528 7954,5628 Z"/>
 <path fill="none" stroke="rgb(131,202,255)" stroke-linejoin="round" d="M 7954,5628 L 8154,5728 8154,5528 7954,5628 Z"/>
 <path fill="rgb(131,202,255)" stroke="none" d="M 8127,7161 L 8327,7261 8327,7061 8127,7161 Z"/>
 <path fill="none" stroke="rgb(131,202,255)" stroke-linejoin="round" d="M 8127,7161 L 8327,7261 8327,7061 8127,7161 Z"/>
 <path fill="rgb(131,202,255)" stroke="none" d="M 8299,1538 L 8499,1638 8499,1438 8299,1538 Z"/>
 <path fill="none" stroke="rgb(131,202,255)" stroke-linejoin="round" d="M 8299,1538 L 8499,1638 8499,1438 8299,1538 Z"/>
 <path fill="rgb(131,202,255)" stroke="none" d="M 8471,8184 L 8671,8284 8671,8084 8471,8184 Z"/>
 <path fill="none" stroke="rgb(131,202,255)" stroke-linejoin="round" d="M 8471,8184 L 8671,8284 8671,8084 8471,8184 Z"/>
 <path fill="rgb(131,202,255)" stroke="none" d="M 8643,7672 L 8843,7772 8843,7572 8643,7672 Z"/>
 <path fill="none" stroke="rgb(131,202,255)" stroke-linejoin="round" d="M 8643,7672 L 8843,7772 8843,7572 8643,7672 Z"/>
 <path fill="rgb(131,202,255)" stroke="none" d="M 8815,1538 L 9015,1638 9015,1438 8815,1538 Z"/>
 <path fill="none" stroke="rgb(131,202,255)" stroke-linejoin="round" d="M 8815,1538 L 9015,1638 9015,1438 8815,1538 Z"/>
 <path fill="rgb(131,202,255)" stroke="none" d="M 8988,2560 L 9188,2660 9188,2460 8988,2560 Z"/>
 <path fill="none" stroke="rgb(131,202,255)" stroke-linejoin="round" d="M 8988,2560 L 9188,2660 9188,2460 8988,2560 Z"/>
 <path fill="rgb(131,202,255)" stroke="none" d="M 9160,8695 L 9360,8795 9360,8595 9160,8695 Z"/>
 <path fill="none" stroke="rgb(131,202,255)" stroke-linejoin="round" d="M 9160,8695 L 9360,8795 9360,8595 9160,8695 Z"/>
 <path fill="rgb(131,202,255)" stroke="none" d="M 9332,4094 L 9532,4194 9532,3994 9332,4094 Z"/>
 <path fill="none" stroke="rgb(131,202,255)" stroke-linejoin="round" d="M 9332,4094 L 9532,4194 9532,3994 9332,4094 Z"/>
 <path fill="rgb(131,202,255)" stroke="none" d="M 9504,5628 L 9704,5728 9704,5528 9504,5628 Z"/>
 <path fill="none" stroke="rgb(131,202,255)" stroke-linejoin="round" d="M 9504,5628 L 9704,5728 9704,5528 9504,5628 Z"/>
 <path fill="rgb(131,202,255)" stroke="none" d="M 9677,5117 L 9877,5217 9877,5017 9677,5117 Z"/>
 <path fill="none" stroke="rgb(131,202,255)" stroke-linejoin="round" d="M 9677,5117 L 9877,5217 9877,5017 9677,5117 Z"/>
 <path fill="rgb(131,202,255)" stroke="none" d="M 9849,9206 L 10049,9306 10049,9106 9849,9206 Z"/>
 <path fill="none" stroke="rgb(131,202,255)" stroke-linejoin="round" d="M 9849,9206 L 10049,9306 10049,9106 9849,9206 Z"/>
 <path fill="rgb(131,202,255)" stroke="none" d="M 10021,5628 L 10221,5728 10221,5528 10021,5628 Z"/>
 <path fill="none" stroke="rgb(131,202,255)" stroke-linejoin="round" d="M 10021,5628 L 10221,5728 10221,5528 10021,5628 Z"/>
 <path fill="rgb(131,202,255)" stroke="none" d="M 10193,5117 L 10393,5217 10393,5017 10193,5117 Z"/>
 <path fill="none" stroke="rgb(131,202,255)" stroke-linejoin="round" d="M 10193,5117 L 10393,5217 10393,5017 10193,5117 Z"/>
 <path fill="rgb(131,202,255)" stroke="none" d="M 10365,5628 L 10565,5728 10565,5528 10365,5628 Z"/>
 <path fill="none" stroke="rgb(131,202,255)" stroke-linejoin="round" d="M 10365,5628 L 10565,5728 10565,5528 10365,5628 Z"/>
 <path fill="rgb(131,202,255)" stroke="none" d="M 10538,8695 L 10738,8795 10738,8595 10538,8695 Z"/>
 <path fill="none" stroke="rgb(131,202,255)" stroke-linejoin="round" d="M 10538,8695 L 10738,8795 10738,8595 10538,8695 Z"/>
 <path fill="rgb(131,202,255)" stroke="none" d="M 10710,6139 L 10910,6239 10910,6039 10710,6139 Z"/>
 <path fill="none" stroke="rgb(131,202,255)" stroke-linejoin="round" d="M 10710,6139 L 10910,6239 10910,6039 10710,6139 Z"/>
 <path fill="rgb(131,202,255)" stroke="none" d="M 10882,8695 L 11082,8795 11082,8595 10882,8695 Z"/>
 <path fill="none" stroke="rgb(131,202,255)" stroke-linejoin="round" d="M 10882,8695 L 11082,8795 11082,8595 10882,8695 Z"/>
 <path fill="rgb(131,202,255)" stroke="none" d="M 11054,7161 L 11254,7261 11254,7061 11054,7161 Z"/>
 <path fill="none" stroke="rgb(131,202,255)" stroke-linejoin="round" d="M 11054,7161 L 11254,7261 11254,7061 11054,7161 Z"/>
 <path fill="rgb(131,202,255)" stroke="none" d="M 11226,6650 L 11426,6750 11426,6550 11226,6650 Z"/>
 <path fill="none" stroke="rgb(131,202,255)" stroke-linejoin="round" d="M 11226,6650 L 11426,6750 11426,6550 11226,6650 Z"/>
 <path fill="rgb(131,202,255)" stroke="none" d="M 11399,9206 L 11599,9306 11599,9106 11399,9206 Z"/>
 <path fill="none" stroke="rgb(131,202,255)" stroke-linejoin="round" d="M 11399,9206 L 11599,9306 11599,9106 11399,9206 Z"/>
 <path fill="rgb(131,202,255)" stroke="none" d="M 11571,8695 L 11771,8795 11771,8595 11571,8695 Z"/>
 <path fill="none" stroke="rgb(131,202,255)" stroke-linejoin="round" d="M 11571,8695 L 11771,8795 11771,8595 11571,8695 Z"/>
 <path fill="rgb(131,202,255)" stroke="none" d="M 11743,9206 L 11943,9306 11943,9106 11743,9206 Z"/>
 <path fill="none" stroke="rgb(131,202,255)" stroke-linejoin="round" d="M 11743,9206 L 11943,9306 11943,9106 11743,9206 Z"/>
 <path fill="rgb(131,202,255)" stroke="none" d="M 11915,9206 L 12115,9306 12115,9106 11915,9206 Z"/>
 <path fill="none" stroke="rgb(131,202,255)" stroke-linejoin="round" d="M 11915,9206 L 12115,9306 12115,9106 11915,9206 Z"/>
 <path fill="rgb(131,202,255)" stroke="none" d="M 12087,9206 L 12287,9306 12287,9106 12087,9206 Z"/>
 <path fill="none" stroke="rgb(131,202,255)" stroke-linejoin="round" d="M 12087,9206 L 12287,9306 12287,9106 12087,9206 Z"/>
 <path fill="rgb(131,202,255)" stroke="none" d="M 12260,8695 L 12460,8795 12460,8595 12260,8695 Z"/>
 <path fill="none" stroke="rgb(131,202,255)" stroke-linejoin="round" d="M 12260,8695 L 12460,8795 12460,8595 12260,8695 Z"/>
 <path fill="rgb(131,202,255)" stroke="none" d="M 12432,8184 L 12632,8284 12632,8084 12432,8184 Z"/>
 <path fill="none" stroke="rgb(131,202,255)" stroke-linejoin="round" d="M 12432,8184 L 12632,8284 12632,8084 12432,8184 Z"/>
 <path fill="rgb(131,202,255)" stroke="none" d="M 12604,9206 L 12804,9306 12804,9106 12604,9206 Z"/>
 <path fill="none" stroke="rgb(131,202,255)" stroke-linejoin="round" d="M 12604,9206 L 12804,9306 12804,9106 12604,9206 Z"/>
 <path fill="rgb(131,202,255)" stroke="none" d="M 12776,10229 L 12976,10329 12976,10129 12776,10229 Z"/>
 <path fill="none" stroke="rgb(131,202,255)" stroke-linejoin="round" d="M 12776,10229 L 12976,10329 12976,10129 12776,10229 Z"/>
 <path fill="rgb(131,202,255)" stroke="none" d="M 12949,10740 L 13149,10840 13149,10640 12949,10740 Z"/>
 <path fill="none" stroke="rgb(131,202,255)" stroke-linejoin="round" d="M 12949,10740 L 13149,10840 13149,10640 12949,10740 Z"/>
 <path fill="rgb(131,202,255)" stroke="none" d="M 13121,10740 L 13321,10840 13321,10640 13121,10740 Z"/>
 <path fill="none" stroke="rgb(131,202,255)" stroke-linejoin="round" d="M 13121,10740 L 13321,10840 13321,10640 13121,10740 Z"/>
 <path fill="rgb(131,202,255)" stroke="none" d="M 13293,10740 L 13493,10840 13493,10640 13293,10740 Z"/>
 <path fill="none" stroke="rgb(131,202,255)" stroke-linejoin="round" d="M 13293,10740 L 13493,10840 13493,10640 13293,10740 Z"/>
 <path fill="rgb(131,202,255)" stroke="none" d="M 13465,11252 L 13665,11352 13665,11152 13465,11252 Z"/>
 <path fill="none" stroke="rgb(131,202,255)" stroke-linejoin="round" d="M 13465,11252 L 13665,11352 13665,11152 13465,11252 Z"/>
 <path fill="rgb(131,202,255)" stroke="none" d="M 13637,10740 L 13837,10840 13837,10640 13637,10740 Z"/>
 <path fill="none" stroke="rgb(131,202,255)" stroke-linejoin="round" d="M 13637,10740 L 13837,10840 13837,10640 13637,10740 Z"/>
 <path fill="rgb(131,202,255)" stroke="none" d="M 13810,10740 L 14010,10840 14010,10640 13810,10740 Z"/>
 <path fill="none" stroke="rgb(131,202,255)" stroke-linejoin="round" d="M 13810,10740 L 14010,10840 14010,10640 13810,10740 Z"/>
 <path fill="rgb(131,202,255)" stroke="none" d="M 13982,10740 L 14182,10840 14182,10640 13982,10740 Z"/>
 <path fill="none" stroke="rgb(131,202,255)" stroke-linejoin="round" d="M 13982,10740 L 14182,10840 14182,10640 13982,10740 Z"/>
 <path fill="rgb(131,202,255)" stroke="none" d="M 14154,9206 L 14354,9306 14354,9106 14154,9206 Z"/>
 <path fill="none" stroke="rgb(131,202,255)" stroke-linejoin="round" d="M 14154,9206 L 14354,9306 14354,9106 14154,9206 Z"/>
 <path fill="rgb(131,202,255)" stroke="none" d="M 14326,10229 L 14526,10329 14526,10129 14326,10229 Z"/>
 <path fill="none" stroke="rgb(131,202,255)" stroke-linejoin="round" d="M 14326,10229 L 14526,10329 14526,10129 14326,10229 Z"/>
 <path fill="rgb(131,202,255)" stroke="none" d="M 14498,10229 L 14698,10329 14698,10129 14498,10229 Z"/>
 <path fill="none" stroke="rgb(131,202,255)" stroke-linejoin="round" d="M 14498,10229 L 14698,10329 14698,10129 14498,10229 Z"/>
 <text class="TextShape"><tspan class="TextParagraph" font-family="Liberation Sans, sans-serif" font-size="353px" font-weight="400"><tspan class="TextPosition" x="399" y="11820"><tspan fill="rgb(0,0,0)" stroke="none">20/02</tspan></tspan></tspan></text>
 <text class="TextShape"><tspan class="TextParagraph" font-family="Liberation Sans, sans-serif" font-size="353px" font-weight="400"><tspan class="TextPosition" x="1604" y="11820"><tspan fill="rgb(0,0,0)" stroke="none">27/02</tspan></tspan></tspan></text>
 <text class="TextShape"><tspan class="TextParagraph" font-family="Liberation Sans, sans-serif" font-size="353px" font-weight="400"><tspan class="TextPosition" x="2810" y="11820"><tspan fill="rgb(0,0,0)" stroke="none">05/03</tspan></tspan></tspan></text>
 <text class="TextShape"><tspan class="TextParagraph" font-family="Liberation Sans, sans-serif" font-size="353px" font-weight="400"><tspan class="TextPosition" x="4015" y="11820"><tspan fill="rgb(0,0,0)" stroke="none">12/03</tspan></tspan></tspan></text>
 <text class="TextShape"><tspan class="TextParagraph" font-family="Liberation Sans, sans-serif" font-size="353px" font-weight="400"><tspan class="TextPosition" x="5220" y="11820"><tspan fill="rgb(0,0,0)" stroke="none">19/03</tspan></tspan></tspan></text>
 <text class="TextShape"><tspan class="TextParagraph" font-family="Liberation Sans, sans-serif" font-size="353px" font-weight="400"><tspan class="TextPosition" x="6426" y="11820"><tspan fill="rgb(0,0,0)" stroke="none">26/03</tspan></tspan></tspan></text>
 <text class="TextShape"><tspan class="TextParagraph" font-family="Liberation Sans, sans-serif" font-size="353px" font-weight="400"><tspan class="TextPosition" x="7631" y="11820"><tspan fill="rgb(0,0,0)" stroke="none">02/04</tspan></tspan></tspan></text>
 <text class="TextShape"><tspan class="TextParagraph" font-family="Liberation Sans, sans-serif" font-size="353px" font-weight="400"><tspan class="TextPosition" x="8837" y="11820"><tspan fill="rgb(0,0,0)" stroke="none">09/04</tspan></tspan></tspan></text>
 <text class="TextShape"><tspan class="TextParagraph" font-family="Liberation Sans, sans-serif" font-size="353px" font-weight="400"><tspan class="TextPosition" x="10042" y="11820"><tspan fill="rgb(0,0,0)" stroke="none">16/04</tspan></tspan></tspan></text>
 <text class="TextShape"><tspan class="TextParagraph" font-family="Liberation Sans, sans-serif" font-size="353px" font-weight="400"><tspan class="TextPosition" x="11248" y="11820"><tspan fill="rgb(0,0,0)" stroke="none">23/04</tspan></tspan></tspan></text>
 <text class="TextShape"><tspan class="TextParagraph" font-family="Liberation Sans, sans-serif" font-size="353px" font-weight="400"><tspan class="TextPosition" x="12453" y="11820"><tspan fill="rgb(0,0,0)" stroke="none">30/04</tspan></tspan></tspan></text>
 <text class="TextShape"><tspan class="TextParagraph" font-family="Liberation Sans, sans-serif" font-size="353px" font-weight="400"><tspan class="TextPosition" x="13659" y="11820"><tspan fill="rgb(0,0,0)" stroke="none">07/05</tspan></tspan></tspan></text>
 <text class="TextShape"><tspan class="TextParagraph" font-family="Liberation Sans, sans-serif" font-size="353px" font-weight="400"><tspan class="TextPosition" x="302" y="11373"><tspan fill="rgb(0,0,0)" stroke="none">0</tspan></tspan></tspan></text>
 <text class="TextShape"><tspan class="TextParagraph" font-family="Liberation Sans, sans-serif" font-size="353px" font-weight="400"><tspan class="TextPosition" x="302" y="9327"><tspan fill="rgb(0,0,0)" stroke="none">4</tspan></tspan></tspan></text>
 <text class="TextShape"><tspan class="TextParagraph" font-family="Liberation Sans, sans-serif" font-size="353px" font-weight="400"><tspan class="TextPosition" x="302" y="7282"><tspan fill="rgb(0,0,0)" stroke="none">8</tspan></tspan></tspan></text>
 <text class="TextShape"><tspan class="TextParagraph" font-family="Liberation Sans, sans-serif" font-size="353px" font-weight="400"><tspan class="TextPosition" x="117" y="5237"><tspan fill="rgb(0,0,0)" stroke="none">12</tspan></tspan></tspan></text>
 <text class="TextShape"><tspan class="TextParagraph" font-family="Liberation Sans, sans-serif" font-size="353px" font-weight="400"><tspan class="TextPosition" x="117" y="3192"><tspan fill="rgb(0,0,0)" stroke="none">16</tspan></tspan></tspan></text>
 <text class="TextShape"><tspan class="TextParagraph" font-family="Liberation Sans, sans-serif" font-size="353px" font-weight="400"><tspan class="TextPosition" x="117" y="1147"><tspan fill="rgb(0,0,0)" stroke="none">20</tspan></tspan></tspan></text>
 <text class="TextShape"><tspan class="TextParagraph" font-family="Liberation Sans, sans-serif" font-size="459px" font-weight="400"><tspan class="TextPosition" x="4478" y="724"><tspan fill="rgb(0,0,0)" stroke="none">Covid-19. Muertes diarias CCAA (3)</tspan></tspan></tspan></text>
 <path fill="none" stroke="rgb(0,0,0)" stroke-width="50" stroke-linejoin="round" d="M 3868,1898 L 4668,1898"/>
 <path fill="rgb(0,0,0)" stroke="none" d="M 4162,1898 L 4268,2004 4373,1898 4268,1793 4162,1898 Z"/>
 <path fill="none" stroke="rgb(0,0,0)" stroke-linejoin="round" d="M 4162,1898 L 4268,2004 4373,1898 4268,1793 4162,1898 Z"/>
 <path fill="none" stroke="rgb(255,66,14)" stroke-width="50" stroke-linejoin="round" d="M 3868,2638 L 4668,2638"/>
 <path fill="rgb(255,66,14)" stroke="none" d="M 4162,2638 L 4268,2744 4373,2638 4268,2533 4162,2638 Z"/>
 <path fill="none" stroke="rgb(255,66,14)" stroke-linejoin="round" d="M 4162,2638 L 4268,2744 4373,2638 4268,2533 4162,2638 Z"/>
 <path fill="none" stroke="rgb(255,211,32)" stroke-width="50" stroke-linejoin="round" d="M 3868,3378 L 4668,3378"/>
 <path fill="rgb(255,211,32)" stroke="none" d="M 4162,3273 L 4268,3484 4373,3273 4162,3273 Z"/>
 <path fill="none" stroke="rgb(255,211,32)" stroke-linejoin="round" d="M 4162,3273 L 4268,3484 4373,3273 4162,3273 Z"/>
 <path fill="none" stroke="rgb(87,157,28)" stroke-width="50" stroke-linejoin="round" d="M 3868,4118 L 4668,4118"/>
 <path fill="rgb(87,157,28)" stroke="none" d="M 4162,4224 L 4373,4224 4268,4013 4162,4224 Z"/>
 <path fill="none" stroke="rgb(87,157,28)" stroke-linejoin="round" d="M 4162,4224 L 4373,4224 4268,4013 4162,4224 Z"/>
 <path fill="none" stroke="rgb(126,0,33)" stroke-width="50" stroke-linejoin="round" d="M 3868,4858 L 4668,4858"/>
 <path fill="rgb(126,0,33)" stroke="none" d="M 4162,4753 L 4162,4964 4373,4858 4162,4753 Z"/>
 <path fill="none" stroke="rgb(126,0,33)" stroke-linejoin="round" d="M 4162,4753 L 4162,4964 4373,4858 4162,4753 Z"/>
 <path fill="none" stroke="rgb(131,202,255)" stroke-width="50" stroke-linejoin="round" d="M 3868,5598 L 4668,5598"/>
 <path fill="rgb(131,202,255)" stroke="none" d="M 4162,5598 L 4373,5704 4373,5493 4162,5598 Z"/>
 <path fill="none" stroke="rgb(131,202,255)" stroke-linejoin="round" d="M 4162,5598 L 4373,5704 4373,5493 4162,5598 Z"/>
 <text class="TextShape"><tspan class="TextParagraph" font-family="Liberation Sans, sans-serif" font-size="353px" font-weight="400"><tspan class="TextPosition" x="4768" y="2018"><tspan fill="rgb(0,0,0)" stroke="none"> </tspan><tspan fill="rgb(0,0,0)" stroke="none">Asturias </tspan></tspan></tspan></text>
 <text class="TextShape"><tspan class="TextParagraph" font-family="Liberation Sans, sans-serif" font-size="353px" font-weight="400"><tspan class="TextPosition" x="4768" y="2758"><tspan fill="rgb(0,0,0)" stroke="none"> </tspan><tspan fill="rgb(0,0,0)" stroke="none">Baleares</tspan></tspan></tspan></text>
 <text class="TextShape"><tspan class="TextParagraph" font-family="Liberation Sans, sans-serif" font-size="353px" font-weight="400"><tspan class="TextPosition" x="4768" y="3498"><tspan fill="rgb(0,0,0)" stroke="none"> </tspan><tspan fill="rgb(0,0,0)" stroke="none">Canarias</tspan></tspan></tspan></text>
 <text class="TextShape"><tspan class="TextParagraph" font-family="Liberation Sans, sans-serif" font-size="353px" font-weight="400"><tspan class="TextPosition" x="4768" y="4238"><tspan fill="rgb(0,0,0)" stroke="none"> </tspan><tspan fill="rgb(0,0,0)" stroke="none">Cantabria</tspan></tspan></tspan></text>
 <text class="TextShape"><tspan class="TextParagraph" font-family="Liberation Sans, sans-serif" font-size="353px" font-weight="400"><tspan class="TextPosition" x="4768" y="4978"><tspan fill="rgb(0,0,0)" stroke="none"> </tspan><tspan fill="rgb(0,0,0)" stroke="none">Murcia</tspan></tspan></tspan></text>
 <text class="TextShape"><tspan class="TextParagraph" font-family="Liberation Sans, sans-serif" font-size="353px" font-weight="400"><tspan class="TextPosition" x="4768" y="5718"><tspan fill="rgb(0,0,0)" stroke="none"> </tspan><tspan fill="rgb(0,0,0)" stroke="none">La Rioja</tspan></tspan></tspan></text>
</svg>