<?xml version="1.0" encoding="UTF-8"?>
<!DOCTYPE svg PUBLIC "-//W3C//DTD SVG 1.1//EN" "http://www.w3.org/Graphics/SVG/1.1/DTD/svg11.dtd">
<svg width="180mm" height="120mm" viewBox="0 0 18000 12000" version="1.1" xmlns="http://www.w3.org/2000/svg" xmlns:xlink="http://www.w3.org/1999/xlink" stroke-width="28.222" stroke-linejoin="round" xml:space="preserve">
 <path fill="rgb(255,255,255)" stroke="none" d="M 9000,12000 L 0,12000 0,0 18000,0 18000,12000 9000,12000 Z"/>
 <path fill="none" stroke="rgb(178,178,178)" stroke-width="50" stroke-linejoin="round" d="M 8236,11319 L 1278,11319 1278,929 15193,929 15193,11319 8236,11319 Z"/>
 <path fill="none" stroke="rgb(0,0,0)" stroke-linejoin="round" d="M 15192,11318 L 1277,11318"/>
 <path fill="none" stroke="rgb(0,0,0)" stroke-linejoin="round" d="M 15192,10278 L 1277,10278"/>
 <path fill="none" stroke="rgb(0,0,0)" stroke-linejoin="round" d="M 15192,9239 L 1277,9239"/>
 <path fill="none" stroke="rgb(0,0,0)" stroke-linejoin="round" d="M 15192,8200 L 1277,8200"/>
 <path fill="none" stroke="rgb(0,0,0)" stroke-linejoin="round" d="M 15192,7161 L 1277,7161"/>
 <path fill="none" stroke="rgb(0,0,0)" stroke-linejoin="round" d="M 15192,6122 L 1277,6122"/>
 <path fill="none" stroke="rgb(0,0,0)" stroke-linejoin="round" d="M 15192,5084 L 1277,5084"/>
 <path fill="none" stroke="rgb(0,0,0)" stroke-linejoin="round" d="M 15192,4045 L 1277,4045"/>
 <path fill="none" stroke="rgb(0,0,0)" stroke-linejoin="round" d="M 15192,3006 L 1277,3006"/>
 <path fill="none" stroke="rgb(0,0,0)" stroke-linejoin="round" d="M 15192,1967 L 1277,1967"/>
 <path fill="none" stroke="rgb(0,0,0)" stroke-linejoin="round" d="M 15192,928 L 1277,928"/>
 <path fill="none" stroke="rgb(179,179,179)" stroke-linejoin="round" d="M 1277,11468 L 1277,11318"/>
 <path fill="none" stroke="rgb(179,179,179)" stroke-linejoin="round" d="M 1277,11468 L 1277,11318"/>
 <path fill="none" stroke="rgb(179,179,179)" stroke-linejoin="round" d="M 3701,11468 L 3701,11318"/>
 <path fill="none" stroke="rgb(179,179,179)" stroke-linejoin="round" d="M 3701,11468 L 3701,11318"/>
 <path fill="none" stroke="rgb(179,179,179)" stroke-linejoin="round" d="M 6125,11468 L 6125,11318"/>
 <path fill="none" stroke="rgb(179,179,179)" stroke-linejoin="round" d="M 6125,11468 L 6125,11318"/>
 <path fill="none" stroke="rgb(179,179,179)" stroke-linejoin="round" d="M 8470,11468 L 8470,11318"/>
 <path fill="none" stroke="rgb(179,179,179)" stroke-linejoin="round" d="M 8470,11468 L 8470,11318"/>
 <path fill="none" stroke="rgb(179,179,179)" stroke-linejoin="round" d="M 10893,11468 L 10893,11318"/>
 <path fill="none" stroke="rgb(179,179,179)" stroke-linejoin="round" d="M 10893,11468 L 10893,11318"/>
 <path fill="none" stroke="rgb(179,179,179)" stroke-linejoin="round" d="M 13238,11468 L 13238,11318"/>
 <path fill="none" stroke="rgb(179,179,179)" stroke-linejoin="round" d="M 13238,11468 L 13238,11318"/>
 <path fill="none" stroke="rgb(179,179,179)" stroke-linejoin="round" d="M 1277,11318 L 15192,11318"/>
 <path fill="none" stroke="rgb(0,0,0)" stroke-linejoin="round" d="M 1127,11318 L 1277,11318"/>
 <path fill="none" stroke="rgb(0,0,0)" stroke-linejoin="round" d="M 1127,11318 L 1277,11318"/>
 <path fill="none" stroke="rgb(0,0,0)" stroke-linejoin="round" d="M 1127,10278 L 1277,10278"/>
 <path fill="none" stroke="rgb(0,0,0)" stroke-linejoin="round" d="M 1127,10278 L 1277,10278"/>
 <path fill="none" stroke="rgb(0,0,0)" stroke-linejoin="round" d="M 1127,9239 L 1277,9239"/>
 <path fill="none" stroke="rgb(0,0,0)" stroke-linejoin="round" d="M 1127,9239 L 1277,9239"/>
 <path fill="none" stroke="rgb(0,0,0)" stroke-linejoin="round" d="M 1127,8200 L 1277,8200"/>
 <path fill="none" stroke="rgb(0,0,0)" stroke-linejoin="round" d="M 1127,8200 L 1277,8200"/>
 <path fill="none" stroke="rgb(0,0,0)" stroke-linejoin="round" d="M 1127,7161 L 1277,7161"/>
 <path fill="none" stroke="rgb(0,0,0)" stroke-linejoin="round" d="M 1127,7161 L 1277,7161"/>
 <path fill="none" stroke="rgb(0,0,0)" stroke-linejoin="round" d="M 1127,6122 L 1277,6122"/>
 <path fill="none" stroke="rgb(0,0,0)" stroke-linejoin="round" d="M 1127,6122 L 1277,6122"/>
 <path fill="none" stroke="rgb(0,0,0)" stroke-linejoin="round" d="M 1127,5084 L 1277,5084"/>
 <path fill="none" stroke="rgb(0,0,0)" stroke-linejoin="round" d="M 1127,5084 L 1277,5084"/>
 <path fill="none" stroke="rgb(0,0,0)" stroke-linejoin="round" d="M 1127,4045 L 1277,4045"/>
 <path fill="none" stroke="rgb(0,0,0)" stroke-linejoin="round" d="M 1127,4045 L 1277,4045"/>
 <path fill="none" stroke="rgb(0,0,0)" stroke-linejoin="round" d="M 1127,3006 L 1277,3006"/>
 <path fill="none" stroke="rgb(0,0,0)" stroke-linejoin="round" d="M 1127,3006 L 1277,3006"/>
 <path fill="none" stroke="rgb(0,0,0)" stroke-linejoin="round" d="M 1127,1967 L 1277,1967"/>
 <path fill="none" stroke="rgb(0,0,0)" stroke-linejoin="round" d="M 1127,1967 L 1277,1967"/>
 <path fill="none" stroke="rgb(0,0,0)" stroke-linejoin="round" d="M 1127,928 L 1277,928"/>
 <path fill="none" stroke="rgb(0,0,0)" stroke-linejoin="round" d="M 1127,928 L 1277,928"/>
 <path fill="none" stroke="rgb(0,0,0)" stroke-linejoin="round" d="M 1277,11318 L 1277,928"/>
 <path fill="rgb(255,166,166)" stroke="none" d="M 1277,11318 L 1356,11318 1434,11318 1512,11318 1590,11318 1668,11318 1747,11318 1825,11318 1903,11318 1981,11318 2059,11318 2137,11318 2216,11318 2294,11318 2372,11318 2450,11318 2528,11318 2607,11318 2685,10998 2763,11013 2841,10973 2919,10967 2997,10896 3076,10839 3154,10818 3232,10832 3310,10736 3388,10708 3467,10709 3545,10666 3623,10565 3701,10534 3779,10515 3857,10464 3936,10469 4014,10510 4092,10542 4170,10532 4248,10508 4327,10527 4405,10496 4483,10496 4561,10528 4639,10474 4717,10472 4796,10462 4874,10482 4952,10468 5030,10462 5108,10476 5186,10464 5265,10486 5343,10486 5421,10481 5499,10441 5577,10417 5656,10440 5734,10438 5812,10416 5890,10384 5968,10380 6046,10344 6125,10330 6203,10353 6281,10322 6359,10278 6437,10251 6516,10218 6594,10184 6672,10161 6750,10176 6828,10162 6906,10127 6985,10092 7063,10069 7141,10020 7219,9984 7297,9988 7376,9932 7454,9886 7532,9839 7610,9815 7688,9749 7766,9734 7845,9741 7923,9698 8001,9657 8079,9621 8157,9589 8235,9553 8314,9525 8392,9556 8470,9537 8548,9512 8626,9487 8705,9489 8783,9446 8861,9446 8939,9480 9016,9505 9094,9537 9173,9529 9251,9551 9329,9517 9407,9526 9485,9598 9564,9591 9642,9565 9720,9543 9798,9560 9876,9538 9954,9553 10033,9581 10111,9599 10189,9592 10267,9581 10345,9590 10424,9587 10502,9572 10580,9598 10658,9609 10736,9588 10814,9586 10893,9594 10971,9581 11049,9584 11127,9603 11205,9607 11284,9591 11362,9598 11440,9599 11518,9594 11596,9598 11674,9611 11753,9605 11831,9598 11909,9596 11987,9604 12065,9593 12143,9600 12222,9610 12300,9620 12378,9614 12456,9612 12534,9615 12613,9605 12691,9601 12769,9609 12847,9607 12925,9593 13003,9588 13082,9573 13160,9572 13238,9567 13316,9569 13394,9583 13473,9565 13551,9543 13629,9528 13707,9519 13785,9509 13863,9507 13942,9505 14020,9481 14098,9455 14176,9427 14254,9405 14333,9395 14411,9391 14489,9377 14567,9341 14645,9318 14723,9297 14802,9269 14880,9257 14958,9252 15036,9230 15114,9195 15192,9176 15192,11318 1277,11318 Z"/>
 <path fill="none" stroke="rgb(0,0,0)" stroke-width="50" stroke-linejoin="round" d="M 1277,11318 L 1356,11318 1434,11318 1512,11318 1590,11318 1668,11318 1747,11318 1825,11318 1903,11318 1981,11318 2059,11318 2137,11318 2216,11318 2294,11318 2372,11318 2450,11318 2528,11318 2607,11318 2685,10998 2763,11013 2841,10973 2919,10967 2997,10896 3076,10839 3154,10818 3232,10832 3310,10736 3388,10708 3467,10709 3545,10666 3623,10565 3701,10534 3779,10515 3857,10464 3936,10469 4014,10510 4092,10542 4170,10532 4248,10508 4327,10527 4405,10496 4483,10496 4561,10528 4639,10474 4717,10472 4796,10462 4874,10482 4952,10468 5030,10462 5108,10476 5186,10464 5265,10486 5343,10486 5421,10481 5499,10441 5577,10417 5656,10440 5734,10438 5812,10416 5890,10384 5968,10380 6046,10344 6125,10330 6203,10353 6281,10322 6359,10278 6437,10251 6516,10218 6594,10184 6672,10161 6750,10176 6828,10162 6906,10127 6985,10092 7063,10069 7141,10020 7219,9984 7297,9988 7376,9932 7454,9886 7532,9839 7610,9815 7688,9749 7766,9734 7845,9741 7923,9698 8001,9657 8079,9621 8157,9589 8235,9553 8314,9525 8392,9556 8470,9537 8548,9512 8626,9487 8705,9489 8783,9446 8861,9446 8939,9480 9016,9505 9094,9537 9173,9529 9251,9551 9329,9517 9407,9526 9485,9598 9564,9591 9642,9565 9720,9543 9798,9560 9876,9538 9954,9553 10033,9581 10111,9599 10189,9592 10267,9581 10345,9590 10424,9587 10502,9572 10580,9598 10658,9609 10736,9588 10814,9586 10893,9594 10971,9581 11049,9584 11127,9603 11205,9607 11284,9591 11362,9598 11440,9599 11518,9594 11596,9598 11674,9611 11753,9605 11831,9598 11909,9596 11987,9604 12065,9593 12143,9600 12222,9610 12300,9620 12378,9614 12456,9612 12534,9615 12613,9605 12691,9601 12769,9609 12847,9607 12925,9593 13003,9588 13082,9573 13160,9572 13238,9567 13316,9569 13394,9583 13473,9565 13551,9543 13629,9528 13707,9519 13785,9509 13863,9507 13942,9505 14020,9481 14098,9455 14176,9427 14254,9405 14333,9395 14411,9391 14489,9377 14567,9341 14645,9318 14723,9297 14802,9269 14880,9257 14958,9252 15036,9230 15114,9195 15192,9176 15192,11318 1277,11318 Z"/>
 <path fill="rgb(255,255,215)" stroke="none" d="M 1277,11318 L 1356,9076 1434,9569 1512,9812 1590,9662 1668,9577 1747,9269 1825,9409 1903,9561 1981,9455 2059,9505 2137,9600 2216,9460 2294,9484 2372,9728 2450,9760 2528,9716 2607,9798 2685,9605 2763,8349 2841,8329 2919,8441 2997,8523 3076,8730 3154,8767 3232,8819 3310,8768 3388,8726 3467,8786 3545,8857 3623,8651 3701,8676 3779,8674 3857,8641 3936,8647 4014,8768 4092,8862 4170,8896 4248,8894 4327,8985 4405,8921 4483,8908 4561,8981 4639,8983 4717,8987 4796,9006 4874,9060 4952,9049 5030,9038 5108,9077 5186,9137 5265,9236 5343,9280 5421,9326 5499,9258 5577,9221 5656,9270 5734,9329 5812,9323 5890,9294 5968,9317 6046,9273 6125,9246 6203,9292 6281,9301 6359,9279 6437,9266 6516,9247 6594,9202 6672,9171 6750,9198 6828,9212 6906,9174 6985,9149 7063,9145 7141,9088 7219,9044 7297,9048 7376,9001 7454,8964 7532,8890 7610,8874 7688,8800 7766,8756 7845,8753 7923,8720 8001,8647 8079,8577 8157,8551 8235,8470 8314,8406 8392,8420 8470,8396 8548,8352 8626,8295 8705,8291 8783,8191 8861,8156 8939,8167 9016,8189 9094,8245 9173,8191 9251,8185 9329,8100 9407,8067 9485,8121 9564,8114 9642,8044 9720,7976 9798,7970 9876,7905 9954,7871 10033,7877 10111,7890 10189,7844 10267,7802 10345,7796 10424,7746 10502,7697 10580,7700 10658,7702 10736,7664 10814,7629 10893,7621 10971,7580 11049,7556 11127,7553 11205,7556 11284,7530 11362,7499 11440,7483 11518,7457 11596,7441 11674,7446 11753,7444 11831,7442 11909,7419 11987,7420 12065,7396 12143,7390 12222,7397 12300,7407 12378,7402 12456,7396 12534,7401 12613,7387 12691,7383 12769,7393 12847,7404 12925,7398 13003,7401 13082,7383 13160,7381 13238,7376 13316,7382 13394,7408 13473,7403 13551,7389 13629,7373 13707,7361 13785,7350 13863,7353 13942,7369 14020,7352 14098,7341 14176,7326 14254,7312 14333,7302 14411,7300 14489,7306 14567,7283 14645,7272 14723,7266 14802,7246 14880,7233 14958,7233 15036,7230 15114,7211 15192,7201 15192,9176 15114,9195 15036,9230 14958,9252 14880,9257 14802,9269 14723,9297 14645,9318 14567,9341 14489,9377 14411,9391 14333,9395 14254,9405 14176,9427 14098,9455 14020,9481 13942,9505 13863,9507 13785,9509 13707,9519 13629,9528 13551,9543 13473,9565 13394,9583 13316,9569 13238,9567 13160,9572 13082,9573 13003,9588 12925,9593 12847,9607 12769,9609 12691,9601 12613,9605 12534,9615 12456,9612 12378,9614 12300,9620 12222,9610 12143,9600 12065,9593 11987,9604 11909,9596 11831,9598 11753,9605 11674,9611 11596,9598 11518,9594 11440,9599 11362,9598 11284,9591 11205,9607 11127,9603 11049,9584 10971,9581 10893,9594 10814,9586 10736,9588 10658,9609 10580,9598 10502,9572 10424,9587 10345,9590 10267,9581 10189,9592 10111,9599 10033,9581 9954,9553 9876,9538 9798,9560 9720,9543 9642,9565 9564,9591 9485,9598 9407,9526 9329,9517 9251,9551 9173,9529 9094,9537 9016,9505 8939,9480 8861,9446 8783,9446 8705,9489 8626,9487 8548,9512 8470,9537 8392,9556 8314,9525 8235,9553 8157,9589 8079,9621 8001,9657 7923,9698 7845,9741 7766,9734 7688,9749 7610,9815 7532,9839 7454,9886 7376,9932 7297,9988 7219,9984 7141,10020 7063,10069 6985,10092 6906,10127 6828,10162 6750,10176 6672,10161 6594,10184 6516,10218 6437,10251 6359,10278 6281,10322 6203,10353 6125,10330 6046,10344 5968,10380 5890,10384 5812,10416 5734,10438 5656,10440 5577,10417 5499,10441 5421,10481 5343,10486 5265,10486 5186,10464 5108,10476 5030,10462 4952,10468 4874,10482 4796,10462 4717,10472 4639,10474 4561,10528 4483,10496 4405,10496 4327,10527 4248,10508 4170,10532 4092,10542 4014,10510 3936,10469 3857,10464 3779,10515 3701,10534 3623,10565 3545,10666 3467,10709 3388,10708 3310,10736 3232,10832 3154,10818 3076,10839 2997,10896 2919,10967 2841,10973 2763,11013 2685,10998 2607,11318 2528,11318 2450,11318 2372,11318 2294,11318 2216,11318 2137,11318 2059,11318 1981,11318 1903,11318 1825,11318 1747,11318 1668,11318 1590,11318 1512,11318 1434,11318 1356,11318 1277,11318 Z"/>
 <path fill="none" stroke="rgb(0,0,0)" stroke-width="50" stroke-linejoin="round" d="M 1277,11318 L 1356,9076 1434,9569 1512,9812 1590,9662 1668,9577 1747,9269 1825,9409 1903,9561 1981,9455 2059,9505 2137,9600 2216,9460 2294,9484 2372,9728 2450,9760 2528,9716 2607,9798 2685,9605 2763,8349 2841,8329 2919,8441 2997,8523 3076,8730 3154,8767 3232,8819 3310,8768 3388,8726 3467,8786 3545,8857 3623,8651 3701,8676 3779,8674 3857,8641 3936,8647 4014,8768 4092,8862 4170,8896 4248,8894 4327,8985 4405,8921 4483,8908 4561,8981 4639,8983 4717,8987 4796,9006 4874,9060 4952,9049 5030,9038 5108,9077 5186,9137 5265,9236 5343,9280 5421,9326 5499,9258 5577,9221 5656,9270 5734,9329 5812,9323 5890,9294 5968,9317 6046,9273 6125,9246 6203,9292 6281,9301 6359,9279 6437,9266 6516,9247 6594,9202 6672,9171 6750,9198 6828,9212 6906,9174 6985,9149 7063,9145 7141,9088 7219,9044 7297,9048 7376,9001 7454,8964 7532,8890 7610,8874 7688,8800 7766,8756 7845,8753 7923,8720 8001,8647 8079,8577 8157,8551 8235,8470 8314,8406 8392,8420 8470,8396 8548,8352 8626,8295 8705,8291 8783,8191 8861,8156 8939,8167 9016,8189 9094,8245 9173,8191 9251,8185 9329,8100 9407,8067 9485,8121 9564,8114 9642,8044 9720,7976 9798,7970 9876,7905 9954,7871 10033,7877 10111,7890 10189,7844 10267,7802 10345,7796 10424,7746 10502,7697 10580,7700 10658,7702 10736,7664 10814,7629 10893,7621 10971,7580 11049,7556 11127,7553 11205,7556 11284,7530 11362,7499 11440,7483 11518,7457 11596,7441 11674,7446 11753,7444 11831,7442 11909,7419 11987,7420 12065,7396 12143,7390 12222,7397 12300,7407 12378,7402 12456,7396 12534,7401 12613,7387 12691,7383 12769,7393 12847,7404 12925,7398 13003,7401 13082,7383 13160,7381 13238,7376 13316,7382 13394,7408 13473,7403 13551,7389 13629,7373 13707,7361 13785,7350 13863,7353 13942,7369 14020,7352 14098,7341 14176,7326 14254,7312 14333,7302 14411,7300 14489,7306 14567,7283 14645,7272 14723,7266 14802,7246 14880,7233 14958,7233 15036,7230 15114,7211 15192,7201 15192,9176 15114,9195 15036,9230 14958,9252 14880,9257 14802,9269 14723,9297 14645,9318 14567,9341 14489,9377 14411,9391 14333,9395 14254,9405 14176,9427 14098,9455 14020,9481 13942,9505 13863,9507 13785,9509 13707,9519 13629,9528 13551,9543 13473,9565 13394,9583 13316,9569 13238,9567 13160,9572 13082,9573 13003,9588 12925,9593 12847,9607 12769,9609 12691,9601 12613,9605 12534,9615 12456,9612 12378,9614 12300,9620 12222,9610 12143,9600 12065,9593 11987,9604 11909,9596 11831,9598 11753,9605 11674,9611 11596,9598 11518,9594 11440,9599 11362,9598 11284,9591 11205,9607 11127,9603 11049,9584 10971,9581 10893,9594 10814,9586 10736,9588 10658,9609 10580,9598 10502,9572 10424,9587 10345,9590 10267,9581 10189,9592 10111,9599 10033,9581 9954,9553 9876,9538 9798,9560 9720,9543 9642,9565 9564,9591 9485,9598 9407,9526 9329,9517 9251,9551 9173,9529 9094,9537 9016,9505 8939,9480 8861,9446 8783,9446 8705,9489 8626,9487 8548,9512 8470,9537 8392,9556 8314,9525 8235,9553 8157,9589 8079,9621 8001,9657 7923,9698 7845,9741 7766,9734 7688,9749 7610,9815 7532,9839 7454,9886 7376,9932 7297,9988 7219,9984 7141,10020 7063,10069 6985,10092 6906,10127 6828,10162 6750,10176 6672,10161 6594,10184 6516,10218 6437,10251 6359,10278 6281,10322 6203,10353 6125,10330 6046,10344 5968,10380 5890,10384 5812,10416 5734,10438 5656,10440 5577,10417 5499,10441 5421,10481 5343,10486 5265,10486 5186,10464 5108,10476 5030,10462 4952,10468 4874,10482 4796,10462 4717,10472 4639,10474 4561,10528 4483,10496 4405,10496 4327,10527 4248,10508 4170,10532 4092,10542 4014,10510 3936,10469 3857,10464 3779,10515 3701,10534 3623,10565 3545,10666 3467,10709 3388,10708 3310,10736 3232,10832 3154,10818 3076,10839 2997,10896 2919,10967 2841,10973 2763,11013 2685,10998 2607,11318 2528,11318 2450,11318 2372,11318 2294,11318 2216,11318 2137,11318 2059,11318 1981,11318 1903,11318 1825,11318 1747,11318 1668,11318 1590,11318 1512,11318 1434,11318 1356,11318 1277,11318 Z"/>
 <path fill="rgb(222,230,239)" stroke="none" d="M 1277,11318 L 1356,6224 1434,6585 1512,6423 1590,6465 1668,6711 1747,6537 1825,6405 1903,6971 1981,6864 2059,7016 2137,7069 2216,7112 2294,7216 2372,7581 2450,7566 2528,7419 2607,7513 2685,7355 2763,6474 2841,6494 2919,6512 2997,6563 3076,6909 3154,6938 3232,6940 3310,6893 3388,6872 3467,6920 3545,7037 3623,6797 3701,6733 3779,6695 3857,6657 3936,6666 4014,6768 4092,6858 4170,6870 4248,6864 4327,7172 4405,7096 4483,7088 4561,7167 4639,7149 4717,7139 4796,7155 4874,7054 4952,7024 5030,7016 5108,7052 5186,7125 5265,7277 5343,7321 5421,7167 5499,7086 5577,7059 5656,7112 5734,7189 5812,7207 5890,7173 5968,7075 6046,7012 6125,6972 6203,6997 6281,7045 6359,7048 6437,7055 6516,6969 6594,6921 6672,6882 6750,6904 6828,6980 6906,6929 6985,6905 7063,6905 7141,6845 7219,6797 7297,6798 7376,6766 7454,6748 7532,6694 7610,6660 7688,6581 7766,6522 7845,6508 7923,6464 8001,6393 8079,6327 8157,6260 8235,6179 8314,6118 8392,6111 8470,6043 8548,6036 8626,5996 8705,5920 8783,5836 8861,5791 8939,5765 9016,5717 9094,5896 9173,5866 9251,5799 9329,5729 9407,5692 9485,5726 9564,5661 9642,5654 9720,5620 9798,5561 9876,5512 9954,5486 10033,5496 10111,5472 10189,5464 10267,5443 10345,5389 10424,5364 10502,5338 10580,5348 10658,5344 10736,5343 10814,5342 10893,5315 10971,5302 11049,5290 11127,5297 11205,5308 11284,5313 11362,5310 11440,5296 11518,5294 11596,5288 11674,5298 11753,5283 11831,5303 11909,5304 11987,5308 12065,5303 12143,5308 12222,5320 12300,5330 12378,5350 12456,5368 12534,5375 12613,5379 12691,5387 12769,5400 12847,5408 12925,5422 13003,5443 13082,5437 13160,5440 13238,5441 13316,5451 13394,5467 13473,5485 13551,5492 13629,5489 13707,5484 13785,5481 13863,5485 13942,5500 14020,5500 14098,5507 14176,5500 14254,5505 14333,5503 14411,5507 14489,5519 14567,5517 14645,5523 14723,5520 14802,5516 14880,5511 14958,5512 15036,5518 15114,5519 15192,5522 15192,7201 15114,7211 15036,7230 14958,7233 14880,7233 14802,7246 14723,7266 14645,7272 14567,7283 14489,7306 14411,7300 14333,7302 14254,7312 14176,7326 14098,7341 14020,7352 13942,7369 13863,7353 13785,7350 13707,7361 13629,7373 13551,7389 13473,7403 13394,7408 13316,7382 13238,7376 13160,7381 13082,7383 13003,7401 12925,7398 12847,7404 12769,7393 12691,7383 12613,7387 12534,7401 12456,7396 12378,7402 12300,7407 12222,7397 12143,7390 12065,7396 11987,7420 11909,7419 11831,7442 11753,7444 11674,7446 11596,7441 11518,7457 11440,7483 11362,7499 11284,7530 11205,7556 11127,7553 11049,7556 10971,7580 10893,7621 10814,7629 10736,7664 10658,7702 10580,7700 10502,7697 10424,7746 10345,7796 10267,7802 10189,7844 10111,7890 10033,7877 9954,7871 9876,7905 9798,7970 9720,7976 9642,8044 9564,8114 9485,8121 9407,8067 9329,8100 9251,8185 9173,8191 9094,8245 9016,8189 8939,8167 8861,8156 8783,8191 8705,8291 8626,8295 8548,8352 8470,8396 8392,8420 8314,8406 8235,8470 8157,8551 8079,8577 8001,8647 7923,8720 7845,8753 7766,8756 7688,8800 7610,8874 7532,8890 7454,8964 7376,9001 7297,9048 7219,9044 7141,9088 7063,9145 6985,9149 6906,9174 6828,9212 6750,9198 6672,9171 6594,9202 6516,9247 6437,9266 6359,9279 6281,9301 6203,9292 6125,9246 6046,9273 5968,9317 5890,9294 5812,9323 5734,9329 5656,9270 5577,9221 5499,9258 5421,9326 5343,9280 5265,9236 5186,9137 5108,9077 5030,9038 4952,9049 4874,9060 4796,9006 4717,8987 4639,8983 4561,8981 4483,8908 4405,8921 4327,8985 4248,8894 4170,8896 4092,8862 4014,8768 3936,8647 3857,8641 3779,8674 3701,8676 3623,8651 3545,8857 3467,8786 3388,8726 3310,8768 3232,8819 3154,8767 3076,8730 2997,8523 2919,8441 2841,8329 2763,8349 2685,9605 2607,9798 2528,9716 2450,9760 2372,9728 2294,9484 2216,9460 2137,9600 2059,9505 1981,9455 1903,9561 1825,9409 1747,9269 1668,9577 1590,9662 1512,9812 1434,9569 1356,9076 1277,11318 Z"/>
 <path fill="none" stroke="rgb(0,0,0)" stroke-width="50" stroke-linejoin="round" d="M 1277,11318 L 1356,6224 1434,6585 1512,6423 1590,6465 1668,6711 1747,6537 1825,6405 1903,6971 1981,6864 2059,7016 2137,7069 2216,7112 2294,7216 2372,7581 2450,7566 2528,7419 2607,7513 2685,7355 2763,6474 2841,6494 2919,6512 2997,6563 3076,6909 3154,6938 3232,6940 3310,6893 3388,6872 3467,6920 3545,7037 3623,6797 3701,6733 3779,6695 3857,6657 3936,6666 4014,6768 4092,6858 4170,6870 4248,6864 4327,7172 4405,7096 4483,7088 4561,7167 4639,7149 4717,7139 4796,7155 4874,7054 4952,7024 5030,7016 5108,7052 5186,7125 5265,7277 5343,7321 5421,7167 5499,7086 5577,7059 5656,7112 5734,7189 5812,7207 5890,7173 5968,7075 6046,7012 6125,6972 6203,6997 6281,7045 6359,7048 6437,7055 6516,6969 6594,6921 6672,6882 6750,6904 6828,6980 6906,6929 6985,6905 7063,6905 7141,6845 7219,6797 7297,6798 7376,6766 7454,6748 7532,6694 7610,6660 7688,6581 7766,6522 7845,6508 7923,6464 8001,6393 8079,6327 8157,6260 8235,6179 8314,6118 8392,6111 8470,6043 8548,6036 8626,5996 8705,5920 8783,5836 8861,5791 8939,5765 9016,5717 9094,5896 9173,5866 9251,5799 9329,5729 9407,5692 9485,5726 9564,5661 9642,5654 9720,5620 9798,5561 9876,5512 9954,5486 10033,5496 10111,5472 10189,5464 10267,5443 10345,5389 10424,5364 10502,5338 10580,5348 10658,5344 10736,5343 10814,5342 10893,5315 10971,5302 11049,5290 11127,5297 11205,5308 11284,5313 11362,5310 11440,5296 11518,5294 11596,5288 11674,5298 11753,5283 11831,5303 11909,5304 11987,5308 12065,5303 12143,5308 12222,5320 12300,5330 12378,5350 12456,5368 12534,5375 12613,5379 12691,5387 12769,5400 12847,5408 12925,5422 13003,5443 13082,5437 13160,5440 13238,5441 13316,5451 13394,5467 13473,5485 13551,5492 13629,5489 13707,5484 13785,5481 13863,5485 13942,5500 14020,5500 14098,5507 14176,5500 14254,5505 14333,5503 14411,5507 14489,5519 14567,5517 14645,5523 14723,5520 14802,5516 14880,5511 14958,5512 15036,5518 15114,5519 15192,5522 15192,7201 15114,7211 15036,7230 14958,7233 14880,7233 14802,7246 14723,7266 14645,7272 14567,7283 14489,7306 14411,7300 14333,7302 14254,7312 14176,7326 14098,7341 14020,7352 13942,7369 13863,7353 13785,7350 13707,7361 13629,7373 13551,7389 13473,7403 13394,7408 13316,7382 13238,7376 13160,7381 13082,7383 13003,7401 12925,7398 12847,7404 12769,7393 12691,7383 12613,7387 12534,7401 12456,7396 12378,7402 12300,7407 12222,7397 12143,7390 12065,7396 11987,7420 11909,7419 11831,7442 11753,7444 11674,7446 11596,7441 11518,7457 11440,7483 11362,7499 11284,7530 11205,7556 11127,7553 11049,7556 10971,7580 10893,7621 10814,7629 10736,7664 10658,7702 10580,7700 10502,7697 10424,7746 10345,7796 10267,7802 10189,7844 10111,7890 10033,7877 9954,7871 9876,7905 9798,7970 9720,7976 9642,8044 9564,8114 9485,8121 9407,8067 9329,8100 9251,8185 9173,8191 9094,8245 9016,8189 8939,8167 8861,8156 8783,8191 8705,8291 8626,8295 8548,8352 8470,8396 8392,8420 8314,8406 8235,8470 8157,8551 8079,8577 8001,8647 7923,8720 7845,8753 7766,8756 7688,8800 7610,8874 7532,8890 7454,8964 7376,9001 7297,9048 7219,9044 7141,9088 7063,9145 6985,9149 6906,9174 6828,9212 6750,9198 6672,9171 6594,9202 6516,9247 6437,9266 6359,9279 6281,9301 6203,9292 6125,9246 6046,9273 5968,9317 5890,9294 5812,9323 5734,9329 5656,9270 5577,9221 5499,9258 5421,9326 5343,9280 5265,9236 5186,9137 5108,9077 5030,9038 4952,9049 4874,9060 4796,9006 4717,8987 4639,8983 4561,8981 4483,8908 4405,8921 4327,8985 4248,8894 4170,8896 4092,8862 4014,8768 3936,8647 3857,8641 3779,8674 3701,8676 3623,8651 3545,8857 3467,8786 3388,8726 3310,8768 3232,8819 3154,8767 3076,8730 2997,8523 2919,8441 2841,8329 2763,8349 2685,9605 2607,9798 2528,9716 2450,9760 2372,9728 2294,9484 2216,9460 2137,9600 2059,9505 1981,9455 1903,9561 1825,9409 1747,9269 1668,9577 1590,9662 1512,9812 1434,9569 1356,9076 1277,11318 Z"/>
 <path fill="rgb(221,232,203)" stroke="none" d="M 1277,11318 L 1356,5410 1434,5763 1512,5219 1590,5152 1668,5176 1747,5416 1825,5345 1903,5840 1981,5516 2059,5640 2137,5639 2216,5541 2294,5679 2372,6286 2450,6311 2528,6157 2607,6326 2685,6133 2763,5400 2841,5443 2919,5514 2997,5609 3076,6031 3154,6028 3232,6033 3310,5971 3388,5952 3467,6020 3545,6174 3623,5902 3701,5850 3779,5826 3857,5795 3936,5784 4014,5923 4092,6042 4170,6041 4248,6034 4327,6397 4405,6327 4483,6322 4561,6441 4639,6451 4717,6436 4796,6471 4874,6398 4952,6362 5030,6355 5108,6418 5186,6504 5265,6691 5343,6762 5421,6628 5499,6544 5577,6520 5656,6600 5734,6696 5812,6715 5890,6668 5968,6574 6046,6506 6125,6464 6203,6507 6281,6573 6359,6576 6437,6588 6516,6512 6594,6452 6672,6416 6750,6447 6828,6537 6906,6483 6985,6458 7063,6470 7141,6404 7219,6354 7297,6365 7376,6343 7454,6310 7532,6248 7610,6220 7688,6129 7766,6071 7845,6067 7923,6023 8001,5949 8079,5886 8157,5815 8235,5723 8314,5659 8392,5662 8470,5612 8548,5594 8626,5539 8705,5460 8783,5358 8861,5318 8939,5295 9016,5245 9094,5426 9173,5389 9251,5310 9329,5227 9407,5188 9485,5229 9564,5173 9642,5140 9720,5091 9798,5018 9876,4956 9954,4926 10033,4946 10111,4916 10189,4886 10267,4849 10345,4788 10424,4744 10502,4713 10580,4730 10658,4727 10736,4700 10814,4676 10893,4628 10971,4590 11049,4573 11127,4583 11205,4582 11284,4561 11362,4533 11440,4501 11518,4471 11596,4454 11674,4466 11753,4437 11831,4427 11909,4414 11987,4392 12065,4365 12143,4356 12222,4368 12300,4368 12378,4344 12456,4333 12534,4307 12613,4280 12691,4273 12769,4285 12847,4273 12925,4249 13003,4242 13082,4225 13160,4221 13238,4211 13316,4218 13394,4213 13473,4194 13551,4170 13629,4152 13707,4140 13785,4131 13863,4133 13942,4132 14020,4102 14098,4080 14176,4043 14254,4018 14333,4006 14411,4010 14489,4015 14567,3991 14645,3967 14723,3943 14802,3919 14880,3908 14958,3915 15036,3915 15114,3899 15192,3886 15192,5522 15114,5519 15036,5518 14958,5512 14880,5511 14802,5516 14723,5520 14645,5523 14567,5517 14489,5519 14411,5507 14333,5503 14254,5505 14176,5500 14098,5507 14020,5500 13942,5500 13863,5485 13785,5481 13707,5484 13629,5489 13551,5492 13473,5485 13394,5467 13316,5451 13238,5441 13160,5440 13082,5437 13003,5443 12925,5422 12847,5408 12769,5400 12691,5387 12613,5379 12534,5375 12456,5368 12378,5350 12300,5330 12222,5320 12143,5308 12065,5303 11987,5308 11909,5304 11831,5303 11753,5283 11674,5298 11596,5288 11518,5294 11440,5296 11362,5310 11284,5313 11205,5308 11127,5297 11049,5290 10971,5302 10893,5315 10814,5342 10736,5343 10658,5344 10580,5348 10502,5338 10424,5364 10345,5389 10267,5443 10189,5464 10111,5472 10033,5496 9954,5486 9876,5512 9798,5561 9720,5620 9642,5654 9564,5661 9485,5726 9407,5692 9329,5729 9251,5799 9173,5866 9094,5896 9016,5717 8939,5765 8861,5791 8783,5836 8705,5920 8626,5996 8548,6036 8470,6043 8392,6111 8314,6118 8235,6179 8157,6260 8079,6327 8001,6393 7923,6464 7845,6508 7766,6522 7688,6581 7610,6660 7532,6694 7454,6748 7376,6766 7297,6798 7219,6797 7141,6845 7063,6905 6985,6905 6906,6929 6828,6980 6750,6904 6672,6882 6594,6921 6516,6969 6437,7055 6359,7048 6281,7045 6203,6997 6125,6972 6046,7012 5968,7075 5890,7173 5812,7207 5734,7189 5656,7112 5577,7059 5499,7086 5421,7167 5343,7321 5265,7277 5186,7125 5108,7052 5030,7016 4952,7024 4874,7054 4796,7155 4717,7139 4639,7149 4561,7167 4483,7088 4405,7096 4327,7172 4248,6864 4170,6870 4092,6858 4014,6768 3936,6666 3857,6657 3779,6695 3701,6733 3623,6797 3545,7037 3467,6920 3388,6872 3310,6893 3232,6940 3154,6938 3076,6909 2997,6563 2919,6512 2841,6494 2763,6474 2685,7355 2607,7513 2528,7419 2450,7566 2372,7581 2294,7216 2216,7112 2137,7069 2059,7016 1981,6864 1903,6971 1825,6405 1747,6537 1668,6711 1590,6465 1512,6423 1434,6585 1356,6224 1277,11318 Z"/>
 <path fill="none" stroke="rgb(0,0,0)" stroke-width="50" stroke-linejoin="round" d="M 1277,11318 L 1356,5410 1434,5763 1512,5219 1590,5152 1668,5176 1747,5416 1825,5345 1903,5840 1981,5516 2059,5640 2137,5639 2216,5541 2294,5679 2372,6286 2450,6311 2528,6157 2607,6326 2685,6133 2763,5400 2841,5443 2919,5514 2997,5609 3076,6031 3154,6028 3232,6033 3310,5971 3388,5952 3467,6020 3545,6174 3623,5902 3701,5850 3779,5826 3857,5795 3936,5784 4014,5923 4092,6042 4170,6041 4248,6034 4327,6397 4405,6327 4483,6322 4561,6441 4639,6451 4717,6436 4796,6471 4874,6398 4952,6362 5030,6355 5108,6418 5186,6504 5265,6691 5343,6762 5421,6628 5499,6544 5577,6520 5656,6600 5734,6696 5812,6715 5890,6668 5968,6574 6046,6506 6125,6464 6203,6507 6281,6573 6359,6576 6437,6588 6516,6512 6594,6452 6672,6416 6750,6447 6828,6537 6906,6483 6985,6458 7063,6470 7141,6404 7219,6354 7297,6365 7376,6343 7454,6310 7532,6248 7610,6220 7688,6129 7766,6071 7845,6067 7923,6023 8001,5949 8079,5886 8157,5815 8235,5723 8314,5659 8392,5662 8470,5612 8548,5594 8626,5539 8705,5460 8783,5358 8861,5318 8939,5295 9016,5245 9094,5426 9173,5389 9251,5310 9329,5227 9407,5188 9485,5229 9564,5173 9642,5140 9720,5091 9798,5018 9876,4956 9954,4926 10033,4946 10111,4916 10189,4886 10267,4849 10345,4788 10424,4744 10502,4713 10580,4730 10658,4727 10736,4700 10814,4676 10893,4628 10971,4590 11049,4573 11127,4583 11205,4582 11284,4561 11362,4533 11440,4501 11518,4471 11596,4454 11674,4466 11753,4437 11831,4427 11909,4414 11987,4392 12065,4365 12143,4356 12222,4368 12300,4368 12378,4344 12456,4333 12534,4307 12613,4280 12691,4273 12769,4285 12847,4273 12925,4249 13003,4242 13082,4225 13160,4221 13238,4211 13316,4218 13394,4213 13473,4194 13551,4170 13629,4152 13707,4140 13785,4131 13863,4133 13942,4132 14020,4102 14098,4080 14176,4043 14254,4018 14333,4006 14411,4010 14489,4015 14567,3991 14645,3967 14723,3943 14802,3919 14880,3908 14958,3915 15036,3915 15114,3899 15192,3886 15192,5522 15114,5519 15036,5518 14958,5512 14880,5511 14802,5516 14723,5520 14645,5523 14567,5517 14489,5519 14411,5507 14333,5503 14254,5505 14176,5500 14098,5507 14020,5500 13942,5500 13863,5485 13785,5481 13707,5484 13629,5489 13551,5492 13473,5485 13394,5467 13316,5451 13238,5441 13160,5440 13082,5437 13003,5443 12925,5422 12847,5408 12769,5400 12691,5387 12613,5379 12534,5375 12456,5368 12378,5350 12300,5330 12222,5320 12143,5308 12065,5303 11987,5308 11909,5304 11831,5303 11753,5283 11674,5298 11596,5288 11518,5294 11440,5296 11362,5310 11284,5313 11205,5308 11127,5297 11049,5290 10971,5302 10893,5315 10814,5342 10736,5343 10658,5344 10580,5348 10502,5338 10424,5364 10345,5389 10267,5443 10189,5464 10111,5472 10033,5496 9954,5486 9876,5512 9798,5561 9720,5620 9642,5654 9564,5661 9485,5726 9407,5692 9329,5729 9251,5799 9173,5866 9094,5896 9016,5717 8939,5765 8861,5791 8783,5836 8705,5920 8626,5996 8548,6036 8470,6043 8392,6111 8314,6118 8235,6179 8157,6260 8079,6327 8001,6393 7923,6464 7845,6508 7766,6522 7688,6581 7610,6660 7532,6694 7454,6748 7376,6766 7297,6798 7219,6797 7141,6845 7063,6905 6985,6905 6906,6929 6828,6980 6750,6904 6672,6882 6594,6921 6516,6969 6437,7055 6359,7048 6281,7045 6203,6997 6125,6972 6046,7012 5968,7075 5890,7173 5812,7207 5734,7189 5656,7112 5577,7059 5499,7086 5421,7167 5343,7321 5265,7277 5186,7125 5108,7052 5030,7016 4952,7024 4874,7054 4796,7155 4717,7139 4639,7149 4561,7167 4483,7088 4405,7096 4327,7172 4248,6864 4170,6870 4092,6858 4014,6768 3936,6666 3857,6657 3779,6695 3701,6733 3623,6797 3545,7037 3467,6920 3388,6872 3310,6893 3232,6940 3154,6938 3076,6909 2997,6563 2919,6512 2841,6494 2763,6474 2685,7355 2607,7513 2528,7419 2450,7566 2372,7581 2294,7216 2216,7112 2137,7069 2059,7016 1981,6864 1903,6971 1825,6405 1747,6537 1668,6711 1590,6465 1512,6423 1434,6585 1356,6224 1277,11318 Z"/>
 <path fill="rgb(183,179,202)" stroke="none" d="M 1277,11318 L 1356,5002 1434,5043 1512,4542 1590,4524 1668,4613 1747,4879 1825,4002 1903,3935 1981,3761 2059,4045 2137,4120 2216,4133 2294,4319 2372,3960 2450,4089 2528,4103 2607,4144 2685,4045 2763,3658 2841,3739 2919,3655 2997,3697 3076,3480 3154,3471 3232,3452 3310,3471 3388,3489 3467,3459 3545,3513 3623,2930 3701,2875 3779,2876 3857,2881 3936,2904 4014,2824 4092,2860 4170,2814 4248,2766 4327,2660 4405,2656 4483,2682 4561,2646 4639,2617 4717,2626 4796,2595 4874,2549 4952,2569 5030,2601 5108,2556 5186,2507 5265,2453 5343,2406 5421,2350 5499,2343 5577,2379 5656,2340 5734,2319 5812,2317 5890,2296 5968,2255 6046,2264 6125,2272 6203,2235 6281,2315 6359,2290 6437,2265 6516,2238 6594,2264 6672,2281 6750,2286 6828,2343 6906,2339 6985,2330 7063,2313 7141,2331 7219,2348 7297,2332 7376,2430 7454,2409 7532,2394 7610,2399 7688,2407 7766,2422 7845,2413 7923,2479 8001,2466 8079,2463 8157,2447 8235,2460 8314,2484 8392,2495 8470,2584 8548,2673 8626,2688 8705,2682 8783,2693 8861,2732 8939,2694 9016,2778 9094,2737 9173,2741 9251,2740 9329,2750 9407,2773 9485,2802 9564,2856 9642,2876 9720,2868 9798,2846 9876,2853 9954,2875 10033,2888 10111,2920 10189,2921 10267,2916 10345,2896 10424,2898 10502,2905 10580,2912 10658,2933 10736,2925 10814,2918 10893,2903 10971,2903 11049,2909 11127,2917 11205,2934 11284,2930 11362,2921 11440,2914 11518,2911 11596,2916 11674,2920 11753,2931 11831,2923 11909,2917 11987,2910 12065,2907 12143,2913 12222,2919 12300,2931 12378,2925 12456,2929 12534,2923 12613,2917 12691,2924 12769,2932 12847,2936 12925,2926 13003,2935 13082,2933 13160,2938 13238,2939 13316,2944 13394,2950 13473,2945 13551,2935 13629,2930 13707,2928 13785,2928 13863,2931 13942,2940 14020,2930 14098,2915 14176,2892 14254,2884 14333,2882 14411,2879 14489,2892 14567,2879 14645,2865 14723,2850 14802,2841 14880,2838 14958,2837 15036,2843 15114,2829 15192,2816 15192,3886 15114,3899 15036,3915 14958,3915 14880,3908 14802,3919 14723,3943 14645,3967 14567,3991 14489,4015 14411,4010 14333,4006 14254,4018 14176,4043 14098,4080 14020,4102 13942,4132 13863,4133 13785,4131 13707,4140 13629,4152 13551,4170 13473,4194 13394,4213 13316,4218 13238,4211 13160,4221 13082,4225 13003,4242 12925,4249 12847,4273 12769,4285 12691,4273 12613,4280 12534,4307 12456,4333 12378,4344 12300,4368 12222,4368 12143,4356 12065,4365 11987,4392 11909,4414 11831,4427 11753,4437 11674,4466 11596,4454 11518,4471 11440,4501 11362,4533 11284,4561 11205,4582 11127,4583 11049,4573 10971,4590 10893,4628 10814,4676 10736,4700 10658,4727 10580,4730 10502,4713 10424,4744 10345,4788 10267,4849 10189,4886 10111,4916 10033,4946 9954,4926 9876,4956 9798,5018 9720,5091 9642,5140 9564,5173 9485,5229 9407,5188 9329,5227 9251,5310 9173,5389 9094,5426 9016,5245 8939,5295 8861,5318 8783,5358 8705,5460 8626,5539 8548,5594 8470,5612 8392,5662 8314,5659 8235,5723 8157,5815 8079,5886 8001,5949 7923,6023 7845,6067 7766,6071 7688,6129 7610,6220 7532,6248 7454,6310 7376,6343 7297,6365 7219,6354 7141,6404 7063,6470 6985,6458 6906,6483 6828,6537 6750,6447 6672,6416 6594,6452 6516,6512 6437,6588 6359,6576 6281,6573 6203,6507 6125,6464 6046,6506 5968,6574 5890,6668 5812,6715 5734,6696 5656,6600 5577,6520 5499,6544 5421,6628 5343,6762 5265,6691 5186,6504 5108,6418 5030,6355 4952,6362 4874,6398 4796,6471 4717,6436 4639,6451 4561,6441 4483,6322 4405,6327 4327,6397 4248,6034 4170,6041 4092,6042 4014,5923 3936,5784 3857,5795 3779,5826 3701,5850 3623,5902 3545,6174 3467,6020 3388,5952 3310,5971 3232,6033 3154,6028 3076,6031 2997,5609 2919,5514 2841,5443 2763,5400 2685,6133 2607,6326 2528,6157 2450,6311 2372,6286 2294,5679 2216,5541 2137,5639 2059,5640 1981,5516 1903,5840 1825,5345 1747,5416 1668,5176 1590,5152 1512,5219 1434,5763 1356,5410 1277,11318 Z"/>
 <path fill="none" stroke="rgb(0,0,0)" stroke-width="50" stroke-linejoin="round" d="M 1277,11318 L 1356,5002 1434,5043 1512,4542 1590,4524 1668,4613 1747,4879 1825,4002 1903,3935 1981,3761 2059,4045 2137,4120 2216,4133 2294,4319 2372,3960 2450,4089 2528,4103 2607,4144 2685,4045 2763,3658 2841,3739 2919,3655 2997,3697 3076,3480 3154,3471 3232,3452 3310,3471 3388,3489 3467,3459 3545,3513 3623,2930 3701,2875 3779,2876 3857,2881 3936,2904 4014,2824 4092,2860 4170,2814 4248,2766 4327,2660 4405,2656 4483,2682 4561,2646 4639,2617 4717,2626 4796,2595 4874,2549 4952,2569 5030,2601 5108,2556 5186,2507 5265,2453 5343,2406 5421,2350 5499,2343 5577,2379 5656,2340 5734,2319 5812,2317 5890,2296 5968,2255 6046,2264 6125,2272 6203,2235 6281,2315 6359,2290 6437,2265 6516,2238 6594,2264 6672,2281 6750,2286 6828,2343 6906,2339 6985,2330 7063,2313 7141,2331 7219,2348 7297,2332 7376,2430 7454,2409 7532,2394 7610,2399 7688,2407 7766,2422 7845,2413 7923,2479 8001,2466 8079,2463 8157,2447 8235,2460 8314,2484 8392,2495 8470,2584 8548,2673 8626,2688 8705,2682 8783,2693 8861,2732 8939,2694 9016,2778 9094,2737 9173,2741 9251,2740 9329,2750 9407,2773 9485,2802 9564,2856 9642,2876 9720,2868 9798,2846 9876,2853 9954,2875 10033,2888 10111,2920 10189,2921 10267,2916 10345,2896 10424,2898 10502,2905 10580,2912 10658,2933 10736,2925 10814,2918 10893,2903 10971,2903 11049,2909 11127,2917 11205,2934 11284,2930 11362,2921 11440,2914 11518,2911 11596,2916 11674,2920 11753,2931 11831,2923 11909,2917 11987,2910 12065,2907 12143,2913 12222,2919 12300,2931 12378,2925 12456,2929 12534,2923 12613,2917 12691,2924 12769,2932 12847,2936 12925,2926 13003,2935 13082,2933 13160,2938 13238,2939 13316,2944 13394,2950 13473,2945 13551,2935 13629,2930 13707,2928 13785,2928 13863,2931 13942,2940 14020,2930 14098,2915 14176,2892 14254,2884 14333,2882 14411,2879 14489,2892 14567,2879 14645,2865 14723,2850 14802,2841 14880,2838 14958,2837 15036,2843 15114,2829 15192,2816 15192,3886 15114,3899 15036,3915 14958,3915 14880,3908 14802,3919 14723,3943 14645,3967 14567,3991 14489,4015 14411,4010 14333,4006 14254,4018 14176,4043 14098,4080 14020,4102 13942,4132 13863,4133 13785,4131 13707,4140 13629,4152 13551,4170 13473,4194 13394,4213 13316,4218 13238,4211 13160,4221 13082,4225 13003,4242 12925,4249 12847,4273 12769,4285 12691,4273 12613,4280 12534,4307 12456,4333 12378,4344 12300,4368 12222,4368 12143,4356 12065,4365 11987,4392 11909,4414 11831,4427 11753,4437 11674,4466 11596,4454 11518,4471 11440,4501 11362,4533 11284,4561 11205,4582 11127,4583 11049,4573 10971,4590 10893,4628 10814,4676 10736,4700 10658,4727 10580,4730 10502,4713 10424,4744 10345,4788 10267,4849 10189,4886 10111,4916 10033,4946 9954,4926 9876,4956 9798,5018 9720,5091 9642,5140 9564,5173 9485,5229 9407,5188 9329,5227 9251,5310 9173,5389 9094,5426 9016,5245 8939,5295 8861,5318 8783,5358 8705,5460 8626,5539 8548,5594 8470,5612 8392,5662 8314,5659 8235,5723 8157,5815 8079,5886 8001,5949 7923,6023 7845,6067 7766,6071 7688,6129 7610,6220 7532,6248 7454,6310 7376,6343 7297,6365 7219,6354 7141,6404 7063,6470 6985,6458 6906,6483 6828,6537 6750,6447 6672,6416 6594,6452 6516,6512 6437,6588 6359,6576 6281,6573 6203,6507 6125,6464 6046,6506 5968,6574 5890,6668 5812,6715 5734,6696 5656,6600 5577,6520 5499,6544 5421,6628 5343,6762 5265,6691 5186,6504 5108,6418 5030,6355 4952,6362 4874,6398 4796,6471 4717,6436 4639,6451 4561,6441 4483,6322 4405,6327 4327,6397 4248,6034 4170,6041 4092,6042 4014,5923 3936,5784 3857,5795 3779,5826 3701,5850 3623,5902 3545,6174 3467,6020 3388,5952 3310,5971 3232,6033 3154,6028 3076,6031 2997,5609 2919,5514 2841,5443 2763,5400 2685,6133 2607,6326 2528,6157 2450,6311 2372,6286 2294,5679 2216,5541 2137,5639 2059,5640 1981,5516 1903,5840 1825,5345 1747,5416 1668,5176 1590,5152 1512,5219 1434,5763 1356,5410 1277,11318 Z"/>
 <path fill="rgb(114,159,207)" stroke="none" d="M 1277,11318 L 1356,4799 1434,3808 1512,3412 1590,3440 1668,3589 1747,3708 1825,3154 1903,3071 1981,2925 2059,3127 2137,3239 2216,3214 2294,3353 2372,3124 2450,3211 2528,3196 2607,3136 2685,2960 2763,2678 2841,2678 2919,2620 2997,2701 3076,2509 3154,2473 3232,2461 3310,2456 3388,2470 3467,2460 3545,2562 3623,2615 3701,2568 3779,2554 3857,2553 3936,2555 4014,2482 4092,2532 4170,2491 4248,2452 4327,2364 4405,2357 4483,2367 4561,2345 4639,2326 4717,2335 4796,2301 4874,2267 4952,2286 5030,2309 5108,2272 5186,2237 5265,2198 5343,2154 5421,2111 5499,2106 5577,2131 5656,2097 5734,2090 5812,2090 5890,2071 5968,2033 6046,2039 6125,2042 6203,2007 6281,2093 6359,2060 6437,2027 6516,2001 6594,2016 6672,2028 6750,2019 6828,2077 6906,2067 6985,2052 7063,2031 7141,2032 7219,2032 7297,2014 7376,2110 7454,2077 7532,2050 7610,2037 7688,2032 7766,2031 7845,2024 7923,2097 8001,2074 8079,2059 8157,2038 8235,2028 8314,2023 8392,2021 8470,2109 8548,2167 8626,2154 8705,2127 8783,2109 8861,2105 8939,2056 9016,2155 9094,2097 9173,2085 9251,2073 9329,2063 9407,2057 9485,2083 9564,2162 9642,2151 9720,2140 9798,2129 9876,2122 9954,2129 10033,2150 10111,2199 10189,2196 10267,2190 10345,2180 10424,2179 10502,2179 10580,2194 10658,2234 10736,2229 10814,2228 10893,2223 10971,2225 11049,2229 11127,2243 11205,2275 11284,2276 11362,2272 11440,2271 11518,2270 11596,2274 11674,2283 11753,2305 11831,2300 11909,2301 11987,2302 12065,2302 12143,2305 12222,2318 12300,2338 12378,2336 12456,2346 12534,2345 12613,2342 12691,2349 12769,2360 12847,2373 12925,2366 13003,2378 13082,2376 13160,2382 13238,2383 13316,2394 13394,2411 13473,2409 13551,2404 13629,2400 13707,2400 13785,2401 13863,2407 13942,2426 14020,2420 14098,2411 14176,2401 14254,2392 14333,2392 14411,2393 14489,2415 14567,2407 14645,2398 14723,2389 14802,2385 14880,2383 14958,2385 15036,2400 15114,2390 15192,2384 15192,2816 15114,2829 15036,2843 14958,2837 14880,2838 14802,2841 14723,2850 14645,2865 14567,2879 14489,2892 14411,2879 14333,2882 14254,2884 14176,2892 14098,2915 14020,2930 13942,2940 13863,2931 13785,2928 13707,2928 13629,2930 13551,2935 13473,2945 13394,2950 13316,2944 13238,2939 13160,2938 13082,2933 13003,2935 12925,2926 12847,2936 12769,2932 12691,2924 12613,2917 12534,2923 12456,2929 12378,2925 12300,2931 12222,2919 12143,2913 12065,2907 11987,2910 11909,2917 11831,2923 11753,2931 11674,2920 11596,2916 11518,2911 11440,2914 11362,2921 11284,2930 11205,2934 11127,2917 11049,2909 10971,2903 10893,2903 10814,2918 10736,2925 10658,2933 10580,2912 10502,2905 10424,2898 10345,2896 10267,2916 10189,2921 10111,2920 10033,2888 9954,2875 9876,2853 9798,2846 9720,2868 9642,2876 9564,2856 9485,2802 9407,2773 9329,2750 9251,2740 9173,2741 9094,2737 9016,2778 8939,2694 8861,2732 8783,2693 8705,2682 8626,2688 8548,2673 8470,2584 8392,2495 8314,2484 8235,2460 8157,2447 8079,2463 8001,2466 7923,2479 7845,2413 7766,2422 7688,2407 7610,2399 7532,2394 7454,2409 7376,2430 7297,2332 7219,2348 7141,2331 7063,2313 6985,2330 6906,2339 6828,2343 6750,2286 6672,2281 6594,2264 6516,2238 6437,2265 6359,2290 6281,2315 6203,2235 6125,2272 6046,2264 5968,2255 5890,2296 5812,2317 5734,2319 5656,2340 5577,2379 5499,2343 5421,2350 5343,2406 5265,2453 5186,2507 5108,2556 5030,2601 4952,2569 4874,2549 4796,2595 4717,2626 4639,2617 4561,2646 4483,2682 4405,2656 4327,2660 4248,2766 4170,2814 4092,2860 4014,2824 3936,2904 3857,2881 3779,2876 3701,2875 3623,2930 3545,3513 3467,3459 3388,3489 3310,3471 3232,3452 3154,3471 3076,3480 2997,3697 2919,3655 2841,3739 2763,3658 2685,4045 2607,4144 2528,4103 2450,4089 2372,3960 2294,4319 2216,4133 2137,4120 2059,4045 1981,3761 1903,3935 1825,4002 1747,4879 1668,4613 1590,4524 1512,4542 1434,5043 1356,5002 1277,11318 Z"/>
 <path fill="none" stroke="rgb(0,0,0)" stroke-width="50" stroke-linejoin="round" d="M 1277,11318 L 1356,4799 1434,3808 1512,3412 1590,3440 1668,3589 1747,3708 1825,3154 1903,3071 1981,2925 2059,3127 2137,3239 2216,3214 2294,3353 2372,3124 2450,3211 2528,3196 2607,3136 2685,2960 2763,2678 2841,2678 2919,2620 2997,2701 3076,2509 3154,2473 3232,2461 3310,2456 3388,2470 3467,2460 3545,2562 3623,2615 3701,2568 3779,2554 3857,2553 3936,2555 4014,2482 4092,2532 4170,2491 4248,2452 4327,2364 4405,2357 4483,2367 4561,2345 4639,2326 4717,2335 4796,2301 4874,2267 4952,2286 5030,2309 5108,2272 5186,2237 5265,2198 5343,2154 5421,2111 5499,2106 5577,2131 5656,2097 5734,2090 5812,2090 5890,2071 5968,2033 6046,2039 6125,2042 6203,2007 6281,2093 6359,2060 6437,2027 6516,2001 6594,2016 6672,2028 6750,2019 6828,2077 6906,2067 6985,2052 7063,2031 7141,2032 7219,2032 7297,2014 7376,2110 7454,2077 7532,2050 7610,2037 7688,2032 7766,2031 7845,2024 7923,2097 8001,2074 8079,2059 8157,2038 8235,2028 8314,2023 8392,2021 8470,2109 8548,2167 8626,2154 8705,2127 8783,2109 8861,2105 8939,2056 9016,2155 9094,2097 9173,2085 9251,2073 9329,2063 9407,2057 9485,2083 9564,2162 9642,2151 9720,2140 9798,2129 9876,2122 9954,2129 10033,2150 10111,2199 10189,2196 10267,2190 10345,2180 10424,2179 10502,2179 10580,2194 10658,2234 10736,2229 10814,2228 10893,2223 10971,2225 11049,2229 11127,2243 11205,2275 11284,2276 11362,2272 11440,2271 11518,2270 11596,2274 11674,2283 11753,2305 11831,2300 11909,2301 11987,2302 12065,2302 12143,2305 12222,2318 12300,2338 12378,2336 12456,2346 12534,2345 12613,2342 12691,2349 12769,2360 12847,2373 12925,2366 13003,2378 13082,2376 13160,2382 13238,2383 13316,2394 13394,2411 13473,2409 13551,2404 13629,2400 13707,2400 13785,2401 13863,2407 13942,2426 14020,2420 14098,2411 14176,2401 14254,2392 14333,2392 14411,2393 14489,2415 14567,2407 14645,2398 14723,2389 14802,2385 14880,2383 14958,2385 15036,2400 15114,2390 15192,2384 15192,2816 15114,2829 15036,2843 14958,2837 14880,2838 14802,2841 14723,2850 14645,2865 14567,2879 14489,2892 14411,2879 14333,2882 14254,2884 14176,2892 14098,2915 14020,2930 13942,2940 13863,2931 13785,2928 13707,2928 13629,2930 13551,2935 13473,2945 13394,2950 13316,2944 13238,2939 13160,2938 13082,2933 13003,2935 12925,2926 12847,2936 12769,2932 12691,2924 12613,2917 12534,2923 12456,2929 12378,2925 12300,2931 12222,2919 12143,2913 12065,2907 11987,2910 11909,2917 11831,2923 11753,2931 11674,2920 11596,2916 11518,2911 11440,2914 11362,2921 11284,2930 11205,2934 11127,2917 11049,2909 10971,2903 10893,2903 10814,2918 10736,2925 10658,2933 10580,2912 10502,2905 10424,2898 10345,2896 10267,2916 10189,2921 10111,2920 10033,2888 9954,2875 9876,2853 9798,2846 9720,2868 9642,2876 9564,2856 9485,2802 9407,2773 9329,2750 9251,2740 9173,2741 9094,2737 9016,2778 8939,2694 8861,2732 8783,2693 8705,2682 8626,2688 8548,2673 8470,2584 8392,2495 8314,2484 8235,2460 8157,2447 8079,2463 8001,2466 7923,2479 7845,2413 7766,2422 7688,2407 7610,2399 7532,2394 7454,2409 7376,2430 7297,2332 7219,2348 7141,2331 7063,2313 6985,2330 6906,2339 6828,2343 6750,2286 6672,2281 6594,2264 6516,2238 6437,2265 6359,2290 6281,2315 6203,2235 6125,2272 6046,2264 5968,2255 5890,2296 5812,2317 5734,2319 5656,2340 5577,2379 5499,2343 5421,2350 5343,2406 5265,2453 5186,2507 5108,2556 5030,2601 4952,2569 4874,2549 4796,2595 4717,2626 4639,2617 4561,2646 4483,2682 4405,2656 4327,2660 4248,2766 4170,2814 4092,2860 4014,2824 3936,2904 3857,2881 3779,2876 3701,2875 3623,2930 3545,3513 3467,3459 3388,3489 3310,3471 3232,3452 3154,3471 3076,3480 2997,3697 2919,3655 2841,3739 2763,3658 2685,4045 2607,4144 2528,4103 2450,4089 2372,3960 2294,4319 2216,4133 2137,4120 2059,4045 1981,3761 1903,3935 1825,4002 1747,4879 1668,4613 1590,4524 1512,4542 1434,5043 1356,5002 1277,11318 Z"/>
 <path fill="rgb(232,242,161)" stroke="none" d="M 1277,11318 L 1356,4187 1434,3191 1512,2810 1590,2526 1668,2668 1747,2781 1825,2483 1903,2476 1981,2358 2059,2547 2137,2645 2216,2581 2294,2623 2372,2468 2450,2576 2528,2558 2607,2485 2685,2355 2763,2145 2841,2129 2919,2094 2997,2175 3076,2038 3154,2007 3232,1995 3310,1992 3388,2001 3467,1980 3545,2095 3623,2128 3701,2092 3779,2063 3857,2053 3936,2055 4014,1998 4092,2067 4170,2032 4248,2002 4327,1931 4405,1913 4483,1919 4561,1910 4639,1906 4717,1920 4796,1893 4874,1869 4952,1878 5030,1886 5108,1856 5186,1839 5265,1825 5343,1781 5421,1748 5499,1739 5577,1744 5656,1713 5734,1725 5812,1736 5890,1726 5968,1698 6046,1698 6125,1692 6203,1665 6281,1766 6359,1738 6437,1712 6516,1692 6594,1699 6672,1705 6750,1691 6828,1753 6906,1745 6985,1730 7063,1714 7141,1716 7219,1710 7297,1691 7376,1789 7454,1765 7532,1742 7610,1730 7688,1723 7766,1716 7845,1709 7923,1794 8001,1775 8079,1764 8157,1741 8235,1730 8314,1723 8392,1721 8470,1821 8548,1887 8626,1873 8705,1848 8783,1827 8861,1819 8939,1767 9016,1874 9094,1827 9173,1816 9251,1807 9329,1794 9407,1783 9485,1807 9564,1896 9642,1882 9720,1870 9798,1859 9876,1852 9954,1853 10033,1869 10111,1922 10189,1920 10267,1914 10345,1907 10424,1905 10502,1901 10580,1916 10658,1959 10736,1955 10814,1953 10893,1951 10971,1950 11049,1951 11127,1964 11205,1999 11284,2001 11362,1997 11440,1996 11518,1993 11596,1993 11674,2001 11753,2024 11831,2019 11909,2020 11987,2020 12065,2017 12143,2017 12222,2027 12300,2049 12378,2048 12456,2057 12534,2058 12613,2053 12691,2059 12769,2069 12847,2085 12925,2079 13003,2091 13082,2088 13160,2091 13238,2091 13316,2102 13394,2122 13473,2122 13551,2118 13629,2114 13707,2112 13785,2111 13863,2116 13942,2137 14020,2131 14098,2123 14176,2113 14254,2103 14333,2100 14411,2099 14489,2120 14567,2110 14645,2100 14723,2090 14802,2082 14880,2076 14958,2074 15036,2086 15114,2074 15192,2063 15192,2384 15114,2390 15036,2400 14958,2385 14880,2383 14802,2385 14723,2389 14645,2398 14567,2407 14489,2415 14411,2393 14333,2392 14254,2392 14176,2401 14098,2411 14020,2420 13942,2426 13863,2407 13785,2401 13707,2400 13629,2400 13551,2404 13473,2409 13394,2411 13316,2394 13238,2383 13160,2382 13082,2376 13003,2378 12925,2366 12847,2373 12769,2360 12691,2349 12613,2342 12534,2345 12456,2346 12378,2336 12300,2338 12222,2318 12143,2305 12065,2302 11987,2302 11909,2301 11831,2300 11753,2305 11674,2283 11596,2274 11518,2270 11440,2271 11362,2272 11284,2276 11205,2275 11127,2243 11049,2229 10971,2225 10893,2223 10814,2228 10736,2229 10658,2234 10580,2194 10502,2179 10424,2179 10345,2180 10267,2190 10189,2196 10111,2199 10033,2150 9954,2129 9876,2122 9798,2129 9720,2140 9642,2151 9564,2162 9485,2083 9407,2057 9329,2063 9251,2073 9173,2085 9094,2097 9016,2155 8939,2056 8861,2105 8783,2109 8705,2127 8626,2154 8548,2167 8470,2109 8392,2021 8314,2023 8235,2028 8157,2038 8079,2059 8001,2074 7923,2097 7845,2024 7766,2031 7688,2032 7610,2037 7532,2050 7454,2077 7376,2110 7297,2014 7219,2032 7141,2032 7063,2031 6985,2052 6906,2067 6828,2077 6750,2019 6672,2028 6594,2016 6516,2001 6437,2027 6359,2060 6281,2093 6203,2007 6125,2042 6046,2039 5968,2033 5890,2071 5812,2090 5734,2090 5656,2097 5577,2131 5499,2106 5421,2111 5343,2154 5265,2198 5186,2237 5108,2272 5030,2309 4952,2286 4874,2267 4796,2301 4717,2335 4639,2326 4561,2345 4483,2367 4405,2357 4327,2364 4248,2452 4170,2491 4092,2532 4014,2482 3936,2555 3857,2553 3779,2554 3701,2568 3623,2615 3545,2562 3467,2460 3388,2470 3310,2456 3232,2461 3154,2473 3076,2509 2997,2701 2919,2620 2841,2678 2763,2678 2685,2960 2607,3136 2528,3196 2450,3211 2372,3124 2294,3353 2216,3214 2137,3239 2059,3127 1981,2925 1903,3071 1825,3154 1747,3708 1668,3589 1590,3440 1512,3412 1434,3808 1356,4799 1277,11318 Z"/>
 <path fill="none" stroke="rgb(0,0,0)" stroke-width="50" stroke-linejoin="round" d="M 1277,11318 L 1356,4187 1434,3191 1512,2810 1590,2526 1668,2668 1747,2781 1825,2483 1903,2476 1981,2358 2059,2547 2137,2645 2216,2581 2294,2623 2372,2468 2450,2576 2528,2558 2607,2485 2685,2355 2763,2145 2841,2129 2919,2094 2997,2175 3076,2038 3154,2007 3232,1995 3310,1992 3388,2001 3467,1980 3545,2095 3623,2128 3701,2092 3779,2063 3857,2053 3936,2055 4014,1998 4092,2067 4170,2032 4248,2002 4327,1931 4405,1913 4483,1919 4561,1910 4639,1906 4717,1920 4796,1893 4874,1869 4952,1878 5030,1886 5108,1856 5186,1839 5265,1825 5343,1781 5421,1748 5499,1739 5577,1744 5656,1713 5734,1725 5812,1736 5890,1726 5968,1698 6046,1698 6125,1692 6203,1665 6281,1766 6359,1738 6437,1712 6516,1692 6594,1699 6672,1705 6750,1691 6828,1753 6906,1745 6985,1730 7063,1714 7141,1716 7219,1710 7297,1691 7376,1789 7454,1765 7532,1742 7610,1730 7688,1723 7766,1716 7845,1709 7923,1794 8001,1775 8079,1764 8157,1741 8235,1730 8314,1723 8392,1721 8470,1821 8548,1887 8626,1873 8705,1848 8783,1827 8861,1819 8939,1767 9016,1874 9094,1827 9173,1816 9251,1807 9329,1794 9407,1783 9485,1807 9564,1896 9642,1882 9720,1870 9798,1859 9876,1852 9954,1853 10033,1869 10111,1922 10189,1920 10267,1914 10345,1907 10424,1905 10502,1901 10580,1916 10658,1959 10736,1955 10814,1953 10893,1951 10971,1950 11049,1951 11127,1964 11205,1999 11284,2001 11362,1997 11440,1996 11518,1993 11596,1993 11674,2001 11753,2024 11831,2019 11909,2020 11987,2020 12065,2017 12143,2017 12222,2027 12300,2049 12378,2048 12456,2057 12534,2058 12613,2053 12691,2059 12769,2069 12847,2085 12925,2079 13003,2091 13082,2088 13160,2091 13238,2091 13316,2102 13394,2122 13473,2122 13551,2118 13629,2114 13707,2112 13785,2111 13863,2116 13942,2137 14020,2131 14098,2123 14176,2113 14254,2103 14333,2100 14411,2099 14489,2120 14567,2110 14645,2100 14723,2090 14802,2082 14880,2076 14958,2074 15036,2086 15114,2074 15192,2063 15192,2384 15114,2390 15036,2400 14958,2385 14880,2383 14802,2385 14723,2389 14645,2398 14567,2407 14489,2415 14411,2393 14333,2392 14254,2392 14176,2401 14098,2411 14020,2420 13942,2426 13863,2407 13785,2401 13707,2400 13629,2400 13551,2404 13473,2409 13394,2411 13316,2394 13238,2383 13160,2382 13082,2376 13003,2378 12925,2366 12847,2373 12769,2360 12691,2349 12613,2342 12534,2345 12456,2346 12378,2336 12300,2338 12222,2318 12143,2305 12065,2302 11987,2302 11909,2301 11831,2300 11753,2305 11674,2283 11596,2274 11518,2270 11440,2271 11362,2272 11284,2276 11205,2275 11127,2243 11049,2229 10971,2225 10893,2223 10814,2228 10736,2229 10658,2234 10580,2194 10502,2179 10424,2179 10345,2180 10267,2190 10189,2196 10111,2199 10033,2150 9954,2129 9876,2122 9798,2129 9720,2140 9642,2151 9564,2162 9485,2083 9407,2057 9329,2063 9251,2073 9173,2085 9094,2097 9016,2155 8939,2056 8861,2105 8783,2109 8705,2127 8626,2154 8548,2167 8470,2109 8392,2021 8314,2023 8235,2028 8157,2038 8079,2059 8001,2074 7923,2097 7845,2024 7766,2031 7688,2032 7610,2037 7532,2050 7454,2077 7376,2110 7297,2014 7219,2032 7141,2032 7063,2031 6985,2052 6906,2067 6828,2077 6750,2019 6672,2028 6594,2016 6516,2001 6437,2027 6359,2060 6281,2093 6203,2007 6125,2042 6046,2039 5968,2033 5890,2071 5812,2090 5734,2090 5656,2097 5577,2131 5499,2106 5421,2111 5343,2154 5265,2198 5186,2237 5108,2272 5030,2309 4952,2286 4874,2267 4796,2301 4717,2335 4639,2326 4561,2345 4483,2367 4405,2357 4327,2364 4248,2452 4170,2491 4092,2532 4014,2482 3936,2555 3857,2553 3779,2554 3701,2568 3623,2615 3545,2562 3467,2460 3388,2470 3310,2456 3232,2461 3154,2473 3076,2509 2997,2701 2919,2620 2841,2678 2763,2678 2685,2960 2607,3136 2528,3196 2450,3211 2372,3124 2294,3353 2216,3214 2137,3239 2059,3127 1981,2925 1903,3071 1825,3154 1747,3708 1668,3589 1590,3440 1512,3412 1434,3808 1356,4799 1277,11318 Z"/>
 <path fill="rgb(174,207,0)" stroke="none" d="M 1277,11318 L 1356,928 1434,928 1512,928 1590,928 1668,928 1747,928 1825,928 1903,928 1981,928 2059,928 2137,928 2216,928 2294,928 2372,928 2450,928 2528,928 2607,928 2685,928 2763,928 2841,928 2919,928 2997,928 3154,928 3232,928 3310,928 3388,928 3467,928 3545,928 3623,928 3701,928 3779,928 3857,928 3936,928 4014,928 4092,928 4170,928 4248,928 4327,928 4405,928 4483,928 4561,928 4639,928 4717,928 4796,928 4874,928 4952,928 5030,928 5108,928 5186,928 5265,928 5343,928 5473,928 5499,928 5577,928 5656,928 5734,928 5812,928 5890,928 5968,928 6046,928 6125,928 6203,928 6281,928 6359,928 6437,928 6516,928 6594,928 6672,928 6750,928 6828,928 6906,928 6985,928 7063,928 7141,928 7219,928 7297,928 7376,928 7532,928 7610,928 7688,928 7766,928 7845,928 7923,928 8001,928 8079,928 8157,928 8235,928 8314,928 8392,928 8470,928 8548,928 8626,928 8705,928 8783,928 8861,928 8939,928 9016,928 9094,928 9173,928 9251,928 9329,928 9407,928 9485,928 9564,928 9642,928 9720,928 9798,928 9876,928 9954,928 10111,928 10189,928 10267,928 10345,928 10424,928 10580,928 10658,928 10736,928 10814,928 10893,928 10971,928 11127,928 11205,928 11284,928 11362,928 11440,928 11518,928 11596,928 11753,928 11831,928 11909,928 11987,928 12065,928 12143,928 12222,928 12300,928 12378,928 12456,928 12534,928 12613,928 12691,928 12769,928 12795,928 12925,928 13003,928 13082,928 13160,928 13238,928 13316,928 13394,928 13473,928 13551,928 13629,928 13707,928 13785,928 13863,928 13942,928 14020,928 14098,928 14176,928 14254,928 14333,928 14411,928 14489,928 14567,928 14645,928 14723,928 14802,928 14880,928 14958,928 15036,928 15114,928 15192,928 15192,2063 15114,2074 15036,2086 14958,2074 14880,2076 14802,2082 14723,2090 14645,2100 14567,2110 14489,2120 14411,2099 14333,2100 14254,2103 14176,2113 14098,2123 14020,2131 13942,2137 13863,2116 13785,2111 13707,2112 13629,2114 13551,2118 13473,2122 13394,2122 13316,2102 13238,2091 13160,2091 13082,2088 13003,2091 12925,2079 12847,2085 12769,2069 12691,2059 12613,2053 12534,2058 12456,2057 12378,2048 12300,2049 12222,2027 12143,2017 12065,2017 11987,2020 11909,2020 11831,2019 11753,2024 11674,2001 11596,1993 11518,1993 11440,1996 11362,1997 11284,2001 11205,1999 11127,1964 11049,1951 10971,1950 10893,1951 10814,1953 10736,1955 10658,1959 10580,1916 10502,1901 10424,1905 10345,1907 10267,1914 10189,1920 10111,1922 10033,1869 9954,1853 9876,1852 9798,1859 9720,1870 9642,1882 9564,1896 9485,1807 9407,1783 9329,1794 9251,1807 9173,1816 9094,1827 9016,1874 8939,1767 8861,1819 8783,1827 8705,1848 8626,1873 8548,1887 8470,1821 8392,1721 8314,1723 8235,1730 8157,1741 8079,1764 8001,1775 7923,1794 7845,1709 7766,1716 7688,1723 7610,1730 7532,1742 7454,1765 7376,1789 7297,1691 7219,1710 7141,1716 7063,1714 6985,1730 6906,1745 6828,1753 6750,1691 6672,1705 6594,1699 6516,1692 6437,1712 6359,1738 6281,1766 6203,1665 6125,1692 6046,1698 5968,1698 5890,1726 5812,1736 5734,1725 5656,1713 5577,1744 5499,1739 5421,1748 5343,1781 5265,1825 5186,1839 5108,1856 5030,1886 4952,1878 4874,1869 4796,1893 4717,1920 4639,1906 4561,1910 4483,1919 4405,1913 4327,1931 4248,2002 4170,2032 4092,2067 4014,1998 3936,2055 3857,2053 3779,2063 3701,2092 3623,2128 3545,2095 3467,1980 3388,2001 3310,1992 3232,1995 3154,2007 3076,2038 2997,2175 2919,2094 2841,2129 2763,2145 2685,2355 2607,2485 2528,2558 2450,2576 2372,2468 2294,2623 2216,2581 2137,2645 2059,2547 1981,2358 1903,2476 1825,2483 1747,2781 1668,2668 1590,2526 1512,2810 1434,3191 1356,4187 1277,11318 Z"/>
 <path fill="none" stroke="rgb(0,0,0)" stroke-width="50" stroke-linejoin="round" d="M 1277,11318 L 1356,928 1434,928 1512,928 1590,928 1668,928 1747,928 1825,928 1903,928 1981,928 2059,928 2137,928 2216,928 2294,928 2372,928 2450,928 2528,928 2607,928 2685,928 2763,928 2841,928 2919,928 2997,928 3154,928 3232,928 3310,928 3388,928 3467,928 3545,928 3623,928 3701,928 3779,928 3857,928 3936,928 4014,928 4092,928 4170,928 4248,928 4327,928 4405,928 4483,928 4561,928 4639,928 4717,928 4796,928 4874,928 4952,928 5030,928 5108,928 5186,928 5265,928 5343,928 5473,928 5499,928 5577,928 5656,928 5734,928 5812,928 5890,928 5968,928 6046,928 6125,928 6203,928 6281,928 6359,928 6437,928 6516,928 6594,928 6672,928 6750,928 6828,928 6906,928 6985,928 7063,928 7141,928 7219,928 7297,928 7376,928 7532,928 7610,928 7688,928 7766,928 7845,928 7923,928 8001,928 8079,928 8157,928 8235,928 8314,928 8392,928 8470,928 8548,928 8626,928 8705,928 8783,928 8861,928 8939,928 9016,928 9094,928 9173,928 9251,928 9329,928 9407,928 9485,928 9564,928 9642,928 9720,928 9798,928 9876,928 9954,928 10111,928 10189,928 10267,928 10345,928 10424,928 10580,928 10658,928 10736,928 10814,928 10893,928 10971,928 11127,928 11205,928 11284,928 11362,928 11440,928 11518,928 11596,928 11753,928 11831,928 11909,928 11987,928 12065,928 12143,928 12222,928 12300,928 12378,928 12456,928 12534,928 12613,928 12691,928 12769,928 12795,928 12925,928 13003,928 13082,928 13160,928 13238,928 13316,928 13394,928 13473,928 13551,928 13629,928 13707,928 13785,928 13863,928 13942,928 14020,928 14098,928 14176,928 14254,928 14333,928 14411,928 14489,928 14567,928 14645,928 14723,928 14802,928 14880,928 14958,928 15036,928 15114,928 15192,928 15192,2063 15114,2074 15036,2086 14958,2074 14880,2076 14802,2082 14723,2090 14645,2100 14567,2110 14489,2120 14411,2099 14333,2100 14254,2103 14176,2113 14098,2123 14020,2131 13942,2137 13863,2116 13785,2111 13707,2112 13629,2114 13551,2118 13473,2122 13394,2122 13316,2102 13238,2091 13160,2091 13082,2088 13003,2091 12925,2079 12847,2085 12769,2069 12691,2059 12613,2053 12534,2058 12456,2057 12378,2048 12300,2049 12222,2027 12143,2017 12065,2017 11987,2020 11909,2020 11831,2019 11753,2024 11674,2001 11596,1993 11518,1993 11440,1996 11362,1997 11284,2001 11205,1999 11127,1964 11049,1951 10971,1950 10893,1951 10814,1953 10736,1955 10658,1959 10580,1916 10502,1901 10424,1905 10345,1907 10267,1914 10189,1920 10111,1922 10033,1869 9954,1853 9876,1852 9798,1859 9720,1870 9642,1882 9564,1896 9485,1807 9407,1783 9329,1794 9251,1807 9173,1816 9094,1827 9016,1874 8939,1767 8861,1819 8783,1827 8705,1848 8626,1873 8548,1887 8470,1821 8392,1721 8314,1723 8235,1730 8157,1741 8079,1764 8001,1775 7923,1794 7845,1709 7766,1716 7688,1723 7610,1730 7532,1742 7454,1765 7376,1789 7297,1691 7219,1710 7141,1716 7063,1714 6985,1730 6906,1745 6828,1753 6750,1691 6672,1705 6594,1699 6516,1692 6437,1712 6359,1738 6281,1766 6203,1665 6125,1692 6046,1698 5968,1698 5890,1726 5812,1736 5734,1725 5656,1713 5577,1744 5499,1739 5421,1748 5343,1781 5265,1825 5186,1839 5108,1856 5030,1886 4952,1878 4874,1869 4796,1893 4717,1920 4639,1906 4561,1910 4483,1919 4405,1913 4327,1931 4248,2002 4170,2032 4092,2067 4014,1998 3936,2055 3857,2053 3779,2063 3701,2092 3623,2128 3545,2095 3467,1980 3388,2001 3310,1992 3232,1995 3154,2007 3076,2038 2997,2175 2919,2094 2841,2129 2763,2145 2685,2355 2607,2485 2528,2558 2450,2576 2372,2468 2294,2623 2216,2581 2137,2645 2059,2547 1981,2358 1903,2476 1825,2483 1747,2781 1668,2668 1590,2526 1512,2810 1434,3191 1356,4187 1277,11318 Z"/>
 <text class="TextShape"><tspan class="TextParagraph" font-family="Liberation Sans, sans-serif" font-size="353px" font-weight="400"><tspan class="TextPosition" x="853" y="11886"><tspan fill="rgb(0,0,0)" stroke="none">27/07</tspan></tspan></tspan></text>
 <text class="TextShape"><tspan class="TextParagraph" font-family="Liberation Sans, sans-serif" font-size="353px" font-weight="400"><tspan class="TextPosition" x="3277" y="11886"><tspan fill="rgb(0,0,0)" stroke="none">27/08</tspan></tspan></tspan></text>
 <text class="TextShape"><tspan class="TextParagraph" font-family="Liberation Sans, sans-serif" font-size="353px" font-weight="400"><tspan class="TextPosition" x="5701" y="11886"><tspan fill="rgb(0,0,0)" stroke="none">27/09</tspan></tspan></tspan></text>
 <text class="TextShape"><tspan class="TextParagraph" font-family="Liberation Sans, sans-serif" font-size="353px" font-weight="400"><tspan class="TextPosition" x="8046" y="11886"><tspan fill="rgb(0,0,0)" stroke="none">27/10</tspan></tspan></tspan></text>
 <text class="TextShape"><tspan class="TextParagraph" font-family="Liberation Sans, sans-serif" font-size="353px" font-weight="400"><tspan class="TextPosition" x="10470" y="11886"><tspan fill="rgb(0,0,0)" stroke="none">27/11</tspan></tspan></tspan></text>
 <text class="TextShape"><tspan class="TextParagraph" font-family="Liberation Sans, sans-serif" font-size="353px" font-weight="400"><tspan class="TextPosition" x="12815" y="11886"><tspan fill="rgb(0,0,0)" stroke="none">27/12</tspan></tspan></tspan></text>
 <text class="TextShape"><tspan class="TextParagraph" font-family="Liberation Sans, sans-serif" font-size="353px" font-weight="400"><tspan class="TextPosition" x="524" y="11439"><tspan fill="rgb(0,0,0)" stroke="none">0%</tspan></tspan></tspan></text>
 <text class="TextShape"><tspan class="TextParagraph" font-family="Liberation Sans, sans-serif" font-size="353px" font-weight="400"><tspan class="TextPosition" x="339" y="10399"><tspan fill="rgb(0,0,0)" stroke="none">10%</tspan></tspan></tspan></text>
 <text class="TextShape"><tspan class="TextParagraph" font-family="Liberation Sans, sans-serif" font-size="353px" font-weight="400"><tspan class="TextPosition" x="339" y="9360"><tspan fill="rgb(0,0,0)" stroke="none">20%</tspan></tspan></tspan></text>
 <text class="TextShape"><tspan class="TextParagraph" font-family="Liberation Sans, sans-serif" font-size="353px" font-weight="400"><tspan class="TextPosition" x="339" y="8321"><tspan fill="rgb(0,0,0)" stroke="none">30%</tspan></tspan></tspan></text>
 <text class="TextShape"><tspan class="TextParagraph" font-family="Liberation Sans, sans-serif" font-size="353px" font-weight="400"><tspan class="TextPosition" x="339" y="7282"><tspan fill="rgb(0,0,0)" stroke="none">40%</tspan></tspan></tspan></text>
 <text class="TextShape"><tspan class="TextParagraph" font-family="Liberation Sans, sans-serif" font-size="353px" font-weight="400"><tspan class="TextPosition" x="339" y="6243"><tspan fill="rgb(0,0,0)" stroke="none">50%</tspan></tspan></tspan></text>
 <text class="TextShape"><tspan class="TextParagraph" font-family="Liberation Sans, sans-serif" font-size="353px" font-weight="400"><tspan class="TextPosition" x="339" y="5204"><tspan fill="rgb(0,0,0)" stroke="none">60%</tspan></tspan></tspan></text>
 <text class="TextShape"><tspan class="TextParagraph" font-family="Liberation Sans, sans-serif" font-size="353px" font-weight="400"><tspan class="TextPosition" x="339" y="4165"><tspan fill="rgb(0,0,0)" stroke="none">70%</tspan></tspan></tspan></text>
 <text class="TextShape"><tspan class="TextParagraph" font-family="Liberation Sans, sans-serif" font-size="353px" font-weight="400"><tspan class="TextPosition" x="339" y="3126"><tspan fill="rgb(0,0,0)" stroke="none">80%</tspan></tspan></tspan></text>
 <text class="TextShape"><tspan class="TextParagraph" font-family="Liberation Sans, sans-serif" font-size="353px" font-weight="400"><tspan class="TextPosition" x="339" y="2087"><tspan fill="rgb(0,0,0)" stroke="none">90%</tspan></tspan></tspan></text>
 <text class="TextShape"><tspan class="TextParagraph" font-family="Liberation Sans, sans-serif" font-size="353px" font-weight="400"><tspan class="TextPosition" x="154" y="1048"><tspan fill="rgb(0,0,0)" stroke="none">100%</tspan></tspan></tspan></text>
 <text class="TextShape"><tspan class="TextParagraph" font-family="Liberation Sans, sans-serif" font-size="459px" font-weight="400"><tspan class="TextPosition" x="4508" y="724"><tspan fill="rgb(0,0,0)" stroke="none">Covid-19 (porcentaje de muertes acumuladas)</tspan></tspan></tspan></text>
 <text class="TextShape"><tspan class="TextParagraph" font-family="Arial, sans-serif" font-size="423px" font-weight="400"><tspan class="TextPosition" x="15383" y="8290"><tspan fill="rgb(0,0,0)" stroke="none">Italia</tspan></tspan></tspan></text>
 <text class="TextShape"><tspan class="TextParagraph" font-family="Arial, sans-serif" font-size="423px" font-weight="400"><tspan class="TextPosition" x="15374" y="6508"><tspan fill="rgb(0,0,0)" stroke="none">Francia</tspan></tspan></tspan></text>
 <text class="TextShape"><tspan class="TextParagraph" font-family="Arial, sans-serif" font-size="423px" font-weight="400"><tspan class="TextPosition" x="15346" y="2822"><tspan fill="rgb(0,0,0)" stroke="none">Blgica</tspan></tspan></tspan></text>
 <text class="TextShape"><tspan class="TextParagraph" font-family="Arial, sans-serif" font-size="423px" font-weight="400"><tspan class="TextPosition" x="15422" y="3492"><tspan fill="rgb(0,0,0)" stroke="none">Espaa</tspan></tspan></tspan></text>
 <text class="TextShape"><tspan class="TextParagraph" font-family="Arial, sans-serif" font-size="423px" font-weight="400"><tspan class="TextPosition" x="15346" y="4850"><tspan fill="rgb(0,0,0)" stroke="none">Alemania</tspan></tspan></tspan></text>
 <text class="TextShape"><tspan class="TextParagraph" font-family="Arial, sans-serif" font-size="423px" font-weight="400"><tspan class="TextPosition" x="15402" y="1668"><tspan fill="rgb(0,0,0)" stroke="none">Resto</tspan></tspan></tspan></text>
 <text class="TextShape"><tspan class="TextParagraph" font-family="Arial, sans-serif" font-size="423px" font-weight="400"><tspan class="TextPosition" x="15419" y="10380"><tspan fill="rgb(0,0,0)" stroke="none">Reino Unido</tspan></tspan></tspan></text>
 <text class="TextShape"><tspan class="TextParagraph" font-family="Arial, sans-serif" font-size="423px" font-weight="400"><tspan class="TextPosition" x="15346" y="2301"><tspan fill="rgb(0,0,0)" stroke="none">Portugal</tspan></tspan></tspan></text>
</svg>