<?xml version="1.0" encoding="UTF-8"?>
<!DOCTYPE svg PUBLIC "-//W3C//DTD SVG 1.1//EN" "http://www.w3.org/Graphics/SVG/1.1/DTD/svg11.dtd">
<svg width="150mm" height="120mm" viewBox="0 0 15000 12000" version="1.1" xmlns="http://www.w3.org/2000/svg" xmlns:xlink="http://www.w3.org/1999/xlink" stroke-width="28.222" stroke-linejoin="round" xml:space="preserve">
 <path fill="rgb(255,255,255)" stroke="none" d="M 7500,12000 L 0,12000 0,0 15000,0 15000,12000 7500,12000 Z"/>
 <path fill="none" stroke="rgb(0,0,0)" stroke-linejoin="round" d="M 7955,11189 L 1224,11189 1224,1028 14687,1028 14687,11189 7955,11189 Z"/>
 <path fill="none" stroke="rgb(0,0,0)" stroke-linejoin="round" d="M 14687,11188 L 1224,11188"/>
 <path fill="none" stroke="rgb(0,0,0)" stroke-linejoin="round" d="M 14687,9373 L 1224,9373"/>
 <path fill="none" stroke="rgb(0,0,0)" stroke-linejoin="round" d="M 14687,7558 L 1224,7558"/>
 <path fill="none" stroke="rgb(0,0,0)" stroke-linejoin="round" d="M 14687,5745 L 1224,5745"/>
 <path fill="none" stroke="rgb(0,0,0)" stroke-linejoin="round" d="M 14687,3930 L 1224,3930"/>
 <path fill="none" stroke="rgb(0,0,0)" stroke-linejoin="round" d="M 14687,2115 L 1224,2115"/>
 <path fill="none" stroke="rgb(0,0,0)" stroke-linejoin="round" d="M 1224,11338 L 1224,11188"/>
 <path fill="none" stroke="rgb(0,0,0)" stroke-linejoin="round" d="M 1224,11338 L 1224,11188"/>
 <path fill="none" stroke="rgb(0,0,0)" stroke-linejoin="round" d="M 2515,11338 L 2515,11188"/>
 <path fill="none" stroke="rgb(0,0,0)" stroke-linejoin="round" d="M 2515,11338 L 2515,11188"/>
 <path fill="none" stroke="rgb(0,0,0)" stroke-linejoin="round" d="M 3806,11338 L 3806,11188"/>
 <path fill="none" stroke="rgb(0,0,0)" stroke-linejoin="round" d="M 3806,11338 L 3806,11188"/>
 <path fill="none" stroke="rgb(0,0,0)" stroke-linejoin="round" d="M 5097,11338 L 5097,11188"/>
 <path fill="none" stroke="rgb(0,0,0)" stroke-linejoin="round" d="M 5097,11338 L 5097,11188"/>
 <path fill="none" stroke="rgb(0,0,0)" stroke-linejoin="round" d="M 6388,11338 L 6388,11188"/>
 <path fill="none" stroke="rgb(0,0,0)" stroke-linejoin="round" d="M 6388,11338 L 6388,11188"/>
 <path fill="none" stroke="rgb(0,0,0)" stroke-linejoin="round" d="M 7678,11338 L 7678,11188"/>
 <path fill="none" stroke="rgb(0,0,0)" stroke-linejoin="round" d="M 7678,11338 L 7678,11188"/>
 <path fill="none" stroke="rgb(0,0,0)" stroke-linejoin="round" d="M 8969,11338 L 8969,11188"/>
 <path fill="none" stroke="rgb(0,0,0)" stroke-linejoin="round" d="M 8969,11338 L 8969,11188"/>
 <path fill="none" stroke="rgb(0,0,0)" stroke-linejoin="round" d="M 10260,11338 L 10260,11188"/>
 <path fill="none" stroke="rgb(0,0,0)" stroke-linejoin="round" d="M 10260,11338 L 10260,11188"/>
 <path fill="none" stroke="rgb(0,0,0)" stroke-linejoin="round" d="M 11551,11338 L 11551,11188"/>
 <path fill="none" stroke="rgb(0,0,0)" stroke-linejoin="round" d="M 11551,11338 L 11551,11188"/>
 <path fill="none" stroke="rgb(0,0,0)" stroke-linejoin="round" d="M 12842,11338 L 12842,11188"/>
 <path fill="none" stroke="rgb(0,0,0)" stroke-linejoin="round" d="M 12842,11338 L 12842,11188"/>
 <path fill="none" stroke="rgb(0,0,0)" stroke-linejoin="round" d="M 14133,11338 L 14133,11188"/>
 <path fill="none" stroke="rgb(0,0,0)" stroke-linejoin="round" d="M 14133,11338 L 14133,11188"/>
 <path fill="none" stroke="rgb(0,0,0)" stroke-linejoin="round" d="M 1224,11188 L 14687,11188"/>
 <path fill="none" stroke="rgb(0,0,0)" stroke-linejoin="round" d="M 1074,11188 L 1224,11188"/>
 <path fill="none" stroke="rgb(0,0,0)" stroke-linejoin="round" d="M 1074,11188 L 1224,11188"/>
 <path fill="none" stroke="rgb(0,0,0)" stroke-linejoin="round" d="M 1074,9373 L 1224,9373"/>
 <path fill="none" stroke="rgb(0,0,0)" stroke-linejoin="round" d="M 1074,9373 L 1224,9373"/>
 <path fill="none" stroke="rgb(0,0,0)" stroke-linejoin="round" d="M 1074,7558 L 1224,7558"/>
 <path fill="none" stroke="rgb(0,0,0)" stroke-linejoin="round" d="M 1074,7558 L 1224,7558"/>
 <path fill="none" stroke="rgb(0,0,0)" stroke-linejoin="round" d="M 1074,5745 L 1224,5745"/>
 <path fill="none" stroke="rgb(0,0,0)" stroke-linejoin="round" d="M 1074,5745 L 1224,5745"/>
 <path fill="none" stroke="rgb(0,0,0)" stroke-linejoin="round" d="M 1074,3930 L 1224,3930"/>
 <path fill="none" stroke="rgb(0,0,0)" stroke-linejoin="round" d="M 1074,3930 L 1224,3930"/>
 <path fill="none" stroke="rgb(0,0,0)" stroke-linejoin="round" d="M 1074,2115 L 1224,2115"/>
 <path fill="none" stroke="rgb(0,0,0)" stroke-linejoin="round" d="M 1074,2115 L 1224,2115"/>
 <path fill="none" stroke="rgb(0,0,0)" stroke-linejoin="round" d="M 1224,11188 L 1224,1027"/>
 <path fill="none" stroke="rgb(0,0,0)" stroke-width="50" stroke-linejoin="round" d="M 4082,11175 L 4267,11175 4451,11175 4636,11175 4820,11149 5004,11136 5189,11111 5373,11098 5558,11098 5742,11098 5927,11046 6111,11034 6296,11021 6480,10995 6664,10969 6849,10905 7033,10880 7218,10777 7402,10713 7586,10674 7770,10572 7955,10443 8139,10443 8323,9994 8508,9828 8692,9417 8877,9020 9061,8622 9246,8314 9430,7968 9614,7724 9799,7544 9983,7185 10168,6711 10352,6249 10537,5942 10721,5737 10906,5416 11090,5236 11274,4877 11459,4595 11643,4223 11828,3979 12012,3479 12197,3248 12381,3017 12565,2940 12750,2773 12934,2453 13119,2273 13303,2093 13488,2055 13672,1875 13857,1760 14041,1747 14225,1709 14410,1580 14594,1426"/>
 <path fill="rgb(0,0,0)" stroke="none" d="M 3982,11175 L 4082,11275 4182,11175 4082,11075 3982,11175 Z"/>
 <path fill="none" stroke="rgb(0,0,0)" stroke-linejoin="round" d="M 3982,11175 L 4082,11275 4182,11175 4082,11075 3982,11175 Z"/>
 <path fill="rgb(0,0,0)" stroke="none" d="M 4167,11175 L 4267,11275 4367,11175 4267,11075 4167,11175 Z"/>
 <path fill="none" stroke="rgb(0,0,0)" stroke-linejoin="round" d="M 4167,11175 L 4267,11275 4367,11175 4267,11075 4167,11175 Z"/>
 <path fill="rgb(0,0,0)" stroke="none" d="M 4351,11175 L 4451,11275 4551,11175 4451,11075 4351,11175 Z"/>
 <path fill="none" stroke="rgb(0,0,0)" stroke-linejoin="round" d="M 4351,11175 L 4451,11275 4551,11175 4451,11075 4351,11175 Z"/>
 <path fill="rgb(0,0,0)" stroke="none" d="M 4536,11175 L 4636,11275 4736,11175 4636,11075 4536,11175 Z"/>
 <path fill="none" stroke="rgb(0,0,0)" stroke-linejoin="round" d="M 4536,11175 L 4636,11275 4736,11175 4636,11075 4536,11175 Z"/>
 <path fill="rgb(0,0,0)" stroke="none" d="M 4720,11149 L 4820,11249 4920,11149 4820,11049 4720,11149 Z"/>
 <path fill="none" stroke="rgb(0,0,0)" stroke-linejoin="round" d="M 4720,11149 L 4820,11249 4920,11149 4820,11049 4720,11149 Z"/>
 <path fill="rgb(0,0,0)" stroke="none" d="M 4904,11136 L 5004,11236 5104,11136 5004,11036 4904,11136 Z"/>
 <path fill="none" stroke="rgb(0,0,0)" stroke-linejoin="round" d="M 4904,11136 L 5004,11236 5104,11136 5004,11036 4904,11136 Z"/>
 <path fill="rgb(0,0,0)" stroke="none" d="M 5089,11111 L 5189,11211 5289,11111 5189,11011 5089,11111 Z"/>
 <path fill="none" stroke="rgb(0,0,0)" stroke-linejoin="round" d="M 5089,11111 L 5189,11211 5289,11111 5189,11011 5089,11111 Z"/>
 <path fill="rgb(0,0,0)" stroke="none" d="M 5273,11098 L 5373,11198 5473,11098 5373,10998 5273,11098 Z"/>
 <path fill="none" stroke="rgb(0,0,0)" stroke-linejoin="round" d="M 5273,11098 L 5373,11198 5473,11098 5373,10998 5273,11098 Z"/>
 <path fill="rgb(0,0,0)" stroke="none" d="M 5458,11098 L 5558,11198 5658,11098 5558,10998 5458,11098 Z"/>
 <path fill="none" stroke="rgb(0,0,0)" stroke-linejoin="round" d="M 5458,11098 L 5558,11198 5658,11098 5558,10998 5458,11098 Z"/>
 <path fill="rgb(0,0,0)" stroke="none" d="M 5642,11098 L 5742,11198 5842,11098 5742,10998 5642,11098 Z"/>
 <path fill="none" stroke="rgb(0,0,0)" stroke-linejoin="round" d="M 5642,11098 L 5742,11198 5842,11098 5742,10998 5642,11098 Z"/>
 <path fill="rgb(0,0,0)" stroke="none" d="M 5827,11046 L 5927,11146 6027,11046 5927,10946 5827,11046 Z"/>
 <path fill="none" stroke="rgb(0,0,0)" stroke-linejoin="round" d="M 5827,11046 L 5927,11146 6027,11046 5927,10946 5827,11046 Z"/>
 <path fill="rgb(0,0,0)" stroke="none" d="M 6011,11034 L 6111,11134 6211,11034 6111,10934 6011,11034 Z"/>
 <path fill="none" stroke="rgb(0,0,0)" stroke-linejoin="round" d="M 6011,11034 L 6111,11134 6211,11034 6111,10934 6011,11034 Z"/>
 <path fill="rgb(0,0,0)" stroke="none" d="M 6196,11021 L 6296,11121 6396,11021 6296,10921 6196,11021 Z"/>
 <path fill="none" stroke="rgb(0,0,0)" stroke-linejoin="round" d="M 6196,11021 L 6296,11121 6396,11021 6296,10921 6196,11021 Z"/>
 <path fill="rgb(0,0,0)" stroke="none" d="M 6380,10995 L 6480,11095 6580,10995 6480,10895 6380,10995 Z"/>
 <path fill="none" stroke="rgb(0,0,0)" stroke-linejoin="round" d="M 6380,10995 L 6480,11095 6580,10995 6480,10895 6380,10995 Z"/>
 <path fill="rgb(0,0,0)" stroke="none" d="M 6564,10969 L 6664,11069 6764,10969 6664,10869 6564,10969 Z"/>
 <path fill="none" stroke="rgb(0,0,0)" stroke-linejoin="round" d="M 6564,10969 L 6664,11069 6764,10969 6664,10869 6564,10969 Z"/>
 <path fill="rgb(0,0,0)" stroke="none" d="M 6749,10905 L 6849,11005 6949,10905 6849,10805 6749,10905 Z"/>
 <path fill="none" stroke="rgb(0,0,0)" stroke-linejoin="round" d="M 6749,10905 L 6849,11005 6949,10905 6849,10805 6749,10905 Z"/>
 <path fill="rgb(0,0,0)" stroke="none" d="M 6933,10880 L 7033,10980 7133,10880 7033,10780 6933,10880 Z"/>
 <path fill="none" stroke="rgb(0,0,0)" stroke-linejoin="round" d="M 6933,10880 L 7033,10980 7133,10880 7033,10780 6933,10880 Z"/>
 <path fill="rgb(0,0,0)" stroke="none" d="M 7118,10777 L 7218,10877 7318,10777 7218,10677 7118,10777 Z"/>
 <path fill="none" stroke="rgb(0,0,0)" stroke-linejoin="round" d="M 7118,10777 L 7218,10877 7318,10777 7218,10677 7118,10777 Z"/>
 <path fill="rgb(0,0,0)" stroke="none" d="M 7302,10713 L 7402,10813 7501,10713 7402,10613 7302,10713 Z"/>
 <path fill="none" stroke="rgb(0,0,0)" stroke-linejoin="round" d="M 7302,10713 L 7402,10813 7501,10713 7402,10613 7302,10713 Z"/>
 <path fill="rgb(0,0,0)" stroke="none" d="M 7487,10674 L 7586,10774 7686,10674 7586,10574 7487,10674 Z"/>
 <path fill="none" stroke="rgb(0,0,0)" stroke-linejoin="round" d="M 7487,10674 L 7586,10774 7686,10674 7586,10574 7487,10674 Z"/>
 <path fill="rgb(0,0,0)" stroke="none" d="M 7670,10572 L 7770,10672 7870,10572 7770,10472 7670,10572 Z"/>
 <path fill="none" stroke="rgb(0,0,0)" stroke-linejoin="round" d="M 7670,10572 L 7770,10672 7870,10572 7770,10472 7670,10572 Z"/>
 <path fill="rgb(0,0,0)" stroke="none" d="M 7855,10443 L 7955,10543 8055,10443 7955,10343 7855,10443 Z"/>
 <path fill="none" stroke="rgb(0,0,0)" stroke-linejoin="round" d="M 7855,10443 L 7955,10543 8055,10443 7955,10343 7855,10443 Z"/>
 <path fill="rgb(0,0,0)" stroke="none" d="M 8039,10443 L 8139,10543 8239,10443 8139,10343 8039,10443 Z"/>
 <path fill="none" stroke="rgb(0,0,0)" stroke-linejoin="round" d="M 8039,10443 L 8139,10543 8239,10443 8139,10343 8039,10443 Z"/>
 <path fill="rgb(0,0,0)" stroke="none" d="M 8223,9994 L 8323,10094 8423,9994 8323,9894 8223,9994 Z"/>
 <path fill="none" stroke="rgb(0,0,0)" stroke-linejoin="round" d="M 8223,9994 L 8323,10094 8423,9994 8323,9894 8223,9994 Z"/>
 <path fill="rgb(0,0,0)" stroke="none" d="M 8408,9828 L 8508,9928 8608,9828 8508,9728 8408,9828 Z"/>
 <path fill="none" stroke="rgb(0,0,0)" stroke-linejoin="round" d="M 8408,9828 L 8508,9928 8608,9828 8508,9728 8408,9828 Z"/>
 <path fill="rgb(0,0,0)" stroke="none" d="M 8592,9417 L 8692,9517 8792,9417 8692,9317 8592,9417 Z"/>
 <path fill="none" stroke="rgb(0,0,0)" stroke-linejoin="round" d="M 8592,9417 L 8692,9517 8792,9417 8692,9317 8592,9417 Z"/>
 <path fill="rgb(0,0,0)" stroke="none" d="M 8777,9020 L 8877,9120 8977,9020 8877,8920 8777,9020 Z"/>
 <path fill="none" stroke="rgb(0,0,0)" stroke-linejoin="round" d="M 8777,9020 L 8877,9120 8977,9020 8877,8920 8777,9020 Z"/>
 <path fill="rgb(0,0,0)" stroke="none" d="M 8961,8622 L 9061,8722 9161,8622 9061,8522 8961,8622 Z"/>
 <path fill="none" stroke="rgb(0,0,0)" stroke-linejoin="round" d="M 8961,8622 L 9061,8722 9161,8622 9061,8522 8961,8622 Z"/>
 <path fill="rgb(0,0,0)" stroke="none" d="M 9146,8314 L 9246,8414 9346,8314 9246,8214 9146,8314 Z"/>
 <path fill="none" stroke="rgb(0,0,0)" stroke-linejoin="round" d="M 9146,8314 L 9246,8414 9346,8314 9246,8214 9146,8314 Z"/>
 <path fill="rgb(0,0,0)" stroke="none" d="M 9330,7968 L 9430,8068 9530,7968 9430,7868 9330,7968 Z"/>
 <path fill="none" stroke="rgb(0,0,0)" stroke-linejoin="round" d="M 9330,7968 L 9430,8068 9530,7968 9430,7868 9330,7968 Z"/>
 <path fill="rgb(0,0,0)" stroke="none" d="M 9514,7724 L 9614,7824 9714,7724 9614,7624 9514,7724 Z"/>
 <path fill="none" stroke="rgb(0,0,0)" stroke-linejoin="round" d="M 9514,7724 L 9614,7824 9714,7724 9614,7624 9514,7724 Z"/>
 <path fill="rgb(0,0,0)" stroke="none" d="M 9699,7544 L 9799,7644 9899,7544 9799,7444 9699,7544 Z"/>
 <path fill="none" stroke="rgb(0,0,0)" stroke-linejoin="round" d="M 9699,7544 L 9799,7644 9899,7544 9799,7444 9699,7544 Z"/>
 <path fill="rgb(0,0,0)" stroke="none" d="M 9883,7185 L 9983,7285 10083,7185 9983,7085 9883,7185 Z"/>
 <path fill="none" stroke="rgb(0,0,0)" stroke-linejoin="round" d="M 9883,7185 L 9983,7285 10083,7185 9983,7085 9883,7185 Z"/>
 <path fill="rgb(0,0,0)" stroke="none" d="M 10068,6711 L 10168,6811 10268,6711 10168,6611 10068,6711 Z"/>
 <path fill="none" stroke="rgb(0,0,0)" stroke-linejoin="round" d="M 10068,6711 L 10168,6811 10268,6711 10168,6611 10068,6711 Z"/>
 <path fill="rgb(0,0,0)" stroke="none" d="M 10252,6249 L 10352,6349 10452,6249 10352,6149 10252,6249 Z"/>
 <path fill="none" stroke="rgb(0,0,0)" stroke-linejoin="round" d="M 10252,6249 L 10352,6349 10452,6249 10352,6149 10252,6249 Z"/>
 <path fill="rgb(0,0,0)" stroke="none" d="M 10437,5942 L 10537,6041 10637,5942 10537,5842 10437,5942 Z"/>
 <path fill="none" stroke="rgb(0,0,0)" stroke-linejoin="round" d="M 10437,5942 L 10537,6041 10637,5942 10537,5842 10437,5942 Z"/>
 <path fill="rgb(0,0,0)" stroke="none" d="M 10621,5737 L 10721,5837 10821,5737 10721,5637 10621,5737 Z"/>
 <path fill="none" stroke="rgb(0,0,0)" stroke-linejoin="round" d="M 10621,5737 L 10721,5837 10821,5737 10721,5637 10621,5737 Z"/>
 <path fill="rgb(0,0,0)" stroke="none" d="M 10806,5416 L 10906,5516 11006,5416 10906,5316 10806,5416 Z"/>
 <path fill="none" stroke="rgb(0,0,0)" stroke-linejoin="round" d="M 10806,5416 L 10906,5516 11006,5416 10906,5316 10806,5416 Z"/>
 <path fill="rgb(0,0,0)" stroke="none" d="M 10990,5236 L 11090,5336 11190,5236 11090,5136 10990,5236 Z"/>
 <path fill="none" stroke="rgb(0,0,0)" stroke-linejoin="round" d="M 10990,5236 L 11090,5336 11190,5236 11090,5136 10990,5236 Z"/>
 <path fill="rgb(0,0,0)" stroke="none" d="M 11174,4877 L 11274,4977 11374,4877 11274,4777 11174,4877 Z"/>
 <path fill="none" stroke="rgb(0,0,0)" stroke-linejoin="round" d="M 11174,4877 L 11274,4977 11374,4877 11274,4777 11174,4877 Z"/>
 <path fill="rgb(0,0,0)" stroke="none" d="M 11359,4595 L 11459,4695 11559,4595 11459,4495 11359,4595 Z"/>
 <path fill="none" stroke="rgb(0,0,0)" stroke-linejoin="round" d="M 11359,4595 L 11459,4695 11559,4595 11459,4495 11359,4595 Z"/>
 <path fill="rgb(0,0,0)" stroke="none" d="M 11543,4223 L 11643,4323 11743,4223 11643,4123 11543,4223 Z"/>
 <path fill="none" stroke="rgb(0,0,0)" stroke-linejoin="round" d="M 11543,4223 L 11643,4323 11743,4223 11643,4123 11543,4223 Z"/>
 <path fill="rgb(0,0,0)" stroke="none" d="M 11728,3979 L 11828,4079 11928,3979 11828,3879 11728,3979 Z"/>
 <path fill="none" stroke="rgb(0,0,0)" stroke-linejoin="round" d="M 11728,3979 L 11828,4079 11928,3979 11828,3879 11728,3979 Z"/>
 <path fill="rgb(0,0,0)" stroke="none" d="M 11912,3479 L 12012,3579 12112,3479 12012,3379 11912,3479 Z"/>
 <path fill="none" stroke="rgb(0,0,0)" stroke-linejoin="round" d="M 11912,3479 L 12012,3579 12112,3479 12012,3379 11912,3479 Z"/>
 <path fill="rgb(0,0,0)" stroke="none" d="M 12097,3248 L 12197,3348 12297,3248 12197,3148 12097,3248 Z"/>
 <path fill="none" stroke="rgb(0,0,0)" stroke-linejoin="round" d="M 12097,3248 L 12197,3348 12297,3248 12197,3148 12097,3248 Z"/>
 <path fill="rgb(0,0,0)" stroke="none" d="M 12281,3017 L 12381,3117 12481,3017 12381,2917 12281,3017 Z"/>
 <path fill="none" stroke="rgb(0,0,0)" stroke-linejoin="round" d="M 12281,3017 L 12381,3117 12481,3017 12381,2917 12281,3017 Z"/>
 <path fill="rgb(0,0,0)" stroke="none" d="M 12465,2940 L 12565,3040 12665,2940 12565,2840 12465,2940 Z"/>
 <path fill="none" stroke="rgb(0,0,0)" stroke-linejoin="round" d="M 12465,2940 L 12565,3040 12665,2940 12565,2840 12465,2940 Z"/>
 <path fill="rgb(0,0,0)" stroke="none" d="M 12650,2773 L 12750,2873 12850,2773 12750,2673 12650,2773 Z"/>
 <path fill="none" stroke="rgb(0,0,0)" stroke-linejoin="round" d="M 12650,2773 L 12750,2873 12850,2773 12750,2673 12650,2773 Z"/>
 <path fill="rgb(0,0,0)" stroke="none" d="M 12834,2453 L 12934,2553 13034,2453 12934,2353 12834,2453 Z"/>
 <path fill="none" stroke="rgb(0,0,0)" stroke-linejoin="round" d="M 12834,2453 L 12934,2553 13034,2453 12934,2353 12834,2453 Z"/>
 <path fill="rgb(0,0,0)" stroke="none" d="M 13019,2273 L 13119,2373 13219,2273 13119,2173 13019,2273 Z"/>
 <path fill="none" stroke="rgb(0,0,0)" stroke-linejoin="round" d="M 13019,2273 L 13119,2373 13219,2273 13119,2173 13019,2273 Z"/>
 <path fill="rgb(0,0,0)" stroke="none" d="M 13203,2093 L 13303,2193 13403,2093 13303,1993 13203,2093 Z"/>
 <path fill="none" stroke="rgb(0,0,0)" stroke-linejoin="round" d="M 13203,2093 L 13303,2193 13403,2093 13303,1993 13203,2093 Z"/>
 <path fill="rgb(0,0,0)" stroke="none" d="M 13388,2055 L 13488,2155 13588,2055 13488,1955 13388,2055 Z"/>
 <path fill="none" stroke="rgb(0,0,0)" stroke-linejoin="round" d="M 13388,2055 L 13488,2155 13588,2055 13488,1955 13388,2055 Z"/>
 <path fill="rgb(0,0,0)" stroke="none" d="M 13572,1875 L 13672,1975 13772,1875 13672,1775 13572,1875 Z"/>
 <path fill="none" stroke="rgb(0,0,0)" stroke-linejoin="round" d="M 13572,1875 L 13672,1975 13772,1875 13672,1775 13572,1875 Z"/>
 <path fill="rgb(0,0,0)" stroke="none" d="M 13757,1760 L 13857,1860 13957,1760 13857,1660 13757,1760 Z"/>
 <path fill="none" stroke="rgb(0,0,0)" stroke-linejoin="round" d="M 13757,1760 L 13857,1860 13957,1760 13857,1660 13757,1760 Z"/>
 <path fill="rgb(0,0,0)" stroke="none" d="M 13941,1747 L 14041,1847 14141,1747 14041,1647 13941,1747 Z"/>
 <path fill="none" stroke="rgb(0,0,0)" stroke-linejoin="round" d="M 13941,1747 L 14041,1847 14141,1747 14041,1647 13941,1747 Z"/>
 <path fill="rgb(0,0,0)" stroke="none" d="M 14125,1709 L 14225,1809 14325,1709 14225,1609 14125,1709 Z"/>
 <path fill="none" stroke="rgb(0,0,0)" stroke-linejoin="round" d="M 14125,1709 L 14225,1809 14325,1709 14225,1609 14125,1709 Z"/>
 <path fill="rgb(0,0,0)" stroke="none" d="M 14310,1580 L 14410,1680 14510,1580 14410,1480 14310,1580 Z"/>
 <path fill="none" stroke="rgb(0,0,0)" stroke-linejoin="round" d="M 14310,1580 L 14410,1680 14510,1580 14410,1480 14310,1580 Z"/>
 <path fill="rgb(0,0,0)" stroke="none" d="M 14494,1426 L 14594,1526 14694,1426 14594,1326 14494,1426 Z"/>
 <path fill="none" stroke="rgb(0,0,0)" stroke-linejoin="round" d="M 14494,1426 L 14594,1526 14694,1426 14594,1326 14494,1426 Z"/>
 <path fill="none" stroke="rgb(255,66,14)" stroke-width="50" stroke-linejoin="round" d="M 6296,11158 L 6480,11158 6664,11158 6849,11129 7033,11042 7218,11013 7402,10925 7586,10780 7770,10692 7955,10576 8139,10547 8323,10430 8508,10401 8692,10110 8877,9614 9061,9440 9246,9323 9430,9207 9614,9207 9799,8944 9983,8711 10168,8507 10352,8333 10537,8216 10721,8071 10906,7983 11090,7779 11274,7692 11459,7342 11643,7197 11828,6993 12012,6847 12197,6730 12381,6585 12565,6381 12750,6323 12934,6148 13119,6002 13303,5887 13488,5858 13672,5770 13857,5712 14041,5625 14225,5625 14410,5595 14594,5566"/>
 <path fill="rgb(255,66,14)" stroke="none" d="M 6196,11158 L 6296,11258 6396,11158 6296,11058 6196,11158 Z"/>
 <path fill="none" stroke="rgb(255,66,14)" stroke-linejoin="round" d="M 6196,11158 L 6296,11258 6396,11158 6296,11058 6196,11158 Z"/>
 <path fill="rgb(255,66,14)" stroke="none" d="M 6380,11158 L 6480,11258 6580,11158 6480,11058 6380,11158 Z"/>
 <path fill="none" stroke="rgb(255,66,14)" stroke-linejoin="round" d="M 6380,11158 L 6480,11258 6580,11158 6480,11058 6380,11158 Z"/>
 <path fill="rgb(255,66,14)" stroke="none" d="M 6564,11158 L 6664,11258 6764,11158 6664,11058 6564,11158 Z"/>
 <path fill="none" stroke="rgb(255,66,14)" stroke-linejoin="round" d="M 6564,11158 L 6664,11258 6764,11158 6664,11058 6564,11158 Z"/>
 <path fill="rgb(255,66,14)" stroke="none" d="M 6749,11129 L 6849,11229 6949,11129 6849,11029 6749,11129 Z"/>
 <path fill="none" stroke="rgb(255,66,14)" stroke-linejoin="round" d="M 6749,11129 L 6849,11229 6949,11129 6849,11029 6749,11129 Z"/>
 <path fill="rgb(255,66,14)" stroke="none" d="M 6933,11042 L 7033,11142 7133,11042 7033,10942 6933,11042 Z"/>
 <path fill="none" stroke="rgb(255,66,14)" stroke-linejoin="round" d="M 6933,11042 L 7033,11142 7133,11042 7033,10942 6933,11042 Z"/>
 <path fill="rgb(255,66,14)" stroke="none" d="M 7118,11013 L 7218,11113 7318,11013 7218,10913 7118,11013 Z"/>
 <path fill="none" stroke="rgb(255,66,14)" stroke-linejoin="round" d="M 7118,11013 L 7218,11113 7318,11013 7218,10913 7118,11013 Z"/>
 <path fill="rgb(255,66,14)" stroke="none" d="M 7302,10925 L 7402,11025 7501,10925 7402,10825 7302,10925 Z"/>
 <path fill="none" stroke="rgb(255,66,14)" stroke-linejoin="round" d="M 7302,10925 L 7402,11025 7501,10925 7402,10825 7302,10925 Z"/>
 <path fill="rgb(255,66,14)" stroke="none" d="M 7487,10780 L 7586,10880 7686,10780 7586,10680 7487,10780 Z"/>
 <path fill="none" stroke="rgb(255,66,14)" stroke-linejoin="round" d="M 7487,10780 L 7586,10880 7686,10780 7586,10680 7487,10780 Z"/>
 <path fill="rgb(255,66,14)" stroke="none" d="M 7670,10692 L 7770,10792 7870,10692 7770,10592 7670,10692 Z"/>
 <path fill="none" stroke="rgb(255,66,14)" stroke-linejoin="round" d="M 7670,10692 L 7770,10792 7870,10692 7770,10592 7670,10692 Z"/>
 <path fill="rgb(255,66,14)" stroke="none" d="M 7855,10576 L 7955,10676 8055,10576 7955,10476 7855,10576 Z"/>
 <path fill="none" stroke="rgb(255,66,14)" stroke-linejoin="round" d="M 7855,10576 L 7955,10676 8055,10576 7955,10476 7855,10576 Z"/>
 <path fill="rgb(255,66,14)" stroke="none" d="M 8039,10547 L 8139,10647 8239,10547 8139,10447 8039,10547 Z"/>
 <path fill="none" stroke="rgb(255,66,14)" stroke-linejoin="round" d="M 8039,10547 L 8139,10647 8239,10547 8139,10447 8039,10547 Z"/>
 <path fill="rgb(255,66,14)" stroke="none" d="M 8223,10430 L 8323,10530 8423,10430 8323,10330 8223,10430 Z"/>
 <path fill="none" stroke="rgb(255,66,14)" stroke-linejoin="round" d="M 8223,10430 L 8323,10530 8423,10430 8323,10330 8223,10430 Z"/>
 <path fill="rgb(255,66,14)" stroke="none" d="M 8408,10401 L 8508,10501 8608,10401 8508,10301 8408,10401 Z"/>
 <path fill="none" stroke="rgb(255,66,14)" stroke-linejoin="round" d="M 8408,10401 L 8508,10501 8608,10401 8508,10301 8408,10401 Z"/>
 <path fill="rgb(255,66,14)" stroke="none" d="M 8592,10110 L 8692,10210 8792,10110 8692,10010 8592,10110 Z"/>
 <path fill="none" stroke="rgb(255,66,14)" stroke-linejoin="round" d="M 8592,10110 L 8692,10210 8792,10110 8692,10010 8592,10110 Z"/>
 <path fill="rgb(255,66,14)" stroke="none" d="M 8777,9614 L 8877,9714 8977,9614 8877,9514 8777,9614 Z"/>
 <path fill="none" stroke="rgb(255,66,14)" stroke-linejoin="round" d="M 8777,9614 L 8877,9714 8977,9614 8877,9514 8777,9614 Z"/>
 <path fill="rgb(255,66,14)" stroke="none" d="M 8961,9440 L 9061,9540 9161,9440 9061,9340 8961,9440 Z"/>
 <path fill="none" stroke="rgb(255,66,14)" stroke-linejoin="round" d="M 8961,9440 L 9061,9540 9161,9440 9061,9340 8961,9440 Z"/>
 <path fill="rgb(255,66,14)" stroke="none" d="M 9146,9323 L 9246,9423 9346,9323 9246,9223 9146,9323 Z"/>
 <path fill="none" stroke="rgb(255,66,14)" stroke-linejoin="round" d="M 9146,9323 L 9246,9423 9346,9323 9246,9223 9146,9323 Z"/>
 <path fill="rgb(255,66,14)" stroke="none" d="M 9330,9207 L 9430,9307 9530,9207 9430,9107 9330,9207 Z"/>
 <path fill="none" stroke="rgb(255,66,14)" stroke-linejoin="round" d="M 9330,9207 L 9430,9307 9530,9207 9430,9107 9330,9207 Z"/>
 <path fill="rgb(255,66,14)" stroke="none" d="M 9514,9207 L 9614,9307 9714,9207 9614,9107 9514,9207 Z"/>
 <path fill="none" stroke="rgb(255,66,14)" stroke-linejoin="round" d="M 9514,9207 L 9614,9307 9714,9207 9614,9107 9514,9207 Z"/>
 <path fill="rgb(255,66,14)" stroke="none" d="M 9699,8944 L 9799,9044 9899,8944 9799,8844 9699,8944 Z"/>
 <path fill="none" stroke="rgb(255,66,14)" stroke-linejoin="round" d="M 9699,8944 L 9799,9044 9899,8944 9799,8844 9699,8944 Z"/>
 <path fill="rgb(255,66,14)" stroke="none" d="M 9883,8711 L 9983,8811 10083,8711 9983,8611 9883,8711 Z"/>
 <path fill="none" stroke="rgb(255,66,14)" stroke-linejoin="round" d="M 9883,8711 L 9983,8811 10083,8711 9983,8611 9883,8711 Z"/>
 <path fill="rgb(255,66,14)" stroke="none" d="M 10068,8507 L 10168,8607 10268,8507 10168,8407 10068,8507 Z"/>
 <path fill="none" stroke="rgb(255,66,14)" stroke-linejoin="round" d="M 10068,8507 L 10168,8607 10268,8507 10168,8407 10068,8507 Z"/>
 <path fill="rgb(255,66,14)" stroke="none" d="M 10252,8333 L 10352,8433 10452,8333 10352,8233 10252,8333 Z"/>
 <path fill="none" stroke="rgb(255,66,14)" stroke-linejoin="round" d="M 10252,8333 L 10352,8433 10452,8333 10352,8233 10252,8333 Z"/>
 <path fill="rgb(255,66,14)" stroke="none" d="M 10437,8216 L 10537,8316 10637,8216 10537,8116 10437,8216 Z"/>
 <path fill="none" stroke="rgb(255,66,14)" stroke-linejoin="round" d="M 10437,8216 L 10537,8316 10637,8216 10537,8116 10437,8216 Z"/>
 <path fill="rgb(255,66,14)" stroke="none" d="M 10621,8071 L 10721,8171 10821,8071 10721,7971 10621,8071 Z"/>
 <path fill="none" stroke="rgb(255,66,14)" stroke-linejoin="round" d="M 10621,8071 L 10721,8171 10821,8071 10721,7971 10621,8071 Z"/>
 <path fill="rgb(255,66,14)" stroke="none" d="M 10806,7983 L 10906,8083 11006,7983 10906,7883 10806,7983 Z"/>
 <path fill="none" stroke="rgb(255,66,14)" stroke-linejoin="round" d="M 10806,7983 L 10906,8083 11006,7983 10906,7883 10806,7983 Z"/>
 <path fill="rgb(255,66,14)" stroke="none" d="M 10990,7779 L 11090,7879 11190,7779 11090,7679 10990,7779 Z"/>
 <path fill="none" stroke="rgb(255,66,14)" stroke-linejoin="round" d="M 10990,7779 L 11090,7879 11190,7779 11090,7679 10990,7779 Z"/>
 <path fill="rgb(255,66,14)" stroke="none" d="M 11174,7692 L 11274,7792 11374,7692 11274,7592 11174,7692 Z"/>
 <path fill="none" stroke="rgb(255,66,14)" stroke-linejoin="round" d="M 11174,7692 L 11274,7792 11374,7692 11274,7592 11174,7692 Z"/>
 <path fill="rgb(255,66,14)" stroke="none" d="M 11359,7342 L 11459,7442 11559,7342 11459,7242 11359,7342 Z"/>
 <path fill="none" stroke="rgb(255,66,14)" stroke-linejoin="round" d="M 11359,7342 L 11459,7442 11559,7342 11459,7242 11359,7342 Z"/>
 <path fill="rgb(255,66,14)" stroke="none" d="M 11543,7197 L 11643,7297 11743,7197 11643,7097 11543,7197 Z"/>
 <path fill="none" stroke="rgb(255,66,14)" stroke-linejoin="round" d="M 11543,7197 L 11643,7297 11743,7197 11643,7097 11543,7197 Z"/>
 <path fill="rgb(255,66,14)" stroke="none" d="M 11728,6993 L 11828,7093 11928,6993 11828,6893 11728,6993 Z"/>
 <path fill="none" stroke="rgb(255,66,14)" stroke-linejoin="round" d="M 11728,6993 L 11828,7093 11928,6993 11828,6893 11728,6993 Z"/>
 <path fill="rgb(255,66,14)" stroke="none" d="M 11912,6847 L 12012,6947 12112,6847 12012,6747 11912,6847 Z"/>
 <path fill="none" stroke="rgb(255,66,14)" stroke-linejoin="round" d="M 11912,6847 L 12012,6947 12112,6847 12012,6747 11912,6847 Z"/>
 <path fill="rgb(255,66,14)" stroke="none" d="M 12097,6730 L 12197,6830 12297,6730 12197,6630 12097,6730 Z"/>
 <path fill="none" stroke="rgb(255,66,14)" stroke-linejoin="round" d="M 12097,6730 L 12197,6830 12297,6730 12197,6630 12097,6730 Z"/>
 <path fill="rgb(255,66,14)" stroke="none" d="M 12281,6585 L 12381,6685 12481,6585 12381,6485 12281,6585 Z"/>
 <path fill="none" stroke="rgb(255,66,14)" stroke-linejoin="round" d="M 12281,6585 L 12381,6685 12481,6585 12381,6485 12281,6585 Z"/>
 <path fill="rgb(255,66,14)" stroke="none" d="M 12465,6381 L 12565,6481 12665,6381 12565,6281 12465,6381 Z"/>
 <path fill="none" stroke="rgb(255,66,14)" stroke-linejoin="round" d="M 12465,6381 L 12565,6481 12665,6381 12565,6281 12465,6381 Z"/>
 <path fill="rgb(255,66,14)" stroke="none" d="M 12650,6323 L 12750,6423 12850,6323 12750,6223 12650,6323 Z"/>
 <path fill="none" stroke="rgb(255,66,14)" stroke-linejoin="round" d="M 12650,6323 L 12750,6423 12850,6323 12750,6223 12650,6323 Z"/>
 <path fill="rgb(255,66,14)" stroke="none" d="M 12834,6148 L 12934,6248 13034,6148 12934,6048 12834,6148 Z"/>
 <path fill="none" stroke="rgb(255,66,14)" stroke-linejoin="round" d="M 12834,6148 L 12934,6248 13034,6148 12934,6048 12834,6148 Z"/>
 <path fill="rgb(255,66,14)" stroke="none" d="M 13019,6002 L 13119,6102 13219,6002 13119,5903 13019,6002 Z"/>
 <path fill="none" stroke="rgb(255,66,14)" stroke-linejoin="round" d="M 13019,6002 L 13119,6102 13219,6002 13119,5903 13019,6002 Z"/>
 <path fill="rgb(255,66,14)" stroke="none" d="M 13203,5887 L 13303,5987 13403,5887 13303,5787 13203,5887 Z"/>
 <path fill="none" stroke="rgb(255,66,14)" stroke-linejoin="round" d="M 13203,5887 L 13303,5987 13403,5887 13303,5787 13203,5887 Z"/>
 <path fill="rgb(255,66,14)" stroke="none" d="M 13388,5858 L 13488,5958 13588,5858 13488,5758 13388,5858 Z"/>
 <path fill="none" stroke="rgb(255,66,14)" stroke-linejoin="round" d="M 13388,5858 L 13488,5958 13588,5858 13488,5758 13388,5858 Z"/>
 <path fill="rgb(255,66,14)" stroke="none" d="M 13572,5770 L 13672,5870 13772,5770 13672,5670 13572,5770 Z"/>
 <path fill="none" stroke="rgb(255,66,14)" stroke-linejoin="round" d="M 13572,5770 L 13672,5870 13772,5770 13672,5670 13572,5770 Z"/>
 <path fill="rgb(255,66,14)" stroke="none" d="M 13757,5712 L 13857,5812 13957,5712 13857,5612 13757,5712 Z"/>
 <path fill="none" stroke="rgb(255,66,14)" stroke-linejoin="round" d="M 13757,5712 L 13857,5812 13957,5712 13857,5612 13757,5712 Z"/>
 <path fill="rgb(255,66,14)" stroke="none" d="M 13941,5625 L 14041,5725 14141,5625 14041,5525 13941,5625 Z"/>
 <path fill="none" stroke="rgb(255,66,14)" stroke-linejoin="round" d="M 13941,5625 L 14041,5725 14141,5625 14041,5525 13941,5625 Z"/>
 <path fill="rgb(255,66,14)" stroke="none" d="M 14125,5625 L 14225,5725 14325,5625 14225,5525 14125,5625 Z"/>
 <path fill="none" stroke="rgb(255,66,14)" stroke-linejoin="round" d="M 14125,5625 L 14225,5725 14325,5625 14225,5525 14125,5625 Z"/>
 <path fill="rgb(255,66,14)" stroke="none" d="M 14310,5595 L 14410,5695 14510,5595 14410,5495 14310,5595 Z"/>
 <path fill="none" stroke="rgb(255,66,14)" stroke-linejoin="round" d="M 14310,5595 L 14410,5695 14510,5595 14410,5495 14310,5595 Z"/>
 <path fill="rgb(255,66,14)" stroke="none" d="M 14494,5566 L 14594,5666 14694,5566 14594,5466 14494,5566 Z"/>
 <path fill="none" stroke="rgb(255,66,14)" stroke-linejoin="round" d="M 14494,5566 L 14594,5666 14694,5566 14594,5466 14494,5566 Z"/>
 <path fill="none" stroke="rgb(255,211,32)" stroke-width="50" stroke-linejoin="round" d="M 3713,11184 L 3898,11184 4082,11184 4267,11184 4451,11184 4636,11184 4820,11184 5004,11184 5189,11184 5373,11184 5558,11172 5742,11168 5927,11168 6111,11138 6296,11103 6480,11095 6664,11061 6849,10996 7033,10923 7218,10827 7402,10747 7586,10639 7770,10547 7955,10428 8139,10290 8323,10164 8508,9999 8692,9888 8877,9673 9061,9489 9246,9228 9430,8998 9614,8837 9799,8745 9983,8611 10168,8412 10352,8247 10537,8136 10721,8051 10906,7975 11090,7829 11274,7710 11459,7564 11643,7461 11828,7357 12012,7193 12197,7104 12381,7051 12565,7012 12750,6947 12934,6878 13119,6790 13303,6694 13488,6641 13672,6629 13857,6587 14041,6518 14225,6449 14410,6414 14594,6364"/>
 <path fill="rgb(255,211,32)" stroke="none" d="M 3613,11084 L 3713,11284 3813,11084 3613,11084 Z"/>
 <path fill="none" stroke="rgb(255,211,32)" stroke-linejoin="round" d="M 3613,11084 L 3713,11284 3813,11084 3613,11084 Z"/>
 <path fill="rgb(255,211,32)" stroke="none" d="M 3798,11084 L 3898,11284 3998,11084 3798,11084 Z"/>
 <path fill="none" stroke="rgb(255,211,32)" stroke-linejoin="round" d="M 3798,11084 L 3898,11284 3998,11084 3798,11084 Z"/>
 <path fill="rgb(255,211,32)" stroke="none" d="M 3982,11084 L 4082,11284 4182,11084 3982,11084 Z"/>
 <path fill="none" stroke="rgb(255,211,32)" stroke-linejoin="round" d="M 3982,11084 L 4082,11284 4182,11084 3982,11084 Z"/>
 <path fill="rgb(255,211,32)" stroke="none" d="M 4167,11084 L 4267,11284 4367,11084 4167,11084 Z"/>
 <path fill="none" stroke="rgb(255,211,32)" stroke-linejoin="round" d="M 4167,11084 L 4267,11284 4367,11084 4167,11084 Z"/>
 <path fill="rgb(255,211,32)" stroke="none" d="M 4351,11084 L 4451,11284 4551,11084 4351,11084 Z"/>
 <path fill="none" stroke="rgb(255,211,32)" stroke-linejoin="round" d="M 4351,11084 L 4451,11284 4551,11084 4351,11084 Z"/>
 <path fill="rgb(255,211,32)" stroke="none" d="M 4536,11084 L 4636,11284 4736,11084 4536,11084 Z"/>
 <path fill="none" stroke="rgb(255,211,32)" stroke-linejoin="round" d="M 4536,11084 L 4636,11284 4736,11084 4536,11084 Z"/>
 <path fill="rgb(255,211,32)" stroke="none" d="M 4720,11084 L 4820,11284 4920,11084 4720,11084 Z"/>
 <path fill="none" stroke="rgb(255,211,32)" stroke-linejoin="round" d="M 4720,11084 L 4820,11284 4920,11084 4720,11084 Z"/>
 <path fill="rgb(255,211,32)" stroke="none" d="M 4904,11084 L 5004,11284 5104,11084 4904,11084 Z"/>
 <path fill="none" stroke="rgb(255,211,32)" stroke-linejoin="round" d="M 4904,11084 L 5004,11284 5104,11084 4904,11084 Z"/>
 <path fill="rgb(255,211,32)" stroke="none" d="M 5089,11084 L 5189,11284 5289,11084 5089,11084 Z"/>
 <path fill="none" stroke="rgb(255,211,32)" stroke-linejoin="round" d="M 5089,11084 L 5189,11284 5289,11084 5089,11084 Z"/>
 <path fill="rgb(255,211,32)" stroke="none" d="M 5273,11084 L 5373,11284 5473,11084 5273,11084 Z"/>
 <path fill="none" stroke="rgb(255,211,32)" stroke-linejoin="round" d="M 5273,11084 L 5373,11284 5473,11084 5273,11084 Z"/>
 <path fill="rgb(255,211,32)" stroke="none" d="M 5458,11072 L 5558,11272 5658,11072 5458,11072 Z"/>
 <path fill="none" stroke="rgb(255,211,32)" stroke-linejoin="round" d="M 5458,11072 L 5558,11272 5658,11072 5458,11072 Z"/>
 <path fill="rgb(255,211,32)" stroke="none" d="M 5642,11068 L 5742,11268 5842,11068 5642,11068 Z"/>
 <path fill="none" stroke="rgb(255,211,32)" stroke-linejoin="round" d="M 5642,11068 L 5742,11268 5842,11068 5642,11068 Z"/>
 <path fill="rgb(255,211,32)" stroke="none" d="M 5827,11068 L 5927,11268 6027,11068 5827,11068 Z"/>
 <path fill="none" stroke="rgb(255,211,32)" stroke-linejoin="round" d="M 5827,11068 L 5927,11268 6027,11068 5827,11068 Z"/>
 <path fill="rgb(255,211,32)" stroke="none" d="M 6011,11038 L 6111,11238 6211,11038 6011,11038 Z"/>
 <path fill="none" stroke="rgb(255,211,32)" stroke-linejoin="round" d="M 6011,11038 L 6111,11238 6211,11038 6011,11038 Z"/>
 <path fill="rgb(255,211,32)" stroke="none" d="M 6196,11003 L 6296,11203 6396,11003 6196,11003 Z"/>
 <path fill="none" stroke="rgb(255,211,32)" stroke-linejoin="round" d="M 6196,11003 L 6296,11203 6396,11003 6196,11003 Z"/>
 <path fill="rgb(255,211,32)" stroke="none" d="M 6380,10995 L 6480,11195 6580,10995 6380,10995 Z"/>
 <path fill="none" stroke="rgb(255,211,32)" stroke-linejoin="round" d="M 6380,10995 L 6480,11195 6580,10995 6380,10995 Z"/>
 <path fill="rgb(255,211,32)" stroke="none" d="M 6564,10961 L 6664,11161 6764,10961 6564,10961 Z"/>
 <path fill="none" stroke="rgb(255,211,32)" stroke-linejoin="round" d="M 6564,10961 L 6664,11161 6764,10961 6564,10961 Z"/>
 <path fill="rgb(255,211,32)" stroke="none" d="M 6749,10896 L 6849,11096 6949,10896 6749,10896 Z"/>
 <path fill="none" stroke="rgb(255,211,32)" stroke-linejoin="round" d="M 6749,10896 L 6849,11096 6949,10896 6749,10896 Z"/>
 <path fill="rgb(255,211,32)" stroke="none" d="M 6933,10823 L 7033,11023 7133,10823 6933,10823 Z"/>
 <path fill="none" stroke="rgb(255,211,32)" stroke-linejoin="round" d="M 6933,10823 L 7033,11023 7133,10823 6933,10823 Z"/>
 <path fill="rgb(255,211,32)" stroke="none" d="M 7118,10727 L 7218,10927 7318,10727 7118,10727 Z"/>
 <path fill="none" stroke="rgb(255,211,32)" stroke-linejoin="round" d="M 7118,10727 L 7218,10927 7318,10727 7118,10727 Z"/>
 <path fill="rgb(255,211,32)" stroke="none" d="M 7302,10647 L 7402,10847 7501,10647 7302,10647 Z"/>
 <path fill="none" stroke="rgb(255,211,32)" stroke-linejoin="round" d="M 7302,10647 L 7402,10847 7501,10647 7302,10647 Z"/>
 <path fill="rgb(255,211,32)" stroke="none" d="M 7487,10539 L 7586,10739 7686,10539 7487,10539 Z"/>
 <path fill="none" stroke="rgb(255,211,32)" stroke-linejoin="round" d="M 7487,10539 L 7586,10739 7686,10539 7487,10539 Z"/>
 <path fill="rgb(255,211,32)" stroke="none" d="M 7670,10447 L 7770,10647 7870,10447 7670,10447 Z"/>
 <path fill="none" stroke="rgb(255,211,32)" stroke-linejoin="round" d="M 7670,10447 L 7770,10647 7870,10447 7670,10447 Z"/>
 <path fill="rgb(255,211,32)" stroke="none" d="M 7855,10328 L 7955,10528 8055,10328 7855,10328 Z"/>
 <path fill="none" stroke="rgb(255,211,32)" stroke-linejoin="round" d="M 7855,10328 L 7955,10528 8055,10328 7855,10328 Z"/>
 <path fill="rgb(255,211,32)" stroke="none" d="M 8039,10190 L 8139,10390 8239,10190 8039,10190 Z"/>
 <path fill="none" stroke="rgb(255,211,32)" stroke-linejoin="round" d="M 8039,10190 L 8139,10390 8239,10190 8039,10190 Z"/>
 <path fill="rgb(255,211,32)" stroke="none" d="M 8223,10064 L 8323,10264 8423,10064 8223,10064 Z"/>
 <path fill="none" stroke="rgb(255,211,32)" stroke-linejoin="round" d="M 8223,10064 L 8323,10264 8423,10064 8223,10064 Z"/>
 <path fill="rgb(255,211,32)" stroke="none" d="M 8408,9899 L 8508,10099 8608,9899 8408,9899 Z"/>
 <path fill="none" stroke="rgb(255,211,32)" stroke-linejoin="round" d="M 8408,9899 L 8508,10099 8608,9899 8408,9899 Z"/>
 <path fill="rgb(255,211,32)" stroke="none" d="M 8592,9788 L 8692,9988 8792,9788 8592,9788 Z"/>
 <path fill="none" stroke="rgb(255,211,32)" stroke-linejoin="round" d="M 8592,9788 L 8692,9988 8792,9788 8592,9788 Z"/>
 <path fill="rgb(255,211,32)" stroke="none" d="M 8777,9573 L 8877,9773 8977,9573 8777,9573 Z"/>
 <path fill="none" stroke="rgb(255,211,32)" stroke-linejoin="round" d="M 8777,9573 L 8877,9773 8977,9573 8777,9573 Z"/>
 <path fill="rgb(255,211,32)" stroke="none" d="M 8961,9389 L 9061,9589 9161,9389 8961,9389 Z"/>
 <path fill="none" stroke="rgb(255,211,32)" stroke-linejoin="round" d="M 8961,9389 L 9061,9589 9161,9389 8961,9389 Z"/>
 <path fill="rgb(255,211,32)" stroke="none" d="M 9146,9128 L 9246,9328 9346,9128 9146,9128 Z"/>
 <path fill="none" stroke="rgb(255,211,32)" stroke-linejoin="round" d="M 9146,9128 L 9246,9328 9346,9128 9146,9128 Z"/>
 <path fill="rgb(255,211,32)" stroke="none" d="M 9330,8898 L 9430,9098 9530,8898 9330,8898 Z"/>
 <path fill="none" stroke="rgb(255,211,32)" stroke-linejoin="round" d="M 9330,8898 L 9430,9098 9530,8898 9330,8898 Z"/>
 <path fill="rgb(255,211,32)" stroke="none" d="M 9514,8737 L 9614,8937 9714,8737 9514,8737 Z"/>
 <path fill="none" stroke="rgb(255,211,32)" stroke-linejoin="round" d="M 9514,8737 L 9614,8937 9714,8737 9514,8737 Z"/>
 <path fill="rgb(255,211,32)" stroke="none" d="M 9699,8645 L 9799,8845 9899,8645 9699,8645 Z"/>
 <path fill="none" stroke="rgb(255,211,32)" stroke-linejoin="round" d="M 9699,8645 L 9799,8845 9899,8645 9699,8645 Z"/>
 <path fill="rgb(255,211,32)" stroke="none" d="M 9883,8511 L 9983,8711 10083,8511 9883,8511 Z"/>
 <path fill="none" stroke="rgb(255,211,32)" stroke-linejoin="round" d="M 9883,8511 L 9983,8711 10083,8511 9883,8511 Z"/>
 <path fill="rgb(255,211,32)" stroke="none" d="M 10068,8312 L 10168,8512 10268,8312 10068,8312 Z"/>
 <path fill="none" stroke="rgb(255,211,32)" stroke-linejoin="round" d="M 10068,8312 L 10168,8512 10268,8312 10068,8312 Z"/>
 <path fill="rgb(255,211,32)" stroke="none" d="M 10252,8147 L 10352,8347 10452,8147 10252,8147 Z"/>
 <path fill="none" stroke="rgb(255,211,32)" stroke-linejoin="round" d="M 10252,8147 L 10352,8347 10452,8147 10252,8147 Z"/>
 <path fill="rgb(255,211,32)" stroke="none" d="M 10437,8036 L 10537,8236 10637,8036 10437,8036 Z"/>
 <path fill="none" stroke="rgb(255,211,32)" stroke-linejoin="round" d="M 10437,8036 L 10537,8236 10637,8036 10437,8036 Z"/>
 <path fill="rgb(255,211,32)" stroke="none" d="M 10621,7951 L 10721,8151 10821,7951 10621,7951 Z"/>
 <path fill="none" stroke="rgb(255,211,32)" stroke-linejoin="round" d="M 10621,7951 L 10721,8151 10821,7951 10621,7951 Z"/>
 <path fill="rgb(255,211,32)" stroke="none" d="M 10806,7875 L 10906,8075 11006,7875 10806,7875 Z"/>
 <path fill="none" stroke="rgb(255,211,32)" stroke-linejoin="round" d="M 10806,7875 L 10906,8075 11006,7875 10806,7875 Z"/>
 <path fill="rgb(255,211,32)" stroke="none" d="M 10990,7729 L 11090,7929 11190,7729 10990,7729 Z"/>
 <path fill="none" stroke="rgb(255,211,32)" stroke-linejoin="round" d="M 10990,7729 L 11090,7929 11190,7729 10990,7729 Z"/>
 <path fill="rgb(255,211,32)" stroke="none" d="M 11174,7610 L 11274,7810 11374,7610 11174,7610 Z"/>
 <path fill="none" stroke="rgb(255,211,32)" stroke-linejoin="round" d="M 11174,7610 L 11274,7810 11374,7610 11174,7610 Z"/>
 <path fill="rgb(255,211,32)" stroke="none" d="M 11359,7464 L 11459,7664 11559,7464 11359,7464 Z"/>
 <path fill="none" stroke="rgb(255,211,32)" stroke-linejoin="round" d="M 11359,7464 L 11459,7664 11559,7464 11359,7464 Z"/>
 <path fill="rgb(255,211,32)" stroke="none" d="M 11543,7361 L 11643,7561 11743,7361 11543,7361 Z"/>
 <path fill="none" stroke="rgb(255,211,32)" stroke-linejoin="round" d="M 11543,7361 L 11643,7561 11743,7361 11543,7361 Z"/>
 <path fill="rgb(255,211,32)" stroke="none" d="M 11728,7257 L 11828,7457 11928,7257 11728,7257 Z"/>
 <path fill="none" stroke="rgb(255,211,32)" stroke-linejoin="round" d="M 11728,7257 L 11828,7457 11928,7257 11728,7257 Z"/>
 <path fill="rgb(255,211,32)" stroke="none" d="M 11912,7093 L 12012,7293 12112,7093 11912,7093 Z"/>
 <path fill="none" stroke="rgb(255,211,32)" stroke-linejoin="round" d="M 11912,7093 L 12012,7293 12112,7093 11912,7093 Z"/>
 <path fill="rgb(255,211,32)" stroke="none" d="M 12097,7004 L 12197,7204 12297,7004 12097,7004 Z"/>
 <path fill="none" stroke="rgb(255,211,32)" stroke-linejoin="round" d="M 12097,7004 L 12197,7204 12297,7004 12097,7004 Z"/>
 <path fill="rgb(255,211,32)" stroke="none" d="M 12281,6951 L 12381,7151 12481,6951 12281,6951 Z"/>
 <path fill="none" stroke="rgb(255,211,32)" stroke-linejoin="round" d="M 12281,6951 L 12381,7151 12481,6951 12281,6951 Z"/>
 <path fill="rgb(255,211,32)" stroke="none" d="M 12465,6912 L 12565,7112 12665,6912 12465,6912 Z"/>
 <path fill="none" stroke="rgb(255,211,32)" stroke-linejoin="round" d="M 12465,6912 L 12565,7112 12665,6912 12465,6912 Z"/>
 <path fill="rgb(255,211,32)" stroke="none" d="M 12650,6847 L 12750,7047 12850,6847 12650,6847 Z"/>
 <path fill="none" stroke="rgb(255,211,32)" stroke-linejoin="round" d="M 12650,6847 L 12750,7047 12850,6847 12650,6847 Z"/>
 <path fill="rgb(255,211,32)" stroke="none" d="M 12834,6778 L 12934,6978 13034,6778 12834,6778 Z"/>
 <path fill="none" stroke="rgb(255,211,32)" stroke-linejoin="round" d="M 12834,6778 L 12934,6978 13034,6778 12834,6778 Z"/>
 <path fill="rgb(255,211,32)" stroke="none" d="M 13019,6690 L 13119,6890 13219,6690 13019,6690 Z"/>
 <path fill="none" stroke="rgb(255,211,32)" stroke-linejoin="round" d="M 13019,6690 L 13119,6890 13219,6690 13019,6690 Z"/>
 <path fill="rgb(255,211,32)" stroke="none" d="M 13203,6594 L 13303,6794 13403,6594 13203,6594 Z"/>
 <path fill="none" stroke="rgb(255,211,32)" stroke-linejoin="round" d="M 13203,6594 L 13303,6794 13403,6594 13203,6594 Z"/>
 <path fill="rgb(255,211,32)" stroke="none" d="M 13388,6541 L 13488,6741 13588,6541 13388,6541 Z"/>
 <path fill="none" stroke="rgb(255,211,32)" stroke-linejoin="round" d="M 13388,6541 L 13488,6741 13588,6541 13388,6541 Z"/>
 <path fill="rgb(255,211,32)" stroke="none" d="M 13572,6529 L 13672,6729 13772,6529 13572,6529 Z"/>
 <path fill="none" stroke="rgb(255,211,32)" stroke-linejoin="round" d="M 13572,6529 L 13672,6729 13772,6529 13572,6529 Z"/>
 <path fill="rgb(255,211,32)" stroke="none" d="M 13757,6487 L 13857,6687 13957,6487 13757,6487 Z"/>
 <path fill="none" stroke="rgb(255,211,32)" stroke-linejoin="round" d="M 13757,6487 L 13857,6687 13957,6487 13757,6487 Z"/>
 <path fill="rgb(255,211,32)" stroke="none" d="M 13941,6418 L 14041,6618 14141,6418 13941,6418 Z"/>
 <path fill="none" stroke="rgb(255,211,32)" stroke-linejoin="round" d="M 13941,6418 L 14041,6618 14141,6418 13941,6418 Z"/>
 <path fill="rgb(255,211,32)" stroke="none" d="M 14125,6349 L 14225,6549 14325,6349 14125,6349 Z"/>
 <path fill="none" stroke="rgb(255,211,32)" stroke-linejoin="round" d="M 14125,6349 L 14225,6549 14325,6349 14125,6349 Z"/>
 <path fill="rgb(255,211,32)" stroke="none" d="M 14310,6314 L 14410,6514 14510,6314 14310,6314 Z"/>
 <path fill="none" stroke="rgb(255,211,32)" stroke-linejoin="round" d="M 14310,6314 L 14410,6514 14510,6314 14310,6314 Z"/>
 <path fill="rgb(255,211,32)" stroke="none" d="M 14494,6264 L 14594,6464 14694,6264 14494,6264 Z"/>
 <path fill="none" stroke="rgb(255,211,32)" stroke-linejoin="round" d="M 14494,6264 L 14594,6464 14694,6264 14494,6264 Z"/>
 <path fill="none" stroke="rgb(87,157,28)" stroke-width="50" stroke-linejoin="round" d="M 5189,11171 L 5373,11171 5558,11154 5742,11154 5927,11154 6111,11138 6296,11088 6480,11055 6664,11022 6849,10989 7033,10956 7218,10889 7402,10757 7586,10542 7770,10227 7955,10045 8139,9730 8323,9532 8508,9432 8692,8985 8877,8671 9061,8191 9246,7876 9430,7744 9614,7578 9799,7412 9983,6916 10168,6701 10352,6502 10537,6419 10721,6171 10906,6022 11090,5874 11274,5658 11459,5526 11643,5244 11828,5029 12012,4897 12197,4831 12381,4748 12565,4615 12750,4499 12934,4450 13119,4384 13303,4301 13488,4201 13672,4102 13857,4019 14041,3903 14225,3804 14410,3721 14594,3605"/>
 <path fill="rgb(87,157,28)" stroke="none" d="M 5089,11271 L 5289,11271 5189,11071 5089,11271 Z"/>
 <path fill="none" stroke="rgb(87,157,28)" stroke-linejoin="round" d="M 5089,11271 L 5289,11271 5189,11071 5089,11271 Z"/>
 <path fill="rgb(87,157,28)" stroke="none" d="M 5273,11271 L 5473,11271 5373,11071 5273,11271 Z"/>
 <path fill="none" stroke="rgb(87,157,28)" stroke-linejoin="round" d="M 5273,11271 L 5473,11271 5373,11071 5273,11271 Z"/>
 <path fill="rgb(87,157,28)" stroke="none" d="M 5458,11254 L 5658,11254 5558,11054 5458,11254 Z"/>
 <path fill="none" stroke="rgb(87,157,28)" stroke-linejoin="round" d="M 5458,11254 L 5658,11254 5558,11054 5458,11254 Z"/>
 <path fill="rgb(87,157,28)" stroke="none" d="M 5642,11254 L 5842,11254 5742,11054 5642,11254 Z"/>
 <path fill="none" stroke="rgb(87,157,28)" stroke-linejoin="round" d="M 5642,11254 L 5842,11254 5742,11054 5642,11254 Z"/>
 <path fill="rgb(87,157,28)" stroke="none" d="M 5827,11254 L 6027,11254 5927,11054 5827,11254 Z"/>
 <path fill="none" stroke="rgb(87,157,28)" stroke-linejoin="round" d="M 5827,11254 L 6027,11254 5927,11054 5827,11254 Z"/>
 <path fill="rgb(87,157,28)" stroke="none" d="M 6011,11238 L 6211,11238 6111,11038 6011,11238 Z"/>
 <path fill="none" stroke="rgb(87,157,28)" stroke-linejoin="round" d="M 6011,11238 L 6211,11238 6111,11038 6011,11238 Z"/>
 <path fill="rgb(87,157,28)" stroke="none" d="M 6196,11188 L 6396,11188 6296,10988 6196,11188 Z"/>
 <path fill="none" stroke="rgb(87,157,28)" stroke-linejoin="round" d="M 6196,11188 L 6396,11188 6296,10988 6196,11188 Z"/>
 <path fill="rgb(87,157,28)" stroke="none" d="M 6380,11155 L 6580,11155 6480,10955 6380,11155 Z"/>
 <path fill="none" stroke="rgb(87,157,28)" stroke-linejoin="round" d="M 6380,11155 L 6580,11155 6480,10955 6380,11155 Z"/>
 <path fill="rgb(87,157,28)" stroke="none" d="M 6564,11122 L 6764,11122 6664,10922 6564,11122 Z"/>
 <path fill="none" stroke="rgb(87,157,28)" stroke-linejoin="round" d="M 6564,11122 L 6764,11122 6664,10922 6564,11122 Z"/>
 <path fill="rgb(87,157,28)" stroke="none" d="M 6749,11089 L 6949,11089 6849,10889 6749,11089 Z"/>
 <path fill="none" stroke="rgb(87,157,28)" stroke-linejoin="round" d="M 6749,11089 L 6949,11089 6849,10889 6749,11089 Z"/>
 <path fill="rgb(87,157,28)" stroke="none" d="M 6933,11056 L 7133,11056 7033,10856 6933,11056 Z"/>
 <path fill="none" stroke="rgb(87,157,28)" stroke-linejoin="round" d="M 6933,11056 L 7133,11056 7033,10856 6933,11056 Z"/>
 <path fill="rgb(87,157,28)" stroke="none" d="M 7118,10989 L 7318,10989 7218,10789 7118,10989 Z"/>
 <path fill="none" stroke="rgb(87,157,28)" stroke-linejoin="round" d="M 7118,10989 L 7318,10989 7218,10789 7118,10989 Z"/>
 <path fill="rgb(87,157,28)" stroke="none" d="M 7302,10857 L 7501,10857 7402,10657 7302,10857 Z"/>
 <path fill="none" stroke="rgb(87,157,28)" stroke-linejoin="round" d="M 7302,10857 L 7501,10857 7402,10657 7302,10857 Z"/>
 <path fill="rgb(87,157,28)" stroke="none" d="M 7487,10642 L 7686,10642 7586,10442 7487,10642 Z"/>
 <path fill="none" stroke="rgb(87,157,28)" stroke-linejoin="round" d="M 7487,10642 L 7686,10642 7586,10442 7487,10642 Z"/>
 <path fill="rgb(87,157,28)" stroke="none" d="M 7670,10327 L 7870,10327 7770,10127 7670,10327 Z"/>
 <path fill="none" stroke="rgb(87,157,28)" stroke-linejoin="round" d="M 7670,10327 L 7870,10327 7770,10127 7670,10327 Z"/>
 <path fill="rgb(87,157,28)" stroke="none" d="M 7855,10145 L 8055,10145 7955,9945 7855,10145 Z"/>
 <path fill="none" stroke="rgb(87,157,28)" stroke-linejoin="round" d="M 7855,10145 L 8055,10145 7955,9945 7855,10145 Z"/>
 <path fill="rgb(87,157,28)" stroke="none" d="M 8039,9830 L 8239,9830 8139,9630 8039,9830 Z"/>
 <path fill="none" stroke="rgb(87,157,28)" stroke-linejoin="round" d="M 8039,9830 L 8239,9830 8139,9630 8039,9830 Z"/>
 <path fill="rgb(87,157,28)" stroke="none" d="M 8223,9632 L 8423,9632 8323,9432 8223,9632 Z"/>
 <path fill="none" stroke="rgb(87,157,28)" stroke-linejoin="round" d="M 8223,9632 L 8423,9632 8323,9432 8223,9632 Z"/>
 <path fill="rgb(87,157,28)" stroke="none" d="M 8408,9532 L 8608,9532 8508,9332 8408,9532 Z"/>
 <path fill="none" stroke="rgb(87,157,28)" stroke-linejoin="round" d="M 8408,9532 L 8608,9532 8508,9332 8408,9532 Z"/>
 <path fill="rgb(87,157,28)" stroke="none" d="M 8592,9085 L 8792,9085 8692,8885 8592,9085 Z"/>
 <path fill="none" stroke="rgb(87,157,28)" stroke-linejoin="round" d="M 8592,9085 L 8792,9085 8692,8885 8592,9085 Z"/>
 <path fill="rgb(87,157,28)" stroke="none" d="M 8777,8771 L 8977,8771 8877,8571 8777,8771 Z"/>
 <path fill="none" stroke="rgb(87,157,28)" stroke-linejoin="round" d="M 8777,8771 L 8977,8771 8877,8571 8777,8771 Z"/>
 <path fill="rgb(87,157,28)" stroke="none" d="M 8961,8291 L 9161,8291 9061,8091 8961,8291 Z"/>
 <path fill="none" stroke="rgb(87,157,28)" stroke-linejoin="round" d="M 8961,8291 L 9161,8291 9061,8091 8961,8291 Z"/>
 <path fill="rgb(87,157,28)" stroke="none" d="M 9146,7976 L 9346,7976 9246,7776 9146,7976 Z"/>
 <path fill="none" stroke="rgb(87,157,28)" stroke-linejoin="round" d="M 9146,7976 L 9346,7976 9246,7776 9146,7976 Z"/>
 <path fill="rgb(87,157,28)" stroke="none" d="M 9330,7844 L 9530,7844 9430,7644 9330,7844 Z"/>
 <path fill="none" stroke="rgb(87,157,28)" stroke-linejoin="round" d="M 9330,7844 L 9530,7844 9430,7644 9330,7844 Z"/>
 <path fill="rgb(87,157,28)" stroke="none" d="M 9514,7678 L 9714,7678 9614,7478 9514,7678 Z"/>
 <path fill="none" stroke="rgb(87,157,28)" stroke-linejoin="round" d="M 9514,7678 L 9714,7678 9614,7478 9514,7678 Z"/>
 <path fill="rgb(87,157,28)" stroke="none" d="M 9699,7512 L 9899,7512 9799,7312 9699,7512 Z"/>
 <path fill="none" stroke="rgb(87,157,28)" stroke-linejoin="round" d="M 9699,7512 L 9899,7512 9799,7312 9699,7512 Z"/>
 <path fill="rgb(87,157,28)" stroke="none" d="M 9883,7016 L 10083,7016 9983,6816 9883,7016 Z"/>
 <path fill="none" stroke="rgb(87,157,28)" stroke-linejoin="round" d="M 9883,7016 L 10083,7016 9983,6816 9883,7016 Z"/>
 <path fill="rgb(87,157,28)" stroke="none" d="M 10068,6801 L 10268,6801 10168,6601 10068,6801 Z"/>
 <path fill="none" stroke="rgb(87,157,28)" stroke-linejoin="round" d="M 10068,6801 L 10268,6801 10168,6601 10068,6801 Z"/>
 <path fill="rgb(87,157,28)" stroke="none" d="M 10252,6602 L 10452,6602 10352,6402 10252,6602 Z"/>
 <path fill="none" stroke="rgb(87,157,28)" stroke-linejoin="round" d="M 10252,6602 L 10452,6602 10352,6402 10252,6602 Z"/>
 <path fill="rgb(87,157,28)" stroke="none" d="M 10437,6519 L 10637,6519 10537,6319 10437,6519 Z"/>
 <path fill="none" stroke="rgb(87,157,28)" stroke-linejoin="round" d="M 10437,6519 L 10637,6519 10537,6319 10437,6519 Z"/>
 <path fill="rgb(87,157,28)" stroke="none" d="M 10621,6271 L 10821,6271 10721,6071 10621,6271 Z"/>
 <path fill="none" stroke="rgb(87,157,28)" stroke-linejoin="round" d="M 10621,6271 L 10821,6271 10721,6071 10621,6271 Z"/>
 <path fill="rgb(87,157,28)" stroke="none" d="M 10806,6122 L 11006,6122 10906,5923 10806,6122 Z"/>
 <path fill="none" stroke="rgb(87,157,28)" stroke-linejoin="round" d="M 10806,6122 L 11006,6122 10906,5923 10806,6122 Z"/>
 <path fill="rgb(87,157,28)" stroke="none" d="M 10990,5974 L 11190,5974 11090,5774 10990,5974 Z"/>
 <path fill="none" stroke="rgb(87,157,28)" stroke-linejoin="round" d="M 10990,5974 L 11190,5974 11090,5774 10990,5974 Z"/>
 <path fill="rgb(87,157,28)" stroke="none" d="M 11174,5758 L 11374,5758 11274,5558 11174,5758 Z"/>
 <path fill="none" stroke="rgb(87,157,28)" stroke-linejoin="round" d="M 11174,5758 L 11374,5758 11274,5558 11174,5758 Z"/>
 <path fill="rgb(87,157,28)" stroke="none" d="M 11359,5626 L 11559,5626 11459,5426 11359,5626 Z"/>
 <path fill="none" stroke="rgb(87,157,28)" stroke-linejoin="round" d="M 11359,5626 L 11559,5626 11459,5426 11359,5626 Z"/>
 <path fill="rgb(87,157,28)" stroke="none" d="M 11543,5344 L 11743,5344 11643,5144 11543,5344 Z"/>
 <path fill="none" stroke="rgb(87,157,28)" stroke-linejoin="round" d="M 11543,5344 L 11743,5344 11643,5144 11543,5344 Z"/>
 <path fill="rgb(87,157,28)" stroke="none" d="M 11728,5129 L 11928,5129 11828,4929 11728,5129 Z"/>
 <path fill="none" stroke="rgb(87,157,28)" stroke-linejoin="round" d="M 11728,5129 L 11928,5129 11828,4929 11728,5129 Z"/>
 <path fill="rgb(87,157,28)" stroke="none" d="M 11912,4997 L 12112,4997 12012,4797 11912,4997 Z"/>
 <path fill="none" stroke="rgb(87,157,28)" stroke-linejoin="round" d="M 11912,4997 L 12112,4997 12012,4797 11912,4997 Z"/>
 <path fill="rgb(87,157,28)" stroke="none" d="M 12097,4931 L 12297,4931 12197,4731 12097,4931 Z"/>
 <path fill="none" stroke="rgb(87,157,28)" stroke-linejoin="round" d="M 12097,4931 L 12297,4931 12197,4731 12097,4931 Z"/>
 <path fill="rgb(87,157,28)" stroke="none" d="M 12281,4848 L 12481,4848 12381,4648 12281,4848 Z"/>
 <path fill="none" stroke="rgb(87,157,28)" stroke-linejoin="round" d="M 12281,4848 L 12481,4848 12381,4648 12281,4848 Z"/>
 <path fill="rgb(87,157,28)" stroke="none" d="M 12465,4715 L 12665,4715 12565,4515 12465,4715 Z"/>
 <path fill="none" stroke="rgb(87,157,28)" stroke-linejoin="round" d="M 12465,4715 L 12665,4715 12565,4515 12465,4715 Z"/>
 <path fill="rgb(87,157,28)" stroke="none" d="M 12650,4599 L 12850,4599 12750,4399 12650,4599 Z"/>
 <path fill="none" stroke="rgb(87,157,28)" stroke-linejoin="round" d="M 12650,4599 L 12850,4599 12750,4399 12650,4599 Z"/>
 <path fill="rgb(87,157,28)" stroke="none" d="M 12834,4550 L 13034,4550 12934,4350 12834,4550 Z"/>
 <path fill="none" stroke="rgb(87,157,28)" stroke-linejoin="round" d="M 12834,4550 L 13034,4550 12934,4350 12834,4550 Z"/>
 <path fill="rgb(87,157,28)" stroke="none" d="M 13019,4484 L 13219,4484 13119,4284 13019,4484 Z"/>
 <path fill="none" stroke="rgb(87,157,28)" stroke-linejoin="round" d="M 13019,4484 L 13219,4484 13119,4284 13019,4484 Z"/>
 <path fill="rgb(87,157,28)" stroke="none" d="M 13203,4401 L 13403,4401 13303,4201 13203,4401 Z"/>
 <path fill="none" stroke="rgb(87,157,28)" stroke-linejoin="round" d="M 13203,4401 L 13403,4401 13303,4201 13203,4401 Z"/>
 <path fill="rgb(87,157,28)" stroke="none" d="M 13388,4301 L 13588,4301 13488,4101 13388,4301 Z"/>
 <path fill="none" stroke="rgb(87,157,28)" stroke-linejoin="round" d="M 13388,4301 L 13588,4301 13488,4101 13388,4301 Z"/>
 <path fill="rgb(87,157,28)" stroke="none" d="M 13572,4202 L 13772,4202 13672,4002 13572,4202 Z"/>
 <path fill="none" stroke="rgb(87,157,28)" stroke-linejoin="round" d="M 13572,4202 L 13772,4202 13672,4002 13572,4202 Z"/>
 <path fill="rgb(87,157,28)" stroke="none" d="M 13757,4119 L 13957,4119 13857,3919 13757,4119 Z"/>
 <path fill="none" stroke="rgb(87,157,28)" stroke-linejoin="round" d="M 13757,4119 L 13957,4119 13857,3919 13757,4119 Z"/>
 <path fill="rgb(87,157,28)" stroke="none" d="M 13941,4003 L 14141,4003 14041,3803 13941,4003 Z"/>
 <path fill="none" stroke="rgb(87,157,28)" stroke-linejoin="round" d="M 13941,4003 L 14141,4003 14041,3803 13941,4003 Z"/>
 <path fill="rgb(87,157,28)" stroke="none" d="M 14125,3904 L 14325,3904 14225,3704 14125,3904 Z"/>
 <path fill="none" stroke="rgb(87,157,28)" stroke-linejoin="round" d="M 14125,3904 L 14325,3904 14225,3704 14125,3904 Z"/>
 <path fill="rgb(87,157,28)" stroke="none" d="M 14310,3821 L 14510,3821 14410,3621 14310,3821 Z"/>
 <path fill="none" stroke="rgb(87,157,28)" stroke-linejoin="round" d="M 14310,3821 L 14510,3821 14410,3621 14310,3821 Z"/>
 <path fill="rgb(87,157,28)" stroke="none" d="M 14494,3705 L 14694,3705 14594,3505 14494,3705 Z"/>
 <path fill="none" stroke="rgb(87,157,28)" stroke-linejoin="round" d="M 14494,3705 L 14694,3705 14594,3505 14494,3705 Z"/>
 <path fill="none" stroke="rgb(126,0,33)" stroke-width="50" stroke-linejoin="round" d="M 3898,11180 L 4082,11180 4267,11173 4451,11150 4636,11150 4820,11143 5004,11143 5189,11105 5373,11083 5558,11083 5742,11015 5927,11015 6111,10918 6296,10888 6480,10790 6664,10655 6849,10550 7033,10460 7218,10288 7402,10190 7586,10025 7770,9838 7955,9636 8139,9531 8323,9201 8508,8961 8692,8751 8877,8421 9061,8099 9246,7859 9430,7611 9614,7327 9799,7079 9983,6794 10168,6427 10352,6022 10537,5723 10721,5453 10906,5161 11090,4959 11274,4749 11459,4426 11643,4021 11828,3752 12012,3542 12197,3227 12381,3084 12565,2919 12750,2762 12934,2440 13119,2245 13303,2102 13488,1967 13672,1885 13857,1780 14041,1637 14225,1472 14410,1352 14594,1285"/>
 <path fill="rgb(126,0,33)" stroke="none" d="M 3798,11080 L 3798,11280 3998,11180 3798,11080 Z"/>
 <path fill="none" stroke="rgb(126,0,33)" stroke-linejoin="round" d="M 3798,11080 L 3798,11280 3998,11180 3798,11080 Z"/>
 <path fill="rgb(126,0,33)" stroke="none" d="M 3982,11080 L 3982,11280 4182,11180 3982,11080 Z"/>
 <path fill="none" stroke="rgb(126,0,33)" stroke-linejoin="round" d="M 3982,11080 L 3982,11280 4182,11180 3982,11080 Z"/>
 <path fill="rgb(126,0,33)" stroke="none" d="M 4167,11073 L 4167,11273 4367,11173 4167,11073 Z"/>
 <path fill="none" stroke="rgb(126,0,33)" stroke-linejoin="round" d="M 4167,11073 L 4167,11273 4367,11173 4167,11073 Z"/>
 <path fill="rgb(126,0,33)" stroke="none" d="M 4351,11050 L 4351,11250 4551,11150 4351,11050 Z"/>
 <path fill="none" stroke="rgb(126,0,33)" stroke-linejoin="round" d="M 4351,11050 L 4351,11250 4551,11150 4351,11050 Z"/>
 <path fill="rgb(126,0,33)" stroke="none" d="M 4536,11050 L 4536,11250 4736,11150 4536,11050 Z"/>
 <path fill="none" stroke="rgb(126,0,33)" stroke-linejoin="round" d="M 4536,11050 L 4536,11250 4736,11150 4536,11050 Z"/>
 <path fill="rgb(126,0,33)" stroke="none" d="M 4720,11043 L 4720,11243 4920,11143 4720,11043 Z"/>
 <path fill="none" stroke="rgb(126,0,33)" stroke-linejoin="round" d="M 4720,11043 L 4720,11243 4920,11143 4720,11043 Z"/>
 <path fill="rgb(126,0,33)" stroke="none" d="M 4904,11043 L 4904,11243 5104,11143 4904,11043 Z"/>
 <path fill="none" stroke="rgb(126,0,33)" stroke-linejoin="round" d="M 4904,11043 L 4904,11243 5104,11143 4904,11043 Z"/>
 <path fill="rgb(126,0,33)" stroke="none" d="M 5089,11005 L 5089,11205 5289,11105 5089,11005 Z"/>
 <path fill="none" stroke="rgb(126,0,33)" stroke-linejoin="round" d="M 5089,11005 L 5089,11205 5289,11105 5089,11005 Z"/>
 <path fill="rgb(126,0,33)" stroke="none" d="M 5273,10983 L 5273,11183 5473,11083 5273,10983 Z"/>
 <path fill="none" stroke="rgb(126,0,33)" stroke-linejoin="round" d="M 5273,10983 L 5273,11183 5473,11083 5273,10983 Z"/>
 <path fill="rgb(126,0,33)" stroke="none" d="M 5458,10983 L 5458,11183 5658,11083 5458,10983 Z"/>
 <path fill="none" stroke="rgb(126,0,33)" stroke-linejoin="round" d="M 5458,10983 L 5458,11183 5658,11083 5458,10983 Z"/>
 <path fill="rgb(126,0,33)" stroke="none" d="M 5642,10915 L 5642,11115 5842,11015 5642,10915 Z"/>
 <path fill="none" stroke="rgb(126,0,33)" stroke-linejoin="round" d="M 5642,10915 L 5642,11115 5842,11015 5642,10915 Z"/>
 <path fill="rgb(126,0,33)" stroke="none" d="M 5827,10915 L 5827,11115 6027,11015 5827,10915 Z"/>
 <path fill="none" stroke="rgb(126,0,33)" stroke-linejoin="round" d="M 5827,10915 L 5827,11115 6027,11015 5827,10915 Z"/>
 <path fill="rgb(126,0,33)" stroke="none" d="M 6011,10818 L 6011,11018 6211,10918 6011,10818 Z"/>
 <path fill="none" stroke="rgb(126,0,33)" stroke-linejoin="round" d="M 6011,10818 L 6011,11018 6211,10918 6011,10818 Z"/>
 <path fill="rgb(126,0,33)" stroke="none" d="M 6196,10788 L 6196,10988 6396,10888 6196,10788 Z"/>
 <path fill="none" stroke="rgb(126,0,33)" stroke-linejoin="round" d="M 6196,10788 L 6196,10988 6396,10888 6196,10788 Z"/>
 <path fill="rgb(126,0,33)" stroke="none" d="M 6380,10690 L 6380,10890 6580,10790 6380,10690 Z"/>
 <path fill="none" stroke="rgb(126,0,33)" stroke-linejoin="round" d="M 6380,10690 L 6380,10890 6580,10790 6380,10690 Z"/>
 <path fill="rgb(126,0,33)" stroke="none" d="M 6564,10555 L 6564,10755 6764,10655 6564,10555 Z"/>
 <path fill="none" stroke="rgb(126,0,33)" stroke-linejoin="round" d="M 6564,10555 L 6564,10755 6764,10655 6564,10555 Z"/>
 <path fill="rgb(126,0,33)" stroke="none" d="M 6749,10450 L 6749,10650 6949,10550 6749,10450 Z"/>
 <path fill="none" stroke="rgb(126,0,33)" stroke-linejoin="round" d="M 6749,10450 L 6749,10650 6949,10550 6749,10450 Z"/>
 <path fill="rgb(126,0,33)" stroke="none" d="M 6933,10360 L 6933,10560 7133,10460 6933,10360 Z"/>
 <path fill="none" stroke="rgb(126,0,33)" stroke-linejoin="round" d="M 6933,10360 L 6933,10560 7133,10460 6933,10360 Z"/>
 <path fill="rgb(126,0,33)" stroke="none" d="M 7118,10188 L 7118,10388 7318,10288 7118,10188 Z"/>
 <path fill="none" stroke="rgb(126,0,33)" stroke-linejoin="round" d="M 7118,10188 L 7118,10388 7318,10288 7118,10188 Z"/>
 <path fill="rgb(126,0,33)" stroke="none" d="M 7302,10090 L 7302,10290 7501,10190 7302,10090 Z"/>
 <path fill="none" stroke="rgb(126,0,33)" stroke-linejoin="round" d="M 7302,10090 L 7302,10290 7501,10190 7302,10090 Z"/>
 <path fill="rgb(126,0,33)" stroke="none" d="M 7487,9925 L 7487,10125 7686,10025 7487,9925 Z"/>
 <path fill="none" stroke="rgb(126,0,33)" stroke-linejoin="round" d="M 7487,9925 L 7487,10125 7686,10025 7487,9925 Z"/>
 <path fill="rgb(126,0,33)" stroke="none" d="M 7670,9738 L 7670,9938 7870,9838 7670,9738 Z"/>
 <path fill="none" stroke="rgb(126,0,33)" stroke-linejoin="round" d="M 7670,9738 L 7670,9938 7870,9838 7670,9738 Z"/>
 <path fill="rgb(126,0,33)" stroke="none" d="M 7855,9536 L 7855,9736 8055,9636 7855,9536 Z"/>
 <path fill="none" stroke="rgb(126,0,33)" stroke-linejoin="round" d="M 7855,9536 L 7855,9736 8055,9636 7855,9536 Z"/>
 <path fill="rgb(126,0,33)" stroke="none" d="M 8039,9431 L 8039,9631 8239,9531 8039,9431 Z"/>
 <path fill="none" stroke="rgb(126,0,33)" stroke-linejoin="round" d="M 8039,9431 L 8039,9631 8239,9531 8039,9431 Z"/>
 <path fill="rgb(126,0,33)" stroke="none" d="M 8223,9101 L 8223,9301 8423,9201 8223,9101 Z"/>
 <path fill="none" stroke="rgb(126,0,33)" stroke-linejoin="round" d="M 8223,9101 L 8223,9301 8423,9201 8223,9101 Z"/>
 <path fill="rgb(126,0,33)" stroke="none" d="M 8408,8861 L 8408,9061 8608,8961 8408,8861 Z"/>
 <path fill="none" stroke="rgb(126,0,33)" stroke-linejoin="round" d="M 8408,8861 L 8408,9061 8608,8961 8408,8861 Z"/>
 <path fill="rgb(126,0,33)" stroke="none" d="M 8592,8651 L 8592,8851 8792,8751 8592,8651 Z"/>
 <path fill="none" stroke="rgb(126,0,33)" stroke-linejoin="round" d="M 8592,8651 L 8592,8851 8792,8751 8592,8651 Z"/>
 <path fill="rgb(126,0,33)" stroke="none" d="M 8777,8321 L 8777,8521 8977,8421 8777,8321 Z"/>
 <path fill="none" stroke="rgb(126,0,33)" stroke-linejoin="round" d="M 8777,8321 L 8777,8521 8977,8421 8777,8321 Z"/>
 <path fill="rgb(126,0,33)" stroke="none" d="M 8961,7999 L 8961,8199 9161,8099 8961,7999 Z"/>
 <path fill="none" stroke="rgb(126,0,33)" stroke-linejoin="round" d="M 8961,7999 L 8961,8199 9161,8099 8961,7999 Z"/>
 <path fill="rgb(126,0,33)" stroke="none" d="M 9146,7759 L 9146,7959 9346,7859 9146,7759 Z"/>
 <path fill="none" stroke="rgb(126,0,33)" stroke-linejoin="round" d="M 9146,7759 L 9146,7959 9346,7859 9146,7759 Z"/>
 <path fill="rgb(126,0,33)" stroke="none" d="M 9330,7511 L 9330,7711 9530,7611 9330,7511 Z"/>
 <path fill="none" stroke="rgb(126,0,33)" stroke-linejoin="round" d="M 9330,7511 L 9330,7711 9530,7611 9330,7511 Z"/>
 <path fill="rgb(126,0,33)" stroke="none" d="M 9514,7227 L 9514,7427 9714,7327 9514,7227 Z"/>
 <path fill="none" stroke="rgb(126,0,33)" stroke-linejoin="round" d="M 9514,7227 L 9514,7427 9714,7327 9514,7227 Z"/>
 <path fill="rgb(126,0,33)" stroke="none" d="M 9699,6979 L 9699,7179 9899,7079 9699,6979 Z"/>
 <path fill="none" stroke="rgb(126,0,33)" stroke-linejoin="round" d="M 9699,6979 L 9699,7179 9899,7079 9699,6979 Z"/>
 <path fill="rgb(126,0,33)" stroke="none" d="M 9883,6694 L 9883,6894 10083,6794 9883,6694 Z"/>
 <path fill="none" stroke="rgb(126,0,33)" stroke-linejoin="round" d="M 9883,6694 L 9883,6894 10083,6794 9883,6694 Z"/>
 <path fill="rgb(126,0,33)" stroke="none" d="M 10068,6327 L 10068,6527 10268,6427 10068,6327 Z"/>
 <path fill="none" stroke="rgb(126,0,33)" stroke-linejoin="round" d="M 10068,6327 L 10068,6527 10268,6427 10068,6327 Z"/>
 <path fill="rgb(126,0,33)" stroke="none" d="M 10252,5923 L 10252,6122 10452,6022 10252,5923 Z"/>
 <path fill="none" stroke="rgb(126,0,33)" stroke-linejoin="round" d="M 10252,5923 L 10252,6122 10452,6022 10252,5923 Z"/>
 <path fill="rgb(126,0,33)" stroke="none" d="M 10437,5623 L 10437,5823 10637,5723 10437,5623 Z"/>
 <path fill="none" stroke="rgb(126,0,33)" stroke-linejoin="round" d="M 10437,5623 L 10437,5823 10637,5723 10437,5623 Z"/>
 <path fill="rgb(126,0,33)" stroke="none" d="M 10621,5353 L 10621,5553 10821,5453 10621,5353 Z"/>
 <path fill="none" stroke="rgb(126,0,33)" stroke-linejoin="round" d="M 10621,5353 L 10621,5553 10821,5453 10621,5353 Z"/>
 <path fill="rgb(126,0,33)" stroke="none" d="M 10806,5061 L 10806,5261 11006,5161 10806,5061 Z"/>
 <path fill="none" stroke="rgb(126,0,33)" stroke-linejoin="round" d="M 10806,5061 L 10806,5261 11006,5161 10806,5061 Z"/>
 <path fill="rgb(126,0,33)" stroke="none" d="M 10990,4859 L 10990,5059 11190,4959 10990,4859 Z"/>
 <path fill="none" stroke="rgb(126,0,33)" stroke-linejoin="round" d="M 10990,4859 L 10990,5059 11190,4959 10990,4859 Z"/>
 <path fill="rgb(126,0,33)" stroke="none" d="M 11174,4649 L 11174,4849 11374,4749 11174,4649 Z"/>
 <path fill="none" stroke="rgb(126,0,33)" stroke-linejoin="round" d="M 11174,4649 L 11174,4849 11374,4749 11174,4649 Z"/>
 <path fill="rgb(126,0,33)" stroke="none" d="M 11359,4326 L 11359,4526 11559,4426 11359,4326 Z"/>
 <path fill="none" stroke="rgb(126,0,33)" stroke-linejoin="round" d="M 11359,4326 L 11359,4526 11559,4426 11359,4326 Z"/>
 <path fill="rgb(126,0,33)" stroke="none" d="M 11543,3921 L 11543,4121 11743,4021 11543,3921 Z"/>
 <path fill="none" stroke="rgb(126,0,33)" stroke-linejoin="round" d="M 11543,3921 L 11543,4121 11743,4021 11543,3921 Z"/>
 <path fill="rgb(126,0,33)" stroke="none" d="M 11728,3652 L 11728,3852 11928,3752 11728,3652 Z"/>
 <path fill="none" stroke="rgb(126,0,33)" stroke-linejoin="round" d="M 11728,3652 L 11728,3852 11928,3752 11728,3652 Z"/>
 <path fill="rgb(126,0,33)" stroke="none" d="M 11912,3442 L 11912,3642 12112,3542 11912,3442 Z"/>
 <path fill="none" stroke="rgb(126,0,33)" stroke-linejoin="round" d="M 11912,3442 L 11912,3642 12112,3542 11912,3442 Z"/>
 <path fill="rgb(126,0,33)" stroke="none" d="M 12097,3127 L 12097,3327 12297,3227 12097,3127 Z"/>
 <path fill="none" stroke="rgb(126,0,33)" stroke-linejoin="round" d="M 12097,3127 L 12097,3327 12297,3227 12097,3127 Z"/>
 <path fill="rgb(126,0,33)" stroke="none" d="M 12281,2984 L 12281,3184 12481,3084 12281,2984 Z"/>
 <path fill="none" stroke="rgb(126,0,33)" stroke-linejoin="round" d="M 12281,2984 L 12281,3184 12481,3084 12281,2984 Z"/>
 <path fill="rgb(126,0,33)" stroke="none" d="M 12465,2819 L 12465,3019 12665,2919 12465,2819 Z"/>
 <path fill="none" stroke="rgb(126,0,33)" stroke-linejoin="round" d="M 12465,2819 L 12465,3019 12665,2919 12465,2819 Z"/>
 <path fill="rgb(126,0,33)" stroke="none" d="M 12650,2662 L 12650,2862 12850,2762 12650,2662 Z"/>
 <path fill="none" stroke="rgb(126,0,33)" stroke-linejoin="round" d="M 12650,2662 L 12650,2862 12850,2762 12650,2662 Z"/>
 <path fill="rgb(126,0,33)" stroke="none" d="M 12834,2340 L 12834,2540 13034,2440 12834,2340 Z"/>
 <path fill="none" stroke="rgb(126,0,33)" stroke-linejoin="round" d="M 12834,2340 L 12834,2540 13034,2440 12834,2340 Z"/>
 <path fill="rgb(126,0,33)" stroke="none" d="M 13019,2145 L 13019,2345 13219,2245 13019,2145 Z"/>
 <path fill="none" stroke="rgb(126,0,33)" stroke-linejoin="round" d="M 13019,2145 L 13019,2345 13219,2245 13019,2145 Z"/>
 <path fill="rgb(126,0,33)" stroke="none" d="M 13203,2002 L 13203,2202 13403,2102 13203,2002 Z"/>
 <path fill="none" stroke="rgb(126,0,33)" stroke-linejoin="round" d="M 13203,2002 L 13203,2202 13403,2102 13203,2002 Z"/>
 <path fill="rgb(126,0,33)" stroke="none" d="M 13388,1867 L 13388,2067 13588,1967 13388,1867 Z"/>
 <path fill="none" stroke="rgb(126,0,33)" stroke-linejoin="round" d="M 13388,1867 L 13388,2067 13588,1967 13388,1867 Z"/>
 <path fill="rgb(126,0,33)" stroke="none" d="M 13572,1785 L 13572,1985 13772,1885 13572,1785 Z"/>
 <path fill="none" stroke="rgb(126,0,33)" stroke-linejoin="round" d="M 13572,1785 L 13572,1985 13772,1885 13572,1785 Z"/>
 <path fill="rgb(126,0,33)" stroke="none" d="M 13757,1680 L 13757,1880 13957,1780 13757,1680 Z"/>
 <path fill="none" stroke="rgb(126,0,33)" stroke-linejoin="round" d="M 13757,1680 L 13757,1880 13957,1780 13757,1680 Z"/>
 <path fill="rgb(126,0,33)" stroke="none" d="M 13941,1537 L 13941,1737 14141,1637 13941,1537 Z"/>
 <path fill="none" stroke="rgb(126,0,33)" stroke-linejoin="round" d="M 13941,1537 L 13941,1737 14141,1637 13941,1537 Z"/>
 <path fill="rgb(126,0,33)" stroke="none" d="M 14125,1372 L 14125,1572 14325,1472 14125,1372 Z"/>
 <path fill="none" stroke="rgb(126,0,33)" stroke-linejoin="round" d="M 14125,1372 L 14125,1572 14325,1472 14125,1372 Z"/>
 <path fill="rgb(126,0,33)" stroke="none" d="M 14310,1252 L 14310,1452 14510,1352 14310,1252 Z"/>
 <path fill="none" stroke="rgb(126,0,33)" stroke-linejoin="round" d="M 14310,1252 L 14310,1452 14510,1352 14310,1252 Z"/>
 <path fill="rgb(126,0,33)" stroke="none" d="M 14494,1185 L 14494,1385 14694,1285 14494,1185 Z"/>
 <path fill="none" stroke="rgb(126,0,33)" stroke-linejoin="round" d="M 14494,1185 L 14494,1385 14694,1285 14494,1185 Z"/>
 <text class="TextShape"><tspan class="TextParagraph" font-family="Liberation Sans, sans-serif" font-size="353px" font-weight="400"><tspan class="TextPosition" x="892" y="11756"><tspan fill="rgb(0,0,0)" stroke="none">20/02</tspan></tspan></tspan></text>
 <text class="TextShape"><tspan class="TextParagraph" font-family="Liberation Sans, sans-serif" font-size="353px" font-weight="400"><tspan class="TextPosition" x="2183" y="11756"><tspan fill="rgb(0,0,0)" stroke="none">27/02</tspan></tspan></tspan></text>
 <text class="TextShape"><tspan class="TextParagraph" font-family="Liberation Sans, sans-serif" font-size="353px" font-weight="400"><tspan class="TextPosition" x="3474" y="11756"><tspan fill="rgb(0,0,0)" stroke="none">05/03</tspan></tspan></tspan></text>
 <text class="TextShape"><tspan class="TextParagraph" font-family="Liberation Sans, sans-serif" font-size="353px" font-weight="400"><tspan class="TextPosition" x="4765" y="11756"><tspan fill="rgb(0,0,0)" stroke="none">12/03</tspan></tspan></tspan></text>
 <text class="TextShape"><tspan class="TextParagraph" font-family="Liberation Sans, sans-serif" font-size="353px" font-weight="400"><tspan class="TextPosition" x="6056" y="11756"><tspan fill="rgb(0,0,0)" stroke="none">19/03</tspan></tspan></tspan></text>
 <text class="TextShape"><tspan class="TextParagraph" font-family="Liberation Sans, sans-serif" font-size="353px" font-weight="400"><tspan class="TextPosition" x="7347" y="11756"><tspan fill="rgb(0,0,0)" stroke="none">26/03</tspan></tspan></tspan></text>
 <text class="TextShape"><tspan class="TextParagraph" font-family="Liberation Sans, sans-serif" font-size="353px" font-weight="400"><tspan class="TextPosition" x="8638" y="11756"><tspan fill="rgb(0,0,0)" stroke="none">02/04</tspan></tspan></tspan></text>
 <text class="TextShape"><tspan class="TextParagraph" font-family="Liberation Sans, sans-serif" font-size="353px" font-weight="400"><tspan class="TextPosition" x="9929" y="11756"><tspan fill="rgb(0,0,0)" stroke="none">09/04</tspan></tspan></tspan></text>
 <text class="TextShape"><tspan class="TextParagraph" font-family="Liberation Sans, sans-serif" font-size="353px" font-weight="400"><tspan class="TextPosition" x="11220" y="11756"><tspan fill="rgb(0,0,0)" stroke="none">16/04</tspan></tspan></tspan></text>
 <text class="TextShape"><tspan class="TextParagraph" font-family="Liberation Sans, sans-serif" font-size="353px" font-weight="400"><tspan class="TextPosition" x="12511" y="11756"><tspan fill="rgb(0,0,0)" stroke="none">23/04</tspan></tspan></tspan></text>
 <text class="TextShape"><tspan class="TextParagraph" font-family="Liberation Sans, sans-serif" font-size="353px" font-weight="400"><tspan class="TextPosition" x="13802" y="11756"><tspan fill="rgb(0,0,0)" stroke="none">30/04</tspan></tspan></tspan></text>
 <text class="TextShape"><tspan class="TextParagraph" font-family="Liberation Sans, sans-serif" font-size="353px" font-weight="400"><tspan class="TextPosition" x="789" y="11309"><tspan fill="rgb(0,0,0)" stroke="none">0</tspan></tspan></tspan></text>
 <text class="TextShape"><tspan class="TextParagraph" font-family="Liberation Sans, sans-serif" font-size="353px" font-weight="400"><tspan class="TextPosition" x="418" y="9494"><tspan fill="rgb(0,0,0)" stroke="none">500</tspan></tspan></tspan></text>
 <text class="TextShape"><tspan class="TextParagraph" font-family="Liberation Sans, sans-serif" font-size="353px" font-weight="400"><tspan class="TextPosition" x="127" y="7679"><tspan fill="rgb(0,0,0)" stroke="none">1.000</tspan></tspan></tspan></text>
 <text class="TextShape"><tspan class="TextParagraph" font-family="Liberation Sans, sans-serif" font-size="353px" font-weight="400"><tspan class="TextPosition" x="127" y="5865"><tspan fill="rgb(0,0,0)" stroke="none">1.500</tspan></tspan></tspan></text>
 <text class="TextShape"><tspan class="TextParagraph" font-family="Liberation Sans, sans-serif" font-size="353px" font-weight="400"><tspan class="TextPosition" x="127" y="4050"><tspan fill="rgb(0,0,0)" stroke="none">2.000</tspan></tspan></tspan></text>
 <text class="TextShape"><tspan class="TextParagraph" font-family="Liberation Sans, sans-serif" font-size="353px" font-weight="400"><tspan class="TextPosition" x="127" y="2235"><tspan fill="rgb(0,0,0)" stroke="none">2.500</tspan></tspan></tspan></text>
 <text class="TextShape"><tspan class="TextParagraph" font-family="Liberation Sans, sans-serif" font-size="459px" font-weight="400"><tspan class="TextPosition" x="1344" y="657"><tspan fill="rgb(0,0,0)" stroke="none">Muertes acumuladas CCAA por milln de mayores de 65 aos (2)</tspan></tspan></tspan></text>
 <path fill="none" stroke="rgb(0,0,0)" stroke-width="50" stroke-linejoin="round" d="M 5650,2558 L 6450,2558"/>
 <path fill="rgb(0,0,0)" stroke="none" d="M 5944,2558 L 6050,2664 6155,2558 6050,2453 5944,2558 Z"/>
 <path fill="none" stroke="rgb(0,0,0)" stroke-linejoin="round" d="M 5944,2558 L 6050,2664 6155,2558 6050,2453 5944,2558 Z"/>
 <path fill="none" stroke="rgb(255,66,14)" stroke-width="50" stroke-linejoin="round" d="M 5650,3505 L 6450,3505"/>
 <path fill="rgb(255,66,14)" stroke="none" d="M 5944,3505 L 6050,3611 6155,3505 6050,3400 5944,3505 Z"/>
 <path fill="none" stroke="rgb(255,66,14)" stroke-linejoin="round" d="M 5944,3505 L 6050,3611 6155,3505 6050,3400 5944,3505 Z"/>
 <path fill="none" stroke="rgb(255,211,32)" stroke-width="50" stroke-linejoin="round" d="M 5650,4452 L 6450,4452"/>
 <path fill="rgb(255,211,32)" stroke="none" d="M 5944,4347 L 6050,4558 6155,4347 5944,4347 Z"/>
 <path fill="none" stroke="rgb(255,211,32)" stroke-linejoin="round" d="M 5944,4347 L 6050,4558 6155,4347 5944,4347 Z"/>
 <path fill="none" stroke="rgb(87,157,28)" stroke-width="50" stroke-linejoin="round" d="M 5650,5399 L 6450,5399"/>
 <path fill="rgb(87,157,28)" stroke="none" d="M 5944,5505 L 6155,5505 6050,5294 5944,5505 Z"/>
 <path fill="none" stroke="rgb(87,157,28)" stroke-linejoin="round" d="M 5944,5505 L 6155,5505 6050,5294 5944,5505 Z"/>
 <path fill="none" stroke="rgb(126,0,33)" stroke-width="50" stroke-linejoin="round" d="M 5650,6345 L 6450,6345"/>
 <path fill="rgb(126,0,33)" stroke="none" d="M 5944,6240 L 5944,6451 6155,6345 5944,6240 Z"/>
 <path fill="none" stroke="rgb(126,0,33)" stroke-linejoin="round" d="M 5944,6240 L 5944,6451 6155,6345 5944,6240 Z"/>
 <text class="TextShape"><tspan class="TextParagraph" font-family="Liberation Sans, sans-serif" font-size="353px" font-weight="400"><tspan class="TextPosition" x="6550" y="2678"><tspan fill="rgb(0,0,0)" stroke="none">Aragn</tspan></tspan></tspan></text>
 <text class="TextShape"><tspan class="TextParagraph" font-family="Liberation Sans, sans-serif" font-size="353px" font-weight="400"><tspan class="TextPosition" x="6550" y="3625"><tspan fill="rgb(0,0,0)" stroke="none">Cantabria</tspan></tspan></tspan></text>
 <text class="TextShape"><tspan class="TextParagraph" font-family="Liberation Sans, sans-serif" font-size="353px" font-weight="400"><tspan class="TextPosition" x="6550" y="4572"><tspan fill="rgb(0,0,0)" stroke="none">Comunidad Valenciana</tspan></tspan></tspan></text>
 <text class="TextShape"><tspan class="TextParagraph" font-family="Liberation Sans, sans-serif" font-size="353px" font-weight="400"><tspan class="TextPosition" x="6550" y="5519"><tspan fill="rgb(0,0,0)" stroke="none">Extremadura</tspan></tspan></tspan></text>
 <text class="TextShape"><tspan class="TextParagraph" font-family="Liberation Sans, sans-serif" font-size="353px" font-weight="400"><tspan class="TextPosition" x="6550" y="6465"><tspan fill="rgb(0,0,0)" stroke="none">Pas Vasco</tspan></tspan></tspan></text>
</svg>