<?xml version="1.0" encoding="UTF-8"?>
<!DOCTYPE svg PUBLIC "-//W3C//DTD SVG 1.1//EN" "http://www.w3.org/Graphics/SVG/1.1/DTD/svg11.dtd">
<svg width="150mm" height="120mm" viewBox="0 0 15000 12000" version="1.1" xmlns="http://www.w3.org/2000/svg" xmlns:xlink="http://www.w3.org/1999/xlink" stroke-width="28.222" stroke-linejoin="round" xml:space="preserve">
 <path fill="rgb(255,255,255)" stroke="none" d="M 7500,12000 L 0,12000 0,0 15000,0 15000,12000 7500,12000 Z"/>
 <path fill="none" stroke="rgb(0,0,0)" stroke-linejoin="round" d="M 8004,11214 L 1306,11214 1306,779 14703,779 14703,11214 8004,11214 Z"/>
 <path fill="none" stroke="rgb(0,0,0)" stroke-linejoin="round" d="M 14703,11213 L 1306,11213"/>
 <path fill="none" stroke="rgb(0,0,0)" stroke-linejoin="round" d="M 14703,8893 L 1306,8893"/>
 <path fill="none" stroke="rgb(0,0,0)" stroke-linejoin="round" d="M 14703,6574 L 1306,6574"/>
 <path fill="none" stroke="rgb(0,0,0)" stroke-linejoin="round" d="M 14703,4256 L 1306,4256"/>
 <path fill="none" stroke="rgb(0,0,0)" stroke-linejoin="round" d="M 14703,1937 L 1306,1937"/>
 <path fill="none" stroke="rgb(179,179,179)" stroke-linejoin="round" d="M 1306,11363 L 1306,11213"/>
 <path fill="none" stroke="rgb(179,179,179)" stroke-linejoin="round" d="M 1306,11363 L 1306,11213"/>
 <path fill="none" stroke="rgb(179,179,179)" stroke-linejoin="round" d="M 3372,11363 L 3372,11213"/>
 <path fill="none" stroke="rgb(179,179,179)" stroke-linejoin="round" d="M 3372,11363 L 3372,11213"/>
 <path fill="none" stroke="rgb(179,179,179)" stroke-linejoin="round" d="M 5438,11363 L 5438,11213"/>
 <path fill="none" stroke="rgb(179,179,179)" stroke-linejoin="round" d="M 5438,11363 L 5438,11213"/>
 <path fill="none" stroke="rgb(179,179,179)" stroke-linejoin="round" d="M 7438,11363 L 7438,11213"/>
 <path fill="none" stroke="rgb(179,179,179)" stroke-linejoin="round" d="M 7438,11363 L 7438,11213"/>
 <path fill="none" stroke="rgb(179,179,179)" stroke-linejoin="round" d="M 9503,11363 L 9503,11213"/>
 <path fill="none" stroke="rgb(179,179,179)" stroke-linejoin="round" d="M 9503,11363 L 9503,11213"/>
 <path fill="none" stroke="rgb(179,179,179)" stroke-linejoin="round" d="M 11503,11363 L 11503,11213"/>
 <path fill="none" stroke="rgb(179,179,179)" stroke-linejoin="round" d="M 11503,11363 L 11503,11213"/>
 <path fill="none" stroke="rgb(179,179,179)" stroke-linejoin="round" d="M 13569,11363 L 13569,11213"/>
 <path fill="none" stroke="rgb(179,179,179)" stroke-linejoin="round" d="M 13569,11363 L 13569,11213"/>
 <path fill="none" stroke="rgb(179,179,179)" stroke-linejoin="round" d="M 1306,11213 L 14703,11213"/>
 <path fill="none" stroke="rgb(0,0,0)" stroke-linejoin="round" d="M 1156,11213 L 1306,11213"/>
 <path fill="none" stroke="rgb(0,0,0)" stroke-linejoin="round" d="M 1156,11213 L 1306,11213"/>
 <path fill="none" stroke="rgb(0,0,0)" stroke-linejoin="round" d="M 1156,8893 L 1306,8893"/>
 <path fill="none" stroke="rgb(0,0,0)" stroke-linejoin="round" d="M 1156,8893 L 1306,8893"/>
 <path fill="none" stroke="rgb(0,0,0)" stroke-linejoin="round" d="M 1156,6574 L 1306,6574"/>
 <path fill="none" stroke="rgb(0,0,0)" stroke-linejoin="round" d="M 1156,6574 L 1306,6574"/>
 <path fill="none" stroke="rgb(0,0,0)" stroke-linejoin="round" d="M 1156,4256 L 1306,4256"/>
 <path fill="none" stroke="rgb(0,0,0)" stroke-linejoin="round" d="M 1156,4256 L 1306,4256"/>
 <path fill="none" stroke="rgb(0,0,0)" stroke-linejoin="round" d="M 1156,1937 L 1306,1937"/>
 <path fill="none" stroke="rgb(0,0,0)" stroke-linejoin="round" d="M 1156,1937 L 1306,1937"/>
 <path fill="none" stroke="rgb(0,0,0)" stroke-linejoin="round" d="M 1306,11213 L 1306,777"/>
 <path fill="none" stroke="rgb(0,69,134)" stroke-width="100" stroke-linejoin="round" d="M 1306,11213 L 1372,11213 1439,11213"/>
 <path fill="none" stroke="rgb(0,69,134)" stroke-width="100" stroke-linejoin="round" d="M 1919,11213 L 1972,11194 2039,11175 2105,11175 2172,11175 2239,11175 2305,11171 2372,11166 2439,11166 2505,11166 2572,11166 2639,11166 2705,11166 2772,11166 2839,11161 2905,11161 2972,11157 3039,11157 3105,11152 3172,11152 3239,11152 3305,11152 3372,11152 3439,11152 3505,11152 3572,11152 3638,11152 3705,11152 3772,11152 3838,11152 3905,11152 3972,11152 4038,11152 4105,11152 4172,11148 4238,11134 4305,11134 4372,11134 4438,11124 4505,11120 4572,11120 4638,11106 4705,11101 4772,11097 4838,11083 4905,11083 4972,11083 5038,11083 5105,11083 5172,11073 5238,11059 5305,11059 5372,11036 5438,11036 5505,11036 5572,11032 5638,11027 5705,11018 5772,11041 5838,10999 5905,10999 5971,10999 6038,10995 6105,10971 6171,10967 6238,10948 6305,10934 6371,10925 6438,10920 6505,10906 6571,10883 6638,10869 6705,10855 6771,10818 6838,10804 6905,10804 6971,10744 7038,10730 7105,10716 7171,10684 7238,10665 7305,10665 7371,10651 7438,10628 7504,10600 7570,10572 7637,10545 7704,10521 7770,10512 7837,10503 7904,10480 7970,10443 8037,10429 8103,10396 8170,10373 8237,10364 8303,10359 8370,10289 8437,10280 8503,10280 8570,10248 8637,10220 8703,10215 8770,10192 8837,10141 8903,10090 8970,10071 9037,10034 9103,10016 9170,10011 9237,10016 9303,9988 9370,9965 9437,9951 9503,9918 9570,9886 9637,9877 9703,9872 9770,9798 9837,9775 9903,9747 9970,9719 10037,9659 10103,9659 10170,9659 10237,9668 10303,9645 10370,9575 10436,9561 10503,9547 10570,9543 10636,9533 10703,9496 10770,9469 10836,9455 10903,9427 10970,9404 11036,9385 11103,9385 11170,9325 11236,9264 11303,9227 11370,9218 11436,9190 11503,9172 11570,9167 11636,9130 11703,9070 11770,9019 11836,8968 11903,8949 11970,8917 12036,8889 12103,8810 12170,8731 12236,8694 12303,8601 12370,8559 12436,8522 12503,8485 12569,8277 12636,7984 12703,7854 12769,7632 12836,7358 12903,7298 12969,7261 13036,6834 13103,6556 13169,6324 13236,6083 13303,5726 13369,5620 13436,5587 13503,5175 13569,4924 13636,4706 13703,4488 13769,4126 13836,4057 13903,4010 13969,3542 14036,3106 14103,2763 14169,2600 14236,2354 14303,2299 14369,2294 14436,1993 14503,1798 14569,1557 14636,1469 14703,1162"/>
 <path fill="none" stroke="rgb(255,66,14)" stroke-width="100" stroke-linejoin="round" d="M 1306,11213 L 1372,11213 1439,11208 1505,11203 1572,11203 1639,11203 1705,11203 1772,11199 1839,11199 1905,11199 1972,11194 2039,11194 2105,11194 2172,11194 2239,11180 2305,11175 2372,11175 2439,11175 2505,11175 2572,11175 2639,11175 2705,11175 2772,11175 2839,11175 2905,11175 2972,11175 3039,11171 3105,11171 3172,11166 3239,11166 3305,11166 3372,11161 3439,11161 3505,11161 3572,11161 3638,11161 3705,11157 3772,11152 3838,11152 3905,11148 3972,11148 4038,11148 4105,11143 4172,11143 4238,11143 4305,11138 4372,11138 4438,11134 4505,11129 4572,11120 4638,11120 4705,11115 4772,11110 4838,11110 4905,11110 4972,11097 5038,11087 5105,11083 5172,11073 5238,11064 5305,11055 5372,11050 5438,11046 5505,11046 5572,11041 5638,11041 5705,11036 5772,11032 5838,11022 5905,11004 5971,10999 6038,10981 6105,10981 6171,10971 6238,10971 6305,10962 6371,10953 6438,10943 6505,10930 6571,10925 6638,10916 6705,10916 6771,10906 6838,10902 6905,10874 6971,10865 7038,10855 7105,10837 7171,10823 7238,10809 7305,10800 7371,10772 7438,10767 7504,10739 7570,10735 7637,10721 7704,10712 7770,10702 7837,10698 7904,10679 7970,10674 8037,10656 8103,10633 8170,10623 8237,10610 8303,10591 8370,10577 8437,10563 8503,10554 8570,10549 8637,10545 8703,10531 8770,10512 8837,10494 8903,10484 8970,10470 9037,10447 9103,10433 9170,10419 9237,10396 9303,10359 9370,10336 9437,10294 9503,10271 9570,10238 9637,10211 9703,10174 9770,10132 9837,10104 9903,10076 9970,10034 10037,9983 10103,9951 10170,9909 10237,9877 10303,9863 10370,9798 10436,9756 10503,9719 10570,9691 10636,9649 10703,9598 10770,9533 10836,9455 10903,9385 10970,9329 11036,9255 11103,9172 11170,9093 11236,8972 11303,8889 11370,8796 11436,8708 11503,8610 11570,8471 11636,8369 11703,8230 11770,8035 11836,7924 11903,7817 11970,7683 12036,7613 12103,7469 12170,7326 12236,7154 12303,7015 12370,6899 12436,6769 12503,6644 12569,6528 12636,6352 12703,6152 12769,6073 12836,5949 12903,5819 12969,5680 13036,5532 13103,5369 13169,5198 13236,5049 13303,4919 13369,4854 13436,4729 13503,4637 13569,4544 13636,4446 13703,4386 13769,4284 13836,4196 13903,4103 13969,4034 14036,3987 14103,3922 14169,3843 14236,3778 14303,3774 14369,3774 14436,3644 14503,3593 14569,3528"/>
 <path fill="none" stroke="rgb(255,211,32)" stroke-width="100" stroke-linejoin="round" d="M 1306,11213 L 1372,11208 1439,11203 1505,11203 1572,11203 1639,11194 1705,11189 1772,11185 1839,11185 1905,11185 1972,11180 2039,11175 2105,11171 2172,11166 2239,11161 2305,11161 2372,11161 2439,11161 2505,11157 2572,11157 2639,11157 2705,11157 2772,11157 2839,11157 2905,11157 2972,11157 3039,11157 3105,11157 3172,11157 3239,11157 3305,11157 3372,11157 3439,11157 3505,11157 3572,11157 3638,11157 3705,11157 3772,11157 3838,11157 3905,11157 3972,11157 4038,11157 4105,11157 4172,11157 4238,11157 4305,11157 4372,11157 4438,11157 4505,11157 4572,11157 4638,11157 4705,11157 4772,11157 4838,11157 4905,11157 4972,11157 5038,11157 5105,11157 5172,11157 5238,11157 5305,11157 5372,11157 5438,11157 5505,11157 5572,11157 5638,11152 5705,11152 5772,11152 5838,11152 5905,11143 5971,11138 6038,11138 6105,11134 6171,11129 6238,11129 6305,11129 6371,11115 6438,11115 6505,11115 6571,11115 6638,11115 6705,11115 6771,11115 6838,11106 6905,11101 6971,11092 7038,11083 7105,11078 7171,11078 7238,11078 7305,11050 7371,11050 7438,11050 7504,11036 7570,11027 7637,11027 7704,11027 7770,10990 7837,10957 7904,10939 7970,10911 8037,10892 8103,10865 8170,10837 8237,10897 8303,10804 8370,10777 8437,10753 8503,10716 8570,10716 8637,10716 8703,10637 8770,10619 8837,10582 8903,10554 8970,10526 9037,10526 9103,10526 9170,10498 9237,10466 9303,10419 9370,10396 9437,10368 9503,10341 9570,10313 9637,10285 9703,10243 9770,10201 9837,10183 9903,10160 9970,10132 10037,10109 10103,10095 10170,10062 10237,10020 10303,9993 10370,9951 10436,9914 10503,9895 10570,9867 10636,9830 10703,9793 10770,9779 10836,9747 10903,9719 10970,9691 11036,9673 11103,9645 11170,9631 11236,9608 11303,9594 11370,9575 11436,9552 11503,9515 11570,9473 11636,9464 11703,9436 11770,9422 11836,9408 11903,9399 11970,9385 12036,9376 12103,9348 12170,9334 12236,9315 12303,9288 12370,9274 12436,9260 12503,9251 12569,9237 12636,9218 12703,9204 12769,9186 12836,9172 12903,9172 12969,9148 13036,9135 13103,9125 13169,9125 13236,9125 13303,9116 13369,9116 13436,9107 13503,9088 13569,9084 13636,9070 13703,9056 13769,9046 13836,9042 13903,9023 13969,9014 14036,9009 14103,9005 14169,8995 14236,8986 14303,8982 14369,8963 14436,8949 14503,8940 14569,8930 14636,8921 14703,8921"/>
 <text class="TextShape"><tspan class="TextParagraph" font-family="Liberation Sans, sans-serif" font-size="353px" font-weight="400"><tspan class="TextPosition" x="882" y="11781"><tspan fill="rgb(0,0,0)" stroke="none">27/07</tspan></tspan></tspan></text>
 <text class="TextShape"><tspan class="TextParagraph" font-family="Liberation Sans, sans-serif" font-size="353px" font-weight="400"><tspan class="TextPosition" x="2948" y="11781"><tspan fill="rgb(0,0,0)" stroke="none">27/08</tspan></tspan></tspan></text>
 <text class="TextShape"><tspan class="TextParagraph" font-family="Liberation Sans, sans-serif" font-size="353px" font-weight="400"><tspan class="TextPosition" x="5014" y="11781"><tspan fill="rgb(0,0,0)" stroke="none">27/09</tspan></tspan></tspan></text>
 <text class="TextShape"><tspan class="TextParagraph" font-family="Liberation Sans, sans-serif" font-size="353px" font-weight="400"><tspan class="TextPosition" x="7014" y="11781"><tspan fill="rgb(0,0,0)" stroke="none">27/10</tspan></tspan></tspan></text>
 <text class="TextShape"><tspan class="TextParagraph" font-family="Liberation Sans, sans-serif" font-size="353px" font-weight="400"><tspan class="TextPosition" x="9080" y="11781"><tspan fill="rgb(0,0,0)" stroke="none">27/11</tspan></tspan></tspan></text>
 <text class="TextShape"><tspan class="TextParagraph" font-family="Liberation Sans, sans-serif" font-size="353px" font-weight="400"><tspan class="TextPosition" x="11080" y="11781"><tspan fill="rgb(0,0,0)" stroke="none">27/12</tspan></tspan></tspan></text>
 <text class="TextShape"><tspan class="TextParagraph" font-family="Liberation Sans, sans-serif" font-size="353px" font-weight="400"><tspan class="TextPosition" x="13146" y="11781"><tspan fill="rgb(0,0,0)" stroke="none">27/01</tspan></tspan></tspan></text>
 <text class="TextShape"><tspan class="TextParagraph" font-family="Liberation Sans, sans-serif" font-size="353px" font-weight="400"><tspan class="TextPosition" x="500" y="9014"><tspan fill="rgb(0,0,0)" stroke="none">500</tspan></tspan></tspan></text>
 <text class="TextShape"><tspan class="TextParagraph" font-family="Liberation Sans, sans-serif" font-size="353px" font-weight="400"><tspan class="TextPosition" x="209" y="6695"><tspan fill="rgb(0,0,0)" stroke="none">1.000</tspan></tspan></tspan></text>
 <text class="TextShape"><tspan class="TextParagraph" font-family="Liberation Sans, sans-serif" font-size="353px" font-weight="400"><tspan class="TextPosition" x="209" y="4376"><tspan fill="rgb(0,0,0)" stroke="none">1.500</tspan></tspan></tspan></text>
 <text class="TextShape"><tspan class="TextParagraph" font-family="Liberation Sans, sans-serif" font-size="353px" font-weight="400"><tspan class="TextPosition" x="209" y="2057"><tspan fill="rgb(0,0,0)" stroke="none">2.000</tspan></tspan></tspan></text>
 <text class="TextShape"><tspan class="TextParagraph" font-family="Liberation Sans, sans-serif" font-size="459px" font-weight="400"><tspan class="TextPosition" x="2059" y="538"><tspan fill="rgb(0,0,0)" stroke="none">Covid-19. Muertes acumuladas en Europa Occidental (3)</tspan></tspan></tspan></text>
 <path fill="none" stroke="rgb(0,69,134)" stroke-width="100" stroke-linejoin="round" d="M 2381,1405 L 3181,1405"/>
 <path fill="none" stroke="rgb(255,66,14)" stroke-width="100" stroke-linejoin="round" d="M 2381,2563 L 3181,2563"/>
 <path fill="none" stroke="rgb(255,211,32)" stroke-width="100" stroke-linejoin="round" d="M 2381,3721 L 3181,3721"/>
 <text class="TextShape"><tspan class="TextParagraph" font-family="Liberation Sans, sans-serif" font-size="353px" font-weight="400"><tspan class="TextPosition" x="3281" y="1525"><tspan fill="rgb(0,0,0)" stroke="none">Irlanda</tspan></tspan></tspan></text>
 <text class="TextShape"><tspan class="TextParagraph" font-family="Liberation Sans, sans-serif" font-size="353px" font-weight="400"><tspan class="TextPosition" x="3281" y="2683"><tspan fill="rgb(0,0,0)" stroke="none">Dinamarca</tspan></tspan></tspan></text>
 <text class="TextShape"><tspan class="TextParagraph" font-family="Liberation Sans, sans-serif" font-size="353px" font-weight="400"><tspan class="TextPosition" x="3281" y="3841"><tspan fill="rgb(0,0,0)" stroke="none">Luxemburgo</tspan></tspan></tspan></text>
</svg>