<?xml version="1.0" encoding="UTF-8"?>
<!DOCTYPE svg PUBLIC "-//W3C//DTD SVG 1.1//EN" "http://www.w3.org/Graphics/SVG/1.1/DTD/svg11.dtd">
<svg width="180mm" height="120mm" viewBox="0 0 18000 12000" version="1.1" xmlns="http://www.w3.org/2000/svg" xmlns:xlink="http://www.w3.org/1999/xlink" stroke-width="28.222" stroke-linejoin="round" xml:space="preserve">
 <path fill="rgb(255,255,255)" stroke="none" d="M 9000,12000 L 0,12000 0,0 18000,0 18000,12000 9000,12000 Z"/>
 <path fill="none" stroke="rgb(178,178,178)" stroke-width="50" stroke-linejoin="round" d="M 8240,11337 L 1280,11337 1280,934 15199,934 15199,11337 8240,11337 Z"/>
 <path fill="none" stroke="rgb(0,0,0)" stroke-linejoin="round" d="M 15199,11336 L 1280,11336"/>
 <path fill="none" stroke="rgb(0,0,0)" stroke-linejoin="round" d="M 15199,10295 L 1280,10295"/>
 <path fill="none" stroke="rgb(0,0,0)" stroke-linejoin="round" d="M 15199,9255 L 1280,9255"/>
 <path fill="none" stroke="rgb(0,0,0)" stroke-linejoin="round" d="M 15199,8214 L 1280,8214"/>
 <path fill="none" stroke="rgb(0,0,0)" stroke-linejoin="round" d="M 15199,7174 L 1280,7174"/>
 <path fill="none" stroke="rgb(0,0,0)" stroke-linejoin="round" d="M 15199,6134 L 1280,6134"/>
 <path fill="none" stroke="rgb(0,0,0)" stroke-linejoin="round" d="M 15199,5094 L 1280,5094"/>
 <path fill="none" stroke="rgb(0,0,0)" stroke-linejoin="round" d="M 15199,4054 L 1280,4054"/>
 <path fill="none" stroke="rgb(0,0,0)" stroke-linejoin="round" d="M 15199,3013 L 1280,3013"/>
 <path fill="none" stroke="rgb(0,0,0)" stroke-linejoin="round" d="M 15199,1973 L 1280,1973"/>
 <path fill="none" stroke="rgb(0,0,0)" stroke-linejoin="round" d="M 15199,933 L 1280,933"/>
 <path fill="none" stroke="rgb(179,179,179)" stroke-linejoin="round" d="M 1280,11486 L 1280,11336"/>
 <path fill="none" stroke="rgb(179,179,179)" stroke-linejoin="round" d="M 1280,11486 L 1280,11336"/>
 <path fill="none" stroke="rgb(179,179,179)" stroke-linejoin="round" d="M 2182,11486 L 2182,11336"/>
 <path fill="none" stroke="rgb(179,179,179)" stroke-linejoin="round" d="M 2182,11486 L 2182,11336"/>
 <path fill="none" stroke="rgb(179,179,179)" stroke-linejoin="round" d="M 3084,11486 L 3084,11336"/>
 <path fill="none" stroke="rgb(179,179,179)" stroke-linejoin="round" d="M 3084,11486 L 3084,11336"/>
 <path fill="none" stroke="rgb(179,179,179)" stroke-linejoin="round" d="M 3986,11486 L 3986,11336"/>
 <path fill="none" stroke="rgb(179,179,179)" stroke-linejoin="round" d="M 3986,11486 L 3986,11336"/>
 <path fill="none" stroke="rgb(179,179,179)" stroke-linejoin="round" d="M 4888,11486 L 4888,11336"/>
 <path fill="none" stroke="rgb(179,179,179)" stroke-linejoin="round" d="M 4888,11486 L 4888,11336"/>
 <path fill="none" stroke="rgb(179,179,179)" stroke-linejoin="round" d="M 5791,11486 L 5791,11336"/>
 <path fill="none" stroke="rgb(179,179,179)" stroke-linejoin="round" d="M 5791,11486 L 5791,11336"/>
 <path fill="none" stroke="rgb(179,179,179)" stroke-linejoin="round" d="M 6693,11486 L 6693,11336"/>
 <path fill="none" stroke="rgb(179,179,179)" stroke-linejoin="round" d="M 6693,11486 L 6693,11336"/>
 <path fill="none" stroke="rgb(179,179,179)" stroke-linejoin="round" d="M 7595,11486 L 7595,11336"/>
 <path fill="none" stroke="rgb(179,179,179)" stroke-linejoin="round" d="M 7595,11486 L 7595,11336"/>
 <path fill="none" stroke="rgb(179,179,179)" stroke-linejoin="round" d="M 8497,11486 L 8497,11336"/>
 <path fill="none" stroke="rgb(179,179,179)" stroke-linejoin="round" d="M 8497,11486 L 8497,11336"/>
 <path fill="none" stroke="rgb(179,179,179)" stroke-linejoin="round" d="M 9399,11486 L 9399,11336"/>
 <path fill="none" stroke="rgb(179,179,179)" stroke-linejoin="round" d="M 9399,11486 L 9399,11336"/>
 <path fill="none" stroke="rgb(179,179,179)" stroke-linejoin="round" d="M 10301,11486 L 10301,11336"/>
 <path fill="none" stroke="rgb(179,179,179)" stroke-linejoin="round" d="M 10301,11486 L 10301,11336"/>
 <path fill="none" stroke="rgb(179,179,179)" stroke-linejoin="round" d="M 11203,11486 L 11203,11336"/>
 <path fill="none" stroke="rgb(179,179,179)" stroke-linejoin="round" d="M 11203,11486 L 11203,11336"/>
 <path fill="none" stroke="rgb(179,179,179)" stroke-linejoin="round" d="M 12105,11486 L 12105,11336"/>
 <path fill="none" stroke="rgb(179,179,179)" stroke-linejoin="round" d="M 12105,11486 L 12105,11336"/>
 <path fill="none" stroke="rgb(179,179,179)" stroke-linejoin="round" d="M 13007,11486 L 13007,11336"/>
 <path fill="none" stroke="rgb(179,179,179)" stroke-linejoin="round" d="M 13007,11486 L 13007,11336"/>
 <path fill="none" stroke="rgb(179,179,179)" stroke-linejoin="round" d="M 13910,11486 L 13910,11336"/>
 <path fill="none" stroke="rgb(179,179,179)" stroke-linejoin="round" d="M 13910,11486 L 13910,11336"/>
 <path fill="none" stroke="rgb(179,179,179)" stroke-linejoin="round" d="M 14812,11486 L 14812,11336"/>
 <path fill="none" stroke="rgb(179,179,179)" stroke-linejoin="round" d="M 14812,11486 L 14812,11336"/>
 <path fill="none" stroke="rgb(179,179,179)" stroke-linejoin="round" d="M 1280,11336 L 15199,11336"/>
 <path fill="none" stroke="rgb(0,0,0)" stroke-linejoin="round" d="M 1130,11336 L 1280,11336"/>
 <path fill="none" stroke="rgb(0,0,0)" stroke-linejoin="round" d="M 1130,11336 L 1280,11336"/>
 <path fill="none" stroke="rgb(0,0,0)" stroke-linejoin="round" d="M 1130,10295 L 1280,10295"/>
 <path fill="none" stroke="rgb(0,0,0)" stroke-linejoin="round" d="M 1130,10295 L 1280,10295"/>
 <path fill="none" stroke="rgb(0,0,0)" stroke-linejoin="round" d="M 1130,9255 L 1280,9255"/>
 <path fill="none" stroke="rgb(0,0,0)" stroke-linejoin="round" d="M 1130,9255 L 1280,9255"/>
 <path fill="none" stroke="rgb(0,0,0)" stroke-linejoin="round" d="M 1130,8214 L 1280,8214"/>
 <path fill="none" stroke="rgb(0,0,0)" stroke-linejoin="round" d="M 1130,8214 L 1280,8214"/>
 <path fill="none" stroke="rgb(0,0,0)" stroke-linejoin="round" d="M 1130,7174 L 1280,7174"/>
 <path fill="none" stroke="rgb(0,0,0)" stroke-linejoin="round" d="M 1130,7174 L 1280,7174"/>
 <path fill="none" stroke="rgb(0,0,0)" stroke-linejoin="round" d="M 1130,6134 L 1280,6134"/>
 <path fill="none" stroke="rgb(0,0,0)" stroke-linejoin="round" d="M 1130,6134 L 1280,6134"/>
 <path fill="none" stroke="rgb(0,0,0)" stroke-linejoin="round" d="M 1130,5094 L 1280,5094"/>
 <path fill="none" stroke="rgb(0,0,0)" stroke-linejoin="round" d="M 1130,5094 L 1280,5094"/>
 <path fill="none" stroke="rgb(0,0,0)" stroke-linejoin="round" d="M 1130,4054 L 1280,4054"/>
 <path fill="none" stroke="rgb(0,0,0)" stroke-linejoin="round" d="M 1130,4054 L 1280,4054"/>
 <path fill="none" stroke="rgb(0,0,0)" stroke-linejoin="round" d="M 1130,3013 L 1280,3013"/>
 <path fill="none" stroke="rgb(0,0,0)" stroke-linejoin="round" d="M 1130,3013 L 1280,3013"/>
 <path fill="none" stroke="rgb(0,0,0)" stroke-linejoin="round" d="M 1130,1973 L 1280,1973"/>
 <path fill="none" stroke="rgb(0,0,0)" stroke-linejoin="round" d="M 1130,1973 L 1280,1973"/>
 <path fill="none" stroke="rgb(0,0,0)" stroke-linejoin="round" d="M 1130,933 L 1280,933"/>
 <path fill="none" stroke="rgb(0,0,0)" stroke-linejoin="round" d="M 1130,933 L 1280,933"/>
 <path fill="none" stroke="rgb(0,0,0)" stroke-linejoin="round" d="M 1280,11336 L 1280,933"/>
 <path fill="rgb(255,166,166)" stroke="none" d="M 1280,11336 L 1408,8480 1537,8214 1666,6836 1795,8735 1924,11336 2053,11336 2182,7611 2311,10957 2440,8735 2568,9717 2697,8363 2826,11336 2955,11336 3084,9780 3213,8587 3342,7798 3471,9152 3600,9385 3728,11336 3857,11336 3986,7868 4115,9000 4244,10428 4373,9322 4502,8553 4631,9569 4760,10919 4888,9198 5017,10112 5146,11336 5275,7419 5404,8320 5533,8935 5662,9602 5791,9032 5920,9271 6048,8786 6177,9190 6306,10439 6435,8788 6564,10035 6693,9647 6822,9151 6951,9106 7080,9409 7208,5932 7337,7934 7466,9648 7595,9255 7724,9495 7853,9984 7982,9387 8111,6065 8240,8477 8368,9789 8497,9263 8626,9431 8755,9732 8884,9053 9012,6915 9141,7982 9270,7910 9399,8582 9527,9632 9656,9602 9785,9554 9914,7511 10043,8904 10172,8440 10301,8860 10430,10137 10559,8668 10687,9114 10816,9192 10945,8882 11074,8856 11203,9010 11332,9408 11461,9517 11590,9640 11719,8778 11847,8930 11976,8328 12105,8812 12234,8910 12363,9133 12492,9180 12621,8275 12750,9066 12879,9145 13007,8590 13136,8487 13265,9592 13394,9361 13523,7763 13652,9363 13781,8644 13910,8072 14039,8051 14167,10180 14296,9459 14425,7993 14554,9330 14683,8784 14812,8433 14941,8203 15070,10096 15199,9647 15199,11336 1280,11336 Z"/>
 <path fill="none" stroke="rgb(0,0,0)" stroke-width="50" stroke-linejoin="round" d="M 1280,11336 L 1408,8480 1537,8214 1666,6836 1795,8735 1924,11336 2053,11336 2182,7611 2311,10957 2440,8735 2568,9717 2697,8363 2826,11336 2955,11336 3084,9780 3213,8587 3342,7798 3471,9152 3600,9385 3728,11336 3857,11336 3986,7868 4115,9000 4244,10428 4373,9322 4502,8553 4631,9569 4760,10919 4888,9198 5017,10112 5146,11336 5275,7419 5404,8320 5533,8935 5662,9602 5791,9032 5920,9271 6048,8786 6177,9190 6306,10439 6435,8788 6564,10035 6693,9647 6822,9151 6951,9106 7080,9409 7208,5932 7337,7934 7466,9648 7595,9255 7724,9495 7853,9984 7982,9387 8111,6065 8240,8477 8368,9789 8497,9263 8626,9431 8755,9732 8884,9053 9012,6915 9141,7982 9270,7910 9399,8582 9527,9632 9656,9602 9785,9554 9914,7511 10043,8904 10172,8440 10301,8860 10430,10137 10559,8668 10687,9114 10816,9192 10945,8882 11074,8856 11203,9010 11332,9408 11461,9517 11590,9640 11719,8778 11847,8930 11976,8328 12105,8812 12234,8910 12363,9133 12492,9180 12621,8275 12750,9066 12879,9145 13007,8590 13136,8487 13265,9592 13394,9361 13523,7763 13652,9363 13781,8644 13910,8072 14039,8051 14167,10180 14296,9459 14425,7993 14554,9330 14683,8784 14812,8433 14941,8203 15070,10096 15199,9647 15199,11336 1280,11336 Z"/>
 <path fill="rgb(255,255,215)" stroke="none" d="M 1280,11336 L 1408,8072 1537,7174 1666,6274 1795,8262 1924,11336 2053,11336 2182,4144 2311,6039 2440,8446 2568,9486 2697,7620 2826,11336 2955,11336 3084,2683 3213,7606 3342,7382 3471,5813 3600,8084 3728,11336 3857,11336 3986,3496 4115,6452 4244,3654 4373,6637 4502,5530 4631,9569 4760,10919 4888,4353 5017,6134 5146,8903 5275,4360 5404,6058 5533,8935 5662,9602 5791,2441 5920,4665 6048,4503 6177,4901 6306,2188 6435,8788 6564,10035 6693,3027 6822,4669 6951,5949 7080,3938 7208,2689 7337,7934 7466,9648 7595,3075 7724,3637 7853,2960 7982,3076 8111,2986 8240,8477 8368,9789 8497,2693 8626,3546 8755,4885 8884,5366 9012,3556 9141,7982 9270,7910 9399,2496 9527,5563 9656,4731 9785,4410 9914,4335 10043,8904 10172,8440 10301,3874 10430,5399 10559,6134 10687,5433 10816,4453 10945,8882 11074,8856 11203,4237 11332,7981 11461,5863 11590,6943 11719,5588 11847,8930 11976,8328 12105,5063 12234,6893 12363,7025 12492,7118 12621,5903 12750,9066 12879,9145 13007,5611 13136,7032 13265,8392 13394,7907 13523,6196 13652,9363 13781,8644 13910,5099 14039,7135 14167,5311 14296,7557 14425,6592 14554,9330 14683,8784 14812,5721 14941,7148 15070,8778 15199,8232 15199,9647 15070,10096 14941,8203 14812,8433 14683,8784 14554,9330 14425,7993 14296,9459 14167,10180 14039,8051 13910,8072 13781,8644 13652,9363 13523,7763 13394,9361 13265,9592 13136,8487 13007,8590 12879,9145 12750,9066 12621,8275 12492,9180 12363,9133 12234,8910 12105,8812 11976,8328 11847,8930 11719,8778 11590,9640 11461,9517 11332,9408 11203,9010 11074,8856 10945,8882 10816,9192 10687,9114 10559,8668 10430,10137 10301,8860 10172,8440 10043,8904 9914,7511 9785,9554 9656,9602 9527,9632 9399,8582 9270,7910 9141,7982 9012,6915 8884,9053 8755,9732 8626,9431 8497,9263 8368,9789 8240,8477 8111,6065 7982,9387 7853,9984 7724,9495 7595,9255 7466,9648 7337,7934 7208,5932 7080,9409 6951,9106 6822,9151 6693,9647 6564,10035 6435,8788 6306,10439 6177,9190 6048,8786 5920,9271 5791,9032 5662,9602 5533,8935 5404,8320 5275,7419 5146,11336 5017,10112 4888,9198 4760,10919 4631,9569 4502,8553 4373,9322 4244,10428 4115,9000 3986,7868 3857,11336 3728,11336 3600,9385 3471,9152 3342,7798 3213,8587 3084,9780 2955,11336 2826,11336 2697,8363 2568,9717 2440,8735 2311,10957 2182,7611 2053,11336 1924,11336 1795,8735 1666,6836 1537,8214 1408,8480 1280,11336 Z"/>
 <path fill="none" stroke="rgb(0,0,0)" stroke-width="50" stroke-linejoin="round" d="M 1280,11336 L 1408,8072 1537,7174 1666,6274 1795,8262 1924,11336 2053,11336 2182,4144 2311,6039 2440,8446 2568,9486 2697,7620 2826,11336 2955,11336 3084,2683 3213,7606 3342,7382 3471,5813 3600,8084 3728,11336 3857,11336 3986,3496 4115,6452 4244,3654 4373,6637 4502,5530 4631,9569 4760,10919 4888,4353 5017,6134 5146,8903 5275,4360 5404,6058 5533,8935 5662,9602 5791,2441 5920,4665 6048,4503 6177,4901 6306,2188 6435,8788 6564,10035 6693,3027 6822,4669 6951,5949 7080,3938 7208,2689 7337,7934 7466,9648 7595,3075 7724,3637 7853,2960 7982,3076 8111,2986 8240,8477 8368,9789 8497,2693 8626,3546 8755,4885 8884,5366 9012,3556 9141,7982 9270,7910 9399,2496 9527,5563 9656,4731 9785,4410 9914,4335 10043,8904 10172,8440 10301,3874 10430,5399 10559,6134 10687,5433 10816,4453 10945,8882 11074,8856 11203,4237 11332,7981 11461,5863 11590,6943 11719,5588 11847,8930 11976,8328 12105,5063 12234,6893 12363,7025 12492,7118 12621,5903 12750,9066 12879,9145 13007,5611 13136,7032 13265,8392 13394,7907 13523,6196 13652,9363 13781,8644 13910,5099 14039,7135 14167,5311 14296,7557 14425,6592 14554,9330 14683,8784 14812,5721 14941,7148 15070,8778 15199,8232 15199,9647 15070,10096 14941,8203 14812,8433 14683,8784 14554,9330 14425,7993 14296,9459 14167,10180 14039,8051 13910,8072 13781,8644 13652,9363 13523,7763 13394,9361 13265,9592 13136,8487 13007,8590 12879,9145 12750,9066 12621,8275 12492,9180 12363,9133 12234,8910 12105,8812 11976,8328 11847,8930 11719,8778 11590,9640 11461,9517 11332,9408 11203,9010 11074,8856 10945,8882 10816,9192 10687,9114 10559,8668 10430,10137 10301,8860 10172,8440 10043,8904 9914,7511 9785,9554 9656,9602 9527,9632 9399,8582 9270,7910 9141,7982 9012,6915 8884,9053 8755,9732 8626,9431 8497,9263 8368,9789 8240,8477 8111,6065 7982,9387 7853,9984 7724,9495 7595,9255 7466,9648 7337,7934 7208,5932 7080,9409 6951,9106 6822,9151 6693,9647 6564,10035 6435,8788 6306,10439 6177,9190 6048,8786 5920,9271 5791,9032 5662,9602 5533,8935 5404,8320 5275,7419 5146,11336 5017,10112 4888,9198 4760,10919 4631,9569 4502,8553 4373,9322 4244,10428 4115,9000 3986,7868 3857,11336 3728,11336 3600,9385 3471,9152 3342,7798 3213,8587 3084,9780 2955,11336 2826,11336 2697,8363 2568,9717 2440,8735 2311,10957 2182,7611 2053,11336 1924,11336 1795,8735 1666,6836 1537,8214 1408,8480 1280,11336 Z"/>
 <path fill="rgb(222,230,239)" stroke="none" d="M 1280,11336 L 1408,8072 1537,7174 1666,6274 1795,8262 1924,11336 2053,11336 2182,4144 2311,6039 2440,8446 2568,9486 2697,7620 2826,11336 2955,11336 3084,2683 3213,7606 3342,7382 3471,5813 3600,5051 3728,11107 3857,9168 3986,3043 4115,5179 4244,2800 4373,5631 4502,5288 4631,6035 4760,8422 4888,3783 5017,4911 5146,8075 5275,2891 5404,4702 5533,4134 5662,9168 5791,2283 5920,4427 6048,3483 6177,3507 6306,1740 6435,6240 6564,9168 6693,2824 6822,2944 6951,5020 7080,2859 7208,2284 7337,6134 7466,8242 7595,2524 7724,2623 7853,2373 7982,2257 8111,2062 8240,5391 8368,7258 8497,2262 8626,2642 8755,3506 8884,3610 9012,2554 9141,4974 9270,5754 9399,2055 9527,4140 9656,2777 9785,2742 9914,2479 10043,6134 10172,5456 10301,3193 10430,4019 10559,3800 10687,3183 10816,2742 10945,5203 11074,5353 11203,3013 11332,5430 11461,3468 11590,4285 11719,3634 11847,4878 11976,5958 12105,3680 12234,4663 12363,4446 12492,4605 12621,3603 12750,6183 12879,6294 13007,4522 13136,5034 13265,6176 13394,5555 13523,4400 13652,6479 13781,6757 13910,4032 14039,5609 14167,3834 14296,5605 14425,5160 14554,6605 14683,7310 14812,5621 14941,5333 15070,6530 15199,5995 15199,8232 15070,8778 14941,7148 14812,5721 14683,8784 14554,9330 14425,6592 14296,7557 14167,5311 14039,7135 13910,5099 13781,8644 13652,9363 13523,6196 13394,7907 13265,8392 13136,7032 13007,5611 12879,9145 12750,9066 12621,5903 12492,7118 12363,7025 12234,6893 12105,5063 11976,8328 11847,8930 11719,5588 11590,6943 11461,5863 11332,7981 11203,4237 11074,8856 10945,8882 10816,4453 10687,5433 10559,6134 10430,5399 10301,3874 10172,8440 10043,8904 9914,4335 9785,4410 9656,4731 9527,5563 9399,2496 9270,7910 9141,7982 9012,3556 8884,5366 8755,4885 8626,3546 8497,2693 8368,9789 8240,8477 8111,2986 7982,3076 7853,2960 7724,3637 7595,3075 7466,9648 7337,7934 7208,2689 7080,3938 6951,5949 6822,4669 6693,3027 6564,10035 6435,8788 6306,2188 6177,4901 6048,4503 5920,4665 5791,2441 5662,9602 5533,8935 5404,6058 5275,4360 5146,8903 5017,6134 4888,4353 4760,10919 4631,9569 4502,5530 4373,6637 4244,3654 4115,6452 3986,3496 3857,11336 3728,11336 3600,8084 3471,5813 3342,7382 3213,7606 3084,2683 2955,11336 2826,11336 2697,7620 2568,9486 2440,8446 2311,6039 2182,4144 2053,11336 1924,11336 1795,8262 1666,6274 1537,7174 1408,8072 1280,11336 Z"/>
 <path fill="none" stroke="rgb(0,0,0)" stroke-width="50" stroke-linejoin="round" d="M 1280,11336 L 1408,8072 1537,7174 1666,6274 1795,8262 1924,11336 2053,11336 2182,4144 2311,6039 2440,8446 2568,9486 2697,7620 2826,11336 2955,11336 3084,2683 3213,7606 3342,7382 3471,5813 3600,5051 3728,11107 3857,9168 3986,3043 4115,5179 4244,2800 4373,5631 4502,5288 4631,6035 4760,8422 4888,3783 5017,4911 5146,8075 5275,2891 5404,4702 5533,4134 5662,9168 5791,2283 5920,4427 6048,3483 6177,3507 6306,1740 6435,6240 6564,9168 6693,2824 6822,2944 6951,5020 7080,2859 7208,2284 7337,6134 7466,8242 7595,2524 7724,2623 7853,2373 7982,2257 8111,2062 8240,5391 8368,7258 8497,2262 8626,2642 8755,3506 8884,3610 9012,2554 9141,4974 9270,5754 9399,2055 9527,4140 9656,2777 9785,2742 9914,2479 10043,6134 10172,5456 10301,3193 10430,4019 10559,3800 10687,3183 10816,2742 10945,5203 11074,5353 11203,3013 11332,5430 11461,3468 11590,4285 11719,3634 11847,4878 11976,5958 12105,3680 12234,4663 12363,4446 12492,4605 12621,3603 12750,6183 12879,6294 13007,4522 13136,5034 13265,6176 13394,5555 13523,4400 13652,6479 13781,6757 13910,4032 14039,5609 14167,3834 14296,5605 14425,5160 14554,6605 14683,7310 14812,5621 14941,5333 15070,6530 15199,5995 15199,8232 15070,8778 14941,7148 14812,5721 14683,8784 14554,9330 14425,6592 14296,7557 14167,5311 14039,7135 13910,5099 13781,8644 13652,9363 13523,6196 13394,7907 13265,8392 13136,7032 13007,5611 12879,9145 12750,9066 12621,5903 12492,7118 12363,7025 12234,6893 12105,5063 11976,8328 11847,8930 11719,5588 11590,6943 11461,5863 11332,7981 11203,4237 11074,8856 10945,8882 10816,4453 10687,5433 10559,6134 10430,5399 10301,3874 10172,8440 10043,8904 9914,4335 9785,4410 9656,4731 9527,5563 9399,2496 9270,7910 9141,7982 9012,3556 8884,5366 8755,4885 8626,3546 8497,2693 8368,9789 8240,8477 8111,2986 7982,3076 7853,2960 7724,3637 7595,3075 7466,9648 7337,7934 7208,2689 7080,3938 6951,5949 6822,4669 6693,3027 6564,10035 6435,8788 6306,2188 6177,4901 6048,4503 5920,4665 5791,2441 5662,9602 5533,8935 5404,6058 5275,4360 5146,8903 5017,6134 4888,4353 4760,10919 4631,9569 4502,5530 4373,6637 4244,3654 4115,6452 3986,3496 3857,11336 3728,11336 3600,8084 3471,5813 3342,7382 3213,7606 3084,2683 2955,11336 2826,11336 2697,7620 2568,9486 2440,8446 2311,6039 2182,4144 2053,11336 1924,11336 1795,8262 1666,6274 1537,7174 1408,8072 1280,11336 Z"/>
 <path fill="rgb(221,232,203)" stroke="none" d="M 1280,11336 L 1408,5829 1537,5926 1666,5432 1795,6134 1924,8858 2053,7868 2182,2602 2311,5094 2440,5557 2568,8099 2697,6877 2826,7680 2955,10180 3084,2294 3213,6428 3342,5302 3471,5043 3600,4726 3728,2076 3857,7434 3986,2440 4115,4648 4244,2426 4373,4960 4502,3957 4631,5447 4760,5510 4888,3213 5017,4605 5146,7402 5275,2279 5404,3345 5533,3734 5662,7434 5791,1806 5920,3792 6048,2871 6177,2434 6306,1246 6435,2843 6564,6134 6693,2013 6822,2370 6951,3719 7080,2089 7208,1608 7337,4934 7466,6274 7595,1667 7724,2285 7853,2020 7982,1751 8111,1720 8240,2647 8368,5150 8497,1597 8626,2300 8755,2760 8884,2601 9012,1964 9141,3512 9270,3597 9399,1511 9527,3659 9656,2254 9785,2063 9914,1832 10043,4608 10172,3828 10301,2619 10430,3511 10559,2767 10687,2540 10816,2191 10945,3886 11074,3951 11203,2059 11332,4698 11461,2716 11590,2686 11719,2844 11847,3608 11976,3516 12105,2419 12234,3839 12363,2730 12492,2795 12621,2668 12750,3683 12879,3878 13007,3015 13136,3830 13265,4713 13394,3731 13523,3096 13652,3852 13781,4334 13910,2204 14039,4252 14167,2778 14296,3393 14425,3359 14554,3802 14683,4183 14812,3735 14941,3844 15070,4178 15199,3468 15199,5995 15070,6530 14941,5333 14812,5621 14683,7310 14554,6605 14425,5160 14296,5605 14167,3834 14039,5609 13910,4032 13781,6757 13652,6479 13523,4400 13394,5555 13265,6176 13136,5034 13007,4522 12879,6294 12750,6183 12621,3603 12492,4605 12363,4446 12234,4663 12105,3680 11976,5958 11847,4878 11719,3634 11590,4285 11461,3468 11332,5430 11203,3013 11074,5353 10945,5203 10816,2742 10687,3183 10559,3800 10430,4019 10301,3193 10172,5456 10043,6134 9914,2479 9785,2742 9656,2777 9527,4140 9399,2055 9270,5754 9141,4974 9012,2554 8884,3610 8755,3506 8626,2642 8497,2262 8368,7258 8240,5391 8111,2062 7982,2257 7853,2373 7724,2623 7595,2524 7466,8242 7337,6134 7208,2284 7080,2859 6951,5020 6822,2944 6693,2824 6564,9168 6435,6240 6306,1740 6177,3507 6048,3483 5920,4427 5791,2283 5662,9168 5533,4134 5404,4702 5275,2891 5146,8075 5017,4911 4888,3783 4760,8422 4631,6035 4502,5288 4373,5631 4244,2800 4115,5179 3986,3043 3857,9168 3728,11107 3600,5051 3471,5813 3342,7382 3213,7606 3084,2683 2955,11336 2826,11336 2697,7620 2568,9486 2440,8446 2311,6039 2182,4144 2053,11336 1924,11336 1795,8262 1666,6274 1537,7174 1408,8072 1280,11336 Z"/>
 <path fill="none" stroke="rgb(0,0,0)" stroke-width="50" stroke-linejoin="round" d="M 1280,11336 L 1408,5829 1537,5926 1666,5432 1795,6134 1924,8858 2053,7868 2182,2602 2311,5094 2440,5557 2568,8099 2697,6877 2826,7680 2955,10180 3084,2294 3213,6428 3342,5302 3471,5043 3600,4726 3728,2076 3857,7434 3986,2440 4115,4648 4244,2426 4373,4960 4502,3957 4631,5447 4760,5510 4888,3213 5017,4605 5146,7402 5275,2279 5404,3345 5533,3734 5662,7434 5791,1806 5920,3792 6048,2871 6177,2434 6306,1246 6435,2843 6564,6134 6693,2013 6822,2370 6951,3719 7080,2089 7208,1608 7337,4934 7466,6274 7595,1667 7724,2285 7853,2020 7982,1751 8111,1720 8240,2647 8368,5150 8497,1597 8626,2300 8755,2760 8884,2601 9012,1964 9141,3512 9270,3597 9399,1511 9527,3659 9656,2254 9785,2063 9914,1832 10043,4608 10172,3828 10301,2619 10430,3511 10559,2767 10687,2540 10816,2191 10945,3886 11074,3951 11203,2059 11332,4698 11461,2716 11590,2686 11719,2844 11847,3608 11976,3516 12105,2419 12234,3839 12363,2730 12492,2795 12621,2668 12750,3683 12879,3878 13007,3015 13136,3830 13265,4713 13394,3731 13523,3096 13652,3852 13781,4334 13910,2204 14039,4252 14167,2778 14296,3393 14425,3359 14554,3802 14683,4183 14812,3735 14941,3844 15070,4178 15199,3468 15199,5995 15070,6530 14941,5333 14812,5621 14683,7310 14554,6605 14425,5160 14296,5605 14167,3834 14039,5609 13910,4032 13781,6757 13652,6479 13523,4400 13394,5555 13265,6176 13136,5034 13007,4522 12879,6294 12750,6183 12621,3603 12492,4605 12363,4446 12234,4663 12105,3680 11976,5958 11847,4878 11719,3634 11590,4285 11461,3468 11332,5430 11203,3013 11074,5353 10945,5203 10816,2742 10687,3183 10559,3800 10430,4019 10301,3193 10172,5456 10043,6134 9914,2479 9785,2742 9656,2777 9527,4140 9399,2055 9270,5754 9141,4974 9012,2554 8884,3610 8755,3506 8626,2642 8497,2262 8368,7258 8240,5391 8111,2062 7982,2257 7853,2373 7724,2623 7595,2524 7466,8242 7337,6134 7208,2284 7080,2859 6951,5020 6822,2944 6693,2824 6564,9168 6435,6240 6306,1740 6177,3507 6048,3483 5920,4427 5791,2283 5662,9168 5533,4134 5404,4702 5275,2891 5146,8075 5017,4911 4888,3783 4760,8422 4631,6035 4502,5288 4373,5631 4244,2800 4115,5179 3986,3043 3857,9168 3728,11107 3600,5051 3471,5813 3342,7382 3213,7606 3084,2683 2955,11336 2826,11336 2697,7620 2568,9486 2440,8446 2311,6039 2182,4144 2053,11336 1924,11336 1795,8262 1666,6274 1537,7174 1408,8072 1280,11336 Z"/>
 <path fill="rgb(183,179,202)" stroke="none" d="M 1280,11336 L 1408,5624 1537,3638 1666,4588 1795,5189 1924,8363 2053,6134 2182,2602 2311,4148 2440,4978 2568,6480 2697,6381 2826,6274 2955,7868 3084,2099 3213,5055 3342,4054 3471,3116 3600,2992 3728,1618 3857,2667 3986,1837 4115,4117 4244,1626 4373,3282 4502,3110 4631,3681 4760,4262 4888,2643 5017,4299 5146,1295 5275,2157 5404,2591 5533,2933 5662,5268 5791,1568 5920,3712 6048,2667 6177,2327 6306,1202 6435,2419 6564,3967 6693,1946 6822,2255 6951,3441 7080,1703 7208,1608 7337,4534 7466,5150 7595,1544 7724,2210 7853,1932 7982,1556 8111,1685 8240,2533 8368,4166 8497,1441 8626,2251 8755,2573 8884,2425 9012,1787 9141,3168 9270,2963 9399,1306 9527,3518 9656,1868 9785,1639 9914,1635 10043,3816 10172,3194 10301,1901 10430,3257 10559,2300 10687,2072 10816,1837 10945,2750 11074,2658 11203,1667 11332,4341 11461,2139 11590,2031 11719,2140 11847,2743 11976,2348 12105,2056 12234,3561 12363,2108 12492,2130 12621,2165 12750,2523 12879,2386 13007,2236 13136,3346 13265,3719 13394,2622 13523,2191 13652,2578 13781,2319 13910,1325 14039,3786 14167,1974 14296,2437 14425,2515 14554,2562 14683,2303 14812,2951 14941,3431 15070,2874 15199,2685 15199,3468 15070,4178 14941,3844 14812,3735 14683,4183 14554,3802 14425,3359 14296,3393 14167,2778 14039,4252 13910,2204 13781,4334 13652,3852 13523,3096 13394,3731 13265,4713 13136,3830 13007,3015 12879,3878 12750,3683 12621,2668 12492,2795 12363,2730 12234,3839 12105,2419 11976,3516 11847,3608 11719,2844 11590,2686 11461,2716 11332,4698 11203,2059 11074,3951 10945,3886 10816,2191 10687,2540 10559,2767 10430,3511 10301,2619 10172,3828 10043,4608 9914,1832 9785,2063 9656,2254 9527,3659 9399,1511 9270,3597 9141,3512 9012,1964 8884,2601 8755,2760 8626,2300 8497,1597 8368,5150 8240,2647 8111,1720 7982,1751 7853,2020 7724,2285 7595,1667 7466,6274 7337,4934 7208,1608 7080,2089 6951,3719 6822,2370 6693,2013 6564,6134 6435,2843 6306,1246 6177,2434 6048,2871 5920,3792 5791,1806 5662,7434 5533,3734 5404,3345 5275,2279 5146,7402 5017,4605 4888,3213 4760,5510 4631,5447 4502,3957 4373,4960 4244,2426 4115,4648 3986,2440 3857,7434 3728,2076 3600,4726 3471,5043 3342,5302 3213,6428 3084,2294 2955,10180 2826,7680 2697,6877 2568,8099 2440,5557 2311,5094 2182,2602 2053,7868 1924,8858 1795,6134 1666,5432 1537,5926 1408,5829 1280,11336 Z"/>
 <path fill="none" stroke="rgb(0,0,0)" stroke-width="50" stroke-linejoin="round" d="M 1280,11336 L 1408,5624 1537,3638 1666,4588 1795,5189 1924,8363 2053,6134 2182,2602 2311,4148 2440,4978 2568,6480 2697,6381 2826,6274 2955,7868 3084,2099 3213,5055 3342,4054 3471,3116 3600,2992 3728,1618 3857,2667 3986,1837 4115,4117 4244,1626 4373,3282 4502,3110 4631,3681 4760,4262 4888,2643 5017,4299 5146,1295 5275,2157 5404,2591 5533,2933 5662,5268 5791,1568 5920,3712 6048,2667 6177,2327 6306,1202 6435,2419 6564,3967 6693,1946 6822,2255 6951,3441 7080,1703 7208,1608 7337,4534 7466,5150 7595,1544 7724,2210 7853,1932 7982,1556 8111,1685 8240,2533 8368,4166 8497,1441 8626,2251 8755,2573 8884,2425 9012,1787 9141,3168 9270,2963 9399,1306 9527,3518 9656,1868 9785,1639 9914,1635 10043,3816 10172,3194 10301,1901 10430,3257 10559,2300 10687,2072 10816,1837 10945,2750 11074,2658 11203,1667 11332,4341 11461,2139 11590,2031 11719,2140 11847,2743 11976,2348 12105,2056 12234,3561 12363,2108 12492,2130 12621,2165 12750,2523 12879,2386 13007,2236 13136,3346 13265,3719 13394,2622 13523,2191 13652,2578 13781,2319 13910,1325 14039,3786 14167,1974 14296,2437 14425,2515 14554,2562 14683,2303 14812,2951 14941,3431 15070,2874 15199,2685 15199,3468 15070,4178 14941,3844 14812,3735 14683,4183 14554,3802 14425,3359 14296,3393 14167,2778 14039,4252 13910,2204 13781,4334 13652,3852 13523,3096 13394,3731 13265,4713 13136,3830 13007,3015 12879,3878 12750,3683 12621,2668 12492,2795 12363,2730 12234,3839 12105,2419 11976,3516 11847,3608 11719,2844 11590,2686 11461,2716 11332,4698 11203,2059 11074,3951 10945,3886 10816,2191 10687,2540 10559,2767 10430,3511 10301,2619 10172,3828 10043,4608 9914,1832 9785,2063 9656,2254 9527,3659 9399,1511 9270,3597 9141,3512 9012,1964 8884,2601 8755,2760 8626,2300 8497,1597 8368,5150 8240,2647 8111,1720 7982,1751 7853,2020 7724,2285 7595,1667 7466,6274 7337,4934 7208,1608 7080,2089 6951,3719 6822,2370 6693,2013 6564,6134 6435,2843 6306,1246 6177,2434 6048,2871 5920,3792 5791,1806 5662,7434 5533,3734 5404,3345 5275,2279 5146,7402 5017,4605 4888,3213 4760,5510 4631,5447 4502,3957 4373,4960 4244,2426 4115,4648 3986,2440 3857,7434 3728,2076 3600,4726 3471,5043 3342,5302 3213,6428 3084,2294 2955,10180 2826,7680 2697,6877 2568,8099 2440,5557 2311,5094 2182,2602 2053,7868 1924,8858 1795,6134 1666,5432 1537,5926 1408,5829 1280,11336 Z"/>
 <path fill="rgb(114,159,207)" stroke="none" d="M 1280,11336 L 1408,4809 1537,2805 1666,2338 1795,3534 1924,4896 2053,3100 2182,1703 2311,2635 2440,1511 2568,4863 2697,4401 2826,2901 2955,7290 3084,2002 3213,4270 3342,2805 3471,2602 3600,1474 3728,1275 3857,2667 3986,1686 4115,3693 4244,1253 4373,1604 4502,2263 4631,2307 4760,3429 4888,2215 5017,3916 5146,1140 5275,1545 5404,2139 5533,2533 5662,2667 5791,1330 5920,3395 6048,1545 6177,1469 6306,1157 6435,1994 6564,3534 6693,1946 6822,2025 6951,2605 7080,1472 7208,1541 7337,3534 7466,4588 7595,1483 7724,1759 7853,1755 7982,1439 8111,1446 8240,1847 8368,3885 8497,1441 8626,2007 8755,2089 8884,1591 9012,1345 9141,2394 9270,2328 9399,1204 9527,3298 9656,1400 9785,1300 9914,1411 10043,2742 10172,3013 10301,1722 10430,3039 10559,1766 10687,1605 10816,1621 10945,2068 11074,2065 11203,1520 11332,4109 11461,1387 11590,1395 11719,1795 11847,1851 11976,1994 12105,1848 12234,3126 12363,1581 12492,1731 12621,1662 12750,1711 12879,1839 13007,1979 13136,3117 13265,3112 13394,1874 13523,1686 13652,1667 13781,1981 13910,940 14039,3283 14167,1521 14296,1827 14425,1845 14554,1704 14683,1707 14812,2617 14941,3035 15070,1888 15199,1831 15199,2685 15070,2874 14941,3431 14812,2951 14683,2303 14554,2562 14425,2515 14296,2437 14167,1974 14039,3786 13910,1325 13781,2319 13652,2578 13523,2191 13394,2622 13265,3719 13136,3346 13007,2236 12879,2386 12750,2523 12621,2165 12492,2130 12363,2108 12234,3561 12105,2056 11976,2348 11847,2743 11719,2140 11590,2031 11461,2139 11332,4341 11203,1667 11074,2658 10945,2750 10816,1837 10687,2072 10559,2300 10430,3257 10301,1901 10172,3194 10043,3816 9914,1635 9785,1639 9656,1868 9527,3518 9399,1306 9270,2963 9141,3168 9012,1787 8884,2425 8755,2573 8626,2251 8497,1441 8368,4166 8240,2533 8111,1685 7982,1556 7853,1932 7724,2210 7595,1544 7466,5150 7337,4534 7208,1608 7080,1703 6951,3441 6822,2255 6693,1946 6564,3967 6435,2419 6306,1202 6177,2327 6048,2667 5920,3712 5791,1568 5662,5268 5533,2933 5404,2591 5275,2157 5146,1295 5017,4299 4888,2643 4760,4262 4631,3681 4502,3110 4373,3282 4244,1626 4115,4117 3986,1837 3857,2667 3728,1618 3600,2992 3471,3116 3342,4054 3213,5055 3084,2099 2955,7868 2826,6274 2697,6381 2568,6480 2440,4978 2311,4148 2182,2602 2053,6134 1924,8363 1795,5189 1666,4588 1537,3638 1408,5624 1280,11336 Z"/>
 <path fill="none" stroke="rgb(0,0,0)" stroke-width="50" stroke-linejoin="round" d="M 1280,11336 L 1408,4809 1537,2805 1666,2338 1795,3534 1924,4896 2053,3100 2182,1703 2311,2635 2440,1511 2568,4863 2697,4401 2826,2901 2955,7290 3084,2002 3213,4270 3342,2805 3471,2602 3600,1474 3728,1275 3857,2667 3986,1686 4115,3693 4244,1253 4373,1604 4502,2263 4631,2307 4760,3429 4888,2215 5017,3916 5146,1140 5275,1545 5404,2139 5533,2533 5662,2667 5791,1330 5920,3395 6048,1545 6177,1469 6306,1157 6435,1994 6564,3534 6693,1946 6822,2025 6951,2605 7080,1472 7208,1541 7337,3534 7466,4588 7595,1483 7724,1759 7853,1755 7982,1439 8111,1446 8240,1847 8368,3885 8497,1441 8626,2007 8755,2089 8884,1591 9012,1345 9141,2394 9270,2328 9399,1204 9527,3298 9656,1400 9785,1300 9914,1411 10043,2742 10172,3013 10301,1722 10430,3039 10559,1766 10687,1605 10816,1621 10945,2068 11074,2065 11203,1520 11332,4109 11461,1387 11590,1395 11719,1795 11847,1851 11976,1994 12105,1848 12234,3126 12363,1581 12492,1731 12621,1662 12750,1711 12879,1839 13007,1979 13136,3117 13265,3112 13394,1874 13523,1686 13652,1667 13781,1981 13910,940 14039,3283 14167,1521 14296,1827 14425,1845 14554,1704 14683,1707 14812,2617 14941,3035 15070,1888 15199,1831 15199,2685 15070,2874 14941,3431 14812,2951 14683,2303 14554,2562 14425,2515 14296,2437 14167,1974 14039,3786 13910,1325 13781,2319 13652,2578 13523,2191 13394,2622 13265,3719 13136,3346 13007,2236 12879,2386 12750,2523 12621,2165 12492,2130 12363,2108 12234,3561 12105,2056 11976,2348 11847,2743 11719,2140 11590,2031 11461,2139 11332,4341 11203,1667 11074,2658 10945,2750 10816,1837 10687,2072 10559,2300 10430,3257 10301,1901 10172,3194 10043,3816 9914,1635 9785,1639 9656,1868 9527,3518 9399,1306 9270,2963 9141,3168 9012,1787 8884,2425 8755,2573 8626,2251 8497,1441 8368,4166 8240,2533 8111,1685 7982,1556 7853,1932 7724,2210 7595,1544 7466,5150 7337,4534 7208,1608 7080,1703 6951,3441 6822,2255 6693,1946 6564,3967 6435,2419 6306,1202 6177,2327 6048,2667 5920,3712 5791,1568 5662,5268 5533,2933 5404,2591 5275,2157 5146,1295 5017,4299 4888,2643 4760,4262 4631,3681 4502,3110 4373,3282 4244,1626 4115,4117 3986,1837 3857,2667 3728,1618 3600,2992 3471,3116 3342,4054 3213,5055 3084,2099 2955,7868 2826,6274 2697,6381 2568,6480 2440,4978 2311,4148 2182,2602 2053,6134 1924,8363 1795,5189 1666,4588 1537,3638 1408,5624 1280,11336 Z"/>
 <path fill="rgb(232,242,161)" stroke="none" d="M 1280,11336 L 1408,2973 1537,2805 1666,2338 1795,3534 1924,4896 2053,3100 2182,1703 2311,1500 2440,1511 2568,4863 2697,4401 2826,2901 2955,7290 3084,2002 3213,2699 3342,2805 3471,2602 3600,1474 3728,1275 3857,2667 3986,1686 4115,1994 4244,1253 4373,1604 4502,2263 4631,2307 4760,3429 4888,2215 5017,1468 5146,1140 5275,1545 5404,2139 5533,2533 5662,2667 5791,1330 5920,1488 6048,1545 6177,1469 6306,1157 6435,1994 6564,3534 6693,1946 6822,1277 6951,2605 7080,1472 7208,1541 7337,3534 7466,4588 7595,1483 7724,1233 7853,1755 7982,1439 8111,1446 8240,1847 8368,3885 8497,1441 8626,1201 8755,2089 8884,1591 9012,1345 9141,2394 9270,2328 9399,1204 9527,1253 9656,1400 9785,1300 9914,1411 10043,2742 10172,3013 10301,1722 10430,1423 10559,1766 10687,1605 10816,1621 10945,2068 11074,2065 11203,1520 11332,1450 11461,1387 11590,1395 11719,1795 11847,1851 11976,1994 12105,1848 12234,1432 12363,1581 12492,1731 12621,1662 12750,1711 12879,1839 13007,1979 13136,1330 13265,3112 13394,1874 13523,1686 13652,1667 13781,1981 13910,940 14039,1613 14167,1521 14296,1827 14425,1845 14554,1704 14683,1707 14812,2617 14941,1585 15070,1888 15199,1831 15199,1831 15070,1888 14941,3035 14812,2617 14683,1707 14554,1704 14425,1845 14296,1827 14167,1521 14039,3283 13910,940 13781,1981 13652,1667 13523,1686 13394,1874 13265,3112 13136,3117 13007,1979 12879,1839 12750,1711 12621,1662 12492,1731 12363,1581 12234,3126 12105,1848 11976,1994 11847,1851 11719,1795 11590,1395 11461,1387 11332,4109 11203,1520 11074,2065 10945,2068 10816,1621 10687,1605 10559,1766 10430,3039 10301,1722 10172,3013 10043,2742 9914,1411 9785,1300 9656,1400 9527,3298 9399,1204 9270,2328 9141,2394 9012,1345 8884,1591 8755,2089 8626,2007 8497,1441 8368,3885 8240,1847 8111,1446 7982,1439 7853,1755 7724,1759 7595,1483 7466,4588 7337,3534 7208,1541 7080,1472 6951,2605 6822,2025 6693,1946 6564,3534 6435,1994 6306,1157 6177,1469 6048,1545 5920,3395 5791,1330 5662,2667 5533,2533 5404,2139 5275,1545 5146,1140 5017,3916 4888,2215 4760,3429 4631,2307 4502,2263 4373,1604 4244,1253 4115,3693 3986,1686 3857,2667 3728,1275 3600,1474 3471,2602 3342,2805 3213,4270 3084,2002 2955,7290 2826,2901 2697,4401 2568,4863 2440,1511 2311,2635 2182,1703 2053,3100 1924,4896 1795,3534 1666,2338 1537,2805 1408,4809 1280,11336 Z"/>
 <path fill="none" stroke="rgb(0,0,0)" stroke-width="50" stroke-linejoin="round" d="M 1280,11336 L 1408,2973 1537,2805 1666,2338 1795,3534 1924,4896 2053,3100 2182,1703 2311,1500 2440,1511 2568,4863 2697,4401 2826,2901 2955,7290 3084,2002 3213,2699 3342,2805 3471,2602 3600,1474 3728,1275 3857,2667 3986,1686 4115,1994 4244,1253 4373,1604 4502,2263 4631,2307 4760,3429 4888,2215 5017,1468 5146,1140 5275,1545 5404,2139 5533,2533 5662,2667 5791,1330 5920,1488 6048,1545 6177,1469 6306,1157 6435,1994 6564,3534 6693,1946 6822,1277 6951,2605 7080,1472 7208,1541 7337,3534 7466,4588 7595,1483 7724,1233 7853,1755 7982,1439 8111,1446 8240,1847 8368,3885 8497,1441 8626,1201 8755,2089 8884,1591 9012,1345 9141,2394 9270,2328 9399,1204 9527,1253 9656,1400 9785,1300 9914,1411 10043,2742 10172,3013 10301,1722 10430,1423 10559,1766 10687,1605 10816,1621 10945,2068 11074,2065 11203,1520 11332,1450 11461,1387 11590,1395 11719,1795 11847,1851 11976,1994 12105,1848 12234,1432 12363,1581 12492,1731 12621,1662 12750,1711 12879,1839 13007,1979 13136,1330 13265,3112 13394,1874 13523,1686 13652,1667 13781,1981 13910,940 14039,1613 14167,1521 14296,1827 14425,1845 14554,1704 14683,1707 14812,2617 14941,1585 15070,1888 15199,1831 15199,1831 15070,1888 14941,3035 14812,2617 14683,1707 14554,1704 14425,1845 14296,1827 14167,1521 14039,3283 13910,940 13781,1981 13652,1667 13523,1686 13394,1874 13265,3112 13136,3117 13007,1979 12879,1839 12750,1711 12621,1662 12492,1731 12363,1581 12234,3126 12105,1848 11976,1994 11847,1851 11719,1795 11590,1395 11461,1387 11332,4109 11203,1520 11074,2065 10945,2068 10816,1621 10687,1605 10559,1766 10430,3039 10301,1722 10172,3013 10043,2742 9914,1411 9785,1300 9656,1400 9527,3298 9399,1204 9270,2328 9141,2394 9012,1345 8884,1591 8755,2089 8626,2007 8497,1441 8368,3885 8240,1847 8111,1446 7982,1439 7853,1755 7724,1759 7595,1483 7466,4588 7337,3534 7208,1541 7080,1472 6951,2605 6822,2025 6693,1946 6564,3534 6435,1994 6306,1157 6177,1469 6048,1545 5920,3395 5791,1330 5662,2667 5533,2533 5404,2139 5275,1545 5146,1140 5017,3916 4888,2215 4760,3429 4631,2307 4502,2263 4373,1604 4244,1253 4115,3693 3986,1686 3857,2667 3728,1275 3600,1474 3471,2602 3342,2805 3213,4270 3084,2002 2955,7290 2826,2901 2697,4401 2568,4863 2440,1511 2311,2635 2182,1703 2053,3100 1924,4896 1795,3534 1666,2338 1537,2805 1408,4809 1280,11336 Z"/>
 <path fill="rgb(174,207,0)" stroke="none" d="M 1280,11336 L 1408,933 1537,933 1666,933 1795,933 1924,933 2053,933 2182,933 2311,933 2440,933 2568,933 2697,933 2826,933 2955,933 3084,933 3213,933 3342,933 3471,933 3600,933 3728,933 3857,933 3986,933 4115,933 4244,933 4373,933 4502,933 4631,933 4760,933 4888,933 5017,933 5146,933 5275,933 5404,933 5533,933 5662,933 5791,933 5920,933 6048,933 6177,933 6306,933 6435,933 6564,933 6693,933 6822,933 6951,933 7080,933 7208,933 7337,933 7466,933 7595,933 7724,933 7853,933 7982,933 8111,933 8240,933 8368,933 8497,933 8626,933 8755,933 8884,933 9012,933 9141,933 9270,933 9399,933 9527,933 9656,933 9785,933 9914,933 10043,933 10172,933 10301,933 10430,933 10559,933 10687,933 10816,933 10945,933 11074,933 11203,933 11332,933 11461,933 11590,933 11719,933 11847,933 11976,933 12105,933 12234,933 12363,933 12492,933 12621,933 12750,933 12879,933 13007,933 13265,933 13394,933 13523,933 13652,933 13781,933 13910,933 14039,933 14167,933 14296,933 14425,933 14554,933 14683,933 14812,933 14941,933 15070,933 15199,933 15199,1831 15070,1888 14941,1585 14812,2617 14683,1707 14554,1704 14425,1845 14296,1827 14167,1521 14039,1613 13910,940 13781,1981 13652,1667 13523,1686 13394,1874 13265,3112 13136,1330 13007,1979 12879,1839 12750,1711 12621,1662 12492,1731 12363,1581 12234,1432 12105,1848 11976,1994 11847,1851 11719,1795 11590,1395 11461,1387 11332,1450 11203,1520 11074,2065 10945,2068 10816,1621 10687,1605 10559,1766 10430,1423 10301,1722 10172,3013 10043,2742 9914,1411 9785,1300 9656,1400 9527,1253 9399,1204 9270,2328 9141,2394 9012,1345 8884,1591 8755,2089 8626,1201 8497,1441 8368,3885 8240,1847 8111,1446 7982,1439 7853,1755 7724,1233 7595,1483 7466,4588 7337,3534 7208,1541 7080,1472 6951,2605 6822,1277 6693,1946 6564,3534 6435,1994 6306,1157 6177,1469 6048,1545 5920,1488 5791,1330 5662,2667 5533,2533 5404,2139 5275,1545 5146,1140 5017,1468 4888,2215 4760,3429 4631,2307 4502,2263 4373,1604 4244,1253 4115,1994 3986,1686 3857,2667 3728,1275 3600,1474 3471,2602 3342,2805 3213,2699 3084,2002 2955,7290 2826,2901 2697,4401 2568,4863 2440,1511 2311,1500 2182,1703 2053,3100 1924,4896 1795,3534 1666,2338 1537,2805 1408,2973 1280,11336 Z"/>
 <path fill="none" stroke="rgb(0,0,0)" stroke-width="50" stroke-linejoin="round" d="M 1280,11336 L 1408,933 1537,933 1666,933 1795,933 1924,933 2053,933 2182,933 2311,933 2440,933 2568,933 2697,933 2826,933 2955,933 3084,933 3213,933 3342,933 3471,933 3600,933 3728,933 3857,933 3986,933 4115,933 4244,933 4373,933 4502,933 4631,933 4760,933 4888,933 5017,933 5146,933 5275,933 5404,933 5533,933 5662,933 5791,933 5920,933 6048,933 6177,933 6306,933 6435,933 6564,933 6693,933 6822,933 6951,933 7080,933 7208,933 7337,933 7466,933 7595,933 7724,933 7853,933 7982,933 8111,933 8240,933 8368,933 8497,933 8626,933 8755,933 8884,933 9012,933 9141,933 9270,933 9399,933 9527,933 9656,933 9785,933 9914,933 10043,933 10172,933 10301,933 10430,933 10559,933 10687,933 10816,933 10945,933 11074,933 11203,933 11332,933 11461,933 11590,933 11719,933 11847,933 11976,933 12105,933 12234,933 12363,933 12492,933 12621,933 12750,933 12879,933 13007,933 13265,933 13394,933 13523,933 13652,933 13781,933 13910,933 14039,933 14167,933 14296,933 14425,933 14554,933 14683,933 14812,933 14941,933 15070,933 15199,933 15199,1831 15070,1888 14941,1585 14812,2617 14683,1707 14554,1704 14425,1845 14296,1827 14167,1521 14039,1613 13910,940 13781,1981 13652,1667 13523,1686 13394,1874 13265,3112 13136,1330 13007,1979 12879,1839 12750,1711 12621,1662 12492,1731 12363,1581 12234,1432 12105,1848 11976,1994 11847,1851 11719,1795 11590,1395 11461,1387 11332,1450 11203,1520 11074,2065 10945,2068 10816,1621 10687,1605 10559,1766 10430,1423 10301,1722 10172,3013 10043,2742 9914,1411 9785,1300 9656,1400 9527,1253 9399,1204 9270,2328 9141,2394 9012,1345 8884,1591 8755,2089 8626,1201 8497,1441 8368,3885 8240,1847 8111,1446 7982,1439 7853,1755 7724,1233 7595,1483 7466,4588 7337,3534 7208,1541 7080,1472 6951,2605 6822,1277 6693,1946 6564,3534 6435,1994 6306,1157 6177,1469 6048,1545 5920,1488 5791,1330 5662,2667 5533,2533 5404,2139 5275,1545 5146,1140 5017,1468 4888,2215 4760,3429 4631,2307 4502,2263 4373,1604 4244,1253 4115,1994 3986,1686 3857,2667 3728,1275 3600,1474 3471,2602 3342,2805 3213,2699 3084,2002 2955,7290 2826,2901 2697,4401 2568,4863 2440,1511 2311,1500 2182,1703 2053,3100 1924,4896 1795,3534 1666,2338 1537,2805 1408,2973 1280,11336 Z"/>
 <text class="TextShape"><tspan class="TextParagraph" font-family="Liberation Sans, sans-serif" font-size="353px" font-weight="400"><tspan class="TextPosition" x="856" y="11904"><tspan fill="rgb(0,0,0)" stroke="none">27/07</tspan></tspan></tspan></text>
 <text class="TextShape"><tspan class="TextParagraph" font-family="Liberation Sans, sans-serif" font-size="353px" font-weight="400"><tspan class="TextPosition" x="1758" y="11904"><tspan fill="rgb(0,0,0)" stroke="none">03/08</tspan></tspan></tspan></text>
 <text class="TextShape"><tspan class="TextParagraph" font-family="Liberation Sans, sans-serif" font-size="353px" font-weight="400"><tspan class="TextPosition" x="2660" y="11904"><tspan fill="rgb(0,0,0)" stroke="none">10/08</tspan></tspan></tspan></text>
 <text class="TextShape"><tspan class="TextParagraph" font-family="Liberation Sans, sans-serif" font-size="353px" font-weight="400"><tspan class="TextPosition" x="3562" y="11904"><tspan fill="rgb(0,0,0)" stroke="none">17/08</tspan></tspan></tspan></text>
 <text class="TextShape"><tspan class="TextParagraph" font-family="Liberation Sans, sans-serif" font-size="353px" font-weight="400"><tspan class="TextPosition" x="4464" y="11904"><tspan fill="rgb(0,0,0)" stroke="none">24/08</tspan></tspan></tspan></text>
 <text class="TextShape"><tspan class="TextParagraph" font-family="Liberation Sans, sans-serif" font-size="353px" font-weight="400"><tspan class="TextPosition" x="5367" y="11904"><tspan fill="rgb(0,0,0)" stroke="none">31/08</tspan></tspan></tspan></text>
 <text class="TextShape"><tspan class="TextParagraph" font-family="Liberation Sans, sans-serif" font-size="353px" font-weight="400"><tspan class="TextPosition" x="6269" y="11904"><tspan fill="rgb(0,0,0)" stroke="none">07/09</tspan></tspan></tspan></text>
 <text class="TextShape"><tspan class="TextParagraph" font-family="Liberation Sans, sans-serif" font-size="353px" font-weight="400"><tspan class="TextPosition" x="7171" y="11904"><tspan fill="rgb(0,0,0)" stroke="none">14/09</tspan></tspan></tspan></text>
 <text class="TextShape"><tspan class="TextParagraph" font-family="Liberation Sans, sans-serif" font-size="353px" font-weight="400"><tspan class="TextPosition" x="8073" y="11904"><tspan fill="rgb(0,0,0)" stroke="none">21/09</tspan></tspan></tspan></text>
 <text class="TextShape"><tspan class="TextParagraph" font-family="Liberation Sans, sans-serif" font-size="353px" font-weight="400"><tspan class="TextPosition" x="8976" y="11904"><tspan fill="rgb(0,0,0)" stroke="none">28/09</tspan></tspan></tspan></text>
 <text class="TextShape"><tspan class="TextParagraph" font-family="Liberation Sans, sans-serif" font-size="353px" font-weight="400"><tspan class="TextPosition" x="9878" y="11904"><tspan fill="rgb(0,0,0)" stroke="none">05/10</tspan></tspan></tspan></text>
 <text class="TextShape"><tspan class="TextParagraph" font-family="Liberation Sans, sans-serif" font-size="353px" font-weight="400"><tspan class="TextPosition" x="10780" y="11904"><tspan fill="rgb(0,0,0)" stroke="none">12/10</tspan></tspan></tspan></text>
 <text class="TextShape"><tspan class="TextParagraph" font-family="Liberation Sans, sans-serif" font-size="353px" font-weight="400"><tspan class="TextPosition" x="11682" y="11904"><tspan fill="rgb(0,0,0)" stroke="none">19/10</tspan></tspan></tspan></text>
 <text class="TextShape"><tspan class="TextParagraph" font-family="Liberation Sans, sans-serif" font-size="353px" font-weight="400"><tspan class="TextPosition" x="12584" y="11904"><tspan fill="rgb(0,0,0)" stroke="none">26/10</tspan></tspan></tspan></text>
 <text class="TextShape"><tspan class="TextParagraph" font-family="Liberation Sans, sans-serif" font-size="353px" font-weight="400"><tspan class="TextPosition" x="13487" y="11904"><tspan fill="rgb(0,0,0)" stroke="none">02/11</tspan></tspan></tspan></text>
 <text class="TextShape"><tspan class="TextParagraph" font-family="Liberation Sans, sans-serif" font-size="353px" font-weight="400"><tspan class="TextPosition" x="14389" y="11904"><tspan fill="rgb(0,0,0)" stroke="none">09/11</tspan></tspan></tspan></text>
 <text class="TextShape"><tspan class="TextParagraph" font-family="Liberation Sans, sans-serif" font-size="353px" font-weight="400"><tspan class="TextPosition" x="527" y="11457"><tspan fill="rgb(0,0,0)" stroke="none">0%</tspan></tspan></tspan></text>
 <text class="TextShape"><tspan class="TextParagraph" font-family="Liberation Sans, sans-serif" font-size="353px" font-weight="400"><tspan class="TextPosition" x="342" y="10416"><tspan fill="rgb(0,0,0)" stroke="none">10%</tspan></tspan></tspan></text>
 <text class="TextShape"><tspan class="TextParagraph" font-family="Liberation Sans, sans-serif" font-size="353px" font-weight="400"><tspan class="TextPosition" x="342" y="9376"><tspan fill="rgb(0,0,0)" stroke="none">20%</tspan></tspan></tspan></text>
 <text class="TextShape"><tspan class="TextParagraph" font-family="Liberation Sans, sans-serif" font-size="353px" font-weight="400"><tspan class="TextPosition" x="342" y="8335"><tspan fill="rgb(0,0,0)" stroke="none">30%</tspan></tspan></tspan></text>
 <text class="TextShape"><tspan class="TextParagraph" font-family="Liberation Sans, sans-serif" font-size="353px" font-weight="400"><tspan class="TextPosition" x="342" y="7295"><tspan fill="rgb(0,0,0)" stroke="none">40%</tspan></tspan></tspan></text>
 <text class="TextShape"><tspan class="TextParagraph" font-family="Liberation Sans, sans-serif" font-size="353px" font-weight="400"><tspan class="TextPosition" x="342" y="6255"><tspan fill="rgb(0,0,0)" stroke="none">50%</tspan></tspan></tspan></text>
 <text class="TextShape"><tspan class="TextParagraph" font-family="Liberation Sans, sans-serif" font-size="353px" font-weight="400"><tspan class="TextPosition" x="342" y="5214"><tspan fill="rgb(0,0,0)" stroke="none">60%</tspan></tspan></tspan></text>
 <text class="TextShape"><tspan class="TextParagraph" font-family="Liberation Sans, sans-serif" font-size="353px" font-weight="400"><tspan class="TextPosition" x="342" y="4174"><tspan fill="rgb(0,0,0)" stroke="none">70%</tspan></tspan></tspan></text>
 <text class="TextShape"><tspan class="TextParagraph" font-family="Liberation Sans, sans-serif" font-size="353px" font-weight="400"><tspan class="TextPosition" x="342" y="3133"><tspan fill="rgb(0,0,0)" stroke="none">80%</tspan></tspan></tspan></text>
 <text class="TextShape"><tspan class="TextParagraph" font-family="Liberation Sans, sans-serif" font-size="353px" font-weight="400"><tspan class="TextPosition" x="342" y="2093"><tspan fill="rgb(0,0,0)" stroke="none">90%</tspan></tspan></tspan></text>
 <text class="TextShape"><tspan class="TextParagraph" font-family="Liberation Sans, sans-serif" font-size="353px" font-weight="400"><tspan class="TextPosition" x="157" y="1053"><tspan fill="rgb(0,0,0)" stroke="none">100%</tspan></tspan></tspan></text>
 <text class="TextShape"><tspan class="TextParagraph" font-family="Liberation Sans, sans-serif" font-size="459px" font-weight="400"><tspan class="TextPosition" x="4599" y="724"><tspan fill="rgb(0,0,0)" stroke="none">Covid-19 (porcentaje de muertes diarias)</tspan></tspan></tspan></text>
 <text class="TextShape"><tspan class="TextParagraph" font-family="Arial, sans-serif" font-size="423px" font-weight="400"><tspan class="TextPosition" x="15374" y="5234"><tspan fill="rgb(0,0,0)" stroke="none">Italia</tspan></tspan></tspan></text>
 <text class="TextShape"><tspan class="TextParagraph" font-family="Arial, sans-serif" font-size="423px" font-weight="400"><tspan class="TextPosition" x="15398" y="10519"><tspan fill="rgb(0,0,0)" stroke="none">Francia</tspan></tspan></tspan></text>
 <text class="TextShape"><tspan class="TextParagraph" font-family="Arial, sans-serif" font-size="423px" font-weight="400"><tspan class="TextPosition" x="15407" y="3408"><tspan fill="rgb(0,0,0)" stroke="none">Blgica</tspan></tspan></tspan></text>
 <text class="TextShape"><tspan class="TextParagraph" font-family="Arial, sans-serif" font-size="423px" font-weight="400"><tspan class="TextPosition" x="15420" y="9119"><tspan fill="rgb(0,0,0)" stroke="none">Espaa</tspan></tspan></tspan></text>
 <text class="TextShape"><tspan class="TextParagraph" font-family="Arial, sans-serif" font-size="423px" font-weight="400"><tspan class="TextPosition" x="15423" y="2548"><tspan fill="rgb(0,0,0)" stroke="none">Alemania</tspan></tspan></tspan></text>
 <text class="TextShape"><tspan class="TextParagraph" font-family="Arial, sans-serif" font-size="423px" font-weight="400"><tspan class="TextPosition" x="15369" y="1503"><tspan fill="rgb(0,0,0)" stroke="none">Resto</tspan></tspan></tspan></text>
 <text class="TextShape"><tspan class="TextParagraph" font-family="Arial, sans-serif" font-size="423px" font-weight="400"><tspan class="TextPosition" x="15379" y="7228"><tspan fill="rgb(0,0,0)" stroke="none">Reino Unido</tspan></tspan></tspan></text>
 <text class="TextShape"><tspan class="TextParagraph" font-family="Arial, sans-serif" font-size="423px" font-weight="400"><tspan class="TextPosition" x="15402" y="2132"><tspan fill="rgb(0,0,0)" stroke="none">Holanda</tspan></tspan></tspan></text>
</svg>