<?xml version="1.0" encoding="UTF-8"?>
<!DOCTYPE svg PUBLIC "-//W3C//DTD SVG 1.1//EN" "http://www.w3.org/Graphics/SVG/1.1/DTD/svg11.dtd">
<svg width="180mm" height="120mm" viewBox="0 0 18000 12000" version="1.1" xmlns="http://www.w3.org/2000/svg" xmlns:xlink="http://www.w3.org/1999/xlink" stroke-width="28.222" stroke-linejoin="round" xml:space="preserve">
 <path fill="rgb(255,255,255)" stroke="none" d="M 9000,12000 L 0,12000 0,0 18000,0 18000,12000 9000,12000 Z"/>
 <path fill="none" stroke="rgb(178,178,178)" stroke-width="50" stroke-linejoin="round" d="M 8240,11248 L 1280,11248 1280,932 15199,932 15199,11248 8240,11248 Z"/>
 <path fill="none" stroke="rgb(0,0,0)" stroke-linejoin="round" d="M 15199,11247 L 1280,11247"/>
 <path fill="none" stroke="rgb(0,0,0)" stroke-linejoin="round" d="M 15199,10215 L 1280,10215"/>
 <path fill="none" stroke="rgb(0,0,0)" stroke-linejoin="round" d="M 15199,9183 L 1280,9183"/>
 <path fill="none" stroke="rgb(0,0,0)" stroke-linejoin="round" d="M 15199,8151 L 1280,8151"/>
 <path fill="none" stroke="rgb(0,0,0)" stroke-linejoin="round" d="M 15199,7120 L 1280,7120"/>
 <path fill="none" stroke="rgb(0,0,0)" stroke-linejoin="round" d="M 15199,6088 L 1280,6088"/>
 <path fill="none" stroke="rgb(0,0,0)" stroke-linejoin="round" d="M 15199,5057 L 1280,5057"/>
 <path fill="none" stroke="rgb(0,0,0)" stroke-linejoin="round" d="M 15199,4026 L 1280,4026"/>
 <path fill="none" stroke="rgb(0,0,0)" stroke-linejoin="round" d="M 15199,2994 L 1280,2994"/>
 <path fill="none" stroke="rgb(0,0,0)" stroke-linejoin="round" d="M 15199,1962 L 1280,1962"/>
 <path fill="none" stroke="rgb(0,0,0)" stroke-linejoin="round" d="M 15199,931 L 1280,931"/>
 <path fill="none" stroke="rgb(179,179,179)" stroke-linejoin="round" d="M 1280,11397 L 1280,11247"/>
 <path fill="none" stroke="rgb(179,179,179)" stroke-linejoin="round" d="M 1280,11397 L 1280,11247"/>
 <path fill="none" stroke="rgb(179,179,179)" stroke-linejoin="round" d="M 2142,11397 L 2142,11247"/>
 <path fill="none" stroke="rgb(179,179,179)" stroke-linejoin="round" d="M 2142,11397 L 2142,11247"/>
 <path fill="none" stroke="rgb(179,179,179)" stroke-linejoin="round" d="M 3004,11397 L 3004,11247"/>
 <path fill="none" stroke="rgb(179,179,179)" stroke-linejoin="round" d="M 3004,11397 L 3004,11247"/>
 <path fill="none" stroke="rgb(179,179,179)" stroke-linejoin="round" d="M 3866,11397 L 3866,11247"/>
 <path fill="none" stroke="rgb(179,179,179)" stroke-linejoin="round" d="M 3866,11397 L 3866,11247"/>
 <path fill="none" stroke="rgb(179,179,179)" stroke-linejoin="round" d="M 4729,11397 L 4729,11247"/>
 <path fill="none" stroke="rgb(179,179,179)" stroke-linejoin="round" d="M 4729,11397 L 4729,11247"/>
 <path fill="none" stroke="rgb(179,179,179)" stroke-linejoin="round" d="M 5591,11397 L 5591,11247"/>
 <path fill="none" stroke="rgb(179,179,179)" stroke-linejoin="round" d="M 5591,11397 L 5591,11247"/>
 <path fill="none" stroke="rgb(179,179,179)" stroke-linejoin="round" d="M 6453,11397 L 6453,11247"/>
 <path fill="none" stroke="rgb(179,179,179)" stroke-linejoin="round" d="M 6453,11397 L 6453,11247"/>
 <path fill="none" stroke="rgb(179,179,179)" stroke-linejoin="round" d="M 7316,11397 L 7316,11247"/>
 <path fill="none" stroke="rgb(179,179,179)" stroke-linejoin="round" d="M 7316,11397 L 7316,11247"/>
 <path fill="none" stroke="rgb(179,179,179)" stroke-linejoin="round" d="M 8178,11397 L 8178,11247"/>
 <path fill="none" stroke="rgb(179,179,179)" stroke-linejoin="round" d="M 8178,11397 L 8178,11247"/>
 <path fill="none" stroke="rgb(179,179,179)" stroke-linejoin="round" d="M 9039,11397 L 9039,11247"/>
 <path fill="none" stroke="rgb(179,179,179)" stroke-linejoin="round" d="M 9039,11397 L 9039,11247"/>
 <path fill="none" stroke="rgb(179,179,179)" stroke-linejoin="round" d="M 9902,11397 L 9902,11247"/>
 <path fill="none" stroke="rgb(179,179,179)" stroke-linejoin="round" d="M 9902,11397 L 9902,11247"/>
 <path fill="none" stroke="rgb(179,179,179)" stroke-linejoin="round" d="M 10764,11397 L 10764,11247"/>
 <path fill="none" stroke="rgb(179,179,179)" stroke-linejoin="round" d="M 10764,11397 L 10764,11247"/>
 <path fill="none" stroke="rgb(179,179,179)" stroke-linejoin="round" d="M 11626,11397 L 11626,11247"/>
 <path fill="none" stroke="rgb(179,179,179)" stroke-linejoin="round" d="M 11626,11397 L 11626,11247"/>
 <path fill="none" stroke="rgb(179,179,179)" stroke-linejoin="round" d="M 12488,11397 L 12488,11247"/>
 <path fill="none" stroke="rgb(179,179,179)" stroke-linejoin="round" d="M 12488,11397 L 12488,11247"/>
 <path fill="none" stroke="rgb(179,179,179)" stroke-linejoin="round" d="M 13351,11397 L 13351,11247"/>
 <path fill="none" stroke="rgb(179,179,179)" stroke-linejoin="round" d="M 13351,11397 L 13351,11247"/>
 <path fill="none" stroke="rgb(179,179,179)" stroke-linejoin="round" d="M 14213,11397 L 14213,11247"/>
 <path fill="none" stroke="rgb(179,179,179)" stroke-linejoin="round" d="M 14213,11397 L 14213,11247"/>
 <path fill="none" stroke="rgb(179,179,179)" stroke-linejoin="round" d="M 15075,11397 L 15075,11247"/>
 <path fill="none" stroke="rgb(179,179,179)" stroke-linejoin="round" d="M 15075,11397 L 15075,11247"/>
 <path fill="none" stroke="rgb(179,179,179)" stroke-linejoin="round" d="M 1280,11247 L 15199,11247"/>
 <path fill="none" stroke="rgb(0,0,0)" stroke-linejoin="round" d="M 1130,11247 L 1280,11247"/>
 <path fill="none" stroke="rgb(0,0,0)" stroke-linejoin="round" d="M 1130,11247 L 1280,11247"/>
 <path fill="none" stroke="rgb(0,0,0)" stroke-linejoin="round" d="M 1130,10215 L 1280,10215"/>
 <path fill="none" stroke="rgb(0,0,0)" stroke-linejoin="round" d="M 1130,10215 L 1280,10215"/>
 <path fill="none" stroke="rgb(0,0,0)" stroke-linejoin="round" d="M 1130,9183 L 1280,9183"/>
 <path fill="none" stroke="rgb(0,0,0)" stroke-linejoin="round" d="M 1130,9183 L 1280,9183"/>
 <path fill="none" stroke="rgb(0,0,0)" stroke-linejoin="round" d="M 1130,8151 L 1280,8151"/>
 <path fill="none" stroke="rgb(0,0,0)" stroke-linejoin="round" d="M 1130,8151 L 1280,8151"/>
 <path fill="none" stroke="rgb(0,0,0)" stroke-linejoin="round" d="M 1130,7120 L 1280,7120"/>
 <path fill="none" stroke="rgb(0,0,0)" stroke-linejoin="round" d="M 1130,7120 L 1280,7120"/>
 <path fill="none" stroke="rgb(0,0,0)" stroke-linejoin="round" d="M 1130,6088 L 1280,6088"/>
 <path fill="none" stroke="rgb(0,0,0)" stroke-linejoin="round" d="M 1130,6088 L 1280,6088"/>
 <path fill="none" stroke="rgb(0,0,0)" stroke-linejoin="round" d="M 1130,5057 L 1280,5057"/>
 <path fill="none" stroke="rgb(0,0,0)" stroke-linejoin="round" d="M 1130,5057 L 1280,5057"/>
 <path fill="none" stroke="rgb(0,0,0)" stroke-linejoin="round" d="M 1130,4026 L 1280,4026"/>
 <path fill="none" stroke="rgb(0,0,0)" stroke-linejoin="round" d="M 1130,4026 L 1280,4026"/>
 <path fill="none" stroke="rgb(0,0,0)" stroke-linejoin="round" d="M 1130,2994 L 1280,2994"/>
 <path fill="none" stroke="rgb(0,0,0)" stroke-linejoin="round" d="M 1130,2994 L 1280,2994"/>
 <path fill="none" stroke="rgb(0,0,0)" stroke-linejoin="round" d="M 1130,1962 L 1280,1962"/>
 <path fill="none" stroke="rgb(0,0,0)" stroke-linejoin="round" d="M 1130,1962 L 1280,1962"/>
 <path fill="none" stroke="rgb(0,0,0)" stroke-linejoin="round" d="M 1130,931 L 1280,931"/>
 <path fill="none" stroke="rgb(0,0,0)" stroke-linejoin="round" d="M 1130,931 L 1280,931"/>
 <path fill="none" stroke="rgb(0,0,0)" stroke-linejoin="round" d="M 1280,11247 L 1280,931"/>
 <path fill="rgb(255,166,166)" stroke="none" d="M 1280,6088 L 1403,11247 1526,9183 1649,11247 1772,6088 1895,11247 2019,11247 2142,11247 2265,9659 2388,11247 2511,11247 2635,7808 2758,11247 2881,11247 3004,10399 3127,11247 3250,11247 3374,8469 3497,2650 3620,11247 3743,11247 3866,8756 3990,4799 4113,10028 4236,6661 4359,6707 4482,11247 4606,11247 4729,8516 4852,4502 4975,8612 5098,7945 5221,8495 5345,11247 5468,11247 5591,5778 5714,8756 5837,7808 5961,7120 6084,9228 6207,11247 6330,11247 6453,9141 6576,7014 6700,10640 6823,6161 6946,11032 7069,11247 7192,11247 7316,8693 7439,5824 7562,9951 7685,10291 7808,7922 7932,11247 8055,11247 8178,9773 8301,6709 8424,8707 8547,7685 8671,9165 8794,11247 8917,11247 9039,9344 9162,5809 9286,7982 9409,8922 9532,9147 9655,11247 9778,11247 9902,9094 10025,6266 10148,10432 10271,11001 10394,6880 10517,11247 10641,11247 10764,8760 10887,10860 11010,8900 11133,8372 11257,6460 11380,11247 11503,11247 11626,9582 11749,9117 11872,7014 11996,9117 12119,8745 12242,11247 12365,11247 12488,9915 12612,8155 12735,9834 12858,8086 12981,10556 13104,11247 13228,11247 13351,10838 13474,11073 13597,9285 13720,9172 13843,10622 13967,11247 14090,11247 14213,11085 14336,11021 14459,8675 14583,9363 14706,9840 14829,11247 14952,11247 15075,10628 15199,10559 15199,11247 1280,11247 1280,6088 Z"/>
 <path fill="none" stroke="rgb(0,0,0)" stroke-width="50" stroke-linejoin="round" d="M 1280,6088 L 1403,11247 1526,9183 1649,11247 1772,6088 1895,11247 2019,11247 2142,11247 2265,9659 2388,11247 2511,11247 2635,7808 2758,11247 2881,11247 3004,10399 3127,11247 3250,11247 3374,8469 3497,2650 3620,11247 3743,11247 3866,8756 3990,4799 4113,10028 4236,6661 4359,6707 4482,11247 4606,11247 4729,8516 4852,4502 4975,8612 5098,7945 5221,8495 5345,11247 5468,11247 5591,5778 5714,8756 5837,7808 5961,7120 6084,9228 6207,11247 6330,11247 6453,9141 6576,7014 6700,10640 6823,6161 6946,11032 7069,11247 7192,11247 7316,8693 7439,5824 7562,9951 7685,10291 7808,7922 7932,11247 8055,11247 8178,9773 8301,6709 8424,8707 8547,7685 8671,9165 8794,11247 8917,11247 9039,9344 9162,5809 9286,7982 9409,8922 9532,9147 9655,11247 9778,11247 9902,9094 10025,6266 10148,10432 10271,11001 10394,6880 10517,11247 10641,11247 10764,8760 10887,10860 11010,8900 11133,8372 11257,6460 11380,11247 11503,11247 11626,9582 11749,9117 11872,7014 11996,9117 12119,8745 12242,11247 12365,11247 12488,9915 12612,8155 12735,9834 12858,8086 12981,10556 13104,11247 13228,11247 13351,10838 13474,11073 13597,9285 13720,9172 13843,10622 13967,11247 14090,11247 14213,11085 14336,11021 14459,8675 14583,9363 14706,9840 14829,11247 14952,11247 15075,10628 15199,10559 15199,11247 1280,11247 1280,6088 Z"/>
 <path fill="rgb(255,255,215)" stroke="none" d="M 1280,6088 L 1403,8667 1526,9183 1649,11247 1772,6088 1895,11247 2019,11247 2142,11247 2265,8866 2388,11247 2511,931 2635,7808 2758,11247 2881,11247 3004,9692 3127,11247 3250,11247 3374,7675 3497,2650 3620,11247 3743,11247 3866,6266 3990,3510 4113,9947 4236,6661 4359,5057 4482,11247 4606,11247 4729,6695 4852,3510 4975,7734 5098,7532 5221,5745 5345,11247 5468,11247 5591,4162 5714,7511 5837,6334 5961,6346 6084,8835 6207,11247 6330,11247 6453,6930 6576,5957 6700,9122 6823,3837 6946,9527 7069,11247 7192,11247 7316,6650 7439,4436 7562,9218 7685,8699 7808,7234 7932,11247 8055,11247 8178,8053 8301,6195 8424,7755 8547,7685 8671,6450 8794,11247 8917,11247 9039,7270 9162,4539 9286,6700 9409,7902 9532,7138 9655,11247 9778,11247 9902,7758 10025,4369 10148,9346 10271,9036 10394,6281 10517,11247 10641,11247 10764,6591 10887,10860 11010,7286 11133,7488 11257,5113 11380,11247 11503,11247 11626,7538 11749,7271 11872,6617 11996,9050 12119,4861 12242,11247 12365,11247 12488,8288 12612,5992 12735,7869 12858,6297 12981,8915 13104,11247 13228,11247 13351,8116 13474,9686 13597,8891 13720,8303 13843,8065 13967,11247 14090,11247 14213,8990 14336,8761 14459,6842 14583,7392 14706,8165 14829,11247 14952,11247 15075,8305 15199,8424 15199,10559 15075,10628 14952,11247 14829,11247 14706,9840 14583,9363 14459,8675 14336,11021 14213,11085 14090,11247 13967,11247 13843,10622 13720,9172 13597,9285 13474,11073 13351,10838 13228,11247 13104,11247 12981,10556 12858,8086 12735,9834 12612,8155 12488,9915 12365,11247 12242,11247 12119,8745 11996,9117 11872,7014 11749,9117 11626,9582 11503,11247 11380,11247 11257,6460 11133,8372 11010,8900 10887,10860 10764,8760 10641,11247 10517,11247 10394,6880 10271,11001 10148,10432 10025,6266 9902,9094 9778,11247 9655,11247 9532,9147 9409,8922 9286,7982 9162,5809 9039,9344 8917,11247 8794,11247 8671,9165 8547,7685 8424,8707 8301,6709 8178,9773 8055,11247 7932,11247 7808,7922 7685,10291 7562,9951 7439,5824 7316,8693 7192,11247 7069,11247 6946,11032 6823,6161 6700,10640 6576,7014 6453,9141 6330,11247 6207,11247 6084,9228 5961,7120 5837,7808 5714,8756 5591,5778 5468,11247 5345,11247 5221,8495 5098,7945 4975,8612 4852,4502 4729,8516 4606,11247 4482,11247 4359,6707 4236,6661 4113,10028 3990,4799 3866,8756 3743,11247 3620,11247 3497,2650 3374,8469 3250,11247 3127,11247 3004,10399 2881,11247 2758,11247 2635,7808 2511,11247 2388,11247 2265,9659 2142,11247 2019,11247 1895,11247 1772,6088 1649,11247 1526,9183 1403,11247 1280,6088 Z"/>
 <path fill="none" stroke="rgb(0,0,0)" stroke-width="50" stroke-linejoin="round" d="M 1280,6088 L 1403,8667 1526,9183 1649,11247 1772,6088 1895,11247 2019,11247 2142,11247 2265,8866 2388,11247 2511,931 2635,7808 2758,11247 2881,11247 3004,9692 3127,11247 3250,11247 3374,7675 3497,2650 3620,11247 3743,11247 3866,6266 3990,3510 4113,9947 4236,6661 4359,5057 4482,11247 4606,11247 4729,6695 4852,3510 4975,7734 5098,7532 5221,5745 5345,11247 5468,11247 5591,4162 5714,7511 5837,6334 5961,6346 6084,8835 6207,11247 6330,11247 6453,6930 6576,5957 6700,9122 6823,3837 6946,9527 7069,11247 7192,11247 7316,6650 7439,4436 7562,9218 7685,8699 7808,7234 7932,11247 8055,11247 8178,8053 8301,6195 8424,7755 8547,7685 8671,6450 8794,11247 8917,11247 9039,7270 9162,4539 9286,6700 9409,7902 9532,7138 9655,11247 9778,11247 9902,7758 10025,4369 10148,9346 10271,9036 10394,6281 10517,11247 10641,11247 10764,6591 10887,10860 11010,7286 11133,7488 11257,5113 11380,11247 11503,11247 11626,7538 11749,7271 11872,6617 11996,9050 12119,4861 12242,11247 12365,11247 12488,8288 12612,5992 12735,7869 12858,6297 12981,8915 13104,11247 13228,11247 13351,8116 13474,9686 13597,8891 13720,8303 13843,8065 13967,11247 14090,11247 14213,8990 14336,8761 14459,6842 14583,7392 14706,8165 14829,11247 14952,11247 15075,8305 15199,8424 15199,10559 15075,10628 14952,11247 14829,11247 14706,9840 14583,9363 14459,8675 14336,11021 14213,11085 14090,11247 13967,11247 13843,10622 13720,9172 13597,9285 13474,11073 13351,10838 13228,11247 13104,11247 12981,10556 12858,8086 12735,9834 12612,8155 12488,9915 12365,11247 12242,11247 12119,8745 11996,9117 11872,7014 11749,9117 11626,9582 11503,11247 11380,11247 11257,6460 11133,8372 11010,8900 10887,10860 10764,8760 10641,11247 10517,11247 10394,6880 10271,11001 10148,10432 10025,6266 9902,9094 9778,11247 9655,11247 9532,9147 9409,8922 9286,7982 9162,5809 9039,9344 8917,11247 8794,11247 8671,9165 8547,7685 8424,8707 8301,6709 8178,9773 8055,11247 7932,11247 7808,7922 7685,10291 7562,9951 7439,5824 7316,8693 7192,11247 7069,11247 6946,11032 6823,6161 6700,10640 6576,7014 6453,9141 6330,11247 6207,11247 6084,9228 5961,7120 5837,7808 5714,8756 5591,5778 5468,11247 5345,11247 5221,8495 5098,7945 4975,8612 4852,4502 4729,8516 4606,11247 4482,11247 4359,6707 4236,6661 4113,10028 3990,4799 3866,8756 3743,11247 3620,11247 3497,2650 3374,8469 3250,11247 3127,11247 3004,10399 2881,11247 2758,11247 2635,7808 2511,11247 2388,11247 2265,9659 2142,11247 2019,11247 1895,11247 1772,6088 1649,11247 1526,9183 1403,11247 1280,6088 Z"/>
 <path fill="rgb(222,230,239)" stroke="none" d="M 1280,6088 L 1403,3510 1526,2994 1649,8667 1772,6088 1895,11247 2019,11247 2142,10864 2265,2518 2388,11247 2511,931 2635,4370 2758,11247 2881,11247 3004,9409 3127,11247 3250,11247 3374,6485 3497,2650 3620,11247 3743,11247 3866,5911 3990,2650 4113,9459 4236,4370 4359,4232 4482,11247 4606,11247 4729,6391 4852,3113 4975,4882 5098,7120 5221,5745 5345,11247 5468,11247 5591,4162 5714,6088 5837,4370 5961,6088 6084,8667 6207,11247 6330,11247 6453,6088 6576,5824 6700,8212 6823,3837 6946,8022 7069,11247 7192,11247 7316,6650 7439,4436 7562,8915 7685,8126 7808,7120 7932,11247 8055,11247 8178,7746 8301,5939 8424,6564 8547,7562 8671,5999 8794,11247 8917,11247 9039,6924 9162,4437 9286,6642 9409,7392 9532,6773 9655,11247 9778,11247 9902,7610 10025,4172 10148,8939 10271,8708 10394,5854 10517,11247 10641,11247 10764,6167 10887,10860 11010,6944 11133,7120 11257,4462 11380,11247 11503,11247 11626,7348 11749,6987 11872,6088 11996,6987 12119,4771 12242,11247 12365,11247 12488,8251 12612,5722 12735,7623 12858,6000 12981,8311 13104,11247 13228,11247 13351,7844 13474,8169 13597,2308 13720,6228 13843,5747 13967,11247 14090,11247 14213,8043 14336,8084 14459,6487 14583,6552 14706,7428 14829,11247 14952,11247 15075,7879 15199,7760 15199,8424 15075,8305 14952,11247 14829,11247 14706,8165 14583,7392 14459,6842 14336,8761 14213,8990 14090,11247 13967,11247 13843,8065 13720,8303 13597,8891 13474,9686 13351,8116 13228,11247 13104,11247 12981,8915 12858,6297 12735,7869 12612,5992 12488,8288 12365,11247 12242,11247 12119,4861 11996,9050 11872,6617 11749,7271 11626,7538 11503,11247 11380,11247 11257,5113 11133,7488 11010,7286 10887,10860 10764,6591 10641,11247 10517,11247 10394,6281 10271,9036 10148,9346 10025,4369 9902,7758 9778,11247 9655,11247 9532,7138 9409,7902 9286,6700 9162,4539 9039,7270 8917,11247 8794,11247 8671,6450 8547,7685 8424,7755 8301,6195 8178,8053 8055,11247 7932,11247 7808,7234 7685,8699 7562,9218 7439,4436 7316,6650 7192,11247 7069,11247 6946,9527 6823,3837 6700,9122 6576,5957 6453,6930 6330,11247 6207,11247 6084,8835 5961,6346 5837,6334 5714,7511 5591,4162 5468,11247 5345,11247 5221,5745 5098,7532 4975,7734 4852,3510 4729,6695 4606,11247 4482,11247 4359,5057 4236,6661 4113,9947 3990,3510 3866,6266 3743,11247 3620,11247 3497,2650 3374,7675 3250,11247 3127,11247 3004,9692 2881,11247 2758,11247 2635,7808 2511,931 2388,11247 2265,8866 2142,11247 2019,11247 1895,11247 1772,6088 1649,11247 1526,9183 1403,8667 1280,6088 Z"/>
 <path fill="none" stroke="rgb(0,0,0)" stroke-width="50" stroke-linejoin="round" d="M 1280,6088 L 1403,3510 1526,2994 1649,8667 1772,6088 1895,11247 2019,11247 2142,10864 2265,2518 2388,11247 2511,931 2635,4370 2758,11247 2881,11247 3004,9409 3127,11247 3250,11247 3374,6485 3497,2650 3620,11247 3743,11247 3866,5911 3990,2650 4113,9459 4236,4370 4359,4232 4482,11247 4606,11247 4729,6391 4852,3113 4975,4882 5098,7120 5221,5745 5345,11247 5468,11247 5591,4162 5714,6088 5837,4370 5961,6088 6084,8667 6207,11247 6330,11247 6453,6088 6576,5824 6700,8212 6823,3837 6946,8022 7069,11247 7192,11247 7316,6650 7439,4436 7562,8915 7685,8126 7808,7120 7932,11247 8055,11247 8178,7746 8301,5939 8424,6564 8547,7562 8671,5999 8794,11247 8917,11247 9039,6924 9162,4437 9286,6642 9409,7392 9532,6773 9655,11247 9778,11247 9902,7610 10025,4172 10148,8939 10271,8708 10394,5854 10517,11247 10641,11247 10764,6167 10887,10860 11010,6944 11133,7120 11257,4462 11380,11247 11503,11247 11626,7348 11749,6987 11872,6088 11996,6987 12119,4771 12242,11247 12365,11247 12488,8251 12612,5722 12735,7623 12858,6000 12981,8311 13104,11247 13228,11247 13351,7844 13474,8169 13597,2308 13720,6228 13843,5747 13967,11247 14090,11247 14213,8043 14336,8084 14459,6487 14583,6552 14706,7428 14829,11247 14952,11247 15075,7879 15199,7760 15199,8424 15075,8305 14952,11247 14829,11247 14706,8165 14583,7392 14459,6842 14336,8761 14213,8990 14090,11247 13967,11247 13843,8065 13720,8303 13597,8891 13474,9686 13351,8116 13228,11247 13104,11247 12981,8915 12858,6297 12735,7869 12612,5992 12488,8288 12365,11247 12242,11247 12119,4861 11996,9050 11872,6617 11749,7271 11626,7538 11503,11247 11380,11247 11257,5113 11133,7488 11010,7286 10887,10860 10764,6591 10641,11247 10517,11247 10394,6281 10271,9036 10148,9346 10025,4369 9902,7758 9778,11247 9655,11247 9532,7138 9409,7902 9286,6700 9162,4539 9039,7270 8917,11247 8794,11247 8671,6450 8547,7685 8424,7755 8301,6195 8178,8053 8055,11247 7932,11247 7808,7234 7685,8699 7562,9218 7439,4436 7316,6650 7192,11247 7069,11247 6946,9527 6823,3837 6700,9122 6576,5957 6453,6930 6330,11247 6207,11247 6084,8835 5961,6346 5837,6334 5714,7511 5591,4162 5468,11247 5345,11247 5221,5745 5098,7532 4975,7734 4852,3510 4729,6695 4606,11247 4482,11247 4359,5057 4236,6661 4113,9947 3990,3510 3866,6266 3743,11247 3620,11247 3497,2650 3374,7675 3250,11247 3127,11247 3004,9692 2881,11247 2758,11247 2635,7808 2511,931 2388,11247 2265,8866 2142,11247 2019,11247 1895,11247 1772,6088 1649,11247 1526,9183 1403,8667 1280,6088 Z"/>
 <path fill="rgb(221,232,203)" stroke="none" d="M 1280,931 L 1403,3510 1526,931 1649,8667 1772,6088 1895,11247 2019,11247 2142,10482 2265,2518 2388,931 2511,931 2635,4370 2758,11247 2881,11247 3004,9409 3127,7120 3250,10309 3374,6485 3497,2650 3620,11247 3743,11247 3866,4488 3990,2650 4113,9459 4236,3223 4359,4232 4482,11247 4606,11247 4729,5786 4852,2518 4975,4443 5098,5470 5221,5057 5345,11247 5468,11247 5591,3168 5714,4132 5837,4124 5961,5057 6084,8107 6207,11247 6330,11247 6453,5352 6576,4634 6700,7909 6823,3110 6946,6948 7069,11247 7192,11247 7316,4914 7439,3642 7562,8570 7685,7808 7808,6432 7932,11247 8055,11247 8178,6702 8301,5211 8424,6167 8547,5352 8671,5456 8794,11247 8917,11247 9039,5426 9162,3827 9286,5419 9409,6768 9532,5678 9655,11247 9778,11247 9902,5235 10025,3342 10148,6224 10271,6252 10394,4997 10517,11247 10641,11247 10764,4422 10887,9699 11010,5038 11133,5868 11257,3998 11380,11247 11503,11247 11626,5495 11749,5379 11872,4766 11996,5590 12119,3655 12242,11247 12365,11247 12488,6180 12612,4717 12735,6334 12858,4926 12981,6930 13104,11247 13228,11247 13351,6210 13474,7562 13597,1775 13720,4743 13843,5034 13967,11247 14090,11247 14213,6491 14336,6929 14459,5246 14583,5538 14706,6222 14829,11247 14952,11247 15075,6770 15199,6195 15199,7760 15075,7879 14952,11247 14829,11247 14706,7428 14583,6552 14459,6487 14336,8084 14213,8043 14090,11247 13967,11247 13843,5747 13720,6228 13597,2308 13474,8169 13351,7844 13228,11247 13104,11247 12981,8311 12858,6000 12735,7623 12612,5722 12488,8251 12365,11247 12242,11247 12119,4771 11996,6987 11872,6088 11749,6987 11626,7348 11503,11247 11380,11247 11257,4462 11133,7120 11010,6944 10887,10860 10764,6167 10641,11247 10517,11247 10394,5854 10271,8708 10148,8939 10025,4172 9902,7610 9778,11247 9655,11247 9532,6773 9409,7392 9286,6642 9162,4437 9039,6924 8917,11247 8794,11247 8671,5999 8547,7562 8424,6564 8301,5939 8178,7746 8055,11247 7932,11247 7808,7120 7685,8126 7562,8915 7439,4436 7316,6650 7192,11247 7069,11247 6946,8022 6823,3837 6700,8212 6576,5824 6453,6088 6330,11247 6207,11247 6084,8667 5961,6088 5837,4370 5714,6088 5591,4162 5468,11247 5345,11247 5221,5745 5098,7120 4975,4882 4852,3113 4729,6391 4606,11247 4482,11247 4359,4232 4236,4370 4113,9459 3990,2650 3866,5911 3743,11247 3620,11247 3497,2650 3374,6485 3250,11247 3127,11247 3004,9409 2881,11247 2758,11247 2635,4370 2511,931 2388,11247 2265,2518 2142,10864 2019,11247 1895,11247 1772,6088 1649,8667 1526,2994 1403,3510 1280,6088 1280,931 Z"/>
 <path fill="none" stroke="rgb(0,0,0)" stroke-width="50" stroke-linejoin="round" d="M 1280,931 L 1403,3510 1526,931 1649,8667 1772,6088 1895,11247 2019,11247 2142,10482 2265,2518 2388,931 2511,931 2635,4370 2758,11247 2881,11247 3004,9409 3127,7120 3250,10309 3374,6485 3497,2650 3620,11247 3743,11247 3866,4488 3990,2650 4113,9459 4236,3223 4359,4232 4482,11247 4606,11247 4729,5786 4852,2518 4975,4443 5098,5470 5221,5057 5345,11247 5468,11247 5591,3168 5714,4132 5837,4124 5961,5057 6084,8107 6207,11247 6330,11247 6453,5352 6576,4634 6700,7909 6823,3110 6946,6948 7069,11247 7192,11247 7316,4914 7439,3642 7562,8570 7685,7808 7808,6432 7932,11247 8055,11247 8178,6702 8301,5211 8424,6167 8547,5352 8671,5456 8794,11247 8917,11247 9039,5426 9162,3827 9286,5419 9409,6768 9532,5678 9655,11247 9778,11247 9902,5235 10025,3342 10148,6224 10271,6252 10394,4997 10517,11247 10641,11247 10764,4422 10887,9699 11010,5038 11133,5868 11257,3998 11380,11247 11503,11247 11626,5495 11749,5379 11872,4766 11996,5590 12119,3655 12242,11247 12365,11247 12488,6180 12612,4717 12735,6334 12858,4926 12981,6930 13104,11247 13228,11247 13351,6210 13474,7562 13597,1775 13720,4743 13843,5034 13967,11247 14090,11247 14213,6491 14336,6929 14459,5246 14583,5538 14706,6222 14829,11247 14952,11247 15075,6770 15199,6195 15199,7760 15075,7879 14952,11247 14829,11247 14706,7428 14583,6552 14459,6487 14336,8084 14213,8043 14090,11247 13967,11247 13843,5747 13720,6228 13597,2308 13474,8169 13351,7844 13228,11247 13104,11247 12981,8311 12858,6000 12735,7623 12612,5722 12488,8251 12365,11247 12242,11247 12119,4771 11996,6987 11872,6088 11749,6987 11626,7348 11503,11247 11380,11247 11257,4462 11133,7120 11010,6944 10887,10860 10764,6167 10641,11247 10517,11247 10394,5854 10271,8708 10148,8939 10025,4172 9902,7610 9778,11247 9655,11247 9532,6773 9409,7392 9286,6642 9162,4437 9039,6924 8917,11247 8794,11247 8671,5999 8547,7562 8424,6564 8301,5939 8178,7746 8055,11247 7932,11247 7808,7120 7685,8126 7562,8915 7439,4436 7316,6650 7192,11247 7069,11247 6946,8022 6823,3837 6700,8212 6576,5824 6453,6088 6330,11247 6207,11247 6084,8667 5961,6088 5837,4370 5714,6088 5591,4162 5468,11247 5345,11247 5221,5745 5098,7120 4975,4882 4852,3113 4729,6391 4606,11247 4482,11247 4359,4232 4236,4370 4113,9459 3990,2650 3866,5911 3743,11247 3620,11247 3497,2650 3374,6485 3250,11247 3127,11247 3004,9409 2881,11247 2758,11247 2635,4370 2511,931 2388,11247 2265,2518 2142,10864 2019,11247 1895,11247 1772,6088 1649,8667 1526,2994 1403,3510 1280,6088 1280,931 Z"/>
 <path fill="rgb(183,179,202)" stroke="none" d="M 1280,931 L 1403,3510 1526,931 1649,8667 1772,6088 1895,11247 2019,11247 2142,2077 2265,2518 2388,931 2511,931 2635,4370 2758,11247 2881,11247 3004,1778 3127,7120 3250,10309 3374,6088 3497,2650 3620,11247 3743,11247 3866,4132 3990,2220 4113,1337 4236,2077 4359,4232 4482,11247 4606,11247 4729,5786 4852,2518 4975,4443 5098,5470 5221,5057 5345,11247 5468,11247 5591,3168 5714,4132 5837,4124 5961,5057 6084,1603 6207,11247 6330,11247 6453,5352 6576,4634 6700,7909 6823,3110 6946,6948 7069,11247 7192,11247 7316,4914 7439,3642 7562,8570 7685,2077 7808,6432 7932,11247 8055,11247 8178,4677 8301,5211 8424,4184 8547,5352 8671,5456 8794,11247 8917,11247 9039,5426 9162,3827 9286,5419 9409,3878 9532,5678 9655,11247 9778,11247 9902,5235 10025,3342 10148,6224 10271,6170 10394,2514 10517,11247 10641,11247 10764,3840 10887,9183 11010,4549 11133,5426 11257,3672 11380,11247 11503,11247 11626,4544 11749,4764 11872,4634 11996,4525 12119,3342 12242,11247 12365,11247 12488,4998 12612,4138 12735,5905 12858,4509 12981,5765 13104,11247 13228,11247 13351,5204 13474,6912 13597,1623 13720,4098 13843,4231 13967,11247 14090,11247 14213,4880 14336,6402 14459,4360 14583,4611 14706,5453 14829,11247 14952,11247 15075,5215 15199,5532 15199,6195 15075,6770 14952,11247 14829,11247 14706,6222 14583,5538 14459,5246 14336,6929 14213,6491 14090,11247 13967,11247 13843,5034 13720,4743 13597,1775 13474,7562 13351,6210 13228,11247 13104,11247 12981,6930 12858,4926 12735,6334 12612,4717 12488,6180 12365,11247 12242,11247 12119,3655 11996,5590 11872,4766 11749,5379 11626,5495 11503,11247 11380,11247 11257,3998 11133,5868 11010,5038 10887,9699 10764,4422 10641,11247 10517,11247 10394,4997 10271,6252 10148,6224 10025,3342 9902,5235 9778,11247 9655,11247 9532,5678 9409,6768 9286,5419 9162,3827 9039,5426 8917,11247 8794,11247 8671,5456 8547,5352 8424,6167 8301,5211 8178,6702 8055,11247 7932,11247 7808,6432 7685,7808 7562,8570 7439,3642 7316,4914 7192,11247 7069,11247 6946,6948 6823,3110 6700,7909 6576,4634 6453,5352 6330,11247 6207,11247 6084,8107 5961,5057 5837,4124 5714,4132 5591,3168 5468,11247 5345,11247 5221,5057 5098,5470 4975,4443 4852,2518 4729,5786 4606,11247 4482,11247 4359,4232 4236,3223 4113,9459 3990,2650 3866,4488 3743,11247 3620,11247 3497,2650 3374,6485 3250,10309 3127,7120 3004,9409 2881,11247 2758,11247 2635,4370 2511,931 2388,931 2265,2518 2142,10482 2019,11247 1895,11247 1772,6088 1649,8667 1526,931 1403,3510 1280,931 Z"/>
 <path fill="none" stroke="rgb(0,0,0)" stroke-width="50" stroke-linejoin="round" d="M 1280,931 L 1403,3510 1526,931 1649,8667 1772,6088 1895,11247 2019,11247 2142,2077 2265,2518 2388,931 2511,931 2635,4370 2758,11247 2881,11247 3004,1778 3127,7120 3250,10309 3374,6088 3497,2650 3620,11247 3743,11247 3866,4132 3990,2220 4113,1337 4236,2077 4359,4232 4482,11247 4606,11247 4729,5786 4852,2518 4975,4443 5098,5470 5221,5057 5345,11247 5468,11247 5591,3168 5714,4132 5837,4124 5961,5057 6084,1603 6207,11247 6330,11247 6453,5352 6576,4634 6700,7909 6823,3110 6946,6948 7069,11247 7192,11247 7316,4914 7439,3642 7562,8570 7685,2077 7808,6432 7932,11247 8055,11247 8178,4677 8301,5211 8424,4184 8547,5352 8671,5456 8794,11247 8917,11247 9039,5426 9162,3827 9286,5419 9409,3878 9532,5678 9655,11247 9778,11247 9902,5235 10025,3342 10148,6224 10271,6170 10394,2514 10517,11247 10641,11247 10764,3840 10887,9183 11010,4549 11133,5426 11257,3672 11380,11247 11503,11247 11626,4544 11749,4764 11872,4634 11996,4525 12119,3342 12242,11247 12365,11247 12488,4998 12612,4138 12735,5905 12858,4509 12981,5765 13104,11247 13228,11247 13351,5204 13474,6912 13597,1623 13720,4098 13843,4231 13967,11247 14090,11247 14213,4880 14336,6402 14459,4360 14583,4611 14706,5453 14829,11247 14952,11247 15075,5215 15199,5532 15199,6195 15075,6770 14952,11247 14829,11247 14706,6222 14583,5538 14459,5246 14336,6929 14213,6491 14090,11247 13967,11247 13843,5034 13720,4743 13597,1775 13474,7562 13351,6210 13228,11247 13104,11247 12981,6930 12858,4926 12735,6334 12612,4717 12488,6180 12365,11247 12242,11247 12119,3655 11996,5590 11872,4766 11749,5379 11626,5495 11503,11247 11380,11247 11257,3998 11133,5868 11010,5038 10887,9699 10764,4422 10641,11247 10517,11247 10394,4997 10271,6252 10148,6224 10025,3342 9902,5235 9778,11247 9655,11247 9532,5678 9409,6768 9286,5419 9162,3827 9039,5426 8917,11247 8794,11247 8671,5456 8547,5352 8424,6167 8301,5211 8178,6702 8055,11247 7932,11247 7808,6432 7685,7808 7562,8570 7439,3642 7316,4914 7192,11247 7069,11247 6946,6948 6823,3110 6700,7909 6576,4634 6453,5352 6330,11247 6207,11247 6084,8107 5961,5057 5837,4124 5714,4132 5591,3168 5468,11247 5345,11247 5221,5057 5098,5470 4975,4443 4852,2518 4729,5786 4606,11247 4482,11247 4359,4232 4236,3223 4113,9459 3990,2650 3866,4488 3743,11247 3620,11247 3497,2650 3374,6485 3250,10309 3127,7120 3004,9409 2881,11247 2758,11247 2635,4370 2511,931 2388,931 2265,2518 2142,10482 2019,11247 1895,11247 1772,6088 1649,8667 1526,931 1403,3510 1280,931 Z"/>
 <path fill="rgb(114,159,207)" stroke="none" d="M 1280,931 L 1403,3510 1526,931 1649,6088 1772,6088 1895,11247 2019,11247 2142,2077 2265,2518 2388,931 2511,931 2635,4370 2758,11247 2881,11247 3004,1778 3127,7120 3250,4682 3374,931 3497,2650 3620,11247 3743,11247 3866,4132 3990,2220 4113,1337 4236,2077 4359,3819 4482,11247 4606,11247 4729,5786 4852,2319 4975,2248 5098,5057 5221,5057 5345,11247 5468,11247 5591,3168 5714,4132 5837,4124 5961,4799 6084,1603 6207,11247 6330,11247 6453,5352 6576,4370 6700,6391 6823,3110 6946,6948 7069,11247 7192,11247 7316,4914 7439,3047 7562,2139 7685,2077 7808,5974 7932,11247 8055,11247 8178,4554 8301,2086 8424,4105 8547,4984 8671,4551 8794,11247 8917,11247 9039,4850 9162,3218 9286,4078 9409,3538 9532,5222 9655,11247 9778,11247 9902,5087 10025,2946 10148,6224 10271,3714 10394,2472 10517,11247 10641,11247 10764,3840 10887,4412 11010,4500 11133,5352 11257,3440 11380,11247 11503,11247 11626,4211 11749,2824 11872,4634 11996,4392 12119,3208 12242,11247 12365,11247 12488,4776 12612,3829 12735,4984 12858,4509 12981,4859 13104,11247 13228,11247 13351,5150 13474,4658 13597,1616 13720,4070 13843,3874 13967,11247 14090,11247 14213,4739 14336,4595 14459,4301 14583,4582 14706,5051 14829,11247 14952,11247 15075,5151 15199,3492 15199,5532 15075,5215 14952,11247 14829,11247 14706,5453 14583,4611 14459,4360 14336,6402 14213,4880 14090,11247 13967,11247 13843,4231 13720,4098 13597,1623 13474,6912 13351,5204 13228,11247 13104,11247 12981,5765 12858,4509 12735,5905 12612,4138 12488,4998 12365,11247 12242,11247 12119,3342 11996,4525 11872,4634 11749,4764 11626,4544 11503,11247 11380,11247 11257,3672 11133,5426 11010,4549 10887,9183 10764,3840 10641,11247 10517,11247 10394,2514 10271,6170 10148,6224 10025,3342 9902,5235 9778,11247 9655,11247 9532,5678 9409,3878 9286,5419 9162,3827 9039,5426 8917,11247 8794,11247 8671,5456 8547,5352 8424,4184 8301,5211 8178,4677 8055,11247 7932,11247 7808,6432 7685,2077 7562,8570 7439,3642 7316,4914 7192,11247 7069,11247 6946,6948 6823,3110 6700,7909 6576,4634 6453,5352 6330,11247 6207,11247 6084,1603 5961,5057 5837,4124 5714,4132 5591,3168 5468,11247 5345,11247 5221,5057 5098,5470 4975,4443 4852,2518 4729,5786 4606,11247 4482,11247 4359,4232 4236,2077 4113,1337 3990,2220 3866,4132 3743,11247 3620,11247 3497,2650 3374,6088 3250,10309 3127,7120 3004,1778 2881,11247 2758,11247 2635,4370 2511,931 2388,931 2265,2518 2142,2077 2019,11247 1895,11247 1772,6088 1649,8667 1526,931 1403,3510 1280,931 Z"/>
 <path fill="none" stroke="rgb(0,0,0)" stroke-width="50" stroke-linejoin="round" d="M 1280,931 L 1403,3510 1526,931 1649,6088 1772,6088 1895,11247 2019,11247 2142,2077 2265,2518 2388,931 2511,931 2635,4370 2758,11247 2881,11247 3004,1778 3127,7120 3250,4682 3374,931 3497,2650 3620,11247 3743,11247 3866,4132 3990,2220 4113,1337 4236,2077 4359,3819 4482,11247 4606,11247 4729,5786 4852,2319 4975,2248 5098,5057 5221,5057 5345,11247 5468,11247 5591,3168 5714,4132 5837,4124 5961,4799 6084,1603 6207,11247 6330,11247 6453,5352 6576,4370 6700,6391 6823,3110 6946,6948 7069,11247 7192,11247 7316,4914 7439,3047 7562,2139 7685,2077 7808,5974 7932,11247 8055,11247 8178,4554 8301,2086 8424,4105 8547,4984 8671,4551 8794,11247 8917,11247 9039,4850 9162,3218 9286,4078 9409,3538 9532,5222 9655,11247 9778,11247 9902,5087 10025,2946 10148,6224 10271,3714 10394,2472 10517,11247 10641,11247 10764,3840 10887,4412 11010,4500 11133,5352 11257,3440 11380,11247 11503,11247 11626,4211 11749,2824 11872,4634 11996,4392 12119,3208 12242,11247 12365,11247 12488,4776 12612,3829 12735,4984 12858,4509 12981,4859 13104,11247 13228,11247 13351,5150 13474,4658 13597,1616 13720,4070 13843,3874 13967,11247 14090,11247 14213,4739 14336,4595 14459,4301 14583,4582 14706,5051 14829,11247 14952,11247 15075,5151 15199,3492 15199,5532 15075,5215 14952,11247 14829,11247 14706,5453 14583,4611 14459,4360 14336,6402 14213,4880 14090,11247 13967,11247 13843,4231 13720,4098 13597,1623 13474,6912 13351,5204 13228,11247 13104,11247 12981,5765 12858,4509 12735,5905 12612,4138 12488,4998 12365,11247 12242,11247 12119,3342 11996,4525 11872,4634 11749,4764 11626,4544 11503,11247 11380,11247 11257,3672 11133,5426 11010,4549 10887,9183 10764,3840 10641,11247 10517,11247 10394,2514 10271,6170 10148,6224 10025,3342 9902,5235 9778,11247 9655,11247 9532,5678 9409,3878 9286,5419 9162,3827 9039,5426 8917,11247 8794,11247 8671,5456 8547,5352 8424,4184 8301,5211 8178,4677 8055,11247 7932,11247 7808,6432 7685,2077 7562,8570 7439,3642 7316,4914 7192,11247 7069,11247 6946,6948 6823,3110 6700,7909 6576,4634 6453,5352 6330,11247 6207,11247 6084,1603 5961,5057 5837,4124 5714,4132 5591,3168 5468,11247 5345,11247 5221,5057 5098,5470 4975,4443 4852,2518 4729,5786 4606,11247 4482,11247 4359,4232 4236,2077 4113,1337 3990,2220 3866,4132 3743,11247 3620,11247 3497,2650 3374,6088 3250,10309 3127,7120 3004,1778 2881,11247 2758,11247 2635,4370 2511,931 2388,931 2265,2518 2142,2077 2019,11247 1895,11247 1772,6088 1649,8667 1526,931 1403,3510 1280,931 Z"/>
 <path fill="rgb(232,242,161)" stroke="none" d="M 1280,931 L 1403,931 1526,931 1649,3510 1772,931 1895,11247 2019,11247 2142,1695 2265,2518 2388,931 2511,931 2635,4370 2758,11247 2881,11247 3004,1637 3127,5057 3250,3275 3374,931 3497,2650 3620,11247 3743,11247 3866,3777 3990,1790 4113,1093 4236,1504 4359,2581 4482,11247 4606,11247 4729,4875 4852,1923 4975,2248 5098,2169 5221,4370 5345,11247 5468,11247 5591,2795 5714,2709 5837,4124 5961,4284 6084,1435 6207,11247 6330,11247 6453,4615 6576,3179 6700,4268 6823,3110 6946,3940 7069,11247 7192,11247 7316,4710 7439,2782 7562,1708 7685,1886 7808,5172 7932,11247 8055,11247 8178,4001 8301,1958 8424,3073 8547,4001 8671,3736 8794,11247 8917,11247 9039,4619 9162,2811 9286,3787 9409,3141 9532,4674 9655,11247 9778,11247 9902,4790 10025,2709 10148,4732 10271,3223 10394,2300 10517,11247 10641,11247 10764,3788 10887,4155 11010,3718 11133,4615 11257,3115 11380,11247 11503,11247 11626,3973 11749,2729 11872,3642 11996,3926 12119,2762 12242,11247 12365,11247 12488,4480 12612,3442 12735,4124 12858,3853 12981,4384 13104,11247 13228,11247 13351,4905 13474,3922 13597,1248 13720,3566 13843,3547 13967,11247 14090,11247 14213,4316 14336,3893 14459,3266 14583,4205 14706,4046 14829,11247 14952,11247 15075,4831 15199,2852 15199,3492 15075,5151 14952,11247 14829,11247 14706,5051 14583,4582 14459,4301 14336,4595 14213,4739 14090,11247 13967,11247 13843,3874 13720,4070 13597,1616 13474,4658 13351,5150 13228,11247 13104,11247 12981,4859 12858,4509 12735,4984 12612,3829 12488,4776 12365,11247 12242,11247 12119,3208 11996,4392 11872,4634 11749,2824 11626,4211 11503,11247 11380,11247 11257,3440 11133,5352 11010,4500 10887,4412 10764,3840 10641,11247 10517,11247 10394,2472 10271,3714 10148,6224 10025,2946 9902,5087 9778,11247 9655,11247 9532,5222 9409,3538 9286,4078 9162,3218 9039,4850 8917,11247 8794,11247 8671,4551 8547,4984 8424,4105 8301,2086 8178,4554 8055,11247 7932,11247 7808,5974 7685,2077 7562,2139 7439,3047 7316,4914 7192,11247 7069,11247 6946,6948 6823,3110 6700,6391 6576,4370 6453,5352 6330,11247 6207,11247 6084,1603 5961,4799 5837,4124 5714,4132 5591,3168 5468,11247 5345,11247 5221,5057 5098,5057 4975,2248 4852,2319 4729,5786 4606,11247 4482,11247 4359,3819 4236,2077 4113,1337 3990,2220 3866,4132 3743,11247 3620,11247 3497,2650 3374,931 3250,4682 3127,7120 3004,1778 2881,11247 2758,11247 2635,4370 2511,931 2388,931 2265,2518 2142,2077 2019,11247 1895,11247 1772,6088 1649,6088 1526,931 1403,3510 1280,931 Z"/>
 <path fill="none" stroke="rgb(0,0,0)" stroke-width="50" stroke-linejoin="round" d="M 1280,931 L 1403,931 1526,931 1649,3510 1772,931 1895,11247 2019,11247 2142,1695 2265,2518 2388,931 2511,931 2635,4370 2758,11247 2881,11247 3004,1637 3127,5057 3250,3275 3374,931 3497,2650 3620,11247 3743,11247 3866,3777 3990,1790 4113,1093 4236,1504 4359,2581 4482,11247 4606,11247 4729,4875 4852,1923 4975,2248 5098,2169 5221,4370 5345,11247 5468,11247 5591,2795 5714,2709 5837,4124 5961,4284 6084,1435 6207,11247 6330,11247 6453,4615 6576,3179 6700,4268 6823,3110 6946,3940 7069,11247 7192,11247 7316,4710 7439,2782 7562,1708 7685,1886 7808,5172 7932,11247 8055,11247 8178,4001 8301,1958 8424,3073 8547,4001 8671,3736 8794,11247 8917,11247 9039,4619 9162,2811 9286,3787 9409,3141 9532,4674 9655,11247 9778,11247 9902,4790 10025,2709 10148,4732 10271,3223 10394,2300 10517,11247 10641,11247 10764,3788 10887,4155 11010,3718 11133,4615 11257,3115 11380,11247 11503,11247 11626,3973 11749,2729 11872,3642 11996,3926 12119,2762 12242,11247 12365,11247 12488,4480 12612,3442 12735,4124 12858,3853 12981,4384 13104,11247 13228,11247 13351,4905 13474,3922 13597,1248 13720,3566 13843,3547 13967,11247 14090,11247 14213,4316 14336,3893 14459,3266 14583,4205 14706,4046 14829,11247 14952,11247 15075,4831 15199,2852 15199,3492 15075,5151 14952,11247 14829,11247 14706,5051 14583,4582 14459,4301 14336,4595 14213,4739 14090,11247 13967,11247 13843,3874 13720,4070 13597,1616 13474,4658 13351,5150 13228,11247 13104,11247 12981,4859 12858,4509 12735,4984 12612,3829 12488,4776 12365,11247 12242,11247 12119,3208 11996,4392 11872,4634 11749,2824 11626,4211 11503,11247 11380,11247 11257,3440 11133,5352 11010,4500 10887,4412 10764,3840 10641,11247 10517,11247 10394,2472 10271,3714 10148,6224 10025,2946 9902,5087 9778,11247 9655,11247 9532,5222 9409,3538 9286,4078 9162,3218 9039,4850 8917,11247 8794,11247 8671,4551 8547,4984 8424,4105 8301,2086 8178,4554 8055,11247 7932,11247 7808,5974 7685,2077 7562,2139 7439,3047 7316,4914 7192,11247 7069,11247 6946,6948 6823,3110 6700,6391 6576,4370 6453,5352 6330,11247 6207,11247 6084,1603 5961,4799 5837,4124 5714,4132 5591,3168 5468,11247 5345,11247 5221,5057 5098,5057 4975,2248 4852,2319 4729,5786 4606,11247 4482,11247 4359,3819 4236,2077 4113,1337 3990,2220 3866,4132 3743,11247 3620,11247 3497,2650 3374,931 3250,4682 3127,7120 3004,1778 2881,11247 2758,11247 2635,4370 2511,931 2388,931 2265,2518 2142,2077 2019,11247 1895,11247 1772,6088 1649,6088 1526,931 1403,3510 1280,931 Z"/>
 <path fill="rgb(174,207,0)" stroke="none" d="M 1280,931 L 1403,931 1526,931 1649,931 1772,931 1895,11247 2019,11247 2142,931 2265,931 2388,931 2511,931 2635,931 2758,11247 2881,11247 3004,931 3127,931 3250,931 3374,931 3497,931 3620,11247 3743,11247 3866,931 3990,931 4113,931 4236,931 4359,931 4482,11247 4606,11247 4729,931 4852,931 4975,931 5098,931 5221,931 5345,11247 5468,11247 5591,931 5714,931 5837,931 5961,931 6084,931 6207,11247 6330,11247 6453,931 6576,931 6700,931 6823,931 6946,931 7069,11247 7192,11247 7316,931 7439,931 7562,931 7685,931 7808,931 7932,11247 8055,11247 8178,931 8301,931 8424,931 8547,931 8671,931 8794,11247 8917,11247 9039,931 9162,931 9286,931 9409,931 9532,931 9655,11247 9778,11247 9902,931 10025,931 10148,931 10271,931 10312,931 10394,931 10517,11247 10641,11247 10764,931 10887,931 11010,931 11133,931 11257,931 11380,11247 11503,11247 11626,931 11749,931 11872,931 11996,931 12119,931 12242,11247 12365,11247 12488,931 12612,931 12735,931 12858,931 12981,931 13104,11247 13228,11247 13351,931 13474,931 13597,931 13720,931 13843,931 13967,11247 14090,11247 14213,931 14336,931 14459,931 14583,931 14706,931 14829,11247 14952,11247 15075,931 15199,931 15199,2852 15075,4831 14952,11247 14829,11247 14706,4046 14583,4205 14459,3266 14336,3893 14213,4316 14090,11247 13967,11247 13843,3547 13720,3566 13597,1248 13474,3922 13351,4905 13228,11247 13104,11247 12981,4384 12858,3853 12735,4124 12612,3442 12488,4480 12365,11247 12242,11247 12119,2762 11996,3926 11872,3642 11749,2729 11626,3973 11503,11247 11380,11247 11257,3115 11133,4615 11010,3718 10887,4155 10764,3788 10641,11247 10517,11247 10394,2300 10271,3223 10148,4732 10025,2709 9902,4790 9778,11247 9655,11247 9532,4674 9409,3141 9286,3787 9162,2811 9039,4619 8917,11247 8794,11247 8671,3736 8547,4001 8424,3073 8301,1958 8178,4001 8055,11247 7932,11247 7808,5172 7685,1886 7562,1708 7439,2782 7316,4710 7192,11247 7069,11247 6946,3940 6823,3110 6700,4268 6576,3179 6453,4615 6330,11247 6207,11247 6084,1435 5961,4284 5837,4124 5714,2709 5591,2795 5468,11247 5345,11247 5221,4370 5098,2169 4975,2248 4852,1923 4729,4875 4606,11247 4482,11247 4359,2581 4236,1504 4113,1093 3990,1790 3866,3777 3743,11247 3620,11247 3497,2650 3374,931 3250,3275 3127,5057 3004,1637 2881,11247 2758,11247 2635,4370 2511,931 2388,931 2265,2518 2142,1695 2019,11247 1895,11247 1772,931 1649,3510 1526,931 1403,931 1280,931 Z"/>
 <path fill="none" stroke="rgb(0,0,0)" stroke-width="50" stroke-linejoin="round" d="M 1280,931 L 1403,931 1526,931 1649,931 1772,931 1895,11247 2019,11247 2142,931 2265,931 2388,931 2511,931 2635,931 2758,11247 2881,11247 3004,931 3127,931 3250,931 3374,931 3497,931 3620,11247 3743,11247 3866,931 3990,931 4113,931 4236,931 4359,931 4482,11247 4606,11247 4729,931 4852,931 4975,931 5098,931 5221,931 5345,11247 5468,11247 5591,931 5714,931 5837,931 5961,931 6084,931 6207,11247 6330,11247 6453,931 6576,931 6700,931 6823,931 6946,931 7069,11247 7192,11247 7316,931 7439,931 7562,931 7685,931 7808,931 7932,11247 8055,11247 8178,931 8301,931 8424,931 8547,931 8671,931 8794,11247 8917,11247 9039,931 9162,931 9286,931 9409,931 9532,931 9655,11247 9778,11247 9902,931 10025,931 10148,931 10271,931 10312,931 10394,931 10517,11247 10641,11247 10764,931 10887,931 11010,931 11133,931 11257,931 11380,11247 11503,11247 11626,931 11749,931 11872,931 11996,931 12119,931 12242,11247 12365,11247 12488,931 12612,931 12735,931 12858,931 12981,931 13104,11247 13228,11247 13351,931 13474,931 13597,931 13720,931 13843,931 13967,11247 14090,11247 14213,931 14336,931 14459,931 14583,931 14706,931 14829,11247 14952,11247 15075,931 15199,931 15199,2852 15075,4831 14952,11247 14829,11247 14706,4046 14583,4205 14459,3266 14336,3893 14213,4316 14090,11247 13967,11247 13843,3547 13720,3566 13597,1248 13474,3922 13351,4905 13228,11247 13104,11247 12981,4384 12858,3853 12735,4124 12612,3442 12488,4480 12365,11247 12242,11247 12119,2762 11996,3926 11872,3642 11749,2729 11626,3973 11503,11247 11380,11247 11257,3115 11133,4615 11010,3718 10887,4155 10764,3788 10641,11247 10517,11247 10394,2300 10271,3223 10148,4732 10025,2709 9902,4790 9778,11247 9655,11247 9532,4674 9409,3141 9286,3787 9162,2811 9039,4619 8917,11247 8794,11247 8671,3736 8547,4001 8424,3073 8301,1958 8178,4001 8055,11247 7932,11247 7808,5172 7685,1886 7562,1708 7439,2782 7316,4710 7192,11247 7069,11247 6946,3940 6823,3110 6700,4268 6576,3179 6453,4615 6330,11247 6207,11247 6084,1435 5961,4284 5837,4124 5714,2709 5591,2795 5468,11247 5345,11247 5221,4370 5098,2169 4975,2248 4852,1923 4729,4875 4606,11247 4482,11247 4359,2581 4236,1504 4113,1093 3990,1790 3866,3777 3743,11247 3620,11247 3497,2650 3374,931 3250,3275 3127,5057 3004,1637 2881,11247 2758,11247 2635,4370 2511,931 2388,931 2265,2518 2142,1695 2019,11247 1895,11247 1772,931 1649,3510 1526,931 1403,931 1280,931 Z"/>
 <text class="TextShape"><tspan class="TextParagraph" font-family="Liberation Sans, sans-serif" font-size="353px" font-weight="400"><tspan class="TextPosition" x="856" y="11815"><tspan fill="rgb(0,0,0)" stroke="none">27/07</tspan></tspan></tspan></text>
 <text class="TextShape"><tspan class="TextParagraph" font-family="Liberation Sans, sans-serif" font-size="353px" font-weight="400"><tspan class="TextPosition" x="1718" y="11815"><tspan fill="rgb(0,0,0)" stroke="none">03/08</tspan></tspan></tspan></text>
 <text class="TextShape"><tspan class="TextParagraph" font-family="Liberation Sans, sans-serif" font-size="353px" font-weight="400"><tspan class="TextPosition" x="2580" y="11815"><tspan fill="rgb(0,0,0)" stroke="none">10/08</tspan></tspan></tspan></text>
 <text class="TextShape"><tspan class="TextParagraph" font-family="Liberation Sans, sans-serif" font-size="353px" font-weight="400"><tspan class="TextPosition" x="3442" y="11815"><tspan fill="rgb(0,0,0)" stroke="none">17/08</tspan></tspan></tspan></text>
 <text class="TextShape"><tspan class="TextParagraph" font-family="Liberation Sans, sans-serif" font-size="353px" font-weight="400"><tspan class="TextPosition" x="4305" y="11815"><tspan fill="rgb(0,0,0)" stroke="none">24/08</tspan></tspan></tspan></text>
 <text class="TextShape"><tspan class="TextParagraph" font-family="Liberation Sans, sans-serif" font-size="353px" font-weight="400"><tspan class="TextPosition" x="5167" y="11815"><tspan fill="rgb(0,0,0)" stroke="none">31/08</tspan></tspan></tspan></text>
 <text class="TextShape"><tspan class="TextParagraph" font-family="Liberation Sans, sans-serif" font-size="353px" font-weight="400"><tspan class="TextPosition" x="6029" y="11815"><tspan fill="rgb(0,0,0)" stroke="none">07/09</tspan></tspan></tspan></text>
 <text class="TextShape"><tspan class="TextParagraph" font-family="Liberation Sans, sans-serif" font-size="353px" font-weight="400"><tspan class="TextPosition" x="6892" y="11815"><tspan fill="rgb(0,0,0)" stroke="none">14/09</tspan></tspan></tspan></text>
 <text class="TextShape"><tspan class="TextParagraph" font-family="Liberation Sans, sans-serif" font-size="353px" font-weight="400"><tspan class="TextPosition" x="7754" y="11815"><tspan fill="rgb(0,0,0)" stroke="none">21/09</tspan></tspan></tspan></text>
 <text class="TextShape"><tspan class="TextParagraph" font-family="Liberation Sans, sans-serif" font-size="353px" font-weight="400"><tspan class="TextPosition" x="8616" y="11815"><tspan fill="rgb(0,0,0)" stroke="none">28/09</tspan></tspan></tspan></text>
 <text class="TextShape"><tspan class="TextParagraph" font-family="Liberation Sans, sans-serif" font-size="353px" font-weight="400"><tspan class="TextPosition" x="9479" y="11815"><tspan fill="rgb(0,0,0)" stroke="none">05/10</tspan></tspan></tspan></text>
 <text class="TextShape"><tspan class="TextParagraph" font-family="Liberation Sans, sans-serif" font-size="353px" font-weight="400"><tspan class="TextPosition" x="10341" y="11815"><tspan fill="rgb(0,0,0)" stroke="none">12/10</tspan></tspan></tspan></text>
 <text class="TextShape"><tspan class="TextParagraph" font-family="Liberation Sans, sans-serif" font-size="353px" font-weight="400"><tspan class="TextPosition" x="11203" y="11815"><tspan fill="rgb(0,0,0)" stroke="none">19/10</tspan></tspan></tspan></text>
 <text class="TextShape"><tspan class="TextParagraph" font-family="Liberation Sans, sans-serif" font-size="353px" font-weight="400"><tspan class="TextPosition" x="12065" y="11815"><tspan fill="rgb(0,0,0)" stroke="none">26/10</tspan></tspan></tspan></text>
 <text class="TextShape"><tspan class="TextParagraph" font-family="Liberation Sans, sans-serif" font-size="353px" font-weight="400"><tspan class="TextPosition" x="12928" y="11815"><tspan fill="rgb(0,0,0)" stroke="none">02/11</tspan></tspan></tspan></text>
 <text class="TextShape"><tspan class="TextParagraph" font-family="Liberation Sans, sans-serif" font-size="353px" font-weight="400"><tspan class="TextPosition" x="13790" y="11815"><tspan fill="rgb(0,0,0)" stroke="none">09/11</tspan></tspan></tspan></text>
 <text class="TextShape"><tspan class="TextParagraph" font-family="Liberation Sans, sans-serif" font-size="353px" font-weight="400"><tspan class="TextPosition" x="14652" y="11815"><tspan fill="rgb(0,0,0)" stroke="none">16/11</tspan></tspan></tspan></text>
 <text class="TextShape"><tspan class="TextParagraph" font-family="Liberation Sans, sans-serif" font-size="353px" font-weight="400"><tspan class="TextPosition" x="527" y="11368"><tspan fill="rgb(0,0,0)" stroke="none">0%</tspan></tspan></tspan></text>
 <text class="TextShape"><tspan class="TextParagraph" font-family="Liberation Sans, sans-serif" font-size="353px" font-weight="400"><tspan class="TextPosition" x="342" y="10336"><tspan fill="rgb(0,0,0)" stroke="none">10%</tspan></tspan></tspan></text>
 <text class="TextShape"><tspan class="TextParagraph" font-family="Liberation Sans, sans-serif" font-size="353px" font-weight="400"><tspan class="TextPosition" x="342" y="9304"><tspan fill="rgb(0,0,0)" stroke="none">20%</tspan></tspan></tspan></text>
 <text class="TextShape"><tspan class="TextParagraph" font-family="Liberation Sans, sans-serif" font-size="353px" font-weight="400"><tspan class="TextPosition" x="342" y="8272"><tspan fill="rgb(0,0,0)" stroke="none">30%</tspan></tspan></tspan></text>
 <text class="TextShape"><tspan class="TextParagraph" font-family="Liberation Sans, sans-serif" font-size="353px" font-weight="400"><tspan class="TextPosition" x="342" y="7241"><tspan fill="rgb(0,0,0)" stroke="none">40%</tspan></tspan></tspan></text>
 <text class="TextShape"><tspan class="TextParagraph" font-family="Liberation Sans, sans-serif" font-size="353px" font-weight="400"><tspan class="TextPosition" x="342" y="6209"><tspan fill="rgb(0,0,0)" stroke="none">50%</tspan></tspan></tspan></text>
 <text class="TextShape"><tspan class="TextParagraph" font-family="Liberation Sans, sans-serif" font-size="353px" font-weight="400"><tspan class="TextPosition" x="342" y="5177"><tspan fill="rgb(0,0,0)" stroke="none">60%</tspan></tspan></tspan></text>
 <text class="TextShape"><tspan class="TextParagraph" font-family="Liberation Sans, sans-serif" font-size="353px" font-weight="400"><tspan class="TextPosition" x="342" y="4146"><tspan fill="rgb(0,0,0)" stroke="none">70%</tspan></tspan></tspan></text>
 <text class="TextShape"><tspan class="TextParagraph" font-family="Liberation Sans, sans-serif" font-size="353px" font-weight="400"><tspan class="TextPosition" x="342" y="3114"><tspan fill="rgb(0,0,0)" stroke="none">80%</tspan></tspan></tspan></text>
 <text class="TextShape"><tspan class="TextParagraph" font-family="Liberation Sans, sans-serif" font-size="353px" font-weight="400"><tspan class="TextPosition" x="342" y="2082"><tspan fill="rgb(0,0,0)" stroke="none">90%</tspan></tspan></tspan></text>
 <text class="TextShape"><tspan class="TextParagraph" font-family="Liberation Sans, sans-serif" font-size="353px" font-weight="400"><tspan class="TextPosition" x="157" y="1051"><tspan fill="rgb(0,0,0)" stroke="none">100%</tspan></tspan></tspan></text>
 <text class="TextShape"><tspan class="TextParagraph" font-family="Liberation Sans, sans-serif" font-size="459px" font-weight="400"><tspan class="TextPosition" x="4599" y="724"><tspan fill="rgb(0,0,0)" stroke="none">Covid-19 (porcentaje de muertes diarias)</tspan></tspan></tspan></text>
 <text class="TextShape"><tspan class="TextParagraph" font-family="Arial, sans-serif" font-size="423px" font-weight="400"><tspan class="TextPosition" x="15325" y="9500"><tspan fill="rgb(0,0,0)" stroke="none">Andaluca</tspan></tspan></tspan></text>
 <text class="TextShape"><tspan class="TextParagraph" font-family="Arial, sans-serif" font-size="423px" font-weight="400"><tspan class="TextPosition" x="15293" y="8285"><tspan fill="rgb(0,0,0)" stroke="none">Catalua</tspan></tspan></tspan></text>
 <text class="TextShape"><tspan class="TextParagraph" font-family="Arial, sans-serif" font-size="423px" font-weight="400"><tspan class="TextPosition" x="15402" y="5208"><tspan fill="rgb(0,0,0)" stroke="none">Pas Vasco</tspan></tspan></tspan></text>
 <text class="TextShape"><tspan class="TextParagraph" font-family="Arial, sans-serif" font-size="423px" font-weight="400"><tspan class="TextPosition" x="15295" y="7294"><tspan fill="rgb(0,0,0)" stroke="none">Cast. Len</tspan></tspan></tspan></text>
 <text class="TextShape"><tspan class="TextParagraph" font-family="Arial, sans-serif" font-size="423px" font-weight="400"><tspan class="TextPosition" x="15393" y="4528"><tspan fill="rgb(0,0,0)" stroke="none">C Valenciana</tspan></tspan></tspan></text>
 <text class="TextShape"><tspan class="TextParagraph" font-family="Arial, sans-serif" font-size="423px" font-weight="400"><tspan class="TextPosition" x="15403" y="2773"><tspan fill="rgb(0,0,0)" stroke="none">Resto</tspan></tspan></tspan></text>
 <text class="TextShape"><tspan class="TextParagraph" font-family="Arial, sans-serif" font-size="423px" font-weight="400"><tspan class="TextPosition" x="15380" y="11078"><tspan fill="rgb(0,0,0)" stroke="none">Madrid</tspan></tspan></tspan></text>
 <text class="TextShape"><tspan class="TextParagraph" font-family="Arial, sans-serif" font-size="423px" font-weight="400"><tspan class="TextPosition" x="15336" y="6023"><tspan fill="rgb(0,0,0)" stroke="none">Aragn</tspan></tspan></tspan></text>
</svg>