<?xml version="1.0" encoding="UTF-8"?>
<!DOCTYPE svg PUBLIC "-//W3C//DTD SVG 1.1//EN" "http://www.w3.org/Graphics/SVG/1.1/DTD/svg11.dtd">
<svg width="150mm" height="120mm" viewBox="0 0 15000 12000" version="1.1" xmlns="http://www.w3.org/2000/svg" xmlns:xlink="http://www.w3.org/1999/xlink" stroke-width="28.222" stroke-linejoin="round" xml:space="preserve">
 <path fill="rgb(255,255,255)" stroke="none" d="M 7500,12000 L 0,12000 0,0 15000,0 15000,12000 7500,12000 Z"/>
 <path fill="none" stroke="rgb(0,0,0)" stroke-linejoin="round" d="M 7752,10821 L 795,10821 795,1125 14709,1125 14709,10821 7752,10821 Z"/>
 <path fill="none" stroke="rgb(0,0,0)" stroke-linejoin="round" d="M 14709,10820 L 795,10820"/>
 <path fill="none" stroke="rgb(0,0,0)" stroke-linejoin="round" d="M 14709,8880 L 795,8880"/>
 <path fill="none" stroke="rgb(0,0,0)" stroke-linejoin="round" d="M 14709,6941 L 795,6941"/>
 <path fill="none" stroke="rgb(0,0,0)" stroke-linejoin="round" d="M 14709,5002 L 795,5002"/>
 <path fill="none" stroke="rgb(0,0,0)" stroke-linejoin="round" d="M 14709,3063 L 795,3063"/>
 <path fill="none" stroke="rgb(0,0,0)" stroke-linejoin="round" d="M 14709,1124 L 795,1124"/>
 <path fill="none" stroke="rgb(179,179,179)" stroke-linejoin="round" d="M 795,10970 L 795,10820"/>
 <path fill="none" stroke="rgb(179,179,179)" stroke-linejoin="round" d="M 795,10970 L 795,10820"/>
 <path fill="none" stroke="rgb(179,179,179)" stroke-linejoin="round" d="M 2293,10970 L 2293,10820"/>
 <path fill="none" stroke="rgb(179,179,179)" stroke-linejoin="round" d="M 2293,10970 L 2293,10820"/>
 <path fill="none" stroke="rgb(179,179,179)" stroke-linejoin="round" d="M 3792,10970 L 3792,10820"/>
 <path fill="none" stroke="rgb(179,179,179)" stroke-linejoin="round" d="M 3792,10970 L 3792,10820"/>
 <path fill="none" stroke="rgb(179,179,179)" stroke-linejoin="round" d="M 5290,10970 L 5290,10820"/>
 <path fill="none" stroke="rgb(179,179,179)" stroke-linejoin="round" d="M 5290,10970 L 5290,10820"/>
 <path fill="none" stroke="rgb(179,179,179)" stroke-linejoin="round" d="M 6789,10970 L 6789,10820"/>
 <path fill="none" stroke="rgb(179,179,179)" stroke-linejoin="round" d="M 6789,10970 L 6789,10820"/>
 <path fill="none" stroke="rgb(179,179,179)" stroke-linejoin="round" d="M 8286,10970 L 8286,10820"/>
 <path fill="none" stroke="rgb(179,179,179)" stroke-linejoin="round" d="M 8286,10970 L 8286,10820"/>
 <path fill="none" stroke="rgb(179,179,179)" stroke-linejoin="round" d="M 9785,10970 L 9785,10820"/>
 <path fill="none" stroke="rgb(179,179,179)" stroke-linejoin="round" d="M 9785,10970 L 9785,10820"/>
 <path fill="none" stroke="rgb(179,179,179)" stroke-linejoin="round" d="M 11283,10970 L 11283,10820"/>
 <path fill="none" stroke="rgb(179,179,179)" stroke-linejoin="round" d="M 11283,10970 L 11283,10820"/>
 <path fill="none" stroke="rgb(179,179,179)" stroke-linejoin="round" d="M 12782,10970 L 12782,10820"/>
 <path fill="none" stroke="rgb(179,179,179)" stroke-linejoin="round" d="M 12782,10970 L 12782,10820"/>
 <path fill="none" stroke="rgb(179,179,179)" stroke-linejoin="round" d="M 14280,10970 L 14280,10820"/>
 <path fill="none" stroke="rgb(179,179,179)" stroke-linejoin="round" d="M 14280,10970 L 14280,10820"/>
 <path fill="none" stroke="rgb(179,179,179)" stroke-linejoin="round" d="M 795,10820 L 14709,10820"/>
 <path fill="none" stroke="rgb(179,179,179)" stroke-linejoin="round" d="M 645,10820 L 795,10820"/>
 <path fill="none" stroke="rgb(179,179,179)" stroke-linejoin="round" d="M 645,10820 L 795,10820"/>
 <path fill="none" stroke="rgb(179,179,179)" stroke-linejoin="round" d="M 645,8880 L 795,8880"/>
 <path fill="none" stroke="rgb(179,179,179)" stroke-linejoin="round" d="M 645,8880 L 795,8880"/>
 <path fill="none" stroke="rgb(179,179,179)" stroke-linejoin="round" d="M 645,6941 L 795,6941"/>
 <path fill="none" stroke="rgb(179,179,179)" stroke-linejoin="round" d="M 645,6941 L 795,6941"/>
 <path fill="none" stroke="rgb(179,179,179)" stroke-linejoin="round" d="M 645,5002 L 795,5002"/>
 <path fill="none" stroke="rgb(179,179,179)" stroke-linejoin="round" d="M 645,5002 L 795,5002"/>
 <path fill="none" stroke="rgb(179,179,179)" stroke-linejoin="round" d="M 645,3063 L 795,3063"/>
 <path fill="none" stroke="rgb(179,179,179)" stroke-linejoin="round" d="M 645,3063 L 795,3063"/>
 <path fill="none" stroke="rgb(179,179,179)" stroke-linejoin="round" d="M 645,1124 L 795,1124"/>
 <path fill="none" stroke="rgb(179,179,179)" stroke-linejoin="round" d="M 645,1124 L 795,1124"/>
 <path fill="none" stroke="rgb(179,179,179)" stroke-linejoin="round" d="M 795,10820 L 795,1124"/>
 <path fill="none" stroke="rgb(0,69,134)" stroke-width="50" stroke-linejoin="round" d="M 5397,10626 L 5611,10820 5825,10820 6039,10820 6253,10432 6468,10820 6682,10626 6896,10432 7110,10820 7324,10432 7537,9268 7751,9850 7965,9462 8179,10238 8393,7329 8607,9074 8821,8880 9035,7329 9250,6553 9464,6941 9678,7329 9892,8492 10106,8880 10320,7329 10534,7329 10748,7716 10962,6359 11176,5002 11390,6553 11604,6165 11818,7329 12033,8298 12247,7329 12461,7716 12675,9074 12889,7523 13103,6747 13317,8492 13531,9074 13745,7329 13959,6747 14173,7135 14387,8492 14601,9268"/>
 <path fill="rgb(0,69,134)" stroke="none" d="M 5297,10526 L 5297,10726 5497,10726 5497,10526 5297,10526 Z"/>
 <path fill="none" stroke="rgb(0,69,134)" stroke-linejoin="round" d="M 5297,10526 L 5297,10726 5497,10726 5497,10526 5297,10526 Z"/>
 <path fill="rgb(0,69,134)" stroke="none" d="M 5511,10720 L 5511,10920 5711,10920 5711,10720 5511,10720 Z"/>
 <path fill="none" stroke="rgb(0,69,134)" stroke-linejoin="round" d="M 5511,10720 L 5511,10920 5711,10920 5711,10720 5511,10720 Z"/>
 <path fill="rgb(0,69,134)" stroke="none" d="M 5725,10720 L 5725,10920 5925,10920 5925,10720 5725,10720 Z"/>
 <path fill="none" stroke="rgb(0,69,134)" stroke-linejoin="round" d="M 5725,10720 L 5725,10920 5925,10920 5925,10720 5725,10720 Z"/>
 <path fill="rgb(0,69,134)" stroke="none" d="M 5939,10720 L 5939,10920 6139,10920 6139,10720 5939,10720 Z"/>
 <path fill="none" stroke="rgb(0,69,134)" stroke-linejoin="round" d="M 5939,10720 L 5939,10920 6139,10920 6139,10720 5939,10720 Z"/>
 <path fill="rgb(0,69,134)" stroke="none" d="M 6153,10332 L 6153,10532 6353,10532 6353,10332 6153,10332 Z"/>
 <path fill="none" stroke="rgb(0,69,134)" stroke-linejoin="round" d="M 6153,10332 L 6153,10532 6353,10532 6353,10332 6153,10332 Z"/>
 <path fill="rgb(0,69,134)" stroke="none" d="M 6368,10720 L 6368,10920 6568,10920 6568,10720 6368,10720 Z"/>
 <path fill="none" stroke="rgb(0,69,134)" stroke-linejoin="round" d="M 6368,10720 L 6368,10920 6568,10920 6568,10720 6368,10720 Z"/>
 <path fill="rgb(0,69,134)" stroke="none" d="M 6582,10526 L 6582,10726 6782,10726 6782,10526 6582,10526 Z"/>
 <path fill="none" stroke="rgb(0,69,134)" stroke-linejoin="round" d="M 6582,10526 L 6582,10726 6782,10726 6782,10526 6582,10526 Z"/>
 <path fill="rgb(0,69,134)" stroke="none" d="M 6796,10332 L 6796,10532 6996,10532 6996,10332 6796,10332 Z"/>
 <path fill="none" stroke="rgb(0,69,134)" stroke-linejoin="round" d="M 6796,10332 L 6796,10532 6996,10532 6996,10332 6796,10332 Z"/>
 <path fill="rgb(0,69,134)" stroke="none" d="M 7010,10720 L 7010,10920 7210,10920 7210,10720 7010,10720 Z"/>
 <path fill="none" stroke="rgb(0,69,134)" stroke-linejoin="round" d="M 7010,10720 L 7010,10920 7210,10920 7210,10720 7010,10720 Z"/>
 <path fill="rgb(0,69,134)" stroke="none" d="M 7224,10332 L 7224,10532 7424,10532 7424,10332 7224,10332 Z"/>
 <path fill="none" stroke="rgb(0,69,134)" stroke-linejoin="round" d="M 7224,10332 L 7224,10532 7424,10532 7424,10332 7224,10332 Z"/>
 <path fill="rgb(0,69,134)" stroke="none" d="M 7438,9168 L 7438,9368 7637,9368 7637,9168 7438,9168 Z"/>
 <path fill="none" stroke="rgb(0,69,134)" stroke-linejoin="round" d="M 7438,9168 L 7438,9368 7637,9368 7637,9168 7438,9168 Z"/>
 <path fill="rgb(0,69,134)" stroke="none" d="M 7651,9750 L 7651,9950 7851,9950 7851,9750 7651,9750 Z"/>
 <path fill="none" stroke="rgb(0,69,134)" stroke-linejoin="round" d="M 7651,9750 L 7651,9950 7851,9950 7851,9750 7651,9750 Z"/>
 <path fill="rgb(0,69,134)" stroke="none" d="M 7865,9362 L 7865,9562 8065,9562 8065,9362 7865,9362 Z"/>
 <path fill="none" stroke="rgb(0,69,134)" stroke-linejoin="round" d="M 7865,9362 L 7865,9562 8065,9562 8065,9362 7865,9362 Z"/>
 <path fill="rgb(0,69,134)" stroke="none" d="M 8079,10138 L 8079,10338 8279,10338 8279,10138 8079,10138 Z"/>
 <path fill="none" stroke="rgb(0,69,134)" stroke-linejoin="round" d="M 8079,10138 L 8079,10338 8279,10338 8279,10138 8079,10138 Z"/>
 <path fill="rgb(0,69,134)" stroke="none" d="M 8293,7229 L 8293,7429 8493,7429 8493,7229 8293,7229 Z"/>
 <path fill="none" stroke="rgb(0,69,134)" stroke-linejoin="round" d="M 8293,7229 L 8293,7429 8493,7429 8493,7229 8293,7229 Z"/>
 <path fill="rgb(0,69,134)" stroke="none" d="M 8507,8974 L 8507,9174 8707,9174 8707,8974 8507,8974 Z"/>
 <path fill="none" stroke="rgb(0,69,134)" stroke-linejoin="round" d="M 8507,8974 L 8507,9174 8707,9174 8707,8974 8507,8974 Z"/>
 <path fill="rgb(0,69,134)" stroke="none" d="M 8721,8780 L 8721,8980 8921,8980 8921,8780 8721,8780 Z"/>
 <path fill="none" stroke="rgb(0,69,134)" stroke-linejoin="round" d="M 8721,8780 L 8721,8980 8921,8980 8921,8780 8721,8780 Z"/>
 <path fill="rgb(0,69,134)" stroke="none" d="M 8935,7229 L 8935,7429 9135,7429 9135,7229 8935,7229 Z"/>
 <path fill="none" stroke="rgb(0,69,134)" stroke-linejoin="round" d="M 8935,7229 L 8935,7429 9135,7429 9135,7229 8935,7229 Z"/>
 <path fill="rgb(0,69,134)" stroke="none" d="M 9150,6453 L 9150,6653 9350,6653 9350,6453 9150,6453 Z"/>
 <path fill="none" stroke="rgb(0,69,134)" stroke-linejoin="round" d="M 9150,6453 L 9150,6653 9350,6653 9350,6453 9150,6453 Z"/>
 <path fill="rgb(0,69,134)" stroke="none" d="M 9364,6841 L 9364,7041 9564,7041 9564,6841 9364,6841 Z"/>
 <path fill="none" stroke="rgb(0,69,134)" stroke-linejoin="round" d="M 9364,6841 L 9364,7041 9564,7041 9564,6841 9364,6841 Z"/>
 <path fill="rgb(0,69,134)" stroke="none" d="M 9578,7229 L 9578,7429 9778,7429 9778,7229 9578,7229 Z"/>
 <path fill="none" stroke="rgb(0,69,134)" stroke-linejoin="round" d="M 9578,7229 L 9578,7429 9778,7429 9778,7229 9578,7229 Z"/>
 <path fill="rgb(0,69,134)" stroke="none" d="M 9792,8392 L 9792,8592 9992,8592 9992,8392 9792,8392 Z"/>
 <path fill="none" stroke="rgb(0,69,134)" stroke-linejoin="round" d="M 9792,8392 L 9792,8592 9992,8592 9992,8392 9792,8392 Z"/>
 <path fill="rgb(0,69,134)" stroke="none" d="M 10006,8780 L 10006,8980 10206,8980 10206,8780 10006,8780 Z"/>
 <path fill="none" stroke="rgb(0,69,134)" stroke-linejoin="round" d="M 10006,8780 L 10006,8980 10206,8980 10206,8780 10006,8780 Z"/>
 <path fill="rgb(0,69,134)" stroke="none" d="M 10220,7229 L 10220,7429 10420,7429 10420,7229 10220,7229 Z"/>
 <path fill="none" stroke="rgb(0,69,134)" stroke-linejoin="round" d="M 10220,7229 L 10220,7429 10420,7429 10420,7229 10220,7229 Z"/>
 <path fill="rgb(0,69,134)" stroke="none" d="M 10434,7229 L 10434,7429 10634,7429 10634,7229 10434,7229 Z"/>
 <path fill="none" stroke="rgb(0,69,134)" stroke-linejoin="round" d="M 10434,7229 L 10434,7429 10634,7429 10634,7229 10434,7229 Z"/>
 <path fill="rgb(0,69,134)" stroke="none" d="M 10648,7616 L 10648,7816 10848,7816 10848,7616 10648,7616 Z"/>
 <path fill="none" stroke="rgb(0,69,134)" stroke-linejoin="round" d="M 10648,7616 L 10648,7816 10848,7816 10848,7616 10648,7616 Z"/>
 <path fill="rgb(0,69,134)" stroke="none" d="M 10862,6259 L 10862,6459 11062,6459 11062,6259 10862,6259 Z"/>
 <path fill="none" stroke="rgb(0,69,134)" stroke-linejoin="round" d="M 10862,6259 L 10862,6459 11062,6459 11062,6259 10862,6259 Z"/>
 <path fill="rgb(0,69,134)" stroke="none" d="M 11076,4902 L 11076,5102 11276,5102 11276,4902 11076,4902 Z"/>
 <path fill="none" stroke="rgb(0,69,134)" stroke-linejoin="round" d="M 11076,4902 L 11076,5102 11276,5102 11276,4902 11076,4902 Z"/>
 <path fill="rgb(0,69,134)" stroke="none" d="M 11290,6453 L 11290,6653 11490,6653 11490,6453 11290,6453 Z"/>
 <path fill="none" stroke="rgb(0,69,134)" stroke-linejoin="round" d="M 11290,6453 L 11290,6653 11490,6653 11490,6453 11290,6453 Z"/>
 <path fill="rgb(0,69,134)" stroke="none" d="M 11504,6065 L 11504,6265 11704,6265 11704,6065 11504,6065 Z"/>
 <path fill="none" stroke="rgb(0,69,134)" stroke-linejoin="round" d="M 11504,6065 L 11504,6265 11704,6265 11704,6065 11504,6065 Z"/>
 <path fill="rgb(0,69,134)" stroke="none" d="M 11718,7229 L 11718,7429 11918,7429 11918,7229 11718,7229 Z"/>
 <path fill="none" stroke="rgb(0,69,134)" stroke-linejoin="round" d="M 11718,7229 L 11718,7429 11918,7429 11918,7229 11718,7229 Z"/>
 <path fill="rgb(0,69,134)" stroke="none" d="M 11933,8198 L 11933,8398 12133,8398 12133,8198 11933,8198 Z"/>
 <path fill="none" stroke="rgb(0,69,134)" stroke-linejoin="round" d="M 11933,8198 L 11933,8398 12133,8398 12133,8198 11933,8198 Z"/>
 <path fill="rgb(0,69,134)" stroke="none" d="M 12147,7229 L 12147,7429 12347,7429 12347,7229 12147,7229 Z"/>
 <path fill="none" stroke="rgb(0,69,134)" stroke-linejoin="round" d="M 12147,7229 L 12147,7429 12347,7429 12347,7229 12147,7229 Z"/>
 <path fill="rgb(0,69,134)" stroke="none" d="M 12361,7616 L 12361,7816 12561,7816 12561,7616 12361,7616 Z"/>
 <path fill="none" stroke="rgb(0,69,134)" stroke-linejoin="round" d="M 12361,7616 L 12361,7816 12561,7816 12561,7616 12361,7616 Z"/>
 <path fill="rgb(0,69,134)" stroke="none" d="M 12575,8974 L 12575,9174 12775,9174 12775,8974 12575,8974 Z"/>
 <path fill="none" stroke="rgb(0,69,134)" stroke-linejoin="round" d="M 12575,8974 L 12575,9174 12775,9174 12775,8974 12575,8974 Z"/>
 <path fill="rgb(0,69,134)" stroke="none" d="M 12789,7423 L 12789,7623 12989,7623 12989,7423 12789,7423 Z"/>
 <path fill="none" stroke="rgb(0,69,134)" stroke-linejoin="round" d="M 12789,7423 L 12789,7623 12989,7623 12989,7423 12789,7423 Z"/>
 <path fill="rgb(0,69,134)" stroke="none" d="M 13003,6647 L 13003,6847 13203,6847 13203,6647 13003,6647 Z"/>
 <path fill="none" stroke="rgb(0,69,134)" stroke-linejoin="round" d="M 13003,6647 L 13003,6847 13203,6847 13203,6647 13003,6647 Z"/>
 <path fill="rgb(0,69,134)" stroke="none" d="M 13217,8392 L 13217,8592 13417,8592 13417,8392 13217,8392 Z"/>
 <path fill="none" stroke="rgb(0,69,134)" stroke-linejoin="round" d="M 13217,8392 L 13217,8592 13417,8592 13417,8392 13217,8392 Z"/>
 <path fill="rgb(0,69,134)" stroke="none" d="M 13431,8974 L 13431,9174 13631,9174 13631,8974 13431,8974 Z"/>
 <path fill="none" stroke="rgb(0,69,134)" stroke-linejoin="round" d="M 13431,8974 L 13431,9174 13631,9174 13631,8974 13431,8974 Z"/>
 <path fill="rgb(0,69,134)" stroke="none" d="M 13645,7229 L 13645,7429 13845,7429 13845,7229 13645,7229 Z"/>
 <path fill="none" stroke="rgb(0,69,134)" stroke-linejoin="round" d="M 13645,7229 L 13645,7429 13845,7429 13845,7229 13645,7229 Z"/>
 <path fill="rgb(0,69,134)" stroke="none" d="M 13859,6647 L 13859,6847 14059,6847 14059,6647 13859,6647 Z"/>
 <path fill="none" stroke="rgb(0,69,134)" stroke-linejoin="round" d="M 13859,6647 L 13859,6847 14059,6847 14059,6647 13859,6647 Z"/>
 <path fill="rgb(0,69,134)" stroke="none" d="M 14073,7035 L 14073,7235 14273,7235 14273,7035 14073,7035 Z"/>
 <path fill="none" stroke="rgb(0,69,134)" stroke-linejoin="round" d="M 14073,7035 L 14073,7235 14273,7235 14273,7035 14073,7035 Z"/>
 <path fill="rgb(0,69,134)" stroke="none" d="M 14287,8392 L 14287,8592 14487,8592 14487,8392 14287,8392 Z"/>
 <path fill="none" stroke="rgb(0,69,134)" stroke-linejoin="round" d="M 14287,8392 L 14287,8592 14487,8592 14487,8392 14287,8392 Z"/>
 <path fill="rgb(0,69,134)" stroke="none" d="M 14501,9168 L 14501,9368 14701,9368 14701,9168 14501,9168 Z"/>
 <path fill="none" stroke="rgb(0,69,134)" stroke-linejoin="round" d="M 14501,9168 L 14501,9368 14701,9368 14701,9168 14501,9168 Z"/>
 <path fill="none" stroke="rgb(255,66,14)" stroke-width="50" stroke-linejoin="round" d="M 5397,10626 L 5611,10820 5825,10626 6039,10432 6253,10626 6468,10626 6682,10238 6896,9850 7110,10044 7324,10238 7537,10238 7751,10820 7965,9268 8179,10432 8393,9462 8607,8686 8821,8298 9035,9462 9250,9850 9464,8298 9678,8104 9892,7135 10106,7716 10320,6553 10534,7329 10748,9268 10962,7716 11176,7910 11390,7135 11604,8880 11818,8298 12033,8298 12247,8492 12461,8104 12675,8880 12889,8492 13103,7910 13317,8880 13531,9074 13745,9074 13959,9656 14173,8104 14387,8880 14601,9074"/>
 <path fill="rgb(255,66,14)" stroke="none" d="M 5297,10626 L 5397,10726 5497,10626 5397,10526 5297,10626 Z"/>
 <path fill="none" stroke="rgb(255,66,14)" stroke-linejoin="round" d="M 5297,10626 L 5397,10726 5497,10626 5397,10526 5297,10626 Z"/>
 <path fill="rgb(255,66,14)" stroke="none" d="M 5511,10820 L 5611,10920 5711,10820 5611,10720 5511,10820 Z"/>
 <path fill="none" stroke="rgb(255,66,14)" stroke-linejoin="round" d="M 5511,10820 L 5611,10920 5711,10820 5611,10720 5511,10820 Z"/>
 <path fill="rgb(255,66,14)" stroke="none" d="M 5725,10626 L 5825,10726 5925,10626 5825,10526 5725,10626 Z"/>
 <path fill="none" stroke="rgb(255,66,14)" stroke-linejoin="round" d="M 5725,10626 L 5825,10726 5925,10626 5825,10526 5725,10626 Z"/>
 <path fill="rgb(255,66,14)" stroke="none" d="M 5939,10432 L 6039,10532 6139,10432 6039,10332 5939,10432 Z"/>
 <path fill="none" stroke="rgb(255,66,14)" stroke-linejoin="round" d="M 5939,10432 L 6039,10532 6139,10432 6039,10332 5939,10432 Z"/>
 <path fill="rgb(255,66,14)" stroke="none" d="M 6153,10626 L 6253,10726 6353,10626 6253,10526 6153,10626 Z"/>
 <path fill="none" stroke="rgb(255,66,14)" stroke-linejoin="round" d="M 6153,10626 L 6253,10726 6353,10626 6253,10526 6153,10626 Z"/>
 <path fill="rgb(255,66,14)" stroke="none" d="M 6368,10626 L 6468,10726 6568,10626 6468,10526 6368,10626 Z"/>
 <path fill="none" stroke="rgb(255,66,14)" stroke-linejoin="round" d="M 6368,10626 L 6468,10726 6568,10626 6468,10526 6368,10626 Z"/>
 <path fill="rgb(255,66,14)" stroke="none" d="M 6582,10238 L 6682,10338 6782,10238 6682,10138 6582,10238 Z"/>
 <path fill="none" stroke="rgb(255,66,14)" stroke-linejoin="round" d="M 6582,10238 L 6682,10338 6782,10238 6682,10138 6582,10238 Z"/>
 <path fill="rgb(255,66,14)" stroke="none" d="M 6796,9850 L 6896,9950 6996,9850 6896,9750 6796,9850 Z"/>
 <path fill="none" stroke="rgb(255,66,14)" stroke-linejoin="round" d="M 6796,9850 L 6896,9950 6996,9850 6896,9750 6796,9850 Z"/>
 <path fill="rgb(255,66,14)" stroke="none" d="M 7010,10044 L 7110,10144 7210,10044 7110,9944 7010,10044 Z"/>
 <path fill="none" stroke="rgb(255,66,14)" stroke-linejoin="round" d="M 7010,10044 L 7110,10144 7210,10044 7110,9944 7010,10044 Z"/>
 <path fill="rgb(255,66,14)" stroke="none" d="M 7224,10238 L 7324,10338 7424,10238 7324,10138 7224,10238 Z"/>
 <path fill="none" stroke="rgb(255,66,14)" stroke-linejoin="round" d="M 7224,10238 L 7324,10338 7424,10238 7324,10138 7224,10238 Z"/>
 <path fill="rgb(255,66,14)" stroke="none" d="M 7438,10238 L 7537,10338 7637,10238 7537,10138 7438,10238 Z"/>
 <path fill="none" stroke="rgb(255,66,14)" stroke-linejoin="round" d="M 7438,10238 L 7537,10338 7637,10238 7537,10138 7438,10238 Z"/>
 <path fill="rgb(255,66,14)" stroke="none" d="M 7651,10820 L 7751,10920 7851,10820 7751,10720 7651,10820 Z"/>
 <path fill="none" stroke="rgb(255,66,14)" stroke-linejoin="round" d="M 7651,10820 L 7751,10920 7851,10820 7751,10720 7651,10820 Z"/>
 <path fill="rgb(255,66,14)" stroke="none" d="M 7865,9268 L 7965,9368 8065,9268 7965,9168 7865,9268 Z"/>
 <path fill="none" stroke="rgb(255,66,14)" stroke-linejoin="round" d="M 7865,9268 L 7965,9368 8065,9268 7965,9168 7865,9268 Z"/>
 <path fill="rgb(255,66,14)" stroke="none" d="M 8079,10432 L 8179,10532 8279,10432 8179,10332 8079,10432 Z"/>
 <path fill="none" stroke="rgb(255,66,14)" stroke-linejoin="round" d="M 8079,10432 L 8179,10532 8279,10432 8179,10332 8079,10432 Z"/>
 <path fill="rgb(255,66,14)" stroke="none" d="M 8293,9462 L 8393,9562 8493,9462 8393,9362 8293,9462 Z"/>
 <path fill="none" stroke="rgb(255,66,14)" stroke-linejoin="round" d="M 8293,9462 L 8393,9562 8493,9462 8393,9362 8293,9462 Z"/>
 <path fill="rgb(255,66,14)" stroke="none" d="M 8507,8686 L 8607,8786 8707,8686 8607,8586 8507,8686 Z"/>
 <path fill="none" stroke="rgb(255,66,14)" stroke-linejoin="round" d="M 8507,8686 L 8607,8786 8707,8686 8607,8586 8507,8686 Z"/>
 <path fill="rgb(255,66,14)" stroke="none" d="M 8721,8298 L 8821,8398 8921,8298 8821,8198 8721,8298 Z"/>
 <path fill="none" stroke="rgb(255,66,14)" stroke-linejoin="round" d="M 8721,8298 L 8821,8398 8921,8298 8821,8198 8721,8298 Z"/>
 <path fill="rgb(255,66,14)" stroke="none" d="M 8935,9462 L 9035,9562 9135,9462 9035,9362 8935,9462 Z"/>
 <path fill="none" stroke="rgb(255,66,14)" stroke-linejoin="round" d="M 8935,9462 L 9035,9562 9135,9462 9035,9362 8935,9462 Z"/>
 <path fill="rgb(255,66,14)" stroke="none" d="M 9150,9850 L 9250,9950 9350,9850 9250,9750 9150,9850 Z"/>
 <path fill="none" stroke="rgb(255,66,14)" stroke-linejoin="round" d="M 9150,9850 L 9250,9950 9350,9850 9250,9750 9150,9850 Z"/>
 <path fill="rgb(255,66,14)" stroke="none" d="M 9364,8298 L 9464,8398 9564,8298 9464,8198 9364,8298 Z"/>
 <path fill="none" stroke="rgb(255,66,14)" stroke-linejoin="round" d="M 9364,8298 L 9464,8398 9564,8298 9464,8198 9364,8298 Z"/>
 <path fill="rgb(255,66,14)" stroke="none" d="M 9578,8104 L 9678,8204 9778,8104 9678,8004 9578,8104 Z"/>
 <path fill="none" stroke="rgb(255,66,14)" stroke-linejoin="round" d="M 9578,8104 L 9678,8204 9778,8104 9678,8004 9578,8104 Z"/>
 <path fill="rgb(255,66,14)" stroke="none" d="M 9792,7135 L 9892,7235 9992,7135 9892,7035 9792,7135 Z"/>
 <path fill="none" stroke="rgb(255,66,14)" stroke-linejoin="round" d="M 9792,7135 L 9892,7235 9992,7135 9892,7035 9792,7135 Z"/>
 <path fill="rgb(255,66,14)" stroke="none" d="M 10006,7716 L 10106,7816 10206,7716 10106,7616 10006,7716 Z"/>
 <path fill="none" stroke="rgb(255,66,14)" stroke-linejoin="round" d="M 10006,7716 L 10106,7816 10206,7716 10106,7616 10006,7716 Z"/>
 <path fill="rgb(255,66,14)" stroke="none" d="M 10220,6553 L 10320,6653 10420,6553 10320,6453 10220,6553 Z"/>
 <path fill="none" stroke="rgb(255,66,14)" stroke-linejoin="round" d="M 10220,6553 L 10320,6653 10420,6553 10320,6453 10220,6553 Z"/>
 <path fill="rgb(255,66,14)" stroke="none" d="M 10434,7329 L 10534,7429 10634,7329 10534,7229 10434,7329 Z"/>
 <path fill="none" stroke="rgb(255,66,14)" stroke-linejoin="round" d="M 10434,7329 L 10534,7429 10634,7329 10534,7229 10434,7329 Z"/>
 <path fill="rgb(255,66,14)" stroke="none" d="M 10648,9268 L 10748,9368 10848,9268 10748,9168 10648,9268 Z"/>
 <path fill="none" stroke="rgb(255,66,14)" stroke-linejoin="round" d="M 10648,9268 L 10748,9368 10848,9268 10748,9168 10648,9268 Z"/>
 <path fill="rgb(255,66,14)" stroke="none" d="M 10862,7716 L 10962,7816 11062,7716 10962,7616 10862,7716 Z"/>
 <path fill="none" stroke="rgb(255,66,14)" stroke-linejoin="round" d="M 10862,7716 L 10962,7816 11062,7716 10962,7616 10862,7716 Z"/>
 <path fill="rgb(255,66,14)" stroke="none" d="M 11076,7910 L 11176,8010 11276,7910 11176,7810 11076,7910 Z"/>
 <path fill="none" stroke="rgb(255,66,14)" stroke-linejoin="round" d="M 11076,7910 L 11176,8010 11276,7910 11176,7810 11076,7910 Z"/>
 <path fill="rgb(255,66,14)" stroke="none" d="M 11290,7135 L 11390,7235 11490,7135 11390,7035 11290,7135 Z"/>
 <path fill="none" stroke="rgb(255,66,14)" stroke-linejoin="round" d="M 11290,7135 L 11390,7235 11490,7135 11390,7035 11290,7135 Z"/>
 <path fill="rgb(255,66,14)" stroke="none" d="M 11504,8880 L 11604,8980 11704,8880 11604,8780 11504,8880 Z"/>
 <path fill="none" stroke="rgb(255,66,14)" stroke-linejoin="round" d="M 11504,8880 L 11604,8980 11704,8880 11604,8780 11504,8880 Z"/>
 <path fill="rgb(255,66,14)" stroke="none" d="M 11718,8298 L 11818,8398 11918,8298 11818,8198 11718,8298 Z"/>
 <path fill="none" stroke="rgb(255,66,14)" stroke-linejoin="round" d="M 11718,8298 L 11818,8398 11918,8298 11818,8198 11718,8298 Z"/>
 <path fill="rgb(255,66,14)" stroke="none" d="M 11933,8298 L 12033,8398 12133,8298 12033,8198 11933,8298 Z"/>
 <path fill="none" stroke="rgb(255,66,14)" stroke-linejoin="round" d="M 11933,8298 L 12033,8398 12133,8298 12033,8198 11933,8298 Z"/>
 <path fill="rgb(255,66,14)" stroke="none" d="M 12147,8492 L 12247,8592 12347,8492 12247,8392 12147,8492 Z"/>
 <path fill="none" stroke="rgb(255,66,14)" stroke-linejoin="round" d="M 12147,8492 L 12247,8592 12347,8492 12247,8392 12147,8492 Z"/>
 <path fill="rgb(255,66,14)" stroke="none" d="M 12361,8104 L 12461,8204 12561,8104 12461,8004 12361,8104 Z"/>
 <path fill="none" stroke="rgb(255,66,14)" stroke-linejoin="round" d="M 12361,8104 L 12461,8204 12561,8104 12461,8004 12361,8104 Z"/>
 <path fill="rgb(255,66,14)" stroke="none" d="M 12575,8880 L 12675,8980 12775,8880 12675,8780 12575,8880 Z"/>
 <path fill="none" stroke="rgb(255,66,14)" stroke-linejoin="round" d="M 12575,8880 L 12675,8980 12775,8880 12675,8780 12575,8880 Z"/>
 <path fill="rgb(255,66,14)" stroke="none" d="M 12789,8492 L 12889,8592 12989,8492 12889,8392 12789,8492 Z"/>
 <path fill="none" stroke="rgb(255,66,14)" stroke-linejoin="round" d="M 12789,8492 L 12889,8592 12989,8492 12889,8392 12789,8492 Z"/>
 <path fill="rgb(255,66,14)" stroke="none" d="M 13003,7910 L 13103,8010 13203,7910 13103,7810 13003,7910 Z"/>
 <path fill="none" stroke="rgb(255,66,14)" stroke-linejoin="round" d="M 13003,7910 L 13103,8010 13203,7910 13103,7810 13003,7910 Z"/>
 <path fill="rgb(255,66,14)" stroke="none" d="M 13217,8880 L 13317,8980 13417,8880 13317,8780 13217,8880 Z"/>
 <path fill="none" stroke="rgb(255,66,14)" stroke-linejoin="round" d="M 13217,8880 L 13317,8980 13417,8880 13317,8780 13217,8880 Z"/>
 <path fill="rgb(255,66,14)" stroke="none" d="M 13431,9074 L 13531,9174 13631,9074 13531,8974 13431,9074 Z"/>
 <path fill="none" stroke="rgb(255,66,14)" stroke-linejoin="round" d="M 13431,9074 L 13531,9174 13631,9074 13531,8974 13431,9074 Z"/>
 <path fill="rgb(255,66,14)" stroke="none" d="M 13645,9074 L 13745,9174 13845,9074 13745,8974 13645,9074 Z"/>
 <path fill="none" stroke="rgb(255,66,14)" stroke-linejoin="round" d="M 13645,9074 L 13745,9174 13845,9074 13745,8974 13645,9074 Z"/>
 <path fill="rgb(255,66,14)" stroke="none" d="M 13859,9656 L 13959,9756 14059,9656 13959,9556 13859,9656 Z"/>
 <path fill="none" stroke="rgb(255,66,14)" stroke-linejoin="round" d="M 13859,9656 L 13959,9756 14059,9656 13959,9556 13859,9656 Z"/>
 <path fill="rgb(255,66,14)" stroke="none" d="M 14073,8104 L 14173,8204 14273,8104 14173,8004 14073,8104 Z"/>
 <path fill="none" stroke="rgb(255,66,14)" stroke-linejoin="round" d="M 14073,8104 L 14173,8204 14273,8104 14173,8004 14073,8104 Z"/>
 <path fill="rgb(255,66,14)" stroke="none" d="M 14287,8880 L 14387,8980 14487,8880 14387,8780 14287,8880 Z"/>
 <path fill="none" stroke="rgb(255,66,14)" stroke-linejoin="round" d="M 14287,8880 L 14387,8980 14487,8880 14387,8780 14287,8880 Z"/>
 <path fill="rgb(255,66,14)" stroke="none" d="M 14501,9074 L 14601,9174 14701,9074 14601,8974 14501,9074 Z"/>
 <path fill="none" stroke="rgb(255,66,14)" stroke-linejoin="round" d="M 14501,9074 L 14601,9174 14701,9074 14601,8974 14501,9074 Z"/>
 <path fill="none" stroke="rgb(255,211,32)" stroke-width="50" stroke-linejoin="round" d="M 5183,10626 L 5397,10820 5611,10820 5825,10626 6039,10820 6253,10820 6468,10820 6682,10820 6896,10626 7110,10820 7324,10820 7537,10626 7751,10432 7965,10626 8179,10432 8393,8880 8607,10238 8821,8104 9035,8880 9250,9268 9464,7523 9678,8104 9892,8298 10106,6553 10320,7523 10534,6747 10748,7716 10962,3839 11176,5972 11390,5390 11604,5972 11818,4614 12033,8104 12247,4808 12461,2869 12675,3451 12889,2675 13103,2287 13317,2869 13531,3257 13593,1124"/>
 <path fill="none" stroke="rgb(255,211,32)" stroke-width="50" stroke-linejoin="round" d="M 13915,1124 L 13959,2481 14173,3257 14387,5972 14601,4033"/>
 <path fill="rgb(255,211,32)" stroke="none" d="M 5083,10526 L 5183,10726 5283,10526 5083,10526 Z"/>
 <path fill="none" stroke="rgb(255,211,32)" stroke-linejoin="round" d="M 5083,10526 L 5183,10726 5283,10526 5083,10526 Z"/>
 <path fill="rgb(255,211,32)" stroke="none" d="M 5297,10720 L 5397,10920 5497,10720 5297,10720 Z"/>
 <path fill="none" stroke="rgb(255,211,32)" stroke-linejoin="round" d="M 5297,10720 L 5397,10920 5497,10720 5297,10720 Z"/>
 <path fill="rgb(255,211,32)" stroke="none" d="M 5511,10720 L 5611,10920 5711,10720 5511,10720 Z"/>
 <path fill="none" stroke="rgb(255,211,32)" stroke-linejoin="round" d="M 5511,10720 L 5611,10920 5711,10720 5511,10720 Z"/>
 <path fill="rgb(255,211,32)" stroke="none" d="M 5725,10526 L 5825,10726 5925,10526 5725,10526 Z"/>
 <path fill="none" stroke="rgb(255,211,32)" stroke-linejoin="round" d="M 5725,10526 L 5825,10726 5925,10526 5725,10526 Z"/>
 <path fill="rgb(255,211,32)" stroke="none" d="M 5939,10720 L 6039,10920 6139,10720 5939,10720 Z"/>
 <path fill="none" stroke="rgb(255,211,32)" stroke-linejoin="round" d="M 5939,10720 L 6039,10920 6139,10720 5939,10720 Z"/>
 <path fill="rgb(255,211,32)" stroke="none" d="M 6153,10720 L 6253,10920 6353,10720 6153,10720 Z"/>
 <path fill="none" stroke="rgb(255,211,32)" stroke-linejoin="round" d="M 6153,10720 L 6253,10920 6353,10720 6153,10720 Z"/>
 <path fill="rgb(255,211,32)" stroke="none" d="M 6368,10720 L 6468,10920 6568,10720 6368,10720 Z"/>
 <path fill="none" stroke="rgb(255,211,32)" stroke-linejoin="round" d="M 6368,10720 L 6468,10920 6568,10720 6368,10720 Z"/>
 <path fill="rgb(255,211,32)" stroke="none" d="M 6582,10720 L 6682,10920 6782,10720 6582,10720 Z"/>
 <path fill="none" stroke="rgb(255,211,32)" stroke-linejoin="round" d="M 6582,10720 L 6682,10920 6782,10720 6582,10720 Z"/>
 <path fill="rgb(255,211,32)" stroke="none" d="M 6796,10526 L 6896,10726 6996,10526 6796,10526 Z"/>
 <path fill="none" stroke="rgb(255,211,32)" stroke-linejoin="round" d="M 6796,10526 L 6896,10726 6996,10526 6796,10526 Z"/>
 <path fill="rgb(255,211,32)" stroke="none" d="M 7010,10720 L 7110,10920 7210,10720 7010,10720 Z"/>
 <path fill="none" stroke="rgb(255,211,32)" stroke-linejoin="round" d="M 7010,10720 L 7110,10920 7210,10720 7010,10720 Z"/>
 <path fill="rgb(255,211,32)" stroke="none" d="M 7224,10720 L 7324,10920 7424,10720 7224,10720 Z"/>
 <path fill="none" stroke="rgb(255,211,32)" stroke-linejoin="round" d="M 7224,10720 L 7324,10920 7424,10720 7224,10720 Z"/>
 <path fill="rgb(255,211,32)" stroke="none" d="M 7438,10526 L 7537,10726 7637,10526 7438,10526 Z"/>
 <path fill="none" stroke="rgb(255,211,32)" stroke-linejoin="round" d="M 7438,10526 L 7537,10726 7637,10526 7438,10526 Z"/>
 <path fill="rgb(255,211,32)" stroke="none" d="M 7651,10332 L 7751,10532 7851,10332 7651,10332 Z"/>
 <path fill="none" stroke="rgb(255,211,32)" stroke-linejoin="round" d="M 7651,10332 L 7751,10532 7851,10332 7651,10332 Z"/>
 <path fill="rgb(255,211,32)" stroke="none" d="M 7865,10526 L 7965,10726 8065,10526 7865,10526 Z"/>
 <path fill="none" stroke="rgb(255,211,32)" stroke-linejoin="round" d="M 7865,10526 L 7965,10726 8065,10526 7865,10526 Z"/>
 <path fill="rgb(255,211,32)" stroke="none" d="M 8079,10332 L 8179,10532 8279,10332 8079,10332 Z"/>
 <path fill="none" stroke="rgb(255,211,32)" stroke-linejoin="round" d="M 8079,10332 L 8179,10532 8279,10332 8079,10332 Z"/>
 <path fill="rgb(255,211,32)" stroke="none" d="M 8293,8780 L 8393,8980 8493,8780 8293,8780 Z"/>
 <path fill="none" stroke="rgb(255,211,32)" stroke-linejoin="round" d="M 8293,8780 L 8393,8980 8493,8780 8293,8780 Z"/>
 <path fill="rgb(255,211,32)" stroke="none" d="M 8507,10138 L 8607,10338 8707,10138 8507,10138 Z"/>
 <path fill="none" stroke="rgb(255,211,32)" stroke-linejoin="round" d="M 8507,10138 L 8607,10338 8707,10138 8507,10138 Z"/>
 <path fill="rgb(255,211,32)" stroke="none" d="M 8721,8004 L 8821,8204 8921,8004 8721,8004 Z"/>
 <path fill="none" stroke="rgb(255,211,32)" stroke-linejoin="round" d="M 8721,8004 L 8821,8204 8921,8004 8721,8004 Z"/>
 <path fill="rgb(255,211,32)" stroke="none" d="M 8935,8780 L 9035,8980 9135,8780 8935,8780 Z"/>
 <path fill="none" stroke="rgb(255,211,32)" stroke-linejoin="round" d="M 8935,8780 L 9035,8980 9135,8780 8935,8780 Z"/>
 <path fill="rgb(255,211,32)" stroke="none" d="M 9150,9168 L 9250,9368 9350,9168 9150,9168 Z"/>
 <path fill="none" stroke="rgb(255,211,32)" stroke-linejoin="round" d="M 9150,9168 L 9250,9368 9350,9168 9150,9168 Z"/>
 <path fill="rgb(255,211,32)" stroke="none" d="M 9364,7423 L 9464,7623 9564,7423 9364,7423 Z"/>
 <path fill="none" stroke="rgb(255,211,32)" stroke-linejoin="round" d="M 9364,7423 L 9464,7623 9564,7423 9364,7423 Z"/>
 <path fill="rgb(255,211,32)" stroke="none" d="M 9578,8004 L 9678,8204 9778,8004 9578,8004 Z"/>
 <path fill="none" stroke="rgb(255,211,32)" stroke-linejoin="round" d="M 9578,8004 L 9678,8204 9778,8004 9578,8004 Z"/>
 <path fill="rgb(255,211,32)" stroke="none" d="M 9792,8198 L 9892,8398 9992,8198 9792,8198 Z"/>
 <path fill="none" stroke="rgb(255,211,32)" stroke-linejoin="round" d="M 9792,8198 L 9892,8398 9992,8198 9792,8198 Z"/>
 <path fill="rgb(255,211,32)" stroke="none" d="M 10006,6453 L 10106,6653 10206,6453 10006,6453 Z"/>
 <path fill="none" stroke="rgb(255,211,32)" stroke-linejoin="round" d="M 10006,6453 L 10106,6653 10206,6453 10006,6453 Z"/>
 <path fill="rgb(255,211,32)" stroke="none" d="M 10220,7423 L 10320,7623 10420,7423 10220,7423 Z"/>
 <path fill="none" stroke="rgb(255,211,32)" stroke-linejoin="round" d="M 10220,7423 L 10320,7623 10420,7423 10220,7423 Z"/>
 <path fill="rgb(255,211,32)" stroke="none" d="M 10434,6647 L 10534,6847 10634,6647 10434,6647 Z"/>
 <path fill="none" stroke="rgb(255,211,32)" stroke-linejoin="round" d="M 10434,6647 L 10534,6847 10634,6647 10434,6647 Z"/>
 <path fill="rgb(255,211,32)" stroke="none" d="M 10648,7616 L 10748,7816 10848,7616 10648,7616 Z"/>
 <path fill="none" stroke="rgb(255,211,32)" stroke-linejoin="round" d="M 10648,7616 L 10748,7816 10848,7616 10648,7616 Z"/>
 <path fill="rgb(255,211,32)" stroke="none" d="M 10862,3739 L 10962,3939 11062,3739 10862,3739 Z"/>
 <path fill="none" stroke="rgb(255,211,32)" stroke-linejoin="round" d="M 10862,3739 L 10962,3939 11062,3739 10862,3739 Z"/>
 <path fill="rgb(255,211,32)" stroke="none" d="M 11076,5872 L 11176,6071 11276,5872 11076,5872 Z"/>
 <path fill="none" stroke="rgb(255,211,32)" stroke-linejoin="round" d="M 11076,5872 L 11176,6071 11276,5872 11076,5872 Z"/>
 <path fill="rgb(255,211,32)" stroke="none" d="M 11290,5290 L 11390,5490 11490,5290 11290,5290 Z"/>
 <path fill="none" stroke="rgb(255,211,32)" stroke-linejoin="round" d="M 11290,5290 L 11390,5490 11490,5290 11290,5290 Z"/>
 <path fill="rgb(255,211,32)" stroke="none" d="M 11504,5872 L 11604,6071 11704,5872 11504,5872 Z"/>
 <path fill="none" stroke="rgb(255,211,32)" stroke-linejoin="round" d="M 11504,5872 L 11604,6071 11704,5872 11504,5872 Z"/>
 <path fill="rgb(255,211,32)" stroke="none" d="M 11718,4514 L 11818,4714 11918,4514 11718,4514 Z"/>
 <path fill="none" stroke="rgb(255,211,32)" stroke-linejoin="round" d="M 11718,4514 L 11818,4714 11918,4514 11718,4514 Z"/>
 <path fill="rgb(255,211,32)" stroke="none" d="M 11933,8004 L 12033,8204 12133,8004 11933,8004 Z"/>
 <path fill="none" stroke="rgb(255,211,32)" stroke-linejoin="round" d="M 11933,8004 L 12033,8204 12133,8004 11933,8004 Z"/>
 <path fill="rgb(255,211,32)" stroke="none" d="M 12147,4708 L 12247,4908 12347,4708 12147,4708 Z"/>
 <path fill="none" stroke="rgb(255,211,32)" stroke-linejoin="round" d="M 12147,4708 L 12247,4908 12347,4708 12147,4708 Z"/>
 <path fill="rgb(255,211,32)" stroke="none" d="M 12361,2769 L 12461,2969 12561,2769 12361,2769 Z"/>
 <path fill="none" stroke="rgb(255,211,32)" stroke-linejoin="round" d="M 12361,2769 L 12461,2969 12561,2769 12361,2769 Z"/>
 <path fill="rgb(255,211,32)" stroke="none" d="M 12575,3351 L 12675,3551 12775,3351 12575,3351 Z"/>
 <path fill="none" stroke="rgb(255,211,32)" stroke-linejoin="round" d="M 12575,3351 L 12675,3551 12775,3351 12575,3351 Z"/>
 <path fill="rgb(255,211,32)" stroke="none" d="M 12789,2575 L 12889,2775 12989,2575 12789,2575 Z"/>
 <path fill="none" stroke="rgb(255,211,32)" stroke-linejoin="round" d="M 12789,2575 L 12889,2775 12989,2575 12789,2575 Z"/>
 <path fill="rgb(255,211,32)" stroke="none" d="M 13003,2187 L 13103,2387 13203,2187 13003,2187 Z"/>
 <path fill="none" stroke="rgb(255,211,32)" stroke-linejoin="round" d="M 13003,2187 L 13103,2387 13203,2187 13003,2187 Z"/>
 <path fill="rgb(255,211,32)" stroke="none" d="M 13217,2769 L 13317,2969 13417,2769 13217,2769 Z"/>
 <path fill="none" stroke="rgb(255,211,32)" stroke-linejoin="round" d="M 13217,2769 L 13317,2969 13417,2769 13217,2769 Z"/>
 <path fill="rgb(255,211,32)" stroke="none" d="M 13431,3157 L 13531,3357 13631,3157 13431,3157 Z"/>
 <path fill="none" stroke="rgb(255,211,32)" stroke-linejoin="round" d="M 13431,3157 L 13531,3357 13631,3157 13431,3157 Z"/>
 <path fill="rgb(255,211,32)" stroke="none" d="M 13859,2381 L 13959,2581 14059,2381 13859,2381 Z"/>
 <path fill="none" stroke="rgb(255,211,32)" stroke-linejoin="round" d="M 13859,2381 L 13959,2581 14059,2381 13859,2381 Z"/>
 <path fill="rgb(255,211,32)" stroke="none" d="M 14073,3157 L 14173,3357 14273,3157 14073,3157 Z"/>
 <path fill="none" stroke="rgb(255,211,32)" stroke-linejoin="round" d="M 14073,3157 L 14173,3357 14273,3157 14073,3157 Z"/>
 <path fill="rgb(255,211,32)" stroke="none" d="M 14287,5872 L 14387,6071 14487,5872 14287,5872 Z"/>
 <path fill="none" stroke="rgb(255,211,32)" stroke-linejoin="round" d="M 14287,5872 L 14387,6071 14487,5872 14287,5872 Z"/>
 <path fill="rgb(255,211,32)" stroke="none" d="M 14501,3933 L 14601,4133 14701,3933 14501,3933 Z"/>
 <path fill="none" stroke="rgb(255,211,32)" stroke-linejoin="round" d="M 14501,3933 L 14601,4133 14701,3933 14501,3933 Z"/>
 <path fill="none" stroke="rgb(87,157,28)" stroke-width="50" stroke-linejoin="round" d="M 5397,10820 L 5611,10626 5825,10820 6039,10820 6253,10820 6468,10820 6682,10626 6896,10432 7110,10626 7324,10238 7537,10820 7751,10820 7965,10820 8179,10820 8393,10626 8607,9656 8821,10238 9035,10238 9250,10626 9464,10626 9678,9656 9892,10626 10106,10626 10320,10820 10534,9850 10748,9850 10962,10238 11176,10432 11390,9656 11604,10432 11818,9268 12033,10044 12247,10626 12461,10820 12675,10626 12889,10820 13103,10044 13317,10820 13531,10626 13745,10432 13959,10238 14173,10432 14387,10820"/>
 <path fill="rgb(87,157,28)" stroke="none" d="M 5297,10920 L 5497,10920 5397,10720 5297,10920 Z"/>
 <path fill="none" stroke="rgb(87,157,28)" stroke-linejoin="round" d="M 5297,10920 L 5497,10920 5397,10720 5297,10920 Z"/>
 <path fill="rgb(87,157,28)" stroke="none" d="M 5511,10726 L 5711,10726 5611,10526 5511,10726 Z"/>
 <path fill="none" stroke="rgb(87,157,28)" stroke-linejoin="round" d="M 5511,10726 L 5711,10726 5611,10526 5511,10726 Z"/>
 <path fill="rgb(87,157,28)" stroke="none" d="M 5725,10920 L 5925,10920 5825,10720 5725,10920 Z"/>
 <path fill="none" stroke="rgb(87,157,28)" stroke-linejoin="round" d="M 5725,10920 L 5925,10920 5825,10720 5725,10920 Z"/>
 <path fill="rgb(87,157,28)" stroke="none" d="M 5939,10920 L 6139,10920 6039,10720 5939,10920 Z"/>
 <path fill="none" stroke="rgb(87,157,28)" stroke-linejoin="round" d="M 5939,10920 L 6139,10920 6039,10720 5939,10920 Z"/>
 <path fill="rgb(87,157,28)" stroke="none" d="M 6153,10920 L 6353,10920 6253,10720 6153,10920 Z"/>
 <path fill="none" stroke="rgb(87,157,28)" stroke-linejoin="round" d="M 6153,10920 L 6353,10920 6253,10720 6153,10920 Z"/>
 <path fill="rgb(87,157,28)" stroke="none" d="M 6368,10920 L 6568,10920 6468,10720 6368,10920 Z"/>
 <path fill="none" stroke="rgb(87,157,28)" stroke-linejoin="round" d="M 6368,10920 L 6568,10920 6468,10720 6368,10920 Z"/>
 <path fill="rgb(87,157,28)" stroke="none" d="M 6582,10726 L 6782,10726 6682,10526 6582,10726 Z"/>
 <path fill="none" stroke="rgb(87,157,28)" stroke-linejoin="round" d="M 6582,10726 L 6782,10726 6682,10526 6582,10726 Z"/>
 <path fill="rgb(87,157,28)" stroke="none" d="M 6796,10532 L 6996,10532 6896,10332 6796,10532 Z"/>
 <path fill="none" stroke="rgb(87,157,28)" stroke-linejoin="round" d="M 6796,10532 L 6996,10532 6896,10332 6796,10532 Z"/>
 <path fill="rgb(87,157,28)" stroke="none" d="M 7010,10726 L 7210,10726 7110,10526 7010,10726 Z"/>
 <path fill="none" stroke="rgb(87,157,28)" stroke-linejoin="round" d="M 7010,10726 L 7210,10726 7110,10526 7010,10726 Z"/>
 <path fill="rgb(87,157,28)" stroke="none" d="M 7224,10338 L 7424,10338 7324,10138 7224,10338 Z"/>
 <path fill="none" stroke="rgb(87,157,28)" stroke-linejoin="round" d="M 7224,10338 L 7424,10338 7324,10138 7224,10338 Z"/>
 <path fill="rgb(87,157,28)" stroke="none" d="M 7438,10920 L 7637,10920 7537,10720 7438,10920 Z"/>
 <path fill="none" stroke="rgb(87,157,28)" stroke-linejoin="round" d="M 7438,10920 L 7637,10920 7537,10720 7438,10920 Z"/>
 <path fill="rgb(87,157,28)" stroke="none" d="M 7651,10920 L 7851,10920 7751,10720 7651,10920 Z"/>
 <path fill="none" stroke="rgb(87,157,28)" stroke-linejoin="round" d="M 7651,10920 L 7851,10920 7751,10720 7651,10920 Z"/>
 <path fill="rgb(87,157,28)" stroke="none" d="M 7865,10920 L 8065,10920 7965,10720 7865,10920 Z"/>
 <path fill="none" stroke="rgb(87,157,28)" stroke-linejoin="round" d="M 7865,10920 L 8065,10920 7965,10720 7865,10920 Z"/>
 <path fill="rgb(87,157,28)" stroke="none" d="M 8079,10920 L 8279,10920 8179,10720 8079,10920 Z"/>
 <path fill="none" stroke="rgb(87,157,28)" stroke-linejoin="round" d="M 8079,10920 L 8279,10920 8179,10720 8079,10920 Z"/>
 <path fill="rgb(87,157,28)" stroke="none" d="M 8293,10726 L 8493,10726 8393,10526 8293,10726 Z"/>
 <path fill="none" stroke="rgb(87,157,28)" stroke-linejoin="round" d="M 8293,10726 L 8493,10726 8393,10526 8293,10726 Z"/>
 <path fill="rgb(87,157,28)" stroke="none" d="M 8507,9756 L 8707,9756 8607,9556 8507,9756 Z"/>
 <path fill="none" stroke="rgb(87,157,28)" stroke-linejoin="round" d="M 8507,9756 L 8707,9756 8607,9556 8507,9756 Z"/>
 <path fill="rgb(87,157,28)" stroke="none" d="M 8721,10338 L 8921,10338 8821,10138 8721,10338 Z"/>
 <path fill="none" stroke="rgb(87,157,28)" stroke-linejoin="round" d="M 8721,10338 L 8921,10338 8821,10138 8721,10338 Z"/>
 <path fill="rgb(87,157,28)" stroke="none" d="M 8935,10338 L 9135,10338 9035,10138 8935,10338 Z"/>
 <path fill="none" stroke="rgb(87,157,28)" stroke-linejoin="round" d="M 8935,10338 L 9135,10338 9035,10138 8935,10338 Z"/>
 <path fill="rgb(87,157,28)" stroke="none" d="M 9150,10726 L 9350,10726 9250,10526 9150,10726 Z"/>
 <path fill="none" stroke="rgb(87,157,28)" stroke-linejoin="round" d="M 9150,10726 L 9350,10726 9250,10526 9150,10726 Z"/>
 <path fill="rgb(87,157,28)" stroke="none" d="M 9364,10726 L 9564,10726 9464,10526 9364,10726 Z"/>
 <path fill="none" stroke="rgb(87,157,28)" stroke-linejoin="round" d="M 9364,10726 L 9564,10726 9464,10526 9364,10726 Z"/>
 <path fill="rgb(87,157,28)" stroke="none" d="M 9578,9756 L 9778,9756 9678,9556 9578,9756 Z"/>
 <path fill="none" stroke="rgb(87,157,28)" stroke-linejoin="round" d="M 9578,9756 L 9778,9756 9678,9556 9578,9756 Z"/>
 <path fill="rgb(87,157,28)" stroke="none" d="M 9792,10726 L 9992,10726 9892,10526 9792,10726 Z"/>
 <path fill="none" stroke="rgb(87,157,28)" stroke-linejoin="round" d="M 9792,10726 L 9992,10726 9892,10526 9792,10726 Z"/>
 <path fill="rgb(87,157,28)" stroke="none" d="M 10006,10726 L 10206,10726 10106,10526 10006,10726 Z"/>
 <path fill="none" stroke="rgb(87,157,28)" stroke-linejoin="round" d="M 10006,10726 L 10206,10726 10106,10526 10006,10726 Z"/>
 <path fill="rgb(87,157,28)" stroke="none" d="M 10220,10920 L 10420,10920 10320,10720 10220,10920 Z"/>
 <path fill="none" stroke="rgb(87,157,28)" stroke-linejoin="round" d="M 10220,10920 L 10420,10920 10320,10720 10220,10920 Z"/>
 <path fill="rgb(87,157,28)" stroke="none" d="M 10434,9950 L 10634,9950 10534,9750 10434,9950 Z"/>
 <path fill="none" stroke="rgb(87,157,28)" stroke-linejoin="round" d="M 10434,9950 L 10634,9950 10534,9750 10434,9950 Z"/>
 <path fill="rgb(87,157,28)" stroke="none" d="M 10648,9950 L 10848,9950 10748,9750 10648,9950 Z"/>
 <path fill="none" stroke="rgb(87,157,28)" stroke-linejoin="round" d="M 10648,9950 L 10848,9950 10748,9750 10648,9950 Z"/>
 <path fill="rgb(87,157,28)" stroke="none" d="M 10862,10338 L 11062,10338 10962,10138 10862,10338 Z"/>
 <path fill="none" stroke="rgb(87,157,28)" stroke-linejoin="round" d="M 10862,10338 L 11062,10338 10962,10138 10862,10338 Z"/>
 <path fill="rgb(87,157,28)" stroke="none" d="M 11076,10532 L 11276,10532 11176,10332 11076,10532 Z"/>
 <path fill="none" stroke="rgb(87,157,28)" stroke-linejoin="round" d="M 11076,10532 L 11276,10532 11176,10332 11076,10532 Z"/>
 <path fill="rgb(87,157,28)" stroke="none" d="M 11290,9756 L 11490,9756 11390,9556 11290,9756 Z"/>
 <path fill="none" stroke="rgb(87,157,28)" stroke-linejoin="round" d="M 11290,9756 L 11490,9756 11390,9556 11290,9756 Z"/>
 <path fill="rgb(87,157,28)" stroke="none" d="M 11504,10532 L 11704,10532 11604,10332 11504,10532 Z"/>
 <path fill="none" stroke="rgb(87,157,28)" stroke-linejoin="round" d="M 11504,10532 L 11704,10532 11604,10332 11504,10532 Z"/>
 <path fill="rgb(87,157,28)" stroke="none" d="M 11718,9368 L 11918,9368 11818,9168 11718,9368 Z"/>
 <path fill="none" stroke="rgb(87,157,28)" stroke-linejoin="round" d="M 11718,9368 L 11918,9368 11818,9168 11718,9368 Z"/>
 <path fill="rgb(87,157,28)" stroke="none" d="M 11933,10144 L 12133,10144 12033,9944 11933,10144 Z"/>
 <path fill="none" stroke="rgb(87,157,28)" stroke-linejoin="round" d="M 11933,10144 L 12133,10144 12033,9944 11933,10144 Z"/>
 <path fill="rgb(87,157,28)" stroke="none" d="M 12147,10726 L 12347,10726 12247,10526 12147,10726 Z"/>
 <path fill="none" stroke="rgb(87,157,28)" stroke-linejoin="round" d="M 12147,10726 L 12347,10726 12247,10526 12147,10726 Z"/>
 <path fill="rgb(87,157,28)" stroke="none" d="M 12361,10920 L 12561,10920 12461,10720 12361,10920 Z"/>
 <path fill="none" stroke="rgb(87,157,28)" stroke-linejoin="round" d="M 12361,10920 L 12561,10920 12461,10720 12361,10920 Z"/>
 <path fill="rgb(87,157,28)" stroke="none" d="M 12575,10726 L 12775,10726 12675,10526 12575,10726 Z"/>
 <path fill="none" stroke="rgb(87,157,28)" stroke-linejoin="round" d="M 12575,10726 L 12775,10726 12675,10526 12575,10726 Z"/>
 <path fill="rgb(87,157,28)" stroke="none" d="M 12789,10920 L 12989,10920 12889,10720 12789,10920 Z"/>
 <path fill="none" stroke="rgb(87,157,28)" stroke-linejoin="round" d="M 12789,10920 L 12989,10920 12889,10720 12789,10920 Z"/>
 <path fill="rgb(87,157,28)" stroke="none" d="M 13003,10144 L 13203,10144 13103,9944 13003,10144 Z"/>
 <path fill="none" stroke="rgb(87,157,28)" stroke-linejoin="round" d="M 13003,10144 L 13203,10144 13103,9944 13003,10144 Z"/>
 <path fill="rgb(87,157,28)" stroke="none" d="M 13217,10920 L 13417,10920 13317,10720 13217,10920 Z"/>
 <path fill="none" stroke="rgb(87,157,28)" stroke-linejoin="round" d="M 13217,10920 L 13417,10920 13317,10720 13217,10920 Z"/>
 <path fill="rgb(87,157,28)" stroke="none" d="M 13431,10726 L 13631,10726 13531,10526 13431,10726 Z"/>
 <path fill="none" stroke="rgb(87,157,28)" stroke-linejoin="round" d="M 13431,10726 L 13631,10726 13531,10526 13431,10726 Z"/>
 <path fill="rgb(87,157,28)" stroke="none" d="M 13645,10532 L 13845,10532 13745,10332 13645,10532 Z"/>
 <path fill="none" stroke="rgb(87,157,28)" stroke-linejoin="round" d="M 13645,10532 L 13845,10532 13745,10332 13645,10532 Z"/>
 <path fill="rgb(87,157,28)" stroke="none" d="M 13859,10338 L 14059,10338 13959,10138 13859,10338 Z"/>
 <path fill="none" stroke="rgb(87,157,28)" stroke-linejoin="round" d="M 13859,10338 L 14059,10338 13959,10138 13859,10338 Z"/>
 <path fill="rgb(87,157,28)" stroke="none" d="M 14073,10532 L 14273,10532 14173,10332 14073,10532 Z"/>
 <path fill="none" stroke="rgb(87,157,28)" stroke-linejoin="round" d="M 14073,10532 L 14273,10532 14173,10332 14073,10532 Z"/>
 <path fill="rgb(87,157,28)" stroke="none" d="M 14287,10920 L 14487,10920 14387,10720 14287,10920 Z"/>
 <path fill="none" stroke="rgb(87,157,28)" stroke-linejoin="round" d="M 14287,10920 L 14487,10920 14387,10720 14287,10920 Z"/>
 <path fill="none" stroke="rgb(126,0,33)" stroke-width="50" stroke-linejoin="round" d="M 5397,10626 L 5611,10820 5825,10432 6039,10820 6253,10820 6468,10820 6682,10238 6896,10820 7110,10626 7324,10820 7537,10820 7751,10820 7965,10238 8179,10432 8393,10432 8607,10432 8821,10044 9035,10432 9250,9850 9464,10626 9678,10044 9892,8880 10106,10432 10320,9656 10534,9268 10748,10626 10962,8880 11176,8686 11390,9268 11604,10044 11818,9656 12033,9850 12247,8686 12461,8298 12675,10238 12889,9656 13103,10626 13317,8686 13531,9656 13745,10820 13959,9074 14173,9656 14387,8686 14601,8686"/>
 <path fill="rgb(126,0,33)" stroke="none" d="M 5297,10526 L 5297,10726 5497,10626 5297,10526 Z"/>
 <path fill="none" stroke="rgb(126,0,33)" stroke-linejoin="round" d="M 5297,10526 L 5297,10726 5497,10626 5297,10526 Z"/>
 <path fill="rgb(126,0,33)" stroke="none" d="M 5511,10720 L 5511,10920 5711,10820 5511,10720 Z"/>
 <path fill="none" stroke="rgb(126,0,33)" stroke-linejoin="round" d="M 5511,10720 L 5511,10920 5711,10820 5511,10720 Z"/>
 <path fill="rgb(126,0,33)" stroke="none" d="M 5725,10332 L 5725,10532 5925,10432 5725,10332 Z"/>
 <path fill="none" stroke="rgb(126,0,33)" stroke-linejoin="round" d="M 5725,10332 L 5725,10532 5925,10432 5725,10332 Z"/>
 <path fill="rgb(126,0,33)" stroke="none" d="M 5939,10720 L 5939,10920 6139,10820 5939,10720 Z"/>
 <path fill="none" stroke="rgb(126,0,33)" stroke-linejoin="round" d="M 5939,10720 L 5939,10920 6139,10820 5939,10720 Z"/>
 <path fill="rgb(126,0,33)" stroke="none" d="M 6153,10720 L 6153,10920 6353,10820 6153,10720 Z"/>
 <path fill="none" stroke="rgb(126,0,33)" stroke-linejoin="round" d="M 6153,10720 L 6153,10920 6353,10820 6153,10720 Z"/>
 <path fill="rgb(126,0,33)" stroke="none" d="M 6368,10720 L 6368,10920 6568,10820 6368,10720 Z"/>
 <path fill="none" stroke="rgb(126,0,33)" stroke-linejoin="round" d="M 6368,10720 L 6368,10920 6568,10820 6368,10720 Z"/>
 <path fill="rgb(126,0,33)" stroke="none" d="M 6582,10138 L 6582,10338 6782,10238 6582,10138 Z"/>
 <path fill="none" stroke="rgb(126,0,33)" stroke-linejoin="round" d="M 6582,10138 L 6582,10338 6782,10238 6582,10138 Z"/>
 <path fill="rgb(126,0,33)" stroke="none" d="M 6796,10720 L 6796,10920 6996,10820 6796,10720 Z"/>
 <path fill="none" stroke="rgb(126,0,33)" stroke-linejoin="round" d="M 6796,10720 L 6796,10920 6996,10820 6796,10720 Z"/>
 <path fill="rgb(126,0,33)" stroke="none" d="M 7010,10526 L 7010,10726 7210,10626 7010,10526 Z"/>
 <path fill="none" stroke="rgb(126,0,33)" stroke-linejoin="round" d="M 7010,10526 L 7010,10726 7210,10626 7010,10526 Z"/>
 <path fill="rgb(126,0,33)" stroke="none" d="M 7224,10720 L 7224,10920 7424,10820 7224,10720 Z"/>
 <path fill="none" stroke="rgb(126,0,33)" stroke-linejoin="round" d="M 7224,10720 L 7224,10920 7424,10820 7224,10720 Z"/>
 <path fill="rgb(126,0,33)" stroke="none" d="M 7438,10720 L 7438,10920 7637,10820 7438,10720 Z"/>
 <path fill="none" stroke="rgb(126,0,33)" stroke-linejoin="round" d="M 7438,10720 L 7438,10920 7637,10820 7438,10720 Z"/>
 <path fill="rgb(126,0,33)" stroke="none" d="M 7651,10720 L 7651,10920 7851,10820 7651,10720 Z"/>
 <path fill="none" stroke="rgb(126,0,33)" stroke-linejoin="round" d="M 7651,10720 L 7651,10920 7851,10820 7651,10720 Z"/>
 <path fill="rgb(126,0,33)" stroke="none" d="M 7865,10138 L 7865,10338 8065,10238 7865,10138 Z"/>
 <path fill="none" stroke="rgb(126,0,33)" stroke-linejoin="round" d="M 7865,10138 L 7865,10338 8065,10238 7865,10138 Z"/>
 <path fill="rgb(126,0,33)" stroke="none" d="M 8079,10332 L 8079,10532 8279,10432 8079,10332 Z"/>
 <path fill="none" stroke="rgb(126,0,33)" stroke-linejoin="round" d="M 8079,10332 L 8079,10532 8279,10432 8079,10332 Z"/>
 <path fill="rgb(126,0,33)" stroke="none" d="M 8293,10332 L 8293,10532 8493,10432 8293,10332 Z"/>
 <path fill="none" stroke="rgb(126,0,33)" stroke-linejoin="round" d="M 8293,10332 L 8293,10532 8493,10432 8293,10332 Z"/>
 <path fill="rgb(126,0,33)" stroke="none" d="M 8507,10332 L 8507,10532 8707,10432 8507,10332 Z"/>
 <path fill="none" stroke="rgb(126,0,33)" stroke-linejoin="round" d="M 8507,10332 L 8507,10532 8707,10432 8507,10332 Z"/>
 <path fill="rgb(126,0,33)" stroke="none" d="M 8721,9944 L 8721,10144 8921,10044 8721,9944 Z"/>
 <path fill="none" stroke="rgb(126,0,33)" stroke-linejoin="round" d="M 8721,9944 L 8721,10144 8921,10044 8721,9944 Z"/>
 <path fill="rgb(126,0,33)" stroke="none" d="M 8935,10332 L 8935,10532 9135,10432 8935,10332 Z"/>
 <path fill="none" stroke="rgb(126,0,33)" stroke-linejoin="round" d="M 8935,10332 L 8935,10532 9135,10432 8935,10332 Z"/>
 <path fill="rgb(126,0,33)" stroke="none" d="M 9150,9750 L 9150,9950 9350,9850 9150,9750 Z"/>
 <path fill="none" stroke="rgb(126,0,33)" stroke-linejoin="round" d="M 9150,9750 L 9150,9950 9350,9850 9150,9750 Z"/>
 <path fill="rgb(126,0,33)" stroke="none" d="M 9364,10526 L 9364,10726 9564,10626 9364,10526 Z"/>
 <path fill="none" stroke="rgb(126,0,33)" stroke-linejoin="round" d="M 9364,10526 L 9364,10726 9564,10626 9364,10526 Z"/>
 <path fill="rgb(126,0,33)" stroke="none" d="M 9578,9944 L 9578,10144 9778,10044 9578,9944 Z"/>
 <path fill="none" stroke="rgb(126,0,33)" stroke-linejoin="round" d="M 9578,9944 L 9578,10144 9778,10044 9578,9944 Z"/>
 <path fill="rgb(126,0,33)" stroke="none" d="M 9792,8780 L 9792,8980 9992,8880 9792,8780 Z"/>
 <path fill="none" stroke="rgb(126,0,33)" stroke-linejoin="round" d="M 9792,8780 L 9792,8980 9992,8880 9792,8780 Z"/>
 <path fill="rgb(126,0,33)" stroke="none" d="M 10006,10332 L 10006,10532 10206,10432 10006,10332 Z"/>
 <path fill="none" stroke="rgb(126,0,33)" stroke-linejoin="round" d="M 10006,10332 L 10006,10532 10206,10432 10006,10332 Z"/>
 <path fill="rgb(126,0,33)" stroke="none" d="M 10220,9556 L 10220,9756 10420,9656 10220,9556 Z"/>
 <path fill="none" stroke="rgb(126,0,33)" stroke-linejoin="round" d="M 10220,9556 L 10220,9756 10420,9656 10220,9556 Z"/>
 <path fill="rgb(126,0,33)" stroke="none" d="M 10434,9168 L 10434,9368 10634,9268 10434,9168 Z"/>
 <path fill="none" stroke="rgb(126,0,33)" stroke-linejoin="round" d="M 10434,9168 L 10434,9368 10634,9268 10434,9168 Z"/>
 <path fill="rgb(126,0,33)" stroke="none" d="M 10648,10526 L 10648,10726 10848,10626 10648,10526 Z"/>
 <path fill="none" stroke="rgb(126,0,33)" stroke-linejoin="round" d="M 10648,10526 L 10648,10726 10848,10626 10648,10526 Z"/>
 <path fill="rgb(126,0,33)" stroke="none" d="M 10862,8780 L 10862,8980 11062,8880 10862,8780 Z"/>
 <path fill="none" stroke="rgb(126,0,33)" stroke-linejoin="round" d="M 10862,8780 L 10862,8980 11062,8880 10862,8780 Z"/>
 <path fill="rgb(126,0,33)" stroke="none" d="M 11076,8586 L 11076,8786 11276,8686 11076,8586 Z"/>
 <path fill="none" stroke="rgb(126,0,33)" stroke-linejoin="round" d="M 11076,8586 L 11076,8786 11276,8686 11076,8586 Z"/>
 <path fill="rgb(126,0,33)" stroke="none" d="M 11290,9168 L 11290,9368 11490,9268 11290,9168 Z"/>
 <path fill="none" stroke="rgb(126,0,33)" stroke-linejoin="round" d="M 11290,9168 L 11290,9368 11490,9268 11290,9168 Z"/>
 <path fill="rgb(126,0,33)" stroke="none" d="M 11504,9944 L 11504,10144 11704,10044 11504,9944 Z"/>
 <path fill="none" stroke="rgb(126,0,33)" stroke-linejoin="round" d="M 11504,9944 L 11504,10144 11704,10044 11504,9944 Z"/>
 <path fill="rgb(126,0,33)" stroke="none" d="M 11718,9556 L 11718,9756 11918,9656 11718,9556 Z"/>
 <path fill="none" stroke="rgb(126,0,33)" stroke-linejoin="round" d="M 11718,9556 L 11718,9756 11918,9656 11718,9556 Z"/>
 <path fill="rgb(126,0,33)" stroke="none" d="M 11933,9750 L 11933,9950 12133,9850 11933,9750 Z"/>
 <path fill="none" stroke="rgb(126,0,33)" stroke-linejoin="round" d="M 11933,9750 L 11933,9950 12133,9850 11933,9750 Z"/>
 <path fill="rgb(126,0,33)" stroke="none" d="M 12147,8586 L 12147,8786 12347,8686 12147,8586 Z"/>
 <path fill="none" stroke="rgb(126,0,33)" stroke-linejoin="round" d="M 12147,8586 L 12147,8786 12347,8686 12147,8586 Z"/>
 <path fill="rgb(126,0,33)" stroke="none" d="M 12361,8198 L 12361,8398 12561,8298 12361,8198 Z"/>
 <path fill="none" stroke="rgb(126,0,33)" stroke-linejoin="round" d="M 12361,8198 L 12361,8398 12561,8298 12361,8198 Z"/>
 <path fill="rgb(126,0,33)" stroke="none" d="M 12575,10138 L 12575,10338 12775,10238 12575,10138 Z"/>
 <path fill="none" stroke="rgb(126,0,33)" stroke-linejoin="round" d="M 12575,10138 L 12575,10338 12775,10238 12575,10138 Z"/>
 <path fill="rgb(126,0,33)" stroke="none" d="M 12789,9556 L 12789,9756 12989,9656 12789,9556 Z"/>
 <path fill="none" stroke="rgb(126,0,33)" stroke-linejoin="round" d="M 12789,9556 L 12789,9756 12989,9656 12789,9556 Z"/>
 <path fill="rgb(126,0,33)" stroke="none" d="M 13003,10526 L 13003,10726 13203,10626 13003,10526 Z"/>
 <path fill="none" stroke="rgb(126,0,33)" stroke-linejoin="round" d="M 13003,10526 L 13003,10726 13203,10626 13003,10526 Z"/>
 <path fill="rgb(126,0,33)" stroke="none" d="M 13217,8586 L 13217,8786 13417,8686 13217,8586 Z"/>
 <path fill="none" stroke="rgb(126,0,33)" stroke-linejoin="round" d="M 13217,8586 L 13217,8786 13417,8686 13217,8586 Z"/>
 <path fill="rgb(126,0,33)" stroke="none" d="M 13431,9556 L 13431,9756 13631,9656 13431,9556 Z"/>
 <path fill="none" stroke="rgb(126,0,33)" stroke-linejoin="round" d="M 13431,9556 L 13431,9756 13631,9656 13431,9556 Z"/>
 <path fill="rgb(126,0,33)" stroke="none" d="M 13645,10720 L 13645,10920 13845,10820 13645,10720 Z"/>
 <path fill="none" stroke="rgb(126,0,33)" stroke-linejoin="round" d="M 13645,10720 L 13645,10920 13845,10820 13645,10720 Z"/>
 <path fill="rgb(126,0,33)" stroke="none" d="M 13859,8974 L 13859,9174 14059,9074 13859,8974 Z"/>
 <path fill="none" stroke="rgb(126,0,33)" stroke-linejoin="round" d="M 13859,8974 L 13859,9174 14059,9074 13859,8974 Z"/>
 <path fill="rgb(126,0,33)" stroke="none" d="M 14073,9556 L 14073,9756 14273,9656 14073,9556 Z"/>
 <path fill="none" stroke="rgb(126,0,33)" stroke-linejoin="round" d="M 14073,9556 L 14073,9756 14273,9656 14073,9556 Z"/>
 <path fill="rgb(126,0,33)" stroke="none" d="M 14287,8586 L 14287,8786 14487,8686 14287,8586 Z"/>
 <path fill="none" stroke="rgb(126,0,33)" stroke-linejoin="round" d="M 14287,8586 L 14287,8786 14487,8686 14287,8586 Z"/>
 <path fill="rgb(126,0,33)" stroke="none" d="M 14501,8586 L 14501,8786 14701,8686 14501,8586 Z"/>
 <path fill="none" stroke="rgb(126,0,33)" stroke-linejoin="round" d="M 14501,8586 L 14501,8786 14701,8686 14501,8586 Z"/>
 <path fill="none" stroke="rgb(131,202,255)" stroke-width="50" stroke-linejoin="round" d="M 5397,10820 L 5611,10820 5825,10820 6039,10820 6253,10626 6468,10820 6682,10626 6896,10626 7110,10238 7324,9656 7537,10432 7751,9074 7965,8880 8179,8880 8393,7523 8607,7716 8821,6165 9035,7135 9250,6747 9464,6941 9678,5584 9892,6553 10106,3645 10320,6941 10534,5196 10748,7716 10962,4227 11176,4033 11390,5196 11604,5778 11818,4033 12033,4227 12247,4808 12461,4614 12675,4614 12889,5002 13103,5390 13317,5002 13531,5584 13745,6747 13959,5584 14173,6359 14387,4033 14601,4227"/>
 <path fill="rgb(131,202,255)" stroke="none" d="M 5297,10820 L 5497,10920 5497,10720 5297,10820 Z"/>
 <path fill="none" stroke="rgb(131,202,255)" stroke-linejoin="round" d="M 5297,10820 L 5497,10920 5497,10720 5297,10820 Z"/>
 <path fill="rgb(131,202,255)" stroke="none" d="M 5511,10820 L 5711,10920 5711,10720 5511,10820 Z"/>
 <path fill="none" stroke="rgb(131,202,255)" stroke-linejoin="round" d="M 5511,10820 L 5711,10920 5711,10720 5511,10820 Z"/>
 <path fill="rgb(131,202,255)" stroke="none" d="M 5725,10820 L 5925,10920 5925,10720 5725,10820 Z"/>
 <path fill="none" stroke="rgb(131,202,255)" stroke-linejoin="round" d="M 5725,10820 L 5925,10920 5925,10720 5725,10820 Z"/>
 <path fill="rgb(131,202,255)" stroke="none" d="M 5939,10820 L 6139,10920 6139,10720 5939,10820 Z"/>
 <path fill="none" stroke="rgb(131,202,255)" stroke-linejoin="round" d="M 5939,10820 L 6139,10920 6139,10720 5939,10820 Z"/>
 <path fill="rgb(131,202,255)" stroke="none" d="M 6153,10626 L 6353,10726 6353,10526 6153,10626 Z"/>
 <path fill="none" stroke="rgb(131,202,255)" stroke-linejoin="round" d="M 6153,10626 L 6353,10726 6353,10526 6153,10626 Z"/>
 <path fill="rgb(131,202,255)" stroke="none" d="M 6368,10820 L 6568,10920 6568,10720 6368,10820 Z"/>
 <path fill="none" stroke="rgb(131,202,255)" stroke-linejoin="round" d="M 6368,10820 L 6568,10920 6568,10720 6368,10820 Z"/>
 <path fill="rgb(131,202,255)" stroke="none" d="M 6582,10626 L 6782,10726 6782,10526 6582,10626 Z"/>
 <path fill="none" stroke="rgb(131,202,255)" stroke-linejoin="round" d="M 6582,10626 L 6782,10726 6782,10526 6582,10626 Z"/>
 <path fill="rgb(131,202,255)" stroke="none" d="M 6796,10626 L 6996,10726 6996,10526 6796,10626 Z"/>
 <path fill="none" stroke="rgb(131,202,255)" stroke-linejoin="round" d="M 6796,10626 L 6996,10726 6996,10526 6796,10626 Z"/>
 <path fill="rgb(131,202,255)" stroke="none" d="M 7010,10238 L 7210,10338 7210,10138 7010,10238 Z"/>
 <path fill="none" stroke="rgb(131,202,255)" stroke-linejoin="round" d="M 7010,10238 L 7210,10338 7210,10138 7010,10238 Z"/>
 <path fill="rgb(131,202,255)" stroke="none" d="M 7224,9656 L 7424,9756 7424,9556 7224,9656 Z"/>
 <path fill="none" stroke="rgb(131,202,255)" stroke-linejoin="round" d="M 7224,9656 L 7424,9756 7424,9556 7224,9656 Z"/>
 <path fill="rgb(131,202,255)" stroke="none" d="M 7438,10432 L 7637,10532 7637,10332 7438,10432 Z"/>
 <path fill="none" stroke="rgb(131,202,255)" stroke-linejoin="round" d="M 7438,10432 L 7637,10532 7637,10332 7438,10432 Z"/>
 <path fill="rgb(131,202,255)" stroke="none" d="M 7651,9074 L 7851,9174 7851,8974 7651,9074 Z"/>
 <path fill="none" stroke="rgb(131,202,255)" stroke-linejoin="round" d="M 7651,9074 L 7851,9174 7851,8974 7651,9074 Z"/>
 <path fill="rgb(131,202,255)" stroke="none" d="M 7865,8880 L 8065,8980 8065,8780 7865,8880 Z"/>
 <path fill="none" stroke="rgb(131,202,255)" stroke-linejoin="round" d="M 7865,8880 L 8065,8980 8065,8780 7865,8880 Z"/>
 <path fill="rgb(131,202,255)" stroke="none" d="M 8079,8880 L 8279,8980 8279,8780 8079,8880 Z"/>
 <path fill="none" stroke="rgb(131,202,255)" stroke-linejoin="round" d="M 8079,8880 L 8279,8980 8279,8780 8079,8880 Z"/>
 <path fill="rgb(131,202,255)" stroke="none" d="M 8293,7523 L 8493,7623 8493,7423 8293,7523 Z"/>
 <path fill="none" stroke="rgb(131,202,255)" stroke-linejoin="round" d="M 8293,7523 L 8493,7623 8493,7423 8293,7523 Z"/>
 <path fill="rgb(131,202,255)" stroke="none" d="M 8507,7716 L 8707,7816 8707,7616 8507,7716 Z"/>
 <path fill="none" stroke="rgb(131,202,255)" stroke-linejoin="round" d="M 8507,7716 L 8707,7816 8707,7616 8507,7716 Z"/>
 <path fill="rgb(131,202,255)" stroke="none" d="M 8721,6165 L 8921,6265 8921,6065 8721,6165 Z"/>
 <path fill="none" stroke="rgb(131,202,255)" stroke-linejoin="round" d="M 8721,6165 L 8921,6265 8921,6065 8721,6165 Z"/>
 <path fill="rgb(131,202,255)" stroke="none" d="M 8935,7135 L 9135,7235 9135,7035 8935,7135 Z"/>
 <path fill="none" stroke="rgb(131,202,255)" stroke-linejoin="round" d="M 8935,7135 L 9135,7235 9135,7035 8935,7135 Z"/>
 <path fill="rgb(131,202,255)" stroke="none" d="M 9150,6747 L 9350,6847 9350,6647 9150,6747 Z"/>
 <path fill="none" stroke="rgb(131,202,255)" stroke-linejoin="round" d="M 9150,6747 L 9350,6847 9350,6647 9150,6747 Z"/>
 <path fill="rgb(131,202,255)" stroke="none" d="M 9364,6941 L 9564,7041 9564,6841 9364,6941 Z"/>
 <path fill="none" stroke="rgb(131,202,255)" stroke-linejoin="round" d="M 9364,6941 L 9564,7041 9564,6841 9364,6941 Z"/>
 <path fill="rgb(131,202,255)" stroke="none" d="M 9578,5584 L 9778,5684 9778,5484 9578,5584 Z"/>
 <path fill="none" stroke="rgb(131,202,255)" stroke-linejoin="round" d="M 9578,5584 L 9778,5684 9778,5484 9578,5584 Z"/>
 <path fill="rgb(131,202,255)" stroke="none" d="M 9792,6553 L 9992,6653 9992,6453 9792,6553 Z"/>
 <path fill="none" stroke="rgb(131,202,255)" stroke-linejoin="round" d="M 9792,6553 L 9992,6653 9992,6453 9792,6553 Z"/>
 <path fill="rgb(131,202,255)" stroke="none" d="M 10006,3645 L 10206,3745 10206,3545 10006,3645 Z"/>
 <path fill="none" stroke="rgb(131,202,255)" stroke-linejoin="round" d="M 10006,3645 L 10206,3745 10206,3545 10006,3645 Z"/>
 <path fill="rgb(131,202,255)" stroke="none" d="M 10220,6941 L 10420,7041 10420,6841 10220,6941 Z"/>
 <path fill="none" stroke="rgb(131,202,255)" stroke-linejoin="round" d="M 10220,6941 L 10420,7041 10420,6841 10220,6941 Z"/>
 <path fill="rgb(131,202,255)" stroke="none" d="M 10434,5196 L 10634,5296 10634,5096 10434,5196 Z"/>
 <path fill="none" stroke="rgb(131,202,255)" stroke-linejoin="round" d="M 10434,5196 L 10634,5296 10634,5096 10434,5196 Z"/>
 <path fill="rgb(131,202,255)" stroke="none" d="M 10648,7716 L 10848,7816 10848,7616 10648,7716 Z"/>
 <path fill="none" stroke="rgb(131,202,255)" stroke-linejoin="round" d="M 10648,7716 L 10848,7816 10848,7616 10648,7716 Z"/>
 <path fill="rgb(131,202,255)" stroke="none" d="M 10862,4227 L 11062,4327 11062,4127 10862,4227 Z"/>
 <path fill="none" stroke="rgb(131,202,255)" stroke-linejoin="round" d="M 10862,4227 L 11062,4327 11062,4127 10862,4227 Z"/>
 <path fill="rgb(131,202,255)" stroke="none" d="M 11076,4033 L 11276,4133 11276,3933 11076,4033 Z"/>
 <path fill="none" stroke="rgb(131,202,255)" stroke-linejoin="round" d="M 11076,4033 L 11276,4133 11276,3933 11076,4033 Z"/>
 <path fill="rgb(131,202,255)" stroke="none" d="M 11290,5196 L 11490,5296 11490,5096 11290,5196 Z"/>
 <path fill="none" stroke="rgb(131,202,255)" stroke-linejoin="round" d="M 11290,5196 L 11490,5296 11490,5096 11290,5196 Z"/>
 <path fill="rgb(131,202,255)" stroke="none" d="M 11504,5778 L 11704,5878 11704,5678 11504,5778 Z"/>
 <path fill="none" stroke="rgb(131,202,255)" stroke-linejoin="round" d="M 11504,5778 L 11704,5878 11704,5678 11504,5778 Z"/>
 <path fill="rgb(131,202,255)" stroke="none" d="M 11718,4033 L 11918,4133 11918,3933 11718,4033 Z"/>
 <path fill="none" stroke="rgb(131,202,255)" stroke-linejoin="round" d="M 11718,4033 L 11918,4133 11918,3933 11718,4033 Z"/>
 <path fill="rgb(131,202,255)" stroke="none" d="M 11933,4227 L 12133,4327 12133,4127 11933,4227 Z"/>
 <path fill="none" stroke="rgb(131,202,255)" stroke-linejoin="round" d="M 11933,4227 L 12133,4327 12133,4127 11933,4227 Z"/>
 <path fill="rgb(131,202,255)" stroke="none" d="M 12147,4808 L 12347,4908 12347,4708 12147,4808 Z"/>
 <path fill="none" stroke="rgb(131,202,255)" stroke-linejoin="round" d="M 12147,4808 L 12347,4908 12347,4708 12147,4808 Z"/>
 <path fill="rgb(131,202,255)" stroke="none" d="M 12361,4614 L 12561,4714 12561,4514 12361,4614 Z"/>
 <path fill="none" stroke="rgb(131,202,255)" stroke-linejoin="round" d="M 12361,4614 L 12561,4714 12561,4514 12361,4614 Z"/>
 <path fill="rgb(131,202,255)" stroke="none" d="M 12575,4614 L 12775,4714 12775,4514 12575,4614 Z"/>
 <path fill="none" stroke="rgb(131,202,255)" stroke-linejoin="round" d="M 12575,4614 L 12775,4714 12775,4514 12575,4614 Z"/>
 <path fill="rgb(131,202,255)" stroke="none" d="M 12789,5002 L 12989,5102 12989,4902 12789,5002 Z"/>
 <path fill="none" stroke="rgb(131,202,255)" stroke-linejoin="round" d="M 12789,5002 L 12989,5102 12989,4902 12789,5002 Z"/>
 <path fill="rgb(131,202,255)" stroke="none" d="M 13003,5390 L 13203,5490 13203,5290 13003,5390 Z"/>
 <path fill="none" stroke="rgb(131,202,255)" stroke-linejoin="round" d="M 13003,5390 L 13203,5490 13203,5290 13003,5390 Z"/>
 <path fill="rgb(131,202,255)" stroke="none" d="M 13217,5002 L 13417,5102 13417,4902 13217,5002 Z"/>
 <path fill="none" stroke="rgb(131,202,255)" stroke-linejoin="round" d="M 13217,5002 L 13417,5102 13417,4902 13217,5002 Z"/>
 <path fill="rgb(131,202,255)" stroke="none" d="M 13431,5584 L 13631,5684 13631,5484 13431,5584 Z"/>
 <path fill="none" stroke="rgb(131,202,255)" stroke-linejoin="round" d="M 13431,5584 L 13631,5684 13631,5484 13431,5584 Z"/>
 <path fill="rgb(131,202,255)" stroke="none" d="M 13645,6747 L 13845,6847 13845,6647 13645,6747 Z"/>
 <path fill="none" stroke="rgb(131,202,255)" stroke-linejoin="round" d="M 13645,6747 L 13845,6847 13845,6647 13645,6747 Z"/>
 <path fill="rgb(131,202,255)" stroke="none" d="M 13859,5584 L 14059,5684 14059,5484 13859,5584 Z"/>
 <path fill="none" stroke="rgb(131,202,255)" stroke-linejoin="round" d="M 13859,5584 L 14059,5684 14059,5484 13859,5584 Z"/>
 <path fill="rgb(131,202,255)" stroke="none" d="M 14073,6359 L 14273,6459 14273,6259 14073,6359 Z"/>
 <path fill="none" stroke="rgb(131,202,255)" stroke-linejoin="round" d="M 14073,6359 L 14273,6459 14273,6259 14073,6359 Z"/>
 <path fill="rgb(131,202,255)" stroke="none" d="M 14287,4033 L 14487,4133 14487,3933 14287,4033 Z"/>
 <path fill="none" stroke="rgb(131,202,255)" stroke-linejoin="round" d="M 14287,4033 L 14487,4133 14487,3933 14287,4033 Z"/>
 <path fill="rgb(131,202,255)" stroke="none" d="M 14501,4227 L 14701,4327 14701,4127 14501,4227 Z"/>
 <path fill="none" stroke="rgb(131,202,255)" stroke-linejoin="round" d="M 14501,4227 L 14701,4327 14701,4127 14501,4227 Z"/>
 <text class="TextShape"><tspan class="TextParagraph" font-family="Liberation Sans, sans-serif" font-size="353px" font-weight="400"><tspan class="TextPosition" x="478" y="11388"><tspan fill="rgb(0,0,0)" stroke="none">20/02</tspan></tspan></tspan></text>
 <text class="TextShape"><tspan class="TextParagraph" font-family="Liberation Sans, sans-serif" font-size="353px" font-weight="400"><tspan class="TextPosition" x="1976" y="11388"><tspan fill="rgb(0,0,0)" stroke="none">27/02</tspan></tspan></tspan></text>
 <text class="TextShape"><tspan class="TextParagraph" font-family="Liberation Sans, sans-serif" font-size="353px" font-weight="400"><tspan class="TextPosition" x="3475" y="11388"><tspan fill="rgb(0,0,0)" stroke="none">05/03</tspan></tspan></tspan></text>
 <text class="TextShape"><tspan class="TextParagraph" font-family="Liberation Sans, sans-serif" font-size="353px" font-weight="400"><tspan class="TextPosition" x="4973" y="11388"><tspan fill="rgb(0,0,0)" stroke="none">12/03</tspan></tspan></tspan></text>
 <text class="TextShape"><tspan class="TextParagraph" font-family="Liberation Sans, sans-serif" font-size="353px" font-weight="400"><tspan class="TextPosition" x="6472" y="11388"><tspan fill="rgb(0,0,0)" stroke="none">19/03</tspan></tspan></tspan></text>
 <text class="TextShape"><tspan class="TextParagraph" font-family="Liberation Sans, sans-serif" font-size="353px" font-weight="400"><tspan class="TextPosition" x="7970" y="11388"><tspan fill="rgb(0,0,0)" stroke="none">26/03</tspan></tspan></tspan></text>
 <text class="TextShape"><tspan class="TextParagraph" font-family="Liberation Sans, sans-serif" font-size="353px" font-weight="400"><tspan class="TextPosition" x="9469" y="11388"><tspan fill="rgb(0,0,0)" stroke="none">02/04</tspan></tspan></tspan></text>
 <text class="TextShape"><tspan class="TextParagraph" font-family="Liberation Sans, sans-serif" font-size="353px" font-weight="400"><tspan class="TextPosition" x="10967" y="11388"><tspan fill="rgb(0,0,0)" stroke="none">09/04</tspan></tspan></tspan></text>
 <text class="TextShape"><tspan class="TextParagraph" font-family="Liberation Sans, sans-serif" font-size="353px" font-weight="400"><tspan class="TextPosition" x="12466" y="11388"><tspan fill="rgb(0,0,0)" stroke="none">16/04</tspan></tspan></tspan></text>
 <text class="TextShape"><tspan class="TextParagraph" font-family="Liberation Sans, sans-serif" font-size="353px" font-weight="400"><tspan class="TextPosition" x="13964" y="11388"><tspan fill="rgb(0,0,0)" stroke="none">23/04</tspan></tspan></tspan></text>
 <text class="TextShape"><tspan class="TextParagraph" font-family="Liberation Sans, sans-serif" font-size="353px" font-weight="400"><tspan class="TextPosition" x="175" y="9001"><tspan fill="rgb(0,0,0)" stroke="none">10</tspan></tspan></tspan></text>
 <text class="TextShape"><tspan class="TextParagraph" font-family="Liberation Sans, sans-serif" font-size="353px" font-weight="400"><tspan class="TextPosition" x="175" y="7062"><tspan fill="rgb(0,0,0)" stroke="none">20</tspan></tspan></tspan></text>
 <text class="TextShape"><tspan class="TextParagraph" font-family="Liberation Sans, sans-serif" font-size="353px" font-weight="400"><tspan class="TextPosition" x="175" y="5122"><tspan fill="rgb(0,0,0)" stroke="none">30</tspan></tspan></tspan></text>
 <text class="TextShape"><tspan class="TextParagraph" font-family="Liberation Sans, sans-serif" font-size="353px" font-weight="400"><tspan class="TextPosition" x="175" y="3183"><tspan fill="rgb(0,0,0)" stroke="none">40</tspan></tspan></tspan></text>
 <text class="TextShape"><tspan class="TextParagraph" font-family="Liberation Sans, sans-serif" font-size="353px" font-weight="400"><tspan class="TextPosition" x="175" y="1244"><tspan fill="rgb(0,0,0)" stroke="none">50</tspan></tspan></tspan></text>
 <text class="TextShape"><tspan class="TextParagraph" font-family="Liberation Sans, sans-serif" font-size="459px" font-weight="400"><tspan class="TextPosition" x="2407" y="911"><tspan fill="rgb(0,0,0)" stroke="none">Covid-19. Muertes diarias en Europa Occidental (3)</tspan></tspan></tspan></text>
 <path fill="none" stroke="rgb(0,69,134)" stroke-width="50" stroke-linejoin="round" d="M 5316,2673 L 6116,2673"/>
 <path fill="rgb(0,69,134)" stroke="none" d="M 5610,2568 L 5610,2779 5821,2779 5821,2568 5610,2568 Z"/>
 <path fill="none" stroke="rgb(0,69,134)" stroke-linejoin="round" d="M 5610,2568 L 5610,2779 5821,2779 5821,2568 5610,2568 Z"/>
 <path fill="none" stroke="rgb(255,66,14)" stroke-width="50" stroke-linejoin="round" d="M 5316,3613 L 6116,3613"/>
 <path fill="rgb(255,66,14)" stroke="none" d="M 5610,3613 L 5716,3719 5821,3613 5716,3508 5610,3613 Z"/>
 <path fill="none" stroke="rgb(255,66,14)" stroke-linejoin="round" d="M 5610,3613 L 5716,3719 5821,3613 5716,3508 5610,3613 Z"/>
 <path fill="none" stroke="rgb(255,211,32)" stroke-width="50" stroke-linejoin="round" d="M 5316,4553 L 6116,4553"/>
 <path fill="rgb(255,211,32)" stroke="none" d="M 5610,4448 L 5716,4659 5821,4448 5610,4448 Z"/>
 <path fill="none" stroke="rgb(255,211,32)" stroke-linejoin="round" d="M 5610,4448 L 5716,4659 5821,4448 5610,4448 Z"/>
 <path fill="none" stroke="rgb(87,157,28)" stroke-width="50" stroke-linejoin="round" d="M 5316,5493 L 6116,5493"/>
 <path fill="rgb(87,157,28)" stroke="none" d="M 5610,5599 L 5821,5599 5716,5388 5610,5599 Z"/>
 <path fill="none" stroke="rgb(87,157,28)" stroke-linejoin="round" d="M 5610,5599 L 5821,5599 5716,5388 5610,5599 Z"/>
 <path fill="none" stroke="rgb(126,0,33)" stroke-width="50" stroke-linejoin="round" d="M 5316,6432 L 6116,6432"/>
 <path fill="rgb(126,0,33)" stroke="none" d="M 5610,6327 L 5610,6538 5821,6432 5610,6327 Z"/>
 <path fill="none" stroke="rgb(126,0,33)" stroke-linejoin="round" d="M 5610,6327 L 5610,6538 5821,6432 5610,6327 Z"/>
 <path fill="none" stroke="rgb(131,202,255)" stroke-width="50" stroke-linejoin="round" d="M 5316,7372 L 6116,7372"/>
 <path fill="rgb(131,202,255)" stroke="none" d="M 5610,7372 L 5821,7478 5821,7267 5610,7372 Z"/>
 <path fill="none" stroke="rgb(131,202,255)" stroke-linejoin="round" d="M 5610,7372 L 5821,7478 5821,7267 5610,7372 Z"/>
 <text class="TextShape"><tspan class="TextParagraph" font-family="Liberation Sans, sans-serif" font-size="353px" font-weight="400"><tspan class="TextPosition" x="6216" y="2793"><tspan fill="rgb(0,0,0)" stroke="none">Austria</tspan></tspan></tspan></text>
 <text class="TextShape"><tspan class="TextParagraph" font-family="Liberation Sans, sans-serif" font-size="353px" font-weight="400"><tspan class="TextPosition" x="6216" y="3733"><tspan fill="rgb(0,0,0)" stroke="none">Dinamarca</tspan></tspan></tspan></text>
 <text class="TextShape"><tspan class="TextParagraph" font-family="Liberation Sans, sans-serif" font-size="353px" font-weight="400"><tspan class="TextPosition" x="6216" y="4673"><tspan fill="rgb(0,0,0)" stroke="none">Irlanda</tspan></tspan></tspan></text>
 <text class="TextShape"><tspan class="TextParagraph" font-family="Liberation Sans, sans-serif" font-size="353px" font-weight="400"><tspan class="TextPosition" x="6216" y="5613"><tspan fill="rgb(0,0,0)" stroke="none">Luxemburgo</tspan></tspan></tspan></text>
 <text class="TextShape"><tspan class="TextParagraph" font-family="Liberation Sans, sans-serif" font-size="353px" font-weight="400"><tspan class="TextPosition" x="6216" y="6552"><tspan fill="rgb(0,0,0)" stroke="none">Noruega</tspan></tspan></tspan></text>
 <text class="TextShape"><tspan class="TextParagraph" font-family="Liberation Sans, sans-serif" font-size="353px" font-weight="400"><tspan class="TextPosition" x="6216" y="7492"><tspan fill="rgb(0,0,0)" stroke="none">Portugal</tspan></tspan></tspan></text>
</svg>