<?xml version="1.0" encoding="UTF-8"?>
<!DOCTYPE svg PUBLIC "-//W3C//DTD SVG 1.1//EN" "http://www.w3.org/Graphics/SVG/1.1/DTD/svg11.dtd">
<svg width="150mm" height="120mm" viewBox="0 0 15000 12000" version="1.1" xmlns="http://www.w3.org/2000/svg" xmlns:xlink="http://www.w3.org/1999/xlink" stroke-width="28.222" stroke-linejoin="round" xml:space="preserve">
 <path fill="rgb(255,255,255)" stroke="none" d="M 7500,11713 L 0,11713 0,0 15000,0 15000,11713 7500,11713 Z"/>
 <path fill="none" stroke="rgb(0,0,0)" stroke-linejoin="round" d="M 7983,10897 L 1266,10897 1266,1211 14701,1211 14701,10897 7983,10897 Z"/>
 <path fill="none" stroke="rgb(0,0,0)" stroke-linejoin="round" d="M 14701,10896 L 1266,10896"/>
 <path fill="none" stroke="rgb(0,0,0)" stroke-linejoin="round" d="M 14701,10014 L 1266,10014"/>
 <path fill="none" stroke="rgb(0,0,0)" stroke-linejoin="round" d="M 14701,9134 L 1266,9134"/>
 <path fill="none" stroke="rgb(0,0,0)" stroke-linejoin="round" d="M 14701,8254 L 1266,8254"/>
 <path fill="none" stroke="rgb(0,0,0)" stroke-linejoin="round" d="M 14701,7373 L 1266,7373"/>
 <path fill="none" stroke="rgb(0,0,0)" stroke-linejoin="round" d="M 14701,6493 L 1266,6493"/>
 <path fill="none" stroke="rgb(0,0,0)" stroke-linejoin="round" d="M 14701,5612 L 1266,5612"/>
 <path fill="none" stroke="rgb(0,0,0)" stroke-linejoin="round" d="M 14701,4732 L 1266,4732"/>
 <path fill="none" stroke="rgb(0,0,0)" stroke-linejoin="round" d="M 14701,3851 L 1266,3851"/>
 <path fill="none" stroke="rgb(0,0,0)" stroke-linejoin="round" d="M 14701,2971 L 1266,2971"/>
 <path fill="none" stroke="rgb(0,0,0)" stroke-linejoin="round" d="M 14701,2091 L 1266,2091"/>
 <path fill="none" stroke="rgb(0,0,0)" stroke-linejoin="round" d="M 14701,1210 L 1266,1210"/>
 <path fill="none" stroke="rgb(0,0,0)" stroke-linejoin="round" d="M 1266,11042 L 1266,10896"/>
 <path fill="none" stroke="rgb(0,0,0)" stroke-linejoin="round" d="M 1266,11042 L 1266,10896"/>
 <path fill="none" stroke="rgb(0,0,0)" stroke-linejoin="round" d="M 2113,11042 L 2113,10896"/>
 <path fill="none" stroke="rgb(0,0,0)" stroke-linejoin="round" d="M 2113,11042 L 2113,10896"/>
 <path fill="none" stroke="rgb(0,0,0)" stroke-linejoin="round" d="M 2960,11042 L 2960,10896"/>
 <path fill="none" stroke="rgb(0,0,0)" stroke-linejoin="round" d="M 2960,11042 L 2960,10896"/>
 <path fill="none" stroke="rgb(0,0,0)" stroke-linejoin="round" d="M 3807,11042 L 3807,10896"/>
 <path fill="none" stroke="rgb(0,0,0)" stroke-linejoin="round" d="M 3807,11042 L 3807,10896"/>
 <path fill="none" stroke="rgb(0,0,0)" stroke-linejoin="round" d="M 4655,11042 L 4655,10896"/>
 <path fill="none" stroke="rgb(0,0,0)" stroke-linejoin="round" d="M 4655,11042 L 4655,10896"/>
 <path fill="none" stroke="rgb(0,0,0)" stroke-linejoin="round" d="M 5502,11042 L 5502,10896"/>
 <path fill="none" stroke="rgb(0,0,0)" stroke-linejoin="round" d="M 5502,11042 L 5502,10896"/>
 <path fill="none" stroke="rgb(0,0,0)" stroke-linejoin="round" d="M 6349,11042 L 6349,10896"/>
 <path fill="none" stroke="rgb(0,0,0)" stroke-linejoin="round" d="M 6349,11042 L 6349,10896"/>
 <path fill="none" stroke="rgb(0,0,0)" stroke-linejoin="round" d="M 7197,11042 L 7197,10896"/>
 <path fill="none" stroke="rgb(0,0,0)" stroke-linejoin="round" d="M 7197,11042 L 7197,10896"/>
 <path fill="none" stroke="rgb(0,0,0)" stroke-linejoin="round" d="M 8043,11042 L 8043,10896"/>
 <path fill="none" stroke="rgb(0,0,0)" stroke-linejoin="round" d="M 8043,11042 L 8043,10896"/>
 <path fill="none" stroke="rgb(0,0,0)" stroke-linejoin="round" d="M 8890,11042 L 8890,10896"/>
 <path fill="none" stroke="rgb(0,0,0)" stroke-linejoin="round" d="M 8890,11042 L 8890,10896"/>
 <path fill="none" stroke="rgb(0,0,0)" stroke-linejoin="round" d="M 9738,11042 L 9738,10896"/>
 <path fill="none" stroke="rgb(0,0,0)" stroke-linejoin="round" d="M 9738,11042 L 9738,10896"/>
 <path fill="none" stroke="rgb(0,0,0)" stroke-linejoin="round" d="M 10585,11042 L 10585,10896"/>
 <path fill="none" stroke="rgb(0,0,0)" stroke-linejoin="round" d="M 10585,11042 L 10585,10896"/>
 <path fill="none" stroke="rgb(0,0,0)" stroke-linejoin="round" d="M 11432,11042 L 11432,10896"/>
 <path fill="none" stroke="rgb(0,0,0)" stroke-linejoin="round" d="M 11432,11042 L 11432,10896"/>
 <path fill="none" stroke="rgb(0,0,0)" stroke-linejoin="round" d="M 12280,11042 L 12280,10896"/>
 <path fill="none" stroke="rgb(0,0,0)" stroke-linejoin="round" d="M 12280,11042 L 12280,10896"/>
 <path fill="none" stroke="rgb(0,0,0)" stroke-linejoin="round" d="M 13127,11042 L 13127,10896"/>
 <path fill="none" stroke="rgb(0,0,0)" stroke-linejoin="round" d="M 13127,11042 L 13127,10896"/>
 <path fill="none" stroke="rgb(0,0,0)" stroke-linejoin="round" d="M 13974,11042 L 13974,10896"/>
 <path fill="none" stroke="rgb(0,0,0)" stroke-linejoin="round" d="M 13974,11042 L 13974,10896"/>
 <path fill="none" stroke="rgb(0,0,0)" stroke-linejoin="round" d="M 1266,10896 L 14701,10896"/>
 <path fill="none" stroke="rgb(0,0,0)" stroke-linejoin="round" d="M 1116,10896 L 1266,10896"/>
 <path fill="none" stroke="rgb(0,0,0)" stroke-linejoin="round" d="M 1116,10896 L 1266,10896"/>
 <path fill="none" stroke="rgb(0,0,0)" stroke-linejoin="round" d="M 1116,10014 L 1266,10014"/>
 <path fill="none" stroke="rgb(0,0,0)" stroke-linejoin="round" d="M 1116,10014 L 1266,10014"/>
 <path fill="none" stroke="rgb(0,0,0)" stroke-linejoin="round" d="M 1116,9134 L 1266,9134"/>
 <path fill="none" stroke="rgb(0,0,0)" stroke-linejoin="round" d="M 1116,9134 L 1266,9134"/>
 <path fill="none" stroke="rgb(0,0,0)" stroke-linejoin="round" d="M 1116,8254 L 1266,8254"/>
 <path fill="none" stroke="rgb(0,0,0)" stroke-linejoin="round" d="M 1116,8254 L 1266,8254"/>
 <path fill="none" stroke="rgb(0,0,0)" stroke-linejoin="round" d="M 1116,7373 L 1266,7373"/>
 <path fill="none" stroke="rgb(0,0,0)" stroke-linejoin="round" d="M 1116,7373 L 1266,7373"/>
 <path fill="none" stroke="rgb(0,0,0)" stroke-linejoin="round" d="M 1116,6493 L 1266,6493"/>
 <path fill="none" stroke="rgb(0,0,0)" stroke-linejoin="round" d="M 1116,6493 L 1266,6493"/>
 <path fill="none" stroke="rgb(0,0,0)" stroke-linejoin="round" d="M 1116,5612 L 1266,5612"/>
 <path fill="none" stroke="rgb(0,0,0)" stroke-linejoin="round" d="M 1116,5612 L 1266,5612"/>
 <path fill="none" stroke="rgb(0,0,0)" stroke-linejoin="round" d="M 1116,4732 L 1266,4732"/>
 <path fill="none" stroke="rgb(0,0,0)" stroke-linejoin="round" d="M 1116,4732 L 1266,4732"/>
 <path fill="none" stroke="rgb(0,0,0)" stroke-linejoin="round" d="M 1116,3851 L 1266,3851"/>
 <path fill="none" stroke="rgb(0,0,0)" stroke-linejoin="round" d="M 1116,3851 L 1266,3851"/>
 <path fill="none" stroke="rgb(0,0,0)" stroke-linejoin="round" d="M 1116,2971 L 1266,2971"/>
 <path fill="none" stroke="rgb(0,0,0)" stroke-linejoin="round" d="M 1116,2971 L 1266,2971"/>
 <path fill="none" stroke="rgb(0,0,0)" stroke-linejoin="round" d="M 1116,2091 L 1266,2091"/>
 <path fill="none" stroke="rgb(0,0,0)" stroke-linejoin="round" d="M 1116,2091 L 1266,2091"/>
 <path fill="none" stroke="rgb(0,0,0)" stroke-linejoin="round" d="M 1116,1210 L 1266,1210"/>
 <path fill="none" stroke="rgb(0,0,0)" stroke-linejoin="round" d="M 1116,1210 L 1266,1210"/>
 <path fill="none" stroke="rgb(0,0,0)" stroke-linejoin="round" d="M 1266,10896 L 1266,1210"/>
 <path fill="none" stroke="rgb(0,69,134)" stroke-width="100" stroke-linejoin="round" d="M 1266,10896 L 1387,10893 1508,10871 1629,10865 1750,10857 1871,10855 1992,10847 2113,10847 2234,10836 2355,10832 2476,10819 2597,10814 2718,10804 2839,10796 2960,10792 3081,10778 3202,10766 3323,10736 3444,10703 3565,10687 3686,10664 3807,10657 3928,10646 4050,10616 4171,10595 4292,10581 4413,10563 4534,10557 4655,10549 4776,10541 4897,10780 5018,10778 5139,10768 5260,10764 5381,10753 5502,10747 5623,10745 5744,10742 5865,10740 5986,10738 6107,10733 6228,10723 6349,10721 6470,10717 6591,10711 6713,10701 6834,10701 6955,10697 7076,10689 7197,10685 7318,10680 7439,10674 7559,10664 7680,10662 7801,10661 7922,10646 8043,10638 8164,10634 8285,10623 8406,10616 8527,10604 8648,10595 8769,10585 8890,10573 9011,10559 9132,10531 9253,10500 9375,10486 9496,10458 9617,10444 9738,10403 9859,10375 9980,10346 10101,10314 10222,10277 10343,10226 10464,10178 10585,10145 10706,10105 10827,10038 10948,9970 11069,9870 11190,9806 11311,9738 11432,9696 11553,9635 11674,9542 11795,9441 11916,9341 12038,9200 12159,9039 12280,8891 12401,8712 12522,8429 12643,8162 12764,7883 12885,7591 13006,7241 13127,7013 13248,6768 13369,6226 13490,5851 13611,5427 13732,5046 13853,4643 13974,4343 14095,4017 14216,3318 14337,2919 14458,2650 14579,2214 14701,1814"/>
 <path fill="none" stroke="rgb(255,66,14)" stroke-width="100" stroke-linejoin="round" d="M 1266,10894 L 1387,10893 1508,10891 1629,10890 1750,10889 1871,10889 1992,10889 2113,10874 2234,10861 2355,10861 2476,10860 2597,10859 2718,10859 2839,10859 2960,10821 3081,10818 3202,10819 3323,10805 3444,10799 3565,10799 3686,10799 3807,10784 3928,10772 4050,10705 4171,10698 4292,10685 4413,10685 4534,10685 4655,10666 4776,10640 4897,10616 5018,10602 5139,10595 5260,10595 5381,10595 5502,10551 5623,10522 5744,10500 5865,10479 5986,10383 6107,10383 6228,10383 6349,10333 6470,10292 6591,10274 6713,10238 6834,10213 6955,10213 7076,10213 7197,10160 7318,10079 7439,9955 7559,9871 7680,9824 7801,9824 7922,9824 8043,9737 8164,9612 8285,9544 8406,9501 8527,9442 8648,9442 8769,9442 8890,9349 9011,9243 9132,9152 9253,9057 9375,8998 9496,8998 9617,8998 9738,8926 9859,8791 9980,8752 10101,8686 10222,8560 10343,8560 10464,8560 10585,8460 10706,8418 10827,8309 10948,8236 11069,8121 11190,8121 11311,8121 11432,8009 11553,7896 11674,7815 11795,7735 11916,7615 12038,7615 12159,7615 12280,7469 12401,7331 12522,7244 12643,7154 12764,7030 12885,7030 13006,7030 13127,6833 13248,6710 13369,5867 13490,5675 13611,5496 13732,5496 13853,5496 13974,5230 14095,5016 14216,4835 14337,4651 14458,4490 14579,4490 14701,4490"/>
 <path fill="none" stroke="rgb(255,211,32)" stroke-width="100" stroke-linejoin="round" d="M 1266,10896 L 1387,10850 1508,10804 1629,10804 1750,10804 1871,10713 1992,10667 2113,10622 2234,10622 2355,10622 2476,10577 2597,10531 2718,10485 2839,10439 2960,10394 3081,10394 3202,10394 3323,10394 3444,10348 3565,10348 3686,10348 3807,10348 3928,10348 4050,10348 4171,10348 4292,10348 4413,10348 4534,10348 4655,10348 4776,10348 4897,10348 5018,10348 5139,10348 5260,10348 5381,10348 5502,10348 5623,10348 5744,10348 5865,10348 5986,10348 6107,10348 6228,10348 6349,10348 6470,10348 6591,10348 6713,10348 6834,10348 6955,10348 7076,10348 7197,10348 7318,10348 7439,10348 7559,10348 7680,10348 7801,10348 7922,10348 8043,10348 8164,10348 8285,10348 8406,10348 8527,10348 8648,10348 8769,10348 8890,10348 9011,10348 9132,10302 9253,10302 9375,10302 9496,10302 9617,10212 9738,10166 9859,10166 9980,10121 10101,10075 10222,10075 10343,10075 10464,9938 10585,9938 10706,9938 10827,9938 10948,9938 11069,9938 11190,9938 11311,9847 11432,9802 11553,9710 11674,9619 11795,9573 11916,9573 12038,9573 12159,9300 12280,9300 12401,9300 12522,9163 12643,9072 12764,9072 12885,9072 13006,8708 13127,8388 13248,8206 13369,7933 13490,7750 13611,7477 13732,7203 13853,7796 13974,6884 14095,6610 14216,6383 14337,6018"/>
 <path fill="none" stroke="rgb(87,157,28)" stroke-width="100" stroke-linejoin="round" d="M 1266,10890 L 1387,10885 1508,10880 1629,10875 1750,10871 1871,10871 1992,10871 2113,10862 2234,10861 2355,10858 2476,10856 2597,10852 2718,10852 2839,10852 2960,10846 3081,10842 3202,10836 3323,10830 3444,10825 3565,10825 3686,10825 3807,10817 3928,10810 4050,10804 4171,10800 4292,10792 4413,10789 4534,10789 4655,10784 4776,10780 4897,10780 5018,10769 5139,10762 5260,10760 5381,10759 5502,10749 5623,10741 5744,10733 5865,10726 5986,10733 6107,10729 6228,10728 6349,10719 6470,10706 6591,10699 6713,10691 6834,10664 6955,10659 7076,10657 7197,10645 7318,10629 7439,10614 7559,10597 7680,10546 7801,10539 7922,10535 8043,10517 8164,10492 8285,10477 8406,10460 8527,10411 8648,10398 8769,10389 8890,10363 9011,10335 9132,10314 9253,10293 9375,10248 9496,10234 9617,10223 9738,10201 9859,10178 9980,10152 10101,10128 10222,10092 10343,10074 10464,10058 10585,10027 10706,9991 10827,9957 10948,9929 11069,9869 11190,9840 11311,9812 11432,9764 11553,9678 11674,9624 11795,9570 11916,9472 12038,9427 12159,9389 12280,9304 12401,9131 12522,9051 12643,8973 12764,8794 12885,8720 13006,8644 13127,8507 13248,8225 13369,8099 13490,7979 13611,7705 13732,7606 13853,7517 13974,7335 14095,6933 14216,6825 14337,6685 14458,6378 14579,6261 14701,6161"/>
 <path fill="none" stroke="rgb(126,0,33)" stroke-width="80" stroke-linejoin="round" d="M 3202,10896 L 3323,10896 3444,10885 3565,10883 3686,10881 3807,10880 3928,10876 4050,10870 4171,10867 4292,10867 4413,10861 4534,10858 4655,10857 4776,10851 4897,10845 5018,10840 5139,10837 5260,10832 5381,10832 5502,10831 5623,10830 5744,10826 5865,10822 5986,10818 6107,10814 6228,10813 6349,10812 6470,10800 6591,10797 6713,10791 6834,10789 6955,10786 7076,10784 7197,10781 7318,10771 7439,10763 7559,10755 7680,10745 7801,10736 7922,10729 8043,10725 8164,10711 8285,10697 8406,10682 8527,10669 8648,10657 8769,10650 8890,10646 9011,10619 9132,10592 9253,10571 9375,10546 9496,10528 9617,10516 9738,10508 9859,10480 9980,10455 10101,10425 10222,10393 10343,10363 10464,10339 10585,10321 10706,10267 10827,10216 10948,10165 11069,10115 11190,10058 11311,10034 11432,10004 11553,9915 11674,9844 11795,9773 11916,9690 12038,9625 12159,9569 12280,9531 12401,9395 12522,9280 12643,9175 12764,9074 12885,8953 13006,8892 13127,8841 13248,8694 13369,8511 13490,8371 13611,8239 13732,8085 13853,8027 13974,8021 14095,7757 14216,7536 14337,7327 14458,7187 14579,7015 14701,6953"/>
 <text class="TextShape"><tspan class="TextParagraph" font-family="Liberation Sans, sans-serif" font-size="345px" font-weight="400"><tspan class="TextPosition" x="460" y="10132"><tspan fill="rgb(0,0,0)" stroke="none">200</tspan></tspan></tspan></text>
 <text class="TextShape"><tspan class="TextParagraph" font-family="Liberation Sans, sans-serif" font-size="345px" font-weight="400"><tspan class="TextPosition" x="460" y="9252"><tspan fill="rgb(0,0,0)" stroke="none">400</tspan></tspan></tspan></text>
 <text class="TextShape"><tspan class="TextParagraph" font-family="Liberation Sans, sans-serif" font-size="345px" font-weight="400"><tspan class="TextPosition" x="460" y="8371"><tspan fill="rgb(0,0,0)" stroke="none">600</tspan></tspan></tspan></text>
 <text class="TextShape"><tspan class="TextParagraph" font-family="Liberation Sans, sans-serif" font-size="345px" font-weight="400"><tspan class="TextPosition" x="460" y="7491"><tspan fill="rgb(0,0,0)" stroke="none">800</tspan></tspan></tspan></text>
 <text class="TextShape"><tspan class="TextParagraph" font-family="Liberation Sans, sans-serif" font-size="345px" font-weight="400"><tspan class="TextPosition" x="169" y="6611"><tspan fill="rgb(0,0,0)" stroke="none">1.000</tspan></tspan></tspan></text>
 <text class="TextShape"><tspan class="TextParagraph" font-family="Liberation Sans, sans-serif" font-size="345px" font-weight="400"><tspan class="TextPosition" x="169" y="5729"><tspan fill="rgb(0,0,0)" stroke="none">1.200</tspan></tspan></tspan></text>
 <text class="TextShape"><tspan class="TextParagraph" font-family="Liberation Sans, sans-serif" font-size="345px" font-weight="400"><tspan class="TextPosition" x="169" y="4849"><tspan fill="rgb(0,0,0)" stroke="none">1.400</tspan></tspan></tspan></text>
 <text class="TextShape"><tspan class="TextParagraph" font-family="Liberation Sans, sans-serif" font-size="345px" font-weight="400"><tspan class="TextPosition" x="169" y="3969"><tspan fill="rgb(0,0,0)" stroke="none">1.600</tspan></tspan></tspan></text>
 <text class="TextShape"><tspan class="TextParagraph" font-family="Liberation Sans, sans-serif" font-size="345px" font-weight="400"><tspan class="TextPosition" x="169" y="3088"><tspan fill="rgb(0,0,0)" stroke="none">1.800</tspan></tspan></tspan></text>
 <text class="TextShape"><tspan class="TextParagraph" font-family="Liberation Sans, sans-serif" font-size="345px" font-weight="400"><tspan class="TextPosition" x="169" y="2208"><tspan fill="rgb(0,0,0)" stroke="none">2.000</tspan></tspan></tspan></text>
 <text class="TextShape"><tspan class="TextParagraph" font-family="Liberation Sans, sans-serif" font-size="345px" font-weight="400"><tspan class="TextPosition" x="169" y="1328"><tspan fill="rgb(0,0,0)" stroke="none">2.200</tspan></tspan></tspan></text>
 <text class="TextShape"><tspan class="TextParagraph" font-family="Liberation Sans, sans-serif" font-size="413px" font-weight="400"><tspan class="TextPosition" x="3173" y="571"><tspan fill="rgb(0,0,0)" stroke="none">Muertes acumuladas por millón de mayores de 65 años</tspan></tspan></tspan><tspan class="TextParagraph" font-family="Liberation Sans, sans-serif" font-size="413px" font-weight="400"><tspan class="TextPosition" x="6018" y="1011"><tspan fill="rgb(0,0,0)" stroke="none">en Europa Occidental (1)</tspan></tspan></tspan></text>
 <path fill="none" stroke="rgb(0,69,134)" stroke-width="100" stroke-linejoin="round" d="M 2056,1639 L 2856,1639"/>
 <path fill="none" stroke="rgb(255,66,14)" stroke-width="100" stroke-linejoin="round" d="M 2056,2526 L 2856,2526"/>
 <path fill="none" stroke="rgb(255,211,32)" stroke-width="100" stroke-linejoin="round" d="M 2056,3413 L 2856,3413"/>
 <path fill="none" stroke="rgb(87,157,28)" stroke-width="100" stroke-linejoin="round" d="M 2056,4300 L 2856,4300"/>
 <path fill="none" stroke="rgb(126,0,33)" stroke-width="80" stroke-linejoin="round" d="M 2056,5187 L 2856,5187"/>
 <text class="TextShape"><tspan class="TextParagraph" font-family="Liberation Sans, sans-serif" font-size="345px" font-weight="400"><tspan class="TextPosition" x="2956" y="1756"><tspan fill="rgb(0,0,0)" stroke="none">Bélgica</tspan></tspan></tspan></text>
 <text class="TextShape"><tspan class="TextParagraph" font-family="Liberation Sans, sans-serif" font-size="345px" font-weight="400"><tspan class="TextPosition" x="2956" y="2643"><tspan fill="rgb(0,0,0)" stroke="none">España</tspan></tspan></tspan></text>
 <text class="TextShape"><tspan class="TextParagraph" font-family="Liberation Sans, sans-serif" font-size="345px" font-weight="400"><tspan class="TextPosition" x="2956" y="3530"><tspan fill="rgb(0,0,0)" stroke="none">Luxemburgo</tspan></tspan></tspan></text>
 <text class="TextShape"><tspan class="TextParagraph" font-family="Liberation Sans, sans-serif" font-size="345px" font-weight="400"><tspan class="TextPosition" x="2956" y="4417"><tspan fill="rgb(0,0,0)" stroke="none">Francia</tspan></tspan></tspan></text>
 <text class="TextShape"><tspan class="TextParagraph" font-family="Liberation Sans, sans-serif" font-size="345px" font-weight="400"><tspan class="TextPosition" x="2956" y="5304"><tspan fill="rgb(0,0,0)" stroke="none">Reino Unido</tspan></tspan></tspan></text>
</svg>