<?xml version="1.0" encoding="UTF-8"?>
<!DOCTYPE svg PUBLIC "-//W3C//DTD SVG 1.1//EN" "http://www.w3.org/Graphics/SVG/1.1/DTD/svg11.dtd">
<svg width="150mm" height="120mm" viewBox="0 0 15000 12000" version="1.1" xmlns="http://www.w3.org/2000/svg" xmlns:xlink="http://www.w3.org/1999/xlink" stroke-width="28.222" stroke-linejoin="round" xml:space="preserve">
 <path fill="rgb(255,255,255)" stroke="none" d="M 7548,12000 L 96,12000 96,0 15000,0 15000,12000 7548,12000 Z"/>
 <path fill="none" stroke="rgb(0,0,0)" stroke-linejoin="round" d="M 7892,11128 L 1091,11128 1091,1246 14694,1246 14694,11128 7892,11128 Z"/>
 <path fill="none" stroke="rgb(0,0,0)" stroke-linejoin="round" d="M 14694,11127 L 1091,11127"/>
 <path fill="none" stroke="rgb(0,0,0)" stroke-linejoin="round" d="M 14694,9891 L 1091,9891"/>
 <path fill="none" stroke="rgb(0,0,0)" stroke-linejoin="round" d="M 14694,8656 L 1091,8656"/>
 <path fill="none" stroke="rgb(0,0,0)" stroke-linejoin="round" d="M 14694,7420 L 1091,7420"/>
 <path fill="none" stroke="rgb(0,0,0)" stroke-linejoin="round" d="M 14694,6185 L 1091,6185"/>
 <path fill="none" stroke="rgb(0,0,0)" stroke-linejoin="round" d="M 14694,4951 L 1091,4951"/>
 <path fill="none" stroke="rgb(0,0,0)" stroke-linejoin="round" d="M 14694,3715 L 1091,3715"/>
 <path fill="none" stroke="rgb(0,0,0)" stroke-linejoin="round" d="M 14694,2480 L 1091,2480"/>
 <path fill="none" stroke="rgb(0,0,0)" stroke-linejoin="round" d="M 14694,1245 L 1091,1245"/>
 <path fill="none" stroke="rgb(0,0,0)" stroke-linejoin="round" d="M 1091,11277 L 1091,11127"/>
 <path fill="none" stroke="rgb(0,0,0)" stroke-linejoin="round" d="M 1091,11277 L 1091,11127"/>
 <path fill="none" stroke="rgb(0,0,0)" stroke-linejoin="round" d="M 3421,11277 L 3421,11127"/>
 <path fill="none" stroke="rgb(0,0,0)" stroke-linejoin="round" d="M 3421,11277 L 3421,11127"/>
 <path fill="none" stroke="rgb(0,0,0)" stroke-linejoin="round" d="M 5750,11277 L 5750,11127"/>
 <path fill="none" stroke="rgb(0,0,0)" stroke-linejoin="round" d="M 5750,11277 L 5750,11127"/>
 <path fill="none" stroke="rgb(0,0,0)" stroke-linejoin="round" d="M 8005,11277 L 8005,11127"/>
 <path fill="none" stroke="rgb(0,0,0)" stroke-linejoin="round" d="M 8005,11277 L 8005,11127"/>
 <path fill="none" stroke="rgb(0,0,0)" stroke-linejoin="round" d="M 10334,11277 L 10334,11127"/>
 <path fill="none" stroke="rgb(0,0,0)" stroke-linejoin="round" d="M 10334,11277 L 10334,11127"/>
 <path fill="none" stroke="rgb(0,0,0)" stroke-linejoin="round" d="M 12589,11277 L 12589,11127"/>
 <path fill="none" stroke="rgb(0,0,0)" stroke-linejoin="round" d="M 12589,11277 L 12589,11127"/>
 <path fill="none" stroke="rgb(0,0,0)" stroke-linejoin="round" d="M 1091,11127 L 14694,11127"/>
 <path fill="none" stroke="rgb(0,0,0)" stroke-linejoin="round" d="M 942,11127 L 1091,11127"/>
 <path fill="none" stroke="rgb(0,0,0)" stroke-linejoin="round" d="M 942,11127 L 1091,11127"/>
 <path fill="none" stroke="rgb(0,0,0)" stroke-linejoin="round" d="M 942,9891 L 1091,9891"/>
 <path fill="none" stroke="rgb(0,0,0)" stroke-linejoin="round" d="M 942,9891 L 1091,9891"/>
 <path fill="none" stroke="rgb(0,0,0)" stroke-linejoin="round" d="M 942,8656 L 1091,8656"/>
 <path fill="none" stroke="rgb(0,0,0)" stroke-linejoin="round" d="M 942,8656 L 1091,8656"/>
 <path fill="none" stroke="rgb(0,0,0)" stroke-linejoin="round" d="M 942,7420 L 1091,7420"/>
 <path fill="none" stroke="rgb(0,0,0)" stroke-linejoin="round" d="M 942,7420 L 1091,7420"/>
 <path fill="none" stroke="rgb(0,0,0)" stroke-linejoin="round" d="M 942,6185 L 1091,6185"/>
 <path fill="none" stroke="rgb(0,0,0)" stroke-linejoin="round" d="M 942,6185 L 1091,6185"/>
 <path fill="none" stroke="rgb(0,0,0)" stroke-linejoin="round" d="M 942,4951 L 1091,4951"/>
 <path fill="none" stroke="rgb(0,0,0)" stroke-linejoin="round" d="M 942,4951 L 1091,4951"/>
 <path fill="none" stroke="rgb(0,0,0)" stroke-linejoin="round" d="M 942,3715 L 1091,3715"/>
 <path fill="none" stroke="rgb(0,0,0)" stroke-linejoin="round" d="M 942,3715 L 1091,3715"/>
 <path fill="none" stroke="rgb(0,0,0)" stroke-linejoin="round" d="M 942,2480 L 1091,2480"/>
 <path fill="none" stroke="rgb(0,0,0)" stroke-linejoin="round" d="M 942,2480 L 1091,2480"/>
 <path fill="none" stroke="rgb(0,0,0)" stroke-linejoin="round" d="M 942,1245 L 1091,1245"/>
 <path fill="none" stroke="rgb(0,0,0)" stroke-linejoin="round" d="M 942,1245 L 1091,1245"/>
 <path fill="none" stroke="rgb(0,0,0)" stroke-linejoin="round" d="M 1091,11127 L 1091,1245"/>
 <path fill="none" stroke="rgb(0,69,134)" stroke-width="99" stroke-linejoin="round" d="M 1091,11125 L 1165,11125 1241,11121 1315,11118 1391,11118 1466,11118 1541,11118 1616,11118 1692,11116 1766,11116 1842,11116 1917,11115 1992,11113 2067,11113 2143,11111 2218,11111 2293,11109 2368,11108 2443,11108 2519,11103 2593,11103 2669,11102 2744,11102 2819,11102 2894,11102 2970,11100 3044,11098 3120,11098 3195,11096 3270,11096 3345,11096 3421,11096 3495,11096 3571,11096 3645,11096 3721,11096 3796,11095 3871,11095 3946,11093 4022,11093 4096,11093 4172,11092 4247,11077 4322,11076 4397,11076 4473,11074 4547,11072 4623,11066 4698,11063 4773,11061 4848,11061 4923,11060 4998,11060 5074,11053 5148,11050 5224,11048 5299,11047 5374,11041 5449,11033 5525,11024 5599,11020 5675,11018 5750,11018 5825,11014 5900,11005 5976,11001 6050,10996 6126,10995 6200,10986 6276,10981 6352,10973 6426,10968 6502,10956 6577,10944 6652,10939 6727,10924 6803,10926 6877,10920 6953,10911 7028,10895 7103,10888 7178,10881 7254,10871 7328,10865 7404,10849 7478,10835 7554,10819 7629,10796 7704,10777 7779,10761 7855,10741 7929,10722 8005,10703 8080,10671 8155,10629 8230,10592 8306,10553 8380,10522 8456,10480 8530,10433 8606,10382 8681,10323 8756,10219 8831,10165 8907,10116 8981,10054 9057,9989 9132,9895 9207,9831 9282,9755 9358,9632 9432,9512 9508,9428 9583,9344 9658,9187 9733,9097 9808,8941 9883,8791 9959,8704 10033,8601 10109,8431 10184,8301 10259,8148 10334,7984 10410,7793 10485,7668 10560,7554 10636,7350 10710,7175 10786,7042 10861,6879 10936,6725 11011,6605 11086,6523 11161,6371 11237,6293 11311,6139 11387,5957 11462,5775 11537,5691 11612,5609 11688,5439 11762,5271 11838,4956 11913,4746 11988,4628 12063,4422 12139,4301 12213,4149 12289,3985 12363,3853 12439,3798 12514,3711 12589,3656 12664,3584 12740,3399 12814,3269 12890,3164 12965,3107 13040,3087 13115,3016 13191,2968 13265,2824 13341,2711 13416,2663 13491,2558 13566,2491 13641,2439 13716,2405 13792,2301 13866,2230 13942,2153 14017,2058 14092,1962 14167,1921 14243,1863 14317,1751 14393,1697 14468,1623 14543,1562 14618,1477 14694,1435"/>
 <path fill="none" stroke="rgb(255,66,14)" stroke-width="99" stroke-linejoin="round" d="M 1091,11126 L 1165,11124 1241,11122 1315,11122 1391,11120 1466,11119 1541,11118 1616,11116 1692,11115 1766,11113 1842,11112 1917,11111 1992,11109 2067,11109 2143,11108 2218,11107 2293,11105 2368,11104 2443,11103 2519,11074 2593,11074 2669,11073 2744,11072 2819,11071 2894,11070 2970,11068 3044,11067 3120,11066 3195,11065 3270,11065 3345,11062 3421,11061 3495,11060 3571,11060 3645,11059 3721,11058 3796,11056 3871,11055 3946,11053 4022,11051 4096,11048 4172,11047 4247,11045 4322,11043 4397,11040 4473,11039 4547,11037 4623,11036 4698,11034 4773,11032 4848,11030 4923,11028 4998,11026 5074,11024 5148,11019 5224,11017 5299,11014 5374,11011 5449,11007 5525,11003 5599,10999 5675,10996 5750,10993 5825,10990 5900,10986 5976,10982 6050,10978 6126,10974 6200,10969 6276,10966 6352,10963 6426,10958 6502,10952 6577,10948 6652,10943 6727,10937 6803,10933 6877,10926 6953,10918 7028,10910 7103,10895 7178,10885 7254,10876 7328,10864 7404,10850 7478,10834 7554,10811 7629,10786 7704,10769 7779,10742 7855,10718 7929,10692 8005,10652 8080,10614 8155,10575 8230,10538 8306,10484 8380,10446 8456,10403 8530,10339 8606,10274 8681,10196 8756,10114 8831,10037 8907,9976 8981,9911 9057,9805 9132,9691 9207,9574 9282,9474 9358,9374 9432,9274 9508,9182 9583,9048 9658,8910 9733,8791 9808,8663 9883,8536 9959,8433 10033,8318 10109,8162 10184,8030 10259,7880 10334,7728 10410,7603 10485,7504 10560,7381 10636,7237 10710,7112 10786,6930 10861,6781 10936,6660 11011,6557 11086,6460 11161,6344 11237,6253 11311,6090 11387,5952 11462,5833 11537,5745 11612,5655 11688,5500 11762,5376 11838,5251 11913,5127 11988,5026 12063,4962 12139,4886 12213,4771 12289,4670 12363,4577 12439,4493 12514,4446 12589,4390 12664,4308 12740,4188 12814,4083 12890,3981 12965,3896 13040,3830 13115,3766 13191,3703 13265,3584 13341,3484 13416,3408 13491,3294 13566,3206 13641,3140 13716,3058 13792,2945 13866,2852 13942,2757 14017,2670 14092,2583 14167,2514 14243,2446 14317,2334 14393,2244 14468,2143 14543,2057 14618,1967 14694,1913"/>
 <path fill="none" stroke="rgb(255,211,32)" stroke-width="99" stroke-linejoin="round" d="M 1091,11123 L 1165,11121 1241,11118 1315,11115 1391,11113 1466,11113 1541,11113 1616,11108 1692,11107 1766,11106 1842,11104 1917,11102 1992,11102 2067,11102 2143,11099 2218,11097 2293,11093 2368,11090 2443,11087 2519,11087 2593,11087 2669,11083 2744,11079 2819,11075 2894,11073 2970,11069 3044,11067 3120,11067 3195,11064 3270,11061 3345,11061 3421,11055 3495,11052 3571,11051 3645,11050 3721,11045 3796,11040 3871,11035 3946,11031 4022,11035 4096,11033 4172,11032 4247,11028 4322,11021 4397,11016 4473,11012 4547,10997 4623,10994 4698,10993 4773,10986 4848,10977 4923,10969 4998,10959 5074,10931 5148,10926 5224,10924 5299,10914 5374,10900 5449,10892 5525,10882 5599,10855 5675,10847 5750,10842 5825,10827 5900,10812 5976,10800 6050,10788 6126,10763 6200,10755 6276,10749 6352,10737 6426,10724 6502,10710 6577,10696 6652,10675 6727,10665 6803,10657 6877,10639 6953,10619 7028,10600 7103,10584 7178,10551 7254,10534 7328,10519 7404,10492 7478,10443 7554,10413 7629,10383 7704,10328 7779,10302 7855,10281 7929,10233 8005,10137 8080,10092 8155,10048 8230,9947 8306,9906 8380,9863 8456,9786 8530,9628 8606,9557 8681,9490 8756,9336 8831,9280 8907,9230 8981,9129 9057,8903 9132,8842 9207,8764 9282,8591 9358,8526 9432,8470 9508,8376 9583,8151 9658,8072 9733,7993 9808,7782 9883,7735 9959,7696 10033,7603 10109,7417 10184,7347 10259,7284 10334,7107 10410,7067 10485,7031 10560,6956 10636,6812 10710,6755 10786,6695 10861,6579 10936,6551 11011,6507 11086,6439 11161,6286 11237,6231 11311,6177 11387,6061 11462,6025 11537,5998 11612,5929 11688,5783 11762,5730 11838,5682 11913,5569 11988,5534 12063,5510 12139,5445 12213,5296 12289,5245 12363,5192 12439,5162 12514,5135 12589,5103 12664,5036 12740,4857 12814,4801 12890,4754 12965,4730 13040,4701 13115,4679 13191,4609 13265,4449 13341,4397 13416,4346 13491,4236 13566,4205 13641,4177 13716,4120 13792,3983 13866,3940 13942,3888 14017,3770 14092,3735 14167,3709 14243,3634 14317,3513 14393,3455 14468,3391 14543,3271 14618,3229 14694,3197"/>
 <path fill="none" stroke="rgb(87,157,28)" stroke-width="99" stroke-linejoin="round" d="M 1091,11126 L 1165,11125 1241,11124 1315,11123 1391,11123 1466,11123 1541,11123 1616,11115 1692,11107 1766,11107 1842,11107 1917,11106 1992,11106 2067,11106 2143,11085 2218,11083 2293,11084 2368,11076 2443,11073 2519,11073 2593,11073 2669,11064 2744,11057 2819,11020 2894,11015 2970,11008 3044,11008 3120,11008 3195,10998 3270,10983 3345,10969 3421,10962 3495,10958 3571,10958 3645,10958 3721,10934 3796,10917 3871,10904 3946,10893 4022,10839 4096,10839 4172,10839 4247,10811 4322,10788 4397,10778 4473,10757 4547,10743 4623,10743 4698,10743 4773,10714 4848,10668 4923,10599 4998,10552 5074,10525 5148,10525 5224,10525 5299,10476 5374,10406 5449,10368 5525,10344 5599,10311 5675,10311 5750,10311 5825,10259 5900,10199 5976,10148 6050,10095 6126,10062 6200,10062 6276,10062 6352,10021 6426,9945 6502,9923 6577,9886 6652,9816 6727,9816 6803,9816 6877,9759 6953,9736 7028,9675 7103,9634 7178,9570 7254,9570 7328,9570 7404,9507 7478,9443 7554,9398 7629,9352 7704,9285 7779,9285 7855,9285 7929,9204 8005,9126 8080,9077 8155,9027 8230,8957 8306,8957 8380,8957 8456,8847 8530,8777 8606,8304 8681,8197 8756,8096 8831,8096 8907,8096 8981,7947 9057,7827 9132,7726 9207,7622 9282,7532 9358,7532 9432,7532 9508,7391 9583,7264 9658,7162 9733,7089 9808,6993 9883,6993 9959,6993 10033,6844 10109,6687 10184,6580 10259,6482 10334,6396 10410,6396 10485,6396 10560,6279 10636,6150 10710,6071 10786,5998 10861,5936 10936,5936 11011,5936 11086,5821 11161,5821 11237,5712 11311,5617 11387,5536 11462,5536 11537,5536 11612,5422 11688,5309 11762,5253 11838,5200 11913,5156 11988,5156 12063,5156 12139,5059 12213,4983 12289,4932 12363,4895 12439,4895 12514,4895 12589,4895 12664,4808 12740,4715 12814,4643 12890,4600 12965,4600 13040,4600 13115,4600 13191,4529 13265,4427 13341,4427 13416,4356 13491,4298 13566,4298 13641,4298 13716,4181 13792,4062 13866,4005 13942,3946 14017,3878 14092,3878 14167,3878 14243,3745 14317,3628 14393,3493 14468,3375 14543,3258 14618,3258 14694,3258"/>
 <text class="TextShape"><tspan class="TextParagraph" font-family="Liberation Sans, sans-serif" font-size="353px" font-weight="400"><tspan class="TextPosition" x="670" y="11695"><tspan fill="rgb(0,0,0)" stroke="none">27/07</tspan></tspan></tspan></text>
 <text class="TextShape"><tspan class="TextParagraph" font-family="Liberation Sans, sans-serif" font-size="353px" font-weight="400"><tspan class="TextPosition" x="3000" y="11695"><tspan fill="rgb(0,0,0)" stroke="none">27/08</tspan></tspan></tspan></text>
 <text class="TextShape"><tspan class="TextParagraph" font-family="Liberation Sans, sans-serif" font-size="353px" font-weight="400"><tspan class="TextPosition" x="5330" y="11695"><tspan fill="rgb(0,0,0)" stroke="none">27/09</tspan></tspan></tspan></text>
 <text class="TextShape"><tspan class="TextParagraph" font-family="Liberation Sans, sans-serif" font-size="353px" font-weight="400"><tspan class="TextPosition" x="7584" y="11695"><tspan fill="rgb(0,0,0)" stroke="none">27/10</tspan></tspan></tspan></text>
 <text class="TextShape"><tspan class="TextParagraph" font-family="Liberation Sans, sans-serif" font-size="353px" font-weight="400"><tspan class="TextPosition" x="9914" y="11695"><tspan fill="rgb(0,0,0)" stroke="none">27/11</tspan></tspan></tspan></text>
 <text class="TextShape"><tspan class="TextParagraph" font-family="Liberation Sans, sans-serif" font-size="353px" font-weight="400"><tspan class="TextPosition" x="12168" y="11695"><tspan fill="rgb(0,0,0)" stroke="none">27/12</tspan></tspan></tspan></text>
 <text class="TextShape"><tspan class="TextParagraph" font-family="Liberation Sans, sans-serif" font-size="353px" font-weight="400"><tspan class="TextPosition" x="290" y="10012"><tspan fill="rgb(0,0,0)" stroke="none">500</tspan></tspan></tspan></text>
 <text class="TextShape"><tspan class="TextParagraph" font-family="Liberation Sans, sans-serif" font-size="353px" font-weight="400"><tspan class="TextPosition" x="1" y="8777"><tspan fill="rgb(0,0,0)" stroke="none">1.000</tspan></tspan></tspan></text>
 <text class="TextShape"><tspan class="TextParagraph" font-family="Liberation Sans, sans-serif" font-size="353px" font-weight="400"><tspan class="TextPosition" x="1" y="7541"><tspan fill="rgb(0,0,0)" stroke="none">1.500</tspan></tspan></tspan></text>
 <text class="TextShape"><tspan class="TextParagraph" font-family="Liberation Sans, sans-serif" font-size="353px" font-weight="400"><tspan class="TextPosition" x="1" y="6306"><tspan fill="rgb(0,0,0)" stroke="none">2.000</tspan></tspan></tspan></text>
 <text class="TextShape"><tspan class="TextParagraph" font-family="Liberation Sans, sans-serif" font-size="353px" font-weight="400"><tspan class="TextPosition" x="1" y="5071"><tspan fill="rgb(0,0,0)" stroke="none">2.500</tspan></tspan></tspan></text>
 <text class="TextShape"><tspan class="TextParagraph" font-family="Liberation Sans, sans-serif" font-size="353px" font-weight="400"><tspan class="TextPosition" x="1" y="3835"><tspan fill="rgb(0,0,0)" stroke="none">3.000</tspan></tspan></tspan></text>
 <text class="TextShape"><tspan class="TextParagraph" font-family="Liberation Sans, sans-serif" font-size="353px" font-weight="400"><tspan class="TextPosition" x="1" y="2600"><tspan fill="rgb(0,0,0)" stroke="none">3.500</tspan></tspan></tspan></text>
 <text class="TextShape"><tspan class="TextParagraph" font-family="Liberation Sans, sans-serif" font-size="353px" font-weight="400"><tspan class="TextPosition" x="1" y="1365"><tspan fill="rgb(0,0,0)" stroke="none">4.000</tspan></tspan></tspan></text>
 <text class="TextShape"><tspan class="TextParagraph" font-family="Liberation Sans, sans-serif" font-size="423px" font-weight="400"><tspan class="TextPosition" x="3317" y="497"><tspan fill="rgb(0,0,0)" stroke="none">Muertes acumuladas por millón de mayores de 65 años</tspan></tspan></tspan><tspan class="TextParagraph" font-family="Liberation Sans, sans-serif" font-size="423px" font-weight="400"><tspan class="TextPosition" x="6143" y="947"><tspan fill="rgb(0,0,0)" stroke="none">en Europa Occidental (2)</tspan></tspan></tspan></text>
 <path fill="none" stroke="rgb(0,69,134)" stroke-width="99" stroke-linejoin="round" d="M 2188,1928 L 2983,1928"/>
 <path fill="none" stroke="rgb(255,66,14)" stroke-width="99" stroke-linejoin="round" d="M 2188,3168 L 2983,3168"/>
 <path fill="none" stroke="rgb(255,211,32)" stroke-width="99" stroke-linejoin="round" d="M 2188,4408 L 2983,4408"/>
 <path fill="none" stroke="rgb(87,157,28)" stroke-width="99" stroke-linejoin="round" d="M 2188,5648 L 2983,5648"/>
 <text class="TextShape"><tspan class="TextParagraph" font-family="Liberation Sans, sans-serif" font-size="353px" font-weight="400"><tspan class="TextPosition" x="3082" y="2048"><tspan fill="rgb(0,0,0)" stroke="none">Austria</tspan></tspan></tspan></text>
 <text class="TextShape"><tspan class="TextParagraph" font-family="Liberation Sans, sans-serif" font-size="353px" font-weight="400"><tspan class="TextPosition" x="3082" y="3288"><tspan fill="rgb(0,0,0)" stroke="none">Italia</tspan></tspan></tspan></text>
 <text class="TextShape"><tspan class="TextParagraph" font-family="Liberation Sans, sans-serif" font-size="353px" font-weight="400"><tspan class="TextPosition" x="3082" y="4528"><tspan fill="rgb(0,0,0)" stroke="none">Francia</tspan></tspan></tspan></text>
 <text class="TextShape"><tspan class="TextParagraph" font-family="Liberation Sans, sans-serif" font-size="353px" font-weight="400"><tspan class="TextPosition" x="3082" y="5768"><tspan fill="rgb(0,0,0)" stroke="none">España</tspan></tspan></tspan></text>
</svg>