<?xml version="1.0" encoding="UTF-8"?>
<!DOCTYPE svg PUBLIC "-//W3C//DTD SVG 1.1//EN" "http://www.w3.org/Graphics/SVG/1.1/DTD/svg11.dtd">
<svg width="180mm" height="120mm" viewBox="0 0 18000 12000" version="1.1" xmlns="http://www.w3.org/2000/svg" xmlns:xlink="http://www.w3.org/1999/xlink" stroke-width="28.222" stroke-linejoin="round" xml:space="preserve">
 <path fill="rgb(255,255,255)" stroke="none" d="M 9000,12000 L 0,12000 0,0 18000,0 18000,12000 9000,12000 Z"/>
 <path fill="none" stroke="rgb(178,178,178)" stroke-width="50" stroke-linejoin="round" d="M 8236,11337 L 1278,11337 1278,934 15193,934 15193,11337 8236,11337 Z"/>
 <path fill="none" stroke="rgb(0,0,0)" stroke-linejoin="round" d="M 15193,11336 L 1278,11336"/>
 <path fill="none" stroke="rgb(0,0,0)" stroke-linejoin="round" d="M 15193,10295 L 1278,10295"/>
 <path fill="none" stroke="rgb(0,0,0)" stroke-linejoin="round" d="M 15193,9255 L 1278,9255"/>
 <path fill="none" stroke="rgb(0,0,0)" stroke-linejoin="round" d="M 15193,8214 L 1278,8214"/>
 <path fill="none" stroke="rgb(0,0,0)" stroke-linejoin="round" d="M 15193,7174 L 1278,7174"/>
 <path fill="none" stroke="rgb(0,0,0)" stroke-linejoin="round" d="M 15193,6134 L 1278,6134"/>
 <path fill="none" stroke="rgb(0,0,0)" stroke-linejoin="round" d="M 15193,5094 L 1278,5094"/>
 <path fill="none" stroke="rgb(0,0,0)" stroke-linejoin="round" d="M 15193,4054 L 1278,4054"/>
 <path fill="none" stroke="rgb(0,0,0)" stroke-linejoin="round" d="M 15193,3013 L 1278,3013"/>
 <path fill="none" stroke="rgb(0,0,0)" stroke-linejoin="round" d="M 15193,1973 L 1278,1973"/>
 <path fill="none" stroke="rgb(0,0,0)" stroke-linejoin="round" d="M 15193,933 L 1278,933"/>
 <path fill="none" stroke="rgb(179,179,179)" stroke-linejoin="round" d="M 1278,11486 L 1278,11336"/>
 <path fill="none" stroke="rgb(179,179,179)" stroke-linejoin="round" d="M 1278,11486 L 1278,11336"/>
 <path fill="none" stroke="rgb(179,179,179)" stroke-linejoin="round" d="M 4843,11486 L 4843,11336"/>
 <path fill="none" stroke="rgb(179,179,179)" stroke-linejoin="round" d="M 4843,11486 L 4843,11336"/>
 <path fill="none" stroke="rgb(179,179,179)" stroke-linejoin="round" d="M 8408,11486 L 8408,11336"/>
 <path fill="none" stroke="rgb(179,179,179)" stroke-linejoin="round" d="M 8408,11486 L 8408,11336"/>
 <path fill="none" stroke="rgb(179,179,179)" stroke-linejoin="round" d="M 11857,11486 L 11857,11336"/>
 <path fill="none" stroke="rgb(179,179,179)" stroke-linejoin="round" d="M 11857,11486 L 11857,11336"/>
 <path fill="none" stroke="rgb(179,179,179)" stroke-linejoin="round" d="M 1278,11336 L 15193,11336"/>
 <path fill="none" stroke="rgb(0,0,0)" stroke-linejoin="round" d="M 1128,11336 L 1278,11336"/>
 <path fill="none" stroke="rgb(0,0,0)" stroke-linejoin="round" d="M 1128,11336 L 1278,11336"/>
 <path fill="none" stroke="rgb(0,0,0)" stroke-linejoin="round" d="M 1128,10295 L 1278,10295"/>
 <path fill="none" stroke="rgb(0,0,0)" stroke-linejoin="round" d="M 1128,10295 L 1278,10295"/>
 <path fill="none" stroke="rgb(0,0,0)" stroke-linejoin="round" d="M 1128,9255 L 1278,9255"/>
 <path fill="none" stroke="rgb(0,0,0)" stroke-linejoin="round" d="M 1128,9255 L 1278,9255"/>
 <path fill="none" stroke="rgb(0,0,0)" stroke-linejoin="round" d="M 1128,8214 L 1278,8214"/>
 <path fill="none" stroke="rgb(0,0,0)" stroke-linejoin="round" d="M 1128,8214 L 1278,8214"/>
 <path fill="none" stroke="rgb(0,0,0)" stroke-linejoin="round" d="M 1128,7174 L 1278,7174"/>
 <path fill="none" stroke="rgb(0,0,0)" stroke-linejoin="round" d="M 1128,7174 L 1278,7174"/>
 <path fill="none" stroke="rgb(0,0,0)" stroke-linejoin="round" d="M 1128,6134 L 1278,6134"/>
 <path fill="none" stroke="rgb(0,0,0)" stroke-linejoin="round" d="M 1128,6134 L 1278,6134"/>
 <path fill="none" stroke="rgb(0,0,0)" stroke-linejoin="round" d="M 1128,5094 L 1278,5094"/>
 <path fill="none" stroke="rgb(0,0,0)" stroke-linejoin="round" d="M 1128,5094 L 1278,5094"/>
 <path fill="none" stroke="rgb(0,0,0)" stroke-linejoin="round" d="M 1128,4054 L 1278,4054"/>
 <path fill="none" stroke="rgb(0,0,0)" stroke-linejoin="round" d="M 1128,4054 L 1278,4054"/>
 <path fill="none" stroke="rgb(0,0,0)" stroke-linejoin="round" d="M 1128,3013 L 1278,3013"/>
 <path fill="none" stroke="rgb(0,0,0)" stroke-linejoin="round" d="M 1128,3013 L 1278,3013"/>
 <path fill="none" stroke="rgb(0,0,0)" stroke-linejoin="round" d="M 1128,1973 L 1278,1973"/>
 <path fill="none" stroke="rgb(0,0,0)" stroke-linejoin="round" d="M 1128,1973 L 1278,1973"/>
 <path fill="none" stroke="rgb(0,0,0)" stroke-linejoin="round" d="M 1128,933 L 1278,933"/>
 <path fill="none" stroke="rgb(0,0,0)" stroke-linejoin="round" d="M 1128,933 L 1278,933"/>
 <path fill="none" stroke="rgb(0,0,0)" stroke-linejoin="round" d="M 1278,11336 L 1278,933"/>
 <path fill="rgb(255,166,166)" stroke="none" d="M 1278,11336 L 1393,8480 1508,8214 1623,6836 1738,8735 1853,11336 1968,11336 2083,7611 2198,10957 2313,8735 2428,9717 2543,8363 2658,11336 2773,11336 2888,9780 3003,8587 3118,7798 3233,9152 3348,9385 3463,11336 3578,11336 3693,7868 3808,9000 3923,10428 4038,9322 4153,8553 4268,9569 4383,10919 4498,9198 4613,10112 4728,11336 4843,7419 4958,8320 5073,8935 5188,9602 5303,9032 5418,9271 5533,8786 5648,9190 5763,10439 5878,8788 5993,10035 6108,9647 6223,9151 6338,9106 6453,9409 6568,5932 6683,7934 6798,9648 6913,9255 7028,9495 7143,9984 7258,9387 7373,6065 7488,8477 7603,9789 7718,9263 7833,9431 7948,9732 8063,9053 8178,6915 8293,7982 8408,7910 8523,8582 8638,9632 8753,9602 8868,9554 8983,7511 9097,8904 9212,8440 9327,8860 9442,10137 9557,8668 9672,9114 9787,9192 9902,8882 10017,8856 10132,9010 10247,9408 10362,9517 10477,9640 10592,8778 10707,8930 10822,8328 10937,8812 11052,8910 11167,9133 11282,9180 11397,8275 11512,9066 11627,9149 11742,8587 11857,8487 11972,9594 12087,9362 12202,7765 12317,9366 12432,8650 12547,8079 12662,8056 12777,10183 12892,9468 13007,8007 13122,9349 13237,8809 13352,8457 13467,8217 13582,10103 13697,9661 13812,7839 13927,9428 14042,9282 14157,9026 14272,8356 14387,9820 14502,9565 14617,7881 14732,9944 14847,9997 14962,9203 15077,8842 15193,9903 15193,11336 1278,11336 Z"/>
 <path fill="none" stroke="rgb(0,0,0)" stroke-width="50" stroke-linejoin="round" d="M 1278,11336 L 1393,8480 1508,8214 1623,6836 1738,8735 1853,11336 1968,11336 2083,7611 2198,10957 2313,8735 2428,9717 2543,8363 2658,11336 2773,11336 2888,9780 3003,8587 3118,7798 3233,9152 3348,9385 3463,11336 3578,11336 3693,7868 3808,9000 3923,10428 4038,9322 4153,8553 4268,9569 4383,10919 4498,9198 4613,10112 4728,11336 4843,7419 4958,8320 5073,8935 5188,9602 5303,9032 5418,9271 5533,8786 5648,9190 5763,10439 5878,8788 5993,10035 6108,9647 6223,9151 6338,9106 6453,9409 6568,5932 6683,7934 6798,9648 6913,9255 7028,9495 7143,9984 7258,9387 7373,6065 7488,8477 7603,9789 7718,9263 7833,9431 7948,9732 8063,9053 8178,6915 8293,7982 8408,7910 8523,8582 8638,9632 8753,9602 8868,9554 8983,7511 9097,8904 9212,8440 9327,8860 9442,10137 9557,8668 9672,9114 9787,9192 9902,8882 10017,8856 10132,9010 10247,9408 10362,9517 10477,9640 10592,8778 10707,8930 10822,8328 10937,8812 11052,8910 11167,9133 11282,9180 11397,8275 11512,9066 11627,9149 11742,8587 11857,8487 11972,9594 12087,9362 12202,7765 12317,9366 12432,8650 12547,8079 12662,8056 12777,10183 12892,9468 13007,8007 13122,9349 13237,8809 13352,8457 13467,8217 13582,10103 13697,9661 13812,7839 13927,9428 14042,9282 14157,9026 14272,8356 14387,9820 14502,9565 14617,7881 14732,9944 14847,9997 14962,9203 15077,8842 15193,9903 15193,11336 1278,11336 Z"/>
 <path fill="rgb(255,255,215)" stroke="none" d="M 1278,11336 L 1393,6236 1508,6966 1623,5994 1738,6606 1853,8858 1968,7868 2083,6069 2198,10011 2313,5846 2428,8330 2543,7620 2658,7680 2773,10180 2888,9391 3003,7409 3118,5718 3233,8381 3348,9060 3463,2304 3578,9602 3693,7264 3808,8469 3923,10055 4038,8651 4153,7222 4268,8980 4383,8006 4498,8628 4613,9806 4728,10663 4843,6807 4958,6963 5073,8534 5188,7868 5303,8556 5418,8635 5533,8174 5648,8118 5763,9945 5878,5391 5993,7001 6108,8836 6223,8576 6338,7806 6453,8638 6568,5256 6683,6734 6798,7680 6913,8398 7028,9157 7143,9631 7258,8881 7373,5724 7488,5734 7603,7680 7718,8598 7833,9089 7948,8986 8063,8043 8178,6325 8293,6520 8408,5754 8523,8038 8638,9150 8753,9079 8868,8876 8983,6865 9097,7377 9212,6812 9327,8286 9442,9629 9557,7634 9672,8471 9787,8641 9902,7565 10017,7454 10132,8055 10247,8677 10362,8765 10477,8041 10592,7987 10707,7660 10822,5887 10937,7551 11052,8087 11167,7417 11282,7371 11397,7340 11512,6564 11627,6737 11742,7080 11857,7283 11972,8132 12087,7540 12202,6461 12317,6743 12432,6232 12547,6255 12662,6700 12777,9129 12892,7265 13007,6214 13122,6571 13237,5713 13352,6588 13467,6734 13582,7762 13697,7156 13812,5776 13927,6497 14042,5570 14157,6725 14272,6569 14387,7134 14502,6870 14617,5760 14732,6139 14847,6484 14962,6515 15077,6725 15193,7188 15193,9903 15077,8842 14962,9203 14847,9997 14732,9944 14617,7881 14502,9565 14387,9820 14272,8356 14157,9026 14042,9282 13927,9428 13812,7839 13697,9661 13582,10103 13467,8217 13352,8457 13237,8809 13122,9349 13007,8007 12892,9468 12777,10183 12662,8056 12547,8079 12432,8650 12317,9366 12202,7765 12087,9362 11972,9594 11857,8487 11742,8587 11627,9149 11512,9066 11397,8275 11282,9180 11167,9133 11052,8910 10937,8812 10822,8328 10707,8930 10592,8778 10477,9640 10362,9517 10247,9408 10132,9010 10017,8856 9902,8882 9787,9192 9672,9114 9557,8668 9442,10137 9327,8860 9212,8440 9097,8904 8983,7511 8868,9554 8753,9602 8638,9632 8523,8582 8408,7910 8293,7982 8178,6915 8063,9053 7948,9732 7833,9431 7718,9263 7603,9789 7488,8477 7373,6065 7258,9387 7143,9984 7028,9495 6913,9255 6798,9648 6683,7934 6568,5932 6453,9409 6338,9106 6223,9151 6108,9647 5993,10035 5878,8788 5763,10439 5648,9190 5533,8786 5418,9271 5303,9032 5188,9602 5073,8935 4958,8320 4843,7419 4728,11336 4613,10112 4498,9198 4383,10919 4268,9569 4153,8553 4038,9322 3923,10428 3808,9000 3693,7868 3578,11336 3463,11336 3348,9385 3233,9152 3118,7798 3003,8587 2888,9780 2773,11336 2658,11336 2543,8363 2428,9717 2313,8735 2198,10957 2083,7611 1968,11336 1853,11336 1738,8735 1623,6836 1508,8214 1393,8480 1278,11336 Z"/>
 <path fill="none" stroke="rgb(0,0,0)" stroke-width="50" stroke-linejoin="round" d="M 1278,11336 L 1393,6236 1508,6966 1623,5994 1738,6606 1853,8858 1968,7868 2083,6069 2198,10011 2313,5846 2428,8330 2543,7620 2658,7680 2773,10180 2888,9391 3003,7409 3118,5718 3233,8381 3348,9060 3463,2304 3578,9602 3693,7264 3808,8469 3923,10055 4038,8651 4153,7222 4268,8980 4383,8006 4498,8628 4613,9806 4728,10663 4843,6807 4958,6963 5073,8534 5188,7868 5303,8556 5418,8635 5533,8174 5648,8118 5763,9945 5878,5391 5993,7001 6108,8836 6223,8576 6338,7806 6453,8638 6568,5256 6683,6734 6798,7680 6913,8398 7028,9157 7143,9631 7258,8881 7373,5724 7488,5734 7603,7680 7718,8598 7833,9089 7948,8986 8063,8043 8178,6325 8293,6520 8408,5754 8523,8038 8638,9150 8753,9079 8868,8876 8983,6865 9097,7377 9212,6812 9327,8286 9442,9629 9557,7634 9672,8471 9787,8641 9902,7565 10017,7454 10132,8055 10247,8677 10362,8765 10477,8041 10592,7987 10707,7660 10822,5887 10937,7551 11052,8087 11167,7417 11282,7371 11397,7340 11512,6564 11627,6737 11742,7080 11857,7283 11972,8132 12087,7540 12202,6461 12317,6743 12432,6232 12547,6255 12662,6700 12777,9129 12892,7265 13007,6214 13122,6571 13237,5713 13352,6588 13467,6734 13582,7762 13697,7156 13812,5776 13927,6497 14042,5570 14157,6725 14272,6569 14387,7134 14502,6870 14617,5760 14732,6139 14847,6484 14962,6515 15077,6725 15193,7188 15193,9903 15077,8842 14962,9203 14847,9997 14732,9944 14617,7881 14502,9565 14387,9820 14272,8356 14157,9026 14042,9282 13927,9428 13812,7839 13697,9661 13582,10103 13467,8217 13352,8457 13237,8809 13122,9349 13007,8007 12892,9468 12777,10183 12662,8056 12547,8079 12432,8650 12317,9366 12202,7765 12087,9362 11972,9594 11857,8487 11742,8587 11627,9149 11512,9066 11397,8275 11282,9180 11167,9133 11052,8910 10937,8812 10822,8328 10707,8930 10592,8778 10477,9640 10362,9517 10247,9408 10132,9010 10017,8856 9902,8882 9787,9192 9672,9114 9557,8668 9442,10137 9327,8860 9212,8440 9097,8904 8983,7511 8868,9554 8753,9602 8638,9632 8523,8582 8408,7910 8293,7982 8178,6915 8063,9053 7948,9732 7833,9431 7718,9263 7603,9789 7488,8477 7373,6065 7258,9387 7143,9984 7028,9495 6913,9255 6798,9648 6683,7934 6568,5932 6453,9409 6338,9106 6223,9151 6108,9647 5993,10035 5878,8788 5763,10439 5648,9190 5533,8786 5418,9271 5303,9032 5188,9602 5073,8935 4958,8320 4843,7419 4728,11336 4613,10112 4498,9198 4383,10919 4268,9569 4153,8553 4038,9322 3923,10428 3808,9000 3693,7868 3578,11336 3463,11336 3348,9385 3233,9152 3118,7798 3003,8587 2888,9780 2773,11336 2658,11336 2543,8363 2428,9717 2313,8735 2198,10957 2083,7611 1968,11336 1853,11336 1738,8735 1623,6836 1508,8214 1393,8480 1278,11336 Z"/>
 <path fill="rgb(222,230,239)" stroke="none" d="M 1278,11336 L 1393,6236 1508,6966 1623,5994 1738,6606 1853,8858 1968,7868 2083,6069 2198,10011 2313,5846 2428,8330 2543,7620 2658,7680 2773,10180 2888,9391 3003,7409 3118,5302 3233,5043 3348,7759 3463,2304 3578,9602 3693,2893 3808,5922 3923,3280 4038,5967 4153,4199 4268,8980 4383,8006 4498,3783 4613,5829 4728,8230 4843,3748 4958,4702 5073,8534 5188,7868 5303,1965 5418,4030 5533,3891 5648,3828 5763,1695 5878,5391 5993,7001 6108,2216 6223,4094 6338,4648 6453,3167 6568,2013 6683,6734 6798,7680 6913,2218 7028,3299 7143,2608 7258,2569 7373,2644 7488,5734 7603,7680 7718,2028 7833,3204 7948,4139 8063,4357 8178,2966 8293,6520 8408,5754 8523,1953 8638,5082 8753,4208 8868,3731 8983,3688 9097,7377 9212,6812 9327,3300 9442,4891 9557,5101 9672,4790 9787,3902 9902,7565 10017,7454 10132,3283 10247,7249 10362,5112 10477,5345 10592,4798 10707,7660 10822,5887 10937,3801 11052,6069 11167,5310 11282,5310 11397,4969 11512,6564 11627,6737 11742,4098 11857,5829 11972,6933 12087,6087 12202,4896 12317,6743 12432,6232 12547,3289 12662,5787 12777,4271 12892,5373 13007,4820 13122,6571 13237,5713 13352,3900 13467,5685 13582,6451 13697,5754 13812,4621 13927,6497 14042,5570 14157,4516 14272,5506 14387,5883 14502,5831 14617,4764 14732,6139 14847,6484 14962,4332 15077,5394 15193,5802 15193,7188 15077,6725 14962,6515 14847,6484 14732,6139 14617,5760 14502,6870 14387,7134 14272,6569 14157,6725 14042,5570 13927,6497 13812,5776 13697,7156 13582,7762 13467,6734 13352,6588 13237,5713 13122,6571 13007,6214 12892,7265 12777,9129 12662,6700 12547,6255 12432,6232 12317,6743 12202,6461 12087,7540 11972,8132 11857,7283 11742,7080 11627,6737 11512,6564 11397,7340 11282,7371 11167,7417 11052,8087 10937,7551 10822,5887 10707,7660 10592,7987 10477,8041 10362,8765 10247,8677 10132,8055 10017,7454 9902,7565 9787,8641 9672,8471 9557,7634 9442,9629 9327,8286 9212,6812 9097,7377 8983,6865 8868,8876 8753,9079 8638,9150 8523,8038 8408,5754 8293,6520 8178,6325 8063,8043 7948,8986 7833,9089 7718,8598 7603,7680 7488,5734 7373,5724 7258,8881 7143,9631 7028,9157 6913,8398 6798,7680 6683,6734 6568,5256 6453,8638 6338,7806 6223,8576 6108,8836 5993,7001 5878,5391 5763,9945 5648,8118 5533,8174 5418,8635 5303,8556 5188,7868 5073,8534 4958,6963 4843,6807 4728,10663 4613,9806 4498,8628 4383,8006 4268,8980 4153,7222 4038,8651 3923,10055 3808,8469 3693,7264 3578,9602 3463,2304 3348,9060 3233,8381 3118,5718 3003,7409 2888,9391 2773,10180 2658,7680 2543,7620 2428,8330 2313,5846 2198,10011 2083,6069 1968,7868 1853,8858 1738,6606 1623,5994 1508,6966 1393,6236 1278,11336 Z"/>
 <path fill="none" stroke="rgb(0,0,0)" stroke-width="50" stroke-linejoin="round" d="M 1278,11336 L 1393,6236 1508,6966 1623,5994 1738,6606 1853,8858 1968,7868 2083,6069 2198,10011 2313,5846 2428,8330 2543,7620 2658,7680 2773,10180 2888,9391 3003,7409 3118,5302 3233,5043 3348,7759 3463,2304 3578,9602 3693,2893 3808,5922 3923,3280 4038,5967 4153,4199 4268,8980 4383,8006 4498,3783 4613,5829 4728,8230 4843,3748 4958,4702 5073,8534 5188,7868 5303,1965 5418,4030 5533,3891 5648,3828 5763,1695 5878,5391 5993,7001 6108,2216 6223,4094 6338,4648 6453,3167 6568,2013 6683,6734 6798,7680 6913,2218 7028,3299 7143,2608 7258,2569 7373,2644 7488,5734 7603,7680 7718,2028 7833,3204 7948,4139 8063,4357 8178,2966 8293,6520 8408,5754 8523,1953 8638,5082 8753,4208 8868,3731 8983,3688 9097,7377 9212,6812 9327,3300 9442,4891 9557,5101 9672,4790 9787,3902 9902,7565 10017,7454 10132,3283 10247,7249 10362,5112 10477,5345 10592,4798 10707,7660 10822,5887 10937,3801 11052,6069 11167,5310 11282,5310 11397,4969 11512,6564 11627,6737 11742,4098 11857,5829 11972,6933 12087,6087 12202,4896 12317,6743 12432,6232 12547,3289 12662,5787 12777,4271 12892,5373 13007,4820 13122,6571 13237,5713 13352,3900 13467,5685 13582,6451 13697,5754 13812,4621 13927,6497 14042,5570 14157,4516 14272,5506 14387,5883 14502,5831 14617,4764 14732,6139 14847,6484 14962,4332 15077,5394 15193,5802 15193,7188 15077,6725 14962,6515 14847,6484 14732,6139 14617,5760 14502,6870 14387,7134 14272,6569 14157,6725 14042,5570 13927,6497 13812,5776 13697,7156 13582,7762 13467,6734 13352,6588 13237,5713 13122,6571 13007,6214 12892,7265 12777,9129 12662,6700 12547,6255 12432,6232 12317,6743 12202,6461 12087,7540 11972,8132 11857,7283 11742,7080 11627,6737 11512,6564 11397,7340 11282,7371 11167,7417 11052,8087 10937,7551 10822,5887 10707,7660 10592,7987 10477,8041 10362,8765 10247,8677 10132,8055 10017,7454 9902,7565 9787,8641 9672,8471 9557,7634 9442,9629 9327,8286 9212,6812 9097,7377 8983,6865 8868,8876 8753,9079 8638,9150 8523,8038 8408,5754 8293,6520 8178,6325 8063,8043 7948,8986 7833,9089 7718,8598 7603,7680 7488,5734 7373,5724 7258,8881 7143,9631 7028,9157 6913,8398 6798,7680 6683,6734 6568,5256 6453,8638 6338,7806 6223,8576 6108,8836 5993,7001 5878,5391 5763,9945 5648,8118 5533,8174 5418,8635 5303,8556 5188,7868 5073,8534 4958,6963 4843,6807 4728,10663 4613,9806 4498,8628 4383,8006 4268,8980 4153,7222 4038,8651 3923,10055 3808,8469 3693,7264 3578,9602 3463,2304 3348,9060 3233,8381 3118,5718 3003,7409 2888,9391 2773,10180 2658,7680 2543,7620 2428,8330 2313,5846 2198,10011 2083,6069 1968,7868 1853,8858 1738,6606 1623,5994 1508,6966 1393,6236 1278,11336 Z"/>
 <path fill="rgb(221,232,203)" stroke="none" d="M 1278,11336 L 1393,6236 1508,6966 1623,5994 1738,6606 1853,8858 1968,7868 2083,6069 2198,10011 2313,5846 2428,8330 2543,7620 2658,7680 2773,10180 2888,9391 3003,7409 3118,5302 3233,5043 3348,4726 3463,2076 3578,7434 3693,2440 3808,4648 3923,2426 4038,4960 4153,3957 4268,5447 4383,5510 4498,3213 4613,4605 4728,7402 4843,2279 4958,3345 5073,3734 5188,7434 5303,1806 5418,3792 5533,2871 5648,2434 5763,1246 5878,2843 5993,6134 6108,2013 6223,2370 6338,3719 6453,2089 6568,1608 6683,4934 6798,6274 6913,1667 7028,2285 7143,2020 7258,1751 7373,1720 7488,2647 7603,5150 7718,1597 7833,2300 7948,2760 8063,2601 8178,1964 8293,3512 8408,3597 8523,1511 8638,3659 8753,2254 8868,2063 8983,1832 9097,4608 9212,3828 9327,2619 9442,3511 9557,2767 9672,2540 9787,2191 9902,3886 10017,3951 10132,2059 10247,4698 10362,2716 10477,2686 10592,2844 10707,3608 10822,3516 10937,2419 11052,3839 11167,2730 11282,2795 11397,2668 11512,3683 11627,3892 11742,3007 11857,3830 11972,4722 12087,3737 12202,3101 12317,3865 12432,4350 12547,2224 12662,4262 12777,2798 12892,3428 13007,3393 13122,3873 13237,4254 13352,3800 13467,3877 13582,4216 13697,3536 13812,3210 13927,4009 14042,4428 14157,3544 14272,4044 14387,3996 14502,3764 14617,3212 14732,4270 14847,3996 14962,3454 15077,3885 15193,3189 15193,5802 15077,5394 14962,4332 14847,6484 14732,6139 14617,4764 14502,5831 14387,5883 14272,5506 14157,4516 14042,5570 13927,6497 13812,4621 13697,5754 13582,6451 13467,5685 13352,3900 13237,5713 13122,6571 13007,4820 12892,5373 12777,4271 12662,5787 12547,3289 12432,6232 12317,6743 12202,4896 12087,6087 11972,6933 11857,5829 11742,4098 11627,6737 11512,6564 11397,4969 11282,5310 11167,5310 11052,6069 10937,3801 10822,5887 10707,7660 10592,4798 10477,5345 10362,5112 10247,7249 10132,3283 10017,7454 9902,7565 9787,3902 9672,4790 9557,5101 9442,4891 9327,3300 9212,6812 9097,7377 8983,3688 8868,3731 8753,4208 8638,5082 8523,1953 8408,5754 8293,6520 8178,2966 8063,4357 7948,4139 7833,3204 7718,2028 7603,7680 7488,5734 7373,2644 7258,2569 7143,2608 7028,3299 6913,2218 6798,7680 6683,6734 6568,2013 6453,3167 6338,4648 6223,4094 6108,2216 5993,7001 5878,5391 5763,1695 5648,3828 5533,3891 5418,4030 5303,1965 5188,7868 5073,8534 4958,4702 4843,3748 4728,8230 4613,5829 4498,3783 4383,8006 4268,8980 4153,4199 4038,5967 3923,3280 3808,5922 3693,2893 3578,9602 3463,2304 3348,7759 3233,5043 3118,5302 3003,7409 2888,9391 2773,10180 2658,7680 2543,7620 2428,8330 2313,5846 2198,10011 2083,6069 1968,7868 1853,8858 1738,6606 1623,5994 1508,6966 1393,6236 1278,11336 Z"/>
 <path fill="none" stroke="rgb(0,0,0)" stroke-width="50" stroke-linejoin="round" d="M 1278,11336 L 1393,6236 1508,6966 1623,5994 1738,6606 1853,8858 1968,7868 2083,6069 2198,10011 2313,5846 2428,8330 2543,7620 2658,7680 2773,10180 2888,9391 3003,7409 3118,5302 3233,5043 3348,4726 3463,2076 3578,7434 3693,2440 3808,4648 3923,2426 4038,4960 4153,3957 4268,5447 4383,5510 4498,3213 4613,4605 4728,7402 4843,2279 4958,3345 5073,3734 5188,7434 5303,1806 5418,3792 5533,2871 5648,2434 5763,1246 5878,2843 5993,6134 6108,2013 6223,2370 6338,3719 6453,2089 6568,1608 6683,4934 6798,6274 6913,1667 7028,2285 7143,2020 7258,1751 7373,1720 7488,2647 7603,5150 7718,1597 7833,2300 7948,2760 8063,2601 8178,1964 8293,3512 8408,3597 8523,1511 8638,3659 8753,2254 8868,2063 8983,1832 9097,4608 9212,3828 9327,2619 9442,3511 9557,2767 9672,2540 9787,2191 9902,3886 10017,3951 10132,2059 10247,4698 10362,2716 10477,2686 10592,2844 10707,3608 10822,3516 10937,2419 11052,3839 11167,2730 11282,2795 11397,2668 11512,3683 11627,3892 11742,3007 11857,3830 11972,4722 12087,3737 12202,3101 12317,3865 12432,4350 12547,2224 12662,4262 12777,2798 12892,3428 13007,3393 13122,3873 13237,4254 13352,3800 13467,3877 13582,4216 13697,3536 13812,3210 13927,4009 14042,4428 14157,3544 14272,4044 14387,3996 14502,3764 14617,3212 14732,4270 14847,3996 14962,3454 15077,3885 15193,3189 15193,5802 15077,5394 14962,4332 14847,6484 14732,6139 14617,4764 14502,5831 14387,5883 14272,5506 14157,4516 14042,5570 13927,6497 13812,4621 13697,5754 13582,6451 13467,5685 13352,3900 13237,5713 13122,6571 13007,4820 12892,5373 12777,4271 12662,5787 12547,3289 12432,6232 12317,6743 12202,4896 12087,6087 11972,6933 11857,5829 11742,4098 11627,6737 11512,6564 11397,4969 11282,5310 11167,5310 11052,6069 10937,3801 10822,5887 10707,7660 10592,4798 10477,5345 10362,5112 10247,7249 10132,3283 10017,7454 9902,7565 9787,3902 9672,4790 9557,5101 9442,4891 9327,3300 9212,6812 9097,7377 8983,3688 8868,3731 8753,4208 8638,5082 8523,1953 8408,5754 8293,6520 8178,2966 8063,4357 7948,4139 7833,3204 7718,2028 7603,7680 7488,5734 7373,2644 7258,2569 7143,2608 7028,3299 6913,2218 6798,7680 6683,6734 6568,2013 6453,3167 6338,4648 6223,4094 6108,2216 5993,7001 5878,5391 5763,1695 5648,3828 5533,3891 5418,4030 5303,1965 5188,7868 5073,8534 4958,4702 4843,3748 4728,8230 4613,5829 4498,3783 4383,8006 4268,8980 4153,4199 4038,5967 3923,3280 3808,5922 3693,2893 3578,9602 3463,2304 3348,7759 3233,5043 3118,5302 3003,7409 2888,9391 2773,10180 2658,7680 2543,7620 2428,8330 2313,5846 2198,10011 2083,6069 1968,7868 1853,8858 1738,6606 1623,5994 1508,6966 1393,6236 1278,11336 Z"/>
 <path fill="rgb(183,179,202)" stroke="none" d="M 1278,11336 L 1393,6031 1508,4678 1623,5150 1738,5662 1853,8363 1968,6134 2083,6069 2198,9066 2313,5268 2428,6712 2543,7124 2658,6274 2773,7868 2888,9196 3003,6035 3118,4054 3233,3116 3348,2992 3463,1618 3578,2667 3693,1837 3808,4117 3923,1626 4038,3282 4153,3110 4268,3681 4383,4262 4498,2643 4613,4299 4728,1295 4843,2157 4958,2591 5073,2933 5188,5268 5303,1568 5418,3712 5533,2667 5648,2327 5763,1202 5878,2419 5993,3967 6108,1946 6223,2255 6338,3441 6453,1703 6568,1608 6683,4534 6798,5150 6913,1545 7028,2210 7143,1932 7258,1556 7373,1685 7488,2533 7603,4166 7718,1441 7833,2251 7948,2573 8063,2425 8178,1787 8293,3168 8408,2963 8523,1307 8638,3518 8753,1868 8868,1639 8983,1635 9097,3816 9212,3194 9327,1901 9442,3257 9557,2300 9672,2072 9787,1837 9902,2750 10017,2658 10132,1667 10247,4341 10362,2139 10477,2031 10592,2140 10707,2743 10822,2348 10937,2056 11052,3561 11167,2108 11282,2130 11397,2165 11512,2523 11627,2403 11742,2226 11857,3346 11972,3730 12087,2629 12202,2197 12317,2593 12432,2339 12547,1347 12662,3798 12777,1995 12892,2476 13007,2553 13122,2645 13237,2392 13352,3023 13467,3466 13582,2920 13697,2760 13812,2711 13927,2851 14042,3088 14157,3005 14272,3568 14387,3201 14502,2996 14617,2693 14732,3413 14847,2933 14962,3044 15077,3545 15193,2500 15193,3189 15077,3885 14962,3454 14847,3996 14732,4270 14617,3212 14502,3764 14387,3996 14272,4044 14157,3544 14042,4428 13927,4009 13812,3210 13697,3536 13582,4216 13467,3877 13352,3800 13237,4254 13122,3873 13007,3393 12892,3428 12777,2798 12662,4262 12547,2224 12432,4350 12317,3865 12202,3101 12087,3737 11972,4722 11857,3830 11742,3007 11627,3892 11512,3683 11397,2668 11282,2795 11167,2730 11052,3839 10937,2419 10822,3516 10707,3608 10592,2844 10477,2686 10362,2716 10247,4698 10132,2059 10017,3951 9902,3886 9787,2191 9672,2540 9557,2767 9442,3511 9327,2619 9212,3828 9097,4608 8983,1832 8868,2063 8753,2254 8638,3659 8523,1511 8408,3597 8293,3512 8178,1964 8063,2601 7948,2760 7833,2300 7718,1597 7603,5150 7488,2647 7373,1720 7258,1751 7143,2020 7028,2285 6913,1667 6798,6274 6683,4934 6568,1608 6453,2089 6338,3719 6223,2370 6108,2013 5993,6134 5878,2843 5763,1246 5648,2434 5533,2871 5418,3792 5303,1806 5188,7434 5073,3734 4958,3345 4843,2279 4728,7402 4613,4605 4498,3213 4383,5510 4268,5447 4153,3957 4038,4960 3923,2426 3808,4648 3693,2440 3578,7434 3463,2076 3348,4726 3233,5043 3118,5302 3003,7409 2888,9391 2773,10180 2658,7680 2543,7620 2428,8330 2313,5846 2198,10011 2083,6069 1968,7868 1853,8858 1738,6606 1623,5994 1508,6966 1393,6236 1278,11336 Z"/>
 <path fill="none" stroke="rgb(0,0,0)" stroke-width="50" stroke-linejoin="round" d="M 1278,11336 L 1393,6031 1508,4678 1623,5150 1738,5662 1853,8363 1968,6134 2083,6069 2198,9066 2313,5268 2428,6712 2543,7124 2658,6274 2773,7868 2888,9196 3003,6035 3118,4054 3233,3116 3348,2992 3463,1618 3578,2667 3693,1837 3808,4117 3923,1626 4038,3282 4153,3110 4268,3681 4383,4262 4498,2643 4613,4299 4728,1295 4843,2157 4958,2591 5073,2933 5188,5268 5303,1568 5418,3712 5533,2667 5648,2327 5763,1202 5878,2419 5993,3967 6108,1946 6223,2255 6338,3441 6453,1703 6568,1608 6683,4534 6798,5150 6913,1545 7028,2210 7143,1932 7258,1556 7373,1685 7488,2533 7603,4166 7718,1441 7833,2251 7948,2573 8063,2425 8178,1787 8293,3168 8408,2963 8523,1307 8638,3518 8753,1868 8868,1639 8983,1635 9097,3816 9212,3194 9327,1901 9442,3257 9557,2300 9672,2072 9787,1837 9902,2750 10017,2658 10132,1667 10247,4341 10362,2139 10477,2031 10592,2140 10707,2743 10822,2348 10937,2056 11052,3561 11167,2108 11282,2130 11397,2165 11512,2523 11627,2403 11742,2226 11857,3346 11972,3730 12087,2629 12202,2197 12317,2593 12432,2339 12547,1347 12662,3798 12777,1995 12892,2476 13007,2553 13122,2645 13237,2392 13352,3023 13467,3466 13582,2920 13697,2760 13812,2711 13927,2851 14042,3088 14157,3005 14272,3568 14387,3201 14502,2996 14617,2693 14732,3413 14847,2933 14962,3044 15077,3545 15193,2500 15193,3189 15077,3885 14962,3454 14847,3996 14732,4270 14617,3212 14502,3764 14387,3996 14272,4044 14157,3544 14042,4428 13927,4009 13812,3210 13697,3536 13582,4216 13467,3877 13352,3800 13237,4254 13122,3873 13007,3393 12892,3428 12777,2798 12662,4262 12547,2224 12432,4350 12317,3865 12202,3101 12087,3737 11972,4722 11857,3830 11742,3007 11627,3892 11512,3683 11397,2668 11282,2795 11167,2730 11052,3839 10937,2419 10822,3516 10707,3608 10592,2844 10477,2686 10362,2716 10247,4698 10132,2059 10017,3951 9902,3886 9787,2191 9672,2540 9557,2767 9442,3511 9327,2619 9212,3828 9097,4608 8983,1832 8868,2063 8753,2254 8638,3659 8523,1511 8408,3597 8293,3512 8178,1964 8063,2601 7948,2760 7833,2300 7718,1597 7603,5150 7488,2647 7373,1720 7258,1751 7143,2020 7028,2285 6913,1667 6798,6274 6683,4934 6568,1608 6453,2089 6338,3719 6223,2370 6108,2013 5993,6134 5878,2843 5763,1246 5648,2434 5533,2871 5418,3792 5303,1806 5188,7434 5073,3734 4958,3345 4843,2279 4728,7402 4613,4605 4498,3213 4383,5510 4268,5447 4153,3957 4038,4960 3923,2426 3808,4648 3693,2440 3578,7434 3463,2076 3348,4726 3233,5043 3118,5302 3003,7409 2888,9391 2773,10180 2658,7680 2543,7620 2428,8330 2313,5846 2198,10011 2083,6069 1968,7868 1853,8858 1738,6606 1623,5994 1508,6966 1393,6236 1278,11336 Z"/>
 <path fill="rgb(114,159,207)" stroke="none" d="M 1278,11336 L 1393,5216 1508,3846 1623,2901 1738,4006 1853,4896 1968,3100 2083,5171 2198,7552 2313,1800 2428,5094 2543,5144 2658,2901 2773,7290 2888,9099 3003,5251 3118,2805 3233,2602 3348,1474 3463,1275 3578,2667 3693,1686 3808,3693 3923,1253 4038,1604 4153,2263 4268,2307 4383,3429 4498,2215 4613,3916 4728,1140 4843,1545 4958,2139 5073,2533 5188,2667 5303,1330 5418,3395 5533,1545 5648,1469 5763,1157 5878,1994 5993,3534 6108,1946 6223,2025 6338,2605 6453,1472 6568,1541 6683,3534 6798,4588 6913,1483 7028,1759 7143,1755 7258,1439 7373,1446 7488,1847 7603,3885 7718,1441 7833,2007 7948,2089 8063,1591 8178,1345 8293,2394 8408,2328 8523,1205 8638,3298 8753,1400 8868,1300 8983,1411 9097,2742 9212,3013 9327,1722 9442,3039 9557,1766 9672,1605 9787,1621 9902,2068 10017,2065 10132,1520 10247,4109 10362,1387 10477,1395 10592,1795 10707,1851 10822,1994 10937,1848 11052,3126 11167,1581 11282,1731 11397,1662 11512,1711 11627,1856 11742,1970 11857,3117 11972,3123 12087,1881 12202,1692 12317,1683 12432,2002 12547,964 12662,3294 12777,1543 12892,1869 13007,1885 13122,1795 13237,1803 13352,2692 13467,3072 13582,1939 13697,1913 13812,1893 13927,1892 14042,2361 14157,2722 14272,2915 14387,2113 14502,1960 14617,1904 14732,2016 14847,2070 14962,2660 15077,2927 15193,959 15193,2500 15077,3545 14962,3044 14847,2933 14732,3413 14617,2693 14502,2996 14387,3201 14272,3568 14157,3005 14042,3088 13927,2851 13812,2711 13697,2760 13582,2920 13467,3466 13352,3023 13237,2392 13122,2645 13007,2553 12892,2476 12777,1995 12662,3798 12547,1347 12432,2339 12317,2593 12202,2197 12087,2629 11972,3730 11857,3346 11742,2226 11627,2403 11512,2523 11397,2165 11282,2130 11167,2108 11052,3561 10937,2056 10822,2348 10707,2743 10592,2140 10477,2031 10362,2139 10247,4341 10132,1667 10017,2658 9902,2750 9787,1837 9672,2072 9557,2300 9442,3257 9327,1901 9212,3194 9097,3816 8983,1635 8868,1639 8753,1868 8638,3518 8523,1307 8408,2963 8293,3168 8178,1787 8063,2425 7948,2573 7833,2251 7718,1441 7603,4166 7488,2533 7373,1685 7258,1556 7143,1932 7028,2210 6913,1545 6798,5150 6683,4534 6568,1608 6453,1703 6338,3441 6223,2255 6108,1946 5993,3967 5878,2419 5763,1202 5648,2327 5533,2667 5418,3712 5303,1568 5188,5268 5073,2933 4958,2591 4843,2157 4728,1295 4613,4299 4498,2643 4383,4262 4268,3681 4153,3110 4038,3282 3923,1626 3808,4117 3693,1837 3578,2667 3463,1618 3348,2992 3233,3116 3118,4054 3003,6035 2888,9196 2773,7868 2658,6274 2543,7124 2428,6712 2313,5268 2198,9066 2083,6069 1968,6134 1853,8363 1738,5662 1623,5150 1508,4678 1393,6031 1278,11336 Z"/>
 <path fill="none" stroke="rgb(0,0,0)" stroke-width="50" stroke-linejoin="round" d="M 1278,11336 L 1393,5216 1508,3846 1623,2901 1738,4006 1853,4896 1968,3100 2083,5171 2198,7552 2313,1800 2428,5094 2543,5144 2658,2901 2773,7290 2888,9099 3003,5251 3118,2805 3233,2602 3348,1474 3463,1275 3578,2667 3693,1686 3808,3693 3923,1253 4038,1604 4153,2263 4268,2307 4383,3429 4498,2215 4613,3916 4728,1140 4843,1545 4958,2139 5073,2533 5188,2667 5303,1330 5418,3395 5533,1545 5648,1469 5763,1157 5878,1994 5993,3534 6108,1946 6223,2025 6338,2605 6453,1472 6568,1541 6683,3534 6798,4588 6913,1483 7028,1759 7143,1755 7258,1439 7373,1446 7488,1847 7603,3885 7718,1441 7833,2007 7948,2089 8063,1591 8178,1345 8293,2394 8408,2328 8523,1205 8638,3298 8753,1400 8868,1300 8983,1411 9097,2742 9212,3013 9327,1722 9442,3039 9557,1766 9672,1605 9787,1621 9902,2068 10017,2065 10132,1520 10247,4109 10362,1387 10477,1395 10592,1795 10707,1851 10822,1994 10937,1848 11052,3126 11167,1581 11282,1731 11397,1662 11512,1711 11627,1856 11742,1970 11857,3117 11972,3123 12087,1881 12202,1692 12317,1683 12432,2002 12547,964 12662,3294 12777,1543 12892,1869 13007,1885 13122,1795 13237,1803 13352,2692 13467,3072 13582,1939 13697,1913 13812,1893 13927,1892 14042,2361 14157,2722 14272,2915 14387,2113 14502,1960 14617,1904 14732,2016 14847,2070 14962,2660 15077,2927 15193,959 15193,2500 15077,3545 14962,3044 14847,2933 14732,3413 14617,2693 14502,2996 14387,3201 14272,3568 14157,3005 14042,3088 13927,2851 13812,2711 13697,2760 13582,2920 13467,3466 13352,3023 13237,2392 13122,2645 13007,2553 12892,2476 12777,1995 12662,3798 12547,1347 12432,2339 12317,2593 12202,2197 12087,2629 11972,3730 11857,3346 11742,2226 11627,2403 11512,2523 11397,2165 11282,2130 11167,2108 11052,3561 10937,2056 10822,2348 10707,2743 10592,2140 10477,2031 10362,2139 10247,4341 10132,1667 10017,2658 9902,2750 9787,1837 9672,2072 9557,2300 9442,3257 9327,1901 9212,3194 9097,3816 8983,1635 8868,1639 8753,1868 8638,3518 8523,1307 8408,2963 8293,3168 8178,1787 8063,2425 7948,2573 7833,2251 7718,1441 7603,4166 7488,2533 7373,1685 7258,1556 7143,1932 7028,2210 6913,1545 6798,5150 6683,4534 6568,1608 6453,1703 6338,3441 6223,2255 6108,1946 5993,3967 5878,2419 5763,1202 5648,2327 5533,2667 5418,3712 5303,1568 5188,5268 5073,2933 4958,2591 4843,2157 4728,1295 4613,4299 4498,2643 4383,4262 4268,3681 4153,3110 4038,3282 3923,1626 3808,4117 3693,1837 3578,2667 3463,1618 3348,2992 3233,3116 3118,4054 3003,6035 2888,9196 2773,7868 2658,6274 2543,7124 2428,6712 2313,5268 2198,9066 2083,6069 1968,6134 1853,8363 1738,5662 1623,5150 1508,4678 1393,6031 1278,11336 Z"/>
 <path fill="rgb(232,242,161)" stroke="none" d="M 1278,11336 L 1393,3380 1508,3846 1623,2901 1738,4006 1853,4896 1968,3100 2083,5171 2198,6417 2313,1800 2428,5094 2543,5144 2658,2901 2773,7290 2888,9099 3003,3681 3118,2805 3233,2602 3348,1474 3463,1275 3578,2667 3693,1686 3808,1994 3923,1253 4038,1604 4153,2263 4268,2307 4383,3429 4498,2215 4613,1468 4728,1140 4843,1545 4958,2139 5073,2533 5188,2667 5303,1330 5418,1488 5533,1545 5648,1469 5763,1157 5878,1994 5993,3534 6108,1946 6223,1277 6338,2605 6453,1472 6568,1541 6683,3534 6798,4588 6913,1483 7028,1233 7143,1755 7258,1439 7373,1446 7488,1847 7603,3885 7718,1441 7833,1201 7948,2089 8063,1591 8178,1345 8293,2394 8408,2328 8523,1205 8638,1253 8753,1400 8868,1300 8983,1411 9097,2742 9212,3013 9327,1722 9442,1423 9557,1766 9672,1605 9787,1621 9902,2068 10017,2065 10132,1520 10247,1450 10362,1387 10477,1395 10592,1795 10707,1851 10822,1994 10937,1848 11052,1432 11167,1581 11282,1731 11397,1662 11512,1711 11627,1856 11742,1970 11857,1330 11972,3123 12087,1881 12202,1692 12317,1683 12432,2002 12547,964 12662,1628 12777,1543 12892,1869 13007,1885 13122,1795 13237,1803 13352,2692 13467,1628 13582,1939 13697,1913 13812,1893 13927,1892 14042,2361 14157,2722 14272,1754 14387,2113 14502,1960 14617,1904 14732,2016 14847,2070 14962,2660 15077,1888 15193,959 15193,959 15077,2927 14962,2660 14847,2070 14732,2016 14617,1904 14502,1960 14387,2113 14272,2915 14157,2722 14042,2361 13927,1892 13812,1893 13697,1913 13582,1939 13467,3072 13352,2692 13237,1803 13122,1795 13007,1885 12892,1869 12777,1543 12662,3294 12547,964 12432,2002 12317,1683 12202,1692 12087,1881 11972,3123 11857,3117 11742,1970 11627,1856 11512,1711 11397,1662 11282,1731 11167,1581 11052,3126 10937,1848 10822,1994 10707,1851 10592,1795 10477,1395 10362,1387 10247,4109 10132,1520 10017,2065 9902,2068 9787,1621 9672,1605 9557,1766 9442,3039 9327,1722 9212,3013 9097,2742 8983,1411 8868,1300 8753,1400 8638,3298 8523,1205 8408,2328 8293,2394 8178,1345 8063,1591 7948,2089 7833,2007 7718,1441 7603,3885 7488,1847 7373,1446 7258,1439 7143,1755 7028,1759 6913,1483 6798,4588 6683,3534 6568,1541 6453,1472 6338,2605 6223,2025 6108,1946 5993,3534 5878,1994 5763,1157 5648,1469 5533,1545 5418,3395 5303,1330 5188,2667 5073,2533 4958,2139 4843,1545 4728,1140 4613,3916 4498,2215 4383,3429 4268,2307 4153,2263 4038,1604 3923,1253 3808,3693 3693,1686 3578,2667 3463,1275 3348,1474 3233,2602 3118,2805 3003,5251 2888,9099 2773,7290 2658,2901 2543,5144 2428,5094 2313,1800 2198,7552 2083,5171 1968,3100 1853,4896 1738,4006 1623,2901 1508,3846 1393,5216 1278,11336 Z"/>
 <path fill="none" stroke="rgb(0,0,0)" stroke-width="50" stroke-linejoin="round" d="M 1278,11336 L 1393,3380 1508,3846 1623,2901 1738,4006 1853,4896 1968,3100 2083,5171 2198,6417 2313,1800 2428,5094 2543,5144 2658,2901 2773,7290 2888,9099 3003,3681 3118,2805 3233,2602 3348,1474 3463,1275 3578,2667 3693,1686 3808,1994 3923,1253 4038,1604 4153,2263 4268,2307 4383,3429 4498,2215 4613,1468 4728,1140 4843,1545 4958,2139 5073,2533 5188,2667 5303,1330 5418,1488 5533,1545 5648,1469 5763,1157 5878,1994 5993,3534 6108,1946 6223,1277 6338,2605 6453,1472 6568,1541 6683,3534 6798,4588 6913,1483 7028,1233 7143,1755 7258,1439 7373,1446 7488,1847 7603,3885 7718,1441 7833,1201 7948,2089 8063,1591 8178,1345 8293,2394 8408,2328 8523,1205 8638,1253 8753,1400 8868,1300 8983,1411 9097,2742 9212,3013 9327,1722 9442,1423 9557,1766 9672,1605 9787,1621 9902,2068 10017,2065 10132,1520 10247,1450 10362,1387 10477,1395 10592,1795 10707,1851 10822,1994 10937,1848 11052,1432 11167,1581 11282,1731 11397,1662 11512,1711 11627,1856 11742,1970 11857,1330 11972,3123 12087,1881 12202,1692 12317,1683 12432,2002 12547,964 12662,1628 12777,1543 12892,1869 13007,1885 13122,1795 13237,1803 13352,2692 13467,1628 13582,1939 13697,1913 13812,1893 13927,1892 14042,2361 14157,2722 14272,1754 14387,2113 14502,1960 14617,1904 14732,2016 14847,2070 14962,2660 15077,1888 15193,959 15193,959 15077,2927 14962,2660 14847,2070 14732,2016 14617,1904 14502,1960 14387,2113 14272,2915 14157,2722 14042,2361 13927,1892 13812,1893 13697,1913 13582,1939 13467,3072 13352,2692 13237,1803 13122,1795 13007,1885 12892,1869 12777,1543 12662,3294 12547,964 12432,2002 12317,1683 12202,1692 12087,1881 11972,3123 11857,3117 11742,1970 11627,1856 11512,1711 11397,1662 11282,1731 11167,1581 11052,3126 10937,1848 10822,1994 10707,1851 10592,1795 10477,1395 10362,1387 10247,4109 10132,1520 10017,2065 9902,2068 9787,1621 9672,1605 9557,1766 9442,3039 9327,1722 9212,3013 9097,2742 8983,1411 8868,1300 8753,1400 8638,3298 8523,1205 8408,2328 8293,2394 8178,1345 8063,1591 7948,2089 7833,2007 7718,1441 7603,3885 7488,1847 7373,1446 7258,1439 7143,1755 7028,1759 6913,1483 6798,4588 6683,3534 6568,1541 6453,1472 6338,2605 6223,2025 6108,1946 5993,3534 5878,1994 5763,1157 5648,1469 5533,1545 5418,3395 5303,1330 5188,2667 5073,2533 4958,2139 4843,1545 4728,1140 4613,3916 4498,2215 4383,3429 4268,2307 4153,2263 4038,1604 3923,1253 3808,3693 3693,1686 3578,2667 3463,1275 3348,1474 3233,2602 3118,2805 3003,5251 2888,9099 2773,7290 2658,2901 2543,5144 2428,5094 2313,1800 2198,7552 2083,5171 1968,3100 1853,4896 1738,4006 1623,2901 1508,3846 1393,5216 1278,11336 Z"/>
 <path fill="rgb(174,207,0)" stroke="none" d="M 1278,11336 L 1393,933 1508,933 1738,933 1853,933 1968,933 2083,933 2198,933 2313,933 2428,933 2543,933 2658,933 2773,933 2888,933 3003,933 3118,933 3233,933 3348,933 3463,933 3578,933 3693,933 3808,933 3923,933 4038,933 4153,933 4268,933 4383,933 4498,933 4613,933 4728,933 4843,933 4958,933 5073,933 5188,933 5303,933 5533,933 5648,933 5763,933 5878,933 5993,933 6108,933 6223,933 6338,933 6530,933 6568,933 6683,933 6798,933 6913,933 7028,933 7143,933 7258,933 7373,933 7488,933 7603,933 7718,933 7833,933 7948,933 8063,933 8178,933 8293,933 8408,933 8523,933 8638,933 8753,933 8868,933 8983,933 9097,933 9212,933 9327,933 9442,933 9557,933 9672,933 9787,933 9902,933 10017,933 10132,933 10247,933 10362,933 10477,933 10592,933 10707,933 10822,933 10937,933 11052,933 11167,933 11282,933 11397,933 11512,933 11627,933 11742,933 11857,933 11972,933 12087,933 12202,933 12317,933 12432,933 12547,933 12662,933 12777,933 12892,933 13007,933 13122,933 13237,933 13352,933 13467,933 13582,933 13697,933 13812,933 13927,933 14042,933 14157,933 14272,933 14387,933 14502,933 14617,933 14732,933 14847,933 14962,933 15193,933 15193,959 15077,1888 14962,2660 14847,2070 14732,2016 14617,1904 14502,1960 14387,2113 14272,1754 14157,2722 14042,2361 13927,1892 13812,1893 13697,1913 13582,1939 13467,1628 13352,2692 13237,1803 13122,1795 13007,1885 12892,1869 12777,1543 12662,1628 12547,964 12432,2002 12317,1683 12202,1692 12087,1881 11972,3123 11857,1330 11742,1970 11627,1856 11512,1711 11397,1662 11282,1731 11167,1581 11052,1432 10937,1848 10822,1994 10707,1851 10592,1795 10477,1395 10362,1387 10247,1450 10132,1520 10017,2065 9902,2068 9787,1621 9672,1605 9557,1766 9442,1423 9327,1722 9212,3013 9097,2742 8983,1411 8868,1300 8753,1400 8638,1253 8523,1205 8408,2328 8293,2394 8178,1345 8063,1591 7948,2089 7833,1201 7718,1441 7603,3885 7488,1847 7373,1446 7258,1439 7143,1755 7028,1233 6913,1483 6798,4588 6683,3534 6568,1541 6453,1472 6338,2605 6223,1277 6108,1946 5993,3534 5878,1994 5763,1157 5648,1469 5533,1545 5418,1488 5303,1330 5188,2667 5073,2533 4958,2139 4843,1545 4728,1140 4613,1468 4498,2215 4383,3429 4268,2307 4153,2263 4038,1604 3923,1253 3808,1994 3693,1686 3578,2667 3463,1275 3348,1474 3233,2602 3118,2805 3003,3681 2888,9099 2773,7290 2658,2901 2543,5144 2428,5094 2313,1800 2198,6417 2083,5171 1968,3100 1853,4896 1738,4006 1623,2901 1508,3846 1393,3380 1278,11336 Z"/>
 <path fill="none" stroke="rgb(0,0,0)" stroke-width="50" stroke-linejoin="round" d="M 1278,11336 L 1393,933 1508,933 1738,933 1853,933 1968,933 2083,933 2198,933 2313,933 2428,933 2543,933 2658,933 2773,933 2888,933 3003,933 3118,933 3233,933 3348,933 3463,933 3578,933 3693,933 3808,933 3923,933 4038,933 4153,933 4268,933 4383,933 4498,933 4613,933 4728,933 4843,933 4958,933 5073,933 5188,933 5303,933 5533,933 5648,933 5763,933 5878,933 5993,933 6108,933 6223,933 6338,933 6530,933 6568,933 6683,933 6798,933 6913,933 7028,933 7143,933 7258,933 7373,933 7488,933 7603,933 7718,933 7833,933 7948,933 8063,933 8178,933 8293,933 8408,933 8523,933 8638,933 8753,933 8868,933 8983,933 9097,933 9212,933 9327,933 9442,933 9557,933 9672,933 9787,933 9902,933 10017,933 10132,933 10247,933 10362,933 10477,933 10592,933 10707,933 10822,933 10937,933 11052,933 11167,933 11282,933 11397,933 11512,933 11627,933 11742,933 11857,933 11972,933 12087,933 12202,933 12317,933 12432,933 12547,933 12662,933 12777,933 12892,933 13007,933 13122,933 13237,933 13352,933 13467,933 13582,933 13697,933 13812,933 13927,933 14042,933 14157,933 14272,933 14387,933 14502,933 14617,933 14732,933 14847,933 14962,933 15193,933 15193,959 15077,1888 14962,2660 14847,2070 14732,2016 14617,1904 14502,1960 14387,2113 14272,1754 14157,2722 14042,2361 13927,1892 13812,1893 13697,1913 13582,1939 13467,1628 13352,2692 13237,1803 13122,1795 13007,1885 12892,1869 12777,1543 12662,1628 12547,964 12432,2002 12317,1683 12202,1692 12087,1881 11972,3123 11857,1330 11742,1970 11627,1856 11512,1711 11397,1662 11282,1731 11167,1581 11052,1432 10937,1848 10822,1994 10707,1851 10592,1795 10477,1395 10362,1387 10247,1450 10132,1520 10017,2065 9902,2068 9787,1621 9672,1605 9557,1766 9442,1423 9327,1722 9212,3013 9097,2742 8983,1411 8868,1300 8753,1400 8638,1253 8523,1205 8408,2328 8293,2394 8178,1345 8063,1591 7948,2089 7833,1201 7718,1441 7603,3885 7488,1847 7373,1446 7258,1439 7143,1755 7028,1233 6913,1483 6798,4588 6683,3534 6568,1541 6453,1472 6338,2605 6223,1277 6108,1946 5993,3534 5878,1994 5763,1157 5648,1469 5533,1545 5418,1488 5303,1330 5188,2667 5073,2533 4958,2139 4843,1545 4728,1140 4613,1468 4498,2215 4383,3429 4268,2307 4153,2263 4038,1604 3923,1253 3808,1994 3693,1686 3578,2667 3463,1275 3348,1474 3233,2602 3118,2805 3003,3681 2888,9099 2773,7290 2658,2901 2543,5144 2428,5094 2313,1800 2198,6417 2083,5171 1968,3100 1853,4896 1738,4006 1623,2901 1508,3846 1393,3380 1278,11336 Z"/>
 <text class="TextShape"><tspan class="TextParagraph" font-family="Liberation Sans, sans-serif" font-size="353px" font-weight="400"><tspan class="TextPosition" x="854" y="11904"><tspan fill="rgb(0,0,0)" stroke="none">27/07</tspan></tspan></tspan></text>
 <text class="TextShape"><tspan class="TextParagraph" font-family="Liberation Sans, sans-serif" font-size="353px" font-weight="400"><tspan class="TextPosition" x="4419" y="11904"><tspan fill="rgb(0,0,0)" stroke="none">27/08</tspan></tspan></tspan></text>
 <text class="TextShape"><tspan class="TextParagraph" font-family="Liberation Sans, sans-serif" font-size="353px" font-weight="400"><tspan class="TextPosition" x="7984" y="11904"><tspan fill="rgb(0,0,0)" stroke="none">27/09</tspan></tspan></tspan></text>
 <text class="TextShape"><tspan class="TextParagraph" font-family="Liberation Sans, sans-serif" font-size="353px" font-weight="400"><tspan class="TextPosition" x="11434" y="11904"><tspan fill="rgb(0,0,0)" stroke="none">27/10</tspan></tspan></tspan></text>
 <text class="TextShape"><tspan class="TextParagraph" font-family="Liberation Sans, sans-serif" font-size="353px" font-weight="400"><tspan class="TextPosition" x="525" y="11457"><tspan fill="rgb(0,0,0)" stroke="none">0%</tspan></tspan></tspan></text>
 <text class="TextShape"><tspan class="TextParagraph" font-family="Liberation Sans, sans-serif" font-size="353px" font-weight="400"><tspan class="TextPosition" x="340" y="10416"><tspan fill="rgb(0,0,0)" stroke="none">10%</tspan></tspan></tspan></text>
 <text class="TextShape"><tspan class="TextParagraph" font-family="Liberation Sans, sans-serif" font-size="353px" font-weight="400"><tspan class="TextPosition" x="340" y="9376"><tspan fill="rgb(0,0,0)" stroke="none">20%</tspan></tspan></tspan></text>
 <text class="TextShape"><tspan class="TextParagraph" font-family="Liberation Sans, sans-serif" font-size="353px" font-weight="400"><tspan class="TextPosition" x="340" y="8335"><tspan fill="rgb(0,0,0)" stroke="none">30%</tspan></tspan></tspan></text>
 <text class="TextShape"><tspan class="TextParagraph" font-family="Liberation Sans, sans-serif" font-size="353px" font-weight="400"><tspan class="TextPosition" x="340" y="7295"><tspan fill="rgb(0,0,0)" stroke="none">40%</tspan></tspan></tspan></text>
 <text class="TextShape"><tspan class="TextParagraph" font-family="Liberation Sans, sans-serif" font-size="353px" font-weight="400"><tspan class="TextPosition" x="340" y="6255"><tspan fill="rgb(0,0,0)" stroke="none">50%</tspan></tspan></tspan></text>
 <text class="TextShape"><tspan class="TextParagraph" font-family="Liberation Sans, sans-serif" font-size="353px" font-weight="400"><tspan class="TextPosition" x="340" y="5214"><tspan fill="rgb(0,0,0)" stroke="none">60%</tspan></tspan></tspan></text>
 <text class="TextShape"><tspan class="TextParagraph" font-family="Liberation Sans, sans-serif" font-size="353px" font-weight="400"><tspan class="TextPosition" x="340" y="4174"><tspan fill="rgb(0,0,0)" stroke="none">70%</tspan></tspan></tspan></text>
 <text class="TextShape"><tspan class="TextParagraph" font-family="Liberation Sans, sans-serif" font-size="353px" font-weight="400"><tspan class="TextPosition" x="340" y="3133"><tspan fill="rgb(0,0,0)" stroke="none">80%</tspan></tspan></tspan></text>
 <text class="TextShape"><tspan class="TextParagraph" font-family="Liberation Sans, sans-serif" font-size="353px" font-weight="400"><tspan class="TextPosition" x="340" y="2093"><tspan fill="rgb(0,0,0)" stroke="none">90%</tspan></tspan></tspan></text>
 <text class="TextShape"><tspan class="TextParagraph" font-family="Liberation Sans, sans-serif" font-size="353px" font-weight="400"><tspan class="TextPosition" x="155" y="1053"><tspan fill="rgb(0,0,0)" stroke="none">100%</tspan></tspan></tspan></text>
 <text class="TextShape"><tspan class="TextParagraph" font-family="Liberation Sans, sans-serif" font-size="459px" font-weight="400"><tspan class="TextPosition" x="4599" y="724"><tspan fill="rgb(0,0,0)" stroke="none">Covid-19 (porcentaje de muertes diarias)</tspan></tspan></tspan></text>
 <text class="TextShape"><tspan class="TextParagraph" font-family="Arial, sans-serif" font-size="423px" font-weight="400"><tspan class="TextPosition" x="15374" y="8333"><tspan fill="rgb(0,0,0)" stroke="none">Italia</tspan></tspan></tspan></text>
 <text class="TextShape"><tspan class="TextParagraph" font-family="Arial, sans-serif" font-size="423px" font-weight="400"><tspan class="TextPosition" x="15398" y="10619"><tspan fill="rgb(0,0,0)" stroke="none">Francia</tspan></tspan></tspan></text>
 <text class="TextShape"><tspan class="TextParagraph" font-family="Arial, sans-serif" font-size="423px" font-weight="400"><tspan class="TextPosition" x="15407" y="3208"><tspan fill="rgb(0,0,0)" stroke="none">Bélgica</tspan></tspan></tspan></text>
 <text class="TextShape"><tspan class="TextParagraph" font-family="Arial, sans-serif" font-size="423px" font-weight="400"><tspan class="TextPosition" x="15420" y="6519"><tspan fill="rgb(0,0,0)" stroke="none">España</tspan></tspan></tspan></text>
 <text class="TextShape"><tspan class="TextParagraph" font-family="Arial, sans-serif" font-size="423px" font-weight="400"><tspan class="TextPosition" x="15423" y="2748"><tspan fill="rgb(0,0,0)" stroke="none">Alemania</tspan></tspan></tspan></text>
 <text class="TextShape"><tspan class="TextParagraph" font-family="Arial, sans-serif" font-size="423px" font-weight="400"><tspan class="TextPosition" x="15369" y="1503"><tspan fill="rgb(0,0,0)" stroke="none">Resto</tspan></tspan></tspan></text>
 <text class="TextShape"><tspan class="TextParagraph" font-family="Arial, sans-serif" font-size="423px" font-weight="400"><tspan class="TextPosition" x="15379" y="4629"><tspan fill="rgb(0,0,0)" stroke="none">Reino Unido</tspan></tspan></tspan></text>
 <text class="TextShape"><tspan class="TextParagraph" font-family="Arial, sans-serif" font-size="423px" font-weight="400"><tspan class="TextPosition" x="15402" y="2132"><tspan fill="rgb(0,0,0)" stroke="none">Holanda</tspan></tspan></tspan></text>
</svg>