<?xml version="1.0" encoding="UTF-8"?>
<!DOCTYPE svg PUBLIC "-//W3C//DTD SVG 1.1//EN" "http://www.w3.org/Graphics/SVG/1.1/DTD/svg11.dtd">
<svg width="150mm" height="120mm" viewBox="0 0 15000 12000" version="1.1" xmlns="http://www.w3.org/2000/svg" xmlns:xlink="http://www.w3.org/1999/xlink" stroke-width="28.222" stroke-linejoin="round" xml:space="preserve">
 <path fill="rgb(255,255,255)" stroke="none" d="M 7550,12000 L 127,12000 127,0 14973,0 14973,12000 7550,12000 Z"/>
 <path fill="none" stroke="rgb(0,0,0)" stroke-linejoin="round" d="M 7965,11009 L 1270,11009 1270,1027 14661,1027 14661,11009 7965,11009 Z"/>
 <path fill="none" stroke="rgb(221,221,221)" stroke-linejoin="round" d="M 1270,1026 L 1270,11008"/>
 <path fill="none" stroke="rgb(221,221,221)" stroke-linejoin="round" d="M 1479,1026 L 1479,11008"/>
 <path fill="none" stroke="rgb(221,221,221)" stroke-linejoin="round" d="M 1687,1026 L 1687,11008"/>
 <path fill="none" stroke="rgb(221,221,221)" stroke-linejoin="round" d="M 1897,1026 L 1897,11008"/>
 <path fill="none" stroke="rgb(221,221,221)" stroke-linejoin="round" d="M 2106,1026 L 2106,11008"/>
 <path fill="none" stroke="rgb(221,221,221)" stroke-linejoin="round" d="M 2316,1026 L 2316,11008"/>
 <path fill="none" stroke="rgb(221,221,221)" stroke-linejoin="round" d="M 2525,1026 L 2525,11008"/>
 <path fill="none" stroke="rgb(221,221,221)" stroke-linejoin="round" d="M 2733,1026 L 2733,11008"/>
 <path fill="none" stroke="rgb(221,221,221)" stroke-linejoin="round" d="M 2943,1026 L 2943,11008"/>
 <path fill="none" stroke="rgb(221,221,221)" stroke-linejoin="round" d="M 3152,1026 L 3152,11008"/>
 <path fill="none" stroke="rgb(221,221,221)" stroke-linejoin="round" d="M 3362,1026 L 3362,11008"/>
 <path fill="none" stroke="rgb(221,221,221)" stroke-linejoin="round" d="M 3571,1026 L 3571,11008"/>
 <path fill="none" stroke="rgb(221,221,221)" stroke-linejoin="round" d="M 3781,1026 L 3781,11008"/>
 <path fill="none" stroke="rgb(221,221,221)" stroke-linejoin="round" d="M 3989,1026 L 3989,11008"/>
 <path fill="none" stroke="rgb(221,221,221)" stroke-linejoin="round" d="M 4198,1026 L 4198,11008"/>
 <path fill="none" stroke="rgb(221,221,221)" stroke-linejoin="round" d="M 4408,1026 L 4408,11008"/>
 <path fill="none" stroke="rgb(221,221,221)" stroke-linejoin="round" d="M 4617,1026 L 4617,11008"/>
 <path fill="none" stroke="rgb(221,221,221)" stroke-linejoin="round" d="M 4827,1026 L 4827,11008"/>
 <path fill="none" stroke="rgb(221,221,221)" stroke-linejoin="round" d="M 5035,1026 L 5035,11008"/>
 <path fill="none" stroke="rgb(221,221,221)" stroke-linejoin="round" d="M 5245,1026 L 5245,11008"/>
 <path fill="none" stroke="rgb(221,221,221)" stroke-linejoin="round" d="M 5454,1026 L 5454,11008"/>
 <path fill="none" stroke="rgb(221,221,221)" stroke-linejoin="round" d="M 5663,1026 L 5663,11008"/>
 <path fill="none" stroke="rgb(221,221,221)" stroke-linejoin="round" d="M 5873,1026 L 5873,11008"/>
 <path fill="none" stroke="rgb(221,221,221)" stroke-linejoin="round" d="M 6082,1026 L 6082,11008"/>
 <path fill="none" stroke="rgb(221,221,221)" stroke-linejoin="round" d="M 6291,1026 L 6291,11008"/>
 <path fill="none" stroke="rgb(221,221,221)" stroke-linejoin="round" d="M 6500,1026 L 6500,11008"/>
 <path fill="none" stroke="rgb(221,221,221)" stroke-linejoin="round" d="M 6709,1026 L 6709,11008"/>
 <path fill="none" stroke="rgb(221,221,221)" stroke-linejoin="round" d="M 6919,1026 L 6919,11008"/>
 <path fill="none" stroke="rgb(221,221,221)" stroke-linejoin="round" d="M 7128,1026 L 7128,11008"/>
 <path fill="none" stroke="rgb(221,221,221)" stroke-linejoin="round" d="M 7337,1026 L 7337,11008"/>
 <path fill="none" stroke="rgb(221,221,221)" stroke-linejoin="round" d="M 7546,1026 L 7546,11008"/>
 <path fill="none" stroke="rgb(221,221,221)" stroke-linejoin="round" d="M 7756,1026 L 7756,11008"/>
 <path fill="none" stroke="rgb(221,221,221)" stroke-linejoin="round" d="M 7965,1026 L 7965,11008"/>
 <path fill="none" stroke="rgb(221,221,221)" stroke-linejoin="round" d="M 8174,1026 L 8174,11008"/>
 <path fill="none" stroke="rgb(221,221,221)" stroke-linejoin="round" d="M 8384,1026 L 8384,11008"/>
 <path fill="none" stroke="rgb(221,221,221)" stroke-linejoin="round" d="M 8592,1026 L 8592,11008"/>
 <path fill="none" stroke="rgb(221,221,221)" stroke-linejoin="round" d="M 8802,1026 L 8802,11008"/>
 <path fill="none" stroke="rgb(221,221,221)" stroke-linejoin="round" d="M 9011,1026 L 9011,11008"/>
 <path fill="none" stroke="rgb(221,221,221)" stroke-linejoin="round" d="M 9221,1026 L 9221,11008"/>
 <path fill="none" stroke="rgb(221,221,221)" stroke-linejoin="round" d="M 9430,1026 L 9430,11008"/>
 <path fill="none" stroke="rgb(221,221,221)" stroke-linejoin="round" d="M 9638,1026 L 9638,11008"/>
 <path fill="none" stroke="rgb(221,221,221)" stroke-linejoin="round" d="M 9848,1026 L 9848,11008"/>
 <path fill="none" stroke="rgb(221,221,221)" stroke-linejoin="round" d="M 10057,1026 L 10057,11008"/>
 <path fill="none" stroke="rgb(221,221,221)" stroke-linejoin="round" d="M 10267,1026 L 10267,11008"/>
 <path fill="none" stroke="rgb(221,221,221)" stroke-linejoin="round" d="M 10476,1026 L 10476,11008"/>
 <path fill="none" stroke="rgb(221,221,221)" stroke-linejoin="round" d="M 10685,1026 L 10685,11008"/>
 <path fill="none" stroke="rgb(221,221,221)" stroke-linejoin="round" d="M 10894,1026 L 10894,11008"/>
 <path fill="none" stroke="rgb(221,221,221)" stroke-linejoin="round" d="M 11103,1026 L 11103,11008"/>
 <path fill="none" stroke="rgb(221,221,221)" stroke-linejoin="round" d="M 11313,1026 L 11313,11008"/>
 <path fill="none" stroke="rgb(221,221,221)" stroke-linejoin="round" d="M 11522,1026 L 11522,11008"/>
 <path fill="none" stroke="rgb(221,221,221)" stroke-linejoin="round" d="M 11732,1026 L 11732,11008"/>
 <path fill="none" stroke="rgb(221,221,221)" stroke-linejoin="round" d="M 11940,1026 L 11940,11008"/>
 <path fill="none" stroke="rgb(221,221,221)" stroke-linejoin="round" d="M 12149,1026 L 12149,11008"/>
 <path fill="none" stroke="rgb(221,221,221)" stroke-linejoin="round" d="M 12359,1026 L 12359,11008"/>
 <path fill="none" stroke="rgb(221,221,221)" stroke-linejoin="round" d="M 12568,1026 L 12568,11008"/>
 <path fill="none" stroke="rgb(221,221,221)" stroke-linejoin="round" d="M 12778,1026 L 12778,11008"/>
 <path fill="none" stroke="rgb(221,221,221)" stroke-linejoin="round" d="M 12987,1026 L 12987,11008"/>
 <path fill="none" stroke="rgb(221,221,221)" stroke-linejoin="round" d="M 13196,1026 L 13196,11008"/>
 <path fill="none" stroke="rgb(221,221,221)" stroke-linejoin="round" d="M 13405,1026 L 13405,11008"/>
 <path fill="none" stroke="rgb(221,221,221)" stroke-linejoin="round" d="M 13614,1026 L 13614,11008"/>
 <path fill="none" stroke="rgb(221,221,221)" stroke-linejoin="round" d="M 13824,1026 L 13824,11008"/>
 <path fill="none" stroke="rgb(221,221,221)" stroke-linejoin="round" d="M 14033,1026 L 14033,11008"/>
 <path fill="none" stroke="rgb(221,221,221)" stroke-linejoin="round" d="M 14242,1026 L 14242,11008"/>
 <path fill="none" stroke="rgb(221,221,221)" stroke-linejoin="round" d="M 14451,1026 L 14451,11008"/>
 <path fill="none" stroke="rgb(221,221,221)" stroke-linejoin="round" d="M 14661,1026 L 14661,11008"/>
 <path fill="none" stroke="rgb(0,0,0)" stroke-linejoin="round" d="M 14661,11008 L 1270,11008"/>
 <path fill="none" stroke="rgb(0,0,0)" stroke-linejoin="round" d="M 14661,10009 L 1270,10009"/>
 <path fill="none" stroke="rgb(0,0,0)" stroke-linejoin="round" d="M 14661,9011 L 1270,9011"/>
 <path fill="none" stroke="rgb(0,0,0)" stroke-linejoin="round" d="M 14661,8013 L 1270,8013"/>
 <path fill="none" stroke="rgb(0,0,0)" stroke-linejoin="round" d="M 14661,7014 L 1270,7014"/>
 <path fill="none" stroke="rgb(0,0,0)" stroke-linejoin="round" d="M 14661,6016 L 1270,6016"/>
 <path fill="none" stroke="rgb(0,0,0)" stroke-linejoin="round" d="M 14661,5019 L 1270,5019"/>
 <path fill="none" stroke="rgb(0,0,0)" stroke-linejoin="round" d="M 14661,4020 L 1270,4020"/>
 <path fill="none" stroke="rgb(0,0,0)" stroke-linejoin="round" d="M 14661,3022 L 1270,3022"/>
 <path fill="none" stroke="rgb(0,0,0)" stroke-linejoin="round" d="M 14661,2024 L 1270,2024"/>
 <path fill="none" stroke="rgb(0,0,0)" stroke-linejoin="round" d="M 14661,1026 L 1270,1026"/>
 <path fill="none" stroke="rgb(0,0,0)" stroke-linejoin="round" d="M 1270,11158 L 1270,11008"/>
 <path fill="none" stroke="rgb(0,0,0)" stroke-linejoin="round" d="M 1270,11158 L 1270,11008"/>
 <path fill="none" stroke="rgb(0,0,0)" stroke-linejoin="round" d="M 2733,11158 L 2733,11008"/>
 <path fill="none" stroke="rgb(0,0,0)" stroke-linejoin="round" d="M 2733,11158 L 2733,11008"/>
 <path fill="none" stroke="rgb(0,0,0)" stroke-linejoin="round" d="M 4198,11158 L 4198,11008"/>
 <path fill="none" stroke="rgb(0,0,0)" stroke-linejoin="round" d="M 4198,11158 L 4198,11008"/>
 <path fill="none" stroke="rgb(0,0,0)" stroke-linejoin="round" d="M 5663,11158 L 5663,11008"/>
 <path fill="none" stroke="rgb(0,0,0)" stroke-linejoin="round" d="M 5663,11158 L 5663,11008"/>
 <path fill="none" stroke="rgb(0,0,0)" stroke-linejoin="round" d="M 7128,11158 L 7128,11008"/>
 <path fill="none" stroke="rgb(0,0,0)" stroke-linejoin="round" d="M 7128,11158 L 7128,11008"/>
 <path fill="none" stroke="rgb(0,0,0)" stroke-linejoin="round" d="M 8592,11158 L 8592,11008"/>
 <path fill="none" stroke="rgb(0,0,0)" stroke-linejoin="round" d="M 8592,11158 L 8592,11008"/>
 <path fill="none" stroke="rgb(0,0,0)" stroke-linejoin="round" d="M 10057,11158 L 10057,11008"/>
 <path fill="none" stroke="rgb(0,0,0)" stroke-linejoin="round" d="M 10057,11158 L 10057,11008"/>
 <path fill="none" stroke="rgb(0,0,0)" stroke-linejoin="round" d="M 11522,11158 L 11522,11008"/>
 <path fill="none" stroke="rgb(0,0,0)" stroke-linejoin="round" d="M 11522,11158 L 11522,11008"/>
 <path fill="none" stroke="rgb(0,0,0)" stroke-linejoin="round" d="M 12987,11158 L 12987,11008"/>
 <path fill="none" stroke="rgb(0,0,0)" stroke-linejoin="round" d="M 12987,11158 L 12987,11008"/>
 <path fill="none" stroke="rgb(0,0,0)" stroke-linejoin="round" d="M 14451,11158 L 14451,11008"/>
 <path fill="none" stroke="rgb(0,0,0)" stroke-linejoin="round" d="M 14451,11158 L 14451,11008"/>
 <path fill="none" stroke="rgb(0,0,0)" stroke-linejoin="round" d="M 1270,11008 L 14661,11008"/>
 <path fill="none" stroke="rgb(0,0,0)" stroke-linejoin="round" d="M 1121,11008 L 1270,11008"/>
 <path fill="none" stroke="rgb(0,0,0)" stroke-linejoin="round" d="M 1121,11008 L 1270,11008"/>
 <path fill="none" stroke="rgb(0,0,0)" stroke-linejoin="round" d="M 1121,10009 L 1270,10009"/>
 <path fill="none" stroke="rgb(0,0,0)" stroke-linejoin="round" d="M 1121,10009 L 1270,10009"/>
 <path fill="none" stroke="rgb(0,0,0)" stroke-linejoin="round" d="M 1121,9011 L 1270,9011"/>
 <path fill="none" stroke="rgb(0,0,0)" stroke-linejoin="round" d="M 1121,9011 L 1270,9011"/>
 <path fill="none" stroke="rgb(0,0,0)" stroke-linejoin="round" d="M 1121,8013 L 1270,8013"/>
 <path fill="none" stroke="rgb(0,0,0)" stroke-linejoin="round" d="M 1121,8013 L 1270,8013"/>
 <path fill="none" stroke="rgb(0,0,0)" stroke-linejoin="round" d="M 1121,7014 L 1270,7014"/>
 <path fill="none" stroke="rgb(0,0,0)" stroke-linejoin="round" d="M 1121,7014 L 1270,7014"/>
 <path fill="none" stroke="rgb(0,0,0)" stroke-linejoin="round" d="M 1121,6016 L 1270,6016"/>
 <path fill="none" stroke="rgb(0,0,0)" stroke-linejoin="round" d="M 1121,6016 L 1270,6016"/>
 <path fill="none" stroke="rgb(0,0,0)" stroke-linejoin="round" d="M 1121,5019 L 1270,5019"/>
 <path fill="none" stroke="rgb(0,0,0)" stroke-linejoin="round" d="M 1121,5019 L 1270,5019"/>
 <path fill="none" stroke="rgb(0,0,0)" stroke-linejoin="round" d="M 1121,4020 L 1270,4020"/>
 <path fill="none" stroke="rgb(0,0,0)" stroke-linejoin="round" d="M 1121,4020 L 1270,4020"/>
 <path fill="none" stroke="rgb(0,0,0)" stroke-linejoin="round" d="M 1121,3022 L 1270,3022"/>
 <path fill="none" stroke="rgb(0,0,0)" stroke-linejoin="round" d="M 1121,3022 L 1270,3022"/>
 <path fill="none" stroke="rgb(0,0,0)" stroke-linejoin="round" d="M 1121,2024 L 1270,2024"/>
 <path fill="none" stroke="rgb(0,0,0)" stroke-linejoin="round" d="M 1121,2024 L 1270,2024"/>
 <path fill="none" stroke="rgb(0,0,0)" stroke-linejoin="round" d="M 1121,1026 L 1270,1026"/>
 <path fill="none" stroke="rgb(0,0,0)" stroke-linejoin="round" d="M 1121,1026 L 1270,1026"/>
 <path fill="none" stroke="rgb(0,0,0)" stroke-linejoin="round" d="M 1270,11008 L 1270,1026"/>
 <path fill="none" stroke="rgb(255,0,0)" stroke-width="49" stroke-linejoin="round" d="M 1374,11006 L 1583,11008 1792,11008 2001,11008 2211,11008 2420,11007 2630,11001 2838,11002 3048,10992 3257,10981 3466,10983 3676,10978 3884,10972 4094,10960 4303,10969 4513,10880 4722,10943 4931,10764 5140,10683 5349,10386 5559,10502 5768,10187 5977,9751 6186,9466 6395,9011 6605,9572 6814,9024 7024,8474 7233,7582 7441,8179 7651,6070 7860,7368 8070,6498 8279,4436 8488,3085 8697,2445 8906,3151 9116,2833 9325,4471 9535,4621 9743,1802 9953,3303 10162,2920 10371,3549 10581,3994 10789,4996 10999,6742 11208,5540 11417,4839 11627,5262 11836,6439 12045,6186 12254,6848 12464,7536 12673,7968 12882,5925 13091,5834 13300,5765 13510,7356 13719,4276 13929,7966 14137,6929 14346,6910 14556,6187"/>
 <path fill="rgb(255,0,0)" stroke="none" d="M 1275,11006 L 1374,11106 1473,11006 1374,10906 1275,11006 Z"/>
 <path fill="none" stroke="rgb(255,0,0)" stroke-linejoin="round" d="M 1275,11006 L 1374,11106 1473,11006 1374,10906 1275,11006 Z"/>
 <path fill="rgb(255,0,0)" stroke="none" d="M 1485,11008 L 1583,11108 1682,11008 1583,10908 1485,11008 Z"/>
 <path fill="none" stroke="rgb(255,0,0)" stroke-linejoin="round" d="M 1485,11008 L 1583,11108 1682,11008 1583,10908 1485,11008 Z"/>
 <path fill="rgb(255,0,0)" stroke="none" d="M 1693,11008 L 1792,11108 1891,11008 1792,10908 1693,11008 Z"/>
 <path fill="none" stroke="rgb(255,0,0)" stroke-linejoin="round" d="M 1693,11008 L 1792,11108 1891,11008 1792,10908 1693,11008 Z"/>
 <path fill="rgb(255,0,0)" stroke="none" d="M 1902,11008 L 2001,11108 2100,11008 2001,10908 1902,11008 Z"/>
 <path fill="none" stroke="rgb(255,0,0)" stroke-linejoin="round" d="M 1902,11008 L 2001,11108 2100,11008 2001,10908 1902,11008 Z"/>
 <path fill="rgb(255,0,0)" stroke="none" d="M 2112,11008 L 2211,11108 2310,11008 2211,10908 2112,11008 Z"/>
 <path fill="none" stroke="rgb(255,0,0)" stroke-linejoin="round" d="M 2112,11008 L 2211,11108 2310,11008 2211,10908 2112,11008 Z"/>
 <path fill="rgb(255,0,0)" stroke="none" d="M 2321,11007 L 2420,11107 2519,11007 2420,10907 2321,11007 Z"/>
 <path fill="none" stroke="rgb(255,0,0)" stroke-linejoin="round" d="M 2321,11007 L 2420,11107 2519,11007 2420,10907 2321,11007 Z"/>
 <path fill="rgb(255,0,0)" stroke="none" d="M 2531,11001 L 2630,11101 2729,11001 2630,10901 2531,11001 Z"/>
 <path fill="none" stroke="rgb(255,0,0)" stroke-linejoin="round" d="M 2531,11001 L 2630,11101 2729,11001 2630,10901 2531,11001 Z"/>
 <path fill="rgb(255,0,0)" stroke="none" d="M 2739,11002 L 2838,11102 2937,11002 2838,10902 2739,11002 Z"/>
 <path fill="none" stroke="rgb(255,0,0)" stroke-linejoin="round" d="M 2739,11002 L 2838,11102 2937,11002 2838,10902 2739,11002 Z"/>
 <path fill="rgb(255,0,0)" stroke="none" d="M 2949,10992 L 3048,11092 3147,10992 3048,10892 2949,10992 Z"/>
 <path fill="none" stroke="rgb(255,0,0)" stroke-linejoin="round" d="M 2949,10992 L 3048,11092 3147,10992 3048,10892 2949,10992 Z"/>
 <path fill="rgb(255,0,0)" stroke="none" d="M 3158,10981 L 3257,11081 3356,10981 3257,10881 3158,10981 Z"/>
 <path fill="none" stroke="rgb(255,0,0)" stroke-linejoin="round" d="M 3158,10981 L 3257,11081 3356,10981 3257,10881 3158,10981 Z"/>
 <path fill="rgb(255,0,0)" stroke="none" d="M 3367,10983 L 3466,11083 3565,10983 3466,10883 3367,10983 Z"/>
 <path fill="none" stroke="rgb(255,0,0)" stroke-linejoin="round" d="M 3367,10983 L 3466,11083 3565,10983 3466,10883 3367,10983 Z"/>
 <path fill="rgb(255,0,0)" stroke="none" d="M 3577,10978 L 3676,11078 3775,10978 3676,10878 3577,10978 Z"/>
 <path fill="none" stroke="rgb(255,0,0)" stroke-linejoin="round" d="M 3577,10978 L 3676,11078 3775,10978 3676,10878 3577,10978 Z"/>
 <path fill="rgb(255,0,0)" stroke="none" d="M 3786,10972 L 3884,11072 3983,10972 3884,10872 3786,10972 Z"/>
 <path fill="none" stroke="rgb(255,0,0)" stroke-linejoin="round" d="M 3786,10972 L 3884,11072 3983,10972 3884,10872 3786,10972 Z"/>
 <path fill="rgb(255,0,0)" stroke="none" d="M 3995,10960 L 4094,11060 4193,10960 4094,10860 3995,10960 Z"/>
 <path fill="none" stroke="rgb(255,0,0)" stroke-linejoin="round" d="M 3995,10960 L 4094,11060 4193,10960 4094,10860 3995,10960 Z"/>
 <path fill="rgb(255,0,0)" stroke="none" d="M 4204,10969 L 4303,11069 4402,10969 4303,10869 4204,10969 Z"/>
 <path fill="none" stroke="rgb(255,0,0)" stroke-linejoin="round" d="M 4204,10969 L 4303,11069 4402,10969 4303,10869 4204,10969 Z"/>
 <path fill="rgb(255,0,0)" stroke="none" d="M 4414,10880 L 4513,10980 4612,10880 4513,10780 4414,10880 Z"/>
 <path fill="none" stroke="rgb(255,0,0)" stroke-linejoin="round" d="M 4414,10880 L 4513,10980 4612,10880 4513,10780 4414,10880 Z"/>
 <path fill="rgb(255,0,0)" stroke="none" d="M 4623,10943 L 4722,11043 4821,10943 4722,10843 4623,10943 Z"/>
 <path fill="none" stroke="rgb(255,0,0)" stroke-linejoin="round" d="M 4623,10943 L 4722,11043 4821,10943 4722,10843 4623,10943 Z"/>
 <path fill="rgb(255,0,0)" stroke="none" d="M 4832,10764 L 4931,10864 5030,10764 4931,10664 4832,10764 Z"/>
 <path fill="none" stroke="rgb(255,0,0)" stroke-linejoin="round" d="M 4832,10764 L 4931,10864 5030,10764 4931,10664 4832,10764 Z"/>
 <path fill="rgb(255,0,0)" stroke="none" d="M 5041,10683 L 5140,10783 5239,10683 5140,10583 5041,10683 Z"/>
 <path fill="none" stroke="rgb(255,0,0)" stroke-linejoin="round" d="M 5041,10683 L 5140,10783 5239,10683 5140,10583 5041,10683 Z"/>
 <path fill="rgb(255,0,0)" stroke="none" d="M 5250,10386 L 5349,10486 5448,10386 5349,10286 5250,10386 Z"/>
 <path fill="none" stroke="rgb(255,0,0)" stroke-linejoin="round" d="M 5250,10386 L 5349,10486 5448,10386 5349,10286 5250,10386 Z"/>
 <path fill="rgb(255,0,0)" stroke="none" d="M 5460,10502 L 5559,10602 5658,10502 5559,10402 5460,10502 Z"/>
 <path fill="none" stroke="rgb(255,0,0)" stroke-linejoin="round" d="M 5460,10502 L 5559,10602 5658,10502 5559,10402 5460,10502 Z"/>
 <path fill="rgb(255,0,0)" stroke="none" d="M 5669,10187 L 5768,10287 5867,10187 5768,10087 5669,10187 Z"/>
 <path fill="none" stroke="rgb(255,0,0)" stroke-linejoin="round" d="M 5669,10187 L 5768,10287 5867,10187 5768,10087 5669,10187 Z"/>
 <path fill="rgb(255,0,0)" stroke="none" d="M 5878,9751 L 5977,9851 6076,9751 5977,9651 5878,9751 Z"/>
 <path fill="none" stroke="rgb(255,0,0)" stroke-linejoin="round" d="M 5878,9751 L 5977,9851 6076,9751 5977,9651 5878,9751 Z"/>
 <path fill="rgb(255,0,0)" stroke="none" d="M 6087,9466 L 6186,9566 6285,9466 6186,9366 6087,9466 Z"/>
 <path fill="none" stroke="rgb(255,0,0)" stroke-linejoin="round" d="M 6087,9466 L 6186,9566 6285,9466 6186,9366 6087,9466 Z"/>
 <path fill="rgb(255,0,0)" stroke="none" d="M 6296,9011 L 6395,9111 6494,9011 6395,8911 6296,9011 Z"/>
 <path fill="none" stroke="rgb(255,0,0)" stroke-linejoin="round" d="M 6296,9011 L 6395,9111 6494,9011 6395,8911 6296,9011 Z"/>
 <path fill="rgb(255,0,0)" stroke="none" d="M 6506,9572 L 6605,9672 6704,9572 6605,9472 6506,9572 Z"/>
 <path fill="none" stroke="rgb(255,0,0)" stroke-linejoin="round" d="M 6506,9572 L 6605,9672 6704,9572 6605,9472 6506,9572 Z"/>
 <path fill="rgb(255,0,0)" stroke="none" d="M 6715,9024 L 6814,9124 6913,9024 6814,8924 6715,9024 Z"/>
 <path fill="none" stroke="rgb(255,0,0)" stroke-linejoin="round" d="M 6715,9024 L 6814,9124 6913,9024 6814,8924 6715,9024 Z"/>
 <path fill="rgb(255,0,0)" stroke="none" d="M 6925,8474 L 7024,8574 7123,8474 7024,8374 6925,8474 Z"/>
 <path fill="none" stroke="rgb(255,0,0)" stroke-linejoin="round" d="M 6925,8474 L 7024,8574 7123,8474 7024,8374 6925,8474 Z"/>
 <path fill="rgb(255,0,0)" stroke="none" d="M 7134,7582 L 7233,7682 7332,7582 7233,7482 7134,7582 Z"/>
 <path fill="none" stroke="rgb(255,0,0)" stroke-linejoin="round" d="M 7134,7582 L 7233,7682 7332,7582 7233,7482 7134,7582 Z"/>
 <path fill="rgb(255,0,0)" stroke="none" d="M 7342,8179 L 7441,8279 7540,8179 7441,8079 7342,8179 Z"/>
 <path fill="none" stroke="rgb(255,0,0)" stroke-linejoin="round" d="M 7342,8179 L 7441,8279 7540,8179 7441,8079 7342,8179 Z"/>
 <path fill="rgb(255,0,0)" stroke="none" d="M 7552,6070 L 7651,6170 7750,6070 7651,5971 7552,6070 Z"/>
 <path fill="none" stroke="rgb(255,0,0)" stroke-linejoin="round" d="M 7552,6070 L 7651,6170 7750,6070 7651,5971 7552,6070 Z"/>
 <path fill="rgb(255,0,0)" stroke="none" d="M 7761,7368 L 7860,7468 7959,7368 7860,7268 7761,7368 Z"/>
 <path fill="none" stroke="rgb(255,0,0)" stroke-linejoin="round" d="M 7761,7368 L 7860,7468 7959,7368 7860,7268 7761,7368 Z"/>
 <path fill="rgb(255,0,0)" stroke="none" d="M 7971,6498 L 8070,6598 8169,6498 8070,6398 7971,6498 Z"/>
 <path fill="none" stroke="rgb(255,0,0)" stroke-linejoin="round" d="M 7971,6498 L 8070,6598 8169,6498 8070,6398 7971,6498 Z"/>
 <path fill="rgb(255,0,0)" stroke="none" d="M 8180,4436 L 8279,4536 8378,4436 8279,4336 8180,4436 Z"/>
 <path fill="none" stroke="rgb(255,0,0)" stroke-linejoin="round" d="M 8180,4436 L 8279,4536 8378,4436 8279,4336 8180,4436 Z"/>
 <path fill="rgb(255,0,0)" stroke="none" d="M 8389,3085 L 8488,3185 8587,3085 8488,2985 8389,3085 Z"/>
 <path fill="none" stroke="rgb(255,0,0)" stroke-linejoin="round" d="M 8389,3085 L 8488,3185 8587,3085 8488,2985 8389,3085 Z"/>
 <path fill="rgb(255,0,0)" stroke="none" d="M 8598,2445 L 8697,2545 8796,2445 8697,2345 8598,2445 Z"/>
 <path fill="none" stroke="rgb(255,0,0)" stroke-linejoin="round" d="M 8598,2445 L 8697,2545 8796,2445 8697,2345 8598,2445 Z"/>
 <path fill="rgb(255,0,0)" stroke="none" d="M 8807,3151 L 8906,3251 9005,3151 8906,3051 8807,3151 Z"/>
 <path fill="none" stroke="rgb(255,0,0)" stroke-linejoin="round" d="M 8807,3151 L 8906,3251 9005,3151 8906,3051 8807,3151 Z"/>
 <path fill="rgb(255,0,0)" stroke="none" d="M 9017,2833 L 9116,2933 9215,2833 9116,2733 9017,2833 Z"/>
 <path fill="none" stroke="rgb(255,0,0)" stroke-linejoin="round" d="M 9017,2833 L 9116,2933 9215,2833 9116,2733 9017,2833 Z"/>
 <path fill="rgb(255,0,0)" stroke="none" d="M 9226,4471 L 9325,4571 9424,4471 9325,4371 9226,4471 Z"/>
 <path fill="none" stroke="rgb(255,0,0)" stroke-linejoin="round" d="M 9226,4471 L 9325,4571 9424,4471 9325,4371 9226,4471 Z"/>
 <path fill="rgb(255,0,0)" stroke="none" d="M 9436,4621 L 9535,4721 9633,4621 9535,4521 9436,4621 Z"/>
 <path fill="none" stroke="rgb(255,0,0)" stroke-linejoin="round" d="M 9436,4621 L 9535,4721 9633,4621 9535,4521 9436,4621 Z"/>
 <path fill="rgb(255,0,0)" stroke="none" d="M 9644,1802 L 9743,1902 9842,1802 9743,1702 9644,1802 Z"/>
 <path fill="none" stroke="rgb(255,0,0)" stroke-linejoin="round" d="M 9644,1802 L 9743,1902 9842,1802 9743,1702 9644,1802 Z"/>
 <path fill="rgb(255,0,0)" stroke="none" d="M 9854,3303 L 9953,3403 10052,3303 9953,3203 9854,3303 Z"/>
 <path fill="none" stroke="rgb(255,0,0)" stroke-linejoin="round" d="M 9854,3303 L 9953,3403 10052,3303 9953,3203 9854,3303 Z"/>
 <path fill="rgb(255,0,0)" stroke="none" d="M 10063,2920 L 10162,3020 10261,2920 10162,2820 10063,2920 Z"/>
 <path fill="none" stroke="rgb(255,0,0)" stroke-linejoin="round" d="M 10063,2920 L 10162,3020 10261,2920 10162,2820 10063,2920 Z"/>
 <path fill="rgb(255,0,0)" stroke="none" d="M 10272,3549 L 10371,3649 10470,3549 10371,3449 10272,3549 Z"/>
 <path fill="none" stroke="rgb(255,0,0)" stroke-linejoin="round" d="M 10272,3549 L 10371,3649 10470,3549 10371,3449 10272,3549 Z"/>
 <path fill="rgb(255,0,0)" stroke="none" d="M 10482,3994 L 10581,4094 10680,3994 10581,3894 10482,3994 Z"/>
 <path fill="none" stroke="rgb(255,0,0)" stroke-linejoin="round" d="M 10482,3994 L 10581,4094 10680,3994 10581,3894 10482,3994 Z"/>
 <path fill="rgb(255,0,0)" stroke="none" d="M 10690,4996 L 10789,5096 10888,4996 10789,4896 10690,4996 Z"/>
 <path fill="none" stroke="rgb(255,0,0)" stroke-linejoin="round" d="M 10690,4996 L 10789,5096 10888,4996 10789,4896 10690,4996 Z"/>
 <path fill="rgb(255,0,0)" stroke="none" d="M 10900,6742 L 10999,6842 11098,6742 10999,6642 10900,6742 Z"/>
 <path fill="none" stroke="rgb(255,0,0)" stroke-linejoin="round" d="M 10900,6742 L 10999,6842 11098,6742 10999,6642 10900,6742 Z"/>
 <path fill="rgb(255,0,0)" stroke="none" d="M 11109,5540 L 11208,5640 11307,5540 11208,5440 11109,5540 Z"/>
 <path fill="none" stroke="rgb(255,0,0)" stroke-linejoin="round" d="M 11109,5540 L 11208,5640 11307,5540 11208,5440 11109,5540 Z"/>
 <path fill="rgb(255,0,0)" stroke="none" d="M 11318,4839 L 11417,4939 11516,4839 11417,4739 11318,4839 Z"/>
 <path fill="none" stroke="rgb(255,0,0)" stroke-linejoin="round" d="M 11318,4839 L 11417,4939 11516,4839 11417,4739 11318,4839 Z"/>
 <path fill="rgb(255,0,0)" stroke="none" d="M 11528,5262 L 11627,5362 11726,5262 11627,5162 11528,5262 Z"/>
 <path fill="none" stroke="rgb(255,0,0)" stroke-linejoin="round" d="M 11528,5262 L 11627,5362 11726,5262 11627,5162 11528,5262 Z"/>
 <path fill="rgb(255,0,0)" stroke="none" d="M 11737,6439 L 11836,6539 11934,6439 11836,6339 11737,6439 Z"/>
 <path fill="none" stroke="rgb(255,0,0)" stroke-linejoin="round" d="M 11737,6439 L 11836,6539 11934,6439 11836,6339 11737,6439 Z"/>
 <path fill="rgb(255,0,0)" stroke="none" d="M 11946,6186 L 12045,6286 12144,6186 12045,6086 11946,6186 Z"/>
 <path fill="none" stroke="rgb(255,0,0)" stroke-linejoin="round" d="M 11946,6186 L 12045,6286 12144,6186 12045,6086 11946,6186 Z"/>
 <path fill="rgb(255,0,0)" stroke="none" d="M 12155,6848 L 12254,6948 12353,6848 12254,6748 12155,6848 Z"/>
 <path fill="none" stroke="rgb(255,0,0)" stroke-linejoin="round" d="M 12155,6848 L 12254,6948 12353,6848 12254,6748 12155,6848 Z"/>
 <path fill="rgb(255,0,0)" stroke="none" d="M 12365,7536 L 12464,7636 12563,7536 12464,7436 12365,7536 Z"/>
 <path fill="none" stroke="rgb(255,0,0)" stroke-linejoin="round" d="M 12365,7536 L 12464,7636 12563,7536 12464,7436 12365,7536 Z"/>
 <path fill="rgb(255,0,0)" stroke="none" d="M 12574,7968 L 12673,8068 12772,7968 12673,7868 12574,7968 Z"/>
 <path fill="none" stroke="rgb(255,0,0)" stroke-linejoin="round" d="M 12574,7968 L 12673,8068 12772,7968 12673,7868 12574,7968 Z"/>
 <path fill="rgb(255,0,0)" stroke="none" d="M 12783,5925 L 12882,6024 12981,5925 12882,5825 12783,5925 Z"/>
 <path fill="none" stroke="rgb(255,0,0)" stroke-linejoin="round" d="M 12783,5925 L 12882,6024 12981,5925 12882,5825 12783,5925 Z"/>
 <path fill="rgb(255,0,0)" stroke="none" d="M 12992,5834 L 13091,5934 13190,5834 13091,5734 12992,5834 Z"/>
 <path fill="none" stroke="rgb(255,0,0)" stroke-linejoin="round" d="M 12992,5834 L 13091,5934 13190,5834 13091,5734 12992,5834 Z"/>
 <path fill="rgb(255,0,0)" stroke="none" d="M 13201,5765 L 13300,5865 13399,5765 13300,5665 13201,5765 Z"/>
 <path fill="none" stroke="rgb(255,0,0)" stroke-linejoin="round" d="M 13201,5765 L 13300,5865 13399,5765 13300,5665 13201,5765 Z"/>
 <path fill="rgb(255,0,0)" stroke="none" d="M 13411,7356 L 13510,7456 13609,7356 13510,7256 13411,7356 Z"/>
 <path fill="none" stroke="rgb(255,0,0)" stroke-linejoin="round" d="M 13411,7356 L 13510,7456 13609,7356 13510,7256 13411,7356 Z"/>
 <path fill="rgb(255,0,0)" stroke="none" d="M 13620,4276 L 13719,4376 13818,4276 13719,4176 13620,4276 Z"/>
 <path fill="none" stroke="rgb(255,0,0)" stroke-linejoin="round" d="M 13620,4276 L 13719,4376 13818,4276 13719,4176 13620,4276 Z"/>
 <path fill="rgb(255,0,0)" stroke="none" d="M 13830,7966 L 13929,8066 14028,7966 13929,7866 13830,7966 Z"/>
 <path fill="none" stroke="rgb(255,0,0)" stroke-linejoin="round" d="M 13830,7966 L 13929,8066 14028,7966 13929,7866 13830,7966 Z"/>
 <path fill="rgb(255,0,0)" stroke="none" d="M 14039,6929 L 14137,7029 14236,6929 14137,6829 14039,6929 Z"/>
 <path fill="none" stroke="rgb(255,0,0)" stroke-linejoin="round" d="M 14039,6929 L 14137,7029 14236,6929 14137,6829 14039,6929 Z"/>
 <path fill="rgb(255,0,0)" stroke="none" d="M 14247,6910 L 14346,7010 14445,6910 14346,6810 14247,6910 Z"/>
 <path fill="none" stroke="rgb(255,0,0)" stroke-linejoin="round" d="M 14247,6910 L 14346,7010 14445,6910 14346,6810 14247,6910 Z"/>
 <path fill="rgb(255,0,0)" stroke="none" d="M 14457,6187 L 14556,6287 14655,6187 14556,6087 14457,6187 Z"/>
 <path fill="none" stroke="rgb(255,0,0)" stroke-linejoin="round" d="M 14457,6187 L 14556,6287 14655,6187 14556,6087 14457,6187 Z"/>
 <text class="TextShape"><tspan class="TextParagraph" font-family="Liberation Sans, sans-serif" font-size="353px" font-weight="400"><tspan class="TextPosition" x="955" y="11576"><tspan fill="rgb(0,0,0)" stroke="none">20/02</tspan></tspan></tspan></text>
 <text class="TextShape"><tspan class="TextParagraph" font-family="Liberation Sans, sans-serif" font-size="353px" font-weight="400"><tspan class="TextPosition" x="2419" y="11576"><tspan fill="rgb(0,0,0)" stroke="none">27/02</tspan></tspan></tspan></text>
 <text class="TextShape"><tspan class="TextParagraph" font-family="Liberation Sans, sans-serif" font-size="353px" font-weight="400"><tspan class="TextPosition" x="3884" y="11576"><tspan fill="rgb(0,0,0)" stroke="none">05/03</tspan></tspan></tspan></text>
 <text class="TextShape"><tspan class="TextParagraph" font-family="Liberation Sans, sans-serif" font-size="353px" font-weight="400"><tspan class="TextPosition" x="5349" y="11576"><tspan fill="rgb(0,0,0)" stroke="none">12/03</tspan></tspan></tspan></text>
 <text class="TextShape"><tspan class="TextParagraph" font-family="Liberation Sans, sans-serif" font-size="353px" font-weight="400"><tspan class="TextPosition" x="6813" y="11576"><tspan fill="rgb(0,0,0)" stroke="none">19/03</tspan></tspan></tspan></text>
 <text class="TextShape"><tspan class="TextParagraph" font-family="Liberation Sans, sans-serif" font-size="353px" font-weight="400"><tspan class="TextPosition" x="8278" y="11576"><tspan fill="rgb(0,0,0)" stroke="none">26/03</tspan></tspan></tspan></text>
 <text class="TextShape"><tspan class="TextParagraph" font-family="Liberation Sans, sans-serif" font-size="353px" font-weight="400"><tspan class="TextPosition" x="9743" y="11576"><tspan fill="rgb(0,0,0)" stroke="none">02/04</tspan></tspan></tspan></text>
 <text class="TextShape"><tspan class="TextParagraph" font-family="Liberation Sans, sans-serif" font-size="353px" font-weight="400"><tspan class="TextPosition" x="11208" y="11576"><tspan fill="rgb(0,0,0)" stroke="none">09/04</tspan></tspan></tspan></text>
 <text class="TextShape"><tspan class="TextParagraph" font-family="Liberation Sans, sans-serif" font-size="353px" font-weight="400"><tspan class="TextPosition" x="12672" y="11576"><tspan fill="rgb(0,0,0)" stroke="none">16/04</tspan></tspan></tspan></text>
 <text class="TextShape"><tspan class="TextParagraph" font-family="Liberation Sans, sans-serif" font-size="353px" font-weight="400"><tspan class="TextPosition" x="14137" y="11576"><tspan fill="rgb(0,0,0)" stroke="none">23/04</tspan></tspan></tspan></text>
 <text class="TextShape"><tspan class="TextParagraph" font-family="Liberation Sans, sans-serif" font-size="353px" font-weight="400"><tspan class="TextPosition" x="839" y="11129"><tspan fill="rgb(0,0,0)" stroke="none">0</tspan></tspan></tspan></text>
 <text class="TextShape"><tspan class="TextParagraph" font-family="Liberation Sans, sans-serif" font-size="353px" font-weight="400"><tspan class="TextPosition" x="184" y="10130"><tspan fill="rgb(0,0,0)" stroke="none">1.000</tspan></tspan></tspan></text>
 <text class="TextShape"><tspan class="TextParagraph" font-family="Liberation Sans, sans-serif" font-size="353px" font-weight="400"><tspan class="TextPosition" x="184" y="9132"><tspan fill="rgb(0,0,0)" stroke="none">2.000</tspan></tspan></tspan></text>
 <text class="TextShape"><tspan class="TextParagraph" font-family="Liberation Sans, sans-serif" font-size="353px" font-weight="400"><tspan class="TextPosition" x="184" y="8134"><tspan fill="rgb(0,0,0)" stroke="none">3.000</tspan></tspan></tspan></text>
 <text class="TextShape"><tspan class="TextParagraph" font-family="Liberation Sans, sans-serif" font-size="353px" font-weight="400"><tspan class="TextPosition" x="184" y="7135"><tspan fill="rgb(0,0,0)" stroke="none">4.000</tspan></tspan></tspan></text>
 <text class="TextShape"><tspan class="TextParagraph" font-family="Liberation Sans, sans-serif" font-size="353px" font-weight="400"><tspan class="TextPosition" x="184" y="6137"><tspan fill="rgb(0,0,0)" stroke="none">5.000</tspan></tspan></tspan></text>
 <text class="TextShape"><tspan class="TextParagraph" font-family="Liberation Sans, sans-serif" font-size="353px" font-weight="400"><tspan class="TextPosition" x="184" y="5139"><tspan fill="rgb(0,0,0)" stroke="none">6.000</tspan></tspan></tspan></text>
 <text class="TextShape"><tspan class="TextParagraph" font-family="Liberation Sans, sans-serif" font-size="353px" font-weight="400"><tspan class="TextPosition" x="184" y="4140"><tspan fill="rgb(0,0,0)" stroke="none">7.000</tspan></tspan></tspan></text>
 <text class="TextShape"><tspan class="TextParagraph" font-family="Liberation Sans, sans-serif" font-size="353px" font-weight="400"><tspan class="TextPosition" x="184" y="3142"><tspan fill="rgb(0,0,0)" stroke="none">8.000</tspan></tspan></tspan></text>
 <text class="TextShape"><tspan class="TextParagraph" font-family="Liberation Sans, sans-serif" font-size="353px" font-weight="400"><tspan class="TextPosition" x="184" y="2144"><tspan fill="rgb(0,0,0)" stroke="none">9.000</tspan></tspan></tspan></text>
 <text class="TextShape"><tspan class="TextParagraph" font-family="Liberation Sans, sans-serif" font-size="353px" font-weight="400"><tspan class="TextPosition" x="1" y="1146"><tspan fill="rgb(0,0,0)" stroke="none">10.000</tspan></tspan></tspan></text>
 <text class="TextShape"><tspan class="TextParagraph" font-family="Liberation Sans, sans-serif" font-size="459px" font-weight="400"><tspan class="TextPosition" x="3063" y="724"><tspan fill="rgb(0,0,0)" stroke="none">Covid-19. Nuevos infectados diarios en España</tspan></tspan></tspan></text>
</svg>