<?xml version="1.0" encoding="UTF-8"?>
<!DOCTYPE svg PUBLIC "-//W3C//DTD SVG 1.1//EN" "http://www.w3.org/Graphics/SVG/1.1/DTD/svg11.dtd">
<svg width="150mm" height="120mm" viewBox="0 0 15000 12000" version="1.1" xmlns="http://www.w3.org/2000/svg" xmlns:xlink="http://www.w3.org/1999/xlink" stroke-width="28.222" stroke-linejoin="round" xml:space="preserve">
 <path fill="rgb(255,255,255)" stroke="none" d="M 7548,12000 L 96,12000 96,0 15000,0 15000,12000 7548,12000 Z"/>
 <path fill="none" stroke="rgb(0,0,0)" stroke-linejoin="round" d="M 7892,11128 L 1091,11128 1091,1246 14694,1246 14694,11128 7892,11128 Z"/>
 <path fill="none" stroke="rgb(0,0,0)" stroke-linejoin="round" d="M 14694,11127 L 1091,11127"/>
 <path fill="none" stroke="rgb(0,0,0)" stroke-linejoin="round" d="M 14694,10228 L 1091,10228"/>
 <path fill="none" stroke="rgb(0,0,0)" stroke-linejoin="round" d="M 14694,9330 L 1091,9330"/>
 <path fill="none" stroke="rgb(0,0,0)" stroke-linejoin="round" d="M 14694,8431 L 1091,8431"/>
 <path fill="none" stroke="rgb(0,0,0)" stroke-linejoin="round" d="M 14694,7533 L 1091,7533"/>
 <path fill="none" stroke="rgb(0,0,0)" stroke-linejoin="round" d="M 14694,6634 L 1091,6634"/>
 <path fill="none" stroke="rgb(0,0,0)" stroke-linejoin="round" d="M 14694,5737 L 1091,5737"/>
 <path fill="none" stroke="rgb(0,0,0)" stroke-linejoin="round" d="M 14694,4838 L 1091,4838"/>
 <path fill="none" stroke="rgb(0,0,0)" stroke-linejoin="round" d="M 14694,3940 L 1091,3940"/>
 <path fill="none" stroke="rgb(0,0,0)" stroke-linejoin="round" d="M 14694,3041 L 1091,3041"/>
 <path fill="none" stroke="rgb(0,0,0)" stroke-linejoin="round" d="M 14694,2143 L 1091,2143"/>
 <path fill="none" stroke="rgb(0,0,0)" stroke-linejoin="round" d="M 14694,1245 L 1091,1245"/>
 <path fill="none" stroke="rgb(0,0,0)" stroke-linejoin="round" d="M 1091,11277 L 1091,11127"/>
 <path fill="none" stroke="rgb(0,0,0)" stroke-linejoin="round" d="M 1091,11277 L 1091,11127"/>
 <path fill="none" stroke="rgb(0,0,0)" stroke-linejoin="round" d="M 4146,11277 L 4146,11127"/>
 <path fill="none" stroke="rgb(0,0,0)" stroke-linejoin="round" d="M 4146,11277 L 4146,11127"/>
 <path fill="none" stroke="rgb(0,0,0)" stroke-linejoin="round" d="M 7202,11277 L 7202,11127"/>
 <path fill="none" stroke="rgb(0,0,0)" stroke-linejoin="round" d="M 7202,11277 L 7202,11127"/>
 <path fill="none" stroke="rgb(0,0,0)" stroke-linejoin="round" d="M 10160,11277 L 10160,11127"/>
 <path fill="none" stroke="rgb(0,0,0)" stroke-linejoin="round" d="M 10160,11277 L 10160,11127"/>
 <path fill="none" stroke="rgb(0,0,0)" stroke-linejoin="round" d="M 13215,11277 L 13215,11127"/>
 <path fill="none" stroke="rgb(0,0,0)" stroke-linejoin="round" d="M 13215,11277 L 13215,11127"/>
 <path fill="none" stroke="rgb(0,0,0)" stroke-linejoin="round" d="M 1091,11127 L 14694,11127"/>
 <path fill="none" stroke="rgb(0,0,0)" stroke-linejoin="round" d="M 942,11127 L 1091,11127"/>
 <path fill="none" stroke="rgb(0,0,0)" stroke-linejoin="round" d="M 942,11127 L 1091,11127"/>
 <path fill="none" stroke="rgb(0,0,0)" stroke-linejoin="round" d="M 942,10228 L 1091,10228"/>
 <path fill="none" stroke="rgb(0,0,0)" stroke-linejoin="round" d="M 942,10228 L 1091,10228"/>
 <path fill="none" stroke="rgb(0,0,0)" stroke-linejoin="round" d="M 942,9330 L 1091,9330"/>
 <path fill="none" stroke="rgb(0,0,0)" stroke-linejoin="round" d="M 942,9330 L 1091,9330"/>
 <path fill="none" stroke="rgb(0,0,0)" stroke-linejoin="round" d="M 942,8431 L 1091,8431"/>
 <path fill="none" stroke="rgb(0,0,0)" stroke-linejoin="round" d="M 942,8431 L 1091,8431"/>
 <path fill="none" stroke="rgb(0,0,0)" stroke-linejoin="round" d="M 942,7533 L 1091,7533"/>
 <path fill="none" stroke="rgb(0,0,0)" stroke-linejoin="round" d="M 942,7533 L 1091,7533"/>
 <path fill="none" stroke="rgb(0,0,0)" stroke-linejoin="round" d="M 942,6634 L 1091,6634"/>
 <path fill="none" stroke="rgb(0,0,0)" stroke-linejoin="round" d="M 942,6634 L 1091,6634"/>
 <path fill="none" stroke="rgb(0,0,0)" stroke-linejoin="round" d="M 942,5737 L 1091,5737"/>
 <path fill="none" stroke="rgb(0,0,0)" stroke-linejoin="round" d="M 942,5737 L 1091,5737"/>
 <path fill="none" stroke="rgb(0,0,0)" stroke-linejoin="round" d="M 942,4838 L 1091,4838"/>
 <path fill="none" stroke="rgb(0,0,0)" stroke-linejoin="round" d="M 942,4838 L 1091,4838"/>
 <path fill="none" stroke="rgb(0,0,0)" stroke-linejoin="round" d="M 942,3940 L 1091,3940"/>
 <path fill="none" stroke="rgb(0,0,0)" stroke-linejoin="round" d="M 942,3940 L 1091,3940"/>
 <path fill="none" stroke="rgb(0,0,0)" stroke-linejoin="round" d="M 942,3041 L 1091,3041"/>
 <path fill="none" stroke="rgb(0,0,0)" stroke-linejoin="round" d="M 942,3041 L 1091,3041"/>
 <path fill="none" stroke="rgb(0,0,0)" stroke-linejoin="round" d="M 942,2143 L 1091,2143"/>
 <path fill="none" stroke="rgb(0,0,0)" stroke-linejoin="round" d="M 942,2143 L 1091,2143"/>
 <path fill="none" stroke="rgb(0,0,0)" stroke-linejoin="round" d="M 942,1245 L 1091,1245"/>
 <path fill="none" stroke="rgb(0,0,0)" stroke-linejoin="round" d="M 942,1245 L 1091,1245"/>
 <path fill="none" stroke="rgb(0,0,0)" stroke-linejoin="round" d="M 1091,11127 L 1091,1245"/>
 <path fill="none" stroke="rgb(0,69,134)" stroke-width="99" stroke-linejoin="round" d="M 1091,11125 L 1189,11121 1288,11119 1386,11118 1484,11115 1584,11114 1682,11111 1780,11107 1879,11105 1977,11102 2076,11100 2175,11099 2273,11095 2372,11094 2471,11093 2569,11091 2668,11087 2766,11085 2864,11084 2964,11032 3062,11030 3160,11029 3259,11027 3358,11025 3456,11024 3555,11020 3653,11019 3751,11017 3851,11015 3949,11014 4048,11010 4146,11008 4244,11005 4344,11005 4442,11003 4540,11001 4639,10999 4738,10997 4836,10993 4935,10990 5033,10984 5131,10982 5231,10978 5329,10975 5428,10970 5526,10967 5625,10963 5724,10961 5822,10959 5920,10954 6019,10951 6118,10947 6216,10943 6315,10940 6413,10932 6511,10927 6611,10921 6709,10917 6808,10910 6906,10902 7005,10896 7104,10890 7202,10884 7300,10879 7399,10871 7498,10865 7596,10857 7695,10849 7793,10840 7892,10834 7991,10829 8089,10819 8188,10809 8286,10802 8385,10792 8484,10783 8582,10774 8680,10761 8779,10748 8878,10733 8976,10706 9075,10687 9173,10672 9272,10649 9371,10624 9469,10595 9567,10553 9666,10507 9765,10477 9864,10427 9962,10384 10060,10337 10160,10264 10258,10196 10356,10123 10455,10057 10553,9958 10652,9889 10751,9812 10849,9694 10947,9577 11046,9435 11145,9286 11244,9145 11342,9035 11440,8916 11540,8723 11638,8516 11736,8304 11835,8121 11933,7940 12032,7759 12131,7591 12229,7348 12327,7097 12427,6880 12525,6647 12624,6417 12722,6230 12820,6020 12920,5738 13018,5497 13116,5224 13215,4949 13313,4720 13412,4540 13511,4317 13609,4056 13707,3828 13807,3498 13905,3227 14004,3007 14102,2819 14200,2643 14300,2432 14398,2266 14496,1971 14595,1718 14694,1502"/>
 <path fill="none" stroke="rgb(255,66,14)" stroke-width="99" stroke-linejoin="round" d="M 1091,11121 L 1189,11116 1288,11111 1386,11106 1484,11102 1584,11102 1682,11102 1780,11092 1879,11092 1977,11088 2076,11086 2175,11082 2273,11082 2372,11082 2471,11077 2569,11072 2668,11066 2766,11061 2864,11054 2964,11054 3062,11054 3160,11047 3259,11039 3358,11034 3456,11030 3555,11022 3653,11019 3751,11018 3851,11013 3949,11008 4048,11008 4146,10997 4244,10991 4344,10989 4442,10987 4540,10977 4639,10969 4738,10960 4836,10954 4935,10960 5033,10956 5131,10955 5231,10947 5329,10934 5428,10926 5526,10918 5625,10891 5724,10885 5822,10883 5920,10871 6019,10855 6118,10840 6216,10823 6315,10771 6413,10762 6511,10759 6611,10741 6709,10715 6808,10700 6906,10683 7005,10632 7104,10619 7202,10610 7300,10583 7399,10554 7498,10533 7596,10512 7695,10466 7793,10452 7892,10441 7991,10418 8089,10395 8188,10368 8286,10343 8385,10306 8484,10288 8582,10273 8680,10241 8779,10204 8878,10169 8976,10140 9075,10080 9173,10050 9272,10021 9371,9972 9469,9884 9567,9829 9666,9775 9765,9674 9864,9628 9962,9589 10060,9503 10160,9327 10258,9245 10356,9166 10455,8982 10553,8907 10652,8829 10751,8690 10849,8402 10947,8273 11046,8151 11145,7872 11244,7770 11342,7679 11440,7494 11540,7084 11638,6974 11736,6831 11835,6517 11933,6398 12032,6296 12131,6126 12229,5717 12327,5574 12427,5430 12525,5047 12624,4962 12722,4890 12820,4721 12920,4383 13018,4255 13116,4141 13215,3819 13313,3747 13412,3681 13511,3544 13609,3283 13707,3179 13807,3070 13905,2859 14004,2808 14102,2728 14200,2605 14300,2326 14398,2226 14496,2128 14595,1917 14694,1852"/>
 <path fill="none" stroke="rgb(255,211,32)" stroke-width="99" stroke-linejoin="round" d="M 2773,11127 L 2864,11117 2964,11115 3062,11113 3160,11112 3259,11107 3358,11101 3456,11099 3555,11098 3653,11092 3751,11089 3851,11088 3949,11082 4048,11076 4146,11071 4244,11068 4344,11063 4442,11063 4540,11062 4639,11061 4738,11057 4836,11052 4935,11048 5033,11044 5131,11043 5231,11042 5329,11030 5428,11027 5526,11021 5625,11019 5724,11016 5822,11014 5920,11010 6019,11000 6118,10993 6216,10985 6315,10974 6413,10964 6511,10957 6611,10953 6709,10939 6808,10925 6906,10910 7005,10897 7104,10884 7202,10877 7300,10872 7399,10845 7498,10818 7596,10796 7695,10771 7793,10752 7892,10740 7991,10733 8089,10704 8188,10677 8286,10648 8385,10615 8484,10584 8582,10560 8680,10541 8779,10487 8878,10435 8976,10382 9075,10331 9173,10274 9272,10248 9371,10218 9469,10127 9567,10054 9666,9982 9765,9897 9864,9831 9962,9774 10060,9735 10160,9596 10258,9479 10356,9372 10455,9268 10553,9145 10652,9083 10751,9032 10849,8881 10947,8695 11046,8551 11145,8416 11244,8260 11342,8201 11440,8193 11540,7925 11638,7700 11736,7486 11835,7343 11933,7168 12032,7104 12131,7024 12229,6797 12327,6596 12427,6406 12525,6212 12624,6083 12722,5933 12820,5855 12920,5624 13018,5361 13116,5172 13215,4975 13313,4793 13412,4711 13511,4634 13609,4406 13707,4160 13807,4003 13905,3812 14004,3661 14102,3573 14200,3502 14300,3275 14398,3072 14496,2877 14595,2716 14694,2519"/>
 <path fill="none" stroke="rgb(87,157,28)" stroke-width="99" stroke-linejoin="round" d="M 1091,11122 L 1189,11116 1288,11109 1386,11105 1484,11088 1584,11084 1682,11082 1780,11082 1879,11079 1977,11077 2076,11071 2175,11064 2273,11056 2372,11043 2471,11037 2569,11032 2668,11026 2766,11013 2864,11009 2964,11002 3062,10996 3160,10994 3259,10983 3358,10979 3456,10974 3555,10966 3653,10962 3751,10957 3851,10947 3949,10938 4048,10934 4146,10930 4244,10917 4344,10910 4442,10908 4540,10902 4639,10897 4738,10891 4836,10887 4935,10878 5033,10867 5131,10863 5231,10857 5329,10850 5428,10844 5526,10837 5625,10831 5724,10820 5822,10805 5920,10797 6019,10788 6118,10782 6216,10760 6315,10748 6413,10737 6511,10709 6611,10692 6709,10681 6808,10675 6906,10668 7005,10658 7104,10640 7202,10621 7300,10613 7399,10600 7498,10583 7596,10570 7695,10557 7793,10531 7892,10510 7991,10482 8089,10452 8188,10435 8286,10413 8385,10388 8484,10377 8582,10349 8680,10319 8779,10285 8878,10270 8976,10246 9075,10202 9173,10174 9272,10133 9371,10097 9469,10064 9567,10030 9666,9996 9765,9930 9864,9885 9962,9844 10060,9786 10160,9726 10258,9675 10356,9604 10455,9518 10553,9435 10652,9356 10751,9257 10849,9161 10947,9035 11046,8936 11145,8825 11244,8705 11342,8602 11440,8467 11540,8334 11638,8159 11736,7992 11835,7844 11933,7726 12032,7564 12131,7369 12229,7195 12327,7026 12427,6878 12525,6748 12624,6615 12722,6459 12820,6300 12920,6118 13018,5967 13116,5792 13215,5648 13313,5462 13412,5325 13511,5158 13609,5004 13707,4858 13807,4689 13905,4520 14004,4363 14102,4177 14200,4010 14300,3837 14398,3687 14496,3503 14595,3299 14694,3111"/>
 <path fill="none" stroke="rgb(126,0,33)" stroke-width="79" stroke-linejoin="round" d="M 1091,11127 L 1189,11114 1288,11114 1386,11114 1484,11114 1584,11114 1682,11114 1780,11114 1879,11106 1977,11106 2076,11106 2175,11106 2273,11106 2372,11106 2471,11106 2569,11095 2668,11095 2766,11095 2864,11095 2964,11095 3062,11095 3160,11095 3259,11073 3358,11073 3456,11073 3555,11073 3653,11073 3751,11073 3851,11073 3949,11029 4048,11029 4146,11029 4244,11029 4344,11029 4442,11029 4540,11029 4639,10996 4738,10996 4836,10996 4935,10996 5033,10996 5131,10996 5231,10996 5329,10978 5428,10978 5526,10978 5625,10978 5724,10978 5822,10978 5920,10978 6019,10959 6118,10959 6216,10959 6315,10959 6413,10959 6511,10959 6611,10959 6709,10914 6808,10914 6906,10914 7005,10914 7104,10914 7202,10914 7300,10914 7399,10774 7498,10774 7596,10774 7695,10774 7793,10774 7892,10774 7991,10774 8089,10652 8188,10652 8286,10652 8385,10652 8484,10652 8582,10652 8680,10652 8779,10448 8878,10448 8976,10448 9075,10448 9173,10448 9272,10448 9371,10448 9469,10197 9567,10197 9666,10197 9765,10197 9864,10197 9962,10197 10060,10197 10160,9747 10258,9747 10356,9747 10455,9747 10553,9747 10652,9747 10751,9747 10849,9152 10947,9152 11046,9152 11145,9152 11244,9152 11342,9152 11440,9152 11540,8377 11638,8377 11736,8377 11835,8377 11933,8377 12032,8377 12131,8377 12229,7726 12327,7726 12427,7726 12525,7726 12624,7726 12722,7726 12820,7726 12920,7151 13018,7151 13116,7151 13215,7151 13313,7151 13412,7151 13511,7151 13609,6598 13707,6598 13807,6598 13905,6598 14004,6598 14102,6598 14200,6598 14300,6136 14398,6136 14496,6136 14595,6136 14694,6136"/>
 <text class="TextShape"><tspan class="TextParagraph" font-family="Liberation Sans, sans-serif" font-size="353px" font-weight="400"><tspan class="TextPosition" x="670" y="11695"><tspan fill="rgb(0,0,0)" stroke="none">27/07</tspan></tspan></tspan></text>
 <text class="TextShape"><tspan class="TextParagraph" font-family="Liberation Sans, sans-serif" font-size="353px" font-weight="400"><tspan class="TextPosition" x="3725" y="11695"><tspan fill="rgb(0,0,0)" stroke="none">27/08</tspan></tspan></tspan></text>
 <text class="TextShape"><tspan class="TextParagraph" font-family="Liberation Sans, sans-serif" font-size="353px" font-weight="400"><tspan class="TextPosition" x="6781" y="11695"><tspan fill="rgb(0,0,0)" stroke="none">27/09</tspan></tspan></tspan></text>
 <text class="TextShape"><tspan class="TextParagraph" font-family="Liberation Sans, sans-serif" font-size="353px" font-weight="400"><tspan class="TextPosition" x="9739" y="11695"><tspan fill="rgb(0,0,0)" stroke="none">27/10</tspan></tspan></tspan></text>
 <text class="TextShape"><tspan class="TextParagraph" font-family="Liberation Sans, sans-serif" font-size="353px" font-weight="400"><tspan class="TextPosition" x="12794" y="11695"><tspan fill="rgb(0,0,0)" stroke="none">27/11</tspan></tspan></tspan></text>
 <text class="TextShape"><tspan class="TextParagraph" font-family="Liberation Sans, sans-serif" font-size="353px" font-weight="400"><tspan class="TextPosition" x="290" y="10349"><tspan fill="rgb(0,0,0)" stroke="none">200</tspan></tspan></tspan></text>
 <text class="TextShape"><tspan class="TextParagraph" font-family="Liberation Sans, sans-serif" font-size="353px" font-weight="400"><tspan class="TextPosition" x="290" y="9451"><tspan fill="rgb(0,0,0)" stroke="none">400</tspan></tspan></tspan></text>
 <text class="TextShape"><tspan class="TextParagraph" font-family="Liberation Sans, sans-serif" font-size="353px" font-weight="400"><tspan class="TextPosition" x="290" y="8552"><tspan fill="rgb(0,0,0)" stroke="none">600</tspan></tspan></tspan></text>
 <text class="TextShape"><tspan class="TextParagraph" font-family="Liberation Sans, sans-serif" font-size="353px" font-weight="400"><tspan class="TextPosition" x="290" y="7654"><tspan fill="rgb(0,0,0)" stroke="none">800</tspan></tspan></tspan></text>
 <text class="TextShape"><tspan class="TextParagraph" font-family="Liberation Sans, sans-serif" font-size="353px" font-weight="400"><tspan class="TextPosition" x="1" y="6755"><tspan fill="rgb(0,0,0)" stroke="none">1.000</tspan></tspan></tspan></text>
 <text class="TextShape"><tspan class="TextParagraph" font-family="Liberation Sans, sans-serif" font-size="353px" font-weight="400"><tspan class="TextPosition" x="1" y="5857"><tspan fill="rgb(0,0,0)" stroke="none">1.200</tspan></tspan></tspan></text>
 <text class="TextShape"><tspan class="TextParagraph" font-family="Liberation Sans, sans-serif" font-size="353px" font-weight="400"><tspan class="TextPosition" x="1" y="4958"><tspan fill="rgb(0,0,0)" stroke="none">1.400</tspan></tspan></tspan></text>
 <text class="TextShape"><tspan class="TextParagraph" font-family="Liberation Sans, sans-serif" font-size="353px" font-weight="400"><tspan class="TextPosition" x="1" y="4060"><tspan fill="rgb(0,0,0)" stroke="none">1.600</tspan></tspan></tspan></text>
 <text class="TextShape"><tspan class="TextParagraph" font-family="Liberation Sans, sans-serif" font-size="353px" font-weight="400"><tspan class="TextPosition" x="1" y="3161"><tspan fill="rgb(0,0,0)" stroke="none">1.800</tspan></tspan></tspan></text>
 <text class="TextShape"><tspan class="TextParagraph" font-family="Liberation Sans, sans-serif" font-size="353px" font-weight="400"><tspan class="TextPosition" x="1" y="2263"><tspan fill="rgb(0,0,0)" stroke="none">2.000</tspan></tspan></tspan></text>
 <text class="TextShape"><tspan class="TextParagraph" font-family="Liberation Sans, sans-serif" font-size="353px" font-weight="400"><tspan class="TextPosition" x="1" y="1365"><tspan fill="rgb(0,0,0)" stroke="none">2.200</tspan></tspan></tspan></text>
 <text class="TextShape"><tspan class="TextParagraph" font-family="Liberation Sans, sans-serif" font-size="423px" font-weight="400"><tspan class="TextPosition" x="3180" y="497"><tspan fill="rgb(0,0,0)" stroke="none">Muertes acumuladas por millón de mayores de 65 años</tspan></tspan></tspan><tspan class="TextParagraph" font-family="Liberation Sans, sans-serif" font-size="423px" font-weight="400"><tspan class="TextPosition" x="6006" y="947"><tspan fill="rgb(0,0,0)" stroke="none">en Europa Occidental (2)</tspan></tspan></tspan></text>
 <path fill="none" stroke="rgb(0,69,134)" stroke-width="99" stroke-linejoin="round" d="M 2127,1639 L 2922,1639"/>
 <path fill="none" stroke="rgb(255,66,14)" stroke-width="99" stroke-linejoin="round" d="M 2127,2578 L 2922,2578"/>
 <path fill="none" stroke="rgb(255,211,32)" stroke-width="99" stroke-linejoin="round" d="M 2127,3517 L 2922,3517"/>
 <path fill="none" stroke="rgb(87,157,28)" stroke-width="99" stroke-linejoin="round" d="M 2127,4456 L 2922,4456"/>
 <path fill="none" stroke="rgb(126,0,33)" stroke-width="79" stroke-linejoin="round" d="M 2127,5395 L 2922,5395"/>
 <text class="TextShape"><tspan class="TextParagraph" font-family="Liberation Sans, sans-serif" font-size="353px" font-weight="400"><tspan class="TextPosition" x="3021" y="1759"><tspan fill="rgb(0,0,0)" stroke="none">Italia</tspan></tspan></tspan></text>
 <text class="TextShape"><tspan class="TextParagraph" font-family="Liberation Sans, sans-serif" font-size="353px" font-weight="400"><tspan class="TextPosition" x="3021" y="2698"><tspan fill="rgb(0,0,0)" stroke="none">Francia</tspan></tspan></tspan></text>
 <text class="TextShape"><tspan class="TextParagraph" font-family="Liberation Sans, sans-serif" font-size="353px" font-weight="400"><tspan class="TextPosition" x="3021" y="3637"><tspan fill="rgb(0,0,0)" stroke="none">Reino Unido</tspan></tspan></tspan></text>
 <text class="TextShape"><tspan class="TextParagraph" font-family="Liberation Sans, sans-serif" font-size="353px" font-weight="400"><tspan class="TextPosition" x="3021" y="4576"><tspan fill="rgb(0,0,0)" stroke="none">Portugal</tspan></tspan></tspan></text>
 <text class="TextShape"><tspan class="TextParagraph" font-family="Liberation Sans, sans-serif" font-size="353px" font-weight="400"><tspan class="TextPosition" x="3021" y="5515"><tspan fill="rgb(0,0,0)" stroke="none">Holanda</tspan></tspan></tspan></text>
</svg>