<?xml version="1.0" encoding="UTF-8"?>
<!DOCTYPE svg PUBLIC "-//W3C//DTD SVG 1.1//EN" "http://www.w3.org/Graphics/SVG/1.1/DTD/svg11.dtd">
<svg width="150mm" height="120mm" viewBox="0 0 15000 12000" version="1.1" xmlns="http://www.w3.org/2000/svg" xmlns:xlink="http://www.w3.org/1999/xlink" stroke-width="28.222" stroke-linejoin="round" xml:space="preserve">
 <path fill="rgb(255,255,255)" stroke="none" d="M 7500,12000 L 0,12000 0,0 15000,0 15000,12000 7500,12000 Z"/>
 <path fill="none" stroke="rgb(179,179,179)" stroke-linejoin="round" d="M 7971,10817 L 1237,10817 1237,1124 14705,1124 14705,10817 7971,10817 Z"/>
 <path fill="none" stroke="rgb(0,0,0)" stroke-linejoin="round" d="M 14705,10816 L 1237,10816"/>
 <path fill="none" stroke="rgb(0,0,0)" stroke-linejoin="round" d="M 14705,8877 L 1237,8877"/>
 <path fill="none" stroke="rgb(0,0,0)" stroke-linejoin="round" d="M 14705,6938 L 1237,6938"/>
 <path fill="none" stroke="rgb(0,0,0)" stroke-linejoin="round" d="M 14705,5000 L 1237,5000"/>
 <path fill="none" stroke="rgb(0,0,0)" stroke-linejoin="round" d="M 14705,3061 L 1237,3061"/>
 <path fill="none" stroke="rgb(0,0,0)" stroke-linejoin="round" d="M 14705,1123 L 1237,1123"/>
 <path fill="none" stroke="rgb(179,179,179)" stroke-linejoin="round" d="M 1237,10966 L 1237,10816"/>
 <path fill="none" stroke="rgb(179,179,179)" stroke-linejoin="round" d="M 1237,10966 L 1237,10816"/>
 <path fill="none" stroke="rgb(179,179,179)" stroke-linejoin="round" d="M 2835,10966 L 2835,10816"/>
 <path fill="none" stroke="rgb(179,179,179)" stroke-linejoin="round" d="M 2835,10966 L 2835,10816"/>
 <path fill="none" stroke="rgb(179,179,179)" stroke-linejoin="round" d="M 4433,10966 L 4433,10816"/>
 <path fill="none" stroke="rgb(179,179,179)" stroke-linejoin="round" d="M 4433,10966 L 4433,10816"/>
 <path fill="none" stroke="rgb(179,179,179)" stroke-linejoin="round" d="M 6031,10966 L 6031,10816"/>
 <path fill="none" stroke="rgb(179,179,179)" stroke-linejoin="round" d="M 6031,10966 L 6031,10816"/>
 <path fill="none" stroke="rgb(179,179,179)" stroke-linejoin="round" d="M 7628,10966 L 7628,10816"/>
 <path fill="none" stroke="rgb(179,179,179)" stroke-linejoin="round" d="M 7628,10966 L 7628,10816"/>
 <path fill="none" stroke="rgb(179,179,179)" stroke-linejoin="round" d="M 9226,10966 L 9226,10816"/>
 <path fill="none" stroke="rgb(179,179,179)" stroke-linejoin="round" d="M 9226,10966 L 9226,10816"/>
 <path fill="none" stroke="rgb(179,179,179)" stroke-linejoin="round" d="M 10824,10966 L 10824,10816"/>
 <path fill="none" stroke="rgb(179,179,179)" stroke-linejoin="round" d="M 10824,10966 L 10824,10816"/>
 <path fill="none" stroke="rgb(179,179,179)" stroke-linejoin="round" d="M 12422,10966 L 12422,10816"/>
 <path fill="none" stroke="rgb(179,179,179)" stroke-linejoin="round" d="M 12422,10966 L 12422,10816"/>
 <path fill="none" stroke="rgb(179,179,179)" stroke-linejoin="round" d="M 14020,10966 L 14020,10816"/>
 <path fill="none" stroke="rgb(179,179,179)" stroke-linejoin="round" d="M 14020,10966 L 14020,10816"/>
 <path fill="none" stroke="rgb(179,179,179)" stroke-linejoin="round" d="M 1237,10816 L 14705,10816"/>
 <path fill="none" stroke="rgb(0,0,0)" stroke-linejoin="round" d="M 1087,10816 L 1237,10816"/>
 <path fill="none" stroke="rgb(0,0,0)" stroke-linejoin="round" d="M 1087,10816 L 1237,10816"/>
 <path fill="none" stroke="rgb(0,0,0)" stroke-linejoin="round" d="M 1087,8877 L 1237,8877"/>
 <path fill="none" stroke="rgb(0,0,0)" stroke-linejoin="round" d="M 1087,8877 L 1237,8877"/>
 <path fill="none" stroke="rgb(0,0,0)" stroke-linejoin="round" d="M 1087,6938 L 1237,6938"/>
 <path fill="none" stroke="rgb(0,0,0)" stroke-linejoin="round" d="M 1087,6938 L 1237,6938"/>
 <path fill="none" stroke="rgb(0,0,0)" stroke-linejoin="round" d="M 1087,5000 L 1237,5000"/>
 <path fill="none" stroke="rgb(0,0,0)" stroke-linejoin="round" d="M 1087,5000 L 1237,5000"/>
 <path fill="none" stroke="rgb(0,0,0)" stroke-linejoin="round" d="M 1087,3061 L 1237,3061"/>
 <path fill="none" stroke="rgb(0,0,0)" stroke-linejoin="round" d="M 1087,3061 L 1237,3061"/>
 <path fill="none" stroke="rgb(0,0,0)" stroke-linejoin="round" d="M 1087,1123 L 1237,1123"/>
 <path fill="none" stroke="rgb(0,0,0)" stroke-linejoin="round" d="M 1087,1123 L 1237,1123"/>
 <path fill="none" stroke="rgb(0,0,0)" stroke-linejoin="round" d="M 1237,10816 L 1237,1123"/>
 <path fill="none" stroke="rgb(0,69,134)" stroke-width="50" stroke-linejoin="round" d="M 4547,10803 L 4775,10803 5003,10796 5232,10803 5460,10777 5688,10693 5916,10738 6145,10576 6373,10596 6601,10699 6830,9833 7058,10680 7286,9639 7513,10124 7742,9723 7970,9297 8198,8722 8427,8269 8655,7830 8883,7558 9111,5982 9340,6582 9568,5847 9796,5440 10025,5401 10253,5569 10481,5330 10709,5233 10938,4677 11166,4793 11394,5588 11623,6460 11851,6699 12079,6014 12307,5924 12536,6401 12764,6906 12992,7520 13221,6815 13449,7474 13677,7151 13905,7436 14134,7255 14362,7035 14590,7164"/>
 <path fill="rgb(0,69,134)" stroke="none" d="M 4447,10703 L 4447,10903 4647,10903 4647,10703 4447,10703 Z"/>
 <path fill="none" stroke="rgb(0,69,134)" stroke-linejoin="round" d="M 4447,10703 L 4447,10903 4647,10903 4647,10703 4447,10703 Z"/>
 <path fill="rgb(0,69,134)" stroke="none" d="M 4675,10703 L 4675,10903 4875,10903 4875,10703 4675,10703 Z"/>
 <path fill="none" stroke="rgb(0,69,134)" stroke-linejoin="round" d="M 4675,10703 L 4675,10903 4875,10903 4875,10703 4675,10703 Z"/>
 <path fill="rgb(0,69,134)" stroke="none" d="M 4903,10696 L 4903,10896 5103,10896 5103,10696 4903,10696 Z"/>
 <path fill="none" stroke="rgb(0,69,134)" stroke-linejoin="round" d="M 4903,10696 L 4903,10896 5103,10896 5103,10696 4903,10696 Z"/>
 <path fill="rgb(0,69,134)" stroke="none" d="M 5132,10703 L 5132,10903 5332,10903 5332,10703 5132,10703 Z"/>
 <path fill="none" stroke="rgb(0,69,134)" stroke-linejoin="round" d="M 5132,10703 L 5132,10903 5332,10903 5332,10703 5132,10703 Z"/>
 <path fill="rgb(0,69,134)" stroke="none" d="M 5360,10677 L 5360,10877 5560,10877 5560,10677 5360,10677 Z"/>
 <path fill="none" stroke="rgb(0,69,134)" stroke-linejoin="round" d="M 5360,10677 L 5360,10877 5560,10877 5560,10677 5360,10677 Z"/>
 <path fill="rgb(0,69,134)" stroke="none" d="M 5588,10593 L 5588,10793 5788,10793 5788,10593 5588,10593 Z"/>
 <path fill="none" stroke="rgb(0,69,134)" stroke-linejoin="round" d="M 5588,10593 L 5588,10793 5788,10793 5788,10593 5588,10593 Z"/>
 <path fill="rgb(0,69,134)" stroke="none" d="M 5816,10638 L 5816,10838 6016,10838 6016,10638 5816,10638 Z"/>
 <path fill="none" stroke="rgb(0,69,134)" stroke-linejoin="round" d="M 5816,10638 L 5816,10838 6016,10838 6016,10638 5816,10638 Z"/>
 <path fill="rgb(0,69,134)" stroke="none" d="M 6045,10476 L 6045,10676 6245,10676 6245,10476 6045,10476 Z"/>
 <path fill="none" stroke="rgb(0,69,134)" stroke-linejoin="round" d="M 6045,10476 L 6045,10676 6245,10676 6245,10476 6045,10476 Z"/>
 <path fill="rgb(0,69,134)" stroke="none" d="M 6273,10496 L 6273,10696 6473,10696 6473,10496 6273,10496 Z"/>
 <path fill="none" stroke="rgb(0,69,134)" stroke-linejoin="round" d="M 6273,10496 L 6273,10696 6473,10696 6473,10496 6273,10496 Z"/>
 <path fill="rgb(0,69,134)" stroke="none" d="M 6501,10599 L 6501,10799 6701,10799 6701,10599 6501,10599 Z"/>
 <path fill="none" stroke="rgb(0,69,134)" stroke-linejoin="round" d="M 6501,10599 L 6501,10799 6701,10799 6701,10599 6501,10599 Z"/>
 <path fill="rgb(0,69,134)" stroke="none" d="M 6730,9733 L 6730,9933 6930,9933 6930,9733 6730,9733 Z"/>
 <path fill="none" stroke="rgb(0,69,134)" stroke-linejoin="round" d="M 6730,9733 L 6730,9933 6930,9933 6930,9733 6730,9733 Z"/>
 <path fill="rgb(0,69,134)" stroke="none" d="M 6958,10580 L 6958,10780 7158,10780 7158,10580 6958,10580 Z"/>
 <path fill="none" stroke="rgb(0,69,134)" stroke-linejoin="round" d="M 6958,10580 L 6958,10780 7158,10780 7158,10580 6958,10580 Z"/>
 <path fill="rgb(0,69,134)" stroke="none" d="M 7186,9539 L 7186,9739 7386,9739 7386,9539 7186,9539 Z"/>
 <path fill="none" stroke="rgb(0,69,134)" stroke-linejoin="round" d="M 7186,9539 L 7186,9739 7386,9739 7386,9539 7186,9539 Z"/>
 <path fill="rgb(0,69,134)" stroke="none" d="M 7414,10024 L 7414,10224 7613,10224 7613,10024 7414,10024 Z"/>
 <path fill="none" stroke="rgb(0,69,134)" stroke-linejoin="round" d="M 7414,10024 L 7414,10224 7613,10224 7613,10024 7414,10024 Z"/>
 <path fill="rgb(0,69,134)" stroke="none" d="M 7642,9623 L 7642,9823 7842,9823 7842,9623 7642,9623 Z"/>
 <path fill="none" stroke="rgb(0,69,134)" stroke-linejoin="round" d="M 7642,9623 L 7642,9823 7842,9823 7842,9623 7642,9623 Z"/>
 <path fill="rgb(0,69,134)" stroke="none" d="M 7870,9197 L 7870,9397 8070,9397 8070,9197 7870,9197 Z"/>
 <path fill="none" stroke="rgb(0,69,134)" stroke-linejoin="round" d="M 7870,9197 L 7870,9397 8070,9397 8070,9197 7870,9197 Z"/>
 <path fill="rgb(0,69,134)" stroke="none" d="M 8098,8622 L 8098,8822 8298,8822 8298,8622 8098,8622 Z"/>
 <path fill="none" stroke="rgb(0,69,134)" stroke-linejoin="round" d="M 8098,8622 L 8098,8822 8298,8822 8298,8622 8098,8622 Z"/>
 <path fill="rgb(0,69,134)" stroke="none" d="M 8327,8169 L 8327,8369 8527,8369 8527,8169 8327,8169 Z"/>
 <path fill="none" stroke="rgb(0,69,134)" stroke-linejoin="round" d="M 8327,8169 L 8327,8369 8527,8369 8527,8169 8327,8169 Z"/>
 <path fill="rgb(0,69,134)" stroke="none" d="M 8555,7730 L 8555,7930 8755,7930 8755,7730 8555,7730 Z"/>
 <path fill="none" stroke="rgb(0,69,134)" stroke-linejoin="round" d="M 8555,7730 L 8555,7930 8755,7930 8755,7730 8555,7730 Z"/>
 <path fill="rgb(0,69,134)" stroke="none" d="M 8783,7458 L 8783,7658 8983,7658 8983,7458 8783,7458 Z"/>
 <path fill="none" stroke="rgb(0,69,134)" stroke-linejoin="round" d="M 8783,7458 L 8783,7658 8983,7658 8983,7458 8783,7458 Z"/>
 <path fill="rgb(0,69,134)" stroke="none" d="M 9011,5882 L 9011,6081 9211,6081 9211,5882 9011,5882 Z"/>
 <path fill="none" stroke="rgb(0,69,134)" stroke-linejoin="round" d="M 9011,5882 L 9011,6081 9211,6081 9211,5882 9011,5882 Z"/>
 <path fill="rgb(0,69,134)" stroke="none" d="M 9240,6482 L 9240,6682 9440,6682 9440,6482 9240,6482 Z"/>
 <path fill="none" stroke="rgb(0,69,134)" stroke-linejoin="round" d="M 9240,6482 L 9240,6682 9440,6682 9440,6482 9240,6482 Z"/>
 <path fill="rgb(0,69,134)" stroke="none" d="M 9468,5747 L 9468,5947 9668,5947 9668,5747 9468,5747 Z"/>
 <path fill="none" stroke="rgb(0,69,134)" stroke-linejoin="round" d="M 9468,5747 L 9468,5947 9668,5947 9668,5747 9468,5747 Z"/>
 <path fill="rgb(0,69,134)" stroke="none" d="M 9696,5340 L 9696,5540 9896,5540 9896,5340 9696,5340 Z"/>
 <path fill="none" stroke="rgb(0,69,134)" stroke-linejoin="round" d="M 9696,5340 L 9696,5540 9896,5540 9896,5340 9696,5340 Z"/>
 <path fill="rgb(0,69,134)" stroke="none" d="M 9925,5301 L 9925,5501 10125,5501 10125,5301 9925,5301 Z"/>
 <path fill="none" stroke="rgb(0,69,134)" stroke-linejoin="round" d="M 9925,5301 L 9925,5501 10125,5501 10125,5301 9925,5301 Z"/>
 <path fill="rgb(0,69,134)" stroke="none" d="M 10153,5469 L 10153,5669 10353,5669 10353,5469 10153,5469 Z"/>
 <path fill="none" stroke="rgb(0,69,134)" stroke-linejoin="round" d="M 10153,5469 L 10153,5669 10353,5669 10353,5469 10153,5469 Z"/>
 <path fill="rgb(0,69,134)" stroke="none" d="M 10381,5230 L 10381,5430 10581,5430 10581,5230 10381,5230 Z"/>
 <path fill="none" stroke="rgb(0,69,134)" stroke-linejoin="round" d="M 10381,5230 L 10381,5430 10581,5430 10581,5230 10381,5230 Z"/>
 <path fill="rgb(0,69,134)" stroke="none" d="M 10609,5133 L 10609,5333 10809,5333 10809,5133 10609,5133 Z"/>
 <path fill="none" stroke="rgb(0,69,134)" stroke-linejoin="round" d="M 10609,5133 L 10609,5333 10809,5333 10809,5133 10609,5133 Z"/>
 <path fill="rgb(0,69,134)" stroke="none" d="M 10838,4577 L 10838,4777 11038,4777 11038,4577 10838,4577 Z"/>
 <path fill="none" stroke="rgb(0,69,134)" stroke-linejoin="round" d="M 10838,4577 L 10838,4777 11038,4777 11038,4577 10838,4577 Z"/>
 <path fill="rgb(0,69,134)" stroke="none" d="M 11066,4693 L 11066,4893 11266,4893 11266,4693 11066,4693 Z"/>
 <path fill="none" stroke="rgb(0,69,134)" stroke-linejoin="round" d="M 11066,4693 L 11066,4893 11266,4893 11266,4693 11066,4693 Z"/>
 <path fill="rgb(0,69,134)" stroke="none" d="M 11294,5488 L 11294,5688 11494,5688 11494,5488 11294,5488 Z"/>
 <path fill="none" stroke="rgb(0,69,134)" stroke-linejoin="round" d="M 11294,5488 L 11294,5688 11494,5688 11494,5488 11294,5488 Z"/>
 <path fill="rgb(0,69,134)" stroke="none" d="M 11523,6360 L 11523,6560 11723,6560 11723,6360 11523,6360 Z"/>
 <path fill="none" stroke="rgb(0,69,134)" stroke-linejoin="round" d="M 11523,6360 L 11523,6560 11723,6560 11723,6360 11523,6360 Z"/>
 <path fill="rgb(0,69,134)" stroke="none" d="M 11751,6599 L 11751,6799 11951,6799 11951,6599 11751,6599 Z"/>
 <path fill="none" stroke="rgb(0,69,134)" stroke-linejoin="round" d="M 11751,6599 L 11751,6799 11951,6799 11951,6599 11751,6599 Z"/>
 <path fill="rgb(0,69,134)" stroke="none" d="M 11979,5915 L 11979,6114 12179,6114 12179,5915 11979,5915 Z"/>
 <path fill="none" stroke="rgb(0,69,134)" stroke-linejoin="round" d="M 11979,5915 L 11979,6114 12179,6114 12179,5915 11979,5915 Z"/>
 <path fill="rgb(0,69,134)" stroke="none" d="M 12207,5824 L 12207,6023 12407,6023 12407,5824 12207,5824 Z"/>
 <path fill="none" stroke="rgb(0,69,134)" stroke-linejoin="round" d="M 12207,5824 L 12207,6023 12407,6023 12407,5824 12207,5824 Z"/>
 <path fill="rgb(0,69,134)" stroke="none" d="M 12436,6301 L 12436,6501 12636,6501 12636,6301 12436,6301 Z"/>
 <path fill="none" stroke="rgb(0,69,134)" stroke-linejoin="round" d="M 12436,6301 L 12436,6501 12636,6501 12636,6301 12436,6301 Z"/>
 <path fill="rgb(0,69,134)" stroke="none" d="M 12664,6806 L 12664,7006 12864,7006 12864,6806 12664,6806 Z"/>
 <path fill="none" stroke="rgb(0,69,134)" stroke-linejoin="round" d="M 12664,6806 L 12664,7006 12864,7006 12864,6806 12664,6806 Z"/>
 <path fill="rgb(0,69,134)" stroke="none" d="M 12892,7420 L 12892,7620 13092,7620 13092,7420 12892,7420 Z"/>
 <path fill="none" stroke="rgb(0,69,134)" stroke-linejoin="round" d="M 12892,7420 L 12892,7620 13092,7620 13092,7420 12892,7420 Z"/>
 <path fill="rgb(0,69,134)" stroke="none" d="M 13121,6715 L 13121,6915 13321,6915 13321,6715 13121,6715 Z"/>
 <path fill="none" stroke="rgb(0,69,134)" stroke-linejoin="round" d="M 13121,6715 L 13121,6915 13321,6915 13321,6715 13121,6715 Z"/>
 <path fill="rgb(0,69,134)" stroke="none" d="M 13349,7374 L 13349,7574 13549,7574 13549,7374 13349,7374 Z"/>
 <path fill="none" stroke="rgb(0,69,134)" stroke-linejoin="round" d="M 13349,7374 L 13349,7574 13549,7574 13549,7374 13349,7374 Z"/>
 <path fill="rgb(0,69,134)" stroke="none" d="M 13577,7051 L 13577,7251 13777,7251 13777,7051 13577,7051 Z"/>
 <path fill="none" stroke="rgb(0,69,134)" stroke-linejoin="round" d="M 13577,7051 L 13577,7251 13777,7251 13777,7051 13577,7051 Z"/>
 <path fill="rgb(0,69,134)" stroke="none" d="M 13805,7336 L 13805,7536 14005,7536 14005,7336 13805,7336 Z"/>
 <path fill="none" stroke="rgb(0,69,134)" stroke-linejoin="round" d="M 13805,7336 L 13805,7536 14005,7536 14005,7336 13805,7336 Z"/>
 <path fill="rgb(0,69,134)" stroke="none" d="M 14034,7155 L 14034,7355 14234,7355 14234,7155 14034,7155 Z"/>
 <path fill="none" stroke="rgb(0,69,134)" stroke-linejoin="round" d="M 14034,7155 L 14034,7355 14234,7355 14234,7155 14034,7155 Z"/>
 <path fill="rgb(0,69,134)" stroke="none" d="M 14262,6935 L 14262,7135 14462,7135 14462,6935 14262,6935 Z"/>
 <path fill="none" stroke="rgb(0,69,134)" stroke-linejoin="round" d="M 14262,6935 L 14262,7135 14462,7135 14462,6935 14262,6935 Z"/>
 <path fill="rgb(0,69,134)" stroke="none" d="M 14490,7064 L 14490,7264 14690,7264 14690,7064 14490,7064 Z"/>
 <path fill="none" stroke="rgb(0,69,134)" stroke-linejoin="round" d="M 14490,7064 L 14490,7264 14690,7264 14690,7064 14490,7064 Z"/>
 <path fill="none" stroke="rgb(255,66,14)" stroke-width="50" stroke-linejoin="round" d="M 1579,10809 L 1807,10816 2036,10816 2264,10816 2492,10816 2720,10809 2949,10816 3177,10816 3405,10816 3634,10816 3862,10809 4090,10809 4318,10816 4547,10796 4775,10803 5003,10770 5232,10796 5460,10803 5688,10757 5916,10699 6145,10731 6373,10699 6601,10738 6830,10628 7058,10635 7286,10641 7513,10370 7742,9988 7970,10311 8198,10092 8427,10092 8655,9613 8883,9264 9111,9323 9340,8457 9568,8883 9796,8754 10025,8928 10253,8114 10481,7591 10709,7526 10938,2060 11166,3578 11394,4011 11623,7468 11851,5433 12079,1659 12307,7319 12536,2150 12764,4438 12992,6712 13221,7190 13449,7106 13677,5892 13905,1523 14134,5950 14362,5898 14590,6666"/>
 <path fill="rgb(255,66,14)" stroke="none" d="M 1479,10809 L 1579,10909 1679,10809 1579,10709 1479,10809 Z"/>
 <path fill="none" stroke="rgb(255,66,14)" stroke-linejoin="round" d="M 1479,10809 L 1579,10909 1679,10809 1579,10709 1479,10809 Z"/>
 <path fill="rgb(255,66,14)" stroke="none" d="M 1707,10816 L 1807,10916 1907,10816 1807,10716 1707,10816 Z"/>
 <path fill="none" stroke="rgb(255,66,14)" stroke-linejoin="round" d="M 1707,10816 L 1807,10916 1907,10816 1807,10716 1707,10816 Z"/>
 <path fill="rgb(255,66,14)" stroke="none" d="M 1936,10816 L 2036,10916 2136,10816 2036,10716 1936,10816 Z"/>
 <path fill="none" stroke="rgb(255,66,14)" stroke-linejoin="round" d="M 1936,10816 L 2036,10916 2136,10816 2036,10716 1936,10816 Z"/>
 <path fill="rgb(255,66,14)" stroke="none" d="M 2164,10816 L 2264,10916 2364,10816 2264,10716 2164,10816 Z"/>
 <path fill="none" stroke="rgb(255,66,14)" stroke-linejoin="round" d="M 2164,10816 L 2264,10916 2364,10816 2264,10716 2164,10816 Z"/>
 <path fill="rgb(255,66,14)" stroke="none" d="M 2392,10816 L 2492,10916 2592,10816 2492,10716 2392,10816 Z"/>
 <path fill="none" stroke="rgb(255,66,14)" stroke-linejoin="round" d="M 2392,10816 L 2492,10916 2592,10816 2492,10716 2392,10816 Z"/>
 <path fill="rgb(255,66,14)" stroke="none" d="M 2620,10809 L 2720,10909 2820,10809 2720,10709 2620,10809 Z"/>
 <path fill="none" stroke="rgb(255,66,14)" stroke-linejoin="round" d="M 2620,10809 L 2720,10909 2820,10809 2720,10709 2620,10809 Z"/>
 <path fill="rgb(255,66,14)" stroke="none" d="M 2849,10816 L 2949,10916 3049,10816 2949,10716 2849,10816 Z"/>
 <path fill="none" stroke="rgb(255,66,14)" stroke-linejoin="round" d="M 2849,10816 L 2949,10916 3049,10816 2949,10716 2849,10816 Z"/>
 <path fill="rgb(255,66,14)" stroke="none" d="M 3077,10816 L 3177,10916 3277,10816 3177,10716 3077,10816 Z"/>
 <path fill="none" stroke="rgb(255,66,14)" stroke-linejoin="round" d="M 3077,10816 L 3177,10916 3277,10816 3177,10716 3077,10816 Z"/>
 <path fill="rgb(255,66,14)" stroke="none" d="M 3305,10816 L 3405,10916 3505,10816 3405,10716 3305,10816 Z"/>
 <path fill="none" stroke="rgb(255,66,14)" stroke-linejoin="round" d="M 3305,10816 L 3405,10916 3505,10816 3405,10716 3305,10816 Z"/>
 <path fill="rgb(255,66,14)" stroke="none" d="M 3534,10816 L 3634,10916 3734,10816 3634,10716 3534,10816 Z"/>
 <path fill="none" stroke="rgb(255,66,14)" stroke-linejoin="round" d="M 3534,10816 L 3634,10916 3734,10816 3634,10716 3534,10816 Z"/>
 <path fill="rgb(255,66,14)" stroke="none" d="M 3762,10809 L 3862,10909 3962,10809 3862,10709 3762,10809 Z"/>
 <path fill="none" stroke="rgb(255,66,14)" stroke-linejoin="round" d="M 3762,10809 L 3862,10909 3962,10809 3862,10709 3762,10809 Z"/>
 <path fill="rgb(255,66,14)" stroke="none" d="M 3990,10809 L 4090,10909 4190,10809 4090,10709 3990,10809 Z"/>
 <path fill="none" stroke="rgb(255,66,14)" stroke-linejoin="round" d="M 3990,10809 L 4090,10909 4190,10809 4090,10709 3990,10809 Z"/>
 <path fill="rgb(255,66,14)" stroke="none" d="M 4218,10816 L 4318,10916 4418,10816 4318,10716 4218,10816 Z"/>
 <path fill="none" stroke="rgb(255,66,14)" stroke-linejoin="round" d="M 4218,10816 L 4318,10916 4418,10816 4318,10716 4218,10816 Z"/>
 <path fill="rgb(255,66,14)" stroke="none" d="M 4447,10796 L 4547,10896 4647,10796 4547,10696 4447,10796 Z"/>
 <path fill="none" stroke="rgb(255,66,14)" stroke-linejoin="round" d="M 4447,10796 L 4547,10896 4647,10796 4547,10696 4447,10796 Z"/>
 <path fill="rgb(255,66,14)" stroke="none" d="M 4675,10803 L 4775,10903 4875,10803 4775,10703 4675,10803 Z"/>
 <path fill="none" stroke="rgb(255,66,14)" stroke-linejoin="round" d="M 4675,10803 L 4775,10903 4875,10803 4775,10703 4675,10803 Z"/>
 <path fill="rgb(255,66,14)" stroke="none" d="M 4903,10770 L 5003,10870 5103,10770 5003,10670 4903,10770 Z"/>
 <path fill="none" stroke="rgb(255,66,14)" stroke-linejoin="round" d="M 4903,10770 L 5003,10870 5103,10770 5003,10670 4903,10770 Z"/>
 <path fill="rgb(255,66,14)" stroke="none" d="M 5132,10796 L 5232,10896 5332,10796 5232,10696 5132,10796 Z"/>
 <path fill="none" stroke="rgb(255,66,14)" stroke-linejoin="round" d="M 5132,10796 L 5232,10896 5332,10796 5232,10696 5132,10796 Z"/>
 <path fill="rgb(255,66,14)" stroke="none" d="M 5360,10803 L 5460,10903 5560,10803 5460,10703 5360,10803 Z"/>
 <path fill="none" stroke="rgb(255,66,14)" stroke-linejoin="round" d="M 5360,10803 L 5460,10903 5560,10803 5460,10703 5360,10803 Z"/>
 <path fill="rgb(255,66,14)" stroke="none" d="M 5588,10757 L 5688,10857 5788,10757 5688,10657 5588,10757 Z"/>
 <path fill="none" stroke="rgb(255,66,14)" stroke-linejoin="round" d="M 5588,10757 L 5688,10857 5788,10757 5688,10657 5588,10757 Z"/>
 <path fill="rgb(255,66,14)" stroke="none" d="M 5816,10699 L 5916,10799 6016,10699 5916,10599 5816,10699 Z"/>
 <path fill="none" stroke="rgb(255,66,14)" stroke-linejoin="round" d="M 5816,10699 L 5916,10799 6016,10699 5916,10599 5816,10699 Z"/>
 <path fill="rgb(255,66,14)" stroke="none" d="M 6045,10731 L 6145,10831 6245,10731 6145,10631 6045,10731 Z"/>
 <path fill="none" stroke="rgb(255,66,14)" stroke-linejoin="round" d="M 6045,10731 L 6145,10831 6245,10731 6145,10631 6045,10731 Z"/>
 <path fill="rgb(255,66,14)" stroke="none" d="M 6273,10699 L 6373,10799 6473,10699 6373,10599 6273,10699 Z"/>
 <path fill="none" stroke="rgb(255,66,14)" stroke-linejoin="round" d="M 6273,10699 L 6373,10799 6473,10699 6373,10599 6273,10699 Z"/>
 <path fill="rgb(255,66,14)" stroke="none" d="M 6501,10738 L 6601,10838 6701,10738 6601,10638 6501,10738 Z"/>
 <path fill="none" stroke="rgb(255,66,14)" stroke-linejoin="round" d="M 6501,10738 L 6601,10838 6701,10738 6601,10638 6501,10738 Z"/>
 <path fill="rgb(255,66,14)" stroke="none" d="M 6730,10628 L 6830,10728 6930,10628 6830,10528 6730,10628 Z"/>
 <path fill="none" stroke="rgb(255,66,14)" stroke-linejoin="round" d="M 6730,10628 L 6830,10728 6930,10628 6830,10528 6730,10628 Z"/>
 <path fill="rgb(255,66,14)" stroke="none" d="M 6958,10635 L 7058,10735 7158,10635 7058,10535 6958,10635 Z"/>
 <path fill="none" stroke="rgb(255,66,14)" stroke-linejoin="round" d="M 6958,10635 L 7058,10735 7158,10635 7058,10535 6958,10635 Z"/>
 <path fill="rgb(255,66,14)" stroke="none" d="M 7186,10641 L 7286,10741 7386,10641 7286,10541 7186,10641 Z"/>
 <path fill="none" stroke="rgb(255,66,14)" stroke-linejoin="round" d="M 7186,10641 L 7286,10741 7386,10641 7286,10541 7186,10641 Z"/>
 <path fill="rgb(255,66,14)" stroke="none" d="M 7414,10370 L 7513,10470 7613,10370 7513,10270 7414,10370 Z"/>
 <path fill="none" stroke="rgb(255,66,14)" stroke-linejoin="round" d="M 7414,10370 L 7513,10470 7613,10370 7513,10270 7414,10370 Z"/>
 <path fill="rgb(255,66,14)" stroke="none" d="M 7642,9988 L 7742,10088 7842,9988 7742,9888 7642,9988 Z"/>
 <path fill="none" stroke="rgb(255,66,14)" stroke-linejoin="round" d="M 7642,9988 L 7742,10088 7842,9988 7742,9888 7642,9988 Z"/>
 <path fill="rgb(255,66,14)" stroke="none" d="M 7870,10311 L 7970,10411 8070,10311 7970,10211 7870,10311 Z"/>
 <path fill="none" stroke="rgb(255,66,14)" stroke-linejoin="round" d="M 7870,10311 L 7970,10411 8070,10311 7970,10211 7870,10311 Z"/>
 <path fill="rgb(255,66,14)" stroke="none" d="M 8098,10092 L 8198,10192 8298,10092 8198,9992 8098,10092 Z"/>
 <path fill="none" stroke="rgb(255,66,14)" stroke-linejoin="round" d="M 8098,10092 L 8198,10192 8298,10092 8198,9992 8098,10092 Z"/>
 <path fill="rgb(255,66,14)" stroke="none" d="M 8327,10092 L 8427,10192 8527,10092 8427,9992 8327,10092 Z"/>
 <path fill="none" stroke="rgb(255,66,14)" stroke-linejoin="round" d="M 8327,10092 L 8427,10192 8527,10092 8427,9992 8327,10092 Z"/>
 <path fill="rgb(255,66,14)" stroke="none" d="M 8555,9613 L 8655,9713 8755,9613 8655,9513 8555,9613 Z"/>
 <path fill="none" stroke="rgb(255,66,14)" stroke-linejoin="round" d="M 8555,9613 L 8655,9713 8755,9613 8655,9513 8555,9613 Z"/>
 <path fill="rgb(255,66,14)" stroke="none" d="M 8783,9264 L 8883,9364 8983,9264 8883,9164 8783,9264 Z"/>
 <path fill="none" stroke="rgb(255,66,14)" stroke-linejoin="round" d="M 8783,9264 L 8883,9364 8983,9264 8883,9164 8783,9264 Z"/>
 <path fill="rgb(255,66,14)" stroke="none" d="M 9011,9323 L 9111,9423 9211,9323 9111,9223 9011,9323 Z"/>
 <path fill="none" stroke="rgb(255,66,14)" stroke-linejoin="round" d="M 9011,9323 L 9111,9423 9211,9323 9111,9223 9011,9323 Z"/>
 <path fill="rgb(255,66,14)" stroke="none" d="M 9240,8457 L 9340,8557 9440,8457 9340,8357 9240,8457 Z"/>
 <path fill="none" stroke="rgb(255,66,14)" stroke-linejoin="round" d="M 9240,8457 L 9340,8557 9440,8457 9340,8357 9240,8457 Z"/>
 <path fill="rgb(255,66,14)" stroke="none" d="M 9468,8883 L 9568,8983 9668,8883 9568,8783 9468,8883 Z"/>
 <path fill="none" stroke="rgb(255,66,14)" stroke-linejoin="round" d="M 9468,8883 L 9568,8983 9668,8883 9568,8783 9468,8883 Z"/>
 <path fill="rgb(255,66,14)" stroke="none" d="M 9696,8754 L 9796,8854 9896,8754 9796,8654 9696,8754 Z"/>
 <path fill="none" stroke="rgb(255,66,14)" stroke-linejoin="round" d="M 9696,8754 L 9796,8854 9896,8754 9796,8654 9696,8754 Z"/>
 <path fill="rgb(255,66,14)" stroke="none" d="M 9925,8928 L 10025,9028 10125,8928 10025,8828 9925,8928 Z"/>
 <path fill="none" stroke="rgb(255,66,14)" stroke-linejoin="round" d="M 9925,8928 L 10025,9028 10125,8928 10025,8828 9925,8928 Z"/>
 <path fill="rgb(255,66,14)" stroke="none" d="M 10153,8114 L 10253,8214 10353,8114 10253,8014 10153,8114 Z"/>
 <path fill="none" stroke="rgb(255,66,14)" stroke-linejoin="round" d="M 10153,8114 L 10253,8214 10353,8114 10253,8014 10153,8114 Z"/>
 <path fill="rgb(255,66,14)" stroke="none" d="M 10381,7591 L 10481,7691 10581,7591 10481,7491 10381,7591 Z"/>
 <path fill="none" stroke="rgb(255,66,14)" stroke-linejoin="round" d="M 10381,7591 L 10481,7691 10581,7591 10481,7491 10381,7591 Z"/>
 <path fill="rgb(255,66,14)" stroke="none" d="M 10609,7526 L 10709,7626 10809,7526 10709,7426 10609,7526 Z"/>
 <path fill="none" stroke="rgb(255,66,14)" stroke-linejoin="round" d="M 10609,7526 L 10709,7626 10809,7526 10709,7426 10609,7526 Z"/>
 <path fill="rgb(255,66,14)" stroke="none" d="M 10838,2060 L 10938,2160 11038,2060 10938,1960 10838,2060 Z"/>
 <path fill="none" stroke="rgb(255,66,14)" stroke-linejoin="round" d="M 10838,2060 L 10938,2160 11038,2060 10938,1960 10838,2060 Z"/>
 <path fill="rgb(255,66,14)" stroke="none" d="M 11066,3578 L 11166,3678 11266,3578 11166,3478 11066,3578 Z"/>
 <path fill="none" stroke="rgb(255,66,14)" stroke-linejoin="round" d="M 11066,3578 L 11166,3678 11266,3578 11166,3478 11066,3578 Z"/>
 <path fill="rgb(255,66,14)" stroke="none" d="M 11294,4011 L 11394,4111 11494,4011 11394,3911 11294,4011 Z"/>
 <path fill="none" stroke="rgb(255,66,14)" stroke-linejoin="round" d="M 11294,4011 L 11394,4111 11494,4011 11394,3911 11294,4011 Z"/>
 <path fill="rgb(255,66,14)" stroke="none" d="M 11523,7468 L 11623,7568 11723,7468 11623,7368 11523,7468 Z"/>
 <path fill="none" stroke="rgb(255,66,14)" stroke-linejoin="round" d="M 11523,7468 L 11623,7568 11723,7468 11623,7368 11523,7468 Z"/>
 <path fill="rgb(255,66,14)" stroke="none" d="M 11751,5433 L 11851,5533 11951,5433 11851,5333 11751,5433 Z"/>
 <path fill="none" stroke="rgb(255,66,14)" stroke-linejoin="round" d="M 11751,5433 L 11851,5533 11951,5433 11851,5333 11751,5433 Z"/>
 <path fill="rgb(255,66,14)" stroke="none" d="M 11979,1659 L 12079,1759 12179,1659 12079,1559 11979,1659 Z"/>
 <path fill="none" stroke="rgb(255,66,14)" stroke-linejoin="round" d="M 11979,1659 L 12079,1759 12179,1659 12079,1559 11979,1659 Z"/>
 <path fill="rgb(255,66,14)" stroke="none" d="M 12207,7319 L 12307,7419 12407,7319 12307,7219 12207,7319 Z"/>
 <path fill="none" stroke="rgb(255,66,14)" stroke-linejoin="round" d="M 12207,7319 L 12307,7419 12407,7319 12307,7219 12207,7319 Z"/>
 <path fill="rgb(255,66,14)" stroke="none" d="M 12436,2150 L 12536,2250 12636,2150 12536,2050 12436,2150 Z"/>
 <path fill="none" stroke="rgb(255,66,14)" stroke-linejoin="round" d="M 12436,2150 L 12536,2250 12636,2150 12536,2050 12436,2150 Z"/>
 <path fill="rgb(255,66,14)" stroke="none" d="M 12664,4438 L 12764,4538 12864,4438 12764,4338 12664,4438 Z"/>
 <path fill="none" stroke="rgb(255,66,14)" stroke-linejoin="round" d="M 12664,4438 L 12764,4538 12864,4438 12764,4338 12664,4438 Z"/>
 <path fill="rgb(255,66,14)" stroke="none" d="M 12892,6712 L 12992,6812 13092,6712 12992,6612 12892,6712 Z"/>
 <path fill="none" stroke="rgb(255,66,14)" stroke-linejoin="round" d="M 12892,6712 L 12992,6812 13092,6712 12992,6612 12892,6712 Z"/>
 <path fill="rgb(255,66,14)" stroke="none" d="M 13121,7190 L 13221,7290 13321,7190 13221,7090 13121,7190 Z"/>
 <path fill="none" stroke="rgb(255,66,14)" stroke-linejoin="round" d="M 13121,7190 L 13221,7290 13321,7190 13221,7090 13121,7190 Z"/>
 <path fill="rgb(255,66,14)" stroke="none" d="M 13349,7106 L 13449,7206 13549,7106 13449,7006 13349,7106 Z"/>
 <path fill="none" stroke="rgb(255,66,14)" stroke-linejoin="round" d="M 13349,7106 L 13449,7206 13549,7106 13449,7006 13349,7106 Z"/>
 <path fill="rgb(255,66,14)" stroke="none" d="M 13577,5892 L 13677,5992 13777,5892 13677,5792 13577,5892 Z"/>
 <path fill="none" stroke="rgb(255,66,14)" stroke-linejoin="round" d="M 13577,5892 L 13677,5992 13777,5892 13677,5792 13577,5892 Z"/>
 <path fill="rgb(255,66,14)" stroke="none" d="M 13805,1523 L 13905,1623 14005,1523 13905,1423 13805,1523 Z"/>
 <path fill="none" stroke="rgb(255,66,14)" stroke-linejoin="round" d="M 13805,1523 L 13905,1623 14005,1523 13905,1423 13805,1523 Z"/>
 <path fill="rgb(255,66,14)" stroke="none" d="M 14034,5950 L 14134,6049 14234,5950 14134,5850 14034,5950 Z"/>
 <path fill="none" stroke="rgb(255,66,14)" stroke-linejoin="round" d="M 14034,5950 L 14134,6049 14234,5950 14134,5850 14034,5950 Z"/>
 <path fill="rgb(255,66,14)" stroke="none" d="M 14262,5898 L 14362,5998 14462,5898 14362,5798 14262,5898 Z"/>
 <path fill="none" stroke="rgb(255,66,14)" stroke-linejoin="round" d="M 14262,5898 L 14362,5998 14462,5898 14362,5798 14262,5898 Z"/>
 <path fill="rgb(255,66,14)" stroke="none" d="M 14490,6666 L 14590,6766 14690,6666 14590,6566 14490,6666 Z"/>
 <path fill="none" stroke="rgb(255,66,14)" stroke-linejoin="round" d="M 14490,6666 L 14590,6766 14690,6666 14590,6566 14490,6666 Z"/>
 <path fill="none" stroke="rgb(255,211,32)" stroke-width="50" stroke-linejoin="round" d="M 1579,10809 L 1807,10809 2036,10809 2264,10790 2492,10796 2720,10803 2949,10783 3177,10790 3405,10764 3634,10783 3862,10699 4090,10641 4318,10635 4547,10551 4775,10499 5003,10583 5232,9956 5460,10189 5688,9730 5916,9549 6145,9594 6373,9200 6601,9685 6830,8437 7058,8560 7286,8586 7513,7746 7742,8056 7970,6763 8198,5692 8427,6608 8655,6931 8883,6014 9111,6401 9340,6537 9568,4554 9796,5071 10025,5931 10253,5569 10481,5407 10709,6117 10938,5905 11166,5866 11394,6414 11623,7423 11851,6705 12079,6912 12307,7313 12536,6873 12764,7132 12992,6815 13221,8030 13449,7158 13677,6925 13905,7080 14134,7423 14362,7099 14590,7700"/>
 <path fill="rgb(255,211,32)" stroke="none" d="M 1479,10709 L 1579,10909 1679,10709 1479,10709 Z"/>
 <path fill="none" stroke="rgb(255,211,32)" stroke-linejoin="round" d="M 1479,10709 L 1579,10909 1679,10709 1479,10709 Z"/>
 <path fill="rgb(255,211,32)" stroke="none" d="M 1707,10709 L 1807,10909 1907,10709 1707,10709 Z"/>
 <path fill="none" stroke="rgb(255,211,32)" stroke-linejoin="round" d="M 1707,10709 L 1807,10909 1907,10709 1707,10709 Z"/>
 <path fill="rgb(255,211,32)" stroke="none" d="M 1936,10709 L 2036,10909 2136,10709 1936,10709 Z"/>
 <path fill="none" stroke="rgb(255,211,32)" stroke-linejoin="round" d="M 1936,10709 L 2036,10909 2136,10709 1936,10709 Z"/>
 <path fill="rgb(255,211,32)" stroke="none" d="M 2164,10690 L 2264,10890 2364,10690 2164,10690 Z"/>
 <path fill="none" stroke="rgb(255,211,32)" stroke-linejoin="round" d="M 2164,10690 L 2264,10890 2364,10690 2164,10690 Z"/>
 <path fill="rgb(255,211,32)" stroke="none" d="M 2392,10696 L 2492,10896 2592,10696 2392,10696 Z"/>
 <path fill="none" stroke="rgb(255,211,32)" stroke-linejoin="round" d="M 2392,10696 L 2492,10896 2592,10696 2392,10696 Z"/>
 <path fill="rgb(255,211,32)" stroke="none" d="M 2620,10703 L 2720,10903 2820,10703 2620,10703 Z"/>
 <path fill="none" stroke="rgb(255,211,32)" stroke-linejoin="round" d="M 2620,10703 L 2720,10903 2820,10703 2620,10703 Z"/>
 <path fill="rgb(255,211,32)" stroke="none" d="M 2849,10683 L 2949,10883 3049,10683 2849,10683 Z"/>
 <path fill="none" stroke="rgb(255,211,32)" stroke-linejoin="round" d="M 2849,10683 L 2949,10883 3049,10683 2849,10683 Z"/>
 <path fill="rgb(255,211,32)" stroke="none" d="M 3077,10690 L 3177,10890 3277,10690 3077,10690 Z"/>
 <path fill="none" stroke="rgb(255,211,32)" stroke-linejoin="round" d="M 3077,10690 L 3177,10890 3277,10690 3077,10690 Z"/>
 <path fill="rgb(255,211,32)" stroke="none" d="M 3305,10664 L 3405,10864 3505,10664 3305,10664 Z"/>
 <path fill="none" stroke="rgb(255,211,32)" stroke-linejoin="round" d="M 3305,10664 L 3405,10864 3505,10664 3305,10664 Z"/>
 <path fill="rgb(255,211,32)" stroke="none" d="M 3534,10683 L 3634,10883 3734,10683 3534,10683 Z"/>
 <path fill="none" stroke="rgb(255,211,32)" stroke-linejoin="round" d="M 3534,10683 L 3634,10883 3734,10683 3534,10683 Z"/>
 <path fill="rgb(255,211,32)" stroke="none" d="M 3762,10599 L 3862,10799 3962,10599 3762,10599 Z"/>
 <path fill="none" stroke="rgb(255,211,32)" stroke-linejoin="round" d="M 3762,10599 L 3862,10799 3962,10599 3762,10599 Z"/>
 <path fill="rgb(255,211,32)" stroke="none" d="M 3990,10541 L 4090,10741 4190,10541 3990,10541 Z"/>
 <path fill="none" stroke="rgb(255,211,32)" stroke-linejoin="round" d="M 3990,10541 L 4090,10741 4190,10541 3990,10541 Z"/>
 <path fill="rgb(255,211,32)" stroke="none" d="M 4218,10535 L 4318,10735 4418,10535 4218,10535 Z"/>
 <path fill="none" stroke="rgb(255,211,32)" stroke-linejoin="round" d="M 4218,10535 L 4318,10735 4418,10535 4218,10535 Z"/>
 <path fill="rgb(255,211,32)" stroke="none" d="M 4447,10451 L 4547,10651 4647,10451 4447,10451 Z"/>
 <path fill="none" stroke="rgb(255,211,32)" stroke-linejoin="round" d="M 4447,10451 L 4547,10651 4647,10451 4447,10451 Z"/>
 <path fill="rgb(255,211,32)" stroke="none" d="M 4675,10399 L 4775,10599 4875,10399 4675,10399 Z"/>
 <path fill="none" stroke="rgb(255,211,32)" stroke-linejoin="round" d="M 4675,10399 L 4775,10599 4875,10399 4675,10399 Z"/>
 <path fill="rgb(255,211,32)" stroke="none" d="M 4903,10483 L 5003,10683 5103,10483 4903,10483 Z"/>
 <path fill="none" stroke="rgb(255,211,32)" stroke-linejoin="round" d="M 4903,10483 L 5003,10683 5103,10483 4903,10483 Z"/>
 <path fill="rgb(255,211,32)" stroke="none" d="M 5132,9856 L 5232,10056 5332,9856 5132,9856 Z"/>
 <path fill="none" stroke="rgb(255,211,32)" stroke-linejoin="round" d="M 5132,9856 L 5232,10056 5332,9856 5132,9856 Z"/>
 <path fill="rgb(255,211,32)" stroke="none" d="M 5360,10089 L 5460,10289 5560,10089 5360,10089 Z"/>
 <path fill="none" stroke="rgb(255,211,32)" stroke-linejoin="round" d="M 5360,10089 L 5460,10289 5560,10089 5360,10089 Z"/>
 <path fill="rgb(255,211,32)" stroke="none" d="M 5588,9630 L 5688,9830 5788,9630 5588,9630 Z"/>
 <path fill="none" stroke="rgb(255,211,32)" stroke-linejoin="round" d="M 5588,9630 L 5688,9830 5788,9630 5588,9630 Z"/>
 <path fill="rgb(255,211,32)" stroke="none" d="M 5816,9449 L 5916,9649 6016,9449 5816,9449 Z"/>
 <path fill="none" stroke="rgb(255,211,32)" stroke-linejoin="round" d="M 5816,9449 L 5916,9649 6016,9449 5816,9449 Z"/>
 <path fill="rgb(255,211,32)" stroke="none" d="M 6045,9494 L 6145,9694 6245,9494 6045,9494 Z"/>
 <path fill="none" stroke="rgb(255,211,32)" stroke-linejoin="round" d="M 6045,9494 L 6145,9694 6245,9494 6045,9494 Z"/>
 <path fill="rgb(255,211,32)" stroke="none" d="M 6273,9100 L 6373,9300 6473,9100 6273,9100 Z"/>
 <path fill="none" stroke="rgb(255,211,32)" stroke-linejoin="round" d="M 6273,9100 L 6373,9300 6473,9100 6273,9100 Z"/>
 <path fill="rgb(255,211,32)" stroke="none" d="M 6501,9585 L 6601,9785 6701,9585 6501,9585 Z"/>
 <path fill="none" stroke="rgb(255,211,32)" stroke-linejoin="round" d="M 6501,9585 L 6601,9785 6701,9585 6501,9585 Z"/>
 <path fill="rgb(255,211,32)" stroke="none" d="M 6730,8337 L 6830,8537 6930,8337 6730,8337 Z"/>
 <path fill="none" stroke="rgb(255,211,32)" stroke-linejoin="round" d="M 6730,8337 L 6830,8537 6930,8337 6730,8337 Z"/>
 <path fill="rgb(255,211,32)" stroke="none" d="M 6958,8460 L 7058,8660 7158,8460 6958,8460 Z"/>
 <path fill="none" stroke="rgb(255,211,32)" stroke-linejoin="round" d="M 6958,8460 L 7058,8660 7158,8460 6958,8460 Z"/>
 <path fill="rgb(255,211,32)" stroke="none" d="M 7186,8486 L 7286,8686 7386,8486 7186,8486 Z"/>
 <path fill="none" stroke="rgb(255,211,32)" stroke-linejoin="round" d="M 7186,8486 L 7286,8686 7386,8486 7186,8486 Z"/>
 <path fill="rgb(255,211,32)" stroke="none" d="M 7414,7646 L 7513,7846 7613,7646 7414,7646 Z"/>
 <path fill="none" stroke="rgb(255,211,32)" stroke-linejoin="round" d="M 7414,7646 L 7513,7846 7613,7646 7414,7646 Z"/>
 <path fill="rgb(255,211,32)" stroke="none" d="M 7642,7956 L 7742,8156 7842,7956 7642,7956 Z"/>
 <path fill="none" stroke="rgb(255,211,32)" stroke-linejoin="round" d="M 7642,7956 L 7742,8156 7842,7956 7642,7956 Z"/>
 <path fill="rgb(255,211,32)" stroke="none" d="M 7870,6663 L 7970,6863 8070,6663 7870,6663 Z"/>
 <path fill="none" stroke="rgb(255,211,32)" stroke-linejoin="round" d="M 7870,6663 L 7970,6863 8070,6663 7870,6663 Z"/>
 <path fill="rgb(255,211,32)" stroke="none" d="M 8098,5592 L 8198,5792 8298,5592 8098,5592 Z"/>
 <path fill="none" stroke="rgb(255,211,32)" stroke-linejoin="round" d="M 8098,5592 L 8198,5792 8298,5592 8098,5592 Z"/>
 <path fill="rgb(255,211,32)" stroke="none" d="M 8327,6508 L 8427,6708 8527,6508 8327,6508 Z"/>
 <path fill="none" stroke="rgb(255,211,32)" stroke-linejoin="round" d="M 8327,6508 L 8427,6708 8527,6508 8327,6508 Z"/>
 <path fill="rgb(255,211,32)" stroke="none" d="M 8555,6831 L 8655,7031 8755,6831 8555,6831 Z"/>
 <path fill="none" stroke="rgb(255,211,32)" stroke-linejoin="round" d="M 8555,6831 L 8655,7031 8755,6831 8555,6831 Z"/>
 <path fill="rgb(255,211,32)" stroke="none" d="M 8783,5915 L 8883,6114 8983,5915 8783,5915 Z"/>
 <path fill="none" stroke="rgb(255,211,32)" stroke-linejoin="round" d="M 8783,5915 L 8883,6114 8983,5915 8783,5915 Z"/>
 <path fill="rgb(255,211,32)" stroke="none" d="M 9011,6301 L 9111,6501 9211,6301 9011,6301 Z"/>
 <path fill="none" stroke="rgb(255,211,32)" stroke-linejoin="round" d="M 9011,6301 L 9111,6501 9211,6301 9011,6301 Z"/>
 <path fill="rgb(255,211,32)" stroke="none" d="M 9240,6437 L 9340,6637 9440,6437 9240,6437 Z"/>
 <path fill="none" stroke="rgb(255,211,32)" stroke-linejoin="round" d="M 9240,6437 L 9340,6637 9440,6437 9240,6437 Z"/>
 <path fill="rgb(255,211,32)" stroke="none" d="M 9468,4454 L 9568,4654 9668,4454 9468,4454 Z"/>
 <path fill="none" stroke="rgb(255,211,32)" stroke-linejoin="round" d="M 9468,4454 L 9568,4654 9668,4454 9468,4454 Z"/>
 <path fill="rgb(255,211,32)" stroke="none" d="M 9696,4971 L 9796,5171 9896,4971 9696,4971 Z"/>
 <path fill="none" stroke="rgb(255,211,32)" stroke-linejoin="round" d="M 9696,4971 L 9796,5171 9896,4971 9696,4971 Z"/>
 <path fill="rgb(255,211,32)" stroke="none" d="M 9925,5831 L 10025,6030 10125,5831 9925,5831 Z"/>
 <path fill="none" stroke="rgb(255,211,32)" stroke-linejoin="round" d="M 9925,5831 L 10025,6030 10125,5831 9925,5831 Z"/>
 <path fill="rgb(255,211,32)" stroke="none" d="M 10153,5469 L 10253,5669 10353,5469 10153,5469 Z"/>
 <path fill="none" stroke="rgb(255,211,32)" stroke-linejoin="round" d="M 10153,5469 L 10253,5669 10353,5469 10153,5469 Z"/>
 <path fill="rgb(255,211,32)" stroke="none" d="M 10381,5307 L 10481,5507 10581,5307 10381,5307 Z"/>
 <path fill="none" stroke="rgb(255,211,32)" stroke-linejoin="round" d="M 10381,5307 L 10481,5507 10581,5307 10381,5307 Z"/>
 <path fill="rgb(255,211,32)" stroke="none" d="M 10609,6017 L 10709,6217 10809,6017 10609,6017 Z"/>
 <path fill="none" stroke="rgb(255,211,32)" stroke-linejoin="round" d="M 10609,6017 L 10709,6217 10809,6017 10609,6017 Z"/>
 <path fill="rgb(255,211,32)" stroke="none" d="M 10838,5805 L 10938,6004 11038,5805 10838,5805 Z"/>
 <path fill="none" stroke="rgb(255,211,32)" stroke-linejoin="round" d="M 10838,5805 L 10938,6004 11038,5805 10838,5805 Z"/>
 <path fill="rgb(255,211,32)" stroke="none" d="M 11066,5766 L 11166,5966 11266,5766 11066,5766 Z"/>
 <path fill="none" stroke="rgb(255,211,32)" stroke-linejoin="round" d="M 11066,5766 L 11166,5966 11266,5766 11066,5766 Z"/>
 <path fill="rgb(255,211,32)" stroke="none" d="M 11294,6314 L 11394,6514 11494,6314 11294,6314 Z"/>
 <path fill="none" stroke="rgb(255,211,32)" stroke-linejoin="round" d="M 11294,6314 L 11394,6514 11494,6314 11294,6314 Z"/>
 <path fill="rgb(255,211,32)" stroke="none" d="M 11523,7323 L 11623,7523 11723,7323 11523,7323 Z"/>
 <path fill="none" stroke="rgb(255,211,32)" stroke-linejoin="round" d="M 11523,7323 L 11623,7523 11723,7323 11523,7323 Z"/>
 <path fill="rgb(255,211,32)" stroke="none" d="M 11751,6605 L 11851,6805 11951,6605 11751,6605 Z"/>
 <path fill="none" stroke="rgb(255,211,32)" stroke-linejoin="round" d="M 11751,6605 L 11851,6805 11951,6605 11751,6605 Z"/>
 <path fill="rgb(255,211,32)" stroke="none" d="M 11979,6812 L 12079,7012 12179,6812 11979,6812 Z"/>
 <path fill="none" stroke="rgb(255,211,32)" stroke-linejoin="round" d="M 11979,6812 L 12079,7012 12179,6812 11979,6812 Z"/>
 <path fill="rgb(255,211,32)" stroke="none" d="M 12207,7213 L 12307,7413 12407,7213 12207,7213 Z"/>
 <path fill="none" stroke="rgb(255,211,32)" stroke-linejoin="round" d="M 12207,7213 L 12307,7413 12407,7213 12207,7213 Z"/>
 <path fill="rgb(255,211,32)" stroke="none" d="M 12436,6773 L 12536,6973 12636,6773 12436,6773 Z"/>
 <path fill="none" stroke="rgb(255,211,32)" stroke-linejoin="round" d="M 12436,6773 L 12536,6973 12636,6773 12436,6773 Z"/>
 <path fill="rgb(255,211,32)" stroke="none" d="M 12664,7032 L 12764,7232 12864,7032 12664,7032 Z"/>
 <path fill="none" stroke="rgb(255,211,32)" stroke-linejoin="round" d="M 12664,7032 L 12764,7232 12864,7032 12664,7032 Z"/>
 <path fill="rgb(255,211,32)" stroke="none" d="M 12892,6715 L 12992,6915 13092,6715 12892,6715 Z"/>
 <path fill="none" stroke="rgb(255,211,32)" stroke-linejoin="round" d="M 12892,6715 L 12992,6915 13092,6715 12892,6715 Z"/>
 <path fill="rgb(255,211,32)" stroke="none" d="M 13121,7930 L 13221,8130 13321,7930 13121,7930 Z"/>
 <path fill="none" stroke="rgb(255,211,32)" stroke-linejoin="round" d="M 13121,7930 L 13221,8130 13321,7930 13121,7930 Z"/>
 <path fill="rgb(255,211,32)" stroke="none" d="M 13349,7058 L 13449,7258 13549,7058 13349,7058 Z"/>
 <path fill="none" stroke="rgb(255,211,32)" stroke-linejoin="round" d="M 13349,7058 L 13449,7258 13549,7058 13349,7058 Z"/>
 <path fill="rgb(255,211,32)" stroke="none" d="M 13577,6825 L 13677,7025 13777,6825 13577,6825 Z"/>
 <path fill="none" stroke="rgb(255,211,32)" stroke-linejoin="round" d="M 13577,6825 L 13677,7025 13777,6825 13577,6825 Z"/>
 <path fill="rgb(255,211,32)" stroke="none" d="M 13805,6980 L 13905,7180 14005,6980 13805,6980 Z"/>
 <path fill="none" stroke="rgb(255,211,32)" stroke-linejoin="round" d="M 13805,6980 L 13905,7180 14005,6980 13805,6980 Z"/>
 <path fill="rgb(255,211,32)" stroke="none" d="M 14034,7323 L 14134,7523 14234,7323 14034,7323 Z"/>
 <path fill="none" stroke="rgb(255,211,32)" stroke-linejoin="round" d="M 14034,7323 L 14134,7523 14234,7323 14034,7323 Z"/>
 <path fill="rgb(255,211,32)" stroke="none" d="M 14262,6999 L 14362,7199 14462,6999 14262,6999 Z"/>
 <path fill="none" stroke="rgb(255,211,32)" stroke-linejoin="round" d="M 14262,6999 L 14362,7199 14462,6999 14262,6999 Z"/>
 <path fill="rgb(255,211,32)" stroke="none" d="M 14490,7600 L 14590,7800 14690,7600 14490,7600 Z"/>
 <path fill="none" stroke="rgb(255,211,32)" stroke-linejoin="round" d="M 14490,7600 L 14590,7800 14690,7600 14490,7600 Z"/>
 <path fill="none" stroke="rgb(87,157,28)" stroke-width="50" stroke-linejoin="round" d="M 4547,10809 L 4775,10809 5003,10816 5232,10809 5460,10803 5688,10809 5916,10803 6145,10816 6373,10803 6601,10744 6830,10725 7058,10686 7286,10712 7513,10609 7742,10551 7970,10602 8198,10454 8427,10505 8655,10467 8883,10253 9111,9807 9340,9646 9568,9135 9796,9465 10025,9652 10253,8353 10481,7177 10709,7138 10938,6395 11166,6240 11394,6815 11623,7965 11851,5737 12079,4755 12307,5123 12536,4483 12764,4890 12992,6053 13221,6182 13449,5789 13677,5898 13905,5252 14134,5343 14362,5058"/>
 <path fill="rgb(87,157,28)" stroke="none" d="M 4447,10909 L 4647,10909 4547,10709 4447,10909 Z"/>
 <path fill="none" stroke="rgb(87,157,28)" stroke-linejoin="round" d="M 4447,10909 L 4647,10909 4547,10709 4447,10909 Z"/>
 <path fill="rgb(87,157,28)" stroke="none" d="M 4675,10909 L 4875,10909 4775,10709 4675,10909 Z"/>
 <path fill="none" stroke="rgb(87,157,28)" stroke-linejoin="round" d="M 4675,10909 L 4875,10909 4775,10709 4675,10909 Z"/>
 <path fill="rgb(87,157,28)" stroke="none" d="M 4903,10916 L 5103,10916 5003,10716 4903,10916 Z"/>
 <path fill="none" stroke="rgb(87,157,28)" stroke-linejoin="round" d="M 4903,10916 L 5103,10916 5003,10716 4903,10916 Z"/>
 <path fill="rgb(87,157,28)" stroke="none" d="M 5132,10909 L 5332,10909 5232,10709 5132,10909 Z"/>
 <path fill="none" stroke="rgb(87,157,28)" stroke-linejoin="round" d="M 5132,10909 L 5332,10909 5232,10709 5132,10909 Z"/>
 <path fill="rgb(87,157,28)" stroke="none" d="M 5360,10903 L 5560,10903 5460,10703 5360,10903 Z"/>
 <path fill="none" stroke="rgb(87,157,28)" stroke-linejoin="round" d="M 5360,10903 L 5560,10903 5460,10703 5360,10903 Z"/>
 <path fill="rgb(87,157,28)" stroke="none" d="M 5588,10909 L 5788,10909 5688,10709 5588,10909 Z"/>
 <path fill="none" stroke="rgb(87,157,28)" stroke-linejoin="round" d="M 5588,10909 L 5788,10909 5688,10709 5588,10909 Z"/>
 <path fill="rgb(87,157,28)" stroke="none" d="M 5816,10903 L 6016,10903 5916,10703 5816,10903 Z"/>
 <path fill="none" stroke="rgb(87,157,28)" stroke-linejoin="round" d="M 5816,10903 L 6016,10903 5916,10703 5816,10903 Z"/>
 <path fill="rgb(87,157,28)" stroke="none" d="M 6045,10916 L 6245,10916 6145,10716 6045,10916 Z"/>
 <path fill="none" stroke="rgb(87,157,28)" stroke-linejoin="round" d="M 6045,10916 L 6245,10916 6145,10716 6045,10916 Z"/>
 <path fill="rgb(87,157,28)" stroke="none" d="M 6273,10903 L 6473,10903 6373,10703 6273,10903 Z"/>
 <path fill="none" stroke="rgb(87,157,28)" stroke-linejoin="round" d="M 6273,10903 L 6473,10903 6373,10703 6273,10903 Z"/>
 <path fill="rgb(87,157,28)" stroke="none" d="M 6501,10844 L 6701,10844 6601,10644 6501,10844 Z"/>
 <path fill="none" stroke="rgb(87,157,28)" stroke-linejoin="round" d="M 6501,10844 L 6701,10844 6601,10644 6501,10844 Z"/>
 <path fill="rgb(87,157,28)" stroke="none" d="M 6730,10825 L 6930,10825 6830,10625 6730,10825 Z"/>
 <path fill="none" stroke="rgb(87,157,28)" stroke-linejoin="round" d="M 6730,10825 L 6930,10825 6830,10625 6730,10825 Z"/>
 <path fill="rgb(87,157,28)" stroke="none" d="M 6958,10786 L 7158,10786 7058,10586 6958,10786 Z"/>
 <path fill="none" stroke="rgb(87,157,28)" stroke-linejoin="round" d="M 6958,10786 L 7158,10786 7058,10586 6958,10786 Z"/>
 <path fill="rgb(87,157,28)" stroke="none" d="M 7186,10812 L 7386,10812 7286,10612 7186,10812 Z"/>
 <path fill="none" stroke="rgb(87,157,28)" stroke-linejoin="round" d="M 7186,10812 L 7386,10812 7286,10612 7186,10812 Z"/>
 <path fill="rgb(87,157,28)" stroke="none" d="M 7414,10709 L 7613,10709 7513,10509 7414,10709 Z"/>
 <path fill="none" stroke="rgb(87,157,28)" stroke-linejoin="round" d="M 7414,10709 L 7613,10709 7513,10509 7414,10709 Z"/>
 <path fill="rgb(87,157,28)" stroke="none" d="M 7642,10651 L 7842,10651 7742,10451 7642,10651 Z"/>
 <path fill="none" stroke="rgb(87,157,28)" stroke-linejoin="round" d="M 7642,10651 L 7842,10651 7742,10451 7642,10651 Z"/>
 <path fill="rgb(87,157,28)" stroke="none" d="M 7870,10702 L 8070,10702 7970,10502 7870,10702 Z"/>
 <path fill="none" stroke="rgb(87,157,28)" stroke-linejoin="round" d="M 7870,10702 L 8070,10702 7970,10502 7870,10702 Z"/>
 <path fill="rgb(87,157,28)" stroke="none" d="M 8098,10554 L 8298,10554 8198,10354 8098,10554 Z"/>
 <path fill="none" stroke="rgb(87,157,28)" stroke-linejoin="round" d="M 8098,10554 L 8298,10554 8198,10354 8098,10554 Z"/>
 <path fill="rgb(87,157,28)" stroke="none" d="M 8327,10605 L 8527,10605 8427,10405 8327,10605 Z"/>
 <path fill="none" stroke="rgb(87,157,28)" stroke-linejoin="round" d="M 8327,10605 L 8527,10605 8427,10405 8327,10605 Z"/>
 <path fill="rgb(87,157,28)" stroke="none" d="M 8555,10567 L 8755,10567 8655,10367 8555,10567 Z"/>
 <path fill="none" stroke="rgb(87,157,28)" stroke-linejoin="round" d="M 8555,10567 L 8755,10567 8655,10367 8555,10567 Z"/>
 <path fill="rgb(87,157,28)" stroke="none" d="M 8783,10353 L 8983,10353 8883,10153 8783,10353 Z"/>
 <path fill="none" stroke="rgb(87,157,28)" stroke-linejoin="round" d="M 8783,10353 L 8983,10353 8883,10153 8783,10353 Z"/>
 <path fill="rgb(87,157,28)" stroke="none" d="M 9011,9907 L 9211,9907 9111,9707 9011,9907 Z"/>
 <path fill="none" stroke="rgb(87,157,28)" stroke-linejoin="round" d="M 9011,9907 L 9211,9907 9111,9707 9011,9907 Z"/>
 <path fill="rgb(87,157,28)" stroke="none" d="M 9240,9746 L 9440,9746 9340,9546 9240,9746 Z"/>
 <path fill="none" stroke="rgb(87,157,28)" stroke-linejoin="round" d="M 9240,9746 L 9440,9746 9340,9546 9240,9746 Z"/>
 <path fill="rgb(87,157,28)" stroke="none" d="M 9468,9235 L 9668,9235 9568,9035 9468,9235 Z"/>
 <path fill="none" stroke="rgb(87,157,28)" stroke-linejoin="round" d="M 9468,9235 L 9668,9235 9568,9035 9468,9235 Z"/>
 <path fill="rgb(87,157,28)" stroke="none" d="M 9696,9565 L 9896,9565 9796,9365 9696,9565 Z"/>
 <path fill="none" stroke="rgb(87,157,28)" stroke-linejoin="round" d="M 9696,9565 L 9896,9565 9796,9365 9696,9565 Z"/>
 <path fill="rgb(87,157,28)" stroke="none" d="M 9925,9752 L 10125,9752 10025,9552 9925,9752 Z"/>
 <path fill="none" stroke="rgb(87,157,28)" stroke-linejoin="round" d="M 9925,9752 L 10125,9752 10025,9552 9925,9752 Z"/>
 <path fill="rgb(87,157,28)" stroke="none" d="M 10153,8453 L 10353,8453 10253,8253 10153,8453 Z"/>
 <path fill="none" stroke="rgb(87,157,28)" stroke-linejoin="round" d="M 10153,8453 L 10353,8453 10253,8253 10153,8453 Z"/>
 <path fill="rgb(87,157,28)" stroke="none" d="M 10381,7277 L 10581,7277 10481,7077 10381,7277 Z"/>
 <path fill="none" stroke="rgb(87,157,28)" stroke-linejoin="round" d="M 10381,7277 L 10581,7277 10481,7077 10381,7277 Z"/>
 <path fill="rgb(87,157,28)" stroke="none" d="M 10609,7238 L 10809,7238 10709,7038 10609,7238 Z"/>
 <path fill="none" stroke="rgb(87,157,28)" stroke-linejoin="round" d="M 10609,7238 L 10809,7238 10709,7038 10609,7238 Z"/>
 <path fill="rgb(87,157,28)" stroke="none" d="M 10838,6495 L 11038,6495 10938,6295 10838,6495 Z"/>
 <path fill="none" stroke="rgb(87,157,28)" stroke-linejoin="round" d="M 10838,6495 L 11038,6495 10938,6295 10838,6495 Z"/>
 <path fill="rgb(87,157,28)" stroke="none" d="M 11066,6340 L 11266,6340 11166,6140 11066,6340 Z"/>
 <path fill="none" stroke="rgb(87,157,28)" stroke-linejoin="round" d="M 11066,6340 L 11266,6340 11166,6140 11066,6340 Z"/>
 <path fill="rgb(87,157,28)" stroke="none" d="M 11294,6915 L 11494,6915 11394,6715 11294,6915 Z"/>
 <path fill="none" stroke="rgb(87,157,28)" stroke-linejoin="round" d="M 11294,6915 L 11494,6915 11394,6715 11294,6915 Z"/>
 <path fill="rgb(87,157,28)" stroke="none" d="M 11523,8065 L 11723,8065 11623,7865 11523,8065 Z"/>
 <path fill="none" stroke="rgb(87,157,28)" stroke-linejoin="round" d="M 11523,8065 L 11723,8065 11623,7865 11523,8065 Z"/>
 <path fill="rgb(87,157,28)" stroke="none" d="M 11751,5837 L 11951,5837 11851,5637 11751,5837 Z"/>
 <path fill="none" stroke="rgb(87,157,28)" stroke-linejoin="round" d="M 11751,5837 L 11951,5837 11851,5637 11751,5837 Z"/>
 <path fill="rgb(87,157,28)" stroke="none" d="M 11979,4855 L 12179,4855 12079,4655 11979,4855 Z"/>
 <path fill="none" stroke="rgb(87,157,28)" stroke-linejoin="round" d="M 11979,4855 L 12179,4855 12079,4655 11979,4855 Z"/>
 <path fill="rgb(87,157,28)" stroke="none" d="M 12207,5223 L 12407,5223 12307,5023 12207,5223 Z"/>
 <path fill="none" stroke="rgb(87,157,28)" stroke-linejoin="round" d="M 12207,5223 L 12407,5223 12307,5023 12207,5223 Z"/>
 <path fill="rgb(87,157,28)" stroke="none" d="M 12436,4583 L 12636,4583 12536,4383 12436,4583 Z"/>
 <path fill="none" stroke="rgb(87,157,28)" stroke-linejoin="round" d="M 12436,4583 L 12636,4583 12536,4383 12436,4583 Z"/>
 <path fill="rgb(87,157,28)" stroke="none" d="M 12664,4990 L 12864,4990 12764,4790 12664,4990 Z"/>
 <path fill="none" stroke="rgb(87,157,28)" stroke-linejoin="round" d="M 12664,4990 L 12864,4990 12764,4790 12664,4990 Z"/>
 <path fill="rgb(87,157,28)" stroke="none" d="M 12892,6153 L 13092,6153 12992,5954 12892,6153 Z"/>
 <path fill="none" stroke="rgb(87,157,28)" stroke-linejoin="round" d="M 12892,6153 L 13092,6153 12992,5954 12892,6153 Z"/>
 <path fill="rgb(87,157,28)" stroke="none" d="M 13121,6282 L 13321,6282 13221,6082 13121,6282 Z"/>
 <path fill="none" stroke="rgb(87,157,28)" stroke-linejoin="round" d="M 13121,6282 L 13321,6282 13221,6082 13121,6282 Z"/>
 <path fill="rgb(87,157,28)" stroke="none" d="M 13349,5889 L 13549,5889 13449,5689 13349,5889 Z"/>
 <path fill="none" stroke="rgb(87,157,28)" stroke-linejoin="round" d="M 13349,5889 L 13549,5889 13449,5689 13349,5889 Z"/>
 <path fill="rgb(87,157,28)" stroke="none" d="M 13577,5998 L 13777,5998 13677,5798 13577,5998 Z"/>
 <path fill="none" stroke="rgb(87,157,28)" stroke-linejoin="round" d="M 13577,5998 L 13777,5998 13677,5798 13577,5998 Z"/>
 <path fill="rgb(87,157,28)" stroke="none" d="M 13805,5352 L 14005,5352 13905,5152 13805,5352 Z"/>
 <path fill="none" stroke="rgb(87,157,28)" stroke-linejoin="round" d="M 13805,5352 L 14005,5352 13905,5152 13805,5352 Z"/>
 <path fill="rgb(87,157,28)" stroke="none" d="M 14034,5443 L 14234,5443 14134,5243 14034,5443 Z"/>
 <path fill="none" stroke="rgb(87,157,28)" stroke-linejoin="round" d="M 14034,5443 L 14234,5443 14134,5243 14034,5443 Z"/>
 <path fill="rgb(87,157,28)" stroke="none" d="M 14262,5158 L 14462,5158 14362,4958 14262,5158 Z"/>
 <path fill="none" stroke="rgb(87,157,28)" stroke-linejoin="round" d="M 14262,5158 L 14462,5158 14362,4958 14262,5158 Z"/>
 <text class="TextShape"><tspan class="TextParagraph" font-family="Liberation Sans, sans-serif" font-size="353px" font-weight="400"><tspan class="TextPosition" x="927" y="11384"><tspan fill="rgb(0,0,0)" stroke="none">20/02</tspan></tspan></tspan></text>
 <text class="TextShape"><tspan class="TextParagraph" font-family="Liberation Sans, sans-serif" font-size="353px" font-weight="400"><tspan class="TextPosition" x="2525" y="11384"><tspan fill="rgb(0,0,0)" stroke="none">27/02</tspan></tspan></tspan></text>
 <text class="TextShape"><tspan class="TextParagraph" font-family="Liberation Sans, sans-serif" font-size="353px" font-weight="400"><tspan class="TextPosition" x="4123" y="11384"><tspan fill="rgb(0,0,0)" stroke="none">05/03</tspan></tspan></tspan></text>
 <text class="TextShape"><tspan class="TextParagraph" font-family="Liberation Sans, sans-serif" font-size="353px" font-weight="400"><tspan class="TextPosition" x="5721" y="11384"><tspan fill="rgb(0,0,0)" stroke="none">12/03</tspan></tspan></tspan></text>
 <text class="TextShape"><tspan class="TextParagraph" font-family="Liberation Sans, sans-serif" font-size="353px" font-weight="400"><tspan class="TextPosition" x="7319" y="11384"><tspan fill="rgb(0,0,0)" stroke="none">19/03</tspan></tspan></tspan></text>
 <text class="TextShape"><tspan class="TextParagraph" font-family="Liberation Sans, sans-serif" font-size="353px" font-weight="400"><tspan class="TextPosition" x="8917" y="11384"><tspan fill="rgb(0,0,0)" stroke="none">26/03</tspan></tspan></tspan></text>
 <text class="TextShape"><tspan class="TextParagraph" font-family="Liberation Sans, sans-serif" font-size="353px" font-weight="400"><tspan class="TextPosition" x="10515" y="11384"><tspan fill="rgb(0,0,0)" stroke="none">02/04</tspan></tspan></tspan></text>
 <text class="TextShape"><tspan class="TextParagraph" font-family="Liberation Sans, sans-serif" font-size="353px" font-weight="400"><tspan class="TextPosition" x="12113" y="11384"><tspan fill="rgb(0,0,0)" stroke="none">09/04</tspan></tspan></tspan></text>
 <text class="TextShape"><tspan class="TextParagraph" font-family="Liberation Sans, sans-serif" font-size="353px" font-weight="400"><tspan class="TextPosition" x="13711" y="11384"><tspan fill="rgb(0,0,0)" stroke="none">16/04</tspan></tspan></tspan></text>
 <text class="TextShape"><tspan class="TextParagraph" font-family="Liberation Sans, sans-serif" font-size="353px" font-weight="400"><tspan class="TextPosition" x="431" y="8998"><tspan fill="rgb(0,0,0)" stroke="none">300</tspan></tspan></tspan></text>
 <text class="TextShape"><tspan class="TextParagraph" font-family="Liberation Sans, sans-serif" font-size="353px" font-weight="400"><tspan class="TextPosition" x="431" y="7059"><tspan fill="rgb(0,0,0)" stroke="none">600</tspan></tspan></tspan></text>
 <text class="TextShape"><tspan class="TextParagraph" font-family="Liberation Sans, sans-serif" font-size="353px" font-weight="400"><tspan class="TextPosition" x="431" y="5120"><tspan fill="rgb(0,0,0)" stroke="none">900</tspan></tspan></tspan></text>
 <text class="TextShape"><tspan class="TextParagraph" font-family="Liberation Sans, sans-serif" font-size="353px" font-weight="400"><tspan class="TextPosition" x="140" y="3181"><tspan fill="rgb(0,0,0)" stroke="none">1.200</tspan></tspan></tspan></text>
 <text class="TextShape"><tspan class="TextParagraph" font-family="Liberation Sans, sans-serif" font-size="353px" font-weight="400"><tspan class="TextPosition" x="140" y="1243"><tspan fill="rgb(0,0,0)" stroke="none">1.500</tspan></tspan></tspan></text>
 <text class="TextShape"><tspan class="TextParagraph" font-family="Liberation Sans, sans-serif" font-size="459px" font-weight="400"><tspan class="TextPosition" x="2407" y="911"><tspan fill="rgb(0,0,0)" stroke="none">Covid-19. Muertes diarias en Europa Occidental (1)</tspan></tspan></tspan></text>
 <path fill="none" stroke="rgb(0,69,134)" stroke-width="50" stroke-linejoin="round" d="M 4787,3679 L 5587,3679"/>
 <path fill="rgb(0,69,134)" stroke="none" d="M 5081,3574 L 5081,3785 5292,3785 5292,3574 5081,3574 Z"/>
 <path fill="none" stroke="rgb(0,69,134)" stroke-linejoin="round" d="M 5081,3574 L 5081,3785 5292,3785 5292,3574 5081,3574 Z"/>
 <path fill="none" stroke="rgb(255,66,14)" stroke-width="50" stroke-linejoin="round" d="M 4787,4611 L 5587,4611"/>
 <path fill="rgb(255,66,14)" stroke="none" d="M 5081,4611 L 5187,4717 5292,4611 5187,4506 5081,4611 Z"/>
 <path fill="none" stroke="rgb(255,66,14)" stroke-linejoin="round" d="M 5081,4611 L 5187,4717 5292,4611 5187,4506 5081,4611 Z"/>
 <path fill="none" stroke="rgb(255,211,32)" stroke-width="50" stroke-linejoin="round" d="M 4787,5543 L 5587,5543"/>
 <path fill="rgb(255,211,32)" stroke="none" d="M 5081,5438 L 5187,5649 5292,5438 5081,5438 Z"/>
 <path fill="none" stroke="rgb(255,211,32)" stroke-linejoin="round" d="M 5081,5438 L 5187,5649 5292,5438 5081,5438 Z"/>
 <path fill="none" stroke="rgb(87,157,28)" stroke-width="50" stroke-linejoin="round" d="M 4787,6474 L 5587,6474"/>
 <path fill="rgb(87,157,28)" stroke="none" d="M 5081,6580 L 5292,6580 5187,6369 5081,6580 Z"/>
 <path fill="none" stroke="rgb(87,157,28)" stroke-linejoin="round" d="M 5081,6580 L 5292,6580 5187,6369 5081,6580 Z"/>
 <text class="TextShape"><tspan class="TextParagraph" font-family="Liberation Sans, sans-serif" font-size="353px" font-weight="400"><tspan class="TextPosition" x="5687" y="3799"><tspan fill="rgb(0,0,0)" stroke="none">Espaa</tspan></tspan></tspan></text>
 <text class="TextShape"><tspan class="TextParagraph" font-family="Liberation Sans, sans-serif" font-size="353px" font-weight="400"><tspan class="TextPosition" x="5687" y="4731"><tspan fill="rgb(0,0,0)" stroke="none">Francia</tspan></tspan></tspan></text>
 <text class="TextShape"><tspan class="TextParagraph" font-family="Liberation Sans, sans-serif" font-size="353px" font-weight="400"><tspan class="TextPosition" x="5687" y="5663"><tspan fill="rgb(0,0,0)" stroke="none">Italia</tspan></tspan></tspan></text>
 <text class="TextShape"><tspan class="TextParagraph" font-family="Liberation Sans, sans-serif" font-size="353px" font-weight="400"><tspan class="TextPosition" x="5687" y="6594"><tspan fill="rgb(0,0,0)" stroke="none">Reino Unido</tspan></tspan></tspan></text>
</svg>