<?xml version="1.0" encoding="UTF-8"?>
<!DOCTYPE svg PUBLIC "-//W3C//DTD SVG 1.1//EN" "http://www.w3.org/Graphics/SVG/1.1/DTD/svg11.dtd">
<svg width="150mm" height="120mm" viewBox="0 0 15000 12000" version="1.1" xmlns="http://www.w3.org/2000/svg" xmlns:xlink="http://www.w3.org/1999/xlink" stroke-width="28.222" stroke-linejoin="round" xml:space="preserve">
 <path fill="rgb(255,255,255)" stroke="none" d="M 7500,12000 L 0,12000 0,0 15000,0 15000,12000 7500,12000 Z"/>
 <path fill="none" stroke="rgb(0,0,0)" stroke-linejoin="round" d="M 7941,11163 L 1197,11163 1197,1028 14685,1028 14685,11163 7941,11163 Z"/>
 <path fill="none" stroke="rgb(0,0,0)" stroke-linejoin="round" d="M 14684,11162 L 1196,11162"/>
 <path fill="none" stroke="rgb(0,0,0)" stroke-linejoin="round" d="M 14684,9134 L 1196,9134"/>
 <path fill="none" stroke="rgb(0,0,0)" stroke-linejoin="round" d="M 14684,7107 L 1196,7107"/>
 <path fill="none" stroke="rgb(0,0,0)" stroke-linejoin="round" d="M 14684,5081 L 1196,5081"/>
 <path fill="none" stroke="rgb(0,0,0)" stroke-linejoin="round" d="M 14684,3054 L 1196,3054"/>
 <path fill="none" stroke="rgb(0,0,0)" stroke-linejoin="round" d="M 14684,1027 L 1196,1027"/>
 <path fill="none" stroke="rgb(0,0,0)" stroke-linejoin="round" d="M 1196,11312 L 1196,11162"/>
 <path fill="none" stroke="rgb(0,0,0)" stroke-linejoin="round" d="M 1196,11312 L 1196,11162"/>
 <path fill="none" stroke="rgb(0,0,0)" stroke-linejoin="round" d="M 3287,11312 L 3287,11162"/>
 <path fill="none" stroke="rgb(0,0,0)" stroke-linejoin="round" d="M 3287,11312 L 3287,11162"/>
 <path fill="none" stroke="rgb(0,0,0)" stroke-linejoin="round" d="M 5378,11312 L 5378,11162"/>
 <path fill="none" stroke="rgb(0,0,0)" stroke-linejoin="round" d="M 5378,11312 L 5378,11162"/>
 <path fill="none" stroke="rgb(0,0,0)" stroke-linejoin="round" d="M 7401,11312 L 7401,11162"/>
 <path fill="none" stroke="rgb(0,0,0)" stroke-linejoin="round" d="M 7401,11312 L 7401,11162"/>
 <path fill="none" stroke="rgb(0,0,0)" stroke-linejoin="round" d="M 9491,11312 L 9491,11162"/>
 <path fill="none" stroke="rgb(0,0,0)" stroke-linejoin="round" d="M 9491,11312 L 9491,11162"/>
 <path fill="none" stroke="rgb(0,0,0)" stroke-linejoin="round" d="M 11515,11312 L 11515,11162"/>
 <path fill="none" stroke="rgb(0,0,0)" stroke-linejoin="round" d="M 11515,11312 L 11515,11162"/>
 <path fill="none" stroke="rgb(0,0,0)" stroke-linejoin="round" d="M 13605,11312 L 13605,11162"/>
 <path fill="none" stroke="rgb(0,0,0)" stroke-linejoin="round" d="M 13605,11312 L 13605,11162"/>
 <path fill="none" stroke="rgb(0,0,0)" stroke-linejoin="round" d="M 1196,11162 L 14684,11162"/>
 <path fill="none" stroke="rgb(0,0,0)" stroke-linejoin="round" d="M 1046,11162 L 1196,11162"/>
 <path fill="none" stroke="rgb(0,0,0)" stroke-linejoin="round" d="M 1046,11162 L 1196,11162"/>
 <path fill="none" stroke="rgb(0,0,0)" stroke-linejoin="round" d="M 1046,9134 L 1196,9134"/>
 <path fill="none" stroke="rgb(0,0,0)" stroke-linejoin="round" d="M 1046,9134 L 1196,9134"/>
 <path fill="none" stroke="rgb(0,0,0)" stroke-linejoin="round" d="M 1046,7107 L 1196,7107"/>
 <path fill="none" stroke="rgb(0,0,0)" stroke-linejoin="round" d="M 1046,7107 L 1196,7107"/>
 <path fill="none" stroke="rgb(0,0,0)" stroke-linejoin="round" d="M 1046,5081 L 1196,5081"/>
 <path fill="none" stroke="rgb(0,0,0)" stroke-linejoin="round" d="M 1046,5081 L 1196,5081"/>
 <path fill="none" stroke="rgb(0,0,0)" stroke-linejoin="round" d="M 1046,3054 L 1196,3054"/>
 <path fill="none" stroke="rgb(0,0,0)" stroke-linejoin="round" d="M 1046,3054 L 1196,3054"/>
 <path fill="none" stroke="rgb(0,0,0)" stroke-linejoin="round" d="M 1046,1027 L 1196,1027"/>
 <path fill="none" stroke="rgb(0,0,0)" stroke-linejoin="round" d="M 1046,1027 L 1196,1027"/>
 <path fill="none" stroke="rgb(0,0,0)" stroke-linejoin="round" d="M 1196,11162 L 1196,1027"/>
 <path fill="none" stroke="rgb(0,0,0)" stroke-width="100" stroke-linejoin="round" d="M 1196,11162 L 1264,11162 1331,11162 1399,11162 1466,11162 1534,11162 1601,11162 1669,11153 1736,11137 1804,11137 1871,11137 1938,11137 2006,11137 2073,11137 2141,11145 2208,11149 2276,11141 2343,11141 2411,11141 2478,11141 2545,11141 2613,11137 2680,11137 2748,11137 2815,11137 2883,11137 2950,11137 3018,11137 3085,11133 3152,11129 3220,11125 3287,11125 3355,11121 3422,11121 3490,11121 3557,11117 3625,11117 3692,11105 3759,11097 3827,11097 3894,11097 3962,11097 4029,11084 4097,11076 4164,11080 4232,11080 4299,11080 4366,11080 4434,11080 4501,11060 4569,11056 4636,11052 4704,11040 4771,11028 4839,11028 4906,11028 4973,11003 5041,10987 5108,10967 5176,10914 5243,10841 5311,10841 5378,10841 5446,10744 5513,10675 5580,10570 5648,10497 5715,10436 5783,10436 5850,10436 5918,10399 5985,10379 6053,10338 6120,10302 6187,10261 6255,10261 6322,10261 6390,10213 6457,10209 6525,10168 6592,10059 6660,9986 6727,9986 6794,9986 6862,9953 6929,9949 6997,9941 7064,9929 7132,9921 7199,9921 7267,9921 7334,9876 7401,9803 7469,9738 7535,9649 7603,9568 7670,9568 7738,9568 7805,9519 7873,9487 7940,9613 8007,9515 8075,9459 8142,9459 8210,9459 8277,9365 8345,9301 8412,9248 8480,9163 8547,9082 8614,9082 8682,9082 8749,8964 8817,8923 8884,8871 8952,8717 9019,8619 9087,8619 9154,8619 9221,8506 9289,8482 9356,8364 9424,8299 9491,8206 9559,8206 9626,8206 9694,8149 9761,8104 9828,8007 9896,7971 9963,7946 10031,7946 10098,7946 10166,7890 10233,7890 10301,7825 10368,7760 10435,7663 10503,7663 10570,7663 10638,7444 10705,7399 10773,7334 10840,7249 10908,7200 10975,7200 11042,7200 11110,7140 11177,7067 11245,7026 11312,6998 11380,6998 11447,6998 11515,6998 11582,6965 11649,6937 11717,6917 11784,6888 11852,6888 11919,6888 11987,6888 12054,6831 12122,6799 12189,6799 12256,6767 12324,6762 12391,6762 12459,6762 12526,6706 12594,6673 12661,6600 12729,6592 12796,6560 12863,6560 12931,6560 12998,6394 13066,6385 13133,6333 13201,6199 13268,6069 13336,6069 13403,6069 13470,5944 13538,5855 13605,5616 13673,5340 13740,5040 13808,5040 13875,5040 13943,4659 14010,4294 14077,3990 14145,3747 14212,3293 14280,3293 14347,3293 14415,2823 14482,2364 14550,2064 14617,1764 14684,1643"/>
 <path fill="none" stroke="rgb(255,66,14)" stroke-width="100" stroke-linejoin="round" d="M 1196,11162 L 1264,11162 1331,11162 1399,11162 1466,11162 1534,11162 1601,11162 1669,11072 1736,11072 1804,11072 1871,11072 1938,11072 2006,11072 2073,11072 2141,10853 2208,10853 2276,10853 2343,10849 2411,10849 2478,10849 2545,10849 2613,10845 2680,10841 2748,10436 2815,10428 2883,10428 2950,10428 3018,10428 3085,10428 3152,10428 3220,10428 3287,10428 3355,10428 3422,10428 3490,10428 3557,10428 3625,10428 3692,10428 3759,10428 3827,9957 3894,9957 3962,9957 4029,9957 4097,9957 4164,9957 4232,9957 4299,9957 4366,9957 4434,9957 4501,9957 4569,9957 4636,9957 4704,9592 4771,9592 4839,9592 4906,9592 4973,9459 5041,9459 5108,9357 5176,9357 5243,9357 5311,9357 5378,9357 5446,9357 5513,9357 5580,9357 5648,9151 5715,9151 5783,9151 5850,9151 5918,9151 5985,9151 6053,9151 6120,9146 6187,8911 6255,8911 6322,8911 6390,8867 6457,8850 6525,8810 6592,8786 6660,8757 6727,8757 6794,8757 6862,8676 6929,8623 6997,8615 7064,8550 7132,8522 7199,8522 7267,8522 7334,8392 7401,8332 7469,8303 7535,8275 7603,8165 7670,8165 7738,8165 7805,8015 7873,7954 7940,7857 8007,7764 8075,7654 8142,7654 8210,7654 8277,7330 8345,7245 8412,7123 8480,6994 8547,6900 8614,6900 8682,6900 8749,6604 8817,6491 8884,6333 8952,6239 9019,6162 9087,6162 9154,6162 9221,5997 9289,5920 9356,5843 9424,5746 9491,5632 9559,5632 9626,5632 9694,5490 9761,5405 9828,5369 9896,5328 9963,5304 10031,5304 10098,5304 10166,5162 10233,5162 10301,5077 10368,5004 10435,4939 10503,4939 10570,4939 10638,4854 10705,4724 10773,4671 10840,4635 10908,4594 10975,4594 11042,4594 11110,4525 11177,4485 11245,4424 11312,4396 11380,4396 11447,4396 11515,4396 11582,4347 11649,4270 11717,4238 11784,4193 11852,4193 11919,4193 11987,4193 12054,4116 12122,4092 12189,4092 12256,4092 12324,3994 12391,3994 12459,3994 12526,3909 12594,3873 12661,3828 12729,3792 12796,3743 12863,3743 12931,3743 12998,3633 13066,3593 13133,3540 13201,3488 13268,3423 13336,3423 13403,3423 13470,3285 13538,3236 13605,3143 13673,3106 13740,3042 13808,3042 13875,3042 13943,2981 14010,2981 14077,2742 14145,2681 14212,2628 14280,2628 14347,2628 14415,2474 14482,2401 14550,2344 14617,2300 14684,2255"/>
 <path fill="none" stroke="rgb(255,211,32)" stroke-width="100" stroke-linejoin="round" d="M 1196,11162 L 1264,11162 1331,11162"/>
 <path fill="none" stroke="rgb(255,211,32)" stroke-width="100" stroke-linejoin="round" d="M 2343,11162 L 2411,11162 2478,11162 2545,11162 2613,11162 2680,11162 2748,11162 2815,11162 2883,11157 2950,11157 3018,11157 3085,11157 3152,11153 3220,11113 3287,11109 3355,11109 3422,11109 3490,11109 3557,11109 3625,11109 3692,11109 3759,11105 3827,11105 3894,11105 3962,11105 4029,11105 4097,11097 4164,11076 4232,11076 4299,11076 4366,11076 4434,11076 4501,11076 4569,11040 4636,10436 4704,10436 4771,10420 4839,10420 4906,10420 4973,10411 5041,10115 5108,10111 5176,10099 5243,10059 5311,10059 5378,10059 5446,10018 5513,9970 5580,9876 5648,9852 5715,9832 5783,9832 5850,9832 5918,9824 5985,9783 6053,9783 6120,9661 6187,9657 6255,9657 6322,9657 6390,9657 6457,9507 6525,9511 6592,9507 6660,9487 6727,9487 6794,9487 6862,9459 6929,9292 6997,9292 7064,9284 7132,9272 7199,9272 7267,9272 7334,9248 7401,9215 7469,9155 7535,9155 7603,9069 7670,9069 7738,9069 7805,9061 7873,8850 7940,8855 8007,8850 8075,8802 8142,8802 8210,8802 8277,8773 8345,8482 8412,8473 8480,8469 8547,8421 8614,8421 8682,8421 8749,8409 8817,8060 8884,8060 8952,8048 9019,8032 9087,8032 9154,8032 9221,8011 9289,7594 9356,7590 9424,7569 9491,7508 9559,7508 9626,7508 9694,7496 9761,7156 9828,7148 9896,7115 9963,7099 10031,7099 10098,7099 10166,7075 10233,7075 10301,6754 10368,6750 10435,6702 10503,6702 10570,6702 10638,6677 10705,6280 10773,6276 10840,6252 10908,6252 10975,6252 11042,6252 11110,6235 11177,5831 11245,5831 11312,5831 11380,5831 11447,5831 11515,5831 11582,5827 11649,5499 11717,5499 11784,5499 11852,5499 11919,5499 11987,5499 12054,5499 12122,5203 12189,5203 12256,5198 12324,5194 12391,5194 12459,5194 12526,5190 12594,5028 12661,5020 12729,5016 12796,4967 12863,4967 12931,4967 12998,4959 13066,4874 13133,4619 13201,4562 13268,4542 13336,4542 13403,4542 13470,4542 13538,4128 13605,4104 13673,4100 13740,4047 13808,4047 13875,4047 13943,4027 14010,3646 14077,3625 14145,3617 14212,3544 14280,3544 14347,3544 14415,3508 14482,3115 14550,3110 14617,3070 14684,3062"/>
 <path fill="none" stroke="rgb(87,157,28)" stroke-width="100" stroke-linejoin="round" d="M 1196,11162 L 1264,11162 1331,11162 1399,11162 1466,11162 1534,11162 1601,11162 1669,11162 1736,11162 1804,11162 1871,11162 1938,11162 2006,11162 2073,11162 2141,11153 2208,11149 2276,11149 2343,11149 2411,11145 2478,11145 2545,11145 2613,11137 2680,11137 2748,11137 2815,11137 2883,11133 2950,11133 3018,11133 3085,11109 3152,11109 3220,11105 3287,11101 3355,11101 3422,11101 3490,11101 3557,11072 3625,11060 3692,11056 3759,11040 3827,11028 3894,11028 3962,11028 4029,10995 4097,10987 4164,10983 4232,10955 4299,10939 4366,10939 4434,10939 4501,10886 4569,10866 4636,10853 4704,10841 4771,10825 4839,10825 4906,10825 4973,10760 5041,10752 5108,10748 5176,10740 5243,10728 5311,10728 5378,10728 5446,10699 5513,10695 5580,10675 5648,10647 5715,10638 5783,10638 5850,10638 5918,10598 5985,10566 6053,10557 6120,10537 6187,10521 6255,10521 6322,10521 6390,10488 6457,10468 6525,10428 6592,10407 6660,10379 6727,10379 6794,10379 6862,10326 6929,10290 6997,10257 7064,10225 7132,10188 7199,10188 7267,10188 7334,10095 7401,10087 7469,10042 7535,10042 7603,10006 7670,10006 7738,10006 7805,9884 7873,9824 7940,9791 8007,9742 8075,9710 8142,9710 8210,9710 8277,9629 8345,9544 8412,9499 8480,9406 8547,9369 8614,9369 8682,9369 8749,9276 8817,9207 8884,9179 8952,9155 9019,9086 9087,9086 9154,9086 9221,8996 9289,8919 9356,8915 9424,8895 9491,8871 9559,8871 9626,8871 9694,8753 9761,8680 9828,8688 9896,8676 9963,8619 10031,8619 10098,8619 10166,8591 10233,8591 10301,8534 10368,8494 10435,8453 10503,8453 10570,8453 10638,8405 10705,8380 10773,8376 10840,8372 10908,8344 10975,8344 11042,8344 11110,8299 11177,8267 11245,8263 11312,8259 11380,8259 11447,8259 11515,8259 11582,8161 11649,8133 11717,8113 11784,8080 11852,8080 11919,8080 11987,8080 12054,7999 12122,7983 12189,7983 12256,7926 12324,7914 12391,7914 12459,7914 12526,7821 12594,7792 12661,7740 12729,7727 12796,7654 12863,7654 12931,7654 12998,7569 13066,7444 13133,7338 13201,7245 13268,7265 13336,7265 13403,7265 13470,7119 13538,7042 13605,6973 13673,6888 13740,6734 13808,6734 13875,6734 13943,6462 14010,6398 14077,6276 14145,6122 14212,5973 14280,5973 14347,5973 14415,5766 14482,5665 14550,5551 14617,5490 14684,5393"/>
 <path fill="none" stroke="rgb(126,0,33)" stroke-width="100" stroke-linejoin="round" d="M 1196,11162 L 1264,11162 1331,11162 1399,11162 1466,11162 1534,11162 1601,11162 1669,11162 1736,11162 1804,11162 1871,11162 1938,11162 2006,11162 2073,11162 2141,11162 2208,11162 2276,11162 2343,11162 2411,11162 2478,11162 2545,11162 2613,11162 2680,11162 2748,11162 2815,11162 2883,11162 2950,11162 3018,11162 3085,11157 3152,11157 3220,11157 3287,11157 3355,11157 3422,11157 3490,11157 3557,11157 3625,11157 3692,11157 3759,11157 3827,11157 3894,11157 3962,11157 4029,11149 4097,11145 4164,11145 4232,11145 4299,11145 4366,11145 4434,11145 4501,11141 4569,11137 4636,11137 4704,11133 4771,11133 4839,11133 4906,11133 4973,11133 5041,11129 5108,11129 5176,11129 5243,11125 5311,11125 5378,11125 5446,11121 5513,11121 5580,11113 5648,11101 5715,11101 5783,11101 5850,11101 5918,11097 5985,11097 6053,11093 6120,11093 6187,11080 6255,11080 6322,11080 6390,11072 6457,11068 6525,11052 6592,11040 6660,11036 6727,11036 6794,11036 6862,11011 6929,11011 6997,10987 7064,10963 7132,10930 7199,10930 7267,10930 7334,10857 7401,10837 7469,10817 7535,10784 7603,10744 7670,10744 7738,10744 7805,10626 7873,10553 7940,10501 8007,10407 8075,10351 8142,10351 8210,10351 8277,10156 8345,10071 8412,9994 8480,9884 8547,9836 8614,9836 8682,9836 8749,9548 8817,9519 8884,9455 8952,9374 9019,9272 9087,9272 9154,9272 9221,9041 9289,8936 9356,8850 9424,8749 9491,8648 9559,8648 9626,8648 9694,8445 9761,8376 9828,8315 9896,8242 9963,8165 10031,8165 10098,8165 10166,7841 10233,7841 10301,7736 10368,7663 10435,7606 10503,7606 10570,7606 10638,7496 10705,7444 10773,7415 10840,7375 10908,7342 10975,7342 11042,7342 11110,7257 11177,7237 11245,7204 11312,7192 11380,7192 11447,7192 11515,7192 11582,7107 11649,7087 11717,7079 11784,7071 11852,7071 11919,7071 11987,7071 12054,6985 12122,6977 12189,6977 12256,6945 12324,6937 12391,6937 12459,6937 12526,6900 12594,6892 12661,6884 12729,6872 12796,6856 12863,6856 12931,6856 12998,6803 13066,6771 13133,6742 13201,6702 13268,6657 13336,6657 13403,6657 13470,6552 13538,6535 13605,6519 13673,6475 13740,6414 13808,6414 13875,6414 13943,6321 14010,6272 14077,6227 14145,6199 14212,6077 14280,6077 14347,6077 14415,6000 14482,5977 14550,5949 14617,5904 14684,5847"/>
 <text class="TextShape"><tspan class="TextParagraph" font-family="Liberation Sans, sans-serif" font-size="353px" font-weight="400"><tspan class="TextPosition" x="772" y="11730"><tspan fill="rgb(0,0,0)" stroke="none">27/07</tspan></tspan></tspan></text>
 <text class="TextShape"><tspan class="TextParagraph" font-family="Liberation Sans, sans-serif" font-size="353px" font-weight="400"><tspan class="TextPosition" x="2863" y="11730"><tspan fill="rgb(0,0,0)" stroke="none">27/08</tspan></tspan></tspan></text>
 <text class="TextShape"><tspan class="TextParagraph" font-family="Liberation Sans, sans-serif" font-size="353px" font-weight="400"><tspan class="TextPosition" x="4954" y="11730"><tspan fill="rgb(0,0,0)" stroke="none">27/09</tspan></tspan></tspan></text>
 <text class="TextShape"><tspan class="TextParagraph" font-family="Liberation Sans, sans-serif" font-size="353px" font-weight="400"><tspan class="TextPosition" x="6977" y="11730"><tspan fill="rgb(0,0,0)" stroke="none">27/10</tspan></tspan></tspan></text>
 <text class="TextShape"><tspan class="TextParagraph" font-family="Liberation Sans, sans-serif" font-size="353px" font-weight="400"><tspan class="TextPosition" x="9068" y="11730"><tspan fill="rgb(0,0,0)" stroke="none">27/11</tspan></tspan></tspan></text>
 <text class="TextShape"><tspan class="TextParagraph" font-family="Liberation Sans, sans-serif" font-size="353px" font-weight="400"><tspan class="TextPosition" x="11092" y="11730"><tspan fill="rgb(0,0,0)" stroke="none">27/12</tspan></tspan></tspan></text>
 <text class="TextShape"><tspan class="TextParagraph" font-family="Liberation Sans, sans-serif" font-size="353px" font-weight="400"><tspan class="TextPosition" x="13182" y="11730"><tspan fill="rgb(0,0,0)" stroke="none">27/01</tspan></tspan></tspan></text>
 <text class="TextShape"><tspan class="TextParagraph" font-family="Liberation Sans, sans-serif" font-size="353px" font-weight="400"><tspan class="TextPosition" x="761" y="11283"><tspan fill="rgb(0,0,0)" stroke="none">0</tspan></tspan></tspan></text>
 <text class="TextShape"><tspan class="TextParagraph" font-family="Liberation Sans, sans-serif" font-size="353px" font-weight="400"><tspan class="TextPosition" x="390" y="9255"><tspan fill="rgb(0,0,0)" stroke="none">500</tspan></tspan></tspan></text>
 <text class="TextShape"><tspan class="TextParagraph" font-family="Liberation Sans, sans-serif" font-size="353px" font-weight="400"><tspan class="TextPosition" x="99" y="7228"><tspan fill="rgb(0,0,0)" stroke="none">1.000</tspan></tspan></tspan></text>
 <text class="TextShape"><tspan class="TextParagraph" font-family="Liberation Sans, sans-serif" font-size="353px" font-weight="400"><tspan class="TextPosition" x="99" y="5201"><tspan fill="rgb(0,0,0)" stroke="none">1.500</tspan></tspan></tspan></text>
 <text class="TextShape"><tspan class="TextParagraph" font-family="Liberation Sans, sans-serif" font-size="353px" font-weight="400"><tspan class="TextPosition" x="99" y="3174"><tspan fill="rgb(0,0,0)" stroke="none">2.000</tspan></tspan></tspan></text>
 <text class="TextShape"><tspan class="TextParagraph" font-family="Liberation Sans, sans-serif" font-size="353px" font-weight="400"><tspan class="TextPosition" x="99" y="1147"><tspan fill="rgb(0,0,0)" stroke="none">2.500</tspan></tspan></tspan></text>
 <text class="TextShape"><tspan class="TextParagraph" font-family="Liberation Sans, sans-serif" font-size="459px" font-weight="400"><tspan class="TextPosition" x="4228" y="631"><tspan fill="rgb(0,0,0)" stroke="none">Covid-19. Muertes acumuladas CCAA (2)</tspan></tspan></tspan></text>
 <path fill="none" stroke="rgb(0,0,0)" stroke-width="100" stroke-linejoin="round" d="M 2198,1509 L 2998,1509"/>
 <path fill="none" stroke="rgb(255,66,14)" stroke-width="100" stroke-linejoin="round" d="M 2198,2505 L 2998,2505"/>
 <path fill="none" stroke="rgb(255,211,32)" stroke-width="100" stroke-linejoin="round" d="M 2198,3501 L 2998,3501"/>
 <path fill="none" stroke="rgb(87,157,28)" stroke-width="100" stroke-linejoin="round" d="M 2198,4497 L 2998,4497"/>
 <path fill="none" stroke="rgb(126,0,33)" stroke-width="100" stroke-linejoin="round" d="M 2198,5493 L 2998,5493"/>
 <text class="TextShape"><tspan class="TextParagraph" font-family="Liberation Sans, sans-serif" font-size="353px" font-weight="400"><tspan class="TextPosition" x="3098" y="1629"><tspan fill="rgb(0,0,0)" stroke="none">Castilla–La Mancha</tspan></tspan></tspan></text>
 <text class="TextShape"><tspan class="TextParagraph" font-family="Liberation Sans, sans-serif" font-size="353px" font-weight="400"><tspan class="TextPosition" x="3098" y="2625"><tspan fill="rgb(0,0,0)" stroke="none">Aragón</tspan></tspan></tspan></text>
 <text class="TextShape"><tspan class="TextParagraph" font-family="Liberation Sans, sans-serif" font-size="353px" font-weight="400"><tspan class="TextPosition" x="3098" y="3621"><tspan fill="rgb(0,0,0)" stroke="none">País Vasco</tspan></tspan></tspan></text>
 <text class="TextShape"><tspan class="TextParagraph" font-family="Liberation Sans, sans-serif" font-size="353px" font-weight="400"><tspan class="TextPosition" x="3098" y="4617"><tspan fill="rgb(0,0,0)" stroke="none">Galicia</tspan></tspan></tspan></text>
 <text class="TextShape"><tspan class="TextParagraph" font-family="Liberation Sans, sans-serif" font-size="353px" font-weight="400"><tspan class="TextPosition" x="3098" y="5613"><tspan fill="rgb(0,0,0)" stroke="none">Asturias </tspan></tspan></tspan></text>
</svg>