<?xml version="1.0" encoding="UTF-8"?>
<!DOCTYPE svg PUBLIC "-//W3C//DTD SVG 1.1//EN" "http://www.w3.org/Graphics/SVG/1.1/DTD/svg11.dtd">
<svg width="150mm" height="120mm" viewBox="0 0 15000 12000" version="1.1" xmlns="http://www.w3.org/2000/svg" xmlns:xlink="http://www.w3.org/1999/xlink" stroke-width="28.222" stroke-linejoin="round" xml:space="preserve">
 <path fill="rgb(255,255,255)" stroke="none" d="M 7500,12000 L 0,12000 0,0 15000,0 15000,12000 7500,12000 Z"/>
 <path fill="none" stroke="rgb(0,0,0)" stroke-linejoin="round" d="M 8005,11216 L 1306,11216 1306,779 14704,779 14704,11216 8005,11216 Z"/>
 <path fill="none" stroke="rgb(0,0,0)" stroke-linejoin="round" d="M 14703,11215 L 1305,11215"/>
 <path fill="none" stroke="rgb(0,0,0)" stroke-linejoin="round" d="M 14703,9475 L 1305,9475"/>
 <path fill="none" stroke="rgb(0,0,0)" stroke-linejoin="round" d="M 14703,7735 L 1305,7735"/>
 <path fill="none" stroke="rgb(0,0,0)" stroke-linejoin="round" d="M 14703,5996 L 1305,5996"/>
 <path fill="none" stroke="rgb(0,0,0)" stroke-linejoin="round" d="M 14703,4257 L 1305,4257"/>
 <path fill="none" stroke="rgb(0,0,0)" stroke-linejoin="round" d="M 14703,2517 L 1305,2517"/>
 <path fill="none" stroke="rgb(0,0,0)" stroke-linejoin="round" d="M 14703,777 L 1305,777"/>
 <path fill="none" stroke="rgb(0,0,0)" stroke-linejoin="round" d="M 1305,11365 L 1305,11215"/>
 <path fill="none" stroke="rgb(0,0,0)" stroke-linejoin="round" d="M 1305,11365 L 1305,11215"/>
 <path fill="none" stroke="rgb(0,0,0)" stroke-linejoin="round" d="M 3885,11365 L 3885,11215"/>
 <path fill="none" stroke="rgb(0,0,0)" stroke-linejoin="round" d="M 3885,11365 L 3885,11215"/>
 <path fill="none" stroke="rgb(0,0,0)" stroke-linejoin="round" d="M 6465,11365 L 6465,11215"/>
 <path fill="none" stroke="rgb(0,0,0)" stroke-linejoin="round" d="M 6465,11365 L 6465,11215"/>
 <path fill="none" stroke="rgb(0,0,0)" stroke-linejoin="round" d="M 8961,11365 L 8961,11215"/>
 <path fill="none" stroke="rgb(0,0,0)" stroke-linejoin="round" d="M 8961,11365 L 8961,11215"/>
 <path fill="none" stroke="rgb(0,0,0)" stroke-linejoin="round" d="M 11541,11365 L 11541,11215"/>
 <path fill="none" stroke="rgb(0,0,0)" stroke-linejoin="round" d="M 11541,11365 L 11541,11215"/>
 <path fill="none" stroke="rgb(0,0,0)" stroke-linejoin="round" d="M 14038,11365 L 14038,11215"/>
 <path fill="none" stroke="rgb(0,0,0)" stroke-linejoin="round" d="M 14038,11365 L 14038,11215"/>
 <path fill="none" stroke="rgb(0,0,0)" stroke-linejoin="round" d="M 1305,11215 L 14703,11215"/>
 <path fill="none" stroke="rgb(0,0,0)" stroke-linejoin="round" d="M 1155,11215 L 1305,11215"/>
 <path fill="none" stroke="rgb(0,0,0)" stroke-linejoin="round" d="M 1155,11215 L 1305,11215"/>
 <path fill="none" stroke="rgb(0,0,0)" stroke-linejoin="round" d="M 1155,9475 L 1305,9475"/>
 <path fill="none" stroke="rgb(0,0,0)" stroke-linejoin="round" d="M 1155,9475 L 1305,9475"/>
 <path fill="none" stroke="rgb(0,0,0)" stroke-linejoin="round" d="M 1155,7735 L 1305,7735"/>
 <path fill="none" stroke="rgb(0,0,0)" stroke-linejoin="round" d="M 1155,7735 L 1305,7735"/>
 <path fill="none" stroke="rgb(0,0,0)" stroke-linejoin="round" d="M 1155,5996 L 1305,5996"/>
 <path fill="none" stroke="rgb(0,0,0)" stroke-linejoin="round" d="M 1155,5996 L 1305,5996"/>
 <path fill="none" stroke="rgb(0,0,0)" stroke-linejoin="round" d="M 1155,4257 L 1305,4257"/>
 <path fill="none" stroke="rgb(0,0,0)" stroke-linejoin="round" d="M 1155,4257 L 1305,4257"/>
 <path fill="none" stroke="rgb(0,0,0)" stroke-linejoin="round" d="M 1155,2517 L 1305,2517"/>
 <path fill="none" stroke="rgb(0,0,0)" stroke-linejoin="round" d="M 1155,2517 L 1305,2517"/>
 <path fill="none" stroke="rgb(0,0,0)" stroke-linejoin="round" d="M 1155,777 L 1305,777"/>
 <path fill="none" stroke="rgb(0,0,0)" stroke-linejoin="round" d="M 1155,777 L 1305,777"/>
 <path fill="none" stroke="rgb(0,0,0)" stroke-linejoin="round" d="M 1305,11215 L 1305,777"/>
 <path fill="none" stroke="rgb(0,69,134)" stroke-width="100" stroke-linejoin="round" d="M 1305,11213 L 1389,11213 1472,11208 1555,11204 1638,11204 1722,11204 1805,11204 1888,11204 1971,11202 2055,11202 2138,11202 2221,11201 2304,11199 2387,11199 2471,11195 2554,11195 2637,11194 2720,11192 2804,11192 2887,11187 2970,11187 3053,11185 3136,11185 3220,11185 3303,11185 3386,11183 3469,11180 3553,11180 3636,11178 3719,11178 3802,11178 3885,11178 3969,11178 4052,11178 4135,11178 4218,11178 4302,11176 4385,11176 4468,11174 4551,11174 4634,11174 4718,11173 4801,11155 4884,11154 4967,11154 5051,11152 5134,11148 5217,11141 5300,11138 5383,11136 5467,11136 5550,11134 5633,11134 5716,11126 5800,11122 5883,11121 5966,11119 6049,11112 6132,11101 6216,11091 6299,11086 6382,11084 6465,11084 6549,11079 6632,11068 6715,11063 6798,11058 6881,11056 6965,11046 7048,11039 7131,11030 7214,11023 7298,11009 7381,10995 7464,10988 7546,10971 7629,10973 7713,10966 7796,10955 7879,10936 7962,10927 8046,10919 8129,10907 8212,10900 8295,10880 8379,10863 8462,10844 8545,10816 8628,10794 8711,10774 8795,10750 8878,10727 8961,10705 9044,10667 9128,10616 9211,10571 9294,10524 9377,10487 9460,10437 9544,10379 9627,10319 9710,10247 9793,10122 9877,10058 9960,9998 10043,9924 10126,9845 10209,9732 10293,9656 10376,9564 10459,9416 10542,9271 10626,9170 10709,9069 10792,8880 10875,8772 10958,8584 11042,8403 11125,8299 11208,8175 11291,7970 11375,7813 11458,7629 11541,7432 11624,7203 11707,7051 11791,6914 11874,6669 11957,6458 12040,6298 12124,6102 12207,5918 12290,5774 12373,5675 12456,5492 12540,5398 12623,5212 12706,4993 12789,4774 12873,4673 12956,4573 13039,4368 13122,4166 13205,3787 13289,3535 13372,3392 13455,3145 13538,2999 13622,2816 13705,2618 13788,2460 13871,2394 13954,2289 14038,2223 14121,2136 14204,1914 14287,1757 14371,1630 14454,1562 14537,1538 14620,1452 14703,1395"/>
 <path fill="none" stroke="rgb(255,66,14)" stroke-width="100" stroke-linejoin="round" d="M 1389,11211 L 1472,11211 1555,11209 1638,11208 1722,11204 1805,11204 1888,11204 1971,11206 2055,11206 2138,11201 2221,11195 2304,11195 2387,11195 2471,11195 2554,11194 2637,11192 2720,11190 2804,11188 2887,11190 2970,11188 3053,11188 3136,11187 3220,11183 3303,11183 3386,11183 3469,11181 3553,11181 3636,11180 3719,11176 3802,11176 3885,11174 3969,11173 4052,11173 4135,11173 4218,11173 4302,11173 4385,11173 4468,11173 4551,11173 4634,11173 4718,11173 4801,11173 4884,11173 4967,11155 5051,11155 5134,11155 5217,11155 5300,11155 5383,11155 5467,11155 5550,11121 5633,11121 5716,11121 5800,11121 5883,11121 5966,11121 6049,11121 6132,11089 6216,11089 6299,11089 6382,11089 6465,11089 6549,11089 6632,11089 6715,11089 6798,11089 6881,11070 6965,11070 7048,11070 7131,11070 7214,11070 7298,11070 7381,11070 7464,11053 7546,11053 7629,11053 7713,11053 7796,11053 7879,11053 7962,11053 8046,11002 8129,11002 8212,11002 8295,10978 8379,10964 8462,10945 8545,10926 8628,10908 8711,10908 8795,10908 8878,10844 8961,10816 9044,10404 9128,10346 9211,10291 9294,10291 9377,10291 9460,10468 9544,10345 9627,10216 9710,10108 9793,9986 9877,9986 9960,9986 10043,9692 10126,9506 10209,9357 10293,9193 10376,9024 10459,9024 10542,9024 10626,8680 10709,8433 10792,8285 10875,8147 10958,7954 11042,7954 11125,7954 11208,7584 11291,7337 11375,7163 11458,7025 11541,6780 11624,6780 11707,6780 11791,6441 11874,6255 11957,6055 12040,5916 12124,5741 12207,5741 12290,5741 12373,5435 12456,5275 12540,5123 12623,4972 12706,4787 12789,4787 12873,4787 12956,4452 13039,4272 13122,4118 13205,3940 13289,3731 13372,3731 13455,3731 13538,3382 13622,3382 13705,3382 13788,2808 13871,2808 13954,2808 14038,2808 14121,2383 14204,2383 14287,1988 14371,1854 14454,1854 14537,1854 14620,1854 14703,1526"/>
 <path fill="none" stroke="rgb(255,211,32)" stroke-width="100" stroke-linejoin="round" d="M 1305,11211 L 1389,11206 1472,11201 1555,11197 1638,11183 1722,11180 1805,11178 1888,11178 1971,11176 2055,11174 2138,11169 2221,11164 2304,11157 2387,11147 2471,11141 2554,11138 2637,11133 2720,11122 2804,11119 2887,11114 2970,11108 3053,11107 3136,11098 3220,11094 3303,11091 3386,11084 3469,11081 3553,11077 3636,11068 3719,11061 3802,11058 3885,11054 3969,11044 4052,11039 4135,11037 4218,11032 4302,11028 4385,11023 4468,11020 4551,11013 4634,11004 4718,11001 4801,10995 4884,10990 4967,10985 5051,10980 5134,10974 5217,10966 5300,10954 5383,10947 5467,10940 5550,10934 5633,10917 5716,10907 5800,10898 5883,10875 5966,10861 6049,10853 6132,10847 6216,10842 6299,10834 6382,10820 6465,10804 6549,10797 6632,10787 6715,10773 6798,10762 6881,10752 6965,10731 7048,10713 7131,10691 7214,10667 7298,10653 7381,10635 7464,10614 7546,10606 7629,10583 7713,10559 7796,10531 7879,10519 7962,10499 8046,10463 8129,10440 8212,10407 8295,10378 8379,10352 8462,10324 8545,10296 8628,10242 8711,10205 8795,10172 8878,10125 8961,10077 9044,10035 9128,9978 9211,9908 9294,9840 9377,9776 9460,9696 9544,9617 9627,9515 9710,9435 9793,9344 9877,9247 9960,9163 10043,9054 10126,8946 10209,8803 10293,8668 10376,8548 10459,8452 10542,8320 10626,8161 10709,8020 10792,7883 10875,7763 10958,7657 11042,7549 11125,7422 11208,7293 11291,7145 11375,7022 11458,6879 11541,6763 11624,6611 11707,6500 11791,6364 11874,6239 11957,6121 12040,5984 12124,5847 12207,5720 12290,5569 12373,5433 12456,5292 12540,5170 12623,5021 12706,4855 12789,4702 12873,4532 12956,4375 13039,4229 13122,4086 13205,3935 13289,3805 13372,3655 13455,3531 13538,3432 13622,3323 13705,3168 13788,3046 13871,2933 13954,2797 14038,2688 14121,2587 14204,2458 14287,2321 14371,2188 14454,2074 14537,1947 14620,1820 14703,1684"/>
 <path fill="none" stroke="rgb(87,157,28)" stroke-width="100" stroke-linejoin="round" d="M 1305,11215 L 1389,11199 1472,11199 1555,11199 1638,11199 1722,11199 1805,11199 1888,11199 1971,11188 2055,11188 2138,11188 2221,11188 2304,11188 2387,11188 2471,11188 2554,11174 2637,11174 2720,11174 2804,11174 2887,11174 2970,11174 3053,11174 3136,11147 3220,11147 3303,11147 3386,11147 3469,11147 3553,11147 3636,11147 3719,11091 3802,11091 3885,11091 3969,11091 4052,11091 4135,11091 4218,11091 4302,11049 4385,11049 4468,11049 4551,11049 4634,11049 4718,11049 4801,11049 4884,11027 4967,11027 5051,11027 5134,11027 5217,11027 5300,11027 5383,11027 5467,11002 5550,11002 5633,11002 5716,11002 5800,11002 5883,11002 5966,11002 6049,10945 6132,10945 6216,10945 6299,10945 6382,10945 6465,10945 6549,10945 6632,10767 6715,10767 6798,10767 6881,10767 6965,10767 7048,10767 7131,10767 7214,10613 7298,10613 7381,10613 7464,10613 7546,10613 7629,10613 7713,10613 7796,10353 7879,10353 7962,10353 8046,10353 8129,10353 8212,10353 8295,10353 8379,10035 8462,10035 8545,10035 8628,10035 8711,10035 8795,10035 8878,10035 8961,9464 9044,9464 9128,9464 9211,9464 9294,9464 9377,9464 9460,9464 9544,8709 9627,8709 9710,8709 9793,8709 9877,8709 9960,8709 10043,8709 10126,7726 10209,7726 10293,7726 10376,7726 10459,7726 10542,7726 10626,7726 10709,6900 10792,6900 10875,6900 10958,6900 11042,6900 11125,6900 11208,6900 11291,6171 11375,6171 11458,6171 11541,6171 11624,6171 11707,6171 11791,6171 11874,5471 11957,5471 12040,5471 12124,5471 12207,5471 12290,5471 12373,5471 12456,4885 12540,4885 12623,4885 12706,4885 12789,4885 12873,4885 12956,4885 13039,4201 13122,4201 13205,4201 13289,4201 13372,4201 13455,4201 13538,4201 13622,3392 13705,3392 13788,3392 13871,3392 13954,3392 14038,3392 14121,3392 14204,2385 14287,2385 14371,2385 14454,2385 14537,2385 14620,2385 14703,2385"/>
 <path fill="none" stroke="rgb(126,0,33)" stroke-width="100" stroke-linejoin="round" d="M 1305,11204 L 1389,11197 1472,11195 1555,11195 1638,11192 1722,11188 1805,11183 1888,11176 1971,11173 2055,11171 2138,11164 2221,11161 2304,11159 2387,11152 2471,11148 2554,11141 2637,11136 2720,11128 2804,11126 2887,11124 2970,11124 3053,11119 3136,11112 3220,11110 3303,11107 3386,11098 3469,11096 3553,11091 3636,11089 3719,11088 3802,11084 3885,11082 3969,11081 4052,11079 4135,11074 4218,11070 4302,11065 4385,11061 4468,11058 4551,11058 4634,11058 4718,11053 4801,11051 4884,11049 4967,11046 5051,11042 5134,11035 5217,11034 5300,11030 5383,11027 5467,11025 5550,11021 5633,11020 5716,11018 5800,11016 5883,11009 5966,11006 6049,11004 6132,11004 6216,11002 6299,10995 6382,10992 6465,10990 6549,10988 6632,10985 6715,10978 6798,10976 6881,10971 6965,10966 7048,10961 7131,10957 7214,10950 7298,10945 7381,10943 7464,10934 7546,10926 7629,10922 7713,10917 7796,10915 7879,10912 7962,10907 8046,10903 8129,10896 8212,10894 8295,10887 8379,10880 8462,10875 8545,10860 8628,10847 8711,10834 8795,10820 8878,10800 8961,10783 9044,10767 9128,10752 9211,10736 9294,10715 9377,10677 9460,10642 9544,10609 9627,10573 9710,10534 9793,10491 9877,10446 9960,10407 10043,10346 10126,10286 10209,10239 10293,10190 10376,10132 10459,10066 10542,9998 10626,9934 10709,9861 10792,9772 10875,9694 10958,9616 11042,9529 11125,9424 11208,9329 11291,9212 11375,9090 11458,8988 11541,8878 11624,8791 11707,8702 11791,8589 11874,8473 11957,8351 12040,8222 12124,8100 12207,8027 12290,7887 12373,7789 12456,7699 12540,7572 12623,7434 12706,7302 12789,7198 12873,7091 12956,6956 13039,6832 13122,6707 13205,6589 13289,6509 13372,6437 13455,6349 13538,6314 13622,6265 13705,6222 13788,6175 13871,6135 13954,6091 14038,6056 14121,6022 14204,6016"/>
 <text class="TextShape"><tspan class="TextParagraph" font-family="Liberation Sans, sans-serif" font-size="353px" font-weight="400"><tspan class="TextPosition" x="881" y="11783"><tspan fill="rgb(0,0,0)" stroke="none">27/07</tspan></tspan></tspan></text>
 <text class="TextShape"><tspan class="TextParagraph" font-family="Liberation Sans, sans-serif" font-size="353px" font-weight="400"><tspan class="TextPosition" x="3461" y="11783"><tspan fill="rgb(0,0,0)" stroke="none">27/08</tspan></tspan></tspan></text>
 <text class="TextShape"><tspan class="TextParagraph" font-family="Liberation Sans, sans-serif" font-size="353px" font-weight="400"><tspan class="TextPosition" x="6041" y="11783"><tspan fill="rgb(0,0,0)" stroke="none">27/09</tspan></tspan></tspan></text>
 <text class="TextShape"><tspan class="TextParagraph" font-family="Liberation Sans, sans-serif" font-size="353px" font-weight="400"><tspan class="TextPosition" x="8538" y="11783"><tspan fill="rgb(0,0,0)" stroke="none">27/10</tspan></tspan></tspan></text>
 <text class="TextShape"><tspan class="TextParagraph" font-family="Liberation Sans, sans-serif" font-size="353px" font-weight="400"><tspan class="TextPosition" x="11118" y="11783"><tspan fill="rgb(0,0,0)" stroke="none">27/11</tspan></tspan></tspan></text>
 <text class="TextShape"><tspan class="TextParagraph" font-family="Liberation Sans, sans-serif" font-size="353px" font-weight="400"><tspan class="TextPosition" x="13615" y="11783"><tspan fill="rgb(0,0,0)" stroke="none">27/12</tspan></tspan></tspan></text>
 <text class="TextShape"><tspan class="TextParagraph" font-family="Liberation Sans, sans-serif" font-size="353px" font-weight="400"><tspan class="TextPosition" x="208" y="9596"><tspan fill="rgb(0,0,0)" stroke="none">1.000</tspan></tspan></tspan></text>
 <text class="TextShape"><tspan class="TextParagraph" font-family="Liberation Sans, sans-serif" font-size="353px" font-weight="400"><tspan class="TextPosition" x="208" y="7856"><tspan fill="rgb(0,0,0)" stroke="none">2.000</tspan></tspan></tspan></text>
 <text class="TextShape"><tspan class="TextParagraph" font-family="Liberation Sans, sans-serif" font-size="353px" font-weight="400"><tspan class="TextPosition" x="208" y="6116"><tspan fill="rgb(0,0,0)" stroke="none">3.000</tspan></tspan></tspan></text>
 <text class="TextShape"><tspan class="TextParagraph" font-family="Liberation Sans, sans-serif" font-size="353px" font-weight="400"><tspan class="TextPosition" x="208" y="4377"><tspan fill="rgb(0,0,0)" stroke="none">4.000</tspan></tspan></tspan></text>
 <text class="TextShape"><tspan class="TextParagraph" font-family="Liberation Sans, sans-serif" font-size="353px" font-weight="400"><tspan class="TextPosition" x="208" y="2637"><tspan fill="rgb(0,0,0)" stroke="none">5.000</tspan></tspan></tspan></text>
 <text class="TextShape"><tspan class="TextParagraph" font-family="Liberation Sans, sans-serif" font-size="353px" font-weight="400"><tspan class="TextPosition" x="208" y="897"><tspan fill="rgb(0,0,0)" stroke="none">6.000</tspan></tspan></tspan></text>
 <text class="TextShape"><tspan class="TextParagraph" font-family="Liberation Sans, sans-serif" font-size="459px" font-weight="400"><tspan class="TextPosition" x="1877" y="538"><tspan fill="rgb(0,0,0)" stroke="none">Covid-19. Muertes acumuladas en Europa Occidental (2)</tspan></tspan></tspan></text>
 <path fill="none" stroke="rgb(0,69,134)" stroke-width="100" stroke-linejoin="round" d="M 2174,1174 L 2974,1174"/>
 <path fill="none" stroke="rgb(255,66,14)" stroke-width="100" stroke-linejoin="round" d="M 2174,2076 L 2974,2076"/>
 <path fill="none" stroke="rgb(255,211,32)" stroke-width="100" stroke-linejoin="round" d="M 2174,2978 L 2974,2978"/>
 <path fill="none" stroke="rgb(87,157,28)" stroke-width="100" stroke-linejoin="round" d="M 2174,3880 L 2974,3880"/>
 <path fill="none" stroke="rgb(126,0,33)" stroke-width="100" stroke-linejoin="round" d="M 2174,4782 L 2974,4782"/>
 <text class="TextShape"><tspan class="TextParagraph" font-family="Liberation Sans, sans-serif" font-size="353px" font-weight="400"><tspan class="TextPosition" x="3074" y="1294"><tspan fill="rgb(0,0,0)" stroke="none">Austria</tspan></tspan></tspan></text>
 <text class="TextShape"><tspan class="TextParagraph" font-family="Liberation Sans, sans-serif" font-size="353px" font-weight="400"><tspan class="TextPosition" x="3074" y="2196"><tspan fill="rgb(0,0,0)" stroke="none">Suiza</tspan></tspan></tspan></text>
 <text class="TextShape"><tspan class="TextParagraph" font-family="Liberation Sans, sans-serif" font-size="353px" font-weight="400"><tspan class="TextPosition" x="3074" y="3098"><tspan fill="rgb(0,0,0)" stroke="none">Portugal</tspan></tspan></tspan></text>
 <text class="TextShape"><tspan class="TextParagraph" font-family="Liberation Sans, sans-serif" font-size="353px" font-weight="400"><tspan class="TextPosition" x="3074" y="4000"><tspan fill="rgb(0,0,0)" stroke="none">Holanda</tspan></tspan></tspan></text>
 <text class="TextShape"><tspan class="TextParagraph" font-family="Liberation Sans, sans-serif" font-size="353px" font-weight="400"><tspan class="TextPosition" x="3074" y="4902"><tspan fill="rgb(0,0,0)" stroke="none">Suecia</tspan></tspan></tspan></text>
</svg>