<?xml version="1.0" encoding="UTF-8" standalone="no"?>
<svg
   width="32.000004"
   height="32.000004"
   style="clip-rule:evenodd;fill-rule:evenodd;image-rendering:optimizeQuality;shape-rendering:geometricPrecision;text-rendering:geometricPrecision"
   version="1.1"
   id="svg48"
   sodipodi:docname="informatica-favicon.svg"
   inkscape:version="1.1 (c68e22c387, 2021-05-23)"
   xmlns:inkscape="http://www.inkscape.org/namespaces/inkscape"
   xmlns:sodipodi="http://sodipodi.sourceforge.net/DTD/sodipodi-0.dtd"
   xmlns="http://www.w3.org/2000/svg"
   xmlns:svg="http://www.w3.org/2000/svg">
  <sodipodi:namedview
     id="namedview50"
     pagecolor="#ffffff"
     bordercolor="#666666"
     borderopacity="1.0"
     inkscape:pageshadow="2"
     inkscape:pageopacity="0.0"
     inkscape:pagecheckerboard="0"
     showgrid="false"
     fit-margin-top="0"
     fit-margin-left="0"
     fit-margin-right="0"
     fit-margin-bottom="0"
     inkscape:zoom="15.916667"
     inkscape:cx="17.842932"
     inkscape:cy="20.293194"
     inkscape:window-width="1920"
     inkscape:window-height="1017"
     inkscape:window-x="1912"
     inkscape:window-y="-8"
     inkscape:window-maximized="1"
     inkscape:current-layer="svg48" />
  <defs
     id="defs4">
    <style
       id="style2">
      .str3 {stroke:#004F34;stroke-width:0.0113413} .str0 {stroke:#4D4948;stroke-width:0.0524945} .str1 {stroke:#00923F;stroke-width:0.105004} .str2 {stroke:#E77817;stroke-width:0.210023;stroke-linecap:round} .fil3 {fill:none} .fil1 {fill:#4D4948} .fil2 {fill:#DDEAE6} .fil4 {fill:#004F34;fill-rule:nonzero} .fil0 {fill:black;fill-rule:nonzero}
    </style>
  </defs>
  <symbol
     id="Im1-1-0"
     viewBox="-9.6 -36.3 3.1 1.5"
     transform="translate(-0.16831332,-0.16831332)">
    <path
       id="path6"
       d="M -7.7,-35.6 V -36 Z m 1,-0.4 0.2,0.2 V -36 Z"
       style="fill:#000000;fill-rule:nonzero"
       class="fil0" />
    <path
       id="path8"
       d="m -9.6,-35.2 v -0.6 h 0.5 v 0.6 z m 0,0 h 0.5 v -0.6 h -1 z"
       style="fill:#000000;fill-rule:nonzero"
       class="fil0" />
    <path
       id="polygon10"
       d="m -9,-36 h -0.3 0.2 z"
       style="fill:#000000;fill-rule:nonzero"
       class="fil0" />
    <path
       id="path12"
       d="m -9.4,-35 h 0.2 z m 0,0.2 h 0.2 z"
       style="fill:#000000;fill-rule:nonzero"
       class="fil0" />
    <path
       id="polygon14"
       d="M -8.4,-35.7 H -8.6 Z"
       style="fill:#000000;fill-rule:nonzero"
       class="fil0" />
    <path
       id="path16"
       d="M -9,-36.2 V -36 Z"
       style="fill:#000000;fill-rule:nonzero"
       class="fil0" />
    <path
       id="path18"
       d="M -9.2,-35 H -9 v 0.2 h -0.2 z m 0,0 v 0.2 H -9 V -35 Z"
       style="fill:#000000;fill-rule:nonzero"
       class="fil0" />
    <path
       id="polygon20"
       d="m -7.5,-35.7 v -0.2 0.8 z"
       style="fill:#000000;fill-rule:nonzero"
       class="fil0" />
    <path
       id="path22"
       d="m -9.5,-36.3 v 0.2 -0.7 h 0.2 v 0.2 l -0.2,-0.3 v 0.2 -0.3 z"
       style="fill:#000000;fill-rule:nonzero"
       class="fil0" />
    <path
       id="path24"
       d="m -9.5,-35 v 0.2 z"
       style="fill:#000000;fill-rule:nonzero"
       class="fil0" />
    <path
       id="path26"
       d="m -7.2,-36 v 0.3 -0.2 H -7 v 0.8 l -0.2,-0.2 v 0.3 -0.3 z m -0.4,0.2 z m -0.5,0 z m 0,0 h -0.7 z m 0,0 z"
       style="fill:#000000;fill-rule:nonzero"
       class="fil0" />
    <path
       id="path28"
       d="m -8.8,-35.5 v -0.2 h 0.2 v 0.2 H -9 Z m 0,0 z"
       style="fill:#000000;fill-rule:nonzero"
       class="fil0" />
    <path
       id="path30"
       d="M -8,-35.8 H -8.2 Z"
       style="fill:#000000;fill-rule:nonzero"
       class="fil0" />
  </symbol>
  <path
     id="_48328904"
     d="M 8.3958482,3.2370832 H 23.537159 c 2.813871,0 5.091768,2.3448932 5.091768,5.158765 V 23.537159 c 0,2.813871 -2.679878,5.091768 -5.359756,5.091768 H 8.2618543 c -2.6798779,0 -5.0917681,-2.679878 -5.0917681,-5.359756 V 8.3958482 c 0.066997,-2.8138718 2.4788871,-5.158765 5.2927589,-5.158765 z"
     style="fill:#4d4948;stroke:#4d4948;stroke-width:0.445999"
     class="fil1 str0" />
  <path
     id="_48327808"
     d="M 9.4008024,6.117952 H 22.532204 c 1.808918,0 3.349848,1.4739328 3.349848,3.3498473 V 22.532204 c 0,1.808918 -1.54093,3.349848 -3.349848,3.349848 H 9.4008024 c -1.8089176,0 -3.3498474,-1.54093 -3.3498474,-3.349848 V 9.4008024 c 0,-1.8089176 1.5409298,-3.3498474 3.3498474,-3.3498474 z"
     style="fill:#ddeae6;stroke:#00923f;stroke-width:0.892125"
     class="fil2 str1" />
  <path
     id="_48326936"
     d="M 3.2370832,20.991275 H 0.89218998"
     style="fill:none;stroke:#e77817;stroke-width:1.78438;stroke-linecap:round"
     class="fil3 str2" />
  <path
     id="_48326064"
     d="M 3.2370832,18.512388 H 0.89218998"
     style="fill:none;stroke:#e77817;stroke-width:1.78438;stroke-linecap:round"
     class="fil3 str2" />
  <path
     id="_47964128"
     d="M 3.2370832,13.42062 H 0.89218998"
     style="fill:none;stroke:#e77817;stroke-width:1.78438;stroke-linecap:round"
     class="fil3 str2" />
  <path
     id="_47963840"
     d="M 3.2370832,15.966504 H 0.89218998"
     style="fill:none;stroke:#e77817;stroke-width:1.78438;stroke-linecap:round"
     class="fil3 str2" />
  <path
     id="_47962832"
     d="M 3.2370832,10.874736 H 0.89218998"
     style="fill:none;stroke:#e77817;stroke-width:1.78438;stroke-linecap:round"
     class="fil3 str2" />
  <path
     id="_47961960"
     d="M 3.2370832,8.3958482 H 0.89218998"
     style="fill:none;stroke:#e77817;stroke-width:1.78438;stroke-linecap:round"
     class="fil3 str2" />
  <path
     id="_47961088"
     d="M 3.2370832,23.537159 H 0.89218998"
     style="fill:none;stroke:#e77817;stroke-width:1.78438;stroke-linecap:round"
     class="fil3 str2" />
  <path
     id="_47960216"
     d="m 31.107814,20.991275 h -2.41189"
     style="fill:none;stroke:#e77817;stroke-width:1.78438;stroke-linecap:round"
     class="fil3 str2" />
  <path
     id="_47959344"
     d="m 31.107814,18.512388 h -2.41189"
     style="fill:none;stroke:#e77817;stroke-width:1.78438;stroke-linecap:round"
     class="fil3 str2" />
  <path
     id="_47958472"
     d="m 31.107814,13.42062 h -2.41189"
     style="fill:none;stroke:#e77817;stroke-width:1.78438;stroke-linecap:round"
     class="fil3 str2" />
  <path
     id="_47957600"
     d="m 31.107814,15.966504 h -2.41189"
     style="fill:none;stroke:#e77817;stroke-width:1.78438;stroke-linecap:round"
     class="fil3 str2" />
  <path
     id="_47956728"
     d="m 31.107814,10.874736 h -2.41189"
     style="fill:none;stroke:#e77817;stroke-width:1.78438;stroke-linecap:round"
     class="fil3 str2" />
  <path
     id="_47955856"
     d="m 31.107814,8.3958482 h -2.41189"
     style="fill:none;stroke:#e77817;stroke-width:1.78438;stroke-linecap:round"
     class="fil3 str2" />
  <path
     id="_47954984"
     d="m 31.107814,23.537159 h -2.41189"
     style="fill:none;stroke:#e77817;stroke-width:1.78438;stroke-linecap:round"
     class="fil3 str2" />
  <path
     id="_47953976"
     d="m 10.941732,31.107814 v -2.41189"
     style="fill:none;stroke:#e77817;stroke-width:1.78438;stroke-linecap:round"
     class="fil3 str2" />
  <path
     id="_47722464"
     d="m 13.42062,31.107814 v -2.41189"
     style="fill:none;stroke:#e77817;stroke-width:1.78438;stroke-linecap:round"
     class="fil3 str2" />
  <path
     id="_47722360"
     d="m 18.512388,31.107814 v -2.41189"
     style="fill:none;stroke:#e77817;stroke-width:1.78438;stroke-linecap:round"
     class="fil3 str2" />
  <path
     id="_47721952"
     d="m 15.966504,31.107814 v -2.41189"
     style="fill:none;stroke:#e77817;stroke-width:1.78438;stroke-linecap:round"
     class="fil3 str2" />
  <path
     id="_47721080"
     d="m 21.058272,31.107814 v -2.41189"
     style="fill:none;stroke:#e77817;stroke-width:1.78438;stroke-linecap:round"
     class="fil3 str2" />
  <path
     id="_47720208"
     d="m 23.537159,31.107814 v -2.41189"
     style="fill:none;stroke:#e77817;stroke-width:1.78438;stroke-linecap:round"
     class="fil3 str2" />
  <path
     id="_47719336"
     d="m 8.3958482,31.107814 v -2.41189"
     style="fill:none;stroke:#e77817;stroke-width:1.78438;stroke-linecap:round"
     class="fil3 str2" />
  <path
     id="_47718464"
     d="M 10.874736,3.2370832 V 0.89218998"
     style="fill:none;stroke:#e77817;stroke-width:1.78438;stroke-linecap:round"
     class="fil3 str2" />
  <path
     id="_47717592"
     d="M 13.42062,3.2370832 V 0.89218998"
     style="fill:none;stroke:#e77817;stroke-width:1.78438;stroke-linecap:round"
     class="fil3 str2" />
  <path
     id="_47716720"
     d="M 18.512388,3.2370832 V 0.89218998"
     style="fill:none;stroke:#e77817;stroke-width:1.78438;stroke-linecap:round"
     class="fil3 str2" />
  <path
     id="_47715712"
     d="M 15.966504,3.2370832 V 0.89218998"
     style="fill:none;stroke:#e77817;stroke-width:1.78438;stroke-linecap:round"
     class="fil3 str2" />
  <path
     id="_47214512"
     d="M 21.058272,3.2370832 V 0.89218998"
     style="fill:none;stroke:#e77817;stroke-width:1.78438;stroke-linecap:round"
     class="fil3 str2" />
  <path
     id="_47214224"
     d="M 23.537159,3.2370832 V 0.89218998"
     style="fill:none;stroke:#e77817;stroke-width:1.78438;stroke-linecap:round"
     class="fil3 str2" />
  <path
     id="_47213352"
     d="M 8.3958482,3.2370832 V 0.89218998"
     style="fill:none;stroke:#e77817;stroke-width:1.78438;stroke-linecap:round"
     class="fil3 str2" />
</svg>
