<?xml version="1.0" encoding="UTF-8"?>
<!DOCTYPE svg PUBLIC "-//W3C//DTD SVG 1.1//EN" "http://www.w3.org/Graphics/SVG/1.1/DTD/svg11.dtd">
<svg width="160mm" height="120mm" viewBox="0 0 16000 12000" version="1.1" xmlns="http://www.w3.org/2000/svg" stroke-width="28.222" stroke-linejoin="round" xml:space="preserve">
 <path fill="rgb(255,255,255)" stroke="none" d="M 8000,12000 L 0,12000 0,0 16000,0 16000,12000 8000,12000 Z"/>
 <path fill="none" stroke="rgb(0,0,0)" stroke-linejoin="round" d="M 7937,10327 L 940,10327 940,1155 14933,1155 14933,10327 7937,10327 Z"/>
 <path fill="none" stroke="rgb(0,0,0)" stroke-linejoin="round" d="M 14933,10326 L 940,10326"/>
 <path fill="none" stroke="rgb(0,0,0)" stroke-linejoin="round" d="M 14933,8491 L 940,8491"/>
 <path fill="none" stroke="rgb(0,0,0)" stroke-linejoin="round" d="M 14933,6656 L 940,6656"/>
 <path fill="none" stroke="rgb(0,0,0)" stroke-linejoin="round" d="M 14933,4823 L 940,4823"/>
 <path fill="none" stroke="rgb(0,0,0)" stroke-linejoin="round" d="M 14933,2988 L 940,2988"/>
 <path fill="none" stroke="rgb(0,0,0)" stroke-linejoin="round" d="M 14933,1154 L 940,1154"/>
 <path fill="none" stroke="rgb(0,0,0)" stroke-linejoin="round" d="M 940,10476 L 940,10326"/>
 <path fill="none" stroke="rgb(0,0,0)" stroke-linejoin="round" d="M 940,10476 L 940,10326"/>
 <path fill="none" stroke="rgb(0,0,0)" stroke-linejoin="round" d="M 1939,10476 L 1939,10326"/>
 <path fill="none" stroke="rgb(0,0,0)" stroke-linejoin="round" d="M 1939,10476 L 1939,10326"/>
 <path fill="none" stroke="rgb(0,0,0)" stroke-linejoin="round" d="M 2939,10476 L 2939,10326"/>
 <path fill="none" stroke="rgb(0,0,0)" stroke-linejoin="round" d="M 2939,10476 L 2939,10326"/>
 <path fill="none" stroke="rgb(0,0,0)" stroke-linejoin="round" d="M 3938,10476 L 3938,10326"/>
 <path fill="none" stroke="rgb(0,0,0)" stroke-linejoin="round" d="M 3938,10476 L 3938,10326"/>
 <path fill="none" stroke="rgb(0,0,0)" stroke-linejoin="round" d="M 4938,10476 L 4938,10326"/>
 <path fill="none" stroke="rgb(0,0,0)" stroke-linejoin="round" d="M 4938,10476 L 4938,10326"/>
 <path fill="none" stroke="rgb(0,0,0)" stroke-linejoin="round" d="M 5937,10476 L 5937,10326"/>
 <path fill="none" stroke="rgb(0,0,0)" stroke-linejoin="round" d="M 5937,10476 L 5937,10326"/>
 <path fill="none" stroke="rgb(0,0,0)" stroke-linejoin="round" d="M 6937,10476 L 6937,10326"/>
 <path fill="none" stroke="rgb(0,0,0)" stroke-linejoin="round" d="M 6937,10476 L 6937,10326"/>
 <path fill="none" stroke="rgb(0,0,0)" stroke-linejoin="round" d="M 7937,10476 L 7937,10326"/>
 <path fill="none" stroke="rgb(0,0,0)" stroke-linejoin="round" d="M 7937,10476 L 7937,10326"/>
 <path fill="none" stroke="rgb(0,0,0)" stroke-linejoin="round" d="M 8935,10476 L 8935,10326"/>
 <path fill="none" stroke="rgb(0,0,0)" stroke-linejoin="round" d="M 8935,10476 L 8935,10326"/>
 <path fill="none" stroke="rgb(0,0,0)" stroke-linejoin="round" d="M 9935,10476 L 9935,10326"/>
 <path fill="none" stroke="rgb(0,0,0)" stroke-linejoin="round" d="M 9935,10476 L 9935,10326"/>
 <path fill="none" stroke="rgb(0,0,0)" stroke-linejoin="round" d="M 10934,10476 L 10934,10326"/>
 <path fill="none" stroke="rgb(0,0,0)" stroke-linejoin="round" d="M 10934,10476 L 10934,10326"/>
 <path fill="none" stroke="rgb(0,0,0)" stroke-linejoin="round" d="M 11934,10476 L 11934,10326"/>
 <path fill="none" stroke="rgb(0,0,0)" stroke-linejoin="round" d="M 11934,10476 L 11934,10326"/>
 <path fill="none" stroke="rgb(0,0,0)" stroke-linejoin="round" d="M 12933,10476 L 12933,10326"/>
 <path fill="none" stroke="rgb(0,0,0)" stroke-linejoin="round" d="M 12933,10476 L 12933,10326"/>
 <path fill="none" stroke="rgb(0,0,0)" stroke-linejoin="round" d="M 13933,10476 L 13933,10326"/>
 <path fill="none" stroke="rgb(0,0,0)" stroke-linejoin="round" d="M 13933,10476 L 13933,10326"/>
 <path fill="none" stroke="rgb(0,0,0)" stroke-linejoin="round" d="M 14933,10476 L 14933,10326"/>
 <path fill="none" stroke="rgb(0,0,0)" stroke-linejoin="round" d="M 14933,10476 L 14933,10326"/>
 <path fill="none" stroke="rgb(0,0,0)" stroke-linejoin="round" d="M 940,10326 L 14933,10326"/>
 <path fill="none" stroke="rgb(0,0,0)" stroke-linejoin="round" d="M 790,10326 L 940,10326"/>
 <path fill="none" stroke="rgb(0,0,0)" stroke-linejoin="round" d="M 790,10326 L 940,10326"/>
 <path fill="none" stroke="rgb(0,0,0)" stroke-linejoin="round" d="M 790,8491 L 940,8491"/>
 <path fill="none" stroke="rgb(0,0,0)" stroke-linejoin="round" d="M 790,8491 L 940,8491"/>
 <path fill="none" stroke="rgb(0,0,0)" stroke-linejoin="round" d="M 790,6656 L 940,6656"/>
 <path fill="none" stroke="rgb(0,0,0)" stroke-linejoin="round" d="M 790,6656 L 940,6656"/>
 <path fill="none" stroke="rgb(0,0,0)" stroke-linejoin="round" d="M 790,4823 L 940,4823"/>
 <path fill="none" stroke="rgb(0,0,0)" stroke-linejoin="round" d="M 790,4823 L 940,4823"/>
 <path fill="none" stroke="rgb(0,0,0)" stroke-linejoin="round" d="M 790,2988 L 940,2988"/>
 <path fill="none" stroke="rgb(0,0,0)" stroke-linejoin="round" d="M 790,2988 L 940,2988"/>
 <path fill="none" stroke="rgb(0,0,0)" stroke-linejoin="round" d="M 790,1154 L 940,1154"/>
 <path fill="none" stroke="rgb(0,0,0)" stroke-linejoin="round" d="M 790,1154 L 940,1154"/>
 <path fill="none" stroke="rgb(0,0,0)" stroke-linejoin="round" d="M 940,10326 L 940,1154"/>
 <path fill="none" stroke="rgb(179,179,179)" stroke-linejoin="round" d="M 15083,10326 L 14933,10326"/>
 <path fill="none" stroke="rgb(179,179,179)" stroke-linejoin="round" d="M 15083,10326 L 14933,10326"/>
 <path fill="none" stroke="rgb(179,179,179)" stroke-linejoin="round" d="M 15083,8491 L 14933,8491"/>
 <path fill="none" stroke="rgb(179,179,179)" stroke-linejoin="round" d="M 15083,8491 L 14933,8491"/>
 <path fill="none" stroke="rgb(179,179,179)" stroke-linejoin="round" d="M 15083,6656 L 14933,6656"/>
 <path fill="none" stroke="rgb(179,179,179)" stroke-linejoin="round" d="M 15083,6656 L 14933,6656"/>
 <path fill="none" stroke="rgb(179,179,179)" stroke-linejoin="round" d="M 15083,4823 L 14933,4823"/>
 <path fill="none" stroke="rgb(179,179,179)" stroke-linejoin="round" d="M 15083,4823 L 14933,4823"/>
 <path fill="none" stroke="rgb(179,179,179)" stroke-linejoin="round" d="M 15083,2988 L 14933,2988"/>
 <path fill="none" stroke="rgb(179,179,179)" stroke-linejoin="round" d="M 15083,2988 L 14933,2988"/>
 <path fill="none" stroke="rgb(179,179,179)" stroke-linejoin="round" d="M 15083,1154 L 14933,1154"/>
 <path fill="none" stroke="rgb(179,179,179)" stroke-linejoin="round" d="M 15083,1154 L 14933,1154"/>
 <path fill="none" stroke="rgb(179,179,179)" stroke-linejoin="round" d="M 14933,10326 L 14933,1154"/>
 <path fill="none" stroke="rgb(153,153,153)" stroke-width="80" stroke-linejoin="round" d="M 940,10129 L 1939,10115 2939,10098 3938,10022 4938,9814 5937,9617 6937,9424 7937,8950 8935,8751 9935,7932 10934,6354 11934,4584 12933,4055 13933,3619 14933,1751"/>
 <path fill="none" stroke="rgb(0,0,0)" stroke-width="80" stroke-linejoin="round" d="M 940,6580 L 1939,6493 2939,6295 3938,6020 4938,5745 5937,5467 6937,5247 7937,5093 8935,5096 9935,4948 10934,4788 11934,4571 12933,4162 13933,3935 14933,3741"/>
 <text class="TextShape"><tspan class="TextParagraph" font-family="Liberation Sans" font-size="353px" font-weight="400"><tspan class="TextPosition" x="569" y="10894"><tspan fill="rgb(0,0,0)" stroke="none">2001</tspan></tspan></tspan></text>
 <text class="TextShape"><tspan class="TextParagraph" font-family="Liberation Sans" font-size="353px" font-weight="400"><tspan class="TextPosition" x="1568" y="10894"><tspan fill="rgb(0,0,0)" stroke="none">2002</tspan></tspan></tspan></text>
 <text class="TextShape"><tspan class="TextParagraph" font-family="Liberation Sans" font-size="353px" font-weight="400"><tspan class="TextPosition" x="2568" y="10894"><tspan fill="rgb(0,0,0)" stroke="none">2003</tspan></tspan></tspan></text>
 <text class="TextShape"><tspan class="TextParagraph" font-family="Liberation Sans" font-size="353px" font-weight="400"><tspan class="TextPosition" x="3567" y="10894"><tspan fill="rgb(0,0,0)" stroke="none">2004</tspan></tspan></tspan></text>
 <text class="TextShape"><tspan class="TextParagraph" font-family="Liberation Sans" font-size="353px" font-weight="400"><tspan class="TextPosition" x="4567" y="10894"><tspan fill="rgb(0,0,0)" stroke="none">2005</tspan></tspan></tspan></text>
 <text class="TextShape"><tspan class="TextParagraph" font-family="Liberation Sans" font-size="353px" font-weight="400"><tspan class="TextPosition" x="5566" y="10894"><tspan fill="rgb(0,0,0)" stroke="none">2006</tspan></tspan></tspan></text>
 <text class="TextShape"><tspan class="TextParagraph" font-family="Liberation Sans" font-size="353px" font-weight="400"><tspan class="TextPosition" x="6566" y="10894"><tspan fill="rgb(0,0,0)" stroke="none">2007</tspan></tspan></tspan></text>
 <text class="TextShape"><tspan class="TextParagraph" font-family="Liberation Sans" font-size="353px" font-weight="400"><tspan class="TextPosition" x="7566" y="10894"><tspan fill="rgb(0,0,0)" stroke="none">2008</tspan></tspan></tspan></text>
 <text class="TextShape"><tspan class="TextParagraph" font-family="Liberation Sans" font-size="353px" font-weight="400"><tspan class="TextPosition" x="8565" y="10894"><tspan fill="rgb(0,0,0)" stroke="none">2009</tspan></tspan></tspan></text>
 <text class="TextShape"><tspan class="TextParagraph" font-family="Liberation Sans" font-size="353px" font-weight="400"><tspan class="TextPosition" x="9565" y="10894"><tspan fill="rgb(0,0,0)" stroke="none">2010</tspan></tspan></tspan></text>
 <text class="TextShape"><tspan class="TextParagraph" font-family="Liberation Sans" font-size="353px" font-weight="400"><tspan class="TextPosition" x="10564" y="10894"><tspan fill="rgb(0,0,0)" stroke="none">2011</tspan></tspan></tspan></text>
 <text class="TextShape"><tspan class="TextParagraph" font-family="Liberation Sans" font-size="353px" font-weight="400"><tspan class="TextPosition" x="11564" y="10894"><tspan fill="rgb(0,0,0)" stroke="none">2012</tspan></tspan></tspan></text>
 <text class="TextShape"><tspan class="TextParagraph" font-family="Liberation Sans" font-size="353px" font-weight="400"><tspan class="TextPosition" x="12563" y="10894"><tspan fill="rgb(0,0,0)" stroke="none">2013</tspan></tspan></tspan></text>
 <text class="TextShape"><tspan class="TextParagraph" font-family="Liberation Sans" font-size="353px" font-weight="400"><tspan class="TextPosition" x="13563" y="10894"><tspan fill="rgb(0,0,0)" stroke="none">2014</tspan></tspan></tspan></text>
 <text class="TextShape"><tspan class="TextParagraph" font-family="Liberation Sans" font-size="353px" font-weight="400"><tspan class="TextPosition" x="14563" y="10894"><tspan fill="rgb(0,0,0)" stroke="none">2015</tspan></tspan></tspan></text>
 <text class="TextShape"><tspan class="TextParagraph" font-family="Liberation Sans" font-size="353px" font-weight="400"><tspan class="TextPosition" x="505" y="10447"><tspan fill="rgb(0,0,0)" stroke="none">0</tspan></tspan></tspan></text>
 <text class="TextShape"><tspan class="TextParagraph" font-family="Liberation Sans" font-size="353px" font-weight="400"><tspan class="TextPosition" x="320" y="8612"><tspan fill="rgb(0,0,0)" stroke="none">50</tspan></tspan></tspan></text>
 <text class="TextShape"><tspan class="TextParagraph" font-family="Liberation Sans" font-size="353px" font-weight="400"><tspan class="TextPosition" x="134" y="6777"><tspan fill="rgb(0,0,0)" stroke="none">100</tspan></tspan></tspan></text>
 <text class="TextShape"><tspan class="TextParagraph" font-family="Liberation Sans" font-size="353px" font-weight="400"><tspan class="TextPosition" x="134" y="4943"><tspan fill="rgb(0,0,0)" stroke="none">150</tspan></tspan></tspan></text>
 <text class="TextShape"><tspan class="TextParagraph" font-family="Liberation Sans" font-size="353px" font-weight="400"><tspan class="TextPosition" x="134" y="3108"><tspan fill="rgb(0,0,0)" stroke="none">200</tspan></tspan></tspan></text>
 <text class="TextShape"><tspan class="TextParagraph" font-family="Liberation Sans" font-size="353px" font-weight="400"><tspan class="TextPosition" x="134" y="1274"><tspan fill="rgb(0,0,0)" stroke="none">250</tspan></tspan></tspan></text>
 <text class="TextShape"><tspan class="TextParagraph" font-family="Liberation Sans" font-size="353px" font-weight="400"><tspan class="TextPosition" x="15183" y="10447"><tspan fill="rgb(0,0,0)" stroke="none">0</tspan></tspan></tspan></text>
 <text class="TextShape"><tspan class="TextParagraph" font-family="Liberation Sans" font-size="353px" font-weight="400"><tspan class="TextPosition" x="15183" y="8612"><tspan fill="rgb(0,0,0)" stroke="none">5</tspan></tspan></tspan></text>
 <text class="TextShape"><tspan class="TextParagraph" font-family="Liberation Sans" font-size="353px" font-weight="400"><tspan class="TextPosition" x="15183" y="6777"><tspan fill="rgb(0,0,0)" stroke="none">10</tspan></tspan></tspan></text>
 <text class="TextShape"><tspan class="TextParagraph" font-family="Liberation Sans" font-size="353px" font-weight="400"><tspan class="TextPosition" x="15183" y="4943"><tspan fill="rgb(0,0,0)" stroke="none">15</tspan></tspan></tspan></text>
 <text class="TextShape"><tspan class="TextParagraph" font-family="Liberation Sans" font-size="353px" font-weight="400"><tspan class="TextPosition" x="15183" y="3108"><tspan fill="rgb(0,0,0)" stroke="none">20</tspan></tspan></tspan></text>
 <text class="TextShape"><tspan class="TextParagraph" font-family="Liberation Sans" font-size="353px" font-weight="400"><tspan class="TextPosition" x="15183" y="1274"><tspan fill="rgb(0,0,0)" stroke="none">25</tspan></tspan></tspan></text>
 <text class="TextShape"><tspan class="TextParagraph" font-family="Liberation Sans" font-size="459px" font-weight="400"><tspan class="TextPosition" x="4281" y="709"><tspan fill="rgb(0,0,0)" stroke="none">Ingresos anuales empresas y PIB USA</tspan></tspan></tspan></text>
 <path fill="none" stroke="rgb(153,153,153)" stroke-width="80" stroke-linejoin="round" d="M 6188,11515 L 6988,11515"/>
 <path fill="none" stroke="rgb(0,0,0)" stroke-width="80" stroke-linejoin="round" d="M 8194,11515 L 8994,11515"/>
 <text class="TextShape"><tspan class="TextParagraph" font-family="Liberation Sans" font-size="353px" font-weight="400"><tspan class="TextPosition" x="7088" y="11635"><tspan fill="rgb(0,0,0)" stroke="none">Apple</tspan></tspan></tspan></text>
 <text class="TextShape"><tspan class="TextParagraph" font-family="Liberation Sans" font-size="353px" font-weight="400"><tspan class="TextPosition" x="9094" y="11635"><tspan fill="rgb(0,0,0)" stroke="none">USA</tspan></tspan></tspan></text>
 <text class="TextShape"><tspan class="TextParagraph" font-family="Liberation Sans" font-size="318px" font-weight="400"><tspan class="TextPosition" x="67" y="695"><tspan fill="rgb(0,0,0)" stroke="none">miles de millones $</tspan></tspan></tspan></text>
 <text class="TextShape"><tspan class="TextParagraph" font-family="Liberation Sans" font-size="318px" font-weight="400"><tspan class="TextPosition" x="14310" y="729"><tspan fill="rgb(0,0,0)" stroke="none">billones $</tspan></tspan></tspan></text>
</svg>
