<?xml version="1.0" encoding="UTF-8"?>
<!DOCTYPE svg PUBLIC "-//W3C//DTD SVG 1.1//EN" "http://www.w3.org/Graphics/SVG/1.1/DTD/svg11.dtd">
<svg width="160mm" height="120mm" viewBox="0 0 16000 12000" version="1.1" xmlns="http://www.w3.org/2000/svg" stroke-width="28.222" stroke-linejoin="round" xml:space="preserve">
 <path fill="rgb(255,255,255)" stroke="none" d="M 8000,12000 L 0,12000 0,0 16000,0 16000,12000 8000,12000 Z"/>
 <path fill="none" stroke="rgb(0,0,0)" stroke-linejoin="round" d="M 7937,10327 L 940,10327 940,1155 14933,1155 14933,10327 7937,10327 Z"/>
 <path fill="none" stroke="rgb(0,0,0)" stroke-linejoin="round" d="M 14933,10326 L 940,10326"/>
 <path fill="none" stroke="rgb(0,0,0)" stroke-linejoin="round" d="M 14933,9179 L 940,9179"/>
 <path fill="none" stroke="rgb(0,0,0)" stroke-linejoin="round" d="M 14933,8032 L 940,8032"/>
 <path fill="none" stroke="rgb(0,0,0)" stroke-linejoin="round" d="M 14933,6886 L 940,6886"/>
 <path fill="none" stroke="rgb(0,0,0)" stroke-linejoin="round" d="M 14933,5740 L 940,5740"/>
 <path fill="none" stroke="rgb(0,0,0)" stroke-linejoin="round" d="M 14933,4593 L 940,4593"/>
 <path fill="none" stroke="rgb(0,0,0)" stroke-linejoin="round" d="M 14933,3447 L 940,3447"/>
 <path fill="none" stroke="rgb(0,0,0)" stroke-linejoin="round" d="M 14933,2300 L 940,2300"/>
 <path fill="none" stroke="rgb(0,0,0)" stroke-linejoin="round" d="M 14933,1154 L 940,1154"/>
 <path fill="none" stroke="rgb(0,0,0)" stroke-linejoin="round" d="M 940,10476 L 940,10326"/>
 <path fill="none" stroke="rgb(0,0,0)" stroke-linejoin="round" d="M 940,10476 L 940,10326"/>
 <path fill="none" stroke="rgb(0,0,0)" stroke-linejoin="round" d="M 1939,10476 L 1939,10326"/>
 <path fill="none" stroke="rgb(0,0,0)" stroke-linejoin="round" d="M 1939,10476 L 1939,10326"/>
 <path fill="none" stroke="rgb(0,0,0)" stroke-linejoin="round" d="M 2939,10476 L 2939,10326"/>
 <path fill="none" stroke="rgb(0,0,0)" stroke-linejoin="round" d="M 2939,10476 L 2939,10326"/>
 <path fill="none" stroke="rgb(0,0,0)" stroke-linejoin="round" d="M 3938,10476 L 3938,10326"/>
 <path fill="none" stroke="rgb(0,0,0)" stroke-linejoin="round" d="M 3938,10476 L 3938,10326"/>
 <path fill="none" stroke="rgb(0,0,0)" stroke-linejoin="round" d="M 4938,10476 L 4938,10326"/>
 <path fill="none" stroke="rgb(0,0,0)" stroke-linejoin="round" d="M 4938,10476 L 4938,10326"/>
 <path fill="none" stroke="rgb(0,0,0)" stroke-linejoin="round" d="M 5937,10476 L 5937,10326"/>
 <path fill="none" stroke="rgb(0,0,0)" stroke-linejoin="round" d="M 5937,10476 L 5937,10326"/>
 <path fill="none" stroke="rgb(0,0,0)" stroke-linejoin="round" d="M 6937,10476 L 6937,10326"/>
 <path fill="none" stroke="rgb(0,0,0)" stroke-linejoin="round" d="M 6937,10476 L 6937,10326"/>
 <path fill="none" stroke="rgb(0,0,0)" stroke-linejoin="round" d="M 7937,10476 L 7937,10326"/>
 <path fill="none" stroke="rgb(0,0,0)" stroke-linejoin="round" d="M 7937,10476 L 7937,10326"/>
 <path fill="none" stroke="rgb(0,0,0)" stroke-linejoin="round" d="M 8935,10476 L 8935,10326"/>
 <path fill="none" stroke="rgb(0,0,0)" stroke-linejoin="round" d="M 8935,10476 L 8935,10326"/>
 <path fill="none" stroke="rgb(0,0,0)" stroke-linejoin="round" d="M 9935,10476 L 9935,10326"/>
 <path fill="none" stroke="rgb(0,0,0)" stroke-linejoin="round" d="M 9935,10476 L 9935,10326"/>
 <path fill="none" stroke="rgb(0,0,0)" stroke-linejoin="round" d="M 10934,10476 L 10934,10326"/>
 <path fill="none" stroke="rgb(0,0,0)" stroke-linejoin="round" d="M 10934,10476 L 10934,10326"/>
 <path fill="none" stroke="rgb(0,0,0)" stroke-linejoin="round" d="M 11934,10476 L 11934,10326"/>
 <path fill="none" stroke="rgb(0,0,0)" stroke-linejoin="round" d="M 11934,10476 L 11934,10326"/>
 <path fill="none" stroke="rgb(0,0,0)" stroke-linejoin="round" d="M 12933,10476 L 12933,10326"/>
 <path fill="none" stroke="rgb(0,0,0)" stroke-linejoin="round" d="M 12933,10476 L 12933,10326"/>
 <path fill="none" stroke="rgb(0,0,0)" stroke-linejoin="round" d="M 13933,10476 L 13933,10326"/>
 <path fill="none" stroke="rgb(0,0,0)" stroke-linejoin="round" d="M 13933,10476 L 13933,10326"/>
 <path fill="none" stroke="rgb(0,0,0)" stroke-linejoin="round" d="M 14933,10476 L 14933,10326"/>
 <path fill="none" stroke="rgb(0,0,0)" stroke-linejoin="round" d="M 14933,10476 L 14933,10326"/>
 <path fill="none" stroke="rgb(0,0,0)" stroke-linejoin="round" d="M 940,10326 L 14933,10326"/>
 <path fill="none" stroke="rgb(0,0,0)" stroke-linejoin="round" d="M 790,10326 L 940,10326"/>
 <path fill="none" stroke="rgb(0,0,0)" stroke-linejoin="round" d="M 790,10326 L 940,10326"/>
 <path fill="none" stroke="rgb(0,0,0)" stroke-linejoin="round" d="M 790,9179 L 940,9179"/>
 <path fill="none" stroke="rgb(0,0,0)" stroke-linejoin="round" d="M 790,9179 L 940,9179"/>
 <path fill="none" stroke="rgb(0,0,0)" stroke-linejoin="round" d="M 790,8032 L 940,8032"/>
 <path fill="none" stroke="rgb(0,0,0)" stroke-linejoin="round" d="M 790,8032 L 940,8032"/>
 <path fill="none" stroke="rgb(0,0,0)" stroke-linejoin="round" d="M 790,6886 L 940,6886"/>
 <path fill="none" stroke="rgb(0,0,0)" stroke-linejoin="round" d="M 790,6886 L 940,6886"/>
 <path fill="none" stroke="rgb(0,0,0)" stroke-linejoin="round" d="M 790,5740 L 940,5740"/>
 <path fill="none" stroke="rgb(0,0,0)" stroke-linejoin="round" d="M 790,5740 L 940,5740"/>
 <path fill="none" stroke="rgb(0,0,0)" stroke-linejoin="round" d="M 790,4593 L 940,4593"/>
 <path fill="none" stroke="rgb(0,0,0)" stroke-linejoin="round" d="M 790,4593 L 940,4593"/>
 <path fill="none" stroke="rgb(0,0,0)" stroke-linejoin="round" d="M 790,3447 L 940,3447"/>
 <path fill="none" stroke="rgb(0,0,0)" stroke-linejoin="round" d="M 790,3447 L 940,3447"/>
 <path fill="none" stroke="rgb(0,0,0)" stroke-linejoin="round" d="M 790,2300 L 940,2300"/>
 <path fill="none" stroke="rgb(0,0,0)" stroke-linejoin="round" d="M 790,2300 L 940,2300"/>
 <path fill="none" stroke="rgb(0,0,0)" stroke-linejoin="round" d="M 790,1154 L 940,1154"/>
 <path fill="none" stroke="rgb(0,0,0)" stroke-linejoin="round" d="M 790,1154 L 940,1154"/>
 <path fill="none" stroke="rgb(0,0,0)" stroke-linejoin="round" d="M 940,10326 L 940,1154"/>
 <path fill="none" stroke="rgb(179,179,179)" stroke-linejoin="round" d="M 15083,10326 L 14933,10326"/>
 <path fill="none" stroke="rgb(179,179,179)" stroke-linejoin="round" d="M 15083,10326 L 14933,10326"/>
 <path fill="none" stroke="rgb(179,179,179)" stroke-linejoin="round" d="M 15083,8032 L 14933,8032"/>
 <path fill="none" stroke="rgb(179,179,179)" stroke-linejoin="round" d="M 15083,8032 L 14933,8032"/>
 <path fill="none" stroke="rgb(179,179,179)" stroke-linejoin="round" d="M 15083,5740 L 14933,5740"/>
 <path fill="none" stroke="rgb(179,179,179)" stroke-linejoin="round" d="M 15083,5740 L 14933,5740"/>
 <path fill="none" stroke="rgb(179,179,179)" stroke-linejoin="round" d="M 15083,3447 L 14933,3447"/>
 <path fill="none" stroke="rgb(179,179,179)" stroke-linejoin="round" d="M 15083,3447 L 14933,3447"/>
 <path fill="none" stroke="rgb(179,179,179)" stroke-linejoin="round" d="M 15083,1154 L 14933,1154"/>
 <path fill="none" stroke="rgb(179,179,179)" stroke-linejoin="round" d="M 15083,1154 L 14933,1154"/>
 <path fill="none" stroke="rgb(179,179,179)" stroke-linejoin="round" d="M 14933,10326 L 14933,1154"/>
 <path fill="none" stroke="rgb(174,207,0)" stroke-width="80" stroke-linejoin="round" d="M 940,10316 L 1939,10275 2939,10157 3938,9960 4938,9622 5937,9110 6937,8423 7937,7826 8935,7614 9935,6963 10934,5980 11934,5048 12933,3961 13933,2759 14933,1728"/>
 <path fill="none" stroke="rgb(0,0,0)" stroke-width="80" stroke-linejoin="round" d="M 940,6424 L 1939,6333 2939,6127 3938,5842 4938,5554 5937,5264 6937,5035 7937,4874 8935,4878 9935,4724 10934,4557 11934,4332 12933,3906 13933,3669 14933,3467"/>
 <text class="TextShape"><tspan class="TextParagraph" font-family="Liberation Sans" font-size="353px" font-weight="400"><tspan class="TextPosition" x="569" y="10894"><tspan fill="rgb(0,0,0)" stroke="none">2001</tspan></tspan></tspan></text>
 <text class="TextShape"><tspan class="TextParagraph" font-family="Liberation Sans" font-size="353px" font-weight="400"><tspan class="TextPosition" x="1568" y="10894"><tspan fill="rgb(0,0,0)" stroke="none">2002</tspan></tspan></tspan></text>
 <text class="TextShape"><tspan class="TextParagraph" font-family="Liberation Sans" font-size="353px" font-weight="400"><tspan class="TextPosition" x="2568" y="10894"><tspan fill="rgb(0,0,0)" stroke="none">2003</tspan></tspan></tspan></text>
 <text class="TextShape"><tspan class="TextParagraph" font-family="Liberation Sans" font-size="353px" font-weight="400"><tspan class="TextPosition" x="3567" y="10894"><tspan fill="rgb(0,0,0)" stroke="none">2004</tspan></tspan></tspan></text>
 <text class="TextShape"><tspan class="TextParagraph" font-family="Liberation Sans" font-size="353px" font-weight="400"><tspan class="TextPosition" x="4567" y="10894"><tspan fill="rgb(0,0,0)" stroke="none">2005</tspan></tspan></tspan></text>
 <text class="TextShape"><tspan class="TextParagraph" font-family="Liberation Sans" font-size="353px" font-weight="400"><tspan class="TextPosition" x="5566" y="10894"><tspan fill="rgb(0,0,0)" stroke="none">2006</tspan></tspan></tspan></text>
 <text class="TextShape"><tspan class="TextParagraph" font-family="Liberation Sans" font-size="353px" font-weight="400"><tspan class="TextPosition" x="6566" y="10894"><tspan fill="rgb(0,0,0)" stroke="none">2007</tspan></tspan></tspan></text>
 <text class="TextShape"><tspan class="TextParagraph" font-family="Liberation Sans" font-size="353px" font-weight="400"><tspan class="TextPosition" x="7566" y="10894"><tspan fill="rgb(0,0,0)" stroke="none">2008</tspan></tspan></tspan></text>
 <text class="TextShape"><tspan class="TextParagraph" font-family="Liberation Sans" font-size="353px" font-weight="400"><tspan class="TextPosition" x="8565" y="10894"><tspan fill="rgb(0,0,0)" stroke="none">2009</tspan></tspan></tspan></text>
 <text class="TextShape"><tspan class="TextParagraph" font-family="Liberation Sans" font-size="353px" font-weight="400"><tspan class="TextPosition" x="9565" y="10894"><tspan fill="rgb(0,0,0)" stroke="none">2010</tspan></tspan></tspan></text>
 <text class="TextShape"><tspan class="TextParagraph" font-family="Liberation Sans" font-size="353px" font-weight="400"><tspan class="TextPosition" x="10564" y="10894"><tspan fill="rgb(0,0,0)" stroke="none">2011</tspan></tspan></tspan></text>
 <text class="TextShape"><tspan class="TextParagraph" font-family="Liberation Sans" font-size="353px" font-weight="400"><tspan class="TextPosition" x="11564" y="10894"><tspan fill="rgb(0,0,0)" stroke="none">2012</tspan></tspan></tspan></text>
 <text class="TextShape"><tspan class="TextParagraph" font-family="Liberation Sans" font-size="353px" font-weight="400"><tspan class="TextPosition" x="12563" y="10894"><tspan fill="rgb(0,0,0)" stroke="none">2013</tspan></tspan></tspan></text>
 <text class="TextShape"><tspan class="TextParagraph" font-family="Liberation Sans" font-size="353px" font-weight="400"><tspan class="TextPosition" x="13563" y="10894"><tspan fill="rgb(0,0,0)" stroke="none">2014</tspan></tspan></tspan></text>
 <text class="TextShape"><tspan class="TextParagraph" font-family="Liberation Sans" font-size="353px" font-weight="400"><tspan class="TextPosition" x="14563" y="10894"><tspan fill="rgb(0,0,0)" stroke="none">2015</tspan></tspan></tspan></text>
 <text class="TextShape"><tspan class="TextParagraph" font-family="Liberation Sans" font-size="353px" font-weight="400"><tspan class="TextPosition" x="505" y="10447"><tspan fill="rgb(0,0,0)" stroke="none">0</tspan></tspan></tspan></text>
 <text class="TextShape"><tspan class="TextParagraph" font-family="Liberation Sans" font-size="353px" font-weight="400"><tspan class="TextPosition" x="320" y="9300"><tspan fill="rgb(0,0,0)" stroke="none">10</tspan></tspan></tspan></text>
 <text class="TextShape"><tspan class="TextParagraph" font-family="Liberation Sans" font-size="353px" font-weight="400"><tspan class="TextPosition" x="320" y="8153"><tspan fill="rgb(0,0,0)" stroke="none">20</tspan></tspan></tspan></text>
 <text class="TextShape"><tspan class="TextParagraph" font-family="Liberation Sans" font-size="353px" font-weight="400"><tspan class="TextPosition" x="320" y="7007"><tspan fill="rgb(0,0,0)" stroke="none">30</tspan></tspan></tspan></text>
 <text class="TextShape"><tspan class="TextParagraph" font-family="Liberation Sans" font-size="353px" font-weight="400"><tspan class="TextPosition" x="320" y="5860"><tspan fill="rgb(0,0,0)" stroke="none">40</tspan></tspan></tspan></text>
 <text class="TextShape"><tspan class="TextParagraph" font-family="Liberation Sans" font-size="353px" font-weight="400"><tspan class="TextPosition" x="320" y="4713"><tspan fill="rgb(0,0,0)" stroke="none">50</tspan></tspan></tspan></text>
 <text class="TextShape"><tspan class="TextParagraph" font-family="Liberation Sans" font-size="353px" font-weight="400"><tspan class="TextPosition" x="320" y="3567"><tspan fill="rgb(0,0,0)" stroke="none">60</tspan></tspan></tspan></text>
 <text class="TextShape"><tspan class="TextParagraph" font-family="Liberation Sans" font-size="353px" font-weight="400"><tspan class="TextPosition" x="320" y="2420"><tspan fill="rgb(0,0,0)" stroke="none">70</tspan></tspan></tspan></text>
 <text class="TextShape"><tspan class="TextParagraph" font-family="Liberation Sans" font-size="353px" font-weight="400"><tspan class="TextPosition" x="320" y="1274"><tspan fill="rgb(0,0,0)" stroke="none">80</tspan></tspan></tspan></text>
 <text class="TextShape"><tspan class="TextParagraph" font-family="Liberation Sans" font-size="353px" font-weight="400"><tspan class="TextPosition" x="15183" y="10447"><tspan fill="rgb(0,0,0)" stroke="none">0</tspan></tspan></tspan></text>
 <text class="TextShape"><tspan class="TextParagraph" font-family="Liberation Sans" font-size="353px" font-weight="400"><tspan class="TextPosition" x="15183" y="8153"><tspan fill="rgb(0,0,0)" stroke="none">6</tspan></tspan></tspan></text>
 <text class="TextShape"><tspan class="TextParagraph" font-family="Liberation Sans" font-size="353px" font-weight="400"><tspan class="TextPosition" x="15183" y="5860"><tspan fill="rgb(0,0,0)" stroke="none">12</tspan></tspan></tspan></text>
 <text class="TextShape"><tspan class="TextParagraph" font-family="Liberation Sans" font-size="353px" font-weight="400"><tspan class="TextPosition" x="15183" y="3567"><tspan fill="rgb(0,0,0)" stroke="none">18</tspan></tspan></tspan></text>
 <text class="TextShape"><tspan class="TextParagraph" font-family="Liberation Sans" font-size="353px" font-weight="400"><tspan class="TextPosition" x="15183" y="1274"><tspan fill="rgb(0,0,0)" stroke="none">24</tspan></tspan></tspan></text>
 <text class="TextShape"><tspan class="TextParagraph" font-family="Liberation Sans" font-size="459px" font-weight="400"><tspan class="TextPosition" x="4279" y="707"><tspan fill="rgb(0,0,0)" stroke="none">Ingresos anuales empresas y PIB USA</tspan></tspan></tspan></text>
 <path fill="none" stroke="rgb(174,207,0)" stroke-width="80" stroke-linejoin="round" d="M 6082,11515 L 6882,11515"/>
 <path fill="none" stroke="rgb(0,0,0)" stroke-width="80" stroke-linejoin="round" d="M 8300,11515 L 9100,11515"/>
 <text class="TextShape"><tspan class="TextParagraph" font-family="Liberation Sans" font-size="353px" font-weight="400"><tspan class="TextPosition" x="6982" y="11635"><tspan fill="rgb(0,0,0)" stroke="none">Google</tspan></tspan></tspan></text>
 <text class="TextShape"><tspan class="TextParagraph" font-family="Liberation Sans" font-size="353px" font-weight="400"><tspan class="TextPosition" x="9200" y="11635"><tspan fill="rgb(0,0,0)" stroke="none">USA</tspan></tspan></tspan></text>
 <text class="TextShape"><tspan class="TextParagraph" font-family="Liberation Sans" font-size="318px" font-weight="400"><tspan class="TextPosition" x="65" y="695"><tspan fill="rgb(0,0,0)" stroke="none">miles de millones $</tspan></tspan></tspan></text>
 <text class="TextShape"><tspan class="TextParagraph" font-family="Liberation Sans" font-size="318px" font-weight="400"><tspan class="TextPosition" x="14310" y="729"><tspan fill="rgb(0,0,0)" stroke="none">billones $</tspan></tspan></tspan></text>
</svg>
