<?xml version="1.0" encoding="UTF-8"?>
<!DOCTYPE svg PUBLIC "-//W3C//DTD SVG 1.1//EN" "http://www.w3.org/Graphics/SVG/1.1/DTD/svg11.dtd">
<svg width="160mm" height="120mm" viewBox="0 0 16000 12000" version="1.1" xmlns="http://www.w3.org/2000/svg" stroke-width="28.222" stroke-linejoin="round" xml:space="preserve">
 <path fill="rgb(255,255,255)" stroke="none" d="M 8000,12000 L 0,12000 0,0 16000,0 16000,12000 8000,12000 Z"/>
 <path fill="none" stroke="rgb(0,0,0)" stroke-linejoin="round" d="M 7937,10327 L 940,10327 940,1155 14933,1155 14933,10327 7937,10327 Z"/>
 <path fill="none" stroke="rgb(0,0,0)" stroke-linejoin="round" d="M 14933,10326 L 940,10326"/>
 <path fill="none" stroke="rgb(0,0,0)" stroke-linejoin="round" d="M 14933,9408 L 940,9408"/>
 <path fill="none" stroke="rgb(0,0,0)" stroke-linejoin="round" d="M 14933,8491 L 940,8491"/>
 <path fill="none" stroke="rgb(0,0,0)" stroke-linejoin="round" d="M 14933,7574 L 940,7574"/>
 <path fill="none" stroke="rgb(0,0,0)" stroke-linejoin="round" d="M 14933,6656 L 940,6656"/>
 <path fill="none" stroke="rgb(0,0,0)" stroke-linejoin="round" d="M 14933,5740 L 940,5740"/>
 <path fill="none" stroke="rgb(0,0,0)" stroke-linejoin="round" d="M 14933,4823 L 940,4823"/>
 <path fill="none" stroke="rgb(0,0,0)" stroke-linejoin="round" d="M 14933,3905 L 940,3905"/>
 <path fill="none" stroke="rgb(0,0,0)" stroke-linejoin="round" d="M 14933,2988 L 940,2988"/>
 <path fill="none" stroke="rgb(0,0,0)" stroke-linejoin="round" d="M 14933,2071 L 940,2071"/>
 <path fill="none" stroke="rgb(0,0,0)" stroke-linejoin="round" d="M 14933,1154 L 940,1154"/>
 <path fill="none" stroke="rgb(0,0,0)" stroke-linejoin="round" d="M 940,10476 L 940,10326"/>
 <path fill="none" stroke="rgb(0,0,0)" stroke-linejoin="round" d="M 940,10476 L 940,10326"/>
 <path fill="none" stroke="rgb(0,0,0)" stroke-linejoin="round" d="M 1939,10476 L 1939,10326"/>
 <path fill="none" stroke="rgb(0,0,0)" stroke-linejoin="round" d="M 1939,10476 L 1939,10326"/>
 <path fill="none" stroke="rgb(0,0,0)" stroke-linejoin="round" d="M 2939,10476 L 2939,10326"/>
 <path fill="none" stroke="rgb(0,0,0)" stroke-linejoin="round" d="M 2939,10476 L 2939,10326"/>
 <path fill="none" stroke="rgb(0,0,0)" stroke-linejoin="round" d="M 3938,10476 L 3938,10326"/>
 <path fill="none" stroke="rgb(0,0,0)" stroke-linejoin="round" d="M 3938,10476 L 3938,10326"/>
 <path fill="none" stroke="rgb(0,0,0)" stroke-linejoin="round" d="M 4938,10476 L 4938,10326"/>
 <path fill="none" stroke="rgb(0,0,0)" stroke-linejoin="round" d="M 4938,10476 L 4938,10326"/>
 <path fill="none" stroke="rgb(0,0,0)" stroke-linejoin="round" d="M 5937,10476 L 5937,10326"/>
 <path fill="none" stroke="rgb(0,0,0)" stroke-linejoin="round" d="M 5937,10476 L 5937,10326"/>
 <path fill="none" stroke="rgb(0,0,0)" stroke-linejoin="round" d="M 6937,10476 L 6937,10326"/>
 <path fill="none" stroke="rgb(0,0,0)" stroke-linejoin="round" d="M 6937,10476 L 6937,10326"/>
 <path fill="none" stroke="rgb(0,0,0)" stroke-linejoin="round" d="M 7937,10476 L 7937,10326"/>
 <path fill="none" stroke="rgb(0,0,0)" stroke-linejoin="round" d="M 7937,10476 L 7937,10326"/>
 <path fill="none" stroke="rgb(0,0,0)" stroke-linejoin="round" d="M 8935,10476 L 8935,10326"/>
 <path fill="none" stroke="rgb(0,0,0)" stroke-linejoin="round" d="M 8935,10476 L 8935,10326"/>
 <path fill="none" stroke="rgb(0,0,0)" stroke-linejoin="round" d="M 9935,10476 L 9935,10326"/>
 <path fill="none" stroke="rgb(0,0,0)" stroke-linejoin="round" d="M 9935,10476 L 9935,10326"/>
 <path fill="none" stroke="rgb(0,0,0)" stroke-linejoin="round" d="M 10934,10476 L 10934,10326"/>
 <path fill="none" stroke="rgb(0,0,0)" stroke-linejoin="round" d="M 10934,10476 L 10934,10326"/>
 <path fill="none" stroke="rgb(0,0,0)" stroke-linejoin="round" d="M 11934,10476 L 11934,10326"/>
 <path fill="none" stroke="rgb(0,0,0)" stroke-linejoin="round" d="M 11934,10476 L 11934,10326"/>
 <path fill="none" stroke="rgb(0,0,0)" stroke-linejoin="round" d="M 12933,10476 L 12933,10326"/>
 <path fill="none" stroke="rgb(0,0,0)" stroke-linejoin="round" d="M 12933,10476 L 12933,10326"/>
 <path fill="none" stroke="rgb(0,0,0)" stroke-linejoin="round" d="M 13933,10476 L 13933,10326"/>
 <path fill="none" stroke="rgb(0,0,0)" stroke-linejoin="round" d="M 13933,10476 L 13933,10326"/>
 <path fill="none" stroke="rgb(0,0,0)" stroke-linejoin="round" d="M 14933,10476 L 14933,10326"/>
 <path fill="none" stroke="rgb(0,0,0)" stroke-linejoin="round" d="M 14933,10476 L 14933,10326"/>
 <path fill="none" stroke="rgb(0,0,0)" stroke-linejoin="round" d="M 940,10326 L 14933,10326"/>
 <path fill="none" stroke="rgb(0,0,0)" stroke-linejoin="round" d="M 790,10326 L 940,10326"/>
 <path fill="none" stroke="rgb(0,0,0)" stroke-linejoin="round" d="M 790,10326 L 940,10326"/>
 <path fill="none" stroke="rgb(0,0,0)" stroke-linejoin="round" d="M 790,9408 L 940,9408"/>
 <path fill="none" stroke="rgb(0,0,0)" stroke-linejoin="round" d="M 790,9408 L 940,9408"/>
 <path fill="none" stroke="rgb(0,0,0)" stroke-linejoin="round" d="M 790,8491 L 940,8491"/>
 <path fill="none" stroke="rgb(0,0,0)" stroke-linejoin="round" d="M 790,8491 L 940,8491"/>
 <path fill="none" stroke="rgb(0,0,0)" stroke-linejoin="round" d="M 790,7574 L 940,7574"/>
 <path fill="none" stroke="rgb(0,0,0)" stroke-linejoin="round" d="M 790,7574 L 940,7574"/>
 <path fill="none" stroke="rgb(0,0,0)" stroke-linejoin="round" d="M 790,6656 L 940,6656"/>
 <path fill="none" stroke="rgb(0,0,0)" stroke-linejoin="round" d="M 790,6656 L 940,6656"/>
 <path fill="none" stroke="rgb(0,0,0)" stroke-linejoin="round" d="M 790,5740 L 940,5740"/>
 <path fill="none" stroke="rgb(0,0,0)" stroke-linejoin="round" d="M 790,5740 L 940,5740"/>
 <path fill="none" stroke="rgb(0,0,0)" stroke-linejoin="round" d="M 790,4823 L 940,4823"/>
 <path fill="none" stroke="rgb(0,0,0)" stroke-linejoin="round" d="M 790,4823 L 940,4823"/>
 <path fill="none" stroke="rgb(0,0,0)" stroke-linejoin="round" d="M 790,3905 L 940,3905"/>
 <path fill="none" stroke="rgb(0,0,0)" stroke-linejoin="round" d="M 790,3905 L 940,3905"/>
 <path fill="none" stroke="rgb(0,0,0)" stroke-linejoin="round" d="M 790,2988 L 940,2988"/>
 <path fill="none" stroke="rgb(0,0,0)" stroke-linejoin="round" d="M 790,2988 L 940,2988"/>
 <path fill="none" stroke="rgb(0,0,0)" stroke-linejoin="round" d="M 790,2071 L 940,2071"/>
 <path fill="none" stroke="rgb(0,0,0)" stroke-linejoin="round" d="M 790,2071 L 940,2071"/>
 <path fill="none" stroke="rgb(0,0,0)" stroke-linejoin="round" d="M 790,1154 L 940,1154"/>
 <path fill="none" stroke="rgb(0,0,0)" stroke-linejoin="round" d="M 790,1154 L 940,1154"/>
 <path fill="none" stroke="rgb(0,0,0)" stroke-linejoin="round" d="M 940,10326 L 940,1154"/>
 <path fill="none" stroke="rgb(179,179,179)" stroke-linejoin="round" d="M 15083,10326 L 14933,10326"/>
 <path fill="none" stroke="rgb(179,179,179)" stroke-linejoin="round" d="M 15083,10326 L 14933,10326"/>
 <path fill="none" stroke="rgb(179,179,179)" stroke-linejoin="round" d="M 15083,8491 L 14933,8491"/>
 <path fill="none" stroke="rgb(179,179,179)" stroke-linejoin="round" d="M 15083,8491 L 14933,8491"/>
 <path fill="none" stroke="rgb(179,179,179)" stroke-linejoin="round" d="M 15083,6656 L 14933,6656"/>
 <path fill="none" stroke="rgb(179,179,179)" stroke-linejoin="round" d="M 15083,6656 L 14933,6656"/>
 <path fill="none" stroke="rgb(179,179,179)" stroke-linejoin="round" d="M 15083,4823 L 14933,4823"/>
 <path fill="none" stroke="rgb(179,179,179)" stroke-linejoin="round" d="M 15083,4823 L 14933,4823"/>
 <path fill="none" stroke="rgb(179,179,179)" stroke-linejoin="round" d="M 15083,2988 L 14933,2988"/>
 <path fill="none" stroke="rgb(179,179,179)" stroke-linejoin="round" d="M 15083,2988 L 14933,2988"/>
 <path fill="none" stroke="rgb(179,179,179)" stroke-linejoin="round" d="M 15083,1154 L 14933,1154"/>
 <path fill="none" stroke="rgb(179,179,179)" stroke-linejoin="round" d="M 15083,1154 L 14933,1154"/>
 <path fill="none" stroke="rgb(179,179,179)" stroke-linejoin="round" d="M 14933,10326 L 14933,1154"/>
 <path fill="none" stroke="rgb(131,202,255)" stroke-width="80" stroke-linejoin="round" d="M 940,7891 L 1939,7870 2939,7561 3938,7188 4938,6764 5937,7080 6937,6809 7937,6878 8935,7103 9935,6324 10934,5373 11934,5434 12933,5492 13933,5202 14933,5249"/>
 <path fill="none" stroke="rgb(0,71,255)" stroke-width="80" stroke-linejoin="round" d="M 940,8005 L 1939,7724 2939,7373 3938,6947 4938,6676 5937,6264 6937,5637 7937,4784 8935,4966 9935,4595 10934,3911 11934,3564 12933,3185 13933,2361 14933,1742"/>
 <path fill="none" stroke="rgb(255,0,0)" stroke-width="80" stroke-linejoin="round" d="M 940,9320 L 1939,9438 2939,9456 3938,9394 4938,9243 5937,9006 6937,8675 7937,8268 8935,8193 9935,7865 10934,7058 11934,6920 12933,6915 13933,6815 14933,6819"/>
 <path fill="none" stroke="rgb(0,0,0)" stroke-width="80" stroke-linejoin="round" d="M 940,6580 L 1939,6493 2939,6295 3938,6020 4938,5745 5937,5467 6937,5247 7937,5093 8935,5096 9935,4948 10934,4788 11934,4571 12933,4162 13933,3935 14933,3741"/>
 <text class="TextShape"><tspan class="TextParagraph" font-family="Liberation Sans, sans-serif" font-size="353px" font-weight="400"><tspan class="TextPosition" x="569" y="10894"><tspan fill="rgb(0,0,0)" stroke="none">2001</tspan></tspan></tspan></text>
 <text class="TextShape"><tspan class="TextParagraph" font-family="Liberation Sans, sans-serif" font-size="353px" font-weight="400"><tspan class="TextPosition" x="1568" y="10894"><tspan fill="rgb(0,0,0)" stroke="none">2002</tspan></tspan></tspan></text>
 <text class="TextShape"><tspan class="TextParagraph" font-family="Liberation Sans, sans-serif" font-size="353px" font-weight="400"><tspan class="TextPosition" x="2568" y="10894"><tspan fill="rgb(0,0,0)" stroke="none">2003</tspan></tspan></tspan></text>
 <text class="TextShape"><tspan class="TextParagraph" font-family="Liberation Sans, sans-serif" font-size="353px" font-weight="400"><tspan class="TextPosition" x="3567" y="10894"><tspan fill="rgb(0,0,0)" stroke="none">2004</tspan></tspan></tspan></text>
 <text class="TextShape"><tspan class="TextParagraph" font-family="Liberation Sans, sans-serif" font-size="353px" font-weight="400"><tspan class="TextPosition" x="4567" y="10894"><tspan fill="rgb(0,0,0)" stroke="none">2005</tspan></tspan></tspan></text>
 <text class="TextShape"><tspan class="TextParagraph" font-family="Liberation Sans, sans-serif" font-size="353px" font-weight="400"><tspan class="TextPosition" x="5566" y="10894"><tspan fill="rgb(0,0,0)" stroke="none">2006</tspan></tspan></tspan></text>
 <text class="TextShape"><tspan class="TextParagraph" font-family="Liberation Sans, sans-serif" font-size="353px" font-weight="400"><tspan class="TextPosition" x="6566" y="10894"><tspan fill="rgb(0,0,0)" stroke="none">2007</tspan></tspan></tspan></text>
 <text class="TextShape"><tspan class="TextParagraph" font-family="Liberation Sans, sans-serif" font-size="353px" font-weight="400"><tspan class="TextPosition" x="7566" y="10894"><tspan fill="rgb(0,0,0)" stroke="none">2008</tspan></tspan></tspan></text>
 <text class="TextShape"><tspan class="TextParagraph" font-family="Liberation Sans, sans-serif" font-size="353px" font-weight="400"><tspan class="TextPosition" x="8565" y="10894"><tspan fill="rgb(0,0,0)" stroke="none">2009</tspan></tspan></tspan></text>
 <text class="TextShape"><tspan class="TextParagraph" font-family="Liberation Sans, sans-serif" font-size="353px" font-weight="400"><tspan class="TextPosition" x="9565" y="10894"><tspan fill="rgb(0,0,0)" stroke="none">2010</tspan></tspan></tspan></text>
 <text class="TextShape"><tspan class="TextParagraph" font-family="Liberation Sans, sans-serif" font-size="353px" font-weight="400"><tspan class="TextPosition" x="10564" y="10894"><tspan fill="rgb(0,0,0)" stroke="none">2011</tspan></tspan></tspan></text>
 <text class="TextShape"><tspan class="TextParagraph" font-family="Liberation Sans, sans-serif" font-size="353px" font-weight="400"><tspan class="TextPosition" x="11564" y="10894"><tspan fill="rgb(0,0,0)" stroke="none">2012</tspan></tspan></tspan></text>
 <text class="TextShape"><tspan class="TextParagraph" font-family="Liberation Sans, sans-serif" font-size="353px" font-weight="400"><tspan class="TextPosition" x="12563" y="10894"><tspan fill="rgb(0,0,0)" stroke="none">2013</tspan></tspan></tspan></text>
 <text class="TextShape"><tspan class="TextParagraph" font-family="Liberation Sans, sans-serif" font-size="353px" font-weight="400"><tspan class="TextPosition" x="13563" y="10894"><tspan fill="rgb(0,0,0)" stroke="none">2014</tspan></tspan></tspan></text>
 <text class="TextShape"><tspan class="TextParagraph" font-family="Liberation Sans, sans-serif" font-size="353px" font-weight="400"><tspan class="TextPosition" x="14563" y="10894"><tspan fill="rgb(0,0,0)" stroke="none">2015</tspan></tspan></tspan></text>
 <text class="TextShape"><tspan class="TextParagraph" font-family="Liberation Sans, sans-serif" font-size="353px" font-weight="400"><tspan class="TextPosition" x="505" y="10447"><tspan fill="rgb(0,0,0)" stroke="none">0</tspan></tspan></tspan></text>
 <text class="TextShape"><tspan class="TextParagraph" font-family="Liberation Sans, sans-serif" font-size="353px" font-weight="400"><tspan class="TextPosition" x="320" y="9529"><tspan fill="rgb(0,0,0)" stroke="none">10</tspan></tspan></tspan></text>
 <text class="TextShape"><tspan class="TextParagraph" font-family="Liberation Sans, sans-serif" font-size="353px" font-weight="400"><tspan class="TextPosition" x="320" y="8612"><tspan fill="rgb(0,0,0)" stroke="none">20</tspan></tspan></tspan></text>
 <text class="TextShape"><tspan class="TextParagraph" font-family="Liberation Sans, sans-serif" font-size="353px" font-weight="400"><tspan class="TextPosition" x="320" y="7695"><tspan fill="rgb(0,0,0)" stroke="none">30</tspan></tspan></tspan></text>
 <text class="TextShape"><tspan class="TextParagraph" font-family="Liberation Sans, sans-serif" font-size="353px" font-weight="400"><tspan class="TextPosition" x="320" y="6777"><tspan fill="rgb(0,0,0)" stroke="none">40</tspan></tspan></tspan></text>
 <text class="TextShape"><tspan class="TextParagraph" font-family="Liberation Sans, sans-serif" font-size="353px" font-weight="400"><tspan class="TextPosition" x="320" y="5860"><tspan fill="rgb(0,0,0)" stroke="none">50</tspan></tspan></tspan></text>
 <text class="TextShape"><tspan class="TextParagraph" font-family="Liberation Sans, sans-serif" font-size="353px" font-weight="400"><tspan class="TextPosition" x="320" y="4943"><tspan fill="rgb(0,0,0)" stroke="none">60</tspan></tspan></tspan></text>
 <text class="TextShape"><tspan class="TextParagraph" font-family="Liberation Sans, sans-serif" font-size="353px" font-weight="400"><tspan class="TextPosition" x="320" y="4025"><tspan fill="rgb(0,0,0)" stroke="none">70</tspan></tspan></tspan></text>
 <text class="TextShape"><tspan class="TextParagraph" font-family="Liberation Sans, sans-serif" font-size="353px" font-weight="400"><tspan class="TextPosition" x="320" y="3108"><tspan fill="rgb(0,0,0)" stroke="none">80</tspan></tspan></tspan></text>
 <text class="TextShape"><tspan class="TextParagraph" font-family="Liberation Sans, sans-serif" font-size="353px" font-weight="400"><tspan class="TextPosition" x="320" y="2191"><tspan fill="rgb(0,0,0)" stroke="none">90</tspan></tspan></tspan></text>
 <text class="TextShape"><tspan class="TextParagraph" font-family="Liberation Sans, sans-serif" font-size="353px" font-weight="400"><tspan class="TextPosition" x="134" y="1274"><tspan fill="rgb(0,0,0)" stroke="none">100</tspan></tspan></tspan></text>
 <text class="TextShape"><tspan class="TextParagraph" font-family="Liberation Sans, sans-serif" font-size="353px" font-weight="400"><tspan class="TextPosition" x="15183" y="10447"><tspan fill="rgb(0,0,0)" stroke="none">0</tspan></tspan></tspan></text>
 <text class="TextShape"><tspan class="TextParagraph" font-family="Liberation Sans, sans-serif" font-size="353px" font-weight="400"><tspan class="TextPosition" x="15183" y="8612"><tspan fill="rgb(0,0,0)" stroke="none">5</tspan></tspan></tspan></text>
 <text class="TextShape"><tspan class="TextParagraph" font-family="Liberation Sans, sans-serif" font-size="353px" font-weight="400"><tspan class="TextPosition" x="15183" y="6777"><tspan fill="rgb(0,0,0)" stroke="none">10</tspan></tspan></tspan></text>
 <text class="TextShape"><tspan class="TextParagraph" font-family="Liberation Sans, sans-serif" font-size="353px" font-weight="400"><tspan class="TextPosition" x="15183" y="4943"><tspan fill="rgb(0,0,0)" stroke="none">15</tspan></tspan></tspan></text>
 <text class="TextShape"><tspan class="TextParagraph" font-family="Liberation Sans, sans-serif" font-size="353px" font-weight="400"><tspan class="TextPosition" x="15183" y="3108"><tspan fill="rgb(0,0,0)" stroke="none">20</tspan></tspan></tspan></text>
 <text class="TextShape"><tspan class="TextParagraph" font-family="Liberation Sans, sans-serif" font-size="353px" font-weight="400"><tspan class="TextPosition" x="15183" y="1274"><tspan fill="rgb(0,0,0)" stroke="none">25</tspan></tspan></tspan></text>
 <text class="TextShape"><tspan class="TextParagraph" font-family="Liberation Sans, sans-serif" font-size="459px" font-weight="400"><tspan class="TextPosition" x="4277" y="705"><tspan fill="rgb(0,0,0)" stroke="none">Ingresos anuales empresas y PIB USA</tspan></tspan></tspan></text>
 <path fill="none" stroke="rgb(131,202,255)" stroke-width="80" stroke-linejoin="round" d="M 3970,11515 L 4770,11515"/>
 <path fill="none" stroke="rgb(0,71,255)" stroke-width="80" stroke-linejoin="round" d="M 5739,11515 L 6539,11515"/>
 <path fill="none" stroke="rgb(255,0,0)" stroke-width="80" stroke-linejoin="round" d="M 8274,11515 L 9074,11515"/>
 <path fill="none" stroke="rgb(0,0,0)" stroke-width="80" stroke-linejoin="round" d="M 10413,11515 L 11213,11515"/>
 <text class="TextShape"><tspan class="TextParagraph" font-family="Liberation Sans, sans-serif" font-size="353px" font-weight="400"><tspan class="TextPosition" x="4870" y="11635"><tspan fill="rgb(0,0,0)" stroke="none">Intel</tspan></tspan></tspan></text>
 <text class="TextShape"><tspan class="TextParagraph" font-family="Liberation Sans, sans-serif" font-size="353px" font-weight="400"><tspan class="TextPosition" x="6639" y="11635"><tspan fill="rgb(0,0,0)" stroke="none">Microsoft</tspan></tspan></tspan></text>
 <text class="TextShape"><tspan class="TextParagraph" font-family="Liberation Sans, sans-serif" font-size="353px" font-weight="400"><tspan class="TextPosition" x="9174" y="11635"><tspan fill="rgb(0,0,0)" stroke="none">Oracle</tspan></tspan></tspan></text>
 <text class="TextShape"><tspan class="TextParagraph" font-family="Liberation Sans, sans-serif" font-size="353px" font-weight="400"><tspan class="TextPosition" x="11313" y="11635"><tspan fill="rgb(0,0,0)" stroke="none">USA</tspan></tspan></tspan></text>
 <text class="TextShape"><tspan class="TextParagraph" font-family="Liberation Sans, sans-serif" font-size="318px" font-weight="400"><tspan class="TextPosition" x="63" y="695"><tspan fill="rgb(0,0,0)" stroke="none">miles de millones $</tspan></tspan></tspan></text>
 <text class="TextShape"><tspan class="TextParagraph" font-family="Liberation Sans, sans-serif" font-size="318px" font-weight="400"><tspan class="TextPosition" x="14310" y="729"><tspan fill="rgb(0,0,0)" stroke="none">billones $</tspan></tspan></tspan></text>
</svg>
