<?xml version="1.0" encoding="UTF-8" ?>
<svg xmlns="http://www.w3.org/2000/svg" width="48" height="48">
  <path d="M12.7 5h22.6c4.2 0 7.6 3.5 7.6 7.7v22.6c0 4.2-4 7.6-8 7.6H12.5c-4 0-7.6-4-7.6-8V12.7C5 8.5 8.6 5 12.8 5z" class="fil1 str0" style="fill:#4d4948;stroke:#4d4948;stroke-width:.66569966"/>
  <path d="M14.2 9.3h19.6c2.7 0 5 2.2 5 5v19.5c0 2.7-2.3 5-5 5H14.2c-2.7 0-5-2.3-5-5V14.2c0-2.7 2.3-5 5-5z" class="fil2 str1" style="fill:#ddeae6;stroke:#00923f;stroke-width:1.33158958"/>
  <path d="M5 31.5H1.5M5 27.8H1.5M5 20.2H1.5M5 24H1.5M5 16.4H1.5M5 12.7H1.5M5 35.3H1.5m45.1-3.8H43m3.6-3.7H43m3.6-7.6H43m3.6 3.8H43m3.6-7.6H43m3.6-3.7H43m3.6 22.6H43M16.5 46.6V43m3.7 3.6V43m7.6 3.6V43M24 46.6V43m7.6 3.6V43m3.7 3.6V43m-22.6 3.6V43m3.7-38V1.5M20.2 5V1.5M27.8 5V1.5M24 5V1.5M31.6 5V1.5M35.3 5V1.5M12.7 5V1.5" class="fil3 str2" style="fill:none;stroke:#e77817;stroke-width:2.66336942;stroke-linecap:round"/>
</svg>
