<?xml version="1.0" encoding="UTF-8" ?>
<svg xmlns="http://www.w3.org/2000/svg" width="48" height="48" viewBox="0 0 48 48">
  <path d="M35.7 0l-1.9 1.9s1.72 1.73 3.5 5.43c1.77 3.7 3.54 9.34 3.54 17 0 7.65-1.78 13.14-3.55 16.7-1.78 3.6-3.48 5.2-3.48 5.2L35.76 48s2.66-2.5 4.52-6.27c1.87-3.76 3.7-9.52 3.7-17.37 0-7.9-1.83-13.77-3.7-17.65-1.86-3.86-4.6-6.65-4.6-6.65zm-5.5 5.42v.02l-2.04 1.8s1.35 1.33 2.74 4.13c1.38 2.8 2.78 7.07 2.78 12.88 0 5.8-1.4 9.95-2.78 12.65-1.4 2.7-2.7 3.9-2.7 3.9l1.88 1.85s2.28-2.14 3.76-5.04c1.48-2.86 2.95-7.3 2.95-13.33 0-6.06-1.5-10.57-2.98-13.56-1.48-3-3.65-5.27-3.65-5.27zM19.82 7.24c-.25-.02-.6.12-1.08.47-1.96 1.4-9.08 9.48-9.08 9.48-.07 0-.1.02-.17.03H4v14.16h5.67s7 8.08 9.08 9.47c2.08 1.4 1.65-.77 1.65-1.72V9.4c0-.7.17-2.1-.57-2.16zM24 10.57l-2.12 2.05s4.97 3.63 4.97 11.54c0 7.9-4.95 11.3-4.95 11.3l2.06 2.28s6-5.02 6-13.58S24 10.56 24 10.56z" style="fill:#343434;fill-opacity:1;stroke:none;stroke-width:5.27213383"/>
</svg>
