<svg xmlns="http://www.w3.org/2000/svg" width="48" height="48" style="clip-rule:evenodd;fill-rule:evenodd;image-rendering:optimizeQuality;shape-rendering:geometricPrecision;text-rendering:geometricPrecision">
  <defs id="defs4">
    <style id="style2">
      .str3 {stroke:#004F34;stroke-width:0.0113413} .str0 {stroke:#4D4948;stroke-width:0.0524945} .str1 {stroke:#00923F;stroke-width:0.105004} .str2 {stroke:#E77817;stroke-width:0.210023;stroke-linecap:round} .fil3 {fill:none} .fil1 {fill:#4D4948} .fil2 {fill:#DDEAE6} .fil4 {fill:#004F34;fill-rule:nonzero} .fil0 {fill:black;fill-rule:nonzero}
    </style>
  </defs>
  <symbol id="Im1-1-0" viewBox="-9.6 -36.3 3.1 1.5">
    <path id="path6" d="M-7.7-35.6v-.4.4zm1-.4l.2.2v-.2z" style="fill:#000000;fill-rule:nonzero" class="fil0"/>
    <path id="path8" d="M-9.6-35.2v-.6h.5v.6zm0 0h.5v-.6h-1z" style="fill:#000000;fill-rule:nonzero" class="fil0"/>
    <path id="polygon10" d="M-9-36h-.3.2z" style="fill:#000000;fill-rule:nonzero" class="fil0"/>
    <path id="path12" d="M-9.4-35h.2-.2zm0 .2h.2-.2z" style="fill:#000000;fill-rule:nonzero" class="fil0"/>
    <path id="polygon14" d="M-8.4-35.7h-.2.2z" style="fill:#000000;fill-rule:nonzero" class="fil0"/>
    <path id="path16" d="M-9-36.2v.2-.2z" style="fill:#000000;fill-rule:nonzero" class="fil0"/>
    <path id="path18" d="M-9.2-35h.2v.2h-.2zm0 0v.2h.2v-.2z" style="fill:#000000;fill-rule:nonzero" class="fil0"/>
    <path id="polygon20" d="M-7.5-35.7v-.2.8z" style="fill:#000000;fill-rule:nonzero" class="fil0"/>
    <path id="path22" d="M-9.5-36.3v.2-.7h.2v.2l-.2-.3v.2-.3z" style="fill:#000000;fill-rule:nonzero" class="fil0"/>
    <path id="path24" d="M-9.5-35v.2z" style="fill:#000000;fill-rule:nonzero" class="fil0"/>
    <path id="path26" d="M-7.2-36v.3-.2h.2v.8l-.2-.2v.3-.3zm-.4.2zm-.5 0zm0 0h-.7zm0 0z" style="fill:#000000;fill-rule:nonzero" class="fil0"/>
    <path id="path28" d="M-8.8-35.5v-.2h.2v.2H-9zm0 0z" style="fill:#000000;fill-rule:nonzero" class="fil0"/>
    <path id="path30" d="M-8-35.8h-.2z" style="fill:#000000;fill-rule:nonzero" class="fil0"/>
  </symbol>
  <path id="_48328904" d="M12.7 5h22.6c4.2 0 7.6 3.5 7.6 7.7v22.6c0 4.2-4 7.6-8 7.6H12.5c-4 0-7.6-4-7.6-8V12.7C5 8.5 8.6 5 12.8 5z" style="fill:#4d4948;stroke:#4d4948;stroke-width:0.66569966" class="fil1 str0"/>
  <path id="_48327808" d="M14.2 9.3h19.6c2.7 0 5 2.2 5 5v19.5c0 2.7-2.3 5-5 5H14.2c-2.7 0-5-2.3-5-5V14.2c0-2.7 2.3-5 5-5z" style="fill:#ddeae6;stroke:#00923f;stroke-width:1.33158958" class="fil2 str1"/>
  <path id="_48326936" d="M5 31.5H1.5" style="fill:none;stroke:#e77817;stroke-width:2.66336942;stroke-linecap:round" class="fil3 str2"/>
  <path id="_48326064" d="M5 27.8H1.5" style="fill:none;stroke:#e77817;stroke-width:2.66336942;stroke-linecap:round" class="fil3 str2"/>
  <path id="_47964128" d="M5 20.2H1.5" style="fill:none;stroke:#e77817;stroke-width:2.66336942;stroke-linecap:round" class="fil3 str2"/>
  <path id="_47963840" d="M5 24H1.5" style="fill:none;stroke:#e77817;stroke-width:2.66336942;stroke-linecap:round" class="fil3 str2"/>
  <path id="_47962832" d="M5 16.4H1.5" style="fill:none;stroke:#e77817;stroke-width:2.66336942;stroke-linecap:round" class="fil3 str2"/>
  <path id="_47961960" d="M5 12.7H1.5" style="fill:none;stroke:#e77817;stroke-width:2.66336942;stroke-linecap:round" class="fil3 str2"/>
  <path id="_47961088" d="M5 35.3H1.5" style="fill:none;stroke:#e77817;stroke-width:2.66336942;stroke-linecap:round" class="fil3 str2"/>
  <path id="_47960216" d="M46.6 31.5H43" style="fill:none;stroke:#e77817;stroke-width:2.66336942;stroke-linecap:round" class="fil3 str2"/>
  <path id="_47959344" d="M46.6 27.8H43" style="fill:none;stroke:#e77817;stroke-width:2.66336942;stroke-linecap:round" class="fil3 str2"/>
  <path id="_47958472" d="M46.6 20.2H43" style="fill:none;stroke:#e77817;stroke-width:2.66336942;stroke-linecap:round" class="fil3 str2"/>
  <path id="_47957600" d="M46.6 24H43" style="fill:none;stroke:#e77817;stroke-width:2.66336942;stroke-linecap:round" class="fil3 str2"/>
  <path id="_47956728" d="M46.6 16.4H43" style="fill:none;stroke:#e77817;stroke-width:2.66336942;stroke-linecap:round" class="fil3 str2"/>
  <path id="_47955856" d="M46.6 12.7H43" style="fill:none;stroke:#e77817;stroke-width:2.66336942;stroke-linecap:round" class="fil3 str2"/>
  <path id="_47954984" d="M46.6 35.3H43" style="fill:none;stroke:#e77817;stroke-width:2.66336942;stroke-linecap:round" class="fil3 str2"/>
  <path id="_47953976" d="M16.5 46.6V43" style="fill:none;stroke:#e77817;stroke-width:2.66336942;stroke-linecap:round" class="fil3 str2"/>
  <path id="_47722464" d="M20.2 46.6V43" style="fill:none;stroke:#e77817;stroke-width:2.66336942;stroke-linecap:round" class="fil3 str2"/>
  <path id="_47722360" d="M27.8 46.6V43" style="fill:none;stroke:#e77817;stroke-width:2.66336942;stroke-linecap:round" class="fil3 str2"/>
  <path id="_47721952" d="M24 46.6V43" style="fill:none;stroke:#e77817;stroke-width:2.66336942;stroke-linecap:round" class="fil3 str2"/>
  <path id="_47721080" d="M31.6 46.6V43" style="fill:none;stroke:#e77817;stroke-width:2.66336942;stroke-linecap:round" class="fil3 str2"/>
  <path id="_47720208" d="M35.3 46.6V43" style="fill:none;stroke:#e77817;stroke-width:2.66336942;stroke-linecap:round" class="fil3 str2"/>
  <path id="_47719336" d="M12.7 46.6V43" style="fill:none;stroke:#e77817;stroke-width:2.66336942;stroke-linecap:round" class="fil3 str2"/>
  <path id="_47718464" d="M16.4 5V1.5" style="fill:none;stroke:#e77817;stroke-width:2.66336942;stroke-linecap:round" class="fil3 str2"/>
  <path id="_47717592" d="M20.2 5V1.5" style="fill:none;stroke:#e77817;stroke-width:2.66336942;stroke-linecap:round" class="fil3 str2"/>
  <path id="_47716720" d="M27.8 5V1.5" style="fill:none;stroke:#e77817;stroke-width:2.66336942;stroke-linecap:round" class="fil3 str2"/>
  <path id="_47715712" d="M24 5V1.5" style="fill:none;stroke:#e77817;stroke-width:2.66336942;stroke-linecap:round" class="fil3 str2"/>
  <path id="_47214512" d="M31.6 5V1.5" style="fill:none;stroke:#e77817;stroke-width:2.66336942;stroke-linecap:round" class="fil3 str2"/>
  <path id="_47214224" d="M35.3 5V1.5" style="fill:none;stroke:#e77817;stroke-width:2.66336942;stroke-linecap:round" class="fil3 str2"/>
  <path id="_47213352" d="M12.7 5V1.5" style="fill:none;stroke:#e77817;stroke-width:2.66336942;stroke-linecap:round" class="fil3 str2"/>
</svg>
