<svg xmlns="http://www.w3.org/2000/svg" xmlns:xlink="http://www.w3.org/1999/xlink" width="100" height="100">
  <defs>
    <circle id="a" cx="96" cy="96" r="88"/>
    <linearGradient id="c" x1="110.87" x2="52.54" y1="164.5" y2="130.33" gradientUnits="userSpaceOnUse">
      <stop offset="0" stop-color="#055524" stop-opacity=".4"/>
      <stop offset=".33" stop-color="#055524" stop-opacity="0"/>
    </linearGradient>
    <linearGradient id="b" x1="29.34" x2="81.84" y1="75.02" y2="44.35" gradientUnits="userSpaceOnUse">
      <stop offset="0" stop-color="#A52714" stop-opacity=".6"/>
      <stop offset=".66" stop-color="#A52714" stop-opacity="0"/>
    </linearGradient>
    <linearGradient id="e" x1="121.86" x2="136.55" y1="49.8" y2="114.13" gradientUnits="userSpaceOnUse">
      <stop offset="0" stop-color="#EA6100" stop-opacity=".3"/>
      <stop offset=".66" stop-color="#EA6100" stop-opacity="0"/>
    </linearGradient>
    <path id="d" d="M8 184h83.77l38.88-38.88V116H61.36L8 24.48z"/>
    <path id="f" d="M96 56l34.65 60-38.88 68H184V56z"/>
    <path id="g" d="M21.97 8v40.34L61.36 116 96 56h88V8z"/>
    <clipPath id="h">
      <use width="100%" height="100%" overflow="visible" xlink:href="#a"/>
    </clipPath>
    <linearGradient id="o" x1="29.34" x2="81.84" y1="75.02" y2="44.35" gradientUnits="userSpaceOnUse" xlink:href="#b"/>
    <linearGradient id="r" x1="110.87" x2="52.54" y1="164.5" y2="130.33" gradientUnits="userSpaceOnUse" xlink:href="#c"/>
    <clipPath id="k">
      <use width="100%" height="100%" overflow="visible" xlink:href="#d"/>
    </clipPath>
    <linearGradient id="m" x1="121.86" x2="136.55" y1="49.8" y2="114.13" gradientUnits="userSpaceOnUse" xlink:href="#e"/>
    <clipPath id="n">
      <use width="100%" height="100%" overflow="visible" xlink:href="#f"/>
    </clipPath>
    <radialGradient id="p" cx="668.18" cy="55.95" r="84.08" gradientTransform="translate(-576)" gradientUnits="userSpaceOnUse">
      <stop offset="0" stop-color="#3E2723" stop-opacity=".2"/>
      <stop offset="1" stop-color="#3E2723" stop-opacity="0"/>
    </radialGradient>
    <clipPath id="q">
      <use width="100%" height="100%" overflow="visible" xlink:href="#g"/>
    </clipPath>
    <radialGradient id="s" cx="597.88" cy="48.52" r="78.04" gradientTransform="translate(-576)" gradientUnits="userSpaceOnUse">
      <stop offset="0" stop-color="#3E2723" stop-opacity=".2"/>
      <stop offset="1" stop-color="#3E2723" stop-opacity="0"/>
    </radialGradient>
    <radialGradient id="t" cx="671.84" cy="96.14" r="87.87" gradientTransform="translate(-576)" gradientUnits="userSpaceOnUse">
      <stop offset="0" stop-color="#263238" stop-opacity=".2"/>
      <stop offset="1" stop-color="#263238" stop-opacity="0"/>
    </radialGradient>
    <radialGradient id="u" cx="34.29" cy="32.01" r="176.75" gradientTransform="translate(-228.6 551.43) scale(.50323)" gradientUnits="userSpaceOnUse">
      <stop offset="0" stop-color="#fff" stop-opacity=".1"/>
      <stop offset="1" stop-color="#fff" stop-opacity="0"/>
    </radialGradient>
    <linearGradient id="i" x1="29.34" x2="81.84" y1="75.02" y2="44.35" gradientUnits="userSpaceOnUse" xlink:href="#b"/>
    <linearGradient id="j" x1="110.87" x2="52.54" y1="164.5" y2="130.33" gradientUnits="userSpaceOnUse" xlink:href="#c"/>
    <linearGradient id="l" x1="121.86" x2="136.55" y1="49.8" y2="114.13" gradientUnits="userSpaceOnUse" xlink:href="#e"/>
  </defs>
  <g transform="translate(60.19 -258.32)">
    <g stroke-width=".93" transform="translate(183.12 -334.73) scale(1.07223)">
      <g stroke-width="1.85" clip-path="url(#h)" transform="translate(-228.6 551.43) scale(.50323)">
        <path fill="#db4437" d="M21.97 8v108h39.39L96 56h88V8z"/>
        <path fill="url(#i)" d="M21.97 8v108h39.39L96 56h88V8z"/>
      </g>
      <path fill="#3e2723" fill-opacity=".15" d="M62.31 115.65L22.48 47.34l-.58 1 39.54 67.8z" clip-path="url(#h)" transform="translate(-228.6 551.43) scale(.50323)"/>
      <g stroke-width="1.85" clip-path="url(#h)" transform="translate(-228.6 551.43) scale(.50323)">
        <path fill="#0f9d58" d="M8 184h83.77l38.88-38.88V116H61.36L8 24.48z"/>
        <path fill="url(#j)" d="M8 184h83.77l38.88-38.88V116H61.36L8 24.48z"/>
      </g>
      <path fill="#263238" fill-opacity=".15" d="M129.84 117.33l-.83-.48L90.62 184h1.15l38.1-66.64z" clip-path="url(#h)" transform="translate(-228.6 551.43) scale(.50323)"/>
      <g stroke-width="1.85" clip-path="url(#h)" transform="translate(-228.6 551.43) scale(.50323)">
        <g clip-path="url(#k)">
          <path fill="#ffcd40" d="M96 56l34.65 60-38.88 68H184V56z"/>
          <path fill="url(#l)" d="M96 56l34.65 60-38.88 68H184V56z"/>
        </g>
      </g>
      <g stroke-width="1.85" clip-path="url(#h)" transform="translate(-228.6 551.43) scale(.50323)">
        <path fill="#ffcd40" d="M96 56l34.65 60-38.88 68H184V56z"/>
        <path fill="url(#m)" d="M96 56l34.65 60-38.88 68H184V56z"/>
      </g>
      <g stroke-width="1.85" clip-path="url(#h)" transform="translate(-228.6 551.43) scale(.50323)">
        <g clip-path="url(#n)">
          <path fill="#db4437" d="M21.97 8v108h39.39L96 56h88V8z"/>
          <path fill="url(#o)" d="M21.97 8v108h39.39L96 56h88V8z"/>
        </g>
      </g>
      <path fill="url(#p)" d="M96 56v20.95L174.4 56z" clip-path="url(#h)" transform="translate(-228.6 551.43) scale(.50323)"/>
      <g stroke-width="1.85" clip-path="url(#h)" transform="translate(-228.6 551.43) scale(.50323)">
        <g clip-path="url(#q)">
          <path fill="#0f9d58" d="M8 184h83.77l38.88-38.88V116H61.36L8 24.48z"/>
          <path fill="url(#r)" d="M8 184h83.77l38.88-38.88V116H61.36L8 24.48z"/>
        </g>
      </g>
      <path fill="url(#s)" d="M21.97 48.45l57.25 57.24L61.36 116z" clip-path="url(#h)" transform="translate(-228.6 551.43) scale(.50323)"/>
      <path fill="url(#t)" d="M91.83 183.89l20.96-78.2L130.65 116z" clip-path="url(#h)" transform="translate(-228.6 551.43) scale(.50323)"/>
      <g stroke-width="1.85" clip-path="url(#h)" transform="translate(-228.6 551.43) scale(.50323)">
        <circle cx="96" cy="96" r="40" fill="#f1f1f1"/>
        <circle cx="96" cy="96" r="32" fill="#4285f4"/>
      </g>
      <g stroke-width="1.85" clip-path="url(#h)" transform="translate(-228.6 551.43) scale(.50323)">
        <path fill="#3e2723" fill-opacity=".2" d="M96 55a40 40 0 0 0-40 40v1a40 40 0 0 1 40-40h88v-1z"/>
        <path fill="#fff" fill-opacity=".1" d="M130.6 116A39.96 39.96 0 0 1 96 136a39.97 39.97 0 0 1-34.61-20h-.04L8 24.48v1L61.36 117h.04a39.94 39.94 0 1 0 69.21 0h.05v-1z"/>
        <path fill="#3e2723" d="M97 56c-.17 0-.33.02-.5.03a39.98 39.98 0 0 1 0 79.94c.17 0 .33.03.5.03a40 40 0 0 0 0-80z" opacity=".1"/>
        <path fill="#fff" fill-opacity=".2" d="M131 117.33a39.72 39.72 0 0 0 3.5-32.05 39.72 39.72 0 0 1-3.87 30.69l.02.04-38.88 68h1.16l38.09-66.64z"/>
      </g>
      <g stroke-width="1.85" clip-path="url(#h)" transform="translate(-228.6 551.43) scale(.50323)">
        <path fill="#fff" fill-opacity=".2" d="M96 9a88 88 0 0 1 87.99 87.5l.01-.5A88 88 0 0 0 8 96l.01.5A88 88 0 0 1 96 9z"/>
        <path fill="#3e2723" fill-opacity=".15" d="M96 183a88 88 0 0 0 87.99-87.5l.01.5A88 88 0 0 1 8 96l.01-.5A88 88 0 0 0 96 183z"/>
      </g>
      <circle cx="-180.29" cy="599.74" r="44.28" fill="url(#u)"/>
    </g>
    <rect width="100" height="100" x="-60.19" y="258.32" fill="none" rx="0" ry="0"/>
  </g>
</svg>
