<?xml version="1.0" encoding="UTF-8" standalone="no"?>
<!-- Created with Inkscape (http://www.inkscape.org/) -->

<svg
   xmlns:dc="http://purl.org/dc/elements/1.1/"
   xmlns:cc="http://creativecommons.org/ns#"
   xmlns:rdf="http://www.w3.org/1999/02/22-rdf-syntax-ns#"
   xmlns:svg="http://www.w3.org/2000/svg"
   xmlns="http://www.w3.org/2000/svg"
   xmlns:sodipodi="http://sodipodi.sourceforge.net/DTD/sodipodi-0.dtd"
   xmlns:inkscape="http://www.inkscape.org/namespaces/inkscape"
   width="100"
   height="100"
   viewBox="0 0 26.458334 26.458334"
   version="1.1"
   id="svg4781"
   inkscape:version="0.92.2 (5c3e80d, 2017-08-06)"
   sodipodi:docname="logo git.svg">
  <defs
     id="defs4775" />
  <sodipodi:namedview
     id="base"
     pagecolor="#ffffff"
     bordercolor="#666666"
     borderopacity="1.0"
     inkscape:pageopacity="0.0"
     inkscape:pageshadow="2"
     inkscape:zoom="8.2099998"
     inkscape:cx="50.000001"
     inkscape:cy="50.000001"
     inkscape:document-units="mm"
     inkscape:current-layer="layer1"
     showgrid="false"
     fit-margin-top="0"
     fit-margin-left="0"
     fit-margin-right="0"
     fit-margin-bottom="0"
     inkscape:window-width="1920"
     inkscape:window-height="1018"
     inkscape:window-x="-8"
     inkscape:window-y="-8"
     inkscape:window-maximized="1"
     units="px" />
  <metadata
     id="metadata4778">
    <rdf:RDF>
      <cc:Work
         rdf:about="">
        <dc:format>image/svg+xml</dc:format>
        <dc:type
           rdf:resource="http://purl.org/dc/dcmitype/StillImage" />
        <dc:title></dc:title>
      </cc:Work>
    </rdf:RDF>
  </metadata>
  <g
     inkscape:label="Capa 1"
     inkscape:groupmode="layer"
     id="layer1"
     transform="translate(-182.18452,-235.76785)">
    <g
       id="g1818"
       transform="matrix(0.03187792,0,0,0.03187792,85.767797,234.92857)"
       style="stroke-width:8.29989433">
      <g
         style="stroke-width:3.65128875"
         transform="matrix(2.2731413,0,0,2.2731413,-4227.3754,-980.49938)"
         id="g1691">
        <path
           style="fill:#413000;stroke-width:3.65128875"
           inkscape:connector-curvature="0"
           d="m 3434.3926,491.26479 c -5.985,0 -10.442,2.9389 -10.442,10.012 0,5.3291 2.9375,9.0284 10.12,9.0284 6.0875,0 10.222,-3.5869 10.222,-9.2485 0,-6.416 -3.7,-9.7915 -9.9,-9.7915 z m -11.97,49.94 c -1.4162,1.7382 -2.8275,3.585 -2.8275,5.7646 0,4.3482 5.545,5.6568 13.162,5.6568 6.31,0 14.905,-0.44188 14.905,-6.3085 0,-3.4869 -4.135,-3.7028 -9.36,-4.0304 l -15.88,-1.0825 z m 32.201,-49.611 c 1.955,2.5029 4.025,5.9848 4.025,10.989 0,12.075 -9.465,19.146 -23.169,19.146 -3.485,0 -6.64,-0.43412 -8.5962,-0.97712 l -3.5912,5.7648 10.66,0.65125 c 18.822,1.1992 29.915,1.7442 29.915,16.208 0,12.514 -10.985,19.581 -29.915,19.581 -19.69,0 -27.196,-5.0049 -27.196,-13.598 0,-4.8975 2.1762,-7.5025 5.9838,-11.098 -3.5912,-1.518 -4.7862,-4.2362 -4.7862,-7.1748 0,-2.395 1.195,-4.5702 3.1562,-6.6386 1.9575,-2.065 4.1325,-4.1348 6.7438,-6.5274 -5.33,-2.6104 -9.3562,-8.2676 -9.3562,-16.319 0,-12.509 8.2688,-21.1 24.91,-21.1 4.6788,0 7.5088,0.43062 10.011,1.0874 h 21.215 v 9.2446 l -10.01,0.76175"
           id="path1572-9" />
        <path
           style="fill:#413000;stroke-width:3.65128875"
           inkscape:connector-curvature="0"
           d="m 3483.7826,471.82479 c -6.2025,0 -9.7912,-3.5932 -9.7912,-9.7964 0,-6.1954 3.5888,-9.5704 9.7912,-9.5704 6.31,0 9.9,3.375 9.9,9.5704 0,6.2031 -3.59,9.7964 -9.9,9.7964 z m -14.036,65.376 v -8.5899 l 5.55,-0.75925 c 1.5238,-0.22075 1.74,-0.5445 1.74,-2.1802 v -31.983 c 0,-1.1942 -0.325,-1.959 -1.4162,-2.2828 l -5.8738,-2.0688 1.1962,-8.8086 h 22.521 v 45.144 c 0,1.7438 0.105,1.9595 1.7412,2.1802 l 5.5488,0.75925 v 8.5899 h -31.008"
           id="path1574-0" />
        <path
           style="fill:#413000;stroke-width:3.65128875"
           inkscape:connector-curvature="0"
           d="m 3543.7726,532.98479 c -4.68,2.2818 -11.532,4.3491 -17.736,4.3491 -12.945,0 -17.839,-5.2168 -17.839,-17.515 v -28.5 c 0,-0.65138 0,-1.0884 -0.8737,-1.0884 h -7.6138 v -9.6816 c 9.5762,-1.0908 13.381,-5.8784 14.578,-17.736 h 10.3359 v 15.453 c 0,0.75875 0,1.0874 0.8713,1.0874 h 15.338 v 10.877 h -16.209 v 25.999 c 0,6.4194 1.525,8.9194 7.3962,8.9194 3.05,0 6.2012,-0.75925 8.8125,-1.7392 l 2.94,9.5761"
           id="path1576-7" />
      </g>
      <path
         id="path1578-4"
         d="m 3697.6455,475.75914 -287.781,-287.74563 c -16.5582,-16.57323 -43.4358,-16.57323 -60.0149,0 l -59.7544,59.76031 75.7966,75.79666 c 17.621,-5.9494 37.818,-1.96044 51.8573,12.08166 14.1122,14.1296 18.0726,34.49901 11.9741,52.17892 l 73.0545,73.05454 c 17.6742,-6.09059 38.0661,-2.15566 52.1789,11.98214 19.7306,19.72495 19.7306,51.68717 0,71.41733 -19.7337,19.73652 -51.6959,19.73652 -71.4404,0 -14.8361,-14.84751 -18.5056,-36.64585 -10.9912,-54.92511 l -68.1315,-68.13139 V 600.5153 c 4.8104,2.38129 9.3501,5.55951 13.3585,9.55065 19.7249,19.72264 19.7249,51.67907 0,71.43469 -19.7308,19.72209 -51.7075,19.72209 -71.4173,0 -19.7279,-19.75387 -19.7279,-51.71031 0,-71.43469 4.8751,-4.86672 10.5168,-8.5504 16.5361,-11.01949 V 418.09361 c -6.0223,-2.45867 -11.657,-6.11487 -16.5397,-11.02065 -14.9428,-14.9314 -18.5417,-36.8628 -10.8782,-55.21264 l -74.7208,-74.73222 -197.3074,197.30162 c -16.5783,16.58594 -16.5783,43.46362 0,60.03801 l 287.7636,287.74619 c 16.5675,16.57322 43.4359,16.57322 60.0264,0 l 286.4331,-286.38671 c 16.5731,-16.58131 16.5731,-43.46708 0,-60.04377"
         inkscape:connector-curvature="0"
         style="fill:#f05133;stroke-width:8.29989433" />
    </g>
    <rect
       style="opacity:1;fill:none;fill-opacity:1;stroke:none;stroke-width:0.26458332;stroke-linejoin:round;stroke-miterlimit:4;stroke-dasharray:none;stroke-dashoffset:0;stroke-opacity:1"
       id="rect4512-5-8-8"
       width="26.458334"
       height="26.458334"
       x="182.18452"
       y="235.76785"
       rx="0"
       ry="0" />
  </g>
</svg>
