<svg xmlns="http://www.w3.org/2000/svg" xmlns:xlink="http://www.w3.org/1999/xlink" width="100" height="100" viewBox="0 0 26.46 26.46">
  <defs>
    <filter id="e" color-interpolation-filters="sRGB">
      <feGaussianBlur stdDeviation=".81"/>
    </filter>
    <filter id="f" color-interpolation-filters="sRGB">
      <feGaussianBlur stdDeviation="3.49"/>
    </filter>
    <linearGradient id="g" x1="33" x2="58" y1="35" y2="60" gradientTransform="matrix(.63546 0 0 .63482 -285.02 436.37)" gradientUnits="userSpaceOnUse" xlink:href="#a"/>
    <linearGradient id="a" gradientUnits="userSpaceOnUse">
      <stop offset="0" stop-color="#fff"/>
      <stop offset="1" stop-color="#fff" stop-opacity="0"/>
    </linearGradient>
    <linearGradient id="h" x1="60" x2="90" y1="20" y2="50" gradientTransform="matrix(.62968 0 0 .62905 -284.77 436.6)" gradientUnits="userSpaceOnUse" xlink:href="#a"/>
    <radialGradient id="i" cx="116.31" cy="250.9" r="30.6" fx="116.31" fy="250.9" gradientTransform="matrix(.52362 0 0 .35014 -317.33 420.53)" gradientUnits="userSpaceOnUse" xlink:href="#a"/>
    <radialGradient id="j" cx="132.44" cy="251.99" r="30.6" fx="132.44" fy="251.99" gradientTransform="matrix(2.00325 0 0 1.3409 -132.88 -95.17)" gradientUnits="userSpaceOnUse" xlink:href="#a"/>
    <filter id="k" width="1.16" height="1.23" x="-.08" y="-.11" color-interpolation-filters="sRGB">
      <feGaussianBlur stdDeviation="1.96"/>
    </filter>
    <radialGradient id="l" cx="210.25" cy="168.5" r="34.25" fx="210.25" fy="168.5" gradientTransform="matrix(.3335 0 0 .14105 -292.15 460.26)" gradientUnits="userSpaceOnUse" xlink:href="#a"/>
    <radialGradient id="m" cx="217.5" cy="182.08" r="34.25" fx="217.5" fy="182.08" gradientTransform="matrix(1 0 0 .42336 0 97.16)" gradientUnits="userSpaceOnUse" xlink:href="#a"/>
    <filter id="n" width="1.15" height="1.35" x="-.07" y="-.18" color-interpolation-filters="sRGB">
      <feGaussianBlur stdDeviation="2.12"/>
    </filter>
    <linearGradient id="o" x1="231.63" x2="231.75" y1="195.19" y2="201.5" gradientTransform="matrix(.3335 0 0 .33317 -292.57 427.3)" gradientUnits="userSpaceOnUse" xlink:href="#a"/>
    <linearGradient id="y" x1="231.38" x2="231.38" y1="195.62" y2="200.07" gradientUnits="userSpaceOnUse" xlink:href="#a"/>
    <filter id="q" width="1.17" height="1.56" x="-.09" y="-.28" color-interpolation-filters="sRGB">
      <feGaussianBlur stdDeviation=".57"/>
    </filter>
    <radialGradient id="r" cx="228.22" cy="204.83" r="14.09" fx="228.22" fy="204.83" gradientTransform="matrix(1 0 0 .14775 0 174.57)" gradientUnits="userSpaceOnUse" xlink:href="#a"/>
    <filter id="s" width="1.14" height="1.95" x="-.07" y="-.47" color-interpolation-filters="sRGB">
      <feGaussianBlur stdDeviation=".82"/>
    </filter>
    <linearGradient id="t" x1="231.63" x2="231.75" y1="195.19" y2="201.5" gradientTransform="matrix(.14417 0 0 .33324 -456.93 279.45)" gradientUnits="userSpaceOnUse" xlink:href="#a"/>
    <radialGradient id="v" cx="228.22" cy="204.83" r="14.09" fx="228.22" fy="204.83" gradientTransform="matrix(1 0 0 .14775 0 174.57)" gradientUnits="userSpaceOnUse" xlink:href="#a"/>
    <radialGradient id="w" cx="89.88" cy="187.87" r="22.75" fx="89.88" fy="187.87" gradientTransform="matrix(.3335 0 0 .13563 -292.15 466.46)" gradientUnits="userSpaceOnUse" xlink:href="#b"/>
    <linearGradient id="b">
      <stop offset="0" stop-color="#fff" stop-opacity=".33"/>
      <stop offset="1" stop-color="#fff" stop-opacity="0"/>
    </linearGradient>
    <linearGradient id="x" x1="231.63" x2="231.75" y1="195.19" y2="201.5" gradientUnits="userSpaceOnUse" xlink:href="#a"/>
    <radialGradient id="z" cx="90.28" cy="230.84" r="10.47" fx="90.28" fy="230.84" gradientTransform="matrix(1.18508 -.32836 .12286 .4434 -45.07 152.92)" gradientUnits="userSpaceOnUse" xlink:href="#a"/>
    <filter id="A" width="1.15" height="1.33" x="-.08" y="-.17" color-interpolation-filters="sRGB">
      <feGaussianBlur stdDeviation=".66"/>
    </filter>
    <radialGradient id="B" cx="68.4" cy="21.23" r="54.78" fx="68.4" fy="21.23" gradientTransform="matrix(1.72215 0 0 1.69498 -49.4 -14.08)" gradientUnits="userSpaceOnUse" xlink:href="#a"/>
    <filter id="C" color-interpolation-filters="sRGB">
      <feGaussianBlur stdDeviation=".33"/>
    </filter>
    <linearGradient id="E" x1="95.5" x2="153.5" y1="208.16" y2="223.5" gradientUnits="userSpaceOnUse" xlink:href="#a"/>
    <filter id="F" width="1.17" height="1.24" x="-.08" y="-.12" color-interpolation-filters="sRGB">
      <feGaussianBlur stdDeviation="3.69"/>
    </filter>
    <linearGradient id="G" x1="57.23" x2="53.63" y1="76.25" y2="84.48" gradientTransform="matrix(.55743 0 0 .55687 -281.51 442.41)" gradientUnits="userSpaceOnUse" xlink:href="#c"/>
    <linearGradient id="c">
      <stop offset="0" stop-color="#eeeeec"/>
      <stop offset="1" stop-color="#eeeeec" stop-opacity="0"/>
    </linearGradient>
    <radialGradient id="H" cx="181.23" cy="214.55" r="22.47" fx="181.23" fy="214.55" gradientTransform="matrix(1.35152 0 0 1.71757 -63.7 -153.96)" gradientUnits="userSpaceOnUse" xlink:href="#a"/>
    <filter id="I" color-interpolation-filters="sRGB">
      <feGaussianBlur stdDeviation="1.24"/>
    </filter>
    <linearGradient id="J" x1="73.71" x2="82.75" y1="180.48" y2="187.66" gradientTransform="matrix(.3103 0 0 .30999 -288.55 430.5)" gradientUnits="userSpaceOnUse" xlink:href="#a"/>
    <linearGradient id="K" x1="180.81" x2="153.7" y1="217.5" y2="144.5" gradientTransform="translate(-130.17 -83.35)" gradientUnits="userSpaceOnUse" xlink:href="#d"/>
    <linearGradient id="d">
      <stop offset="0" stop-color="#729fcf"/>
      <stop offset="1" stop-color="#729fcf" stop-opacity="0"/>
    </linearGradient>
    <filter id="L" color-interpolation-filters="sRGB">
      <feGaussianBlur stdDeviation="2.77"/>
    </filter>
    <linearGradient id="p" x1="231.38" x2="231.38" y1="195.62" y2="200.07" gradientUnits="userSpaceOnUse" xlink:href="#a"/>
    <linearGradient id="u" x1="231.38" x2="231.38" y1="195.62" y2="200.07" gradientUnits="userSpaceOnUse" xlink:href="#a"/>
  </defs>
  <g transform="translate(-167.82 -233.96)">
    <g stroke-width=".86" transform="matrix(.3069 0 0 .3065 256.07 100.77)">
      <g stroke-width="1.37" opacity=".78">
        <path d="M54.1 12.99l-41.2 42.2c-15.6 15.6 10.1 14.3 19.4 20.2 4.3 2.8-13.8 6.4-10.1 10.1 3.6 3.7 21.7 7.1 25.3 10.7 3.6 3.7-7.3 7.6-3.7 11.3 3.5 3.7 11.9.2 13.4 8.6 1.1 6.2 15.4 3.1 21.8-2.2 4-3.4-6.9-3.4-3.3-7.1 9-9.1 17-4.1 20.3-12.5 1.8-4.5-13.6-7.7-9.5-10.6 9.8-6.9 45.8-10.4 29.2-27L73 12.99c-5.3-5-14-5-18.9 0zm47.3 81.3c0 2.1 16.3 3.3 15.4-.5-1.3-6.4-13.6-5.9-15.4.5zm-69.5 11.1c3.7 3.2 9.3-.7 11.1-5.2-3.6-4.7-16.9.3-11.1 5.2zm67.5-6.7c-4.6 4.2.8 8.6 5.3 5.7 1.2-.8-.1-4.7-5.3-5.7z" filter="url(#e)" transform="matrix(.62968 0 0 .62905 -284.77 436.92)"/>
        <path d="M54.1 13.96l-41.2 42.2c-15.6 15.6 10.1 14.3 19.4 20.2 4.3 2.8-13.8 6.4-10.1 10.1 3.6 3.7 21.7 7.1 25.3 10.7 3.6 3.7-7.3 7.6-3.7 11.3 3.5 3.7 11.9.2 13.4 8.6 1.1 6.2 15.4 3.1 21.8-2.2 4-3.4-6.9-3.4-3.3-7.1 9-9.1 17-4.1 20.3-12.5 1.8-4.5-13.6-7.7-9.5-10.6 9.8-6.9 45.8-10.4 29.2-27L73 13.96c-5.3-5-14-5-18.9 0zm47.3 81.3c0 2.1 16.3 3.3 15.4-.5-1.3-6.4-13.6-5.9-15.4.5zm-69.5 11.1c3.7 3.2 9.3-.7 11.1-5.2-3.6-4.7-16.9.3-11.1 5.2zm67.5-6.7c-4.6 4.2.8 8.6 5.3 5.7 1.2-.8-.1-4.7-5.3-5.7z" filter="url(#f)" opacity=".58" transform="matrix(.62968 0 0 .62905 -284.77 436.92)"/>
      </g>
      <path d="M-250.7 444.47l-25.95 26.55c-9.82 9.81 6.36 9 12.22 12.7 2.7 1.77-8.7 4.03-6.36 6.36 2.27 2.33 13.66 4.46 15.93 6.73 2.27 2.33-4.6 4.78-2.33 7.1 2.2 2.33 7.5.13 8.44 5.42.69 3.9 9.7 1.95 13.72-1.39 2.52-2.14-4.34-2.14-2.07-4.46 5.66-5.73 10.7-2.58 12.78-7.87 1.13-2.83-8.56-4.84-5.98-6.66 6.17-4.34 28.84-6.55 18.38-16.99l-26.88-27.49c-3.34-3.14-8.82-3.14-11.9 0zm29.78 51.14c0 1.32 10.26 2.08 9.7-.31-.82-4.03-8.57-3.71-9.7.31zm-43.76 6.99c2.33 2 5.85-.44 6.99-3.27-2.27-2.96-10.65.18-7 3.27zm42.5-4.22c-2.9 2.64.5 5.41 3.34 3.59.75-.5-.07-2.96-3.34-3.59z"/>
      <path id="D" fill="none" d="M-250.7 444.47l-25.95 26.55c-9.82 9.81 6.36 9 12.22 12.7 2.7 1.77-8.7 4.03-6.36 6.36 2.27 2.33 13.66 4.46 15.93 6.73 2.27 2.33-4.6 4.78-2.33 7.1 2.2 2.33 7.5.13 8.44 5.42.69 3.9 9.7 1.95 13.72-1.39 2.52-2.14-4.34-2.14-2.07-4.46 5.66-5.73 10.7-2.58 12.78-7.87 1.13-2.83-8.56-4.84-5.98-6.66 6.17-4.34 28.84-6.55 18.38-16.99l-26.88-27.49c-3.34-3.14-8.82-3.14-11.9 0zm29.78 51.14c0 1.32 10.26 2.08 9.7-.31-.82-4.03-8.57-3.71-9.7.31zm-43.76 6.99c2.33 2 5.85-.44 6.99-3.27-2.27-2.96-10.65.18-7 3.27zm42.5-4.22c-2.9 2.64.5 5.41 3.34 3.59.75-.5-.07-2.96-3.34-3.59z"/>
      <path fill="url(#g)" d="M-274.34 472.49c-7.05 6.98 5.34 5.01 14.87 8.76l19.7-34.6c-2.99-3.04-6.8-2.8-9.53 0z" class="specularity" opacity=".51"/>
      <path fill="url(#h)" d="M-240.38 446.36l10.27 10.44c.94.95.94 2.9.37 3.46l-5.1-4.15-1 6.1-4.22-2.26-6.87 4.34-2.26-9.12-3.66 7.92-9.13-.06c-1.76 0-1.5-1.83.32-3.65 3.59-3.96 10.58-10.7 12.78-13.02a6.1 6.1 0 0 1 8.5 0z" class="full-specularity"/>
      <path fill="url(#i)" fill-rule="evenodd" d="M-254.47 495.69s1.12 1.7 1 2.5c-.22 1.57-3.6 2.35-2.85 3.75.74 1.38 3.4.6 5.65 2.04 2.23 1.43 1.63 4.36 3.25 5.1 3.16 1.43 11.46-2.48 11.05-2.4-.42.09-8.2 1.7-9.95.29-2-1.62-2.57-2.75-4.04-3.7-1.38-.9-3.32-1.26-3.77-2-.45-.73.9-1.67 1-3.08.06-.85-1.34-2.5-1.34-2.5z" opacity=".22"/>
      <path fill="url(#j)" fill-rule="evenodd" d="M113 203.5s3.34 5.1 3 7.5c-.67 4.7-10.8 7.06-8.56 11.25 2.22 4.14 10.22 1.8 16.94 6.13 6.68 4.3 4.88 13.1 9.75 15.3 9.47 4.32 34.37-7.43 33.12-7.18-41.34.16-33.62-10.5-49.56-17.5-2.3-1.01-.97-3.76-.69-8 .17-2.54-4-7.5-4-7.5z" filter="url(#k)" opacity=".28" transform="matrix(.3335 0 0 .33317 -292.15 427.89)"/>
      <path fill="url(#l)" fill-rule="evenodd" d="M-231.04 488.44c12.38-4.55 16.35-5.17 20.43-9.24-4.72 3.98-14.7 6.12-22.84 9.66z" opacity=".45"/>
      <path fill="url(#m)" fill-rule="evenodd" d="M183.25 181.75c61.1-21.65 50.77-21.53 61.25-27.75-19.43 7.44-55.73 8.23-68.5 29z" filter="url(#n)" opacity=".51" transform="matrix(.3335 0 0 .33317 -292.15 427.3)"/>
      <ellipse cx="-215.88" cy="493.63" fill="url(#o)" opacity=".29" overflow="visible" rx="2.65" ry=".81" style="marker:none"/>
      <ellipse cx="229.94" cy="199.06" fill="url(#p)" filter="url(#q)" opacity=".62" overflow="visible" rx="7.94" ry="2.44" style="marker:none" transform="matrix(.44905 0 0 .7176 -319.14 351.72)"/>
      <path fill="url(#r)" fill-rule="evenodd" d="M214.13 203.75c3.76 3.48 24.75 5.27 28.18-1-6.73 4.78-21.71 3.1-28.19 1z" filter="url(#s)" transform="matrix(.3335 0 0 .33317 -292.15 427.65)"/>
      <ellipse cx="-423.78" cy="345.79" fill="url(#t)" opacity=".29" overflow="visible" rx=".94" ry="1.03" style="marker:none" transform="rotate(-26.86) skewX(.05)"/>
      <ellipse cx="229.94" cy="199.06" fill="url(#u)" filter="url(#q)" opacity=".62" overflow="visible" rx="7.06" ry="2.14" style="marker:none" transform="matrix(.17317 -.08771 .32484 .64004 -325.92 393.02)"/>
      <path fill="url(#v)" fill-rule="evenodd" d="M217.06 201.94c3.77 3.48 26.97 8.91 25.25.81-3.31 5.32-18.78 1.3-25.25-.81z" filter="url(#s)" transform="matrix(.12861 -.06514 .15082 .29716 -280.83 455.89)"/>
      <path fill="url(#w)" fill-rule="evenodd" d="M-269.39 489.86c0-.2 12.96 3.94 15.17 6.16-1.82-1.78-11.05-5.87-12.46-5.91-1.4-.05-2.54-.17-2.71-.25z"/>
      <g stroke-width="1.37" transform="matrix(.5535 -.1214 .14724 .43777 -297.5 459.71)">
        <ellipse cx="229.94" cy="199.06" fill="url(#x)" opacity=".29" overflow="visible" rx="7.94" ry="2.44" style="marker:none" transform="translate(-84.42 -4.73) scale(.52965)"/>
        <ellipse cx="229.94" cy="199.06" fill="url(#y)" filter="url(#q)" opacity=".62" overflow="visible" rx="7.94" ry="2.44" style="marker:none" transform="matrix(.71315 0 0 1.14078 -126.61 -124.9)"/>
      </g>
      <path fill="url(#z)" fill-rule="evenodd" d="M80.5 220.06s2.1 5.65 7.88 5.94c5.83.29 12.5-7 13.06-9.63-1 2.25-6.6 9.04-13.81 8.94-4.1-.05-7.13-5.25-7.13-5.25z" filter="url(#A)" opacity=".62" transform="matrix(.3335 0 0 .33317 -292.09 427.53)"/>
      <path fill="none" stroke="url(#B)" stroke-width="1.37" d="M-244.85 443.57c-1.82 0-3.57.66-4.81 1.92l-25.95 26.55c-2.33 2.33-2.76 3.75-2.66 4.34.05.3.19.55.58.9.4.33 1.03.7 1.83 1.04 1.6.67 3.84 1.22 6.05 1.83 2.22.6 4.42 1.24 6.16 2.34a1.46 1.46 0 0 1 .01.01 2.08 2.08 0 0 1 1.04 2.2c-.17.87-.68 1.25-1.13 1.6-.89.67-2 1.17-3.1 1.7-1 .48-1.87.96-2.4 1.34.43.29 1.02.67 2.1 1.1a85.4 85.4 0 0 0 4.75 1.64c1.71.56 3.44 1.11 4.92 1.7 1.49.57 2.71 1.08 3.63 2a1.46 1.46 0 0 1 .01.01c.46.47.79 1.1.86 1.73.08.64-.1 1.23-.32 1.7-.45.92-1.12 1.56-1.7 2.15a8.47 8.47 0 0 0-1.18 1.42c-.06.13-.04.14-.04.09 0-.06-.06-.1.05.02a1.46 1.46 0 0 1 .02.02c.54.57 2.03.73 3.96 1.18a6.6 6.6 0 0 1 2.96 1.38c.93.8 1.61 2.02 1.9 3.6.07.41.19.54.86.75.68.21 1.82.26 3.1.08a17 17 0 0 0 6.83-2.77l-.1-.06c-.56-.28-1.27-.52-1.9-1.32a2.38 2.38 0 0 1-.48-1.73c.1-.65.44-1.15.85-1.57a1.46 1.46 0 0 1 .01 0c3.08-3.12 6.2-3.9 8.4-4.49a9.6 9.6 0 0 0 2.56-.94c.6-.37 1.04-.87 1.45-1.88a1.7 1.7 0 0 0-.37-.42 16.62 16.62 0 0 0-2.46-1.55c-.98-.54-1.94-1.02-2.73-1.75a2.45 2.45 0 0 1-.9-1.7c-.06-.83.5-1.59 1.05-1.97 1.84-1.3 4.46-2.22 7.3-3.2 2.85-1 5.9-2 8.35-3.14 2.44-1.14 4.16-2.47 4.64-3.59a2.3 2.3 0 0 0 .02-1.84 8.48 8.48 0 0 0-2.12-3 1.46 1.46 0 0 1 0-.01l-26.85-27.45a7.38 7.38 0 0 0-5.05-1.96zm28.95 50.32a4.27 4.27 0 0 0-2.8 1.18c.8.16 1.82.3 2.87.32 1.12.03 2.18-.08 2.83-.24-.17-.28-.26-.59-.63-.8-.57-.3-1.4-.49-2.27-.46zm-44.46 5.72a5.86 5.86 0 0 0-3.4.95c-.33.27-.38.45-.38.45s-.06.09.4.47a1.46 1.46 0 0 1 .01.01c.67.58 1.32.53 2.3 0a5.6 5.6 0 0 0 1.7-1.63c-.23-.08-.3-.23-.63-.25zm38.73.5c-.03.09-.2.26-.2.31 0 .15.02.23.17.37.21.2.74.28 1.34.15a3.3 3.3 0 0 0-1.3-.82z" filter="url(#C)" xlink:href="#D"/>
      <path fill="url(#E)" fill-rule="evenodd" d="M95.5 172c-5.1 1.5-21.6 7.74-19.25 12.5 2.24 4.56 40.61 6.4 46.5 20 2.57 5.93-5.9 10.4-3.75 16.5 1.65 4.7 14.41 16.5 22.49 22.07 6.33 4.37 14.65-3.52 11.26-10.07-5.4-10.43 18.44-23.2 29.25-29 6.3-3.38-13-20-13-20l-73.5-12z" filter="url(#F)" opacity=".33" transform="matrix(.30747 0 0 .30717 -288.43 431.76)"/>
      <path fill="url(#G)" fill-rule="evenodd" d="M-258.49 486.01c1.4 1.03 4.18.4 5.85 1.16 4 1.8 8.91 3.8 8 .25l-1.01.85-.02-1.61-2.36.57s-1.83-1.46-2.67-1.95c-.18-.1-1.08.82-1.08.82l-.16-.97a30.02 30.02 0 0 0-3.35-.18c-2.44.02-4.09.4-3.2 1.06z"/>
      <path fill="url(#H)" fill-rule="evenodd" d="M182.75 187.25c-1.76 6.48 21.63 15.28 19.88 19.75-3.86 9.84-24.98 3.14-41.13 23.75-2.31 2.95 3.25 13.5 2.5 12.25s-6.46-9.96-5-14.25c4.6-13.45 49.01-18.46 40.88-24.88-4.68-3.69-21.51-13.88-17.13-16.62z" filter="url(#I)" opacity=".48" transform="matrix(.30747 0 0 .30717 -288.43 431.76)"/>
      <ellipse cx="-216.84" cy="493.37" fill="#fff" opacity=".59" overflow="visible" rx=".79" ry=".33" style="marker:none"/>
      <ellipse cx="-221.82" cy="499.4" fill="#fff" opacity=".59" overflow="visible" rx=".5" ry=".33" style="marker:none"/>
      <ellipse cx="-262.06" cy="499.11" fill="#fff" opacity=".59" overflow="visible" rx=".88" ry=".33" style="marker:none"/>
      <path fill="url(#J)" d="M-261.68 484.75c-4.5 2.78-11.5 3.8-3.84 5.64-.91-2.03 1.97-1.8 3.84-5.64z" opacity=".25" overflow="visible" style="marker:none"/>
      <path fill="url(#K)" d="M8.83 171.65s22.6-2.13 27.82-8.65c3.06-3.81-12.15-8.26-8.87-12 12.35-14.05 22.73-13.47 37.05-19.35 14.32-5.89 9.04-8.77 4.4-11.36-7.92-4.42-25.58-9.14-19.74-19.64 5.88-10.57 57.34-25.25 57.34-25.25 15.6-5.33 13.64-14.97 6-23l-46-45.75s2.29 43.39-7 62c-11.47 23-72.54 48.66-47 51.5 9 1 13.32 4.07 17 11 7.58 14.27-21 40.5-21 40.5z" color="#000" filter="url(#L)" opacity=".36" overflow="visible" style="marker:none" transform="matrix(.30747 0 0 .30717 -248.4 457.37)"/>
    </g>
    <rect width="26.46" height="26.46" x="167.82" y="233.96" fill="none" rx="0" ry="0"/>
  </g>
</svg>
